# 
# Wavefront OBJ file
# Created with Kaydara FBX
# 
mtllib c:\users\tjvan\onedrive\documenten\fontys\minor\nx\.mtlmodels\adductor_magnus.r.obj

g Adductor_magnus_r
v -0.110208 0.771711 -0.026163
v -0.111518 0.783602 -0.028325
v -0.111635 0.782663 -0.029219
v -0.109148 0.785393 -0.028687
v -0.108007 0.783759 -0.029491
v -0.110531 0.771416 -0.025713
v -0.110941 0.783450 -0.027462
v -0.108867 0.783795 -0.027734
v -0.110463 0.771431 -0.025108
v -0.108946 0.758519 -0.023220
v -0.108838 0.758820 -0.023657
v -0.108538 0.758667 -0.022661
v -0.107046 0.772543 -0.024757
v -0.108163 0.772120 -0.027572
v -0.106047 0.784002 -0.028449
v -0.106437 0.785491 -0.029277
v -0.107892 0.751093 -0.022222
v -0.108075 0.750725 -0.021759
v -0.106691 0.759857 -0.024815
v -0.105554 0.752375 -0.023230
v -0.107672 0.750733 -0.021368
v -0.105216 0.760390 -0.021607
v -0.105557 0.783913 -0.030018
v -0.105449 0.772698 -0.028518
v -0.107054 0.744200 -0.021002
v -0.107373 0.743799 -0.020586
v -0.104469 0.745586 -0.021959
v -0.106578 0.743520 -0.019805
v -0.104104 0.752476 -0.019919
v -0.105833 0.736252 -0.019611
v -0.105978 0.736233 -0.019289
v -0.102953 0.738450 -0.020813
v -0.103956 0.773694 -0.025104
v -0.102756 0.753625 -0.023958
v -0.103968 0.760902 -0.025669
v -0.105476 0.736309 -0.018901
v -0.103048 0.745358 -0.019250
v -0.103033 0.784350 -0.028620
v -0.103597 0.785694 -0.029556
v -0.104717 0.728175 -0.018874
v -0.105066 0.727734 -0.018433
v -0.101516 0.731130 -0.020000
v -0.101478 0.747168 -0.022450
v -0.102912 0.784292 -0.030305
v -0.104434 0.728261 -0.018173
v -0.102055 0.738589 -0.018632
v -0.102658 0.773382 -0.029047
v -0.101785 0.762302 -0.021976
v -0.103257 0.720712 -0.018492
v -0.103929 0.720487 -0.018124
v -0.100370 0.723138 -0.019485
v -0.099679 0.740967 -0.021122
v -0.103537 0.721151 -0.017314
v -0.101113 0.731767 -0.017816
v -0.100355 0.754616 -0.020103
v -0.099973 0.754927 -0.024272
v -0.101275 0.762047 -0.026086
v -0.100927 0.775092 -0.025051
v -0.102638 0.713094 -0.017612
v -0.101823 0.713115 -0.018115
v -0.099900 0.785106 -0.028463
v -0.100416 0.786196 -0.029573
v -0.102531 0.713734 -0.016716
v -0.100391 0.724389 -0.016815
v -0.099331 0.714824 -0.019138
v -0.099112 0.747660 -0.018927
v -0.097929 0.734366 -0.020298
v -0.100011 0.784944 -0.030359
v -0.098597 0.748594 -0.022579
v -0.099527 0.774268 -0.029371
v -0.101410 0.703386 -0.017233
v -0.100804 0.703517 -0.017656
v -0.101219 0.703880 -0.016086
v -0.099498 0.716498 -0.016301
v -0.098230 0.741771 -0.018156
v -0.098372 0.705319 -0.018977
v -0.098501 0.764669 -0.022117
v -0.097153 0.725800 -0.019743
v -0.096776 0.742581 -0.021072
v -0.100283 0.692913 -0.016592
v -0.100080 0.693191 -0.017642
v -0.096870 0.756524 -0.024364
v -0.098264 0.763473 -0.026277
v -0.099615 0.693298 -0.016297
v -0.098292 0.706369 -0.015449
v -0.097486 0.735802 -0.017186
v -0.097689 0.776759 -0.024815
v -0.097436 0.695377 -0.019183
v -0.095490 0.787529 -0.029271
v -0.095044 0.786697 -0.028016
v -0.096842 0.728069 -0.016185
v -0.096492 0.716808 -0.019749
v -0.096961 0.757377 -0.020384
v -0.098974 0.680456 -0.017260
v -0.098399 0.680844 -0.017017
v -0.098943 0.680847 -0.018069
v -0.096255 0.683946 -0.019907
v -0.095305 0.786679 -0.030432
v -0.095404 0.750319 -0.022504
v -0.094984 0.736166 -0.020199
v -0.096952 0.695594 -0.015346
v -0.094406 0.776077 -0.029644
v -0.096042 0.719650 -0.015625
v -0.095439 0.707424 -0.019964
v -0.095641 0.750796 -0.018889
v -0.097865 0.667943 -0.017765
v -0.097382 0.668302 -0.017619
v -0.097453 0.668549 -0.018125
v -0.094478 0.672352 -0.019702
v -0.093626 0.744294 -0.020766
v -0.095080 0.767344 -0.022132
v -0.095859 0.683566 -0.016026
v -0.094299 0.697851 -0.020427
v -0.094991 0.709225 -0.014903
v -0.091811 0.759603 -0.024421
v -0.093380 0.766212 -0.026409
v -0.094742 0.745340 -0.017841
v -0.094306 0.727587 -0.019727
v -0.097361 0.657268 -0.018210
v -0.097001 0.657717 -0.017600
v -0.093005 0.779502 -0.024318
v -0.093978 0.739699 -0.016736
v -0.096913 0.657788 -0.018666
v -0.094275 0.661561 -0.020579
v -0.092907 0.687327 -0.021301
v -0.094419 0.671070 -0.017621
v -0.096427 0.646964 -0.017876
v -0.096717 0.646471 -0.018632
v -0.093710 0.718637 -0.020005
v -0.094795 0.660732 -0.017038
v -0.093887 0.698335 -0.014454
v -0.093367 0.760635 -0.020595
v -0.096214 0.646874 -0.019176
v -0.093790 0.650494 -0.021110
v -0.090242 0.753665 -0.022176
v -0.093487 0.731704 -0.015447
v -0.091817 0.737867 -0.019921
v -0.094602 0.633538 -0.018462
v -0.095181 0.633029 -0.019603
v -0.092592 0.709519 -0.020576
v -0.094536 0.649760 -0.017325
v -0.091568 0.676605 -0.021978
v -0.094729 0.633453 -0.020134
v -0.092626 0.637140 -0.022132
v -0.092809 0.722984 -0.014650
v -0.092926 0.686757 -0.015091
v -0.091927 0.754604 -0.018935
v -0.090099 0.788815 -0.028966
v -0.089868 0.788632 -0.027530
v -0.091352 0.700253 -0.021281
v -0.088426 0.747437 -0.020209
v -0.089830 0.787706 -0.030538
v -0.092857 0.619452 -0.019699
v -0.092626 0.619780 -0.019185
v -0.090393 0.771499 -0.022017
v -0.091696 0.712532 -0.014053
v -0.091162 0.729441 -0.019584
v -0.092173 0.664269 -0.016458
v -0.092026 0.675211 -0.016130
v -0.091009 0.749422 -0.017607
v -0.092821 0.619938 -0.020717
v -0.091033 0.623754 -0.022748
v -0.092785 0.636360 -0.017770
v -0.092132 0.653097 -0.016832
v -0.091125 0.665727 -0.022313
v -0.088950 0.778309 -0.029449
v -0.089884 0.690272 -0.022183
v -0.090573 0.720678 -0.020079
v -0.090856 0.654480 -0.022891
v -0.090266 0.743962 -0.016228
v -0.090612 0.701699 -0.013518
v -0.090023 0.641313 -0.024043
v -0.089424 0.711814 -0.020991
v -0.086602 0.740751 -0.019376
v -0.090008 0.735768 -0.014609
v -0.086453 0.763082 -0.024378
v -0.088126 0.769304 -0.026436
v -0.088198 0.766185 -0.020573
v -0.088371 0.782588 -0.023359
v -0.089908 0.690324 -0.013911
v -0.088564 0.680035 -0.023140
v -0.091955 0.607753 -0.020553
v -0.092040 0.608139 -0.019879
v -0.091521 0.608242 -0.021031
v -0.089577 0.612314 -0.023040
v -0.089507 0.726805 -0.013492
v -0.090805 0.623003 -0.018539
v -0.090533 0.639767 -0.017001
v -0.088701 0.628144 -0.024673
v -0.088123 0.702833 -0.021864
v -0.088906 0.668334 -0.015290
v -0.089308 0.678974 -0.014458
v -0.088472 0.657420 -0.015858
v -0.090168 0.596534 -0.020023
v -0.090085 0.612088 -0.018248
v -0.090700 0.595759 -0.020712
v -0.086296 0.761301 -0.019073
v -0.085935 0.732484 -0.019277
v -0.084738 0.757359 -0.022086
v -0.088372 0.716398 -0.012887
v -0.088189 0.668997 -0.023581
v -0.090240 0.596298 -0.021305
v -0.088028 0.600760 -0.023285
v -0.086630 0.693359 -0.022877
v -0.085405 0.723992 -0.019901
v -0.087997 0.657633 -0.024307
v -0.087239 0.617000 -0.025136
v -0.085435 0.756170 -0.017510
v -0.087355 0.645021 -0.025576
v -0.088571 0.626625 -0.017625
v -0.089147 0.580522 -0.021225
v -0.088669 0.581387 -0.020616
v -0.087253 0.705672 -0.012468
v -0.084418 0.715343 -0.021256
v -0.087152 0.644404 -0.015724
v -0.085615 0.776118 -0.021396
v -0.085021 0.750661 -0.015768
v -0.088692 0.581183 -0.021989
v -0.086262 0.586512 -0.024329
v -0.082883 0.750978 -0.019949
v -0.088118 0.600907 -0.018526
v -0.084479 0.789863 -0.025887
v -0.084320 0.790072 -0.026922
v -0.087200 0.616316 -0.017152
v -0.086237 0.632455 -0.026322
v -0.085285 0.742414 -0.013671
v -0.086806 0.694375 -0.012598
v -0.085290 0.683574 -0.023904
v -0.083471 0.786116 -0.021889
v -0.083594 0.789009 -0.028154
v -0.085445 0.605871 -0.025391
v -0.085317 0.733379 -0.012064
v -0.083263 0.706596 -0.022320
v -0.086369 0.683136 -0.012981
v -0.087604 0.564997 -0.021698
v -0.087119 0.565979 -0.021120
v -0.082792 0.780979 -0.028254
v -0.085635 0.672753 -0.013568
v -0.087153 0.565751 -0.022819
v -0.084086 0.572134 -0.025118
v -0.084735 0.621694 -0.027007
v -0.086030 0.586512 -0.019302
v -0.085495 0.631532 -0.016171
v -0.084949 0.672494 -0.024606
v -0.084759 0.662154 -0.014166
v -0.081030 0.744021 -0.019244
v -0.084549 0.723119 -0.011195
v -0.081123 0.781515 -0.019893
v -0.084773 0.661122 -0.025517
v -0.083072 0.772218 -0.019769
v -0.085702 0.605932 -0.017013
v -0.081837 0.697812 -0.023367
v -0.081014 0.767274 -0.024490
v -0.082432 0.773005 -0.026496
v -0.083074 0.592620 -0.026385
v -0.084268 0.649167 -0.026952
v -0.084977 0.551839 -0.023192
v -0.085882 0.551014 -0.022639
v -0.083334 0.637316 -0.027931
v -0.083554 0.712532 -0.010944
v -0.082804 0.610988 -0.027398
v -0.084126 0.621359 -0.016345
v -0.081111 0.559749 -0.025255
v -0.083664 0.649431 -0.014110
v -0.084430 0.571992 -0.019286
v -0.085306 0.552448 -0.020864
v -0.081698 0.560201 -0.018909
v -0.083190 0.700951 -0.010958
v -0.080480 0.688751 -0.024368
v -0.080349 0.736080 -0.019040
v -0.079459 0.761835 -0.022407
v -0.082942 0.689400 -0.010970
v -0.081032 0.768539 -0.017786
v -0.080404 0.579434 -0.027350
v -0.081702 0.627003 -0.028699
v -0.083438 0.592403 -0.017918
v -0.079766 0.727917 -0.019606
v -0.082886 0.540185 -0.021207
v -0.081853 0.541180 -0.022914
v -0.082916 0.611190 -0.015820
v -0.082276 0.678970 -0.011228
v -0.079103 0.778070 -0.018044
v -0.082288 0.636804 -0.014546
v -0.079765 0.598771 -0.028043
v -0.080226 0.763472 -0.016376
v -0.078888 0.719521 -0.021303
v -0.080519 0.749380 -0.012655
v -0.081013 0.740458 -0.010620
v -0.082426 0.542139 -0.020803
v -0.077724 0.550809 -0.019006
v -0.079974 0.678269 -0.025323
v -0.079942 0.757668 -0.014847
v -0.077583 0.550239 -0.022870
v -0.079655 0.667533 -0.026671
v -0.079036 0.656483 -0.028331
v -0.081346 0.668393 -0.011748
v -0.079643 0.616767 -0.029304
v -0.077516 0.755568 -0.020040
v -0.080844 0.730335 -0.009235
v -0.079114 0.791639 -0.023739
v -0.078557 0.789568 -0.020341
v -0.081249 0.578846 -0.017727
v -0.077719 0.569000 -0.016704
v -0.077813 0.711052 -0.022523
v -0.078427 0.791398 -0.024490
v -0.078222 0.645496 -0.030003
v -0.081020 0.626810 -0.014984
v -0.076583 0.568796 -0.027496
v -0.080294 0.655600 -0.012037
v -0.077520 0.790321 -0.025164
v -0.080134 0.719814 -0.008851
v -0.077377 0.786875 -0.017329
v -0.080648 0.598294 -0.016271
v -0.076276 0.635854 -0.030810
v -0.076395 0.703002 -0.023261
v -0.079610 0.708003 -0.009110
v -0.076506 0.586749 -0.029177
v -0.077801 0.774616 -0.015964
v -0.079475 0.696173 -0.008874
v -0.079857 0.616824 -0.014732
v -0.078035 0.547845 -0.021208
v -0.077805 0.548641 -0.021972
v -0.075781 0.748746 -0.019745
v -0.076031 0.605571 -0.029572
v -0.076868 0.784061 -0.026268
v -0.077429 0.549477 -0.020171
v -0.075508 0.772013 -0.024432
v -0.076646 0.777254 -0.025889
v -0.079062 0.643039 -0.012471
v -0.079061 0.685657 -0.008681
v -0.075016 0.694787 -0.024200
v -0.073341 0.560738 -0.017113
v -0.073844 0.626342 -0.031268
v -0.078309 0.675013 -0.008905
v -0.078069 0.585680 -0.016099
v -0.073346 0.577774 -0.014714
v -0.076132 0.783754 -0.015625
v -0.072131 0.559823 -0.024802
v -0.074607 0.741688 -0.019129
v -0.077470 0.633733 -0.012918
v -0.077121 0.747699 -0.009096
v -0.076772 0.755984 -0.011288
v -0.074116 0.766857 -0.022875
v -0.077589 0.737601 -0.007487
v -0.077691 0.604805 -0.014539
v -0.076853 0.763783 -0.013185
v -0.074226 0.684960 -0.024921
v -0.071206 0.577506 -0.029528
v -0.073197 0.734195 -0.019592
v -0.077275 0.662136 -0.009412
v -0.077248 0.769511 -0.014544
v -0.077379 0.726923 -0.006803
v -0.073563 0.674970 -0.026840
v -0.073918 0.615050 -0.012177
v -0.075980 0.624777 -0.012676
v -0.071925 0.594780 -0.030103
v -0.072223 0.726574 -0.021847
v -0.072801 0.664808 -0.028776
v -0.069842 0.616190 -0.031375
v -0.076754 0.715379 -0.007028
v -0.076340 0.703831 -0.006903
v -0.072519 0.761048 -0.020800
v -0.073961 0.792312 -0.017583
v -0.073158 0.793148 -0.020600
v -0.075294 0.780328 -0.013920
v -0.076127 0.649558 -0.009855
v -0.076087 0.693381 -0.006447
v -0.071833 0.654837 -0.030861
v -0.070676 0.718719 -0.022624
v -0.073716 0.790419 -0.015221
v -0.072486 0.792799 -0.021041
v -0.075683 0.682721 -0.006179
v -0.069713 0.645893 -0.031815
v -0.074735 0.593390 -0.014494
v -0.069055 0.587258 -0.013114
v -0.072336 0.557953 -0.021779
v -0.072330 0.558193 -0.020526
v -0.072802 0.557453 -0.022735
v -0.068934 0.711706 -0.022793
v -0.073225 0.558215 -0.018551
v -0.068312 0.571296 -0.015035
v -0.071093 0.605963 -0.011593
v -0.074471 0.744873 -0.005844
v -0.073697 0.754929 -0.007482
v -0.070531 0.754412 -0.020561
v -0.071698 0.792129 -0.021589
v -0.074184 0.641221 -0.010116
v -0.072478 0.558748 -0.019188
v -0.074798 0.734189 -0.004907
v -0.073668 0.788034 -0.013441
v -0.074941 0.669813 -0.006410
v -0.075039 0.775276 -0.012500
v -0.073924 0.762630 -0.009465
v -0.070950 0.788142 -0.023548
v -0.074611 0.769704 -0.011195
v -0.074190 0.723175 -0.004759
v -0.069377 0.778886 -0.024312
v -0.070449 0.783246 -0.024457
v -0.065310 0.569450 -0.027013
v -0.065455 0.587286 -0.030377
v -0.067150 0.704567 -0.023777
v -0.073449 0.712231 -0.004758
v -0.067200 0.637157 -0.031952
v -0.073753 0.657507 -0.006823
v -0.073212 0.785175 -0.012173
v -0.073032 0.702037 -0.004323
v -0.065225 0.606614 -0.030702
v -0.072376 0.633571 -0.009755
v -0.070414 0.626295 -0.009035
v -0.068726 0.748196 -0.020252
v -0.072730 0.691597 -0.003773
v -0.068135 0.774497 -0.023846
v -0.073101 0.780571 -0.010935
v -0.065961 0.695491 -0.024692
v -0.072512 0.678800 -0.003351
v -0.072148 0.752363 -0.005099
v -0.072563 0.742751 -0.003671
v -0.066918 0.741690 -0.020960
v -0.072944 0.775414 -0.009677
v -0.071696 0.761645 -0.006604
v -0.065065 0.686234 -0.026287
v -0.071815 0.650842 -0.006509
v -0.072034 0.733338 -0.002682
v -0.066586 0.769645 -0.022767
v -0.070073 0.793448 -0.013322
v -0.068919 0.794824 -0.015522
v -0.067754 0.619672 -0.007955
v -0.072306 0.768836 -0.008123
v -0.062990 0.628089 -0.031613
v -0.071552 0.666801 -0.003326
v -0.070510 0.791747 -0.011994
v -0.070911 0.789668 -0.010738
v -0.064101 0.676877 -0.027981
v -0.070897 0.724078 -0.002432
v -0.062936 0.582055 -0.012375
v -0.067124 0.569184 -0.016528
v -0.065548 0.734745 -0.023113
v -0.067595 0.794560 -0.017329
v -0.071121 0.785571 -0.009560
v -0.069840 0.715351 -0.001939
v -0.071158 0.780938 -0.008398
v -0.064689 0.567479 -0.023631
v -0.063009 0.667711 -0.029723
v -0.068979 0.706234 -0.001243
v -0.070063 0.759968 -0.004402
v -0.070203 0.751600 -0.002851
v -0.068469 0.694281 -0.000490
v -0.064613 0.764115 -0.022488
v -0.066658 0.567935 -0.017880
v -0.066837 0.794357 -0.017821
v -0.069675 0.645198 -0.006121
v -0.065902 0.567254 -0.019726
v -0.065308 0.566996 -0.021704
v -0.070852 0.774877 -0.006910
v -0.063399 0.727629 -0.023245
v -0.070288 0.768275 -0.005594
v -0.069705 0.743987 -0.001165
v -0.058448 0.600799 -0.029419
v -0.061361 0.659450 -0.030560
v -0.069701 0.661715 -0.002470
v -0.066178 0.794072 -0.018505
v -0.068305 0.683049 0.000641
v -0.058801 0.580565 -0.027393
v -0.069203 0.789479 -0.008406
v -0.069365 0.785547 -0.007339
v -0.068375 0.792932 -0.010052
v -0.065429 0.601309 -0.008848
v -0.065461 0.792039 -0.020873
v -0.068570 0.736498 -0.000036
v -0.069311 0.780401 -0.005909
v -0.061210 0.721666 -0.023699
v -0.062765 0.758432 -0.022871
v -0.067658 0.794493 -0.011201
v -0.063777 0.785705 -0.024463
v -0.064648 0.789101 -0.022968
v -0.067871 0.640042 -0.005199
v -0.068997 0.774809 -0.004627
v -0.068568 0.767980 -0.003541
v -0.068093 0.761073 -0.002367
v -0.065193 0.795958 -0.014292
v -0.066566 0.795665 -0.012704
v -0.058199 0.619678 -0.030572
v -0.066959 0.729285 0.000634
v -0.059302 0.651328 -0.031193
v -0.067544 0.657981 -0.001756
v -0.067026 0.678692 0.001953
v -0.067266 0.755005 -0.000545
v -0.062677 0.782002 -0.025273
v -0.067425 0.789982 -0.006420
v -0.066723 0.793165 -0.007872
v -0.067496 0.785773 -0.005120
v -0.065441 0.795711 -0.009719
v -0.067432 0.781307 -0.003844
v -0.065450 0.721540 0.001351
v -0.059477 0.715616 -0.024722
v -0.063861 0.795927 -0.015631
v -0.060907 0.752623 -0.023602
v -0.066262 0.748969 0.001328
v -0.067130 0.776002 -0.002585
v -0.064440 0.710565 0.002000
v -0.063617 0.700146 0.002855
v -0.061209 0.778067 -0.024999
v -0.066475 0.770661 -0.001405
v -0.065423 0.635302 -0.003953
v -0.065573 0.654743 -0.001173
v -0.062250 0.616202 -0.003809
v -0.064264 0.796616 -0.011065
v -0.063348 0.795864 -0.016185
v -0.065233 0.675452 0.003155
v -0.065294 0.791025 -0.004392
v -0.064744 0.794127 -0.006149
v -0.065289 0.787677 -0.003116
v -0.063511 0.796524 -0.008013
v -0.065109 0.765969 0.000304
v -0.055461 0.643057 -0.030997
v -0.057941 0.707440 -0.025458
v -0.061926 0.577508 -0.014337
v -0.065035 0.783776 -0.001638
v -0.062581 0.696271 0.003910
v -0.064948 0.742334 0.002687
v -0.059126 0.746569 -0.024622
v -0.062920 0.795639 -0.016951
v -0.061863 0.797795 -0.009953
v -0.061193 0.575529 -0.016048
v -0.059718 0.773781 -0.025533
v -0.061814 0.797367 -0.013355
v -0.063081 0.797061 -0.012211
v -0.064512 0.779774 -0.000195
v -0.063674 0.761154 0.002071
v -0.056873 0.699083 -0.026834
v -0.060003 0.574750 -0.018440
v -0.063276 0.651563 0.000139
v -0.063588 0.672577 0.003703
v -0.057185 0.740575 -0.025198
v -0.052499 0.596319 -0.025800
v -0.063353 0.735181 0.003390
v -0.062370 0.794373 -0.019398
v -0.060249 0.597464 -0.005096
v -0.059747 0.632289 0.000115
v -0.058356 0.575737 -0.024301
v -0.059022 0.574634 -0.021109
v -0.062256 0.795799 -0.004469
v -0.062670 0.793605 -0.002783
v -0.061416 0.797566 -0.006342
v -0.051788 0.615362 -0.027680
v -0.061460 0.693515 0.004894
v -0.060688 0.797612 -0.014418
v -0.063212 0.776038 0.001658
v -0.055550 0.690532 -0.027807
v -0.062443 0.791003 -0.001111
v -0.062520 0.755134 0.003664
v -0.059983 0.798886 -0.008264
v -0.061712 0.792447 -0.021891
v -0.057583 0.768715 -0.025784
v -0.061948 0.788250 0.000488
v -0.062096 0.725456 0.003703
v -0.060922 0.798234 -0.011041
v -0.054273 0.682120 -0.028845
v -0.060345 0.797575 -0.015073
v -0.061202 0.789548 -0.024198
v -0.061697 0.772167 0.003380
v -0.060983 0.716130 0.004123
v -0.061027 0.669907 0.004251
v -0.060231 0.690901 0.005862
v -0.058462 0.799799 -0.010041
v -0.055511 0.735216 -0.025817
v -0.061239 0.748558 0.004892
v -0.060121 0.797413 -0.015928
v -0.057497 0.648877 0.003931
v -0.060874 0.785384 0.002502
v -0.060061 0.798524 -0.012005
v -0.053039 0.674277 -0.029921
v -0.051123 0.635385 -0.029755
v -0.058916 0.577989 -0.013528
v -0.058739 0.581315 -0.011085
v -0.055418 0.763514 -0.026114
v -0.060374 0.786249 -0.025581
v -0.059835 0.797379 -0.002969
v -0.059378 0.798648 -0.004700
v -0.059838 0.711844 0.004849
v -0.060247 0.767289 0.004740
v -0.059949 0.795690 -0.001066
v -0.059665 0.796554 -0.018255
v -0.057371 0.613398 0.001323
v -0.058637 0.799684 -0.006427
v -0.060051 0.740208 0.005379
v -0.059584 0.793652 0.000686
v -0.058563 0.576996 -0.015320
v -0.059186 0.798860 -0.012935
v -0.059124 0.795225 -0.020763
v -0.059612 0.782362 0.004429
v -0.058664 0.708518 0.005648
v -0.057381 0.800697 -0.008065
v -0.051441 0.666555 -0.030716
v -0.058825 0.762041 0.005860
v -0.057781 0.576388 -0.017658
v -0.053980 0.729784 -0.026482
v -0.059220 0.782856 -0.026041
v -0.058954 0.792932 -0.023267
v -0.058321 0.688339 0.006792
v -0.055314 0.667720 0.006853
v -0.058867 0.732132 0.005722
v -0.057945 0.799990 -0.011100
v -0.053492 0.758608 -0.026649
v -0.058682 0.791364 0.002813
v -0.057750 0.799193 -0.014722
v -0.058327 0.799127 -0.013843
v -0.058397 0.789986 -0.025309
v -0.057216 0.799174 -0.015746
v -0.056418 0.595033 -0.002672
v -0.058347 0.778728 0.006072
v -0.057284 0.705827 0.006573
v -0.057727 0.799953 -0.011910
v -0.057656 0.755600 0.006625
v -0.056936 0.576513 -0.020155
v -0.056161 0.801376 -0.009673
v -0.056785 0.800300 -0.003277
v -0.056936 0.799350 -0.001484
v -0.057572 0.727485 0.006109
v -0.056491 0.801030 -0.004921
v -0.053884 0.629701 0.004744
v -0.058122 0.779404 -0.026730
v -0.056629 0.798750 -0.017655
v -0.057526 0.788949 0.004825
v -0.056826 0.798096 0.000388
v -0.052737 0.723229 -0.027014
v -0.055995 0.801638 -0.006510
v -0.047959 0.658915 -0.031005
v -0.057750 0.787108 -0.026358
v -0.056992 0.800302 -0.012473
v -0.051762 0.753771 -0.027371
v -0.056137 0.798013 -0.019777
v -0.056003 0.577578 -0.022382
v -0.056445 0.795943 -0.022421
v -0.056477 0.576697 -0.012578
v -0.056478 0.576128 -0.014344
v -0.056354 0.749328 0.007063
v -0.056858 0.774848 0.007363
v -0.054553 0.581035 -0.024136
v -0.048651 0.595155 -0.023879
v -0.056240 0.579081 -0.009787
v -0.056190 0.796483 0.002734
v -0.056197 0.723598 0.006561
v -0.055008 0.802381 -0.007885
v -0.055942 0.576128 -0.016846
v -0.045328 0.612077 -0.025105
v -0.056495 0.793316 -0.024824
v -0.056374 0.786237 0.006602
v -0.055323 0.703322 0.007521
v -0.052586 0.686273 0.008272
v -0.055408 0.800860 -0.014250
v -0.056247 0.800608 -0.013185
v -0.045271 0.631428 -0.027176
v -0.056817 0.784318 -0.027401
v -0.055924 0.775182 -0.027383
v -0.051596 0.716394 -0.027703
v -0.056355 0.801023 -0.011161
v -0.055109 0.576442 -0.019233
v -0.056098 0.791063 -0.026332
v -0.054522 0.801050 -0.015396
v -0.055444 0.770258 0.008040
v -0.054960 0.745299 0.007378
v -0.055204 0.794555 0.004849
v -0.050735 0.646514 0.007310
v -0.054153 0.802785 -0.009336
v -0.051488 0.611474 0.003776
v -0.054508 0.720788 0.007294
v -0.050425 0.749079 -0.027939
v -0.055027 0.801881 -0.011319
v -0.053483 0.577148 -0.020713
v -0.053955 0.801853 -0.001620
v -0.053896 0.802525 -0.003264
v -0.050247 0.709027 -0.028248
v -0.055100 0.783366 0.008122
v -0.055351 0.788769 -0.027745
v -0.054867 0.780983 -0.028611
v -0.053941 0.801063 0.000094
v -0.053789 0.803007 -0.004940
v -0.053730 0.801041 -0.016850
v -0.053982 0.798612 -0.021745
v -0.054586 0.796252 -0.024370
v -0.053534 0.803331 -0.006619
v -0.055140 0.573802 -0.013478
v -0.054584 0.573830 -0.016094
v -0.054829 0.574078 -0.011435
v -0.052969 0.800881 -0.018618
v -0.051781 0.593237 -0.000930
v -0.054195 0.792648 0.006643
v -0.053932 0.765752 0.008428
v -0.054415 0.576473 -0.008665
v -0.053509 0.741767 0.007676
v -0.053634 0.799871 0.002443
v -0.054314 0.794432 -0.026296
v -0.051024 0.580124 -0.022012
v -0.053039 0.803638 -0.008103
v -0.053599 0.574049 -0.018496
v -0.053573 0.771082 -0.027692
v -0.048747 0.701398 -0.029253
v -0.049202 0.744385 -0.028455
v -0.044229 0.651915 -0.029363
v -0.053787 0.779938 0.009187
v -0.053898 0.802424 -0.012069
v -0.053732 0.786492 -0.029727
v -0.053875 0.792856 -0.028234
v -0.048480 0.665565 0.009288
v -0.052422 0.718277 0.008173
v -0.050286 0.701315 0.008833
v -0.052988 0.798257 0.004675
v -0.054013 0.570116 -0.012847
v -0.053724 0.570085 -0.015593
v -0.051675 0.574692 -0.020204
v -0.053032 0.790619 0.008222
v -0.052701 0.803643 -0.009700
v -0.052435 0.762503 0.008700
v -0.052491 0.777973 -0.029388
v -0.053555 0.570211 -0.010505
v -0.052515 0.570234 -0.018041
v -0.053342 0.796096 -0.026602
v -0.053184 0.797645 -0.024643
v -0.045106 0.594261 -0.022911
v -0.052805 0.802893 -0.012948
v -0.051743 0.803243 -0.014021
v -0.051743 0.738966 0.007858
v -0.051848 0.572207 -0.007408
v -0.049352 0.591589 -0.000573
v -0.053339 0.794771 -0.028505
v -0.047137 0.693083 -0.030023
v -0.052236 0.796661 0.006588
v -0.051987 0.560381 -0.015714
v -0.052289 0.560384 -0.013843
v -0.048296 0.739290 -0.028836
v -0.052426 0.799765 -0.022090
v -0.050926 0.803926 -0.001834
v -0.050958 0.804362 -0.003311
v -0.052231 0.776557 0.009768
v -0.050883 0.803352 -0.000288
v -0.051030 0.804621 -0.005016
v -0.047958 0.628056 0.006787
v -0.053101 0.791489 -0.030670
v -0.052747 0.793978 -0.030779
v -0.051850 0.788243 0.009576
v -0.051084 0.804746 -0.006757
v -0.051014 0.560479 -0.017284
v -0.051692 0.784312 -0.031113
v -0.050637 0.803596 -0.015078
v -0.050745 0.802445 0.001938
v -0.050128 0.570754 -0.019592
v -0.051373 0.767730 -0.027902
v -0.051953 0.560428 -0.012171
v -0.051120 0.804689 -0.008420
v -0.050893 0.759486 0.008840
v -0.048684 0.577630 -0.020936
v -0.052719 0.796342 -0.028731
v -0.052485 0.796097 -0.030970
v -0.052263 0.797382 -0.026905
v -0.051898 0.798788 -0.025022
v -0.050761 0.793179 -0.032537
v -0.050823 0.790197 -0.032194
v -0.045422 0.684800 -0.031234
v -0.051275 0.794970 0.008185
v -0.051329 0.804347 -0.010225
v -0.050524 0.801351 0.004196
v -0.051221 0.801816 -0.019244
v -0.049955 0.804966 -0.010947
v -0.047369 0.734008 -0.029309
v -0.050770 0.795698 -0.032848
v -0.051807 0.798306 -0.030527
v -0.051993 0.797852 -0.028892
v -0.046282 0.684437 0.009865
v -0.048858 0.560793 -0.018434
v -0.041896 0.611014 -0.024053
v -0.049281 0.782845 -0.031678
v -0.050180 0.775971 -0.029942
v -0.051291 0.798587 -0.032444
v -0.049692 0.736164 0.008072
v -0.048062 0.716051 0.008943
v -0.050639 0.773859 0.010006
v -0.050985 0.800700 -0.022596
v -0.050783 0.549614 -0.016223
v -0.050987 0.549604 -0.015088
v -0.051497 0.798830 -0.027243
v -0.050482 0.785787 0.010483
v -0.050063 0.800078 0.006221
v -0.050121 0.549649 -0.017263
v -0.050772 0.800176 -0.029915
v -0.051306 0.799223 -0.029016
v -0.050997 0.560351 -0.010724
v -0.050799 0.549625 -0.013967
v -0.050776 0.800116 -0.025456
v -0.047629 0.571002 -0.006087
v -0.046055 0.589770 -0.000207
v -0.050177 0.793063 0.009558
v -0.050035 0.801106 -0.030933
v -0.046262 0.610164 0.004804
v -0.039377 0.628309 -0.025683
v -0.049253 0.764481 -0.028110
v -0.049177 0.756764 0.008932
v -0.048570 0.805530 -0.011705
v -0.048497 0.789087 -0.032623
v -0.046357 0.573324 -0.019916
v -0.045983 0.727713 -0.030000
v -0.050497 0.800117 -0.027672
v -0.042279 0.677403 -0.031283
v -0.048765 0.797707 -0.033821
v -0.048463 0.801181 -0.032806
v -0.049396 0.798695 0.007975
v -0.049753 0.802549 -0.019915
v -0.049276 0.804143 -0.015861
v -0.038957 0.648037 -0.027595
v -0.049414 0.805488 -0.008919
v -0.049077 0.805738 -0.007082
v -0.047976 0.549754 -0.018160
v -0.042557 0.592465 -0.022330
v -0.048778 0.805762 -0.005289
v -0.049891 0.539094 -0.016288
v -0.049692 0.539067 -0.017176
v -0.050179 0.549477 -0.012938
v -0.048404 0.559130 -0.009615
v -0.049520 0.801541 -0.023103
v -0.048473 0.805634 -0.003568
v -0.048342 0.805344 -0.002141
v -0.049046 0.771349 0.010042
v -0.048204 0.804960 -0.000650
v -0.048584 0.792272 -0.033076
v -0.049795 0.539136 -0.015341
v -0.049167 0.539039 -0.017974
v -0.048854 0.794914 -0.033464
v -0.049466 0.801185 -0.025977
v -0.049592 0.801246 -0.028630
v -0.044989 0.644957 0.010014
v -0.047992 0.804345 0.001477
v -0.048951 0.783582 0.010995
v -0.047757 0.803650 0.003669
v -0.048899 0.791084 0.010594
v -0.047341 0.761367 -0.028515
v -0.044551 0.699495 0.009601
v -0.044376 0.720860 -0.030604
v -0.049383 0.539035 -0.014432
v -0.048667 0.548144 -0.012004
v -0.046841 0.781596 -0.031812
v -0.047750 0.774264 -0.030156
v -0.048450 0.797162 0.009454
v -0.047606 0.538967 -0.018650
v -0.046265 0.560994 -0.018491
v -0.047574 0.802814 0.005762
v -0.048462 0.802049 -0.029784
v -0.047413 0.802058 -0.031024
v -0.049071 0.529005 -0.017441
v -0.048938 0.528958 -0.018279
v -0.048964 0.529064 -0.016607
v -0.048288 0.803288 -0.020590
v -0.047872 0.804707 -0.016590
v -0.048532 0.528889 -0.019042
v -0.047296 0.753743 0.008905
v -0.046217 0.732590 0.008744
v -0.048310 0.802260 -0.027179
v -0.048205 0.802608 -0.023800
v -0.047772 0.806209 -0.009474
v -0.047186 0.801709 0.007672
v -0.048670 0.529013 -0.015812
v -0.048235 0.537957 -0.013550
v -0.042586 0.609468 0.004164
v -0.046140 0.788105 -0.032787
v -0.047235 0.806039 -0.012477
v -0.045712 0.758103 -0.029083
v -0.047385 0.528679 -0.019680
v -0.047380 0.769125 0.009978
v -0.048158 0.479429 -0.025740
v -0.049128 0.480035 -0.026863
v -0.049143 0.477204 -0.027905
v -0.048044 0.478278 -0.030279
v -0.048450 0.476206 -0.031126
v -0.048872 0.475072 -0.029352
v -0.048225 0.476923 -0.027056
v -0.047923 0.483100 -0.024702
v -0.048743 0.483600 -0.025847
v -0.047678 0.480714 -0.029319
v -0.048745 0.521265 -0.018428
v -0.048692 0.521315 -0.019188
v -0.047178 0.806579 -0.007467
v -0.047382 0.781478 0.011262
v -0.048614 0.521228 -0.017691
v -0.047447 0.789114 0.011274
v -0.048334 0.521323 -0.019912
v -0.047268 0.795530 0.010592
v -0.048624 0.475200 -0.031520
v -0.048483 0.474234 -0.030067
v -0.047941 0.475000 -0.028511
v -0.045735 0.549670 -0.018141
v -0.047175 0.797160 -0.033715
v -0.046806 0.794286 -0.033581
v -0.046638 0.806692 -0.005640
v -0.047480 0.799695 -0.033411
v -0.047710 0.486933 -0.023698
v -0.048500 0.487332 -0.024790
v -0.047681 0.484175 -0.028029
v -0.048380 0.513791 -0.020125
v -0.048352 0.513640 -0.019432
v -0.042304 0.712061 -0.031400
v -0.048123 0.513878 -0.020819
v -0.039308 0.590624 -0.020511
v -0.048306 0.521112 -0.016965
v -0.047779 0.528232 -0.014952
v -0.045445 0.558217 -0.010103
v -0.046503 0.546952 -0.011958
v -0.038669 0.610203 -0.023952
v -0.048547 0.474303 -0.031694
v -0.046254 0.473732 -0.031067
v -0.046107 0.475005 -0.031512
v -0.048209 0.513498 -0.018766
v -0.046392 0.791456 -0.033239
v -0.046314 0.806769 -0.010172
v -0.047904 0.473781 -0.030657
v -0.047341 0.521053 -0.020534
v -0.048378 0.491111 -0.023903
v -0.047889 0.487829 -0.026820
v -0.047668 0.490805 -0.022808
v -0.047448 0.474088 -0.029284
v -0.042441 0.664296 0.011241
v -0.046157 0.800837 -0.032520
v -0.046862 0.802775 -0.028498
v -0.045766 0.802679 -0.029756
v -0.046157 0.806755 -0.003895
v -0.045952 0.476148 -0.031111
v -0.046476 0.800501 0.009393
v -0.043401 0.570585 -0.007455
v -0.048275 0.495650 -0.023120
v -0.048044 0.491483 -0.025753
v -0.047713 0.495397 -0.021877
v -0.048233 0.504493 -0.021631
v -0.047970 0.504630 -0.022568
v -0.048046 0.504300 -0.020656
v -0.047247 0.513590 -0.021534
v -0.045919 0.806601 -0.002474
v -0.047925 0.513309 -0.018064
v -0.047564 0.520470 -0.016020
v -0.044861 0.753669 -0.029476
v -0.046567 0.803451 -0.025165
v -0.046752 0.804029 -0.021385
v -0.046461 0.805256 -0.017314
v -0.047987 0.495850 -0.024460
v -0.047268 0.479120 -0.024788
v -0.047350 0.476702 -0.026141
v -0.046361 0.536989 -0.013575
v -0.047731 0.504127 -0.019758
v -0.045678 0.806348 -0.001021
v -0.047126 0.482720 -0.023656
v -0.046831 0.504373 -0.023055
v -0.043009 0.714010 0.009229
v -0.045750 0.478164 -0.030363
v -0.046246 0.491211 -0.026237
v -0.046021 0.487487 -0.027301
v -0.046466 0.495663 -0.025023
v -0.045319 0.806010 0.001037
v -0.045870 0.538759 -0.018702
v -0.042263 0.626889 0.007120
v -0.038977 0.670679 -0.030251
v -0.047056 0.474822 -0.027649
v -0.046978 0.486547 -0.022594
v -0.047328 0.503931 -0.018870
v -0.047279 0.512780 -0.017054
v -0.046967 0.473618 -0.029843
v -0.045992 0.473351 -0.030119
v -0.045783 0.483898 -0.028409
v -0.045911 0.806523 -0.013256
v -0.046061 0.527560 -0.015095
v -0.045591 0.807241 -0.008079
v -0.045296 0.772829 -0.030274
v -0.044538 0.780747 -0.031817
v -0.045012 0.805666 0.003197
v -0.047184 0.495200 -0.020764
v -0.047033 0.490510 -0.021674
v -0.045594 0.480518 -0.029533
v -0.041465 0.589210 -0.001570
v -0.046081 0.528388 -0.019819
v -0.046110 0.519950 -0.015928
v -0.044896 0.805048 0.005261
v -0.046438 0.473839 -0.028398
v -0.045942 0.787195 0.011647
v -0.045900 0.793776 0.011336
v -0.044664 0.802028 -0.031031
v -0.046199 0.520715 -0.020751
v -0.045799 0.779745 0.011292
v -0.045572 0.766744 0.009856
v -0.044078 0.748861 -0.029949
v -0.046381 0.478714 -0.023672
v -0.046339 0.476365 -0.025088
v -0.046165 0.513220 -0.021674
v -0.046761 0.503555 -0.017865
v -0.046745 0.494989 -0.019642
v -0.044480 0.749046 0.008725
v -0.046024 0.512358 -0.016445
v -0.046377 0.482314 -0.022490
v -0.045437 0.799083 0.010727
v -0.045539 0.504058 -0.023192
v -0.044894 0.807314 -0.010895
v -0.045461 0.797810 -0.033306
v -0.044770 0.804359 0.007278
v -0.044970 0.807454 -0.006185
v -0.040014 0.703202 -0.031712
v -0.046370 0.486160 -0.021383
v -0.046000 0.474482 -0.026578
v -0.046566 0.490199 -0.020468
v -0.045771 0.473275 -0.029143
v -0.044782 0.803779 -0.026582
v -0.043602 0.803482 -0.027805
v -0.044803 0.495399 -0.025126
v -0.044106 0.787644 -0.032812
v -0.044929 0.794578 -0.033415
v -0.046353 0.494727 -0.018556
v -0.045720 0.503236 -0.017134
v -0.044701 0.804732 -0.022880
v -0.044888 0.805803 -0.018135
v -0.044381 0.807541 -0.004382
v -0.046218 0.489902 -0.019180
v -0.044708 0.546882 -0.012613
v -0.043409 0.558258 -0.011218
v -0.044301 0.803497 0.009171
v -0.044364 0.490865 -0.026327
v -0.044575 0.806982 -0.014029
v -0.045207 0.473387 -0.027369
v -0.044446 0.791369 -0.033229
v -0.045602 0.481696 -0.020813
v -0.045082 0.477877 -0.021922
v -0.045903 0.485770 -0.019870
v -0.045390 0.494507 -0.017783
v -0.044894 0.536863 -0.014396
v -0.042822 0.559795 -0.017120
v -0.041148 0.572038 -0.017038
v -0.036762 0.589752 -0.016016
v -0.044592 0.475383 -0.023167
v -0.044046 0.807853 -0.008729
v -0.039862 0.683272 0.010878
v -0.043346 0.473025 -0.030238
v -0.043987 0.487052 -0.027374
v -0.043334 0.548394 -0.016591
v -0.045149 0.489689 -0.018159
v -0.042026 0.729211 0.008707
v -0.044562 0.513100 -0.020865
v -0.044749 0.520431 -0.019861
v -0.043860 0.503956 -0.022305
v -0.044068 0.807530 -0.002897
v -0.043001 0.474499 -0.031173
v -0.044951 0.527421 -0.016195
v -0.045022 0.519980 -0.017056
v -0.044704 0.527914 -0.018937
v -0.039839 0.609053 0.002926
v -0.043587 0.483514 -0.028402
v -0.044800 0.512559 -0.017594
v -0.043773 0.472689 -0.029224
v -0.043826 0.473345 -0.024504
v -0.042810 0.742946 -0.030601
v -0.042987 0.475914 -0.030729
v -0.044459 0.792015 0.011797
v -0.044469 0.785607 0.011800
v -0.044844 0.485488 -0.018546
v -0.044043 0.797450 0.011533
v -0.043477 0.807863 -0.011615
v -0.043766 0.807469 -0.001366
v -0.044311 0.537907 -0.017608
v -0.044062 0.778032 0.011136
v -0.043216 0.480199 -0.029378
v -0.044250 0.472744 -0.028152
v -0.042453 0.802960 -0.029165
v -0.043075 0.477912 -0.030100
v -0.044192 0.503391 -0.018441
v -0.042463 0.771635 -0.030459
v -0.043266 0.807318 0.000731
v -0.044093 0.481210 -0.019279
v -0.043361 0.808141 -0.006766
v -0.042954 0.763168 0.009598
v -0.042654 0.495349 -0.024120
v -0.043566 0.798791 -0.032558
v -0.041052 0.570708 -0.009402
v -0.043497 0.802394 0.010800
v -0.037348 0.695872 -0.031894
v -0.043488 0.494607 -0.019231
v -0.036301 0.627327 -0.025172
v -0.042815 0.807191 0.002925
v -0.042018 0.780306 -0.031812
v -0.033736 0.644953 -0.026754
v -0.042735 0.472026 -0.025417
v -0.042903 0.489891 -0.019841
v -0.036003 0.609441 -0.022522
v -0.043264 0.477165 -0.020231
v -0.044079 0.527461 -0.017594
v -0.044159 0.520138 -0.018484
v -0.042682 0.806909 0.005056
v -0.038673 0.643683 0.010653
v -0.042738 0.808366 -0.004889
v -0.043856 0.537053 -0.015757
v -0.042915 0.795067 -0.032947
v -0.043422 0.547230 -0.013876
v -0.042480 0.806476 0.007143
v -0.042470 0.806445 -0.019514
v -0.043044 0.807488 -0.014865
v -0.042507 0.808481 -0.009377
v -0.041447 0.766468 -0.030230
v -0.042316 0.485851 -0.020479
v -0.041995 0.490861 -0.025322
v -0.043959 0.512855 -0.019279
v -0.042545 0.804877 -0.024341
v -0.041319 0.804575 -0.025577
v -0.042112 0.805991 0.009171
v -0.041945 0.558652 -0.012996
v -0.042226 0.474562 -0.021285
v -0.041874 0.808437 -0.012418
v -0.043113 0.503636 -0.020333
v -0.037857 0.698294 0.010131
v -0.041911 0.787342 -0.032634
v -0.041019 0.744546 0.008738
v -0.043113 0.790515 0.011993
v -0.042897 0.784068 0.011740
v -0.042591 0.795822 0.011982
v -0.042349 0.791472 -0.032921
v -0.041446 0.736529 -0.031382
v -0.039485 0.728131 -0.032245
v -0.042328 0.808437 -0.003326
v -0.041509 0.487058 -0.026510
v -0.041402 0.805198 0.011032
v -0.040799 0.471017 -0.027227
v -0.041556 0.471153 -0.026155
v -0.033895 0.666768 -0.029662
v -0.041489 0.481775 -0.021326
v -0.040587 0.761832 -0.030258
v -0.041538 0.775860 0.010753
v -0.041917 0.808479 -0.001722
v -0.042157 0.800886 0.011910
v -0.041767 0.808863 -0.007345
v -0.040961 0.483373 -0.027576
v -0.041958 0.494798 -0.021287
v -0.041169 0.472292 -0.022347
v -0.040090 0.471325 -0.028157
v -0.041354 0.808630 0.000456
v -0.040110 0.803906 -0.026881
v -0.040420 0.479903 -0.028529
v -0.040805 0.799743 -0.031135
v -0.040850 0.809203 -0.010128
v -0.039715 0.571159 -0.012288
v -0.038158 0.589208 -0.004191
v -0.041080 0.809154 -0.005397
v -0.040567 0.477917 -0.022195
v -0.040788 0.808731 0.002713
v -0.040050 0.477452 -0.029214
v -0.041686 0.789100 0.012018
v -0.041272 0.794438 0.012160
v -0.039723 0.475198 -0.029731
v -0.040395 0.808244 -0.016154
v -0.039293 0.809372 -0.013759
v -0.040097 0.472217 -0.029312
v -0.036143 0.712777 0.009630
v -0.039754 0.759436 0.009440
v -0.039822 0.795781 -0.031782
v -0.041101 0.490209 -0.022246
v -0.040631 0.782474 0.011450
v -0.039425 0.755775 -0.030393
v -0.040526 0.808690 0.004898
v -0.040703 0.470162 -0.023412
v -0.040602 0.809375 -0.003752
v -0.040286 0.808594 0.007067
v -0.038839 0.626383 0.006668
v -0.040660 0.799405 0.012310
v -0.033671 0.608776 -0.020007
v -0.039974 0.806584 -0.020828
v -0.038711 0.806161 -0.021976
v -0.040041 0.809674 -0.008008
v -0.037528 0.776128 -0.031428
v -0.036509 0.771311 -0.031223
v -0.039923 0.808383 0.009263
v -0.035888 0.663171 0.011831
v -0.039022 0.791874 -0.031977
v -0.040113 0.809578 -0.002066
v -0.040301 0.486328 -0.023213
v -0.037307 0.719617 -0.032657
v -0.034344 0.689299 -0.031647
v -0.039532 0.475380 -0.023108
v -0.040222 0.803977 0.012444
v -0.039278 0.807913 0.011318
v -0.035244 0.727717 0.008607
v -0.037983 0.781911 -0.031812
v -0.038336 0.787662 -0.032010
v -0.039429 0.809919 0.000179
v -0.033716 0.626723 -0.024544
v -0.038280 0.810228 -0.011496
v -0.039297 0.810070 -0.005970
v -0.039910 0.793109 0.012173
v -0.039716 0.787860 0.011911
v -0.038823 0.468648 -0.026035
v -0.039841 0.468983 -0.024732
v -0.038548 0.773211 0.010149
v -0.039541 0.482483 -0.024179
v -0.036503 0.608825 0.001372
v -0.036640 0.741179 -0.032152
v -0.038211 0.749284 -0.030982
v -0.035314 0.766166 -0.031389
v -0.038820 0.810349 0.002505
v -0.037497 0.805532 -0.023400
v -0.039311 0.798133 0.012458
v -0.038612 0.473077 -0.023973
v -0.035813 0.589362 -0.011262
v -0.038740 0.810412 -0.004264
v -0.036431 0.589195 -0.007624
v -0.034537 0.742566 0.008195
v -0.038703 0.478854 -0.025114
v -0.037488 0.810947 -0.009197
v -0.037655 0.469025 -0.027115
v -0.037991 0.800851 -0.029068
v -0.038430 0.810548 0.004749
v -0.037964 0.470779 -0.024500
v -0.038609 0.802627 0.012923
v -0.037939 0.780537 0.010857
v -0.038178 0.810777 -0.002516
v -0.034628 0.758020 -0.031458
v -0.038084 0.810712 0.006990
v -0.037978 0.476390 -0.025996
v -0.037584 0.808398 -0.017340
v -0.036431 0.809513 -0.015023
v -0.037661 0.810747 0.009301
v -0.038251 0.807017 0.012949
v -0.037385 0.811410 -0.000170
v -0.036876 0.471279 -0.026729
v -0.037288 0.474024 -0.026661
v -0.036704 0.811547 -0.007000
v -0.034725 0.712135 -0.032823
v -0.036240 0.807920 -0.018450
v -0.037092 0.810599 0.011533
v -0.038214 0.791865 0.012101
v -0.037963 0.796888 0.012461
v -0.033586 0.682266 0.010610
v -0.035648 0.626077 0.005335
v -0.036688 0.796522 -0.030030
v -0.033931 0.756048 0.008901
v -0.037343 0.786390 0.011486
v -0.035227 0.733072 -0.032697
v -0.033795 0.749194 -0.031644
v -0.036624 0.812079 0.002250
v -0.031097 0.644102 -0.026203
v -0.031832 0.608287 -0.015606
v -0.037092 0.801453 0.013024
v -0.035518 0.810577 -0.012873
v -0.036078 0.812043 -0.005311
v -0.035726 0.792253 -0.030419
v -0.029297 0.685380 -0.031050
v -0.028952 0.663700 -0.028631
v -0.034483 0.643253 0.009630
v -0.036152 0.812605 0.004553
v -0.035414 0.812598 -0.003582
v -0.034985 0.806892 -0.019741
v -0.031317 0.626293 -0.022924
v -0.036598 0.805776 0.013793
v -0.033369 0.768527 0.009891
v -0.035644 0.813004 0.006863
v -0.033855 0.783642 -0.030800
v -0.034808 0.788025 -0.030687
v -0.034700 0.811612 -0.010468
v -0.036149 0.809958 0.013438
v -0.033010 0.738777 -0.032329
v -0.036525 0.795626 0.012356
v -0.036191 0.790443 0.011793
v -0.034316 0.813611 -0.001001
v -0.033376 0.608777 -0.001635
v -0.035070 0.813337 0.009365
v -0.032824 0.779168 -0.030766
v -0.035022 0.802342 -0.025933
v -0.035593 0.800323 0.012960
v -0.033253 0.776432 0.010081
v -0.031412 0.697251 0.009595
v -0.034392 0.813507 0.011810
v -0.035134 0.808969 -0.016102
v -0.031230 0.774299 -0.030701
v -0.033921 0.812635 -0.008159
v -0.033234 0.814717 0.001666
v -0.031542 0.705238 -0.032770
v -0.033087 0.783197 0.010607
v -0.032619 0.727404 -0.032766
v -0.034889 0.804664 0.013904
v -0.031319 0.608227 -0.010504
v -0.033268 0.813343 -0.006532
v -0.033497 0.797423 -0.027474
v -0.032444 0.815577 0.004037
v -0.034627 0.808922 0.014674
v -0.034834 0.794244 0.012064
v -0.034297 0.799349 0.012759
v -0.032141 0.626157 0.002600
v -0.029664 0.768511 -0.030743
v -0.031615 0.608377 -0.005796
v -0.034256 0.809824 -0.013848
v -0.028921 0.643668 -0.025204
v -0.033802 0.807821 -0.017330
v -0.032493 0.787808 0.010994
v -0.029291 0.711689 0.009131
v -0.033508 0.813275 0.013888
v -0.031656 0.816398 0.006464
v -0.032493 0.814053 -0.004798
v -0.029749 0.625939 -0.020248
v -0.031730 0.662688 0.009716
v -0.032589 0.792822 -0.028306
v -0.031723 0.643300 0.006848
v -0.030476 0.817337 0.009553
v -0.033219 0.803645 0.013757
v -0.033481 0.810845 -0.011396
v -0.031084 0.815295 -0.001925
v -0.029325 0.758288 -0.030977
v -0.028480 0.726665 0.008459
v -0.032969 0.808553 -0.014986
v -0.029261 0.818207 0.012652
v -0.032353 0.803255 -0.022479
v -0.032868 0.807821 0.014921
v -0.032857 0.798477 0.012459
v -0.031735 0.792286 0.011312
v -0.030464 0.783570 -0.029088
v -0.031729 0.788191 -0.028922
v -0.029550 0.720571 -0.032426
v -0.032711 0.811866 -0.009028
v -0.029180 0.747053 -0.031055
v -0.032040 0.812545 0.015530
v -0.027960 0.741229 0.008021
v -0.027118 0.701168 -0.031476
v -0.029594 0.816598 0.001031
v -0.031995 0.802843 0.013451
v -0.032276 0.809425 -0.012475
v -0.028014 0.753084 0.008470
v -0.032057 0.812539 -0.007400
v -0.024566 0.682423 -0.029202
v -0.029043 0.778861 -0.029150
v -0.029224 0.734072 -0.031809
v -0.030997 0.804038 -0.019765
v -0.026055 0.662987 -0.027054
v -0.027459 0.643449 -0.023081
v -0.027745 0.625671 -0.015818
v -0.029706 0.681751 0.009135
v -0.027971 0.818669 0.015530
v -0.030729 0.798272 -0.024454
v -0.031639 0.810265 -0.010045
v -0.029776 0.626275 -0.000669
v -0.028138 0.764090 0.009015
v -0.031303 0.813274 -0.005687
v -0.028491 0.772421 0.009030
v -0.028507 0.817692 0.003454
v -0.031153 0.806730 0.014707
v -0.028758 0.779965 0.009213
v -0.030002 0.804638 -0.017223
v -0.030404 0.811417 0.016052
v -0.031050 0.802124 0.013051
v -0.030352 0.798071 0.011860
v -0.027240 0.773706 -0.028907
v -0.031002 0.810888 -0.008315
v -0.029864 0.793327 -0.025716
v -0.028756 0.785220 0.009596
v -0.029933 0.814479 -0.002693
v -0.027389 0.818843 0.005997
v -0.029300 0.805226 -0.014757
v -0.029464 0.643566 0.003137
v -0.030302 0.811526 -0.006478
v -0.026240 0.818493 0.017625
v -0.029876 0.805327 0.014014
v -0.027451 0.625805 -0.010657
v -0.029684 0.662625 0.006481
v -0.027601 0.783170 -0.026913
v -0.029023 0.788312 -0.026662
v -0.028600 0.790434 0.010103
v -0.025825 0.820546 0.009574
v -0.028647 0.805743 -0.012364
v -0.028014 0.625925 -0.005211
v -0.025346 0.716389 -0.030658
v -0.027254 0.696724 0.008561
v -0.026007 0.643240 -0.020781
v -0.029187 0.812931 -0.003404
v -0.025519 0.767694 -0.028567
v -0.028736 0.810183 0.015810
v -0.024441 0.662723 -0.025540
v -0.028516 0.815743 0.000402
v -0.029068 0.803408 0.013006
v -0.029032 0.798946 -0.021785
v -0.027902 0.806050 -0.010237
v -0.024226 0.822403 0.013266
v -0.026034 0.777964 -0.026898
v -0.025219 0.817529 0.017986
v -0.027949 0.797806 0.011033
v -0.027293 0.806591 -0.007938
v -0.027718 0.799444 -0.019150
v -0.027995 0.814403 -0.000234
v -0.027647 0.807772 0.014531
v -0.027932 0.793731 -0.023095
v -0.027481 0.643876 -0.000925
v -0.024629 0.643352 -0.016314
v -0.027087 0.681557 0.006302
v -0.027434 0.662974 0.002602
v -0.024922 0.757085 -0.028908
v -0.027387 0.816822 0.002871
v -0.024886 0.745380 -0.029012
v -0.022485 0.697989 -0.029680
v -0.025235 0.711249 0.008234
v -0.026773 0.799841 -0.016889
v -0.024724 0.731174 -0.030020
v -0.027387 0.809011 -0.004430
v -0.027043 0.804692 0.012723
v -0.024218 0.772497 -0.026302
v -0.026963 0.788483 -0.024197
v -0.025616 0.783209 -0.024665
v -0.022093 0.681763 -0.027988
v -0.022443 0.662256 -0.023704
v -0.025290 0.778234 0.008324
v -0.024976 0.771039 0.008293
v -0.025849 0.783796 0.008534
v -0.024228 0.815777 0.017437
v -0.025903 0.800165 -0.014637
v -0.026140 0.797522 0.009955
v -0.026152 0.789506 0.008965
v -0.026921 0.815439 0.002298
v -0.026214 0.818025 0.005404
v -0.024332 0.763118 0.008028
v -0.024390 0.726256 0.007593
v -0.024092 0.752491 0.007805
v -0.025904 0.643797 -0.005895
v -0.023929 0.740847 0.007560
v -0.027051 0.811793 -0.001038
v -0.022882 0.823957 0.016708
v -0.025387 0.805396 0.011997
v -0.026426 0.794014 -0.020479
v -0.024875 0.800272 -0.012130
v -0.024945 0.643645 -0.011100
v -0.024581 0.810999 0.014783
v -0.024281 0.777812 -0.024857
v -0.025495 0.663344 -0.001678
v -0.022034 0.662404 -0.020466
v -0.024879 0.681975 0.002194
v -0.023811 0.801102 -0.008612
v -0.025122 0.805721 -0.004826
v -0.025784 0.816585 0.004892
v -0.024540 0.819919 0.009058
v -0.024397 0.696514 0.005879
v -0.022540 0.766275 -0.025726
v -0.021196 0.713229 -0.028536
v -0.026060 0.812943 0.001595
v -0.026133 0.809254 -0.001767
v -0.025296 0.788549 -0.021657
v -0.024080 0.783224 -0.022340
v -0.025402 0.794112 -0.018444
v -0.021616 0.824001 0.019939
v -0.024152 0.818261 0.008419
v -0.024611 0.797181 0.008582
v -0.023192 0.782769 0.006840
v -0.023944 0.788828 0.007345
v -0.024087 0.805894 0.011009
v -0.025110 0.810171 0.000844
v -0.019863 0.681500 -0.026407
v -0.024861 0.813693 0.004105
v -0.022720 0.771970 -0.024474
v -0.021914 0.662647 -0.016355
v -0.024290 0.663255 -0.006857
v -0.024452 0.794146 -0.016354
v -0.022450 0.776957 0.006462
v -0.022736 0.821925 0.012759
v -0.023046 0.813496 0.006927
v -0.022919 0.777761 -0.022803
v -0.021602 0.755722 -0.026152
v -0.022903 0.682411 -0.002293
v -0.024223 0.788390 -0.019798
v -0.022014 0.813963 0.014549
v -0.021932 0.770268 0.006222
v -0.022996 0.783093 -0.020481
v -0.021730 0.710902 0.005564
v -0.019426 0.823515 0.018493
v -0.023623 0.806739 0.000039
v -0.023990 0.811001 0.003400
v -0.021474 0.762909 0.005980
v -0.022542 0.662994 -0.011846
v -0.021386 0.743872 -0.026228
v -0.021898 0.696914 0.001987
v -0.021228 0.728776 -0.027282
v -0.023259 0.794041 -0.013451
v -0.022408 0.808662 0.005030
v -0.023360 0.805373 0.009678
v -0.023028 0.796724 0.006729
v -0.019364 0.821503 0.017222
v -0.020045 0.697420 -0.028309
v -0.022354 0.819968 0.011998
v -0.023208 0.788179 -0.017832
v -0.018491 0.681276 -0.023725
v -0.020849 0.725992 0.005590
v -0.020834 0.752333 0.005801
v -0.021167 0.682206 -0.007395
v -0.021523 0.771582 -0.022716
v -0.021225 0.765391 -0.024100
v -0.021960 0.782925 -0.018463
v -0.020831 0.823172 0.016078
v -0.021709 0.813014 0.009990
v -0.020344 0.740668 0.005557
v -0.021840 0.777691 -0.020915
v -0.021525 0.813413 0.012822
v -0.020476 0.782566 0.004238
v -0.021459 0.788420 0.004874
v -0.022054 0.802514 -0.000978
v -0.022012 0.794106 -0.009862
v -0.022448 0.804762 0.007582
v -0.021793 0.787937 -0.014625
v -0.020525 0.782735 -0.015149
v -0.019682 0.776920 0.003715
v -0.021378 0.796121 0.004268
v -0.020797 0.777595 -0.018818
v -0.020479 0.771414 -0.020872
v -0.019904 0.697386 -0.002448
v -0.020679 0.821205 0.015076
v -0.020176 0.764672 -0.022591
v -0.019603 0.681883 -0.012436
v -0.020151 0.754851 -0.024526
v -0.019374 0.712576 -0.026918
v -0.018446 0.681289 -0.020484
v -0.019242 0.770335 0.003421
v -0.020454 0.795332 -0.002856
v -0.018121 0.697174 -0.026391
v -0.018839 0.681558 -0.016583
v -0.020412 0.787737 -0.010832
v -0.019388 0.777463 -0.015465
v -0.018835 0.763041 0.003126
v -0.019290 0.711342 0.001828
v -0.019458 0.771264 -0.018783
v -0.019150 0.782562 -0.011276
v -0.019820 0.743076 -0.024696
v -0.019151 0.764396 -0.020806
v -0.018278 0.752464 0.002783
v -0.019262 0.788146 0.001740
v -0.018000 0.782536 0.000735
v -0.019623 0.728056 -0.025658
v -0.018904 0.788101 -0.004755
v -0.019023 0.754128 -0.023057
v -0.018310 0.697169 -0.007676
v -0.018170 0.726259 0.002166
v -0.017914 0.740817 0.002389
v -0.018091 0.771062 -0.015476
v -0.018061 0.777326 -0.011578
v -0.018132 0.764180 -0.018743
v -0.017245 0.777138 0.000270
v -0.017836 0.753868 -0.021264
v -0.018608 0.742432 -0.023281
v -0.017865 0.712398 -0.025445
v -0.017233 0.711771 -0.002472
v -0.016746 0.696979 -0.024115
v -0.018230 0.727655 -0.024260
v -0.016835 0.770535 -0.000008
v -0.016668 0.696826 -0.012837
v -0.016794 0.763896 -0.015466
v -0.016853 0.770861 -0.011629
v -0.017706 0.782716 -0.005419
v -0.016574 0.763217 -0.000453
v -0.016801 0.753641 -0.019180
v -0.017380 0.742163 -0.021552
v -0.016130 0.696749 -0.017001
v -0.016205 0.752626 -0.000911
v -0.016926 0.727438 -0.022546
v -0.015873 0.696764 -0.021101
v -0.015667 0.711564 -0.007773
v -0.015841 0.741045 -0.001381
v -0.016588 0.712234 -0.023577
v -0.016139 0.726607 -0.001822
v -0.015352 0.753357 -0.015801
v -0.015756 0.763593 -0.011614
v -0.016672 0.777403 -0.005751
v -0.016195 0.741945 -0.019470
v -0.015714 0.727225 -0.020451
v -0.015768 0.770777 -0.006001
v -0.015535 0.711995 -0.021297
v -0.015246 0.763444 -0.005992
v -0.014436 0.741667 -0.016167
v -0.014448 0.753029 -0.011865
v -0.014420 0.711318 -0.013175
v -0.014711 0.752825 -0.006231
v -0.014278 0.726877 -0.017002
v -0.014309 0.741187 -0.006628
v -0.014440 0.711648 -0.017594
v -0.014330 0.726554 -0.007096
v -0.013535 0.741341 -0.012108
v -0.013454 0.726530 -0.012668
usemtl Adductor_magnus_rMaterial0
f 1 2 3
f 3 2 4
f 5 1 3
f 3 4 5
f 6 7 2
f 2 7 8
f 1 6 2
f 2 8 4
f 6 9 7
f 9 8 7
f 10 9 6
f 11 6 1
f 11 10 6
f 10 12 9
f 9 13 8
f 12 13 9
f 14 11 1
f 5 14 1
f 4 8 15
f 5 4 16
f 4 15 16
f 17 10 11
f 18 12 10
f 17 18 10
f 13 15 8
f 14 19 11
f 11 20 17
f 11 19 20
f 18 21 12
f 21 22 12
f 12 22 13
f 23 14 5
f 24 19 14
f 23 24 14
f 25 18 17
f 26 21 18
f 25 26 18
f 5 16 23
f 17 27 25
f 17 20 27
f 26 28 21
f 28 29 21
f 21 29 22
f 30 26 25
f 31 28 26
f 30 31 26
f 25 32 30
f 25 27 32
f 13 33 15
f 22 33 13
f 19 34 20
f 24 35 19
f 19 35 34
f 31 36 28
f 36 37 28
f 28 37 29
f 16 15 38
f 23 16 39
f 16 38 39
f 33 38 15
f 40 31 30
f 41 36 31
f 40 41 31
f 30 42 40
f 30 32 42
f 20 43 27
f 20 34 43
f 44 24 23
f 23 39 44
f 41 45 36
f 45 46 36
f 36 46 37
f 47 35 24
f 44 47 24
f 29 48 22
f 22 48 33
f 49 41 40
f 50 45 41
f 49 50 41
f 40 51 49
f 40 42 51
f 27 52 32
f 27 43 52
f 50 53 45
f 53 54 45
f 45 54 46
f 37 55 29
f 29 55 48
f 35 56 34
f 47 57 35
f 35 57 56
f 33 58 38
f 48 58 33
f 59 53 50
f 60 50 49
f 60 59 50
f 39 38 61
f 44 39 62
f 39 61 62
f 59 63 53
f 63 64 53
f 53 64 54
f 49 65 60
f 49 51 65
f 46 66 37
f 37 66 55
f 58 61 38
f 32 67 42
f 32 52 67
f 68 47 44
f 44 62 68
f 34 69 43
f 34 56 69
f 70 57 47
f 68 70 47
f 71 63 59
f 72 59 60
f 72 71 59
f 71 73 63
f 73 74 63
f 63 74 64
f 54 75 46
f 46 75 66
f 60 76 72
f 60 65 76
f 48 77 58
f 55 77 48
f 42 78 51
f 42 67 78
f 43 79 52
f 43 69 79
f 80 73 71
f 81 71 72
f 81 80 71
f 57 82 56
f 70 83 57
f 57 83 82
f 80 84 73
f 84 85 73
f 73 85 74
f 64 86 54
f 54 86 75
f 58 87 61
f 77 87 58
f 72 88 81
f 72 76 88
f 68 62 89
f 62 61 90
f 62 90 89
f 74 91 64
f 64 91 86
f 51 92 65
f 51 78 92
f 66 93 55
f 55 93 77
f 94 80 81
f 95 84 80
f 95 80 94
f 94 81 96
f 81 97 96
f 81 88 97
f 98 70 68
f 68 89 98
f 56 99 69
f 56 82 99
f 87 90 61
f 52 100 67
f 52 79 100
f 95 101 84
f 84 101 85
f 102 83 70
f 98 102 70
f 85 103 74
f 74 103 91
f 65 104 76
f 65 92 104
f 75 105 66
f 66 105 93
f 106 94 96
f 107 95 94
f 107 94 106
f 106 96 108
f 96 109 108
f 96 97 109
f 69 110 79
f 69 99 110
f 77 111 87
f 93 111 77
f 107 112 95
f 95 112 101
f 76 113 88
f 76 104 113
f 101 114 85
f 85 114 103
f 83 115 82
f 102 116 83
f 83 116 115
f 86 117 75
f 75 117 105
f 67 118 78
f 67 100 118
f 119 106 108
f 120 107 106
f 120 106 119
f 111 121 87
f 87 121 90
f 91 122 86
f 86 122 117
f 119 108 123
f 108 124 123
f 108 109 124
f 88 125 97
f 88 113 125
f 120 126 107
f 107 126 112
f 127 120 119
f 128 119 123
f 127 119 128
f 78 129 92
f 78 118 129
f 127 130 120
f 120 130 126
f 112 131 101
f 101 131 114
f 105 132 93
f 93 132 111
f 128 123 133
f 123 134 133
f 123 124 134
f 82 135 99
f 82 115 135
f 103 136 91
f 91 136 122
f 79 137 100
f 79 110 137
f 138 127 128
f 139 128 133
f 138 128 139
f 92 140 104
f 92 129 140
f 127 141 130
f 138 141 127
f 97 142 109
f 97 125 142
f 139 133 143
f 133 144 143
f 133 134 144
f 114 145 103
f 103 145 136
f 126 146 112
f 112 146 131
f 117 147 105
f 105 147 132
f 98 89 148
f 89 90 149
f 89 149 148
f 104 150 113
f 104 140 150
f 99 151 110
f 99 135 151
f 152 102 98
f 98 148 152
f 153 139 143
f 154 138 139
f 154 139 153
f 132 155 111
f 111 155 121
f 121 149 90
f 131 156 114
f 114 156 145
f 100 157 118
f 100 137 157
f 141 158 130
f 130 159 126
f 130 158 159
f 122 160 117
f 117 160 147
f 153 143 161
f 143 162 161
f 143 144 162
f 138 163 141
f 154 163 138
f 163 164 141
f 141 164 158
f 109 165 124
f 109 142 165
f 126 159 146
f 166 116 102
f 152 166 102
f 113 167 125
f 113 150 167
f 118 168 129
f 118 157 168
f 124 169 134
f 124 165 169
f 136 170 122
f 122 170 160
f 146 171 131
f 131 171 156
f 134 172 144
f 134 169 172
f 129 173 140
f 129 168 173
f 110 174 137
f 110 151 174
f 145 175 136
f 136 175 170
f 116 176 115
f 166 177 116
f 116 177 176
f 147 178 132
f 132 178 155
f 155 179 121
f 121 179 149
f 159 180 146
f 146 180 171
f 125 181 142
f 125 167 181
f 182 153 161
f 183 154 153
f 183 153 182
f 182 161 184
f 161 185 184
f 161 162 185
f 156 186 145
f 145 186 175
f 154 187 163
f 163 188 164
f 187 188 163
f 183 187 154
f 144 189 162
f 144 172 189
f 140 190 150
f 140 173 190
f 164 191 158
f 158 192 159
f 158 191 192
f 188 193 164
f 164 193 191
f 194 183 182
f 183 195 187
f 194 195 183
f 159 192 180
f 196 182 184
f 194 182 196
f 160 197 147
f 147 197 178
f 137 198 157
f 137 174 198
f 115 199 135
f 115 176 199
f 171 200 156
f 156 200 186
f 142 201 165
f 142 181 201
f 196 184 202
f 184 203 202
f 184 185 203
f 150 204 167
f 150 190 204
f 157 205 168
f 157 198 205
f 165 206 169
f 165 201 206
f 162 207 185
f 162 189 207
f 170 208 160
f 160 208 197
f 169 209 172
f 169 206 209
f 187 210 188
f 195 210 187
f 211 196 202
f 212 194 196
f 212 196 211
f 180 213 171
f 171 213 200
f 168 214 173
f 168 205 214
f 210 215 188
f 188 215 193
f 155 216 179
f 178 216 155
f 175 217 170
f 170 217 208
f 211 202 218
f 202 219 218
f 202 203 219
f 135 220 151
f 135 199 220
f 194 221 195
f 212 221 194
f 148 149 222
f 152 148 223
f 148 222 223
f 195 224 210
f 221 224 195
f 172 225 189
f 172 209 225
f 186 226 175
f 175 226 217
f 192 227 180
f 180 227 213
f 167 228 181
f 167 204 228
f 149 179 229
f 149 229 222
f 230 166 152
f 152 223 230
f 185 231 203
f 185 207 231
f 200 232 186
f 186 232 226
f 173 233 190
f 173 214 233
f 191 234 192
f 192 234 227
f 235 211 218
f 236 212 211
f 236 211 235
f 237 177 166
f 230 237 166
f 193 238 191
f 191 238 234
f 235 218 239
f 218 240 239
f 218 219 240
f 189 241 207
f 189 225 241
f 212 242 221
f 236 242 212
f 224 243 210
f 210 243 215
f 181 244 201
f 181 228 244
f 215 245 193
f 193 245 238
f 151 246 174
f 151 220 246
f 213 247 200
f 200 247 232
f 179 216 248
f 179 248 229
f 201 249 206
f 201 244 249
f 197 250 178
f 178 250 216
f 221 251 224
f 242 251 221
f 190 252 204
f 190 233 252
f 177 253 176
f 237 254 177
f 177 254 253
f 203 255 219
f 203 231 255
f 206 256 209
f 206 249 256
f 257 235 239
f 258 236 235
f 257 258 235
f 209 259 225
f 209 256 259
f 227 260 213
f 213 260 247
f 207 261 231
f 207 241 261
f 251 262 224
f 224 262 243
f 239 263 257
f 239 240 263
f 243 264 215
f 215 264 245
f 236 265 242
f 258 266 236
f 267 236 266
f 267 265 236
f 234 268 227
f 227 268 260
f 204 269 228
f 204 252 269
f 174 270 198
f 174 246 270
f 176 271 199
f 176 253 271
f 238 272 234
f 234 272 268
f 208 273 197
f 197 273 250
f 219 274 240
f 219 255 274
f 225 275 241
f 225 259 275
f 242 276 251
f 265 276 242
f 198 277 205
f 198 270 277
f 278 266 258
f 279 258 257
f 279 278 258
f 251 280 262
f 276 280 251
f 245 281 238
f 238 281 272
f 216 250 282
f 216 282 248
f 262 283 243
f 243 283 264
f 231 284 255
f 231 261 284
f 217 285 208
f 208 285 273
f 205 286 214
f 205 277 286
f 232 287 226
f 247 288 232
f 232 288 287
f 278 289 266
f 290 266 289
f 290 267 266
f 228 291 244
f 228 269 291
f 226 292 217
f 226 287 292
f 217 292 285
f 257 293 279
f 257 263 293
f 244 294 249
f 244 291 294
f 249 295 256
f 249 294 295
f 264 296 245
f 245 296 281
f 241 297 261
f 241 275 297
f 199 298 220
f 199 271 298
f 260 299 247
f 247 299 288
f 223 222 300
f 222 229 301
f 222 301 300
f 265 302 276
f 303 265 267
f 303 302 265
f 214 304 233
f 214 286 304
f 230 223 305
f 223 300 305
f 256 306 259
f 256 295 306
f 280 307 262
f 262 307 283
f 240 308 263
f 240 274 308
f 283 309 264
f 264 309 296
f 310 237 230
f 230 305 310
f 268 311 260
f 260 311 299
f 229 248 312
f 229 312 301
f 276 313 280
f 302 313 276
f 259 314 275
f 259 306 314
f 233 315 252
f 233 304 315
f 272 316 268
f 268 316 311
f 255 317 274
f 255 284 317
f 250 273 318
f 250 318 282
f 281 319 272
f 272 319 316
f 280 320 307
f 313 320 280
f 321 289 278
f 322 278 279
f 322 321 278
f 220 323 246
f 220 298 323
f 261 324 284
f 261 297 324
f 325 254 237
f 310 325 237
f 321 326 289
f 326 290 289
f 254 327 253
f 325 328 254
f 254 328 327
f 307 329 283
f 283 329 309
f 296 330 281
f 281 330 319
f 279 293 322
f 252 331 269
f 252 315 331
f 332 267 290
f 332 303 267
f 275 333 297
f 275 314 333
f 309 334 296
f 296 334 330
f 302 335 313
f 336 335 302
f 336 302 303
f 248 282 337
f 248 337 312
f 263 338 293
f 263 308 338
f 246 339 270
f 246 323 339
f 285 318 273
f 320 340 307
f 307 340 329
f 299 341 288
f 288 342 287
f 288 341 342
f 253 343 271
f 253 327 343
f 311 344 299
f 299 344 341
f 313 345 320
f 335 345 313
f 287 346 292
f 287 342 346
f 269 347 291
f 269 331 347
f 274 348 308
f 274 317 348
f 270 349 277
f 270 339 349
f 329 350 309
f 309 350 334
f 292 351 285
f 285 351 318
f 316 352 311
f 311 352 344
f 291 353 294
f 291 347 353
f 292 346 351
f 354 320 345
f 320 355 340
f 354 355 320
f 284 356 317
f 284 324 356
f 277 357 286
f 277 349 357
f 294 358 295
f 294 353 358
f 297 359 324
f 297 333 359
f 319 360 316
f 316 360 352
f 330 361 319
f 319 361 360
f 271 362 298
f 271 343 362
f 300 301 363
f 305 300 364
f 300 363 364
f 282 318 365
f 282 365 337
f 340 366 329
f 329 366 350
f 334 367 330
f 330 367 361
f 295 368 306
f 295 358 368
f 286 369 304
f 286 357 369
f 301 312 370
f 301 370 363
f 310 305 371
f 305 364 371
f 350 372 334
f 334 372 367
f 306 373 314
f 306 368 373
f 335 374 345
f 375 374 335
f 375 335 336
f 376 321 322
f 377 326 321
f 376 377 321
f 322 293 378
f 322 378 376
f 304 379 315
f 304 369 379
f 351 365 318
f 326 380 290
f 380 332 290
f 381 303 332
f 381 336 303
f 382 345 374
f 382 354 345
f 293 338 378
f 352 383 344
f 344 384 341
f 344 383 384
f 298 385 323
f 298 362 385
f 325 310 386
f 310 371 386
f 340 387 366
f 355 387 340
f 388 380 326
f 377 388 326
f 360 389 352
f 352 389 383
f 312 337 390
f 312 390 370
f 366 391 350
f 350 391 372
f 346 392 351
f 351 392 365
f 341 393 342
f 341 384 393
f 328 325 394
f 325 386 394
f 342 395 346
f 346 395 392
f 342 393 395
f 361 396 360
f 360 396 389
f 328 397 327
f 328 394 398
f 328 398 397
f 308 399 338
f 308 348 399
f 317 356 400
f 317 400 348
f 315 401 331
f 315 379 401
f 367 402 361
f 361 402 396
f 314 403 333
f 314 373 403
f 366 404 391
f 387 404 366
f 337 365 405
f 337 405 390
f 372 406 367
f 367 406 402
f 324 407 356
f 324 359 407
f 355 408 387
f 409 355 354
f 409 408 355
f 323 410 339
f 323 385 410
f 391 411 372
f 372 411 406
f 327 412 343
f 327 397 412
f 392 405 365
f 395 413 392
f 392 413 405
f 331 414 347
f 331 401 414
f 404 415 391
f 391 415 411
f 389 416 383
f 396 417 389
f 389 417 416
f 375 382 374
f 339 418 349
f 339 410 418
f 393 419 395
f 395 419 413
f 383 420 384
f 383 416 420
f 347 421 353
f 347 414 421
f 387 422 404
f 408 422 387
f 402 423 396
f 396 423 417
f 343 424 362
f 343 412 424
f 363 370 425
f 364 363 426
f 363 425 426
f 427 354 382
f 427 409 354
f 384 428 393
f 393 428 419
f 333 429 359
f 333 403 429
f 404 430 415
f 422 430 404
f 370 390 431
f 370 431 425
f 384 420 428
f 390 405 432
f 390 432 431
f 353 433 358
f 353 421 433
f 406 434 402
f 402 434 423
f 381 332 380
f 435 375 336
f 435 336 381
f 436 380 388
f 381 380 436
f 413 432 405
f 349 437 357
f 349 418 437
f 371 364 438
f 364 426 438
f 419 439 413
f 413 439 432
f 411 440 406
f 406 440 434
f 428 441 419
f 419 441 439
f 376 378 442
f 378 338 399
f 378 399 442
f 358 443 368
f 358 433 443
f 415 444 411
f 411 444 440
f 417 445 416
f 423 446 417
f 417 446 445
f 430 447 415
f 415 447 444
f 362 448 385
f 362 424 448
f 449 388 377
f 436 388 449
f 386 371 450
f 371 438 450
f 408 451 422
f 409 451 408
f 452 377 376
f 452 376 453
f 376 442 453
f 449 377 452
f 420 454 428
f 428 454 441
f 357 455 369
f 357 437 455
f 416 456 420
f 416 445 456
f 434 457 423
f 423 457 446
f 356 458 400
f 356 407 458
f 368 459 373
f 368 443 459
f 422 460 430
f 451 460 422
f 420 456 454
f 394 386 461
f 386 450 461
f 460 462 430
f 430 462 447
f 348 400 463
f 348 463 399
f 441 464 439
f 454 465 441
f 441 465 464
f 439 466 432
f 439 464 466
f 375 467 382
f 467 427 382
f 398 394 468
f 394 461 468
f 466 431 432
f 440 469 434
f 434 469 457
f 456 470 454
f 454 470 465
f 369 471 379
f 369 455 471
f 385 472 410
f 385 448 472
f 473 425 431
f 466 473 431
f 398 474 397
f 398 468 475
f 398 475 474
f 409 476 451
f 427 476 409
f 445 477 456
f 456 477 470
f 446 478 445
f 457 479 446
f 446 479 478
f 445 478 477
f 425 480 426
f 473 481 425
f 425 481 480
f 359 482 407
f 359 429 482
f 444 483 440
f 440 483 469
f 373 484 403
f 373 459 484
f 451 485 460
f 460 486 462
f 485 486 460
f 469 487 457
f 457 487 479
f 476 485 451
f 397 488 412
f 397 474 488
f 470 489 465
f 465 490 464
f 465 489 490
f 477 491 470
f 470 491 489
f 464 492 466
f 464 490 492
f 435 467 375
f 478 493 477
f 477 493 491
f 447 494 444
f 444 494 483
f 379 495 401
f 379 471 495
f 426 496 438
f 426 480 496
f 410 497 418
f 410 472 497
f 469 498 487
f 483 498 469
f 479 499 478
f 478 499 493
f 462 500 447
f 447 500 494
f 492 473 466
f 435 381 436
f 486 501 462
f 462 501 500
f 412 502 424
f 412 488 502
f 487 503 479
f 479 503 499
f 427 504 476
f 476 505 485
f 504 505 476
f 467 506 427
f 506 504 427
f 507 481 473
f 492 507 473
f 508 450 438
f 508 438 496
f 485 509 486
f 505 509 485
f 493 510 491
f 491 511 489
f 491 510 511
f 499 512 493
f 493 512 510
f 489 513 490
f 489 511 513
f 487 514 503
f 498 514 487
f 403 515 429
f 403 484 515
f 401 516 414
f 401 495 516
f 517 436 449
f 435 436 517
f 503 518 499
f 499 518 512
f 509 519 486
f 486 519 501
f 483 520 498
f 494 520 483
f 418 521 437
f 418 497 521
f 522 461 450
f 522 450 508
f 490 523 492
f 490 513 523
f 524 449 452
f 517 449 524
f 424 525 448
f 424 502 525
f 481 526 480
f 507 527 481
f 481 527 526
f 514 528 503
f 503 528 518
f 498 529 514
f 520 529 498
f 468 461 522
f 414 530 421
f 414 516 530
f 531 452 453
f 524 452 531
f 504 532 505
f 505 533 509
f 532 533 505
f 437 534 455
f 437 521 534
f 400 535 463
f 400 458 535
f 494 536 520
f 500 536 494
f 475 468 537
f 468 522 537
f 523 507 492
f 435 538 467
f 538 506 467
f 539 532 504
f 506 539 504
f 453 442 540
f 531 453 541
f 453 540 541
f 442 399 463
f 512 542 510
f 518 543 512
f 512 543 542
f 510 544 511
f 510 542 544
f 407 545 458
f 407 482 545
f 533 546 509
f 509 546 519
f 480 547 496
f 480 526 547
f 514 548 528
f 529 548 514
f 421 549 433
f 421 530 549
f 528 550 518
f 518 550 543
f 520 551 529
f 536 551 520
f 511 552 513
f 511 544 552
f 442 463 540
f 474 475 553
f 475 537 553
f 448 554 472
f 448 525 554
f 548 555 528
f 528 555 550
f 501 556 500
f 500 556 536
f 557 527 507
f 523 557 507
f 433 558 443
f 433 549 558
f 559 508 496
f 559 496 547
f 488 474 560
f 474 553 560
f 529 561 548
f 551 561 529
f 519 562 501
f 501 562 556
f 532 563 533
f 533 564 546
f 563 564 533
f 513 565 523
f 513 552 565
f 455 566 471
f 455 534 566
f 536 567 551
f 556 567 536
f 568 522 508
f 568 508 559
f 569 563 532
f 539 569 532
f 548 570 555
f 561 570 548
f 571 526 527
f 557 571 527
f 443 572 459
f 443 558 572
f 429 573 482
f 429 515 573
f 574 435 517
f 575 538 435
f 574 575 435
f 537 522 568
f 472 576 497
f 472 554 576
f 502 488 577
f 488 560 577
f 550 578 543
f 543 579 542
f 543 578 579
f 546 580 519
f 519 580 562
f 551 581 561
f 567 581 551
f 555 582 550
f 550 582 578
f 553 537 583
f 537 568 583
f 538 584 506
f 584 539 506
f 542 585 544
f 542 579 585
f 556 586 567
f 562 586 556
f 570 587 555
f 555 587 582
f 588 517 524
f 588 574 517
f 565 557 523
f 589 547 526
f 571 589 526
f 560 553 590
f 553 583 590
f 561 591 570
f 581 591 561
f 564 592 546
f 546 592 580
f 544 593 552
f 544 585 593
f 459 594 484
f 459 572 594
f 567 595 581
f 586 595 567
f 596 524 531
f 596 588 524
f 471 597 495
f 471 566 597
f 502 577 598
f 525 502 598
f 577 560 599
f 560 590 599
f 563 600 564
f 601 600 563
f 569 601 563
f 562 602 586
f 580 602 562
f 603 571 557
f 565 603 557
f 497 604 521
f 497 576 604
f 591 605 570
f 570 605 587
f 606 559 547
f 589 607 547
f 606 547 607
f 598 577 608
f 577 599 608
f 609 568 559
f 609 559 606
f 575 610 538
f 610 584 538
f 581 611 591
f 595 611 581
f 564 612 592
f 600 612 564
f 583 568 609
f 613 589 571
f 603 613 571
f 602 614 586
f 586 614 595
f 615 531 541
f 615 596 531
f 552 616 565
f 552 593 616
f 582 617 578
f 587 618 582
f 582 618 617
f 580 619 602
f 592 619 580
f 578 620 579
f 578 617 620
f 621 569 539
f 584 621 539
f 525 598 622
f 554 525 622
f 590 583 623
f 583 609 623
f 591 624 605
f 611 624 591
f 605 625 587
f 587 625 618
f 495 626 516
f 495 597 626
f 579 627 585
f 579 620 627
f 484 628 515
f 484 594 628
f 598 608 629
f 622 598 629
f 630 607 589
f 613 630 589
f 521 631 534
f 521 604 631
f 599 590 632
f 590 623 632
f 633 541 540
f 633 615 541
f 608 599 634
f 599 632 634
f 635 575 574
f 636 574 588
f 636 635 574
f 602 637 614
f 619 637 602
f 595 638 611
f 614 638 595
f 639 540 463
f 463 640 639
f 463 535 640
f 635 641 575
f 641 610 575
f 624 642 605
f 605 642 625
f 592 643 619
f 612 643 592
f 585 644 593
f 585 627 644
f 645 588 596
f 645 636 588
f 616 603 565
f 458 646 535
f 458 545 646
f 629 608 647
f 608 634 647
f 639 633 540
f 611 648 624
f 638 648 611
f 600 649 612
f 601 650 600
f 650 649 600
f 651 606 607
f 630 652 607
f 651 607 652
f 482 653 545
f 482 573 653
f 622 629 654
f 554 622 655
f 655 622 654
f 516 656 530
f 516 626 656
f 657 613 603
f 616 657 603
f 658 596 615
f 658 645 596
f 654 629 659
f 629 647 659
f 660 609 606
f 660 606 651
f 657 630 613
f 614 661 638
f 637 661 614
f 576 554 655
f 619 662 637
f 643 662 619
f 648 663 624
f 624 663 642
f 664 601 569
f 621 664 569
f 593 665 616
f 593 644 665
f 610 666 584
f 666 621 584
f 612 667 643
f 649 667 612
f 623 609 660
f 534 668 566
f 534 631 668
f 669 630 657
f 669 652 630
f 670 615 633
f 670 658 615
f 625 671 618
f 618 672 617
f 618 671 672
f 530 673 549
f 530 656 673
f 638 674 648
f 661 674 638
f 654 659 675
f 655 654 676
f 676 654 675
f 642 677 625
f 625 677 671
f 617 678 620
f 617 672 678
f 632 623 679
f 623 660 679
f 647 634 680
f 659 647 681
f 647 680 681
f 620 682 627
f 620 678 682
f 683 635 636
f 684 636 645
f 684 683 636
f 685 641 635
f 683 685 635
f 634 632 686
f 634 686 680
f 641 687 610
f 687 666 610
f 648 688 663
f 674 688 648
f 637 689 661
f 662 689 637
f 665 657 616
f 665 669 657
f 685 690 641
f 690 687 641
f 669 651 652
f 643 691 662
f 667 691 643
f 663 692 642
f 642 692 677
f 632 679 686
f 675 659 693
f 659 681 693
f 694 633 639
f 694 670 633
f 627 695 644
f 627 682 695
f 696 645 658
f 696 684 645
f 576 655 697
f 697 655 676
f 549 698 558
f 549 673 698
f 566 699 597
f 566 668 699
f 515 700 573
f 515 628 700
f 661 701 674
f 689 701 661
f 604 576 697
f 669 702 651
f 702 660 651
f 676 675 703
f 675 693 704
f 703 675 704
f 705 650 601
f 664 705 601
f 649 706 667
f 650 707 649
f 707 706 649
f 688 708 663
f 663 708 692
f 709 685 683
f 710 683 684
f 710 709 683
f 711 696 658
f 711 658 670
f 674 712 688
f 701 712 674
f 665 702 669
f 644 713 665
f 644 695 713
f 662 714 689
f 691 714 662
f 715 676 703
f 697 676 715
f 716 690 685
f 709 716 685
f 717 710 684
f 717 684 696
f 681 718 693
f 680 719 681
f 681 719 718
f 639 720 694
f 639 640 720
f 702 721 660
f 660 722 679
f 660 721 722
f 667 723 691
f 706 723 667
f 716 724 690
f 724 725 690
f 690 725 687
f 693 726 704
f 693 718 726
f 558 727 572
f 558 698 727
f 712 728 688
f 688 728 708
f 665 713 702
f 729 709 710
f 730 716 709
f 729 730 709
f 597 731 626
f 597 699 731
f 680 732 719
f 686 732 680
f 677 733 671
f 671 734 672
f 671 733 734
f 689 735 701
f 714 735 689
f 692 736 677
f 677 736 733
f 713 721 702
f 672 737 678
f 672 734 737
f 666 738 621
f 738 664 621
f 703 704 739
f 704 726 740
f 704 740 739
f 701 741 712
f 735 741 701
f 678 742 682
f 678 737 742
f 743 710 717
f 743 729 710
f 744 703 739
f 715 703 744
f 679 745 686
f 679 722 745
f 708 746 692
f 692 746 736
f 747 717 696
f 747 696 711
f 604 697 748
f 748 697 715
f 730 749 716
f 749 724 716
f 682 750 695
f 682 742 750
f 691 751 714
f 723 751 691
f 752 711 670
f 752 670 694
f 631 604 748
f 718 753 726
f 726 754 740
f 726 753 754
f 719 755 718
f 718 755 753
f 732 756 719
f 719 756 755
f 739 740 757
f 744 739 758
f 739 757 758
f 572 759 594
f 572 727 759
f 712 760 728
f 741 760 712
f 695 761 713
f 695 750 761
f 728 762 708
f 708 762 746
f 686 763 732
f 745 763 686
f 713 761 721
f 721 764 722
f 721 761 764
f 626 765 656
f 626 731 765
f 740 754 766
f 740 766 757
f 753 767 754
f 755 768 753
f 753 768 767
f 769 707 650
f 705 769 650
f 770 743 717
f 770 717 747
f 535 771 640
f 535 646 771
f 772 715 744
f 748 715 773
f 772 773 715
f 754 767 774
f 754 774 766
f 706 775 723
f 707 776 706
f 776 775 706
f 714 777 735
f 751 777 714
f 732 778 756
f 763 778 732
f 779 730 729
f 780 749 730
f 779 780 730
f 755 781 768
f 756 781 755
f 735 782 741
f 777 782 735
f 760 783 728
f 728 783 762
f 784 729 743
f 784 779 729
f 768 785 767
f 781 786 768
f 768 786 785
f 749 787 724
f 780 788 749
f 788 787 749
f 756 789 781
f 778 789 756
f 790 724 787
f 724 791 725
f 790 791 724
f 741 792 760
f 782 792 741
f 767 793 774
f 767 785 793
f 687 794 666
f 725 794 687
f 545 795 646
f 545 653 795
f 631 748 796
f 668 631 796
f 723 797 751
f 775 797 723
f 722 798 745
f 722 764 798
f 799 744 758
f 799 772 744
f 800 747 711
f 800 711 752
f 656 801 673
f 656 765 801
f 794 738 666
f 781 802 786
f 789 802 781
f 594 803 628
f 594 759 803
f 796 748 773
f 750 764 761
f 802 785 786
f 766 774 804
f 774 793 805
f 774 805 804
f 792 806 760
f 760 806 783
f 763 807 778
f 745 808 763
f 808 807 763
f 573 809 653
f 573 700 809
f 742 810 750
f 750 810 764
f 737 811 742
f 742 811 810
f 812 784 743
f 812 743 770
f 694 813 752
f 694 720 813
f 734 814 737
f 737 814 811
f 788 780 815
f 780 779 816
f 780 816 815
f 788 817 787
f 818 787 817
f 790 787 818
f 778 819 789
f 807 819 778
f 733 820 734
f 734 820 814
f 736 821 733
f 733 821 820
f 751 822 777
f 797 822 751
f 746 823 736
f 736 823 821
f 758 757 824
f 758 824 799
f 817 788 825
f 788 815 825
f 779 784 826
f 779 826 816
f 757 766 827
f 757 827 824
f 766 804 827
f 789 828 802
f 819 828 789
f 802 829 785
f 829 793 785
f 830 705 664
f 738 830 664
f 762 831 746
f 746 831 823
f 777 832 782
f 822 832 777
f 798 808 745
f 783 833 762
f 762 833 831
f 828 829 802
f 782 834 792
f 832 834 782
f 668 796 835
f 699 668 835
f 836 776 707
f 769 836 707
f 673 837 698
f 673 801 837
f 817 825 838
f 839 817 838
f 818 817 839
f 840 773 772
f 796 773 841
f 840 841 773
f 792 842 806
f 834 842 792
f 784 843 826
f 784 812 843
f 844 770 747
f 844 747 800
f 806 845 783
f 783 845 833
f 829 846 793
f 793 847 805
f 793 846 847
f 810 798 764
f 825 815 848
f 815 816 849
f 815 849 848
f 838 825 850
f 825 848 850
f 807 851 819
f 808 852 807
f 852 851 807
f 816 826 853
f 816 853 849
f 775 854 797
f 776 855 775
f 855 854 775
f 828 856 829
f 856 846 829
f 819 857 828
f 851 857 819
f 857 856 828
f 811 858 810
f 810 858 798
f 842 859 806
f 806 859 845
f 838 850 860
f 861 838 860
f 839 838 861
f 725 862 794
f 791 862 725
f 863 772 799
f 863 840 772
f 798 864 808
f 864 852 808
f 835 796 841
f 731 699 865
f 699 835 865
f 826 866 853
f 826 843 866
f 797 867 822
f 854 867 797
f 868 869 870
f 869 871 870
f 870 872 873
f 874 870 873
f 870 871 872
f 868 870 874
f 875 876 869
f 876 877 869
f 875 869 868
f 869 877 871
f 850 848 878
f 848 849 879
f 848 879 878
f 814 880 811
f 811 880 858
f 822 881 832
f 867 881 822
f 850 878 882
f 860 850 882
f 832 883 834
f 881 883 832
f 849 884 879
f 849 853 884
f 834 885 842
f 883 885 834
f 873 886 887
f 873 872 886
f 888 873 887
f 874 873 888
f 889 812 770
f 889 770 844
f 827 804 890
f 824 827 891
f 827 890 891
f 820 892 814
f 814 892 880
f 804 805 893
f 804 893 890
f 894 895 876
f 895 896 876
f 894 876 875
f 876 896 877
f 878 879 897
f 882 878 898
f 878 897 898
f 698 899 727
f 698 837 899
f 879 900 897
f 879 884 900
f 752 901 800
f 752 813 901
f 860 882 902
f 903 860 902
f 861 860 903
f 904 818 839
f 905 839 861
f 904 839 905
f 640 906 720
f 640 771 906
f 887 886 907
f 886 908 907
f 872 909 886
f 886 909 908
f 882 898 910
f 902 882 910
f 799 824 911
f 824 891 911
f 798 858 912
f 798 912 864
f 887 907 913
f 913 907 908
f 853 914 884
f 853 866 914
f 915 916 895
f 917 915 895
f 895 916 896
f 917 895 894
f 799 911 863
f 888 887 918
f 918 887 913
f 919 769 705
f 830 919 705
f 805 920 893
f 805 847 920
f 856 921 846
f 846 922 847
f 846 921 922
f 821 923 820
f 820 923 892
f 871 924 872
f 872 924 909
f 885 925 842
f 842 925 859
f 926 790 818
f 926 818 904
f 927 928 915
f 929 927 915
f 915 928 916
f 929 915 917
f 898 897 930
f 897 931 930
f 897 900 931
f 898 930 932
f 910 898 932
f 884 933 900
f 884 914 933
f 823 934 821
f 821 934 923
f 902 910 935
f 936 902 935
f 903 902 936
f 765 731 937
f 731 865 937
f 857 938 856
f 938 921 856
f 851 939 857
f 852 940 851
f 940 939 851
f 932 930 927
f 930 941 927
f 927 941 928
f 932 927 929
f 942 868 874
f 943 874 888
f 942 874 943
f 930 931 941
f 944 861 903
f 905 861 944
f 910 932 945
f 935 910 945
f 939 938 857
f 831 946 823
f 823 946 934
f 947 875 868
f 947 868 942
f 900 948 931
f 900 933 948
f 949 855 776
f 836 949 776
f 877 950 871
f 871 950 924
f 941 951 928
f 928 952 916
f 928 951 952
f 945 932 929
f 931 953 941
f 941 953 951
f 833 954 831
f 831 954 946
f 931 948 953
f 812 955 843
f 812 889 955
f 794 956 738
f 956 830 738
f 628 957 700
f 628 803 957
f 958 888 918
f 943 888 958
f 959 894 875
f 959 875 947
f 935 945 960
f 936 935 961
f 961 935 960
f 918 913 962
f 962 913 963
f 913 908 963
f 916 964 896
f 916 952 964
f 864 965 852
f 965 940 852
f 966 903 936
f 944 903 966
f 858 880 967
f 858 967 912
f 835 841 968
f 841 840 969
f 841 969 968
f 845 970 833
f 833 970 954
f 945 929 971
f 960 945 971
f 972 917 894
f 972 894 959
f 971 929 917
f 896 973 877
f 877 973 950
f 896 964 973
f 971 917 972
f 790 974 791
f 926 974 790
f 843 975 866
f 843 955 975
f 976 936 961
f 966 936 976
f 859 977 845
f 845 977 970
f 890 893 920
f 958 918 978
f 978 918 962
f 881 979 883
f 883 980 885
f 979 980 883
f 847 981 920
f 847 922 981
f 866 982 914
f 866 975 982
f 867 983 881
f 854 984 867
f 984 983 867
f 983 979 881
f 801 765 985
f 765 937 985
f 986 942 943
f 987 943 958
f 986 943 987
f 914 988 933
f 914 982 988
f 865 835 968
f 961 960 989
f 960 971 990
f 989 960 990
f 855 991 854
f 991 984 854
f 992 961 989
f 976 961 992
f 993 947 942
f 993 942 986
f 885 994 925
f 980 994 885
f 933 995 948
f 933 988 995
f 864 912 996
f 864 996 965
f 990 971 972
f 891 890 997
f 890 920 997
f 925 998 859
f 859 998 977
f 880 892 999
f 880 999 967
f 727 1000 759
f 727 899 1000
f 1001 959 947
f 1001 947 993
f 1002 958 978
f 987 958 1002
f 1003 972 959
f 990 972 1003
f 1003 959 1001
f 978 962 1004
f 962 963 1004
f 938 1005 921
f 921 1006 922
f 921 1005 1006
f 948 1007 953
f 948 995 1007
f 840 863 1008
f 840 1008 969
f 911 891 1009
f 891 997 1009
f 989 990 1010
f 1010 990 1003
f 1011 989 1010
f 992 989 1011
f 939 1012 938
f 940 1013 939
f 1013 1012 939
f 892 923 1014
f 892 1014 999
f 1015 1003 1001
f 1010 1003 1015
f 1012 1005 938
f 1016 905 944
f 1017 904 905
f 1017 905 1016
f 994 1018 925
f 925 1018 998
f 953 1019 951
f 953 1007 1019
f 965 1020 940
f 1020 1013 940
f 1002 978 1021
f 1021 978 1004
f 863 911 1022
f 911 1009 1022
f 1023 993 986
f 1024 986 987
f 1023 986 1024
f 1025 1001 993
f 1025 993 1023
f 1015 1001 1025
f 1026 1010 1015
f 1011 1010 1026
f 1027 944 966
f 1016 944 1027
f 800 1028 844
f 800 1029 1028
f 800 1030 1029
f 800 901 1030
f 1031 987 1002
f 1024 987 1031
f 912 967 1032
f 912 1032 996
f 1033 836 769
f 919 1033 769
f 909 1034 908
f 963 908 1034
f 951 1035 952
f 951 1019 1035
f 844 1036 889
f 844 1028 1036
f 862 956 794
f 1037 1015 1025
f 1026 1015 1037
f 1038 991 855
f 949 1038 855
f 982 1039 988
f 975 1040 982
f 982 1040 1039
f 988 1041 995
f 988 1039 1041
f 997 920 981
f 923 934 1042
f 923 1042 1014
f 863 1022 1008
f 924 1043 909
f 909 1043 1034
f 1044 966 976
f 1045 976 992
f 1044 976 1045
f 955 1046 975
f 975 1046 1040
f 1027 966 1044
f 791 1047 862
f 974 1047 791
f 952 1048 964
f 952 1035 1048
f 1049 992 1011
f 1045 992 1049
f 1004 963 1050
f 963 1034 1050
f 1051 1002 1021
f 1031 1002 1051
f 837 801 1052
f 801 985 1052
f 950 1053 924
f 924 1053 1043
f 979 1054 980
f 983 1055 979
f 1055 1054 979
f 1056 1025 1023
f 1037 1025 1056
f 980 1057 994
f 1054 1057 980
f 965 996 1058
f 965 1058 1020
f 934 946 1059
f 934 1059 1042
f 889 1060 955
f 955 1060 1046
f 984 1061 983
f 1061 1055 983
f 964 1062 973
f 964 1048 1062
f 1021 1004 1063
f 1004 1050 1063
f 922 1064 981
f 922 1006 1064
f 973 1065 950
f 950 1065 1053
f 889 1036 1060
f 1066 1011 1026
f 1049 1011 1066
f 865 968 1067
f 937 865 1067
f 946 954 1068
f 946 1068 1059
f 973 1062 1065
f 1069 1023 1024
f 1056 1023 1069
f 967 999 1070
f 967 1070 1032
f 991 1071 984
f 1071 1061 984
f 995 1072 1007
f 995 1041 1072
f 1009 997 1073
f 997 981 1073
f 1074 904 1017
f 1074 926 904
f 994 1075 1018
f 1057 1075 994
f 759 1076 803
f 759 1000 1076
f 1077 1026 1037
f 1066 1026 1077
f 646 1078 771
f 646 795 1078
f 954 970 1079
f 954 1079 1068
f 968 969 1080
f 968 1080 1067
f 653 1081 795
f 653 809 1081
f 1082 1021 1063
f 1051 1021 1082
f 1083 1037 1056
f 1077 1037 1083
f 720 1084 813
f 720 906 1084
f 1085 1024 1031
f 1069 1024 1085
f 1086 1044 1045
f 1087 1045 1049
f 1086 1045 1087
f 970 977 1088
f 970 1088 1079
f 1089 919 830
f 956 1089 830
f 999 1014 1090
f 999 1090 1070
f 1091 1027 1044
f 1091 1044 1086
f 1022 1009 1092
f 1009 1073 1092
f 1093 1016 1027
f 1093 1027 1091
f 977 998 1094
f 977 1094 1088
f 1013 1095 1012
f 1020 1096 1013
f 1096 1095 1013
f 996 1032 1097
f 996 1097 1058
f 985 937 1098
f 937 1067 1098
f 1099 1056 1069
f 1083 1056 1099
f 1007 1100 1019
f 1007 1072 1100
f 1101 1049 1066
f 1087 1049 1101
f 1012 1102 1005
f 1005 1103 1006
f 1005 1102 1103
f 998 1018 1104
f 998 1104 1094
f 1046 1087 1040
f 1040 1101 1039
f 1040 1087 1101
f 1060 1086 1046
f 1046 1086 1087
f 1105 1016 1093
f 1105 1017 1016
f 1095 1102 1012
f 1073 981 1064
f 1106 1031 1051
f 1085 1031 1106
f 1020 1058 1107
f 1020 1107 1096
f 1039 1101 1108
f 1039 1108 1041
f 1109 949 836
f 1033 1109 836
f 969 1008 1110
f 969 1110 1080
f 1111 1071 991
f 1038 1111 991
f 1055 1112 1054
f 1061 1113 1055
f 1113 1112 1055
f 1054 1114 1057
f 1112 1114 1054
f 1008 1022 1115
f 1022 1092 1115
f 837 1052 1116
f 837 1117 899
f 837 1116 1117
f 1014 1042 1118
f 1014 1118 1090
f 1019 1119 1035
f 1019 1100 1119
f 1060 1091 1086
f 1036 1091 1060
f 1018 1075 1120
f 1018 1120 1104
f 1121 1063 1050
f 1082 1063 1122
f 1121 1122 1063
f 700 957 1123
f 700 1123 809
f 1101 1066 1108
f 1108 1066 1077
f 1008 1115 1110
f 1124 1069 1085
f 1099 1069 1124
f 1052 985 1125
f 985 1098 1125
f 1071 1126 1061
f 1126 1113 1061
f 1042 1059 1127
f 1042 1127 1118
f 1057 1128 1075
f 1114 1128 1057
f 1032 1070 1129
f 1032 1129 1097
f 1035 1130 1048
f 1035 1119 1130
f 1041 1108 1131
f 1041 1131 1072
f 1036 1093 1091
f 1132 1051 1082
f 1106 1051 1132
f 1133 1050 1034
f 1133 1121 1050
f 1059 1068 1134
f 1059 1134 1127
f 1006 1135 1064
f 1006 1103 1135
f 1048 1136 1062
f 1048 1130 1136
f 1092 1073 1137
f 1073 1064 1137
f 1108 1077 1131
f 1131 1077 1083
f 1120 1075 1128
f 1058 1097 1138
f 1058 1138 1107
f 1028 1093 1036
f 1028 1105 1093
f 1139 1017 1105
f 1139 1074 1017
f 926 1140 974
f 1074 1140 926
f 1070 1090 1141
f 1070 1141 1129
f 1043 1133 1034
f 1142 1085 1106
f 1124 1085 1142
f 1068 1079 1143
f 1068 1143 1134
f 1062 1144 1065
f 1062 1136 1144
f 1113 1145 1112
f 1112 1146 1114
f 1145 1146 1112
f 1065 1147 1053
f 1065 1144 1147
f 1096 1148 1095
f 1096 1107 1149
f 1096 1149 1148
f 1053 1150 1043
f 1043 1150 1133
f 1151 1038 949
f 1109 1151 949
f 1053 1147 1150
f 1152 1126 1071
f 1111 1152 1071
f 1115 1092 1153
f 1092 1137 1153
f 1154 1083 1099
f 1131 1083 1154
f 1155 1145 1113
f 1126 1155 1113
f 1029 1105 1028
f 1116 1052 1156
f 1052 1125 1156
f 1079 1088 1157
f 1079 1157 1143
f 1158 1082 1122
f 1132 1082 1158
f 1090 1118 1159
f 1090 1159 1141
f 1088 1094 1160
f 1088 1160 1157
f 1072 1154 1100
f 1072 1131 1154
f 862 1161 956
f 1047 1161 862
f 1114 1162 1128
f 1146 1162 1114
f 813 1163 901
f 813 1084 1163
f 1095 1164 1102
f 1102 1165 1103
f 1102 1164 1165
f 1097 1129 1166
f 1097 1166 1138
f 1080 1167 1067
f 1067 1168 1098
f 1067 1167 1168
f 1137 1064 1135
f 1148 1164 1095
f 1094 1104 1169
f 1094 1169 1160
f 1170 1033 919
f 1089 1170 919
f 1110 1115 1171
f 1115 1153 1171
f 1118 1127 1172
f 1118 1172 1159
f 1173 1099 1124
f 1154 1099 1173
f 899 1174 1000
f 899 1117 1174
f 803 1175 957
f 803 1076 1175
f 1161 1089 956
f 1176 1106 1132
f 1142 1106 1176
f 1120 1128 1177
f 1177 1128 1162
f 1104 1120 1178
f 1104 1178 1169
f 1179 1111 1038
f 1151 1179 1038
f 1110 1180 1080
f 1080 1180 1167
f 1100 1173 1119
f 1100 1154 1173
f 1029 1139 1105
f 1110 1171 1181
f 1110 1181 1180
f 1127 1134 1182
f 1127 1182 1172
f 771 1183 906
f 771 1078 1183
f 1107 1138 1184
f 1107 1184 1149
f 1129 1141 1185
f 1129 1185 1166
f 1145 1186 1146
f 1155 1187 1145
f 1187 1186 1145
f 1188 1122 1121
f 1158 1122 1189
f 1188 1189 1122
f 1190 1155 1126
f 1152 1190 1126
f 1119 1191 1130
f 1119 1173 1191
f 1191 1124 1142
f 1173 1124 1191
f 974 1192 1047
f 1140 1192 974
f 1116 1193 1117
f 1116 1156 1194
f 1116 1194 1193
f 1098 1195 1125
f 1098 1168 1195
f 1178 1120 1177
f 1134 1143 1196
f 1134 1196 1182
f 1103 1197 1135
f 1103 1165 1197
f 1146 1198 1162
f 1186 1198 1146
f 1199 1132 1158
f 1176 1132 1199
f 1029 1200 1139
f 1029 1030 1200
f 1141 1159 1201
f 1141 1201 1185
f 1139 1202 1074
f 1074 1202 1140
f 1203 1152 1111
f 1179 1203 1111
f 1130 1204 1136
f 1130 1191 1204
f 1138 1166 1205
f 1138 1205 1184
f 1206 1121 1133
f 1206 1188 1121
f 1137 1135 1207
f 1153 1137 1207
f 1143 1157 1208
f 1143 1208 1196
f 1209 1158 1189
f 1199 1158 1209
f 1177 1162 1210
f 1210 1162 1198
f 1211 1187 1155
f 1190 1211 1155
f 1159 1172 1212
f 1159 1212 1201
f 1125 1213 1156
f 1125 1195 1213
f 1204 1142 1176
f 1191 1142 1204
f 1157 1160 1214
f 1157 1214 1208
f 1136 1215 1144
f 1136 1204 1215
f 1148 1216 1164
f 1148 1149 1217
f 1148 1217 1216
f 1160 1169 1218
f 1160 1218 1214
f 1178 1177 1219
f 1219 1177 1210
f 1207 1135 1197
f 1172 1182 1220
f 1172 1220 1212
f 1150 1206 1133
f 1147 1221 1150
f 1150 1221 1206
f 1144 1222 1147
f 1144 1215 1222
f 1166 1185 1223
f 1166 1223 1205
f 1000 1224 1076
f 1000 1174 1224
f 1164 1225 1165
f 1164 1216 1225
f 1169 1178 1226
f 1169 1226 1218
f 1187 1227 1186
f 1186 1228 1198
f 1227 1228 1186
f 1229 1109 1033
f 1170 1229 1033
f 1209 1189 1188
f 1047 1230 1161
f 1192 1230 1047
f 1171 1153 1231
f 1153 1207 1231
f 1232 1190 1152
f 1203 1232 1152
f 1147 1222 1221
f 1139 1200 1202
f 1233 1227 1187
f 1211 1233 1187
f 1204 1176 1215
f 1215 1176 1199
f 1117 1234 1174
f 1117 1193 1234
f 1156 1235 1194
f 1156 1213 1235
f 1182 1196 1236
f 1182 1236 1220
f 795 1237 1078
f 795 1081 1237
f 901 1238 1030
f 901 1163 1238
f 1210 1198 1239
f 1239 1198 1228
f 1149 1184 1240
f 1149 1240 1217
f 1185 1201 1241
f 1185 1241 1223
f 1226 1178 1219
f 1181 1171 1242
f 1171 1231 1242
f 957 1175 1243
f 957 1243 1123
f 809 1123 1244
f 809 1244 1081
f 1161 1245 1089
f 1230 1245 1161
f 1221 1209 1188
f 1221 1188 1206
f 1196 1208 1246
f 1196 1246 1236
f 1201 1212 1247
f 1201 1247 1241
f 1165 1248 1197
f 1165 1225 1248
f 906 1249 1084
f 906 1183 1249
f 1245 1170 1089
f 1215 1199 1222
f 1222 1199 1209
f 1219 1210 1250
f 1250 1210 1239
f 1251 1211 1190
f 1232 1251 1190
f 1208 1214 1252
f 1208 1252 1246
f 1181 1253 1180
f 1181 1242 1254
f 1181 1254 1253
f 1184 1205 1255
f 1184 1255 1240
f 1226 1219 1256
f 1256 1219 1250
f 1194 1257 1193
f 1194 1235 1257
f 1227 1258 1228
f 1233 1259 1227
f 1259 1258 1227
f 1212 1220 1260
f 1212 1260 1247
f 1140 1261 1192
f 1202 1261 1140
f 1214 1218 1262
f 1214 1262 1252
f 1180 1263 1167
f 1180 1253 1263
f 1207 1197 1264
f 1231 1207 1264
f 1222 1209 1221
f 1239 1228 1265
f 1258 1265 1228
f 1266 1233 1211
f 1251 1266 1211
f 1267 1151 1109
f 1229 1267 1109
f 1218 1226 1268
f 1218 1268 1262
f 1216 1217 1269
f 1216 1269 1225
f 1167 1270 1168
f 1167 1263 1270
f 1264 1197 1248
f 1205 1223 1271
f 1205 1271 1255
f 1220 1236 1272
f 1220 1272 1260
f 1076 1224 1273
f 1076 1273 1175
f 1274 1259 1233
f 1266 1274 1233
f 1174 1234 1275
f 1174 1275 1224
f 1250 1239 1276
f 1276 1239 1265
f 1268 1226 1256
f 1030 1277 1200
f 1030 1238 1277
f 1223 1241 1278
f 1223 1278 1271
f 1242 1231 1279
f 1231 1264 1279
f 1193 1275 1234
f 1193 1257 1275
f 1236 1246 1280
f 1236 1280 1272
f 1256 1250 1281
f 1281 1250 1276
f 1259 1282 1258
f 1258 1283 1265
f 1282 1283 1258
f 1192 1284 1230
f 1261 1284 1192
f 1168 1285 1195
f 1168 1270 1285
f 1200 1286 1202
f 1202 1286 1261
f 1217 1240 1287
f 1217 1287 1269
f 1078 1288 1183
f 1078 1237 1288
f 1225 1269 1289
f 1225 1289 1248
f 1290 1282 1259
f 1274 1290 1259
f 1291 1179 1151
f 1267 1291 1151
f 1292 1256 1281
f 1268 1256 1292
f 1246 1252 1293
f 1246 1293 1280
f 1241 1247 1294
f 1241 1294 1278
f 1084 1295 1163
f 1084 1249 1295
f 1245 1296 1170
f 1296 1229 1170
f 1200 1277 1286
f 1254 1242 1297
f 1242 1279 1297
f 1230 1298 1245
f 1284 1298 1230
f 1252 1262 1299
f 1252 1299 1293
f 1276 1265 1300
f 1283 1300 1265
f 1240 1255 1301
f 1240 1301 1287
f 1247 1260 1302
f 1247 1302 1294
f 1195 1303 1213
f 1195 1285 1303
f 1304 1203 1179
f 1291 1304 1179
f 1269 1287 1305
f 1269 1305 1289
f 1262 1268 1306
f 1262 1306 1299
f 1264 1248 1307
f 1279 1264 1307
f 1307 1248 1289
f 1281 1276 1308
f 1308 1276 1300
f 1282 1309 1283
f 1310 1309 1282
f 1290 1310 1282
f 1311 1253 1254
f 1254 1297 1312
f 1311 1254 1312
f 1224 1275 1313
f 1224 1313 1273
f 1255 1271 1314
f 1255 1314 1301
f 1213 1315 1235
f 1213 1303 1315
f 1292 1281 1316
f 1316 1281 1308
f 1317 1232 1203
f 1304 1317 1203
f 1298 1296 1245
f 1306 1268 1292
f 1175 1273 1318
f 1175 1318 1243
f 1260 1272 1319
f 1260 1319 1302
f 1283 1320 1300
f 1309 1320 1283
f 1287 1301 1321
f 1287 1321 1305
f 1322 1251 1232
f 1317 1322 1232
f 1271 1278 1323
f 1271 1323 1314
f 1123 1243 1324
f 1123 1324 1244
f 1325 1263 1253
f 1325 1253 1311
f 1235 1326 1257
f 1235 1315 1326
f 1327 1289 1305
f 1307 1289 1327
f 1081 1328 1237
f 1081 1244 1328
f 1183 1329 1249
f 1183 1288 1329
f 1163 1330 1238
f 1163 1295 1330
f 1296 1331 1229
f 1331 1267 1229
f 1332 1292 1316
f 1306 1292 1332
f 1297 1279 1333
f 1279 1307 1333
f 1301 1314 1334
f 1301 1334 1321
f 1261 1335 1284
f 1286 1335 1261
f 1336 1266 1251
f 1322 1336 1251
f 1278 1294 1337
f 1278 1337 1323
f 1338 1274 1266
f 1336 1338 1266
f 1272 1280 1339
f 1272 1339 1319
f 1308 1300 1340
f 1320 1340 1300
f 1341 1290 1274
f 1338 1341 1274
f 1257 1313 1275
f 1257 1326 1313
f 1342 1305 1321
f 1327 1305 1342
f 1316 1308 1343
f 1343 1308 1340
f 1309 1344 1320
f 1310 1345 1309
f 1345 1344 1309
f 1346 1270 1263
f 1346 1263 1325
f 1314 1323 1347
f 1314 1347 1334
f 1312 1297 1348
f 1297 1333 1348
f 1349 1310 1290
f 1341 1349 1290
f 1294 1350 1337
f 1294 1302 1350
f 1280 1293 1351
f 1280 1351 1339
f 1333 1307 1327
f 1352 1321 1334
f 1342 1321 1352
f 1284 1353 1298
f 1335 1353 1284
f 1323 1337 1354
f 1323 1354 1347
f 1355 1316 1343
f 1332 1316 1355
f 1320 1356 1340
f 1344 1356 1320
f 1238 1357 1277
f 1238 1330 1357
f 1298 1358 1296
f 1353 1358 1298
f 1358 1331 1296
f 1359 1311 1312
f 1312 1348 1360
f 1359 1312 1360
f 1361 1345 1310
f 1349 1361 1310
f 1293 1299 1362
f 1293 1362 1351
f 1363 1334 1347
f 1352 1334 1363
f 1277 1364 1286
f 1286 1364 1335
f 1273 1313 1365
f 1273 1365 1318
f 1331 1366 1267
f 1366 1291 1267
f 1277 1357 1364
f 1249 1367 1295
f 1249 1329 1367
f 1337 1368 1354
f 1337 1350 1368
f 1369 1285 1270
f 1369 1270 1346
f 1343 1340 1370
f 1356 1370 1340
f 1237 1371 1288
f 1237 1328 1371
f 1302 1372 1350
f 1302 1319 1372
f 1345 1373 1344
f 1344 1373 1356
f 1333 1327 1374
f 1374 1327 1342
f 1375 1347 1354
f 1363 1347 1375
f 1348 1333 1374
f 1299 1306 1376
f 1299 1376 1362
f 1377 1325 1311
f 1377 1311 1359
f 1378 1343 1370
f 1355 1343 1378
f 1379 1373 1345
f 1361 1379 1345
f 1368 1380 1354
f 1375 1354 1380
f 1381 1342 1352
f 1374 1342 1381
f 1350 1382 1368
f 1350 1372 1382
f 1373 1383 1356
f 1356 1383 1370
f 1360 1348 1384
f 1348 1374 1384
f 1335 1385 1353
f 1364 1385 1335
f 1295 1386 1330
f 1295 1367 1386
f 1358 1387 1331
f 1387 1366 1331
f 1353 1388 1358
f 1388 1387 1358
f 1389 1303 1285
f 1389 1285 1369
f 1319 1390 1372
f 1319 1339 1390
f 1365 1313 1326
f 1385 1388 1353
f 1391 1315 1303
f 1391 1303 1389
f 1243 1318 1392
f 1243 1392 1324
f 1393 1304 1291
f 1366 1393 1291
f 1394 1352 1363
f 1381 1352 1394
f 1376 1306 1332
f 1395 1326 1315
f 1365 1326 1395
f 1395 1315 1391
f 1382 1396 1368
f 1368 1396 1380
f 1379 1397 1373
f 1373 1397 1383
f 1398 1346 1325
f 1398 1325 1377
f 1360 1384 1399
f 1400 1359 1360
f 1400 1360 1399
f 1384 1374 1381
f 1244 1401 1328
f 1244 1324 1401
f 1288 1402 1329
f 1288 1371 1402
f 1403 1349 1341
f 1404 1341 1338
f 1404 1403 1341
f 1405 1361 1349
f 1403 1405 1349
f 1383 1406 1370
f 1378 1370 1406
f 1407 1363 1375
f 1394 1363 1407
f 1361 1408 1379
f 1361 1409 1408
f 1405 1409 1361
f 1372 1410 1382
f 1372 1390 1410
f 1339 1411 1390
f 1339 1351 1411
f 1412 1338 1336
f 1412 1404 1338
f 1413 1317 1304
f 1393 1413 1304
f 1414 1336 1322
f 1414 1412 1336
f 1364 1415 1385
f 1357 1415 1364
f 1416 1322 1317
f 1416 1414 1322
f 1382 1417 1396
f 1410 1417 1382
f 1418 1332 1355
f 1376 1332 1418
f 1413 1416 1317
f 1379 1419 1397
f 1379 1408 1419
f 1384 1381 1420
f 1399 1384 1420
f 1421 1375 1380
f 1407 1375 1421
f 1330 1422 1357
f 1330 1386 1422
f 1420 1381 1394
f 1397 1423 1383
f 1383 1423 1406
f 1424 1377 1359
f 1424 1359 1400
f 1385 1425 1388
f 1415 1425 1385
f 1357 1422 1415
f 1329 1426 1367
f 1329 1402 1426
f 1388 1427 1387
f 1425 1427 1388
f 1396 1428 1380
f 1417 1429 1396
f 1396 1429 1428
f 1390 1430 1410
f 1390 1411 1430
f 1351 1431 1411
f 1351 1362 1431
f 1421 1380 1428
f 1387 1432 1366
f 1432 1393 1366
f 1433 1369 1346
f 1433 1346 1398
f 1318 1365 1434
f 1318 1434 1392
f 1427 1432 1387
f 1397 1419 1423
f 1410 1435 1417
f 1435 1436 1417
f 1417 1436 1429
f 1399 1420 1437
f 1438 1400 1399
f 1438 1399 1437
f 1430 1435 1410
f 1420 1394 1439
f 1439 1394 1407
f 1437 1420 1439
f 1440 1355 1378
f 1418 1355 1440
f 1411 1441 1430
f 1411 1431 1441
f 1409 1442 1408
f 1443 1409 1405
f 1409 1444 1442
f 1443 1444 1409
f 1408 1445 1419
f 1408 1442 1445
f 1435 1446 1436
f 1429 1436 1446
f 1328 1447 1371
f 1328 1401 1447
f 1430 1448 1435
f 1448 1446 1435
f 1449 1377 1424
f 1449 1398 1377
f 1367 1450 1386
f 1367 1426 1450
f 1415 1451 1425
f 1422 1451 1415
f 1439 1407 1452
f 1452 1407 1421
f 1453 1405 1403
f 1453 1443 1405
f 1362 1454 1431
f 1362 1376 1454
f 1455 1448 1430
f 1455 1430 1441
f 1456 1424 1400
f 1456 1400 1438
f 1457 1389 1369
f 1457 1369 1433
f 1425 1458 1427
f 1451 1458 1425
f 1437 1439 1459
f 1459 1439 1452
f 1419 1460 1423
f 1419 1445 1460
f 1434 1365 1395
f 1461 1403 1404
f 1461 1453 1403
f 1462 1437 1459
f 1462 1438 1437
f 1432 1463 1393
f 1463 1413 1393
f 1464 1378 1406
f 1440 1378 1464
f 1429 1446 1465
f 1428 1429 1465
f 1448 1466 1446
f 1465 1446 1466
f 1467 1404 1412
f 1467 1461 1404
f 1386 1468 1422
f 1422 1468 1451
f 1469 1391 1389
f 1469 1389 1457
f 1427 1470 1432
f 1458 1470 1427
f 1471 1395 1391
f 1471 1391 1469
f 1452 1421 1472
f 1472 1421 1428
f 1473 1466 1448
f 1473 1448 1455
f 1434 1395 1471
f 1386 1450 1468
f 1442 1474 1445
f 1444 1475 1442
f 1442 1475 1474
f 1423 1476 1406
f 1423 1460 1476
f 1324 1392 1477
f 1324 1477 1401
f 1431 1478 1441
f 1431 1454 1478
f 1459 1452 1479
f 1479 1452 1472
f 1371 1480 1402
f 1371 1447 1480
f 1470 1463 1432
f 1481 1416 1413
f 1463 1481 1413
f 1482 1412 1414
f 1482 1467 1412
f 1451 1483 1458
f 1468 1483 1451
f 1484 1424 1456
f 1484 1449 1424
f 1485 1398 1449
f 1485 1433 1398
f 1486 1459 1479
f 1486 1462 1459
f 1464 1406 1476
f 1376 1418 1487
f 1376 1487 1454
f 1488 1455 1441
f 1488 1441 1478
f 1489 1414 1416
f 1489 1482 1414
f 1490 1438 1462
f 1490 1456 1438
f 1445 1474 1491
f 1445 1491 1460
f 1465 1466 1473
f 1492 1444 1443
f 1444 1493 1475
f 1492 1493 1444
f 1481 1489 1416
f 1428 1465 1494
f 1472 1428 1495
f 1495 1428 1494
f 1494 1465 1473
f 1475 1496 1474
f 1474 1496 1488
f 1474 1488 1491
f 1479 1472 1497
f 1497 1472 1495
f 1498 1486 1479
f 1498 1479 1497
f 1499 1443 1453
f 1499 1492 1443
f 1496 1473 1455
f 1496 1455 1488
f 1475 1500 1496
f 1493 1500 1475
f 1501 1462 1486
f 1501 1490 1462
f 1502 1456 1490
f 1502 1484 1456
f 1458 1503 1470
f 1483 1503 1458
f 1418 1440 1464
f 1418 1464 1487
f 1454 1504 1478
f 1454 1487 1504
f 1505 1449 1484
f 1505 1485 1449
f 1450 1506 1468
f 1468 1506 1483
f 1507 1457 1433
f 1507 1433 1485
f 1392 1434 1508
f 1392 1508 1477
f 1402 1509 1426
f 1402 1480 1509
f 1510 1453 1461
f 1510 1499 1453
f 1494 1473 1496
f 1511 1494 1496
f 1511 1496 1500
f 1491 1488 1478
f 1491 1478 1504
f 1401 1477 1512
f 1401 1512 1447
f 1495 1494 1511
f 1426 1513 1450
f 1426 1509 1513
f 1497 1495 1514
f 1514 1495 1511
f 1460 1491 1504
f 1460 1504 1476
f 1515 1501 1486
f 1515 1486 1498
f 1516 1461 1467
f 1516 1510 1461
f 1450 1513 1506
f 1470 1517 1463
f 1503 1517 1470
f 1518 1490 1501
f 1518 1502 1490
f 1519 1498 1497
f 1519 1497 1514
f 1517 1481 1463
f 1520 1469 1457
f 1520 1457 1507
f 1521 1484 1502
f 1521 1505 1484
f 1522 1467 1482
f 1522 1516 1467
f 1493 1523 1500
f 1524 1493 1492
f 1524 1523 1493
f 1525 1471 1469
f 1525 1469 1520
f 1526 1511 1500
f 1526 1500 1523
f 1508 1434 1471
f 1508 1471 1525
f 1527 1485 1505
f 1527 1507 1485
f 1483 1528 1503
f 1506 1528 1483
f 1529 1489 1481
f 1517 1529 1481
f 1530 1482 1489
f 1530 1522 1482
f 1487 1476 1504
f 1487 1464 1476
f 1531 1518 1501
f 1531 1501 1515
f 1532 1515 1498
f 1532 1498 1519
f 1533 1502 1518
f 1533 1521 1502
f 1534 1492 1499
f 1534 1524 1492
f 1514 1511 1526
f 1519 1514 1526
f 1529 1530 1489
f 1535 1505 1521
f 1535 1527 1505
f 1536 1520 1507
f 1536 1507 1527
f 1477 1508 1537
f 1477 1537 1512
f 1503 1538 1517
f 1528 1538 1503
f 1447 1539 1480
f 1447 1512 1539
f 1540 1525 1520
f 1540 1520 1536
f 1541 1499 1510
f 1541 1534 1499
f 1537 1508 1525
f 1537 1525 1540
f 1513 1542 1506
f 1506 1542 1528
f 1543 1533 1518
f 1543 1518 1531
f 1544 1531 1515
f 1544 1515 1532
f 1538 1529 1517
f 1545 1526 1523
f 1545 1523 1524
f 1546 1510 1516
f 1546 1541 1510
f 1547 1521 1533
f 1547 1535 1521
f 1519 1526 1545
f 1532 1519 1545
f 1548 1536 1527
f 1548 1527 1535
f 1509 1549 1513
f 1513 1549 1542
f 1550 1516 1522
f 1550 1546 1516
f 1551 1540 1536
f 1551 1536 1548
f 1480 1552 1509
f 1480 1539 1552
f 1509 1552 1549
f 1528 1553 1538
f 1542 1553 1528
f 1554 1522 1530
f 1554 1550 1522
f 1555 1537 1540
f 1555 1540 1551
f 1556 1530 1529
f 1538 1556 1529
f 1557 1547 1533
f 1557 1533 1543
f 1512 1537 1555
f 1512 1555 1539
f 1558 1531 1544
f 1558 1543 1531
f 1532 1545 1559
f 1544 1532 1559
f 1559 1545 1524
f 1559 1524 1534
f 1556 1554 1530
f 1560 1548 1535
f 1560 1535 1547
f 1561 1551 1548
f 1561 1548 1560
f 1562 1534 1541
f 1562 1559 1534
f 1553 1556 1538
f 1563 1555 1551
f 1563 1551 1561
f 1544 1559 1562
f 1558 1544 1562
f 1564 1541 1546
f 1564 1562 1541
f 1565 1560 1547
f 1565 1547 1557
f 1566 1543 1558
f 1566 1557 1543
f 1539 1555 1563
f 1539 1563 1552
f 1549 1567 1542
f 1542 1567 1553
f 1568 1546 1550
f 1568 1564 1546
f 1569 1561 1560
f 1569 1560 1565
f 1570 1550 1554
f 1570 1568 1550
f 1552 1571 1549
f 1549 1571 1567
f 1572 1554 1556
f 1553 1572 1556
f 1552 1563 1571
f 1572 1570 1554
f 1558 1562 1564
f 1566 1558 1564
f 1571 1563 1561
f 1571 1561 1569
f 1567 1572 1553
f 1573 1565 1557
f 1573 1557 1566
f 1566 1564 1568
f 1573 1566 1568
f 1573 1568 1570
f 1567 1571 1569
f 1574 1569 1565
f 1574 1565 1573
f 1567 1574 1572
f 1567 1569 1574
f 1574 1570 1572
f 1574 1573 1570
