# 
# Wavefront OBJ file
# Created with Kaydara FBX
# 
mtllib c:\users\tjvan\onedrive\documenten\fontys\minor\nx\.mtlmodels\adductor_hiatus.r.obj

g Adductor_hiatus_r
v -0.076721 0.548985 -0.019422
v -0.077319 0.542839 -0.019562
v -0.077980 0.548739 -0.019466
v -0.076121 0.543076 -0.019326
v -0.076746 0.548984 -0.019224
v -0.075218 0.555576 -0.019281
v -0.074120 0.555776 -0.019231
v -0.076098 0.543082 -0.019525
v -0.073644 0.537562 -0.019329
v -0.074708 0.537355 -0.019556
v -0.072705 0.543758 -0.018890
v -0.074148 0.555782 -0.019033
v -0.073239 0.549686 -0.018770
v -0.072671 0.543767 -0.019176
v -0.073201 0.549687 -0.019055
v -0.070601 0.538159 -0.018922
v -0.073622 0.537570 -0.019528
v -0.070569 0.538172 -0.019207
v -0.070636 0.562337 -0.019088
v -0.069801 0.562478 -0.019046
v -0.071041 0.531761 -0.019270
v -0.071988 0.531575 -0.019483
v -0.071098 0.556368 -0.018568
v -0.069834 0.562493 -0.018850
v -0.071055 0.556357 -0.018851
v -0.068326 0.532301 -0.018905
v -0.071020 0.531772 -0.019469
v -0.068295 0.532316 -0.019190
v -0.068126 0.544691 -0.018322
v -0.068582 0.550660 -0.018175
v -0.068089 0.544700 -0.018619
v -0.068541 0.550661 -0.018472
v -0.066464 0.538975 -0.018407
v -0.066429 0.538989 -0.018704
v -0.068563 0.525751 -0.019277
v -0.069417 0.525582 -0.019478
v -0.067529 0.562928 -0.018416
v -0.067044 0.557212 -0.017986
v -0.067480 0.562905 -0.018698
v -0.066998 0.557200 -0.018281
v -0.066110 0.526243 -0.018947
v -0.068542 0.525764 -0.019476
v -0.066080 0.526262 -0.019232
v -0.066271 0.567854 -0.018962
v -0.065681 0.567964 -0.018955
v -0.064607 0.533037 -0.018457
v -0.064574 0.533053 -0.018754
v -0.065718 0.567987 -0.018760
v -0.066113 0.519753 -0.019478
v -0.066881 0.519610 -0.019675
v -0.063434 0.545681 -0.017684
v -0.063893 0.551719 -0.017507
v -0.063908 0.520181 -0.019158
v -0.066093 0.519772 -0.019676
v -0.063879 0.520208 -0.019442
v -0.063396 0.545692 -0.017981
v -0.063851 0.551721 -0.017803
v -0.062747 0.526916 -0.018549
v -0.062715 0.526937 -0.018847
v -0.062126 0.539835 -0.017851
v -0.062091 0.539850 -0.018149
v -0.064441 0.563580 -0.017904
v -0.064112 0.568344 -0.018425
v -0.064389 0.563555 -0.018198
v -0.064059 0.568311 -0.018706
v -0.062961 0.558182 -0.017379
v -0.062914 0.558171 -0.017674
v -0.063688 0.513835 -0.019907
v -0.064365 0.513720 -0.020096
v -0.060664 0.533811 -0.017985
v -0.060631 0.533828 -0.018283
v -0.062821 0.571886 -0.018871
v -0.062427 0.571979 -0.018905
v -0.061738 0.514190 -0.019608
v -0.060879 0.520768 -0.018781
v -0.063668 0.513861 -0.020104
v -0.061711 0.514228 -0.019891
v -0.060849 0.520797 -0.019078
v -0.062467 0.572005 -0.018710
v -0.059174 0.527624 -0.018139
v -0.059142 0.527645 -0.018436
v -0.061945 0.568863 -0.018046
v -0.061294 0.564371 -0.017418
v -0.061889 0.568830 -0.018339
v -0.061242 0.564346 -0.017712
v -0.061247 0.508003 -0.020579
v -0.061826 0.507916 -0.020746
v -0.061418 0.572310 -0.018490
v -0.061362 0.572273 -0.018770
v -0.059056 0.514682 -0.019265
v -0.058840 0.546687 -0.017025
v -0.059353 0.552805 -0.016816
v -0.059029 0.514722 -0.019560
v -0.058801 0.546699 -0.017323
v -0.059311 0.552808 -0.017113
v -0.059580 0.508293 -0.020341
v -0.061229 0.508038 -0.020774
v -0.059555 0.508344 -0.020623
v -0.057817 0.540705 -0.017290
v -0.057782 0.540722 -0.017587
v -0.059015 0.559198 -0.016776
v -0.058967 0.559187 -0.017071
v -0.060548 0.574462 -0.018770
v -0.060314 0.574506 -0.018828
v -0.057656 0.521387 -0.018401
v -0.057627 0.521416 -0.018698
v -0.060352 0.574530 -0.018642
v -0.056719 0.534590 -0.017513
v -0.056686 0.534608 -0.017811
v -0.059995 0.572724 -0.018249
v -0.059715 0.569473 -0.017692
v -0.059938 0.572687 -0.018541
v -0.059659 0.569441 -0.017985
v -0.058533 0.502200 -0.021530
v -0.058994 0.502140 -0.021677
v -0.057289 0.508702 -0.020080
v -0.057262 0.508755 -0.020374
v -0.059677 0.574775 -0.018495
v -0.059624 0.574741 -0.018763
v -0.058237 0.565210 -0.016959
v -0.057199 0.502425 -0.021349
v -0.058184 0.565186 -0.017253
v -0.057170 0.502489 -0.021626
v -0.058513 0.502245 -0.021724
v -0.056198 0.515204 -0.018927
v -0.056171 0.515244 -0.019222
v -0.055595 0.528333 -0.017728
v -0.055563 0.528355 -0.018025
v -0.059251 0.575811 -0.018671
v -0.059313 0.575639 -0.018742
v -0.059342 0.575656 -0.018596
v -0.058524 0.573164 -0.018013
v -0.058770 0.575069 -0.018344
v -0.058467 0.573129 -0.018305
v -0.058714 0.575036 -0.018624
v -0.057533 0.570102 -0.017359
v -0.058769 0.576012 -0.018500
v -0.057477 0.570070 -0.017652
v -0.058732 0.575991 -0.018687
v -0.055368 0.502748 -0.021159
v -0.055338 0.502815 -0.021449
v -0.055092 0.553852 -0.016176
v -0.054517 0.547661 -0.016416
v -0.058477 0.576388 -0.018580
v -0.055051 0.553855 -0.016461
v -0.054480 0.547674 -0.016701
v -0.054429 0.522004 -0.018022
v -0.054400 0.522033 -0.018319
v -0.054849 0.509140 -0.019827
v -0.054823 0.509192 -0.020121
v -0.055323 0.560162 -0.016218
v -0.055433 0.496534 -0.022737
v -0.055756 0.496507 -0.022879
v -0.055277 0.560152 -0.016501
v -0.053755 0.541547 -0.016772
v -0.053721 0.541564 -0.017057
v -0.058135 0.576235 -0.018393
v -0.057833 0.575355 -0.018189
v -0.057919 0.576590 -0.018488
v -0.058097 0.576214 -0.018588
v -0.057777 0.575324 -0.018469
v -0.054487 0.496679 -0.022562
v -0.057076 0.573592 -0.017778
v -0.054449 0.496759 -0.022834
v -0.055407 0.496590 -0.022926
v -0.057017 0.573558 -0.018070
v -0.055384 0.565987 -0.016534
v -0.055334 0.565964 -0.016816
v -0.057395 0.576727 -0.018395
v -0.057509 0.576410 -0.018285
v -0.057470 0.576390 -0.018480
v -0.056904 0.575624 -0.018029
v -0.052993 0.535340 -0.017078
v -0.052961 0.535358 -0.017363
v -0.056847 0.575593 -0.018309
v -0.053340 0.515722 -0.018591
v -0.053313 0.515763 -0.018887
v -0.055493 0.570669 -0.017046
v -0.056871 0.576860 -0.018300
v -0.056885 0.576578 -0.018174
v -0.055439 0.570638 -0.017326
v -0.056845 0.576557 -0.018368
v -0.053427 0.503097 -0.020974
v -0.053397 0.503163 -0.021264
v -0.053190 0.496895 -0.022378
v -0.053149 0.496978 -0.022662
v -0.055709 0.573970 -0.017551
v -0.055652 0.573937 -0.017831
v -0.056019 0.575856 -0.017874
v -0.056342 0.576948 -0.018200
v -0.056276 0.576701 -0.018063
v -0.056237 0.576682 -0.018250
v -0.055963 0.575826 -0.018142
v -0.052214 0.529010 -0.017344
v -0.052183 0.529031 -0.017629
v -0.055784 0.576778 -0.018065
v -0.055778 0.576641 -0.018128
v -0.055360 0.576001 -0.017792
v -0.055809 0.576657 -0.017982
v -0.055321 0.575980 -0.017978
v -0.052416 0.509571 -0.019575
v -0.052389 0.509623 -0.019869
v -0.054701 0.574229 -0.017418
v -0.054661 0.574206 -0.017612
v -0.055124 0.576058 -0.017846
v -0.052664 0.491844 -0.023908
v -0.052856 0.491856 -0.024046
v -0.053999 0.571065 -0.016850
v -0.053962 0.571044 -0.017045
v -0.051389 0.522589 -0.017661
v -0.051361 0.522617 -0.017946
v -0.053301 0.566542 -0.016261
v -0.052080 0.491890 -0.023738
v -0.053266 0.566526 -0.016456
v -0.052027 0.491986 -0.024003
v -0.052628 0.491911 -0.024092
v -0.052623 0.560865 -0.015850
v -0.051820 0.497130 -0.022195
v -0.054329 0.574310 -0.017453
v -0.051778 0.497210 -0.022480
v -0.052591 0.560858 -0.016047
v -0.051970 0.554627 -0.015751
v -0.051942 0.554630 -0.015949
v -0.051349 0.548388 -0.016014
v -0.051324 0.548396 -0.016212
v -0.051495 0.503438 -0.020789
v -0.051464 0.503502 -0.021080
v -0.053458 0.571195 -0.016864
v -0.050779 0.542175 -0.016435
v -0.051275 0.491972 -0.023558
v -0.050755 0.542187 -0.016633
v -0.051219 0.492070 -0.023835
v -0.050659 0.516207 -0.018266
v -0.050632 0.516246 -0.018549
v -0.052554 0.566730 -0.016247
v -0.050262 0.535897 -0.016799
v -0.050240 0.535909 -0.016997
v -0.050457 0.497359 -0.022012
v -0.050414 0.497436 -0.022297
v -0.050140 0.509964 -0.019329
v -0.050114 0.510014 -0.019610
v -0.051659 0.561109 -0.015805
v -0.050430 0.492063 -0.023377
v -0.050373 0.492158 -0.023654
v -0.049736 0.529512 -0.017101
v -0.049714 0.529526 -0.017299
v -0.050948 0.488929 -0.024743
v -0.051034 0.488961 -0.024864
v -0.050603 0.488837 -0.024635
v -0.050539 0.488941 -0.024881
v -0.050905 0.489002 -0.024914
v -0.050859 0.554902 -0.015686
v -0.049689 0.503743 -0.020609
v -0.049659 0.503803 -0.020888
v -0.049165 0.523022 -0.017431
v -0.049144 0.523041 -0.017629
v -0.050135 0.488757 -0.024524
v -0.050068 0.488863 -0.024782
v -0.050224 0.548648 -0.015957
v -0.049587 0.492152 -0.023195
v -0.049530 0.492243 -0.023474
v -0.049176 0.497565 -0.021837
v -0.049135 0.497636 -0.022112
v -0.048702 0.516565 -0.018059
v -0.048683 0.516591 -0.018256
v -0.049721 0.542402 -0.016401
v -0.049650 0.488686 -0.024411
v -0.049583 0.488788 -0.024670
v -0.050221 0.487687 -0.025157
v -0.050129 0.487528 -0.025301
v -0.049909 0.487316 -0.025205
v -0.049859 0.487393 -0.025373
v -0.050183 0.487747 -0.025289
v -0.049292 0.536099 -0.016785
v -0.048482 0.510253 -0.019180
v -0.048463 0.510287 -0.019376
v -0.049609 0.487074 -0.025190
v -0.049557 0.487153 -0.025366
v -0.048786 0.492234 -0.023025
v -0.049166 0.488614 -0.024297
v -0.048732 0.492318 -0.023293
v -0.049098 0.488713 -0.024558
v -0.048854 0.529694 -0.017099
v -0.049681 0.486878 -0.025466
v -0.049323 0.486873 -0.025161
v -0.048372 0.503965 -0.020511
v -0.048351 0.504007 -0.020705
v -0.049270 0.486949 -0.025338
v -0.049427 0.486572 -0.025492
v -0.048373 0.523182 -0.017433
v -0.048237 0.497719 -0.021743
v -0.049037 0.486671 -0.025131
v -0.048208 0.497767 -0.021934
v -0.048984 0.486745 -0.025309
v -0.048700 0.488564 -0.024187
v -0.049206 0.486322 -0.025495
v -0.048635 0.488655 -0.024437
v -0.048984 0.486073 -0.025498
v -0.048755 0.486567 -0.025068
v -0.048191 0.492303 -0.022935
v -0.048006 0.516702 -0.018069
v -0.048154 0.492360 -0.023123
v -0.048705 0.486636 -0.025239
v -0.048758 0.485949 -0.025449
v -0.048346 0.488578 -0.024122
v -0.048531 0.486863 -0.024880
v -0.048506 0.486562 -0.025084
v -0.048302 0.488640 -0.024297
v -0.048493 0.486915 -0.025015
v -0.047891 0.510368 -0.019210
v -0.048209 0.488562 -0.024196
v -0.047900 0.504061 -0.020557
v -0.047894 0.497793 -0.021791
v -0.047966 0.492351 -0.022983
usemtl Adductor_hiatus_rMaterial0
f 1 2 3
f 3 2 4
f 3 4 5
f 6 3 5
f 7 1 3
f 7 3 6
f 1 8 2
f 2 9 4
f 8 10 2
f 2 10 9
f 11 5 4
f 6 5 12
f 13 12 5
f 11 13 5
f 14 8 1
f 15 1 7
f 14 1 15
f 16 4 9
f 16 11 4
f 8 17 10
f 18 17 8
f 18 8 14
f 19 6 12
f 20 7 6
f 20 6 19
f 10 21 9
f 17 22 10
f 10 22 21
f 13 23 12
f 23 24 12
f 19 12 24
f 15 7 25
f 25 7 20
f 26 9 21
f 26 16 9
f 17 27 22
f 28 27 17
f 28 17 18
f 29 13 11
f 30 23 13
f 29 30 13
f 31 14 15
f 32 15 25
f 31 15 32
f 33 11 16
f 33 29 11
f 34 18 14
f 34 14 31
f 22 35 21
f 27 36 22
f 22 36 35
f 23 37 24
f 30 38 23
f 38 37 23
f 25 20 39
f 32 25 40
f 40 25 39
f 41 21 35
f 41 26 21
f 27 42 36
f 43 42 27
f 43 27 28
f 44 19 24
f 45 20 19
f 45 19 44
f 46 16 26
f 46 33 16
f 47 28 18
f 47 18 34
f 37 48 24
f 44 24 48
f 39 20 45
f 36 49 35
f 42 50 36
f 36 50 49
f 51 30 29
f 52 38 30
f 51 52 30
f 35 49 53
f 35 53 41
f 42 54 50
f 42 55 54
f 42 43 55
f 56 31 32
f 57 32 40
f 56 32 57
f 58 26 41
f 58 46 26
f 59 43 28
f 59 28 47
f 60 29 33
f 60 51 29
f 61 34 31
f 61 31 56
f 38 62 37
f 37 63 48
f 62 63 37
f 40 39 64
f 39 45 65
f 64 39 65
f 66 62 38
f 52 66 38
f 67 40 64
f 57 40 67
f 50 68 49
f 54 69 50
f 50 69 68
f 70 33 46
f 70 60 33
f 71 47 34
f 71 34 61
f 72 44 48
f 73 45 44
f 73 44 72
f 49 74 53
f 49 68 74
f 41 53 75
f 41 75 58
f 54 76 69
f 54 55 77
f 54 77 76
f 43 78 55
f 43 59 78
f 63 79 48
f 72 48 79
f 65 45 73
f 80 46 58
f 80 70 46
f 81 59 47
f 81 47 71
f 62 82 63
f 66 83 62
f 83 82 62
f 64 65 84
f 67 64 85
f 85 64 84
f 69 86 68
f 76 87 69
f 69 87 86
f 63 88 79
f 82 88 63
f 65 73 89
f 84 65 89
f 53 74 90
f 53 90 75
f 91 52 51
f 92 66 52
f 91 92 52
f 55 93 77
f 55 78 93
f 94 56 57
f 95 57 67
f 94 57 95
f 68 96 74
f 68 86 96
f 76 97 87
f 76 77 98
f 76 98 97
f 99 51 60
f 99 91 51
f 100 61 56
f 100 56 94
f 101 83 66
f 92 101 66
f 102 67 85
f 95 67 102
f 103 72 79
f 104 73 72
f 104 72 103
f 58 75 105
f 58 105 80
f 59 106 78
f 59 81 106
f 88 107 79
f 103 79 107
f 89 73 104
f 108 60 70
f 108 99 60
f 109 71 61
f 109 61 100
f 82 110 88
f 83 111 82
f 111 110 82
f 84 89 112
f 85 84 113
f 113 84 112
f 87 114 86
f 97 115 87
f 87 115 114
f 74 96 116
f 74 116 90
f 77 117 98
f 77 93 117
f 88 118 107
f 110 118 88
f 89 104 119
f 112 89 119
f 120 111 83
f 101 120 83
f 86 121 96
f 86 114 121
f 122 85 113
f 102 85 122
f 97 98 123
f 97 124 115
f 97 123 124
f 75 90 125
f 75 125 105
f 78 126 93
f 78 106 126
f 127 70 80
f 127 108 70
f 128 81 71
f 128 71 109
f 129 103 107
f 130 104 103
f 130 103 129
f 118 131 107
f 129 107 131
f 119 104 130
f 111 132 110
f 110 133 118
f 132 133 110
f 113 112 134
f 112 119 135
f 134 112 135
f 136 132 111
f 120 136 111
f 118 137 131
f 133 137 118
f 138 113 134
f 122 113 138
f 119 130 139
f 135 119 139
f 96 140 116
f 96 121 140
f 98 117 141
f 98 141 123
f 142 101 92
f 143 92 91
f 143 142 92
f 144 129 131
f 144 131 137
f 145 95 102
f 146 94 95
f 146 95 145
f 139 130 129
f 139 129 144
f 80 105 147
f 80 147 127
f 81 148 106
f 81 128 148
f 90 116 149
f 90 149 125
f 93 150 117
f 93 126 150
f 151 120 101
f 142 151 101
f 115 152 114
f 124 153 115
f 115 153 152
f 154 102 122
f 145 102 154
f 155 91 99
f 155 143 91
f 156 100 94
f 156 94 146
f 133 157 137
f 132 158 133
f 158 157 133
f 159 144 137
f 159 137 157
f 135 139 160
f 160 139 144
f 134 135 161
f 161 135 160
f 114 162 121
f 114 152 162
f 163 158 132
f 136 163 132
f 124 123 164
f 124 165 153
f 124 164 165
f 166 134 161
f 138 134 166
f 160 144 159
f 167 136 120
f 151 167 120
f 168 122 138
f 154 122 168
f 169 159 157
f 158 170 157
f 169 157 170
f 171 160 159
f 161 160 171
f 171 159 169
f 172 170 158
f 163 172 158
f 173 99 108
f 173 155 99
f 174 109 100
f 174 100 156
f 175 161 171
f 166 161 175
f 105 125 176
f 105 176 147
f 106 177 126
f 106 148 177
f 178 163 136
f 167 178 136
f 179 169 170
f 172 180 170
f 179 170 180
f 181 138 166
f 168 138 181
f 182 171 169
f 175 171 182
f 182 169 179
f 116 140 183
f 116 183 149
f 117 184 141
f 117 150 184
f 121 185 140
f 121 162 185
f 123 141 186
f 123 186 164
f 187 172 163
f 178 187 163
f 188 166 175
f 181 166 188
f 189 180 172
f 187 189 172
f 190 179 180
f 190 180 191
f 189 191 180
f 192 182 179
f 192 179 190
f 193 175 182
f 188 175 193
f 193 182 192
f 194 108 127
f 194 173 108
f 195 128 109
f 195 109 174
f 196 190 191
f 197 192 190
f 197 190 196
f 198 191 189
f 196 191 199
f 198 199 191
f 200 193 192
f 200 192 197
f 125 149 201
f 125 201 176
f 126 202 150
f 126 177 202
f 203 189 187
f 203 198 189
f 204 188 193
f 204 193 200
f 205 196 199
f 205 199 198
f 200 197 196
f 200 196 205
f 153 206 152
f 165 207 153
f 153 207 206
f 208 187 178
f 208 203 187
f 209 181 188
f 209 188 204
f 127 147 210
f 127 210 194
f 128 211 148
f 128 195 211
f 212 178 167
f 212 208 178
f 152 213 162
f 152 206 213
f 214 168 181
f 214 181 209
f 165 164 215
f 165 216 207
f 165 215 216
f 217 167 151
f 217 212 167
f 140 218 183
f 140 185 218
f 219 205 198
f 219 198 203
f 141 184 220
f 141 220 186
f 221 154 168
f 221 168 214
f 222 151 142
f 222 217 151
f 204 200 205
f 223 145 154
f 223 154 221
f 204 205 219
f 224 142 143
f 224 222 142
f 225 146 145
f 225 145 223
f 149 183 226
f 149 226 201
f 150 227 184
f 150 202 227
f 228 219 203
f 228 203 208
f 209 204 219
f 229 143 155
f 229 224 143
f 162 230 185
f 162 213 230
f 231 156 146
f 231 146 225
f 164 186 232
f 164 232 215
f 147 176 233
f 147 233 210
f 148 234 177
f 148 211 234
f 209 219 228
f 235 228 208
f 235 208 212
f 214 209 228
f 236 155 173
f 236 229 155
f 237 174 156
f 237 156 231
f 214 228 235
f 183 218 238
f 183 238 226
f 184 239 220
f 184 227 239
f 176 201 240
f 176 240 233
f 177 241 202
f 177 234 241
f 242 212 217
f 242 235 212
f 221 214 235
f 185 243 218
f 185 230 243
f 186 220 244
f 186 244 232
f 245 173 194
f 245 236 173
f 246 195 174
f 246 174 237
f 207 247 206
f 216 248 207
f 207 248 247
f 206 249 213
f 206 247 249
f 216 215 250
f 216 251 248
f 216 250 251
f 252 217 222
f 252 242 217
f 221 235 242
f 223 221 242
f 201 226 253
f 201 253 240
f 202 254 227
f 202 241 254
f 194 210 255
f 194 255 245
f 195 256 211
f 195 246 256
f 213 257 230
f 213 249 257
f 215 232 258
f 215 258 250
f 259 222 224
f 259 252 222
f 223 242 252
f 225 223 252
f 218 260 238
f 218 243 260
f 220 239 261
f 220 261 244
f 226 238 262
f 226 262 253
f 227 263 239
f 227 254 263
f 210 233 264
f 210 264 255
f 211 265 234
f 211 256 265
f 266 224 229
f 266 259 224
f 225 252 259
f 231 225 259
f 230 267 243
f 230 257 267
f 232 244 268
f 232 268 258
f 248 269 247
f 251 270 248
f 248 270 269
f 247 271 249
f 247 269 271
f 251 250 272
f 251 273 270
f 251 272 273
f 274 229 236
f 274 266 229
f 237 231 266
f 231 259 266
f 233 240 275
f 233 275 264
f 234 276 241
f 234 265 276
f 249 277 257
f 249 271 277
f 250 258 278
f 250 278 272
f 238 260 279
f 238 279 262
f 243 267 280
f 243 280 260
f 239 281 261
f 239 263 281
f 244 282 268
f 244 261 282
f 283 236 245
f 283 274 236
f 246 237 274
f 237 266 274
f 270 271 269
f 273 284 270
f 273 272 284
f 270 284 271
f 257 285 267
f 257 277 285
f 240 253 286
f 240 286 275
f 241 287 254
f 241 276 287
f 258 268 288
f 258 288 278
f 284 277 271
f 272 289 284
f 272 278 289
f 290 245 255
f 290 283 245
f 246 274 283
f 256 246 283
f 284 289 277
f 253 262 291
f 253 291 286
f 267 285 292
f 267 292 280
f 254 293 263
f 254 287 293
f 289 285 277
f 268 294 288
f 268 282 294
f 260 280 295
f 260 295 279
f 278 296 289
f 278 288 296
f 261 297 282
f 261 281 297
f 289 296 285
f 296 292 285
f 288 298 296
f 288 294 298
f 296 298 292
f 280 292 299
f 280 299 295
f 262 279 300
f 262 300 291
f 301 255 264
f 301 290 255
f 263 302 281
f 263 293 302
f 256 283 290
f 265 256 290
f 282 303 294
f 282 297 303
f 298 299 292
f 294 304 298
f 298 304 299
f 294 303 304
f 279 295 305
f 279 305 300
f 304 306 299
f 303 307 304
f 304 307 306
f 295 299 306
f 281 308 297
f 281 302 308
f 297 309 303
f 303 309 307
f 295 306 305
f 310 264 275
f 310 301 264
f 276 265 301
f 265 290 301
f 297 308 309
f 307 305 306
f 309 311 307
f 307 311 305
f 309 308 311
f 312 275 286
f 312 310 275
f 287 276 310
f 276 301 310
f 313 286 291
f 313 312 286
f 311 300 305
f 293 287 312
f 287 310 312
f 308 314 311
f 308 302 314
f 314 291 300
f 314 313 291
f 311 314 300
f 302 293 313
f 293 312 313
f 302 313 314
