# 
# Wavefront OBJ file
# Created with Kaydara FBX
# 
mtllib c:\users\tjvan\onedrive\documenten\fontys\minor\nx\.mtlmodels\anterior_horn_of_medial_meniscus.r.obj

g Anterior_horn_of_Medial_meniscus_r
v -0.069884 0.429318 -0.016904
v -0.069648 0.429089 -0.017898
v -0.069809 0.429036 -0.016913
v -0.069617 0.429055 -0.016135
v -0.069725 0.429405 -0.017882
v -0.069518 0.429680 -0.017780
v -0.069691 0.429354 -0.016119
v -0.069518 0.429638 -0.016263
v -0.069676 0.429582 -0.016894
v -0.069327 0.428927 -0.017831
v -0.069523 0.428863 -0.016924
v -0.069214 0.429261 -0.019129
v -0.069281 0.429584 -0.019097
v -0.069047 0.429196 -0.015635
v -0.069128 0.429785 -0.015864
v -0.069145 0.429520 -0.015623
v -0.069357 0.429789 -0.016417
v -0.069211 0.429913 -0.017661
v -0.069377 0.429809 -0.016868
v -0.068903 0.429101 -0.019034
v -0.069362 0.428879 -0.016285
v -0.069143 0.428821 -0.016447
v -0.069136 0.428802 -0.016910
v -0.069077 0.429860 -0.018954
v -0.068812 0.430081 -0.018793
v -0.068982 0.430047 -0.016770
v -0.068894 0.428965 -0.015872
v -0.069067 0.429944 -0.016240
v -0.068941 0.428883 -0.017740
v -0.068545 0.429074 -0.018899
v -0.068651 0.429532 -0.020424
v -0.068706 0.429844 -0.020374
v -0.068820 0.430156 -0.017524
v -0.068634 0.428827 -0.016830
v -0.068756 0.428843 -0.016255
v -0.068481 0.430100 -0.015647
v -0.068259 0.429424 -0.015420
v -0.068386 0.429793 -0.015402
v -0.068238 0.430309 -0.020083
v -0.068498 0.430102 -0.020229
v -0.068404 0.430376 -0.016616
v -0.068481 0.430272 -0.016073
v -0.068149 0.429123 -0.015678
v -0.068281 0.430472 -0.017320
v -0.068474 0.428920 -0.017619
v -0.068155 0.429110 -0.018741
v -0.068057 0.428964 -0.016107
v -0.068354 0.429390 -0.020334
v -0.068472 0.430316 -0.018601
v -0.068009 0.430619 -0.018331
v -0.067969 0.428952 -0.016692
v -0.068185 0.430149 -0.021585
v -0.067844 0.429746 -0.021574
v -0.068138 0.429868 -0.021645
v -0.068019 0.429364 -0.020209
v -0.067710 0.430588 -0.021312
v -0.067971 0.430390 -0.021446
v -0.067867 0.429045 -0.017449
v -0.067553 0.430786 -0.015829
v -0.067515 0.430584 -0.015441
v -0.067914 0.430541 -0.019915
v -0.067470 0.430843 -0.019695
v -0.067516 0.430877 -0.016367
v -0.067258 0.429813 -0.015281
v -0.067396 0.430227 -0.015242
v -0.067530 0.429737 -0.021472
v -0.067447 0.430950 -0.017045
v -0.067709 0.430197 -0.022726
v -0.067584 0.430650 -0.022525
v -0.067765 0.430438 -0.022665
v -0.067666 0.429406 -0.020072
v -0.067640 0.429235 -0.018520
v -0.067209 0.429519 -0.019885
v -0.067108 0.429241 -0.015948
v -0.067154 0.429456 -0.015531
v -0.067437 0.430115 -0.022652
v -0.067187 0.429781 -0.021354
v -0.067287 0.431064 -0.018005
v -0.067078 0.429283 -0.017231
v -0.067088 0.429196 -0.016522
v -0.067336 0.430831 -0.022372
v -0.067382 0.430810 -0.021153
v -0.066958 0.431088 -0.020957
v -0.066974 0.429448 -0.018248
v -0.067232 0.430517 -0.023541
v -0.067236 0.430891 -0.023298
v -0.067334 0.430727 -0.023489
v -0.066775 0.429885 -0.021200
v -0.066635 0.429722 -0.019652
v -0.066298 0.431102 -0.015186
v -0.066285 0.431555 -0.016049
v -0.066327 0.431390 -0.015537
v -0.067139 0.430117 -0.022543
v -0.066191 0.431660 -0.016725
v -0.066819 0.431276 -0.019413
v -0.067010 0.430457 -0.023420
v -0.066787 0.430450 -0.023266
v -0.066058 0.431777 -0.017689
v -0.066207 0.430695 -0.015029
v -0.067019 0.431033 -0.022188
v -0.066744 0.431024 -0.023892
v -0.067062 0.431017 -0.023083
v -0.066821 0.431154 -0.022867
v -0.065693 0.431968 -0.019070
v -0.065987 0.429906 -0.015317
v -0.066098 0.430265 -0.015067
v -0.066486 0.430729 -0.023662
v -0.066617 0.430824 -0.023879
v -0.066767 0.431128 -0.023660
v -0.066835 0.430152 -0.022414
v -0.066639 0.430398 -0.022996
v -0.065873 0.429603 -0.016285
v -0.065909 0.429685 -0.015733
v -0.065887 0.429689 -0.016981
v -0.066666 0.431235 -0.023159
v -0.066746 0.431178 -0.023407
v -0.066571 0.431310 -0.021960
v -0.066378 0.431412 -0.022607
v -0.065879 0.429847 -0.017883
v -0.066281 0.431530 -0.020696
v -0.065890 0.431734 -0.021714
v -0.066471 0.430238 -0.022260
v -0.066399 0.430640 -0.023387
v -0.066242 0.430078 -0.021003
v -0.065978 0.430419 -0.022080
v -0.066112 0.431437 -0.023673
v -0.065904 0.431117 -0.023808
v -0.065994 0.431332 -0.023908
v -0.066207 0.431455 -0.023372
v -0.066279 0.431445 -0.023053
v -0.065404 0.430437 -0.020742
v -0.065670 0.430106 -0.019317
v -0.066355 0.430507 -0.023003
v -0.065858 0.430810 -0.023203
v -0.065871 0.430952 -0.023532
v -0.065876 0.430643 -0.022752
v -0.065670 0.431832 -0.022342
v -0.064920 0.431835 -0.015278
v -0.064900 0.432109 -0.015750
v -0.064864 0.431044 -0.014811
v -0.064902 0.431459 -0.014953
v -0.065366 0.431897 -0.023147
v -0.065510 0.431880 -0.022789
v -0.065231 0.432186 -0.020415
v -0.065199 0.430747 -0.021805
v -0.064852 0.432275 -0.016431
v -0.065223 0.431873 -0.023457
v -0.064811 0.430623 -0.014853
v -0.064721 0.432423 -0.017476
v -0.064682 0.430081 -0.015491
v -0.064747 0.430286 -0.015093
v -0.065061 0.431720 -0.023676
v -0.064631 0.430005 -0.016048
v -0.064984 0.431284 -0.023221
v -0.064980 0.431468 -0.023522
v -0.064563 0.430262 -0.017602
v -0.064600 0.430069 -0.016725
v -0.064477 0.430535 -0.019017
v -0.065023 0.431122 -0.022871
v -0.065093 0.430955 -0.022435
v -0.064652 0.432417 -0.022082
v -0.064893 0.432336 -0.021431
v -0.063985 0.432823 -0.020184
v -0.064368 0.432620 -0.018815
v -0.064293 0.430892 -0.020490
v -0.064476 0.432442 -0.022531
v -0.064134 0.431187 -0.021497
v -0.064184 0.432356 -0.023200
v -0.064331 0.432427 -0.022883
v -0.063982 0.431531 -0.022532
v -0.064041 0.431378 -0.022101
v -0.064024 0.432150 -0.023397
v -0.063947 0.431881 -0.023215
v -0.063944 0.431688 -0.022898
v -0.063467 0.432002 -0.015110
v -0.063508 0.431572 -0.014781
v -0.063423 0.432637 -0.016244
v -0.063440 0.432370 -0.015607
v -0.063700 0.432927 -0.021171
v -0.063532 0.430777 -0.014663
v -0.063530 0.431174 -0.014635
v -0.063324 0.432862 -0.017322
v -0.063454 0.430274 -0.015266
v -0.063502 0.430457 -0.014891
v -0.063402 0.430204 -0.015787
v -0.063295 0.432934 -0.022264
v -0.063477 0.432955 -0.021788
v -0.063056 0.430523 -0.017461
v -0.063342 0.430260 -0.016466
v -0.063104 0.431215 -0.020321
v -0.063238 0.430869 -0.018959
v -0.063066 0.433022 -0.018661
v -0.063156 0.432879 -0.022627
v -0.062888 0.432507 -0.023125
v -0.063019 0.432756 -0.022944
v -0.062907 0.431672 -0.021820
v -0.062972 0.431489 -0.021253
v -0.062846 0.432213 -0.022936
v -0.062852 0.431996 -0.022621
v -0.062874 0.431829 -0.022255
v -0.062453 0.433210 -0.020983
v -0.062739 0.433165 -0.020036
v -0.062263 0.430738 -0.014485
v -0.062189 0.431481 -0.014624
v -0.062239 0.431105 -0.014480
v -0.062245 0.430433 -0.014685
v -0.062246 0.433187 -0.021591
v -0.062039 0.432293 -0.015423
v -0.062122 0.431894 -0.014941
v -0.062104 0.430170 -0.015466
v -0.062188 0.430250 -0.015019
v -0.061833 0.432636 -0.016094
v -0.061955 0.430178 -0.016022
v -0.062086 0.433114 -0.018641
v -0.062132 0.432968 -0.017346
v -0.062002 0.433043 -0.022363
v -0.062106 0.433125 -0.022036
v -0.062195 0.431045 -0.019049
v -0.062028 0.431545 -0.021110
v -0.062158 0.431311 -0.020234
v -0.061956 0.430728 -0.017923
v -0.061664 0.430258 -0.016547
v -0.061175 0.430351 -0.016956
v -0.061901 0.432896 -0.022670
v -0.061909 0.431911 -0.022097
v -0.061955 0.431740 -0.021690
v -0.061829 0.432624 -0.022848
v -0.061874 0.432081 -0.022415
v -0.061841 0.432313 -0.022692
v -0.061845 0.433193 -0.019933
v -0.061339 0.433123 -0.021457
v -0.061574 0.433183 -0.020836
v -0.061058 0.430294 -0.014410
v -0.061015 0.430895 -0.014250
v -0.061064 0.430573 -0.014250
v -0.060928 0.431207 -0.014367
v -0.061000 0.430117 -0.014687
v -0.061474 0.431344 -0.020147
v -0.061468 0.431141 -0.019097
v -0.061281 0.432837 -0.017530
v -0.060567 0.431784 -0.014875
v -0.060790 0.431519 -0.014581
v -0.060905 0.430012 -0.015037
v -0.061213 0.433049 -0.021914
v -0.061196 0.433044 -0.019850
v -0.061347 0.432970 -0.018691
v -0.060321 0.431962 -0.015205
v -0.061220 0.431719 -0.021587
v -0.061334 0.431532 -0.020974
v -0.061108 0.432829 -0.022494
v -0.061156 0.432971 -0.022218
v -0.060757 0.429954 -0.015431
v -0.061208 0.430852 -0.018129
v -0.060648 0.430485 -0.017208
v -0.061167 0.431901 -0.022015
v -0.061143 0.432065 -0.022303
v -0.061115 0.432283 -0.022547
v -0.061081 0.432574 -0.022676
v -0.060836 0.432556 -0.016500
v -0.059832 0.431897 -0.015530
v -0.060517 0.429929 -0.015794
v -0.060954 0.433028 -0.020697
v -0.060906 0.431306 -0.019079
v -0.060806 0.431573 -0.020799
v -0.060919 0.431446 -0.020011
v -0.060666 0.432509 -0.017760
v -0.060809 0.432663 -0.018775
v -0.060548 0.432882 -0.021797
v -0.060713 0.432960 -0.021315
v -0.060677 0.431072 -0.018189
v -0.060543 0.431894 -0.021905
v -0.060648 0.431731 -0.021420
v -0.060485 0.432765 -0.020568
v -0.060705 0.432763 -0.019770
v -0.060179 0.429958 -0.016094
v -0.060521 0.432062 -0.022232
v -0.060489 0.432803 -0.022141
v -0.060504 0.432246 -0.022456
v -0.060483 0.432466 -0.022567
v -0.060475 0.432699 -0.022400
v -0.060078 0.430131 -0.014087
v -0.060023 0.429955 -0.014319
v -0.059982 0.430645 -0.013969
v -0.060045 0.430387 -0.013965
v -0.059930 0.429869 -0.014589
v -0.059763 0.431099 -0.014178
v -0.059884 0.430893 -0.014045
v -0.060489 0.431759 -0.019845
v -0.060355 0.431492 -0.018129
v -0.060523 0.431670 -0.018997
v -0.060241 0.432216 -0.016805
v -0.059511 0.431665 -0.015870
v -0.060224 0.431863 -0.021241
v -0.060357 0.431803 -0.020608
v -0.060496 0.432207 -0.018877
v -0.059826 0.431358 -0.014450
v -0.059862 0.429792 -0.015224
v -0.059816 0.429815 -0.014859
v -0.060405 0.432302 -0.019745
v -0.060292 0.432726 -0.021174
v -0.060220 0.430767 -0.017307
v -0.060348 0.432025 -0.017974
v -0.059964 0.431721 -0.017066
v -0.059518 0.430386 -0.016394
v -0.059818 0.430097 -0.016309
v -0.060120 0.431984 -0.021730
v -0.060059 0.432638 -0.022046
v -0.060140 0.432673 -0.021660
v -0.060066 0.432106 -0.022119
v -0.060219 0.432312 -0.020507
v -0.060142 0.432405 -0.022502
v -0.060061 0.432248 -0.022364
v -0.060044 0.432575 -0.022321
v -0.060037 0.432312 -0.021117
v -0.059968 0.431207 -0.017246
v -0.059427 0.431280 -0.014530
v -0.059177 0.431227 -0.014783
v -0.059473 0.429829 -0.015238
v -0.059228 0.429957 -0.015361
v -0.059822 0.432340 -0.022249
v -0.059831 0.432374 -0.021983
v -0.059918 0.432331 -0.021598
v -0.059567 0.430130 -0.014073
v -0.059337 0.430477 -0.014021
v -0.059414 0.430286 -0.014038
v -0.059434 0.430035 -0.014245
v -0.059350 0.430795 -0.016341
v -0.059346 0.431255 -0.016161
v -0.059364 0.429872 -0.014777
v -0.059388 0.429938 -0.014478
v -0.059271 0.430943 -0.014222
v -0.059294 0.430704 -0.014077
v -0.059223 0.430181 -0.014235
v -0.058908 0.430473 -0.015390
v -0.059022 0.430179 -0.015420
v -0.058888 0.430799 -0.015260
v -0.058976 0.431073 -0.015040
v -0.059029 0.430825 -0.014424
v -0.059100 0.430354 -0.014235
v -0.059115 0.429994 -0.014805
v -0.059137 0.430074 -0.014474
v -0.059034 0.430569 -0.014285
v -0.058942 0.430164 -0.014816
v -0.058983 0.430244 -0.014482
v -0.058905 0.430456 -0.014511
v -0.058895 0.430692 -0.014626
v -0.058850 0.430384 -0.014808
v -0.058840 0.430608 -0.014859
usemtl Anterior_horn_of_Medial_meniscus_rMaterial0
f 1 2 3
f 1 3 4
f 1 5 2
f 6 5 1
f 1 4 7
f 1 7 8
f 1 8 9
f 6 1 9
f 10 3 2
f 4 3 11
f 10 11 3
f 12 2 5
f 6 13 5
f 12 5 13
f 7 4 14
f 7 15 8
f 7 16 15
f 7 14 16
f 17 9 8
f 18 6 9
f 17 19 9
f 18 9 19
f 20 10 2
f 20 2 12
f 4 11 21
f 14 4 21
f 22 21 11
f 10 23 11
f 22 11 23
f 17 8 15
f 6 24 13
f 25 6 18
f 25 24 6
f 17 26 19
f 18 19 26
f 22 27 21
f 14 21 27
f 17 15 28
f 17 28 26
f 10 29 23
f 30 29 10
f 30 10 20
f 31 12 13
f 32 13 24
f 31 13 32
f 20 12 31
f 18 26 33
f 25 18 33
f 22 23 34
f 29 34 23
f 22 35 27
f 22 34 35
f 16 36 15
f 16 14 37
f 16 38 36
f 16 37 38
f 36 28 15
f 39 24 25
f 32 24 40
f 39 40 24
f 41 26 28
f 36 42 28
f 41 28 42
f 43 14 27
f 43 37 14
f 44 33 26
f 44 26 41
f 29 45 34
f 46 29 30
f 46 45 29
f 47 27 35
f 47 43 27
f 20 31 48
f 30 20 48
f 25 33 49
f 39 25 49
f 50 49 33
f 50 33 44
f 51 35 34
f 51 47 35
f 31 32 52
f 52 32 40
f 31 53 48
f 31 52 54
f 31 54 53
f 51 34 45
f 30 48 55
f 46 30 55
f 56 40 39
f 52 40 57
f 56 57 40
f 58 45 46
f 51 45 58
f 59 42 36
f 38 60 36
f 59 36 60
f 41 42 59
f 39 49 61
f 62 49 50
f 62 61 49
f 44 41 63
f 41 59 63
f 38 37 64
f 38 65 60
f 38 64 65
f 66 55 48
f 66 48 53
f 50 44 67
f 44 63 67
f 64 37 43
f 56 39 61
f 52 68 54
f 52 57 69
f 52 70 68
f 52 69 70
f 46 55 71
f 58 46 72
f 46 71 73
f 46 73 72
f 74 43 47
f 64 43 75
f 74 75 43
f 76 53 54
f 76 54 68
f 74 47 51
f 77 71 55
f 77 55 66
f 62 50 78
f 50 67 78
f 51 58 79
f 74 51 80
f 51 79 80
f 81 57 56
f 81 69 57
f 56 61 82
f 83 61 62
f 83 82 61
f 58 72 84
f 58 84 79
f 66 53 76
f 85 68 70
f 86 70 69
f 85 70 87
f 86 87 70
f 76 68 85
f 81 56 82
f 88 73 71
f 88 71 77
f 89 72 73
f 89 84 72
f 86 69 81
f 59 60 90
f 59 91 63
f 59 90 92
f 59 92 91
f 66 76 93
f 77 66 93
f 90 60 65
f 94 67 63
f 94 63 91
f 62 78 95
f 83 62 95
f 76 85 96
f 76 97 93
f 76 96 97
f 98 78 67
f 98 67 94
f 64 99 65
f 90 65 99
f 81 82 100
f 83 100 82
f 85 87 101
f 101 87 86
f 86 81 102
f 81 103 102
f 81 100 103
f 104 95 78
f 104 78 98
f 64 75 105
f 64 106 99
f 64 105 106
f 85 107 96
f 85 101 108
f 85 108 107
f 109 86 102
f 101 86 109
f 89 73 88
f 77 93 110
f 88 77 110
f 105 75 74
f 111 110 93
f 111 93 97
f 74 80 112
f 105 74 113
f 74 112 113
f 114 80 79
f 114 112 80
f 114 79 84
f 115 102 103
f 109 102 116
f 115 116 102
f 107 97 96
f 83 117 100
f 100 118 103
f 100 117 118
f 119 84 89
f 114 84 119
f 83 95 120
f 121 117 83
f 121 83 120
f 88 110 122
f 111 122 110
f 115 103 118
f 104 120 95
f 111 97 123
f 107 123 97
f 89 88 124
f 88 122 125
f 88 125 124
f 101 109 126
f 126 109 116
f 101 127 108
f 101 126 128
f 101 128 127
f 115 129 116
f 126 116 129
f 115 118 130
f 115 130 129
f 89 124 131
f 119 89 132
f 89 131 132
f 111 133 122
f 111 123 133
f 127 107 108
f 121 118 117
f 134 123 107
f 127 135 107
f 134 107 135
f 136 122 133
f 136 125 122
f 136 133 123
f 136 123 134
f 137 130 118
f 121 137 118
f 90 138 92
f 139 91 92
f 139 92 138
f 90 99 140
f 90 141 138
f 90 140 141
f 142 129 130
f 137 143 130
f 142 130 143
f 121 120 144
f 104 144 120
f 94 91 139
f 145 124 125
f 145 131 124
f 140 99 106
f 142 126 129
f 98 94 146
f 94 139 146
f 147 128 126
f 142 147 126
f 105 148 106
f 140 106 148
f 104 98 149
f 98 146 149
f 105 113 150
f 105 151 148
f 105 150 151
f 145 125 136
f 127 128 152
f 147 152 128
f 153 113 112
f 153 150 113
f 127 154 135
f 127 152 155
f 127 155 154
f 153 112 114
f 114 119 156
f 153 114 157
f 114 156 157
f 119 132 158
f 119 158 156
f 136 134 159
f 145 136 160
f 136 159 160
f 154 134 135
f 161 137 121
f 121 144 162
f 161 121 162
f 154 159 134
f 163 144 104
f 104 149 164
f 163 104 164
f 165 132 131
f 165 158 132
f 161 143 137
f 142 143 166
f 161 166 143
f 167 131 145
f 167 165 131
f 168 147 142
f 142 166 169
f 168 142 169
f 168 152 147
f 163 162 144
f 167 145 160
f 170 160 159
f 167 160 171
f 170 171 160
f 172 155 152
f 168 172 152
f 154 170 159
f 154 155 173
f 154 174 170
f 154 173 174
f 172 173 155
f 175 138 141
f 139 138 175
f 140 176 141
f 175 141 176
f 139 177 146
f 139 175 178
f 139 178 177
f 161 162 179
f 163 179 162
f 140 148 180
f 140 180 181
f 140 181 176
f 182 149 146
f 182 146 177
f 151 180 148
f 151 150 183
f 151 184 180
f 151 183 184
f 182 164 149
f 185 150 153
f 185 183 150
f 186 166 161
f 161 179 187
f 186 161 187
f 185 153 157
f 188 157 156
f 185 157 189
f 188 189 157
f 188 156 158
f 190 158 165
f 190 191 158
f 188 158 191
f 186 169 166
f 163 164 192
f 182 192 164
f 168 169 193
f 186 193 169
f 167 190 165
f 194 172 168
f 168 193 195
f 194 168 195
f 196 167 171
f 167 197 190
f 196 197 167
f 170 196 171
f 198 173 172
f 198 172 194
f 170 174 199
f 170 200 196
f 170 199 200
f 201 179 163
f 163 192 202
f 201 163 202
f 199 174 173
f 199 173 198
f 201 187 179
f 181 180 203
f 203 180 184
f 181 204 176
f 181 203 205
f 181 205 204
f 183 206 184
f 203 184 206
f 175 176 204
f 186 187 207
f 201 207 187
f 175 208 178
f 175 204 209
f 175 209 208
f 210 183 185
f 183 211 206
f 210 211 183
f 212 177 178
f 212 178 208
f 212 182 177
f 210 185 189
f 188 213 189
f 210 189 213
f 182 214 192
f 182 215 214
f 212 215 182
f 216 193 186
f 186 207 217
f 216 186 217
f 190 218 191
f 188 191 218
f 216 195 193
f 190 197 219
f 190 220 218
f 190 219 220
f 188 218 221
f 188 222 213
f 223 188 221
f 223 222 188
f 214 202 192
f 194 195 224
f 216 224 195
f 196 219 197
f 196 200 225
f 196 226 219
f 196 225 226
f 198 194 227
f 194 224 227
f 200 199 228
f 200 228 225
f 199 198 229
f 199 229 228
f 198 227 229
f 201 202 230
f 214 230 202
f 231 207 201
f 201 230 232
f 231 201 232
f 203 206 233
f 203 234 205
f 203 233 235
f 203 235 234
f 233 206 211
f 236 204 205
f 236 205 234
f 231 217 207
f 237 211 210
f 233 211 237
f 238 218 220
f 239 221 218
f 238 239 218
f 209 204 236
f 238 220 219
f 214 215 240
f 212 240 215
f 209 241 208
f 209 236 242
f 209 242 241
f 243 210 213
f 237 210 243
f 216 217 244
f 231 244 217
f 214 245 230
f 214 240 246
f 214 246 245
f 208 247 212
f 208 241 247
f 248 219 226
f 238 219 249
f 248 249 219
f 250 224 216
f 216 244 251
f 250 216 251
f 252 213 222
f 243 213 252
f 239 253 221
f 254 221 253
f 254 223 221
f 248 226 225
f 255 225 228
f 248 225 255
f 250 227 224
f 256 228 229
f 255 228 256
f 227 257 229
f 256 229 257
f 227 258 257
f 250 258 227
f 212 259 240
f 260 259 212
f 260 212 247
f 245 232 230
f 223 261 222
f 252 222 261
f 231 232 262
f 245 262 232
f 263 239 238
f 263 253 239
f 238 249 264
f 263 238 265
f 238 264 265
f 264 249 248
f 266 246 240
f 245 246 267
f 266 267 246
f 268 244 231
f 231 262 269
f 268 231 269
f 266 240 259
f 263 270 253
f 254 253 270
f 248 255 271
f 264 248 272
f 248 271 272
f 268 251 244
f 245 273 262
f 245 267 274
f 245 274 273
f 254 275 223
f 223 275 261
f 255 256 276
f 255 276 271
f 250 251 277
f 268 277 251
f 256 257 278
f 256 278 276
f 278 257 258
f 279 258 250
f 279 250 280
f 250 277 280
f 278 258 279
f 235 233 281
f 233 237 282
f 233 282 281
f 235 283 234
f 235 281 284
f 235 284 283
f 236 234 283
f 237 243 285
f 237 285 282
f 273 269 262
f 236 286 242
f 236 283 287
f 236 287 286
f 263 265 288
f 264 288 265
f 285 243 252
f 289 270 263
f 263 288 290
f 289 263 290
f 266 259 291
f 292 291 259
f 292 259 260
f 264 272 293
f 264 294 288
f 264 293 294
f 295 274 267
f 295 267 266
f 296 241 242
f 296 242 286
f 297 252 261
f 285 252 298
f 297 298 252
f 295 299 274
f 273 274 299
f 268 269 300
f 273 300 269
f 254 270 301
f 289 301 270
f 295 266 302
f 303 302 266
f 303 266 291
f 304 254 301
f 254 305 275
f 304 305 254
f 306 272 271
f 306 293 272
f 296 247 241
f 306 271 276
f 307 277 268
f 268 300 308
f 307 268 308
f 297 261 275
f 288 295 290
f 289 290 295
f 278 309 276
f 306 276 309
f 288 299 295
f 288 310 299
f 288 294 310
f 289 295 302
f 278 279 311
f 278 311 312
f 278 312 309
f 279 280 313
f 279 313 311
f 307 280 277
f 307 313 280
f 273 299 310
f 273 314 300
f 273 310 314
f 303 289 302
f 289 315 301
f 303 315 289
f 314 294 293
f 314 310 294
f 296 316 247
f 317 260 247
f 317 247 316
f 314 308 300
f 292 303 291
f 304 301 315
f 314 293 306
f 297 275 318
f 319 275 305
f 319 318 275
f 311 320 312
f 311 313 320
f 321 307 308
f 314 322 308
f 321 308 322
f 306 309 321
f 314 306 322
f 306 321 322
f 323 284 281
f 323 281 282
f 321 309 312
f 321 312 320
f 321 313 307
f 324 283 284
f 323 325 284
f 324 284 325
f 321 320 313
f 285 326 282
f 323 282 326
f 287 283 324
f 303 327 315
f 304 315 327
f 292 328 303
f 303 328 327
f 285 298 329
f 285 330 326
f 285 329 330
f 287 331 286
f 287 324 332
f 287 332 331
f 297 329 298
f 297 318 329
f 319 305 304
f 296 286 331
f 296 331 316
f 317 292 260
f 323 326 333
f 323 333 325
f 304 327 334
f 319 304 335
f 304 334 335
f 292 336 328
f 317 337 292
f 292 337 336
f 319 329 318
f 330 333 326
f 338 316 331
f 338 317 316
f 339 324 325
f 339 325 333
f 330 329 340
f 330 341 333
f 330 340 341
f 319 340 329
f 332 324 339
f 327 328 336
f 327 336 334
f 332 338 331
f 332 339 342
f 332 342 338
f 343 340 319
f 343 319 335
f 341 339 333
f 338 337 317
f 341 340 343
f 341 344 339
f 341 343 344
f 344 342 339
f 343 335 334
f 338 342 345
f 344 345 342
f 338 346 337
f 338 345 346
f 344 343 347
f 344 347 345
f 348 337 346
f 348 336 337
f 343 334 347
f 348 346 345
f 348 345 347
f 348 334 336
f 348 347 334
