# 
# Wavefront OBJ file
# Created with Kaydara FBX
# 
mtllib c:\users\tjvan\onedrive\documenten\fontys\minor\nx\.mtlmodels\anterior_cruciate_ligament.r.obj

g Anterior_cruciate_ligament_r
v -0.085469 0.458709 -0.048720
v -0.085185 0.456028 -0.048859
v -0.085436 0.456075 -0.048511
v -0.085183 0.456266 -0.047779
v -0.085268 0.460573 -0.048520
v -0.085439 0.460539 -0.048326
v -0.085195 0.460336 -0.047845
v -0.085270 0.458746 -0.048999
v -0.085181 0.458655 -0.048083
v -0.085208 0.452979 -0.047580
v -0.084832 0.452922 -0.047922
v -0.085174 0.461880 -0.047327
v -0.084749 0.458747 -0.048659
v -0.084504 0.456163 -0.048533
v -0.084949 0.461892 -0.047520
v -0.084609 0.461496 -0.047464
v -0.084857 0.460397 -0.048271
v -0.084944 0.453290 -0.046899
v -0.084582 0.450085 -0.045482
v -0.084831 0.449669 -0.046139
v -0.084971 0.460102 -0.047266
v -0.085048 0.461452 -0.047026
v -0.084899 0.461084 -0.046784
v -0.084942 0.456461 -0.046970
v -0.084977 0.458613 -0.047364
v -0.084601 0.461927 -0.045617
v -0.084207 0.462430 -0.045837
v -0.084599 0.462470 -0.045670
v -0.084809 0.459928 -0.046637
v -0.084726 0.456655 -0.046057
v -0.084796 0.458629 -0.046531
v -0.084785 0.460670 -0.046457
v -0.084722 0.453638 -0.046093
v -0.084424 0.454057 -0.045171
v -0.083797 0.461949 -0.046005
v -0.084578 0.461240 -0.045619
v -0.084189 0.458743 -0.048194
v -0.084244 0.461030 -0.047394
v -0.084384 0.460224 -0.047943
v -0.084175 0.449630 -0.046602
v -0.083634 0.447165 -0.043789
v -0.083129 0.446534 -0.044996
v -0.083762 0.446629 -0.044458
v -0.084080 0.453148 -0.047720
v -0.083322 0.449914 -0.046575
v -0.084589 0.459837 -0.045722
v -0.084448 0.456923 -0.045027
v -0.084590 0.458764 -0.045649
v -0.084575 0.460685 -0.045649
v -0.084252 0.450594 -0.044721
v -0.083896 0.451180 -0.043841
v -0.084349 0.458693 -0.044880
v -0.084103 0.460201 -0.044268
v -0.084253 0.459469 -0.044672
v -0.084002 0.460901 -0.043960
v -0.083745 0.462302 -0.043576
v -0.083905 0.461647 -0.043714
v -0.083138 0.462209 -0.043927
v -0.083832 0.456351 -0.048029
v -0.083369 0.453444 -0.047327
v -0.084006 0.454587 -0.044085
v -0.084074 0.457413 -0.044082
v -0.083455 0.455268 -0.042927
v -0.083918 0.460717 -0.047248
v -0.083909 0.460091 -0.047517
v -0.083673 0.458148 -0.043343
v -0.083519 0.447773 -0.043029
v -0.083334 0.458919 -0.042708
v -0.083491 0.461325 -0.046220
v -0.083662 0.458746 -0.047592
v -0.083210 0.456563 -0.047351
v -0.082262 0.446835 -0.045081
v -0.082564 0.450319 -0.046246
v -0.083434 0.451881 -0.042814
v -0.082765 0.460226 -0.041702
v -0.083053 0.459595 -0.042176
v -0.083325 0.448466 -0.042133
v -0.083042 0.449270 -0.041138
v -0.083218 0.459945 -0.046687
v -0.083308 0.460730 -0.046443
v -0.082454 0.460747 -0.041360
v -0.082526 0.460973 -0.044789
v -0.082759 0.461585 -0.044381
v -0.082568 0.444213 -0.042368
v -0.081926 0.444086 -0.042861
v -0.082923 0.456033 -0.041916
v -0.083073 0.458844 -0.046790
v -0.083039 0.445220 -0.040923
v -0.082967 0.444585 -0.041716
v -0.082828 0.452672 -0.041652
v -0.082273 0.453408 -0.040532
v -0.082622 0.453841 -0.046692
v -0.082950 0.445995 -0.040032
v -0.082059 0.457297 -0.040370
v -0.082466 0.456722 -0.041062
v -0.082439 0.460246 -0.045244
v -0.082578 0.456850 -0.046494
v -0.081943 0.454369 -0.045801
v -0.082571 0.458718 -0.046058
v -0.082530 0.459500 -0.045740
v -0.081615 0.460123 -0.042417
v -0.081878 0.460657 -0.041756
v -0.081654 0.457817 -0.039776
v -0.082062 0.442370 -0.039659
v -0.082117 0.443806 -0.038151
v -0.082209 0.443008 -0.038923
v -0.082834 0.446809 -0.039094
v -0.082644 0.447551 -0.038138
v -0.082596 0.450091 -0.040051
v -0.081607 0.442025 -0.040298
v -0.081775 0.454046 -0.039570
v -0.081966 0.444530 -0.037362
v -0.082244 0.448228 -0.037117
v -0.081825 0.445117 -0.036523
v -0.081823 0.450869 -0.045640
v -0.082071 0.450802 -0.038945
v -0.081502 0.447343 -0.044819
v -0.080810 0.448024 -0.044253
v -0.082000 0.457313 -0.045504
v -0.081301 0.455068 -0.044635
v -0.081617 0.458066 -0.044550
v -0.081469 0.458895 -0.043751
v -0.081483 0.459554 -0.043061
v -0.081319 0.454569 -0.038798
v -0.080756 0.458144 -0.039743
v -0.081281 0.458248 -0.039308
v -0.081123 0.444316 -0.043053
v -0.080401 0.444812 -0.042902
v -0.081683 0.448805 -0.036167
v -0.081647 0.445631 -0.035580
v -0.080983 0.440458 -0.037016
v -0.080924 0.439932 -0.037714
v -0.080659 0.441695 -0.035570
v -0.080846 0.441090 -0.036298
v -0.081549 0.451418 -0.037961
v -0.080800 0.455891 -0.043350
v -0.080537 0.442248 -0.034817
v -0.081141 0.451576 -0.044726
v -0.080957 0.441921 -0.040801
v -0.080179 0.442147 -0.040986
v -0.080519 0.457693 -0.040557
v -0.080463 0.442745 -0.034013
v -0.080224 0.448862 -0.043387
v -0.081395 0.446106 -0.034607
v -0.081108 0.449304 -0.035381
v -0.080335 0.443220 -0.033202
v -0.080839 0.455010 -0.038191
v -0.080310 0.455360 -0.037786
v -0.079815 0.439660 -0.038878
v -0.080540 0.439630 -0.038368
v -0.081064 0.451922 -0.037156
v -0.080468 0.457186 -0.041344
v -0.080547 0.456594 -0.042245
v -0.080897 0.446555 -0.033854
v -0.079945 0.443675 -0.032575
v -0.080557 0.452334 -0.036503
v -0.080553 0.452358 -0.043555
v -0.079898 0.455240 -0.038201
v -0.079726 0.449725 -0.042287
v -0.079474 0.442603 -0.040883
v -0.080447 0.449693 -0.034825
v -0.079421 0.437743 -0.035292
v -0.079046 0.439915 -0.039138
v -0.078860 0.437126 -0.036564
v -0.079302 0.437290 -0.035936
v -0.080174 0.446912 -0.033391
v -0.079306 0.444028 -0.032347
v -0.079339 0.438349 -0.034645
v -0.079858 0.452595 -0.036178
v -0.079756 0.445497 -0.042476
v -0.080014 0.453187 -0.042175
v -0.079680 0.453882 -0.040953
v -0.079198 0.439013 -0.033889
v -0.078148 0.437290 -0.037073
v -0.079140 0.439579 -0.033118
v -0.079214 0.450566 -0.040943
v -0.079569 0.454448 -0.039903
v -0.079644 0.454882 -0.039017
v -0.079127 0.440112 -0.032325
v -0.079269 0.447007 -0.033602
v -0.079544 0.449862 -0.034795
v -0.078840 0.443227 -0.040534
v -0.079012 0.440649 -0.031606
v -0.079218 0.446364 -0.041752
v -0.078504 0.444187 -0.032652
v -0.078864 0.451207 -0.039635
v -0.078644 0.441208 -0.031077
v -0.079315 0.452423 -0.036762
v -0.078991 0.452113 -0.037576
v -0.078905 0.449677 -0.035387
v -0.078327 0.443972 -0.039912
v -0.078813 0.447212 -0.040804
v -0.078808 0.451711 -0.038541
v -0.078550 0.446916 -0.034200
v -0.078337 0.440333 -0.039134
v -0.077630 0.435878 -0.032977
v -0.077306 0.434817 -0.034256
v -0.077589 0.435207 -0.033614
v -0.077597 0.436621 -0.032193
v -0.076722 0.434810 -0.034842
v -0.077993 0.441661 -0.030994
v -0.078405 0.449425 -0.036191
v -0.077975 0.444703 -0.039125
v -0.078411 0.447965 -0.039650
v -0.077593 0.437233 -0.031375
v -0.077576 0.437864 -0.030530
v -0.077389 0.438483 -0.029841
v -0.076737 0.437984 -0.037678
v -0.077392 0.437575 -0.037484
v -0.076954 0.439082 -0.029429
v -0.078114 0.449066 -0.037180
v -0.078098 0.448568 -0.038362
v -0.077715 0.440912 -0.038852
v -0.077684 0.445382 -0.038246
v -0.076293 0.439573 -0.029444
v -0.077797 0.444215 -0.033163
v -0.077941 0.446704 -0.035021
v -0.077078 0.444140 -0.033926
v -0.077261 0.441845 -0.031391
v -0.076567 0.441915 -0.031957
v -0.077464 0.445965 -0.037216
v -0.077539 0.446413 -0.036042
v -0.076234 0.438556 -0.037447
v -0.077299 0.441567 -0.038276
v -0.075345 0.435392 -0.035864
v -0.076029 0.435079 -0.035354
v -0.075599 0.439846 -0.029836
v -0.077011 0.442227 -0.037552
v -0.075847 0.441861 -0.032800
v -0.075885 0.439182 -0.036902
v -0.076764 0.442839 -0.036796
v -0.075371 0.433091 -0.031782
v -0.075796 0.433745 -0.031140
v -0.074818 0.432902 -0.032380
v -0.075970 0.434438 -0.030418
v -0.076082 0.435118 -0.029548
v -0.075991 0.435764 -0.028771
v -0.076595 0.443391 -0.035938
v -0.076633 0.443874 -0.034925
v -0.074748 0.435761 -0.036333
v -0.075592 0.436373 -0.028179
v -0.075614 0.439836 -0.036247
v -0.074877 0.439979 -0.030526
v -0.075406 0.440482 -0.035526
v -0.074995 0.436956 -0.027894
v -0.075317 0.441055 -0.034705
v -0.073594 0.433262 -0.033543
v -0.074283 0.432993 -0.032913
v -0.075422 0.441552 -0.033742
v -0.074292 0.437454 -0.027972
v -0.074287 0.436348 -0.036285
v -0.074355 0.433551 -0.026954
v -0.074457 0.432934 -0.027563
v -0.072999 0.433553 -0.034117
v -0.073886 0.434239 -0.026495
v -0.074247 0.432302 -0.028315
v -0.074013 0.436998 -0.035754
v -0.073909 0.439498 -0.032501
v -0.074239 0.439890 -0.031493
v -0.073883 0.431782 -0.028912
v -0.073823 0.437699 -0.035081
v -0.073143 0.434894 -0.026346
v -0.073534 0.437840 -0.028396
v -0.073788 0.438964 -0.033467
v -0.073754 0.438382 -0.034307
v -0.073201 0.431329 -0.029498
v -0.072318 0.435466 -0.026509
v -0.072206 0.438221 -0.030227
v -0.072761 0.438148 -0.029183
v -0.071605 0.431363 -0.030733
v -0.072351 0.431208 -0.030005
v -0.071975 0.434428 -0.034924
v -0.072425 0.433897 -0.034683
v -0.072044 0.431588 -0.024855
v -0.072042 0.430393 -0.025825
v -0.072203 0.430933 -0.025243
v -0.070948 0.431684 -0.031515
v -0.071849 0.435147 -0.034502
v -0.071369 0.436001 -0.027112
v -0.071942 0.437841 -0.031424
v -0.071774 0.435895 -0.033933
v -0.071510 0.430295 -0.026435
v -0.071749 0.432308 -0.024736
v -0.071746 0.436613 -0.033232
v -0.071816 0.437262 -0.032410
v -0.070485 0.436435 -0.028128
v -0.070728 0.430469 -0.027066
v -0.071100 0.433055 -0.024834
v -0.069892 0.432460 -0.032871
v -0.070353 0.432065 -0.032218
v -0.069883 0.436642 -0.029328
v -0.069498 0.432907 -0.033347
v -0.069275 0.430869 -0.028663
v -0.069969 0.430666 -0.027807
v -0.070266 0.433836 -0.025247
v -0.068974 0.430209 -0.023933
v -0.068630 0.430327 -0.025120
v -0.068820 0.430202 -0.024514
v -0.068720 0.431555 -0.023698
v -0.068885 0.430865 -0.023625
v -0.069290 0.435919 -0.031525
v -0.069550 0.436412 -0.030556
v -0.069274 0.433694 -0.033288
v -0.069177 0.435222 -0.032346
v -0.069204 0.434477 -0.032908
v -0.068578 0.432184 -0.024012
v -0.068339 0.430522 -0.025929
v -0.069370 0.434529 -0.026002
v -0.068214 0.432936 -0.024603
v -0.068010 0.431118 -0.030217
v -0.068654 0.430999 -0.029446
v -0.068415 0.435059 -0.027159
v -0.067621 0.433606 -0.025400
v -0.067997 0.430838 -0.027604
v -0.068017 0.430726 -0.026746
v -0.067430 0.431308 -0.030920
v -0.067234 0.435055 -0.029452
v -0.067716 0.435245 -0.028417
v -0.066826 0.434630 -0.030398
v -0.066665 0.432431 -0.031721
v -0.066934 0.431719 -0.031528
v -0.066799 0.434098 -0.026373
v -0.066593 0.433991 -0.031139
v -0.066552 0.433207 -0.031588
v -0.065900 0.431183 -0.023883
v -0.066239 0.430999 -0.024717
v -0.066086 0.431014 -0.024242
v -0.065862 0.431649 -0.023901
v -0.067205 0.430985 -0.027813
v -0.066503 0.430968 -0.025326
v -0.065885 0.432154 -0.024147
v -0.066037 0.434231 -0.027461
v -0.066824 0.431011 -0.026765
v -0.066701 0.430967 -0.025896
v -0.066031 0.433119 -0.025088
v -0.065867 0.432661 -0.024595
v -0.065888 0.431234 -0.028816
v -0.066521 0.431124 -0.028364
v -0.065018 0.433587 -0.028864
v -0.065482 0.433993 -0.028284
v -0.065205 0.431350 -0.029240
v -0.066100 0.431159 -0.026198
v -0.066048 0.431202 -0.026987
v -0.065242 0.433335 -0.025654
v -0.065027 0.433611 -0.026644
v -0.064538 0.432337 -0.029510
v -0.064657 0.431654 -0.029533
v -0.064682 0.433048 -0.029264
v -0.065416 0.431358 -0.027053
v -0.065136 0.431465 -0.025687
v -0.065696 0.431288 -0.025947
v -0.064400 0.431785 -0.025413
v -0.064794 0.431594 -0.025577
v -0.064612 0.432982 -0.025396
v -0.064755 0.431541 -0.027051
v -0.064287 0.432704 -0.025257
v -0.063971 0.432109 -0.025217
v -0.064054 0.433029 -0.026962
v -0.064451 0.433330 -0.026788
v -0.064209 0.431744 -0.027087
v -0.063784 0.432081 -0.027107
v -0.063768 0.432612 -0.027068
usemtl Anterior_cruciate_ligament_rMaterial0
f 1 2 3
f 1 3 4
f 5 1 6
f 1 7 6
f 5 8 1
f 1 8 2
f 1 9 7
f 1 4 9
f 10 4 3
f 11 10 3
f 11 3 2
f 12 5 6
f 12 6 7
f 5 13 8
f 14 2 8
f 14 8 13
f 12 15 5
f 5 15 16
f 5 17 13
f 5 16 17
f 10 18 4
f 10 19 18
f 11 20 10
f 10 20 19
f 9 21 7
f 12 7 22
f 7 23 22
f 7 21 23
f 14 11 2
f 9 4 24
f 24 4 18
f 9 25 21
f 9 24 25
f 26 12 22
f 12 27 15
f 26 28 12
f 12 28 27
f 26 22 23
f 25 29 21
f 25 24 30
f 25 31 29
f 25 30 31
f 32 23 21
f 32 21 29
f 24 18 33
f 33 18 19
f 24 33 34
f 24 34 30
f 35 16 15
f 35 15 27
f 32 36 23
f 26 23 36
f 37 13 17
f 17 16 38
f 17 38 39
f 37 17 39
f 11 40 20
f 20 41 19
f 20 40 42
f 20 43 41
f 20 42 43
f 14 44 11
f 11 45 40
f 11 44 45
f 31 46 29
f 32 29 46
f 47 31 30
f 31 48 46
f 47 48 31
f 32 46 49
f 32 49 36
f 37 14 13
f 33 19 50
f 33 51 34
f 33 50 51
f 47 30 34
f 41 50 19
f 52 46 48
f 52 48 47
f 53 49 46
f 52 54 46
f 53 46 54
f 55 36 49
f 55 49 53
f 55 26 36
f 35 38 16
f 26 56 28
f 55 57 26
f 26 57 56
f 58 27 28
f 58 28 56
f 37 59 14
f 14 60 44
f 14 59 60
f 47 34 61
f 52 47 62
f 47 63 62
f 47 61 63
f 51 61 34
f 64 39 38
f 37 39 65
f 64 65 39
f 52 66 54
f 52 62 66
f 51 50 67
f 41 67 50
f 68 53 54
f 68 54 66
f 64 38 69
f 35 69 38
f 58 35 27
f 37 65 70
f 71 59 37
f 71 37 70
f 72 40 45
f 72 42 40
f 68 55 53
f 73 44 60
f 73 45 44
f 63 66 62
f 51 74 61
f 63 61 74
f 55 75 57
f 68 76 55
f 55 76 75
f 51 67 77
f 51 78 74
f 51 77 78
f 64 79 65
f 70 65 79
f 64 69 80
f 64 80 79
f 81 56 57
f 81 57 75
f 71 60 59
f 35 82 69
f 58 83 35
f 35 83 82
f 41 43 84
f 85 43 42
f 85 84 43
f 81 58 56
f 63 86 66
f 86 68 66
f 71 70 87
f 70 79 87
f 41 88 67
f 41 89 88
f 41 84 89
f 88 77 67
f 82 80 69
f 63 74 90
f 63 91 86
f 63 90 91
f 78 90 74
f 71 92 60
f 73 60 92
f 88 93 77
f 78 77 93
f 73 72 45
f 68 94 76
f 86 95 68
f 68 95 94
f 96 79 80
f 82 96 80
f 71 87 97
f 98 92 71
f 98 71 97
f 99 87 79
f 99 79 100
f 96 100 79
f 72 85 42
f 58 101 83
f 81 102 58
f 58 102 101
f 99 97 87
f 103 75 76
f 103 76 94
f 88 89 104
f 88 105 93
f 88 106 105
f 88 104 106
f 78 93 107
f 78 107 108
f 78 109 90
f 78 108 109
f 110 89 84
f 110 104 89
f 105 107 93
f 86 111 95
f 86 91 111
f 112 108 107
f 105 112 107
f 109 91 90
f 103 81 75
f 82 83 101
f 109 108 113
f 114 113 108
f 112 114 108
f 73 92 115
f 98 115 92
f 109 116 91
f 109 113 116
f 85 110 84
f 73 117 72
f 118 73 115
f 118 117 73
f 99 119 97
f 120 97 119
f 120 98 97
f 99 100 121
f 99 121 119
f 96 121 100
f 82 122 96
f 82 101 123
f 82 123 122
f 124 94 95
f 124 95 111
f 81 125 102
f 103 126 81
f 81 126 125
f 96 122 121
f 116 111 91
f 72 127 85
f 72 117 128
f 72 128 127
f 116 113 129
f 114 130 113
f 130 129 113
f 105 106 131
f 132 106 104
f 132 131 106
f 105 133 112
f 105 131 134
f 105 134 133
f 110 132 104
f 116 135 111
f 116 129 135
f 124 103 94
f 136 119 121
f 136 120 119
f 112 137 114
f 112 133 137
f 98 138 115
f 120 138 98
f 85 139 110
f 85 127 140
f 85 140 139
f 141 101 102
f 141 102 125
f 114 142 130
f 114 137 142
f 143 115 138
f 143 118 115
f 135 124 111
f 130 144 129
f 135 129 145
f 144 145 129
f 130 146 144
f 130 142 146
f 124 147 103
f 103 148 126
f 103 147 148
f 110 139 149
f 110 150 132
f 110 149 150
f 122 136 121
f 141 123 101
f 135 151 124
f 135 145 151
f 118 128 117
f 122 123 152
f 141 152 123
f 122 153 136
f 122 152 153
f 144 154 145
f 144 155 154
f 144 146 155
f 124 151 156
f 124 156 147
f 120 157 138
f 136 157 120
f 158 125 126
f 158 126 148
f 159 138 157
f 159 143 138
f 160 127 128
f 160 140 127
f 161 151 145
f 154 161 145
f 161 156 151
f 132 162 131
f 162 134 131
f 163 139 140
f 163 149 139
f 132 150 164
f 132 165 162
f 132 164 165
f 154 166 161
f 154 167 166
f 154 155 167
f 168 133 134
f 162 168 134
f 169 147 156
f 169 148 147
f 118 170 128
f 143 170 118
f 136 171 157
f 136 153 172
f 136 172 171
f 158 141 125
f 173 137 133
f 168 173 133
f 174 150 149
f 174 164 150
f 175 142 137
f 173 175 137
f 161 169 156
f 176 157 171
f 176 159 157
f 177 153 152
f 177 172 153
f 141 177 152
f 158 178 141
f 141 178 177
f 179 146 142
f 175 179 142
f 161 166 180
f 161 181 169
f 161 180 181
f 182 128 170
f 182 160 128
f 183 155 146
f 179 183 146
f 169 158 148
f 143 184 170
f 159 184 143
f 160 163 140
f 185 166 167
f 185 180 166
f 186 171 172
f 186 176 171
f 187 167 155
f 183 187 155
f 169 188 158
f 158 189 178
f 158 188 189
f 169 181 190
f 169 190 188
f 163 174 149
f 191 170 184
f 191 182 170
f 159 192 184
f 176 192 159
f 177 186 172
f 177 178 189
f 177 189 193
f 177 193 186
f 194 181 180
f 194 190 181
f 160 195 163
f 182 195 160
f 162 196 168
f 162 165 197
f 162 198 196
f 162 197 198
f 168 199 173
f 168 196 199
f 200 165 164
f 200 197 165
f 187 201 167
f 201 185 167
f 202 189 188
f 202 188 190
f 185 194 180
f 203 184 192
f 203 191 184
f 186 204 176
f 176 204 192
f 173 205 175
f 173 199 205
f 175 206 179
f 175 205 206
f 179 207 183
f 179 206 207
f 163 195 208
f 163 209 174
f 163 208 209
f 183 210 187
f 183 207 210
f 202 193 189
f 194 202 190
f 174 200 164
f 186 193 211
f 186 212 204
f 186 211 212
f 182 213 195
f 191 213 182
f 214 192 204
f 214 203 192
f 202 211 193
f 187 215 201
f 187 210 215
f 185 216 194
f 194 217 202
f 194 218 217
f 194 216 218
f 201 219 185
f 185 220 216
f 185 219 220
f 221 204 212
f 221 214 204
f 202 222 211
f 202 217 222
f 223 195 213
f 223 208 195
f 203 224 191
f 191 224 213
f 174 209 225
f 174 226 200
f 174 225 226
f 222 212 211
f 222 221 212
f 201 227 219
f 201 215 227
f 214 228 203
f 203 228 224
f 222 217 218
f 229 218 216
f 229 216 220
f 230 213 224
f 230 223 213
f 221 231 214
f 214 231 228
f 232 196 198
f 233 199 196
f 232 233 196
f 234 198 197
f 234 232 198
f 235 205 199
f 233 235 199
f 236 206 205
f 235 236 205
f 237 207 206
f 236 237 206
f 222 238 221
f 222 218 239
f 222 239 238
f 221 238 231
f 240 209 208
f 240 225 209
f 241 210 207
f 237 241 207
f 200 234 197
f 242 224 228
f 242 230 224
f 243 220 219
f 243 219 227
f 229 239 218
f 244 228 231
f 244 242 228
f 245 215 210
f 241 245 210
f 246 231 238
f 246 244 231
f 223 240 208
f 200 226 247
f 200 248 234
f 200 247 248
f 249 238 239
f 229 249 239
f 249 246 238
f 243 229 220
f 250 227 215
f 245 250 215
f 230 251 223
f 223 251 240
f 236 252 237
f 235 253 236
f 236 253 252
f 254 226 225
f 254 247 226
f 237 255 241
f 237 252 255
f 233 256 235
f 235 256 253
f 242 257 230
f 230 257 251
f 229 258 249
f 243 259 229
f 229 259 258
f 232 260 233
f 233 260 256
f 244 261 242
f 242 261 257
f 241 262 245
f 241 255 262
f 263 243 227
f 250 263 227
f 249 264 246
f 249 258 264
f 246 265 244
f 244 265 261
f 234 266 232
f 232 266 260
f 240 254 225
f 246 264 265
f 245 267 250
f 245 262 267
f 243 268 259
f 263 269 243
f 243 269 268
f 234 248 270
f 234 271 266
f 234 270 271
f 240 251 272
f 240 273 254
f 240 272 273
f 274 252 253
f 275 253 256
f 275 276 253
f 274 253 276
f 274 255 252
f 277 248 247
f 277 270 248
f 278 251 257
f 278 272 251
f 250 279 263
f 250 267 279
f 275 256 260
f 280 258 259
f 280 259 268
f 281 257 261
f 281 278 257
f 280 264 258
f 282 260 266
f 275 260 282
f 283 262 255
f 274 283 255
f 284 261 265
f 284 281 261
f 285 265 264
f 280 285 264
f 285 284 265
f 254 277 247
f 263 286 269
f 263 279 286
f 287 266 271
f 282 266 287
f 288 267 262
f 283 288 262
f 254 273 289
f 254 290 277
f 254 289 290
f 291 268 269
f 291 269 286
f 292 273 272
f 292 289 273
f 271 270 293
f 287 271 294
f 271 293 294
f 295 279 267
f 288 295 267
f 296 276 275
f 296 274 276
f 291 280 268
f 275 282 297
f 296 275 298
f 275 297 298
f 274 299 283
f 296 300 274
f 274 300 299
f 278 292 272
f 280 301 285
f 291 302 280
f 280 302 301
f 281 303 278
f 278 303 292
f 285 304 284
f 285 301 304
f 284 305 281
f 281 305 303
f 283 306 288
f 283 299 306
f 284 304 305
f 277 293 270
f 282 287 307
f 282 307 297
f 308 286 279
f 295 308 279
f 288 309 295
f 288 306 309
f 277 290 310
f 277 311 293
f 277 310 311
f 307 287 294
f 312 291 286
f 308 312 286
f 310 290 289
f 295 313 308
f 295 309 313
f 314 294 293
f 307 294 315
f 314 315 294
f 292 316 289
f 310 289 316
f 291 317 302
f 312 318 291
f 291 318 317
f 319 301 302
f 319 302 317
f 292 303 320
f 292 321 316
f 292 320 321
f 308 322 312
f 308 313 322
f 319 304 301
f 314 293 311
f 320 303 305
f 323 305 304
f 320 305 324
f 323 324 305
f 319 323 304
f 296 325 300
f 326 296 298
f 326 327 296
f 296 327 325
f 328 299 300
f 328 300 325
f 326 298 297
f 328 306 299
f 310 329 311
f 314 311 329
f 307 330 297
f 326 297 330
f 331 309 306
f 328 331 306
f 312 332 318
f 312 322 332
f 307 315 333
f 307 333 334
f 307 334 330
f 335 313 309
f 335 309 336
f 331 336 309
f 314 333 315
f 310 316 337
f 310 338 329
f 310 337 338
f 314 329 333
f 317 318 332
f 335 322 313
f 337 316 321
f 339 319 317
f 317 332 340
f 339 317 340
f 338 333 329
f 320 341 321
f 337 321 341
f 342 334 333
f 338 343 333
f 342 333 343
f 339 323 319
f 335 344 322
f 345 332 322
f 345 322 344
f 342 330 334
f 320 324 346
f 320 347 341
f 320 346 347
f 346 324 323
f 339 348 323
f 346 323 348
f 338 349 343
f 338 337 349
f 350 326 330
f 342 351 330
f 350 330 351
f 350 327 326
f 342 343 349
f 342 349 351
f 352 325 327
f 350 353 327
f 352 327 353
f 335 336 354
f 335 354 344
f 345 340 332
f 352 328 325
f 337 355 349
f 337 341 355
f 328 356 331
f 331 354 336
f 331 356 354
f 352 357 328
f 328 357 356
f 355 351 349
f 355 350 351
f 358 339 340
f 345 359 340
f 358 340 359
f 345 344 354
f 355 341 347
f 355 353 350
f 358 348 339
f 345 354 359
f 355 360 353
f 361 352 353
f 361 353 360
f 355 347 360
f 346 348 362
f 358 362 348
f 346 360 347
f 356 359 354
f 346 361 360
f 346 362 361
f 356 358 359
f 361 357 352
f 356 362 358
f 356 357 362
f 361 362 357
