# 
# Wavefront OBJ file
# Created with Kaydara FBX
# 
mtllib c:\users\tjvan\onedrive\documenten\fontys\minor\nx\.mtlmodels\anterior_intermuscular_septum_of_leg.r.obj

g Anterior_intermuscular_septum_of_leg_r
v -0.123360 0.342122 -0.027526
v -0.123356 0.338440 -0.027295
v -0.123239 0.338446 -0.027133
v -0.119373 0.341832 -0.030195
v -0.123298 0.334720 -0.027158
v -0.123179 0.334727 -0.026997
v -0.119421 0.338195 -0.030151
v -0.123356 0.345778 -0.027806
v -0.123249 0.342128 -0.027360
v -0.119317 0.345478 -0.030278
v -0.123307 0.349427 -0.028099
v -0.123251 0.345786 -0.027636
v -0.119293 0.349154 -0.030409
v -0.123046 0.331039 -0.026894
v -0.123168 0.331033 -0.027053
v -0.119369 0.334562 -0.030080
v -0.123206 0.349436 -0.027926
v -0.123162 0.353115 -0.028397
v -0.119304 0.352830 -0.030614
v -0.119241 0.341835 -0.030045
v -0.119286 0.338198 -0.030004
v -0.119187 0.345483 -0.030126
v -0.119165 0.349162 -0.030255
v -0.123061 0.353123 -0.028224
v -0.119177 0.352837 -0.030459
v -0.119231 0.334567 -0.029935
v -0.123045 0.327371 -0.026968
v -0.122921 0.327374 -0.026811
v -0.119262 0.330941 -0.030009
v -0.122945 0.356824 -0.028583
v -0.119257 0.356485 -0.030825
v -0.122842 0.356828 -0.028412
v -0.119129 0.356487 -0.030671
v -0.122941 0.323647 -0.026998
v -0.122815 0.323649 -0.026842
v -0.119211 0.327359 -0.030008
v -0.119121 0.330944 -0.029868
v -0.122653 0.319859 -0.026915
v -0.122778 0.319856 -0.027071
v -0.119185 0.323772 -0.030046
v -0.122717 0.360521 -0.028750
v -0.119088 0.360083 -0.030991
v -0.119068 0.327360 -0.029868
v -0.122613 0.360523 -0.028579
v -0.118962 0.360082 -0.030835
v -0.119040 0.323774 -0.029907
v -0.122482 0.316023 -0.027048
v -0.122603 0.316025 -0.027207
v -0.119069 0.320141 -0.030048
v -0.122546 0.364124 -0.028983
v -0.118832 0.363606 -0.031137
v -0.118925 0.320146 -0.029909
v -0.122509 0.312206 -0.027561
v -0.122393 0.312196 -0.027398
v -0.118867 0.316453 -0.030060
v -0.122447 0.364126 -0.028810
v -0.118710 0.363602 -0.030978
v -0.122409 0.367635 -0.029199
v -0.118533 0.367055 -0.031209
v -0.122441 0.308476 -0.027978
v -0.122329 0.308464 -0.027813
v -0.118683 0.312720 -0.030248
v -0.118724 0.316454 -0.029921
v -0.122195 0.304748 -0.028147
v -0.122305 0.304761 -0.028314
v -0.118544 0.309003 -0.030551
v -0.122317 0.367636 -0.029022
v -0.118416 0.367050 -0.031047
v -0.122260 0.371087 -0.029394
v -0.118242 0.370496 -0.031266
v -0.118542 0.312715 -0.030107
v -0.118405 0.308996 -0.030407
v -0.122175 0.371088 -0.029213
v -0.118130 0.370492 -0.031101
v -0.122071 0.301054 -0.028597
v -0.122179 0.301072 -0.028764
v -0.118393 0.305298 -0.030854
v -0.122037 0.374534 -0.029595
v -0.117931 0.373939 -0.031374
v -0.118256 0.305290 -0.030708
v -0.122103 0.297477 -0.029317
v -0.121998 0.297455 -0.029148
v -0.118267 0.301612 -0.031235
v -0.121957 0.374535 -0.029411
v -0.117823 0.373934 -0.031206
v -0.122064 0.293947 -0.029841
v -0.121963 0.293927 -0.029670
v -0.118187 0.298012 -0.031695
v -0.122028 0.290415 -0.030305
v -0.121931 0.290398 -0.030131
v -0.118123 0.294462 -0.032117
v -0.118131 0.301599 -0.031089
v -0.121959 0.286873 -0.030724
v -0.121865 0.286858 -0.030547
v -0.118052 0.290936 -0.032482
v -0.121689 0.377945 -0.029797
v -0.117564 0.377350 -0.031501
v -0.118053 0.297996 -0.031548
v -0.121735 0.283359 -0.030927
v -0.121825 0.283370 -0.031105
v -0.117945 0.287399 -0.032804
v -0.117991 0.294447 -0.031967
v -0.121612 0.377945 -0.029612
v -0.117459 0.377344 -0.031331
v -0.117923 0.290924 -0.032329
v -0.117820 0.287390 -0.032648
v -0.121561 0.279882 -0.031249
v -0.121648 0.279891 -0.031429
v -0.117817 0.283861 -0.033084
v -0.117695 0.283854 -0.032925
v -0.121252 0.381267 -0.029978
v -0.117092 0.380777 -0.031658
v -0.121348 0.276340 -0.031525
v -0.121432 0.276348 -0.031706
v -0.117697 0.280313 -0.033296
v -0.121177 0.381265 -0.029793
v -0.116988 0.380769 -0.031487
v -0.117578 0.280307 -0.033135
v -0.121103 0.272700 -0.031820
v -0.121186 0.272710 -0.032002
v -0.117568 0.276724 -0.033474
v -0.117450 0.276718 -0.033313
v -0.120788 0.384462 -0.030127
v -0.116560 0.384244 -0.031797
v -0.120823 0.268986 -0.032191
v -0.120907 0.269001 -0.032372
v -0.117477 0.273072 -0.033664
v -0.120715 0.384456 -0.029941
v -0.116457 0.384233 -0.031626
v -0.117361 0.273064 -0.033501
v -0.120538 0.265334 -0.032639
v -0.120624 0.265351 -0.032819
v -0.117379 0.269412 -0.033966
v -0.117264 0.269402 -0.033803
v -0.120239 0.387796 -0.030212
v -0.116295 0.387810 -0.031688
v -0.120168 0.387783 -0.030025
v -0.116195 0.387794 -0.031515
v -0.120316 0.261825 -0.033103
v -0.120399 0.261841 -0.033284
v -0.117228 0.265825 -0.034401
v -0.117114 0.265812 -0.034238
v -0.120174 0.258393 -0.033525
v -0.120251 0.258406 -0.033710
v -0.117029 0.262311 -0.034821
v -0.116917 0.262300 -0.034656
v -0.120052 0.254930 -0.033900
v -0.120120 0.254941 -0.034088
v -0.116819 0.258853 -0.035122
v -0.119531 0.391375 -0.030175
v -0.116208 0.391315 -0.031362
v -0.116712 0.258845 -0.034954
v -0.119464 0.391355 -0.029988
v -0.116116 0.391292 -0.031186
v -0.119858 0.251392 -0.034257
v -0.119916 0.251403 -0.034448
v -0.116611 0.255379 -0.035328
v -0.116508 0.255374 -0.035157
v -0.119540 0.247798 -0.034641
v -0.119593 0.247813 -0.034833
v -0.116367 0.251842 -0.035480
v -0.116268 0.251837 -0.035306
v -0.119189 0.244250 -0.035029
v -0.119243 0.244267 -0.035221
v -0.116164 0.248238 -0.035716
v -0.116068 0.248229 -0.035540
v -0.118716 0.395085 -0.030018
v -0.116225 0.394918 -0.030847
v -0.118656 0.395057 -0.029829
v -0.116148 0.394885 -0.030666
v -0.116251 0.337934 -0.033843
v -0.116191 0.330768 -0.034007
v -0.116233 0.334322 -0.033893
v -0.116266 0.345252 -0.033788
v -0.116242 0.341582 -0.033797
v -0.116341 0.352506 -0.033993
v -0.116086 0.337935 -0.033729
v -0.116328 0.348905 -0.033860
v -0.116065 0.359501 -0.034247
v -0.116259 0.356035 -0.034144
v -0.118899 0.240786 -0.035386
v -0.118957 0.240800 -0.035577
v -0.115930 0.244643 -0.036116
v -0.116024 0.330767 -0.033897
v -0.116068 0.334323 -0.033781
v -0.116100 0.345256 -0.033676
v -0.116078 0.341582 -0.033683
v -0.116174 0.323840 -0.034145
v -0.116175 0.327309 -0.034113
v -0.115837 0.244631 -0.035940
v -0.116176 0.352508 -0.033881
v -0.116163 0.348911 -0.033748
v -0.115904 0.359492 -0.034128
v -0.116095 0.356032 -0.034029
v -0.116011 0.316812 -0.034084
v -0.116114 0.320340 -0.034114
v -0.116005 0.323841 -0.034038
v -0.116007 0.327308 -0.034005
v -0.118625 0.237370 -0.035663
v -0.118685 0.237378 -0.035853
v -0.115654 0.241116 -0.036544
v -0.115841 0.316816 -0.033979
v -0.115944 0.320344 -0.034008
v -0.115560 0.241106 -0.036368
v -0.115431 0.366510 -0.034253
v -0.115769 0.362991 -0.034290
v -0.117500 0.392216 -0.036220
v -0.118799 0.394453 -0.035318
v -0.118699 0.394542 -0.035467
v -0.115473 0.395679 -0.033047
v -0.114891 0.392126 -0.034081
v -0.115653 0.395641 -0.032969
v -0.115274 0.366496 -0.034129
v -0.115612 0.362978 -0.034168
v -0.117896 0.398688 -0.029726
v -0.116047 0.398365 -0.030207
v -0.117386 0.392307 -0.036357
v -0.114726 0.392197 -0.034169
v -0.118247 0.233923 -0.035781
v -0.118311 0.233923 -0.035971
v -0.115389 0.237676 -0.036879
v -0.115796 0.309600 -0.034370
v -0.115920 0.313244 -0.034173
v -0.117856 0.398650 -0.029533
v -0.116003 0.398320 -0.030018
v -0.115294 0.237671 -0.036703
v -0.115625 0.309601 -0.034265
v -0.115749 0.313244 -0.034070
v -0.115439 0.302347 -0.034921
v -0.115613 0.305953 -0.034599
v -0.117780 0.230380 -0.035839
v -0.117847 0.230378 -0.036028
v -0.115114 0.234228 -0.037050
v -0.115017 0.234230 -0.036875
v -0.115269 0.302343 -0.034815
v -0.115443 0.305952 -0.034494
v -0.114937 0.373620 -0.034082
v -0.115163 0.370056 -0.034156
v -0.115264 0.295224 -0.035716
v -0.115341 0.298831 -0.035330
v -0.114781 0.373608 -0.033957
v -0.115007 0.370044 -0.034032
v -0.115055 0.288114 -0.036193
v -0.115180 0.291679 -0.035998
v -0.115096 0.295217 -0.035606
v -0.115173 0.298824 -0.035223
v -0.114891 0.288115 -0.036079
v -0.115014 0.291675 -0.035887
v -0.117136 0.402524 -0.029147
v -0.115350 0.401757 -0.029387
v -0.117292 0.226754 -0.036028
v -0.117360 0.226756 -0.036216
v -0.114783 0.230692 -0.037134
v -0.117110 0.402481 -0.028954
v -0.115328 0.401707 -0.029194
v -0.114785 0.280845 -0.036416
v -0.114895 0.284497 -0.036327
v -0.114684 0.230696 -0.036961
v -0.114625 0.280845 -0.036297
v -0.114733 0.284498 -0.036210
v -0.114743 0.273587 -0.036591
v -0.114778 0.277211 -0.036488
v -0.114329 0.380799 -0.034000
v -0.114676 0.377182 -0.034017
v -0.115972 0.389444 -0.037366
v -0.114585 0.273586 -0.036469
v -0.114619 0.277209 -0.036368
v -0.114168 0.380788 -0.033881
v -0.114520 0.377170 -0.033893
v -0.114431 0.266538 -0.037094
v -0.114621 0.270048 -0.036787
v -0.115823 0.389532 -0.037468
v -0.116807 0.223234 -0.036281
v -0.116875 0.223238 -0.036469
v -0.114359 0.227118 -0.037287
v -0.114257 0.227120 -0.037114
v -0.114279 0.266535 -0.036965
v -0.114465 0.270046 -0.036662
v -0.114080 0.259465 -0.037624
v -0.114246 0.263015 -0.037413
v -0.113932 0.259465 -0.037489
v -0.114096 0.263013 -0.037281
v -0.116292 0.219773 -0.036479
v -0.116364 0.219774 -0.036666
v -0.113890 0.223602 -0.037523
v -0.113786 0.223603 -0.037352
v -0.113923 0.252272 -0.037713
v -0.113989 0.255885 -0.037689
v -0.114171 0.388306 -0.033330
v -0.114076 0.384685 -0.033872
v -0.113774 0.252273 -0.037580
v -0.113841 0.255885 -0.037554
v -0.113995 0.388309 -0.033236
v -0.113909 0.384678 -0.033763
v -0.115725 0.216250 -0.036641
v -0.115802 0.216249 -0.036825
v -0.113486 0.220115 -0.037758
v -0.114183 0.348695 -0.038117
v -0.114076 0.355723 -0.038204
v -0.114216 0.352202 -0.038202
v -0.113379 0.220117 -0.037589
v -0.113790 0.334599 -0.038265
v -0.113963 0.341655 -0.038022
v -0.113870 0.338128 -0.038114
v -0.114062 0.345200 -0.038021
v -0.114505 0.391619 -0.032555
v -0.114937 0.395089 -0.031545
v -0.113706 0.327487 -0.038615
v -0.113725 0.331067 -0.038475
v -0.113558 0.245064 -0.038092
v -0.113798 0.248654 -0.037814
v -0.113675 0.320343 -0.038691
v -0.113689 0.323877 -0.038694
v -0.114003 0.348699 -0.038029
v -0.113900 0.355715 -0.038110
v -0.114038 0.352200 -0.038110
v -0.114321 0.391630 -0.032477
v -0.114759 0.395066 -0.031456
v -0.113783 0.341658 -0.037934
v -0.113613 0.334601 -0.038173
v -0.113691 0.338130 -0.038025
v -0.113883 0.345204 -0.037934
v -0.113410 0.245063 -0.037957
v -0.113649 0.248653 -0.037681
v -0.113547 0.362850 -0.037953
v -0.113831 0.359236 -0.038109
v -0.114945 0.398203 -0.030521
v -0.113531 0.327486 -0.038518
v -0.113549 0.331066 -0.038379
v -0.113605 0.313404 -0.038730
v -0.113648 0.316855 -0.038697
v -0.113500 0.320344 -0.038596
v -0.113514 0.323877 -0.038597
v -0.114854 0.398135 -0.030357
v -0.114494 0.386319 -0.038542
v -0.114098 0.388933 -0.035081
v -0.113434 0.385481 -0.035971
v -0.113371 0.362836 -0.037860
v -0.113655 0.359223 -0.038014
v -0.113428 0.313406 -0.038637
v -0.113472 0.316857 -0.038604
v -0.113912 0.388993 -0.035126
v -0.114313 0.386383 -0.038598
v -0.113237 0.385516 -0.035970
v -0.115164 0.212644 -0.036806
v -0.115245 0.212642 -0.036989
v -0.113124 0.216568 -0.037972
v -0.113394 0.306478 -0.039047
v -0.113514 0.309937 -0.038833
v -0.113015 0.216572 -0.037804
v -0.112909 0.237976 -0.038866
v -0.113229 0.241517 -0.038498
v -0.113991 0.398119 -0.030698
v -0.114133 0.398200 -0.030814
v -0.113216 0.306478 -0.038956
v -0.113337 0.309938 -0.038741
v -0.112764 0.237977 -0.038728
v -0.113083 0.241516 -0.038361
v -0.113118 0.299520 -0.039556
v -0.113233 0.303045 -0.039321
v -0.113177 0.370334 -0.037598
v -0.113318 0.366582 -0.037784
v -0.114491 0.401431 -0.029399
v -0.114468 0.401364 -0.029212
v -0.112962 0.292262 -0.040042
v -0.113035 0.295865 -0.039804
v -0.112941 0.299519 -0.039462
v -0.113055 0.303046 -0.039229
v -0.112994 0.370327 -0.037517
v -0.113139 0.366571 -0.037695
v -0.114665 0.209001 -0.037001
v -0.114744 0.209000 -0.037185
v -0.112734 0.212962 -0.038135
v -0.112623 0.212968 -0.037968
v -0.112377 0.230864 -0.039189
v -0.112642 0.234415 -0.039068
v -0.112787 0.292260 -0.039945
v -0.112860 0.295862 -0.039707
v -0.112701 0.285061 -0.040194
v -0.112845 0.288654 -0.040173
v -0.112230 0.230871 -0.039053
v -0.112497 0.234420 -0.038930
v -0.113057 0.377808 -0.037029
v -0.113107 0.374046 -0.037354
v -0.112526 0.285067 -0.040098
v -0.112669 0.288657 -0.040076
v -0.112537 0.277832 -0.040182
v -0.112583 0.281431 -0.040191
v -0.112866 0.377807 -0.036970
v -0.112921 0.374041 -0.037282
v -0.114251 0.205373 -0.037238
v -0.114324 0.205376 -0.037424
v -0.112273 0.209334 -0.038253
v -0.112299 0.270767 -0.040311
v -0.112466 0.274303 -0.040232
v -0.112163 0.209341 -0.038086
v -0.112365 0.277836 -0.040080
v -0.112409 0.281435 -0.040093
v -0.112135 0.270774 -0.040197
v -0.112297 0.274309 -0.040125
v -0.113320 0.382711 -0.039600
v -0.114006 0.401252 -0.029381
v -0.113976 0.401174 -0.029199
v -0.111963 0.263600 -0.040465
v -0.112105 0.267218 -0.040393
v -0.111654 0.223789 -0.039599
v -0.112035 0.227335 -0.039364
v -0.113895 0.201794 -0.037494
v -0.113964 0.201800 -0.037681
v -0.111776 0.205726 -0.038406
v -0.113091 0.381607 -0.036606
v -0.113123 0.382743 -0.039610
v -0.111807 0.263603 -0.040340
v -0.111945 0.267223 -0.040273
v -0.111668 0.205730 -0.038238
v -0.111502 0.223796 -0.039469
v -0.111886 0.227342 -0.039231
v -0.112000 0.352147 -0.042408
v -0.111995 0.345248 -0.042659
v -0.112047 0.348657 -0.042552
v -0.112894 0.381618 -0.036568
v -0.111858 0.256217 -0.040550
v -0.111872 0.259920 -0.040527
v -0.111863 0.359461 -0.041931
v -0.111911 0.355747 -0.042221
v -0.111822 0.352143 -0.042316
v -0.111813 0.345252 -0.042577
v -0.111867 0.348659 -0.042465
v -0.113549 0.198259 -0.037749
v -0.113618 0.198266 -0.037937
v -0.111369 0.202145 -0.038622
v -0.111805 0.338516 -0.042825
v -0.111930 0.341921 -0.042780
v -0.111847 0.249036 -0.040674
v -0.111894 0.252589 -0.040577
v -0.111703 0.256216 -0.040424
v -0.111717 0.259922 -0.040401
v -0.111264 0.202145 -0.038452
v -0.111685 0.359449 -0.041841
v -0.111734 0.355737 -0.042127
v -0.111689 0.249036 -0.040551
v -0.111738 0.252588 -0.040452
v -0.111427 0.331457 -0.042778
v -0.111593 0.335061 -0.042754
v -0.111623 0.338522 -0.042743
v -0.111747 0.341925 -0.042700
v -0.111209 0.323995 -0.043013
v -0.111305 0.327709 -0.042906
v -0.111161 0.316876 -0.043326
v -0.111170 0.320407 -0.043162
v -0.113178 0.194760 -0.037994
v -0.113249 0.194766 -0.038181
v -0.111026 0.198591 -0.038870
v -0.111016 0.310170 -0.043413
v -0.111089 0.313438 -0.043358
v -0.111250 0.331458 -0.042685
v -0.111413 0.335065 -0.042666
v -0.110922 0.198589 -0.038698
v -0.111309 0.241937 -0.041182
v -0.111629 0.245510 -0.040887
v -0.111908 0.366899 -0.041286
v -0.111859 0.363161 -0.041586
v -0.111035 0.323995 -0.042914
v -0.111131 0.327709 -0.042809
v -0.110985 0.316876 -0.043230
v -0.110995 0.320405 -0.043064
v -0.111052 0.216691 -0.039916
v -0.111325 0.220233 -0.039792
v -0.110839 0.310170 -0.043319
v -0.110914 0.313440 -0.043263
v -0.111152 0.241940 -0.041059
v -0.111471 0.245513 -0.040764
v -0.110952 0.303383 -0.043819
v -0.111028 0.306867 -0.043660
v -0.110896 0.216698 -0.039792
v -0.111171 0.220239 -0.039665
v -0.111723 0.366892 -0.041212
v -0.111678 0.363150 -0.041503
v -0.112615 0.378674 -0.040383
v -0.112771 0.191287 -0.038209
v -0.112845 0.191290 -0.038394
v -0.110721 0.195061 -0.039115
v -0.110775 0.303385 -0.043727
v -0.110851 0.306866 -0.043568
v -0.110619 0.195059 -0.038943
v -0.112246 0.374630 -0.040818
v -0.112030 0.370727 -0.041058
v -0.110668 0.296248 -0.043858
v -0.110771 0.299698 -0.043808
v -0.112417 0.378685 -0.040358
v -0.112051 0.374633 -0.040771
v -0.111840 0.370725 -0.040996
v -0.110644 0.288942 -0.044288
v -0.110689 0.292635 -0.044100
v -0.110494 0.296245 -0.043759
v -0.110596 0.299701 -0.043712
v -0.110705 0.234576 -0.041695
v -0.110984 0.238258 -0.041472
v -0.112311 0.187777 -0.038362
v -0.112389 0.187775 -0.038546
v -0.110454 0.191562 -0.039352
v -0.110468 0.288945 -0.044194
v -0.110514 0.292632 -0.044002
v -0.110352 0.191562 -0.039180
v -0.110547 0.234581 -0.041573
v -0.110826 0.238261 -0.041349
v -0.110487 0.209559 -0.039991
v -0.110784 0.213131 -0.039984
v -0.110445 0.281713 -0.044235
v -0.110528 0.285307 -0.044332
v -0.110328 0.209573 -0.039871
v -0.110627 0.213142 -0.039861
v -0.110287 0.274591 -0.043689
v -0.110408 0.278102 -0.043971
v -0.110269 0.281719 -0.044141
v -0.110351 0.285312 -0.044238
v -0.111817 0.184196 -0.038491
v -0.111894 0.184192 -0.038676
v -0.110205 0.188024 -0.039499
v -0.110140 0.227456 -0.042068
v -0.110442 0.230995 -0.041866
v -0.110118 0.274601 -0.043581
v -0.110234 0.278109 -0.043872
v -0.110103 0.188029 -0.039327
v -0.109724 0.267473 -0.043355
v -0.110001 0.271079 -0.043491
v -0.109979 0.227463 -0.041950
v -0.110282 0.231002 -0.041747
v -0.109568 0.267482 -0.043231
v -0.109839 0.271091 -0.043375
v -0.109512 0.260021 -0.043177
v -0.109571 0.263759 -0.043250
v -0.111324 0.180573 -0.038677
v -0.111395 0.180571 -0.038863
v -0.109844 0.184447 -0.039557
v -0.109493 0.252740 -0.043253
v -0.109499 0.256316 -0.043170
v -0.109321 0.245821 -0.043558
v -0.109448 0.249284 -0.043395
v -0.109744 0.184454 -0.039385
v -0.109363 0.260022 -0.043044
v -0.109419 0.263764 -0.043120
v -0.109849 0.202400 -0.040067
v -0.110167 0.205974 -0.039989
v -0.109344 0.252737 -0.043120
v -0.109350 0.256315 -0.043036
v -0.109689 0.202410 -0.039947
v -0.110007 0.205986 -0.039870
v -0.109170 0.245822 -0.043427
v -0.109298 0.249283 -0.043263
v -0.109590 0.220234 -0.042595
v -0.109827 0.223859 -0.042328
v -0.109424 0.220237 -0.042484
v -0.109664 0.223864 -0.042212
v -0.110813 0.176971 -0.038901
v -0.110880 0.176973 -0.039090
v -0.109435 0.180856 -0.039605
v -0.109337 0.180862 -0.039431
v -0.108911 0.238534 -0.043957
v -0.109128 0.242235 -0.043730
v -0.108757 0.238536 -0.043830
v -0.108976 0.242238 -0.043600
v -0.109206 0.213159 -0.042834
v -0.109393 0.216663 -0.042768
v -0.109238 0.195280 -0.040389
v -0.109542 0.198833 -0.040207
v -0.109082 0.195286 -0.040265
v -0.109384 0.198841 -0.040085
v -0.109034 0.213167 -0.042733
v -0.109224 0.216668 -0.042662
v -0.110279 0.173452 -0.039153
v -0.110345 0.173455 -0.039342
v -0.108988 0.177285 -0.039738
v -0.108893 0.177288 -0.039562
v -0.108443 0.231221 -0.044495
v -0.108688 0.234836 -0.044243
v -0.108285 0.231226 -0.044373
v -0.108532 0.234839 -0.044119
v -0.108806 0.206165 -0.042680
v -0.109007 0.209676 -0.042794
v -0.108749 0.188168 -0.040645
v -0.108983 0.191731 -0.040557
v -0.109743 0.170094 -0.039376
v -0.109814 0.170090 -0.039563
v -0.108469 0.173776 -0.039989
v -0.108597 0.188177 -0.040515
v -0.108829 0.191738 -0.040429
v -0.108630 0.206178 -0.042585
v -0.108833 0.209688 -0.042696
v -0.108375 0.173778 -0.039812
v -0.107837 0.224110 -0.044921
v -0.108149 0.227676 -0.044679
v -0.107677 0.224112 -0.044801
v -0.107990 0.227682 -0.044558
v -0.108225 0.181032 -0.040565
v -0.108498 0.184604 -0.040623
v -0.108390 0.199049 -0.042513
v -0.108610 0.202620 -0.042566
v -0.109063 0.166897 -0.039333
v -0.109149 0.166885 -0.039513
v -0.107937 0.170340 -0.040229
v -0.107840 0.170346 -0.040055
v -0.108075 0.181045 -0.040433
v -0.108348 0.184617 -0.040492
v -0.108212 0.199060 -0.042422
v -0.108434 0.202631 -0.042473
v -0.107429 0.216870 -0.045754
v -0.107597 0.220485 -0.045328
v -0.107262 0.216871 -0.045644
v -0.107434 0.220484 -0.045212
v -0.107887 0.191867 -0.042571
v -0.108143 0.195469 -0.042518
v -0.107114 0.209716 -0.046042
v -0.107274 0.213274 -0.046014
v -0.108842 0.163325 -0.039107
v -0.108941 0.163308 -0.039280
v -0.107553 0.166924 -0.040324
v -0.107707 0.191877 -0.042484
v -0.107963 0.195479 -0.042430
v -0.107448 0.166935 -0.040154
v -0.106942 0.209726 -0.045941
v -0.107104 0.213280 -0.045909
v -0.107400 0.173986 -0.040787
v -0.107856 0.177484 -0.040618
v -0.108377 0.159936 -0.038936
v -0.108483 0.159914 -0.039104
v -0.107200 0.163463 -0.040303
v -0.107253 0.173999 -0.040651
v -0.107708 0.177497 -0.040484
v -0.107086 0.163479 -0.040139
v -0.106844 0.202697 -0.045787
v -0.106963 0.206215 -0.045925
v -0.107411 0.184761 -0.042526
v -0.107626 0.188296 -0.042622
v -0.106669 0.202707 -0.045692
v -0.106790 0.206226 -0.045826
v -0.107232 0.184776 -0.042439
v -0.107446 0.188308 -0.042536
v -0.107932 0.156423 -0.038657
v -0.108047 0.156397 -0.038819
v -0.106784 0.159968 -0.040189
v -0.106678 0.195577 -0.045687
v -0.106756 0.199162 -0.045710
v -0.106661 0.159989 -0.040033
v -0.106925 0.177687 -0.042215
v -0.107209 0.181230 -0.042345
v -0.106497 0.195585 -0.045603
v -0.106578 0.199171 -0.045619
v -0.106749 0.177706 -0.042122
v -0.107031 0.181247 -0.042256
v -0.107398 0.152999 -0.038397
v -0.107522 0.152971 -0.038551
v -0.106395 0.156452 -0.040000
v -0.106262 0.156475 -0.039853
v -0.106388 0.166940 -0.041192
v -0.106863 0.170479 -0.041037
v -0.106451 0.188366 -0.045601
v -0.106584 0.191958 -0.045660
v -0.106238 0.166953 -0.041060
v -0.106716 0.170492 -0.040902
v -0.106266 0.188378 -0.045527
v -0.106400 0.191967 -0.045581
v -0.106862 0.149515 -0.038094
v -0.106997 0.149484 -0.038238
v -0.106045 0.152931 -0.039738
v -0.105991 0.181309 -0.045191
v -0.106256 0.184819 -0.045460
v -0.105900 0.152956 -0.039602
v -0.106523 0.174161 -0.042190
v -0.106030 0.170574 -0.042332
v -0.106348 0.174180 -0.042097
v -0.105852 0.170590 -0.042243
v -0.105808 0.181327 -0.045113
v -0.106071 0.184834 -0.045385
v -0.105705 0.159817 -0.041193
v -0.106005 0.163380 -0.041262
v -0.105540 0.159834 -0.041080
v -0.105848 0.163395 -0.041139
v -0.106337 0.146078 -0.037708
v -0.106485 0.146045 -0.037838
v -0.105742 0.149419 -0.039389
v -0.105426 0.174263 -0.044658
v -0.105708 0.177833 -0.044900
v -0.105587 0.149445 -0.039266
v -0.105244 0.174282 -0.044578
v -0.105527 0.177853 -0.044819
v -0.105876 0.142629 -0.037217
v -0.106038 0.142595 -0.037329
v -0.105458 0.145903 -0.038978
v -0.105298 0.152712 -0.040751
v -0.105486 0.156265 -0.041002
v -0.105584 0.166901 -0.042570
v -0.105295 0.163250 -0.042679
v -0.105291 0.145930 -0.038871
v -0.105120 0.152730 -0.040662
v -0.105315 0.156282 -0.040900
v -0.105105 0.163262 -0.042616
v -0.105400 0.166914 -0.042492
v -0.105396 0.139167 -0.036605
v -0.105572 0.139131 -0.036694
v -0.105179 0.142382 -0.038501
v -0.105059 0.166845 -0.044431
v -0.105199 0.170598 -0.044509
v -0.105003 0.142411 -0.038411
v -0.104867 0.166856 -0.044376
v -0.105013 0.170614 -0.044439
v -0.104901 0.145601 -0.040124
v -0.105102 0.149158 -0.040462
v -0.104981 0.156045 -0.042324
v -0.105110 0.159632 -0.042576
v -0.104711 0.145618 -0.040063
v -0.104918 0.149175 -0.040387
v -0.104882 0.135701 -0.035915
v -0.104886 0.138858 -0.037953
v -0.105068 0.135665 -0.035979
v -0.104785 0.156055 -0.042282
v -0.104917 0.159643 -0.042526
v -0.104701 0.138887 -0.037884
v -0.104762 0.148869 -0.041716
v -0.104875 0.152461 -0.042020
v -0.104941 0.159466 -0.044151
v -0.104990 0.163133 -0.044340
v -0.104694 0.142042 -0.039732
v -0.104491 0.138493 -0.039286
v -0.104564 0.148878 -0.041688
v -0.104679 0.152471 -0.041984
v -0.104742 0.159473 -0.044128
v -0.104793 0.163142 -0.044303
v -0.104326 0.132251 -0.035178
v -0.104553 0.135344 -0.037337
v -0.104519 0.132216 -0.035217
v -0.104294 0.138510 -0.039254
v -0.104501 0.142059 -0.039685
v -0.104877 0.155837 -0.043841
v -0.104796 0.152233 -0.043468
v -0.104636 0.145270 -0.041394
v -0.104497 0.141673 -0.041054
v -0.104361 0.135373 -0.037289
v -0.104677 0.155844 -0.043827
v -0.104708 0.148629 -0.043088
v -0.104596 0.152239 -0.043458
v -0.104617 0.145007 -0.042730
v -0.104437 0.145279 -0.041375
v -0.104297 0.141682 -0.041044
v -0.104508 0.148635 -0.043082
v -0.104523 0.141374 -0.042425
v -0.104417 0.145014 -0.042729
v -0.104171 0.131853 -0.036657
v -0.104261 0.134960 -0.038786
v -0.104002 0.131442 -0.038224
v -0.103722 0.128845 -0.034417
v -0.103918 0.128810 -0.034431
v -0.104419 0.137752 -0.042194
v -0.104323 0.141380 -0.042430
v -0.104358 0.138100 -0.040710
v -0.104206 0.134538 -0.040354
v -0.104334 0.134123 -0.042003
v -0.104219 0.137758 -0.042205
v -0.104365 0.101289 -0.040590
v -0.104290 0.104519 -0.040258
v -0.104106 0.104512 -0.040335
v -0.102560 0.102620 -0.035893
v -0.104180 0.101283 -0.040667
v -0.103975 0.131882 -0.036630
v -0.104062 0.134977 -0.038768
v -0.103802 0.131458 -0.038222
v -0.103919 0.107920 -0.040475
v -0.104103 0.107927 -0.040397
v -0.102488 0.106443 -0.036458
v -0.104315 0.123010 -0.041458
v -0.104307 0.126760 -0.041644
v -0.104110 0.126761 -0.041681
v -0.103913 0.127393 -0.039525
v -0.104270 0.119209 -0.041260
v -0.104121 0.123011 -0.041506
v -0.103475 0.120237 -0.038518
v -0.103732 0.123812 -0.039035
v -0.104297 0.130464 -0.041825
v -0.104099 0.130466 -0.041853
v -0.104135 0.134127 -0.042021
v -0.104057 0.130971 -0.039964
v -0.104158 0.138109 -0.040708
v -0.104007 0.134546 -0.040361
v -0.104186 0.115351 -0.041026
v -0.104078 0.119212 -0.041318
v -0.102376 0.102612 -0.035971
v -0.104094 0.111529 -0.040726
v -0.103998 0.115354 -0.041092
v -0.102803 0.113218 -0.037342
v -0.103129 0.116686 -0.037931
v -0.103743 0.128397 -0.035917
v -0.103715 0.127398 -0.039555
v -0.103282 0.120245 -0.038569
v -0.103536 0.123818 -0.039076
v -0.102304 0.106436 -0.036536
v -0.103907 0.111529 -0.040798
v -0.102587 0.109812 -0.036953
v -0.103858 0.130977 -0.039982
v -0.102615 0.113223 -0.037410
v -0.102938 0.116694 -0.037991
v -0.103716 0.127942 -0.037592
v -0.103545 0.128425 -0.035911
v -0.102401 0.109812 -0.037027
v -0.103380 0.124474 -0.036897
v -0.103257 0.125480 -0.033636
v -0.103060 0.125514 -0.033647
v -0.103517 0.127957 -0.037605
v -0.103257 0.125000 -0.035137
v -0.103182 0.124490 -0.036925
v -0.103059 0.125027 -0.035153
v -0.102987 0.121053 -0.036194
v -0.102490 0.117732 -0.035409
v -0.102717 0.121685 -0.034382
v -0.102792 0.121070 -0.036235
v -0.102298 0.117749 -0.035463
v -0.102328 0.122306 -0.032876
v -0.102522 0.122274 -0.032841
v -0.102522 0.121712 -0.034419
v -0.101508 0.111402 -0.033933
v -0.101980 0.114554 -0.034583
v -0.102085 0.118525 -0.033582
v -0.101323 0.111411 -0.034008
v -0.101792 0.114568 -0.034648
v -0.101066 0.108136 -0.033194
v -0.100769 0.104453 -0.032283
v -0.101895 0.118551 -0.033638
v -0.101534 0.119254 -0.032099
v -0.101723 0.119224 -0.032041
v -0.101411 0.115498 -0.032741
v -0.100884 0.108136 -0.033279
v -0.100589 0.104448 -0.032371
v -0.101226 0.115521 -0.032814
v -0.100696 0.112472 -0.031897
v -0.100517 0.112487 -0.031984
v -0.100671 0.116305 -0.031275
v -0.100853 0.116279 -0.031197
v -0.099908 0.109356 -0.030732
v -0.099896 0.113241 -0.030263
v -0.099733 0.109363 -0.030829
v -0.099721 0.113259 -0.030358
v -0.099145 0.106198 -0.029738
v -0.098971 0.106200 -0.029837
v -0.098952 0.110201 -0.029221
v -0.098781 0.110210 -0.029323
v -0.098325 0.107123 -0.028181
v -0.098153 0.107128 -0.028283
usemtl Anterior_intermuscular_septum_of_leg_rMaterial0
f 1 2 3
f 2 1 4
f 2 5 6
f 5 2 7
f 2 6 3
f 2 4 7
f 8 1 9
f 1 8 10
f 1 3 9
f 1 10 4
f 11 8 12
f 8 11 13
f 8 9 12
f 8 13 10
f 5 14 6
f 5 15 14
f 15 5 16
f 5 7 16
f 11 12 17
f 18 11 17
f 11 18 19
f 11 19 13
f 3 20 9
f 6 21 3
f 3 21 20
f 9 22 12
f 9 20 22
f 12 23 17
f 12 22 23
f 18 17 24
f 17 25 24
f 17 23 25
f 14 26 6
f 6 26 21
f 15 27 28
f 27 15 29
f 15 28 14
f 15 16 29
f 30 18 24
f 18 30 31
f 18 31 19
f 30 24 32
f 24 33 32
f 24 25 33
f 27 34 35
f 34 27 36
f 27 35 28
f 27 29 36
f 28 37 14
f 14 37 26
f 34 38 35
f 34 39 38
f 39 34 40
f 34 36 40
f 41 30 32
f 30 41 42
f 30 42 31
f 35 43 28
f 28 43 37
f 41 32 44
f 32 45 44
f 32 33 45
f 38 46 35
f 35 46 43
f 39 47 38
f 39 48 47
f 48 39 49
f 39 40 49
f 50 41 44
f 41 50 51
f 41 51 42
f 47 52 38
f 38 52 46
f 48 53 54
f 53 48 55
f 48 54 47
f 48 49 55
f 50 44 56
f 44 57 56
f 44 45 57
f 58 50 56
f 50 58 59
f 50 59 51
f 53 60 61
f 60 53 62
f 53 61 54
f 53 55 62
f 54 63 47
f 47 63 52
f 60 64 61
f 60 65 64
f 65 60 66
f 60 62 66
f 58 56 67
f 56 68 67
f 56 57 68
f 69 58 67
f 58 69 70
f 58 70 59
f 61 71 54
f 54 71 63
f 64 72 61
f 61 72 71
f 69 67 73
f 67 74 73
f 67 68 74
f 65 75 64
f 65 76 75
f 76 65 77
f 65 66 77
f 78 69 73
f 69 78 79
f 69 79 70
f 75 80 64
f 64 80 72
f 76 81 82
f 81 76 83
f 76 82 75
f 76 77 83
f 78 73 84
f 73 85 84
f 73 74 85
f 81 86 87
f 86 81 88
f 81 87 82
f 81 83 88
f 86 89 90
f 89 86 91
f 86 90 87
f 86 88 91
f 82 92 75
f 75 92 80
f 89 93 94
f 93 89 95
f 89 94 90
f 89 91 95
f 96 78 84
f 78 96 97
f 78 97 79
f 87 98 82
f 82 98 92
f 93 99 94
f 93 100 99
f 100 93 101
f 93 95 101
f 90 102 87
f 87 102 98
f 96 84 103
f 84 104 103
f 84 85 104
f 94 105 90
f 90 105 102
f 99 106 94
f 94 106 105
f 100 107 99
f 100 108 107
f 108 100 109
f 100 101 109
f 107 110 99
f 99 110 106
f 111 96 103
f 96 111 112
f 96 112 97
f 108 113 107
f 108 114 113
f 114 108 115
f 108 109 115
f 111 103 116
f 103 117 116
f 103 104 117
f 113 118 107
f 107 118 110
f 114 119 113
f 114 120 119
f 120 114 121
f 114 115 121
f 119 122 113
f 113 122 118
f 123 111 116
f 111 123 124
f 111 124 112
f 120 125 119
f 120 126 125
f 126 120 127
f 120 121 127
f 123 116 128
f 116 129 128
f 116 117 129
f 125 130 119
f 119 130 122
f 126 131 125
f 126 132 131
f 132 126 133
f 126 127 133
f 131 134 125
f 125 134 130
f 135 123 128
f 123 135 136
f 123 136 124
f 135 128 137
f 128 138 137
f 128 129 138
f 132 139 131
f 132 140 139
f 140 132 141
f 132 133 141
f 139 142 131
f 131 142 134
f 140 143 139
f 140 144 143
f 144 140 145
f 140 141 145
f 143 146 139
f 139 146 142
f 144 147 143
f 144 148 147
f 148 144 149
f 144 145 149
f 150 135 137
f 135 150 151
f 135 151 136
f 147 152 143
f 143 152 146
f 150 137 153
f 137 154 153
f 137 138 154
f 148 155 147
f 148 156 155
f 156 148 157
f 148 149 157
f 155 158 147
f 147 158 152
f 156 159 155
f 156 160 159
f 160 156 161
f 156 157 161
f 159 162 155
f 155 162 158
f 160 163 159
f 160 164 163
f 164 160 165
f 160 161 165
f 163 166 159
f 159 166 162
f 167 150 153
f 150 167 168
f 150 168 151
f 167 153 169
f 153 170 169
f 153 154 170
f 171 16 7
f 171 7 4
f 172 29 16
f 171 173 16
f 172 16 173
f 174 4 10
f 171 4 175
f 174 175 4
f 174 10 13
f 176 13 19
f 176 19 31
f 177 21 26
f 177 20 21
f 176 178 13
f 174 13 178
f 172 36 29
f 179 31 42
f 176 31 180
f 179 180 31
f 164 181 163
f 164 182 181
f 182 164 183
f 164 165 183
f 184 26 37
f 177 26 185
f 184 185 26
f 186 22 20
f 177 187 20
f 186 20 187
f 188 40 36
f 172 189 36
f 188 36 189
f 181 190 163
f 163 190 166
f 188 49 40
f 186 23 22
f 191 25 23
f 191 33 25
f 191 23 192
f 186 192 23
f 184 37 43
f 193 45 33
f 191 194 33
f 193 33 194
f 179 42 51
f 195 55 49
f 188 196 49
f 195 49 196
f 197 43 46
f 184 43 198
f 197 198 43
f 197 46 52
f 182 199 181
f 182 200 199
f 200 182 201
f 182 183 201
f 193 57 45
f 202 52 63
f 197 52 203
f 202 203 52
f 199 204 181
f 181 204 190
f 195 62 55
f 205 51 59
f 179 51 206
f 205 206 51
f 207 208 209
f 208 210 209
f 211 208 207
f 208 212 210
f 211 212 208
f 202 63 71
f 213 68 57
f 193 214 57
f 213 57 214
f 215 167 169
f 167 215 216
f 167 216 168
f 207 209 217
f 218 217 209
f 218 209 210
f 200 219 199
f 200 220 219
f 220 200 221
f 200 201 221
f 222 66 62
f 195 223 62
f 222 62 223
f 215 169 224
f 169 225 224
f 169 170 225
f 219 226 199
f 199 226 204
f 222 77 66
f 227 71 72
f 202 71 228
f 227 228 71
f 205 59 70
f 213 74 68
f 227 72 80
f 229 83 77
f 222 230 77
f 229 77 230
f 220 231 219
f 220 232 231
f 232 220 233
f 220 221 233
f 229 88 83
f 231 234 219
f 219 234 226
f 235 80 92
f 227 80 236
f 235 236 80
f 237 70 79
f 205 70 238
f 237 238 70
f 239 91 88
f 229 240 88
f 239 88 240
f 239 95 91
f 235 92 98
f 241 85 74
f 213 242 74
f 241 74 242
f 243 101 95
f 239 244 95
f 243 95 244
f 245 98 102
f 235 98 246
f 245 246 98
f 245 102 105
f 243 109 101
f 247 105 106
f 245 105 248
f 247 248 105
f 237 79 97
f 249 215 224
f 215 249 250
f 215 250 216
f 232 251 231
f 232 252 251
f 252 232 253
f 232 233 253
f 249 224 254
f 224 255 254
f 224 225 255
f 256 115 109
f 243 257 109
f 256 109 257
f 247 106 110
f 241 104 85
f 251 258 231
f 231 258 234
f 256 121 115
f 259 110 118
f 247 110 260
f 259 260 110
f 261 127 121
f 256 262 121
f 261 121 262
f 259 118 122
f 263 97 112
f 237 97 264
f 263 264 97
f 265 207 217
f 211 207 265
f 261 133 127
f 266 122 130
f 259 122 267
f 266 267 122
f 268 117 104
f 241 269 104
f 268 104 269
f 270 141 133
f 261 271 133
f 270 133 271
f 265 217 272
f 218 272 217
f 252 273 251
f 252 274 273
f 274 252 275
f 252 253 275
f 266 130 134
f 273 276 251
f 251 276 258
f 277 134 142
f 266 134 278
f 277 278 134
f 270 145 141
f 250 249 254
f 277 142 146
f 250 254 255
f 263 112 124
f 279 149 145
f 270 280 145
f 279 145 280
f 268 129 117
f 281 146 152
f 277 146 282
f 281 282 146
f 274 283 273
f 274 284 283
f 284 274 285
f 274 275 285
f 279 157 149
f 283 286 273
f 273 286 276
f 281 152 158
f 287 161 157
f 279 288 157
f 287 157 288
f 289 124 136
f 263 124 290
f 289 290 124
f 291 158 162
f 281 158 292
f 291 292 158
f 293 138 129
f 268 294 129
f 293 129 294
f 284 295 283
f 284 296 295
f 296 284 297
f 284 285 297
f 287 165 161
f 176 298 178
f 299 176 180
f 176 300 298
f 299 300 176
f 298 174 178
f 295 301 283
f 283 301 286
f 289 136 151
f 291 162 166
f 171 302 173
f 302 172 173
f 303 171 175
f 303 304 171
f 171 304 302
f 174 303 175
f 298 305 174
f 174 305 303
f 179 299 180
f 306 151 168
f 307 168 216
f 306 168 307
f 289 151 306
f 172 308 189
f 302 309 172
f 172 309 308
f 293 154 138
f 310 183 165
f 287 311 165
f 310 165 311
f 308 188 189
f 188 312 196
f 308 313 188
f 188 313 312
f 191 192 314
f 314 192 186
f 315 194 191
f 191 314 316
f 315 191 316
f 317 170 154
f 318 225 170
f 317 318 170
f 312 195 196
f 293 317 154
f 319 187 177
f 177 185 320
f 319 177 321
f 177 320 321
f 186 187 319
f 314 186 322
f 186 319 322
f 193 194 315
f 323 166 190
f 291 166 324
f 323 324 166
f 320 185 184
f 325 179 206
f 179 326 299
f 325 326 179
f 250 327 216
f 307 216 327
f 184 198 328
f 320 184 329
f 184 328 329
f 195 330 223
f 312 331 195
f 195 331 330
f 328 198 197
f 197 203 332
f 328 197 333
f 197 332 333
f 255 225 334
f 318 334 225
f 335 265 272
f 211 265 336
f 337 265 335
f 337 336 265
f 332 203 202
f 310 201 183
f 330 222 223
f 338 214 193
f 193 315 339
f 338 193 339
f 323 190 204
f 202 228 340
f 332 202 341
f 202 340 341
f 218 342 272
f 335 272 343
f 344 343 272
f 344 272 342
f 296 345 295
f 296 346 345
f 346 296 347
f 296 297 347
f 222 348 230
f 330 349 222
f 222 349 348
f 205 325 206
f 340 228 227
f 345 350 295
f 295 350 301
f 351 221 201
f 310 352 201
f 351 201 352
f 212 353 210
f 212 306 307
f 354 212 307
f 212 211 306
f 212 354 353
f 227 236 355
f 340 227 356
f 227 355 356
f 348 229 230
f 213 214 338
f 357 204 226
f 323 204 358
f 357 358 204
f 210 318 317
f 353 318 210
f 210 317 218
f 229 359 240
f 348 360 229
f 229 360 359
f 355 236 235
f 361 205 238
f 205 362 325
f 361 362 205
f 351 233 221
f 359 239 240
f 363 250 255
f 250 363 327
f 255 334 364
f 363 255 364
f 357 226 234
f 239 365 244
f 359 366 239
f 239 366 365
f 235 246 367
f 355 235 368
f 235 367 368
f 369 242 213
f 213 338 370
f 369 213 370
f 346 371 345
f 346 372 371
f 372 346 373
f 346 347 373
f 371 374 345
f 345 374 350
f 365 243 244
f 367 246 245
f 237 361 238
f 375 253 233
f 351 376 233
f 375 233 376
f 245 248 377
f 367 245 378
f 245 377 378
f 243 379 257
f 365 380 243
f 243 380 379
f 381 234 258
f 357 234 382
f 381 382 234
f 377 248 247
f 241 242 369
f 383 237 264
f 237 384 361
f 383 384 237
f 354 307 327
f 363 354 327
f 379 256 257
f 247 260 385
f 377 247 386
f 247 385 386
f 211 289 306
f 211 336 289
f 353 334 318
f 364 334 353
f 375 275 253
f 256 387 262
f 387 261 262
f 379 388 256
f 256 388 387
f 389 269 241
f 241 369 390
f 389 241 390
f 372 391 371
f 372 392 391
f 392 372 393
f 372 373 393
f 261 394 271
f 387 395 261
f 261 395 394
f 385 260 259
f 218 317 293
f 218 293 342
f 381 258 276
f 263 383 264
f 391 396 371
f 371 396 374
f 394 270 271
f 259 267 397
f 397 267 266
f 385 259 398
f 259 397 398
f 266 278 399
f 397 266 400
f 266 399 400
f 268 269 389
f 401 335 343
f 337 335 401
f 402 363 364
f 363 402 354
f 399 278 277
f 364 353 403
f 402 364 403
f 270 404 280
f 394 405 270
f 270 405 404
f 406 285 275
f 375 407 275
f 406 275 407
f 392 408 391
f 392 409 408
f 409 392 410
f 392 393 410
f 337 263 290
f 337 411 263
f 263 411 383
f 401 343 412
f 344 412 343
f 277 282 413
f 399 277 414
f 277 413 414
f 408 415 391
f 391 415 396
f 416 276 286
f 381 276 417
f 416 417 276
f 404 279 280
f 298 300 418
f 299 418 300
f 298 419 305
f 298 420 419
f 298 418 420
f 344 294 268
f 344 268 421
f 268 389 421
f 289 336 337
f 289 337 290
f 354 403 353
f 354 402 403
f 413 282 281
f 279 422 288
f 404 423 279
f 279 423 422
f 299 326 424
f 299 425 418
f 299 424 425
f 303 305 419
f 314 426 316
f 315 316 426
f 422 287 288
f 314 322 427
f 314 427 428
f 314 428 426
f 293 294 344
f 293 344 342
f 409 429 408
f 409 430 429
f 430 409 431
f 409 410 431
f 303 432 304
f 303 419 433
f 303 433 432
f 287 434 311
f 422 435 287
f 287 435 434
f 281 292 436
f 413 281 437
f 281 436 437
f 429 438 408
f 408 438 415
f 406 297 285
f 319 427 322
f 315 439 339
f 315 426 440
f 315 440 439
f 302 304 432
f 436 292 291
f 325 424 326
f 416 286 301
f 434 310 311
f 291 324 441
f 436 291 442
f 291 441 442
f 302 443 309
f 302 432 444
f 302 444 443
f 319 321 445
f 319 446 427
f 319 445 446
f 308 309 443
f 308 447 313
f 308 443 448
f 308 448 447
f 312 313 447
f 320 445 321
f 312 449 331
f 312 447 450
f 312 450 449
f 441 324 323
f 330 331 449
f 338 339 439
f 430 451 429
f 430 452 451
f 452 430 453
f 430 431 453
f 330 454 349
f 330 449 455
f 330 455 454
f 320 329 456
f 320 457 445
f 320 456 457
f 451 458 429
f 429 458 438
f 310 459 352
f 434 460 310
f 310 460 459
f 328 456 329
f 325 362 461
f 325 461 462
f 325 462 424
f 328 333 463
f 328 464 456
f 328 463 464
f 348 349 454
f 332 463 333
f 332 341 465
f 332 466 463
f 332 465 466
f 467 347 297
f 406 468 297
f 467 297 468
f 340 465 341
f 340 356 469
f 340 470 465
f 340 469 470
f 337 401 411
f 323 358 471
f 441 323 472
f 323 471 472
f 348 473 360
f 348 454 474
f 348 474 473
f 475 301 350
f 416 301 476
f 475 476 301
f 338 477 370
f 338 478 477
f 338 439 478
f 355 469 356
f 361 461 362
f 479 401 412
f 383 411 401
f 383 401 479
f 452 480 451
f 452 481 480
f 481 452 482
f 452 453 482
f 459 351 352
f 359 360 473
f 344 421 412
f 355 368 483
f 355 484 469
f 355 483 484
f 480 485 451
f 451 485 458
f 361 384 486
f 361 486 487
f 361 487 461
f 369 370 477
f 467 373 347
f 359 488 366
f 359 473 489
f 359 489 488
f 389 412 421
f 389 490 412
f 479 412 490
f 383 486 384
f 471 358 357
f 367 483 368
f 383 479 486
f 365 366 488
f 475 350 374
f 369 491 390
f 369 492 491
f 369 477 492
f 365 493 380
f 365 488 494
f 365 494 493
f 367 378 495
f 367 496 483
f 367 495 496
f 389 390 491
f 351 497 376
f 459 498 351
f 351 498 497
f 377 495 378
f 389 491 490
f 481 499 480
f 481 500 499
f 500 481 501
f 481 482 501
f 379 380 493
f 377 386 502
f 377 503 495
f 377 502 503
f 499 504 480
f 480 504 485
f 357 382 505
f 471 357 506
f 357 505 506
f 507 393 373
f 467 508 373
f 507 373 508
f 379 509 388
f 379 493 510
f 379 510 509
f 385 502 386
f 497 375 376
f 511 374 396
f 475 374 512
f 511 512 374
f 486 479 490
f 387 388 509
f 387 513 395
f 387 509 514
f 387 514 513
f 385 398 515
f 385 516 502
f 385 515 516
f 505 382 381
f 394 395 513
f 397 515 398
f 486 490 491
f 500 517 499
f 500 518 517
f 518 500 519
f 500 501 519
f 375 520 407
f 497 521 375
f 375 521 520
f 397 400 522
f 397 523 515
f 397 522 523
f 517 524 499
f 499 524 504
f 394 525 405
f 394 513 526
f 394 526 525
f 399 522 400
f 507 410 393
f 487 486 491
f 381 417 527
f 505 381 528
f 381 527 528
f 511 396 415
f 399 414 529
f 399 530 522
f 399 529 530
f 404 405 525
f 419 420 428
f 420 418 426
f 420 426 428
f 487 491 492
f 520 406 407
f 461 487 492
f 433 419 427
f 419 428 427
f 418 425 440
f 418 440 426
f 404 531 423
f 404 525 532
f 404 532 531
f 413 529 414
f 432 433 446
f 433 427 446
f 425 424 439
f 425 439 440
f 462 461 477
f 461 492 477
f 518 533 517
f 518 534 533
f 534 518 535
f 518 519 535
f 527 417 416
f 422 536 435
f 434 435 536
f 422 423 531
f 422 531 537
f 422 537 536
f 424 462 478
f 424 478 439
f 462 477 478
f 434 538 460
f 434 536 539
f 434 539 538
f 533 540 517
f 517 540 524
f 413 437 541
f 413 542 529
f 413 541 542
f 432 446 445
f 444 432 445
f 543 431 410
f 507 544 410
f 543 410 544
f 436 442 545
f 441 545 442
f 436 541 437
f 436 546 541
f 436 545 546
f 547 415 438
f 511 415 548
f 547 548 415
f 441 472 549
f 441 550 545
f 441 549 550
f 406 551 468
f 520 552 406
f 406 552 551
f 459 460 538
f 444 445 457
f 443 444 457
f 416 476 553
f 527 416 554
f 416 553 554
f 471 549 472
f 443 457 456
f 448 443 456
f 534 555 533
f 534 556 555
f 556 534 557
f 534 535 557
f 543 453 431
f 555 558 533
f 533 558 540
f 551 467 468
f 459 559 498
f 459 538 560
f 459 560 559
f 448 456 464
f 447 448 464
f 547 438 458
f 450 447 463
f 447 464 463
f 553 476 475
f 471 506 561
f 471 562 549
f 471 561 562
f 449 450 466
f 455 449 465
f 449 466 465
f 450 463 466
f 454 455 470
f 455 465 470
f 467 563 508
f 551 564 467
f 467 564 563
f 565 482 453
f 543 566 453
f 565 453 566
f 474 454 469
f 473 474 484
f 474 469 484
f 454 470 469
f 497 498 559
f 473 484 483
f 489 473 483
f 567 458 485
f 547 458 568
f 567 568 458
f 475 512 569
f 553 475 570
f 475 569 570
f 556 571 555
f 556 572 571
f 572 556 573
f 556 557 573
f 505 561 506
f 571 574 555
f 555 574 558
f 563 507 508
f 489 483 496
f 488 489 496
f 565 501 482
f 497 575 521
f 497 559 576
f 497 576 575
f 494 488 495
f 493 494 503
f 494 495 503
f 488 496 495
f 510 493 502
f 493 503 502
f 567 485 504
f 569 512 511
f 505 528 577
f 505 578 561
f 505 577 578
f 510 502 516
f 509 510 516
f 507 579 544
f 563 580 507
f 507 580 579
f 581 519 501
f 565 582 501
f 581 501 582
f 520 521 575
f 514 509 515
f 509 516 515
f 513 514 523
f 514 515 523
f 572 583 571
f 572 584 583
f 584 572 585
f 572 573 585
f 586 504 524
f 567 504 587
f 586 587 504
f 511 548 588
f 569 511 589
f 511 588 589
f 583 590 571
f 571 590 574
f 527 577 528
f 513 523 522
f 526 513 522
f 581 535 519
f 579 543 544
f 520 591 552
f 520 575 592
f 520 592 591
f 526 522 530
f 586 524 540
f 588 548 547
f 525 526 530
f 527 554 593
f 527 594 577
f 527 593 594
f 595 557 535
f 581 596 535
f 595 535 596
f 543 597 566
f 579 598 543
f 543 598 597
f 525 530 529
f 551 552 591
f 584 599 583
f 584 600 599
f 600 584 601
f 584 585 601
f 599 602 583
f 583 602 590
f 603 540 558
f 586 540 604
f 603 604 540
f 532 525 529
f 547 568 605
f 588 547 606
f 547 605 606
f 553 593 554
f 551 607 564
f 551 591 608
f 551 608 607
f 532 529 542
f 531 532 542
f 597 565 566
f 537 531 541
f 531 542 541
f 536 537 546
f 539 536 545
f 536 546 545
f 537 541 546
f 539 545 550
f 538 539 550
f 595 573 557
f 553 570 609
f 553 610 593
f 553 609 610
f 605 568 567
f 563 564 607
f 603 558 574
f 538 550 549
f 560 538 549
f 565 611 582
f 597 612 565
f 565 612 611
f 569 609 570
f 563 613 580
f 563 607 614
f 563 614 613
f 560 549 562
f 600 615 599
f 600 616 615
f 616 600 617
f 600 601 617
f 559 560 562
f 567 587 618
f 605 567 619
f 567 618 619
f 615 620 599
f 599 620 602
f 569 589 621
f 569 622 609
f 569 621 622
f 579 580 613
f 623 585 573
f 595 624 573
f 623 573 624
f 611 581 582
f 559 562 561
f 616 625 615
f 616 626 625
f 626 616 627
f 616 617 627
f 576 559 561
f 628 574 590
f 603 574 629
f 628 629 574
f 625 630 615
f 615 630 620
f 618 587 586
f 588 621 589
f 579 631 598
f 579 613 632
f 579 632 631
f 581 633 596
f 611 634 581
f 581 634 633
f 576 561 578
f 575 576 578
f 588 606 635
f 588 636 621
f 588 635 636
f 597 598 631
f 586 604 637
f 618 586 638
f 586 637 638
f 575 578 577
f 633 595 596
f 626 639 625
f 626 640 639
f 640 626 641
f 626 627 641
f 623 601 585
f 605 635 606
f 592 575 577
f 597 642 612
f 597 631 643
f 597 643 642
f 639 644 625
f 625 644 630
f 628 590 602
f 637 604 603
f 592 577 594
f 595 645 624
f 633 646 595
f 595 646 645
f 605 619 647
f 605 648 635
f 605 647 648
f 611 612 642
f 591 592 594
f 603 629 649
f 637 603 650
f 603 649 650
f 640 651 639
f 640 652 651
f 652 640 653
f 640 641 653
f 591 594 593
f 618 647 619
f 651 654 639
f 639 654 644
f 655 617 601
f 623 656 601
f 655 601 656
f 611 657 634
f 611 642 658
f 611 658 657
f 645 623 624
f 659 602 620
f 628 602 660
f 659 660 602
f 608 591 593
f 649 629 628
f 618 638 661
f 618 662 647
f 618 661 662
f 608 593 610
f 633 634 657
f 607 608 610
f 655 627 617
f 652 663 651
f 652 664 663
f 664 652 665
f 652 653 665
f 659 620 630
f 637 661 638
f 607 610 609
f 614 607 609
f 633 666 646
f 633 657 667
f 633 667 666
f 663 668 651
f 651 668 654
f 645 669 623
f 623 670 656
f 623 669 670
f 614 609 622
f 613 614 622
f 649 628 671
f 628 660 672
f 628 672 671
f 637 650 673
f 637 674 661
f 637 673 674
f 675 641 627
f 655 676 627
f 675 627 676
f 645 646 666
f 613 622 621
f 632 613 621
f 677 630 644
f 659 630 678
f 677 678 630
f 649 673 650
f 664 679 663
f 664 680 679
f 680 664 681
f 664 665 681
f 632 621 636
f 631 632 636
f 645 682 669
f 645 666 683
f 645 683 682
f 679 684 663
f 663 684 668
f 670 655 656
f 631 636 635
f 643 631 635
f 675 653 641
f 649 671 685
f 649 686 673
f 649 685 686
f 642 643 648
f 643 635 648
f 672 660 659
f 677 644 654
f 658 642 647
f 642 648 647
f 658 647 662
f 657 658 662
f 670 669 682
f 680 687 679
f 680 688 687
f 688 680 689
f 680 681 689
f 657 662 661
f 667 657 661
f 690 665 653
f 675 691 653
f 690 653 691
f 670 692 655
f 655 693 676
f 655 692 693
f 672 685 671
f 687 694 679
f 679 694 684
f 695 654 668
f 677 654 696
f 695 696 654
f 667 661 674
f 666 667 674
f 659 678 697
f 672 659 698
f 659 697 698
f 666 674 673
f 688 699 687
f 688 700 699
f 700 688 701
f 688 689 701
f 690 681 665
f 670 702 692
f 670 682 703
f 670 703 702
f 693 675 676
f 683 666 673
f 695 668 684
f 699 704 687
f 687 704 694
f 697 678 677
f 672 698 705
f 672 706 685
f 672 705 706
f 683 673 686
f 707 689 681
f 690 708 681
f 707 681 708
f 675 709 691
f 693 710 675
f 675 710 709
f 682 683 686
f 711 684 694
f 695 684 712
f 711 712 684
f 693 692 702
f 700 713 699
f 700 701 714
f 700 715 713
f 715 700 714
f 677 696 716
f 697 677 717
f 677 716 717
f 682 686 685
f 709 690 691
f 707 701 689
f 703 682 685
f 699 718 704
f 713 718 699
f 697 705 698
f 716 696 695
f 711 694 704
f 690 719 708
f 709 720 690
f 690 720 719
f 693 721 710
f 693 702 722
f 693 722 721
f 703 685 706
f 702 703 706
f 707 723 701
f 724 714 701
f 724 701 723
f 695 712 725
f 716 695 726
f 695 725 726
f 719 707 708
f 709 710 721
f 697 717 727
f 697 728 705
f 697 727 728
f 715 729 713
f 715 714 730
f 731 715 730
f 715 731 729
f 702 706 705
f 722 702 705
f 732 704 718
f 711 704 733
f 732 733 704
f 709 721 734
f 709 735 720
f 709 734 735
f 721 722 728
f 722 705 728
f 734 721 727
f 721 728 727
f 725 712 711
f 716 727 717
f 719 736 707
f 707 737 723
f 707 736 737
f 713 738 718
f 729 738 713
f 724 730 714
f 719 720 735
f 735 734 739
f 734 727 739
f 719 735 740
f 740 735 741
f 735 739 741
f 716 739 727
f 716 726 741
f 716 741 739
f 719 740 742
f 719 742 736
f 732 718 738
f 737 724 723
f 725 711 743
f 711 733 744
f 711 744 743
f 742 740 745
f 740 741 745
f 725 741 726
f 737 736 742
f 737 742 746
f 746 742 747
f 742 745 747
f 725 745 741
f 725 747 745
f 725 743 747
f 731 730 748
f 724 749 730
f 750 730 749
f 750 748 730
f 731 751 729
f 752 731 748
f 731 752 751
f 737 746 753
f 753 746 754
f 746 747 754
f 737 755 724
f 724 755 756
f 724 756 749
f 737 753 755
f 744 733 732
f 744 747 743
f 756 755 753
f 757 753 758
f 756 753 757
f 753 754 758
f 744 754 747
f 759 760 761
f 760 759 762
f 759 761 763
f 762 759 763
f 729 764 738
f 732 738 765
f 766 765 738
f 766 738 764
f 760 767 761
f 760 768 767
f 768 760 769
f 760 762 769
f 770 771 772
f 773 771 770
f 774 770 775
f 776 770 774
f 770 772 775
f 773 770 777
f 776 777 770
f 771 778 779
f 773 778 771
f 771 779 772
f 756 757 778
f 778 757 780
f 756 778 781
f 778 780 779
f 773 781 778
f 751 764 729
f 757 758 780
f 744 732 782
f 732 783 782
f 732 765 783
f 744 758 754
f 744 782 758
f 784 774 785
f 776 774 784
f 774 775 785
f 756 750 749
f 783 758 782
f 783 780 758
f 756 781 750
f 761 786 763
f 762 763 786
f 787 784 788
f 789 784 787
f 784 785 788
f 776 784 790
f 789 790 784
f 750 791 748
f 752 748 791
f 783 779 780
f 792 775 772
f 793 785 775
f 792 794 775
f 793 775 794
f 767 795 761
f 761 795 786
f 768 787 796
f 787 768 797
f 768 796 767
f 768 769 797
f 787 788 796
f 787 797 789
f 792 772 779
f 783 798 779
f 792 779 798
f 793 788 785
f 750 781 773
f 783 765 766
f 799 796 788
f 793 800 788
f 799 788 800
f 750 773 801
f 750 801 791
f 783 766 798
f 766 764 802
f 751 802 764
f 796 803 767
f 767 803 795
f 796 799 803
f 773 777 804
f 773 804 801
f 805 752 791
f 752 806 751
f 752 805 806
f 766 792 798
f 766 807 792
f 766 802 807
f 804 791 801
f 804 808 791
f 805 791 808
f 804 777 776
f 792 809 794
f 792 807 809
f 806 802 751
f 809 793 794
f 809 807 802
f 809 802 810
f 806 810 802
f 804 776 811
f 776 790 812
f 776 812 811
f 804 813 808
f 804 811 813
f 809 814 793
f 793 815 800
f 793 814 815
f 813 805 808
f 805 816 806
f 813 817 805
f 805 817 816
f 809 810 818
f 809 818 814
f 812 790 789
f 818 810 806
f 818 806 816
f 812 813 811
f 815 799 800
f 789 797 819
f 812 789 820
f 789 819 820
f 815 814 818
f 821 817 813
f 812 821 813
f 799 822 803
f 815 823 799
f 799 823 822
f 797 769 824
f 797 824 819
f 769 762 825
f 825 762 786
f 826 818 816
f 815 818 826
f 817 827 816
f 821 828 817
f 817 828 827
f 769 825 824
f 812 829 821
f 812 820 829
f 803 830 795
f 803 822 830
f 795 831 786
f 825 786 831
f 826 816 827
f 795 830 831
f 815 826 832
f 815 832 823
f 829 828 821
f 820 819 833
f 820 833 829
f 832 826 827
f 823 834 822
f 823 832 834
f 828 835 827
f 829 836 828
f 828 836 835
f 832 827 835
f 819 824 837
f 819 837 833
f 829 838 836
f 829 833 838
f 822 839 830
f 822 834 839
f 832 835 840
f 832 840 834
f 824 825 841
f 824 841 837
f 830 842 831
f 830 839 842
f 836 840 835
f 836 838 840
f 841 825 831
f 833 837 843
f 833 843 838
f 841 831 842
f 834 844 839
f 834 840 844
f 837 841 845
f 837 845 843
f 838 844 840
f 838 843 844
f 839 846 842
f 839 844 846
f 845 841 842
f 845 842 846
f 843 846 844
f 843 845 846
