# 
# Wavefront OBJ file
# Created with Kaydara FBX
# 
mtllib c:\users\tjvan\onedrive\documenten\fontys\minor\nx\.mtlmodels\anterior_tibial_artery.r.obj

g Anterior_tibial_artery_r
v -0.105042 0.359767 -0.031489
v -0.105033 0.357461 -0.031458
v -0.104978 0.357461 -0.032091
v -0.104772 0.359778 -0.030910
v -0.104883 0.355175 -0.032114
v -0.104937 0.355158 -0.031485
v -0.104765 0.357467 -0.030882
v -0.104987 0.359748 -0.032125
v -0.104947 0.362088 -0.031587
v -0.104675 0.362103 -0.031004
v -0.104614 0.357468 -0.032612
v -0.104521 0.355206 -0.032632
v -0.104892 0.362047 -0.032226
v -0.104620 0.359725 -0.032649
v -0.104714 0.352876 -0.032187
v -0.104767 0.352846 -0.031562
v -0.104669 0.355160 -0.030912
v -0.104734 0.364434 -0.031760
v -0.104460 0.364455 -0.031175
v -0.104356 0.352926 -0.032701
v -0.104681 0.364369 -0.032401
v -0.104525 0.361991 -0.032751
v -0.104489 0.350551 -0.032300
v -0.104501 0.352844 -0.030993
v -0.104540 0.350511 -0.031679
v -0.104248 0.359777 -0.030543
v -0.104244 0.357478 -0.030518
v -0.104149 0.362089 -0.030635
v -0.104378 0.366861 -0.032026
v -0.104098 0.366912 -0.031442
v -0.104134 0.350616 -0.032810
v -0.104152 0.355180 -0.030550
v -0.103932 0.364425 -0.030802
v -0.104315 0.364277 -0.032926
v -0.104335 0.366734 -0.032662
v -0.104038 0.357479 -0.032881
v -0.103950 0.355243 -0.032899
v -0.104041 0.359705 -0.032918
v -0.104276 0.350506 -0.031113
v -0.104220 0.348187 -0.032445
v -0.104271 0.348140 -0.031828
v -0.103790 0.352984 -0.032966
v -0.103945 0.361935 -0.033021
v -0.103988 0.352872 -0.030632
v -0.103869 0.348262 -0.032952
v -0.103569 0.366872 -0.031066
v -0.103490 0.370204 -0.032925
v -0.103183 0.370338 -0.032363
v -0.103572 0.350688 -0.033073
v -0.103980 0.366564 -0.033180
v -0.103488 0.369934 -0.033522
v -0.103735 0.364182 -0.033195
v -0.104007 0.348133 -0.031266
v -0.103923 0.345771 -0.032615
v -0.103973 0.345720 -0.032001
v -0.103765 0.350538 -0.030755
v -0.103612 0.359765 -0.030487
v -0.103611 0.357491 -0.030462
v -0.103510 0.362048 -0.030578
v -0.103575 0.345850 -0.033118
v -0.103524 0.355214 -0.030495
v -0.103292 0.364353 -0.030742
v -0.103311 0.348343 -0.033212
v -0.102649 0.370302 -0.031985
v -0.103405 0.357492 -0.032825
v -0.103321 0.355276 -0.032844
v -0.103404 0.359693 -0.032863
v -0.103711 0.345711 -0.031443
v -0.103500 0.348168 -0.030909
v -0.103612 0.343289 -0.032800
v -0.103662 0.343237 -0.032190
v -0.103364 0.352921 -0.030577
v -0.103408 0.366398 -0.033440
v -0.103178 0.369601 -0.033994
v -0.103166 0.353033 -0.032910
v -0.103306 0.361894 -0.032963
v -0.103266 0.343369 -0.033300
v -0.102933 0.366754 -0.030999
v -0.103021 0.345937 -0.033376
v -0.102953 0.350749 -0.033017
v -0.103146 0.350599 -0.030699
v -0.103095 0.364110 -0.033135
v -0.103401 0.343227 -0.031635
v -0.103207 0.345746 -0.031088
v -0.103302 0.340728 -0.032992
v -0.103351 0.340677 -0.032386
v -0.102957 0.340804 -0.033489
v -0.103032 0.359745 -0.030757
v -0.103035 0.357502 -0.030731
v -0.102929 0.361992 -0.030847
v -0.102715 0.343455 -0.033557
v -0.102696 0.348411 -0.033157
v -0.102032 0.370104 -0.031893
v -0.102952 0.355251 -0.030762
v -0.102712 0.364258 -0.031011
v -0.102885 0.348235 -0.030854
v -0.102204 0.372621 -0.034557
v -0.102282 0.372199 -0.035058
v -0.101848 0.372846 -0.034049
v -0.103092 0.340665 -0.031834
v -0.102900 0.343260 -0.031282
v -0.102884 0.357503 -0.032461
v -0.102804 0.355296 -0.032481
v -0.102881 0.359692 -0.032496
v -0.102641 0.369295 -0.034213
v -0.102772 0.366279 -0.033373
v -0.102797 0.352978 -0.030841
v -0.103005 0.338072 -0.033184
v -0.103054 0.338022 -0.032582
v -0.102662 0.338144 -0.033679
v -0.102410 0.346007 -0.033321
v -0.102652 0.353060 -0.032550
v -0.102780 0.361880 -0.032594
v -0.102361 0.366587 -0.031259
v -0.102409 0.340886 -0.033745
v -0.102596 0.345816 -0.031032
v -0.102060 0.371693 -0.035419
v -0.101307 0.372814 -0.033672
v -0.102443 0.350781 -0.032659
v -0.102584 0.350671 -0.030962
v -0.102796 0.338009 -0.032033
v -0.102593 0.340696 -0.031484
v -0.102567 0.364080 -0.032762
v -0.102758 0.335670 -0.033360
v -0.102807 0.335620 -0.032761
v -0.102666 0.359722 -0.031280
v -0.102671 0.357508 -0.031252
v -0.102562 0.361936 -0.031372
v -0.102108 0.343524 -0.033501
v -0.102417 0.335741 -0.033852
v -0.102117 0.338220 -0.033933
v -0.102189 0.348445 -0.032800
v -0.102591 0.355282 -0.031279
v -0.102346 0.364165 -0.031536
v -0.101496 0.369797 -0.032112
v -0.102293 0.343329 -0.031227
v -0.102328 0.348317 -0.031114
v -0.102616 0.357509 -0.031885
v -0.102536 0.355298 -0.031909
v -0.102611 0.359703 -0.031917
v -0.102550 0.335603 -0.032216
v -0.102523 0.333257 -0.033549
v -0.102571 0.333204 -0.032955
v -0.102300 0.338035 -0.031685
v -0.102439 0.353029 -0.031355
v -0.102386 0.353059 -0.031981
v -0.102507 0.361895 -0.032011
v -0.102024 0.369097 -0.034121
v -0.102243 0.366240 -0.032997
v -0.102184 0.333328 -0.034038
v -0.101805 0.340950 -0.033691
v -0.102005 0.366418 -0.031776
v -0.101906 0.346042 -0.032966
v -0.101875 0.335814 -0.034105
v -0.102178 0.350776 -0.032093
v -0.101598 0.371239 -0.035543
v -0.100728 0.372533 -0.033525
v -0.101989 0.340761 -0.031429
v -0.102042 0.345903 -0.031291
v -0.102230 0.350736 -0.031472
v -0.102315 0.333184 -0.032413
v -0.102299 0.330840 -0.033746
v -0.102347 0.330787 -0.033155
v -0.102293 0.364100 -0.032177
v -0.102057 0.335624 -0.031871
v -0.101962 0.330910 -0.034232
v -0.101926 0.348438 -0.032238
v -0.101645 0.333398 -0.034290
v -0.101516 0.338278 -0.033879
v -0.101607 0.343558 -0.033149
v -0.101185 0.369465 -0.032583
v -0.102093 0.330765 -0.032617
v -0.102089 0.328428 -0.033944
v -0.102137 0.328376 -0.033356
v -0.101962 0.366291 -0.032413
v -0.101976 0.348391 -0.031621
v -0.101824 0.333202 -0.032070
v -0.101754 0.328495 -0.034427
v -0.101699 0.338094 -0.031632
v -0.101742 0.343415 -0.031484
v -0.100617 0.374212 -0.036715
v -0.100776 0.373703 -0.037113
v -0.101490 0.369060 -0.033743
v -0.100211 0.374486 -0.036266
v -0.101426 0.330977 -0.034482
v -0.101644 0.346033 -0.032407
v -0.101893 0.326027 -0.034136
v -0.101884 0.328352 -0.032822
v -0.101940 0.325978 -0.033552
v -0.101278 0.335868 -0.034052
v -0.101307 0.340981 -0.033340
v -0.101560 0.326091 -0.034616
v -0.101605 0.330779 -0.032277
v -0.101459 0.335678 -0.031818
v -0.100645 0.373096 -0.037352
v -0.101694 0.345982 -0.031794
v -0.101019 0.370958 -0.035397
v -0.100266 0.372078 -0.033649
v -0.101183 0.369195 -0.033180
v -0.101441 0.340842 -0.031685
v -0.101221 0.328559 -0.034676
v -0.101712 0.323647 -0.034316
v -0.101689 0.325955 -0.033021
v -0.101759 0.323601 -0.033736
v -0.101346 0.343547 -0.032594
v -0.101381 0.323705 -0.034794
v -0.101398 0.328364 -0.032484
v -0.101050 0.333449 -0.034237
v -0.099667 0.374453 -0.035884
v -0.101230 0.333252 -0.032018
v -0.101020 0.338305 -0.033532
v -0.101547 0.321295 -0.034478
v -0.101510 0.323580 -0.033208
v -0.101595 0.321254 -0.033901
v -0.101030 0.326150 -0.034864
v -0.101396 0.343495 -0.031984
v -0.101218 0.321347 -0.034954
v -0.101207 0.325965 -0.032685
v -0.101154 0.338169 -0.031886
v -0.100835 0.331024 -0.034430
v -0.101400 0.318978 -0.034616
v -0.101347 0.321236 -0.033376
v -0.101447 0.318944 -0.034042
v -0.101014 0.330826 -0.032225
v -0.101047 0.340969 -0.032788
v -0.100260 0.372554 -0.037368
v -0.100854 0.323760 -0.035041
v -0.101072 0.319022 -0.035088
v -0.101030 0.323589 -0.032874
v -0.100784 0.335889 -0.033706
v -0.100478 0.370925 -0.035019
v -0.100044 0.371572 -0.034010
v -0.100917 0.335751 -0.032071
v -0.101271 0.316704 -0.034722
v -0.101202 0.318930 -0.033520
v -0.101318 0.316679 -0.034151
v -0.101097 0.340918 -0.032183
v -0.100633 0.328602 -0.034625
v -0.100944 0.316739 -0.035192
v -0.100811 0.328408 -0.032432
v -0.100694 0.321396 -0.035199
v -0.100871 0.321244 -0.033044
v -0.101160 0.314482 -0.034791
v -0.101208 0.314467 -0.034224
v -0.101074 0.316671 -0.033633
v -0.100762 0.338291 -0.032983
v -0.099131 0.374121 -0.035674
v -0.100835 0.314506 -0.035258
v -0.100560 0.333466 -0.033894
v -0.101070 0.312318 -0.034816
v -0.101118 0.312316 -0.034252
v -0.100966 0.314466 -0.033708
v -0.100728 0.318939 -0.033190
v -0.100551 0.319065 -0.035333
v -0.100622 0.326005 -0.032634
v -0.100445 0.326191 -0.034813
v -0.100691 0.333322 -0.032270
v -0.100121 0.371150 -0.034511
v -0.100747 0.312330 -0.035281
v -0.100811 0.338242 -0.032381
v -0.101001 0.310216 -0.034791
v -0.101049 0.310222 -0.034231
v -0.100878 0.312324 -0.033740
v -0.100680 0.310220 -0.035252
v -0.100604 0.316681 -0.033305
v -0.100426 0.316775 -0.035435
v -0.100801 0.304965 -0.034696
v -0.100811 0.310238 -0.033721
v -0.100849 0.304970 -0.034136
v -0.100347 0.331038 -0.034090
v -0.100449 0.323626 -0.032824
v -0.100273 0.323797 -0.034990
v -0.100478 0.330894 -0.032475
v -0.100527 0.335873 -0.033161
v -0.099723 0.372222 -0.037158
v -0.100480 0.304973 -0.035157
v -0.100499 0.314478 -0.033382
v -0.100320 0.314533 -0.035500
v -0.100576 0.335822 -0.032563
v -0.100414 0.312339 -0.033416
v -0.100293 0.321278 -0.032995
v -0.100450 0.298558 -0.034630
v -0.100611 0.304989 -0.033626
v -0.100498 0.298560 -0.034070
v -0.100116 0.321430 -0.035149
v -0.100235 0.312347 -0.035521
v -0.100148 0.328614 -0.034286
v -0.100129 0.298574 -0.035092
v -0.100350 0.310258 -0.033400
v -0.100278 0.328472 -0.032681
v -0.100304 0.333446 -0.033353
v -0.099026 0.374649 -0.039523
v -0.098812 0.375194 -0.039196
v -0.100171 0.310234 -0.035491
v -0.100154 0.318969 -0.033141
v -0.098745 0.373579 -0.035690
v -0.099977 0.319095 -0.035284
v -0.100352 0.333393 -0.032758
v -0.099971 0.304993 -0.035396
v -0.098960 0.374000 -0.039675
v -0.099963 0.326201 -0.034477
v -0.100260 0.298578 -0.033561
v -0.100150 0.305015 -0.033305
v -0.100033 0.316708 -0.033256
v -0.100093 0.326065 -0.032882
v -0.098374 0.375487 -0.038782
v -0.099855 0.316802 -0.035387
v -0.100093 0.331016 -0.033552
v -0.099980 0.291273 -0.034590
v -0.100028 0.291272 -0.034030
v -0.099932 0.314501 -0.033334
v -0.099621 0.298602 -0.035331
v -0.100141 0.330963 -0.032961
v -0.099179 0.372189 -0.036777
v -0.099659 0.291293 -0.035052
v -0.099923 0.323681 -0.033070
v -0.099793 0.323807 -0.034657
v -0.099753 0.314557 -0.035452
v -0.099850 0.312359 -0.033368
v -0.099790 0.310278 -0.033352
v -0.099895 0.328591 -0.033752
v -0.099671 0.312367 -0.035473
v -0.099769 0.321328 -0.033240
v -0.099799 0.298608 -0.033240
v -0.099789 0.291290 -0.033521
v -0.099640 0.321439 -0.034818
v -0.099943 0.328539 -0.033164
v -0.098615 0.372973 -0.035929
v -0.098631 0.373420 -0.039612
v -0.099611 0.310254 -0.035443
v -0.097831 0.375451 -0.038392
v -0.099411 0.305020 -0.035349
v -0.099590 0.305041 -0.033257
v -0.099633 0.319013 -0.033385
v -0.099712 0.326178 -0.033946
v -0.099151 0.291327 -0.035291
v -0.099503 0.319105 -0.034954
v -0.098774 0.372464 -0.036327
v -0.099759 0.326128 -0.033362
v -0.099421 0.283380 -0.034572
v -0.099469 0.283378 -0.034011
v -0.099515 0.316744 -0.033499
v -0.099101 0.283403 -0.035033
v -0.099062 0.298636 -0.035283
v -0.099385 0.316812 -0.035059
v -0.099544 0.323785 -0.034129
v -0.099416 0.314529 -0.033576
v -0.099591 0.323739 -0.033548
v -0.099338 0.312376 -0.033608
v -0.099286 0.314569 -0.035126
v -0.099329 0.291323 -0.033200
v -0.099230 0.283396 -0.033502
v -0.099240 0.298642 -0.033192
v -0.099281 0.310292 -0.033591
v -0.099392 0.321420 -0.034293
v -0.099207 0.312382 -0.035149
v -0.099439 0.321380 -0.033715
v -0.098127 0.373065 -0.039350
v -0.098593 0.283440 -0.035272
v -0.099150 0.310274 -0.035122
v -0.097327 0.375095 -0.038130
v -0.099305 0.319057 -0.033858
v -0.099257 0.319091 -0.034432
v -0.098592 0.291365 -0.035243
v -0.098950 0.305046 -0.035027
v -0.099081 0.305061 -0.033496
v -0.099188 0.316779 -0.033969
v -0.099141 0.316804 -0.034540
v -0.098804 0.275152 -0.034570
v -0.098852 0.275148 -0.034009
v -0.098484 0.275177 -0.035031
v -0.098601 0.298666 -0.034962
v -0.099091 0.314553 -0.034043
v -0.099044 0.314568 -0.034611
v -0.098770 0.283430 -0.033181
v -0.098770 0.291361 -0.033152
v -0.099015 0.312388 -0.034073
v -0.098959 0.310296 -0.034053
v -0.098967 0.312390 -0.034637
v -0.098613 0.275166 -0.033500
v -0.098731 0.298670 -0.033431
v -0.098911 0.310289 -0.034613
v -0.097583 0.373029 -0.038960
v -0.098034 0.283481 -0.035225
v -0.098712 0.305064 -0.034518
v -0.096998 0.374515 -0.038067
v -0.097976 0.275216 -0.035271
v -0.098760 0.305070 -0.033958
v -0.098132 0.291397 -0.034922
v -0.097083 0.375254 -0.042142
v -0.096842 0.375811 -0.041846
v -0.098363 0.298684 -0.034453
v -0.097049 0.374589 -0.042251
v -0.098161 0.266861 -0.034581
v -0.098208 0.266856 -0.034021
v -0.097840 0.266887 -0.035043
v -0.096392 0.376110 -0.041441
v -0.098211 0.283470 -0.033133
v -0.098153 0.275201 -0.033179
v -0.098262 0.291394 -0.033391
v -0.097146 0.373322 -0.038546
v -0.098410 0.298686 -0.033893
v -0.096932 0.373866 -0.038219
v -0.096750 0.373994 -0.042144
v -0.097970 0.266874 -0.033512
v -0.097418 0.275258 -0.035223
v -0.097574 0.283515 -0.034903
v -0.097893 0.291415 -0.034413
v -0.097333 0.266927 -0.035282
v -0.097941 0.291414 -0.033853
v -0.095853 0.376071 -0.041037
v -0.097703 0.283507 -0.033372
v -0.097521 0.258779 -0.034601
v -0.097568 0.258774 -0.034040
v -0.097594 0.275244 -0.033132
v -0.097201 0.258806 -0.035062
v -0.097509 0.266909 -0.033190
v -0.097335 0.283533 -0.034394
v -0.096267 0.373627 -0.041848
v -0.096957 0.275293 -0.034902
v -0.097330 0.258792 -0.033531
v -0.096774 0.266971 -0.035234
v -0.097383 0.283530 -0.033834
v -0.096693 0.258847 -0.035301
v -0.095370 0.375704 -0.040741
v -0.097779 0.172595 -0.033192
v -0.097731 0.163825 -0.032532
v -0.097689 0.163781 -0.033037
v -0.097560 0.172623 -0.032729
v -0.097738 0.172562 -0.033703
v -0.097609 0.181336 -0.033657
v -0.097387 0.181350 -0.033187
v -0.097359 0.155092 -0.032143
v -0.097514 0.163870 -0.032076
v -0.097401 0.155149 -0.031646
v -0.097400 0.163749 -0.033453
v -0.097567 0.181312 -0.034175
v -0.097445 0.172532 -0.034125
v -0.097087 0.275282 -0.033371
v -0.097074 0.155060 -0.032554
v -0.097282 0.189922 -0.033959
v -0.097058 0.189925 -0.033483
v -0.096951 0.266953 -0.033143
v -0.097137 0.172638 -0.032436
v -0.096960 0.181351 -0.032891
v -0.097271 0.181284 -0.034602
v -0.097239 0.189906 -0.034483
v -0.096916 0.251181 -0.034625
v -0.096963 0.251176 -0.034065
v -0.096719 0.275311 -0.034393
v -0.095728 0.373588 -0.041444
v -0.097187 0.155215 -0.031197
v -0.097096 0.163904 -0.031788
v -0.096595 0.251208 -0.035087
v -0.096869 0.258827 -0.033210
v -0.096941 0.163740 -0.033670
v -0.096981 0.172514 -0.034344
v -0.096314 0.267006 -0.034913
v -0.096684 0.146621 -0.030989
v -0.096727 0.146693 -0.030500
v -0.096621 0.155060 -0.032770
v -0.096626 0.189914 -0.033183
v -0.096766 0.275307 -0.033832
v -0.096402 0.146587 -0.031395
v -0.096724 0.251193 -0.033556
v -0.096134 0.258891 -0.035254
v -0.095071 0.375109 -0.040633
v -0.096861 0.198229 -0.034130
v -0.096635 0.198223 -0.033648
v -0.096940 0.189880 -0.034915
v -0.096801 0.181260 -0.034823
v -0.096817 0.198218 -0.034660
v -0.096088 0.251249 -0.035326
v -0.096776 0.155272 -0.030915
v -0.096518 0.146784 -0.030060
v -0.096625 0.172637 -0.032394
v -0.096442 0.181337 -0.032848
v -0.095278 0.373887 -0.041039
v -0.095956 0.146601 -0.031610
v -0.096590 0.163918 -0.031748
v -0.096443 0.266993 -0.033382
v -0.094988 0.375728 -0.044830
v -0.094749 0.376288 -0.044528
v -0.096198 0.198204 -0.033345
v -0.094959 0.375057 -0.044935
v -0.095037 0.374443 -0.040743
v -0.096435 0.163753 -0.033630
v -0.096468 0.172513 -0.034302
v -0.096121 0.155093 -0.032732
v -0.096103 0.189891 -0.033139
v -0.096514 0.198195 -0.035097
v -0.096464 0.189852 -0.035139
v -0.096376 0.244340 -0.034650
v -0.096423 0.244334 -0.034089
v -0.096311 0.258871 -0.033163
v -0.096076 0.267024 -0.034404
v -0.096056 0.244366 -0.035111
v -0.096408 0.206129 -0.034201
v -0.096179 0.206118 -0.033714
v -0.096264 0.251228 -0.033234
v -0.094305 0.376587 -0.044109
v -0.096363 0.206124 -0.034737
v -0.096283 0.181246 -0.034780
v -0.096276 0.155305 -0.030877
v -0.096113 0.146869 -0.029786
v -0.095674 0.258927 -0.034933
v -0.096123 0.267019 -0.033843
v -0.094668 0.374455 -0.044813
v -0.095604 0.138512 -0.029546
v -0.095648 0.138595 -0.029065
v -0.096185 0.244351 -0.033580
v -0.095325 0.138478 -0.029947
v -0.095529 0.251293 -0.035278
v -0.095464 0.146658 -0.031575
v -0.096160 0.172619 -0.032613
v -0.095972 0.181313 -0.033069
v -0.095669 0.198175 -0.033300
v -0.095738 0.206094 -0.033407
v -0.096131 0.163908 -0.031965
v -0.095548 0.244407 -0.035350
v -0.095444 0.138706 -0.028634
v -0.096033 0.198165 -0.035323
v -0.096056 0.206103 -0.035179
v -0.096018 0.163788 -0.033343
v -0.096046 0.172528 -0.034010
v -0.095941 0.189829 -0.035095
v -0.095710 0.155151 -0.032450
v -0.095627 0.189863 -0.033363
v -0.095803 0.258912 -0.033402
v -0.095933 0.238529 -0.034671
v -0.095980 0.238524 -0.034110
v -0.094886 0.138502 -0.030161
v -0.095984 0.213497 -0.034205
v -0.095753 0.213483 -0.033712
v -0.093774 0.376544 -0.043685
v -0.095612 0.238554 -0.035132
v -0.095938 0.213495 -0.034747
v -0.095705 0.251272 -0.033187
v -0.095436 0.258944 -0.034424
v -0.095622 0.146926 -0.029752
v -0.095823 0.155306 -0.031093
v -0.095855 0.181247 -0.034483
v -0.095724 0.244385 -0.033259
v -0.094194 0.374082 -0.044499
v -0.095202 0.206062 -0.033362
v -0.095307 0.213458 -0.033401
v -0.095741 0.238540 -0.033601
v -0.095868 0.172589 -0.033035
v -0.095676 0.181285 -0.033496
v -0.095047 0.138814 -0.028368
v -0.095060 0.146743 -0.031301
v -0.095842 0.163877 -0.032382
v -0.095069 0.251329 -0.034957
v -0.095483 0.258939 -0.033863
v -0.095188 0.198145 -0.033526
v -0.094989 0.244450 -0.035303
v -0.095801 0.163833 -0.032886
v -0.095826 0.172556 -0.033546
v -0.095570 0.206074 -0.035408
v -0.095628 0.213479 -0.035194
v -0.095105 0.238592 -0.035371
v -0.095504 0.198136 -0.035279
v -0.095496 0.155216 -0.032001
v -0.095328 0.189838 -0.033795
v -0.095652 0.220204 -0.034172
v -0.095418 0.220192 -0.033674
v -0.095617 0.234026 -0.034683
v -0.095665 0.234023 -0.034123
v -0.094403 0.138578 -0.030131
v -0.095509 0.189818 -0.034794
v -0.095605 0.220205 -0.034720
v -0.095297 0.234047 -0.035145
v -0.095633 0.181261 -0.034013
v -0.093300 0.376172 -0.043371
v -0.095538 0.155273 -0.031504
v -0.095176 0.146940 -0.029966
v -0.095198 0.251313 -0.033426
v -0.094967 0.220171 -0.033359
v -0.094765 0.213428 -0.033356
v -0.095281 0.238572 -0.033280
v -0.095426 0.234037 -0.033614
v -0.095166 0.244429 -0.033212
v -0.093664 0.374040 -0.044076
v -0.094851 0.146834 -0.030861
v -0.095284 0.189821 -0.034319
v -0.094716 0.206032 -0.033591
v -0.095461 0.231120 -0.034684
v -0.095508 0.231118 -0.034124
v -0.094831 0.251346 -0.034448
v -0.095204 0.136024 -0.029057
v -0.095248 0.136110 -0.028577
v -0.095473 0.226120 -0.034134
v -0.095236 0.226115 -0.033631
v -0.094925 0.135990 -0.029458
v -0.094565 0.138890 -0.028337
v -0.094885 0.198122 -0.033963
v -0.095291 0.220194 -0.035172
v -0.095136 0.213453 -0.035425
v -0.095426 0.226122 -0.034689
v -0.095139 0.231130 -0.035146
v -0.094788 0.234079 -0.035384
v -0.095034 0.206042 -0.035363
v -0.094893 0.146906 -0.030373
v -0.094546 0.238633 -0.035324
v -0.094529 0.244484 -0.034982
v -0.095067 0.198116 -0.034975
v -0.095269 0.231125 -0.033615
v -0.094006 0.138686 -0.029864
v -0.095108 0.226119 -0.035145
v -0.094878 0.251340 -0.033887
v -0.095045 0.136227 -0.028147
v -0.094780 0.226108 -0.033313
v -0.094965 0.234065 -0.033293
v -0.093010 0.375570 -0.043250
v -0.094486 0.136018 -0.029673
v -0.094841 0.198111 -0.034493
v -0.094419 0.220148 -0.033313
v -0.094793 0.220175 -0.035406
v -0.094807 0.231138 -0.033293
v -0.094631 0.231145 -0.035385
v -0.094722 0.238613 -0.033232
v -0.093219 0.374339 -0.043657
v -0.094749 0.133126 -0.028495
v -0.094793 0.133214 -0.028015
v -0.094470 0.133091 -0.028896
v -0.094273 0.213401 -0.033587
v -0.094658 0.244469 -0.033451
v -0.094410 0.206012 -0.034032
v -0.094125 0.138914 -0.028551
v -0.094594 0.213423 -0.035379
v -0.094605 0.226113 -0.035382
v -0.094229 0.234113 -0.035337
v -0.093803 0.138797 -0.029433
v -0.094593 0.206018 -0.035056
v -0.094291 0.244501 -0.034473
v -0.092980 0.374898 -0.043354
v -0.094650 0.136341 -0.027882
v -0.094590 0.133330 -0.027585
v -0.094085 0.238665 -0.035002
v -0.092787 0.376278 -0.047447
v -0.092577 0.376834 -0.047106
v -0.094225 0.226100 -0.033266
v -0.094406 0.234099 -0.033245
v -0.092732 0.375609 -0.047582
v -0.094030 0.133117 -0.029110
v -0.094004 0.136100 -0.029644
v -0.093846 0.138880 -0.028952
v -0.094365 0.206007 -0.034569
v -0.094338 0.244495 -0.033912
v -0.094247 0.231154 -0.033246
v -0.094242 0.129883 -0.027845
v -0.094287 0.129975 -0.027366
v -0.094246 0.220152 -0.035360
v -0.094070 0.231162 -0.035337
v -0.093921 0.220129 -0.033547
v -0.093963 0.129844 -0.028245
v -0.092157 0.377127 -0.046651
v -0.093963 0.213385 -0.034034
v -0.094214 0.238651 -0.033471
v -0.094194 0.133445 -0.027320
v -0.094168 0.136424 -0.027852
v -0.092427 0.375006 -0.047474
v -0.094050 0.226106 -0.035335
v -0.094085 0.130095 -0.026937
v -0.094148 0.213397 -0.035069
v -0.093768 0.234141 -0.035015
v -0.093847 0.238681 -0.034493
v -0.093548 0.133199 -0.029081
v -0.093523 0.129868 -0.028459
v -0.093609 0.136215 -0.029378
v -0.093917 0.213384 -0.034576
v -0.093722 0.226094 -0.033503
v -0.093898 0.234131 -0.033484
v -0.093894 0.238676 -0.033933
v -0.091642 0.377079 -0.046203
v -0.093693 0.126375 -0.027098
v -0.093738 0.126474 -0.026621
v -0.093607 0.220118 -0.033999
v -0.093412 0.126331 -0.027497
v -0.093794 0.220131 -0.035045
v -0.093738 0.231170 -0.033485
v -0.093609 0.231175 -0.035016
v -0.093712 0.133526 -0.027290
v -0.093690 0.130211 -0.026672
v -0.091953 0.374629 -0.047154
v -0.093729 0.136452 -0.028067
v -0.093537 0.126601 -0.026193
v -0.093530 0.234155 -0.034506
v -0.093594 0.226098 -0.035017
v -0.093041 0.129950 -0.028430
v -0.093153 0.133313 -0.028815
v -0.093406 0.136331 -0.028948
v -0.092972 0.126353 -0.027711
v -0.093561 0.220119 -0.034547
v -0.093404 0.226091 -0.033959
v -0.093577 0.234152 -0.033946
v -0.093450 0.136418 -0.028468
v -0.093370 0.231181 -0.034507
v -0.091168 0.376703 -0.045882
v -0.093107 0.122686 -0.026243
v -0.093155 0.122795 -0.025768
v -0.093273 0.133553 -0.027505
v -0.093417 0.231179 -0.033946
v -0.093208 0.130293 -0.026643
v -0.092826 0.122634 -0.026640
v -0.093143 0.126722 -0.025929
v -0.091437 0.374582 -0.046706
v -0.092950 0.133430 -0.028385
v -0.093357 0.226093 -0.034514
v -0.092646 0.130066 -0.028165
v -0.092955 0.122931 -0.025342
v -0.092490 0.126435 -0.027682
v -0.092994 0.133517 -0.027906
v -0.092385 0.122653 -0.026853
v -0.090862 0.376100 -0.045775
v -0.092768 0.130317 -0.026857
v -0.091018 0.374875 -0.046250
v -0.092661 0.126805 -0.025900
v -0.092494 0.118897 -0.025269
v -0.092543 0.119017 -0.024797
v -0.092444 0.130187 -0.027736
v -0.092561 0.123058 -0.025080
v -0.092211 0.118835 -0.025664
v -0.092096 0.126556 -0.027418
v -0.090808 0.375430 -0.045910
v -0.092488 0.130279 -0.027257
v -0.091903 0.122737 -0.026824
v -0.092346 0.119165 -0.024375
v -0.091770 0.118850 -0.025876
v -0.090523 0.377108 -0.049853
v -0.090375 0.377643 -0.049443
v -0.092221 0.126827 -0.026113
v -0.090409 0.376457 -0.050050
v -0.092080 0.123142 -0.025051
v -0.091894 0.126683 -0.026990
v -0.090005 0.377918 -0.048930
v -0.091953 0.119301 -0.024114
v -0.091860 0.115087 -0.024166
v -0.091912 0.115224 -0.023698
v -0.091575 0.115014 -0.024557
v -0.091510 0.122864 -0.026562
v -0.091940 0.126782 -0.026512
v -0.090064 0.375864 -0.049981
v -0.091288 0.118936 -0.025848
v -0.091717 0.115387 -0.023280
v -0.091133 0.115024 -0.024767
v -0.091639 0.123161 -0.025264
v -0.089511 0.377860 -0.048452
v -0.091310 0.123000 -0.026136
v -0.091472 0.119387 -0.024086
v -0.091326 0.115533 -0.023023
v -0.089579 0.375488 -0.049665
v -0.091358 0.123109 -0.025661
v -0.091213 0.111339 -0.022922
v -0.091268 0.111495 -0.022461
v -0.090896 0.119072 -0.025587
v -0.090925 0.111251 -0.023308
v -0.090652 0.115113 -0.024740
v -0.091076 0.111677 -0.022049
v -0.091031 0.119402 -0.024298
v -0.089027 0.377484 -0.048136
v -0.090482 0.111255 -0.023516
v -0.090698 0.119220 -0.025165
v -0.090846 0.115623 -0.022996
v -0.089086 0.375430 -0.049187
v -0.090748 0.119341 -0.024693
v -0.090688 0.111836 -0.021796
v -0.090262 0.115260 -0.024483
v -0.090560 0.107733 -0.021526
v -0.090620 0.107913 -0.021074
v -0.090269 0.107626 -0.021905
v -0.088681 0.376891 -0.048067
v -0.090002 0.111349 -0.023491
v -0.090432 0.108118 -0.020672
v -0.090404 0.115632 -0.023206
v -0.088715 0.375705 -0.048674
v -0.089825 0.107623 -0.022110
v -0.090067 0.115423 -0.024065
v -0.088567 0.376240 -0.048264
v -0.090208 0.111930 -0.021770
v -0.090118 0.115559 -0.023597
v -0.090047 0.108295 -0.020425
v -0.089614 0.111508 -0.023238
v -0.089909 0.104348 -0.019966
v -0.089974 0.104559 -0.019528
v -0.089613 0.104219 -0.020334
v -0.088243 0.378422 -0.051904
v -0.088193 0.378901 -0.051403
v -0.089346 0.107722 -0.022087
v -0.089792 0.104794 -0.019139
v -0.089765 0.111934 -0.021979
v -0.088032 0.377824 -0.052187
v -0.087898 0.379132 -0.050818
v -0.089167 0.104206 -0.020535
v -0.089422 0.111690 -0.022826
v -0.089568 0.108394 -0.020402
v -0.089477 0.111846 -0.022365
v -0.087618 0.377266 -0.052176
v -0.089411 0.104991 -0.018903
v -0.088961 0.107898 -0.021840
v -0.087435 0.379053 -0.050306
v -0.089265 0.101266 -0.018229
v -0.089339 0.101514 -0.017813
v -0.088964 0.101108 -0.018581
v -0.088689 0.104312 -0.020515
v -0.089164 0.101787 -0.017445
v -0.089124 0.108390 -0.020607
v -0.088515 0.101084 -0.018775
v -0.088773 0.108104 -0.021438
v -0.087112 0.376898 -0.051874
v -0.088934 0.105097 -0.018883
v -0.086929 0.378685 -0.050005
v -0.088833 0.108284 -0.020986
v -0.088789 0.102010 -0.017224
v -0.088637 0.098568 -0.016301
v -0.088721 0.098861 -0.015918
v -0.088308 0.104509 -0.020278
v -0.088328 0.098377 -0.016629
v -0.088557 0.099177 -0.015581
v -0.088039 0.101198 -0.018760
v -0.088487 0.105084 -0.019084
v -0.086649 0.376819 -0.051363
v -0.086515 0.378127 -0.049994
v -0.087876 0.098339 -0.016814
v -0.088126 0.104745 -0.019889
v -0.088313 0.102125 -0.017208
v -0.088192 0.104955 -0.019452
v -0.088189 0.099432 -0.015383
v -0.086353 0.377050 -0.050778
v -0.087664 0.101422 -0.018538
v -0.086304 0.377528 -0.050277
v -0.087402 0.098464 -0.016805
v -0.087864 0.102100 -0.017403
v -0.087716 0.099556 -0.015374
v -0.087489 0.101694 -0.018170
v -0.086067 0.380792 -0.052870
v -0.085993 0.380421 -0.053459
v -0.087563 0.101943 -0.017755
v -0.085862 0.380941 -0.052218
v -0.087034 0.098718 -0.016606
v -0.085660 0.379927 -0.053826
v -0.085434 0.380826 -0.051676
v -0.087264 0.099518 -0.015559
v -0.086870 0.099034 -0.016270
v -0.085159 0.379442 -0.053873
v -0.086954 0.099327 -0.015887
v -0.084897 0.380480 -0.051391
v -0.084622 0.379096 -0.053587
v -0.084395 0.379995 -0.051438
v -0.084194 0.378982 -0.053046
v -0.084063 0.379501 -0.051805
v -0.083989 0.379130 -0.052393
v -0.084009 0.383528 -0.053735
v -0.083888 0.383566 -0.053042
v -0.083821 0.383304 -0.054376
v -0.083489 0.383408 -0.052482
v -0.083374 0.382954 -0.054793
v -0.082921 0.383096 -0.052206
v -0.082788 0.382571 -0.054874
v -0.082335 0.382714 -0.052288
v -0.082220 0.382259 -0.054599
v -0.081888 0.382363 -0.052705
v -0.081822 0.382101 -0.054039
v -0.081700 0.382139 -0.053346
v -0.081977 0.387272 -0.053160
v -0.082040 0.387346 -0.053863
v -0.081598 0.387071 -0.052595
v -0.081771 0.387272 -0.054515
v -0.081005 0.386796 -0.052319
v -0.081241 0.387071 -0.054942
v -0.080357 0.386521 -0.052406
v -0.080593 0.386796 -0.055029
v -0.079827 0.386320 -0.052833
v -0.080000 0.386521 -0.054753
v -0.079558 0.386246 -0.053485
v -0.079621 0.386320 -0.054188
usemtl Anterior_tibial_artery_rMaterial0
f 1 2 3
f 4 2 1
f 2 5 3
f 2 6 5
f 7 6 2
f 4 7 2
f 1 3 8
f 9 1 8
f 10 1 9
f 10 4 1
f 8 3 11
f 3 5 12
f 3 12 11
f 9 8 13
f 13 8 14
f 8 11 14
f 6 15 5
f 6 16 15
f 17 16 6
f 7 17 6
f 18 9 13
f 19 9 18
f 19 10 9
f 5 15 20
f 5 20 12
f 18 13 21
f 21 13 22
f 13 14 22
f 16 23 15
f 17 24 16
f 24 25 16
f 16 25 23
f 26 7 4
f 27 17 7
f 26 27 7
f 28 4 10
f 28 26 4
f 29 18 21
f 30 19 18
f 30 18 29
f 15 23 31
f 15 31 20
f 32 24 17
f 27 32 17
f 33 10 19
f 33 28 10
f 21 22 34
f 29 21 35
f 35 21 34
f 14 11 36
f 11 12 37
f 11 37 36
f 22 14 38
f 14 36 38
f 24 39 25
f 25 40 23
f 39 41 25
f 25 41 40
f 12 20 42
f 12 42 37
f 34 22 43
f 22 38 43
f 44 39 24
f 32 44 24
f 23 40 45
f 23 45 31
f 46 19 30
f 46 33 19
f 47 29 35
f 48 30 29
f 48 29 47
f 20 31 49
f 20 49 42
f 35 34 50
f 51 35 50
f 47 35 51
f 50 34 52
f 34 43 52
f 39 53 41
f 41 54 40
f 53 55 41
f 41 55 54
f 56 53 39
f 44 56 39
f 57 27 26
f 58 32 27
f 57 58 27
f 59 26 28
f 59 57 26
f 40 54 60
f 40 60 45
f 61 44 32
f 58 61 32
f 62 28 33
f 62 59 28
f 31 45 63
f 31 63 49
f 64 46 30
f 64 30 48
f 38 36 65
f 36 37 66
f 36 66 65
f 43 38 67
f 38 65 67
f 53 68 55
f 56 69 53
f 69 68 53
f 55 70 54
f 68 71 55
f 55 71 70
f 72 56 44
f 61 72 44
f 50 52 73
f 51 50 74
f 74 50 73
f 37 42 75
f 37 75 66
f 52 43 76
f 43 67 76
f 54 70 77
f 54 77 60
f 78 33 46
f 78 62 33
f 45 60 79
f 45 79 63
f 42 49 80
f 42 80 75
f 81 69 56
f 72 81 56
f 73 52 82
f 52 76 82
f 68 83 71
f 69 84 68
f 84 83 68
f 71 85 70
f 83 86 71
f 71 86 85
f 70 85 87
f 70 87 77
f 88 58 57
f 89 61 58
f 88 89 58
f 90 57 59
f 90 88 57
f 60 77 91
f 60 91 79
f 49 63 92
f 49 92 80
f 93 78 46
f 93 46 64
f 94 72 61
f 89 94 61
f 95 59 62
f 95 90 59
f 96 84 69
f 81 96 69
f 97 47 51
f 98 51 74
f 97 51 98
f 99 48 47
f 99 47 97
f 83 100 86
f 84 101 83
f 101 100 83
f 67 65 102
f 65 66 103
f 65 103 102
f 76 67 104
f 67 102 104
f 74 73 105
f 73 82 106
f 105 73 106
f 107 81 72
f 94 107 72
f 86 108 85
f 100 109 86
f 86 109 108
f 85 108 110
f 85 110 87
f 63 79 111
f 63 111 92
f 66 75 112
f 66 112 103
f 82 76 113
f 76 104 113
f 114 62 78
f 114 95 62
f 77 87 115
f 77 115 91
f 116 101 84
f 96 116 84
f 117 74 105
f 98 74 117
f 118 64 48
f 118 48 99
f 75 80 119
f 75 119 112
f 120 96 81
f 107 120 81
f 100 121 109
f 101 122 100
f 122 121 100
f 82 113 123
f 106 82 123
f 109 124 108
f 121 125 109
f 109 125 124
f 126 89 88
f 127 94 89
f 126 127 89
f 128 88 90
f 128 126 88
f 79 91 129
f 79 129 111
f 108 124 130
f 108 130 110
f 87 110 131
f 87 131 115
f 80 92 132
f 80 132 119
f 133 107 94
f 127 133 94
f 134 90 95
f 134 128 90
f 135 114 78
f 135 78 93
f 136 122 101
f 116 136 101
f 137 116 96
f 120 137 96
f 104 102 138
f 102 103 139
f 102 139 138
f 113 104 140
f 104 138 140
f 121 141 125
f 125 142 124
f 141 143 125
f 125 143 142
f 122 144 121
f 144 141 121
f 145 120 107
f 133 145 107
f 103 112 146
f 103 146 139
f 113 140 147
f 123 113 147
f 105 106 148
f 106 123 149
f 148 106 149
f 124 142 150
f 124 150 130
f 91 115 151
f 91 151 129
f 152 95 114
f 152 134 95
f 92 111 153
f 92 153 132
f 110 130 154
f 110 154 131
f 140 127 126
f 140 138 127
f 138 133 127
f 147 140 126
f 147 126 128
f 112 119 155
f 112 155 146
f 117 105 156
f 156 105 148
f 157 93 64
f 157 64 118
f 138 139 133
f 158 144 122
f 136 158 122
f 137 159 116
f 159 136 116
f 145 160 120
f 160 137 120
f 139 145 133
f 141 161 143
f 143 162 142
f 161 163 143
f 143 163 162
f 164 147 128
f 164 128 134
f 123 147 164
f 149 123 164
f 165 161 141
f 144 165 141
f 139 146 145
f 142 162 166
f 142 166 150
f 119 132 167
f 119 167 155
f 146 160 145
f 130 150 168
f 130 168 154
f 115 131 169
f 115 169 151
f 111 129 170
f 111 170 153
f 146 155 160
f 171 152 114
f 171 114 135
f 161 172 163
f 163 173 162
f 163 174 173
f 172 174 163
f 175 164 134
f 175 134 152
f 160 176 137
f 176 159 137
f 177 172 161
f 165 177 161
f 162 173 178
f 162 178 166
f 179 165 144
f 158 179 144
f 159 180 136
f 180 158 136
f 149 164 175
f 181 97 98
f 182 98 117
f 181 98 182
f 148 149 183
f 183 149 175
f 155 176 160
f 184 99 97
f 184 97 181
f 150 166 185
f 150 185 168
f 132 186 167
f 132 153 186
f 155 167 176
f 174 187 173
f 172 188 174
f 174 189 187
f 188 189 174
f 131 154 190
f 131 190 169
f 129 151 191
f 129 191 170
f 173 187 192
f 173 192 178
f 193 188 172
f 177 193 172
f 194 177 165
f 179 194 165
f 195 117 156
f 182 117 195
f 176 196 159
f 196 180 159
f 156 148 197
f 197 148 183
f 198 135 93
f 198 93 157
f 199 175 152
f 199 152 171
f 180 200 158
f 200 179 158
f 167 196 176
f 166 178 201
f 166 201 185
f 183 175 199
f 189 202 187
f 188 203 189
f 189 204 202
f 203 204 189
f 167 186 196
f 153 205 186
f 153 170 205
f 187 202 206
f 187 206 192
f 207 203 188
f 193 207 188
f 154 168 208
f 154 208 190
f 209 118 99
f 209 99 184
f 210 193 177
f 194 210 177
f 151 169 211
f 151 211 191
f 204 212 202
f 203 213 204
f 204 214 212
f 213 214 204
f 178 192 215
f 178 215 201
f 196 216 180
f 216 200 180
f 202 212 217
f 202 217 206
f 218 213 203
f 207 218 203
f 219 194 179
f 200 219 179
f 186 216 196
f 168 185 220
f 168 220 208
f 186 205 216
f 214 221 212
f 213 222 214
f 214 223 221
f 222 223 214
f 224 207 193
f 210 224 193
f 170 225 205
f 170 191 225
f 226 156 197
f 195 156 226
f 192 206 227
f 192 227 215
f 212 221 228
f 212 228 217
f 229 222 213
f 218 229 213
f 169 190 230
f 169 230 211
f 231 183 199
f 197 183 231
f 232 171 135
f 232 135 198
f 233 210 194
f 219 233 194
f 223 234 221
f 222 235 223
f 223 236 234
f 235 236 223
f 216 237 200
f 237 219 200
f 185 201 238
f 185 238 220
f 221 234 239
f 221 239 228
f 240 218 207
f 224 240 207
f 205 237 216
f 206 217 241
f 206 241 227
f 242 235 222
f 229 242 222
f 205 225 237
f 236 243 234
f 236 244 243
f 245 244 236
f 235 245 236
f 191 246 225
f 191 211 246
f 247 157 118
f 247 118 209
f 234 243 248
f 234 248 239
f 190 208 249
f 190 249 230
f 244 250 243
f 244 251 250
f 252 251 244
f 245 252 244
f 253 245 235
f 242 253 235
f 217 228 254
f 217 254 241
f 255 229 218
f 240 255 218
f 201 215 256
f 201 256 238
f 257 224 210
f 233 257 210
f 258 199 171
f 231 199 258
f 258 171 232
f 243 250 259
f 243 259 248
f 237 260 219
f 260 233 219
f 251 261 250
f 251 262 261
f 263 262 251
f 252 263 251
f 225 260 237
f 250 261 264
f 250 264 259
f 265 252 245
f 253 265 245
f 228 239 266
f 228 266 254
f 262 267 261
f 263 268 262
f 262 269 267
f 268 269 262
f 208 220 270
f 208 270 249
f 225 246 260
f 271 242 229
f 255 271 229
f 215 227 272
f 215 272 256
f 273 240 224
f 257 273 224
f 211 230 274
f 211 274 246
f 275 197 231
f 226 197 275
f 261 267 276
f 261 276 264
f 277 263 252
f 265 277 252
f 239 248 278
f 239 278 266
f 260 279 233
f 279 257 233
f 280 268 263
f 277 280 263
f 281 253 242
f 271 281 242
f 269 282 267
f 268 283 269
f 283 284 269
f 269 284 282
f 227 241 285
f 227 285 272
f 248 259 286
f 248 286 278
f 220 238 287
f 220 287 270
f 267 288 276
f 267 282 288
f 289 283 268
f 280 289 268
f 290 255 240
f 273 290 240
f 246 279 260
f 230 249 291
f 230 291 274
f 292 182 195
f 293 181 182
f 293 182 292
f 246 274 279
f 259 264 294
f 259 294 286
f 295 265 253
f 281 295 253
f 296 198 157
f 296 157 247
f 241 254 297
f 241 297 285
f 279 298 257
f 298 273 257
f 264 276 299
f 264 299 294
f 300 195 226
f 292 195 300
f 238 256 301
f 238 301 287
f 283 302 284
f 289 303 283
f 303 302 283
f 304 277 265
f 295 304 265
f 305 271 255
f 290 305 255
f 306 184 181
f 306 181 293
f 274 298 279
f 254 266 307
f 254 307 297
f 249 270 308
f 249 308 291
f 274 291 298
f 284 309 282
f 302 310 284
f 284 310 309
f 311 280 277
f 304 311 277
f 276 288 312
f 276 312 299
f 298 313 273
f 313 290 273
f 314 231 258
f 275 231 314
f 282 315 288
f 282 309 315
f 316 281 271
f 305 316 271
f 256 272 317
f 256 317 301
f 266 278 318
f 266 318 307
f 319 289 280
f 311 319 280
f 320 303 289
f 319 320 289
f 270 287 321
f 270 321 308
f 291 313 298
f 278 286 322
f 278 322 318
f 291 308 313
f 323 295 281
f 316 323 281
f 303 324 302
f 302 325 310
f 324 325 302
f 272 285 326
f 272 326 317
f 313 327 290
f 327 305 290
f 328 232 198
f 328 198 296
f 329 226 275
f 300 226 329
f 286 294 330
f 286 330 322
f 331 209 184
f 331 184 306
f 294 299 332
f 294 332 330
f 333 324 303
f 320 333 303
f 334 304 295
f 323 334 295
f 287 301 335
f 287 335 321
f 308 327 313
f 288 315 336
f 288 336 312
f 285 297 337
f 285 337 326
f 338 258 232
f 314 258 338
f 327 339 305
f 339 316 305
f 308 321 327
f 338 232 328
f 310 340 309
f 325 341 310
f 310 341 340
f 342 311 304
f 334 342 304
f 309 343 315
f 309 340 343
f 299 312 344
f 299 344 332
f 297 307 345
f 297 345 337
f 301 317 346
f 301 346 335
f 321 339 327
f 347 319 311
f 342 347 311
f 348 323 316
f 339 348 316
f 321 335 339
f 349 320 319
f 347 349 319
f 307 318 350
f 307 350 345
f 324 351 325
f 325 352 341
f 351 352 325
f 333 353 324
f 353 351 324
f 354 333 320
f 349 354 320
f 317 326 355
f 317 355 346
f 318 322 356
f 318 356 350
f 357 334 323
f 348 357 323
f 335 348 339
f 358 275 314
f 329 275 358
f 335 346 348
f 315 359 336
f 315 343 359
f 322 330 360
f 322 360 356
f 361 247 209
f 361 209 331
f 362 342 334
f 357 362 334
f 326 337 363
f 326 363 355
f 312 336 364
f 312 364 344
f 330 332 365
f 330 365 360
f 354 366 333
f 366 353 333
f 346 357 348
f 346 355 357
f 367 347 342
f 362 367 342
f 337 345 368
f 337 368 363
f 341 369 340
f 352 370 341
f 341 370 369
f 355 362 357
f 340 371 343
f 340 369 371
f 332 344 372
f 332 372 365
f 373 349 347
f 367 373 347
f 345 350 374
f 345 374 368
f 355 363 362
f 351 375 352
f 353 376 351
f 376 375 351
f 377 354 349
f 373 377 349
f 363 367 362
f 378 366 354
f 377 378 354
f 350 356 379
f 350 379 374
f 363 368 367
f 352 380 370
f 375 380 352
f 366 381 353
f 381 376 353
f 356 360 382
f 356 382 379
f 368 373 367
f 383 314 338
f 358 314 383
f 336 359 384
f 336 384 364
f 360 365 385
f 360 385 382
f 368 374 373
f 386 296 247
f 386 247 361
f 343 387 359
f 343 371 387
f 378 388 366
f 388 381 366
f 374 377 373
f 344 364 389
f 344 389 372
f 374 379 377
f 390 292 300
f 391 293 292
f 391 292 390
f 379 378 377
f 365 392 385
f 365 372 392
f 379 382 378
f 382 388 378
f 393 300 329
f 390 300 393
f 382 385 388
f 370 394 369
f 380 395 370
f 370 395 394
f 369 396 371
f 369 394 396
f 397 306 293
f 397 293 391
f 376 398 375
f 375 399 380
f 398 399 375
f 381 400 376
f 400 398 376
f 401 338 328
f 383 338 401
f 388 402 381
f 385 402 388
f 403 328 296
f 403 296 386
f 402 400 381
f 385 392 402
f 404 329 358
f 393 329 404
f 380 405 395
f 399 405 380
f 401 328 403
f 359 406 384
f 359 387 406
f 364 407 389
f 364 384 407
f 372 408 392
f 372 389 408
f 371 409 387
f 371 396 409
f 392 410 402
f 402 410 400
f 411 331 306
f 411 306 397
f 392 408 410
f 400 412 398
f 410 412 400
f 395 413 394
f 405 414 395
f 395 414 413
f 398 415 399
f 412 415 398
f 394 416 396
f 394 413 416
f 399 417 405
f 415 417 399
f 389 418 408
f 389 407 418
f 419 358 383
f 404 358 419
f 384 420 407
f 384 406 420
f 405 421 414
f 417 421 405
f 387 422 406
f 387 409 422
f 408 423 410
f 410 423 412
f 408 418 423
f 396 424 409
f 396 416 424
f 425 361 331
f 425 331 411
f 426 427 428
f 429 427 426
f 426 428 430
f 431 426 430
f 432 426 431
f 432 429 426
f 427 433 428
f 429 434 427
f 434 435 427
f 427 435 433
f 430 428 436
f 431 430 437
f 437 430 438
f 430 436 438
f 412 439 415
f 423 439 412
f 428 440 436
f 428 433 440
f 441 431 437
f 442 432 431
f 442 431 441
f 415 443 417
f 439 443 415
f 444 434 429
f 445 429 432
f 445 444 429
f 437 438 446
f 441 437 447
f 447 437 446
f 414 448 413
f 421 449 414
f 414 449 448
f 407 450 418
f 407 420 450
f 451 383 401
f 419 383 451
f 434 452 435
f 453 452 434
f 444 453 434
f 413 454 416
f 413 448 454
f 417 455 421
f 443 455 417
f 438 436 456
f 446 438 457
f 438 456 457
f 406 458 420
f 406 422 458
f 435 459 433
f 452 460 435
f 435 460 459
f 436 440 461
f 436 461 456
f 462 432 442
f 462 445 432
f 418 463 423
f 423 463 439
f 433 464 440
f 433 459 464
f 421 465 449
f 455 465 421
f 409 466 422
f 409 424 466
f 418 450 463
f 467 386 361
f 467 361 425
f 468 441 447
f 469 442 441
f 469 441 468
f 447 446 470
f 446 457 471
f 470 446 471
f 472 447 470
f 468 447 472
f 416 473 424
f 416 454 473
f 453 474 452
f 474 475 452
f 452 475 460
f 476 453 444
f 477 444 445
f 477 476 444
f 478 401 403
f 451 401 478
f 440 479 461
f 440 464 479
f 480 474 453
f 476 480 453
f 439 481 443
f 463 481 439
f 482 390 393
f 483 391 390
f 483 390 482
f 484 462 442
f 484 442 469
f 485 393 404
f 482 393 485
f 486 403 386
f 486 386 467
f 457 456 487
f 471 457 488
f 457 487 488
f 456 461 489
f 456 489 487
f 490 445 462
f 490 477 445
f 472 470 491
f 470 471 492
f 491 470 492
f 449 493 448
f 465 494 449
f 449 494 493
f 443 495 455
f 481 495 443
f 420 496 450
f 420 458 496
f 478 403 486
f 448 497 454
f 448 493 497
f 498 468 472
f 499 469 468
f 499 468 498
f 455 500 465
f 495 500 455
f 501 397 391
f 501 391 483
f 502 472 491
f 498 472 502
f 471 488 503
f 492 471 503
f 480 504 474
f 474 505 475
f 504 505 474
f 422 506 458
f 422 466 506
f 450 507 463
f 463 507 481
f 508 404 419
f 485 404 508
f 460 509 459
f 475 510 460
f 460 510 509
f 465 511 494
f 500 511 465
f 450 496 507
f 459 512 464
f 459 509 512
f 424 513 466
f 424 473 513
f 461 514 489
f 461 479 514
f 515 480 476
f 516 476 477
f 516 515 476
f 517 462 484
f 517 490 462
f 518 484 469
f 518 469 499
f 519 504 480
f 515 519 480
f 454 520 473
f 454 497 520
f 505 521 475
f 475 521 510
f 491 492 522
f 502 491 523
f 523 491 522
f 488 487 524
f 503 488 525
f 488 524 525
f 492 503 526
f 522 492 526
f 487 489 527
f 487 527 524
f 528 477 490
f 528 516 477
f 481 529 495
f 507 529 481
f 494 530 493
f 511 531 494
f 494 531 530
f 464 532 479
f 464 512 532
f 533 498 502
f 534 499 498
f 534 498 533
f 535 411 397
f 535 397 501
f 493 536 497
f 493 530 536
f 537 502 523
f 533 502 537
f 495 538 500
f 529 538 495
f 458 539 496
f 458 506 539
f 504 540 505
f 519 541 504
f 541 540 504
f 503 525 542
f 526 503 542
f 500 543 511
f 538 543 500
f 544 419 451
f 508 419 544
f 545 484 518
f 545 517 484
f 546 499 534
f 546 518 499
f 511 547 531
f 543 547 511
f 548 519 515
f 549 515 516
f 549 548 515
f 540 550 505
f 505 550 521
f 489 551 527
f 489 514 551
f 548 552 519
f 552 541 519
f 466 553 506
f 466 513 553
f 496 554 507
f 507 554 529
f 555 490 517
f 555 528 490
f 473 520 556
f 473 556 513
f 496 539 554
f 525 524 557
f 542 525 558
f 525 557 558
f 523 522 559
f 537 523 560
f 560 523 559
f 497 536 561
f 497 561 520
f 522 526 562
f 559 522 562
f 524 563 557
f 524 527 563
f 564 549 516
f 564 516 528
f 565 533 537
f 566 534 533
f 566 533 565
f 531 567 530
f 547 568 531
f 531 568 567
f 479 569 514
f 479 532 569
f 526 542 570
f 562 526 570
f 565 537 571
f 571 537 560
f 530 567 572
f 530 572 536
f 558 552 548
f 573 558 548
f 573 548 549
f 542 558 573
f 570 542 573
f 574 425 411
f 574 411 535
f 552 575 541
f 558 557 552
f 557 575 552
f 541 576 540
f 575 576 541
f 557 563 575
f 529 577 538
f 554 577 529
f 578 534 566
f 578 546 534
f 579 518 546
f 579 545 518
f 543 580 547
f 547 581 568
f 580 581 547
f 538 582 543
f 582 580 543
f 583 451 478
f 544 451 583
f 527 584 563
f 527 551 584
f 577 582 538
f 585 573 549
f 585 549 564
f 586 517 545
f 586 555 517
f 568 587 567
f 568 588 587
f 581 588 568
f 506 589 539
f 506 553 589
f 510 590 509
f 521 591 510
f 510 591 590
f 592 565 571
f 593 565 592
f 593 566 565
f 509 594 512
f 509 590 594
f 576 595 540
f 540 595 550
f 570 573 585
f 596 564 528
f 596 528 555
f 571 560 597
f 560 559 598
f 597 560 598
f 592 571 599
f 599 571 597
f 567 587 600
f 567 600 572
f 536 572 601
f 536 601 561
f 559 562 602
f 598 559 602
f 563 603 575
f 575 603 576
f 520 561 604
f 520 604 556
f 513 605 553
f 513 556 605
f 563 584 603
f 562 570 606
f 606 570 585
f 602 562 606
f 588 592 599
f 607 592 588
f 588 599 587
f 581 607 588
f 514 608 551
f 514 569 608
f 607 593 592
f 587 599 609
f 587 609 600
f 539 610 554
f 554 610 577
f 521 611 591
f 550 611 521
f 539 589 610
f 612 566 593
f 612 578 566
f 599 597 609
f 613 607 581
f 580 613 581
f 614 467 425
f 614 425 574
f 512 594 615
f 512 615 532
f 616 585 564
f 616 564 596
f 606 585 616
f 617 546 578
f 617 579 546
f 597 598 618
f 609 597 618
f 619 593 607
f 613 619 607
f 572 600 620
f 572 620 601
f 582 621 580
f 621 613 580
f 622 478 486
f 583 478 622
f 591 623 590
f 611 624 591
f 591 624 623
f 619 612 593
f 590 625 594
f 590 623 625
f 626 545 579
f 626 586 545
f 577 627 582
f 610 627 577
f 628 596 555
f 628 555 586
f 603 629 576
f 576 629 595
f 627 621 582
f 598 602 630
f 618 598 630
f 600 609 631
f 600 631 620
f 609 618 631
f 561 601 632
f 561 632 604
f 551 633 584
f 551 608 633
f 602 606 634
f 634 606 616
f 553 635 589
f 553 605 635
f 636 486 467
f 636 467 614
f 550 637 611
f 611 638 624
f 637 638 611
f 595 637 550
f 630 602 634
f 622 486 636
f 556 604 639
f 556 639 605
f 640 482 485
f 641 483 482
f 641 482 640
f 642 578 612
f 642 617 578
f 643 619 613
f 621 643 613
f 644 485 508
f 640 485 644
f 594 645 615
f 594 625 645
f 532 615 646
f 532 646 569
f 584 647 603
f 603 647 629
f 648 616 596
f 648 596 628
f 589 649 610
f 610 649 627
f 584 633 647
f 634 616 648
f 589 635 649
f 650 612 619
f 643 650 619
f 624 651 623
f 638 652 624
f 624 652 651
f 631 618 653
f 618 630 653
f 650 642 612
f 601 620 654
f 601 654 632
f 655 579 617
f 655 626 579
f 623 656 625
f 623 651 656
f 657 501 483
f 657 483 641
f 658 628 586
f 658 586 626
f 627 659 621
f 659 643 621
f 637 660 638
f 595 661 637
f 661 660 637
f 649 659 627
f 662 508 544
f 644 508 662
f 620 631 663
f 620 663 654
f 631 653 663
f 638 664 652
f 660 664 638
f 630 634 665
f 665 634 648
f 653 630 665
f 629 661 595
f 604 632 666
f 604 666 639
f 605 667 635
f 605 639 667
f 615 645 668
f 615 668 646
f 625 669 645
f 625 656 669
f 569 646 670
f 569 670 608
f 671 648 628
f 671 628 658
f 672 617 642
f 672 655 617
f 673 650 643
f 659 673 643
f 665 648 671
f 635 674 649
f 649 674 659
f 675 535 501
f 675 501 657
f 652 676 651
f 664 677 652
f 652 677 676
f 635 667 674
f 678 658 626
f 678 626 655
f 651 679 656
f 651 676 679
f 653 665 680
f 663 653 680
f 681 642 650
f 673 681 650
f 681 672 642
f 632 654 682
f 632 682 666
f 674 673 659
f 661 683 660
f 660 684 664
f 683 684 660
f 685 544 583
f 662 544 685
f 629 686 661
f 686 683 661
f 680 665 671
f 647 686 629
f 664 687 677
f 684 687 664
f 639 688 667
f 639 666 688
f 654 663 689
f 654 689 682
f 663 680 689
f 645 690 668
f 645 669 690
f 646 691 670
f 646 668 691
f 608 692 633
f 608 670 692
f 656 693 669
f 656 679 693
f 694 671 658
f 694 658 678
f 680 671 694
f 695 655 672
f 695 678 655
f 674 696 673
f 696 681 673
f 667 696 674
f 633 697 647
f 647 697 686
f 667 688 696
f 633 692 697
f 689 680 694
f 666 682 698
f 666 698 688
f 699 574 535
f 699 535 675
f 677 700 676
f 687 701 677
f 677 701 700
f 686 702 683
f 697 702 686
f 703 672 681
f 703 695 672
f 696 703 681
f 683 704 684
f 702 704 683
f 676 705 679
f 676 700 705
f 684 706 687
f 704 706 684
f 707 583 622
f 685 583 707
f 670 708 692
f 670 691 708
f 709 694 678
f 709 678 695
f 682 689 709
f 682 709 698
f 689 694 709
f 688 703 696
f 668 710 691
f 668 690 710
f 687 711 701
f 706 711 687
f 669 712 690
f 669 693 712
f 688 698 703
f 692 713 697
f 697 713 702
f 679 714 693
f 679 705 714
f 692 708 713
f 698 695 703
f 698 709 695
f 715 614 574
f 715 574 699
f 702 716 704
f 713 716 702
f 717 622 636
f 707 622 717
f 704 718 706
f 716 718 704
f 701 719 700
f 711 720 701
f 701 720 719
f 691 721 708
f 691 710 721
f 706 722 711
f 718 722 706
f 700 723 705
f 700 719 723
f 690 724 710
f 690 712 724
f 725 636 614
f 725 614 715
f 708 726 713
f 713 726 716
f 693 727 712
f 693 714 727
f 717 636 725
f 722 728 711
f 711 728 720
f 708 721 726
f 705 729 714
f 705 723 729
f 730 640 644
f 731 641 640
f 731 640 730
f 716 732 718
f 726 732 716
f 733 644 662
f 730 644 733
f 718 734 722
f 732 734 718
f 710 735 721
f 710 724 735
f 736 657 641
f 736 641 731
f 722 737 728
f 734 737 722
f 720 738 719
f 728 739 720
f 720 739 738
f 719 740 723
f 719 738 740
f 712 741 724
f 712 727 741
f 721 742 726
f 726 742 732
f 721 735 742
f 743 662 685
f 733 662 743
f 714 744 727
f 714 729 744
f 737 745 728
f 728 745 739
f 723 746 729
f 723 740 746
f 732 747 734
f 742 747 732
f 748 675 657
f 748 657 736
f 724 749 735
f 724 741 749
f 734 750 737
f 747 750 734
f 737 751 745
f 750 751 737
f 752 685 707
f 743 685 752
f 735 753 742
f 742 753 747
f 739 754 738
f 745 755 739
f 739 755 754
f 727 756 741
f 727 744 756
f 735 749 753
f 738 757 740
f 738 754 757
f 729 758 744
f 729 746 758
f 751 759 745
f 745 759 755
f 747 760 750
f 753 760 747
f 761 699 675
f 761 675 748
f 740 762 746
f 740 757 762
f 741 763 749
f 741 756 763
f 750 764 751
f 760 764 750
f 765 707 717
f 752 707 765
f 749 766 753
f 753 766 760
f 751 767 759
f 764 767 751
f 749 763 766
f 744 768 756
f 744 758 768
f 755 769 754
f 759 770 755
f 755 770 769
f 754 771 757
f 754 769 771
f 772 715 699
f 772 699 761
f 746 773 758
f 746 762 773
f 767 774 759
f 759 774 770
f 760 775 764
f 766 775 760
f 776 717 725
f 765 717 776
f 757 777 762
f 757 771 777
f 756 778 763
f 756 768 778
f 779 725 715
f 779 715 772
f 764 780 767
f 775 780 764
f 776 725 779
f 763 781 766
f 766 781 775
f 767 782 774
f 780 782 767
f 763 778 781
f 758 783 768
f 758 773 783
f 770 784 769
f 774 785 770
f 770 785 784
f 769 786 771
f 769 784 786
f 787 730 733
f 788 731 730
f 788 730 787
f 762 789 773
f 762 777 789
f 782 790 774
f 774 790 785
f 775 791 780
f 781 791 775
f 792 733 743
f 787 733 792
f 793 736 731
f 793 731 788
f 771 794 777
f 771 786 794
f 768 795 778
f 768 783 795
f 780 796 782
f 791 796 780
f 778 797 781
f 781 797 791
f 778 795 797
f 798 743 752
f 792 743 798
f 782 799 790
f 796 799 782
f 773 800 783
f 773 789 800
f 801 748 736
f 801 736 793
f 785 802 784
f 790 803 785
f 785 803 802
f 784 804 786
f 784 802 804
f 777 805 789
f 777 794 805
f 799 806 790
f 790 806 803
f 791 807 796
f 797 807 791
f 786 808 794
f 786 804 808
f 783 809 795
f 783 800 809
f 810 752 765
f 798 752 810
f 796 811 799
f 807 811 796
f 812 761 748
f 812 748 801
f 795 813 797
f 797 813 807
f 795 809 813
f 799 814 806
f 811 814 799
f 803 815 802
f 806 816 803
f 803 816 815
f 789 817 800
f 789 805 817
f 802 818 804
f 802 815 818
f 814 819 806
f 806 819 816
f 794 820 805
f 794 808 820
f 807 821 811
f 813 821 807
f 822 765 776
f 810 765 822
f 823 772 761
f 823 761 812
f 804 824 808
f 804 818 824
f 800 825 809
f 800 817 825
f 811 826 814
f 821 826 811
f 809 827 813
f 813 827 821
f 814 828 819
f 826 828 814
f 809 825 827
f 829 776 779
f 822 776 829
f 805 830 817
f 805 820 830
f 831 779 772
f 831 772 823
f 829 779 831
f 808 832 820
f 808 824 832
f 821 833 826
f 827 833 821
f 826 834 828
f 833 834 826
f 817 835 825
f 817 830 835
f 836 788 787
f 837 787 792
f 836 787 837
f 825 838 827
f 827 838 833
f 839 793 788
f 839 788 836
f 825 835 838
f 820 840 830
f 820 832 840
f 841 792 798
f 837 792 841
f 842 801 793
f 842 793 839
f 833 843 834
f 838 843 833
f 830 844 835
f 830 840 844
f 845 798 810
f 841 798 845
f 835 846 838
f 838 846 843
f 835 844 846
f 847 812 801
f 847 801 842
f 848 810 822
f 845 810 848
f 849 823 812
f 849 812 847
f 850 822 829
f 848 822 850
f 851 831 823
f 851 823 849
f 852 829 831
f 850 829 852
f 852 831 851
f 853 836 837
f 854 839 836
f 854 836 853
f 855 837 841
f 853 837 855
f 856 842 839
f 856 839 854
f 857 841 845
f 855 841 857
f 858 847 842
f 858 842 856
f 859 845 848
f 857 845 859
f 860 849 847
f 860 847 858
f 861 848 850
f 859 848 861
f 862 851 849
f 862 849 860
f 863 850 852
f 861 850 863
f 864 852 851
f 864 851 862
f 865 854 853
f 866 853 855
f 865 853 866
f 863 852 864
f 867 856 854
f 867 854 865
f 868 855 857
f 866 855 868
f 869 858 856
f 869 856 867
f 870 857 859
f 868 857 870
f 871 860 858
f 871 858 869
f 872 859 861
f 870 859 872
f 873 862 860
f 873 860 871
f 874 861 863
f 872 861 874
f 875 864 862
f 875 862 873
f 876 863 864
f 874 863 876
f 876 864 875
