# 
# Wavefront OBJ file
# Created with Kaydara FBX
# 
mtllib c:\users\tjvan\onedrive\documenten\fontys\minor\nx\.mtlmodels\anterior_horn_of_lateral_meniscus.r.obj

g Anterior_horn_of_Lateral_meniscus_r
v -0.086054 0.433135 -0.016669
v -0.085974 0.432607 -0.015373
v -0.086070 0.433043 -0.015345
v -0.085750 0.433446 -0.016608
v -0.085985 0.433016 -0.014362
v -0.085727 0.433359 -0.014391
v -0.085783 0.433386 -0.015334
v -0.085931 0.432729 -0.016700
v -0.085740 0.432915 -0.018517
v -0.085840 0.433307 -0.018468
v -0.085929 0.432571 -0.014403
v -0.085713 0.432648 -0.013643
v -0.085749 0.433051 -0.013625
v -0.085599 0.432284 -0.015418
v -0.085423 0.432260 -0.013766
v -0.085560 0.432234 -0.014502
v -0.085372 0.432646 -0.018484
v -0.085551 0.432436 -0.016696
v -0.085327 0.433563 -0.020635
v -0.085530 0.433559 -0.018339
v -0.085024 0.433800 -0.020426
v -0.085294 0.433554 -0.016535
v -0.085323 0.433501 -0.014423
v -0.085334 0.433525 -0.015324
v -0.085278 0.433105 -0.020705
v -0.085552 0.433342 -0.013681
v -0.085466 0.432701 -0.013260
v -0.085263 0.433229 -0.013189
v -0.085416 0.432972 -0.013140
v -0.085108 0.431993 -0.015473
v -0.084905 0.431889 -0.013997
v -0.085035 0.431902 -0.014629
v -0.084964 0.432439 -0.018416
v -0.085094 0.432181 -0.016674
v -0.085240 0.433449 -0.013737
v -0.085085 0.433332 -0.013387
v -0.085101 0.433631 -0.018183
v -0.084645 0.433831 -0.020179
v -0.085193 0.432396 -0.013276
v -0.084955 0.432639 -0.013083
v -0.084952 0.432823 -0.020614
v -0.084870 0.433465 -0.014408
v -0.084793 0.433531 -0.016442
v -0.084849 0.433500 -0.015297
v -0.083815 0.433224 -0.022588
v -0.083815 0.433676 -0.022549
v -0.083602 0.432906 -0.022379
v -0.084778 0.432931 -0.013160
v -0.084789 0.433358 -0.013807
v -0.084716 0.431982 -0.013536
v -0.084463 0.431654 -0.015553
v -0.084456 0.432205 -0.018290
v -0.084516 0.431890 -0.016628
v -0.084720 0.433168 -0.013402
v -0.084634 0.433601 -0.018014
v -0.084339 0.431507 -0.014820
v -0.083371 0.434010 -0.021908
v -0.083620 0.433986 -0.022265
v -0.084537 0.432604 -0.020462
v -0.084461 0.432223 -0.013274
v -0.083316 0.432647 -0.022125
v -0.084030 0.431490 -0.013807
v -0.084205 0.431450 -0.014261
v -0.084334 0.433366 -0.015233
v -0.084193 0.433106 -0.013932
v -0.084293 0.433272 -0.014441
v -0.084235 0.433408 -0.016323
v -0.084246 0.432559 -0.013316
v -0.083779 0.431719 -0.013523
v -0.084158 0.432862 -0.013573
v -0.084213 0.433766 -0.019898
v -0.084095 0.433498 -0.017828
v -0.083751 0.433648 -0.019621
v -0.084041 0.432398 -0.020269
v -0.082913 0.432414 -0.021844
v -0.083767 0.431533 -0.016618
v -0.083811 0.431927 -0.018178
v -0.083434 0.431011 -0.015066
v -0.083625 0.431233 -0.015715
v -0.083553 0.432083 -0.013546
v -0.083483 0.432911 -0.014607
v -0.083615 0.433087 -0.015267
v -0.083419 0.432443 -0.013764
v -0.083494 0.433322 -0.017625
v -0.083636 0.433202 -0.016177
v -0.083259 0.430879 -0.014533
v -0.082711 0.433740 -0.021160
v -0.083068 0.433909 -0.021533
v -0.083404 0.432713 -0.014139
v -0.083202 0.433473 -0.019319
v -0.083483 0.432184 -0.020081
v -0.082442 0.432181 -0.021500
v -0.083069 0.430877 -0.014097
v -0.082629 0.431013 -0.016721
v -0.082733 0.431891 -0.019870
v -0.082845 0.431527 -0.018113
v -0.081986 0.433470 -0.023496
v -0.082032 0.433079 -0.023541
v -0.082811 0.431087 -0.013815
v -0.082569 0.432605 -0.015449
v -0.082712 0.432805 -0.016152
v -0.082393 0.430659 -0.016029
v -0.081639 0.433821 -0.022960
v -0.081837 0.433764 -0.023283
v -0.081893 0.432785 -0.023329
v -0.082397 0.431834 -0.014000
v -0.082557 0.431458 -0.013808
v -0.082758 0.433029 -0.017361
v -0.081868 0.431869 -0.021072
v -0.082366 0.432137 -0.014357
v -0.082438 0.432397 -0.014863
v -0.081990 0.430154 -0.014888
v -0.082186 0.430352 -0.015416
v -0.081701 0.432549 -0.023059
v -0.081779 0.430097 -0.014470
v -0.082502 0.433199 -0.018950
v -0.082300 0.433502 -0.020725
v -0.081791 0.433190 -0.020208
v -0.081505 0.430345 -0.014238
v -0.081203 0.433531 -0.022226
v -0.081429 0.433729 -0.022637
v -0.081481 0.432307 -0.022745
v -0.081734 0.431435 -0.019470
v -0.081404 0.430935 -0.018135
v -0.081161 0.432076 -0.016410
v -0.081200 0.432604 -0.018582
v -0.081244 0.432321 -0.017239
v -0.080795 0.429943 -0.016467
v -0.081048 0.430359 -0.017061
v -0.081005 0.431668 -0.015197
v -0.081073 0.431872 -0.015777
v -0.081256 0.430728 -0.014234
v -0.081022 0.432738 -0.019589
v -0.081190 0.432010 -0.022327
v -0.080996 0.431431 -0.014726
v -0.081070 0.431114 -0.014387
v -0.080647 0.432913 -0.021164
v -0.080947 0.433243 -0.021728
v -0.080577 0.429593 -0.015907
v -0.080585 0.433056 -0.024376
v -0.080547 0.432493 -0.024072
v -0.080661 0.432714 -0.024316
v -0.080368 0.429350 -0.015424
v -0.080414 0.432256 -0.023789
v -0.080876 0.431243 -0.020065
v -0.080822 0.431684 -0.021805
v -0.080185 0.433309 -0.023894
v -0.080384 0.433300 -0.024209
v -0.080105 0.429354 -0.015030
v -0.079806 0.430341 -0.018544
v -0.080257 0.432010 -0.023473
v -0.079637 0.430022 -0.014872
v -0.079848 0.429645 -0.014876
v -0.080063 0.431723 -0.023080
v -0.079835 0.432941 -0.023101
v -0.080012 0.433171 -0.023532
v -0.079644 0.431557 -0.017578
v -0.079801 0.431388 -0.022572
v -0.079806 0.431962 -0.018837
v -0.079485 0.431136 -0.016238
v -0.079565 0.431324 -0.016842
v -0.079482 0.430412 -0.015003
v -0.079417 0.430953 -0.015686
v -0.079231 0.429714 -0.017667
v -0.080140 0.432421 -0.020135
v -0.079404 0.430742 -0.015295
v -0.079632 0.432662 -0.022589
v -0.080022 0.431007 -0.020679
v -0.079191 0.430738 -0.021755
v -0.078625 0.428982 -0.016593
v -0.078857 0.429295 -0.017113
v -0.079487 0.432450 -0.025222
v -0.079524 0.431890 -0.024859
v -0.079602 0.432126 -0.025123
v -0.078963 0.431863 -0.020892
v -0.079385 0.432355 -0.021970
v -0.078434 0.428785 -0.016120
v -0.079420 0.431668 -0.024581
v -0.079037 0.432535 -0.024725
v -0.079232 0.432611 -0.025032
v -0.078193 0.428805 -0.015737
v -0.079289 0.431452 -0.024289
v -0.079134 0.431210 -0.023945
v -0.078650 0.429935 -0.019512
v -0.078058 0.429691 -0.020926
v -0.078869 0.432375 -0.024389
v -0.077976 0.429112 -0.015577
v -0.078450 0.431898 -0.023492
v -0.078689 0.432171 -0.024009
v -0.077621 0.429079 -0.018806
v -0.078914 0.430904 -0.023471
v -0.078521 0.431331 -0.019498
v -0.077699 0.429863 -0.015690
v -0.077811 0.429485 -0.015564
v -0.078022 0.430651 -0.017449
v -0.078189 0.430880 -0.018175
v -0.078526 0.431252 -0.025682
v -0.078523 0.431792 -0.026057
v -0.078610 0.431498 -0.025949
v -0.077864 0.430485 -0.016855
v -0.077663 0.430171 -0.015964
v -0.077722 0.430347 -0.016356
v -0.078323 0.430864 -0.025162
v -0.078431 0.431051 -0.025428
v -0.078155 0.431578 -0.022800
v -0.078206 0.430659 -0.024810
v -0.078274 0.431907 -0.025881
v -0.078503 0.430422 -0.022851
v -0.078093 0.430427 -0.024314
v -0.077873 0.431632 -0.025273
v -0.078057 0.431800 -0.025585
v -0.077293 0.430661 -0.020253
v -0.077730 0.431127 -0.021650
v -0.078007 0.430206 -0.023648
v -0.076772 0.428514 -0.017408
v -0.077167 0.428674 -0.017876
v -0.077672 0.431427 -0.024890
v -0.077508 0.430701 -0.026411
v -0.077524 0.431234 -0.026969
v -0.077550 0.430949 -0.026757
v -0.076888 0.430297 -0.019024
v -0.077652 0.429686 -0.022371
v -0.077039 0.430835 -0.023548
v -0.077422 0.431168 -0.024331
v -0.076460 0.428458 -0.017049
v -0.077441 0.430345 -0.025675
v -0.077457 0.430519 -0.026091
v -0.077225 0.431233 -0.026408
v -0.077357 0.431312 -0.026729
v -0.077461 0.430024 -0.024504
v -0.077448 0.430185 -0.025174
v -0.075904 0.428659 -0.016429
v -0.076176 0.428452 -0.016681
v -0.076482 0.430423 -0.022255
v -0.076673 0.429237 -0.022324
v -0.076910 0.428969 -0.020642
v -0.076520 0.430056 -0.018243
v -0.077482 0.429854 -0.023678
v -0.076009 0.429779 -0.017264
v -0.076249 0.429905 -0.017694
v -0.076972 0.430960 -0.025572
v -0.077107 0.431114 -0.026045
v -0.075752 0.429083 -0.016408
v -0.075843 0.429652 -0.016890
v -0.075732 0.429459 -0.016591
v -0.076726 0.430715 -0.024913
v -0.076326 0.428767 -0.019279
v -0.076386 0.430464 -0.027154
v -0.076660 0.430217 -0.026473
v -0.076518 0.430335 -0.026861
v -0.077061 0.429821 -0.024524
v -0.076898 0.429621 -0.023733
v -0.076980 0.429942 -0.025150
v -0.076772 0.430135 -0.026125
v -0.076882 0.430032 -0.025690
v -0.076412 0.430701 -0.026606
v -0.076321 0.430664 -0.026927
v -0.076094 0.430017 -0.019839
v -0.076094 0.430095 -0.020802
v -0.075186 0.428649 -0.018640
v -0.075730 0.428704 -0.018857
v -0.076562 0.430706 -0.025855
v -0.076508 0.430718 -0.026228
v -0.076707 0.429699 -0.024477
v -0.076293 0.430412 -0.023974
v -0.075665 0.430060 -0.022579
v -0.076565 0.429749 -0.024931
v -0.075951 0.429163 -0.022435
v -0.075805 0.428817 -0.020636
v -0.076438 0.429549 -0.023900
v -0.076040 0.429812 -0.025622
v -0.076314 0.429788 -0.025325
v -0.075800 0.429829 -0.025845
v -0.076248 0.430456 -0.025318
v -0.075976 0.429536 -0.024124
v -0.075931 0.430310 -0.025630
v -0.075434 0.429768 -0.019477
v -0.075364 0.429883 -0.026234
v -0.075557 0.429814 -0.026085
v -0.075699 0.430205 -0.025851
v -0.074728 0.428586 -0.018457
v -0.075377 0.429110 -0.022605
v -0.075320 0.429483 -0.024455
v -0.075621 0.429525 -0.024296
v -0.075485 0.430084 -0.026052
v -0.075759 0.430170 -0.024252
v -0.074526 0.429524 -0.018788
v -0.074920 0.429623 -0.019088
v -0.075362 0.430011 -0.024441
v -0.074371 0.428532 -0.018303
v -0.075208 0.429766 -0.020951
v -0.075052 0.429350 -0.024632
v -0.073576 0.428952 -0.017931
v -0.073973 0.428474 -0.018144
v -0.073858 0.429331 -0.018247
v -0.074184 0.429439 -0.018511
v -0.075021 0.428751 -0.020654
v -0.075105 0.429844 -0.022756
v -0.074778 0.429689 -0.024749
v -0.075048 0.429885 -0.024587
v -0.074607 0.429572 -0.020965
v -0.074941 0.429023 -0.022702
v -0.074600 0.428912 -0.022806
v -0.074652 0.429386 -0.024874
v -0.074823 0.429169 -0.024820
v -0.074675 0.429679 -0.022851
v -0.074330 0.429515 -0.022935
v -0.074293 0.428809 -0.022936
v -0.074549 0.428720 -0.020683
v -0.074116 0.428696 -0.020694
v -0.074161 0.429428 -0.020907
v -0.073802 0.429061 -0.023116
v -0.073951 0.428785 -0.023081
v -0.074022 0.429306 -0.023028
v -0.073754 0.428680 -0.020728
v -0.073786 0.429295 -0.020852
v -0.073445 0.429141 -0.020807
v -0.073121 0.428934 -0.020781
v -0.073318 0.428684 -0.020770
usemtl Anterior_horn_of_Lateral_meniscus_rMaterial0
f 1 2 3
f 4 1 3
f 5 3 2
f 6 3 5
f 4 3 7
f 6 7 3
f 1 8 2
f 1 9 8
f 1 10 9
f 4 10 1
f 5 2 11
f 5 11 12
f 6 5 13
f 5 12 13
f 11 2 14
f 8 14 2
f 11 15 12
f 11 14 16
f 11 16 15
f 8 9 17
f 8 18 14
f 8 17 18
f 19 9 10
f 4 20 10
f 21 10 20
f 21 19 10
f 22 4 7
f 23 7 6
f 23 24 7
f 22 7 24
f 25 17 9
f 19 25 9
f 6 13 26
f 27 13 12
f 13 28 26
f 27 29 13
f 13 29 28
f 22 20 4
f 23 6 26
f 27 12 15
f 16 14 30
f 18 30 14
f 16 31 15
f 16 30 32
f 16 32 31
f 18 17 33
f 18 34 30
f 18 33 34
f 23 26 35
f 36 26 28
f 36 35 26
f 22 37 20
f 38 20 37
f 38 21 20
f 27 15 39
f 27 40 29
f 27 39 40
f 31 39 15
f 40 28 29
f 25 41 17
f 41 33 17
f 42 24 23
f 42 23 35
f 43 22 24
f 42 44 24
f 43 24 44
f 19 45 25
f 21 46 19
f 19 46 45
f 43 37 22
f 25 47 41
f 25 45 47
f 36 28 48
f 40 48 28
f 36 49 35
f 42 35 49
f 50 40 39
f 31 50 39
f 34 51 30
f 51 32 30
f 34 33 52
f 34 53 51
f 34 52 53
f 36 54 49
f 36 48 54
f 43 55 37
f 38 37 55
f 31 32 56
f 51 56 32
f 57 21 38
f 21 58 46
f 57 58 21
f 41 59 33
f 59 52 33
f 60 48 40
f 50 60 40
f 41 61 59
f 41 47 61
f 31 62 50
f 31 56 63
f 31 63 62
f 42 64 44
f 65 42 49
f 42 66 64
f 65 66 42
f 67 43 44
f 67 44 64
f 65 49 54
f 67 55 43
f 68 54 48
f 60 68 48
f 50 69 60
f 50 62 69
f 68 70 54
f 65 54 70
f 38 55 71
f 57 38 71
f 67 72 55
f 55 73 71
f 55 72 73
f 59 74 52
f 59 75 74
f 59 61 75
f 51 53 76
f 77 53 52
f 77 76 53
f 51 78 56
f 51 76 79
f 51 79 78
f 74 77 52
f 60 80 68
f 60 69 80
f 78 63 56
f 81 64 66
f 67 64 82
f 81 82 64
f 81 66 65
f 68 83 70
f 68 80 83
f 84 72 67
f 67 82 85
f 84 67 85
f 86 62 63
f 78 86 63
f 87 71 73
f 57 71 88
f 87 88 71
f 65 70 83
f 81 65 89
f 65 83 89
f 90 73 72
f 90 72 84
f 74 91 77
f 74 92 91
f 74 75 92
f 93 69 62
f 86 93 62
f 77 94 76
f 77 91 95
f 77 95 96
f 77 96 94
f 97 45 46
f 98 47 45
f 97 98 45
f 97 46 58
f 80 69 99
f 93 99 69
f 94 79 76
f 87 73 90
f 100 85 82
f 84 85 101
f 100 101 85
f 78 79 102
f 94 102 79
f 100 82 81
f 103 58 57
f 97 58 104
f 103 104 58
f 105 61 47
f 98 105 47
f 80 106 83
f 80 99 107
f 80 107 106
f 90 84 108
f 84 101 108
f 91 109 95
f 91 92 109
f 81 89 110
f 100 81 111
f 81 110 111
f 78 112 86
f 78 102 113
f 78 113 112
f 106 89 83
f 106 110 89
f 103 57 88
f 114 75 61
f 105 114 61
f 86 115 93
f 86 112 115
f 90 108 116
f 87 90 117
f 90 116 118
f 90 118 117
f 93 119 99
f 93 115 119
f 120 88 87
f 103 88 121
f 120 121 88
f 122 92 75
f 114 122 75
f 123 96 95
f 94 96 124
f 123 124 96
f 119 107 99
f 125 108 101
f 108 126 116
f 108 127 126
f 125 127 108
f 123 95 109
f 125 101 100
f 120 87 117
f 94 128 102
f 94 124 129
f 94 129 128
f 100 111 130
f 125 100 131
f 100 130 131
f 106 107 132
f 119 132 107
f 133 118 116
f 133 116 126
f 134 109 92
f 122 134 92
f 135 111 110
f 135 130 111
f 128 113 102
f 106 135 110
f 106 132 136
f 106 136 135
f 137 117 118
f 120 117 138
f 137 138 117
f 139 112 113
f 128 139 113
f 140 98 97
f 98 141 105
f 140 142 98
f 98 142 141
f 143 115 112
f 139 143 112
f 140 97 104
f 105 144 114
f 105 141 144
f 123 109 145
f 134 146 109
f 146 145 109
f 147 104 103
f 140 104 148
f 147 148 104
f 133 137 118
f 119 115 149
f 143 149 115
f 123 150 124
f 123 145 150
f 114 151 122
f 114 144 151
f 147 103 121
f 119 152 132
f 119 149 153
f 119 153 152
f 122 154 134
f 122 151 154
f 155 121 120
f 147 121 156
f 155 156 121
f 129 124 150
f 152 136 132
f 157 126 127
f 157 127 125
f 134 158 146
f 134 154 158
f 133 126 159
f 157 159 126
f 155 120 138
f 125 131 160
f 157 125 161
f 125 160 161
f 135 136 162
f 152 162 136
f 163 131 130
f 163 160 131
f 128 129 164
f 129 150 164
f 133 165 137
f 133 159 165
f 135 163 130
f 135 162 166
f 135 166 163
f 137 167 138
f 155 138 167
f 146 168 145
f 168 150 145
f 146 169 168
f 146 158 169
f 128 170 139
f 128 164 171
f 128 171 170
f 172 142 140
f 173 141 142
f 173 142 174
f 172 174 142
f 137 165 175
f 137 176 167
f 137 175 176
f 139 177 143
f 139 170 177
f 172 140 148
f 173 144 141
f 178 151 144
f 173 178 144
f 179 148 147
f 172 148 180
f 179 180 148
f 143 181 149
f 143 177 181
f 182 154 151
f 178 182 151
f 179 147 156
f 175 165 159
f 181 153 149
f 183 158 154
f 182 183 154
f 168 184 150
f 168 169 185
f 168 185 184
f 155 186 156
f 179 156 186
f 152 153 187
f 181 187 153
f 188 155 167
f 155 189 186
f 188 189 155
f 190 164 150
f 190 150 184
f 169 158 191
f 183 191 158
f 192 159 157
f 175 159 192
f 152 193 162
f 152 187 194
f 152 194 193
f 157 161 195
f 192 157 196
f 157 195 196
f 188 167 176
f 197 173 174
f 198 174 172
f 197 174 199
f 198 199 174
f 200 161 160
f 200 195 161
f 197 178 173
f 193 166 162
f 163 200 160
f 198 172 180
f 163 166 201
f 163 202 200
f 163 201 202
f 178 203 182
f 197 204 178
f 178 204 203
f 193 201 166
f 175 205 176
f 188 176 205
f 182 206 183
f 182 203 206
f 190 171 164
f 179 207 180
f 198 180 207
f 169 191 208
f 185 169 208
f 183 209 191
f 183 206 209
f 210 179 186
f 179 211 207
f 210 211 179
f 175 192 212
f 175 213 205
f 175 212 213
f 214 208 191
f 214 191 209
f 210 186 189
f 215 170 171
f 190 216 171
f 215 171 216
f 188 217 189
f 210 189 217
f 185 190 184
f 215 177 170
f 218 197 199
f 219 199 198
f 219 220 199
f 218 199 220
f 218 204 197
f 192 196 221
f 192 221 212
f 219 198 207
f 185 208 222
f 214 222 208
f 223 188 205
f 188 224 217
f 223 224 188
f 181 177 225
f 215 225 177
f 226 203 204
f 218 227 204
f 226 204 227
f 206 203 226
f 228 207 211
f 219 207 229
f 228 229 207
f 206 230 209
f 206 231 230
f 206 226 231
f 181 232 187
f 181 225 233
f 181 233 232
f 195 221 196
f 234 205 213
f 234 223 205
f 214 209 230
f 185 222 235
f 185 236 190
f 185 235 236
f 228 211 210
f 200 237 195
f 195 237 221
f 214 238 222
f 214 230 238
f 232 194 187
f 200 202 239
f 200 240 237
f 200 239 240
f 210 217 241
f 228 210 242
f 210 241 242
f 193 194 243
f 232 243 194
f 244 202 201
f 244 239 202
f 234 213 212
f 193 244 201
f 193 245 244
f 193 243 245
f 217 224 246
f 217 246 241
f 235 222 238
f 247 216 190
f 236 247 190
f 248 220 219
f 249 218 220
f 249 220 250
f 248 250 220
f 248 219 229
f 249 227 218
f 238 230 251
f 238 251 252
f 235 238 252
f 231 251 230
f 226 253 231
f 231 253 251
f 226 227 254
f 226 255 253
f 226 254 255
f 249 254 227
f 223 246 224
f 256 229 228
f 256 257 229
f 248 229 257
f 258 212 221
f 234 212 259
f 258 259 212
f 256 228 242
f 260 215 216
f 247 261 216
f 260 216 261
f 262 242 241
f 262 263 242
f 256 242 263
f 264 251 253
f 264 252 251
f 223 265 246
f 266 223 234
f 266 265 223
f 255 267 253
f 264 253 267
f 262 241 246
f 236 235 268
f 236 269 247
f 236 268 269
f 264 270 252
f 268 235 252
f 268 252 270
f 255 254 271
f 255 272 267
f 255 271 272
f 258 221 237
f 260 225 215
f 273 254 249
f 273 271 254
f 262 246 274
f 265 274 246
f 264 267 275
f 264 275 270
f 273 249 250
f 272 275 267
f 262 276 263
f 262 274 276
f 240 277 237
f 258 237 277
f 278 250 248
f 273 250 279
f 278 279 250
f 280 256 263
f 280 263 276
f 266 234 259
f 281 233 225
f 260 281 225
f 282 270 275
f 282 268 270
f 280 257 256
f 278 248 257
f 269 261 247
f 272 271 283
f 272 284 275
f 272 283 284
f 280 285 257
f 278 257 285
f 265 286 274
f 266 286 265
f 240 239 287
f 240 288 277
f 240 287 288
f 289 276 274
f 289 274 286
f 232 233 290
f 281 290 233
f 258 291 259
f 258 277 291
f 266 259 291
f 292 271 273
f 292 283 271
f 244 287 239
f 284 282 275
f 269 268 282
f 289 280 276
f 232 293 243
f 232 290 294
f 232 294 293
f 244 245 295
f 244 296 287
f 244 295 296
f 269 297 261
f 269 282 297
f 292 273 279
f 293 245 243
f 266 298 286
f 289 286 298
f 297 260 261
f 293 295 245
f 280 299 285
f 289 300 280
f 280 300 299
f 301 266 291
f 301 298 266
f 284 302 282
f 284 283 303
f 284 303 302
f 304 279 278
f 292 279 305
f 304 305 279
f 304 278 285
f 304 285 299
f 288 291 277
f 297 282 302
f 289 298 306
f 307 300 289
f 307 289 306
f 308 283 292
f 308 303 283
f 288 301 291
f 297 309 260
f 260 310 281
f 260 309 310
f 301 306 298
f 308 292 305
f 307 299 300
f 297 302 309
f 303 309 302
f 288 311 301
f 288 287 311
f 312 305 304
f 308 305 313
f 312 313 305
f 312 304 299
f 307 314 299
f 312 299 314
f 281 315 290
f 281 310 315
f 301 311 306
f 316 307 306
f 316 306 311
f 303 310 309
f 315 303 308
f 315 310 303
f 296 311 287
f 315 294 290
f 316 314 307
f 315 308 313
f 296 316 311
f 296 295 317
f 296 317 316
f 318 312 314
f 316 317 314
f 318 314 317
f 315 319 294
f 293 294 319
f 318 313 312
f 315 313 319
f 318 319 313
f 293 317 295
f 293 318 317
f 293 319 318
