# 
# Wavefront OBJ file
# Created with Kaydara FBX
# 
mtllib c:\users\tjvan\onedrive\documenten\fontys\minor\nx\.mtlmodels\anterior_tibial_recurrent_artery.r.obj

g Anterior_tibial_recurrent_artery_r
v -0.120801 0.394795 -0.035306
v -0.121700 0.396991 -0.035659
v -0.121696 0.396998 -0.035594
v -0.120766 0.394794 -0.035373
v -0.121672 0.396996 -0.035719
v -0.120802 0.394815 -0.035233
v -0.121662 0.397015 -0.035540
v -0.120707 0.394812 -0.035416
v -0.121620 0.397012 -0.035757
v -0.120769 0.394848 -0.035174
v -0.121606 0.397037 -0.035512
v -0.120639 0.394843 -0.035423
v -0.121558 0.397034 -0.035763
v -0.120710 0.394884 -0.035144
v -0.121544 0.397059 -0.035517
v -0.120580 0.394880 -0.035394
v -0.121502 0.397056 -0.035735
v -0.120642 0.394916 -0.035152
v -0.121492 0.397075 -0.035555
v -0.120547 0.394913 -0.035335
v -0.121467 0.397073 -0.035681
v -0.120583 0.394933 -0.035195
v -0.121464 0.397080 -0.035615
v -0.120548 0.394932 -0.035262
v -0.119919 0.393225 -0.034688
v -0.119874 0.393214 -0.034759
v -0.119928 0.393262 -0.034612
v -0.119807 0.393233 -0.034807
v -0.119901 0.393315 -0.034553
v -0.119736 0.393276 -0.034818
v -0.119843 0.393370 -0.034525
v -0.119678 0.393331 -0.034791
v -0.119771 0.393413 -0.034537
v -0.119650 0.393384 -0.034731
v -0.119704 0.393431 -0.034585
v -0.119660 0.393421 -0.034656
v -0.119065 0.392161 -0.033850
v -0.119008 0.392140 -0.033921
v -0.119088 0.392217 -0.033779
v -0.119070 0.392292 -0.033726
v -0.118932 0.392159 -0.033973
v -0.119017 0.392366 -0.033706
v -0.118858 0.392213 -0.033991
v -0.118943 0.392420 -0.033724
v -0.118805 0.392287 -0.033971
v -0.118868 0.392439 -0.033775
v -0.118788 0.392362 -0.033918
v -0.118811 0.392418 -0.033847
v -0.118256 0.391487 -0.032844
v -0.118293 0.391559 -0.032781
v -0.118185 0.391457 -0.032911
v -0.118288 0.391652 -0.032739
v -0.118100 0.391476 -0.032965
v -0.118240 0.391742 -0.032730
v -0.118163 0.391805 -0.032755
v -0.118023 0.391539 -0.032991
v -0.117976 0.391629 -0.032982
v -0.118078 0.391824 -0.032809
v -0.117970 0.391722 -0.032940
v -0.118007 0.391794 -0.032877
v -0.117559 0.391164 -0.031669
v -0.117509 0.391081 -0.031724
v -0.117562 0.391271 -0.031637
v -0.117424 0.391044 -0.031787
v -0.117517 0.391373 -0.031637
v -0.117329 0.391063 -0.031841
v -0.117436 0.391442 -0.031668
v -0.117248 0.391132 -0.031872
v -0.117340 0.391461 -0.031723
v -0.117203 0.391234 -0.031872
v -0.117256 0.391424 -0.031786
v -0.117206 0.391341 -0.031840
v -0.116897 0.390908 -0.030493
v -0.116837 0.390816 -0.030543
v -0.116904 0.391025 -0.030465
v -0.116742 0.390774 -0.030604
v -0.116857 0.391136 -0.030467
v -0.116768 0.391211 -0.030500
v -0.116635 0.390793 -0.030657
v -0.116662 0.391230 -0.030553
v -0.116547 0.390868 -0.030689
v -0.116500 0.390979 -0.030692
v -0.116566 0.391188 -0.030613
v -0.116507 0.391097 -0.030664
v -0.116318 0.390669 -0.029301
v -0.116254 0.390570 -0.029355
v -0.116324 0.390794 -0.029268
v -0.116270 0.390912 -0.029264
v -0.116149 0.390523 -0.029416
v -0.116171 0.390991 -0.029291
v -0.116031 0.390542 -0.029466
v -0.116053 0.391010 -0.029341
v -0.115932 0.390621 -0.029493
v -0.115948 0.390963 -0.029402
v -0.115878 0.390739 -0.029489
v -0.115884 0.390864 -0.029456
v -0.115835 0.390325 -0.028144
v -0.115771 0.390222 -0.028211
v -0.115834 0.390454 -0.028092
v -0.115769 0.390574 -0.028070
v -0.115658 0.390173 -0.028276
v -0.115656 0.390653 -0.028083
v -0.115528 0.390191 -0.028321
v -0.115526 0.390671 -0.028128
v -0.115415 0.390270 -0.028334
v -0.115414 0.390622 -0.028193
v -0.115350 0.390390 -0.028312
v -0.115349 0.390519 -0.028260
v -0.115457 0.389760 -0.027067
v -0.115396 0.389661 -0.027158
v -0.115446 0.389882 -0.026983
v -0.115278 0.389612 -0.027232
v -0.115366 0.389994 -0.026930
v -0.115136 0.389625 -0.027270
v -0.115237 0.390066 -0.026922
v -0.115007 0.389697 -0.027262
v -0.115095 0.390079 -0.026960
v -0.115193 0.388853 -0.026108
v -0.115134 0.388770 -0.026227
v -0.115172 0.388952 -0.025988
v -0.114927 0.389809 -0.027209
v -0.114977 0.390029 -0.027034
v -0.115012 0.388726 -0.026315
v -0.115077 0.389041 -0.025900
v -0.114916 0.389931 -0.027125
v -0.114859 0.388731 -0.026346
v -0.114933 0.389096 -0.025868
v -0.115050 0.387474 -0.025304
v -0.114992 0.387415 -0.025448
v -0.115023 0.387541 -0.025155
v -0.114864 0.387379 -0.025547
v -0.114715 0.388786 -0.026314
v -0.114780 0.389101 -0.025900
v -0.114918 0.387598 -0.025040
v -0.115043 0.385491 -0.024702
v -0.114982 0.385456 -0.024862
v -0.115013 0.385525 -0.024533
v -0.114902 0.385551 -0.024401
v -0.114701 0.387377 -0.025576
v -0.114620 0.388875 -0.026226
v -0.114847 0.385431 -0.024971
v -0.114658 0.389057 -0.025987
v -0.114763 0.387629 -0.024990
v -0.114599 0.388974 -0.026107
v -0.114738 0.385560 -0.024341
v -0.114675 0.385421 -0.024999
v -0.114546 0.387408 -0.025526
v -0.114600 0.387627 -0.025018
v -0.114511 0.385431 -0.024939
v -0.114565 0.385551 -0.024368
v -0.114441 0.387465 -0.025411
v -0.114414 0.387532 -0.025262
v -0.114472 0.387591 -0.025118
v -0.114399 0.385456 -0.024806
v -0.114431 0.385525 -0.024477
v -0.114370 0.385491 -0.024637
v -0.114847 0.395458 -0.024543
v -0.114849 0.397346 -0.024846
v -0.114892 0.395487 -0.024424
v -0.114829 0.397372 -0.024729
v -0.114871 0.395516 -0.024299
v -0.114806 0.397322 -0.024957
v -0.114746 0.395437 -0.024623
v -0.114752 0.397391 -0.024637
v -0.114788 0.395538 -0.024200
v -0.114638 0.397399 -0.024595
v -0.114666 0.395545 -0.024155
v -0.114837 0.398995 -0.025179
v -0.114798 0.398976 -0.025283
v -0.114713 0.397305 -0.025033
v -0.114819 0.399015 -0.025070
v -0.114747 0.399031 -0.024984
v -0.114841 0.400479 -0.025418
v -0.114805 0.400466 -0.025515
v -0.114711 0.398964 -0.025353
v -0.114824 0.400493 -0.025317
v -0.114758 0.400504 -0.025238
v -0.114845 0.401845 -0.025560
v -0.114812 0.401840 -0.025649
v -0.114725 0.400459 -0.025580
v -0.114830 0.401852 -0.025467
v -0.114769 0.401857 -0.025394
v -0.114835 0.403140 -0.025600
v -0.114805 0.403141 -0.025680
v -0.114739 0.401836 -0.025709
v -0.114820 0.403139 -0.025516
v -0.114766 0.403138 -0.025450
v -0.114794 0.404409 -0.025533
v -0.114767 0.404414 -0.025605
v -0.114739 0.403141 -0.025735
v -0.114781 0.404401 -0.025458
v -0.114733 0.404394 -0.025399
v -0.114697 0.405684 -0.025290
v -0.114707 0.405696 -0.025356
v -0.114654 0.405672 -0.025239
v -0.114617 0.395429 -0.024643
v -0.114593 0.397301 -0.025052
v -0.114495 0.395437 -0.024598
v -0.114518 0.397395 -0.024614
v -0.114537 0.395538 -0.024175
v -0.114642 0.399039 -0.024945
v -0.114530 0.399037 -0.024964
v -0.114599 0.398962 -0.025372
v -0.114661 0.400510 -0.025202
v -0.114559 0.400510 -0.025219
v -0.114622 0.400458 -0.025597
v -0.114646 0.401836 -0.025725
v -0.114525 0.400464 -0.025561
v -0.114494 0.398970 -0.025333
v -0.114681 0.401861 -0.025361
v -0.114587 0.401861 -0.025377
v -0.114654 0.403140 -0.025749
v -0.114557 0.401839 -0.025692
v -0.114686 0.403137 -0.025420
v -0.114601 0.403137 -0.025434
v -0.114708 0.404417 -0.025654
v -0.114632 0.404415 -0.025666
v -0.114574 0.403140 -0.025719
v -0.114661 0.404389 -0.025373
v -0.114585 0.404387 -0.025386
v -0.114591 0.405663 -0.025216
v -0.114524 0.405660 -0.025228
v -0.114631 0.405709 -0.025461
v -0.114564 0.405706 -0.025473
v -0.114561 0.404410 -0.025640
v -0.114683 0.405705 -0.025419
v -0.114514 0.407017 -0.024965
v -0.114460 0.407006 -0.024946
v -0.114551 0.407032 -0.025008
v -0.114539 0.407058 -0.025118
v -0.114493 0.407062 -0.025155
v -0.114560 0.407047 -0.025064
v -0.114479 0.397309 -0.025010
v -0.114535 0.403137 -0.025488
v -0.114514 0.401857 -0.025437
v -0.114526 0.404390 -0.025434
v -0.114472 0.405663 -0.025271
v -0.114403 0.407002 -0.024956
v -0.114412 0.395458 -0.024500
v -0.114424 0.397378 -0.024690
v -0.114436 0.395516 -0.024255
v -0.114443 0.399025 -0.025034
v -0.114422 0.398986 -0.025247
v -0.114401 0.397328 -0.024918
v -0.114479 0.400502 -0.025285
v -0.114459 0.400476 -0.025482
v -0.114497 0.401845 -0.025619
v -0.114519 0.403139 -0.025653
v -0.114481 0.401851 -0.025526
v -0.114442 0.400490 -0.025381
v -0.114505 0.403138 -0.025569
v -0.114512 0.404403 -0.025581
v -0.114499 0.404395 -0.025506
v -0.114501 0.405697 -0.025450
v -0.114459 0.405685 -0.025399
v -0.114448 0.405673 -0.025333
v -0.114357 0.407006 -0.024993
v -0.114436 0.407058 -0.025165
v -0.114381 0.407046 -0.025146
v -0.114298 0.408477 -0.024572
v -0.114253 0.408465 -0.024556
v -0.114329 0.408493 -0.024607
v -0.114336 0.408508 -0.024654
v -0.114318 0.408519 -0.024699
v -0.114280 0.408522 -0.024730
v -0.114336 0.407017 -0.025047
v -0.114404 0.399006 -0.025138
v -0.114345 0.407031 -0.025103
v -0.114204 0.408460 -0.024565
v -0.114390 0.395487 -0.024374
v -0.114381 0.397354 -0.024801
v -0.114166 0.408463 -0.024597
v -0.114231 0.408517 -0.024739
v -0.114186 0.408505 -0.024724
v -0.114148 0.408474 -0.024642
v -0.114155 0.408489 -0.024688
v -0.114015 0.410111 -0.024084
v -0.113991 0.410096 -0.024056
v -0.114021 0.410125 -0.024122
v -0.113954 0.410085 -0.024043
v -0.114006 0.410135 -0.024159
v -0.113975 0.410137 -0.024184
v -0.113914 0.410080 -0.024051
v -0.113935 0.410132 -0.024192
v -0.113883 0.410082 -0.024077
v -0.113898 0.410121 -0.024180
v -0.113868 0.410092 -0.024114
v -0.113874 0.410106 -0.024151
v -0.113595 0.411933 -0.023435
v -0.113576 0.411921 -0.023413
v -0.113599 0.411945 -0.023464
v -0.113588 0.411953 -0.023492
v -0.113548 0.411911 -0.023404
v -0.113563 0.411954 -0.023512
v -0.113517 0.411906 -0.023410
v -0.113533 0.411950 -0.023518
v -0.113493 0.411907 -0.023430
v -0.113504 0.411939 -0.023509
v -0.113481 0.411915 -0.023458
v -0.113485 0.411927 -0.023488
v -0.113053 0.414005 -0.022655
v -0.113039 0.413996 -0.022639
v -0.113056 0.414014 -0.022675
v -0.113047 0.414020 -0.022695
v -0.113019 0.413988 -0.022633
v -0.113030 0.414021 -0.022710
v -0.112997 0.413984 -0.022638
v -0.113008 0.414017 -0.022715
v -0.112980 0.413985 -0.022652
v -0.112988 0.414009 -0.022708
v -0.112972 0.413990 -0.022672
v -0.112974 0.413999 -0.022693
v -0.115100 0.386070 -0.024637
v -0.115225 0.390309 -0.024409
v -0.115167 0.390302 -0.024220
v -0.114925 0.394834 -0.024177
v -0.115051 0.386091 -0.024852
v -0.115180 0.390315 -0.024602
v -0.114976 0.394843 -0.024345
v -0.115035 0.386060 -0.024425
v -0.115022 0.390297 -0.024084
v -0.114797 0.394822 -0.024059
v -0.114901 0.386115 -0.025013
v -0.115045 0.390320 -0.024747
v -0.114937 0.394845 -0.024515
v -0.114647 0.382170 -0.025014
v -0.114595 0.382208 -0.025251
v -0.114873 0.386062 -0.024273
v -0.114575 0.382154 -0.024780
v -0.114431 0.382258 -0.025427
v -0.114818 0.394840 -0.024643
v -0.114689 0.386138 -0.025077
v -0.114856 0.390321 -0.024806
v -0.114828 0.390295 -0.024040
v -0.114627 0.394809 -0.024020
v -0.114691 0.397001 -0.024103
v -0.114738 0.397021 -0.024257
v -0.114574 0.396978 -0.023993
v -0.114701 0.397031 -0.024415
v -0.114201 0.382306 -0.025495
v -0.114658 0.386076 -0.024223
v -0.114396 0.382165 -0.024612
v -0.114639 0.390297 -0.024098
v -0.114461 0.394798 -0.024071
v -0.114652 0.394829 -0.024695
v -0.114474 0.386152 -0.025026
v -0.114662 0.390319 -0.024761
v -0.114416 0.396957 -0.023957
v -0.114590 0.397029 -0.024534
v -0.113857 0.378704 -0.025784
v -0.113910 0.378644 -0.025528
v -0.114446 0.386099 -0.024287
v -0.114160 0.382199 -0.024554
v -0.113965 0.382341 -0.025437
v -0.114503 0.390301 -0.024243
v -0.114342 0.394793 -0.024200
v -0.114482 0.394816 -0.024656
v -0.114517 0.390314 -0.024626
v -0.114312 0.386154 -0.024875
v -0.114262 0.396943 -0.024005
v -0.114435 0.397016 -0.024582
v -0.114440 0.398799 -0.023857
v -0.114334 0.398763 -0.023757
v -0.114481 0.398833 -0.023997
v -0.114445 0.398857 -0.024141
v -0.113684 0.378785 -0.025973
v -0.114342 0.398863 -0.024250
v -0.113830 0.378622 -0.025272
v -0.114296 0.386123 -0.024448
v -0.114459 0.390308 -0.024436
v -0.114303 0.394795 -0.024370
v -0.114354 0.394803 -0.024537
v -0.114247 0.386144 -0.024663
v -0.114189 0.398735 -0.023725
v -0.113787 0.382351 -0.025269
v -0.114278 0.396995 -0.024547
v -0.114167 0.400319 -0.023473
v -0.114202 0.400365 -0.023599
v -0.114151 0.396942 -0.024124
v -0.113636 0.378642 -0.025087
v -0.113437 0.378865 -0.026044
v -0.113930 0.382248 -0.024622
v -0.114046 0.398723 -0.023770
v -0.114199 0.398851 -0.024294
v -0.114072 0.400273 -0.023386
v -0.114167 0.400400 -0.023728
v -0.114114 0.396952 -0.024282
v -0.114160 0.396972 -0.024437
v -0.113940 0.400240 -0.023359
v -0.114071 0.400413 -0.023826
v -0.113767 0.382298 -0.024798
v -0.113714 0.382335 -0.025035
v -0.114054 0.398824 -0.024263
v -0.113943 0.398730 -0.023879
v -0.113183 0.378923 -0.025978
v -0.113809 0.400228 -0.023400
v -0.113940 0.400401 -0.023867
v -0.113868 0.401644 -0.022987
v -0.113898 0.401697 -0.023097
v -0.113383 0.378700 -0.025020
v -0.113907 0.398754 -0.024023
v -0.113948 0.398788 -0.024163
v -0.113783 0.401592 -0.022911
v -0.113864 0.401737 -0.023211
v -0.113665 0.401555 -0.022889
v -0.113775 0.401754 -0.023299
v -0.113713 0.400241 -0.023498
v -0.113809 0.400368 -0.023840
v -0.112990 0.378943 -0.025792
v -0.113136 0.378780 -0.025091
v -0.113678 0.400275 -0.023627
v -0.113713 0.400322 -0.023752
v -0.113546 0.401543 -0.022927
v -0.113656 0.401742 -0.023337
v -0.112883 0.375615 -0.026440
v -0.112934 0.375529 -0.026165
v -0.113538 0.402854 -0.022433
v -0.113563 0.402908 -0.022529
v -0.112705 0.375733 -0.026639
v -0.113463 0.402801 -0.022367
v -0.113531 0.402949 -0.022630
v -0.112844 0.375497 -0.025889
v -0.113457 0.401559 -0.023014
v -0.113538 0.401705 -0.023315
v -0.112963 0.378861 -0.025280
v -0.112909 0.378920 -0.025537
v -0.113357 0.402763 -0.022349
v -0.113451 0.402965 -0.022708
v -0.113423 0.401600 -0.023128
v -0.113453 0.401653 -0.023238
v -0.112447 0.375851 -0.026710
v -0.113250 0.402751 -0.022383
v -0.113344 0.402953 -0.022743
v -0.112637 0.375528 -0.025685
v -0.113173 0.404029 -0.021844
v -0.113195 0.404078 -0.021929
v -0.113170 0.402767 -0.022462
v -0.113239 0.402915 -0.022725
v -0.113107 0.403979 -0.021786
v -0.113167 0.404115 -0.022019
v -0.113138 0.402808 -0.022563
v -0.113163 0.402862 -0.022659
v -0.113013 0.403944 -0.021771
v -0.113096 0.404128 -0.022089
v -0.112179 0.375938 -0.026633
v -0.112368 0.375615 -0.025608
v -0.112918 0.403931 -0.021803
v -0.113001 0.404115 -0.022121
v -0.112847 0.403945 -0.021873
v -0.112907 0.404080 -0.022106
v -0.112770 0.405248 -0.021257
v -0.112790 0.405289 -0.021333
v -0.111972 0.375969 -0.026429
v -0.112819 0.403981 -0.021963
v -0.112841 0.404030 -0.022049
v -0.112711 0.405206 -0.021206
v -0.112766 0.405318 -0.021414
v -0.112111 0.375733 -0.025679
v -0.112630 0.405174 -0.021193
v -0.112705 0.405327 -0.021477
v -0.111932 0.375851 -0.025878
v -0.111882 0.375937 -0.026153
v -0.112547 0.405161 -0.021222
v -0.112622 0.405314 -0.021506
v -0.111717 0.372978 -0.027204
v -0.111760 0.372858 -0.026915
v -0.112485 0.405171 -0.021285
v -0.112540 0.405282 -0.021493
v -0.111542 0.373142 -0.027409
v -0.111658 0.372814 -0.026619
v -0.112461 0.405199 -0.021365
v -0.112481 0.405240 -0.021441
v -0.112326 0.406590 -0.020709
v -0.112344 0.406621 -0.020776
v -0.112274 0.406558 -0.020663
v -0.112325 0.406641 -0.020847
v -0.111280 0.373305 -0.027475
v -0.112203 0.406532 -0.020651
v -0.112273 0.406645 -0.020903
v -0.111439 0.372858 -0.026396
v -0.112132 0.406519 -0.020677
v -0.112202 0.406633 -0.020928
v -0.112080 0.406523 -0.020733
v -0.112132 0.406607 -0.020917
v -0.112061 0.406543 -0.020804
v -0.112080 0.406574 -0.020871
v -0.111002 0.373425 -0.027384
v -0.111162 0.372978 -0.026306
v -0.111836 0.408136 -0.020233
v -0.111853 0.408156 -0.020292
v -0.111791 0.408113 -0.020194
v -0.111839 0.408168 -0.020353
v -0.111731 0.408093 -0.020184
v -0.111796 0.408168 -0.020401
v -0.111672 0.408081 -0.020205
v -0.111737 0.408156 -0.020422
v -0.110783 0.373469 -0.027161
v -0.111630 0.408081 -0.020253
v -0.111677 0.408136 -0.020412
v -0.110900 0.373142 -0.026371
v -0.111615 0.408093 -0.020314
v -0.111633 0.408113 -0.020373
v -0.110681 0.373425 -0.026865
v -0.110724 0.373306 -0.026576
v -0.111297 0.409965 -0.019867
v -0.111313 0.409977 -0.019915
v -0.111260 0.409950 -0.019834
v -0.111302 0.409982 -0.019965
v -0.111211 0.409935 -0.019825
v -0.111269 0.409979 -0.020004
v -0.110403 0.370829 -0.028065
v -0.110428 0.370669 -0.027768
v -0.111164 0.409925 -0.019843
v -0.111221 0.409969 -0.020022
v -0.110242 0.371048 -0.028268
v -0.111131 0.409922 -0.019882
v -0.111172 0.409954 -0.020013
v -0.110311 0.370609 -0.027455
v -0.111120 0.409927 -0.019933
v -0.111135 0.409939 -0.019981
v -0.109988 0.371266 -0.028322
v -0.110082 0.370666 -0.027211
v -0.110706 0.412157 -0.019643
v -0.110719 0.412162 -0.019680
v -0.110677 0.412148 -0.019618
v -0.110711 0.412163 -0.019719
v -0.109709 0.371425 -0.028212
v -0.110640 0.412138 -0.019611
v -0.110686 0.412159 -0.019749
v -0.110604 0.412130 -0.019625
v -0.110650 0.412151 -0.019762
v -0.109803 0.370825 -0.027102
v -0.110579 0.412126 -0.019655
v -0.110613 0.412141 -0.019756
v -0.110571 0.412127 -0.019694
v -0.110584 0.412132 -0.019730
v -0.109480 0.371483 -0.027968
v -0.109549 0.371044 -0.027155
v -0.109363 0.371423 -0.027656
v -0.109388 0.371263 -0.027358
v -0.110067 0.414795 -0.019623
v -0.110062 0.414794 -0.019650
v -0.110058 0.414793 -0.019598
v -0.110038 0.414789 -0.019580
v -0.110012 0.414783 -0.019576
v -0.110046 0.414790 -0.019670
v -0.110021 0.414784 -0.019680
v -0.109987 0.414778 -0.019585
v -0.109970 0.414773 -0.019606
v -0.109995 0.414778 -0.019675
v -0.109975 0.414774 -0.019658
v -0.109966 0.414772 -0.019632
v -0.108980 0.369207 -0.029013
v -0.108972 0.368997 -0.028717
v -0.108854 0.369490 -0.029201
v -0.108832 0.368918 -0.028393
v -0.108626 0.369772 -0.029230
v -0.108597 0.368990 -0.028126
v -0.108360 0.369975 -0.029093
v -0.108330 0.369193 -0.027989
v -0.108125 0.370047 -0.028826
v -0.108103 0.369475 -0.028018
v -0.107985 0.369967 -0.028501
v -0.107977 0.369758 -0.028205
v -0.107488 0.368154 -0.030040
v -0.107422 0.367894 -0.029763
v -0.107427 0.368505 -0.030191
v -0.107257 0.368851 -0.030175
v -0.107247 0.367792 -0.029434
v -0.107022 0.369100 -0.029996
v -0.107010 0.367877 -0.029141
v -0.106785 0.369185 -0.029703
v -0.106775 0.368126 -0.028963
v -0.106610 0.369084 -0.029374
v -0.106605 0.368472 -0.028947
v -0.106544 0.368823 -0.029097
v -0.105969 0.367726 -0.031135
v -0.106013 0.368124 -0.031220
v -0.105815 0.367428 -0.030900
v -0.105934 0.368516 -0.031133
v -0.105753 0.368797 -0.030896
v -0.105590 0.367311 -0.030578
v -0.105519 0.368892 -0.030573
v -0.105356 0.367405 -0.030255
v -0.105295 0.368775 -0.030251
v -0.105176 0.367687 -0.030019
v -0.105097 0.368079 -0.029931
v -0.105140 0.368477 -0.030016
v -0.104655 0.368376 -0.032276
v -0.104687 0.368770 -0.032098
v -0.104486 0.367978 -0.032276
v -0.104572 0.369053 -0.031791
v -0.104225 0.367681 -0.032100
v -0.104342 0.369150 -0.031437
v -0.103941 0.367565 -0.031794
v -0.104058 0.369035 -0.031131
v -0.103711 0.367662 -0.031440
v -0.103797 0.368738 -0.030955
v -0.103596 0.367946 -0.031133
v -0.103627 0.368339 -0.030956
v -0.103523 0.369642 -0.033082
v -0.103467 0.369896 -0.032707
v -0.103392 0.369295 -0.033348
v -0.103237 0.369989 -0.032323
v -0.103108 0.368948 -0.033433
v -0.102897 0.369896 -0.032034
v -0.102747 0.368694 -0.033316
v -0.102536 0.369642 -0.031916
v -0.102407 0.368601 -0.033026
v -0.102252 0.369295 -0.032002
v -0.102178 0.368694 -0.032643
v -0.102121 0.368948 -0.032268
usemtl Anterior_tibial_recurrent_artery_rMaterial0
f 1 2 3
f 4 5 2
f 4 2 1
f 6 3 7
f 1 3 6
f 8 9 5
f 8 5 4
f 10 7 11
f 6 7 10
f 12 13 9
f 12 9 8
f 14 11 15
f 10 11 14
f 16 17 13
f 16 13 12
f 18 15 19
f 14 15 18
f 20 21 17
f 20 17 16
f 22 19 23
f 18 19 22
f 24 23 21
f 24 21 20
f 22 23 24
f 25 1 6
f 26 4 1
f 26 1 25
f 27 6 10
f 25 6 27
f 28 8 4
f 28 4 26
f 29 10 14
f 27 10 29
f 30 12 8
f 30 8 28
f 31 14 18
f 29 14 31
f 32 16 12
f 32 12 30
f 33 18 22
f 31 18 33
f 34 20 16
f 34 16 32
f 35 22 24
f 33 22 35
f 36 24 20
f 36 20 34
f 35 24 36
f 37 25 27
f 38 26 25
f 38 25 37
f 39 27 29
f 37 27 39
f 40 29 31
f 39 29 40
f 41 28 26
f 41 26 38
f 42 31 33
f 40 31 42
f 43 30 28
f 43 28 41
f 44 33 35
f 42 33 44
f 45 32 30
f 45 30 43
f 46 35 36
f 44 35 46
f 47 34 32
f 47 32 45
f 48 36 34
f 48 34 47
f 46 36 48
f 49 37 39
f 50 39 40
f 49 39 50
f 51 38 37
f 51 37 49
f 52 40 42
f 50 40 52
f 53 41 38
f 53 38 51
f 54 42 44
f 52 42 54
f 55 44 46
f 54 44 55
f 56 43 41
f 56 41 53
f 57 45 43
f 57 43 56
f 58 46 48
f 55 46 58
f 59 47 45
f 59 45 57
f 60 48 47
f 58 48 60
f 60 47 59
f 61 50 52
f 62 49 50
f 62 50 61
f 63 52 54
f 61 52 63
f 64 51 49
f 64 49 62
f 65 54 55
f 63 54 65
f 66 53 51
f 66 51 64
f 67 55 58
f 65 55 67
f 68 56 53
f 68 53 66
f 69 58 60
f 67 58 69
f 70 57 56
f 70 56 68
f 71 60 59
f 69 60 71
f 72 59 57
f 72 57 70
f 71 59 72
f 73 61 63
f 74 62 61
f 74 61 73
f 75 63 65
f 73 63 75
f 76 64 62
f 76 62 74
f 77 65 67
f 75 65 77
f 78 67 69
f 77 67 78
f 79 66 64
f 79 64 76
f 80 69 71
f 78 69 80
f 81 68 66
f 81 66 79
f 82 70 68
f 82 68 81
f 83 71 72
f 80 71 83
f 84 72 70
f 84 70 82
f 83 72 84
f 85 73 75
f 86 74 73
f 86 73 85
f 87 75 77
f 85 75 87
f 88 77 78
f 87 77 88
f 89 76 74
f 89 74 86
f 90 78 80
f 88 78 90
f 91 79 76
f 91 76 89
f 92 80 83
f 90 80 92
f 93 81 79
f 93 79 91
f 94 83 84
f 92 83 94
f 95 82 81
f 95 81 93
f 96 84 82
f 96 82 95
f 94 84 96
f 97 85 87
f 98 86 85
f 98 85 97
f 99 87 88
f 97 87 99
f 100 88 90
f 99 88 100
f 101 89 86
f 101 86 98
f 102 90 92
f 100 90 102
f 103 91 89
f 103 89 101
f 104 92 94
f 102 92 104
f 105 93 91
f 105 91 103
f 106 94 96
f 104 94 106
f 107 95 93
f 107 93 105
f 108 96 95
f 108 95 107
f 106 96 108
f 109 97 99
f 110 98 97
f 110 97 109
f 111 99 100
f 109 99 111
f 112 101 98
f 112 98 110
f 113 100 102
f 111 100 113
f 114 103 101
f 114 101 112
f 115 102 104
f 113 102 115
f 116 105 103
f 116 103 114
f 117 104 106
f 115 104 117
f 118 109 111
f 119 110 109
f 119 109 118
f 120 111 113
f 118 111 120
f 121 107 105
f 121 105 116
f 122 106 108
f 117 106 122
f 123 112 110
f 123 110 119
f 124 113 115
f 120 113 124
f 125 108 107
f 125 107 121
f 122 108 125
f 126 114 112
f 126 112 123
f 127 115 117
f 124 115 127
f 128 118 120
f 129 119 118
f 129 118 128
f 130 120 124
f 128 120 130
f 131 123 119
f 131 119 129
f 132 116 114
f 132 114 126
f 133 117 122
f 127 117 133
f 130 124 134
f 134 124 127
f 135 128 130
f 136 128 135
f 135 130 137
f 136 129 128
f 137 130 134
f 137 134 138
f 139 123 131
f 139 126 123
f 140 121 116
f 140 116 132
f 141 129 136
f 141 131 129
f 142 122 125
f 133 122 142
f 134 127 143
f 138 134 143
f 143 127 133
f 144 125 121
f 144 121 140
f 142 125 144
f 138 143 145
f 146 131 141
f 146 139 131
f 147 126 139
f 147 132 126
f 143 133 148
f 148 133 142
f 149 139 146
f 145 143 148
f 145 148 150
f 149 147 139
f 151 140 132
f 151 132 147
f 152 144 140
f 152 140 151
f 148 142 153
f 153 142 144
f 150 148 153
f 153 144 152
f 154 147 149
f 150 153 155
f 154 151 147
f 155 153 152
f 156 151 154
f 155 152 156
f 156 152 151
f 157 158 159
f 159 160 161
f 159 158 160
f 157 162 158
f 163 162 157
f 161 164 165
f 161 160 164
f 165 166 167
f 165 164 166
f 162 168 158
f 162 169 168
f 170 169 162
f 163 170 162
f 158 171 160
f 158 168 171
f 160 171 172
f 160 172 164
f 169 173 168
f 169 174 173
f 175 174 169
f 170 175 169
f 168 176 171
f 168 173 176
f 171 176 177
f 171 177 172
f 174 178 173
f 174 179 178
f 180 179 174
f 175 180 174
f 173 181 176
f 173 178 181
f 176 181 182
f 176 182 177
f 179 183 178
f 179 184 183
f 185 184 179
f 180 185 179
f 178 186 181
f 178 183 186
f 181 186 187
f 181 187 182
f 184 188 183
f 184 189 188
f 185 190 184
f 190 189 184
f 183 191 186
f 183 188 191
f 186 191 192
f 186 192 187
f 188 193 191
f 189 194 188
f 188 194 193
f 191 195 192
f 191 193 195
f 196 170 163
f 196 197 170
f 198 197 196
f 167 166 199
f 167 199 200
f 197 175 170
f 164 201 166
f 164 172 201
f 166 201 202
f 166 202 199
f 203 180 175
f 197 203 175
f 172 204 201
f 172 177 204
f 201 204 205
f 201 205 202
f 206 185 180
f 203 206 180
f 206 207 185
f 208 207 206
f 209 206 203
f 209 208 206
f 177 210 204
f 177 182 210
f 204 210 211
f 204 211 205
f 207 190 185
f 207 212 190
f 213 212 207
f 208 213 207
f 182 214 210
f 182 187 214
f 210 214 215
f 210 215 211
f 212 216 190
f 212 217 216
f 218 217 212
f 213 218 212
f 190 216 189
f 187 219 214
f 187 192 219
f 214 219 220
f 214 220 215
f 192 221 219
f 192 195 221
f 219 222 220
f 219 221 222
f 217 223 216
f 217 224 223
f 218 225 217
f 225 224 217
f 216 226 189
f 216 223 226
f 189 226 194
f 193 227 195
f 195 228 221
f 195 227 228
f 194 229 193
f 193 229 227
f 223 230 226
f 224 231 223
f 223 231 230
f 226 232 194
f 226 230 232
f 194 232 229
f 233 203 197
f 198 233 197
f 233 209 203
f 211 215 234
f 205 211 235
f 211 234 235
f 215 220 236
f 215 236 234
f 220 237 236
f 220 222 237
f 221 238 222
f 221 228 238
f 239 233 198
f 200 199 240
f 200 240 241
f 199 202 242
f 199 242 240
f 243 208 209
f 244 209 233
f 244 243 209
f 202 205 245
f 202 245 242
f 246 213 208
f 243 246 208
f 205 235 245
f 247 218 213
f 246 247 213
f 247 248 218
f 249 248 247
f 250 249 247
f 250 247 246
f 235 234 251
f 235 251 249
f 245 235 249
f 248 225 218
f 251 252 248
f 249 251 248
f 248 252 225
f 234 253 251
f 251 253 252
f 234 236 253
f 252 254 225
f 225 254 224
f 253 255 252
f 252 255 254
f 236 256 253
f 253 256 255
f 236 237 256
f 222 257 237
f 222 238 257
f 254 258 224
f 224 258 231
f 255 259 254
f 254 259 258
f 229 260 227
f 227 261 228
f 227 260 261
f 232 262 229
f 229 262 260
f 230 263 232
f 232 263 262
f 231 264 230
f 258 265 231
f 231 265 264
f 230 264 263
f 239 244 233
f 245 249 250
f 242 245 250
f 237 266 256
f 237 257 266
f 267 246 243
f 267 250 246
f 256 268 255
f 255 268 259
f 228 269 238
f 228 261 269
f 270 244 239
f 241 271 270
f 270 271 244
f 241 240 271
f 271 243 244
f 240 267 271
f 271 267 243
f 240 242 267
f 242 250 267
f 256 266 268
f 238 272 257
f 238 269 272
f 259 273 258
f 268 274 259
f 259 274 273
f 258 273 265
f 257 275 266
f 257 272 275
f 266 276 268
f 266 275 276
f 268 276 274
f 263 277 262
f 262 278 260
f 262 277 278
f 264 279 263
f 263 279 277
f 260 280 261
f 260 278 280
f 265 281 264
f 264 281 279
f 273 282 265
f 265 282 281
f 261 283 269
f 261 280 283
f 274 284 273
f 273 284 282
f 269 285 272
f 269 283 285
f 276 286 274
f 274 286 284
f 272 287 275
f 272 285 287
f 275 288 276
f 275 287 288
f 276 288 286
f 279 289 277
f 277 290 278
f 277 289 290
f 281 291 279
f 279 291 289
f 282 292 281
f 281 292 291
f 278 293 280
f 278 290 293
f 284 294 282
f 282 294 292
f 280 295 283
f 280 293 295
f 286 296 284
f 284 296 294
f 283 297 285
f 283 295 297
f 288 298 286
f 286 298 296
f 285 299 287
f 287 300 288
f 287 299 300
f 285 297 299
f 288 300 298
f 291 301 289
f 289 302 290
f 289 301 302
f 292 303 291
f 294 304 292
f 292 304 303
f 291 303 301
f 290 305 293
f 290 302 305
f 296 306 294
f 294 306 304
f 293 307 295
f 293 305 307
f 298 308 296
f 296 308 306
f 295 309 297
f 295 307 309
f 300 310 298
f 298 310 308
f 297 311 299
f 299 312 300
f 299 311 312
f 297 309 311
f 300 312 310
f 313 314 315
f 314 316 315
f 317 318 314
f 318 319 314
f 317 314 313
f 314 319 316
f 313 315 320
f 320 315 321
f 315 322 321
f 315 316 322
f 323 318 317
f 324 325 318
f 323 324 318
f 318 325 319
f 326 313 320
f 327 317 313
f 327 313 326
f 320 321 328
f 329 320 328
f 326 320 329
f 330 323 317
f 330 317 327
f 324 331 325
f 332 324 323
f 333 331 324
f 332 333 324
f 328 321 334
f 321 335 334
f 321 322 335
f 319 336 316
f 325 337 319
f 319 337 336
f 316 338 322
f 316 336 338
f 331 339 325
f 325 339 337
f 340 332 323
f 340 323 330
f 328 334 341
f 342 328 341
f 329 328 342
f 341 334 343
f 334 344 343
f 334 335 344
f 333 345 331
f 346 333 332
f 347 345 333
f 346 347 333
f 322 348 335
f 322 338 348
f 345 349 331
f 331 349 339
f 350 327 326
f 351 326 329
f 350 326 351
f 341 343 352
f 342 341 353
f 353 341 352
f 354 346 332
f 354 332 340
f 352 343 355
f 343 356 355
f 343 344 356
f 347 357 345
f 358 357 347
f 359 358 347
f 359 347 346
f 335 360 344
f 335 348 360
f 345 361 349
f 357 361 345
f 337 362 336
f 336 363 338
f 336 362 363
f 339 364 337
f 337 364 362
f 349 365 339
f 339 365 364
f 366 330 327
f 366 327 350
f 361 367 349
f 349 367 365
f 368 329 342
f 351 329 368
f 369 355 370
f 355 371 370
f 352 355 369
f 355 356 371
f 358 372 357
f 370 372 358
f 373 370 358
f 373 358 359
f 338 374 348
f 338 363 374
f 375 359 346
f 375 346 354
f 357 376 361
f 372 376 357
f 364 377 362
f 365 378 364
f 364 378 377
f 370 371 372
f 369 370 373
f 344 379 356
f 344 360 379
f 380 342 353
f 368 342 380
f 381 340 330
f 381 330 366
f 382 352 369
f 353 352 382
f 348 383 360
f 348 374 383
f 361 384 367
f 376 384 361
f 362 385 363
f 362 377 385
f 367 386 365
f 365 386 378
f 356 387 371
f 356 379 387
f 371 388 372
f 372 388 376
f 363 389 374
f 363 385 389
f 384 390 367
f 367 390 386
f 391 369 373
f 382 369 391
f 392 373 359
f 392 359 375
f 371 387 388
f 376 393 384
f 388 393 376
f 391 373 392
f 360 394 379
f 360 383 394
f 395 354 340
f 395 340 381
f 374 396 383
f 374 389 396
f 384 397 390
f 393 397 384
f 378 398 377
f 386 399 378
f 378 399 398
f 400 353 382
f 380 353 400
f 379 401 387
f 379 394 401
f 387 402 388
f 388 402 393
f 377 403 385
f 377 398 403
f 390 404 386
f 386 404 399
f 387 401 402
f 385 405 389
f 385 403 405
f 397 406 390
f 390 406 404
f 383 407 394
f 383 396 407
f 402 408 393
f 393 408 397
f 409 375 354
f 409 354 395
f 410 382 391
f 400 382 410
f 394 411 401
f 394 407 411
f 401 412 402
f 402 412 408
f 389 413 396
f 389 405 413
f 408 414 397
f 397 414 406
f 415 350 351
f 416 351 368
f 415 351 416
f 401 411 412
f 399 417 398
f 404 418 399
f 399 418 417
f 419 366 350
f 419 350 415
f 398 420 403
f 398 417 420
f 406 421 404
f 404 421 418
f 422 368 380
f 416 368 422
f 396 423 407
f 396 413 423
f 412 424 408
f 408 424 414
f 425 391 392
f 410 391 425
f 426 392 375
f 426 375 409
f 403 427 405
f 403 420 427
f 414 428 406
f 406 428 421
f 425 392 426
f 407 429 411
f 407 423 429
f 411 430 412
f 412 430 424
f 431 381 366
f 431 366 419
f 411 429 430
f 405 432 413
f 405 427 432
f 424 433 414
f 414 433 428
f 434 380 400
f 422 380 434
f 418 435 417
f 421 436 418
f 418 436 435
f 413 437 423
f 413 432 437
f 430 438 424
f 424 438 433
f 417 439 420
f 417 435 439
f 428 440 421
f 421 440 436
f 423 441 429
f 423 437 441
f 429 442 430
f 430 442 438
f 420 443 427
f 420 439 443
f 433 444 428
f 428 444 440
f 445 395 381
f 445 381 431
f 429 441 442
f 446 400 410
f 434 400 446
f 427 447 432
f 427 443 447
f 438 448 433
f 433 448 444
f 432 449 437
f 432 447 449
f 442 450 438
f 438 450 448
f 436 451 435
f 440 452 436
f 436 452 451
f 453 409 395
f 453 395 445
f 437 454 441
f 437 449 454
f 441 455 442
f 442 455 450
f 435 456 439
f 435 451 456
f 444 457 440
f 440 457 452
f 458 410 425
f 446 410 458
f 441 454 455
f 439 459 443
f 439 456 459
f 448 460 444
f 444 460 457
f 461 425 426
f 458 425 461
f 462 426 409
f 462 409 453
f 443 463 447
f 443 459 463
f 450 464 448
f 448 464 460
f 465 415 416
f 466 416 422
f 465 416 466
f 461 426 462
f 447 467 449
f 447 463 467
f 455 468 450
f 450 468 464
f 469 419 415
f 469 415 465
f 470 422 434
f 466 422 470
f 449 471 454
f 449 467 471
f 454 472 455
f 455 472 468
f 454 471 472
f 452 473 451
f 457 474 452
f 452 474 473
f 451 475 456
f 451 473 475
f 460 476 457
f 457 476 474
f 477 431 419
f 477 419 469
f 456 478 459
f 456 475 478
f 464 479 460
f 460 479 476
f 480 434 446
f 470 434 480
f 459 481 463
f 459 478 481
f 468 482 464
f 464 482 479
f 463 483 467
f 463 481 483
f 472 484 468
f 468 484 482
f 467 485 471
f 467 483 485
f 471 486 472
f 472 486 484
f 471 485 486
f 487 445 431
f 487 431 477
f 488 446 458
f 480 446 488
f 474 489 473
f 476 490 474
f 474 490 489
f 473 491 475
f 473 489 491
f 479 492 476
f 476 492 490
f 475 493 478
f 475 491 493
f 482 494 479
f 479 494 492
f 478 495 481
f 478 493 495
f 484 496 482
f 482 496 494
f 497 453 445
f 497 445 487
f 481 498 483
f 481 495 498
f 486 499 484
f 484 499 496
f 500 458 461
f 488 458 500
f 483 501 485
f 483 498 501
f 485 502 486
f 486 502 499
f 485 501 502
f 503 462 453
f 503 453 497
f 504 461 462
f 500 461 504
f 504 462 503
f 490 505 489
f 492 506 490
f 490 506 505
f 489 507 491
f 489 505 507
f 494 508 492
f 492 508 506
f 491 509 493
f 491 507 509
f 496 510 494
f 494 510 508
f 511 465 466
f 512 466 470
f 511 466 512
f 493 513 495
f 493 509 513
f 499 514 496
f 496 514 510
f 515 469 465
f 515 465 511
f 495 516 498
f 495 513 516
f 502 517 499
f 499 517 514
f 518 470 480
f 512 470 518
f 498 519 501
f 498 516 519
f 501 520 502
f 502 520 517
f 501 519 520
f 521 477 469
f 521 469 515
f 522 480 488
f 518 480 522
f 506 523 505
f 508 524 506
f 506 524 523
f 505 525 507
f 505 523 525
f 510 526 508
f 508 526 524
f 527 487 477
f 527 477 521
f 507 528 509
f 507 525 528
f 514 529 510
f 510 529 526
f 509 530 513
f 509 528 530
f 517 531 514
f 514 531 529
f 532 488 500
f 522 488 532
f 513 533 516
f 513 530 533
f 520 534 517
f 517 534 531
f 516 535 519
f 516 533 535
f 519 536 520
f 520 536 534
f 519 535 536
f 537 497 487
f 537 487 527
f 538 500 504
f 532 500 538
f 539 503 497
f 539 497 537
f 540 504 503
f 538 504 540
f 526 541 524
f 529 542 526
f 526 542 541
f 524 543 523
f 524 541 543
f 523 544 525
f 523 543 544
f 540 503 539
f 525 545 528
f 525 544 545
f 531 546 529
f 529 546 542
f 534 547 531
f 531 547 546
f 528 548 530
f 528 545 548
f 530 549 533
f 530 548 549
f 536 550 534
f 534 550 547
f 535 551 536
f 536 551 550
f 533 552 535
f 535 552 551
f 533 549 552
f 553 511 512
f 554 512 518
f 553 512 554
f 555 515 511
f 555 511 553
f 556 518 522
f 554 518 556
f 557 521 515
f 557 515 555
f 558 522 532
f 556 522 558
f 559 527 521
f 559 521 557
f 560 532 538
f 558 532 560
f 561 537 527
f 561 527 559
f 562 538 540
f 560 538 562
f 563 539 537
f 563 537 561
f 564 540 539
f 562 540 564
f 564 539 563
f 565 553 554
f 566 554 556
f 565 554 566
f 567 555 553
f 567 553 565
f 568 557 555
f 568 555 567
f 569 556 558
f 566 556 569
f 570 559 557
f 570 557 568
f 571 558 560
f 569 558 571
f 572 561 559
f 572 559 570
f 573 560 562
f 571 560 573
f 574 563 561
f 574 561 572
f 575 562 564
f 573 562 575
f 576 564 563
f 575 564 576
f 576 563 574
f 577 565 566
f 578 567 565
f 578 565 577
f 579 566 569
f 577 566 579
f 580 568 567
f 580 567 578
f 581 570 568
f 581 568 580
f 582 569 571
f 579 569 582
f 583 572 570
f 583 570 581
f 584 571 573
f 582 571 584
f 585 574 572
f 585 572 583
f 586 573 575
f 584 573 586
f 587 575 576
f 586 575 587
f 588 576 574
f 588 574 585
f 587 576 588
f 589 578 577
f 590 580 578
f 590 578 589
f 591 577 579
f 589 577 591
f 592 581 580
f 592 580 590
f 593 579 582
f 591 579 593
f 594 583 581
f 594 581 592
f 595 582 584
f 593 582 595
f 596 585 583
f 596 583 594
f 597 584 586
f 595 584 597
f 598 588 585
f 598 585 596
f 599 586 587
f 597 586 599
f 600 587 588
f 600 588 598
f 599 587 600
f 601 590 589
f 602 592 590
f 602 590 601
f 603 589 591
f 601 589 603
f 604 594 592
f 604 592 602
f 605 591 593
f 603 591 605
f 606 596 594
f 606 594 604
f 607 593 595
f 605 593 607
f 608 598 596
f 608 596 606
f 609 595 597
f 607 595 609
f 610 600 598
f 610 598 608
f 611 597 599
f 609 597 611
f 612 599 600
f 612 600 610
f 611 599 612
