# 
# Wavefront OBJ file
# Created with Kaydara FBX
# 
mtllib c:\users\tjvan\onedrive\documenten\fontys\minor\nx\.mtlmodels\arcuate_ligament.r.obj

g Arcuate_ligament_r
v -0.123101 0.408007 -0.045386
v -0.123483 0.406687 -0.046355
v -0.123406 0.405801 -0.046068
v -0.122720 0.404805 -0.047437
v -0.123241 0.407607 -0.046579
v -0.123078 0.405622 -0.047866
v -0.122897 0.408748 -0.045553
v -0.123164 0.407230 -0.045244
v -0.123210 0.405841 -0.046065
v -0.122561 0.404897 -0.047359
v -0.122906 0.407964 -0.045403
v -0.123283 0.406682 -0.046351
v -0.123051 0.407554 -0.046547
v -0.122907 0.405676 -0.047777
v -0.122710 0.408680 -0.045535
v -0.122991 0.406628 -0.048092
v -0.122520 0.409148 -0.047054
v -0.122345 0.410131 -0.045815
v -0.122971 0.407218 -0.045295
v -0.121459 0.405480 -0.049377
v -0.121298 0.404846 -0.048959
v -0.122819 0.406614 -0.047991
v -0.122342 0.409072 -0.047003
v -0.122167 0.410048 -0.045775
v -0.122455 0.408138 -0.048318
v -0.121488 0.406239 -0.049621
v -0.121345 0.405564 -0.049235
v -0.121193 0.404960 -0.048833
v -0.122289 0.408085 -0.048219
v -0.121356 0.406264 -0.049473
v -0.121189 0.411598 -0.047361
v -0.121027 0.412608 -0.046175
v -0.121317 0.407622 -0.049777
v -0.121190 0.410610 -0.048605
v -0.121019 0.411510 -0.047300
v -0.120856 0.412517 -0.046123
v -0.121178 0.407599 -0.049635
v -0.121031 0.410536 -0.048509
v -0.120221 0.405799 -0.050326
v -0.120173 0.406229 -0.050581
v -0.120249 0.405428 -0.050015
v -0.120120 0.405879 -0.050173
v -0.120053 0.406262 -0.050425
v -0.120170 0.405544 -0.049872
v -0.120325 0.409779 -0.050145
v -0.119943 0.407174 -0.050960
v -0.119369 0.414606 -0.047904
v -0.119284 0.413698 -0.049142
v -0.119248 0.415483 -0.046731
v -0.120186 0.409728 -0.050011
v -0.119815 0.407165 -0.050807
v -0.119204 0.414515 -0.047835
v -0.119130 0.413617 -0.049043
v -0.119081 0.415392 -0.046671
v -0.119145 0.409076 -0.051382
v -0.118700 0.412473 -0.050657
v -0.119017 0.409038 -0.051234
v -0.118568 0.412410 -0.050521
v -0.117207 0.417854 -0.048643
v -0.117172 0.418816 -0.047607
v -0.117074 0.416909 -0.049729
v -0.117050 0.417769 -0.048554
v -0.117010 0.418733 -0.047524
v -0.117784 0.411122 -0.051630
v -0.117905 0.411174 -0.051781
v -0.116930 0.416829 -0.049615
v -0.116446 0.415543 -0.051236
v -0.116326 0.415478 -0.051089
v -0.115551 0.414162 -0.052054
v -0.115656 0.414217 -0.052215
v -0.114764 0.422574 -0.048844
v -0.114557 0.421458 -0.049853
v -0.114054 0.420291 -0.050945
v -0.114607 0.422518 -0.048733
v -0.114407 0.421396 -0.049736
v -0.113923 0.420232 -0.050806
v -0.113480 0.419026 -0.051940
v -0.113373 0.418976 -0.051778
v -0.112569 0.417713 -0.052508
v -0.112661 0.417756 -0.052680
v -0.112545 0.426070 -0.050810
v -0.112392 0.426053 -0.050681
v -0.112070 0.424938 -0.051421
v -0.111922 0.424917 -0.051287
v -0.111482 0.423773 -0.052192
v -0.111354 0.423758 -0.052040
v -0.110613 0.422345 -0.052867
v -0.110518 0.422340 -0.052691
v -0.109743 0.421017 -0.053205
v -0.109822 0.421023 -0.053388
v -0.110320 0.429619 -0.053460
v -0.110188 0.429625 -0.053310
v -0.109788 0.428082 -0.053982
v -0.109659 0.428088 -0.053829
v -0.109030 0.426524 -0.054497
v -0.108923 0.426543 -0.054329
v -0.108198 0.425137 -0.054575
v -0.108130 0.425181 -0.054392
v -0.107519 0.432815 -0.055925
v -0.107431 0.432841 -0.055747
v -0.107163 0.423915 -0.054074
v -0.107207 0.423863 -0.054262
v -0.106868 0.431165 -0.056069
v -0.106782 0.431186 -0.055889
v -0.106052 0.429500 -0.056291
v -0.105991 0.429530 -0.056103
v -0.105213 0.427783 -0.056152
v -0.105188 0.427843 -0.055962
v -0.103826 0.434977 -0.057920
v -0.103794 0.435023 -0.057728
v -0.104285 0.426289 -0.055264
v -0.104289 0.426209 -0.055448
v -0.103145 0.433217 -0.057553
v -0.103113 0.433257 -0.057360
v -0.102277 0.431428 -0.057261
v -0.102264 0.431472 -0.057067
v -0.101661 0.429845 -0.056817
v -0.101671 0.429909 -0.056627
v -0.101015 0.428408 -0.055855
v -0.100994 0.428331 -0.056039
v -0.099598 0.436867 -0.058653
v -0.099616 0.436919 -0.058461
v -0.099218 0.435240 -0.058119
v -0.099234 0.435288 -0.057926
v -0.098636 0.433577 -0.057684
v -0.098659 0.433628 -0.057492
v -0.097949 0.431819 -0.056974
v -0.097983 0.431884 -0.056788
v -0.097214 0.430125 -0.056059
v -0.097174 0.430052 -0.056241
v -0.094607 0.438358 -0.058045
v -0.094657 0.438404 -0.057857
v -0.094316 0.436561 -0.057311
v -0.094267 0.436517 -0.057500
v -0.093798 0.434723 -0.056740
v -0.093748 0.434675 -0.056928
v -0.093437 0.433175 -0.056173
v -0.093383 0.433110 -0.056354
v -0.093056 0.431704 -0.055266
v -0.092999 0.431627 -0.055442
v -0.089540 0.439118 -0.056480
v -0.089608 0.439151 -0.056295
v -0.089423 0.437536 -0.055920
v -0.089357 0.437502 -0.056106
v -0.089083 0.435937 -0.055467
v -0.089021 0.435898 -0.055653
v -0.088913 0.434367 -0.055048
v -0.088852 0.434306 -0.055228
v -0.088715 0.432859 -0.054352
v -0.088654 0.432778 -0.054524
v -0.085492 0.439432 -0.054802
v -0.085561 0.439438 -0.054615
v -0.085633 0.437865 -0.054535
v -0.085568 0.437851 -0.054724
v -0.085563 0.436305 -0.054332
v -0.085509 0.436284 -0.054523
v -0.085646 0.434700 -0.054131
v -0.085598 0.434647 -0.054318
v -0.085764 0.433223 -0.053407
v -0.085717 0.433145 -0.053584
v -0.082614 0.433583 -0.053149
v -0.082324 0.435093 -0.053602
v -0.082303 0.435062 -0.053799
v -0.082593 0.433518 -0.053337
v -0.081997 0.436662 -0.053491
v -0.081798 0.438333 -0.053391
v -0.081475 0.439975 -0.053036
v -0.081970 0.436669 -0.053689
v -0.081759 0.438349 -0.053587
v -0.081437 0.440002 -0.053230
v -0.080687 0.433786 -0.053222
v -0.079978 0.435516 -0.053574
v -0.079992 0.435512 -0.053773
v -0.080693 0.433743 -0.053417
v -0.079175 0.437233 -0.053376
v -0.079190 0.437274 -0.053571
v -0.078669 0.438933 -0.052931
v -0.078675 0.438982 -0.053124
v -0.077982 0.440649 -0.052535
v -0.077994 0.440704 -0.052727
v -0.078513 0.434081 -0.053579
v -0.077649 0.436091 -0.054179
v -0.078541 0.434053 -0.053775
v -0.077614 0.436064 -0.053984
v -0.076490 0.438005 -0.053852
v -0.076455 0.437945 -0.053664
v -0.075259 0.439811 -0.053413
v -0.075230 0.439748 -0.053225
v -0.073818 0.441541 -0.052760
v -0.073845 0.441603 -0.052948
usemtl Arcuate_ligament_rMaterial0
f 1 2 3
f 2 4 3
f 5 6 2
f 7 5 2
f 7 2 1
f 2 6 4
f 8 3 9
f 3 10 9
f 1 3 8
f 3 4 10
f 11 9 12
f 12 9 10
f 13 12 14
f 15 12 13
f 12 10 14
f 15 11 12
f 5 16 6
f 17 16 5
f 18 5 7
f 18 17 5
f 8 9 19
f 11 19 9
f 1 8 19
f 1 19 11
f 7 1 11
f 16 20 6
f 6 21 4
f 6 20 21
f 13 14 22
f 23 13 22
f 24 15 13
f 24 13 23
f 17 25 16
f 25 26 16
f 16 26 20
f 22 14 27
f 14 10 28
f 14 28 27
f 7 11 15
f 18 7 15
f 23 22 29
f 29 22 30
f 22 27 30
f 4 28 10
f 4 21 28
f 18 15 24
f 31 25 17
f 32 17 18
f 32 31 17
f 25 33 26
f 34 33 25
f 31 34 25
f 35 23 29
f 36 24 23
f 36 23 35
f 32 18 24
f 29 30 37
f 38 29 37
f 35 29 38
f 32 24 36
f 26 39 20
f 33 40 26
f 26 40 39
f 20 41 21
f 20 39 41
f 30 27 42
f 37 30 43
f 30 42 43
f 27 28 44
f 27 44 42
f 34 45 33
f 45 46 33
f 33 46 40
f 21 44 28
f 21 41 44
f 47 34 31
f 48 45 34
f 47 48 34
f 49 31 32
f 49 47 31
f 38 37 50
f 50 37 51
f 37 43 51
f 52 35 38
f 53 38 50
f 52 38 53
f 54 36 35
f 54 35 52
f 49 32 36
f 49 36 54
f 45 55 46
f 48 56 45
f 56 55 45
f 41 39 42
f 41 42 44
f 39 40 43
f 39 43 42
f 50 51 57
f 53 50 58
f 58 50 57
f 40 51 43
f 40 46 51
f 46 57 51
f 46 55 57
f 59 48 47
f 60 47 49
f 60 59 47
f 61 56 48
f 59 61 48
f 60 49 54
f 62 52 53
f 63 54 52
f 63 52 62
f 55 64 57
f 56 65 55
f 55 65 64
f 66 53 58
f 62 53 66
f 60 54 63
f 58 57 64
f 67 65 56
f 61 67 56
f 68 58 64
f 66 58 68
f 65 69 64
f 67 70 65
f 65 70 69
f 68 64 69
f 71 59 60
f 72 61 59
f 71 72 59
f 71 60 63
f 73 67 61
f 72 73 61
f 74 63 62
f 75 62 66
f 74 62 75
f 71 63 74
f 76 66 68
f 75 66 76
f 77 70 67
f 73 77 67
f 78 68 69
f 76 68 78
f 70 79 69
f 77 80 70
f 70 80 79
f 78 69 79
f 81 71 74
f 81 72 71
f 82 74 75
f 81 74 82
f 83 73 72
f 81 83 72
f 84 75 76
f 82 75 84
f 85 77 73
f 83 85 73
f 86 76 78
f 84 76 86
f 87 80 77
f 85 87 77
f 88 78 79
f 86 78 88
f 80 89 79
f 87 90 80
f 80 90 89
f 88 79 89
f 91 81 82
f 91 83 81
f 92 82 84
f 91 82 92
f 93 85 83
f 91 93 83
f 94 84 86
f 92 84 94
f 95 87 85
f 93 95 85
f 96 86 88
f 94 86 96
f 97 90 87
f 95 97 87
f 98 88 89
f 96 88 98
f 99 91 92
f 99 93 91
f 100 92 94
f 99 92 100
f 90 101 89
f 97 102 90
f 90 102 101
f 103 95 93
f 99 103 93
f 98 89 101
f 104 94 96
f 100 94 104
f 105 97 95
f 103 105 95
f 106 96 98
f 104 96 106
f 107 102 97
f 105 107 97
f 108 98 101
f 106 98 108
f 109 99 100
f 109 103 99
f 110 100 104
f 109 100 110
f 102 111 101
f 107 112 102
f 102 112 111
f 108 101 111
f 113 105 103
f 109 113 103
f 114 104 106
f 110 104 114
f 115 107 105
f 113 115 105
f 116 106 108
f 114 106 116
f 117 112 107
f 115 117 107
f 118 108 111
f 116 108 118
f 112 119 111
f 117 120 112
f 112 120 119
f 118 111 119
f 121 109 110
f 121 113 109
f 122 110 114
f 121 110 122
f 123 115 113
f 121 123 113
f 124 114 116
f 122 114 124
f 125 117 115
f 123 125 115
f 126 116 118
f 124 116 126
f 127 120 117
f 125 127 117
f 128 118 119
f 126 118 128
f 120 129 119
f 128 119 129
f 127 130 120
f 120 130 129
f 131 121 122
f 132 122 124
f 131 122 132
f 131 123 121
f 133 124 126
f 132 124 133
f 134 125 123
f 131 134 123
f 135 126 128
f 133 126 135
f 136 127 125
f 134 136 125
f 137 128 129
f 135 128 137
f 138 130 127
f 136 138 127
f 130 139 129
f 137 129 139
f 138 140 130
f 130 140 139
f 141 131 132
f 142 132 133
f 141 132 142
f 141 134 131
f 143 133 135
f 142 133 143
f 144 136 134
f 141 144 134
f 145 135 137
f 143 135 145
f 146 138 136
f 144 146 136
f 147 137 139
f 145 137 147
f 148 140 138
f 146 148 138
f 140 149 139
f 147 139 149
f 148 150 140
f 140 150 149
f 151 141 142
f 152 142 143
f 151 142 152
f 151 144 141
f 153 143 145
f 152 143 153
f 154 146 144
f 151 154 144
f 155 145 147
f 153 145 155
f 156 148 146
f 154 156 146
f 157 147 149
f 155 147 157
f 158 150 148
f 156 158 148
f 150 159 149
f 157 149 159
f 150 160 159
f 158 160 150
f 160 161 159
f 162 157 159
f 162 159 161
f 163 160 158
f 160 164 161
f 163 164 160
f 165 155 157
f 165 157 162
f 166 153 155
f 167 152 153
f 167 153 166
f 168 158 156
f 168 163 158
f 166 155 165
f 169 156 154
f 170 154 151
f 170 169 154
f 170 151 152
f 170 152 167
f 169 168 156
f 164 171 161
f 172 162 161
f 172 161 171
f 173 164 163
f 164 174 171
f 173 174 164
f 175 165 162
f 175 162 172
f 176 163 168
f 176 173 163
f 177 166 165
f 177 165 175
f 178 168 169
f 178 176 168
f 179 167 166
f 179 166 177
f 180 169 170
f 180 178 169
f 180 170 167
f 180 167 179
f 174 181 171
f 182 174 173
f 174 183 181
f 182 183 174
f 184 172 171
f 184 171 181
f 185 173 176
f 185 182 173
f 186 175 172
f 186 172 184
f 187 176 178
f 187 185 176
f 188 177 175
f 188 175 186
f 189 179 177
f 189 177 188
f 190 178 180
f 190 187 178
f 183 184 181
f 183 182 184
f 190 180 179
f 190 179 189
f 182 186 184
f 182 185 186
f 185 188 186
f 185 187 188
f 187 189 188
f 187 190 189
