# 
# Wavefront OBJ file
# Created with Kaydara FBX
# 
mtllib c:\users\tjvan\onedrive\documenten\fontys\minor\nx\.mtlmodels\art_cart_of_tibia_proximal_tibiofibular_joint.r​.obj

g Art_cart_of_tibia_proximal_tibiofibular_joint_r_
v -0.115448 0.415992 -0.038843
v -0.115418 0.415517 -0.039210
v -0.115330 0.413921 -0.036480
v -0.114248 0.417015 -0.041771
v -0.115211 0.414464 -0.036152
v -0.114957 0.414902 -0.035897
v -0.115223 0.416368 -0.038488
v -0.114355 0.417953 -0.041241
v -0.114419 0.417524 -0.041542
v -0.114966 0.415088 -0.039491
v -0.113831 0.416580 -0.041876
v -0.114326 0.413424 -0.033752
v -0.114993 0.413511 -0.036861
v -0.114191 0.412318 -0.034496
v -0.114418 0.412784 -0.034097
v -0.114855 0.414562 -0.036029
v -0.115150 0.416041 -0.038618
v -0.114123 0.413932 -0.033511
v -0.115139 0.415529 -0.038844
v -0.114214 0.417566 -0.041260
v -0.114926 0.413971 -0.036235
v -0.114586 0.413512 -0.036507
v -0.114737 0.415039 -0.039010
v -0.113673 0.416556 -0.041316
v -0.114037 0.417025 -0.041332
v -0.114327 0.414782 -0.039683
v -0.114425 0.413216 -0.037226
v -0.114034 0.412854 -0.034016
v -0.113762 0.412329 -0.034341
v -0.113987 0.413523 -0.033733
v -0.114042 0.413203 -0.036726
v -0.114141 0.414693 -0.039081
v -0.113401 0.412332 -0.031749
v -0.113387 0.411732 -0.032154
v -0.113756 0.413065 -0.037541
v -0.113704 0.412006 -0.034899
v -0.112699 0.418491 -0.044104
v -0.112443 0.417994 -0.044103
v -0.112575 0.418540 -0.043784
v -0.112706 0.418895 -0.043906
v -0.113262 0.416214 -0.041900
v -0.113596 0.414529 -0.039855
v -0.112584 0.415847 -0.041915
v -0.112665 0.410979 -0.032997
v -0.113166 0.411258 -0.032565
v -0.113492 0.414379 -0.039108
v -0.113188 0.416127 -0.041240
v -0.113100 0.412431 -0.031801
v -0.113271 0.412785 -0.031502
v -0.113082 0.411816 -0.032182
v -0.113204 0.411991 -0.034691
v -0.113366 0.412995 -0.036948
v -0.112377 0.411796 -0.035170
v -0.112354 0.418058 -0.043622
v -0.111602 0.417142 -0.043880
v -0.112072 0.417558 -0.044020
v -0.112152 0.411046 -0.033132
v -0.112800 0.411350 -0.032591
v -0.113022 0.411818 -0.035351
v -0.112633 0.414252 -0.040032
v -0.112237 0.411716 -0.035868
v -0.112854 0.412928 -0.037912
v -0.111612 0.417134 -0.043136
v -0.112030 0.417594 -0.043403
v -0.111661 0.415388 -0.041905
v -0.112448 0.412829 -0.037242
v -0.112565 0.415651 -0.041088
v -0.111749 0.415106 -0.040870
v -0.112522 0.413991 -0.039131
v -0.112327 0.410545 -0.030436
v -0.112383 0.411487 -0.029704
v -0.112464 0.411055 -0.029978
v -0.112178 0.411217 -0.030054
v -0.111028 0.416668 -0.043722
v -0.112029 0.410172 -0.030877
v -0.111808 0.410396 -0.031057
v -0.112103 0.410716 -0.030537
v -0.111995 0.410757 -0.033566
v -0.111316 0.413935 -0.040242
v -0.111591 0.412812 -0.038385
v -0.110465 0.419006 -0.046103
v -0.110466 0.419427 -0.046003
v -0.111555 0.409896 -0.031379
v -0.110956 0.409694 -0.031999
v -0.110409 0.414787 -0.041889
v -0.111090 0.416602 -0.042813
v -0.110243 0.416047 -0.043548
v -0.110241 0.418658 -0.045389
v -0.110390 0.419118 -0.045728
v -0.111528 0.413630 -0.039106
v -0.111335 0.410080 -0.027908
v -0.111338 0.409640 -0.028281
v -0.111535 0.411703 -0.035649
v -0.110511 0.411685 -0.036384
v -0.111348 0.412693 -0.037607
v -0.109964 0.418037 -0.045654
v -0.110248 0.418506 -0.045909
v -0.111385 0.410818 -0.033744
v -0.110586 0.410638 -0.034379
v -0.110908 0.408839 -0.029327
v -0.111196 0.409168 -0.028816
v -0.111247 0.410590 -0.034245
v -0.111014 0.411689 -0.036633
v -0.110190 0.410458 -0.035206
v -0.111007 0.409387 -0.028824
v -0.111129 0.409830 -0.028290
v -0.111309 0.410151 -0.031629
v -0.110611 0.409880 -0.032265
v -0.110032 0.418210 -0.045023
v -0.110391 0.408830 -0.029935
v -0.110762 0.409065 -0.029356
v -0.110790 0.414494 -0.040563
v -0.110384 0.415925 -0.042399
v -0.109474 0.415120 -0.041905
v -0.109647 0.417568 -0.045369
v -0.109384 0.417156 -0.044140
v -0.109763 0.417752 -0.044629
v -0.109951 0.412613 -0.039024
v -0.109634 0.411527 -0.037627
v -0.110502 0.408559 -0.029925
v -0.109596 0.410463 -0.035243
v -0.110505 0.413338 -0.039174
v -0.109848 0.409597 -0.032953
v -0.110125 0.407907 -0.026712
v -0.109916 0.408119 -0.026647
v -0.110051 0.408349 -0.026224
v -0.109367 0.411634 -0.037389
v -0.110079 0.412670 -0.038354
v -0.109807 0.408622 -0.030596
v -0.109694 0.413507 -0.040464
v -0.110242 0.409477 -0.032775
v -0.110044 0.407514 -0.027317
v -0.109275 0.417031 -0.045038
v -0.109644 0.407464 -0.027846
v -0.109882 0.407714 -0.027238
v -0.109982 0.408395 -0.030548
v -0.109283 0.408147 -0.031436
v -0.109447 0.407037 -0.028569
v -0.109786 0.407262 -0.027915
v -0.109685 0.413773 -0.040141
v -0.109314 0.407249 -0.028503
v -0.109029 0.406867 -0.029245
v -0.108731 0.412897 -0.039503
v -0.107973 0.419668 -0.047548
v -0.107999 0.418488 -0.046971
v -0.108054 0.419065 -0.047391
v -0.109181 0.415262 -0.043318
v -0.108932 0.414030 -0.041787
v -0.107911 0.414319 -0.042951
v -0.108809 0.416360 -0.043585
v -0.108048 0.419227 -0.047031
v -0.109284 0.409168 -0.033899
v -0.108645 0.416356 -0.044728
v -0.107821 0.415513 -0.044335
v -0.107890 0.417984 -0.046551
v -0.108073 0.418375 -0.046068
v -0.108090 0.418783 -0.046545
v -0.109014 0.410247 -0.036394
v -0.108349 0.408800 -0.035266
v -0.108687 0.405631 -0.026193
v -0.108541 0.406204 -0.025040
v -0.108675 0.405913 -0.025544
v -0.108349 0.413026 -0.040648
v -0.108015 0.411361 -0.038745
v -0.108183 0.412333 -0.039822
v -0.108473 0.405810 -0.026083
v -0.108447 0.406096 -0.025458
v -0.108358 0.405610 -0.026744
v -0.109112 0.408326 -0.031373
v -0.108893 0.409186 -0.033889
v -0.108275 0.407829 -0.032519
v -0.108871 0.407062 -0.029204
v -0.108276 0.406813 -0.030126
v -0.108540 0.405450 -0.026872
v -0.108025 0.417918 -0.045549
v -0.108425 0.414173 -0.041323
v -0.107969 0.417087 -0.045672
v -0.107824 0.417513 -0.046130
v -0.108570 0.410289 -0.036386
v -0.107917 0.408689 -0.035203
v -0.108023 0.415411 -0.042983
v -0.107089 0.414286 -0.042303
v -0.108283 0.405317 -0.027572
v -0.107420 0.416534 -0.044365
v -0.107893 0.417340 -0.044963
v -0.107963 0.411751 -0.038695
v -0.107351 0.410302 -0.037690
v -0.107721 0.405355 -0.028289
v -0.108118 0.405474 -0.027444
v -0.108433 0.407707 -0.032748
v -0.108372 0.406621 -0.030340
v -0.107552 0.406252 -0.031818
v -0.106795 0.414507 -0.043810
v -0.107466 0.406419 -0.031481
v -0.107336 0.405101 -0.029571
v -0.107911 0.405215 -0.028366
v -0.107665 0.410105 -0.037670
v -0.107578 0.413119 -0.041456
v -0.107295 0.407287 -0.034024
v -0.107217 0.405244 -0.029304
v -0.106694 0.415504 -0.043734
v -0.107414 0.413054 -0.040646
v -0.106624 0.411678 -0.039824
v -0.107185 0.403728 -0.024952
v -0.107224 0.403576 -0.026393
v -0.107302 0.403609 -0.025670
v -0.107330 0.416559 -0.045489
v -0.106828 0.408641 -0.036671
v -0.106938 0.403869 -0.024860
v -0.106943 0.403885 -0.024316
v -0.107070 0.403723 -0.025544
v -0.107577 0.407312 -0.034227
v -0.106182 0.412967 -0.041528
v -0.106833 0.403637 -0.027021
v -0.107008 0.403671 -0.026265
v -0.107247 0.408660 -0.036661
v -0.106632 0.407178 -0.035760
v -0.106865 0.412124 -0.040727
v -0.107051 0.403565 -0.027136
v -0.106535 0.411093 -0.039819
v -0.106513 0.403692 -0.027922
v -0.106526 0.417806 -0.046340
v -0.105929 0.418317 -0.047440
v -0.106261 0.418024 -0.046877
v -0.106183 0.417559 -0.047175
v -0.105958 0.417992 -0.047651
v -0.106978 0.417269 -0.045309
v -0.106772 0.417555 -0.045805
v -0.106124 0.410182 -0.038853
v -0.106669 0.416863 -0.046117
v -0.105692 0.418495 -0.047851
v -0.106751 0.403614 -0.027985
v -0.106701 0.413235 -0.042335
v -0.105762 0.413349 -0.043047
v -0.106394 0.417194 -0.046660
v -0.106656 0.415750 -0.045085
v -0.106102 0.403733 -0.028993
v -0.106320 0.409886 -0.038851
v -0.106740 0.405934 -0.033457
v -0.106599 0.404883 -0.031209
v -0.105881 0.404653 -0.032874
v -0.106564 0.406000 -0.033170
v -0.106508 0.405019 -0.030799
v -0.105721 0.404743 -0.032583
v -0.105475 0.411465 -0.040656
v -0.106393 0.416606 -0.044935
v -0.105643 0.415524 -0.044338
v -0.106260 0.403659 -0.029268
v -0.105914 0.415967 -0.045720
v -0.106018 0.401646 -0.025858
v -0.106233 0.407118 -0.035708
v -0.105598 0.405812 -0.034888
v -0.106094 0.408574 -0.037890
v -0.106001 0.401999 -0.027285
v -0.106085 0.401779 -0.026551
v -0.105604 0.401512 -0.024702
v -0.105854 0.401528 -0.025175
v -0.105846 0.414264 -0.043003
v -0.105799 0.401851 -0.026472
v -0.105587 0.401647 -0.025111
v -0.105751 0.401739 -0.025780
v -0.105836 0.402210 -0.028113
v -0.105823 0.416673 -0.045488
v -0.105899 0.412070 -0.041498
v -0.105742 0.402055 -0.027254
v -0.105194 0.407146 -0.037035
v -0.105753 0.408674 -0.037907
v -0.105797 0.414695 -0.044498
v -0.105412 0.416719 -0.046016
v -0.105401 0.402329 -0.029276
v -0.105892 0.405820 -0.035015
v -0.105012 0.412091 -0.042128
v -0.104835 0.414192 -0.043585
v -0.105650 0.407156 -0.037002
v -0.105045 0.405797 -0.036209
v -0.105627 0.403549 -0.030878
v -0.105226 0.409635 -0.039706
v -0.105469 0.410896 -0.040609
v -0.105576 0.402265 -0.028101
v -0.105471 0.403644 -0.030570
v -0.105478 0.416136 -0.046260
v -0.104710 0.402299 -0.030717
v -0.104570 0.416851 -0.046979
v -0.105016 0.416779 -0.046524
v -0.104583 0.405768 -0.036236
v -0.105068 0.412846 -0.042151
v -0.104667 0.416526 -0.047180
v -0.105093 0.416310 -0.046751
v -0.104642 0.408461 -0.038753
v -0.105027 0.409927 -0.039712
v -0.105072 0.400398 -0.027353
v -0.105216 0.402366 -0.029064
v -0.104514 0.402361 -0.030493
v -0.104990 0.408337 -0.038773
v -0.104648 0.399614 -0.026241
v -0.104899 0.399984 -0.026817
v -0.105264 0.401375 -0.028426
v -0.105186 0.400862 -0.027911
v -0.105101 0.414808 -0.045088
v -0.104637 0.414866 -0.045578
v -0.105117 0.404535 -0.034363
v -0.104974 0.403372 -0.032445
v -0.104322 0.403313 -0.033910
v -0.104309 0.399319 -0.025589
v -0.104153 0.412683 -0.042711
v -0.104982 0.415480 -0.044887
v -0.104863 0.400520 -0.027290
v -0.104888 0.413451 -0.043672
v -0.104261 0.413476 -0.044218
v -0.104676 0.400100 -0.026748
v -0.105046 0.401473 -0.028361
v -0.104973 0.400977 -0.027860
v -0.104201 0.407078 -0.037794
v -0.104886 0.404565 -0.034168
v -0.104770 0.403423 -0.032192
v -0.104076 0.403336 -0.033723
v -0.104264 0.416838 -0.047299
v -0.104250 0.405750 -0.036949
v -0.104664 0.407047 -0.037851
v -0.104415 0.399724 -0.026176
v -0.104594 0.410780 -0.041209
v -0.104504 0.411272 -0.041248
v -0.104119 0.409715 -0.040278
v -0.104070 0.415367 -0.045848
v -0.104509 0.415413 -0.045380
v -0.104777 0.401201 -0.029242
v -0.104443 0.400259 -0.029041
v -0.104604 0.401304 -0.029094
v -0.103930 0.401249 -0.030458
v -0.104045 0.408196 -0.039273
v -0.104335 0.409459 -0.040280
v -0.104250 0.399590 -0.028793
v -0.103668 0.405707 -0.036881
v -0.104405 0.404558 -0.035549
v -0.103757 0.415055 -0.046443
v -0.104221 0.414933 -0.046032
v -0.103699 0.411061 -0.041764
v -0.104266 0.400404 -0.028934
v -0.103982 0.404833 -0.036267
v -0.103712 0.408304 -0.039234
v -0.104216 0.412067 -0.042721
v -0.103836 0.410657 -0.041737
v -0.103614 0.415361 -0.046260
v -0.104100 0.402272 -0.032246
v -0.104170 0.414070 -0.044102
v -0.103673 0.413948 -0.044557
v -0.103760 0.398430 -0.028204
v -0.104016 0.398992 -0.028504
v -0.103981 0.404444 -0.035411
v -0.103631 0.403570 -0.034703
v -0.103831 0.399154 -0.028421
v -0.104069 0.399741 -0.028691
v -0.104095 0.401130 -0.030644
v -0.103754 0.400127 -0.030622
v -0.103888 0.402291 -0.032021
v -0.103339 0.402579 -0.033573
v -0.103420 0.401328 -0.032265
v -0.103431 0.405661 -0.037321
v -0.103757 0.406934 -0.038306
v -0.103794 0.413469 -0.044675
v -0.103353 0.413467 -0.045113
v -0.103599 0.400292 -0.030454
v -0.103382 0.409526 -0.040711
v -0.103206 0.413840 -0.044992
v -0.103571 0.398574 -0.028144
v -0.103685 0.403691 -0.035282
v -0.103315 0.408040 -0.039680
v -0.103596 0.409309 -0.040730
v -0.103518 0.402519 -0.033819
v -0.102884 0.403172 -0.035245
v -0.103460 0.398158 -0.027954
v -0.103632 0.412019 -0.043191
v -0.103155 0.411953 -0.043617
v -0.103344 0.415308 -0.046564
v -0.103227 0.398723 -0.030562
v -0.103501 0.399392 -0.030601
v -0.102860 0.413503 -0.045541
v -0.103283 0.406943 -0.038242
v -0.103518 0.412505 -0.043176
v -0.103012 0.412335 -0.043589
v -0.103339 0.399562 -0.030456
v -0.103170 0.404376 -0.035923
v -0.103320 0.404481 -0.036310
v -0.103257 0.401387 -0.032057
v -0.102682 0.401973 -0.033657
v -0.102805 0.398320 -0.030394
v -0.103080 0.398930 -0.030428
v -0.103274 0.410544 -0.042149
v -0.103051 0.409158 -0.041088
v -0.102611 0.397744 -0.030401
v -0.102952 0.398099 -0.030499
v -0.102717 0.399768 -0.032598
v -0.103001 0.400462 -0.032422
v -0.102690 0.405476 -0.037666
v -0.102977 0.406774 -0.038675
v -0.103037 0.408134 -0.039611
v -0.102657 0.406769 -0.038598
v -0.103105 0.410877 -0.042164
v -0.102804 0.405583 -0.037280
v -0.102423 0.404234 -0.036251
v -0.103026 0.403262 -0.034854
v -0.102358 0.413683 -0.045759
v -0.102707 0.413766 -0.045404
v -0.102588 0.399986 -0.032382
v -0.102872 0.400616 -0.032205
v -0.102809 0.401870 -0.033896
v -0.102587 0.410704 -0.042517
v -0.102460 0.399134 -0.032747
v -0.102388 0.401271 -0.034170
v -0.102822 0.409344 -0.041063
v -0.102532 0.407969 -0.039930
v -0.102699 0.411886 -0.044026
v -0.102570 0.404212 -0.036515
v -0.102823 0.407880 -0.039989
v -0.102771 0.410433 -0.042523
v -0.102555 0.409009 -0.041414
v -0.102300 0.401447 -0.033903
v -0.102537 0.412181 -0.043979
v -0.102042 0.412044 -0.044339
v -0.102362 0.402956 -0.035069
v -0.102288 0.410319 -0.042882
v -0.102317 0.409174 -0.041379
v -0.102352 0.399384 -0.032557
v -0.102217 0.406592 -0.038921
v -0.102065 0.400719 -0.034461
v -0.102548 0.406583 -0.038977
v -0.102104 0.398539 -0.032827
v -0.102314 0.402763 -0.035423
v -0.102168 0.403965 -0.036780
v -0.102002 0.400970 -0.034165
v -0.102210 0.411825 -0.044428
v -0.101777 0.411904 -0.044594
v -0.102139 0.406398 -0.039271
v -0.102360 0.407707 -0.040293
v -0.102066 0.407790 -0.040247
v -0.102046 0.398875 -0.032658
v -0.102283 0.405389 -0.037614
v -0.102305 0.405268 -0.037944
v -0.101887 0.405177 -0.037946
v -0.101792 0.398476 -0.032748
v -0.101701 0.400497 -0.034417
v -0.102085 0.410531 -0.042856
v -0.101923 0.407529 -0.040598
v -0.102075 0.408860 -0.041724
v -0.101575 0.410373 -0.043170
v -0.101295 0.399771 -0.034870
v -0.101732 0.400211 -0.034692
v -0.101998 0.403998 -0.036559
v -0.101966 0.402365 -0.035713
v -0.101354 0.400077 -0.034596
v -0.101982 0.402623 -0.035346
v -0.101727 0.406220 -0.039563
v -0.101795 0.403705 -0.037077
v -0.101920 0.405054 -0.038239
v -0.101823 0.408999 -0.041678
v -0.101617 0.403742 -0.036880
v -0.101772 0.410202 -0.043248
v -0.101561 0.408698 -0.042031
v -0.101788 0.406413 -0.039243
v -0.101597 0.401988 -0.036020
v -0.101622 0.407610 -0.040553
v -0.101367 0.406251 -0.039543
v -0.101312 0.408831 -0.041946
v -0.101037 0.399739 -0.034728
v -0.101642 0.402265 -0.035658
v -0.101420 0.403440 -0.037367
v -0.101517 0.404852 -0.038523
v -0.101471 0.407371 -0.040873
v -0.101474 0.404981 -0.038263
v -0.101241 0.403496 -0.037191
v -0.101100 0.407457 -0.040823
v -0.101264 0.410213 -0.043437
v -0.101207 0.401644 -0.036288
v -0.101098 0.404684 -0.038788
v -0.101304 0.406071 -0.039826
v -0.101305 0.401935 -0.035940
v -0.100877 0.406135 -0.039812
v -0.100994 0.403205 -0.037633
v -0.101032 0.407281 -0.041059
v -0.101069 0.408658 -0.042170
v -0.101055 0.404819 -0.038556
v -0.100828 0.403285 -0.037466
v -0.100918 0.401637 -0.036183
v -0.100734 0.401334 -0.036499
v -0.100517 0.401390 -0.036349
v -0.100657 0.404566 -0.039008
v -0.100875 0.405973 -0.040026
v -0.100590 0.404715 -0.038815
v -0.100387 0.403130 -0.037682
v -0.100530 0.403019 -0.037852
usemtl Art_cart_of_tibia_proximal_tibiofibular_joint_r_Material0
f 1 2 3
f 1 4 2
f 1 3 5
f 1 6 7
f 8 1 7
f 1 5 6
f 8 9 1
f 1 9 4
f 3 2 10
f 11 10 2
f 11 2 4
f 3 12 5
f 3 10 13
f 3 13 14
f 3 15 12
f 3 14 15
f 16 17 7
f 8 7 17
f 16 7 6
f 18 6 5
f 18 5 12
f 16 19 17
f 19 20 17
f 8 17 20
f 16 21 19
f 19 21 22
f 19 22 23
f 19 23 24
f 19 25 20
f 19 24 25
f 26 13 10
f 26 27 13
f 14 13 27
f 18 16 6
f 11 26 10
f 16 28 21
f 29 22 21
f 29 21 28
f 18 30 16
f 16 30 28
f 31 23 22
f 31 32 23
f 24 23 32
f 31 22 29
f 33 12 15
f 14 34 15
f 33 15 34
f 26 35 27
f 14 27 36
f 35 36 27
f 8 37 9
f 38 4 9
f 38 9 37
f 39 8 20
f 8 40 37
f 39 40 8
f 33 18 12
f 11 41 26
f 26 42 35
f 26 43 42
f 26 41 43
f 38 11 4
f 39 20 25
f 14 36 44
f 14 45 34
f 14 44 45
f 46 32 31
f 24 32 47
f 46 47 32
f 18 48 30
f 33 49 18
f 18 49 48
f 50 28 30
f 29 28 50
f 31 29 51
f 46 31 52
f 31 53 52
f 31 51 53
f 24 54 25
f 39 25 54
f 50 30 48
f 11 55 41
f 38 56 11
f 11 56 55
f 29 57 51
f 29 50 58
f 29 58 57
f 35 59 36
f 35 42 60
f 35 61 59
f 35 60 62
f 35 62 61
f 44 36 59
f 24 47 63
f 24 64 54
f 24 63 64
f 65 60 42
f 65 42 43
f 46 52 66
f 46 67 47
f 68 67 46
f 46 66 69
f 68 46 69
f 70 33 34
f 33 71 49
f 33 72 71
f 70 72 33
f 70 34 45
f 53 66 52
f 73 48 49
f 73 49 71
f 74 43 41
f 74 41 55
f 57 53 51
f 63 47 67
f 44 75 45
f 70 45 75
f 50 48 73
f 50 76 58
f 50 73 77
f 50 77 76
f 44 59 78
f 61 78 59
f 79 62 60
f 61 62 80
f 79 80 62
f 76 57 58
f 81 37 40
f 81 38 37
f 39 82 40
f 81 40 82
f 44 83 75
f 44 78 84
f 44 84 83
f 85 60 65
f 85 79 60
f 68 86 67
f 63 67 86
f 87 65 43
f 87 43 74
f 88 39 54
f 39 89 82
f 88 89 39
f 66 90 69
f 68 69 90
f 91 71 72
f 70 92 72
f 91 72 92
f 53 93 66
f 66 93 94
f 66 95 90
f 66 94 95
f 38 96 56
f 81 97 38
f 38 97 96
f 73 71 91
f 57 98 53
f 53 99 93
f 53 98 99
f 88 54 64
f 100 70 75
f 70 101 92
f 100 101 70
f 61 102 78
f 61 80 103
f 61 104 102
f 61 103 104
f 73 105 77
f 73 91 106
f 73 106 105
f 76 107 57
f 57 108 98
f 57 107 108
f 105 76 77
f 55 56 96
f 100 75 83
f 63 109 64
f 88 64 109
f 84 78 102
f 76 110 107
f 105 111 76
f 76 111 110
f 68 90 112
f 68 113 86
f 114 68 112
f 114 113 68
f 87 85 65
f 74 55 115
f 55 96 115
f 63 86 116
f 63 117 109
f 63 116 117
f 79 118 80
f 119 103 80
f 119 80 118
f 84 120 83
f 100 83 120
f 121 93 99
f 121 94 93
f 122 90 95
f 122 112 90
f 123 98 108
f 123 99 98
f 91 92 124
f 124 92 101
f 91 125 106
f 91 124 126
f 91 126 125
f 127 95 94
f 122 95 128
f 127 128 95
f 129 108 107
f 129 107 110
f 85 130 79
f 79 130 118
f 84 102 131
f 104 131 102
f 100 132 101
f 124 101 132
f 125 105 106
f 116 86 113
f 87 74 133
f 74 115 133
f 105 134 111
f 125 135 105
f 105 135 134
f 104 103 119
f 84 136 120
f 84 131 137
f 84 137 136
f 138 100 120
f 100 139 132
f 138 139 100
f 122 140 112
f 114 112 140
f 141 110 111
f 141 111 134
f 123 108 129
f 121 99 123
f 142 120 136
f 142 138 120
f 127 94 121
f 122 128 143
f 122 143 140
f 144 81 82
f 81 145 97
f 81 146 145
f 144 146 81
f 144 82 89
f 87 147 85
f 85 148 130
f 85 147 149
f 85 149 148
f 129 110 141
f 114 150 113
f 116 113 150
f 88 151 89
f 144 89 151
f 104 152 131
f 137 131 152
f 87 133 153
f 154 147 87
f 154 87 153
f 155 96 97
f 155 97 145
f 156 88 109
f 156 157 88
f 88 157 151
f 104 119 158
f 104 159 152
f 104 158 159
f 124 132 160
f 124 161 126
f 124 160 162
f 124 162 161
f 143 128 127
f 160 132 139
f 161 125 126
f 156 109 117
f 137 142 136
f 155 115 96
f 163 118 130
f 164 119 118
f 163 165 118
f 164 118 165
f 125 166 135
f 161 167 125
f 125 167 166
f 168 134 135
f 168 135 166
f 123 129 169
f 121 123 170
f 123 169 171
f 123 171 170
f 129 141 172
f 129 173 169
f 129 172 173
f 138 174 139
f 160 139 174
f 116 175 117
f 156 117 175
f 163 130 148
f 114 140 176
f 143 176 140
f 141 134 168
f 177 133 115
f 177 115 178
f 155 178 115
f 164 158 119
f 127 121 179
f 121 170 180
f 121 180 179
f 114 181 150
f 182 114 176
f 182 181 114
f 142 183 138
f 138 183 174
f 116 150 184
f 116 185 175
f 116 184 185
f 143 127 186
f 127 179 187
f 127 187 186
f 141 188 172
f 141 168 189
f 141 189 188
f 137 152 190
f 137 191 142
f 137 190 192
f 137 192 191
f 159 190 152
f 177 153 133
f 193 149 147
f 193 147 154
f 194 169 173
f 194 171 169
f 142 191 195
f 142 196 183
f 142 195 196
f 159 158 197
f 164 197 158
f 163 148 198
f 149 198 148
f 199 170 171
f 199 180 170
f 200 173 172
f 200 172 188
f 150 181 201
f 150 201 184
f 143 202 176
f 143 186 203
f 143 203 202
f 160 204 162
f 160 174 205
f 160 205 206
f 160 206 204
f 204 161 162
f 177 207 153
f 154 153 207
f 208 179 180
f 208 187 179
f 205 174 183
f 161 209 167
f 204 210 161
f 161 210 209
f 211 166 167
f 168 166 211
f 211 167 209
f 159 212 190
f 192 190 212
f 213 176 202
f 213 182 176
f 192 195 191
f 168 214 189
f 168 211 215
f 168 215 214
f 159 197 216
f 159 217 212
f 159 216 217
f 163 218 165
f 163 198 218
f 219 183 196
f 205 183 219
f 200 194 173
f 194 199 171
f 220 164 165
f 220 165 218
f 221 188 189
f 221 189 214
f 222 157 156
f 223 151 157
f 222 224 157
f 223 157 224
f 222 156 175
f 225 145 146
f 144 226 146
f 225 146 226
f 223 144 151
f 220 197 164
f 182 201 181
f 227 175 185
f 227 228 175
f 222 175 228
f 225 155 145
f 229 186 187
f 229 203 186
f 177 178 230
f 177 230 207
f 144 231 226
f 223 231 144
f 232 196 195
f 219 196 232
f 199 208 180
f 149 233 198
f 234 149 193
f 234 233 149
f 227 185 184
f 155 230 178
f 155 235 230
f 225 235 155
f 154 207 236
f 193 154 236
f 237 200 188
f 237 188 221
f 238 216 197
f 220 238 197
f 192 212 239
f 217 239 212
f 233 218 198
f 192 240 195
f 192 239 241
f 192 241 240
f 194 242 199
f 200 243 194
f 194 244 242
f 194 243 244
f 245 202 203
f 245 213 202
f 227 184 246
f 247 184 201
f 247 246 184
f 208 229 187
f 232 195 248
f 248 195 240
f 249 207 230
f 249 236 207
f 205 250 206
f 250 204 206
f 199 251 208
f 199 242 252
f 199 252 251
f 217 216 253
f 238 253 216
f 205 219 254
f 205 255 250
f 205 254 255
f 237 243 200
f 204 256 210
f 250 257 204
f 204 257 256
f 182 258 201
f 213 258 182
f 211 259 215
f 211 209 260
f 211 261 259
f 211 260 261
f 219 232 262
f 219 262 254
f 259 214 215
f 227 263 228
f 227 246 263
f 260 209 210
f 260 210 256
f 233 264 218
f 264 220 218
f 221 214 265
f 259 265 214
f 208 251 266
f 208 267 229
f 208 266 267
f 193 236 268
f 234 193 268
f 269 222 228
f 269 228 263
f 232 248 270
f 232 270 262
f 217 271 239
f 241 239 271
f 272 264 233
f 272 233 234
f 273 201 258
f 273 247 201
f 235 249 230
f 249 268 236
f 217 253 274
f 217 275 271
f 217 274 275
f 229 245 203
f 248 240 276
f 241 276 240
f 252 242 244
f 220 277 238
f 264 278 220
f 220 278 277
f 269 224 222
f 237 221 279
f 221 265 279
f 237 280 243
f 244 243 280
f 247 263 246
f 225 281 235
f 235 281 249
f 277 253 238
f 248 276 282
f 248 282 270
f 283 223 224
f 269 284 224
f 283 224 284
f 285 251 252
f 285 266 251
f 213 286 258
f 245 286 213
f 287 225 226
f 225 288 281
f 287 288 225
f 229 267 289
f 229 290 245
f 229 289 290
f 291 250 255
f 291 255 254
f 237 279 292
f 293 280 237
f 293 237 292
f 274 253 294
f 277 294 253
f 250 295 257
f 291 296 250
f 250 296 295
f 297 254 262
f 297 298 254
f 291 254 298
f 287 226 231
f 283 231 223
f 249 299 268
f 249 281 300
f 249 300 299
f 241 271 301
f 301 271 275
f 272 278 264
f 241 302 276
f 241 301 303
f 241 303 302
f 304 256 257
f 304 257 295
f 297 262 270
f 305 258 286
f 305 273 258
f 247 306 263
f 306 269 263
f 307 259 261
f 307 265 259
f 234 268 308
f 309 268 299
f 309 308 268
f 260 310 261
f 307 261 310
f 311 279 265
f 311 265 312
f 307 312 265
f 313 267 266
f 313 289 267
f 272 234 308
f 252 244 314
f 244 280 315
f 244 316 314
f 244 315 316
f 287 231 317
f 283 317 231
f 274 318 275
f 274 294 319
f 274 319 318
f 273 306 247
f 282 276 302
f 260 256 304
f 285 252 314
f 260 320 310
f 260 304 320
f 311 292 279
f 293 315 280
f 277 278 321
f 272 321 278
f 245 322 286
f 245 290 323
f 245 323 322
f 300 281 288
f 269 324 284
f 306 325 269
f 269 325 324
f 297 270 326
f 282 326 270
f 297 327 298
f 297 326 327
f 311 328 292
f 329 292 328
f 329 293 292
f 277 330 294
f 277 321 331
f 277 331 330
f 332 291 298
f 332 298 327
f 333 266 285
f 333 313 266
f 301 275 334
f 303 301 334
f 300 309 299
f 335 288 287
f 300 288 336
f 335 336 288
f 332 296 291
f 337 286 322
f 337 305 286
f 311 312 338
f 311 338 328
f 339 334 275
f 339 275 318
f 340 290 289
f 340 323 290
f 272 308 341
f 342 321 272
f 342 272 341
f 343 283 284
f 343 284 324
f 307 338 312
f 282 302 344
f 303 344 302
f 319 294 330
f 273 345 306
f 306 346 325
f 306 345 346
f 347 295 296
f 332 348 296
f 347 296 348
f 285 314 349
f 350 314 316
f 350 349 314
f 309 341 308
f 351 307 310
f 307 352 338
f 351 352 307
f 305 345 273
f 282 353 326
f 354 327 326
f 354 326 353
f 293 355 315
f 315 356 316
f 315 355 356
f 282 357 353
f 282 344 357
f 351 310 320
f 319 358 318
f 319 330 359
f 319 359 358
f 335 287 317
f 304 295 347
f 313 340 289
f 300 360 309
f 300 336 361
f 300 361 360
f 362 328 338
f 362 329 328
f 342 331 321
f 333 285 349
f 343 317 283
f 329 355 293
f 363 322 323
f 363 337 322
f 364 324 325
f 364 325 346
f 354 332 327
f 304 365 320
f 351 320 365
f 303 334 366
f 339 366 334
f 331 367 330
f 342 368 331
f 331 368 367
f 303 369 344
f 303 366 370
f 303 370 369
f 304 347 371
f 304 371 365
f 352 362 338
f 309 372 341
f 309 360 373
f 309 373 372
f 335 317 374
f 343 374 317
f 332 375 348
f 354 376 332
f 332 376 375
f 339 318 358
f 342 341 372
f 377 336 335
f 377 361 336
f 313 378 340
f 333 378 313
f 305 379 345
f 380 346 345
f 380 345 379
f 337 379 305
f 340 363 323
f 357 354 353
f 357 344 369
f 351 381 352
f 352 381 362
f 350 316 356
f 364 343 324
f 359 330 367
f 347 348 375
f 333 349 382
f 350 382 349
f 339 383 366
f 339 358 383
f 329 384 355
f 362 384 329
f 385 356 355
f 385 355 384
f 386 351 365
f 351 387 381
f 386 387 351
f 342 372 388
f 389 368 342
f 389 342 388
f 373 360 361
f 347 390 371
f 347 375 391
f 347 391 390
f 354 392 376
f 357 393 354
f 354 393 392
f 359 394 358
f 359 367 395
f 359 395 394
f 377 335 374
f 340 396 363
f 340 378 397
f 340 397 396
f 337 398 379
f 363 398 337
f 370 366 383
f 333 399 378
f 400 333 382
f 400 399 333
f 380 364 346
f 350 356 401
f 350 401 382
f 373 388 372
f 343 402 374
f 364 403 343
f 343 403 402
f 362 381 404
f 362 405 384
f 362 404 405
f 389 367 368
f 390 365 371
f 390 386 365
f 357 369 406
f 370 406 369
f 407 379 398
f 407 380 379
f 376 408 375
f 376 392 408
f 394 383 358
f 357 409 393
f 357 406 409
f 363 410 398
f 363 396 411
f 363 411 410
f 404 381 387
f 385 401 356
f 373 361 412
f 377 412 361
f 377 374 402
f 370 383 413
f 394 413 383
f 389 414 367
f 414 395 367
f 397 378 399
f 373 415 388
f 416 389 388
f 416 388 415
f 417 384 405
f 417 385 384
f 408 391 375
f 380 418 364
f 364 419 403
f 364 418 419
f 420 382 401
f 420 400 382
f 373 421 415
f 373 412 421
f 422 398 410
f 422 407 398
f 386 423 387
f 404 387 423
f 416 414 389
f 424 396 397
f 424 411 396
f 385 420 401
f 407 418 380
f 425 392 393
f 425 393 409
f 414 426 395
f 394 395 426
f 390 391 427
f 408 427 391
f 370 428 406
f 370 413 429
f 370 429 428
f 430 405 404
f 430 417 405
f 377 431 412
f 432 377 402
f 432 431 377
f 414 433 426
f 416 434 414
f 414 434 433
f 435 410 411
f 435 422 410
f 390 436 386
f 386 436 423
f 428 409 406
f 397 399 437
f 400 437 399
f 421 416 415
f 408 392 425
f 417 420 385
f 394 429 413
f 394 426 438
f 394 438 429
f 421 412 431
f 432 402 403
f 432 403 419
f 439 397 437
f 439 424 397
f 390 427 440
f 390 440 436
f 441 404 423
f 441 430 404
f 407 442 418
f 422 442 407
f 438 426 433
f 416 443 434
f 421 444 416
f 416 444 443
f 424 435 411
f 445 418 442
f 445 419 418
f 408 446 427
f 408 425 447
f 408 447 446
f 420 448 400
f 400 448 437
f 428 449 409
f 449 425 409
f 450 423 436
f 450 441 423
f 417 451 420
f 420 451 448
f 452 433 434
f 452 434 443
f 430 451 417
f 428 429 453
f 428 453 449
f 438 453 429
f 438 433 454
f 438 454 453
f 435 455 422
f 422 455 442
f 456 437 448
f 456 439 437
f 421 431 457
f 421 458 444
f 421 457 458
f 424 459 435
f 439 459 424
f 432 457 431
f 454 433 452
f 446 440 427
f 449 460 425
f 460 447 425
f 435 461 455
f 435 459 462
f 435 462 461
f 458 443 444
f 463 442 455
f 463 445 442
f 464 436 440
f 464 450 436
f 445 432 419
f 430 465 451
f 441 465 430
f 456 448 451
f 456 451 465
f 449 453 466
f 449 466 460
f 454 466 453
f 454 452 467
f 454 467 466
f 452 443 468
f 458 468 443
f 439 469 459
f 470 439 456
f 470 469 439
f 471 455 461
f 471 463 455
f 446 464 440
f 462 459 469
f 432 472 457
f 458 457 472
f 445 472 432
f 460 473 447
f 446 447 473
f 452 474 467
f 452 468 475
f 452 475 474
f 441 476 465
f 450 476 441
f 470 456 465
f 470 465 476
f 477 461 462
f 477 471 461
f 460 466 478
f 460 478 473
f 463 472 445
f 458 479 468
f 458 472 480
f 458 480 479
f 478 466 467
f 478 467 474
f 462 469 481
f 482 469 470
f 482 481 469
f 475 468 479
f 477 462 481
f 450 483 476
f 464 483 450
f 446 473 484
f 446 485 464
f 446 484 485
f 482 470 476
f 482 476 483
f 475 486 474
f 475 479 487
f 475 487 486
f 463 480 472
f 471 480 463
f 478 484 473
f 478 474 486
f 471 479 480
f 487 479 471
f 487 471 477
f 477 481 488
f 489 481 482
f 489 488 481
f 464 485 483
f 478 490 484
f 478 486 490
f 489 482 483
f 489 483 485
f 487 477 488
f 487 488 486
f 490 485 484
f 490 486 488
f 490 488 489
f 490 489 485
