# 
# Wavefront OBJ file
# Created with Kaydara FBX
# 
mtllib c:\users\tjvan\onedrive\documenten\fontys\minor\nx\.mtlmodels\art_cart_of_tibia_proximal_end.r.obj

g Art_cart_of_tibia_proximal_end_r
v -0.064990 0.433256 -0.042900
v -0.065597 0.432065 -0.043692
v -0.065431 0.432780 -0.042638
v -0.064309 0.431161 -0.044175
v -0.065282 0.432625 -0.043970
v -0.065412 0.431130 -0.045029
v -0.064070 0.430762 -0.045777
v -0.064644 0.433709 -0.041639
v -0.065161 0.433285 -0.041431
v -0.064459 0.431759 -0.042777
v -0.065265 0.431777 -0.045251
v -0.064850 0.430610 -0.046990
v -0.063833 0.430652 -0.047406
v -0.063903 0.431435 -0.045875
v -0.064016 0.431770 -0.044360
v -0.064837 0.431303 -0.047082
v -0.063740 0.431345 -0.047445
v -0.064891 0.433543 -0.040129
v -0.064340 0.432245 -0.041447
v -0.064340 0.433948 -0.040278
v -0.064026 0.432272 -0.042976
v -0.064624 0.433596 -0.038684
v -0.064155 0.432533 -0.040061
v -0.064063 0.434006 -0.038771
v -0.064850 0.430947 -0.053844
v -0.064853 0.430197 -0.055259
v -0.064859 0.430248 -0.053816
v -0.063003 0.430125 -0.055379
v -0.064830 0.430894 -0.055316
v -0.064732 0.430076 -0.056521
v -0.062841 0.429927 -0.056800
v -0.064865 0.430988 -0.052254
v -0.064865 0.430288 -0.052225
v -0.063132 0.430234 -0.053878
v -0.064839 0.431066 -0.050579
v -0.064825 0.430367 -0.050532
v -0.063262 0.430281 -0.052316
v -0.064787 0.430492 -0.048786
v -0.063605 0.430519 -0.049061
v -0.063112 0.430934 -0.053907
v -0.062977 0.430822 -0.055445
v -0.063236 0.430980 -0.052335
v -0.064819 0.431189 -0.048840
v -0.063419 0.430381 -0.050706
v -0.064694 0.430769 -0.056615
v -0.062804 0.430616 -0.056914
v -0.063375 0.431079 -0.050736
v -0.063543 0.431216 -0.049095
v -0.064110 0.429886 -0.057548
v -0.062612 0.429623 -0.058159
v -0.064059 0.430573 -0.057672
v -0.062572 0.430307 -0.058304
v -0.063814 0.432677 -0.041610
v -0.064405 0.433431 -0.037252
v -0.063913 0.432611 -0.038675
v -0.063850 0.433857 -0.037285
v -0.063060 0.430573 -0.043212
v -0.062841 0.430356 -0.044724
v -0.064141 0.433128 -0.035743
v -0.063659 0.432484 -0.037236
v -0.063597 0.433569 -0.035739
v -0.063245 0.430823 -0.041711
v -0.063587 0.432921 -0.040187
v -0.062609 0.430262 -0.046229
v -0.063305 0.431060 -0.040180
v -0.063404 0.433191 -0.034178
v -0.063918 0.432717 -0.034206
v -0.063391 0.432176 -0.035707
v -0.062365 0.430230 -0.047728
v -0.063333 0.432992 -0.038767
v -0.062521 0.430978 -0.044743
v -0.062356 0.430915 -0.046210
v -0.062654 0.431141 -0.043258
v -0.062165 0.430900 -0.047701
v -0.063125 0.431175 -0.038721
v -0.063265 0.432844 -0.032671
v -0.063722 0.432315 -0.032706
v -0.062712 0.431450 -0.032637
v -0.063083 0.431800 -0.034153
v -0.063082 0.432878 -0.037282
v -0.062133 0.430191 -0.049272
v -0.062755 0.431321 -0.041763
v -0.061989 0.430876 -0.049255
v -0.063154 0.432554 -0.031167
v -0.063536 0.431968 -0.031200
v -0.062334 0.431195 -0.031129
v -0.062818 0.431103 -0.037291
v -0.061866 0.430166 -0.050824
v -0.062825 0.432588 -0.035720
v -0.062758 0.431493 -0.040242
v -0.061776 0.430860 -0.050812
v -0.063042 0.432301 -0.029641
v -0.063350 0.431672 -0.029636
v -0.061608 0.430182 -0.052368
v -0.062238 0.431965 -0.032663
v -0.062548 0.432250 -0.034167
v -0.062579 0.430874 -0.035713
v -0.061555 0.430880 -0.052363
v -0.062848 0.432301 -0.028004
v -0.063117 0.431660 -0.027923
v -0.062008 0.431059 -0.029583
v -0.062551 0.431571 -0.038789
v -0.061233 0.429002 -0.040791
v -0.061388 0.430163 -0.053911
v -0.061947 0.431778 -0.031152
v -0.061120 0.429082 -0.042265
v -0.061351 0.430861 -0.053935
v -0.061169 0.430052 -0.055450
v -0.061133 0.430747 -0.055526
v -0.061255 0.428879 -0.039330
v -0.062459 0.432495 -0.026248
v -0.062736 0.431866 -0.026117
v -0.061359 0.431252 -0.026185
v -0.061700 0.431101 -0.027944
v -0.061666 0.430444 -0.032470
v -0.062232 0.430623 -0.034015
v -0.062234 0.431485 -0.037337
v -0.060935 0.429162 -0.043730
v -0.061698 0.431685 -0.029629
v -0.060919 0.429804 -0.056995
v -0.060878 0.430490 -0.057129
v -0.060655 0.429425 -0.058507
v -0.060725 0.429293 -0.045170
v -0.061088 0.431886 -0.026309
v -0.061429 0.431739 -0.028036
v -0.061354 0.429051 -0.035701
v -0.061341 0.428871 -0.037657
v -0.062000 0.431264 -0.035762
v -0.060609 0.430105 -0.058668
v -0.060870 0.429599 -0.040753
v -0.060801 0.429703 -0.042213
v -0.061779 0.432672 -0.024395
v -0.062091 0.432058 -0.024268
v -0.060850 0.431400 -0.024341
v -0.061076 0.430372 -0.031002
v -0.060665 0.429804 -0.043665
v -0.060617 0.429473 -0.046553
v -0.060995 0.429218 -0.033785
v -0.060855 0.429453 -0.039299
v -0.061191 0.430941 -0.032604
v -0.061689 0.431054 -0.034114
v -0.060504 0.429953 -0.045091
v -0.060554 0.432026 -0.024447
v -0.060498 0.429660 -0.047975
v -0.060434 0.430143 -0.046466
v -0.060866 0.429551 -0.035740
v -0.060889 0.429406 -0.037640
v -0.060675 0.430932 -0.031129
v -0.060354 0.430340 -0.047891
v -0.060347 0.429846 -0.049405
v -0.060962 0.432618 -0.022173
v -0.061286 0.431998 -0.022145
v -0.060136 0.431260 -0.022423
v -0.060623 0.430399 -0.029500
v -0.060518 0.429711 -0.033927
v -0.060243 0.430535 -0.049336
v -0.060133 0.429975 -0.050865
v -0.060060 0.430669 -0.050815
v -0.059844 0.431895 -0.022443
v -0.059913 0.430669 -0.026226
v -0.060264 0.430506 -0.027918
v -0.060282 0.430999 -0.029616
v -0.060365 0.429344 -0.032209
v -0.059878 0.430051 -0.052357
v -0.059823 0.430748 -0.052331
v -0.059640 0.431301 -0.026353
v -0.059964 0.431126 -0.028040
v -0.059621 0.430061 -0.053878
v -0.058742 0.427300 -0.036129
v -0.059181 0.427642 -0.033816
v -0.059573 0.430759 -0.053894
v -0.059460 0.430784 -0.024443
v -0.058062 0.427794 -0.039773
v -0.058254 0.427513 -0.038162
v -0.060223 0.431824 -0.020158
v -0.060457 0.431174 -0.020273
v -0.059202 0.430850 -0.020637
v -0.058067 0.428064 -0.041190
v -0.059931 0.429852 -0.032419
v -0.059331 0.429948 -0.055442
v -0.059278 0.430641 -0.055524
v -0.058133 0.428344 -0.042575
v -0.059205 0.431429 -0.024535
v -0.059197 0.429551 -0.029325
v -0.059713 0.429422 -0.030774
v -0.058992 0.431514 -0.020560
v -0.058226 0.428630 -0.043951
v -0.058981 0.429646 -0.057030
v -0.058486 0.427951 -0.036103
v -0.057908 0.428468 -0.039662
v -0.058066 0.428181 -0.038066
v -0.058854 0.428250 -0.033936
v -0.057930 0.428741 -0.041077
v -0.058913 0.430327 -0.057176
v -0.058829 0.430684 -0.022638
v -0.058012 0.429023 -0.042461
v -0.058339 0.428913 -0.045313
v -0.058858 0.430138 -0.029499
v -0.059327 0.429969 -0.030978
v -0.058598 0.429236 -0.058587
v -0.058120 0.429312 -0.043833
v -0.058448 0.429186 -0.046667
v -0.058516 0.429909 -0.058758
v -0.058790 0.429736 -0.027813
v -0.058601 0.431344 -0.022674
v -0.058516 0.429440 -0.048025
v -0.058246 0.429596 -0.045191
v -0.059060 0.430994 -0.018647
v -0.057979 0.430396 -0.019116
v -0.059150 0.430341 -0.018882
v -0.058364 0.429870 -0.046547
v -0.058751 0.428114 -0.032034
v -0.058499 0.429657 -0.049400
v -0.058441 0.430126 -0.047912
v -0.058493 0.430349 -0.027975
v -0.058401 0.429989 -0.026212
v -0.058432 0.430347 -0.049305
v -0.057866 0.431062 -0.018932
v -0.058363 0.429817 -0.050810
v -0.057939 0.430453 -0.020932
v -0.058302 0.430511 -0.050742
v -0.058145 0.430621 -0.026370
v -0.058427 0.428692 -0.032260
v -0.057944 0.430230 -0.024542
v -0.058136 0.429913 -0.052259
v -0.057751 0.431127 -0.020924
v -0.058077 0.430609 -0.052224
v -0.057585 0.428776 -0.029164
v -0.058102 0.428456 -0.030564
v -0.057731 0.430886 -0.024659
v -0.057846 0.429931 -0.053748
v -0.057783 0.430628 -0.053759
v -0.057477 0.429814 -0.055292
v -0.057335 0.429395 -0.029373
v -0.057814 0.429045 -0.030807
v -0.057400 0.430505 -0.055378
v -0.057189 0.429073 -0.027723
v -0.056797 0.430121 -0.019422
v -0.056614 0.426798 -0.034441
v -0.057811 0.430288 -0.017438
v -0.056803 0.429719 -0.017895
v -0.057832 0.429668 -0.017762
v -0.056754 0.430364 -0.017627
v -0.056652 0.430801 -0.019337
v -0.057029 0.429447 -0.056868
v -0.056925 0.430120 -0.057028
v -0.056478 0.427484 -0.034480
v -0.056967 0.429711 -0.027908
v -0.057351 0.430262 -0.022854
v -0.056806 0.429404 -0.026220
v -0.056303 0.426975 -0.036493
v -0.056475 0.427104 -0.032262
v -0.056544 0.428910 -0.058419
v -0.057180 0.430938 -0.022909
v -0.056828 0.429484 -0.049295
v -0.056773 0.429255 -0.047965
v -0.056424 0.429573 -0.058609
v -0.056206 0.427663 -0.036405
v -0.056711 0.429653 -0.050654
v -0.056604 0.430049 -0.026401
v -0.056315 0.427760 -0.032447
v -0.056600 0.428995 -0.046635
v -0.056758 0.430173 -0.049193
v -0.056702 0.429941 -0.047846
v -0.056640 0.430345 -0.050579
v -0.056348 0.429723 -0.024687
v -0.056452 0.429751 -0.052049
v -0.056529 0.429680 -0.046507
v -0.056377 0.428711 -0.045282
v -0.056375 0.430446 -0.052009
v -0.055818 0.427567 -0.039802
v -0.055958 0.427280 -0.038271
v -0.056307 0.429394 -0.045148
v -0.055975 0.428127 -0.042553
v -0.056155 0.428417 -0.043916
v -0.055853 0.427845 -0.041191
v -0.056082 0.429748 -0.053492
v -0.056168 0.430382 -0.024841
v -0.055908 0.428811 -0.042418
v -0.056087 0.429100 -0.043781
v -0.055760 0.428254 -0.029141
v -0.056109 0.427730 -0.030599
v -0.055751 0.428251 -0.039669
v -0.055885 0.427964 -0.038143
v -0.055994 0.430443 -0.053501
v -0.055787 0.428529 -0.041057
v -0.055664 0.429739 -0.018076
v -0.056519 0.430153 -0.021242
v -0.055569 0.430410 -0.017899
v -0.055613 0.429606 -0.054968
v -0.056769 0.429862 -0.016615
v -0.055825 0.429216 -0.016914
v -0.056775 0.429233 -0.016924
v -0.055598 0.428898 -0.029364
v -0.055945 0.428364 -0.030846
v -0.055816 0.429854 -0.016625
v -0.055503 0.430292 -0.055054
v -0.056372 0.430838 -0.021237
v -0.055472 0.428624 -0.027717
v -0.055768 0.429909 -0.023120
v -0.055312 0.429279 -0.027906
v -0.055617 0.430586 -0.023214
v -0.055056 0.429206 -0.056459
v -0.054913 0.429869 -0.056631
v -0.055346 0.429293 -0.049122
v -0.055200 0.429450 -0.050389
v -0.055167 0.428941 -0.026289
v -0.054764 0.429182 -0.016908
v -0.055465 0.429853 -0.019749
v -0.055897 0.429601 -0.016073
v -0.055891 0.428964 -0.016363
v -0.055011 0.428838 -0.016023
v -0.055246 0.429071 -0.047866
v -0.055011 0.429488 -0.015763
v -0.055263 0.429980 -0.049018
v -0.055111 0.430140 -0.050310
v -0.054721 0.429844 -0.016683
v -0.054849 0.429524 -0.051694
v -0.055166 0.429756 -0.047749
v -0.055320 0.430536 -0.019698
v -0.054749 0.430215 -0.051650
v -0.054101 0.426517 -0.034877
v -0.054981 0.428810 -0.046583
v -0.055006 0.429597 -0.026472
v -0.054458 0.428594 -0.057939
v -0.054904 0.429494 -0.046458
v -0.054993 0.429864 -0.021598
v -0.054106 0.426711 -0.032701
v -0.054055 0.427215 -0.034864
v -0.054370 0.429501 -0.053037
v -0.054294 0.429241 -0.058149
v -0.054656 0.428523 -0.045238
v -0.054254 0.430192 -0.053039
v -0.054856 0.430550 -0.021610
v -0.054190 0.429473 -0.023478
v -0.054758 0.429244 -0.024869
v -0.053976 0.426789 -0.036710
v -0.054051 0.427397 -0.032829
v -0.054582 0.429207 -0.045109
v -0.053926 0.427479 -0.036603
v -0.054041 0.430143 -0.023614
v -0.054598 0.429902 -0.025043
v -0.054068 0.427933 -0.042494
v -0.054336 0.428224 -0.043863
v -0.053912 0.427849 -0.029185
v -0.054031 0.427271 -0.030761
v -0.054003 0.428617 -0.042362
v -0.054266 0.428908 -0.043732
v -0.053773 0.429328 -0.054425
v -0.053636 0.430010 -0.054501
v -0.053883 0.427649 -0.041129
v -0.053800 0.427370 -0.039748
v -0.053835 0.427088 -0.038297
v -0.053791 0.428504 -0.029401
v -0.053942 0.427931 -0.030977
v -0.053820 0.428334 -0.040996
v -0.053741 0.428055 -0.039616
v -0.053779 0.427773 -0.038168
v -0.053988 0.428770 -0.015773
v -0.053969 0.429433 -0.015548
v -0.053800 0.428250 -0.027752
v -0.053426 0.429573 -0.022016
v -0.054387 0.429494 -0.018348
v -0.053285 0.430257 -0.022062
v -0.053665 0.428911 -0.027936
v -0.054263 0.430175 -0.018249
v -0.054019 0.429587 -0.020134
v -0.054046 0.429090 -0.048919
v -0.053881 0.430271 -0.020082
v -0.053951 0.429776 -0.048817
v -0.053882 0.428893 -0.047821
v -0.053828 0.429206 -0.049993
v -0.053624 0.428568 -0.026400
v -0.053792 0.429578 -0.047708
v -0.053722 0.429893 -0.049912
v -0.053113 0.428920 -0.055823
v -0.053484 0.429231 -0.026576
v -0.052518 0.429330 -0.020623
v -0.053497 0.428640 -0.046622
v -0.053410 0.429325 -0.046504
v -0.052937 0.429574 -0.056000
v -0.052744 0.429189 -0.052355
v -0.053355 0.429240 -0.051129
v -0.052378 0.430015 -0.020586
v -0.053493 0.429127 -0.016929
v -0.052741 0.429047 -0.023870
v -0.053290 0.428838 -0.025110
v -0.052605 0.429875 -0.052345
v -0.053235 0.429928 -0.051079
v -0.053420 0.429805 -0.016774
v -0.053049 0.428354 -0.045310
v -0.052601 0.429714 -0.024028
v -0.053148 0.429501 -0.025284
v -0.052968 0.429039 -0.045190
v -0.052439 0.428194 -0.057152
v -0.052986 0.429233 -0.018714
v -0.052019 0.429007 -0.053655
v -0.052234 0.427765 -0.042540
v -0.052609 0.428059 -0.043933
v -0.052236 0.428821 -0.057387
v -0.052168 0.428450 -0.042415
v -0.052535 0.428744 -0.043810
v -0.052861 0.429919 -0.018655
v -0.051858 0.429687 -0.053706
v -0.051963 0.429166 -0.022613
v -0.051808 0.426524 -0.034838
v -0.051926 0.426673 -0.032832
v -0.051957 0.427477 -0.041134
v -0.051832 0.427223 -0.034838
v -0.052069 0.427016 -0.030880
v -0.051941 0.427367 -0.032923
v -0.053135 0.428933 -0.048761
v -0.051826 0.429846 -0.022707
v -0.051494 0.428994 -0.019285
v -0.051902 0.428164 -0.041010
v -0.052643 0.429348 -0.015394
v -0.052707 0.428675 -0.015576
v -0.051755 0.426665 -0.036639
v -0.052036 0.427697 -0.031039
v -0.053031 0.429618 -0.048664
v -0.051757 0.427360 -0.036559
v -0.052185 0.427529 -0.029225
v -0.052711 0.428755 -0.047983
v -0.051366 0.429681 -0.019242
v -0.051799 0.427198 -0.039705
v -0.051743 0.426921 -0.038222
v -0.052667 0.428942 -0.049405
v -0.052273 0.428274 -0.026503
v -0.052269 0.427949 -0.027776
v -0.052096 0.428197 -0.029412
v -0.052608 0.429440 -0.047879
v -0.051757 0.427887 -0.039583
v -0.051720 0.427612 -0.038109
v -0.052551 0.429628 -0.049323
v -0.052147 0.428941 -0.026673
v -0.052151 0.428616 -0.027953
v -0.052064 0.428519 -0.025387
v -0.052139 0.428497 -0.046870
v -0.052014 0.429015 -0.017286
v -0.051937 0.429186 -0.025558
v -0.052041 0.429181 -0.046763
v -0.051044 0.429078 -0.021288
v -0.051891 0.429696 -0.017186
v -0.051254 0.428838 -0.051456
v -0.052002 0.428930 -0.050356
v -0.050903 0.429764 -0.021286
v -0.051099 0.429521 -0.051433
v -0.051869 0.429615 -0.050298
v -0.051737 0.428676 -0.048529
v -0.051204 0.428649 -0.054955
v -0.051534 0.428211 -0.045583
v -0.051619 0.429360 -0.048443
v -0.051444 0.428897 -0.045475
v -0.051002 0.429300 -0.055117
v -0.051507 0.428674 -0.024362
v -0.050376 0.428632 -0.052679
v -0.050995 0.429217 -0.015599
v -0.051144 0.428549 -0.015744
v -0.050910 0.428388 -0.047407
v -0.050832 0.428596 -0.049364
v -0.050446 0.427626 -0.042739
v -0.050952 0.427915 -0.044190
v -0.050797 0.429073 -0.047318
v -0.051384 0.429344 -0.024526
v -0.050193 0.429308 -0.052705
v -0.050694 0.429279 -0.049299
v -0.050386 0.428315 -0.042630
v -0.050874 0.428602 -0.044081
v -0.049994 0.428775 -0.020095
v -0.050440 0.427820 -0.056252
v -0.049860 0.429461 -0.020065
v -0.051075 0.428073 -0.026447
v -0.050558 0.427325 -0.029176
v -0.050840 0.427727 -0.027679
v -0.051230 0.428310 -0.025615
v -0.050058 0.427351 -0.041241
v -0.050212 0.428440 -0.056486
v -0.050257 0.427038 -0.030881
v -0.050022 0.428042 -0.041137
v -0.050962 0.428743 -0.026615
v -0.050512 0.428010 -0.029315
v -0.050744 0.428401 -0.027841
v -0.051113 0.428979 -0.025784
v -0.050275 0.427731 -0.030982
v -0.049991 0.426861 -0.032721
v -0.050049 0.427555 -0.032789
v -0.050438 0.428775 -0.017972
v -0.049914 0.428479 -0.050363
v -0.050690 0.428780 -0.023327
v -0.049858 0.427427 -0.034601
v -0.049793 0.426731 -0.034576
v -0.050269 0.429449 -0.017883
v -0.049753 0.429160 -0.050330
v -0.050571 0.429457 -0.023457
v -0.049818 0.427114 -0.039692
v -0.049697 0.426736 -0.036378
v -0.049744 0.427433 -0.036341
v -0.049808 0.427807 -0.039595
v -0.049706 0.426899 -0.038079
v -0.049785 0.428275 -0.048171
v -0.049725 0.427594 -0.037999
v -0.049653 0.428959 -0.048104
v -0.050119 0.428090 -0.046102
v -0.050562 0.428338 -0.025049
v -0.050018 0.428777 -0.046012
v -0.050451 0.429009 -0.025216
v -0.048881 0.428232 -0.051505
v -0.049931 0.427980 -0.026065
v -0.049396 0.428237 -0.053953
v -0.049238 0.428781 -0.016507
v -0.049454 0.428132 -0.016658
v -0.049829 0.428653 -0.026232
v -0.048691 0.428906 -0.051516
v -0.049449 0.427586 -0.027379
v -0.049655 0.428796 -0.022196
v -0.049179 0.428891 -0.054076
v -0.049374 0.428268 -0.027519
v -0.048720 0.427530 -0.043096
v -0.049377 0.427795 -0.044654
v -0.049512 0.429480 -0.022243
v -0.048671 0.428224 -0.043013
v -0.049298 0.428485 -0.044567
v -0.049001 0.427301 -0.028940
v -0.048705 0.428116 -0.049073
v -0.048981 0.427996 -0.029029
v -0.049607 0.428383 -0.024264
v -0.048551 0.428798 -0.049036
v -0.048579 0.427173 -0.030681
v -0.048762 0.427954 -0.025477
v -0.049500 0.429057 -0.024419
v -0.048609 0.427870 -0.030738
v -0.048218 0.427322 -0.041446
v -0.048425 0.427473 -0.055248
v -0.048830 0.428524 -0.018986
v -0.048668 0.428628 -0.025638
v -0.048200 0.428018 -0.041368
v -0.048635 0.429189 -0.018884
v -0.048197 0.428109 -0.055430
v -0.048812 0.427956 -0.046798
v -0.048288 0.427751 -0.032518
v -0.048698 0.428644 -0.046734
v -0.048232 0.427055 -0.032467
v -0.048584 0.428513 -0.021173
v -0.047334 0.428290 -0.020282
v -0.048094 0.427526 -0.026925
v -0.047510 0.427856 -0.050127
v -0.047881 0.427598 -0.036113
v -0.048040 0.427649 -0.034314
v -0.048437 0.429197 -0.021176
v -0.047108 0.428947 -0.020197
v -0.048033 0.428213 -0.027047
v -0.047921 0.427138 -0.039731
v -0.047929 0.427834 -0.039660
v -0.047824 0.426900 -0.036116
v -0.047975 0.426953 -0.034279
v -0.047839 0.427671 -0.037905
v -0.047332 0.428533 -0.050130
v -0.047805 0.426974 -0.037952
v -0.048504 0.428408 -0.023390
v -0.047551 0.427944 -0.024812
v -0.048368 0.429088 -0.023488
v -0.047442 0.428624 -0.024941
v -0.047507 0.427302 -0.028572
v -0.047501 0.428436 -0.017847
v -0.047762 0.427811 -0.018024
v -0.047679 0.427796 -0.052762
v -0.047908 0.427685 -0.045255
v -0.047109 0.427477 -0.043552
v -0.047491 0.427999 -0.028628
v -0.047829 0.428378 -0.045197
v -0.047065 0.428173 -0.043497
v -0.047473 0.428461 -0.052838
v -0.047002 0.427248 -0.030348
v -0.047017 0.427947 -0.030377
v -0.046275 0.427529 -0.019614
v -0.047581 0.427783 -0.047595
v -0.046764 0.427503 -0.026404
v -0.046502 0.427321 -0.041726
v -0.047455 0.428471 -0.047564
v -0.046483 0.428019 -0.041672
v -0.046699 0.428193 -0.026504
v -0.045965 0.428134 -0.019447
v -0.047323 0.428187 -0.022521
v -0.046057 0.427980 -0.021851
v -0.046262 0.427823 -0.024137
v -0.047174 0.428869 -0.022571
v -0.045823 0.428638 -0.021805
v -0.046388 0.427180 -0.054113
v -0.046134 0.428506 -0.024222
v -0.046635 0.427889 -0.032188
v -0.046601 0.427191 -0.032156
v -0.046185 0.427842 -0.054218
v -0.046142 0.427748 -0.035922
v -0.046343 0.427817 -0.034031
v -0.046097 0.427050 -0.035909
v -0.046297 0.427119 -0.034000
v -0.046157 0.427168 -0.039818
v -0.046161 0.427866 -0.039769
v -0.046533 0.427569 -0.045918
v -0.046067 0.427750 -0.037841
v -0.046039 0.427051 -0.037863
v -0.046447 0.428263 -0.045895
v -0.046099 0.427393 -0.051330
v -0.046247 0.427537 -0.048520
v -0.045395 0.427434 -0.025891
v -0.046081 0.427303 -0.028148
v -0.046061 0.428001 -0.028186
v -0.045918 0.428068 -0.051374
v -0.046106 0.428223 -0.048530
v -0.045312 0.428126 -0.025956
v -0.044958 0.427253 -0.021363
v -0.045617 0.427425 -0.044057
v -0.044648 0.427869 -0.021242
v -0.045561 0.428122 -0.044030
v -0.045059 0.427949 -0.031868
v -0.045507 0.427970 -0.029999
v -0.045047 0.427249 -0.031852
v -0.045504 0.427270 -0.029988
v -0.044721 0.427913 -0.033785
v -0.044701 0.427213 -0.033764
v -0.045078 0.427386 -0.046689
v -0.044528 0.427165 -0.039948
v -0.044928 0.427286 -0.042049
v -0.044515 0.427864 -0.039922
v -0.044891 0.427984 -0.042017
v -0.044974 0.428078 -0.046703
v -0.044519 0.426913 -0.052642
v -0.044490 0.427850 -0.035771
v -0.044468 0.427151 -0.035753
v -0.044957 0.427603 -0.023627
v -0.044668 0.427145 -0.049603
v -0.044346 0.427589 -0.052698
v -0.044391 0.427110 -0.037820
v -0.044402 0.427810 -0.037817
v -0.044764 0.428276 -0.023624
v -0.044524 0.427829 -0.049646
v -0.044627 0.427280 -0.027741
v -0.044591 0.427979 -0.027756
v -0.044077 0.427284 -0.044650
v -0.043992 0.427979 -0.044654
v -0.043469 0.427265 -0.031581
v -0.043981 0.427267 -0.029648
v -0.043455 0.427964 -0.031587
v -0.043966 0.427967 -0.029646
v -0.043947 0.427267 -0.025465
v -0.043070 0.427195 -0.027393
v -0.043827 0.427956 -0.025467
v -0.043005 0.427892 -0.027375
v -0.043390 0.427072 -0.047604
v -0.043071 0.427927 -0.033584
v -0.043089 0.427227 -0.033569
v -0.043274 0.427761 -0.047648
v -0.043676 0.427077 -0.023211
v -0.043444 0.427735 -0.023151
v -0.042914 0.427110 -0.040147
v -0.043333 0.427189 -0.042449
v -0.042873 0.427808 -0.040143
v -0.043268 0.427886 -0.042441
v -0.042828 0.427877 -0.035668
v -0.042847 0.427178 -0.035652
v -0.042922 0.426694 -0.050788
v -0.042342 0.427206 -0.029358
v -0.042290 0.427904 -0.029342
v -0.042773 0.427123 -0.037846
v -0.042782 0.427378 -0.050842
v -0.042750 0.427823 -0.037855
v -0.042324 0.427011 -0.045369
v -0.042222 0.427703 -0.045395
v -0.041764 0.427200 -0.031345
v -0.041703 0.427897 -0.031347
v -0.042497 0.427002 -0.025127
v -0.041465 0.426999 -0.027096
v -0.042363 0.427688 -0.025092
v -0.041383 0.427694 -0.027060
v -0.041370 0.427127 -0.033406
v -0.041297 0.427823 -0.033417
v -0.041543 0.426675 -0.048611
v -0.041567 0.426976 -0.042957
v -0.041428 0.427363 -0.048666
v -0.041475 0.427670 -0.042970
v -0.041154 0.427065 -0.035600
v -0.040599 0.427029 -0.029087
v -0.041081 0.427761 -0.035609
v -0.040522 0.427724 -0.029065
v -0.041192 0.426972 -0.040442
v -0.041115 0.427668 -0.040455
v -0.041092 0.427030 -0.037952
v -0.041024 0.427726 -0.037963
v -0.039996 0.426961 -0.031129
v -0.040403 0.426700 -0.046173
v -0.039905 0.427655 -0.031129
v -0.040298 0.427391 -0.046207
v -0.039610 0.426860 -0.033256
v -0.039506 0.427552 -0.033266
v -0.039685 0.426680 -0.043529
v -0.039585 0.427372 -0.043549
v -0.039434 0.426796 -0.035575
v -0.039332 0.427488 -0.035579
v -0.039413 0.426723 -0.040794
v -0.039373 0.426824 -0.038100
v -0.039319 0.427417 -0.040814
v -0.039282 0.427518 -0.038112
v -0.109996 0.429143 -0.029047
v -0.110313 0.428919 -0.032994
v -0.110215 0.428227 -0.032958
v -0.109968 0.428084 -0.037069
v -0.110046 0.428780 -0.037067
v -0.109210 0.428890 -0.037000
v -0.109473 0.428966 -0.033164
v -0.109858 0.428457 -0.029011
v -0.109156 0.428192 -0.037013
v -0.109434 0.428268 -0.033126
v -0.109029 0.428383 -0.040968
v -0.108335 0.429161 -0.040637
v -0.109153 0.429072 -0.040962
v -0.109143 0.429546 -0.025370
v -0.109102 0.429358 -0.029500
v -0.108205 0.428473 -0.040653
v -0.109052 0.428662 -0.029444
v -0.109031 0.428855 -0.025341
v -0.108218 0.428878 -0.036817
v -0.108438 0.428924 -0.033228
v -0.108140 0.428183 -0.036841
v -0.108427 0.428224 -0.033195
v -0.107431 0.429309 -0.040188
v -0.107264 0.428630 -0.040224
v -0.107246 0.428586 -0.044344
v -0.106774 0.429529 -0.043819
v -0.107453 0.429249 -0.044432
v -0.108067 0.429681 -0.026094
v -0.107621 0.429894 -0.022105
v -0.107982 0.429285 -0.029837
v -0.108053 0.428984 -0.026033
v -0.108029 0.428590 -0.029771
v -0.106556 0.428868 -0.043749
v -0.107575 0.429198 -0.022049
v -0.106967 0.429130 -0.036397
v -0.106641 0.429104 -0.029984
v -0.107069 0.429056 -0.033139
v -0.106854 0.428441 -0.036435
v -0.106666 0.428406 -0.029949
v -0.107027 0.428358 -0.033132
v -0.106088 0.429849 -0.043138
v -0.106357 0.429552 -0.039513
v -0.105844 0.429194 -0.043101
v -0.106177 0.428879 -0.039580
v -0.106934 0.429472 -0.026661
v -0.106414 0.429959 -0.023090
v -0.107032 0.428783 -0.026580
v -0.106467 0.429268 -0.022993
v -0.105726 0.428525 -0.027020
v -0.105676 0.429221 -0.027070
v -0.105634 0.430380 -0.019499
v -0.105677 0.429688 -0.019409
v -0.104615 0.428874 -0.047011
v -0.104459 0.429979 -0.046404
v -0.104864 0.429491 -0.047231
v -0.105275 0.430205 -0.042281
v -0.105043 0.429545 -0.042302
v -0.104212 0.429352 -0.046215
v -0.105464 0.429275 -0.035844
v -0.105131 0.429136 -0.030025
v -0.105508 0.429128 -0.032891
v -0.105366 0.428585 -0.035907
v -0.105099 0.428437 -0.030021
v -0.105455 0.428430 -0.032909
v -0.105493 0.428820 -0.023729
v -0.104240 0.428650 -0.024411
v -0.105039 0.429746 -0.038676
v -0.105376 0.429502 -0.023835
v -0.104214 0.429348 -0.024462
v -0.104886 0.429071 -0.038776
v -0.104043 0.430368 -0.045563
v -0.104228 0.428480 -0.027359
v -0.104258 0.429179 -0.027377
v -0.103790 0.429732 -0.045416
v -0.104575 0.429435 -0.020441
v -0.104478 0.430116 -0.020569
v -0.104189 0.430412 -0.041239
v -0.103999 0.429744 -0.041327
v -0.103546 0.430782 -0.044624
v -0.103307 0.430130 -0.044542
v -0.102829 0.428629 -0.025017
v -0.102873 0.429328 -0.025039
v -0.103446 0.430400 -0.017615
v -0.103545 0.429718 -0.017490
v -0.103870 0.429467 -0.035240
v -0.103407 0.429262 -0.030063
v -0.103820 0.429268 -0.032619
v -0.103535 0.428867 -0.021313
v -0.102314 0.428796 -0.022271
v -0.103741 0.428783 -0.035318
v -0.103322 0.428567 -0.030076
v -0.103724 0.428575 -0.032652
v -0.103581 0.429946 -0.037777
v -0.103419 0.429275 -0.037890
v -0.103441 0.429551 -0.021433
v -0.102317 0.429495 -0.022314
v -0.102787 0.431081 -0.043439
v -0.102572 0.429338 -0.027695
v -0.102482 0.428644 -0.027701
v -0.102595 0.430409 -0.043459
v -0.101314 0.429331 -0.048784
v -0.101439 0.430439 -0.048190
v -0.101518 0.429925 -0.049092
v -0.101237 0.429826 -0.047920
v -0.102510 0.429367 -0.018543
v -0.102409 0.430046 -0.018679
v -0.101326 0.430823 -0.047291
v -0.101086 0.428831 -0.023060
v -0.101128 0.430191 -0.047063
v -0.101138 0.429529 -0.023064
v -0.102898 0.430553 -0.040105
v -0.101158 0.431239 -0.046343
v -0.102722 0.429885 -0.040220
v -0.102197 0.429771 -0.034647
v -0.102007 0.430201 -0.036873
v -0.101597 0.429560 -0.030125
v -0.102068 0.429567 -0.032356
v -0.100970 0.430587 -0.046172
v -0.102026 0.429098 -0.034734
v -0.101825 0.429534 -0.036986
v -0.101454 0.428876 -0.030158
v -0.101914 0.428886 -0.032405
v -0.101355 0.429026 -0.019620
v -0.100279 0.428896 -0.020617
v -0.101248 0.430436 -0.016223
v -0.101345 0.429764 -0.016052
v -0.100719 0.431582 -0.045081
v -0.101299 0.429717 -0.019720
v -0.100291 0.429596 -0.020647
v -0.100766 0.429646 -0.028050
v -0.100629 0.428960 -0.028078
v -0.100567 0.430901 -0.045022
v -0.101738 0.431202 -0.042093
v -0.101456 0.430728 -0.038931
v -0.101306 0.429515 -0.025605
v -0.101210 0.428822 -0.025612
v -0.101571 0.430527 -0.042175
v -0.101275 0.430062 -0.039048
v -0.100298 0.429328 -0.017098
v -0.100220 0.430008 -0.017244
v -0.099191 0.428942 -0.021504
v -0.099247 0.429639 -0.021488
v -0.100267 0.430062 -0.032150
v -0.100458 0.430218 -0.034107
v -0.100072 0.429392 -0.032213
v -0.100259 0.429553 -0.034192
v -0.099925 0.430961 -0.037803
v -0.100349 0.430539 -0.036021
v -0.099740 0.430295 -0.037911
v -0.100153 0.429875 -0.036126
v -0.100508 0.431289 -0.040700
v -0.100002 0.431739 -0.043613
v -0.099768 0.430032 -0.030238
v -0.100346 0.430615 -0.040800
v -0.099875 0.431051 -0.043637
v -0.098098 0.430897 -0.049155
v -0.097727 0.429834 -0.049755
v -0.097846 0.430440 -0.050083
v -0.099583 0.429359 -0.030293
v -0.099188 0.431405 -0.039368
v -0.098258 0.431229 -0.048213
v -0.099213 0.429050 -0.018233
v -0.098197 0.428993 -0.019315
v -0.099165 0.430448 -0.015249
v -0.099264 0.429779 -0.015068
v -0.098336 0.431598 -0.047258
v -0.097971 0.430272 -0.048865
v -0.099742 0.429695 -0.023802
v -0.099600 0.429808 -0.026194
v -0.098227 0.429692 -0.019336
v -0.099188 0.429745 -0.018311
v -0.099027 0.430730 -0.039464
v -0.098138 0.430585 -0.047966
v -0.099651 0.429001 -0.023830
v -0.099473 0.429120 -0.026228
v -0.098206 0.431884 -0.045995
v -0.098226 0.430935 -0.047060
v -0.098119 0.431196 -0.045899
v -0.098977 0.430097 -0.028436
v -0.097914 0.430202 -0.026798
v -0.098806 0.429421 -0.028495
v -0.097765 0.429521 -0.026865
v -0.099120 0.431775 -0.042069
v -0.098159 0.431779 -0.040620
v -0.098655 0.430726 -0.033668
v -0.098419 0.430619 -0.032010
v -0.098351 0.431252 -0.036830
v -0.098639 0.430947 -0.035293
v -0.098999 0.431089 -0.042131
v -0.098039 0.431093 -0.040691
v -0.098264 0.429326 -0.016050
v -0.097361 0.429781 -0.020217
v -0.097296 0.429085 -0.020236
v -0.098452 0.430061 -0.033747
v -0.098215 0.429953 -0.032080
v -0.098199 0.430011 -0.016178
v -0.098172 0.430582 -0.036923
v -0.098443 0.430281 -0.035386
v -0.097862 0.432038 -0.044513
v -0.097825 0.431571 -0.038233
v -0.097788 0.431342 -0.044491
v -0.097937 0.430598 -0.030386
v -0.098204 0.429969 -0.024568
v -0.098055 0.429821 -0.022300
v -0.097674 0.430893 -0.038314
v -0.098093 0.429279 -0.024618
v -0.097972 0.429127 -0.022345
v -0.096662 0.430302 -0.025352
v -0.097741 0.429930 -0.030459
v -0.096540 0.429617 -0.025431
v -0.097264 0.430301 -0.014294
v -0.097359 0.429619 -0.014168
v -0.097130 0.429156 -0.017179
v -0.096283 0.429163 -0.018211
v -0.096332 0.429861 -0.018223
v -0.097137 0.429854 -0.017227
v -0.097140 0.431833 -0.039438
v -0.096903 0.432017 -0.041368
v -0.097387 0.432064 -0.042896
v -0.097025 0.431146 -0.039500
v -0.096824 0.431323 -0.041413
v -0.097314 0.431368 -0.042922
v -0.097220 0.430624 -0.028836
v -0.096289 0.430657 -0.027403
v -0.096138 0.429981 -0.027500
v -0.097043 0.429952 -0.028920
v -0.096823 0.431248 -0.033356
v -0.096560 0.431188 -0.031930
v -0.096758 0.431575 -0.036112
v -0.096894 0.431380 -0.034761
v -0.096637 0.430577 -0.033424
v -0.096373 0.430517 -0.032000
v -0.096600 0.430897 -0.036188
v -0.096718 0.430707 -0.034837
v -0.096105 0.431157 -0.030540
v -0.096433 0.431774 -0.037407
v -0.095385 0.431860 -0.047374
v -0.095520 0.432053 -0.046152
v -0.096286 0.429260 -0.015274
v -0.095121 0.431546 -0.048384
v -0.095576 0.429929 -0.019130
v -0.095328 0.431183 -0.047205
v -0.095470 0.431360 -0.046061
v -0.095510 0.429232 -0.019144
v -0.095928 0.430485 -0.030624
v -0.096705 0.430071 -0.023174
v -0.095312 0.430362 -0.024117
v -0.096244 0.429956 -0.015337
v -0.096301 0.431089 -0.037471
v -0.096547 0.431979 -0.040262
v -0.095053 0.430883 -0.048168
v -0.096613 0.429380 -0.023238
v -0.095215 0.429674 -0.024205
v -0.094754 0.431227 -0.049397
v -0.096339 0.429937 -0.021057
v -0.096461 0.431286 -0.040308
v -0.096263 0.429242 -0.021101
v -0.094678 0.430586 -0.049126
v -0.095485 0.431123 -0.029213
v -0.095192 0.430683 -0.026152
v -0.095536 0.432196 -0.044689
v -0.094238 0.430151 -0.050060
v -0.094313 0.430773 -0.050372
v -0.095488 0.431499 -0.044655
v -0.095067 0.430003 -0.026259
v -0.095326 0.430448 -0.029313
v -0.095491 0.432212 -0.043060
v -0.095294 0.430057 -0.013471
v -0.095349 0.429361 -0.013421
v -0.095440 0.431514 -0.043071
v -0.094746 0.431076 -0.027979
v -0.094582 0.429312 -0.017264
v -0.095306 0.429273 -0.016321
v -0.094631 0.430011 -0.017264
v -0.095332 0.429972 -0.016329
v -0.095983 0.431946 -0.038656
v -0.094606 0.430399 -0.028092
v -0.095880 0.431256 -0.038705
v -0.094976 0.431699 -0.033180
v -0.095133 0.431866 -0.035666
v -0.095122 0.431766 -0.034443
v -0.095472 0.432154 -0.041434
v -0.094697 0.431661 -0.031899
v -0.095411 0.431457 -0.041463
v -0.095000 0.431977 -0.036880
v -0.094821 0.431018 -0.033235
v -0.095002 0.431181 -0.035722
v -0.094976 0.431084 -0.034501
v -0.095153 0.430149 -0.021989
v -0.093902 0.430387 -0.023061
v -0.093984 0.430704 -0.025121
v -0.094541 0.430982 -0.031966
v -0.095078 0.429456 -0.022052
v -0.093821 0.429697 -0.023152
v -0.094887 0.431287 -0.036926
v -0.094288 0.431599 -0.030652
v -0.093877 0.430022 -0.025237
v -0.095599 0.432072 -0.039949
v -0.095520 0.431377 -0.039985
v -0.094139 0.430921 -0.030743
v -0.093897 0.430079 -0.018207
v -0.094647 0.430055 -0.020006
v -0.093848 0.429381 -0.018215
v -0.094400 0.429265 -0.014527
v -0.093891 0.431052 -0.026941
v -0.094583 0.429359 -0.020039
v -0.094390 0.429965 -0.014531
v -0.093766 0.430374 -0.027065
v -0.093802 0.431517 -0.029463
v -0.094728 0.432087 -0.038134
v -0.093663 0.430839 -0.029571
v -0.094635 0.431394 -0.038168
v -0.093970 0.432267 -0.041051
v -0.094366 0.432186 -0.039506
v -0.092833 0.432283 -0.045657
v -0.093199 0.432357 -0.044248
v -0.093912 0.431570 -0.041069
v -0.094293 0.431491 -0.039531
v -0.093330 0.431417 -0.028348
v -0.092794 0.431587 -0.045592
v -0.093160 0.431658 -0.044223
v -0.093574 0.432336 -0.042672
v -0.093528 0.431637 -0.042678
v -0.092454 0.432152 -0.046840
v -0.093488 0.429958 -0.012789
v -0.093508 0.429258 -0.012793
v -0.093012 0.430115 -0.016448
v -0.093686 0.430049 -0.015486
v -0.093197 0.430741 -0.028470
v -0.092406 0.431463 -0.046729
v -0.092991 0.429416 -0.016466
v -0.093662 0.429350 -0.015511
v -0.092708 0.430732 -0.024242
v -0.092608 0.430051 -0.024366
v -0.093570 0.430213 -0.020980
v -0.092454 0.430414 -0.022138
v -0.093362 0.432102 -0.034329
v -0.093486 0.432143 -0.035480
v -0.092017 0.431966 -0.047903
v -0.093512 0.429517 -0.021036
v -0.092380 0.429725 -0.022232
v -0.091949 0.431285 -0.047755
v -0.093235 0.431415 -0.034367
v -0.093370 0.431453 -0.035515
v -0.093431 0.432243 -0.037813
v -0.093519 0.432190 -0.036625
v -0.093169 0.432070 -0.033125
v -0.093344 0.431549 -0.037832
v -0.093418 0.431498 -0.036653
v -0.093033 0.431384 -0.033168
v -0.093049 0.431317 -0.027517
v -0.091484 0.431712 -0.049056
v -0.093142 0.432299 -0.039069
v -0.092898 0.432039 -0.031883
v -0.091403 0.431053 -0.048833
v -0.093010 0.430159 -0.019119
v -0.092319 0.430167 -0.017402
v -0.093072 0.431603 -0.039082
v -0.092922 0.430641 -0.027647
v -0.092319 0.429467 -0.017417
v -0.092973 0.429460 -0.019142
v -0.092761 0.431355 -0.031950
v -0.092788 0.429273 -0.013844
v -0.092781 0.429972 -0.013816
v -0.090781 0.430634 -0.049901
v -0.090864 0.431273 -0.050174
v -0.092553 0.431951 -0.030663
v -0.092417 0.431271 -0.030757
v -0.092839 0.431090 -0.026170
v -0.092545 0.432375 -0.040426
v -0.091397 0.430776 -0.023442
v -0.092493 0.431677 -0.040435
v -0.092721 0.430412 -0.026303
v -0.091299 0.430095 -0.023572
v -0.092209 0.431839 -0.029481
v -0.091542 0.430086 -0.015759
v -0.092158 0.430049 -0.014766
v -0.091575 0.429388 -0.015786
v -0.092165 0.429350 -0.014806
v -0.092076 0.431161 -0.029594
v -0.092008 0.430241 -0.020129
v -0.091011 0.430457 -0.021346
v -0.091786 0.432436 -0.041873
v -0.091946 0.429902 -0.012282
v -0.091967 0.429203 -0.012306
v -0.091969 0.429544 -0.020188
v -0.090947 0.429768 -0.021452
v -0.091748 0.431737 -0.041875
v -0.091797 0.432414 -0.035552
v -0.092109 0.432397 -0.037860
v -0.091968 0.432407 -0.036707
v -0.091607 0.432417 -0.034378
v -0.092218 0.432388 -0.038791
v -0.091708 0.431719 -0.035565
v -0.092040 0.431701 -0.037865
v -0.091889 0.431711 -0.036715
v -0.091508 0.431725 -0.034396
v -0.092155 0.431691 -0.038795
v -0.091978 0.431682 -0.028331
v -0.091849 0.431006 -0.028459
v -0.091017 0.432467 -0.043297
v -0.090985 0.431768 -0.043286
v -0.091408 0.432413 -0.033146
v -0.092110 0.431436 -0.027232
v -0.091303 0.431722 -0.033177
v -0.090840 0.430062 -0.016761
v -0.091446 0.430152 -0.018371
v -0.090902 0.429365 -0.016784
v -0.091462 0.429453 -0.018406
v -0.091985 0.430761 -0.027367
v -0.091173 0.432365 -0.031866
v -0.091676 0.431159 -0.025504
v -0.089651 0.432446 -0.045696
v -0.090302 0.432467 -0.044587
v -0.091339 0.429225 -0.013349
v -0.091315 0.429924 -0.013314
v -0.089591 0.431750 -0.045653
v -0.090263 0.431769 -0.044559
v -0.091065 0.431676 -0.031926
v -0.091561 0.430482 -0.025643
v -0.090910 0.432266 -0.030585
v -0.091412 0.432447 -0.039582
v -0.091367 0.431749 -0.039581
v -0.090069 0.430829 -0.022730
v -0.088992 0.432450 -0.046775
v -0.090800 0.431581 -0.030674
v -0.088901 0.431759 -0.046716
v -0.089990 0.430148 -0.022870
v -0.090703 0.432104 -0.029318
v -0.090742 0.432501 -0.038444
v -0.090798 0.429268 -0.014284
v -0.090754 0.429966 -0.014249
v -0.090698 0.431802 -0.038438
v -0.090665 0.431874 -0.028060
v -0.090953 0.431558 -0.026794
v -0.090346 0.432542 -0.037156
v -0.090591 0.431422 -0.029431
v -0.090298 0.431844 -0.037148
v -0.090510 0.430224 -0.019425
v -0.090526 0.429841 -0.012001
v -0.090565 0.429143 -0.012027
v -0.090512 0.429530 -0.019514
v -0.090550 0.431196 -0.028192
v -0.090836 0.430882 -0.026935
v -0.090059 0.432582 -0.035854
v -0.090320 0.432499 -0.040734
v -0.090286 0.431800 -0.040731
v -0.090005 0.431884 -0.035848
v -0.090470 0.431225 -0.024836
v -0.089667 0.432616 -0.033202
v -0.089840 0.432608 -0.034544
v -0.090249 0.429249 -0.015286
v -0.090366 0.430548 -0.024981
v -0.090174 0.429945 -0.015269
v -0.089606 0.431919 -0.033221
v -0.089782 0.431910 -0.034545
v -0.088254 0.432467 -0.048042
v -0.090068 0.429313 -0.017852
v -0.089998 0.430007 -0.017794
v -0.088149 0.431788 -0.047908
v -0.089509 0.432566 -0.031832
v -0.089322 0.432555 -0.039326
v -0.089285 0.431856 -0.039316
v -0.089998 0.429151 -0.013027
v -0.089948 0.429848 -0.012999
v -0.089445 0.431871 -0.031882
v -0.089595 0.430468 -0.020687
v -0.089199 0.432542 -0.041924
v -0.089161 0.431843 -0.041921
v -0.089578 0.429782 -0.020826
v -0.089766 0.431644 -0.026267
v -0.089613 0.429182 -0.016333
v -0.088824 0.429098 -0.017482
v -0.089348 0.432450 -0.030450
v -0.087283 0.431489 -0.049236
v -0.087386 0.432157 -0.049417
v -0.089511 0.429875 -0.016315
v -0.088713 0.429785 -0.017413
v -0.089673 0.430965 -0.026410
v -0.089502 0.429143 -0.013949
v -0.089281 0.431758 -0.030534
v -0.089426 0.429838 -0.013932
v -0.088705 0.432615 -0.037791
v -0.088657 0.431917 -0.037774
v -0.089376 0.431995 -0.027674
v -0.089266 0.432261 -0.029064
v -0.089297 0.431312 -0.027808
v -0.089197 0.431573 -0.029178
v -0.089169 0.429747 -0.011871
v -0.089239 0.429051 -0.011898
v -0.089170 0.429386 -0.019032
v -0.089113 0.430072 -0.018905
v -0.089223 0.431271 -0.024211
v -0.089151 0.430591 -0.024362
v -0.087224 0.432716 -0.043982
v -0.088151 0.432604 -0.043023
v -0.087140 0.432021 -0.043985
v -0.088094 0.431906 -0.043023
v -0.088992 0.429083 -0.014938
v -0.088888 0.429776 -0.014937
v -0.087957 0.429180 -0.018716
v -0.088724 0.430831 -0.022135
v -0.087927 0.431245 -0.023690
v -0.088331 0.432675 -0.036255
v -0.088728 0.429028 -0.012863
v -0.087851 0.429856 -0.018564
v -0.088702 0.430151 -0.022299
v -0.087915 0.430565 -0.023858
v -0.088273 0.431977 -0.036240
v -0.088641 0.429722 -0.012841
v -0.087988 0.432721 -0.033266
v -0.088113 0.432715 -0.034748
v -0.087930 0.432024 -0.033284
v -0.088052 0.432017 -0.034745
v -0.088534 0.431674 -0.025747
v -0.088482 0.430992 -0.025893
v -0.087903 0.432664 -0.031788
v -0.086330 0.432881 -0.044950
v -0.088404 0.428973 -0.016000
v -0.087662 0.428844 -0.017229
v -0.087850 0.431968 -0.031839
v -0.088246 0.430322 -0.020200
v -0.086223 0.432189 -0.044957
v -0.088294 0.429645 -0.020372
v -0.088278 0.428979 -0.013739
v -0.088274 0.429661 -0.015996
v -0.087519 0.429526 -0.017160
v -0.088170 0.429671 -0.013738
v -0.088078 0.432013 -0.027280
v -0.087834 0.432534 -0.030296
v -0.087903 0.432612 -0.040234
v -0.088039 0.431328 -0.027417
v -0.087789 0.431841 -0.030384
v -0.087843 0.431914 -0.040227
v -0.087859 0.432305 -0.028795
v -0.087896 0.429571 -0.011877
v -0.087997 0.428879 -0.011907
v -0.087249 0.431629 -0.025315
v -0.087822 0.431617 -0.028915
v -0.087121 0.429431 -0.020053
v -0.087247 0.430947 -0.025473
v -0.087013 0.430094 -0.019858
v -0.087815 0.428881 -0.014691
v -0.087684 0.429569 -0.014703
v -0.086841 0.428904 -0.018502
v -0.087535 0.428849 -0.012771
v -0.087415 0.430670 -0.021677
v -0.086629 0.431089 -0.023273
v -0.086698 0.429570 -0.018341
v -0.087468 0.429999 -0.021869
v -0.086689 0.430419 -0.023468
v -0.086640 0.432857 -0.036637
v -0.087076 0.432724 -0.038416
v -0.086526 0.432166 -0.036619
v -0.086985 0.432030 -0.038395
v -0.087427 0.429540 -0.012757
v -0.086733 0.431981 -0.026942
v -0.086728 0.431297 -0.027091
v -0.087236 0.428733 -0.015752
v -0.086528 0.428559 -0.016963
v -0.086439 0.432904 -0.034939
v -0.086322 0.429749 -0.021547
v -0.087120 0.428769 -0.013602
v -0.087087 0.429417 -0.015760
v -0.086380 0.429241 -0.016910
v -0.086318 0.432215 -0.034940
v -0.086207 0.430406 -0.021336
v -0.085372 0.433078 -0.046117
v -0.087002 0.429458 -0.013614
v -0.085269 0.432386 -0.046086
v -0.086572 0.432745 -0.041059
v -0.085416 0.432911 -0.041771
v -0.086475 0.432051 -0.041054
v -0.085283 0.432224 -0.041764
v -0.086419 0.432318 -0.028548
v -0.086394 0.431633 -0.028687
v -0.086747 0.429408 -0.011967
v -0.086377 0.428661 -0.012714
v -0.086836 0.428714 -0.011986
v -0.086355 0.432897 -0.033321
v -0.086040 0.429122 -0.019807
v -0.085937 0.431490 -0.024964
v -0.086244 0.432207 -0.033351
v -0.085993 0.430817 -0.025147
v -0.086304 0.429357 -0.012717
v -0.086316 0.432610 -0.030141
v -0.086323 0.432806 -0.031733
v -0.085895 0.429775 -0.019602
v -0.086260 0.431921 -0.030254
v -0.086236 0.432116 -0.031805
v -0.086631 0.428639 -0.014484
v -0.086511 0.429328 -0.014512
v -0.085748 0.428587 -0.018257
v -0.085878 0.428569 -0.013488
v -0.085610 0.429258 -0.018115
v -0.085824 0.429266 -0.013521
v -0.084222 0.432525 -0.047384
v -0.084316 0.433216 -0.047448
v -0.085384 0.431204 -0.026827
v -0.085355 0.431881 -0.026649
v -0.086009 0.428457 -0.015460
v -0.085237 0.428288 -0.016612
v -0.084345 0.433093 -0.042488
v -0.084197 0.432409 -0.042474
v -0.085242 0.428456 -0.014251
v -0.085271 0.429425 -0.021267
v -0.085904 0.429148 -0.015490
v -0.085164 0.428984 -0.016603
v -0.085107 0.433191 -0.036972
v -0.085588 0.432976 -0.038967
v -0.085119 0.430073 -0.021049
v -0.085228 0.429154 -0.014311
v -0.084913 0.432518 -0.036948
v -0.085436 0.432293 -0.038938
v -0.085764 0.429316 -0.012099
v -0.085011 0.428593 -0.012596
v -0.085812 0.428617 -0.012104
v -0.084989 0.429292 -0.012621
v -0.084936 0.431620 -0.028483
v -0.084946 0.432298 -0.028309
v -0.085544 0.430145 -0.023182
v -0.084549 0.428356 -0.015138
v -0.085424 0.430800 -0.022966
v -0.084915 0.433281 -0.035103
v -0.084307 0.433272 -0.039421
v -0.084511 0.428298 -0.017852
v -0.084714 0.432610 -0.035111
v -0.084583 0.429051 -0.015214
v -0.084094 0.432607 -0.039376
v -0.084384 0.428591 -0.013283
v -0.084456 0.428992 -0.017777
v -0.084836 0.433250 -0.033343
v -0.084789 0.432721 -0.029967
v -0.084791 0.433050 -0.031645
v -0.084407 0.429289 -0.013336
v -0.084726 0.432041 -0.030124
v -0.084659 0.432576 -0.033401
v -0.084667 0.432371 -0.031762
v -0.084991 0.428792 -0.019536
v -0.083798 0.428319 -0.016133
v -0.084776 0.430568 -0.024880
v -0.084041 0.431032 -0.026566
v -0.084667 0.431224 -0.024663
v -0.083962 0.431692 -0.026347
v -0.083878 0.429012 -0.016194
v -0.084848 0.429450 -0.019345
v -0.083683 0.428649 -0.013989
v -0.083761 0.429339 -0.014079
v -0.083856 0.433662 -0.037251
v -0.084489 0.429805 -0.022893
v -0.083588 0.433016 -0.037217
v -0.084328 0.430447 -0.022665
v -0.083191 0.433672 -0.039869
v -0.083466 0.431550 -0.028264
v -0.083254 0.433320 -0.043326
v -0.083430 0.432211 -0.028038
v -0.082970 0.433012 -0.039793
v -0.084271 0.429074 -0.020951
v -0.083545 0.429420 -0.022551
v -0.083127 0.432632 -0.043297
v -0.083105 0.428327 -0.017254
v -0.083060 0.428686 -0.014761
v -0.083187 0.429366 -0.014865
v -0.083211 0.429019 -0.017282
v -0.084109 0.429722 -0.020742
v -0.083362 0.430057 -0.022327
v -0.083634 0.433767 -0.035223
v -0.083864 0.428465 -0.019165
v -0.083363 0.433123 -0.035246
v -0.083788 0.429149 -0.019039
v -0.083506 0.433686 -0.033323
v -0.083265 0.432779 -0.029759
v -0.083342 0.433315 -0.031499
v -0.083688 0.430226 -0.024572
v -0.082825 0.430674 -0.026180
v -0.083229 0.432117 -0.029982
v -0.083528 0.430862 -0.024328
v -0.082675 0.431305 -0.025919
v -0.083285 0.433030 -0.033427
v -0.083210 0.432653 -0.031684
v -0.082543 0.429418 -0.015695
v -0.082381 0.428744 -0.015598
v -0.082778 0.429773 -0.024151
v -0.082578 0.430395 -0.023902
v -0.082086 0.432720 -0.044188
v -0.082190 0.433411 -0.044220
v -0.082723 0.434185 -0.037550
v -0.083242 0.428697 -0.020584
v -0.082602 0.429010 -0.022160
v -0.083130 0.429369 -0.020423
v -0.082460 0.429669 -0.021972
v -0.082449 0.433544 -0.037492
v -0.081806 0.431199 -0.027927
v -0.081690 0.431826 -0.027638
v -0.081896 0.429466 -0.016724
v -0.082486 0.428374 -0.018538
v -0.082628 0.434315 -0.035339
v -0.081702 0.428798 -0.016648
v -0.082586 0.429067 -0.018533
v -0.082347 0.433675 -0.035373
v -0.081938 0.429314 -0.023699
v -0.082341 0.434113 -0.033258
v -0.081774 0.429961 -0.023487
v -0.081753 0.432740 -0.029597
v -0.081974 0.433535 -0.031335
v -0.082122 0.433468 -0.033419
v -0.082085 0.433881 -0.040348
v -0.081350 0.428703 -0.021628
v -0.081898 0.428464 -0.020017
v -0.081773 0.432104 -0.029890
v -0.081872 0.432895 -0.031600
v -0.081976 0.429158 -0.019968
v -0.081406 0.429394 -0.021533
v -0.081888 0.433218 -0.040239
v -0.081933 0.430106 -0.025545
v -0.081724 0.434580 -0.037852
v -0.081729 0.430713 -0.025265
v -0.081143 0.434578 -0.033308
v -0.081534 0.434771 -0.035512
v -0.080816 0.428972 -0.023150
v -0.081287 0.429574 -0.017927
v -0.081079 0.428908 -0.017866
v -0.080851 0.429662 -0.023034
v -0.081481 0.433929 -0.037765
v -0.080982 0.433927 -0.033508
v -0.081301 0.434112 -0.035549
v -0.080734 0.433674 -0.031311
v -0.080860 0.433412 -0.040722
v -0.081045 0.434077 -0.040838
v -0.080680 0.433057 -0.031638
v -0.080074 0.429788 -0.020877
v -0.080661 0.429606 -0.019301
v -0.081251 0.429572 -0.024961
v -0.081075 0.430324 -0.026587
v -0.079871 0.429118 -0.020902
v -0.080452 0.428938 -0.019276
v -0.080494 0.432096 -0.030075
v -0.080142 0.430274 -0.027059
v -0.080346 0.431152 -0.028498
v -0.081081 0.430204 -0.024715
v -0.080453 0.432699 -0.029723
v -0.080896 0.430929 -0.026284
v -0.080724 0.434913 -0.038203
v -0.080060 0.430898 -0.026753
v -0.080248 0.431757 -0.028160
v -0.080043 0.434758 -0.033354
v -0.080485 0.435153 -0.035662
v -0.080488 0.434262 -0.038098
v -0.079603 0.429982 -0.022372
v -0.079414 0.429309 -0.022415
v -0.079929 0.434103 -0.033575
v -0.080281 0.434484 -0.035700
v -0.080770 0.429797 -0.025785
v -0.080281 0.429225 -0.024444
v -0.079579 0.433812 -0.031428
v -0.080602 0.430415 -0.025503
v -0.080319 0.429907 -0.024293
v -0.079990 0.429597 -0.025684
v -0.079549 0.433206 -0.031777
v -0.079994 0.430259 -0.025457
v -0.079327 0.432175 -0.030304
v -0.079295 0.432764 -0.029926
v -0.078971 0.430206 -0.027100
v -0.079126 0.431152 -0.028809
v -0.079221 0.430168 -0.023748
v -0.079040 0.429497 -0.023831
v -0.078975 0.430844 -0.026812
v -0.079060 0.431749 -0.028451
v -0.078827 0.429777 -0.025259
v -0.078963 0.430442 -0.025087
usemtl Art_cart_of_tibia_proximal_end_rMaterial0
f 1 2 3
f 3 2 4
f 5 6 2
f 2 6 7
f 1 5 2
f 2 7 4
f 8 3 9
f 9 3 10
f 8 1 3
f 3 4 10
f 5 11 6
f 11 12 6
f 6 12 13
f 6 13 7
f 5 14 11
f 1 15 5
f 5 15 14
f 11 16 12
f 11 17 16
f 11 14 17
f 18 9 19
f 20 9 18
f 20 8 9
f 9 10 19
f 8 21 1
f 1 21 15
f 22 18 23
f 24 18 22
f 18 19 23
f 24 20 18
f 25 26 27
f 27 26 28
f 25 29 26
f 29 30 26
f 26 30 31
f 26 31 28
f 32 27 33
f 33 27 34
f 32 25 27
f 27 28 34
f 35 32 33
f 35 33 36
f 36 33 37
f 33 34 37
f 16 38 12
f 12 38 39
f 12 39 13
f 32 40 25
f 25 41 29
f 25 40 41
f 35 42 32
f 32 42 40
f 43 35 36
f 43 36 38
f 38 36 44
f 36 37 44
f 29 45 30
f 29 46 45
f 29 41 46
f 43 47 35
f 35 47 42
f 16 43 38
f 16 48 43
f 43 48 47
f 16 17 48
f 38 44 39
f 45 49 30
f 30 49 50
f 30 50 31
f 45 51 49
f 45 52 51
f 45 46 52
f 20 53 8
f 8 53 21
f 54 22 55
f 56 22 54
f 22 23 55
f 56 24 22
f 19 10 57
f 10 4 58
f 10 58 57
f 59 54 60
f 61 54 59
f 54 55 60
f 61 56 54
f 23 19 62
f 19 57 62
f 24 63 20
f 20 63 53
f 4 7 64
f 4 64 58
f 55 23 65
f 23 62 65
f 66 59 67
f 67 59 68
f 59 60 68
f 66 61 59
f 51 50 49
f 51 52 50
f 7 13 69
f 7 69 64
f 56 70 24
f 24 70 63
f 21 71 15
f 15 72 14
f 15 71 72
f 53 73 21
f 21 73 71
f 14 74 17
f 14 72 74
f 60 55 75
f 55 65 75
f 76 67 77
f 78 77 67
f 76 66 67
f 67 68 79
f 78 67 79
f 61 80 56
f 56 80 70
f 13 39 81
f 13 81 69
f 63 82 53
f 53 82 73
f 17 83 48
f 17 74 83
f 84 77 85
f 86 85 77
f 84 76 77
f 86 77 78
f 68 60 87
f 60 75 87
f 39 44 88
f 39 88 81
f 66 89 61
f 61 89 80
f 70 90 63
f 63 90 82
f 48 91 47
f 48 83 91
f 92 85 93
f 86 93 85
f 92 84 85
f 44 37 94
f 44 94 88
f 95 66 76
f 66 96 89
f 95 96 66
f 79 68 97
f 68 87 97
f 47 98 42
f 47 91 98
f 99 93 100
f 101 100 93
f 99 92 93
f 86 101 93
f 80 102 70
f 70 102 90
f 103 65 62
f 103 75 65
f 37 34 104
f 37 104 94
f 105 76 84
f 105 95 76
f 106 62 57
f 103 62 106
f 42 107 40
f 42 98 107
f 105 84 92
f 34 28 108
f 34 108 104
f 40 109 41
f 40 107 109
f 110 87 75
f 103 110 75
f 111 99 100
f 111 100 112
f 100 113 112
f 101 114 100
f 100 114 113
f 115 78 79
f 79 97 116
f 115 79 116
f 89 117 80
f 80 117 102
f 118 57 58
f 106 57 118
f 119 92 99
f 105 92 119
f 28 31 120
f 28 120 108
f 41 121 46
f 41 109 121
f 31 50 122
f 31 122 120
f 123 58 64
f 118 58 123
f 99 111 124
f 119 99 125
f 99 124 125
f 126 97 87
f 126 87 127
f 110 127 87
f 96 128 89
f 89 128 117
f 46 129 52
f 46 121 129
f 130 82 90
f 131 73 82
f 130 131 82
f 130 90 102
f 132 111 112
f 132 112 133
f 112 134 133
f 112 113 134
f 135 86 78
f 135 78 115
f 136 71 73
f 131 136 73
f 52 122 50
f 137 64 69
f 123 64 137
f 52 129 122
f 138 116 97
f 138 97 126
f 139 102 117
f 130 102 139
f 140 96 95
f 96 141 128
f 140 141 96
f 142 72 71
f 136 142 71
f 111 132 143
f 111 143 124
f 144 69 81
f 137 69 144
f 145 74 72
f 142 145 72
f 135 101 86
f 138 115 116
f 146 117 128
f 146 147 117
f 139 117 147
f 148 95 105
f 148 140 95
f 149 83 74
f 145 149 74
f 150 81 88
f 144 81 150
f 151 132 133
f 151 133 152
f 133 153 152
f 133 134 153
f 154 114 101
f 135 154 101
f 155 128 141
f 155 146 128
f 156 91 83
f 149 156 83
f 148 105 119
f 157 88 94
f 150 88 157
f 158 98 91
f 156 158 91
f 132 151 159
f 132 159 143
f 155 141 140
f 114 160 113
f 154 161 114
f 114 161 160
f 162 119 125
f 148 119 162
f 163 135 115
f 138 163 115
f 164 94 104
f 157 94 164
f 165 107 98
f 158 165 98
f 125 124 166
f 162 125 167
f 125 166 167
f 168 104 108
f 164 104 168
f 169 126 127
f 170 138 126
f 170 126 169
f 171 109 107
f 165 171 107
f 113 172 134
f 113 160 172
f 173 127 110
f 169 127 174
f 173 174 127
f 175 151 152
f 175 152 176
f 152 177 176
f 152 153 177
f 178 110 103
f 178 173 110
f 178 103 106
f 179 140 148
f 155 140 179
f 120 180 108
f 168 108 180
f 121 109 181
f 171 181 109
f 182 106 118
f 178 106 182
f 124 143 183
f 124 183 166
f 135 184 154
f 163 185 135
f 135 185 184
f 170 163 138
f 151 175 186
f 151 186 159
f 187 118 123
f 182 118 187
f 122 188 120
f 120 188 180
f 189 147 146
f 190 139 147
f 189 191 147
f 190 147 191
f 192 146 155
f 192 189 146
f 193 130 139
f 193 131 130
f 129 121 194
f 121 181 194
f 193 139 190
f 134 195 153
f 134 172 195
f 196 136 131
f 193 196 131
f 197 123 137
f 187 123 197
f 148 162 198
f 179 148 199
f 148 198 199
f 129 200 122
f 122 200 188
f 201 142 136
f 196 201 136
f 202 137 144
f 197 137 202
f 129 194 203
f 129 203 200
f 154 204 161
f 154 184 204
f 143 159 205
f 143 205 183
f 192 155 179
f 206 144 150
f 202 144 206
f 207 145 142
f 201 207 142
f 208 175 176
f 176 177 209
f 208 176 210
f 176 209 210
f 211 149 145
f 207 211 145
f 212 185 163
f 170 212 163
f 213 150 157
f 206 150 213
f 214 156 149
f 211 214 149
f 162 167 215
f 162 215 198
f 216 160 161
f 216 161 204
f 217 158 156
f 214 217 156
f 175 208 218
f 175 218 186
f 219 157 164
f 213 157 219
f 153 220 177
f 153 195 220
f 221 165 158
f 217 221 158
f 222 167 166
f 222 215 167
f 223 179 199
f 192 179 223
f 224 172 160
f 224 160 216
f 225 164 168
f 219 164 225
f 159 186 226
f 159 226 205
f 227 171 165
f 221 227 165
f 185 228 184
f 212 229 185
f 185 229 228
f 230 166 183
f 230 222 166
f 231 168 180
f 225 168 231
f 232 181 171
f 227 232 171
f 224 195 172
f 188 233 180
f 231 180 233
f 199 198 234
f 223 199 235
f 199 234 235
f 194 181 236
f 232 236 181
f 184 237 204
f 184 228 237
f 177 238 209
f 177 220 238
f 230 183 205
f 239 170 169
f 239 212 170
f 240 208 210
f 210 209 241
f 240 210 242
f 210 241 242
f 208 243 218
f 208 240 243
f 186 218 244
f 186 244 226
f 200 245 188
f 188 245 233
f 203 194 246
f 194 236 246
f 247 189 192
f 247 192 223
f 198 215 248
f 198 248 234
f 224 249 195
f 249 220 195
f 250 216 204
f 250 204 237
f 251 169 174
f 239 169 251
f 252 229 212
f 239 252 212
f 203 253 200
f 200 253 245
f 254 205 226
f 230 205 254
f 206 213 255
f 202 206 256
f 206 255 256
f 203 246 257
f 203 257 253
f 258 191 189
f 247 258 189
f 213 219 259
f 213 259 255
f 260 215 222
f 260 248 215
f 261 223 235
f 247 223 261
f 197 202 262
f 202 256 262
f 214 263 217
f 211 264 214
f 214 264 263
f 217 265 221
f 217 263 265
f 266 224 216
f 266 216 250
f 219 225 267
f 219 267 259
f 207 268 211
f 211 268 264
f 187 197 269
f 197 262 269
f 221 270 227
f 221 265 270
f 271 174 173
f 251 174 272
f 271 272 174
f 201 273 207
f 207 273 268
f 274 182 187
f 187 269 275
f 274 187 275
f 276 178 182
f 276 182 274
f 225 231 277
f 225 277 267
f 278 222 230
f 278 260 222
f 279 201 196
f 201 280 273
f 279 280 201
f 281 228 229
f 252 282 229
f 281 229 282
f 276 173 178
f 276 271 173
f 283 190 191
f 258 284 191
f 283 191 284
f 227 285 232
f 227 270 285
f 286 196 193
f 286 279 196
f 209 287 241
f 209 238 287
f 286 193 190
f 266 249 224
f 249 288 220
f 288 238 220
f 286 190 283
f 218 243 289
f 218 289 244
f 231 233 290
f 231 290 277
f 291 240 242
f 242 241 292
f 291 242 293
f 242 292 293
f 294 235 234
f 261 235 295
f 294 295 235
f 240 291 296
f 240 296 243
f 232 297 236
f 232 285 297
f 254 226 298
f 298 226 244
f 278 230 254
f 299 237 228
f 299 228 281
f 245 290 233
f 246 236 297
f 300 288 249
f 266 300 249
f 301 234 248
f 301 294 234
f 299 250 237
f 302 254 298
f 278 254 302
f 253 303 245
f 245 303 290
f 301 248 260
f 257 246 304
f 246 297 304
f 256 255 305
f 255 259 306
f 255 306 305
f 307 266 250
f 299 307 250
f 241 308 292
f 241 287 308
f 288 309 238
f 309 287 238
f 310 291 293
f 310 293 311
f 293 312 311
f 293 292 312
f 262 256 313
f 256 305 313
f 291 310 314
f 291 314 296
f 264 315 263
f 263 316 265
f 263 315 316
f 243 296 317
f 243 317 289
f 259 267 318
f 259 318 306
f 268 319 264
f 264 319 315
f 298 244 320
f 320 244 289
f 265 321 270
f 265 316 321
f 322 252 239
f 322 239 251
f 269 262 323
f 262 313 323
f 324 260 278
f 301 260 324
f 257 325 253
f 253 325 303
f 273 326 268
f 268 326 319
f 300 327 288
f 327 309 288
f 328 282 252
f 322 328 252
f 329 247 261
f 329 258 247
f 267 277 330
f 267 330 318
f 257 304 331
f 257 331 325
f 275 269 332
f 269 323 332
f 270 333 285
f 270 321 333
f 302 298 334
f 334 298 320
f 266 335 300
f 307 336 266
f 266 336 335
f 337 251 272
f 322 251 337
f 338 261 295
f 329 261 338
f 280 339 273
f 273 339 326
f 340 284 258
f 329 340 258
f 278 302 341
f 324 278 342
f 278 341 342
f 343 274 275
f 275 332 344
f 343 275 344
f 345 281 282
f 328 346 282
f 345 282 346
f 347 280 279
f 280 348 339
f 347 348 280
f 277 290 349
f 277 349 330
f 285 350 297
f 285 333 350
f 351 276 274
f 351 274 343
f 352 272 271
f 337 272 353
f 352 353 272
f 354 295 294
f 338 295 355
f 354 355 295
f 356 279 286
f 356 347 279
f 357 283 284
f 340 358 284
f 357 284 358
f 314 310 311
f 314 311 312
f 351 271 276
f 351 352 271
f 292 359 312
f 292 308 359
f 296 314 360
f 296 360 317
f 356 286 283
f 356 283 357
f 361 299 281
f 361 281 345
f 300 362 327
f 300 335 362
f 309 363 287
f 308 287 363
f 303 349 290
f 302 334 364
f 302 364 341
f 365 294 301
f 365 354 294
f 320 289 366
f 317 366 289
f 304 297 350
f 361 307 299
f 327 367 309
f 367 363 309
f 368 313 305
f 368 305 306
f 365 301 324
f 334 320 369
f 369 320 366
f 370 315 319
f 370 316 315
f 371 323 313
f 368 371 313
f 372 306 318
f 368 306 372
f 373 336 307
f 361 373 307
f 374 319 326
f 370 319 374
f 375 321 316
f 370 375 316
f 325 376 303
f 303 376 349
f 360 314 312
f 360 312 359
f 377 324 342
f 365 324 377
f 327 378 367
f 327 362 378
f 332 323 379
f 371 379 323
f 339 380 326
f 374 326 380
f 331 304 381
f 304 350 381
f 382 318 330
f 372 318 383
f 382 383 318
f 334 369 384
f 334 384 364
f 308 363 385
f 359 308 385
f 336 386 335
f 373 387 336
f 336 387 386
f 388 333 321
f 375 389 321
f 388 321 389
f 317 390 366
f 360 390 317
f 344 332 391
f 332 379 391
f 342 341 392
f 377 342 393
f 342 392 393
f 348 394 339
f 339 394 380
f 331 395 325
f 325 395 376
f 367 396 363
f 385 363 396
f 397 330 349
f 397 382 330
f 398 343 344
f 344 391 399
f 398 344 399
f 331 381 400
f 331 400 395
f 401 348 347
f 348 402 394
f 401 402 348
f 369 366 403
f 390 403 366
f 404 350 333
f 404 333 388
f 335 405 362
f 335 386 405
f 406 328 322
f 406 322 337
f 407 346 328
f 406 407 328
f 408 351 343
f 408 343 398
f 409 329 338
f 409 340 329
f 345 346 410
f 407 410 346
f 411 338 355
f 409 338 411
f 412 371 368
f 412 368 372
f 341 364 413
f 341 413 392
f 367 414 396
f 367 378 414
f 415 347 356
f 415 401 347
f 416 360 359
f 359 385 417
f 416 359 417
f 418 337 353
f 406 337 418
f 360 416 390
f 354 419 355
f 411 355 419
f 420 370 374
f 420 375 370
f 421 358 340
f 409 421 340
f 361 345 422
f 345 410 422
f 408 352 351
f 423 379 371
f 412 423 371
f 369 403 424
f 369 424 384
f 425 353 352
f 425 426 353
f 418 353 426
f 415 356 357
f 427 372 383
f 412 372 427
f 408 425 352
f 428 373 361
f 428 361 429
f 361 422 429
f 365 430 354
f 354 430 419
f 431 374 380
f 420 374 431
f 432 357 358
f 421 433 358
f 432 358 433
f 376 397 349
f 415 357 432
f 434 389 375
f 420 434 375
f 435 365 377
f 435 436 365
f 365 436 430
f 381 350 404
f 437 387 373
f 437 373 428
f 391 379 438
f 423 438 379
f 385 396 439
f 417 385 439
f 440 377 393
f 440 435 377
f 394 441 380
f 431 380 441
f 362 442 378
f 362 405 442
f 390 443 403
f 416 443 390
f 444 383 382
f 427 383 445
f 444 445 383
f 437 386 387
f 364 384 446
f 364 446 413
f 447 388 389
f 434 448 389
f 447 389 448
f 440 393 392
f 412 449 423
f 412 427 449
f 395 450 376
f 376 450 397
f 399 391 451
f 391 438 451
f 420 431 452
f 420 452 434
f 414 439 396
f 402 453 394
f 394 453 441
f 400 381 454
f 381 404 454
f 424 403 443
f 437 455 386
f 455 405 386
f 456 382 397
f 456 444 382
f 457 416 417
f 417 439 458
f 457 417 458
f 423 459 438
f 423 449 459
f 427 445 460
f 427 460 449
f 416 457 443
f 461 398 399
f 399 451 462
f 461 399 462
f 431 441 463
f 431 463 452
f 440 392 464
f 464 392 413
f 465 404 388
f 465 388 447
f 434 466 448
f 434 452 466
f 467 402 401
f 402 468 453
f 467 468 402
f 378 469 414
f 378 442 469
f 400 470 395
f 395 470 450
f 384 424 471
f 384 471 446
f 472 428 429
f 429 422 473
f 472 429 474
f 429 473 474
f 475 437 428
f 475 428 472
f 476 408 398
f 476 398 461
f 400 454 477
f 400 477 470
f 422 410 478
f 422 478 473
f 479 401 415
f 479 467 401
f 451 438 459
f 480 436 435
f 436 481 430
f 480 482 436
f 436 482 481
f 483 435 440
f 483 480 435
f 430 484 419
f 430 481 484
f 485 410 407
f 485 478 410
f 475 455 437
f 486 411 419
f 486 419 484
f 453 463 441
f 450 456 397
f 414 487 439
f 487 458 439
f 488 445 444
f 488 460 445
f 476 425 408
f 455 489 405
f 442 405 489
f 490 409 411
f 490 411 486
f 483 440 464
f 491 407 406
f 491 485 407
f 479 415 432
f 424 443 492
f 492 443 457
f 493 447 448
f 493 448 466
f 454 404 465
f 490 421 409
f 464 413 494
f 446 494 413
f 491 406 418
f 495 426 425
f 476 495 425
f 496 418 426
f 491 418 496
f 497 433 421
f 490 497 421
f 498 432 433
f 479 432 498
f 495 499 426
f 496 426 499
f 449 500 459
f 449 460 500
f 498 433 501
f 497 501 433
f 452 463 502
f 452 502 466
f 462 451 503
f 451 459 503
f 475 504 455
f 504 489 455
f 469 487 414
f 468 505 453
f 453 505 463
f 483 464 506
f 506 464 494
f 471 424 492
f 507 444 456
f 507 488 444
f 475 472 508
f 475 508 504
f 470 509 450
f 450 509 456
f 510 457 458
f 487 511 458
f 510 458 511
f 483 512 480
f 483 506 512
f 513 465 447
f 513 447 493
f 472 474 514
f 472 514 508
f 442 489 515
f 469 442 515
f 492 457 510
f 477 454 516
f 454 465 516
f 480 517 482
f 480 512 517
f 518 461 462
f 462 503 519
f 518 462 519
f 503 459 500
f 446 520 494
f 471 520 446
f 521 468 467
f 468 522 505
f 521 522 468
f 523 474 473
f 523 514 474
f 524 460 488
f 524 500 460
f 505 502 463
f 525 481 482
f 525 482 517
f 504 526 489
f 515 489 526
f 527 493 466
f 527 466 502
f 528 473 478
f 528 523 473
f 504 508 529
f 504 529 526
f 506 494 530
f 520 530 494
f 531 484 481
f 531 481 525
f 532 476 461
f 532 461 518
f 477 533 470
f 470 533 509
f 469 534 487
f 534 511 487
f 506 535 512
f 506 530 535
f 536 467 479
f 536 521 467
f 509 507 456
f 531 486 484
f 471 492 537
f 537 492 510
f 528 478 485
f 477 516 538
f 477 538 533
f 516 465 513
f 503 500 539
f 519 503 539
f 532 495 476
f 540 490 486
f 531 540 486
f 536 479 498
f 505 541 502
f 522 541 505
f 542 485 491
f 528 485 542
f 469 515 543
f 469 544 534
f 469 543 544
f 508 514 545
f 508 545 529
f 546 488 507
f 546 524 488
f 490 547 497
f 540 548 490
f 490 548 547
f 471 549 520
f 471 537 550
f 471 550 549
f 512 551 517
f 512 535 551
f 552 499 495
f 532 552 495
f 553 498 501
f 536 498 553
f 491 496 554
f 542 491 555
f 491 554 555
f 539 500 524
f 497 556 501
f 497 547 556
f 557 513 493
f 557 493 527
f 553 501 556
f 496 499 558
f 496 558 554
f 552 558 499
f 515 526 559
f 543 515 559
f 541 527 502
f 560 526 529
f 560 559 526
f 520 561 530
f 549 561 520
f 562 535 530
f 562 530 561
f 563 514 523
f 563 545 514
f 564 510 511
f 534 565 511
f 564 511 565
f 509 566 507
f 533 566 509
f 519 539 567
f 568 518 519
f 568 519 567
f 569 525 517
f 569 517 551
f 522 570 541
f 571 522 521
f 571 570 522
f 537 510 564
f 516 513 572
f 538 516 572
f 573 523 528
f 573 563 523
f 574 531 525
f 574 525 569
f 566 546 507
f 534 575 565
f 534 544 575
f 539 524 576
f 567 539 576
f 577 529 545
f 577 560 529
f 578 532 518
f 578 518 568
f 576 524 546
f 541 579 527
f 570 579 541
f 572 513 557
f 580 521 536
f 580 571 521
f 581 551 535
f 581 535 562
f 537 564 582
f 537 582 550
f 574 540 531
f 573 528 542
f 543 559 583
f 543 583 584
f 543 584 544
f 579 557 527
f 585 559 560
f 585 583 559
f 549 586 561
f 549 587 586
f 549 550 587
f 538 588 533
f 533 588 566
f 589 562 561
f 589 561 586
f 590 548 540
f 574 590 540
f 591 542 555
f 573 542 591
f 578 552 532
f 580 536 553
f 538 572 592
f 538 592 588
f 577 545 563
f 548 593 547
f 590 594 548
f 548 594 593
f 581 569 551
f 555 554 595
f 591 555 596
f 555 595 596
f 597 558 552
f 578 597 552
f 598 553 556
f 580 553 598
f 567 576 599
f 568 567 599
f 547 600 556
f 547 593 600
f 554 558 601
f 554 601 595
f 598 556 600
f 570 602 579
f 571 602 570
f 597 601 558
f 582 564 565
f 582 565 575
f 566 603 546
f 588 603 566
f 576 546 604
f 599 576 604
f 605 560 577
f 605 585 560
f 606 563 573
f 577 563 606
f 603 604 546
f 607 574 569
f 581 607 569
f 572 557 608
f 592 572 608
f 579 609 557
f 602 609 579
f 610 581 562
f 610 562 589
f 584 583 585
f 544 611 575
f 544 584 611
f 608 557 609
f 587 589 586
f 568 599 612
f 578 568 612
f 550 582 613
f 550 613 587
f 580 614 571
f 571 614 602
f 574 615 590
f 607 616 574
f 574 616 615
f 573 591 617
f 606 573 618
f 573 617 618
f 605 577 606
f 610 607 581
f 590 619 594
f 590 615 619
f 591 596 620
f 591 620 617
f 599 604 621
f 612 599 621
f 622 597 578
f 578 612 623
f 622 578 623
f 624 580 598
f 580 625 614
f 624 625 580
f 602 626 609
f 614 626 602
f 592 627 588
f 588 627 603
f 628 593 594
f 628 594 619
f 629 596 595
f 629 620 596
f 613 582 575
f 613 575 611
f 584 585 630
f 630 585 605
f 603 631 604
f 631 621 604
f 592 608 632
f 592 632 627
f 633 601 597
f 633 597 622
f 634 598 600
f 634 624 598
f 634 600 593
f 634 593 628
f 587 635 589
f 635 610 589
f 633 595 601
f 633 629 595
f 627 631 603
f 608 609 636
f 636 609 626
f 637 606 618
f 605 606 637
f 611 584 630
f 638 616 607
f 610 638 607
f 632 608 636
f 613 635 587
f 612 621 639
f 623 612 639
f 614 640 626
f 625 640 614
f 618 617 641
f 637 618 642
f 618 641 642
f 616 643 615
f 638 644 616
f 616 644 643
f 630 605 645
f 605 637 646
f 605 646 645
f 635 647 610
f 610 648 638
f 610 647 648
f 631 649 621
f 649 639 621
f 615 650 619
f 615 643 650
f 617 620 651
f 617 651 641
f 636 626 652
f 652 626 640
f 611 630 653
f 654 613 611
f 654 611 653
f 653 630 645
f 655 622 623
f 623 639 656
f 655 623 656
f 657 625 624
f 625 658 640
f 657 658 625
f 613 654 635
f 654 647 635
f 659 628 619
f 659 619 650
f 660 620 629
f 660 651 620
f 627 661 631
f 661 649 631
f 637 642 662
f 637 662 646
f 638 663 644
f 638 648 663
f 632 661 627
f 664 633 622
f 664 622 655
f 632 636 665
f 665 636 652
f 666 624 634
f 666 657 624
f 666 634 628
f 666 628 659
f 664 629 633
f 664 660 629
f 632 665 661
f 649 667 639
f 667 656 639
f 652 640 668
f 668 640 658
f 669 642 641
f 669 662 642
f 670 643 644
f 670 644 663
f 653 645 671
f 645 646 672
f 645 672 671
f 654 673 647
f 647 674 648
f 647 673 674
f 673 654 653
f 673 653 671
f 675 641 651
f 675 669 641
f 676 650 643
f 676 643 670
f 661 677 649
f 677 667 649
f 678 655 656
f 667 678 656
f 665 652 679
f 679 652 668
f 680 658 657
f 668 658 680
f 681 651 660
f 681 675 651
f 646 662 682
f 646 682 672
f 683 659 650
f 683 650 676
f 648 684 663
f 648 674 684
f 665 677 661
f 685 664 655
f 678 685 655
f 686 657 666
f 680 657 686
f 687 660 664
f 687 681 660
f 688 666 659
f 688 659 683
f 685 687 664
f 665 679 677
f 686 666 688
f 674 673 671
f 674 671 672
f 689 662 669
f 689 682 662
f 690 678 667
f 677 690 667
f 691 670 663
f 691 663 684
f 692 668 680
f 679 668 692
f 693 669 675
f 693 689 669
f 694 676 670
f 694 670 691
f 695 685 678
f 690 695 678
f 679 690 677
f 684 674 672
f 684 672 682
f 696 680 686
f 692 680 696
f 679 692 690
f 697 675 681
f 697 693 675
f 698 683 676
f 698 676 694
f 699 687 685
f 695 699 685
f 700 681 687
f 700 697 681
f 701 686 688
f 696 686 701
f 699 700 687
f 702 688 683
f 702 683 698
f 701 688 702
f 691 684 682
f 691 682 689
f 692 695 690
f 692 696 695
f 694 691 689
f 694 689 693
f 696 699 695
f 698 694 693
f 698 693 697
f 696 701 699
f 702 697 700
f 702 698 697
f 701 700 699
f 701 702 700
f 703 704 705
f 704 706 705
f 704 707 706
f 704 708 707
f 703 709 704
f 704 709 708
f 703 705 710
f 705 706 711
f 710 705 712
f 705 711 712
f 707 713 706
f 707 708 714
f 707 715 713
f 707 714 715
f 716 703 710
f 703 717 709
f 716 717 703
f 706 718 711
f 706 713 718
f 710 712 719
f 716 710 720
f 720 710 719
f 709 721 708
f 717 722 709
f 709 722 721
f 712 711 723
f 719 712 724
f 712 723 724
f 708 725 714
f 708 721 725
f 711 718 726
f 711 726 723
f 715 727 713
f 715 714 728
f 715 729 727
f 715 728 729
f 716 730 717
f 731 716 720
f 731 730 716
f 717 732 722
f 730 732 717
f 720 719 733
f 719 724 734
f 733 719 734
f 713 735 718
f 713 727 735
f 736 720 733
f 731 720 736
f 722 737 721
f 722 732 738
f 722 739 737
f 722 738 739
f 724 723 740
f 724 741 734
f 724 740 742
f 724 742 741
f 714 725 743
f 714 743 728
f 721 744 725
f 721 737 744
f 718 745 726
f 718 735 745
f 723 726 746
f 723 746 740
f 730 747 732
f 731 748 730
f 748 747 730
f 733 734 749
f 736 733 750
f 750 733 749
f 734 751 749
f 734 741 751
f 732 747 752
f 732 752 738
f 753 731 736
f 753 748 731
f 754 736 750
f 753 736 754
f 729 755 727
f 729 728 756
f 729 757 755
f 729 756 757
f 758 725 744
f 758 743 725
f 759 746 726
f 759 726 745
f 727 760 735
f 727 755 760
f 739 761 737
f 739 738 762
f 739 763 761
f 739 762 763
f 742 740 764
f 742 765 741
f 742 764 766
f 742 766 765
f 750 749 767
f 749 751 768
f 749 768 767
f 737 769 744
f 737 761 769
f 748 770 747
f 747 771 752
f 747 770 771
f 740 746 772
f 740 772 764
f 728 743 773
f 728 773 756
f 741 774 751
f 741 765 774
f 738 752 775
f 738 775 762
f 735 776 745
f 735 760 776
f 754 750 777
f 777 750 767
f 753 778 748
f 778 770 748
f 779 758 744
f 779 744 769
f 780 746 759
f 780 772 746
f 781 743 758
f 781 773 743
f 782 759 745
f 782 745 776
f 751 783 768
f 751 774 783
f 752 784 775
f 752 771 784
f 785 753 754
f 786 754 777
f 785 754 786
f 785 778 753
f 787 761 763
f 788 763 762
f 787 763 789
f 788 789 763
f 777 767 790
f 767 768 791
f 767 791 790
f 792 766 764
f 793 765 766
f 792 794 766
f 793 766 794
f 795 769 761
f 795 761 787
f 796 764 772
f 796 792 764
f 778 797 770
f 770 798 771
f 770 797 798
f 799 758 779
f 799 781 758
f 800 762 775
f 800 788 762
f 801 774 765
f 801 765 793
f 802 780 759
f 802 759 782
f 779 769 795
f 780 796 772
f 757 803 755
f 757 756 804
f 757 804 805
f 757 805 803
f 755 806 760
f 755 803 806
f 807 777 790
f 786 777 807
f 808 797 778
f 785 808 778
f 756 773 809
f 756 809 804
f 800 775 784
f 768 783 810
f 768 810 791
f 801 783 774
f 760 811 776
f 760 806 811
f 771 812 784
f 771 798 812
f 779 795 813
f 799 779 813
f 814 773 781
f 814 809 773
f 780 815 796
f 802 815 780
f 816 787 789
f 817 795 787
f 817 787 816
f 818 789 788
f 816 789 819
f 818 819 789
f 820 782 776
f 820 776 811
f 821 794 792
f 822 792 796
f 822 821 792
f 823 793 794
f 821 824 794
f 823 794 824
f 813 795 817
f 807 790 825
f 790 791 826
f 790 826 825
f 827 785 786
f 828 786 807
f 827 786 828
f 829 781 799
f 829 814 781
f 808 830 797
f 797 831 798
f 797 830 831
f 827 808 785
f 815 822 796
f 832 788 800
f 832 818 788
f 833 801 793
f 833 793 823
f 834 802 782
f 834 782 820
f 799 813 835
f 813 817 836
f 835 813 836
f 800 784 837
f 837 784 812
f 801 838 783
f 838 810 783
f 829 799 835
f 802 839 815
f 815 840 822
f 839 840 815
f 834 839 802
f 832 800 837
f 841 807 825
f 828 807 841
f 833 838 801
f 842 830 808
f 827 842 808
f 791 810 843
f 791 843 826
f 798 844 812
f 798 831 844
f 816 819 845
f 817 816 846
f 816 845 846
f 845 819 818
f 821 847 824
f 822 848 821
f 821 848 847
f 817 849 836
f 817 846 850
f 817 850 849
f 847 823 824
f 822 840 851
f 822 852 848
f 822 851 852
f 835 836 853
f 829 835 854
f 854 835 853
f 855 818 832
f 845 818 855
f 839 856 840
f 834 857 839
f 857 856 839
f 805 804 858
f 805 859 803
f 805 858 860
f 805 860 859
f 861 833 823
f 847 861 823
f 836 862 853
f 836 849 862
f 804 809 863
f 804 863 858
f 841 825 864
f 825 826 865
f 825 865 864
f 866 827 828
f 867 828 841
f 866 828 867
f 868 809 814
f 868 863 809
f 803 869 806
f 803 859 869
f 837 812 870
f 832 837 871
f 871 837 870
f 830 872 831
f 842 873 830
f 830 873 872
f 840 856 874
f 840 874 851
f 866 842 827
f 806 875 811
f 806 869 875
f 838 876 810
f 833 877 838
f 877 876 838
f 878 814 829
f 878 868 814
f 870 812 844
f 879 820 811
f 879 811 875
f 876 843 810
f 880 834 820
f 880 820 879
f 855 832 881
f 832 871 882
f 832 882 881
f 878 829 854
f 861 883 833
f 833 884 877
f 833 883 884
f 880 857 834
f 854 853 885
f 886 853 862
f 886 885 853
f 850 846 887
f 846 845 888
f 846 888 887
f 850 889 849
f 850 887 890
f 850 890 889
f 857 891 856
f 892 874 856
f 892 856 891
f 867 841 893
f 893 841 864
f 831 894 844
f 831 872 894
f 826 843 895
f 826 895 865
f 852 896 848
f 848 897 847
f 848 896 897
f 888 845 855
f 898 873 842
f 866 898 842
f 852 851 899
f 852 900 896
f 852 899 900
f 897 861 847
f 901 854 885
f 878 854 901
f 849 902 862
f 849 889 902
f 903 891 857
f 880 903 857
f 904 855 881
f 888 855 904
f 871 870 905
f 870 844 906
f 905 870 906
f 851 874 907
f 851 907 899
f 877 908 876
f 876 909 843
f 908 909 876
f 871 905 910
f 871 910 882
f 911 883 861
f 897 911 861
f 877 912 908
f 877 884 912
f 913 866 867
f 914 867 893
f 913 867 914
f 906 844 894
f 893 864 915
f 864 865 916
f 864 916 915
f 909 895 843
f 873 917 872
f 898 918 873
f 873 918 917
f 919 886 862
f 919 862 902
f 913 898 866
f 920 885 886
f 901 885 921
f 920 921 885
f 922 874 892
f 922 907 874
f 923 892 891
f 903 924 891
f 923 891 924
f 904 881 925
f 881 882 926
f 881 926 925
f 883 927 884
f 911 928 883
f 883 928 927
f 890 887 929
f 887 888 930
f 887 930 929
f 890 931 889
f 890 929 932
f 890 932 931
f 900 933 896
f 896 934 897
f 896 933 934
f 900 899 935
f 900 936 933
f 900 935 936
f 888 904 937
f 888 937 930
f 889 938 902
f 889 931 938
f 939 863 868
f 940 868 878
f 940 939 868
f 914 893 941
f 941 893 915
f 858 863 942
f 939 942 863
f 872 943 894
f 872 917 943
f 944 879 875
f 945 880 879
f 945 879 944
f 865 895 946
f 865 946 916
f 897 947 911
f 897 934 947
f 905 906 948
f 905 948 949
f 905 949 910
f 913 950 898
f 950 918 898
f 940 878 901
f 899 907 951
f 899 951 935
f 952 886 919
f 952 920 886
f 869 953 875
f 944 875 953
f 945 903 880
f 908 954 909
f 908 955 954
f 908 912 955
f 860 858 956
f 858 942 956
f 906 894 957
f 948 906 957
f 958 922 892
f 958 892 923
f 909 959 895
f 954 959 909
f 859 960 869
f 869 960 953
f 904 925 961
f 904 961 937
f 882 910 962
f 882 962 926
f 963 901 921
f 940 901 963
f 860 964 859
f 860 956 965
f 860 965 964
f 919 902 938
f 966 924 903
f 945 966 903
f 884 967 912
f 884 927 967
f 911 968 928
f 911 947 968
f 859 964 960
f 922 951 907
f 920 969 921
f 963 921 969
f 970 913 914
f 971 914 941
f 970 914 971
f 957 894 943
f 923 924 972
f 966 972 924
f 959 946 895
f 970 950 913
f 973 925 926
f 973 961 925
f 915 916 974
f 941 915 975
f 915 974 975
f 918 976 917
f 950 977 918
f 918 977 976
f 952 919 978
f 919 938 978
f 979 927 928
f 979 928 968
f 958 980 922
f 922 980 951
f 932 929 981
f 932 982 931
f 932 983 982
f 932 981 983
f 952 984 920
f 920 984 969
f 929 930 985
f 929 985 981
f 958 923 986
f 923 972 986
f 931 987 938
f 931 982 987
f 936 988 933
f 936 935 989
f 936 989 990
f 936 990 988
f 948 957 991
f 948 992 949
f 948 991 992
f 910 949 993
f 910 993 962
f 933 994 934
f 933 988 994
f 954 995 959
f 954 955 996
f 954 996 995
f 935 951 997
f 935 997 989
f 930 937 998
f 930 998 985
f 912 999 955
f 912 967 999
f 952 978 1000
f 952 1000 984
f 958 1001 980
f 958 986 1001
f 978 938 987
f 934 1002 947
f 934 994 1002
f 917 1003 943
f 917 976 1003
f 957 943 1004
f 991 957 1004
f 980 997 951
f 916 946 1005
f 916 1005 974
f 971 941 1006
f 1006 941 975
f 1007 926 962
f 1007 973 926
f 959 1008 946
f 995 1008 959
f 1009 977 950
f 970 1009 950
f 1010 967 927
f 1010 927 979
f 937 961 1011
f 937 1011 998
f 1000 978 1012
f 978 987 1012
f 947 1013 968
f 947 1002 1013
f 1001 1014 980
f 980 1014 997
f 1000 1015 984
f 1000 1012 1016
f 1000 1016 1015
f 1004 943 1003
f 1017 940 963
f 1018 963 969
f 1017 963 1018
f 1008 1005 946
f 1001 986 1019
f 1001 1020 1014
f 1001 1019 1020
f 1017 939 940
f 1021 961 973
f 1021 1011 961
f 1022 966 945
f 1023 972 966
f 1022 1023 966
f 984 1024 969
f 1018 969 1024
f 1022 945 944
f 984 1015 1024
f 986 972 1025
f 1023 1025 972
f 986 1025 1019
f 1026 942 939
f 1017 1026 939
f 1027 970 971
f 1028 971 1006
f 1027 971 1028
f 977 1029 976
f 1009 1030 977
f 977 1030 1029
f 1031 979 968
f 1031 968 1013
f 1032 944 953
f 1022 944 1032
f 975 974 1033
f 1006 975 1034
f 975 1033 1034
f 949 1035 993
f 949 992 1035
f 1027 1009 970
f 955 999 1036
f 955 1036 996
f 1007 962 993
f 991 1004 1037
f 991 1038 992
f 991 1037 1038
f 1039 982 983
f 1040 987 982
f 1039 1040 982
f 956 942 1041
f 1026 1041 942
f 1039 983 981
f 995 1042 1008
f 995 996 1043
f 995 1043 1042
f 1010 999 967
f 960 1044 953
f 1032 953 1044
f 1045 990 989
f 1046 989 997
f 1045 989 1046
f 1047 1012 987
f 1040 1048 987
f 1047 987 1048
f 1045 988 990
f 1049 981 985
f 1039 981 1049
f 1050 997 1014
f 1046 997 1051
f 1050 1051 997
f 1052 994 988
f 1045 1052 988
f 1053 973 1007
f 1053 1021 973
f 965 956 1054
f 956 1041 1054
f 1055 1016 1012
f 1055 1012 1047
f 1056 985 998
f 1049 985 1056
f 964 1057 960
f 960 1057 1044
f 1004 1003 1058
f 1037 1004 1058
f 976 1059 1003
f 976 1029 1059
f 1060 1014 1020
f 1060 1050 1014
f 1061 1010 979
f 1061 979 1031
f 974 1005 1062
f 974 1062 1033
f 1008 1063 1005
f 1042 1063 1008
f 1064 1002 994
f 1052 1064 994
f 1065 1006 1034
f 1028 1006 1065
f 1066 1030 1009
f 1027 1066 1009
f 1055 1015 1016
f 965 1067 964
f 965 1054 1068
f 965 1068 1067
f 1060 1020 1019
f 1069 998 1011
f 1056 998 1069
f 964 1067 1057
f 1070 1013 1002
f 1064 1070 1002
f 1007 993 1071
f 1071 993 1035
f 1072 1024 1015
f 1055 1072 1015
f 1059 1058 1003
f 992 1073 1035
f 992 1038 1073
f 1053 1007 1071
f 1074 1019 1025
f 1060 1019 1074
f 1010 1075 999
f 1075 1036 999
f 1062 1005 1063
f 996 1036 1076
f 996 1076 1043
f 1021 1077 1011
f 1069 1011 1077
f 1061 1075 1010
f 1030 1078 1029
f 1066 1079 1030
f 1030 1079 1078
f 1034 1033 1080
f 1065 1034 1081
f 1034 1080 1081
f 1031 1013 1082
f 1070 1082 1013
f 1037 1058 1083
f 1037 1084 1038
f 1037 1083 1084
f 1018 1024 1085
f 1072 1085 1024
f 1086 1027 1028
f 1087 1028 1065
f 1086 1028 1087
f 1042 1088 1063
f 1042 1043 1089
f 1042 1089 1088
f 1023 1090 1025
f 1074 1025 1090
f 1091 1048 1040
f 1092 1047 1048
f 1092 1048 1093
f 1091 1093 1048
f 1086 1066 1027
f 1094 1040 1039
f 1094 1091 1040
f 1095 1055 1047
f 1095 1047 1092
f 1096 1046 1051
f 1097 1051 1050
f 1097 1098 1051
f 1096 1051 1098
f 1099 1045 1046
f 1099 1046 1096
f 1094 1039 1049
f 1100 1050 1060
f 1100 1097 1050
f 1053 1101 1021
f 1021 1101 1077
f 1099 1052 1045
f 1061 1031 1102
f 1031 1082 1102
f 1017 1018 1103
f 1018 1085 1103
f 1022 1104 1023
f 1023 1104 1090
f 1105 1049 1056
f 1094 1049 1105
f 1095 1072 1055
f 1100 1060 1074
f 1053 1071 1106
f 1053 1106 1101
f 1107 1064 1052
f 1099 1107 1052
f 1029 1108 1059
f 1029 1078 1108
f 1059 1109 1058
f 1109 1083 1058
f 1033 1062 1110
f 1033 1110 1080
f 1062 1063 1111
f 1111 1063 1088
f 1061 1112 1075
f 1061 1102 1112
f 1113 1056 1069
f 1105 1056 1113
f 1071 1035 1114
f 1106 1071 1114
f 1115 1026 1017
f 1017 1103 1116
f 1115 1017 1116
f 1117 1065 1081
f 1087 1065 1117
f 1118 1079 1066
f 1086 1118 1066
f 1119 1022 1032
f 1022 1120 1104
f 1119 1120 1022
f 1121 1070 1064
f 1107 1121 1064
f 1075 1122 1036
f 1112 1122 1075
f 1073 1114 1035
f 1076 1036 1122
f 1123 1069 1077
f 1113 1069 1123
f 1095 1124 1072
f 1124 1085 1072
f 1100 1074 1125
f 1125 1074 1090
f 1038 1126 1073
f 1038 1084 1126
f 1127 1041 1026
f 1127 1026 1115
f 1128 1082 1070
f 1121 1128 1070
f 1129 1032 1044
f 1129 1119 1032
f 1043 1076 1130
f 1043 1130 1089
f 1110 1062 1111
f 1108 1109 1059
f 1101 1131 1077
f 1123 1077 1131
f 1095 1092 1132
f 1095 1132 1124
f 1080 1133 1081
f 1117 1081 1133
f 1078 1079 1134
f 1118 1134 1079
f 1100 1135 1097
f 1100 1125 1135
f 1106 1136 1101
f 1106 1114 1137
f 1106 1137 1136
f 1092 1093 1138
f 1092 1138 1132
f 1102 1082 1139
f 1128 1139 1082
f 1097 1140 1098
f 1097 1135 1140
f 1109 1141 1083
f 1084 1083 1141
f 1127 1054 1041
f 1142 1086 1087
f 1143 1087 1117
f 1142 1087 1143
f 1111 1088 1144
f 1089 1144 1088
f 1112 1102 1145
f 1112 1146 1122
f 1112 1145 1146
f 1101 1136 1131
f 1138 1093 1091
f 1142 1118 1086
f 1129 1044 1057
f 1140 1096 1098
f 1102 1139 1145
f 1147 1091 1094
f 1138 1091 1147
f 1124 1148 1085
f 1103 1085 1148
f 1125 1090 1149
f 1104 1149 1090
f 1150 1099 1096
f 1140 1150 1096
f 1073 1151 1114
f 1151 1137 1114
f 1094 1105 1152
f 1147 1094 1153
f 1094 1152 1153
f 1110 1154 1080
f 1080 1154 1133
f 1076 1122 1155
f 1155 1122 1146
f 1108 1078 1156
f 1078 1134 1156
f 1099 1157 1107
f 1150 1158 1099
f 1099 1158 1157
f 1159 1068 1054
f 1127 1159 1054
f 1110 1111 1160
f 1160 1111 1144
f 1108 1161 1109
f 1161 1141 1109
f 1126 1151 1073
f 1162 1057 1067
f 1129 1057 1162
f 1105 1113 1163
f 1105 1163 1152
f 1124 1132 1164
f 1124 1164 1148
f 1125 1165 1135
f 1125 1149 1165
f 1166 1117 1133
f 1143 1117 1166
f 1167 1134 1118
f 1142 1167 1118
f 1130 1076 1155
f 1107 1168 1121
f 1107 1157 1168
f 1163 1113 1123
f 1168 1128 1121
f 1084 1141 1169
f 1126 1084 1169
f 1103 1148 1170
f 1116 1103 1170
f 1104 1171 1149
f 1120 1171 1104
f 1089 1172 1144
f 1130 1172 1089
f 1173 1136 1137
f 1151 1173 1137
f 1110 1174 1154
f 1110 1160 1175
f 1110 1175 1174
f 1176 1123 1131
f 1163 1123 1176
f 1068 1177 1067
f 1159 1178 1068
f 1068 1178 1177
f 1108 1156 1179
f 1108 1180 1161
f 1108 1179 1180
f 1181 1146 1145
f 1155 1146 1181
f 1154 1182 1133
f 1166 1133 1182
f 1183 1139 1128
f 1168 1183 1128
f 1162 1067 1177
f 1156 1134 1184
f 1167 1184 1134
f 1132 1138 1185
f 1132 1185 1164
f 1135 1186 1140
f 1135 1165 1186
f 1187 1131 1136
f 1187 1188 1131
f 1176 1131 1188
f 1173 1187 1136
f 1189 1145 1139
f 1189 1139 1190
f 1183 1190 1139
f 1191 1142 1143
f 1192 1143 1166
f 1191 1143 1192
f 1181 1145 1189
f 1191 1167 1142
f 1160 1144 1193
f 1172 1193 1144
f 1161 1194 1141
f 1169 1141 1194
f 1126 1195 1151
f 1195 1173 1151
f 1130 1155 1196
f 1196 1155 1181
f 1185 1138 1147
f 1164 1170 1148
f 1186 1150 1140
f 1197 1115 1116
f 1116 1170 1198
f 1197 1116 1198
f 1165 1149 1171
f 1199 1120 1119
f 1120 1200 1171
f 1199 1200 1120
f 1174 1201 1154
f 1154 1201 1182
f 1179 1156 1202
f 1156 1184 1202
f 1160 1193 1203
f 1160 1203 1175
f 1126 1169 1204
f 1126 1205 1195
f 1126 1204 1205
f 1206 1147 1153
f 1185 1147 1206
f 1207 1166 1182
f 1192 1166 1207
f 1161 1208 1194
f 1161 1180 1208
f 1130 1209 1172
f 1130 1196 1210
f 1130 1210 1209
f 1211 1158 1150
f 1186 1211 1150
f 1212 1184 1167
f 1191 1212 1167
f 1153 1152 1213
f 1206 1153 1214
f 1153 1213 1214
f 1158 1215 1157
f 1211 1216 1158
f 1158 1216 1215
f 1217 1187 1173
f 1195 1217 1173
f 1218 1181 1189
f 1196 1181 1218
f 1152 1163 1219
f 1152 1219 1213
f 1220 1127 1115
f 1220 1115 1197
f 1174 1221 1201
f 1174 1175 1222
f 1174 1222 1221
f 1157 1223 1168
f 1157 1215 1223
f 1169 1194 1224
f 1204 1169 1224
f 1225 1119 1129
f 1225 1199 1119
f 1172 1226 1193
f 1209 1226 1172
f 1201 1227 1182
f 1207 1182 1227
f 1179 1202 1228
f 1179 1229 1180
f 1179 1228 1229
f 1219 1163 1176
f 1223 1183 1168
f 1202 1184 1230
f 1212 1230 1184
f 1231 1188 1187
f 1217 1231 1187
f 1232 1176 1188
f 1219 1176 1232
f 1164 1233 1170
f 1185 1233 1164
f 1234 1189 1190
f 1218 1189 1234
f 1235 1190 1183
f 1223 1235 1183
f 1165 1171 1236
f 1186 1165 1236
f 1231 1237 1188
f 1232 1188 1237
f 1238 1191 1192
f 1239 1192 1207
f 1238 1192 1239
f 1195 1240 1217
f 1195 1205 1240
f 1234 1190 1241
f 1235 1241 1190
f 1233 1198 1170
f 1242 1193 1226
f 1242 1203 1193
f 1238 1212 1191
f 1236 1171 1200
f 1196 1218 1243
f 1196 1243 1210
f 1244 1224 1194
f 1244 1194 1208
f 1221 1245 1201
f 1201 1245 1227
f 1220 1159 1127
f 1225 1129 1162
f 1228 1202 1246
f 1202 1230 1246
f 1175 1203 1247
f 1175 1247 1222
f 1248 1207 1227
f 1239 1207 1248
f 1204 1224 1249
f 1204 1250 1205
f 1204 1249 1250
f 1180 1251 1208
f 1180 1229 1251
f 1209 1252 1226
f 1209 1210 1253
f 1209 1253 1252
f 1185 1206 1254
f 1185 1255 1233
f 1185 1254 1255
f 1186 1256 1211
f 1186 1236 1257
f 1186 1257 1256
f 1258 1230 1212
f 1238 1258 1212
f 1217 1259 1231
f 1217 1240 1259
f 1218 1234 1260
f 1218 1260 1243
f 1221 1261 1245
f 1221 1222 1262
f 1221 1262 1261
f 1206 1214 1263
f 1206 1263 1254
f 1264 1226 1252
f 1264 1242 1226
f 1245 1265 1227
f 1248 1227 1265
f 1228 1246 1266
f 1228 1267 1229
f 1228 1266 1267
f 1211 1268 1216
f 1211 1256 1268
f 1269 1249 1224
f 1269 1224 1244
f 1270 1178 1159
f 1220 1270 1159
f 1246 1230 1271
f 1258 1271 1230
f 1272 1162 1177
f 1225 1162 1272
f 1233 1273 1198
f 1274 1197 1198
f 1274 1198 1273
f 1213 1263 1214
f 1236 1200 1275
f 1276 1200 1199
f 1276 1275 1200
f 1231 1277 1237
f 1231 1259 1277
f 1215 1216 1268
f 1234 1241 1278
f 1234 1278 1260
f 1279 1238 1239
f 1280 1239 1248
f 1279 1239 1281
f 1280 1281 1239
f 1219 1282 1213
f 1213 1282 1263
f 1283 1203 1242
f 1283 1247 1203
f 1205 1284 1240
f 1205 1250 1284
f 1223 1215 1285
f 1215 1268 1285
f 1210 1243 1286
f 1210 1286 1253
f 1287 1258 1238
f 1287 1238 1279
f 1255 1273 1233
f 1219 1232 1288
f 1219 1289 1282
f 1219 1288 1289
f 1290 1244 1208
f 1290 1208 1251
f 1257 1236 1275
f 1223 1291 1235
f 1223 1292 1291
f 1223 1285 1292
f 1232 1237 1277
f 1232 1277 1288
f 1261 1293 1245
f 1245 1293 1265
f 1235 1278 1241
f 1235 1291 1278
f 1266 1246 1294
f 1246 1271 1294
f 1222 1247 1295
f 1222 1295 1262
f 1296 1248 1265
f 1296 1280 1248
f 1229 1297 1251
f 1229 1267 1297
f 1253 1264 1252
f 1298 1271 1258
f 1298 1258 1287
f 1250 1249 1269
f 1178 1299 1177
f 1270 1300 1178
f 1178 1300 1299
f 1272 1177 1299
f 1243 1260 1301
f 1243 1301 1286
f 1240 1302 1259
f 1240 1284 1302
f 1261 1303 1293
f 1261 1262 1304
f 1261 1304 1303
f 1305 1220 1197
f 1305 1197 1274
f 1306 1199 1225
f 1306 1276 1199
f 1307 1265 1293
f 1307 1296 1265
f 1308 1242 1264
f 1308 1283 1242
f 1266 1294 1309
f 1266 1310 1267
f 1266 1309 1310
f 1255 1254 1311
f 1255 1312 1273
f 1255 1311 1312
f 1313 1269 1244
f 1313 1244 1290
f 1314 1294 1271
f 1314 1271 1298
f 1257 1315 1256
f 1257 1275 1316
f 1257 1316 1315
f 1317 1279 1281
f 1318 1281 1280
f 1317 1281 1319
f 1318 1319 1281
f 1283 1295 1247
f 1320 1287 1279
f 1320 1279 1317
f 1260 1278 1321
f 1260 1321 1301
f 1259 1322 1277
f 1259 1302 1322
f 1290 1251 1297
f 1253 1323 1264
f 1286 1323 1253
f 1324 1293 1303
f 1324 1307 1293
f 1250 1269 1325
f 1284 1250 1325
f 1254 1263 1326
f 1254 1326 1311
f 1327 1273 1312
f 1327 1274 1273
f 1262 1295 1328
f 1262 1328 1304
f 1256 1329 1268
f 1256 1315 1329
f 1330 1309 1294
f 1330 1294 1314
f 1331 1316 1275
f 1331 1275 1276
f 1282 1326 1263
f 1288 1277 1322
f 1291 1321 1278
f 1332 1280 1296
f 1332 1318 1280
f 1267 1333 1297
f 1267 1310 1333
f 1289 1334 1282
f 1282 1334 1326
f 1323 1308 1264
f 1285 1268 1329
f 1289 1288 1335
f 1288 1322 1335
f 1289 1336 1334
f 1289 1335 1336
f 1305 1270 1220
f 1337 1298 1287
f 1337 1287 1320
f 1292 1338 1291
f 1291 1338 1321
f 1292 1285 1339
f 1292 1340 1338
f 1292 1339 1340
f 1285 1329 1339
f 1306 1225 1272
f 1325 1269 1313
f 1283 1341 1295
f 1308 1341 1283
f 1342 1303 1304
f 1342 1324 1303
f 1286 1343 1323
f 1286 1301 1344
f 1286 1344 1343
f 1284 1325 1345
f 1284 1346 1302
f 1284 1345 1346
f 1347 1310 1309
f 1347 1309 1330
f 1290 1297 1348
f 1313 1290 1348
f 1349 1296 1307
f 1349 1332 1296
f 1350 1314 1298
f 1350 1298 1337
f 1320 1317 1319
f 1320 1319 1318
f 1341 1328 1295
f 1348 1297 1333
f 1351 1312 1311
f 1351 1327 1312
f 1323 1352 1308
f 1343 1352 1323
f 1353 1315 1316
f 1353 1316 1331
f 1325 1313 1354
f 1345 1325 1354
f 1355 1305 1274
f 1355 1274 1327
f 1301 1321 1356
f 1301 1356 1344
f 1305 1357 1270
f 1357 1300 1270
f 1302 1358 1322
f 1302 1346 1358
f 1359 1276 1306
f 1359 1331 1276
f 1308 1360 1341
f 1308 1352 1361
f 1308 1361 1360
f 1362 1272 1299
f 1306 1272 1362
f 1363 1304 1328
f 1363 1342 1304
f 1364 1307 1324
f 1364 1349 1307
f 1365 1330 1314
f 1365 1314 1350
f 1366 1333 1310
f 1366 1310 1347
f 1313 1348 1367
f 1313 1368 1354
f 1313 1367 1368
f 1369 1311 1326
f 1369 1351 1311
f 1337 1320 1318
f 1337 1318 1332
f 1341 1370 1328
f 1360 1370 1341
f 1338 1356 1321
f 1335 1322 1358
f 1371 1329 1315
f 1371 1315 1353
f 1334 1369 1326
f 1348 1333 1372
f 1367 1348 1372
f 1336 1373 1334
f 1334 1373 1369
f 1336 1335 1374
f 1335 1358 1374
f 1336 1375 1373
f 1336 1374 1375
f 1343 1376 1352
f 1343 1344 1377
f 1343 1377 1376
f 1340 1378 1338
f 1338 1378 1356
f 1339 1329 1371
f 1345 1354 1379
f 1345 1380 1346
f 1345 1379 1380
f 1340 1339 1381
f 1340 1381 1382
f 1340 1382 1378
f 1339 1371 1381
f 1383 1347 1330
f 1383 1330 1365
f 1384 1324 1342
f 1384 1364 1324
f 1370 1363 1328
f 1352 1376 1385
f 1352 1385 1361
f 1372 1333 1366
f 1350 1337 1332
f 1350 1332 1349
f 1355 1357 1305
f 1354 1386 1379
f 1354 1368 1386
f 1300 1387 1299
f 1357 1388 1300
f 1300 1388 1387
f 1389 1327 1351
f 1389 1355 1327
f 1360 1390 1370
f 1360 1361 1391
f 1360 1391 1390
f 1362 1299 1387
f 1359 1306 1362
f 1367 1372 1392
f 1367 1393 1368
f 1367 1392 1393
f 1394 1353 1331
f 1394 1331 1359
f 1344 1356 1395
f 1344 1395 1377
f 1346 1396 1358
f 1346 1380 1396
f 1397 1366 1347
f 1397 1347 1383
f 1390 1398 1370
f 1370 1398 1363
f 1399 1351 1369
f 1399 1389 1351
f 1400 1342 1363
f 1400 1384 1342
f 1372 1366 1401
f 1392 1372 1401
f 1365 1350 1349
f 1365 1349 1364
f 1377 1385 1376
f 1373 1399 1369
f 1402 1371 1353
f 1402 1353 1394
f 1361 1385 1403
f 1361 1403 1391
f 1380 1379 1386
f 1375 1404 1373
f 1373 1404 1399
f 1378 1395 1356
f 1374 1358 1396
f 1368 1405 1386
f 1368 1393 1405
f 1381 1371 1402
f 1375 1374 1406
f 1375 1407 1404
f 1375 1406 1407
f 1382 1381 1408
f 1381 1402 1408
f 1374 1396 1406
f 1355 1409 1357
f 1409 1388 1357
f 1390 1391 1410
f 1390 1411 1398
f 1390 1410 1411
f 1382 1412 1378
f 1378 1412 1395
f 1401 1366 1397
f 1382 1408 1413
f 1382 1413 1412
f 1383 1365 1364
f 1389 1409 1355
f 1392 1401 1414
f 1392 1415 1393
f 1392 1414 1415
f 1359 1362 1416
f 1416 1362 1387
f 1398 1400 1363
f 1383 1364 1384
f 1394 1359 1416
f 1377 1417 1385
f 1395 1417 1377
f 1417 1403 1385
f 1399 1418 1389
f 1389 1418 1409
f 1380 1386 1419
f 1396 1380 1419
f 1399 1404 1420
f 1399 1421 1418
f 1399 1420 1421
f 1391 1403 1422
f 1391 1422 1410
f 1414 1401 1423
f 1401 1397 1423
f 1419 1386 1405
f 1397 1383 1384
f 1411 1424 1398
f 1398 1424 1400
f 1393 1425 1405
f 1393 1415 1425
f 1402 1394 1426
f 1394 1416 1426
f 1397 1384 1400
f 1402 1427 1408
f 1402 1426 1428
f 1402 1428 1427
f 1404 1407 1429
f 1404 1429 1420
f 1388 1430 1387
f 1409 1431 1388
f 1388 1431 1430
f 1408 1432 1413
f 1408 1427 1432
f 1416 1387 1430
f 1418 1431 1409
f 1414 1433 1415
f 1414 1423 1434
f 1414 1434 1433
f 1406 1429 1407
f 1417 1435 1403
f 1435 1422 1403
f 1395 1436 1417
f 1436 1435 1417
f 1411 1410 1437
f 1411 1438 1424
f 1411 1437 1438
f 1423 1397 1400
f 1426 1416 1430
f 1412 1413 1432
f 1395 1412 1439
f 1395 1440 1436
f 1395 1439 1441
f 1395 1441 1440
f 1419 1405 1442
f 1442 1405 1425
f 1412 1432 1439
f 1396 1443 1406
f 1406 1443 1429
f 1396 1419 1444
f 1444 1419 1442
f 1421 1445 1418
f 1418 1445 1431
f 1423 1400 1424
f 1396 1444 1446
f 1396 1447 1443
f 1396 1446 1447
f 1421 1420 1448
f 1421 1449 1445
f 1421 1448 1449
f 1428 1426 1450
f 1426 1430 1450
f 1415 1451 1425
f 1415 1433 1451
f 1410 1422 1452
f 1410 1452 1437
f 1428 1453 1427
f 1428 1450 1454
f 1428 1454 1453
f 1434 1423 1424
f 1436 1455 1435
f 1435 1456 1422
f 1455 1456 1435
f 1420 1429 1457
f 1420 1457 1448
f 1434 1424 1438
f 1444 1442 1458
f 1442 1425 1459
f 1458 1442 1459
f 1436 1460 1455
f 1436 1440 1460
f 1431 1450 1430
f 1431 1445 1450
f 1427 1461 1432
f 1427 1453 1461
f 1444 1458 1462
f 1444 1462 1446
f 1459 1425 1451
f 1456 1452 1422
f 1455 1460 1456
f 1443 1457 1429
f 1445 1454 1450
f 1445 1449 1454
f 1439 1432 1461
f 1433 1434 1438
f 1458 1459 1462
f 1441 1439 1463
f 1439 1461 1463
f 1449 1453 1454
f 1449 1448 1453
f 1433 1438 1437
f 1447 1464 1443
f 1443 1464 1457
f 1441 1465 1440
f 1441 1463 1466
f 1441 1466 1465
f 1462 1459 1467
f 1459 1451 1467
f 1460 1468 1456
f 1456 1468 1452
f 1447 1446 1469
f 1447 1470 1464
f 1447 1469 1470
f 1440 1471 1460
f 1440 1465 1471
f 1451 1433 1437
f 1446 1462 1472
f 1446 1472 1469
f 1448 1461 1453
f 1448 1457 1461
f 1460 1471 1468
f 1462 1467 1472
f 1451 1437 1452
f 1467 1451 1452
f 1457 1463 1461
f 1457 1464 1463
f 1467 1452 1468
f 1464 1466 1463
f 1464 1470 1466
f 1472 1467 1468
f 1470 1465 1466
f 1470 1469 1465
f 1472 1468 1471
f 1469 1471 1465
f 1469 1472 1471
