# 
# Wavefront OBJ file
# Created with Kaydara FBX
# 
mtllib c:\users\tjvan\onedrive\documenten\fontys\minor\nx\.mtlmodels\art_cart_of_patella.r.obj

g Art_cart_of_patella_r
v -0.104308 0.441969 0.004827
v -0.104764 0.449027 0.006436
v -0.105063 0.449125 0.006296
v -0.102390 0.456551 0.007295
v -0.104579 0.441952 0.004691
v -0.104290 0.449129 0.005802
v -0.103897 0.448960 0.006023
v -0.102100 0.456362 0.007394
v -0.101633 0.435794 0.003456
v -0.103797 0.442200 0.004304
v -0.103451 0.442222 0.004490
v -0.100924 0.436470 0.002930
v -0.101497 0.435896 0.003557
v -0.102930 0.442418 0.004104
v -0.103415 0.448988 0.005526
v -0.100955 0.455639 0.006376
v -0.101736 0.456174 0.006771
v -0.102556 0.442474 0.004365
v -0.102919 0.448782 0.005827
v -0.100477 0.455299 0.006585
v -0.101324 0.455903 0.006920
v -0.101080 0.436246 0.002782
v -0.100233 0.437087 0.002598
v -0.102364 0.448785 0.005417
v -0.100044 0.454958 0.006066
v -0.102104 0.442597 0.004049
v -0.099402 0.437278 0.002111
v -0.100341 0.436756 0.002308
v -0.101519 0.442763 0.004337
v -0.101777 0.448577 0.005754
v -0.096358 0.461580 0.007581
v -0.096230 0.461118 0.006945
v -0.096560 0.461764 0.007507
v -0.101061 0.448594 0.005356
v -0.100686 0.443004 0.004005
v -0.100386 0.448335 0.005653
v -0.099508 0.454585 0.006278
v -0.095825 0.460412 0.006370
v -0.097270 0.431403 0.002388
v -0.096753 0.431901 0.001491
v -0.097275 0.431317 0.002190
v -0.100162 0.443131 0.004278
v -0.099351 0.437738 0.002525
v -0.096911 0.432089 0.001805
v -0.095912 0.460861 0.006954
v -0.099305 0.443442 0.003953
v -0.098997 0.454202 0.005751
v -0.099598 0.448360 0.005193
v -0.097841 0.453399 0.005406
v -0.097758 0.438048 0.001885
v -0.094832 0.459151 0.005909
v -0.095427 0.460117 0.006378
v -0.098597 0.443566 0.004193
v -0.098419 0.453810 0.005949
v -0.098822 0.447966 0.005356
v -0.097090 0.452866 0.005516
v -0.096143 0.432417 0.000813
v -0.095899 0.433475 0.000665
v -0.096509 0.432752 0.001209
v -0.098236 0.438532 0.002499
v -0.097082 0.439545 0.002501
v -0.094723 0.458386 0.005446
v -0.095336 0.459503 0.005829
v -0.097300 0.448079 0.004686
v -0.092377 0.434105 -0.001512
v -0.094860 0.433066 -0.000089
v -0.097224 0.438773 0.001957
v -0.097172 0.444050 0.003794
v -0.093950 0.457148 0.005070
v -0.096396 0.444295 0.003988
v -0.094759 0.451151 0.004684
v -0.096112 0.447269 0.004594
v -0.093185 0.456547 0.005082
v -0.094122 0.457998 0.005540
v -0.095000 0.434381 0.000201
v -0.095864 0.451975 0.004754
v -0.092745 0.435649 -0.001085
v -0.093585 0.447759 0.003679
v -0.093386 0.450230 0.003916
v -0.093453 0.428138 0.001221
v -0.093389 0.428071 0.000984
v -0.093124 0.428951 0.000683
v -0.095591 0.440509 0.002016
v -0.092242 0.438530 -0.000656
v -0.093425 0.442507 0.002037
v -0.093680 0.444816 0.003134
v -0.095071 0.441884 0.002703
v -0.092672 0.439826 0.000428
v -0.093483 0.436327 -0.000289
v -0.092806 0.429795 0.000131
v -0.092105 0.429522 -0.000423
v -0.092769 0.428776 0.000267
v -0.089499 0.464090 0.006066
v -0.089563 0.463307 0.005561
v -0.093222 0.445487 0.003495
v -0.089278 0.463134 0.005651
v -0.089359 0.463952 0.006183
v -0.092080 0.431832 -0.001035
v -0.092475 0.430734 -0.000436
v -0.092777 0.455119 0.004449
v -0.089530 0.461469 0.004795
v -0.089569 0.462457 0.005149
v -0.089134 0.462271 0.005213
v -0.089416 0.460257 0.004443
v -0.091244 0.430450 -0.001229
v -0.088673 0.459959 0.004395
v -0.088954 0.461236 0.004820
v -0.091760 0.448475 0.003552
v -0.091565 0.453964 0.004210
v -0.088838 0.456620 0.003415
v -0.089191 0.458827 0.004031
v -0.090164 0.445357 0.002051
v -0.090225 0.448415 0.002820
v -0.089484 0.435553 -0.002719
v -0.091635 0.433349 -0.001629
v -0.090138 0.426322 0.000246
v -0.090902 0.442299 0.000686
v -0.090070 0.426277 0.000032
v -0.091073 0.451638 0.003462
v -0.090830 0.443936 0.001978
v -0.090101 0.446517 0.002694
v -0.087626 0.455672 0.003006
v -0.088189 0.457995 0.003753
v -0.090059 0.427366 -0.000192
v -0.089826 0.429487 -0.001182
v -0.089941 0.428402 -0.000672
v -0.089737 0.427250 -0.000541
v -0.088151 0.436113 -0.003680
v -0.088169 0.439069 -0.002789
v -0.088240 0.443866 0.000314
v -0.089319 0.439572 -0.001598
v -0.089824 0.431703 -0.002370
v -0.087472 0.433322 -0.003960
v -0.087977 0.434577 -0.003921
v -0.087530 0.442853 -0.001169
v -0.088914 0.429365 -0.001797
v -0.089359 0.428251 -0.001130
v -0.089658 0.430782 -0.001800
v -0.089437 0.450725 0.003165
v -0.088619 0.433039 -0.003078
v -0.086207 0.452215 0.001751
v -0.088310 0.430674 -0.002607
v -0.086917 0.449742 0.001693
v -0.087924 0.453305 0.002417
v -0.086864 0.446272 0.000368
v -0.086851 0.425847 -0.000538
v -0.087042 0.426922 -0.000810
v -0.086922 0.425972 -0.000381
v -0.088013 0.447252 0.001935
v -0.086837 0.426751 -0.001015
v -0.087141 0.427903 -0.001280
v -0.087277 0.430140 -0.002354
v -0.087226 0.428944 -0.001780
v -0.086749 0.432386 -0.003776
v -0.083922 0.462420 0.002850
v -0.084269 0.461411 0.002568
v -0.083204 0.463897 0.003920
v -0.083585 0.463229 0.003259
v -0.085232 0.436806 -0.004666
v -0.084842 0.435026 -0.004809
v -0.085003 0.448340 0.000232
v -0.085131 0.459050 0.002302
v -0.084687 0.460168 0.002379
v -0.086819 0.427734 -0.001494
v -0.083093 0.463816 0.004196
v -0.084991 0.444526 -0.001718
v -0.085427 0.440404 -0.003469
v -0.083460 0.462376 0.003137
v -0.083268 0.463213 0.003638
v -0.086091 0.456902 0.002265
v -0.083552 0.461285 0.002712
v -0.086742 0.428823 -0.002021
v -0.082968 0.457338 0.001404
v -0.083441 0.459921 0.002253
v -0.086725 0.431835 -0.003209
v -0.086559 0.430040 -0.002612
v -0.084423 0.455719 0.001528
v -0.083737 0.437046 -0.005308
v -0.084004 0.439985 -0.004428
v -0.083486 0.434929 -0.005336
v -0.083618 0.435832 -0.005445
v -0.083353 0.451369 -0.000317
v -0.084342 0.455024 0.000984
v -0.083161 0.447435 -0.001679
v -0.083650 0.443707 -0.003154
v -0.084470 0.429326 -0.001688
v -0.084897 0.431607 -0.002979
v -0.084750 0.430440 -0.002301
v -0.083992 0.427508 -0.000693
v -0.084214 0.428369 -0.001166
v -0.083626 0.426389 -0.000288
v -0.083748 0.426623 -0.000195
v -0.083958 0.428033 -0.001241
v -0.083784 0.427167 -0.000766
v -0.084170 0.428948 -0.001736
v -0.085645 0.431520 -0.003291
v -0.082593 0.433076 -0.004198
v -0.083215 0.434028 -0.004971
v -0.084164 0.433856 -0.004495
v -0.084186 0.431060 -0.002856
v -0.084419 0.430003 -0.002311
v -0.082588 0.453251 0.000158
v -0.081192 0.456599 0.000491
v -0.080731 0.437420 -0.005362
v -0.081146 0.440711 -0.004454
v -0.081479 0.449049 -0.001333
v -0.081250 0.444809 -0.003057
v -0.081962 0.431407 -0.002465
v -0.083022 0.432660 -0.003584
v -0.080086 0.434895 -0.005277
v -0.080410 0.435978 -0.005570
v -0.079973 0.458000 0.000877
v -0.081165 0.429467 -0.001004
v -0.081523 0.430360 -0.001648
v -0.081305 0.430685 -0.002092
v -0.081020 0.429760 -0.001426
v -0.079084 0.460167 0.001755
v -0.079496 0.459208 0.001286
v -0.081659 0.431771 -0.002966
v -0.079598 0.440334 -0.004968
v -0.079539 0.444040 -0.003839
v -0.080849 0.428660 -0.000441
v -0.080540 0.428158 -0.000337
v -0.080768 0.428940 -0.000870
v -0.080367 0.427482 0.000168
v -0.080539 0.427825 0.000132
v -0.079017 0.436312 -0.005922
v -0.079218 0.437473 -0.005733
v -0.078704 0.460859 0.002345
v -0.079381 0.459671 0.001862
v -0.078687 0.434760 -0.005375
v -0.078868 0.435476 -0.005828
v -0.078499 0.461065 0.003050
v -0.078878 0.460457 0.002381
v -0.080300 0.457441 0.001080
v -0.080027 0.458783 0.001483
v -0.079097 0.452660 -0.000818
v -0.078230 0.461443 0.003655
v -0.078530 0.433833 -0.004307
v -0.078324 0.461401 0.003187
v -0.079226 0.447901 -0.002470
v -0.079586 0.433864 -0.004295
v -0.078218 0.453626 -0.000031
v -0.078134 0.432768 -0.002866
v -0.078813 0.432672 -0.002696
v -0.077857 0.431815 -0.001757
v -0.078326 0.431629 -0.001496
v -0.077359 0.444652 -0.003004
v -0.077572 0.448969 -0.001489
v -0.076584 0.455362 0.000676
v -0.077611 0.430097 -0.000045
v -0.077955 0.430811 -0.000698
v -0.076985 0.440744 -0.004350
v -0.077394 0.430259 -0.000347
v -0.077614 0.430988 -0.000970
v -0.077193 0.429566 0.000246
v -0.076395 0.437761 -0.005113
v -0.077249 0.429339 0.000644
v -0.076010 0.436433 -0.005174
v -0.077056 0.428998 0.000767
v -0.076077 0.456327 0.001495
v -0.076794 0.455349 0.000925
v -0.075676 0.434533 -0.003990
v -0.075765 0.435418 -0.004806
v -0.075474 0.440564 -0.004333
v -0.074964 0.437958 -0.005009
v -0.075342 0.433521 -0.002582
v -0.075208 0.447429 -0.001497
v -0.075473 0.443840 -0.003064
v -0.076017 0.456449 0.001245
v -0.075243 0.457823 0.002445
v -0.075619 0.457152 0.001953
v -0.075069 0.451425 -0.000087
v -0.075164 0.457927 0.002235
v -0.075565 0.457275 0.001717
v -0.074395 0.435798 -0.004816
v -0.074620 0.436738 -0.005090
v -0.074837 0.458399 0.003135
v -0.074827 0.432725 -0.001389
v -0.075414 0.434114 -0.003689
v -0.074457 0.435033 -0.004337
v -0.074817 0.458438 0.002899
v -0.074593 0.458721 0.003475
v -0.073778 0.447861 -0.000238
v -0.072900 0.452792 0.001587
v -0.073445 0.451197 0.000912
v -0.074227 0.432921 -0.001698
v -0.074461 0.433634 -0.002692
v -0.074446 0.432110 -0.000519
v -0.073790 0.430960 0.001040
v -0.074124 0.431565 0.000223
v -0.073868 0.431680 -0.000095
v -0.074046 0.432261 -0.000839
v -0.073499 0.440586 -0.003145
v -0.073698 0.443816 -0.001843
v -0.073550 0.430690 0.001247
v -0.073687 0.431124 0.000630
v -0.073059 0.438260 -0.003733
v -0.072418 0.453975 0.002127
v -0.073774 0.453149 0.001005
v -0.072742 0.436875 -0.003740
v -0.072393 0.455029 0.002180
v -0.072943 0.454227 0.001674
v -0.073398 0.434803 -0.003176
v -0.072717 0.435746 -0.003425
v -0.072064 0.454893 0.002592
v -0.072015 0.455655 0.002641
v -0.073070 0.440608 -0.003210
v -0.071931 0.442485 -0.001744
v -0.072264 0.434772 -0.002721
v -0.072255 0.434475 -0.002096
v -0.071832 0.455635 0.003036
v -0.071010 0.445972 0.000210
v -0.069866 0.450623 0.002129
v -0.070535 0.448979 0.001335
v -0.071561 0.437362 -0.003276
v -0.072076 0.438700 -0.003337
v -0.071150 0.433686 -0.000517
v -0.071490 0.434078 -0.001152
v -0.071588 0.456667 0.003761
v -0.071673 0.456288 0.003545
v -0.071735 0.456250 0.003193
v -0.071371 0.434271 -0.001579
v -0.071492 0.435996 -0.002990
v -0.071063 0.433814 -0.000895
v -0.070825 0.433225 0.000179
v -0.070431 0.432825 0.000552
v -0.070746 0.433322 -0.000177
v -0.070172 0.432415 0.001191
v -0.070409 0.432698 0.000991
v -0.070228 0.446084 0.000964
v -0.071601 0.440650 -0.002012
v -0.070853 0.442475 -0.000796
v -0.069901 0.448861 0.001915
v -0.070807 0.435919 -0.002071
v -0.069737 0.440477 -0.001177
v -0.070845 0.438891 -0.002164
v -0.068799 0.452642 0.003712
v -0.069254 0.451816 0.002938
v -0.069481 0.450521 0.002611
v -0.070501 0.437371 -0.002169
v -0.068645 0.452601 0.004130
v -0.069016 0.451716 0.003375
v -0.068500 0.453431 0.004512
v -0.068883 0.438938 -0.001068
v -0.068308 0.444463 0.001214
v -0.068339 0.454278 0.005615
v -0.068392 0.453370 0.004892
v -0.068354 0.454154 0.005240
v -0.069156 0.440718 -0.000406
v -0.068264 0.454666 0.005813
v -0.068756 0.435830 -0.000365
v -0.069420 0.436004 -0.000998
v -0.069633 0.436123 -0.001555
v -0.068344 0.435352 0.000269
v -0.068348 0.435429 -0.000102
v -0.068774 0.435915 -0.000750
v -0.068526 0.438917 -0.000503
v -0.068029 0.444616 0.001735
v -0.067955 0.434974 0.000565
v -0.068043 0.449139 0.002781
v -0.067835 0.447531 0.002407
v -0.067872 0.434865 0.001004
v -0.067627 0.434608 0.001180
v -0.067899 0.449100 0.003163
v -0.067683 0.447518 0.002801
v -0.067107 0.443383 0.001613
v -0.066972 0.449498 0.003790
v -0.066949 0.443480 0.002050
v -0.066235 0.449929 0.005032
v -0.066925 0.449473 0.004117
v -0.067396 0.438585 0.000013
v -0.065567 0.450509 0.005818
v -0.066265 0.449975 0.004730
v -0.066538 0.438273 0.000684
v -0.067227 0.438685 0.000465
v -0.065821 0.442948 0.002679
v -0.065554 0.450431 0.006083
v -0.065691 0.437763 0.001661
v -0.066420 0.438343 0.001088
v -0.064553 0.451231 0.007496
v -0.064964 0.450908 0.006771
v -0.064893 0.450973 0.007170
v -0.066386 0.447087 0.003286
v -0.065349 0.437456 0.001750
v -0.065868 0.437843 0.001247
v -0.066320 0.447089 0.003637
v -0.065967 0.442820 0.002226
v -0.065322 0.446840 0.004118
v -0.065285 0.446820 0.004449
v -0.065028 0.442389 0.002796
v -0.064161 0.442040 0.003387
v -0.064917 0.442457 0.003209
v -0.063947 0.441918 0.003773
v -0.064435 0.446628 0.004964
v -0.063491 0.441726 0.003896
v -0.064393 0.446573 0.005302
v -0.063544 0.446290 0.006206
v -0.063662 0.446391 0.005800
v -0.063108 0.446287 0.006495
usemtl Art_cart_of_patella_rMaterial0
f 1 2 3
f 4 3 2
f 1 3 5
f 6 5 3
f 4 6 3
f 1 7 2
f 7 8 2
f 4 2 8
f 9 1 5
f 6 10 5
f 9 5 10
f 1 11 7
f 1 12 11
f 9 13 1
f 1 13 12
f 6 14 10
f 6 15 14
f 6 16 15
f 4 17 6
f 6 17 16
f 7 11 18
f 7 18 19
f 7 19 20
f 7 21 8
f 7 20 21
f 14 22 10
f 9 10 22
f 23 18 11
f 23 11 12
f 14 15 24
f 25 24 15
f 25 15 16
f 14 24 26
f 14 26 27
f 14 28 22
f 14 27 28
f 29 19 18
f 29 30 19
f 20 19 30
f 23 29 18
f 31 4 8
f 4 32 17
f 31 33 4
f 4 33 32
f 34 26 24
f 34 24 25
f 34 35 26
f 27 26 35
f 31 8 21
f 36 30 29
f 20 30 37
f 36 37 30
f 38 16 17
f 38 17 32
f 9 39 13
f 40 9 22
f 9 41 39
f 40 41 9
f 36 29 42
f 23 43 29
f 42 29 43
f 44 12 13
f 44 13 39
f 20 45 21
f 31 21 45
f 40 22 28
f 46 35 34
f 34 25 47
f 46 34 48
f 34 49 48
f 34 47 49
f 25 16 38
f 23 12 44
f 27 35 50
f 50 35 46
f 20 37 51
f 20 52 45
f 20 51 52
f 36 42 53
f 36 54 37
f 36 53 55
f 56 36 55
f 56 54 36
f 27 57 28
f 40 28 57
f 58 43 23
f 23 44 59
f 58 23 59
f 42 43 60
f 42 61 53
f 42 60 61
f 25 62 47
f 25 38 63
f 25 63 62
f 46 48 64
f 49 64 48
f 51 37 54
f 27 50 65
f 27 66 57
f 27 65 66
f 58 60 43
f 50 46 67
f 46 64 68
f 67 46 68
f 69 49 47
f 69 47 62
f 70 55 53
f 71 56 55
f 70 72 55
f 71 55 72
f 61 70 53
f 73 54 56
f 51 54 74
f 73 74 54
f 61 60 75
f 58 75 60
f 49 76 64
f 69 76 49
f 50 67 77
f 50 77 65
f 68 64 78
f 79 64 76
f 79 78 64
f 80 39 41
f 40 81 41
f 80 41 81
f 82 44 39
f 82 39 80
f 67 68 83
f 67 83 84
f 67 84 77
f 85 83 68
f 68 78 86
f 85 68 86
f 61 87 70
f 61 88 87
f 61 75 89
f 61 89 88
f 73 56 71
f 90 59 44
f 90 44 82
f 91 40 57
f 40 92 81
f 91 92 40
f 31 93 33
f 94 32 33
f 94 33 93
f 90 58 59
f 70 95 72
f 70 87 95
f 96 31 45
f 31 97 93
f 96 97 31
f 38 32 94
f 91 57 66
f 71 72 95
f 96 45 52
f 58 98 75
f 90 99 58
f 58 99 98
f 69 100 76
f 79 76 100
f 38 101 63
f 38 94 102
f 38 102 101
f 85 84 83
f 51 103 52
f 96 52 103
f 104 62 63
f 104 63 101
f 88 95 87
f 89 75 98
f 65 105 66
f 91 66 105
f 51 74 106
f 51 107 103
f 51 106 107
f 71 95 108
f 73 71 109
f 109 71 108
f 104 69 62
f 106 74 73
f 69 110 100
f 104 111 69
f 69 111 110
f 112 86 78
f 85 86 112
f 79 113 78
f 112 78 113
f 88 89 114
f 89 98 115
f 115 114 89
f 116 80 81
f 82 80 116
f 85 117 84
f 85 112 117
f 118 81 92
f 116 81 118
f 79 100 119
f 79 119 113
f 88 120 95
f 121 108 95
f 121 95 120
f 73 109 122
f 106 73 123
f 73 122 123
f 90 82 124
f 82 116 124
f 125 99 90
f 90 124 126
f 125 90 126
f 91 127 92
f 118 92 127
f 110 119 100
f 65 77 128
f 129 77 84
f 129 128 77
f 88 130 120
f 88 114 131
f 88 131 130
f 125 98 99
f 65 132 105
f 65 133 132
f 65 128 134
f 65 134 133
f 135 84 117
f 135 129 84
f 136 91 105
f 91 137 127
f 136 137 91
f 115 98 138
f 125 138 98
f 109 108 139
f 121 139 108
f 115 138 140
f 115 140 114
f 109 139 141
f 109 141 122
f 142 105 132
f 142 136 105
f 143 113 119
f 110 144 119
f 143 119 144
f 145 117 112
f 145 135 117
f 121 120 130
f 143 112 113
f 143 145 112
f 116 118 146
f 116 147 124
f 116 148 147
f 116 146 148
f 121 149 139
f 121 130 149
f 150 118 127
f 150 146 118
f 151 126 124
f 151 124 147
f 151 125 126
f 125 152 138
f 125 153 152
f 151 153 125
f 154 142 132
f 154 132 133
f 150 127 137
f 140 138 152
f 94 155 102
f 156 101 102
f 156 102 155
f 94 93 157
f 94 158 155
f 94 157 158
f 156 104 101
f 157 93 97
f 131 114 159
f 160 114 140
f 160 159 114
f 161 139 149
f 161 141 139
f 104 162 111
f 104 163 162
f 156 163 104
f 136 164 137
f 150 137 164
f 96 165 97
f 157 97 165
f 131 166 130
f 131 159 167
f 131 167 166
f 168 96 103
f 168 169 96
f 96 169 165
f 170 110 111
f 170 111 162
f 168 103 107
f 106 171 107
f 168 107 171
f 142 172 136
f 136 172 164
f 170 144 110
f 106 123 173
f 106 174 171
f 106 173 174
f 140 152 175
f 160 140 175
f 142 176 172
f 154 176 142
f 166 149 130
f 177 123 122
f 177 173 123
f 178 128 129
f 179 129 135
f 178 129 179
f 178 134 128
f 166 161 149
f 180 133 134
f 178 181 134
f 180 134 181
f 182 143 144
f 170 183 144
f 182 144 183
f 177 122 141
f 184 135 145
f 179 135 185
f 184 185 135
f 180 154 133
f 186 152 153
f 187 175 152
f 187 152 188
f 186 188 152
f 186 153 151
f 151 147 189
f 186 151 190
f 151 189 190
f 148 189 147
f 148 146 191
f 148 192 189
f 148 191 192
f 184 145 143
f 184 143 182
f 150 191 146
f 193 150 164
f 193 194 150
f 150 194 191
f 193 164 172
f 195 172 176
f 193 172 195
f 154 196 176
f 154 197 196
f 180 198 154
f 154 198 197
f 187 199 175
f 160 175 199
f 200 176 196
f 200 201 176
f 195 176 201
f 161 202 141
f 177 141 202
f 170 162 203
f 170 203 183
f 200 196 197
f 204 167 159
f 166 167 205
f 204 205 167
f 160 204 159
f 163 203 162
f 166 206 161
f 161 206 202
f 166 207 206
f 166 205 207
f 187 188 208
f 187 209 199
f 187 208 209
f 210 160 199
f 160 211 204
f 210 211 160
f 186 208 188
f 156 212 163
f 163 212 203
f 213 186 190
f 186 214 208
f 213 214 186
f 200 215 201
f 216 195 201
f 216 201 215
f 173 177 202
f 182 183 203
f 217 156 155
f 156 218 212
f 217 218 156
f 213 190 189
f 200 197 219
f 200 219 215
f 216 193 195
f 210 199 209
f 178 179 220
f 179 185 221
f 179 221 220
f 192 222 189
f 213 189 222
f 193 223 194
f 216 224 193
f 193 224 223
f 217 155 158
f 225 191 194
f 225 194 223
f 192 191 225
f 192 226 222
f 192 225 226
f 227 181 178
f 178 220 228
f 227 178 228
f 221 185 184
f 227 180 181
f 157 229 158
f 217 158 229
f 230 168 171
f 230 171 174
f 180 231 198
f 227 232 180
f 180 232 231
f 168 233 169
f 230 234 168
f 168 234 233
f 235 174 173
f 235 236 174
f 230 174 236
f 184 182 237
f 182 203 237
f 238 165 169
f 238 169 233
f 198 239 197
f 198 231 239
f 157 165 238
f 157 240 229
f 157 238 240
f 221 184 241
f 184 237 241
f 242 209 208
f 210 209 242
f 173 202 243
f 235 173 243
f 197 244 219
f 197 239 244
f 206 243 202
f 245 208 214
f 242 208 245
f 246 215 219
f 246 219 244
f 213 247 214
f 245 214 247
f 206 207 248
f 206 249 243
f 206 248 249
f 246 216 215
f 248 207 205
f 250 203 212
f 250 237 203
f 251 213 222
f 213 252 247
f 251 252 213
f 253 205 204
f 248 205 253
f 216 254 224
f 246 255 216
f 216 255 254
f 251 222 226
f 256 223 224
f 256 224 254
f 257 204 211
f 253 204 257
f 225 258 226
f 251 226 258
f 225 223 256
f 259 211 210
f 257 211 259
f 225 260 258
f 225 256 260
f 261 236 235
f 235 243 262
f 261 235 262
f 210 242 263
f 259 210 264
f 210 263 264
f 261 230 236
f 218 250 212
f 221 265 220
f 266 228 220
f 266 220 265
f 242 245 267
f 242 267 263
f 221 241 268
f 221 269 265
f 221 268 269
f 217 270 218
f 218 270 250
f 230 271 234
f 261 272 230
f 230 272 271
f 266 227 228
f 273 241 237
f 273 268 241
f 250 273 237
f 274 217 229
f 217 275 270
f 274 275 217
f 227 276 232
f 266 277 227
f 227 277 276
f 278 233 234
f 278 234 271
f 231 232 276
f 245 247 279
f 245 279 267
f 274 229 240
f 231 280 239
f 231 281 280
f 231 276 281
f 280 244 239
f 238 233 278
f 279 247 252
f 238 282 240
f 274 240 282
f 238 278 283
f 238 283 282
f 243 249 284
f 243 285 262
f 243 284 286
f 243 286 285
f 287 246 244
f 280 288 244
f 287 244 288
f 251 289 252
f 279 252 289
f 287 255 246
f 290 251 258
f 251 291 289
f 290 291 251
f 292 254 255
f 287 293 255
f 292 255 293
f 248 284 249
f 256 254 292
f 248 253 294
f 248 295 284
f 248 294 295
f 290 258 260
f 256 296 260
f 256 292 297
f 256 297 296
f 290 260 296
f 253 257 298
f 253 298 294
f 299 261 262
f 299 262 285
f 270 300 250
f 250 300 273
f 257 259 301
f 257 301 298
f 299 272 261
f 301 259 264
f 270 275 302
f 270 303 300
f 270 302 303
f 304 264 263
f 304 305 264
f 301 264 305
f 304 263 267
f 271 272 306
f 299 306 272
f 307 275 274
f 307 302 275
f 308 265 269
f 308 266 265
f 309 269 268
f 308 269 309
f 280 310 288
f 280 281 310
f 279 311 267
f 304 267 311
f 278 271 312
f 271 306 312
f 273 313 268
f 309 268 313
f 307 274 282
f 273 300 314
f 273 315 313
f 273 314 315
f 266 316 277
f 308 317 266
f 266 317 316
f 279 289 318
f 279 319 311
f 279 318 319
f 278 320 283
f 278 312 321
f 278 321 320
f 320 282 283
f 307 282 322
f 320 322 282
f 276 277 316
f 323 287 288
f 323 288 310
f 276 310 281
f 318 289 291
f 276 324 310
f 276 316 324
f 325 293 287
f 325 287 323
f 290 326 291
f 318 291 326
f 292 293 325
f 292 327 297
f 292 325 328
f 292 328 327
f 329 290 296
f 290 330 326
f 329 330 290
f 331 284 295
f 331 286 284
f 303 314 300
f 332 295 294
f 332 333 295
f 331 295 333
f 329 296 297
f 329 297 327
f 332 294 298
f 285 286 334
f 331 334 286
f 304 335 305
f 304 311 335
f 308 336 317
f 308 309 336
f 301 337 298
f 332 298 337
f 303 302 338
f 303 339 314
f 303 338 339
f 299 285 340
f 285 334 340
f 301 305 335
f 301 341 337
f 301 335 341
f 342 306 299
f 299 340 343
f 342 299 343
f 344 302 307
f 344 338 302
f 319 335 311
f 323 310 324
f 345 316 317
f 345 317 336
f 342 312 306
f 344 307 322
f 346 309 313
f 346 336 309
f 347 321 312
f 342 348 312
f 347 312 348
f 320 349 322
f 344 322 349
f 320 321 347
f 332 337 350
f 332 350 333
f 320 351 349
f 320 347 351
f 345 324 316
f 319 318 352
f 319 353 335
f 319 352 353
f 323 324 354
f 345 354 324
f 325 323 354
f 318 326 355
f 318 355 352
f 325 356 328
f 325 354 357
f 325 357 356
f 346 313 315
f 358 337 341
f 358 350 337
f 359 331 333
f 359 333 350
f 355 326 330
f 358 341 335
f 358 335 353
f 360 327 328
f 360 328 356
f 361 315 314
f 346 315 362
f 361 362 315
f 360 329 327
f 329 363 330
f 355 330 363
f 359 334 331
f 360 364 329
f 329 364 363
f 365 340 334
f 359 366 334
f 365 334 366
f 361 314 339
f 367 345 336
f 367 336 346
f 345 357 354
f 365 343 340
f 358 353 352
f 338 368 339
f 361 339 368
f 369 350 358
f 369 359 350
f 370 342 343
f 365 371 343
f 370 343 371
f 345 372 357
f 367 372 345
f 373 338 344
f 338 374 368
f 373 374 338
f 375 356 357
f 375 357 372
f 358 352 376
f 355 376 352
f 370 348 342
f 377 358 376
f 377 369 358
f 373 344 349
f 347 348 378
f 370 378 348
f 355 363 379
f 355 380 376
f 355 379 380
f 375 360 356
f 381 349 351
f 373 349 382
f 381 382 349
f 347 381 351
f 347 378 383
f 347 383 381
f 367 346 362
f 361 384 362
f 361 368 384
f 369 366 359
f 360 385 364
f 375 386 360
f 360 386 385
f 365 366 387
f 365 387 371
f 364 379 363
f 367 362 384
f 369 387 366
f 364 385 379
f 367 388 372
f 388 375 372
f 380 377 376
f 389 367 384
f 389 388 367
f 374 384 368
f 377 387 369
f 390 371 387
f 390 370 371
f 388 391 375
f 392 386 375
f 392 375 391
f 380 393 377
f 380 379 394
f 380 394 393
f 374 389 384
f 377 390 387
f 395 374 373
f 395 389 374
f 390 378 370
f 395 388 389
f 395 391 388
f 396 385 386
f 396 386 392
f 377 397 390
f 377 393 397
f 396 379 385
f 396 394 379
f 395 373 382
f 390 397 378
f 398 383 378
f 398 378 397
f 392 391 395
f 381 399 382
f 395 382 399
f 398 397 393
f 398 393 394
f 381 383 398
f 381 400 399
f 381 398 400
f 392 395 399
f 396 392 399
f 398 394 396
f 396 399 400
f 398 396 400
