# 
# Wavefront OBJ file
# Created with Kaydara FBX
# 
mtllib c:\users\tjvan\onedrive\documenten\fontys\minor\nx\.mtlmodels\art_cart_of_fibula_proximal_tibiofibular_joint.r.obj

g Art_cart_of_fibula_proximal_tibiofibular_joint_r
v -0.110929 0.410660 -0.036262
v -0.111185 0.410930 -0.036129
v -0.111216 0.411997 -0.037934
v -0.110924 0.411035 -0.036127
v -0.110986 0.413191 -0.039635
v -0.110714 0.412904 -0.039751
v -0.110712 0.413280 -0.039561
v -0.110904 0.411732 -0.038049
v -0.110932 0.412111 -0.037897
v -0.111029 0.409735 -0.034297
v -0.110783 0.409837 -0.034326
v -0.110782 0.409467 -0.034459
v -0.110608 0.408505 -0.032371
v -0.110349 0.414076 -0.041426
v -0.110617 0.414378 -0.041328
v -0.110563 0.411479 -0.038150
v -0.110431 0.409242 -0.034613
v -0.110584 0.410400 -0.036398
v -0.110620 0.410840 -0.036312
v -0.110604 0.411917 -0.038048
v -0.110343 0.412631 -0.039836
v -0.110349 0.408256 -0.032575
v -0.110349 0.408632 -0.032392
v -0.110480 0.409665 -0.034538
v -0.110047 0.408475 -0.032642
v -0.110328 0.413118 -0.039649
v -0.110275 0.414525 -0.041175
v -0.109839 0.414394 -0.041183
v -0.109610 0.406910 -0.030822
v -0.109632 0.407258 -0.030482
v -0.109931 0.407103 -0.030584
v -0.110264 0.411709 -0.038208
v -0.110164 0.409500 -0.034747
v -0.110299 0.410636 -0.036507
v -0.110225 0.415362 -0.043141
v -0.110224 0.411216 -0.038259
v -0.110087 0.409018 -0.034766
v -0.110249 0.410145 -0.036530
v -0.109732 0.408310 -0.032915
v -0.109989 0.408043 -0.032793
v -0.109310 0.407141 -0.030832
v -0.110008 0.413764 -0.041515
v -0.110002 0.412348 -0.039930
v -0.109708 0.413453 -0.041614
v -0.109992 0.414994 -0.043257
v -0.109637 0.414672 -0.043301
v -0.109954 0.412910 -0.039768
v -0.109964 0.410420 -0.036714
v -0.109819 0.409315 -0.034980
v -0.109855 0.415516 -0.042941
v -0.109911 0.411485 -0.038378
v -0.109585 0.412676 -0.039902
v -0.109862 0.410935 -0.038377
v -0.109712 0.408763 -0.034949
v -0.109878 0.409872 -0.036673
v -0.109182 0.415691 -0.044993
v -0.108965 0.416326 -0.044682
v -0.109366 0.416158 -0.045055
v -0.109659 0.407826 -0.033016
v -0.108937 0.406543 -0.031404
v -0.109270 0.406731 -0.031109
v -0.109640 0.412046 -0.040030
v -0.109352 0.413113 -0.041716
v -0.109319 0.414334 -0.043333
v -0.108883 0.415294 -0.044872
v -0.109581 0.410189 -0.036934
v -0.109458 0.414158 -0.041277
v -0.108834 0.405583 -0.029201
v -0.109122 0.405402 -0.029275
v -0.109514 0.411246 -0.038557
v -0.109412 0.410643 -0.038494
v -0.109424 0.409581 -0.036830
v -0.109389 0.415388 -0.042881
v -0.108978 0.415142 -0.042902
v -0.109418 0.408131 -0.033209
v -0.109436 0.409108 -0.035242
v -0.109079 0.407931 -0.033520
v -0.108675 0.406831 -0.031481
v -0.108986 0.406995 -0.031152
v -0.109324 0.407579 -0.033264
v -0.109282 0.408476 -0.035164
v -0.108937 0.407301 -0.033547
v -0.109206 0.411708 -0.040141
v -0.108904 0.412733 -0.041820
v -0.108568 0.405130 -0.029909
v -0.108830 0.405263 -0.029592
v -0.109023 0.410989 -0.038743
v -0.108989 0.408874 -0.035540
v -0.109100 0.409952 -0.037167
v -0.109171 0.412416 -0.040048
v -0.109106 0.413902 -0.041393
v -0.108673 0.413601 -0.041518
v -0.108699 0.407682 -0.033889
v -0.108341 0.406644 -0.031835
v -0.108868 0.410307 -0.038611
v -0.108829 0.408142 -0.035405
v -0.108912 0.409263 -0.036992
v -0.108602 0.416080 -0.044476
v -0.107432 0.415623 -0.046427
v -0.107443 0.415999 -0.046676
v -0.108947 0.414009 -0.043321
v -0.108187 0.405406 -0.029849
v -0.108536 0.405489 -0.029555
v -0.108600 0.406329 -0.031726
v -0.108296 0.414502 -0.044561
v -0.108560 0.414888 -0.044704
v -0.108295 0.412289 -0.041899
v -0.108652 0.411337 -0.040235
v -0.108676 0.412110 -0.040212
v -0.108103 0.413237 -0.041644
v -0.108523 0.403540 -0.028424
v -0.108387 0.410699 -0.038945
v -0.108494 0.408600 -0.035893
v -0.108530 0.409663 -0.037445
v -0.108568 0.414877 -0.042913
v -0.108109 0.414570 -0.042916
v -0.107905 0.405266 -0.030195
v -0.108262 0.415808 -0.044297
v -0.107884 0.415429 -0.044123
v -0.106987 0.416047 -0.045754
v -0.107039 0.416317 -0.046086
v -0.107842 0.404888 -0.030585
v -0.108231 0.405016 -0.030242
v -0.108511 0.406999 -0.033859
v -0.108226 0.406087 -0.032093
v -0.107776 0.405817 -0.032547
v -0.108489 0.413607 -0.043329
v -0.107982 0.414094 -0.044426
v -0.108008 0.409748 -0.038689
v -0.108198 0.408711 -0.037188
v -0.107394 0.414754 -0.045796
v -0.107430 0.415214 -0.046136
v -0.108210 0.403502 -0.028765
v -0.108275 0.403634 -0.028301
v -0.107926 0.403632 -0.028660
v -0.107907 0.406635 -0.034258
v -0.108213 0.407674 -0.035682
v -0.108257 0.407433 -0.034294
v -0.107963 0.406427 -0.032242
v -0.107992 0.411775 -0.040357
v -0.107209 0.412638 -0.041726
v -0.107698 0.410753 -0.040233
v -0.107585 0.403485 -0.029541
v -0.107900 0.403480 -0.029150
v -0.107355 0.414384 -0.045495
v -0.107733 0.401578 -0.028057
v -0.107645 0.401695 -0.028544
v -0.107984 0.401527 -0.028224
v -0.107554 0.403661 -0.029047
v -0.107606 0.409157 -0.037879
v -0.107313 0.410191 -0.039249
v -0.107496 0.407099 -0.034933
v -0.107705 0.408149 -0.036426
v -0.107809 0.413018 -0.043333
v -0.107041 0.404966 -0.030986
v -0.107520 0.405135 -0.030561
v -0.106723 0.412060 -0.043253
v -0.107239 0.411553 -0.041850
v -0.107347 0.401780 -0.028419
v -0.107522 0.406185 -0.032734
v -0.106994 0.415733 -0.045439
v -0.107377 0.404698 -0.031035
v -0.107142 0.406812 -0.035927
v -0.107116 0.406200 -0.034834
v -0.107002 0.407620 -0.037320
v -0.107436 0.414068 -0.042913
v -0.107533 0.415099 -0.043979
v -0.106885 0.414500 -0.043820
v -0.106309 0.409486 -0.040153
v -0.106687 0.408514 -0.038724
v -0.106526 0.399744 -0.028678
v -0.106533 0.400055 -0.029080
v -0.106785 0.399696 -0.028861
v -0.106849 0.411211 -0.040528
v -0.106141 0.411813 -0.041782
v -0.107438 0.413457 -0.044348
v -0.107059 0.413489 -0.044913
v -0.107286 0.413967 -0.045188
v -0.106472 0.404720 -0.031570
v -0.107267 0.401884 -0.028962
v -0.106950 0.402076 -0.029352
v -0.107236 0.403667 -0.029434
v -0.106891 0.403656 -0.029846
v -0.107121 0.405503 -0.033306
v -0.106730 0.414986 -0.044674
v -0.106888 0.415356 -0.045024
v -0.107229 0.403474 -0.029966
v -0.106710 0.403406 -0.030443
v -0.106813 0.404449 -0.031600
v -0.106089 0.404075 -0.032594
v -0.106163 0.408285 -0.038476
v -0.106460 0.406551 -0.035810
v -0.106440 0.407409 -0.037127
v -0.106952 0.402017 -0.028774
v -0.106611 0.402247 -0.029178
v -0.106423 0.414535 -0.044356
v -0.106800 0.405859 -0.033580
v -0.105783 0.404330 -0.032563
v -0.106352 0.412411 -0.044276
v -0.106444 0.413161 -0.042860
v -0.105901 0.413392 -0.043692
v -0.105569 0.413859 -0.046817
v -0.105263 0.414393 -0.047300
v -0.105405 0.414149 -0.047104
v -0.104930 0.414790 -0.046736
v -0.105742 0.413606 -0.046479
v -0.106066 0.403078 -0.030975
v -0.106080 0.400567 -0.029267
v -0.106262 0.400149 -0.028952
v -0.105970 0.412981 -0.045581
v -0.105870 0.413327 -0.046078
v -0.105429 0.410224 -0.040998
v -0.105809 0.409222 -0.039802
v -0.106163 0.400875 -0.029754
v -0.106363 0.400472 -0.029424
v -0.106603 0.402290 -0.029787
v -0.106329 0.402556 -0.030211
v -0.106308 0.402462 -0.029626
v -0.105885 0.410436 -0.041702
v -0.105770 0.405432 -0.035960
v -0.105319 0.406063 -0.037303
v -0.106355 0.405276 -0.034519
v -0.105169 0.403739 -0.034139
v -0.106064 0.412637 -0.045005
v -0.106386 0.403565 -0.030337
v -0.105206 0.414416 -0.045980
v -0.105322 0.414113 -0.045445
v -0.105055 0.414617 -0.046391
v -0.105857 0.400994 -0.029609
v -0.106024 0.402696 -0.030081
v -0.105242 0.410975 -0.041832
v -0.105945 0.405520 -0.034758
v -0.104915 0.403964 -0.034005
v -0.105340 0.398232 -0.030461
v -0.105177 0.398676 -0.030652
v -0.105031 0.411170 -0.043947
v -0.105407 0.410891 -0.043036
v -0.105404 0.413805 -0.044910
v -0.104682 0.407921 -0.040123
v -0.104964 0.406941 -0.038680
v -0.105914 0.401352 -0.030122
v -0.104904 0.398771 -0.030508
v -0.105028 0.398255 -0.030353
v -0.105723 0.403238 -0.030869
v -0.105143 0.405697 -0.036518
v -0.105184 0.405174 -0.035599
v -0.104392 0.407219 -0.039006
v -0.104749 0.406402 -0.037697
v -0.105409 0.412005 -0.042762
v -0.104853 0.412048 -0.043438
v -0.105517 0.413526 -0.044342
v -0.105051 0.399178 -0.030838
v -0.104184 0.403729 -0.035863
v -0.104698 0.411365 -0.044654
v -0.105798 0.402040 -0.030556
v -0.105622 0.401450 -0.029955
v -0.104921 0.400381 -0.031265
v -0.104969 0.399719 -0.031029
v -0.104784 0.399266 -0.030697
v -0.105203 0.402499 -0.032051
v -0.104909 0.401297 -0.031647
v -0.104434 0.411584 -0.045275
v -0.105475 0.402154 -0.030415
v -0.104124 0.409707 -0.042742
v -0.104390 0.409090 -0.041612
v -0.103969 0.411984 -0.046296
v -0.104190 0.411806 -0.045831
v -0.104641 0.400479 -0.031130
v -0.104701 0.399809 -0.030884
v -0.103852 0.409340 -0.041673
v -0.104050 0.408167 -0.040380
v -0.104883 0.402655 -0.031953
v -0.103920 0.402115 -0.033555
v -0.103554 0.404251 -0.037405
v -0.104612 0.401401 -0.031520
v -0.103598 0.412275 -0.046960
v -0.103744 0.412155 -0.046633
v -0.104403 0.412081 -0.044049
v -0.104530 0.410729 -0.042378
v -0.104095 0.412201 -0.044646
v -0.103446 0.412432 -0.047080
v -0.103469 0.397371 -0.032686
v -0.103603 0.412560 -0.045830
v -0.103839 0.412380 -0.045251
v -0.104178 0.401978 -0.033725
v -0.103758 0.400617 -0.033432
v -0.103456 0.397860 -0.032846
v -0.103468 0.404254 -0.036912
v -0.104106 0.403915 -0.035485
v -0.103512 0.398969 -0.033100
v -0.103467 0.398384 -0.032967
v -0.103420 0.412640 -0.046305
v -0.103165 0.397425 -0.032606
v -0.103720 0.409898 -0.043481
v -0.103588 0.399692 -0.033259
v -0.102965 0.406593 -0.040131
v -0.103241 0.405289 -0.038768
v -0.103228 0.398493 -0.032811
v -0.103206 0.397961 -0.032698
v -0.103255 0.412686 -0.046683
v -0.103781 0.410544 -0.042982
v -0.103215 0.410418 -0.043510
v -0.102677 0.405954 -0.039529
v -0.103022 0.404944 -0.038213
v -0.103277 0.399089 -0.032941
v -0.103343 0.409968 -0.044078
v -0.103516 0.400724 -0.033258
v -0.103356 0.399817 -0.033094
v -0.102792 0.408901 -0.042254
v -0.102707 0.410149 -0.045139
v -0.103018 0.410055 -0.044621
v -0.102825 0.410400 -0.044056
v -0.103131 0.408837 -0.042534
v -0.102853 0.408016 -0.041657
v -0.103056 0.401732 -0.035744
v -0.102054 0.402255 -0.037830
v -0.102396 0.410238 -0.045622
v -0.102922 0.401918 -0.035484
v -0.102497 0.410455 -0.044626
v -0.102369 0.407233 -0.040884
v -0.102240 0.400455 -0.035478
v -0.102437 0.400356 -0.035706
v -0.102022 0.410293 -0.046440
v -0.102104 0.410324 -0.046042
v -0.102282 0.408423 -0.043360
v -0.102686 0.408624 -0.042893
v -0.101956 0.398642 -0.035717
v -0.102151 0.399382 -0.035721
v -0.101918 0.410569 -0.045730
v -0.102197 0.410533 -0.045192
v -0.101953 0.399512 -0.035503
v -0.101664 0.397503 -0.035712
v -0.101313 0.397031 -0.035524
v -0.101560 0.396961 -0.035686
v -0.101799 0.398029 -0.035721
v -0.102009 0.402335 -0.037309
v -0.101740 0.410543 -0.046200
v -0.101909 0.410347 -0.046604
v -0.101750 0.398770 -0.035512
v -0.101929 0.408332 -0.043865
v -0.101893 0.405205 -0.040824
v -0.101793 0.403492 -0.039434
v -0.101428 0.397570 -0.035536
v -0.101580 0.398129 -0.035528
v -0.102222 0.408600 -0.042702
v -0.101918 0.407224 -0.042010
v -0.101280 0.400832 -0.038089
v -0.101428 0.404671 -0.040460
v -0.101551 0.403193 -0.038938
v -0.101610 0.408304 -0.044354
v -0.101082 0.400777 -0.037755
v -0.101809 0.408450 -0.043264
v -0.101479 0.406596 -0.041553
v -0.101473 0.408400 -0.043823
v -0.101124 0.408262 -0.045235
v -0.101314 0.408294 -0.044813
v -0.101323 0.406705 -0.042533
v -0.100614 0.399821 -0.038053
v -0.100933 0.406356 -0.042369
v -0.101147 0.408393 -0.044365
v -0.100803 0.399828 -0.038355
v -0.101200 0.408137 -0.045625
v -0.100600 0.402007 -0.039764
v -0.100243 0.398557 -0.038725
v -0.100495 0.399155 -0.038559
v -0.100977 0.406463 -0.043067
v -0.100781 0.408315 -0.045291
v -0.100913 0.408189 -0.045709
v -0.100903 0.408370 -0.044852
v -0.100907 0.402376 -0.040090
v -0.101109 0.404540 -0.041492
v -0.100029 0.398017 -0.038864
v -0.100621 0.406258 -0.042961
v -0.100031 0.398599 -0.038493
v -0.100301 0.399179 -0.038286
v -0.100586 0.406156 -0.043981
v -0.100756 0.406309 -0.043546
v -0.099786 0.398063 -0.038690
v -0.099842 0.397485 -0.038986
v -0.100409 0.406156 -0.043476
v -0.100669 0.404113 -0.041281
v -0.099574 0.397566 -0.038876
v -0.100590 0.404110 -0.042119
v -0.100464 0.406007 -0.044397
v -0.100244 0.401644 -0.040597
v -0.100039 0.405859 -0.044795
v -0.100365 0.405894 -0.044839
v -0.100228 0.403814 -0.042565
v -0.100139 0.405969 -0.044365
v -0.100253 0.406060 -0.043934
v -0.099937 0.403543 -0.042976
v -0.100222 0.403836 -0.041864
v -0.099975 0.401438 -0.040285
v -0.099592 0.401001 -0.040681
v -0.099858 0.403606 -0.042390
v -0.099861 0.401150 -0.040952
v -0.099526 0.402994 -0.043833
v -0.099710 0.403276 -0.043402
v -0.099251 0.403117 -0.043805
v -0.099289 0.400613 -0.041055
v -0.099555 0.400693 -0.041270
v -0.099585 0.403413 -0.042845
v -0.099384 0.403237 -0.043310
v -0.099127 0.399826 -0.041933
v -0.099296 0.400244 -0.041609
v -0.098851 0.399935 -0.041866
v -0.099033 0.400245 -0.041445
usemtl Art_cart_of_fibula_proximal_tibiofibular_joint_rMaterial0
f 1 2 3
f 3 2 4
f 3 5 6
f 3 7 5
f 1 3 8
f 3 4 9
f 3 9 7
f 3 6 8
f 1 10 2
f 11 2 10
f 11 4 2
f 1 12 10
f 13 10 12
f 13 11 10
f 14 6 5
f 7 15 5
f 14 5 15
f 1 8 16
f 17 12 1
f 1 16 18
f 17 1 18
f 19 9 4
f 11 19 4
f 7 9 20
f 19 20 9
f 21 8 6
f 21 16 8
f 13 12 22
f 17 22 12
f 13 23 11
f 11 24 19
f 11 25 24
f 11 23 25
f 21 6 14
f 7 20 26
f 7 27 15
f 7 26 28
f 7 28 27
f 29 13 22
f 13 30 23
f 13 31 30
f 29 31 13
f 19 32 20
f 19 24 33
f 19 34 32
f 19 33 34
f 32 26 20
f 14 15 35
f 35 15 27
f 36 18 16
f 37 17 18
f 36 38 18
f 37 18 38
f 36 16 21
f 39 33 24
f 39 24 25
f 17 40 22
f 37 40 17
f 29 22 40
f 41 25 23
f 41 23 30
f 21 14 42
f 36 21 43
f 21 44 43
f 21 42 44
f 14 35 45
f 14 46 42
f 14 45 46
f 32 47 26
f 28 26 47
f 32 34 48
f 49 34 33
f 49 48 34
f 35 27 50
f 28 50 27
f 32 48 51
f 32 52 47
f 32 51 52
f 53 38 36
f 54 37 38
f 53 55 38
f 54 38 55
f 53 36 43
f 35 56 45
f 35 50 57
f 35 58 56
f 35 57 58
f 39 49 33
f 37 59 40
f 54 59 37
f 41 39 25
f 60 40 59
f 29 40 61
f 60 61 40
f 53 43 62
f 63 43 44
f 63 62 43
f 64 44 42
f 64 42 46
f 65 46 45
f 65 45 56
f 66 51 48
f 49 66 48
f 28 47 67
f 52 67 47
f 68 30 31
f 29 69 31
f 68 31 69
f 66 70 51
f 52 51 70
f 71 55 53
f 54 55 72
f 71 72 55
f 71 53 62
f 28 73 50
f 57 50 73
f 28 67 74
f 28 74 73
f 39 75 49
f 49 76 66
f 49 77 76
f 49 75 77
f 39 78 75
f 41 79 39
f 39 79 78
f 54 80 59
f 54 72 81
f 82 80 54
f 82 54 81
f 63 44 64
f 60 59 80
f 68 41 30
f 71 62 83
f 84 62 63
f 84 83 62
f 64 46 65
f 85 29 61
f 29 86 69
f 85 86 29
f 66 87 70
f 66 76 88
f 66 89 87
f 66 88 89
f 52 70 90
f 52 91 67
f 52 90 92
f 52 92 91
f 90 70 87
f 74 67 91
f 93 76 77
f 93 88 76
f 94 77 75
f 94 75 78
f 95 72 71
f 96 81 72
f 95 97 72
f 96 72 97
f 95 71 83
f 74 98 73
f 57 73 98
f 99 56 58
f 57 100 58
f 99 58 100
f 63 64 101
f 84 63 101
f 41 102 79
f 68 103 41
f 41 103 102
f 60 80 104
f 82 104 80
f 64 105 101
f 64 65 106
f 64 106 105
f 82 81 96
f 85 61 60
f 107 83 84
f 95 83 108
f 107 108 83
f 65 56 99
f 90 87 109
f 90 109 110
f 90 110 92
f 111 69 86
f 111 68 69
f 89 112 87
f 89 88 113
f 89 113 114
f 89 114 112
f 74 91 115
f 116 91 92
f 116 115 91
f 94 93 77
f 109 87 112
f 117 78 79
f 117 79 102
f 113 88 93
f 74 118 98
f 74 115 119
f 74 119 118
f 57 98 120
f 57 121 100
f 57 120 121
f 60 104 122
f 85 60 123
f 60 122 123
f 82 96 124
f 82 125 104
f 126 82 124
f 126 125 82
f 84 101 127
f 128 127 101
f 128 101 105
f 129 97 95
f 96 97 130
f 129 130 97
f 107 84 127
f 65 131 106
f 65 99 132
f 65 132 131
f 129 95 108
f 85 133 86
f 111 86 133
f 111 134 68
f 68 135 103
f 68 134 135
f 96 136 124
f 96 130 137
f 96 137 136
f 113 93 138
f 94 139 93
f 139 138 93
f 117 94 78
f 109 112 140
f 109 141 110
f 109 140 141
f 116 92 110
f 107 142 108
f 129 108 142
f 122 104 125
f 120 98 118
f 143 85 123
f 85 144 133
f 143 144 85
f 119 115 116
f 145 105 106
f 145 106 131
f 111 146 134
f 147 111 133
f 111 148 146
f 147 148 111
f 149 102 103
f 149 103 135
f 113 150 114
f 151 112 114
f 151 114 150
f 126 124 136
f 113 138 152
f 113 153 150
f 113 152 153
f 107 127 154
f 128 154 127
f 140 112 151
f 94 155 139
f 117 156 94
f 94 156 155
f 157 107 154
f 107 158 142
f 157 158 107
f 128 105 145
f 159 135 134
f 159 134 146
f 139 160 138
f 160 152 138
f 119 161 118
f 120 118 161
f 143 123 122
f 122 125 162
f 126 162 125
f 147 133 144
f 130 163 137
f 164 136 137
f 164 137 163
f 129 165 130
f 130 165 163
f 149 117 102
f 116 110 166
f 166 110 141
f 119 116 167
f 116 168 167
f 116 166 168
f 169 129 142
f 129 170 165
f 169 170 129
f 171 146 148
f 172 148 147
f 171 148 173
f 172 173 148
f 140 151 174
f 140 175 141
f 140 174 175
f 128 176 154
f 177 176 128
f 128 145 178
f 177 128 178
f 139 179 160
f 139 155 179
f 159 149 135
f 147 144 180
f 181 144 143
f 181 180 144
f 149 182 117
f 117 183 156
f 117 182 183
f 126 136 184
f 164 184 136
f 119 167 185
f 119 186 161
f 119 185 186
f 143 122 187
f 122 162 188
f 122 188 187
f 157 154 176
f 126 189 162
f 190 126 184
f 190 189 126
f 171 159 146
f 153 191 150
f 153 152 192
f 153 192 193
f 153 193 191
f 169 142 158
f 172 147 180
f 151 150 191
f 181 143 187
f 159 194 149
f 149 195 182
f 149 194 195
f 196 167 168
f 196 185 167
f 155 156 183
f 160 197 152
f 160 198 197
f 160 179 198
f 197 192 152
f 177 199 176
f 157 176 199
f 166 141 200
f 166 201 168
f 166 200 201
f 99 202 132
f 202 131 132
f 99 100 203
f 99 204 202
f 99 203 204
f 205 100 121
f 205 203 100
f 145 131 206
f 202 206 131
f 162 189 207
f 162 207 188
f 159 208 194
f 171 209 159
f 159 209 208
f 145 210 178
f 145 211 210
f 145 206 211
f 151 212 174
f 151 191 213
f 151 213 212
f 177 178 210
f 214 180 181
f 172 180 215
f 214 215 180
f 181 187 216
f 217 187 188
f 217 216 187
f 182 218 183
f 182 195 218
f 157 219 158
f 169 158 219
f 200 141 175
f 164 163 220
f 221 163 165
f 221 220 163
f 164 222 184
f 223 184 222
f 223 190 184
f 164 220 222
f 177 224 199
f 177 210 224
f 155 183 225
f 179 155 225
f 120 205 121
f 221 165 170
f 120 161 226
f 227 161 186
f 227 226 161
f 120 226 228
f 120 228 205
f 229 195 194
f 229 194 208
f 214 181 216
f 230 225 183
f 230 183 218
f 196 168 201
f 227 186 185
f 231 175 174
f 231 174 212
f 190 207 189
f 197 232 192
f 197 233 232
f 197 198 233
f 171 173 234
f 235 173 172
f 235 234 173
f 236 157 199
f 157 237 219
f 236 237 157
f 196 238 185
f 227 185 238
f 217 188 207
f 239 170 169
f 221 170 240
f 239 240 170
f 229 218 195
f 217 241 216
f 214 216 241
f 242 209 171
f 171 234 243
f 242 171 243
f 235 172 215
f 179 225 244
f 198 179 244
f 193 192 245
f 246 192 232
f 246 245 192
f 193 247 191
f 193 245 248
f 193 248 247
f 200 175 249
f 200 250 201
f 200 249 250
f 196 201 251
f 196 251 238
f 230 244 225
f 214 252 215
f 235 215 252
f 253 222 220
f 253 223 222
f 254 199 224
f 254 236 199
f 217 207 255
f 217 255 241
f 230 218 256
f 229 256 218
f 239 169 219
f 242 208 209
f 257 214 241
f 214 258 252
f 257 258 214
f 213 191 247
f 231 249 175
f 229 208 259
f 242 259 208
f 190 260 207
f 223 260 190
f 261 255 207
f 261 207 260
f 262 224 210
f 262 254 224
f 230 263 244
f 230 256 263
f 211 262 210
f 246 232 233
f 261 241 255
f 261 257 241
f 250 251 201
f 219 237 264
f 239 219 265
f 219 264 265
f 211 206 266
f 211 267 262
f 211 266 267
f 268 256 229
f 229 259 269
f 268 229 269
f 213 270 212
f 213 247 271
f 213 271 270
f 198 244 272
f 198 273 233
f 198 272 273
f 274 220 221
f 274 253 220
f 202 266 206
f 275 244 263
f 275 272 244
f 268 263 256
f 202 204 276
f 202 277 266
f 202 276 277
f 278 238 251
f 250 278 251
f 268 275 263
f 231 212 270
f 236 264 237
f 231 279 249
f 250 249 279
f 280 227 238
f 278 280 238
f 281 204 203
f 281 276 204
f 282 234 235
f 282 243 234
f 274 221 240
f 227 283 226
f 280 284 227
f 227 284 283
f 205 281 203
f 231 270 279
f 223 285 260
f 286 261 260
f 286 260 285
f 283 228 226
f 287 235 252
f 282 235 287
f 253 285 223
f 246 288 245
f 246 233 289
f 246 289 288
f 248 245 288
f 252 258 290
f 252 290 291
f 287 252 291
f 205 228 292
f 283 292 228
f 242 243 293
f 282 293 243
f 254 294 236
f 236 294 264
f 295 258 257
f 295 290 258
f 296 240 239
f 274 240 297
f 296 297 240
f 298 259 242
f 298 242 299
f 242 293 299
f 295 257 261
f 295 261 286
f 273 289 233
f 205 300 281
f 205 292 300
f 273 272 275
f 250 279 301
f 250 302 278
f 250 301 302
f 298 269 259
f 248 303 247
f 248 288 304
f 248 304 303
f 268 269 305
f 298 305 269
f 262 306 254
f 254 306 294
f 296 239 265
f 307 275 268
f 307 268 308
f 268 305 308
f 273 275 307
f 309 279 270
f 309 301 279
f 262 267 310
f 262 311 306
f 262 310 311
f 278 312 280
f 278 302 312
f 271 247 303
f 313 265 264
f 313 314 265
f 296 265 314
f 253 315 285
f 286 285 315
f 316 253 274
f 316 315 253
f 317 267 266
f 317 310 267
f 313 264 294
f 273 318 289
f 318 288 289
f 280 319 284
f 280 312 319
f 271 309 270
f 271 320 309
f 271 303 320
f 277 317 266
f 273 307 321
f 273 321 318
f 283 284 319
f 309 302 301
f 295 286 322
f 286 315 322
f 277 276 323
f 277 324 317
f 277 323 324
f 325 294 306
f 313 294 326
f 325 326 294
f 327 290 295
f 295 322 328
f 327 295 328
f 281 323 276
f 283 329 292
f 283 319 330
f 283 330 329
f 316 274 297
f 327 291 290
f 307 308 331
f 307 331 321
f 282 287 332
f 333 293 282
f 282 332 334
f 333 282 334
f 287 291 335
f 327 335 291
f 304 288 336
f 318 336 288
f 287 335 332
f 281 300 337
f 281 338 323
f 281 337 338
f 329 300 292
f 339 308 305
f 339 331 308
f 340 306 311
f 340 325 306
f 339 305 298
f 329 337 300
f 341 297 296
f 316 297 342
f 341 342 297
f 298 299 343
f 339 298 344
f 298 343 344
f 333 299 293
f 333 343 299
f 345 312 302
f 309 345 302
f 313 346 314
f 313 326 346
f 347 322 315
f 347 315 316
f 304 348 303
f 304 336 349
f 304 349 348
f 350 311 310
f 350 340 311
f 341 296 314
f 318 321 351
f 318 351 336
f 341 314 346
f 352 319 312
f 345 352 312
f 309 320 353
f 309 353 345
f 317 350 310
f 348 320 303
f 325 346 326
f 354 330 319
f 352 354 319
f 347 328 322
f 317 324 355
f 317 356 350
f 317 355 356
f 348 353 320
f 340 357 325
f 325 357 346
f 358 321 331
f 358 351 321
f 345 359 352
f 345 353 359
f 329 330 360
f 354 360 330
f 327 328 361
f 347 361 328
f 362 324 323
f 362 355 324
f 347 316 342
f 338 362 323
f 363 349 336
f 363 336 351
f 364 335 327
f 327 361 365
f 364 327 365
f 358 331 339
f 350 366 340
f 340 366 357
f 357 341 346
f 338 337 367
f 338 368 362
f 338 367 368
f 329 367 337
f 329 360 369
f 329 369 367
f 341 370 342
f 357 371 341
f 341 371 370
f 372 332 335
f 372 335 364
f 347 342 370
f 352 373 354
f 352 359 373
f 339 344 374
f 358 339 375
f 339 374 375
f 372 334 332
f 350 356 376
f 350 377 366
f 350 376 377
f 378 344 343
f 378 374 344
f 333 334 379
f 372 379 334
f 348 349 363
f 348 359 353
f 354 380 360
f 354 373 380
f 378 343 333
f 348 381 359
f 348 363 381
f 333 379 382
f 378 333 382
f 357 383 371
f 357 366 383
f 384 356 355
f 384 376 356
f 385 347 370
f 385 361 347
f 362 384 355
f 362 368 386
f 362 387 384
f 362 386 387
f 369 360 380
f 385 370 371
f 385 371 383
f 363 351 358
f 388 366 377
f 388 383 366
f 373 359 381
f 389 368 367
f 389 386 368
f 369 389 367
f 369 380 390
f 369 390 389
f 385 365 361
f 391 377 376
f 391 388 377
f 373 381 392
f 363 392 381
f 363 358 393
f 358 375 394
f 358 394 393
f 373 395 380
f 373 392 395
f 363 393 392
f 388 385 383
f 384 391 376
f 364 365 396
f 385 396 365
f 384 387 397
f 384 398 391
f 384 397 398
f 395 390 380
f 399 387 386
f 399 397 387
f 400 375 374
f 400 394 375
f 372 364 401
f 364 396 401
f 388 396 385
f 389 390 402
f 395 402 390
f 391 396 388
f 395 392 393
f 389 399 386
f 389 402 403
f 389 403 399
f 404 379 372
f 372 401 405
f 404 372 405
f 400 374 378
f 395 393 394
f 391 401 396
f 391 398 405
f 391 405 401
f 395 394 400
f 395 400 402
f 404 382 379
f 378 382 406
f 400 378 407
f 378 406 407
f 404 398 397
f 404 405 398
f 400 403 402
f 404 406 382
f 399 404 397
f 400 407 403
f 399 403 407
f 399 406 404
f 399 407 406
