# 
# Wavefront OBJ file
# Created with Kaydara FBX
# 
mtllib c:\users\tjvan\onedrive\documenten\fontys\minor\nx\.mtlmodels\articularis_genus.r.obj

g Articularis_genus_r
v -0.093361 0.497124 0.004049
v -0.093179 0.500170 0.003874
v -0.093592 0.497309 0.003531
v -0.093048 0.494469 0.003758
v -0.091171 0.498399 0.002850
v -0.093088 0.494696 0.003257
v -0.090896 0.495689 0.002563
v -0.092894 0.499965 0.004428
v -0.093008 0.494242 0.004259
v -0.093130 0.496938 0.004567
v -0.092855 0.503182 0.004279
v -0.090801 0.501247 0.003200
v -0.091502 0.494500 0.005005
v -0.092608 0.499760 0.004981
v -0.091320 0.497232 0.005454
v -0.092249 0.492089 0.003523
v -0.092144 0.492357 0.003043
v -0.090007 0.493344 0.002498
v -0.092346 0.491822 0.004002
v -0.090927 0.492168 0.004591
v -0.092543 0.502993 0.004826
v -0.092216 0.506314 0.004707
v -0.090515 0.504493 0.003589
v -0.092231 0.502804 0.005374
v -0.090739 0.500200 0.005880
v -0.091945 0.506059 0.005180
v -0.090850 0.489932 0.003763
v -0.089572 0.490310 0.004211
v -0.090751 0.490095 0.003337
v -0.091675 0.505804 0.005653
v -0.090316 0.503408 0.006119
v -0.091604 0.509312 0.004893
v -0.090018 0.507662 0.004123
v -0.090607 0.490282 0.002931
v -0.088681 0.491184 0.002655
v -0.091464 0.509008 0.005273
v -0.091325 0.508705 0.005654
v -0.089861 0.506536 0.006189
v -0.089846 0.510587 0.004645
v -0.089284 0.495145 0.005815
v -0.089058 0.492817 0.005207
v -0.089813 0.510131 0.005248
v -0.089005 0.497779 0.006340
v -0.089781 0.509674 0.005852
v -0.088523 0.496659 0.002431
v -0.088645 0.499356 0.002644
v -0.088119 0.490708 0.004667
v -0.087986 0.494091 0.002405
v -0.089525 0.487951 0.003795
v -0.088182 0.488599 0.003963
v -0.088397 0.502373 0.002891
v -0.089424 0.487981 0.003479
v -0.088727 0.500932 0.006633
v -0.089320 0.488055 0.003171
v -0.087666 0.488772 0.003081
v -0.088316 0.505854 0.003266
v -0.088546 0.504314 0.006714
v -0.088257 0.508936 0.003959
v -0.087052 0.491594 0.002612
v -0.088479 0.507551 0.006644
v -0.088516 0.511685 0.004551
v -0.088575 0.511293 0.005309
v -0.088634 0.510900 0.006067
v -0.086923 0.488717 0.004133
v -0.087868 0.488571 0.003493
v -0.086530 0.493361 0.005683
v -0.086544 0.495686 0.006336
v -0.086117 0.491189 0.004991
v -0.086658 0.498436 0.006787
v -0.086701 0.501668 0.007046
v -0.086334 0.489040 0.002994
v -0.085856 0.497375 0.002229
v -0.086015 0.500263 0.002351
v -0.086840 0.511810 0.005254
v -0.086766 0.508167 0.006950
v -0.087003 0.511598 0.006111
v -0.086677 0.512023 0.004396
v -0.086712 0.505003 0.007085
v -0.085611 0.494654 0.002319
v -0.086279 0.509428 0.003928
v -0.086105 0.503419 0.002679
v -0.086158 0.506668 0.003159
v -0.085318 0.489120 0.004207
v -0.085197 0.491977 0.002570
v -0.086559 0.488711 0.003515
v -0.084825 0.489432 0.002906
v -0.084991 0.512440 0.005049
v -0.084951 0.508809 0.007091
v -0.085236 0.512383 0.005956
v -0.084747 0.512496 0.004142
v -0.084762 0.505591 0.007241
v -0.084618 0.502274 0.007218
v -0.084523 0.499096 0.006925
v -0.084254 0.509884 0.003876
v -0.084331 0.496062 0.006401
v -0.085018 0.489044 0.003485
v -0.084140 0.493452 0.005785
v -0.083912 0.491227 0.005096
v -0.084012 0.507229 0.003107
v -0.083848 0.504115 0.002586
v -0.083437 0.489179 0.004134
v -0.083688 0.500987 0.002145
v -0.083511 0.497788 0.001955
v -0.083361 0.494808 0.002125
v -0.083184 0.492007 0.002474
v -0.083223 0.512677 0.004705
v -0.083064 0.509250 0.006932
v -0.083483 0.512661 0.005578
v -0.083047 0.489473 0.002749
v -0.083214 0.489067 0.003355
v -0.082964 0.512692 0.003833
v -0.082714 0.506134 0.007119
v -0.082470 0.502819 0.007123
v -0.082358 0.510134 0.003867
v -0.082107 0.499619 0.006813
v -0.081847 0.496448 0.006194
v -0.081849 0.493509 0.005553
v -0.081947 0.507617 0.003206
v -0.081923 0.491027 0.004886
v -0.081591 0.504546 0.002717
v -0.081711 0.488864 0.003847
v -0.081233 0.501444 0.002244
v -0.081157 0.498068 0.001954
v -0.081286 0.494858 0.002059
v -0.081770 0.512447 0.004388
v -0.081268 0.509279 0.006428
v -0.081987 0.512388 0.005163
v -0.081374 0.491950 0.002360
v -0.081530 0.488822 0.003086
v -0.081553 0.512505 0.003613
v -0.081380 0.489326 0.002530
v -0.080625 0.506429 0.006632
v -0.080867 0.509925 0.003955
v -0.080123 0.503261 0.006640
v -0.079389 0.500039 0.006280
v -0.080036 0.507557 0.003425
v -0.078755 0.496796 0.005603
v -0.080745 0.512024 0.004227
v -0.080081 0.509141 0.005878
v -0.080971 0.511864 0.004883
v -0.079216 0.504691 0.003003
v -0.079799 0.491032 0.004500
v -0.080072 0.488706 0.003538
v -0.079019 0.493736 0.005017
v -0.080520 0.512184 0.003570
v -0.078482 0.501634 0.002493
v -0.079867 0.509609 0.004148
v -0.079954 0.488735 0.002852
v -0.079817 0.489349 0.002418
v -0.079635 0.492072 0.002361
v -0.079014 0.495072 0.002087
v -0.079120 0.506579 0.006038
v -0.078301 0.498358 0.002035
v -0.079750 0.511624 0.004436
v -0.079324 0.509092 0.005587
v -0.079921 0.511612 0.004863
v -0.078650 0.507309 0.003826
v -0.079579 0.511636 0.004009
v -0.078329 0.503605 0.006057
v -0.078997 0.509319 0.004662
v -0.077450 0.500519 0.005780
v -0.078439 0.489030 0.003303
v -0.078215 0.506795 0.005636
v -0.077479 0.504583 0.003579
v -0.078444 0.489146 0.002797
v -0.079160 0.509206 0.005125
v -0.077822 0.507162 0.004598
v -0.078315 0.489779 0.002463
v -0.077524 0.491454 0.004050
v -0.077626 0.492464 0.002465
v -0.076507 0.497351 0.005134
v -0.078019 0.506979 0.005117
v -0.076495 0.501731 0.003210
v -0.077270 0.503998 0.005630
v -0.076350 0.494222 0.004495
v -0.076259 0.495382 0.002276
v -0.076743 0.504455 0.004563
v -0.075739 0.498591 0.002543
v -0.076586 0.489635 0.003207
v -0.076555 0.489923 0.002899
v -0.076371 0.501037 0.005402
v -0.076527 0.490304 0.002614
v -0.077006 0.504227 0.005097
v -0.075291 0.492762 0.002808
v -0.075469 0.492122 0.003709
v -0.075775 0.501617 0.004348
v -0.075367 0.498044 0.004831
v -0.076073 0.501327 0.004875
v -0.075280 0.492464 0.003252
v -0.074699 0.494955 0.004197
v -0.074782 0.498758 0.003722
v -0.075067 0.498404 0.004279
v -0.074137 0.495629 0.003090
v -0.074378 0.495300 0.003643
usemtl Articularis_genus_rMaterial0
f 1 2 3
f 4 1 3
f 2 5 3
f 4 3 6
f 3 7 6
f 3 5 7
f 1 8 2
f 9 10 1
f 10 8 1
f 9 1 4
f 8 11 2
f 11 12 2
f 2 12 5
f 10 9 13
f 10 14 8
f 14 10 15
f 10 13 15
f 16 4 6
f 16 6 17
f 6 18 17
f 6 7 18
f 19 9 4
f 19 4 16
f 9 19 20
f 9 20 13
f 8 21 11
f 14 21 8
f 21 22 11
f 22 23 11
f 11 23 12
f 14 24 21
f 24 14 25
f 14 15 25
f 24 26 21
f 21 26 22
f 27 19 16
f 19 28 20
f 19 27 28
f 29 16 17
f 27 16 29
f 24 30 26
f 30 24 31
f 24 25 31
f 26 32 22
f 32 33 22
f 22 33 23
f 29 17 34
f 17 35 34
f 17 18 35
f 30 36 26
f 26 36 32
f 30 37 36
f 37 30 38
f 30 31 38
f 36 39 32
f 32 39 33
f 15 13 40
f 13 20 41
f 13 41 40
f 37 42 36
f 36 42 39
f 25 15 43
f 15 40 43
f 37 38 44
f 37 44 42
f 5 45 7
f 12 46 5
f 5 46 45
f 20 28 47
f 20 47 41
f 7 48 18
f 7 45 48
f 49 27 29
f 27 50 28
f 27 49 50
f 23 51 12
f 12 51 46
f 52 29 34
f 49 29 52
f 31 25 53
f 25 43 53
f 52 34 54
f 34 55 54
f 34 35 55
f 33 56 23
f 23 56 51
f 38 31 57
f 31 53 57
f 39 58 33
f 33 58 56
f 18 59 35
f 18 48 59
f 44 38 60
f 38 57 60
f 42 61 39
f 39 61 58
f 44 62 42
f 42 62 61
f 44 63 62
f 44 60 63
f 28 50 64
f 28 64 47
f 50 49 52
f 65 52 54
f 50 52 65
f 65 54 55
f 40 41 66
f 43 40 67
f 40 66 67
f 41 47 68
f 41 68 66
f 53 43 69
f 43 67 69
f 57 53 70
f 53 69 70
f 35 71 55
f 35 59 71
f 46 72 45
f 51 73 46
f 46 73 72
f 63 74 62
f 63 60 75
f 63 76 74
f 63 75 76
f 62 77 61
f 62 74 77
f 60 57 78
f 57 70 78
f 45 79 48
f 45 72 79
f 61 80 58
f 61 77 80
f 60 78 75
f 56 81 51
f 51 81 73
f 58 82 56
f 56 82 81
f 58 80 82
f 64 50 65
f 47 64 83
f 47 83 68
f 48 84 59
f 48 79 84
f 85 65 55
f 64 65 85
f 85 55 71
f 59 86 71
f 59 84 86
f 76 87 74
f 76 75 88
f 76 89 87
f 76 88 89
f 83 64 85
f 74 90 77
f 74 87 90
f 75 78 91
f 75 91 88
f 78 70 92
f 78 92 91
f 70 69 93
f 70 93 92
f 77 94 80
f 77 90 94
f 69 67 95
f 69 95 93
f 96 85 71
f 83 85 96
f 67 66 97
f 67 97 95
f 66 68 98
f 66 98 97
f 96 71 86
f 80 99 82
f 80 94 99
f 82 100 81
f 82 99 100
f 68 83 101
f 68 101 98
f 81 102 73
f 81 100 102
f 73 103 72
f 73 102 103
f 72 104 79
f 72 103 104
f 79 105 84
f 79 104 105
f 101 83 96
f 89 106 87
f 89 88 107
f 89 108 106
f 89 107 108
f 84 109 86
f 84 105 109
f 110 96 86
f 101 96 110
f 87 111 90
f 87 106 111
f 88 91 112
f 88 112 107
f 110 86 109
f 91 92 113
f 91 113 112
f 90 114 94
f 90 111 114
f 92 93 115
f 92 115 113
f 93 95 116
f 93 116 115
f 95 97 117
f 95 117 116
f 94 118 99
f 94 114 118
f 97 98 119
f 97 119 117
f 99 120 100
f 99 118 120
f 98 101 121
f 98 121 119
f 100 122 102
f 100 120 122
f 102 123 103
f 102 122 123
f 103 124 104
f 103 123 124
f 108 125 106
f 108 107 126
f 108 127 125
f 108 126 127
f 121 101 110
f 104 128 105
f 104 124 128
f 129 110 109
f 121 110 129
f 106 130 111
f 106 125 130
f 105 131 109
f 105 128 131
f 107 112 132
f 107 132 126
f 129 109 131
f 111 133 114
f 111 130 133
f 112 113 134
f 112 134 132
f 113 115 135
f 113 135 134
f 114 136 118
f 114 133 136
f 115 116 137
f 115 137 135
f 127 138 125
f 127 126 139
f 127 140 138
f 127 139 140
f 118 141 120
f 118 136 141
f 117 119 142
f 119 121 143
f 119 143 142
f 116 117 144
f 117 142 144
f 116 144 137
f 125 145 130
f 125 138 145
f 143 121 129
f 120 146 122
f 120 141 146
f 130 147 133
f 130 145 147
f 148 129 131
f 143 129 148
f 128 149 131
f 148 131 149
f 124 150 128
f 128 150 149
f 123 151 124
f 124 151 150
f 126 132 152
f 126 152 139
f 122 153 123
f 122 146 153
f 123 153 151
f 140 154 138
f 140 139 155
f 140 156 154
f 140 155 156
f 133 157 136
f 133 147 157
f 138 158 145
f 138 154 158
f 132 134 159
f 132 159 152
f 145 160 147
f 145 158 160
f 134 135 161
f 134 161 159
f 162 143 148
f 142 143 162
f 139 163 155
f 139 152 163
f 136 164 141
f 136 157 164
f 165 148 149
f 162 148 165
f 156 166 154
f 156 155 166
f 147 160 167
f 147 167 157
f 150 168 149
f 165 149 168
f 144 142 169
f 142 162 169
f 154 160 158
f 154 166 160
f 151 170 150
f 150 170 168
f 135 137 171
f 135 171 161
f 155 172 166
f 155 163 172
f 141 173 146
f 141 164 173
f 166 167 160
f 166 172 167
f 152 159 174
f 152 174 163
f 137 144 175
f 144 169 175
f 153 176 151
f 151 176 170
f 137 175 171
f 157 167 177
f 157 177 164
f 146 178 153
f 146 173 178
f 179 162 165
f 169 162 179
f 180 165 168
f 179 165 180
f 159 161 181
f 159 181 174
f 170 182 168
f 180 168 182
f 153 178 176
f 163 183 172
f 163 174 183
f 172 177 167
f 172 183 177
f 170 184 182
f 176 184 170
f 169 179 185
f 175 169 185
f 164 177 186
f 164 186 173
f 161 171 187
f 161 187 181
f 174 188 183
f 174 181 188
f 183 186 177
f 183 188 186
f 185 179 180
f 189 180 182
f 185 180 189
f 189 182 184
f 171 175 190
f 171 190 187
f 173 186 191
f 173 191 178
f 181 192 188
f 181 187 192
f 175 185 190
f 178 193 176
f 176 193 184
f 188 191 186
f 188 192 191
f 178 191 193
f 190 185 189
f 187 194 192
f 187 190 194
f 194 189 184
f 194 184 193
f 190 189 194
f 192 193 191
f 192 194 193
