# 
# Wavefront OBJ file
# Created with Kaydara FBX
# 
mtllib c:\users\tjvan\onedrive\documenten\fontys\minor\nx\.mtlmodels\calcaneal_tendon.r.obj

g Calcaneal_tendon_r
v -0.099808 0.201665 -0.074502
v -0.099949 0.201556 -0.075197
v -0.099901 0.201405 -0.075192
v -0.099711 0.201412 -0.076024
v -0.099077 0.202239 -0.074704
v -0.099770 0.201554 -0.075979
v -0.099074 0.201918 -0.076091
v -0.099749 0.201522 -0.074484
v -0.099690 0.200753 -0.075167
v -0.099455 0.200797 -0.076221
v -0.098965 0.202077 -0.074624
v -0.098910 0.201857 -0.077795
v -0.098980 0.202016 -0.077775
v -0.099493 0.200906 -0.074408
v -0.098478 0.201375 -0.074280
v -0.098606 0.201171 -0.077881
v -0.099348 0.199551 -0.075227
v -0.098948 0.199655 -0.076544
v -0.099055 0.199693 -0.074322
v -0.098606 0.198174 -0.074253
v -0.098850 0.198062 -0.075400
v -0.097422 0.202640 -0.075268
v -0.097191 0.202431 -0.077163
v -0.097365 0.198630 -0.074233
v -0.097924 0.200117 -0.074251
v -0.097081 0.202860 -0.079428
v -0.097337 0.202497 -0.075170
v -0.098340 0.198227 -0.076799
v -0.098096 0.199955 -0.078028
v -0.097379 0.198546 -0.078200
v -0.097031 0.202664 -0.079468
v -0.098148 0.196127 -0.075575
v -0.098030 0.196231 -0.074268
v -0.096341 0.200513 -0.079625
v -0.096816 0.201816 -0.079639
v -0.096965 0.201874 -0.074746
v -0.097527 0.196281 -0.077029
v -0.097308 0.193604 -0.074329
v -0.096583 0.193744 -0.077147
v -0.097297 0.193565 -0.075721
v -0.096685 0.196738 -0.074247
v -0.095875 0.194088 -0.074277
v -0.095954 0.199151 -0.074687
v -0.096510 0.200635 -0.074707
v -0.096466 0.196601 -0.078387
v -0.095326 0.203025 -0.075850
v -0.095397 0.203147 -0.075976
v -0.094914 0.197063 -0.079634
v -0.095746 0.199054 -0.079636
v -0.095023 0.202497 -0.075301
v -0.096173 0.190001 -0.075790
v -0.096253 0.190039 -0.074430
v -0.094926 0.190503 -0.074196
v -0.094715 0.203003 -0.078180
v -0.094338 0.203648 -0.080883
v -0.094295 0.203455 -0.080925
v -0.093660 0.201223 -0.081059
v -0.094108 0.202622 -0.081107
v -0.095241 0.197288 -0.074677
v -0.095465 0.194063 -0.078426
v -0.095409 0.190180 -0.077160
v -0.094280 0.190479 -0.078329
v -0.094634 0.201205 -0.075234
v -0.095137 0.185338 -0.074477
v -0.093832 0.185727 -0.074068
v -0.094911 0.185347 -0.075862
v -0.093579 0.197883 -0.075129
v -0.094175 0.199757 -0.075180
v -0.094365 0.194634 -0.074664
v -0.093404 0.191053 -0.074574
v -0.093204 0.199716 -0.080960
v -0.093919 0.194506 -0.079579
v -0.094134 0.185494 -0.077189
v -0.092896 0.203782 -0.076790
v -0.092824 0.203669 -0.076631
v -0.092731 0.195269 -0.075092
v -0.093772 0.180391 -0.075971
v -0.094044 0.180370 -0.074626
v -0.092171 0.201845 -0.075865
v -0.092513 0.203175 -0.075941
v -0.092932 0.180531 -0.077187
v -0.091773 0.195061 -0.080630
v -0.092642 0.197673 -0.080785
v -0.091521 0.203803 -0.079061
v -0.090600 0.204679 -0.081946
v -0.090566 0.204467 -0.081988
v -0.092966 0.185738 -0.078250
v -0.092756 0.190905 -0.079390
v -0.091390 0.198582 -0.075686
v -0.091831 0.200419 -0.075780
v -0.091743 0.180752 -0.078129
v -0.090419 0.203547 -0.082170
v -0.092835 0.180679 -0.074223
v -0.093012 0.175302 -0.074779
v -0.091884 0.175569 -0.074389
v -0.092324 0.186185 -0.074364
v -0.091397 0.181060 -0.074333
v -0.092717 0.175328 -0.076081
v -0.089701 0.200442 -0.081908
v -0.090075 0.202042 -0.082051
v -0.093645 0.159874 -0.069775
v -0.093494 0.159700 -0.071506
v -0.093618 0.159668 -0.069794
v -0.092452 0.159682 -0.068459
v -0.093537 0.159874 -0.071472
v -0.091062 0.159874 -0.071225
v -0.092476 0.159874 -0.068446
v -0.091237 0.159874 -0.069161
v -0.092842 0.157087 -0.072024
v -0.093205 0.156583 -0.070078
v -0.092090 0.156801 -0.068653
v -0.092387 0.159874 -0.073030
v -0.090015 0.159874 -0.073035
v -0.092319 0.159765 -0.073061
v -0.091814 0.191646 -0.074990
v -0.090793 0.186673 -0.074769
v -0.091814 0.154052 -0.070600
v -0.090812 0.154208 -0.069023
v -0.091693 0.170217 -0.076089
v -0.091957 0.170185 -0.074847
v -0.091459 0.186093 -0.079152
v -0.090264 0.181049 -0.078879
v -0.091823 0.175467 -0.077218
v -0.089629 0.204609 -0.077742
v -0.091300 0.158133 -0.073516
v -0.091300 0.154780 -0.072609
v -0.088829 0.156488 -0.074433
v -0.090537 0.175880 -0.074508
v -0.089570 0.204485 -0.077575
v -0.090678 0.191376 -0.080365
v -0.090042 0.192325 -0.075438
v -0.090838 0.196044 -0.075573
v -0.090801 0.170369 -0.077162
v -0.089247 0.198429 -0.081716
v -0.089008 0.202576 -0.076699
v -0.089312 0.203947 -0.076853
v -0.090419 0.159705 -0.067524
v -0.090426 0.159874 -0.067509
v -0.090310 0.157165 -0.067750
v -0.090474 0.159818 -0.073963
v -0.090537 0.159874 -0.073945
v -0.088261 0.159874 -0.074139
v -0.089529 0.158988 -0.074233
v -0.089929 0.181449 -0.074556
v -0.090860 0.170419 -0.074460
v -0.090701 0.165177 -0.074846
v -0.089549 0.165458 -0.074757
v -0.089454 0.150051 -0.071016
v -0.090602 0.175671 -0.078049
v -0.089550 0.170593 -0.077897
v -0.089118 0.187225 -0.075193
v -0.088389 0.199408 -0.076402
v -0.088698 0.201132 -0.076552
v -0.087833 0.191829 -0.081076
v -0.088678 0.195729 -0.081461
v -0.090603 0.165227 -0.075880
v -0.087521 0.204872 -0.079737
v -0.089495 0.186463 -0.079942
v -0.088448 0.181344 -0.079486
v -0.088117 0.196972 -0.076195
v -0.089231 0.150526 -0.072709
v -0.087855 0.159874 -0.070941
v -0.088024 0.159874 -0.068665
v -0.087130 0.159874 -0.072847
v -0.089542 0.170705 -0.074733
v -0.088305 0.165692 -0.074962
v -0.087658 0.192994 -0.075954
v -0.089280 0.154755 -0.068152
v -0.088586 0.150353 -0.069579
v -0.087194 0.151032 -0.068738
v -0.089854 0.165404 -0.076903
v -0.089565 0.160581 -0.075313
v -0.088963 0.160697 -0.074710
v -0.089208 0.160760 -0.076152
v -0.089134 0.175931 -0.078679
v -0.088077 0.170859 -0.078414
v -0.085912 0.205686 -0.082465
v -0.085964 0.205914 -0.082439
v -0.085683 0.204694 -0.082578
v -0.088219 0.159854 -0.074169
v -0.089130 0.176209 -0.074577
v -0.088231 0.170994 -0.074841
v -0.087583 0.159563 -0.074622
v -0.087724 0.159874 -0.066797
v -0.087727 0.159719 -0.066814
v -0.087286 0.155302 -0.067516
v -0.087781 0.157398 -0.067070
v -0.085295 0.203126 -0.082453
v -0.085766 0.159874 -0.074070
v -0.087609 0.176569 -0.074628
v -0.088338 0.181880 -0.074803
v -0.088638 0.165647 -0.077672
v -0.088091 0.160979 -0.077179
v -0.084453 0.199375 -0.082041
v -0.084911 0.201451 -0.082285
v -0.085575 0.205494 -0.078337
v -0.085630 0.205645 -0.078477
v -0.087631 0.157703 -0.074631
v -0.088157 0.157507 -0.074506
v -0.085338 0.204843 -0.077730
v -0.087923 0.160925 -0.074837
v -0.087142 0.165935 -0.075066
v -0.085965 0.181630 -0.079924
v -0.086901 0.186777 -0.080500
v -0.087032 0.146077 -0.073202
v -0.086128 0.146065 -0.070386
v -0.087000 0.145847 -0.071678
v -0.085001 0.203461 -0.077542
v -0.085514 0.151840 -0.068146
v -0.088075 0.151269 -0.074002
v -0.086829 0.146274 -0.074550
v -0.087368 0.176234 -0.079135
v -0.086269 0.171185 -0.078760
v -0.086810 0.171311 -0.074846
v -0.086606 0.182332 -0.075005
v -0.087193 0.187759 -0.075575
v -0.087826 0.156672 -0.076265
v -0.087332 0.151701 -0.075793
v -0.084393 0.200258 -0.077135
v -0.084672 0.201983 -0.077359
v -0.083972 0.196618 -0.081726
v -0.086560 0.161282 -0.077828
v -0.087126 0.165931 -0.078131
v -0.084803 0.146661 -0.069575
v -0.084238 0.197669 -0.076820
v -0.085958 0.176943 -0.074716
v -0.086830 0.161275 -0.075000
v -0.085743 0.159851 -0.074088
v -0.086843 0.158028 -0.074519
v -0.086104 0.146661 -0.076051
v -0.083941 0.159874 -0.070810
v -0.084064 0.159874 -0.068286
v -0.086779 0.157883 -0.074612
v -0.085114 0.158263 -0.074800
v -0.083612 0.159874 -0.072790
v -0.086372 0.156820 -0.077345
v -0.082823 0.187313 -0.080614
v -0.083450 0.192508 -0.081254
v -0.084425 0.157444 -0.066423
v -0.084307 0.155611 -0.066891
v -0.084323 0.159722 -0.066138
v -0.084317 0.159874 -0.066119
v -0.084210 0.188107 -0.075759
v -0.084153 0.193403 -0.076364
v -0.085085 0.158389 -0.074734
v -0.085383 0.159516 -0.074357
v -0.082866 0.206139 -0.079899
v -0.084958 0.176591 -0.079413
v -0.085863 0.151987 -0.077005
v -0.084060 0.182703 -0.075144
v -0.086210 0.161538 -0.075078
v -0.085898 0.166298 -0.075106
v -0.085384 0.162901 -0.075173
v -0.082728 0.159874 -0.074095
v -0.085347 0.166262 -0.078424
v -0.084986 0.141548 -0.072547
v -0.085489 0.141483 -0.073716
v -0.084068 0.141752 -0.071536
v -0.085426 0.141568 -0.075100
v -0.085218 0.171668 -0.074827
v -0.084525 0.166659 -0.075081
v -0.084609 0.156986 -0.077867
v -0.084847 0.161567 -0.078140
v -0.084045 0.152219 -0.077625
v -0.083203 0.166645 -0.078573
v -0.084001 0.171571 -0.078960
v -0.084632 0.159833 -0.075132
v -0.084802 0.147063 -0.077030
v -0.084630 0.141825 -0.076299
v -0.083429 0.142145 -0.077170
v -0.083187 0.172036 -0.074778
v -0.083696 0.177328 -0.074784
v -0.081641 0.177018 -0.079404
v -0.082228 0.182116 -0.079971
v -0.080694 0.207220 -0.082113
v -0.080642 0.206980 -0.082079
v -0.084094 0.162255 -0.075218
v -0.083083 0.147508 -0.077658
v -0.082724 0.159849 -0.074125
v -0.080046 0.204341 -0.081730
v -0.080412 0.205941 -0.081932
v -0.081196 0.206930 -0.078342
v -0.081154 0.206741 -0.078233
v -0.083189 0.147345 -0.069053
v -0.083390 0.152627 -0.067574
v -0.081268 0.148068 -0.068555
v -0.084473 0.136875 -0.075201
v -0.084713 0.136834 -0.073914
v -0.083625 0.137015 -0.076269
v -0.082748 0.158197 -0.074982
v -0.082663 0.159475 -0.074581
v -0.080971 0.205923 -0.077763
v -0.082811 0.166966 -0.074977
v -0.082977 0.159671 -0.075197
v -0.083090 0.158135 -0.075144
v -0.080610 0.204434 -0.077586
v -0.084223 0.136888 -0.072680
v -0.079637 0.202539 -0.081498
v -0.082786 0.161859 -0.078277
v -0.082876 0.142052 -0.070753
v -0.081392 0.142424 -0.070119
v -0.081857 0.142541 -0.077763
v -0.084141 0.131863 -0.073915
v -0.083626 0.131904 -0.072737
v -0.079951 0.200900 -0.077074
v -0.080282 0.202855 -0.077372
v -0.082440 0.137206 -0.077104
v -0.082441 0.157248 -0.078068
v -0.083772 0.131924 -0.075108
v -0.078742 0.197655 -0.080900
v -0.079205 0.200454 -0.081233
v -0.080248 0.157409 -0.065717
v -0.079800 0.153050 -0.066908
v -0.080114 0.155440 -0.066253
v -0.080206 0.159720 -0.065428
v -0.079297 0.159874 -0.067893
v -0.080203 0.159874 -0.065409
v -0.079913 0.193601 -0.076088
v -0.079783 0.198102 -0.076663
v -0.083262 0.136988 -0.071678
v -0.082694 0.131990 -0.071791
v -0.080201 0.188261 -0.075477
v -0.083167 0.126912 -0.075173
v -0.083573 0.126830 -0.074005
v -0.082742 0.162495 -0.075176
v -0.081991 0.137138 -0.070944
v -0.079186 0.159874 -0.070656
v -0.080282 0.177587 -0.074613
v -0.080348 0.182896 -0.074927
v -0.081875 0.152583 -0.077930
v -0.080995 0.171989 -0.078932
v -0.079265 0.159874 -0.072667
v -0.082899 0.132045 -0.076137
v -0.082300 0.127033 -0.076194
v -0.080069 0.172259 -0.074550
v -0.083038 0.126849 -0.072871
v -0.078912 0.159874 -0.074004
v -0.083067 0.121812 -0.074234
v -0.082547 0.121798 -0.073123
v -0.078219 0.193370 -0.080457
v -0.078578 0.148680 -0.068003
v -0.081402 0.132116 -0.071080
v -0.079706 0.162241 -0.078209
v -0.080276 0.167075 -0.078517
v -0.079478 0.142863 -0.069544
v -0.082651 0.121912 -0.075402
v -0.080936 0.148002 -0.077993
v -0.080770 0.157810 -0.075072
v -0.082645 0.116776 -0.074585
v -0.082208 0.116906 -0.075749
v -0.082168 0.126912 -0.071897
v -0.081702 0.121823 -0.072146
v -0.080501 0.162493 -0.074963
v -0.080754 0.159376 -0.075058
v -0.081746 0.132203 -0.076965
v -0.081152 0.127174 -0.076998
v -0.080468 0.137375 -0.070394
v -0.077976 0.207487 -0.078979
v -0.077251 0.182773 -0.079274
v -0.077729 0.188077 -0.079821
v -0.080091 0.166984 -0.074702
v -0.079184 0.157635 -0.078014
v -0.079227 0.157727 -0.074752
v -0.078923 0.159813 -0.074043
v -0.079086 0.158897 -0.074626
v -0.082159 0.116723 -0.073486
v -0.082209 0.111692 -0.075136
v -0.081766 0.111610 -0.073986
v -0.081797 0.122041 -0.076406
v -0.081360 0.117052 -0.076723
v -0.080903 0.137486 -0.077716
v -0.080237 0.132405 -0.077598
v -0.078587 0.153143 -0.077951
v -0.081872 0.111835 -0.076286
v -0.081399 0.106746 -0.076838
v -0.081713 0.106567 -0.075638
v -0.080876 0.111599 -0.073134
v -0.081298 0.116712 -0.072541
v -0.080512 0.121887 -0.071434
v -0.080931 0.127015 -0.071198
v -0.080553 0.106961 -0.077794
v -0.081030 0.111999 -0.077235
v -0.077938 0.148638 -0.078050
v -0.079848 0.143040 -0.078096
v -0.078998 0.137838 -0.078082
v -0.080230 0.117203 -0.077490
v -0.080640 0.122189 -0.077190
v -0.081299 0.106466 -0.074492
v -0.079666 0.127352 -0.077576
v -0.080942 0.101696 -0.076253
v -0.080572 0.101568 -0.075174
v -0.076242 0.172550 -0.078489
v -0.076764 0.177603 -0.078865
v -0.081193 0.066765 -0.082905
v -0.081495 0.061203 -0.082810
v -0.081490 0.066494 -0.081729
v -0.080988 0.060873 -0.081724
v -0.081220 0.061604 -0.083989
v -0.081013 0.056607 -0.085627
v -0.081202 0.056049 -0.084382
v -0.081410 0.071656 -0.080893
v -0.081101 0.071447 -0.079768
v -0.081103 0.066232 -0.080644
v -0.081189 0.077015 -0.081272
v -0.081381 0.076806 -0.080081
v -0.081128 0.071874 -0.082073
v -0.080738 0.101891 -0.077391
v -0.079438 0.127132 -0.070717
v -0.079861 0.132272 -0.070598
v -0.081254 0.081912 -0.079202
v -0.080928 0.081701 -0.078073
v -0.081039 0.076604 -0.078965
v -0.080371 0.106455 -0.073628
v -0.079768 0.101501 -0.074224
v -0.079687 0.111631 -0.072486
v -0.080110 0.116745 -0.071860
v -0.081059 0.082113 -0.080399
v -0.081103 0.086954 -0.078390
v -0.080856 0.087119 -0.079598
v -0.080515 0.067008 -0.083981
v -0.080295 0.057145 -0.086743
v -0.080512 0.061987 -0.085060
v -0.080335 0.051277 -0.086674
v -0.080520 0.055669 -0.083346
v -0.079436 0.051048 -0.085573
v -0.080510 0.077198 -0.082351
v -0.076564 0.208146 -0.076874
v -0.076614 0.208390 -0.076917
v -0.076348 0.207092 -0.076688
v -0.080466 0.072076 -0.083158
v -0.080136 0.071298 -0.079046
v -0.079906 0.060674 -0.080994
v -0.080083 0.066053 -0.079965
v -0.080751 0.086755 -0.077200
v -0.080772 0.091911 -0.077691
v -0.080371 0.091727 -0.076582
v -0.080166 0.087257 -0.080653
v -0.080358 0.082273 -0.081473
v -0.080033 0.081534 -0.077282
v -0.080135 0.076457 -0.078195
v -0.079457 0.107165 -0.078488
v -0.079889 0.112168 -0.077958
v -0.080206 0.052117 -0.087994
v -0.076031 0.205470 -0.076397
v -0.080713 0.097085 -0.078169
v -0.080860 0.096895 -0.076958
v -0.079051 0.121967 -0.070915
v -0.077247 0.143617 -0.078199
v -0.078391 0.132649 -0.077981
v -0.080656 0.092108 -0.078890
v -0.080409 0.096730 -0.075801
v -0.078444 0.159010 -0.074725
v -0.079562 0.091580 -0.075683
v -0.079834 0.086572 -0.076349
v -0.077428 0.161789 -0.074420
v -0.080051 0.097261 -0.079205
v -0.080073 0.102089 -0.078362
v -0.075329 0.208378 -0.080520
v -0.080054 0.092274 -0.079936
v -0.078817 0.117358 -0.078041
v -0.079189 0.122353 -0.077721
v -0.075279 0.208142 -0.080483
v -0.075692 0.203706 -0.076041
v -0.079439 0.055435 -0.082584
v -0.078257 0.051104 -0.084825
v -0.079461 0.067233 -0.084900
v -0.079159 0.057602 -0.087669
v -0.079432 0.062333 -0.085972
v -0.079403 0.077348 -0.083258
v -0.079417 0.072256 -0.084077
v -0.077977 0.132457 -0.070248
v -0.078554 0.137665 -0.069981
v -0.079560 0.096612 -0.074887
v -0.075067 0.207121 -0.080326
v -0.078641 0.101509 -0.073609
v -0.079195 0.106521 -0.073026
v -0.079159 0.087377 -0.081529
v -0.079309 0.082400 -0.082370
v -0.075693 0.177668 -0.073387
v -0.075573 0.183103 -0.073631
v -0.078098 0.048439 -0.090355
v -0.077964 0.048215 -0.089163
v -0.079463 0.052754 -0.088942
v -0.075670 0.167571 -0.078135
v -0.075689 0.159719 -0.064811
v -0.075472 0.155609 -0.065559
v -0.075674 0.157402 -0.065054
v -0.077617 0.048856 -0.091296
v -0.075690 0.159874 -0.064794
v -0.074157 0.159874 -0.067511
v -0.074973 0.193930 -0.074478
v -0.075279 0.188523 -0.074016
v -0.078910 0.071214 -0.078653
v -0.078830 0.081420 -0.076821
v -0.078948 0.076367 -0.077749
v -0.078237 0.111707 -0.072056
v -0.078653 0.116812 -0.071406
v -0.075039 0.153221 -0.066230
v -0.078602 0.060536 -0.080542
v -0.078798 0.065957 -0.079567
v -0.078975 0.097392 -0.079916
v -0.079063 0.102263 -0.079094
v -0.076304 0.166477 -0.073941
v -0.075783 0.172100 -0.073497
v -0.079025 0.092403 -0.080733
v -0.074315 0.203586 -0.079844
v -0.074711 0.205460 -0.080094
v -0.075005 0.198565 -0.075046
v -0.075345 0.201669 -0.075608
v -0.078092 0.107355 -0.078971
v -0.078485 0.112336 -0.078474
v -0.077602 0.127264 -0.070370
v -0.076663 0.138214 -0.078233
v -0.078422 0.091486 -0.075090
v -0.078581 0.086434 -0.075884
v -0.075099 0.162663 -0.077838
v -0.077501 0.122523 -0.078090
v -0.077903 0.127548 -0.077947
v -0.078398 0.096547 -0.074274
v -0.077181 0.143242 -0.069026
v -0.076336 0.137930 -0.069622
v -0.078290 0.053251 -0.089775
v -0.076559 0.049233 -0.091790
v -0.078047 0.067429 -0.085649
v -0.077183 0.048422 -0.088400
v -0.078150 0.055280 -0.081916
v -0.077014 0.051276 -0.084238
v -0.077743 0.057940 -0.088270
v -0.078022 0.062603 -0.086658
v -0.077977 0.077461 -0.083957
v -0.078021 0.072410 -0.084827
v -0.077845 0.087485 -0.082204
v -0.077922 0.082494 -0.083056
v -0.074099 0.159874 -0.070422
v -0.074628 0.159874 -0.072389
v -0.074876 0.159874 -0.073712
v -0.075264 0.157688 -0.074097
v -0.075042 0.158422 -0.074198
v -0.075694 0.156897 -0.074428
v -0.077260 0.101556 -0.073269
v -0.077773 0.106626 -0.072673
v -0.077175 0.117510 -0.078446
v -0.074653 0.157993 -0.077664
v -0.073914 0.201531 -0.079583
v -0.074900 0.159737 -0.073736
v -0.077667 0.097498 -0.080443
v -0.077754 0.102414 -0.079614
v -0.076912 0.116902 -0.071123
v -0.077257 0.122064 -0.070573
v -0.077736 0.092500 -0.081326
v -0.077505 0.071165 -0.078334
v -0.077435 0.081335 -0.076484
v -0.077532 0.076297 -0.077401
v -0.077080 0.060413 -0.080128
v -0.077364 0.065899 -0.079225
v -0.073082 0.194084 -0.078927
v -0.073515 0.198696 -0.079291
v -0.076556 0.111810 -0.071825
v -0.077022 0.091426 -0.074701
v -0.077207 0.086357 -0.075572
v -0.074259 0.143441 -0.068610
v -0.074666 0.148802 -0.067465
v -0.074319 0.153550 -0.077668
v -0.075834 0.132623 -0.069955
v -0.076507 0.107525 -0.079316
v -0.076873 0.112503 -0.078856
v -0.073963 0.160956 -0.073774
v -0.077028 0.096518 -0.073915
v -0.075820 0.127744 -0.078119
v -0.076200 0.132904 -0.078139
v -0.076723 0.053552 -0.090265
v -0.075214 0.049464 -0.091900
v -0.076171 0.048742 -0.087880
v -0.076656 0.055195 -0.081313
v -0.075703 0.051656 -0.083611
v -0.076077 0.045680 -0.090803
v -0.076536 0.045508 -0.091498
v -0.076282 0.067588 -0.086230
v -0.076058 0.058170 -0.088628
v -0.076242 0.062797 -0.087194
v -0.076272 0.077550 -0.084452
v -0.076266 0.072531 -0.085359
v -0.073182 0.208638 -0.076977
v -0.075443 0.046000 -0.090206
v -0.074135 0.149103 -0.077816
v -0.076241 0.087555 -0.082609
v -0.076295 0.082564 -0.083526
v -0.075491 0.122673 -0.078286
v -0.075712 0.101620 -0.073094
v -0.076141 0.106730 -0.072480
v -0.076100 0.097574 -0.080766
v -0.076195 0.102541 -0.079942
v -0.076146 0.092557 -0.081691
v -0.072684 0.188706 -0.078488
v -0.076023 0.045494 -0.092155
v -0.075191 0.122161 -0.070384
v -0.075506 0.127382 -0.070116
v -0.075834 0.071141 -0.078057
v -0.075793 0.081264 -0.076260
v -0.075862 0.076242 -0.077142
v -0.075238 0.060321 -0.079697
v -0.075650 0.065886 -0.078922
v -0.074917 0.116996 -0.070993
v -0.074040 0.144041 -0.078034
v -0.071930 0.178100 -0.077971
v -0.072285 0.183343 -0.078181
v -0.075471 0.091394 -0.074489
v -0.075627 0.086291 -0.075369
v -0.074665 0.046374 -0.089672
v -0.074985 0.112647 -0.079100
v -0.075223 0.117649 -0.078685
v -0.073850 0.138082 -0.069331
v -0.077140 0.035403 -0.092716
v -0.076418 0.037040 -0.091960
v -0.076976 0.037111 -0.092611
v -0.076212 0.036961 -0.092838
v -0.076475 0.035120 -0.092333
v -0.076405 0.034401 -0.092462
v -0.076439 0.035115 -0.092974
v -0.075187 0.049140 -0.087389
v -0.075472 0.096517 -0.073719
v -0.076697 0.039803 -0.092219
v -0.076062 0.039828 -0.091446
v -0.074707 0.107659 -0.079547
v -0.075135 0.053715 -0.090349
v -0.073686 0.049445 -0.091579
v -0.076430 0.042703 -0.091885
v -0.075699 0.042430 -0.092264
v -0.075877 0.039575 -0.092509
v -0.074122 0.051922 -0.083031
v -0.074737 0.055096 -0.080744
v -0.073695 0.133101 -0.078074
v -0.073913 0.138498 -0.078129
v -0.071955 0.209390 -0.074951
v -0.072012 0.209672 -0.075019
v -0.074971 0.045414 -0.092132
v -0.074401 0.106830 -0.072434
v -0.074684 0.111910 -0.071752
v -0.071710 0.208168 -0.074658
v -0.075415 0.036947 -0.091524
v -0.075585 0.034915 -0.092049
v -0.075385 0.034789 -0.092931
v -0.075156 0.036753 -0.092794
v -0.075854 0.042867 -0.091131
v -0.075065 0.039836 -0.090905
v -0.075564 0.033875 -0.092346
v -0.074354 0.077626 -0.084745
v -0.074425 0.087604 -0.082816
v -0.074434 0.082627 -0.083775
v -0.072823 0.165771 -0.072900
v -0.074276 0.067699 -0.086567
v -0.074292 0.072629 -0.085693
v -0.074157 0.058304 -0.088798
v -0.074310 0.062902 -0.087495
v -0.071385 0.167834 -0.077484
v -0.071666 0.172928 -0.077718
v -0.074382 0.097633 -0.080915
v -0.074453 0.102640 -0.080124
v -0.073510 0.127884 -0.078081
v -0.073709 0.046835 -0.089195
v -0.074395 0.092600 -0.081841
v -0.074070 0.101698 -0.073026
v -0.074594 0.042085 -0.092065
v -0.071342 0.206464 -0.074258
v -0.074799 0.039236 -0.092386
v -0.074976 0.043051 -0.090590
v -0.073947 0.071152 -0.077891
v -0.074014 0.081223 -0.076205
v -0.074009 0.076222 -0.077047
v -0.073270 0.127432 -0.069944
v -0.073516 0.132714 -0.069726
v -0.072377 0.171778 -0.072096
v -0.074251 0.049628 -0.086756
v -0.071800 0.156904 -0.073660
v -0.072075 0.156116 -0.074139
v -0.071388 0.159724 -0.064578
v -0.071185 0.157474 -0.064798
v -0.069554 0.159874 -0.067287
v -0.071402 0.159874 -0.064564
v -0.071597 0.183022 -0.071748
v -0.072049 0.177496 -0.071734
v -0.070532 0.202418 -0.073365
v -0.070918 0.204552 -0.073813
v -0.071055 0.155744 -0.065325
v -0.071045 0.162787 -0.077288
v -0.073222 0.060321 -0.079380
v -0.073754 0.065926 -0.078699
v -0.073831 0.091364 -0.074421
v -0.073950 0.086262 -0.075313
v -0.074461 0.033607 -0.092135
v -0.074235 0.036946 -0.091101
v -0.074447 0.034886 -0.091683
v -0.074201 0.034576 -0.092725
v -0.073047 0.122206 -0.070292
v -0.073088 0.117737 -0.078696
v -0.073286 0.122778 -0.078285
v -0.073835 0.096532 -0.073646
v -0.073947 0.036481 -0.092569
v -0.070320 0.198969 -0.072849
v -0.070245 0.208891 -0.078210
v -0.070325 0.209094 -0.078166
v -0.071075 0.188446 -0.071980
v -0.069899 0.208014 -0.078398
v -0.073926 0.045271 -0.091844
v -0.072941 0.112727 -0.079130
v -0.072796 0.047431 -0.088622
v -0.073384 0.053812 -0.090153
v -0.072221 0.049390 -0.091111
v -0.070774 0.158034 -0.077144
v -0.073951 0.039927 -0.090457
v -0.071326 0.148471 -0.067361
v -0.070999 0.153076 -0.066158
v -0.071848 0.157792 -0.073820
v -0.074031 0.043350 -0.090137
v -0.073503 0.041682 -0.091761
v -0.070574 0.193961 -0.072376
v -0.072777 0.111954 -0.071795
v -0.072872 0.117043 -0.070991
v -0.071588 0.159688 -0.073119
v -0.071573 0.159874 -0.073083
v -0.073644 0.038822 -0.092157
v -0.072252 0.052069 -0.082396
v -0.072538 0.055041 -0.080308
v -0.072639 0.102685 -0.080138
v -0.072785 0.107726 -0.079575
v -0.069569 0.206344 -0.078133
v -0.072644 0.106886 -0.072476
v -0.071522 0.143394 -0.068615
v -0.070729 0.153466 -0.077224
v -0.070710 0.159874 -0.071875
v -0.073066 0.034955 -0.091180
v -0.073236 0.033595 -0.091722
v -0.072607 0.097658 -0.080887
v -0.072553 0.087649 -0.082876
v -0.072371 0.077697 -0.084847
v -0.072497 0.082695 -0.083881
v -0.072597 0.092650 -0.081802
v -0.072235 0.067746 -0.086658
v -0.072190 0.058382 -0.088770
v -0.072262 0.062952 -0.087600
v -0.070897 0.149104 -0.077429
v -0.068838 0.202511 -0.077571
v -0.069193 0.204552 -0.077863
v -0.072277 0.072686 -0.085753
v -0.073167 0.050170 -0.085892
v -0.072733 0.040213 -0.089979
v -0.072824 0.037091 -0.090546
v -0.072525 0.036059 -0.092203
v -0.072907 0.034207 -0.092317
v -0.069710 0.159874 -0.070109
v -0.071139 0.144041 -0.077660
v -0.071905 0.050579 -0.085018
v -0.072223 0.096558 -0.073699
v -0.072410 0.101745 -0.073048
v -0.072989 0.043729 -0.089669
v -0.071283 0.138545 -0.077797
v -0.072212 0.081231 -0.076302
v -0.072018 0.071208 -0.077889
v -0.072120 0.076252 -0.077131
v -0.070694 0.165644 -0.072021
v -0.071329 0.160722 -0.073134
v -0.072181 0.091377 -0.074509
v -0.072226 0.086268 -0.075402
v -0.072741 0.045092 -0.091466
v -0.072286 0.041292 -0.091442
v -0.071296 0.133180 -0.077785
v -0.071457 0.138092 -0.069178
v -0.071225 0.060498 -0.079269
v -0.071817 0.066073 -0.078614
v -0.071900 0.044282 -0.089187
v -0.072273 0.038329 -0.091830
v -0.071097 0.122826 -0.078031
v -0.071211 0.127936 -0.077809
v -0.071113 0.127438 -0.069873
v -0.071296 0.132748 -0.069593
v -0.068629 0.199329 -0.077270
v -0.070648 0.049358 -0.090622
v -0.071616 0.053911 -0.089838
v -0.070986 0.117757 -0.078451
v -0.071887 0.033347 -0.091178
v -0.068755 0.209641 -0.074815
v -0.071819 0.048207 -0.087904
v -0.070724 0.048966 -0.087034
v -0.068733 0.188996 -0.077005
v -0.068661 0.194366 -0.077086
v -0.071306 0.037315 -0.089883
v -0.071534 0.034965 -0.090520
v -0.070959 0.122209 -0.070320
v -0.071435 0.040635 -0.089447
v -0.070941 0.107702 -0.079351
v -0.070940 0.112734 -0.078896
v -0.071030 0.035437 -0.091659
v -0.071552 0.033636 -0.091800
v -0.070918 0.111957 -0.071977
v -0.070896 0.117047 -0.071127
v -0.070258 0.171566 -0.071117
v -0.070907 0.102658 -0.079926
v -0.070953 0.040940 -0.091089
v -0.071439 0.044893 -0.091067
v -0.070762 0.101772 -0.073195
v -0.070902 0.106904 -0.072629
v -0.070848 0.092651 -0.081568
v -0.070874 0.097637 -0.080657
v -0.070742 0.087661 -0.082694
v -0.070146 0.051891 -0.082248
v -0.070287 0.055074 -0.080179
v -0.070476 0.077742 -0.084780
v -0.070608 0.082729 -0.083799
v -0.070608 0.096597 -0.073876
v -0.070776 0.037728 -0.091372
v -0.070344 0.067759 -0.086567
v -0.070397 0.072706 -0.085645
v -0.068767 0.183616 -0.076963
v -0.070227 0.058425 -0.088594
v -0.070333 0.062968 -0.087542
v -0.070629 0.050752 -0.084334
v -0.070448 0.081288 -0.076518
v -0.070549 0.086312 -0.075608
v -0.070554 0.091428 -0.074718
v -0.070134 0.071305 -0.078056
v -0.070290 0.076332 -0.077369
v -0.069648 0.158184 -0.072989
v -0.069287 0.156495 -0.073242
v -0.069825 0.177251 -0.070612
v -0.068066 0.210556 -0.072973
v -0.068015 0.210259 -0.072907
v -0.068852 0.172988 -0.076836
v -0.068820 0.178265 -0.076925
v -0.070747 0.045004 -0.088664
v -0.070076 0.032761 -0.091176
v -0.069887 0.034928 -0.089764
v -0.070293 0.032888 -0.090453
v -0.069524 0.160878 -0.072343
v -0.069511 0.045864 -0.088045
v -0.069491 0.060924 -0.079320
v -0.069945 0.066260 -0.078706
v -0.069248 0.159711 -0.072272
v -0.069232 0.157265 -0.072677
v -0.067483 0.207235 -0.072274
v -0.067794 0.208974 -0.072623
v -0.069060 0.049373 -0.090094
v -0.069795 0.054013 -0.089516
v -0.069249 0.159874 -0.072245
v -0.068465 0.188231 -0.070612
v -0.069204 0.182775 -0.070488
v -0.069757 0.037618 -0.089189
v -0.069377 0.138055 -0.069247
v -0.068639 0.148210 -0.067799
v -0.069263 0.143280 -0.069022
v -0.070109 0.041240 -0.088877
v -0.069411 0.040406 -0.090615
v -0.069996 0.044699 -0.090650
v -0.068000 0.159725 -0.064972
v -0.066197 0.159874 -0.067536
v -0.068009 0.159874 -0.064953
v -0.067871 0.157489 -0.065264
v -0.068797 0.167789 -0.076749
v -0.068005 0.152756 -0.066825
v -0.069297 0.132775 -0.069614
v -0.069185 0.138463 -0.077302
v -0.069231 0.127933 -0.077317
v -0.069259 0.133173 -0.077298
v -0.068911 0.143883 -0.077132
v -0.069167 0.122809 -0.077525
v -0.068470 0.148910 -0.076855
v -0.069081 0.122216 -0.070572
v -0.069160 0.127448 -0.069994
v -0.067752 0.155655 -0.065981
v -0.068194 0.157933 -0.076539
v -0.068551 0.162729 -0.076669
v -0.069188 0.037077 -0.090786
v -0.069470 0.034718 -0.091034
v -0.069206 0.112676 -0.078453
v -0.069129 0.117720 -0.077963
v -0.069327 0.107629 -0.078955
v -0.069231 0.111960 -0.072262
v -0.066792 0.202839 -0.071452
v -0.067056 0.205312 -0.071843
v -0.069292 0.097585 -0.080255
v -0.069342 0.102588 -0.079521
v -0.069204 0.101802 -0.073494
v -0.069287 0.106918 -0.072938
v -0.069109 0.117052 -0.071387
v -0.068188 0.153322 -0.076614
v -0.069226 0.092611 -0.081176
v -0.068945 0.082713 -0.083507
v -0.069086 0.087628 -0.082331
v -0.069387 0.049827 -0.085585
v -0.067940 0.159874 -0.071330
v -0.069044 0.165571 -0.071261
v -0.068147 0.051210 -0.082971
v -0.068837 0.077736 -0.084551
v -0.069023 0.091489 -0.075001
v -0.069092 0.096647 -0.074152
v -0.067657 0.193683 -0.070884
v -0.068948 0.086382 -0.075904
v -0.068641 0.076440 -0.077730
v -0.068802 0.081372 -0.076833
v -0.068707 0.067756 -0.086344
v -0.068767 0.072694 -0.085421
v -0.068461 0.058428 -0.088263
v -0.068615 0.062986 -0.087297
v -0.066989 0.198895 -0.071145
v -0.066127 0.209810 -0.075891
v -0.068654 0.032446 -0.089679
v -0.068336 0.034904 -0.089054
v -0.068624 0.055477 -0.080204
v -0.068479 0.071429 -0.078440
v -0.068125 0.177017 -0.069736
v -0.068617 0.171409 -0.070325
v -0.066031 0.209579 -0.075934
v -0.068774 0.041877 -0.088295
v -0.067908 0.033883 -0.090407
v -0.068469 0.031859 -0.090451
v -0.067873 0.040046 -0.090049
v -0.068466 0.044552 -0.090120
v -0.067947 0.061260 -0.079644
v -0.068330 0.066440 -0.079111
v -0.065322 0.206972 -0.075766
v -0.065617 0.208578 -0.076120
v -0.067581 0.049393 -0.089524
v -0.068128 0.054036 -0.089097
v -0.068287 0.037957 -0.088528
v -0.066616 0.159874 -0.069985
v -0.068166 0.158649 -0.072236
v -0.067644 0.157206 -0.072351
v -0.067610 0.165708 -0.070536
v -0.068132 0.161084 -0.071662
v -0.068183 0.046757 -0.087255
v -0.067521 0.042518 -0.087702
v -0.067566 0.132815 -0.069889
v -0.067435 0.143174 -0.069628
v -0.067657 0.138057 -0.069697
v -0.067986 0.102505 -0.078993
v -0.067883 0.097506 -0.079726
v -0.067770 0.112584 -0.077840
v -0.067942 0.107542 -0.078418
v -0.067754 0.111966 -0.072597
v -0.067828 0.101846 -0.073881
v -0.067857 0.106938 -0.073317
v -0.067717 0.157844 -0.071882
v -0.067578 0.127895 -0.076632
v -0.067588 0.133135 -0.076593
v -0.066538 0.148067 -0.068796
v -0.067558 0.159874 -0.071537
v -0.067568 0.159747 -0.071558
v -0.067731 0.087547 -0.081789
v -0.067841 0.092522 -0.080598
v -0.067444 0.182533 -0.069507
v -0.067647 0.036493 -0.090192
v -0.067579 0.138360 -0.076599
v -0.065018 0.205302 -0.075416
v -0.067606 0.117645 -0.077301
v -0.067568 0.122753 -0.076845
v -0.067501 0.122237 -0.070957
v -0.067526 0.127477 -0.070397
v -0.067588 0.117068 -0.071752
v -0.067582 0.082652 -0.083034
v -0.067616 0.091552 -0.075313
v -0.067714 0.096698 -0.074468
v -0.067348 0.081467 -0.077226
v -0.067476 0.086456 -0.076248
v -0.067259 0.143684 -0.076497
v -0.066748 0.178107 -0.075878
v -0.066919 0.167622 -0.075952
v -0.066921 0.172794 -0.075937
v -0.067384 0.072650 -0.085092
v -0.067458 0.077683 -0.084158
v -0.065347 0.199309 -0.075225
v -0.064933 0.202949 -0.075180
v -0.066501 0.183541 -0.075773
v -0.067234 0.076570 -0.078259
v -0.067347 0.067723 -0.085970
v -0.065124 0.210409 -0.072732
v -0.065862 0.194266 -0.075404
v -0.066202 0.188926 -0.075600
v -0.066998 0.032259 -0.088891
v -0.067151 0.056043 -0.080508
v -0.066946 0.058398 -0.087776
v -0.067220 0.062963 -0.086818
v -0.067103 0.171290 -0.069581
v -0.066710 0.162660 -0.075966
v -0.066439 0.033272 -0.089784
v -0.066855 0.031271 -0.089660
v -0.066474 0.039870 -0.089472
v -0.067079 0.044477 -0.089544
v -0.066972 0.066619 -0.079812
v -0.067049 0.071577 -0.079045
v -0.066445 0.153203 -0.075977
v -0.066723 0.148721 -0.076214
v -0.065758 0.193351 -0.069733
v -0.066635 0.187974 -0.069548
v -0.066938 0.038346 -0.087900
v -0.066846 0.034969 -0.088376
v -0.066599 0.061591 -0.080313
v -0.066832 0.047689 -0.086248
v -0.066423 0.157846 -0.075911
v -0.066902 0.158847 -0.071618
v -0.066349 0.051755 -0.082580
v -0.065712 0.048115 -0.085425
v -0.066250 0.049415 -0.088915
v -0.066624 0.054041 -0.088538
v -0.066725 0.161202 -0.070995
v -0.065863 0.182300 -0.068605
v -0.066567 0.176824 -0.068933
v -0.064944 0.210917 -0.071002
v -0.064982 0.211226 -0.071055
v -0.065643 0.152576 -0.067950
v -0.065397 0.159874 -0.066067
v -0.065386 0.159723 -0.066086
v -0.063962 0.159874 -0.068248
v -0.064782 0.209576 -0.070772
v -0.066871 0.102404 -0.078289
v -0.066812 0.107429 -0.077686
v -0.066065 0.159874 -0.070978
v -0.066717 0.092368 -0.079818
v -0.066753 0.097386 -0.078964
v -0.065270 0.155614 -0.067086
v -0.065223 0.157452 -0.066382
v -0.066628 0.101909 -0.074333
v -0.066449 0.111974 -0.072981
v -0.066611 0.106964 -0.073751
v -0.066637 0.087413 -0.081045
v -0.066398 0.117555 -0.076470
v -0.066608 0.112478 -0.077054
v -0.066387 0.091627 -0.075728
v -0.066487 0.096772 -0.074877
v -0.066487 0.158107 -0.071361
v -0.066219 0.036105 -0.089616
v -0.066225 0.132860 -0.070605
v -0.065993 0.143149 -0.070517
v -0.066347 0.138115 -0.070546
v -0.066769 0.157531 -0.071863
v -0.065656 0.171220 -0.069112
v -0.066276 0.165847 -0.069942
v -0.066290 0.077613 -0.083609
v -0.066465 0.082548 -0.082402
v -0.066211 0.122283 -0.071530
v -0.066287 0.117099 -0.072217
v -0.066333 0.122693 -0.075991
v -0.066300 0.133089 -0.075657
v -0.066314 0.127836 -0.075750
v -0.065960 0.143464 -0.075672
v -0.066384 0.138255 -0.075610
v -0.066092 0.159763 -0.071002
v -0.065771 0.038702 -0.087330
v -0.066296 0.043089 -0.087110
v -0.066232 0.127518 -0.071048
v -0.066198 0.081619 -0.077925
v -0.066273 0.086559 -0.076788
v -0.064398 0.205618 -0.070218
v -0.064578 0.207790 -0.070497
v -0.066180 0.072561 -0.084529
v -0.066148 0.062864 -0.086084
v -0.066203 0.067618 -0.085358
v -0.065350 0.148539 -0.075438
v -0.065970 0.071755 -0.079973
v -0.066160 0.076746 -0.079083
v -0.065735 0.058339 -0.087010
v -0.065900 0.056643 -0.081180
v -0.065261 0.039812 -0.088913
v -0.065848 0.044467 -0.088962
v -0.065992 0.066811 -0.080797
v -0.065490 0.032453 -0.088137
v -0.065001 0.198556 -0.069928
v -0.065639 0.061902 -0.081320
v -0.065251 0.172495 -0.074958
v -0.065222 0.162521 -0.075182
v -0.065326 0.167377 -0.075064
v -0.065060 0.177795 -0.074834
v -0.065875 0.157689 -0.071424
v -0.065526 0.161322 -0.070642
v -0.065887 0.158656 -0.071234
v -0.065951 0.107300 -0.076771
v -0.065945 0.097240 -0.078013
v -0.066016 0.102279 -0.077388
v -0.064998 0.032886 -0.089108
v -0.065265 0.030929 -0.088850
v -0.065488 0.035172 -0.087725
v -0.064438 0.202708 -0.069999
v -0.065963 0.092182 -0.078852
v -0.064970 0.049446 -0.088288
v -0.065395 0.054027 -0.087780
v -0.065736 0.082347 -0.081412
v -0.065868 0.087228 -0.080075
v -0.065740 0.102008 -0.075106
v -0.065394 0.112026 -0.073662
v -0.065683 0.107026 -0.074479
v -0.065547 0.117439 -0.075386
v -0.065759 0.112344 -0.076059
v -0.064635 0.159874 -0.070118
v -0.065010 0.187721 -0.068549
v -0.065026 0.176667 -0.068507
v -0.065150 0.148093 -0.070352
v -0.064001 0.152646 -0.069973
v -0.064360 0.188577 -0.074339
v -0.064769 0.183222 -0.074633
v -0.065579 0.091772 -0.076579
v -0.065600 0.096902 -0.075696
v -0.064674 0.159762 -0.070168
v -0.065262 0.158087 -0.070918
v -0.065537 0.077448 -0.082658
v -0.065076 0.157771 -0.075216
v -0.065078 0.153131 -0.075265
v -0.065579 0.138174 -0.074409
v -0.065084 0.143269 -0.074514
v -0.065252 0.052449 -0.082753
v -0.064787 0.048444 -0.084930
v -0.065376 0.132919 -0.071703
v -0.065043 0.143151 -0.071722
v -0.065531 0.138133 -0.071713
v -0.065559 0.127756 -0.074571
v -0.065474 0.122628 -0.074897
v -0.064630 0.039109 -0.086733
v -0.065166 0.043550 -0.086581
v -0.065234 0.122386 -0.072376
v -0.065258 0.117171 -0.072972
v -0.065423 0.133042 -0.074475
v -0.065661 0.081850 -0.079017
v -0.065622 0.086755 -0.077751
v -0.064926 0.165980 -0.069932
v -0.064891 0.035916 -0.089021
v -0.065402 0.067441 -0.084415
v -0.065377 0.062700 -0.085085
v -0.065479 0.127583 -0.072067
v -0.063893 0.193892 -0.073972
v -0.065393 0.072407 -0.083633
v -0.065470 0.071970 -0.081193
v -0.065637 0.076968 -0.080217
v -0.062810 0.210261 -0.073804
v -0.062879 0.210533 -0.073799
v -0.062509 0.209083 -0.073825
v -0.065516 0.097069 -0.076864
v -0.065538 0.107158 -0.075624
v -0.065611 0.102139 -0.076247
v -0.065422 0.067024 -0.081986
v -0.065598 0.087002 -0.078935
v -0.065551 0.091982 -0.077745
v -0.065048 0.057118 -0.082058
v -0.064367 0.052982 -0.083490
v -0.065096 0.158143 -0.071129
v -0.065596 0.082100 -0.080230
v -0.063780 0.157880 -0.069506
v -0.064958 0.157784 -0.070839
v -0.064372 0.182114 -0.068114
v -0.063563 0.187427 -0.067843
v -0.064150 0.039822 -0.088333
v -0.064768 0.044474 -0.088372
v -0.065333 0.112182 -0.074869
v -0.065136 0.117305 -0.074167
v -0.064135 0.193008 -0.068658
v -0.063360 0.198137 -0.068774
v -0.064431 0.053967 -0.086824
v -0.064878 0.058198 -0.085915
v -0.063556 0.176581 -0.068773
v -0.064236 0.171239 -0.069347
v -0.065113 0.062205 -0.082566
v -0.064557 0.057584 -0.083316
v -0.065454 0.077205 -0.081440
v -0.064093 0.157101 -0.070308
v -0.065271 0.138137 -0.073046
v -0.065268 0.072193 -0.082436
v -0.065245 0.127668 -0.073280
v -0.065079 0.132989 -0.073037
v -0.064768 0.143181 -0.073188
v -0.064375 0.161496 -0.070735
v -0.063633 0.166169 -0.070328
v -0.064150 0.032637 -0.087372
v -0.064239 0.035434 -0.087065
v -0.065212 0.067238 -0.083216
v -0.065087 0.122523 -0.073625
v -0.063861 0.049447 -0.087619
v -0.065050 0.062475 -0.083857
v -0.064538 0.057939 -0.084630
v -0.063950 0.159749 -0.068326
v -0.064322 0.148356 -0.074449
v -0.063952 0.153072 -0.074292
v -0.062598 0.202742 -0.073309
v -0.063291 0.198925 -0.073660
v -0.063836 0.172192 -0.073929
v -0.063999 0.167110 -0.074120
v -0.062282 0.205506 -0.073266
v -0.062339 0.207456 -0.073499
v -0.063660 0.032659 -0.088380
v -0.064198 0.031001 -0.087506
v -0.063936 0.157675 -0.074259
v -0.063982 0.162325 -0.074267
v -0.064138 0.043823 -0.086122
v -0.063561 0.039393 -0.086179
v -0.064479 0.148157 -0.071874
v -0.063717 0.152959 -0.071912
v -0.062318 0.210957 -0.070825
v -0.063811 0.148188 -0.073159
v -0.063162 0.161619 -0.070915
v -0.063257 0.182855 -0.073434
v -0.063576 0.177468 -0.073738
v -0.062500 0.211331 -0.069327
v -0.062509 0.211659 -0.069362
v -0.062457 0.209910 -0.069177
v -0.063689 0.035835 -0.088373
v -0.063882 0.053798 -0.085721
v -0.063631 0.048798 -0.084954
v -0.063119 0.044196 -0.085769
v -0.063115 0.039850 -0.087694
v -0.063799 0.044489 -0.087762
v -0.062822 0.188172 -0.073048
v -0.062506 0.205556 -0.068872
v -0.062430 0.207996 -0.069006
v -0.063876 0.053479 -0.084515
v -0.063248 0.152945 -0.072988
v -0.062829 0.202331 -0.068831
v -0.062813 0.049181 -0.085796
v -0.062892 0.181981 -0.068257
v -0.063008 0.032761 -0.086612
v -0.063089 0.035658 -0.086342
v -0.062897 0.171281 -0.069779
v -0.062532 0.032649 -0.087631
v -0.063048 0.031660 -0.086719
v -0.062382 0.039722 -0.085680
v -0.062693 0.192706 -0.067765
v -0.062965 0.157315 -0.071836
v -0.062475 0.161775 -0.071878
v -0.062965 0.166832 -0.073030
v -0.063045 0.162068 -0.073141
v -0.063111 0.157536 -0.073069
v -0.061694 0.198431 -0.072214
v -0.062333 0.193432 -0.072598
v -0.062982 0.049392 -0.086831
v -0.062943 0.044513 -0.087052
v -0.062372 0.177140 -0.072529
v -0.062716 0.171895 -0.072820
v -0.062200 0.039886 -0.086939
v -0.062643 0.035845 -0.087668
v -0.062455 0.044475 -0.086218
v -0.062299 0.166275 -0.070600
v -0.061744 0.171350 -0.070306
v -0.062009 0.182495 -0.072150
v -0.062168 0.176538 -0.069180
v -0.061501 0.181878 -0.068566
v -0.062150 0.187226 -0.067729
v -0.061343 0.192460 -0.067321
v -0.061453 0.202009 -0.067778
v -0.061991 0.197771 -0.067806
v -0.061040 0.202332 -0.071842
v -0.062118 0.032836 -0.086063
v -0.061968 0.035737 -0.085661
v -0.062280 0.031965 -0.086232
v -0.061982 0.171607 -0.071557
v -0.062242 0.166537 -0.071805
v -0.060405 0.211041 -0.071921
v -0.061087 0.193027 -0.071244
v -0.061592 0.187798 -0.071709
v -0.060371 0.210751 -0.071900
v -0.061527 0.176836 -0.071219
v -0.061804 0.032722 -0.086924
v -0.061756 0.035846 -0.086865
v -0.061042 0.205355 -0.067749
v -0.060239 0.207698 -0.071589
v -0.060224 0.209494 -0.071809
v -0.060481 0.211664 -0.067888
v -0.060508 0.211335 -0.067880
v -0.060130 0.211089 -0.069056
v -0.061631 0.039911 -0.086097
v -0.060776 0.207913 -0.067771
v -0.060626 0.209908 -0.067846
v -0.061195 0.035807 -0.085989
v -0.060440 0.197967 -0.070834
v -0.061423 0.033404 -0.086423
v -0.060470 0.205416 -0.071563
v -0.061105 0.176565 -0.069886
v -0.060743 0.187109 -0.067968
v -0.060645 0.187456 -0.070306
v -0.061060 0.182163 -0.070788
v -0.060632 0.197447 -0.067103
v -0.060103 0.192657 -0.069868
v -0.060594 0.181893 -0.069361
v -0.060032 0.187157 -0.068910
v -0.059709 0.205129 -0.066807
v -0.060115 0.201712 -0.066907
v -0.059893 0.192246 -0.067331
v -0.059199 0.197189 -0.066898
v -0.059220 0.205223 -0.070137
v -0.059802 0.202021 -0.070469
v -0.059372 0.207726 -0.066794
v -0.059097 0.209668 -0.066793
v -0.058856 0.210938 -0.066767
v -0.058536 0.211057 -0.067446
v -0.058801 0.211231 -0.066760
v -0.059468 0.197573 -0.069459
v -0.058827 0.201738 -0.069108
v -0.058509 0.210900 -0.070165
v -0.058534 0.210644 -0.070141
v -0.058643 0.209535 -0.070040
v -0.058836 0.207678 -0.069998
v -0.058655 0.201444 -0.066581
v -0.059394 0.192327 -0.068457
v -0.058771 0.197253 -0.068045
v -0.058277 0.205026 -0.068787
v -0.057934 0.207492 -0.066317
v -0.058231 0.204898 -0.066368
v -0.058142 0.201467 -0.067680
v -0.057509 0.210517 -0.066301
v -0.057751 0.209433 -0.066309
v -0.057453 0.210768 -0.066299
v -0.057543 0.209446 -0.068449
v -0.057848 0.207551 -0.068583
v -0.057357 0.210546 -0.068359
v -0.057314 0.210800 -0.068338
v -0.057597 0.204861 -0.067392
v -0.057213 0.207413 -0.067213
v -0.056970 0.209339 -0.067136
v -0.056831 0.210390 -0.067009
v -0.056798 0.210633 -0.066980
usemtl Calcaneal_tendon_rMaterial0
f 1 2 3
f 4 3 2
f 2 1 5
f 4 2 6
f 6 2 7
f 2 5 7
f 1 3 8
f 8 3 9
f 10 3 4
f 10 9 3
f 1 8 11
f 1 11 5
f 12 4 6
f 6 7 13
f 12 6 13
f 8 9 14
f 8 14 15
f 8 15 11
f 16 10 4
f 16 4 12
f 17 14 9
f 18 9 10
f 18 17 9
f 17 19 14
f 19 15 14
f 18 10 16
f 17 20 19
f 18 21 17
f 17 21 20
f 7 5 22
f 13 7 23
f 7 22 23
f 22 5 11
f 19 20 24
f 19 25 15
f 19 24 25
f 12 13 26
f 13 23 26
f 27 11 15
f 22 11 27
f 18 28 21
f 18 16 29
f 30 28 18
f 30 18 29
f 16 12 31
f 12 26 31
f 32 20 21
f 32 21 28
f 32 33 20
f 33 24 20
f 16 34 29
f 16 31 35
f 16 35 34
f 25 36 15
f 27 15 36
f 32 28 37
f 30 37 28
f 32 38 33
f 39 32 37
f 32 40 38
f 39 40 32
f 30 29 34
f 33 41 24
f 33 38 42
f 33 42 41
f 25 24 43
f 25 44 36
f 25 43 44
f 30 45 37
f 39 37 45
f 22 27 46
f 23 22 47
f 22 46 47
f 48 45 30
f 30 34 49
f 48 30 49
f 43 24 41
f 27 36 50
f 27 50 46
f 38 40 51
f 38 51 52
f 38 52 53
f 38 53 42
f 39 51 40
f 26 23 54
f 23 47 54
f 31 26 55
f 26 54 55
f 35 31 56
f 31 55 56
f 50 36 44
f 35 57 34
f 35 56 58
f 35 58 57
f 43 41 59
f 42 59 41
f 39 45 60
f 39 61 51
f 62 39 60
f 62 61 39
f 43 63 44
f 50 44 63
f 48 60 45
f 57 49 34
f 64 52 51
f 65 52 64
f 65 53 52
f 66 51 61
f 64 51 66
f 43 59 67
f 43 68 63
f 43 67 68
f 42 69 59
f 70 42 53
f 70 69 42
f 48 49 71
f 57 71 49
f 48 72 60
f 62 60 72
f 66 61 73
f 73 61 62
f 46 74 47
f 54 47 74
f 50 75 46
f 46 75 74
f 76 59 69
f 76 67 59
f 64 66 77
f 65 64 78
f 64 77 78
f 50 63 79
f 50 80 75
f 50 79 80
f 70 53 65
f 66 73 81
f 66 81 77
f 82 72 48
f 48 71 83
f 82 48 83
f 55 54 84
f 54 74 84
f 68 79 63
f 76 69 70
f 85 56 55
f 55 84 85
f 86 58 56
f 85 86 56
f 73 62 87
f 62 72 88
f 87 62 88
f 68 67 89
f 68 90 79
f 68 89 90
f 73 87 91
f 73 91 81
f 57 58 92
f 86 92 58
f 65 78 93
f 94 78 77
f 95 78 94
f 95 93 78
f 82 88 72
f 70 65 96
f 65 93 97
f 65 97 96
f 94 77 98
f 98 77 81
f 57 99 71
f 57 92 100
f 57 100 99
f 101 102 103
f 101 103 104
f 101 105 102
f 101 106 105
f 101 104 107
f 107 108 101
f 101 108 106
f 103 102 109
f 103 109 110
f 103 110 111
f 103 111 104
f 89 67 76
f 102 105 112
f 105 113 112
f 105 106 113
f 109 102 114
f 102 112 114
f 76 70 115
f 70 96 116
f 70 116 115
f 109 117 110
f 118 111 110
f 118 110 117
f 99 83 71
f 94 98 119
f 95 94 120
f 94 119 120
f 87 88 121
f 87 122 91
f 87 121 122
f 98 81 123
f 123 81 91
f 75 124 74
f 84 74 124
f 109 114 125
f 109 126 117
f 109 127 126
f 109 125 127
f 128 93 95
f 128 97 93
f 80 129 75
f 75 129 124
f 82 130 88
f 121 88 130
f 76 115 131
f 89 76 132
f 76 131 132
f 98 123 133
f 98 133 119
f 82 83 134
f 99 134 83
f 80 79 135
f 80 136 129
f 80 135 136
f 137 107 104
f 107 138 108
f 137 138 107
f 139 104 111
f 139 137 104
f 112 140 114
f 112 141 140
f 112 142 141
f 112 113 142
f 114 143 125
f 114 140 143
f 144 96 97
f 144 116 96
f 90 135 79
f 118 139 111
f 95 120 145
f 146 120 119
f 147 145 120
f 147 120 146
f 128 95 145
f 148 117 126
f 148 118 117
f 123 91 149
f 123 150 133
f 123 149 150
f 151 115 116
f 151 131 115
f 90 89 152
f 90 153 135
f 90 152 153
f 154 130 82
f 82 134 155
f 154 82 155
f 149 91 122
f 156 119 133
f 146 119 156
f 85 84 157
f 84 124 157
f 121 130 158
f 121 159 122
f 121 158 159
f 144 97 128
f 89 132 160
f 89 160 152
f 148 126 161
f 127 161 126
f 127 125 143
f 108 162 106
f 138 163 108
f 108 163 162
f 106 164 113
f 106 162 164
f 128 145 165
f 166 145 147
f 166 165 145
f 167 132 131
f 167 160 132
f 118 168 139
f 148 169 118
f 118 170 168
f 118 169 170
f 156 133 171
f 171 133 150
f 151 116 144
f 146 156 172
f 146 172 173
f 147 146 173
f 154 158 130
f 156 171 174
f 156 174 172
f 149 122 175
f 149 176 150
f 149 175 176
f 177 86 85
f 85 157 178
f 177 85 178
f 179 92 86
f 179 86 177
f 141 180 140
f 141 142 180
f 144 128 181
f 128 165 182
f 128 182 181
f 140 183 143
f 140 180 183
f 137 184 138
f 139 185 137
f 137 185 184
f 138 184 163
f 179 100 92
f 139 168 186
f 139 187 185
f 139 186 187
f 175 122 159
f 99 100 188
f 179 188 100
f 167 131 151
f 113 189 142
f 113 164 189
f 144 181 190
f 151 144 191
f 144 190 191
f 171 150 192
f 171 193 174
f 171 192 193
f 99 194 134
f 99 188 195
f 99 195 194
f 124 129 196
f 157 124 197
f 124 196 197
f 172 174 127
f 172 198 173
f 172 127 199
f 172 199 198
f 129 136 200
f 129 200 196
f 147 173 201
f 166 147 201
f 192 150 176
f 202 165 166
f 202 182 165
f 127 143 199
f 183 199 143
f 158 203 159
f 154 204 158
f 158 204 203
f 205 148 161
f 148 206 169
f 205 207 148
f 148 207 206
f 208 136 135
f 208 200 136
f 209 186 168
f 209 168 170
f 194 155 134
f 127 210 161
f 211 161 210
f 211 205 161
f 127 174 193
f 175 159 212
f 175 213 176
f 175 212 213
f 214 181 182
f 214 190 181
f 151 191 215
f 167 151 216
f 151 215 216
f 153 208 135
f 198 201 173
f 127 193 217
f 127 218 210
f 127 217 218
f 153 152 219
f 153 220 208
f 153 219 220
f 154 155 221
f 194 221 155
f 192 222 193
f 192 176 223
f 192 223 222
f 224 170 169
f 224 169 206
f 203 212 159
f 225 152 160
f 225 219 152
f 226 191 190
f 226 215 191
f 166 201 227
f 202 166 227
f 180 142 189
f 214 182 202
f 183 180 228
f 180 189 228
f 198 199 229
f 183 229 199
f 225 160 167
f 222 217 193
f 230 210 218
f 230 211 210
f 213 223 176
f 163 231 162
f 184 232 163
f 163 232 231
f 198 233 201
f 234 227 201
f 234 201 233
f 162 235 164
f 162 231 235
f 236 218 217
f 222 236 217
f 237 204 154
f 154 221 238
f 237 154 238
f 185 187 239
f 240 187 186
f 240 239 187
f 184 185 241
f 185 239 241
f 184 241 242
f 184 242 232
f 167 216 243
f 225 167 244
f 167 243 244
f 198 229 233
f 226 190 214
f 183 245 229
f 183 228 246
f 183 246 245
f 178 157 247
f 157 197 247
f 213 212 248
f 203 248 212
f 236 249 218
f 249 230 218
f 209 240 186
f 224 209 170
f 250 216 215
f 250 243 216
f 202 227 251
f 214 202 252
f 202 251 253
f 202 253 252
f 164 254 189
f 164 235 254
f 222 223 255
f 213 255 223
f 205 256 207
f 211 257 205
f 205 257 256
f 258 206 207
f 258 207 256
f 237 203 204
f 234 233 229
f 234 229 245
f 230 259 211
f 211 259 257
f 234 251 227
f 226 214 260
f 214 252 261
f 214 261 260
f 250 215 226
f 222 262 236
f 222 255 263
f 222 263 262
f 236 264 249
f 236 262 264
f 213 265 255
f 213 248 266
f 213 266 265
f 253 251 267
f 234 267 251
f 258 224 206
f 249 268 230
f 230 269 259
f 230 268 270
f 230 270 269
f 226 260 271
f 250 226 272
f 226 271 272
f 203 273 248
f 237 274 203
f 203 274 273
f 177 178 275
f 178 247 275
f 179 177 276
f 177 275 276
f 277 252 253
f 277 261 252
f 249 278 268
f 249 264 278
f 228 189 254
f 246 228 279
f 228 254 279
f 280 188 179
f 179 276 281
f 280 179 281
f 282 197 196
f 247 197 282
f 283 196 200
f 282 196 283
f 224 284 209
f 209 285 240
f 209 286 285
f 209 284 286
f 287 257 259
f 288 256 257
f 287 288 257
f 289 259 269
f 289 287 259
f 246 290 245
f 246 291 290
f 246 279 291
f 253 267 277
f 265 263 255
f 292 200 208
f 283 200 292
f 280 195 188
f 293 260 261
f 293 271 260
f 234 245 290
f 234 294 267
f 234 295 294
f 234 290 295
f 296 208 220
f 292 208 296
f 288 297 256
f 297 258 256
f 273 266 248
f 194 195 298
f 280 298 195
f 299 262 263
f 265 299 263
f 258 300 224
f 224 301 284
f 224 300 301
f 302 270 268
f 302 268 278
f 287 303 288
f 288 304 297
f 288 303 304
f 305 220 219
f 296 220 306
f 305 306 220
f 307 289 269
f 307 269 270
f 277 267 294
f 308 264 262
f 299 308 262
f 277 293 261
f 287 309 303
f 289 309 287
f 194 310 221
f 194 298 311
f 194 311 310
f 240 312 239
f 312 241 239
f 305 219 225
f 240 285 313
f 240 314 312
f 240 313 314
f 315 242 241
f 312 315 241
f 242 316 232
f 315 317 242
f 242 317 316
f 225 244 318
f 305 225 319
f 225 318 319
f 297 320 258
f 297 304 321
f 297 321 320
f 322 244 243
f 322 243 250
f 322 318 244
f 323 303 309
f 324 304 303
f 323 324 303
f 277 294 325
f 277 325 293
f 258 320 326
f 258 326 300
f 232 327 231
f 232 316 327
f 250 272 328
f 250 328 329
f 322 250 329
f 330 278 264
f 308 330 264
f 265 266 331
f 273 331 266
f 310 238 221
f 231 332 235
f 231 327 332
f 289 333 309
f 334 323 309
f 334 309 333
f 335 272 271
f 335 328 272
f 324 336 304
f 336 321 304
f 307 333 289
f 235 337 254
f 235 332 337
f 323 338 324
f 324 338 339
f 324 339 336
f 237 238 340
f 310 340 238
f 302 307 270
f 341 285 286
f 341 313 285
f 342 320 321
f 342 326 320
f 265 343 299
f 265 331 344
f 265 344 343
f 345 284 301
f 345 286 284
f 293 335 271
f 323 346 338
f 334 346 323
f 330 347 278
f 347 302 278
f 348 294 295
f 348 295 290
f 349 339 338
f 350 349 338
f 350 338 346
f 336 351 321
f 336 339 352
f 336 352 351
f 353 325 294
f 348 354 294
f 353 294 354
f 307 355 333
f 356 334 333
f 356 333 355
f 357 300 326
f 357 301 300
f 247 282 358
f 275 247 358
f 359 274 237
f 237 340 360
f 359 237 360
f 293 325 353
f 293 353 361
f 293 361 335
f 299 362 308
f 299 343 362
f 291 363 290
f 348 290 363
f 279 254 337
f 291 279 364
f 279 337 364
f 351 342 321
f 291 365 363
f 291 364 365
f 349 366 339
f 350 367 349
f 349 367 368
f 349 368 366
f 334 369 346
f 370 350 346
f 370 346 369
f 366 352 339
f 302 371 307
f 307 372 355
f 307 371 372
f 308 373 330
f 308 362 373
f 356 369 334
f 359 273 274
f 350 374 367
f 375 367 374
f 376 368 367
f 375 376 367
f 370 374 350
f 366 368 377
f 366 378 352
f 366 377 378
f 351 352 379
f 351 380 342
f 351 379 380
f 342 357 326
f 381 375 374
f 370 382 374
f 381 374 382
f 330 383 347
f 330 373 383
f 347 384 302
f 302 385 371
f 302 384 385
f 386 370 369
f 356 387 369
f 386 369 387
f 376 388 368
f 388 377 368
f 389 356 355
f 389 355 372
f 375 390 376
f 376 391 388
f 376 390 391
f 378 379 352
f 273 392 331
f 359 393 273
f 273 393 392
f 394 395 396
f 396 395 397
f 394 398 395
f 399 395 398
f 399 400 395
f 400 397 395
f 394 396 401
f 396 402 401
f 396 403 402
f 396 397 403
f 404 401 405
f 405 401 402
f 394 401 406
f 404 406 401
f 375 407 390
f 381 407 375
f 342 380 408
f 342 409 357
f 342 408 409
f 357 345 301
f 404 405 410
f 405 411 410
f 405 402 412
f 405 412 411
f 386 382 370
f 388 413 377
f 388 391 414
f 388 414 413
f 378 377 415
f 378 416 379
f 378 415 416
f 345 341 286
f 404 410 417
f 418 410 411
f 419 410 418
f 419 417 410
f 420 398 394
f 421 399 398
f 420 422 398
f 421 398 422
f 399 423 400
f 400 424 397
f 400 425 424
f 400 423 425
f 420 394 406
f 426 406 404
f 426 404 417
f 282 283 427
f 358 282 428
f 282 427 428
f 389 387 356
f 283 292 429
f 283 429 427
f 420 406 430
f 426 430 406
f 403 431 402
f 403 397 432
f 403 433 431
f 403 432 433
f 412 402 431
f 418 411 434
f 419 418 435
f 418 436 435
f 418 434 436
f 437 417 419
f 426 417 438
f 437 438 417
f 412 439 411
f 412 431 440
f 412 440 439
f 441 381 382
f 386 442 382
f 441 382 442
f 399 443 423
f 421 443 399
f 424 432 397
f 392 344 331
f 292 296 444
f 292 444 429
f 434 411 439
f 445 446 390
f 446 391 390
f 445 390 407
f 447 380 379
f 447 408 380
f 347 448 384
f 347 383 448
f 449 372 371
f 449 371 385
f 413 415 377
f 419 435 450
f 437 419 450
f 445 435 446
f 446 435 436
f 446 451 391
f 446 436 451
f 445 450 435
f 348 452 354
f 348 363 452
f 434 453 436
f 434 439 454
f 434 454 453
f 455 353 354
f 455 354 452
f 456 445 407
f 381 457 407
f 456 407 457
f 456 450 445
f 458 276 275
f 275 358 458
f 437 450 459
f 456 459 450
f 460 386 387
f 389 461 387
f 460 387 461
f 462 281 276
f 458 462 276
f 296 306 463
f 296 463 444
f 451 414 391
f 441 457 381
f 424 464 432
f 424 425 465
f 424 465 464
f 466 422 420
f 467 421 422
f 466 468 422
f 467 422 468
f 466 420 430
f 469 430 426
f 469 426 438
f 416 447 379
f 455 361 353
f 466 430 470
f 469 470 430
f 357 409 471
f 357 472 345
f 357 471 472
f 451 436 453
f 451 473 414
f 451 453 473
f 280 281 474
f 462 474 281
f 413 414 475
f 413 476 415
f 413 475 476
f 477 438 437
f 469 438 478
f 477 478 438
f 479 329 328
f 322 329 480
f 479 480 329
f 481 423 443
f 482 425 423
f 481 482 423
f 421 483 443
f 467 483 421
f 484 343 344
f 392 484 344
f 335 479 328
f 463 306 305
f 312 485 315
f 312 314 486
f 312 487 485
f 312 486 487
f 460 442 386
f 449 389 372
f 488 443 483
f 488 481 443
f 315 489 317
f 315 485 489
f 317 490 316
f 317 489 490
f 491 318 322
f 322 480 492
f 491 322 492
f 477 437 459
f 440 431 493
f 433 493 431
f 440 494 439
f 440 493 495
f 440 495 494
f 416 415 496
f 416 497 447
f 416 496 497
f 498 314 313
f 498 486 314
f 433 432 499
f 433 500 493
f 433 499 500
f 501 456 457
f 441 502 457
f 501 457 502
f 335 361 503
f 455 503 361
f 335 503 504
f 335 504 479
f 501 459 456
f 477 459 505
f 501 505 459
f 506 298 280
f 280 474 507
f 506 280 507
f 454 439 494
f 305 319 508
f 463 305 509
f 305 508 509
f 464 499 432
f 491 319 318
f 510 441 442
f 460 511 442
f 510 442 511
f 512 409 408
f 512 471 409
f 513 385 384
f 513 384 448
f 454 514 453
f 454 494 515
f 454 515 514
f 341 498 313
f 491 508 319
f 473 475 414
f 516 362 343
f 484 516 343
f 476 496 415
f 389 517 461
f 449 518 389
f 389 518 517
f 506 311 298
f 473 453 514
f 473 519 475
f 473 514 519
f 345 520 341
f 345 472 521
f 345 521 520
f 467 522 483
f 523 483 522
f 523 488 483
f 524 468 466
f 524 466 470
f 510 502 441
f 525 465 425
f 482 525 425
f 464 526 499
f 464 465 527
f 464 527 526
f 528 467 468
f 524 529 468
f 528 468 529
f 447 512 408
f 530 470 469
f 524 470 531
f 530 531 470
f 530 469 478
f 532 478 477
f 530 478 533
f 532 533 478
f 316 534 327
f 316 490 534
f 327 535 332
f 332 536 337
f 332 535 536
f 363 365 537
f 363 538 452
f 363 537 539
f 363 539 538
f 476 475 540
f 476 541 496
f 476 540 541
f 542 460 461
f 542 461 517
f 543 373 362
f 516 543 362
f 327 534 535
f 310 311 544
f 506 544 311
f 528 522 467
f 532 477 505
f 545 365 364
f 545 537 365
f 546 501 502
f 510 547 502
f 546 502 547
f 447 497 548
f 447 549 512
f 447 548 549
f 546 505 501
f 532 505 550
f 546 550 505
f 513 449 385
f 495 493 551
f 495 552 494
f 495 551 553
f 495 553 552
f 536 364 337
f 536 545 364
f 500 551 493
f 515 494 552
f 542 511 460
f 500 499 554
f 500 555 551
f 500 554 555
f 310 556 340
f 310 544 557
f 310 557 556
f 558 497 496
f 558 548 497
f 519 540 475
f 526 554 499
f 515 559 514
f 515 552 560
f 515 560 559
f 341 520 561
f 341 562 498
f 341 561 562
f 563 383 373
f 543 563 373
f 564 472 471
f 564 521 472
f 565 510 511
f 542 566 511
f 565 511 566
f 567 455 452
f 567 452 538
f 519 514 559
f 519 568 540
f 519 559 568
f 449 569 518
f 513 570 449
f 449 570 569
f 528 571 522
f 572 522 571
f 572 523 522
f 525 573 465
f 573 527 465
f 541 558 496
f 556 360 340
f 526 574 554
f 526 527 575
f 526 575 574
f 481 576 482
f 488 577 481
f 481 577 576
f 565 547 510
f 578 529 524
f 578 524 531
f 579 528 529
f 578 580 529
f 579 529 580
f 581 531 530
f 578 531 582
f 581 582 531
f 581 530 533
f 512 564 471
f 358 428 583
f 458 358 583
f 482 584 525
f 482 576 584
f 585 448 383
f 563 585 383
f 586 533 532
f 581 533 587
f 586 587 533
f 588 517 518
f 588 518 569
f 586 532 550
f 541 540 589
f 541 590 558
f 541 589 590
f 591 546 547
f 565 592 547
f 591 547 592
f 579 571 528
f 591 550 546
f 586 550 593
f 591 593 550
f 359 360 594
f 556 594 360
f 523 595 488
f 488 595 577
f 512 549 596
f 512 597 564
f 512 596 597
f 553 551 598
f 553 599 552
f 553 598 600
f 553 600 599
f 555 598 551
f 588 542 517
f 560 552 599
f 567 503 455
f 555 554 601
f 555 602 598
f 555 601 602
f 568 589 540
f 603 549 548
f 603 596 549
f 604 513 448
f 585 604 448
f 605 393 359
f 359 594 606
f 605 359 606
f 560 607 559
f 560 599 608
f 560 608 607
f 525 609 573
f 525 584 609
f 542 610 566
f 588 611 542
f 542 611 610
f 612 520 521
f 612 561 520
f 613 614 615
f 613 615 616
f 613 617 614
f 618 617 613
f 618 613 619
f 613 616 619
f 574 601 554
f 573 620 527
f 620 575 527
f 568 559 607
f 568 621 589
f 568 607 621
f 622 616 615
f 623 622 615
f 623 615 614
f 558 603 548
f 624 565 566
f 624 566 610
f 605 392 393
f 579 625 571
f 626 572 571
f 626 571 625
f 627 622 623
f 628 622 627
f 622 629 616
f 628 629 622
f 574 575 630
f 574 631 601
f 574 630 631
f 513 632 570
f 604 633 513
f 513 633 632
f 634 428 427
f 583 428 635
f 634 635 428
f 523 636 595
f 572 636 523
f 558 590 637
f 558 638 603
f 558 637 638
f 639 427 429
f 639 634 427
f 627 576 577
f 628 627 577
f 628 577 595
f 624 592 565
f 640 614 617
f 618 641 617
f 640 617 641
f 618 619 642
f 643 619 616
f 643 642 619
f 627 644 576
f 627 623 644
f 645 623 614
f 645 614 640
f 618 646 641
f 618 642 646
f 639 429 444
f 564 612 521
f 647 581 587
f 648 587 586
f 648 649 587
f 647 587 649
f 650 504 503
f 567 650 503
f 651 578 582
f 651 580 578
f 647 582 581
f 647 652 582
f 651 582 652
f 653 579 580
f 651 654 580
f 653 580 654
f 648 586 593
f 392 655 484
f 605 656 392
f 392 656 655
f 643 616 629
f 657 591 592
f 624 658 592
f 657 592 658
f 659 569 570
f 659 570 632
f 573 660 620
f 573 609 660
f 657 593 591
f 648 593 661
f 657 661 593
f 662 590 589
f 662 637 590
f 644 584 576
f 644 623 645
f 653 625 579
f 663 628 595
f 663 595 636
f 463 664 444
f 639 444 664
f 663 629 628
f 643 629 665
f 663 665 629
f 644 666 584
f 644 645 666
f 600 598 667
f 600 668 599
f 600 669 668
f 600 667 669
f 602 667 598
f 564 597 670
f 564 671 612
f 564 670 671
f 659 588 569
f 608 599 668
f 479 504 672
f 650 672 504
f 620 673 575
f 630 575 673
f 621 662 589
f 674 539 537
f 675 538 539
f 674 675 539
f 489 485 676
f 485 487 677
f 485 677 676
f 489 678 490
f 489 676 679
f 489 679 678
f 479 680 480
f 479 672 681
f 479 681 680
f 463 509 682
f 463 683 664
f 463 682 683
f 684 487 486
f 684 677 487
f 484 685 516
f 484 655 685
f 602 601 686
f 602 687 667
f 602 686 687
f 608 688 607
f 608 668 689
f 608 689 688
f 690 641 646
f 691 640 641
f 690 692 641
f 691 641 692
f 693 646 642
f 693 690 646
f 680 492 480
f 694 597 596
f 694 670 597
f 588 695 611
f 659 696 588
f 588 696 695
f 621 607 688
f 621 697 662
f 621 688 697
f 498 684 486
f 666 609 584
f 645 640 691
f 698 642 643
f 698 693 642
f 699 509 508
f 699 682 509
f 458 700 462
f 458 583 701
f 458 701 700
f 491 492 702
f 680 702 492
f 462 703 474
f 462 700 703
f 674 537 545
f 631 686 601
f 572 704 636
f 626 704 572
f 705 610 611
f 705 611 695
f 620 706 673
f 620 660 706
f 603 694 596
f 698 643 665
f 653 707 625
f 708 626 625
f 708 625 707
f 516 709 543
f 516 685 709
f 666 645 710
f 645 691 710
f 703 507 474
f 498 562 711
f 498 711 712
f 498 712 684
f 713 567 538
f 675 713 538
f 699 508 491
f 666 714 609
f 666 710 714
f 715 663 636
f 715 636 704
f 705 624 610
f 491 702 716
f 699 491 716
f 603 638 717
f 603 718 694
f 603 717 718
f 719 545 536
f 674 545 719
f 535 720 536
f 719 536 720
f 715 665 663
f 698 665 721
f 715 721 665
f 631 630 722
f 631 723 686
f 631 722 723
f 624 724 658
f 705 725 624
f 624 725 724
f 506 507 726
f 703 726 507
f 727 638 637
f 727 717 638
f 660 609 714
f 562 561 728
f 562 728 711
f 543 729 563
f 543 709 729
f 534 730 535
f 535 730 720
f 731 692 690
f 693 732 690
f 731 690 732
f 691 692 731
f 733 657 658
f 733 658 724
f 734 649 648
f 735 647 649
f 734 736 649
f 735 649 736
f 734 648 661
f 733 661 657
f 733 737 661
f 734 661 737
f 662 727 637
f 735 652 647
f 738 654 651
f 739 653 654
f 738 740 654
f 739 654 740
f 563 741 585
f 563 729 741
f 742 544 506
f 506 726 743
f 742 506 743
f 738 651 652
f 735 744 652
f 738 652 744
f 630 673 745
f 745 673 706
f 728 561 612
f 691 746 710
f 691 731 747
f 691 747 746
f 748 693 698
f 693 749 732
f 748 749 693
f 739 707 653
f 490 750 534
f 490 678 750
f 585 751 604
f 585 741 751
f 630 745 752
f 630 752 722
f 534 750 730
f 662 697 753
f 662 754 727
f 662 753 754
f 755 714 710
f 660 714 755
f 604 756 633
f 604 751 756
f 669 757 668
f 669 667 758
f 669 759 757
f 669 758 759
f 689 668 757
f 567 760 650
f 713 761 567
f 567 761 760
f 748 698 721
f 755 710 746
f 687 758 667
f 689 762 688
f 689 757 763
f 689 763 762
f 626 764 704
f 765 715 704
f 765 704 764
f 766 632 633
f 766 633 756
f 742 557 544
f 671 767 612
f 728 612 767
f 762 697 688
f 762 753 697
f 687 686 768
f 687 769 758
f 687 768 769
f 660 755 770
f 660 770 706
f 708 764 626
f 766 659 632
f 765 721 715
f 748 721 771
f 765 771 721
f 659 772 696
f 766 773 659
f 659 773 772
f 671 670 774
f 671 775 767
f 671 774 775
f 556 557 776
f 742 776 557
f 777 708 707
f 739 778 707
f 777 707 778
f 779 695 696
f 779 696 772
f 774 670 694
f 731 732 780
f 780 732 749
f 723 768 686
f 583 635 781
f 701 583 781
f 745 706 782
f 745 783 752
f 745 782 783
f 779 705 695
f 556 784 594
f 556 785 784
f 556 776 785
f 731 786 747
f 731 780 787
f 731 787 786
f 718 788 694
f 774 694 788
f 755 746 789
f 755 789 770
f 705 790 725
f 779 791 705
f 705 791 790
f 792 749 748
f 780 749 793
f 792 793 749
f 718 717 794
f 718 795 788
f 718 794 795
f 789 746 747
f 789 747 786
f 650 796 672
f 650 760 796
f 782 706 770
f 797 724 725
f 797 725 790
f 727 794 717
f 798 765 764
f 708 799 764
f 798 764 799
f 784 606 594
f 797 733 724
f 727 754 800
f 727 801 794
f 727 800 801
f 733 802 737
f 797 803 733
f 733 803 802
f 804 734 737
f 804 737 802
f 804 736 734
f 723 722 805
f 723 806 768
f 723 805 806
f 792 748 771
f 807 735 736
f 804 808 736
f 807 736 808
f 809 754 753
f 809 800 754
f 807 744 735
f 796 681 672
f 798 771 765
f 792 771 810
f 798 810 771
f 811 738 744
f 807 812 744
f 811 744 812
f 605 606 813
f 784 813 606
f 811 740 738
f 814 739 740
f 811 815 740
f 814 740 815
f 816 722 752
f 816 805 722
f 777 799 708
f 817 763 757
f 759 817 757
f 762 763 818
f 817 818 763
f 762 809 753
f 814 778 739
f 762 819 809
f 762 818 819
f 759 758 820
f 759 821 817
f 759 820 821
f 822 713 675
f 823 675 674
f 822 675 823
f 680 681 824
f 796 824 681
f 769 820 758
f 825 635 634
f 781 635 825
f 826 634 639
f 825 634 826
f 827 656 605
f 827 605 828
f 605 813 828
f 782 770 829
f 789 829 770
f 816 752 783
f 780 793 830
f 780 831 787
f 780 830 832
f 780 832 831
f 833 761 713
f 833 713 822
f 782 829 834
f 782 834 783
f 769 768 835
f 769 836 820
f 769 835 836
f 674 719 837
f 823 674 838
f 674 837 838
f 639 664 839
f 826 639 840
f 639 839 840
f 827 655 656
f 841 777 778
f 814 842 778
f 841 778 842
f 719 720 843
f 719 843 837
f 680 844 702
f 680 824 845
f 680 845 844
f 730 843 720
f 830 793 792
f 846 786 787
f 846 787 831
f 728 767 847
f 728 848 711
f 728 847 849
f 728 849 848
f 847 767 775
f 789 786 846
f 789 850 829
f 789 846 850
f 851 798 799
f 777 852 799
f 851 799 852
f 853 679 676
f 679 854 678
f 853 855 679
f 679 855 854
f 856 676 677
f 856 853 676
f 685 655 857
f 827 857 655
f 839 664 683
f 858 712 711
f 858 711 848
f 833 760 761
f 774 859 775
f 847 775 859
f 860 766 756
f 766 861 773
f 766 862 861
f 860 862 766
f 863 756 751
f 863 860 756
f 835 768 806
f 864 772 773
f 864 773 861
f 856 677 684
f 865 751 741
f 865 863 751
f 774 788 866
f 774 867 859
f 774 866 867
f 864 779 772
f 844 716 702
f 868 684 712
f 856 684 868
f 869 709 685
f 685 857 870
f 869 685 870
f 792 810 871
f 830 792 872
f 792 871 872
f 868 712 858
f 779 873 791
f 779 874 873
f 864 874 779
f 851 810 798
f 795 866 788
f 875 790 791
f 875 797 790
f 875 791 873
f 801 876 794
f 795 794 876
f 877 683 682
f 839 683 878
f 877 878 683
f 797 879 803
f 875 880 797
f 797 880 879
f 801 800 881
f 801 882 876
f 801 881 882
f 795 876 883
f 795 883 866
f 884 741 729
f 884 865 741
f 885 802 803
f 885 803 879
f 885 804 802
f 851 871 810
f 869 729 709
f 809 881 800
f 834 829 850
f 804 886 808
f 885 887 804
f 804 887 886
f 816 783 888
f 834 888 783
f 869 884 729
f 750 889 730
f 730 889 843
f 796 760 890
f 833 890 760
f 841 852 777
f 891 805 816
f 891 816 888
f 892 807 808
f 892 808 886
f 809 819 893
f 809 894 881
f 809 893 894
f 699 716 895
f 844 895 716
f 896 819 818
f 817 896 818
f 896 893 819
f 877 682 699
f 892 812 807
f 817 821 897
f 817 898 896
f 817 897 898
f 899 811 812
f 892 900 812
f 899 812 900
f 899 815 811
f 901 814 815
f 899 902 815
f 901 815 902
f 699 895 903
f 877 699 903
f 700 701 904
f 701 781 904
f 830 905 832
f 906 831 832
f 906 832 905
f 891 806 805
f 835 806 907
f 891 907 806
f 908 821 820
f 908 897 821
f 796 909 824
f 796 890 910
f 796 910 909
f 703 700 911
f 700 904 911
f 901 842 814
f 836 908 820
f 846 912 850
f 834 850 912
f 830 872 913
f 830 914 905
f 830 913 914
f 915 851 852
f 841 916 852
f 915 852 916
f 836 835 917
f 836 918 908
f 836 917 918
f 703 919 726
f 703 911 920
f 703 920 919
f 846 831 906
f 909 845 824
f 921 841 842
f 901 922 842
f 921 842 922
f 846 923 912
f 846 906 923
f 678 924 750
f 750 924 889
f 833 822 925
f 822 823 926
f 822 926 925
f 919 743 726
f 678 854 924
f 927 890 833
f 833 925 928
f 927 833 928
f 834 929 888
f 834 912 930
f 834 930 929
f 917 835 907
f 913 872 871
f 915 871 851
f 891 888 929
f 847 859 931
f 847 932 849
f 847 931 933
f 847 933 932
f 875 934 880
f 935 879 880
f 935 880 934
f 936 875 873
f 875 937 934
f 936 937 875
f 935 885 879
f 882 938 876
f 882 881 939
f 882 939 940
f 882 940 938
f 867 931 859
f 823 838 941
f 823 941 926
f 942 861 862
f 860 943 862
f 942 862 943
f 944 848 849
f 944 849 932
f 945 837 843
f 946 838 837
f 945 946 837
f 843 889 945
f 885 947 887
f 935 948 885
f 885 948 947
f 883 876 938
f 942 864 861
f 946 941 838
f 894 939 881
f 936 873 874
f 844 845 949
f 909 949 845
f 913 871 950
f 915 950 871
f 863 951 860
f 860 951 943
f 742 743 952
f 919 952 743
f 864 953 874
f 864 954 953
f 942 954 864
f 867 866 955
f 867 956 931
f 867 955 956
f 936 874 953
f 883 955 866
f 883 938 957
f 883 957 955
f 958 886 887
f 958 887 947
f 894 893 959
f 894 960 939
f 894 959 960
f 921 916 841
f 927 910 890
f 896 959 893
f 958 892 886
f 896 898 961
f 896 962 959
f 896 961 962
f 865 963 863
f 863 963 951
f 827 828 964
f 965 857 827
f 965 827 966
f 827 964 966
f 892 967 900
f 958 968 892
f 892 968 967
f 969 776 742
f 969 742 970
f 742 952 970
f 971 828 813
f 971 964 828
f 972 898 897
f 972 961 898
f 965 870 857
f 930 912 923
f 973 899 900
f 973 900 967
f 784 971 813
f 781 825 974
f 904 781 974
f 784 785 975
f 784 976 971
f 784 975 976
f 973 902 899
f 914 977 905
f 906 905 977
f 969 785 776
f 969 975 785
f 908 972 897
f 858 848 944
f 891 978 907
f 917 907 978
f 979 901 902
f 973 980 902
f 979 902 980
f 909 910 981
f 927 981 910
f 869 870 982
f 965 982 870
f 914 913 983
f 914 984 977
f 914 983 984
f 985 915 916
f 921 986 916
f 985 916 986
f 979 922 901
f 908 918 987
f 908 988 972
f 908 987 988
f 989 865 884
f 865 990 963
f 989 990 865
f 844 991 895
f 844 949 992
f 844 992 991
f 906 993 923
f 906 977 994
f 906 994 993
f 995 918 917
f 995 987 918
f 930 923 993
f 891 929 996
f 930 996 929
f 989 884 869
f 869 982 997
f 989 869 997
f 998 928 925
f 998 925 926
f 891 999 978
f 891 996 1000
f 891 1000 999
f 1001 921 922
f 979 1002 922
f 1001 922 1002
f 927 928 1003
f 998 1003 928
f 909 1004 949
f 909 981 1005
f 909 1005 1004
f 825 826 1006
f 974 825 1007
f 825 1006 1007
f 868 858 1008
f 858 944 1008
f 1009 855 853
f 1010 853 856
f 1009 853 1010
f 855 1011 854
f 855 1009 1011
f 826 840 1012
f 826 1012 1006
f 1013 934 937
f 1013 935 934
f 995 917 978
f 936 1014 937
f 1013 937 1014
f 889 1015 945
f 924 1015 889
f 983 913 950
f 985 950 915
f 935 1016 948
f 1013 1017 935
f 935 1017 1016
f 856 868 1018
f 1010 856 1019
f 856 1018 1019
f 940 939 1020
f 940 1021 938
f 940 1020 1022
f 940 1022 1021
f 1023 947 948
f 1023 948 1016
f 960 1020 939
f 839 1012 840
f 1024 936 953
f 936 1025 1014
f 1024 1025 936
f 957 938 1021
f 868 1008 1018
f 1023 958 947
f 960 959 1026
f 960 1027 1020
f 960 1026 1027
f 1028 926 941
f 946 1028 941
f 985 1029 950
f 983 950 1029
f 933 931 1030
f 933 1031 932
f 933 1030 1032
f 933 1032 1031
f 998 926 1033
f 1028 1033 926
f 991 903 895
f 962 1026 959
f 1024 953 954
f 1034 981 927
f 927 1003 1035
f 1034 927 1035
f 1001 986 921
f 958 1036 968
f 1023 1037 958
f 958 1037 1036
f 957 1038 955
f 957 1021 1039
f 957 1039 1038
f 942 1040 954
f 1024 954 1040
f 1041 942 943
f 942 1042 1040
f 1041 1042 942
f 956 1030 931
f 1041 943 951
f 951 963 1043
f 1041 951 1044
f 951 1043 1044
f 945 1045 946
f 946 1045 1028
f 945 1015 1045
f 930 993 1046
f 930 1047 996
f 930 1046 1047
f 956 955 1038
f 956 1038 1048
f 956 1048 1030
f 962 961 1049
f 962 1050 1026
f 962 1049 1050
f 839 878 1051
f 839 1052 1012
f 839 1051 1052
f 1053 967 968
f 1053 968 1036
f 944 932 1031
f 1004 992 949
f 1053 973 967
f 973 1054 980
f 1053 1055 973
f 973 1055 1054
f 972 1049 961
f 1056 963 990
f 1056 1043 963
f 972 988 1057
f 972 1058 1049
f 972 1057 1058
f 1059 979 980
f 1059 980 1054
f 995 978 1060
f 1060 978 999
f 1034 1005 981
f 1061 985 986
f 1001 1062 986
f 1061 986 1062
f 1063 988 987
f 1063 1057 988
f 1051 878 877
f 984 1064 977
f 994 977 1064
f 877 903 1065
f 991 1065 903
f 1066 987 995
f 1066 1063 987
f 994 1046 993
f 1059 1002 979
f 965 966 1067
f 1068 982 965
f 965 1067 1069
f 1068 965 1069
f 1070 966 964
f 1070 1067 966
f 1071 998 1033
f 998 1072 1003
f 1071 1073 998
f 998 1073 1072
f 1074 1013 1014
f 1013 1075 1017
f 1013 1076 1075
f 1074 1076 1013
f 984 983 1077
f 984 1078 1064
f 984 1077 1078
f 994 1079 1046
f 994 1064 1079
f 1047 1000 996
f 1074 1014 1025
f 877 1065 1080
f 1051 877 1080
f 1028 1071 1033
f 1081 1016 1017
f 1081 1017 1075
f 971 1070 964
f 1081 1023 1016
f 1056 990 989
f 1072 1035 1003
f 1068 997 982
f 1082 1001 1002
f 1059 1083 1002
f 1082 1002 1083
f 1066 995 1060
f 1023 1084 1037
f 1081 1085 1023
f 1023 1085 1084
f 1022 1020 1086
f 1027 1086 1020
f 1022 1087 1021
f 1022 1086 1088
f 1022 1088 1087
f 1089 1025 1024
f 1074 1025 1090
f 1089 1090 1025
f 854 1091 924
f 924 1091 1015
f 1004 1092 992
f 991 992 1092
f 1004 1005 1093
f 1034 1093 1005
f 944 1031 1094
f 944 1095 1008
f 944 1094 1095
f 971 976 1096
f 971 1097 1070
f 971 1096 1097
f 1027 1026 1098
f 1027 1099 1086
f 1027 1098 1099
f 1028 1045 1100
f 1028 1101 1071
f 1028 1100 1101
f 1061 1029 985
f 1102 1036 1037
f 1102 1037 1084
f 1077 983 1029
f 1039 1021 1087
f 989 997 1103
f 1056 989 1104
f 989 1103 1104
f 1068 1103 997
f 1089 1024 1040
f 1050 1098 1026
f 1041 1044 1105
f 1106 1044 1043
f 1106 1105 1044
f 1060 999 1107
f 1108 999 1000
f 1108 1107 999
f 1032 1030 1109
f 1032 1110 1031
f 1032 1109 1111
f 1032 1111 1110
f 1112 1040 1042
f 1089 1040 1113
f 1112 1113 1040
f 1112 1042 1041
f 1047 1046 1114
f 1047 1115 1000
f 1047 1114 1115
f 1102 1053 1036
f 1039 1116 1038
f 1039 1087 1117
f 1039 1117 1116
f 1041 1105 1118
f 1112 1041 1118
f 1050 1049 1119
f 1050 1119 1120
f 1050 1120 1098
f 1034 1035 1121
f 1072 1121 1035
f 1082 1062 1001
f 1061 1122 1029
f 1077 1029 1122
f 1053 1123 1055
f 1124 1054 1055
f 1124 1055 1123
f 1058 1119 1049
f 1048 1038 1116
f 1048 1109 1030
f 1048 1125 1109
f 1048 1116 1125
f 854 1011 1091
f 1126 976 975
f 1126 1096 976
f 1102 1127 1053
f 1053 1127 1123
f 1058 1057 1128
f 1058 1129 1119
f 1058 1128 1129
f 1124 1059 1054
f 1130 911 904
f 904 974 1131
f 1130 904 1131
f 1045 1015 1091
f 1045 1091 1100
f 1132 920 911
f 1132 911 1130
f 1133 1075 1076
f 1134 1076 1074
f 1133 1076 1135
f 1134 1135 1076
f 1128 1057 1063
f 1066 1136 1063
f 1128 1063 1136
f 1094 1031 1110
f 1133 1081 1075
f 1081 1137 1085
f 1081 1138 1137
f 1133 1138 1081
f 1134 1074 1090
f 1106 1043 1056
f 1066 1060 1139
f 1140 1060 1107
f 1140 1139 1060
f 1071 1141 1073
f 1072 1073 1141
f 1142 1084 1085
f 1142 1085 1137
f 1071 1101 1143
f 1071 1144 1141
f 1071 1143 1144
f 1004 1093 1145
f 1004 1146 1092
f 1004 1145 1146
f 1126 975 969
f 1147 1061 1062
f 1082 1148 1062
f 1147 1062 1148
f 1079 1114 1046
f 1134 1090 1149
f 1150 1090 1089
f 1150 1149 1090
f 991 1092 1151
f 991 1152 1065
f 991 1151 1152
f 1059 1153 1083
f 1124 1154 1059
f 1059 1154 1153
f 1142 1102 1084
f 1088 1086 1135
f 1099 1135 1086
f 1115 1108 1000
f 1088 1135 1134
f 1088 1134 1149
f 1088 1149 1087
f 1142 1119 1129
f 1120 1119 1142
f 1155 1093 1034
f 1034 1121 1156
f 1155 1034 1156
f 1066 1157 1136
f 1158 1157 1066
f 1158 1066 1139
f 1142 1129 1159
f 1128 1159 1129
f 1160 1018 1008
f 1160 1008 1095
f 1120 1142 1137
f 1120 1137 1138
f 1120 1138 1098
f 1099 1133 1135
f 919 920 1132
f 1142 1159 1102
f 1099 1098 1138
f 1099 1138 1133
f 1161 1118 1105
f 1161 1105 1106
f 1102 1159 1162
f 1102 1162 1127
f 1150 1089 1113
f 1163 1113 1112
f 1163 1112 1118
f 1111 1109 1164
f 1111 1164 1161
f 1111 1161 1165
f 1111 1165 1110
f 1072 1141 1166
f 1072 1167 1121
f 1072 1166 1167
f 1079 1064 1168
f 1078 1168 1064
f 1079 1169 1114
f 1079 1168 1169
f 1128 1162 1159
f 1128 1136 1170
f 1128 1170 1162
f 1163 1171 1113
f 1150 1113 1171
f 1125 1164 1109
f 1125 1171 1163
f 1125 1163 1164
f 1125 1116 1171
f 1170 1136 1157
f 1163 1118 1164
f 1161 1164 1118
f 1172 1082 1083
f 1172 1083 1153
f 1170 1124 1123
f 1170 1173 1124
f 1124 1173 1174
f 1124 1174 1154
f 1170 1123 1127
f 1170 1127 1162
f 1117 1087 1149
f 1011 1009 1010
f 1175 1010 1019
f 1011 1010 1175
f 1106 1056 1176
f 1056 1104 1177
f 1056 1177 1176
f 969 970 1178
f 1126 969 1179
f 969 1178 1179
f 1117 1149 1150
f 1180 1069 1067
f 1068 1069 1181
f 1180 1181 1069
f 919 1182 952
f 919 1132 1183
f 919 1183 1182
f 1078 1077 1184
f 1078 1185 1168
f 1078 1184 1185
f 1147 1122 1061
f 1108 1140 1107
f 1117 1171 1116
f 1117 1150 1171
f 1161 1106 1165
f 1143 1019 1018
f 1143 1018 1160
f 1175 1101 1100
f 1175 1143 1101
f 1070 1180 1067
f 1170 1157 1173
f 1175 1019 1143
f 1186 1103 1068
f 1068 1181 1187
f 1186 1068 1187
f 1115 1188 1108
f 1115 1114 1189
f 1115 1189 1188
f 1094 1110 1190
f 1094 1190 1191
f 1094 1191 1095
f 974 1007 1192
f 1131 974 1192
f 1158 1173 1157
f 1106 1193 1165
f 1106 1176 1193
f 1186 1104 1103
f 1186 1177 1104
f 1141 1144 1160
f 1194 1166 1141
f 1194 1141 1160
f 1070 1097 1195
f 1070 1196 1180
f 1070 1195 1196
f 1140 1158 1139
f 1158 1174 1173
f 1190 1110 1165
f 1184 1077 1122
f 1155 1145 1093
f 1146 1151 1092
f 1152 1080 1065
f 1182 970 952
f 1197 1007 1006
f 1197 1198 1007
f 1192 1007 1198
f 1172 1148 1082
f 1144 1143 1160
f 1199 1006 1012
f 1199 1197 1006
f 1167 1156 1121
f 1182 1178 970
f 1147 1200 1122
f 1184 1122 1200
f 1201 1154 1174
f 1201 1153 1154
f 1108 1202 1140
f 1108 1188 1203
f 1108 1203 1202
f 1052 1199 1012
f 1204 1147 1148
f 1172 1205 1148
f 1204 1148 1205
f 1190 1165 1193
f 1206 1097 1096
f 1206 1195 1097
f 1011 1100 1091
f 1011 1175 1100
f 1169 1189 1114
f 1052 1051 1207
f 1052 1207 1208
f 1052 1208 1199
f 1158 1201 1174
f 1140 1209 1158
f 1158 1209 1201
f 1190 1193 1210
f 1190 1210 1191
f 1201 1172 1153
f 1051 1080 1211
f 1152 1211 1080
f 1051 1211 1207
f 1140 1212 1209
f 1140 1202 1212
f 1167 1166 1194
f 1155 1213 1145
f 1146 1145 1213
f 1206 1096 1126
f 1210 1176 1177
f 1210 1193 1176
f 1169 1168 1214
f 1169 1215 1189
f 1169 1214 1215
f 1167 1216 1156
f 1155 1156 1216
f 1185 1214 1168
f 1185 1184 1217
f 1185 1218 1214
f 1185 1217 1218
f 1204 1200 1147
f 1219 1188 1189
f 1219 1203 1188
f 1146 1220 1151
f 1152 1151 1220
f 1160 1095 1191
f 1160 1191 1221
f 1222 1194 1160
f 1222 1160 1221
f 1223 1187 1181
f 1180 1223 1181
f 1186 1187 1224
f 1223 1224 1187
f 1210 1177 1186
f 1210 1186 1225
f 1186 1224 1225
f 1126 1179 1226
f 1206 1126 1227
f 1126 1226 1227
f 1201 1209 1212
f 1201 1228 1172
f 1201 1212 1228
f 1172 1229 1205
f 1172 1228 1229
f 1180 1196 1230
f 1180 1231 1223
f 1180 1230 1231
f 1232 1204 1205
f 1232 1205 1229
f 1210 1221 1191
f 1184 1200 1233
f 1204 1233 1200
f 1184 1233 1217
f 1234 1202 1203
f 1234 1212 1202
f 1167 1194 1235
f 1167 1236 1216
f 1167 1235 1236
f 1237 1196 1195
f 1237 1230 1196
f 1215 1219 1189
f 1155 1216 1238
f 1239 1213 1155
f 1239 1155 1238
f 1146 1213 1240
f 1146 1241 1220
f 1146 1240 1241
f 1152 1242 1211
f 1152 1220 1243
f 1152 1243 1242
f 1244 1179 1178
f 1244 1226 1179
f 1210 1225 1221
f 1237 1195 1206
f 1222 1235 1194
f 1232 1233 1204
f 1219 1234 1203
f 1222 1225 1224
f 1222 1221 1225
f 1215 1214 1245
f 1215 1246 1219
f 1215 1245 1246
f 1247 1214 1218
f 1247 1218 1217
f 1223 1222 1224
f 1247 1245 1214
f 1234 1229 1228
f 1234 1228 1212
f 1223 1231 1248
f 1223 1249 1222
f 1223 1248 1249
f 1234 1232 1229
f 1236 1238 1216
f 1239 1240 1213
f 1130 1131 1250
f 1131 1192 1250
f 1206 1227 1251
f 1237 1206 1252
f 1206 1251 1252
f 1242 1207 1211
f 1132 1130 1253
f 1130 1250 1253
f 1254 1231 1230
f 1254 1248 1231
f 1241 1243 1220
f 1233 1255 1217
f 1232 1256 1233
f 1233 1256 1255
f 1182 1244 1178
f 1247 1217 1255
f 1208 1207 1257
f 1242 1257 1207
f 1258 1183 1132
f 1132 1253 1259
f 1258 1132 1259
f 1197 1260 1198
f 1199 1261 1197
f 1197 1261 1260
f 1192 1198 1262
f 1262 1198 1260
f 1222 1249 1235
f 1219 1263 1234
f 1234 1263 1232
f 1199 1208 1264
f 1199 1264 1265
f 1199 1265 1261
f 1208 1257 1264
f 1219 1246 1266
f 1219 1266 1263
f 1254 1230 1237
f 1267 1227 1226
f 1267 1251 1227
f 1182 1183 1258
f 1250 1192 1262
f 1236 1235 1249
f 1268 1245 1247
f 1268 1247 1255
f 1182 1269 1244
f 1182 1258 1269
f 1236 1249 1248
f 1232 1266 1256
f 1232 1263 1266
f 1236 1270 1238
f 1239 1238 1270
f 1239 1271 1240
f 1241 1240 1271
f 1266 1246 1245
f 1266 1245 1268
f 1237 1252 1272
f 1254 1237 1273
f 1237 1272 1273
f 1236 1248 1254
f 1242 1243 1274
f 1241 1274 1243
f 1256 1268 1255
f 1256 1266 1268
f 1236 1254 1270
f 1244 1267 1226
f 1275 1252 1251
f 1275 1272 1252
f 1254 1276 1270
f 1254 1273 1276
f 1239 1270 1276
f 1277 1271 1239
f 1277 1239 1276
f 1242 1278 1257
f 1242 1274 1279
f 1242 1279 1278
f 1241 1271 1280
f 1241 1281 1274
f 1241 1280 1281
f 1267 1275 1251
f 1277 1273 1272
f 1277 1276 1273
f 1244 1269 1282
f 1244 1283 1267
f 1244 1282 1283
f 1278 1264 1257
f 1265 1264 1284
f 1278 1284 1264
f 1277 1280 1271
f 1275 1277 1272
f 1281 1279 1274
f 1261 1265 1285
f 1265 1284 1285
f 1260 1261 1286
f 1261 1285 1286
f 1262 1260 1287
f 1260 1286 1288
f 1287 1260 1288
f 1282 1269 1258
f 1267 1289 1275
f 1267 1283 1290
f 1267 1290 1289
f 1291 1253 1250
f 1250 1262 1291
f 1292 1259 1253
f 1291 1292 1253
f 1258 1259 1293
f 1282 1258 1294
f 1258 1293 1294
f 1292 1293 1259
f 1291 1262 1287
f 1278 1279 1295
f 1281 1295 1279
f 1275 1296 1277
f 1275 1289 1297
f 1275 1297 1296
f 1277 1296 1280
f 1281 1280 1296
f 1298 1283 1282
f 1298 1290 1283
f 1278 1299 1284
f 1278 1295 1300
f 1278 1300 1299
f 1301 1289 1290
f 1301 1297 1289
f 1281 1296 1297
f 1299 1285 1284
f 1298 1282 1294
f 1281 1297 1301
f 1281 1301 1295
f 1285 1302 1286
f 1299 1303 1285
f 1285 1303 1302
f 1286 1304 1288
f 1286 1302 1304
f 1301 1290 1298
f 1305 1294 1293
f 1298 1294 1306
f 1305 1306 1294
f 1287 1288 1304
f 1301 1300 1295
f 1305 1293 1292
f 1307 1292 1291
f 1305 1292 1307
f 1291 1287 1308
f 1308 1287 1304
f 1307 1291 1308
f 1301 1298 1309
f 1298 1306 1310
f 1298 1310 1309
f 1301 1309 1300
f 1299 1300 1309
f 1299 1311 1303
f 1299 1309 1310
f 1299 1310 1311
f 1311 1306 1305
f 1311 1310 1306
f 1311 1302 1303
f 1311 1305 1307
f 1312 1304 1302
f 1311 1312 1302
f 1308 1304 1313
f 1312 1313 1304
f 1312 1307 1308
f 1311 1307 1312
f 1312 1308 1313
