# 
# Wavefront OBJ file
# Created with Kaydara FBX
# 
mtllib c:\users\tjvan\onedrive\documenten\fontys\minor\nx\.mtlmodels\deep_femoral_vein.r.obj

g Deep_femoral_vein_r
v -0.079089 0.606136 -0.013571
v -0.079935 0.604106 -0.013927
v -0.079948 0.604182 -0.014323
v -0.079105 0.606210 -0.013986
v -0.079775 0.604167 -0.014688
v -0.078880 0.605994 -0.013233
v -0.079740 0.603960 -0.013605
v -0.078923 0.606198 -0.014367
v -0.079463 0.604066 -0.014923
v -0.078534 0.605824 -0.013061
v -0.079415 0.603782 -0.013444
v -0.078592 0.606102 -0.014611
v -0.079095 0.603905 -0.014966
v -0.078143 0.605670 -0.013104
v -0.079047 0.603621 -0.013487
v -0.078201 0.605948 -0.014654
v -0.078770 0.603728 -0.014805
v -0.078326 0.608187 -0.013237
v -0.078104 0.608051 -0.012882
v -0.078345 0.608259 -0.013671
v -0.077813 0.605574 -0.013348
v -0.078735 0.603520 -0.013722
v -0.078153 0.608250 -0.014068
v -0.077737 0.607888 -0.012701
v -0.077855 0.605777 -0.014482
v -0.078575 0.603581 -0.014483
v -0.077631 0.605561 -0.013729
v -0.078562 0.603505 -0.014086
v -0.077804 0.608160 -0.014321
v -0.077646 0.605636 -0.014144
v -0.077323 0.607742 -0.012742
v -0.077647 0.610253 -0.012922
v -0.077667 0.610325 -0.013375
v -0.077411 0.610123 -0.012550
v -0.077390 0.608014 -0.014363
v -0.076974 0.607653 -0.012996
v -0.077466 0.610318 -0.013787
v -0.077023 0.609970 -0.012359
v -0.077023 0.607852 -0.014182
v -0.076782 0.607643 -0.013392
v -0.077098 0.610236 -0.014050
v -0.076586 0.609834 -0.012400
v -0.077049 0.612331 -0.012622
v -0.077072 0.612401 -0.013094
v -0.076800 0.607716 -0.013827
v -0.076800 0.612207 -0.012234
v -0.076862 0.612399 -0.013523
v -0.076392 0.612064 -0.012033
v -0.076662 0.610100 -0.014091
v -0.076218 0.609752 -0.012662
v -0.076475 0.612326 -0.013794
v -0.076534 0.614415 -0.012336
v -0.076558 0.614484 -0.012827
v -0.076273 0.614298 -0.011931
v -0.076274 0.609947 -0.013900
v -0.075933 0.611939 -0.012073
v -0.076018 0.609746 -0.013075
v -0.076339 0.614488 -0.013271
v -0.076038 0.609817 -0.013528
v -0.075844 0.614166 -0.011720
v -0.076016 0.612201 -0.013834
v -0.075546 0.611866 -0.012344
v -0.076101 0.616500 -0.012060
v -0.076127 0.616569 -0.012569
v -0.075827 0.616391 -0.011639
v -0.075934 0.614425 -0.013551
v -0.076433 0.699296 0.000676
v -0.076470 0.687844 -0.002257
v -0.076482 0.699462 -0.000249
v -0.076071 0.687974 -0.003027
v -0.076424 0.687697 -0.001393
v -0.076359 0.675021 -0.004361
v -0.075989 0.675138 -0.005077
v -0.076364 0.709734 0.002631
v -0.076416 0.709920 0.001647
v -0.076055 0.699604 -0.001074
v -0.075922 0.699149 0.001451
v -0.076317 0.674891 -0.003558
v -0.075947 0.687571 -0.000668
v -0.075818 0.709567 0.003457
v -0.076237 0.719058 0.004458
v -0.076292 0.719264 0.003413
v -0.075960 0.710075 0.000766
v -0.075362 0.614054 -0.011760
v -0.076130 0.660946 -0.006544
v -0.075788 0.661050 -0.007205
v -0.075657 0.718870 0.005333
v -0.075897 0.616580 -0.013029
v -0.076091 0.660833 -0.005803
v -0.075874 0.674784 -0.002884
v -0.076072 0.727315 0.006139
v -0.076129 0.727540 0.005033
v -0.075807 0.719432 0.002478
v -0.075607 0.612058 -0.013633
v -0.075378 0.616271 -0.011418
v -0.075458 0.727105 0.007064
v -0.075336 0.611865 -0.012773
v -0.075749 0.618582 -0.011792
v -0.075777 0.618651 -0.012320
v -0.075761 0.645572 -0.008791
v -0.075449 0.645665 -0.009397
v -0.075889 0.734549 0.007657
v -0.075950 0.734792 0.006490
v -0.075616 0.727720 0.004043
v -0.075464 0.618481 -0.011354
v -0.075682 0.660743 -0.005179
v -0.075726 0.645475 -0.008111
v -0.075335 0.688051 -0.003499
v -0.075306 0.675211 -0.005514
v -0.075241 0.734319 0.008632
v -0.075266 0.699684 -0.001580
v -0.075358 0.611935 -0.013245
v -0.075453 0.614313 -0.013590
v -0.075158 0.661119 -0.007608
v -0.075084 0.699063 0.001870
v -0.075166 0.687500 -0.000275
v -0.075118 0.710158 0.000226
v -0.075709 0.740807 0.008995
v -0.075773 0.741065 0.007768
v -0.075407 0.734984 0.005445
v -0.074957 0.613992 -0.012040
v -0.075474 0.616529 -0.013318
v -0.074925 0.709464 0.003902
v -0.075538 0.618670 -0.012795
v -0.075027 0.740561 0.010021
v -0.075149 0.674728 -0.002518
v -0.074875 0.616173 -0.011457
v -0.074995 0.618375 -0.011123
v -0.074707 0.718749 0.005804
v -0.074912 0.719517 0.001903
v -0.074872 0.645729 -0.009766
v -0.075479 0.620656 -0.011528
v -0.075507 0.620726 -0.012074
v -0.075552 0.746134 0.010138
v -0.075619 0.746401 0.008848
v -0.075201 0.741266 0.006667
v -0.075234 0.628868 -0.011083
v -0.074950 0.628947 -0.011633
v -0.075182 0.620562 -0.011074
v -0.075352 0.645401 -0.007539
v -0.075202 0.628785 -0.010464
v -0.074835 0.745877 0.011216
v -0.075013 0.660699 -0.004841
v -0.074452 0.726967 0.007560
v -0.075024 0.614181 -0.013379
v -0.074668 0.727807 0.003434
v -0.075437 0.750585 0.011071
v -0.075507 0.750880 0.009722
v -0.075019 0.746606 0.007691
v -0.074738 0.613996 -0.012484
v -0.075259 0.620754 -0.012565
v -0.075097 0.618633 -0.013092
v -0.074688 0.750297 0.012196
v -0.075290 0.622716 -0.011267
v -0.075319 0.622788 -0.011831
v -0.074897 0.758417 0.012878
v -0.074878 0.751102 0.008511
v -0.074962 0.758779 0.011536
v -0.074971 0.616431 -0.013356
v -0.074695 0.620471 -0.010833
v -0.074981 0.622631 -0.010796
v -0.074426 0.629000 -0.011969
v -0.074180 0.734165 0.009154
v -0.074148 0.758054 0.013993
v -0.074407 0.735072 0.004801
v -0.074471 0.618292 -0.011161
v -0.074762 0.614065 -0.012974
v -0.074452 0.616123 -0.011745
v -0.074863 0.628720 -0.009944
v -0.074739 0.645369 -0.007227
v -0.074493 0.675220 -0.005555
v -0.074459 0.688054 -0.003544
v -0.075181 0.624759 -0.011004
v -0.075061 0.622827 -0.012337
v -0.075211 0.624833 -0.011587
v -0.074408 0.661134 -0.007645
v -0.074861 0.624682 -0.010517
v -0.074800 0.620732 -0.012870
v -0.074326 0.699681 -0.001630
v -0.075183 0.626857 -0.011339
v -0.074907 0.626923 -0.011875
v -0.073910 0.740392 0.010570
v -0.075152 0.626779 -0.010738
v -0.074944 0.624885 -0.012108
v -0.074148 0.741355 0.005988
v -0.074476 0.622555 -0.010544
v -0.074822 0.626710 -0.010234
v -0.074185 0.645748 -0.009799
v -0.074290 0.687503 -0.000321
v -0.074336 0.674737 -0.002559
v -0.074145 0.699059 0.001820
v -0.074116 0.710146 0.000172
v -0.074572 0.618550 -0.013130
v -0.073923 0.709452 0.003847
v -0.074585 0.622823 -0.012650
v -0.074522 0.616311 -0.013135
v -0.074263 0.660714 -0.004878
v -0.073662 0.745699 0.011793
v -0.073913 0.746695 0.006977
v -0.074149 0.620406 -0.010869
v -0.074338 0.624623 -0.010255
v -0.074223 0.616134 -0.012205
v -0.074451 0.624900 -0.012429
v -0.074398 0.626959 -0.012203
v -0.074085 0.765864 0.015117
v -0.074327 0.759041 0.010327
v -0.074142 0.766312 0.013792
v -0.073643 0.718729 0.005744
v -0.073847 0.719497 0.001843
v -0.073343 0.765403 0.016211
v -0.074029 0.618255 -0.011457
v -0.074282 0.626669 -0.009961
v -0.074306 0.628691 -0.009661
v -0.073802 0.629015 -0.011999
v -0.073719 0.751192 0.007762
v -0.073459 0.750092 0.012796
v -0.074254 0.620667 -0.012907
v -0.074248 0.616203 -0.012714
v -0.074053 0.645387 -0.007260
v -0.073325 0.726937 0.007495
v -0.073909 0.622509 -0.010580
v -0.072917 0.757787 0.014583
v -0.073540 0.727778 0.003369
v -0.074019 0.622777 -0.012685
v -0.074104 0.618444 -0.012899
v -0.073768 0.675164 -0.005189
v -0.073739 0.661090 -0.007306
v -0.073690 0.620384 -0.011174
v -0.073752 0.624598 -0.010288
v -0.073791 0.618274 -0.011933
v -0.073865 0.624874 -0.012462
v -0.073677 0.687983 -0.003152
v -0.072989 0.734126 0.009084
v -0.073793 0.626956 -0.012234
v -0.073572 0.645716 -0.009487
v -0.073216 0.735034 0.004731
v -0.073676 0.626666 -0.009993
v -0.073553 0.687580 -0.000792
v -0.073653 0.674810 -0.002996
v -0.073489 0.699594 -0.001211
v -0.073496 0.766628 0.012591
v -0.073160 0.759134 0.009574
v -0.073682 0.628705 -0.009692
v -0.073356 0.699139 0.001314
v -0.073818 0.618343 -0.012461
v -0.073767 0.620576 -0.012666
v -0.073633 0.660783 -0.005280
v -0.073246 0.628986 -0.011717
v -0.072657 0.740345 0.010495
v -0.073433 0.622505 -0.010892
v -0.073081 0.709535 0.003307
v -0.072895 0.741308 0.005913
v -0.072112 0.765054 0.016780
v -0.073055 0.772897 0.017699
v -0.073101 0.773424 0.016393
v -0.073222 0.710043 0.000617
v -0.072320 0.772350 0.018769
v -0.073475 0.645452 -0.007629
v -0.073441 0.620412 -0.011665
v -0.073513 0.622701 -0.012434
v -0.073259 0.624613 -0.010609
v -0.072748 0.718814 0.005170
v -0.072346 0.745648 0.011713
v -0.072597 0.746643 0.006898
v -0.073342 0.624815 -0.012200
v -0.072897 0.719377 0.002314
v -0.073470 0.620482 -0.012211
v -0.073253 0.626915 -0.011962
v -0.073331 0.661000 -0.006683
v -0.073325 0.675057 -0.004514
v -0.073168 0.626703 -0.010321
v -0.073198 0.645642 -0.008915
v -0.072341 0.751126 0.007677
v -0.073175 0.622544 -0.011399
v -0.073158 0.628759 -0.010027
v -0.073200 0.687857 -0.002426
v -0.073283 0.674927 -0.003712
v -0.073292 0.660888 -0.005941
v -0.073155 0.687710 -0.001563
v -0.072377 0.727025 0.006886
v -0.072081 0.750026 0.012711
v -0.072906 0.628921 -0.011196
v -0.072929 0.699282 0.000489
v -0.072535 0.727640 0.003866
v -0.073205 0.622616 -0.011963
v -0.072977 0.699448 -0.000435
v -0.072322 0.766727 0.011835
v -0.072445 0.773788 0.015201
v -0.073163 0.645545 -0.008235
v -0.071533 0.757686 0.014488
v -0.072992 0.624664 -0.011130
v -0.072625 0.709690 0.002427
v -0.073022 0.624738 -0.011713
v -0.071092 0.771929 0.019316
v -0.071989 0.734215 0.008441
v -0.072892 0.626769 -0.010857
v -0.072923 0.626846 -0.011457
v -0.072676 0.709876 0.001442
v -0.072155 0.734879 0.005254
v -0.072874 0.628838 -0.010578
v -0.071776 0.759033 0.009480
v -0.071860 0.779504 0.020539
v -0.071894 0.780100 0.019253
v -0.072263 0.718982 0.004235
v -0.071134 0.778881 0.021584
v -0.071603 0.740434 0.009817
v -0.070724 0.764910 0.016672
v -0.072317 0.719188 0.003190
v -0.071778 0.741139 0.006462
v -0.071863 0.727205 0.005896
v -0.071240 0.745736 0.010999
v -0.071424 0.746465 0.007474
v -0.071921 0.727430 0.004791
v -0.071262 0.773894 0.014443
v -0.071226 0.780508 0.018071
v -0.071446 0.734406 0.007395
v -0.070922 0.750116 0.011962
v -0.071112 0.750922 0.008277
v -0.070934 0.766583 0.011727
v -0.069909 0.778397 0.022109
v -0.071507 0.734649 0.006229
v -0.069701 0.771747 0.019194
v -0.070366 0.757779 0.013735
v -0.071032 0.740635 0.008716
v -0.070552 0.785669 0.023550
v -0.070574 0.786326 0.022284
v -0.069834 0.784980 0.024572
v -0.071096 0.740893 0.007488
v -0.070544 0.758766 0.010069
v -0.070640 0.745942 0.009842
v -0.069550 0.765009 0.015916
v -0.070708 0.746208 0.008552
v -0.070035 0.780620 0.017310
v -0.069871 0.773711 0.014321
v -0.070293 0.750339 0.010751
v -0.069894 0.786773 0.021113
v -0.068613 0.784442 0.025075
v -0.070363 0.750633 0.009402
v -0.068515 0.778182 0.021973
v -0.069703 0.766234 0.012296
v -0.069731 0.758041 0.012526
v -0.068519 0.771852 0.018436
v -0.069184 0.791378 0.026648
v -0.069194 0.792087 0.025400
v -0.069796 0.758402 0.011184
v -0.068475 0.790632 0.027648
v -0.068904 0.765325 0.014715
v -0.068695 0.786891 0.020350
v -0.068641 0.780405 0.017174
v -0.067216 0.784200 0.024926
v -0.068503 0.792569 0.024239
v -0.068643 0.773290 0.014868
v -0.067256 0.790049 0.028132
v -0.068960 0.765773 0.013390
v -0.067324 0.778294 0.021212
v -0.067862 0.772217 0.017244
v -0.067809 0.796616 0.029747
v -0.067809 0.797369 0.028515
v -0.067106 0.795823 0.030728
v -0.067908 0.772743 0.015938
v -0.067297 0.786649 0.020200
v -0.067294 0.792694 0.023475
v -0.067416 0.779921 0.017699
v -0.065855 0.789785 0.027970
v -0.066656 0.778702 0.020030
v -0.066016 0.784318 0.024163
v -0.067106 0.797881 0.027363
v -0.065889 0.795203 0.031195
v -0.066690 0.779297 0.018745
v -0.066480 0.801367 0.032761
v -0.065782 0.800537 0.033727
v -0.066471 0.802157 0.031542
v -0.066076 0.786111 0.020704
v -0.065336 0.784765 0.022992
v -0.065893 0.792430 0.023314
v -0.065888 0.798015 0.026599
v -0.064484 0.794923 0.031024
v -0.064647 0.789911 0.027206
v -0.064564 0.799889 0.034182
v -0.065757 0.802695 0.030397
v -0.065358 0.785421 0.021726
v -0.065250 0.805614 0.035602
v -0.064554 0.804758 0.036561
v -0.065234 0.806432 0.034392
v -0.064675 0.791847 0.023798
v -0.063955 0.790392 0.026045
v -0.064482 0.797734 0.026428
v -0.063152 0.799598 0.034004
v -0.064529 0.802838 0.029634
v -0.063266 0.795056 0.030260
v -0.063332 0.804094 0.037010
v -0.064510 0.806993 0.033253
v -0.063965 0.791101 0.024797
v -0.064172 0.809339 0.038184
v -0.063474 0.808471 0.039144
v -0.064152 0.810174 0.036975
v -0.063265 0.797114 0.026895
v -0.062563 0.795568 0.029107
v -0.061913 0.803799 0.036830
v -0.062245 0.807804 0.039597
v -0.063272 0.807147 0.032492
v -0.063118 0.802547 0.029456
v -0.063419 0.810754 0.035841
v -0.061925 0.799741 0.033241
v -0.063301 0.812518 0.040416
v -0.062595 0.811660 0.041391
v -0.063282 0.813356 0.039198
v -0.062563 0.796321 0.027876
v -0.061352 0.811011 0.041862
v -0.062542 0.813949 0.038063
v -0.062170 0.810923 0.035085
v -0.060814 0.807516 0.039422
v -0.062689 0.815127 0.042207
v -0.061969 0.814307 0.043217
v -0.062675 0.815947 0.040966
v -0.061211 0.800280 0.032096
v -0.061900 0.801899 0.029911
v -0.061852 0.806853 0.032312
v -0.060675 0.803953 0.036069
v -0.061930 0.816548 0.039827
v -0.060706 0.813707 0.043727
v -0.061202 0.801070 0.030878
v -0.061280 0.814139 0.037316
v -0.059906 0.810746 0.041703
v -0.060740 0.810635 0.034909
v -0.059951 0.804515 0.034931
v -0.060654 0.816767 0.039095
v -0.059565 0.807685 0.038665
v -0.060631 0.806189 0.032762
v -0.059241 0.813487 0.043598
v -0.059834 0.813874 0.037157
v -0.059935 0.805333 0.033720
v -0.058644 0.810936 0.040956
v -0.059510 0.809968 0.035362
v -0.058832 0.808265 0.037531
v -0.059188 0.816548 0.038967
v -0.058812 0.809101 0.036322
v -0.057965 0.813707 0.042866
v -0.058591 0.813225 0.037628
v -0.057905 0.811529 0.039821
v -0.057926 0.815947 0.039476
v -0.057885 0.812367 0.038603
v -0.057220 0.814307 0.041727
v -0.057206 0.815127 0.040486
usemtl Deep_femoral_vein_rMaterial0
f 1 2 3
f 4 3 5
f 1 3 4
f 6 7 2
f 6 2 1
f 8 5 9
f 4 5 8
f 10 11 7
f 10 7 6
f 12 9 13
f 8 9 12
f 14 15 11
f 14 11 10
f 16 13 17
f 12 13 16
f 18 1 4
f 19 6 1
f 19 1 18
f 20 4 8
f 18 4 20
f 21 22 15
f 21 15 14
f 23 8 12
f 20 8 23
f 24 10 6
f 24 6 19
f 25 17 26
f 16 17 25
f 27 28 22
f 27 22 21
f 29 12 16
f 23 12 29
f 30 26 28
f 25 26 30
f 30 28 27
f 31 14 10
f 31 10 24
f 32 18 20
f 33 20 23
f 32 20 33
f 34 19 18
f 34 18 32
f 35 16 25
f 29 16 35
f 36 21 14
f 36 14 31
f 37 23 29
f 33 23 37
f 38 24 19
f 38 19 34
f 39 25 30
f 35 25 39
f 40 27 21
f 40 21 36
f 37 29 41
f 41 29 35
f 42 31 24
f 42 24 38
f 43 32 33
f 44 33 37
f 43 33 44
f 45 30 27
f 39 30 45
f 46 34 32
f 46 32 43
f 45 27 40
f 47 37 41
f 44 37 47
f 48 38 34
f 48 34 46
f 41 35 49
f 49 35 39
f 50 36 31
f 50 31 42
f 47 41 51
f 51 41 49
f 52 43 44
f 53 44 47
f 52 44 53
f 54 46 43
f 54 43 52
f 55 39 45
f 49 39 55
f 56 42 38
f 56 38 48
f 57 40 36
f 57 36 50
f 53 47 58
f 58 47 51
f 59 45 40
f 55 45 59
f 60 48 46
f 60 46 54
f 59 40 57
f 51 49 61
f 61 49 55
f 62 50 42
f 62 42 56
f 63 52 53
f 64 53 58
f 63 53 64
f 65 54 52
f 65 52 63
f 58 51 66
f 66 51 61
f 67 68 69
f 69 68 70
f 67 71 68
f 71 72 68
f 68 72 73
f 68 73 70
f 74 67 69
f 74 69 75
f 75 69 76
f 69 70 76
f 77 71 67
f 71 78 72
f 79 78 71
f 77 79 71
f 80 67 74
f 80 77 67
f 81 74 75
f 81 75 82
f 82 75 83
f 75 76 83
f 84 56 48
f 84 48 60
f 78 85 72
f 72 85 86
f 72 86 73
f 87 74 81
f 87 80 74
f 64 58 88
f 88 58 66
f 78 89 85
f 90 89 78
f 79 90 78
f 91 81 82
f 91 82 92
f 92 82 93
f 82 83 93
f 94 55 59
f 61 55 94
f 95 60 54
f 95 54 65
f 96 81 91
f 96 87 81
f 97 57 50
f 97 50 62
f 98 63 64
f 99 64 88
f 98 64 99
f 89 100 85
f 85 101 86
f 85 100 101
f 102 91 92
f 102 92 103
f 103 92 104
f 92 93 104
f 105 65 63
f 105 63 98
f 90 106 89
f 89 107 100
f 106 107 89
f 76 70 108
f 70 73 109
f 70 109 108
f 110 91 102
f 110 96 91
f 83 76 111
f 76 108 111
f 112 59 57
f 94 59 112
f 112 57 97
f 66 61 113
f 113 61 94
f 73 86 114
f 73 114 109
f 115 79 77
f 116 90 79
f 115 116 79
f 93 83 117
f 83 111 117
f 118 102 103
f 118 103 119
f 119 103 120
f 103 104 120
f 121 62 56
f 121 56 84
f 88 66 122
f 122 66 113
f 123 77 80
f 123 115 77
f 99 88 124
f 124 88 122
f 125 102 118
f 125 110 102
f 126 106 90
f 116 126 90
f 127 60 95
f 127 84 60
f 128 65 105
f 128 95 65
f 129 80 87
f 129 123 80
f 104 93 130
f 93 117 130
f 86 101 131
f 86 131 114
f 132 98 99
f 133 99 124
f 132 99 133
f 134 118 119
f 134 119 135
f 135 119 136
f 119 120 136
f 107 137 100
f 100 138 101
f 100 137 138
f 139 105 98
f 139 98 132
f 106 140 107
f 140 141 107
f 107 141 137
f 142 118 134
f 142 125 118
f 143 140 106
f 126 143 106
f 144 87 96
f 144 129 87
f 113 94 145
f 145 94 112
f 120 104 146
f 104 130 146
f 147 134 135
f 147 135 148
f 148 135 149
f 135 136 149
f 150 97 62
f 150 62 121
f 133 124 151
f 124 122 152
f 151 124 152
f 153 134 147
f 153 142 134
f 154 132 133
f 154 133 155
f 155 133 151
f 156 147 148
f 148 149 157
f 156 148 158
f 158 148 157
f 122 113 159
f 159 113 145
f 152 122 159
f 160 105 139
f 160 128 105
f 161 132 154
f 161 139 132
f 101 138 162
f 101 162 131
f 163 96 110
f 163 144 96
f 164 147 156
f 164 153 147
f 136 120 165
f 120 146 165
f 166 95 128
f 166 127 95
f 167 112 97
f 145 112 167
f 168 121 84
f 168 84 127
f 140 169 141
f 143 170 140
f 170 169 140
f 167 97 150
f 108 109 171
f 111 108 172
f 108 171 172
f 173 154 155
f 155 151 174
f 173 155 175
f 175 155 174
f 109 114 176
f 109 176 171
f 177 154 173
f 177 161 154
f 151 152 178
f 174 151 178
f 117 111 179
f 111 172 179
f 141 180 137
f 137 180 181
f 137 181 138
f 182 110 125
f 182 163 110
f 183 173 175
f 183 175 180
f 180 175 184
f 175 174 184
f 141 183 180
f 169 183 141
f 149 136 185
f 136 165 185
f 186 139 161
f 186 160 139
f 187 173 183
f 187 177 173
f 180 184 181
f 169 187 183
f 114 131 188
f 114 188 176
f 189 126 116
f 190 143 126
f 189 190 126
f 191 116 115
f 191 189 116
f 130 117 192
f 117 179 192
f 152 159 193
f 178 152 193
f 194 115 123
f 194 191 115
f 184 174 195
f 174 178 195
f 159 145 196
f 196 145 167
f 197 170 143
f 190 197 143
f 198 125 142
f 198 182 125
f 157 149 199
f 149 185 199
f 200 128 160
f 200 166 128
f 201 161 177
f 201 186 161
f 202 150 121
f 202 121 168
f 193 159 196
f 181 184 203
f 184 195 203
f 138 181 204
f 138 204 162
f 205 156 158
f 158 157 206
f 207 158 206
f 205 158 207
f 208 123 129
f 208 194 123
f 181 203 204
f 146 130 209
f 130 192 209
f 210 164 156
f 210 156 205
f 211 127 166
f 211 168 127
f 212 177 187
f 212 201 177
f 213 187 169
f 170 213 169
f 131 162 214
f 131 214 188
f 206 157 215
f 157 199 215
f 216 142 153
f 216 198 142
f 213 212 187
f 195 178 217
f 178 193 217
f 218 167 150
f 196 167 218
f 218 150 202
f 219 213 170
f 197 219 170
f 220 129 144
f 220 208 129
f 221 160 186
f 221 200 160
f 222 153 164
f 222 216 153
f 165 146 223
f 146 209 223
f 203 195 224
f 195 217 224
f 193 196 225
f 217 193 225
f 225 196 218
f 172 171 226
f 171 176 227
f 171 227 226
f 228 166 200
f 228 211 166
f 229 186 201
f 229 221 186
f 230 202 168
f 230 168 211
f 204 203 231
f 203 224 231
f 179 172 232
f 172 226 232
f 233 144 163
f 233 220 144
f 162 204 234
f 162 234 214
f 204 231 234
f 176 188 235
f 176 235 227
f 185 165 236
f 165 223 236
f 237 201 212
f 237 229 201
f 238 190 189
f 239 197 190
f 238 239 190
f 192 179 240
f 179 232 240
f 207 206 241
f 206 215 242
f 241 206 242
f 243 212 213
f 219 243 213
f 243 237 212
f 244 189 191
f 244 238 189
f 245 218 202
f 225 218 245
f 217 225 246
f 224 217 246
f 247 219 197
f 239 247 197
f 245 202 230
f 188 214 248
f 188 248 235
f 249 163 182
f 249 233 163
f 250 200 221
f 250 228 200
f 251 191 194
f 251 244 191
f 199 185 252
f 185 236 252
f 253 164 210
f 253 222 164
f 254 205 207
f 255 207 241
f 254 207 255
f 209 192 256
f 192 240 256
f 246 225 245
f 257 210 205
f 257 205 254
f 258 243 219
f 247 258 219
f 259 230 211
f 259 211 228
f 231 224 260
f 224 246 260
f 261 221 229
f 261 250 221
f 262 194 208
f 262 251 194
f 263 182 198
f 263 249 182
f 215 199 264
f 199 252 264
f 234 231 265
f 231 260 265
f 223 209 266
f 209 256 266
f 267 245 230
f 246 245 267
f 267 230 259
f 214 234 268
f 234 265 268
f 214 268 248
f 260 246 267
f 226 227 269
f 232 226 270
f 226 269 270
f 271 229 237
f 271 261 229
f 227 235 272
f 227 272 269
f 242 215 273
f 215 264 273
f 274 259 228
f 274 228 250
f 275 237 243
f 275 271 237
f 258 275 243
f 240 232 276
f 232 270 276
f 277 247 239
f 278 258 247
f 277 278 247
f 279 239 238
f 279 277 239
f 280 208 220
f 280 262 208
f 281 198 216
f 281 263 198
f 235 248 282
f 235 282 272
f 283 238 244
f 283 279 238
f 236 223 284
f 223 266 284
f 260 267 285
f 265 260 285
f 256 240 286
f 240 276 286
f 241 242 287
f 255 241 288
f 288 241 287
f 285 267 259
f 278 289 258
f 289 275 258
f 290 216 222
f 290 281 216
f 285 259 274
f 291 250 261
f 291 274 250
f 292 244 251
f 292 283 244
f 268 265 293
f 265 285 293
f 294 210 257
f 294 253 210
f 270 269 278
f 269 289 278
f 269 272 289
f 270 278 277
f 276 270 277
f 295 220 233
f 295 280 220
f 276 277 279
f 296 261 271
f 296 291 261
f 248 268 297
f 268 293 297
f 248 297 282
f 256 286 298
f 266 256 298
f 252 236 299
f 236 284 299
f 293 285 274
f 272 300 289
f 272 282 300
f 286 276 279
f 293 274 291
f 300 271 275
f 300 296 271
f 289 300 275
f 286 279 283
f 242 273 301
f 287 242 301
f 302 254 255
f 303 255 288
f 302 255 303
f 304 251 262
f 304 292 251
f 305 257 254
f 305 254 302
f 297 293 291
f 297 291 296
f 306 233 249
f 306 295 233
f 298 286 283
f 282 297 296
f 298 283 292
f 307 222 253
f 307 290 222
f 282 296 300
f 266 298 308
f 284 266 308
f 264 252 309
f 252 299 309
f 310 262 280
f 310 304 262
f 308 298 292
f 311 249 263
f 311 306 249
f 308 292 304
f 273 264 312
f 264 309 312
f 284 308 313
f 299 284 313
f 288 287 314
f 303 288 315
f 315 288 314
f 316 280 295
f 316 310 280
f 317 263 281
f 317 311 263
f 301 273 318
f 273 312 318
f 313 308 304
f 287 301 319
f 314 287 319
f 320 257 305
f 320 294 257
f 313 304 310
f 299 313 321
f 309 299 321
f 322 253 294
f 322 307 253
f 323 281 290
f 323 317 281
f 324 295 306
f 324 316 295
f 321 313 310
f 325 302 303
f 326 303 315
f 325 303 326
f 321 310 316
f 327 305 302
f 327 302 325
f 309 321 328
f 312 309 328
f 301 318 329
f 319 301 329
f 330 306 311
f 330 324 306
f 331 290 307
f 331 323 290
f 328 321 316
f 328 316 324
f 318 312 332
f 312 328 332
f 315 314 333
f 314 319 334
f 333 314 334
f 335 311 317
f 335 330 311
f 326 315 336
f 336 315 333
f 337 320 305
f 337 305 327
f 318 332 338
f 329 318 338
f 332 328 324
f 339 294 320
f 339 322 294
f 332 324 330
f 319 329 340
f 334 319 340
f 341 317 323
f 341 335 317
f 342 307 322
f 342 331 307
f 338 332 330
f 338 330 335
f 343 325 326
f 344 326 336
f 343 326 344
f 329 338 345
f 340 329 345
f 346 327 325
f 346 325 343
f 345 338 335
f 347 341 323
f 347 323 331
f 345 335 341
f 336 333 348
f 333 334 349
f 348 333 349
f 350 320 337
f 350 339 320
f 344 336 351
f 351 336 348
f 334 340 352
f 349 334 352
f 353 337 327
f 353 327 346
f 354 345 341
f 340 345 354
f 354 341 347
f 352 340 354
f 355 342 322
f 355 322 339
f 356 347 331
f 356 331 342
f 357 343 344
f 358 344 351
f 357 344 358
f 359 346 343
f 359 343 357
f 360 354 347
f 352 354 360
f 360 347 356
f 348 349 361
f 351 348 362
f 362 348 361
f 349 352 363
f 363 352 360
f 361 349 363
f 364 337 353
f 364 350 337
f 365 356 342
f 365 342 355
f 366 355 339
f 366 339 350
f 358 351 367
f 367 351 362
f 368 353 346
f 368 346 359
f 369 360 356
f 363 360 369
f 369 356 365
f 370 357 358
f 371 359 357
f 371 357 370
f 372 358 367
f 370 358 372
f 361 363 373
f 373 363 369
f 374 365 355
f 374 355 366
f 362 361 375
f 375 361 373
f 367 362 376
f 376 362 375
f 377 353 368
f 377 364 353
f 378 366 350
f 378 350 364
f 379 368 359
f 379 359 371
f 372 367 380
f 380 367 376
f 381 369 365
f 373 369 381
f 381 365 374
f 382 370 372
f 383 371 370
f 383 370 382
f 384 372 380
f 382 372 384
f 375 373 385
f 385 373 381
f 386 374 366
f 386 366 378
f 376 375 387
f 387 375 385
f 388 368 379
f 388 377 368
f 380 376 389
f 389 376 387
f 390 378 364
f 390 364 377
f 391 379 371
f 391 371 383
f 384 380 392
f 392 380 389
f 393 381 374
f 385 381 393
f 393 374 386
f 394 382 384
f 395 383 382
f 395 382 394
f 396 384 392
f 394 384 396
f 387 385 397
f 397 385 393
f 398 386 378
f 398 378 390
f 399 379 391
f 399 388 379
f 400 383 395
f 400 391 383
f 392 389 401
f 389 387 402
f 401 389 402
f 396 392 403
f 403 392 401
f 404 390 377
f 404 377 388
f 402 387 397
f 405 394 396
f 406 395 394
f 406 394 405
f 407 396 403
f 405 396 407
f 408 393 386
f 397 393 408
f 408 386 398
f 409 395 406
f 409 400 395
f 407 403 410
f 403 401 411
f 410 403 411
f 412 391 400
f 412 399 391
f 413 405 407
f 414 405 413
f 414 406 405
f 413 407 415
f 415 407 410
f 416 398 390
f 416 390 404
f 402 397 417
f 417 397 408
f 401 402 418
f 411 401 418
f 419 404 388
f 419 388 399
f 418 402 417
f 415 410 420
f 421 406 414
f 421 409 406
f 422 408 398
f 422 398 416
f 417 408 422
f 410 411 423
f 420 410 423
f 424 400 409
f 424 412 400
f 411 418 425
f 423 411 425
f 426 416 404
f 426 404 419
f 420 423 427
f 428 399 412
f 428 419 399
f 418 417 429
f 429 417 422
f 425 418 429
f 430 409 421
f 430 424 409
f 423 425 431
f 427 423 431
f 432 422 416
f 432 416 426
f 429 422 432
f 433 412 424
f 433 428 412
f 425 429 434
f 431 425 434
f 435 426 419
f 435 419 428
f 427 431 436
f 434 429 432
f 437 432 426
f 437 426 435
f 434 432 437
f 438 424 430
f 438 433 424
f 431 434 439
f 436 431 439
f 440 435 428
f 440 428 433
f 439 434 437
f 436 439 441
f 442 437 435
f 442 435 440
f 439 437 442
f 443 433 438
f 443 440 433
f 441 439 442
f 441 442 444
f 444 442 440
f 444 440 443
