# 
# Wavefront OBJ file
# Created with Kaydara FBX
# 
mtllib c:\users\tjvan\onedrive\documenten\fontys\minor\nx\.mtlmodels\deep_infrapatellar_bursa.r.obj

g Deep_Infrapatellar_bursa_r
v -0.088995 0.397922 0.002396
v -0.088752 0.402355 0.001866
v -0.088879 0.397930 0.001909
v -0.088362 0.394352 0.002077
v -0.088843 0.402491 0.002338
v -0.084911 0.402084 0.002977
v -0.084928 0.396560 0.003476
v -0.084865 0.401954 0.002496
v -0.088222 0.394400 0.001599
v -0.084873 0.396555 0.002979
v -0.088783 0.405189 0.000817
v -0.088692 0.404994 0.000366
v -0.084569 0.405156 0.001684
v -0.087315 0.410906 -0.001386
v -0.087414 0.411059 -0.000921
v -0.084478 0.411970 -0.000467
v -0.084527 0.404976 0.001219
v -0.084438 0.411815 -0.000941
v -0.084227 0.391644 0.003303
v -0.084187 0.391663 0.002805
v -0.081103 0.401968 0.002922
v -0.081078 0.396234 0.003289
v -0.081087 0.405415 0.001748
v -0.081138 0.401860 0.002435
v -0.081132 0.396217 0.002792
v -0.081116 0.405254 0.001275
v -0.081220 0.412032 -0.000555
v -0.081242 0.411880 -0.001031
v -0.081601 0.390691 0.003381
v -0.081656 0.390700 0.002884
v -0.077487 0.391942 0.002373
v -0.078113 0.397983 0.002333
v -0.077642 0.391970 0.001898
v -0.077974 0.397997 0.002813
v -0.075787 0.411664 -0.001335
v -0.075743 0.411789 -0.000853
v -0.077460 0.402264 0.001543
v -0.077046 0.405408 0.000479
v -0.077354 0.402354 0.002024
v -0.076974 0.405529 0.000959
v -0.071534 0.400275 -0.000376
v -0.071261 0.403459 -0.000661
v -0.071344 0.400291 0.000086
v -0.071121 0.403527 -0.000186
v -0.073161 0.395144 -0.000014
v -0.073392 0.395193 -0.000454
v -0.070707 0.408965 -0.001310
v -0.070625 0.409060 -0.000826
v -0.072644 0.411107 -0.001211
v -0.072592 0.411210 -0.000725
usemtl Deep_Infrapatellar_bursa_rMaterial0
f 1 2 3
f 4 1 3
f 1 5 2
f 6 5 1
f 7 1 4
f 6 1 7
f 8 3 2
f 4 3 9
f 10 9 3
f 8 10 3
f 5 11 12
f 13 11 5
f 5 12 2
f 13 5 6
f 11 14 12
f 11 15 14
f 16 15 11
f 16 11 13
f 17 2 12
f 17 8 2
f 18 12 14
f 18 17 12
f 19 4 9
f 7 4 19
f 10 20 9
f 19 9 20
f 15 18 14
f 15 16 18
f 21 6 7
f 22 7 19
f 21 7 22
f 23 13 6
f 23 6 21
f 24 10 8
f 25 20 10
f 24 25 10
f 26 8 17
f 26 24 8
f 27 16 13
f 27 13 23
f 28 17 18
f 28 26 17
f 16 28 18
f 16 27 28
f 29 19 20
f 22 19 29
f 29 20 30
f 25 30 20
f 31 29 30
f 32 30 25
f 32 33 30
f 31 30 33
f 34 22 29
f 34 29 31
f 27 35 28
f 35 26 28
f 36 27 23
f 27 36 35
f 37 25 24
f 37 32 25
f 38 24 26
f 38 37 24
f 35 38 26
f 39 21 22
f 40 23 21
f 40 21 39
f 39 22 34
f 36 23 40
f 41 33 32
f 42 32 37
f 42 41 32
f 43 34 31
f 44 39 34
f 44 34 43
f 45 31 33
f 45 33 46
f 41 46 33
f 43 31 45
f 47 37 38
f 47 42 37
f 48 40 39
f 48 39 44
f 49 38 35
f 49 47 38
f 50 36 40
f 50 40 48
f 36 49 35
f 36 50 49
f 43 45 46
f 43 46 41
f 50 47 49
f 50 48 47
f 44 43 41
f 44 41 42
f 48 44 42
f 48 42 47
