# 
# Wavefront OBJ file
# Created with Kaydara FBX
# 
mtllib c:\users\tjvan\onedrive\documenten\fontys\minor\nx\.mtlmodels\deep_artery_of_the_thigh.r.obj

g Deep_artery_of_the_thigh_r
v -0.085723 0.594349 -0.017074
v -0.087076 0.592713 -0.018391
v -0.087084 0.593047 -0.018702
v -0.085468 0.594023 -0.016845
v -0.086884 0.592336 -0.018222
v -0.085786 0.594630 -0.017449
v -0.086905 0.593248 -0.019070
v -0.085642 0.594791 -0.017869
v -0.086588 0.593263 -0.019398
v -0.085090 0.593740 -0.016824
v -0.086559 0.592016 -0.018239
v -0.085328 0.594789 -0.018222
v -0.086218 0.593086 -0.019597
v -0.084690 0.593575 -0.017016
v -0.086189 0.591840 -0.018438
v -0.084928 0.594624 -0.018414
v -0.085893 0.592766 -0.019614
v -0.084376 0.593573 -0.017369
v -0.085872 0.591854 -0.018765
v -0.084551 0.594341 -0.018393
v -0.085701 0.592389 -0.019444
v -0.084232 0.593734 -0.017789
v -0.085693 0.592055 -0.019134
v -0.084478 0.596451 -0.016028
v -0.084584 0.596676 -0.016449
v -0.084173 0.596181 -0.015757
v -0.084296 0.594015 -0.018164
v -0.084464 0.596795 -0.016908
v -0.083751 0.595938 -0.015710
v -0.084149 0.596777 -0.017281
v -0.083325 0.595787 -0.015898
v -0.083723 0.596626 -0.017470
v -0.083010 0.595769 -0.016272
v -0.083340 0.598965 -0.015211
v -0.083476 0.599142 -0.015665
v -0.083301 0.596383 -0.017422
v -0.082997 0.598744 -0.014913
v -0.083370 0.599226 -0.016152
v -0.082890 0.595888 -0.016730
v -0.082996 0.596113 -0.017152
v -0.082540 0.598538 -0.014849
v -0.083050 0.599196 -0.016542
v -0.082091 0.598401 -0.015037
v -0.082601 0.599059 -0.016731
v -0.082464 0.601977 -0.015063
v -0.082306 0.601839 -0.014585
v -0.082365 0.602035 -0.015573
v -0.081935 0.601658 -0.014266
v -0.081770 0.598371 -0.015427
v -0.082144 0.598852 -0.016667
v -0.082037 0.601997 -0.015977
v -0.081664 0.598455 -0.015914
v -0.081801 0.598631 -0.016368
v -0.081449 0.601482 -0.014192
v -0.081567 0.601873 -0.016167
v -0.082565 0.776711 0.018623
v -0.082526 0.770360 0.015856
v -0.082254 0.770943 0.014429
v -0.082022 0.776073 0.019975
v -0.082507 0.782809 0.021696
v -0.082289 0.777374 0.017204
v -0.081957 0.782070 0.023023
v -0.080978 0.601359 -0.014382
v -0.082411 0.763806 0.013362
v -0.082143 0.764319 0.011935
v -0.081991 0.769808 0.017219
v -0.082327 0.788630 0.025120
v -0.082224 0.783563 0.020296
v -0.081771 0.787835 0.026443
v -0.081548 0.605128 -0.014606
v -0.081376 0.605019 -0.014107
v -0.082241 0.757095 0.011108
v -0.081976 0.757551 0.009688
v -0.081885 0.763325 0.014727
v -0.081453 0.605167 -0.015134
v -0.082039 0.789425 0.023714
v -0.082034 0.792458 0.027286
v -0.081473 0.791707 0.028635
v -0.080981 0.604870 -0.013772
v -0.081248 0.771399 0.013321
v -0.081266 0.777882 0.016098
v -0.081152 0.764728 0.010829
v -0.082038 0.750279 0.009063
v -0.081777 0.750687 0.007655
v -0.081725 0.756674 0.012469
v -0.081184 0.784132 0.019198
v -0.081081 0.601697 -0.016093
v -0.081001 0.757920 0.008589
v -0.080650 0.601321 -0.014786
v -0.081115 0.605125 -0.015552
v -0.081823 0.743406 0.007196
v -0.081566 0.743775 0.005802
v -0.081531 0.749906 0.010413
v -0.081751 0.793177 0.025838
v -0.080983 0.790006 0.022601
v -0.081514 0.796893 0.029359
v -0.080944 0.796215 0.030743
v -0.080804 0.775630 0.020896
v -0.080721 0.781546 0.023922
v -0.080793 0.769433 0.018153
v -0.080817 0.751020 0.006565
v -0.080518 0.787251 0.027327
v -0.080470 0.604719 -0.013691
v -0.080706 0.763007 0.015665
v -0.081618 0.736525 0.005474
v -0.081364 0.736863 0.004098
v -0.081326 0.743070 0.008531
v -0.080709 0.601516 -0.015774
v -0.080551 0.601379 -0.015296
v -0.080622 0.744077 0.004724
v -0.080219 0.791127 0.029521
v -0.081243 0.797508 0.027860
v -0.080701 0.793673 0.024678
v -0.080566 0.756401 0.013405
v -0.081444 0.729686 0.003867
v -0.081194 0.730001 0.002511
v -0.081130 0.736216 0.006792
v -0.080625 0.605015 -0.015746
v -0.080436 0.737140 0.003033
v -0.080730 0.608541 -0.014255
v -0.080546 0.608452 -0.013739
v -0.080392 0.749667 0.011343
v -0.080773 0.801780 0.031325
v -0.080196 0.801150 0.032729
v -0.079687 0.795656 0.031640
v -0.079980 0.604608 -0.013886
v -0.080635 0.608568 -0.014802
v -0.081322 0.722938 0.002344
v -0.081076 0.723238 0.001010
v -0.080964 0.729394 0.005165
v -0.080132 0.608327 -0.013391
v -0.080282 0.730255 0.001461
v -0.081319 0.709895 -0.000581
v -0.081340 0.703553 -0.001972
v -0.081110 0.703813 -0.003227
v -0.080865 0.709616 0.000647
v -0.081250 0.697495 -0.003176
v -0.081026 0.697728 -0.004400
v -0.080898 0.703301 -0.000772
v -0.081273 0.716332 0.000873
v -0.081082 0.710177 -0.001868
v -0.080810 0.716049 0.002124
v -0.081032 0.716623 -0.000437
v -0.080851 0.722655 0.003619
v -0.080206 0.742856 0.009451
v -0.079777 0.771606 0.012827
v -0.079772 0.778102 0.015601
v -0.081068 0.691777 -0.004203
v -0.080850 0.691985 -0.005396
v -0.080820 0.697279 -0.002004
v -0.079705 0.764924 0.010341
v -0.080514 0.802318 0.029793
v -0.080205 0.797894 0.026647
v -0.080180 0.723474 -0.000025
v -0.079666 0.784362 0.018697
v -0.079577 0.758102 0.008105
v -0.080030 0.736019 0.007699
v -0.080286 0.608527 -0.015231
v -0.080270 0.704012 -0.004203
v -0.080209 0.697916 -0.005350
v -0.080114 0.604864 -0.015665
v -0.080602 0.686621 -0.006227
v -0.080651 0.691594 -0.003059
v -0.080814 0.686435 -0.005067
v -0.080219 0.710387 -0.002869
v -0.080152 0.716844 -0.001456
v -0.080057 0.692163 -0.006319
v -0.079417 0.751189 0.006086
v -0.079642 0.604567 -0.014303
v -0.079599 0.608197 -0.013305
v -0.079442 0.790217 0.022079
v -0.079884 0.729205 0.006057
v -0.078937 0.800596 0.033629
v -0.079842 0.709415 0.001487
v -0.079902 0.703125 0.000049
v -0.079768 0.715850 0.002981
v -0.079832 0.686789 -0.007124
v -0.079789 0.722466 0.004495
v -0.080410 0.686282 -0.003953
v -0.080301 0.681671 -0.006909
v -0.080507 0.681507 -0.005781
v -0.079852 0.697139 -0.001199
v -0.079245 0.744233 0.004250
v -0.079238 0.775500 0.021141
v -0.079131 0.781376 0.024152
v -0.079251 0.769336 0.018408
v -0.079814 0.806991 0.033186
v -0.079230 0.806391 0.034602
v -0.080008 0.612160 -0.013973
v -0.079816 0.612085 -0.013440
v -0.078905 0.787037 0.027536
v -0.079719 0.604714 -0.015330
v -0.079190 0.762935 0.015925
v -0.079165 0.793812 0.024116
v -0.079547 0.604605 -0.014832
v -0.079711 0.691486 -0.002272
v -0.079777 0.608428 -0.015430
v -0.079912 0.612182 -0.014536
v -0.079083 0.737281 0.002565
v -0.079553 0.681830 -0.007780
v -0.079075 0.756348 0.013666
v -0.079385 0.611976 -0.013080
v -0.080116 0.681381 -0.004698
v -0.079966 0.677173 -0.007456
v -0.080166 0.677028 -0.006361
v -0.078608 0.790873 0.029709
v -0.079489 0.802619 0.028545
v -0.079565 0.807470 0.031633
v -0.079090 0.608098 -0.013503
v -0.078952 0.730381 0.000998
v -0.079499 0.686203 -0.003185
v -0.078926 0.749627 0.011604
v -0.079241 0.677323 -0.008300
v -0.079552 0.612145 -0.014979
v -0.078874 0.723583 -0.000483
v -0.079018 0.698008 -0.005770
v -0.079044 0.704095 -0.004637
v -0.078899 0.692263 -0.006725
v -0.078960 0.710468 -0.003316
v -0.078765 0.742823 0.009709
v -0.078079 0.795365 0.031811
v -0.078678 0.797949 0.026045
v -0.077972 0.805831 0.035501
v -0.078869 0.716936 -0.001909
v -0.079789 0.676925 -0.005309
v -0.079616 0.673162 -0.007881
v -0.079811 0.673034 -0.006820
v -0.078832 0.611864 -0.012990
v -0.079244 0.608298 -0.015344
v -0.079233 0.681327 -0.003950
v -0.078708 0.686895 -0.007517
v -0.078613 0.735987 0.007953
v -0.079383 0.615931 -0.013720
v -0.079183 0.615862 -0.013171
v -0.078741 0.608057 -0.013933
v -0.078914 0.673303 -0.008699
v -0.079284 0.615954 -0.014300
v -0.078620 0.703072 0.000273
v -0.078525 0.709346 0.001714
v -0.078492 0.729169 0.006305
v -0.078606 0.697111 -0.000977
v -0.078464 0.681941 -0.008160
v -0.078426 0.715788 0.003214
v -0.078737 0.615766 -0.012800
v -0.079447 0.672953 -0.005800
v -0.079272 0.669675 -0.008199
v -0.079461 0.669563 -0.007172
v -0.078636 0.812397 0.034943
v -0.078049 0.811813 0.036365
v -0.078935 0.676894 -0.004581
v -0.078422 0.722419 0.004736
v -0.079024 0.612058 -0.015182
v -0.078236 0.771509 0.013082
v -0.078188 0.764852 0.010600
v -0.078206 0.777972 0.015846
v -0.078830 0.608172 -0.014996
v -0.078501 0.691482 -0.002052
v -0.078086 0.758050 0.008366
v -0.077334 0.800267 0.033785
v -0.078076 0.784192 0.018926
v -0.078646 0.608084 -0.014479
v -0.078593 0.669806 -0.008990
v -0.078304 0.611778 -0.013193
v -0.077951 0.751149 0.006347
v -0.078552 0.807701 0.030358
v -0.078397 0.812832 0.033374
v -0.078911 0.615925 -0.014754
v -0.078186 0.677437 -0.008667
v -0.078324 0.686219 -0.002968
v -0.077971 0.802603 0.027914
v -0.079111 0.669501 -0.006184
v -0.078952 0.666750 -0.008423
v -0.079136 0.666653 -0.007430
v -0.078622 0.672941 -0.005093
v -0.077829 0.790002 0.022289
v -0.077804 0.744200 0.004508
v -0.078165 0.615668 -0.012706
v -0.078853 0.619800 -0.013457
v -0.078647 0.619731 -0.012893
v -0.078749 0.619830 -0.014052
v -0.078296 0.666871 -0.009187
v -0.078471 0.611946 -0.015091
v -0.077894 0.673418 -0.009053
v -0.078095 0.681360 -0.003737
v -0.077666 0.737249 0.002818
v -0.077744 0.775719 0.020644
v -0.077781 0.769543 0.017915
v -0.077613 0.781606 0.023650
v -0.076793 0.811235 0.037259
v -0.078187 0.619642 -0.012510
v -0.077743 0.763130 0.015436
v -0.077554 0.793558 0.024304
v -0.078799 0.666606 -0.006475
v -0.078677 0.664426 -0.008568
v -0.078856 0.664343 -0.007610
v -0.077364 0.787248 0.027015
v -0.078314 0.669504 -0.005499
v -0.077944 0.611741 -0.013635
v -0.077560 0.730345 0.001246
v -0.077651 0.756531 0.013182
v -0.077771 0.697981 -0.005547
v -0.077762 0.704042 -0.004413
v -0.078366 0.615851 -0.014962
v -0.077689 0.692259 -0.006505
v -0.078044 0.664535 -0.009306
v -0.077642 0.710398 -0.003089
v -0.077507 0.723537 -0.000242
v -0.077833 0.676941 -0.004373
v -0.077526 0.749797 0.011125
v -0.076375 0.805461 0.035642
v -0.078365 0.619813 -0.014518
v -0.077607 0.669921 -0.009332
v -0.077534 0.686911 -0.007300
v -0.077072 0.791012 0.029148
v -0.077527 0.716875 -0.001676
v -0.078416 0.623712 -0.013144
v -0.078205 0.623637 -0.012565
v -0.078531 0.664308 -0.006687
v -0.078467 0.662753 -0.008646
v -0.078640 0.662683 -0.007723
v -0.078040 0.611838 -0.014731
v -0.077620 0.615595 -0.012914
v -0.078031 0.666621 -0.005813
v -0.077388 0.742979 0.009235
v -0.077847 0.611763 -0.014198
v -0.077596 0.619557 -0.012412
v -0.078308 0.623756 -0.013754
v -0.077326 0.681974 -0.007947
v -0.077856 0.662843 -0.009358
v -0.077070 0.797658 0.026216
v -0.077732 0.623550 -0.012171
v -0.078327 0.662653 -0.006834
v -0.078507 0.661712 -0.007783
v -0.078340 0.661775 -0.008672
v -0.077241 0.817869 0.036594
v -0.076652 0.817288 0.038018
v -0.077556 0.673000 -0.004890
v -0.077395 0.703155 -0.000161
v -0.077414 0.697204 -0.001397
v -0.077265 0.709427 0.001267
v -0.077260 0.736128 0.007484
v -0.076552 0.795420 0.031209
v -0.077344 0.666983 -0.009518
v -0.077397 0.813001 0.032078
v -0.077045 0.807621 0.029703
v -0.077791 0.664329 -0.006048
v -0.077143 0.715880 0.002761
v -0.078378 0.658743 -0.007986
v -0.078216 0.658816 -0.008854
v -0.078206 0.661673 -0.006929
v -0.077343 0.691582 -0.002458
v -0.077162 0.729295 0.005842
v -0.077794 0.615754 -0.014868
v -0.077751 0.661846 -0.009357
v -0.077084 0.677484 -0.008459
v -0.078072 0.627614 -0.012742
v -0.077856 0.627524 -0.012148
v -0.077116 0.722529 0.004278
v -0.077011 0.818269 0.035013
v -0.078250 0.655862 -0.008250
v -0.078092 0.655953 -0.009095
v -0.078084 0.658686 -0.007154
v -0.077802 0.619754 -0.014731
v -0.077911 0.623757 -0.014232
v -0.077641 0.658886 -0.009523
v -0.077614 0.662670 -0.006219
v -0.077201 0.686325 -0.003361
v -0.077247 0.615566 -0.013368
v -0.077959 0.627679 -0.013366
v -0.077125 0.664640 -0.009625
v -0.077285 0.669572 -0.005302
v -0.078125 0.653094 -0.008564
v -0.077972 0.653199 -0.009386
v -0.077961 0.655789 -0.007439
v -0.077037 0.771134 0.014016
v -0.077010 0.764534 0.011538
v -0.077371 0.627434 -0.011745
v -0.077531 0.656036 -0.009747
v -0.077518 0.661669 -0.006339
v -0.076988 0.777529 0.016767
v -0.077124 0.623475 -0.012070
v -0.076828 0.673477 -0.008850
v -0.076927 0.757776 0.009303
v -0.077033 0.619498 -0.012625
v -0.078009 0.650427 -0.008918
v -0.077860 0.650543 -0.009718
v -0.077844 0.653006 -0.007774
v -0.077818 0.631453 -0.012210
v -0.077598 0.631346 -0.011603
v -0.077425 0.653292 -0.010021
v -0.077411 0.658661 -0.006578
v -0.077006 0.681471 -0.004117
v -0.076812 0.750911 0.007276
v -0.076840 0.783668 0.019825
v -0.075817 0.800251 0.033154
v -0.077348 0.615658 -0.014496
v -0.076969 0.662930 -0.009666
v -0.077037 0.666694 -0.005622
v -0.075403 0.816683 0.038904
v -0.077905 0.647850 -0.009305
v -0.077760 0.647975 -0.010083
v -0.077734 0.650326 -0.008149
v -0.077148 0.615589 -0.013947
v -0.077549 0.627703 -0.013854
v -0.077701 0.631543 -0.012847
v -0.077327 0.650644 -0.010336
v -0.077305 0.655752 -0.006878
v -0.076684 0.743986 0.005428
v -0.076368 0.802274 0.028069
v -0.075206 0.810820 0.037385
v -0.077331 0.623713 -0.014449
v -0.077817 0.645354 -0.009715
v -0.077676 0.645484 -0.010472
v -0.077637 0.647740 -0.008558
v -0.076577 0.669990 -0.009135
v -0.077100 0.631251 -0.011189
v -0.077241 0.648080 -0.010684
v -0.077202 0.652958 -0.007228
v -0.076897 0.661905 -0.009655
v -0.076778 0.677055 -0.004740
v -0.076576 0.789419 0.023173
v -0.077736 0.633695 -0.011832
v -0.077510 0.633577 -0.011207
v -0.077748 0.642927 -0.010141
v -0.077610 0.643058 -0.010876
v -0.077555 0.645235 -0.008990
v -0.077211 0.619668 -0.014633
v -0.076745 0.627368 -0.011639
v -0.077615 0.633802 -0.012488
v -0.077692 0.635953 -0.011428
v -0.077459 0.635830 -0.010784
v -0.077701 0.640558 -0.010574
v -0.077568 0.640689 -0.011289
v -0.077493 0.642803 -0.009437
v -0.077170 0.645590 -0.011056
v -0.077109 0.650268 -0.007619
v -0.076807 0.658934 -0.009815
v -0.076833 0.664402 -0.005864
v -0.076804 0.697841 -0.004742
v -0.076749 0.692151 -0.005718
v -0.076767 0.703866 -0.003592
v -0.076567 0.737052 0.003726
v -0.076774 0.769999 0.016806
v -0.076752 0.763540 0.014331
v -0.076721 0.776228 0.019538
v -0.076573 0.782175 0.022552
v -0.077278 0.631591 -0.013344
v -0.077681 0.638237 -0.011006
v -0.077566 0.636071 -0.012103
v -0.077441 0.638111 -0.010342
v -0.077552 0.638363 -0.011700
v -0.077454 0.640432 -0.009890
v -0.077118 0.643163 -0.011445
v -0.076623 0.686832 -0.006532
v -0.076480 0.730156 0.002138
v -0.077027 0.647673 -0.008042
v -0.076716 0.656089 -0.010032
v -0.076620 0.710197 -0.002250
v -0.076676 0.756900 0.012083
v -0.076649 0.619481 -0.013091
v -0.076543 0.623432 -0.012286
v -0.076996 0.633480 -0.010780
v -0.077178 0.633870 -0.012998
v -0.077089 0.640788 -0.011842
v -0.076690 0.662730 -0.006041
v -0.076350 0.667056 -0.009327
v -0.076308 0.787829 0.025902
v -0.076951 0.627678 -0.014074
v -0.077115 0.636152 -0.012627
v -0.077087 0.638455 -0.012239
v -0.076961 0.645160 -0.008489
v -0.076536 0.673115 -0.005245
v -0.076446 0.723347 0.000633
v -0.076300 0.792978 0.025191
v -0.076929 0.635735 -0.010343
v -0.076631 0.653349 -0.010298
v -0.076628 0.661700 -0.006170
v -0.076443 0.681920 -0.007199
v -0.076485 0.716675 -0.000819
v -0.076566 0.750130 0.010035
v -0.076915 0.642721 -0.008952
v -0.076895 0.638019 -0.009887
v -0.076892 0.640344 -0.009420
v -0.076553 0.650702 -0.010606
v -0.076541 0.658674 -0.006415
v -0.076555 0.703354 -0.001137
v -0.076597 0.697392 -0.002346
v -0.076402 0.709636 0.000265
v -0.076445 0.743282 0.008157
v -0.075903 0.812859 0.031403
v -0.076025 0.818382 0.033699
v -0.076458 0.631193 -0.011080
v -0.076022 0.791508 0.027987
v -0.076752 0.619579 -0.014250
v -0.076722 0.623638 -0.014347
v -0.076486 0.648138 -0.010946
v -0.076167 0.664713 -0.009440
v -0.076230 0.677453 -0.007731
v -0.076550 0.691760 -0.003382
v -0.074869 0.805381 0.034987
v -0.076455 0.655762 -0.006719
v -0.076664 0.631585 -0.013568
v -0.076298 0.669687 -0.005644
v -0.076263 0.716101 0.001742
v -0.076332 0.736405 0.006420
v -0.076546 0.619511 -0.013686
v -0.076435 0.645645 -0.011312
v -0.075626 0.823279 0.038137
v -0.075039 0.822690 0.039560
v -0.076374 0.652964 -0.007073
v -0.076430 0.686494 -0.004258
v -0.076542 0.633880 -0.013226
v -0.076403 0.643213 -0.011695
v -0.076250 0.729549 0.004792
v -0.076220 0.722765 0.003243
v -0.076148 0.627344 -0.011859
v -0.076333 0.633429 -0.010665
v -0.076460 0.636175 -0.012860
v -0.076394 0.640831 -0.012086
v -0.076300 0.650269 -0.007468
v -0.076046 0.662990 -0.009489
v -0.076412 0.638488 -0.012477
v -0.076003 0.673465 -0.008144
v -0.075514 0.795807 0.029996
v -0.075813 0.797099 0.027113
v -0.076146 0.623432 -0.012764
v -0.076239 0.647667 -0.007896
v -0.076085 0.666807 -0.005952
v -0.076484 0.764053 0.012904
v -0.076502 0.770581 0.015379
v -0.075449 0.807251 0.029844
v -0.076259 0.681630 -0.004987
v -0.076411 0.757355 0.010663
v -0.075404 0.823652 0.036547
v -0.076244 0.635692 -0.010223
v -0.076444 0.776890 0.018119
v -0.076326 0.627612 -0.013969
v -0.076194 0.645149 -0.008348
v -0.076007 0.661937 -0.009487
v -0.076190 0.637985 -0.009761
v -0.076305 0.750538 0.008627
v -0.076168 0.642702 -0.008816
v -0.076165 0.640318 -0.009289
v -0.075937 0.658948 -0.009651
v -0.075914 0.664507 -0.006183
v -0.075781 0.669993 -0.008450
v -0.076290 0.782930 0.021152
v -0.075867 0.656099 -0.009872
v -0.076374 0.697625 -0.003571
v -0.076332 0.691968 -0.004575
v -0.076187 0.743650 0.006764
v -0.073828 0.816214 0.039014
v -0.076054 0.677205 -0.005584
v -0.076325 0.703614 -0.002392
v -0.076250 0.623552 -0.013954
v -0.075843 0.631188 -0.011303
v -0.076219 0.686679 -0.005418
v -0.075802 0.653354 -0.010143
v -0.075804 0.662817 -0.006350
v -0.076078 0.736743 0.005044
v -0.076021 0.631527 -0.013458
v -0.076039 0.623476 -0.013374
v -0.073802 0.822042 0.040434
v -0.075744 0.650702 -0.010455
v -0.075774 0.661759 -0.006468
v -0.076053 0.681794 -0.006115
v -0.076166 0.709918 -0.001022
v -0.075582 0.667071 -0.008665
v -0.076000 0.729864 0.003436
v -0.076019 0.788623 0.024496
v -0.075738 0.627367 -0.012347
v -0.075879 0.633830 -0.013111
v -0.075698 0.648132 -0.010801
v -0.075707 0.658722 -0.006707
v -0.075834 0.673256 -0.006062
v -0.074791 0.800553 0.031905
v -0.075668 0.645633 -0.011171
v -0.076023 0.716392 0.000432
v -0.075974 0.723065 0.001909
v -0.075697 0.633439 -0.010894
v -0.075775 0.636133 -0.012740
v -0.075656 0.643194 -0.011559
v -0.075641 0.655816 -0.007003
v -0.075853 0.677351 -0.006679
v -0.075706 0.638454 -0.012352
v -0.075668 0.640804 -0.011955
v -0.075579 0.653021 -0.007350
v -0.075109 0.801720 0.028970
v -0.073712 0.810678 0.036710
v -0.075426 0.664734 -0.008801
v -0.075841 0.627522 -0.013565
v -0.075589 0.635715 -0.010456
v -0.075526 0.650327 -0.007738
v -0.075619 0.669818 -0.006435
v -0.075739 0.792227 0.026539
v -0.075514 0.638018 -0.010000
v -0.075484 0.647725 -0.008159
v -0.075639 0.673384 -0.007123
v -0.075470 0.640360 -0.009533
v -0.075459 0.645203 -0.008604
v -0.075453 0.642752 -0.009065
v -0.075332 0.663007 -0.008874
v -0.075625 0.627433 -0.012972
v -0.075421 0.631236 -0.011800
v -0.075429 0.666927 -0.006717
v -0.075320 0.661932 -0.008896
v -0.075524 0.631432 -0.013045
v -0.075244 0.796421 0.028497
v -0.074546 0.818176 0.033004
v -0.074434 0.823708 0.035217
v -0.075264 0.658923 -0.009076
v -0.075430 0.669930 -0.007462
v -0.075210 0.656062 -0.009312
v -0.075280 0.664616 -0.006920
v -0.074316 0.812444 0.031529
v -0.075365 0.633732 -0.012684
v -0.075160 0.653307 -0.009597
v -0.075260 0.633507 -0.011404
v -0.075119 0.650644 -0.009924
v -0.075193 0.662907 -0.007061
v -0.073856 0.805612 0.033713
v -0.075245 0.636037 -0.012299
v -0.075185 0.661830 -0.007153
v -0.075245 0.667024 -0.007709
v -0.075304 0.631326 -0.012438
v -0.075088 0.648065 -0.010285
v -0.075137 0.635796 -0.010980
v -0.075160 0.638362 -0.011896
v -0.075074 0.645558 -0.010671
v -0.075132 0.658792 -0.007376
v -0.075106 0.640716 -0.011485
v -0.075078 0.643112 -0.011074
v -0.075080 0.655899 -0.007655
v -0.073788 0.828499 0.039571
v -0.073209 0.827889 0.040989
v -0.075049 0.638110 -0.010538
v -0.075032 0.653114 -0.007985
v -0.075102 0.664699 -0.007879
v -0.074991 0.640460 -0.010086
v -0.074993 0.650428 -0.008356
v -0.074532 0.801090 0.030374
v -0.074965 0.647830 -0.008760
v -0.074961 0.642856 -0.009634
v -0.074953 0.645310 -0.009189
v -0.074191 0.806691 0.030743
v -0.075139 0.633614 -0.012059
v -0.075020 0.662977 -0.007985
v -0.072245 0.821510 0.040526
v -0.073574 0.828851 0.037974
v -0.075019 0.661893 -0.008042
v -0.074970 0.658866 -0.008243
v -0.075012 0.635914 -0.011654
v -0.074922 0.655989 -0.008500
v -0.074879 0.653219 -0.008807
v -0.072350 0.816008 0.038319
v -0.074920 0.638236 -0.011232
v -0.074843 0.650544 -0.009156
v -0.074820 0.647954 -0.009538
v -0.074858 0.640590 -0.010801
v -0.074824 0.642988 -0.010369
v -0.074812 0.645439 -0.009945
v -0.071991 0.827184 0.041848
v -0.072712 0.810847 0.035414
v -0.073607 0.806091 0.032159
v -0.072975 0.823434 0.034502
v -0.072971 0.817707 0.033114
v -0.072624 0.828850 0.036627
v -0.073060 0.811866 0.032423
v -0.072473 0.811282 0.033845
v -0.070787 0.821236 0.039811
v -0.070461 0.826573 0.041918
v -0.071720 0.833406 0.040895
v -0.071155 0.832760 0.042304
v -0.071363 0.816121 0.037005
v -0.071512 0.833742 0.039293
v -0.069970 0.831977 0.043143
v -0.071722 0.817102 0.034000
v -0.071419 0.822902 0.034594
v -0.071192 0.828497 0.035890
v -0.071134 0.816521 0.035424
v -0.070588 0.833678 0.037928
v -0.069816 0.821292 0.038480
v -0.069029 0.826220 0.041181
v -0.068481 0.831267 0.043187
v -0.070181 0.822254 0.035468
v -0.069402 0.837880 0.042111
v -0.068866 0.837178 0.043506
v -0.069200 0.838206 0.040506
v -0.069662 0.827886 0.035960
v -0.069595 0.821665 0.036891
v -0.069195 0.833232 0.037165
v -0.067736 0.836289 0.044316
v -0.068079 0.826220 0.039834
v -0.068314 0.838069 0.039120
v -0.067088 0.830820 0.042424
v -0.068445 0.827182 0.036820
v -0.066314 0.835450 0.044325
v -0.067865 0.826571 0.038238
v -0.067707 0.832522 0.037209
v -0.066799 0.841804 0.043224
v -0.066317 0.841022 0.044597
v -0.066981 0.837506 0.038324
v -0.066600 0.842127 0.041616
v -0.066165 0.830756 0.041058
v -0.065283 0.839989 0.045366
v -0.064981 0.834887 0.043530
v -0.066522 0.831739 0.038047
v -0.065773 0.841902 0.040204
v -0.065957 0.831092 0.039457
v -0.063974 0.838983 0.045327
v -0.065559 0.836668 0.038333
v -0.064095 0.834751 0.042144
v -0.064539 0.841192 0.039366
v -0.063865 0.845032 0.044234
v -0.063477 0.844148 0.045575
v -0.063665 0.845356 0.042625
v -0.064429 0.835779 0.039143
v -0.062741 0.838272 0.044489
v -0.062604 0.842941 0.046290
v -0.063893 0.835077 0.040538
v -0.062929 0.845032 0.041181
v -0.063230 0.840185 0.039327
v -0.061480 0.841733 0.046188
v -0.061913 0.838048 0.043077
v -0.061855 0.844148 0.040288
v -0.062196 0.839153 0.040097
v -0.061714 0.838370 0.041470
v -0.060407 0.840849 0.045294
v -0.060732 0.842941 0.040185
v -0.059671 0.840526 0.043850
v -0.059859 0.841733 0.040900
v -0.059471 0.840849 0.042242
usemtl Deep_artery_of_the_thigh_rMaterial0
f 1 2 3
f 4 5 2
f 4 2 1
f 6 3 7
f 1 3 6
f 8 7 9
f 6 7 8
f 10 11 5
f 10 5 4
f 12 9 13
f 8 9 12
f 14 15 11
f 14 11 10
f 16 13 17
f 12 13 16
f 18 19 15
f 18 15 14
f 20 17 21
f 16 17 20
f 22 23 19
f 22 19 18
f 24 1 6
f 25 6 8
f 24 6 25
f 26 4 1
f 26 1 24
f 27 21 23
f 27 23 22
f 20 21 27
f 28 8 12
f 25 8 28
f 29 10 4
f 29 4 26
f 30 12 16
f 28 12 30
f 31 14 10
f 31 10 29
f 32 16 20
f 30 16 32
f 33 18 14
f 33 14 31
f 34 24 25
f 35 25 28
f 34 25 35
f 36 20 27
f 32 20 36
f 37 26 24
f 37 24 34
f 38 28 30
f 35 28 38
f 39 22 18
f 39 18 33
f 40 27 22
f 36 27 40
f 40 22 39
f 41 29 26
f 41 26 37
f 42 30 32
f 38 30 42
f 43 31 29
f 43 29 41
f 44 32 36
f 42 32 44
f 45 35 38
f 46 34 35
f 46 35 45
f 47 38 42
f 45 38 47
f 48 37 34
f 48 34 46
f 49 33 31
f 49 31 43
f 50 36 40
f 44 36 50
f 51 42 44
f 47 42 51
f 52 39 33
f 52 33 49
f 53 40 39
f 50 40 53
f 54 41 37
f 54 37 48
f 53 39 52
f 55 44 50
f 51 44 55
f 56 57 58
f 59 57 56
f 60 56 61
f 62 56 60
f 56 58 61
f 62 59 56
f 63 43 41
f 63 41 54
f 57 64 65
f 66 64 57
f 57 65 58
f 59 66 57
f 67 60 68
f 69 60 67
f 60 61 68
f 69 62 60
f 70 45 47
f 71 46 45
f 71 45 70
f 64 72 73
f 74 72 64
f 64 73 65
f 66 74 64
f 75 47 51
f 70 47 75
f 67 68 76
f 77 67 76
f 78 67 77
f 78 69 67
f 79 48 46
f 79 46 71
f 61 58 80
f 68 61 81
f 61 80 81
f 58 65 82
f 58 82 80
f 72 83 84
f 85 83 72
f 72 84 73
f 74 85 72
f 76 68 86
f 68 81 86
f 87 50 53
f 55 50 87
f 65 73 88
f 65 88 82
f 89 49 43
f 89 43 63
f 90 51 55
f 75 51 90
f 83 91 92
f 93 91 83
f 83 92 84
f 85 93 83
f 77 76 94
f 94 76 95
f 76 86 95
f 96 77 94
f 97 77 96
f 97 78 77
f 98 66 59
f 99 59 62
f 99 98 59
f 100 74 66
f 98 100 66
f 73 84 101
f 73 101 88
f 102 62 69
f 102 99 62
f 103 54 48
f 103 48 79
f 104 85 74
f 100 104 74
f 91 105 106
f 107 105 91
f 91 106 92
f 93 107 91
f 108 53 52
f 87 53 108
f 109 52 49
f 109 49 89
f 84 92 110
f 84 110 101
f 111 69 78
f 111 102 69
f 96 94 112
f 112 94 113
f 94 95 113
f 114 93 85
f 104 114 85
f 108 52 109
f 105 115 116
f 117 115 105
f 105 116 106
f 107 117 105
f 90 55 118
f 118 55 87
f 92 106 119
f 92 119 110
f 120 70 75
f 121 71 70
f 121 70 120
f 122 107 93
f 114 122 93
f 123 96 112
f 124 97 96
f 124 96 123
f 125 78 97
f 125 111 78
f 126 63 54
f 126 54 103
f 127 75 90
f 120 75 127
f 115 128 129
f 130 128 115
f 115 129 116
f 117 130 115
f 131 79 71
f 131 71 121
f 106 116 132
f 106 132 119
f 133 134 135
f 136 134 133
f 134 137 138
f 139 137 134
f 134 138 135
f 136 139 134
f 140 133 141
f 142 133 140
f 133 135 141
f 142 136 133
f 128 140 143
f 144 140 128
f 128 143 129
f 130 144 128
f 145 117 107
f 122 145 107
f 140 141 143
f 144 142 140
f 81 80 146
f 86 81 147
f 81 146 147
f 137 148 149
f 150 148 137
f 137 149 138
f 139 150 137
f 80 82 151
f 80 151 146
f 123 112 152
f 112 113 153
f 152 112 153
f 116 129 154
f 116 154 132
f 95 86 155
f 86 147 155
f 82 88 156
f 82 156 151
f 157 130 117
f 145 157 117
f 158 90 118
f 127 90 158
f 141 135 159
f 135 138 160
f 135 160 159
f 161 87 108
f 118 87 161
f 148 162 149
f 163 164 148
f 148 164 162
f 150 163 148
f 143 141 165
f 141 159 165
f 129 143 166
f 129 166 154
f 138 149 167
f 138 167 160
f 143 165 166
f 88 101 168
f 88 168 156
f 169 89 63
f 169 63 126
f 170 103 79
f 170 79 131
f 113 95 171
f 95 155 171
f 172 144 130
f 157 172 130
f 173 97 124
f 173 125 97
f 174 139 136
f 175 150 139
f 174 175 139
f 176 136 142
f 176 174 136
f 149 162 177
f 149 177 167
f 178 142 144
f 172 178 144
f 163 179 164
f 164 180 162
f 179 181 164
f 164 181 180
f 182 163 150
f 175 182 150
f 178 176 142
f 101 110 183
f 101 183 168
f 184 100 98
f 185 98 99
f 185 184 98
f 186 104 100
f 184 186 100
f 187 123 152
f 188 124 123
f 188 123 187
f 189 120 127
f 190 121 120
f 190 120 189
f 191 99 102
f 191 185 99
f 192 108 109
f 161 108 192
f 193 114 104
f 186 193 104
f 153 113 194
f 113 171 194
f 195 109 89
f 195 89 169
f 196 179 163
f 182 196 163
f 158 118 197
f 197 118 161
f 198 127 158
f 189 127 198
f 110 119 199
f 110 199 183
f 162 180 200
f 162 200 177
f 201 122 114
f 193 201 114
f 192 109 195
f 202 131 121
f 202 121 190
f 179 203 181
f 181 204 180
f 203 205 181
f 181 205 204
f 206 102 111
f 206 191 102
f 152 153 207
f 187 152 208
f 208 152 207
f 209 126 103
f 209 103 170
f 119 132 210
f 119 210 199
f 211 203 179
f 196 211 179
f 212 145 122
f 201 212 122
f 180 204 213
f 180 213 200
f 198 158 214
f 214 158 197
f 132 154 215
f 132 215 210
f 159 160 216
f 165 159 217
f 159 216 217
f 160 167 218
f 160 218 216
f 166 165 219
f 165 217 219
f 220 157 145
f 212 220 145
f 221 111 125
f 221 206 111
f 207 153 222
f 153 194 222
f 223 124 188
f 223 173 124
f 154 166 224
f 154 224 215
f 203 225 205
f 205 226 204
f 225 227 205
f 205 227 226
f 166 219 224
f 228 170 131
f 228 131 202
f 197 161 229
f 229 161 192
f 230 225 203
f 211 230 203
f 167 177 231
f 167 231 218
f 232 172 157
f 220 232 157
f 233 189 198
f 234 190 189
f 234 189 233
f 235 169 126
f 235 126 209
f 204 226 236
f 204 236 213
f 237 198 214
f 233 198 237
f 238 182 175
f 239 175 174
f 239 238 175
f 240 178 172
f 232 240 172
f 241 196 182
f 238 241 182
f 177 200 242
f 177 242 231
f 243 174 176
f 243 239 174
f 244 202 190
f 244 190 234
f 225 245 227
f 227 246 226
f 245 247 227
f 227 247 246
f 248 187 208
f 249 188 187
f 249 187 248
f 250 245 225
f 230 250 225
f 251 176 178
f 240 251 178
f 214 197 252
f 252 197 229
f 251 243 176
f 147 146 253
f 146 151 254
f 146 254 253
f 155 147 255
f 147 253 255
f 256 192 195
f 229 192 256
f 257 211 196
f 241 257 196
f 151 156 258
f 151 258 254
f 259 125 173
f 259 221 125
f 171 155 260
f 155 255 260
f 261 195 169
f 261 169 235
f 226 246 262
f 226 262 236
f 263 209 170
f 263 170 228
f 156 168 264
f 156 264 258
f 208 207 265
f 248 208 266
f 266 208 265
f 256 195 261
f 237 214 267
f 267 214 252
f 200 213 268
f 200 268 242
f 269 230 211
f 257 269 211
f 207 222 270
f 265 207 270
f 245 271 247
f 247 272 246
f 271 273 247
f 247 273 272
f 274 271 245
f 250 274 245
f 194 171 275
f 171 260 275
f 168 183 276
f 168 276 264
f 277 228 202
f 277 202 244
f 278 233 237
f 279 234 233
f 279 233 278
f 280 237 267
f 278 237 280
f 246 272 281
f 246 281 262
f 252 229 282
f 282 229 256
f 213 236 283
f 213 283 268
f 284 250 230
f 269 284 230
f 183 199 285
f 183 285 276
f 286 186 184
f 287 193 186
f 286 287 186
f 288 184 185
f 288 286 184
f 289 188 249
f 289 223 188
f 290 244 234
f 290 234 279
f 291 201 193
f 287 291 193
f 222 194 292
f 194 275 292
f 271 293 273
f 273 294 272
f 293 295 273
f 273 295 294
f 296 185 191
f 296 288 185
f 297 293 271
f 274 297 271
f 298 235 209
f 298 209 263
f 199 210 299
f 199 299 285
f 300 212 201
f 291 300 201
f 217 216 301
f 219 217 302
f 217 301 302
f 267 252 303
f 303 252 282
f 216 218 304
f 216 304 301
f 272 294 305
f 272 305 281
f 224 219 306
f 219 302 306
f 210 215 307
f 210 307 299
f 308 274 250
f 284 308 250
f 309 220 212
f 300 309 212
f 310 173 223
f 310 259 173
f 280 267 311
f 311 267 303
f 236 262 312
f 236 312 283
f 218 231 313
f 218 313 304
f 314 191 206
f 314 296 191
f 215 224 315
f 224 306 315
f 215 315 307
f 316 278 280
f 317 279 278
f 317 278 316
f 293 318 295
f 295 319 294
f 318 320 295
f 295 320 319
f 321 256 261
f 282 256 321
f 322 263 228
f 322 228 277
f 323 318 293
f 297 323 293
f 324 232 220
f 309 324 220
f 325 261 235
f 325 235 298
f 326 244 290
f 326 277 244
f 316 280 327
f 327 280 311
f 231 242 328
f 231 328 313
f 294 319 329
f 294 329 305
f 270 222 330
f 222 292 330
f 321 261 325
f 331 279 317
f 331 290 279
f 318 332 320
f 320 333 334
f 332 333 320
f 320 334 319
f 335 248 266
f 336 249 248
f 336 248 335
f 337 297 274
f 308 337 274
f 338 241 238
f 339 257 241
f 338 339 241
f 340 238 239
f 340 338 238
f 341 240 232
f 324 341 232
f 342 206 221
f 342 314 206
f 262 281 343
f 262 343 312
f 266 265 344
f 265 270 345
f 344 265 345
f 346 332 318
f 323 346 318
f 347 239 243
f 347 340 239
f 333 348 349
f 350 348 333
f 333 349 334
f 332 350 333
f 351 269 257
f 339 351 257
f 352 251 240
f 341 352 240
f 303 282 353
f 353 282 321
f 319 334 354
f 319 354 329
f 242 268 355
f 242 355 328
f 356 316 327
f 357 317 316
f 357 316 356
f 358 243 251
f 358 347 243
f 352 358 251
f 359 266 344
f 335 266 359
f 348 360 361
f 362 360 348
f 348 361 349
f 350 362 348
f 311 303 363
f 363 303 353
f 327 311 364
f 364 311 363
f 334 349 365
f 334 365 354
f 366 350 332
f 346 366 332
f 367 284 269
f 351 367 269
f 368 298 263
f 368 263 322
f 356 327 369
f 369 327 364
f 281 305 370
f 281 370 343
f 371 323 297
f 337 371 297
f 360 372 373
f 374 372 360
f 360 373 361
f 362 374 360
f 255 253 375
f 253 254 376
f 253 376 375
f 377 317 357
f 377 331 317
f 349 361 378
f 349 378 365
f 379 362 350
f 366 379 350
f 260 255 380
f 255 375 380
f 381 290 331
f 381 326 290
f 268 283 382
f 268 382 355
f 254 258 383
f 254 383 376
f 384 322 277
f 384 277 326
f 372 385 386
f 387 385 372
f 372 386 373
f 374 387 372
f 388 356 369
f 389 357 356
f 389 356 388
f 361 373 390
f 361 390 378
f 391 374 362
f 379 391 362
f 392 308 284
f 367 392 284
f 258 264 393
f 258 393 383
f 275 260 394
f 260 380 394
f 395 221 259
f 395 342 221
f 396 321 325
f 353 321 396
f 305 329 397
f 305 397 370
f 398 346 323
f 371 398 323
f 399 289 249
f 399 249 336
f 385 400 401
f 402 400 385
f 385 401 386
f 387 402 385
f 403 325 298
f 403 298 368
f 369 364 404
f 388 369 405
f 405 369 404
f 373 386 406
f 373 406 390
f 407 387 374
f 391 407 374
f 264 276 408
f 264 408 393
f 270 330 409
f 345 270 409
f 410 223 289
f 410 310 223
f 364 363 411
f 404 364 411
f 400 412 413
f 414 412 400
f 400 413 401
f 402 414 400
f 283 312 415
f 283 415 382
f 396 325 403
f 416 357 389
f 416 377 357
f 386 401 417
f 386 417 406
f 418 402 387
f 407 418 387
f 329 354 419
f 329 419 397
f 420 337 308
f 392 420 308
f 292 275 421
f 275 394 421
f 422 388 405
f 423 388 422
f 423 389 388
f 412 424 425
f 426 424 412
f 412 425 413
f 414 426 412
f 363 353 427
f 427 353 396
f 411 363 427
f 428 331 377
f 428 381 331
f 422 405 429
f 430 422 429
f 431 422 430
f 431 423 422
f 424 432 433
f 434 432 424
f 424 433 425
f 426 434 424
f 401 413 435
f 401 435 417
f 436 414 402
f 418 436 402
f 354 365 437
f 354 437 419
f 438 366 346
f 398 438 346
f 302 301 439
f 301 304 440
f 301 440 439
f 306 302 441
f 302 439 441
f 276 285 442
f 276 442 408
f 443 291 287
f 444 300 291
f 443 444 291
f 445 287 286
f 445 443 287
f 446 286 288
f 446 445 286
f 429 405 447
f 405 404 447
f 448 430 449
f 450 430 448
f 430 429 449
f 450 431 430
f 432 448 451
f 452 448 432
f 448 449 451
f 452 450 448
f 432 451 433
f 434 452 432
f 413 425 453
f 413 453 435
f 304 313 454
f 304 454 440
f 285 299 455
f 285 455 442
f 456 426 414
f 436 456 414
f 365 378 457
f 365 457 437
f 315 306 458
f 306 441 458
f 459 309 300
f 444 459 300
f 460 368 322
f 460 322 384
f 461 326 381
f 461 384 326
f 462 389 423
f 462 416 389
f 449 429 463
f 429 447 463
f 425 433 464
f 425 464 453
f 465 379 366
f 438 465 366
f 312 343 466
f 312 466 415
f 467 288 296
f 467 446 288
f 404 411 468
f 447 404 468
f 451 449 469
f 449 463 469
f 433 451 470
f 451 469 470
f 433 470 464
f 471 434 426
f 456 471 426
f 472 371 337
f 420 472 337
f 299 307 473
f 299 473 455
f 330 292 474
f 292 421 474
f 475 423 431
f 475 462 423
f 378 390 476
f 378 476 457
f 477 391 379
f 465 477 379
f 313 328 478
f 313 478 454
f 307 315 479
f 315 458 479
f 307 479 473
f 480 324 309
f 459 480 309
f 481 452 434
f 471 481 434
f 482 431 450
f 482 475 431
f 483 450 452
f 481 483 452
f 483 482 450
f 390 406 484
f 390 484 476
f 485 407 391
f 477 485 391
f 486 339 338
f 487 351 339
f 486 487 339
f 488 338 340
f 488 486 338
f 489 341 324
f 480 489 324
f 344 345 490
f 359 344 491
f 491 344 490
f 492 377 416
f 492 428 377
f 493 296 314
f 493 467 296
f 427 396 494
f 494 396 403
f 411 427 495
f 468 411 495
f 406 417 496
f 406 496 484
f 343 370 497
f 343 497 466
f 328 355 498
f 328 498 478
f 499 367 351
f 487 499 351
f 500 259 310
f 500 395 259
f 501 418 407
f 485 501 407
f 463 447 502
f 447 468 502
f 503 398 371
f 472 503 371
f 504 340 347
f 504 488 340
f 505 352 341
f 489 505 341
f 506 403 368
f 506 368 460
f 417 435 507
f 417 507 496
f 508 335 359
f 509 336 335
f 509 335 508
f 495 427 494
f 510 436 418
f 501 510 418
f 511 392 367
f 499 511 367
f 469 463 512
f 463 502 512
f 435 453 513
f 435 513 507
f 514 358 352
f 505 514 352
f 494 403 506
f 515 347 358
f 515 504 347
f 516 381 428
f 516 461 381
f 517 416 462
f 517 492 416
f 470 469 518
f 469 512 518
f 453 464 519
f 453 519 513
f 520 456 436
f 510 520 436
f 370 397 521
f 370 521 497
f 514 515 358
f 464 470 522
f 470 518 522
f 464 522 519
f 355 382 523
f 355 523 498
f 524 314 342
f 524 493 314
f 409 330 525
f 330 474 525
f 526 460 384
f 526 384 461
f 527 471 456
f 520 527 456
f 528 438 398
f 503 528 398
f 375 376 529
f 380 375 530
f 375 529 530
f 345 409 531
f 490 345 531
f 532 420 392
f 511 532 392
f 376 383 533
f 376 533 529
f 534 359 491
f 508 359 534
f 535 462 475
f 535 517 462
f 394 380 536
f 380 530 536
f 468 495 537
f 502 468 537
f 538 481 471
f 527 538 471
f 397 419 539
f 397 539 521
f 540 475 482
f 540 535 475
f 383 393 541
f 383 541 533
f 542 483 481
f 538 542 481
f 543 482 483
f 543 540 482
f 542 543 483
f 419 437 544
f 419 544 539
f 545 465 438
f 528 545 438
f 382 415 546
f 382 546 523
f 421 394 547
f 394 536 547
f 437 457 548
f 437 548 544
f 441 439 549
f 439 440 550
f 439 550 549
f 393 408 551
f 393 551 541
f 552 289 399
f 552 410 289
f 553 472 420
f 532 553 420
f 458 441 554
f 441 549 554
f 530 444 443
f 536 443 445
f 536 530 443
f 495 494 555
f 555 494 506
f 556 428 492
f 556 516 428
f 440 454 557
f 440 557 550
f 529 459 444
f 530 529 444
f 537 495 555
f 457 476 558
f 457 558 548
f 547 445 446
f 547 536 445
f 559 477 465
f 545 559 465
f 408 442 560
f 408 560 551
f 533 480 459
f 529 533 459
f 512 502 561
f 502 537 561
f 562 506 460
f 562 460 526
f 563 399 336
f 563 336 509
f 476 484 564
f 476 564 558
f 565 485 477
f 559 565 477
f 454 478 566
f 454 566 557
f 479 458 567
f 458 554 567
f 549 499 487
f 554 487 486
f 554 549 487
f 415 466 568
f 415 568 546
f 442 455 569
f 442 569 560
f 541 489 480
f 533 541 480
f 570 547 446
f 570 446 467
f 421 547 570
f 474 421 570
f 555 506 562
f 571 526 461
f 571 461 516
f 518 512 572
f 512 561 572
f 484 496 573
f 484 573 564
f 574 501 485
f 565 574 485
f 575 503 472
f 553 575 472
f 550 511 499
f 549 550 499
f 567 486 488
f 567 554 486
f 576 342 395
f 576 524 342
f 496 507 577
f 496 577 573
f 473 479 578
f 479 567 578
f 455 473 579
f 455 579 569
f 580 492 517
f 580 556 492
f 522 518 581
f 518 572 581
f 507 513 582
f 507 582 577
f 583 510 501
f 574 583 501
f 478 498 584
f 478 584 566
f 550 557 511
f 557 532 511
f 473 578 579
f 551 505 489
f 541 551 489
f 519 522 585
f 522 581 585
f 513 519 586
f 519 585 586
f 513 586 582
f 578 488 504
f 578 567 488
f 587 520 510
f 583 587 510
f 409 525 588
f 531 409 588
f 589 310 410
f 589 500 310
f 466 497 590
f 466 590 568
f 537 555 591
f 561 537 591
f 592 517 535
f 592 580 517
f 560 514 505
f 551 560 505
f 593 527 520
f 587 593 520
f 594 528 503
f 575 594 503
f 595 570 467
f 595 467 493
f 474 570 595
f 525 474 595
f 591 555 562
f 596 535 540
f 596 592 535
f 597 538 527
f 593 597 527
f 498 523 598
f 498 598 584
f 557 566 532
f 566 553 532
f 579 504 515
f 579 578 504
f 569 515 514
f 560 569 514
f 569 579 515
f 599 540 543
f 599 596 540
f 600 542 538
f 597 600 538
f 601 543 542
f 601 599 543
f 600 601 542
f 497 521 602
f 497 602 590
f 603 562 526
f 603 526 571
f 604 516 556
f 604 571 516
f 605 545 528
f 594 605 528
f 591 562 603
f 521 539 606
f 521 606 602
f 566 584 553
f 584 575 553
f 572 561 607
f 561 591 607
f 608 595 493
f 608 493 524
f 491 490 609
f 534 491 610
f 610 491 609
f 539 544 611
f 539 611 606
f 523 546 612
f 523 612 598
f 544 548 613
f 544 613 611
f 614 559 545
f 605 614 545
f 490 531 615
f 609 490 615
f 581 572 616
f 572 607 616
f 548 558 617
f 548 617 613
f 584 598 575
f 607 591 603
f 618 556 580
f 618 604 556
f 598 594 575
f 558 564 619
f 558 619 617
f 620 565 559
f 614 620 559
f 525 595 608
f 588 525 608
f 621 395 500
f 621 576 395
f 585 581 622
f 581 616 622
f 623 574 565
f 620 623 565
f 546 568 624
f 546 624 612
f 625 603 571
f 625 571 604
f 564 573 626
f 564 626 619
f 627 580 592
f 627 618 580
f 586 585 628
f 585 622 628
f 573 577 629
f 573 629 626
f 630 583 574
f 623 630 574
f 582 586 631
f 586 628 631
f 577 582 632
f 577 632 629
f 582 631 632
f 633 587 583
f 630 633 583
f 598 612 594
f 607 603 625
f 612 605 594
f 634 508 534
f 635 509 508
f 635 508 634
f 636 592 596
f 636 627 592
f 637 593 587
f 633 637 587
f 568 590 638
f 568 638 624
f 616 607 625
f 639 596 599
f 639 636 596
f 640 597 593
f 637 640 593
f 641 608 524
f 641 524 576
f 642 600 597
f 640 642 597
f 643 599 601
f 643 639 599
f 644 601 600
f 644 643 601
f 642 644 600
f 531 588 645
f 615 531 645
f 646 625 604
f 646 604 618
f 590 602 647
f 590 647 638
f 612 624 605
f 624 614 605
f 648 552 399
f 648 399 563
f 649 534 610
f 634 534 649
f 616 625 646
f 622 616 646
f 602 606 650
f 602 650 647
f 606 611 651
f 606 651 650
f 624 638 614
f 638 620 614
f 652 646 618
f 652 618 627
f 611 613 653
f 611 653 651
f 628 622 652
f 622 646 652
f 588 608 641
f 613 617 654
f 613 654 653
f 655 410 552
f 655 589 410
f 647 623 620
f 650 630 623
f 647 650 623
f 638 647 620
f 631 628 656
f 628 652 656
f 617 619 657
f 617 657 654
f 656 627 636
f 656 652 627
f 651 633 630
f 650 651 630
f 619 626 658
f 619 658 657
f 632 631 659
f 631 656 659
f 645 588 641
f 629 632 660
f 632 659 660
f 626 629 661
f 629 660 661
f 626 661 658
f 653 637 633
f 651 653 633
f 659 636 639
f 659 656 636
f 654 640 637
f 653 654 637
f 662 563 509
f 662 509 635
f 660 639 643
f 660 659 639
f 657 642 640
f 654 657 640
f 661 643 644
f 661 660 643
f 658 644 642
f 658 661 644
f 657 658 642
f 663 621 500
f 663 500 589
f 664 641 576
f 664 576 621
f 610 609 665
f 609 615 666
f 665 609 666
f 645 641 664
f 649 610 667
f 667 610 665
f 615 645 668
f 666 615 668
f 668 645 664
f 669 664 621
f 669 621 663
f 670 655 552
f 670 552 648
f 671 648 563
f 671 563 662
f 672 634 649
f 673 635 634
f 673 634 672
f 674 663 589
f 674 589 655
f 668 664 669
f 675 649 667
f 672 649 675
f 676 662 635
f 676 635 673
f 666 668 677
f 677 668 669
f 665 666 678
f 678 666 677
f 667 665 679
f 679 665 678
f 680 669 663
f 680 663 674
f 675 667 681
f 681 667 679
f 677 669 680
f 682 674 655
f 682 655 670
f 683 670 648
f 683 648 671
f 684 671 662
f 684 662 676
f 678 677 685
f 685 677 680
f 686 672 675
f 687 673 672
f 687 672 686
f 688 675 681
f 686 675 688
f 679 678 689
f 689 678 685
f 690 680 674
f 690 674 682
f 681 679 691
f 691 679 689
f 692 676 673
f 692 673 687
f 685 680 690
f 693 682 670
f 693 670 683
f 694 681 691
f 688 681 694
f 695 683 671
f 695 671 684
f 689 685 696
f 696 685 690
f 697 684 676
f 697 676 692
f 698 690 682
f 698 682 693
f 691 689 699
f 699 689 696
f 696 690 698
f 700 686 688
f 701 687 686
f 701 686 700
f 694 691 702
f 702 691 699
f 703 688 694
f 700 688 703
f 704 693 683
f 704 683 695
f 705 692 687
f 705 687 701
f 706 695 684
f 706 684 697
f 707 696 698
f 699 696 707
f 708 694 702
f 703 694 708
f 709 698 693
f 709 693 704
f 707 698 709
f 710 697 692
f 710 692 705
f 702 699 711
f 711 699 707
f 712 704 695
f 712 695 706
f 708 702 713
f 713 702 711
f 714 700 703
f 715 701 700
f 715 700 714
f 716 703 708
f 714 703 716
f 717 707 709
f 711 707 717
f 718 706 697
f 718 697 710
f 719 705 701
f 719 701 715
f 720 709 704
f 720 704 712
f 717 709 720
f 721 708 713
f 716 708 721
f 713 711 722
f 722 711 717
f 723 710 705
f 723 705 719
f 724 712 706
f 724 706 718
f 725 713 722
f 721 713 725
f 726 717 720
f 722 717 726
f 727 720 712
f 727 712 724
f 728 718 710
f 728 710 723
f 726 720 727
f 729 722 726
f 725 722 729
f 730 724 718
f 730 718 728
f 731 726 727
f 729 726 731
f 732 727 724
f 732 724 730
f 731 727 732
