# 
# Wavefront OBJ file
# Created with Kaydara FBX
# 
mtllib c:\users\tjvan\onedrive\documenten\fontys\minor\nx\.mtlmodels\descending_genicular_artery.r.obj

g Descending_genicular_artery_r
v -0.073011 0.545384 0.034723
v -0.075000 0.542160 0.033832
v -0.075020 0.542190 0.033760
v -0.073036 0.545426 0.034630
v -0.075004 0.542200 0.033681
v -0.072948 0.545327 0.034782
v -0.074950 0.542117 0.033879
v -0.073014 0.545440 0.034529
v -0.074956 0.542187 0.033617
v -0.072862 0.545270 0.034793
v -0.074882 0.542073 0.033887
v -0.072951 0.545424 0.034447
v -0.074890 0.542153 0.033585
v -0.072776 0.545227 0.034751
v -0.074816 0.542040 0.033855
v -0.072866 0.545381 0.034406
v -0.074822 0.542109 0.033593
v -0.072714 0.545211 0.034669
v -0.074768 0.542026 0.033791
v -0.072780 0.545324 0.034417
v -0.074772 0.542066 0.033640
v -0.072692 0.545225 0.034569
v -0.074752 0.542036 0.033712
v -0.072716 0.545267 0.034476
v -0.071198 0.548293 0.035607
v -0.071227 0.548345 0.035494
v -0.071121 0.548222 0.035679
v -0.071199 0.548364 0.035371
v -0.071016 0.548151 0.035692
v -0.071122 0.548345 0.035271
v -0.070911 0.548100 0.035642
v -0.071017 0.548294 0.035221
v -0.070834 0.548081 0.035542
v -0.070912 0.548223 0.035234
v -0.070806 0.548100 0.035419
v -0.070835 0.548152 0.035306
v -0.069557 0.550954 0.036446
v -0.069591 0.551015 0.036313
v -0.069465 0.550871 0.036532
v -0.069558 0.551038 0.036167
v -0.069340 0.550789 0.036547
v -0.069467 0.551017 0.036050
v -0.069215 0.550729 0.036488
v -0.069342 0.550957 0.035990
v -0.069124 0.550708 0.036370
v -0.069217 0.550875 0.036006
v -0.069091 0.550731 0.036225
v -0.069125 0.550792 0.036092
v -0.068085 0.553437 0.037201
v -0.068126 0.553504 0.037046
v -0.067976 0.553346 0.037302
v -0.068089 0.553529 0.036878
v -0.067830 0.553254 0.037321
v -0.067984 0.553504 0.036742
v -0.067684 0.553187 0.037253
v -0.067839 0.553437 0.036674
v -0.067579 0.553163 0.037117
v -0.067692 0.553346 0.036693
v -0.067542 0.553188 0.036949
v -0.067583 0.553255 0.036793
v -0.066779 0.555811 0.037834
v -0.066830 0.555879 0.037656
v -0.066651 0.555716 0.037950
v -0.066792 0.555901 0.037464
v -0.066480 0.555620 0.037973
v -0.066673 0.555872 0.037310
v -0.066313 0.555547 0.037897
v -0.066506 0.555799 0.037234
v -0.066195 0.555518 0.037743
v -0.066336 0.555703 0.037257
v -0.066156 0.555541 0.037551
v -0.066208 0.555608 0.037373
v -0.065701 0.558205 0.038105
v -0.065635 0.558145 0.038306
v -0.065663 0.558219 0.037888
v -0.065484 0.558055 0.038439
v -0.065532 0.558184 0.037714
v -0.065288 0.557959 0.038467
v -0.065343 0.558107 0.037630
v -0.065099 0.557882 0.038383
v -0.065147 0.558011 0.037658
v -0.064968 0.557846 0.038209
v -0.064996 0.557921 0.037791
v -0.064930 0.557860 0.037993
v -0.064733 0.560552 0.038353
v -0.064651 0.560508 0.038578
v -0.064699 0.560551 0.038112
v -0.064475 0.560431 0.038727
v -0.064557 0.560506 0.037920
v -0.064250 0.560342 0.038760
v -0.064345 0.560428 0.037827
v -0.064039 0.560264 0.038668
v -0.064121 0.560338 0.037860
v -0.063897 0.560218 0.038475
v -0.063944 0.560261 0.038009
v -0.063862 0.560217 0.038234
v -0.063924 0.562988 0.038365
v -0.063824 0.562970 0.038612
v -0.063894 0.562965 0.038101
v -0.063620 0.562915 0.038775
v -0.063741 0.562907 0.037890
v -0.063367 0.562838 0.038811
v -0.063507 0.562829 0.037789
v -0.063133 0.562760 0.038710
v -0.063254 0.562752 0.037825
v -0.062980 0.562702 0.038499
v -0.063050 0.562697 0.037988
v -0.063269 0.565585 0.038103
v -0.063151 0.565598 0.038368
v -0.062950 0.562679 0.038235
v -0.063243 0.565535 0.037819
v -0.062920 0.565572 0.038542
v -0.063079 0.565461 0.037591
v -0.062639 0.565512 0.038578
v -0.062822 0.565385 0.037480
v -0.062382 0.565435 0.038468
v -0.062763 0.568415 0.037529
v -0.062629 0.568463 0.037807
v -0.062541 0.565325 0.037516
v -0.062740 0.568335 0.037226
v -0.062373 0.568467 0.037988
v -0.062218 0.565362 0.038239
v -0.062565 0.568245 0.036982
v -0.062310 0.565298 0.037690
v -0.062192 0.565312 0.037955
v -0.062064 0.568426 0.038023
v -0.062286 0.568169 0.036861
v -0.062403 0.571549 0.036601
v -0.062255 0.571632 0.036891
v -0.062381 0.571439 0.036284
v -0.061785 0.568350 0.037902
v -0.061976 0.571667 0.037077
v -0.062195 0.571333 0.036024
v -0.061978 0.568128 0.036896
v -0.062185 0.575078 0.035273
v -0.062025 0.575184 0.035578
v -0.061611 0.568260 0.037658
v -0.061642 0.571643 0.037108
v -0.062164 0.574944 0.034940
v -0.061722 0.568132 0.037077
v -0.061895 0.571257 0.035892
v -0.061726 0.575234 0.035771
v -0.061588 0.568181 0.037356
v -0.061966 0.574819 0.034667
v -0.061377 0.583443 0.031840
v -0.061206 0.583550 0.032169
v -0.061355 0.583294 0.031485
v -0.061341 0.571568 0.036976
v -0.060887 0.583588 0.032383
v -0.061560 0.571234 0.035923
v -0.061368 0.575215 0.035802
v -0.061645 0.574735 0.034527
v -0.061144 0.583144 0.031198
v -0.061155 0.571461 0.036717
v -0.061282 0.571268 0.036109
v -0.060506 0.583545 0.032425
v -0.061047 0.575131 0.035663
v -0.061287 0.574716 0.034558
v -0.060803 0.583033 0.031057
v -0.061134 0.571351 0.036399
v -0.060165 0.583434 0.032284
v -0.059909 0.590610 0.028942
v -0.059731 0.590706 0.029301
v -0.059885 0.590451 0.028563
v -0.060849 0.575006 0.035389
v -0.060988 0.574766 0.034752
v -0.060422 0.582990 0.031099
v -0.059397 0.590714 0.029542
v -0.060828 0.574872 0.035056
v -0.059665 0.590273 0.028264
v -0.059954 0.583284 0.031997
v -0.060103 0.583027 0.031313
v -0.058998 0.590632 0.029602
v -0.059932 0.583135 0.031642
v -0.059307 0.590122 0.028126
v -0.058640 0.590482 0.029464
v -0.058908 0.590040 0.028186
v -0.058420 0.590303 0.029165
v -0.058574 0.590048 0.028427
v -0.058395 0.590145 0.028786
v -0.057994 0.596738 0.026524
v -0.057810 0.596821 0.026912
v -0.057967 0.596571 0.026120
v -0.057465 0.596799 0.027181
v -0.057738 0.596365 0.025808
v -0.057051 0.596676 0.027259
v -0.057367 0.596175 0.025673
v -0.056680 0.596487 0.027124
v -0.056954 0.596053 0.025751
v -0.056451 0.596281 0.026813
v -0.056609 0.596030 0.026020
v -0.056425 0.596114 0.026409
v -0.055844 0.602003 0.024521
v -0.055656 0.602074 0.024939
v -0.055814 0.601829 0.024091
v -0.055301 0.602024 0.025234
v -0.055576 0.601600 0.023766
v -0.054875 0.601866 0.025327
v -0.055192 0.601377 0.023631
v -0.054491 0.601642 0.025193
v -0.054766 0.601219 0.023724
v -0.054252 0.601413 0.024867
v -0.054411 0.601168 0.024020
v -0.054223 0.601240 0.024438
v -0.053678 0.606577 0.022870
v -0.053486 0.606639 0.023317
v -0.053644 0.606400 0.022414
v -0.053119 0.606570 0.023634
v -0.053393 0.606156 0.022071
v -0.055336 0.634109 0.015574
v -0.051858 0.629094 0.016046
v -0.055284 0.633999 0.014913
v -0.055115 0.634409 0.016134
v -0.051913 0.629208 0.016680
v -0.052676 0.606388 0.023738
v -0.051528 0.629155 0.015493
v -0.054973 0.634109 0.014327
v -0.052992 0.605911 0.021933
v -0.054680 0.634820 0.016442
v -0.051680 0.629465 0.017226
v -0.051013 0.629374 0.015169
v -0.054486 0.634409 0.013973
v -0.052275 0.606143 0.023599
v -0.052549 0.605729 0.022036
v -0.054148 0.635230 0.016416
v -0.051220 0.629797 0.017536
v -0.052024 0.605899 0.023256
v -0.050450 0.629692 0.015162
v -0.053953 0.634820 0.013947
v -0.052182 0.605660 0.022354
v -0.051990 0.605722 0.022800
v -0.053661 0.635531 0.016062
v -0.050657 0.630115 0.017528
v -0.049990 0.630024 0.015472
v -0.053519 0.635230 0.014255
v -0.051718 0.610628 0.021509
v -0.051518 0.610688 0.021981
v -0.053350 0.635641 0.015476
v -0.050142 0.630334 0.017204
v -0.051678 0.610453 0.021025
v -0.049757 0.630281 0.016017
v -0.053298 0.635531 0.014815
v -0.051131 0.610617 0.022315
v -0.051407 0.610209 0.020659
v -0.049812 0.630395 0.016651
v -0.050661 0.610433 0.022421
v -0.050979 0.609961 0.020510
v -0.050233 0.610186 0.022272
v -0.050509 0.609778 0.020616
v -0.049962 0.609942 0.021906
v -0.050122 0.609706 0.020950
v -0.049922 0.609766 0.021422
v -0.049859 0.624877 0.017033
v -0.049918 0.625000 0.017638
v -0.049514 0.624870 0.016517
v -0.050178 0.614317 0.020374
v -0.049965 0.614388 0.020868
v -0.050129 0.614149 0.019861
v -0.049676 0.625205 0.018171
v -0.049547 0.614341 0.021210
v -0.048975 0.624979 0.016230
v -0.049831 0.613927 0.019466
v -0.049196 0.625436 0.018489
v -0.049036 0.614190 0.021309
v -0.048387 0.625176 0.016248
v -0.049364 0.613711 0.019295
v -0.048569 0.613974 0.021138
v -0.048608 0.625633 0.018507
v -0.048852 0.613560 0.019394
v -0.047907 0.625408 0.016566
v -0.048270 0.613752 0.020743
v -0.049253 0.617805 0.019402
v -0.049023 0.617905 0.019912
v -0.048069 0.625743 0.018220
v -0.048434 0.613513 0.019736
v -0.049196 0.617650 0.018858
v -0.047664 0.625612 0.017099
v -0.048221 0.613583 0.020230
v -0.048568 0.617921 0.020252
v -0.049047 0.621146 0.017943
v -0.049108 0.621284 0.018518
v -0.048699 0.621054 0.017469
v -0.048867 0.617480 0.018427
v -0.047723 0.625735 0.017704
v -0.048865 0.621431 0.019040
v -0.048010 0.617850 0.020331
v -0.048158 0.621033 0.017224
v -0.048355 0.617341 0.018223
v -0.048385 0.621548 0.019370
v -0.047498 0.617711 0.020128
v -0.047568 0.621089 0.017273
v -0.047797 0.617270 0.018302
v -0.047795 0.621604 0.019419
v -0.047169 0.617541 0.019696
v -0.047342 0.617286 0.018642
v -0.047088 0.621206 0.017603
v -0.047112 0.617385 0.019152
v -0.047254 0.621583 0.019174
v -0.046846 0.621353 0.018126
v -0.046906 0.621491 0.018701
v -0.048477 0.620934 0.017712
v -0.047341 0.618988 0.016370
v -0.048493 0.621123 0.017304
v -0.047151 0.619209 0.016059
v -0.048306 0.621382 0.016987
v -0.048263 0.620865 0.018100
v -0.047335 0.618828 0.016765
v -0.046818 0.619431 0.015915
v -0.047967 0.621640 0.016846
v -0.047907 0.620934 0.018366
v -0.047137 0.618771 0.017137
v -0.046430 0.619595 0.015977
v -0.047566 0.621829 0.016918
v -0.047506 0.621123 0.018438
v -0.046798 0.618833 0.017388
v -0.046092 0.619658 0.016227
v -0.047210 0.621898 0.017184
v -0.047166 0.621382 0.018297
v -0.046410 0.618998 0.017449
v -0.046121 0.616445 0.015407
v -0.046122 0.616307 0.015785
v -0.045934 0.616637 0.015107
v -0.045893 0.619601 0.016600
v -0.046995 0.621829 0.017572
v -0.046979 0.621640 0.017980
v -0.046077 0.619220 0.017305
v -0.045612 0.616831 0.014965
v -0.045937 0.616260 0.016139
v -0.045888 0.619441 0.016994
v -0.045241 0.616976 0.015019
v -0.045616 0.616316 0.016375
v -0.044920 0.617032 0.015255
v -0.045245 0.616461 0.016429
v -0.044863 0.613583 0.014433
v -0.044868 0.613463 0.014791
v -0.044683 0.613752 0.014146
v -0.044735 0.616985 0.015609
v -0.044923 0.616655 0.016287
v -0.044696 0.613422 0.015126
v -0.044374 0.613924 0.014008
v -0.044736 0.616847 0.015986
v -0.044393 0.613473 0.015347
v -0.044021 0.614053 0.014056
v -0.044040 0.613601 0.015395
v -0.043718 0.614103 0.014277
v -0.043732 0.613773 0.015258
v -0.043546 0.614063 0.014612
v -0.043597 0.610491 0.013463
v -0.043604 0.610385 0.013802
v -0.043424 0.610641 0.013192
v -0.043551 0.613942 0.014971
v -0.043443 0.610349 0.014117
v -0.043131 0.610794 0.013060
v -0.043158 0.610395 0.014324
v -0.042798 0.610908 0.013103
v -0.042825 0.610510 0.014367
v -0.042513 0.610954 0.013310
v -0.042533 0.610662 0.014235
v -0.042352 0.610919 0.013625
v -0.042349 0.607256 0.012516
v -0.042358 0.607162 0.012834
v -0.042185 0.607389 0.012261
v -0.042360 0.610812 0.013963
v -0.042209 0.607130 0.013129
v -0.041910 0.607525 0.012136
v -0.041942 0.607171 0.013321
v -0.041597 0.607627 0.012175
v -0.041629 0.607273 0.013360
v -0.041330 0.607668 0.012367
v -0.041353 0.607409 0.013235
v -0.041181 0.607637 0.012661
v -0.041150 0.603966 0.011608
v -0.041159 0.603882 0.011904
v -0.040996 0.604083 0.011369
v -0.041189 0.607542 0.012979
v -0.041021 0.603854 0.012178
v -0.040738 0.604204 0.011251
v -0.040773 0.603890 0.012356
v -0.040445 0.604294 0.011286
v -0.040480 0.603980 0.012391
v -0.040197 0.604330 0.011464
v -0.040222 0.604100 0.012273
v -0.040059 0.604302 0.011738
v -0.040068 0.604218 0.012034
v -0.040026 0.600706 0.010755
v -0.040036 0.600632 0.011029
v -0.039882 0.600810 0.010532
v -0.039909 0.600607 0.011282
v -0.039642 0.600916 0.010422
v -0.039679 0.600638 0.011446
v -0.039371 0.600995 0.010453
v -0.039407 0.600717 0.011477
v -0.039141 0.601026 0.010617
v -0.039167 0.600823 0.011367
v -0.039013 0.601001 0.010870
v -0.039023 0.600927 0.011145
v -0.039007 0.597566 0.009972
v -0.039017 0.597500 0.010225
v -0.038873 0.597656 0.009768
v -0.038900 0.597478 0.010457
v -0.038652 0.597748 0.009665
v -0.038688 0.597504 0.010607
v -0.038401 0.597816 0.009692
v -0.038438 0.597572 0.010634
v -0.038189 0.597842 0.009842
v -0.038216 0.597664 0.010532
v -0.038073 0.597820 0.010075
v -0.038120 0.594631 0.009278
v -0.038129 0.594574 0.009508
v -0.037997 0.594708 0.009090
v -0.038082 0.597754 0.010327
v -0.038023 0.594553 0.009719
v -0.037793 0.594786 0.008996
v -0.037830 0.594574 0.009855
v -0.037564 0.594843 0.009019
v -0.037600 0.594631 0.009879
v -0.037371 0.594864 0.009155
v -0.037397 0.594709 0.009784
v -0.037264 0.594843 0.009366
v -0.037393 0.591989 0.008687
v -0.037402 0.591940 0.008895
v -0.037281 0.592053 0.008517
v -0.037274 0.594786 0.009597
v -0.037306 0.591921 0.009085
v -0.037096 0.592116 0.008430
v -0.037131 0.591936 0.009207
v -0.036888 0.592162 0.008450
v -0.036923 0.591981 0.009227
v -0.036712 0.592177 0.008572
v -0.036854 0.589728 0.008217
v -0.036863 0.589689 0.008403
v -0.036753 0.589779 0.008064
v -0.036738 0.592045 0.009140
v -0.036617 0.592157 0.008762
v -0.036778 0.589670 0.008572
v -0.036586 0.589826 0.007985
v -0.036626 0.592109 0.008970
v -0.036620 0.589678 0.008679
v -0.036400 0.589858 0.008001
v -0.036434 0.589710 0.008695
v -0.036242 0.589865 0.008108
v -0.036531 0.587933 0.007883
v -0.036539 0.587900 0.008046
v -0.036441 0.587971 0.007748
v -0.036464 0.587881 0.008194
v -0.036294 0.588004 0.007677
v -0.036267 0.589757 0.008615
v -0.036157 0.589847 0.008277
v -0.036325 0.587881 0.008286
v -0.036166 0.589807 0.008463
v -0.036129 0.588023 0.007689
v -0.036315 0.585950 0.007494
v -0.036323 0.585916 0.007655
v -0.036226 0.585986 0.007361
v -0.036248 0.585894 0.007799
v -0.036081 0.586016 0.007291
v -0.036160 0.587900 0.008298
v -0.035990 0.588023 0.007781
v -0.036062 0.583610 0.006992
v -0.036069 0.583575 0.007149
v -0.035975 0.583648 0.006861
v -0.036111 0.585890 0.007889
v -0.035918 0.586031 0.007302
v -0.036013 0.587933 0.008227
v -0.035996 0.583552 0.007291
v -0.035915 0.588004 0.007929
v -0.035832 0.583678 0.006792
v -0.035948 0.585905 0.007900
v -0.035923 0.587971 0.008092
v -0.035781 0.586027 0.007392
v -0.035861 0.583547 0.007379
v -0.035672 0.583693 0.006803
v -0.035774 0.580935 0.006407
v -0.035781 0.580900 0.006562
v -0.035688 0.580971 0.006279
v -0.035803 0.585935 0.007830
v -0.035709 0.580878 0.006702
v -0.035707 0.586006 0.007536
v -0.035548 0.581001 0.006211
v -0.035701 0.583562 0.007390
v -0.035537 0.583688 0.006891
v -0.035715 0.585972 0.007697
v -0.035576 0.580873 0.006788
v -0.035390 0.581015 0.006222
v -0.035558 0.583592 0.007321
v -0.035452 0.577937 0.005772
v -0.035460 0.577905 0.005925
v -0.035368 0.577972 0.005646
v -0.035463 0.583665 0.007033
v -0.035389 0.577885 0.006062
v -0.035418 0.580888 0.006799
v -0.035471 0.583630 0.007190
v -0.035230 0.578001 0.005579
v -0.035258 0.581011 0.006308
v -0.035259 0.577881 0.006148
v -0.035075 0.578015 0.005589
v -0.035278 0.580917 0.006731
v -0.035185 0.580988 0.006448
v -0.035100 0.574633 0.005118
v -0.035107 0.574604 0.005268
v -0.035017 0.574665 0.004993
v -0.035193 0.580954 0.006603
v -0.035104 0.577895 0.006158
v -0.035038 0.574586 0.005404
v -0.034945 0.578011 0.005675
v -0.034881 0.574692 0.004927
v -0.034966 0.577923 0.006091
v -0.034910 0.574583 0.005488
v -0.034874 0.577990 0.005812
v -0.034729 0.574706 0.004937
v -0.034882 0.577958 0.005965
v -0.034717 0.571036 0.004475
v -0.034725 0.571010 0.004623
v -0.034636 0.571065 0.004352
v -0.034758 0.574597 0.005499
v -0.034601 0.574704 0.005022
v -0.034657 0.570995 0.004757
v -0.034502 0.571090 0.004287
v -0.034622 0.574624 0.005432
v -0.034531 0.574685 0.005157
v -0.034532 0.570994 0.004840
v -0.034352 0.571104 0.004297
v -0.034539 0.574656 0.005308
v -0.034382 0.571008 0.004851
v -0.034307 0.567160 0.003875
v -0.034315 0.567139 0.004022
v -0.034226 0.567186 0.003754
v -0.034227 0.571103 0.004380
v -0.034248 0.567127 0.004153
v -0.034095 0.567209 0.003690
v -0.034248 0.571033 0.004785
v -0.034159 0.571088 0.004514
v -0.034125 0.567128 0.004235
v -0.034167 0.571062 0.004662
v -0.033948 0.567222 0.003700
v -0.033978 0.567142 0.004246
v -0.033825 0.567224 0.003782
v -0.033870 0.563020 0.003350
v -0.033878 0.563003 0.003494
v -0.033790 0.563042 0.003230
v -0.033813 0.562995 0.003624
v -0.033847 0.567165 0.004181
v -0.033661 0.563062 0.003167
v -0.033758 0.567212 0.003914
v -0.033766 0.567191 0.004060
v -0.033693 0.562999 0.003705
v -0.033517 0.563076 0.003177
v -0.033548 0.563013 0.003715
v -0.033396 0.563080 0.003257
v -0.033408 0.558630 0.002929
v -0.033417 0.558618 0.003071
v -0.033330 0.558648 0.002811
v -0.033419 0.563034 0.003651
v -0.033331 0.563072 0.003387
v -0.033354 0.558615 0.003199
v -0.033203 0.558666 0.002749
v -0.033339 0.563055 0.003531
v -0.033235 0.558621 0.003279
v -0.033061 0.558680 0.002759
v -0.033094 0.558635 0.003288
v -0.032942 0.558686 0.002838
v -0.032923 0.554005 0.002645
v -0.032932 0.553998 0.002785
v -0.032846 0.554018 0.002529
v -0.032966 0.558653 0.003226
v -0.032879 0.558682 0.002966
v -0.032871 0.553999 0.002910
v -0.032721 0.554034 0.002468
v -0.032888 0.558670 0.003108
v -0.032755 0.554008 0.002989
v -0.032582 0.554048 0.002477
v -0.032616 0.554022 0.002998
v -0.032466 0.554056 0.002556
v -0.032491 0.554037 0.002937
v -0.032417 0.549158 0.002528
v -0.032340 0.549167 0.002414
v -0.032426 0.549157 0.002665
v -0.032404 0.554057 0.002681
v -0.032366 0.549162 0.002789
v -0.032413 0.554050 0.002821
v -0.032218 0.549179 0.002354
v -0.032253 0.549174 0.002866
v -0.032081 0.549194 0.002364
v -0.032117 0.549188 0.002875
v -0.031968 0.549205 0.002441
v -0.031994 0.549201 0.002815
v -0.031908 0.549211 0.002564
v -0.031891 0.544104 0.002610
v -0.031815 0.544108 0.002499
v -0.031901 0.544108 0.002744
v -0.031917 0.549209 0.002701
v -0.031842 0.544119 0.002866
v -0.031695 0.544118 0.002440
v -0.031731 0.544133 0.002941
v -0.031561 0.544132 0.002449
v -0.031598 0.544147 0.002950
v -0.031450 0.544147 0.002524
v -0.031477 0.544157 0.002891
v -0.031392 0.544157 0.002645
v -0.031402 0.544161 0.002780
v -0.062124 0.575068 0.033472
v -0.062107 0.571294 0.032318
v -0.062167 0.575117 0.033185
v -0.061620 0.579055 0.033863
v -0.062006 0.571368 0.032075
v -0.062059 0.575154 0.032914
v -0.061670 0.579072 0.033553
v -0.062067 0.571224 0.032580
v -0.061942 0.575020 0.033697
v -0.061424 0.579009 0.034104
v -0.061600 0.567528 0.031079
v -0.061510 0.567622 0.030862
v -0.061898 0.571176 0.032789
v -0.061562 0.567449 0.031316
v -0.061793 0.571426 0.031915
v -0.061829 0.575168 0.032732
v -0.061563 0.579055 0.033258
v -0.061316 0.567704 0.030724
v -0.061670 0.574986 0.033801
v -0.061136 0.578946 0.034213
v -0.061644 0.571164 0.032890
v -0.061405 0.567405 0.031510
v -0.061523 0.571453 0.031882
v -0.061325 0.579009 0.033058
v -0.061539 0.575156 0.032687
v -0.061069 0.567754 0.030700
v -0.061380 0.574974 0.033756
v -0.060833 0.578884 0.034160
v -0.061172 0.567408 0.031608
v -0.061374 0.571191 0.032856
v -0.060757 0.563739 0.029591
v -0.060677 0.563837 0.029396
v -0.060721 0.563660 0.029806
v -0.061269 0.571441 0.031983
v -0.061022 0.578946 0.033005
v -0.061267 0.575122 0.032791
v -0.060836 0.567757 0.030799
v -0.060501 0.563928 0.029274
v -0.060577 0.563622 0.029985
v -0.061150 0.574988 0.033573
v -0.060926 0.567458 0.031585
v -0.061161 0.571249 0.032696
v -0.060596 0.578838 0.033960
v -0.060277 0.563988 0.029258
v -0.061100 0.571393 0.032192
v -0.060680 0.567714 0.030992
v -0.061085 0.575074 0.033016
v -0.060734 0.578884 0.033113
v -0.060365 0.563635 0.030079
v -0.061042 0.575025 0.033303
v -0.061060 0.571323 0.032453
v -0.060731 0.567541 0.031446
v -0.060488 0.578821 0.033665
v -0.060641 0.567634 0.031229
v -0.060538 0.578838 0.033355
v -0.060065 0.564001 0.029352
v -0.060141 0.563695 0.030063
v -0.059922 0.563963 0.029531
v -0.059684 0.559844 0.027973
v -0.059611 0.559936 0.027796
v -0.059651 0.559773 0.028169
v -0.059965 0.563786 0.029941
v -0.059452 0.560024 0.027687
v -0.059885 0.563884 0.029746
v -0.059521 0.559742 0.028334
v -0.059250 0.560085 0.027675
v -0.059328 0.559759 0.028422
v -0.059058 0.560102 0.027763
v -0.059126 0.559819 0.028409
v -0.058928 0.560071 0.027927
v -0.058967 0.559907 0.028300
v -0.058894 0.559999 0.028124
v -0.058485 0.555762 0.026344
v -0.058418 0.555841 0.026183
v -0.058457 0.555702 0.026523
v -0.058274 0.555918 0.026083
v -0.058340 0.555678 0.026673
v -0.058091 0.555973 0.026072
v -0.058168 0.555696 0.026754
v -0.057919 0.555991 0.026153
v -0.057985 0.555751 0.026743
v -0.057802 0.555967 0.026303
v -0.057840 0.555828 0.026643
v -0.057774 0.555907 0.026482
v -0.057266 0.551411 0.024821
v -0.057204 0.551472 0.024674
v -0.057242 0.551366 0.024984
v -0.057073 0.551534 0.024583
v -0.057140 0.551349 0.025120
v -0.056909 0.551579 0.024572
v -0.056985 0.551365 0.025192
v -0.056754 0.551595 0.024644
v -0.056821 0.551410 0.025180
v -0.056652 0.551579 0.024779
v -0.056690 0.551472 0.025089
v -0.056628 0.551533 0.024942
v -0.056129 0.546711 0.023523
v -0.056071 0.546753 0.023391
v -0.056110 0.546681 0.023669
v -0.055954 0.546797 0.023307
v -0.056021 0.546671 0.023790
v -0.055808 0.546829 0.023296
v -0.055885 0.546684 0.023853
v -0.055672 0.546843 0.023359
v -0.055739 0.546717 0.023841
v -0.055583 0.546833 0.023479
v -0.055621 0.546760 0.023758
v -0.055564 0.546803 0.023626
v -0.055178 0.541582 0.022568
v -0.055126 0.541605 0.022451
v -0.055164 0.541566 0.022696
v -0.055023 0.541630 0.022377
v -0.055088 0.541563 0.022801
v -0.054895 0.541650 0.022365
v -0.054970 0.541572 0.022855
v -0.054777 0.541660 0.022419
v -0.054842 0.541592 0.022843
v -0.054701 0.541656 0.022524
v -0.054739 0.541617 0.022769
v -0.054687 0.541641 0.022652
v -0.054518 0.535944 0.022074
v -0.054473 0.535951 0.021974
v -0.054507 0.535941 0.022182
v -0.054384 0.535960 0.021910
v -0.054443 0.535942 0.022271
v -0.054276 0.535968 0.021900
v -0.054344 0.535947 0.022317
v -0.054176 0.535974 0.021945
v -0.054235 0.535956 0.022306
v -0.054113 0.535975 0.022034
v -0.054147 0.535965 0.022243
v -0.054102 0.535972 0.022143
v -0.054253 0.529717 0.022160
v -0.054216 0.529712 0.022079
v -0.054244 0.529723 0.022249
v -0.054481 0.522833 0.023015
v -0.054488 0.522823 0.022948
v -0.054459 0.522811 0.022886
v -0.054193 0.529727 0.022321
v -0.054441 0.522839 0.023070
v -0.054143 0.529709 0.022028
v -0.054404 0.522800 0.022848
v -0.054112 0.529729 0.022358
v -0.054379 0.522839 0.023099
v -0.054336 0.522794 0.022842
v -0.054023 0.529729 0.022349
v -0.054311 0.522833 0.023093
v -0.054055 0.529708 0.022019
v -0.054274 0.522794 0.022870
v -0.053951 0.529725 0.022298
v -0.054255 0.522822 0.023054
v -0.053974 0.529710 0.022056
v -0.054234 0.522800 0.022926
v -0.053922 0.529715 0.022129
v -0.054227 0.522810 0.022993
v -0.053914 0.529720 0.022217
usemtl Descending_genicular_artery_rMaterial0
f 1 2 3
f 4 3 5
f 1 3 4
f 6 7 2
f 6 2 1
f 8 5 9
f 4 5 8
f 10 11 7
f 10 7 6
f 12 9 13
f 8 9 12
f 14 15 11
f 14 11 10
f 16 13 17
f 12 13 16
f 18 19 15
f 18 15 14
f 20 17 21
f 16 17 20
f 22 23 19
f 22 19 18
f 24 21 23
f 20 21 24
f 24 23 22
f 25 1 4
f 26 4 8
f 25 4 26
f 27 6 1
f 27 1 25
f 28 8 12
f 26 8 28
f 29 10 6
f 29 6 27
f 30 12 16
f 28 12 30
f 31 14 10
f 31 10 29
f 32 16 20
f 30 16 32
f 33 18 14
f 33 14 31
f 34 20 24
f 32 20 34
f 35 22 18
f 35 18 33
f 36 24 22
f 34 24 36
f 36 22 35
f 37 25 26
f 38 26 28
f 37 26 38
f 39 27 25
f 39 25 37
f 40 28 30
f 38 28 40
f 41 29 27
f 41 27 39
f 42 30 32
f 40 30 42
f 43 31 29
f 43 29 41
f 44 32 34
f 42 32 44
f 45 33 31
f 45 31 43
f 46 34 36
f 44 34 46
f 47 35 33
f 47 33 45
f 48 36 35
f 46 36 48
f 48 35 47
f 49 37 38
f 50 38 40
f 49 38 50
f 51 39 37
f 51 37 49
f 52 40 42
f 50 40 52
f 53 41 39
f 53 39 51
f 54 42 44
f 52 42 54
f 55 43 41
f 55 41 53
f 56 44 46
f 54 44 56
f 57 45 43
f 57 43 55
f 58 46 48
f 56 46 58
f 59 47 45
f 59 45 57
f 60 48 47
f 58 48 60
f 60 47 59
f 61 49 50
f 62 50 52
f 61 50 62
f 63 51 49
f 63 49 61
f 64 52 54
f 62 52 64
f 65 53 51
f 65 51 63
f 66 54 56
f 64 54 66
f 67 55 53
f 67 53 65
f 68 56 58
f 66 56 68
f 69 57 55
f 69 55 67
f 70 58 60
f 68 58 70
f 71 59 57
f 71 57 69
f 72 60 59
f 70 60 72
f 72 59 71
f 73 62 64
f 74 61 62
f 74 62 73
f 75 64 66
f 73 64 75
f 76 63 61
f 76 61 74
f 77 66 68
f 75 66 77
f 78 65 63
f 78 63 76
f 79 68 70
f 77 68 79
f 80 67 65
f 80 65 78
f 81 70 72
f 79 70 81
f 82 69 67
f 82 67 80
f 83 72 71
f 81 72 83
f 84 71 69
f 84 69 82
f 83 71 84
f 85 73 75
f 86 74 73
f 86 73 85
f 87 75 77
f 85 75 87
f 88 76 74
f 88 74 86
f 89 77 79
f 87 77 89
f 90 78 76
f 90 76 88
f 91 79 81
f 89 79 91
f 92 80 78
f 92 78 90
f 93 81 83
f 91 81 93
f 94 82 80
f 94 80 92
f 95 83 84
f 93 83 95
f 96 84 82
f 96 82 94
f 95 84 96
f 97 85 87
f 98 86 85
f 98 85 97
f 99 87 89
f 97 87 99
f 100 88 86
f 100 86 98
f 101 89 91
f 99 89 101
f 102 90 88
f 102 88 100
f 103 91 93
f 101 91 103
f 104 92 90
f 104 90 102
f 105 93 95
f 103 93 105
f 106 94 92
f 106 92 104
f 107 95 96
f 105 95 107
f 108 97 99
f 109 98 97
f 109 97 108
f 110 96 94
f 110 94 106
f 111 99 101
f 108 99 111
f 107 96 110
f 112 100 98
f 112 98 109
f 113 101 103
f 111 101 113
f 114 102 100
f 114 100 112
f 115 103 105
f 113 103 115
f 116 104 102
f 116 102 114
f 117 108 111
f 118 109 108
f 118 108 117
f 119 105 107
f 115 105 119
f 120 111 113
f 117 111 120
f 121 112 109
f 121 109 118
f 122 106 104
f 122 104 116
f 123 113 115
f 120 113 123
f 124 107 110
f 119 107 124
f 125 110 106
f 125 106 122
f 124 110 125
f 126 114 112
f 126 112 121
f 123 115 127
f 127 115 119
f 128 117 120
f 129 118 117
f 129 117 128
f 130 120 123
f 128 120 130
f 131 116 114
f 131 114 126
f 132 121 118
f 132 118 129
f 130 123 133
f 133 123 127
f 134 119 124
f 127 119 134
f 135 128 130
f 136 129 128
f 136 128 135
f 137 122 116
f 137 116 131
f 138 126 121
f 138 121 132
f 139 130 133
f 135 130 139
f 140 124 125
f 134 124 140
f 133 127 141
f 141 127 134
f 142 129 136
f 142 132 129
f 143 125 122
f 143 122 137
f 140 125 143
f 139 133 144
f 144 133 141
f 145 135 139
f 146 136 135
f 146 135 145
f 147 139 144
f 145 139 147
f 148 131 126
f 148 126 138
f 149 142 136
f 149 136 146
f 141 134 150
f 150 134 140
f 151 132 142
f 151 138 132
f 144 141 152
f 153 144 152
f 147 144 153
f 152 141 150
f 154 137 131
f 154 131 148
f 155 140 143
f 150 140 155
f 156 151 142
f 156 142 149
f 157 138 151
f 157 148 138
f 152 150 158
f 159 152 158
f 153 152 159
f 160 143 137
f 160 137 154
f 155 143 160
f 158 150 155
f 161 157 151
f 161 151 156
f 162 145 147
f 163 146 145
f 163 145 162
f 164 147 153
f 162 147 164
f 165 154 148
f 165 148 157
f 158 155 166
f 166 155 160
f 167 158 166
f 159 158 167
f 168 149 146
f 168 146 163
f 169 160 154
f 166 160 169
f 169 154 165
f 170 153 159
f 164 153 170
f 171 165 157
f 171 157 161
f 172 166 169
f 167 166 172
f 173 156 149
f 173 149 168
f 174 169 165
f 174 165 171
f 172 169 174
f 175 159 167
f 170 159 175
f 176 161 156
f 176 156 173
f 177 167 172
f 175 167 177
f 178 171 161
f 178 161 176
f 179 172 174
f 177 172 179
f 180 174 171
f 180 171 178
f 179 174 180
f 181 162 164
f 182 163 162
f 182 162 181
f 183 164 170
f 181 164 183
f 184 168 163
f 184 163 182
f 185 170 175
f 183 170 185
f 186 173 168
f 186 168 184
f 187 175 177
f 185 175 187
f 188 176 173
f 188 173 186
f 189 177 179
f 187 177 189
f 190 178 176
f 190 176 188
f 191 179 180
f 189 179 191
f 192 180 178
f 192 178 190
f 191 180 192
f 193 181 183
f 194 182 181
f 194 181 193
f 195 183 185
f 193 183 195
f 196 184 182
f 196 182 194
f 197 185 187
f 195 185 197
f 198 186 184
f 198 184 196
f 199 187 189
f 197 187 199
f 200 188 186
f 200 186 198
f 201 189 191
f 199 189 201
f 202 190 188
f 202 188 200
f 203 191 192
f 201 191 203
f 204 192 190
f 204 190 202
f 203 192 204
f 205 193 195
f 206 194 193
f 206 193 205
f 207 195 197
f 205 195 207
f 208 196 194
f 208 194 206
f 209 197 199
f 207 197 209
f 210 211 212
f 213 214 210
f 210 214 211
f 215 198 196
f 215 196 208
f 212 216 217
f 212 211 216
f 218 199 201
f 209 199 218
f 219 220 213
f 213 220 214
f 217 221 222
f 217 216 221
f 223 200 198
f 223 198 215
f 224 201 203
f 218 201 224
f 225 226 219
f 219 226 220
f 227 202 200
f 227 200 223
f 222 228 229
f 222 221 228
f 230 203 204
f 224 203 230
f 231 204 202
f 230 204 231
f 231 202 227
f 232 233 225
f 225 233 226
f 229 234 235
f 229 228 234
f 236 205 207
f 237 206 205
f 237 205 236
f 238 239 232
f 232 239 233
f 240 207 209
f 236 207 240
f 235 241 242
f 235 234 241
f 243 208 206
f 243 206 237
f 244 209 218
f 240 209 244
f 242 245 238
f 238 245 239
f 242 241 245
f 246 215 208
f 246 208 243
f 247 218 224
f 244 218 247
f 248 223 215
f 248 215 246
f 249 224 230
f 247 224 249
f 250 227 223
f 250 223 248
f 251 230 231
f 249 230 251
f 252 231 227
f 252 227 250
f 251 231 252
f 214 253 211
f 220 254 214
f 214 254 253
f 211 255 216
f 211 253 255
f 256 236 240
f 257 237 236
f 257 236 256
f 258 240 244
f 256 240 258
f 226 259 220
f 220 259 254
f 260 243 237
f 260 237 257
f 216 261 221
f 216 255 261
f 262 244 247
f 258 244 262
f 233 263 226
f 226 263 259
f 264 246 243
f 264 243 260
f 221 265 228
f 221 261 265
f 266 247 249
f 262 247 266
f 267 248 246
f 267 246 264
f 239 268 233
f 233 268 263
f 269 249 251
f 266 249 269
f 228 270 234
f 228 265 270
f 271 250 248
f 271 248 267
f 272 256 258
f 273 257 256
f 273 256 272
f 245 274 239
f 239 274 268
f 275 251 252
f 269 251 275
f 276 258 262
f 272 258 276
f 234 277 241
f 234 270 277
f 278 252 250
f 278 250 271
f 279 260 257
f 279 257 273
f 275 252 278
f 254 280 253
f 259 281 254
f 254 281 280
f 253 282 255
f 253 280 282
f 283 262 266
f 276 262 283
f 241 284 245
f 245 284 274
f 241 277 284
f 263 285 259
f 259 285 281
f 286 264 260
f 286 260 279
f 255 287 261
f 255 282 287
f 283 266 288
f 288 266 269
f 281 272 276
f 285 272 281
f 285 273 272
f 281 276 280
f 280 276 283
f 263 289 285
f 268 289 263
f 280 283 282
f 290 267 264
f 290 264 286
f 289 273 285
f 289 279 273
f 261 291 265
f 261 287 291
f 282 283 288
f 292 269 275
f 288 269 292
f 282 288 287
f 268 293 289
f 274 293 268
f 294 271 267
f 294 267 290
f 293 279 289
f 293 286 279
f 295 275 278
f 292 275 295
f 265 296 270
f 265 291 296
f 287 288 292
f 297 278 271
f 297 271 294
f 295 278 297
f 287 292 291
f 274 298 293
f 284 298 274
f 298 286 293
f 298 290 286
f 270 299 277
f 270 296 299
f 291 292 295
f 277 300 284
f 284 300 298
f 277 299 300
f 291 295 296
f 300 290 298
f 300 294 290
f 296 295 297
f 299 297 294
f 299 294 300
f 296 297 299
f 301 302 303
f 303 304 305
f 303 302 304
f 306 307 301
f 301 307 302
f 305 308 309
f 305 304 308
f 310 311 306
f 306 311 307
f 309 312 313
f 309 308 312
f 314 315 310
f 310 315 311
f 313 316 317
f 313 312 316
f 318 319 314
f 314 319 315
f 307 320 302
f 311 321 307
f 307 321 320
f 302 322 304
f 302 320 322
f 317 323 324
f 317 316 323
f 325 326 318
f 318 326 319
f 304 327 308
f 304 322 327
f 315 328 311
f 311 328 321
f 324 329 325
f 324 323 329
f 325 329 326
f 308 330 312
f 308 327 330
f 319 331 315
f 315 331 328
f 312 332 316
f 312 330 332
f 326 333 319
f 319 333 331
f 321 334 320
f 328 335 321
f 321 335 334
f 320 336 322
f 320 334 336
f 316 337 323
f 316 332 337
f 329 338 326
f 326 338 333
f 331 339 328
f 328 339 335
f 322 340 327
f 322 336 340
f 323 341 329
f 329 341 338
f 323 337 341
f 333 342 331
f 331 342 339
f 327 343 330
f 327 340 343
f 338 344 333
f 333 344 342
f 330 345 332
f 330 343 345
f 341 346 338
f 338 346 344
f 332 347 337
f 332 345 347
f 335 348 334
f 339 349 335
f 335 349 348
f 334 350 336
f 334 348 350
f 337 351 341
f 341 351 346
f 337 347 351
f 342 352 339
f 339 352 349
f 336 353 340
f 336 350 353
f 344 354 342
f 342 354 352
f 340 355 343
f 340 353 355
f 346 356 344
f 344 356 354
f 343 357 345
f 343 355 357
f 351 358 346
f 346 358 356
f 345 359 347
f 345 357 359
f 349 360 348
f 352 361 349
f 349 361 360
f 348 362 350
f 348 360 362
f 347 363 351
f 351 363 358
f 347 359 363
f 354 364 352
f 352 364 361
f 350 365 353
f 350 362 365
f 356 366 354
f 354 366 364
f 353 367 355
f 353 365 367
f 358 368 356
f 356 368 366
f 355 369 357
f 355 367 369
f 363 370 358
f 358 370 368
f 357 371 359
f 357 369 371
f 361 372 360
f 364 373 361
f 361 373 372
f 360 374 362
f 360 372 374
f 359 375 363
f 363 375 370
f 359 371 375
f 366 376 364
f 364 376 373
f 362 377 365
f 362 374 377
f 368 378 366
f 366 378 376
f 365 379 367
f 365 377 379
f 370 380 368
f 368 380 378
f 367 381 369
f 367 379 381
f 375 382 370
f 370 382 380
f 369 383 371
f 369 381 383
f 371 384 375
f 375 384 382
f 371 383 384
f 373 385 372
f 376 386 373
f 373 386 385
f 372 387 374
f 372 385 387
f 378 388 376
f 376 388 386
f 374 389 377
f 374 387 389
f 380 390 378
f 378 390 388
f 377 391 379
f 377 389 391
f 382 392 380
f 380 392 390
f 379 393 381
f 379 391 393
f 384 394 382
f 382 394 392
f 381 395 383
f 381 393 395
f 383 396 384
f 384 396 394
f 383 395 396
f 386 397 385
f 388 398 386
f 386 398 397
f 385 399 387
f 385 397 399
f 390 400 388
f 388 400 398
f 387 401 389
f 387 399 401
f 392 402 390
f 390 402 400
f 389 403 391
f 389 401 403
f 394 404 392
f 392 404 402
f 391 405 393
f 391 403 405
f 396 406 394
f 394 406 404
f 393 407 395
f 393 405 407
f 398 408 397
f 400 409 398
f 398 409 408
f 397 410 399
f 397 408 410
f 395 411 396
f 396 411 406
f 395 407 411
f 402 412 400
f 400 412 409
f 399 413 401
f 399 410 413
f 404 414 402
f 402 414 412
f 401 415 403
f 401 413 415
f 406 416 404
f 404 416 414
f 403 417 405
f 403 415 417
f 411 418 406
f 406 418 416
f 405 419 407
f 405 417 419
f 409 420 408
f 412 421 409
f 409 421 420
f 408 422 410
f 408 420 422
f 407 423 411
f 411 423 418
f 407 419 423
f 414 424 412
f 412 424 421
f 410 425 413
f 410 422 425
f 416 426 414
f 414 426 424
f 413 427 415
f 413 425 427
f 418 428 416
f 416 428 426
f 415 429 417
f 415 427 429
f 421 430 420
f 424 431 421
f 421 431 430
f 420 432 422
f 420 430 432
f 423 433 418
f 418 433 428
f 417 434 419
f 417 429 434
f 426 435 424
f 424 435 431
f 422 436 425
f 422 432 436
f 419 437 423
f 423 437 433
f 419 434 437
f 428 438 426
f 426 438 435
f 425 439 427
f 425 436 439
f 433 440 428
f 428 440 438
f 427 441 429
f 427 439 441
f 431 442 430
f 435 443 431
f 431 443 442
f 430 444 432
f 430 442 444
f 438 445 435
f 435 445 443
f 432 446 436
f 432 444 446
f 437 447 433
f 433 447 440
f 429 448 434
f 429 441 448
f 438 449 445
f 440 449 438
f 434 450 437
f 437 450 447
f 434 448 450
f 436 451 439
f 436 446 451
f 443 452 442
f 445 453 443
f 443 453 452
f 442 454 444
f 442 452 454
f 445 455 453
f 449 455 445
f 444 456 446
f 444 454 456
f 440 457 449
f 447 457 440
f 439 458 441
f 439 451 458
f 453 459 452
f 455 460 453
f 453 460 459
f 452 461 454
f 452 459 461
f 449 462 455
f 457 462 449
f 446 463 451
f 446 456 463
f 447 464 457
f 450 464 447
f 462 465 455
f 455 465 460
f 441 466 448
f 441 458 466
f 454 467 456
f 454 461 467
f 457 468 462
f 464 468 457
f 448 469 450
f 450 469 464
f 448 466 469
f 451 470 458
f 451 463 470
f 462 471 465
f 468 471 462
f 456 472 463
f 456 467 472
f 460 473 459
f 465 474 460
f 460 474 473
f 459 475 461
f 459 473 475
f 464 476 468
f 469 476 464
f 471 477 465
f 465 477 474
f 458 478 466
f 458 470 478
f 461 479 467
f 461 475 479
f 468 480 471
f 476 480 468
f 463 481 470
f 463 472 481
f 466 482 469
f 469 482 476
f 466 478 482
f 471 483 477
f 480 483 471
f 467 484 472
f 467 479 484
f 476 485 480
f 482 485 476
f 474 486 473
f 477 487 474
f 474 487 486
f 473 488 475
f 473 486 488
f 470 489 478
f 470 481 489
f 483 490 477
f 477 490 487
f 480 491 483
f 485 491 480
f 478 492 482
f 482 492 485
f 478 489 492
f 475 493 479
f 475 488 493
f 472 494 481
f 472 484 494
f 491 495 483
f 483 495 490
f 479 496 484
f 479 493 496
f 492 497 485
f 485 497 491
f 481 498 489
f 481 494 498
f 487 499 486
f 490 500 487
f 487 500 499
f 486 501 488
f 486 499 501
f 489 502 492
f 492 502 497
f 489 498 502
f 497 503 491
f 491 503 495
f 495 504 490
f 490 504 500
f 484 505 494
f 484 496 505
f 488 506 493
f 488 501 506
f 502 507 497
f 497 507 503
f 503 508 495
f 495 508 504
f 494 509 498
f 494 505 509
f 493 510 496
f 493 506 510
f 498 511 502
f 502 511 507
f 498 509 511
f 500 512 499
f 504 513 500
f 500 513 512
f 499 514 501
f 499 512 514
f 507 515 503
f 503 515 508
f 496 516 505
f 496 510 516
f 508 517 504
f 504 517 513
f 501 518 506
f 501 514 518
f 511 519 507
f 507 519 515
f 505 520 509
f 505 516 520
f 515 521 508
f 508 521 517
f 506 522 510
f 506 518 522
f 509 523 511
f 511 523 519
f 509 520 523
f 519 524 515
f 515 524 521
f 513 525 512
f 517 526 513
f 513 526 525
f 512 527 514
f 512 525 527
f 510 528 516
f 510 522 528
f 521 529 517
f 517 529 526
f 514 530 518
f 514 527 530
f 523 531 519
f 519 531 524
f 516 532 520
f 516 528 532
f 524 533 521
f 521 533 529
f 520 534 523
f 523 534 531
f 520 532 534
f 518 535 522
f 518 530 535
f 531 536 524
f 524 536 533
f 522 537 528
f 522 535 537
f 526 538 525
f 529 539 526
f 526 539 538
f 525 540 527
f 525 538 540
f 533 541 529
f 529 541 539
f 534 542 531
f 531 542 536
f 527 543 530
f 527 540 543
f 528 544 532
f 528 537 544
f 532 545 534
f 534 545 542
f 532 544 545
f 536 546 533
f 533 546 541
f 530 547 535
f 530 543 547
f 542 548 536
f 536 548 546
f 535 549 537
f 535 547 549
f 539 550 538
f 541 551 539
f 539 551 550
f 538 552 540
f 538 550 552
f 545 553 542
f 542 553 548
f 537 554 544
f 537 549 554
f 546 555 541
f 541 555 551
f 540 556 543
f 540 552 556
f 544 557 545
f 545 557 553
f 544 554 557
f 548 558 546
f 546 558 555
f 543 559 547
f 543 556 559
f 553 560 548
f 548 560 558
f 547 561 549
f 547 559 561
f 551 562 550
f 555 563 551
f 551 563 562
f 550 564 552
f 550 562 564
f 557 565 553
f 553 565 560
f 549 566 554
f 549 561 566
f 558 567 555
f 555 567 563
f 552 568 556
f 552 564 568
f 554 569 557
f 557 569 565
f 554 566 569
f 560 570 558
f 558 570 567
f 556 571 559
f 556 568 571
f 565 572 560
f 560 572 570
f 559 573 561
f 559 571 573
f 569 574 565
f 565 574 572
f 563 575 562
f 562 576 564
f 562 575 576
f 567 577 563
f 563 577 575
f 561 578 566
f 561 573 578
f 570 579 567
f 567 579 577
f 566 580 569
f 569 580 574
f 566 578 580
f 564 581 568
f 564 576 581
f 572 582 570
f 570 582 579
f 568 583 571
f 568 581 583
f 574 584 572
f 572 584 582
f 571 585 573
f 571 583 585
f 580 586 574
f 574 586 584
f 573 587 578
f 573 585 587
f 577 588 575
f 575 589 576
f 575 588 589
f 579 590 577
f 577 590 588
f 578 591 580
f 578 587 591
f 580 591 586
f 582 592 579
f 579 592 590
f 576 593 581
f 576 589 593
f 584 594 582
f 582 594 592
f 581 595 583
f 581 593 595
f 586 596 584
f 584 596 594
f 583 597 585
f 583 595 597
f 591 598 586
f 586 598 596
f 585 599 587
f 585 597 599
f 587 600 591
f 587 599 600
f 591 600 598
f 601 602 603
f 604 601 603
f 603 602 605
f 603 605 606
f 607 603 606
f 604 603 607
f 601 608 602
f 609 608 601
f 610 609 601
f 610 601 604
f 608 611 602
f 602 612 605
f 602 611 612
f 609 613 608
f 613 614 608
f 608 614 611
f 606 605 615
f 606 615 616
f 617 606 616
f 607 606 617
f 605 618 615
f 605 612 618
f 619 613 609
f 620 619 609
f 620 609 610
f 619 621 613
f 621 622 613
f 613 622 614
f 616 615 623
f 617 616 624
f 616 623 625
f 624 616 625
f 615 626 623
f 615 618 626
f 627 621 619
f 628 627 619
f 628 619 620
f 621 629 622
f 627 630 621
f 630 629 621
f 614 631 611
f 611 632 612
f 611 631 632
f 622 633 614
f 614 633 631
f 625 623 634
f 624 625 635
f 625 634 636
f 635 625 636
f 623 637 634
f 623 626 637
f 612 638 618
f 612 632 638
f 629 639 622
f 622 639 633
f 640 630 627
f 630 641 629
f 640 642 630
f 642 641 630
f 643 640 627
f 643 627 628
f 618 644 626
f 618 638 644
f 636 634 645
f 634 646 645
f 634 637 646
f 636 645 647
f 648 636 647
f 635 636 648
f 641 649 629
f 629 649 639
f 650 642 640
f 650 651 642
f 651 652 642
f 642 652 641
f 653 650 640
f 653 640 643
f 647 645 651
f 645 654 651
f 645 646 654
f 647 651 650
f 655 647 650
f 648 647 655
f 626 656 637
f 626 644 656
f 651 654 652
f 655 650 653
f 652 657 641
f 641 657 649
f 637 658 646
f 637 656 658
f 633 659 631
f 631 660 632
f 631 659 660
f 639 661 633
f 633 661 659
f 654 662 652
f 652 662 657
f 632 663 638
f 632 660 663
f 646 664 654
f 646 658 664
f 654 664 662
f 649 665 639
f 639 665 661
f 638 666 644
f 638 663 666
f 657 667 649
f 649 667 665
f 644 668 656
f 644 666 668
f 662 669 657
f 657 669 667
f 656 670 658
f 656 668 670
f 664 671 662
f 662 671 669
f 658 672 664
f 658 670 672
f 664 672 671
f 661 673 659
f 659 674 660
f 659 673 674
f 665 675 661
f 661 675 673
f 660 676 663
f 660 674 676
f 667 677 665
f 665 677 675
f 663 678 666
f 663 676 678
f 669 679 667
f 667 679 677
f 666 680 668
f 666 678 680
f 671 681 669
f 669 681 679
f 668 682 670
f 668 680 682
f 672 683 671
f 671 683 681
f 670 684 672
f 670 682 684
f 672 684 683
f 675 685 673
f 673 686 674
f 673 685 686
f 677 687 675
f 675 687 685
f 674 688 676
f 674 686 688
f 679 689 677
f 677 689 687
f 676 690 678
f 676 688 690
f 681 691 679
f 679 691 689
f 678 692 680
f 678 690 692
f 683 693 681
f 681 693 691
f 680 694 682
f 680 692 694
f 684 695 683
f 683 695 693
f 682 696 684
f 682 694 696
f 684 696 695
f 687 697 685
f 685 698 686
f 685 697 698
f 689 699 687
f 687 699 697
f 686 700 688
f 686 698 700
f 691 701 689
f 689 701 699
f 688 702 690
f 688 700 702
f 693 703 691
f 691 703 701
f 690 704 692
f 690 702 704
f 695 705 693
f 693 705 703
f 692 706 694
f 692 704 706
f 696 707 695
f 695 707 705
f 694 708 696
f 694 706 708
f 696 708 707
f 699 709 697
f 697 710 698
f 697 709 710
f 701 711 699
f 699 711 709
f 698 712 700
f 698 710 712
f 703 713 701
f 701 713 711
f 700 714 702
f 700 712 714
f 705 715 703
f 703 715 713
f 702 716 704
f 702 714 716
f 707 717 705
f 705 717 715
f 704 718 706
f 704 716 718
f 708 719 707
f 707 719 717
f 706 720 708
f 706 718 720
f 708 720 719
f 711 721 709
f 709 722 710
f 709 721 722
f 713 723 711
f 711 723 721
f 710 724 712
f 710 722 724
f 715 725 713
f 713 725 723
f 712 726 714
f 712 724 726
f 717 727 715
f 715 727 725
f 714 728 716
f 714 726 728
f 719 729 717
f 717 729 727
f 716 730 718
f 716 728 730
f 720 731 719
f 719 731 729
f 718 732 720
f 718 730 732
f 720 732 731
f 723 733 721
f 721 734 722
f 721 733 734
f 725 735 723
f 723 735 733
f 735 736 737
f 733 737 738
f 735 737 733
f 739 740 736
f 739 736 735
f 722 741 724
f 722 734 741
f 734 738 742
f 733 738 734
f 743 744 740
f 743 740 739
f 727 739 725
f 725 739 735
f 741 742 745
f 734 742 741
f 746 747 744
f 746 744 743
f 724 748 726
f 724 741 748
f 748 745 749
f 741 745 748
f 729 743 727
f 727 743 739
f 750 751 747
f 750 747 746
f 752 749 753
f 748 749 752
f 726 752 728
f 726 748 752
f 754 753 755
f 752 753 754
f 756 755 751
f 754 755 756
f 756 751 750
f 731 746 729
f 729 746 743
f 728 754 730
f 728 752 754
f 732 750 731
f 731 750 746
f 730 756 732
f 730 754 756
f 732 756 750
