# 
# Wavefront OBJ file
# Created with Kaydara FBX
# 
mtllib c:\users\tjvan\onedrive\documenten\fontys\minor\nx\.mtlmodels\extensor_hallucis_longus.r.obj

g Extensor_hallucis_longus_r
v -0.106679 0.276942 -0.036654
v -0.107465 0.277066 -0.038568
v -0.107551 0.271000 -0.039176
v -0.106472 0.277261 -0.040422
v -0.106403 0.265117 -0.041792
v -0.107395 0.264885 -0.039637
v -0.106179 0.264783 -0.037357
v -0.106478 0.270806 -0.037027
v -0.106557 0.271216 -0.041217
v -0.107291 0.283120 -0.038069
v -0.106340 0.283232 -0.039690
v -0.107033 0.258842 -0.040109
v -0.105793 0.258754 -0.037664
v -0.107089 0.289202 -0.036150
v -0.107031 0.289204 -0.037738
v -0.106931 0.283090 -0.036294
v -0.107014 0.295204 -0.037716
v -0.107101 0.295231 -0.036408
v -0.106296 0.295306 -0.035309
v -0.106592 0.299564 -0.036844
v -0.106218 0.298590 -0.036005
v -0.105599 0.283143 -0.034973
v -0.106053 0.289265 -0.034863
v -0.106992 0.252775 -0.040429
v -0.106333 0.259044 -0.042511
v -0.106337 0.295305 -0.038806
v -0.106231 0.289266 -0.039032
v -0.106505 0.299651 -0.037583
v -0.105850 0.246820 -0.043165
v -0.106805 0.246662 -0.040598
v -0.105284 0.246637 -0.037830
v -0.106012 0.252908 -0.043003
v -0.105540 0.252703 -0.037790
v -0.106698 0.240580 -0.040809
v -0.105081 0.240564 -0.037987
v -0.106519 0.234434 -0.040969
v -0.105677 0.240704 -0.043585
v -0.104740 0.270832 -0.035354
v -0.105200 0.276996 -0.035195
v -0.105873 0.301244 -0.037380
v -0.105679 0.300860 -0.036778
v -0.104395 0.277309 -0.040679
v -0.104122 0.271272 -0.041198
v -0.105216 0.228402 -0.043904
v -0.106169 0.228254 -0.041023
v -0.104605 0.228312 -0.038224
v -0.105382 0.234556 -0.043774
v -0.104952 0.234441 -0.038078
v -0.106049 0.299707 -0.038321
v -0.105741 0.301012 -0.037926
v -0.104294 0.264837 -0.035464
v -0.103604 0.259066 -0.042066
v -0.103824 0.265188 -0.041707
v -0.104852 0.289364 -0.039701
v -0.104605 0.283356 -0.040285
v -0.105194 0.295308 -0.039387
v -0.105003 0.295393 -0.035440
v -0.105361 0.299504 -0.036252
v -0.105562 0.222134 -0.041138
v -0.104156 0.222218 -0.038316
v -0.103782 0.283264 -0.034561
v -0.104437 0.289370 -0.034891
v -0.105360 0.299823 -0.038689
v -0.103330 0.252953 -0.042248
v -0.105396 0.301581 -0.037423
v -0.102753 0.240842 -0.043014
v -0.103078 0.246897 -0.042516
v -0.103665 0.252756 -0.035435
v -0.103941 0.258825 -0.035538
v -0.105252 0.301462 -0.038001
v -0.105094 0.300977 -0.037142
v -0.104657 0.299652 -0.036746
v -0.103281 0.277140 -0.034459
v -0.104426 0.222255 -0.043802
v -0.105022 0.216013 -0.041198
v -0.103721 0.216132 -0.038312
v -0.103363 0.246692 -0.035308
v -0.104743 0.301083 -0.037710
v -0.102436 0.234730 -0.043203
v -0.103943 0.295443 -0.036208
v -0.104647 0.299947 -0.038677
v -0.101317 0.222566 -0.043512
v -0.102012 0.228650 -0.043346
v -0.102605 0.271044 -0.034379
v -0.103321 0.289466 -0.039399
v -0.104015 0.295383 -0.039224
v -0.102820 0.234485 -0.035535
v -0.103064 0.240611 -0.035439
v -0.103817 0.216171 -0.043947
v -0.104369 0.209899 -0.041184
v -0.102383 0.228406 -0.035782
v -0.104195 0.299762 -0.037468
v -0.103838 0.299029 -0.038371
v -0.101904 0.222350 -0.035950
v -0.102460 0.277348 -0.039814
v -0.102834 0.283447 -0.039651
v -0.103170 0.289457 -0.035844
v -0.102167 0.283402 -0.035398
v -0.103050 0.209975 -0.043848
v -0.103085 0.210046 -0.038348
v -0.103700 0.203855 -0.041086
v -0.102499 0.204038 -0.038346
v -0.102288 0.203920 -0.043565
v -0.101538 0.259032 -0.034077
v -0.101946 0.265050 -0.034233
v -0.103071 0.295467 -0.037223
v -0.102034 0.271313 -0.040041
v -0.103009 0.295449 -0.038451
v -0.102093 0.289550 -0.038486
v -0.101169 0.252991 -0.033873
v -0.102146 0.289538 -0.037096
v -0.100681 0.216460 -0.043768
v -0.101536 0.265234 -0.040356
v -0.101275 0.277363 -0.035096
v -0.100933 0.210217 -0.035950
v -0.101485 0.216302 -0.035921
v -0.103119 0.197838 -0.041056
v -0.102071 0.197919 -0.038398
v -0.100687 0.253051 -0.040793
v -0.101082 0.259141 -0.040652
v -0.100461 0.240713 -0.033520
v -0.100826 0.246878 -0.033448
v -0.100958 0.283527 -0.036816
v -0.102487 0.191695 -0.041212
v -0.101630 0.197991 -0.043360
v -0.100397 0.204172 -0.036079
v -0.100069 0.234597 -0.033649
v -0.100298 0.247002 -0.041068
v -0.099982 0.210361 -0.043942
v -0.101348 0.283527 -0.038546
v -0.099522 0.228507 -0.034166
v -0.099545 0.234887 -0.041634
v -0.099921 0.240960 -0.041429
v -0.099443 0.265349 -0.034809
v -0.100324 0.271373 -0.034966
v -0.101466 0.191815 -0.038674
v -0.101043 0.191873 -0.043474
v -0.101590 0.185586 -0.041128
v -0.100687 0.185791 -0.038676
v -0.100243 0.185718 -0.043262
v -0.100014 0.271444 -0.038616
v -0.100757 0.277446 -0.038581
v -0.098769 0.198297 -0.043701
v -0.099276 0.204327 -0.043806
v -0.099379 0.192013 -0.036735
v -0.099911 0.198062 -0.036378
v -0.099084 0.228852 -0.041762
v -0.098820 0.259272 -0.034646
v -0.098490 0.216503 -0.034613
v -0.098974 0.222532 -0.034600
v -0.100895 0.179576 -0.040974
v -0.099950 0.179755 -0.038525
v -0.099284 0.265373 -0.038833
v -0.097958 0.210400 -0.034617
v -0.098792 0.186028 -0.036769
v -0.097826 0.216708 -0.042156
v -0.098448 0.222795 -0.041974
v -0.099984 0.277544 -0.036697
v -0.098863 0.271602 -0.036646
v -0.097803 0.247085 -0.034304
v -0.098329 0.253206 -0.034531
v -0.098727 0.259272 -0.039090
v -0.098260 0.192191 -0.043861
v -0.099549 0.179670 -0.043139
v -0.100203 0.173579 -0.040769
v -0.097387 0.240951 -0.034381
v -0.097596 0.247145 -0.039440
v -0.098089 0.253198 -0.039248
v -0.096863 0.234865 -0.034513
v -0.097181 0.198186 -0.035421
v -0.097500 0.204260 -0.034889
v -0.097888 0.265507 -0.036726
v -0.096998 0.179904 -0.043655
v -0.097618 0.186044 -0.043775
v -0.099373 0.173795 -0.038303
v -0.099760 0.167513 -0.040462
v -0.098964 0.167754 -0.037950
v -0.098676 0.167456 -0.042748
v -0.099011 0.173558 -0.043014
v -0.097158 0.210681 -0.042372
v -0.097727 0.174060 -0.036261
v -0.098212 0.180010 -0.036580
v -0.096858 0.192187 -0.035712
v -0.097178 0.241093 -0.039737
v -0.099366 0.161354 -0.040079
v -0.098608 0.161827 -0.037434
v -0.096274 0.229053 -0.040056
v -0.096776 0.235040 -0.039880
v -0.095807 0.222806 -0.035326
v -0.096340 0.228791 -0.034916
v -0.098502 0.161063 -0.042703
v -0.098828 0.155281 -0.038910
v -0.098224 0.155913 -0.036373
v -0.097397 0.168120 -0.035799
v -0.096560 0.204628 -0.042441
v -0.096452 0.173707 -0.043614
v -0.095315 0.216708 -0.035535
v -0.097189 0.162321 -0.035169
v -0.098169 0.154729 -0.041388
v -0.098001 0.149225 -0.037228
v -0.096630 0.253353 -0.036790
v -0.097367 0.259368 -0.036846
v -0.095872 0.180243 -0.035588
v -0.096363 0.186221 -0.035774
v -0.095647 0.192446 -0.042752
v -0.096088 0.198525 -0.042580
v -0.095917 0.161121 -0.042947
v -0.096135 0.167503 -0.043336
v -0.095683 0.222993 -0.040288
v -0.096098 0.247211 -0.036798
v -0.097454 0.149952 -0.034907
v -0.096398 0.150661 -0.032771
v -0.096959 0.156526 -0.034145
v -0.095451 0.174297 -0.035258
v -0.097467 0.148630 -0.039500
v -0.095848 0.154889 -0.041392
v -0.096115 0.142815 -0.037360
v -0.096252 0.144111 -0.033237
v -0.096717 0.143353 -0.035324
v -0.094653 0.204449 -0.036039
v -0.094953 0.210612 -0.035729
v -0.094511 0.210838 -0.040621
v -0.095091 0.216899 -0.040430
v -0.095727 0.241105 -0.037003
v -0.095081 0.168449 -0.034675
v -0.094986 0.186300 -0.043034
v -0.094547 0.198368 -0.036543
v -0.095342 0.148929 -0.039475
v -0.095342 0.144872 -0.031298
v -0.094882 0.157001 -0.032723
v -0.094926 0.162726 -0.033816
v -0.093827 0.173907 -0.042940
v -0.094403 0.180137 -0.042988
v -0.094507 0.151241 -0.031337
v -0.094035 0.186383 -0.037048
v -0.094344 0.192361 -0.036881
v -0.094576 0.229096 -0.037405
v -0.095188 0.235125 -0.037130
v -0.094960 0.138441 -0.031331
v -0.095234 0.137715 -0.033261
v -0.093970 0.204756 -0.040785
v -0.093680 0.180360 -0.037019
v -0.093928 0.223075 -0.037748
v -0.093645 0.167639 -0.042366
v -0.094157 0.143087 -0.037714
v -0.094513 0.137188 -0.035080
v -0.092719 0.137288 -0.035897
v -0.093667 0.198641 -0.040987
v -0.093918 0.155381 -0.039848
v -0.093680 0.161407 -0.041473
v -0.093288 0.174354 -0.036697
v -0.092824 0.186479 -0.041561
v -0.093379 0.192570 -0.041202
v -0.094213 0.139204 -0.029489
v -0.093729 0.145521 -0.030007
v -0.092729 0.139853 -0.028367
v -0.093675 0.149530 -0.037982
v -0.093150 0.210820 -0.038030
v -0.093462 0.216888 -0.037875
v -0.093677 0.132202 -0.031086
v -0.092706 0.162639 -0.035089
v -0.092928 0.168450 -0.036114
v -0.092952 0.133565 -0.027698
v -0.093561 0.132872 -0.029362
v -0.092833 0.204667 -0.038229
v -0.092657 0.156858 -0.033746
v -0.092622 0.192492 -0.038890
v -0.092822 0.198549 -0.038636
v -0.092957 0.131791 -0.032568
v -0.091896 0.145480 -0.031014
v -0.092409 0.151187 -0.032376
v -0.092231 0.180343 -0.041599
v -0.092398 0.186488 -0.039126
v -0.091568 0.134152 -0.026711
v -0.092241 0.143681 -0.036903
v -0.092142 0.180406 -0.039150
v -0.091975 0.150129 -0.036481
v -0.091698 0.161715 -0.039687
v -0.092099 0.155852 -0.038132
v -0.091567 0.167886 -0.040753
v -0.091758 0.174122 -0.041374
v -0.091270 0.139754 -0.029512
v -0.092296 0.127255 -0.027404
v -0.091732 0.126211 -0.030277
v -0.092394 0.126634 -0.028889
v -0.091700 0.127873 -0.025988
v -0.091359 0.168242 -0.038266
v -0.091766 0.174295 -0.038885
v -0.091411 0.131821 -0.033332
v -0.091184 0.162232 -0.037164
v -0.090827 0.137942 -0.035203
v -0.089862 0.132323 -0.032831
v -0.091281 0.150774 -0.034390
v -0.091382 0.156427 -0.035809
v -0.090981 0.145035 -0.032972
v -0.091021 0.121639 -0.025204
v -0.091136 0.121051 -0.026565
v -0.091005 0.144393 -0.035115
v -0.090206 0.126262 -0.030934
v -0.090510 0.120669 -0.027826
v -0.089191 0.120858 -0.028116
v -0.090458 0.128382 -0.025241
v -0.090486 0.122262 -0.023990
v -0.089290 0.122782 -0.023395
v -0.090225 0.134089 -0.027746
v -0.089228 0.128395 -0.025936
v -0.090508 0.139295 -0.031349
v -0.089633 0.133605 -0.029446
v -0.089576 0.115600 -0.024094
v -0.089020 0.116760 -0.021839
v -0.089562 0.116148 -0.022882
v -0.090251 0.138701 -0.033286
v -0.088971 0.115261 -0.025192
v -0.089370 0.133030 -0.031179
v -0.087936 0.117243 -0.021400
v -0.088064 0.122843 -0.023945
v -0.088487 0.128006 -0.027370
v -0.088759 0.126795 -0.030354
v -0.088205 0.127466 -0.028953
v -0.088141 0.110740 -0.020363
v -0.087391 0.109883 -0.022548
v -0.088112 0.110181 -0.021521
v -0.087498 0.111364 -0.019466
v -0.086730 0.117378 -0.021802
v -0.087420 0.122502 -0.025165
v -0.087797 0.115428 -0.025511
v -0.088094 0.121380 -0.027496
v -0.086768 0.115943 -0.024978
v -0.086420 0.111873 -0.019061
v -0.087458 0.121964 -0.026447
v -0.086660 0.105502 -0.017631
v -0.086069 0.106193 -0.016705
v -0.086562 0.104912 -0.018744
v -0.086195 0.110035 -0.022940
v -0.086093 0.116537 -0.024051
v -0.086025 0.117087 -0.022860
v -0.085795 0.104605 -0.019707
v -0.084610 0.104706 -0.020160
v -0.085065 0.110556 -0.022547
v -0.084424 0.111188 -0.021627
v -0.085234 0.112016 -0.019458
v -0.084466 0.111756 -0.020445
v -0.085303 0.100379 -0.014645
v -0.085270 0.099685 -0.015777
v -0.084949 0.106717 -0.016351
v -0.083729 0.106837 -0.016771
v -0.084578 0.101119 -0.013804
v -0.083439 0.101670 -0.013468
v -0.084358 0.099354 -0.016736
v -0.083666 0.094770 -0.012415
v -0.083094 0.096216 -0.010645
v -0.083800 0.095457 -0.011396
v -0.082955 0.106520 -0.017750
v -0.083487 0.105219 -0.019828
v -0.082172 0.101854 -0.013778
v -0.083083 0.099470 -0.017152
v -0.081960 0.100030 -0.016792
v -0.081965 0.096765 -0.010360
v -0.082890 0.105908 -0.018891
v -0.082741 0.094448 -0.013273
v -0.082458 0.090753 -0.007764
v -0.081710 0.091602 -0.007034
v -0.081231 0.089587 -0.009665
v -0.082219 0.089963 -0.008816
v -0.082004 0.020685 0.117410
v -0.082031 0.021529 0.115858
v -0.083104 0.020685 0.114142
v -0.080578 0.023321 0.110681
v -0.081924 0.020212 0.115329
v -0.080622 0.022181 0.110329
v -0.081460 0.022564 0.110208
v -0.081552 0.094493 -0.013719
v -0.081340 0.100789 -0.015876
v -0.081329 0.101507 -0.014740
v -0.080763 0.086343 -0.003896
v -0.080563 0.085478 -0.004854
v -0.080733 0.096935 -0.010656
v -0.079865 0.096593 -0.011509
v -0.080491 0.021554 0.116319
v -0.079495 0.023504 0.110990
v -0.080572 0.020034 0.115874
v -0.080612 0.020307 0.118323
v -0.080548 0.092151 -0.006831
v -0.079280 0.092277 -0.007183
v -0.080415 0.095023 -0.013467
v -0.079778 0.095841 -0.012604
v -0.079621 0.022034 0.110521
v -0.080147 0.087212 -0.003240
v -0.079044 0.087820 -0.003037
v -0.079986 0.089617 -0.010133
v -0.078893 0.023414 0.104619
v -0.078727 0.024320 0.104912
v -0.079170 0.023964 0.104706
v -0.079676 0.084944 -0.005731
v -0.078426 0.085010 -0.006134
v -0.078867 0.081428 -0.000471
v -0.078653 0.083325 0.001065
v -0.079160 0.082355 0.000417
v -0.078362 0.091930 -0.007977
v -0.079354 0.019905 0.115954
v -0.079088 0.019835 0.118275
v -0.077782 0.087976 -0.003351
v -0.078368 0.023527 0.111251
v -0.079064 0.021312 0.116481
v -0.078952 0.090257 -0.009768
v -0.077501 0.083881 0.001134
v -0.078353 0.091124 -0.008958
v -0.078009 0.080814 -0.001292
v -0.078677 0.021981 0.110730
v -0.078158 0.023021 0.104712
v -0.077338 0.022897 0.104888
v -0.077992 0.024441 0.105134
v -0.078040 0.019374 0.117349
v -0.077680 0.021988 0.110949
v -0.078055 0.019960 0.115721
v -0.077543 0.025651 0.099043
v -0.077451 0.078800 0.005021
v -0.077011 0.079737 0.005571
v -0.077277 0.023117 0.111396
v -0.077757 0.021034 0.116318
v -0.077538 0.085777 -0.005692
v -0.076559 0.024658 0.098969
v -0.077176 0.025075 0.098945
v -0.076340 0.077259 0.003571
v -0.077194 0.077868 0.004272
v -0.077266 0.026167 0.099290
v -0.076530 0.022945 0.105096
v -0.076777 0.080819 -0.001723
v -0.075836 0.081637 -0.001357
v -0.077218 0.024362 0.105321
v -0.076916 0.086683 -0.004998
v -0.076831 0.087580 -0.004098
v -0.075844 0.024472 0.099094
v -0.076959 0.020977 0.114990
v -0.076872 0.022298 0.111235
v -0.076528 0.026150 0.099477
v -0.075819 0.025941 0.099593
v -0.076296 0.084002 0.000822
v -0.075399 0.083570 0.000142
v -0.075942 0.028313 0.093785
v -0.075886 0.027251 0.093333
v -0.076329 0.027845 0.093485
v -0.075955 0.080343 0.005694
v -0.074710 0.080514 0.005426
v -0.076078 0.075577 0.009934
v -0.076540 0.024054 0.105424
v -0.075762 0.074646 0.009256
v -0.075113 0.026759 0.093306
v -0.075648 0.076509 0.010427
v -0.074580 0.077002 0.010479
v -0.075357 0.082607 -0.000694
v -0.076187 0.023478 0.105351
v -0.075168 0.077219 0.003184
v -0.074914 0.025001 0.099514
v -0.075133 0.024493 0.099288
v -0.075239 0.025546 0.099614
v -0.075127 0.028312 0.093998
v -0.074892 0.074020 0.008637
v -0.073716 0.073957 0.008311
v -0.075539 0.030717 0.088238
v -0.074753 0.030132 0.088104
v -0.073831 0.080004 0.004763
v -0.074587 0.071640 0.014392
v -0.074652 0.073430 0.015521
v -0.075034 0.072541 0.015040
v -0.073361 0.077095 0.010227
v -0.075070 0.031052 0.088496
v -0.073973 0.031059 0.088701
v -0.073368 0.026471 0.093653
v -0.074260 0.026474 0.093406
v -0.073845 0.079005 0.004056
v -0.074302 0.078009 0.003483
v -0.073587 0.027712 0.094136
v -0.074307 0.028094 0.094116
v -0.075708 0.033117 0.082522
v -0.074569 0.033801 0.083039
v -0.074197 0.032552 0.082602
v -0.073518 0.035640 0.077298
v -0.073265 0.034332 0.076953
v -0.074028 0.035054 0.077013
v -0.073496 0.073791 0.015522
v -0.073101 0.027091 0.093992
v -0.073813 0.029734 0.088118
v -0.072800 0.029534 0.088217
v -0.073831 0.070263 0.020618
v -0.074234 0.069405 0.020130
v -0.073695 0.071116 0.013883
v -0.072936 0.032309 0.082723
v -0.072419 0.076683 0.009726
v -0.072663 0.070590 0.020659
v -0.073782 0.068508 0.019497
v -0.072873 0.067903 0.018983
v -0.072291 0.073832 0.015311
v -0.073162 0.033685 0.083223
v -0.072926 0.030877 0.088826
v -0.072831 0.074695 0.008562
v -0.071723 0.029477 0.088424
v -0.073880 0.066056 0.025136
v -0.073265 0.066959 0.025674
v -0.072206 0.033888 0.076993
v -0.073111 0.036841 0.071406
v -0.072517 0.036097 0.071151
v -0.071890 0.033544 0.083370
v -0.073270 0.065241 0.024543
v -0.073397 0.062646 0.030091
v -0.072390 0.075714 0.009105
v -0.071707 0.032128 0.082846
v -0.072617 0.071056 0.013642
v -0.071637 0.071591 0.013785
v -0.071161 0.029932 0.088792
v -0.071914 0.030548 0.088898
v -0.072318 0.035633 0.077487
v -0.072603 0.037405 0.071691
v -0.071595 0.037561 0.071817
v -0.072900 0.061905 0.029559
v -0.072778 0.063341 0.030542
v -0.072792 0.058460 0.034580
v -0.073232 0.059152 0.035059
v -0.072580 0.059773 0.035471
v -0.071620 0.035584 0.071019
v -0.072267 0.064765 0.024136
v -0.071695 0.063614 0.030676
v -0.072069 0.067294 0.025785
v -0.073032 0.055707 0.040117
v -0.072418 0.056252 0.040473
v -0.072770 0.039319 0.065969
v -0.072202 0.038658 0.065635
v -0.072586 0.055119 0.039717
v -0.072715 0.052343 0.045261
v -0.071076 0.033650 0.077054
v -0.071945 0.061440 0.029199
v -0.071670 0.067774 0.018733
v -0.071095 0.064661 0.023960
v -0.070346 0.032007 0.083002
v -0.071725 0.054889 0.039551
v -0.071831 0.058122 0.034334
v -0.072229 0.039932 0.066310
v -0.072456 0.042336 0.060689
v -0.071553 0.059947 0.035573
v -0.072299 0.051851 0.044928
v -0.072184 0.052832 0.045569
v -0.071975 0.048615 0.050154
v -0.072387 0.049034 0.050437
v -0.071943 0.049441 0.050694
v -0.071457 0.070537 0.020454
v -0.070845 0.067251 0.025641
v -0.072338 0.045671 0.055564
v -0.071920 0.045201 0.055245
v -0.071906 0.046127 0.055863
v -0.071999 0.042835 0.061008
v -0.071990 0.041824 0.060375
v -0.071377 0.052991 0.045657
v -0.071494 0.056418 0.040571
v -0.071122 0.072525 0.014271
v -0.071276 0.073478 0.014895
v -0.071196 0.035424 0.077557
v -0.071544 0.051640 0.044771
v -0.070370 0.070210 0.020091
v -0.071258 0.040023 0.066383
v -0.071232 0.041528 0.060197
v -0.071327 0.038283 0.065456
v -0.071198 0.049581 0.050765
v -0.070572 0.063580 0.030601
v -0.071210 0.044951 0.055073
v -0.071140 0.042957 0.061086
v -0.071303 0.048381 0.049985
v -0.070837 0.061410 0.029130
v -0.070549 0.033313 0.083497
v -0.071115 0.046238 0.055928
v -0.070164 0.034961 0.077498
v -0.070805 0.058162 0.034345
v -0.070733 0.051641 0.044754
v -0.070806 0.054909 0.039554
v -0.070583 0.068292 0.018907
v -0.070054 0.069280 0.019458
v -0.070360 0.038159 0.065417
v -0.070585 0.035375 0.071023
v -0.070336 0.039785 0.066277
v -0.070621 0.037232 0.071764
v -0.070582 0.056355 0.040519
v -0.070531 0.059895 0.035515
v -0.070569 0.052905 0.045582
v -0.069735 0.066882 0.025300
v -0.070383 0.041443 0.060149
v -0.070554 0.048333 0.049935
v -0.070438 0.044893 0.055028
v -0.070348 0.046126 0.055847
v -0.070445 0.049492 0.050688
v -0.069423 0.032704 0.083434
v -0.070326 0.042810 0.060999
v -0.069852 0.061837 0.029378
v -0.070006 0.065074 0.024135
v -0.069470 0.035392 0.071121
v -0.069882 0.033662 0.077129
v -0.069861 0.058466 0.034531
v -0.069934 0.055138 0.039697
v -0.069775 0.048467 0.050005
v -0.069928 0.051842 0.044865
v -0.069768 0.036736 0.071639
v -0.069362 0.038298 0.065526
v -0.069684 0.056099 0.040335
v -0.069740 0.049287 0.050539
v -0.069833 0.052662 0.045406
v -0.069519 0.059699 0.035361
v -0.069477 0.063371 0.030413
v -0.069659 0.045053 0.055123
v -0.069614 0.045903 0.055690
v -0.069518 0.041608 0.060257
v -0.069442 0.034215 0.077304
v -0.069509 0.042530 0.060829
v -0.069461 0.039430 0.066121
v -0.068949 0.036115 0.071455
v -0.069392 0.065977 0.024677
v -0.069238 0.055548 0.039962
v -0.069403 0.052246 0.045124
v -0.069151 0.059035 0.034902
v -0.069167 0.062567 0.029848
v -0.069249 0.048909 0.050283
v -0.069149 0.045485 0.055401
v -0.069037 0.042077 0.060548
v -0.068813 0.038885 0.065859
usemtl Extensor_hallucis_longus_rMaterial0
f 1 2 3
f 3 2 4
f 3 5 6
f 3 6 7
f 1 3 8
f 3 4 9
f 3 9 5
f 3 7 8
f 1 10 2
f 11 2 10
f 11 4 2
f 5 12 6
f 13 6 12
f 13 7 6
f 14 15 10
f 14 10 16
f 11 10 15
f 1 16 10
f 17 14 18
f 14 19 18
f 17 18 20
f 21 20 18
f 21 18 19
f 17 15 14
f 14 16 22
f 14 23 19
f 14 22 23
f 24 12 25
f 24 13 12
f 5 25 12
f 26 15 17
f 11 15 27
f 26 27 15
f 17 20 28
f 26 17 28
f 29 30 24
f 24 30 31
f 24 25 32
f 29 24 32
f 24 33 13
f 24 31 33
f 22 16 1
f 29 34 30
f 35 30 34
f 35 31 30
f 36 34 37
f 36 35 34
f 29 37 34
f 1 8 38
f 22 1 39
f 1 38 39
f 20 40 28
f 21 41 20
f 20 41 40
f 42 9 4
f 5 9 43
f 42 43 9
f 44 45 36
f 36 45 46
f 36 37 47
f 44 36 47
f 36 48 35
f 36 46 48
f 26 28 49
f 50 49 28
f 50 28 40
f 51 8 7
f 51 38 8
f 42 4 11
f 5 52 25
f 5 43 53
f 5 53 52
f 52 32 25
f 11 27 54
f 11 54 55
f 42 11 55
f 56 27 26
f 56 26 49
f 21 19 57
f 23 57 19
f 56 54 27
f 21 58 41
f 21 57 58
f 44 59 45
f 45 59 60
f 45 60 46
f 13 51 7
f 23 22 61
f 23 62 57
f 23 61 62
f 50 63 49
f 56 49 63
f 29 32 64
f 52 64 32
f 50 40 65
f 65 40 41
f 66 37 29
f 29 64 67
f 66 29 67
f 13 33 68
f 13 69 51
f 13 68 69
f 50 65 70
f 50 70 63
f 66 47 37
f 65 41 71
f 72 41 58
f 72 71 41
f 22 39 73
f 22 73 61
f 44 74 59
f 74 75 59
f 76 59 75
f 76 60 59
f 77 33 31
f 77 68 33
f 65 78 70
f 65 71 78
f 44 47 79
f 66 79 47
f 80 58 57
f 80 72 58
f 81 63 70
f 56 63 81
f 35 77 31
f 81 70 78
f 82 74 44
f 44 79 83
f 82 44 83
f 84 39 38
f 84 73 39
f 85 54 56
f 56 81 86
f 85 56 86
f 72 78 71
f 35 48 87
f 35 88 77
f 35 87 88
f 74 89 75
f 90 75 89
f 76 75 90
f 62 80 57
f 48 46 91
f 48 91 87
f 85 55 54
f 51 84 38
f 72 92 78
f 93 81 78
f 93 78 92
f 80 92 72
f 93 86 81
f 94 46 60
f 94 91 46
f 95 42 55
f 85 96 55
f 95 55 96
f 62 97 80
f 62 61 98
f 62 98 97
f 82 89 74
f 95 43 42
f 90 89 99
f 76 90 100
f 90 101 102
f 90 103 101
f 90 102 100
f 90 99 103
f 51 69 104
f 51 105 84
f 51 104 105
f 80 106 92
f 106 93 92
f 94 60 76
f 107 53 43
f 95 107 43
f 93 108 86
f 109 85 86
f 109 86 108
f 110 69 68
f 110 104 69
f 80 97 111
f 80 111 106
f 106 108 93
f 112 99 89
f 82 112 89
f 52 53 113
f 107 113 53
f 114 61 73
f 114 98 61
f 76 100 115
f 94 76 116
f 76 115 116
f 103 117 101
f 118 101 117
f 118 102 101
f 77 110 68
f 52 119 64
f 52 113 120
f 52 120 119
f 77 88 121
f 77 122 110
f 77 121 122
f 119 67 64
f 109 96 85
f 84 114 73
f 123 97 98
f 123 111 97
f 124 118 117
f 124 117 125
f 103 125 117
f 126 100 102
f 126 115 100
f 88 87 127
f 88 127 121
f 66 67 128
f 119 128 67
f 109 108 106
f 109 106 111
f 103 99 129
f 112 129 99
f 95 96 130
f 109 130 96
f 131 87 91
f 131 127 87
f 132 79 66
f 66 128 133
f 132 66 133
f 84 105 134
f 84 135 114
f 84 134 135
f 118 126 102
f 124 136 118
f 124 125 137
f 124 138 139
f 140 138 124
f 124 139 136
f 140 124 137
f 141 107 95
f 95 130 142
f 141 95 142
f 132 83 79
f 131 91 94
f 103 143 125
f 103 129 144
f 103 144 143
f 114 123 98
f 123 109 111
f 123 130 109
f 118 136 145
f 118 146 126
f 118 145 146
f 141 113 107
f 82 83 147
f 132 147 83
f 148 105 104
f 148 134 105
f 94 116 149
f 131 94 150
f 94 149 150
f 143 137 125
f 140 151 138
f 152 138 151
f 152 139 138
f 110 148 104
f 153 120 113
f 141 153 113
f 154 116 115
f 154 149 116
f 155 136 139
f 155 145 136
f 123 142 130
f 156 112 82
f 82 147 157
f 156 82 157
f 114 158 123
f 114 135 159
f 114 159 158
f 110 122 160
f 110 161 148
f 110 160 161
f 119 120 162
f 153 162 120
f 140 137 163
f 143 163 137
f 123 158 142
f 126 154 115
f 140 164 151
f 165 152 151
f 165 151 164
f 122 121 166
f 122 166 160
f 141 142 158
f 152 155 139
f 156 129 112
f 119 167 128
f 119 162 168
f 119 168 167
f 169 121 127
f 169 166 121
f 126 146 170
f 126 171 154
f 126 170 171
f 172 135 134
f 172 159 135
f 167 133 128
f 173 164 140
f 140 163 174
f 173 140 174
f 165 175 152
f 165 176 177
f 178 176 165
f 165 164 179
f 165 177 175
f 178 165 179
f 169 127 131
f 141 158 159
f 172 153 141
f 172 141 159
f 180 144 129
f 156 180 129
f 152 175 181
f 152 182 155
f 152 181 182
f 183 146 145
f 183 170 146
f 132 133 184
f 167 184 133
f 178 185 176
f 176 185 186
f 176 186 177
f 173 179 164
f 187 147 132
f 132 184 188
f 187 132 188
f 131 150 189
f 169 131 190
f 131 189 190
f 148 172 134
f 191 192 185
f 193 185 192
f 178 191 185
f 193 186 185
f 175 177 194
f 175 194 181
f 155 183 145
f 143 144 195
f 180 195 144
f 172 162 153
f 187 157 147
f 178 179 196
f 173 196 179
f 197 150 149
f 197 189 150
f 198 177 186
f 198 194 177
f 191 199 192
f 193 192 200
f 200 192 199
f 148 161 201
f 148 202 172
f 148 201 202
f 155 182 203
f 155 204 183
f 155 203 204
f 143 205 163
f 143 195 206
f 143 206 205
f 202 168 162
f 172 202 162
f 207 191 178
f 178 196 208
f 207 178 208
f 198 186 193
f 207 199 191
f 154 197 149
f 156 157 209
f 187 209 157
f 161 160 210
f 161 210 201
f 205 174 163
f 193 200 211
f 193 211 212
f 198 193 213
f 193 212 213
f 182 181 214
f 182 214 203
f 200 199 215
f 216 215 199
f 207 216 199
f 167 168 201
f 202 201 168
f 200 215 217
f 200 218 211
f 200 219 218
f 200 217 219
f 154 171 220
f 154 221 197
f 154 220 221
f 222 180 156
f 156 209 223
f 222 156 223
f 224 160 166
f 224 210 160
f 225 181 194
f 225 214 181
f 173 174 226
f 205 226 174
f 167 224 184
f 167 201 210
f 167 210 224
f 227 171 170
f 227 220 171
f 217 215 228
f 216 228 215
f 229 212 211
f 229 211 218
f 225 194 198
f 224 166 169
f 198 213 230
f 225 198 231
f 198 230 231
f 183 227 170
f 224 188 184
f 222 195 180
f 232 196 173
f 173 226 233
f 232 173 233
f 234 213 212
f 234 230 213
f 183 204 235
f 183 236 227
f 183 235 236
f 169 190 237
f 224 169 238
f 169 237 238
f 187 188 238
f 224 238 188
f 239 218 219
f 217 240 219
f 239 219 240
f 241 206 195
f 222 241 195
f 232 208 196
f 229 234 212
f 204 203 242
f 204 242 235
f 243 190 189
f 243 237 190
f 243 209 187
f 187 238 237
f 243 187 237
f 239 229 218
f 207 208 244
f 232 244 208
f 217 228 245
f 217 246 240
f 217 247 246
f 217 245 247
f 205 206 248
f 241 248 206
f 249 216 207
f 249 207 250
f 207 244 250
f 251 203 214
f 251 242 203
f 249 228 216
f 197 243 189
f 243 223 209
f 205 252 226
f 205 248 253
f 205 253 252
f 251 214 225
f 239 254 229
f 229 255 234
f 229 254 256
f 229 256 255
f 257 245 228
f 249 257 228
f 197 221 258
f 197 259 243
f 197 258 259
f 260 239 240
f 260 240 246
f 225 231 261
f 251 225 262
f 225 261 262
f 222 223 259
f 243 259 223
f 252 233 226
f 239 263 254
f 260 264 239
f 239 264 263
f 265 221 220
f 265 258 221
f 266 231 230
f 266 261 231
f 234 266 230
f 227 265 220
f 227 236 267
f 227 268 265
f 227 267 268
f 260 246 269
f 247 269 246
f 234 255 270
f 234 271 266
f 234 270 271
f 265 241 222
f 222 259 258
f 265 222 258
f 232 233 272
f 252 272 233
f 236 235 273
f 236 273 267
f 274 254 263
f 274 256 254
f 257 275 245
f 247 245 275
f 276 235 242
f 276 273 235
f 265 248 241
f 277 257 249
f 249 250 278
f 277 249 279
f 249 278 279
f 280 244 232
f 232 272 281
f 280 232 281
f 282 255 256
f 282 270 255
f 260 283 264
f 284 260 269
f 260 285 283
f 284 285 260
f 277 275 257
f 280 250 244
f 280 278 250
f 276 242 251
f 268 253 248
f 265 268 248
f 286 263 264
f 286 264 283
f 252 253 267
f 268 267 253
f 251 262 287
f 276 251 288
f 251 287 288
f 247 289 269
f 284 269 289
f 286 274 263
f 290 262 261
f 290 287 262
f 252 267 273
f 252 273 276
f 252 276 272
f 274 282 256
f 247 275 291
f 247 292 289
f 247 291 292
f 266 290 261
f 266 271 293
f 266 293 294
f 266 294 290
f 295 271 270
f 295 293 271
f 296 283 285
f 284 297 285
f 296 285 297
f 296 286 283
f 277 298 275
f 298 291 275
f 276 281 272
f 276 288 281
f 277 279 294
f 290 279 278
f 290 294 279
f 277 294 293
f 295 277 293
f 295 298 277
f 282 295 270
f 280 281 288
f 280 288 287
f 284 289 299
f 284 300 297
f 301 300 284
f 301 284 299
f 286 302 274
f 296 303 286
f 286 303 304
f 286 304 302
f 290 278 280
f 274 305 282
f 274 302 306
f 274 306 305
f 290 280 287
f 292 299 289
f 282 307 295
f 282 308 307
f 282 305 308
f 309 296 297
f 309 297 300
f 296 310 303
f 309 311 296
f 296 311 310
f 295 312 298
f 298 312 291
f 295 307 312
f 292 291 312
f 309 300 313
f 301 313 300
f 307 314 312
f 307 308 314
f 303 315 304
f 303 310 315
f 302 304 316
f 302 316 306
f 292 312 314
f 305 317 308
f 305 306 317
f 292 318 299
f 301 299 318
f 292 314 319
f 292 319 318
f 319 314 308
f 319 308 317
f 309 320 311
f 321 309 313
f 309 322 320
f 321 322 309
f 311 323 310
f 311 320 323
f 324 316 304
f 324 304 315
f 325 317 306
f 325 306 316
f 301 326 313
f 301 318 327
f 328 301 327
f 328 326 301
f 329 315 310
f 329 310 323
f 321 313 326
f 319 327 318
f 319 317 325
f 319 330 327
f 319 325 330
f 322 331 320
f 332 323 320
f 332 320 331
f 321 333 322
f 322 333 331
f 328 327 330
f 325 316 324
f 324 315 329
f 321 326 334
f 328 334 326
f 329 323 332
f 325 335 330
f 328 330 335
f 325 324 336
f 325 336 335
f 321 337 333
f 338 321 334
f 338 337 321
f 328 339 334
f 340 328 335
f 340 339 328
f 324 329 341
f 324 342 336
f 324 341 342
f 343 331 333
f 332 331 343
f 337 344 333
f 343 333 344
f 329 332 345
f 329 346 341
f 329 345 346
f 338 334 339
f 340 335 336
f 332 343 347
f 332 348 345
f 332 347 348
f 340 336 342
f 337 349 344
f 338 349 337
f 343 344 350
f 343 351 347
f 343 350 352
f 343 352 351
f 350 344 349
f 353 342 341
f 353 341 346
f 338 339 354
f 340 354 339
f 355 346 345
f 355 345 348
f 338 356 349
f 357 338 354
f 357 356 338
f 358 348 347
f 358 347 351
f 353 340 342
f 340 359 354
f 353 359 340
f 350 349 360
f 356 360 349
f 350 361 352
f 362 351 352
f 362 352 361
f 355 353 346
f 350 360 363
f 350 364 361
f 350 363 364
f 357 354 359
f 358 355 348
f 365 366 367
f 367 366 368
f 365 367 369
f 367 370 369
f 367 371 370
f 367 368 371
f 362 358 351
f 356 372 360
f 357 372 356
f 353 373 359
f 355 374 353
f 353 374 373
f 357 359 373
f 363 360 372
f 375 361 364
f 375 362 361
f 363 376 364
f 375 364 376
f 358 377 355
f 355 378 374
f 355 377 378
f 365 379 366
f 380 368 366
f 380 366 379
f 365 369 381
f 365 381 382
f 365 382 379
f 362 383 358
f 358 384 377
f 358 383 384
f 357 385 372
f 386 357 373
f 386 385 357
f 387 369 370
f 387 381 369
f 375 388 362
f 362 389 383
f 362 388 389
f 363 372 390
f 385 390 372
f 391 370 371
f 392 371 368
f 391 371 393
f 392 393 371
f 386 373 374
f 386 374 378
f 363 394 376
f 363 390 395
f 363 395 394
f 396 375 376
f 375 397 388
f 396 398 375
f 375 398 397
f 399 378 377
f 399 377 384
f 400 382 381
f 401 379 382
f 400 401 382
f 387 370 391
f 400 381 387
f 380 392 368
f 396 376 394
f 402 384 383
f 402 383 389
f 403 380 379
f 401 404 379
f 403 379 404
f 385 405 390
f 386 405 385
f 406 389 388
f 406 388 397
f 395 390 405
f 399 386 378
f 386 407 405
f 399 407 386
f 396 394 408
f 395 408 394
f 400 387 409
f 387 391 410
f 387 411 409
f 387 410 411
f 380 412 392
f 403 412 380
f 413 401 400
f 400 409 414
f 413 400 415
f 400 414 415
f 402 399 384
f 391 393 416
f 416 393 392
f 396 417 398
f 418 397 398
f 418 398 417
f 413 404 401
f 419 403 404
f 413 420 404
f 419 404 420
f 406 402 389
f 395 405 421
f 407 421 405
f 391 422 410
f 391 416 423
f 391 423 422
f 424 396 408
f 396 425 417
f 424 425 396
f 412 426 392
f 416 392 426
f 427 414 409
f 427 409 411
f 418 406 397
f 395 428 408
f 395 421 429
f 395 429 428
f 403 430 412
f 419 430 403
f 399 431 407
f 407 431 421
f 402 432 399
f 399 432 431
f 433 411 410
f 433 410 422
f 434 413 415
f 435 415 414
f 435 434 415
f 434 420 413
f 424 408 428
f 412 436 426
f 412 430 437
f 412 437 436
f 406 438 402
f 402 439 432
f 402 438 439
f 435 419 420
f 435 420 434
f 427 435 414
f 416 426 440
f 416 441 423
f 416 440 442
f 416 442 441
f 429 421 431
f 418 443 406
f 406 444 438
f 406 443 444
f 445 417 425
f 445 418 417
f 433 427 411
f 419 446 430
f 435 446 419
f 440 426 436
f 437 430 446
f 424 447 425
f 445 425 447
f 448 422 423
f 448 423 441
f 445 449 418
f 418 450 443
f 418 449 450
f 432 451 431
f 429 431 451
f 427 452 435
f 435 452 446
f 432 439 451
f 424 428 453
f 429 453 428
f 448 433 422
f 427 454 452
f 433 455 427
f 427 455 454
f 456 446 452
f 437 446 456
f 440 436 457
f 437 457 436
f 424 458 447
f 459 424 453
f 459 458 424
f 440 460 442
f 461 441 442
f 461 442 460
f 438 462 439
f 438 444 462
f 456 452 454
f 463 445 447
f 445 464 449
f 445 465 464
f 463 465 445
f 443 466 444
f 443 450 466
f 440 467 460
f 440 457 468
f 440 468 467
f 461 448 441
f 433 469 455
f 448 470 433
f 433 470 469
f 429 451 471
f 429 472 453
f 429 471 472
f 437 456 473
f 437 474 457
f 437 473 474
f 463 447 458
f 475 460 467
f 475 461 460
f 475 467 476
f 475 477 461
f 478 475 476
f 475 479 477
f 478 480 475
f 475 480 479
f 449 464 481
f 449 481 450
f 471 451 439
f 471 439 462
f 473 456 454
f 459 453 472
f 482 454 455
f 482 455 469
f 468 457 474
f 461 483 448
f 448 484 470
f 448 483 484
f 468 476 467
f 465 485 464
f 463 486 465
f 465 486 485
f 473 454 482
f 463 458 487
f 459 487 458
f 461 477 488
f 461 488 483
f 489 462 444
f 489 444 466
f 490 464 485
f 490 481 464
f 463 491 486
f 492 491 463
f 492 463 487
f 493 450 481
f 493 466 450
f 468 494 476
f 478 476 494
f 468 474 495
f 473 495 474
f 471 496 472
f 459 472 496
f 497 469 470
f 497 470 484
f 491 498 486
f 499 486 498
f 499 485 486
f 500 477 479
f 500 488 477
f 478 501 480
f 502 479 480
f 502 480 501
f 468 503 494
f 468 495 503
f 491 504 498
f 505 498 504
f 499 498 505
f 471 462 489
f 471 506 496
f 471 489 506
f 490 485 499
f 507 483 488
f 507 484 483
f 492 504 491
f 459 508 487
f 509 459 496
f 509 508 459
f 492 487 508
f 473 482 510
f 473 511 495
f 473 510 511
f 478 494 512
f 478 513 501
f 514 513 478
f 514 478 512
f 493 481 490
f 505 504 515
f 499 505 516
f 505 517 518
f 505 518 519
f 505 515 517
f 505 519 516
f 510 482 469
f 510 469 497
f 489 466 493
f 520 479 502
f 520 500 479
f 521 515 504
f 492 521 504
f 499 516 522
f 490 499 523
f 499 522 523
f 517 524 518
f 525 518 524
f 525 519 518
f 503 512 494
f 526 501 513
f 527 501 526
f 527 502 501
f 517 528 524
f 529 524 528
f 529 525 524
f 503 495 511
f 530 488 500
f 530 507 488
f 517 515 531
f 521 531 515
f 492 508 532
f 533 521 492
f 533 492 532
f 509 496 506
f 534 497 484
f 534 484 507
f 517 535 528
f 517 531 536
f 517 536 535
f 526 513 537
f 538 526 537
f 527 526 538
f 539 516 519
f 539 522 516
f 529 528 540
f 529 541 525
f 542 543 529
f 529 543 544
f 542 529 540
f 529 544 541
f 493 490 545
f 490 523 546
f 490 546 545
f 509 532 508
f 514 537 513
f 535 540 528
f 525 539 519
f 520 502 527
f 538 547 548
f 538 549 547
f 538 537 550
f 527 538 551
f 538 548 551
f 538 550 549
f 525 541 552
f 525 553 539
f 525 552 553
f 489 554 506
f 489 493 555
f 489 555 554
f 542 547 543
f 549 543 547
f 549 544 543
f 509 506 554
f 542 548 547
f 503 556 512
f 514 512 556
f 542 540 557
f 535 557 540
f 493 545 558
f 493 558 555
f 533 531 521
f 550 537 559
f 514 559 537
f 530 500 520
f 527 551 560
f 520 527 561
f 527 560 561
f 562 541 544
f 562 552 541
f 563 523 522
f 563 546 523
f 564 551 548
f 564 560 551
f 549 550 565
f 550 559 565
f 564 548 542
f 542 557 566
f 564 542 566
f 549 562 544
f 567 536 531
f 533 567 531
f 503 511 568
f 510 568 511
f 549 569 562
f 549 565 569
f 503 570 556
f 503 568 570
f 535 536 571
f 567 571 536
f 510 497 534
f 535 572 557
f 535 571 573
f 535 573 572
f 534 507 530
f 539 563 522
f 509 574 532
f 533 532 574
f 575 509 554
f 575 574 509
f 520 561 576
f 530 520 577
f 520 576 577
f 578 559 514
f 514 556 579
f 578 514 579
f 572 566 557
f 539 553 580
f 539 580 581
f 539 581 563
f 582 553 552
f 582 580 553
f 583 545 546
f 583 558 545
f 562 582 552
f 584 561 560
f 584 576 561
f 564 566 585
f 572 585 566
f 575 554 555
f 575 555 558
f 578 565 559
f 584 560 564
f 564 585 586
f 584 564 586
f 570 579 556
f 562 569 587
f 562 588 582
f 562 587 588
f 510 589 568
f 510 534 589
f 569 565 590
f 578 590 565
f 569 590 587
f 591 567 533
f 533 574 592
f 591 533 592
f 530 577 593
f 534 530 594
f 530 593 594
f 591 571 567
f 563 583 546
f 595 573 571
f 572 573 596
f 595 596 573
f 591 595 571
f 572 597 585
f 572 596 598
f 572 598 597
f 578 579 599
f 570 599 579
f 600 577 576
f 600 593 577
f 582 601 580
f 601 581 580
f 575 592 574
f 582 588 602
f 582 602 603
f 582 603 601
f 563 581 604
f 563 605 583
f 563 604 605
f 570 568 589
f 597 586 585
f 601 604 581
f 584 586 606
f 597 606 586
f 588 587 607
f 588 607 602
f 600 576 584
f 584 606 608
f 600 584 608
f 583 575 558
f 534 594 609
f 534 609 589
f 610 587 590
f 610 607 587
f 610 590 578
f 578 599 611
f 610 578 611
f 570 612 599
f 570 589 609
f 570 609 612
f 575 613 592
f 583 613 575
f 591 592 613
f 614 598 596
f 597 598 615
f 614 615 598
f 616 596 595
f 616 614 596
f 612 594 593
f 612 609 594
f 616 595 591
f 591 613 617
f 616 591 617
f 603 602 618
f 601 603 615
f 603 618 615
f 612 611 599
f 597 619 606
f 597 615 618
f 597 618 619
f 619 602 607
f 619 618 602
f 583 605 617
f 583 617 613
f 601 616 604
f 601 615 614
f 601 614 616
f 619 608 606
f 619 607 610
f 600 608 620
f 619 620 608
f 610 611 621
f 619 610 620
f 610 621 620
f 616 605 604
f 612 593 600
f 612 621 611
f 616 617 605
f 600 620 621
f 612 600 621
