# 
# Wavefront OBJ file
# Created with Kaydara FBX
# 
mtllib c:\users\tjvan\onedrive\documenten\fontys\minor\nx\.mtlmodels\extensor_digitorum_longus.r.obj

g Extensor_digitorum_longus_r
v -0.116430 0.355087 -0.027936
v -0.114764 0.342298 -0.034220
v -0.116330 0.342023 -0.028344
v -0.113707 0.341849 -0.022898
v -0.114958 0.368662 -0.032298
v -0.116065 0.368129 -0.027015
v -0.114293 0.367615 -0.021930
v -0.115063 0.355464 -0.033591
v -0.114416 0.354764 -0.022643
v -0.114260 0.329330 -0.034394
v -0.115949 0.329116 -0.028728
v -0.114678 0.381140 -0.025616
v -0.113300 0.380672 -0.021327
v -0.115668 0.316265 -0.029132
v -0.113312 0.328945 -0.023482
v -0.115914 0.290071 -0.030186
v -0.115801 0.303331 -0.029711
v -0.114562 0.303387 -0.034609
v -0.114348 0.303107 -0.025067
v -0.114669 0.276513 -0.026813
v -0.115595 0.276697 -0.030757
v -0.114472 0.276913 -0.034792
v -0.114862 0.289908 -0.025935
v -0.114758 0.290157 -0.034553
v -0.114246 0.316369 -0.034552
v -0.113429 0.316027 -0.024174
v -0.115082 0.263390 -0.031580
v -0.113747 0.263740 -0.035450
v -0.114238 0.263123 -0.027670
v -0.113996 0.250230 -0.032726
v -0.112365 0.355852 -0.038526
v -0.112078 0.342504 -0.039309
v -0.114383 0.381785 -0.030211
v -0.112892 0.382519 -0.034549
v -0.112423 0.369184 -0.037073
v -0.111006 0.289813 -0.026762
v -0.113019 0.290197 -0.038780
v -0.112802 0.277132 -0.038759
v -0.110527 0.263391 -0.028379
v -0.111178 0.276600 -0.027374
v -0.113059 0.393884 -0.023613
v -0.112206 0.316393 -0.039291
v -0.112688 0.303372 -0.039151
v -0.109087 0.367716 -0.022681
v -0.108636 0.354933 -0.023663
v -0.113487 0.394736 -0.027205
v -0.108248 0.315858 -0.025655
v -0.109702 0.302811 -0.026162
v -0.111774 0.329403 -0.039325
v -0.113157 0.249970 -0.029207
v -0.112913 0.250632 -0.036525
v -0.111990 0.236918 -0.030480
v -0.112072 0.237488 -0.037673
v -0.113062 0.237105 -0.033943
v -0.111240 0.251056 -0.040316
v -0.112003 0.264110 -0.039300
v -0.107851 0.329029 -0.025186
v -0.108280 0.342077 -0.024760
v -0.113173 0.406538 -0.023926
v -0.112919 0.404784 -0.027974
v -0.112560 0.395557 -0.030377
v -0.111455 0.393131 -0.020412
v -0.107897 0.393092 -0.020651
v -0.109097 0.380459 -0.022050
v -0.112311 0.406024 -0.021383
v -0.110817 0.410918 -0.023919
v -0.111287 0.412354 -0.021073
v -0.109821 0.250306 -0.029990
v -0.111112 0.224351 -0.038679
v -0.112034 0.224027 -0.034978
v -0.110728 0.405246 -0.019033
v -0.110658 0.290148 -0.039001
v -0.110377 0.237920 -0.041336
v -0.108856 0.395660 -0.030539
v -0.109451 0.407197 -0.026674
v -0.107419 0.369536 -0.038149
v -0.108397 0.382656 -0.035126
v -0.109575 0.264309 -0.040093
v -0.110530 0.277200 -0.039270
v -0.109418 0.303164 -0.039036
v -0.106802 0.356091 -0.039161
v -0.106305 0.329340 -0.038642
v -0.107091 0.316074 -0.038930
v -0.106275 0.342665 -0.039294
v -0.110641 0.223921 -0.031586
v -0.110779 0.210940 -0.035864
v -0.108767 0.251299 -0.041092
v -0.107030 0.224323 -0.032143
v -0.108542 0.237291 -0.031133
v -0.107453 0.401956 -0.018817
v -0.108899 0.410420 -0.019730
v -0.108031 0.406660 -0.024023
v -0.106887 0.405761 -0.021205
v -0.109344 0.276846 -0.031271
v -0.110277 0.211182 -0.039545
v -0.109350 0.224735 -0.042255
v -0.108633 0.211519 -0.043000
v -0.106796 0.302700 -0.030195
v -0.108860 0.289850 -0.030732
v -0.109078 0.210965 -0.032798
v -0.108965 0.198037 -0.040045
v -0.109243 0.197895 -0.036531
v -0.107290 0.198038 -0.033793
v -0.109164 0.277056 -0.035402
v -0.106985 0.302870 -0.034946
v -0.109075 0.290005 -0.034959
v -0.107981 0.250758 -0.033519
v -0.108657 0.263820 -0.032168
v -0.108395 0.264120 -0.036285
v -0.106268 0.225072 -0.043014
v -0.107692 0.238216 -0.042086
v -0.104084 0.315643 -0.029529
v -0.107720 0.184813 -0.036888
v -0.105645 0.211370 -0.033242
v -0.107523 0.380968 -0.026436
v -0.105152 0.355406 -0.028572
v -0.106785 0.368311 -0.027812
v -0.107337 0.198308 -0.043146
v -0.107498 0.184888 -0.040430
v -0.106112 0.185094 -0.043742
v -0.107167 0.381798 -0.030971
v -0.106445 0.394822 -0.028011
v -0.107764 0.251099 -0.037407
v -0.106549 0.238053 -0.038519
v -0.104594 0.198615 -0.043108
v -0.105419 0.211861 -0.043283
v -0.106816 0.237731 -0.034712
v -0.106021 0.368961 -0.033105
v -0.104365 0.342374 -0.029221
v -0.106264 0.393895 -0.024187
v -0.103672 0.329083 -0.029364
v -0.106169 0.171713 -0.040475
v -0.105667 0.185036 -0.034071
v -0.106078 0.171836 -0.036943
v -0.103948 0.172199 -0.034056
v -0.104635 0.171795 -0.043615
v -0.102993 0.185463 -0.043614
v -0.102268 0.185447 -0.034149
v -0.103980 0.198409 -0.033894
v -0.102359 0.315510 -0.035136
v -0.105226 0.224730 -0.035637
v -0.103730 0.211718 -0.036400
v -0.102507 0.342654 -0.034735
v -0.103914 0.355871 -0.034244
v -0.104891 0.224994 -0.039482
v -0.101746 0.329177 -0.034840
v -0.103763 0.211883 -0.040048
v -0.104868 0.158522 -0.039759
v -0.104174 0.158884 -0.036470
v -0.102541 0.198755 -0.040344
v -0.103525 0.158433 -0.042929
v -0.102474 0.145948 -0.035046
v -0.101811 0.145163 -0.041048
v -0.103342 0.145345 -0.038212
v -0.100062 0.158860 -0.042971
v -0.101279 0.172157 -0.043846
v -0.102166 0.159362 -0.033915
v -0.102021 0.198707 -0.036873
v -0.100322 0.172609 -0.033963
v -0.099157 0.159807 -0.033212
v -0.098936 0.145663 -0.040628
v -0.100718 0.132436 -0.035732
v -0.099243 0.132173 -0.038059
v -0.101063 0.185658 -0.040678
v -0.099393 0.172474 -0.040745
v -0.100593 0.185682 -0.037205
v -0.100325 0.146613 -0.032787
v -0.099764 0.133209 -0.033195
v -0.097726 0.133995 -0.031503
v -0.098983 0.172640 -0.037238
v -0.098906 0.159302 -0.039841
v -0.097872 0.120065 -0.031888
v -0.097600 0.147133 -0.032029
v -0.096866 0.120935 -0.030031
v -0.096410 0.132725 -0.038035
v -0.096433 0.119597 -0.033834
v -0.098418 0.159665 -0.036377
v -0.097383 0.146683 -0.034938
v -0.097843 0.146195 -0.038172
v -0.094171 0.133528 -0.036236
v -0.094549 0.109243 -0.024787
v -0.094119 0.107897 -0.027466
v -0.095468 0.108331 -0.026316
v -0.095227 0.134592 -0.030969
v -0.095117 0.121722 -0.028734
v -0.092835 0.122271 -0.028379
v -0.093659 0.134288 -0.033310
v -0.093818 0.120038 -0.033873
v -0.092261 0.108218 -0.027305
v -0.093385 0.098196 -0.018002
v -0.094581 0.097183 -0.019469
v -0.093083 0.096375 -0.020765
v -0.094667 0.085762 -0.013391
v -0.095298 0.086238 -0.012807
v -0.095291 0.086354 -0.012878
v -0.093679 0.087339 -0.010656
v -0.094684 0.085648 -0.013312
v -0.092110 0.085753 -0.012192
v -0.093682 0.087223 -0.010578
v -0.092909 0.109984 -0.023812
v -0.092097 0.085867 -0.012282
v -0.092292 0.120987 -0.032106
v -0.091411 0.121907 -0.029994
v -0.090691 0.108952 -0.026300
v -0.090972 0.088403 -0.009118
v -0.089474 0.087191 -0.010193
v -0.090979 0.088512 -0.009205
v -0.091597 0.098743 -0.017360
v -0.090834 0.096547 -0.020681
v -0.090793 0.110335 -0.023700
v -0.089421 0.109832 -0.024973
v -0.089126 0.097208 -0.019833
v -0.089471 0.087297 -0.010295
v -0.089470 0.099121 -0.017033
v -0.088369 0.089561 -0.008309
v -0.087674 0.088840 -0.008811
v -0.088357 0.089459 -0.008216
v -0.087676 0.088940 -0.008911
v -0.087891 0.098345 -0.018283
usemtl Extensor_digitorum_longus_rMaterial0
f 1 2 3
f 1 3 4
f 5 1 6
f 1 7 6
f 5 8 1
f 1 8 2
f 1 9 7
f 1 4 9
f 10 11 3
f 4 3 11
f 10 3 2
f 5 6 12
f 13 12 6
f 13 6 7
f 10 14 11
f 14 15 11
f 4 11 15
f 16 17 18
f 16 19 17
f 20 16 21
f 16 22 21
f 20 23 16
f 16 23 19
f 16 18 24
f 16 24 22
f 18 17 14
f 14 17 19
f 18 14 25
f 14 19 26
f 10 25 14
f 14 26 15
f 20 21 27
f 28 27 21
f 28 21 22
f 20 27 29
f 30 29 27
f 28 30 27
f 5 31 8
f 32 2 8
f 32 8 31
f 5 12 33
f 34 5 33
f 34 35 5
f 5 35 31
f 20 36 23
f 19 23 36
f 18 37 24
f 38 22 24
f 38 24 37
f 32 10 2
f 39 20 29
f 20 40 36
f 39 40 20
f 41 33 12
f 13 41 12
f 18 25 42
f 18 43 37
f 18 42 43
f 38 28 22
f 44 7 9
f 4 45 9
f 44 9 45
f 41 46 33
f 34 33 46
f 19 47 26
f 19 36 48
f 19 48 47
f 44 13 7
f 42 25 10
f 42 10 49
f 32 49 10
f 30 50 29
f 39 29 50
f 28 51 30
f 30 52 50
f 30 53 54
f 30 54 52
f 30 51 53
f 28 55 51
f 38 56 28
f 28 56 55
f 4 15 57
f 4 58 45
f 4 57 58
f 41 59 46
f 46 59 60
f 46 60 61
f 34 46 61
f 57 15 26
f 57 26 47
f 13 62 41
f 13 63 62
f 44 64 13
f 13 64 63
f 41 65 59
f 60 59 66
f 67 59 65
f 67 66 59
f 52 68 50
f 39 50 68
f 69 54 53
f 52 54 70
f 69 70 54
f 41 71 65
f 41 62 71
f 72 38 37
f 72 37 43
f 73 53 51
f 73 51 55
f 74 61 60
f 60 66 75
f 74 60 75
f 74 34 61
f 34 76 35
f 74 77 34
f 34 77 76
f 38 78 56
f 72 79 38
f 38 79 78
f 42 80 43
f 72 43 80
f 81 31 35
f 81 35 76
f 81 32 31
f 67 65 71
f 42 49 82
f 42 83 80
f 42 82 83
f 73 69 53
f 82 49 32
f 81 84 32
f 82 32 84
f 52 70 85
f 69 86 70
f 86 85 70
f 87 55 56
f 87 56 78
f 52 85 88
f 52 89 68
f 52 88 89
f 62 90 71
f 62 63 90
f 67 75 66
f 67 71 91
f 67 92 75
f 67 91 93
f 67 93 92
f 87 73 55
f 36 40 94
f 39 94 40
f 69 95 86
f 73 96 69
f 97 95 69
f 97 69 96
f 36 98 48
f 36 94 99
f 36 99 98
f 86 100 85
f 101 86 95
f 101 102 86
f 86 102 103
f 86 103 100
f 91 71 90
f 72 104 79
f 105 72 80
f 72 106 104
f 105 106 72
f 88 85 100
f 107 39 68
f 39 108 94
f 107 108 39
f 109 78 79
f 109 79 104
f 110 96 73
f 87 111 73
f 110 73 111
f 101 95 97
f 107 68 89
f 112 47 48
f 112 48 98
f 109 87 78
f 92 74 75
f 105 80 83
f 97 96 110
f 94 104 106
f 94 109 104
f 94 106 99
f 94 108 109
f 113 102 101
f 113 103 102
f 103 114 100
f 88 100 114
f 105 99 106
f 44 115 64
f 116 44 45
f 44 117 115
f 116 117 44
f 63 64 115
f 101 97 118
f 113 101 119
f 101 120 119
f 101 118 120
f 91 90 93
f 105 98 99
f 74 121 77
f 92 122 74
f 74 122 121
f 109 123 87
f 124 87 123
f 124 111 87
f 107 109 108
f 97 125 118
f 97 110 126
f 97 126 125
f 116 45 58
f 107 89 127
f 88 127 89
f 107 123 109
f 128 76 77
f 128 77 121
f 57 129 58
f 116 58 129
f 57 47 112
f 92 93 130
f 92 130 122
f 124 123 107
f 124 107 127
f 63 115 130
f 63 93 90
f 63 130 93
f 57 131 129
f 57 112 131
f 113 119 132
f 113 133 103
f 113 132 134
f 135 113 134
f 135 133 113
f 110 111 124
f 115 121 122
f 115 128 121
f 115 117 128
f 115 122 130
f 136 132 119
f 136 119 120
f 128 81 76
f 137 120 118
f 137 118 125
f 103 133 138
f 103 139 114
f 103 138 139
f 105 83 140
f 82 140 83
f 88 141 127
f 88 114 142
f 88 142 141
f 112 98 105
f 112 105 140
f 124 127 141
f 143 84 81
f 128 144 81
f 143 81 144
f 116 128 117
f 110 124 145
f 124 141 145
f 82 84 143
f 82 143 146
f 82 146 140
f 110 147 126
f 110 145 147
f 148 134 132
f 136 148 132
f 137 136 120
f 148 149 134
f 135 134 149
f 116 144 128
f 135 138 133
f 142 114 139
f 150 125 126
f 150 126 147
f 142 145 141
f 143 116 129
f 143 144 116
f 142 147 145
f 136 151 148
f 148 152 149
f 148 151 153
f 148 154 152
f 148 153 154
f 136 155 151
f 137 156 136
f 136 156 155
f 150 137 125
f 143 129 131
f 135 149 157
f 152 157 149
f 112 146 131
f 112 140 146
f 142 139 158
f 138 158 139
f 135 159 138
f 160 135 157
f 160 159 135
f 142 150 147
f 142 158 150
f 143 131 146
f 161 153 151
f 161 151 155
f 152 154 162
f 163 154 153
f 163 162 154
f 150 164 137
f 137 165 156
f 137 164 165
f 150 158 166
f 150 166 164
f 152 167 157
f 152 162 168
f 152 169 167
f 152 168 169
f 138 166 158
f 138 170 166
f 138 159 170
f 160 157 167
f 161 163 153
f 171 155 156
f 171 156 165
f 170 164 166
f 170 165 164
f 172 168 162
f 172 162 163
f 160 167 173
f 169 173 167
f 160 170 159
f 171 161 155
f 172 174 168
f 169 168 174
f 170 171 165
f 161 175 163
f 172 163 176
f 176 163 175
f 160 177 170
f 178 177 160
f 178 160 173
f 170 177 171
f 171 179 161
f 180 161 179
f 180 175 161
f 178 171 177
f 178 179 171
f 181 174 172
f 172 176 182
f 181 172 183
f 172 182 183
f 180 179 178
f 169 184 173
f 169 174 185
f 169 186 184
f 169 185 186
f 178 173 184
f 178 184 187
f 180 178 187
f 181 185 174
f 176 175 188
f 176 189 182
f 176 188 189
f 188 175 180
f 190 183 191
f 192 191 183
f 190 181 183
f 192 183 182
f 193 194 195
f 194 196 195
f 193 197 194
f 198 194 197
f 194 199 196
f 198 199 194
f 192 193 195
f 195 190 191
f 192 195 191
f 195 196 190
f 186 187 184
f 181 200 185
f 186 185 200
f 198 197 193
f 201 193 192
f 198 193 201
f 190 200 181
f 188 180 202
f 180 187 203
f 180 203 202
f 192 182 189
f 188 202 204
f 188 204 189
f 196 199 205
f 206 199 198
f 206 205 199
f 190 196 207
f 196 205 207
f 186 203 187
f 190 208 200
f 190 207 208
f 192 189 209
f 201 192 209
f 186 200 210
f 208 210 200
f 186 211 203
f 186 210 211
f 211 202 203
f 211 204 202
f 212 209 189
f 212 189 204
f 213 198 201
f 213 206 198
f 212 201 209
f 212 213 201
f 207 214 208
f 208 214 210
f 205 215 207
f 216 205 206
f 205 217 215
f 216 217 205
f 207 215 214
f 211 210 214
f 211 212 204
f 213 216 206
f 212 218 213
f 213 218 216
f 211 214 219
f 215 219 214
f 211 219 212
f 212 219 218
f 217 218 215
f 215 218 219
f 217 216 218
