# 
# Wavefront OBJ file
# Created with Kaydara FBX
# 
mtllib c:\users\tjvan\onedrive\documenten\fontys\minor\nx\.mtlmodels\femoral_artery.r.obj

g Femoral_artery_r
v -0.072678 0.786957 0.037790
v -0.072754 0.779422 0.036961
v -0.072662 0.779618 0.035029
v -0.071783 0.786751 0.039510
v -0.072486 0.774568 0.034569
v -0.072577 0.774396 0.036493
v -0.071862 0.779257 0.038681
v -0.072586 0.787178 0.035855
v -0.072634 0.793912 0.038623
v -0.071737 0.793690 0.040347
v -0.071612 0.779792 0.033402
v -0.071442 0.774767 0.032954
v -0.072542 0.794149 0.036683
v -0.072564 0.800451 0.039455
v -0.071665 0.800210 0.041182
v -0.071925 0.767924 0.034035
v -0.072016 0.767762 0.035949
v -0.071693 0.774297 0.038209
v -0.071533 0.787354 0.034223
v -0.072472 0.800701 0.037511
v -0.072411 0.806648 0.040273
v -0.071509 0.806384 0.042003
v -0.071485 0.794340 0.035048
v -0.070889 0.768151 0.032431
v -0.072318 0.806902 0.038324
v -0.071412 0.800892 0.035871
v -0.072114 0.812573 0.041063
v -0.071211 0.812282 0.042794
v -0.072021 0.812824 0.039107
v -0.071255 0.807079 0.036677
v -0.071612 0.818295 0.041809
v -0.070709 0.817973 0.043541
v -0.071058 0.759974 0.033412
v -0.071140 0.767708 0.037659
v -0.071149 0.759811 0.035315
v -0.071520 0.818532 0.039845
v -0.070957 0.812966 0.037451
v -0.070030 0.760218 0.031818
v -0.070142 0.786615 0.040555
v -0.070226 0.779167 0.039727
v -0.070091 0.793544 0.041393
v -0.070014 0.800043 0.042229
v -0.070069 0.774297 0.039258
v -0.069854 0.806181 0.043049
v -0.069885 0.779899 0.032516
v -0.069727 0.774939 0.032079
v -0.070842 0.823877 0.042493
v -0.069941 0.823522 0.044227
v -0.069604 0.550165 -0.015846
v -0.071551 0.548056 -0.017423
v -0.071383 0.548793 -0.018655
v -0.069188 0.549092 -0.014948
v -0.071128 0.547006 -0.016525
v -0.069800 0.787439 0.033332
v -0.070458 0.818621 0.038177
v -0.070753 0.824090 0.040521
v -0.069554 0.812028 0.043836
v -0.069747 0.794432 0.034156
v -0.069187 0.768380 0.031566
v -0.069668 0.800974 0.034975
v -0.069417 0.550928 -0.017076
v -0.070668 0.549019 -0.019892
v -0.069507 0.807129 0.035774
v -0.069053 0.817652 0.044578
v -0.070279 0.759772 0.037017
v -0.069956 0.750931 0.032682
v -0.070045 0.750761 0.034573
v -0.069530 0.767775 0.038708
v -0.068280 0.547997 -0.014623
v -0.070227 0.545922 -0.016201
v -0.068935 0.751190 0.031098
v -0.069207 0.812962 0.036537
v -0.068341 0.760478 0.030961
v -0.069742 0.829377 0.043099
v -0.068845 0.828988 0.044834
v -0.069699 0.824105 0.038838
v -0.069660 0.829558 0.041117
v -0.068292 0.823120 0.045257
v -0.068676 0.551176 -0.018309
v -0.069599 0.548672 -0.020801
v -0.068710 0.818537 0.037250
v -0.069180 0.750725 0.036266
v -0.068681 0.759869 0.038063
v -0.067123 0.547173 -0.014958
v -0.069089 0.545097 -0.016540
v -0.068195 0.786586 0.040644
v -0.068284 0.779177 0.039820
v -0.068137 0.793514 0.041482
v -0.068054 0.799993 0.042316
v -0.068140 0.774397 0.039359
v -0.068688 0.741037 0.031828
v -0.068776 0.740855 0.033708
v -0.067258 0.751468 0.030247
v -0.067890 0.806093 0.043131
v -0.067675 0.741309 0.030254
v -0.067209 0.828495 0.045858
v -0.067943 0.779908 0.032609
v -0.067798 0.775039 0.032180
v -0.067587 0.811879 0.043911
v -0.067852 0.787410 0.033421
v -0.067793 0.794401 0.034245
v -0.068250 0.834848 0.043607
v -0.067359 0.834425 0.045344
v -0.067275 0.768552 0.031672
v -0.068620 0.829482 0.039419
v -0.067960 0.823918 0.037896
v -0.067709 0.800925 0.035061
v -0.068179 0.834988 0.041615
v -0.067580 0.550844 -0.019214
v -0.068461 0.547846 -0.021139
v -0.067713 0.552238 -0.014228
v -0.067301 0.551147 -0.013328
v -0.067088 0.817419 0.044642
v -0.067617 0.767946 0.038814
v -0.067543 0.807041 0.035856
v -0.067510 0.553023 -0.015458
v -0.067240 0.812813 0.036612
v -0.066383 0.550042 -0.012999
v -0.067914 0.740811 0.035391
v -0.067592 0.750832 0.037307
v -0.066443 0.760684 0.031069
v -0.066027 0.546840 -0.015863
v -0.068020 0.544750 -0.017449
v -0.066336 0.822780 0.045309
v -0.066009 0.741597 0.029409
v -0.065745 0.833834 0.046362
v -0.067325 0.730538 0.030835
v -0.067410 0.730339 0.032703
v -0.066745 0.818304 0.037314
v -0.066744 0.553292 -0.016688
v -0.066320 0.730823 0.029272
v -0.066783 0.760075 0.038171
v -0.067165 0.834809 0.039903
v -0.066902 0.829170 0.038461
v -0.066423 0.550020 -0.019548
v -0.067560 0.546763 -0.020816
v -0.065373 0.751690 0.030356
v -0.065205 0.549220 -0.013329
v -0.066462 0.786671 0.039753
v -0.066557 0.779283 0.038934
v -0.065273 0.828030 0.045896
v -0.066309 0.840338 0.043999
v -0.065426 0.839885 0.045739
v -0.066399 0.793606 0.040590
v -0.066254 0.840433 0.041998
v -0.066424 0.774569 0.038484
v -0.066311 0.800075 0.041420
v -0.066142 0.806144 0.042227
v -0.065286 0.547089 -0.017095
v -0.067306 0.544975 -0.018685
v -0.066004 0.823578 0.037948
v -0.066307 0.779818 0.033656
v -0.066174 0.775040 0.033229
v -0.066335 0.740917 0.036426
v -0.066552 0.730280 0.034375
v -0.065837 0.811875 0.042997
v -0.066211 0.787274 0.034466
v -0.065665 0.768619 0.032721
v -0.066147 0.794256 0.035291
v -0.065887 0.554276 -0.012590
v -0.065474 0.553171 -0.011684
v -0.066058 0.800757 0.036109
v -0.064664 0.731118 0.028432
v -0.065916 0.768176 0.037949
v -0.065623 0.552973 -0.017589
v -0.065707 0.751055 0.037416
v -0.065340 0.817336 0.043715
v -0.065514 0.548924 -0.019223
v -0.067137 0.545712 -0.019918
v -0.065888 0.806838 0.036902
v -0.065671 0.555079 -0.013822
v -0.065937 0.719686 0.029689
v -0.066018 0.719466 0.031544
v -0.063842 0.839195 0.046753
v -0.064939 0.719986 0.028136
v -0.065099 0.547852 -0.018325
v -0.064543 0.552061 -0.011348
v -0.064845 0.760781 0.032115
v -0.064135 0.741826 0.029519
v -0.065583 0.812559 0.037654
v -0.063840 0.833232 0.046388
v -0.065479 0.834358 0.038930
v -0.065275 0.840145 0.040273
v -0.064084 0.548901 -0.014230
v -0.064598 0.822593 0.044367
v -0.064966 0.828705 0.038499
v -0.065094 0.760335 0.037314
v -0.064885 0.555366 -0.015052
v -0.065089 0.817983 0.038351
v -0.064980 0.730376 0.035403
v -0.065162 0.719383 0.033203
v -0.065408 0.786848 0.038122
v -0.065507 0.779457 0.037307
v -0.065342 0.793796 0.038955
v -0.063785 0.751798 0.031397
v -0.064446 0.552151 -0.017919
v -0.065381 0.774768 0.036869
v -0.065251 0.800267 0.039780
v -0.063344 0.551243 -0.011672
v -0.064462 0.741145 0.036535
v -0.063554 0.827717 0.044938
v -0.063293 0.720284 0.027302
v -0.065415 0.779653 0.035375
v -0.065289 0.774940 0.034945
v -0.065080 0.806320 0.040580
v -0.063868 0.845896 0.044257
v -0.062994 0.845416 0.046002
v -0.063833 0.845945 0.042248
v -0.065317 0.787069 0.036186
v -0.064788 0.768564 0.034431
v -0.065250 0.794034 0.037015
v -0.064773 0.812018 0.041341
v -0.065159 0.800516 0.037836
v -0.063319 0.549170 -0.015460
v -0.064594 0.708736 0.028374
v -0.064672 0.708487 0.030215
v -0.062800 0.731344 0.028541
v -0.064355 0.823177 0.038978
v -0.063605 0.709051 0.026832
v -0.064880 0.768402 0.036345
v -0.064134 0.556281 -0.010951
v -0.063716 0.555167 -0.010035
v -0.064987 0.806574 0.038631
v -0.064278 0.817424 0.042047
v -0.061980 0.838453 0.046769
v -0.064030 0.751333 0.036565
v -0.063911 0.557098 -0.012190
v -0.063975 0.760742 0.033817
v -0.063739 0.555060 -0.015948
v -0.064680 0.812268 0.039385
v -0.063528 0.551047 -0.017590
v -0.062769 0.554055 -0.009689
v -0.063636 0.839551 0.039287
v -0.063574 0.833757 0.038955
v -0.061445 0.844633 0.047015
v -0.062556 0.741932 0.030553
v -0.063543 0.822608 0.042684
v -0.063115 0.549956 -0.016689
v -0.062155 0.832781 0.045414
v -0.062899 0.845549 0.040513
v -0.062198 0.550936 -0.012568
v -0.063597 0.719461 0.034224
v -0.063816 0.708373 0.031861
v -0.064066 0.760579 0.035720
v -0.064186 0.817661 0.040083
v -0.063117 0.730602 0.035512
v -0.063330 0.828211 0.039523
v -0.061968 0.709349 0.026003
v -0.063106 0.557400 -0.013420
v -0.062920 0.751762 0.033090
v -0.063367 0.697942 0.026876
v -0.063440 0.697658 0.028701
v -0.061439 0.720500 0.027409
v -0.062386 0.698277 0.025347
v -0.062515 0.827642 0.043240
v -0.061547 0.553243 -0.010005
v -0.062795 0.741434 0.035690
v -0.062540 0.554242 -0.016272
v -0.063454 0.822822 0.040712
v -0.062463 0.558255 -0.009332
v -0.062036 0.557138 -0.008403
v -0.061229 0.731440 0.029569
v -0.061412 0.551223 -0.013798
v -0.063009 0.751592 0.034982
v -0.062237 0.559082 -0.010581
v -0.060907 0.851522 0.044366
v -0.060043 0.851015 0.046115
v -0.060341 0.837859 0.045783
v -0.059636 0.843756 0.047025
v -0.060886 0.851543 0.042351
v -0.062257 0.708423 0.032872
v -0.062585 0.697501 0.030332
v -0.061695 0.741888 0.032236
v -0.061936 0.557106 -0.014313
v -0.061069 0.556028 -0.008043
v -0.061774 0.838809 0.039303
v -0.061315 0.844814 0.039517
v -0.060758 0.698573 0.024522
v -0.061743 0.719678 0.034331
v -0.061960 0.833165 0.039973
v -0.061141 0.832602 0.043702
v -0.062433 0.827822 0.041258
v -0.061609 0.553132 -0.015936
v -0.062327 0.687564 0.025183
v -0.062395 0.687233 0.026990
v -0.061353 0.687924 0.023667
v -0.060377 0.552949 -0.010898
v -0.061196 0.552027 -0.015030
v -0.060123 0.709550 0.026108
v -0.061418 0.559395 -0.011816
v -0.061460 0.730897 0.034672
v -0.061782 0.741706 0.034116
v -0.058526 0.850159 0.047130
v -0.059987 0.851073 0.040609
v -0.059875 0.720578 0.028429
v -0.059822 0.555225 -0.008349
v -0.061539 0.687019 0.028602
v -0.061031 0.697513 0.031332
v -0.060370 0.731381 0.031241
v -0.060714 0.556293 -0.014629
v -0.061069 0.832743 0.041711
v -0.060884 0.560200 -0.007753
v -0.060442 0.559085 -0.006806
v -0.061543 0.677865 0.023284
v -0.061605 0.677470 0.025066
v -0.059735 0.688215 0.022846
v -0.060578 0.678257 0.021783
v -0.060412 0.708624 0.032977
v -0.060659 0.561029 -0.009017
v -0.059572 0.553250 -0.012129
v -0.059362 0.837570 0.044058
v -0.059452 0.557983 -0.006428
v -0.058053 0.843021 0.046029
v -0.058922 0.698751 0.024623
v -0.060190 0.838119 0.040317
v -0.060225 0.559112 -0.012705
v -0.060455 0.731182 0.033109
v -0.059507 0.843938 0.039527
v -0.060097 0.719975 0.033496
v -0.059767 0.555182 -0.014283
v -0.061079 0.668997 0.021141
v -0.060748 0.677178 0.026653
v -0.061138 0.668557 0.022902
v -0.058629 0.554942 -0.009238
v -0.060121 0.669420 0.019656
v -0.059988 0.686978 0.029587
v -0.058564 0.709600 0.027119
v -0.056762 0.849183 0.047137
v -0.059349 0.554068 -0.013368
v -0.059828 0.561351 -0.010259
v -0.058968 0.678540 0.020966
v -0.058449 0.850238 0.039608
v -0.059018 0.720495 0.030089
v -0.060592 0.662080 0.019399
v -0.060283 0.668219 0.024468
v -0.060652 0.661654 0.021147
v -0.059307 0.837666 0.042058
v -0.059645 0.662516 0.017933
v -0.058179 0.557190 -0.006722
v -0.059194 0.697690 0.031433
v -0.060335 0.852489 0.044377
v -0.059487 0.851961 0.046120
v -0.059406 0.562115 -0.006237
v -0.058944 0.561010 -0.005264
v -0.060312 0.852514 0.042367
v -0.059201 0.677066 0.027619
v -0.057906 0.688360 0.022941
v -0.058978 0.558308 -0.013011
v -0.059187 0.562942 -0.007520
v -0.059673 0.654087 0.017587
v -0.059807 0.661353 0.022707
v -0.059735 0.653696 0.019324
v -0.058735 0.654523 0.016135
v -0.058522 0.669713 0.018847
v -0.059100 0.720275 0.031944
v -0.057926 0.559923 -0.004864
v -0.058776 0.708922 0.032147
v -0.057810 0.555255 -0.010473
v -0.057118 0.842625 0.044294
v -0.059746 0.853469 0.044398
v -0.058909 0.852927 0.046137
v -0.059425 0.852030 0.040630
v -0.059717 0.853505 0.042395
v -0.058743 0.668072 0.025420
v -0.058613 0.561080 -0.011145
v -0.057958 0.843154 0.040541
v -0.058064 0.662847 0.017141
v -0.057367 0.698763 0.025623
v -0.057995 0.851071 0.047131
v -0.058159 0.687123 0.029682
v -0.057708 0.709486 0.028765
v -0.056964 0.556919 -0.007608
v -0.058347 0.563269 -0.008771
v -0.058904 0.653454 0.020883
v -0.058285 0.661258 0.023662
v -0.058011 0.557199 -0.012651
v -0.059115 0.854511 0.044426
v -0.058282 0.853967 0.046159
v -0.058454 0.645346 0.015730
v -0.058517 0.644975 0.017454
v -0.057146 0.678639 0.021051
v -0.058829 0.853027 0.040663
v -0.059084 0.854549 0.042428
v -0.057525 0.645779 0.014293
v -0.057173 0.654887 0.015359
v -0.055225 0.848348 0.046136
v -0.057584 0.556081 -0.011722
v -0.056686 0.849262 0.039615
v -0.057430 0.852026 0.047144
v -0.056624 0.559145 -0.005144
v -0.057910 0.851165 0.039632
v -0.058038 0.564003 -0.004802
v -0.057550 0.562918 -0.003799
v -0.057084 0.842674 0.042285
v -0.057831 0.564819 -0.006111
v -0.057379 0.677165 0.027704
v -0.057566 0.697986 0.030608
v -0.058446 0.855610 0.044453
v -0.057614 0.855072 0.046181
v -0.057786 0.709238 0.030606
v -0.058200 0.854071 0.040702
v -0.058420 0.855641 0.042461
v -0.057339 0.560287 -0.011439
v -0.056709 0.669798 0.018929
v -0.056499 0.561853 -0.003371
v -0.056355 0.688320 0.023927
v -0.057699 0.644766 0.019004
v -0.057404 0.653427 0.021844
v -0.056811 0.853063 0.047163
v -0.057320 0.852163 0.039667
v -0.055980 0.646158 0.013528
v -0.056930 0.668157 0.025502
v -0.056132 0.557241 -0.008850
v -0.057110 0.563008 -0.009655
v -0.056512 0.698605 0.027254
v -0.057057 0.636075 0.013830
v -0.057121 0.635716 0.015539
v -0.056272 0.662982 0.017235
v -0.056259 0.850058 0.047138
v -0.056137 0.636503 0.012406
v -0.057747 0.856760 0.044473
v -0.056909 0.856237 0.046196
v -0.057542 0.855158 0.040740
v -0.057729 0.856778 0.042487
v -0.056985 0.565146 -0.007375
v -0.056493 0.661394 0.023755
v -0.056145 0.854172 0.047182
v -0.056698 0.853205 0.039709
v -0.055387 0.558885 -0.006027
v -0.056541 0.687414 0.028862
v -0.055405 0.655082 0.015466
v -0.054325 0.847878 0.044395
v -0.056788 0.565864 -0.003469
v -0.056268 0.564810 -0.002429
v -0.056349 0.559185 -0.011062
v -0.055705 0.851006 0.047151
v -0.055169 0.848406 0.040630
v -0.055166 0.561095 -0.003633
v -0.055599 0.678527 0.022017
v -0.056174 0.850153 0.039638
v -0.056599 0.566658 -0.004810
v -0.055907 0.558070 -0.010114
v -0.056585 0.698321 0.029079
v -0.057023 0.857957 0.044481
v -0.056176 0.857454 0.046199
v -0.056860 0.856285 0.040770
v -0.057016 0.857955 0.042500
v -0.056217 0.644774 0.019964
v -0.056312 0.635521 0.017077
v -0.055441 0.855348 0.047195
v -0.055179 0.563778 -0.001967
v -0.056047 0.854290 0.039749
v -0.054608 0.636884 0.011650
v -0.055094 0.852041 0.047170
v -0.055636 0.653622 0.021951
v -0.055769 0.677448 0.026887
v -0.055499 0.688105 0.025539
v -0.055808 0.562230 -0.009934
v -0.055595 0.851143 0.039674
v -0.054233 0.646382 0.013640
v -0.055169 0.669652 0.019880
v -0.055727 0.564896 -0.008257
v -0.055603 0.626506 0.011892
v -0.055667 0.626151 0.013585
v -0.054305 0.847900 0.042379
v -0.054692 0.626926 0.010482
v -0.056279 0.859194 0.044469
v -0.056159 0.857448 0.040789
v -0.056288 0.859166 0.042495
v -0.055420 0.858718 0.046182
v -0.055751 0.566979 -0.006092
v -0.054547 0.559211 -0.007279
v -0.055331 0.668450 0.024692
v -0.054704 0.856581 0.047194
v -0.055373 0.855414 0.039783
v -0.054434 0.853152 0.047189
v -0.055666 0.567697 -0.002260
v -0.055107 0.566690 -0.001174
v -0.054744 0.849194 0.046139
v -0.054750 0.662887 0.018190
v -0.054981 0.852183 0.039715
v -0.053908 0.560845 -0.004514
v -0.055501 0.568457 -0.003640
v -0.055567 0.687774 0.027345
v -0.053812 0.563045 -0.002208
v -0.054912 0.661724 0.022963
v -0.054790 0.561143 -0.009534
v -0.054742 0.678234 0.023603
v -0.054847 0.635542 0.018030
v -0.054866 0.625956 0.015107
v -0.053973 0.565705 -0.000671
v -0.053904 0.655055 0.016428
v -0.054196 0.850141 0.046155
v -0.055523 0.860466 0.044432
v -0.055445 0.858642 0.040788
v -0.055550 0.860406 0.042464
v -0.054648 0.860023 0.046139
v -0.054470 0.644998 0.020076
v -0.054682 0.849263 0.040649
v -0.053941 0.857866 0.047174
v -0.054681 0.856573 0.039804
v -0.054328 0.560038 -0.008562
v -0.053177 0.627299 0.009732
v -0.053734 0.854331 0.047201
v -0.054337 0.853269 0.039756
v -0.052879 0.637116 0.011764
v -0.054393 0.564138 -0.008518
v -0.054804 0.677839 0.025386
v -0.054472 0.566742 -0.006971
v -0.054656 0.568765 -0.004943
v -0.053592 0.851175 0.046177
v -0.054681 0.569502 -0.001194
v -0.054075 0.568563 -0.000054
v -0.054216 0.616875 0.009924
v -0.054278 0.616518 0.011599
v -0.054073 0.653986 0.021175
v -0.053312 0.617286 0.008526
v -0.054314 0.669313 0.021447
v -0.054116 0.850242 0.040681
v -0.054760 0.861766 0.044363
v -0.054723 0.859860 0.040764
v -0.054809 0.861669 0.042404
v -0.053865 0.861363 0.046063
v -0.054548 0.570210 -0.002620
v -0.053000 0.855572 0.047201
v -0.053975 0.857762 0.039807
v -0.053160 0.859197 0.047128
v -0.052751 0.646390 0.014600
v -0.053062 0.561172 -0.005778
v -0.053667 0.854397 0.039789
v -0.054373 0.668873 0.023208
v -0.053857 0.848709 0.044402
v -0.052533 0.562808 -0.003087
v -0.052569 0.565006 -0.000888
v -0.053906 0.662587 0.019750
v -0.052890 0.567643 0.000496
v -0.052940 0.852284 0.046198
v -0.053509 0.851279 0.040720
v -0.053965 0.662161 0.021497
v -0.053414 0.625973 0.016050
v -0.053482 0.616309 0.013103
v -0.053118 0.635775 0.018144
v -0.053996 0.863089 0.044257
v -0.054000 0.861097 0.040709
v -0.054070 0.862949 0.042307
v -0.053342 0.563073 -0.008090
v -0.053074 0.654814 0.017986
v -0.053308 0.849663 0.044423
v -0.053079 0.862732 0.045948
v -0.053263 0.858974 0.039785
v -0.052239 0.856866 0.047181
v -0.053889 0.571168 -0.000346
v -0.053214 0.570359 0.000874
v -0.051810 0.617640 0.007781
v -0.053834 0.848735 0.042393
v -0.052977 0.855563 0.039810
v -0.053709 0.570496 -0.003950
v -0.053357 0.568540 -0.005821
v -0.052365 0.860568 0.047048
v -0.051465 0.627524 0.009844
v -0.052855 0.561988 -0.007087
v -0.053794 0.571794 -0.001827
v -0.053105 0.566009 -0.007212
v -0.052925 0.645377 0.019312
v -0.052247 0.853460 0.046214
v -0.052868 0.852369 0.040757
v -0.053014 0.607424 0.007933
v -0.053074 0.607058 0.009589
v -0.051414 0.637138 0.012717
v -0.052119 0.607824 0.006548
v -0.052707 0.850697 0.044450
v -0.053279 0.849700 0.042420
v -0.051950 0.569584 0.001503
v -0.053136 0.654423 0.019723
v -0.053281 0.862347 0.040620
v -0.053237 0.864430 0.044107
v -0.053339 0.864239 0.042168
v -0.052549 0.860205 0.039734
v -0.052294 0.864125 0.045787
v -0.051445 0.566989 0.000307
v -0.052273 0.856761 0.039813
v -0.051458 0.858208 0.047134
v -0.051685 0.563129 -0.004369
v -0.051933 0.646181 0.016150
v -0.052463 0.576013 0.001572
v -0.051721 0.575396 0.002884
v -0.051564 0.861972 0.046927
v -0.051270 0.564781 -0.001766
v -0.052955 0.572069 -0.003175
v -0.052397 0.576543 0.000034
v -0.051522 0.854696 0.046216
v -0.052391 0.570283 -0.004826
v -0.052198 0.853508 0.040788
v -0.052062 0.851800 0.044477
v -0.052677 0.850735 0.042453
v -0.052042 0.616306 0.014032
v -0.052283 0.606822 0.011071
v -0.051702 0.626198 0.016162
v -0.051953 0.567841 -0.006038
v -0.052016 0.564977 -0.006750
v -0.052572 0.863603 0.040491
v -0.052571 0.865633 0.043929
v -0.052700 0.865393 0.042002
v -0.050629 0.608149 0.005805
v -0.051841 0.861447 0.039649
v -0.051561 0.857985 0.039791
v -0.051603 0.865381 0.045597
v -0.050371 0.574857 0.003618
v -0.050112 0.617843 0.007887
v -0.050662 0.859593 0.047053
v -0.051996 0.645810 0.017874
v -0.051589 0.636156 0.017387
v -0.052119 0.598401 0.005931
v -0.052177 0.598018 0.007565
v -0.050763 0.863406 0.046759
v -0.051496 0.563923 -0.005710
v -0.051232 0.598786 0.004557
v -0.050769 0.855986 0.046199
v -0.051505 0.854690 0.040806
v -0.051595 0.571919 -0.004027
v -0.051541 0.576845 -0.001319
v -0.051379 0.852967 0.044497
v -0.050435 0.569050 0.001375
v -0.050013 0.627541 0.010787
v -0.052036 0.851832 0.042485
v -0.050605 0.636943 0.014254
v -0.052490 0.865781 0.043907
v -0.052622 0.865534 0.041982
v -0.051955 0.864724 0.040334
v -0.050957 0.864891 0.043500
v -0.051879 0.864861 0.040315
v -0.049876 0.863911 0.041074
v -0.050126 0.566776 -0.000570
v -0.051143 0.862693 0.039524
v -0.051518 0.865534 0.045574
v -0.050846 0.859230 0.039740
v -0.050424 0.565089 -0.003069
v -0.051768 0.582221 0.003531
v -0.050996 0.581768 0.004912
v -0.050945 0.569629 -0.005015
v -0.051712 0.582678 0.001952
v -0.049859 0.861014 0.046932
v -0.050055 0.864702 0.046560
v -0.051389 0.597738 0.009022
v -0.050853 0.606781 0.011983
v -0.050794 0.855909 0.040806
v -0.050665 0.854190 0.044505
v -0.049997 0.857322 0.046155
v -0.051361 0.852985 0.042511
v -0.051648 0.590062 0.003930
v -0.051704 0.589651 0.005539
v -0.050770 0.590428 0.002566
v -0.049753 0.599068 0.003812
v -0.050344 0.616508 0.014138
v -0.050819 0.566856 -0.005535
v -0.050669 0.636583 0.015964
v -0.048774 0.574542 0.003577
v -0.050535 0.863805 0.039372
v -0.050461 0.863941 0.039353
v -0.048748 0.863022 0.039353
v -0.050135 0.860488 0.039653
v -0.048943 0.608312 0.005902
v -0.050921 0.589302 0.006964
v -0.049602 0.581440 0.005723
v -0.050843 0.583017 0.000596
v -0.050187 0.626570 0.015412
v -0.050259 0.565849 -0.004449
v -0.050126 0.576836 -0.002123
v -0.050080 0.571386 -0.004155
v -0.049968 0.864861 0.046536
v -0.050073 0.857159 0.040780
v -0.049054 0.862466 0.046762
v -0.049926 0.855461 0.044493
v -0.048839 0.863971 0.044815
v -0.050658 0.854187 0.042524
v -0.048672 0.617839 0.008817
v -0.049212 0.858700 0.046078
v -0.049075 0.568901 0.000523
v -0.049212 0.627346 0.012308
v -0.049968 0.597637 0.009911
v -0.049288 0.567062 -0.001899
v -0.049303 0.590649 0.001815
v -0.049434 0.861753 0.039526
v -0.049510 0.589111 0.007823
v -0.047759 0.862992 0.042389
v -0.049761 0.568709 -0.004466
v -0.049394 0.583147 -0.000172
v -0.049167 0.606945 0.012081
v -0.049346 0.858434 0.040725
v -0.049935 0.855433 0.042518
v -0.049170 0.856776 0.044455
v -0.048342 0.863781 0.046561
v -0.049275 0.626991 0.014001
v -0.048418 0.860113 0.045960
v -0.048079 0.599173 0.003896
v -0.048822 0.862883 0.039372
v -0.047358 0.574533 0.002773
v -0.049154 0.567770 -0.003325
v -0.047961 0.581326 0.005748
v -0.048842 0.616863 0.013393
v -0.048236 0.569176 -0.000825
v -0.048529 0.576520 -0.002164
v -0.048621 0.859728 0.040632
v -0.047513 0.608271 0.006814
v -0.048816 0.570610 -0.003525
v -0.049198 0.856717 0.042487
v -0.048255 0.863941 0.046536
v -0.047877 0.617631 0.010320
v -0.048403 0.858128 0.044384
v -0.048294 0.597741 0.009995
v -0.046837 0.863022 0.045574
v -0.047197 0.862348 0.040316
v -0.047624 0.861556 0.045795
v -0.047642 0.590666 0.001876
v -0.047849 0.589128 0.007884
v -0.047903 0.861035 0.040498
v -0.047752 0.583033 -0.000147
v -0.048452 0.858031 0.042424
v -0.048141 0.569801 -0.002306
v -0.047939 0.617274 0.011995
v -0.047630 0.859512 0.044274
v -0.047677 0.607270 0.011337
v -0.046503 0.574834 0.001421
v -0.046922 0.862862 0.045598
v -0.046658 0.599072 0.004785
v -0.046094 0.862348 0.043907
v -0.047178 0.575982 -0.001430
v -0.047274 0.862205 0.040336
v -0.046512 0.581456 0.004980
v -0.046722 0.608036 0.008296
v -0.047704 0.859371 0.042323
v -0.046858 0.860921 0.044117
v -0.046815 0.598024 0.009250
v -0.046437 0.575365 -0.000118
v -0.046231 0.590474 0.002734
v -0.046382 0.589349 0.007132
v -0.046782 0.607669 0.009952
v -0.046960 0.860730 0.042178
v -0.046359 0.582705 0.000665
v -0.046226 0.862102 0.041983
v -0.046177 0.862193 0.043930
v -0.045870 0.598792 0.006242
v -0.045643 0.581795 0.003625
v -0.046306 0.861952 0.042004
v -0.045928 0.598408 0.007876
v -0.045448 0.590126 0.004159
v -0.045587 0.582252 0.002045
v -0.045504 0.589714 0.005769
usemtl Femoral_artery_rMaterial0
f 1 2 3
f 4 2 1
f 2 5 3
f 2 6 5
f 7 6 2
f 4 7 2
f 1 3 8
f 9 1 8
f 10 1 9
f 10 4 1
f 8 3 11
f 3 5 12
f 3 12 11
f 9 8 13
f 14 9 13
f 15 9 14
f 15 10 9
f 6 16 5
f 6 17 16
f 18 17 6
f 7 18 6
f 13 8 19
f 8 11 19
f 14 13 20
f 21 14 20
f 22 14 21
f 22 15 14
f 20 13 23
f 13 19 23
f 5 16 24
f 5 24 12
f 21 20 25
f 25 20 26
f 20 23 26
f 27 21 25
f 28 21 27
f 28 22 21
f 27 25 29
f 29 25 30
f 25 26 30
f 31 27 29
f 32 27 31
f 32 28 27
f 17 33 16
f 18 34 17
f 34 35 17
f 17 35 33
f 31 29 36
f 36 29 37
f 29 30 37
f 16 33 38
f 16 38 24
f 39 7 4
f 40 18 7
f 39 40 7
f 41 4 10
f 41 39 4
f 42 10 15
f 42 41 10
f 43 34 18
f 40 43 18
f 44 15 22
f 44 42 15
f 19 11 45
f 11 12 46
f 11 46 45
f 47 31 36
f 48 31 47
f 48 32 31
f 49 50 51
f 52 53 50
f 52 50 49
f 23 19 54
f 19 45 54
f 36 37 55
f 47 36 56
f 56 36 55
f 57 22 28
f 57 44 22
f 26 23 58
f 23 54 58
f 12 24 59
f 12 59 46
f 30 26 60
f 26 58 60
f 61 51 62
f 49 51 61
f 37 30 63
f 30 60 63
f 64 28 32
f 64 57 28
f 34 65 35
f 35 66 33
f 65 67 35
f 35 67 66
f 68 65 34
f 43 68 34
f 69 70 53
f 69 53 52
f 33 71 38
f 33 66 71
f 55 37 72
f 37 63 72
f 24 38 73
f 24 73 59
f 74 47 56
f 75 48 47
f 75 47 74
f 56 55 76
f 74 56 77
f 77 56 76
f 78 32 48
f 78 64 32
f 79 62 80
f 61 62 79
f 76 55 81
f 55 72 81
f 65 82 67
f 68 83 65
f 83 82 65
f 84 85 70
f 84 70 69
f 86 40 39
f 87 43 40
f 86 87 40
f 88 39 41
f 88 86 39
f 89 41 42
f 89 88 41
f 90 68 43
f 87 90 43
f 67 91 66
f 82 92 67
f 67 92 91
f 38 71 93
f 38 93 73
f 94 42 44
f 94 89 42
f 66 95 71
f 66 91 95
f 96 48 75
f 96 78 48
f 54 45 97
f 45 46 98
f 45 98 97
f 99 44 57
f 99 94 44
f 58 54 100
f 54 97 100
f 60 58 101
f 58 100 101
f 102 74 77
f 103 75 74
f 103 74 102
f 46 59 104
f 46 104 98
f 77 76 105
f 76 81 106
f 105 76 106
f 63 60 107
f 60 101 107
f 108 77 105
f 102 77 108
f 79 80 109
f 109 80 110
f 111 49 61
f 112 52 49
f 112 49 111
f 113 57 64
f 113 99 57
f 114 83 68
f 90 114 68
f 72 63 115
f 63 107 115
f 116 61 79
f 111 61 116
f 81 72 117
f 72 115 117
f 118 69 52
f 118 52 112
f 82 119 92
f 83 120 82
f 120 119 82
f 59 73 121
f 59 121 104
f 122 123 85
f 122 85 84
f 124 64 78
f 124 113 64
f 71 95 125
f 71 125 93
f 126 75 103
f 126 96 75
f 92 127 91
f 119 128 92
f 92 128 127
f 106 81 129
f 81 117 129
f 130 79 109
f 116 79 130
f 91 131 95
f 91 127 131
f 114 132 83
f 132 120 83
f 108 105 133
f 105 106 134
f 133 105 134
f 109 110 135
f 135 110 136
f 73 93 137
f 73 137 121
f 138 84 69
f 138 69 118
f 139 87 86
f 140 90 87
f 139 140 87
f 141 78 96
f 141 124 78
f 142 102 108
f 143 103 102
f 143 102 142
f 144 86 88
f 144 139 86
f 145 108 133
f 142 108 145
f 146 114 90
f 140 146 90
f 147 88 89
f 147 144 88
f 148 89 94
f 148 147 89
f 149 150 123
f 149 123 122
f 134 106 151
f 106 129 151
f 100 97 152
f 97 98 153
f 97 153 152
f 120 154 119
f 119 155 128
f 154 155 119
f 156 94 99
f 156 148 94
f 101 100 157
f 100 152 157
f 98 104 158
f 98 158 153
f 107 101 159
f 101 157 159
f 160 111 116
f 161 112 111
f 161 111 160
f 115 107 162
f 107 159 162
f 95 131 163
f 95 163 125
f 164 132 114
f 146 164 114
f 130 109 165
f 165 109 135
f 132 166 120
f 166 154 120
f 167 99 113
f 167 156 99
f 168 136 169
f 135 136 168
f 117 115 170
f 115 162 170
f 171 116 130
f 160 116 171
f 128 172 127
f 155 173 128
f 128 173 172
f 174 126 103
f 174 103 143
f 127 175 131
f 127 172 175
f 176 169 150
f 176 150 149
f 177 118 112
f 177 112 161
f 104 121 178
f 104 178 158
f 93 125 179
f 93 179 137
f 129 117 180
f 117 170 180
f 181 96 126
f 181 141 96
f 133 134 182
f 145 133 183
f 183 133 182
f 168 169 176
f 184 122 84
f 184 84 138
f 185 113 124
f 185 167 113
f 134 151 186
f 182 134 186
f 164 187 132
f 187 166 132
f 171 130 188
f 188 130 165
f 151 129 189
f 129 180 189
f 154 190 155
f 155 191 173
f 190 191 155
f 192 140 139
f 193 146 140
f 192 193 140
f 194 139 144
f 194 192 139
f 121 137 195
f 121 195 178
f 165 135 196
f 196 135 168
f 197 164 146
f 193 197 146
f 198 144 147
f 198 194 144
f 199 138 118
f 199 118 177
f 166 200 154
f 200 190 154
f 201 124 141
f 201 185 124
f 131 175 202
f 131 202 163
f 157 152 203
f 152 153 204
f 152 204 203
f 205 147 148
f 205 198 147
f 206 142 145
f 207 143 142
f 207 142 206
f 208 145 183
f 206 145 208
f 159 157 209
f 157 203 209
f 153 158 210
f 153 210 204
f 162 159 211
f 159 209 211
f 212 148 156
f 212 205 148
f 170 162 213
f 162 211 213
f 214 149 122
f 214 122 184
f 173 215 172
f 191 216 173
f 173 216 215
f 125 163 217
f 125 217 179
f 151 189 218
f 186 151 218
f 172 219 175
f 172 215 219
f 197 220 164
f 220 187 164
f 221 160 171
f 222 161 160
f 222 160 221
f 180 170 223
f 170 213 223
f 224 156 167
f 224 212 156
f 225 181 126
f 225 126 174
f 187 226 166
f 226 200 166
f 227 171 188
f 221 171 227
f 158 178 228
f 158 228 210
f 188 165 229
f 229 165 196
f 189 180 230
f 180 223 230
f 231 168 176
f 196 168 231
f 203 197 193
f 209 203 193
f 209 193 192
f 232 177 161
f 232 161 222
f 183 182 233
f 182 186 234
f 233 182 234
f 235 174 143
f 235 143 207
f 203 204 197
f 211 192 194
f 211 209 192
f 137 179 236
f 137 236 195
f 204 220 197
f 213 211 194
f 213 194 198
f 237 167 185
f 237 224 167
f 238 176 149
f 238 149 214
f 204 210 220
f 239 141 181
f 239 201 141
f 208 183 240
f 240 183 233
f 223 213 198
f 223 198 205
f 241 184 138
f 241 138 199
f 190 242 191
f 191 243 216
f 242 243 191
f 231 176 238
f 220 244 187
f 244 226 187
f 230 223 205
f 230 205 212
f 189 230 245
f 218 189 245
f 200 246 190
f 246 242 190
f 186 218 247
f 234 186 247
f 175 219 248
f 175 248 202
f 227 188 249
f 249 188 229
f 210 244 220
f 178 250 228
f 178 195 250
f 210 228 244
f 245 230 212
f 245 212 224
f 216 251 215
f 243 252 216
f 216 252 251
f 163 202 253
f 163 253 217
f 215 254 219
f 215 251 254
f 255 185 201
f 255 237 185
f 256 199 177
f 256 177 232
f 226 257 200
f 257 246 200
f 229 196 258
f 258 196 231
f 218 245 259
f 247 218 259
f 259 245 224
f 259 224 237
f 260 221 227
f 261 222 221
f 261 221 260
f 179 217 262
f 179 262 236
f 263 214 184
f 263 184 241
f 244 264 226
f 228 264 244
f 264 257 226
f 228 250 264
f 265 227 249
f 260 227 265
f 266 206 208
f 267 207 206
f 267 206 266
f 268 239 181
f 268 181 225
f 269 225 174
f 269 174 235
f 270 208 240
f 266 208 270
f 242 271 243
f 243 272 252
f 271 272 243
f 195 273 250
f 195 236 273
f 249 229 274
f 274 229 258
f 275 232 222
f 275 222 261
f 233 234 276
f 240 233 277
f 277 233 276
f 219 254 278
f 219 278 248
f 246 279 242
f 279 271 242
f 234 247 280
f 276 234 280
f 281 255 201
f 281 201 239
f 282 259 237
f 282 237 255
f 283 231 238
f 258 231 283
f 247 259 282
f 252 284 251
f 272 285 252
f 252 285 284
f 251 286 254
f 251 284 286
f 287 241 199
f 287 199 256
f 280 247 282
f 288 238 214
f 288 214 263
f 202 248 289
f 202 289 253
f 283 238 288
f 265 249 290
f 290 249 274
f 257 291 246
f 291 279 246
f 250 292 264
f 264 292 257
f 293 235 207
f 293 207 267
f 250 273 292
f 294 240 277
f 270 240 294
f 217 253 295
f 217 295 262
f 292 291 257
f 296 256 232
f 296 232 275
f 272 297 285
f 271 298 272
f 298 297 272
f 236 299 273
f 236 262 299
f 274 258 300
f 300 258 283
f 301 282 255
f 301 255 281
f 302 260 265
f 303 261 260
f 303 260 302
f 280 282 301
f 285 304 284
f 285 305 304
f 297 305 285
f 254 286 306
f 254 306 278
f 284 304 307
f 284 307 286
f 279 308 271
f 308 298 271
f 309 265 290
f 302 265 309
f 310 263 241
f 310 241 287
f 311 281 239
f 311 239 268
f 312 275 261
f 312 261 303
f 313 268 225
f 313 225 269
f 248 278 314
f 248 314 289
f 276 280 315
f 315 280 301
f 290 274 316
f 316 274 300
f 273 317 292
f 292 317 291
f 277 276 318
f 318 276 315
f 291 319 279
f 319 308 279
f 273 299 317
f 320 283 288
f 300 283 320
f 305 321 304
f 297 322 305
f 305 323 321
f 322 323 305
f 324 287 256
f 324 256 296
f 304 321 325
f 304 325 307
f 298 326 297
f 326 322 297
f 317 319 291
f 253 289 327
f 253 327 295
f 328 269 235
f 328 235 293
f 329 288 263
f 329 263 310
f 309 290 330
f 330 290 316
f 286 307 331
f 286 331 306
f 294 277 332
f 332 277 318
f 262 333 299
f 262 295 333
f 320 288 329
f 323 334 321
f 322 335 323
f 323 336 334
f 335 336 323
f 337 301 281
f 337 281 311
f 321 334 338
f 321 338 325
f 339 296 275
f 339 275 312
f 315 301 337
f 308 340 298
f 340 326 298
f 341 266 270
f 342 266 341
f 342 267 266
f 343 302 309
f 344 303 302
f 344 302 343
f 341 270 345
f 345 270 294
f 346 335 322
f 326 346 322
f 278 306 347
f 278 347 314
f 316 300 348
f 348 300 320
f 349 309 330
f 343 309 349
f 336 350 334
f 335 351 336
f 351 352 336
f 336 352 350
f 334 350 353
f 334 353 338
f 307 325 354
f 307 354 331
f 299 355 317
f 317 355 319
f 356 312 303
f 356 303 344
f 319 357 308
f 357 340 308
f 358 310 287
f 358 287 324
f 299 333 355
f 359 311 268
f 359 268 313
f 360 341 345
f 361 341 360
f 361 342 341
f 345 294 362
f 360 345 363
f 363 345 362
f 364 351 335
f 346 364 335
f 330 316 365
f 365 316 348
f 318 315 366
f 366 315 337
f 325 338 367
f 325 367 354
f 289 314 368
f 289 368 327
f 355 357 319
f 369 267 342
f 369 293 267
f 370 346 326
f 340 370 326
f 362 294 332
f 295 371 333
f 295 327 371
f 372 324 296
f 372 296 339
f 349 330 373
f 373 330 365
f 351 374 352
f 375 374 351
f 364 375 351
f 376 320 329
f 348 320 376
f 377 360 363
f 378 360 377
f 378 361 360
f 352 379 350
f 374 380 352
f 352 380 379
f 306 331 381
f 306 381 347
f 363 362 382
f 377 363 383
f 383 363 382
f 350 384 353
f 350 379 384
f 338 353 385
f 338 385 367
f 386 313 269
f 386 269 328
f 387 329 310
f 387 310 358
f 332 318 388
f 388 318 366
f 389 342 361
f 389 369 342
f 390 339 312
f 390 312 356
f 382 362 391
f 362 332 391
f 392 343 349
f 393 344 343
f 393 343 392
f 394 337 311
f 394 311 359
f 376 329 387
f 366 337 394
f 395 349 373
f 392 349 395
f 396 364 346
f 370 396 346
f 357 397 340
f 397 370 340
f 398 377 383
f 399 377 398
f 399 378 377
f 333 400 355
f 355 400 357
f 383 382 401
f 398 383 402
f 402 383 401
f 333 371 400
f 365 348 403
f 403 348 376
f 331 354 404
f 331 404 381
f 405 356 344
f 405 344 393
f 314 347 406
f 314 406 368
f 374 407 380
f 375 408 374
f 408 407 374
f 409 361 378
f 409 389 361
f 401 382 410
f 382 391 410
f 400 397 357
f 353 384 411
f 353 411 385
f 412 375 364
f 396 412 364
f 413 358 324
f 413 324 372
f 373 365 414
f 414 365 403
f 327 415 371
f 327 368 415
f 380 416 379
f 407 417 380
f 380 417 416
f 354 367 418
f 354 418 404
f 419 293 369
f 419 328 293
f 379 420 384
f 379 416 420
f 391 332 388
f 421 398 402
f 422 398 421
f 422 399 398
f 402 401 423
f 421 402 424
f 424 402 423
f 395 373 425
f 425 373 414
f 426 408 375
f 412 426 375
f 427 378 399
f 427 409 378
f 423 401 428
f 401 410 428
f 429 372 339
f 429 339 390
f 397 430 370
f 430 396 370
f 367 385 431
f 367 431 418
f 432 359 313
f 432 313 386
f 433 392 395
f 434 393 392
f 434 392 433
f 435 376 387
f 403 376 435
f 436 369 389
f 436 419 369
f 437 366 394
f 388 366 437
f 438 390 356
f 438 356 405
f 347 381 439
f 347 439 406
f 410 391 440
f 391 388 440
f 441 395 425
f 433 395 441
f 442 387 358
f 442 358 413
f 371 443 400
f 400 443 397
f 444 421 424
f 445 421 444
f 445 422 421
f 424 423 446
f 444 424 447
f 447 424 446
f 408 448 407
f 407 449 417
f 448 449 407
f 371 415 443
f 450 399 422
f 450 427 399
f 435 387 442
f 443 430 397
f 451 405 393
f 451 393 434
f 446 423 452
f 423 428 452
f 384 420 453
f 384 453 411
f 454 389 409
f 454 436 389
f 426 455 408
f 455 448 408
f 456 412 396
f 430 456 396
f 368 457 415
f 368 406 457
f 414 403 458
f 458 403 435
f 428 410 459
f 410 440 459
f 385 411 460
f 385 460 431
f 381 404 461
f 381 461 439
f 425 414 462
f 462 414 458
f 417 463 416
f 449 464 417
f 417 464 463
f 465 394 359
f 465 359 432
f 437 394 465
f 416 466 420
f 416 463 466
f 467 444 447
f 447 446 468
f 467 447 469
f 469 447 468
f 470 444 467
f 470 445 444
f 441 425 471
f 471 425 462
f 472 413 372
f 472 372 429
f 473 426 412
f 456 473 412
f 474 422 445
f 474 450 422
f 468 446 475
f 446 452 475
f 476 409 427
f 476 454 409
f 477 433 441
f 478 434 433
f 478 433 477
f 479 328 419
f 479 386 328
f 404 418 480
f 404 480 461
f 452 428 481
f 428 459 481
f 440 388 437
f 482 429 390
f 482 390 438
f 483 441 471
f 477 441 483
f 443 484 430
f 415 484 443
f 484 456 430
f 415 457 484
f 485 438 405
f 485 405 451
f 486 455 426
f 473 486 426
f 487 435 442
f 458 435 487
f 406 439 488
f 406 488 457
f 448 489 449
f 449 490 464
f 489 490 449
f 491 451 434
f 491 434 478
f 418 431 492
f 418 492 480
f 493 419 436
f 493 479 419
f 494 467 469
f 469 468 495
f 494 469 496
f 496 469 495
f 497 467 494
f 497 470 467
f 455 498 448
f 498 489 448
f 459 440 499
f 440 437 499
f 500 445 470
f 500 474 445
f 495 468 501
f 468 475 501
f 502 442 413
f 502 413 472
f 420 466 503
f 420 503 453
f 504 427 450
f 504 476 427
f 475 452 505
f 452 481 505
f 411 453 506
f 411 506 460
f 487 442 502
f 462 458 507
f 507 458 487
f 484 508 456
f 508 473 456
f 471 462 509
f 483 471 510
f 510 471 509
f 509 462 507
f 511 436 454
f 511 493 436
f 512 477 483
f 513 478 477
f 513 477 512
f 464 514 463
f 490 515 464
f 464 515 514
f 486 516 455
f 516 498 455
f 463 517 466
f 463 514 517
f 439 461 518
f 439 518 488
f 481 459 519
f 459 499 519
f 457 508 484
f 520 494 496
f 496 495 521
f 520 496 522
f 522 496 521
f 523 494 520
f 523 497 494
f 512 483 524
f 524 483 510
f 457 488 508
f 525 450 474
f 525 504 450
f 521 495 526
f 495 501 526
f 527 470 497
f 527 500 470
f 431 460 528
f 431 528 492
f 529 472 429
f 529 429 482
f 501 475 530
f 475 505 530
f 531 486 473
f 508 531 473
f 532 386 479
f 532 432 386
f 533 482 438
f 533 438 485
f 534 451 491
f 534 485 451
f 461 480 535
f 461 535 518
f 499 437 465
f 536 478 513
f 536 491 478
f 537 454 476
f 537 511 454
f 505 481 538
f 481 519 538
f 531 539 486
f 539 516 486
f 489 540 490
f 490 541 515
f 540 541 490
f 498 542 489
f 542 540 489
f 488 531 508
f 543 520 522
f 522 521 544
f 545 522 544
f 543 522 545
f 507 487 546
f 546 487 502
f 480 492 547
f 480 547 535
f 488 518 531
f 548 479 493
f 548 532 479
f 549 520 543
f 549 523 520
f 544 521 550
f 521 526 550
f 551 474 500
f 551 525 474
f 552 512 524
f 553 513 512
f 553 512 552
f 466 517 554
f 466 554 503
f 499 465 555
f 519 499 555
f 526 501 556
f 501 530 556
f 524 510 557
f 510 509 558
f 557 510 558
f 559 497 523
f 559 527 497
f 453 503 560
f 453 560 506
f 561 502 472
f 561 472 529
f 552 524 562
f 562 524 557
f 509 507 563
f 558 509 563
f 516 564 498
f 564 542 498
f 565 476 504
f 565 537 476
f 563 507 546
f 518 539 531
f 546 502 561
f 555 465 432
f 555 432 532
f 530 505 566
f 505 538 566
f 518 535 539
f 515 567 514
f 541 568 515
f 515 568 567
f 460 506 569
f 460 569 528
f 514 570 517
f 514 567 570
f 571 493 511
f 571 548 493
f 519 555 572
f 538 519 572
f 573 513 553
f 573 536 513
f 539 574 516
f 574 564 516
f 545 544 575
f 576 543 545
f 577 545 575
f 576 545 577
f 575 544 578
f 544 550 578
f 579 543 576
f 579 549 543
f 580 491 536
f 580 534 491
f 535 574 539
f 550 526 581
f 526 556 581
f 582 500 527
f 582 551 500
f 583 529 482
f 583 482 533
f 492 584 547
f 492 528 584
f 535 547 574
f 585 552 562
f 586 553 552
f 586 552 585
f 572 555 532
f 572 532 548
f 587 523 549
f 587 559 523
f 588 485 534
f 588 533 485
f 562 557 589
f 590 562 589
f 585 562 590
f 591 504 525
f 591 565 504
f 557 558 592
f 589 557 592
f 556 530 593
f 530 566 593
f 594 511 537
f 594 571 511
f 538 572 595
f 566 538 595
f 540 596 541
f 541 597 568
f 596 597 541
f 542 598 540
f 598 596 540
f 558 563 599
f 592 558 599
f 563 546 600
f 600 546 561
f 577 575 601
f 602 576 577
f 603 577 601
f 602 577 603
f 517 570 604
f 517 604 554
f 595 572 548
f 595 548 571
f 601 575 605
f 575 578 605
f 578 550 606
f 550 581 606
f 607 576 602
f 607 579 576
f 608 573 553
f 608 553 586
f 503 554 609
f 503 609 560
f 610 527 559
f 610 582 527
f 547 611 574
f 574 611 564
f 564 612 542
f 612 598 542
f 599 563 600
f 568 613 567
f 597 614 568
f 568 614 613
f 547 584 611
f 615 549 579
f 615 587 549
f 616 561 529
f 616 529 583
f 567 613 617
f 567 617 570
f 618 525 551
f 618 591 525
f 581 556 619
f 556 593 619
f 589 592 620
f 590 589 621
f 621 589 620
f 622 537 565
f 622 594 537
f 611 612 564
f 623 536 573
f 623 580 536
f 506 560 624
f 506 624 569
f 566 595 625
f 593 566 625
f 600 561 616
f 528 626 584
f 528 569 626
f 625 595 571
f 625 571 594
f 627 603 628
f 628 603 629
f 603 601 629
f 627 602 603
f 627 628 630
f 628 629 631
f 628 631 632
f 628 632 630
f 633 534 580
f 633 588 534
f 629 601 634
f 601 605 634
f 635 602 627
f 635 607 602
f 605 578 636
f 578 606 636
f 637 583 533
f 637 533 588
f 627 630 635
f 638 585 590
f 639 585 638
f 639 586 585
f 592 599 640
f 620 592 640
f 638 590 641
f 641 590 621
f 642 559 587
f 642 610 559
f 643 579 607
f 643 615 579
f 597 644 614
f 596 645 597
f 645 644 597
f 606 581 646
f 581 619 646
f 647 565 591
f 647 622 565
f 648 551 582
f 648 618 551
f 593 625 649
f 619 593 649
f 614 650 613
f 614 651 650
f 644 651 614
f 613 650 652
f 613 652 617
f 570 617 653
f 570 653 604
f 649 625 594
f 649 594 622
f 598 654 596
f 654 645 596
f 599 600 655
f 655 600 616
f 584 656 611
f 611 656 612
f 640 599 655
f 657 623 573
f 657 573 608
f 631 629 658
f 629 634 658
f 584 626 656
f 631 658 659
f 631 659 660
f 631 660 632
f 634 605 661
f 605 636 661
f 554 604 662
f 554 662 609
f 651 638 641
f 663 638 651
f 663 639 638
f 664 586 639
f 664 608 586
f 651 641 650
f 650 641 665
f 641 621 665
f 644 663 651
f 612 666 598
f 666 654 598
f 667 616 583
f 667 583 637
f 650 665 652
f 621 620 668
f 620 640 669
f 668 620 669
f 656 666 612
f 670 607 635
f 670 643 607
f 636 606 671
f 606 646 671
f 672 587 615
f 672 642 587
f 665 621 668
f 673 591 618
f 673 647 591
f 635 630 674
f 635 674 670
f 655 616 667
f 619 649 675
f 646 619 675
f 560 609 676
f 560 676 624
f 677 582 610
f 677 648 582
f 678 580 623
f 678 633 580
f 569 679 626
f 569 624 679
f 680 663 644
f 645 680 644
f 675 649 622
f 675 622 647
f 681 637 588
f 681 588 633
f 617 652 682
f 617 682 653
f 658 634 683
f 634 661 683
f 684 639 663
f 684 664 639
f 630 632 685
f 630 685 674
f 640 655 686
f 669 640 686
f 680 684 663
f 652 665 687
f 665 668 687
f 654 688 645
f 688 680 645
f 661 636 689
f 636 671 689
f 686 655 667
f 646 675 690
f 671 646 690
f 652 687 682
f 691 618 648
f 691 673 618
f 692 615 643
f 692 672 615
f 626 693 656
f 656 693 666
f 690 675 647
f 690 647 673
f 694 610 642
f 694 677 610
f 604 653 695
f 604 695 662
f 626 679 693
f 659 658 696
f 658 683 696
f 659 696 660
f 697 678 623
f 697 623 657
f 698 667 637
f 698 637 681
f 699 608 664
f 699 657 608
f 666 700 654
f 700 688 654
f 686 667 698
f 693 700 666
f 701 681 633
f 701 633 678
f 668 669 702
f 687 668 702
f 683 661 703
f 661 689 703
f 609 662 704
f 609 704 676
f 669 686 705
f 702 669 705
f 671 690 706
f 689 671 706
f 707 643 670
f 707 692 643
f 624 708 679
f 624 676 708
f 709 648 677
f 709 691 648
f 710 684 680
f 688 710 680
f 670 674 711
f 670 711 707
f 706 690 673
f 706 673 691
f 632 660 712
f 632 712 685
f 713 642 672
f 713 694 642
f 705 686 698
f 653 682 714
f 653 714 695
f 715 664 684
f 715 699 664
f 710 715 684
f 696 683 716
f 683 703 716
f 682 687 717
f 687 702 717
f 689 706 718
f 703 689 718
f 682 717 714
f 719 698 681
f 719 681 701
f 679 720 693
f 693 720 700
f 679 708 720
f 721 677 694
f 721 709 677
f 718 706 691
f 700 722 688
f 722 710 688
f 718 691 709
f 705 698 719
f 723 701 678
f 723 678 697
f 724 672 692
f 724 713 672
f 662 695 725
f 662 725 704
f 720 722 700
f 674 685 726
f 674 726 711
f 702 705 727
f 727 705 719
f 660 696 728
f 696 716 728
f 729 657 699
f 729 697 657
f 660 728 712
f 676 730 708
f 676 704 730
f 703 718 731
f 716 703 731
f 717 702 727
f 731 718 709
f 732 721 694
f 732 694 713
f 731 709 721
f 711 692 707
f 711 724 692
f 733 715 710
f 722 733 710
f 734 719 701
f 734 701 723
f 727 719 734
f 695 714 735
f 695 735 725
f 736 699 715
f 736 729 699
f 708 737 720
f 720 737 722
f 716 731 738
f 728 716 738
f 708 730 737
f 733 736 715
f 714 717 739
f 717 727 739
f 685 712 740
f 685 740 726
f 738 731 721
f 737 733 722
f 714 739 735
f 738 721 732
f 741 713 724
f 741 732 713
f 704 742 730
f 704 725 742
f 743 723 697
f 743 697 729
f 712 728 744
f 728 738 744
f 712 744 740
f 739 727 734
f 744 738 732
f 726 724 711
f 726 741 724
f 744 732 741
f 737 745 733
f 745 736 733
f 730 745 737
f 730 742 745
f 725 735 746
f 725 746 742
f 747 734 723
f 747 723 743
f 748 729 736
f 748 743 729
f 739 734 747
f 745 748 736
f 735 739 747
f 740 744 741
f 735 747 746
f 740 741 726
f 742 748 745
f 742 746 748
f 746 747 743
f 746 743 748
