# 
# Wavefront OBJ file
# Created with Kaydara FBX
# 
mtllib c:\users\tjvan\onedrive\documenten\fontys\minor\nx\.mtlmodels\femoral_vein.r.obj

g Femoral_vein_r
v -0.068660 0.557259 -0.016691
v -0.070255 0.555340 -0.017877
v -0.070020 0.555859 -0.019128
v -0.068368 0.556337 -0.015714
v -0.069897 0.554496 -0.016852
v -0.068380 0.557833 -0.017909
v -0.069257 0.555915 -0.020270
v -0.067582 0.555313 -0.015240
v -0.069044 0.553554 -0.016328
v -0.067603 0.557905 -0.019041
v -0.068169 0.555492 -0.020997
v -0.066513 0.554462 -0.015396
v -0.067924 0.552766 -0.016445
v -0.067075 0.558904 -0.015471
v -0.066838 0.557924 -0.014536
v -0.066755 0.559522 -0.016657
v -0.066105 0.556844 -0.014103
v -0.066538 0.557456 -0.019785
v -0.067048 0.554704 -0.021114
v -0.065447 0.554012 -0.016140
v -0.066836 0.552343 -0.017172
v -0.065961 0.559611 -0.017777
v -0.065074 0.555953 -0.014289
v -0.065329 0.559358 -0.013321
v -0.065533 0.560371 -0.014229
v -0.065469 0.556605 -0.019940
v -0.066195 0.553762 -0.020590
v -0.064671 0.554084 -0.017272
v -0.066073 0.552399 -0.018314
v -0.064623 0.558251 -0.012910
v -0.065183 0.561017 -0.015391
v -0.064908 0.559148 -0.018530
v -0.064021 0.555490 -0.015042
v -0.064683 0.555581 -0.019466
v -0.065838 0.552919 -0.019565
v -0.063606 0.557347 -0.013106
v -0.064391 0.554658 -0.018490
v -0.064370 0.561125 -0.016495
v -0.063855 0.560741 -0.012068
v -0.064053 0.561760 -0.012970
v -0.063877 0.558257 -0.018715
v -0.063228 0.555579 -0.016162
v -0.063146 0.559637 -0.011654
v -0.063687 0.562421 -0.014119
v -0.062550 0.556886 -0.013858
v -0.063314 0.560665 -0.017247
v -0.063145 0.557177 -0.018282
v -0.062907 0.556197 -0.017348
v -0.062116 0.558744 -0.011840
v -0.064398 0.786482 0.038941
v -0.064309 0.773642 0.037431
v -0.063945 0.773856 0.035696
v -0.063832 0.786282 0.040649
v -0.064174 0.797750 0.040192
v -0.064029 0.786679 0.037181
v -0.063600 0.797542 0.041921
v -0.062854 0.562548 -0.015207
v -0.063527 0.759289 0.033918
v -0.063750 0.773447 0.039117
v -0.063886 0.759086 0.035632
v -0.063801 0.797926 0.038405
v -0.063656 0.807600 0.041214
v -0.063075 0.807380 0.042964
v -0.062429 0.562174 -0.010774
v -0.062644 0.563175 -0.011693
v -0.061738 0.556994 -0.014962
v -0.062755 0.774033 0.034375
v -0.062824 0.786820 0.035838
v -0.062353 0.759472 0.032616
v -0.062297 0.559760 -0.017443
v -0.063781 0.757101 0.035433
v -0.063423 0.757257 0.033729
v -0.063336 0.758919 0.037297
v -0.061688 0.561102 -0.010332
v -0.062482 0.786131 0.041845
v -0.062234 0.797357 0.043129
v -0.063279 0.807751 0.039401
v -0.062581 0.798023 0.037040
v -0.063642 0.754695 0.035272
v -0.063284 0.754812 0.033579
v -0.063237 0.756987 0.037091
v -0.062418 0.773324 0.040300
v -0.062277 0.563837 -0.012841
v -0.062862 0.816185 0.042038
v -0.062275 0.815951 0.043810
v -0.063463 0.751880 0.035129
v -0.063107 0.751981 0.033448
v -0.063103 0.754626 0.036920
v -0.061041 0.558302 -0.012575
v -0.061693 0.807152 0.044184
v -0.062257 0.757414 0.032435
v -0.062930 0.751833 0.036764
v -0.063240 0.748678 0.034982
v -0.062887 0.748778 0.033315
v -0.062127 0.754946 0.032293
v -0.062022 0.758831 0.038469
v -0.061780 0.562105 -0.015942
v -0.061959 0.752109 0.032173
v -0.062484 0.816308 0.040200
v -0.062046 0.807794 0.038012
v -0.061387 0.557641 -0.016124
v -0.062712 0.748637 0.036604
v -0.062968 0.745110 0.034813
v -0.062619 0.745219 0.033160
v -0.061935 0.756947 0.038258
v -0.061592 0.558653 -0.017032
v -0.060622 0.560246 -0.010485
v -0.061749 0.748910 0.032050
v -0.061814 0.754624 0.038080
v -0.060881 0.815667 0.045040
v -0.062444 0.745067 0.036422
v -0.062642 0.741199 0.034601
v -0.062297 0.741324 0.032962
v -0.061652 0.751851 0.037916
v -0.061491 0.745364 0.031906
v -0.061426 0.563982 -0.013913
v -0.061810 0.823660 0.042698
v -0.061218 0.823405 0.044490
v -0.061059 0.774124 0.033823
v -0.061105 0.786867 0.035273
v -0.060680 0.759587 0.032074
v -0.061445 0.748667 0.037748
v -0.061058 0.563759 -0.009434
v -0.061310 0.564718 -0.010388
v -0.062121 0.741147 0.036196
v -0.061917 0.737113 0.032703
v -0.062257 0.736967 0.034326
v -0.061180 0.741487 0.031720
v -0.060841 0.798014 0.036461
v -0.060209 0.558428 -0.013663
v -0.060710 0.786072 0.042210
v -0.060440 0.797245 0.043493
v -0.061242 0.816286 0.038787
v -0.061432 0.823750 0.040833
v -0.061187 0.745101 0.037556
v -0.060267 0.562747 -0.008942
v -0.060670 0.773306 0.040665
v -0.060598 0.757531 0.031897
v -0.060750 0.561213 -0.016128
v -0.060811 0.737299 0.031472
v -0.060955 0.565366 -0.011549
v -0.059816 0.823054 0.045730
v -0.061740 0.736900 0.035907
v -0.061475 0.732608 0.032362
v -0.061809 0.732436 0.033970
v -0.060481 0.755060 0.031760
v -0.059880 0.806975 0.044546
v -0.059515 0.559836 -0.011191
v -0.060875 0.741181 0.037321
v -0.060326 0.752228 0.031644
v -0.060288 0.807717 0.037420
v -0.060297 0.758847 0.038833
v -0.060130 0.749040 0.031526
v -0.060225 0.756990 0.038621
v -0.060380 0.732820 0.031144
v -0.061295 0.732350 0.035536
v -0.060965 0.727829 0.031920
v -0.061293 0.727628 0.033511
v -0.060119 0.754688 0.038442
v -0.060516 0.830173 0.043222
v -0.059922 0.829891 0.045035
v -0.060320 0.563572 -0.014619
v -0.059843 0.559090 -0.014812
v -0.060504 0.736930 0.037023
v -0.059885 0.745507 0.031387
v -0.059148 0.561952 -0.009044
v -0.059052 0.815411 0.045399
v -0.059971 0.751931 0.038276
v -0.060041 0.560109 -0.015714
v -0.059589 0.741646 0.031206
v -0.059883 0.728070 0.030715
v -0.059778 0.748759 0.038106
v -0.060088 0.565531 -0.012604
v -0.060186 0.823651 0.039396
v -0.060141 0.830228 0.041331
v -0.059752 0.565602 -0.008040
v -0.060050 0.566496 -0.009043
v -0.060780 0.727520 0.035062
v -0.060382 0.722798 0.031357
v -0.060704 0.722564 0.032931
v -0.060068 0.732374 0.036642
v -0.059469 0.816125 0.038179
v -0.058518 0.829458 0.046284
v -0.059235 0.737475 0.030964
v -0.059535 0.745203 0.037911
v -0.059311 0.774106 0.034188
v -0.059333 0.786807 0.035638
v -0.058902 0.564674 -0.007485
v -0.058956 0.759603 0.032438
v -0.058665 0.559981 -0.012263
v -0.059713 0.567118 -0.010224
v -0.059313 0.723071 0.030166
v -0.059238 0.741291 0.037674
v -0.057978 0.822700 0.046086
v -0.059047 0.797903 0.036825
v -0.058820 0.733015 0.030642
v -0.060193 0.722431 0.034466
v -0.059564 0.727535 0.036158
v -0.059253 0.562717 -0.014772
v -0.059722 0.717537 0.030654
v -0.060037 0.717267 0.032209
v -0.058991 0.786118 0.041645
v -0.058700 0.797236 0.042914
v -0.058888 0.757574 0.032261
v -0.058973 0.773397 0.040113
v -0.058002 0.561588 -0.009712
v -0.058785 0.755124 0.032122
v -0.058997 0.835867 0.043643
v -0.058404 0.835551 0.045476
v -0.058881 0.737049 0.037373
v -0.058646 0.752308 0.032004
v -0.058121 0.806898 0.043953
v -0.058667 0.717843 0.029478
v -0.058337 0.728286 0.030219
v -0.058942 0.565167 -0.013272
v -0.058463 0.749132 0.031884
v -0.058624 0.758962 0.038291
v -0.058475 0.807540 0.037781
v -0.057725 0.563961 -0.007525
v -0.058565 0.757106 0.038084
v -0.058298 0.560644 -0.013411
v -0.059527 0.717106 0.033727
v -0.058985 0.722435 0.035551
v -0.058897 0.830041 0.039869
v -0.058405 0.823390 0.038771
v -0.058627 0.835888 0.041726
v -0.058233 0.745609 0.031742
v -0.058472 0.754802 0.037909
v -0.058834 0.567299 -0.011266
v -0.058459 0.732500 0.036990
v -0.058513 0.561645 -0.014330
v -0.058522 0.567808 -0.006586
v -0.058864 0.568622 -0.007641
v -0.058981 0.712074 0.029792
v -0.059289 0.711771 0.031328
v -0.058338 0.752050 0.037748
v -0.057008 0.835024 0.046734
v -0.057784 0.723309 0.029678
v -0.057951 0.741757 0.031559
v -0.057279 0.815250 0.044791
v -0.056680 0.828990 0.046635
v -0.058159 0.748888 0.037582
v -0.057614 0.566982 -0.005963
v -0.058549 0.569205 -0.008847
v -0.057939 0.712410 0.028631
v -0.057612 0.737594 0.031315
v -0.057969 0.727668 0.036504
v -0.058779 0.711583 0.032828
v -0.058328 0.717099 0.034801
v -0.057930 0.745346 0.037393
v -0.057135 0.561753 -0.010768
v -0.057640 0.815868 0.038538
v -0.057978 0.773983 0.035371
v -0.057983 0.786657 0.036834
v -0.057154 0.718105 0.028997
v -0.057642 0.759516 0.033610
v -0.058084 0.705542 0.028621
v -0.058385 0.705215 0.030138
v -0.057823 0.564372 -0.013374
v -0.057211 0.733142 0.030990
v -0.057647 0.741450 0.037160
v -0.056539 0.563655 -0.008150
v -0.057680 0.797718 0.038033
v -0.056198 0.822439 0.045461
v -0.057054 0.705894 0.027474
v -0.057405 0.722575 0.035895
v -0.057786 0.786259 0.040302
v -0.057784 0.773574 0.038792
v -0.057480 0.797333 0.041549
v -0.057275 0.840879 0.043990
v -0.056688 0.840521 0.045842
v -0.057586 0.757534 0.033428
v -0.057647 0.566993 -0.011892
v -0.056384 0.566365 -0.005940
v -0.057305 0.737225 0.036865
v -0.057496 0.755121 0.033283
v -0.057394 0.835606 0.040239
v -0.057116 0.829664 0.039228
v -0.057760 0.571209 -0.006171
v -0.057380 0.570485 -0.005065
v -0.057661 0.569402 -0.009880
v -0.056743 0.728420 0.030566
v -0.057876 0.705000 0.031620
v -0.057589 0.711559 0.033890
v -0.057368 0.752326 0.033156
v -0.056889 0.806941 0.042564
v -0.056780 0.562401 -0.011928
v -0.056442 0.712689 0.028157
v -0.057196 0.749161 0.033027
v -0.057451 0.759146 0.036989
v -0.056911 0.840868 0.042047
v -0.057400 0.757264 0.036790
v -0.057464 0.571748 -0.007402
v -0.057032 0.563360 -0.012882
v -0.056425 0.569769 -0.004379
v -0.055182 0.834427 0.047080
v -0.056899 0.732696 0.036488
v -0.056977 0.745643 0.032877
v -0.057315 0.754936 0.036624
v -0.057093 0.807312 0.039001
v -0.056568 0.823036 0.039126
v -0.055309 0.839891 0.047109
v -0.057273 0.699338 0.027400
v -0.057569 0.698990 0.028900
v -0.056762 0.717245 0.035143
v -0.056203 0.723449 0.030022
v -0.057190 0.752177 0.036472
v -0.056705 0.741790 0.032684
v -0.057021 0.749020 0.036317
v -0.056037 0.815228 0.043378
v -0.056253 0.699699 0.026266
v -0.055659 0.563836 -0.009193
v -0.056424 0.727884 0.036008
v -0.057420 0.773788 0.037057
v -0.057091 0.759348 0.035275
v -0.057417 0.786456 0.038541
v -0.054901 0.828612 0.045994
v -0.056376 0.737624 0.032430
v -0.055570 0.706176 0.027005
v -0.056802 0.745491 0.036139
v -0.056693 0.704955 0.032669
v -0.057061 0.698748 0.030363
v -0.056471 0.566280 -0.011932
v -0.055588 0.718252 0.029339
v -0.057106 0.797509 0.039763
v -0.056752 0.574374 -0.004625
v -0.056342 0.573738 -0.003475
v -0.055161 0.566123 -0.006523
v -0.056438 0.569160 -0.010463
v -0.056571 0.571958 -0.008428
v -0.056530 0.741613 0.035918
v -0.057042 0.757420 0.035085
v -0.056246 0.815585 0.039768
v -0.055151 0.569253 -0.004299
v -0.055985 0.733165 0.032096
v -0.056037 0.711707 0.034229
v -0.056958 0.755052 0.034930
v -0.056545 0.693379 0.026118
v -0.056835 0.693011 0.027600
v -0.056835 0.752279 0.034792
v -0.056512 0.807092 0.040752
v -0.056471 0.574866 -0.005880
v -0.055876 0.722814 0.035406
v -0.055627 0.835099 0.039580
v -0.055696 0.840491 0.040536
v -0.055352 0.573131 -0.002736
v -0.056668 0.749120 0.034650
v -0.056199 0.737411 0.035635
v -0.055535 0.693747 0.024997
v -0.054952 0.822340 0.044024
v -0.055378 0.845334 0.044294
v -0.054803 0.844929 0.046166
v -0.055526 0.728435 0.031661
v -0.056453 0.745600 0.034486
v -0.054890 0.712836 0.028497
v -0.055323 0.564458 -0.010374
v -0.055279 0.829196 0.039579
v -0.056328 0.692741 0.029043
v -0.055885 0.698677 0.031398
v -0.054782 0.699976 0.025801
v -0.055620 0.565352 -0.011376
v -0.053507 0.839156 0.047450
v -0.056185 0.741738 0.034279
v -0.055020 0.845300 0.042327
v -0.055804 0.732908 0.035270
v -0.055659 0.815350 0.041540
v -0.055894 0.687589 0.024765
v -0.056179 0.687202 0.026227
v -0.055857 0.578225 -0.003002
v -0.055428 0.577673 -0.001816
v -0.055249 0.717507 0.034662
v -0.054996 0.723454 0.031107
v -0.055859 0.737557 0.034011
v -0.055154 0.705091 0.033004
v -0.053415 0.833919 0.046421
v -0.053449 0.844194 0.047441
v -0.055575 0.575084 -0.006902
v -0.055320 0.571781 -0.008974
v -0.055165 0.822685 0.040366
v -0.054274 0.566320 -0.007556
v -0.054895 0.687964 0.023655
v -0.055208 0.568543 -0.010440
v -0.055587 0.578672 -0.004276
v -0.054030 0.706313 0.027340
v -0.054047 0.572714 -0.002608
v -0.055342 0.728125 0.034803
v -0.053900 0.569077 -0.004845
v -0.055470 0.733080 0.033662
v -0.054415 0.577166 -0.001035
v -0.055673 0.686904 0.027651
v -0.055159 0.692643 0.030062
v -0.054076 0.694017 0.024534
v -0.054389 0.718244 0.030413
v -0.053657 0.828426 0.044532
v -0.055318 0.681893 0.023328
v -0.055599 0.681487 0.024772
v -0.054539 0.711986 0.033756
v -0.054574 0.822430 0.042159
v -0.055013 0.728327 0.033212
v -0.054328 0.682271 0.022230
v -0.054357 0.698796 0.031726
v -0.054807 0.723087 0.034215
v -0.055096 0.582877 -0.001299
v -0.054655 0.582399 -0.000085
v -0.053953 0.839850 0.039860
v -0.053825 0.844837 0.040792
v -0.055095 0.681164 0.026175
v -0.054512 0.686778 0.028654
v -0.053958 0.566904 -0.008762
v -0.054301 0.567717 -0.009817
v -0.053802 0.834502 0.039926
v -0.054813 0.676213 0.021797
v -0.055090 0.675793 0.023223
v -0.054689 0.578896 -0.005295
v -0.054833 0.583281 -0.002588
v -0.053700 0.712813 0.029559
v -0.054303 0.574969 -0.007417
v -0.053254 0.700095 0.026130
v -0.053448 0.688225 0.023195
v -0.054485 0.723321 0.032642
v -0.053626 0.581977 0.000727
v -0.053345 0.849353 0.044586
v -0.052786 0.848899 0.046477
v -0.053088 0.576838 -0.000869
v -0.054046 0.571265 -0.008894
v -0.053833 0.676593 0.020711
v -0.051680 0.843326 0.047778
v -0.053876 0.828762 0.040828
v -0.054194 0.717814 0.033486
v -0.051764 0.838515 0.046775
v -0.053007 0.569286 -0.005871
v -0.052776 0.572599 -0.003123
v -0.053642 0.692741 0.030384
v -0.053670 0.705374 0.032535
v -0.054519 0.587874 0.000295
v -0.054068 0.587457 0.001532
v -0.054588 0.675445 0.024606
v -0.054376 0.670473 0.020161
v -0.054649 0.670042 0.021570
v -0.053941 0.681009 0.027162
v -0.052987 0.849310 0.042595
v -0.053879 0.718084 0.031931
v -0.053283 0.828481 0.042641
v -0.052895 0.682522 0.021773
v -0.052847 0.706268 0.028389
v -0.052182 0.833638 0.044934
v -0.053935 0.583504 -0.003608
v -0.054260 0.588239 -0.001011
v -0.053405 0.670853 0.019086
v -0.051461 0.848068 0.047761
v -0.052560 0.694116 0.024856
v -0.053405 0.578836 -0.005788
v -0.053029 0.587100 0.002369
v -0.054150 0.669674 0.022933
v -0.054003 0.664598 0.018409
v -0.054272 0.664159 0.019801
v -0.053443 0.675264 0.025576
v -0.053497 0.712322 0.032595
v -0.054062 0.593178 0.001784
v -0.053606 0.592810 0.003039
v -0.053007 0.686855 0.028968
v -0.052287 0.581723 0.000921
v -0.053190 0.712624 0.031059
v -0.053041 0.664975 0.017344
v -0.052886 0.699073 0.031261
v -0.052411 0.676831 0.020255
v -0.053091 0.570550 -0.008208
v -0.052998 0.574552 -0.007289
v -0.052711 0.569825 -0.007102
v -0.053777 0.663774 0.021146
v -0.053690 0.658512 0.016531
v -0.053957 0.658068 0.017907
v -0.053805 0.593510 0.000464
v -0.053360 0.588454 -0.002037
v -0.053013 0.669469 0.023887
v -0.052559 0.592503 0.003893
v -0.053715 0.598666 0.003167
v -0.053255 0.598335 0.004436
v -0.051943 0.688302 0.023509
v -0.051804 0.576778 -0.001361
v -0.052079 0.700024 0.027164
v -0.052737 0.658884 0.015475
v -0.053465 0.657672 0.019234
v -0.053699 0.651696 0.015875
v -0.053436 0.652141 0.014514
v -0.052114 0.844068 0.040100
v -0.052151 0.839115 0.040202
v -0.052644 0.583486 -0.004085
v -0.052447 0.681065 0.027467
v -0.051880 0.572817 -0.004145
v -0.052405 0.833974 0.041184
v -0.051996 0.671079 0.018631
v -0.051810 0.848780 0.041037
v -0.053459 0.598973 0.001836
v -0.052904 0.593716 -0.000568
v -0.052649 0.663548 0.022084
v -0.053465 0.604225 0.004446
v -0.053002 0.603923 0.005726
v -0.053496 0.644966 0.013697
v -0.053235 0.645410 0.012349
v -0.053212 0.651291 0.017186
v -0.052491 0.652506 0.013468
v -0.052338 0.706053 0.029871
v -0.052640 0.705726 0.031389
v -0.051812 0.833658 0.043017
v -0.052184 0.693011 0.029922
v -0.051679 0.586899 0.002580
v -0.052202 0.598068 0.005302
v -0.053344 0.637803 0.011359
v -0.053085 0.638211 0.010015
v -0.053013 0.644556 0.014992
v -0.049968 0.842557 0.047086
v -0.053210 0.604512 0.003106
v -0.052556 0.599173 0.000799
v -0.053299 0.609742 0.005625
v -0.052834 0.609462 0.006913
v -0.052300 0.645767 0.011311
v -0.052348 0.657428 0.020157
v -0.051961 0.675297 0.025873
v -0.051401 0.682577 0.022078
v -0.049725 0.847083 0.048094
v -0.052079 0.578508 -0.005621
v -0.051644 0.665188 0.016891
v -0.050548 0.838138 0.045263
v -0.052062 0.588462 -0.002507
v -0.053304 0.635705 0.010783
v -0.053044 0.636046 0.009425
v -0.052867 0.637424 0.012651
v -0.051237 0.853035 0.044893
v -0.050682 0.852556 0.046805
v -0.053043 0.610015 0.004277
v -0.053203 0.615104 0.006706
v -0.052736 0.614841 0.008002
v -0.053251 0.632783 0.010132
v -0.052992 0.633075 0.008767
v -0.052828 0.635388 0.012088
v -0.051944 0.603688 0.006602
v -0.053202 0.629151 0.009403
v -0.052943 0.629421 0.008038
v -0.052778 0.632512 0.011443
v -0.051391 0.694018 0.025875
v -0.052158 0.638537 0.008978
v -0.052304 0.604708 0.002065
v -0.053164 0.620201 0.007693
v -0.052947 0.615368 0.005352
v -0.052695 0.619949 0.008996
v -0.053168 0.624920 0.008591
v -0.052910 0.625181 0.007228
v -0.052730 0.628898 0.010713
v -0.052104 0.651033 0.018096
v -0.052907 0.620460 0.006335
v -0.052698 0.624672 0.009898
v -0.052008 0.573945 -0.006550
v -0.050996 0.581705 0.000444
v -0.052119 0.636320 0.008378
v -0.052134 0.610208 0.003232
v -0.052069 0.633311 0.007714
v -0.051353 0.659085 0.015022
v -0.051201 0.592340 0.004116
v -0.051599 0.573309 -0.005399
v -0.051772 0.609252 0.007798
v -0.052023 0.629636 0.006983
v -0.051916 0.644289 0.015889
v -0.051543 0.669480 0.024175
v -0.051561 0.687116 0.028508
v -0.050881 0.852981 0.042878
v -0.052035 0.615562 0.004304
v -0.051993 0.625384 0.006175
v -0.051600 0.593741 -0.001035
v -0.051992 0.620657 0.005284
v -0.050929 0.676865 0.020552
v -0.051866 0.699434 0.030127
v -0.051780 0.637174 0.013544
v -0.051570 0.699782 0.028627
v -0.051670 0.614650 0.008893
v -0.051746 0.635181 0.012989
v -0.050906 0.577002 -0.002381
v -0.051699 0.632335 0.012348
v -0.049367 0.851672 0.048100
v -0.051626 0.619771 0.009893
v -0.051654 0.628730 0.011618
v -0.051120 0.652694 0.013016
v -0.051625 0.624503 0.010800
v -0.051305 0.583232 -0.003892
v -0.051192 0.663540 0.022364
v -0.050838 0.597936 0.005534
v -0.051247 0.599212 0.000334
v -0.050782 0.688175 0.024512
v -0.050941 0.645943 0.010861
v -0.051013 0.681315 0.027010
v -0.050526 0.671091 0.018919
v -0.050772 0.838485 0.041468
v -0.050903 0.657403 0.020429
v -0.050990 0.604759 0.001602
v -0.050812 0.638695 0.008527
v -0.050380 0.586907 0.002110
v -0.050575 0.603581 0.006841
v -0.051174 0.693380 0.028800
v -0.050185 0.838127 0.043321
v -0.050777 0.636454 0.007921
v -0.050344 0.843200 0.040437
v -0.050816 0.610271 0.002770
v -0.050731 0.633425 0.007255
v -0.050673 0.650993 0.018360
v -0.050128 0.847905 0.040330
v -0.051065 0.578001 -0.004840
v -0.050712 0.588261 -0.002296
v -0.050688 0.629738 0.006523
v -0.050884 0.693748 0.027319
v -0.050713 0.615634 0.003842
v -0.050662 0.625476 0.005714
v -0.050666 0.620739 0.004822
v -0.050187 0.665180 0.017170
v -0.050539 0.675536 0.025417
v -0.050398 0.609166 0.008042
v -0.050247 0.682422 0.023065
v -0.050498 0.644236 0.016147
v -0.050636 0.577449 -0.003654
v -0.050098 0.581928 -0.000576
v -0.049711 0.852407 0.041299
v -0.050292 0.614581 0.009141
v -0.050376 0.637121 0.013798
v -0.048774 0.842094 0.045551
v -0.050345 0.635139 0.013246
v -0.050303 0.632298 0.012606
v -0.049897 0.592365 0.003649
v -0.050243 0.619716 0.010144
v -0.048044 0.846208 0.047387
v -0.050263 0.628692 0.011874
v -0.049908 0.659059 0.015294
v -0.050238 0.624458 0.011054
v -0.050242 0.593579 -0.000812
v -0.050561 0.687490 0.027399
v -0.050134 0.669707 0.023721
v -0.047643 0.850620 0.048433
v -0.049784 0.676683 0.021522
v -0.050276 0.687878 0.025936
v -0.049688 0.652654 0.013280
v -0.050277 0.582810 -0.003079
v -0.049883 0.599080 0.000566
v -0.050648 0.854040 0.044967
v -0.050070 0.853596 0.046889
v -0.049529 0.597976 0.005069
v -0.049795 0.663753 0.021910
v -0.049523 0.645890 0.011118
v -0.050024 0.681693 0.025912
v -0.049481 0.587122 0.001084
v -0.049621 0.604653 0.001840
v -0.049408 0.638641 0.008781
v -0.049389 0.670885 0.019873
v -0.049835 0.582332 -0.001866
v -0.049519 0.657603 0.019976
v -0.050313 0.853948 0.042942
v -0.049261 0.603633 0.006378
v -0.049442 0.610185 0.003014
v -0.049377 0.636412 0.008178
v -0.049335 0.633389 0.007512
v -0.049743 0.682099 0.024468
v -0.048991 0.842465 0.041712
v -0.049297 0.629700 0.006779
v -0.049672 0.587904 -0.001460
v -0.049334 0.615565 0.004090
v -0.049283 0.620684 0.005074
v -0.049275 0.625431 0.005968
v -0.049301 0.651181 0.017908
v -0.048733 0.852735 0.048191
v -0.050147 0.854930 0.044998
v -0.049524 0.854558 0.046929
v -0.049079 0.609228 0.007579
v -0.049559 0.675916 0.024331
v -0.048416 0.842060 0.043584
v -0.049059 0.664954 0.018108
v -0.049139 0.644412 0.015696
v -0.048969 0.614653 0.008679
v -0.048996 0.592571 0.002617
v -0.049030 0.637278 0.013347
v -0.049003 0.635273 0.012790
v -0.048392 0.846920 0.040663
v -0.048965 0.632413 0.012147
v -0.049848 0.854775 0.042962
v -0.049156 0.853344 0.041355
v -0.048917 0.619797 0.009683
v -0.048928 0.628794 0.011413
v -0.049195 0.593272 0.000042
v -0.048908 0.624549 0.010593
v -0.049282 0.676336 0.022905
v -0.048791 0.658816 0.016217
v -0.049694 0.855764 0.044986
v -0.049020 0.855476 0.046923
v -0.049163 0.670086 0.022645
v -0.048042 0.851468 0.040578
v -0.049222 0.587487 -0.000222
v -0.048145 0.853757 0.048238
v -0.046866 0.845678 0.045829
v -0.048581 0.652397 0.014190
v -0.048625 0.598175 0.004032
v -0.048830 0.598813 0.001433
v -0.049438 0.855531 0.042944
v -0.048706 0.854133 0.041368
v -0.048833 0.664130 0.020845
v -0.048890 0.670518 0.021237
v -0.045972 0.849681 0.047713
v -0.048425 0.645623 0.012015
v -0.049278 0.856557 0.044930
v -0.048548 0.856364 0.046867
v -0.048563 0.604417 0.002717
v -0.048355 0.603828 0.005336
v -0.048321 0.638391 0.009674
v -0.048566 0.657975 0.018921
v -0.047596 0.854743 0.048236
v -0.048739 0.592903 0.001297
v -0.048380 0.609974 0.003898
v -0.049070 0.856232 0.042887
v -0.048319 0.854838 0.041345
v -0.048294 0.636204 0.009079
v -0.048564 0.664570 0.019454
v -0.048256 0.633212 0.008418
v -0.046997 0.851687 0.048525
v -0.048268 0.615374 0.004982
v -0.048221 0.629532 0.007684
v -0.048202 0.625261 0.006870
v -0.048357 0.651546 0.016862
v -0.048213 0.620506 0.005971
v -0.048884 0.857325 0.044829
v -0.048097 0.857232 0.046760
v -0.048171 0.609422 0.006534
v -0.047486 0.852390 0.040630
v -0.048204 0.644770 0.014658
v -0.048058 0.614847 0.007631
v -0.048729 0.856898 0.042792
v -0.047980 0.855476 0.041286
v -0.048299 0.658419 0.017545
v -0.048103 0.637605 0.012310
v -0.047077 0.855704 0.048180
v -0.048369 0.598482 0.002701
v -0.048078 0.635547 0.011742
v -0.047068 0.846089 0.041947
v -0.048002 0.619994 0.008632
v -0.048042 0.632648 0.011093
v -0.048008 0.629009 0.010359
v -0.047990 0.624752 0.009540
v -0.048502 0.858080 0.044679
v -0.047658 0.858090 0.046596
v -0.048093 0.651991 0.015501
v -0.046509 0.845635 0.043838
v -0.046380 0.852743 0.048575
v -0.048402 0.857547 0.042655
v -0.047675 0.856067 0.041195
v -0.047030 0.853176 0.040641
v -0.048099 0.604115 0.003996
v -0.047943 0.645213 0.013311
v -0.046580 0.856646 0.048067
v -0.048120 0.858836 0.044476
v -0.047222 0.858940 0.046375
v -0.047844 0.638012 0.010966
v -0.046318 0.850415 0.040910
v -0.048074 0.858197 0.042473
v -0.047386 0.856632 0.041068
v -0.047915 0.609695 0.005187
v -0.047819 0.635888 0.010384
v -0.046639 0.853872 0.040616
v -0.047783 0.632941 0.009728
v -0.047801 0.615111 0.006278
v -0.047750 0.629279 0.008994
v -0.047745 0.620254 0.007273
v -0.047732 0.625013 0.008177
v -0.045804 0.853762 0.048573
v -0.047727 0.859600 0.044219
v -0.046782 0.859788 0.046097
v -0.046097 0.857572 0.047893
v -0.047733 0.858865 0.042241
v -0.047098 0.857196 0.040902
v -0.044802 0.849108 0.046134
v -0.046302 0.854491 0.040556
v -0.047316 0.860382 0.043907
v -0.047366 0.859563 0.041954
v -0.046796 0.857779 0.040692
v -0.046330 0.860637 0.045765
v -0.046003 0.855053 0.040465
v -0.045622 0.858483 0.047660
v -0.045326 0.850734 0.047802
v -0.045259 0.854754 0.048516
v -0.045752 0.851342 0.040964
v -0.045725 0.855582 0.040342
v -0.046875 0.861187 0.043539
v -0.046962 0.860300 0.041609
v -0.046466 0.858399 0.040428
v -0.045858 0.861492 0.045382
v -0.045150 0.859378 0.047371
v -0.045453 0.856100 0.040185
v -0.045003 0.849531 0.042206
v -0.044738 0.855722 0.048400
v -0.045267 0.852161 0.040976
v -0.044703 0.851787 0.047849
v -0.046397 0.862024 0.043118
v -0.046513 0.861085 0.041205
v -0.046096 0.859068 0.040107
v -0.044447 0.849053 0.044119
v -0.045357 0.862362 0.044951
v -0.045169 0.856634 0.039987
v -0.044673 0.860260 0.047030
v -0.044848 0.852890 0.040952
v -0.044237 0.856667 0.048223
v -0.045954 0.862763 0.042719
v -0.045676 0.859795 0.039725
v -0.046090 0.861789 0.040817
v -0.044859 0.857202 0.039740
v -0.044901 0.863118 0.044550
v -0.044123 0.852796 0.047844
v -0.044184 0.861133 0.046643
v -0.044483 0.853541 0.040892
v -0.043748 0.857587 0.047988
v -0.044509 0.857821 0.039438
v -0.045871 0.862901 0.042645
v -0.046011 0.861922 0.040744
v -0.045272 0.860459 0.039352
v -0.044161 0.854130 0.040798
v -0.043718 0.861965 0.043410
v -0.045197 0.860584 0.039282
v -0.043908 0.860628 0.040815
v -0.044169 0.850131 0.046215
v -0.044816 0.863259 0.044474
v -0.043127 0.862901 0.045743
v -0.043672 0.862008 0.046214
v -0.043580 0.853769 0.047785
v -0.044415 0.850481 0.042266
v -0.043865 0.854676 0.040672
v -0.044108 0.858501 0.039074
v -0.043268 0.858481 0.047699
v -0.043579 0.855204 0.040513
v -0.043213 0.862760 0.045817
v -0.043562 0.851145 0.046254
v -0.043889 0.851360 0.042285
v -0.043067 0.854709 0.047670
v -0.043720 0.859128 0.038717
v -0.043647 0.859246 0.038650
v -0.043288 0.855736 0.040316
v -0.042788 0.859351 0.047363
v -0.042974 0.856294 0.040073
v -0.043426 0.852156 0.042263
v -0.043835 0.850039 0.044189
v -0.042577 0.855616 0.047497
v -0.043006 0.852103 0.046244
v -0.042300 0.860205 0.046984
v -0.042626 0.856893 0.039779
v -0.043015 0.852880 0.042202
v -0.042104 0.856491 0.047270
v -0.041795 0.861056 0.046567
v -0.043264 0.850989 0.044218
v -0.042645 0.853543 0.042105
v -0.042492 0.853012 0.046183
v -0.042230 0.857549 0.039427
v -0.040997 0.860540 0.043945
v -0.041186 0.859202 0.041349
v -0.042304 0.854159 0.041970
v -0.041642 0.857335 0.046994
v -0.041849 0.858153 0.039082
v -0.041257 0.861922 0.046110
v -0.041342 0.861785 0.046182
v -0.041777 0.858267 0.039017
v -0.042014 0.853876 0.046071
v -0.041979 0.854747 0.041799
v -0.042751 0.851869 0.044201
v -0.041655 0.855327 0.041589
v -0.041182 0.858154 0.046674
v -0.041563 0.854700 0.045908
v -0.042286 0.852686 0.044139
v -0.041317 0.855916 0.041338
v -0.040714 0.858958 0.046314
v -0.041861 0.853449 0.044033
v -0.040952 0.856534 0.041040
v -0.041131 0.855488 0.045697
v -0.041464 0.854166 0.043884
v -0.040227 0.859762 0.045916
v -0.040546 0.857194 0.040690
v -0.040708 0.856247 0.045442
v -0.041085 0.854850 0.043694
v -0.040160 0.857796 0.040350
v -0.039789 0.860454 0.045547
v -0.039032 0.858267 0.042115
v -0.040088 0.857908 0.040286
v -0.040712 0.855513 0.043465
v -0.040285 0.856988 0.045146
v -0.039707 0.860584 0.045478
v -0.040333 0.856170 0.043194
v -0.039850 0.857725 0.044810
v -0.038894 0.859246 0.044015
v -0.039935 0.856838 0.042881
v -0.039391 0.858471 0.044434
v -0.039506 0.857532 0.042523
v -0.038972 0.859123 0.044082
v -0.039107 0.858151 0.042180
usemtl Femoral_vein_rMaterial0
f 1 2 3
f 4 5 2
f 4 2 1
f 6 3 7
f 1 3 6
f 8 9 5
f 8 5 4
f 6 7 10
f 10 7 11
f 12 13 9
f 12 9 8
f 14 1 6
f 15 4 1
f 15 1 14
f 16 6 10
f 14 6 16
f 17 8 4
f 17 4 15
f 10 11 18
f 18 11 19
f 20 21 13
f 20 13 12
f 16 10 22
f 22 10 18
f 23 12 8
f 23 8 17
f 24 15 14
f 25 14 16
f 24 14 25
f 18 19 26
f 26 19 27
f 28 29 21
f 28 21 20
f 30 17 15
f 30 15 24
f 31 16 22
f 25 16 31
f 22 18 32
f 32 18 26
f 33 20 12
f 33 12 23
f 34 27 35
f 26 27 34
f 36 23 17
f 36 17 30
f 37 35 29
f 37 29 28
f 31 22 38
f 38 22 32
f 34 35 37
f 39 24 25
f 40 25 31
f 39 25 40
f 32 26 41
f 41 26 34
f 42 28 20
f 42 20 33
f 43 30 24
f 43 24 39
f 44 31 38
f 40 31 44
f 45 33 23
f 45 23 36
f 38 32 46
f 46 32 41
f 47 34 37
f 41 34 47
f 48 37 28
f 48 28 42
f 49 36 30
f 49 30 43
f 47 37 48
f 50 51 52
f 53 51 50
f 54 50 55
f 56 50 54
f 50 52 55
f 56 53 50
f 44 38 57
f 57 38 46
f 51 58 52
f 59 60 51
f 51 60 58
f 53 59 51
f 54 55 61
f 62 54 61
f 63 54 62
f 63 56 54
f 64 39 40
f 65 40 44
f 64 40 65
f 66 42 33
f 66 33 45
f 55 52 67
f 61 55 68
f 55 67 68
f 52 58 69
f 52 69 67
f 46 41 70
f 70 41 47
f 60 71 72
f 73 71 60
f 59 73 60
f 60 72 58
f 74 43 39
f 74 39 64
f 75 59 53
f 76 53 56
f 76 75 53
f 62 61 77
f 77 61 78
f 61 68 78
f 71 79 80
f 81 79 71
f 71 80 72
f 73 81 71
f 82 73 59
f 75 82 59
f 83 44 57
f 65 44 83
f 84 62 77
f 85 63 62
f 85 62 84
f 79 86 87
f 88 86 79
f 79 87 80
f 81 88 79
f 89 45 36
f 89 36 49
f 90 56 63
f 90 76 56
f 58 72 91
f 58 91 69
f 92 93 86
f 86 93 94
f 86 94 87
f 88 92 86
f 72 80 95
f 72 95 91
f 96 81 73
f 82 96 73
f 57 46 97
f 97 46 70
f 80 87 98
f 80 98 95
f 84 77 99
f 77 78 100
f 99 77 100
f 101 48 42
f 101 42 66
f 102 103 93
f 93 103 104
f 92 102 93
f 93 104 94
f 105 88 81
f 96 105 81
f 106 47 48
f 70 47 106
f 107 49 43
f 107 43 74
f 87 94 108
f 87 108 98
f 109 92 88
f 105 109 88
f 110 63 85
f 110 90 63
f 102 111 103
f 111 112 103
f 103 112 113
f 103 113 104
f 114 102 92
f 109 114 92
f 106 48 101
f 94 104 115
f 94 115 108
f 83 57 116
f 116 57 97
f 117 84 99
f 118 85 84
f 118 84 117
f 68 67 119
f 78 68 120
f 68 119 120
f 67 69 121
f 67 121 119
f 122 111 102
f 114 122 102
f 123 64 65
f 124 65 83
f 123 65 124
f 111 125 112
f 112 126 113
f 125 127 112
f 112 127 126
f 104 113 128
f 104 128 115
f 100 78 129
f 78 120 129
f 130 66 45
f 130 45 89
f 131 82 75
f 132 75 76
f 132 131 75
f 99 100 133
f 117 99 134
f 134 99 133
f 135 125 111
f 122 135 111
f 136 74 64
f 136 64 123
f 137 96 82
f 131 137 82
f 69 91 138
f 69 138 121
f 97 70 139
f 139 70 106
f 113 126 140
f 113 140 128
f 141 83 116
f 124 83 141
f 142 85 118
f 142 110 85
f 125 143 127
f 127 144 126
f 143 145 127
f 127 145 144
f 91 95 146
f 91 146 138
f 147 76 90
f 147 132 76
f 148 89 49
f 148 49 107
f 149 143 125
f 135 149 125
f 95 98 150
f 95 150 146
f 133 100 151
f 100 129 151
f 152 105 96
f 137 152 96
f 98 108 153
f 98 153 150
f 154 109 105
f 152 154 105
f 126 144 155
f 126 155 140
f 143 156 145
f 145 157 144
f 156 158 145
f 145 158 157
f 159 114 109
f 154 159 109
f 160 117 134
f 161 118 117
f 161 117 160
f 116 97 162
f 162 97 139
f 163 101 66
f 163 66 130
f 164 156 143
f 149 164 143
f 108 115 165
f 108 165 153
f 166 107 74
f 166 74 136
f 167 90 110
f 167 147 90
f 168 122 114
f 159 168 114
f 169 106 101
f 139 106 169
f 115 128 170
f 115 170 165
f 144 157 171
f 144 171 155
f 172 135 122
f 168 172 122
f 141 116 173
f 173 116 162
f 134 133 174
f 160 134 175
f 175 134 174
f 169 101 163
f 176 123 124
f 177 124 141
f 176 124 177
f 156 178 158
f 158 179 157
f 178 180 158
f 158 180 179
f 181 178 156
f 164 181 156
f 133 151 182
f 174 133 182
f 183 118 161
f 183 142 118
f 128 140 184
f 128 184 170
f 185 149 135
f 172 185 135
f 120 119 186
f 129 120 187
f 120 186 187
f 188 136 123
f 188 123 176
f 119 121 189
f 119 189 186
f 190 130 89
f 190 89 148
f 191 141 173
f 177 141 191
f 157 179 192
f 157 192 171
f 193 164 149
f 185 193 149
f 194 110 142
f 194 167 110
f 151 129 195
f 129 187 195
f 140 155 196
f 140 196 184
f 178 197 180
f 198 197 178
f 181 198 178
f 162 139 199
f 199 139 169
f 180 200 179
f 197 201 180
f 180 201 200
f 202 137 131
f 203 131 132
f 203 202 131
f 121 138 204
f 121 204 189
f 205 152 137
f 202 205 137
f 206 148 107
f 206 107 166
f 138 146 207
f 138 207 204
f 208 160 175
f 209 161 160
f 209 160 208
f 210 181 164
f 193 210 164
f 146 150 211
f 146 211 207
f 212 132 147
f 212 203 132
f 179 200 213
f 179 213 192
f 155 171 214
f 155 214 196
f 173 162 215
f 215 162 199
f 150 153 216
f 150 216 211
f 217 154 152
f 205 217 152
f 182 151 218
f 151 195 218
f 219 166 136
f 219 136 188
f 220 159 154
f 217 220 154
f 221 163 130
f 221 130 190
f 197 222 201
f 198 223 197
f 223 222 197
f 175 174 224
f 174 182 225
f 224 174 225
f 208 175 226
f 226 175 224
f 153 165 227
f 153 227 216
f 228 168 159
f 220 228 159
f 191 173 229
f 229 173 215
f 230 198 181
f 210 230 181
f 231 169 163
f 199 169 231
f 232 176 177
f 233 177 191
f 232 177 233
f 201 234 200
f 222 235 201
f 201 235 234
f 236 172 168
f 228 236 168
f 237 183 161
f 237 161 209
f 171 192 238
f 171 238 214
f 165 170 239
f 165 239 227
f 240 147 167
f 240 212 147
f 231 163 221
f 241 142 183
f 241 194 142
f 242 185 172
f 236 242 172
f 243 188 176
f 243 176 232
f 233 191 244
f 244 191 229
f 200 234 245
f 200 245 213
f 170 184 246
f 170 246 239
f 247 223 198
f 230 247 198
f 222 248 235
f 223 249 222
f 249 248 222
f 250 193 185
f 242 250 185
f 251 190 148
f 251 148 206
f 182 218 252
f 225 182 252
f 187 186 253
f 195 187 254
f 187 253 254
f 192 213 255
f 192 255 238
f 186 189 256
f 186 256 253
f 235 257 234
f 248 258 235
f 235 258 257
f 215 199 259
f 259 199 231
f 184 196 260
f 184 260 246
f 261 210 193
f 250 261 193
f 262 206 166
f 262 166 219
f 218 195 263
f 195 254 263
f 264 167 194
f 264 240 167
f 234 257 265
f 234 265 245
f 266 249 223
f 247 266 223
f 267 205 202
f 268 217 205
f 267 268 205
f 269 202 203
f 269 267 202
f 270 208 226
f 271 209 208
f 271 208 270
f 189 204 272
f 189 272 256
f 229 215 273
f 273 215 259
f 274 219 188
f 274 188 243
f 275 230 210
f 261 275 210
f 204 207 276
f 204 276 272
f 226 224 277
f 224 225 278
f 277 224 278
f 279 233 244
f 280 232 233
f 280 233 279
f 244 229 281
f 281 229 273
f 196 214 282
f 196 282 260
f 248 283 258
f 249 284 248
f 284 283 248
f 207 211 285
f 207 285 276
f 286 203 212
f 286 269 203
f 287 221 190
f 287 190 251
f 213 245 288
f 213 288 255
f 211 216 289
f 211 289 285
f 290 220 217
f 268 290 217
f 291 226 277
f 270 226 291
f 292 228 220
f 290 292 220
f 279 244 293
f 293 244 281
f 294 231 221
f 259 231 294
f 295 243 232
f 295 232 280
f 296 183 237
f 296 241 183
f 297 247 230
f 275 297 230
f 216 227 298
f 216 298 289
f 299 236 228
f 292 299 228
f 218 263 300
f 252 218 300
f 225 252 301
f 278 225 301
f 302 237 209
f 302 209 271
f 258 303 257
f 283 304 258
f 258 304 303
f 305 284 249
f 266 305 249
f 214 238 306
f 214 306 282
f 307 242 236
f 299 307 236
f 294 221 287
f 227 239 308
f 227 308 298
f 309 250 242
f 307 309 242
f 310 212 240
f 310 286 212
f 257 303 311
f 257 311 265
f 312 251 206
f 312 206 262
f 313 266 247
f 297 313 247
f 254 253 314
f 253 256 315
f 253 315 314
f 263 254 316
f 254 314 316
f 317 194 241
f 317 264 194
f 239 246 318
f 239 318 308
f 245 265 319
f 245 319 288
f 320 261 250
f 309 320 250
f 284 321 283
f 283 322 304
f 321 322 283
f 273 259 323
f 323 259 294
f 238 255 324
f 238 324 306
f 316 268 267
f 314 290 268
f 316 314 268
f 325 267 269
f 325 316 267
f 326 279 293
f 327 280 279
f 327 279 326
f 328 262 219
f 328 219 274
f 263 316 325
f 300 263 325
f 281 273 329
f 293 281 330
f 330 281 329
f 329 273 323
f 331 275 261
f 320 331 261
f 256 272 332
f 256 332 315
f 252 300 333
f 301 252 333
f 334 243 295
f 334 274 243
f 246 260 335
f 246 335 318
f 305 336 284
f 336 321 284
f 272 276 337
f 272 337 332
f 304 338 303
f 322 339 304
f 304 339 338
f 276 285 340
f 276 340 337
f 341 325 269
f 341 269 286
f 326 293 342
f 342 293 330
f 314 315 290
f 315 292 290
f 343 305 266
f 313 343 266
f 332 299 292
f 315 332 292
f 277 278 344
f 291 277 345
f 345 277 344
f 346 295 280
f 346 280 327
f 285 289 347
f 285 347 340
f 348 297 275
f 331 348 275
f 337 307 299
f 332 337 299
f 303 338 349
f 303 349 311
f 350 240 264
f 350 310 240
f 351 270 291
f 352 271 270
f 352 270 351
f 260 282 353
f 260 353 335
f 289 298 354
f 289 354 347
f 340 309 307
f 337 340 307
f 255 288 355
f 255 355 324
f 356 287 251
f 356 251 312
f 300 325 341
f 278 301 357
f 344 278 357
f 333 300 341
f 322 358 339
f 321 359 322
f 359 358 322
f 265 311 360
f 265 360 319
f 361 294 287
f 323 294 361
f 340 347 309
f 347 320 309
f 362 237 302
f 362 296 237
f 298 308 363
f 298 363 354
f 364 291 345
f 351 291 364
f 365 313 297
f 348 365 297
f 366 341 286
f 366 286 310
f 339 367 338
f 358 368 339
f 339 368 367
f 347 354 320
f 354 331 320
f 361 287 356
f 369 326 342
f 370 327 326
f 370 326 369
f 371 336 305
f 343 371 305
f 282 306 372
f 282 372 353
f 308 318 373
f 308 373 363
f 336 374 321
f 374 359 321
f 375 241 296
f 375 317 241
f 376 302 271
f 376 271 352
f 342 330 377
f 330 329 378
f 377 330 378
f 301 333 379
f 357 301 379
f 380 312 262
f 380 262 328
f 338 367 381
f 338 381 349
f 354 363 331
f 363 348 331
f 333 341 366
f 329 323 382
f 382 323 361
f 369 342 383
f 383 342 377
f 378 329 382
f 288 319 384
f 288 384 355
f 385 295 346
f 385 334 295
f 386 343 313
f 365 386 313
f 387 328 274
f 387 274 334
f 318 335 388
f 318 388 373
f 389 327 370
f 389 346 327
f 358 390 368
f 359 391 358
f 391 390 358
f 311 349 392
f 311 392 360
f 379 333 366
f 306 324 393
f 306 393 372
f 363 373 348
f 373 365 348
f 394 350 264
f 394 264 317
f 368 395 367
f 390 396 368
f 368 396 395
f 371 397 336
f 397 374 336
f 398 366 310
f 398 310 350
f 335 353 399
f 335 399 388
f 367 395 400
f 367 400 381
f 401 391 359
f 374 401 359
f 386 402 343
f 402 371 343
f 403 369 383
f 404 370 369
f 404 369 403
f 373 388 365
f 388 386 365
f 345 344 405
f 364 345 406
f 406 345 405
f 390 407 396
f 391 408 390
f 408 407 390
f 409 356 312
f 409 312 380
f 379 366 398
f 410 361 356
f 382 361 410
f 344 357 411
f 405 344 411
f 396 412 395
f 407 413 396
f 396 413 412
f 383 377 414
f 403 383 415
f 415 383 414
f 324 355 416
f 324 416 393
f 377 378 417
f 414 377 417
f 319 360 418
f 319 418 384
f 349 381 419
f 349 419 392
f 353 420 399
f 353 372 420
f 388 399 386
f 421 370 404
f 421 389 370
f 422 351 364
f 423 352 351
f 423 351 422
f 424 346 389
f 424 385 346
f 399 402 386
f 410 356 409
f 378 382 425
f 417 378 425
f 395 412 426
f 395 426 400
f 427 362 302
f 427 302 376
f 357 379 428
f 411 357 428
f 402 429 371
f 429 397 371
f 425 382 410
f 430 296 362
f 430 375 296
f 431 380 328
f 431 328 387
f 432 334 385
f 432 387 334
f 433 408 391
f 401 433 391
f 397 434 374
f 434 401 374
f 428 379 398
f 435 403 415
f 436 404 403
f 436 403 435
f 407 437 413
f 413 438 412
f 437 439 413
f 413 439 438
f 440 437 407
f 408 440 407
f 399 420 402
f 441 364 406
f 422 364 441
f 372 442 420
f 372 393 442
f 443 398 350
f 443 350 394
f 381 400 444
f 381 444 419
f 355 384 445
f 355 445 416
f 446 394 317
f 446 317 375
f 415 414 447
f 435 415 448
f 448 415 447
f 412 438 449
f 412 449 426
f 420 429 402
f 450 376 352
f 450 352 423
f 360 392 451
f 360 451 418
f 414 417 452
f 447 414 452
f 453 404 436
f 453 421 404
f 437 454 439
f 439 455 438
f 454 456 439
f 439 456 455
f 457 454 437
f 440 457 437
f 428 398 443
f 429 458 397
f 458 434 397
f 459 435 448
f 460 436 435
f 460 435 459
f 461 440 408
f 433 461 408
f 420 442 429
f 462 389 421
f 462 424 389
f 393 463 442
f 393 416 463
f 438 455 464
f 438 464 449
f 434 465 401
f 465 433 401
f 400 426 466
f 400 466 444
f 425 410 467
f 467 410 409
f 417 425 468
f 452 417 468
f 469 409 380
f 469 380 431
f 454 470 456
f 456 471 455
f 470 472 456
f 456 472 471
f 459 448 473
f 448 447 474
f 473 448 474
f 442 458 429
f 475 470 454
f 457 475 454
f 476 436 460
f 476 453 436
f 477 459 473
f 478 459 477
f 478 460 459
f 392 419 479
f 392 479 451
f 468 425 467
f 480 385 424
f 480 432 385
f 384 418 481
f 384 481 445
f 455 471 482
f 455 482 464
f 467 409 469
f 470 483 472
f 472 484 485
f 483 484 472
f 472 485 471
f 406 405 486
f 405 411 487
f 486 405 487
f 447 452 488
f 474 447 488
f 489 457 440
f 461 489 440
f 490 431 387
f 490 387 432
f 442 463 458
f 411 428 491
f 491 428 443
f 426 449 492
f 426 492 466
f 441 406 493
f 493 406 486
f 477 473 494
f 494 473 495
f 473 474 495
f 487 411 491
f 496 483 470
f 475 496 470
f 497 477 494
f 498 477 497
f 498 478 477
f 484 499 500
f 501 499 484
f 484 500 485
f 483 501 484
f 471 485 502
f 471 502 482
f 416 503 463
f 416 445 503
f 458 504 434
f 504 465 434
f 505 443 394
f 505 394 446
f 506 461 433
f 465 506 433
f 507 421 453
f 507 462 421
f 508 460 478
f 508 476 460
f 499 509 510
f 511 509 499
f 499 510 500
f 501 511 499
f 463 504 458
f 512 430 362
f 512 362 427
f 497 494 513
f 513 494 514
f 494 495 514
f 515 497 513
f 516 497 515
f 516 498 497
f 485 500 517
f 485 517 502
f 518 501 483
f 496 518 483
f 519 475 457
f 489 519 457
f 419 444 520
f 419 520 479
f 521 427 376
f 521 376 450
f 452 468 522
f 488 452 522
f 449 464 523
f 449 523 492
f 524 446 375
f 524 375 430
f 495 474 525
f 474 488 525
f 509 526 527
f 528 526 509
f 509 527 510
f 511 528 509
f 529 422 441
f 530 423 422
f 530 422 529
f 515 513 531
f 532 515 531
f 533 515 532
f 533 516 515
f 526 534 535
f 536 534 526
f 526 535 527
f 528 536 526
f 491 443 505
f 537 478 498
f 537 508 478
f 534 538 539
f 540 538 534
f 534 539 535
f 536 540 534
f 418 451 541
f 418 541 481
f 500 510 542
f 500 542 517
f 531 513 543
f 513 514 543
f 544 532 545
f 546 532 544
f 532 531 545
f 546 533 532
f 538 547 548
f 549 547 538
f 538 548 539
f 540 549 538
f 550 511 501
f 518 550 501
f 463 503 504
f 547 544 551
f 552 544 547
f 544 545 551
f 552 546 544
f 547 551 548
f 549 552 547
f 468 467 553
f 553 467 469
f 554 424 462
f 554 480 424
f 510 527 555
f 510 555 542
f 545 531 556
f 531 543 556
f 527 535 557
f 527 557 555
f 464 482 558
f 464 558 523
f 559 453 476
f 559 507 453
f 560 469 431
f 560 431 490
f 522 468 553
f 561 498 516
f 561 537 498
f 535 539 562
f 535 562 557
f 563 528 511
f 550 563 511
f 564 496 475
f 519 564 475
f 565 489 461
f 506 565 461
f 566 441 493
f 529 441 566
f 551 545 567
f 545 556 567
f 539 548 568
f 539 568 562
f 514 495 569
f 495 525 569
f 548 551 570
f 551 567 570
f 548 570 568
f 444 466 571
f 444 571 520
f 504 572 465
f 572 506 465
f 573 536 528
f 563 573 528
f 445 574 503
f 445 481 574
f 575 516 533
f 575 561 516
f 576 540 536
f 573 576 536
f 577 490 432
f 577 432 480
f 578 549 540
f 576 578 540
f 579 450 423
f 579 423 530
f 580 533 546
f 580 575 533
f 581 552 549
f 578 581 549
f 482 502 582
f 482 582 558
f 553 469 560
f 583 546 552
f 583 580 546
f 581 583 552
f 488 522 584
f 525 488 584
f 585 518 496
f 564 585 496
f 503 572 504
f 586 476 508
f 586 559 476
f 543 514 587
f 514 569 587
f 451 479 588
f 451 588 541
f 502 517 589
f 502 589 582
f 590 519 489
f 565 590 489
f 466 492 591
f 466 591 571
f 487 491 592
f 592 491 505
f 593 550 518
f 585 593 518
f 503 574 572
f 556 543 594
f 543 587 594
f 517 542 595
f 517 595 589
f 596 462 507
f 596 554 462
f 597 508 537
f 597 586 508
f 572 598 506
f 598 565 506
f 599 505 446
f 599 446 524
f 542 555 600
f 542 600 595
f 486 487 601
f 601 487 592
f 567 556 602
f 556 594 602
f 555 557 603
f 555 603 600
f 604 563 550
f 593 604 550
f 493 486 605
f 605 486 601
f 522 553 606
f 584 522 606
f 569 525 607
f 525 584 607
f 557 562 608
f 557 608 603
f 481 609 574
f 481 541 609
f 570 567 610
f 567 602 610
f 562 568 611
f 562 611 608
f 606 553 560
f 568 570 612
f 570 610 612
f 568 612 611
f 492 523 613
f 492 613 591
f 614 564 519
f 590 614 519
f 615 537 561
f 615 597 537
f 479 520 616
f 479 616 588
f 617 573 563
f 604 617 563
f 618 560 490
f 618 490 577
f 574 598 572
f 619 480 554
f 619 577 480
f 592 505 599
f 566 493 620
f 620 493 605
f 621 561 575
f 621 615 561
f 622 576 573
f 617 622 573
f 623 524 430
f 623 430 512
f 624 578 576
f 622 624 576
f 625 581 578
f 624 625 578
f 626 507 559
f 626 596 507
f 627 575 580
f 627 621 575
f 628 512 427
f 628 427 521
f 629 583 581
f 625 629 581
f 523 558 630
f 523 630 613
f 631 580 583
f 631 627 580
f 629 631 583
f 606 560 618
f 587 569 632
f 569 607 632
f 598 633 565
f 633 590 565
f 574 609 598
f 634 585 564
f 614 634 564
f 635 521 450
f 635 450 579
f 520 571 636
f 520 636 616
f 541 637 609
f 541 588 637
f 558 582 638
f 558 638 630
f 584 606 639
f 607 584 639
f 594 587 640
f 587 632 640
f 641 529 566
f 642 530 529
f 642 529 641
f 643 559 586
f 643 626 559
f 644 593 585
f 634 644 585
f 609 633 598
f 582 589 645
f 582 645 638
f 639 606 618
f 633 646 590
f 646 614 590
f 647 554 596
f 647 619 554
f 602 594 648
f 594 640 648
f 589 595 649
f 589 649 645
f 571 591 650
f 571 650 636
f 651 618 577
f 651 577 619
f 652 604 593
f 644 652 593
f 609 637 633
f 641 566 653
f 653 566 620
f 654 586 597
f 654 643 586
f 610 602 655
f 602 648 655
f 595 600 656
f 595 656 649
f 600 603 657
f 600 657 656
f 588 658 637
f 588 616 658
f 601 592 659
f 659 592 599
f 603 608 660
f 603 660 657
f 607 639 661
f 632 607 661
f 612 610 662
f 610 655 662
f 611 612 663
f 612 662 663
f 608 611 664
f 611 663 664
f 608 664 660
f 665 617 604
f 652 665 604
f 666 530 642
f 666 579 530
f 667 641 653
f 668 641 667
f 668 642 641
f 639 618 651
f 669 597 615
f 669 654 597
f 637 646 633
f 670 634 614
f 646 670 614
f 671 599 524
f 671 524 623
f 591 613 672
f 591 672 650
f 673 622 617
f 665 673 617
f 674 615 621
f 674 669 615
f 675 596 626
f 675 647 596
f 676 624 622
f 673 676 622
f 677 625 624
f 676 677 624
f 605 601 678
f 678 601 659
f 679 629 625
f 677 679 625
f 667 653 680
f 680 653 681
f 653 620 681
f 682 621 627
f 682 674 621
f 661 639 651
f 637 658 646
f 683 631 629
f 679 683 629
f 640 632 684
f 632 661 684
f 685 627 631
f 685 682 627
f 683 685 631
f 616 636 686
f 616 686 658
f 613 630 687
f 613 687 672
f 659 599 671
f 688 667 680
f 689 667 688
f 689 668 667
f 690 644 634
f 670 690 634
f 620 605 691
f 691 605 678
f 692 651 619
f 692 619 647
f 693 642 668
f 693 666 642
f 658 670 646
f 694 623 512
f 694 512 628
f 630 638 695
f 630 695 687
f 696 626 643
f 696 675 626
f 648 640 697
f 640 684 697
f 688 680 698
f 698 680 699
f 680 681 699
f 661 651 692
f 700 652 644
f 690 700 644
f 636 650 701
f 636 701 686
f 658 686 670
f 702 628 521
f 702 521 635
f 681 620 691
f 638 645 703
f 638 703 695
f 704 688 698
f 705 688 704
f 705 689 688
f 684 661 692
f 655 648 706
f 648 697 706
f 686 690 670
f 707 643 654
f 707 696 643
f 645 649 708
f 645 708 703
f 709 665 652
f 700 709 652
f 710 668 689
f 710 693 668
f 711 692 647
f 711 647 675
f 662 655 712
f 655 706 712
f 704 698 713
f 713 698 714
f 698 699 714
f 649 656 715
f 649 715 708
f 650 672 716
f 650 716 701
f 656 657 717
f 656 717 715
f 718 579 666
f 718 635 579
f 663 662 719
f 662 712 719
f 657 660 720
f 657 720 717
f 660 664 721
f 660 721 720
f 722 673 665
f 709 722 665
f 664 663 723
f 663 719 723
f 664 723 721
f 686 701 690
f 724 704 713
f 725 704 724
f 725 705 704
f 726 654 669
f 726 707 654
f 684 692 711
f 697 684 711
f 701 700 690
f 699 681 727
f 681 691 727
f 728 676 673
f 722 728 673
f 729 669 674
f 729 726 669
f 724 713 730
f 730 713 731
f 713 714 731
f 672 687 732
f 672 732 716
f 733 677 676
f 728 733 676
f 734 689 705
f 734 710 689
f 735 711 675
f 735 675 696
f 736 679 677
f 733 736 677
f 737 659 671
f 678 659 737
f 738 674 682
f 738 729 674
f 739 683 679
f 736 739 679
f 740 685 683
f 739 740 683
f 741 682 685
f 741 738 682
f 740 741 685
f 701 716 700
f 742 724 730
f 743 724 742
f 743 725 724
f 697 711 735
f 706 697 735
f 716 709 700
f 687 695 744
f 687 744 732
f 745 671 623
f 745 623 694
f 746 666 693
f 746 718 666
f 742 730 747
f 747 730 748
f 730 731 748
f 714 699 749
f 699 727 749
f 750 735 696
f 750 696 707
f 695 703 751
f 695 751 744
f 712 706 750
f 706 735 750
f 716 732 709
f 732 722 709
f 752 705 725
f 752 734 705
f 753 742 747
f 754 742 753
f 754 743 742
f 703 708 755
f 703 755 751
f 737 671 745
f 691 678 756
f 756 678 737
f 753 747 757
f 757 747 758
f 747 748 758
f 719 712 759
f 712 750 759
f 759 707 726
f 759 750 707
f 732 744 722
f 744 728 722
f 708 715 760
f 708 760 755
f 731 714 761
f 714 749 761
f 715 717 762
f 715 762 760
f 723 719 763
f 719 759 763
f 717 720 764
f 717 764 762
f 721 723 765
f 723 763 765
f 720 721 766
f 721 765 766
f 720 766 764
f 751 733 728
f 744 751 728
f 763 726 729
f 763 759 726
f 767 693 710
f 767 746 693
f 768 753 757
f 769 753 768
f 769 754 753
f 755 736 733
f 751 755 733
f 770 725 743
f 770 752 725
f 760 739 736
f 755 760 736
f 768 757 771
f 771 757 772
f 757 758 772
f 765 729 738
f 765 763 729
f 762 740 739
f 760 762 739
f 773 694 628
f 773 628 702
f 727 691 756
f 766 738 741
f 766 765 738
f 764 741 740
f 762 764 740
f 764 766 741
f 748 731 774
f 731 761 774
f 775 768 771
f 775 771 776
f 776 771 777
f 771 772 777
f 778 768 775
f 778 769 768
f 758 748 779
f 748 774 779
f 780 743 754
f 780 770 743
f 781 635 718
f 781 702 635
f 782 710 734
f 782 767 710
f 749 727 783
f 727 756 783
f 772 758 784
f 758 779 784
f 785 775 776
f 785 776 786
f 786 776 787
f 776 777 787
f 788 775 785
f 788 778 775
f 789 754 769
f 789 780 754
f 777 772 790
f 772 784 790
f 791 737 745
f 756 737 791
f 792 734 752
f 792 782 734
f 761 749 793
f 749 783 793
f 794 718 746
f 794 781 718
f 795 785 786
f 795 786 796
f 796 786 797
f 786 787 797
f 798 745 694
f 798 694 773
f 799 785 795
f 799 788 785
f 787 777 800
f 777 790 800
f 801 769 778
f 801 789 769
f 774 761 802
f 761 793 802
f 803 752 770
f 803 792 752
f 791 745 798
f 804 795 796
f 796 797 805
f 804 796 806
f 806 796 805
f 797 787 807
f 787 800 807
f 808 795 804
f 808 799 795
f 809 746 767
f 809 794 746
f 810 778 788
f 810 801 778
f 783 756 791
f 779 774 811
f 774 802 811
f 812 770 780
f 812 803 770
f 805 797 813
f 797 807 813
f 814 806 815
f 815 806 816
f 814 804 806
f 806 805 816
f 784 779 817
f 779 811 817
f 815 818 814
f 815 816 819
f 819 820 815
f 815 820 818
f 821 702 781
f 821 773 702
f 822 804 814
f 822 808 804
f 814 823 822
f 814 818 823
f 824 788 799
f 824 810 788
f 825 767 782
f 825 809 767
f 793 783 826
f 783 791 826
f 790 784 827
f 784 817 827
f 816 805 828
f 805 813 828
f 829 780 789
f 829 812 780
f 800 790 830
f 790 827 830
f 831 799 808
f 831 824 799
f 832 781 794
f 832 821 781
f 802 793 833
f 793 826 833
f 834 782 792
f 834 825 782
f 819 816 835
f 816 828 835
f 819 836 820
f 819 835 836
f 807 800 837
f 800 830 837
f 838 789 801
f 838 829 789
f 826 791 798
f 823 808 822
f 823 831 808
f 813 807 839
f 807 837 839
f 811 802 840
f 802 833 840
f 841 798 773
f 841 773 821
f 842 792 803
f 842 834 792
f 843 794 809
f 843 832 794
f 844 801 810
f 844 838 801
f 828 813 845
f 813 839 845
f 817 811 846
f 811 840 846
f 826 798 841
f 833 826 841
f 847 803 812
f 847 842 803
f 848 810 824
f 848 844 810
f 849 841 821
f 849 821 832
f 827 817 850
f 817 846 850
f 851 809 825
f 851 843 809
f 835 828 852
f 828 845 852
f 820 853 818
f 836 854 820
f 820 854 853
f 833 841 849
f 840 833 849
f 830 827 855
f 827 850 855
f 856 812 829
f 856 847 812
f 836 835 857
f 835 852 857
f 818 858 823
f 818 853 858
f 859 824 831
f 859 848 824
f 836 857 860
f 836 860 854
f 861 825 834
f 861 851 825
f 837 830 862
f 830 855 862
f 863 849 832
f 863 832 843
f 840 849 863
f 846 840 863
f 839 837 864
f 837 862 864
f 865 829 838
f 865 856 829
f 858 831 823
f 858 859 831
f 866 834 842
f 866 861 834
f 867 863 843
f 867 843 851
f 846 863 867
f 850 846 867
f 845 839 868
f 839 864 868
f 869 838 844
f 869 865 838
f 855 850 870
f 850 867 870
f 852 845 871
f 845 868 871
f 872 842 847
f 872 866 842
f 870 867 851
f 870 851 861
f 862 855 873
f 855 870 873
f 874 844 848
f 874 869 844
f 857 852 875
f 852 871 875
f 876 847 856
f 876 872 847
f 873 870 861
f 873 861 866
f 864 862 877
f 862 873 877
f 860 857 878
f 857 875 878
f 879 848 859
f 879 874 848
f 860 880 854
f 860 878 881
f 860 881 880
f 868 864 882
f 864 877 882
f 883 856 865
f 883 876 856
f 877 873 866
f 877 866 872
f 884 859 858
f 884 879 859
f 871 868 885
f 868 882 885
f 853 884 858
f 886 865 869
f 886 883 865
f 854 887 853
f 854 880 887
f 882 877 872
f 882 872 876
f 853 887 884
f 875 871 888
f 871 885 888
f 885 882 876
f 885 876 883
f 889 869 874
f 889 886 869
f 878 875 890
f 875 888 890
f 888 885 883
f 888 883 886
f 891 874 879
f 891 889 874
f 881 878 892
f 878 890 892
f 881 892 880
f 890 888 886
f 890 886 889
f 887 879 884
f 887 891 879
f 892 890 889
f 892 889 891
f 880 892 891
f 880 891 887
