# 
# Wavefront OBJ file
# Created with Kaydara FBX
# 
mtllib c:\users\tjvan\onedrive\documenten\fontys\minor\nx\.mtlmodels\fibularis_brevis_muscle.r.obj

g Fibularis_brevis_muscle_r
v -0.118228 0.239275 -0.047309
v -0.117754 0.246140 -0.044037
v -0.118281 0.246287 -0.046673
v -0.117293 0.246455 -0.049183
v -0.117965 0.253311 -0.046019
v -0.117084 0.253393 -0.048363
v -0.118044 0.232215 -0.047857
v -0.117549 0.232203 -0.044536
v -0.116765 0.232478 -0.050907
v -0.117697 0.239173 -0.044384
v -0.117248 0.239494 -0.050126
v -0.117109 0.225221 -0.044627
v -0.117431 0.225213 -0.048259
v -0.117624 0.253175 -0.043569
v -0.117353 0.260294 -0.045599
v -0.115870 0.239184 -0.042097
v -0.115888 0.253044 -0.041779
v -0.115948 0.246084 -0.042029
v -0.115507 0.232295 -0.042031
v -0.117048 0.260182 -0.043380
v -0.116879 0.218276 -0.048697
v -0.115840 0.225506 -0.051520
v -0.116626 0.260365 -0.047695
v -0.116322 0.267052 -0.043250
v -0.115975 0.267381 -0.047139
v -0.116496 0.267218 -0.045259
v -0.117292 0.028438 -0.009276
v -0.117190 0.029057 -0.009224
v -0.116730 0.029375 -0.010463
v -0.116422 0.028831 -0.009382
v -0.116897 0.028623 -0.010662
v -0.116893 0.027788 -0.010597
v -0.116662 0.028193 -0.009672
v -0.115576 0.246652 -0.051335
v -0.115183 0.239757 -0.052220
v -0.116841 0.029623 -0.009413
v -0.116772 0.218245 -0.044700
v -0.114537 0.218357 -0.041834
v -0.114956 0.225354 -0.041999
v -0.115423 0.260445 -0.049489
v -0.115667 0.253518 -0.050382
v -0.115562 0.260032 -0.041654
v -0.115520 0.028973 -0.012804
v -0.115791 0.028004 -0.010186
v -0.116061 0.027389 -0.010623
v -0.115497 0.026952 -0.012903
v -0.115715 0.027971 -0.012969
v -0.115163 0.029948 -0.012516
v -0.116424 0.211049 -0.044823
v -0.116447 0.211147 -0.049129
v -0.114222 0.211658 -0.053064
v -0.114995 0.218667 -0.052271
v -0.116364 0.030144 -0.010197
v -0.116206 0.029419 -0.009247
v -0.115866 0.030316 -0.009520
v -0.114047 0.211184 -0.041890
v -0.113423 0.226166 -0.054024
v -0.114451 0.232936 -0.053132
v -0.114699 0.030796 -0.012128
v -0.114898 0.267655 -0.048946
v -0.115618 0.273901 -0.044812
v -0.115808 0.203693 -0.044699
v -0.115738 0.203853 -0.049671
v -0.115517 0.028688 -0.009862
v -0.115575 0.273639 -0.043055
v -0.114751 0.273427 -0.041471
v -0.115109 0.266896 -0.041592
v -0.114862 0.030057 -0.009655
v -0.115348 0.029327 -0.009606
v -0.113275 0.027312 -0.011324
v -0.114024 0.026247 -0.013343
v -0.113915 0.026659 -0.011953
v -0.115195 0.274175 -0.046518
v -0.113550 0.246111 -0.040887
v -0.113317 0.239264 -0.040945
v -0.113481 0.259957 -0.040691
v -0.113638 0.253001 -0.040633
v -0.113891 0.031469 -0.011411
v -0.112806 0.232430 -0.040826
v -0.114642 0.196737 -0.050805
v -0.115048 0.196401 -0.044827
v -0.112858 0.196579 -0.041654
v -0.113477 0.203891 -0.041715
v -0.113176 0.204614 -0.054255
v -0.113025 0.028466 -0.016853
v -0.113442 0.253728 -0.051656
v -0.115051 0.279624 -0.042810
v -0.114650 0.279382 -0.045923
v -0.115032 0.279646 -0.044385
v -0.112496 0.239959 -0.053003
v -0.113000 0.246869 -0.052307
v -0.111691 0.026352 -0.016340
v -0.112584 0.027379 -0.016756
v -0.112400 0.029372 -0.010467
v -0.112657 0.028154 -0.010737
v -0.112945 0.029604 -0.016581
v -0.113796 0.267776 -0.050256
v -0.113656 0.260539 -0.050645
v -0.114448 0.274312 -0.048208
v -0.113757 0.278889 -0.047674
v -0.111464 0.233337 -0.053943
v -0.112612 0.030620 -0.016166
v -0.113201 0.266814 -0.040732
v -0.114227 0.189167 -0.045504
v -0.112309 0.189259 -0.042078
v -0.114259 0.286299 -0.043858
v -0.114337 0.279514 -0.041418
v -0.113620 0.285941 -0.041634
v -0.114214 0.286130 -0.042592
v -0.114009 0.286451 -0.044959
v -0.112300 0.219358 -0.055016
v -0.111435 0.218495 -0.040725
v -0.112219 0.225496 -0.040712
v -0.112857 0.030739 -0.010775
v -0.112877 0.279430 -0.040734
v -0.113047 0.273318 -0.040643
v -0.111161 0.031642 -0.014964
v -0.112034 0.031429 -0.015637
v -0.113175 0.189705 -0.052483
v -0.109846 0.190955 -0.058147
v -0.111656 0.197814 -0.056107
v -0.114063 0.272959 -0.049233
v -0.113332 0.289025 -0.042525
v -0.113461 0.289064 -0.043286
v -0.113515 0.182108 -0.046399
v -0.110291 0.205568 -0.057550
v -0.111367 0.212463 -0.056167
v -0.113048 0.288605 -0.041990
v -0.113084 0.267649 -0.049414
v -0.113295 0.274433 -0.048410
v -0.110542 0.204166 -0.040844
v -0.110975 0.211413 -0.040820
v -0.110537 0.026210 -0.015604
v -0.113616 0.286153 -0.045564
v -0.113371 0.289010 -0.043910
v -0.113107 0.279278 -0.045951
v -0.112994 0.274184 -0.046573
v -0.112693 0.260544 -0.050086
v -0.111656 0.246180 -0.042146
v -0.111715 0.253049 -0.041787
v -0.112405 0.288976 -0.041862
v -0.112634 0.285807 -0.041206
v -0.113035 0.289157 -0.044051
v -0.113202 0.286353 -0.044817
v -0.111625 0.239327 -0.042528
v -0.111709 0.182782 -0.054132
v -0.112697 0.175073 -0.047325
v -0.111473 0.174923 -0.043170
v -0.110444 0.175870 -0.055407
v -0.111911 0.182083 -0.042603
v -0.110101 0.196848 -0.040809
v -0.111518 0.266818 -0.041578
v -0.111586 0.259952 -0.041598
v -0.112926 0.289533 -0.043298
v -0.112678 0.289531 -0.042544
v -0.111156 0.246922 -0.051693
v -0.112063 0.253726 -0.050901
v -0.109401 0.219980 -0.056264
v -0.110530 0.226729 -0.054916
v -0.112982 0.267322 -0.047341
v -0.109400 0.028359 -0.014363
v -0.109643 0.027098 -0.014793
v -0.112482 0.279519 -0.044549
v -0.112863 0.289064 -0.043866
v -0.112721 0.286209 -0.043942
v -0.111612 0.273372 -0.041476
v -0.112671 0.289042 -0.043381
v -0.109830 0.030802 -0.021773
v -0.109097 0.028943 -0.021879
v -0.109687 0.029793 -0.021968
v -0.109545 0.240017 -0.052849
v -0.112413 0.273844 -0.044947
v -0.112954 0.260376 -0.048038
v -0.112576 0.260207 -0.045870
v -0.112474 0.267084 -0.045421
v -0.112595 0.253508 -0.048836
v -0.112284 0.289083 -0.042674
v -0.111699 0.279407 -0.041570
v -0.109546 0.029677 -0.014162
v -0.110253 0.030962 -0.014412
v -0.110906 0.225569 -0.043134
v -0.111275 0.232484 -0.042885
v -0.112202 0.285966 -0.042808
v -0.111047 0.167655 -0.043925
v -0.111981 0.167984 -0.048241
v -0.112029 0.288791 -0.042077
v -0.111956 0.285815 -0.041793
v -0.109663 0.031764 -0.021428
v -0.112427 0.253339 -0.046455
v -0.112186 0.246463 -0.047197
v -0.112085 0.246674 -0.049720
v -0.108319 0.028283 -0.021648
v -0.111869 0.266904 -0.043496
v -0.111911 0.253169 -0.044081
v -0.111947 0.260044 -0.043694
v -0.111872 0.273578 -0.043284
v -0.111975 0.279472 -0.043075
v -0.109362 0.182274 -0.041507
v -0.109744 0.189483 -0.041108
v -0.111917 0.239410 -0.045204
v -0.112077 0.239581 -0.048046
v -0.111739 0.239800 -0.050644
v -0.111881 0.246285 -0.044599
v -0.111661 0.232496 -0.045773
v -0.111823 0.232675 -0.048791
v -0.111237 0.233035 -0.051536
v -0.108201 0.032200 -0.020541
v -0.109079 0.032540 -0.020922
v -0.111274 0.160805 -0.049289
v -0.109477 0.168894 -0.056133
v -0.108971 0.175048 -0.041978
v -0.111145 0.225619 -0.046236
v -0.111418 0.225810 -0.049370
v -0.110748 0.226146 -0.052206
v -0.108201 0.183913 -0.059858
v -0.108716 0.198891 -0.059224
v -0.108885 0.226715 -0.053746
v -0.109718 0.233412 -0.053257
v -0.109834 0.211525 -0.043620
v -0.110460 0.218599 -0.043473
v -0.111135 0.218842 -0.049861
v -0.108445 0.213056 -0.057558
v -0.110572 0.160363 -0.045008
v -0.109874 0.153034 -0.046652
v -0.110128 0.153696 -0.050988
v -0.107378 0.154816 -0.057524
v -0.108529 0.161783 -0.056698
v -0.110782 0.218684 -0.046647
v -0.110448 0.211608 -0.046813
v -0.110040 0.219151 -0.052797
v -0.110696 0.211791 -0.050189
v -0.109046 0.212216 -0.053228
v -0.108143 0.160380 -0.043569
v -0.108525 0.167740 -0.042643
v -0.109257 0.204332 -0.043482
v -0.107822 0.219827 -0.054687
v -0.110073 0.204604 -0.050508
v -0.107915 0.205176 -0.053871
v -0.107730 0.152968 -0.044903
v -0.106755 0.028780 -0.020672
v -0.107395 0.028145 -0.021196
v -0.105555 0.169701 -0.061478
v -0.106738 0.176821 -0.060851
v -0.109959 0.204432 -0.046709
v -0.105974 0.199565 -0.060341
v -0.107594 0.206243 -0.058952
v -0.107433 0.031590 -0.020293
v -0.108887 0.146120 -0.048911
v -0.108734 0.146848 -0.053147
v -0.108513 0.189756 -0.043611
v -0.108823 0.197067 -0.043403
v -0.109275 0.197459 -0.051212
v -0.106988 0.212899 -0.055673
v -0.109477 0.197224 -0.046861
v -0.106933 0.192010 -0.061023
v -0.105158 0.184761 -0.062289
v -0.106522 0.031595 -0.027607
v -0.106637 0.033196 -0.027184
v -0.106675 0.032397 -0.027438
v -0.108249 0.182514 -0.044089
v -0.106085 0.030885 -0.027628
v -0.106604 0.029795 -0.020318
v -0.106771 0.030803 -0.020141
v -0.109063 0.189978 -0.047444
v -0.107951 0.190247 -0.052370
v -0.104671 0.191249 -0.055784
v -0.106384 0.198269 -0.054624
v -0.106146 0.033670 -0.026838
v -0.108731 0.182766 -0.048062
v -0.106675 0.183166 -0.053211
v -0.107697 0.168181 -0.045328
v -0.107940 0.175380 -0.044584
v -0.106839 0.140196 -0.054991
v -0.107907 0.145723 -0.046402
v -0.107560 0.138918 -0.048503
v -0.107636 0.139466 -0.051221
v -0.105934 0.147815 -0.058321
v -0.108339 0.175680 -0.048610
v -0.105659 0.176138 -0.053677
v -0.104520 0.162615 -0.062107
v -0.107671 0.160861 -0.046252
v -0.107877 0.168548 -0.049098
v -0.104662 0.030333 -0.027172
v -0.105429 0.030361 -0.027497
v -0.104704 0.033080 -0.026375
v -0.105421 0.033476 -0.026576
v -0.103375 0.184119 -0.056796
v -0.106803 0.146531 -0.048906
v -0.105737 0.139710 -0.050079
v -0.106165 0.206020 -0.056761
v -0.105060 0.199215 -0.057839
v -0.107343 0.161415 -0.049748
v -0.104420 0.161976 -0.053825
v -0.104912 0.169007 -0.053856
v -0.107420 0.153588 -0.047569
v -0.106429 0.154306 -0.050931
v -0.106566 0.132468 -0.050317
v -0.106305 0.132998 -0.053069
v -0.105250 0.147394 -0.052268
v -0.104131 0.030838 -0.026790
v -0.102845 0.148316 -0.062570
v -0.103669 0.155505 -0.062441
v -0.103621 0.154994 -0.054250
v -0.104046 0.192765 -0.061792
v -0.105083 0.133531 -0.056392
v -0.104441 0.140830 -0.059089
v -0.103254 0.133887 -0.059807
v -0.104175 0.032434 -0.026333
v -0.103694 0.177459 -0.063130
v -0.103999 0.034164 -0.033328
v -0.103869 0.033528 -0.033480
v -0.103612 0.035174 -0.032878
v -0.103984 0.034801 -0.033122
v -0.104004 0.031623 -0.026499
v -0.105264 0.126348 -0.054322
v -0.104400 0.133036 -0.051071
v -0.105265 0.125963 -0.051508
v -0.103004 0.126411 -0.052152
v -0.103599 0.192215 -0.059065
v -0.103029 0.032532 -0.033497
v -0.103554 0.032941 -0.033554
v -0.103778 0.140502 -0.053045
v -0.102241 0.133688 -0.053400
v -0.101603 0.169754 -0.057500
v -0.102398 0.176945 -0.057333
v -0.101277 0.163101 -0.064435
v -0.102421 0.170207 -0.063694
v -0.102423 0.032547 -0.033283
v -0.102986 0.035081 -0.032687
v -0.104452 0.119114 -0.052636
v -0.101800 0.119644 -0.053054
v -0.103967 0.126767 -0.057367
v -0.104395 0.119518 -0.055309
v -0.102954 0.120000 -0.057978
v -0.100688 0.141006 -0.055049
v -0.102289 0.148007 -0.054838
v -0.102234 0.185307 -0.062871
v -0.100681 0.177911 -0.063484
v -0.100765 0.162658 -0.057314
v -0.101975 0.034257 -0.032589
v -0.102375 0.034794 -0.032561
v -0.102939 0.112315 -0.053606
v -0.101941 0.141058 -0.062677
v -0.102981 0.112779 -0.056159
v -0.100669 0.127018 -0.054065
v -0.101833 0.033610 -0.032743
v -0.101999 0.033001 -0.032991
v -0.101887 0.036028 -0.039421
v -0.101872 0.036544 -0.039256
v -0.102252 0.127050 -0.060242
v -0.101525 0.035030 -0.039644
v -0.101763 0.035503 -0.039555
v -0.099150 0.134317 -0.054519
v -0.100590 0.155893 -0.064714
v -0.101041 0.036898 -0.038919
v -0.101580 0.036898 -0.039066
v -0.098944 0.148576 -0.057260
v -0.099912 0.155659 -0.057246
v -0.102172 0.184901 -0.060027
v -0.101144 0.034682 -0.039656
v -0.100940 0.177548 -0.060516
v -0.100105 0.127085 -0.062739
v -0.101012 0.133971 -0.062764
v -0.101878 0.113340 -0.058603
v -0.101604 0.106283 -0.057629
v -0.101166 0.120317 -0.060426
v -0.100227 0.113726 -0.060853
v -0.100397 0.112877 -0.054241
v -0.101199 0.105703 -0.055493
v -0.098938 0.106067 -0.056064
v -0.099217 0.141157 -0.064831
v -0.099875 0.148590 -0.064784
v -0.100402 0.035201 -0.039295
v -0.100722 0.034801 -0.039506
v -0.099547 0.170533 -0.063570
v -0.099918 0.170263 -0.060693
v -0.100538 0.036657 -0.038860
v -0.097713 0.141427 -0.057249
v -0.100248 0.035670 -0.039103
v -0.100279 0.036189 -0.038943
v -0.100334 0.038858 -0.045263
v -0.100220 0.037962 -0.045695
v -0.100330 0.038411 -0.045485
v -0.100832 0.106798 -0.059785
v -0.099417 0.120218 -0.054710
v -0.098338 0.113384 -0.055814
v -0.100000 0.037543 -0.045862
v -0.099697 0.099425 -0.057842
v -0.100050 0.100354 -0.061540
v -0.100507 0.099768 -0.059581
v -0.100088 0.039135 -0.045074
v -0.097750 0.156167 -0.063926
v -0.098492 0.163364 -0.063586
v -0.097880 0.099670 -0.058118
v -0.099056 0.120441 -0.062499
v -0.099316 0.037345 -0.045820
v -0.099691 0.037192 -0.045975
v -0.099186 0.038983 -0.044961
v -0.099626 0.039149 -0.044969
v -0.098156 0.134012 -0.064320
v -0.099323 0.107210 -0.061732
v -0.098003 0.156046 -0.060737
v -0.099022 0.163130 -0.060753
v -0.099016 0.037720 -0.045569
v -0.096959 0.120593 -0.054385
v -0.097910 0.127505 -0.054342
v -0.099630 0.093481 -0.061372
v -0.098782 0.093218 -0.060150
v -0.096565 0.106565 -0.056925
v -0.099432 0.042351 -0.050744
v -0.099331 0.042006 -0.051104
v -0.099191 0.042948 -0.050076
v -0.099419 0.042711 -0.050359
v -0.098923 0.038601 -0.045101
v -0.098893 0.038157 -0.045317
v -0.097327 0.107456 -0.062975
v -0.098208 0.113920 -0.062714
v -0.096312 0.120583 -0.063159
v -0.097214 0.127154 -0.063796
v -0.099453 0.093834 -0.063091
v -0.098214 0.094050 -0.064200
v -0.098664 0.100754 -0.063033
v -0.098724 0.041404 -0.051658
v -0.099083 0.041668 -0.051432
v -0.097048 0.148853 -0.060673
v -0.096969 0.148868 -0.063943
v -0.098312 0.041546 -0.051447
v -0.098743 0.042962 -0.049986
v -0.099260 0.086910 -0.062593
v -0.098979 0.087080 -0.063852
v -0.099025 0.047747 -0.054699
v -0.099040 0.048021 -0.054247
v -0.096224 0.113554 -0.054732
v -0.098598 0.047252 -0.055483
v -0.098873 0.047492 -0.055111
v -0.098650 0.080185 -0.064000
v -0.098968 0.080168 -0.063136
v -0.098649 0.080115 -0.062306
v -0.098547 0.086754 -0.061615
v -0.095371 0.134251 -0.062914
v -0.096201 0.141423 -0.063811
v -0.098011 0.042535 -0.050339
v -0.098314 0.042816 -0.050081
v -0.098825 0.048251 -0.053865
v -0.098325 0.048307 -0.053738
v -0.096056 0.127777 -0.055817
v -0.096726 0.134524 -0.056609
v -0.099097 0.053943 -0.057380
v -0.099052 0.053709 -0.057879
v -0.099020 0.060011 -0.060420
v -0.099040 0.060188 -0.059871
v -0.098681 0.060317 -0.059432
v -0.098803 0.054142 -0.056953
v -0.098223 0.047074 -0.055748
v -0.098867 0.053485 -0.058354
v -0.098824 0.059833 -0.060954
v -0.099007 0.066589 -0.062125
v -0.098906 0.066699 -0.061517
v -0.097923 0.042186 -0.050698
v -0.098021 0.041844 -0.051080
v -0.098768 0.073385 -0.062351
v -0.098991 0.073347 -0.062997
v -0.098715 0.073284 -0.063678
v -0.098816 0.066464 -0.062746
v -0.098018 0.087155 -0.064700
v -0.098473 0.066770 -0.061039
v -0.098572 0.053285 -0.058778
v -0.098425 0.066345 -0.063287
v -0.098512 0.059669 -0.061430
v -0.098210 0.073220 -0.064190
v -0.098266 0.054183 -0.056850
v -0.097454 0.086597 -0.060933
v -0.097204 0.093172 -0.059893
v -0.097873 0.080037 -0.061752
v -0.098208 0.073385 -0.061882
v -0.097872 0.066797 -0.060778
v -0.098152 0.060355 -0.059259
v -0.096683 0.100904 -0.063556
v -0.098029 0.080170 -0.064632
v -0.098065 0.059539 -0.061793
v -0.098163 0.053137 -0.059087
v -0.097845 0.066253 -0.063630
v -0.097829 0.048192 -0.053897
v -0.097776 0.054085 -0.057042
v -0.097859 0.047170 -0.055570
v -0.097610 0.047414 -0.055157
v -0.097750 0.053233 -0.058881
v -0.097109 0.080127 -0.064773
v -0.097537 0.073166 -0.064411
v -0.097505 0.073364 -0.061720
v -0.096682 0.087124 -0.064808
v -0.096477 0.094096 -0.064336
v -0.095509 0.114071 -0.062946
v -0.097580 0.059605 -0.061546
v -0.097645 0.060267 -0.059476
v -0.097495 0.047680 -0.054717
v -0.097545 0.047954 -0.054271
v -0.095113 0.120860 -0.055718
v -0.097208 0.066749 -0.060870
v -0.096796 0.073320 -0.061803
v -0.096934 0.079960 -0.061451
v -0.096362 0.086470 -0.060249
v -0.096018 0.092964 -0.058740
v -0.095907 0.099747 -0.057776
v -0.097492 0.053450 -0.058417
v -0.097282 0.066292 -0.063286
v -0.096874 0.073143 -0.064182
v -0.097319 0.060126 -0.059891
v -0.097482 0.053910 -0.057433
v -0.096028 0.141552 -0.060464
v -0.095304 0.134428 -0.059709
v -0.097311 0.059771 -0.061001
v -0.096964 0.066386 -0.062709
v -0.096225 0.080056 -0.064482
v -0.097393 0.053681 -0.057928
v -0.097227 0.059951 -0.060437
v -0.096823 0.066505 -0.062057
v -0.096815 0.066631 -0.061391
v -0.094659 0.100866 -0.063000
v -0.094841 0.107492 -0.062786
v -0.096494 0.073163 -0.063589
v -0.094733 0.127424 -0.062170
v -0.096026 0.079918 -0.061494
v -0.096382 0.073255 -0.062161
v -0.096352 0.073205 -0.062869
v -0.095414 0.079874 -0.061923
v -0.094907 0.127682 -0.058922
v -0.094873 0.093983 -0.063761
v -0.095458 0.087021 -0.064421
v -0.095331 0.106475 -0.055245
v -0.094731 0.099493 -0.056168
v -0.095470 0.079927 -0.062834
v -0.095679 0.079987 -0.063791
v -0.095141 0.086391 -0.059959
v -0.094717 0.092657 -0.057415
v -0.093508 0.114172 -0.061301
v -0.094049 0.120825 -0.061515
v -0.094790 0.086854 -0.063344
v -0.093916 0.106803 -0.056206
v -0.094609 0.113865 -0.055915
v -0.094565 0.086657 -0.062027
v -0.094042 0.093727 -0.062389
v -0.094436 0.086452 -0.060699
v -0.093690 0.099783 -0.057185
v -0.093949 0.120945 -0.058466
v -0.093623 0.114074 -0.058492
v -0.093034 0.107435 -0.061025
v -0.093798 0.093016 -0.058841
v -0.093405 0.100596 -0.061392
v -0.093323 0.107233 -0.058609
v -0.093849 0.093409 -0.060704
v -0.093469 0.100219 -0.059419
usemtl Fibularis_brevis_muscle_rMaterial0
f 1 2 3
f 1 3 4
f 2 5 3
f 6 3 5
f 6 4 3
f 1 7 8
f 9 7 1
f 1 10 2
f 1 8 10
f 1 4 11
f 9 1 11
f 12 8 7
f 12 7 13
f 9 13 7
f 2 14 5
f 15 5 14
f 15 6 5
f 2 10 16
f 2 17 14
f 2 18 17
f 2 16 18
f 19 10 8
f 19 16 10
f 15 14 20
f 17 20 14
f 19 8 12
f 12 13 21
f 21 13 22
f 9 22 13
f 15 23 6
f 24 15 20
f 25 23 15
f 24 26 15
f 25 15 26
f 27 28 29
f 27 30 28
f 27 31 32
f 27 32 33
f 27 29 31
f 27 33 30
f 34 11 4
f 6 34 4
f 9 11 35
f 34 35 11
f 36 29 28
f 36 28 30
f 12 21 37
f 12 37 38
f 19 12 39
f 12 38 39
f 6 23 40
f 6 41 34
f 6 40 41
f 24 20 42
f 17 42 20
f 43 32 31
f 44 33 32
f 44 32 45
f 46 45 32
f 46 32 47
f 43 47 32
f 48 31 29
f 48 43 31
f 21 49 37
f 21 50 49
f 21 51 50
f 21 22 52
f 21 52 51
f 36 53 29
f 36 30 54
f 36 55 53
f 36 54 55
f 56 37 49
f 56 38 37
f 57 22 9
f 9 35 58
f 57 9 58
f 59 29 53
f 59 48 29
f 44 30 33
f 60 23 25
f 60 40 23
f 61 26 24
f 25 26 61
f 62 49 50
f 62 50 63
f 51 63 50
f 64 54 30
f 44 64 30
f 62 56 49
f 59 53 55
f 61 24 65
f 66 65 24
f 24 42 67
f 66 24 67
f 68 55 54
f 64 69 54
f 68 54 69
f 70 44 45
f 71 45 46
f 71 72 45
f 70 45 72
f 25 61 73
f 60 25 73
f 17 18 74
f 75 18 16
f 75 74 18
f 17 76 42
f 17 74 77
f 17 77 76
f 68 78 55
f 59 55 78
f 79 16 19
f 79 75 16
f 57 52 22
f 80 62 63
f 80 81 62
f 62 81 82
f 62 83 56
f 62 82 83
f 70 64 44
f 80 63 84
f 51 84 63
f 46 47 85
f 85 47 43
f 34 41 86
f 86 41 40
f 61 65 87
f 61 88 73
f 61 87 89
f 61 89 88
f 34 90 35
f 34 86 91
f 34 91 90
f 87 65 66
f 76 67 42
f 46 92 71
f 46 85 93
f 46 93 92
f 64 94 69
f 70 95 64
f 64 95 94
f 48 96 43
f 85 43 96
f 79 19 39
f 97 40 60
f 97 98 40
f 86 40 98
f 68 69 94
f 60 73 99
f 100 73 88
f 100 99 73
f 35 101 58
f 35 90 101
f 59 102 48
f 48 102 96
f 66 67 103
f 76 103 67
f 80 104 81
f 105 81 104
f 105 82 81
f 87 106 89
f 87 66 107
f 87 107 108
f 87 109 106
f 87 108 109
f 89 110 88
f 89 106 110
f 51 52 111
f 57 111 52
f 112 39 38
f 79 39 113
f 112 113 39
f 97 60 99
f 68 114 78
f 68 94 114
f 115 107 66
f 66 103 116
f 115 66 116
f 117 59 78
f 59 118 102
f 117 118 59
f 80 119 104
f 120 119 80
f 80 84 121
f 120 80 121
f 110 100 88
f 56 112 38
f 57 58 101
f 97 99 122
f 122 99 100
f 108 107 115
f 106 109 123
f 110 106 124
f 106 123 124
f 125 104 119
f 105 104 125
f 51 126 84
f 51 111 127
f 51 127 126
f 109 108 128
f 109 128 123
f 129 97 122
f 122 100 130
f 129 122 130
f 56 83 131
f 56 132 112
f 56 131 132
f 133 72 71
f 133 71 92
f 110 134 100
f 134 110 135
f 110 124 135
f 133 70 72
f 117 78 114
f 129 98 97
f 134 136 100
f 100 137 130
f 100 136 137
f 86 98 138
f 129 138 98
f 139 77 74
f 76 77 140
f 139 140 77
f 108 141 128
f 108 115 142
f 108 142 141
f 134 135 143
f 134 144 136
f 144 134 143
f 145 74 75
f 145 139 74
f 125 119 146
f 125 147 148
f 125 149 147
f 105 125 150
f 125 148 150
f 125 146 149
f 151 83 82
f 151 131 83
f 76 152 103
f 76 140 153
f 76 153 152
f 154 135 124
f 155 124 123
f 155 154 124
f 86 156 91
f 86 138 157
f 86 157 156
f 158 111 57
f 57 101 159
f 158 57 159
f 154 143 135
f 141 123 128
f 141 155 123
f 79 145 75
f 160 129 130
f 160 130 137
f 70 161 95
f 133 162 70
f 70 162 161
f 152 116 103
f 163 136 144
f 144 143 164
f 165 144 164
f 163 144 165
f 120 146 119
f 126 121 84
f 163 137 136
f 160 138 129
f 115 116 166
f 152 166 116
f 167 143 154
f 167 164 143
f 85 96 168
f 85 169 93
f 85 168 170
f 85 170 169
f 171 90 91
f 171 91 156
f 172 160 137
f 163 172 137
f 160 173 138
f 160 174 173
f 160 175 174
f 172 175 160
f 168 96 102
f 157 138 173
f 176 173 174
f 157 173 176
f 177 167 154
f 177 154 155
f 142 115 178
f 115 166 178
f 179 114 94
f 117 114 180
f 179 180 114
f 151 82 105
f 165 164 167
f 181 79 113
f 79 182 145
f 181 182 79
f 183 165 167
f 163 165 183
f 184 147 185
f 149 185 147
f 184 148 147
f 183 167 177
f 186 155 141
f 186 177 155
f 95 179 94
f 95 161 179
f 142 186 141
f 142 187 186
f 142 178 187
f 118 188 102
f 168 102 188
f 176 174 189
f 176 189 190
f 176 190 191
f 157 176 191
f 192 92 93
f 192 93 169
f 174 175 193
f 194 189 174
f 194 174 195
f 174 193 195
f 171 101 90
f 196 175 172
f 196 193 175
f 196 172 163
f 163 183 197
f 196 163 197
f 190 189 194
f 105 150 198
f 151 105 199
f 105 198 199
f 158 127 111
f 187 183 177
f 187 177 186
f 112 181 113
f 187 197 183
f 190 200 201
f 190 201 202
f 190 202 191
f 190 203 200
f 190 194 203
f 201 200 204
f 201 204 205
f 201 205 206
f 201 206 202
f 157 191 156
f 171 191 202
f 171 156 191
f 207 118 117
f 118 208 188
f 207 208 118
f 209 184 185
f 209 185 210
f 149 210 185
f 187 178 197
f 196 197 178
f 194 195 153
f 152 195 193
f 152 153 195
f 211 150 148
f 211 198 150
f 145 200 203
f 145 204 200
f 139 203 194
f 139 194 140
f 194 153 140
f 145 203 139
f 152 193 196
f 196 178 166
f 152 196 166
f 205 204 212
f 205 212 213
f 205 213 214
f 205 214 206
f 171 202 206
f 149 146 215
f 120 215 146
f 192 133 92
f 126 216 121
f 120 121 216
f 145 182 204
f 181 204 182
f 181 212 204
f 184 211 148
f 217 159 101
f 171 218 101
f 217 101 218
f 112 132 219
f 112 220 181
f 112 219 220
f 221 213 212
f 214 213 221
f 126 127 222
f 158 222 127
f 209 223 184
f 209 224 223
f 209 225 224
f 226 225 209
f 209 210 227
f 226 209 227
f 214 218 206
f 171 206 218
f 207 117 180
f 221 212 228
f 221 228 229
f 214 221 230
f 221 229 231
f 221 231 232
f 221 232 230
f 181 228 212
f 184 223 233
f 184 234 211
f 184 233 234
f 235 132 131
f 235 219 132
f 181 220 228
f 229 228 220
f 214 230 236
f 214 217 218
f 214 236 217
f 229 237 231
f 238 231 237
f 238 232 231
f 239 223 224
f 239 233 223
f 133 240 162
f 192 241 133
f 133 241 240
f 235 131 151
f 158 159 217
f 229 220 219
f 149 242 210
f 149 215 243
f 149 243 242
f 229 244 237
f 229 235 244
f 229 219 235
f 126 245 216
f 126 222 246
f 126 246 245
f 179 247 180
f 207 180 247
f 248 224 225
f 248 225 249
f 226 249 225
f 151 199 250
f 235 151 251
f 151 250 251
f 252 237 244
f 252 238 237
f 253 230 232
f 253 236 230
f 252 244 254
f 235 254 244
f 239 224 248
f 120 216 255
f 256 215 120
f 256 120 255
f 168 257 170
f 168 188 258
f 168 258 259
f 168 259 257
f 260 199 198
f 260 250 199
f 261 169 170
f 261 170 257
f 258 188 208
f 262 161 162
f 262 162 240
f 179 161 262
f 179 263 247
f 179 262 263
f 242 227 210
f 264 252 254
f 235 251 254
f 264 254 251
f 158 217 236
f 253 222 158
f 253 158 236
f 211 260 198
f 264 265 252
f 252 265 266
f 252 267 238
f 252 266 267
f 261 192 169
f 207 268 208
f 258 208 268
f 264 251 250
f 260 269 264
f 264 269 270
f 260 264 250
f 264 270 265
f 238 253 232
f 211 234 271
f 211 272 260
f 211 271 272
f 248 249 273
f 239 248 274
f 248 275 274
f 248 276 275
f 248 273 276
f 226 277 249
f 273 249 277
f 260 278 269
f 279 269 278
f 279 270 269
f 245 255 216
f 226 227 280
f 242 280 227
f 281 234 233
f 281 271 234
f 253 246 222
f 260 272 278
f 282 278 272
f 279 278 282
f 192 283 241
f 261 284 192
f 192 284 283
f 285 207 247
f 207 286 268
f 285 286 207
f 256 243 215
f 281 233 239
f 287 265 270
f 287 266 265
f 282 272 271
f 239 274 288
f 289 274 275
f 289 288 274
f 238 290 253
f 238 267 291
f 238 291 290
f 282 271 281
f 282 281 292
f 282 292 293
f 279 282 294
f 282 293 294
f 281 239 295
f 239 288 295
f 281 295 296
f 281 296 292
f 297 275 276
f 273 298 276
f 297 276 298
f 253 290 246
f 245 246 290
f 297 289 275
f 285 247 263
f 299 295 288
f 299 296 295
f 300 240 241
f 300 241 283
f 301 277 226
f 226 280 302
f 301 226 302
f 303 292 296
f 303 293 292
f 245 304 255
f 256 255 304
f 273 305 298
f 273 277 306
f 273 307 305
f 273 306 307
f 289 299 288
f 262 308 263
f 285 263 308
f 262 240 300
f 242 243 309
f 256 309 243
f 258 310 259
f 311 257 259
f 311 259 310
f 287 270 279
f 258 268 312
f 258 313 310
f 258 312 313
f 262 314 308
f 262 300 314
f 315 297 298
f 297 316 289
f 315 317 297
f 297 317 318
f 297 318 316
f 311 261 257
f 299 303 296
f 319 291 267
f 319 267 266
f 315 298 305
f 245 290 291
f 312 268 286
f 261 320 284
f 311 321 261
f 261 321 320
f 245 291 319
f 245 319 304
f 301 306 277
f 289 322 299
f 289 316 323
f 289 323 322
f 279 294 324
f 287 279 325
f 279 324 325
f 242 326 280
f 242 309 327
f 242 327 326
f 328 283 284
f 328 284 320
f 285 329 286
f 312 286 329
f 315 330 317
f 331 317 330
f 331 318 317
f 315 305 332
f 315 333 330
f 334 333 315
f 334 315 332
f 299 322 335
f 299 336 303
f 299 335 336
f 256 304 337
f 338 309 256
f 338 256 337
f 307 332 305
f 339 294 293
f 339 324 294
f 340 285 308
f 285 341 329
f 340 341 285
f 300 283 328
f 319 266 287
f 326 302 280
f 342 330 333
f 331 330 342
f 307 306 343
f 301 343 306
f 303 339 293
f 334 344 333
f 342 333 344
f 345 316 318
f 345 323 316
f 340 308 314
f 300 346 314
f 300 328 347
f 300 347 346
f 319 337 304
f 340 314 346
f 348 310 313
f 348 311 310
f 312 349 313
f 348 313 349
f 307 350 332
f 334 332 350
f 311 351 321
f 348 352 311
f 311 352 351
f 353 322 323
f 353 335 322
f 338 327 309
f 301 302 354
f 326 354 302
f 312 329 355
f 312 356 349
f 312 355 356
f 303 336 357
f 303 358 339
f 303 357 358
f 319 287 359
f 319 359 337
f 360 320 321
f 360 321 351
f 287 325 361
f 287 361 359
f 307 362 350
f 307 343 363
f 307 363 362
f 328 320 360
f 345 318 331
f 355 329 341
f 334 364 344
f 342 344 365
f 365 344 364
f 334 350 366
f 367 364 334
f 367 334 366
f 331 342 368
f 342 365 369
f 342 369 370
f 342 370 368
f 371 343 301
f 301 354 372
f 371 301 372
f 328 373 347
f 328 360 374
f 328 374 373
f 326 327 375
f 338 375 327
f 376 325 324
f 376 361 325
f 340 377 341
f 355 341 377
f 378 336 335
f 378 357 336
f 362 366 350
f 353 323 345
f 338 337 359
f 338 359 361
f 379 346 347
f 379 347 373
f 379 340 346
f 340 380 377
f 379 380 340
f 371 363 343
f 381 348 349
f 348 382 352
f 381 383 348
f 348 383 382
f 381 349 356
f 365 364 384
f 367 384 364
f 345 331 385
f 331 368 386
f 331 386 385
f 387 351 352
f 387 352 382
f 365 388 369
f 365 384 389
f 365 389 390
f 365 390 388
f 339 376 324
f 355 391 356
f 381 356 391
f 360 351 387
f 326 392 354
f 326 375 393
f 326 393 392
f 394 369 388
f 394 370 369
f 367 366 395
f 362 395 366
f 360 396 374
f 360 387 397
f 360 397 396
f 355 377 398
f 355 399 391
f 355 398 399
f 362 363 400
f 371 400 363
f 376 338 361
f 367 401 384
f 389 384 401
f 339 358 402
f 339 403 376
f 339 402 403
f 404 373 374
f 404 374 396
f 378 335 353
f 376 375 338
f 345 385 405
f 353 345 406
f 345 405 406
f 392 372 354
f 398 377 380
f 389 407 390
f 408 388 390
f 408 390 407
f 404 379 373
f 409 368 370
f 409 386 368
f 381 410 383
f 411 382 383
f 411 383 410
f 412 381 391
f 381 413 410
f 412 413 381
f 379 414 380
f 398 380 414
f 404 415 379
f 379 415 414
f 387 382 411
f 416 401 367
f 367 395 417
f 416 367 417
f 362 418 395
f 362 400 419
f 362 419 418
f 412 391 399
f 389 420 407
f 389 421 420
f 389 401 422
f 389 422 421
f 387 423 397
f 387 411 424
f 387 424 423
f 425 358 357
f 425 402 358
f 376 393 375
f 376 403 393
f 371 372 426
f 392 426 372
f 427 396 397
f 427 397 423
f 408 394 388
f 398 428 399
f 412 399 428
f 429 407 420
f 429 408 407
f 429 420 430
f 421 430 420
f 431 410 413
f 411 410 431
f 412 432 413
f 431 413 432
f 433 385 386
f 433 405 385
f 427 404 396
f 411 434 424
f 411 431 435
f 411 435 434
f 416 422 401
f 436 429 430
f 429 437 438
f 436 437 429
f 429 439 408
f 429 438 439
f 440 400 371
f 371 426 441
f 440 371 441
f 398 414 442
f 398 443 428
f 398 442 443
f 412 444 432
f 445 444 412
f 445 412 428
f 353 406 446
f 378 353 447
f 353 446 447
f 431 448 449
f 448 450 449
f 431 432 448
f 448 432 444
f 448 451 450
f 448 452 451
f 448 444 453
f 448 453 452
f 454 423 424
f 454 424 434
f 431 449 455
f 456 449 450
f 456 455 449
f 418 417 395
f 457 450 451
f 457 451 458
f 452 458 451
f 404 459 415
f 427 460 404
f 404 460 459
f 431 455 435
f 457 456 450
f 461 462 457
f 457 462 463
f 461 457 458
f 457 464 456
f 457 463 464
f 392 393 403
f 392 403 402
f 461 437 462
f 436 462 437
f 436 463 462
f 436 430 465
f 421 465 430
f 461 438 437
f 394 409 370
f 425 357 378
f 442 414 415
f 461 458 466
f 452 466 458
f 442 415 459
f 467 435 455
f 467 434 435
f 456 467 455
f 445 453 444
f 456 464 468
f 456 469 467
f 456 468 469
f 470 464 463
f 470 468 464
f 452 453 471
f 445 471 453
f 408 439 472
f 408 473 394
f 408 472 473
f 474 438 461
f 461 466 475
f 474 461 475
f 445 428 443
f 454 427 423
f 470 463 436
f 452 476 466
f 452 471 477
f 452 477 476
f 421 422 478
f 416 478 422
f 474 439 438
f 470 436 479
f 436 465 479
f 467 454 434
f 467 469 480
f 467 481 454
f 467 480 481
f 474 472 439
f 482 469 468
f 482 480 469
f 476 475 466
f 482 468 470
f 409 433 386
f 445 443 483
f 484 471 445
f 484 445 483
f 454 485 427
f 427 486 460
f 427 485 486
f 442 483 443
f 484 477 471
f 454 481 487
f 454 487 485
f 470 479 488
f 482 470 489
f 470 488 489
f 476 490 475
f 474 475 490
f 421 491 465
f 421 492 491
f 421 478 492
f 416 417 493
f 418 493 417
f 494 481 480
f 494 487 481
f 476 477 495
f 484 495 477
f 440 419 400
f 494 480 482
f 496 459 460
f 496 460 486
f 442 459 496
f 442 497 483
f 442 496 497
f 491 479 465
f 491 488 479
f 392 402 425
f 498 406 405
f 498 446 406
f 476 495 499
f 476 500 490
f 476 499 500
f 474 490 501
f 502 472 474
f 502 474 501
f 394 473 503
f 394 504 409
f 394 503 504
f 505 485 487
f 505 486 485
f 494 482 506
f 482 489 507
f 482 507 506
f 484 483 497
f 508 495 484
f 484 497 509
f 508 484 509
f 505 487 494
f 392 425 426
f 425 378 510
f 378 447 511
f 378 511 510
f 508 499 495
f 496 486 505
f 505 494 512
f 494 513 512
f 494 506 513
f 496 509 497
f 514 489 488
f 514 507 489
f 496 505 515
f 496 515 509
f 505 516 515
f 505 512 516
f 508 509 515
f 500 501 490
f 502 473 472
f 508 515 516
f 517 516 512
f 517 512 513
f 517 508 516
f 508 518 499
f 517 518 508
f 519 478 416
f 416 493 520
f 519 416 520
f 521 513 506
f 521 506 507
f 500 499 518
f 502 503 473
f 418 419 522
f 440 522 419
f 491 514 488
f 425 441 426
f 425 510 441
f 521 517 513
f 433 498 405
f 500 523 501
f 502 501 523
f 514 521 507
f 517 524 518
f 521 525 517
f 517 525 524
f 500 518 524
f 500 524 526
f 500 526 523
f 527 447 446
f 527 511 447
f 491 492 528
f 491 529 514
f 491 528 529
f 519 492 478
f 409 530 433
f 409 504 531
f 409 531 530
f 521 532 525
f 514 533 521
f 521 533 532
f 519 528 492
f 526 524 525
f 502 523 534
f 535 503 502
f 535 502 534
f 526 525 532
f 418 536 493
f 418 522 537
f 418 537 536
f 514 538 533
f 514 529 538
f 433 530 539
f 433 540 498
f 433 539 540
f 440 441 510
f 498 527 446
f 526 534 523
f 535 504 503
f 440 510 511
f 535 531 504
f 541 532 533
f 541 533 538
f 536 520 493
f 526 532 541
f 542 529 528
f 542 538 529
f 526 543 534
f 526 541 543
f 527 440 511
f 527 522 440
f 544 530 531
f 544 539 530
f 535 534 543
f 498 545 527
f 498 540 546
f 498 546 545
f 527 537 522
f 527 545 537
f 542 528 519
f 519 520 547
f 536 547 520
f 541 538 542
f 544 531 535
f 535 543 548
f 544 535 548
f 542 519 549
f 519 547 549
f 550 540 539
f 550 546 540
f 541 548 543
f 541 542 551
f 541 551 548
f 542 552 551
f 542 549 552
f 536 537 545
f 536 545 546
f 550 539 544
f 544 548 551
f 544 551 552
f 550 544 552
f 536 546 550
f 536 550 547
f 550 552 549
f 550 549 547
