# 
# Wavefront OBJ file
# Created with Kaydara FBX
# 
mtllib c:\users\tjvan\onedrive\documenten\fontys\minor\nx\.mtlmodels\fibular_collateral_ligament.r.obj

g Fibular_collateral_ligament_r
v -0.122617 0.406260 -0.042093
v -0.122920 0.406610 -0.040370
v -0.122657 0.407298 -0.041518
v -0.122065 0.409030 -0.040779
v -0.122620 0.405933 -0.040809
v -0.122485 0.406594 -0.039393
v -0.122356 0.407369 -0.039129
v -0.122447 0.407761 -0.039794
v -0.122254 0.406930 -0.043100
v -0.122240 0.407919 -0.042864
v -0.122114 0.406395 -0.040732
v -0.122056 0.406151 -0.039592
v -0.121775 0.406450 -0.039560
v -0.121694 0.407039 -0.043234
v -0.122025 0.406592 -0.042161
v -0.121895 0.406991 -0.038748
v -0.122051 0.408605 -0.039126
v -0.122072 0.407712 -0.038547
v -0.122136 0.407994 -0.038790
v -0.122069 0.407377 -0.038657
v -0.121894 0.408340 -0.043839
v -0.121937 0.407441 -0.043804
v -0.121919 0.409615 -0.042692
v -0.121822 0.410086 -0.043780
v -0.121879 0.407759 -0.038307
v -0.121788 0.408834 -0.038434
v -0.121906 0.408196 -0.038374
v -0.121262 0.407800 -0.040303
v -0.121473 0.406780 -0.038818
v -0.121841 0.407475 -0.038373
v -0.121693 0.409721 -0.039397
v -0.121401 0.411851 -0.042060
v -0.121336 0.411549 -0.040724
v -0.120977 0.408170 -0.043402
v -0.121166 0.407988 -0.042043
v -0.121656 0.407773 -0.044165
v -0.121435 0.407424 -0.043912
v -0.121289 0.407713 -0.044232
v -0.121325 0.412142 -0.043022
v -0.121552 0.407694 -0.038131
v -0.121471 0.408820 -0.037916
v -0.121579 0.408160 -0.038045
v -0.121585 0.407347 -0.038336
v -0.121196 0.407256 -0.038344
v -0.121539 0.410342 -0.044265
v -0.121513 0.408587 -0.044353
v -0.121456 0.409868 -0.038347
v -0.121312 0.406907 -0.038824
v -0.121325 0.407259 -0.039367
v -0.121144 0.407278 -0.038788
v -0.121021 0.411707 -0.038285
v -0.121188 0.411586 -0.039371
v -0.121117 0.407620 -0.038085
v -0.121057 0.408082 -0.037946
v -0.120991 0.408560 -0.044471
v -0.120991 0.412292 -0.043579
v -0.120974 0.410360 -0.044396
v -0.120348 0.412254 -0.043752
v -0.121149 0.409880 -0.037666
v -0.120545 0.409808 -0.037463
v -0.120889 0.408743 -0.037759
v -0.120931 0.408382 -0.044156
v -0.120728 0.414225 -0.040432
v -0.120721 0.414398 -0.041573
v -0.120835 0.408608 -0.039351
v -0.121029 0.407615 -0.038678
v -0.121014 0.407917 -0.038969
v -0.120370 0.414757 -0.043113
v -0.120642 0.414627 -0.042492
v -0.121088 0.407284 -0.038376
v -0.120683 0.409898 -0.042265
v -0.120366 0.409825 -0.039401
v -0.120534 0.409763 -0.040580
v -0.121016 0.407627 -0.038169
v -0.120484 0.414659 -0.038375
v -0.120652 0.414337 -0.039286
v -0.121040 0.407388 -0.038455
v -0.120682 0.411869 -0.037630
v -0.120042 0.411877 -0.037432
v -0.120949 0.408093 -0.038098
v -0.120983 0.407663 -0.038391
v -0.120915 0.408113 -0.038488
v -0.120728 0.408773 -0.038556
v -0.120838 0.410262 -0.044162
v -0.120738 0.410090 -0.043547
v -0.120179 0.412188 -0.043496
v -0.119705 0.414704 -0.043332
v -0.120773 0.408754 -0.037974
v -0.120412 0.409804 -0.037715
v -0.120347 0.409812 -0.038399
v -0.120074 0.412057 -0.042888
v -0.119966 0.411881 -0.041916
v -0.120129 0.417507 -0.040960
v -0.120022 0.417608 -0.039110
v -0.120106 0.417465 -0.040037
v -0.120074 0.417662 -0.041800
v -0.120145 0.414915 -0.037747
v -0.119464 0.414939 -0.037507
v -0.119893 0.417885 -0.038274
v -0.119845 0.417754 -0.042467
v -0.119865 0.411692 -0.040662
v -0.119895 0.411781 -0.037689
v -0.119825 0.411589 -0.039397
v -0.119838 0.411629 -0.038358
v -0.119503 0.414637 -0.043038
v -0.119633 0.418092 -0.037616
v -0.119000 0.418099 -0.037329
v -0.119562 0.420527 -0.039748
v -0.119582 0.420498 -0.040621
v -0.119498 0.420697 -0.038870
v -0.119391 0.414510 -0.042391
v -0.119546 0.420596 -0.041436
v -0.119267 0.414272 -0.040412
v -0.119316 0.414369 -0.041481
v -0.119232 0.414545 -0.038457
v -0.119289 0.414794 -0.037803
v -0.119176 0.421149 -0.037368
v -0.119372 0.420968 -0.038048
v -0.119239 0.414326 -0.039357
v -0.119198 0.417686 -0.042749
v -0.119344 0.420739 -0.042111
v -0.118752 0.420690 -0.042409
v -0.118972 0.417615 -0.042441
v -0.118612 0.421153 -0.037059
v -0.119209 0.423206 -0.040452
v -0.119147 0.423228 -0.041229
v -0.119214 0.423263 -0.039589
v -0.118926 0.423272 -0.041817
v -0.118865 0.417522 -0.041778
v -0.119058 0.423580 -0.037866
v -0.119168 0.423404 -0.038705
v -0.118801 0.417455 -0.040954
v -0.118887 0.423698 -0.037172
v -0.118383 0.423209 -0.042025
v -0.118756 0.417445 -0.040058
v -0.118734 0.417717 -0.038314
v -0.118800 0.417944 -0.037651
v -0.118729 0.417530 -0.039154
v -0.118887 0.425568 -0.039435
v -0.118865 0.425520 -0.040293
v -0.118859 0.425651 -0.038548
v -0.118508 0.420621 -0.042092
v -0.118766 0.425751 -0.037707
v -0.118784 0.425505 -0.041039
v -0.118554 0.425490 -0.041563
v -0.118584 0.425832 -0.037012
v -0.118372 0.423687 -0.036835
v -0.118114 0.425816 -0.036672
v -0.118608 0.427602 -0.040094
v -0.118645 0.427639 -0.039248
v -0.118400 0.420551 -0.041436
v -0.118508 0.427581 -0.040824
v -0.118618 0.427696 -0.038371
v -0.118338 0.420517 -0.040633
v -0.118305 0.420814 -0.038078
v -0.118384 0.421014 -0.037393
v -0.118266 0.427547 -0.041330
v -0.118287 0.420645 -0.038900
v -0.118299 0.420545 -0.039770
v -0.118507 0.427767 -0.037545
v -0.118285 0.427826 -0.036867
v -0.118464 0.429621 -0.039042
v -0.118440 0.429678 -0.038151
v -0.118124 0.423574 -0.037178
v -0.118405 0.429580 -0.039894
v -0.118310 0.429744 -0.037313
v -0.117850 0.427811 -0.036527
v -0.118064 0.425419 -0.041728
v -0.117796 0.427467 -0.041484
v -0.118069 0.423141 -0.041197
v -0.118166 0.423170 -0.041774
v -0.118273 0.429549 -0.040617
v -0.118053 0.429798 -0.036638
v -0.118289 0.431621 -0.038839
v -0.118194 0.431568 -0.039707
v -0.118279 0.431687 -0.037928
v -0.118023 0.423143 -0.040430
v -0.118018 0.431526 -0.040436
v -0.118038 0.423424 -0.037874
v -0.117856 0.425382 -0.041514
v -0.117863 0.425711 -0.037003
v -0.118003 0.423192 -0.039573
v -0.118006 0.423289 -0.038699
v -0.118003 0.429505 -0.041107
v -0.117710 0.431472 -0.040925
v -0.118132 0.431757 -0.037075
v -0.118132 0.433794 -0.037661
v -0.118120 0.433728 -0.038593
v -0.117970 0.433856 -0.036800
v -0.117977 0.433670 -0.039484
v -0.117763 0.425358 -0.040988
v -0.117836 0.431807 -0.036400
v -0.117634 0.433890 -0.036130
v -0.117991 0.435958 -0.038247
v -0.117808 0.435899 -0.039176
v -0.118015 0.436018 -0.037292
v -0.117576 0.427420 -0.041275
v -0.117631 0.429785 -0.036307
v -0.117406 0.431792 -0.036073
v -0.117732 0.425472 -0.038531
v -0.117772 0.425582 -0.037697
v -0.117723 0.425360 -0.040255
v -0.117716 0.425397 -0.039409
v -0.117536 0.429423 -0.041251
v -0.117240 0.431390 -0.041067
v -0.117740 0.433618 -0.040227
v -0.117905 0.438354 -0.036846
v -0.117838 0.436064 -0.036434
v -0.117714 0.438388 -0.036014
v -0.117887 0.438298 -0.037816
v -0.117514 0.435837 -0.039955
v -0.117804 0.440766 -0.037336
v -0.117808 0.440818 -0.036350
v -0.117685 0.438233 -0.038792
v -0.117600 0.440698 -0.038371
v -0.117599 0.427711 -0.036831
v -0.117507 0.427585 -0.037515
v -0.117370 0.429683 -0.036590
v -0.117177 0.433863 -0.035812
v -0.117341 0.438380 -0.035429
v -0.117474 0.436076 -0.035794
v -0.117446 0.427387 -0.040051
v -0.117481 0.427392 -0.040768
v -0.117467 0.427481 -0.038346
v -0.117754 0.443469 -0.035779
v -0.117762 0.443436 -0.036785
v -0.117544 0.443473 -0.035008
v -0.117606 0.440842 -0.035554
v -0.117793 0.446402 -0.036189
v -0.117588 0.446380 -0.037370
v -0.117565 0.443378 -0.037881
v -0.117784 0.446386 -0.035136
v -0.117803 0.449656 -0.034530
v -0.117589 0.449539 -0.033749
v -0.117561 0.446349 -0.034363
v -0.117782 0.449766 -0.035633
v -0.117681 0.453467 -0.034694
v -0.117728 0.453225 -0.033517
v -0.117424 0.453691 -0.036204
v -0.117540 0.449832 -0.036923
v -0.117446 0.427414 -0.039217
v -0.117379 0.433553 -0.040716
v -0.117102 0.435757 -0.040470
v -0.117367 0.456911 -0.032213
v -0.117535 0.452990 -0.032760
v -0.117207 0.456640 -0.031376
v -0.117248 0.440611 -0.039276
v -0.117352 0.438158 -0.039627
v -0.117342 0.457162 -0.033560
v -0.117132 0.431688 -0.036336
v -0.117266 0.429549 -0.037269
v -0.117154 0.443434 -0.034522
v -0.117225 0.440819 -0.035027
v -0.117221 0.446299 -0.038430
v -0.117164 0.449428 -0.033279
v -0.117301 0.429370 -0.041055
v -0.117204 0.429338 -0.040554
v -0.117208 0.443286 -0.038857
v -0.117150 0.446285 -0.033891
v -0.116989 0.431331 -0.040870
v -0.117003 0.453850 -0.037649
v -0.117140 0.449809 -0.038103
v -0.116847 0.456396 -0.030928
v -0.117117 0.452799 -0.032328
v -0.117177 0.429333 -0.039838
v -0.117187 0.429362 -0.038997
v -0.117218 0.429435 -0.038112
v -0.116849 0.438309 -0.035192
v -0.116990 0.436028 -0.035512
v -0.117165 0.457422 -0.035239
v -0.116906 0.433465 -0.040859
v -0.116617 0.435657 -0.040631
v -0.116781 0.460242 -0.032936
v -0.116767 0.460153 -0.031569
v -0.116775 0.440492 -0.039899
v -0.116902 0.438059 -0.040191
v -0.116679 0.460465 -0.034506
v -0.116892 0.431295 -0.040362
v -0.116948 0.431413 -0.037864
v -0.117012 0.431544 -0.037008
v -0.116900 0.431326 -0.038771
v -0.116668 0.443342 -0.034353
v -0.116728 0.440731 -0.034833
v -0.116737 0.446149 -0.039165
v -0.116731 0.443151 -0.039539
v -0.116607 0.460047 -0.030658
v -0.116874 0.431289 -0.039633
v -0.116885 0.433757 -0.036057
v -0.116682 0.435913 -0.035759
v -0.116663 0.449323 -0.033099
v -0.116836 0.457709 -0.036797
v -0.116437 0.460753 -0.036027
v -0.116656 0.446190 -0.033723
v -0.116749 0.433609 -0.036721
v -0.116454 0.453828 -0.038624
v -0.116634 0.449665 -0.038912
v -0.116441 0.456251 -0.030783
v -0.116627 0.452671 -0.032160
v -0.116664 0.433473 -0.037589
v -0.116643 0.433397 -0.040663
v -0.116536 0.438188 -0.035427
v -0.116543 0.433342 -0.039407
v -0.116546 0.433352 -0.040153
v -0.116592 0.433381 -0.038519
v -0.116342 0.435578 -0.040435
v -0.116533 0.435768 -0.036408
v -0.116262 0.440358 -0.040132
v -0.116406 0.437943 -0.040387
v -0.116247 0.459909 -0.030194
v -0.116360 0.457915 -0.037920
v -0.116041 0.461026 -0.037176
v -0.116295 0.462301 -0.031467
v -0.116124 0.462366 -0.030636
v -0.116343 0.462222 -0.032689
v -0.116386 0.443229 -0.034541
v -0.116426 0.440609 -0.035053
v -0.116199 0.445972 -0.039443
v -0.116211 0.442998 -0.039804
v -0.116288 0.462327 -0.034062
v -0.116334 0.435548 -0.038211
v -0.116429 0.435636 -0.037266
v -0.116433 0.449262 -0.033223
v -0.116403 0.446099 -0.033879
v -0.116248 0.435526 -0.039908
v -0.115766 0.453605 -0.038951
v -0.116048 0.449451 -0.039204
v -0.116413 0.452646 -0.032264
v -0.116243 0.456253 -0.030871
v -0.115824 0.462303 -0.030340
v -0.116262 0.435514 -0.039128
v -0.116385 0.438046 -0.036037
v -0.116275 0.437919 -0.036873
v -0.116285 0.440474 -0.035612
v -0.116162 0.437833 -0.037830
v -0.116258 0.443113 -0.035050
v -0.116357 0.449245 -0.033654
v -0.115945 0.459814 -0.030139
v -0.116137 0.462545 -0.035401
v -0.116122 0.437855 -0.040188
v -0.115973 0.440265 -0.039926
v -0.116308 0.446023 -0.034346
v -0.116346 0.452717 -0.032657
v -0.116171 0.456387 -0.031219
v -0.116180 0.440358 -0.036416
v -0.116304 0.449268 -0.034423
v -0.115506 0.461148 -0.037653
v -0.115758 0.457911 -0.038374
v -0.116292 0.452874 -0.033414
v -0.116124 0.456634 -0.031980
v -0.116067 0.463396 -0.032527
v -0.116029 0.463325 -0.033649
v -0.116242 0.445964 -0.035117
v -0.116162 0.453067 -0.034646
v -0.116136 0.445927 -0.036177
v -0.116189 0.449309 -0.035551
v -0.116041 0.456913 -0.033371
v -0.116012 0.463547 -0.031542
v -0.115928 0.463342 -0.034669
v -0.116034 0.437805 -0.039624
v -0.116066 0.437795 -0.038793
v -0.116165 0.443013 -0.035832
v -0.115769 0.459807 -0.030261
v -0.115597 0.462226 -0.030576
v -0.115930 0.445872 -0.039215
v -0.115923 0.442903 -0.039588
v -0.116060 0.440270 -0.037388
v -0.115947 0.440224 -0.038409
v -0.116049 0.442935 -0.036834
v -0.115940 0.453261 -0.036273
v -0.116007 0.449331 -0.036910
v -0.115702 0.459877 -0.030580
v -0.115927 0.442892 -0.037930
v -0.115996 0.445887 -0.037383
v -0.115850 0.462726 -0.036353
v -0.115733 0.463397 -0.035206
v -0.115895 0.440222 -0.039312
v -0.115667 0.459959 -0.031401
v -0.115850 0.463642 -0.030858
v -0.115896 0.463780 -0.032509
v -0.115787 0.463885 -0.031931
v -0.115820 0.449337 -0.038961
v -0.115591 0.453465 -0.038700
v -0.115917 0.457184 -0.035261
v -0.115601 0.460316 -0.034350
v -0.115639 0.460043 -0.032761
v -0.115662 0.463601 -0.033947
v -0.115804 0.463691 -0.033225
v -0.115846 0.449333 -0.038153
v -0.115674 0.463892 -0.031363
v -0.115858 0.442874 -0.038917
v -0.115896 0.445859 -0.038482
v -0.115756 0.457491 -0.036928
v -0.115707 0.453402 -0.037785
v -0.115535 0.460643 -0.035925
v -0.115450 0.462128 -0.030824
v -0.115449 0.463392 -0.035128
v -0.115443 0.462791 -0.036695
v -0.115667 0.463484 -0.030774
v -0.115630 0.463758 -0.032701
v -0.115500 0.463556 -0.031761
v -0.115629 0.457739 -0.038036
v -0.115436 0.460963 -0.037191
v -0.115393 0.462065 -0.030894
v -0.115427 0.463532 -0.033485
v -0.115382 0.461985 -0.031531
v -0.115386 0.461930 -0.032558
v -0.115382 0.462146 -0.033806
v -0.115372 0.462678 -0.036363
v -0.115386 0.462468 -0.035135
v -0.115422 0.463443 -0.032069
v -0.115291 0.463110 -0.035220
v -0.115349 0.463135 -0.034136
v -0.115227 0.462691 -0.031723
v -0.115249 0.463131 -0.032786
v -0.115206 0.462680 -0.032117
v -0.115190 0.462575 -0.032580
v -0.115272 0.462821 -0.033359
usemtl Fibular_collateral_ligament_rMaterial0
f 1 2 3
f 4 3 2
f 1 5 2
f 5 6 2
f 7 2 6
f 7 8 2
f 4 2 8
f 9 1 3
f 9 3 10
f 4 10 3
f 1 11 5
f 5 12 6
f 5 11 13
f 5 13 12
f 14 1 9
f 1 15 11
f 14 15 1
f 16 7 6
f 16 6 12
f 7 17 8
f 4 8 17
f 7 18 19
f 7 19 17
f 7 20 18
f 16 20 7
f 9 10 21
f 9 21 22
f 14 9 22
f 4 23 10
f 24 10 23
f 24 21 10
f 19 18 25
f 19 26 17
f 19 25 27
f 19 27 26
f 28 11 15
f 13 11 28
f 16 12 29
f 13 29 12
f 18 20 30
f 16 30 20
f 18 30 25
f 4 17 31
f 31 17 26
f 4 32 23
f 31 33 4
f 4 33 32
f 34 15 14
f 28 15 35
f 34 35 15
f 36 22 21
f 14 22 37
f 38 22 36
f 38 37 22
f 39 24 23
f 39 23 32
f 27 25 40
f 27 41 26
f 27 40 42
f 27 42 41
f 16 43 30
f 44 43 16
f 44 16 29
f 45 21 24
f 36 21 46
f 45 46 21
f 43 25 30
f 43 40 25
f 39 45 24
f 31 26 47
f 41 47 26
f 13 48 29
f 13 28 49
f 13 49 50
f 13 50 48
f 34 14 37
f 31 47 51
f 31 52 33
f 31 51 52
f 38 36 46
f 44 40 43
f 42 40 53
f 41 42 54
f 42 53 54
f 44 53 40
f 45 55 46
f 39 56 45
f 45 57 55
f 45 58 57
f 45 56 58
f 38 46 55
f 44 29 48
f 41 59 47
f 41 60 59
f 41 54 61
f 41 61 60
f 59 51 47
f 38 62 37
f 34 37 62
f 63 32 33
f 64 39 32
f 63 64 32
f 52 63 33
f 49 28 65
f 49 66 50
f 49 67 66
f 49 65 67
f 39 68 56
f 64 69 39
f 39 69 68
f 44 48 70
f 70 48 50
f 38 55 62
f 28 35 71
f 28 72 65
f 28 71 73
f 28 73 72
f 74 53 44
f 74 44 70
f 52 51 75
f 52 76 63
f 52 75 76
f 34 71 35
f 70 50 77
f 66 77 50
f 59 78 51
f 59 79 78
f 59 60 79
f 74 54 53
f 74 70 77
f 74 80 54
f 61 54 80
f 66 81 77
f 74 77 81
f 67 81 66
f 82 74 81
f 82 80 74
f 67 82 81
f 67 83 82
f 67 65 83
f 78 75 51
f 84 34 62
f 84 85 34
f 34 85 71
f 57 62 55
f 57 84 62
f 57 86 84
f 57 58 86
f 87 56 68
f 87 58 56
f 82 88 80
f 61 80 88
f 82 83 88
f 89 61 88
f 89 60 61
f 90 83 65
f 90 65 72
f 84 91 85
f 84 86 91
f 90 88 83
f 90 89 88
f 92 71 85
f 92 85 91
f 63 93 64
f 63 76 94
f 63 95 93
f 63 94 95
f 64 96 69
f 64 93 96
f 92 73 71
f 78 97 75
f 78 98 97
f 78 79 98
f 99 76 75
f 99 94 76
f 100 68 69
f 100 69 96
f 89 79 60
f 101 72 73
f 92 101 73
f 97 99 75
f 90 102 89
f 89 102 79
f 103 90 72
f 101 103 72
f 100 87 68
f 90 104 102
f 103 104 90
f 87 86 58
f 105 91 86
f 87 105 86
f 97 106 99
f 97 107 106
f 97 98 107
f 108 93 95
f 109 96 93
f 108 109 93
f 110 95 94
f 110 108 95
f 111 92 91
f 105 111 91
f 112 100 96
f 109 112 96
f 102 98 79
f 99 110 94
f 92 113 101
f 111 114 92
f 92 114 113
f 102 104 115
f 102 116 98
f 102 115 116
f 99 106 117
f 99 118 110
f 99 117 118
f 101 119 103
f 101 113 119
f 103 115 104
f 100 120 87
f 112 121 100
f 100 121 122
f 100 122 120
f 103 119 115
f 87 123 105
f 87 120 123
f 124 117 106
f 124 106 107
f 108 125 109
f 109 126 112
f 109 125 126
f 110 127 108
f 108 127 125
f 112 128 121
f 112 126 128
f 105 129 111
f 105 123 129
f 110 118 130
f 110 131 127
f 110 130 131
f 116 107 98
f 111 132 114
f 111 129 132
f 133 118 117
f 133 130 118
f 134 121 128
f 134 122 121
f 135 113 114
f 135 114 132
f 116 115 136
f 116 137 107
f 116 136 137
f 135 119 113
f 138 115 119
f 135 138 119
f 138 136 115
f 139 125 127
f 140 126 125
f 139 140 125
f 141 127 131
f 141 139 127
f 142 123 120
f 142 120 122
f 124 133 117
f 143 131 130
f 143 141 131
f 144 128 126
f 140 144 126
f 133 143 130
f 137 124 107
f 142 129 123
f 144 145 128
f 145 134 128
f 133 146 143
f 124 147 133
f 133 148 146
f 133 147 148
f 139 149 140
f 141 150 139
f 139 150 149
f 151 132 129
f 142 151 129
f 140 152 144
f 140 149 152
f 143 153 141
f 141 153 150
f 154 135 132
f 151 154 132
f 137 136 155
f 137 156 124
f 137 155 156
f 144 157 145
f 144 152 157
f 135 158 138
f 154 159 135
f 135 159 158
f 134 142 122
f 143 160 153
f 143 146 161
f 143 161 160
f 138 155 136
f 138 158 155
f 162 149 150
f 163 150 153
f 163 162 150
f 124 156 164
f 124 164 147
f 165 152 149
f 162 165 149
f 166 153 160
f 166 163 153
f 167 161 146
f 167 146 148
f 145 168 134
f 145 157 169
f 145 169 168
f 142 170 151
f 134 171 142
f 142 171 170
f 165 172 152
f 172 157 152
f 173 160 161
f 173 166 160
f 163 174 162
f 162 175 165
f 162 174 175
f 166 176 163
f 163 176 174
f 151 177 154
f 151 170 177
f 165 178 172
f 165 175 178
f 179 156 155
f 179 164 156
f 134 180 171
f 134 168 180
f 181 147 164
f 181 148 147
f 154 182 159
f 154 177 182
f 158 159 182
f 158 179 155
f 158 183 179
f 158 182 183
f 172 184 157
f 184 169 157
f 167 173 161
f 172 185 184
f 172 178 185
f 166 186 176
f 173 186 166
f 187 174 176
f 188 175 174
f 187 188 174
f 189 176 186
f 189 187 176
f 188 190 175
f 190 178 175
f 191 170 171
f 191 171 180
f 179 181 164
f 181 167 148
f 173 192 186
f 193 189 186
f 193 186 192
f 187 194 188
f 188 194 195
f 188 195 190
f 187 196 194
f 189 196 187
f 191 177 170
f 197 180 168
f 197 168 169
f 167 198 173
f 173 199 192
f 173 198 199
f 179 183 200
f 179 201 181
f 179 200 201
f 202 182 177
f 191 202 177
f 203 183 182
f 202 203 182
f 203 200 183
f 184 204 169
f 184 185 205
f 184 205 204
f 190 206 178
f 206 185 178
f 207 194 196
f 189 208 196
f 209 207 196
f 209 196 208
f 207 210 194
f 210 195 194
f 190 195 211
f 190 211 206
f 193 208 189
f 207 212 210
f 207 213 212
f 209 213 207
f 210 214 195
f 210 212 215
f 210 215 214
f 197 191 180
f 181 216 167
f 181 201 217
f 181 217 216
f 167 218 198
f 167 216 218
f 219 193 192
f 219 192 199
f 220 209 208
f 193 221 208
f 220 208 221
f 191 222 202
f 197 223 191
f 191 223 222
f 224 201 200
f 224 217 201
f 204 197 169
f 214 211 195
f 225 212 213
f 225 226 212
f 226 215 212
f 227 225 213
f 209 228 213
f 227 213 228
f 225 229 226
f 226 229 230
f 226 231 215
f 226 230 231
f 225 232 229
f 227 232 225
f 233 229 232
f 234 233 232
f 234 232 235
f 227 235 232
f 233 236 229
f 236 230 229
f 233 237 236
f 233 238 237
f 234 238 233
f 236 237 239
f 236 240 230
f 236 239 240
f 202 241 203
f 202 222 241
f 203 224 200
f 203 241 224
f 206 242 185
f 242 205 185
f 206 211 243
f 206 243 242
f 220 228 209
f 244 237 238
f 234 245 238
f 246 238 245
f 246 244 238
f 214 215 247
f 214 248 211
f 214 247 248
f 249 239 237
f 244 249 237
f 250 199 198
f 250 198 218
f 219 221 193
f 251 216 217
f 251 218 216
f 231 247 215
f 252 227 228
f 220 253 228
f 252 228 253
f 231 230 254
f 240 254 230
f 255 234 235
f 255 245 234
f 204 256 197
f 197 257 223
f 197 256 257
f 231 258 247
f 231 254 258
f 252 235 227
f 255 235 259
f 252 259 235
f 204 260 256
f 204 205 260
f 240 239 261
f 240 262 254
f 240 261 262
f 263 246 245
f 255 264 245
f 263 245 264
f 224 251 217
f 248 243 211
f 265 222 223
f 265 223 257
f 224 241 266
f 224 267 251
f 224 266 267
f 268 220 221
f 219 269 221
f 268 221 269
f 265 241 222
f 265 266 241
f 249 270 239
f 270 261 239
f 250 219 199
f 251 250 218
f 242 271 205
f 242 243 272
f 242 272 271
f 244 273 249
f 246 274 244
f 244 274 273
f 248 247 275
f 248 276 243
f 248 275 276
f 268 253 220
f 249 277 270
f 249 273 277
f 278 257 256
f 278 256 260
f 251 267 279
f 251 280 250
f 251 279 280
f 271 260 205
f 258 275 247
f 278 265 257
f 281 267 266
f 281 279 267
f 282 252 253
f 268 283 253
f 282 253 283
f 258 254 284
f 258 285 275
f 258 284 285
f 262 284 254
f 263 286 246
f 246 286 274
f 265 281 266
f 278 287 265
f 265 287 281
f 250 288 219
f 219 289 269
f 219 288 289
f 290 255 259
f 290 264 255
f 270 291 261
f 270 292 291
f 270 277 292
f 282 259 252
f 282 293 259
f 290 259 293
f 250 280 294
f 250 294 288
f 262 261 295
f 262 296 284
f 262 295 296
f 297 263 264
f 290 298 264
f 297 264 298
f 276 272 243
f 299 280 279
f 299 294 280
f 291 295 261
f 300 278 260
f 271 300 260
f 301 268 269
f 301 269 289
f 281 299 279
f 278 302 287
f 300 303 278
f 278 303 302
f 281 287 302
f 281 304 299
f 281 302 304
f 271 305 300
f 271 272 305
f 306 288 294
f 306 289 288
f 276 275 307
f 276 308 272
f 276 307 308
f 301 283 268
f 263 309 286
f 297 309 263
f 291 310 295
f 291 292 311
f 291 311 310
f 285 307 275
f 312 273 274
f 313 274 286
f 313 312 274
f 314 277 273
f 312 314 273
f 299 306 294
f 315 282 283
f 301 316 283
f 315 283 316
f 285 284 317
f 285 318 307
f 285 317 318
f 296 317 284
f 306 301 289
f 319 292 277
f 314 319 277
f 299 304 320
f 299 321 306
f 299 320 321
f 315 293 282
f 322 290 293
f 322 293 323
f 315 323 293
f 322 298 290
f 300 324 303
f 300 305 324
f 308 305 272
f 296 295 325
f 296 326 317
f 296 325 326
f 322 327 298
f 328 297 298
f 328 298 327
f 329 286 309
f 329 313 286
f 330 304 302
f 330 320 304
f 330 302 303
f 330 303 324
f 306 331 301
f 306 321 332
f 306 332 331
f 301 333 316
f 301 331 333
f 310 325 295
f 334 321 320
f 334 332 321
f 335 315 316
f 335 316 333
f 336 322 323
f 336 327 322
f 328 337 297
f 297 337 309
f 319 338 292
f 338 311 292
f 308 339 305
f 308 307 340
f 308 340 339
f 335 323 315
f 336 323 341
f 335 341 323
f 336 342 327
f 343 327 342
f 343 328 327
f 344 331 332
f 344 333 331
f 345 342 336
f 345 336 341
f 310 311 346
f 310 347 325
f 310 346 347
f 330 334 320
f 339 324 305
f 345 348 342
f 349 342 348
f 349 343 342
f 312 350 314
f 314 351 319
f 314 350 351
f 334 344 332
f 344 335 333
f 345 341 352
f 335 352 341
f 345 353 348
f 354 345 352
f 345 355 353
f 354 355 345
f 356 348 353
f 356 349 348
f 313 357 312
f 312 357 350
f 319 358 338
f 319 351 358
f 359 330 324
f 330 360 334
f 359 360 330
f 339 359 324
f 318 340 307
f 335 361 352
f 344 361 335
f 354 352 361
f 343 362 328
f 328 362 337
f 363 309 337
f 363 329 309
f 318 317 364
f 318 365 340
f 318 364 365
f 334 366 344
f 334 360 367
f 334 367 366
f 344 368 361
f 344 366 368
f 354 361 368
f 326 364 317
f 369 353 355
f 354 370 355
f 369 355 370
f 369 356 353
f 349 371 343
f 343 371 362
f 372 354 368
f 354 373 370
f 372 373 354
f 338 374 311
f 338 358 375
f 338 375 374
f 339 376 359
f 339 340 376
f 356 377 349
f 349 377 371
f 313 378 357
f 329 378 313
f 359 367 360
f 372 368 366
f 372 366 367
f 379 351 350
f 350 357 380
f 350 380 379
f 359 376 367
f 326 381 364
f 326 382 381
f 326 325 382
f 369 383 356
f 356 383 384
f 356 385 377
f 356 384 385
f 374 346 311
f 386 358 351
f 379 387 351
f 386 351 387
f 388 370 373
f 388 369 370
f 357 378 389
f 357 389 380
f 390 373 372
f 390 391 373
f 388 373 391
f 365 376 340
f 390 372 367
f 390 367 376
f 365 364 391
f 365 390 376
f 365 391 390
f 381 391 364
f 369 392 383
f 388 393 369
f 369 393 392
f 394 383 392
f 394 384 383
f 395 337 362
f 395 363 337
f 386 375 358
f 381 388 391
f 387 379 380
f 381 393 388
f 374 375 396
f 374 397 346
f 374 396 397
f 329 398 378
f 398 389 378
f 381 382 393
f 363 398 329
f 387 380 399
f 386 387 399
f 380 389 400
f 380 400 399
f 347 382 325
f 401 392 393
f 401 394 392
f 347 401 382
f 347 402 401
f 347 346 402
f 403 362 371
f 403 395 362
f 404 375 386
f 404 396 375
f 401 393 382
f 405 371 377
f 405 403 371
f 406 377 385
f 406 405 377
f 398 400 389
f 363 400 398
f 400 386 399
f 400 404 386
f 401 402 394
f 407 385 384
f 407 406 385
f 394 407 384
f 395 400 363
f 394 402 408
f 394 409 407
f 394 408 409
f 397 402 346
f 395 410 400
f 404 400 410
f 397 408 402
f 403 410 395
f 397 396 411
f 397 411 408
f 412 396 404
f 412 411 396
f 412 404 410
f 403 413 410
f 412 410 414
f 410 415 414
f 410 413 415
f 406 415 405
f 407 416 406
f 406 416 415
f 405 413 403
f 405 415 413
f 407 409 412
f 407 412 417
f 407 417 416
f 411 409 408
f 411 412 409
f 414 417 412
f 414 416 417
f 414 415 416
