# 
# Wavefront OBJ file
# Created with Kaydara FBX
# 
mtllib c:\users\tjvan\onedrive\documenten\fontys\minor\nx\.mtlmodels\fibular_artery.r.obj

g Fibular_artery_r
v -0.103931 0.327433 -0.049388
v -0.103918 0.321000 -0.048960
v -0.103901 0.320953 -0.049555
v -0.103656 0.327437 -0.048841
v -0.103897 0.327413 -0.049999
v -0.103470 0.333289 -0.049392
v -0.103208 0.333235 -0.048825
v -0.103805 0.319639 -0.049427
v -0.103822 0.319694 -0.048833
v -0.103635 0.321052 -0.048437
v -0.103588 0.320923 -0.050063
v -0.103492 0.319619 -0.049936
v -0.103562 0.327383 -0.050510
v -0.103415 0.333304 -0.050016
v -0.103593 0.317788 -0.049252
v -0.103541 0.319771 -0.048312
v -0.103611 0.317840 -0.048657
v -0.103282 0.317780 -0.049761
v -0.103144 0.327424 -0.048506
v -0.102699 0.333157 -0.048467
v -0.103127 0.321094 -0.048126
v -0.103268 0.315384 -0.049039
v -0.103329 0.317923 -0.048137
v -0.103285 0.315432 -0.048444
v -0.102958 0.315385 -0.049550
v -0.103063 0.320919 -0.050347
v -0.102969 0.319641 -0.050222
v -0.103058 0.333277 -0.050531
v -0.103016 0.327351 -0.050785
v -0.103035 0.319848 -0.048004
v -0.102760 0.317818 -0.050049
v -0.102594 0.338620 -0.049055
v -0.102351 0.338511 -0.048471
v -0.102515 0.338666 -0.049691
v -0.103004 0.315515 -0.047924
v -0.102825 0.318014 -0.047830
v -0.102831 0.312425 -0.048803
v -0.102847 0.312468 -0.048208
v -0.102438 0.315435 -0.049839
v -0.102522 0.312434 -0.049314
v -0.101851 0.338366 -0.048095
v -0.102533 0.327398 -0.048471
v -0.102079 0.333076 -0.048415
v -0.102530 0.321117 -0.048111
v -0.102466 0.320941 -0.050332
v -0.102374 0.319698 -0.050210
v -0.102494 0.333215 -0.050798
v -0.102136 0.338635 -0.050207
v -0.102440 0.319905 -0.047992
v -0.102406 0.327325 -0.050750
v -0.102566 0.312550 -0.047687
v -0.102500 0.315612 -0.047618
v -0.102168 0.317893 -0.050039
v -0.102003 0.312491 -0.049604
v -0.102282 0.308914 -0.048556
v -0.102297 0.308950 -0.047960
v -0.101975 0.308929 -0.049068
v -0.102233 0.318089 -0.047819
v -0.101847 0.315519 -0.049829
v -0.101228 0.338226 -0.048028
v -0.101364 0.343473 -0.048461
v -0.101145 0.343314 -0.047863
v -0.102062 0.312649 -0.047381
v -0.102016 0.309029 -0.047440
v -0.101456 0.308993 -0.049358
v -0.101988 0.327366 -0.048746
v -0.102005 0.321112 -0.048395
v -0.101515 0.333014 -0.048682
v -0.101260 0.343541 -0.049106
v -0.101909 0.315697 -0.047608
v -0.101874 0.333134 -0.050745
v -0.101557 0.338536 -0.050467
v -0.101958 0.320984 -0.050021
v -0.101868 0.319775 -0.049902
v -0.101413 0.312582 -0.049594
v -0.101917 0.319927 -0.048278
v -0.101894 0.327313 -0.050415
v -0.101664 0.317984 -0.049732
v -0.100660 0.343105 -0.047472
v -0.101624 0.304854 -0.048312
v -0.101638 0.304884 -0.047716
v -0.101317 0.304876 -0.048824
v -0.101711 0.318127 -0.048107
v -0.101343 0.315616 -0.049523
v -0.100860 0.343499 -0.049625
v -0.100650 0.338127 -0.048288
v -0.101512 0.309129 -0.047134
v -0.101472 0.312739 -0.047372
v -0.101355 0.304959 -0.047195
v -0.100867 0.309087 -0.049349
v -0.101653 0.327336 -0.049257
v -0.101692 0.321083 -0.048902
v -0.101158 0.332987 -0.049196
v -0.100800 0.304945 -0.049115
v -0.101675 0.321036 -0.049498
v -0.101587 0.319852 -0.049381
v -0.101389 0.315746 -0.047897
v -0.101604 0.319907 -0.048787
v -0.101365 0.333056 -0.050387
v -0.101619 0.327317 -0.049868
v -0.101382 0.318067 -0.049212
v -0.100934 0.338395 -0.050400
v -0.100909 0.312681 -0.049289
v -0.100040 0.342904 -0.047393
v -0.101400 0.318120 -0.048617
v -0.101062 0.315700 -0.049002
v -0.101103 0.333002 -0.049820
v -0.100857 0.300250 -0.048084
v -0.100870 0.300274 -0.047488
v -0.100551 0.300279 -0.048596
v -0.100271 0.343358 -0.049879
v -0.100923 0.309223 -0.047125
v -0.100852 0.305058 -0.046889
v -0.100270 0.338096 -0.048805
v -0.100953 0.312797 -0.047662
v -0.100211 0.305042 -0.049106
v -0.100364 0.309187 -0.049043
v -0.101079 0.315747 -0.048407
v -0.100586 0.300345 -0.046967
v -0.100435 0.338251 -0.050024
v -0.099844 0.347893 -0.047696
v -0.099649 0.347693 -0.047085
v -0.100628 0.312763 -0.048768
v -0.100034 0.300353 -0.048887
v -0.099714 0.347972 -0.048351
v -0.099451 0.342763 -0.047647
v -0.100191 0.338141 -0.049440
v -0.099184 0.347428 -0.046680
v -0.100644 0.312805 -0.048173
v -0.100405 0.309287 -0.047415
v -0.099651 0.343156 -0.049800
v -0.100263 0.305156 -0.046880
v -0.100082 0.309266 -0.048522
v -0.099982 0.295109 -0.047885
v -0.099678 0.295144 -0.048398
v -0.099994 0.295127 -0.047289
v -0.100083 0.300443 -0.046661
v -0.099707 0.305142 -0.048800
v -0.099296 0.347911 -0.048872
v -0.099446 0.300453 -0.048878
v -0.100097 0.309303 -0.047927
v -0.099051 0.342721 -0.048166
v -0.098571 0.347167 -0.046591
v -0.099710 0.295192 -0.046767
v -0.099162 0.295223 -0.048689
v -0.099166 0.342948 -0.049409
v -0.099746 0.305225 -0.047171
v -0.099425 0.305217 -0.048279
v -0.099494 0.300543 -0.046652
v -0.098946 0.342788 -0.048811
v -0.098701 0.347725 -0.049122
v -0.098942 0.300551 -0.048572
v -0.099439 0.305247 -0.047683
v -0.099206 0.295289 -0.046461
v -0.098573 0.295324 -0.048680
v -0.097976 0.346981 -0.046841
v -0.099002 0.289436 -0.047730
v -0.099013 0.289447 -0.047133
v -0.098698 0.289477 -0.048242
v -0.098096 0.351923 -0.046846
v -0.097926 0.351697 -0.046221
v -0.098978 0.300617 -0.046942
v -0.098728 0.289508 -0.046611
v -0.098659 0.300622 -0.048051
v -0.097944 0.352003 -0.047511
v -0.098184 0.289560 -0.048533
v -0.098089 0.347464 -0.049033
v -0.097480 0.351385 -0.045802
v -0.098618 0.295390 -0.046453
v -0.098070 0.295421 -0.048374
v -0.098672 0.300646 -0.047455
v -0.097558 0.346920 -0.047363
v -0.097512 0.351914 -0.048037
v -0.098224 0.289602 -0.046305
v -0.096878 0.351071 -0.045703
v -0.097595 0.289663 -0.048525
v -0.097623 0.347198 -0.048628
v -0.097429 0.346999 -0.048017
v -0.097917 0.283236 -0.047630
v -0.097927 0.283240 -0.047033
v -0.097615 0.283284 -0.048143
v -0.098102 0.295469 -0.046744
v -0.097786 0.295486 -0.047853
v -0.097641 0.283296 -0.046511
v -0.097101 0.283371 -0.048434
v -0.096915 0.351682 -0.048284
v -0.097798 0.295504 -0.047256
v -0.097636 0.289704 -0.046296
v -0.097091 0.289757 -0.048218
v -0.096281 0.350838 -0.045949
v -0.097137 0.283388 -0.046205
v -0.096513 0.283475 -0.048425
v -0.097121 0.289788 -0.046587
v -0.096313 0.351367 -0.048184
v -0.096186 0.355612 -0.045998
v -0.096035 0.355374 -0.045356
v -0.096806 0.289818 -0.047697
v -0.095849 0.350750 -0.046475
v -0.096018 0.355678 -0.046676
v -0.096730 0.276516 -0.047600
v -0.096429 0.276570 -0.048113
v -0.096738 0.276514 -0.047003
v -0.095607 0.355029 -0.044921
v -0.096817 0.289829 -0.047100
v -0.096452 0.276564 -0.046482
v -0.096549 0.283491 -0.046197
v -0.095915 0.276662 -0.048404
v -0.095867 0.351055 -0.047766
v -0.096008 0.283567 -0.048119
v -0.095697 0.350829 -0.047140
v -0.095577 0.355555 -0.047208
v -0.095016 0.354669 -0.044809
v -0.095947 0.276653 -0.046176
v -0.096035 0.283579 -0.046488
v -0.095327 0.276766 -0.048395
v -0.095723 0.283622 -0.047598
v -0.094980 0.355276 -0.047450
v -0.094420 0.354390 -0.045052
v -0.095732 0.283627 -0.047000
v -0.095442 0.269288 -0.047654
v -0.095140 0.269337 -0.048166
v -0.095451 0.269288 -0.047056
v -0.095359 0.276757 -0.046167
v -0.094822 0.276855 -0.048089
v -0.095164 0.269338 -0.046535
v -0.094626 0.269423 -0.048457
v -0.094389 0.354916 -0.047339
v -0.093978 0.354267 -0.045583
v -0.094041 0.358772 -0.044577
v -0.094180 0.359003 -0.045240
v -0.094845 0.276849 -0.046458
v -0.093624 0.358410 -0.044121
v -0.094004 0.359042 -0.045933
v -0.094536 0.276905 -0.047568
v -0.094659 0.269424 -0.046229
v -0.094037 0.269522 -0.048449
v -0.093961 0.354571 -0.046904
v -0.093811 0.354333 -0.046261
v -0.094544 0.276903 -0.046971
v -0.093040 0.358014 -0.043994
v -0.093559 0.358878 -0.046470
v -0.095209 0.267813 -0.047634
v -0.094905 0.267848 -0.048146
v -0.095220 0.267825 -0.047037
v -0.094070 0.269523 -0.046220
v -0.093531 0.269607 -0.048143
v -0.094850 0.265299 -0.047557
v -0.094934 0.267879 -0.046515
v -0.094862 0.265316 -0.046961
v -0.094545 0.265324 -0.048070
v -0.094388 0.267919 -0.048437
v -0.092446 0.357691 -0.044231
v -0.092965 0.358555 -0.046707
v -0.094576 0.265373 -0.046439
v -0.094428 0.267962 -0.046209
v -0.094027 0.265387 -0.048360
v -0.094381 0.261841 -0.047436
v -0.094393 0.261861 -0.046839
v -0.094075 0.261864 -0.047948
v -0.093555 0.269608 -0.046511
v -0.093244 0.269657 -0.047621
v -0.093798 0.268008 -0.048429
v -0.094070 0.265454 -0.046133
v -0.094107 0.261917 -0.046318
v -0.093556 0.261922 -0.048239
v -0.093253 0.269658 -0.047024
v -0.093837 0.268051 -0.046201
v -0.092002 0.357527 -0.044768
v -0.093817 0.257539 -0.047281
v -0.093510 0.257561 -0.047793
v -0.093828 0.257559 -0.046684
v -0.093435 0.265469 -0.048351
v -0.092382 0.358160 -0.046581
v -0.092006 0.361939 -0.043970
v -0.092146 0.362144 -0.044657
v -0.093601 0.261996 -0.046011
v -0.093543 0.257614 -0.046163
v -0.092992 0.257617 -0.048084
v -0.093479 0.265536 -0.046124
v -0.092965 0.262002 -0.048229
v -0.093292 0.268091 -0.048122
v -0.091589 0.361579 -0.043488
v -0.091972 0.362140 -0.045367
v -0.091825 0.357566 -0.045462
v -0.091964 0.357798 -0.046125
v -0.093172 0.252490 -0.047104
v -0.093184 0.252509 -0.046508
v -0.093321 0.268122 -0.046491
v -0.092866 0.252511 -0.047616
v -0.092929 0.265550 -0.048045
v -0.091007 0.361162 -0.043343
v -0.093036 0.257691 -0.045856
v -0.093009 0.262075 -0.046002
v -0.092399 0.257694 -0.048074
v -0.091529 0.361928 -0.045909
v -0.092898 0.252563 -0.045986
v -0.093005 0.268145 -0.047601
v -0.092347 0.252567 -0.047907
v -0.092961 0.265599 -0.046415
v -0.092458 0.262080 -0.047923
v -0.093016 0.268157 -0.047004
v -0.092643 0.265607 -0.047524
v -0.092463 0.246790 -0.046918
v -0.092474 0.246808 -0.046321
v -0.092156 0.246812 -0.047430
v -0.092444 0.257768 -0.045847
v -0.092391 0.252637 -0.045680
v -0.090415 0.360799 -0.043572
v -0.092490 0.262134 -0.046293
v -0.092655 0.265625 -0.046927
v -0.091755 0.252642 -0.047898
v -0.091893 0.257771 -0.047768
v -0.090937 0.361565 -0.046138
v -0.092172 0.262137 -0.047402
v -0.092188 0.246859 -0.045799
v -0.091637 0.246867 -0.047720
v -0.092184 0.262157 -0.046805
v -0.091925 0.257825 -0.046138
v -0.091703 0.240537 -0.046733
v -0.091714 0.240552 -0.046136
v -0.091397 0.240559 -0.047245
v -0.091607 0.257826 -0.047247
v -0.091798 0.252712 -0.045670
v -0.089972 0.360587 -0.044114
v -0.091680 0.246931 -0.045493
v -0.091247 0.252716 -0.047591
v -0.090355 0.361148 -0.045993
v -0.091045 0.246940 -0.047711
v -0.091427 0.240601 -0.045615
v -0.091619 0.257846 -0.046650
v -0.090878 0.240614 -0.047536
v -0.089996 0.364922 -0.043622
v -0.090153 0.365078 -0.044335
v -0.089797 0.360583 -0.044824
v -0.089564 0.364590 -0.043113
v -0.089937 0.360788 -0.045511
v -0.089992 0.365013 -0.045061
v -0.091279 0.252767 -0.045961
v -0.090961 0.252770 -0.047070
v -0.091088 0.247004 -0.045484
v -0.090537 0.247012 -0.047405
v -0.090908 0.233825 -0.046562
v -0.090919 0.233838 -0.045965
v -0.090602 0.233849 -0.047074
v -0.090920 0.240670 -0.045308
v -0.090285 0.240685 -0.047526
v -0.090973 0.252789 -0.046473
v -0.088972 0.364168 -0.042945
v -0.089557 0.364747 -0.045605
v -0.090632 0.233883 -0.045443
v -0.090083 0.233903 -0.047365
v -0.090569 0.247059 -0.045774
v -0.091256 0.089118 -0.060694
v -0.091228 0.086974 -0.061105
v -0.091212 0.087045 -0.061495
v -0.091065 0.089047 -0.060339
v -0.091167 0.084667 -0.061906
v -0.091182 0.084602 -0.061526
v -0.091042 0.086912 -0.060758
v -0.091260 0.091018 -0.060295
v -0.091240 0.089197 -0.061095
v -0.091064 0.090935 -0.059933
v -0.091244 0.091108 -0.060706
v -0.091022 0.089264 -0.061434
v -0.091000 0.087107 -0.061826
v -0.091231 0.092661 -0.059911
v -0.091030 0.092559 -0.059542
v -0.091214 0.092764 -0.060330
v -0.091019 0.091179 -0.061054
v -0.091161 0.094035 -0.059541
v -0.090956 0.093906 -0.059169
v -0.090251 0.247064 -0.046883
v -0.090961 0.084724 -0.062228
v -0.091142 0.094158 -0.059967
v -0.090983 0.092841 -0.060687
v -0.091112 0.082078 -0.062325
v -0.091127 0.082019 -0.061955
v -0.091002 0.084547 -0.061189
v -0.090912 0.082130 -0.062637
v -0.091040 0.095117 -0.059189
v -0.090834 0.094962 -0.058814
v -0.091019 0.095256 -0.059622
v -0.090905 0.094242 -0.060332
v -0.091055 0.079294 -0.062748
v -0.091069 0.079239 -0.062390
v -0.090952 0.081969 -0.061627
v -0.090862 0.079341 -0.063052
v -0.090327 0.240741 -0.045299
v -0.091018 0.076281 -0.062827
v -0.091004 0.076331 -0.063175
v -0.090900 0.079194 -0.062072
v -0.090966 0.073207 -0.063602
v -0.090979 0.073161 -0.063265
v -0.090854 0.076239 -0.062519
v -0.090817 0.076374 -0.063469
v -0.090719 0.089003 -0.060125
v -0.090706 0.086876 -0.060550
v -0.090708 0.090880 -0.059715
v -0.090660 0.089300 -0.061622
v -0.090649 0.087143 -0.062008
v -0.090665 0.092487 -0.059322
v -0.090647 0.091214 -0.061247
v -0.090584 0.093805 -0.058950
v -0.089649 0.102934 -0.056558
v -0.089440 0.102780 -0.056180
v -0.090776 0.095341 -0.059997
v -0.089629 0.103066 -0.056998
v -0.089777 0.240754 -0.047220
v -0.090784 0.073246 -0.063887
v -0.090675 0.084516 -0.060985
v -0.090620 0.084758 -0.062405
v -0.088378 0.363771 -0.043162
v -0.090971 0.066496 -0.064132
v -0.090959 0.065328 -0.064285
v -0.090947 0.065370 -0.064593
v -0.090904 0.064174 -0.064764
v -0.090823 0.066460 -0.063853
v -0.090915 0.064126 -0.064464
v -0.090815 0.065292 -0.064013
v -0.090959 0.066536 -0.064446
v -0.090781 0.065408 -0.064852
v -0.090742 0.064220 -0.065016
v -0.090961 0.069896 -0.063700
v -0.090808 0.069858 -0.063412
v -0.090948 0.069937 -0.064026
v -0.090789 0.066569 -0.064712
v -0.090821 0.073121 -0.062967
v -0.090773 0.069972 -0.064302
v -0.090635 0.081941 -0.061430
v -0.090581 0.082162 -0.062809
v -0.090601 0.092872 -0.060887
v -0.090455 0.094832 -0.058599
v -0.090262 0.247081 -0.046286
v -0.088963 0.364350 -0.045822
v -0.090825 0.062964 -0.064964
v -0.090836 0.062910 -0.064673
v -0.090774 0.064090 -0.064198
v -0.090668 0.063020 -0.065210
v -0.090593 0.079168 -0.061880
v -0.090540 0.079370 -0.063218
v -0.090513 0.094264 -0.060539
v -0.090093 0.226753 -0.046416
v -0.089787 0.226778 -0.046929
v -0.090104 0.226762 -0.045819
v -0.090124 0.233950 -0.045137
v -0.089490 0.233973 -0.047355
v -0.090557 0.076215 -0.062333
v -0.090505 0.076400 -0.063631
v -0.090710 0.061754 -0.065201
v -0.090698 0.062872 -0.064413
v -0.090720 0.061691 -0.064917
v -0.090557 0.061821 -0.065438
v -0.090555 0.066437 -0.063686
v -0.090552 0.065273 -0.063848
v -0.090530 0.069834 -0.063238
v -0.090533 0.073097 -0.062787
v -0.090483 0.073268 -0.064043
v -0.089058 0.102646 -0.055963
v -0.090517 0.064075 -0.064036
v -0.090507 0.065431 -0.064995
v -0.090473 0.064253 -0.065155
v -0.090509 0.066586 -0.064859
v -0.090482 0.069990 -0.064454
v -0.090377 0.095351 -0.060214
v -0.089385 0.103142 -0.057380
v -0.090406 0.063063 -0.065343
v -0.090554 0.060555 -0.065479
v -0.090584 0.061650 -0.064664
v -0.090562 0.060483 -0.065205
v -0.090406 0.060635 -0.065707
v -0.090447 0.062860 -0.064254
v -0.090311 0.088999 -0.060110
v -0.090309 0.086876 -0.060534
v -0.090288 0.090868 -0.059701
v -0.090234 0.092463 -0.059310
v -0.090302 0.061875 -0.065566
v -0.090290 0.084518 -0.060970
v -0.090251 0.087143 -0.061993
v -0.090252 0.089296 -0.061606
v -0.090142 0.093760 -0.058944
v -0.090234 0.084760 -0.062389
v -0.090227 0.091203 -0.061233
v -0.090261 0.081944 -0.061414
v -0.089816 0.226804 -0.045297
v -0.090207 0.082164 -0.062794
v -0.090429 0.060438 -0.064958
v -0.090339 0.061642 -0.064509
v -0.090230 0.079170 -0.061865
v -0.090178 0.079372 -0.063204
v -0.090170 0.092848 -0.060875
v -0.090005 0.094762 -0.058599
v -0.089268 0.226832 -0.047219
v -0.090355 0.059382 -0.065804
v -0.090361 0.059299 -0.065540
v -0.090213 0.059475 -0.066023
v -0.090158 0.060700 -0.065829
v -0.090238 0.066434 -0.063674
v -0.090242 0.065275 -0.063836
v -0.090202 0.069831 -0.063226
v -0.090205 0.076215 -0.062319
v -0.089808 0.240796 -0.045589
v -0.090193 0.073096 -0.062773
v -0.090154 0.076401 -0.063617
v -0.089490 0.240803 -0.046698
v -0.090214 0.064085 -0.064023
v -0.090197 0.065433 -0.064983
v -0.090170 0.064263 -0.065141
v -0.090192 0.066583 -0.064847
v -0.090144 0.073267 -0.064030
v -0.090072 0.094218 -0.060533
v -0.090110 0.063081 -0.065329
v -0.090154 0.069987 -0.064441
v -0.090151 0.062878 -0.064240
v -0.088605 0.102568 -0.055966
v -0.090230 0.059249 -0.065301
v -0.090190 0.060432 -0.064806
v -0.089974 0.059554 -0.066138
v -0.090013 0.061901 -0.065550
v -0.087943 0.363505 -0.043706
v -0.089927 0.095281 -0.060214
v -0.088983 0.103141 -0.057602
v -0.090110 0.058246 -0.066183
v -0.090113 0.058151 -0.065930
v -0.089975 0.058354 -0.066390
v -0.088371 0.363929 -0.045653
v -0.090050 0.061668 -0.064493
v -0.089531 0.234019 -0.045127
v -0.089877 0.060735 -0.065812
v -0.089949 0.089035 -0.060297
v -0.089957 0.086912 -0.060716
v -0.089916 0.090903 -0.059894
v -0.089948 0.084552 -0.061147
v -0.089852 0.092494 -0.059510
v -0.088982 0.234039 -0.047049
v -0.089997 0.059245 -0.065152
v -0.089984 0.058095 -0.065699
v -0.089957 0.066451 -0.063820
v -0.089967 0.065298 -0.063979
v -0.089911 0.069849 -0.063378
v -0.089930 0.081975 -0.061586
v -0.089909 0.079199 -0.062032
v -0.089907 0.084729 -0.062186
v -0.089890 0.082137 -0.062596
v -0.089915 0.087107 -0.061784
v -0.089906 0.089252 -0.061393
v -0.089871 0.091148 -0.061016
v -0.089751 0.093782 -0.059151
v -0.089502 0.240818 -0.046101
v -0.089745 0.058447 -0.066497
v -0.089909 0.060467 -0.064788
v -0.089945 0.064117 -0.064161
v -0.089934 0.065414 -0.064818
v -0.089913 0.064248 -0.064980
v -0.089924 0.066560 -0.064679
v -0.089892 0.073118 -0.062930
v -0.089894 0.076241 -0.062481
v -0.089871 0.079347 -0.063012
v -0.089859 0.063069 -0.065170
v -0.089857 0.076376 -0.063431
v -0.089805 0.092776 -0.060655
v -0.089701 0.059597 -0.066118
v -0.089889 0.062921 -0.064373
v -0.089876 0.069963 -0.064268
v -0.089856 0.073243 -0.063850
v -0.089605 0.094772 -0.058816
v -0.088077 0.367769 -0.043621
v -0.088268 0.367846 -0.044353
v -0.089308 0.226867 -0.044991
v -0.089816 0.057161 -0.066621
v -0.089815 0.057053 -0.066380
v -0.089690 0.057286 -0.066815
v -0.089768 0.061892 -0.065395
v -0.089273 0.219415 -0.046307
v -0.089283 0.219421 -0.045710
v -0.088968 0.219443 -0.046820
v -0.088675 0.226900 -0.047209
v -0.089700 0.094118 -0.060315
v -0.089795 0.061722 -0.064621
v -0.089757 0.058094 -0.065553
v -0.089687 0.056991 -0.066159
v -0.089470 0.057394 -0.066912
v -0.089724 0.059289 -0.065132
v -0.089481 0.058500 -0.066474
v -0.089638 0.060729 -0.065659
v -0.089802 0.065336 -0.064239
v -0.089788 0.066484 -0.064087
v -0.088203 0.102566 -0.056188
v -0.087782 0.363441 -0.044432
v -0.087610 0.367492 -0.043087
v -0.088134 0.367702 -0.045088
v -0.089661 0.060533 -0.064910
v -0.089783 0.064164 -0.064414
v -0.089772 0.064211 -0.064714
v -0.089720 0.063031 -0.064910
v -0.089790 0.065378 -0.064546
v -0.089735 0.069883 -0.063654
v -0.089776 0.066524 -0.064401
v -0.089711 0.073157 -0.063215
v -0.089730 0.082028 -0.061899
v -0.089716 0.079247 -0.062335
v -0.089742 0.084609 -0.061468
v -0.089745 0.086973 -0.061047
v -0.089727 0.084674 -0.061848
v -0.089715 0.082087 -0.062268
v -0.089731 0.089102 -0.060637
v -0.089730 0.087045 -0.061437
v -0.089692 0.090975 -0.060242
v -0.089715 0.089181 -0.061038
v -0.089622 0.092572 -0.059867
v -0.089548 0.095151 -0.059998
v -0.088531 0.103062 -0.057605
v -0.087939 0.363596 -0.045144
v -0.089731 0.062977 -0.064618
v -0.089707 0.076284 -0.062775
v -0.089701 0.079301 -0.062694
v -0.089468 0.059593 -0.065968
v -0.089723 0.069925 -0.063979
v -0.089693 0.076334 -0.063123
v -0.089675 0.091065 -0.060653
v -0.089632 0.061851 -0.065142
v -0.089697 0.073203 -0.063552
v -0.089514 0.093866 -0.059517
v -0.089471 0.056141 -0.067124
v -0.089465 0.056018 -0.066898
v -0.089355 0.056283 -0.067303
v -0.089642 0.061789 -0.064858
v -0.089505 0.060684 -0.065413
v -0.089604 0.092675 -0.060286
v -0.088449 0.219497 -0.047110
v -0.088995 0.219459 -0.045189
v -0.088695 0.234085 -0.046527
v -0.089012 0.234073 -0.045418
v -0.089466 0.056991 -0.066015
v -0.089337 0.055948 -0.066687
v -0.089146 0.056406 -0.067389
v -0.089493 0.058146 -0.065530
v -0.089215 0.057456 -0.066885
v -0.089485 0.059368 -0.065246
v -0.089254 0.058498 -0.066328
v -0.089362 0.094857 -0.059191
v -0.089495 0.093989 -0.059943
v -0.089514 0.060612 -0.065139
v -0.089337 0.059543 -0.065730
v -0.088383 0.110402 -0.054439
v -0.088169 0.110265 -0.054051
v -0.088367 0.110515 -0.054888
v -0.087959 0.102642 -0.056570
v -0.089341 0.094996 -0.059624
v -0.088149 0.102928 -0.057388
v -0.086994 0.367089 -0.042896
v -0.087709 0.367376 -0.045629
v -0.088715 0.226935 -0.044981
v -0.089262 0.058239 -0.065636
v -0.089211 0.057053 -0.065988
v -0.088994 0.057456 -0.066742
v -0.089343 0.059461 -0.065465
v -0.088167 0.226963 -0.046903
v -0.088706 0.234097 -0.045930
v -0.089072 0.055198 -0.067698
v -0.089058 0.055061 -0.067489
v -0.088967 0.055357 -0.067860
v -0.089122 0.055950 -0.066546
v -0.088902 0.056478 -0.067357
v -0.089124 0.058442 -0.066097
v -0.087781 0.110143 -0.053828
v -0.088123 0.110576 -0.055278
v -0.088772 0.055496 -0.067931
v -0.087940 0.102775 -0.057009
v -0.088929 0.054983 -0.067290
v -0.089128 0.058347 -0.065844
v -0.088487 0.219518 -0.044882
v -0.088991 0.057161 -0.066085
v -0.088866 0.057393 -0.066520
v -0.088463 0.211910 -0.046247
v -0.088158 0.211940 -0.046760
v -0.088473 0.211911 -0.045650
v -0.087855 0.219562 -0.047101
v -0.088877 0.056022 -0.066514
v -0.088687 0.056479 -0.067216
v -0.088538 0.055578 -0.067893
v -0.088720 0.054985 -0.067152
v -0.088865 0.057285 -0.066280
v -0.088615 0.054345 -0.068350
v -0.088524 0.054522 -0.068491
v -0.088592 0.054194 -0.068160
v -0.087324 0.110068 -0.053831
v -0.088195 0.226988 -0.045272
v -0.088669 0.056145 -0.066600
v -0.088559 0.056409 -0.067005
v -0.087719 0.110567 -0.055505
v -0.088184 0.211943 -0.045128
v -0.087879 0.227005 -0.046381
v -0.088344 0.054676 -0.068546
v -0.087639 0.211994 -0.047050
v -0.086393 0.366668 -0.043097
v -0.087108 0.366955 -0.045831
v -0.088462 0.054109 -0.067973
v -0.088330 0.055580 -0.067756
v -0.088487 0.055067 -0.067114
v -0.088552 0.056287 -0.066779
v -0.088123 0.054767 -0.068500
v -0.088259 0.054112 -0.067839
v -0.087893 0.219583 -0.044872
v -0.087890 0.227014 -0.045784
v -0.088201 0.055503 -0.067556
v -0.088292 0.055206 -0.067185
v -0.087346 0.219621 -0.046794
v -0.088098 0.053598 -0.069084
v -0.088023 0.053789 -0.069202
v -0.086919 0.110059 -0.054057
v -0.088065 0.053434 -0.068916
v -0.088187 0.055366 -0.067347
v -0.087860 0.053956 -0.069238
v -0.087920 0.054770 -0.068365
v -0.087262 0.110492 -0.055507
v -0.088038 0.054203 -0.067793
v -0.087675 0.211999 -0.044822
v -0.087932 0.053342 -0.068743
v -0.087675 0.204307 -0.046248
v -0.087371 0.204351 -0.046760
v -0.087684 0.204300 -0.045651
v -0.087045 0.212056 -0.047041
v -0.087241 0.117485 -0.052772
v -0.087022 0.117366 -0.052376
v -0.087228 0.117581 -0.053229
v -0.085968 0.366342 -0.043638
v -0.086491 0.366552 -0.045639
v -0.087652 0.054055 -0.069183
v -0.087790 0.054685 -0.068178
v -0.087858 0.054357 -0.067848
v -0.087735 0.053346 -0.068612
v -0.086555 0.370497 -0.044788
v -0.086315 0.370523 -0.044051
v -0.087767 0.054533 -0.067989
v -0.086676 0.110120 -0.054447
v -0.087395 0.204331 -0.045129
v -0.087374 0.219637 -0.045163
v -0.086874 0.110369 -0.055284
v -0.086629 0.117256 -0.052148
v -0.086854 0.204419 -0.047050
v -0.087058 0.219659 -0.046272
v -0.086454 0.370257 -0.045519
v -0.087455 0.054059 -0.069052
v -0.086985 0.117627 -0.053627
v -0.085799 0.370330 -0.043505
v -0.087527 0.053444 -0.068557
v -0.086659 0.110233 -0.054896
v -0.085834 0.366198 -0.044373
v -0.086025 0.366275 -0.045105
v -0.087322 0.053966 -0.068879
v -0.087081 0.212061 -0.044812
v -0.087068 0.219665 -0.045675
v -0.087364 0.053612 -0.068593
v -0.086536 0.212112 -0.046734
v -0.087289 0.053803 -0.068711
v -0.086166 0.117183 -0.052149
v -0.086578 0.117611 -0.053857
v -0.086040 0.369869 -0.046048
v -0.087490 0.203144 -0.046268
v -0.087193 0.203209 -0.046774
v -0.087497 0.203124 -0.045679
v -0.086886 0.204391 -0.044822
v -0.086261 0.204493 -0.047041
v -0.085145 0.369969 -0.043296
v -0.087178 0.201563 -0.046329
v -0.087212 0.203156 -0.045164
v -0.087183 0.201534 -0.045748
v -0.086888 0.201642 -0.046828
v -0.086686 0.203303 -0.047060
v -0.086562 0.212115 -0.045102
v -0.086247 0.212144 -0.046212
v -0.085759 0.117167 -0.052379
v -0.086116 0.117538 -0.053858
v -0.086223 0.124135 -0.051502
v -0.085999 0.124033 -0.051099
v -0.086212 0.124213 -0.051968
v -0.086902 0.201565 -0.045239
v -0.086712 0.203230 -0.044860
v -0.086390 0.201751 -0.047109
v -0.086767 0.199540 -0.046432
v -0.086771 0.199507 -0.045858
v -0.086481 0.199623 -0.046924
v -0.085423 0.369436 -0.046233
v -0.086294 0.204465 -0.044813
v -0.086257 0.212145 -0.045615
v -0.085753 0.204553 -0.046734
v -0.085600 0.123934 -0.050867
v -0.085969 0.124245 -0.052371
v -0.084528 0.369536 -0.043481
v -0.085516 0.117213 -0.052777
v -0.086492 0.199532 -0.045356
v -0.086409 0.201645 -0.044939
v -0.085991 0.199733 -0.047201
v -0.085722 0.117428 -0.053631
v -0.086105 0.203400 -0.047050
v -0.086279 0.197033 -0.046579
v -0.086282 0.196997 -0.046013
v -0.085997 0.197115 -0.047064
v -0.086130 0.203328 -0.044851
v -0.085503 0.117309 -0.053235
v -0.085819 0.201860 -0.047099
v -0.085133 0.123863 -0.050868
v -0.085560 0.124223 -0.052605
v -0.085776 0.204533 -0.045103
v -0.085464 0.204584 -0.046212
v -0.086006 0.199609 -0.045061
v -0.086006 0.197016 -0.045518
v -0.085512 0.197220 -0.047339
v -0.084769 0.369075 -0.046025
v -0.085838 0.201755 -0.044929
v -0.085427 0.199841 -0.047191
v -0.084114 0.369148 -0.044010
v -0.085737 0.194007 -0.046773
v -0.085740 0.193969 -0.046215
v -0.085459 0.194085 -0.047252
v -0.085605 0.203474 -0.046747
v -0.085473 0.204577 -0.045615
v -0.085329 0.130302 -0.050576
v -0.085100 0.130216 -0.050167
v -0.085320 0.130363 -0.051048
v -0.084723 0.123842 -0.051101
v -0.085623 0.203421 -0.045137
v -0.085093 0.124153 -0.052605
v -0.085326 0.201941 -0.046799
v -0.084253 0.368881 -0.045478
v -0.084696 0.130127 -0.049931
v -0.085524 0.197085 -0.045227
v -0.085467 0.193981 -0.045727
v -0.084979 0.194182 -0.047523
v -0.085441 0.199717 -0.045051
v -0.084954 0.197321 -0.047329
v -0.085077 0.130382 -0.051458
v -0.084013 0.368908 -0.044741
v -0.085340 0.201863 -0.045211
v -0.084940 0.199918 -0.046896
v -0.084480 0.123874 -0.051505
v -0.085320 0.203506 -0.046231
v -0.085167 0.190430 -0.047017
v -0.085169 0.190390 -0.046467
v -0.084891 0.190503 -0.047490
v -0.084694 0.124054 -0.052373
v -0.085326 0.203487 -0.045642
v -0.084224 0.130060 -0.049931
v -0.085045 0.201971 -0.046291
v -0.084664 0.130354 -0.051694
v -0.084470 0.123951 -0.051970
v -0.084990 0.194040 -0.045440
v -0.084967 0.197186 -0.045217
v -0.084427 0.194273 -0.047514
v -0.084898 0.190396 -0.045986
v -0.084417 0.190591 -0.047758
v -0.084951 0.199827 -0.045329
v -0.084473 0.197390 -0.047038
v -0.085050 0.201943 -0.045709
v -0.084557 0.135936 -0.049939
v -0.084325 0.135865 -0.049524
v -0.084551 0.135981 -0.050417
v -0.084661 0.199943 -0.046394
v -0.084591 0.186271 -0.047313
v -0.084594 0.186231 -0.046770
v -0.084319 0.186338 -0.047779
v -0.083811 0.130032 -0.050167
v -0.084192 0.130287 -0.051694
v -0.083915 0.135787 -0.049285
v -0.084307 0.135988 -0.050832
v -0.084665 0.199910 -0.045820
v -0.084438 0.194131 -0.045431
v -0.084426 0.190444 -0.045703
v -0.083871 0.190670 -0.047750
v -0.084482 0.197291 -0.045492
v -0.083951 0.194332 -0.047228
v -0.084197 0.197409 -0.046543
v -0.084326 0.186229 -0.046296
v -0.083850 0.186416 -0.048045
v -0.083568 0.130052 -0.050577
v -0.083788 0.130199 -0.051458
v -0.083438 0.135723 -0.049284
v -0.083892 0.135955 -0.051071
v -0.084200 0.197373 -0.045977
v -0.084036 0.181499 -0.047663
v -0.084038 0.181459 -0.047128
v -0.083767 0.181561 -0.048124
v -0.083909 0.140987 -0.049537
v -0.083672 0.140930 -0.049117
v -0.083905 0.141017 -0.050021
v -0.083560 0.130112 -0.051049
v -0.083958 0.194228 -0.045703
v -0.083677 0.194344 -0.046740
v -0.083880 0.190523 -0.045695
v -0.083859 0.186267 -0.046019
v -0.083310 0.186483 -0.048037
v -0.083399 0.190718 -0.047468
v -0.083258 0.140862 -0.048875
v -0.083773 0.181451 -0.046661
v -0.083304 0.181628 -0.048386
v -0.083660 0.141014 -0.050440
v -0.083023 0.135690 -0.049524
v -0.083415 0.135891 -0.051071
v -0.083680 0.194306 -0.046182
v -0.083526 0.176085 -0.048070
v -0.083528 0.176045 -0.047542
v -0.083260 0.176141 -0.048524
v -0.083406 0.190611 -0.045964
v -0.083128 0.190724 -0.046987
v -0.082776 0.140802 -0.048874
v -0.083384 0.145405 -0.049315
v -0.083144 0.145361 -0.048891
v -0.083382 0.145423 -0.049804
v -0.083241 0.140977 -0.050681
v -0.083319 0.186333 -0.046011
v -0.082843 0.186520 -0.047760
v -0.083312 0.181478 -0.046388
v -0.082770 0.181683 -0.048379
v -0.082779 0.135697 -0.049938
v -0.083005 0.135813 -0.050831
v -0.083266 0.176031 -0.047083
v -0.082802 0.176198 -0.048784
v -0.082724 0.145304 -0.048646
v -0.083131 0.190684 -0.046436
v -0.083136 0.145410 -0.050227
v -0.082773 0.135742 -0.050417
v -0.083085 0.169999 -0.048536
v -0.083087 0.169959 -0.048016
v -0.082823 0.170050 -0.048985
v -0.082357 0.140765 -0.049116
v -0.082760 0.140916 -0.050681
v -0.082850 0.186411 -0.046277
v -0.082575 0.186519 -0.047286
v -0.082983 0.149139 -0.049220
v -0.082739 0.149107 -0.048792
v -0.082981 0.149146 -0.049713
v -0.082778 0.181532 -0.046382
v -0.082810 0.176047 -0.046814
v -0.082275 0.176241 -0.048778
v -0.082308 0.181709 -0.048106
v -0.082238 0.145248 -0.048645
v -0.082829 0.169939 -0.047564
v -0.082371 0.170097 -0.049241
v -0.082713 0.145371 -0.050471
v -0.082314 0.149059 -0.048544
v -0.082734 0.149128 -0.050140
v -0.082577 0.186479 -0.046743
v -0.082739 0.163212 -0.049064
v -0.082741 0.163172 -0.048552
v -0.082481 0.163257 -0.049506
v -0.082113 0.140762 -0.049535
v -0.082345 0.140849 -0.050438
v -0.082704 0.152136 -0.049196
v -0.082703 0.152138 -0.049694
v -0.082457 0.152113 -0.048764
v -0.082314 0.181599 -0.046644
v -0.082043 0.181702 -0.047640
v -0.082379 0.169945 -0.047300
v -0.082486 0.163146 -0.048106
v -0.082035 0.163294 -0.049759
v -0.082283 0.176089 -0.046809
v -0.081850 0.170127 -0.049236
v -0.082109 0.140792 -0.050019
v -0.081815 0.145208 -0.048889
v -0.082227 0.145314 -0.050470
v -0.081819 0.176257 -0.048510
v -0.081823 0.149009 -0.048543
v -0.082028 0.152075 -0.048514
v -0.082307 0.149088 -0.050386
v -0.082453 0.152118 -0.050125
v -0.082513 0.155705 -0.049655
v -0.082515 0.155678 -0.049149
v -0.082258 0.155729 -0.050092
v -0.082549 0.154334 -0.049190
v -0.082547 0.154341 -0.049692
v -0.082299 0.154314 -0.048755
v -0.082045 0.181661 -0.047104
v -0.082295 0.154335 -0.050127
v -0.082263 0.155654 -0.048710
v -0.082042 0.163143 -0.047847
v -0.081818 0.155742 -0.050343
v -0.082023 0.152083 -0.050373
v -0.081866 0.154287 -0.048502
v -0.081858 0.169976 -0.047295
v -0.081521 0.163314 -0.049756
v -0.081570 0.145196 -0.049312
v -0.081808 0.145257 -0.050225
v -0.081532 0.152033 -0.048513
v -0.081816 0.149038 -0.050385
v -0.081826 0.155640 -0.048455
v -0.081859 0.154316 -0.050377
v -0.081825 0.176146 -0.047068
v -0.081557 0.176243 -0.048050
v -0.081400 0.170134 -0.048972
v -0.081397 0.148969 -0.048789
v -0.081567 0.145213 -0.049801
v -0.081527 0.152041 -0.050372
v -0.081364 0.154261 -0.048501
v -0.081528 0.163163 -0.047843
v -0.081311 0.155741 -0.050341
v -0.081559 0.176202 -0.047522
v -0.081319 0.155639 -0.048453
v -0.081358 0.154290 -0.050376
v -0.081406 0.170023 -0.047551
v -0.081077 0.163310 -0.049497
v -0.081150 0.148950 -0.049216
v -0.081392 0.148990 -0.050138
v -0.081101 0.151997 -0.048761
v -0.081142 0.170114 -0.048520
v -0.081148 0.148958 -0.049710
v -0.081144 0.170073 -0.048000
v -0.081098 0.152003 -0.050122
v -0.080929 0.154242 -0.048751
v -0.081082 0.163200 -0.048096
v -0.080873 0.155727 -0.050086
v -0.080852 0.151978 -0.049192
v -0.080822 0.163285 -0.049051
v -0.080879 0.155652 -0.048704
v -0.080924 0.154263 -0.050123
v -0.080851 0.151980 -0.049690
v -0.080824 0.163245 -0.048538
v -0.080677 0.154235 -0.049186
v -0.080622 0.155702 -0.049647
v -0.080624 0.155675 -0.049141
v -0.080675 0.154243 -0.049688
usemtl Fibular_artery_rMaterial0
f 1 2 3
f 4 2 1
f 1 3 5
f 6 1 5
f 7 4 1
f 7 1 6
f 2 8 3
f 2 9 8
f 10 9 2
f 4 10 2
f 5 3 11
f 3 8 12
f 3 12 11
f 5 11 13
f 14 5 13
f 6 5 14
f 9 15 8
f 10 16 9
f 9 17 15
f 16 17 9
f 8 15 18
f 8 18 12
f 19 10 4
f 20 4 7
f 20 19 4
f 21 16 10
f 19 21 10
f 17 22 15
f 16 23 17
f 23 24 17
f 17 24 22
f 15 25 18
f 15 22 25
f 13 11 26
f 11 12 27
f 11 27 26
f 14 13 28
f 13 26 29
f 28 13 29
f 30 23 16
f 21 30 16
f 12 18 31
f 12 31 27
f 32 6 14
f 33 7 6
f 33 6 32
f 34 14 28
f 32 14 34
f 23 35 24
f 30 36 23
f 36 35 23
f 24 37 22
f 35 38 24
f 24 38 37
f 18 25 39
f 18 39 31
f 22 40 25
f 22 37 40
f 41 20 7
f 41 7 33
f 42 21 19
f 43 19 20
f 43 42 19
f 44 30 21
f 42 44 21
f 29 26 45
f 26 27 46
f 26 46 45
f 28 29 47
f 34 28 48
f 48 28 47
f 49 36 30
f 44 49 30
f 47 29 50
f 29 45 50
f 35 51 38
f 36 52 35
f 52 51 35
f 27 31 53
f 27 53 46
f 25 40 54
f 25 54 39
f 38 55 37
f 51 56 38
f 38 56 55
f 37 57 40
f 37 55 57
f 58 52 36
f 49 58 36
f 31 39 59
f 31 59 53
f 60 43 20
f 60 20 41
f 61 32 34
f 62 33 32
f 62 32 61
f 52 63 51
f 51 64 56
f 63 64 51
f 40 65 54
f 40 57 65
f 66 44 42
f 67 49 44
f 66 67 44
f 68 42 43
f 68 66 42
f 69 34 48
f 61 34 69
f 58 70 52
f 70 63 52
f 47 50 71
f 48 47 72
f 72 47 71
f 50 45 73
f 45 46 74
f 45 74 73
f 39 54 75
f 39 75 59
f 76 58 49
f 67 76 49
f 50 73 77
f 71 50 77
f 46 53 78
f 46 78 74
f 79 41 33
f 79 33 62
f 56 80 55
f 64 81 56
f 56 81 80
f 55 82 57
f 55 80 82
f 83 70 58
f 76 83 58
f 53 59 84
f 53 84 78
f 85 48 72
f 69 48 85
f 86 68 43
f 86 43 60
f 63 87 64
f 70 88 63
f 88 87 63
f 64 89 81
f 87 89 64
f 54 65 90
f 54 90 75
f 91 67 66
f 92 76 67
f 91 92 67
f 93 91 66
f 93 66 68
f 57 94 65
f 57 82 94
f 77 73 95
f 73 74 96
f 73 96 95
f 83 97 70
f 97 88 70
f 98 83 76
f 92 98 76
f 71 77 99
f 77 95 100
f 99 77 100
f 74 78 101
f 74 101 96
f 72 71 102
f 102 71 99
f 59 75 103
f 59 103 84
f 104 60 41
f 104 41 79
f 98 105 83
f 105 97 83
f 100 95 92
f 95 98 92
f 100 92 91
f 95 96 98
f 78 106 101
f 78 84 106
f 107 100 91
f 107 91 93
f 81 108 80
f 89 109 81
f 81 109 108
f 80 110 82
f 80 108 110
f 99 100 107
f 96 105 98
f 96 101 105
f 111 72 102
f 85 72 111
f 88 112 87
f 87 113 89
f 112 113 87
f 114 93 68
f 114 68 86
f 97 115 88
f 115 112 88
f 65 116 90
f 65 94 116
f 75 117 103
f 75 90 117
f 105 118 97
f 101 118 105
f 118 115 97
f 101 106 118
f 89 119 109
f 113 119 89
f 120 99 107
f 102 99 120
f 121 61 69
f 122 62 61
f 122 61 121
f 84 123 106
f 84 103 123
f 82 124 94
f 82 110 124
f 125 69 85
f 121 69 125
f 126 86 60
f 126 60 104
f 127 107 93
f 127 93 114
f 128 79 62
f 128 62 122
f 120 107 127
f 106 129 118
f 118 129 115
f 106 123 129
f 115 130 112
f 129 130 115
f 131 102 120
f 111 102 131
f 112 132 113
f 130 132 112
f 103 133 123
f 103 117 133
f 109 134 108
f 108 135 110
f 108 134 135
f 119 136 109
f 109 136 134
f 113 137 119
f 132 137 113
f 90 138 117
f 90 116 138
f 139 85 111
f 125 85 139
f 94 140 116
f 94 124 140
f 123 141 129
f 129 141 130
f 142 114 86
f 142 86 126
f 143 104 79
f 143 79 128
f 123 133 141
f 137 144 119
f 119 144 136
f 110 145 124
f 110 135 145
f 146 120 127
f 131 120 146
f 130 147 132
f 141 147 130
f 117 148 133
f 117 138 148
f 132 149 137
f 147 149 132
f 150 127 114
f 150 114 142
f 151 111 131
f 139 111 151
f 116 152 138
f 116 140 152
f 146 127 150
f 133 153 141
f 141 153 147
f 137 154 144
f 149 154 137
f 133 148 153
f 124 155 140
f 124 145 155
f 156 126 104
f 156 104 143
f 136 157 134
f 144 158 136
f 136 158 157
f 134 159 135
f 134 157 159
f 160 121 125
f 161 122 121
f 161 121 160
f 147 162 149
f 153 162 147
f 154 163 144
f 144 163 158
f 138 164 148
f 138 152 164
f 165 125 139
f 160 125 165
f 135 166 145
f 135 159 166
f 167 131 146
f 151 131 167
f 168 128 122
f 168 122 161
f 149 169 154
f 162 169 149
f 140 170 152
f 140 155 170
f 148 171 153
f 153 171 162
f 172 142 126
f 172 126 156
f 148 164 171
f 173 139 151
f 165 139 173
f 154 174 163
f 169 174 154
f 175 143 128
f 175 128 168
f 145 176 155
f 145 166 176
f 177 146 150
f 167 146 177
f 178 150 142
f 178 142 172
f 158 179 157
f 163 180 158
f 158 180 179
f 157 181 159
f 157 179 181
f 171 182 162
f 162 182 169
f 152 183 164
f 152 170 183
f 177 150 178
f 174 184 163
f 163 184 180
f 159 185 166
f 159 181 185
f 186 151 167
f 173 151 186
f 164 187 171
f 171 187 182
f 164 183 187
f 169 188 174
f 182 188 169
f 155 189 170
f 155 176 189
f 190 156 143
f 190 143 175
f 174 191 184
f 188 191 174
f 166 192 176
f 166 185 192
f 187 193 182
f 182 193 188
f 194 167 177
f 186 167 194
f 195 160 165
f 196 161 160
f 196 160 195
f 170 197 183
f 170 189 197
f 198 172 156
f 198 156 190
f 199 165 173
f 195 165 199
f 180 200 179
f 179 201 181
f 179 200 201
f 184 202 180
f 180 202 200
f 203 168 161
f 203 161 196
f 183 204 187
f 187 204 193
f 183 197 204
f 191 205 184
f 184 205 202
f 188 206 191
f 193 206 188
f 181 207 185
f 181 201 207
f 208 177 178
f 194 177 208
f 176 209 189
f 176 192 209
f 210 178 172
f 210 172 198
f 211 173 186
f 199 173 211
f 212 175 168
f 212 168 203
f 208 178 210
f 206 213 191
f 191 213 205
f 204 214 193
f 193 214 206
f 185 215 192
f 185 207 215
f 189 216 197
f 189 209 216
f 217 186 194
f 211 186 217
f 218 190 175
f 218 175 212
f 197 219 204
f 204 219 214
f 197 216 219
f 202 220 200
f 200 221 201
f 200 220 221
f 205 222 202
f 202 222 220
f 214 223 206
f 206 223 213
f 192 224 209
f 192 215 224
f 213 225 205
f 205 225 222
f 201 226 207
f 201 221 226
f 227 194 208
f 217 194 227
f 228 198 190
f 228 190 218
f 229 196 195
f 230 195 199
f 229 195 230
f 219 231 214
f 214 231 223
f 232 203 196
f 232 196 229
f 233 199 211
f 230 199 233
f 209 234 216
f 209 224 234
f 223 235 213
f 213 235 225
f 207 236 215
f 207 226 236
f 237 208 210
f 227 208 237
f 238 210 198
f 238 198 228
f 216 239 219
f 216 234 239
f 219 239 231
f 237 210 238
f 240 212 203
f 240 203 232
f 241 211 217
f 233 211 241
f 222 242 220
f 220 242 243
f 220 243 221
f 222 244 242
f 225 244 222
f 231 245 223
f 223 245 235
f 215 246 224
f 215 236 246
f 244 247 242
f 225 248 244
f 248 249 244
f 244 249 247
f 242 250 243
f 242 247 250
f 235 248 225
f 221 243 251
f 221 251 226
f 252 218 212
f 252 212 240
f 253 217 227
f 241 217 253
f 248 254 249
f 235 255 248
f 255 254 248
f 243 250 256
f 243 256 251
f 249 257 247
f 254 258 249
f 249 258 257
f 247 259 250
f 247 257 259
f 239 260 231
f 231 260 245
f 224 261 234
f 224 246 261
f 245 255 235
f 226 251 262
f 226 262 236
f 255 263 254
f 254 264 258
f 263 264 254
f 250 259 265
f 250 265 256
f 234 266 239
f 234 261 266
f 239 266 260
f 267 263 255
f 245 267 255
f 268 228 218
f 268 218 252
f 258 269 257
f 257 270 259
f 257 269 270
f 264 271 258
f 258 271 269
f 251 256 272
f 251 272 262
f 273 227 237
f 253 227 273
f 274 229 230
f 275 230 233
f 274 230 275
f 263 276 264
f 264 277 271
f 276 277 264
f 259 278 265
f 259 270 278
f 267 279 263
f 279 276 263
f 260 267 245
f 256 265 280
f 256 280 272
f 236 262 281
f 236 281 246
f 282 232 229
f 282 229 274
f 283 233 241
f 275 233 283
f 284 238 228
f 284 228 268
f 285 237 238
f 273 237 285
f 271 286 269
f 277 287 271
f 271 287 286
f 260 288 267
f 288 279 267
f 269 289 270
f 269 286 289
f 285 238 284
f 262 272 290
f 262 290 281
f 291 240 232
f 291 232 282
f 276 292 277
f 279 293 276
f 293 292 276
f 265 278 294
f 265 294 280
f 266 288 260
f 295 241 253
f 283 241 295
f 277 296 287
f 292 296 277
f 246 281 297
f 246 297 261
f 270 298 278
f 270 289 298
f 288 299 279
f 299 293 279
f 272 280 300
f 272 300 290
f 266 301 288
f 301 299 288
f 281 302 297
f 281 290 302
f 261 301 266
f 261 297 301
f 287 303 286
f 296 304 287
f 287 304 303
f 286 305 289
f 286 303 305
f 293 306 292
f 292 307 296
f 306 307 292
f 308 252 240
f 308 240 291
f 299 309 293
f 309 306 293
f 297 310 301
f 297 302 310
f 301 310 299
f 278 311 294
f 278 298 311
f 280 312 300
f 280 294 312
f 310 309 299
f 313 253 273
f 295 253 313
f 290 314 302
f 290 300 314
f 296 315 304
f 307 315 296
f 289 316 298
f 289 305 316
f 302 317 310
f 310 317 309
f 302 314 317
f 309 318 306
f 317 318 309
f 304 319 303
f 315 320 304
f 304 320 319
f 303 321 305
f 303 319 321
f 300 322 314
f 300 312 322
f 306 323 307
f 318 323 306
f 324 268 252
f 324 252 308
f 307 325 315
f 323 325 307
f 294 326 312
f 294 311 326
f 327 273 285
f 313 273 327
f 298 328 311
f 298 316 328
f 315 329 320
f 325 329 315
f 314 330 317
f 317 330 318
f 314 322 330
f 305 331 316
f 305 321 331
f 332 274 275
f 333 275 283
f 332 275 333
f 334 284 268
f 334 268 324
f 335 282 274
f 335 274 332
f 336 285 284
f 327 285 336
f 337 283 295
f 333 283 337
f 318 338 323
f 330 338 318
f 312 339 322
f 312 326 339
f 336 284 334
f 323 340 325
f 338 340 323
f 311 341 326
f 311 328 341
f 320 342 319
f 329 343 320
f 320 343 342
f 319 344 321
f 319 342 344
f 325 345 329
f 340 345 325
f 316 346 328
f 316 331 346
f 322 347 330
f 330 347 338
f 322 339 347
f 348 291 282
f 348 282 335
f 349 295 313
f 337 295 349
f 329 350 343
f 345 350 329
f 321 351 331
f 321 344 351
f 338 352 340
f 347 352 338
f 353 354 355
f 356 354 353
f 354 357 355
f 354 358 357
f 359 358 354
f 356 359 354
f 360 353 361
f 353 355 361
f 362 353 360
f 362 356 353
f 360 361 363
f 363 361 364
f 361 355 365
f 361 365 364
f 366 360 363
f 367 360 366
f 367 362 360
f 366 363 368
f 368 363 369
f 363 364 369
f 370 366 368
f 371 366 370
f 371 367 366
f 326 372 339
f 326 341 372
f 355 357 373
f 355 373 365
f 370 368 374
f 374 368 375
f 368 369 375
f 358 376 357
f 358 377 376
f 378 377 358
f 359 378 358
f 357 376 379
f 357 379 373
f 380 370 374
f 381 370 380
f 381 371 370
f 380 374 382
f 382 374 383
f 374 375 383
f 377 384 376
f 377 385 384
f 386 385 377
f 378 386 377
f 376 384 387
f 376 387 379
f 340 388 345
f 352 388 340
f 385 389 390
f 391 389 385
f 389 392 390
f 389 393 392
f 394 393 389
f 391 394 389
f 385 390 384
f 386 391 385
f 384 390 395
f 384 395 387
f 396 359 356
f 397 378 359
f 396 397 359
f 398 356 362
f 398 396 356
f 369 364 399
f 364 365 400
f 364 400 399
f 401 362 367
f 401 398 362
f 375 369 402
f 369 399 402
f 403 367 371
f 403 401 367
f 404 380 382
f 405 381 380
f 405 380 404
f 382 383 406
f 407 382 406
f 404 382 407
f 328 408 341
f 328 346 408
f 390 392 409
f 390 409 395
f 410 386 378
f 397 410 378
f 365 373 411
f 365 411 400
f 412 308 291
f 412 291 348
f 413 414 415
f 414 416 415
f 417 414 413
f 414 418 416
f 419 418 414
f 417 419 414
f 413 415 420
f 420 415 421
f 415 416 422
f 415 422 421
f 423 413 420
f 424 413 423
f 424 417 413
f 423 420 425
f 425 420 426
f 420 421 426
f 393 423 425
f 427 423 393
f 427 424 423
f 393 425 392
f 392 425 428
f 425 426 428
f 394 427 393
f 392 428 409
f 429 391 386
f 410 429 386
f 373 379 430
f 373 430 411
f 383 375 431
f 375 402 431
f 432 371 381
f 432 403 371
f 339 433 347
f 339 372 433
f 347 433 352
f 434 313 327
f 349 313 434
f 418 435 416
f 418 436 435
f 437 436 418
f 419 437 418
f 416 435 438
f 416 438 422
f 439 394 391
f 429 439 391
f 379 387 440
f 379 440 430
f 406 383 441
f 383 431 441
f 343 442 342
f 342 443 344
f 342 442 443
f 350 444 343
f 343 444 442
f 345 445 350
f 388 445 345
f 331 446 346
f 331 351 446
f 447 427 394
f 439 447 394
f 387 395 448
f 387 448 440
f 436 449 435
f 437 450 436
f 436 451 449
f 450 451 436
f 435 449 452
f 435 452 438
f 453 419 417
f 454 437 419
f 453 454 419
f 455 417 424
f 455 453 417
f 456 424 427
f 456 455 424
f 447 456 427
f 395 409 457
f 395 457 448
f 458 432 381
f 458 381 405
f 459 450 437
f 454 459 437
f 426 421 460
f 421 422 461
f 421 461 460
f 428 426 462
f 426 460 462
f 409 428 463
f 428 462 463
f 409 463 457
f 406 441 464
f 465 406 464
f 407 406 465
f 422 438 466
f 422 466 461
f 451 467 449
f 450 468 451
f 468 469 451
f 451 469 467
f 449 467 470
f 449 470 452
f 471 468 450
f 459 471 450
f 472 397 396
f 473 410 397
f 472 473 397
f 474 396 398
f 474 472 396
f 475 398 401
f 475 474 398
f 438 452 476
f 438 476 466
f 477 429 410
f 473 477 410
f 399 400 478
f 402 399 479
f 399 478 479
f 480 401 403
f 480 475 401
f 400 411 481
f 400 481 478
f 431 402 482
f 402 479 482
f 483 439 429
f 477 483 429
f 445 484 350
f 350 484 444
f 411 430 485
f 411 485 481
f 468 486 469
f 471 487 468
f 487 486 468
f 488 447 439
f 483 488 439
f 430 440 489
f 430 489 485
f 441 431 490
f 431 482 490
f 491 403 432
f 491 480 403
f 344 492 351
f 344 443 492
f 469 493 467
f 486 494 469
f 469 494 493
f 467 495 470
f 467 493 495
f 452 470 496
f 452 496 476
f 497 454 453
f 498 459 454
f 497 498 454
f 499 453 455
f 499 497 453
f 500 456 447
f 488 500 447
f 352 501 388
f 433 501 352
f 502 455 456
f 502 499 455
f 500 502 456
f 440 448 503
f 440 503 489
f 341 504 372
f 341 408 504
f 505 471 459
f 498 505 459
f 462 460 506
f 460 461 507
f 460 507 506
f 463 462 508
f 462 506 508
f 448 457 509
f 448 509 503
f 464 441 510
f 441 490 510
f 461 466 511
f 461 511 507
f 457 463 512
f 463 508 512
f 457 512 509
f 513 487 471
f 505 513 471
f 514 491 432
f 514 432 458
f 486 515 494
f 487 516 486
f 516 515 486
f 470 495 517
f 470 517 496
f 466 476 518
f 466 518 511
f 519 324 308
f 519 308 412
f 464 510 520
f 521 464 520
f 465 464 521
f 494 522 493
f 515 523 494
f 494 523 522
f 493 524 495
f 493 522 524
f 525 327 336
f 434 327 525
f 526 516 487
f 513 526 487
f 388 527 445
f 501 527 388
f 476 496 528
f 476 528 518
f 529 473 472
f 530 477 473
f 529 530 473
f 531 472 474
f 531 529 472
f 532 483 477
f 530 532 477
f 533 474 475
f 533 531 474
f 346 534 408
f 346 446 534
f 516 535 515
f 515 536 523
f 535 536 515
f 537 498 497
f 538 505 498
f 537 538 498
f 539 497 499
f 539 537 497
f 540 488 483
f 541 500 488
f 540 541 488
f 532 540 483
f 478 481 542
f 481 485 543
f 481 543 542
f 479 478 544
f 478 542 544
f 482 479 545
f 479 544 545
f 490 482 546
f 482 545 546
f 547 475 480
f 547 533 475
f 372 548 433
f 372 504 548
f 433 548 501
f 495 524 549
f 495 549 517
f 526 550 516
f 550 535 516
f 551 513 505
f 538 551 505
f 508 506 552
f 506 507 553
f 506 553 552
f 512 508 554
f 508 552 554
f 555 499 502
f 555 539 499
f 556 502 500
f 556 555 502
f 541 556 500
f 485 489 557
f 485 557 543
f 507 511 558
f 507 558 553
f 489 503 559
f 489 559 557
f 510 490 560
f 490 546 560
f 496 517 561
f 496 561 528
f 562 526 513
f 551 562 513
f 509 512 563
f 512 554 563
f 503 509 564
f 509 563 564
f 503 564 559
f 565 480 491
f 565 547 480
f 566 332 333
f 567 333 337
f 566 333 567
f 445 568 484
f 527 568 445
f 523 569 522
f 536 570 523
f 523 570 569
f 522 571 524
f 522 569 571
f 511 518 572
f 511 572 558
f 444 573 442
f 484 574 444
f 444 574 573
f 442 575 443
f 442 573 575
f 351 576 446
f 351 492 576
f 520 510 577
f 510 560 577
f 578 550 526
f 562 578 526
f 535 579 536
f 536 580 570
f 579 580 536
f 524 571 581
f 524 581 549
f 550 582 535
f 582 579 535
f 517 549 583
f 517 583 561
f 518 528 584
f 518 584 572
f 585 551 538
f 586 538 537
f 586 585 538
f 587 565 491
f 587 491 514
f 588 334 324
f 588 324 519
f 589 335 332
f 589 332 566
f 590 337 349
f 567 337 590
f 578 591 550
f 591 582 550
f 592 562 551
f 585 592 551
f 552 553 593
f 553 558 594
f 553 594 593
f 554 552 595
f 552 593 595
f 596 537 539
f 596 586 537
f 563 554 597
f 554 595 597
f 598 539 555
f 598 596 539
f 599 541 540
f 600 556 541
f 599 600 541
f 601 540 532
f 601 599 540
f 602 532 530
f 602 601 532
f 544 542 603
f 542 543 604
f 542 604 603
f 605 530 529
f 605 602 530
f 545 544 606
f 544 603 606
f 607 529 531
f 607 605 529
f 546 545 608
f 545 606 608
f 609 531 533
f 609 607 531
f 520 577 610
f 611 520 610
f 521 520 611
f 612 336 334
f 525 336 612
f 613 578 562
f 592 613 562
f 614 555 556
f 614 598 555
f 600 614 556
f 543 557 615
f 543 615 604
f 528 561 616
f 528 616 584
f 564 563 617
f 563 597 617
f 557 559 618
f 557 618 615
f 560 546 619
f 546 608 619
f 558 572 620
f 558 620 594
f 559 564 621
f 564 617 621
f 559 621 618
f 622 533 547
f 622 609 533
f 570 623 569
f 580 624 570
f 570 624 623
f 569 625 571
f 569 623 625
f 613 626 578
f 626 591 578
f 572 584 627
f 572 627 620
f 595 593 592
f 593 613 592
f 595 592 585
f 593 594 613
f 597 595 585
f 597 585 586
f 617 597 586
f 617 586 596
f 577 560 628
f 560 619 628
f 443 629 492
f 443 575 629
f 568 630 484
f 484 630 574
f 408 631 504
f 408 534 631
f 501 632 527
f 548 632 501
f 612 334 588
f 579 633 580
f 580 634 624
f 633 634 580
f 571 635 581
f 571 625 635
f 582 636 579
f 636 633 579
f 549 637 583
f 549 581 637
f 591 638 582
f 638 636 582
f 561 583 639
f 561 639 616
f 594 626 613
f 594 620 626
f 621 617 596
f 621 596 598
f 618 621 598
f 618 598 614
f 615 618 614
f 615 614 600
f 604 615 600
f 604 600 599
f 603 604 599
f 603 599 601
f 606 603 601
f 606 601 602
f 608 606 602
f 608 602 605
f 619 608 605
f 619 605 607
f 628 619 607
f 628 607 609
f 640 547 565
f 640 622 547
f 577 628 641
f 610 577 641
f 626 642 591
f 642 638 591
f 584 643 627
f 584 616 643
f 620 642 626
f 620 627 642
f 641 628 609
f 641 609 622
f 644 404 407
f 645 405 404
f 645 404 644
f 646 407 465
f 644 407 646
f 647 640 565
f 647 565 587
f 610 641 648
f 649 610 648
f 611 610 649
f 650 348 335
f 650 335 589
f 651 349 434
f 590 349 651
f 527 652 568
f 632 652 527
f 638 653 636
f 636 654 633
f 653 654 636
f 583 655 639
f 583 637 655
f 642 656 638
f 656 653 638
f 627 656 642
f 627 643 656
f 648 641 622
f 648 622 640
f 446 657 534
f 446 576 657
f 504 658 548
f 504 631 658
f 548 658 632
f 624 659 623
f 634 660 624
f 624 660 659
f 623 661 625
f 623 659 661
f 633 662 634
f 654 662 633
f 581 663 637
f 581 635 663
f 616 664 643
f 616 639 664
f 665 458 405
f 665 405 645
f 666 465 521
f 646 465 666
f 625 667 635
f 625 661 667
f 668 648 640
f 668 640 647
f 662 669 634
f 634 669 660
f 643 670 656
f 656 670 653
f 643 664 670
f 649 648 668
f 568 671 630
f 652 671 568
f 653 672 654
f 670 672 653
f 639 673 664
f 639 655 673
f 574 674 573
f 573 675 575
f 573 674 675
f 630 676 574
f 574 676 674
f 492 677 576
f 492 629 677
f 654 678 662
f 672 678 654
f 637 679 655
f 637 663 679
f 635 680 663
f 635 667 680
f 662 681 669
f 678 681 662
f 664 682 670
f 670 682 672
f 664 673 682
f 660 683 659
f 659 684 661
f 659 683 684
f 669 685 660
f 660 685 683
f 686 514 458
f 686 458 665
f 632 687 652
f 658 687 632
f 672 688 678
f 682 688 672
f 655 689 673
f 655 679 689
f 690 521 611
f 666 521 690
f 671 691 630
f 630 691 676
f 534 692 631
f 534 657 692
f 661 693 667
f 661 684 693
f 575 694 629
f 575 675 694
f 695 412 348
f 695 348 650
f 696 434 525
f 651 434 696
f 681 697 669
f 669 697 685
f 663 698 679
f 663 680 698
f 678 699 681
f 688 699 678
f 673 700 682
f 682 700 688
f 673 689 700
f 667 701 680
f 667 693 701
f 699 702 681
f 681 702 697
f 652 703 671
f 687 703 652
f 631 704 658
f 658 704 687
f 679 705 689
f 679 698 705
f 631 692 704
f 700 706 688
f 688 706 699
f 576 707 657
f 576 677 707
f 685 708 683
f 683 709 684
f 683 708 709
f 710 587 514
f 710 514 686
f 697 711 685
f 685 711 708
f 689 712 700
f 700 712 706
f 689 705 712
f 684 713 693
f 684 709 713
f 680 714 698
f 680 701 714
f 715 611 649
f 690 611 715
f 706 716 699
f 699 716 702
f 671 717 691
f 703 717 671
f 702 718 697
f 697 718 711
f 676 719 674
f 674 720 675
f 674 719 720
f 691 721 676
f 676 721 719
f 629 722 677
f 629 694 722
f 723 644 646
f 724 645 644
f 724 644 723
f 725 646 666
f 723 646 725
f 726 519 412
f 726 412 695
f 727 525 612
f 696 525 727
f 693 728 701
f 693 713 728
f 698 729 705
f 698 714 729
f 712 730 706
f 706 730 716
f 716 731 702
f 702 731 718
f 732 567 590
f 733 566 567
f 733 567 732
f 705 734 712
f 712 734 730
f 705 729 734
f 735 647 587
f 735 587 710
f 691 736 721
f 717 736 691
f 687 737 703
f 704 737 687
f 738 649 668
f 715 649 738
f 739 665 645
f 739 645 724
f 675 740 694
f 675 720 740
f 657 741 692
f 657 707 741
f 742 590 651
f 732 590 742
f 701 743 714
f 701 728 743
f 744 666 690
f 725 666 744
f 745 589 566
f 745 566 733
f 730 746 716
f 716 746 731
f 747 668 647
f 747 647 735
f 738 668 747
f 748 588 519
f 748 519 726
f 749 612 588
f 727 612 749
f 714 750 729
f 714 743 750
f 703 751 717
f 737 751 703
f 692 752 704
f 704 752 737
f 692 741 752
f 734 753 730
f 730 753 746
f 677 754 707
f 677 722 754
f 729 755 734
f 729 750 755
f 756 686 665
f 756 665 739
f 749 588 748
f 734 755 753
f 757 690 715
f 744 690 757
f 758 651 696
f 742 651 758
f 721 759 719
f 719 759 760
f 719 760 720
f 721 761 759
f 736 761 721
f 717 762 736
f 751 762 717
f 694 763 722
f 694 740 763
f 764 650 589
f 764 589 745
f 761 765 759
f 736 766 761
f 766 767 761
f 761 767 765
f 759 768 760
f 759 765 768
f 762 766 736
f 720 760 769
f 720 769 740
f 737 770 751
f 752 770 737
f 707 771 741
f 707 754 771
f 772 710 686
f 772 686 756
f 773 715 738
f 757 715 773
f 774 723 725
f 775 724 723
f 775 723 774
f 776 725 744
f 774 725 776
f 766 777 767
f 778 777 766
f 762 778 766
f 760 768 779
f 760 779 769
f 767 780 765
f 777 781 767
f 767 781 780
f 765 782 768
f 765 780 782
f 783 696 727
f 758 696 783
f 751 784 762
f 770 784 751
f 741 785 752
f 752 785 770
f 741 771 785
f 722 786 754
f 722 763 786
f 787 739 724
f 787 724 775
f 788 744 757
f 776 744 788
f 789 695 650
f 789 650 764
f 790 735 710
f 790 710 772
f 777 791 781
f 778 792 777
f 792 791 777
f 768 782 793
f 768 793 779
f 784 778 762
f 794 738 747
f 773 738 794
f 740 769 795
f 740 795 763
f 781 796 780
f 791 797 781
f 781 797 796
f 780 798 782
f 780 796 798
f 799 792 778
f 784 799 778
f 800 747 735
f 800 735 790
f 769 779 801
f 769 801 795
f 794 747 800
f 802 756 739
f 802 739 787
f 803 757 773
f 788 757 803
f 770 804 784
f 785 804 770
f 754 805 771
f 754 786 805
f 792 806 791
f 791 807 797
f 806 807 791
f 782 798 808
f 782 808 793
f 809 727 749
f 783 727 809
f 799 810 792
f 810 806 792
f 779 793 811
f 779 811 801
f 812 726 695
f 812 695 789
f 804 799 784
f 797 813 796
f 807 814 797
f 797 814 813
f 796 815 798
f 796 813 815
f 763 795 816
f 763 816 786
f 771 817 785
f 771 805 817
f 785 817 804
f 818 774 776
f 819 775 774
f 819 774 818
f 820 776 788
f 818 776 820
f 821 772 756
f 821 756 802
f 822 810 799
f 804 822 799
f 823 773 794
f 803 773 823
f 795 801 824
f 795 824 816
f 825 749 748
f 809 749 825
f 826 787 775
f 826 775 819
f 806 827 807
f 807 828 814
f 827 828 807
f 798 829 808
f 798 815 829
f 810 830 806
f 830 827 806
f 793 808 831
f 793 831 811
f 832 788 803
f 820 788 832
f 833 748 726
f 833 726 812
f 822 834 810
f 834 830 810
f 825 748 833
f 801 811 835
f 801 835 824
f 817 822 804
f 836 790 772
f 836 772 821
f 786 816 837
f 786 837 805
f 814 838 813
f 828 839 814
f 814 839 838
f 813 840 815
f 813 838 840
f 841 794 800
f 823 794 841
f 817 842 822
f 842 834 822
f 843 802 787
f 843 787 826
f 816 824 844
f 816 844 837
f 845 803 823
f 832 803 845
f 846 800 790
f 846 790 836
f 841 800 846
f 827 847 828
f 830 848 827
f 848 847 827
f 808 829 849
f 808 849 831
f 828 850 839
f 847 850 828
f 815 851 829
f 815 840 851
f 805 842 817
f 805 837 842
f 834 852 830
f 852 848 830
f 811 831 853
f 811 853 835
f 842 854 834
f 854 852 834
f 855 818 820
f 856 819 818
f 856 818 855
f 857 820 832
f 855 820 857
f 824 858 844
f 824 835 858
f 837 854 842
f 837 844 854
f 839 859 838
f 850 860 839
f 839 860 859
f 838 861 840
f 838 859 861
f 862 821 802
f 862 802 843
f 863 823 841
f 845 823 863
f 864 826 819
f 864 819 856
f 865 832 845
f 857 832 865
f 844 866 854
f 854 866 852
f 844 858 866
f 848 867 847
f 847 868 850
f 867 868 847
f 829 851 869
f 829 869 849
f 852 870 848
f 870 867 848
f 831 871 853
f 831 849 871
f 866 870 852
f 835 872 858
f 835 853 872
f 850 873 860
f 868 873 850
f 840 874 851
f 840 861 874
f 875 836 821
f 875 821 862
f 876 841 846
f 863 841 876
f 877 843 826
f 877 826 864
f 865 845 878
f 878 845 863
f 858 879 866
f 866 879 870
f 858 872 879
f 860 880 859
f 873 881 860
f 860 881 880
f 859 882 861
f 859 880 882
f 883 855 857
f 884 856 855
f 884 855 883
f 885 857 865
f 883 857 885
f 886 846 836
f 886 836 875
f 876 846 886
f 870 887 867
f 879 887 870
f 853 888 872
f 853 871 888
f 867 889 868
f 887 889 867
f 868 890 873
f 889 890 868
f 851 891 869
f 851 874 891
f 849 892 871
f 849 869 892
f 893 864 856
f 893 856 884
f 873 894 881
f 890 894 873
f 861 895 874
f 861 882 895
f 885 865 896
f 896 865 878
f 897 862 843
f 897 843 877
f 878 863 898
f 898 863 876
f 872 899 879
f 879 899 887
f 872 888 899
f 881 900 880
f 894 901 881
f 881 901 900
f 880 902 882
f 880 900 902
f 887 903 889
f 899 903 887
f 871 904 888
f 871 892 904
f 905 877 864
f 905 864 893
f 906 883 885
f 907 884 883
f 907 883 906
f 908 885 896
f 906 885 908
f 896 878 909
f 909 878 898
f 889 910 890
f 903 910 889
f 869 911 892
f 869 891 911
f 890 912 894
f 910 912 890
f 874 895 913
f 874 913 891
f 914 875 862
f 914 862 897
f 915 876 886
f 898 876 915
f 894 916 901
f 912 916 894
f 882 917 895
f 882 902 917
f 918 893 884
f 918 884 907
f 888 919 899
f 899 919 903
f 888 904 919
f 908 896 920
f 920 896 909
f 921 886 875
f 921 875 914
f 915 886 921
f 901 922 900
f 916 923 901
f 901 923 922
f 900 924 902
f 900 922 924
f 925 897 877
f 925 877 905
f 909 898 926
f 926 898 915
f 903 927 910
f 919 927 903
f 892 928 904
f 892 911 928
f 929 906 908
f 930 907 906
f 930 906 929
f 931 908 920
f 929 908 931
f 910 932 912
f 912 933 916
f 932 933 912
f 895 917 934
f 895 934 913
f 927 932 910
f 891 935 911
f 891 913 935
f 936 905 893
f 936 893 918
f 916 937 923
f 933 937 916
f 902 924 938
f 902 938 917
f 920 909 939
f 939 909 926
f 940 918 907
f 940 907 930
f 931 920 941
f 941 920 939
f 904 942 919
f 919 942 927
f 904 928 942
f 923 943 922
f 937 944 923
f 923 944 943
f 922 945 924
f 922 943 945
f 946 914 897
f 946 897 925
f 947 915 921
f 926 915 947
f 948 929 931
f 949 931 941
f 948 931 949
f 950 930 929
f 950 929 948
f 927 951 932
f 942 951 927
f 911 952 928
f 911 935 952
f 933 953 937
f 937 954 944
f 953 954 937
f 924 945 955
f 924 955 938
f 932 956 933
f 956 953 933
f 917 938 957
f 917 957 934
f 958 921 914
f 958 914 946
f 947 921 958
f 959 925 905
f 959 905 936
f 939 926 960
f 960 926 947
f 951 956 932
f 913 961 935
f 913 934 961
f 962 918 940
f 962 936 918
f 963 930 950
f 963 940 930
f 941 939 964
f 949 941 965
f 965 941 964
f 944 966 943
f 944 967 966
f 954 967 944
f 943 966 968
f 943 968 945
f 964 939 960
f 969 948 949
f 969 949 970
f 970 949 965
f 971 948 969
f 971 950 948
f 928 972 942
f 942 972 951
f 928 952 972
f 967 969 970
f 967 970 966
f 966 970 973
f 970 965 973
f 974 969 967
f 974 971 969
f 954 974 967
f 966 973 968
f 953 975 954
f 975 974 954
f 945 968 976
f 945 976 955
f 965 964 977
f 973 965 977
f 978 950 971
f 978 963 950
f 956 979 953
f 979 975 953
f 938 955 980
f 938 980 957
f 981 946 925
f 981 925 959
f 960 947 982
f 982 947 958
f 983 940 963
f 983 962 940
f 964 960 984
f 977 964 984
f 985 971 974
f 985 978 971
f 968 973 986
f 973 977 986
f 951 987 956
f 972 987 951
f 935 988 952
f 935 961 988
f 987 979 956
f 934 957 989
f 934 989 961
f 975 985 974
f 968 986 976
f 990 959 936
f 990 936 962
f 984 960 982
f 991 958 946
f 991 946 981
f 982 958 991
f 986 977 992
f 977 984 992
f 993 963 978
f 993 983 963
f 979 994 975
f 994 985 975
f 955 976 995
f 955 995 980
f 952 996 972
f 972 996 987
f 952 988 996
f 997 978 985
f 997 993 978
f 976 986 998
f 986 992 998
f 987 999 979
f 999 994 979
f 957 980 1000
f 957 1000 989
f 1001 981 959
f 1001 959 990
f 984 982 1002
f 1002 982 991
f 1003 962 983
f 1003 990 962
f 992 984 1002
f 994 997 985
f 976 998 995
f 996 999 987
f 961 1004 988
f 961 989 1004
f 1005 991 981
f 1005 981 1001
f 1002 991 1005
f 988 1006 996
f 996 1006 999
f 988 1004 1006
f 992 1002 1007
f 998 992 1007
f 1008 983 993
f 1008 1003 983
f 999 1009 994
f 1009 997 994
f 980 995 1010
f 980 1010 1000
f 1011 1001 990
f 1011 990 1003
f 1007 1002 1005
f 1006 1009 999
f 989 1012 1004
f 989 1000 1012
f 1013 993 997
f 1013 1008 993
f 995 998 1014
f 998 1007 1014
f 1009 1013 997
f 995 1014 1010
f 1015 1005 1001
f 1007 1005 1015
f 1015 1001 1011
f 1004 1016 1006
f 1006 1016 1009
f 1004 1012 1016
f 1014 1007 1015
f 1017 1003 1008
f 1017 1011 1003
f 1016 1013 1009
f 1000 1010 1018
f 1000 1018 1012
f 1019 1008 1013
f 1019 1017 1008
f 1010 1014 1020
f 1014 1015 1020
f 1016 1019 1013
f 1010 1020 1018
f 1020 1015 1011
f 1020 1011 1017
f 1012 1019 1016
f 1012 1018 1019
f 1018 1020 1017
f 1018 1017 1019
