# 
# Wavefront OBJ file
# Created with Kaydara FBX
# 
mtllib c:\users\tjvan\onedrive\documenten\fontys\minor\nx\.mtlmodels\fibula.r.obj

g Fibula_r
v -0.124027 0.396426 -0.041945
v -0.122203 0.395700 -0.037000
v -0.124247 0.402579 -0.041440
v -0.122027 0.397371 -0.046077
v -0.123543 0.399722 -0.035572
v -0.122049 0.404667 -0.033594
v -0.122488 0.402074 -0.046692
v -0.120488 0.407722 -0.048473
v -0.121675 0.407041 -0.038319
v -0.121873 0.408865 -0.045198
v -0.120005 0.410272 -0.042209
v -0.121345 0.392404 -0.042473
v -0.120181 0.393459 -0.045747
v -0.118686 0.395502 -0.033989
v -0.120181 0.402316 -0.030956
v -0.119697 0.399041 -0.032143
v -0.119060 0.398338 -0.049264
v -0.118005 0.407063 -0.050670
v -0.119104 0.402360 -0.049484
v -0.120290 0.391876 -0.038561
v -0.118620 0.407832 -0.031813
v -0.118862 0.413173 -0.047506
v -0.118071 0.409524 -0.036099
v -0.118488 0.388228 -0.039703
v -0.119367 0.388667 -0.043022
v -0.118159 0.412074 -0.050231
v -0.117477 0.391942 -0.035550
v -0.115895 0.388448 -0.037044
v -0.118422 0.389568 -0.046077
v -0.117763 0.394491 -0.048736
v -0.116598 0.390513 -0.049000
v -0.116225 0.399195 -0.030099
v -0.117675 0.403217 -0.029242
v -0.117961 0.414008 -0.044956
v -0.117016 0.411810 -0.039791
v -0.118093 0.384953 -0.043747
v -0.117170 0.385700 -0.046495
v -0.114906 0.399239 -0.051396
v -0.115389 0.406513 -0.051901
v -0.115258 0.403107 -0.051681
v -0.115477 0.414140 -0.051308
v -0.115939 0.416228 -0.049418
v -0.113807 0.392140 -0.033110
v -0.114928 0.395546 -0.031572
v -0.113653 0.410382 -0.034626
v -0.114466 0.404030 -0.027813
v -0.114181 0.408272 -0.030868
v -0.117148 0.384557 -0.040539
v -0.115411 0.386492 -0.049000
v -0.115345 0.410623 -0.051967
v -0.117016 0.381217 -0.044385
v -0.116181 0.380799 -0.041440
v -0.112796 0.412469 -0.038451
v -0.115587 0.414799 -0.042868
v -0.115433 0.417041 -0.046758
v -0.114203 0.416755 -0.044582
v -0.113499 0.391415 -0.051000
v -0.114334 0.395437 -0.051308
v -0.112972 0.399634 -0.028363
v -0.112642 0.388667 -0.034780
v -0.116532 0.381744 -0.046912
v -0.113895 0.380711 -0.039110
v -0.114664 0.384667 -0.038165
v -0.116356 0.377503 -0.047484
v -0.116818 0.377151 -0.044934
v -0.111411 0.415063 -0.041923
v -0.116269 0.372799 -0.045242
v -0.115082 0.372645 -0.043176
v -0.115565 0.376821 -0.042319
v -0.114576 0.377898 -0.049484
v -0.114884 0.382272 -0.049330
v -0.115851 0.373107 -0.047769
v -0.115785 0.368601 -0.048099
v -0.116005 0.368382 -0.045747
v -0.115895 0.363854 -0.046143
v -0.114928 0.363722 -0.044363
v -0.114994 0.368228 -0.043813
v -0.111104 0.414975 -0.049989
v -0.115785 0.364030 -0.048341
v -0.115763 0.359503 -0.048517
v -0.115741 0.359327 -0.046473
v -0.115807 0.354953 -0.048692
v -0.115851 0.350360 -0.048824
v -0.115543 0.354799 -0.046758
v -0.114818 0.350426 -0.050187
v -0.115741 0.345766 -0.048758
v -0.115214 0.345722 -0.047022
v -0.115345 0.350272 -0.046934
v -0.114225 0.368755 -0.049571
v -0.114247 0.373349 -0.049440
v -0.114532 0.359591 -0.049945
v -0.114686 0.355019 -0.050055
v -0.114356 0.364162 -0.049747
v -0.115697 0.341173 -0.048714
v -0.114950 0.341217 -0.050275
v -0.114840 0.345810 -0.050253
v -0.114554 0.354733 -0.045132
v -0.114774 0.359217 -0.044824
v -0.115587 0.336624 -0.048582
v -0.114884 0.336602 -0.046890
v -0.115082 0.341151 -0.047022
v -0.114950 0.332118 -0.050209
v -0.115455 0.332074 -0.048385
v -0.114972 0.336646 -0.050231
v -0.113301 0.372470 -0.040868
v -0.113455 0.376667 -0.040033
v -0.112620 0.412997 -0.051176
v -0.115301 0.327591 -0.048253
v -0.114400 0.327591 -0.046539
v -0.114642 0.332074 -0.046692
v -0.110247 0.417085 -0.048736
v -0.112620 0.382711 -0.051264
v -0.112906 0.387173 -0.051066
v -0.112642 0.408316 -0.052429
v -0.111280 0.404382 -0.053000
v -0.114247 0.345678 -0.045176
v -0.114400 0.350228 -0.045198
v -0.109499 0.409986 -0.051396
v -0.114906 0.323107 -0.050187
v -0.115170 0.323107 -0.048231
v -0.114950 0.327613 -0.050187
v -0.110488 0.400250 -0.052758
v -0.115082 0.318602 -0.048187
v -0.114159 0.318646 -0.046121
v -0.114225 0.323107 -0.046341
v -0.114730 0.314140 -0.050275
v -0.114994 0.314118 -0.048099
v -0.114818 0.318624 -0.050231
v -0.113763 0.336624 -0.044868
v -0.114027 0.341151 -0.045066
v -0.114884 0.309635 -0.048011
v -0.113961 0.309679 -0.045725
v -0.114049 0.314162 -0.045923
v -0.113477 0.363612 -0.042165
v -0.113455 0.368074 -0.041506
v -0.113433 0.332140 -0.051088
v -0.113521 0.341195 -0.051154
v -0.113499 0.336646 -0.051088
v -0.113236 0.323173 -0.051176
v -0.113367 0.327657 -0.051110
v -0.110312 0.392294 -0.031198
v -0.111411 0.395876 -0.029681
v -0.114422 0.305107 -0.050451
v -0.114818 0.305085 -0.047945
v -0.114598 0.309635 -0.050363
v -0.112532 0.378140 -0.051264
v -0.113258 0.350404 -0.051220
v -0.113411 0.345788 -0.051176
v -0.114686 0.300558 -0.047901
v -0.113719 0.300646 -0.045374
v -0.113851 0.305173 -0.045528
v -0.112840 0.314206 -0.051330
v -0.113060 0.318668 -0.051242
v -0.113301 0.354711 -0.042890
v -0.113389 0.359151 -0.042670
v -0.113939 0.296008 -0.050626
v -0.114554 0.295986 -0.047879
v -0.114225 0.300558 -0.050538
v -0.112950 0.359634 -0.051440
v -0.113192 0.355019 -0.051396
v -0.111148 0.380755 -0.037330
v -0.111829 0.384799 -0.036077
v -0.113192 0.327657 -0.044319
v -0.113499 0.332140 -0.044626
v -0.112356 0.305195 -0.051528
v -0.112620 0.309723 -0.051440
v -0.114378 0.291459 -0.047945
v -0.113323 0.291613 -0.045308
v -0.113521 0.296118 -0.045308
v -0.111719 0.404579 -0.027154
v -0.112950 0.345722 -0.042824
v -0.113170 0.350250 -0.042934
v -0.113323 0.286975 -0.050780
v -0.114137 0.286975 -0.048011
v -0.113675 0.291481 -0.050780
v -0.112598 0.368909 -0.051286
v -0.112730 0.364272 -0.051396
v -0.109719 0.392008 -0.052077
v -0.110005 0.396228 -0.052187
v -0.112488 0.373546 -0.051132
v -0.111763 0.296140 -0.051769
v -0.112071 0.300668 -0.051659
v -0.112862 0.318733 -0.043659
v -0.112950 0.323195 -0.043989
v -0.110137 0.416975 -0.044670
v -0.109499 0.408513 -0.034626
v -0.110093 0.407239 -0.030319
v -0.113895 0.282536 -0.048077
v -0.113016 0.282646 -0.045352
v -0.113148 0.287129 -0.045308
v -0.112642 0.309788 -0.043154
v -0.112752 0.314272 -0.043396
v -0.112312 0.336777 -0.042341
v -0.112642 0.341239 -0.042604
v -0.113631 0.278118 -0.048209
v -0.112730 0.278184 -0.050868
v -0.112906 0.282558 -0.050758
v -0.112247 0.300777 -0.042890
v -0.112444 0.305305 -0.042978
v -0.111038 0.287129 -0.052077
v -0.111411 0.291613 -0.051923
v -0.113433 0.273657 -0.048385
v -0.113016 0.273613 -0.045725
v -0.112972 0.278140 -0.045484
v -0.111983 0.291745 -0.042648
v -0.112049 0.296250 -0.042780
v -0.111675 0.341173 -0.051901
v -0.111763 0.327854 -0.041725
v -0.112027 0.332338 -0.042033
v -0.111653 0.332184 -0.051769
v -0.111697 0.336646 -0.051725
v -0.111236 0.363568 -0.040341
v -0.110774 0.372360 -0.039396
v -0.111060 0.367986 -0.039901
v -0.110818 0.376601 -0.038407
v -0.113258 0.269151 -0.048604
v -0.112642 0.269261 -0.051132
v -0.112708 0.273745 -0.051022
v -0.111389 0.350316 -0.052341
v -0.111565 0.345722 -0.052165
v -0.111389 0.354777 -0.040648
v -0.111323 0.359173 -0.040604
v -0.111301 0.323239 -0.051901
v -0.111499 0.327700 -0.051813
v -0.113038 0.264624 -0.048780
v -0.112928 0.269085 -0.046011
v -0.111016 0.359591 -0.053000
v -0.111170 0.354909 -0.052626
v -0.111280 0.345942 -0.040539
v -0.111411 0.350360 -0.040626
v -0.112115 0.282668 -0.042648
v -0.112049 0.287217 -0.042604
v -0.110774 0.314294 -0.052099
v -0.111082 0.318755 -0.052011
v -0.112686 0.264602 -0.046231
v -0.112774 0.260096 -0.048934
v -0.112422 0.260096 -0.046385
v -0.112203 0.260162 -0.051352
v -0.112466 0.264690 -0.051264
v -0.112225 0.278118 -0.042802
v -0.112115 0.269041 -0.043330
v -0.112269 0.273569 -0.043044
v -0.109389 0.400909 -0.027132
v -0.111521 0.318843 -0.041110
v -0.111543 0.323349 -0.041440
v -0.110554 0.278272 -0.052297
v -0.110730 0.282690 -0.052209
v -0.109609 0.382909 -0.052231
v -0.109587 0.387546 -0.052121
v -0.107192 0.412601 -0.042692
v -0.108708 0.410338 -0.038802
v -0.112488 0.255569 -0.049066
v -0.111939 0.255613 -0.051374
v -0.111301 0.309832 -0.040736
v -0.111455 0.314338 -0.040890
v -0.110488 0.369041 -0.052582
v -0.110730 0.364360 -0.053000
v -0.110378 0.269349 -0.052582
v -0.110444 0.273833 -0.052429
v -0.111697 0.260030 -0.043747
v -0.111895 0.264536 -0.043593
v -0.110554 0.337085 -0.040077
v -0.110928 0.341503 -0.040319
v -0.108928 0.384865 -0.034736
v -0.109653 0.388623 -0.032890
v -0.110181 0.305327 -0.052297
v -0.110466 0.309832 -0.052231
v -0.107126 0.411920 -0.050626
v -0.110225 0.373634 -0.052165
v -0.109961 0.378228 -0.052187
v -0.112137 0.255591 -0.046517
v -0.112137 0.251063 -0.049132
v -0.111917 0.251063 -0.046626
v -0.110137 0.260272 -0.052802
v -0.110291 0.264822 -0.052692
v -0.111236 0.300777 -0.040407
v -0.111192 0.305305 -0.040561
v -0.111675 0.278030 -0.040385
v -0.111455 0.268931 -0.040890
v -0.111587 0.273481 -0.040626
v -0.111675 0.251085 -0.051352
v -0.111785 0.246536 -0.049198
v -0.111367 0.246580 -0.051374
v -0.111653 0.250975 -0.044055
v -0.111631 0.255503 -0.043901
v -0.111499 0.287173 -0.040231
v -0.111609 0.282602 -0.040253
v -0.109477 0.296294 -0.052495
v -0.109851 0.300799 -0.052385
v -0.111411 0.291701 -0.040275
v -0.111323 0.296250 -0.040319
v -0.110378 0.328074 -0.039374
v -0.110444 0.332602 -0.039725
v -0.109763 0.251217 -0.052978
v -0.109961 0.255723 -0.052890
v -0.111807 0.246492 -0.046780
v -0.111433 0.259899 -0.041396
v -0.111411 0.264404 -0.041132
v -0.108576 0.380777 -0.036143
v -0.111653 0.241943 -0.047066
v -0.111653 0.246382 -0.044275
v -0.111499 0.242074 -0.049418
v -0.106774 0.403942 -0.030451
v -0.109192 0.341085 -0.052319
v -0.109170 0.332206 -0.052011
v -0.109258 0.336646 -0.052121
v -0.109411 0.246734 -0.053022
v -0.111126 0.277920 -0.038341
v -0.111521 0.241789 -0.044604
v -0.111258 0.237239 -0.045022
v -0.111258 0.237613 -0.049835
v -0.111433 0.237437 -0.047528
v -0.111345 0.246250 -0.042011
v -0.111499 0.255393 -0.041659
v -0.111499 0.250822 -0.041703
v -0.111082 0.287085 -0.038297
v -0.111126 0.282514 -0.038253
v -0.110906 0.268822 -0.038692
v -0.111016 0.273393 -0.038561
v -0.108752 0.350162 -0.052868
v -0.109016 0.345591 -0.052604
v -0.110312 0.318931 -0.038890
v -0.110269 0.323503 -0.039154
v -0.111038 0.241657 -0.042319
v -0.110642 0.237107 -0.042714
v -0.111038 0.242184 -0.051528
v -0.110906 0.237745 -0.051791
v -0.110620 0.255239 -0.039681
v -0.110247 0.246162 -0.040209
v -0.110466 0.250712 -0.039945
v -0.108818 0.323327 -0.051989
v -0.108994 0.327766 -0.051967
v -0.110444 0.309832 -0.038473
v -0.110378 0.314382 -0.038670
v -0.111214 0.232954 -0.048055
v -0.111038 0.233129 -0.050319
v -0.110818 0.264294 -0.038978
v -0.110730 0.259745 -0.039352
v -0.108554 0.287283 -0.052582
v -0.109016 0.291789 -0.052560
v -0.110796 0.296184 -0.038319
v -0.110906 0.291613 -0.038319
v -0.109170 0.354865 -0.039593
v -0.109104 0.346140 -0.039308
v -0.109170 0.350470 -0.039593
v -0.106818 0.393327 -0.031396
v -0.107565 0.397085 -0.029396
v -0.110620 0.300734 -0.038341
v -0.109082 0.363568 -0.039220
v -0.109148 0.359217 -0.039440
v -0.107323 0.405854 -0.052495
v -0.110884 0.232756 -0.045528
v -0.110972 0.228448 -0.048582
v -0.110510 0.228294 -0.046099
v -0.110532 0.305283 -0.038363
v -0.108378 0.359525 -0.053264
v -0.108510 0.354777 -0.053110
v -0.109675 0.277855 -0.036890
v -0.109895 0.286953 -0.036495
v -0.109697 0.282426 -0.036626
v -0.105148 0.413700 -0.049066
v -0.108247 0.314426 -0.052121
v -0.108576 0.318887 -0.052055
v -0.108598 0.372228 -0.038253
v -0.108906 0.367898 -0.038824
v -0.110840 0.228624 -0.050758
v -0.110620 0.233305 -0.052253
v -0.110291 0.228778 -0.052692
v -0.109433 0.237041 -0.040780
v -0.109873 0.241569 -0.040473
v -0.108796 0.237943 -0.053549
v -0.109060 0.242338 -0.053308
v -0.109477 0.273327 -0.037176
v -0.110664 0.224096 -0.051110
v -0.110708 0.223943 -0.048956
v -0.108708 0.337261 -0.038714
v -0.108906 0.341744 -0.039000
v -0.109082 0.264272 -0.037901
v -0.109280 0.268800 -0.037484
v -0.109983 0.296140 -0.036670
v -0.110093 0.291569 -0.036561
v -0.110247 0.232580 -0.043154
v -0.109873 0.228140 -0.043637
v -0.109961 0.224228 -0.053022
v -0.108488 0.376492 -0.037220
v -0.108664 0.255173 -0.038451
v -0.108862 0.259701 -0.038099
v -0.108005 0.278338 -0.052538
v -0.108203 0.282822 -0.052560
v -0.108225 0.364316 -0.053088
v -0.110422 0.219437 -0.049176
v -0.110137 0.223833 -0.046539
v -0.109829 0.219349 -0.046780
v -0.110400 0.219547 -0.051330
v -0.108422 0.228954 -0.053989
v -0.108642 0.233459 -0.053769
v -0.109543 0.305239 -0.036780
v -0.109807 0.300690 -0.036758
v -0.109345 0.309788 -0.036802
v -0.107565 0.373590 -0.052253
v -0.107983 0.369019 -0.052780
v -0.106115 0.396711 -0.052077
v -0.106334 0.401151 -0.052429
v -0.108115 0.246162 -0.039176
v -0.108378 0.250668 -0.038824
v -0.107763 0.305437 -0.052275
v -0.107983 0.309942 -0.052187
v -0.107895 0.269393 -0.052648
v -0.107917 0.273876 -0.052560
v -0.108906 0.328228 -0.037659
v -0.108752 0.332777 -0.038187
v -0.110093 0.214998 -0.051528
v -0.110137 0.214910 -0.049308
v -0.109367 0.215107 -0.053418
v -0.109653 0.219679 -0.053264
v -0.109170 0.318997 -0.037110
v -0.109236 0.314382 -0.036934
v -0.107873 0.260338 -0.052824
v -0.107895 0.264866 -0.052736
v -0.109082 0.323613 -0.037352
v -0.108686 0.228074 -0.041462
v -0.109060 0.232514 -0.041132
v -0.105302 0.414030 -0.045308
v -0.109829 0.210404 -0.049396
v -0.109302 0.210360 -0.046912
v -0.109565 0.214866 -0.046890
v -0.109499 0.223723 -0.044055
v -0.109104 0.219305 -0.044275
v -0.109807 0.210448 -0.051615
v -0.107807 0.296052 -0.036275
v -0.107785 0.286953 -0.036912
v -0.107851 0.291481 -0.036539
v -0.106291 0.405371 -0.034780
v -0.106137 0.392294 -0.051901
v -0.107807 0.219855 -0.054451
v -0.108115 0.224404 -0.054231
v -0.107543 0.251305 -0.052912
v -0.107741 0.255811 -0.052868
v -0.106642 0.382843 -0.052165
v -0.107170 0.378096 -0.052165
v -0.107367 0.237129 -0.039813
v -0.107785 0.241657 -0.039506
v -0.107038 0.296448 -0.052297
v -0.107455 0.300931 -0.052319
v -0.109455 0.205921 -0.051703
v -0.109565 0.205877 -0.049462
v -0.108708 0.205987 -0.053571
v -0.109038 0.210536 -0.053484
v -0.107961 0.305151 -0.035967
v -0.107741 0.300624 -0.036121
v -0.107697 0.282448 -0.037264
v -0.107389 0.273415 -0.037791
v -0.107543 0.277942 -0.037484
v -0.107543 0.215283 -0.054670
v -0.106313 0.385239 -0.034692
v -0.106378 0.389283 -0.032846
v -0.106203 0.387612 -0.052187
v -0.109302 0.201349 -0.049528
v -0.108818 0.201327 -0.047022
v -0.109060 0.205855 -0.046934
v -0.108510 0.210382 -0.044319
v -0.108818 0.214866 -0.044319
v -0.107851 0.219305 -0.042033
v -0.108312 0.223679 -0.041747
v -0.109082 0.201393 -0.051791
v -0.106950 0.242426 -0.053000
v -0.107258 0.246866 -0.052890
v -0.107521 0.314338 -0.036033
v -0.107719 0.309723 -0.035967
v -0.108686 0.196910 -0.051945
v -0.109016 0.196844 -0.049681
v -0.107192 0.264382 -0.038385
v -0.107302 0.268909 -0.038099
v -0.106664 0.341063 -0.051528
v -0.106554 0.332228 -0.051176
v -0.106642 0.336667 -0.051396
v -0.107477 0.318975 -0.036121
v -0.107170 0.354909 -0.038912
v -0.107170 0.346206 -0.038802
v -0.107236 0.350536 -0.038956
v -0.107082 0.363547 -0.038670
v -0.107126 0.359239 -0.038934
v -0.108356 0.201481 -0.053615
v -0.107961 0.196998 -0.053725
v -0.107214 0.328272 -0.037000
v -0.107411 0.323657 -0.036385
v -0.107851 0.201349 -0.044473
v -0.108181 0.205877 -0.044363
v -0.106400 0.228206 -0.040473
v -0.106906 0.232646 -0.040165
v -0.106708 0.237987 -0.053198
v -0.106906 0.206118 -0.054956
v -0.107280 0.210712 -0.054846
v -0.108554 0.196822 -0.047176
v -0.108752 0.192382 -0.049879
v -0.108312 0.192360 -0.047352
v -0.106137 0.287437 -0.052099
v -0.106576 0.291942 -0.052209
v -0.106356 0.350118 -0.051857
v -0.106510 0.345547 -0.051703
v -0.106313 0.323415 -0.051044
v -0.106466 0.327810 -0.051000
v -0.106972 0.337327 -0.038099
v -0.107060 0.341810 -0.038429
v -0.106664 0.372118 -0.037725
v -0.106928 0.367810 -0.038253
v -0.106730 0.255283 -0.039110
v -0.106972 0.259833 -0.038692
v -0.107104 0.210448 -0.042231
v -0.107455 0.214910 -0.042143
v -0.108269 0.192426 -0.052077
v -0.108444 0.187899 -0.050033
v -0.107917 0.187921 -0.052165
v -0.107038 0.332821 -0.037615
v -0.105148 0.407546 -0.039308
v -0.106356 0.228998 -0.053615
v -0.106554 0.233503 -0.053418
v -0.105873 0.314536 -0.051220
v -0.106093 0.318997 -0.051088
v -0.106400 0.376492 -0.036802
v -0.106313 0.380909 -0.035879
v -0.107258 0.192382 -0.044780
v -0.107543 0.196844 -0.044604
v -0.106203 0.354755 -0.052033
v -0.108071 0.187921 -0.047506
v -0.108137 0.183415 -0.050121
v -0.107851 0.183437 -0.047637
v -0.108378 0.073504 -0.050407
v -0.108400 0.069548 -0.050956
v -0.107499 0.068910 -0.046912
v -0.107258 0.073877 -0.054780
v -0.108137 0.065570 -0.050956
v -0.108225 0.065284 -0.054692
v -0.107917 0.069789 -0.055066
v -0.107455 0.066097 -0.048099
v -0.108115 0.077284 -0.049989
v -0.107170 0.076493 -0.044912
v -0.107521 0.072690 -0.045615
v -0.106115 0.246338 -0.039857
v -0.106444 0.250800 -0.039484
v -0.105895 0.364206 -0.052011
v -0.106027 0.359437 -0.052187
v -0.106137 0.197151 -0.055022
v -0.106422 0.201635 -0.054934
v -0.105521 0.219481 -0.041066
v -0.105917 0.223833 -0.040824
v -0.107543 0.192492 -0.053901
v -0.107192 0.187965 -0.053967
v -0.106994 0.062163 -0.050187
v -0.105126 0.065240 -0.058319
v -0.107104 0.061526 -0.053879
v -0.105675 0.278426 -0.052011
v -0.105851 0.282931 -0.052055
v -0.106400 0.201437 -0.042451
v -0.106752 0.205943 -0.042341
v -0.107631 0.183415 -0.052187
v -0.107829 0.178888 -0.050253
v -0.107345 0.178932 -0.052275
v -0.107631 0.081086 -0.049835
v -0.106752 0.077679 -0.054473
v -0.105807 0.219921 -0.054033
v -0.106115 0.224470 -0.053813
v -0.106884 0.183481 -0.045022
v -0.107016 0.187943 -0.044956
v -0.105477 0.305525 -0.051506
v -0.105675 0.310030 -0.051330
v -0.105719 0.373371 -0.050824
v -0.105851 0.368887 -0.051484
v -0.106356 0.305085 -0.037022
v -0.105170 0.069306 -0.057440
v -0.105565 0.269415 -0.052055
v -0.105565 0.273920 -0.052033
v -0.105609 0.260404 -0.052121
v -0.105609 0.264910 -0.052099
v -0.107631 0.178954 -0.047769
v -0.106598 0.296074 -0.037418
v -0.106532 0.291547 -0.037703
v -0.107411 0.174448 -0.047857
v -0.107543 0.174382 -0.050385
v -0.105214 0.237371 -0.040517
v -0.105697 0.241855 -0.040209
v -0.106225 0.282492 -0.038055
v -0.106334 0.287019 -0.037945
v -0.105477 0.251415 -0.052077
v -0.105587 0.255899 -0.052099
v -0.106554 0.300602 -0.037198
v -0.105697 0.314228 -0.036780
v -0.106005 0.309635 -0.036890
v -0.106752 0.080558 -0.044890
v -0.106994 0.085064 -0.049901
v -0.106510 0.084778 -0.045352
v -0.105477 0.085350 -0.054077
v -0.106181 0.081438 -0.054275
v -0.106642 0.174514 -0.045198
v -0.106752 0.179020 -0.045110
v -0.106488 0.179042 -0.053989
v -0.106862 0.183459 -0.053967
v -0.103741 0.394821 -0.032561
v -0.104796 0.399437 -0.031242
v -0.107214 0.169877 -0.050473
v -0.106994 0.174448 -0.052473
v -0.106664 0.169943 -0.052670
v -0.105631 0.188053 -0.055066
v -0.105895 0.192602 -0.055066
v -0.105675 0.192448 -0.042736
v -0.106027 0.196932 -0.042582
v -0.105236 0.210822 -0.054473
v -0.105521 0.215371 -0.054253
v -0.105653 0.273503 -0.038495
v -0.106049 0.278008 -0.038253
v -0.106269 0.067306 -0.043352
v -0.106027 0.076053 -0.040099
v -0.106422 0.071328 -0.040890
v -0.105411 0.323525 -0.036912
v -0.105521 0.318865 -0.036758
v -0.106137 0.064097 -0.046495
v -0.105016 0.210624 -0.041022
v -0.105258 0.215085 -0.041066
v -0.104862 0.296558 -0.051418
v -0.105214 0.301041 -0.051528
v -0.107214 0.169943 -0.047901
v -0.105280 0.328162 -0.037154
v -0.103917 0.407393 -0.051549
v -0.102862 0.401634 -0.051506
v -0.105236 0.264514 -0.039000
v -0.105477 0.269019 -0.039000
v -0.104950 0.206272 -0.054495
v -0.103675 0.077372 -0.057615
v -0.104422 0.073438 -0.057396
v -0.104950 0.242514 -0.052209
v -0.105236 0.246975 -0.052077
v -0.105367 0.346206 -0.039132
v -0.105236 0.354909 -0.039176
v -0.105323 0.350536 -0.039220
v -0.107060 0.165481 -0.047901
v -0.106972 0.165393 -0.050517
v -0.106313 0.165547 -0.045352
v -0.106488 0.170009 -0.045286
v -0.101214 0.408953 -0.045989
v -0.103038 0.409217 -0.042561
v -0.104071 0.382579 -0.050890
v -0.104994 0.377832 -0.050758
v -0.105192 0.363568 -0.038956
v -0.105214 0.359283 -0.039088
v -0.105104 0.059965 -0.049418
v -0.105587 0.058932 -0.053308
v -0.104730 0.059218 -0.056187
v -0.105345 0.061020 -0.057286
v -0.106752 0.160910 -0.050407
v -0.106972 0.161042 -0.047747
v -0.105126 0.337327 -0.038055
v -0.105258 0.341810 -0.038626
v -0.105104 0.332733 -0.037572
v -0.105060 0.183547 -0.043110
v -0.105345 0.188009 -0.042934
v -0.106027 0.089086 -0.046011
v -0.106313 0.089240 -0.050011
v -0.105521 0.170097 -0.054275
v -0.106005 0.174602 -0.054143
v -0.106906 0.156558 -0.047571
v -0.106247 0.156668 -0.045132
v -0.106181 0.161130 -0.045330
v -0.106049 0.160910 -0.052736
v -0.106334 0.165437 -0.052758
v -0.104532 0.255525 -0.040363
v -0.105060 0.260052 -0.039242
v -0.105016 0.367832 -0.038670
v -0.106356 0.151921 -0.050099
v -0.106818 0.152053 -0.047462
v -0.106554 0.156426 -0.050231
v -0.104071 0.228492 -0.041242
v -0.104686 0.232910 -0.040846
v -0.104928 0.179217 -0.054978
v -0.105302 0.183569 -0.055000
v -0.106664 0.147481 -0.047374
v -0.106400 0.147591 -0.044780
v -0.106334 0.152163 -0.044956
v -0.105038 0.085020 -0.041813
v -0.105741 0.080668 -0.040692
v -0.104972 0.174558 -0.043176
v -0.104950 0.179064 -0.043176
v -0.104444 0.201591 -0.041110
v -0.104774 0.206097 -0.041066
v -0.104488 0.233525 -0.052560
v -0.104708 0.238030 -0.052363
v -0.106466 0.142910 -0.047308
v -0.105851 0.142800 -0.050011
v -0.106115 0.147349 -0.050033
v -0.104862 0.341151 -0.048758
v -0.104378 0.376579 -0.037066
v -0.104752 0.372118 -0.038011
v -0.104620 0.332250 -0.048539
v -0.104752 0.336711 -0.048560
v -0.105148 0.300602 -0.038561
v -0.104950 0.291613 -0.039110
v -0.105082 0.296140 -0.038824
v -0.104049 0.287569 -0.051176
v -0.104400 0.292096 -0.051242
v -0.105543 0.151855 -0.052538
v -0.105807 0.156382 -0.052626
v -0.104269 0.228998 -0.052780
v -0.104906 0.305085 -0.038341
v -0.104708 0.345634 -0.049154
v -0.106422 0.143020 -0.044670
v -0.106488 0.138470 -0.044539
v -0.106291 0.138339 -0.047198
v -0.106159 0.133811 -0.047066
v -0.106444 0.133921 -0.044319
v -0.104906 0.138624 -0.042297
v -0.105016 0.165569 -0.043198
v -0.104994 0.170053 -0.043176
v -0.104291 0.323415 -0.048560
v -0.104422 0.327832 -0.048648
v -0.106313 0.129415 -0.044297
v -0.104730 0.134097 -0.042033
v -0.104093 0.246558 -0.040934
v -0.104444 0.251041 -0.040582
v -0.104137 0.065526 -0.040758
v -0.104049 0.075855 -0.036539
v -0.103983 0.070317 -0.037857
v -0.105082 0.147657 -0.042846
v -0.104928 0.143108 -0.042670
v -0.104313 0.197261 -0.054670
v -0.104598 0.201767 -0.054538
v -0.103939 0.385700 -0.035484
v -0.103543 0.390184 -0.033901
v -0.104356 0.354799 -0.049813
v -0.104510 0.350206 -0.049528
v -0.104972 0.156690 -0.043242
v -0.105104 0.152207 -0.043088
v -0.104752 0.161064 -0.054385
v -0.105104 0.165591 -0.054341
v -0.104796 0.282668 -0.040055
v -0.104862 0.287129 -0.039550
v -0.102642 0.396953 -0.050912
v -0.105785 0.093635 -0.050143
v -0.104005 0.093811 -0.053593
v -0.104598 0.089525 -0.053967
v -0.105631 0.124822 -0.046912
v -0.106159 0.124866 -0.044209
v -0.104422 0.124998 -0.041901
v -0.105829 0.129306 -0.046978
v -0.104532 0.129591 -0.041945
v -0.104005 0.381151 -0.036297
v -0.105367 0.133701 -0.049879
v -0.105587 0.138251 -0.049967
v -0.102027 0.403634 -0.039176
v -0.103587 0.401854 -0.034736
v -0.104884 0.061679 -0.044670
v -0.103302 0.387480 -0.051066
v -0.102115 0.085086 -0.056978
v -0.102818 0.081152 -0.057374
v -0.104994 0.161130 -0.043264
v -0.105609 0.120317 -0.046912
v -0.105873 0.120317 -0.044165
v -0.102642 0.392513 -0.050604
v -0.104906 0.142778 -0.052604
v -0.105258 0.147327 -0.052538
v -0.103653 0.220009 -0.053352
v -0.103983 0.224492 -0.053022
v -0.103719 0.314536 -0.049044
v -0.104005 0.319041 -0.048824
v -0.104313 0.273723 -0.040582
v -0.104642 0.278184 -0.040451
v -0.105983 0.093503 -0.046451
v -0.104686 0.093635 -0.043571
v -0.104664 0.089328 -0.042912
v -0.103653 0.192602 -0.041220
v -0.104049 0.197108 -0.041154
v -0.104291 0.364052 -0.049747
v -0.104247 0.359415 -0.049879
v -0.104356 0.170272 -0.055308
v -0.104752 0.174778 -0.055176
v -0.104598 0.314162 -0.038517
v -0.104664 0.309613 -0.038539
v -0.105961 0.097987 -0.046670
v -0.104774 0.098009 -0.043901
v -0.105895 0.102449 -0.046802
v -0.105082 0.102624 -0.050187
v -0.105587 0.098075 -0.049989
v -0.105829 0.115789 -0.047066
v -0.105917 0.111174 -0.046692
v -0.105543 0.115745 -0.044099
v -0.104686 0.111394 -0.049901
v -0.105719 0.106866 -0.046846
v -0.104708 0.106756 -0.044143
v -0.105104 0.111218 -0.044143
v -0.103082 0.219701 -0.041835
v -0.103543 0.224096 -0.041681
v -0.104598 0.102405 -0.044099
v -0.103741 0.188184 -0.054868
v -0.104049 0.192712 -0.054824
v -0.104005 0.115855 -0.041945
v -0.104356 0.120404 -0.041967
v -0.103697 0.278492 -0.051220
v -0.103851 0.283041 -0.051198
v -0.103917 0.373085 -0.048956
v -0.104356 0.368601 -0.049308
v -0.104730 0.115833 -0.049791
v -0.104862 0.124756 -0.049725
v -0.105060 0.129218 -0.049835
v -0.104203 0.152009 -0.054363
v -0.104466 0.156536 -0.054385
v -0.103851 0.085745 -0.038824
v -0.104203 0.081130 -0.037286
v -0.104708 0.107020 -0.050011
v -0.103565 0.237613 -0.041813
v -0.103719 0.242118 -0.041264
v -0.103653 0.305525 -0.048868
v -0.103587 0.309986 -0.048934
v -0.104708 0.120295 -0.049725
v -0.103653 0.260470 -0.051154
v -0.103587 0.269437 -0.051220
v -0.103631 0.264953 -0.051176
v -0.103389 0.057767 -0.048934
v -0.103324 0.057020 -0.053506
v -0.102884 0.102602 -0.052978
v -0.103389 0.098207 -0.053286
v -0.104137 0.133701 -0.052604
v -0.104576 0.138229 -0.052648
v -0.103433 0.251547 -0.051132
v -0.103587 0.255986 -0.051132
v -0.103609 0.273964 -0.051220
v -0.103016 0.210910 -0.053659
v -0.103258 0.215459 -0.053681
v -0.104356 0.323393 -0.038604
v -0.104488 0.318777 -0.038561
v -0.104093 0.264756 -0.041264
v -0.104269 0.269239 -0.041022
v -0.103807 0.346184 -0.039923
v -0.102708 0.061240 -0.057681
v -0.103082 0.183591 -0.041440
v -0.103324 0.188119 -0.041308
v -0.103609 0.354931 -0.040297
v -0.103697 0.350536 -0.040209
v -0.103192 0.179349 -0.054890
v -0.103455 0.183723 -0.054824
v -0.101785 0.408447 -0.048978
v -0.104181 0.332558 -0.039044
v -0.104247 0.327986 -0.038714
v -0.103477 0.142910 -0.054582
v -0.103851 0.147459 -0.054451
v -0.102510 0.210800 -0.041703
v -0.102774 0.215261 -0.041813
v -0.103807 0.337107 -0.039462
v -0.103785 0.341744 -0.039462
v -0.102862 0.242646 -0.051352
v -0.103170 0.247085 -0.051220
v -0.103302 0.296624 -0.048846
v -0.103521 0.301085 -0.048846
v -0.103565 0.359327 -0.040341
v -0.103587 0.367942 -0.039923
v -0.103543 0.363634 -0.040231
v -0.102642 0.068383 -0.059088
v -0.104554 0.300690 -0.041000
v -0.102884 0.064449 -0.058055
v -0.103587 0.106822 -0.041791
v -0.103829 0.111284 -0.041769
v -0.102664 0.147657 -0.042253
v -0.102642 0.156602 -0.042209
v -0.102708 0.152141 -0.042231
v -0.103587 0.161218 -0.055571
v -0.103939 0.165745 -0.055440
v -0.103851 0.291811 -0.041593
v -0.104247 0.296250 -0.041220
v -0.103433 0.124756 -0.052604
v -0.103763 0.129218 -0.052670
v -0.103455 0.255745 -0.041747
v -0.103829 0.260250 -0.041506
v -0.102730 0.165547 -0.042033
v -0.102686 0.161064 -0.042165
v -0.102840 0.174580 -0.041923
v -0.102818 0.170053 -0.041967
v -0.102884 0.377481 -0.049066
v -0.102928 0.179086 -0.041703
v -0.102378 0.201877 -0.053945
v -0.102774 0.206426 -0.053747
v -0.102488 0.143152 -0.042275
v -0.102071 0.134251 -0.041989
v -0.102269 0.138690 -0.042275
v -0.104752 0.305151 -0.040780
v -0.104730 0.309635 -0.040648
v -0.101697 0.064229 -0.039154
v -0.102884 0.059833 -0.043550
v -0.103214 0.282909 -0.042341
v -0.103477 0.287371 -0.041967
v -0.103851 0.336733 -0.045835
v -0.103873 0.345788 -0.046495
v -0.103917 0.341239 -0.046121
v -0.101763 0.396887 -0.035286
v -0.103324 0.093987 -0.041044
v -0.103258 0.102449 -0.041857
v -0.103192 0.098207 -0.041571
v -0.101895 0.201833 -0.041593
v -0.102247 0.206316 -0.041615
v -0.102708 0.170470 -0.055637
v -0.102950 0.174954 -0.055264
v -0.104378 0.309701 -0.043264
v -0.104291 0.300821 -0.043703
v -0.104510 0.305239 -0.043484
v -0.103719 0.332206 -0.045615
v -0.103104 0.376909 -0.038736
v -0.103389 0.372360 -0.039440
v -0.103060 0.058932 -0.056429
v -0.102906 0.115855 -0.052648
v -0.104620 0.314140 -0.040561
v -0.102752 0.107020 -0.052890
v -0.103170 0.120273 -0.052648
v -0.102225 0.233613 -0.051659
v -0.102532 0.238140 -0.051484
v -0.102774 0.111437 -0.052758
v -0.102181 0.228778 -0.042626
v -0.102906 0.233217 -0.042165
v -0.103433 0.089877 -0.040275
v -0.102576 0.273942 -0.043000
v -0.102862 0.278404 -0.042604
v -0.104466 0.318690 -0.040539
v -0.104247 0.318668 -0.043000
v -0.104269 0.314162 -0.043088
v -0.101038 0.093635 -0.055989
v -0.101543 0.089262 -0.056538
v -0.102247 0.197349 -0.054165
v -0.102642 0.133877 -0.054670
v -0.103104 0.138382 -0.054670
v -0.101983 0.125130 -0.041440
v -0.101983 0.129723 -0.041659
v -0.103829 0.309854 -0.046165
v -0.103697 0.300997 -0.046560
v -0.103851 0.305415 -0.046341
v -0.103895 0.354887 -0.047022
v -0.103873 0.350338 -0.046802
v -0.104203 0.323261 -0.040517
v -0.102884 0.152163 -0.055769
v -0.103214 0.156712 -0.055681
v -0.104093 0.323195 -0.042912
v -0.102752 0.246778 -0.042582
v -0.103148 0.251239 -0.042143
v -0.100203 0.076427 -0.058978
v -0.101455 0.072515 -0.059176
v -0.103697 0.323217 -0.045593
v -0.103697 0.327700 -0.045571
v -0.102488 0.287657 -0.049352
v -0.102774 0.292184 -0.049110
v -0.101565 0.116009 -0.041132
v -0.101851 0.120558 -0.041330
v -0.103675 0.363898 -0.046978
v -0.103455 0.368382 -0.046626
v -0.104005 0.296404 -0.044077
v -0.101499 0.224536 -0.051879
v -0.101873 0.229085 -0.051923
v -0.102532 0.264975 -0.043308
v -0.102444 0.269393 -0.043000
v -0.103763 0.318777 -0.045747
v -0.103807 0.314316 -0.045967
v -0.103675 0.292008 -0.044539
v -0.104137 0.327832 -0.040604
v -0.103961 0.332382 -0.040824
v -0.103873 0.359393 -0.047088
v -0.101236 0.075811 -0.034429
v -0.101016 0.086141 -0.037132
v -0.101038 0.081547 -0.035462
v -0.104027 0.327700 -0.042912
v -0.103895 0.332272 -0.043022
v -0.101170 0.387305 -0.048846
v -0.101895 0.382206 -0.049286
v -0.102115 0.188294 -0.053835
v -0.102181 0.192778 -0.053967
v -0.101148 0.192844 -0.041571
v -0.101543 0.197349 -0.041571
v -0.103433 0.296580 -0.046934
v -0.103192 0.292118 -0.047242
v -0.102510 0.386338 -0.037440
v -0.102818 0.381568 -0.038099
v -0.101126 0.069482 -0.036011
v -0.101367 0.219987 -0.051703
v -0.103741 0.336975 -0.041132
v -0.102093 0.161415 -0.056231
v -0.102378 0.165943 -0.055945
v -0.103521 0.345920 -0.044011
v -0.103741 0.336821 -0.043242
v -0.103609 0.341393 -0.043615
v -0.102862 0.372887 -0.046209
v -0.102181 0.377459 -0.046055
v -0.100598 0.402601 -0.048868
v -0.103587 0.354931 -0.044429
v -0.103565 0.350448 -0.044297
v -0.103499 0.359371 -0.044451
v -0.102181 0.143086 -0.055989
v -0.102510 0.147635 -0.055901
v -0.102181 0.278558 -0.049857
v -0.102334 0.283129 -0.049769
v -0.101214 0.111503 -0.040824
v -0.101587 0.256030 -0.043418
v -0.102203 0.260514 -0.043308
v -0.103543 0.341569 -0.041528
v -0.103345 0.346052 -0.041967
v -0.101675 0.124910 -0.054604
v -0.102181 0.129393 -0.054648
v -0.101939 0.237855 -0.043352
v -0.102313 0.242294 -0.042912
v -0.103236 0.354931 -0.042297
v -0.103258 0.350514 -0.042253
v -0.103324 0.287547 -0.044978
v -0.103324 0.363788 -0.044319
v -0.103214 0.368228 -0.043967
v -0.102093 0.260536 -0.050011
v -0.102115 0.269481 -0.050055
v -0.102137 0.264997 -0.050055
v -0.102137 0.274008 -0.049967
v -0.103214 0.359327 -0.042253
v -0.100708 0.102646 -0.040187
v -0.100884 0.107042 -0.040473
v -0.101543 0.251701 -0.050143
v -0.101829 0.256118 -0.050055
v -0.103236 0.368074 -0.041725
v -0.101411 0.219855 -0.043264
v -0.101785 0.224316 -0.043022
v -0.103280 0.363700 -0.042099
v -0.101807 0.391393 -0.036407
v -0.103016 0.283019 -0.045308
v -0.101653 0.179415 -0.054099
v -0.101895 0.183833 -0.053923
v -0.100774 0.094251 -0.039352
v -0.100884 0.090273 -0.038582
v -0.100181 0.057855 -0.049396
v -0.100642 0.098075 -0.055396
v -0.102972 0.372557 -0.041242
v -0.102576 0.377217 -0.040802
v -0.101126 0.058866 -0.056143
v -0.100291 0.057723 -0.054055
v -0.100466 0.183767 -0.041506
v -0.100752 0.188316 -0.041571
v -0.102972 0.287635 -0.047484
v -0.102686 0.283107 -0.047725
v -0.101411 0.210954 -0.051593
v -0.101411 0.215481 -0.051593
v -0.101543 0.152316 -0.056560
v -0.101851 0.156866 -0.056407
v -0.102862 0.372755 -0.043571
v -0.100664 0.098361 -0.039857
v -0.101038 0.115943 -0.054758
v -0.101389 0.120404 -0.054736
v -0.100708 0.242800 -0.050187
v -0.101060 0.247261 -0.050143
v -0.101082 0.247019 -0.043747
v -0.101411 0.251525 -0.043308
v -0.101345 0.134053 -0.056011
v -0.101807 0.138558 -0.056055
v -0.100356 0.403876 -0.042385
v -0.102730 0.278514 -0.045571
v -0.102269 0.377459 -0.043308
v -0.101126 0.170580 -0.055000
v -0.101433 0.175020 -0.054495
v -0.100576 0.174602 -0.041967
v -0.100532 0.179152 -0.041681
v -0.100840 0.228976 -0.044165
v -0.101411 0.233415 -0.043791
v -0.099038 0.063504 -0.038648
v -0.099917 0.058866 -0.043747
v -0.100774 0.060515 -0.057220
v -0.099653 0.067152 -0.059088
v -0.100378 0.063328 -0.058341
v -0.100488 0.107020 -0.054890
v -0.100422 0.102536 -0.055022
v -0.102576 0.274008 -0.045813
v -0.098620 0.084515 -0.058516
v -0.099192 0.080361 -0.058824
v -0.100576 0.165547 -0.042297
v -0.100598 0.170075 -0.042099
v -0.102049 0.381964 -0.040451
v -0.101214 0.386843 -0.039967
v -0.100708 0.111481 -0.054802
v -0.100950 0.201943 -0.051901
v -0.101170 0.206448 -0.051791
v -0.100730 0.210932 -0.043088
v -0.101214 0.215349 -0.043396
v -0.102554 0.278558 -0.047879
v -0.102400 0.274030 -0.048011
v -0.100576 0.152097 -0.042846
v -0.100554 0.156580 -0.042692
v -0.100532 0.161064 -0.042517
v -0.100291 0.143196 -0.042780
v -0.100510 0.147635 -0.042802
v -0.100642 0.392294 -0.048473
v -0.100642 0.397217 -0.048297
v -0.102378 0.269503 -0.045989
v -0.100027 0.233745 -0.050495
v -0.100378 0.238250 -0.050341
v -0.102159 0.265041 -0.046033
v -0.100928 0.143240 -0.056824
v -0.101192 0.147789 -0.056736
v -0.102115 0.269525 -0.048121
v -0.100576 0.161525 -0.055615
v -0.100884 0.166053 -0.055418
v -0.101851 0.265041 -0.048143
v -0.100335 0.238030 -0.044253
v -0.100774 0.242558 -0.043615
v -0.099653 0.134339 -0.042297
v -0.099939 0.138778 -0.042626
v -0.101455 0.382184 -0.043220
v -0.100510 0.192888 -0.052099
v -0.100642 0.197415 -0.052055
v -0.100313 0.201965 -0.043000
v -0.100378 0.206448 -0.043000
v -0.101895 0.260624 -0.045967
v -0.101543 0.256162 -0.045835
v -0.100378 0.125086 -0.056077
v -0.100840 0.129569 -0.055989
v -0.100400 0.188382 -0.052209
v -0.100994 0.382118 -0.046165
v -0.101653 0.260624 -0.048077
v -0.100488 0.387019 -0.042956
v -0.100181 0.398096 -0.038626
v -0.098906 0.397964 -0.042099
v -0.099543 0.125218 -0.041550
v -0.099565 0.129811 -0.041923
v -0.100225 0.179459 -0.052714
v -0.100159 0.183921 -0.052473
v -0.101455 0.256162 -0.047967
v -0.099851 0.224602 -0.049835
v -0.099851 0.229151 -0.050099
v -0.099389 0.120690 -0.041220
v -0.100181 0.152382 -0.056011
v -0.100313 0.156954 -0.055879
v -0.101170 0.251701 -0.047835
v -0.100137 0.134229 -0.057088
v -0.100532 0.138734 -0.056978
v -0.100291 0.392096 -0.039044
v -0.099851 0.219987 -0.044560
v -0.100291 0.224492 -0.044473
v -0.099719 0.403261 -0.045725
v -0.098598 0.111723 -0.040736
v -0.099060 0.116207 -0.040978
v -0.098400 0.088910 -0.058033
v -0.099258 0.193020 -0.042714
v -0.099741 0.197503 -0.042890
v -0.101060 0.251679 -0.045747
v -0.097082 0.075152 -0.059527
v -0.098598 0.071152 -0.059440
v -0.100115 0.387041 -0.046033
v -0.100181 0.170536 -0.053571
v -0.100291 0.174998 -0.053066
v -0.099389 0.211020 -0.049945
v -0.099609 0.215503 -0.049747
v -0.099280 0.229151 -0.044956
v -0.099917 0.233635 -0.044473
v -0.100510 0.247195 -0.045791
v -0.099521 0.116075 -0.056253
v -0.099917 0.120558 -0.056165
v -0.099697 0.220031 -0.049769
v -0.097939 0.076141 -0.033747
v -0.099543 0.210954 -0.044648
v -0.099675 0.215459 -0.044626
v -0.099192 0.143415 -0.056451
v -0.099785 0.147877 -0.056209
v -0.099236 0.202009 -0.050055
v -0.099302 0.206514 -0.050033
v -0.100752 0.247239 -0.047747
v -0.099455 0.392228 -0.045681
v -0.098532 0.059613 -0.054648
v -0.098356 0.069174 -0.035000
v -0.100291 0.242756 -0.047813
v -0.098049 0.086229 -0.037154
v -0.098005 0.081635 -0.035550
v -0.098356 0.098075 -0.057022
v -0.098335 0.093482 -0.057440
v -0.097939 0.094185 -0.039484
v -0.098049 0.090207 -0.038626
v -0.097983 0.102712 -0.040319
v -0.098225 0.107196 -0.040517
v -0.099499 0.161503 -0.054429
v -0.099939 0.166031 -0.054011
v -0.099192 0.125240 -0.057198
v -0.099675 0.129745 -0.057110
v -0.100115 0.242690 -0.045879
v -0.099851 0.238162 -0.046099
v -0.098532 0.183921 -0.042561
v -0.098840 0.188492 -0.042648
v -0.098730 0.107108 -0.056451
v -0.099082 0.111591 -0.056341
v -0.097895 0.098405 -0.039923
v -0.098642 0.192976 -0.050385
v -0.098906 0.197503 -0.050253
v -0.099192 0.397590 -0.045440
v -0.098532 0.165569 -0.042670
v -0.098269 0.174668 -0.042341
v -0.098532 0.170075 -0.042407
v -0.098466 0.152097 -0.043242
v -0.098488 0.161064 -0.042956
v -0.098466 0.156558 -0.043110
v -0.098225 0.134470 -0.057374
v -0.098576 0.138976 -0.056934
v -0.098378 0.179261 -0.042451
v -0.098181 0.143262 -0.043198
v -0.098400 0.147657 -0.043286
v -0.099477 0.392316 -0.042363
v -0.098422 0.102602 -0.056626
v -0.098598 0.183943 -0.050495
v -0.098510 0.188470 -0.050451
v -0.097324 0.066119 -0.057242
v -0.097433 0.062668 -0.055374
v -0.098906 0.202053 -0.044517
v -0.099170 0.206492 -0.044341
v -0.099873 0.238250 -0.047967
v -0.099455 0.233745 -0.048055
v -0.099038 0.152404 -0.054912
v -0.099236 0.156954 -0.054758
v -0.098488 0.059767 -0.050407
v -0.098774 0.179437 -0.050758
v -0.098884 0.170470 -0.051923
v -0.098620 0.174976 -0.051549
v -0.098466 0.220074 -0.045484
v -0.098730 0.224646 -0.045264
v -0.097455 0.134404 -0.042670
v -0.097719 0.138844 -0.042978
v -0.098444 0.161437 -0.052736
v -0.098752 0.165987 -0.052385
v -0.095565 0.063767 -0.039835
v -0.097324 0.060537 -0.045330
v -0.098247 0.116207 -0.057396
v -0.098708 0.120712 -0.057330
v -0.099499 0.233701 -0.046363
v -0.098818 0.229239 -0.046604
v -0.098840 0.224646 -0.048187
v -0.099082 0.229217 -0.048165
v -0.098752 0.143371 -0.055044
v -0.098972 0.147877 -0.054956
v -0.098093 0.193064 -0.044495
v -0.098422 0.197569 -0.044473
v -0.098444 0.215525 -0.048231
v -0.098598 0.220074 -0.048209
v -0.097477 0.125459 -0.057725
v -0.097785 0.129987 -0.057593
v -0.098247 0.211020 -0.045615
v -0.098335 0.215503 -0.045484
v -0.097302 0.129789 -0.042385
v -0.097126 0.120800 -0.042297
v -0.097302 0.125262 -0.042187
v -0.098049 0.206558 -0.048451
v -0.098269 0.211020 -0.048319
v -0.097939 0.202075 -0.048539
v -0.097961 0.152360 -0.053088
v -0.098115 0.156888 -0.052978
v -0.095895 0.079372 -0.059527
v -0.097873 0.202097 -0.045879
v -0.098005 0.206580 -0.045659
v -0.097280 0.107196 -0.057637
v -0.097785 0.111701 -0.057484
v -0.098225 0.224712 -0.046846
v -0.096181 0.111855 -0.041747
v -0.096730 0.116361 -0.042165
v -0.097433 0.143393 -0.053725
v -0.097851 0.147855 -0.053286
v -0.097411 0.193042 -0.048868
v -0.097653 0.197569 -0.048780
v -0.096950 0.170470 -0.050165
v -0.097324 0.183965 -0.044451
v -0.097675 0.188536 -0.044473
v -0.097521 0.174888 -0.049396
v -0.097192 0.183965 -0.048890
v -0.097324 0.179415 -0.049022
v -0.098444 0.138866 -0.055352
v -0.097236 0.161349 -0.050692
v -0.097258 0.165899 -0.050517
v -0.097873 0.220140 -0.047110
v -0.096620 0.116383 -0.057945
v -0.097060 0.120910 -0.057857
v -0.095565 0.088712 -0.058714
v -0.095411 0.083987 -0.059176
v -0.096137 0.069701 -0.057462
v -0.097543 0.215591 -0.047110
v -0.097785 0.134448 -0.055615
v -0.097214 0.170163 -0.044341
v -0.096840 0.161108 -0.044363
v -0.097082 0.165635 -0.044297
v -0.097214 0.174712 -0.044407
v -0.097302 0.188514 -0.048824
v -0.097939 0.062624 -0.051813
v -0.096664 0.062734 -0.046956
v -0.096686 0.152119 -0.044473
v -0.096796 0.156580 -0.044473
v -0.096906 0.134426 -0.054121
v -0.097126 0.138910 -0.054055
v -0.096400 0.098141 -0.058055
v -0.096818 0.102690 -0.057769
v -0.097126 0.193108 -0.045945
v -0.097477 0.197613 -0.045945
v -0.096422 0.143284 -0.044385
v -0.096598 0.147701 -0.044473
v -0.097192 0.179327 -0.044429
v -0.094466 0.075987 -0.035022
v -0.094642 0.069548 -0.036253
v -0.095961 0.093460 -0.058341
v -0.097411 0.211042 -0.046714
v -0.097346 0.206580 -0.046846
v -0.095521 0.102734 -0.041286
v -0.095807 0.107284 -0.041571
v -0.097367 0.152273 -0.050846
v -0.097280 0.156800 -0.050758
v -0.095346 0.085965 -0.038319
v -0.095477 0.094075 -0.040341
v -0.095455 0.089987 -0.039593
v -0.095082 0.081833 -0.036341
v -0.097148 0.202119 -0.047066
v -0.097389 0.065745 -0.053286
v -0.095983 0.065679 -0.048758
v -0.096598 0.197679 -0.047528
v -0.095411 0.098339 -0.040912
v -0.097038 0.143284 -0.051374
v -0.097433 0.147767 -0.051044
v -0.095609 0.107372 -0.058033
v -0.096159 0.111899 -0.057989
v -0.097236 0.129987 -0.055857
v -0.096488 0.125569 -0.056165
v -0.096093 0.138866 -0.044253
v -0.096488 0.183987 -0.045901
v -0.096796 0.188580 -0.045945
v -0.096444 0.193108 -0.047440
v -0.096291 0.174844 -0.047879
v -0.095587 0.129745 -0.043901
v -0.095477 0.134317 -0.044033
v -0.096642 0.152207 -0.048539
v -0.096335 0.143262 -0.048890
v -0.096730 0.147723 -0.048670
v -0.095807 0.069701 -0.054297
v -0.094466 0.065130 -0.041835
v -0.096400 0.183987 -0.047462
v -0.096313 0.179393 -0.047593
v -0.095477 0.120888 -0.044187
v -0.095587 0.125218 -0.044187
v -0.096466 0.188558 -0.047549
v -0.096071 0.161218 -0.048407
v -0.096378 0.156690 -0.048560
v -0.096313 0.165789 -0.048275
v -0.096686 0.129965 -0.054231
v -0.096159 0.125503 -0.054538
v -0.096181 0.170229 -0.046011
v -0.096356 0.179371 -0.045967
v -0.096247 0.174778 -0.046011
v -0.096554 0.138822 -0.051637
v -0.096115 0.134360 -0.051857
v -0.094466 0.073526 -0.058275
v -0.092796 0.078361 -0.058560
v -0.095983 0.161152 -0.046275
v -0.096093 0.165701 -0.046077
v -0.095411 0.116492 -0.056648
v -0.095873 0.121020 -0.056473
v -0.096335 0.170294 -0.048077
v -0.094466 0.098229 -0.058077
v -0.095060 0.102844 -0.058099
v -0.095807 0.152163 -0.046385
v -0.095961 0.156624 -0.046407
v -0.094335 0.111921 -0.043879
v -0.094862 0.116470 -0.044011
v -0.095477 0.143240 -0.046780
v -0.095411 0.147789 -0.046385
v -0.095455 0.125481 -0.052407
v -0.095763 0.129921 -0.052099
v -0.095983 0.138756 -0.048956
v -0.095763 0.134229 -0.049000
v -0.095565 0.138756 -0.046517
v -0.094269 0.107525 -0.056978
v -0.094928 0.112009 -0.056780
v -0.095609 0.120998 -0.054780
v -0.094269 0.068800 -0.050736
v -0.093236 0.066734 -0.044033
v -0.091697 0.069130 -0.046165
v -0.095785 0.134207 -0.046319
v -0.093280 0.088602 -0.058055
v -0.093917 0.093503 -0.058077
v -0.095126 0.116470 -0.054934
v -0.095851 0.129701 -0.046385
v -0.095785 0.125262 -0.046648
v -0.095631 0.129767 -0.049220
v -0.092994 0.072559 -0.055659
v -0.091697 0.071811 -0.052626
v -0.094269 0.102712 -0.043769
v -0.094159 0.107262 -0.043835
v -0.095565 0.125328 -0.049593
v -0.095214 0.120844 -0.046802
v -0.094994 0.120910 -0.049835
v -0.095038 0.120976 -0.052648
v -0.094620 0.116492 -0.052758
v -0.093587 0.093701 -0.043198
v -0.093411 0.085328 -0.041066
v -0.093631 0.089394 -0.042429
v -0.092730 0.083591 -0.058385
v -0.093807 0.098141 -0.043571
v -0.094444 0.116426 -0.046758
v -0.094642 0.112009 -0.055066
v -0.092972 0.076229 -0.037769
v -0.093060 0.081328 -0.039198
v -0.092972 0.098361 -0.057132
v -0.093653 0.102976 -0.057110
v -0.094378 0.116448 -0.049923
v -0.093807 0.107569 -0.055220
v -0.093785 0.111921 -0.046648
v -0.093565 0.070273 -0.038319
v -0.094313 0.112009 -0.052780
v -0.093543 0.107547 -0.052868
v -0.090818 0.077657 -0.057220
v -0.093851 0.111965 -0.049945
v -0.093126 0.107481 -0.049967
v -0.090049 0.072778 -0.048714
v -0.093104 0.102690 -0.046692
v -0.093389 0.107328 -0.046604
v -0.091499 0.088668 -0.057110
v -0.092291 0.093591 -0.057176
v -0.092620 0.093460 -0.046473
v -0.092774 0.098075 -0.046670
v -0.092906 0.103042 -0.055286
v -0.092005 0.098449 -0.055308
v -0.091411 0.084646 -0.044517
v -0.092313 0.088910 -0.045879
v -0.092554 0.071042 -0.040780
v -0.091917 0.076229 -0.041022
v -0.092554 0.103042 -0.052956
v -0.092642 0.102888 -0.050055
v -0.091631 0.071679 -0.043352
v -0.091455 0.080558 -0.042846
v -0.089565 0.077482 -0.054187
v -0.092115 0.098339 -0.052978
v -0.092269 0.098229 -0.050143
v -0.091917 0.093460 -0.050055
v -0.090686 0.083350 -0.057264
v -0.091214 0.088690 -0.049659
v -0.090005 0.083899 -0.048670
v -0.091324 0.093657 -0.055242
v -0.090642 0.088734 -0.055066
v -0.091587 0.093569 -0.052956
v -0.090642 0.075108 -0.044846
v -0.089521 0.077987 -0.051220
v -0.090994 0.088602 -0.052780
v -0.090027 0.079328 -0.047308
v -0.089455 0.083613 -0.052297
v -0.089631 0.083350 -0.054956
usemtl Fibula_rMaterial0
f 1 2 3
f 4 1 3
f 3 2 5
f 3 5 6
f 7 4 3
f 8 7 3
f 3 6 9
f 8 3 10
f 3 11 10
f 11 3 9
f 1 12 2
f 4 13 1
f 13 12 1
f 5 2 14
f 5 15 6
f 16 15 5
f 16 5 14
f 7 17 4
f 18 7 8
f 19 17 7
f 18 19 7
f 2 12 20
f 2 20 14
f 21 9 6
f 6 15 21
f 17 13 4
f 22 8 10
f 10 11 22
f 23 11 9
f 21 23 9
f 20 12 24
f 12 13 25
f 12 25 24
f 26 8 22
f 26 18 8
f 14 20 27
f 20 24 28
f 27 20 28
f 13 29 25
f 17 30 13
f 31 29 13
f 30 31 13
f 16 32 15
f 15 33 21
f 15 32 33
f 11 34 22
f 23 35 11
f 35 34 11
f 14 32 16
f 25 36 24
f 29 37 25
f 25 37 36
f 19 38 17
f 39 19 18
f 39 40 19
f 40 38 19
f 38 30 17
f 41 26 22
f 22 34 42
f 42 41 22
f 27 43 14
f 44 32 14
f 43 44 14
f 45 23 21
f 33 46 21
f 46 47 21
f 47 45 21
f 24 36 48
f 24 48 28
f 29 49 37
f 31 49 29
f 50 18 26
f 41 50 26
f 36 37 51
f 48 36 52
f 36 51 52
f 53 35 23
f 45 53 23
f 50 39 18
f 35 54 34
f 34 55 42
f 54 56 34
f 34 56 55
f 31 30 57
f 58 30 38
f 57 30 58
f 32 59 33
f 33 59 46
f 28 60 27
f 60 43 27
f 37 61 51
f 37 49 61
f 48 52 62
f 28 48 63
f 63 48 62
f 51 64 65
f 51 65 52
f 61 64 51
f 66 54 35
f 53 66 35
f 65 64 67
f 65 67 68
f 52 65 69
f 69 65 68
f 49 31 57
f 61 70 64
f 49 71 61
f 71 70 61
f 64 72 67
f 64 70 72
f 67 73 74
f 67 74 68
f 72 73 67
f 32 44 59
f 52 69 62
f 74 73 75
f 74 75 76
f 68 74 77
f 77 74 76
f 78 41 42
f 42 55 78
f 73 79 75
f 79 80 75
f 75 80 81
f 75 81 76
f 63 60 28
f 82 83 84
f 82 85 83
f 83 86 87
f 83 85 86
f 84 83 88
f 88 83 87
f 72 89 73
f 70 90 72
f 90 89 72
f 80 82 84
f 80 91 82
f 92 85 82
f 91 92 82
f 73 89 79
f 79 91 80
f 93 91 79
f 89 93 79
f 81 80 84
f 86 94 87
f 86 95 94
f 96 95 86
f 85 96 86
f 81 84 97
f 76 81 98
f 98 81 97
f 94 95 99
f 94 99 100
f 87 94 101
f 101 94 100
f 99 102 103
f 99 103 100
f 104 102 99
f 95 104 99
f 56 54 66
f 69 68 105
f 62 69 106
f 106 69 105
f 84 88 97
f 107 50 41
f 107 41 78
f 103 102 108
f 103 108 109
f 100 103 110
f 110 103 109
f 55 56 111
f 55 111 78
f 71 49 112
f 113 49 57
f 112 49 113
f 114 39 50
f 40 39 115
f 115 39 114
f 88 87 116
f 97 88 117
f 117 88 116
f 114 50 118
f 118 50 107
f 108 119 120
f 108 120 109
f 102 121 108
f 121 119 108
f 38 40 122
f 122 40 115
f 87 101 116
f 120 119 123
f 120 123 124
f 109 120 125
f 125 120 124
f 123 126 127
f 123 127 124
f 119 128 123
f 128 126 123
f 101 100 129
f 116 101 130
f 130 101 129
f 68 77 105
f 127 126 131
f 127 131 132
f 124 127 133
f 133 127 132
f 77 76 134
f 135 77 134
f 105 77 135
f 102 104 136
f 104 95 137
f 138 104 137
f 136 104 138
f 121 102 136
f 119 121 139
f 140 121 136
f 139 121 140
f 95 96 137
f 76 98 134
f 44 43 141
f 59 44 142
f 142 44 141
f 128 119 139
f 58 38 122
f 131 143 144
f 131 144 132
f 126 145 131
f 145 143 131
f 100 110 129
f 70 71 146
f 146 71 112
f 96 85 147
f 137 96 148
f 148 96 147
f 144 143 149
f 144 149 150
f 132 144 151
f 151 144 150
f 126 128 152
f 153 128 139
f 152 128 153
f 85 92 147
f 98 97 154
f 134 98 155
f 155 98 154
f 145 126 152
f 149 156 157
f 149 157 150
f 143 158 149
f 158 156 149
f 92 91 159
f 147 92 160
f 160 92 159
f 62 161 63
f 162 60 63
f 161 162 63
f 110 109 163
f 129 110 164
f 164 110 163
f 143 145 165
f 166 145 152
f 165 145 166
f 90 70 146
f 157 156 167
f 157 167 168
f 150 157 169
f 169 157 168
f 97 117 154
f 91 93 159
f 170 47 46
f 46 59 170
f 158 143 165
f 109 125 163
f 117 116 171
f 154 117 172
f 172 117 171
f 167 173 174
f 167 174 168
f 156 175 167
f 175 173 167
f 93 89 176
f 159 93 177
f 177 93 176
f 57 58 178
f 179 58 122
f 178 58 179
f 116 130 171
f 89 90 176
f 176 90 180
f 180 90 146
f 156 158 181
f 182 158 165
f 181 158 182
f 125 124 183
f 163 125 184
f 184 125 183
f 185 56 66
f 56 185 111
f 47 186 45
f 187 47 170
f 187 186 47
f 124 133 183
f 174 173 188
f 174 188 189
f 168 174 190
f 190 174 189
f 133 132 191
f 183 133 192
f 192 133 191
f 130 129 193
f 171 130 194
f 194 130 193
f 132 151 191
f 175 156 181
f 188 195 189
f 188 196 195
f 173 197 188
f 197 196 188
f 106 161 62
f 151 150 198
f 191 151 199
f 199 151 198
f 43 60 141
f 129 164 193
f 150 169 198
f 173 175 200
f 201 175 181
f 200 175 201
f 186 53 45
f 195 202 203
f 195 196 202
f 204 195 203
f 189 195 204
f 169 168 205
f 198 169 206
f 206 169 205
f 138 137 207
f 137 148 207
f 164 163 208
f 193 164 209
f 209 164 208
f 136 138 210
f 211 138 207
f 210 138 211
f 113 57 178
f 134 212 135
f 155 212 134
f 135 213 105
f 212 214 135
f 214 213 135
f 105 213 106
f 215 161 106
f 213 215 106
f 202 216 203
f 202 217 216
f 196 218 202
f 218 217 202
f 140 136 210
f 148 147 219
f 207 148 220
f 220 148 219
f 154 221 155
f 221 222 155
f 222 212 155
f 139 140 223
f 224 140 210
f 223 140 224
f 197 173 200
f 168 190 205
f 172 221 154
f 216 225 226
f 216 217 225
f 203 216 226
f 147 160 219
f 153 139 223
f 163 184 208
f 160 159 227
f 219 160 228
f 228 160 227
f 171 229 172
f 230 221 172
f 229 230 172
f 190 189 231
f 232 190 231
f 205 190 232
f 152 153 233
f 234 153 223
f 233 153 234
f 226 225 235
f 225 236 237
f 225 238 236
f 235 225 237
f 217 239 225
f 239 238 225
f 204 203 240
f 203 226 241
f 240 203 242
f 242 203 241
f 189 204 231
f 231 204 240
f 170 59 243
f 59 142 243
f 184 183 244
f 208 184 245
f 245 184 244
f 194 229 171
f 159 177 227
f 226 235 241
f 196 197 246
f 247 197 200
f 246 197 247
f 112 113 248
f 249 113 178
f 248 113 249
f 183 192 244
f 166 152 233
f 66 53 250
f 251 53 186
f 250 53 251
f 236 252 237
f 236 253 252
f 238 253 236
f 192 191 254
f 244 192 255
f 255 192 254
f 218 196 246
f 177 176 256
f 227 177 257
f 257 177 256
f 217 218 258
f 259 218 246
f 258 218 259
f 235 237 260
f 241 235 261
f 261 235 260
f 239 217 258
f 191 199 254
f 193 262 194
f 263 229 194
f 262 263 194
f 60 162 264
f 141 60 265
f 265 60 264
f 115 114 118
f 165 166 266
f 267 166 233
f 266 166 267
f 146 112 248
f 268 107 78
f 118 107 268
f 176 180 256
f 180 146 269
f 269 146 270
f 270 146 248
f 237 252 271
f 252 253 272
f 252 272 273
f 271 252 273
f 256 180 269
f 238 239 274
f 275 239 258
f 274 239 275
f 199 198 276
f 254 199 277
f 277 199 276
f 237 271 260
f 182 165 266
f 209 262 193
f 240 242 278
f 242 241 279
f 278 242 280
f 280 242 279
f 198 206 276
f 231 240 278
f 253 238 274
f 253 281 272
f 272 282 273
f 272 283 282
f 281 283 272
f 271 273 284
f 260 271 285
f 285 271 284
f 241 261 279
f 232 231 286
f 287 231 278
f 286 231 287
f 181 182 288
f 289 182 266
f 288 182 289
f 205 232 290
f 290 232 286
f 206 205 290
f 291 206 290
f 276 206 291
f 208 292 209
f 293 262 209
f 292 293 209
f 281 253 294
f 295 253 274
f 294 253 295
f 273 282 296
f 273 296 284
f 261 260 297
f 279 261 298
f 298 261 297
f 162 161 299
f 264 162 299
f 296 282 300
f 296 300 301
f 284 296 301
f 282 302 300
f 282 283 302
f 201 181 288
f 245 292 208
f 303 187 170
f 243 303 170
f 260 285 297
f 211 207 304
f 210 211 305
f 306 211 304
f 305 211 306
f 283 281 307
f 307 281 294
f 278 308 287
f 280 308 278
f 207 220 304
f 301 300 309
f 309 300 310
f 302 311 300
f 300 312 310
f 300 311 312
f 284 301 313
f 301 309 313
f 285 284 314
f 314 284 315
f 315 284 313
f 224 210 305
f 297 285 314
f 287 316 286
f 308 317 287
f 317 316 287
f 279 318 280
f 319 308 280
f 318 319 280
f 220 219 320
f 304 220 321
f 321 220 320
f 244 322 245
f 323 292 245
f 322 323 245
f 313 309 324
f 309 310 325
f 324 309 325
f 255 322 244
f 283 326 302
f 302 327 311
f 326 327 302
f 315 328 314
f 313 329 315
f 330 328 315
f 329 330 315
f 314 328 297
f 286 316 290
f 223 224 331
f 332 224 305
f 331 224 332
f 298 318 279
f 254 333 255
f 333 334 255
f 334 322 255
f 312 335 310
f 311 336 312
f 312 336 335
f 297 337 298
f 338 337 297
f 328 338 297
f 337 318 298
f 200 201 339
f 340 201 288
f 339 201 340
f 290 341 291
f 316 342 290
f 342 341 290
f 221 230 343
f 230 229 344
f 343 230 345
f 345 230 344
f 142 141 346
f 243 142 347
f 347 142 346
f 185 66 250
f 219 228 320
f 222 221 343
f 326 283 307
f 324 329 313
f 291 348 276
f 341 348 291
f 212 222 349
f 350 222 343
f 349 222 350
f 277 333 254
f 234 223 331
f 229 263 344
f 122 115 351
f 351 115 118
f 310 335 352
f 310 352 325
f 311 327 336
f 276 348 277
f 214 212 349
f 335 336 353
f 335 353 354
f 352 335 354
f 348 355 277
f 355 333 277
f 228 227 356
f 320 228 357
f 357 228 356
f 161 215 299
f 317 308 358
f 308 319 358
f 316 317 359
f 359 317 360
f 360 317 358
f 111 361 78
f 78 361 268
f 342 316 359
f 233 234 362
f 363 234 331
f 362 234 363
f 213 214 364
f 365 214 349
f 364 214 365
f 336 366 353
f 327 367 336
f 336 368 366
f 367 368 336
f 325 369 324
f 370 329 324
f 369 370 324
f 327 326 371
f 372 326 307
f 371 326 372
f 247 200 339
f 319 318 373
f 358 319 373
f 227 257 356
f 366 374 353
f 353 374 375
f 353 375 354
f 263 262 376
f 344 263 377
f 377 263 376
f 367 327 371
f 318 337 378
f 373 318 379
f 379 318 378
f 341 342 380
f 380 342 381
f 381 342 359
f 325 352 382
f 352 354 383
f 382 352 383
f 366 384 374
f 368 384 366
f 337 338 378
f 215 213 364
f 385 215 364
f 299 215 385
f 348 341 380
f 267 233 362
f 338 328 386
f 378 338 387
f 387 338 386
f 246 247 388
f 389 247 339
f 388 247 389
f 257 256 390
f 356 257 390
f 375 374 391
f 354 375 392
f 375 391 393
f 392 375 393
f 374 394 391
f 374 384 394
f 382 369 325
f 368 367 395
f 396 367 371
f 395 367 396
f 328 330 386
f 355 348 397
f 398 348 380
f 397 348 398
f 259 246 388
f 262 293 376
f 333 355 399
f 399 355 397
f 354 392 383
f 256 269 400
f 390 256 401
f 401 256 400
f 179 122 402
f 403 122 351
f 402 122 403
f 330 329 404
f 386 330 405
f 405 330 404
f 266 267 406
f 407 267 362
f 406 267 407
f 258 259 408
f 409 259 388
f 408 259 409
f 334 333 399
f 293 292 410
f 411 293 410
f 376 293 411
f 394 412 391
f 391 412 413
f 391 413 393
f 394 414 412
f 384 415 394
f 415 414 394
f 275 258 408
f 322 334 416
f 417 334 399
f 416 334 417
f 292 323 410
f 323 322 416
f 141 265 346
f 384 368 395
f 274 275 418
f 419 275 408
f 418 275 419
f 420 323 416
f 410 323 420
f 383 421 382
f 422 369 382
f 421 422 382
f 329 370 404
f 111 185 423
f 361 111 423
f 269 270 400
f 289 266 406
f 413 412 424
f 413 424 425
f 393 413 426
f 426 413 425
f 383 392 427
f 392 393 428
f 427 392 428
f 295 274 418
f 423 185 250
f 412 429 424
f 412 414 429
f 380 381 430
f 381 359 431
f 430 381 432
f 432 381 431
f 186 187 433
f 433 187 303
f 178 179 434
f 434 179 402
f 398 380 430
f 415 384 435
f 436 384 395
f 435 384 436
f 294 295 437
f 438 295 418
f 437 295 438
f 270 248 439
f 400 270 440
f 440 270 439
f 359 360 431
f 427 421 383
f 370 369 441
f 404 370 442
f 442 370 441
f 288 289 443
f 444 289 406
f 443 289 444
f 429 445 424
f 424 445 446
f 424 446 425
f 393 426 428
f 429 447 445
f 414 448 429
f 448 447 429
f 397 398 449
f 449 398 450
f 450 398 430
f 307 294 437
f 249 178 434
f 360 358 451
f 431 360 451
f 358 373 452
f 451 358 453
f 453 358 452
f 414 415 454
f 454 415 435
f 265 264 455
f 346 265 456
f 456 265 455
f 248 249 439
f 439 249 457
f 457 249 434
f 446 445 458
f 446 458 459
f 425 446 460
f 460 446 459
f 426 425 461
f 428 426 462
f 462 426 461
f 399 397 449
f 428 463 427
f 464 421 427
f 463 464 427
f 251 186 433
f 351 118 268
f 373 379 452
f 340 288 443
f 445 465 458
f 445 447 465
f 369 422 441
f 372 307 466
f 467 307 437
f 466 307 467
f 243 347 303
f 448 414 454
f 417 399 468
f 469 399 449
f 468 399 469
f 465 470 458
f 458 471 459
f 458 470 471
f 425 460 461
f 379 378 472
f 452 379 473
f 473 379 472
f 306 304 474
f 305 306 475
f 476 306 474
f 475 306 476
f 416 417 477
f 477 417 468
f 304 321 474
f 420 416 477
f 332 305 475
f 343 345 478
f 345 344 479
f 480 345 479
f 478 345 480
f 350 343 478
f 349 350 481
f 482 350 478
f 481 350 482
f 462 463 428
f 344 377 479
f 447 483 465
f 465 484 470
f 483 484 465
f 378 387 472
f 410 420 485
f 486 420 477
f 485 420 486
f 365 349 481
f 460 459 487
f 461 460 488
f 488 460 487
f 422 421 489
f 441 422 490
f 490 422 489
f 371 372 491
f 491 372 466
f 447 448 492
f 493 448 454
f 492 448 493
f 459 471 494
f 471 470 495
f 471 495 496
f 494 471 496
f 339 340 497
f 498 340 443
f 497 340 498
f 321 320 499
f 474 321 500
f 500 321 499
f 331 332 501
f 502 332 475
f 501 332 502
f 264 299 455
f 411 410 485
f 377 376 503
f 479 377 504
f 504 377 503
f 364 365 505
f 506 365 481
f 505 365 506
f 387 386 507
f 472 387 508
f 508 387 507
f 459 494 487
f 461 509 462
f 510 463 462
f 509 510 462
f 363 331 501
f 396 371 491
f 470 511 495
f 495 512 496
f 495 513 512
f 511 513 495
f 376 411 503
f 514 411 485
f 503 411 514
f 320 357 499
f 483 447 492
f 250 251 515
f 515 251 433
f 470 484 511
f 421 464 489
f 386 405 507
f 395 396 516
f 517 396 491
f 516 396 517
f 385 364 505
f 362 363 518
f 519 363 501
f 518 363 519
f 299 385 520
f 521 299 520
f 455 299 521
f 494 496 522
f 487 494 523
f 523 494 522
f 389 339 497
f 488 509 461
f 357 356 524
f 499 357 524
f 520 385 505
f 496 512 525
f 512 513 526
f 512 526 527
f 525 512 527
f 436 395 516
f 528 529 530
f 528 531 529
f 532 529 533
f 529 534 533
f 535 529 532
f 529 531 534
f 530 529 535
f 536 531 528
f 536 528 537
f 538 528 530
f 537 528 538
f 405 404 539
f 507 405 540
f 540 405 539
f 356 390 541
f 524 356 542
f 542 356 541
f 484 483 543
f 544 483 492
f 543 483 544
f 496 525 522
f 464 463 545
f 489 464 546
f 546 464 545
f 484 547 511
f 511 548 513
f 547 548 511
f 407 362 518
f 532 533 549
f 533 534 550
f 549 533 551
f 533 550 551
f 390 401 541
f 388 389 552
f 553 389 497
f 552 389 553
f 487 554 488
f 555 509 488
f 554 555 488
f 535 532 549
f 513 556 526
f 526 557 527
f 526 558 557
f 556 558 526
f 559 536 537
f 559 560 536
f 560 531 536
f 435 436 561
f 562 436 516
f 561 436 562
f 404 442 539
f 525 527 563
f 522 525 564
f 564 525 563
f 409 388 552
f 406 407 565
f 566 407 518
f 565 407 566
f 401 400 567
f 541 401 568
f 568 401 567
f 547 484 543
f 450 569 449
f 449 569 469
f 534 531 570
f 534 570 550
f 513 548 556
f 408 409 571
f 572 409 552
f 571 409 572
f 419 408 571
f 418 419 573
f 573 419 574
f 574 419 571
f 438 418 573
f 527 557 575
f 527 575 563
f 523 554 487
f 463 510 545
f 432 576 430
f 431 577 432
f 577 576 432
f 575 557 578
f 557 579 578
f 557 558 579
f 454 435 561
f 430 576 450
f 442 441 580
f 539 442 581
f 581 442 580
f 451 582 431
f 583 577 431
f 582 583 431
f 444 406 565
f 437 438 584
f 585 438 573
f 584 438 585
f 576 586 450
f 586 569 450
f 469 587 468
f 569 588 469
f 588 587 469
f 453 582 451
f 589 559 537
f 590 559 591
f 590 592 559
f 593 560 559
f 591 559 589
f 592 593 559
f 575 578 594
f 563 575 595
f 595 575 594
f 556 596 558
f 548 597 556
f 597 596 556
f 400 440 567
f 346 598 347
f 347 599 303
f 598 599 347
f 579 600 578
f 558 601 579
f 579 602 600
f 601 602 579
f 548 547 603
f 604 547 543
f 603 547 604
f 522 605 523
f 606 554 523
f 605 606 523
f 493 454 607
f 608 454 561
f 607 454 608
f 467 437 584
f 452 609 453
f 610 582 453
f 609 610 453
f 538 530 611
f 537 538 612
f 613 538 611
f 612 538 613
f 468 587 477
f 530 535 611
f 477 614 486
f 587 615 477
f 615 614 477
f 616 535 549
f 611 535 616
f 510 509 617
f 545 510 618
f 618 510 617
f 443 444 619
f 620 444 565
f 619 444 620
f 578 600 621
f 578 621 594
f 486 622 485
f 614 622 486
f 473 609 452
f 441 490 580
f 558 596 601
f 623 351 268
f 403 351 624
f 624 351 623
f 472 625 473
f 626 609 473
f 625 626 473
f 492 493 627
f 627 493 607
f 560 628 531
f 531 629 570
f 531 628 629
f 564 605 522
f 466 467 630
f 631 467 584
f 630 467 631
f 479 632 480
f 480 633 478
f 632 634 480
f 634 633 480
f 621 600 635
f 600 636 635
f 600 602 636
f 621 635 637
f 594 621 638
f 638 621 637
f 485 622 514
f 597 548 603
f 508 625 472
f 423 250 639
f 640 250 515
f 639 250 640
f 589 537 612
f 504 632 479
f 478 633 482
f 440 439 641
f 567 440 642
f 642 440 641
f 482 643 481
f 633 644 482
f 644 643 482
f 268 361 623
f 551 645 549
f 646 645 551
f 647 646 551
f 551 550 648
f 648 647 551
f 509 555 617
f 481 643 506
f 635 649 650
f 635 650 637
f 636 649 635
f 503 651 504
f 652 632 504
f 651 652 504
f 498 443 619
f 514 651 503
f 622 653 514
f 653 651 514
f 563 654 564
f 655 605 564
f 654 655 564
f 549 645 616
f 656 590 591
f 657 590 656
f 657 592 590
f 601 658 602
f 596 659 601
f 659 658 601
f 650 649 660
f 650 660 661
f 637 650 662
f 662 650 661
f 636 663 649
f 602 664 636
f 664 663 636
f 507 665 508
f 666 625 508
f 665 666 508
f 491 466 630
f 506 667 505
f 643 667 506
f 660 668 669
f 660 669 661
f 649 670 660
f 670 668 660
f 544 492 627
f 490 489 671
f 580 490 672
f 672 490 671
f 595 654 563
f 596 597 673
f 674 597 603
f 673 597 674
f 669 675 676
f 669 668 675
f 677 669 676
f 661 669 677
f 456 598 346
f 303 599 433
f 593 628 560
f 591 589 678
f 679 589 612
f 678 589 679
f 649 663 670
f 594 680 595
f 681 654 595
f 680 681 595
f 555 554 682
f 617 555 683
f 683 555 682
f 540 665 507
f 517 491 684
f 685 491 630
f 684 491 685
f 675 686 676
f 675 687 686
f 668 688 675
f 688 687 675
f 602 658 664
f 474 689 476
f 500 689 474
f 505 690 520
f 667 691 505
f 691 690 505
f 638 680 594
f 476 692 475
f 689 693 476
f 693 692 476
f 439 457 641
f 576 694 586
f 577 695 576
f 696 694 576
f 695 696 576
f 497 498 697
f 698 498 619
f 697 498 698
f 670 699 668
f 663 700 670
f 700 699 670
f 516 517 701
f 701 517 684
f 586 702 569
f 694 702 586
f 475 692 502
f 583 695 577
f 656 591 678
f 499 703 500
f 703 689 500
f 704 686 705
f 686 706 705
f 705 707 708
f 708 709 705
f 705 709 704
f 706 707 705
f 637 710 638
f 710 711 638
f 711 680 638
f 659 596 673
f 676 686 704
f 686 687 706
f 502 712 501
f 692 713 502
f 713 712 502
f 708 707 714
f 714 715 708
f 715 709 708
f 539 716 540
f 717 665 540
f 716 717 540
f 611 718 613
f 612 613 719
f 718 720 613
f 613 720 719
f 704 721 676
f 722 721 704
f 709 722 704
f 543 544 723
f 724 544 627
f 723 544 724
f 676 721 677
f 554 606 682
f 489 546 671
f 520 690 521
f 455 725 456
f 725 726 456
f 726 598 456
f 668 699 688
f 562 516 701
f 569 702 588
f 524 727 499
f 728 703 499
f 727 728 499
f 677 729 661
f 721 730 677
f 730 729 677
f 664 731 663
f 658 732 664
f 732 731 664
f 582 733 583
f 734 695 583
f 733 734 583
f 402 403 735
f 735 403 624
f 736 657 656
f 736 737 657
f 738 592 657
f 737 738 657
f 714 739 740
f 740 741 714
f 707 742 714
f 742 739 714
f 743 715 714
f 741 743 714
f 662 710 637
f 501 712 519
f 521 725 455
f 690 744 521
f 744 725 521
f 706 745 707
f 687 746 706
f 746 745 706
f 433 747 515
f 599 748 433
f 748 747 433
f 616 749 611
f 749 718 611
f 661 729 662
f 610 733 582
f 542 727 524
f 457 434 750
f 641 457 750
f 592 751 593
f 752 628 593
f 751 752 593
f 753 710 662
f 729 753 662
f 740 754 755
f 755 741 740
f 739 754 740
f 707 745 742
f 645 749 616
f 604 543 723
f 553 497 697
f 434 402 735
f 750 434 756
f 756 434 735
f 688 757 687
f 699 758 688
f 758 757 688
f 561 562 759
f 760 562 701
f 759 562 760
f 581 716 539
f 519 761 518
f 712 762 519
f 762 761 519
f 663 731 700
f 609 763 610
f 764 733 610
f 763 764 610
f 612 719 679
f 765 736 656
f 765 656 766
f 767 656 678
f 766 656 767
f 606 605 768
f 682 606 769
f 769 606 768
f 541 770 542
f 771 727 542
f 770 771 542
f 658 659 772
f 773 659 673
f 772 659 773
f 588 774 587
f 702 775 588
f 775 774 588
f 776 736 765
f 776 765 777
f 777 765 766
f 778 779 776
f 778 776 777
f 780 736 776
f 779 780 776
f 781 782 783
f 781 784 782
f 782 785 786
f 782 784 785
f 783 782 787
f 787 782 786
f 546 545 788
f 671 546 789
f 789 546 788
f 785 779 778
f 785 778 786
f 790 778 777
f 786 778 790
f 603 604 791
f 792 604 723
f 791 604 792
f 568 770 541
f 755 754 783
f 783 793 755
f 794 741 755
f 793 794 755
f 518 761 566
f 687 757 746
f 552 553 795
f 796 553 697
f 795 553 796
f 567 797 568
f 798 770 568
f 797 798 568
f 754 781 783
f 754 799 781
f 799 784 781
f 742 800 739
f 745 801 742
f 801 800 742
f 700 802 699
f 731 803 700
f 803 802 700
f 608 561 759
f 780 737 736
f 679 804 678
f 679 719 805
f 804 679 805
f 806 779 785
f 784 806 785
f 642 797 567
f 580 807 581
f 808 716 581
f 807 808 581
f 587 774 615
f 605 655 768
f 572 552 795
f 566 809 565
f 761 810 566
f 810 809 566
f 626 763 609
f 739 800 754
f 674 603 791
f 800 811 754
f 811 799 754
f 573 574 812
f 585 573 812
f 574 571 813
f 812 574 814
f 814 574 813
f 646 815 645
f 647 816 646
f 816 815 646
f 779 817 780
f 818 737 780
f 817 818 780
f 746 819 745
f 757 820 746
f 820 819 746
f 584 585 821
f 822 585 812
f 821 585 822
f 571 572 813
f 823 572 795
f 813 572 823
f 787 793 783
f 699 802 758
f 732 658 772
f 607 608 824
f 825 608 759
f 824 608 825
f 545 618 788
f 615 826 614
f 774 827 615
f 827 826 615
f 738 751 592
f 631 584 821
f 625 828 626
f 829 763 626
f 828 829 626
f 565 809 620
f 614 826 622
f 745 819 801
f 632 830 634
f 652 830 632
f 648 550 831
f 831 647 648
f 655 654 832
f 768 655 833
f 833 655 832
f 634 834 633
f 830 835 634
f 835 834 634
f 673 674 836
f 837 674 791
f 836 674 837
f 361 423 838
f 838 423 639
f 622 839 653
f 826 840 622
f 840 839 622
f 758 841 757
f 802 842 758
f 842 841 758
f 618 617 843
f 788 618 844
f 844 618 843
f 651 845 652
f 845 846 652
f 846 830 652
f 627 607 824
f 630 631 847
f 848 631 821
f 847 631 848
f 666 828 625
f 633 834 644
f 672 807 580
f 620 849 619
f 809 850 620
f 850 849 620
f 644 851 643
f 834 851 644
f 643 852 667
f 853 852 643
f 851 853 643
f 570 854 550
f 570 629 854
f 696 855 694
f 694 855 702
f 515 747 640
f 623 361 838
f 550 856 831
f 550 854 856
f 653 845 651
f 645 815 749
f 786 857 787
f 858 793 787
f 857 858 787
f 730 721 859
f 729 730 860
f 861 730 859
f 860 730 861
f 731 732 862
f 863 732 772
f 862 732 863
f 839 845 653
f 806 817 779
f 721 722 859
f 695 864 696
f 865 855 696
f 864 865 696
f 801 866 800
f 819 867 801
f 867 866 801
f 654 681 832
f 665 868 666
f 869 828 666
f 868 869 666
f 678 804 767
f 710 753 870
f 711 710 870
f 617 683 843
f 667 852 691
f 753 729 860
f 870 753 871
f 871 753 860
f 680 711 872
f 872 711 873
f 873 711 870
f 641 874 642
f 874 797 642
f 681 680 872
f 832 681 875
f 875 681 872
f 724 627 876
f 877 627 824
f 876 627 877
f 685 630 847
f 734 864 695
f 722 709 878
f 859 722 878
f 773 673 836
f 709 715 879
f 878 709 880
f 880 709 879
f 757 841 820
f 881 882 702
f 855 881 702
f 702 882 775
f 718 749 883
f 749 815 884
f 883 749 884
f 800 866 811
f 733 885 734
f 886 864 734
f 885 886 734
f 619 849 698
f 689 887 693
f 703 888 689
f 888 889 689
f 889 887 689
f 764 885 733
f 598 890 599
f 599 890 748
f 766 891 777
f 777 892 790
f 891 893 777
f 893 892 777
f 683 682 894
f 843 683 895
f 895 683 894
f 803 731 862
f 772 773 896
f 897 773 836
f 896 773 897
f 882 881 898
f 881 855 899
f 898 881 900
f 900 881 899
f 693 901 692
f 887 901 693
f 691 902 690
f 852 903 691
f 903 902 691
f 904 816 647
f 904 647 831
f 811 905 799
f 799 905 784
f 715 743 879
f 882 906 775
f 906 882 898
f 790 857 786
f 784 907 806
f 907 817 806
f 866 908 811
f 908 905 811
f 684 685 909
f 910 685 847
f 909 685 910
f 728 888 703
f 767 891 766
f 905 911 784
f 911 907 784
f 671 912 672
f 913 807 672
f 912 913 672
f 804 914 767
f 914 891 767
f 775 906 774
f 763 915 764
f 916 885 764
f 915 916 764
f 774 906 827
f 906 917 827
f 917 906 918
f 919 906 898
f 918 906 919
f 692 901 713
f 737 920 738
f 921 751 738
f 920 921 738
f 892 857 790
f 723 724 922
f 922 724 876
f 820 923 819
f 841 924 820
f 924 923 820
f 855 865 899
f 743 741 925
f 879 743 926
f 926 743 925
f 717 868 665
f 898 900 927
f 900 899 928
f 927 900 929
f 929 900 928
f 727 930 728
f 930 931 728
f 931 888 728
f 701 684 909
f 917 932 827
f 827 932 826
f 802 803 933
f 934 803 862
f 933 803 934
f 935 917 918
f 932 917 935
f 682 769 894
f 716 936 717
f 937 868 717
f 936 937 717
f 629 628 938
f 629 939 854
f 939 629 938
f 741 794 925
f 713 940 712
f 901 941 713
f 941 940 713
f 698 942 697
f 849 943 698
f 943 942 698
f 919 898 927
f 690 902 744
f 794 793 944
f 925 794 945
f 945 794 944
f 863 772 896
f 826 932 840
f 771 930 727
f 798 946 770
f 797 947 798
f 947 946 798
f 792 723 922
f 829 915 763
f 899 865 948
f 899 948 928
f 712 940 762
f 770 946 771
f 760 701 949
f 950 701 909
f 949 701 950
f 828 951 829
f 952 915 829
f 951 952 829
f 918 919 953
f 954 919 927
f 953 919 954
f 948 865 955
f 865 864 955
f 935 918 953
f 932 956 840
f 840 957 839
f 956 957 840
f 958 930 771
f 946 958 771
f 719 959 805
f 960 804 805
f 959 961 805
f 960 805 961
f 842 802 933
f 956 932 935
f 839 957 845
f 720 718 883
f 819 923 867
f 962 956 935
f 963 956 962
f 957 956 963
f 808 936 716
f 869 951 828
f 962 935 941
f 940 935 953
f 941 935 940
f 789 912 671
f 750 964 641
f 965 874 641
f 964 965 641
f 719 720 959
f 791 792 966
f 967 792 922
f 966 792 967
f 769 768 968
f 894 769 969
f 969 769 968
f 697 942 796
f 963 962 901
f 901 962 941
f 818 920 737
f 793 858 944
f 928 948 970
f 948 955 971
f 970 948 971
f 953 954 762
f 762 954 761
f 940 953 762
f 744 972 725
f 902 973 744
f 973 972 744
f 720 883 974
f 959 720 974
f 759 760 975
f 975 760 949
f 976 957 963
f 957 976 845
f 862 863 977
f 978 863 896
f 977 863 978
f 725 972 726
f 888 979 889
f 889 980 887
f 981 980 889
f 979 981 889
f 982 947 797
f 874 983 797
f 983 982 797
f 623 984 624
f 838 984 623
f 980 976 963
f 980 963 901
f 930 985 931
f 958 985 930
f 931 979 888
f 985 986 931
f 986 979 931
f 946 987 958
f 987 985 958
f 914 804 960
f 841 842 988
f 989 842 933
f 988 842 989
f 796 990 795
f 942 991 796
f 991 990 796
f 864 886 955
f 927 929 810
f 929 928 850
f 810 929 809
f 809 929 850
f 887 980 901
f 858 857 992
f 944 858 992
f 868 993 869
f 994 951 869
f 993 994 869
f 954 927 810
f 761 954 810
f 845 995 846
f 976 995 845
f 846 996 830
f 830 996 835
f 995 996 846
f 867 997 866
f 923 998 867
f 998 997 867
f 837 791 966
f 981 976 980
f 995 976 981
f 726 890 598
f 807 999 808
f 1000 936 808
f 999 1000 808
f 795 990 823
f 928 970 850
f 835 1001 834
f 996 1002 835
f 1002 1001 835
f 628 752 938
f 955 886 1003
f 955 1003 971
f 1004 987 946
f 947 1005 946
f 1005 1004 946
f 768 833 968
f 825 759 975
f 814 1006 812
f 812 1006 822
f 813 1007 814
f 1007 1008 814
f 1008 1006 814
f 823 1007 813
f 990 1009 823
f 1009 1007 823
f 996 995 981
f 979 996 981
f 834 1010 851
f 1001 1010 834
f 857 892 1011
f 992 857 1012
f 1012 857 1011
f 934 862 977
f 822 1013 821
f 1006 1014 822
f 1014 1013 822
f 985 1002 986
f 987 1010 985
f 1001 1002 985
f 1010 1001 985
f 853 1015 852
f 852 1015 903
f 748 890 747
f 913 999 807
f 986 996 979
f 1002 996 986
f 851 1010 853
f 788 1016 789
f 1017 912 789
f 1016 1017 789
f 1018 1015 853
f 1010 1018 853
f 972 1019 726
f 1019 890 726
f 850 970 849
f 1004 1010 987
f 924 841 988
f 1003 886 1020
f 886 885 1020
f 836 837 1021
f 1022 837 966
f 1021 837 1022
f 937 993 868
f 982 1005 947
f 1023 891 914
f 1024 914 960
f 1024 1023 914
f 866 997 908
f 821 1013 848
f 849 970 943
f 970 971 943
f 815 816 1025
f 815 1025 884
f 817 1026 818
f 1026 920 818
f 1015 1027 903
f 903 1028 902
f 1027 1028 903
f 1029 816 904
f 1030 816 1029
f 1025 816 1030
f 893 891 1023
f 833 832 1031
f 968 833 1032
f 1032 833 1031
f 971 1003 1033
f 1003 1020 1034
f 1033 1003 1034
f 1018 1010 1004
f 1005 1018 1004
f 756 964 750
f 1015 1018 1005
f 892 893 1011
f 824 825 1035
f 1035 825 1036
f 1036 825 975
f 1027 1015 1005
f 933 934 1037
f 1038 934 977
f 1037 934 1038
f 885 916 1020
f 1039 1027 1005
f 1039 1005 982
f 1040 893 1023
f 1011 893 1040
f 897 836 1021
f 971 1033 943
f 908 1041 905
f 997 1042 908
f 1042 1041 908
f 848 1043 847
f 1013 1044 848
f 1044 1043 848
f 936 1045 937
f 1046 993 937
f 1045 1046 937
f 923 924 1047
f 1048 924 988
f 1047 924 1048
f 902 1028 973
f 832 875 1031
f 844 1016 788
f 1029 904 831
f 747 1049 640
f 640 1049 639
f 877 824 1035
f 1020 916 1050
f 1020 1050 1034
f 943 1033 942
f 1033 1034 991
f 942 1033 991
f 1051 1027 1039
f 1028 1027 1051
f 896 897 1052
f 1053 897 1021
f 1052 897 1053
f 875 872 1054
f 1055 875 1054
f 1031 875 1055
f 905 1041 911
f 912 1056 913
f 1057 999 913
f 1056 1057 913
f 883 884 1058
f 884 1025 1059
f 884 1059 1058
f 831 856 1060
f 854 1061 856
f 856 1062 1060
f 856 1061 1062
f 907 1063 817
f 1064 1026 817
f 1063 1064 817
f 989 933 1037
f 965 983 874
f 847 1043 910
f 1050 916 1065
f 916 915 1065
f 983 1039 982
f 1051 1039 983
f 624 984 735
f 872 873 1054
f 752 751 1066
f 938 752 1067
f 1067 752 1066
f 873 870 1068
f 1069 873 1068
f 1054 873 1069
f 1028 1070 973
f 973 1071 972
f 1070 1071 973
f 911 1063 907
f 1041 1072 911
f 1072 1063 911
f 876 877 1073
f 1074 877 1035
f 1073 877 1074
f 843 1075 844
f 1076 1016 844
f 1075 1076 844
f 1000 1045 936
f 870 871 1068
f 1034 1050 1077
f 1050 1065 1078
f 1077 1050 1078
f 1060 1029 831
f 861 859 1079
f 860 861 1080
f 1080 861 1079
f 978 896 1052
f 871 860 1080
f 1068 871 1081
f 1081 871 1080
f 1034 1077 991
f 859 878 1082
f 1079 859 1083
f 1083 859 1082
f 854 939 1061
f 998 923 1047
f 735 1084 756
f 1084 964 756
f 1085 1084 735
f 984 1085 735
f 915 952 1065
f 1065 952 1086
f 1065 1086 1078
f 1070 1028 1051
f 1077 1078 1009
f 991 1077 990
f 990 1077 1009
f 910 1087 909
f 1043 1088 910
f 1088 1087 910
f 952 951 1089
f 951 994 1089
f 988 989 1090
f 1091 989 1037
f 1090 989 1091
f 895 1075 843
f 972 1071 1019
f 878 880 1082
f 1086 952 1089
f 1078 1086 1092
f 1078 1092 1009
f 977 978 1093
f 1094 978 1052
f 1093 978 1094
f 922 876 1073
f 1086 1089 1095
f 1092 1086 1095
f 999 1096 1000
f 1097 1045 1000
f 1096 1097 1000
f 880 879 1098
f 1082 880 1099
f 1099 880 1098
f 1100 1051 983
f 1100 1070 1051
f 967 922 1101
f 1102 922 1073
f 1101 922 1102
f 894 1103 895
f 1104 1075 895
f 1103 1104 895
f 909 1087 950
f 1089 994 1105
f 1105 994 1106
f 994 993 1106
f 997 998 1107
f 1108 998 1047
f 1107 998 1108
f 1048 988 1090
f 966 967 1109
f 1109 967 1101
f 1017 1056 912
f 1110 983 965
f 1110 1100 983
f 1089 1105 1095
f 1007 1092 1008
f 1092 1095 1008
f 1008 1111 1006
f 1095 1111 1008
f 1009 1092 1007
f 751 921 1066
f 1022 966 1109
f 1038 977 1093
f 1006 1111 1014
f 879 926 1098
f 1112 1070 1100
f 1071 1070 1112
f 890 1113 747
f 747 1114 1049
f 1113 1114 747
f 926 925 1115
f 925 945 1115
f 1098 926 1116
f 1116 926 1115
f 1057 1096 999
f 1021 1022 1117
f 1118 1022 1109
f 1117 1022 1118
f 969 1103 894
f 1095 1105 1111
f 1111 1105 1119
f 1105 1106 1119
f 964 1110 965
f 950 1120 949
f 1087 1121 950
f 1121 1120 950
f 945 944 1122
f 1115 945 1122
f 1037 1038 1123
f 1124 1038 1093
f 1123 1038 1124
f 1111 1119 1014
f 1014 1125 1013
f 1119 1125 1014
f 1047 1048 1126
f 1127 1048 1090
f 1126 1048 1127
f 890 1019 1113
f 1071 1128 1019
f 1019 1128 1113
f 1016 1129 1017
f 1130 1056 1017
f 1129 1130 1017
f 639 1131 838
f 1131 984 838
f 974 883 1058
f 1042 997 1107
f 1053 1021 1117
f 993 1046 1106
f 944 992 1132
f 1122 944 1133
f 1133 944 1132
f 921 920 1134
f 1066 921 1134
f 1091 1037 1123
f 968 1135 969
f 1136 1103 969
f 1135 1136 969
f 1013 1125 1044
f 1106 1137 1119
f 1106 1046 1137
f 949 1120 975
f 939 938 1138
f 1061 939 1139
f 1139 939 1138
f 1119 1137 1125
f 1140 1100 1110
f 1112 1100 1140
f 1052 1053 1141
f 1142 1053 1117
f 1141 1053 1142
f 1036 1143 1035
f 1035 1143 1074
f 975 1144 1036
f 1144 1143 1036
f 1076 1129 1016
f 1056 1145 1057
f 1146 1096 1057
f 1145 1146 1057
f 1046 1045 1147
f 1137 1046 1147
f 1041 1042 1148
f 1149 1042 1107
f 1148 1042 1149
f 1120 1150 975
f 1150 1144 975
f 1108 1047 1126
f 1151 959 974
f 959 1151 961
f 992 1012 1132
f 1075 1152 1076
f 1153 1129 1076
f 1152 1153 1076
f 1128 1071 1112
f 1049 1131 639
f 1090 1091 1154
f 1155 1091 1123
f 1154 1091 1155
f 1074 1156 1073
f 1143 1157 1074
f 1157 1156 1074
f 1125 1158 1044
f 1125 1137 1158
f 1140 1110 964
f 1084 1159 964
f 1159 1140 964
f 1032 1135 968
f 1160 1029 1060
f 1030 1029 1160
f 974 1058 1161
f 1161 1151 974
f 1094 1052 1141
f 1045 1097 1147
f 1158 1162 1044
f 1044 1162 1043
f 1137 1147 1158
f 961 1163 960
f 1164 1163 961
f 1151 1164 961
f 920 1026 1165
f 1134 920 1166
f 1166 920 1165
f 1072 1041 1148
f 1163 1024 960
f 1073 1156 1102
f 1127 1090 1154
f 1023 1024 1167
f 1168 1024 1163
f 1167 1024 1168
f 1012 1011 1169
f 1132 1012 1170
f 1170 1012 1169
f 1093 1094 1171
f 1172 1094 1141
f 1171 1094 1172
f 1107 1108 1173
f 1174 1108 1126
f 1173 1108 1174
f 1130 1145 1056
f 1060 1062 1160
f 1040 1023 1167
f 1147 1097 1175
f 1097 1096 1176
f 1175 1097 1176
f 1031 1177 1032
f 1178 1135 1032
f 1177 1178 1032
f 1147 1175 1158
f 1158 1175 1162
f 1104 1152 1075
f 1011 1040 1169
f 1063 1072 1179
f 1180 1072 1148
f 1179 1072 1180
f 1043 1162 1088
f 1169 1040 1181
f 1181 1040 1167
f 1026 1064 1165
f 1102 1182 1101
f 1156 1183 1102
f 1183 1182 1102
f 1085 1159 1084
f 984 1131 1085
f 1131 1184 1085
f 1184 1159 1085
f 1068 1185 1069
f 1069 1186 1054
f 1185 1187 1069
f 1187 1186 1069
f 1079 1188 1080
f 1083 1188 1079
f 1124 1093 1171
f 1081 1185 1068
f 1054 1186 1055
f 1080 1189 1081
f 1190 1189 1080
f 1188 1190 1080
f 1126 1127 1191
f 1192 1127 1154
f 1191 1127 1192
f 1189 1185 1081
f 1055 1177 1031
f 1193 1177 1055
f 1186 1193 1055
f 1082 1194 1083
f 1195 1188 1083
f 1194 1195 1083
f 1101 1182 1109
f 1064 1063 1179
f 1196 1128 1112
f 1196 1112 1140
f 1197 1064 1179
f 1165 1064 1197
f 1109 1198 1118
f 1182 1199 1109
f 1199 1198 1109
f 1062 1061 1200
f 1062 1201 1160
f 1201 1062 1200
f 1149 1107 1173
f 1103 1202 1104
f 1203 1152 1104
f 1202 1203 1104
f 1162 1204 1088
f 1088 1205 1087
f 1204 1205 1088
f 1049 1184 1131
f 1114 1184 1049
f 1096 1146 1176
f 1123 1124 1206
f 1207 1124 1171
f 1206 1124 1207
f 1136 1202 1103
f 1025 1030 1208
f 1208 1030 1160
f 1099 1194 1082
f 1117 1209 1142
f 1142 1210 1141
f 1211 1210 1142
f 1209 1211 1142
f 1129 1212 1130
f 1213 1145 1130
f 1212 1213 1130
f 1162 1175 1204
f 1113 1128 1114
f 1128 1196 1114
f 1118 1209 1117
f 938 1067 1138
f 1059 1025 1208
f 1155 1123 1206
f 1141 1210 1172
f 1198 1209 1118
f 1174 1126 1191
f 1175 1176 1204
f 1159 1196 1140
f 1087 1205 1121
f 1098 1214 1099
f 1215 1194 1099
f 1214 1215 1099
f 1172 1216 1171
f 1210 1217 1172
f 1217 1216 1172
f 1059 1218 1058
f 1219 1059 1208
f 1218 1059 1219
f 1148 1149 1220
f 1221 1149 1173
f 1220 1149 1221
f 1176 1146 1222
f 1222 1146 1223
f 1146 1145 1223
f 1176 1222 1204
f 1204 1222 1205
f 1153 1212 1129
f 1121 1224 1120
f 1120 1224 1150
f 1205 1225 1121
f 1225 1224 1121
f 1154 1155 1226
f 1227 1155 1206
f 1226 1155 1227
f 1135 1228 1136
f 1229 1202 1136
f 1228 1229 1136
f 1150 1230 1144
f 1224 1231 1150
f 1231 1230 1150
f 1173 1174 1232
f 1233 1174 1191
f 1232 1174 1233
f 1152 1234 1153
f 1235 1212 1153
f 1234 1235 1153
f 1061 1139 1200
f 1116 1214 1098
f 1144 1230 1143
f 1115 1236 1116
f 1236 1214 1116
f 1122 1237 1115
f 1238 1236 1115
f 1237 1238 1115
f 1203 1234 1152
f 1180 1148 1220
f 1171 1216 1207
f 1205 1222 1225
f 1222 1223 1225
f 1184 1196 1159
f 1114 1196 1184
f 1133 1237 1122
f 1143 1239 1157
f 1230 1240 1143
f 1240 1239 1143
f 1157 1241 1156
f 1239 1241 1157
f 1145 1213 1223
f 1178 1228 1135
f 1207 1242 1206
f 1216 1243 1207
f 1243 1242 1207
f 1156 1241 1183
f 1067 1066 1244
f 1138 1067 1244
f 1221 1173 1232
f 1192 1154 1226
f 1202 1245 1203
f 1246 1234 1203
f 1245 1246 1203
f 1179 1180 1247
f 1248 1180 1220
f 1247 1180 1248
f 1225 1249 1224
f 1223 1249 1225
f 1132 1250 1133
f 1251 1237 1133
f 1250 1251 1133
f 1218 1161 1058
f 1206 1242 1227
f 1227 1252 1226
f 1242 1253 1227
f 1253 1252 1227
f 1183 1254 1182
f 1241 1255 1183
f 1255 1254 1183
f 1229 1245 1202
f 1210 1256 1217
f 1211 1256 1210
f 1177 1257 1178
f 1258 1228 1178
f 1257 1258 1178
f 1224 1249 1231
f 1223 1213 1249
f 1209 1259 1211
f 1198 1260 1209
f 1261 1259 1209
f 1260 1261 1209
f 1262 1192 1226
f 1226 1252 1262
f 1217 1263 1216
f 1264 1263 1217
f 1256 1264 1217
f 1197 1179 1247
f 1213 1212 1265
f 1249 1213 1265
f 1220 1221 1266
f 1267 1221 1232
f 1266 1221 1267
f 1182 1254 1199
f 1066 1134 1268
f 1244 1066 1269
f 1269 1066 1268
f 1259 1256 1211
f 1200 1139 1270
f 1139 1138 1270
f 1170 1250 1132
f 1199 1260 1198
f 1231 1271 1230
f 1249 1265 1231
f 1265 1271 1231
f 1272 1192 1262
f 1191 1192 1272
f 1160 1201 1208
f 1185 1273 1187
f 1189 1274 1185
f 1275 1273 1185
f 1274 1275 1185
f 1187 1276 1186
f 1273 1276 1187
f 1193 1257 1177
f 1254 1277 1199
f 1277 1260 1199
f 1208 1201 1278
f 1278 1279 1208
f 1208 1279 1219
f 1190 1274 1189
f 1188 1280 1190
f 1195 1280 1188
f 1281 1274 1190
f 1280 1281 1190
f 1212 1235 1265
f 1262 1282 1272
f 1252 1283 1262
f 1283 1282 1262
f 1216 1263 1243
f 1230 1271 1240
f 1165 1197 1284
f 1285 1197 1247
f 1284 1197 1285
f 1228 1286 1229
f 1287 1245 1229
f 1286 1287 1229
f 1134 1166 1268
f 1194 1288 1195
f 1289 1280 1195
f 1288 1289 1195
f 1186 1276 1193
f 1290 1257 1193
f 1276 1290 1193
f 1291 1151 1161
f 1218 1292 1161
f 1292 1291 1161
f 1166 1165 1284
f 1293 1166 1284
f 1268 1166 1293
f 1235 1234 1294
f 1265 1235 1271
f 1271 1235 1294
f 1240 1295 1239
f 1271 1294 1240
f 1294 1295 1240
f 1248 1220 1266
f 1234 1246 1294
f 1169 1296 1170
f 1297 1250 1170
f 1296 1297 1170
f 1233 1191 1272
f 1215 1288 1194
f 1243 1298 1242
f 1299 1298 1243
f 1263 1299 1243
f 1258 1286 1228
f 1163 1300 1168
f 1164 1300 1163
f 1168 1301 1167
f 1302 1301 1168
f 1300 1302 1168
f 1239 1295 1241
f 1164 1151 1291
f 1303 1300 1164
f 1303 1164 1291
f 1246 1245 1304
f 1294 1246 1295
f 1295 1246 1304
f 1181 1296 1169
f 1242 1298 1253
f 1201 1200 1278
f 1278 1200 1305
f 1305 1306 1278
f 1306 1279 1278
f 1167 1301 1181
f 1241 1307 1255
f 1295 1304 1241
f 1304 1307 1241
f 1308 1296 1181
f 1301 1308 1181
f 1245 1287 1304
f 1253 1309 1252
f 1298 1310 1253
f 1310 1309 1253
f 1247 1248 1311
f 1312 1248 1266
f 1311 1248 1312
f 1313 1233 1272
f 1232 1233 1314
f 1314 1233 1313
f 1272 1282 1313
f 1214 1315 1215
f 1315 1288 1215
f 1257 1316 1258
f 1317 1286 1258
f 1316 1317 1258
f 1255 1318 1254
f 1307 1318 1255
f 1261 1319 1259
f 1259 1319 1256
f 1267 1232 1314
f 1304 1287 1307
f 1287 1286 1318
f 1307 1287 1318
f 1236 1320 1214
f 1321 1315 1214
f 1320 1321 1214
f 1252 1309 1283
f 1298 1322 1310
f 1310 1323 1309
f 1322 1324 1310
f 1324 1323 1310
f 1254 1318 1277
f 1305 1200 1325
f 1325 1306 1305
f 1299 1322 1298
f 1279 1326 1219
f 1219 1326 1218
f 1200 1270 1325
f 1260 1327 1261
f 1327 1328 1261
f 1328 1319 1261
f 1290 1316 1257
f 1238 1320 1236
f 1237 1329 1238
f 1330 1320 1238
f 1329 1330 1238
f 1277 1327 1260
f 1318 1331 1277
f 1331 1327 1277
f 1285 1247 1311
f 1263 1332 1299
f 1333 1322 1299
f 1332 1333 1299
f 1264 1332 1263
f 1256 1334 1264
f 1334 1332 1264
f 1282 1335 1313
f 1335 1336 1313
f 1313 1336 1314
f 1273 1337 1276
f 1275 1337 1273
f 1276 1338 1290
f 1339 1338 1276
f 1337 1339 1276
f 1338 1316 1290
f 1251 1329 1237
f 1309 1340 1283
f 1283 1341 1282
f 1340 1341 1283
f 1286 1317 1318
f 1270 1138 1342
f 1138 1244 1343
f 1342 1138 1343
f 1274 1344 1275
f 1345 1337 1275
f 1344 1345 1275
f 1266 1267 1346
f 1347 1267 1314
f 1346 1267 1347
f 1309 1323 1340
f 1348 1334 1256
f 1319 1348 1256
f 1282 1341 1335
f 1281 1344 1274
f 1284 1285 1349
f 1350 1285 1311
f 1349 1285 1350
f 1280 1351 1281
f 1352 1344 1281
f 1351 1352 1281
f 1317 1316 1331
f 1318 1317 1331
f 1250 1353 1251
f 1354 1329 1251
f 1353 1354 1251
f 1322 1351 1324
f 1324 1355 1323
f 1351 1356 1324
f 1356 1355 1324
f 1335 1357 1336
f 1341 1358 1335
f 1358 1357 1335
f 1289 1351 1280
f 1279 1306 1326
f 1333 1351 1322
f 1312 1266 1346
f 1288 1356 1289
f 1356 1351 1289
f 1323 1359 1340
f 1340 1360 1341
f 1359 1360 1340
f 1314 1336 1347
f 1331 1316 1327
f 1327 1316 1328
f 1316 1338 1328
f 1315 1361 1288
f 1361 1355 1288
f 1355 1356 1288
f 1293 1284 1349
f 1332 1352 1333
f 1352 1351 1333
f 1338 1339 1328
f 1323 1355 1359
f 1348 1345 1334
f 1319 1339 1348
f 1339 1337 1348
f 1337 1345 1348
f 1334 1345 1332
f 1328 1339 1319
f 1297 1353 1250
f 1311 1312 1362
f 1363 1312 1346
f 1362 1312 1363
f 1336 1364 1347
f 1336 1357 1364
f 1270 1342 1325
f 1341 1360 1358
f 1321 1361 1315
f 1345 1344 1332
f 1344 1352 1332
f 1365 1306 1325
f 1306 1366 1326
f 1365 1367 1306
f 1367 1366 1306
f 1359 1368 1360
f 1361 1368 1359
f 1355 1361 1359
f 1268 1293 1369
f 1370 1293 1349
f 1369 1293 1370
f 1244 1269 1343
f 1364 1371 1347
f 1347 1371 1346
f 1372 1373 1374
f 1373 1372 1330
f 1368 1372 1374
f 1372 1368 1321
f 1330 1372 1320
f 1320 1372 1321
f 1325 1342 1375
f 1376 1365 1325
f 1375 1376 1325
f 1296 1377 1297
f 1378 1353 1297
f 1377 1378 1297
f 1374 1373 1379
f 1380 1373 1330
f 1379 1373 1381
f 1373 1380 1381
f 1360 1368 1374
f 1368 1361 1321
f 1360 1374 1358
f 1374 1379 1358
f 1358 1379 1357
f 1350 1311 1362
f 1357 1382 1364
f 1364 1383 1371
f 1382 1383 1364
f 1329 1380 1330
f 1218 1326 1292
f 1269 1268 1369
f 1357 1379 1382
f 1379 1381 1382
f 1308 1377 1296
f 1302 1384 1301
f 1301 1384 1308
f 1354 1380 1329
f 1300 1385 1302
f 1386 1384 1302
f 1385 1386 1302
f 1387 1269 1369
f 1343 1269 1387
f 1388 1377 1308
f 1384 1388 1308
f 1346 1371 1363
f 1385 1300 1303
f 1380 1389 1381
f 1389 1380 1354
f 1371 1390 1363
f 1371 1383 1390
f 1391 1303 1291
f 1392 1385 1303
f 1391 1392 1303
f 1349 1350 1393
f 1394 1350 1362
f 1393 1350 1394
f 1381 1395 1382
f 1382 1395 1383
f 1381 1389 1395
f 1390 1396 1363
f 1363 1396 1362
f 1397 1389 1354
f 1353 1397 1354
f 1326 1398 1292
f 1292 1391 1291
f 1398 1391 1292
f 1383 1399 1390
f 1399 1400 1390
f 1390 1400 1396
f 1383 1395 1399
f 1326 1366 1398
f 1375 1342 1401
f 1342 1343 1401
f 1370 1349 1393
f 1395 1389 1402
f 1389 1397 1402
f 1395 1402 1399
f 1378 1397 1353
f 1402 1403 1399
f 1399 1403 1400
f 1404 1367 1365
f 1376 1404 1365
f 1377 1405 1378
f 1388 1405 1377
f 1362 1396 1394
f 1406 1397 1378
f 1405 1406 1378
f 1369 1370 1407
f 1408 1370 1393
f 1407 1370 1408
f 1397 1406 1402
f 1402 1406 1403
f 1384 1409 1388
f 1410 1405 1388
f 1409 1410 1388
f 1396 1411 1394
f 1396 1400 1411
f 1394 1412 1393
f 1411 1412 1394
f 1386 1409 1384
f 1413 1386 1385
f 1414 1409 1386
f 1413 1414 1386
f 1366 1415 1398
f 1398 1416 1391
f 1415 1416 1398
f 1400 1403 1417
f 1400 1417 1411
f 1392 1413 1385
f 1403 1406 1418
f 1406 1405 1418
f 1387 1369 1407
f 1366 1419 1415
f 1367 1419 1366
f 1403 1418 1417
f 1405 1410 1418
f 1416 1392 1391
f 1416 1420 1392
f 1420 1413 1392
f 1421 1376 1375
f 1401 1421 1375
f 1393 1412 1408
f 1417 1422 1411
f 1411 1422 1412
f 1343 1387 1401
f 1418 1410 1423
f 1410 1409 1424
f 1423 1410 1424
f 1425 1387 1407
f 1401 1387 1425
f 1418 1423 1417
f 1409 1414 1424
f 1415 1419 1416
f 1417 1423 1422
f 1424 1414 1426
f 1427 1414 1413
f 1426 1414 1427
f 1412 1428 1408
f 1408 1429 1407
f 1428 1429 1408
f 1422 1423 1430
f 1423 1424 1430
f 1412 1422 1428
f 1422 1430 1428
f 1419 1431 1416
f 1431 1420 1416
f 1424 1426 1430
f 1404 1419 1367
f 1432 1404 1376
f 1421 1432 1376
f 1431 1419 1404
f 1430 1433 1428
f 1430 1426 1433
f 1407 1429 1425
f 1420 1427 1413
f 1431 1434 1420
f 1434 1427 1420
f 1428 1433 1429
f 1433 1426 1435
f 1426 1427 1435
f 1429 1433 1436
f 1433 1435 1436
f 1425 1421 1401
f 1429 1436 1425
f 1436 1421 1425
f 1434 1431 1404
f 1432 1434 1404
f 1427 1434 1435
f 1435 1434 1432
f 1436 1432 1421
f 1435 1432 1436
