# 
# Wavefront OBJ file
# Created with Kaydara FBX
# 
mtllib c:\users\tjvan\onedrive\documenten\fontys\minor\nx\.mtlmodels\fibularis_longus_muscle.r.obj

g Fibularis_longus_muscle_r
v -0.134206 0.303389 -0.053282
v -0.134336 0.294580 -0.053144
v -0.131942 0.293953 -0.044259
v -0.130131 0.295105 -0.058763
v -0.130898 0.285405 -0.044110
v -0.133693 0.285806 -0.052171
v -0.132995 0.311565 -0.044263
v -0.133845 0.312199 -0.053314
v -0.130482 0.312246 -0.058129
v -0.132782 0.302714 -0.044285
v -0.130348 0.303639 -0.058357
v -0.133393 0.320888 -0.052993
v -0.130752 0.321001 -0.057638
v -0.132905 0.277171 -0.051788
v -0.129802 0.286455 -0.059000
v -0.132860 0.320323 -0.044204
v -0.132975 0.329793 -0.052793
v -0.127654 0.319398 -0.035869
v -0.126890 0.301973 -0.036893
v -0.127299 0.310641 -0.036402
v -0.132734 0.329060 -0.044269
v -0.132430 0.337841 -0.044049
v -0.132083 0.338725 -0.052345
v -0.130282 0.338985 -0.056475
v -0.130820 0.329982 -0.057157
v -0.132020 0.268485 -0.051547
v -0.129715 0.268309 -0.044437
v -0.128455 0.268991 -0.058760
v -0.130266 0.277003 -0.044175
v -0.129467 0.277592 -0.059141
v -0.126464 0.293238 -0.037726
v -0.127800 0.328142 -0.035615
v -0.131012 0.347379 -0.050958
v -0.131343 0.346321 -0.042896
v -0.127279 0.345287 -0.034849
v -0.127854 0.336772 -0.035344
v -0.129333 0.347772 -0.055113
v -0.128662 0.259700 -0.045256
v -0.130825 0.259853 -0.052063
v -0.129778 0.355485 -0.048360
v -0.129984 0.354485 -0.041162
v -0.125961 0.276560 -0.039933
v -0.126090 0.284871 -0.038810
v -0.129552 0.251449 -0.052823
v -0.127228 0.260555 -0.059078
v -0.126884 0.329870 -0.058332
v -0.126856 0.338763 -0.057630
v -0.124960 0.312240 -0.059066
v -0.126108 0.320941 -0.058771
v -0.123871 0.303813 -0.059115
v -0.125689 0.268085 -0.041055
v -0.122028 0.287153 -0.060630
v -0.122851 0.295518 -0.059647
v -0.128445 0.362840 -0.039904
v -0.126584 0.353715 -0.034479
v -0.128318 0.356080 -0.052685
v -0.128445 0.363499 -0.045657
v -0.127117 0.364038 -0.049966
v -0.127923 0.251334 -0.046169
v -0.128338 0.243231 -0.053493
v -0.127311 0.243130 -0.047306
v -0.124744 0.243864 -0.059782
v -0.125980 0.252172 -0.059661
v -0.121961 0.278471 -0.061098
v -0.125314 0.356069 -0.054832
v -0.126106 0.347480 -0.056551
v -0.124530 0.251378 -0.043089
v -0.125021 0.259665 -0.042225
v -0.120890 0.261252 -0.061176
v -0.121760 0.269735 -0.061198
v -0.127054 0.371531 -0.044163
v -0.127061 0.371232 -0.039484
v -0.124794 0.371073 -0.034912
v -0.125885 0.362455 -0.034449
v -0.125852 0.371899 -0.048193
v -0.126739 0.234950 -0.048740
v -0.126800 0.235191 -0.054377
v -0.124377 0.364317 -0.052796
v -0.124311 0.243145 -0.044094
v -0.122317 0.327941 -0.033159
v -0.122829 0.336501 -0.032792
v -0.121073 0.310359 -0.034853
v -0.121615 0.319128 -0.033788
v -0.121042 0.301716 -0.035611
v -0.122415 0.353415 -0.032177
v -0.122680 0.345022 -0.032325
v -0.125914 0.379221 -0.043527
v -0.126145 0.379294 -0.039496
v -0.121733 0.329576 -0.057142
v -0.121953 0.346986 -0.056021
v -0.122319 0.338323 -0.056822
v -0.125411 0.227076 -0.055213
v -0.123548 0.235705 -0.059630
v -0.125843 0.226823 -0.050249
v -0.123976 0.226830 -0.046505
v -0.124287 0.234937 -0.045274
v -0.122208 0.284611 -0.037382
v -0.121623 0.292955 -0.036368
v -0.125194 0.386816 -0.043230
v -0.125277 0.387253 -0.039893
v -0.124161 0.379393 -0.035697
v -0.120339 0.320769 -0.057045
v -0.121266 0.355625 -0.054496
v -0.122466 0.276303 -0.038769
v -0.119915 0.253007 -0.061465
v -0.124812 0.379237 -0.047030
v -0.124166 0.386395 -0.046337
v -0.121915 0.362125 -0.032396
v -0.124521 0.218898 -0.051409
v -0.123151 0.218918 -0.047614
v -0.122638 0.379378 -0.049774
v -0.123407 0.372192 -0.051125
v -0.121820 0.259671 -0.041390
v -0.122291 0.268006 -0.040114
v -0.123971 0.219157 -0.055698
v -0.121687 0.219585 -0.059252
v -0.122687 0.227529 -0.059557
v -0.124573 0.393524 -0.040864
v -0.123844 0.393295 -0.038560
v -0.123695 0.387436 -0.037013
v -0.124485 0.392787 -0.043716
v -0.121287 0.251385 -0.042293
v -0.117998 0.303807 -0.056576
v -0.118978 0.312170 -0.056678
v -0.120466 0.379340 -0.033854
v -0.120879 0.370757 -0.032921
v -0.118725 0.236349 -0.062102
v -0.119156 0.244684 -0.061810
v -0.123069 0.396353 -0.044511
v -0.123043 0.395236 -0.041289
v -0.123352 0.395204 -0.041935
v -0.123189 0.211206 -0.052068
v -0.123438 0.391664 -0.046544
v -0.119727 0.371899 -0.050645
v -0.120332 0.364060 -0.052569
v -0.120955 0.235070 -0.044340
v -0.121065 0.243199 -0.043400
v -0.120683 0.227104 -0.045234
v -0.121645 0.390837 -0.048477
v -0.122252 0.385898 -0.048697
v -0.122572 0.211414 -0.055779
v -0.121344 0.392878 -0.036324
v -0.121349 0.391522 -0.041510
v -0.120815 0.387166 -0.035156
v -0.122390 0.395248 -0.047656
v -0.119209 0.379298 -0.049274
v -0.122035 0.395592 -0.044401
v -0.122234 0.211206 -0.048647
v -0.121536 0.203630 -0.055913
v -0.121444 0.203329 -0.049179
v -0.121903 0.203445 -0.052461
v -0.120048 0.211357 -0.046472
v -0.120103 0.219225 -0.045859
v -0.120757 0.398193 -0.049412
v -0.120734 0.399228 -0.046769
v -0.121512 0.399417 -0.047649
v -0.117212 0.295482 -0.057095
v -0.118803 0.336636 -0.033838
v -0.118664 0.228046 -0.061829
v -0.119006 0.345043 -0.033415
v -0.119760 0.385873 -0.048106
v -0.120697 0.211759 -0.058884
v -0.119662 0.268183 -0.041453
v -0.119134 0.284694 -0.038916
v -0.119629 0.276392 -0.040083
v -0.118346 0.361750 -0.033494
v -0.118868 0.353297 -0.033328
v -0.120782 0.394353 -0.049060
v -0.119375 0.397110 -0.050120
v -0.117267 0.319291 -0.035253
v -0.118026 0.328101 -0.034443
v -0.117563 0.346582 -0.054107
v -0.117375 0.337964 -0.054712
v -0.119541 0.259894 -0.043123
v -0.119458 0.203430 -0.046939
v -0.116884 0.278660 -0.058867
v -0.116771 0.287129 -0.058008
v -0.120731 0.395218 -0.046333
v -0.119676 0.398331 -0.047769
v -0.120695 0.195627 -0.052925
v -0.120392 0.195439 -0.049832
v -0.116717 0.270113 -0.059607
v -0.115601 0.320571 -0.053961
v -0.116469 0.329245 -0.054538
v -0.117990 0.212089 -0.061218
v -0.118459 0.219994 -0.061559
v -0.119809 0.394489 -0.048033
v -0.120220 0.390828 -0.047441
v -0.118241 0.293038 -0.038007
v -0.116858 0.310484 -0.036314
v -0.120351 0.195812 -0.056062
v -0.119924 0.203927 -0.058858
v -0.118997 0.196072 -0.058946
v -0.119491 0.400035 -0.050442
v -0.119785 0.401484 -0.048418
v -0.120024 0.401014 -0.049404
v -0.119591 0.391293 -0.038265
v -0.121066 0.391228 -0.044998
v -0.120055 0.386247 -0.044913
v -0.119424 0.386380 -0.041779
v -0.117333 0.386473 -0.039015
v -0.118822 0.391135 -0.035489
v -0.119257 0.243567 -0.046043
v -0.119271 0.251653 -0.044686
v -0.117342 0.363493 -0.049736
v -0.117292 0.355209 -0.052519
v -0.118987 0.235527 -0.046961
v -0.117109 0.301684 -0.037086
v -0.115586 0.253408 -0.060321
v -0.116328 0.261603 -0.059761
v -0.117271 0.370347 -0.033760
v -0.117582 0.386748 -0.034658
v -0.119397 0.187838 -0.053449
v -0.117745 0.219637 -0.048009
v -0.118440 0.227562 -0.047567
v -0.116770 0.379139 -0.034212
v -0.118643 0.195463 -0.047636
v -0.119247 0.187633 -0.050555
v -0.117629 0.187655 -0.048497
v -0.119012 0.188009 -0.056372
v -0.117326 0.211723 -0.048334
v -0.118320 0.379066 -0.045988
v -0.117161 0.378933 -0.042975
v -0.119138 0.402458 -0.049669
v -0.118797 0.402305 -0.050412
v -0.117557 0.204220 -0.061190
v -0.118835 0.397341 -0.048998
v -0.118759 0.400514 -0.048837
v -0.117613 0.371318 -0.047644
v -0.117933 0.399453 -0.049783
v -0.118386 0.268629 -0.044660
v -0.117766 0.276814 -0.043389
v -0.117525 0.391377 -0.035658
v -0.118322 0.252051 -0.047992
v -0.118503 0.260297 -0.046379
v -0.118238 0.399139 -0.050716
v -0.118391 0.401589 -0.051137
v -0.117716 0.400514 -0.051241
v -0.115998 0.195930 -0.049105
v -0.116720 0.203809 -0.048624
v -0.115118 0.378901 -0.039950
v -0.118018 0.179932 -0.051208
v -0.117785 0.180172 -0.056515
v -0.118100 0.180085 -0.053856
v -0.117935 0.243968 -0.049222
v -0.116332 0.180006 -0.049183
v -0.114972 0.245087 -0.060851
v -0.115691 0.293463 -0.041788
v -0.116766 0.285099 -0.042538
v -0.117721 0.403019 -0.050364
v -0.117828 0.402037 -0.049842
v -0.118030 0.188199 -0.059191
v -0.116169 0.188458 -0.061491
v -0.116947 0.196365 -0.061239
v -0.116163 0.345212 -0.037260
v -0.116738 0.227929 -0.050558
v -0.117387 0.235933 -0.050050
v -0.114896 0.312127 -0.053763
v -0.116232 0.361670 -0.036700
v -0.116415 0.353341 -0.036890
v -0.115380 0.386824 -0.036322
v -0.115330 0.328309 -0.038516
v -0.115718 0.336882 -0.037704
v -0.117678 0.402699 -0.051190
v -0.114733 0.228424 -0.061716
v -0.114644 0.236690 -0.061364
v -0.115116 0.188136 -0.049800
v -0.116839 0.260726 -0.049771
v -0.116428 0.252471 -0.051077
v -0.114825 0.220344 -0.061969
v -0.116078 0.219934 -0.050942
v -0.116111 0.277495 -0.048098
v -0.116831 0.269147 -0.048554
v -0.116475 0.172315 -0.051615
v -0.116459 0.172345 -0.053971
v -0.116803 0.180308 -0.059059
v -0.115095 0.319630 -0.039482
v -0.114407 0.204437 -0.062025
v -0.114655 0.212364 -0.061918
v -0.114191 0.295261 -0.054705
v -0.114469 0.303693 -0.054091
v -0.115077 0.236320 -0.052659
v -0.115832 0.244387 -0.052061
v -0.117256 0.401214 -0.050389
v -0.115434 0.172426 -0.058530
v -0.116194 0.172359 -0.056309
v -0.115753 0.362741 -0.045735
v -0.116126 0.370793 -0.044122
v -0.114670 0.337685 -0.050903
v -0.115267 0.354648 -0.048341
v -0.115066 0.346225 -0.050250
v -0.114449 0.228255 -0.053167
v -0.114995 0.204110 -0.051505
v -0.115514 0.212004 -0.051240
v -0.114251 0.379113 -0.036481
v -0.115224 0.370200 -0.036637
v -0.115055 0.302144 -0.041148
v -0.113994 0.196633 -0.062055
v -0.114117 0.286756 -0.055474
v -0.114441 0.270028 -0.056233
v -0.114517 0.278425 -0.055988
v -0.115008 0.310940 -0.040511
v -0.114820 0.261182 -0.053057
v -0.114994 0.269602 -0.052272
v -0.115205 0.180422 -0.061271
v -0.115162 0.285834 -0.047933
v -0.114288 0.196304 -0.051832
v -0.114892 0.164607 -0.054025
v -0.114951 0.172505 -0.049918
v -0.114954 0.164600 -0.052072
v -0.113848 0.164745 -0.050612
v -0.114326 0.328976 -0.050513
v -0.113477 0.244823 -0.054784
v -0.114140 0.252954 -0.054006
v -0.114713 0.353826 -0.042512
v -0.113914 0.180549 -0.050440
v -0.112846 0.172883 -0.050959
v -0.114220 0.261596 -0.056717
v -0.115282 0.361986 -0.041114
v -0.114965 0.370405 -0.040462
v -0.114532 0.164646 -0.056006
v -0.112717 0.180635 -0.062057
v -0.113431 0.188722 -0.062229
v -0.114580 0.337227 -0.044710
v -0.114422 0.345634 -0.044057
v -0.113817 0.286331 -0.052191
v -0.114647 0.278041 -0.052330
v -0.113644 0.212252 -0.054018
v -0.113994 0.220213 -0.053662
v -0.112790 0.236638 -0.055335
v -0.114705 0.328673 -0.045016
v -0.114694 0.294245 -0.047551
v -0.114650 0.302906 -0.046865
v -0.113830 0.311936 -0.050472
v -0.114024 0.320369 -0.050307
v -0.112776 0.245131 -0.058159
v -0.113438 0.253396 -0.057478
v -0.113284 0.204363 -0.054267
v -0.114083 0.172539 -0.060411
v -0.113881 0.164733 -0.057854
v -0.112662 0.164874 -0.059331
v -0.113439 0.188539 -0.052308
v -0.112448 0.180867 -0.052652
v -0.114606 0.311525 -0.046233
v -0.114602 0.320051 -0.045551
v -0.113283 0.156810 -0.052601
v -0.112388 0.156917 -0.051457
v -0.111959 0.165026 -0.051340
v -0.113165 0.156881 -0.055898
v -0.113514 0.156806 -0.054246
v -0.112061 0.220489 -0.059801
v -0.112422 0.236769 -0.058694
v -0.112141 0.228559 -0.059296
v -0.113504 0.294857 -0.051761
v -0.111863 0.212471 -0.060081
v -0.113710 0.303429 -0.051064
v -0.112081 0.220401 -0.056468
v -0.112326 0.228477 -0.055910
v -0.111531 0.196754 -0.060363
v -0.111784 0.204555 -0.060220
v -0.112091 0.188776 -0.054929
v -0.112797 0.196549 -0.054575
v -0.111850 0.172731 -0.061170
v -0.111945 0.212411 -0.056843
v -0.111566 0.173089 -0.052830
v -0.112562 0.156987 -0.057472
v -0.111744 0.149047 -0.053207
v -0.112063 0.149048 -0.054616
v -0.111217 0.181031 -0.055062
v -0.111080 0.188893 -0.060578
v -0.111487 0.196711 -0.057376
v -0.111762 0.204531 -0.057086
v -0.111162 0.149275 -0.057341
v -0.111807 0.149137 -0.056037
v -0.111060 0.188910 -0.057651
v -0.110099 0.173083 -0.059595
v -0.110592 0.180950 -0.060382
v -0.111641 0.157128 -0.058779
v -0.110994 0.165045 -0.060049
v -0.110146 0.157348 -0.059236
v -0.110869 0.157172 -0.051947
v -0.110998 0.149121 -0.052151
v -0.109755 0.149329 -0.052638
v -0.110828 0.141268 -0.055081
v -0.110738 0.165204 -0.053025
v -0.109764 0.157377 -0.053311
v -0.110562 0.141375 -0.056394
v -0.109594 0.141345 -0.052823
v -0.110512 0.141250 -0.053728
v -0.110305 0.149436 -0.058434
v -0.110557 0.173214 -0.054974
v -0.109905 0.165307 -0.054844
v -0.110349 0.181110 -0.057601
v -0.109929 0.173229 -0.057228
v -0.109951 0.141528 -0.057605
v -0.109175 0.141698 -0.058725
v -0.108439 0.141542 -0.053180
v -0.109610 0.165269 -0.058727
v -0.108843 0.149513 -0.053821
v -0.109348 0.133608 -0.056848
v -0.109317 0.133466 -0.054292
v -0.109637 0.133491 -0.055595
v -0.109014 0.157499 -0.054847
v -0.109436 0.165346 -0.056773
v -0.108393 0.133559 -0.053451
v -0.109097 0.149629 -0.058765
v -0.108928 0.157523 -0.058184
v -0.108157 0.149744 -0.057905
v -0.108722 0.133771 -0.057979
v -0.108358 0.125733 -0.056128
v -0.108011 0.125717 -0.054933
v -0.108646 0.157557 -0.056493
v -0.107478 0.126006 -0.058403
v -0.108135 0.125839 -0.057351
v -0.107950 0.141895 -0.058932
v -0.107949 0.133952 -0.059027
v -0.106792 0.134142 -0.059189
v -0.108151 0.149661 -0.055108
v -0.107853 0.149748 -0.056506
v -0.107653 0.141715 -0.054249
v -0.107146 0.141857 -0.055513
v -0.107221 0.133761 -0.053767
v -0.106303 0.133958 -0.054664
v -0.107267 0.125783 -0.054037
v -0.106123 0.125989 -0.054353
v -0.106982 0.117984 -0.056653
v -0.106698 0.141988 -0.056791
v -0.106986 0.142001 -0.058046
v -0.106864 0.118073 -0.057850
v -0.105976 0.118034 -0.054565
v -0.106616 0.117979 -0.055505
v -0.106677 0.126192 -0.059370
v -0.105831 0.134104 -0.055894
v -0.106276 0.118235 -0.058912
v -0.105414 0.118432 -0.059806
v -0.104877 0.118235 -0.054820
v -0.105311 0.126176 -0.055295
v -0.105492 0.110317 -0.058284
v -0.105254 0.110232 -0.055985
v -0.105624 0.110228 -0.057113
v -0.105872 0.134235 -0.058299
v -0.105581 0.126378 -0.059524
v -0.104713 0.126470 -0.058664
v -0.105451 0.134232 -0.057143
v -0.104599 0.110300 -0.055074
v -0.104890 0.110482 -0.059310
v -0.104312 0.126471 -0.057564
v -0.104723 0.126337 -0.056397
v -0.104298 0.102462 -0.057533
v -0.103875 0.102474 -0.056406
v -0.104283 0.118632 -0.059933
v -0.103477 0.102754 -0.059733
v -0.104138 0.102567 -0.058730
v -0.103957 0.110699 -0.060109
v -0.102842 0.110908 -0.060321
v -0.104155 0.118417 -0.055816
v -0.103584 0.118577 -0.056892
v -0.103557 0.110505 -0.055287
v -0.102800 0.110691 -0.056237
v -0.103100 0.118721 -0.057989
v -0.103491 0.118717 -0.059056
v -0.103169 0.102556 -0.055514
v -0.102075 0.102773 -0.055659
v -0.102914 0.094754 -0.058096
v -0.102276 0.110844 -0.057312
v -0.102723 0.094883 -0.059241
v -0.102572 0.102974 -0.060557
v -0.101777 0.094783 -0.056043
v -0.102544 0.094722 -0.056940
v -0.101302 0.102972 -0.056606
v -0.103376 0.031816 -0.013517
v -0.103532 0.032673 -0.021741
v -0.103459 0.031796 -0.021870
v -0.101965 0.033317 -0.029565
v -0.103078 0.033428 -0.021592
v -0.101969 0.034013 -0.029420
v -0.102128 0.110990 -0.059453
v -0.102111 0.095073 -0.060260
v -0.101203 0.095291 -0.060994
v -0.103399 0.030845 -0.013557
v -0.102986 0.031071 -0.021936
v -0.100603 0.031126 -0.005588
v -0.102756 0.030193 -0.013706
v -0.102835 0.032592 -0.013599
v -0.100150 0.032770 -0.006033
v -0.100549 0.032011 -0.005739
v -0.100576 0.095002 -0.056185
v -0.101817 0.110988 -0.058414
v -0.102062 0.033060 -0.013728
v -0.102328 0.033831 -0.021461
v -0.101253 0.035142 -0.029076
v -0.101732 0.034665 -0.029247
v -0.101882 0.029931 -0.013874
v -0.102167 0.030748 -0.021904
v -0.101072 0.032356 -0.029634
v -0.101702 0.032676 -0.029663
v -0.101391 0.087194 -0.060049
v -0.101143 0.087031 -0.057868
v -0.101483 0.087061 -0.058941
v -0.099481 0.033217 -0.006426
v -0.101433 0.103194 -0.060695
v -0.100573 0.103308 -0.059924
v -0.100009 0.030502 -0.005787
v -0.100315 0.087108 -0.057139
v -0.101172 0.033178 -0.013888
v -0.101493 0.033850 -0.021387
v -0.100425 0.103269 -0.058843
v -0.100912 0.103110 -0.057739
v -0.101334 0.030845 -0.021812
v -0.100369 0.032377 -0.029522
v -0.100818 0.087389 -0.060985
v -0.100667 0.035772 -0.036945
v -0.100343 0.034596 -0.037213
v -0.100592 0.035172 -0.037094
v -0.100995 0.030072 -0.014034
v -0.098393 0.030434 -0.006591
v -0.099186 0.030248 -0.006162
v -0.100550 0.036385 -0.036764
v -0.099825 0.034252 -0.037225
v -0.100551 0.035168 -0.028966
v -0.100758 0.033489 -0.021391
v -0.100114 0.079432 -0.059749
v -0.099824 0.079410 -0.058788
v -0.100095 0.095492 -0.061110
v -0.099486 0.079633 -0.061574
v -0.099979 0.079513 -0.060737
v -0.100594 0.031304 -0.021694
v -0.099384 0.095376 -0.058203
v -0.099777 0.095219 -0.057115
v -0.099528 0.036630 -0.036552
v -0.100139 0.036792 -0.036603
v -0.099888 0.087595 -0.061592
v -0.098839 0.087778 -0.061707
v -0.100364 0.032834 -0.014062
v -0.097927 0.033099 -0.007213
v -0.098708 0.033368 -0.006842
v -0.100252 0.030605 -0.014167
v -0.098885 0.095553 -0.059296
v -0.099949 0.034728 -0.028970
v -0.099827 0.032176 -0.014194
v -0.100234 0.032834 -0.021457
v -0.099539 0.034106 -0.029041
v -0.099315 0.037949 -0.044345
v -0.099402 0.038949 -0.043862
v -0.099448 0.038478 -0.044100
v -0.096358 0.033875 0.000870
v -0.095700 0.032512 0.001026
v -0.096264 0.033122 0.001145
v -0.099781 0.032753 -0.029356
v -0.099805 0.031356 -0.014220
v -0.100162 0.032026 -0.021568
v -0.099454 0.033384 -0.029178
v -0.099009 0.037463 -0.044543
v -0.099224 0.087279 -0.057128
v -0.098480 0.087461 -0.057944
v -0.099199 0.095589 -0.060380
v -0.096035 0.034442 0.000399
v -0.099190 0.034253 -0.037126
v -0.098666 0.034536 -0.036972
v -0.097422 0.032449 -0.007392
v -0.099070 0.079475 -0.058173
v -0.098103 0.079609 -0.058196
v -0.097757 0.030890 -0.006992
v -0.099008 0.039143 -0.043732
v -0.099089 0.071768 -0.060049
v -0.098982 0.071749 -0.060909
v -0.099065 0.036201 -0.036590
v -0.098649 0.079787 -0.062171
v -0.097905 0.036964 -0.044626
v -0.098537 0.037089 -0.044664
v -0.098742 0.071838 -0.059279
v -0.098070 0.071924 -0.058790
v -0.097353 0.031615 -0.007300
v -0.098437 0.035079 -0.036789
v -0.097968 0.087643 -0.058903
v -0.098674 0.035684 -0.036667
v -0.098148 0.038589 -0.043843
v -0.098558 0.038943 -0.043748
v -0.094838 0.034840 -0.000623
v -0.095483 0.034768 -0.000130
v -0.098481 0.071763 -0.061634
v -0.097718 0.071812 -0.062110
v -0.098461 0.043108 -0.050004
v -0.098303 0.042695 -0.050428
v -0.098077 0.043646 -0.049374
v -0.098445 0.043479 -0.049601
v -0.097328 0.079757 -0.058809
v -0.094944 0.032333 0.000564
v -0.097342 0.037156 -0.044438
v -0.098045 0.087832 -0.060990
v -0.098458 0.063968 -0.060117
v -0.098142 0.064248 -0.058714
v -0.098486 0.064108 -0.059368
v -0.097228 0.071997 -0.058725
v -0.097505 0.042079 -0.051016
v -0.097987 0.042338 -0.050785
v -0.097716 0.087789 -0.059961
v -0.097657 0.079932 -0.062246
v -0.097039 0.079973 -0.061501
v -0.097548 0.064335 -0.058366
v -0.094197 0.034673 -0.001024
v -0.097821 0.038148 -0.044007
v -0.097538 0.043499 -0.049456
v -0.096893 0.042022 -0.050996
v -0.098122 0.056643 -0.057323
v -0.097941 0.056850 -0.056754
v -0.098008 0.063865 -0.060720
v -0.098062 0.049471 -0.054263
v -0.098030 0.056431 -0.057911
v -0.097662 0.056272 -0.058369
v -0.097512 0.037662 -0.044196
v -0.097960 0.049740 -0.053734
v -0.093721 0.032812 -0.000534
v -0.094272 0.032487 0.000014
v -0.097935 0.049208 -0.054776
v -0.097589 0.048992 -0.055196
v -0.096635 0.042914 -0.049964
v -0.097037 0.043230 -0.049672
v -0.097550 0.049893 -0.053405
v -0.096937 0.049851 -0.053461
v -0.097284 0.063844 -0.060995
v -0.097065 0.048880 -0.055402
v -0.096634 0.079974 -0.060547
v -0.096669 0.079910 -0.059563
v -0.097445 0.056965 -0.056419
v -0.096843 0.071891 -0.062137
v -0.096549 0.063892 -0.060906
v -0.097081 0.056191 -0.058606
v -0.096810 0.056963 -0.056429
v -0.096885 0.064364 -0.058338
v -0.096338 0.042554 -0.050315
v -0.093416 0.033434 -0.001041
v -0.093595 0.034198 -0.001262
v -0.096360 0.042198 -0.050728
v -0.096403 0.072043 -0.059063
v -0.095841 0.072071 -0.059775
v -0.096225 0.064339 -0.058603
v -0.096470 0.056207 -0.058563
v -0.096518 0.048880 -0.055379
v -0.096401 0.049702 -0.053731
v -0.096239 0.071970 -0.061496
v -0.095848 0.072039 -0.060687
v -0.096251 0.056873 -0.056701
v -0.096031 0.049015 -0.055083
v -0.096004 0.049498 -0.054118
v -0.095783 0.049246 -0.054600
v -0.095957 0.056327 -0.058226
v -0.095969 0.064001 -0.060450
v -0.095706 0.064260 -0.059140
v -0.091921 0.037026 0.006766
v -0.091761 0.036134 0.007083
v -0.095828 0.056714 -0.057142
v -0.091104 0.038205 0.005392
v -0.091659 0.037811 0.006114
v -0.095597 0.064129 -0.059827
v -0.095700 0.056513 -0.057691
v -0.090335 0.035459 0.006208
v -0.091105 0.035511 0.006836
v -0.090351 0.038247 0.004687
v -0.089586 0.035593 0.005480
v -0.088960 0.037203 0.003981
v -0.089536 0.037921 0.004197
v -0.088770 0.036374 0.004234
v -0.089005 0.035879 0.004765
v -0.087453 0.037993 0.012177
v -0.086635 0.039900 0.011181
v -0.087229 0.039010 0.011817
v -0.085840 0.040516 0.010380
v -0.086798 0.037432 0.011681
v -0.084885 0.040666 0.009568
v -0.084966 0.037691 0.010143
v -0.085885 0.037511 0.010889
v -0.083144 0.039369 0.008742
v -0.083856 0.040230 0.009044
v -0.083994 0.037899 0.009497
v -0.083094 0.038327 0.009153
v -0.084082 0.039278 0.015705
v -0.083781 0.037890 0.015497
v -0.084727 0.038410 0.016019
v -0.082953 0.039928 0.015110
v -0.082457 0.037889 0.014780
v -0.081738 0.040588 0.014392
v -0.080067 0.038108 0.014104
v -0.081127 0.037997 0.014185
v -0.080480 0.040698 0.012186
v -0.080628 0.040978 0.013517
v -0.083180 0.038107 0.019612
v -0.082181 0.038965 0.019343
v -0.080321 0.039296 0.018539
v -0.078725 0.038745 0.013873
v -0.079281 0.039797 0.012437
v -0.081747 0.037443 0.019000
v -0.080051 0.037343 0.018219
v -0.082269 0.037506 0.022997
v -0.078658 0.039293 0.016755
v -0.080931 0.038426 0.022965
v -0.081851 0.036951 0.025691
v -0.080228 0.037911 0.025605
v -0.080149 0.035741 0.025091
v -0.080453 0.036488 0.022474
v -0.078825 0.038219 0.022732
v -0.080047 0.034998 0.027868
v -0.081607 0.036411 0.028193
v -0.079893 0.036965 0.028302
v -0.080351 0.034763 0.030137
v -0.081328 0.035892 0.030308
v -0.080020 0.036127 0.030452
v -0.081133 0.035596 0.031827
v -0.080545 0.034813 0.031638
v -0.079836 0.034651 0.032253
v -0.080263 0.035493 0.031805
v -0.078675 0.038433 0.016253
v -0.079118 0.037993 0.017944
v -0.078105 0.037256 0.024763
v -0.078455 0.036247 0.022078
v -0.078984 0.035152 0.030405
v -0.078350 0.038276 0.021184
v -0.078027 0.035892 0.028066
usemtl Fibularis_longus_muscle_rMaterial0
f 1 2 3
f 4 2 1
f 5 2 6
f 4 6 2
f 5 3 2
f 1 7 8
f 1 8 9
f 1 10 7
f 1 3 10
f 1 9 11
f 4 1 11
f 7 12 8
f 13 8 12
f 13 9 8
f 5 6 14
f 14 6 15
f 4 15 6
f 7 16 12
f 17 12 16
f 17 13 12
f 7 18 16
f 7 10 19
f 7 20 18
f 7 19 20
f 17 16 21
f 22 17 21
f 22 23 17
f 17 23 24
f 17 25 13
f 17 24 25
f 14 26 27
f 14 28 26
f 5 14 29
f 14 27 29
f 14 15 30
f 14 30 28
f 18 21 16
f 31 10 3
f 31 19 10
f 22 21 32
f 18 32 21
f 22 33 23
f 22 34 33
f 35 34 22
f 22 32 36
f 35 22 36
f 37 23 33
f 37 24 23
f 38 26 39
f 28 39 26
f 38 27 26
f 31 3 5
f 40 33 34
f 40 34 41
f 35 41 34
f 37 33 40
f 5 29 42
f 31 5 43
f 5 42 43
f 44 38 39
f 44 39 45
f 28 45 39
f 13 25 46
f 47 25 24
f 47 46 25
f 13 48 9
f 13 46 49
f 13 49 48
f 48 11 9
f 4 11 50
f 48 50 11
f 47 24 37
f 51 29 27
f 51 42 29
f 52 15 4
f 4 50 53
f 52 4 53
f 40 41 54
f 54 41 55
f 35 55 41
f 52 30 15
f 37 40 56
f 40 54 57
f 40 57 58
f 40 58 56
f 38 51 27
f 44 59 38
f 44 60 61
f 62 60 44
f 44 61 59
f 44 45 63
f 62 44 63
f 28 30 64
f 52 64 30
f 37 56 65
f 47 37 66
f 37 65 66
f 38 59 67
f 38 68 51
f 38 67 68
f 28 69 45
f 28 64 70
f 28 70 69
f 54 71 57
f 54 72 71
f 54 73 72
f 54 55 74
f 54 74 73
f 75 58 57
f 75 57 71
f 76 61 60
f 76 60 77
f 62 77 60
f 78 56 58
f 78 65 56
f 79 59 61
f 79 67 59
f 80 36 32
f 35 36 81
f 80 81 36
f 18 80 32
f 18 20 82
f 18 83 80
f 18 82 83
f 79 61 76
f 84 20 19
f 84 82 20
f 85 55 35
f 35 81 86
f 85 35 86
f 69 63 45
f 75 78 58
f 87 71 72
f 87 72 88
f 73 88 72
f 87 75 71
f 84 19 31
f 89 46 47
f 89 49 46
f 47 66 90
f 47 90 91
f 89 47 91
f 76 77 92
f 92 77 93
f 62 93 77
f 76 92 94
f 76 94 95
f 79 76 96
f 76 95 96
f 85 74 55
f 31 43 97
f 31 97 98
f 84 31 98
f 99 87 88
f 99 88 100
f 100 88 101
f 73 101 88
f 48 49 102
f 89 102 49
f 103 66 65
f 103 90 66
f 104 43 42
f 104 97 43
f 62 63 105
f 69 105 63
f 51 104 42
f 87 106 75
f 107 87 99
f 107 106 87
f 73 74 108
f 85 108 74
f 92 109 94
f 110 94 109
f 110 95 94
f 75 106 111
f 75 112 78
f 75 111 112
f 51 68 113
f 51 114 104
f 51 113 114
f 92 115 109
f 92 116 115
f 92 93 117
f 92 117 116
f 78 103 65
f 99 100 118
f 100 119 118
f 100 101 120
f 100 120 119
f 99 118 121
f 107 99 121
f 122 68 67
f 122 113 68
f 48 123 50
f 48 102 124
f 48 124 123
f 107 111 106
f 73 125 101
f 73 108 126
f 73 126 125
f 127 93 62
f 62 105 128
f 127 62 128
f 129 121 118
f 130 118 119
f 129 118 131
f 130 131 118
f 132 109 115
f 132 110 109
f 122 67 79
f 107 121 133
f 129 133 121
f 78 112 134
f 78 135 103
f 78 134 135
f 79 96 136
f 122 79 137
f 79 136 137
f 138 96 95
f 138 136 96
f 125 120 101
f 139 107 133
f 107 140 111
f 139 140 107
f 132 115 141
f 116 141 115
f 110 138 95
f 123 53 50
f 120 142 119
f 130 119 143
f 143 119 142
f 120 144 142
f 125 144 120
f 127 117 93
f 129 145 133
f 139 133 145
f 112 111 146
f 112 146 134
f 147 129 131
f 147 131 130
f 132 148 110
f 149 132 141
f 132 150 148
f 149 151 132
f 132 151 150
f 110 148 152
f 110 153 138
f 110 152 153
f 154 145 129
f 129 147 155
f 154 129 156
f 129 155 156
f 130 143 147
f 52 53 157
f 123 157 53
f 158 86 81
f 80 158 81
f 116 117 159
f 127 159 117
f 85 86 160
f 158 160 86
f 161 111 140
f 161 146 111
f 116 162 141
f 149 141 162
f 104 114 163
f 104 164 97
f 104 163 165
f 104 165 164
f 166 108 85
f 85 160 167
f 166 85 167
f 139 145 168
f 169 168 145
f 169 145 154
f 80 83 170
f 80 171 158
f 80 170 171
f 172 91 90
f 89 91 173
f 172 173 91
f 174 114 113
f 174 163 114
f 161 140 139
f 175 148 150
f 175 152 148
f 164 98 97
f 176 64 52
f 52 157 177
f 176 52 177
f 143 178 147
f 179 147 178
f 179 155 147
f 176 70 64
f 103 172 90
f 166 126 108
f 149 180 151
f 181 150 151
f 181 151 180
f 174 113 122
f 69 70 182
f 176 182 70
f 183 102 89
f 89 173 184
f 183 89 184
f 116 185 162
f 116 159 186
f 116 186 185
f 139 168 187
f 139 187 188
f 161 139 188
f 84 98 189
f 164 189 98
f 190 83 82
f 190 170 83
f 149 191 180
f 149 162 192
f 193 191 149
f 193 149 192
f 194 154 156
f 195 156 155
f 195 196 156
f 194 156 196
f 175 150 181
f 143 142 197
f 143 198 178
f 143 199 198
f 143 200 199
f 143 197 201
f 143 201 200
f 202 142 144
f 202 197 142
f 122 137 203
f 174 122 204
f 122 203 204
f 103 135 205
f 103 206 172
f 103 205 206
f 207 137 136
f 207 203 137
f 190 82 84
f 187 178 198
f 187 198 188
f 161 188 198
f 161 198 199
f 84 189 208
f 190 84 208
f 138 207 136
f 69 209 105
f 69 182 210
f 69 210 209
f 125 126 211
f 166 211 126
f 125 212 144
f 202 144 212
f 187 168 169
f 169 154 194
f 187 179 178
f 179 195 155
f 181 180 213
f 213 180 191
f 185 192 162
f 138 153 214
f 138 215 207
f 138 214 215
f 125 216 212
f 125 211 216
f 175 181 217
f 181 213 218
f 181 218 219
f 181 219 217
f 213 191 220
f 193 220 191
f 183 124 102
f 205 135 134
f 221 153 152
f 221 214 153
f 221 152 175
f 222 161 199
f 223 199 200
f 223 222 199
f 224 196 195
f 194 196 225
f 224 225 196
f 193 192 226
f 185 226 192
f 209 128 105
f 187 227 179
f 187 169 227
f 179 228 195
f 224 195 228
f 222 146 161
f 222 134 146
f 222 229 134
f 205 134 229
f 230 179 227
f 230 228 179
f 231 165 163
f 231 163 174
f 164 165 232
f 231 232 165
f 202 233 197
f 233 201 197
f 174 204 234
f 231 174 235
f 174 234 235
f 169 194 236
f 194 225 237
f 194 237 238
f 194 238 236
f 175 217 239
f 221 175 240
f 175 239 240
f 241 200 201
f 241 223 200
f 213 242 218
f 213 220 243
f 213 244 242
f 213 243 244
f 169 230 227
f 169 236 230
f 245 204 203
f 245 234 204
f 246 218 242
f 246 219 218
f 207 245 203
f 127 128 247
f 209 247 128
f 164 248 189
f 164 232 249
f 164 249 248
f 224 250 225
f 224 228 251
f 224 251 250
f 193 252 220
f 243 220 252
f 253 252 193
f 193 226 254
f 253 193 254
f 255 167 160
f 158 255 160
f 207 215 256
f 207 257 245
f 207 256 257
f 123 124 258
f 183 258 124
f 259 166 167
f 259 167 260
f 255 260 167
f 202 212 261
f 202 261 233
f 158 171 262
f 158 263 255
f 158 262 263
f 264 237 225
f 264 225 250
f 230 251 228
f 265 159 127
f 127 247 266
f 265 127 266
f 265 186 159
f 267 217 219
f 267 239 217
f 231 235 268
f 269 235 234
f 269 268 235
f 185 186 270
f 265 270 186
f 271 215 214
f 271 256 215
f 272 232 231
f 231 268 273
f 272 231 273
f 264 238 237
f 259 211 166
f 245 269 234
f 223 229 222
f 248 208 189
f 230 236 238
f 274 242 244
f 243 275 244
f 274 244 275
f 274 246 242
f 243 252 276
f 253 276 252
f 277 171 170
f 277 262 171
f 185 278 226
f 185 270 279
f 185 279 278
f 123 280 157
f 123 258 281
f 123 281 280
f 245 257 282
f 245 283 269
f 245 282 283
f 230 284 251
f 230 238 284
f 264 250 251
f 264 251 284
f 243 276 285
f 243 286 275
f 243 285 286
f 272 249 232
f 271 214 221
f 264 284 238
f 246 267 219
f 287 205 229
f 223 288 229
f 287 229 288
f 216 261 212
f 278 254 226
f 172 289 173
f 172 206 290
f 172 290 291
f 172 291 289
f 233 261 201
f 292 257 256
f 292 282 257
f 289 184 173
f 221 240 293
f 271 221 294
f 221 293 294
f 287 206 205
f 295 201 261
f 295 241 201
f 287 290 206
f 277 170 190
f 216 211 296
f 259 296 211
f 280 177 157
f 241 288 223
f 190 208 297
f 248 297 208
f 253 254 298
f 278 298 254
f 176 177 299
f 300 182 176
f 300 176 301
f 176 299 301
f 277 190 302
f 190 297 302
f 303 273 268
f 269 303 268
f 272 273 304
f 303 304 273
f 253 305 276
f 285 276 305
f 272 306 249
f 248 249 306
f 280 299 177
f 216 295 261
f 216 296 295
f 292 256 271
f 307 240 239
f 307 293 240
f 300 210 182
f 308 274 275
f 274 309 246
f 308 310 274
f 274 310 311
f 274 311 309
f 183 184 312
f 289 312 184
f 308 275 286
f 269 283 313
f 269 314 303
f 269 313 314
f 315 259 260
f 255 315 260
f 246 316 267
f 246 309 317
f 246 317 316
f 209 210 318
f 300 318 210
f 259 319 320
f 315 319 259
f 259 320 296
f 285 321 286
f 308 286 321
f 322 305 253
f 253 298 323
f 322 253 323
f 255 263 324
f 255 325 315
f 255 324 325
f 287 288 320
f 241 320 288
f 326 306 272
f 272 304 327
f 326 272 327
f 271 294 328
f 292 271 329
f 271 328 329
f 267 307 239
f 330 283 282
f 330 313 283
f 287 320 319
f 315 287 319
f 315 290 287
f 331 263 262
f 331 324 263
f 248 306 332
f 248 333 297
f 248 332 333
f 334 258 183
f 183 312 335
f 334 183 335
f 209 336 247
f 209 318 337
f 209 337 336
f 338 294 293
f 338 328 294
f 285 305 339
f 285 340 321
f 285 339 341
f 285 341 340
f 331 262 277
f 315 291 290
f 295 296 320
f 322 339 305
f 326 332 306
f 267 342 307
f 267 316 343
f 267 343 342
f 295 320 241
f 277 302 344
f 331 277 345
f 277 344 345
f 330 282 292
f 315 325 291
f 289 291 325
f 333 302 297
f 333 344 302
f 307 338 293
f 303 300 304
f 300 327 304
f 336 266 247
f 308 346 310
f 347 311 310
f 347 310 346
f 348 309 311
f 348 317 309
f 349 308 321
f 308 350 346
f 349 350 308
f 334 281 258
f 351 270 265
f 351 279 270
f 303 318 300
f 303 337 318
f 303 314 337
f 265 266 352
f 265 352 353
f 351 265 353
f 289 324 331
f 289 331 312
f 331 345 335
f 331 335 312
f 333 332 354
f 326 354 332
f 289 325 324
f 278 279 355
f 351 355 279
f 336 352 266
f 300 301 327
f 326 327 301
f 333 334 344
f 333 356 334
f 333 354 356
f 334 345 344
f 334 335 345
f 349 321 340
f 326 301 299
f 280 281 356
f 334 356 281
f 292 329 357
f 330 292 358
f 292 357 358
f 278 359 298
f 278 355 360
f 278 360 359
f 307 342 361
f 307 362 338
f 307 361 362
f 280 326 299
f 280 354 326
f 280 356 354
f 336 314 313
f 336 337 314
f 322 363 339
f 341 339 363
f 359 323 298
f 364 329 328
f 364 357 329
f 365 316 317
f 365 343 316
f 349 340 366
f 341 366 340
f 348 311 347
f 338 364 328
f 367 346 350
f 349 368 350
f 367 350 368
f 336 313 330
f 369 342 343
f 369 361 342
f 322 323 370
f 359 370 323
f 347 346 367
f 338 362 371
f 338 372 364
f 338 371 372
f 373 349 366
f 349 374 368
f 373 374 349
f 365 317 348
f 375 362 361
f 375 371 362
f 336 330 352
f 330 353 352
f 330 358 353
f 376 363 322
f 322 370 377
f 376 322 377
f 341 378 366
f 341 363 379
f 341 380 378
f 341 379 380
f 373 366 378
f 369 343 365
f 348 347 381
f 347 367 382
f 347 382 383
f 347 383 381
f 351 353 358
f 351 358 357
f 375 361 369
f 364 351 357
f 384 368 374
f 367 368 384
f 364 355 351
f 365 348 385
f 348 381 386
f 348 386 385
f 364 360 355
f 364 372 360
f 376 379 363
f 373 387 374
f 384 374 387
f 359 360 372
f 359 372 371
f 367 388 382
f 367 384 389
f 367 389 388
f 373 378 390
f 380 390 378
f 369 365 391
f 365 385 392
f 365 392 391
f 359 371 375
f 359 375 370
f 375 369 393
f 369 391 394
f 369 394 393
f 373 395 387
f 396 373 390
f 396 395 373
f 375 377 370
f 375 393 377
f 397 383 382
f 397 382 388
f 380 379 398
f 376 398 379
f 399 381 383
f 399 386 381
f 384 387 400
f 384 401 389
f 384 400 402
f 384 402 401
f 403 392 385
f 403 385 386
f 376 377 393
f 400 387 395
f 404 394 391
f 404 391 392
f 405 388 389
f 405 389 401
f 376 393 394
f 380 406 390
f 396 390 406
f 380 398 407
f 380 408 406
f 380 407 408
f 404 376 394
f 404 398 376
f 400 395 409
f 396 409 395
f 403 404 392
f 397 399 383
f 399 403 386
f 400 410 402
f 411 401 402
f 411 402 410
f 404 407 398
f 405 397 388
f 403 412 404
f 404 412 407
f 400 409 413
f 400 414 410
f 400 413 414
f 411 405 401
f 396 406 415
f 396 416 409
f 417 416 396
f 417 396 415
f 408 415 406
f 399 418 403
f 403 419 412
f 403 418 419
f 408 407 412
f 397 420 399
f 399 421 418
f 399 420 421
f 413 409 416
f 408 412 419
f 405 422 397
f 397 423 420
f 397 422 423
f 411 424 405
f 405 424 425
f 405 425 422
f 426 410 414
f 426 411 410
f 427 419 418
f 427 418 421
f 408 428 415
f 408 419 427
f 408 427 428
f 413 429 414
f 426 414 429
f 411 430 424
f 426 431 411
f 411 431 430
f 413 416 432
f 417 432 416
f 417 415 428
f 433 421 420
f 433 420 423
f 413 434 429
f 413 432 435
f 413 435 434
f 436 425 424
f 436 424 430
f 437 423 422
f 437 422 425
f 427 421 433
f 438 426 429
f 426 439 431
f 438 440 426
f 426 440 439
f 417 428 441
f 427 441 428
f 438 429 434
f 417 442 432
f 443 417 441
f 443 442 417
f 427 444 441
f 427 433 444
f 435 432 442
f 445 430 431
f 445 431 439
f 433 423 437
f 438 434 446
f 435 446 434
f 437 425 436
f 436 430 445
f 443 441 444
f 433 447 444
f 433 437 448
f 433 448 447
f 438 449 440
f 450 439 440
f 450 440 449
f 435 442 451
f 443 451 442
f 452 438 446
f 438 453 449
f 452 453 438
f 443 444 447
f 435 454 446
f 435 451 455
f 435 455 454
f 437 436 456
f 437 457 448
f 437 456 457
f 445 439 450
f 452 446 454
f 436 445 458
f 436 459 456
f 436 458 459
f 460 447 448
f 460 448 457
f 460 443 447
f 443 461 451
f 460 461 443
f 445 450 462
f 445 463 458
f 445 462 463
f 464 449 453
f 450 449 464
f 455 451 461
f 465 457 456
f 465 456 459
f 452 466 453
f 464 453 466
f 452 454 467
f 455 467 454
f 450 468 462
f 450 464 469
f 450 469 468
f 465 460 457
f 470 459 458
f 470 458 463
f 471 472 473
f 474 473 472
f 475 472 471
f 475 476 472
f 474 472 476
f 460 477 461
f 455 461 477
f 452 478 466
f 479 452 467
f 479 478 452
f 471 473 480
f 481 480 473
f 481 473 474
f 471 480 482
f 481 483 480
f 482 480 483
f 475 471 484
f 471 485 484
f 471 482 486
f 471 486 485
f 487 463 462
f 487 462 468
f 465 488 460
f 460 488 477
f 475 484 489
f 475 489 490
f 491 475 490
f 475 492 476
f 491 492 475
f 493 483 481
f 493 481 494
f 481 495 494
f 481 474 496
f 481 496 495
f 464 466 497
f 464 498 469
f 464 497 499
f 464 499 498
f 500 489 484
f 500 484 485
f 455 501 467
f 455 477 502
f 455 502 501
f 470 465 459
f 493 503 483
f 482 483 503
f 497 466 478
f 479 467 501
f 504 468 469
f 504 469 498
f 505 490 489
f 491 490 506
f 505 506 490
f 465 507 488
f 470 508 465
f 465 508 507
f 493 494 509
f 510 509 494
f 510 494 495
f 502 477 488
f 497 478 511
f 479 511 478
f 487 470 463
f 500 505 489
f 474 476 512
f 474 513 496
f 474 512 514
f 474 514 513
f 512 476 492
f 493 509 515
f 516 493 515
f 493 517 503
f 516 517 493
f 502 488 507
f 504 487 468
f 491 518 492
f 512 492 518
f 519 495 496
f 519 496 513
f 491 506 520
f 505 521 506
f 521 520 506
f 497 522 499
f 523 498 499
f 523 499 522
f 479 501 524
f 502 524 501
f 497 511 525
f 497 526 522
f 497 525 526
f 527 515 509
f 510 527 509
f 470 528 508
f 487 529 470
f 470 529 528
f 530 491 520
f 491 531 518
f 530 531 491
f 479 532 511
f 533 479 524
f 533 532 479
f 505 534 521
f 505 535 534
f 500 536 505
f 505 536 535
f 523 504 498
f 519 510 495
f 527 537 515
f 516 515 537
f 538 507 508
f 538 508 528
f 525 511 532
f 521 539 520
f 521 534 540
f 521 540 541
f 521 541 542
f 521 542 539
f 512 543 514
f 512 518 544
f 512 544 545
f 512 545 543
f 482 546 486
f 482 503 547
f 482 548 546
f 482 547 548
f 510 549 527
f 527 550 537
f 527 551 550
f 527 552 551
f 527 549 552
f 553 513 514
f 553 514 543
f 504 554 487
f 487 555 529
f 487 554 555
f 502 507 538
f 502 556 524
f 502 538 556
f 557 485 486
f 557 486 546
f 530 520 539
f 544 518 531
f 519 558 510
f 510 559 549
f 510 558 559
f 560 540 534
f 560 534 535
f 553 519 513
f 523 561 504
f 504 562 554
f 504 561 562
f 550 563 537
f 516 537 563
f 550 551 541
f 542 541 551
f 550 541 540
f 542 551 552
f 557 500 485
f 530 564 531
f 544 531 564
f 565 522 526
f 565 523 522
f 533 524 556
f 547 503 517
f 525 566 526
f 565 526 566
f 542 567 539
f 530 539 567
f 525 532 568
f 533 568 532
f 550 540 560
f 519 569 558
f 553 570 519
f 519 570 569
f 565 571 523
f 523 572 561
f 523 571 572
f 550 573 563
f 550 560 573
f 574 552 549
f 574 549 559
f 575 528 529
f 575 529 555
f 542 552 574
f 542 576 567
f 542 574 576
f 577 530 567
f 530 578 564
f 577 578 530
f 500 579 536
f 557 580 500
f 500 580 579
f 525 581 566
f 525 568 582
f 525 582 581
f 544 583 545
f 584 543 545
f 584 545 583
f 544 564 585
f 544 586 583
f 544 585 586
f 538 528 575
f 584 553 543
f 587 555 554
f 587 554 562
f 516 588 517
f 547 517 588
f 589 559 558
f 589 558 569
f 538 590 556
f 533 556 590
f 591 565 566
f 565 592 571
f 591 593 565
f 565 593 592
f 577 567 576
f 594 562 561
f 594 561 572
f 553 595 570
f 584 596 553
f 553 596 595
f 585 564 578
f 591 566 581
f 538 597 590
f 538 575 597
f 533 598 568
f 599 533 590
f 599 598 533
f 600 571 592
f 600 572 571
f 601 535 536
f 601 536 579
f 574 559 589
f 574 602 576
f 577 576 602
f 582 568 598
f 577 603 578
f 585 578 603
f 604 569 570
f 604 570 595
f 591 605 593
f 606 592 593
f 606 593 605
f 591 581 607
f 582 607 581
f 575 555 587
f 608 583 586
f 608 584 583
f 591 609 605
f 610 609 591
f 610 591 607
f 574 611 602
f 574 589 611
f 585 612 586
f 608 586 612
f 613 516 563
f 516 614 588
f 613 614 516
f 608 615 584
f 584 616 596
f 584 615 616
f 617 577 602
f 577 618 603
f 617 618 577
f 600 592 606
f 608 605 609
f 606 605 608
f 587 562 594
f 585 619 612
f 585 603 620
f 585 620 619
f 608 609 615
f 606 608 612
f 594 572 600
f 599 590 597
f 610 615 609
f 582 621 607
f 610 607 621
f 622 596 616
f 622 595 596
f 606 612 619
f 575 623 597
f 575 587 624
f 575 624 623
f 560 535 601
f 610 616 615
f 606 619 625
f 600 606 625
f 589 569 604
f 617 602 611
f 613 563 573
f 582 598 626
f 582 627 621
f 582 626 627
f 599 597 623
f 622 616 610
f 610 621 628
f 622 610 628
f 599 626 598
f 620 603 618
f 620 625 619
f 600 625 629
f 594 600 630
f 600 629 630
f 589 631 611
f 617 611 631
f 604 595 622
f 620 629 625
f 560 632 573
f 560 601 633
f 560 633 632
f 613 573 632
f 589 604 634
f 589 634 631
f 587 594 635
f 587 636 624
f 587 635 636
f 627 628 621
f 594 630 637
f 594 637 635
f 622 628 638
f 627 638 628
f 604 622 639
f 622 638 639
f 620 618 640
f 617 640 618
f 599 641 626
f 642 599 623
f 642 641 599
f 620 643 629
f 620 640 643
f 604 639 644
f 604 644 634
f 643 630 629
f 643 637 630
f 627 626 641
f 642 623 624
f 642 624 636
f 617 645 640
f 646 617 631
f 646 645 617
f 627 647 638
f 627 641 648
f 627 648 647
f 647 639 638
f 647 644 639
f 643 640 645
f 649 635 637
f 649 636 635
f 650 546 548
f 650 557 546
f 646 631 634
f 646 634 644
f 547 651 548
f 650 548 651
f 643 649 637
f 643 645 652
f 643 652 649
f 642 648 641
f 557 653 580
f 650 654 557
f 557 654 653
f 647 646 644
f 646 652 645
f 647 648 655
f 642 655 648
f 647 656 646
f 647 655 656
f 649 642 636
f 649 655 642
f 646 656 652
f 649 652 656
f 547 588 657
f 547 658 651
f 547 657 658
f 649 656 655
f 659 579 580
f 659 580 653
f 657 588 614
f 601 579 659
f 613 660 614
f 657 614 660
f 601 661 633
f 601 659 662
f 601 662 661
f 663 613 632
f 613 664 660
f 663 664 613
f 663 632 633
f 663 633 661
f 665 650 651
f 650 666 654
f 665 667 650
f 650 667 666
f 665 651 658
f 668 653 654
f 668 654 666
f 657 669 658
f 665 658 669
f 670 659 653
f 670 653 668
f 662 659 670
f 657 660 671
f 657 672 669
f 657 671 672
f 671 660 664
f 662 673 661
f 662 670 674
f 662 674 673
f 675 664 663
f 671 664 675
f 663 661 673
f 675 663 676
f 663 673 676
f 665 677 667
f 678 665 669
f 665 679 677
f 678 679 665
f 666 667 677
f 678 669 672
f 668 666 680
f 666 677 680
f 671 681 672
f 678 672 681
f 670 668 682
f 668 680 682
f 671 675 683
f 671 684 681
f 671 683 684
f 670 685 674
f 670 682 686
f 670 686 685
f 677 679 687
f 678 687 679
f 677 687 688
f 677 689 680
f 677 688 689
f 675 676 690
f 675 690 683
f 691 673 674
f 691 674 685
f 678 692 687
f 693 678 681
f 693 692 678
f 688 687 694
f 694 687 692
f 691 676 673
f 691 690 676
f 695 682 680
f 695 680 689
f 693 681 684
f 688 694 696
f 694 697 698
f 694 699 697
f 694 692 700
f 694 698 696
f 694 700 699
f 688 696 701
f 688 701 689
f 697 702 703
f 697 703 704
f 697 704 698
f 697 699 702
f 693 700 692
f 695 686 682
f 703 705 706
f 703 706 707
f 703 702 705
f 703 707 704
f 708 706 705
f 708 707 706
f 708 705 709
f 710 708 709
f 708 711 707
f 710 711 708
f 712 684 683
f 693 684 713
f 712 713 684
f 714 696 698
f 714 701 696
f 690 685 686
f 695 690 686
f 710 709 705
f 690 691 685
f 714 699 700
f 693 715 700
f 714 700 715
f 702 716 705
f 710 705 716
f 695 689 713
f 689 717 713
f 689 701 717
f 710 707 711
f 714 698 704
f 714 702 699
f 695 683 690
f 695 712 683
f 702 718 716
f 714 718 702
f 717 693 713
f 717 715 693
f 718 704 707
f 710 716 707
f 718 707 716
f 714 704 718
f 695 713 712
f 714 717 701
f 714 715 717
