# 
# Wavefront OBJ file
# Created with Kaydara FBX
# 
mtllib c:\users\tjvan\onedrive\documenten\fontys\minor\nx\.mtlmodels\fibularis_tertius_muscle.r.obj

g Fibularis_tertius_muscle_r
v -0.117980 0.032765 0.015565
v -0.118082 0.032974 0.015427
v -0.117964 0.033377 0.013800
v -0.117798 0.033029 0.016118
v -0.117955 0.033239 0.015771
v -0.117754 0.033939 0.014124
v -0.117562 0.033176 0.013848
v -0.117121 0.033689 0.014249
v -0.117717 0.033693 0.015740
v -0.117456 0.034494 0.014525
v -0.117741 0.034338 0.010237
v -0.116945 0.033957 0.010213
v -0.117399 0.033713 0.016045
v -0.116705 0.034434 0.014464
v -0.117288 0.035483 0.010706
v -0.117373 0.035004 0.006978
v -0.116651 0.037270 0.007573
v -0.116110 0.035040 0.010637
v -0.116989 0.034961 0.014881
v -0.116872 0.036431 0.011437
v -0.116286 0.037292 0.012241
v -0.116352 0.035272 0.014350
v -0.117095 0.034984 0.004808
v -0.116394 0.034480 0.006811
v -0.115629 0.035980 0.011392
v -0.116533 0.037089 0.005190
v -0.116544 0.034535 0.002757
v -0.115950 0.034919 0.003642
v -0.116197 0.034558 0.004790
v -0.115373 0.036992 0.012241
v -0.116287 0.038546 0.008978
v -0.115659 0.040330 0.005098
v -0.115586 0.041374 0.007638
v -0.115689 0.040724 0.006421
v -0.116052 0.037218 0.003491
v -0.115048 0.036847 0.003630
v -0.115191 0.040271 0.003663
v -0.114994 0.036801 0.007183
v -0.115696 0.039573 0.010256
v -0.114428 0.039116 0.010071
v -0.115013 0.036620 0.005007
v -0.115052 0.042041 0.008808
v -0.113737 0.041602 0.008595
v -0.115224 0.044566 0.005309
v -0.115003 0.044931 0.006343
v -0.115220 0.044194 0.004287
v -0.114538 0.037996 0.008595
v -0.114713 0.047961 0.003140
v -0.114725 0.043869 0.003213
v -0.114365 0.047640 0.002350
v -0.114686 0.048308 0.004055
v -0.113849 0.039958 0.003560
v -0.113481 0.043722 0.003058
v -0.113489 0.039873 0.004874
v -0.114312 0.045227 0.007221
v -0.113489 0.040785 0.007294
v -0.113451 0.040217 0.006096
v -0.114424 0.048616 0.004915
v -0.113709 0.048802 0.005616
v -0.114218 0.051609 0.001694
v -0.114126 0.051969 0.002499
v -0.113822 0.052258 0.003250
v -0.113926 0.051229 0.000953
v -0.113133 0.051100 0.000945
v -0.113457 0.047510 0.002267
v -0.113280 0.044969 0.006991
v -0.113190 0.055481 0.000710
v -0.113121 0.054817 -0.000648
v -0.113339 0.055188 0.000011
v -0.112451 0.054683 -0.000541
v -0.113084 0.052384 0.003811
v -0.112875 0.055709 0.001373
v -0.112967 0.044540 0.006039
v -0.112722 0.048644 0.005575
v -0.112201 0.052266 0.003872
v -0.112929 0.043893 0.004035
v -0.112855 0.044175 0.004991
v -0.112956 0.047698 0.002979
v -0.112628 0.051308 0.001622
v -0.112039 0.058736 -0.001635
v -0.111800 0.058346 -0.002234
v -0.111590 0.059122 -0.000387
v -0.111894 0.058974 -0.000990
v -0.112308 0.055810 0.001896
v -0.112714 0.047973 0.003828
v -0.112564 0.048290 0.004740
v -0.112352 0.051590 0.002376
v -0.112112 0.051909 0.003168
v -0.112020 0.054846 0.000059
v -0.111769 0.055100 0.000728
v -0.110908 0.058303 -0.001473
v -0.111257 0.058206 -0.002027
v -0.111568 0.055373 0.001423
v -0.111553 0.055677 0.002031
v -0.111132 0.059150 0.000120
v -0.110415 0.062090 -0.003212
v -0.110685 0.058497 -0.000838
v -0.110279 0.062355 -0.002552
v -0.109636 0.061476 -0.003551
v -0.110123 0.061636 -0.003771
v -0.109500 0.062495 -0.001364
v -0.109973 0.062502 -0.001918
v -0.110520 0.058954 0.000305
v -0.110536 0.058720 -0.000206
v -0.109214 0.061518 -0.002993
v -0.108739 0.061884 -0.001704
v -0.108952 0.061684 -0.002360
v -0.108746 0.062163 -0.001128
v -0.108525 0.065504 -0.004221
v -0.108425 0.064671 -0.005631
v -0.108748 0.065231 -0.004950
v -0.107830 0.064493 -0.005326
v -0.108139 0.065655 -0.003552
v -0.106714 0.065249 -0.002732
v -0.107570 0.065639 -0.002967
v -0.106954 0.064691 -0.004018
v -0.107360 0.064570 -0.004678
v -0.106601 0.064869 -0.003298
v -0.107063 0.068316 -0.006753
v -0.106725 0.067728 -0.007457
v -0.106338 0.068725 -0.005296
v -0.106816 0.068618 -0.005972
v -0.105628 0.067697 -0.006400
v -0.106106 0.067588 -0.007089
v -0.105685 0.068678 -0.004712
v -0.105170 0.067813 -0.005717
v -0.105320 0.071395 -0.008546
v -0.104730 0.067962 -0.004999
v -0.105018 0.071656 -0.007771
v -0.104319 0.070665 -0.008837
v -0.104984 0.070845 -0.009194
v -0.104805 0.068318 -0.004448
v -0.103847 0.071691 -0.006521
v -0.104495 0.071737 -0.007096
v -0.103794 0.070738 -0.008162
v -0.103298 0.070830 -0.007487
v -0.103238 0.074719 -0.009504
v -0.103224 0.073972 -0.010888
v -0.103550 0.074483 -0.010263
v -0.102487 0.073737 -0.010554
v -0.103044 0.071389 -0.006241
v -0.102880 0.071009 -0.006742
v -0.102695 0.074774 -0.008856
v -0.101902 0.073756 -0.009926
v -0.101265 0.074469 -0.008003
v -0.102030 0.074718 -0.008308
v -0.101872 0.077617 -0.011913
v -0.101497 0.077109 -0.012540
v -0.101044 0.074063 -0.008503
v -0.101397 0.073840 -0.009263
v -0.101056 0.077943 -0.010525
v -0.101575 0.077862 -0.011170
v -0.100755 0.076920 -0.012180
v -0.102753 0.146915 -0.042449
v -0.103116 0.142956 -0.041557
v -0.103169 0.146955 -0.041803
v -0.102262 0.143055 -0.041014
v -0.102953 0.149768 -0.041843
v -0.102395 0.150633 -0.041819
v -0.102388 0.146988 -0.041458
v -0.102811 0.138899 -0.042228
v -0.103090 0.139030 -0.041103
v -0.102725 0.142896 -0.042353
v -0.102753 0.135110 -0.040572
v -0.101919 0.135353 -0.039647
v -0.102139 0.139199 -0.040378
v -0.102665 0.150632 -0.042433
v -0.102500 0.152181 -0.042157
v -0.102769 0.134890 -0.041844
v -0.101441 0.134882 -0.042629
v -0.101704 0.142933 -0.042678
v -0.101588 0.138929 -0.042623
v -0.102263 0.131139 -0.039878
v -0.102454 0.130837 -0.041261
v -0.101842 0.146925 -0.042761
v -0.101848 0.150663 -0.042701
v -0.101591 0.150675 -0.041856
v -0.101795 0.152285 -0.042608
v -0.102153 0.153437 -0.042098
v -0.101473 0.153507 -0.041995
v -0.101585 0.152275 -0.042019
v -0.101635 0.126874 -0.040473
v -0.101164 0.130779 -0.042565
v -0.101205 0.143141 -0.040818
v -0.101457 0.147004 -0.041454
v -0.101575 0.131541 -0.038731
v -0.101511 0.127393 -0.038967
v -0.100907 0.127945 -0.037679
v -0.100945 0.139343 -0.040005
v -0.101628 0.153514 -0.042433
v -0.101190 0.153515 -0.042560
v -0.100368 0.077875 -0.010002
v -0.100389 0.131950 -0.037962
v -0.100721 0.135571 -0.039098
v -0.099611 0.076953 -0.011017
v -0.100107 0.076878 -0.011635
v -0.100458 0.080888 -0.013516
v -0.099868 0.080289 -0.014216
v -0.100971 0.146935 -0.043017
v -0.101205 0.152286 -0.042778
v -0.101128 0.150613 -0.042906
v -0.100710 0.142983 -0.042947
v -0.100501 0.123885 -0.037560
v -0.100644 0.126500 -0.042142
v -0.099665 0.122803 -0.040331
v -0.100534 0.123288 -0.038929
v -0.100234 0.081187 -0.012723
v -0.099753 0.128463 -0.036808
v -0.100479 0.138988 -0.042889
v -0.100830 0.150623 -0.042017
v -0.100976 0.153506 -0.042094
v -0.100917 0.152274 -0.042152
v -0.099976 0.124512 -0.036358
v -0.100690 0.153513 -0.042649
v -0.100128 0.143180 -0.041122
v -0.100559 0.147015 -0.041651
v -0.099853 0.130917 -0.042726
v -0.100252 0.134967 -0.042876
v -0.099288 0.077186 -0.010271
v -0.099545 0.077598 -0.009755
v -0.100533 0.152283 -0.042898
v -0.100389 0.150584 -0.043051
v -0.098946 0.081206 -0.011562
v -0.099705 0.081295 -0.012047
v -0.099642 0.143039 -0.043180
v -0.099998 0.146986 -0.043217
v -0.100534 0.153505 -0.042350
v -0.100320 0.153511 -0.042642
v -0.099094 0.135677 -0.039471
v -0.099586 0.139403 -0.040313
v -0.100324 0.152273 -0.042496
v -0.099753 0.147036 -0.042134
v -0.100131 0.150592 -0.042389
v -0.098335 0.079988 -0.013419
v -0.099078 0.080106 -0.013861
v -0.098561 0.132118 -0.038481
v -0.100035 0.152281 -0.042889
v -0.099274 0.126876 -0.041871
v -0.099556 0.120488 -0.035862
v -0.099495 0.119863 -0.037109
v -0.099766 0.150604 -0.043000
v -0.099363 0.139063 -0.043070
v -0.099179 0.084197 -0.015089
v -0.099031 0.135125 -0.042740
v -0.099101 0.084604 -0.014196
v -0.099333 0.143177 -0.041809
v -0.098866 0.139342 -0.041208
v -0.099282 0.147054 -0.042880
v -0.097801 0.080044 -0.012817
v -0.098913 0.125048 -0.035546
v -0.099052 0.121095 -0.034842
v -0.098019 0.121597 -0.034171
v -0.098365 0.083527 -0.015854
v -0.097484 0.083282 -0.015646
v -0.098358 0.127392 -0.040850
v -0.098737 0.131217 -0.042051
v -0.097239 0.125147 -0.036183
v -0.097916 0.128625 -0.037377
v -0.098922 0.143129 -0.042721
v -0.098535 0.084740 -0.013475
v -0.098538 0.119494 -0.038274
v -0.098514 0.123163 -0.040149
v -0.097378 0.119676 -0.038454
v -0.098625 0.139216 -0.042339
v -0.098484 0.135557 -0.040533
v -0.098721 0.116520 -0.035224
v -0.098363 0.117708 -0.033157
v -0.098869 0.117123 -0.034065
v -0.098009 0.080817 -0.011535
v -0.097681 0.080402 -0.012047
v -0.098164 0.087964 -0.015760
v -0.097122 0.086783 -0.017443
v -0.098156 0.087435 -0.016751
v -0.096635 0.083123 -0.015258
v -0.097331 0.118172 -0.032599
v -0.098374 0.135362 -0.041734
v -0.097655 0.084619 -0.013041
v -0.096574 0.084098 -0.013293
v -0.096521 0.121652 -0.034768
v -0.098432 0.113815 -0.032084
v -0.097850 0.114393 -0.031250
v -0.098024 0.131556 -0.040955
v -0.097646 0.116149 -0.036306
v -0.098224 0.113180 -0.033240
v -0.096984 0.112804 -0.034261
v -0.097963 0.131880 -0.039661
v -0.097255 0.128352 -0.038597
v -0.097535 0.088183 -0.015030
v -0.097517 0.123747 -0.039384
v -0.098103 0.110573 -0.029984
v -0.097416 0.111111 -0.029252
v -0.096178 0.086537 -0.017362
v -0.096739 0.114813 -0.030838
v -0.097459 0.127886 -0.039890
v -0.096540 0.124313 -0.038607
v -0.097843 0.109918 -0.031125
v -0.097474 0.090639 -0.018534
v -0.096275 0.090053 -0.019184
v -0.097549 0.091239 -0.017543
v -0.096835 0.091509 -0.016873
v -0.097757 0.107335 -0.027894
v -0.095882 0.118142 -0.033210
v -0.096504 0.124830 -0.037344
v -0.097442 0.106672 -0.029023
v -0.096477 0.109531 -0.032086
v -0.096068 0.083644 -0.013769
v -0.096125 0.083249 -0.014588
v -0.097082 0.103431 -0.026949
v -0.096974 0.107834 -0.027229
v -0.097344 0.104087 -0.025862
v -0.096554 0.104556 -0.025204
v -0.096499 0.088114 -0.014607
v -0.096511 0.116254 -0.036546
v -0.097077 0.093757 -0.020616
v -0.097230 0.094419 -0.019609
v -0.096389 0.120210 -0.037837
v -0.096069 0.106274 -0.029920
v -0.095673 0.108111 -0.027018
v -0.096199 0.111483 -0.028925
v -0.095550 0.116739 -0.036015
v -0.097058 0.100834 -0.023838
v -0.096321 0.101274 -0.023158
v -0.096998 0.097586 -0.021787
v -0.096429 0.094736 -0.019013
v -0.095761 0.121336 -0.035816
v -0.096727 0.096973 -0.022741
v -0.095605 0.096480 -0.023469
v -0.095848 0.093194 -0.021328
v -0.096779 0.100209 -0.024848
v -0.095595 0.099770 -0.025596
v -0.095784 0.103013 -0.027772
v -0.096267 0.097969 -0.021147
v -0.095279 0.104772 -0.025000
v -0.095864 0.112885 -0.034460
v -0.095366 0.109632 -0.032180
v -0.095655 0.091486 -0.016603
v -0.095256 0.094777 -0.018820
v -0.094605 0.111391 -0.029467
v -0.095201 0.114754 -0.031403
v -0.095280 0.086450 -0.017039
v -0.094782 0.086678 -0.016345
v -0.095206 0.087589 -0.014881
v -0.094703 0.087117 -0.015474
v -0.095626 0.120801 -0.036989
v -0.095080 0.098055 -0.020956
v -0.095076 0.101425 -0.022955
v -0.095293 0.089847 -0.019215
v -0.094809 0.093028 -0.021427
v -0.094133 0.108011 -0.027461
v -0.094316 0.089749 -0.019056
v -0.094950 0.106333 -0.030009
v -0.095133 0.117830 -0.034120
v -0.094484 0.114384 -0.032267
v -0.094877 0.113298 -0.034040
v -0.094576 0.096346 -0.023618
v -0.094668 0.103013 -0.027883
v -0.094945 0.117316 -0.035158
v -0.094290 0.091082 -0.016915
v -0.094541 0.099709 -0.025715
v -0.094308 0.113864 -0.033229
v -0.093882 0.106568 -0.029809
v -0.094310 0.109917 -0.031956
v -0.093791 0.093022 -0.021291
v -0.093759 0.090064 -0.018356
v -0.093715 0.101211 -0.023344
v -0.093836 0.104621 -0.025405
v -0.093776 0.097794 -0.021306
v -0.093928 0.094470 -0.019158
v -0.093847 0.111017 -0.030261
v -0.093719 0.090596 -0.017507
v -0.093600 0.103226 -0.027651
v -0.093489 0.099826 -0.025552
v -0.093543 0.096365 -0.023529
v -0.093709 0.110458 -0.031210
v -0.093355 0.107644 -0.028175
v -0.093062 0.104247 -0.026073
v -0.093370 0.094021 -0.019780
v -0.093190 0.107070 -0.029110
v -0.092925 0.103695 -0.026984
v -0.092994 0.100814 -0.023990
v -0.093300 0.093438 -0.020629
v -0.093077 0.096803 -0.022819
v -0.093207 0.097372 -0.021935
v -0.092873 0.100252 -0.024896
usemtl Fibularis_tertius_muscle_rMaterial0
f 1 2 3
f 4 2 1
f 4 5 2
f 6 2 5
f 6 3 2
f 1 3 7
f 1 8 4
f 1 7 8
f 9 5 4
f 10 6 5
f 10 5 9
f 6 11 3
f 12 3 11
f 12 7 3
f 9 4 13
f 14 13 4
f 14 4 8
f 6 15 11
f 10 15 6
f 12 11 16
f 17 16 11
f 17 11 15
f 10 9 13
f 18 8 7
f 18 7 12
f 10 13 19
f 10 20 15
f 21 10 19
f 21 20 10
f 22 19 13
f 22 13 14
f 17 23 16
f 24 16 23
f 12 16 24
f 17 15 20
f 25 14 8
f 25 8 18
f 17 26 23
f 27 23 26
f 28 23 27
f 24 23 29
f 28 29 23
f 30 19 22
f 30 21 19
f 18 12 24
f 17 20 31
f 21 31 20
f 25 22 14
f 17 32 26
f 17 31 33
f 17 34 32
f 17 33 34
f 27 26 35
f 27 35 36
f 27 36 28
f 37 35 26
f 37 26 32
f 38 24 29
f 18 24 38
f 25 30 22
f 21 39 31
f 40 39 21
f 40 21 30
f 39 33 31
f 41 29 28
f 38 29 41
f 25 18 38
f 37 36 35
f 41 28 36
f 39 42 33
f 43 42 39
f 43 39 40
f 44 32 34
f 45 34 33
f 45 44 34
f 44 46 32
f 46 37 32
f 40 30 25
f 25 38 47
f 40 25 47
f 42 45 33
f 44 48 46
f 46 49 37
f 50 49 46
f 50 46 48
f 45 51 44
f 44 51 48
f 37 52 36
f 53 37 49
f 53 52 37
f 54 41 36
f 54 36 52
f 42 55 45
f 43 55 42
f 38 41 54
f 38 56 47
f 38 54 57
f 38 57 56
f 45 58 51
f 45 59 58
f 45 55 59
f 53 49 50
f 60 48 51
f 50 48 60
f 58 61 51
f 60 51 61
f 43 40 47
f 43 47 56
f 58 62 61
f 59 62 58
f 50 60 63
f 50 63 64
f 53 50 65
f 50 64 65
f 43 66 55
f 59 55 66
f 60 61 67
f 60 68 63
f 60 67 69
f 60 69 68
f 67 61 62
f 70 64 63
f 70 63 68
f 54 52 53
f 59 71 62
f 67 62 72
f 71 72 62
f 73 43 56
f 73 66 43
f 59 66 74
f 59 75 71
f 59 74 75
f 54 53 76
f 54 77 57
f 54 76 77
f 73 56 57
f 53 65 78
f 53 78 76
f 73 57 77
f 79 65 64
f 79 78 65
f 67 80 69
f 81 68 69
f 81 69 80
f 73 74 66
f 67 72 82
f 67 83 80
f 67 82 83
f 70 79 64
f 81 70 68
f 71 84 72
f 75 84 71
f 85 73 77
f 85 86 73
f 73 86 74
f 85 76 78
f 79 85 78
f 85 77 76
f 82 72 84
f 79 87 85
f 85 88 86
f 85 87 88
f 75 74 86
f 70 89 79
f 79 90 87
f 79 89 90
f 75 86 88
f 70 91 89
f 81 92 70
f 70 92 91
f 93 88 87
f 93 87 90
f 75 94 84
f 82 84 95
f 94 95 84
f 75 88 93
f 75 93 94
f 96 80 83
f 96 81 80
f 97 90 89
f 97 89 91
f 82 98 83
f 96 83 98
f 81 99 92
f 96 100 81
f 81 100 99
f 93 90 97
f 82 95 101
f 82 102 98
f 82 101 102
f 93 103 94
f 93 97 104
f 93 104 103
f 94 103 95
f 105 91 92
f 105 92 99
f 101 95 103
f 97 91 105
f 97 106 104
f 97 105 107
f 97 107 106
f 104 108 103
f 104 106 108
f 101 103 108
f 109 96 98
f 96 110 100
f 109 111 96
f 96 111 110
f 109 98 102
f 112 99 100
f 112 100 110
f 101 113 102
f 109 102 113
f 105 99 112
f 101 108 114
f 101 115 113
f 101 114 115
f 105 116 107
f 105 112 117
f 105 117 116
f 107 118 106
f 107 116 118
f 114 108 106
f 114 106 118
f 109 119 111
f 120 110 111
f 120 111 119
f 121 109 113
f 109 122 119
f 121 122 109
f 112 110 120
f 121 113 115
f 112 123 117
f 112 120 124
f 112 124 123
f 114 125 115
f 121 115 125
f 117 126 116
f 117 123 126
f 127 119 122
f 120 119 127
f 128 118 116
f 128 116 126
f 121 129 122
f 127 122 129
f 120 130 124
f 120 127 131
f 120 131 130
f 114 118 128
f 114 132 125
f 114 128 132
f 133 121 125
f 121 134 129
f 133 134 121
f 124 135 123
f 124 130 135
f 133 125 132
f 136 126 123
f 136 123 135
f 127 129 137
f 127 138 131
f 127 137 139
f 127 139 138
f 128 126 136
f 137 129 134
f 131 140 130
f 131 138 140
f 128 141 132
f 133 132 141
f 128 136 142
f 128 142 141
f 133 143 134
f 137 134 143
f 144 135 130
f 144 130 140
f 145 133 141
f 133 146 143
f 145 146 133
f 136 135 144
f 137 147 139
f 139 148 138
f 139 147 148
f 136 149 142
f 136 144 150
f 136 150 149
f 137 143 151
f 137 152 147
f 137 151 152
f 153 140 138
f 153 138 148
f 154 155 156
f 156 155 157
f 154 156 158
f 156 159 158
f 156 160 159
f 156 157 160
f 161 162 155
f 162 157 155
f 161 155 163
f 154 163 155
f 161 164 162
f 165 162 164
f 162 166 157
f 165 166 162
f 145 141 142
f 154 158 167
f 158 168 167
f 158 159 168
f 145 142 149
f 161 169 164
f 170 169 161
f 161 163 171
f 161 171 172
f 170 161 172
f 173 164 169
f 173 169 174
f 170 174 169
f 165 164 173
f 175 163 154
f 175 154 167
f 175 171 163
f 151 143 146
f 168 176 167
f 175 167 176
f 168 159 177
f 178 168 179
f 168 180 179
f 168 178 176
f 168 177 181
f 168 181 180
f 144 140 153
f 173 174 182
f 182 174 183
f 170 183 174
f 160 177 159
f 160 157 184
f 160 185 177
f 160 184 185
f 165 173 186
f 173 182 187
f 173 188 186
f 173 187 188
f 189 157 166
f 189 184 157
f 178 179 190
f 191 190 179
f 191 179 180
f 189 166 165
f 145 192 146
f 151 146 192
f 165 186 193
f 189 165 194
f 165 193 194
f 144 195 150
f 144 153 196
f 144 196 195
f 152 197 147
f 198 148 147
f 198 147 197
f 199 175 176
f 199 171 175
f 200 176 178
f 200 201 176
f 199 176 201
f 200 178 190
f 172 171 202
f 199 202 171
f 182 203 187
f 182 183 204
f 182 204 205
f 182 206 203
f 182 205 206
f 200 190 191
f 151 207 152
f 152 207 197
f 208 186 188
f 208 193 186
f 170 172 209
f 172 202 209
f 210 181 177
f 185 210 177
f 181 211 180
f 181 212 211
f 210 212 181
f 213 188 187
f 213 187 203
f 153 148 198
f 214 191 180
f 214 180 211
f 185 184 215
f 185 216 210
f 185 215 216
f 217 183 170
f 170 209 218
f 217 170 218
f 219 149 150
f 219 150 195
f 219 145 149
f 145 220 192
f 219 220 145
f 215 184 189
f 221 200 191
f 222 201 200
f 222 200 221
f 221 191 214
f 217 204 183
f 199 201 222
f 151 192 223
f 151 224 207
f 151 223 224
f 225 202 199
f 199 222 226
f 225 199 226
f 212 227 211
f 228 214 211
f 228 211 227
f 189 194 229
f 215 189 230
f 189 229 230
f 210 231 212
f 212 231 227
f 213 208 188
f 210 216 232
f 210 233 231
f 210 232 233
f 153 234 196
f 153 198 235
f 153 235 234
f 236 194 193
f 236 229 194
f 225 209 202
f 237 221 214
f 237 214 228
f 217 238 204
f 205 204 238
f 232 216 215
f 239 203 206
f 205 240 206
f 239 206 240
f 241 222 221
f 241 221 237
f 231 228 227
f 239 213 203
f 218 209 242
f 225 242 209
f 243 197 207
f 198 197 243
f 208 236 193
f 241 226 222
f 223 192 220
f 231 237 228
f 233 237 231
f 217 218 244
f 218 242 244
f 224 245 207
f 243 207 245
f 232 215 246
f 215 230 247
f 215 247 246
f 233 241 237
f 233 248 241
f 233 232 248
f 249 195 196
f 249 196 234
f 241 248 226
f 225 226 248
f 213 250 208
f 239 251 213
f 213 251 252
f 213 252 250
f 198 243 253
f 198 254 235
f 198 253 254
f 255 238 217
f 217 244 256
f 255 217 256
f 208 250 257
f 208 258 236
f 208 257 258
f 232 246 259
f 232 259 248
f 224 260 245
f 223 260 224
f 205 261 240
f 205 238 262
f 205 263 261
f 205 262 263
f 264 242 225
f 225 248 259
f 264 225 259
f 249 219 195
f 265 230 229
f 265 247 230
f 266 239 240
f 239 267 251
f 266 268 239
f 239 268 267
f 219 269 220
f 223 220 269
f 266 240 261
f 264 244 242
f 264 259 246
f 264 246 247
f 219 270 269
f 249 270 219
f 255 262 238
f 243 245 271
f 243 272 253
f 243 271 273
f 243 273 272
f 271 245 260
f 236 265 229
f 274 234 235
f 274 235 254
f 275 251 267
f 275 252 251
f 256 244 276
f 264 276 244
f 223 277 260
f 223 269 278
f 223 278 277
f 279 250 252
f 279 257 250
f 266 280 268
f 281 268 280
f 281 267 268
f 265 264 247
f 255 256 282
f 256 276 282
f 266 261 283
f 266 284 280
f 285 284 266
f 285 266 283
f 265 276 264
f 236 286 265
f 236 287 286
f 236 258 287
f 271 260 288
f 277 288 260
f 263 283 261
f 255 289 262
f 263 262 289
f 265 282 276
f 265 286 282
f 290 280 284
f 291 280 290
f 291 281 280
f 292 254 253
f 292 253 272
f 293 267 281
f 293 275 267
f 255 282 294
f 295 289 255
f 295 255 294
f 274 249 234
f 290 284 296
f 285 296 284
f 271 297 273
f 298 273 297
f 298 272 273
f 271 299 297
f 271 300 299
f 271 288 300
f 301 290 296
f 301 291 290
f 278 269 270
f 302 252 275
f 302 279 252
f 294 282 286
f 294 286 287
f 303 287 258
f 303 258 257
f 301 296 304
f 304 296 305
f 285 305 296
f 291 293 281
f 249 306 270
f 274 307 249
f 249 307 306
f 308 301 304
f 301 309 291
f 308 310 301
f 301 310 311
f 301 311 309
f 278 270 306
f 277 312 288
f 278 312 277
f 263 313 283
f 285 283 313
f 314 297 299
f 314 299 315
f 300 315 299
f 300 288 312
f 263 289 316
f 295 316 289
f 292 274 254
f 314 298 297
f 295 294 287
f 308 304 317
f 304 305 317
f 291 309 318
f 291 319 293
f 291 318 319
f 263 320 313
f 263 316 320
f 308 321 310
f 322 310 321
f 322 311 310
f 293 302 275
f 295 287 303
f 323 314 315
f 323 315 324
f 300 324 315
f 325 257 279
f 325 303 257
f 298 292 272
f 323 326 314
f 314 326 327
f 314 328 298
f 314 327 328
f 308 329 321
f 330 329 308
f 308 317 331
f 330 308 331
f 323 321 329
f 322 321 323
f 323 329 326
f 323 324 332
f 322 323 332
f 333 309 311
f 333 318 309
f 285 313 334
f 335 305 285
f 335 285 334
f 300 312 336
f 300 337 324
f 300 336 337
f 330 326 329
f 293 319 338
f 293 339 302
f 293 338 339
f 330 327 326
f 292 340 274
f 274 341 307
f 274 340 341
f 278 342 312
f 278 306 343
f 278 343 342
f 333 311 322
f 325 295 303
f 295 344 316
f 325 344 295
f 342 336 312
f 320 334 313
f 302 325 279
f 335 317 305
f 337 332 324
f 320 316 344
f 322 332 345
f 333 322 346
f 322 345 346
f 298 347 292
f 298 328 348
f 298 348 347
f 337 345 332
f 349 319 318
f 349 338 319
f 292 347 350
f 292 350 340
f 343 306 307
f 343 307 341
f 331 317 351
f 335 351 317
f 302 352 325
f 302 339 353
f 302 353 352
f 320 354 334
f 335 334 354
f 355 328 327
f 355 348 328
f 330 331 356
f 331 351 356
f 325 357 344
f 325 352 357
f 349 318 333
f 337 336 358
f 342 358 336
f 320 344 357
f 355 327 330
f 330 356 359
f 355 330 359
f 320 357 360
f 320 360 354
f 361 351 335
f 335 354 362
f 361 335 362
f 363 347 348
f 363 350 347
f 364 341 340
f 364 340 350
f 333 346 365
f 349 333 366
f 333 365 366
f 337 367 345
f 337 358 368
f 337 368 367
f 343 358 342
f 369 339 338
f 369 353 339
f 360 357 352
f 360 352 353
f 367 346 345
f 367 365 346
f 361 356 351
f 360 362 354
f 363 348 355
f 343 341 364
f 343 370 358
f 343 364 370
f 359 356 371
f 361 371 356
f 369 338 349
f 355 359 372
f 363 355 373
f 355 372 373
f 359 371 372
f 360 353 369
f 364 350 363
f 360 374 362
f 361 362 374
f 360 369 374
f 370 368 358
f 369 349 375
f 349 366 376
f 349 376 375
f 367 368 377
f 370 377 368
f 361 374 378
f 379 371 361
f 379 361 378
f 369 378 374
f 369 375 378
f 380 366 365
f 380 376 366
f 364 363 381
f 363 373 382
f 363 382 381
f 367 380 365
f 367 377 383
f 367 383 380
f 364 377 370
f 364 381 377
f 379 372 371
f 373 372 384
f 373 384 382
f 379 384 372
f 381 383 377
f 379 378 375
f 379 375 376
f 381 382 383
f 380 383 382
f 380 382 384
f 380 379 376
f 380 384 379
