# 
# Wavefront OBJ file
# Created with Kaydara FBX
# 
mtllib c:\users\tjvan\onedrive\documenten\fontys\minor\nx\.mtlmodels\flexor_digitorum_longus.r.obj

g Flexor_digitorum_longus_r
v -0.143423 0.009185 0.088355
v -0.142906 0.009321 0.088939
v -0.143152 0.009527 0.088466
v -0.142439 0.009360 0.086744
v -0.142950 0.009065 0.088455
v -0.142633 0.009023 0.086609
v -0.142182 0.009641 0.088771
v -0.141645 0.009473 0.087069
v -0.141886 0.009050 0.088837
v -0.142297 0.008898 0.086739
v -0.142420 0.009370 0.089093
v -0.141804 0.009243 0.085368
v -0.141969 0.008911 0.085199
v -0.141091 0.009356 0.085714
v -0.141470 0.009553 0.088965
v -0.141703 0.008782 0.085367
v -0.141396 0.008879 0.087141
v -0.141017 0.009389 0.087280
v -0.140839 0.009261 0.081731
v -0.140406 0.009100 0.081863
v -0.140422 0.009654 0.081909
v -0.140890 0.008760 0.085780
v -0.140522 0.009275 0.085927
v -0.139745 0.009827 0.082151
v -0.139732 0.009200 0.082094
v -0.138932 0.010206 0.077596
v -0.139303 0.009819 0.077406
v -0.139300 0.009501 0.082264
v -0.138351 0.010344 0.077821
v -0.138352 0.009733 0.077728
v -0.138962 0.009579 0.077491
v -0.137993 0.010074 0.077909
v -0.137635 0.010620 0.073070
v -0.137302 0.010335 0.073162
v -0.137269 0.011027 0.073294
v -0.136342 0.010848 0.073660
v -0.136724 0.010532 0.073439
v -0.136674 0.011170 0.073574
v -0.135466 0.010749 0.068952
v -0.135360 0.011468 0.068997
v -0.135775 0.011038 0.068809
v -0.134716 0.011584 0.069299
v -0.134849 0.010917 0.069239
v -0.134417 0.011236 0.069445
v -0.133930 0.010660 0.064562
v -0.133394 0.011126 0.064749
v -0.132835 0.010438 0.065091
v -0.133607 0.010318 0.064751
v -0.132290 0.010848 0.065304
v -0.132627 0.011197 0.065102
v -0.132290 0.010118 0.060224
v -0.131844 0.009598 0.060477
v -0.130493 0.010807 0.060990
v -0.131495 0.010587 0.060550
v -0.132879 0.009537 0.106231
v -0.132316 0.009314 0.106361
v -0.132245 0.009671 0.106651
v -0.131729 0.010384 0.103471
v -0.132177 0.009909 0.106411
v -0.131269 0.010711 0.103629
v -0.130850 0.009801 0.060917
v -0.130036 0.010294 0.061246
v -0.131536 0.009773 0.106822
v -0.131359 0.010188 0.103586
v -0.131229 0.009544 0.106629
v -0.129894 0.009354 0.056182
v -0.129552 0.010439 0.056363
v -0.130338 0.009886 0.055975
v -0.130968 0.010057 0.106696
v -0.130475 0.010842 0.103880
v -0.128908 0.009637 0.056671
v -0.130708 0.010759 0.100765
v -0.130329 0.011042 0.100901
v -0.130513 0.009785 0.106809
v -0.128535 0.010650 0.056852
v -0.130646 0.010390 0.103821
v -0.130404 0.010590 0.100863
v -0.129676 0.011154 0.101117
v -0.130177 0.010602 0.103980
v -0.128163 0.010189 0.057040
v -0.128930 0.010177 0.096934
v -0.128814 0.010810 0.096941
v -0.129210 0.010430 0.096806
v -0.129817 0.010764 0.101067
v -0.129430 0.010947 0.101203
v -0.128291 0.010354 0.097181
v -0.128132 0.010013 0.051825
v -0.127464 0.010699 0.052248
v -0.128203 0.010959 0.097184
v -0.127747 0.009507 0.051967
v -0.127841 0.010674 0.097346
v -0.127846 0.010508 0.092455
v -0.127397 0.011120 0.092679
v -0.127358 0.010065 0.092521
v -0.126771 0.009757 0.052501
v -0.126023 0.010361 0.052959
v -0.126481 0.010961 0.052783
v -0.126540 0.010267 0.092804
v -0.125941 0.010709 0.093056
v -0.126531 0.011230 0.092962
v -0.125562 0.010147 0.047813
v -0.125977 0.010772 0.047724
v -0.126766 0.011737 0.088484
v -0.126265 0.011527 0.088542
v -0.124595 0.010365 0.048396
v -0.124463 0.011717 0.048769
v -0.125344 0.011492 0.048231
v -0.126323 0.012198 0.088753
v -0.125508 0.012302 0.088991
v -0.125589 0.011664 0.088763
v -0.123998 0.011105 0.048891
v -0.125124 0.013476 0.084355
v -0.125648 0.013016 0.084092
v -0.125116 0.011985 0.088991
v -0.124249 0.013457 0.084642
v -0.125076 0.012689 0.084220
v -0.123650 0.011974 0.043818
v -0.123133 0.012738 0.044343
v -0.124048 0.013483 0.079932
v -0.123613 0.013072 0.080092
v -0.124304 0.012696 0.084477
v -0.123200 0.011264 0.043899
v -0.122272 0.012981 0.044937
v -0.123817 0.013055 0.084714
v -0.123458 0.013862 0.080201
v -0.122714 0.013121 0.080490
v -0.122327 0.011436 0.044481
v -0.122072 0.013357 0.080787
v -0.122584 0.013819 0.080583
v -0.122394 0.013391 0.075676
v -0.121576 0.013933 0.076026
v -0.121818 0.012179 0.045005
v -0.120705 0.012406 0.040106
v -0.121150 0.013173 0.040029
v -0.121815 0.012861 0.075982
v -0.120429 0.013844 0.076587
v -0.119875 0.012556 0.040703
v -0.120696 0.013960 0.040556
v -0.119891 0.013313 0.076878
v -0.120708 0.012996 0.076506
v -0.120034 0.012109 0.071916
v -0.120712 0.012741 0.071549
v -0.119430 0.013353 0.041228
v -0.119869 0.014172 0.041169
v -0.119644 0.013332 0.071957
v -0.120668 0.011174 0.121497
v -0.120851 0.011524 0.121120
v -0.121503 0.011133 0.120759
v -0.120223 0.011926 0.119165
v -0.120657 0.010873 0.121147
v -0.120022 0.011272 0.119180
v -0.120576 0.011446 0.119010
v -0.118725 0.014230 0.036170
v -0.118160 0.015096 0.036797
v -0.120174 0.011241 0.121638
v -0.119424 0.012039 0.119422
v -0.119847 0.011665 0.121400
v -0.118235 0.013235 0.036244
v -0.118972 0.012256 0.067412
v -0.117867 0.012750 0.067849
v -0.118661 0.012355 0.072508
v -0.117239 0.015265 0.037490
v -0.119665 0.011001 0.121418
v -0.119256 0.011346 0.119419
v -0.119714 0.012316 0.117186
v -0.120057 0.011839 0.117044
v -0.119517 0.011667 0.117211
v -0.118213 0.013403 0.072589
v -0.118924 0.012423 0.117439
v -0.118814 0.011611 0.121464
v -0.119131 0.012684 0.115216
v -0.118937 0.012041 0.115251
v -0.119463 0.012211 0.115087
v -0.118309 0.011615 0.067739
v -0.116896 0.011823 0.068330
v -0.118764 0.011740 0.117445
v -0.117529 0.012676 0.072990
v -0.116709 0.014328 0.037612
v -0.117219 0.013364 0.036991
v -0.118839 0.011708 0.119568
v -0.118349 0.012787 0.115464
v -0.116430 0.012762 0.068438
v -0.118198 0.012114 0.115480
v -0.118469 0.012827 0.113274
v -0.118279 0.012189 0.113319
v -0.118790 0.012356 0.113158
v -0.118342 0.012094 0.117590
v -0.117695 0.012923 0.113518
v -0.117017 0.011995 0.063308
v -0.117552 0.012262 0.113543
v -0.117770 0.012459 0.115621
v -0.117802 0.012896 0.111193
v -0.117627 0.012280 0.111278
v -0.118081 0.012439 0.111127
v -0.115657 0.014288 0.032464
v -0.116133 0.015316 0.032404
v -0.117063 0.012971 0.111418
v -0.117120 0.012598 0.113680
v -0.116467 0.011330 0.063532
v -0.116952 0.012352 0.111480
v -0.115746 0.012095 0.068779
v -0.115492 0.016159 0.033133
v -0.116375 0.012516 0.106854
v -0.116805 0.012274 0.106725
v -0.116085 0.012451 0.063717
v -0.116500 0.012654 0.111603
v -0.116365 0.012170 0.106854
v -0.114549 0.016342 0.033902
v -0.114580 0.014319 0.033290
v -0.115756 0.012587 0.107044
v -0.114588 0.011535 0.059350
v -0.114270 0.012802 0.059638
v -0.115137 0.012312 0.059199
v -0.115280 0.012414 0.107183
v -0.115636 0.012180 0.107067
v -0.115160 0.011452 0.064099
v -0.114177 0.011738 0.064527
v -0.115601 0.012988 0.102289
v -0.115013 0.012717 0.102407
v -0.114013 0.015262 0.033996
v -0.114782 0.012388 0.064277
v -0.114350 0.013413 0.102833
v -0.115202 0.013385 0.102541
v -0.113239 0.016382 0.028867
v -0.112719 0.017418 0.029601
v -0.113063 0.012662 0.060144
v -0.113759 0.013124 0.102948
v -0.111739 0.015297 0.029772
v -0.112782 0.015381 0.028941
v -0.114158 0.012674 0.102679
v -0.113976 0.014864 0.098350
v -0.114451 0.014406 0.098106
v -0.111712 0.017615 0.030487
v -0.113001 0.014826 0.098600
v -0.113359 0.011588 0.059896
v -0.113233 0.013103 0.055154
v -0.112421 0.013627 0.055641
v -0.113790 0.013971 0.098169
v -0.112846 0.013917 0.098411
v -0.112445 0.011916 0.060333
v -0.111519 0.012312 0.055757
v -0.112663 0.012327 0.055241
v -0.111200 0.016304 0.030505
v -0.113259 0.015122 0.093655
v -0.112296 0.014448 0.098701
v -0.112718 0.015594 0.093851
v -0.112603 0.014632 0.093824
v -0.110684 0.012734 0.056221
v -0.111326 0.015561 0.089365
v -0.111281 0.014571 0.089439
v -0.111982 0.015094 0.089191
v -0.111320 0.013937 0.051159
v -0.110410 0.017496 0.025329
v -0.111243 0.013561 0.056153
v -0.111733 0.015494 0.094139
v -0.111068 0.015030 0.094315
v -0.111622 0.014518 0.094120
v -0.109941 0.016245 0.025337
v -0.110314 0.015426 0.089691
v -0.109809 0.018606 0.026187
v -0.110830 0.013191 0.051182
v -0.110243 0.014412 0.089775
v -0.110591 0.014564 0.051623
v -0.109482 0.014624 0.052116
v -0.109968 0.015121 0.084921
v -0.110715 0.014620 0.084758
v -0.108212 0.017271 0.027110
v -0.108748 0.016065 0.026292
v -0.109615 0.014936 0.089942
v -0.108755 0.018737 0.027118
v -0.109732 0.013250 0.051673
v -0.109090 0.014196 0.047116
v -0.108899 0.015614 0.047550
v -0.109695 0.014876 0.047022
v -0.109980 0.014087 0.085050
v -0.108996 0.013881 0.052144
v -0.108028 0.014254 0.047592
v -0.108698 0.013333 0.080647
v -0.109681 0.013872 0.080282
v -0.107749 0.015665 0.048064
v -0.106993 0.017326 0.021932
v -0.106919 0.019871 0.022799
v -0.107517 0.018647 0.021906
v -0.108867 0.014946 0.085293
v -0.108842 0.013944 0.085431
v -0.107290 0.013284 0.081124
v -0.108654 0.014446 0.080546
v -0.107337 0.014337 0.080987
v -0.105724 0.019778 0.023781
v -0.107297 0.014947 0.048083
v -0.108097 0.015952 0.042894
v -0.107171 0.016813 0.043527
v -0.108215 0.013494 0.075894
v -0.107089 0.013936 0.076238
v -0.108170 0.014390 0.085593
v -0.107451 0.014922 0.042921
v -0.106423 0.013843 0.081347
v -0.105775 0.016990 0.022862
v -0.105250 0.018230 0.023694
v -0.107382 0.012682 0.076226
v -0.105804 0.013876 0.076681
v -0.105687 0.012449 0.071906
v -0.106205 0.013028 0.071701
v -0.105658 0.015879 0.038843
v -0.106278 0.016975 0.038843
v -0.106153 0.015005 0.043521
v -0.105268 0.015895 0.044144
v -0.105852 0.016890 0.044137
v -0.104746 0.019797 0.018566
v -0.104146 0.021098 0.019495
v -0.104319 0.016011 0.039487
v -0.105823 0.012672 0.076771
v -0.104793 0.013404 0.077066
v -0.105336 0.017885 0.039509
v -0.104019 0.018016 0.040145
v -0.105461 0.013748 0.071945
v -0.102886 0.017964 0.019531
v -0.104109 0.018331 0.018629
v -0.104360 0.018020 0.034848
v -0.103472 0.018954 0.035506
v -0.104428 0.013047 0.067405
v -0.103814 0.013791 0.067641
v -0.103397 0.016872 0.040131
v -0.104470 0.012520 0.072337
v -0.104346 0.013770 0.072338
v -0.103627 0.013078 0.072609
v -0.102444 0.019275 0.020296
v -0.102927 0.020810 0.020393
v -0.103070 0.012520 0.067905
v -0.104059 0.012432 0.067535
v -0.103838 0.016994 0.034819
v -0.102790 0.013845 0.068015
v -0.102161 0.019107 0.036152
v -0.104532 0.010189 0.125010
v -0.103810 0.009084 0.126974
v -0.105183 0.009563 0.126692
v -0.103233 0.010774 0.125489
v -0.102269 0.009529 0.127377
v -0.103666 0.010182 0.127200
v -0.102246 0.020785 0.015728
v -0.104012 0.010821 0.123331
v -0.103368 0.009746 0.125277
v -0.102800 0.011367 0.123778
v -0.102430 0.013077 0.068152
v -0.102765 0.013146 0.063062
v -0.101949 0.018036 0.030814
v -0.102473 0.019117 0.030855
v -0.102494 0.017089 0.035466
v -0.100183 0.021661 0.017294
v -0.101593 0.022117 0.016654
v -0.100277 0.018929 0.016672
v -0.101644 0.019244 0.015716
v -0.102388 0.012526 0.063188
v -0.102926 0.010408 0.123580
v -0.103044 0.011311 0.120520
v -0.102008 0.011777 0.120902
v -0.100638 0.018141 0.031468
v -0.102152 0.013946 0.063335
v -0.102047 0.010165 0.125626
v -0.101608 0.020056 0.031519
v -0.101571 0.017943 0.036117
v -0.101757 0.010801 0.123901
v -0.101405 0.012552 0.063573
v -0.102115 0.010957 0.120733
v -0.101042 0.011895 0.116569
v -0.101748 0.012237 0.116422
v -0.099780 0.020331 0.017228
v -0.101215 0.011302 0.121036
v -0.101162 0.013957 0.063725
v -0.100756 0.012636 0.058818
v -0.100476 0.014176 0.059058
v -0.101280 0.013474 0.058678
v -0.100541 0.020173 0.026940
v -0.099701 0.021132 0.027577
v -0.100727 0.013158 0.063867
v -0.099578 0.012618 0.059294
v -0.100262 0.021593 0.013400
v -0.099367 0.014164 0.059508
v -0.100279 0.020115 0.032158
v -0.099772 0.019062 0.032116
v -0.100262 0.012393 0.116846
v -0.100894 0.012855 0.116746
v -0.100012 0.019080 0.026906
v -0.099951 0.012181 0.112023
v -0.100647 0.012634 0.111973
v -0.099538 0.019962 0.013495
v -0.098383 0.021174 0.028203
v -0.099251 0.023023 0.014334
v -0.096613 0.022627 0.015083
v -0.099701 0.014030 0.054395
v -0.098808 0.014691 0.054849
v -0.098776 0.013282 0.059675
v -0.099687 0.013168 0.112238
v -0.099081 0.013113 0.054492
v -0.099571 0.013538 0.107508
v -0.098739 0.019132 0.027514
v -0.097873 0.020057 0.028153
v -0.098283 0.019963 0.023100
v -0.098750 0.021027 0.023159
v -0.097307 0.021179 0.015380
v -0.097969 0.020088 0.014805
v -0.099040 0.012705 0.112320
v -0.098261 0.022280 0.011583
v -0.098790 0.013010 0.107461
v -0.097751 0.013489 0.107911
v -0.097587 0.013878 0.050127
v -0.098405 0.015027 0.050131
v -0.097958 0.022015 0.023803
v -0.098591 0.013933 0.107949
v -0.097758 0.013027 0.054991
v -0.096875 0.013789 0.055455
v -0.098894 0.015617 0.103516
v -0.098111 0.015274 0.103465
v -0.097952 0.016044 0.103809
v -0.097363 0.020786 0.011929
v -0.095451 0.021339 0.014151
v -0.097597 0.014660 0.055315
v -0.097471 0.023501 0.012934
v -0.098187 0.016545 0.098918
v -0.097240 0.016109 0.099077
v -0.097315 0.015819 0.050713
v -0.095846 0.015743 0.051216
v -0.097214 0.015583 0.103705
v -0.097415 0.021698 0.019528
v -0.096658 0.022816 0.020529
v -0.097035 0.020002 0.023705
v -0.096991 0.016177 0.045933
v -0.095860 0.016934 0.046500
v -0.096658 0.022088 0.024412
v -0.096983 0.020765 0.019750
v -0.095747 0.020858 0.020460
v -0.095508 0.024378 0.011120
v -0.095143 0.021934 0.010134
v -0.095988 0.023056 0.009824
v -0.097391 0.017045 0.099140
v -0.097195 0.016388 0.094281
v -0.095973 0.016003 0.094672
v -0.096294 0.016557 0.099339
v -0.095293 0.022902 0.021267
v -0.096168 0.020967 0.024344
v -0.096085 0.013764 0.050634
v -0.095028 0.014584 0.051218
v -0.096172 0.015030 0.045891
v -0.094619 0.014920 0.046363
v -0.095973 0.023846 0.014427
v -0.094281 0.024952 0.012701
v -0.096308 0.017002 0.094470
v -0.093561 0.022140 0.011742
v -0.094374 0.016905 0.046980
v -0.095470 0.021692 0.015790
v -0.096155 0.015569 0.089795
v -0.095716 0.017306 0.041675
v -0.095840 0.021511 0.017103
v -0.094634 0.021535 0.017988
v -0.095561 0.023551 0.017653
v -0.094345 0.024338 0.015933
v -0.095122 0.016462 0.094847
v -0.094790 0.016276 0.090055
v -0.094887 0.016175 0.041635
v -0.094831 0.021793 0.021179
v -0.094621 0.015159 0.090294
v -0.094926 0.014843 0.085349
v -0.093345 0.014135 0.085961
v -0.093353 0.015320 0.085756
v -0.093489 0.015743 0.046961
v -0.093715 0.024208 0.007827
v -0.093510 0.015819 0.090505
v -0.094546 0.018107 0.042224
v -0.093662 0.017119 0.037292
v -0.093279 0.019225 0.037894
v -0.094450 0.018328 0.037335
v -0.094103 0.023662 0.018835
v -0.092105 0.025957 0.010711
v -0.093201 0.025410 0.009088
v -0.093931 0.021886 0.016398
v -0.093180 0.022138 0.014943
v -0.091848 0.022671 0.013099
v -0.093660 0.022434 0.018762
v -0.092946 0.022810 0.008043
v -0.091669 0.022737 0.009627
v -0.093772 0.014372 0.080883
v -0.092131 0.013564 0.081444
v -0.093299 0.016071 0.042079
v -0.092079 0.017030 0.037749
v -0.092651 0.022791 0.017029
v -0.091805 0.015070 0.086291
v -0.093049 0.018080 0.042666
v -0.091730 0.019165 0.038345
v -0.093068 0.019224 0.032997
v -0.091944 0.020163 0.033558
v -0.092145 0.016967 0.042653
v -0.092588 0.025245 0.014220
v -0.092745 0.024184 0.017081
v -0.090577 0.024732 0.015637
v -0.091899 0.014895 0.081398
v -0.092279 0.014201 0.076508
v -0.090739 0.013269 0.076949
v -0.091123 0.025447 0.005575
v -0.090381 0.024055 0.005759
v -0.092355 0.017974 0.032943
v -0.090333 0.014034 0.081941
v -0.090931 0.017961 0.038304
v -0.090631 0.026577 0.006833
v -0.091328 0.023094 0.015551
v -0.091012 0.018991 0.028626
v -0.091632 0.020138 0.028727
v -0.090737 0.026084 0.012306
v -0.090788 0.017912 0.033407
v -0.089507 0.018959 0.029080
v -0.090681 0.014885 0.076977
v -0.090771 0.014238 0.072149
v -0.088562 0.027179 0.009968
v -0.089675 0.027099 0.008380
v -0.090400 0.020163 0.034026
v -0.090615 0.021064 0.029273
v -0.089203 0.021157 0.029728
v -0.090352 0.023027 0.011278
v -0.090026 0.023407 0.014270
v -0.089232 0.023698 0.007158
v -0.088176 0.023757 0.008754
v -0.090683 0.021380 0.024547
v -0.089471 0.022424 0.025214
v -0.088197 0.024085 0.015581
v -0.088263 0.026913 0.003103
v -0.089858 0.019986 0.024421
v -0.089692 0.018910 0.033958
v -0.089427 0.013361 0.072481
v -0.089363 0.015163 0.072526
v -0.088346 0.015233 0.067992
v -0.089673 0.014144 0.067665
v -0.088254 0.013385 0.067964
v -0.088893 0.014155 0.077473
v -0.087906 0.014125 0.072877
v -0.089199 0.025862 0.013683
v -0.087375 0.027032 0.011433
v -0.088700 0.020857 0.020963
v -0.089616 0.022294 0.021057
v -0.087880 0.027998 0.004263
v -0.087836 0.022391 0.025729
v -0.088535 0.019923 0.029618
v -0.086384 0.025159 0.004281
v -0.087540 0.025528 0.003106
v -0.088916 0.023403 0.012818
v -0.087057 0.023890 0.010338
v -0.088202 0.019932 0.024924
v -0.088751 0.014499 0.063170
v -0.087403 0.013595 0.063321
v -0.086985 0.028407 0.005725
v -0.088325 0.023361 0.021850
v -0.088728 0.022982 0.018359
v -0.087334 0.024092 0.019586
v -0.087090 0.020940 0.025559
v -0.086883 0.014216 0.068280
v -0.085314 0.025163 0.005621
v -0.087326 0.025673 0.014610
v -0.085851 0.026908 0.012591
v -0.087357 0.023514 0.014085
v -0.087454 0.015353 0.063484
v -0.088025 0.015305 0.058645
v -0.086674 0.014337 0.058696
v -0.087589 0.021628 0.018527
v -0.087031 0.020861 0.021558
v -0.086058 0.021713 0.019250
v -0.085875 0.028434 0.007187
v -0.086066 0.014420 0.063641
v -0.086583 0.023310 0.022519
v -0.085571 0.023982 0.020491
v -0.084824 0.029578 0.001329
v -0.084533 0.027305 0.000259
v -0.085185 0.028573 0.000298
v -0.086573 0.022642 0.016512
v -0.085687 0.023470 0.015048
v -0.085998 0.024932 0.017769
v -0.085263 0.025821 0.015787
v -0.086646 0.015997 0.059041
v -0.087434 0.016534 0.054149
v -0.085952 0.021911 0.022301
v -0.083481 0.026961 0.001233
v -0.085863 0.015358 0.054166
v -0.085760 0.017384 0.054738
v -0.086488 0.017785 0.049768
v -0.084899 0.016609 0.049758
v -0.084754 0.018604 0.050363
v -0.084685 0.028363 0.008477
v -0.085767 0.024017 0.011680
v -0.083864 0.027190 0.013472
v -0.082963 0.025257 0.007993
v -0.084193 0.025188 0.006892
v -0.085087 0.022704 0.020155
v -0.082919 0.029936 0.003684
v -0.083971 0.029927 0.002554
v -0.085228 0.015103 0.059122
v -0.084078 0.016214 0.054773
v -0.085208 0.022786 0.017581
v -0.084063 0.023900 0.016135
v -0.085621 0.019013 0.045414
v -0.084009 0.017804 0.045355
v -0.084786 0.024160 0.019376
v -0.083272 0.025416 0.018843
v -0.081881 0.029900 0.004566
v -0.083078 0.017422 0.050376
v -0.083385 0.028419 0.009391
v -0.081774 0.028779 0.010047
v -0.084135 0.024249 0.012660
v -0.081556 0.025454 0.008849
v -0.084925 0.020252 0.041021
v -0.083860 0.019891 0.045973
v -0.083267 0.018968 0.040903
v -0.081459 0.026896 0.003364
v -0.082475 0.026913 0.002318
v -0.082721 0.026536 0.017029
v -0.084125 0.023752 0.018627
v -0.081942 0.024865 0.017536
v -0.081809 0.030160 -0.002566
v -0.081328 0.029120 -0.002630
v -0.084299 0.021529 0.036609
v -0.083155 0.021192 0.041558
v -0.082197 0.018651 0.045930
v -0.080842 0.031305 -0.000754
v -0.081531 0.031025 -0.001728
v -0.083939 0.223399 -0.046231
v -0.084393 0.223101 -0.043936
v -0.084143 0.233413 -0.042541
v -0.082993 0.232997 -0.040211
v -0.084063 0.213089 -0.045087
v -0.082549 0.212867 -0.043266
v -0.082822 0.222883 -0.042008
v -0.083694 0.022799 0.032184
v -0.082047 0.021566 0.032060
v -0.081947 0.023771 0.032709
v -0.082653 0.020283 0.036474
v -0.082531 0.022447 0.037125
v -0.080392 0.026944 0.004245
v -0.083508 0.213407 -0.047343
v -0.084173 0.203114 -0.046279
v -0.082693 0.202930 -0.044521
v -0.083307 0.203349 -0.048560
v -0.083457 0.193162 -0.047432
v -0.082511 0.193048 -0.045395
v -0.082149 0.024801 0.013400
v -0.079896 0.025981 0.009506
v -0.083977 0.233882 -0.045106
v -0.083586 0.243983 -0.043331
v -0.083751 0.243364 -0.040633
v -0.082218 0.234117 -0.046985
v -0.081704 0.244404 -0.045294
v -0.082117 0.223723 -0.048099
v -0.083934 0.258662 -0.038211
v -0.083724 0.253203 -0.036461
v -0.083889 0.258427 -0.035926
v -0.083472 0.268982 -0.037255
v -0.083864 0.253482 -0.038873
v -0.083303 0.253924 -0.041366
v -0.082530 0.269121 -0.039230
v -0.083255 0.258997 -0.040543
v -0.082876 0.253034 -0.034335
v -0.083710 0.268837 -0.035206
v -0.082341 0.268677 -0.033727
v -0.082769 0.258313 -0.034040
v -0.081659 0.027940 0.014246
v -0.083273 0.242913 -0.038007
v -0.082907 0.242680 -0.035566
v -0.082561 0.278837 -0.036575
v -0.082766 0.278740 -0.034772
v -0.083286 0.023998 0.027721
v -0.081422 0.022546 0.027678
v -0.081558 0.203686 -0.050797
v -0.081797 0.213764 -0.049356
v -0.079549 0.028734 -0.000897
v -0.080444 0.028767 -0.001846
v -0.082442 0.193403 -0.049619
v -0.082975 0.183322 -0.048731
v -0.080748 0.029991 0.005360
v -0.081335 0.259317 -0.042558
v -0.081402 0.254301 -0.043308
v -0.082517 0.024759 0.023647
v -0.080909 0.026248 0.024589
v -0.081386 0.025233 0.028430
v -0.080885 0.021244 0.036996
v -0.081467 0.019933 0.041451
v -0.080331 0.027541 0.018086
v -0.080884 0.023638 0.023834
v -0.081077 0.024438 0.020362
v -0.080833 0.027169 0.020962
v -0.082387 0.232653 -0.037579
v -0.081667 0.222640 -0.039452
v -0.082575 0.172998 -0.048029
v -0.082810 0.183070 -0.046537
v -0.082260 0.173289 -0.050229
v -0.081842 0.183597 -0.050877
v -0.081221 0.173640 -0.052328
v -0.079934 0.031302 0.000112
v -0.081041 0.242680 -0.034108
v -0.080586 0.258313 -0.033466
v -0.080639 0.253084 -0.033564
v -0.081099 0.212624 -0.041050
v -0.080827 0.182977 -0.045545
v -0.081945 0.288603 -0.036214
v -0.081513 0.278572 -0.033474
v -0.082203 0.288589 -0.034591
v -0.080917 0.288497 -0.033490
v -0.079466 0.028593 0.014814
v -0.080913 0.202695 -0.042658
v -0.080478 0.192851 -0.044012
v -0.080302 0.022542 0.032581
v -0.081538 0.163529 -0.051714
v -0.081804 0.163178 -0.049578
v -0.080337 0.163020 -0.048211
v -0.080741 0.172956 -0.046851
v -0.081532 0.278904 -0.038201
v -0.080923 0.288629 -0.037609
v -0.079938 0.278956 -0.039512
v -0.080725 0.269248 -0.040948
v -0.078675 0.028783 -0.000076
v -0.080788 0.193709 -0.051923
v -0.080866 0.222427 -0.036620
v -0.081206 0.232500 -0.035238
v -0.080206 0.268530 -0.033385
v -0.079568 0.234318 -0.048263
v -0.079025 0.244584 -0.046446
v -0.081141 0.298429 -0.035947
v -0.081411 0.298429 -0.034506
v -0.080000 0.025620 0.014003
v -0.079552 0.224122 -0.049601
v -0.079551 0.023775 0.028297
v -0.078668 0.025495 0.021169
v -0.078865 0.025898 0.018155
v -0.080094 0.298378 -0.037118
v -0.078178 0.031533 0.001560
v -0.079006 0.031335 0.000854
v -0.079571 0.174031 -0.054453
v -0.080149 0.183890 -0.053070
v -0.078403 0.031737 -0.005391
v -0.081341 0.152939 -0.051369
v -0.079895 0.152780 -0.049931
v -0.079265 0.214218 -0.051092
v -0.080059 0.029455 0.010635
v -0.079533 0.030385 0.006070
v -0.078222 0.030996 0.006715
v -0.078662 0.254474 -0.044459
v -0.080360 0.212315 -0.038288
v -0.079264 0.027162 0.004938
v -0.077950 0.027709 0.005631
v -0.078224 0.194132 -0.054134
v -0.078997 0.204168 -0.052860
v -0.078185 0.032479 -0.004708
v -0.081237 0.153326 -0.053472
v -0.080571 0.163903 -0.053854
v -0.079216 0.288402 -0.033019
v -0.079640 0.278413 -0.033065
v -0.078488 0.259419 -0.043718
v -0.079955 0.307778 -0.035923
v -0.080192 0.298280 -0.033648
v -0.080083 0.307833 -0.034641
v -0.077321 0.030535 -0.004832
v -0.078038 0.030876 -0.005464
v -0.080036 0.142520 -0.053512
v -0.078811 0.142401 -0.051901
v -0.080232 0.153751 -0.055577
v -0.080150 0.142911 -0.055535
v -0.078741 0.232657 -0.034379
v -0.079080 0.307671 -0.036909
v -0.079739 0.202355 -0.040054
v -0.079148 0.024845 0.024496
v -0.078418 0.242782 -0.033820
v -0.078635 0.298313 -0.037776
v -0.079377 0.288644 -0.038617
v -0.078493 0.212260 -0.036203
v -0.078510 0.222490 -0.035126
v -0.076980 0.032816 -0.003259
v -0.077647 0.032772 -0.003920
v -0.078821 0.182736 -0.044186
v -0.078235 0.162956 -0.047280
v -0.078606 0.172893 -0.045866
v -0.077781 0.279040 -0.040410
v -0.078194 0.269354 -0.042176
v -0.078002 0.253165 -0.033344
v -0.077862 0.268370 -0.033119
v -0.078005 0.258295 -0.033243
v -0.078966 0.164263 -0.055981
v -0.078877 0.192429 -0.041783
v -0.076613 0.030584 -0.004111
v -0.076999 0.029117 0.001281
v -0.077827 0.028898 0.000609
v -0.078301 0.202059 -0.037468
v -0.077804 0.152757 -0.049037
v -0.079267 0.143382 -0.057460
v -0.078540 0.154170 -0.057615
v -0.077655 0.278295 -0.032698
v -0.079060 0.307744 -0.033837
v -0.078660 0.298135 -0.033184
v -0.078239 0.132238 -0.055631
v -0.078264 0.132537 -0.057460
v -0.077567 0.184242 -0.055208
v -0.077843 0.307574 -0.037439
v -0.078949 0.316889 -0.036110
v -0.078988 0.316940 -0.035037
v -0.078221 0.029896 0.011144
v -0.077251 0.132154 -0.054113
v -0.078260 0.026936 0.010178
v -0.077825 0.027029 0.014678
v -0.077005 0.028474 0.010942
v -0.077500 0.288667 -0.039083
v -0.076790 0.028625 0.006347
v -0.076494 0.164551 -0.057846
v -0.077044 0.174431 -0.056455
v -0.075996 0.234520 -0.048749
v -0.075607 0.244599 -0.046850
v -0.075869 0.224539 -0.050423
v -0.077279 0.031887 0.002248
v -0.077051 0.298267 -0.038059
v -0.076064 0.029521 0.001977
v -0.077609 0.143839 -0.059132
v -0.077456 0.132951 -0.059152
v -0.075243 0.204650 -0.054015
v -0.075582 0.214659 -0.052042
v -0.077490 0.288352 -0.032611
v -0.078250 0.316797 -0.036945
v -0.077214 0.316716 -0.037286
v -0.078116 0.316867 -0.034354
v -0.077763 0.307618 -0.033403
v -0.075185 0.254484 -0.044815
v -0.076230 0.032935 -0.002624
v -0.078305 0.325993 -0.035815
v -0.077625 0.326046 -0.035203
v -0.078619 0.325931 -0.036627
v -0.077989 0.325885 -0.037253
v -0.076846 0.182336 -0.042332
v -0.077362 0.191899 -0.039162
v -0.076429 0.172737 -0.044449
v -0.076893 0.142514 -0.051008
v -0.075427 0.132340 -0.053350
v -0.075416 0.222649 -0.034952
v -0.075615 0.232838 -0.034213
v -0.075218 0.030903 -0.002872
v -0.075932 0.030723 -0.003500
v -0.076466 0.307530 -0.033029
v -0.077136 0.298057 -0.032776
v -0.078507 0.335155 -0.037037
v -0.078004 0.335151 -0.037553
v -0.075784 0.162816 -0.045969
v -0.076031 0.154442 -0.059228
v -0.075616 0.212449 -0.035800
v -0.078206 0.335159 -0.036407
v -0.078388 0.343668 -0.037284
v -0.075017 0.269379 -0.042609
v -0.075027 0.259388 -0.044087
v -0.075095 0.253223 -0.033090
v -0.075576 0.242907 -0.033619
v -0.075066 0.034030 -0.007680
v -0.074905 0.032664 -0.008322
v -0.075187 0.033384 -0.008179
v -0.078208 0.343707 -0.036760
v -0.078187 0.345768 -0.037300
v -0.078012 0.343675 -0.037568
v -0.074696 0.191995 -0.038278
v -0.075483 0.202232 -0.036789
v -0.075790 0.122402 -0.059154
v -0.075903 0.122025 -0.057558
v -0.075307 0.152671 -0.047789
v -0.076775 0.031216 0.007256
v -0.076184 0.032308 0.002884
v -0.075064 0.032331 0.003358
v -0.074486 0.194556 -0.055312
v -0.077848 0.343768 -0.036479
v -0.077610 0.335188 -0.035908
v -0.077994 0.345646 -0.037028
v -0.074868 0.033443 -0.001402
v -0.075544 0.033174 -0.002003
v -0.075102 0.279135 -0.040680
v -0.077865 0.345611 -0.037405
v -0.077764 0.346363 -0.037282
v -0.077066 0.316822 -0.033966
v -0.074281 0.032231 -0.007967
v -0.075110 0.258302 -0.032972
v -0.077241 0.335154 -0.037662
v -0.077067 0.325887 -0.037437
v -0.077586 0.343711 -0.037685
v -0.077729 0.345628 -0.036819
v -0.075293 0.268315 -0.032790
v -0.077566 0.345627 -0.037457
v -0.076107 0.316688 -0.037299
v -0.076486 0.307517 -0.037570
v -0.077374 0.345691 -0.036701
v -0.076943 0.335251 -0.035543
v -0.077398 0.343843 -0.036322
v -0.074530 0.031133 -0.002254
v -0.074628 0.142562 -0.049991
v -0.077596 0.346313 -0.037111
v -0.074661 0.034446 -0.007103
v -0.075570 0.278254 -0.032315
v -0.076815 0.326093 -0.034784
v -0.075919 0.133438 -0.060550
v -0.075285 0.144236 -0.060414
v -0.077134 0.343786 -0.037699
v -0.077365 0.346315 -0.037181
v -0.073873 0.184584 -0.056404
v -0.077300 0.345560 -0.037500
v -0.075615 0.298016 -0.032403
v -0.075736 0.288347 -0.032224
v -0.075398 0.298242 -0.038048
v -0.075393 0.288744 -0.039210
v -0.073763 0.123485 -0.061914
v -0.075075 0.122910 -0.060680
v -0.076943 0.343929 -0.036207
v -0.077131 0.346248 -0.037140
v -0.077076 0.345705 -0.036625
v -0.076989 0.345567 -0.037495
v -0.074871 0.122078 -0.056409
v -0.073306 0.122399 -0.055756
v -0.076502 0.335190 -0.037535
v -0.076161 0.325919 -0.037316
v -0.076678 0.343882 -0.037662
v -0.076804 0.345726 -0.036592
v -0.076669 0.345604 -0.037420
v -0.076911 0.346229 -0.037083
v -0.076003 0.316833 -0.033637
v -0.073095 0.164689 -0.058811
v -0.073427 0.174703 -0.057588
v -0.076019 0.029935 0.007055
v -0.073538 0.034734 -0.006041
v -0.074132 0.034596 -0.006592
v -0.076247 0.335323 -0.035255
v -0.075962 0.326139 -0.034437
v -0.076490 0.344034 -0.036105
v -0.076724 0.346263 -0.037028
v -0.073373 0.172476 -0.042713
v -0.073906 0.182033 -0.040697
v -0.076484 0.345804 -0.036571
v -0.075145 0.030247 0.002639
v -0.074562 0.031318 0.003242
v -0.076373 0.345693 -0.037323
v -0.076607 0.346338 -0.036930
v -0.076216 0.344001 -0.037586
v -0.075778 0.335250 -0.037336
v -0.075769 0.344139 -0.037482
v -0.073118 0.032439 -0.006893
v -0.073701 0.032257 -0.007451
v -0.076138 0.345842 -0.036537
v -0.076047 0.345889 -0.037151
v -0.075688 0.345952 -0.036602
v -0.075008 0.316703 -0.037122
v -0.075123 0.307486 -0.037434
v -0.076023 0.344163 -0.036023
v -0.075527 0.335394 -0.035035
v -0.075167 0.307503 -0.032690
v -0.072858 0.162590 -0.044431
v -0.075088 0.326186 -0.034142
v -0.075066 0.335311 -0.037112
v -0.074012 0.033623 -0.000825
v -0.075278 0.325961 -0.037072
v -0.075574 0.344302 -0.036001
v -0.073151 0.031914 -0.001036
v -0.073860 0.031403 -0.001662
v -0.075287 0.344305 -0.037321
v -0.072292 0.144543 -0.061008
v -0.072782 0.154570 -0.059956
v -0.074027 0.335526 -0.034810
v -0.074786 0.335462 -0.034884
v -0.071709 0.234526 -0.048001
v -0.071590 0.244435 -0.046147
v -0.074922 0.316842 -0.033344
v -0.072541 0.032668 -0.006329
v -0.073777 0.133950 -0.061623
v -0.071983 0.124061 -0.062832
v -0.072540 0.112455 -0.059680
v -0.071532 0.112630 -0.058559
v -0.071393 0.224649 -0.049628
v -0.072612 0.112731 -0.061087
v -0.074357 0.335375 -0.036857
v -0.073960 0.288388 -0.031892
v -0.075003 0.344363 -0.036070
v -0.074785 0.344407 -0.036954
v -0.074195 0.343510 -0.036419
v -0.072237 0.202423 -0.036823
v -0.072296 0.212594 -0.035760
v -0.072110 0.232937 -0.034057
v -0.071976 0.222694 -0.034871
v -0.071416 0.254387 -0.044210
v -0.073866 0.307494 -0.032400
v -0.074073 0.298004 -0.032077
v -0.070878 0.204792 -0.053249
v -0.071192 0.214732 -0.051323
v -0.072468 0.242986 -0.033369
v -0.072762 0.268437 -0.032412
v -0.073446 0.278338 -0.031954
v -0.073247 0.335605 -0.034893
v -0.072972 0.034943 -0.005484
v -0.074199 0.326234 -0.033905
v -0.071629 0.192268 -0.038195
v -0.073468 0.132474 -0.052414
v -0.071732 0.122578 -0.054824
v -0.073208 0.288822 -0.038963
v -0.073782 0.307475 -0.037148
v -0.073747 0.298254 -0.037811
v -0.072034 0.142439 -0.048687
v -0.072452 0.152466 -0.046283
v -0.072283 0.258382 -0.032623
v -0.074422 0.326011 -0.036755
v -0.073917 0.316724 -0.036824
v -0.073661 0.335441 -0.036543
v -0.069471 0.037188 -0.014408
v -0.071444 0.259336 -0.043500
v -0.072733 0.032710 -0.000514
v -0.072220 0.253282 -0.032763
v -0.072420 0.279150 -0.040352
v -0.073838 0.316850 -0.033084
v -0.073127 0.033498 -0.000418
v -0.069500 0.037758 -0.014056
v -0.072098 0.113203 -0.062438
v -0.071831 0.269342 -0.042051
v -0.072735 0.335631 -0.035440
v -0.069177 0.036606 -0.014553
v -0.071736 0.035232 -0.004480
v -0.072390 0.035162 -0.004928
v -0.070314 0.112878 -0.057721
v -0.073302 0.326282 -0.033768
v -0.073027 0.335537 -0.036088
v -0.070370 0.182261 -0.040290
v -0.069293 0.038218 -0.013601
v -0.071318 0.132442 -0.051236
v -0.071455 0.033218 -0.005225
v -0.071987 0.032930 -0.005771
v -0.069736 0.184745 -0.055746
v -0.070262 0.194748 -0.054567
v -0.073598 0.326066 -0.036376
v -0.068116 0.035982 -0.014084
v -0.068684 0.036180 -0.014423
v -0.068933 0.038544 -0.013121
v -0.072175 0.288474 -0.031685
v -0.072539 0.298024 -0.031870
v -0.072366 0.326325 -0.033844
v -0.071407 0.278544 -0.031824
v -0.072904 0.316755 -0.036406
v -0.069698 0.172453 -0.042165
v -0.070978 0.033636 -0.004719
v -0.072480 0.307506 -0.032210
v -0.072749 0.316897 -0.032912
v -0.071132 0.134410 -0.062135
v -0.072433 0.307509 -0.036710
v -0.071061 0.113756 -0.063556
v -0.071222 0.288869 -0.038211
v -0.072146 0.298276 -0.037314
v -0.067597 0.036068 -0.013635
v -0.072824 0.326128 -0.035914
v -0.068473 0.038741 -0.012650
v -0.070070 0.122681 -0.053824
v -0.070448 0.268620 -0.032094
v -0.069355 0.174742 -0.057000
v -0.069551 0.162506 -0.043889
v -0.069263 0.112980 -0.056584
v -0.071656 0.316986 -0.032985
v -0.071827 0.326299 -0.034488
v -0.067135 0.036293 -0.013159
v -0.070992 0.034990 -0.004171
v -0.069192 0.154592 -0.059345
v -0.069233 0.164650 -0.058226
v -0.072153 0.326208 -0.035301
v -0.068016 0.038945 -0.012179
v -0.071950 0.316825 -0.035782
v -0.071205 0.307555 -0.035997
v -0.069364 0.152380 -0.045695
v -0.071253 0.316920 -0.034912
v -0.070666 0.034308 -0.004273
v -0.068579 0.103505 -0.061253
v -0.068741 0.103544 -0.062633
v -0.066722 0.036587 -0.012674
v -0.068113 0.103595 -0.060016
v -0.071007 0.298088 -0.032234
v -0.070461 0.288580 -0.032189
v -0.071178 0.307541 -0.032476
v -0.069548 0.253345 -0.032486
v -0.068856 0.232959 -0.034051
v -0.069379 0.243052 -0.033193
v -0.070711 0.298284 -0.036428
v -0.070171 0.279107 -0.039387
v -0.067515 0.039074 -0.011722
v -0.071075 0.316990 -0.033822
v -0.069025 0.144707 -0.060488
v -0.068603 0.202583 -0.037262
v -0.068533 0.222683 -0.035067
v -0.068739 0.212640 -0.036126
v -0.069699 0.258505 -0.032309
v -0.068116 0.192613 -0.038797
v -0.069565 0.278788 -0.032360
v -0.068399 0.103827 -0.063945
v -0.068894 0.132433 -0.050660
v -0.069156 0.142316 -0.048027
v -0.066365 0.036949 -0.012191
v -0.069745 0.124550 -0.063236
v -0.069555 0.114308 -0.064332
v -0.067846 0.114715 -0.064521
v -0.069304 0.269236 -0.040630
v -0.066948 0.038951 -0.011377
v -0.068128 0.244195 -0.044192
v -0.067529 0.224446 -0.047352
v -0.067935 0.234289 -0.045814
v -0.070349 0.307578 -0.033469
v -0.066978 0.182667 -0.040916
v -0.066112 0.037399 -0.011728
v -0.068536 0.259277 -0.041895
v -0.068284 0.254257 -0.042527
v -0.068286 0.268802 -0.032227
v -0.068098 0.122873 -0.053375
v -0.070402 0.307577 -0.034852
v -0.069737 0.288864 -0.036928
v -0.068687 0.279057 -0.037738
v -0.067358 0.214482 -0.049122
v -0.069919 0.298182 -0.033399
v -0.068374 0.134735 -0.061788
v -0.066374 0.104703 -0.065571
v -0.067569 0.104255 -0.064988
v -0.069266 0.288697 -0.033498
v -0.066101 0.037971 -0.011367
v -0.066426 0.038572 -0.011233
v -0.066578 0.194644 -0.052370
v -0.067071 0.204617 -0.050993
v -0.069827 0.298255 -0.035021
v -0.066518 0.172623 -0.042692
v -0.066685 0.103803 -0.057661
v -0.067458 0.103681 -0.058814
v -0.068000 0.113175 -0.055662
v -0.066421 0.113458 -0.055369
v -0.069014 0.288804 -0.035242
v -0.067399 0.124814 -0.062939
v -0.066225 0.184612 -0.053625
v -0.067052 0.253441 -0.032771
v -0.067327 0.258651 -0.032527
v -0.066534 0.152523 -0.046369
v -0.066530 0.162591 -0.044371
v -0.068343 0.278942 -0.033848
v -0.067033 0.268962 -0.033960
v -0.064642 0.042219 -0.020465
v -0.064401 0.041147 -0.021110
v -0.064648 0.041699 -0.020860
v -0.066028 0.233073 -0.034656
v -0.066651 0.243190 -0.033624
v -0.066479 0.142462 -0.048649
v -0.065994 0.174533 -0.055001
v -0.067552 0.269159 -0.038565
v -0.064507 0.042691 -0.020019
v -0.065607 0.104020 -0.056852
v -0.068024 0.279018 -0.035770
v -0.066153 0.154444 -0.057644
v -0.066009 0.164434 -0.056324
v -0.063894 0.040722 -0.021087
v -0.066484 0.132707 -0.051200
v -0.065912 0.134803 -0.060668
v -0.066207 0.144638 -0.059039
v -0.064335 0.043137 -0.019565
v -0.065590 0.222755 -0.035989
v -0.065339 0.094674 -0.063087
v -0.065348 0.202842 -0.038814
v -0.065624 0.212767 -0.037521
v -0.063319 0.040587 -0.020801
v -0.064919 0.193019 -0.040548
v -0.064907 0.094866 -0.060732
v -0.065203 0.094749 -0.061881
v -0.066261 0.254081 -0.040159
v -0.066584 0.259178 -0.039602
v -0.063541 0.043644 -0.018644
v -0.063997 0.043460 -0.019093
v -0.065094 0.094719 -0.064281
v -0.065917 0.258838 -0.034534
v -0.065831 0.243978 -0.041666
v -0.062817 0.040691 -0.020387
v -0.064489 0.095008 -0.059613
v -0.064217 0.183043 -0.042434
v -0.066024 0.123157 -0.053706
v -0.064844 0.113745 -0.055752
v -0.066833 0.269083 -0.036230
v -0.064264 0.104335 -0.056749
v -0.065408 0.234015 -0.043046
v -0.066026 0.114982 -0.064222
v -0.064996 0.105081 -0.065554
v -0.064381 0.094901 -0.065192
v -0.064918 0.224115 -0.044533
v -0.063026 0.043700 -0.018250
v -0.065284 0.124859 -0.062095
v -0.064763 0.214074 -0.046346
v -0.062386 0.040914 -0.019931
v -0.063970 0.194353 -0.049609
v -0.064399 0.204277 -0.048142
v -0.065009 0.243464 -0.035880
v -0.065611 0.253649 -0.034882
v -0.065777 0.259011 -0.037057
v -0.062459 0.043501 -0.018017
v -0.061726 0.041585 -0.018989
v -0.062019 0.041216 -0.019460
v -0.063892 0.095179 -0.058585
v -0.064394 0.233373 -0.036981
v -0.064137 0.162837 -0.045914
v -0.064405 0.142801 -0.050156
v -0.064256 0.152801 -0.047870
v -0.064056 0.172893 -0.044276
v -0.064572 0.133139 -0.052607
v -0.064313 0.123541 -0.054976
v -0.061956 0.043112 -0.017986
v -0.063368 0.095177 -0.065678
v -0.065451 0.253865 -0.037519
v -0.063663 0.174157 -0.052427
v -0.063785 0.184297 -0.050894
v -0.064081 0.154110 -0.055330
v -0.064149 0.134571 -0.058927
v -0.064214 0.144326 -0.057025
v -0.063831 0.164083 -0.053834
v -0.061560 0.042040 -0.018544
v -0.061645 0.042583 -0.018192
v -0.064354 0.115076 -0.063445
v -0.063630 0.105348 -0.065117
v -0.062352 0.105485 -0.064281
v -0.063603 0.114072 -0.056838
v -0.064793 0.243750 -0.038786
v -0.064190 0.233710 -0.039986
v -0.063667 0.213130 -0.040106
v -0.061913 0.095751 -0.057793
v -0.063012 0.095427 -0.057868
v -0.063801 0.223168 -0.038446
v -0.062120 0.085908 -0.060878
v -0.062081 0.085492 -0.062872
v -0.062265 0.085651 -0.061885
v -0.062939 0.193492 -0.043256
v -0.063323 0.203292 -0.041572
v -0.063633 0.124688 -0.060658
v -0.061846 0.086192 -0.059910
v -0.061404 0.085529 -0.063650
v -0.061175 0.095766 -0.065046
v -0.062234 0.095486 -0.065572
v -0.062582 0.183463 -0.044908
v -0.063430 0.213604 -0.043266
v -0.063650 0.223694 -0.041477
v -0.063035 0.104660 -0.057356
v -0.062112 0.104936 -0.058485
v -0.060332 0.046837 -0.027290
v -0.060118 0.046290 -0.027619
v -0.060344 0.047348 -0.026864
v -0.063103 0.143275 -0.052237
v -0.063139 0.123946 -0.056734
v -0.063410 0.133640 -0.054551
v -0.060041 0.048252 -0.025910
v -0.060236 0.047824 -0.026397
v -0.061026 0.086804 -0.058090
v -0.061486 0.086495 -0.058982
v -0.059629 0.045851 -0.027682
v -0.063027 0.203825 -0.044933
v -0.063132 0.114981 -0.062023
v -0.061470 0.105484 -0.063003
v -0.062788 0.114420 -0.058341
v -0.060942 0.096031 -0.058412
v -0.062891 0.153207 -0.050090
v -0.063140 0.143846 -0.054672
v -0.062573 0.173259 -0.046670
v -0.062828 0.124348 -0.058754
v -0.063226 0.134159 -0.056789
v -0.062757 0.163214 -0.048293
v -0.062734 0.163651 -0.051091
v -0.062957 0.153677 -0.052735
v -0.059768 0.048630 -0.025418
v -0.062471 0.183901 -0.047910
v -0.062596 0.193973 -0.046528
v -0.059032 0.045700 -0.027435
v -0.060326 0.087153 -0.057428
v -0.062408 0.173713 -0.049560
v -0.061388 0.105172 -0.059880
v -0.058863 0.049038 -0.024508
v -0.059390 0.048936 -0.024925
v -0.060497 0.085725 -0.064035
v -0.058519 0.045829 -0.027008
v -0.062583 0.114746 -0.060188
v -0.058268 0.048818 -0.024315
v -0.060257 0.096211 -0.059389
v -0.059383 0.087498 -0.057320
v -0.058133 0.046120 -0.026526
v -0.061144 0.105372 -0.061462
v -0.057821 0.046477 -0.026034
v -0.060384 0.095985 -0.064200
v -0.059023 0.077473 -0.058239
v -0.059190 0.077060 -0.059019
v -0.059553 0.086068 -0.063888
v -0.058719 0.077916 -0.057484
v -0.059787 0.096293 -0.060546
v -0.058997 0.076731 -0.059868
v -0.057582 0.046877 -0.025546
v -0.057771 0.048395 -0.024355
v -0.058528 0.087704 -0.057807
v -0.058353 0.078360 -0.056792
v -0.057450 0.047337 -0.025069
v -0.057494 0.047864 -0.024638
v -0.057937 0.078788 -0.056139
v -0.059835 0.096147 -0.063079
v -0.057561 0.076817 -0.060721
v -0.058400 0.076639 -0.060495
v -0.058732 0.086454 -0.063384
v -0.059636 0.096259 -0.061823
v -0.057364 0.079199 -0.055597
v -0.057957 0.087724 -0.058677
v -0.056742 0.077175 -0.060552
v -0.057727 0.087144 -0.061700
v -0.058127 0.086820 -0.062608
v -0.056881 0.052291 -0.033705
v -0.056929 0.052848 -0.033260
v -0.056596 0.051738 -0.034041
v -0.056776 0.053354 -0.032773
v -0.056030 0.051326 -0.034132
v -0.056495 0.053795 -0.032282
v -0.057571 0.087416 -0.060687
v -0.057644 0.087615 -0.059671
v -0.055652 0.054478 -0.031341
v -0.056111 0.054176 -0.031800
v -0.055358 0.051183 -0.033942
v -0.056584 0.079543 -0.055395
v -0.056576 0.070016 -0.053339
v -0.056599 0.069483 -0.053981
v -0.056340 0.070545 -0.052773
v -0.055666 0.068886 -0.055021
v -0.056322 0.069068 -0.054575
v -0.055093 0.054673 -0.030923
v -0.056067 0.077628 -0.060094
v -0.055937 0.071072 -0.052277
v -0.054761 0.051310 -0.033572
v -0.055284 0.079623 -0.056365
v -0.055795 0.079706 -0.055701
v -0.055439 0.071571 -0.051841
v -0.054407 0.054581 -0.030683
v -0.053928 0.052021 -0.032611
v -0.054293 0.051614 -0.033112
v -0.055570 0.078100 -0.059469
v -0.055053 0.079353 -0.057183
v -0.053672 0.052492 -0.032101
v -0.053523 0.053579 -0.031123
v -0.053820 0.054153 -0.030774
v -0.055221 0.078555 -0.058752
v -0.055054 0.078975 -0.057988
v -0.053524 0.053016 -0.031594
v -0.054881 0.069007 -0.055173
v -0.054145 0.072383 -0.051315
v -0.054857 0.072030 -0.051482
v -0.054976 0.057709 -0.040470
v -0.055100 0.058310 -0.040026
v -0.054605 0.057153 -0.040843
v -0.054964 0.058895 -0.039555
v -0.053533 0.069828 -0.054742
v -0.054148 0.069376 -0.055029
v -0.055073 0.063744 -0.046995
v -0.055017 0.063144 -0.047514
v -0.053367 0.072519 -0.051472
v -0.054619 0.059413 -0.039096
v -0.054343 0.064834 -0.046132
v -0.054820 0.064333 -0.046513
v -0.054597 0.062671 -0.047962
v -0.054115 0.059838 -0.038679
v -0.053041 0.070323 -0.054331
v -0.053961 0.056784 -0.041020
v -0.053770 0.065261 -0.045821
v -0.053941 0.062394 -0.048276
v -0.053490 0.060160 -0.038329
v -0.053151 0.065669 -0.045546
v -0.052505 0.056858 -0.040720
v -0.053194 0.056677 -0.040974
v -0.052449 0.071937 -0.052578
v -0.052761 0.072339 -0.051961
v -0.052671 0.070873 -0.053795
v -0.052030 0.060420 -0.037891
v -0.052786 0.060376 -0.038044
v -0.052462 0.071409 -0.053215
v -0.052410 0.062697 -0.048203
v -0.053153 0.062413 -0.048355
v -0.052484 0.066005 -0.045319
v -0.051937 0.057224 -0.040336
v -0.051379 0.060049 -0.038058
v -0.051507 0.057690 -0.039888
v -0.051767 0.063134 -0.047919
v -0.051719 0.066138 -0.045291
v -0.051199 0.058228 -0.039410
v -0.051038 0.058822 -0.038920
v -0.051060 0.059452 -0.038445
v -0.051011 0.065912 -0.045581
v -0.051240 0.063648 -0.047544
v -0.050627 0.065417 -0.046068
v -0.050632 0.064806 -0.046606
v -0.050846 0.064202 -0.047106
usemtl Flexor_digitorum_longus_rMaterial0
f 1 2 3
f 4 1 3
f 5 2 1
f 6 5 1
f 4 6 1
f 2 7 3
f 8 4 3
f 8 3 7
f 9 2 5
f 6 10 5
f 10 9 5
f 2 11 7
f 9 11 2
f 12 6 4
f 13 10 6
f 12 13 6
f 14 12 4
f 14 4 8
f 15 7 11
f 11 9 15
f 13 16 10
f 10 17 9
f 16 17 10
f 18 8 7
f 18 7 15
f 19 13 12
f 20 16 13
f 20 13 19
f 17 15 9
f 21 12 14
f 19 12 21
f 16 22 17
f 20 22 16
f 23 14 8
f 23 8 18
f 17 18 15
f 22 18 17
f 24 14 23
f 21 14 24
f 22 23 18
f 23 22 25
f 20 25 22
f 19 21 26
f 20 19 27
f 19 26 27
f 24 23 28
f 23 25 28
f 21 24 29
f 21 29 26
f 30 25 20
f 20 27 31
f 30 20 31
f 24 28 32
f 24 32 29
f 30 28 25
f 30 32 28
f 33 31 27
f 33 27 26
f 30 31 34
f 33 34 31
f 35 26 29
f 33 26 35
f 36 32 30
f 30 34 37
f 36 30 37
f 38 29 32
f 35 29 38
f 38 32 36
f 39 34 33
f 33 35 40
f 39 33 41
f 33 40 41
f 39 37 34
f 35 38 42
f 35 42 40
f 36 37 43
f 39 43 37
f 38 36 44
f 38 44 42
f 36 43 44
f 39 41 45
f 46 41 40
f 46 45 41
f 47 43 39
f 39 45 48
f 47 39 48
f 46 40 42
f 49 44 43
f 49 43 47
f 50 42 44
f 46 42 50
f 50 44 49
f 51 48 45
f 51 45 46
f 47 48 52
f 51 52 48
f 46 50 53
f 51 46 54
f 46 53 54
f 55 56 57
f 58 56 55
f 57 59 55
f 60 55 59
f 60 58 55
f 49 47 61
f 47 52 61
f 50 49 62
f 50 62 53
f 56 63 57
f 58 64 56
f 56 65 63
f 64 65 56
f 66 52 51
f 51 54 67
f 66 51 68
f 51 67 68
f 49 61 62
f 57 69 59
f 57 63 69
f 70 60 59
f 70 59 69
f 71 61 52
f 71 52 66
f 72 64 58
f 73 58 60
f 73 72 58
f 74 63 65
f 69 63 74
f 75 54 53
f 75 67 54
f 64 76 65
f 72 77 64
f 77 76 64
f 78 60 70
f 78 73 60
f 76 74 65
f 79 69 74
f 79 70 69
f 80 62 61
f 80 61 71
f 81 77 72
f 72 73 82
f 81 72 83
f 72 82 83
f 76 79 74
f 77 84 76
f 84 79 76
f 75 53 62
f 85 70 79
f 85 78 70
f 86 84 77
f 86 77 81
f 66 68 87
f 88 68 67
f 88 87 68
f 89 73 78
f 89 82 73
f 84 85 79
f 75 62 80
f 71 66 90
f 66 87 90
f 91 85 84
f 91 84 86
f 89 78 85
f 88 67 75
f 89 85 91
f 81 83 92
f 93 83 82
f 93 92 83
f 86 81 94
f 81 92 94
f 80 71 95
f 71 90 95
f 93 82 89
f 75 80 96
f 88 75 97
f 75 96 97
f 91 86 98
f 86 94 98
f 89 91 99
f 93 89 100
f 89 99 100
f 80 95 96
f 101 90 87
f 102 87 88
f 101 87 102
f 103 92 93
f 104 94 92
f 104 92 103
f 91 98 99
f 105 95 90
f 105 90 101
f 88 97 106
f 102 88 107
f 88 106 107
f 103 93 108
f 93 100 109
f 93 109 108
f 110 98 94
f 110 94 104
f 111 96 95
f 111 95 105
f 103 108 112
f 104 103 113
f 103 112 113
f 114 99 98
f 114 98 110
f 114 100 99
f 114 109 100
f 111 97 96
f 111 106 97
f 115 108 109
f 115 112 108
f 104 113 116
f 110 104 116
f 101 102 117
f 102 107 118
f 102 118 117
f 119 113 112
f 120 116 113
f 120 113 119
f 114 110 121
f 110 116 121
f 105 101 122
f 101 117 122
f 115 109 114
f 123 107 106
f 123 118 107
f 114 121 124
f 115 114 124
f 125 112 115
f 119 112 125
f 126 121 116
f 126 116 120
f 111 105 127
f 105 122 127
f 123 106 111
f 126 124 121
f 115 124 128
f 125 115 129
f 115 128 129
f 120 119 130
f 119 125 131
f 119 131 130
f 111 127 132
f 123 111 132
f 126 128 124
f 133 122 117
f 134 117 118
f 133 117 134
f 126 120 135
f 120 130 135
f 125 129 136
f 125 136 131
f 137 127 122
f 137 122 133
f 138 118 123
f 134 118 138
f 139 128 126
f 126 135 140
f 139 126 140
f 139 129 128
f 139 136 129
f 141 135 130
f 142 130 131
f 141 130 142
f 137 132 127
f 123 132 143
f 138 123 144
f 123 143 144
f 137 143 132
f 141 140 135
f 142 131 145
f 145 131 136
f 146 147 148
f 148 147 149
f 148 150 146
f 151 150 148
f 148 149 152
f 151 148 152
f 133 134 153
f 134 138 154
f 134 154 153
f 155 147 146
f 147 156 149
f 155 157 147
f 147 157 156
f 137 133 158
f 133 153 158
f 141 142 159
f 142 145 160
f 142 160 159
f 141 161 140
f 139 140 161
f 138 144 162
f 138 162 154
f 146 150 163
f 146 163 155
f 164 150 151
f 164 163 150
f 152 149 165
f 152 165 166
f 167 152 166
f 167 151 152
f 168 136 139
f 145 136 168
f 149 169 165
f 149 156 169
f 170 157 155
f 155 163 170
f 166 165 171
f 172 167 166
f 166 171 173
f 172 166 173
f 141 159 174
f 175 161 141
f 175 141 174
f 176 151 167
f 176 164 151
f 139 161 177
f 168 139 177
f 178 143 137
f 137 158 179
f 178 137 179
f 178 144 143
f 178 162 144
f 157 180 156
f 157 170 180
f 165 181 171
f 165 169 181
f 164 170 163
f 145 168 182
f 145 182 160
f 183 167 172
f 183 176 167
f 173 171 184
f 185 172 173
f 173 184 186
f 185 173 186
f 156 187 169
f 156 180 187
f 164 180 170
f 176 180 164
f 171 188 184
f 171 181 188
f 189 174 159
f 189 159 160
f 190 172 185
f 190 183 172
f 169 187 191
f 169 191 181
f 176 187 180
f 186 184 192
f 193 185 186
f 186 192 194
f 193 186 194
f 183 187 176
f 195 158 153
f 196 153 154
f 195 153 196
f 175 177 161
f 184 197 192
f 184 188 197
f 183 191 187
f 181 191 198
f 181 198 188
f 189 199 174
f 175 174 199
f 200 185 193
f 200 190 185
f 195 179 158
f 168 177 201
f 168 201 182
f 190 191 183
f 202 154 162
f 196 154 202
f 203 194 192
f 193 194 204
f 203 204 194
f 189 160 205
f 205 160 182
f 203 192 197
f 190 198 191
f 188 198 206
f 188 206 197
f 200 193 207
f 193 204 207
f 200 198 190
f 175 201 177
f 208 162 178
f 202 162 208
f 178 179 209
f 195 209 179
f 200 206 198
f 210 197 206
f 203 197 210
f 211 199 189
f 189 205 212
f 211 189 213
f 189 212 213
f 214 206 200
f 200 207 215
f 214 200 215
f 175 199 216
f 217 201 175
f 217 175 216
f 218 204 203
f 219 207 204
f 219 204 218
f 178 209 220
f 208 178 220
f 210 206 214
f 211 216 199
f 205 182 221
f 221 182 201
f 203 210 222
f 218 203 223
f 203 222 223
f 219 215 207
f 195 196 224
f 196 202 225
f 196 225 224
f 205 221 226
f 205 226 212
f 221 201 217
f 210 214 227
f 210 227 222
f 228 209 195
f 195 224 229
f 228 195 229
f 214 215 230
f 219 230 215
f 218 223 231
f 219 218 232
f 218 231 232
f 202 208 233
f 202 233 225
f 214 230 227
f 234 223 222
f 234 231 223
f 211 235 216
f 217 216 235
f 211 213 236
f 237 213 212
f 237 236 213
f 219 232 238
f 239 230 219
f 239 219 238
f 221 217 240
f 221 240 226
f 241 235 211
f 211 236 242
f 241 211 242
f 228 220 209
f 208 220 243
f 208 243 233
f 244 232 231
f 244 238 232
f 234 222 227
f 237 212 226
f 217 235 240
f 245 227 230
f 245 230 239
f 228 243 220
f 244 231 246
f 246 231 234
f 244 247 238
f 239 238 247
f 234 227 245
f 248 240 235
f 248 235 241
f 244 246 249
f 250 247 244
f 244 249 251
f 250 244 251
f 252 242 236
f 252 236 237
f 253 229 224
f 253 224 225
f 254 226 240
f 237 226 254
f 246 234 255
f 234 245 256
f 234 256 255
f 239 247 257
f 245 239 257
f 228 229 258
f 253 258 229
f 246 255 259
f 246 259 249
f 260 225 233
f 253 225 260
f 241 242 261
f 252 261 242
f 262 257 247
f 262 247 250
f 254 240 248
f 252 237 263
f 237 254 264
f 237 264 263
f 245 257 256
f 265 251 249
f 250 251 266
f 265 266 251
f 267 243 228
f 228 258 268
f 267 228 268
f 269 255 256
f 269 259 255
f 270 233 243
f 260 233 270
f 269 256 257
f 269 257 262
f 241 261 271
f 248 241 271
f 272 261 252
f 252 263 273
f 272 252 274
f 252 273 274
f 265 249 259
f 250 266 275
f 262 250 275
f 254 248 276
f 254 276 264
f 270 243 267
f 277 271 261
f 277 261 272
f 278 275 266
f 279 266 265
f 278 266 279
f 248 271 276
f 280 263 264
f 280 273 263
f 281 258 253
f 253 260 282
f 281 253 283
f 253 282 283
f 265 259 284
f 284 259 269
f 262 275 285
f 269 262 285
f 286 285 275
f 286 275 278
f 279 265 287
f 265 284 288
f 265 288 287
f 281 268 258
f 260 270 289
f 260 289 282
f 290 276 271
f 290 271 277
f 272 274 291
f 292 274 273
f 292 291 274
f 278 279 293
f 279 287 294
f 279 294 293
f 284 269 295
f 269 285 295
f 280 264 276
f 272 291 296
f 277 272 296
f 280 276 290
f 292 273 280
f 284 295 297
f 284 297 288
f 286 295 285
f 267 268 298
f 281 298 268
f 270 267 299
f 270 299 289
f 278 293 300
f 286 278 300
f 301 287 288
f 301 294 287
f 302 300 293
f 303 293 294
f 302 293 303
f 267 298 299
f 286 297 295
f 304 296 291
f 305 291 292
f 304 291 305
f 277 296 306
f 290 277 306
f 280 290 307
f 292 280 308
f 280 307 308
f 281 283 309
f 310 283 282
f 310 309 283
f 311 306 296
f 311 296 304
f 286 300 312
f 302 312 300
f 301 288 297
f 313 297 286
f 313 286 312
f 290 306 307
f 305 292 314
f 292 308 315
f 292 315 314
f 303 294 316
f 316 294 301
f 317 298 281
f 281 309 318
f 317 281 318
f 310 282 289
f 301 297 313
f 304 305 319
f 305 314 320
f 305 320 319
f 302 303 321
f 303 316 322
f 303 322 321
f 323 307 306
f 323 306 311
f 323 308 307
f 323 315 308
f 302 324 312
f 313 312 324
f 316 301 325
f 301 313 326
f 301 326 325
f 327 299 298
f 327 298 317
f 328 289 299
f 310 289 328
f 329 324 302
f 302 321 330
f 329 302 330
f 304 319 331
f 311 304 331
f 316 325 332
f 316 332 322
f 333 314 315
f 333 320 314
f 328 299 327
f 334 335 336
f 337 334 336
f 336 335 338
f 337 336 339
f 336 338 339
f 313 324 326
f 340 309 310
f 340 318 309
f 341 342 334
f 343 341 334
f 334 342 335
f 343 334 337
f 344 326 324
f 344 324 329
f 345 330 321
f 345 321 322
f 346 331 319
f 347 319 320
f 346 319 347
f 344 325 326
f 344 332 325
f 311 331 348
f 323 311 348
f 310 328 349
f 340 310 350
f 310 349 350
f 351 317 318
f 340 352 318
f 351 318 352
f 329 330 353
f 345 353 330
f 341 354 342
f 355 354 341
f 356 355 341
f 356 341 343
f 333 315 323
f 357 348 331
f 357 331 346
f 342 338 335
f 358 322 332
f 345 322 358
f 359 337 339
f 359 339 338
f 347 320 360
f 360 320 333
f 323 348 361
f 333 323 361
f 354 359 342
f 342 359 338
f 362 343 337
f 362 337 359
f 344 329 363
f 329 353 363
f 355 364 354
f 365 364 355
f 356 366 355
f 365 355 366
f 364 362 354
f 354 362 359
f 328 327 367
f 328 367 349
f 327 317 351
f 368 356 343
f 368 343 362
f 369 332 344
f 358 332 369
f 370 353 345
f 345 358 371
f 370 345 372
f 345 371 372
f 357 361 348
f 346 347 373
f 347 360 374
f 347 374 373
f 327 351 367
f 344 363 375
f 369 344 375
f 376 363 353
f 376 353 370
f 377 352 340
f 377 340 350
f 358 369 378
f 358 378 371
f 360 333 379
f 333 361 380
f 333 380 379
f 364 368 362
f 381 368 364
f 381 364 365
f 356 382 366
f 356 368 381
f 356 381 382
f 357 346 383
f 346 373 383
f 384 365 366
f 385 366 382
f 384 366 385
f 351 352 386
f 377 386 352
f 360 379 387
f 360 387 374
f 377 350 388
f 389 350 349
f 389 388 350
f 357 380 361
f 376 375 363
f 370 372 390
f 391 372 371
f 391 390 372
f 369 375 392
f 369 392 378
f 381 365 384
f 385 382 393
f 381 393 382
f 370 390 394
f 376 370 394
f 376 392 375
f 384 385 395
f 395 385 393
f 357 383 396
f 397 380 357
f 397 357 396
f 398 383 373
f 399 373 374
f 398 373 399
f 391 371 378
f 351 400 367
f 351 386 401
f 351 401 400
f 397 379 380
f 397 387 379
f 381 384 402
f 381 402 393
f 403 386 377
f 403 377 388
f 389 349 367
f 398 396 383
f 384 395 404
f 384 405 402
f 384 404 405
f 389 367 400
f 406 394 390
f 407 390 391
f 406 390 407
f 399 374 408
f 408 374 387
f 395 393 409
f 409 393 402
f 376 394 410
f 411 392 376
f 411 376 410
f 395 412 413
f 395 414 412
f 395 413 404
f 395 409 414
f 403 415 386
f 386 416 401
f 386 415 416
f 391 378 417
f 417 378 392
f 403 388 418
f 389 418 388
f 406 410 394
f 409 402 405
f 414 419 412
f 420 412 419
f 420 413 412
f 407 391 421
f 391 417 422
f 391 422 421
f 423 404 413
f 423 405 404
f 417 392 411
f 398 399 424
f 399 408 425
f 399 425 424
f 398 426 396
f 397 396 426
f 414 409 405
f 406 407 427
f 407 421 428
f 407 428 427
f 408 387 429
f 429 387 397
f 398 424 430
f 431 426 398
f 431 398 430
f 432 403 418
f 403 433 415
f 432 434 403
f 403 434 433
f 414 435 419
f 436 419 435
f 437 420 419
f 437 419 436
f 438 413 420
f 438 423 413
f 416 400 401
f 414 405 423
f 414 438 435
f 414 423 438
f 408 429 439
f 408 439 425
f 397 426 440
f 429 397 440
f 406 441 410
f 411 410 441
f 417 411 442
f 417 442 422
f 406 427 443
f 444 406 443
f 444 441 406
f 389 445 418
f 446 418 445
f 446 432 418
f 389 430 424
f 389 424 425
f 436 435 447
f 438 447 435
f 415 448 416
f 415 433 448
f 449 428 421
f 449 421 422
f 389 400 450
f 416 450 400
f 438 420 437
f 451 436 447
f 437 436 451
f 431 440 426
f 452 443 427
f 452 427 428
f 389 453 430
f 454 430 453
f 454 431 430
f 411 441 442
f 439 429 440
f 389 425 455
f 439 455 425
f 389 456 445
f 389 450 453
f 389 455 456
f 438 457 447
f 451 447 458
f 458 447 457
f 438 437 457
f 452 459 443
f 444 443 459
f 431 460 440
f 439 440 460
f 437 451 461
f 451 462 463
f 451 464 462
f 451 458 464
f 451 463 461
f 465 442 441
f 465 441 444
f 432 466 434
f 433 434 466
f 437 467 457
f 437 461 467
f 446 445 456
f 452 428 468
f 468 428 449
f 449 422 442
f 454 453 450
f 454 460 431
f 469 459 452
f 452 468 470
f 469 452 471
f 452 470 471
f 439 472 455
f 472 456 455
f 473 432 446
f 432 474 466
f 473 474 432
f 416 475 450
f 454 450 475
f 416 476 475
f 416 448 477
f 416 477 476
f 439 460 478
f 439 478 472
f 433 466 479
f 433 480 448
f 433 479 480
f 458 457 467
f 449 442 465
f 464 481 462
f 482 462 481
f 482 463 462
f 444 459 483
f 484 459 469
f 484 483 459
f 454 478 460
f 464 458 467
f 485 454 475
f 485 478 454
f 465 444 483
f 486 467 461
f 486 461 463
f 468 449 487
f 468 488 470
f 468 487 488
f 469 471 489
f 490 471 470
f 490 489 471
f 449 465 491
f 449 491 487
f 446 456 492
f 472 493 456
f 494 456 493
f 494 492 456
f 473 446 492
f 485 472 478
f 485 493 472
f 485 475 476
f 464 495 481
f 496 481 495
f 497 481 496
f 497 482 481
f 498 466 474
f 499 479 466
f 499 466 498
f 469 489 500
f 484 469 500
f 480 477 448
f 464 467 486
f 465 483 491
f 501 463 482
f 501 486 463
f 464 501 495
f 464 486 501
f 502 491 483
f 502 483 484
f 490 470 488
f 473 503 474
f 498 474 503
f 485 476 504
f 477 504 476
f 505 500 489
f 506 489 490
f 505 489 506
f 502 487 491
f 502 488 487
f 480 479 499
f 494 493 485
f 494 485 504
f 473 492 507
f 494 507 492
f 484 500 508
f 509 500 505
f 509 508 500
f 496 495 510
f 497 496 511
f 511 496 510
f 501 482 497
f 512 473 507
f 473 513 503
f 512 513 473
f 502 484 508
f 490 488 514
f 506 490 515
f 490 516 515
f 490 514 516
f 501 510 495
f 480 517 477
f 477 518 504
f 517 518 477
f 514 488 502
f 480 499 519
f 480 520 517
f 480 519 520
f 505 506 521
f 506 522 521
f 506 515 522
f 523 494 504
f 523 504 518
f 524 498 503
f 499 498 524
f 505 521 525
f 509 505 525
f 502 508 526
f 514 502 526
f 509 526 508
f 497 511 527
f 511 510 528
f 511 529 530
f 511 530 531
f 511 531 527
f 511 528 529
f 501 497 532
f 497 527 533
f 497 533 532
f 494 534 507
f 535 507 534
f 535 512 507
f 501 532 510
f 528 510 532
f 536 525 521
f 537 521 522
f 536 521 537
f 538 503 513
f 524 503 538
f 539 522 515
f 539 515 516
f 523 534 494
f 514 526 540
f 514 540 516
f 499 541 519
f 499 524 542
f 499 542 541
f 517 543 518
f 544 543 517
f 544 517 520
f 523 518 543
f 509 525 545
f 536 545 525
f 509 540 526
f 529 546 530
f 547 530 546
f 547 531 530
f 512 548 513
f 538 513 548
f 537 522 549
f 536 537 550
f 537 551 550
f 537 549 551
f 552 540 509
f 552 509 545
f 549 522 539
f 553 527 531
f 553 533 527
f 528 532 533
f 529 528 533
f 554 520 519
f 554 519 541
f 539 516 540
f 523 555 534
f 556 535 534
f 556 534 555
f 523 543 557
f 544 557 543
f 529 558 546
f 559 546 558
f 560 546 559
f 560 547 546
f 536 550 561
f 523 561 550
f 523 550 551
f 536 562 545
f 563 536 561
f 563 562 536
f 535 564 512
f 512 564 548
f 539 540 552
f 529 533 553
f 529 565 558
f 529 553 565
f 549 539 566
f 549 567 551
f 549 566 567
f 565 531 547
f 565 553 531
f 524 538 568
f 524 569 542
f 524 568 570
f 524 570 569
f 552 545 562
f 523 571 561
f 523 557 572
f 523 551 573
f 523 574 555
f 523 572 571
f 523 573 574
f 554 544 520
f 559 558 575
f 560 559 576
f 576 559 575
f 568 538 548
f 539 552 577
f 539 577 566
f 563 561 571
f 578 541 542
f 578 542 569
f 565 575 558
f 560 576 579
f 576 575 580
f 576 581 582
f 576 583 581
f 576 582 579
f 576 580 583
f 565 547 560
f 535 584 564
f 556 584 535
f 544 585 557
f 585 572 557
f 573 551 567
f 586 556 555
f 586 555 574
f 552 562 577
f 544 587 585
f 554 588 544
f 544 588 587
f 589 562 563
f 589 577 562
f 590 548 564
f 568 548 591
f 590 591 548
f 565 560 592
f 560 579 593
f 560 593 592
f 565 592 575
f 580 575 592
f 563 571 594
f 595 571 572
f 595 594 571
f 589 566 577
f 589 567 566
f 583 596 581
f 597 581 596
f 597 582 581
f 578 554 541
f 589 563 594
f 573 567 598
f 599 574 573
f 598 599 573
f 600 564 584
f 600 590 564
f 601 579 582
f 601 593 579
f 556 602 584
f 603 556 586
f 603 602 556
f 580 592 593
f 583 580 593
f 585 604 572
f 585 605 604
f 585 587 605
f 604 595 572
f 606 596 607
f 608 596 606
f 583 607 596
f 608 597 596
f 598 567 589
f 554 609 588
f 578 610 554
f 554 610 609
f 586 574 611
f 599 611 574
f 589 594 612
f 613 612 594
f 613 594 595
f 568 614 570
f 615 569 570
f 615 570 614
f 598 589 612
f 608 606 616
f 616 606 617
f 606 607 617
f 618 582 597
f 618 601 582
f 568 591 619
f 568 620 614
f 568 619 620
f 598 612 599
f 583 593 601
f 583 618 607
f 583 601 618
f 600 584 602
f 615 578 569
f 621 622 623
f 622 624 623
f 621 625 622
f 622 625 626
f 622 627 624
f 622 626 627
f 616 628 629
f 616 630 628
f 608 616 631
f 616 617 632
f 616 629 631
f 616 632 630
f 633 587 588
f 633 588 609
f 634 635 625
f 625 635 636
f 634 637 635
f 638 635 637
f 639 635 638
f 639 636 635
f 613 599 612
f 604 640 595
f 604 641 640
f 604 605 641
f 621 623 642
f 623 643 642
f 623 644 643
f 624 644 623
f 613 595 640
f 621 634 625
f 625 636 626
f 618 597 608
f 619 591 590
f 621 642 645
f 642 643 646
f 642 646 645
f 647 634 621
f 621 645 647
f 648 649 650
f 651 648 650
f 648 652 649
f 648 653 652
f 654 648 651
f 648 655 653
f 654 655 648
f 656 650 649
f 651 650 657
f 650 658 657
f 656 659 650
f 650 659 658
f 618 617 607
f 586 611 660
f 603 586 660
f 653 644 652
f 661 652 644
f 661 649 652
f 653 643 644
f 624 661 644
f 662 649 661
f 662 656 649
f 657 663 651
f 657 664 663
f 664 657 658
f 630 665 628
f 666 628 665
f 666 629 628
f 646 643 653
f 667 637 634
f 647 668 634
f 667 634 668
f 578 669 610
f 615 670 578
f 578 670 669
f 663 654 651
f 638 637 671
f 639 638 672
f 672 638 671
f 600 602 673
f 603 673 602
f 667 671 637
f 653 655 674
f 646 653 675
f 653 674 675
f 666 665 676
f 665 677 676
f 630 678 665
f 665 678 677
f 608 631 679
f 618 608 680
f 608 679 680
f 599 681 611
f 599 676 677
f 599 682 676
f 613 683 599
f 599 683 682
f 599 677 684
f 599 684 681
f 661 624 685
f 661 685 662
f 654 674 655
f 632 617 680
f 618 680 617
f 624 627 686
f 624 686 685
f 672 687 688
f 639 672 688
f 672 689 687
f 672 671 690
f 672 691 689
f 672 690 691
f 605 587 633
f 600 692 590
f 619 590 692
f 693 656 662
f 685 693 662
f 656 694 659
f 693 695 656
f 656 695 694
f 627 626 696
f 627 696 686
f 687 697 688
f 697 639 688
f 658 659 694
f 664 698 663
f 664 658 699
f 664 700 698
f 701 700 664
f 701 664 699
f 702 660 611
f 702 611 681
f 703 626 636
f 704 636 639
f 704 703 636
f 705 631 629
f 705 679 631
f 706 687 689
f 706 707 687
f 687 707 708
f 687 709 697
f 687 708 709
f 663 710 654
f 663 698 711
f 663 711 710
f 703 696 626
f 630 632 679
f 632 680 679
f 654 710 712
f 654 713 674
f 654 712 713
f 666 676 682
f 697 704 639
f 714 609 610
f 714 610 669
f 690 671 715
f 667 715 671
f 685 686 716
f 685 717 693
f 685 716 717
f 699 658 718
f 658 694 718
f 691 706 689
f 647 645 719
f 720 645 646
f 720 719 645
f 700 721 698
f 700 722 721
f 701 722 700
f 613 640 723
f 641 723 640
f 724 668 647
f 647 719 724
f 725 629 666
f 725 705 629
f 630 725 678
f 630 679 705
f 630 705 725
f 726 683 613
f 727 613 723
f 726 613 727
f 728 698 721
f 728 711 698
f 729 600 673
f 600 730 692
f 729 730 600
f 690 731 691
f 690 715 732
f 690 732 731
f 733 614 620
f 733 615 614
f 734 707 706
f 735 707 734
f 735 708 707
f 736 667 668
f 724 736 668
f 603 660 737
f 603 738 673
f 739 603 737
f 739 738 603
f 740 646 675
f 740 720 646
f 702 737 660
f 686 696 741
f 686 741 716
f 605 633 742
f 605 743 641
f 605 742 743
f 744 715 667
f 736 745 667
f 744 667 745
f 619 746 620
f 733 620 746
f 734 706 747
f 748 747 706
f 691 748 706
f 711 712 710
f 749 701 699
f 699 718 750
f 749 699 750
f 633 609 714
f 725 666 682
f 751 675 674
f 751 740 675
f 752 721 722
f 701 753 722
f 754 722 753
f 752 722 754
f 725 677 678
f 615 755 670
f 733 756 615
f 615 756 755
f 757 734 747
f 734 757 758
f 734 758 735
f 713 751 674
f 748 759 747
f 760 747 759
f 757 747 760
f 731 748 691
f 693 717 761
f 716 761 717
f 762 728 721
f 762 721 752
f 763 696 703
f 763 741 696
f 764 682 683
f 764 683 726
f 695 693 765
f 693 761 765
f 764 684 677
f 725 764 677
f 763 703 704
f 749 753 701
f 766 711 728
f 711 767 712
f 766 767 711
f 725 682 764
f 768 716 741
f 716 769 761
f 768 769 716
f 726 681 684
f 764 726 684
f 619 692 770
f 619 771 746
f 619 770 771
f 709 772 697
f 704 697 772
f 732 715 744
f 729 673 738
f 773 709 708
f 709 774 772
f 773 774 709
f 713 712 775
f 713 776 751
f 713 775 776
f 694 695 777
f 695 765 777
f 778 718 694
f 694 777 779
f 778 694 779
f 780 759 748
f 731 780 748
f 763 704 781
f 704 772 781
f 782 669 670
f 782 670 755
f 633 783 742
f 633 714 784
f 633 784 783
f 785 741 763
f 785 768 741
f 727 702 681
f 726 727 681
f 786 708 735
f 786 773 708
f 760 759 787
f 787 759 788
f 780 788 759
f 718 789 750
f 718 778 789
f 754 753 790
f 749 791 753
f 791 790 753
f 760 792 757
f 787 793 760
f 760 793 792
f 731 732 794
f 732 744 794
f 795 728 762
f 795 766 728
f 796 752 754
f 797 754 790
f 796 754 797
f 702 798 737
f 739 737 798
f 757 799 758
f 757 792 799
f 641 800 723
f 727 723 801
f 802 723 800
f 802 801 723
f 762 752 796
f 770 692 730
f 803 712 767
f 803 775 712
f 804 800 641
f 804 641 743
f 758 786 735
f 785 763 781
f 749 750 789
f 731 805 780
f 731 794 806
f 731 806 805
f 724 719 807
f 808 719 720
f 808 807 719
f 714 669 782
f 736 724 809
f 724 807 809
f 739 810 738
f 729 738 810
f 727 801 702
f 702 802 798
f 702 801 802
f 811 767 766
f 811 803 767
f 812 743 742
f 812 742 783
f 787 788 813
f 787 814 793
f 814 787 813
f 815 745 736
f 736 809 816
f 815 736 816
f 817 791 749
f 749 789 817
f 762 796 818
f 819 762 818
f 819 795 762
f 797 790 820
f 791 821 790
f 820 790 821
f 822 720 740
f 822 808 720
f 729 823 730
f 770 730 823
f 815 744 745
f 796 797 824
f 797 825 824
f 797 820 825
f 805 788 780
f 796 824 826
f 796 826 827
f 796 827 818
f 781 772 828
f 785 781 829
f 781 828 829
f 772 774 830
f 772 830 828
f 758 831 786
f 758 799 832
f 758 832 831
f 761 769 833
f 765 761 834
f 761 833 834
f 714 835 784
f 714 782 836
f 714 836 835
f 822 740 751
f 837 821 791
f 817 838 791
f 837 791 838
f 811 766 795
f 824 839 826
f 826 839 840
f 826 840 827
f 841 774 773
f 841 830 774
f 842 813 788
f 805 842 788
f 843 769 768
f 843 833 769
f 844 845 839
f 840 839 845
f 824 844 839
f 843 768 785
f 751 776 846
f 822 751 847
f 751 846 847
f 765 848 777
f 765 834 849
f 765 849 848
f 850 733 746
f 733 851 756
f 850 852 733
f 733 852 851
f 844 853 845
f 854 845 853
f 854 855 845
f 840 845 855
f 785 829 856
f 843 785 857
f 785 856 857
f 825 844 824
f 802 800 804
f 858 792 793
f 814 858 793
f 827 819 818
f 859 799 792
f 858 859 792
f 773 786 860
f 773 860 841
f 739 798 861
f 802 861 798
f 739 862 810
f 863 739 861
f 863 862 739
f 864 794 744
f 815 864 744
f 865 853 844
f 865 844 866
f 825 866 844
f 854 853 867
f 865 867 853
f 868 729 810
f 729 869 823
f 868 869 729
f 850 746 771
f 776 775 870
f 776 870 846
f 854 871 855
f 854 867 872
f 854 872 871
f 820 821 873
f 825 820 873
f 874 755 756
f 874 756 851
f 848 779 777
f 875 778 779
f 848 875 779
f 876 827 840
f 876 877 827
f 827 877 819
f 878 840 855
f 878 876 840
f 878 855 871
f 865 879 867
f 872 867 879
f 804 743 812
f 789 778 880
f 875 880 778
f 872 881 871
f 878 871 881
f 795 819 882
f 811 795 883
f 795 882 883
f 884 879 865
f 885 865 866
f 884 865 886
f 885 886 865
f 887 783 784
f 887 784 835
f 786 831 888
f 786 888 860
f 870 775 803
f 873 821 837
f 872 879 889
f 872 889 881
f 884 889 879
f 770 890 771
f 850 771 890
f 817 789 891
f 789 880 891
f 866 825 892
f 825 873 892
f 814 813 893
f 842 894 813
f 893 813 894
f 866 892 885
f 895 878 881
f 895 876 878
f 896 881 889
f 884 896 889
f 806 794 897
f 864 897 794
f 896 898 881
f 895 881 898
f 899 838 817
f 899 817 900
f 817 891 900
f 901 803 811
f 901 902 803
f 870 803 902
f 903 814 893
f 814 904 858
f 903 904 814
f 884 886 905
f 885 905 886
f 828 856 829
f 906 896 884
f 906 884 907
f 884 905 907
f 906 898 896
f 782 755 874
f 895 898 908
f 906 908 898
f 868 810 862
f 859 909 799
f 799 910 832
f 799 909 910
f 895 911 876
f 911 877 876
f 819 877 912
f 819 912 882
f 899 837 838
f 895 908 913
f 911 895 913
f 906 907 914
f 915 908 906
f 906 914 916
f 915 906 916
f 892 873 917
f 873 837 917
f 911 912 877
f 905 914 907
f 806 918 805
f 806 897 919
f 806 919 918
f 901 811 883
f 802 804 920
f 802 920 861
f 812 783 887
f 770 823 921
f 770 922 890
f 770 921 922
f 915 913 908
f 885 923 905
f 885 892 924
f 885 924 923
f 905 925 914
f 923 925 905
f 914 926 916
f 915 916 926
f 832 888 831
f 927 828 830
f 828 928 856
f 927 928 828
f 892 917 924
f 914 929 926
f 925 929 914
f 804 812 930
f 804 931 920
f 804 930 931
f 863 861 920
f 915 926 932
f 933 926 929
f 933 932 926
f 915 934 913
f 911 913 935
f 935 913 934
f 936 915 932
f 936 934 915
f 782 937 836
f 782 874 938
f 782 938 937
f 933 929 939
f 933 940 932
f 933 939 941
f 933 941 940
f 918 842 805
f 883 882 942
f 901 883 943
f 883 942 943
f 935 912 911
f 925 944 929
f 923 945 925
f 945 944 925
f 944 939 929
f 946 917 837
f 899 946 837
f 947 830 841
f 947 927 830
f 936 932 940
f 923 924 948
f 923 948 945
f 921 823 869
f 935 934 949
f 949 934 936
f 863 950 862
f 868 862 950
f 951 882 912
f 935 951 912
f 944 952 939
f 952 941 939
f 951 942 882
f 812 953 930
f 812 887 954
f 812 954 953
f 936 940 955
f 955 940 941
f 863 920 931
f 956 894 842
f 918 957 842
f 956 842 957
f 958 952 944
f 945 959 944
f 958 944 959
f 960 809 807
f 961 807 808
f 961 960 807
f 917 948 924
f 946 962 917
f 917 962 948
f 963 835 836
f 963 836 937
f 893 894 964
f 965 893 964
f 965 903 893
f 858 966 859
f 967 909 859
f 967 859 966
f 816 809 968
f 960 968 809
f 904 969 858
f 858 969 966
f 860 947 841
f 949 951 935
f 970 936 955
f 949 936 970
f 899 900 971
f 891 971 900
f 952 972 941
f 955 941 973
f 974 941 972
f 974 973 941
f 975 843 857
f 976 833 843
f 975 976 843
f 849 834 977
f 978 834 833
f 978 977 834
f 808 822 979
f 808 979 961
f 980 946 899
f 899 971 981
f 980 899 981
f 982 815 816
f 816 968 983
f 982 816 983
f 848 849 984
f 849 977 984
f 985 891 880
f 891 986 971
f 985 986 891
f 952 987 972
f 952 958 987
f 868 988 869
f 921 869 988
f 945 948 989
f 945 989 959
f 857 856 990
f 857 990 975
f 832 991 888
f 992 991 832
f 992 832 910
f 976 978 833
f 993 902 901
f 993 870 902
f 901 943 994
f 901 994 995
f 993 901 995
f 860 888 996
f 860 997 947
f 860 996 997
f 964 894 956
f 998 880 875
f 998 985 880
f 949 999 951
f 1000 942 951
f 1000 951 999
f 1001 955 973
f 970 955 1001
f 982 864 815
f 887 835 963
f 1002 852 850
f 1002 851 852
f 822 847 1003
f 822 1003 979
f 980 962 946
f 1004 931 930
f 1004 930 953
f 943 942 1000
f 943 1000 994
f 998 875 848
f 848 984 1005
f 998 848 1005
f 1006 846 870
f 993 1006 870
f 948 962 1007
f 948 1007 989
f 1004 863 931
f 863 1008 950
f 1004 1008 863
f 1009 850 890
f 1002 850 1009
f 903 1010 904
f 904 1010 969
f 999 949 970
f 846 1003 847
f 1006 1011 846
f 846 1011 1003
f 1012 974 972
f 1012 972 987
f 980 1007 962
f 1013 874 851
f 1002 1013 851
f 1014 868 950
f 868 1015 988
f 1014 1015 868
f 1016 910 909
f 1016 909 967
f 959 989 1017
f 959 1017 958
f 973 974 1012
f 1001 973 1018
f 973 1012 1018
f 856 928 1019
f 856 1019 990
f 1020 890 922
f 1009 890 1020
f 888 991 1021
f 888 1021 996
f 887 1022 954
f 887 963 1023
f 887 1023 1022
f 1024 897 864
f 982 1025 864
f 1024 864 1025
f 999 970 1026
f 1026 1000 999
f 1026 970 1001
f 874 1027 938
f 1013 1028 874
f 874 1028 1027
f 1017 989 1007
f 1029 922 921
f 1020 922 1029
f 981 971 1030
f 1031 980 981
f 981 1030 1031
f 958 1017 1032
f 958 1032 987
f 1014 950 1008
f 971 986 1033
f 971 1033 1030
f 1034 994 1000
f 1026 1034 1000
f 1035 928 927
f 1035 1019 928
f 1036 953 954
f 1036 954 1022
f 919 897 1024
f 1037 1007 980
f 1031 1037 980
f 1017 1007 1038
f 1037 1038 1007
f 964 956 1039
f 965 964 1039
f 995 994 1040
f 1034 1040 994
f 903 1041 1010
f 965 1041 903
f 1042 993 995
f 995 1040 1043
f 1042 995 1043
f 938 1044 937
f 938 1027 1044
f 1026 1001 1045
f 1045 1001 1018
f 1045 1034 1026
f 988 1046 921
f 1029 921 1046
f 1047 991 992
f 1047 1021 991
f 1048 986 985
f 1048 1033 986
f 918 919 1049
f 919 1024 1049
f 927 947 1050
f 927 1050 1035
f 1051 992 910
f 1051 910 1016
f 1052 1017 1038
f 1052 1032 1017
f 1053 1012 987
f 1053 987 1032
f 1042 1006 993
f 1036 1004 953
f 937 1054 963
f 937 1044 1054
f 1004 1055 1008
f 1014 1008 1055
f 918 1056 957
f 918 1049 1057
f 918 1057 1056
f 1045 1018 1058
f 1058 1018 1012
f 1015 1059 988
f 988 1059 1046
f 1045 1060 1034
f 1061 1040 1034
f 1061 1034 1060
f 947 997 1062
f 947 1062 1050
f 1045 1058 1063
f 1045 1063 1060
f 1056 956 957
f 998 1048 985
f 1052 1038 1037
f 1004 1064 1055
f 1036 1064 1004
f 1058 1012 1053
f 1065 966 969
f 1066 969 1010
f 1065 969 1066
f 1067 1023 963
f 1067 963 1054
f 1068 967 966
f 1068 966 1065
f 1037 1031 1069
f 1031 1030 1070
f 1031 1070 1069
f 1052 1037 1071
f 1037 1069 1071
f 984 1072 1005
f 984 977 1073
f 984 1074 1072
f 984 1073 1074
f 996 1062 997
f 1040 1075 1043
f 1040 1061 1075
f 1076 1011 1006
f 1042 1076 1006
f 1014 1077 1015
f 1015 1077 1059
f 1078 1053 1032
f 1078 1032 1052
f 1079 1039 956
f 1056 1079 956
f 976 975 1080
f 1081 978 976
f 976 1080 1082
f 1081 976 1082
f 998 1005 1072
f 998 1083 1048
f 998 1072 1083
f 975 990 1084
f 975 1084 1080
f 1085 1030 1033
f 1085 1070 1030
f 1042 1043 1075
f 1058 1053 1078
f 1058 1078 1063
f 1081 977 978
f 1081 1073 977
f 1041 1086 1010
f 1066 1010 1086
f 1087 996 1021
f 996 1088 1062
f 1087 1088 996
f 1089 1022 1023
f 1089 1023 1067
f 965 1039 1090
f 965 1091 1041
f 1092 965 1090
f 1092 1091 965
f 1063 1061 1060
f 1003 1011 1093
f 1076 1093 1011
f 1094 1014 1055
f 1014 1094 1077
f 1047 992 1051
f 1095 960 961
f 1096 968 960
f 1095 1097 960
f 1096 960 1097
f 1098 1052 1071
f 1098 1078 1052
f 1099 990 1019
f 1099 1084 990
f 979 1095 961
f 1016 967 1068
f 1100 1036 1022
f 1100 1022 1089
f 1101 979 1003
f 1003 1093 1101
f 1101 1102 979
f 979 1102 1095
f 1103 1033 1048
f 1103 1085 1033
f 983 968 1096
f 1104 1021 1047
f 1104 1087 1021
f 1063 1105 1061
f 1078 1105 1063
f 1042 1075 1106
f 1107 1076 1042
f 1107 1042 1106
f 1105 1075 1061
f 982 983 1108
f 983 1096 1108
f 1071 1069 1109
f 1071 1109 1098
f 1090 1039 1110
f 1079 1110 1039
f 1078 1098 1105
f 1111 1041 1091
f 1041 1112 1086
f 1111 1112 1041
f 1069 1070 1113
f 1069 1113 1109
f 1055 1064 1114
f 1094 1055 1115
f 1055 1114 1115
f 1114 1064 1036
f 1114 1036 1100
f 1116 1025 982
f 982 1108 1117
f 1116 982 1117
f 1105 1118 1075
f 1106 1075 1118
f 1113 1070 1085
f 1083 1103 1048
f 1109 1105 1098
f 1109 1118 1105
f 1119 1019 1035
f 1119 1099 1019
f 1120 1051 1016
f 1016 1068 1121
f 1120 1016 1121
f 1116 1024 1025
f 1107 1093 1076
f 1047 1051 1122
f 1123 1104 1047
f 1123 1047 1122
f 1124 1118 1109
f 1124 1109 1113
f 1106 1118 1124
f 1090 1110 1125
f 1125 1092 1090
f 1126 1049 1024
f 1116 1126 1024
f 1124 1107 1106
f 1050 1119 1035
f 1127 1083 1072
f 1083 1128 1103
f 1127 1128 1083
f 1092 1111 1091
f 1050 1062 1129
f 1050 1129 1130
f 1050 1130 1119
f 1074 1127 1072
f 1113 1085 1131
f 1085 1132 1131
f 1085 1103 1132
f 1133 1002 1009
f 1020 1133 1009
f 1002 1134 1013
f 1133 1135 1002
f 1002 1135 1134
f 1136 1074 1073
f 1074 1137 1127
f 1136 1137 1074
f 1062 1088 1138
f 1062 1138 1129
f 1057 1049 1139
f 1126 1139 1049
f 1107 1140 1093
f 1140 1101 1093
f 1141 1020 1029
f 1020 1141 1133
f 1051 1142 1122
f 1051 1120 1142
f 1143 1124 1113
f 1143 1113 1131
f 1057 1144 1056
f 1057 1145 1144
f 1057 1139 1145
f 1144 1079 1056
f 1013 1146 1028
f 1013 1134 1146
f 1147 1088 1087
f 1147 1138 1088
f 1148 1110 1079
f 1144 1149 1079
f 1148 1079 1149
f 1124 1143 1107
f 1150 1029 1046
f 1141 1029 1150
f 1147 1087 1104
f 1151 1073 1081
f 1151 1136 1073
f 1065 1066 1152
f 1152 1066 1086
f 1082 1080 1153
f 1151 1081 1082
f 1151 1082 1154
f 1082 1153 1154
f 1028 1155 1027
f 1028 1146 1155
f 1143 1140 1107
f 1080 1084 1156
f 1080 1156 1153
f 1157 1068 1065
f 1065 1152 1158
f 1157 1065 1158
f 1159 1102 1101
f 1140 1160 1101
f 1159 1101 1160
f 1046 1059 1161
f 1150 1046 1162
f 1046 1161 1162
f 1163 1086 1112
f 1152 1086 1163
f 1125 1110 1148
f 1132 1143 1131
f 1095 1102 1159
f 1103 1128 1164
f 1103 1164 1132
f 1097 1095 1165
f 1095 1159 1165
f 1166 1044 1027
f 1166 1027 1155
f 1068 1167 1121
f 1068 1157 1167
f 1168 1084 1099
f 1168 1156 1084
f 1147 1104 1169
f 1104 1123 1170
f 1104 1170 1169
f 1161 1059 1077
f 1143 1171 1140
f 1132 1171 1143
f 1122 1172 1123
f 1122 1142 1172
f 1173 1096 1097
f 1097 1165 1173
f 1125 1174 1092
f 1092 1175 1111
f 1174 1175 1092
f 1054 1044 1166
f 1176 1112 1111
f 1163 1112 1176
f 1171 1160 1140
f 1177 1108 1096
f 1173 1177 1096
f 1094 1178 1077
f 1161 1077 1178
f 1167 1120 1121
f 1174 1125 1179
f 1125 1148 1179
f 1117 1108 1180
f 1177 1180 1108
f 1164 1128 1127
f 1067 1054 1181
f 1054 1166 1181
f 1182 1116 1117
f 1117 1180 1183
f 1182 1117 1183
f 1127 1137 1184
f 1164 1127 1185
f 1127 1184 1185
f 1132 1186 1171
f 1132 1164 1186
f 1119 1168 1099
f 1115 1187 1094
f 1094 1187 1178
f 1171 1186 1160
f 1188 1089 1067
f 1067 1181 1189
f 1188 1067 1189
f 1190 1142 1120
f 1167 1190 1120
f 1191 1137 1136
f 1191 1184 1137
f 1182 1126 1116
f 1159 1160 1186
f 1129 1192 1130
f 1193 1129 1138
f 1193 1194 1129
f 1129 1194 1192
f 1119 1130 1192
f 1119 1195 1168
f 1119 1192 1195
f 1196 1138 1147
f 1197 1147 1169
f 1197 1196 1147
f 1196 1193 1138
f 1114 1198 1115
f 1115 1198 1187
f 1172 1170 1123
f 1100 1089 1188
f 1175 1199 1111
f 1176 1111 1199
f 1165 1159 1200
f 1159 1186 1200
f 1201 1139 1126
f 1182 1202 1126
f 1201 1126 1202
f 1149 1144 1203
f 1204 1148 1149
f 1204 1149 1205
f 1149 1203 1205
f 1144 1145 1206
f 1144 1206 1203
f 1114 1100 1207
f 1100 1188 1207
f 1114 1208 1198
f 1114 1207 1208
f 1174 1179 1209
f 1174 1210 1175
f 1211 1174 1209
f 1211 1210 1174
f 1169 1170 1212
f 1169 1212 1197
f 1191 1136 1151
f 1145 1139 1201
f 1145 1201 1206
f 1204 1179 1148
f 1164 1200 1186
f 1164 1185 1200
f 1165 1200 1213
f 1165 1214 1173
f 1165 1213 1214
f 1151 1154 1215
f 1153 1215 1154
f 1142 1216 1172
f 1190 1217 1142
f 1142 1217 1216
f 1213 1200 1185
f 1213 1185 1184
f 1191 1151 1218
f 1151 1215 1218
f 1214 1177 1173
f 1152 1219 1158
f 1152 1163 1220
f 1152 1221 1219
f 1152 1220 1221
f 1222 1153 1156
f 1153 1223 1215
f 1222 1223 1153
f 1209 1179 1224
f 1204 1224 1179
f 1158 1225 1157
f 1158 1219 1225
f 1163 1176 1226
f 1163 1226 1220
f 1214 1213 1184
f 1214 1184 1191
f 1227 1175 1210
f 1175 1228 1199
f 1227 1228 1175
f 1229 1156 1168
f 1229 1222 1156
f 1230 1180 1177
f 1214 1231 1177
f 1230 1177 1231
f 1225 1167 1157
f 1172 1232 1170
f 1170 1233 1212
f 1170 1232 1233
f 1183 1180 1230
f 1133 1234 1135
f 1135 1235 1134
f 1135 1234 1235
f 1141 1236 1133
f 1133 1236 1234
f 1237 1193 1196
f 1196 1197 1238
f 1196 1238 1239
f 1237 1196 1239
f 1240 1141 1150
f 1141 1241 1236
f 1240 1241 1141
f 1167 1242 1190
f 1225 1243 1167
f 1167 1243 1242
f 1244 1146 1134
f 1244 1134 1235
f 1237 1194 1193
f 1182 1183 1245
f 1183 1230 1245
f 1214 1191 1218
f 1226 1176 1199
f 1209 1224 1246
f 1247 1209 1246
f 1247 1211 1209
f 1162 1240 1150
f 1197 1212 1248
f 1197 1248 1238
f 1249 1232 1172
f 1249 1172 1216
f 1192 1194 1250
f 1237 1250 1194
f 1251 1204 1205
f 1203 1251 1205
f 1168 1195 1252
f 1168 1252 1229
f 1214 1218 1231
f 1253 1224 1204
f 1251 1254 1204
f 1253 1204 1254
f 1192 1252 1195
f 1192 1250 1255
f 1192 1255 1252
f 1203 1206 1256
f 1203 1257 1251
f 1203 1256 1257
f 1258 1162 1161
f 1162 1258 1240
f 1259 1202 1182
f 1182 1245 1260
f 1259 1182 1260
f 1261 1155 1146
f 1261 1146 1244
f 1262 1217 1190
f 1262 1190 1242
f 1263 1206 1201
f 1263 1256 1206
f 1215 1231 1218
f 1259 1201 1202
f 1259 1263 1201
f 1215 1230 1231
f 1215 1245 1230
f 1215 1223 1245
f 1211 1227 1210
f 1246 1224 1253
f 1264 1248 1212
f 1264 1212 1233
f 1161 1178 1265
f 1258 1161 1266
f 1161 1265 1266
f 1251 1239 1254
f 1239 1253 1254
f 1239 1238 1253
f 1251 1237 1239
f 1267 1199 1228
f 1226 1199 1267
f 1268 1166 1155
f 1268 1155 1261
f 1260 1245 1223
f 1260 1223 1222
f 1246 1253 1269
f 1247 1246 1269
f 1238 1269 1253
f 1238 1248 1269
f 1251 1250 1237
f 1251 1257 1250
f 1178 1187 1270
f 1178 1270 1265
f 1271 1233 1232
f 1271 1232 1249
f 1272 1216 1217
f 1272 1217 1262
f 1257 1255 1250
f 1257 1256 1255
f 1229 1260 1222
f 1273 1181 1166
f 1273 1166 1268
f 1274 1269 1248
f 1274 1248 1264
f 1255 1256 1263
f 1255 1263 1252
f 1229 1259 1260
f 1247 1269 1274
f 1229 1252 1263
f 1229 1263 1259
f 1270 1187 1198
f 1275 1189 1181
f 1275 1181 1273
f 1247 1276 1211
f 1211 1276 1227
f 1221 1277 1219
f 1220 1278 1221
f 1221 1278 1277
f 1279 1228 1227
f 1267 1228 1279
f 1219 1280 1225
f 1219 1277 1280
f 1281 1264 1233
f 1281 1233 1271
f 1226 1282 1220
f 1220 1282 1278
f 1283 1188 1189
f 1283 1189 1275
f 1208 1284 1198
f 1270 1198 1284
f 1285 1249 1216
f 1285 1216 1272
f 1286 1243 1225
f 1286 1225 1280
f 1188 1287 1207
f 1188 1283 1287
f 1207 1288 1208
f 1208 1288 1284
f 1207 1287 1288
f 1289 1242 1243
f 1289 1243 1286
f 1274 1290 1247
f 1247 1290 1276
f 1226 1267 1291
f 1226 1292 1282
f 1226 1291 1292
f 1281 1274 1264
f 1276 1293 1227
f 1279 1227 1293
f 1274 1294 1290
f 1281 1294 1274
f 1295 1262 1242
f 1295 1242 1289
f 1249 1296 1271
f 1249 1285 1296
f 1267 1279 1297
f 1267 1297 1291
f 1298 1276 1290
f 1276 1299 1293
f 1298 1299 1276
f 1300 1234 1236
f 1241 1301 1236
f 1300 1236 1301
f 1302 1235 1234
f 1302 1234 1300
f 1295 1272 1262
f 1296 1281 1271
f 1240 1303 1241
f 1241 1303 1301
f 1304 1244 1235
f 1304 1235 1302
f 1258 1305 1240
f 1240 1305 1303
f 1306 1290 1294
f 1306 1298 1290
f 1281 1306 1294
f 1296 1307 1281
f 1281 1307 1306
f 1308 1258 1266
f 1258 1309 1305
f 1308 1309 1258
f 1310 1261 1244
f 1310 1244 1304
f 1297 1279 1293
f 1265 1308 1266
f 1311 1285 1272
f 1295 1311 1272
f 1312 1277 1278
f 1282 1313 1278
f 1312 1278 1313
f 1268 1261 1310
f 1314 1280 1277
f 1314 1277 1312
f 1315 1282 1292
f 1282 1316 1313
f 1315 1316 1282
f 1317 1265 1270
f 1265 1317 1308
f 1318 1293 1299
f 1297 1293 1318
f 1319 1286 1280
f 1319 1280 1314
f 1273 1268 1320
f 1268 1310 1320
f 1285 1321 1296
f 1311 1322 1285
f 1285 1322 1321
f 1291 1315 1292
f 1286 1323 1289
f 1286 1319 1323
f 1324 1270 1284
f 1317 1270 1324
f 1273 1325 1275
f 1273 1320 1326
f 1273 1326 1325
f 1327 1299 1298
f 1318 1299 1327
f 1296 1328 1307
f 1296 1321 1328
f 1323 1295 1289
f 1275 1329 1283
f 1275 1325 1329
f 1284 1288 1330
f 1324 1284 1331
f 1284 1330 1331
f 1306 1332 1298
f 1327 1298 1332
f 1307 1333 1306
f 1307 1328 1333
f 1283 1334 1287
f 1283 1329 1334
f 1297 1335 1291
f 1291 1335 1315
f 1306 1333 1332
f 1330 1288 1287
f 1330 1287 1334
f 1295 1336 1311
f 1323 1337 1295
f 1295 1337 1336
f 1338 1300 1301
f 1339 1301 1303
f 1338 1301 1339
f 1340 1302 1300
f 1340 1300 1338
f 1341 1303 1305
f 1339 1303 1341
f 1297 1318 1342
f 1297 1343 1335
f 1297 1342 1343
f 1304 1302 1340
f 1344 1312 1313
f 1345 1313 1316
f 1344 1313 1345
f 1344 1314 1312
f 1311 1346 1322
f 1311 1336 1346
f 1309 1347 1305
f 1341 1305 1347
f 1314 1348 1319
f 1344 1349 1314
f 1314 1349 1348
f 1350 1316 1315
f 1345 1316 1350
f 1308 1351 1309
f 1309 1351 1347
f 1318 1327 1352
f 1318 1352 1342
f 1310 1304 1353
f 1304 1340 1353
f 1319 1354 1323
f 1319 1348 1354
f 1346 1321 1322
f 1335 1355 1315
f 1350 1315 1355
f 1317 1356 1308
f 1308 1356 1351
f 1352 1327 1332
f 1323 1357 1337
f 1323 1354 1357
f 1310 1358 1320
f 1310 1353 1359
f 1310 1359 1358
f 1321 1360 1328
f 1346 1361 1321
f 1321 1361 1360
f 1362 1332 1333
f 1352 1332 1362
f 1363 1317 1324
f 1317 1364 1356
f 1363 1364 1317
f 1338 1339 1344
f 1344 1339 1341
f 1338 1344 1345
f 1344 1341 1349
f 1365 1333 1328
f 1362 1333 1365
f 1365 1328 1360
f 1350 1338 1345
f 1350 1340 1338
f 1341 1348 1349
f 1341 1347 1348
f 1366 1335 1343
f 1335 1367 1355
f 1366 1367 1335
f 1337 1368 1336
f 1337 1357 1368
f 1320 1369 1326
f 1320 1358 1369
f 1348 1347 1351
f 1340 1350 1355
f 1340 1355 1353
f 1370 1324 1331
f 1370 1363 1324
f 1348 1351 1354
f 1326 1371 1325
f 1326 1369 1371
f 1372 1343 1342
f 1372 1366 1343
f 1336 1373 1346
f 1336 1368 1373
f 1354 1351 1356
f 1353 1355 1367
f 1353 1367 1359
f 1374 1329 1325
f 1374 1325 1371
f 1370 1331 1330
f 1354 1356 1357
f 1375 1334 1329
f 1375 1329 1374
f 1376 1330 1334
f 1376 1334 1375
f 1370 1330 1376
f 1352 1372 1342
f 1364 1357 1356
f 1377 1361 1346
f 1377 1346 1373
f 1359 1367 1366
f 1359 1366 1358
f 1364 1368 1357
f 1378 1352 1362
f 1352 1378 1372
f 1363 1368 1364
f 1379 1360 1361
f 1379 1361 1377
f 1362 1365 1380
f 1378 1362 1381
f 1362 1380 1381
f 1372 1358 1366
f 1372 1369 1358
f 1363 1373 1368
f 1380 1365 1360
f 1380 1360 1379
f 1370 1373 1363
f 1371 1369 1372
f 1371 1372 1378
f 1370 1377 1373
f 1381 1371 1378
f 1381 1374 1371
f 1379 1370 1376
f 1379 1377 1370
f 1380 1375 1374
f 1380 1374 1381
f 1375 1379 1376
f 1375 1380 1379
