# 
# Wavefront OBJ file
# Created with Kaydara FBX
# 
mtllib c:\users\tjvan\onedrive\documenten\fontys\minor\nx\.mtlmodels\flexor_hallucis_longus.r.obj

g Flexor_hallucis_longus_r
v -0.109673 0.309276 -0.052075
v -0.110874 0.309305 -0.052770
v -0.110834 0.302767 -0.053034
v -0.109301 0.309323 -0.053822
v -0.110718 0.315989 -0.052655
v -0.109504 0.302757 -0.052131
v -0.110574 0.289815 -0.053600
v -0.109172 0.302873 -0.054294
v -0.109505 0.315682 -0.052095
v -0.109533 0.320498 -0.052796
v -0.108255 0.320230 -0.053195
v -0.109062 0.315792 -0.053513
v -0.108840 0.276772 -0.055779
v -0.110479 0.276692 -0.053743
v -0.108830 0.289810 -0.052453
v -0.108763 0.289932 -0.055092
v -0.108210 0.263215 -0.052817
v -0.109711 0.263057 -0.054413
v -0.107952 0.263279 -0.056401
v -0.108453 0.276825 -0.052534
v -0.108503 0.249515 -0.055209
v -0.107164 0.302859 -0.052145
v -0.107543 0.315568 -0.051827
v -0.107470 0.309306 -0.052055
v -0.108370 0.321296 -0.051697
v -0.106817 0.321284 -0.052674
v -0.107337 0.321047 -0.051270
v -0.107230 0.309346 -0.054095
v -0.106044 0.290120 -0.055662
v -0.106900 0.303002 -0.054628
v -0.107240 0.315687 -0.053575
v -0.105728 0.277022 -0.056866
v -0.105347 0.276961 -0.052441
v -0.106235 0.289943 -0.052433
v -0.107347 0.249546 -0.052925
v -0.106615 0.249834 -0.057411
v -0.107489 0.236132 -0.056218
v -0.106413 0.236081 -0.053987
v -0.105191 0.263525 -0.052258
v -0.104702 0.263682 -0.057812
v -0.105989 0.315577 -0.051011
v -0.105454 0.236384 -0.058189
v -0.106458 0.222396 -0.056962
v -0.105540 0.309392 -0.051213
v -0.103554 0.236284 -0.052755
v -0.104376 0.249818 -0.052005
v -0.105918 0.321226 -0.052167
v -0.106429 0.320924 -0.050669
v -0.105085 0.321184 -0.051509
v -0.105684 0.315666 -0.052979
v -0.104579 0.303150 -0.053990
v -0.105207 0.309427 -0.053497
v -0.103859 0.290155 -0.051445
v -0.105084 0.303029 -0.051241
v -0.103070 0.290366 -0.054923
v -0.101521 0.236774 -0.059578
v -0.103116 0.250257 -0.058709
v -0.105200 0.222424 -0.054661
v -0.104076 0.222780 -0.058927
v -0.104538 0.208958 -0.057569
v -0.102339 0.209271 -0.059704
v -0.104790 0.315623 -0.049742
v -0.105543 0.320913 -0.049784
v -0.102402 0.222621 -0.052956
v -0.101553 0.277328 -0.056087
v -0.104205 0.309483 -0.049601
v -0.104328 0.315711 -0.052000
v -0.099909 0.264253 -0.057045
v -0.103527 0.309539 -0.052302
v -0.104448 0.321164 -0.050829
v -0.104991 0.320866 -0.048979
v -0.102561 0.277038 -0.050947
v -0.104065 0.208931 -0.054826
v -0.101234 0.250116 -0.049896
v -0.102287 0.263589 -0.050240
v -0.102625 0.303293 -0.052530
v -0.103702 0.303165 -0.049425
v -0.102394 0.290297 -0.049314
v -0.104140 0.315779 -0.048159
v -0.103852 0.321097 -0.049851
v -0.103819 0.316081 -0.046624
v -0.104402 0.319806 -0.047849
v -0.103414 0.319924 -0.048389
v -0.100392 0.290640 -0.052984
v -0.103091 0.194875 -0.055292
v -0.103177 0.194880 -0.058261
v -0.103311 0.315766 -0.050734
v -0.102709 0.315876 -0.049198
v -0.102269 0.309663 -0.050676
v -0.103669 0.309639 -0.047528
v -0.103258 0.303269 -0.047129
v -0.103467 0.309851 -0.045674
v -0.098188 0.209710 -0.060203
v -0.100033 0.223256 -0.059839
v -0.101653 0.209164 -0.052698
v -0.102883 0.316073 -0.047307
v -0.099163 0.222996 -0.050068
v -0.100429 0.236422 -0.050462
v -0.102919 0.303430 -0.045024
v -0.100981 0.303673 -0.045964
v -0.102039 0.309937 -0.046500
v -0.100923 0.290713 -0.044763
v -0.101978 0.290420 -0.046941
v -0.101430 0.181336 -0.057975
v -0.100958 0.195260 -0.060522
v -0.099158 0.181650 -0.060339
v -0.097876 0.250814 -0.057848
v -0.100816 0.195177 -0.052893
v -0.101572 0.181342 -0.055075
v -0.099474 0.181702 -0.052585
v -0.097695 0.277563 -0.053306
v -0.098610 0.291014 -0.045270
v -0.101631 0.309823 -0.048689
v -0.101147 0.303497 -0.050571
v -0.098520 0.290881 -0.050466
v -0.101539 0.277102 -0.048010
v -0.102080 0.277378 -0.045075
v -0.096802 0.195866 -0.061026
v -0.101689 0.263708 -0.046966
v -0.100416 0.303685 -0.048269
v -0.102161 0.263730 -0.044215
v -0.100731 0.277761 -0.042866
v -0.100323 0.250192 -0.046415
v -0.101077 0.250216 -0.043711
v -0.099432 0.250343 -0.042258
v -0.100504 0.263861 -0.042094
v -0.098697 0.209399 -0.049831
v -0.100111 0.167831 -0.055104
v -0.094252 0.223698 -0.058077
v -0.095795 0.237237 -0.058402
v -0.099798 0.167880 -0.058033
v -0.097636 0.168140 -0.060670
v -0.097816 0.291042 -0.047748
v -0.099462 0.236367 -0.046574
v -0.100027 0.236263 -0.043716
v -0.094945 0.182304 -0.061517
v -0.097691 0.195541 -0.049613
v -0.097876 0.277963 -0.042959
v -0.096164 0.250589 -0.042413
v -0.097430 0.264129 -0.041798
v -0.097609 0.223268 -0.045771
v -0.098619 0.154402 -0.054659
v -0.098232 0.168065 -0.052411
v -0.092935 0.210159 -0.058221
v -0.097846 0.236601 -0.042476
v -0.097780 0.222991 -0.042518
v -0.093153 0.251308 -0.054247
v -0.095631 0.264666 -0.053489
v -0.098082 0.154230 -0.058351
v -0.095414 0.154536 -0.061422
v -0.096892 0.182041 -0.049039
v -0.093409 0.168658 -0.061940
v -0.096727 0.209439 -0.045535
v -0.096712 0.154638 -0.051100
v -0.097595 0.140428 -0.054920
v -0.097202 0.140085 -0.051556
v -0.095587 0.278098 -0.045385
v -0.095495 0.277884 -0.049348
v -0.095953 0.168233 -0.048609
v -0.095521 0.154419 -0.047268
v -0.091560 0.196466 -0.058760
v -0.095912 0.140596 -0.058704
v -0.094691 0.223412 -0.041990
v -0.093981 0.237228 -0.042491
v -0.090579 0.223914 -0.042876
v -0.095114 0.209422 -0.042143
v -0.095695 0.195759 -0.045098
v -0.094205 0.125594 -0.055105
v -0.092336 0.126683 -0.060484
v -0.094118 0.126016 -0.057941
v -0.094194 0.264573 -0.043754
v -0.095889 0.139536 -0.048957
v -0.092388 0.125693 -0.052940
v -0.094262 0.168127 -0.044595
v -0.095502 0.182095 -0.044760
v -0.089732 0.182993 -0.059491
v -0.092130 0.251183 -0.044068
v -0.089731 0.237855 -0.044339
v -0.094105 0.154130 -0.044317
v -0.092579 0.141012 -0.061666
v -0.093536 0.139324 -0.047887
v -0.089603 0.126235 -0.052236
v -0.089376 0.224158 -0.053792
v -0.091106 0.237696 -0.054304
v -0.093097 0.182180 -0.042470
v -0.093998 0.195881 -0.042249
v -0.093079 0.264892 -0.048544
v -0.090605 0.251555 -0.049182
v -0.090959 0.155155 -0.061978
v -0.088226 0.141720 -0.062338
v -0.091947 0.209744 -0.042139
v -0.090847 0.196052 -0.042266
v -0.088620 0.210126 -0.043706
v -0.091588 0.168044 -0.042734
v -0.088334 0.210506 -0.054379
v -0.090002 0.112621 -0.056485
v -0.089366 0.113114 -0.058871
v -0.090583 0.139750 -0.048107
v -0.091555 0.153793 -0.043315
v -0.089544 0.182364 -0.042414
v -0.088293 0.169236 -0.060266
v -0.088779 0.238029 -0.049120
v -0.089341 0.127386 -0.062070
v -0.088370 0.112995 -0.054595
v -0.085933 0.113823 -0.054218
v -0.087508 0.113923 -0.060645
v -0.085038 0.114809 -0.061646
v -0.087374 0.196262 -0.044306
v -0.088489 0.168112 -0.042884
v -0.088573 0.153859 -0.044663
v -0.085415 0.183161 -0.055764
v -0.086882 0.196709 -0.054864
v -0.086239 0.155759 -0.060495
v -0.084027 0.142469 -0.060896
v -0.086702 0.126937 -0.052352
v -0.087006 0.140383 -0.048614
v -0.087084 0.224402 -0.045109
v -0.084332 0.101346 -0.061056
v -0.084560 0.100731 -0.059136
v -0.083418 0.114649 -0.054358
v -0.085627 0.168394 -0.045196
v -0.086090 0.182613 -0.044754
v -0.083054 0.102213 -0.062385
v -0.086777 0.224483 -0.049145
v -0.085590 0.128167 -0.062105
v -0.082399 0.115593 -0.061786
v -0.084439 0.196482 -0.047120
v -0.085512 0.210512 -0.046029
v -0.085216 0.154320 -0.046664
v -0.083422 0.100894 -0.057481
v -0.084177 0.196668 -0.050873
v -0.085323 0.210675 -0.050164
v -0.082438 0.156051 -0.057312
v -0.084180 0.169534 -0.056784
v -0.082095 0.128900 -0.061284
v -0.081211 0.103029 -0.062991
v -0.083502 0.182822 -0.047705
v -0.083757 0.127603 -0.052450
v -0.083221 0.141315 -0.049970
v -0.080913 0.115302 -0.054577
v -0.080849 0.142884 -0.058175
v -0.082937 0.168844 -0.048265
v -0.081547 0.101646 -0.056885
v -0.083205 0.182981 -0.051605
v -0.080282 0.142181 -0.051939
v -0.082093 0.155088 -0.049395
v -0.079192 0.103700 -0.062978
v -0.078772 0.089434 -0.061869
v -0.077961 0.089595 -0.060381
v -0.077856 0.090368 -0.064674
v -0.078758 0.089721 -0.063512
v -0.082135 0.169350 -0.052402
v -0.080927 0.155806 -0.053184
v -0.079116 0.129372 -0.059640
v -0.080753 0.128293 -0.052906
v -0.079652 0.102298 -0.056753
v -0.077698 0.102937 -0.056791
v -0.083125 0.010415 0.113246
v -0.082354 0.010085 0.111109
v -0.081467 0.008977 0.111730
v -0.081221 0.010151 0.111697
v -0.082281 0.009390 0.114569
v -0.082201 0.010810 0.116192
v -0.081891 0.010556 0.114474
v -0.076500 0.091041 -0.065099
v -0.079437 0.142768 -0.054965
v -0.079700 0.116188 -0.061543
v -0.080477 0.009732 0.107780
v -0.079829 0.010043 0.108054
v -0.080880 0.009072 0.115271
v -0.080634 0.010437 0.115309
v -0.081038 0.010123 0.116652
v -0.077179 0.116561 -0.060609
v -0.080019 0.009862 0.112369
v -0.076696 0.089996 -0.059503
v -0.080152 0.008530 0.112443
v -0.079874 0.009052 0.107986
v -0.074943 0.091624 -0.065102
v -0.079460 0.010075 0.117280
v -0.079183 0.010493 0.115762
v -0.078382 0.115764 -0.055087
v -0.075780 0.103480 -0.057187
v -0.078787 0.008404 0.112988
v -0.079249 0.009036 0.115850
v -0.078174 0.128978 -0.054232
v -0.078585 0.011103 0.102565
v -0.078873 0.008630 0.108261
v -0.078851 0.009941 0.108369
v -0.078786 0.009897 0.112879
v -0.077957 0.009950 0.108636
v -0.077299 0.010336 0.102633
v -0.078064 0.010627 0.102525
v -0.077450 0.011738 0.103147
v -0.078202 0.011587 0.102869
v -0.077130 0.104206 -0.062733
v -0.075213 0.090473 -0.058972
v -0.077529 0.009090 0.116219
v -0.077580 0.010017 0.117470
v -0.077393 0.129461 -0.057019
v -0.077530 0.010130 0.113179
v -0.077643 0.010682 0.116081
v -0.073453 0.092096 -0.064806
v -0.075445 0.116598 -0.058744
v -0.077867 0.008438 0.108505
v -0.076655 0.011853 0.103420
v -0.076839 0.008440 0.108724
v -0.077386 0.008436 0.113317
v -0.077008 0.010150 0.108911
v -0.073322 0.078197 -0.064748
v -0.073247 0.078126 -0.063419
v -0.072761 0.078490 -0.065920
v -0.076694 0.013646 0.097068
v -0.076540 0.012662 0.096902
v -0.077082 0.012981 0.096876
v -0.076151 0.116219 -0.056354
v -0.076064 0.014108 0.097268
v -0.071784 0.078509 -0.061240
v -0.072711 0.078235 -0.062192
v -0.076467 0.010187 0.102793
v -0.071635 0.078941 -0.066462
v -0.073698 0.091029 -0.058895
v -0.076171 0.010223 0.117192
v -0.076304 0.010435 0.113327
v -0.076203 0.010897 0.116160
v -0.076007 0.008554 0.113451
v -0.075904 0.009473 0.116374
v -0.075862 0.012550 0.097040
v -0.075155 0.012539 0.097192
v -0.075207 0.104396 -0.061926
v -0.073896 0.104316 -0.060370
v -0.072118 0.092403 -0.063919
v -0.075281 0.013348 0.090773
v -0.075777 0.012781 0.090786
v -0.075862 0.011921 0.103641
v -0.076121 0.010304 0.109087
v -0.075134 0.011907 0.103790
v -0.075598 0.010232 0.102991
v -0.075859 0.008597 0.108909
v -0.074843 0.010449 0.103227
v -0.075313 0.014353 0.097460
v -0.074515 0.014422 0.097648
v -0.074639 0.012276 0.091027
v -0.075449 0.012342 0.090892
v -0.070387 0.079380 -0.066227
v -0.074866 0.010283 0.116088
v -0.075166 0.010198 0.109136
v -0.075098 0.010471 0.113346
v -0.074217 0.103941 -0.058426
v -0.074353 0.011746 0.103883
v -0.073815 0.014090 0.090993
v -0.074624 0.013814 0.090837
v -0.075021 0.009056 0.109039
v -0.074833 0.009136 0.113342
v -0.073674 0.014310 0.097821
v -0.075089 0.011625 0.084635
v -0.071409 0.092140 -0.060744
v -0.072355 0.091615 -0.059516
v -0.074455 0.012615 0.097355
v -0.074648 0.011016 0.084787
v -0.072957 0.014160 0.091188
v -0.074367 0.012139 0.084623
v -0.073399 0.012450 0.084705
v -0.070635 0.078883 -0.060587
v -0.074556 0.009710 0.109119
v -0.073872 0.012346 0.091176
v -0.073072 0.012515 0.091329
v -0.074505 0.009825 0.112270
v -0.073906 0.010184 0.078473
v -0.074458 0.011093 0.078397
v -0.073789 0.011827 0.078467
v -0.074208 0.010804 0.103518
v -0.073763 0.012798 0.097549
v -0.073133 0.013076 0.097754
v -0.073591 0.010833 0.084948
v -0.072583 0.010971 0.085077
v -0.072444 0.012711 0.084833
v -0.073724 0.011360 0.103859
v -0.073756 0.011484 0.072172
v -0.073212 0.012396 0.072342
v -0.072687 0.011974 0.078586
v -0.072575 0.013411 0.097946
v -0.072899 0.014004 0.097953
v -0.071341 0.092419 -0.062414
v -0.073179 0.010579 0.072118
v -0.072796 0.009933 0.078623
v -0.072153 0.010181 0.072159
v -0.072935 0.012754 0.066064
v -0.072295 0.012757 0.091481
v -0.068162 0.079820 -0.061045
v -0.069327 0.079352 -0.060423
v -0.072178 0.014112 0.091378
v -0.071362 0.013917 0.091631
v -0.069225 0.079756 -0.065604
v -0.068850 0.066008 -0.064940
v -0.068268 0.066104 -0.066095
v -0.068338 0.066405 -0.062601
v -0.068856 0.066122 -0.063723
v -0.072502 0.013611 0.066316
v -0.072139 0.012558 0.072468
v -0.071639 0.013963 0.066451
v -0.072533 0.011942 0.065857
v -0.070945 0.013480 0.091817
v -0.071542 0.013084 0.091662
v -0.071617 0.011206 0.085221
v -0.070663 0.011511 0.085380
v -0.071489 0.012931 0.084974
v -0.070502 0.013063 0.085160
v -0.072021 0.017614 0.054245
v -0.071660 0.018237 0.054559
v -0.071654 0.009928 0.078763
v -0.071606 0.012038 0.078704
v -0.071071 0.012538 0.072550
v -0.070558 0.010070 0.078896
v -0.071655 0.011496 0.065792
v -0.071768 0.016913 0.053919
v -0.071004 0.018697 0.054807
v -0.070546 0.012110 0.078826
v -0.067538 0.080132 -0.062245
v -0.072248 0.035435 0.006167
v -0.072071 0.034629 0.005963
v -0.071867 0.031039 0.018314
v -0.071807 0.037280 -0.006643
v -0.071996 0.031735 0.018545
v -0.071895 0.036191 0.006372
v -0.071817 0.038139 -0.006490
v -0.069424 0.012994 0.085445
v -0.071048 0.010091 0.072242
v -0.070665 0.011432 0.065828
v -0.070689 0.014044 0.066517
v -0.068210 0.080061 -0.064763
v -0.071455 0.034046 0.005825
v -0.071303 0.022495 0.042426
v -0.071686 0.023131 0.042692
v -0.071250 0.023770 0.042972
v -0.071712 0.032410 0.018759
v -0.071836 0.027488 0.030713
v -0.071306 0.028075 0.030894
v -0.071343 0.038866 -0.006329
v -0.071136 0.032937 0.018923
v -0.070678 0.039480 -0.006169
v -0.071260 0.036745 0.006529
v -0.071593 0.026785 0.030471
v -0.071283 0.030562 0.018147
v -0.070760 0.040942 -0.019139
v -0.070984 0.036903 -0.006661
v -0.070551 0.040005 -0.019370
v -0.067466 0.066785 -0.061797
v -0.071082 0.016468 0.053733
v -0.070570 0.024235 0.043181
v -0.070255 0.019033 0.054997
v -0.067246 0.066449 -0.066439
v -0.070015 0.012458 0.072618
v -0.070862 0.026425 0.030319
v -0.069624 0.011889 0.085582
v -0.069448 0.012134 0.078965
v -0.070572 0.033960 0.005821
v -0.070341 0.041837 -0.018828
v -0.069582 0.042473 -0.018542
v -0.067493 0.080237 -0.063604
v -0.070655 0.021984 0.042217
v -0.070681 0.028583 0.031053
v -0.070063 0.026241 0.030227
v -0.070506 0.030486 0.018108
v -0.070461 0.037018 0.006618
v -0.070404 0.033270 0.019024
v -0.070286 0.016203 0.053635
v -0.069931 0.010115 0.072337
v -0.070057 0.036864 -0.006609
v -0.069761 0.039397 -0.019420
v -0.068667 0.012466 0.085728
v -0.068552 0.043829 -0.031662
v -0.068116 0.044785 -0.031394
v -0.069431 0.019020 0.055022
v -0.069728 0.013988 0.066548
v -0.069858 0.024663 0.043372
v -0.069990 0.029007 0.031178
v -0.069867 0.039839 -0.006034
v -0.068653 0.042834 -0.018311
v -0.069671 0.011488 0.065892
v -0.069470 0.010356 0.079031
v -0.068377 0.010760 0.079148
v -0.069867 0.021760 0.042135
v -0.065328 0.067598 -0.061096
v -0.066441 0.067185 -0.061261
v -0.069715 0.034135 0.005884
v -0.068827 0.010258 0.072441
v -0.067506 0.042099 -0.031732
v -0.068317 0.042779 -0.031795
v -0.069739 0.030629 0.018141
v -0.069608 0.037105 0.006658
v -0.068964 0.039930 -0.005935
v -0.069602 0.033344 0.019034
v -0.066290 0.066855 -0.065743
v -0.067278 0.045427 -0.031073
v -0.069025 0.021670 0.042109
v -0.069427 0.016138 0.053633
v -0.069239 0.026231 0.030195
v -0.068758 0.039284 -0.019310
v -0.069151 0.036971 -0.006524
v -0.068772 0.013789 0.066543
v -0.068966 0.012298 0.072681
v -0.069176 0.029106 0.031185
v -0.069001 0.024729 0.043412
v -0.069005 0.030880 0.018210
v -0.068439 0.026424 0.030231
v -0.068293 0.037220 -0.006410
v -0.068900 0.034408 0.005973
v -0.068625 0.016379 0.053776
v -0.068693 0.011629 0.065981
v -0.068774 0.036898 0.006622
v -0.068821 0.033168 0.018963
v -0.068058 0.039766 -0.005875
v -0.068363 0.011949 0.079100
v -0.067899 0.012037 0.072720
v -0.067642 0.011417 0.079212
v -0.068206 0.024446 0.043303
v -0.068664 0.018706 0.054900
v -0.068230 0.021859 0.042201
v -0.064171 0.067722 -0.064704
v -0.065191 0.067292 -0.065318
v -0.068377 0.028917 0.031092
v -0.067767 0.039485 -0.019122
v -0.068402 0.031323 0.018347
v -0.067812 0.026914 0.030377
v -0.067864 0.013430 0.066490
v -0.067649 0.042879 -0.018161
v -0.068182 0.034896 0.006117
v -0.067532 0.037724 -0.006244
v -0.066715 0.060316 -0.062578
v -0.065893 0.059810 -0.064693
v -0.066544 0.059977 -0.063664
v -0.067754 0.011968 0.066096
v -0.067654 0.010602 0.072564
v -0.068058 0.036416 0.006515
v -0.068223 0.032667 0.018787
v -0.066456 0.041958 -0.031517
v -0.067646 0.023858 0.043060
v -0.068048 0.018184 0.054671
v -0.065240 0.045777 -0.030523
v -0.066291 0.045766 -0.030773
v -0.067664 0.022391 0.042437
v -0.068051 0.016859 0.054029
v -0.065196 0.046000 -0.043802
v -0.064843 0.046908 -0.043475
v -0.068039 0.031953 0.018549
v -0.067573 0.027661 0.030629
v -0.067036 0.011435 0.072687
v -0.067807 0.028381 0.030888
v -0.066237 0.060818 -0.061637
v -0.065106 0.044993 -0.044060
v -0.066873 0.039945 -0.018881
v -0.066034 0.040494 -0.018621
v -0.067781 0.035627 0.006317
v -0.064259 0.067958 -0.061570
v -0.064240 0.047661 -0.043142
v -0.067445 0.023116 0.042749
v -0.067830 0.017508 0.054352
v -0.067245 0.012689 0.066283
v -0.067294 0.039256 -0.005906
v -0.067027 0.038409 -0.006058
v -0.066646 0.042690 -0.018078
v -0.065830 0.042109 -0.018136
v -0.065456 0.042274 -0.031235
v -0.065481 0.041229 -0.018339
v -0.063467 0.068081 -0.063754
v -0.063613 0.068123 -0.062600
v -0.064384 0.044259 -0.044116
v -0.064481 0.061757 -0.060481
v -0.065416 0.061302 -0.060978
v -0.063855 0.060424 -0.064731
v -0.064836 0.059933 -0.065284
v -0.064510 0.042718 -0.030936
v -0.064911 0.054366 -0.060603
v -0.064843 0.055718 -0.058884
v -0.065179 0.055025 -0.059670
v -0.064175 0.045613 -0.030307
v -0.063401 0.044134 -0.043953
v -0.063407 0.048226 -0.042822
v -0.062951 0.060943 -0.064090
v -0.063568 0.043247 -0.030619
v -0.064167 0.053938 -0.061380
v -0.063069 0.053896 -0.061747
v -0.063251 0.045076 -0.030195
v -0.062938 0.044069 -0.030318
v -0.062457 0.044533 -0.043665
v -0.064052 0.056353 -0.058332
v -0.063442 0.062143 -0.060268
v -0.062419 0.048454 -0.042569
v -0.064541 0.047967 -0.049668
v -0.064102 0.048885 -0.049244
v -0.064332 0.050860 -0.055155
v -0.064390 0.046959 -0.050076
v -0.063608 0.046202 -0.050335
v -0.064127 0.049991 -0.055785
v -0.063417 0.049319 -0.056307
v -0.063981 0.051698 -0.054571
v -0.063299 0.052411 -0.054117
v -0.062033 0.054348 -0.061472
v -0.061558 0.045071 -0.043354
v -0.063115 0.056864 -0.057955
v -0.062090 0.057219 -0.057785
v -0.061657 0.062266 -0.061548
v -0.062403 0.062344 -0.060661
v -0.063433 0.049645 -0.048854
v -0.062624 0.050274 -0.048503
v -0.060596 0.047521 -0.042500
v -0.061441 0.048185 -0.042466
v -0.062323 0.049217 -0.056429
v -0.061365 0.062011 -0.062542
v -0.062099 0.061480 -0.063378
v -0.062499 0.046125 -0.050286
v -0.060262 0.046560 -0.042708
v -0.060734 0.045664 -0.043040
v -0.062440 0.052987 -0.053761
v -0.060486 0.055663 -0.060230
v -0.061260 0.055013 -0.060839
v -0.061422 0.053365 -0.053544
v -0.061605 0.050624 -0.048247
v -0.061539 0.046590 -0.050005
v -0.060643 0.047161 -0.049682
v -0.060541 0.050332 -0.048271
v -0.061081 0.057231 -0.058061
v -0.061308 0.049690 -0.056161
v -0.060383 0.053250 -0.053685
v -0.059832 0.056332 -0.059601
v -0.060423 0.050302 -0.055776
v -0.060202 0.056919 -0.058723
v -0.059770 0.049590 -0.048539
v -0.059590 0.050981 -0.055330
v -0.059812 0.047818 -0.049326
v -0.059549 0.052660 -0.054153
v -0.059376 0.048708 -0.048900
v -0.059167 0.051858 -0.054751
usemtl Flexor_hallucis_longus_rMaterial0
f 1 2 3
f 4 3 2
f 1 5 2
f 4 2 5
f 6 3 7
f 8 7 3
f 1 3 6
f 4 8 3
f 1 9 5
f 9 10 5
f 11 5 10
f 4 5 12
f 11 12 5
f 7 13 14
f 14 15 7
f 6 7 15
f 8 16 7
f 7 16 13
f 17 14 18
f 19 18 14
f 19 14 13
f 14 20 15
f 17 20 14
f 17 18 21
f 19 21 18
f 22 1 6
f 1 23 9
f 1 24 23
f 22 24 1
f 9 25 10
f 10 25 26
f 10 26 11
f 15 22 6
f 9 27 25
f 9 23 27
f 28 8 4
f 28 4 12
f 29 16 8
f 28 30 8
f 29 8 30
f 11 31 12
f 28 12 31
f 13 16 29
f 19 13 32
f 13 29 32
f 15 20 33
f 15 34 22
f 15 33 34
f 17 21 35
f 19 36 21
f 37 21 36
f 38 21 37
f 38 35 21
f 39 20 17
f 39 33 20
f 27 26 25
f 11 26 31
f 35 39 17
f 36 19 40
f 19 32 40
f 41 23 24
f 27 23 41
f 37 36 42
f 38 37 43
f 43 37 42
f 22 44 24
f 41 24 44
f 35 38 45
f 35 46 39
f 35 45 46
f 27 47 26
f 27 41 48
f 27 48 49
f 27 49 47
f 50 28 31
f 47 31 26
f 47 50 31
f 28 51 30
f 50 52 28
f 28 52 51
f 53 22 34
f 22 54 44
f 53 54 22
f 30 55 29
f 30 51 55
f 36 56 42
f 36 40 57
f 36 57 56
f 38 43 58
f 43 42 59
f 58 43 60
f 61 60 43
f 61 43 59
f 62 48 41
f 63 49 48
f 62 63 48
f 64 38 58
f 64 45 38
f 53 34 33
f 65 32 29
f 65 29 55
f 66 41 44
f 66 62 41
f 47 67 50
f 47 49 67
f 68 40 32
f 68 32 65
f 50 69 52
f 50 67 69
f 66 44 54
f 63 70 49
f 71 63 62
f 71 70 63
f 59 42 56
f 39 72 33
f 53 33 72
f 58 60 73
f 64 58 73
f 74 39 46
f 39 75 72
f 74 75 39
f 76 51 52
f 76 52 69
f 66 54 77
f 78 54 53
f 78 77 54
f 70 67 49
f 71 62 79
f 71 80 70
f 71 81 82
f 83 71 82
f 71 79 81
f 83 80 71
f 79 62 66
f 57 40 68
f 51 84 55
f 51 76 84
f 85 73 60
f 85 60 86
f 61 86 60
f 70 87 67
f 88 70 80
f 88 87 70
f 83 82 81
f 74 46 45
f 89 69 67
f 89 67 87
f 79 66 90
f 91 66 77
f 91 90 66
f 79 92 81
f 79 90 92
f 59 93 61
f 59 56 94
f 59 94 93
f 85 95 73
f 64 73 95
f 72 78 53
f 88 80 83
f 92 96 81
f 83 81 96
f 91 77 78
f 92 90 91
f 97 45 64
f 74 45 98
f 97 98 45
f 76 69 89
f 92 91 99
f 92 99 100
f 92 101 96
f 92 100 101
f 88 83 96
f 89 87 88
f 102 99 91
f 91 78 103
f 102 91 103
f 104 85 86
f 61 105 86
f 86 106 104
f 86 105 106
f 56 57 107
f 57 68 107
f 85 108 95
f 104 109 85
f 85 109 110
f 85 110 108
f 55 111 65
f 55 84 111
f 112 100 99
f 112 99 102
f 88 96 101
f 89 88 113
f 88 101 113
f 76 89 114
f 115 76 114
f 115 84 76
f 72 116 78
f 75 116 72
f 97 64 95
f 117 103 78
f 117 78 116
f 118 105 61
f 118 61 93
f 75 119 116
f 119 75 74
f 89 113 120
f 89 120 114
f 117 119 121
f 121 122 117
f 123 121 119
f 123 124 121
f 121 124 125
f 121 126 122
f 121 125 126
f 122 103 117
f 117 116 119
f 100 113 101
f 122 102 103
f 119 74 123
f 127 95 108
f 97 95 127
f 100 120 113
f 128 109 104
f 110 109 128
f 68 65 111
f 129 94 56
f 56 107 130
f 129 56 130
f 128 104 131
f 132 131 104
f 132 104 106
f 98 123 74
f 114 120 133
f 114 133 115
f 124 123 134
f 124 134 135
f 125 124 135
f 100 133 120
f 100 112 133
f 105 136 106
f 105 118 136
f 112 102 122
f 137 108 110
f 127 108 137
f 138 122 126
f 112 122 138
f 139 126 125
f 138 126 140
f 139 140 126
f 98 134 123
f 98 141 134
f 98 97 141
f 115 111 84
f 142 128 131
f 110 128 143
f 142 143 128
f 144 93 94
f 144 94 129
f 135 134 141
f 125 135 145
f 146 145 135
f 135 141 146
f 68 147 107
f 68 111 148
f 68 148 147
f 142 131 149
f 150 149 131
f 150 131 132
f 143 151 110
f 137 110 151
f 145 139 125
f 106 152 132
f 106 136 152
f 153 97 127
f 153 141 97
f 153 127 137
f 142 154 143
f 155 142 149
f 142 155 156
f 142 156 154
f 157 112 138
f 157 133 112
f 158 115 133
f 115 158 111
f 143 159 151
f 160 143 154
f 160 159 143
f 93 161 118
f 93 144 161
f 155 149 162
f 162 149 150
f 130 107 147
f 157 138 140
f 146 163 145
f 145 164 139
f 165 145 163
f 165 164 145
f 158 133 157
f 166 146 141
f 166 163 146
f 151 167 137
f 153 137 167
f 148 111 158
f 150 132 152
f 166 141 153
f 168 156 155
f 155 162 169
f 168 155 170
f 155 169 170
f 139 171 140
f 157 140 171
f 160 154 156
f 160 156 172
f 173 172 156
f 173 156 168
f 151 159 174
f 151 175 167
f 151 174 175
f 176 136 118
f 176 118 161
f 166 153 167
f 139 177 171
f 139 164 178
f 139 178 177
f 179 159 160
f 179 174 159
f 162 150 180
f 169 162 180
f 172 179 160
f 172 181 179
f 172 182 181
f 172 173 182
f 130 183 129
f 130 147 184
f 130 184 183
f 185 167 175
f 166 167 186
f 185 186 167
f 148 158 187
f 148 188 147
f 148 187 188
f 158 157 171
f 185 175 174
f 158 171 187
f 150 152 189
f 150 190 180
f 150 189 190
f 166 191 163
f 192 166 186
f 192 191 166
f 176 152 136
f 193 163 191
f 193 165 163
f 179 194 174
f 185 174 194
f 195 144 129
f 195 129 183
f 196 168 170
f 173 168 196
f 187 171 177
f 197 170 169
f 196 170 197
f 198 179 181
f 179 199 194
f 198 199 179
f 200 186 185
f 200 192 186
f 178 164 165
f 198 181 182
f 189 152 201
f 176 201 152
f 202 184 147
f 202 147 188
f 194 200 185
f 187 177 188
f 161 144 195
f 169 180 203
f 203 180 190
f 173 196 204
f 205 182 173
f 205 173 204
f 197 169 206
f 207 169 203
f 207 206 169
f 188 177 178
f 208 191 192
f 208 193 191
f 199 209 194
f 194 209 200
f 210 199 198
f 199 210 209
f 161 211 176
f 161 195 212
f 161 212 211
f 202 183 184
f 189 201 213
f 189 214 190
f 189 213 214
f 208 192 200
f 188 178 202
f 198 182 215
f 210 198 216
f 215 216 198
f 178 165 217
f 193 217 165
f 218 196 197
f 204 196 219
f 218 219 196
f 201 176 211
f 217 202 178
f 220 215 182
f 220 182 205
f 221 200 209
f 208 200 222
f 221 222 200
f 197 206 223
f 197 223 218
f 202 224 183
f 195 183 224
f 203 190 225
f 203 225 226
f 203 226 207
f 217 224 202
f 193 208 227
f 193 228 217
f 193 227 228
f 221 209 210
f 216 229 210
f 221 210 229
f 205 204 230
f 204 219 230
f 231 212 195
f 195 224 232
f 231 195 232
f 201 233 213
f 201 211 234
f 201 234 233
f 235 225 190
f 235 190 214
f 236 206 207
f 236 223 206
f 237 208 222
f 237 227 208
f 232 224 217
f 232 217 228
f 215 238 216
f 216 239 229
f 239 216 238
f 231 211 212
f 215 240 238
f 215 220 240
f 213 241 214
f 213 233 241
f 242 222 221
f 242 237 222
f 205 230 243
f 220 205 243
f 229 242 221
f 235 226 225
f 232 228 227
f 234 211 244
f 231 244 211
f 232 227 231
f 229 239 245
f 229 246 242
f 229 245 246
f 247 207 226
f 247 236 207
f 218 248 219
f 249 230 219
f 249 219 248
f 244 231 227
f 244 227 237
f 250 218 223
f 218 251 248
f 250 251 218
f 234 244 252
f 234 253 233
f 234 252 253
f 214 254 235
f 214 241 254
f 239 238 255
f 255 238 240
f 244 237 242
f 249 243 230
f 220 243 256
f 257 240 220
f 257 220 256
f 245 239 255
f 244 242 252
f 258 259 260
f 258 261 259
f 258 262 263
f 258 260 262
f 258 263 264
f 258 264 261
f 223 236 265
f 223 265 250
f 252 242 246
f 266 233 253
f 266 241 233
f 235 267 226
f 247 226 267
f 268 260 259
f 269 259 261
f 269 268 259
f 263 262 270
f 270 262 260
f 263 271 264
f 263 270 272
f 263 272 271
f 252 246 253
f 273 267 235
f 273 235 254
f 266 253 246
f 266 246 245
f 274 261 264
f 274 264 271
f 256 243 275
f 249 275 243
f 270 260 276
f 268 277 260
f 277 276 260
f 269 261 274
f 236 247 278
f 236 278 265
f 270 279 272
f 280 271 272
f 280 272 279
f 255 240 281
f 282 281 240
f 282 240 257
f 270 276 283
f 270 284 279
f 270 283 284
f 266 254 241
f 245 255 285
f 281 285 255
f 274 271 280
f 286 277 268
f 286 268 269
f 285 266 245
f 277 287 276
f 283 276 287
f 269 274 288
f 274 280 289
f 274 290 288
f 274 289 290
f 277 291 287
f 286 292 277
f 277 292 291
f 269 288 293
f 286 269 294
f 269 293 294
f 247 267 295
f 295 267 273
f 257 256 296
f 256 275 296
f 279 284 297
f 280 279 298
f 279 297 298
f 266 299 254
f 285 299 266
f 283 297 284
f 280 300 289
f 280 298 301
f 280 301 300
f 302 247 295
f 302 278 247
f 254 299 303
f 254 303 273
f 283 287 304
f 291 304 287
f 305 288 290
f 305 293 288
f 283 304 306
f 283 307 297
f 283 306 307
f 308 290 289
f 308 289 300
f 248 251 309
f 310 249 248
f 248 309 310
f 251 250 311
f 251 311 309
f 286 294 312
f 313 292 286
f 286 312 314
f 313 286 314
f 281 315 285
f 282 315 281
f 316 294 293
f 316 312 294
f 303 299 285
f 303 285 315
f 313 291 292
f 308 305 290
f 249 317 275
f 310 318 249
f 249 318 317
f 291 319 304
f 306 304 319
f 320 250 265
f 320 311 250
f 282 257 321
f 257 296 321
f 322 301 298
f 323 300 301
f 323 301 324
f 322 324 301
f 322 298 297
f 325 297 307
f 322 297 326
f 325 326 297
f 323 308 300
f 305 316 293
f 306 325 307
f 313 327 291
f 291 328 319
f 291 327 328
f 295 273 329
f 330 273 303
f 330 329 273
f 295 329 331
f 295 331 302
f 332 314 312
f 313 314 333
f 332 333 314
f 308 334 305
f 323 335 308
f 308 335 336
f 308 336 334
f 306 319 337
f 306 338 325
f 306 339 338
f 306 337 339
f 316 332 312
f 296 275 317
f 305 340 316
f 305 334 341
f 305 341 340
f 342 327 313
f 313 333 343
f 342 313 343
f 265 278 344
f 265 344 320
f 328 337 319
f 323 324 345
f 346 335 323
f 346 323 347
f 323 345 347
f 322 345 324
f 322 326 345
f 282 348 315
f 330 303 315
f 330 315 348
f 349 335 346
f 349 336 335
f 316 340 350
f 316 351 332
f 316 350 351
f 325 345 326
f 352 325 338
f 352 353 325
f 325 353 345
f 339 352 338
f 354 334 336
f 354 341 334
f 342 328 327
f 355 343 333
f 332 355 333
f 356 348 282
f 282 321 357
f 356 282 357
f 328 358 337
f 339 337 358
f 355 359 343
f 342 343 359
f 360 340 341
f 360 350 340
f 332 361 355
f 332 351 362
f 332 362 361
f 363 321 296
f 296 317 363
f 330 331 329
f 364 346 347
f 349 346 364
f 342 365 328
f 328 366 358
f 328 365 366
f 354 336 349
f 367 347 345
f 364 347 367
f 355 368 359
f 355 369 368
f 355 370 369
f 355 361 370
f 339 371 352
f 364 353 352
f 364 352 371
f 302 344 278
f 367 345 353
f 339 358 372
f 339 373 371
f 339 372 373
f 364 367 353
f 342 359 374
f 368 374 359
f 375 365 342
f 375 342 374
f 376 351 350
f 376 362 351
f 349 364 377
f 364 371 377
f 360 341 354
f 368 369 378
f 379 369 370
f 379 378 369
f 366 372 358
f 380 370 361
f 380 361 362
f 349 377 381
f 354 349 382
f 349 381 382
f 373 377 371
f 383 330 348
f 383 348 356
f 368 378 384
f 368 385 374
f 368 384 386
f 368 386 385
f 330 383 331
f 375 366 365
f 376 350 360
f 379 370 380
f 387 378 379
f 387 384 378
f 373 372 388
f 366 388 372
f 373 381 377
f 389 357 321
f 363 390 321
f 389 321 390
f 360 354 391
f 354 382 392
f 354 392 391
f 375 374 385
f 393 302 331
f 302 393 344
f 380 362 376
f 394 310 309
f 309 311 395
f 309 395 394
f 396 318 310
f 394 397 310
f 396 310 397
f 387 379 398
f 379 380 399
f 379 400 398
f 379 399 400
f 387 401 384
f 386 384 401
f 373 402 381
f 373 388 403
f 373 403 402
f 375 404 366
f 366 405 388
f 366 404 405
f 376 360 406
f 360 391 407
f 360 407 406
f 408 401 387
f 387 398 409
f 387 409 408
f 402 382 381
f 402 392 382
f 375 385 410
f 386 410 385
f 320 395 311
f 317 318 396
f 380 376 411
f 380 412 399
f 380 411 412
f 413 375 410
f 413 404 375
f 386 401 414
f 408 415 401
f 414 401 415
f 416 409 398
f 416 398 400
f 376 417 411
f 376 406 417
f 418 356 357
f 418 357 389
f 405 403 388
f 419 420 421
f 419 422 420
f 423 424 419
f 419 421 423
f 424 425 419
f 419 425 422
f 426 391 392
f 426 407 391
f 386 427 410
f 386 414 428
f 386 428 427
f 429 400 399
f 429 399 412
f 430 331 383
f 393 331 430
f 431 421 420
f 431 420 422
f 408 432 415
f 408 433 432
f 434 433 408
f 434 408 409
f 423 435 424
f 436 423 421
f 423 436 437
f 423 437 435
f 424 438 425
f 439 424 435
f 424 440 438
f 439 441 424
f 424 441 440
f 436 421 442
f 442 421 443
f 431 443 421
f 436 432 433
f 437 436 433
f 436 442 432
f 422 425 444
f 444 425 438
f 431 422 445
f 446 445 422
f 422 444 446
f 447 363 317
f 317 396 447
f 414 415 448
f 448 415 432
f 439 435 437
f 437 433 434
f 413 410 427
f 428 414 448
f 449 434 409
f 449 409 416
f 450 416 400
f 450 400 429
f 451 320 344
f 320 451 395
f 413 405 404
f 452 412 411
f 452 411 417
f 432 442 453
f 442 443 453
f 402 403 454
f 405 454 403
f 455 417 406
f 455 406 407
f 443 431 456
f 445 456 431
f 383 356 418
f 402 426 392
f 444 438 457
f 458 438 440
f 458 457 438
f 430 383 459
f 383 418 459
f 448 432 460
f 432 453 460
f 449 437 434
f 439 437 461
f 449 461 437
f 443 462 453
f 443 456 463
f 443 463 462
f 464 441 439
f 440 441 464
f 461 465 439
f 464 439 465
f 428 448 466
f 460 466 448
f 452 429 412
f 428 467 427
f 413 427 467
f 450 449 416
f 445 468 456
f 446 469 445
f 469 468 445
f 402 454 470
f 402 470 426
f 460 453 462
f 471 446 444
f 444 457 472
f 444 472 471
f 473 450 429
f 452 474 429
f 473 429 474
f 461 449 475
f 461 476 465
f 461 475 476
f 440 464 477
f 440 477 478
f 440 478 458
f 466 479 428
f 428 479 467
f 413 480 405
f 405 481 454
f 405 480 481
f 460 482 466
f 460 462 482
f 363 483 390
f 447 484 363
f 363 484 483
f 450 475 449
f 463 456 485
f 485 456 468
f 486 413 467
f 486 480 413
f 455 452 417
f 487 469 446
f 471 488 446
f 487 446 488
f 426 455 407
f 462 463 489
f 463 485 489
f 465 490 464
f 491 477 464
f 491 464 490
f 492 465 476
f 465 492 490
f 493 344 393
f 451 344 493
f 494 457 458
f 494 472 457
f 495 466 482
f 466 496 479
f 495 496 466
f 473 475 450
f 495 482 462
f 462 489 497
f 495 462 497
f 469 498 468
f 485 468 499
f 499 468 498
f 452 500 474
f 455 501 452
f 452 501 500
f 502 476 475
f 492 476 502
f 486 467 479
f 473 503 475
f 502 475 503
f 491 478 477
f 498 469 487
f 485 504 489
f 489 505 497
f 489 504 505
f 500 473 474
f 485 499 506
f 485 507 504
f 485 506 507
f 479 496 508
f 486 479 509
f 479 508 509
f 481 470 454
f 492 510 490
f 511 492 502
f 492 511 510
f 490 512 491
f 490 510 512
f 478 494 458
f 486 481 480
f 426 513 455
f 455 514 501
f 455 513 514
f 426 470 515
f 426 515 513
f 508 496 495
f 473 516 503
f 500 517 473
f 473 517 516
f 389 390 483
f 497 518 495
f 497 505 518
f 393 430 519
f 493 393 520
f 393 519 520
f 503 521 502
f 511 502 521
f 499 498 522
f 522 506 499
f 508 495 518
f 503 516 521
f 507 523 504
f 524 505 504
f 524 504 523
f 525 500 501
f 525 501 514
f 491 526 478
f 512 526 491
f 507 527 523
f 507 506 528
f 507 528 527
f 394 529 397
f 394 395 530
f 394 531 529
f 394 530 531
f 529 396 397
f 532 486 509
f 486 533 481
f 532 533 486
f 534 510 511
f 521 535 511
f 534 511 535
f 525 517 500
f 534 512 510
f 536 522 498
f 498 487 536
f 532 509 508
f 481 515 470
f 537 516 517
f 525 538 517
f 537 517 538
f 539 478 526
f 478 540 494
f 539 540 478
f 508 518 541
f 532 508 542
f 508 541 542
f 543 488 471
f 544 471 472
f 544 543 471
f 524 518 505
f 527 545 523
f 523 545 546
f 523 546 524
f 481 533 547
f 481 547 515
f 521 548 535
f 548 521 516
f 547 514 513
f 547 513 515
f 447 396 549
f 529 549 396
f 487 488 550
f 543 550 488
f 522 551 506
f 552 528 506
f 552 506 551
f 530 395 451
f 524 541 518
f 535 545 553
f 535 546 545
f 535 553 534
f 535 548 546
f 548 516 537
f 519 430 459
f 527 553 545
f 528 553 527
f 554 418 389
f 389 483 554
f 555 472 494
f 555 544 472
f 542 556 557
f 542 557 558
f 542 558 532
f 542 541 556
f 538 525 558
f 538 557 556
f 538 558 557
f 538 556 537
f 534 559 512
f 560 534 553
f 560 559 534
f 512 561 526
f 562 512 559
f 562 561 512
f 547 525 514
f 547 558 525
f 556 541 524
f 556 524 546
f 546 548 537
f 528 560 553
f 563 551 522
f 536 563 522
f 532 547 533
f 532 558 547
f 546 537 556
f 561 539 526
f 528 564 560
f 528 552 564
f 565 459 418
f 554 566 418
f 565 418 566
f 567 536 487
f 487 550 567
f 519 459 565
f 568 484 447
f 447 549 569
f 568 447 569
f 564 559 560
f 564 562 559
f 540 555 494
f 451 493 570
f 530 451 571
f 451 570 571
f 552 551 572
f 563 572 551
f 529 531 573
f 529 574 549
f 529 573 575
f 529 575 574
f 562 576 561
f 561 576 539
f 573 531 530
f 563 536 577
f 567 577 536
f 568 483 484
f 539 578 540
f 540 578 555
f 579 493 520
f 579 570 493
f 574 569 549
f 580 564 552
f 552 572 580
f 573 530 581
f 530 571 582
f 530 582 581
f 583 562 564
f 562 583 576
f 580 584 564
f 583 564 584
f 572 563 585
f 563 577 585
f 574 586 569
f 568 569 586
f 568 587 483
f 554 483 587
f 588 539 576
f 539 588 578
f 550 543 589
f 590 543 544
f 590 589 543
f 579 520 519
f 591 575 573
f 574 575 591
f 550 589 592
f 550 593 567
f 550 592 593
f 591 573 594
f 573 581 595
f 573 595 594
f 555 590 544
f 574 591 596
f 574 597 586
f 574 596 597
f 598 571 570
f 598 582 571
f 591 592 589
f 590 591 589
f 599 580 572
f 572 585 599
f 568 586 600
f 601 587 568
f 601 568 600
f 593 577 567
f 591 594 592
f 593 592 594
f 590 596 591
f 554 602 566
f 554 587 603
f 554 603 602
f 555 604 590
f 605 604 555
f 605 555 578
f 606 576 583
f 588 576 607
f 606 607 576
f 608 595 581
f 608 581 582
f 519 565 609
f 579 519 610
f 519 609 610
f 593 594 595
f 597 596 590
f 597 590 604
f 597 600 586
f 598 570 579
f 593 611 577
f 593 595 608
f 593 608 611
f 602 565 566
f 580 612 584
f 599 613 580
f 580 613 612
f 602 609 565
f 597 604 605
f 601 603 587
f 585 577 611
f 605 578 588
f 597 614 600
f 597 605 614
f 583 584 612
f 583 612 606
f 601 600 614
f 608 582 598
f 579 610 615
f 598 579 616
f 579 615 616
f 605 617 614
f 605 588 618
f 605 618 617
f 585 611 619
f 608 619 611
f 620 599 585
f 620 585 619
f 601 614 617
f 588 621 618
f 588 607 621
f 601 622 603
f 602 603 622
f 608 598 623
f 608 623 619
f 624 601 617
f 624 622 601
f 625 610 609
f 625 615 610
f 598 626 623
f 598 616 626
f 602 625 609
f 602 622 627
f 602 627 625
f 624 617 618
f 624 618 621
f 620 613 599
f 620 619 623
f 628 607 606
f 628 621 607
f 620 623 626
f 629 616 615
f 629 626 616
f 624 627 622
f 620 630 613
f 612 613 630
f 629 620 626
f 629 630 620
f 612 628 606
f 628 624 621
f 625 629 615
f 624 631 627
f 628 631 624
f 612 630 632
f 612 632 628
f 625 627 631
f 625 633 629
f 625 631 633
f 629 632 630
f 628 633 631
f 628 632 633
f 629 633 632
