# 
# Wavefront OBJ file
# Created with Kaydara FBX
# 
mtllib c:\users\tjvan\onedrive\documenten\fontys\minor\nx\.mtlmodels\gracilis_muscle.r.obj

g Gracilis_muscle_r
v -0.040074 0.415610 -0.025420
v -0.040145 0.415371 -0.027001
v -0.040179 0.415290 -0.026983
v -0.039879 0.414987 -0.028554
v -0.040106 0.415531 -0.025395
v -0.039270 0.414913 -0.026764
v -0.039460 0.414727 -0.028327
v -0.038610 0.419185 -0.026553
v -0.039846 0.415074 -0.028569
v -0.038625 0.419058 -0.027826
v -0.039011 0.415113 -0.025842
v -0.038286 0.414532 -0.026967
v -0.039046 0.415032 -0.025836
v -0.037419 0.418792 -0.026106
v -0.039614 0.414676 -0.029639
v -0.039467 0.414575 -0.029783
v -0.039581 0.414767 -0.029655
v -0.038346 0.419013 -0.029240
v -0.039341 0.414366 -0.030616
v -0.039307 0.414461 -0.030632
v -0.038066 0.418923 -0.030372
v -0.038648 0.414169 -0.029897
v -0.038966 0.414169 -0.031134
v -0.038400 0.414288 -0.028437
v -0.038971 0.414070 -0.031632
v -0.038940 0.414167 -0.031646
v -0.037789 0.418784 -0.031369
v -0.037556 0.414069 -0.028315
v -0.038079 0.414645 -0.026760
v -0.037516 0.414223 -0.027572
v -0.038115 0.414563 -0.026750
v -0.036425 0.418359 -0.027237
v -0.038320 0.413910 -0.032341
v -0.038488 0.413902 -0.032468
v -0.037663 0.413759 -0.031411
v -0.038461 0.413996 -0.032484
v -0.037506 0.418578 -0.032290
v -0.037347 0.413789 -0.030148
v -0.036506 0.425934 -0.027255
v -0.036598 0.425756 -0.028460
v -0.035464 0.425669 -0.026990
v -0.038000 0.413733 -0.033310
v -0.037702 0.413669 -0.033539
v -0.037977 0.413824 -0.033326
v -0.037241 0.418300 -0.033197
v -0.036735 0.413663 -0.029706
v -0.036481 0.425539 -0.029687
v -0.036781 0.413394 -0.032923
v -0.037000 0.413951 -0.028500
v -0.037480 0.414305 -0.027583
v -0.035841 0.418027 -0.028079
v -0.036290 0.425345 -0.030805
v -0.037524 0.413572 -0.034129
v -0.037118 0.413446 -0.034674
v -0.037500 0.413659 -0.034144
v -0.036901 0.417974 -0.034058
v -0.035758 0.424926 -0.032954
v -0.036041 0.425140 -0.031892
v -0.035982 0.413053 -0.034355
v -0.036411 0.413362 -0.031862
v -0.036470 0.413672 -0.029453
v -0.036964 0.414035 -0.028510
v -0.037084 0.413528 -0.034686
v -0.036400 0.417627 -0.034793
v -0.035437 0.424705 -0.033996
v -0.035306 0.417833 -0.028981
v -0.034536 0.425269 -0.027748
v -0.036058 0.413312 -0.031121
v -0.035573 0.417252 -0.035233
v -0.035952 0.413137 -0.034368
v -0.036435 0.413757 -0.029464
v -0.034840 0.417631 -0.029953
v -0.034386 0.424185 -0.035786
v -0.035010 0.424462 -0.034971
v -0.035585 0.412965 -0.033504
v -0.036073 0.413422 -0.030452
v -0.034877 0.433063 -0.029461
v -0.034895 0.432909 -0.030592
v -0.034601 0.433148 -0.028401
v -0.034747 0.432718 -0.031713
v -0.036037 0.413507 -0.030463
v -0.034425 0.417406 -0.030965
v -0.033823 0.424933 -0.028613
v -0.035456 0.412981 -0.032501
v -0.034495 0.432506 -0.032816
v -0.035711 0.413178 -0.031467
v -0.035678 0.413264 -0.031477
v -0.034157 0.417151 -0.031975
v -0.034207 0.432299 -0.033903
v -0.035553 0.413048 -0.033515
v -0.034594 0.416982 -0.034959
v -0.035309 0.570649 -0.017582
v -0.035721 0.560549 -0.016976
v -0.035877 0.569641 -0.013830
v -0.034792 0.559682 -0.014011
v -0.034721 0.578836 -0.011014
v -0.035041 0.568681 -0.010587
v -0.035347 0.551926 -0.019607
v -0.035030 0.561532 -0.020298
v -0.035425 0.413067 -0.032512
v -0.033997 0.416959 -0.033038
v -0.033465 0.423871 -0.036233
v -0.034109 0.416833 -0.034012
v -0.033661 0.432966 -0.028128
v -0.033436 0.431859 -0.035981
v -0.033879 0.432086 -0.034975
v -0.034140 0.552729 -0.022621
v -0.034853 0.543443 -0.021824
v -0.034813 0.542757 -0.018746
v -0.033133 0.544081 -0.024598
v -0.034769 0.551232 -0.016578
v -0.033277 0.424649 -0.029581
v -0.033700 0.562635 -0.024072
v -0.034358 0.579839 -0.014974
v -0.033554 0.580881 -0.019188
v -0.033938 0.571753 -0.021681
v -0.032677 0.567940 -0.008406
v -0.034293 0.577955 -0.007571
v -0.033314 0.441115 -0.030303
v -0.033307 0.440993 -0.031445
v -0.033673 0.525494 -0.025517
v -0.034899 0.525093 -0.023116
v -0.034871 0.533964 -0.020793
v -0.032849 0.524648 -0.021015
v -0.034817 0.516140 -0.024695
v -0.033075 0.515745 -0.022680
v -0.033015 0.441164 -0.029264
v -0.034071 0.534557 -0.023751
v -0.032635 0.542215 -0.016545
v -0.032631 0.533496 -0.018880
v -0.032487 0.424183 -0.031642
v -0.032838 0.424400 -0.030585
v -0.034451 0.507380 -0.025916
v -0.033501 0.516529 -0.026862
v -0.032547 0.550635 -0.014284
v -0.032524 0.559048 -0.011607
v -0.033131 0.440842 -0.032587
v -0.033185 0.589033 -0.012809
v -0.033244 0.587119 -0.005402
v -0.033302 0.587988 -0.008816
v -0.032072 0.423663 -0.034995
v -0.032446 0.423623 -0.036032
v -0.032052 0.441005 -0.029041
v -0.032743 0.432670 -0.028728
v -0.032891 0.440679 -0.033714
v -0.032616 0.499261 -0.029044
v -0.033611 0.498833 -0.027088
v -0.032070 0.498669 -0.025375
v -0.033192 0.507817 -0.027960
v -0.032813 0.507123 -0.024009
v -0.031779 0.431330 -0.037325
v -0.032763 0.431600 -0.036866
v -0.032835 0.590026 -0.017251
v -0.032168 0.577260 -0.005374
v -0.032331 0.440345 -0.035954
v -0.032623 0.440513 -0.034838
v -0.032212 0.423990 -0.032734
v -0.032822 0.553646 -0.026032
v -0.032324 0.535012 -0.026383
v -0.032053 0.423810 -0.033864
v -0.032211 0.572815 -0.026061
v -0.031738 0.581793 -0.023780
v -0.031484 0.432128 -0.030516
v -0.031973 0.432380 -0.029510
v -0.031819 0.554453 -0.029807
v -0.032272 0.563674 -0.028237
v -0.031921 0.516892 -0.029040
v -0.032056 0.525862 -0.027886
v -0.031077 0.440770 -0.029603
v -0.032295 0.490471 -0.028290
v -0.031184 0.490314 -0.026672
v -0.030763 0.431144 -0.037066
v -0.031245 0.439938 -0.037943
v -0.031906 0.440158 -0.037018
v -0.031877 0.449259 -0.032034
v -0.031658 0.449140 -0.033218
v -0.032004 0.449367 -0.030840
v -0.032175 0.597102 -0.007070
v -0.032006 0.598080 -0.010975
v -0.032295 0.596222 -0.003671
v -0.030980 0.595476 -0.000952
v -0.031494 0.586354 -0.002891
v -0.031690 0.508175 -0.030043
v -0.031421 0.449016 -0.034392
v -0.031943 0.544694 -0.027748
v -0.031420 0.535495 -0.029314
v -0.029828 0.524345 -0.019969
v -0.030137 0.507043 -0.023328
v -0.030171 0.515524 -0.021750
v -0.031693 0.449400 -0.029698
v -0.031172 0.448892 -0.035581
v -0.031117 0.431902 -0.031576
v -0.031571 0.599058 -0.015434
v -0.031110 0.590691 -0.021839
v -0.030277 0.599834 -0.019928
v -0.029707 0.498746 -0.024853
v -0.030248 0.439713 -0.038363
v -0.029212 0.558801 -0.010239
v -0.028942 0.576937 -0.004689
v -0.029361 0.567723 -0.007438
v -0.031643 0.490902 -0.030236
v -0.031341 0.499610 -0.031093
v -0.030843 0.491185 -0.032168
v -0.029597 0.533148 -0.017792
v -0.029342 0.550271 -0.013059
v -0.029546 0.541842 -0.015441
v -0.030580 0.431504 -0.033746
v -0.030826 0.431697 -0.032645
v -0.030581 0.448629 -0.037902
v -0.030918 0.448765 -0.036753
v -0.031029 0.482295 -0.029554
v -0.031035 0.606138 -0.005192
v -0.031605 0.605290 -0.001911
v -0.030280 0.573595 -0.030286
v -0.030587 0.564386 -0.032207
v -0.030426 0.431335 -0.034882
v -0.030426 0.431197 -0.036028
v -0.030620 0.449246 -0.029522
v -0.031222 0.526259 -0.030583
v -0.031018 0.457672 -0.031160
v -0.030561 0.457671 -0.030002
v -0.030308 0.608068 -0.013301
v -0.030740 0.607065 -0.008990
v -0.030344 0.440554 -0.030417
v -0.031368 0.545233 -0.031111
v -0.031001 0.508491 -0.032432
v -0.031134 0.517248 -0.031553
v -0.029977 0.448461 -0.038909
v -0.030869 0.457601 -0.032427
v -0.030750 0.545665 -0.034557
v -0.030694 0.555029 -0.033573
v -0.028756 0.591263 -0.025898
v -0.029579 0.582426 -0.028038
v -0.029400 0.457543 -0.029830
v -0.030416 0.457434 -0.034912
v -0.030645 0.457520 -0.033646
v -0.030772 0.482569 -0.031347
v -0.031182 0.614233 0.000098
v -0.030623 0.604540 0.000746
v -0.031459 0.686029 0.013268
v -0.031551 0.695318 0.014721
v -0.030328 0.695777 0.011844
v -0.029444 0.694855 0.017078
v -0.030219 0.704780 0.013097
v -0.030846 0.704401 0.016154
v -0.029498 0.440184 -0.032504
v -0.029861 0.440363 -0.031418
v -0.028262 0.586079 -0.002534
v -0.029464 0.677485 0.009185
v -0.030973 0.676995 0.011805
v -0.029222 0.676673 0.014041
v -0.030064 0.686508 0.010557
v -0.029486 0.685645 0.015539
v -0.030987 0.535945 -0.032336
v -0.030771 0.526641 -0.033339
v -0.030802 0.499877 -0.033336
v -0.029992 0.457264 -0.037421
v -0.030197 0.457349 -0.036185
v -0.030263 0.482104 -0.028063
v -0.028550 0.482193 -0.027808
v -0.029108 0.490423 -0.026293
v -0.029888 0.615084 -0.003111
v -0.030466 0.622513 0.004993
v -0.031006 0.623184 0.002143
v -0.029518 0.623981 -0.001088
v -0.030576 0.613458 0.002846
v -0.030718 0.517560 -0.034148
v -0.029531 0.449048 -0.030075
v -0.028697 0.448869 -0.030850
v -0.030142 0.474267 -0.032069
v -0.030278 0.474120 -0.030598
v -0.029675 0.473990 -0.029265
v -0.029179 0.616005 -0.006812
v -0.030215 0.465991 -0.032509
v -0.030395 0.465970 -0.031140
v -0.030518 0.500105 -0.035624
v -0.030614 0.508786 -0.034892
v -0.030897 0.632157 0.003803
v -0.030508 0.536316 -0.035416
v -0.027493 0.604393 0.001080
v -0.027793 0.595265 -0.000701
v -0.030949 0.668086 0.010240
v -0.029332 0.667701 0.012705
v -0.030694 0.659145 0.008692
v -0.029377 0.668562 0.007451
v -0.029702 0.457166 -0.038667
v -0.030030 0.640544 0.008376
v -0.030702 0.641106 0.005391
v -0.029165 0.641655 0.002331
v -0.030230 0.631596 0.006745
v -0.029373 0.632788 0.000696
v -0.029898 0.465959 -0.033807
v -0.030481 0.491349 -0.034196
v -0.030313 0.482703 -0.033058
v -0.029988 0.482804 -0.034853
v -0.030030 0.713236 0.017173
v -0.028916 0.703944 0.018445
v -0.029194 0.440015 -0.033609
v -0.028819 0.439600 -0.037020
v -0.029227 0.439567 -0.038028
v -0.030236 0.517826 -0.036747
v -0.030322 0.526986 -0.036104
v -0.029041 0.555473 -0.036945
v -0.029471 0.536599 -0.038391
v -0.029406 0.545996 -0.037717
v -0.028711 0.564906 -0.035679
v -0.030632 0.650114 0.007102
v -0.029174 0.650658 0.004044
v -0.029876 0.649584 0.009947
v -0.029593 0.658699 0.011457
v -0.029289 0.659642 0.005726
v -0.030185 0.508993 -0.037315
v -0.028759 0.439709 -0.035855
v -0.028929 0.439854 -0.034726
v -0.027466 0.613301 0.003211
v -0.029855 0.465896 -0.029897
v -0.030246 0.491511 -0.036253
v -0.029975 0.491652 -0.038294
v -0.030206 0.500293 -0.037865
v -0.026964 0.631379 0.007432
v -0.027315 0.622313 0.005533
v -0.029517 0.465900 -0.036588
v -0.029696 0.465923 -0.035187
v -0.029804 0.474338 -0.033613
v -0.029447 0.527238 -0.038829
v -0.029229 0.608972 -0.017856
v -0.028226 0.617964 -0.015788
v -0.028828 0.617022 -0.011051
v -0.027739 0.696232 0.009451
v -0.030295 0.732355 0.016380
v -0.030172 0.722845 0.015283
v -0.029894 0.722557 0.018480
v -0.029057 0.723018 0.011857
v -0.029774 0.732075 0.019662
v -0.029077 0.741307 0.020600
v -0.029695 0.741714 0.017274
v -0.029319 0.741834 0.013726
v -0.029486 0.732479 0.012902
v -0.027523 0.583005 -0.031747
v -0.028140 0.574169 -0.033824
v -0.027250 0.609482 -0.021997
v -0.028078 0.600380 -0.024006
v -0.028226 0.474016 -0.029067
v -0.028933 0.448274 -0.039337
v -0.027853 0.448150 -0.038909
v -0.029787 0.482888 -0.036655
v -0.029384 0.509086 -0.039721
v -0.029382 0.518001 -0.039223
v -0.029326 0.465850 -0.037994
v -0.029452 0.500353 -0.040142
v -0.030041 0.713653 0.014127
v -0.028477 0.713816 0.011037
v -0.028182 0.705125 0.010300
v -0.027393 0.507059 -0.023667
v -0.027214 0.515521 -0.022035
v -0.027467 0.687013 0.008026
v -0.026671 0.649373 0.010713
v -0.026776 0.640340 0.009060
v -0.028319 0.722190 0.021200
v -0.028446 0.712807 0.019748
v -0.029497 0.474353 -0.035162
v -0.029243 0.474359 -0.036736
v -0.029067 0.457033 -0.039766
v -0.027880 0.456871 -0.040221
v -0.029569 0.482970 -0.038450
v -0.029151 0.482996 -0.040156
v -0.029334 0.491662 -0.040308
v -0.028218 0.448719 -0.031956
v -0.028508 0.465806 -0.029742
v -0.026249 0.533001 -0.017825
v -0.026690 0.524258 -0.020036
v -0.028118 0.731700 0.022358
v -0.029033 0.465742 -0.039361
v -0.028373 0.465605 -0.040545
v -0.027107 0.490642 -0.026792
v -0.027302 0.498884 -0.025255
v -0.029074 0.750972 0.014379
v -0.029169 0.750776 0.018142
v -0.026451 0.658536 0.012308
v -0.028996 0.474359 -0.038349
v -0.025986 0.541719 -0.015484
v -0.028167 0.457383 -0.030195
v -0.027755 0.633565 -0.002877
v -0.028065 0.624825 -0.004730
v -0.027580 0.448456 -0.034297
v -0.027884 0.448586 -0.033121
v -0.026330 0.685488 0.016400
v -0.026097 0.676534 0.014947
v -0.027154 0.741655 0.010385
v -0.027015 0.732464 0.009888
v -0.027823 0.527381 -0.041153
v -0.027394 0.546232 -0.040160
v -0.027698 0.536796 -0.040743
v -0.027480 0.669166 0.004220
v -0.027368 0.678069 0.006223
v -0.028256 0.500324 -0.042115
v -0.025973 0.703575 0.019590
v -0.026326 0.694576 0.018183
v -0.027152 0.465727 -0.030032
v -0.026817 0.555746 -0.039460
v -0.027962 0.518066 -0.041417
v -0.028163 0.509125 -0.041846
v -0.027537 0.642341 -0.001132
v -0.025610 0.558989 -0.010363
v -0.025679 0.567958 -0.007822
v -0.028704 0.474339 -0.039831
v -0.028196 0.491587 -0.042080
v -0.025701 0.550232 -0.013063
v -0.026193 0.667605 0.013592
v -0.027597 0.660230 0.002386
v -0.027277 0.448145 -0.037864
v -0.026502 0.618312 -0.020224
v -0.027377 0.625722 -0.009048
v -0.027521 0.651295 0.000623
v -0.028587 0.750247 0.021566
v -0.028765 0.759831 0.018964
v -0.027986 0.474262 -0.041224
v -0.028167 0.482905 -0.041756
v -0.026826 0.482369 -0.028351
v -0.027060 0.465475 -0.040956
v -0.025383 0.714056 0.008395
v -0.026404 0.723211 0.009147
v -0.027193 0.749715 0.024411
v -0.027592 0.740810 0.023289
v -0.028881 0.760108 0.015077
v -0.027629 0.760024 0.011308
v -0.027315 0.750818 0.010814
v -0.027301 0.448328 -0.035470
v -0.026702 0.456767 -0.039701
v -0.024615 0.586108 -0.003295
v -0.025284 0.577014 -0.005437
v -0.028491 0.769400 0.015976
v -0.026944 0.626583 -0.013800
v -0.027151 0.448216 -0.036670
v -0.025915 0.600862 -0.027702
v -0.026670 0.591789 -0.029583
v -0.028606 0.768992 0.019885
v -0.028095 0.768318 0.023602
v -0.028204 0.759303 0.022529
v -0.026793 0.457143 -0.032239
v -0.027252 0.457243 -0.031026
v -0.025173 0.574349 -0.035919
v -0.026038 0.565183 -0.037962
v -0.027722 0.778708 0.016640
v -0.027931 0.778345 0.020714
v -0.026801 0.778326 0.012163
v -0.027482 0.769280 0.011974
v -0.025713 0.712529 0.021173
v -0.025497 0.731394 0.023910
v -0.025612 0.721928 0.022753
v -0.026462 0.491511 -0.043171
v -0.026285 0.509098 -0.043341
v -0.026398 0.500275 -0.043378
v -0.026734 0.474097 -0.029488
v -0.026938 0.758683 0.025566
v -0.024690 0.705622 0.007690
v -0.026555 0.482835 -0.042436
v -0.025979 0.518051 -0.042962
v -0.027613 0.777548 0.024671
v -0.026388 0.776619 0.028143
v -0.026778 0.767586 0.026812
v -0.025009 0.609879 -0.025686
v -0.026512 0.634420 -0.007062
v -0.026577 0.474174 -0.041854
v -0.026412 0.787757 0.016472
v -0.026524 0.787395 0.021036
v -0.026467 0.457054 -0.033489
v -0.025209 0.536861 -0.042073
v -0.025554 0.527411 -0.042531
v -0.024118 0.595312 -0.001361
v -0.025010 0.687680 0.004742
v -0.024767 0.696863 0.006621
v -0.024709 0.546252 -0.041200
v -0.025166 0.769116 0.008544
v -0.024381 0.750866 0.007971
v -0.024853 0.759987 0.008235
v -0.026348 0.786440 0.025432
v -0.025839 0.660943 -0.001429
v -0.025248 0.740365 0.024998
v -0.025895 0.456874 -0.036023
v -0.026161 0.456964 -0.034755
v -0.026021 0.652078 -0.003328
v -0.026155 0.643179 -0.005139
v -0.023637 0.591958 -0.031889
v -0.024399 0.583166 -0.033945
v -0.023994 0.613452 0.002416
v -0.023975 0.604503 0.000424
v -0.025216 0.678798 0.002723
v -0.025524 0.669884 0.000602
v -0.025260 0.778250 0.008830
v -0.025175 0.499056 -0.026663
v -0.024647 0.515704 -0.023514
v -0.024996 0.507252 -0.025141
v -0.023909 0.622411 0.004711
v -0.025495 0.490874 -0.028118
v -0.025836 0.456806 -0.037324
v -0.026058 0.456761 -0.038603
v -0.026214 0.465671 -0.030980
v -0.024652 0.758137 0.027665
v -0.024780 0.749246 0.026152
v -0.025636 0.474181 -0.030589
v -0.023677 0.732684 0.007306
v -0.024003 0.741730 0.007728
v -0.025832 0.465433 -0.040374
v -0.025179 0.474180 -0.041142
v -0.023309 0.640428 0.008088
v -0.023561 0.631470 0.006543
v -0.025877 0.627241 -0.018400
v -0.025661 0.635309 -0.011718
v -0.024987 0.636130 -0.016289
v -0.025596 0.482603 -0.029588
v -0.023028 0.565128 -0.038858
v -0.023919 0.555753 -0.040425
v -0.025326 0.465587 -0.033627
v -0.025688 0.465627 -0.032257
v -0.025780 0.787768 0.012124
v -0.024506 0.766937 0.029048
v -0.025130 0.465450 -0.039177
v -0.023915 0.524438 -0.021597
v -0.022885 0.601001 -0.029981
v -0.022994 0.658605 0.011464
v -0.023187 0.649486 0.009697
v -0.024944 0.482843 -0.041753
v -0.024707 0.795817 0.021326
v -0.023754 0.627643 -0.021991
v -0.024144 0.618563 -0.023704
v -0.025038 0.644129 -0.009666
v -0.024458 0.500225 -0.042654
v -0.024614 0.491499 -0.042442
v -0.024206 0.508971 -0.042616
v -0.022973 0.723659 0.006587
v -0.025441 0.785371 0.029229
v -0.023363 0.784411 0.031993
v -0.024016 0.775795 0.030538
v -0.024131 0.797799 0.012633
v -0.024536 0.796774 0.016452
v -0.024609 0.794730 0.025995
v -0.022821 0.685537 0.015934
v -0.022791 0.694566 0.017755
v -0.022743 0.542013 -0.017151
v -0.023212 0.533233 -0.019436
v -0.022696 0.667651 0.012989
v -0.025037 0.465548 -0.035014
v -0.024670 0.653000 -0.007698
v -0.022574 0.676600 0.014489
v -0.024848 0.465472 -0.037820
v -0.023041 0.527282 -0.042148
v -0.023761 0.517911 -0.042386
v -0.022550 0.712525 0.020768
v -0.022729 0.703479 0.019151
v -0.024851 0.465507 -0.036414
v -0.023596 0.636757 -0.020234
v -0.024352 0.474242 -0.039706
v -0.023716 0.670714 -0.003293
v -0.024275 0.661799 -0.005588
v -0.024828 0.788086 0.009209
v -0.023520 0.798757 0.009475
v -0.022450 0.550734 -0.014801
v -0.025052 0.474219 -0.031956
v -0.022146 0.568449 -0.009755
v -0.024076 0.645062 -0.014162
v -0.024827 0.482789 -0.031249
v -0.022335 0.559523 -0.012274
v -0.022497 0.721865 0.022376
v -0.022497 0.536729 -0.041565
v -0.023211 0.679640 -0.001090
v -0.024057 0.499312 -0.028830
v -0.024476 0.491108 -0.030101
v -0.022254 0.740149 0.024956
v -0.022477 0.731253 0.023719
v -0.023968 0.793731 0.030041
v -0.021598 0.706092 0.003979
v -0.021853 0.714659 0.005523
v -0.024612 0.474244 -0.033471
v -0.024267 0.474264 -0.035028
v -0.021663 0.577380 -0.007457
v -0.022763 0.769457 0.005973
v -0.023513 0.788522 0.006540
v -0.023286 0.778600 0.006185
v -0.021178 0.583046 -0.034945
v -0.022097 0.574260 -0.036934
v -0.021360 0.618836 -0.026179
v -0.022047 0.610078 -0.028018
v -0.022351 0.697236 0.002843
v -0.022849 0.688430 0.001152
v -0.023519 0.507577 -0.027536
v -0.023616 0.491545 -0.040570
v -0.023978 0.482924 -0.040212
v -0.024056 0.474275 -0.036608
v -0.024048 0.474279 -0.038132
v -0.021661 0.751312 0.005497
v -0.022249 0.760373 0.005728
v -0.024310 0.482881 -0.032970
v -0.023875 0.491300 -0.032174
v -0.022768 0.799828 0.006851
v -0.021869 0.748955 0.026615
v -0.021079 0.555438 -0.039743
v -0.022079 0.546076 -0.040440
v -0.022917 0.802251 0.026794
v -0.023397 0.804996 0.018059
v -0.023182 0.803371 0.022369
v -0.022843 0.662712 -0.009742
v -0.023419 0.653951 -0.012019
v -0.022095 0.524881 -0.024297
v -0.022985 0.516104 -0.026090
v -0.021575 0.766546 0.029810
v -0.021726 0.757825 0.028298
v -0.023340 0.500182 -0.040588
v -0.020763 0.595773 -0.003711
v -0.021025 0.586469 -0.005382
v -0.023033 0.806781 0.014336
v -0.020312 0.591846 -0.032994
v -0.023648 0.483017 -0.038344
v -0.023920 0.482965 -0.034759
v -0.023675 0.483039 -0.036573
v -0.022208 0.671636 -0.007319
v -0.022445 0.517707 -0.040153
v -0.023009 0.508832 -0.040409
v -0.021040 0.627878 -0.024541
v -0.022913 0.645854 -0.018138
v -0.022225 0.654794 -0.015951
v -0.023352 0.499620 -0.031207
v -0.022766 0.507929 -0.030164
v -0.021030 0.775218 0.031586
v -0.020766 0.605015 -0.001916
v -0.020718 0.622912 0.002296
v -0.020757 0.613990 0.000092
v -0.021091 0.742247 0.005175
v -0.023241 0.491590 -0.038463
v -0.022334 0.792859 0.033129
v -0.022546 0.801413 0.030758
v -0.023488 0.491448 -0.034213
v -0.022988 0.499868 -0.033535
v -0.021512 0.527041 -0.039870
v -0.023259 0.491572 -0.036302
v -0.020116 0.724353 0.003593
v -0.020648 0.733288 0.004556
v -0.020780 0.646373 -0.021258
v -0.021138 0.637078 -0.023146
v -0.020499 0.631854 0.004188
v -0.022094 0.788898 0.004232
v -0.022306 0.808338 0.011055
v -0.021508 0.663541 -0.013625
v -0.021568 0.812274 0.022111
v -0.019618 0.792187 0.034771
v -0.020375 0.783719 0.033377
v -0.022883 0.500128 -0.038300
v -0.022452 0.508686 -0.037930
v -0.020026 0.649854 0.007257
v -0.020259 0.640794 0.005708
v -0.020820 0.769839 0.003656
v -0.021483 0.778881 0.003863
v -0.022818 0.500034 -0.035878
v -0.021220 0.533772 -0.022273
v -0.020738 0.689265 -0.002841
v -0.021438 0.680548 -0.005053
v -0.021854 0.810635 0.025218
v -0.019186 0.573877 -0.036545
v -0.020190 0.564793 -0.038322
v -0.019832 0.815361 0.015924
v -0.020625 0.814262 0.019166
v -0.021807 0.517482 -0.037434
v -0.022288 0.508511 -0.035349
v -0.022392 0.508261 -0.032754
v -0.022079 0.516552 -0.028969
v -0.019665 0.667969 0.010518
v -0.019861 0.658946 0.008883
v -0.020394 0.655382 -0.019188
v -0.021041 0.808644 0.031953
v -0.021513 0.809414 0.028491
v -0.018860 0.610113 -0.029473
v -0.019572 0.600910 -0.031156
v -0.020312 0.697637 -0.000998
v -0.019583 0.694856 0.015669
v -0.019467 0.676998 0.012291
v -0.019476 0.685896 0.013924
v -0.021641 0.516942 -0.031804
v -0.021565 0.809508 0.008201
v -0.022032 0.800603 0.005147
v -0.019146 0.808842 0.005854
v -0.020142 0.551521 -0.017848
v -0.020561 0.542664 -0.020101
v -0.019769 0.703713 0.017286
v -0.019819 0.722091 0.020459
v -0.019775 0.712776 0.018897
v -0.021369 0.800655 0.033956
v -0.020198 0.545777 -0.038265
v -0.020711 0.536444 -0.039303
v -0.019894 0.731374 0.021921
v -0.019913 0.560306 -0.015490
v -0.019178 0.814703 0.011994
v -0.021577 0.517234 -0.034638
v -0.019510 0.749194 0.024794
v -0.019813 0.740305 0.023209
v -0.019572 0.751837 0.003007
v -0.020213 0.760834 0.003369
v -0.020821 0.672508 -0.011163
v -0.020078 0.681409 -0.008887
v -0.018759 0.578046 -0.010908
v -0.019387 0.569158 -0.013077
v -0.021082 0.525467 -0.027466
v -0.020090 0.534499 -0.025730
v -0.018125 0.582647 -0.034670
v -0.020304 0.788853 0.002484
v -0.018265 0.618997 -0.027725
v -0.020899 0.797383 0.003537
v -0.019552 0.715474 0.001858
v -0.019072 0.817839 0.029657
v -0.020556 0.526404 -0.033794
v -0.020838 0.526746 -0.036920
v -0.019416 0.758031 0.026398
v -0.020596 0.526000 -0.030672
v -0.019724 0.706437 0.000289
v -0.018328 0.775294 0.030013
v -0.019177 0.766697 0.028017
v -0.018238 0.820340 0.026041
v -0.018788 0.818919 0.027787
v -0.020054 0.536112 -0.036219
v -0.019320 0.673233 -0.014615
v -0.019926 0.664198 -0.016980
v -0.019249 0.816831 0.031571
v -0.018921 0.770281 0.001473
v -0.019539 0.779192 0.001993
v -0.019338 0.690093 -0.006620
v -0.020318 0.808090 0.034991
v -0.019063 0.800041 0.035929
v -0.017685 0.637137 -0.024640
v -0.017539 0.646479 -0.022683
v -0.019524 0.555021 -0.037192
v -0.018691 0.564227 -0.035761
v -0.019060 0.742864 0.002445
v -0.018255 0.587175 -0.008932
v -0.017828 0.627947 -0.025945
v -0.018758 0.815517 0.036319
v -0.019236 0.816042 0.033798
v -0.018517 0.788960 0.003778
v -0.019399 0.800169 0.004203
v -0.018595 0.682104 -0.012257
v -0.018053 0.605753 -0.005535
v -0.018117 0.596510 -0.007269
v -0.018039 0.614751 -0.003636
v -0.017918 0.632490 0.000484
v -0.018111 0.623655 -0.001526
v -0.018539 0.733982 0.001599
v -0.017385 0.822224 0.024204
v -0.019613 0.535211 -0.029310
v -0.019642 0.535722 -0.032835
v -0.019340 0.543508 -0.023776
v -0.017024 0.664451 -0.018838
v -0.017287 0.655521 -0.020846
v -0.017527 0.783758 0.031838
v -0.016349 0.600571 -0.031008
v -0.017139 0.591492 -0.032804
v -0.018248 0.707279 -0.002982
v -0.018867 0.698569 -0.004714
v -0.018543 0.807544 0.037032
v -0.017641 0.641426 0.002105
v -0.017882 0.752453 0.000449
v -0.018375 0.761359 0.001034
v -0.019452 0.545426 -0.035186
v -0.018826 0.554609 -0.033986
v -0.017685 0.573187 -0.033905
v -0.018496 0.561266 -0.019679
v -0.018888 0.552460 -0.021800
v -0.017948 0.716317 -0.001205
v -0.018172 0.725188 0.000347
v -0.018916 0.544346 -0.027765
v -0.019018 0.544977 -0.031706
v -0.017171 0.659435 0.005439
v -0.017323 0.650413 0.003766
v -0.016787 0.673635 -0.016897
v -0.018051 0.731697 0.019150
v -0.017601 0.713219 0.015947
v -0.017867 0.722458 0.017598
v -0.018138 0.740682 0.020506
v -0.017311 0.704249 0.014266
v -0.016768 0.677537 0.008897
v -0.016987 0.668469 0.007138
v -0.016619 0.800097 0.034274
v -0.016968 0.792219 0.033230
v -0.016705 0.686502 0.010644
v -0.016934 0.695403 0.012451
v -0.015573 0.609838 -0.029293
v -0.016499 0.770520 0.001694
v -0.017246 0.779416 0.002769
v -0.018063 0.563629 -0.032490
v -0.018189 0.758519 0.023437
v -0.018194 0.749656 0.021894
v -0.018469 0.554061 -0.030354
v -0.018467 0.799553 0.006517
v -0.017791 0.570007 -0.017558
v -0.017642 0.699355 -0.007919
v -0.018073 0.690757 -0.009941
v -0.017246 0.824087 0.035579
v -0.017282 0.823378 0.036636
v -0.017874 0.767211 0.025100
v -0.018629 0.808884 0.007752
v -0.018174 0.807805 0.010761
v -0.017219 0.814973 0.015721
v -0.016172 0.822633 0.022164
v -0.016977 0.734696 -0.001255
v -0.017451 0.743550 -0.000325
v -0.016873 0.825474 0.033138
v -0.017075 0.824871 0.034444
v -0.018449 0.553340 -0.026170
v -0.017026 0.708234 -0.005991
v -0.016636 0.826155 0.032038
v -0.016503 0.588001 -0.013552
v -0.017053 0.578899 -0.015517
v -0.017461 0.815028 0.037991
v -0.016168 0.822269 0.039031
v -0.017032 0.822737 0.037882
v -0.018022 0.798499 0.009285
v -0.016365 0.691254 -0.012661
v -0.016421 0.682567 -0.014806
v -0.016547 0.807552 0.035321
v -0.017651 0.788637 0.006246
v -0.016424 0.779254 0.005400
v -0.017931 0.562174 -0.024301
v -0.017122 0.570907 -0.022415
v -0.017811 0.562956 -0.028665
v -0.015632 0.752968 -0.001027
v -0.015914 0.761734 0.000404
v -0.017287 0.775926 0.026838
v -0.016898 0.784523 0.028396
v -0.014503 0.627796 -0.025753
v -0.014909 0.618821 -0.027561
v -0.016055 0.827220 0.030923
v -0.017178 0.750105 0.018556
v -0.016915 0.741094 0.017173
v -0.017148 0.767870 0.021619
v -0.017318 0.759075 0.020066
v -0.016738 0.725976 -0.002555
v -0.017809 0.797557 0.012570
v -0.017986 0.806195 0.014204
v -0.017132 0.813672 0.019042
v -0.016555 0.581928 -0.032027
v -0.015444 0.590838 -0.030215
v -0.016340 0.597296 -0.011890
v -0.016064 0.615616 -0.008430
v -0.015932 0.624531 -0.006490
v -0.016921 0.571763 -0.026868
v -0.017087 0.572504 -0.030651
v -0.016314 0.606552 -0.010303
v -0.016214 0.699988 -0.010672
v -0.016259 0.722947 0.014134
v -0.016626 0.732077 0.015776
v -0.017268 0.788231 0.009112
v -0.017757 0.804368 0.018008
v -0.016727 0.717138 -0.004176
v -0.015467 0.642273 -0.002739
v -0.015715 0.633359 -0.004559
v -0.015780 0.713849 0.012227
v -0.014192 0.636854 -0.024110
v -0.017611 0.796428 0.016395
v -0.017147 0.787339 0.016157
v -0.017183 0.787858 0.012370
v -0.017200 0.802666 0.022175
v -0.017063 0.811450 0.022132
v -0.015976 0.581250 -0.028780
v -0.016293 0.778993 0.008333
v -0.017133 0.795154 0.020914
v -0.013880 0.655235 -0.020403
v -0.014197 0.646155 -0.021948
v -0.015619 0.744141 -0.002607
v -0.016026 0.814942 0.036683
v -0.014550 0.827691 0.030441
v -0.015083 0.651205 -0.000932
v -0.014764 0.696181 0.008415
v -0.015311 0.704992 0.010342
v -0.016313 0.750639 0.014833
v -0.016651 0.759661 0.016298
v -0.013739 0.664211 -0.018379
v -0.016856 0.776727 0.023140
v -0.016028 0.829112 0.039364
v -0.015907 0.770278 0.004348
v -0.016208 0.829984 0.038166
v -0.016160 0.829527 0.038832
v -0.015047 0.821857 0.023995
v -0.016632 0.793944 0.025493
v -0.016730 0.809808 0.025203
v -0.016315 0.808664 0.028563
v -0.016563 0.801532 0.026640
v -0.014546 0.669174 0.002773
v -0.014714 0.660133 0.000932
v -0.016424 0.778668 0.011660
v -0.016212 0.579750 -0.020456
v -0.015882 0.580549 -0.024976
v -0.014589 0.599944 -0.028443
v -0.016682 0.777560 0.019217
v -0.016705 0.768563 0.017798
v -0.016983 0.786546 0.020286
v -0.016574 0.778223 0.015351
v -0.015351 0.818138 0.027629
v -0.015243 0.819750 0.025813
v -0.015355 0.816963 0.029600
v -0.015662 0.717836 -0.006738
v -0.015823 0.708940 -0.008678
v -0.015778 0.828788 0.039889
v -0.015532 0.726591 -0.005065
v -0.015646 0.735307 -0.003869
v -0.016835 0.785521 0.024458
v -0.016479 0.792944 0.029656
v -0.014420 0.687317 0.006493
v -0.015478 0.732622 0.011828
v -0.015891 0.741601 0.013376
v -0.016144 0.830560 0.037560
v -0.013365 0.682356 -0.014378
v -0.013608 0.673385 -0.016313
v -0.014431 0.678280 0.004603
v -0.015362 0.815926 0.031586
v -0.016363 0.769156 0.014031
v -0.016121 0.760194 0.012584
v -0.015069 0.723650 0.010066
v -0.016297 0.800711 0.030728
v -0.016085 0.808003 0.032130
v -0.015900 0.831001 0.036804
v -0.016078 0.769611 0.010478
v -0.015018 0.590204 -0.026901
v -0.015191 0.598005 -0.016804
v -0.015435 0.588784 -0.018508
v -0.013258 0.691185 -0.012651
v -0.015028 0.607265 -0.015115
v -0.015645 0.751203 0.011068
v -0.015134 0.742195 0.009488
v -0.015881 0.769964 0.007288
v -0.013211 0.709025 -0.008484
v -0.013356 0.700060 -0.010663
v -0.015473 0.833166 0.040779
v -0.014831 0.822075 0.038317
v -0.015305 0.828458 0.040377
v -0.014411 0.828371 0.040367
v -0.015408 0.832964 0.041020
v -0.015352 0.833191 0.039547
v -0.015372 0.833445 0.040553
v -0.015707 0.760652 0.009147
v -0.015134 0.751724 0.007595
v -0.015401 0.761086 0.006006
v -0.015489 0.815217 0.033935
v -0.014181 0.625330 -0.011461
v -0.014605 0.616396 -0.013259
v -0.015266 0.831287 0.036352
v -0.015096 0.832758 0.041387
v -0.015259 0.832838 0.041201
v -0.015062 0.589535 -0.023059
v -0.014639 0.733318 0.007745
v -0.015370 0.761480 0.003016
v -0.014718 0.752707 0.001424
v -0.013241 0.717844 -0.006152
v -0.013821 0.705949 0.005862
v -0.014481 0.714732 0.007942
v -0.013704 0.634194 -0.009543
v -0.014760 0.752246 0.004413
v -0.013826 0.735153 -0.002199
v -0.014539 0.742822 0.005871
v -0.014183 0.743917 -0.000471
v -0.013192 0.618226 -0.024894
v -0.013812 0.609219 -0.026689
v -0.013431 0.726529 -0.003993
v -0.014130 0.822478 0.036887
v -0.013184 0.652042 -0.005794
v -0.013453 0.643115 -0.007653
v -0.014340 0.833487 0.040789
v -0.014607 0.833676 0.040594
v -0.014467 0.833605 0.040750
v -0.014214 0.833350 0.040911
v -0.013699 0.823085 0.035735
v -0.013384 0.823867 0.034416
v -0.013136 0.824720 0.033111
v -0.014912 0.833262 0.039466
v -0.013192 0.697179 0.003813
v -0.014906 0.832668 0.041559
v -0.014511 0.831689 0.041407
v -0.014133 0.831199 0.036370
v -0.012981 0.825602 0.031899
v -0.014610 0.598695 -0.021239
v -0.014166 0.607946 -0.019428
v -0.014167 0.833074 0.041262
v -0.014181 0.833201 0.041088
v -0.014181 0.724505 0.005813
v -0.013578 0.715753 0.003640
v -0.013138 0.826889 0.030746
v -0.014328 0.599326 -0.025045
v -0.012991 0.627238 -0.022971
v -0.014049 0.831914 0.041174
v -0.013792 0.828633 0.039869
v -0.014110 0.743422 0.002574
v -0.012871 0.661047 -0.003796
v -0.013996 0.734039 0.004047
v -0.013496 0.725312 0.002095
v -0.013547 0.617024 -0.017584
v -0.013687 0.608589 -0.023234
v -0.012611 0.679208 0.000021
v -0.012716 0.670107 -0.001836
v -0.013562 0.734662 0.000810
v -0.013385 0.830887 0.036636
v -0.012859 0.707023 0.001481
v -0.012706 0.688237 0.001901
v -0.012854 0.830575 0.036978
v -0.012847 0.829577 0.038383
v -0.012619 0.830070 0.037635
v -0.012578 0.634935 -0.013833
v -0.012981 0.625955 -0.015739
v -0.012148 0.645537 -0.019432
v -0.012507 0.636247 -0.021249
v -0.011859 0.654547 -0.017725
v -0.012882 0.716600 -0.000005
v -0.013013 0.617604 -0.021458
v -0.013196 0.829141 0.039086
v -0.013048 0.725996 -0.001087
v -0.011776 0.672722 -0.013618
v -0.011474 0.663592 -0.015870
v -0.011615 0.681757 -0.011680
v -0.012268 0.643978 -0.012012
v -0.011904 0.699582 -0.007851
v -0.012013 0.708552 -0.005642
v -0.011525 0.690600 -0.009869
v -0.012508 0.717286 -0.003225
v -0.011699 0.661954 -0.008058
v -0.012036 0.652921 -0.010120
v -0.012145 0.698160 -0.000545
v -0.011603 0.689121 -0.002422
v -0.012561 0.626586 -0.019589
v -0.012277 0.635618 -0.017734
v -0.012149 0.707893 -0.002308
v -0.011568 0.698949 -0.004414
v -0.011511 0.671052 -0.006052
v -0.011394 0.680143 -0.004235
v -0.011962 0.644804 -0.015940
v -0.011608 0.653761 -0.014113
v -0.011200 0.662805 -0.012150
v -0.011094 0.671933 -0.010051
v -0.011110 0.689910 -0.006375
v -0.011040 0.681010 -0.008182
usemtl Gracilis_muscle_rMaterial0
f 1 2 3
f 2 4 3
f 1 3 5
f 6 5 3
f 7 3 4
f 6 3 7
f 8 2 1
f 2 9 4
f 10 9 2
f 8 10 2
f 11 1 5
f 12 5 6
f 11 5 13
f 12 13 5
f 14 1 11
f 14 8 1
f 9 15 4
f 16 4 15
f 7 4 16
f 9 17 15
f 18 17 9
f 10 18 9
f 17 19 15
f 16 15 19
f 17 20 19
f 21 20 17
f 18 21 17
f 22 7 16
f 23 16 19
f 22 16 23
f 24 6 7
f 24 7 22
f 20 25 19
f 23 19 25
f 20 26 25
f 27 26 20
f 21 27 20
f 28 6 24
f 28 12 6
f 29 11 13
f 30 13 12
f 29 13 31
f 30 31 13
f 32 11 29
f 32 14 11
f 33 23 25
f 26 34 25
f 33 25 34
f 35 22 23
f 35 23 33
f 26 36 34
f 37 36 26
f 27 37 26
f 38 24 22
f 38 22 35
f 39 10 8
f 40 18 10
f 39 40 10
f 41 8 14
f 41 39 8
f 36 42 34
f 43 33 34
f 43 34 42
f 36 44 42
f 45 44 36
f 37 45 36
f 46 28 24
f 46 24 38
f 47 21 18
f 40 47 18
f 48 33 43
f 48 35 33
f 49 12 28
f 49 30 12
f 50 29 31
f 50 31 30
f 51 29 50
f 51 32 29
f 52 27 21
f 47 52 21
f 44 53 42
f 54 43 42
f 54 42 53
f 44 55 53
f 56 55 44
f 45 56 44
f 27 57 37
f 52 58 27
f 27 58 57
f 59 43 54
f 59 48 43
f 60 38 35
f 60 35 48
f 61 49 28
f 61 28 46
f 55 54 53
f 62 50 30
f 62 30 49
f 55 63 54
f 64 63 55
f 56 64 55
f 65 45 37
f 65 37 57
f 66 50 62
f 66 51 50
f 67 14 32
f 67 41 14
f 68 46 38
f 68 38 60
f 65 56 45
f 63 59 54
f 64 69 63
f 63 70 59
f 69 70 63
f 71 62 49
f 71 49 61
f 72 62 71
f 72 66 62
f 56 73 64
f 65 74 56
f 56 74 73
f 75 60 48
f 75 48 59
f 76 61 46
f 76 46 68
f 39 77 40
f 40 78 47
f 40 77 78
f 41 79 39
f 39 79 77
f 47 80 52
f 47 78 80
f 81 71 61
f 81 61 76
f 82 71 81
f 82 72 71
f 83 32 51
f 83 67 32
f 84 68 60
f 84 60 75
f 73 69 64
f 52 85 58
f 52 80 85
f 86 76 68
f 87 81 76
f 87 76 86
f 86 68 84
f 88 81 87
f 88 82 81
f 89 57 58
f 89 58 85
f 70 75 59
f 70 90 75
f 69 91 70
f 91 90 70
f 92 93 94
f 95 94 93
f 96 92 94
f 95 97 94
f 96 94 97
f 83 51 66
f 89 65 57
f 98 93 99
f 95 93 98
f 92 99 93
f 100 87 86
f 100 86 84
f 101 87 100
f 101 88 87
f 90 84 75
f 102 91 69
f 73 102 69
f 90 100 84
f 103 100 90
f 91 103 90
f 41 104 79
f 67 104 41
f 65 105 74
f 89 106 65
f 65 106 105
f 103 101 100
f 98 99 107
f 98 108 109
f 98 110 108
f 98 109 111
f 95 98 111
f 98 107 110
f 72 112 66
f 83 66 112
f 92 113 99
f 96 114 92
f 92 114 115
f 92 116 113
f 92 115 116
f 117 97 95
f 96 97 118
f 117 118 97
f 113 107 99
f 73 74 105
f 119 78 77
f 120 80 78
f 119 120 78
f 121 122 123
f 123 122 124
f 121 125 122
f 126 122 125
f 126 124 122
f 127 77 79
f 127 119 77
f 123 109 108
f 123 108 128
f 123 129 109
f 121 123 128
f 123 124 130
f 123 130 129
f 110 128 108
f 72 82 131
f 72 132 112
f 72 131 132
f 133 125 134
f 133 126 125
f 121 134 125
f 129 111 109
f 95 111 135
f 117 95 136
f 95 135 136
f 129 135 111
f 137 85 80
f 120 137 80
f 96 138 114
f 139 96 118
f 139 140 96
f 96 140 138
f 141 103 91
f 102 142 91
f 141 91 142
f 143 79 104
f 143 127 79
f 83 144 67
f 67 144 104
f 145 89 85
f 137 145 85
f 146 147 133
f 133 147 148
f 133 134 149
f 146 133 149
f 133 150 126
f 133 148 150
f 131 82 88
f 73 151 102
f 73 105 152
f 73 152 151
f 153 115 114
f 153 114 138
f 139 118 154
f 117 154 118
f 89 155 106
f 145 156 89
f 89 156 155
f 101 157 88
f 131 88 157
f 113 158 107
f 110 107 158
f 101 103 141
f 121 128 159
f 110 159 128
f 101 160 157
f 101 141 160
f 113 116 161
f 162 116 115
f 162 161 116
f 105 106 155
f 163 83 112
f 83 164 144
f 163 164 83
f 113 165 158
f 113 161 166
f 113 166 165
f 167 134 121
f 121 159 168
f 167 121 168
f 169 104 144
f 169 143 104
f 146 170 147
f 171 147 170
f 171 148 147
f 153 162 115
f 167 149 134
f 172 142 102
f 172 102 151
f 105 173 152
f 105 155 174
f 105 174 173
f 119 175 120
f 120 176 137
f 120 175 176
f 127 177 119
f 119 177 175
f 139 178 140
f 179 138 140
f 179 140 178
f 163 112 132
f 139 180 178
f 181 180 139
f 139 154 182
f 181 139 182
f 146 149 183
f 167 183 149
f 179 153 138
f 137 184 145
f 137 176 184
f 110 158 185
f 110 186 159
f 110 185 186
f 126 187 124
f 126 150 188
f 126 188 189
f 126 189 187
f 143 190 127
f 127 190 177
f 145 191 156
f 145 184 191
f 187 130 124
f 131 192 132
f 163 132 192
f 179 193 153
f 153 194 162
f 153 193 195
f 153 195 194
f 196 150 148
f 196 188 150
f 165 185 158
f 197 151 152
f 197 152 173
f 169 144 164
f 117 136 198
f 199 154 117
f 117 198 200
f 199 117 200
f 155 156 191
f 146 201 170
f 146 183 202
f 203 201 146
f 203 146 202
f 129 130 204
f 187 204 130
f 129 205 135
f 129 204 206
f 129 206 205
f 205 136 135
f 205 198 136
f 131 157 207
f 131 208 192
f 131 207 208
f 141 142 172
f 155 209 174
f 155 191 210
f 155 210 209
f 186 168 159
f 211 170 201
f 211 171 170
f 212 178 180
f 212 180 213
f 181 213 180
f 214 166 161
f 165 166 215
f 214 215 166
f 207 157 160
f 162 214 161
f 199 182 154
f 212 179 178
f 141 216 160
f 141 172 217
f 141 217 216
f 171 196 148
f 207 160 216
f 143 218 190
f 169 218 143
f 167 168 219
f 186 219 168
f 220 175 177
f 221 177 190
f 221 220 177
f 179 222 193
f 212 223 179
f 179 223 222
f 163 224 164
f 169 164 224
f 165 225 185
f 186 185 225
f 226 183 167
f 167 219 227
f 226 167 227
f 228 173 174
f 228 174 209
f 229 176 175
f 220 229 175
f 165 230 225
f 165 231 230
f 165 215 231
f 172 151 197
f 162 194 232
f 162 233 214
f 162 232 233
f 234 190 218
f 234 221 190
f 226 202 183
f 235 184 176
f 229 236 176
f 235 176 236
f 211 201 237
f 203 237 201
f 238 212 213
f 238 213 239
f 181 239 213
f 195 193 222
f 240 241 242
f 240 243 241
f 244 241 245
f 243 245 241
f 244 242 241
f 246 163 192
f 163 247 224
f 246 247 163
f 181 182 248
f 199 248 182
f 249 250 240
f 240 250 251
f 240 242 252
f 249 240 252
f 240 253 243
f 240 251 253
f 191 184 235
f 186 225 254
f 186 255 219
f 186 254 255
f 230 254 225
f 226 256 202
f 203 202 256
f 197 173 228
f 255 227 219
f 191 257 210
f 191 235 258
f 191 258 257
f 211 259 171
f 171 259 260
f 171 261 196
f 171 260 261
f 238 262 212
f 263 264 238
f 238 264 265
f 238 239 266
f 263 238 266
f 238 265 262
f 226 227 267
f 255 267 227
f 246 192 208
f 232 194 195
f 169 268 218
f 269 169 224
f 269 268 169
f 270 211 237
f 270 271 211
f 211 271 272
f 211 272 259
f 212 273 223
f 212 262 273
f 220 274 229
f 221 275 220
f 220 275 274
f 276 256 226
f 226 267 277
f 276 226 277
f 263 278 264
f 265 264 278
f 255 254 279
f 230 279 254
f 280 239 181
f 181 248 281
f 280 181 281
f 249 282 250
f 283 250 282
f 283 251 250
f 284 282 285
f 284 283 282
f 249 285 282
f 286 209 210
f 286 210 257
f 278 287 288
f 278 288 289
f 263 290 278
f 278 290 287
f 265 278 291
f 278 289 291
f 292 236 229
f 292 229 274
f 203 256 293
f 203 294 237
f 295 203 293
f 295 294 203
f 244 245 296
f 296 245 297
f 243 297 245
f 207 298 208
f 246 208 298
f 276 293 256
f 172 299 217
f 172 197 300
f 172 300 299
f 270 237 294
f 255 301 267
f 255 279 302
f 255 302 301
f 230 231 303
f 230 304 279
f 230 305 304
f 230 303 305
f 222 223 273
f 301 277 267
f 306 231 215
f 306 303 231
f 287 307 288
f 308 288 307
f 308 289 288
f 284 307 309
f 308 307 284
f 284 309 310
f 284 310 283
f 284 285 311
f 308 284 311
f 235 236 292
f 234 218 268
f 276 277 312
f 301 312 277
f 280 266 239
f 287 309 307
f 207 216 313
f 207 314 298
f 207 313 314
f 228 209 286
f 214 306 215
f 263 266 315
f 280 315 266
f 221 316 275
f 234 316 221
f 276 317 293
f 318 317 276
f 276 312 319
f 318 276 319
f 304 302 279
f 295 293 317
f 320 290 263
f 263 315 321
f 320 263 321
f 313 216 217
f 313 217 299
f 235 322 258
f 235 292 323
f 235 323 322
f 270 275 271
f 316 271 275
f 270 274 275
f 269 224 247
f 270 294 324
f 295 324 294
f 301 302 325
f 304 325 302
f 195 222 326
f 222 327 326
f 222 273 328
f 222 328 327
f 329 242 244
f 329 252 242
f 330 331 332
f 330 333 331
f 330 332 334
f 335 330 334
f 330 336 337
f 335 336 330
f 330 337 338
f 330 338 333
f 316 272 271
f 214 233 339
f 214 340 306
f 214 339 340
f 195 326 341
f 232 195 342
f 195 341 342
f 343 259 272
f 343 260 259
f 197 228 344
f 197 345 300
f 197 344 345
f 295 317 346
f 318 346 317
f 301 347 312
f 301 325 348
f 301 348 347
f 320 287 290
f 349 257 258
f 349 258 322
f 292 274 270
f 347 319 312
f 318 319 350
f 347 350 319
f 244 296 351
f 244 351 352
f 244 352 353
f 329 244 353
f 354 189 188
f 187 189 355
f 354 355 189
f 296 331 351
f 333 351 331
f 296 332 331
f 292 270 324
f 196 354 188
f 249 252 356
f 329 356 252
f 333 352 351
f 287 357 309
f 320 358 287
f 287 358 357
f 296 359 332
f 296 297 360
f 296 360 359
f 286 257 349
f 295 361 324
f 362 295 346
f 362 361 295
f 228 286 363
f 228 363 364
f 228 364 344
f 318 365 346
f 366 365 318
f 318 350 367
f 366 318 367
f 292 324 361
f 292 361 323
f 273 262 265
f 359 334 332
f 357 310 309
f 246 368 247
f 269 247 368
f 316 343 272
f 234 369 316
f 316 369 343
f 187 370 204
f 187 355 371
f 187 371 370
f 362 346 365
f 335 334 372
f 359 372 334
f 286 349 373
f 286 374 363
f 286 373 374
f 362 322 323
f 362 323 361
f 196 261 375
f 196 376 354
f 196 375 376
f 377 337 336
f 335 378 336
f 377 336 378
f 370 206 204
f 283 310 379
f 357 379 310
f 362 365 380
f 366 380 365
f 339 233 232
f 205 206 381
f 370 381 206
f 234 268 382
f 269 382 268
f 349 322 362
f 265 291 383
f 273 265 384
f 265 383 384
f 385 246 298
f 246 386 368
f 385 386 246
f 243 253 387
f 388 253 251
f 388 387 253
f 389 338 337
f 333 338 390
f 389 390 338
f 304 391 325
f 304 305 392
f 304 393 391
f 304 392 393
f 394 285 249
f 394 249 395
f 249 356 395
f 347 396 350
f 396 367 350
f 391 348 325
f 243 397 297
f 243 387 398
f 243 398 397
f 399 369 234
f 399 234 382
f 400 305 303
f 400 392 305
f 347 348 401
f 347 402 396
f 347 401 402
f 391 401 348
f 403 291 289
f 403 383 291
f 394 311 285
f 404 200 198
f 199 200 405
f 404 405 200
f 349 362 380
f 349 406 373
f 349 380 406
f 366 367 407
f 396 407 367
f 205 404 198
f 205 381 408
f 205 408 404
f 283 388 251
f 283 379 409
f 283 409 388
f 377 389 337
f 308 311 410
f 394 410 311
f 411 299 300
f 411 300 345
f 412 326 327
f 412 341 326
f 385 298 314
f 273 413 328
f 273 384 413
f 403 289 308
f 308 410 414
f 403 308 414
f 335 415 378
f 416 377 378
f 416 378 415
f 366 406 380
f 417 406 366
f 366 407 418
f 417 366 418
f 419 261 260
f 419 375 261
f 420 363 374
f 420 364 363
f 333 421 352
f 333 390 422
f 333 422 421
f 423 415 335
f 335 372 424
f 423 335 424
f 416 425 377
f 377 425 426
f 377 426 427
f 377 427 389
f 417 373 406
f 417 374 373
f 306 400 303
f 313 428 314
f 385 314 428
f 429 344 364
f 429 345 344
f 430 248 199
f 199 405 431
f 430 199 431
f 397 360 297
f 416 432 425
f 426 425 432
f 313 299 411
f 433 327 328
f 433 328 413
f 313 434 428
f 313 411 434
f 232 342 435
f 339 232 436
f 232 435 436
f 416 437 432
f 438 437 416
f 416 415 439
f 438 416 439
f 440 269 368
f 269 441 382
f 440 441 269
f 306 340 442
f 306 443 400
f 306 442 443
f 437 444 432
f 438 445 437
f 437 445 444
f 423 439 415
f 343 419 260
f 399 343 369
f 446 432 444
f 426 432 447
f 446 447 432
f 421 353 352
f 359 360 448
f 397 448 360
f 420 374 417
f 359 449 372
f 359 448 450
f 359 450 449
f 396 451 407
f 396 402 452
f 396 453 451
f 396 452 453
f 430 281 248
f 440 368 386
f 399 454 343
f 343 454 419
f 412 327 433
f 451 418 407
f 438 439 455
f 423 455 439
f 329 353 456
f 421 456 353
f 399 382 441
f 417 418 457
f 451 457 418
f 458 402 401
f 458 452 402
f 442 340 339
f 449 424 372
f 438 459 445
f 460 459 438
f 438 455 461
f 460 438 461
f 462 342 341
f 462 435 342
f 463 384 383
f 463 413 384
f 420 417 464
f 417 457 464
f 391 458 401
f 465 444 445
f 459 466 445
f 465 445 466
f 385 467 386
f 440 386 467
f 429 364 420
f 411 345 429
f 391 393 468
f 391 469 458
f 391 468 469
f 280 281 470
f 430 470 281
f 463 383 403
f 471 356 329
f 471 329 472
f 329 456 472
f 446 444 465
f 473 393 392
f 473 468 393
f 426 447 474
f 475 427 426
f 426 474 476
f 475 426 476
f 459 477 466
f 460 477 459
f 478 414 410
f 478 410 394
f 423 424 479
f 449 479 424
f 480 385 428
f 385 481 467
f 480 481 385
f 403 414 482
f 463 403 483
f 403 482 483
f 339 436 484
f 442 339 485
f 339 484 485
f 478 482 414
f 486 315 280
f 280 470 487
f 486 280 487
f 394 395 488
f 478 394 489
f 394 488 489
f 490 447 446
f 490 474 447
f 486 321 315
f 471 395 356
f 354 376 491
f 354 492 355
f 354 491 493
f 354 493 492
f 400 473 392
f 433 413 463
f 471 488 395
f 320 321 494
f 486 494 321
f 389 427 475
f 480 428 434
f 495 376 375
f 495 491 376
f 411 496 434
f 411 429 497
f 411 497 496
f 399 441 498
f 440 498 441
f 462 341 412
f 492 371 355
f 499 455 423
f 423 479 500
f 499 423 500
f 480 434 496
f 501 454 399
f 501 399 498
f 389 502 390
f 389 475 503
f 389 503 502
f 419 495 375
f 429 420 504
f 420 464 505
f 420 505 504
f 502 422 390
f 506 358 320
f 320 494 507
f 506 320 507
f 412 433 508
f 433 463 509
f 433 510 508
f 433 509 510
f 499 461 455
f 501 419 454
f 501 511 419
f 419 511 495
f 400 443 512
f 400 513 473
f 400 512 513
f 514 440 467
f 440 515 498
f 514 515 440
f 446 465 516
f 490 446 516
f 506 357 358
f 460 461 517
f 499 517 461
f 429 518 497
f 429 504 518
f 370 371 519
f 492 519 371
f 520 436 435
f 520 484 436
f 357 521 379
f 506 522 357
f 357 522 521
f 523 464 457
f 523 505 464
f 451 523 457
f 465 466 524
f 524 466 477
f 412 508 525
f 462 412 526
f 412 525 526
f 463 483 527
f 463 527 509
f 514 467 481
f 451 453 528
f 451 529 523
f 451 528 529
f 521 409 379
f 530 453 452
f 530 528 453
f 421 422 531
f 502 531 422
f 460 532 477
f 533 532 460
f 460 517 534
f 533 460 534
f 465 535 516
f 465 524 536
f 465 536 535
f 532 537 477
f 524 477 537
f 538 398 387
f 388 538 387
f 397 398 539
f 538 539 398
f 458 530 452
f 370 540 381
f 370 519 541
f 370 541 540
f 501 498 515
f 388 409 542
f 521 542 409
f 480 543 481
f 514 481 543
f 544 483 482
f 544 527 483
f 388 545 538
f 388 542 545
f 546 496 497
f 546 497 518
f 512 443 442
f 544 482 478
f 458 469 547
f 458 548 530
f 458 547 548
f 540 408 381
f 397 549 448
f 397 539 550
f 397 550 549
f 520 435 462
f 546 480 496
f 480 551 543
f 546 551 480
f 552 508 510
f 552 525 508
f 553 504 505
f 553 518 504
f 478 489 554
f 544 478 555
f 478 554 555
f 490 516 556
f 557 556 516
f 557 516 535
f 549 450 448
f 404 408 558
f 540 558 408
f 501 515 559
f 514 559 515
f 404 560 405
f 560 431 405
f 561 509 527
f 561 510 509
f 562 511 501
f 562 501 559
f 404 558 563
f 404 563 560
f 449 450 564
f 549 564 450
f 562 495 511
f 565 469 468
f 565 547 469
f 566 489 488
f 566 554 489
f 495 567 491
f 562 568 495
f 495 568 567
f 449 569 479
f 449 564 570
f 449 570 569
f 532 571 537
f 533 571 532
f 421 572 456
f 421 531 573
f 421 573 572
f 514 574 559
f 575 514 543
f 575 574 514
f 430 431 576
f 560 576 431
f 577 474 490
f 490 556 578
f 490 578 579
f 577 490 579
f 569 500 479
f 473 565 468
f 566 488 471
f 523 553 505
f 567 493 491
f 442 485 580
f 512 442 581
f 442 580 581
f 577 476 474
f 553 546 518
f 562 559 574
f 575 543 551
f 561 527 544
f 462 526 582
f 520 462 583
f 462 582 583
f 471 472 584
f 566 471 585
f 471 584 585
f 492 493 586
f 567 586 493
f 552 510 561
f 523 529 587
f 523 588 553
f 523 587 588
f 546 589 551
f 553 590 546
f 546 590 589
f 575 551 589
f 591 475 476
f 577 592 476
f 591 476 592
f 562 574 593
f 594 568 562
f 594 562 593
f 595 578 556
f 595 556 557
f 499 500 596
f 569 596 500
f 572 472 456
f 572 584 472
f 473 513 597
f 473 598 565
f 473 597 598
f 524 537 599
f 524 600 536
f 524 601 600
f 524 599 601
f 544 555 602
f 561 544 603
f 544 602 603
f 492 604 519
f 492 586 605
f 492 605 604
f 606 517 499
f 499 596 607
f 606 499 607
f 575 593 574
f 608 529 528
f 608 587 529
f 609 470 430
f 430 576 610
f 609 430 610
f 599 537 571
f 611 535 536
f 611 536 600
f 606 534 517
f 594 567 568
f 530 608 528
f 612 485 484
f 612 580 485
f 591 503 475
f 553 613 590
f 553 588 613
f 575 614 593
f 594 593 614
f 615 575 589
f 615 614 575
f 616 555 554
f 616 602 555
f 530 548 617
f 530 618 608
f 530 617 618
f 619 526 525
f 619 582 526
f 557 535 611
f 609 487 470
f 552 561 620
f 561 603 621
f 561 621 620
f 615 589 590
f 615 590 613
f 594 622 567
f 567 623 586
f 567 622 623
f 533 534 624
f 606 624 534
f 486 487 625
f 626 494 486
f 486 625 627
f 626 486 627
f 502 503 628
f 591 628 503
f 629 613 588
f 629 588 587
f 609 625 487
f 533 630 571
f 599 571 631
f 630 631 571
f 594 614 632
f 615 632 614
f 604 541 519
f 597 513 512
f 626 507 494
f 633 594 632
f 633 622 594
f 634 548 547
f 634 617 548
f 619 525 552
f 616 554 566
f 629 615 613
f 615 635 632
f 629 635 615
f 502 636 531
f 502 628 637
f 502 637 636
f 612 484 520
f 608 629 587
f 552 620 638
f 619 552 639
f 552 638 639
f 506 507 640
f 626 640 507
f 623 605 586
f 641 579 578
f 641 578 595
f 557 611 642
f 595 557 642
f 633 632 635
f 643 603 602
f 643 621 603
f 644 600 601
f 611 600 644
f 645 630 533
f 533 624 646
f 645 533 646
f 633 623 622
f 608 647 629
f 608 618 648
f 608 648 647
f 649 522 506
f 506 640 650
f 649 506 650
f 651 577 579
f 641 652 579
f 651 579 652
f 629 653 635
f 633 635 653
f 629 647 653
f 540 541 654
f 604 654 541
f 566 585 655
f 616 566 656
f 566 655 656
f 649 521 522
f 599 657 601
f 644 601 657
f 565 634 547
f 512 581 658
f 597 512 659
f 512 658 659
f 611 660 642
f 611 644 661
f 611 661 660
f 662 648 618
f 662 618 617
f 663 633 653
f 633 664 623
f 663 664 633
f 623 665 605
f 604 605 665
f 521 666 542
f 649 667 521
f 521 667 666
f 636 573 531
f 668 620 621
f 668 638 620
f 599 631 669
f 599 670 657
f 599 669 670
f 663 653 647
f 663 647 648
f 520 583 671
f 612 520 672
f 520 671 672
f 643 602 616
f 673 585 584
f 673 655 585
f 538 674 539
f 538 545 675
f 538 676 674
f 538 675 676
f 674 550 539
f 623 664 677
f 623 677 665
f 651 592 577
f 595 642 678
f 641 595 679
f 595 680 679
f 595 678 680
f 540 681 558
f 540 654 682
f 540 682 681
f 549 550 683
f 674 683 550
f 666 545 542
f 666 675 545
f 549 684 564
f 549 685 684
f 549 683 685
f 630 686 631
f 669 631 686
f 565 598 687
f 565 688 634
f 565 687 688
f 684 570 564
f 569 570 689
f 684 689 570
f 662 663 648
f 634 662 617
f 681 563 558
f 663 677 664
f 572 673 584
f 560 563 690
f 681 690 563
f 645 686 630
f 691 678 642
f 691 642 660
f 662 692 663
f 663 692 677
f 569 693 596
f 569 689 694
f 569 694 693
f 695 591 592
f 651 696 592
f 695 592 696
f 668 621 643
f 643 616 697
f 616 656 698
f 616 698 697
f 560 699 576
f 560 690 700
f 560 700 699
f 604 665 701
f 604 702 654
f 604 701 702
f 703 581 580
f 703 658 581
f 704 641 679
f 704 652 641
f 677 701 665
f 687 598 597
f 705 583 582
f 705 671 583
f 704 679 706
f 706 679 680
f 693 607 596
f 572 573 707
f 636 707 573
f 644 657 708
f 708 657 670
f 662 709 692
f 634 710 662
f 662 710 709
f 606 607 711
f 693 711 607
f 699 610 576
f 695 628 591
f 677 692 709
f 677 712 701
f 677 709 712
f 572 713 673
f 572 707 713
f 714 624 606
f 606 711 715
f 714 606 715
f 691 680 678
f 644 716 661
f 644 708 717
f 644 717 716
f 634 718 710
f 634 688 718
f 643 697 719
f 668 643 720
f 643 719 720
f 669 721 670
f 708 670 721
f 722 651 652
f 704 723 652
f 722 652 723
f 724 656 655
f 724 698 656
f 705 582 619
f 669 686 725
f 726 725 686
f 645 726 686
f 702 682 654
f 703 580 612
f 619 639 727
f 728 639 638
f 728 727 639
f 702 701 712
f 687 597 729
f 597 659 730
f 597 730 729
f 731 637 628
f 695 731 628
f 609 610 732
f 699 732 610
f 705 619 733
f 619 727 733
f 714 646 624
f 669 725 734
f 669 735 721
f 669 734 735
f 736 704 706
f 706 680 737
f 736 706 737
f 709 710 718
f 738 697 698
f 738 719 697
f 722 696 651
f 728 638 668
f 739 625 609
f 609 732 740
f 739 609 740
f 739 627 625
f 626 627 741
f 739 741 627
f 673 724 655
f 718 688 687
f 742 640 626
f 626 741 743
f 742 626 743
f 636 637 744
f 731 744 637
f 745 660 661
f 745 661 716
f 709 746 712
f 702 712 746
f 709 718 747
f 709 747 746
f 681 682 748
f 702 748 682
f 742 650 640
f 668 720 749
f 728 668 750
f 668 749 750
f 645 646 751
f 714 751 646
f 612 672 752
f 703 612 753
f 612 752 753
f 673 713 754
f 673 755 724
f 673 754 755
f 736 723 704
f 726 756 725
f 734 725 756
f 649 650 757
f 742 757 650
f 758 695 696
f 722 759 696
f 758 696 759
f 718 687 760
f 687 729 761
f 687 761 760
f 762 659 658
f 762 730 659
f 681 763 690
f 681 748 764
f 681 764 763
f 636 765 707
f 636 744 766
f 636 766 765
f 702 746 767
f 702 767 748
f 724 738 698
f 718 768 747
f 718 760 768
f 769 667 649
f 649 757 770
f 769 649 770
f 771 720 719
f 771 749 720
f 763 700 690
f 684 772 689
f 772 694 689
f 769 666 667
f 745 691 660
f 684 685 773
f 684 774 772
f 684 773 774
f 693 694 775
f 772 775 694
f 776 685 683
f 674 776 683
f 776 773 685
f 765 713 707
f 765 754 713
f 666 777 675
f 769 778 666
f 666 778 777
f 767 746 747
f 767 747 768
f 779 726 645
f 645 751 780
f 779 645 780
f 674 676 781
f 674 782 776
f 674 781 782
f 783 672 671
f 783 752 672
f 758 731 695
f 784 722 723
f 736 785 723
f 784 723 785
f 786 761 729
f 786 729 730
f 693 787 711
f 693 788 787
f 693 775 788
f 777 676 675
f 777 781 676
f 789 768 760
f 789 760 761
f 787 715 711
f 790 737 680
f 790 736 737
f 699 700 791
f 763 791 700
f 767 764 748
f 724 755 792
f 724 793 738
f 724 792 793
f 738 771 719
f 794 721 735
f 708 721 794
f 734 795 735
f 794 735 795
f 762 658 703
f 714 715 796
f 787 796 715
f 691 797 680
f 691 798 797
f 691 799 798
f 745 800 691
f 800 799 691
f 790 680 797
f 731 801 744
f 758 802 731
f 731 802 801
f 779 756 726
f 708 803 717
f 708 794 804
f 708 804 803
f 767 768 789
f 767 805 764
f 767 789 805
f 784 759 722
f 763 764 805
f 783 671 705
f 806 755 754
f 806 792 755
f 789 761 786
f 807 716 717
f 807 717 803
f 699 808 732
f 699 791 809
f 699 809 808
f 734 756 810
f 734 810 811
f 734 812 795
f 734 811 812
f 786 730 762
f 813 790 797
f 813 797 798
f 738 793 814
f 738 815 771
f 738 814 815
f 801 766 744
f 816 810 756
f 779 816 756
f 790 817 736
f 736 817 818
f 736 818 785
f 763 805 819
f 763 819 820
f 763 820 791
f 789 819 805
f 789 786 821
f 789 821 819
f 813 817 790
f 822 758 759
f 784 823 759
f 822 759 823
f 714 796 824
f 825 751 714
f 825 714 824
f 808 740 732
f 705 733 826
f 783 705 827
f 705 826 827
f 765 806 754
f 828 745 716
f 828 716 807
f 787 788 829
f 830 788 775
f 830 829 788
f 787 831 796
f 787 829 832
f 787 832 831
f 765 766 833
f 801 833 766
f 834 813 798
f 834 798 835
f 836 835 798
f 836 798 799
f 772 830 775
f 762 703 837
f 703 753 838
f 703 838 837
f 739 740 839
f 808 839 740
f 840 743 741
f 742 743 841
f 840 841 743
f 786 842 821
f 786 762 843
f 786 843 842
f 840 741 739
f 739 839 844
f 840 739 844
f 845 793 792
f 845 814 793
f 772 774 846
f 772 847 830
f 772 846 847
f 834 848 813
f 813 848 817
f 834 835 849
f 836 849 835
f 765 850 806
f 765 833 850
f 820 819 821
f 851 757 742
f 742 841 852
f 851 742 852
f 853 774 773
f 853 846 774
f 822 802 758
f 831 824 796
f 854 733 727
f 854 826 733
f 820 821 842
f 834 849 855
f 856 834 855
f 834 857 848
f 856 857 834
f 820 809 791
f 858 855 849
f 859 858 849
f 836 859 849
f 762 860 843
f 762 837 860
f 854 727 728
f 851 770 757
f 806 845 792
f 861 817 848
f 861 818 817
f 776 853 773
f 858 862 855
f 856 855 862
f 728 750 863
f 854 728 864
f 728 863 864
f 825 780 751
f 801 802 865
f 822 865 802
f 816 866 810
f 811 810 866
f 867 800 745
f 867 745 828
f 769 770 868
f 851 868 770
f 776 782 869
f 776 870 853
f 776 869 870
f 871 832 829
f 831 832 872
f 871 872 832
f 873 750 749
f 873 863 750
f 831 874 824
f 825 824 874
f 794 795 875
f 875 795 812
f 861 848 857
f 876 784 785
f 876 785 818
f 794 877 804
f 794 878 877
f 794 875 878
f 879 836 799
f 800 879 799
f 858 880 862
f 859 881 858
f 858 881 882
f 858 883 880
f 858 882 883
f 884 778 769
f 769 868 885
f 884 769 885
f 830 871 829
f 856 886 857
f 861 857 886
f 820 887 809
f 820 842 888
f 820 888 887
f 889 753 752
f 889 838 753
f 831 890 874
f 831 891 890
f 831 872 891
f 856 862 892
f 890 856 892
f 890 893 856
f 856 893 886
f 880 892 862
f 836 894 859
f 836 895 894
f 879 895 836
f 888 842 843
f 888 843 860
f 877 803 804
f 808 809 887
f 859 896 881
f 859 894 896
f 771 873 749
f 806 850 897
f 806 898 845
f 806 897 898
f 811 899 812
f 875 812 899
f 884 777 778
f 801 900 833
f 801 865 901
f 801 901 900
f 890 892 902
f 880 902 892
f 825 903 780
f 779 780 903
f 904 782 781
f 904 869 782
f 830 847 905
f 830 906 871
f 830 905 906
f 825 874 902
f 880 825 902
f 880 903 825
f 807 803 907
f 877 907 803
f 890 902 874
f 771 815 908
f 771 909 873
f 771 908 909
f 777 904 781
f 884 910 777
f 777 910 904
f 900 850 833
f 900 897 850
f 911 882 881
f 911 881 896
f 890 891 912
f 913 891 872
f 913 912 891
f 890 912 893
f 871 913 872
f 914 847 846
f 914 905 847
f 880 883 915
f 880 915 903
f 916 816 779
f 779 903 915
f 916 779 915
f 807 907 917
f 828 807 917
f 918 886 893
f 918 893 912
f 919 860 837
f 919 837 838
f 916 883 882
f 916 915 883
f 916 866 816
f 808 920 839
f 808 887 921
f 808 921 920
f 876 823 784
f 922 815 814
f 922 908 815
f 918 861 886
f 861 876 818
f 845 922 814
f 913 918 912
f 920 844 839
f 889 752 783
f 840 844 923
f 920 923 844
f 871 924 913
f 871 906 925
f 871 925 924
f 911 916 882
f 918 926 861
f 861 926 876
f 853 914 846
f 888 921 887
f 845 898 927
f 845 928 922
f 845 927 928
f 929 877 878
f 929 907 877
f 811 866 930
f 811 931 899
f 811 932 931
f 811 930 932
f 867 879 800
f 875 933 878
f 929 878 933
f 934 917 907
f 929 935 907
f 934 907 935
f 913 936 918
f 913 937 936
f 913 924 937
f 918 938 926
f 918 936 938
f 916 939 866
f 911 939 916
f 940 841 840
f 840 923 941
f 940 840 941
f 828 917 942
f 867 828 942
f 930 866 939
f 875 899 943
f 875 944 933
f 875 943 944
f 888 860 919
f 940 852 841
f 888 945 921
f 888 919 945
f 946 906 905
f 946 925 906
f 876 947 823
f 948 822 823
f 948 823 947
f 876 926 938
f 876 938 947
f 934 942 917
f 949 898 897
f 949 927 898
f 853 870 950
f 853 951 914
f 853 950 951
f 943 899 931
f 851 852 952
f 940 952 852
f 953 938 936
f 953 936 937
f 900 949 897
f 954 901 865
f 900 901 954
f 955 924 925
f 955 937 924
f 948 865 822
f 948 956 865
f 954 865 956
f 783 827 957
f 889 783 958
f 783 957 958
f 900 954 959
f 900 959 949
f 960 939 911
f 930 939 960
f 961 868 851
f 851 952 962
f 961 851 962
f 914 946 905
f 963 929 933
f 929 964 935
f 929 965 964
f 963 965 929
f 920 921 945
f 919 838 889
f 953 947 938
f 966 933 944
f 966 963 933
f 953 948 947
f 967 911 896
f 960 911 967
f 968 896 894
f 967 896 968
f 969 894 895
f 968 894 969
f 934 935 964
f 934 970 942
f 934 964 970
f 971 870 869
f 971 950 870
f 943 931 972
f 973 972 931
f 973 931 932
f 970 974 942
f 867 942 974
f 943 966 944
f 879 975 895
f 969 895 975
f 920 945 976
f 920 977 923
f 920 976 977
f 946 955 925
f 955 953 937
f 943 972 978
f 943 979 966
f 943 978 979
f 961 885 868
f 919 976 945
f 914 980 946
f 914 951 981
f 914 981 980
f 867 982 879
f 879 982 975
f 919 983 976
f 919 889 983
f 977 941 923
f 984 827 826
f 984 957 827
f 985 972 973
f 985 978 972
f 970 964 974
f 930 986 932
f 930 960 986
f 904 971 869
f 953 956 948
f 955 987 953
f 953 987 956
f 884 885 988
f 961 988 885
f 946 989 955
f 946 980 990
f 946 990 989
f 977 976 983
f 940 941 991
f 977 991 941
f 965 974 964
f 889 992 983
f 889 958 992
f 993 910 884
f 884 988 994
f 993 884 994
f 955 995 987
f 955 989 995
f 996 867 974
f 996 982 867
f 984 826 854
f 985 973 932
f 997 951 950
f 997 981 951
f 963 996 965
f 965 996 974
f 993 904 910
f 904 998 971
f 993 998 904
f 985 932 986
f 966 999 963
f 963 999 996
f 977 983 992
f 966 979 1000
f 966 1000 1001
f 966 1001 999
f 1002 952 940
f 940 991 1003
f 1002 940 1003
f 854 864 1004
f 984 854 1005
f 854 1004 1005
f 1006 864 863
f 1006 1004 864
f 1007 980 981
f 1007 990 980
f 954 956 987
f 1000 979 978
f 977 992 1008
f 977 1008 991
f 985 1009 978
f 1000 978 1009
f 960 1009 986
f 960 967 1009
f 954 987 995
f 985 986 1009
f 1010 995 989
f 1010 989 990
f 873 1006 863
f 1008 992 958
f 1008 958 957
f 971 997 950
f 1010 954 995
f 1010 959 954
f 873 909 1011
f 873 1012 1006
f 873 1011 1012
f 1002 962 952
f 967 968 1000
f 967 1000 1009
f 1013 909 908
f 1013 1011 909
f 997 1007 981
f 1008 1003 991
f 1007 1010 990
f 961 962 1014
f 1002 1014 962
f 949 959 1010
f 968 969 1001
f 968 1001 1000
f 996 975 982
f 996 999 975
f 922 1013 908
f 922 928 1015
f 1016 928 927
f 1016 1015 928
f 922 1015 1017
f 922 1017 1013
f 949 1016 927
f 949 1010 1018
f 949 1018 1016
f 1008 957 984
f 1019 988 961
f 961 1014 1020
f 1019 961 1020
f 971 1021 997
f 1022 971 998
f 1022 1021 971
f 969 975 999
f 969 999 1001
f 1007 1018 1010
f 1008 984 1023
f 1008 1023 1003
f 984 1024 1023
f 984 1005 1024
f 1002 1003 1023
f 997 1025 1007
f 1016 1018 1007
f 1016 1007 1025
f 1019 994 988
f 1026 997 1021
f 1026 1025 997
f 993 994 1027
f 1019 1027 994
f 1022 998 993
f 1022 993 1028
f 993 1027 1028
f 1002 1023 1024
f 1029 1002 1024
f 1029 1014 1002
f 1029 1024 1005
f 1029 1005 1004
f 1029 1020 1014
f 1006 1029 1004
f 1026 1021 1022
f 1016 1025 1026
f 1029 1030 1020
f 1019 1020 1030
f 1016 1026 1015
f 1006 1030 1029
f 1026 1017 1015
f 1006 1031 1030
f 1006 1012 1031
f 1013 1032 1011
f 1032 1012 1011
f 1019 1030 1031
f 1032 1027 1019
f 1032 1019 1031
f 1013 1017 1033
f 1013 1033 1034
f 1013 1034 1032
f 1026 1022 1033
f 1022 1028 1034
f 1022 1034 1033
f 1026 1033 1017
f 1032 1028 1027
f 1032 1031 1012
f 1032 1034 1028
