# 
# Wavefront OBJ file
# Created with Kaydara FBX
# 
mtllib c:\users\tjvan\onedrive\documenten\fontys\minor\nx\.mtlmodels\iliotibial_tract.r.obj

g Iliotibial_tract_r
v -0.161170 0.688828 0.014250
v -0.161547 0.672343 0.008665
v -0.161500 0.672017 0.013692
v -0.160751 0.655443 0.007486
v -0.161353 0.689156 0.009214
v -0.161118 0.672762 0.002552
v -0.161107 0.671701 0.018614
v -0.160687 0.655042 0.012627
v -0.160562 0.705882 0.009824
v -0.161094 0.689524 0.003163
v -0.160505 0.688486 0.019286
v -0.160043 0.705405 0.014905
v -0.159083 0.704875 0.020049
v -0.159477 0.689464 -0.004906
v -0.160276 0.655940 0.001472
v -0.158911 0.656261 -0.005274
v -0.159531 0.672904 -0.004874
v -0.160341 0.654694 0.017431
v -0.158223 0.688169 0.021879
v -0.158377 0.654595 0.019822
v -0.158903 0.671549 0.020968
v -0.160305 0.706292 0.003583
v -0.159571 0.638056 0.010808
v -0.158891 0.639232 0.000279
v -0.159449 0.638582 0.005883
v -0.158652 0.723341 0.004420
v -0.158081 0.722087 0.016140
v -0.158788 0.722761 0.010903
v -0.156807 0.704378 0.022728
v -0.159287 0.637590 0.015698
v -0.158584 0.706357 -0.004846
v -0.157707 0.639721 -0.005753
v -0.157105 0.721256 0.021239
v -0.157472 0.622470 0.004371
v -0.157607 0.621387 0.013856
v -0.157706 0.621912 0.009036
v -0.156006 0.688680 -0.013884
v -0.156432 0.672547 -0.013214
v -0.157007 0.623098 -0.000897
v -0.159449 0.672138 0.012297
v -0.159268 0.688987 0.007959
v -0.159214 0.688688 0.012976
v -0.159138 0.672490 0.007292
v -0.159161 0.671815 0.016987
v -0.158568 0.655285 0.011260
v -0.158387 0.655755 0.006063
v -0.157306 0.637511 0.018287
v -0.155730 0.621292 0.016687
v -0.158241 0.705159 0.013990
v -0.158307 0.689351 0.001990
v -0.158622 0.705582 0.008818
v -0.158664 0.688392 0.017722
v -0.157366 0.704723 0.018688
v -0.158376 0.654904 0.015896
v -0.157327 0.656257 0.000292
v -0.158055 0.672903 0.001362
v -0.155320 0.639936 -0.012405
v -0.156196 0.656202 -0.012690
v -0.156091 0.739231 0.012183
v -0.155287 0.738356 0.017776
v -0.157170 0.723401 -0.004514
v -0.155133 0.740083 -0.004686
v -0.156321 0.740044 0.005444
v -0.157954 0.705981 0.002682
v -0.156915 0.722267 0.010292
v -0.156667 0.722787 0.003857
v -0.152556 0.721984 -0.016211
v -0.154767 0.705249 -0.014823
v -0.157463 0.638410 0.009642
v -0.157270 0.637928 0.014347
v -0.157373 0.639002 0.004585
v -0.155701 0.689360 -0.005723
v -0.156268 0.721706 0.015565
v -0.155706 0.656355 -0.005801
v -0.155887 0.672947 -0.005606
v -0.154462 0.722810 -0.004702
v -0.155161 0.705897 -0.005427
v -0.155440 0.605777 0.007292
v -0.155206 0.606384 0.002752
v -0.155972 0.623541 -0.006284
v -0.155418 0.605205 0.011948
v -0.155464 0.622896 0.003397
v -0.155545 0.622323 0.008151
v -0.156536 0.639618 -0.000878
v -0.154906 0.623467 -0.001753
v -0.155320 0.721004 0.020455
v -0.155490 0.621781 0.012744
v -0.149174 0.738255 -0.017924
v -0.154810 0.720371 0.024672
v -0.154212 0.737456 0.022966
v -0.152140 0.736416 0.027127
v -0.153870 0.607421 -0.007023
v -0.154763 0.606985 -0.002199
v -0.154206 0.738788 0.011990
v -0.153402 0.737943 0.017470
v -0.154321 0.739569 0.005447
v -0.155195 0.639871 -0.006362
v -0.154014 0.623800 -0.006847
v -0.152421 0.672108 -0.019102
v -0.153074 0.755399 0.013311
v -0.153562 0.756287 0.005795
v -0.152112 0.736974 0.022741
v -0.151637 0.640084 -0.018208
v -0.152272 0.656127 -0.018388
v -0.150920 0.703757 -0.021503
v -0.151953 0.687835 -0.020293
v -0.153892 0.623847 -0.012367
v -0.152017 0.607768 -0.012485
v -0.153620 0.656198 -0.011928
v -0.152782 0.688673 -0.013172
v -0.153263 0.672525 -0.012280
v -0.153600 0.605133 0.014753
v -0.153186 0.605651 0.011052
v -0.153268 0.606187 0.006644
v -0.154008 0.906136 -0.007435
v -0.154674 0.888716 -0.018192
v -0.155553 0.885297 -0.008415
v -0.153020 0.870963 -0.026662
v -0.154663 0.868172 -0.014523
v -0.153997 0.882772 0.010343
v -0.153605 0.902625 0.000508
v -0.153190 0.606780 0.002063
v -0.152758 0.589064 0.009930
v -0.152858 0.589635 0.005435
v -0.151123 0.588979 0.012919
v -0.150746 0.753383 0.024582
v -0.152061 0.754316 0.019331
v -0.152091 0.590874 -0.003630
v -0.152601 0.590265 0.000997
v -0.152228 0.623972 -0.012412
v -0.153265 0.639955 -0.012175
v -0.150409 0.721844 -0.015145
v -0.151833 0.704991 -0.013943
v -0.152411 0.755940 -0.005184
v -0.152857 0.607327 -0.002740
v -0.151188 0.591388 -0.008087
v -0.148384 0.719897 -0.023026
v -0.153760 0.908882 -0.013811
v -0.153449 0.891959 -0.025078
v -0.151047 0.873801 -0.034503
v -0.154333 0.867040 0.006239
v -0.153132 0.851703 0.003332
v -0.152778 0.851390 -0.017773
v -0.152892 0.739563 -0.004047
v -0.149616 0.866282 0.026996
v -0.150202 0.851199 0.022772
v -0.151408 0.755897 0.006331
v -0.150361 0.755646 -0.003949
v -0.148730 0.752466 0.028634
v -0.150943 0.754955 0.013304
v -0.152136 0.607704 -0.007399
v -0.150765 0.921934 0.001409
v -0.149342 0.918614 0.008820
v -0.150673 0.898928 0.015581
v -0.144810 0.897651 0.033392
v -0.147848 0.881584 0.030635
v -0.148825 0.608215 -0.017644
v -0.150512 0.624157 -0.017812
v -0.152656 0.911210 -0.019205
v -0.151372 0.924678 -0.004486
v -0.150354 0.656165 -0.016768
v -0.150524 0.589532 0.009310
v -0.150570 0.771908 0.006374
v -0.149399 0.771541 -0.005585
v -0.151325 0.894680 -0.031043
v -0.148541 0.876529 -0.041081
v -0.149895 0.753814 0.019264
v -0.150654 0.590049 0.004955
v -0.150662 0.590614 0.000491
v -0.148947 0.624205 -0.016820
v -0.150000 0.640159 -0.016888
v -0.149985 0.687959 -0.018422
v -0.150122 0.672116 -0.017308
v -0.152056 0.866993 0.007210
v -0.152301 0.865734 -0.013226
v -0.153200 0.881280 -0.008769
v -0.151788 0.884462 -0.020347
v -0.152078 0.896074 -0.007371
v -0.148450 0.899850 0.010996
v -0.151712 0.882757 0.008483
v -0.150275 0.591158 -0.003984
v -0.149809 0.835313 -0.018357
v -0.151222 0.836219 0.000872
v -0.149256 0.770160 0.020680
v -0.150213 0.771030 0.014418
v -0.149077 0.852874 -0.031227
v -0.147510 0.738232 -0.016215
v -0.144710 0.753176 -0.017594
v -0.150029 0.573702 0.003424
v -0.149780 0.574332 -0.000821
v -0.149415 0.591635 -0.008299
v -0.146177 0.835133 -0.031866
v -0.149869 0.573153 0.007737
v -0.151133 0.926906 -0.009492
v -0.150729 0.913200 -0.023480
v -0.149095 0.575009 -0.005165
v -0.147728 0.671724 -0.022512
v -0.144342 0.768164 -0.020532
v -0.146333 0.753226 -0.019794
v -0.150433 0.850175 -0.015236
v -0.150076 0.868814 -0.026332
v -0.146873 0.851859 -0.029952
v -0.147909 0.640215 -0.021384
v -0.148036 0.656078 -0.021708
v -0.150486 0.607956 -0.012340
v -0.147703 0.592094 -0.012660
v -0.148255 0.752782 0.024750
v -0.151558 0.902955 -0.011492
v -0.149236 0.922349 -0.002537
v -0.147736 0.918769 0.003646
v -0.147807 0.769234 0.026297
v -0.142918 0.882836 0.026472
v -0.150634 0.851487 0.005455
v -0.145740 0.851996 0.022400
v -0.144794 0.867264 0.025235
v -0.149434 0.591852 -0.012899
v -0.146398 0.702573 -0.025037
v -0.147285 0.687184 -0.023670
v -0.147094 0.720293 -0.021179
v -0.149262 0.704016 -0.019534
v -0.150409 0.889481 -0.026936
v -0.142202 0.899041 0.025905
v -0.151177 0.907330 -0.016569
v -0.149786 0.925073 -0.007481
v -0.148062 0.770805 0.014677
v -0.148343 0.771637 0.006864
v -0.147576 0.941813 -0.002935
v -0.146906 0.939988 0.002555
v -0.148426 0.896703 -0.035334
v -0.145181 0.878658 -0.046025
v -0.149826 0.835796 0.018671
v -0.148225 0.820308 0.014786
v -0.148959 0.820379 -0.000689
v -0.146343 0.576163 -0.013623
v -0.148047 0.575626 -0.009404
v -0.149571 0.910983 -0.021311
v -0.148703 0.572952 0.010901
v -0.149697 0.928687 -0.013796
v -0.146067 0.854952 -0.039803
v -0.147081 0.769805 0.020668
v -0.145298 0.938179 0.008319
v -0.146226 0.916097 0.020423
v -0.147793 0.574175 0.003104
v -0.147715 0.573594 0.007554
v -0.147735 0.574765 -0.001160
v -0.148457 0.835839 0.003848
v -0.145359 0.836065 0.019512
v -0.147908 0.786536 0.015762
v -0.148446 0.787346 0.008038
v -0.145041 0.608715 -0.020785
v -0.146824 0.624431 -0.020929
v -0.147017 0.608373 -0.016666
v -0.144340 0.592740 -0.016779
v -0.147520 0.834778 -0.015836
v -0.148154 0.872655 -0.034496
v -0.148097 0.893959 -0.032226
v -0.145691 0.876132 -0.041195
v -0.146310 0.656083 -0.019708
v -0.147335 0.771370 -0.004129
v -0.147181 0.575361 -0.005402
v -0.146793 0.785580 0.022252
v -0.145954 0.834690 0.029776
v -0.140855 0.864485 0.039166
v -0.143814 0.849838 0.034678
v -0.145809 0.687332 -0.021629
v -0.145984 0.671791 -0.020375
v -0.143554 0.854462 -0.039000
v -0.146775 0.557636 0.005531
v -0.146704 0.558268 0.001331
v -0.144998 0.624549 -0.019345
v -0.146216 0.640287 -0.019596
v -0.145646 0.557439 0.008731
v -0.146053 0.818973 0.023654
v -0.146915 0.819285 -0.018331
v -0.146319 0.558944 -0.002727
v -0.148610 0.927603 -0.012287
v -0.144536 0.938984 0.003666
v -0.145379 0.942364 -0.006477
v -0.145953 0.940819 -0.001297
v -0.146638 0.943141 -0.007771
v -0.146525 0.592427 -0.017710
v -0.143634 0.576778 -0.017992
v -0.146157 0.575910 -0.009508
v -0.147489 0.787211 -0.004409
v -0.142348 0.929489 0.022009
v -0.143780 0.934905 0.014728
v -0.142544 0.718108 -0.024893
v -0.145214 0.702905 -0.022903
v -0.142233 0.936939 0.009267
v -0.142897 0.735139 -0.026105
v -0.138292 0.749471 -0.029568
v -0.144327 0.560289 -0.010891
v -0.145547 0.559620 -0.006775
v -0.142181 0.835830 -0.041141
v -0.147374 0.803993 -0.002235
v -0.144671 0.802795 -0.018437
v -0.145311 0.768819 0.026197
v -0.145516 0.768354 0.030591
v -0.144588 0.558191 0.005540
v -0.142726 0.856773 -0.046455
v -0.147643 0.803731 0.010984
v -0.145010 0.819011 -0.015464
v -0.146692 0.820500 0.002182
v -0.145134 0.916942 0.011615
v -0.143557 0.717636 -0.027033
v -0.137277 0.731757 -0.030588
v -0.145972 0.786691 0.008509
v -0.145249 0.786955 -0.002704
v -0.140183 0.856895 -0.046152
v -0.145656 0.785972 0.016079
v -0.142566 0.560905 -0.014617
v -0.143735 0.640315 -0.023333
v -0.142860 0.671282 -0.024016
v -0.143681 0.655875 -0.023365
v -0.146728 0.802712 0.018557
v -0.136943 0.896758 0.044387
v -0.138734 0.879727 0.043099
v -0.145057 0.784587 0.027799
v -0.142790 0.783660 0.031793
v -0.144232 0.559547 -0.002898
v -0.144550 0.558859 0.001175
v -0.143390 0.560236 -0.006933
v -0.144307 0.576453 -0.013529
v -0.141755 0.954213 0.007844
v -0.143289 0.956422 -0.003675
v -0.143526 0.955368 0.002239
v -0.143762 0.834713 -0.030802
v -0.141032 0.817992 -0.029000
v -0.141423 0.735305 -0.024221
v -0.136699 0.749633 -0.027756
v -0.143828 0.785419 -0.019727
v -0.142099 0.785745 -0.017514
v -0.142661 0.768512 -0.018571
v -0.141238 0.701597 -0.026786
v -0.142036 0.686668 -0.025194
v -0.142054 0.560885 -0.010815
v -0.144447 0.785063 0.022251
v -0.142452 0.784010 0.027957
v -0.142837 0.608949 -0.019249
v -0.140300 0.593459 -0.019442
v -0.143150 0.818338 -0.030163
v -0.140963 0.801788 -0.028731
v -0.139664 0.951465 0.014834
v -0.141179 0.609182 -0.022795
v -0.142641 0.624748 -0.023106
v -0.144695 0.801445 0.024646
v -0.141781 0.800071 0.029560
v -0.142860 0.543435 -0.000737
v -0.142997 0.542772 0.003286
v -0.142655 0.817103 0.029051
v -0.142501 0.544129 -0.004610
v -0.145169 0.820294 0.015518
v -0.145322 0.803371 0.011480
v -0.145295 0.803603 0.000195
v -0.141814 0.955495 -0.002051
v -0.142850 0.593087 -0.020891
v -0.139979 0.577633 -0.021291
v -0.137913 0.766060 -0.030517
v -0.141614 0.544939 -0.008481
v -0.142134 0.655833 -0.021506
v -0.140736 0.624913 -0.021664
v -0.142084 0.640409 -0.021734
v -0.140688 0.915358 0.034424
v -0.137716 0.933650 0.030940
v -0.140052 0.561468 -0.014429
v -0.137857 0.836667 -0.047960
v -0.140072 0.832931 0.034965
v -0.140618 0.686751 -0.023120
v -0.141209 0.671278 -0.022110
v -0.144062 0.802260 0.018579
v -0.141586 0.954331 0.003057
v -0.139569 0.952813 0.007789
v -0.138825 0.850236 0.031750
v -0.141675 0.542653 0.006359
v -0.140344 0.545599 -0.012279
v -0.142700 0.818489 0.023131
v -0.141373 0.834903 0.027761
v -0.143055 0.802787 -0.015824
v -0.137239 0.715824 -0.026322
v -0.139792 0.701830 -0.024324
v -0.139541 0.858175 -0.051230
v -0.139778 0.933999 0.015605
v -0.139425 0.915044 0.024959
v -0.137376 0.928389 0.022870
v -0.138909 0.798894 0.033193
v -0.135990 0.865163 0.035826
v -0.138474 0.815296 0.033196
v -0.140860 0.543374 0.003308
v -0.140879 0.544029 -0.000829
v -0.141606 0.800836 0.024216
v -0.141087 0.577271 -0.017344
v -0.136953 0.562221 -0.017811
v -0.140376 0.544784 -0.004684
v -0.139239 0.816617 0.028005
v -0.139196 0.784379 -0.028831
v -0.131908 0.862820 0.043806
v -0.135643 0.847680 0.039513
v -0.138203 0.945520 0.022641
v -0.139760 0.835648 -0.039925
v -0.136973 0.817876 -0.037699
v -0.139747 0.640521 -0.024494
v -0.138032 0.670819 -0.024434
v -0.139482 0.655646 -0.023915
v -0.139966 0.561576 -0.018445
v -0.138529 0.715447 -0.028994
v -0.131979 0.728594 -0.032866
v -0.139553 0.967391 0.006113
v -0.139419 0.545536 -0.008516
v -0.139936 0.967628 -0.001466
v -0.139354 0.817875 -0.038701
v -0.136960 0.801180 -0.036259
v -0.137224 0.784661 -0.027545
v -0.138892 0.801903 -0.027419
v -0.138260 0.528678 0.001376
v -0.136883 0.528775 0.004087
v -0.134128 0.898089 0.037732
v -0.134159 0.880865 0.037794
v -0.131415 0.747056 -0.035107
v -0.138197 0.529212 -0.002395
v -0.138999 0.593748 -0.022892
v -0.136041 0.578490 -0.023257
v -0.138740 0.609449 -0.021479
v -0.136256 0.594202 -0.021614
v -0.136055 0.766182 -0.028837
v -0.137672 0.609562 -0.024029
v -0.138908 0.625039 -0.024392
v -0.138438 0.546212 -0.015676
v -0.135650 0.546997 -0.018932
v -0.135931 0.732004 -0.028433
v -0.137725 0.529881 -0.005981
v -0.138589 0.799325 0.029479
v -0.134246 0.944131 0.021858
v -0.136857 0.950183 0.014046
v -0.137888 0.546176 -0.012140
v -0.136080 0.700994 -0.026684
v -0.136817 0.686321 -0.025341
v -0.138444 0.965350 0.001498
v -0.137998 0.962719 0.012640
v -0.136087 0.529396 0.001326
v -0.136824 0.530577 -0.009572
v -0.138050 0.963369 0.006093
v -0.130012 0.747442 -0.033156
v -0.135865 0.832729 0.032411
v -0.137163 0.578195 -0.019908
v -0.133467 0.563112 -0.020285
v -0.136112 0.529879 -0.002412
v -0.135602 0.530504 -0.005960
v -0.134082 0.935834 0.037236
v -0.135790 0.916229 0.042611
v -0.134601 0.531100 -0.009405
v -0.133944 0.531761 -0.016095
v -0.135636 0.531129 -0.012891
v -0.135482 0.836795 -0.047170
v -0.134062 0.837135 -0.052907
v -0.134102 0.830766 0.037427
v -0.128779 0.845614 0.041312
v -0.135736 0.546834 -0.015356
v -0.136530 0.562454 -0.021448
v -0.132515 0.547767 -0.021548
v -0.135359 0.975310 -0.002624
v -0.135324 0.972615 0.002859
v -0.133576 0.713859 -0.028909
v -0.132932 0.817786 -0.044588
v -0.134928 0.949820 0.029088
v -0.136391 0.957285 0.019848
v -0.136348 0.960600 0.010832
v -0.133522 0.955823 0.018295
v -0.135570 0.966535 0.015466
v -0.136444 0.971344 0.010306
v -0.134173 0.979539 0.003825
v -0.135127 0.978136 0.000843
v -0.133070 0.531689 -0.012652
v -0.133252 0.915712 0.034745
v -0.135416 0.817598 -0.045432
v -0.135096 0.814583 0.032164
v -0.130231 0.830046 0.034863
v -0.134492 0.784154 -0.035528
v -0.135550 0.594394 -0.024222
v -0.132563 0.579216 -0.024544
v -0.134382 0.813751 0.035647
v -0.132458 0.784418 -0.034225
v -0.134611 0.801466 -0.035053
v -0.128569 0.863356 0.040172
v -0.131655 0.847659 0.036014
v -0.129776 0.897470 0.048519
v -0.129954 0.879064 0.047231
v -0.127229 0.726138 -0.032954
v -0.128911 0.828974 0.038475
v -0.131576 0.532341 -0.019078
v -0.133157 0.515201 -0.003357
v -0.133334 0.514817 0.000091
v -0.132624 0.515690 -0.006617
v -0.134536 0.964138 0.013030
v -0.136086 0.967251 0.008214
v -0.134124 0.961618 0.023249
v -0.132248 0.765688 -0.036614
v -0.131113 0.532346 -0.015684
v -0.131465 0.817292 -0.050152
v -0.131737 0.516181 -0.009711
v -0.132759 0.932805 0.029605
v -0.130564 0.728761 -0.030475
v -0.133189 0.579033 -0.022074
v -0.129765 0.564038 -0.022595
v -0.132612 0.547649 -0.018347
v -0.132781 0.800839 -0.042441
v -0.129551 0.784117 -0.041310
v -0.132172 0.514962 0.002678
v -0.130749 0.516583 -0.012794
v -0.132777 0.563383 -0.023518
v -0.129125 0.548471 -0.023922
v -0.133571 0.969515 0.017527
v -0.133972 0.974123 0.012454
v -0.130983 0.515557 0.000188
v -0.130786 0.515898 -0.003234
v -0.133812 0.971489 0.010696
v -0.132527 0.967873 0.015788
v -0.130406 0.765781 -0.035042
v -0.123297 0.745772 -0.036983
v -0.130057 0.937187 0.042529
v -0.130369 0.917317 0.047033
v -0.128543 0.532905 -0.018526
v -0.129266 0.517084 -0.015714
v -0.124596 0.861561 0.045398
v -0.130252 0.516325 -0.006479
v -0.128459 0.982307 -0.001905
v -0.128771 0.983610 -0.004251
v -0.132748 0.977431 0.005092
v -0.127665 0.984746 -0.000301
v -0.129414 0.984933 -0.002923
v -0.131548 0.953571 0.034644
v -0.129420 0.516703 -0.009513
v -0.130492 0.801185 -0.041597
v -0.127710 0.784560 -0.039836
v -0.131420 0.959873 0.021522
v -0.130612 0.948416 0.027503
v -0.128909 0.935015 0.035713
v -0.132403 0.980563 0.006889
v -0.129310 0.986116 -0.000781
v -0.126801 0.880059 0.042883
v -0.128264 0.916837 0.040598
v -0.127197 0.898229 0.043338
v -0.132058 0.965460 0.025028
v -0.128161 0.956784 0.038876
v -0.123150 0.843983 0.041444
v -0.130046 0.964223 0.023861
v -0.129375 0.548395 -0.020736
v -0.128950 0.500573 -0.000680
v -0.127757 0.500771 0.001743
v -0.129432 0.564205 -0.024936
v -0.128780 0.500842 -0.003877
v -0.128238 0.517091 -0.012544
v -0.125823 0.549138 -0.025581
v -0.128954 0.800659 -0.046957
v -0.128459 0.501156 -0.006975
v -0.125803 0.533275 -0.021024
v -0.128957 0.532762 -0.021645
v -0.128134 0.986129 0.000733
v -0.126733 0.765333 -0.041384
v -0.126338 0.501288 -0.000509
v -0.124815 0.956093 0.036616
v -0.124708 0.745391 -0.038928
v -0.127718 0.501508 -0.009896
v -0.125207 0.845467 0.037642
v -0.127827 0.517455 -0.018522
v -0.125824 0.517756 -0.021300
v -0.126121 0.938830 0.046893
v -0.127548 0.952313 0.032612
v -0.126736 0.517524 -0.015447
v -0.126385 0.501436 -0.003723
v -0.125976 0.501707 -0.006815
v -0.127034 0.501821 -0.012878
v -0.118268 0.743949 -0.040950
v -0.124066 0.784640 -0.045031
v -0.124889 0.765687 -0.039794
v -0.123538 0.898217 0.050547
v -0.125114 0.918216 0.050069
v -0.125470 0.501950 -0.009747
v -0.122697 0.879164 0.048663
v -0.125863 0.549101 -0.023205
v -0.121078 0.765693 -0.043908
v -0.124749 0.502218 -0.012723
v -0.125437 0.989201 -0.003397
v -0.125392 0.988290 -0.004730
v -0.122843 0.533635 -0.023464
v -0.125367 0.988679 -0.001475
v -0.125061 0.502486 -0.018612
v -0.126014 0.502181 -0.015774
v -0.126155 0.533164 -0.024148
v -0.124980 0.486167 -0.004499
v -0.124721 0.485969 -0.001441
v -0.123780 0.518052 -0.024040
v -0.125425 0.936655 0.040854
v -0.124872 0.486428 -0.007478
v -0.124903 0.987378 -0.005229
v -0.119494 0.879959 0.044498
v -0.121388 0.862003 0.041366
v -0.124927 0.517888 -0.018105
v -0.124599 0.486674 -0.010378
v -0.124189 0.987368 -0.004210
v -0.120865 0.898755 0.046284
v -0.123442 0.917777 0.044521
v -0.123716 0.502532 -0.015605
v -0.123761 0.502720 -0.021570
v -0.123334 0.486211 0.000905
v -0.124285 0.486920 -0.013275
v -0.124196 0.988273 -0.002896
v -0.122362 0.938384 0.045317
v -0.123692 0.487206 -0.016157
v -0.122454 0.502808 -0.018287
v -0.122256 0.486712 -0.001313
v -0.122888 0.486705 -0.004372
v -0.122949 0.533593 -0.025647
v -0.121276 0.518344 -0.025904
v -0.119867 0.918641 0.048708
v -0.123144 0.487480 -0.019005
v -0.122758 0.486891 -0.007325
v -0.122857 0.518119 -0.020830
v -0.122550 0.487070 -0.010260
v -0.123193 0.990024 -0.004318
v -0.122306 0.989833 -0.005812
v -0.118130 0.898966 0.050357
v -0.120969 0.471608 -0.005428
v -0.119870 0.471656 -0.002713
v -0.120915 0.502970 -0.021242
v -0.122398 0.989690 -0.005823
v -0.121422 0.471711 -0.008241
v -0.122131 0.487279 -0.013156
v -0.118304 0.471952 -0.000625
v -0.121820 0.471804 -0.011065
v -0.118494 0.860747 0.044883
v -0.116567 0.879389 0.048566
v -0.122032 0.471939 -0.013914
v -0.122890 0.989049 -0.004835
v -0.122282 0.502899 -0.024496
v -0.122298 0.487670 -0.021764
v -0.121369 0.487739 -0.024628
v -0.121486 0.487523 -0.016018
v -0.121910 0.472129 -0.016774
v -0.117180 0.472540 -0.002626
v -0.121570 0.472490 -0.022257
v -0.121691 0.472321 -0.019562
v -0.120767 0.518340 -0.023583
v -0.119309 0.472227 -0.008098
v -0.118518 0.472307 -0.005370
v -0.119574 0.503083 -0.024253
v -0.119743 0.472247 -0.010934
v -0.119897 0.472314 -0.013750
v -0.120603 0.487795 -0.018692
v -0.120589 0.472698 -0.024996
v -0.119638 0.487833 -0.026622
v -0.120278 0.503096 -0.026704
v -0.119706 0.472446 -0.016612
v -0.120305 0.457028 -0.017268
v -0.119895 0.457035 -0.014456
v -0.120710 0.457035 -0.020057
v -0.119011 0.457121 -0.011724
v -0.120938 0.457106 -0.022895
v -0.119375 0.472599 -0.019429
v -0.117849 0.457263 -0.009158
v -0.116726 0.457391 -0.006608
v -0.119669 0.441392 -0.019745
v -0.120108 0.457239 -0.025742
v -0.119304 0.441040 -0.025706
v -0.119989 0.441154 -0.022752
v -0.119613 0.487946 -0.021501
v -0.118792 0.441736 -0.016809
v -0.118710 0.472743 -0.021998
v -0.118586 0.457393 -0.027780
v -0.118970 0.472891 -0.026860
v -0.117758 0.442090 -0.014147
v -0.118682 0.487931 -0.024413
v -0.117832 0.441067 -0.027851
v -0.117071 0.424979 -0.020467
v -0.116845 0.424287 -0.023212
v -0.116511 0.442472 -0.011588
v -0.116601 0.457563 -0.011709
v -0.117602 0.457403 -0.014342
v -0.115130 0.457664 -0.004271
v -0.115334 0.457806 -0.009162
v -0.118283 0.457402 -0.017118
v -0.116505 0.425978 -0.017328
v -0.117856 0.472867 -0.024760
v -0.118518 0.457361 -0.020000
v -0.113942 0.458094 -0.006745
v -0.114907 0.442912 -0.009216
v -0.117548 0.457410 -0.025644
v -0.115682 0.426747 -0.014677
v -0.118233 0.457358 -0.022719
v -0.117042 0.441795 -0.019666
v -0.117490 0.441473 -0.022671
v -0.112458 0.458401 -0.004172
v -0.113429 0.457987 -0.002356
v -0.116395 0.442148 -0.016848
v -0.116944 0.441307 -0.025724
v -0.113177 0.443375 -0.006863
v -0.114735 0.424699 -0.023332
v -0.115681 0.423902 -0.025501
v -0.114441 0.427479 -0.012429
v -0.115402 0.442540 -0.014166
v -0.113798 0.426584 -0.017524
v -0.114803 0.425519 -0.020536
v -0.112326 0.410026 -0.014293
v -0.111804 0.411486 -0.012310
v -0.112809 0.427354 -0.015070
v -0.110566 0.408289 -0.018352
v -0.111954 0.408724 -0.016492
v -0.111254 0.443892 -0.004737
v -0.114091 0.442967 -0.011608
v -0.110672 0.412775 -0.009984
v -0.113005 0.428258 -0.010227
v -0.111570 0.428125 -0.012888
v -0.110211 0.409570 -0.016835
v -0.109681 0.413720 -0.008212
v -0.110151 0.428940 -0.010708
v -0.112576 0.443412 -0.009175
v -0.109573 0.444362 -0.002793
v -0.111634 0.429078 -0.007922
v -0.110175 0.411015 -0.014700
v -0.108688 0.414737 -0.006374
v -0.108891 0.429746 -0.008314
v -0.110564 0.443987 -0.006820
v -0.108934 0.412717 -0.012593
v -0.108844 0.444504 -0.004456
v -0.110082 0.429830 -0.005765
v -0.107669 0.415757 -0.004394
v -0.107679 0.413752 -0.010854
v -0.107479 0.430422 -0.005809
v -0.102795 0.399094 -0.008132
v -0.103147 0.400044 -0.006668
v -0.101898 0.398691 -0.009696
v -0.103209 0.400867 -0.005762
v -0.106432 0.416693 -0.002572
v -0.106667 0.414690 -0.009244
v -0.108246 0.430393 -0.003807
v -0.102873 0.401802 -0.004579
v -0.105597 0.430971 -0.003741
v -0.101375 0.401242 -0.007812
v -0.101357 0.399933 -0.009093
v -0.101111 0.402100 -0.006998
v -0.105801 0.415705 -0.007451
v -0.104739 0.417543 -0.001352
v -0.102226 0.402664 -0.003366
v -0.106251 0.430960 -0.002155
v -0.100443 0.402898 -0.005895
v -0.105139 0.416618 -0.005413
v -0.101611 0.403569 -0.002353
v -0.102931 0.418280 -0.000841
v -0.099791 0.403789 -0.004769
v -0.100800 0.404458 -0.001382
v -0.104329 0.417309 -0.003422
v -0.099210 0.404685 -0.003759
v -0.099805 0.405212 -0.000550
v -0.102771 0.418115 -0.001833
v -0.098567 0.405499 -0.002822
v -0.097875 0.406108 -0.001978
v -0.098569 0.405965 0.000094
v -0.096920 0.406814 -0.000799
v -0.094310 0.394881 -0.001740
v -0.094238 0.395174 -0.001278
v -0.094367 0.394431 -0.002357
v -0.097211 0.406800 0.000374
v -0.094062 0.395574 -0.000566
v -0.094609 0.394032 -0.003235
v -0.093837 0.395951 0.000057
v -0.093510 0.394395 -0.004395
v -0.095980 0.394901 -0.005450
v -0.093487 0.396265 0.000581
v -0.092942 0.395357 -0.003879
v -0.092647 0.395633 -0.003453
v -0.093114 0.396724 0.001131
v -0.092471 0.396197 -0.002895
v -0.092570 0.397544 0.001689
v -0.092238 0.396760 -0.002231
v -0.092021 0.397262 -0.001572
v -0.091743 0.397617 -0.000975
v -0.092717 0.400314 0.001497
v -0.091469 0.397952 -0.000372
v -0.091317 0.398476 0.000536
v -0.091313 0.392536 -0.001732
v -0.090924 0.392882 -0.000425
v -0.090962 0.392691 -0.000767
v -0.090848 0.393011 -0.000182
v -0.090819 0.393162 0.000048
v -0.090652 0.393325 0.000276
v -0.090486 0.393083 -0.002076
v -0.090537 0.393559 0.000507
v -0.090124 0.395026 0.000942
v -0.090677 0.394483 0.001093
v -0.089924 0.393190 -0.001201
v -0.089708 0.393728 -0.000867
v -0.089782 0.393446 -0.001024
v -0.089630 0.393985 -0.000636
v -0.089613 0.394163 -0.000461
v -0.089660 0.394457 -0.000157
usemtl Iliotibial_tract_rMaterial0
f 1 2 3
f 4 3 2
f 1 5 2
f 6 2 5
f 6 4 2
f 1 3 7
f 7 3 8
f 4 8 3
f 9 5 1
f 6 5 10
f 9 10 5
f 1 7 11
f 9 1 12
f 1 11 13
f 1 13 12
f 14 6 10
f 6 15 4
f 6 16 15
f 14 17 6
f 6 17 16
f 7 8 18
f 7 19 11
f 7 18 20
f 7 20 21
f 7 21 19
f 9 22 10
f 14 10 22
f 4 23 8
f 4 15 24
f 4 25 23
f 4 24 25
f 23 18 8
f 26 22 9
f 9 12 27
f 26 9 28
f 9 27 28
f 29 13 11
f 29 11 19
f 23 30 18
f 30 20 18
f 14 22 31
f 26 31 22
f 32 15 16
f 32 24 15
f 33 12 13
f 33 27 12
f 23 25 34
f 23 35 30
f 23 36 35
f 23 34 36
f 37 17 14
f 16 17 38
f 37 38 17
f 37 14 31
f 39 25 24
f 39 34 25
f 40 41 42
f 40 43 41
f 44 40 42
f 44 45 40
f 40 46 43
f 40 45 46
f 30 47 20
f 30 35 48
f 30 48 47
f 49 42 41
f 43 50 41
f 51 41 50
f 49 41 51
f 44 42 52
f 53 52 42
f 53 42 49
f 21 44 52
f 21 54 44
f 44 54 45
f 43 46 55
f 43 56 50
f 43 55 56
f 33 13 29
f 57 32 16
f 16 38 58
f 57 16 58
f 21 52 19
f 21 20 54
f 32 39 24
f 26 28 59
f 60 28 27
f 60 59 28
f 29 19 52
f 29 52 53
f 26 61 31
f 62 61 26
f 26 59 63
f 62 26 63
f 51 50 64
f 49 51 65
f 51 64 66
f 51 66 65
f 31 61 67
f 37 31 68
f 31 67 68
f 69 46 45
f 70 45 54
f 70 69 45
f 69 71 46
f 71 55 46
f 47 54 20
f 47 70 54
f 56 72 50
f 64 50 72
f 53 49 73
f 49 65 73
f 60 27 33
f 56 55 74
f 56 74 75
f 56 75 72
f 64 76 66
f 64 72 77
f 64 77 76
f 78 35 36
f 79 36 34
f 79 78 36
f 32 80 39
f 57 80 32
f 81 48 35
f 78 81 35
f 39 79 34
f 69 82 71
f 70 83 69
f 69 83 82
f 71 84 55
f 71 85 84
f 71 82 85
f 29 53 86
f 53 73 86
f 84 74 55
f 47 87 70
f 47 48 87
f 70 87 83
f 88 61 62
f 88 67 61
f 33 29 89
f 60 33 90
f 33 89 91
f 33 91 90
f 39 80 92
f 39 93 79
f 39 92 93
f 94 65 66
f 95 73 65
f 95 65 94
f 29 86 89
f 96 66 76
f 94 66 96
f 84 97 74
f 84 98 97
f 84 85 98
f 99 58 38
f 99 38 37
f 100 63 59
f 62 63 101
f 100 101 63
f 102 86 73
f 102 73 95
f 103 57 58
f 99 104 58
f 103 58 104
f 100 59 60
f 37 68 105
f 99 37 106
f 37 105 106
f 57 107 80
f 108 80 107
f 108 92 80
f 75 74 109
f 75 110 72
f 75 109 111
f 75 111 110
f 112 87 48
f 81 112 48
f 97 109 74
f 77 72 110
f 113 83 87
f 114 82 83
f 113 114 83
f 115 116 117
f 118 117 116
f 119 120 117
f 118 119 117
f 115 117 121
f 120 121 117
f 112 113 87
f 122 85 82
f 114 122 82
f 78 123 81
f 79 124 78
f 78 124 123
f 81 125 112
f 81 123 125
f 103 107 57
f 102 89 86
f 60 90 126
f 100 60 127
f 60 126 127
f 79 93 128
f 79 129 124
f 79 128 129
f 97 98 130
f 97 131 109
f 97 130 131
f 77 132 76
f 77 110 133
f 77 133 132
f 62 101 134
f 88 62 134
f 135 98 85
f 122 135 85
f 102 91 89
f 136 93 92
f 136 128 93
f 137 68 67
f 137 105 68
f 138 116 115
f 138 139 116
f 140 116 139
f 140 118 116
f 119 141 120
f 119 142 141
f 119 143 142
f 118 143 119
f 96 76 144
f 144 76 132
f 120 141 145
f 146 141 142
f 146 145 141
f 94 96 147
f 96 144 148
f 96 148 147
f 149 90 91
f 149 126 90
f 95 94 150
f 94 147 150
f 135 151 98
f 151 130 98
f 138 115 152
f 115 121 153
f 115 153 152
f 120 154 121
f 120 155 154
f 120 145 156
f 120 156 155
f 157 108 107
f 103 158 107
f 157 107 158
f 108 136 92
f 159 139 138
f 159 138 160
f 138 152 160
f 131 161 109
f 111 109 161
f 112 162 113
f 112 125 162
f 153 121 154
f 163 101 100
f 164 134 101
f 164 101 163
f 159 165 139
f 166 139 165
f 166 140 139
f 102 95 167
f 95 150 167
f 113 168 114
f 114 169 122
f 114 168 169
f 131 130 170
f 131 171 161
f 131 170 171
f 111 172 110
f 111 161 173
f 111 173 172
f 174 175 176
f 175 177 176
f 178 176 177
f 179 176 178
f 174 176 180
f 179 180 176
f 113 162 168
f 122 181 135
f 122 169 181
f 182 142 143
f 183 146 142
f 182 183 142
f 100 127 184
f 163 100 185
f 100 184 185
f 118 186 143
f 140 186 118
f 144 132 187
f 144 188 148
f 144 187 188
f 189 123 124
f 190 124 129
f 190 189 124
f 135 191 151
f 135 181 191
f 133 110 172
f 192 182 143
f 192 143 186
f 193 125 123
f 189 193 123
f 159 160 194
f 195 165 159
f 195 159 194
f 196 129 128
f 196 190 129
f 137 67 88
f 197 104 99
f 197 99 106
f 198 134 164
f 88 134 199
f 198 199 134
f 174 200 175
f 175 201 177
f 175 200 202
f 175 202 201
f 203 103 104
f 203 104 204
f 197 204 104
f 151 205 130
f 205 170 130
f 151 206 205
f 151 191 206
f 149 91 102
f 102 167 207
f 149 102 207
f 136 196 128
f 178 177 208
f 209 178 208
f 209 210 178
f 179 178 210
f 211 127 126
f 211 184 127
f 212 174 180
f 174 213 200
f 174 214 213
f 174 215 214
f 212 215 174
f 108 216 136
f 157 216 108
f 217 106 105
f 197 106 218
f 217 218 106
f 133 219 132
f 133 172 220
f 133 220 219
f 221 208 177
f 201 221 177
f 222 180 179
f 222 212 180
f 203 158 103
f 221 223 208
f 224 208 223
f 224 209 208
f 225 150 147
f 226 147 148
f 225 147 226
f 227 194 160
f 228 160 152
f 227 160 228
f 195 229 165
f 230 166 165
f 230 165 229
f 183 231 146
f 183 232 231
f 182 233 183
f 183 233 232
f 136 216 234
f 136 235 196
f 136 234 235
f 221 236 223
f 236 224 223
f 237 162 125
f 193 237 125
f 195 194 238
f 227 238 194
f 140 239 186
f 166 239 140
f 240 167 150
f 240 150 225
f 217 105 137
f 153 241 152
f 228 152 241
f 211 126 149
f 236 195 238
f 236 229 195
f 153 154 242
f 242 154 155
f 243 169 168
f 244 168 162
f 244 243 168
f 245 181 169
f 243 245 169
f 246 200 213
f 247 246 213
f 247 213 214
f 163 185 248
f 164 163 249
f 163 248 249
f 237 244 162
f 250 157 158
f 203 251 158
f 250 158 251
f 205 252 170
f 205 206 253
f 205 253 252
f 246 254 200
f 254 202 200
f 187 132 219
f 201 255 221
f 221 256 236
f 221 255 257
f 221 257 256
f 173 161 258
f 171 258 161
f 226 148 259
f 259 148 188
f 260 191 181
f 245 260 181
f 261 185 184
f 261 248 185
f 146 231 262
f 146 263 145
f 146 262 264
f 146 264 263
f 173 265 172
f 173 258 266
f 173 266 265
f 201 267 255
f 201 202 267
f 189 268 193
f 190 269 189
f 189 269 268
f 171 170 270
f 171 271 258
f 171 270 271
f 220 172 265
f 240 207 167
f 193 272 237
f 193 268 272
f 273 231 232
f 273 262 231
f 182 274 233
f 192 274 182
f 196 275 190
f 190 275 269
f 236 276 224
f 224 277 209
f 224 276 278
f 224 278 279
f 224 279 277
f 236 238 276
f 276 238 280
f 227 280 238
f 156 145 263
f 236 256 229
f 157 281 216
f 282 216 281
f 282 234 216
f 283 206 191
f 260 283 191
f 164 249 284
f 198 164 284
f 153 242 285
f 153 286 241
f 153 285 286
f 220 287 219
f 220 265 288
f 220 288 287
f 261 184 211
f 289 210 209
f 289 209 277
f 137 88 290
f 88 199 291
f 88 291 290
f 196 235 292
f 196 293 275
f 196 292 293
f 294 192 186
f 294 186 239
f 295 232 233
f 296 295 233
f 296 233 274
f 252 270 170
f 250 281 157
f 149 207 297
f 211 149 298
f 149 297 298
f 237 299 244
f 237 272 299
f 276 280 278
f 166 300 239
f 230 300 166
f 301 249 248
f 295 249 301
f 295 284 249
f 246 302 254
f 247 303 246
f 246 303 302
f 179 210 304
f 222 179 304
f 230 229 256
f 217 137 305
f 137 306 305
f 137 290 306
f 225 226 307
f 226 259 308
f 226 308 307
f 240 297 207
f 295 301 232
f 301 273 232
f 309 257 255
f 309 255 267
f 230 256 257
f 240 225 310
f 225 307 310
f 311 235 234
f 311 292 235
f 312 203 204
f 313 204 197
f 312 204 314
f 313 314 204
f 312 251 203
f 301 248 315
f 315 248 261
f 156 316 155
f 156 263 317
f 156 317 316
f 261 211 318
f 211 298 319
f 211 319 318
f 243 320 245
f 244 321 243
f 243 321 320
f 245 322 260
f 245 320 322
f 313 197 218
f 289 304 210
f 244 299 321
f 283 323 206
f 323 253 206
f 301 315 273
f 227 228 324
f 325 280 227
f 325 227 326
f 227 324 326
f 254 327 202
f 254 302 328
f 254 328 327
f 187 219 329
f 187 330 188
f 187 329 330
f 296 284 295
f 296 331 284
f 198 284 331
f 259 332 308
f 259 188 333
f 259 333 332
f 334 218 217
f 313 218 335
f 334 335 218
f 260 336 283
f 260 322 336
f 329 219 287
f 240 310 337
f 338 297 240
f 338 240 337
f 252 339 270
f 252 253 340
f 252 340 339
f 192 341 274
f 342 296 274
f 342 274 341
f 228 241 343
f 228 343 324
f 327 267 202
f 344 250 251
f 312 345 251
f 344 251 345
f 315 261 346
f 261 318 347
f 261 347 346
f 348 268 269
f 349 272 268
f 348 349 268
f 315 350 273
f 315 346 350
f 351 269 275
f 351 348 269
f 247 352 303
f 353 354 303
f 353 303 352
f 354 302 303
f 355 278 280
f 355 280 325
f 250 356 281
f 357 282 281
f 357 281 356
f 334 217 305
f 282 311 234
f 358 199 198
f 358 291 199
f 359 275 293
f 359 351 275
f 271 360 258
f 266 258 360
f 271 270 361
f 271 362 360
f 271 361 362
f 242 155 363
f 242 364 285
f 242 363 364
f 294 341 192
f 283 365 323
f 283 336 365
f 366 239 300
f 366 294 239
f 367 262 273
f 367 273 350
f 266 368 265
f 266 360 369
f 266 369 368
f 370 310 307
f 353 307 308
f 370 307 353
f 264 262 367
f 371 279 278
f 372 277 279
f 372 279 371
f 288 265 368
f 373 247 214
f 373 214 215
f 309 230 257
f 374 299 272
f 349 374 272
f 370 337 310
f 375 293 292
f 375 359 293
f 338 298 297
f 338 319 298
f 371 278 355
f 247 376 352
f 247 377 376
f 373 377 247
f 353 308 354
f 370 353 352
f 354 308 332
f 354 378 302
f 354 332 378
f 343 241 286
f 288 379 287
f 288 368 380
f 288 380 379
f 230 381 300
f 309 381 230
f 370 352 376
f 289 382 304
f 222 304 383
f 384 304 382
f 384 383 304
f 385 318 319
f 385 347 318
f 344 356 250
f 378 328 302
f 339 361 270
f 363 155 316
f 212 386 215
f 373 215 386
f 333 188 330
f 387 350 346
f 387 346 347
f 342 331 296
f 388 321 299
f 374 388 299
f 389 320 321
f 388 389 321
f 289 277 372
f 370 390 337
f 338 337 390
f 323 391 253
f 391 340 253
f 358 198 331
f 311 375 292
f 323 392 391
f 323 365 392
f 393 322 320
f 389 393 320
f 394 370 376
f 394 390 370
f 342 395 331
f 358 331 395
f 264 396 263
f 264 367 397
f 264 397 396
f 285 398 286
f 343 286 398
f 327 399 267
f 327 328 400
f 327 400 399
f 401 312 314
f 401 345 312
f 402 314 313
f 401 314 403
f 402 403 314
f 282 404 311
f 357 404 282
f 334 305 405
f 406 405 305
f 406 305 306
f 399 309 267
f 325 326 407
f 407 326 324
f 408 336 322
f 393 408 322
f 355 325 409
f 325 407 409
f 294 410 341
f 411 342 341
f 411 341 410
f 378 332 412
f 378 413 328
f 378 412 413
f 348 414 349
f 349 415 374
f 349 414 415
f 416 212 222
f 212 417 386
f 416 417 212
f 418 290 291
f 418 306 290
f 351 419 348
f 348 419 414
f 344 420 356
f 421 357 356
f 421 356 420
f 402 313 335
f 339 422 361
f 339 340 423
f 339 423 422
f 385 319 338
f 366 300 381
f 394 376 377
f 333 412 332
f 333 424 412
f 333 330 424
f 367 350 387
f 425 344 345
f 401 426 345
f 425 345 426
f 311 427 375
f 311 404 428
f 311 428 427
f 329 287 429
f 429 287 379
f 359 430 351
f 351 430 419
f 338 390 431
f 385 338 431
f 285 364 398
f 432 382 289
f 289 372 433
f 432 289 433
f 416 222 383
f 366 410 294
f 362 403 360
f 369 360 403
f 362 361 426
f 362 401 403
f 362 426 401
f 434 365 336
f 408 434 336
f 435 335 334
f 402 335 436
f 435 436 335
f 371 355 437
f 355 409 437
f 387 347 385
f 343 438 324
f 407 324 438
f 374 439 388
f 374 415 439
f 375 440 359
f 359 440 430
f 394 431 390
f 372 371 441
f 371 437 441
f 329 442 330
f 329 429 442
f 394 377 443
f 373 443 377
f 435 334 405
f 369 436 368
f 369 403 402
f 369 402 436
f 425 420 344
f 391 444 340
f 391 445 444
f 391 392 445
f 413 400 328
f 411 395 342
f 388 446 389
f 389 447 393
f 389 446 447
f 388 439 446
f 317 263 396
f 422 426 361
f 363 448 364
f 363 316 449
f 363 449 448
f 380 368 436
f 393 450 408
f 393 447 450
f 375 427 451
f 375 452 440
f 375 451 452
f 444 423 340
f 399 453 309
f 309 454 381
f 309 453 454
f 367 387 455
f 367 456 397
f 367 455 456
f 434 457 365
f 457 392 365
f 357 458 404
f 421 458 357
f 459 404 458
f 459 428 404
f 460 409 407
f 461 437 409
f 461 409 460
f 380 462 379
f 380 436 435
f 380 435 462
f 384 382 432
f 399 400 463
f 399 463 453
f 343 398 464
f 343 465 438
f 343 464 465
f 372 441 466
f 372 467 433
f 372 466 467
f 407 438 468
f 407 468 469
f 407 469 470
f 460 407 471
f 407 470 471
f 366 381 454
f 408 472 434
f 408 450 472
f 384 473 383
f 416 383 473
f 366 474 410
f 411 410 474
f 394 475 431
f 476 394 443
f 476 475 394
f 358 395 477
f 411 477 395
f 425 478 420
f 479 421 420
f 479 420 478
f 422 425 426
f 385 431 475
f 387 385 480
f 385 475 480
f 413 412 481
f 413 482 400
f 413 481 482
f 483 373 386
f 373 484 443
f 483 484 373
f 422 478 425
f 422 423 478
f 317 485 316
f 317 396 486
f 317 486 485
f 435 405 462
f 487 462 405
f 487 405 406
f 387 480 488
f 387 488 455
f 489 427 428
f 489 451 427
f 461 441 437
f 418 291 358
f 490 414 419
f 491 415 414
f 490 491 414
f 492 419 430
f 492 490 419
f 464 398 364
f 493 466 441
f 461 494 441
f 493 441 494
f 495 438 465
f 495 468 438
f 358 477 496
f 418 358 496
f 434 497 457
f 434 472 497
f 498 474 366
f 498 366 454
f 499 430 440
f 499 492 430
f 464 364 448
f 384 432 500
f 384 500 473
f 406 306 418
f 429 379 501
f 501 379 462
f 424 481 412
f 444 502 423
f 444 445 503
f 444 503 502
f 482 463 400
f 457 504 392
f 504 445 392
f 411 474 505
f 506 477 411
f 506 411 505
f 449 316 485
f 507 439 415
f 491 507 415
f 432 433 467
f 508 440 452
f 508 499 440
f 424 330 442
f 421 509 458
f 510 458 509
f 510 459 458
f 511 469 468
f 512 470 469
f 511 512 469
f 464 495 465
f 493 467 466
f 502 478 423
f 513 446 439
f 514 447 446
f 513 514 446
f 507 513 439
f 461 515 494
f 516 493 494
f 516 494 515
f 424 517 481
f 424 442 517
f 479 509 421
f 483 386 417
f 429 501 518
f 429 518 442
f 476 443 484
f 449 519 448
f 449 520 519
f 449 485 520
f 457 521 504
f 457 497 521
f 522 452 451
f 522 508 452
f 459 489 428
f 523 396 397
f 523 397 456
f 524 450 447
f 514 524 447
f 495 511 468
f 502 479 478
f 498 454 453
f 498 453 463
f 498 505 474
f 525 461 460
f 526 460 471
f 525 460 526
f 461 527 515
f 528 527 461
f 528 461 525
f 529 471 470
f 526 471 529
f 476 480 475
f 464 530 495
f 464 448 519
f 464 519 530
f 531 472 450
f 524 531 450
f 482 532 463
f 482 481 533
f 482 533 532
f 493 534 467
f 516 534 493
f 506 496 477
f 476 488 480
f 432 467 535
f 432 536 500
f 432 535 536
f 512 537 470
f 537 538 470
f 529 470 538
f 416 539 417
f 483 417 539
f 540 416 473
f 540 541 416
f 416 541 539
f 495 542 511
f 495 543 542
f 495 530 543
f 544 455 488
f 544 456 455
f 511 515 512
f 512 515 527
f 512 527 537
f 489 522 451
f 511 516 515
f 501 462 487
f 511 545 516
f 511 542 545
f 534 535 467
f 504 546 445
f 546 503 445
f 490 547 491
f 491 548 507
f 491 547 548
f 540 473 500
f 502 549 479
f 502 503 549
f 492 550 490
f 490 550 547
f 551 497 472
f 531 551 472
f 532 498 463
f 479 549 509
f 552 509 549
f 552 510 509
f 498 553 505
f 506 505 553
f 540 500 536
f 537 527 528
f 499 554 492
f 492 554 550
f 504 555 546
f 504 521 555
f 516 545 534
f 459 556 489
f 510 556 459
f 517 533 481
f 537 557 538
f 537 528 557
f 418 496 558
f 506 558 496
f 507 559 513
f 507 548 559
f 560 545 542
f 560 542 543
f 406 418 561
f 487 406 561
f 486 396 523
f 508 562 499
f 499 562 554
f 476 484 563
f 483 563 484
f 489 564 522
f 489 556 565
f 489 565 564
f 566 530 519
f 566 543 530
f 532 553 498
f 418 558 561
f 534 567 535
f 534 545 560
f 534 560 567
f 568 521 497
f 551 568 497
f 513 569 514
f 513 559 569
f 514 570 524
f 514 569 570
f 522 571 508
f 508 571 562
f 567 536 535
f 501 487 572
f 501 572 518
f 532 573 553
f 532 533 573
f 517 442 518
f 517 574 533
f 517 518 574
f 520 566 519
f 520 485 575
f 520 576 566
f 520 575 576
f 524 577 531
f 524 570 577
f 544 488 476
f 544 476 563
f 486 575 485
f 486 523 578
f 486 578 575
f 579 549 503
f 546 579 503
f 506 553 573
f 580 558 506
f 580 506 573
f 579 552 549
f 531 581 551
f 531 577 581
f 529 538 582
f 526 529 583
f 529 582 583
f 546 584 579
f 546 555 584
f 538 557 585
f 538 585 582
f 522 564 586
f 522 587 571
f 522 586 587
f 510 588 556
f 552 588 510
f 589 547 550
f 590 548 547
f 589 590 547
f 591 556 588
f 591 565 556
f 592 540 536
f 567 592 536
f 593 550 554
f 593 589 550
f 523 456 544
f 525 526 594
f 526 583 594
f 595 483 539
f 483 596 563
f 595 596 483
f 568 597 521
f 597 555 521
f 598 554 562
f 598 593 554
f 528 525 599
f 525 594 599
f 540 600 541
f 592 601 540
f 540 601 600
f 551 602 568
f 551 581 602
f 566 560 543
f 528 585 557
f 603 564 565
f 603 586 564
f 604 559 548
f 590 604 548
f 605 562 571
f 605 598 562
f 574 573 533
f 528 606 585
f 528 599 606
f 567 607 592
f 567 560 607
f 487 561 572
f 595 539 541
f 595 541 600
f 608 571 587
f 608 605 571
f 568 609 597
f 568 602 609
f 580 561 558
f 610 569 559
f 611 570 569
f 610 611 569
f 604 610 559
f 552 612 588
f 613 591 588
f 613 588 612
f 566 576 614
f 566 607 560
f 566 614 607
f 615 587 586
f 615 608 587
f 616 577 570
f 611 616 570
f 579 612 552
f 579 584 612
f 591 603 565
f 597 617 555
f 617 584 555
f 618 581 577
f 616 618 577
f 619 583 582
f 585 619 582
f 592 614 601
f 592 607 614
f 620 594 583
f 619 620 583
f 585 606 619
f 544 563 596
f 576 575 621
f 576 621 614
f 603 615 586
f 593 622 589
f 589 623 590
f 589 622 623
f 597 624 617
f 597 609 624
f 625 599 594
f 620 625 594
f 574 580 573
f 574 518 572
f 574 572 580
f 598 626 593
f 593 626 622
f 627 602 581
f 618 627 581
f 590 628 604
f 590 623 628
f 580 572 561
f 605 629 598
f 598 629 626
f 523 544 630
f 523 631 578
f 523 630 631
f 608 632 605
f 605 632 629
f 619 606 599
f 619 599 633
f 625 633 599
f 591 634 603
f 613 634 591
f 603 635 615
f 603 636 635
f 603 634 636
f 637 609 602
f 627 637 602
f 615 638 608
f 608 638 632
f 621 575 578
f 621 600 601
f 621 601 614
f 604 639 610
f 604 628 639
f 620 619 633
f 615 635 640
f 615 641 638
f 615 640 641
f 544 596 630
f 642 612 584
f 642 613 612
f 611 643 616
f 610 644 611
f 611 644 643
f 620 633 625
f 617 642 584
f 617 624 645
f 617 645 642
f 616 646 618
f 616 643 646
f 621 578 631
f 618 647 627
f 618 646 647
f 637 648 609
f 648 624 609
f 649 640 635
f 649 635 636
f 650 636 634
f 613 651 634
f 650 634 651
f 610 639 644
f 627 652 637
f 627 647 652
f 653 632 638
f 654 629 632
f 653 654 632
f 655 638 641
f 655 653 638
f 656 626 629
f 654 656 629
f 657 641 640
f 657 655 641
f 649 657 640
f 637 658 648
f 637 652 658
f 659 622 626
f 656 659 626
f 595 630 596
f 650 649 636
f 642 651 613
f 660 623 622
f 659 660 622
f 657 661 655
f 649 662 657
f 657 662 663
f 657 664 661
f 657 663 664
f 648 665 624
f 665 645 624
f 621 595 600
f 642 645 651
f 655 666 653
f 655 661 666
f 648 667 665
f 648 658 667
f 649 668 662
f 650 669 649
f 649 669 668
f 653 670 654
f 653 666 670
f 671 650 651
f 671 651 645
f 672 663 662
f 672 662 668
f 673 661 664
f 674 664 663
f 674 673 664
f 654 675 656
f 654 670 675
f 676 647 646
f 677 652 647
f 676 677 647
f 678 628 623
f 660 678 623
f 679 646 643
f 679 676 646
f 680 658 652
f 677 680 652
f 681 666 661
f 673 681 661
f 671 669 650
f 665 671 645
f 665 667 682
f 665 682 671
f 595 631 630
f 621 631 595
f 683 667 658
f 680 683 658
f 672 674 663
f 684 643 644
f 684 679 643
f 656 685 659
f 656 675 685
f 671 682 669
f 686 668 669
f 686 669 682
f 687 670 666
f 681 687 666
f 683 688 667
f 688 682 667
f 686 672 668
f 680 689 683
f 683 690 688
f 683 689 690
f 691 644 639
f 691 684 644
f 692 639 628
f 678 692 628
f 677 693 680
f 680 693 689
f 688 686 682
f 688 694 686
f 688 690 694
f 659 695 660
f 659 685 695
f 686 694 672
f 672 694 696
f 672 697 674
f 672 696 697
f 698 675 670
f 687 698 670
f 676 699 677
f 677 699 693
f 700 690 689
f 701 694 690
f 700 701 690
f 692 691 639
f 674 702 673
f 673 703 681
f 673 702 703
f 704 689 693
f 704 700 689
f 701 696 694
f 674 697 705
f 674 706 702
f 674 705 706
f 660 707 678
f 660 695 707
f 676 708 699
f 679 708 676
f 681 709 687
f 681 703 709
f 710 685 675
f 698 710 675
f 711 693 699
f 711 704 693
f 712 697 696
f 712 705 697
f 687 713 698
f 687 709 713
f 714 699 708
f 714 711 699
f 679 715 708
f 684 715 679
f 678 716 692
f 678 707 716
f 717 695 685
f 710 717 685
f 701 712 696
f 700 718 701
f 701 718 712
f 698 719 710
f 698 713 719
f 720 708 715
f 720 714 708
f 684 721 715
f 691 721 684
f 704 722 700
f 700 722 718
f 692 723 691
f 692 716 723
f 717 724 695
f 724 707 695
f 710 725 717
f 710 719 725
f 711 726 704
f 704 726 722
f 727 715 721
f 727 720 715
f 691 723 721
f 728 702 706
f 729 703 702
f 728 729 702
f 730 706 705
f 730 728 706
f 731 709 703
f 729 731 703
f 717 732 724
f 717 725 732
f 714 733 711
f 711 733 726
f 724 734 707
f 734 716 707
f 735 713 709
f 731 735 709
f 712 730 705
f 736 721 723
f 736 727 721
f 712 718 737
f 712 738 730
f 712 737 738
f 739 718 722
f 739 737 718
f 720 740 714
f 714 740 733
f 724 741 734
f 724 732 741
f 742 719 713
f 735 742 713
f 743 723 716
f 734 743 716
f 744 722 726
f 744 739 722
f 727 745 720
f 720 745 740
f 743 736 723
f 746 725 719
f 742 746 719
f 734 747 743
f 734 741 747
f 748 726 733
f 748 744 726
f 749 732 725
f 746 749 725
f 736 750 727
f 727 750 745
f 751 733 740
f 751 748 733
f 752 741 732
f 749 752 732
f 743 753 736
f 743 747 753
f 754 740 745
f 754 751 740
f 736 753 750
f 755 745 750
f 755 754 745
f 756 747 741
f 752 756 741
f 757 750 753
f 757 755 750
f 729 758 731
f 731 759 735
f 731 758 759
f 728 760 729
f 729 760 758
f 761 753 747
f 756 761 747
f 735 762 742
f 735 759 762
f 730 763 728
f 728 763 760
f 761 757 753
f 742 764 746
f 742 762 764
f 730 738 765
f 730 766 763
f 730 765 766
f 746 767 749
f 746 764 767
f 738 737 768
f 739 768 737
f 738 768 765
f 744 769 739
f 739 769 768
f 749 770 752
f 749 767 770
f 748 771 744
f 744 771 769
f 752 772 756
f 752 770 772
f 751 773 748
f 748 773 771
f 754 774 751
f 751 774 773
f 755 775 754
f 754 775 774
f 756 776 761
f 756 772 776
f 757 777 755
f 755 777 775
f 761 778 757
f 761 776 778
f 757 778 777
f 766 779 763
f 766 765 779
f 760 763 779
f 780 758 760
f 760 779 781
f 780 760 781
f 780 759 758
f 782 762 759
f 780 782 759
f 783 764 762
f 782 783 762
f 784 767 764
f 783 784 764
f 785 765 768
f 785 779 765
f 770 767 786
f 784 786 767
f 770 787 772
f 770 786 788
f 770 788 787
f 785 768 769
f 776 772 787
f 776 787 778
f 771 789 769
f 785 769 789
f 771 773 790
f 771 791 789
f 771 790 791
f 792 773 774
f 792 790 773
f 793 774 775
f 793 792 774
f 793 775 777
f 777 778 787
f 777 787 794
f 793 777 794
f 785 781 779
f 791 780 781
f 785 789 781
f 791 781 789
f 791 782 780
f 782 792 783
f 791 790 782
f 782 790 792
f 783 793 784
f 783 792 793
f 788 786 794
f 788 794 787
f 784 794 786
f 784 793 794
