# 
# Wavefront OBJ file
# Created with Kaydara FBX
# 
mtllib c:\users\tjvan\onedrive\documenten\fontys\minor\nx\.mtlmodels\inferior_medial_genicular_vein.r.obj

g Inferior_medial_genicular_vein_r
v -0.089766 0.411390 0.005170
v -0.090810 0.412235 0.004813
v -0.090823 0.412231 0.004840
v -0.089747 0.411407 0.005151
v -0.090792 0.412250 0.004796
v -0.089779 0.411386 0.005199
v -0.090825 0.412239 0.004868
v -0.089783 0.411395 0.005229
v -0.090818 0.412256 0.004890
v -0.089777 0.411415 0.005253
v -0.090802 0.412279 0.004901
v -0.089761 0.411440 0.005264
v -0.090783 0.412300 0.004897
v -0.089727 0.411431 0.005146
v -0.090772 0.412271 0.004792
v -0.089742 0.411465 0.005259
v -0.090764 0.412315 0.004880
v -0.089712 0.411457 0.005157
v -0.090757 0.412294 0.004803
v -0.089705 0.411477 0.005181
v -0.090749 0.412311 0.004825
v -0.089709 0.411486 0.005211
v -0.090752 0.412319 0.004853
v -0.089722 0.411481 0.005240
v -0.088781 0.410695 0.005551
v -0.088767 0.410701 0.005520
v -0.088786 0.410706 0.005583
v -0.088780 0.410728 0.005608
v -0.088748 0.410719 0.005499
v -0.088766 0.410757 0.005620
v -0.088729 0.410747 0.005493
v -0.088747 0.410785 0.005614
v -0.088715 0.410776 0.005505
v -0.088709 0.410799 0.005530
v -0.088714 0.410809 0.005562
v -0.088728 0.410804 0.005593
v -0.087805 0.410151 0.005885
v -0.087791 0.410157 0.005851
v -0.087810 0.410162 0.005919
v -0.087807 0.410188 0.005945
v -0.087773 0.410179 0.005828
v -0.087795 0.410220 0.005956
v -0.087756 0.410210 0.005821
v -0.087777 0.410252 0.005949
v -0.087743 0.410243 0.005831
v -0.087759 0.410273 0.005925
v -0.087740 0.410268 0.005857
v -0.087746 0.410279 0.005892
v -0.086816 0.409751 0.006150
v -0.086800 0.409775 0.006124
v -0.086829 0.409744 0.006186
v -0.086835 0.409755 0.006222
v -0.086833 0.409783 0.006250
v -0.086824 0.409820 0.006260
v -0.086786 0.409810 0.006115
v -0.086809 0.409855 0.006251
v -0.086776 0.409846 0.006125
v -0.086775 0.409874 0.006152
v -0.086781 0.409886 0.006189
v -0.086793 0.409879 0.006225
v -0.085821 0.409472 0.006403
v -0.085808 0.409499 0.006374
v -0.085831 0.409464 0.006442
v -0.085837 0.409476 0.006481
v -0.085798 0.409538 0.006363
v -0.085837 0.409506 0.006509
v -0.085792 0.409577 0.006374
v -0.085831 0.409546 0.006519
v -0.085792 0.409608 0.006402
v -0.085820 0.409584 0.006509
v -0.085798 0.409620 0.006441
v -0.085808 0.409612 0.006480
v -0.084790 0.409303 0.006640
v -0.084783 0.409312 0.006598
v -0.084795 0.409316 0.006681
v -0.084797 0.409348 0.006711
v -0.084794 0.409390 0.006721
v -0.084775 0.409342 0.006567
v -0.084788 0.409432 0.006709
v -0.084769 0.409383 0.006554
v -0.084767 0.409426 0.006564
v -0.084768 0.409458 0.006594
v -0.084773 0.409471 0.006635
v -0.084781 0.409461 0.006677
v -0.083682 0.409261 0.006722
v -0.083679 0.409293 0.006688
v -0.083685 0.409251 0.006767
v -0.083688 0.409265 0.006811
v -0.083678 0.409337 0.006675
v -0.083691 0.409298 0.006842
v -0.083679 0.409382 0.006685
v -0.083692 0.409343 0.006852
v -0.083681 0.409415 0.006716
v -0.083691 0.409387 0.006839
v -0.083685 0.409429 0.006760
v -0.083688 0.409419 0.006805
v -0.082495 0.409309 0.006763
v -0.082494 0.409299 0.006810
v -0.082498 0.409342 0.006727
v -0.082495 0.409313 0.006856
v -0.082501 0.409388 0.006712
v -0.082498 0.409349 0.006889
v -0.082505 0.409435 0.006723
v -0.082501 0.409396 0.006900
v -0.082507 0.409471 0.006756
v -0.082505 0.409442 0.006885
v -0.082508 0.409485 0.006802
v -0.082507 0.409475 0.006850
v -0.081201 0.409447 0.006707
v -0.081208 0.409480 0.006670
v -0.081196 0.409436 0.006757
v -0.081194 0.409451 0.006805
v -0.081216 0.409528 0.006655
v -0.081196 0.409489 0.006840
v -0.081222 0.409578 0.006666
v -0.081202 0.409538 0.006851
v -0.081224 0.409615 0.006701
v -0.081210 0.409586 0.006836
v -0.081222 0.409631 0.006749
v -0.081217 0.409620 0.006799
v -0.081595 0.417025 -0.060125
v -0.080263 0.413833 -0.061013
v -0.081686 0.417064 -0.060601
v -0.080126 0.413965 -0.061456
v -0.081537 0.417172 -0.061052
v -0.081286 0.417064 -0.059750
v -0.080187 0.413828 -0.060538
v -0.079813 0.414187 -0.061747
v -0.081187 0.417319 -0.061356
v -0.080844 0.417172 -0.059578
v -0.079919 0.413951 -0.060157
v -0.079777 0.409663 0.006544
v -0.079768 0.409653 0.006595
v -0.079789 0.409698 0.006505
v -0.079764 0.409669 0.006645
v -0.079800 0.409748 0.006490
v -0.079765 0.409709 0.006681
v -0.079807 0.409800 0.006501
v -0.079772 0.409760 0.006693
v -0.079808 0.409839 0.006537
v -0.079783 0.409810 0.006678
v -0.079804 0.409856 0.006588
v -0.079794 0.409845 0.006639
v -0.079409 0.414441 -0.061809
v -0.080729 0.417466 -0.061432
v -0.080386 0.417319 -0.059654
v -0.079531 0.414168 -0.059973
v -0.079021 0.414658 -0.061624
v -0.080287 0.417574 -0.061259
v -0.080036 0.417466 -0.059958
v -0.079127 0.414422 -0.060034
v -0.078753 0.414781 -0.061243
v -0.079978 0.417614 -0.060885
v -0.078251 0.411385 -0.061218
v -0.078131 0.411533 -0.061654
v -0.078204 0.411414 -0.060745
v -0.077875 0.411819 -0.061937
v -0.079887 0.417574 -0.060408
v -0.078814 0.414644 -0.060325
v -0.078678 0.414775 -0.060768
v -0.078002 0.411612 -0.060362
v -0.078202 0.409950 0.006259
v -0.078217 0.409986 0.006219
v -0.078189 0.409940 0.006312
v -0.078181 0.409958 0.006364
v -0.078230 0.410038 0.006203
v -0.078181 0.409999 0.006402
v -0.078238 0.410092 0.006216
v -0.078189 0.410053 0.006414
v -0.078238 0.410133 0.006253
v -0.078202 0.410105 0.006398
v -0.078231 0.410151 0.006305
v -0.078218 0.410141 0.006359
v -0.077554 0.412166 -0.061990
v -0.077700 0.411927 -0.060172
v -0.077252 0.412481 -0.061800
v -0.077378 0.412274 -0.060225
v -0.077050 0.412679 -0.061417
v -0.077123 0.412560 -0.060508
v -0.077003 0.412709 -0.060944
v -0.075775 0.409640 -0.061202
v -0.075669 0.409796 -0.061634
v -0.076492 0.410445 0.005796
v -0.076484 0.410389 0.005783
v -0.076492 0.410488 0.005835
v -0.076482 0.410507 0.005889
v -0.076466 0.410497 0.005944
v -0.076469 0.410335 0.005800
v -0.076448 0.410460 0.005985
v -0.076451 0.410298 0.005840
v -0.076435 0.410288 0.005895
v -0.076425 0.410307 0.005949
v -0.076424 0.410350 0.005988
v -0.076432 0.410406 0.006001
v -0.075766 0.409696 -0.060735
v -0.075475 0.410121 -0.061914
v -0.075645 0.409949 -0.060357
v -0.075247 0.410530 -0.061967
v -0.075443 0.410331 -0.060169
v -0.075045 0.410912 -0.061780
v -0.075215 0.410739 -0.060223
v -0.074924 0.411164 -0.061401
v -0.075021 0.411065 -0.060502
v -0.074915 0.411220 -0.060934
v -0.075088 0.410752 0.005398
v -0.075078 0.410687 0.005383
v -0.075086 0.410803 0.005444
v -0.075074 0.410825 0.005506
v -0.075053 0.410814 0.005570
v -0.075059 0.410625 0.005402
v -0.075036 0.410582 0.005449
v -0.075030 0.410771 0.005617
v -0.075012 0.410708 0.005636
v -0.075016 0.410570 0.005513
v -0.075003 0.410592 0.005575
v -0.075002 0.410643 0.005620
v -0.072973 0.408488 -0.060964
v -0.072872 0.408644 -0.061391
v -0.073004 0.408561 -0.060506
v -0.072728 0.408986 -0.061672
v -0.072957 0.408842 -0.060138
v -0.072580 0.409424 -0.061731
v -0.072844 0.409257 -0.059960
v -0.072467 0.409839 -0.061553
v -0.072696 0.409695 -0.060019
v -0.073649 0.411086 0.004964
v -0.073637 0.411011 0.004946
v -0.073646 0.411144 0.005015
v -0.073631 0.411169 0.005086
v -0.073606 0.411156 0.005159
v -0.073587 0.410891 0.005021
v -0.073562 0.410878 0.005093
v -0.073614 0.410940 0.004967
v -0.073546 0.410904 0.005164
v -0.073544 0.410962 0.005215
v -0.073556 0.411037 0.005233
v -0.073578 0.411108 0.005212
v -0.072420 0.410120 -0.061185
v -0.072553 0.410037 -0.060300
v -0.072452 0.410193 -0.060727
v -0.072187 0.411440 0.004483
v -0.072173 0.411356 0.004463
v -0.072183 0.411505 0.004540
v -0.072164 0.411535 0.004620
v -0.072133 0.411521 0.004700
v -0.072146 0.411277 0.004486
v -0.072100 0.411467 0.004760
v -0.072113 0.411222 0.004546
v -0.072073 0.411387 0.004783
v -0.072083 0.411208 0.004626
v -0.072063 0.411238 0.004706
v -0.072060 0.411303 0.004763
v -0.069954 0.407790 -0.060505
v -0.070022 0.407871 -0.060057
v -0.069849 0.407942 -0.060926
v -0.070035 0.408164 -0.059702
v -0.069736 0.408288 -0.061208
v -0.069989 0.408591 -0.059536
v -0.069643 0.408734 -0.061275
v -0.069897 0.409037 -0.059603
v -0.069598 0.409161 -0.061109
v -0.069783 0.409383 -0.059885
v -0.069610 0.409454 -0.060754
v -0.069678 0.409535 -0.060306
v -0.070712 0.411811 0.003946
v -0.070697 0.411718 0.003924
v -0.070707 0.411885 0.004009
v -0.070683 0.411918 0.004097
v -0.070646 0.411903 0.004185
v -0.070666 0.411630 0.003949
v -0.070606 0.411843 0.004250
v -0.070627 0.411571 0.004014
v -0.070575 0.411755 0.004275
v -0.070590 0.411555 0.004102
v -0.070566 0.411589 0.004190
v -0.070560 0.411662 0.004253
v -0.069228 0.412277 0.003412
v -0.069236 0.412196 0.003343
v -0.069198 0.412315 0.003507
v -0.069220 0.412093 0.003319
v -0.069153 0.412299 0.003602
v -0.069184 0.411997 0.003345
v -0.069107 0.412234 0.003673
v -0.069137 0.411932 0.003416
v -0.069071 0.412138 0.003700
v -0.069093 0.411916 0.003512
v -0.069063 0.411954 0.003607
v -0.069054 0.412035 0.003676
v -0.066908 0.407493 -0.059387
v -0.066965 0.407789 -0.059047
v -0.066807 0.407408 -0.059823
v -0.066964 0.408216 -0.058892
v -0.066690 0.407557 -0.060236
v -0.066904 0.408662 -0.058965
v -0.066587 0.407900 -0.060517
v -0.066801 0.409005 -0.059245
v -0.066527 0.408345 -0.060590
v -0.066684 0.409154 -0.059659
v -0.066526 0.408773 -0.060435
v -0.066583 0.409069 -0.060095
v -0.067769 0.412589 0.002665
v -0.067752 0.412477 0.002638
v -0.067757 0.412678 0.002738
v -0.067720 0.412721 0.002840
v -0.067667 0.412705 0.002942
v -0.067711 0.412372 0.002667
v -0.067612 0.412635 0.003017
v -0.067656 0.412302 0.002742
v -0.067570 0.412530 0.003046
v -0.067603 0.412287 0.002844
v -0.067565 0.412329 0.002946
v -0.067553 0.412418 0.003020
v -0.066322 0.412987 0.001901
v -0.066305 0.413084 0.001979
v -0.066304 0.412865 0.001874
v -0.066259 0.413132 0.002087
v -0.066257 0.412752 0.001903
v -0.066195 0.413116 0.002194
v -0.066131 0.413042 0.002274
v -0.066193 0.412678 0.001982
v -0.066130 0.412662 0.002090
v -0.066084 0.412929 0.002303
v -0.066083 0.412710 0.002197
v -0.066067 0.412807 0.002275
v -0.063832 0.407596 -0.058166
v -0.063742 0.407301 -0.058493
v -0.063856 0.408021 -0.058020
v -0.063611 0.407215 -0.058915
v -0.063808 0.408462 -0.058096
v -0.063474 0.407361 -0.059318
v -0.063702 0.408800 -0.058372
v -0.063367 0.407699 -0.059594
v -0.063565 0.408946 -0.058774
v -0.063320 0.408140 -0.059669
v -0.063434 0.408860 -0.059196
v -0.063344 0.408565 -0.059523
v -0.064904 0.413385 0.001044
v -0.064882 0.413491 0.001125
v -0.064886 0.413254 0.001014
v -0.064825 0.413544 0.001237
v -0.064833 0.413132 0.001045
v -0.064750 0.413529 0.001348
v -0.064759 0.413054 0.001127
v -0.064676 0.413451 0.001431
v -0.064684 0.413039 0.001239
v -0.064623 0.413330 0.001461
v -0.064628 0.413092 0.001351
v -0.064605 0.413198 0.001432
v -0.063526 0.413779 0.000082
v -0.063497 0.413895 0.000165
v -0.063509 0.413638 0.000051
v -0.063429 0.413953 0.000280
v -0.063450 0.413509 0.000083
v -0.063341 0.413940 0.000395
v -0.063364 0.413427 0.000167
v -0.063256 0.413857 0.000479
v -0.063276 0.413413 0.000281
v -0.063197 0.413728 0.000510
v -0.063208 0.413472 0.000396
v -0.063179 0.413587 0.000479
v -0.060719 0.407470 -0.057056
v -0.060754 0.407891 -0.056916
v -0.060607 0.407178 -0.057371
v -0.060703 0.408326 -0.056989
v -0.060447 0.407091 -0.057776
v -0.060579 0.408660 -0.057255
v -0.060283 0.407234 -0.058164
v -0.060415 0.408803 -0.057642
v -0.062199 0.414166 -0.000994
v -0.062162 0.414291 -0.000909
v -0.062182 0.414015 -0.001024
v -0.062082 0.414356 -0.000793
v -0.060159 0.407567 -0.058430
v -0.062116 0.413878 -0.000993
v -0.060255 0.408716 -0.058048
v -0.061979 0.414344 -0.000678
v -0.060107 0.408003 -0.058503
v -0.062019 0.413792 -0.000909
v -0.060143 0.408423 -0.058363
v -0.061882 0.414257 -0.000593
v -0.061916 0.413780 -0.000793
v -0.061816 0.414120 -0.000562
v -0.061836 0.413845 -0.000678
v -0.061799 0.413969 -0.000593
v -0.060932 0.414541 -0.002192
v -0.060887 0.414676 -0.002108
v -0.060917 0.414380 -0.002223
v -0.060792 0.414747 -0.001993
v -0.060844 0.414236 -0.002192
v -0.060674 0.414737 -0.001879
v -0.060734 0.414146 -0.002109
v -0.060564 0.414647 -0.001795
v -0.060616 0.414135 -0.001994
v -0.060491 0.414502 -0.001765
v -0.060521 0.414207 -0.001880
v -0.060476 0.414341 -0.001796
v -0.059731 0.414902 -0.003529
v -0.059681 0.415045 -0.003442
v -0.059713 0.414732 -0.003563
v -0.059577 0.415122 -0.003325
v -0.059632 0.414580 -0.003535
v -0.059446 0.415113 -0.003210
v -0.057716 0.407299 -0.055713
v -0.057749 0.407714 -0.055574
v -0.059510 0.414487 -0.003452
v -0.057588 0.407008 -0.056017
v -0.057679 0.408143 -0.055637
v -0.059324 0.415019 -0.003127
v -0.057400 0.406920 -0.056404
v -0.059379 0.414477 -0.003337
v -0.057524 0.408470 -0.055886
v -0.059243 0.414867 -0.003099
v -0.059275 0.414554 -0.003220
v -0.059225 0.414697 -0.003133
v -0.057202 0.407059 -0.056770
v -0.057326 0.408609 -0.056252
v -0.057047 0.407386 -0.057019
v -0.057138 0.408521 -0.056639
v -0.056977 0.407815 -0.057082
v -0.057010 0.408231 -0.056943
v -0.059185 0.415103 -0.004152
v -0.059141 0.415247 -0.004056
v -0.059160 0.414931 -0.004195
v -0.059039 0.415324 -0.003931
v -0.059072 0.414778 -0.004171
v -0.058907 0.415314 -0.003811
v -0.058945 0.414683 -0.004088
v -0.058780 0.415219 -0.003728
v -0.058813 0.414673 -0.003969
v -0.058692 0.415065 -0.003705
v -0.058711 0.414750 -0.003844
v -0.058667 0.414894 -0.003747
v -0.058636 0.415358 -0.004721
v -0.058599 0.415502 -0.004614
v -0.058604 0.415185 -0.004771
v -0.058502 0.415577 -0.004478
v -0.058510 0.415030 -0.004751
v -0.058371 0.415565 -0.004351
v -0.058381 0.414933 -0.004666
v -0.058242 0.415468 -0.004266
v -0.058250 0.414920 -0.004539
v -0.058148 0.415312 -0.004246
v -0.058153 0.414996 -0.004404
v -0.058116 0.415139 -0.004297
v -0.058087 0.415635 -0.005254
v -0.058052 0.415780 -0.005141
v -0.058052 0.415459 -0.005307
v -0.057956 0.415856 -0.005000
v -0.057956 0.415300 -0.005287
v -0.057825 0.415842 -0.004867
v -0.057825 0.415200 -0.005199
v -0.057694 0.415742 -0.004779
v -0.057693 0.415186 -0.005066
v -0.057598 0.415583 -0.004759
v -0.057597 0.415262 -0.004925
v -0.057562 0.415408 -0.004812
v -0.057534 0.415904 -0.005777
v -0.057495 0.416054 -0.005665
v -0.057502 0.415723 -0.005828
v -0.057396 0.416132 -0.005521
v -0.057407 0.415558 -0.005804
v -0.057262 0.416118 -0.005385
v -0.057275 0.415455 -0.005711
v -0.057131 0.416015 -0.005293
v -0.054908 0.406970 -0.054136
v -0.054928 0.407378 -0.053991
v -0.054770 0.406681 -0.054429
v -0.057142 0.415441 -0.005575
v -0.057036 0.415850 -0.005269
v -0.054826 0.407798 -0.054035
v -0.054553 0.406590 -0.054794
v -0.057042 0.415519 -0.005432
v -0.057004 0.415669 -0.005320
v -0.054629 0.408116 -0.054255
v -0.056974 0.416136 -0.006315
v -0.056925 0.416293 -0.006209
v -0.056951 0.415947 -0.006358
v -0.056817 0.416375 -0.006069
v -0.054314 0.406721 -0.055131
v -0.056861 0.415776 -0.006327
v -0.056679 0.416361 -0.005932
v -0.054390 0.408247 -0.054593
v -0.056730 0.415669 -0.006229
v -0.056548 0.416254 -0.005834
v -0.054117 0.407039 -0.055351
v -0.054173 0.408156 -0.054957
v -0.056592 0.415655 -0.006092
v -0.056459 0.416083 -0.005802
v -0.054015 0.407459 -0.055395
v -0.056484 0.415737 -0.005951
v -0.056435 0.415894 -0.005845
v -0.054035 0.407867 -0.055251
v -0.056403 0.416300 -0.006895
v -0.056338 0.416465 -0.006802
v -0.056394 0.416103 -0.006924
v -0.056218 0.416552 -0.006669
v -0.056314 0.415926 -0.006881
v -0.056073 0.416538 -0.006532
v -0.056184 0.415816 -0.006777
v -0.055943 0.416428 -0.006428
v -0.056039 0.415802 -0.006640
v -0.055863 0.416250 -0.006385
v -0.055918 0.415889 -0.006507
v -0.055854 0.416053 -0.006414
v -0.055818 0.416369 -0.007541
v -0.055827 0.416166 -0.007551
v -0.055734 0.416539 -0.007466
v -0.055597 0.416629 -0.007345
v -0.055758 0.415983 -0.007492
v -0.055444 0.416616 -0.007211
v -0.055630 0.415870 -0.007381
v -0.055316 0.416503 -0.007100
v -0.055477 0.415857 -0.007248
v -0.055247 0.416320 -0.007042
v -0.055340 0.415947 -0.007127
v -0.055256 0.416117 -0.007052
v -0.055215 0.416313 -0.008280
v -0.055243 0.416107 -0.008267
v -0.055110 0.416484 -0.008226
v -0.055186 0.415922 -0.008191
v -0.054956 0.416574 -0.008120
v -0.055059 0.415807 -0.008073
v -0.054794 0.416560 -0.007990
v -0.054897 0.415793 -0.007943
v -0.054667 0.416446 -0.007872
v -0.054743 0.415884 -0.007838
v -0.054610 0.416260 -0.007796
v -0.054590 0.416102 -0.009136
v -0.054635 0.415897 -0.009101
v -0.054638 0.416055 -0.007784
v -0.054466 0.416270 -0.009104
v -0.054588 0.415712 -0.009008
v -0.054295 0.416359 -0.009013
v -0.054463 0.415596 -0.008883
v -0.054125 0.416343 -0.008889
v -0.052379 0.406376 -0.052322
v -0.052377 0.406774 -0.052163
v -0.052238 0.406090 -0.052608
v -0.054292 0.415580 -0.008758
v -0.052232 0.407178 -0.052175
v -0.053999 0.416227 -0.008763
v -0.051992 0.405992 -0.052945
v -0.054122 0.415669 -0.008667
v -0.053953 0.416042 -0.008670
v -0.051984 0.407478 -0.052353
v -0.053997 0.415506 -0.010081
v -0.053939 0.415707 -0.010137
v -0.053997 0.415837 -0.008635
v -0.053959 0.415323 -0.009972
v -0.053798 0.415871 -0.010125
v -0.051706 0.406109 -0.053242
v -0.053834 0.415206 -0.009840
v -0.053614 0.415954 -0.010048
v -0.051698 0.407595 -0.052650
v -0.051458 0.406410 -0.053421
v -0.053655 0.415187 -0.009720
v -0.053435 0.415935 -0.009928
v -0.051452 0.407497 -0.052987
v -0.051313 0.406813 -0.053432
v -0.053471 0.415271 -0.009644
v -0.053310 0.415819 -0.009796
v -0.051311 0.407211 -0.053273
v -0.053328 0.414903 -0.011234
v -0.053258 0.415098 -0.011307
v -0.053331 0.415435 -0.009632
v -0.053272 0.415636 -0.009687
v -0.053295 0.414722 -0.011112
v -0.053104 0.415256 -0.011312
v -0.053170 0.414605 -0.010974
v -0.052909 0.415335 -0.011248
v -0.052984 0.414582 -0.010857
v -0.052723 0.415312 -0.011131
v -0.052788 0.414660 -0.010793
v -0.052597 0.415195 -0.010994
v -0.052615 0.414047 -0.012598
v -0.052538 0.414241 -0.012683
v -0.052635 0.414819 -0.010798
v -0.052565 0.415014 -0.010872
v -0.052587 0.413868 -0.012465
v -0.052378 0.414397 -0.012696
v -0.052462 0.413752 -0.012319
v -0.052176 0.414475 -0.012634
v -0.052274 0.413730 -0.012199
v -0.051988 0.414452 -0.012514
v -0.052072 0.413808 -0.012137
v -0.051863 0.414336 -0.012368
v -0.051912 0.413964 -0.012150
v -0.052217 0.413576 -0.013285
v -0.052140 0.413774 -0.013370
v -0.052193 0.413398 -0.013143
v -0.051835 0.414158 -0.012235
v -0.051982 0.413939 -0.013375
v -0.052073 0.413288 -0.012982
v -0.050179 0.405396 -0.050240
v -0.050029 0.405109 -0.050513
v -0.050166 0.405784 -0.050073
v -0.051785 0.414027 -0.013299
v -0.051890 0.413276 -0.012845
v -0.049757 0.405000 -0.050818
v -0.049993 0.406171 -0.050056
v -0.051770 0.413177 -0.013843
v -0.051697 0.413383 -0.013923
v -0.051748 0.412999 -0.013695
v -0.051602 0.414014 -0.013162
v -0.051549 0.413563 -0.013911
v -0.051638 0.412897 -0.013516
v -0.051693 0.413363 -0.012769
v -0.049435 0.405100 -0.051074
v -0.049707 0.406451 -0.050194
v -0.051366 0.413668 -0.013812
v -0.051482 0.413904 -0.013001
v -0.051535 0.413528 -0.012774
v -0.051469 0.412899 -0.013356
v -0.051458 0.413726 -0.012859
v -0.051197 0.413669 -0.013652
v -0.051278 0.412848 -0.014299
v -0.051213 0.413064 -0.014372
v -0.051258 0.412668 -0.014146
v -0.049149 0.405380 -0.051212
v -0.049385 0.406550 -0.050450
v -0.051286 0.413004 -0.013257
v -0.051080 0.413258 -0.014345
v -0.051158 0.412572 -0.013954
v -0.051087 0.413568 -0.013474
v -0.050914 0.413378 -0.014225
v -0.051138 0.413183 -0.013246
v -0.051065 0.413390 -0.013325
v -0.051004 0.412586 -0.013775
v -0.048976 0.405766 -0.051196
v -0.049113 0.406442 -0.050755
v -0.050760 0.413392 -0.014045
v -0.048963 0.406155 -0.051028
v -0.050749 0.412577 -0.014694
v -0.050693 0.412802 -0.014759
v -0.050838 0.412706 -0.013655
v -0.050726 0.412392 -0.014540
v -0.050574 0.413008 -0.014720
v -0.050660 0.413296 -0.013853
v -0.050630 0.412298 -0.014340
v -0.050705 0.412900 -0.013628
v -0.050422 0.413139 -0.014585
v -0.050639 0.413116 -0.013700
v -0.050487 0.412319 -0.014146
v -0.050280 0.413160 -0.014392
v -0.050336 0.412450 -0.014012
v -0.050184 0.412348 -0.015072
v -0.050138 0.412581 -0.015131
v -0.050184 0.413066 -0.014191
v -0.050154 0.412157 -0.014920
v -0.050217 0.412656 -0.013972
v -0.050028 0.412795 -0.015083
v -0.050161 0.412881 -0.014038
v -0.050056 0.412061 -0.014716
v -0.049883 0.412932 -0.014940
v -0.049916 0.412084 -0.014516
v -0.049743 0.412956 -0.014740
v -0.049771 0.412222 -0.014373
v -0.049645 0.412859 -0.014537
v -0.049661 0.412436 -0.014325
v -0.047451 0.403929 -0.047002
v -0.047281 0.403638 -0.047237
v -0.049580 0.412140 -0.015481
v -0.049541 0.412380 -0.015536
v -0.049615 0.412669 -0.014385
v -0.047456 0.404314 -0.046860
v -0.049540 0.411943 -0.015333
v -0.049433 0.412599 -0.015484
v -0.049432 0.411842 -0.015131
v -0.046990 0.403520 -0.047502
v -0.049286 0.412739 -0.015338
v -0.047292 0.404691 -0.046849
v -0.049285 0.411865 -0.014931
v -0.049139 0.412761 -0.015138
v -0.049138 0.412004 -0.014785
v -0.046656 0.403606 -0.047726
v -0.049032 0.412660 -0.014937
v -0.047006 0.404959 -0.046972
v -0.049031 0.412223 -0.014733
v -0.048992 0.412463 -0.014789
v -0.048924 0.411933 -0.015971
v -0.048890 0.412178 -0.016023
v -0.048874 0.411729 -0.015827
v -0.048780 0.412401 -0.015971
v -0.046369 0.403874 -0.047849
v -0.048752 0.411623 -0.015632
v -0.048624 0.412541 -0.015828
v -0.046672 0.405045 -0.047195
v -0.048592 0.411643 -0.015436
v -0.048463 0.412560 -0.015632
v -0.046206 0.404251 -0.047838
v -0.048436 0.411782 -0.015293
v -0.048342 0.412454 -0.015436
v -0.046381 0.404927 -0.047460
v -0.048326 0.412005 -0.015240
v -0.048291 0.412251 -0.015293
v -0.046210 0.404636 -0.047695
v -0.048172 0.411958 -0.016642
v -0.048205 0.411707 -0.016591
v -0.048056 0.412183 -0.016592
v -0.048144 0.411498 -0.016453
v -0.047887 0.412321 -0.016456
v -0.048007 0.411386 -0.016265
v -0.047710 0.412337 -0.016268
v -0.047831 0.411401 -0.016078
v -0.047573 0.412225 -0.016081
v -0.047662 0.411540 -0.015941
v -0.047513 0.412015 -0.015943
v -0.047545 0.411765 -0.015891
v -0.047377 0.411700 -0.017441
v -0.047409 0.411445 -0.017390
v -0.047253 0.411926 -0.017397
v -0.047340 0.411229 -0.017257
v -0.047070 0.412063 -0.017269
v -0.047189 0.411112 -0.017079
v -0.046877 0.412075 -0.017092
v -0.046996 0.411123 -0.016902
v -0.046725 0.411957 -0.016914
v -0.046813 0.411260 -0.016774
v -0.046657 0.411742 -0.016781
v -0.046689 0.411487 -0.016730
v -0.045262 0.403085 -0.043914
v -0.045063 0.402790 -0.044094
v -0.045296 0.403470 -0.043820
v -0.046495 0.411386 -0.018471
v -0.046528 0.411127 -0.018419
v -0.046363 0.411614 -0.018433
v -0.046452 0.410906 -0.018291
v -0.045158 0.403844 -0.043837
v -0.044754 0.402665 -0.044312
v -0.046166 0.411750 -0.018316
v -0.046288 0.410783 -0.018121
v -0.045958 0.411757 -0.018150
v -0.044417 0.402743 -0.044510
v -0.044883 0.404104 -0.043961
v -0.046080 0.410790 -0.017955
v -0.045794 0.411633 -0.017980
v -0.045883 0.410926 -0.017838
v -0.045718 0.411413 -0.017852
v -0.045751 0.411154 -0.017800
v -0.044546 0.404183 -0.044159
v -0.044142 0.403004 -0.044634
v -0.045519 0.410999 -0.019781
v -0.045553 0.410736 -0.019727
v -0.045379 0.411228 -0.019750
v -0.045472 0.410510 -0.019602
v -0.044237 0.404058 -0.044377
v -0.044004 0.403377 -0.044651
v -0.045171 0.411363 -0.019642
v -0.045297 0.410382 -0.019441
v -0.044038 0.403763 -0.044557
v -0.044950 0.411366 -0.019486
v -0.045076 0.410385 -0.019285
v -0.044775 0.411237 -0.019325
v -0.044867 0.410519 -0.019178
v -0.044694 0.411011 -0.019200
v -0.044727 0.410749 -0.019147
v -0.044442 0.410521 -0.021419
v -0.044482 0.410257 -0.021356
v -0.044291 0.410750 -0.021401
v -0.044400 0.410028 -0.021228
v -0.044069 0.410881 -0.021307
v -0.043589 0.402785 -0.040997
v -0.043651 0.403164 -0.040957
v -0.044218 0.409895 -0.021071
v -0.043365 0.402493 -0.041115
v -0.043836 0.410881 -0.021162
v -0.043535 0.403529 -0.041006
v -0.043985 0.409895 -0.020926
v -0.043039 0.402368 -0.041279
v -0.043654 0.410748 -0.021004
v -0.043271 0.403782 -0.041130
v -0.043763 0.410026 -0.020832
v -0.043572 0.410519 -0.020877
v -0.042698 0.402441 -0.041446
v -0.043612 0.410255 -0.020814
v -0.042930 0.403855 -0.041296
v -0.043452 0.409883 -0.023169
v -0.043505 0.409615 -0.023083
v -0.043279 0.410113 -0.023176
v -0.042435 0.402694 -0.041570
v -0.043425 0.409379 -0.022940
v -0.043034 0.410241 -0.023100
v -0.042604 0.403729 -0.041461
v -0.043234 0.409239 -0.022779
v -0.042318 0.403059 -0.041619
v -0.042782 0.410235 -0.022964
v -0.042380 0.403438 -0.041579
v -0.042981 0.409233 -0.022642
v -0.042590 0.410095 -0.022802
v -0.042736 0.409362 -0.022567
v -0.042388 0.402940 -0.038245
v -0.042471 0.403304 -0.038261
v -0.042510 0.409859 -0.022659
v -0.042564 0.409591 -0.022573
v -0.042145 0.402661 -0.038297
v -0.042372 0.403656 -0.038341
v -0.042588 0.409006 -0.025018
v -0.042654 0.408735 -0.024908
v -0.042396 0.409233 -0.025051
v -0.042574 0.408493 -0.024751
v -0.041807 0.402542 -0.038404
v -0.042118 0.403901 -0.038462
v -0.042127 0.409355 -0.024999
v -0.042371 0.408344 -0.024589
v -0.041465 0.402615 -0.038535
v -0.041855 0.409339 -0.024875
v -0.042098 0.408329 -0.024466
v -0.041775 0.403973 -0.038594
v -0.041652 0.409190 -0.024714
v -0.041830 0.408451 -0.024414
v -0.041210 0.402859 -0.038657
v -0.041895 0.407981 -0.026965
v -0.041967 0.407705 -0.026839
v -0.041438 0.403854 -0.038700
v -0.041687 0.408206 -0.027021
v -0.041572 0.408948 -0.024557
v -0.041883 0.407452 -0.026678
v -0.041637 0.408677 -0.024447
v -0.041614 0.403461 -0.035651
v -0.041709 0.403803 -0.035718
v -0.041111 0.403211 -0.038736
v -0.041361 0.403203 -0.035640
v -0.041194 0.403575 -0.038752
v -0.041622 0.404137 -0.035824
v -0.041666 0.407289 -0.026525
v -0.041398 0.408320 -0.026993
v -0.041019 0.403098 -0.035689
v -0.041375 0.404374 -0.035940
v -0.041106 0.408291 -0.026888
v -0.041374 0.407260 -0.026420
v -0.041413 0.406896 -0.029015
v -0.041489 0.406611 -0.028881
v -0.041192 0.407121 -0.029091
v -0.041398 0.406341 -0.028726
v -0.040888 0.408128 -0.026735
v -0.041085 0.407374 -0.026392
v -0.040678 0.403174 -0.035784
v -0.041035 0.404451 -0.036035
v -0.041220 0.404259 -0.033206
v -0.041319 0.404575 -0.033315
v -0.040885 0.407225 -0.029089
v -0.041167 0.406159 -0.028590
v -0.040805 0.407875 -0.026574
v -0.040968 0.404027 -0.033141
v -0.041238 0.404891 -0.033439
v -0.040877 0.407599 -0.026448
v -0.040432 0.403411 -0.035900
v -0.041181 0.405838 -0.031171
v -0.041259 0.405539 -0.031038
v -0.040692 0.404346 -0.036084
v -0.040950 0.406065 -0.031264
v -0.040999 0.405122 -0.033545
v -0.041163 0.405248 -0.030900
v -0.040856 0.406114 -0.028511
v -0.040574 0.407180 -0.029009
v -0.040629 0.403941 -0.033138
v -0.040344 0.403746 -0.036006
v -0.040919 0.405042 -0.030793
v -0.040440 0.404088 -0.036073
v -0.040628 0.406158 -0.031291
v -0.040342 0.406998 -0.028874
v -0.040549 0.406218 -0.028509
v -0.040296 0.404025 -0.033197
v -0.040665 0.405206 -0.033604
v -0.040591 0.404978 -0.030747
v -0.040301 0.406094 -0.031245
v -0.040328 0.406442 -0.028585
v -0.040252 0.406728 -0.028718
v -0.040057 0.404256 -0.033303
v -0.040327 0.405120 -0.033601
v -0.040269 0.405071 -0.030774
v -0.040057 0.405888 -0.031139
v -0.039976 0.404572 -0.033427
v -0.040075 0.404888 -0.033536
v -0.039960 0.405597 -0.031000
v -0.040038 0.405298 -0.030867
v -0.041635 0.436828 -0.014966
v -0.041605 0.437276 -0.014704
v -0.041609 0.436809 -0.014928
v -0.041582 0.436121 -0.015363
v -0.041571 0.437266 -0.014688
v -0.041550 0.436097 -0.015316
v -0.041564 0.436800 -0.014906
v -0.041637 0.436852 -0.015010
v -0.041626 0.437291 -0.014734
v -0.041584 0.436151 -0.015416
v -0.041613 0.436875 -0.015049
v -0.041627 0.437307 -0.014770
v -0.041556 0.436181 -0.015462
v -0.041609 0.437320 -0.014803
v -0.041570 0.436889 -0.015071
v -0.041504 0.436202 -0.015487
v -0.041575 0.437326 -0.014823
v -0.041478 0.435194 -0.015902
v -0.041496 0.436088 -0.015289
v -0.041440 0.435167 -0.015847
v -0.041480 0.435230 -0.015965
v -0.041446 0.435267 -0.016018
v -0.041385 0.435293 -0.016047
v -0.041532 0.437264 -0.014691
v -0.041514 0.436803 -0.014906
v -0.041520 0.436893 -0.015071
v -0.041443 0.436209 -0.015486
v -0.041536 0.437324 -0.014825
v -0.041498 0.437271 -0.014711
v -0.041476 0.436883 -0.015049
v -0.041502 0.437315 -0.014809
v -0.041334 0.434117 -0.016632
v -0.041331 0.434075 -0.016560
v -0.041295 0.434159 -0.016693
v -0.041435 0.436094 -0.015287
v -0.041376 0.435156 -0.015814
v -0.041313 0.435302 -0.016045
v -0.041471 0.436818 -0.014928
v -0.041480 0.437284 -0.014743
v -0.041448 0.436840 -0.014966
v -0.041383 0.436115 -0.015313
v -0.041389 0.436199 -0.015458
v -0.041449 0.436864 -0.015011
v -0.041356 0.436176 -0.015411
v -0.041481 0.437300 -0.014779
v -0.041287 0.434044 -0.016496
v -0.041225 0.434190 -0.016726
v -0.041304 0.435165 -0.015812
v -0.041250 0.435291 -0.016011
v -0.041354 0.436145 -0.015358
v -0.041214 0.434032 -0.016458
v -0.041142 0.434200 -0.016723
v -0.041243 0.435191 -0.015841
v -0.041212 0.435264 -0.015956
v -0.041209 0.435227 -0.015894
v -0.041155 0.432839 -0.017395
v -0.041152 0.432791 -0.017313
v -0.041111 0.432886 -0.017464
v -0.041102 0.432756 -0.017241
v -0.041032 0.432921 -0.017501
v -0.041131 0.434043 -0.016455
v -0.041069 0.434189 -0.016685
v -0.041061 0.434073 -0.016488
v -0.041025 0.434157 -0.016621
v -0.041020 0.432743 -0.017197
v -0.040938 0.432933 -0.017498
v -0.041022 0.434115 -0.016549
v -0.041144 0.407120 -0.028128
v -0.040915 0.407858 -0.027109
v -0.041164 0.406976 -0.028007
v -0.040835 0.407737 -0.026990
v -0.041088 0.406833 -0.027908
v -0.041034 0.407226 -0.028242
v -0.040902 0.407978 -0.027254
v -0.040954 0.431423 -0.018229
v -0.040951 0.431371 -0.018137
v -0.040905 0.431476 -0.018306
v -0.040855 0.432920 -0.017454
v -0.040926 0.432756 -0.017193
v -0.040895 0.431332 -0.018056
v -0.040816 0.431514 -0.018348
v -0.040682 0.407646 -0.026929
v -0.040938 0.406727 -0.027861
v -0.040847 0.432790 -0.017231
v -0.040806 0.432885 -0.017381
v -0.040798 0.408063 -0.027386
v -0.040864 0.407264 -0.028316
v -0.040803 0.431318 -0.018007
v -0.040711 0.431528 -0.018344
v -0.040803 0.432838 -0.017300
v -0.040740 0.429900 -0.019110
v -0.040737 0.429842 -0.019009
v -0.040686 0.429956 -0.019196
v -0.040497 0.407610 -0.026941
v -0.040753 0.406689 -0.027876
v -0.040619 0.431514 -0.018295
v -0.040682 0.408858 -0.026407
v -0.040597 0.408760 -0.026273
v -0.040698 0.431332 -0.018003
v -0.040675 0.408951 -0.026568
v -0.040676 0.429801 -0.018918
v -0.040588 0.429998 -0.019243
v -0.040632 0.408092 -0.027469
v -0.040678 0.407226 -0.028331
v -0.040610 0.431370 -0.018045
v -0.040564 0.431475 -0.018214
v -0.040442 0.408685 -0.026201
v -0.040577 0.409016 -0.026713
v -0.040574 0.429785 -0.018864
v -0.040472 0.430013 -0.019239
v -0.040560 0.431423 -0.018122
v -0.040331 0.407639 -0.027025
v -0.040583 0.406727 -0.027950
v -0.040524 0.428295 -0.020015
v -0.040520 0.428234 -0.019903
v -0.040464 0.428356 -0.020110
v -0.040370 0.429998 -0.019184
v -0.040447 0.408056 -0.027482
v -0.040528 0.407120 -0.028283
v -0.040258 0.408653 -0.026211
v -0.040468 0.409956 -0.025868
v -0.040380 0.409881 -0.025724
v -0.040465 0.410027 -0.026040
v -0.040453 0.428189 -0.019804
v -0.040356 0.428400 -0.020162
v -0.040458 0.429800 -0.018860
v -0.040414 0.409035 -0.026802
v -0.040360 0.429842 -0.018907
v -0.040309 0.429956 -0.019094
v -0.040227 0.407724 -0.027156
v -0.040473 0.406833 -0.028063
v -0.040223 0.409821 -0.025646
v -0.040371 0.410074 -0.026192
v -0.040342 0.428172 -0.019744
v -0.040229 0.428416 -0.020158
v -0.040305 0.429899 -0.018993
v -0.040453 0.406976 -0.028185
v -0.040295 0.407965 -0.027420
v -0.040314 0.426637 -0.020920
v -0.040310 0.426573 -0.020797
v -0.040248 0.426701 -0.021024
v -0.040096 0.408671 -0.026301
v -0.040214 0.407844 -0.027301
v -0.040230 0.409003 -0.026813
v -0.040040 0.409792 -0.025655
v -0.040276 0.411138 -0.025462
v -0.040185 0.411080 -0.025313
v -0.040276 0.411190 -0.025638
v -0.040237 0.426525 -0.020689
v -0.040131 0.426748 -0.021082
v -0.040215 0.428187 -0.019740
v -0.040118 0.428399 -0.020098
v -0.040211 0.410084 -0.026285
v -0.040028 0.411033 -0.025231
v -0.040185 0.411222 -0.025794
v -0.039993 0.426764 -0.021078
v -0.040107 0.428232 -0.019792
v -0.040051 0.428354 -0.019999
v -0.040116 0.426507 -0.020624
v -0.039997 0.408736 -0.026445
v -0.040075 0.408928 -0.026741
v -0.040120 0.424956 -0.021800
v -0.040116 0.424889 -0.021666
v -0.040049 0.425022 -0.021914
v -0.040047 0.428293 -0.019887
v -0.040107 0.412384 -0.025156
v -0.040016 0.412341 -0.025005
v -0.040109 0.412423 -0.025334
v -0.039880 0.409803 -0.025748
v -0.039923 0.425069 -0.021978
v -0.039990 0.408830 -0.026607
v -0.040029 0.410056 -0.026293
v -0.039846 0.411009 -0.025238
v -0.040027 0.411227 -0.025889
v -0.040039 0.424838 -0.021549
v -0.039979 0.426523 -0.020620
v -0.039872 0.426746 -0.021013
v -0.039858 0.412304 -0.024921
v -0.040020 0.412446 -0.025492
v -0.039774 0.425085 -0.021974
v -0.039965 0.413680 -0.024920
v -0.039873 0.413646 -0.024768
v -0.039968 0.413710 -0.025098
v -0.039954 0.423278 -0.022632
v -0.039950 0.423209 -0.022487
v -0.039877 0.423345 -0.022757
v -0.039908 0.424818 -0.021479
v -0.039861 0.426569 -0.020678
v -0.039800 0.426698 -0.020905
v -0.039786 0.409850 -0.025900
v -0.039872 0.409996 -0.026215
v -0.039688 0.411013 -0.025332
v -0.039845 0.411202 -0.025896
v -0.039677 0.412284 -0.024927
v -0.039864 0.412447 -0.025586
v -0.039716 0.413617 -0.024684
v -0.039880 0.413728 -0.025255
v -0.039866 0.423157 -0.022360
v -0.039740 0.423392 -0.022827
v -0.039796 0.426633 -0.020782
v -0.039783 0.409920 -0.026071
v -0.039643 0.425065 -0.021904
v -0.039853 0.415009 -0.024722
v -0.039761 0.414981 -0.024571
v -0.039855 0.415035 -0.024899
v -0.039823 0.421632 -0.023393
v -0.039819 0.421566 -0.023234
v -0.039740 0.421695 -0.023529
v -0.039759 0.424834 -0.021475
v -0.039580 0.423407 -0.022824
v -0.039726 0.423136 -0.022285
v -0.039597 0.411046 -0.025488
v -0.039688 0.411155 -0.025814
v -0.039521 0.412285 -0.025021
v -0.039683 0.412427 -0.025592
v -0.039537 0.413601 -0.024689
v -0.039725 0.413729 -0.025349
v -0.039605 0.414957 -0.024486
v -0.039768 0.415052 -0.025055
v -0.039772 0.416354 -0.024531
v -0.039681 0.416327 -0.024381
v -0.039775 0.416381 -0.024707
v -0.039731 0.421515 -0.023096
v -0.039594 0.421738 -0.023607
v -0.039632 0.424882 -0.021539
v -0.039565 0.425015 -0.021787
v -0.039749 0.420372 -0.023865
v -0.039747 0.420319 -0.023700
v -0.039665 0.420422 -0.024008
v -0.039597 0.411098 -0.025665
v -0.039426 0.414945 -0.024490
v -0.039615 0.415055 -0.025147
v -0.039545 0.413713 -0.025354
v -0.039526 0.416307 -0.024296
v -0.039688 0.416400 -0.024861
v -0.039726 0.417698 -0.024318
v -0.039635 0.417670 -0.024169
v -0.039728 0.417730 -0.024491
v -0.039716 0.419026 -0.024050
v -0.039627 0.418992 -0.023904
v -0.039719 0.419066 -0.024220
v -0.039642 0.417756 -0.024643
v -0.039658 0.420277 -0.023557
v -0.039633 0.419102 -0.024369
v -0.039581 0.421493 -0.023015
v -0.039517 0.420455 -0.024090
v -0.039566 0.423151 -0.022282
v -0.039422 0.421751 -0.023606
v -0.039440 0.423386 -0.022749
v -0.039561 0.424948 -0.021653
v -0.039432 0.412308 -0.025179
v -0.039525 0.412390 -0.025508
v -0.039382 0.413602 -0.024782
v -0.039482 0.417652 -0.024085
v -0.039536 0.416407 -0.024952
v -0.039507 0.420257 -0.023475
v -0.039483 0.419124 -0.024455
v -0.039474 0.418974 -0.023821
v -0.039491 0.417769 -0.024732
v -0.039429 0.423198 -0.022352
v -0.039357 0.423334 -0.022622
v -0.039434 0.412347 -0.025357
v -0.039348 0.416300 -0.024300
v -0.039436 0.415043 -0.025152
v -0.039344 0.420462 -0.024091
v -0.039410 0.421506 -0.023014
v -0.039272 0.421729 -0.023525
v -0.039353 0.423265 -0.022477
v -0.039294 0.413620 -0.024939
v -0.039389 0.413684 -0.025269
v -0.039273 0.414948 -0.024583
v -0.039306 0.417649 -0.024088
v -0.039358 0.416399 -0.024956
v -0.039334 0.420265 -0.023475
v -0.039309 0.419126 -0.024457
v -0.039300 0.418976 -0.023823
v -0.039315 0.417766 -0.024735
v -0.039296 0.413650 -0.025117
v -0.039196 0.416307 -0.024391
v -0.039280 0.415019 -0.025067
v -0.039192 0.420442 -0.024009
v -0.039263 0.421549 -0.023092
v -0.039184 0.421678 -0.023387
v -0.039186 0.414965 -0.024738
v -0.039154 0.417662 -0.024177
v -0.039203 0.416380 -0.024871
v -0.039185 0.420298 -0.023558
v -0.039156 0.419108 -0.024374
v -0.039180 0.421612 -0.023229
v -0.039188 0.414991 -0.024916
v -0.039150 0.418998 -0.023909
v -0.039161 0.417748 -0.024651
v -0.039110 0.416326 -0.024545
v -0.039104 0.420400 -0.023866
v -0.039112 0.416353 -0.024721
v -0.039068 0.417688 -0.024329
v -0.039101 0.420347 -0.023701
v -0.039067 0.419074 -0.024228
v -0.039064 0.419034 -0.024058
v -0.039071 0.417719 -0.024502
v -0.058086 0.427064 -0.000251
v -0.058419 0.427657 0.000110
v -0.058083 0.427056 -0.000234
v -0.058081 0.427075 -0.000265
v -0.058072 0.427053 -0.000219
v -0.058056 0.427057 -0.000210
v -0.058068 0.427087 -0.000272
v -0.058052 0.427096 -0.000271
v -0.058039 0.427066 -0.000209
v -0.058036 0.427099 -0.000262
v -0.058027 0.427078 -0.000216
v -0.058021 0.427089 -0.000230
v -0.058025 0.427097 -0.000247
v -0.057772 0.426434 -0.000617
v -0.057763 0.426451 -0.000639
v -0.057767 0.426422 -0.000592
v -0.057750 0.426418 -0.000570
v -0.057744 0.426467 -0.000650
v -0.057719 0.426479 -0.000650
v -0.057725 0.426422 -0.000557
v -0.057694 0.426484 -0.000636
v -0.057700 0.426435 -0.000556
v -0.057681 0.426451 -0.000568
v -0.057677 0.426480 -0.000614
v -0.057672 0.426468 -0.000589
v -0.057481 0.425781 -0.000998
v -0.057474 0.425764 -0.000965
v -0.057470 0.425803 -0.001026
v -0.057444 0.425824 -0.001042
v -0.057451 0.425758 -0.000936
v -0.057409 0.425840 -0.001041
v -0.057418 0.425763 -0.000919
v -0.057376 0.425845 -0.001024
v -0.057384 0.425779 -0.000918
v -0.057353 0.425839 -0.000995
v -0.057358 0.425800 -0.000934
v -0.057346 0.425822 -0.000962
v -0.057203 0.425124 -0.001393
v -0.057195 0.425103 -0.001352
v -0.057190 0.425152 -0.001428
v -0.057157 0.425179 -0.001448
v -0.057165 0.425094 -0.001316
v -0.057114 0.425199 -0.001447
v -0.057124 0.425100 -0.001295
v -0.057073 0.425204 -0.001426
v -0.057081 0.425119 -0.001295
v -0.057044 0.425196 -0.001391
v -0.057048 0.425146 -0.001315
v -0.057035 0.425174 -0.001350
v -0.056929 0.424485 -0.001804
v -0.056918 0.424458 -0.001756
v -0.056914 0.424520 -0.001845
v -0.056875 0.424554 -0.001868
v -0.056882 0.424446 -0.001714
v -0.056824 0.424577 -0.001867
v -0.056832 0.424453 -0.001689
v -0.056774 0.424584 -0.001842
v -0.056781 0.424477 -0.001688
v -0.056739 0.424573 -0.001800
v -0.056743 0.424511 -0.001711
v -0.056727 0.424546 -0.001752
v -0.056648 0.423882 -0.002233
v -0.056634 0.423848 -0.002179
v -0.056631 0.423926 -0.002279
v -0.056588 0.423969 -0.002304
v -0.056592 0.423834 -0.002130
v -0.056529 0.423998 -0.002301
v -0.056534 0.423843 -0.002100
v -0.056471 0.424007 -0.002271
v -0.056475 0.423872 -0.002098
v -0.056429 0.423993 -0.002223
v -0.056432 0.423915 -0.002122
v -0.056415 0.423959 -0.002168
v -0.056349 0.423338 -0.002681
v -0.056333 0.423393 -0.002730
v -0.056331 0.423296 -0.002622
v -0.056286 0.423446 -0.002754
v -0.056282 0.423278 -0.002567
v -0.056221 0.423483 -0.002748
v -0.056217 0.423289 -0.002532
v -0.056155 0.423495 -0.002713
v -0.056152 0.423327 -0.002526
v -0.056107 0.423477 -0.002658
v -0.056105 0.423380 -0.002551
v -0.056089 0.423435 -0.002599
v -0.056022 0.422871 -0.003151
v -0.056008 0.422940 -0.003199
v -0.055998 0.422820 -0.003089
v -0.055960 0.423006 -0.003220
v -0.055942 0.422799 -0.003029
v -0.055891 0.423053 -0.003208
v -0.055870 0.422814 -0.002987
v -0.055819 0.423068 -0.003166
v -0.055801 0.422861 -0.002974
v -0.055764 0.423047 -0.003106
v -0.055754 0.422928 -0.002995
v -0.055740 0.422996 -0.003043
v -0.055654 0.422505 -0.003646
v -0.055646 0.422588 -0.003689
v -0.055622 0.422443 -0.003583
v -0.055602 0.422670 -0.003701
v -0.055532 0.422729 -0.003679
v -0.055559 0.422419 -0.003517
v -0.055456 0.422749 -0.003628
v -0.055483 0.422439 -0.003467
v -0.055393 0.422724 -0.003563
v -0.055413 0.422497 -0.003444
v -0.055368 0.422579 -0.003456
v -0.055361 0.422662 -0.003500
v -0.055238 0.422361 -0.004200
v -0.055234 0.422263 -0.004166
v -0.055202 0.422457 -0.004198
v -0.055191 0.422191 -0.004106
v -0.055136 0.422527 -0.004161
v -0.055121 0.422163 -0.004036
v -0.055057 0.422552 -0.004099
v -0.055042 0.422188 -0.003974
v -0.054987 0.422525 -0.004028
v -0.054976 0.422258 -0.003937
v -0.054944 0.422452 -0.003968
v -0.054940 0.422355 -0.003935
v -0.054776 0.422279 -0.004729
v -0.054762 0.422170 -0.004703
v -0.054746 0.422387 -0.004716
v -0.054682 0.422465 -0.004667
v -0.054709 0.422090 -0.004644
v -0.054599 0.422493 -0.004595
v -0.054631 0.422060 -0.004568
v -0.054521 0.422463 -0.004520
v -0.054549 0.422088 -0.004496
v -0.054469 0.422383 -0.004461
v -0.054484 0.422166 -0.004447
v -0.054455 0.422274 -0.004434
v -0.053594 0.422148 -0.006036
v -0.053584 0.422035 -0.006003
v -0.053557 0.422259 -0.006029
v -0.053485 0.422340 -0.005984
v -0.053531 0.421952 -0.005940
v -0.053396 0.422368 -0.005913
v -0.053449 0.421920 -0.005862
v -0.053313 0.422336 -0.005836
v -0.053360 0.421949 -0.005792
v -0.053260 0.422253 -0.005772
v -0.053287 0.422029 -0.005747
v -0.053251 0.422140 -0.005740
v -0.052702 0.421782 -0.007157
v -0.052704 0.421670 -0.007108
v -0.052649 0.421891 -0.007168
v -0.052561 0.421970 -0.007137
v -0.052656 0.421586 -0.007034
v -0.052460 0.421995 -0.007074
v -0.052569 0.421553 -0.006954
v -0.052374 0.421962 -0.006994
v -0.052469 0.421579 -0.006890
v -0.052325 0.421878 -0.006920
v -0.052380 0.421657 -0.006860
v -0.052328 0.421767 -0.006871
v -0.052034 0.421208 -0.008144
v -0.052047 0.421102 -0.008076
v -0.051966 0.421311 -0.008174
v -0.052003 0.421020 -0.007990
v -0.051863 0.421382 -0.008159
v -0.051913 0.420985 -0.007908
v -0.051751 0.421403 -0.008103
v -0.051801 0.421006 -0.007853
v -0.051661 0.421368 -0.008021
v -0.051698 0.421077 -0.007838
v -0.051617 0.421287 -0.007935
v -0.051630 0.421180 -0.007868
v -0.051527 0.420453 -0.009043
v -0.051549 0.420354 -0.008960
v -0.051448 0.420546 -0.009090
v -0.051508 0.420275 -0.008863
v -0.051333 0.420609 -0.009089
v -0.051414 0.420238 -0.008779
v -0.051212 0.420624 -0.009039
v -0.051294 0.420253 -0.008729
v -0.051119 0.420588 -0.008954
v -0.051178 0.420316 -0.008727
v -0.051077 0.420509 -0.008858
v -0.051099 0.420410 -0.008775
v -0.051122 0.419540 -0.009902
v -0.051149 0.419446 -0.009808
v -0.051035 0.419627 -0.009961
v -0.051109 0.419370 -0.009702
v -0.050911 0.419683 -0.009968
v -0.051012 0.419332 -0.009615
v -0.050784 0.419693 -0.009921
v -0.050884 0.419343 -0.009568
v -0.050687 0.419655 -0.009834
v -0.050761 0.419399 -0.009575
v -0.050787 0.418404 -0.010665
v -0.050757 0.418496 -0.010766
v -0.050746 0.418328 -0.010553
v -0.050666 0.418580 -0.010831
v -0.050674 0.419485 -0.009634
v -0.050647 0.419579 -0.009729
v -0.050536 0.418634 -0.010842
v -0.050646 0.418289 -0.010462
v -0.050404 0.418643 -0.010796
v -0.050514 0.418298 -0.010416
v -0.050404 0.417252 -0.011575
v -0.050373 0.417347 -0.011681
v -0.050304 0.418604 -0.010705
v -0.050362 0.417174 -0.011460
v -0.050279 0.417435 -0.011747
v -0.050384 0.418352 -0.010426
v -0.050263 0.418529 -0.010593
v -0.050145 0.417492 -0.011757
v -0.050293 0.418436 -0.010491
v -0.050259 0.417135 -0.011365
v -0.050009 0.417502 -0.011709
v -0.050123 0.417145 -0.011316
v -0.049909 0.416122 -0.012690
v -0.049939 0.416019 -0.012585
v -0.049906 0.417463 -0.011614
v -0.049989 0.417202 -0.011327
v -0.049814 0.416218 -0.012754
v -0.049895 0.415937 -0.012467
v -0.049864 0.417385 -0.011498
v -0.049895 0.417289 -0.011393
v -0.049678 0.416282 -0.012760
v -0.049789 0.415898 -0.012368
v -0.049539 0.416296 -0.012706
v -0.049650 0.415912 -0.012315
v -0.049433 0.416257 -0.012608
v -0.049514 0.415976 -0.012321
v -0.049304 0.414848 -0.013838
v -0.049331 0.414735 -0.013736
v -0.049210 0.414956 -0.013897
v -0.049389 0.416175 -0.012490
v -0.049285 0.414647 -0.013618
v -0.049419 0.416072 -0.012385
v -0.049074 0.415030 -0.013896
v -0.049176 0.414608 -0.013515
v -0.048933 0.415050 -0.013836
v -0.049035 0.414629 -0.013455
v -0.048824 0.415011 -0.013732
v -0.048899 0.414702 -0.013454
v -0.048778 0.414923 -0.013614
v -0.048805 0.414810 -0.013512
v -0.048497 0.413555 -0.015172
v -0.048520 0.413430 -0.015075
v -0.048406 0.413676 -0.015222
v -0.048469 0.413336 -0.014957
v -0.048272 0.413761 -0.015211
v -0.048358 0.413297 -0.014850
v -0.048131 0.413788 -0.015143
v -0.048217 0.413324 -0.014782
v -0.048020 0.413749 -0.015035
v -0.048083 0.413409 -0.014771
v -0.047969 0.413655 -0.014917
v -0.047992 0.413530 -0.014821
v -0.047427 0.412270 -0.016735
v -0.047445 0.412134 -0.016645
v -0.047342 0.412404 -0.016774
v -0.047389 0.412032 -0.016528
v -0.047212 0.412501 -0.016752
v -0.047276 0.411993 -0.016417
v -0.047071 0.412535 -0.016675
v -0.047135 0.412027 -0.016339
v -0.046958 0.412495 -0.016563
v -0.047005 0.412124 -0.016317
v -0.046902 0.412394 -0.016447
v -0.046919 0.412258 -0.016357
v -0.046035 0.411021 -0.018572
v -0.046045 0.410874 -0.018490
v -0.045957 0.411168 -0.018600
v -0.045984 0.410767 -0.018375
v -0.045832 0.411275 -0.018566
v -0.045869 0.410727 -0.018258
v -0.045693 0.411314 -0.018479
v -0.045729 0.410767 -0.018172
v -0.045577 0.411275 -0.018363
v -0.045604 0.410874 -0.018138
v -0.045516 0.411168 -0.018248
v -0.045526 0.411021 -0.018166
v -0.078812 0.418429 0.007370
v -0.079494 0.419520 0.007743
v -0.079499 0.419511 0.007761
v -0.078796 0.418443 0.007357
v -0.079482 0.419532 0.007733
v -0.078818 0.418418 0.007392
v -0.079495 0.419507 0.007781
v -0.078814 0.418413 0.007416
v -0.079483 0.419508 0.007797
v -0.078799 0.418416 0.007436
v -0.079466 0.419516 0.007806
v -0.078775 0.418457 0.007356
v -0.079464 0.419544 0.007732
v -0.078779 0.418425 0.007447
v -0.079449 0.419527 0.007805
v -0.078755 0.418466 0.007367
v -0.079447 0.419551 0.007740
v -0.078758 0.418439 0.007446
v -0.079436 0.419539 0.007794
v -0.078740 0.418469 0.007387
v -0.079435 0.419553 0.007757
v -0.078736 0.418464 0.007411
v -0.079431 0.419549 0.007777
v -0.078742 0.418453 0.007432
v -0.078200 0.417427 0.007081
v -0.078192 0.417440 0.007055
v -0.078194 0.417422 0.007109
v -0.078173 0.417456 0.007040
v -0.078178 0.417425 0.007133
v -0.078149 0.417473 0.007038
v -0.078154 0.417437 0.007146
v -0.078125 0.417484 0.007051
v -0.078129 0.417453 0.007144
v -0.078108 0.417488 0.007075
v -0.078111 0.417470 0.007129
v -0.078103 0.417482 0.007104
v -0.077618 0.416532 0.006812
v -0.077609 0.416547 0.006783
v -0.077612 0.416526 0.006845
v -0.077593 0.416531 0.006873
v -0.077588 0.416566 0.006765
v -0.077560 0.416586 0.006764
v -0.077566 0.416545 0.006888
v -0.077534 0.416600 0.006779
v -0.077539 0.416564 0.006886
v -0.077515 0.416605 0.006807
v -0.077518 0.416584 0.006869
v -0.077509 0.416599 0.006839
v -0.077047 0.415727 0.006571
v -0.077038 0.415745 0.006538
v -0.077040 0.415721 0.006608
v -0.077015 0.415768 0.006518
v -0.077020 0.415727 0.006639
v -0.076985 0.415792 0.006517
v -0.076990 0.415744 0.006657
v -0.076956 0.415809 0.006534
v -0.076960 0.415768 0.006655
v -0.076935 0.415815 0.006566
v -0.076938 0.415792 0.006636
v -0.076928 0.415809 0.006603
v -0.076462 0.415007 0.006340
v -0.076453 0.415028 0.006304
v -0.076455 0.415000 0.006381
v -0.076429 0.415057 0.006282
v -0.076432 0.415008 0.006416
v -0.076398 0.415085 0.006282
v -0.076401 0.415029 0.006437
v -0.076367 0.415107 0.006302
v -0.076370 0.415058 0.006436
v -0.076345 0.415115 0.006338
v -0.076346 0.415087 0.006415
v -0.076337 0.415107 0.006379
v -0.075837 0.414367 0.006104
v -0.075829 0.414392 0.006065
v -0.075829 0.414358 0.006149
v -0.075806 0.414427 0.006043
v -0.075805 0.414368 0.006189
v -0.075775 0.414461 0.006043
v -0.075773 0.414394 0.006212
v -0.075743 0.414487 0.006066
v -0.075742 0.414429 0.006212
v -0.075720 0.414497 0.006106
v -0.075719 0.414463 0.006190
v -0.075711 0.414488 0.006151
v -0.075148 0.413802 0.005847
v -0.075142 0.413831 0.005806
v -0.075137 0.413791 0.005897
v -0.075121 0.413873 0.005783
v -0.075113 0.413803 0.005940
v -0.075091 0.413914 0.005785
v -0.075081 0.413834 0.005967
v -0.075059 0.413945 0.005812
v -0.075051 0.413875 0.005969
v -0.075035 0.413957 0.005855
v -0.075030 0.413916 0.005946
v -0.075024 0.413946 0.005905
v -0.074369 0.413307 0.005555
v -0.074356 0.413295 0.005608
v -0.074366 0.413341 0.005511
v -0.074349 0.413389 0.005488
v -0.074330 0.413308 0.005656
v -0.074321 0.413438 0.005493
v -0.074300 0.413344 0.005686
v -0.074290 0.413473 0.005523
v -0.074272 0.413392 0.005690
v -0.074254 0.413440 0.005667
v -0.074265 0.413487 0.005570
v -0.074252 0.413474 0.005623
v -0.073476 0.412878 0.005211
v -0.073460 0.412864 0.005267
v -0.073478 0.412917 0.005165
v -0.073465 0.412971 0.005143
v -0.073440 0.413026 0.005149
v -0.073434 0.412879 0.005319
v -0.073410 0.413066 0.005183
v -0.073405 0.412919 0.005353
v -0.073384 0.413081 0.005235
v -0.073380 0.412973 0.005359
v -0.073368 0.413067 0.005291
v -0.073366 0.413028 0.005337
v -0.072452 0.412553 0.004752
v -0.072446 0.412510 0.004800
v -0.072443 0.412613 0.004730
v -0.072427 0.412494 0.004859
v -0.072421 0.412674 0.004739
v -0.072400 0.412510 0.004915
v -0.072393 0.412718 0.004777
v -0.072371 0.412555 0.004953
v -0.072365 0.412734 0.004833
v -0.072349 0.412615 0.004962
v -0.072346 0.412718 0.004893
v -0.072340 0.412675 0.004940
v -0.071264 0.412245 0.004258
v -0.071255 0.412197 0.004306
v -0.071259 0.412310 0.004236
v -0.071240 0.412375 0.004247
v -0.071232 0.412179 0.004369
v -0.071212 0.412423 0.004288
v -0.071203 0.412197 0.004429
v -0.071183 0.412441 0.004348
v -0.071175 0.412245 0.004471
v -0.071161 0.412423 0.004411
v -0.071156 0.412310 0.004482
v -0.071151 0.412376 0.004460
v -0.069889 0.411985 0.003665
v -0.069876 0.411934 0.003715
v -0.069888 0.412055 0.003643
v -0.069871 0.412125 0.003657
v -0.069850 0.411915 0.003781
v -0.069844 0.412177 0.003701
v -0.069819 0.411934 0.003845
v -0.069813 0.412196 0.003765
v -0.069792 0.411985 0.003890
v -0.069787 0.412177 0.003831
v -0.069775 0.412055 0.003903
v -0.069773 0.412125 0.003882
usemtl Inferior_medial_genicular_vein_rMaterial0
f 1 2 3
f 4 5 2
f 4 2 1
f 6 3 7
f 1 3 6
f 8 7 9
f 6 7 8
f 10 9 11
f 8 9 10
f 12 11 13
f 10 11 12
f 14 15 5
f 14 5 4
f 16 13 17
f 12 13 16
f 18 19 15
f 18 15 14
f 20 21 19
f 20 19 18
f 22 23 21
f 22 21 20
f 24 17 23
f 24 23 22
f 16 17 24
f 25 6 8
f 26 1 6
f 26 6 25
f 27 8 10
f 25 8 27
f 28 10 12
f 27 10 28
f 29 4 1
f 29 1 26
f 30 12 16
f 28 12 30
f 31 14 4
f 31 4 29
f 32 16 24
f 30 16 32
f 33 18 14
f 33 14 31
f 34 20 18
f 34 18 33
f 35 22 20
f 35 20 34
f 36 24 22
f 36 22 35
f 32 24 36
f 37 25 27
f 38 26 25
f 38 25 37
f 39 27 28
f 37 27 39
f 40 28 30
f 39 28 40
f 41 29 26
f 41 26 38
f 42 30 32
f 40 30 42
f 43 31 29
f 43 29 41
f 44 32 36
f 42 32 44
f 45 33 31
f 45 31 43
f 46 36 35
f 44 36 46
f 47 34 33
f 47 33 45
f 48 35 34
f 48 34 47
f 46 35 48
f 49 38 37
f 50 41 38
f 50 38 49
f 51 37 39
f 49 37 51
f 52 39 40
f 51 39 52
f 53 40 42
f 52 40 53
f 54 42 44
f 53 42 54
f 55 43 41
f 55 41 50
f 56 44 46
f 54 44 56
f 57 45 43
f 57 43 55
f 58 47 45
f 58 45 57
f 59 48 47
f 59 47 58
f 60 46 48
f 60 48 59
f 56 46 60
f 61 49 51
f 62 50 49
f 62 49 61
f 63 51 52
f 61 51 63
f 64 52 53
f 63 52 64
f 65 55 50
f 65 50 62
f 66 53 54
f 64 53 66
f 67 57 55
f 67 55 65
f 68 54 56
f 66 54 68
f 69 58 57
f 69 57 67
f 70 56 60
f 68 56 70
f 71 59 58
f 71 58 69
f 72 60 59
f 72 59 71
f 70 60 72
f 73 63 64
f 74 61 63
f 74 63 73
f 75 64 66
f 73 64 75
f 76 66 68
f 75 66 76
f 77 68 70
f 76 68 77
f 78 62 61
f 78 61 74
f 79 70 72
f 77 70 79
f 80 65 62
f 80 62 78
f 81 67 65
f 81 65 80
f 82 69 67
f 82 67 81
f 83 71 69
f 83 69 82
f 84 72 71
f 84 71 83
f 79 72 84
f 85 74 73
f 86 78 74
f 86 74 85
f 87 73 75
f 85 73 87
f 88 75 76
f 87 75 88
f 89 80 78
f 89 78 86
f 90 76 77
f 88 76 90
f 91 81 80
f 91 80 89
f 92 77 79
f 90 77 92
f 93 82 81
f 93 81 91
f 94 79 84
f 92 79 94
f 95 83 82
f 95 82 93
f 96 84 83
f 96 83 95
f 94 84 96
f 97 85 87
f 98 87 88
f 97 87 98
f 99 86 85
f 99 85 97
f 100 88 90
f 98 88 100
f 101 89 86
f 101 86 99
f 102 90 92
f 100 90 102
f 103 91 89
f 103 89 101
f 104 92 94
f 102 92 104
f 105 93 91
f 105 91 103
f 106 94 96
f 104 94 106
f 107 95 93
f 107 93 105
f 108 96 95
f 108 95 107
f 106 96 108
f 109 97 98
f 110 99 97
f 110 97 109
f 111 98 100
f 109 98 111
f 112 100 102
f 111 100 112
f 113 101 99
f 113 99 110
f 114 102 104
f 112 102 114
f 115 103 101
f 115 101 113
f 116 104 106
f 114 104 116
f 117 105 103
f 117 103 115
f 118 106 108
f 116 106 118
f 119 107 105
f 119 105 117
f 120 108 107
f 118 108 120
f 120 107 119
f 121 122 123
f 123 124 125
f 123 122 124
f 126 127 121
f 121 127 122
f 125 128 129
f 125 124 128
f 130 131 126
f 126 131 127
f 132 109 111
f 133 111 112
f 132 111 133
f 134 110 109
f 134 109 132
f 135 112 114
f 133 112 135
f 136 113 110
f 136 110 134
f 137 114 116
f 135 114 137
f 138 115 113
f 138 113 136
f 139 116 118
f 137 116 139
f 140 117 115
f 140 115 138
f 141 118 120
f 139 118 141
f 142 119 117
f 142 117 140
f 143 120 119
f 141 120 143
f 143 119 142
f 129 144 145
f 129 128 144
f 146 147 130
f 130 147 131
f 145 148 149
f 145 144 148
f 150 151 146
f 146 151 147
f 149 152 153
f 149 148 152
f 127 154 122
f 122 155 124
f 122 154 155
f 131 156 127
f 127 156 154
f 124 157 128
f 124 155 157
f 158 159 150
f 150 159 151
f 153 160 158
f 153 152 160
f 147 161 131
f 131 161 156
f 158 160 159
f 162 132 133
f 163 134 132
f 163 132 162
f 164 133 135
f 162 133 164
f 165 135 137
f 164 135 165
f 166 136 134
f 166 134 163
f 167 137 139
f 165 137 167
f 168 138 136
f 168 136 166
f 169 139 141
f 167 139 169
f 170 140 138
f 170 138 168
f 171 141 143
f 169 141 171
f 172 142 140
f 172 140 170
f 173 143 142
f 171 143 173
f 173 142 172
f 128 174 144
f 128 157 174
f 151 175 147
f 147 175 161
f 144 176 148
f 144 174 176
f 159 177 151
f 151 177 175
f 148 178 152
f 148 176 178
f 160 179 159
f 159 179 177
f 152 180 160
f 152 178 180
f 160 180 179
f 156 181 154
f 154 182 155
f 154 181 182
f 183 168 166
f 184 166 163
f 183 166 184
f 185 170 168
f 185 168 183
f 186 172 170
f 186 170 185
f 187 173 172
f 187 172 186
f 188 163 162
f 184 163 188
f 189 171 173
f 189 173 187
f 190 162 164
f 188 162 190
f 191 164 165
f 190 164 191
f 192 165 167
f 191 165 192
f 193 167 169
f 192 167 193
f 194 169 171
f 193 169 194
f 194 171 189
f 161 195 156
f 156 195 181
f 155 196 157
f 155 182 196
f 175 197 161
f 161 197 195
f 157 198 174
f 157 196 198
f 177 199 175
f 175 199 197
f 174 200 176
f 174 198 200
f 179 201 177
f 177 201 199
f 176 202 178
f 176 200 202
f 180 203 179
f 179 203 201
f 178 204 180
f 178 202 204
f 180 204 203
f 205 183 184
f 206 184 188
f 205 184 206
f 207 185 183
f 207 183 205
f 208 186 185
f 208 185 207
f 209 187 186
f 209 186 208
f 210 188 190
f 211 190 191
f 210 190 211
f 206 188 210
f 212 189 187
f 213 194 189
f 213 189 212
f 212 187 209
f 214 191 192
f 211 191 214
f 215 192 193
f 214 192 215
f 216 193 194
f 215 193 216
f 216 194 213
f 195 217 181
f 181 218 182
f 181 217 218
f 197 219 195
f 195 219 217
f 182 220 196
f 182 218 220
f 199 221 197
f 197 221 219
f 196 222 198
f 196 220 222
f 201 223 199
f 199 223 221
f 198 224 200
f 198 222 224
f 203 225 201
f 201 225 223
f 226 205 206
f 227 206 210
f 226 206 227
f 228 207 205
f 228 205 226
f 229 208 207
f 229 207 228
f 230 209 208
f 230 208 229
f 231 211 214
f 232 214 215
f 231 214 232
f 233 210 211
f 233 211 231
f 234 215 216
f 232 215 234
f 227 210 233
f 235 216 213
f 234 216 235
f 236 213 212
f 235 213 236
f 237 212 209
f 236 212 237
f 237 209 230
f 200 238 202
f 200 224 238
f 204 239 203
f 203 239 225
f 202 240 204
f 202 238 240
f 204 240 239
f 241 226 227
f 242 227 233
f 241 227 242
f 243 228 226
f 243 226 241
f 244 229 228
f 244 228 243
f 245 230 229
f 245 229 244
f 246 233 231
f 242 233 246
f 247 237 230
f 247 230 245
f 248 231 232
f 246 231 248
f 249 236 237
f 249 237 247
f 250 232 234
f 248 232 250
f 251 234 235
f 250 234 251
f 252 235 236
f 251 235 252
f 252 236 249
f 219 253 217
f 221 254 219
f 219 254 253
f 217 255 218
f 217 253 255
f 223 256 221
f 221 256 254
f 218 257 220
f 218 255 257
f 225 258 223
f 223 258 256
f 220 259 222
f 220 257 259
f 239 260 225
f 225 260 258
f 222 261 224
f 222 259 261
f 240 262 239
f 239 262 260
f 224 263 238
f 224 261 263
f 238 264 240
f 240 264 262
f 238 263 264
f 265 241 242
f 266 242 246
f 265 242 266
f 267 243 241
f 267 241 265
f 268 244 243
f 268 243 267
f 269 245 244
f 269 244 268
f 270 246 248
f 266 246 270
f 271 247 245
f 271 245 269
f 272 248 250
f 270 248 272
f 273 249 247
f 273 247 271
f 274 250 251
f 272 250 274
f 275 251 252
f 274 251 275
f 276 252 249
f 275 252 276
f 276 249 273
f 277 267 265
f 278 265 266
f 277 265 278
f 279 268 267
f 279 267 277
f 280 266 270
f 278 266 280
f 281 269 268
f 281 268 279
f 282 270 272
f 280 270 282
f 283 271 269
f 283 269 281
f 284 272 274
f 282 272 284
f 285 273 271
f 285 271 283
f 286 274 275
f 284 274 286
f 287 275 276
f 286 275 287
f 288 276 273
f 287 276 288
f 288 273 285
f 256 289 254
f 258 290 256
f 256 290 289
f 254 291 253
f 254 289 291
f 260 292 258
f 258 292 290
f 253 293 255
f 253 291 293
f 262 294 260
f 260 294 292
f 255 295 257
f 255 293 295
f 264 296 262
f 262 296 294
f 257 297 259
f 257 295 297
f 263 298 264
f 264 298 296
f 259 299 261
f 259 297 299
f 261 300 263
f 263 300 298
f 261 299 300
f 301 278 280
f 302 280 282
f 301 280 302
f 303 277 278
f 303 278 301
f 304 279 277
f 304 277 303
f 305 281 279
f 305 279 304
f 306 282 284
f 302 282 306
f 307 283 281
f 307 281 305
f 308 284 286
f 306 284 308
f 309 285 283
f 309 283 307
f 310 286 287
f 308 286 310
f 311 287 288
f 310 287 311
f 312 288 285
f 311 288 312
f 312 285 309
f 313 301 302
f 314 303 301
f 314 301 313
f 315 302 306
f 313 302 315
f 316 304 303
f 316 303 314
f 317 306 308
f 315 306 317
f 318 305 304
f 318 304 316
f 319 307 305
f 319 305 318
f 320 308 310
f 317 308 320
f 321 310 311
f 320 310 321
f 322 309 307
f 322 307 319
f 323 311 312
f 321 311 323
f 324 312 309
f 324 309 322
f 323 312 324
f 292 325 290
f 290 326 289
f 290 325 326
f 294 327 292
f 292 327 325
f 289 328 291
f 289 326 328
f 296 329 294
f 294 329 327
f 291 330 293
f 291 328 330
f 298 331 296
f 296 331 329
f 293 332 295
f 293 330 332
f 300 333 298
f 298 333 331
f 295 334 297
f 295 332 334
f 299 335 300
f 300 335 333
f 297 336 299
f 297 334 336
f 299 336 335
f 337 313 315
f 338 314 313
f 338 313 337
f 339 315 317
f 337 315 339
f 340 316 314
f 340 314 338
f 341 317 320
f 339 317 341
f 342 318 316
f 342 316 340
f 343 320 321
f 341 320 343
f 344 319 318
f 344 318 342
f 345 321 323
f 343 321 345
f 346 322 319
f 346 319 344
f 347 323 324
f 345 323 347
f 348 324 322
f 348 322 346
f 347 324 348
f 349 337 339
f 350 338 337
f 350 337 349
f 351 339 341
f 349 339 351
f 352 340 338
f 352 338 350
f 353 341 343
f 351 341 353
f 354 342 340
f 354 340 352
f 355 343 345
f 353 343 355
f 356 344 342
f 356 342 354
f 357 345 347
f 355 345 357
f 358 346 344
f 358 344 356
f 359 347 348
f 357 347 359
f 360 348 346
f 360 346 358
f 359 348 360
f 327 361 325
f 329 362 327
f 327 362 361
f 325 363 326
f 325 361 363
f 331 364 329
f 329 364 362
f 326 365 328
f 326 363 365
f 333 366 331
f 331 366 364
f 328 367 330
f 328 365 367
f 335 368 333
f 333 368 366
f 369 349 351
f 370 350 349
f 370 349 369
f 371 351 353
f 369 351 371
f 372 352 350
f 372 350 370
f 330 373 332
f 330 367 373
f 374 353 355
f 371 353 374
f 336 375 335
f 335 375 368
f 376 354 352
f 376 352 372
f 332 377 334
f 332 373 377
f 378 355 357
f 374 355 378
f 334 379 336
f 336 379 375
f 380 356 354
f 380 354 376
f 334 377 379
f 381 357 359
f 378 357 381
f 382 358 356
f 382 356 380
f 383 359 360
f 381 359 383
f 384 360 358
f 384 358 382
f 383 360 384
f 385 369 371
f 386 370 369
f 386 369 385
f 387 371 374
f 385 371 387
f 388 372 370
f 388 370 386
f 389 374 378
f 387 374 389
f 390 376 372
f 390 372 388
f 391 378 381
f 389 378 391
f 392 380 376
f 392 376 390
f 393 381 383
f 391 381 393
f 394 382 380
f 394 380 392
f 395 383 384
f 393 383 395
f 396 384 382
f 396 382 394
f 395 384 396
f 397 385 387
f 398 386 385
f 398 385 397
f 399 387 389
f 397 387 399
f 400 388 386
f 400 386 398
f 401 389 391
f 399 389 401
f 402 390 388
f 402 388 400
f 362 403 361
f 364 404 362
f 362 404 403
f 405 391 393
f 401 391 405
f 361 406 363
f 361 403 406
f 366 407 364
f 364 407 404
f 408 392 390
f 408 390 402
f 363 409 365
f 363 406 409
f 410 393 395
f 405 393 410
f 368 411 366
f 366 411 407
f 412 394 392
f 412 392 408
f 413 395 396
f 410 395 413
f 414 396 394
f 414 394 412
f 413 396 414
f 365 415 367
f 365 409 415
f 375 416 368
f 368 416 411
f 367 417 373
f 367 415 417
f 379 418 375
f 375 418 416
f 373 419 377
f 373 417 419
f 377 420 379
f 379 420 418
f 377 419 420
f 421 397 399
f 422 398 397
f 422 397 421
f 423 399 401
f 421 399 423
f 424 400 398
f 424 398 422
f 425 401 405
f 423 401 425
f 426 402 400
f 426 400 424
f 427 405 410
f 425 405 427
f 428 408 402
f 428 402 426
f 429 410 413
f 427 410 429
f 430 412 408
f 430 408 428
f 431 413 414
f 429 413 431
f 432 414 412
f 432 412 430
f 431 414 432
f 433 421 423
f 434 422 421
f 434 421 433
f 435 423 425
f 433 423 435
f 436 424 422
f 436 422 434
f 437 425 427
f 435 425 437
f 438 426 424
f 438 424 436
f 439 427 429
f 437 427 439
f 440 428 426
f 440 426 438
f 441 429 431
f 439 429 441
f 442 430 428
f 442 428 440
f 443 431 432
f 441 431 443
f 444 432 430
f 444 430 442
f 443 432 444
f 445 433 435
f 446 434 433
f 446 433 445
f 447 435 437
f 445 435 447
f 448 436 434
f 448 434 446
f 449 437 439
f 447 437 449
f 450 438 436
f 450 436 448
f 451 439 441
f 449 439 451
f 452 440 438
f 452 438 450
f 453 441 443
f 451 441 453
f 454 442 440
f 454 440 452
f 455 443 444
f 453 443 455
f 456 444 442
f 456 442 454
f 455 444 456
f 457 445 447
f 458 446 445
f 458 445 457
f 459 447 449
f 457 447 459
f 460 448 446
f 460 446 458
f 461 449 451
f 459 449 461
f 462 450 448
f 462 448 460
f 463 451 453
f 461 451 463
f 464 452 450
f 464 450 462
f 404 465 403
f 407 466 404
f 404 466 465
f 403 467 406
f 403 465 467
f 468 453 455
f 463 453 468
f 469 454 452
f 469 452 464
f 411 470 407
f 407 470 466
f 406 471 409
f 406 467 471
f 472 455 456
f 468 455 472
f 473 456 454
f 473 454 469
f 472 456 473
f 416 474 411
f 411 474 470
f 475 457 459
f 476 458 457
f 476 457 475
f 477 459 461
f 475 459 477
f 478 460 458
f 478 458 476
f 409 479 415
f 409 471 479
f 480 461 463
f 477 461 480
f 481 462 460
f 481 460 478
f 418 482 416
f 416 482 474
f 483 463 468
f 480 463 483
f 484 464 462
f 484 462 481
f 415 485 417
f 415 479 485
f 420 486 418
f 418 486 482
f 487 468 472
f 483 468 487
f 488 469 464
f 488 464 484
f 417 489 419
f 417 485 489
f 490 472 473
f 487 472 490
f 491 473 469
f 491 469 488
f 419 492 420
f 420 492 486
f 490 473 491
f 419 489 492
f 493 475 477
f 494 476 475
f 494 475 493
f 495 477 480
f 493 477 495
f 496 478 476
f 496 476 494
f 497 480 483
f 495 480 497
f 498 481 478
f 498 478 496
f 499 483 487
f 497 483 499
f 500 484 481
f 500 481 498
f 501 487 490
f 499 487 501
f 502 488 484
f 502 484 500
f 503 490 491
f 501 490 503
f 504 491 488
f 504 488 502
f 503 491 504
f 505 493 495
f 506 495 497
f 505 495 506
f 507 494 493
f 507 493 505
f 508 496 494
f 508 494 507
f 509 497 499
f 506 497 509
f 510 498 496
f 510 496 508
f 511 499 501
f 509 499 511
f 512 500 498
f 512 498 510
f 513 501 503
f 511 501 513
f 514 502 500
f 514 500 512
f 515 503 504
f 513 503 515
f 516 504 502
f 515 504 516
f 516 502 514
f 517 505 506
f 518 506 509
f 517 506 518
f 519 507 505
f 519 505 517
f 520 509 511
f 518 509 520
f 521 508 507
f 521 507 519
f 522 511 513
f 520 511 522
f 523 510 508
f 523 508 521
f 524 513 515
f 522 513 524
f 525 512 510
f 525 510 523
f 526 515 516
f 524 515 526
f 527 514 512
f 527 512 525
f 528 517 518
f 529 518 520
f 528 518 529
f 530 516 514
f 526 516 530
f 530 514 527
f 531 519 517
f 531 517 528
f 532 520 522
f 529 520 532
f 533 521 519
f 533 519 531
f 534 522 524
f 532 522 534
f 535 523 521
f 535 521 533
f 466 536 465
f 470 537 466
f 466 537 536
f 465 538 467
f 465 536 538
f 539 524 526
f 534 524 539
f 474 540 470
f 470 540 537
f 541 525 523
f 541 523 535
f 467 542 471
f 467 538 542
f 543 526 530
f 539 526 543
f 544 527 525
f 544 525 541
f 482 545 474
f 474 545 540
f 546 529 532
f 547 528 529
f 547 529 546
f 548 530 527
f 543 530 548
f 548 527 544
f 549 532 534
f 546 532 549
f 550 531 528
f 550 528 547
f 471 551 479
f 471 542 551
f 552 534 539
f 549 534 552
f 553 533 531
f 553 531 550
f 486 554 482
f 482 554 545
f 479 555 485
f 479 551 555
f 556 539 543
f 552 539 556
f 557 535 533
f 557 533 553
f 492 558 486
f 486 558 554
f 485 559 489
f 485 555 559
f 560 543 548
f 556 543 560
f 561 541 535
f 561 535 557
f 489 562 492
f 492 562 558
f 489 559 562
f 563 546 549
f 564 547 546
f 564 546 563
f 565 548 544
f 560 548 565
f 566 544 541
f 566 541 561
f 567 549 552
f 563 549 567
f 565 544 566
f 568 550 547
f 568 547 564
f 569 552 556
f 567 552 569
f 570 553 550
f 570 550 568
f 571 556 560
f 569 556 571
f 572 557 553
f 572 553 570
f 573 560 565
f 571 560 573
f 574 561 557
f 574 557 572
f 575 563 567
f 576 564 563
f 576 563 575
f 577 565 566
f 573 565 577
f 578 566 561
f 578 561 574
f 579 567 569
f 575 567 579
f 577 566 578
f 580 568 564
f 580 564 576
f 581 569 571
f 579 569 581
f 582 570 568
f 582 568 580
f 583 571 573
f 581 571 583
f 584 572 570
f 584 570 582
f 585 573 577
f 583 573 585
f 586 574 572
f 586 572 584
f 587 577 578
f 585 577 587
f 588 575 579
f 589 576 575
f 589 575 588
f 590 579 581
f 588 579 590
f 591 578 574
f 591 574 586
f 587 578 591
f 592 580 576
f 592 576 589
f 593 581 583
f 590 581 593
f 537 594 536
f 536 595 538
f 536 594 595
f 540 596 537
f 537 596 594
f 597 582 580
f 597 580 592
f 593 583 598
f 598 583 585
f 538 599 542
f 538 595 599
f 545 600 540
f 540 600 596
f 601 588 590
f 602 589 588
f 602 588 601
f 603 590 593
f 601 590 603
f 604 584 582
f 604 582 597
f 605 592 589
f 605 589 602
f 606 593 598
f 603 593 606
f 607 585 587
f 598 585 607
f 542 608 551
f 542 599 608
f 554 609 545
f 545 609 600
f 610 597 592
f 610 592 605
f 611 586 584
f 611 584 604
f 612 587 591
f 607 587 612
f 613 598 607
f 606 598 613
f 614 591 586
f 614 586 611
f 612 591 614
f 615 604 597
f 615 597 610
f 616 601 603
f 617 602 601
f 617 601 616
f 618 603 606
f 616 603 618
f 551 619 555
f 551 608 619
f 558 620 554
f 554 620 609
f 621 607 612
f 613 607 621
f 622 605 602
f 622 602 617
f 623 606 613
f 618 606 623
f 624 611 604
f 624 604 615
f 625 610 605
f 625 605 622
f 626 612 614
f 621 612 626
f 627 614 611
f 627 611 624
f 628 613 621
f 623 613 628
f 555 629 559
f 555 619 629
f 562 630 558
f 558 630 620
f 626 614 627
f 631 615 610
f 631 610 625
f 559 632 562
f 559 629 632
f 562 632 630
f 633 616 618
f 634 617 616
f 634 616 633
f 635 621 626
f 628 621 635
f 636 618 623
f 633 618 636
f 637 622 617
f 637 617 634
f 638 624 615
f 638 615 631
f 639 623 628
f 636 623 639
f 640 626 627
f 635 626 640
f 641 625 622
f 641 622 637
f 642 627 624
f 642 624 638
f 640 627 642
f 643 628 635
f 639 628 643
f 644 631 625
f 644 625 641
f 645 635 640
f 643 635 645
f 646 633 636
f 647 634 633
f 647 633 646
f 648 638 631
f 648 631 644
f 649 636 639
f 646 636 649
f 650 640 642
f 645 640 650
f 651 637 634
f 651 634 647
f 652 642 638
f 652 638 648
f 653 639 643
f 649 639 653
f 650 642 652
f 654 641 637
f 654 637 651
f 655 643 645
f 653 643 655
f 656 644 641
f 656 641 654
f 657 645 650
f 655 645 657
f 658 648 644
f 658 644 656
f 659 650 652
f 657 650 659
f 596 660 594
f 594 661 595
f 594 660 661
f 662 646 649
f 663 647 646
f 663 646 662
f 664 652 648
f 664 648 658
f 600 665 596
f 596 665 660
f 666 649 653
f 662 649 666
f 667 651 647
f 667 647 663
f 659 652 664
f 668 653 655
f 666 653 668
f 595 669 599
f 595 661 669
f 670 654 651
f 670 651 667
f 609 671 600
f 600 671 665
f 672 655 657
f 668 655 672
f 673 656 654
f 673 654 670
f 674 657 659
f 672 657 674
f 599 675 608
f 599 669 675
f 676 658 656
f 676 656 673
f 620 677 609
f 609 677 671
f 678 659 664
f 674 659 678
f 679 664 658
f 679 658 676
f 678 664 679
f 680 662 666
f 681 663 662
f 681 662 680
f 682 666 668
f 680 666 682
f 683 667 663
f 683 663 681
f 608 684 619
f 608 675 684
f 685 668 672
f 682 668 685
f 686 670 667
f 686 667 683
f 630 687 620
f 620 687 677
f 688 672 674
f 685 672 688
f 689 673 670
f 689 670 686
f 619 690 629
f 619 684 690
f 691 674 678
f 688 674 691
f 692 676 673
f 692 673 689
f 632 693 630
f 630 693 687
f 694 678 679
f 691 678 694
f 695 679 676
f 695 676 692
f 694 679 695
f 629 696 632
f 629 690 696
f 632 696 693
f 697 681 680
f 698 680 682
f 697 680 698
f 699 683 681
f 699 681 697
f 700 682 685
f 698 682 700
f 701 686 683
f 701 683 699
f 702 685 688
f 700 685 702
f 703 689 686
f 703 686 701
f 704 688 691
f 702 688 704
f 705 692 689
f 705 689 703
f 706 691 694
f 704 691 706
f 707 695 692
f 707 692 705
f 708 694 695
f 706 694 708
f 708 695 707
f 709 697 698
f 710 698 700
f 709 698 710
f 711 699 697
f 711 697 709
f 712 700 702
f 710 700 712
f 713 701 699
f 713 699 711
f 714 702 704
f 712 702 714
f 715 703 701
f 715 701 713
f 716 704 706
f 714 704 716
f 717 705 703
f 717 703 715
f 718 706 708
f 716 706 718
f 719 707 705
f 719 705 717
f 720 708 707
f 718 708 720
f 720 707 719
f 665 721 660
f 660 722 661
f 660 721 722
f 671 723 665
f 665 723 721
f 724 709 710
f 725 710 712
f 724 710 725
f 726 711 709
f 726 709 724
f 727 712 714
f 725 712 727
f 677 728 671
f 671 728 723
f 661 729 669
f 661 722 729
f 730 713 711
f 730 711 726
f 731 714 716
f 727 714 731
f 732 715 713
f 732 713 730
f 669 733 675
f 669 729 733
f 687 734 677
f 677 734 728
f 735 716 718
f 731 716 735
f 736 717 715
f 736 715 732
f 737 718 720
f 735 718 737
f 738 719 717
f 738 717 736
f 739 720 719
f 737 720 739
f 693 740 687
f 687 740 734
f 675 741 684
f 675 733 741
f 739 719 738
f 742 724 725
f 743 725 727
f 742 725 743
f 744 726 724
f 744 724 742
f 745 727 731
f 743 727 745
f 696 746 693
f 693 746 740
f 684 747 690
f 684 741 747
f 748 730 726
f 748 726 744
f 749 731 735
f 745 731 749
f 690 750 696
f 690 747 750
f 696 750 746
f 751 732 730
f 751 730 748
f 752 735 737
f 749 735 752
f 753 736 732
f 753 732 751
f 754 737 739
f 752 737 754
f 755 738 736
f 755 736 753
f 756 739 738
f 754 739 756
f 756 738 755
f 757 742 743
f 758 743 745
f 757 743 758
f 759 744 742
f 759 742 757
f 760 745 749
f 758 745 760
f 761 748 744
f 761 744 759
f 723 762 721
f 728 763 723
f 723 763 762
f 764 749 752
f 760 749 764
f 721 765 722
f 721 762 765
f 766 751 748
f 766 748 761
f 734 767 728
f 728 767 763
f 768 752 754
f 764 752 768
f 722 769 729
f 722 765 769
f 770 753 751
f 770 751 766
f 740 771 734
f 734 771 767
f 772 754 756
f 768 754 772
f 773 755 753
f 773 753 770
f 729 774 733
f 729 769 774
f 775 756 755
f 772 756 775
f 775 755 773
f 746 776 740
f 740 776 771
f 777 757 758
f 778 758 760
f 777 758 778
f 779 759 757
f 779 757 777
f 733 780 741
f 733 774 780
f 781 760 764
f 778 760 781
f 782 761 759
f 782 759 779
f 750 783 746
f 746 783 776
f 784 764 768
f 781 764 784
f 741 785 747
f 741 780 785
f 786 766 761
f 786 761 782
f 747 787 750
f 750 787 783
f 747 785 787
f 788 768 772
f 784 768 788
f 789 770 766
f 789 766 786
f 790 772 775
f 788 772 790
f 763 791 762
f 767 792 763
f 763 792 791
f 793 773 770
f 793 770 789
f 794 775 773
f 790 775 794
f 762 795 765
f 762 791 795
f 794 773 793
f 771 796 767
f 767 796 792
f 797 777 778
f 798 778 781
f 797 778 798
f 799 779 777
f 799 777 797
f 800 781 784
f 798 781 800
f 765 801 769
f 765 795 801
f 776 802 771
f 771 802 796
f 803 782 779
f 803 779 799
f 804 784 788
f 800 784 804
f 769 805 774
f 769 801 805
f 806 786 782
f 806 782 803
f 807 788 790
f 804 788 807
f 783 808 776
f 776 808 802
f 809 789 786
f 809 786 806
f 810 790 794
f 807 790 810
f 774 811 780
f 774 805 811
f 812 797 798
f 813 798 800
f 812 798 813
f 787 814 783
f 783 814 808
f 815 799 797
f 815 797 812
f 816 793 789
f 816 789 809
f 817 800 804
f 813 800 817
f 818 794 793
f 810 794 818
f 818 793 816
f 792 819 791
f 796 820 792
f 792 820 819
f 780 821 785
f 780 811 821
f 791 822 795
f 791 819 822
f 785 823 787
f 787 823 814
f 802 824 796
f 796 824 820
f 825 804 807
f 817 804 825
f 826 803 799
f 826 799 815
f 785 821 823
f 795 827 801
f 795 822 827
f 808 828 802
f 802 828 824
f 829 806 803
f 829 803 826
f 830 807 810
f 825 807 830
f 831 812 813
f 832 813 817
f 831 813 832
f 833 815 812
f 833 812 831
f 834 817 825
f 832 817 834
f 835 809 806
f 835 806 829
f 836 810 818
f 830 810 836
f 801 837 805
f 801 827 837
f 814 838 808
f 808 838 828
f 820 839 819
f 824 840 820
f 820 840 839
f 841 826 815
f 841 815 833
f 834 825 842
f 842 825 830
f 843 816 809
f 843 809 835
f 819 844 822
f 819 839 844
f 828 845 824
f 824 845 840
f 846 818 816
f 836 818 846
f 846 816 843
f 805 847 811
f 805 837 847
f 848 831 832
f 849 832 834
f 848 832 849
f 823 850 814
f 814 850 838
f 851 833 831
f 851 831 848
f 828 852 845
f 838 852 828
f 849 834 853
f 853 834 842
f 842 830 854
f 854 830 836
f 855 829 826
f 855 826 841
f 822 856 827
f 822 844 856
f 845 849 840
f 840 849 853
f 840 853 839
f 845 848 849
f 852 848 845
f 811 857 821
f 811 847 857
f 839 853 858
f 839 858 844
f 821 859 823
f 823 859 850
f 860 833 851
f 860 841 833
f 852 851 848
f 853 842 858
f 858 842 854
f 821 857 859
f 861 835 829
f 861 829 855
f 862 836 846
f 854 836 862
f 827 863 837
f 827 856 863
f 838 864 852
f 850 864 838
f 864 851 852
f 844 858 865
f 844 865 856
f 864 860 851
f 858 854 865
f 866 841 860
f 866 855 841
f 867 846 843
f 862 846 867
f 868 843 835
f 868 835 861
f 865 854 862
f 867 843 868
f 837 869 847
f 837 863 869
f 850 870 864
f 859 870 850
f 870 860 864
f 856 865 871
f 856 871 863
f 870 866 860
f 865 862 871
f 872 861 855
f 872 855 866
f 871 862 867
f 847 873 857
f 847 869 873
f 857 874 859
f 859 874 870
f 857 873 874
f 875 868 861
f 875 861 872
f 874 866 870
f 871 867 876
f 876 867 868
f 863 871 876
f 863 876 869
f 874 872 866
f 876 868 875
f 873 872 874
f 869 876 875
f 869 875 873
f 873 875 872
f 877 878 879
f 880 877 879
f 879 878 881
f 880 879 882
f 882 879 883
f 879 881 883
f 884 885 877
f 886 884 877
f 877 885 878
f 886 877 880
f 887 888 884
f 889 887 884
f 884 888 885
f 889 884 886
f 887 890 888
f 891 890 887
f 892 887 889
f 892 891 887
f 891 893 890
f 894 880 882
f 882 883 895
f 894 882 896
f 896 882 895
f 897 886 880
f 897 880 894
f 898 889 886
f 898 886 897
f 899 892 889
f 899 889 898
f 883 881 900
f 883 900 901
f 895 883 901
f 902 893 891
f 903 891 892
f 903 902 891
f 902 904 893
f 901 900 905
f 906 904 902
f 906 907 904
f 908 897 894
f 909 894 896
f 908 894 909
f 910 898 897
f 910 897 908
f 895 901 911
f 896 895 912
f 912 895 911
f 913 903 892
f 913 892 899
f 901 905 914
f 911 901 914
f 914 905 915
f 914 915 916
f 911 914 917
f 917 914 916
f 918 906 902
f 918 902 903
f 919 907 906
f 920 919 906
f 920 906 918
f 916 915 921
f 919 921 907
f 916 921 919
f 922 896 912
f 909 896 922
f 923 899 898
f 923 898 910
f 912 911 924
f 924 911 917
f 925 918 903
f 925 903 913
f 926 916 919
f 917 916 926
f 926 919 920
f 922 912 927
f 927 912 924
f 928 913 899
f 928 899 923
f 929 917 926
f 924 917 929
f 930 920 918
f 930 918 925
f 931 926 920
f 929 926 931
f 931 920 930
f 932 908 909
f 933 909 922
f 932 909 933
f 934 910 908
f 934 908 932
f 935 922 927
f 933 922 935
f 936 923 910
f 936 910 934
f 937 924 929
f 927 924 937
f 938 925 913
f 938 913 928
f 939 929 931
f 937 929 939
f 940 930 925
f 940 925 938
f 941 927 937
f 935 927 941
f 942 928 923
f 942 923 936
f 943 931 930
f 939 931 943
f 943 930 940
f 944 945 946
f 946 947 948
f 946 945 947
f 949 950 944
f 944 950 945
f 951 932 933
f 952 933 935
f 951 933 952
f 953 934 932
f 953 932 951
f 954 938 928
f 954 928 942
f 955 937 939
f 941 937 955
f 956 935 941
f 952 935 956
f 957 936 934
f 957 934 953
f 948 958 959
f 948 947 958
f 960 939 943
f 955 939 960
f 961 940 938
f 961 938 954
f 949 962 950
f 963 962 949
f 964 941 955
f 956 941 964
f 965 942 936
f 965 936 957
f 966 943 940
f 960 943 966
f 966 940 961
f 967 951 952
f 968 952 956
f 967 952 968
f 969 953 951
f 969 951 967
f 959 970 971
f 959 958 970
f 972 954 942
f 972 942 965
f 950 973 945
f 945 974 947
f 945 973 974
f 975 955 960
f 964 955 975
f 962 976 950
f 950 976 973
f 977 956 964
f 968 956 977
f 978 957 953
f 978 953 969
f 963 979 962
f 980 979 963
f 981 960 966
f 975 960 981
f 982 961 954
f 982 954 972
f 947 983 958
f 947 974 983
f 962 984 976
f 979 984 962
f 977 964 985
f 985 964 975
f 986 965 957
f 986 957 978
f 987 966 961
f 981 966 987
f 987 961 982
f 971 988 989
f 971 970 988
f 990 967 968
f 991 968 977
f 990 968 991
f 992 969 967
f 992 967 990
f 993 972 965
f 993 965 986
f 980 994 979
f 995 994 980
f 958 996 970
f 958 983 996
f 976 997 973
f 973 998 974
f 973 997 998
f 984 999 976
f 976 999 997
f 1000 977 985
f 991 977 1000
f 1001 978 969
f 1001 969 992
f 1002 975 981
f 985 975 1002
f 979 1003 984
f 994 1003 979
f 1004 981 987
f 1002 981 1004
f 1005 982 972
f 1005 972 993
f 989 1006 1007
f 989 988 1006
f 974 1008 983
f 974 998 1008
f 984 1009 999
f 1003 1009 984
f 1000 985 1010
f 1010 985 1002
f 1011 986 978
f 1011 978 1001
f 1012 987 982
f 1004 987 1012
f 1012 982 1005
f 1013 1014 995
f 995 1014 994
f 1015 990 991
f 1016 991 1000
f 1015 991 1016
f 1017 992 990
f 1017 990 1015
f 970 1018 988
f 970 996 1018
f 1007 1019 1013
f 1007 1006 1019
f 1013 1019 1014
f 994 1020 1003
f 1014 1020 994
f 983 1021 996
f 983 1008 1021
f 999 1022 997
f 997 1023 998
f 997 1022 1023
f 1009 1024 999
f 999 1024 1022
f 1025 1000 1010
f 1016 1000 1025
f 1026 1001 992
f 1026 992 1017
f 1027 1002 1004
f 1010 1002 1027
f 1028 993 986
f 1028 986 1011
f 1003 1029 1009
f 1020 1029 1003
f 998 1030 1008
f 998 1023 1030
f 1009 1031 1024
f 1029 1031 1009
f 1032 1011 1001
f 1032 1001 1026
f 1033 1004 1012
f 1027 1004 1033
f 1034 1005 993
f 1034 993 1028
f 1025 1010 1035
f 1035 1010 1027
f 988 1036 1006
f 988 1018 1036
f 1019 1037 1014
f 1014 1037 1020
f 1038 1015 1016
f 1039 1016 1025
f 1038 1016 1039
f 1040 1017 1015
f 1040 1015 1038
f 1041 1012 1005
f 1033 1012 1041
f 1041 1005 1034
f 1024 1042 1022
f 1022 1043 1023
f 1022 1042 1043
f 1031 1044 1024
f 1024 1044 1042
f 996 1045 1018
f 996 1021 1045
f 1046 1026 1017
f 1046 1017 1040
f 1006 1047 1019
f 1006 1036 1047
f 1019 1047 1037
f 1020 1048 1029
f 1037 1048 1020
f 1008 1049 1021
f 1008 1030 1049
f 1029 1050 1031
f 1048 1050 1029
f 1039 1025 1051
f 1051 1025 1035
f 1035 1027 1052
f 1052 1027 1033
f 1053 1028 1011
f 1053 1011 1032
f 1023 1054 1030
f 1023 1043 1054
f 1031 1055 1044
f 1050 1055 1031
f 1056 1032 1026
f 1056 1026 1046
f 1044 1057 1042
f 1042 1058 1043
f 1042 1057 1058
f 1055 1059 1044
f 1044 1059 1057
f 1060 1038 1039
f 1061 1039 1051
f 1060 1039 1061
f 1062 1040 1038
f 1062 1038 1060
f 1051 1035 1063
f 1063 1035 1052
f 1064 1033 1041
f 1052 1033 1064
f 1065 1034 1028
f 1065 1028 1053
f 1018 1066 1036
f 1018 1045 1066
f 1037 1067 1048
f 1047 1067 1037
f 1021 1068 1045
f 1021 1049 1068
f 1048 1069 1050
f 1067 1069 1048
f 1030 1070 1049
f 1030 1054 1070
f 1050 1071 1055
f 1069 1071 1050
f 1043 1072 1054
f 1043 1058 1072
f 1055 1073 1059
f 1071 1073 1055
f 1061 1051 1074
f 1074 1051 1063
f 1075 1046 1040
f 1075 1040 1062
f 1076 1041 1034
f 1064 1041 1076
f 1076 1034 1065
f 1036 1077 1047
f 1036 1066 1077
f 1047 1077 1067
f 1078 1053 1032
f 1078 1032 1056
f 1059 1079 1057
f 1057 1080 1058
f 1057 1079 1080
f 1073 1081 1059
f 1059 1081 1079
f 1082 1060 1061
f 1083 1061 1074
f 1082 1061 1083
f 1084 1062 1060
f 1084 1060 1082
f 1063 1052 1085
f 1085 1052 1064
f 1086 1046 1075
f 1086 1056 1046
f 1074 1063 1087
f 1087 1063 1085
f 1045 1088 1066
f 1045 1068 1088
f 1067 1089 1069
f 1077 1089 1067
f 1049 1090 1068
f 1049 1070 1090
f 1069 1091 1071
f 1089 1091 1069
f 1054 1072 1092
f 1054 1092 1070
f 1071 1093 1073
f 1091 1093 1071
f 1058 1094 1072
f 1058 1080 1094
f 1073 1095 1081
f 1093 1095 1073
f 1081 1096 1079
f 1079 1097 1080
f 1079 1096 1097
f 1095 1098 1081
f 1081 1098 1096
f 1083 1074 1099
f 1099 1074 1087
f 1100 1062 1084
f 1100 1075 1062
f 1085 1064 1101
f 1101 1064 1076
f 1102 1065 1053
f 1102 1053 1078
f 1103 1082 1083
f 1103 1083 1104
f 1104 1083 1099
f 1105 1082 1103
f 1105 1084 1082
f 1066 1106 1077
f 1066 1088 1106
f 1077 1106 1089
f 1072 1094 1107
f 1072 1107 1092
f 1093 1108 1095
f 1091 1109 1093
f 1109 1108 1093
f 1080 1097 1110
f 1080 1110 1094
f 1095 1111 1098
f 1108 1111 1095
f 1098 1112 1096
f 1096 1112 1113
f 1096 1113 1097
f 1098 1114 1112
f 1111 1114 1098
f 1114 1115 1112
f 1112 1115 1116
f 1112 1116 1113
f 1114 1117 1115
f 1118 1117 1114
f 1111 1118 1114
f 1117 1104 1115
f 1115 1104 1119
f 1115 1119 1116
f 1117 1103 1104
f 1120 1103 1117
f 1118 1120 1117
f 1104 1099 1119
f 1120 1105 1103
f 1099 1087 1121
f 1119 1099 1121
f 1122 1084 1105
f 1122 1100 1084
f 1087 1085 1123
f 1121 1087 1123
f 1124 1075 1100
f 1124 1086 1075
f 1123 1085 1101
f 1125 1078 1056
f 1125 1056 1086
f 1126 1076 1065
f 1101 1076 1126
f 1126 1065 1102
f 1068 1127 1088
f 1068 1090 1127
f 1089 1128 1091
f 1106 1128 1089
f 1070 1129 1090
f 1070 1092 1129
f 1128 1109 1091
f 1097 1113 1130
f 1097 1130 1110
f 1131 1118 1111
f 1108 1131 1111
f 1116 1119 1132
f 1119 1121 1132
f 1133 1105 1120
f 1133 1122 1105
f 1113 1116 1134
f 1113 1134 1130
f 1135 1120 1118
f 1131 1135 1118
f 1116 1132 1134
f 1135 1133 1120
f 1123 1101 1136
f 1136 1101 1126
f 1137 1102 1078
f 1137 1078 1125
f 1088 1138 1106
f 1088 1127 1138
f 1106 1138 1128
f 1094 1110 1139
f 1094 1139 1107
f 1109 1140 1108
f 1140 1131 1108
f 1141 1100 1122
f 1141 1124 1100
f 1121 1123 1142
f 1132 1121 1142
f 1143 1086 1124
f 1143 1125 1086
f 1142 1123 1136
f 1144 1126 1102
f 1136 1126 1144
f 1144 1102 1137
f 1090 1145 1127
f 1090 1129 1145
f 1128 1146 1109
f 1138 1146 1128
f 1092 1107 1147
f 1092 1147 1129
f 1146 1140 1109
f 1110 1130 1148
f 1110 1148 1139
f 1149 1135 1131
f 1140 1149 1131
f 1134 1132 1150
f 1132 1142 1150
f 1151 1122 1133
f 1151 1141 1122
f 1130 1134 1152
f 1130 1152 1148
f 1153 1133 1135
f 1149 1153 1135
f 1134 1150 1152
f 1153 1151 1133
f 1127 1154 1138
f 1127 1145 1154
f 1138 1154 1146
f 1107 1139 1155
f 1107 1155 1147
f 1146 1156 1140
f 1156 1149 1140
f 1157 1124 1141
f 1157 1143 1124
f 1142 1136 1158
f 1158 1136 1144
f 1159 1137 1125
f 1159 1125 1143
f 1150 1142 1158
f 1129 1160 1145
f 1129 1147 1160
f 1154 1156 1146
f 1139 1148 1161
f 1139 1161 1155
f 1162 1153 1149
f 1156 1162 1149
f 1152 1150 1163
f 1150 1158 1163
f 1164 1141 1151
f 1164 1157 1141
f 1165 1144 1137
f 1158 1144 1165
f 1165 1137 1159
f 1145 1166 1154
f 1145 1160 1166
f 1154 1166 1156
f 1148 1152 1167
f 1148 1167 1161
f 1168 1151 1153
f 1162 1168 1153
f 1152 1163 1167
f 1168 1164 1151
f 1147 1169 1160
f 1147 1155 1169
f 1166 1162 1156
f 1163 1158 1165
f 1170 1143 1157
f 1170 1159 1143
f 1160 1171 1166
f 1160 1169 1171
f 1166 1171 1162
f 1155 1161 1172
f 1155 1172 1169
f 1171 1168 1162
f 1163 1165 1173
f 1167 1163 1173
f 1174 1157 1164
f 1174 1170 1157
f 1173 1165 1159
f 1173 1159 1170
f 1161 1167 1175
f 1161 1175 1172
f 1176 1164 1168
f 1171 1176 1168
f 1167 1173 1175
f 1176 1174 1164
f 1169 1176 1171
f 1169 1172 1176
f 1175 1173 1170
f 1175 1170 1174
f 1172 1174 1176
f 1172 1175 1174
f 1177 1178 1179
f 1180 1178 1177
f 1179 1178 1181
f 1181 1178 1182
f 1183 1178 1180
f 1184 1178 1183
f 1182 1178 1185
f 1186 1178 1184
f 1185 1178 1187
f 1187 1178 1188
f 1189 1178 1186
f 1188 1178 1189
f 1190 1177 1179
f 1191 1180 1177
f 1191 1177 1190
f 1192 1179 1181
f 1190 1179 1192
f 1193 1181 1182
f 1192 1181 1193
f 1194 1183 1180
f 1194 1180 1191
f 1195 1184 1183
f 1195 1183 1194
f 1196 1182 1185
f 1193 1182 1196
f 1197 1186 1184
f 1197 1184 1195
f 1198 1185 1187
f 1196 1185 1198
f 1199 1187 1188
f 1198 1187 1199
f 1200 1189 1186
f 1200 1186 1197
f 1201 1188 1189
f 1201 1189 1200
f 1199 1188 1201
f 1202 1190 1192
f 1203 1192 1193
f 1202 1192 1203
f 1204 1191 1190
f 1204 1190 1202
f 1205 1194 1191
f 1205 1191 1204
f 1206 1193 1196
f 1203 1193 1206
f 1207 1195 1194
f 1207 1194 1205
f 1208 1196 1198
f 1206 1196 1208
f 1209 1197 1195
f 1209 1195 1207
f 1210 1198 1199
f 1208 1198 1210
f 1211 1200 1197
f 1211 1197 1209
f 1212 1199 1201
f 1210 1199 1212
f 1213 1201 1200
f 1212 1201 1213
f 1213 1200 1211
f 1214 1202 1203
f 1215 1203 1206
f 1214 1203 1215
f 1216 1204 1202
f 1216 1202 1214
f 1217 1205 1204
f 1217 1204 1216
f 1218 1206 1208
f 1215 1206 1218
f 1219 1207 1205
f 1219 1205 1217
f 1220 1208 1210
f 1218 1208 1220
f 1221 1209 1207
f 1221 1207 1219
f 1222 1210 1212
f 1220 1210 1222
f 1223 1211 1209
f 1223 1209 1221
f 1224 1212 1213
f 1222 1212 1224
f 1225 1213 1211
f 1224 1213 1225
f 1225 1211 1223
f 1226 1214 1215
f 1227 1215 1218
f 1226 1215 1227
f 1228 1216 1214
f 1228 1214 1226
f 1229 1217 1216
f 1229 1216 1228
f 1230 1218 1220
f 1227 1218 1230
f 1231 1219 1217
f 1231 1217 1229
f 1232 1220 1222
f 1230 1220 1232
f 1233 1221 1219
f 1233 1219 1231
f 1234 1222 1224
f 1232 1222 1234
f 1235 1223 1221
f 1235 1221 1233
f 1236 1224 1225
f 1234 1224 1236
f 1237 1225 1223
f 1236 1225 1237
f 1237 1223 1235
f 1238 1226 1227
f 1239 1227 1230
f 1238 1227 1239
f 1240 1228 1226
f 1240 1226 1238
f 1241 1229 1228
f 1241 1228 1240
f 1242 1230 1232
f 1239 1230 1242
f 1243 1231 1229
f 1243 1229 1241
f 1244 1232 1234
f 1242 1232 1244
f 1245 1233 1231
f 1245 1231 1243
f 1246 1234 1236
f 1244 1234 1246
f 1247 1235 1233
f 1247 1233 1245
f 1248 1236 1237
f 1246 1236 1248
f 1249 1237 1235
f 1248 1237 1249
f 1249 1235 1247
f 1250 1238 1239
f 1251 1240 1238
f 1251 1238 1250
f 1252 1239 1242
f 1250 1239 1252
f 1253 1241 1240
f 1253 1240 1251
f 1254 1242 1244
f 1252 1242 1254
f 1255 1243 1241
f 1255 1241 1253
f 1256 1244 1246
f 1254 1244 1256
f 1257 1245 1243
f 1257 1243 1255
f 1258 1246 1248
f 1256 1246 1258
f 1259 1247 1245
f 1259 1245 1257
f 1260 1248 1249
f 1258 1248 1260
f 1261 1249 1247
f 1261 1247 1259
f 1260 1249 1261
f 1262 1250 1252
f 1263 1251 1250
f 1263 1250 1262
f 1264 1252 1254
f 1262 1252 1264
f 1265 1253 1251
f 1265 1251 1263
f 1266 1254 1256
f 1264 1254 1266
f 1267 1255 1253
f 1267 1253 1265
f 1268 1256 1258
f 1266 1256 1268
f 1269 1257 1255
f 1269 1255 1267
f 1270 1258 1260
f 1268 1258 1270
f 1271 1259 1257
f 1271 1257 1269
f 1272 1260 1261
f 1270 1260 1272
f 1273 1261 1259
f 1273 1259 1271
f 1272 1261 1273
f 1274 1262 1264
f 1275 1263 1262
f 1275 1262 1274
f 1276 1264 1266
f 1274 1264 1276
f 1277 1265 1263
f 1277 1263 1275
f 1278 1267 1265
f 1278 1265 1277
f 1279 1266 1268
f 1276 1266 1279
f 1280 1269 1267
f 1280 1267 1278
f 1281 1268 1270
f 1279 1268 1281
f 1282 1271 1269
f 1282 1269 1280
f 1283 1270 1272
f 1281 1270 1283
f 1284 1272 1273
f 1283 1272 1284
f 1285 1273 1271
f 1285 1271 1282
f 1284 1273 1285
f 1286 1275 1274
f 1287 1274 1276
f 1286 1274 1287
f 1288 1277 1275
f 1288 1275 1286
f 1289 1276 1279
f 1287 1276 1289
f 1290 1278 1277
f 1290 1277 1288
f 1291 1279 1281
f 1289 1279 1291
f 1292 1280 1278
f 1292 1278 1290
f 1293 1281 1283
f 1291 1281 1293
f 1294 1282 1280
f 1294 1280 1292
f 1295 1283 1284
f 1293 1283 1295
f 1296 1285 1282
f 1296 1282 1294
f 1297 1284 1285
f 1295 1284 1297
f 1297 1285 1296
f 1298 1286 1287
f 1299 1287 1289
f 1298 1287 1299
f 1300 1288 1286
f 1300 1286 1298
f 1301 1290 1288
f 1301 1288 1300
f 1302 1289 1291
f 1299 1289 1302
f 1303 1292 1290
f 1303 1290 1301
f 1304 1291 1293
f 1302 1291 1304
f 1305 1294 1292
f 1305 1292 1303
f 1306 1293 1295
f 1304 1293 1306
f 1307 1296 1294
f 1307 1294 1305
f 1308 1295 1297
f 1306 1295 1308
f 1309 1297 1296
f 1308 1297 1309
f 1309 1296 1307
f 1310 1298 1299
f 1311 1299 1302
f 1310 1299 1311
f 1312 1300 1298
f 1312 1298 1310
f 1313 1301 1300
f 1313 1300 1312
f 1314 1302 1304
f 1311 1302 1314
f 1315 1303 1301
f 1315 1301 1313
f 1316 1304 1306
f 1314 1304 1316
f 1317 1305 1303
f 1317 1303 1315
f 1318 1306 1308
f 1316 1306 1318
f 1319 1307 1305
f 1319 1305 1317
f 1320 1308 1309
f 1318 1308 1320
f 1321 1309 1307
f 1320 1309 1321
f 1321 1307 1319
f 1322 1310 1311
f 1323 1311 1314
f 1322 1311 1323
f 1324 1312 1310
f 1324 1310 1322
f 1325 1313 1312
f 1325 1312 1324
f 1326 1314 1316
f 1323 1314 1326
f 1327 1315 1313
f 1327 1313 1325
f 1328 1316 1318
f 1326 1316 1328
f 1329 1317 1315
f 1329 1315 1327
f 1330 1318 1320
f 1328 1318 1330
f 1331 1319 1317
f 1331 1317 1329
f 1332 1320 1321
f 1330 1320 1332
f 1333 1321 1319
f 1332 1321 1333
f 1333 1319 1331
f 1334 1322 1323
f 1335 1323 1326
f 1334 1323 1335
f 1336 1324 1322
f 1336 1322 1334
f 1337 1326 1328
f 1335 1326 1337
f 1338 1325 1324
f 1338 1324 1336
f 1339 1328 1330
f 1337 1328 1339
f 1340 1327 1325
f 1340 1325 1338
f 1341 1330 1332
f 1339 1330 1341
f 1342 1329 1327
f 1342 1327 1340
f 1343 1332 1333
f 1341 1332 1343
f 1344 1331 1329
f 1344 1329 1342
f 1345 1333 1331
f 1343 1333 1345
f 1345 1331 1344
f 1346 1334 1335
f 1347 1335 1337
f 1346 1335 1347
f 1348 1336 1334
f 1348 1334 1346
f 1349 1337 1339
f 1347 1337 1349
f 1350 1338 1336
f 1350 1336 1348
f 1351 1339 1341
f 1349 1339 1351
f 1352 1340 1338
f 1352 1338 1350
f 1353 1341 1343
f 1351 1341 1353
f 1354 1342 1340
f 1354 1340 1352
f 1355 1343 1345
f 1353 1343 1355
f 1356 1344 1342
f 1356 1342 1354
f 1357 1345 1344
f 1355 1345 1357
f 1357 1344 1356
f 1358 1346 1347
f 1359 1347 1349
f 1358 1347 1359
f 1360 1348 1346
f 1360 1346 1358
f 1361 1349 1351
f 1359 1349 1361
f 1362 1350 1348
f 1362 1348 1360
f 1363 1351 1353
f 1361 1351 1363
f 1364 1352 1350
f 1364 1350 1362
f 1365 1353 1355
f 1363 1353 1365
f 1366 1354 1352
f 1366 1352 1364
f 1367 1355 1357
f 1365 1355 1367
f 1368 1359 1361
f 1369 1358 1359
f 1369 1359 1368
f 1370 1361 1363
f 1368 1361 1370
f 1371 1360 1358
f 1371 1358 1369
f 1372 1357 1356
f 1367 1357 1372
f 1373 1356 1354
f 1373 1354 1366
f 1372 1356 1373
f 1374 1362 1360
f 1374 1360 1371
f 1375 1363 1365
f 1370 1363 1375
f 1376 1364 1362
f 1376 1362 1374
f 1377 1365 1367
f 1375 1365 1377
f 1378 1368 1370
f 1379 1369 1368
f 1379 1368 1378
f 1380 1366 1364
f 1380 1364 1376
f 1381 1370 1375
f 1378 1370 1381
f 1382 1371 1369
f 1382 1369 1379
f 1383 1367 1372
f 1377 1367 1383
f 1384 1373 1366
f 1384 1366 1380
f 1385 1374 1371
f 1385 1371 1382
f 1386 1372 1373
f 1383 1372 1386
f 1387 1375 1377
f 1381 1375 1387
f 1386 1373 1384
f 1388 1376 1374
f 1388 1374 1385
f 1389 1377 1383
f 1387 1377 1389
f 1390 1379 1378
f 1391 1378 1381
f 1390 1378 1391
f 1392 1380 1376
f 1392 1376 1388
f 1393 1383 1386
f 1389 1383 1393
f 1394 1382 1379
f 1394 1379 1390
f 1395 1381 1387
f 1391 1381 1395
f 1396 1384 1380
f 1396 1380 1392
f 1397 1386 1384
f 1393 1386 1397
f 1398 1385 1382
f 1398 1382 1394
f 1399 1387 1389
f 1395 1387 1399
f 1397 1384 1396
f 1400 1388 1385
f 1400 1385 1398
f 1401 1389 1393
f 1399 1389 1401
f 1402 1392 1388
f 1402 1388 1400
f 1403 1393 1397
f 1401 1393 1403
f 1404 1390 1391
f 1405 1391 1395
f 1404 1391 1405
f 1406 1394 1390
f 1406 1390 1404
f 1407 1396 1392
f 1407 1392 1402
f 1408 1395 1399
f 1405 1395 1408
f 1409 1397 1396
f 1403 1397 1409
f 1409 1396 1407
f 1410 1398 1394
f 1410 1394 1406
f 1411 1399 1401
f 1408 1399 1411
f 1412 1400 1398
f 1412 1398 1410
f 1413 1401 1403
f 1411 1401 1413
f 1414 1402 1400
f 1414 1400 1412
f 1415 1403 1409
f 1413 1403 1415
f 1416 1407 1402
f 1416 1402 1414
f 1417 1409 1407
f 1415 1409 1417
f 1417 1407 1416
f 1418 1404 1405
f 1419 1405 1408
f 1418 1405 1419
f 1420 1406 1404
f 1420 1404 1418
f 1421 1408 1411
f 1419 1408 1421
f 1422 1410 1406
f 1422 1406 1420
f 1423 1411 1413
f 1421 1411 1423
f 1424 1412 1410
f 1424 1410 1422
f 1425 1413 1415
f 1423 1413 1425
f 1426 1414 1412
f 1426 1412 1424
f 1427 1415 1417
f 1425 1415 1427
f 1428 1416 1414
f 1428 1414 1426
f 1429 1417 1416
f 1427 1417 1429
f 1429 1416 1428
f 1430 1418 1419
f 1431 1419 1421
f 1430 1419 1431
f 1432 1420 1418
f 1432 1418 1430
f 1433 1421 1423
f 1431 1421 1433
f 1434 1422 1420
f 1434 1420 1432
f 1435 1423 1425
f 1433 1423 1435
f 1436 1424 1422
f 1436 1422 1434
f 1437 1425 1427
f 1435 1425 1437
f 1438 1426 1424
f 1438 1424 1436
f 1439 1427 1429
f 1437 1427 1439
f 1440 1428 1426
f 1440 1426 1438
f 1441 1429 1428
f 1439 1429 1441
f 1441 1428 1440
f 1442 1430 1431
f 1443 1431 1433
f 1442 1431 1443
f 1444 1432 1430
f 1444 1430 1442
f 1445 1433 1435
f 1443 1433 1445
f 1446 1434 1432
f 1446 1432 1444
f 1447 1435 1437
f 1445 1435 1447
f 1448 1436 1434
f 1448 1434 1446
f 1449 1437 1439
f 1447 1437 1449
f 1450 1438 1436
f 1450 1436 1448
f 1451 1439 1441
f 1449 1439 1451
f 1452 1440 1438
f 1452 1438 1450
f 1453 1441 1440
f 1451 1441 1453
f 1453 1440 1452
f 1454 1455 1456
f 1457 1458 1455
f 1457 1455 1454
f 1459 1456 1460
f 1454 1456 1459
f 1461 1460 1462
f 1459 1460 1461
f 1463 1462 1464
f 1461 1462 1463
f 1465 1466 1458
f 1465 1458 1457
f 1467 1464 1468
f 1463 1464 1467
f 1469 1470 1466
f 1469 1466 1465
f 1471 1468 1472
f 1467 1468 1471
f 1473 1474 1470
f 1473 1470 1469
f 1475 1476 1474
f 1475 1474 1473
f 1477 1472 1476
f 1477 1476 1475
f 1471 1472 1477
f 1478 1459 1461
f 1479 1454 1459
f 1479 1459 1478
f 1480 1461 1463
f 1478 1461 1480
f 1481 1457 1454
f 1481 1454 1479
f 1482 1463 1467
f 1480 1463 1482
f 1483 1465 1457
f 1483 1457 1481
f 1484 1467 1471
f 1482 1467 1484
f 1485 1469 1465
f 1485 1465 1483
f 1486 1471 1477
f 1484 1471 1486
f 1487 1473 1469
f 1487 1469 1485
f 1488 1477 1475
f 1486 1477 1488
f 1489 1475 1473
f 1489 1473 1487
f 1488 1475 1489
f 1490 1478 1480
f 1491 1479 1478
f 1491 1478 1490
f 1492 1480 1482
f 1490 1480 1492
f 1493 1482 1484
f 1492 1482 1493
f 1494 1481 1479
f 1494 1479 1491
f 1495 1483 1481
f 1495 1481 1494
f 1496 1484 1486
f 1493 1484 1496
f 1497 1485 1483
f 1497 1483 1495
f 1498 1486 1488
f 1496 1486 1498
f 1499 1487 1485
f 1499 1485 1497
f 1500 1488 1489
f 1498 1488 1500
f 1501 1489 1487
f 1501 1487 1499
f 1500 1489 1501
f 1502 1490 1492
f 1503 1491 1490
f 1503 1490 1502
f 1504 1492 1493
f 1502 1492 1504
f 1505 1494 1491
f 1505 1491 1503
f 1506 1493 1496
f 1504 1493 1506
f 1507 1495 1494
f 1507 1494 1505
f 1508 1496 1498
f 1506 1496 1508
f 1509 1497 1495
f 1509 1495 1507
f 1510 1498 1500
f 1508 1498 1510
f 1511 1499 1497
f 1511 1497 1509
f 1512 1500 1501
f 1510 1500 1512
f 1513 1501 1499
f 1513 1499 1511
f 1512 1501 1513
f 1514 1502 1504
f 1515 1503 1502
f 1515 1502 1514
f 1516 1504 1506
f 1514 1504 1516
f 1517 1505 1503
f 1517 1503 1515
f 1518 1506 1508
f 1516 1506 1518
f 1519 1507 1505
f 1519 1505 1517
f 1520 1508 1510
f 1518 1508 1520
f 1521 1509 1507
f 1521 1507 1519
f 1522 1510 1512
f 1520 1510 1522
f 1523 1511 1509
f 1523 1509 1521
f 1524 1512 1513
f 1522 1512 1524
f 1525 1513 1511
f 1525 1511 1523
f 1524 1513 1525
f 1526 1514 1516
f 1527 1515 1514
f 1527 1514 1526
f 1528 1516 1518
f 1526 1516 1528
f 1529 1517 1515
f 1529 1515 1527
f 1530 1518 1520
f 1528 1518 1530
f 1531 1519 1517
f 1531 1517 1529
f 1532 1520 1522
f 1530 1520 1532
f 1533 1521 1519
f 1533 1519 1531
f 1534 1522 1524
f 1532 1522 1534
f 1535 1523 1521
f 1535 1521 1533
f 1536 1524 1525
f 1534 1524 1536
f 1537 1525 1523
f 1537 1523 1535
f 1536 1525 1537
f 1538 1526 1528
f 1539 1527 1526
f 1539 1526 1538
f 1540 1528 1530
f 1538 1528 1540
f 1541 1529 1527
f 1541 1527 1539
f 1542 1530 1532
f 1540 1530 1542
f 1543 1531 1529
f 1543 1529 1541
f 1544 1532 1534
f 1542 1532 1544
f 1545 1533 1531
f 1545 1531 1543
f 1546 1534 1536
f 1544 1534 1546
f 1547 1535 1533
f 1547 1533 1545
f 1548 1536 1537
f 1546 1536 1548
f 1549 1537 1535
f 1549 1535 1547
f 1548 1537 1549
f 1550 1538 1540
f 1551 1540 1542
f 1550 1540 1551
f 1552 1539 1538
f 1552 1538 1550
f 1553 1541 1539
f 1553 1539 1552
f 1554 1542 1544
f 1551 1542 1554
f 1555 1543 1541
f 1555 1541 1553
f 1556 1544 1546
f 1554 1544 1556
f 1557 1545 1543
f 1557 1543 1555
f 1558 1546 1548
f 1556 1546 1558
f 1559 1548 1549
f 1558 1548 1559
f 1560 1547 1545
f 1560 1545 1557
f 1561 1549 1547
f 1559 1549 1561
f 1561 1547 1560
f 1562 1550 1551
f 1563 1551 1554
f 1562 1551 1563
f 1564 1552 1550
f 1564 1550 1562
f 1565 1553 1552
f 1565 1552 1564
f 1566 1555 1553
f 1566 1553 1565
f 1567 1554 1556
f 1563 1554 1567
f 1568 1557 1555
f 1568 1555 1566
f 1569 1556 1558
f 1567 1556 1569
f 1570 1560 1557
f 1570 1557 1568
f 1571 1558 1559
f 1569 1558 1571
f 1572 1561 1560
f 1572 1560 1570
f 1573 1559 1561
f 1571 1559 1573
f 1573 1561 1572
f 1574 1564 1562
f 1575 1562 1563
f 1574 1562 1575
f 1576 1565 1564
f 1576 1564 1574
f 1577 1563 1567
f 1575 1563 1577
f 1578 1566 1565
f 1578 1565 1576
f 1579 1567 1569
f 1577 1567 1579
f 1580 1568 1566
f 1580 1566 1578
f 1581 1569 1571
f 1579 1569 1581
f 1582 1570 1568
f 1582 1568 1580
f 1583 1571 1573
f 1581 1571 1583
f 1584 1572 1570
f 1584 1570 1582
f 1585 1573 1572
f 1583 1573 1585
f 1585 1572 1584
f 1586 1574 1575
f 1587 1575 1577
f 1586 1575 1587
f 1588 1576 1574
f 1588 1574 1586
f 1589 1578 1576
f 1589 1576 1588
f 1590 1577 1579
f 1587 1577 1590
f 1591 1580 1578
f 1591 1578 1589
f 1592 1579 1581
f 1590 1579 1592
f 1593 1582 1580
f 1593 1580 1591
f 1594 1581 1583
f 1592 1581 1594
f 1595 1584 1582
f 1595 1582 1593
f 1596 1583 1585
f 1594 1583 1596
f 1597 1585 1584
f 1596 1585 1597
f 1597 1584 1595
f 1598 1586 1587
f 1599 1587 1590
f 1598 1587 1599
f 1600 1588 1586
f 1600 1586 1598
f 1601 1589 1588
f 1601 1588 1600
f 1602 1590 1592
f 1599 1590 1602
f 1603 1591 1589
f 1603 1589 1601
f 1604 1592 1594
f 1602 1592 1604
f 1605 1593 1591
f 1605 1591 1603
f 1606 1594 1596
f 1604 1594 1606
f 1607 1595 1593
f 1607 1593 1605
f 1608 1596 1597
f 1606 1596 1608
f 1609 1597 1595
f 1608 1597 1609
f 1609 1595 1607
