# 
# Wavefront OBJ file
# Created with Kaydara FBX
# 
mtllib c:\users\tjvan\onedrive\documenten\fontys\minor\nx\.mtlmodels\inferior_lateral_genicular_artery.r.obj

g Inferior_lateral_genicular_artery_r
v -0.118572 0.420394 -0.047745
v -0.118771 0.421427 -0.045554
v -0.118725 0.421211 -0.045460
v -0.118538 0.422201 -0.043007
v -0.118693 0.421635 -0.045644
v -0.118581 0.422412 -0.043079
v -0.118490 0.420614 -0.047838
v -0.118527 0.420177 -0.047623
v -0.118568 0.421046 -0.045386
v -0.118391 0.422034 -0.042964
v -0.118507 0.422610 -0.043160
v -0.118512 0.421780 -0.045704
v -0.118302 0.420778 -0.047878
v -0.117875 0.419344 -0.049624
v -0.117791 0.419579 -0.049717
v -0.118366 0.420022 -0.047505
v -0.118178 0.421956 -0.042960
v -0.118341 0.420976 -0.045351
v -0.118061 0.423116 -0.040282
v -0.118099 0.423319 -0.040336
v -0.117925 0.422952 -0.040260
v -0.117837 0.419131 -0.049471
v -0.118336 0.422743 -0.043229
v -0.118277 0.421823 -0.045719
v -0.118059 0.420842 -0.047854
v -0.118028 0.423508 -0.040406
v -0.117608 0.419772 -0.049723
v -0.117727 0.422873 -0.040274
v -0.118133 0.419969 -0.047423
v -0.117688 0.418995 -0.049298
v -0.117957 0.421988 -0.042998
v -0.118106 0.421019 -0.045366
v -0.118115 0.422774 -0.043266
v -0.117868 0.423632 -0.040474
v -0.117375 0.419870 -0.049642
v -0.118050 0.421753 -0.045685
v -0.117826 0.420790 -0.047772
v -0.117521 0.422899 -0.040322
v -0.117890 0.420034 -0.047398
v -0.117468 0.418974 -0.049151
v -0.117786 0.422120 -0.043066
v -0.117925 0.421164 -0.045427
v -0.117902 0.422696 -0.043263
v -0.117661 0.423658 -0.040522
v -0.117383 0.423922 -0.037304
v -0.117415 0.424117 -0.037342
v -0.117154 0.419849 -0.049496
v -0.117893 0.421588 -0.045611
v -0.117665 0.420635 -0.047654
v -0.117258 0.423766 -0.037296
v -0.117347 0.424296 -0.037400
v -0.117360 0.423023 -0.040390
v -0.117702 0.420198 -0.047438
v -0.117847 0.421372 -0.045516
v -0.117712 0.422319 -0.043147
v -0.117074 0.423688 -0.037320
v -0.117235 0.419073 -0.049070
v -0.117754 0.422530 -0.043219
v -0.117620 0.420418 -0.047532
v -0.117463 0.423578 -0.040536
v -0.116571 0.418327 -0.051139
v -0.116491 0.418579 -0.051227
v -0.117196 0.424413 -0.037462
v -0.116551 0.418117 -0.050957
v -0.117005 0.419713 -0.049322
v -0.116333 0.418806 -0.051196
v -0.117290 0.423212 -0.040460
v -0.117327 0.423415 -0.040514
v -0.116881 0.423711 -0.037369
v -0.117052 0.419265 -0.049077
v -0.116436 0.418006 -0.050728
v -0.116968 0.419500 -0.049169
v -0.117003 0.424436 -0.037512
v -0.116139 0.418948 -0.051054
v -0.116730 0.423828 -0.037432
v -0.116258 0.418023 -0.050515
v -0.116820 0.424359 -0.037536
v -0.116589 0.424586 -0.034093
v -0.116617 0.424770 -0.034118
v -0.115961 0.418966 -0.050841
v -0.116474 0.424438 -0.034094
v -0.116662 0.424008 -0.037489
v -0.116551 0.424940 -0.034162
v -0.116695 0.424202 -0.037528
v -0.116304 0.424364 -0.034122
v -0.116064 0.418165 -0.050373
v -0.116409 0.425051 -0.034215
v -0.115846 0.418855 -0.050612
v -0.116123 0.424386 -0.034169
v -0.115906 0.418392 -0.050342
v -0.115826 0.418645 -0.050430
v -0.116228 0.425072 -0.034261
v -0.115981 0.424496 -0.034221
v -0.116058 0.424999 -0.034289
v -0.115915 0.424666 -0.034266
v -0.115943 0.424850 -0.034291
v -0.115766 0.425071 -0.030672
v -0.115789 0.425244 -0.030685
v -0.115660 0.424932 -0.030681
v -0.114591 0.417403 -0.052225
v -0.114522 0.417674 -0.052308
v -0.114592 0.417194 -0.052022
v -0.115726 0.425404 -0.030716
v -0.114405 0.417934 -0.052249
v -0.115502 0.424863 -0.030708
v -0.114527 0.417103 -0.051753
v -0.115591 0.425507 -0.030756
v -0.114271 0.418115 -0.052063
v -0.115333 0.424884 -0.030748
v -0.114411 0.417154 -0.051489
v -0.115422 0.425528 -0.030796
v -0.114156 0.418166 -0.051800
v -0.115199 0.424988 -0.030788
v -0.114277 0.417334 -0.051303
v -0.115264 0.425459 -0.030823
v -0.115135 0.425147 -0.030819
v -0.114091 0.418075 -0.051530
v -0.115159 0.425320 -0.030832
v -0.114161 0.417595 -0.051244
v -0.114092 0.417866 -0.051327
v -0.114997 0.425341 -0.027059
v -0.115017 0.425501 -0.027063
v -0.114900 0.425212 -0.027072
v -0.114956 0.425650 -0.027083
v -0.114754 0.425148 -0.027098
v -0.114830 0.425747 -0.027114
v -0.114597 0.425167 -0.027131
v -0.114673 0.425766 -0.027147
v -0.114471 0.425264 -0.027161
v -0.114527 0.425702 -0.027173
v -0.114410 0.425412 -0.027181
v -0.114430 0.425573 -0.027186
v -0.114324 0.425454 -0.023712
v -0.114343 0.425610 -0.023712
v -0.114232 0.425328 -0.023728
v -0.114284 0.425754 -0.023728
v -0.114090 0.425266 -0.023756
v -0.114161 0.425848 -0.023756
v -0.113938 0.425285 -0.023789
v -0.114009 0.425866 -0.023789
v -0.111891 0.416625 -0.052847
v -0.111911 0.416412 -0.052630
v -0.111836 0.416913 -0.052930
v -0.113815 0.425379 -0.023818
v -0.111892 0.416331 -0.052337
v -0.111763 0.417199 -0.052856
v -0.113867 0.425805 -0.023818
v -0.113756 0.425523 -0.023834
v -0.113775 0.425679 -0.023834
v -0.111839 0.416405 -0.052046
v -0.111690 0.417407 -0.052645
v -0.113659 0.425510 -0.020814
v -0.113677 0.425661 -0.020810
v -0.113571 0.425388 -0.020834
v -0.111766 0.416612 -0.051835
v -0.111637 0.417480 -0.052354
v -0.113619 0.425801 -0.020826
v -0.113435 0.425328 -0.020867
v -0.111692 0.416899 -0.051761
v -0.111618 0.417400 -0.052061
v -0.113501 0.425893 -0.020855
v -0.111638 0.417187 -0.051844
v -0.113288 0.425346 -0.020903
v -0.113354 0.425910 -0.020891
v -0.113169 0.425437 -0.020932
v -0.113218 0.425850 -0.020924
v -0.113111 0.425577 -0.020948
v -0.113129 0.425728 -0.020945
v -0.112998 0.425505 -0.018315
v -0.112913 0.425387 -0.018341
v -0.113014 0.425652 -0.018308
v -0.112957 0.425787 -0.018321
v -0.112783 0.425329 -0.018379
v -0.112843 0.425876 -0.018352
v -0.112642 0.425346 -0.018419
v -0.112702 0.425893 -0.018391
v -0.112528 0.425435 -0.018449
v -0.112572 0.425835 -0.018429
v -0.112471 0.425570 -0.018463
v -0.112487 0.425717 -0.018455
v -0.112334 0.425434 -0.016161
v -0.112254 0.425319 -0.016193
v -0.112347 0.425575 -0.016148
v -0.112130 0.425263 -0.016237
v -0.112292 0.425706 -0.016159
v -0.112182 0.425792 -0.016190
v -0.111995 0.425280 -0.016281
v -0.112047 0.425809 -0.016234
v -0.111886 0.425366 -0.016312
v -0.111923 0.425753 -0.016278
v -0.111830 0.425497 -0.016323
v -0.111844 0.425639 -0.016310
v -0.111663 0.425290 -0.014295
v -0.111589 0.425180 -0.014335
v -0.111674 0.425426 -0.014276
v -0.111619 0.425553 -0.014284
v -0.111472 0.425127 -0.014386
v -0.111513 0.425635 -0.014315
v -0.111344 0.425144 -0.014433
v -0.111385 0.425652 -0.014363
v -0.111238 0.425227 -0.014465
v -0.111268 0.425599 -0.014413
v -0.108458 0.415809 -0.052769
v -0.108430 0.416030 -0.052996
v -0.108466 0.415730 -0.052461
v -0.108388 0.416333 -0.053081
v -0.111183 0.425353 -0.014472
v -0.108451 0.415814 -0.052155
v -0.108344 0.416637 -0.053002
v -0.111194 0.425489 -0.014453
v -0.108417 0.416038 -0.051933
v -0.108311 0.416862 -0.052779
v -0.108373 0.416343 -0.051853
v -0.108295 0.416946 -0.052473
v -0.110980 0.425069 -0.012663
v -0.110987 0.425200 -0.012638
v -0.110912 0.424965 -0.012711
v -0.108332 0.416646 -0.051939
v -0.108303 0.416867 -0.052165
v -0.110932 0.425321 -0.012641
v -0.110803 0.424914 -0.012769
v -0.110831 0.425402 -0.012672
v -0.110681 0.424931 -0.012820
v -0.110709 0.425419 -0.012723
v -0.110579 0.425011 -0.012851
v -0.110599 0.425368 -0.012780
v -0.110525 0.425133 -0.012854
v -0.110532 0.425264 -0.012828
v -0.110280 0.424767 -0.011211
v -0.110219 0.424668 -0.011266
v -0.110283 0.424891 -0.011178
v -0.110228 0.425008 -0.011176
v -0.110117 0.424621 -0.011329
v -0.110130 0.425085 -0.011206
v -0.110002 0.424639 -0.011383
v -0.110015 0.425102 -0.011260
v -0.109904 0.424716 -0.011413
v -0.109913 0.425055 -0.011323
v -0.109849 0.424832 -0.011412
v -0.109852 0.424956 -0.011379
v -0.109558 0.424378 -0.009881
v -0.109504 0.424285 -0.009943
v -0.109557 0.424496 -0.009842
v -0.109410 0.424242 -0.010010
v -0.109502 0.424606 -0.009836
v -0.109407 0.424680 -0.009864
v -0.109300 0.424260 -0.010066
v -0.109298 0.424698 -0.009919
v -0.109205 0.424334 -0.010094
v -0.109150 0.424445 -0.010087
v -0.109203 0.424655 -0.009987
v -0.109149 0.424562 -0.010048
v -0.108810 0.423898 -0.008620
v -0.108762 0.423811 -0.008686
v -0.108806 0.424009 -0.008576
v -0.108674 0.423771 -0.008755
v -0.108750 0.424113 -0.008565
v -0.108570 0.423789 -0.008810
v -0.108658 0.424184 -0.008591
v -0.108478 0.423860 -0.008836
v -0.108554 0.424202 -0.008646
v -0.108422 0.423965 -0.008825
v -0.108466 0.424162 -0.008715
v -0.108417 0.424075 -0.008781
v -0.108031 0.423322 -0.007370
v -0.107987 0.423241 -0.007438
v -0.108024 0.423426 -0.007323
v -0.107904 0.423204 -0.007507
v -0.107968 0.423525 -0.007309
v -0.107804 0.423221 -0.007560
v -0.107878 0.423592 -0.007332
v -0.107715 0.423288 -0.007583
v -0.107778 0.423609 -0.007385
v -0.104035 0.415283 -0.052722
v -0.104041 0.415200 -0.052399
v -0.104014 0.415516 -0.052960
v -0.104031 0.415288 -0.052078
v -0.107659 0.423387 -0.007569
v -0.107695 0.423572 -0.007455
v -0.103983 0.415836 -0.053049
v -0.104007 0.415525 -0.051844
v -0.107652 0.423491 -0.007522
v -0.103952 0.416157 -0.052966
v -0.103976 0.415847 -0.051760
v -0.103928 0.416394 -0.052732
v -0.103945 0.416167 -0.051850
v -0.103918 0.416483 -0.052411
v -0.103924 0.416400 -0.052088
v -0.107214 0.422645 -0.006076
v -0.107173 0.422568 -0.006143
v -0.107205 0.422743 -0.006028
v -0.107095 0.422533 -0.006211
v -0.107150 0.422836 -0.006012
v -0.106999 0.422549 -0.006261
v -0.107062 0.422899 -0.006031
v -0.106911 0.422612 -0.006281
v -0.106966 0.422915 -0.006082
v -0.106856 0.422705 -0.006264
v -0.106888 0.422880 -0.006149
v -0.106847 0.422803 -0.006216
v -0.106348 0.421855 -0.004671
v -0.106310 0.421783 -0.004737
v -0.106340 0.421949 -0.004625
v -0.106237 0.421751 -0.004805
v -0.106288 0.422039 -0.004611
v -0.106147 0.421768 -0.004856
v -0.106206 0.422101 -0.004633
v -0.106065 0.421830 -0.004878
v -0.106116 0.422118 -0.004685
v -0.106014 0.421920 -0.004864
v -0.106043 0.422087 -0.004752
v -0.106005 0.422014 -0.004818
v -0.105403 0.421194 -0.003438
v -0.105368 0.421125 -0.003505
v -0.105397 0.421286 -0.003397
v -0.105303 0.421098 -0.003577
v -0.105353 0.421377 -0.003390
v -0.105224 0.421120 -0.003637
v -0.105281 0.421443 -0.003421
v -0.105152 0.421185 -0.003668
v -0.105202 0.421465 -0.003481
v -0.105108 0.421276 -0.003662
v -0.105137 0.421438 -0.003554
v -0.105102 0.421369 -0.003620
v -0.104111 0.420620 -0.002224
v -0.104080 0.420554 -0.002290
v -0.104108 0.420711 -0.002186
v -0.104023 0.420531 -0.002367
v -0.104072 0.420803 -0.002187
v -0.103956 0.420557 -0.002435
v -0.104013 0.420871 -0.002227
v -0.103897 0.420625 -0.002474
v -0.103946 0.420896 -0.002294
v -0.103861 0.420717 -0.002475
v -0.103889 0.420873 -0.002371
v -0.103858 0.420808 -0.002438
v -0.102556 0.420126 -0.001049
v -0.102528 0.420063 -0.001115
v -0.102556 0.420214 -0.001014
v -0.102478 0.420042 -0.001194
v -0.102526 0.420305 -0.001019
v -0.100418 0.414971 -0.052825
v -0.100405 0.414882 -0.052487
v -0.100417 0.415216 -0.053074
v -0.100384 0.414974 -0.052151
v -0.100404 0.415553 -0.053167
v -0.100358 0.415222 -0.051906
v -0.102421 0.420070 -0.001264
v -0.102476 0.420373 -0.001063
v -0.100382 0.415890 -0.053079
v -0.100336 0.415560 -0.051818
v -0.100357 0.416139 -0.052834
v -0.100323 0.415897 -0.051911
v -0.102371 0.420138 -0.001308
v -0.102419 0.420401 -0.001134
v -0.100335 0.416231 -0.052498
v -0.100323 0.416142 -0.052160
v -0.102341 0.420228 -0.001314
v -0.102369 0.420380 -0.001213
v -0.102341 0.420317 -0.001279
v -0.100814 0.419699 0.000074
v -0.100789 0.419638 0.000009
v -0.100815 0.419785 0.000107
v -0.100745 0.419620 -0.000070
v -0.100791 0.419874 0.000099
v -0.100695 0.419647 -0.000142
v -0.100748 0.419941 0.000053
v -0.100651 0.419715 -0.000188
v -0.100697 0.419969 -0.000019
v -0.100627 0.419803 -0.000195
v -0.100653 0.419950 -0.000098
v -0.100628 0.419889 -0.000162
v -0.098960 0.419328 0.001131
v -0.098937 0.419270 0.001068
v -0.098962 0.419411 0.001162
v -0.098898 0.419252 0.000990
v -0.098941 0.419497 0.001153
v -0.098853 0.419280 0.000918
v -0.098903 0.419563 0.001107
v -0.098815 0.419346 0.000871
v -0.098859 0.419591 0.001035
v -0.098794 0.419432 0.000862
v -0.098819 0.419573 0.000957
v -0.098796 0.419515 0.000894
v -0.097473 0.415125 -0.053325
v -0.097441 0.414868 -0.053068
v -0.097488 0.415477 -0.053420
v -0.097401 0.414774 -0.052717
v -0.097482 0.415831 -0.053327
v -0.097364 0.414870 -0.052366
v -0.097457 0.416090 -0.053071
v -0.097339 0.415130 -0.052110
v -0.097420 0.416186 -0.052720
v -0.097333 0.415483 -0.052017
v -0.097380 0.416093 -0.052369
v -0.097348 0.415836 -0.052112
v -0.097070 0.419002 0.002108
v -0.097048 0.418946 0.002046
v -0.097071 0.419082 0.002138
v -0.097013 0.418930 0.001970
v -0.097053 0.419166 0.002128
v -0.096973 0.418957 0.001899
v -0.097019 0.419230 0.002082
v -0.096939 0.419021 0.001853
v -0.096979 0.419257 0.002011
v -0.096921 0.419104 0.001843
v -0.096944 0.419240 0.001935
v -0.096922 0.419185 0.001873
v -0.095090 0.415603 -0.053797
v -0.095035 0.415238 -0.053703
v -0.095110 0.415971 -0.053696
v -0.095089 0.416241 -0.053428
v -0.095033 0.416342 -0.053064
v -0.094958 0.414972 -0.053441
v -0.094957 0.416247 -0.052703
v -0.094882 0.414877 -0.053080
v -0.094880 0.415981 -0.052441
v -0.094826 0.414978 -0.052717
v -0.094805 0.415249 -0.052449
v -0.094825 0.415616 -0.052348
v -0.095218 0.418711 0.002990
v -0.095199 0.418657 0.002930
v -0.095219 0.418788 0.003019
v -0.095167 0.418641 0.002855
v -0.095202 0.418868 0.003010
v -0.095130 0.418668 0.002786
v -0.095171 0.418930 0.002964
v -0.095099 0.418730 0.002741
v -0.095135 0.418957 0.002895
v -0.095082 0.418810 0.002731
v -0.095103 0.418941 0.002820
v -0.095084 0.418887 0.002760
v -0.093481 0.418443 0.003762
v -0.093464 0.418391 0.003704
v -0.093481 0.418517 0.003790
v -0.093435 0.418377 0.003631
v -0.093465 0.418594 0.003781
v -0.093401 0.418403 0.003564
v -0.093436 0.418654 0.003737
v -0.093373 0.418462 0.003520
v -0.093403 0.418680 0.003670
v -0.093116 0.416303 -0.054172
v -0.093063 0.415926 -0.054284
v -0.093103 0.416583 -0.053891
v -0.093027 0.416692 -0.053516
v -0.093356 0.418539 0.003511
v -0.093357 0.418614 0.003539
v -0.093374 0.418665 0.003597
v -0.092957 0.415553 -0.054198
v -0.092909 0.416599 -0.053149
v -0.092829 0.415284 -0.053936
v -0.092780 0.416330 -0.052886
v -0.092710 0.415191 -0.053568
v -0.092675 0.415957 -0.052800
v -0.092635 0.415299 -0.053193
v -0.092622 0.415579 -0.052912
v -0.091935 0.418189 0.004409
v -0.091921 0.418140 0.004352
v -0.091934 0.418260 0.004437
v -0.091895 0.418126 0.004282
v -0.091917 0.418334 0.004429
v -0.091863 0.418151 0.004217
v -0.091889 0.418391 0.004386
v -0.091835 0.418208 0.004174
v -0.091858 0.418416 0.004321
v -0.091819 0.418282 0.004166
v -0.091831 0.418402 0.004251
v -0.091817 0.418353 0.004194
v -0.091337 0.417114 -0.054452
v -0.091338 0.416826 -0.054748
v -0.091245 0.417230 -0.054067
v -0.091250 0.416443 -0.054875
v -0.091089 0.417143 -0.053694
v -0.091095 0.416068 -0.054799
v -0.090909 0.416876 -0.053435
v -0.090915 0.415801 -0.054540
v -0.090754 0.416501 -0.053359
v -0.090758 0.415714 -0.054168
v -0.090665 0.416118 -0.053486
v -0.090667 0.415830 -0.053782
v -0.090658 0.417938 0.004914
v -0.090647 0.417892 0.004859
v -0.090653 0.418005 0.004943
v -0.090624 0.417879 0.004791
v -0.090633 0.418076 0.004936
v -0.090594 0.417903 0.004728
v -0.090605 0.418130 0.004896
v -0.090565 0.417957 0.004689
v -0.090575 0.418154 0.004834
v -0.090546 0.418027 0.004682
v -0.090551 0.418141 0.004766
v -0.090541 0.418095 0.004710
v -0.089629 0.417839 -0.055110
v -0.089618 0.417545 -0.055422
v -0.089528 0.417962 -0.054711
v -0.089499 0.417158 -0.055563
v -0.089344 0.417880 -0.054333
v -0.089303 0.416782 -0.055497
v -0.089125 0.417616 -0.054076
v -0.089084 0.416518 -0.055240
v -0.088929 0.417240 -0.054009
v -0.088899 0.416436 -0.054861
v -0.088810 0.416853 -0.054151
v -0.088799 0.416558 -0.054463
v -0.089725 0.417640 0.005206
v -0.089705 0.417629 0.005140
v -0.089728 0.417682 0.005262
v -0.089715 0.417744 0.005293
v -0.089674 0.417651 0.005081
v -0.089687 0.417808 0.005290
v -0.089654 0.417858 0.005254
v -0.089641 0.417701 0.005046
v -0.089614 0.417765 0.005043
v -0.089623 0.417880 0.005195
v -0.089600 0.417827 0.005073
v -0.089603 0.417869 0.005129
v -0.089242 0.417391 0.005376
v -0.089228 0.417383 0.005311
v -0.089230 0.417421 0.005435
v -0.089196 0.417465 0.005471
v -0.089192 0.417400 0.005257
v -0.089149 0.417512 0.005476
v -0.089145 0.417437 0.005229
v -0.089101 0.417549 0.005447
v -0.089098 0.417484 0.005233
v -0.087827 0.418765 -0.055860
v -0.087805 0.418466 -0.056188
v -0.089064 0.417529 0.005270
v -0.087726 0.418892 -0.055446
v -0.089066 0.417566 0.005393
v -0.089052 0.417559 0.005328
v -0.087527 0.418810 -0.055056
v -0.087663 0.418073 -0.056342
v -0.087284 0.418544 -0.054796
v -0.087442 0.417692 -0.056281
v -0.087062 0.418163 -0.054735
v -0.087199 0.417426 -0.056020
v -0.086921 0.417771 -0.054889
v -0.087000 0.417345 -0.055631
v -0.086898 0.417471 -0.055217
v -0.085792 0.419895 -0.056693
v -0.085694 0.420021 -0.056261
v -0.085759 0.419589 -0.057037
v -0.085492 0.419935 -0.055856
v -0.085605 0.419187 -0.057199
v -0.085240 0.419659 -0.055587
v -0.085370 0.418795 -0.057137
v -0.085006 0.419268 -0.055525
v -0.085118 0.418519 -0.056868
v -0.084851 0.418865 -0.055688
v -0.084916 0.418433 -0.056463
v -0.084819 0.418560 -0.056031
v -0.083386 0.421222 -0.057595
v -0.083296 0.421347 -0.057144
v -0.083346 0.420909 -0.057953
v -0.083100 0.421251 -0.056721
v -0.083186 0.420493 -0.058121
v -0.082850 0.420960 -0.056438
v -0.082949 0.420085 -0.058055
v -0.082613 0.420552 -0.056372
v -0.082699 0.419794 -0.057772
v -0.082453 0.420136 -0.056540
v -0.082503 0.419698 -0.057349
v -0.082413 0.419823 -0.056898
v -0.080475 0.422739 -0.058551
v -0.080395 0.422862 -0.058080
v -0.080429 0.422419 -0.058921
v -0.080209 0.422754 -0.057637
v -0.080268 0.421986 -0.059094
v -0.079969 0.422445 -0.057339
v -0.080037 0.421558 -0.059021
v -0.079737 0.422016 -0.057267
v -0.079796 0.421248 -0.058724
v -0.079577 0.421583 -0.057439
v -0.079611 0.421140 -0.058280
v -0.079530 0.421263 -0.057810
v -0.076922 0.424440 -0.059545
v -0.076852 0.424560 -0.059056
v -0.076871 0.424110 -0.059929
v -0.076680 0.424440 -0.058593
v -0.076713 0.423660 -0.060104
v -0.076453 0.424110 -0.058280
v -0.076491 0.423209 -0.060025
v -0.076231 0.423660 -0.058201
v -0.076264 0.422880 -0.059712
v -0.076073 0.423209 -0.058376
v -0.076092 0.422759 -0.059249
v -0.076023 0.422880 -0.058760
v -0.103654 0.420626 -0.001964
v -0.102749 0.421481 -0.001036
v -0.103635 0.420572 -0.001919
v -0.103642 0.420666 -0.002024
v -0.102762 0.421538 -0.001074
v -0.102711 0.421425 -0.001024
v -0.103590 0.420518 -0.001901
v -0.103601 0.420680 -0.002083
v -0.102746 0.421580 -0.001127
v -0.103543 0.420666 -0.002125
v -0.102706 0.421596 -0.001180
v -0.102657 0.421384 -0.001040
v -0.103530 0.420478 -0.001915
v -0.103484 0.420626 -0.002139
v -0.102651 0.421582 -0.001220
v -0.102603 0.421370 -0.001080
v -0.103472 0.420463 -0.001957
v -0.103438 0.420572 -0.002121
v -0.102597 0.421541 -0.001237
v -0.102562 0.421386 -0.001134
v -0.103432 0.420478 -0.002016
v -0.102546 0.421428 -0.001187
v -0.103419 0.420518 -0.002076
v -0.102559 0.421485 -0.001224
v -0.101885 0.422164 -0.000137
v -0.101892 0.422221 -0.000168
v -0.101853 0.422107 -0.000130
v -0.101873 0.422264 -0.000214
v -0.101805 0.422067 -0.000149
v -0.101833 0.422281 -0.000263
v -0.101754 0.422053 -0.000188
v -0.101782 0.422267 -0.000301
v -0.101714 0.422069 -0.000236
v -0.101735 0.422226 -0.000320
v -0.101695 0.422112 -0.000282
v -0.101703 0.422169 -0.000313
v -0.101021 0.422675 0.000767
v -0.100995 0.422619 0.000770
v -0.101024 0.422731 0.000742
v -0.101004 0.422773 0.000702
v -0.100953 0.422579 0.000749
v -0.100965 0.422789 0.000657
v -0.100906 0.422565 0.000712
v -0.100919 0.422775 0.000619
v -0.100868 0.422582 0.000667
v -0.100877 0.422735 0.000599
v -0.100847 0.422623 0.000626
v -0.100850 0.422680 0.000601
v -0.100138 0.423068 0.001665
v -0.100116 0.423015 0.001665
v -0.100139 0.423122 0.001644
v -0.100079 0.422976 0.001643
v -0.100119 0.423162 0.001608
v -0.100083 0.423177 0.001565
v -0.100037 0.422963 0.001607
v -0.100040 0.423163 0.001528
v -0.100001 0.422978 0.001564
v -0.099981 0.423017 0.001528
v -0.100003 0.423125 0.001507
v -0.099981 0.423071 0.001507
v -0.099217 0.423399 0.002545
v -0.099198 0.423348 0.002544
v -0.099217 0.423449 0.002526
v -0.099165 0.423312 0.002522
v -0.099198 0.423486 0.002492
v -0.099127 0.423298 0.002486
v -0.099165 0.423500 0.002451
v -0.099094 0.423312 0.002445
v -0.099127 0.423487 0.002415
v -0.099076 0.423349 0.002411
v -0.099095 0.423450 0.002394
v -0.099076 0.423399 0.002392
v -0.098236 0.423721 0.003395
v -0.098219 0.423674 0.003393
v -0.098237 0.423768 0.003377
v -0.098190 0.423639 0.003372
v -0.098221 0.423801 0.003344
v -0.098156 0.423626 0.003337
v -0.098193 0.423813 0.003304
v -0.098128 0.423638 0.003298
v -0.098160 0.423800 0.003269
v -0.098112 0.423672 0.003264
v -0.098130 0.423766 0.003248
v -0.098113 0.423719 0.003246
v -0.097178 0.424089 0.004203
v -0.097161 0.424046 0.004202
v -0.097181 0.424132 0.004184
v -0.097134 0.424014 0.004182
v -0.097169 0.424162 0.004151
v -0.097105 0.424001 0.004148
v -0.097145 0.424172 0.004113
v -0.097082 0.424012 0.004109
v -0.097116 0.424159 0.004079
v -0.097070 0.424042 0.004077
v -0.097090 0.424127 0.004059
v -0.097073 0.424084 0.004058
v -0.096004 0.424520 0.004956
v -0.095980 0.424491 0.004938
v -0.096021 0.424559 0.004956
v -0.096027 0.424597 0.004937
v -0.096019 0.424623 0.004904
v -0.096001 0.424631 0.004867
v -0.095955 0.424478 0.004905
v -0.095976 0.424619 0.004835
v -0.095936 0.424486 0.004868
v -0.095929 0.424513 0.004836
v -0.095934 0.424550 0.004817
v -0.095951 0.424589 0.004817
v -0.094748 0.425184 0.005642
v -0.094730 0.425150 0.005644
v -0.094756 0.425217 0.005623
v -0.094753 0.425239 0.005592
v -0.094708 0.425124 0.005627
v -0.094739 0.425245 0.005557
v -0.094686 0.425112 0.005597
v -0.094718 0.425233 0.005527
v -0.094672 0.425118 0.005562
v -0.094695 0.425207 0.005510
v -0.094669 0.425140 0.005531
v -0.094677 0.425172 0.005512
v -0.093319 0.425991 0.006254
v -0.093299 0.425967 0.006239
v -0.093338 0.426020 0.006251
v -0.093348 0.426048 0.006233
v -0.093349 0.426066 0.006203
v -0.093338 0.426070 0.006170
v -0.093280 0.425956 0.006212
v -0.093320 0.426058 0.006143
v -0.093270 0.425960 0.006179
v -0.093270 0.425978 0.006149
v -0.093281 0.426005 0.006130
v -0.093299 0.426035 0.006128
v -0.091771 0.427121 0.006771
v -0.091753 0.427096 0.006774
v -0.091783 0.427144 0.006754
v -0.091786 0.427158 0.006726
v -0.091779 0.427160 0.006696
v -0.091733 0.427076 0.006761
v -0.091763 0.427149 0.006672
v -0.091718 0.427065 0.006736
v -0.091744 0.427129 0.006659
v -0.091711 0.427067 0.006706
v -0.091714 0.427081 0.006679
v -0.091726 0.427104 0.006662
v -0.090010 0.428521 0.007193
v -0.089992 0.428503 0.007182
v -0.090026 0.428561 0.007102
v -0.090009 0.428544 0.007091
v -0.090027 0.428541 0.007190
v -0.090039 0.428571 0.007123
v -0.090044 0.428570 0.007150
v -0.090040 0.428560 0.007175
v -0.089979 0.428505 0.007109
v -0.089992 0.428523 0.007093
v -0.089974 0.428494 0.007133
v -0.089979 0.428493 0.007160
v -0.112671 0.433098 -0.020315
v -0.111999 0.433577 -0.017940
v -0.112645 0.433015 -0.020305
v -0.112653 0.433181 -0.020337
v -0.112025 0.433656 -0.017955
v -0.111937 0.433519 -0.017941
v -0.112582 0.432954 -0.020309
v -0.112597 0.433241 -0.020364
v -0.112010 0.433735 -0.017980
v -0.111856 0.433497 -0.017958
v -0.112499 0.432932 -0.020327
v -0.112516 0.433263 -0.020391
v -0.111956 0.433793 -0.018011
v -0.111779 0.433519 -0.017985
v -0.112419 0.432954 -0.020353
v -0.112434 0.433241 -0.020408
v -0.111878 0.433815 -0.018038
v -0.112371 0.433181 -0.020413
v -0.111797 0.433793 -0.018054
v -0.111725 0.433577 -0.018015
v -0.112362 0.433015 -0.020381
v -0.111709 0.433656 -0.018041
v -0.112345 0.433098 -0.020403
v -0.111736 0.433735 -0.018055
v -0.111467 0.434274 -0.015931
v -0.111440 0.434199 -0.015912
v -0.111453 0.434350 -0.015961
v -0.111379 0.434144 -0.015910
v -0.111401 0.434405 -0.015994
v -0.111300 0.434123 -0.015925
v -0.111326 0.434425 -0.016021
v -0.111225 0.434143 -0.015952
v -0.111248 0.434405 -0.016036
v -0.111174 0.434199 -0.015985
v -0.111187 0.434350 -0.016033
v -0.111160 0.434274 -0.016015
v -0.110983 0.434944 -0.014190
v -0.110956 0.434873 -0.014167
v -0.110971 0.435015 -0.014224
v -0.110896 0.434821 -0.014162
v -0.110922 0.435067 -0.014260
v -0.110819 0.434802 -0.014174
v -0.110850 0.435086 -0.014288
v -0.110747 0.434821 -0.014202
v -0.110774 0.435067 -0.014300
v -0.110698 0.434873 -0.014238
v -0.110686 0.434944 -0.014272
v -0.110714 0.435015 -0.014295
v -0.110564 0.435657 -0.012679
v -0.110536 0.435590 -0.012652
v -0.110554 0.435724 -0.012716
v -0.110477 0.435541 -0.012643
v -0.110507 0.435773 -0.012754
v -0.110403 0.435523 -0.012654
v -0.110438 0.435791 -0.012782
v -0.110333 0.435541 -0.012682
v -0.110363 0.435773 -0.012793
v -0.110287 0.435590 -0.012720
v -0.110304 0.435724 -0.012784
v -0.110276 0.435657 -0.012757
v -0.110198 0.436405 -0.011343
v -0.110170 0.436343 -0.011313
v -0.110189 0.436467 -0.011383
v -0.110112 0.436297 -0.011301
v -0.110145 0.436513 -0.011422
v -0.110040 0.436280 -0.011311
v -0.110078 0.436530 -0.011450
v -0.109973 0.436297 -0.011339
v -0.110005 0.436514 -0.011459
v -0.109929 0.436343 -0.011378
v -0.109948 0.436468 -0.011447
v -0.109919 0.436406 -0.011418
v -0.109874 0.437179 -0.010129
v -0.109846 0.437121 -0.010097
v -0.109865 0.437238 -0.010170
v -0.109789 0.437078 -0.010084
v -0.109823 0.437281 -0.010209
v -0.109719 0.437063 -0.010091
v -0.109759 0.437297 -0.010237
v -0.109654 0.437079 -0.010119
v -0.109688 0.437282 -0.010245
v -0.109612 0.437122 -0.010158
v -0.109632 0.437239 -0.010231
v -0.109604 0.437181 -0.010199
v -0.109580 0.437972 -0.008983
v -0.109552 0.437917 -0.008951
v -0.109572 0.438028 -0.009024
v -0.109497 0.437877 -0.008936
v -0.109531 0.438069 -0.009062
v -0.109430 0.437862 -0.008943
v -0.109469 0.438085 -0.009089
v -0.109367 0.437878 -0.008969
v -0.109401 0.438071 -0.009095
v -0.109327 0.437919 -0.009008
v -0.109346 0.438030 -0.009081
v -0.109319 0.437975 -0.009049
v -0.109305 0.438775 -0.007851
v -0.109278 0.438722 -0.007820
v -0.109297 0.438829 -0.007890
v -0.109225 0.438683 -0.007805
v -0.109258 0.438869 -0.007927
v -0.109160 0.438670 -0.007811
v -0.109198 0.438884 -0.007952
v -0.109099 0.438685 -0.007836
v -0.109132 0.438871 -0.007958
v -0.109060 0.438725 -0.007873
v -0.109079 0.438833 -0.007943
v -0.109053 0.438779 -0.007912
v -0.109038 0.439580 -0.006679
v -0.109012 0.439528 -0.006650
v -0.109030 0.439632 -0.006716
v -0.108962 0.439490 -0.006637
v -0.108992 0.439672 -0.006750
v -0.108899 0.439478 -0.006642
v -0.108934 0.439687 -0.006773
v -0.108840 0.439493 -0.006665
v -0.108871 0.439675 -0.006778
v -0.108802 0.439533 -0.006699
v -0.108820 0.439637 -0.006764
v -0.108795 0.439585 -0.006736
v -0.108767 0.440378 -0.005414
v -0.108743 0.440327 -0.005389
v -0.108759 0.440430 -0.005447
v -0.108695 0.440290 -0.005377
v -0.108723 0.440469 -0.005477
v -0.108634 0.440278 -0.005382
v -0.108666 0.440485 -0.005498
v -0.108578 0.440294 -0.005403
v -0.108606 0.440473 -0.005503
v -0.108541 0.440333 -0.005434
v -0.108534 0.440385 -0.005466
v -0.108557 0.440436 -0.005491
v -0.108460 0.441111 -0.003980
v -0.108414 0.441075 -0.003971
v -0.108482 0.441162 -0.004002
v -0.108474 0.441213 -0.004030
v -0.108438 0.441252 -0.004057
v -0.108356 0.441063 -0.003976
v -0.108384 0.441268 -0.004075
v -0.108301 0.441079 -0.003994
v -0.108326 0.441256 -0.004080
v -0.108266 0.441118 -0.004021
v -0.108280 0.441220 -0.004071
v -0.108258 0.441170 -0.004049
v -0.108150 0.441873 -0.002371
v -0.108107 0.441837 -0.002363
v -0.108171 0.441923 -0.002388
v -0.108163 0.441974 -0.002412
v -0.108051 0.441826 -0.002369
v -0.108128 0.442012 -0.002435
v -0.108076 0.442028 -0.002451
v -0.107999 0.441842 -0.002385
v -0.108020 0.442017 -0.002457
v -0.107964 0.441880 -0.002408
v -0.107977 0.441981 -0.002450
v -0.107956 0.441931 -0.002432
v -0.115692 0.425310 -0.031139
v -0.115648 0.425247 -0.030940
v -0.115709 0.425179 -0.031085
v -0.115593 0.425124 -0.030901
v -0.115659 0.425049 -0.031059
v -0.115636 0.425370 -0.031006
v -0.115611 0.425405 -0.031206
v -0.115485 0.425034 -0.030899
v -0.115554 0.424953 -0.031068
v -0.115547 0.425381 -0.030686
v -0.115491 0.425261 -0.030644
v -0.115559 0.425461 -0.031081
v -0.115536 0.425501 -0.030755
v -0.115488 0.425440 -0.031270
v -0.115382 0.425174 -0.030639
v -0.115352 0.425002 -0.030935
v -0.115422 0.424918 -0.031110
v -0.115413 0.425569 -0.030340
v -0.115357 0.425452 -0.030297
v -0.115461 0.425590 -0.030831
v -0.115438 0.425495 -0.031145
v -0.115402 0.425687 -0.030409
v -0.115251 0.425143 -0.030672
v -0.115249 0.425366 -0.030291
v -0.115357 0.425405 -0.031312
v -0.115342 0.425623 -0.030894
v -0.115328 0.425775 -0.030484
v -0.115306 0.425463 -0.031180
v -0.115232 0.425035 -0.030999
v -0.115299 0.424953 -0.031173
v -0.115253 0.425801 -0.029917
v -0.115197 0.425685 -0.029875
v -0.115242 0.425918 -0.029985
v -0.115120 0.425337 -0.030323
v -0.115132 0.425177 -0.030735
v -0.115251 0.425310 -0.031321
v -0.115091 0.425602 -0.029868
v -0.115211 0.425808 -0.030546
v -0.115211 0.425592 -0.030927
v -0.115169 0.426004 -0.030059
v -0.115155 0.425126 -0.031074
v -0.115218 0.425049 -0.031241
v -0.115198 0.425373 -0.031179
v -0.115002 0.425370 -0.030385
v -0.115201 0.425179 -0.031295
v -0.114963 0.425572 -0.029899
v -0.115074 0.426065 -0.029433
v -0.115019 0.425951 -0.029391
v -0.115063 0.426181 -0.029499
v -0.115057 0.425265 -0.030811
v -0.115143 0.425250 -0.031140
v -0.115103 0.425505 -0.030922
v -0.115081 0.425778 -0.030578
v -0.114915 0.425869 -0.029384
v -0.115053 0.426037 -0.030119
v -0.115046 0.425386 -0.030880
v -0.114991 0.426266 -0.029571
v -0.114928 0.425457 -0.030460
v -0.114847 0.425606 -0.029959
v -0.114974 0.425693 -0.030571
v -0.114788 0.425840 -0.029414
v -0.114925 0.426008 -0.030150
v -0.114883 0.426351 -0.028902
v -0.114829 0.426238 -0.028861
v -0.114918 0.425575 -0.030528
v -0.114876 0.426299 -0.029630
v -0.114872 0.426465 -0.028966
v -0.114726 0.426157 -0.028854
v -0.114774 0.425692 -0.030033
v -0.114800 0.426550 -0.029037
v -0.114819 0.425924 -0.030143
v -0.114673 0.425873 -0.029473
v -0.114763 0.425809 -0.030100
v -0.114600 0.426129 -0.028883
v -0.114749 0.426271 -0.029660
v -0.114687 0.426583 -0.029094
v -0.114686 0.426647 -0.028340
v -0.114633 0.426535 -0.028300
v -0.114675 0.426760 -0.028402
v -0.114600 0.425959 -0.029545
v -0.114645 0.426189 -0.029653
v -0.114531 0.426455 -0.028293
v -0.114604 0.426845 -0.028470
v -0.114487 0.426162 -0.028940
v -0.114590 0.426074 -0.029611
v -0.114561 0.426556 -0.029123
v -0.114408 0.426428 -0.028321
v -0.114491 0.426878 -0.028525
v -0.114491 0.426942 -0.027762
v -0.114439 0.426831 -0.027724
v -0.114415 0.426247 -0.029010
v -0.114480 0.427054 -0.027822
v -0.114458 0.426474 -0.029116
v -0.114339 0.426752 -0.027717
v -0.114404 0.426362 -0.029074
v -0.114295 0.426461 -0.028376
v -0.114409 0.427139 -0.027887
v -0.114368 0.426851 -0.028553
v -0.114216 0.426726 -0.027743
v -0.114224 0.426546 -0.028444
v -0.114297 0.427172 -0.027940
v -0.114303 0.427225 -0.027183
v -0.114253 0.427115 -0.027147
v -0.114292 0.427337 -0.027240
v -0.114266 0.426771 -0.028546
v -0.114154 0.427037 -0.027140
v -0.114213 0.426659 -0.028506
v -0.114105 0.426760 -0.027796
v -0.114221 0.427421 -0.027301
v -0.114175 0.427146 -0.027966
v -0.114033 0.427012 -0.027165
v -0.114034 0.426844 -0.027861
v -0.114074 0.427067 -0.027959
v -0.114111 0.427455 -0.027352
v -0.114131 0.427485 -0.026619
v -0.114082 0.427376 -0.026585
v -0.114119 0.427597 -0.026671
v -0.113985 0.427299 -0.026579
v -0.114023 0.426957 -0.027921
v -0.113923 0.427046 -0.027215
v -0.114048 0.427682 -0.026729
v -0.113990 0.427430 -0.027377
v -0.113865 0.427274 -0.026602
v -0.113980 0.427711 -0.026085
v -0.113933 0.427602 -0.026054
v -0.113852 0.427130 -0.027277
v -0.113938 0.427716 -0.026776
v -0.113967 0.427823 -0.026132
v -0.113891 0.427352 -0.027370
v -0.113837 0.427526 -0.026049
v -0.113896 0.427908 -0.026184
v -0.113840 0.427242 -0.027334
v -0.113755 0.427309 -0.026649
v -0.113719 0.427503 -0.026070
v -0.113819 0.427692 -0.026799
v -0.113858 0.427892 -0.025593
v -0.113810 0.427786 -0.025562
v -0.113845 0.428003 -0.025641
v -0.113715 0.427712 -0.025554
v -0.113787 0.427944 -0.026227
v -0.113695 0.441310 -0.022948
v -0.113937 0.442045 -0.023301
v -0.113937 0.442070 -0.023240
v -0.113660 0.441292 -0.023005
v -0.113907 0.442034 -0.023357
v -0.113696 0.441342 -0.022886
v -0.113906 0.442101 -0.023192
v -0.113685 0.427394 -0.026707
v -0.113721 0.427615 -0.026793
v -0.113775 0.428087 -0.025691
v -0.113601 0.441291 -0.023043
v -0.113854 0.442040 -0.023395
v -0.113664 0.441378 -0.022836
v -0.113853 0.442131 -0.023170
v -0.113672 0.427506 -0.026759
v -0.113610 0.427539 -0.026113
v -0.113598 0.427690 -0.025573
v -0.113362 0.428836 -0.023404
v -0.113314 0.428740 -0.023361
v -0.113353 0.428936 -0.023463
v -0.113533 0.441308 -0.023050
v -0.113793 0.442061 -0.023404
v -0.113606 0.441409 -0.022811
v -0.113792 0.442152 -0.023178
v -0.113669 0.427921 -0.026248
v -0.113220 0.428673 -0.023344
v -0.113666 0.428124 -0.025730
v -0.113476 0.441338 -0.023025
v -0.113740 0.442091 -0.023381
v -0.113539 0.441426 -0.022818
v -0.113739 0.442157 -0.023216
v -0.113287 0.429013 -0.023520
v -0.113539 0.427624 -0.026165
v -0.113444 0.441374 -0.022974
v -0.113709 0.442122 -0.023333
v -0.113480 0.441425 -0.022855
v -0.113709 0.442147 -0.023273
v -0.113490 0.427726 -0.025613
v -0.113573 0.427845 -0.026243
v -0.113107 0.428654 -0.023359
v -0.113445 0.441406 -0.022912
v -0.113446 0.440370 -0.022434
v -0.113408 0.440347 -0.022494
v -0.113448 0.440405 -0.022369
v -0.113525 0.427736 -0.026212
v -0.113549 0.428102 -0.025749
v -0.113184 0.429046 -0.023562
v -0.113344 0.440342 -0.022532
v -0.113414 0.440443 -0.022315
v -0.113420 0.427811 -0.025663
v -0.113004 0.428687 -0.023400
v -0.113272 0.440357 -0.022537
v -0.113352 0.440473 -0.022287
v -0.113454 0.428028 -0.025741
v -0.113407 0.427921 -0.025710
v -0.113071 0.429027 -0.023576
v -0.113210 0.440388 -0.022510
v -0.113279 0.440488 -0.022293
v -0.112938 0.428764 -0.023458
v -0.113175 0.440426 -0.022456
v -0.113215 0.440484 -0.022331
v -0.112977 0.428960 -0.023559
v -0.113207 0.439262 -0.021838
v -0.113167 0.439237 -0.021902
v -0.113209 0.439297 -0.021768
v -0.113177 0.440461 -0.022390
v -0.112929 0.428864 -0.023516
v -0.113098 0.439231 -0.021941
v -0.113172 0.439335 -0.021709
v -0.113006 0.429949 -0.021837
v -0.112955 0.429871 -0.021776
v -0.113001 0.430030 -0.021914
v -0.113021 0.439244 -0.021946
v -0.113105 0.439365 -0.021678
v -0.112862 0.429817 -0.021746
v -0.112942 0.430093 -0.021985
v -0.112954 0.439274 -0.021915
v -0.113028 0.439378 -0.021683
v -0.112752 0.429802 -0.021756
v -0.112992 0.438024 -0.021238
v -0.112949 0.438001 -0.021307
v -0.112993 0.438058 -0.021162
v -0.112917 0.439311 -0.021856
v -0.112959 0.439371 -0.021722
v -0.112844 0.430120 -0.022031
v -0.112877 0.437994 -0.021348
v -0.112953 0.438093 -0.021097
v -0.112919 0.439347 -0.021786
v -0.112655 0.429829 -0.021802
v -0.112794 0.438006 -0.021352
v -0.112881 0.438120 -0.021062
v -0.112734 0.430104 -0.022041
v -0.112596 0.429891 -0.021873
v -0.112775 0.431194 -0.020817
v -0.112722 0.431141 -0.020740
v -0.112774 0.431249 -0.020908
v -0.112815 0.436697 -0.020713
v -0.112771 0.436677 -0.020787
v -0.112815 0.436725 -0.020630
v -0.112723 0.438033 -0.021317
v -0.112799 0.438131 -0.021066
v -0.112642 0.430050 -0.022011
v -0.112591 0.429972 -0.021950
v -0.112631 0.431105 -0.020699
v -0.112721 0.431291 -0.020990
v -0.112695 0.436671 -0.020832
v -0.112771 0.436753 -0.020559
v -0.112683 0.438068 -0.021253
v -0.112684 0.438101 -0.021176
v -0.112726 0.438125 -0.021108
v -0.112607 0.436681 -0.020835
v -0.112695 0.436775 -0.020519
v -0.112525 0.431095 -0.020704
v -0.112628 0.431310 -0.021041
v -0.112691 0.435317 -0.020342
v -0.112645 0.435306 -0.020422
v -0.112690 0.435334 -0.020250
v -0.112531 0.436703 -0.020796
v -0.112608 0.436785 -0.020522
v -0.112655 0.432532 -0.020265
v -0.112602 0.432507 -0.020180
v -0.112657 0.432557 -0.020363
v -0.112565 0.435302 -0.020469
v -0.112642 0.435352 -0.020172
v -0.112432 0.431113 -0.020755
v -0.112522 0.431300 -0.021046
v -0.112513 0.432491 -0.020133
v -0.112607 0.432578 -0.020450
v -0.112487 0.436732 -0.020724
v -0.112532 0.436779 -0.020567
v -0.112633 0.433925 -0.020200
v -0.112586 0.433926 -0.020285
v -0.112631 0.433924 -0.020102
v -0.112473 0.435309 -0.020471
v -0.112562 0.435366 -0.020128
v -0.112488 0.436759 -0.020641
v -0.112379 0.431156 -0.020837
v -0.112431 0.431263 -0.021005
v -0.112411 0.432487 -0.020136
v -0.112519 0.432587 -0.020502
v -0.112581 0.433924 -0.020019
v -0.112503 0.433928 -0.020335
v -0.112378 0.431211 -0.020928
v -0.112496 0.433926 -0.019972
v -0.112405 0.433930 -0.020337
v -0.112469 0.435372 -0.020131
v -0.112392 0.435323 -0.020428
v -0.112324 0.432496 -0.020188
v -0.112417 0.432583 -0.020505
v -0.112398 0.433927 -0.019973
v -0.112345 0.435340 -0.020350
v -0.112344 0.435357 -0.020258
v -0.112389 0.435369 -0.020178
v -0.112320 0.433931 -0.020290
v -0.112274 0.432517 -0.020275
v -0.112328 0.432567 -0.020458
v -0.112315 0.433929 -0.020024
v -0.112269 0.433932 -0.020207
v -0.112276 0.432543 -0.020374
v -0.112267 0.433931 -0.020109
usemtl Inferior_lateral_genicular_artery_rMaterial0
f 1 2 3
f 2 4 3
f 5 6 2
f 7 5 2
f 7 2 1
f 2 6 4
f 1 3 8
f 8 3 9
f 3 10 9
f 3 4 10
f 5 11 6
f 12 11 5
f 13 12 5
f 13 5 7
f 14 1 8
f 15 7 1
f 15 1 14
f 8 9 16
f 9 10 17
f 16 9 18
f 9 17 18
f 6 19 4
f 11 20 6
f 6 20 19
f 4 21 10
f 4 19 21
f 22 8 16
f 14 8 22
f 12 23 11
f 24 23 12
f 25 12 13
f 25 24 12
f 23 26 11
f 11 26 20
f 27 13 7
f 27 7 15
f 10 28 17
f 10 21 28
f 16 18 29
f 30 16 29
f 22 16 30
f 18 17 31
f 29 18 32
f 18 31 32
f 24 33 23
f 33 34 23
f 23 34 26
f 35 25 13
f 35 13 27
f 36 33 24
f 37 24 25
f 37 36 24
f 17 38 31
f 17 28 38
f 29 32 39
f 40 29 39
f 30 29 40
f 32 31 41
f 39 32 42
f 32 41 42
f 36 43 33
f 43 44 33
f 33 44 34
f 20 45 19
f 26 46 20
f 20 46 45
f 47 37 25
f 47 25 35
f 48 43 36
f 49 48 36
f 49 36 37
f 19 50 21
f 19 45 50
f 34 51 26
f 26 51 46
f 31 52 41
f 31 38 52
f 39 42 53
f 53 42 54
f 42 55 54
f 42 41 55
f 21 56 28
f 21 50 56
f 57 39 53
f 40 39 57
f 48 58 43
f 54 58 48
f 59 54 48
f 59 48 49
f 58 60 43
f 43 60 44
f 61 14 22
f 62 15 14
f 62 14 61
f 44 63 34
f 34 63 51
f 64 22 30
f 61 22 64
f 54 55 58
f 53 54 59
f 65 49 37
f 65 37 47
f 66 27 15
f 66 15 62
f 41 67 55
f 41 52 67
f 55 68 58
f 58 68 60
f 28 69 38
f 28 56 69
f 70 53 59
f 57 53 70
f 55 67 68
f 71 30 40
f 64 30 71
f 72 59 49
f 72 49 65
f 60 73 44
f 44 73 63
f 70 59 72
f 74 35 27
f 74 27 66
f 38 75 52
f 38 69 75
f 76 40 57
f 71 40 76
f 68 77 60
f 60 77 73
f 46 78 45
f 51 79 46
f 46 79 78
f 80 47 35
f 80 35 74
f 45 81 50
f 45 78 81
f 52 82 67
f 52 75 82
f 63 83 51
f 51 83 79
f 67 84 68
f 68 84 77
f 67 82 84
f 50 85 56
f 50 81 85
f 86 57 70
f 76 57 86
f 73 87 63
f 63 87 83
f 88 65 47
f 88 47 80
f 56 89 69
f 56 85 89
f 90 70 72
f 86 70 90
f 91 72 65
f 91 65 88
f 77 92 73
f 73 92 87
f 90 72 91
f 69 93 75
f 69 89 93
f 84 94 77
f 77 94 92
f 75 95 82
f 75 93 95
f 82 96 84
f 84 96 94
f 82 95 96
f 79 97 78
f 83 98 79
f 79 98 97
f 78 99 81
f 78 97 99
f 100 61 64
f 101 62 61
f 101 61 100
f 102 64 71
f 100 64 102
f 87 103 83
f 83 103 98
f 104 66 62
f 104 62 101
f 81 105 85
f 81 99 105
f 106 71 76
f 102 71 106
f 92 107 87
f 87 107 103
f 108 74 66
f 108 66 104
f 85 109 89
f 85 105 109
f 110 76 86
f 106 76 110
f 94 111 92
f 92 111 107
f 112 80 74
f 112 74 108
f 89 113 93
f 89 109 113
f 114 86 90
f 110 86 114
f 96 115 94
f 94 115 111
f 93 116 95
f 93 113 116
f 117 88 80
f 117 80 112
f 95 118 96
f 96 118 115
f 119 90 91
f 114 90 119
f 95 116 118
f 120 91 88
f 120 88 117
f 119 91 120
f 98 121 97
f 103 122 98
f 98 122 121
f 97 123 99
f 97 121 123
f 107 124 103
f 103 124 122
f 99 125 105
f 99 123 125
f 111 126 107
f 107 126 124
f 105 127 109
f 105 125 127
f 115 128 111
f 111 128 126
f 109 129 113
f 109 127 129
f 118 130 115
f 115 130 128
f 113 131 116
f 113 129 131
f 116 132 118
f 118 132 130
f 116 131 132
f 122 133 121
f 124 134 122
f 122 134 133
f 121 135 123
f 121 133 135
f 126 136 124
f 124 136 134
f 123 137 125
f 123 135 137
f 128 138 126
f 126 138 136
f 125 139 127
f 125 137 139
f 130 140 128
f 128 140 138
f 141 100 102
f 142 102 106
f 141 102 142
f 143 101 100
f 143 100 141
f 127 144 129
f 127 139 144
f 145 106 110
f 142 106 145
f 146 104 101
f 146 101 143
f 132 147 130
f 130 147 140
f 129 148 131
f 129 144 148
f 131 149 132
f 132 149 147
f 150 110 114
f 145 110 150
f 151 108 104
f 151 104 146
f 131 148 149
f 134 152 133
f 136 153 134
f 134 153 152
f 133 154 135
f 133 152 154
f 155 114 119
f 150 114 155
f 156 112 108
f 156 108 151
f 138 157 136
f 136 157 153
f 135 158 137
f 135 154 158
f 159 119 120
f 155 119 159
f 160 117 112
f 160 112 156
f 140 161 138
f 138 161 157
f 162 120 117
f 159 120 162
f 162 117 160
f 137 163 139
f 137 158 163
f 147 164 140
f 140 164 161
f 139 165 144
f 139 163 165
f 149 166 147
f 147 166 164
f 144 167 148
f 144 165 167
f 148 168 149
f 149 168 166
f 148 167 168
f 153 169 152
f 152 170 154
f 152 169 170
f 157 171 153
f 153 171 169
f 161 172 157
f 157 172 171
f 154 173 158
f 154 170 173
f 164 174 161
f 161 174 172
f 158 175 163
f 158 173 175
f 166 176 164
f 164 176 174
f 163 177 165
f 163 175 177
f 168 178 166
f 166 178 176
f 165 179 167
f 165 177 179
f 167 180 168
f 168 180 178
f 167 179 180
f 171 181 169
f 169 182 170
f 169 181 182
f 172 183 171
f 171 183 181
f 170 184 173
f 170 182 184
f 174 185 172
f 172 185 183
f 176 186 174
f 174 186 185
f 173 187 175
f 173 184 187
f 178 188 176
f 176 188 186
f 175 189 177
f 175 187 189
f 180 190 178
f 178 190 188
f 177 191 179
f 177 189 191
f 179 192 180
f 180 192 190
f 179 191 192
f 183 193 181
f 181 194 182
f 181 193 194
f 185 195 183
f 183 195 193
f 186 196 185
f 185 196 195
f 182 197 184
f 182 194 197
f 188 198 186
f 186 198 196
f 184 199 187
f 184 197 199
f 190 200 188
f 188 200 198
f 187 201 189
f 187 199 201
f 192 202 190
f 190 202 200
f 203 142 145
f 204 141 142
f 204 142 203
f 205 145 150
f 203 145 205
f 206 143 141
f 206 141 204
f 189 207 191
f 189 201 207
f 208 150 155
f 205 150 208
f 209 146 143
f 209 143 206
f 191 210 192
f 191 207 210
f 192 210 202
f 211 155 159
f 208 155 211
f 212 151 146
f 212 146 209
f 213 159 162
f 211 159 213
f 214 156 151
f 214 151 212
f 195 215 193
f 196 216 195
f 195 216 215
f 193 217 194
f 193 215 217
f 218 162 160
f 213 162 218
f 219 160 156
f 219 156 214
f 218 160 219
f 198 220 196
f 196 220 216
f 194 221 197
f 194 217 221
f 200 222 198
f 198 222 220
f 197 223 199
f 197 221 223
f 202 224 200
f 200 224 222
f 199 225 201
f 199 223 225
f 210 226 202
f 202 226 224
f 201 227 207
f 201 225 227
f 207 228 210
f 207 227 228
f 210 228 226
f 216 229 215
f 215 230 217
f 215 229 230
f 220 231 216
f 216 231 229
f 222 232 220
f 220 232 231
f 217 233 221
f 217 230 233
f 224 234 222
f 222 234 232
f 221 235 223
f 221 233 235
f 226 236 224
f 224 236 234
f 223 237 225
f 223 235 237
f 228 238 226
f 226 238 236
f 225 239 227
f 225 237 239
f 227 240 228
f 227 239 240
f 228 240 238
f 231 241 229
f 229 242 230
f 229 241 242
f 232 243 231
f 231 243 241
f 230 244 233
f 230 242 244
f 234 245 232
f 232 245 243
f 236 246 234
f 234 246 245
f 233 247 235
f 233 244 247
f 238 248 236
f 236 248 246
f 235 249 237
f 235 247 249
f 237 250 239
f 237 249 250
f 240 251 238
f 238 251 248
f 239 252 240
f 239 250 252
f 240 252 251
f 243 253 241
f 241 254 242
f 241 253 254
f 245 255 243
f 243 255 253
f 242 256 244
f 242 254 256
f 246 257 245
f 245 257 255
f 244 258 247
f 244 256 258
f 248 259 246
f 246 259 257
f 247 260 249
f 247 258 260
f 251 261 248
f 248 261 259
f 249 262 250
f 249 260 262
f 252 263 251
f 251 263 261
f 250 264 252
f 250 262 264
f 252 264 263
f 255 265 253
f 253 266 254
f 253 265 266
f 257 267 255
f 255 267 265
f 254 268 256
f 254 266 268
f 259 269 257
f 257 269 267
f 256 270 258
f 256 268 270
f 261 271 259
f 259 271 269
f 258 272 260
f 258 270 272
f 263 273 261
f 261 273 271
f 274 203 205
f 275 205 208
f 274 205 275
f 276 204 203
f 276 203 274
f 277 208 211
f 275 208 277
f 260 278 262
f 260 272 278
f 264 279 263
f 263 279 273
f 280 206 204
f 280 204 276
f 281 211 213
f 277 211 281
f 262 282 264
f 262 278 282
f 264 282 279
f 283 209 206
f 283 206 280
f 284 213 218
f 281 213 284
f 285 212 209
f 285 209 283
f 286 218 219
f 284 218 286
f 287 214 212
f 287 212 285
f 288 219 214
f 286 219 288
f 288 214 287
f 267 289 265
f 265 290 266
f 265 289 290
f 269 291 267
f 267 291 289
f 266 292 268
f 266 290 292
f 271 293 269
f 269 293 291
f 268 294 270
f 268 292 294
f 273 295 271
f 271 295 293
f 270 296 272
f 270 294 296
f 279 297 273
f 273 297 295
f 272 298 278
f 272 296 298
f 282 299 279
f 279 299 297
f 278 300 282
f 278 298 300
f 282 300 299
f 291 301 289
f 289 302 290
f 289 301 302
f 293 303 291
f 291 303 301
f 290 304 292
f 290 302 304
f 295 305 293
f 293 305 303
f 292 306 294
f 292 304 306
f 297 307 295
f 295 307 305
f 294 308 296
f 294 306 308
f 299 309 297
f 297 309 307
f 296 310 298
f 296 308 310
f 300 311 299
f 299 311 309
f 298 312 300
f 298 310 312
f 300 312 311
f 303 313 301
f 301 314 302
f 301 313 314
f 305 315 303
f 303 315 313
f 302 316 304
f 302 314 316
f 307 317 305
f 305 317 315
f 304 318 306
f 304 316 318
f 309 319 307
f 307 319 317
f 306 320 308
f 306 318 320
f 311 321 309
f 309 321 319
f 308 322 310
f 308 320 322
f 312 323 311
f 311 323 321
f 310 324 312
f 310 322 324
f 312 324 323
f 315 325 313
f 313 326 314
f 313 325 326
f 317 327 315
f 315 327 325
f 314 328 316
f 314 326 328
f 319 329 317
f 317 329 327
f 316 330 318
f 316 328 330
f 321 331 319
f 319 331 329
f 318 332 320
f 318 330 332
f 323 333 321
f 321 333 331
f 320 334 322
f 320 332 334
f 324 335 323
f 323 335 333
f 322 336 324
f 322 334 336
f 324 336 335
f 327 337 325
f 325 338 326
f 325 337 338
f 329 339 327
f 327 339 337
f 326 340 328
f 326 338 340
f 331 341 329
f 329 341 339
f 342 274 275
f 343 275 277
f 342 275 343
f 344 276 274
f 344 274 342
f 345 277 281
f 343 277 345
f 346 280 276
f 346 276 344
f 347 281 284
f 345 281 347
f 328 348 330
f 328 340 348
f 333 349 331
f 331 349 341
f 350 283 280
f 350 280 346
f 351 284 286
f 347 284 351
f 352 285 283
f 352 283 350
f 353 286 288
f 351 286 353
f 330 354 332
f 330 348 354
f 335 355 333
f 333 355 349
f 356 287 285
f 356 285 352
f 357 288 287
f 353 288 357
f 357 287 356
f 332 358 334
f 332 354 358
f 336 359 335
f 335 359 355
f 334 360 336
f 334 358 360
f 336 360 359
f 339 361 337
f 337 362 338
f 337 361 362
f 341 363 339
f 339 363 361
f 338 364 340
f 338 362 364
f 349 365 341
f 341 365 363
f 340 366 348
f 340 364 366
f 355 367 349
f 349 367 365
f 348 368 354
f 348 366 368
f 359 369 355
f 355 369 367
f 354 370 358
f 354 368 370
f 360 371 359
f 359 371 369
f 358 372 360
f 358 370 372
f 360 372 371
f 363 373 361
f 361 374 362
f 361 373 374
f 365 375 363
f 363 375 373
f 362 376 364
f 362 374 376
f 367 377 365
f 365 377 375
f 364 378 366
f 364 376 378
f 369 379 367
f 367 379 377
f 366 380 368
f 366 378 380
f 371 381 369
f 369 381 379
f 368 382 370
f 368 380 382
f 372 383 371
f 371 383 381
f 370 384 372
f 370 382 384
f 372 384 383
f 385 344 342
f 386 342 343
f 385 342 386
f 387 346 344
f 387 344 385
f 388 343 345
f 386 343 388
f 389 350 346
f 389 346 387
f 390 345 347
f 388 345 390
f 391 352 350
f 391 350 389
f 392 347 351
f 390 347 392
f 393 356 352
f 393 352 391
f 394 351 353
f 392 351 394
f 395 357 356
f 395 356 393
f 396 353 357
f 394 353 396
f 396 357 395
f 375 397 373
f 373 398 374
f 373 397 398
f 377 399 375
f 375 399 397
f 374 400 376
f 374 398 400
f 379 401 377
f 377 401 399
f 376 402 378
f 376 400 402
f 381 403 379
f 379 403 401
f 378 404 380
f 378 402 404
f 383 405 381
f 381 405 403
f 380 406 382
f 380 404 406
f 384 407 383
f 383 407 405
f 382 408 384
f 382 406 408
f 384 408 407
f 409 387 385
f 410 385 386
f 409 385 410
f 411 389 387
f 411 387 409
f 412 391 389
f 412 389 411
f 413 393 391
f 413 391 412
f 414 386 388
f 410 386 414
f 415 395 393
f 415 393 413
f 416 388 390
f 414 388 416
f 417 396 395
f 417 395 415
f 418 390 392
f 416 390 418
f 419 392 394
f 418 392 419
f 420 394 396
f 419 394 420
f 420 396 417
f 399 421 397
f 397 422 398
f 397 421 422
f 401 423 399
f 399 423 421
f 398 424 400
f 398 422 424
f 403 425 401
f 401 425 423
f 400 426 402
f 400 424 426
f 405 427 403
f 403 427 425
f 402 428 404
f 402 426 428
f 407 429 405
f 405 429 427
f 404 430 406
f 404 428 430
f 408 431 407
f 407 431 429
f 406 432 408
f 406 430 432
f 408 432 431
f 423 433 421
f 421 434 422
f 421 433 434
f 425 435 423
f 423 435 433
f 422 436 424
f 422 434 436
f 427 437 425
f 425 437 435
f 424 438 426
f 424 436 438
f 429 439 427
f 427 439 437
f 426 440 428
f 426 438 440
f 431 441 429
f 429 441 439
f 442 411 409
f 443 409 410
f 442 409 443
f 444 412 411
f 444 411 442
f 445 413 412
f 445 412 444
f 428 446 430
f 428 440 446
f 430 447 432
f 430 446 447
f 432 448 431
f 432 447 448
f 431 448 441
f 449 410 414
f 443 410 449
f 450 415 413
f 450 413 445
f 451 414 416
f 449 414 451
f 452 417 415
f 452 415 450
f 453 416 418
f 451 416 453
f 454 420 417
f 454 417 452
f 455 418 419
f 453 418 455
f 456 419 420
f 456 420 454
f 455 419 456
f 435 457 433
f 433 458 434
f 433 457 458
f 437 459 435
f 435 459 457
f 434 460 436
f 434 458 460
f 439 461 437
f 437 461 459
f 436 462 438
f 436 460 462
f 441 463 439
f 439 463 461
f 438 464 440
f 438 462 464
f 448 465 441
f 441 465 463
f 440 466 446
f 440 464 466
f 447 467 448
f 448 467 465
f 446 468 447
f 446 466 468
f 447 468 467
f 469 444 442
f 470 442 443
f 469 442 470
f 471 445 444
f 471 444 469
f 472 443 449
f 470 443 472
f 473 450 445
f 473 445 471
f 474 449 451
f 472 449 474
f 475 452 450
f 475 450 473
f 476 451 453
f 474 451 476
f 477 454 452
f 477 452 475
f 478 453 455
f 476 453 478
f 479 456 454
f 479 454 477
f 480 455 456
f 478 455 480
f 480 456 479
f 459 481 457
f 457 482 458
f 457 481 482
f 461 483 459
f 459 483 481
f 458 484 460
f 458 482 484
f 463 485 461
f 461 485 483
f 460 486 462
f 460 484 486
f 465 487 463
f 463 487 485
f 462 488 464
f 462 486 488
f 467 489 465
f 465 489 487
f 464 490 466
f 464 488 490
f 468 491 467
f 467 491 489
f 466 492 468
f 466 490 492
f 468 492 491
f 493 469 470
f 494 470 472
f 493 470 494
f 495 471 469
f 495 469 493
f 496 472 474
f 494 472 496
f 497 473 471
f 497 471 495
f 498 474 476
f 496 474 498
f 499 475 473
f 499 473 497
f 500 476 478
f 498 476 500
f 501 477 475
f 501 475 499
f 502 478 480
f 500 478 502
f 503 479 477
f 503 477 501
f 504 480 479
f 502 480 504
f 504 479 503
f 481 505 482
f 482 506 484
f 482 505 506
f 483 507 481
f 481 507 505
f 485 508 483
f 483 508 507
f 484 509 486
f 484 506 509
f 487 510 485
f 485 510 508
f 489 511 487
f 487 511 510
f 486 512 488
f 486 509 512
f 488 513 490
f 488 512 513
f 491 514 489
f 489 514 511
f 490 515 492
f 490 513 515
f 492 516 491
f 492 515 516
f 491 516 514
f 507 517 505
f 505 518 506
f 505 517 518
f 508 519 507
f 507 519 517
f 510 520 508
f 508 520 519
f 506 521 509
f 506 518 521
f 511 522 510
f 510 522 520
f 509 523 512
f 509 521 523
f 514 524 511
f 511 524 522
f 512 525 513
f 512 523 525
f 526 493 494
f 527 494 496
f 526 494 527
f 513 528 515
f 513 525 528
f 529 495 493
f 529 493 526
f 516 530 514
f 514 530 524
f 515 531 516
f 515 528 531
f 516 531 530
f 532 497 495
f 532 495 529
f 533 496 498
f 527 496 533
f 534 499 497
f 534 497 532
f 535 498 500
f 533 498 535
f 536 501 499
f 536 499 534
f 537 500 502
f 535 500 537
f 538 503 501
f 538 501 536
f 539 502 504
f 537 502 539
f 540 504 503
f 540 503 538
f 539 504 540
f 541 526 527
f 542 529 526
f 542 526 541
f 543 527 533
f 541 527 543
f 544 532 529
f 544 529 542
f 545 533 535
f 543 533 545
f 546 534 532
f 546 532 544
f 547 535 537
f 545 535 547
f 548 536 534
f 548 534 546
f 549 537 539
f 547 537 549
f 550 538 536
f 550 536 548
f 551 539 540
f 549 539 551
f 552 540 538
f 552 538 550
f 551 540 552
f 553 541 543
f 554 542 541
f 554 541 553
f 555 543 545
f 553 543 555
f 556 544 542
f 556 542 554
f 557 545 547
f 555 545 557
f 558 546 544
f 558 544 556
f 559 547 549
f 557 547 559
f 560 548 546
f 560 546 558
f 561 549 551
f 559 549 561
f 562 550 548
f 562 548 560
f 563 551 552
f 561 551 563
f 564 552 550
f 564 550 562
f 563 552 564
f 565 553 555
f 566 554 553
f 566 553 565
f 567 555 557
f 565 555 567
f 568 556 554
f 568 554 566
f 569 557 559
f 567 557 569
f 570 558 556
f 570 556 568
f 571 559 561
f 569 559 571
f 572 560 558
f 572 558 570
f 573 561 563
f 571 561 573
f 574 562 560
f 574 560 572
f 575 563 564
f 573 563 575
f 576 564 562
f 576 562 574
f 575 564 576
f 577 565 567
f 578 566 565
f 578 565 577
f 579 567 569
f 577 567 579
f 580 568 566
f 580 566 578
f 581 569 571
f 579 569 581
f 582 570 568
f 582 568 580
f 583 571 573
f 581 571 583
f 584 572 570
f 584 570 582
f 585 573 575
f 583 573 585
f 586 574 572
f 586 572 584
f 587 575 576
f 585 575 587
f 588 576 574
f 588 574 586
f 587 576 588
f 589 590 591
f 592 593 589
f 589 593 590
f 591 594 595
f 591 590 594
f 596 597 592
f 592 597 593
f 598 599 596
f 596 599 597
f 595 600 601
f 595 594 600
f 602 603 598
f 598 603 599
f 601 604 605
f 601 600 604
f 606 607 602
f 602 607 603
f 605 608 609
f 605 604 608
f 609 610 611
f 609 608 610
f 611 612 606
f 606 612 607
f 611 610 612
f 593 613 590
f 597 614 593
f 593 614 613
f 590 615 594
f 590 613 615
f 599 616 597
f 597 616 614
f 594 617 600
f 594 615 617
f 603 618 599
f 599 618 616
f 600 619 604
f 600 617 619
f 607 620 603
f 603 620 618
f 604 621 608
f 604 619 621
f 612 622 607
f 607 622 620
f 608 623 610
f 608 621 623
f 610 624 612
f 610 623 624
f 612 624 622
f 614 625 613
f 613 626 615
f 613 625 626
f 616 627 614
f 614 627 625
f 618 628 616
f 616 628 627
f 615 629 617
f 615 626 629
f 620 630 618
f 618 630 628
f 617 631 619
f 617 629 631
f 622 632 620
f 620 632 630
f 619 633 621
f 619 631 633
f 624 634 622
f 622 634 632
f 621 635 623
f 621 633 635
f 623 636 624
f 623 635 636
f 624 636 634
f 627 637 625
f 625 638 626
f 625 637 638
f 628 639 627
f 627 639 637
f 626 640 629
f 626 638 640
f 630 641 628
f 628 641 639
f 632 642 630
f 630 642 641
f 629 643 631
f 629 640 643
f 634 644 632
f 632 644 642
f 631 645 633
f 631 643 645
f 633 646 635
f 633 645 646
f 636 647 634
f 634 647 644
f 635 648 636
f 635 646 648
f 636 648 647
f 639 649 637
f 637 650 638
f 637 649 650
f 641 651 639
f 639 651 649
f 638 652 640
f 638 650 652
f 642 653 641
f 641 653 651
f 640 654 643
f 640 652 654
f 644 655 642
f 642 655 653
f 643 656 645
f 643 654 656
f 647 657 644
f 644 657 655
f 645 658 646
f 645 656 658
f 648 659 647
f 647 659 657
f 646 660 648
f 646 658 660
f 648 660 659
f 651 661 649
f 649 662 650
f 649 661 662
f 653 663 651
f 651 663 661
f 650 664 652
f 650 662 664
f 655 665 653
f 653 665 663
f 652 666 654
f 652 664 666
f 657 667 655
f 655 667 665
f 654 668 656
f 654 666 668
f 659 669 657
f 657 669 667
f 656 670 658
f 656 668 670
f 660 671 659
f 659 671 669
f 658 672 660
f 658 670 672
f 660 672 671
f 663 673 661
f 661 674 662
f 661 673 674
f 665 675 663
f 663 675 673
f 662 676 664
f 662 674 676
f 667 677 665
f 665 677 675
f 664 678 666
f 664 676 678
f 669 679 667
f 667 679 677
f 666 680 668
f 666 678 680
f 671 681 669
f 669 681 679
f 668 682 670
f 668 680 682
f 672 683 671
f 671 683 681
f 670 684 672
f 670 682 684
f 672 684 683
f 673 685 674
f 674 686 676
f 674 685 686
f 675 687 673
f 673 687 685
f 677 688 675
f 675 688 687
f 679 689 677
f 677 689 688
f 681 690 679
f 679 690 689
f 676 691 678
f 676 686 691
f 683 692 681
f 681 692 690
f 678 693 680
f 678 691 693
f 680 694 682
f 680 693 694
f 682 695 684
f 682 694 695
f 684 696 683
f 684 695 696
f 683 696 692
f 688 697 687
f 687 698 685
f 687 697 698
f 689 699 688
f 688 699 697
f 690 700 689
f 689 700 699
f 685 701 686
f 685 698 701
f 692 702 690
f 690 702 700
f 686 703 691
f 686 701 703
f 696 704 692
f 692 704 702
f 691 705 693
f 691 703 705
f 695 706 696
f 696 706 704
f 693 707 694
f 693 705 707
f 694 708 695
f 694 707 708
f 695 708 706
f 697 709 698
f 698 710 701
f 698 709 710
f 699 711 697
f 697 711 709
f 700 712 699
f 699 712 711
f 702 713 700
f 704 714 702
f 702 714 713
f 700 713 712
f 701 715 703
f 701 710 715
f 706 716 704
f 704 716 714
f 703 717 705
f 705 718 707
f 705 717 718
f 703 715 717
f 707 719 708
f 707 718 719
f 708 720 706
f 708 719 720
f 706 720 716
f 712 721 711
f 711 722 709
f 711 721 722
f 713 723 712
f 712 723 721
f 714 724 713
f 716 725 714
f 714 725 724
f 713 724 723
f 709 726 710
f 709 722 726
f 720 727 716
f 716 727 725
f 710 728 715
f 710 726 728
f 719 729 720
f 720 729 727
f 715 730 717
f 717 731 718
f 717 730 731
f 715 728 730
f 718 732 719
f 718 731 732
f 719 732 729
f 721 733 722
f 722 734 726
f 722 733 734
f 729 735 727
f 732 736 729
f 729 736 735
f 723 737 721
f 721 737 733
f 727 738 725
f 727 735 738
f 725 739 724
f 725 738 739
f 724 740 723
f 724 739 740
f 723 740 737
f 730 741 731
f 731 742 732
f 731 741 742
f 728 743 730
f 730 743 741
f 726 744 728
f 728 744 743
f 726 734 744
f 732 742 736
f 745 746 747
f 748 749 745
f 745 749 746
f 747 750 751
f 747 746 750
f 752 753 748
f 748 753 749
f 751 754 755
f 751 750 754
f 756 757 752
f 752 757 753
f 755 758 759
f 755 754 758
f 760 761 756
f 756 761 757
f 762 763 760
f 760 763 761
f 759 764 765
f 759 758 764
f 765 766 767
f 765 764 766
f 767 768 762
f 762 768 763
f 767 766 768
f 753 769 749
f 749 770 746
f 749 769 770
f 757 771 753
f 753 771 769
f 746 772 750
f 746 770 772
f 761 773 757
f 757 773 771
f 750 774 754
f 750 772 774
f 763 775 761
f 761 775 773
f 754 776 758
f 754 774 776
f 768 777 763
f 763 777 775
f 758 778 764
f 758 776 778
f 766 779 768
f 768 779 777
f 764 780 766
f 764 778 780
f 766 780 779
f 771 781 769
f 769 782 770
f 769 781 782
f 773 783 771
f 771 783 781
f 770 784 772
f 770 782 784
f 775 785 773
f 773 785 783
f 772 786 774
f 772 784 786
f 777 787 775
f 775 787 785
f 774 788 776
f 774 786 788
f 779 789 777
f 777 789 787
f 776 790 778
f 776 788 790
f 778 791 780
f 778 790 791
f 780 792 779
f 779 792 789
f 780 791 792
f 783 793 781
f 781 794 782
f 781 793 794
f 785 795 783
f 783 795 793
f 782 796 784
f 782 794 796
f 787 797 785
f 785 797 795
f 784 798 786
f 784 796 798
f 789 799 787
f 787 799 797
f 786 800 788
f 786 798 800
f 792 801 789
f 789 801 799
f 788 802 790
f 788 800 802
f 791 803 792
f 792 803 801
f 790 804 791
f 790 802 804
f 791 804 803
f 795 805 793
f 793 806 794
f 793 805 806
f 797 807 795
f 795 807 805
f 794 808 796
f 794 806 808
f 799 809 797
f 797 809 807
f 796 810 798
f 796 808 810
f 801 811 799
f 799 811 809
f 798 812 800
f 798 810 812
f 803 813 801
f 801 813 811
f 800 814 802
f 800 812 814
f 804 815 803
f 803 815 813
f 802 816 804
f 802 814 816
f 804 816 815
f 807 817 805
f 805 818 806
f 805 817 818
f 809 819 807
f 807 819 817
f 806 820 808
f 806 818 820
f 811 821 809
f 809 821 819
f 808 822 810
f 808 820 822
f 813 823 811
f 811 823 821
f 810 824 812
f 810 822 824
f 815 825 813
f 813 825 823
f 812 826 814
f 812 824 826
f 816 827 815
f 815 827 825
f 814 828 816
f 814 826 828
f 816 828 827
f 819 829 817
f 817 830 818
f 817 829 830
f 821 831 819
f 819 831 829
f 818 832 820
f 818 830 832
f 823 833 821
f 821 833 831
f 820 834 822
f 820 832 834
f 825 835 823
f 823 835 833
f 822 836 824
f 822 834 836
f 827 837 825
f 825 837 835
f 824 838 826
f 824 836 838
f 828 839 827
f 827 839 837
f 826 840 828
f 826 838 840
f 828 840 839
f 831 841 829
f 829 842 830
f 829 841 842
f 833 843 831
f 831 843 841
f 830 844 832
f 830 842 844
f 835 845 833
f 833 845 843
f 832 846 834
f 832 844 846
f 837 847 835
f 835 847 845
f 834 848 836
f 834 846 848
f 839 849 837
f 837 849 847
f 836 850 838
f 836 848 850
f 840 851 839
f 839 851 849
f 838 852 840
f 838 850 852
f 840 852 851
f 843 853 841
f 841 854 842
f 841 853 854
f 845 855 843
f 843 855 853
f 842 856 844
f 842 854 856
f 847 857 845
f 845 857 855
f 844 858 846
f 844 856 858
f 849 859 847
f 847 859 857
f 846 860 848
f 846 858 860
f 851 861 849
f 849 861 859
f 848 862 850
f 848 860 862
f 852 863 851
f 851 863 861
f 850 864 852
f 850 862 864
f 852 864 863
f 855 865 853
f 853 866 854
f 853 865 866
f 857 867 855
f 855 867 865
f 854 868 856
f 854 866 868
f 859 869 857
f 857 869 867
f 856 870 858
f 856 868 870
f 861 871 859
f 859 871 869
f 858 872 860
f 858 870 872
f 863 873 861
f 861 873 871
f 860 874 862
f 860 872 874
f 862 875 864
f 862 874 875
f 864 876 863
f 864 875 876
f 863 876 873
f 865 877 866
f 866 878 868
f 866 877 878
f 867 879 865
f 865 879 877
f 869 880 867
f 867 880 879
f 871 881 869
f 869 881 880
f 868 882 870
f 868 878 882
f 873 883 871
f 871 883 881
f 870 884 872
f 870 882 884
f 876 885 873
f 873 885 883
f 872 886 874
f 872 884 886
f 875 887 876
f 876 887 885
f 874 888 875
f 874 886 888
f 875 888 887
f 879 889 877
f 877 890 878
f 877 889 890
f 880 891 879
f 879 891 889
f 881 892 880
f 880 892 891
f 878 893 882
f 878 890 893
f 883 894 881
f 881 894 892
f 885 895 883
f 883 895 894
f 882 896 884
f 882 893 896
f 887 897 885
f 885 897 895
f 884 898 886
f 884 896 898
f 888 899 887
f 887 899 897
f 886 900 888
f 886 898 900
f 888 900 899
f 901 902 903
f 903 904 905
f 903 902 904
f 901 906 902
f 907 906 901
f 905 904 908
f 905 908 909
f 906 910 902
f 902 911 904
f 902 910 911
f 907 912 906
f 906 913 910
f 912 913 906
f 914 912 907
f 904 915 908
f 904 911 915
f 909 908 916
f 909 916 917
f 913 918 910
f 910 919 911
f 910 918 919
f 912 920 913
f 914 921 912
f 921 920 912
f 920 922 913
f 913 922 918
f 908 915 923
f 908 923 916
f 911 924 915
f 911 919 924
f 925 921 914
f 921 926 920
f 920 927 922
f 926 927 920
f 925 928 921
f 928 926 921
f 917 916 929
f 917 929 930
f 922 931 918
f 918 932 919
f 918 931 932
f 927 933 922
f 922 933 931
f 915 934 923
f 915 924 934
f 916 923 935
f 916 935 929
f 936 928 925
f 919 937 924
f 919 932 937
f 926 938 927
f 928 939 926
f 939 938 926
f 927 940 933
f 938 940 927
f 930 929 941
f 930 941 942
f 936 943 928
f 943 939 928
f 923 944 935
f 923 934 944
f 945 943 936
f 924 946 934
f 924 937 946
f 933 947 931
f 931 948 932
f 931 947 948
f 940 949 933
f 933 949 947
f 929 950 941
f 929 935 950
f 942 951 945
f 942 941 951
f 945 951 943
f 943 952 939
f 951 952 943
f 939 953 938
f 952 953 939
f 932 954 937
f 932 948 954
f 938 955 940
f 953 955 938
f 941 956 951
f 941 950 956
f 955 957 940
f 940 957 949
f 935 958 950
f 935 944 958
f 951 956 952
f 934 959 944
f 934 946 959
f 952 960 953
f 956 960 952
f 937 961 946
f 937 954 961
f 953 962 955
f 960 962 953
f 949 963 947
f 947 964 948
f 947 963 964
f 950 965 956
f 950 958 965
f 956 965 960
f 955 966 957
f 962 966 955
f 957 967 949
f 949 967 963
f 948 968 954
f 948 964 968
f 944 969 958
f 944 959 969
f 966 970 957
f 957 970 967
f 965 971 960
f 960 971 962
f 946 972 959
f 946 961 972
f 958 973 965
f 958 969 973
f 965 973 971
f 954 974 961
f 954 968 974
f 962 975 966
f 971 975 962
f 966 976 970
f 975 976 966
f 967 977 963
f 963 978 964
f 963 977 978
f 970 979 967
f 967 979 977
f 959 980 969
f 959 972 980
f 973 981 971
f 971 981 975
f 964 982 968
f 964 978 982
f 976 983 970
f 970 983 979
f 961 984 972
f 961 974 984
f 969 985 973
f 969 980 985
f 973 985 981
f 975 986 976
f 981 986 975
f 968 987 974
f 968 982 987
f 976 988 983
f 986 988 976
f 979 989 977
f 977 990 978
f 977 989 990
f 972 991 980
f 972 984 991
f 983 992 979
f 979 992 989
f 985 993 981
f 981 993 986
f 978 994 982
f 978 990 994
f 980 995 985
f 980 991 995
f 985 995 993
f 974 996 984
f 974 987 996
f 988 997 983
f 983 997 992
f 986 998 988
f 993 998 986
f 982 999 987
f 982 994 999
f 984 1000 991
f 984 996 1000
f 988 1001 997
f 998 1001 988
f 992 1002 989
f 989 1003 990
f 989 1002 1003
f 997 1004 992
f 992 1004 1002
f 995 1005 993
f 993 1005 998
f 990 1006 994
f 990 1003 1006
f 991 1007 995
f 991 1000 1007
f 995 1007 1005
f 987 1008 996
f 987 999 1008
f 1001 1009 997
f 997 1009 1004
f 1005 1010 998
f 998 1010 1001
f 994 1011 999
f 994 1006 1011
f 996 1012 1000
f 996 1008 1012
f 1007 1013 1005
f 1005 1013 1010
f 1001 1014 1009
f 1010 1014 1001
f 1004 1015 1002
f 1002 1016 1003
f 1002 1015 1016
f 1009 1017 1004
f 1004 1017 1015
f 1003 1018 1006
f 1003 1016 1018
f 1000 1019 1007
f 1000 1012 1019
f 1007 1019 1013
f 999 1020 1008
f 999 1011 1020
f 1014 1021 1009
f 1009 1021 1017
f 1010 1022 1014
f 1013 1022 1010
f 1006 1023 1011
f 1006 1018 1023
f 1017 1024 1015
f 1015 1025 1016
f 1015 1024 1025
f 1008 1026 1012
f 1008 1020 1026
f 1014 1027 1021
f 1022 1027 1014
f 1021 1028 1017
f 1017 1028 1024
f 1019 1029 1013
f 1013 1029 1022
f 1016 1030 1018
f 1016 1025 1030
f 1021 1031 1028
f 1027 1031 1021
f 1012 1032 1019
f 1012 1026 1032
f 1019 1032 1029
f 1011 1033 1020
f 1011 1023 1033
f 1018 1034 1023
f 1018 1030 1034
f 1022 1035 1027
f 1029 1035 1022
f 1028 1036 1024
f 1024 1037 1025
f 1024 1036 1037
f 1031 1038 1028
f 1028 1038 1036
f 1025 1039 1030
f 1025 1037 1039
f 1027 1040 1031
f 1035 1040 1027
f 1041 1042 1043
f 1044 1045 1042
f 1044 1042 1041
f 1046 1043 1047
f 1041 1043 1046
f 1020 1048 1026
f 1020 1033 1048
f 1032 1049 1029
f 1029 1049 1035
f 1031 1050 1038
f 1040 1050 1031
f 1051 1052 1045
f 1051 1045 1044
f 1053 1047 1054
f 1046 1047 1053
f 1026 1055 1032
f 1026 1048 1055
f 1032 1055 1049
f 1023 1056 1033
f 1023 1034 1056
f 1030 1057 1034
f 1030 1039 1057
f 1038 1058 1036
f 1036 1059 1037
f 1036 1058 1059
f 1050 1060 1038
f 1038 1060 1058
f 1061 1062 1052
f 1061 1052 1051
f 1063 1054 1064
f 1053 1054 1063
f 1035 1065 1040
f 1049 1065 1035
f 1037 1066 1039
f 1037 1059 1066
f 1040 1067 1050
f 1065 1067 1040
f 1068 1069 1062
f 1068 1062 1061
f 1070 1064 1071
f 1063 1064 1070
f 1067 1072 1050
f 1050 1072 1060
f 1033 1073 1048
f 1033 1056 1073
f 1074 1075 1069
f 1074 1069 1068
f 1076 1071 1077
f 1070 1071 1076
f 1034 1078 1056
f 1034 1057 1078
f 1055 1079 1049
f 1049 1079 1065
f 1039 1080 1057
f 1039 1066 1080
f 1081 1077 1075
f 1081 1075 1074
f 1076 1077 1081
f 1082 1041 1046
f 1083 1044 1041
f 1083 1041 1082
f 1084 1046 1053
f 1082 1046 1084
f 1048 1085 1055
f 1048 1073 1085
f 1055 1085 1079
f 1065 1086 1067
f 1079 1086 1065
f 1086 1087 1067
f 1067 1087 1072
f 1088 1051 1044
f 1088 1044 1083
f 1089 1053 1063
f 1084 1053 1089
f 1056 1090 1073
f 1056 1078 1090
f 1057 1091 1078
f 1057 1080 1091
f 1092 1061 1051
f 1092 1051 1088
f 1093 1063 1070
f 1089 1063 1093
f 1085 1094 1079
f 1079 1094 1086
f 1073 1095 1085
f 1073 1090 1095
f 1085 1095 1094
f 1094 1096 1086
f 1086 1096 1087
f 1097 1068 1061
f 1097 1061 1092
f 1098 1070 1076
f 1093 1070 1098
f 1078 1099 1090
f 1078 1091 1099
f 1100 1074 1068
f 1100 1068 1097
f 1101 1076 1081
f 1098 1076 1101
f 1095 1102 1094
f 1094 1102 1096
f 1103 1082 1084
f 1104 1083 1082
f 1104 1082 1103
f 1105 1084 1089
f 1103 1084 1105
f 1106 1081 1074
f 1106 1074 1100
f 1101 1081 1106
f 1090 1107 1095
f 1090 1099 1107
f 1095 1107 1102
f 1108 1088 1083
f 1108 1083 1104
f 1109 1089 1093
f 1105 1089 1109
f 1060 1110 1058
f 1058 1111 1059
f 1058 1110 1111
f 1072 1112 1060
f 1060 1112 1110
f 1113 1092 1088
f 1113 1088 1108
f 1114 1093 1098
f 1109 1093 1114
f 1059 1115 1066
f 1059 1111 1115
f 1087 1116 1072
f 1072 1116 1112
f 1117 1097 1092
f 1117 1092 1113
f 1118 1098 1101
f 1114 1098 1118
f 1066 1119 1080
f 1066 1115 1119
f 1120 1103 1105
f 1121 1104 1103
f 1121 1103 1120
f 1122 1105 1109
f 1120 1105 1122
f 1123 1100 1097
f 1123 1097 1117
f 1124 1101 1106
f 1118 1101 1124
f 1096 1125 1087
f 1087 1125 1116
f 1126 1108 1104
f 1126 1104 1121
f 1127 1109 1114
f 1122 1109 1127
f 1128 1106 1100
f 1128 1100 1123
f 1124 1106 1128
f 1080 1129 1091
f 1080 1119 1129
f 1130 1113 1108
f 1130 1108 1126
f 1131 1114 1118
f 1127 1114 1131
f 1102 1132 1096
f 1096 1132 1125
f 1091 1133 1099
f 1091 1129 1133
f 1112 1134 1110
f 1110 1135 1111
f 1110 1134 1135
f 1116 1136 1112
f 1112 1136 1134
f 1137 1120 1122
f 1138 1121 1120
f 1138 1120 1137
f 1139 1122 1127
f 1137 1122 1139
f 1140 1117 1113
f 1140 1113 1130
f 1141 1118 1124
f 1131 1118 1141
f 1107 1142 1102
f 1102 1142 1132
f 1099 1143 1107
f 1099 1133 1143
f 1107 1143 1142
f 1111 1144 1115
f 1111 1135 1144
f 1125 1145 1116
f 1116 1145 1136
f 1146 1126 1121
f 1146 1121 1138
f 1147 1127 1131
f 1139 1127 1147
f 1148 1123 1117
f 1148 1117 1140
f 1149 1128 1123
f 1149 1123 1148
f 1150 1124 1128
f 1150 1128 1149
f 1141 1124 1150
f 1151 1130 1126
f 1151 1126 1146
f 1152 1131 1141
f 1147 1131 1152
f 1115 1153 1119
f 1115 1144 1153
f 1132 1154 1125
f 1125 1154 1145
f 1155 1137 1139
f 1156 1138 1137
f 1156 1137 1155
f 1157 1139 1147
f 1155 1139 1157
f 1158 1140 1130
f 1158 1130 1151
f 1159 1141 1150
f 1152 1141 1159
f 1136 1160 1134
f 1134 1161 1135
f 1134 1160 1161
f 1145 1162 1136
f 1136 1162 1160
f 1163 1146 1138
f 1163 1138 1156
f 1157 1147 1164
f 1164 1147 1152
f 1119 1165 1129
f 1119 1153 1165
f 1142 1166 1132
f 1132 1166 1154
f 1135 1167 1144
f 1135 1161 1167
f 1154 1168 1145
f 1145 1168 1162
f 1169 1148 1140
f 1169 1140 1158
f 1170 1150 1149
f 1159 1150 1170
f 1171 1155 1157
f 1172 1155 1171
f 1172 1156 1155
f 1171 1157 1173
f 1173 1157 1164
f 1174 1146 1163
f 1174 1151 1146
f 1164 1152 1175
f 1175 1152 1159
f 1176 1149 1148
f 1176 1148 1169
f 1170 1149 1176
f 1129 1177 1133
f 1129 1165 1177
f 1143 1178 1142
f 1142 1178 1166
f 1144 1179 1153
f 1144 1167 1179
f 1154 1180 1168
f 1166 1180 1154
f 1162 1173 1160
f 1160 1173 1181
f 1160 1181 1161
f 1162 1171 1173
f 1168 1171 1162
f 1168 1172 1171
f 1173 1164 1181
f 1182 1156 1172
f 1182 1163 1156
f 1181 1164 1175
f 1133 1183 1143
f 1133 1177 1183
f 1143 1183 1178
f 1161 1181 1184
f 1161 1184 1167
f 1180 1172 1168
f 1180 1182 1172
f 1181 1175 1184
f 1185 1163 1182
f 1185 1174 1163
f 1175 1159 1186
f 1184 1175 1186
f 1187 1158 1151
f 1187 1151 1174
f 1186 1159 1170
f 1153 1188 1165
f 1153 1179 1188
f 1166 1189 1180
f 1178 1189 1166
f 1167 1184 1190
f 1167 1190 1179
f 1189 1182 1180
f 1189 1185 1182
f 1184 1186 1190
f 1191 1169 1158
f 1191 1158 1187
f 1192 1176 1169
f 1192 1169 1191
f 1193 1170 1176
f 1193 1176 1192
f 1186 1170 1193
f 1194 1174 1185
f 1194 1187 1174
f 1190 1186 1193
f 1165 1195 1177
f 1165 1188 1195
f 1178 1196 1189
f 1183 1196 1178
f 1179 1190 1197
f 1179 1197 1188
f 1196 1185 1189
f 1196 1194 1185
f 1190 1193 1197
f 1198 1187 1194
f 1198 1191 1187
f 1197 1193 1192
f 1177 1199 1183
f 1177 1195 1199
f 1183 1199 1196
f 1188 1197 1200
f 1188 1200 1195
f 1199 1194 1196
f 1199 1198 1194
f 1197 1192 1200
f 1200 1192 1191
f 1200 1191 1198
f 1195 1198 1199
f 1195 1200 1198
