# 
# Wavefront OBJ file
# Created with Kaydara FBX
# 
mtllib c:\users\tjvan\onedrive\documenten\fontys\minor\nx\.mtlmodels\inferior_lateral_genicular_vein.r.obj

g Inferior_lateral_genicular_vein_r
v -0.118769 0.419012 -0.047815
v -0.118914 0.420224 -0.045596
v -0.118897 0.420010 -0.045491
v -0.118666 0.421105 -0.043013
v -0.118809 0.420417 -0.045692
v -0.118680 0.421317 -0.043092
v -0.118658 0.419216 -0.047915
v -0.118753 0.418798 -0.047681
v -0.118763 0.419831 -0.045404
v -0.118541 0.420923 -0.042959
v -0.118580 0.421502 -0.043176
v -0.118451 0.419354 -0.047957
v -0.118610 0.420537 -0.045752
v -0.118132 0.417743 -0.049719
v -0.118616 0.418631 -0.047552
v -0.118124 0.417531 -0.049558
v -0.118019 0.417962 -0.049817
v -0.118548 0.419736 -0.045358
v -0.118339 0.420820 -0.042946
v -0.118158 0.422022 -0.040269
v -0.118169 0.422229 -0.040324
v -0.117814 0.418131 -0.049825
v -0.118045 0.421843 -0.040242
v -0.118393 0.418555 -0.047460
v -0.117995 0.417384 -0.049378
v -0.118393 0.421611 -0.043243
v -0.118202 0.419390 -0.047928
v -0.118371 0.420552 -0.045761
v -0.118073 0.422407 -0.040393
v -0.118309 0.419751 -0.045367
v -0.118115 0.420824 -0.042977
v -0.117858 0.421740 -0.040250
v -0.117572 0.418203 -0.049743
v -0.118144 0.418591 -0.047431
v -0.117781 0.417341 -0.049226
v -0.118168 0.421615 -0.043274
v -0.117896 0.422509 -0.040456
v -0.117979 0.419314 -0.047836
v -0.118156 0.420457 -0.045715
v -0.117648 0.421739 -0.040292
v -0.118110 0.419871 -0.045427
v -0.117927 0.420933 -0.043043
v -0.117358 0.418161 -0.049591
v -0.117967 0.421512 -0.043261
v -0.118022 0.420278 -0.045628
v -0.117842 0.419147 -0.047706
v -0.117687 0.422509 -0.040498
v -0.117469 0.422699 -0.037282
v -0.117366 0.422527 -0.037276
v -0.117474 0.422897 -0.037314
v -0.117937 0.418729 -0.047472
v -0.117539 0.417414 -0.049143
v -0.116890 0.416492 -0.051259
v -0.116894 0.416283 -0.051075
v -0.116783 0.416734 -0.051348
v -0.118005 0.420064 -0.045522
v -0.117828 0.421119 -0.043128
v -0.117472 0.421842 -0.040356
v -0.117381 0.423068 -0.037364
v -0.117194 0.422426 -0.037299
v -0.116601 0.416943 -0.051317
v -0.117842 0.421331 -0.043207
v -0.117826 0.418933 -0.047573
v -0.116794 0.416162 -0.050845
v -0.117229 0.418014 -0.049411
v -0.117500 0.422405 -0.040506
v -0.117334 0.417583 -0.049152
v -0.117376 0.422020 -0.040424
v -0.117214 0.423165 -0.037418
v -0.116998 0.422424 -0.037343
v -0.117221 0.417802 -0.049250
v -0.117386 0.422226 -0.040479
v -0.116394 0.417064 -0.051175
v -0.116616 0.416162 -0.050630
v -0.117018 0.423163 -0.037463
v -0.116831 0.422522 -0.037398
v -0.116216 0.417064 -0.050960
v -0.116409 0.416283 -0.050488
v -0.116846 0.423063 -0.037485
v -0.116738 0.422692 -0.037448
v -0.116688 0.423069 -0.034075
v -0.116596 0.422906 -0.034088
v -0.116689 0.423257 -0.034086
v -0.116116 0.416943 -0.050730
v -0.116744 0.422890 -0.037480
v -0.116437 0.422811 -0.034119
v -0.116598 0.423418 -0.034115
v -0.116227 0.416492 -0.050457
v -0.116120 0.416734 -0.050546
v -0.116439 0.423510 -0.034157
v -0.116254 0.422809 -0.034160
v -0.116256 0.423509 -0.034198
v -0.116096 0.422901 -0.034202
v -0.114957 0.415357 -0.052372
v -0.114975 0.415146 -0.052171
v -0.114867 0.415623 -0.052451
v -0.116098 0.423413 -0.034230
v -0.116005 0.423063 -0.034231
v -0.114917 0.415047 -0.051903
v -0.114731 0.415873 -0.052388
v -0.116006 0.423250 -0.034242
v -0.115908 0.423066 -0.030676
v -0.115825 0.422914 -0.030703
v -0.115904 0.423240 -0.030666
v -0.114799 0.415086 -0.051639
v -0.114584 0.416040 -0.052200
v -0.115679 0.422825 -0.030738
v -0.115815 0.423390 -0.030674
v -0.115508 0.422824 -0.030773
v -0.115665 0.423476 -0.030699
v -0.114652 0.415253 -0.051450
v -0.114465 0.416079 -0.051936
v -0.115358 0.422910 -0.030799
v -0.115494 0.423475 -0.030734
v -0.114515 0.415503 -0.051387
v -0.114408 0.415980 -0.051668
v -0.114426 0.415769 -0.051467
v -0.115269 0.423060 -0.030807
v -0.115347 0.423386 -0.030770
v -0.115265 0.423234 -0.030797
v -0.115216 0.422620 -0.027100
v -0.115141 0.422481 -0.027134
v -0.115210 0.422780 -0.027077
v -0.115007 0.422399 -0.027171
v -0.115125 0.422918 -0.027072
v -0.114848 0.422397 -0.027200
v -0.114984 0.422996 -0.027085
v -0.114707 0.422476 -0.027214
v -0.114825 0.422994 -0.027115
v -0.114622 0.422613 -0.027209
v -0.114690 0.422913 -0.027151
v -0.114616 0.422773 -0.027186
v -0.114608 0.422033 -0.023711
v -0.114536 0.421897 -0.023746
v -0.114602 0.422188 -0.023687
v -0.114406 0.421819 -0.023783
v -0.114520 0.422321 -0.023682
v -0.112280 0.414428 -0.053014
v -0.112308 0.414211 -0.052802
v -0.112215 0.414716 -0.053090
v -0.114252 0.421817 -0.023813
v -0.114383 0.422398 -0.023697
v -0.112293 0.414123 -0.052510
v -0.112131 0.414997 -0.053010
v -0.114116 0.421893 -0.023828
v -0.112238 0.414188 -0.052218
v -0.114229 0.422396 -0.023727
v -0.112050 0.415197 -0.052794
v -0.114033 0.422027 -0.023823
v -0.114099 0.422317 -0.023765
v -0.112157 0.414388 -0.052003
v -0.113982 0.421626 -0.020784
v -0.113912 0.421495 -0.020816
v -0.113977 0.421778 -0.020767
v -0.114027 0.422182 -0.023800
v -0.111995 0.415262 -0.052502
v -0.112073 0.414670 -0.051922
v -0.113786 0.421419 -0.020855
v -0.113899 0.421908 -0.020769
v -0.111980 0.415174 -0.052210
v -0.112008 0.414957 -0.051998
v -0.113637 0.421418 -0.020889
v -0.113768 0.421983 -0.020790
v -0.113507 0.421493 -0.020911
v -0.113620 0.421982 -0.020825
v -0.113428 0.421624 -0.020913
v -0.113494 0.421906 -0.020863
v -0.113424 0.421775 -0.020895
v -0.113334 0.421365 -0.018271
v -0.113266 0.421238 -0.018301
v -0.113331 0.421512 -0.018259
v -0.113145 0.421164 -0.018342
v -0.113257 0.421639 -0.018268
v -0.113003 0.421164 -0.018381
v -0.113132 0.421713 -0.018296
v -0.112878 0.421238 -0.018410
v -0.112990 0.421713 -0.018336
v -0.112804 0.421365 -0.018419
v -0.112869 0.421639 -0.018377
v -0.112801 0.421512 -0.018407
v -0.112663 0.421211 -0.016114
v -0.112597 0.421087 -0.016144
v -0.112660 0.421353 -0.016106
v -0.112481 0.421017 -0.016187
v -0.112591 0.421477 -0.016122
v -0.112346 0.421017 -0.016233
v -0.112473 0.421549 -0.016158
v -0.112227 0.421089 -0.016269
v -0.112338 0.421549 -0.016204
v -0.112158 0.421212 -0.016285
v -0.112222 0.421478 -0.016247
v -0.112156 0.421355 -0.016277
v -0.111963 0.421125 -0.014257
v -0.111901 0.421006 -0.014288
v -0.111962 0.421263 -0.014252
v -0.111790 0.420938 -0.014336
v -0.111897 0.421383 -0.014274
v -0.111663 0.420939 -0.014388
v -0.111786 0.421453 -0.014316
v -0.108853 0.413549 -0.052949
v -0.108863 0.413463 -0.052643
v -0.108821 0.413775 -0.053170
v -0.108776 0.414080 -0.053248
v -0.111551 0.421008 -0.014431
v -0.111658 0.421453 -0.014368
v -0.108849 0.413540 -0.052335
v -0.108729 0.414382 -0.053161
v -0.111486 0.421128 -0.014452
v -0.111548 0.421385 -0.014416
v -0.108814 0.413758 -0.052107
v -0.108694 0.414600 -0.052933
v -0.111485 0.421266 -0.014447
v -0.108768 0.414060 -0.052020
v -0.108680 0.414677 -0.052625
v -0.108722 0.414365 -0.052098
v -0.108690 0.414591 -0.052320
v -0.111234 0.421070 -0.012645
v -0.111175 0.420955 -0.012679
v -0.111233 0.421203 -0.012640
v -0.111072 0.420889 -0.012731
v -0.111172 0.421319 -0.012665
v -0.110952 0.420891 -0.012790
v -0.111068 0.421387 -0.012713
v -0.110848 0.420958 -0.012838
v -0.110948 0.421388 -0.012772
v -0.110787 0.421074 -0.012863
v -0.110845 0.421322 -0.012824
v -0.110786 0.421207 -0.012858
v -0.110473 0.421007 -0.011222
v -0.110419 0.420897 -0.011259
v -0.110470 0.421135 -0.011214
v -0.110323 0.420834 -0.011318
v -0.110412 0.421247 -0.011240
v -0.110211 0.420835 -0.011381
v -0.110314 0.421313 -0.011291
v -0.110113 0.420901 -0.011432
v -0.110203 0.421314 -0.011355
v -0.110055 0.421013 -0.011458
v -0.110107 0.421251 -0.011413
v -0.110053 0.421141 -0.011451
v -0.109677 0.420898 -0.009930
v -0.109629 0.420792 -0.009974
v -0.109672 0.421021 -0.009919
v -0.109541 0.420733 -0.010037
v -0.109615 0.421129 -0.009942
v -0.109437 0.420735 -0.010104
v -0.109522 0.421192 -0.009994
v -0.109344 0.420798 -0.010156
v -0.109418 0.421194 -0.010060
v -0.109288 0.420906 -0.010179
v -0.109330 0.421134 -0.010124
v -0.109282 0.421029 -0.010167
v -0.108845 0.420706 -0.008715
v -0.108804 0.420605 -0.008765
v -0.108835 0.420823 -0.008697
v -0.108724 0.420549 -0.008832
v -0.108778 0.420926 -0.008715
v -0.108626 0.420551 -0.008900
v -0.108689 0.420987 -0.008765
v -0.108537 0.420612 -0.008949
v -0.108591 0.420989 -0.008832
v -0.108479 0.420715 -0.008968
v -0.108511 0.420933 -0.008900
v -0.108470 0.420832 -0.008950
v -0.104490 0.413007 -0.052878
v -0.104502 0.412916 -0.052557
v -0.104463 0.413244 -0.053110
v -0.104495 0.412998 -0.052234
v -0.107974 0.420392 -0.007518
v -0.107940 0.420298 -0.007572
v -0.107959 0.420503 -0.007493
v -0.104472 0.413229 -0.051994
v -0.104428 0.413566 -0.053192
v -0.107867 0.420245 -0.007643
v -0.104438 0.413548 -0.051903
v -0.104394 0.413885 -0.053101
v -0.107900 0.420600 -0.007504
v -0.104403 0.413870 -0.051985
v -0.104371 0.414116 -0.052862
v -0.104365 0.414198 -0.052538
v -0.104376 0.414107 -0.052217
v -0.107774 0.420248 -0.007709
v -0.107812 0.420658 -0.007549
v -0.107686 0.420305 -0.007754
v -0.107719 0.420660 -0.007616
v -0.107627 0.420403 -0.007766
v -0.107646 0.420608 -0.007686
v -0.107612 0.420513 -0.007740
v -0.107060 0.419920 -0.006279
v -0.107032 0.419832 -0.006338
v -0.107040 0.420023 -0.006248
v -0.106964 0.419782 -0.006409
v -0.106979 0.420114 -0.006252
v -0.106875 0.419785 -0.006472
v -0.106892 0.420168 -0.006291
v -0.106788 0.419839 -0.006511
v -0.106802 0.420170 -0.006355
v -0.106726 0.419929 -0.006516
v -0.106735 0.420121 -0.006425
v -0.106707 0.420033 -0.006484
v -0.106068 0.419165 -0.004993
v -0.106092 0.419247 -0.004933
v -0.106006 0.419119 -0.005064
v -0.106071 0.419344 -0.004900
v -0.106011 0.419430 -0.004902
v -0.105922 0.419122 -0.005127
v -0.105928 0.419481 -0.004939
v -0.105839 0.419174 -0.005164
v -0.105844 0.419485 -0.005002
v -0.105779 0.419260 -0.005167
v -0.105757 0.419357 -0.005133
v -0.105781 0.419439 -0.005073
v -0.105172 0.418611 -0.003919
v -0.105193 0.418688 -0.003861
v -0.105117 0.418571 -0.003990
v -0.105175 0.418780 -0.003832
v -0.105044 0.418577 -0.004056
v -0.105123 0.418863 -0.003839
v -0.104972 0.418629 -0.004097
v -0.105051 0.418915 -0.003881
v -0.104920 0.418712 -0.004105
v -0.104978 0.418921 -0.003947
v -0.104902 0.418804 -0.004076
v -0.104923 0.418881 -0.004018
v -0.104030 0.418115 -0.002853
v -0.104049 0.418186 -0.002798
v -0.103984 0.418079 -0.002923
v -0.104036 0.418274 -0.002774
v -0.103922 0.418088 -0.002990
v -0.103993 0.418354 -0.002786
v -0.103861 0.418140 -0.003037
v -0.103933 0.418406 -0.002832
v -0.103819 0.418220 -0.003049
v -0.103871 0.418415 -0.002900
v -0.103805 0.418308 -0.003025
v -0.103824 0.418379 -0.002970
v -0.101052 0.412648 -0.052917
v -0.101050 0.412552 -0.052581
v -0.101040 0.412899 -0.053161
v -0.101034 0.412636 -0.052243
v -0.101008 0.412879 -0.051992
v -0.101017 0.413237 -0.053246
v -0.100980 0.413214 -0.051896
v -0.100989 0.413572 -0.053151
v -0.100957 0.413552 -0.051982
v -0.100963 0.413814 -0.052900
v -0.100947 0.413898 -0.052561
v -0.100944 0.413802 -0.052225
v -0.102703 0.417661 -0.001812
v -0.102720 0.417726 -0.001760
v -0.102663 0.417629 -0.001880
v -0.102709 0.417808 -0.001739
v -0.102610 0.417639 -0.001946
v -0.102673 0.417884 -0.001753
v -0.102622 0.417934 -0.001800
v -0.102559 0.417688 -0.001993
v -0.102569 0.417944 -0.001867
v -0.102523 0.417764 -0.002008
v -0.102512 0.417846 -0.001986
v -0.102529 0.417912 -0.001935
v -0.101241 0.417227 -0.000804
v -0.101255 0.417287 -0.000755
v -0.101206 0.417198 -0.000869
v -0.101245 0.417363 -0.000736
v -0.101161 0.417209 -0.000932
v -0.101214 0.417434 -0.000751
v -0.101170 0.417481 -0.000797
v -0.101117 0.417256 -0.000978
v -0.101086 0.417326 -0.000993
v -0.101125 0.417491 -0.000860
v -0.101077 0.417402 -0.000974
v -0.101091 0.417463 -0.000925
v -0.099694 0.416795 0.000161
v -0.099706 0.416850 0.000206
v -0.099665 0.416769 0.000100
v -0.099697 0.416920 0.000224
v -0.099626 0.416780 0.000040
v -0.099669 0.416985 0.000210
v -0.099587 0.416823 -0.000002
v -0.099631 0.417028 0.000167
v -0.099560 0.416888 -0.000017
v -0.099591 0.417039 0.000107
v -0.099550 0.416958 0.000001
v -0.099562 0.417013 0.000047
v -0.098318 0.412369 -0.052720
v -0.098345 0.412471 -0.053070
v -0.098286 0.412457 -0.052367
v -0.098361 0.412734 -0.053323
v -0.098361 0.413089 -0.053411
v -0.098259 0.412710 -0.052105
v -0.098346 0.413440 -0.053310
v -0.098243 0.413061 -0.052004
v -0.098243 0.413416 -0.052092
v -0.098318 0.413693 -0.053048
v -0.098259 0.413679 -0.052345
v -0.098287 0.413781 -0.052695
v -0.098115 0.416346 0.001073
v -0.098090 0.416323 0.001017
v -0.098124 0.416395 0.001115
v -0.098114 0.416458 0.001132
v -0.098056 0.416333 0.000961
v -0.098089 0.416517 0.001119
v -0.098021 0.416373 0.000922
v -0.098054 0.416557 0.001080
v -0.097996 0.416432 0.000909
v -0.098020 0.416567 0.001025
v -0.097986 0.416495 0.000926
v -0.097995 0.416544 0.000969
v -0.096302 0.413120 -0.053684
v -0.096262 0.412751 -0.053598
v -0.096310 0.413486 -0.053576
v -0.096200 0.412477 -0.053340
v -0.096283 0.413750 -0.053303
v -0.096133 0.412372 -0.052979
v -0.096228 0.413842 -0.052937
v -0.096079 0.412464 -0.052613
v -0.096161 0.413737 -0.052576
v -0.096052 0.412728 -0.052339
v -0.096099 0.413463 -0.052318
v -0.096059 0.413094 -0.052232
v -0.096554 0.415860 0.001922
v -0.096533 0.415840 0.001870
v -0.096560 0.415904 0.001961
v -0.096549 0.415960 0.001977
v -0.096503 0.415849 0.001820
v -0.096525 0.416013 0.001966
v -0.096472 0.415885 0.001785
v -0.096494 0.416049 0.001931
v -0.096447 0.415938 0.001774
v -0.096464 0.416058 0.001881
v -0.096437 0.415994 0.001790
v -0.096443 0.416038 0.001829
v -0.095062 0.415320 0.002697
v -0.095045 0.415303 0.002650
v -0.095065 0.415358 0.002733
v -0.095053 0.415407 0.002749
v -0.095019 0.415311 0.002606
v -0.095030 0.415453 0.002740
v -0.094990 0.415342 0.002575
v -0.095001 0.415485 0.002710
v -0.094966 0.415388 0.002566
v -0.094974 0.415493 0.002665
v -0.094954 0.415437 0.002582
v -0.094957 0.415475 0.002618
v -0.094713 0.413702 -0.053946
v -0.094672 0.413325 -0.054066
v -0.094689 0.413976 -0.053660
v -0.094607 0.414075 -0.053284
v -0.094576 0.412948 -0.053987
v -0.094487 0.413973 -0.052920
v -0.094452 0.412671 -0.053731
v -0.094363 0.413695 -0.052664
v -0.094333 0.412568 -0.053367
v -0.094268 0.413318 -0.052585
v -0.094250 0.412667 -0.052991
v -0.094226 0.412941 -0.052705
v -0.093679 0.414692 0.003346
v -0.093655 0.414699 0.003307
v -0.093692 0.414706 0.003388
v -0.093692 0.414738 0.003421
v -0.093678 0.414779 0.003436
v -0.093655 0.414819 0.003430
v -0.093628 0.414725 0.003281
v -0.093627 0.414845 0.003404
v -0.093604 0.414764 0.003275
v -0.093591 0.414806 0.003291
v -0.093590 0.414838 0.003324
v -0.093604 0.414852 0.003365
v -0.093347 0.414370 -0.054123
v -0.093365 0.414086 -0.054422
v -0.093238 0.414479 -0.053740
v -0.093286 0.413704 -0.054559
v -0.093066 0.414385 -0.053376
v -0.093132 0.413326 -0.054495
v -0.092877 0.414112 -0.053129
v -0.092944 0.413054 -0.054248
v -0.092723 0.413734 -0.053065
v -0.092772 0.412959 -0.053884
v -0.092645 0.413353 -0.053202
v -0.092662 0.413069 -0.053501
v -0.092495 0.414001 0.003983
v -0.092485 0.413989 0.003947
v -0.092491 0.414026 0.004013
v -0.092464 0.413995 0.003914
v -0.092476 0.414059 0.004029
v -0.092438 0.414016 0.003893
v -0.092452 0.414090 0.004025
v -0.092414 0.414047 0.003889
v -0.092426 0.414112 0.004004
v -0.092398 0.414080 0.003905
v -0.092405 0.414117 0.003971
v -0.092395 0.414106 0.003935
v -0.092058 0.414943 -0.054708
v -0.092069 0.414652 -0.055023
v -0.091931 0.415062 -0.054316
v -0.091959 0.414266 -0.055176
v -0.091720 0.414977 -0.053952
v -0.091759 0.413890 -0.055126
v -0.091483 0.414711 -0.053714
v -0.091523 0.413624 -0.054888
v -0.091283 0.414335 -0.053664
v -0.091312 0.413539 -0.054524
v -0.091174 0.413949 -0.053817
v -0.091185 0.413658 -0.054132
v -0.091514 0.413177 0.004442
v -0.091495 0.413181 0.004415
v -0.091521 0.413185 0.004473
v -0.091515 0.413204 0.004500
v -0.091497 0.413227 0.004515
v -0.091471 0.413196 0.004399
v -0.091473 0.413250 0.004515
v -0.091446 0.413218 0.004399
v -0.091448 0.413265 0.004499
v -0.091429 0.413241 0.004414
v -0.091423 0.413260 0.004440
v -0.091430 0.413268 0.004471
v -0.090645 0.415714 -0.055433
v -0.090649 0.415415 -0.055762
v -0.090510 0.415839 -0.055028
v -0.090521 0.415023 -0.055928
v -0.090280 0.415757 -0.054656
v -0.090295 0.414642 -0.055886
v -0.090016 0.415489 -0.054417
v -0.090816 0.412235 0.004822
v -0.090800 0.412237 0.004801
v -0.090820 0.412240 0.004848
v -0.090813 0.412251 0.004871
v -0.090031 0.414375 -0.055647
v -0.090777 0.412245 0.004790
v -0.090795 0.412265 0.004885
v -0.090754 0.412258 0.004791
v -0.090772 0.412278 0.004887
v -0.089790 0.415109 -0.054375
v -0.090736 0.412271 0.004806
v -0.090749 0.412286 0.004875
v -0.090729 0.412282 0.004829
v -0.090734 0.412288 0.004854
v -0.089801 0.414292 -0.055275
v -0.089662 0.414716 -0.054541
v -0.089666 0.414418 -0.054870
v -0.088949 0.416687 -0.056301
v -0.088948 0.416380 -0.056644
v -0.088814 0.416813 -0.055879
v -0.088811 0.415976 -0.056818
v -0.088580 0.416726 -0.055491
v -0.088576 0.415582 -0.056775
v -0.088309 0.416448 -0.055243
v -0.088305 0.415304 -0.056526
v -0.088074 0.416055 -0.055200
v -0.088071 0.415217 -0.056139
v -0.087938 0.415650 -0.055373
v -0.087937 0.415344 -0.055717
v -0.086817 0.417857 -0.057307
v -0.086813 0.417542 -0.057665
v -0.086688 0.417983 -0.056866
v -0.086676 0.417122 -0.057842
v -0.086460 0.417885 -0.056459
v -0.086443 0.416709 -0.057793
v -0.086194 0.417591 -0.056196
v -0.086177 0.416414 -0.057530
v -0.085961 0.417178 -0.056146
v -0.085949 0.416316 -0.057123
v -0.085824 0.416757 -0.056324
v -0.085820 0.416442 -0.056681
v -0.084097 0.419219 -0.058449
v -0.084090 0.418894 -0.058819
v -0.083976 0.419343 -0.057988
v -0.083759 0.419233 -0.057560
v -0.083957 0.418456 -0.058999
v -0.083504 0.418918 -0.057279
v -0.083733 0.418021 -0.058941
v -0.083281 0.418483 -0.057221
v -0.083479 0.417706 -0.058661
v -0.083147 0.418045 -0.057401
v -0.083262 0.417596 -0.058232
v -0.083141 0.417720 -0.057771
v -0.080631 0.420767 -0.059723
v -0.080623 0.420432 -0.060106
v -0.080518 0.420889 -0.059243
v -0.080315 0.420767 -0.058794
v -0.080496 0.419975 -0.060288
v -0.080075 0.420432 -0.058496
v -0.080284 0.419518 -0.060221
v -0.079863 0.419975 -0.058429
v -0.080044 0.419183 -0.059923
v -0.079736 0.419518 -0.058611
v -0.079840 0.419061 -0.059474
v -0.079728 0.419183 -0.058994
v -0.103407 0.418050 -0.002368
v -0.102115 0.417824 -0.001348
v -0.103400 0.417980 -0.002388
v -0.102087 0.417776 -0.001388
v -0.103372 0.417928 -0.002431
v -0.103389 0.418120 -0.002379
v -0.102122 0.417890 -0.001331
v -0.103353 0.418171 -0.002416
v -0.102106 0.417956 -0.001341
v -0.102046 0.417758 -0.001440
v -0.103329 0.417909 -0.002487
v -0.103307 0.418190 -0.002469
v -0.102072 0.418005 -0.001376
v -0.102003 0.417776 -0.001490
v -0.103284 0.417928 -0.002541
v -0.103264 0.418171 -0.002525
v -0.102029 0.418022 -0.001426
v -0.101969 0.417824 -0.001525
v -0.103247 0.417980 -0.002578
v -0.103236 0.418120 -0.002569
v -0.101988 0.418004 -0.001478
v -0.101953 0.417890 -0.001535
v -0.103230 0.418050 -0.002588
v -0.101960 0.417956 -0.001518
v -0.100977 0.417715 -0.000414
v -0.100950 0.417670 -0.000451
v -0.100985 0.417777 -0.000399
v -0.100971 0.417838 -0.000409
v -0.100912 0.417653 -0.000499
v -0.100940 0.417883 -0.000443
v -0.100872 0.417670 -0.000546
v -0.100900 0.417900 -0.000490
v -0.100841 0.417715 -0.000579
v -0.100861 0.417883 -0.000538
v -0.100827 0.417776 -0.000589
v -0.100835 0.417838 -0.000574
v -0.099917 0.417618 0.000398
v -0.099881 0.417603 0.000354
v -0.099943 0.417661 0.000431
v -0.099952 0.417718 0.000444
v -0.099941 0.417775 0.000433
v -0.099914 0.417817 0.000401
v -0.099844 0.417618 0.000309
v -0.099877 0.417833 0.000356
v -0.099817 0.417660 0.000277
v -0.099841 0.417817 0.000312
v -0.099806 0.417718 0.000266
v -0.099815 0.417775 0.000278
v -0.098968 0.417671 0.001205
v -0.098943 0.417632 0.001175
v -0.098978 0.417724 0.001215
v -0.098970 0.417777 0.001203
v -0.098910 0.417618 0.001134
v -0.098948 0.417816 0.001171
v -0.098877 0.417632 0.001092
v -0.098915 0.417830 0.001129
v -0.098854 0.417671 0.001060
v -0.098882 0.417815 0.001088
v -0.098847 0.417724 0.001048
v -0.098857 0.417777 0.001058
v -0.098008 0.417755 0.001924
v -0.097984 0.417720 0.001897
v -0.098019 0.417804 0.001931
v -0.098015 0.417852 0.001918
v -0.097954 0.417706 0.001859
v -0.097997 0.417887 0.001887
v -0.097926 0.417719 0.001818
v -0.097970 0.417900 0.001846
v -0.097908 0.417755 0.001787
v -0.097940 0.417887 0.001808
v -0.097905 0.417803 0.001774
v -0.097916 0.417851 0.001781
v -0.097019 0.417923 0.002603
v -0.096997 0.417891 0.002580
v -0.097032 0.417967 0.002609
v -0.097031 0.418011 0.002594
v -0.096971 0.417879 0.002544
v -0.097018 0.418042 0.002564
v -0.096995 0.418054 0.002526
v -0.096948 0.417890 0.002506
v -0.096969 0.418042 0.002490
v -0.096934 0.417922 0.002476
v -0.096934 0.417966 0.002461
v -0.096946 0.418009 0.002467
v -0.095972 0.418224 0.003264
v -0.095959 0.418185 0.003261
v -0.095974 0.418262 0.003250
v -0.095938 0.418156 0.003240
v -0.095964 0.418290 0.003221
v -0.095916 0.418144 0.003207
v -0.095946 0.418300 0.003185
v -0.095897 0.418154 0.003171
v -0.095923 0.418289 0.003153
v -0.095888 0.418182 0.003142
v -0.095903 0.418260 0.003131
v -0.095890 0.418221 0.003128
v -0.094782 0.418548 0.003912
v -0.094764 0.418522 0.003894
v -0.094795 0.418582 0.003915
v -0.094799 0.418616 0.003901
v -0.094793 0.418640 0.003874
v -0.094745 0.418512 0.003864
v -0.094778 0.418648 0.003841
v -0.094730 0.418520 0.003831
v -0.094759 0.418638 0.003812
v -0.094724 0.418544 0.003804
v -0.094727 0.418578 0.003790
v -0.094740 0.418613 0.003793
v -0.093458 0.419053 0.004578
v -0.093446 0.419023 0.004576
v -0.093462 0.419082 0.004565
v -0.093458 0.419102 0.004540
v -0.093430 0.419000 0.004559
v -0.093447 0.419109 0.004511
v -0.093414 0.418991 0.004533
v -0.093431 0.419100 0.004484
v -0.093402 0.418997 0.004503
v -0.093414 0.419077 0.004468
v -0.093398 0.419018 0.004479
v -0.093403 0.419047 0.004466
v -0.091915 0.419643 0.005269
v -0.091905 0.419618 0.005268
v -0.091920 0.419668 0.005258
v -0.091918 0.419686 0.005236
v -0.091891 0.419598 0.005254
v -0.091908 0.419691 0.005211
v -0.091877 0.419590 0.005231
v -0.091895 0.419683 0.005188
v -0.091868 0.419596 0.005205
v -0.091881 0.419663 0.005174
v -0.091866 0.419613 0.005184
v -0.091871 0.419638 0.005172
v -0.090114 0.420343 0.006006
v -0.090102 0.420327 0.005994
v -0.090123 0.420365 0.006007
v -0.090127 0.420385 0.005998
v -0.090126 0.420400 0.005979
v -0.090119 0.420404 0.005958
v -0.090085 0.420324 0.005953
v -0.090083 0.420339 0.005935
v -0.090092 0.420320 0.005975
v -0.090088 0.420359 0.005925
v -0.090097 0.420381 0.005926
v -0.090108 0.420397 0.005938
v -0.088006 0.421193 0.006765
v -0.088005 0.421204 0.006750
v -0.088011 0.421190 0.006783
v -0.088020 0.421195 0.006798
v -0.088009 0.421221 0.006742
v -0.088029 0.421208 0.006808
v -0.088016 0.421238 0.006743
v -0.088036 0.421226 0.006809
v -0.088026 0.421251 0.006753
v -0.088040 0.421242 0.006801
v -0.088034 0.421257 0.006768
v -0.088039 0.421253 0.006786
v -0.112502 0.429771 -0.019381
v -0.112303 0.430585 -0.017731
v -0.112482 0.429711 -0.019346
v -0.112486 0.429831 -0.019418
v -0.112322 0.430645 -0.017756
v -0.112255 0.430540 -0.017717
v -0.112429 0.429668 -0.019323
v -0.112437 0.429874 -0.019447
v -0.112306 0.430704 -0.017786
v -0.112190 0.430522 -0.017719
v -0.112359 0.429652 -0.019317
v -0.112368 0.429890 -0.019461
v -0.112259 0.430746 -0.017813
v -0.112125 0.430535 -0.017735
v -0.112290 0.429668 -0.019331
v -0.112298 0.429874 -0.019456
v -0.112195 0.430759 -0.017829
v -0.112079 0.430577 -0.017761
v -0.112241 0.429711 -0.019360
v -0.112245 0.429831 -0.019432
v -0.112130 0.430740 -0.017830
v -0.111997 0.431197 -0.016225
v -0.111954 0.431151 -0.016220
v -0.112013 0.431256 -0.016241
v -0.111997 0.431313 -0.016264
v -0.112063 0.430635 -0.017791
v -0.112224 0.429771 -0.019398
v -0.112082 0.430695 -0.017816
v -0.111894 0.431132 -0.016227
v -0.111954 0.431352 -0.016288
v -0.111834 0.431143 -0.016245
v -0.111894 0.431363 -0.016306
v -0.111791 0.431182 -0.016269
v -0.111834 0.431344 -0.016313
v -0.111775 0.431239 -0.016292
v -0.111791 0.431298 -0.016309
v -0.111586 0.431594 -0.014804
v -0.111547 0.431550 -0.014806
v -0.111599 0.431651 -0.014812
v -0.111583 0.431705 -0.014830
v -0.111493 0.431530 -0.014819
v -0.111542 0.431742 -0.014851
v -0.111438 0.431539 -0.014839
v -0.111487 0.431752 -0.014871
v -0.111397 0.431576 -0.014860
v -0.111433 0.431732 -0.014883
v -0.111381 0.431630 -0.014878
v -0.111394 0.431687 -0.014886
v -0.111090 0.431825 -0.013447
v -0.111101 0.431878 -0.013450
v -0.111057 0.431783 -0.013455
v -0.111085 0.431929 -0.013462
v -0.111008 0.431763 -0.013471
v -0.111047 0.431963 -0.013481
v -0.110958 0.431772 -0.013492
v -0.110997 0.431972 -0.013502
v -0.110920 0.431806 -0.013511
v -0.110948 0.431952 -0.013518
v -0.110904 0.431857 -0.013523
v -0.110914 0.431910 -0.013526
v -0.110533 0.431937 -0.012131
v -0.110541 0.431987 -0.012130
v -0.110503 0.431898 -0.012142
v -0.110526 0.432033 -0.012140
v -0.110460 0.431880 -0.012160
v -0.110490 0.432065 -0.012157
v -0.110415 0.431888 -0.012180
v -0.110445 0.432073 -0.012177
v -0.110379 0.431919 -0.012197
v -0.110402 0.432055 -0.012195
v -0.110364 0.431966 -0.012206
v -0.110372 0.432015 -0.012206
v -0.109936 0.431979 -0.010834
v -0.109909 0.431943 -0.010845
v -0.109943 0.432024 -0.010832
v -0.109928 0.432067 -0.010839
v -0.109870 0.431926 -0.010863
v -0.109896 0.432096 -0.010855
v -0.109829 0.431933 -0.010882
v -0.109854 0.432103 -0.010874
v -0.109797 0.431962 -0.010897
v -0.109815 0.432086 -0.010891
v -0.109782 0.432005 -0.010905
v -0.109789 0.432050 -0.010903
v -0.109320 0.431998 -0.009532
v -0.109296 0.431966 -0.009542
v -0.109326 0.432039 -0.009530
v -0.109313 0.432078 -0.009537
v -0.109261 0.431951 -0.009558
v -0.109284 0.432104 -0.009551
v -0.109224 0.431957 -0.009576
v -0.109246 0.432110 -0.009568
v -0.109194 0.431983 -0.009590
v -0.109211 0.432095 -0.009584
v -0.109181 0.432022 -0.009597
v -0.109187 0.432063 -0.009595
v -0.108708 0.432043 -0.008203
v -0.108686 0.432014 -0.008211
v -0.108714 0.432079 -0.008203
v -0.108702 0.432114 -0.008210
v -0.108654 0.432000 -0.008225
v -0.108676 0.432137 -0.008223
v -0.108620 0.432006 -0.008240
v -0.108642 0.432143 -0.008238
v -0.108594 0.432029 -0.008252
v -0.108610 0.432130 -0.008251
v -0.108582 0.432064 -0.008259
v -0.108588 0.432101 -0.008259
v -0.108100 0.432135 -0.006830
v -0.108071 0.432124 -0.006840
v -0.108120 0.432161 -0.006825
v -0.108126 0.432193 -0.006827
v -0.108117 0.432223 -0.006834
v -0.108094 0.432244 -0.006846
v -0.108041 0.432129 -0.006852
v -0.108064 0.432249 -0.006858
v -0.108018 0.432149 -0.006864
v -0.108035 0.432237 -0.006868
v -0.108008 0.432180 -0.006871
v -0.108015 0.432212 -0.006873
v -0.107579 0.432400 -0.005374
v -0.107561 0.432379 -0.005376
v -0.107586 0.432428 -0.005378
v -0.107578 0.432454 -0.005386
v -0.107535 0.432369 -0.005383
v -0.107558 0.432472 -0.005397
v -0.107509 0.432373 -0.005392
v -0.107532 0.432476 -0.005406
v -0.107489 0.432391 -0.005403
v -0.107506 0.432466 -0.005413
v -0.107481 0.432417 -0.005411
v -0.107487 0.432445 -0.005415
v -0.107107 0.432809 -0.003828
v -0.107091 0.432791 -0.003827
v -0.107113 0.432831 -0.003834
v -0.107107 0.432853 -0.003843
v -0.107068 0.432783 -0.003831
v -0.107090 0.432868 -0.003852
v -0.107045 0.432788 -0.003838
v -0.107068 0.432872 -0.003859
v -0.107029 0.432803 -0.003847
v -0.107045 0.432864 -0.003862
v -0.107023 0.432824 -0.003856
v -0.107029 0.432847 -0.003861
v -0.106725 0.433434 -0.002165
v -0.106711 0.433421 -0.002161
v -0.106730 0.433452 -0.002171
v -0.106725 0.433469 -0.002180
v -0.106692 0.433415 -0.002162
v -0.106712 0.433482 -0.002187
v -0.106673 0.433419 -0.002168
v -0.106693 0.433485 -0.002192
v -0.106660 0.433431 -0.002175
v -0.106655 0.433448 -0.002184
v -0.106660 0.433466 -0.002190
v -0.106674 0.433480 -0.002193
v -0.115670 0.423206 -0.030038
v -0.115628 0.423134 -0.029853
v -0.115688 0.423076 -0.029984
v -0.115574 0.423009 -0.029817
v -0.115637 0.422945 -0.029958
v -0.115615 0.423258 -0.029917
v -0.115589 0.423302 -0.030105
v -0.115467 0.422917 -0.029821
v -0.115532 0.422849 -0.029967
v -0.115537 0.423233 -0.029658
v -0.115482 0.423112 -0.029619
v -0.115539 0.423349 -0.029993
v -0.115526 0.423354 -0.029725
v -0.115467 0.423337 -0.030169
v -0.115376 0.423022 -0.029620
v -0.115337 0.422883 -0.029861
v -0.115401 0.422814 -0.030009
v -0.115422 0.423368 -0.029403
v -0.115367 0.423249 -0.029364
v -0.115453 0.423442 -0.029803
v -0.115420 0.423381 -0.030060
v -0.115411 0.423487 -0.029471
v -0.115262 0.423161 -0.029364
v -0.115248 0.422988 -0.029659
v -0.115335 0.423302 -0.030210
v -0.115336 0.423473 -0.029871
v -0.115339 0.423573 -0.029548
v -0.115218 0.422915 -0.029929
v -0.115278 0.422849 -0.030072
v -0.115285 0.423532 -0.029096
v -0.115231 0.423414 -0.029057
v -0.115290 0.423347 -0.030101
v -0.115275 0.423649 -0.029163
v -0.115134 0.423128 -0.029402
v -0.115127 0.423328 -0.029056
v -0.115131 0.423020 -0.029727
v -0.115230 0.423206 -0.030220
v -0.115223 0.423604 -0.029615
v -0.115207 0.423440 -0.029910
v -0.115203 0.423735 -0.029239
v -0.115142 0.423006 -0.030005
v -0.115197 0.422945 -0.030140
v -0.115000 0.423296 -0.029093
v -0.115183 0.423255 -0.030104
v -0.115133 0.423719 -0.028744
v -0.115079 0.423603 -0.028705
v -0.115122 0.423835 -0.028809
v -0.115019 0.423159 -0.029469
v -0.115057 0.423108 -0.029805
v -0.115129 0.423130 -0.030069
v -0.115179 0.423076 -0.030194
v -0.114976 0.423518 -0.028704
v -0.115096 0.423571 -0.029653
v -0.115101 0.423350 -0.029911
v -0.115089 0.423766 -0.029304
v -0.115051 0.423920 -0.028883
v -0.115046 0.423229 -0.029872
v -0.114946 0.423246 -0.029546
v -0.114886 0.423327 -0.029158
v -0.114851 0.423487 -0.028739
v -0.114970 0.423923 -0.028353
v -0.114917 0.423808 -0.028315
v -0.114959 0.424038 -0.028416
v -0.114991 0.423484 -0.029653
v -0.114963 0.423734 -0.029341
v -0.114815 0.423725 -0.028313
v -0.114938 0.423951 -0.028946
v -0.114936 0.423364 -0.029614
v -0.114888 0.424122 -0.028488
v -0.114814 0.423413 -0.029234
v -0.114738 0.423519 -0.028802
v -0.114859 0.423648 -0.029340
v -0.114692 0.423695 -0.028347
v -0.114813 0.423920 -0.028982
v -0.114801 0.424137 -0.027931
v -0.114750 0.424023 -0.027895
v -0.114790 0.424251 -0.027992
v -0.114804 0.423530 -0.029301
v -0.114776 0.424154 -0.028549
v -0.114649 0.423941 -0.027892
v -0.114667 0.423604 -0.028876
v -0.114720 0.424335 -0.028061
v -0.114579 0.423726 -0.028408
v -0.114710 0.423836 -0.028980
v -0.114657 0.423720 -0.028941
v -0.114527 0.423913 -0.027924
v -0.114652 0.424124 -0.028583
v -0.114633 0.424354 -0.027486
v -0.114582 0.424242 -0.027451
v -0.114621 0.424468 -0.027544
v -0.114608 0.424367 -0.028119
v -0.114483 0.424161 -0.027448
v -0.114509 0.423811 -0.028480
v -0.114551 0.424041 -0.028580
v -0.114551 0.424552 -0.027609
v -0.114415 0.423945 -0.027983
v -0.114498 0.423926 -0.028543
v -0.114362 0.424134 -0.027478
v -0.114486 0.424338 -0.028151
v -0.114469 0.424569 -0.027024
v -0.114420 0.424458 -0.026991
v -0.114440 0.424585 -0.027664
v -0.114457 0.424682 -0.027079
v -0.114345 0.424029 -0.028051
v -0.114322 0.424379 -0.026987
v -0.114386 0.424256 -0.028149
v -0.114387 0.424767 -0.027140
v -0.114334 0.424143 -0.028112
v -0.114251 0.424166 -0.027533
v -0.114202 0.424352 -0.027015
v -0.114319 0.424557 -0.027695
v -0.114316 0.424775 -0.026554
v -0.114268 0.424664 -0.026522
v -0.114303 0.424887 -0.026605
v -0.114277 0.424800 -0.027192
v -0.114181 0.424251 -0.027598
v -0.114171 0.424586 -0.026519
v -0.114220 0.424476 -0.027692
v -0.114232 0.424972 -0.026661
v -0.114092 0.424386 -0.027067
v -0.114169 0.424364 -0.027656
v -0.114052 0.424561 -0.026544
v -0.114156 0.424774 -0.027220
v -0.114178 0.424964 -0.026082
v -0.114131 0.424855 -0.026053
v -0.114164 0.425077 -0.026128
v -0.114036 0.424778 -0.026049
v -0.114123 0.425007 -0.026709
v -0.114021 0.424470 -0.027128
v -0.114058 0.424694 -0.027217
v -0.114093 0.425162 -0.026180
v -0.113942 0.424596 -0.026591
v -0.114009 0.424583 -0.027183
v -0.113918 0.424754 -0.026071
v -0.114004 0.424982 -0.026734
v -0.114060 0.425133 -0.025614
v -0.114013 0.425025 -0.025584
v -0.114046 0.425244 -0.025659
v -0.113919 0.424950 -0.025578
v -0.113984 0.425198 -0.026222
v -0.113872 0.424681 -0.026648
v -0.113976 0.425329 -0.025708
v -0.113859 0.424793 -0.026699
v -0.113808 0.424790 -0.026114
v -0.113907 0.424903 -0.026731
v -0.113802 0.424928 -0.025597
v -0.113866 0.425174 -0.026244
v -0.113498 0.425921 -0.023352
v -0.113408 0.425854 -0.023340
v -0.113543 0.426018 -0.023388
v -0.113532 0.426118 -0.023438
v -0.113867 0.425365 -0.025747
v -0.113468 0.426194 -0.023489
v -0.113737 0.424876 -0.026165
v -0.113693 0.424964 -0.025636
v -0.113771 0.425098 -0.026241
v -0.113299 0.425834 -0.023356
v -0.113723 0.424988 -0.026212
v -0.113750 0.425343 -0.025766
v -0.113368 0.426227 -0.023528
v -0.113623 0.425049 -0.025685
v -0.113198 0.425867 -0.023394
v -0.113656 0.425268 -0.025760
v -0.113258 0.426207 -0.023544
v -0.113609 0.425161 -0.025730
v -0.113134 0.425944 -0.023446
v -0.113168 0.426140 -0.023532
v -0.113123 0.426044 -0.023496
v -0.113136 0.426975 -0.021705
v -0.113091 0.426893 -0.021659
v -0.113129 0.427060 -0.021766
v -0.113006 0.426836 -0.021639
v -0.113072 0.427124 -0.021824
v -0.112904 0.426819 -0.021652
v -0.112980 0.427152 -0.021865
v -0.112812 0.426846 -0.021693
v -0.112878 0.427135 -0.021877
v -0.112755 0.426911 -0.021751
v -0.112793 0.427078 -0.021858
v -0.112748 0.426996 -0.021812
v -0.112825 0.427997 -0.020491
v -0.112780 0.427933 -0.020435
v -0.112822 0.428063 -0.020561
v -0.112700 0.427888 -0.020408
v -0.112772 0.428113 -0.020626
v -0.112605 0.427874 -0.020417
v -0.112688 0.428134 -0.020668
v -0.112521 0.427895 -0.020460
v -0.112594 0.428120 -0.020678
v -0.112595 0.429077 -0.019667
v -0.112551 0.429033 -0.019605
v -0.112595 0.429123 -0.019742
v -0.112471 0.427945 -0.020525
v -0.112513 0.428075 -0.020651
v -0.112475 0.429001 -0.019573
v -0.112552 0.429157 -0.019811
v -0.112469 0.428011 -0.020595
v -0.112388 0.428991 -0.019579
v -0.112476 0.429171 -0.019854
v -0.112313 0.429005 -0.019623
v -0.112389 0.429160 -0.019860
v -0.112432 0.430208 -0.019154
v -0.112390 0.430182 -0.019092
v -0.112434 0.430235 -0.019230
v -0.112320 0.430163 -0.019058
v -0.112396 0.430254 -0.019297
v -0.112270 0.429039 -0.019691
v -0.112314 0.429129 -0.019828
v -0.112270 0.429084 -0.019766
v -0.112241 0.430156 -0.019063
v -0.112328 0.430261 -0.019339
v -0.112320 0.431383 -0.018875
v -0.112282 0.431370 -0.018815
v -0.112323 0.431396 -0.018945
v -0.112173 0.430164 -0.019104
v -0.112249 0.430254 -0.019344
v -0.112219 0.431361 -0.018783
v -0.112290 0.431404 -0.019008
v -0.112136 0.430183 -0.019172
v -0.112179 0.430236 -0.019310
v -0.112148 0.431357 -0.018787
v -0.112230 0.431407 -0.019046
v -0.112212 0.432590 -0.018695
v -0.112156 0.432585 -0.018666
v -0.112247 0.432595 -0.018748
v -0.112250 0.432600 -0.018811
v -0.112220 0.432603 -0.018867
v -0.112138 0.430209 -0.019247
v -0.112087 0.431359 -0.018825
v -0.112159 0.431403 -0.019050
v -0.112093 0.432583 -0.018669
v -0.112167 0.432604 -0.018901
v -0.112198 0.433841 -0.018751
v -0.112173 0.433843 -0.018800
v -0.112196 0.433838 -0.018696
v -0.112166 0.433835 -0.018649
v -0.112117 0.433833 -0.018624
v -0.112152 0.435107 -0.018639
v -0.112155 0.435111 -0.018686
v -0.112127 0.435103 -0.018599
v -0.112054 0.431368 -0.018888
v -0.112057 0.431381 -0.018959
v -0.112095 0.431393 -0.019018
v -0.112040 0.432584 -0.018703
v -0.112104 0.432602 -0.018905
v -0.112062 0.433832 -0.018627
v -0.112126 0.433843 -0.018830
v -0.112133 0.435113 -0.018727
v -0.112094 0.435115 -0.018752
v -0.112071 0.433842 -0.018832
v -0.112085 0.435100 -0.018578
v -0.112039 0.435099 -0.018580
v -0.112105 0.436401 -0.018537
v -0.112087 0.436406 -0.018571
v -0.112103 0.436395 -0.018498
v -0.112082 0.436388 -0.018466
v -0.112048 0.436384 -0.018449
v -0.112011 0.432587 -0.018760
v -0.112014 0.432592 -0.018823
v -0.112048 0.432597 -0.018876
v -0.112015 0.433832 -0.018657
v -0.111990 0.433834 -0.018706
v -0.112022 0.433839 -0.018807
v -0.111999 0.435100 -0.018606
v -0.112047 0.435114 -0.018755
v -0.112009 0.436383 -0.018451
v -0.111976 0.436385 -0.018472
v -0.112054 0.436409 -0.018591
v -0.112015 0.436408 -0.018593
v -0.112005 0.435111 -0.018733
v -0.112019 0.437713 -0.018251
v -0.111993 0.437716 -0.018267
v -0.112033 0.437705 -0.018225
v -0.112032 0.437695 -0.018196
v -0.112016 0.437687 -0.018172
v -0.111989 0.437681 -0.018159
v -0.111958 0.437680 -0.018160
v -0.111925 0.439004 -0.017653
v -0.111914 0.438994 -0.017636
v -0.111926 0.439014 -0.017673
v -0.111993 0.433836 -0.018761
v -0.111980 0.435107 -0.018694
v -0.111977 0.435103 -0.018647
v -0.111981 0.436404 -0.018576
v -0.111960 0.436397 -0.018544
v -0.111958 0.436391 -0.018506
v -0.111932 0.437683 -0.018176
v -0.111918 0.437691 -0.018202
v -0.111962 0.437715 -0.018269
v -0.111936 0.437709 -0.018255
v -0.111894 0.438988 -0.017628
v -0.111872 0.438986 -0.017629
v -0.111915 0.439023 -0.017690
v -0.111896 0.439027 -0.017701
v -0.111919 0.437700 -0.018231
v -0.111853 0.438990 -0.017640
v -0.111874 0.439026 -0.017703
v -0.111854 0.439019 -0.017694
v -0.111843 0.439009 -0.017678
v -0.111842 0.438999 -0.017658
usemtl Inferior_lateral_genicular_vein_rMaterial0
f 1 2 3
f 2 4 3
f 5 6 2
f 7 5 2
f 7 2 1
f 2 6 4
f 1 3 8
f 8 3 9
f 3 10 9
f 3 4 10
f 5 11 6
f 12 5 7
f 13 11 5
f 12 13 5
f 14 1 8
f 8 9 15
f 16 8 15
f 14 8 16
f 17 7 1
f 17 1 14
f 15 9 18
f 9 19 18
f 9 10 19
f 6 20 4
f 11 21 6
f 6 21 20
f 22 12 7
f 22 7 17
f 4 23 10
f 4 20 23
f 15 18 24
f 25 15 24
f 16 15 25
f 13 26 11
f 27 13 12
f 28 26 13
f 27 28 13
f 26 29 11
f 11 29 21
f 24 18 30
f 18 19 31
f 18 31 30
f 10 32 19
f 10 23 32
f 33 27 12
f 33 12 22
f 24 30 34
f 35 24 34
f 25 24 35
f 28 36 26
f 36 37 26
f 26 37 29
f 38 28 27
f 39 36 28
f 38 39 28
f 19 40 31
f 19 32 40
f 34 30 41
f 30 42 41
f 30 31 42
f 43 38 27
f 43 27 33
f 39 44 36
f 45 44 39
f 46 45 39
f 46 39 38
f 44 47 36
f 36 47 37
f 21 48 20
f 20 49 23
f 20 48 49
f 29 50 21
f 21 50 48
f 34 41 51
f 52 34 51
f 35 34 52
f 53 14 16
f 54 16 25
f 53 16 54
f 55 17 14
f 55 14 53
f 51 41 56
f 41 57 56
f 41 42 57
f 31 58 42
f 31 40 58
f 37 59 29
f 29 59 50
f 23 60 32
f 23 49 60
f 61 22 17
f 61 17 55
f 56 62 45
f 63 56 45
f 45 62 44
f 63 45 46
f 64 25 35
f 54 25 64
f 51 56 63
f 56 57 62
f 65 46 38
f 65 38 43
f 62 66 44
f 44 66 47
f 67 51 63
f 52 51 67
f 42 68 57
f 42 58 68
f 47 69 37
f 37 69 59
f 32 70 40
f 32 60 70
f 71 63 46
f 71 46 65
f 57 72 62
f 62 72 66
f 67 63 71
f 57 68 72
f 73 33 22
f 73 22 61
f 74 35 52
f 64 35 74
f 66 75 47
f 47 75 69
f 40 76 58
f 40 70 76
f 77 43 33
f 77 33 73
f 78 52 67
f 74 52 78
f 72 79 66
f 66 79 75
f 58 80 68
f 58 76 80
f 50 81 48
f 48 82 49
f 48 81 82
f 59 83 50
f 50 83 81
f 84 65 43
f 84 43 77
f 68 85 72
f 68 80 85
f 72 85 79
f 49 86 60
f 49 82 86
f 69 87 59
f 59 87 83
f 88 67 71
f 78 67 88
f 89 71 65
f 88 71 89
f 89 65 84
f 75 90 69
f 69 90 87
f 60 91 70
f 60 86 91
f 79 92 75
f 75 92 90
f 70 93 76
f 70 91 93
f 94 53 54
f 95 54 64
f 94 54 95
f 96 55 53
f 96 53 94
f 85 97 79
f 79 97 92
f 76 98 80
f 76 93 98
f 99 64 74
f 95 64 99
f 100 61 55
f 100 55 96
f 80 101 85
f 80 98 101
f 85 101 97
f 83 102 81
f 81 103 82
f 81 102 103
f 87 104 83
f 83 104 102
f 105 74 78
f 99 74 105
f 106 73 61
f 106 61 100
f 82 107 86
f 82 103 107
f 90 108 87
f 87 108 104
f 86 109 91
f 86 107 109
f 92 110 90
f 90 110 108
f 111 78 88
f 105 78 111
f 112 77 73
f 112 73 106
f 91 113 93
f 91 109 113
f 97 114 92
f 92 114 110
f 115 88 89
f 111 88 115
f 116 84 77
f 116 77 112
f 117 89 84
f 115 89 117
f 117 84 116
f 93 118 98
f 93 113 118
f 101 119 97
f 97 119 114
f 98 120 101
f 98 118 120
f 101 120 119
f 104 121 102
f 102 122 103
f 102 121 122
f 108 123 104
f 104 123 121
f 103 124 107
f 103 122 124
f 110 125 108
f 108 125 123
f 107 126 109
f 107 124 126
f 114 127 110
f 110 127 125
f 109 128 113
f 109 126 128
f 119 129 114
f 114 129 127
f 113 130 118
f 113 128 130
f 120 131 119
f 119 131 129
f 118 132 120
f 118 130 132
f 120 132 131
f 123 133 121
f 121 134 122
f 121 133 134
f 125 135 123
f 123 135 133
f 122 136 124
f 122 134 136
f 127 137 125
f 125 137 135
f 138 94 95
f 139 95 99
f 138 95 139
f 140 96 94
f 140 94 138
f 124 141 126
f 124 136 141
f 129 142 127
f 127 142 137
f 143 99 105
f 139 99 143
f 144 100 96
f 144 96 140
f 126 145 128
f 126 141 145
f 146 105 111
f 143 105 146
f 131 147 129
f 129 147 142
f 148 106 100
f 148 100 144
f 128 149 130
f 128 145 149
f 132 150 131
f 131 150 147
f 151 111 115
f 146 111 151
f 135 152 133
f 133 153 134
f 133 152 153
f 137 154 135
f 135 154 152
f 130 155 132
f 130 149 155
f 132 155 150
f 156 112 106
f 156 106 148
f 157 115 117
f 151 115 157
f 134 158 136
f 134 153 158
f 142 159 137
f 137 159 154
f 160 116 112
f 160 112 156
f 161 117 116
f 157 117 161
f 161 116 160
f 136 162 141
f 136 158 162
f 147 163 142
f 142 163 159
f 141 164 145
f 141 162 164
f 150 165 147
f 147 165 163
f 145 166 149
f 145 164 166
f 155 167 150
f 150 167 165
f 149 168 155
f 149 166 168
f 155 168 167
f 154 169 152
f 152 170 153
f 152 169 170
f 159 171 154
f 154 171 169
f 153 172 158
f 153 170 172
f 163 173 159
f 159 173 171
f 158 174 162
f 158 172 174
f 165 175 163
f 163 175 173
f 162 176 164
f 162 174 176
f 167 177 165
f 165 177 175
f 164 178 166
f 164 176 178
f 168 179 167
f 167 179 177
f 166 180 168
f 166 178 180
f 168 180 179
f 171 181 169
f 169 182 170
f 169 181 182
f 173 183 171
f 171 183 181
f 170 184 172
f 170 182 184
f 175 185 173
f 173 185 183
f 172 186 174
f 172 184 186
f 177 187 175
f 175 187 185
f 174 188 176
f 174 186 188
f 179 189 177
f 177 189 187
f 176 190 178
f 176 188 190
f 180 191 179
f 179 191 189
f 178 192 180
f 178 190 192
f 180 192 191
f 183 193 181
f 181 194 182
f 181 193 194
f 185 195 183
f 183 195 193
f 182 196 184
f 182 194 196
f 187 197 185
f 185 197 195
f 184 198 186
f 184 196 198
f 189 199 187
f 187 199 197
f 200 139 143
f 201 143 146
f 200 143 201
f 202 138 139
f 202 139 200
f 203 140 138
f 203 138 202
f 186 204 188
f 186 198 204
f 191 205 189
f 189 205 199
f 206 146 151
f 201 146 206
f 207 144 140
f 207 140 203
f 188 208 190
f 188 204 208
f 192 209 191
f 191 209 205
f 210 151 157
f 206 151 210
f 211 148 144
f 211 144 207
f 190 212 192
f 190 208 212
f 192 212 209
f 213 157 161
f 210 157 213
f 214 156 148
f 214 148 211
f 215 161 160
f 213 161 215
f 216 160 156
f 215 160 216
f 216 156 214
f 195 217 193
f 193 218 194
f 193 217 218
f 197 219 195
f 195 219 217
f 194 220 196
f 194 218 220
f 199 221 197
f 197 221 219
f 196 222 198
f 196 220 222
f 205 223 199
f 199 223 221
f 198 224 204
f 198 222 224
f 209 225 205
f 205 225 223
f 204 226 208
f 204 224 226
f 212 227 209
f 209 227 225
f 208 228 212
f 208 226 228
f 212 228 227
f 219 229 217
f 217 230 218
f 217 229 230
f 221 231 219
f 219 231 229
f 218 232 220
f 218 230 232
f 223 233 221
f 221 233 231
f 220 234 222
f 220 232 234
f 225 235 223
f 223 235 233
f 222 236 224
f 222 234 236
f 227 237 225
f 225 237 235
f 224 238 226
f 224 236 238
f 228 239 227
f 227 239 237
f 226 240 228
f 226 238 240
f 228 240 239
f 231 241 229
f 229 242 230
f 229 241 242
f 233 243 231
f 231 243 241
f 230 244 232
f 230 242 244
f 235 245 233
f 233 245 243
f 232 246 234
f 232 244 246
f 237 247 235
f 235 247 245
f 234 248 236
f 234 246 248
f 239 249 237
f 237 249 247
f 236 250 238
f 236 248 250
f 240 251 239
f 239 251 249
f 238 252 240
f 238 250 252
f 240 252 251
f 243 253 241
f 241 254 242
f 241 253 254
f 245 255 243
f 243 255 253
f 242 256 244
f 242 254 256
f 247 257 245
f 245 257 255
f 244 258 246
f 244 256 258
f 249 259 247
f 247 259 257
f 246 260 248
f 246 258 260
f 251 261 249
f 249 261 259
f 248 262 250
f 248 260 262
f 252 263 251
f 251 263 261
f 250 264 252
f 250 262 264
f 252 264 263
f 265 200 201
f 266 201 206
f 265 201 266
f 267 202 200
f 267 200 265
f 268 206 210
f 266 206 268
f 255 269 253
f 253 270 254
f 253 269 270
f 257 271 255
f 255 271 269
f 272 210 213
f 268 210 272
f 273 203 202
f 273 202 267
f 254 274 256
f 254 270 274
f 275 213 215
f 272 213 275
f 276 207 203
f 276 203 273
f 259 277 257
f 257 277 271
f 278 215 216
f 275 215 278
f 279 211 207
f 279 207 276
f 280 214 211
f 280 211 279
f 281 216 214
f 278 216 281
f 281 214 280
f 256 282 258
f 256 274 282
f 261 283 259
f 259 283 277
f 258 284 260
f 258 282 284
f 263 285 261
f 261 285 283
f 260 286 262
f 260 284 286
f 264 287 263
f 263 287 285
f 262 288 264
f 262 286 288
f 264 288 287
f 271 289 269
f 269 290 270
f 269 289 290
f 277 291 271
f 271 291 289
f 270 292 274
f 270 290 292
f 283 293 277
f 277 293 291
f 274 294 282
f 274 292 294
f 285 295 283
f 283 295 293
f 282 296 284
f 282 294 296
f 287 297 285
f 285 297 295
f 284 298 286
f 284 296 298
f 288 299 287
f 287 299 297
f 286 300 288
f 286 298 300
f 288 300 299
f 289 301 290
f 291 302 289
f 289 302 301
f 290 303 292
f 290 301 303
f 293 304 291
f 291 304 302
f 295 305 293
f 293 305 304
f 292 306 294
f 292 303 306
f 297 307 295
f 295 307 305
f 294 308 296
f 294 306 308
f 299 309 297
f 297 309 307
f 296 310 298
f 296 308 310
f 298 311 300
f 298 310 311
f 300 312 299
f 299 312 309
f 300 311 312
f 302 313 301
f 304 314 302
f 302 314 313
f 301 315 303
f 301 313 315
f 305 316 304
f 304 316 314
f 303 317 306
f 303 315 317
f 307 318 305
f 305 318 316
f 306 319 308
f 306 317 319
f 309 320 307
f 307 320 318
f 308 321 310
f 308 319 321
f 312 322 309
f 309 322 320
f 310 323 311
f 310 321 323
f 311 324 312
f 312 324 322
f 311 323 324
f 314 325 313
f 316 326 314
f 314 326 325
f 313 327 315
f 313 325 327
f 318 328 316
f 316 328 326
f 315 329 317
f 315 327 329
f 320 330 318
f 318 330 328
f 317 331 319
f 317 329 331
f 322 332 320
f 320 332 330
f 319 333 321
f 319 331 333
f 324 334 322
f 322 334 332
f 321 335 323
f 321 333 335
f 323 336 324
f 324 336 334
f 323 335 336
f 337 265 266
f 338 266 268
f 337 266 338
f 339 267 265
f 339 265 337
f 340 268 272
f 338 268 340
f 341 272 275
f 340 272 341
f 342 273 267
f 342 267 339
f 343 275 278
f 341 275 343
f 344 276 273
f 344 273 342
f 345 278 281
f 343 278 345
f 346 279 276
f 346 276 344
f 347 280 279
f 347 279 346
f 348 281 280
f 345 281 348
f 348 280 347
f 326 349 325
f 328 350 326
f 326 350 349
f 325 351 327
f 325 349 351
f 330 352 328
f 328 352 350
f 327 353 329
f 327 351 353
f 332 354 330
f 330 354 352
f 334 355 332
f 332 355 354
f 329 356 331
f 329 353 356
f 336 357 334
f 334 357 355
f 331 358 333
f 331 356 358
f 333 359 335
f 333 358 359
f 335 360 336
f 336 360 357
f 335 359 360
f 350 361 349
f 352 362 350
f 350 362 361
f 349 363 351
f 349 361 363
f 354 364 352
f 352 364 362
f 351 365 353
f 351 363 365
f 355 366 354
f 354 366 364
f 357 367 355
f 355 367 366
f 353 368 356
f 353 365 368
f 356 369 358
f 356 368 369
f 360 370 357
f 357 370 367
f 358 371 359
f 358 369 371
f 359 372 360
f 360 372 370
f 359 371 372
f 362 373 361
f 364 374 362
f 362 374 373
f 361 375 363
f 361 373 375
f 366 376 364
f 364 376 374
f 363 377 365
f 363 375 377
f 367 378 366
f 366 378 376
f 365 379 368
f 365 377 379
f 370 380 367
f 367 380 378
f 368 381 369
f 368 379 381
f 372 382 370
f 370 382 380
f 369 383 371
f 369 381 383
f 371 384 372
f 371 383 384
f 372 384 382
f 385 338 340
f 386 337 338
f 386 338 385
f 387 340 341
f 385 340 387
f 388 339 337
f 388 337 386
f 389 342 339
f 389 339 388
f 390 341 343
f 387 341 390
f 391 344 342
f 391 342 389
f 392 343 345
f 390 343 392
f 393 345 348
f 392 345 393
f 394 346 344
f 394 344 391
f 395 348 347
f 393 348 395
f 396 347 346
f 396 346 394
f 395 347 396
f 374 397 373
f 373 398 375
f 373 397 398
f 376 399 374
f 374 399 397
f 378 400 376
f 376 400 399
f 375 401 377
f 375 398 401
f 380 402 378
f 378 402 400
f 377 403 379
f 377 401 403
f 382 404 380
f 380 404 402
f 379 405 381
f 379 403 405
f 384 406 382
f 382 406 404
f 381 407 383
f 381 405 407
f 383 408 384
f 383 407 408
f 384 408 406
f 409 389 388
f 410 388 386
f 409 388 410
f 411 391 389
f 411 389 409
f 412 386 385
f 410 386 412
f 413 394 391
f 413 391 411
f 414 385 387
f 412 385 414
f 415 396 394
f 415 394 413
f 416 387 390
f 414 387 416
f 417 395 396
f 417 396 415
f 418 390 392
f 416 390 418
f 419 393 395
f 419 395 417
f 420 392 393
f 418 392 420
f 420 393 419
f 399 421 397
f 397 422 398
f 397 421 422
f 400 423 399
f 399 423 421
f 402 424 400
f 400 424 423
f 398 425 401
f 398 422 425
f 404 426 402
f 402 426 424
f 401 427 403
f 401 425 427
f 406 428 404
f 404 428 426
f 403 429 405
f 403 427 429
f 408 430 406
f 406 430 428
f 405 431 407
f 405 429 431
f 407 432 408
f 407 431 432
f 408 432 430
f 423 433 421
f 421 434 422
f 421 433 434
f 424 435 423
f 423 435 433
f 426 436 424
f 424 436 435
f 422 437 425
f 422 434 437
f 428 438 426
f 426 438 436
f 425 439 427
f 425 437 439
f 430 440 428
f 428 440 438
f 427 441 429
f 427 439 441
f 432 442 430
f 430 442 440
f 429 443 431
f 429 441 443
f 431 444 432
f 431 443 444
f 432 444 442
f 445 411 409
f 446 409 410
f 445 409 446
f 447 413 411
f 447 411 445
f 448 415 413
f 448 413 447
f 449 410 412
f 446 410 449
f 450 417 415
f 450 415 448
f 451 412 414
f 449 412 451
f 452 419 417
f 452 417 450
f 453 414 416
f 451 414 453
f 454 420 419
f 454 419 452
f 455 416 418
f 453 416 455
f 456 418 420
f 455 418 456
f 456 420 454
f 433 457 434
f 434 458 437
f 434 457 458
f 435 459 433
f 433 459 457
f 436 460 435
f 435 460 459
f 438 461 436
f 436 461 460
f 440 462 438
f 438 462 461
f 437 463 439
f 437 458 463
f 442 464 440
f 440 464 462
f 439 465 441
f 439 463 465
f 441 466 443
f 441 465 466
f 443 467 444
f 443 466 467
f 444 468 442
f 444 467 468
f 442 468 464
f 469 447 445
f 470 445 446
f 469 445 470
f 471 448 447
f 471 447 469
f 472 446 449
f 470 446 472
f 473 450 448
f 473 448 471
f 474 449 451
f 472 449 474
f 475 452 450
f 475 450 473
f 476 451 453
f 474 451 476
f 477 454 452
f 477 452 475
f 478 453 455
f 476 453 478
f 479 456 454
f 479 454 477
f 480 455 456
f 478 455 480
f 480 456 479
f 460 481 459
f 459 482 457
f 459 481 482
f 461 483 460
f 460 483 481
f 457 484 458
f 457 482 484
f 462 485 461
f 461 485 483
f 458 486 463
f 458 484 486
f 464 487 462
f 462 487 485
f 463 488 465
f 463 486 488
f 468 489 464
f 464 489 487
f 465 490 466
f 465 488 490
f 467 491 468
f 468 491 489
f 466 492 467
f 466 490 492
f 467 492 491
f 493 469 470
f 494 470 472
f 493 470 494
f 495 471 469
f 495 469 493
f 496 472 474
f 494 472 496
f 497 473 471
f 497 471 495
f 498 474 476
f 496 474 498
f 499 475 473
f 499 473 497
f 500 476 478
f 498 476 500
f 501 477 475
f 501 475 499
f 502 478 480
f 500 478 502
f 503 479 477
f 503 477 501
f 504 480 479
f 502 480 504
f 504 479 503
f 481 505 482
f 482 506 484
f 482 505 506
f 483 507 481
f 481 507 505
f 485 508 483
f 483 508 507
f 487 509 485
f 485 509 508
f 484 510 486
f 484 506 510
f 489 511 487
f 487 511 509
f 486 512 488
f 486 510 512
f 491 513 489
f 489 513 511
f 488 514 490
f 488 512 514
f 490 515 492
f 490 514 515
f 492 516 491
f 492 515 516
f 491 516 513
f 517 493 494
f 518 494 496
f 517 494 518
f 519 495 493
f 519 493 517
f 520 496 498
f 518 496 520
f 521 497 495
f 521 495 519
f 522 498 500
f 520 498 522
f 523 499 497
f 523 497 521
f 507 524 505
f 505 525 506
f 505 524 525
f 508 526 507
f 507 526 524
f 509 527 508
f 508 527 526
f 528 500 502
f 522 500 528
f 506 529 510
f 506 525 529
f 511 530 509
f 509 530 527
f 510 531 512
f 510 529 531
f 513 532 511
f 511 532 530
f 533 501 499
f 533 499 523
f 512 534 514
f 512 531 534
f 516 535 513
f 513 535 532
f 514 536 515
f 514 534 536
f 515 537 516
f 515 536 537
f 516 537 535
f 538 502 504
f 528 502 538
f 539 503 501
f 539 501 533
f 540 504 503
f 538 504 540
f 540 503 539
f 541 517 518
f 542 518 520
f 541 518 542
f 543 519 517
f 543 517 541
f 544 520 522
f 542 520 544
f 545 521 519
f 545 519 543
f 546 522 528
f 544 522 546
f 547 523 521
f 547 521 545
f 548 528 538
f 546 528 548
f 549 533 523
f 549 523 547
f 550 538 540
f 548 538 550
f 551 539 533
f 551 533 549
f 552 540 539
f 550 540 552
f 552 539 551
f 553 541 542
f 554 542 544
f 553 542 554
f 555 543 541
f 555 541 553
f 556 544 546
f 554 544 556
f 557 545 543
f 557 543 555
f 558 546 548
f 556 546 558
f 559 547 545
f 559 545 557
f 560 548 550
f 558 548 560
f 561 549 547
f 561 547 559
f 562 550 552
f 560 550 562
f 563 551 549
f 563 549 561
f 564 552 551
f 562 552 564
f 564 551 563
f 565 553 554
f 566 554 556
f 565 554 566
f 567 555 553
f 567 553 565
f 568 557 555
f 568 555 567
f 569 556 558
f 566 556 569
f 570 559 557
f 570 557 568
f 571 558 560
f 569 558 571
f 572 561 559
f 572 559 570
f 573 560 562
f 571 560 573
f 574 563 561
f 574 561 572
f 575 562 564
f 573 562 575
f 576 564 563
f 575 564 576
f 576 563 574
f 577 565 566
f 578 566 569
f 577 566 578
f 579 567 565
f 579 565 577
f 580 568 567
f 580 567 579
f 581 569 571
f 578 569 581
f 582 570 568
f 582 568 580
f 583 571 573
f 581 571 583
f 584 572 570
f 584 570 582
f 585 573 575
f 583 573 585
f 586 574 572
f 586 572 584
f 587 575 576
f 585 575 587
f 588 576 574
f 587 576 588
f 588 574 586
f 589 590 591
f 591 592 593
f 591 590 592
f 594 595 589
f 589 595 590
f 596 597 594
f 594 597 595
f 593 598 599
f 593 592 598
f 600 601 596
f 596 601 597
f 599 602 603
f 599 598 602
f 604 605 600
f 600 605 601
f 603 606 607
f 603 602 606
f 608 609 604
f 604 609 605
f 607 610 611
f 607 606 610
f 611 612 608
f 611 610 612
f 608 612 609
f 595 613 590
f 590 614 592
f 590 613 614
f 597 615 595
f 595 615 613
f 601 616 597
f 597 616 615
f 592 617 598
f 592 614 617
f 605 618 601
f 601 618 616
f 598 619 602
f 598 617 619
f 609 620 605
f 605 620 618
f 602 621 606
f 602 619 621
f 612 622 609
f 609 622 620
f 606 623 610
f 606 621 623
f 610 624 612
f 610 623 624
f 612 624 622
f 613 625 614
f 614 626 617
f 614 625 626
f 615 627 613
f 613 627 625
f 616 628 615
f 615 628 627
f 618 629 616
f 616 629 628
f 620 630 618
f 618 630 629
f 617 631 619
f 617 626 631
f 622 632 620
f 620 632 630
f 619 633 621
f 619 631 633
f 624 634 622
f 622 634 632
f 621 635 623
f 621 633 635
f 623 636 624
f 623 635 636
f 624 636 634
f 628 637 627
f 627 638 625
f 627 637 638
f 629 639 628
f 628 639 637
f 630 640 629
f 629 640 639
f 625 641 626
f 625 638 641
f 632 642 630
f 630 642 640
f 626 643 631
f 626 641 643
f 634 644 632
f 632 644 642
f 631 645 633
f 631 643 645
f 636 646 634
f 634 646 644
f 633 647 635
f 633 645 647
f 635 648 636
f 635 647 648
f 636 648 646
f 639 649 637
f 637 650 638
f 637 649 650
f 640 651 639
f 639 651 649
f 642 652 640
f 640 652 651
f 638 653 641
f 638 650 653
f 644 654 642
f 642 654 652
f 641 655 643
f 641 653 655
f 646 656 644
f 644 656 654
f 643 657 645
f 643 655 657
f 648 658 646
f 646 658 656
f 645 659 647
f 645 657 659
f 647 660 648
f 647 659 660
f 648 660 658
f 651 661 649
f 649 662 650
f 649 661 662
f 652 663 651
f 651 663 661
f 654 664 652
f 652 664 663
f 650 665 653
f 650 662 665
f 656 666 654
f 654 666 664
f 658 667 656
f 656 667 666
f 653 668 655
f 653 665 668
f 660 669 658
f 658 669 667
f 655 670 657
f 655 668 670
f 657 671 659
f 657 670 671
f 659 672 660
f 659 671 672
f 660 672 669
f 664 673 663
f 663 674 661
f 663 673 674
f 666 675 664
f 664 675 673
f 661 676 662
f 661 674 676
f 667 677 666
f 666 677 675
f 662 678 665
f 662 676 678
f 669 679 667
f 667 679 677
f 665 680 668
f 665 678 680
f 672 681 669
f 669 681 679
f 668 682 670
f 668 680 682
f 671 683 672
f 672 683 681
f 670 684 671
f 670 682 684
f 671 684 683
f 673 685 674
f 674 686 676
f 674 685 686
f 675 687 673
f 673 687 685
f 677 688 675
f 675 688 687
f 679 689 677
f 677 689 688
f 676 690 678
f 676 686 690
f 681 691 679
f 679 691 689
f 678 692 680
f 678 690 692
f 683 693 681
f 681 693 691
f 680 694 682
f 680 692 694
f 682 695 684
f 682 694 695
f 684 696 683
f 684 695 696
f 683 696 693
f 688 697 687
f 687 698 685
f 687 697 698
f 689 699 688
f 688 699 697
f 691 700 689
f 689 700 699
f 685 701 686
f 685 698 701
f 693 702 691
f 691 702 700
f 686 703 690
f 686 701 703
f 696 704 693
f 693 704 702
f 690 705 692
f 690 703 705
f 695 706 696
f 696 706 704
f 692 707 694
f 692 705 707
f 694 708 695
f 694 707 708
f 695 708 706
f 699 709 697
f 697 710 698
f 697 709 710
f 700 711 699
f 699 711 709
f 702 712 700
f 700 712 711
f 698 713 701
f 698 710 713
f 704 714 702
f 702 714 712
f 701 715 703
f 701 713 715
f 706 716 704
f 704 716 714
f 703 717 705
f 703 715 717
f 708 718 706
f 706 718 716
f 705 719 707
f 705 717 719
f 707 720 708
f 707 719 720
f 708 720 718
f 709 721 710
f 710 722 713
f 710 721 722
f 711 723 709
f 709 723 721
f 712 724 711
f 711 724 723
f 714 725 712
f 716 726 714
f 714 726 725
f 712 725 724
f 715 727 717
f 717 728 719
f 717 727 728
f 713 729 715
f 715 729 727
f 713 722 729
f 719 730 720
f 719 728 730
f 720 731 718
f 720 730 731
f 718 732 716
f 718 731 732
f 716 732 726
f 729 733 727
f 727 734 728
f 727 733 734
f 722 735 729
f 729 735 733
f 721 736 722
f 722 736 735
f 728 737 730
f 728 734 737
f 723 738 721
f 721 738 736
f 730 739 731
f 730 737 739
f 724 740 723
f 723 740 738
f 731 741 732
f 731 739 741
f 725 742 724
f 724 742 740
f 732 743 726
f 732 741 743
f 726 744 725
f 726 743 744
f 725 744 742
f 745 746 747
f 748 749 745
f 745 749 746
f 747 750 751
f 747 746 750
f 752 753 748
f 748 753 749
f 751 754 755
f 751 750 754
f 756 757 752
f 752 757 753
f 755 758 759
f 755 754 758
f 760 761 756
f 756 761 757
f 759 762 763
f 759 758 762
f 764 765 760
f 760 765 761
f 749 766 746
f 746 767 750
f 746 766 767
f 753 768 749
f 749 768 766
f 757 769 753
f 753 769 768
f 763 770 771
f 763 762 770
f 771 772 764
f 771 770 772
f 764 772 765
f 750 773 754
f 750 767 773
f 761 774 757
f 757 774 769
f 754 775 758
f 754 773 775
f 765 776 761
f 761 776 774
f 758 777 762
f 758 775 777
f 772 778 765
f 765 778 776
f 762 779 770
f 762 777 779
f 770 780 772
f 770 779 780
f 772 780 778
f 768 781 766
f 766 782 767
f 766 781 782
f 769 783 768
f 768 783 781
f 774 784 769
f 769 784 783
f 767 785 773
f 767 782 785
f 776 786 774
f 774 786 784
f 773 787 775
f 773 785 787
f 778 788 776
f 776 788 786
f 775 789 777
f 775 787 789
f 780 790 778
f 778 790 788
f 777 791 779
f 777 789 791
f 779 792 780
f 780 792 790
f 779 791 792
f 783 793 781
f 784 794 783
f 783 794 793
f 781 795 782
f 781 793 795
f 786 796 784
f 784 796 794
f 782 797 785
f 782 795 797
f 788 798 786
f 786 798 796
f 785 799 787
f 785 797 799
f 790 800 788
f 788 800 798
f 787 801 789
f 787 799 801
f 792 802 790
f 790 802 800
f 789 803 791
f 789 801 803
f 791 804 792
f 792 804 802
f 791 803 804
f 794 805 793
f 796 806 794
f 794 806 805
f 793 807 795
f 793 805 807
f 798 808 796
f 796 808 806
f 795 809 797
f 795 807 809
f 800 810 798
f 798 810 808
f 797 811 799
f 797 809 811
f 802 812 800
f 800 812 810
f 799 813 801
f 799 811 813
f 804 814 802
f 802 814 812
f 801 815 803
f 801 813 815
f 803 816 804
f 803 815 816
f 804 816 814
f 806 817 805
f 805 818 807
f 805 817 818
f 808 819 806
f 806 819 817
f 810 820 808
f 808 820 819
f 807 821 809
f 807 818 821
f 812 822 810
f 810 822 820
f 809 823 811
f 809 821 823
f 814 824 812
f 812 824 822
f 811 825 813
f 811 823 825
f 816 826 814
f 814 826 824
f 813 827 815
f 813 825 827
f 815 828 816
f 815 827 828
f 816 828 826
f 819 829 817
f 817 830 818
f 817 829 830
f 820 831 819
f 819 831 829
f 822 832 820
f 820 832 831
f 818 833 821
f 818 830 833
f 824 834 822
f 822 834 832
f 821 835 823
f 821 833 835
f 826 836 824
f 824 836 834
f 823 837 825
f 823 835 837
f 828 838 826
f 826 838 836
f 825 839 827
f 825 837 839
f 827 840 828
f 827 839 840
f 828 840 838
f 831 841 829
f 829 842 830
f 829 841 842
f 832 843 831
f 831 843 841
f 834 844 832
f 832 844 843
f 830 845 833
f 830 842 845
f 836 846 834
f 834 846 844
f 833 847 835
f 833 845 847
f 838 848 836
f 836 848 846
f 835 849 837
f 835 847 849
f 840 850 838
f 838 850 848
f 837 851 839
f 837 849 851
f 839 852 840
f 839 851 852
f 840 852 850
f 841 853 842
f 842 854 845
f 842 853 854
f 843 855 841
f 841 855 853
f 844 856 843
f 843 856 855
f 846 857 844
f 844 857 856
f 848 858 846
f 846 858 857
f 845 859 847
f 845 854 859
f 850 860 848
f 848 860 858
f 847 861 849
f 847 859 861
f 852 862 850
f 850 862 860
f 849 863 851
f 849 861 863
f 851 864 852
f 851 863 864
f 852 864 862
f 856 865 855
f 855 866 853
f 855 865 866
f 857 867 856
f 856 867 865
f 858 868 857
f 857 868 867
f 853 869 854
f 853 866 869
f 860 870 858
f 858 870 868
f 854 871 859
f 854 869 871
f 862 872 860
f 860 872 870
f 859 873 861
f 859 871 873
f 864 874 862
f 862 874 872
f 861 875 863
f 861 873 875
f 863 876 864
f 863 875 876
f 864 876 874
f 867 877 865
f 865 878 866
f 865 877 878
f 868 879 867
f 867 879 877
f 870 880 868
f 868 880 879
f 866 881 869
f 866 878 881
f 872 882 870
f 870 882 880
f 869 883 871
f 869 881 883
f 874 884 872
f 872 884 882
f 871 885 873
f 871 883 885
f 876 886 874
f 874 886 884
f 873 887 875
f 873 885 887
f 875 888 876
f 875 887 888
f 876 888 886
f 879 889 877
f 877 890 878
f 877 889 890
f 880 891 879
f 879 891 889
f 882 892 880
f 880 892 891
f 878 893 881
f 878 890 893
f 884 894 882
f 882 894 892
f 881 895 883
f 881 893 895
f 886 896 884
f 884 896 894
f 883 897 885
f 883 895 897
f 885 898 887
f 885 897 898
f 887 899 888
f 887 898 899
f 888 900 886
f 888 899 900
f 886 900 896
f 901 902 903
f 903 904 905
f 903 902 904
f 901 906 902
f 907 906 901
f 905 904 908
f 905 908 909
f 906 910 902
f 902 911 904
f 902 910 911
f 907 912 906
f 906 913 910
f 912 913 906
f 914 912 907
f 904 911 915
f 904 915 908
f 909 908 916
f 909 916 917
f 913 918 910
f 910 919 911
f 910 918 919
f 912 920 913
f 914 921 912
f 921 920 912
f 920 922 913
f 913 922 918
f 911 923 915
f 911 919 923
f 908 915 924
f 908 924 916
f 925 921 914
f 921 926 920
f 920 927 922
f 926 927 920
f 917 916 928
f 917 928 929
f 922 930 918
f 918 931 919
f 918 930 931
f 925 932 921
f 932 926 921
f 927 933 922
f 922 933 930
f 915 923 934
f 915 934 924
f 919 935 923
f 919 931 935
f 916 924 936
f 916 936 928
f 937 932 925
f 926 938 927
f 932 939 926
f 939 938 926
f 927 940 933
f 938 940 927
f 929 928 941
f 929 941 942
f 923 943 934
f 923 935 943
f 937 944 932
f 944 939 932
f 933 945 930
f 930 946 931
f 930 945 946
f 940 947 933
f 933 947 945
f 924 948 936
f 924 934 948
f 928 949 941
f 928 936 949
f 942 950 951
f 942 941 950
f 951 944 937
f 931 952 935
f 931 946 952
f 939 953 938
f 944 954 939
f 954 953 939
f 938 955 940
f 953 955 938
f 940 956 947
f 955 956 940
f 951 950 944
f 950 954 944
f 941 957 950
f 941 949 957
f 936 958 949
f 936 948 958
f 950 957 954
f 934 959 948
f 934 943 959
f 935 960 943
f 935 952 960
f 947 961 945
f 945 962 946
f 945 961 962
f 956 963 947
f 947 963 961
f 954 964 953
f 957 964 954
f 953 965 955
f 964 965 953
f 946 966 952
f 946 962 966
f 955 967 956
f 965 967 955
f 949 968 957
f 949 958 968
f 957 968 964
f 956 969 963
f 967 969 956
f 948 970 958
f 948 959 970
f 943 971 959
f 943 960 971
f 964 972 965
f 968 972 964
f 952 973 960
f 952 966 973
f 965 974 967
f 972 974 965
f 963 975 961
f 961 976 962
f 961 975 976
f 969 977 963
f 963 977 975
f 958 978 968
f 958 970 978
f 968 978 972
f 967 979 969
f 974 979 967
f 962 980 966
f 962 976 980
f 959 981 970
f 959 971 981
f 969 982 977
f 979 982 969
f 960 983 971
f 960 973 983
f 978 984 972
f 972 984 974
f 970 985 978
f 970 981 985
f 978 985 984
f 966 986 973
f 966 980 986
f 974 987 979
f 984 987 974
f 977 988 975
f 975 989 976
f 975 988 989
f 982 990 977
f 977 990 988
f 979 991 982
f 987 991 979
f 976 992 980
f 976 989 992
f 971 993 981
f 971 983 993
f 985 994 984
f 984 994 987
f 991 995 982
f 982 995 990
f 973 996 983
f 973 986 996
f 981 997 985
f 981 993 997
f 985 997 994
f 980 998 986
f 980 992 998
f 987 999 991
f 994 999 987
f 990 1000 988
f 988 1001 989
f 988 1000 1001
f 991 1002 995
f 999 1002 991
f 995 1003 990
f 990 1003 1000
f 983 1004 993
f 983 996 1004
f 989 1005 992
f 989 1001 1005
f 997 1006 994
f 994 1006 999
f 995 1007 1003
f 1002 1007 995
f 993 1008 997
f 993 1004 1008
f 986 1009 996
f 986 998 1009
f 997 1008 1006
f 992 1010 998
f 992 1005 1010
f 999 1011 1002
f 1006 1011 999
f 1003 1012 1000
f 1000 1013 1001
f 1000 1012 1013
f 1007 1014 1003
f 1003 1014 1012
f 1002 1015 1007
f 1011 1015 1002
f 996 1016 1004
f 996 1009 1016
f 1001 1017 1005
f 1001 1013 1017
f 1008 1018 1006
f 1006 1018 1011
f 1007 1019 1014
f 1015 1019 1007
f 998 1020 1009
f 998 1010 1020
f 1004 1021 1008
f 1004 1016 1021
f 1008 1021 1018
f 1005 1022 1010
f 1005 1017 1022
f 1011 1023 1015
f 1018 1023 1011
f 1014 1024 1012
f 1012 1025 1013
f 1012 1024 1025
f 1019 1026 1014
f 1014 1026 1024
f 1013 1027 1017
f 1013 1025 1027
f 1015 1028 1019
f 1023 1028 1015
f 1009 1029 1016
f 1009 1020 1029
f 1021 1030 1018
f 1018 1030 1023
f 1019 1031 1026
f 1028 1031 1019
f 1010 1032 1020
f 1010 1022 1032
f 1016 1033 1021
f 1016 1029 1033
f 1021 1033 1030
f 1017 1034 1022
f 1017 1027 1034
f 1023 1035 1028
f 1030 1035 1023
f 1026 1036 1024
f 1024 1037 1025
f 1024 1036 1037
f 1031 1038 1026
f 1026 1038 1036
f 1025 1039 1027
f 1025 1037 1039
f 1028 1040 1031
f 1035 1040 1028
f 1020 1041 1029
f 1020 1032 1041
f 1031 1042 1038
f 1040 1042 1031
f 1029 1043 1033
f 1029 1041 1043
f 1022 1044 1032
f 1022 1034 1044
f 1033 1045 1030
f 1033 1043 1045
f 1030 1045 1035
f 1027 1046 1034
f 1027 1039 1046
f 1035 1047 1040
f 1045 1047 1035
f 1036 1048 1037
f 1037 1049 1039
f 1037 1048 1049
f 1038 1050 1036
f 1036 1050 1048
f 1042 1051 1038
f 1038 1051 1050
f 1040 1052 1042
f 1047 1052 1040
f 1052 1053 1042
f 1042 1053 1051
f 1032 1054 1041
f 1032 1044 1054
f 1034 1055 1044
f 1034 1046 1055
f 1043 1056 1045
f 1045 1056 1047
f 1039 1057 1046
f 1039 1049 1057
f 1041 1058 1043
f 1041 1054 1058
f 1043 1058 1056
f 1047 1059 1052
f 1056 1059 1047
f 1059 1060 1052
f 1052 1060 1053
f 1044 1061 1054
f 1044 1055 1061
f 1046 1062 1055
f 1046 1057 1062
f 1056 1063 1059
f 1058 1063 1056
f 1063 1064 1059
f 1059 1064 1060
f 1054 1065 1058
f 1054 1061 1065
f 1058 1065 1063
f 1055 1066 1061
f 1055 1062 1066
f 1065 1067 1063
f 1063 1067 1064
f 1061 1068 1065
f 1061 1066 1068
f 1065 1068 1067
f 1051 1069 1050
f 1050 1070 1048
f 1050 1069 1070
f 1053 1071 1051
f 1051 1071 1069
f 1048 1072 1049
f 1048 1070 1072
f 1060 1073 1053
f 1053 1073 1071
f 1049 1074 1057
f 1049 1072 1074
f 1064 1075 1060
f 1060 1075 1073
f 1057 1076 1062
f 1057 1074 1076
f 1067 1077 1064
f 1064 1077 1075
f 1062 1078 1066
f 1062 1076 1078
f 1068 1079 1067
f 1067 1079 1077
f 1066 1080 1068
f 1066 1078 1080
f 1068 1080 1079
f 1071 1081 1069
f 1069 1082 1070
f 1069 1081 1082
f 1073 1083 1071
f 1071 1083 1081
f 1070 1084 1072
f 1070 1082 1084
f 1075 1085 1073
f 1073 1085 1083
f 1072 1086 1074
f 1072 1084 1086
f 1077 1087 1075
f 1075 1087 1085
f 1074 1088 1076
f 1074 1086 1088
f 1079 1089 1077
f 1077 1089 1087
f 1083 1090 1081
f 1081 1091 1082
f 1081 1090 1091
f 1085 1092 1083
f 1083 1092 1090
f 1076 1093 1078
f 1076 1088 1093
f 1080 1094 1079
f 1079 1094 1089
f 1082 1095 1084
f 1082 1091 1095
f 1087 1096 1085
f 1085 1096 1092
f 1078 1097 1080
f 1078 1093 1097
f 1080 1097 1094
f 1084 1098 1086
f 1084 1095 1098
f 1089 1099 1087
f 1087 1099 1096
f 1086 1100 1088
f 1086 1098 1100
f 1094 1101 1089
f 1089 1101 1099
f 1092 1102 1090
f 1090 1103 1091
f 1090 1102 1103
f 1096 1104 1092
f 1092 1104 1102
f 1091 1105 1095
f 1091 1103 1105
f 1099 1106 1096
f 1096 1106 1104
f 1088 1107 1093
f 1088 1100 1107
f 1097 1108 1094
f 1094 1108 1101
f 1093 1109 1097
f 1093 1107 1109
f 1097 1109 1108
f 1095 1110 1098
f 1095 1105 1110
f 1101 1111 1099
f 1099 1111 1106
f 1104 1112 1102
f 1102 1113 1103
f 1102 1112 1113
f 1106 1114 1104
f 1104 1114 1112
f 1098 1115 1100
f 1098 1110 1115
f 1108 1116 1101
f 1101 1116 1111
f 1103 1117 1105
f 1103 1113 1117
f 1111 1118 1106
f 1106 1118 1114
f 1100 1119 1107
f 1100 1115 1119
f 1109 1120 1108
f 1108 1120 1116
f 1105 1121 1110
f 1105 1117 1121
f 1111 1122 1118
f 1116 1122 1111
f 1112 1123 1113
f 1113 1124 1117
f 1113 1123 1124
f 1114 1125 1112
f 1112 1125 1123
f 1118 1126 1114
f 1122 1127 1118
f 1118 1127 1126
f 1114 1126 1125
f 1107 1128 1109
f 1107 1119 1128
f 1109 1128 1120
f 1110 1129 1115
f 1110 1121 1129
f 1116 1130 1122
f 1120 1130 1116
f 1117 1131 1121
f 1117 1124 1131
f 1122 1132 1127
f 1130 1132 1122
f 1127 1133 1126
f 1127 1134 1133
f 1132 1134 1127
f 1126 1135 1125
f 1126 1133 1135
f 1125 1136 1123
f 1125 1135 1136
f 1123 1137 1124
f 1123 1136 1137
f 1133 1138 1135
f 1134 1139 1133
f 1133 1139 1138
f 1135 1140 1136
f 1135 1138 1140
f 1115 1141 1119
f 1115 1129 1141
f 1119 1142 1128
f 1119 1141 1142
f 1128 1143 1120
f 1128 1142 1143
f 1120 1143 1130
f 1121 1144 1129
f 1121 1131 1144
f 1130 1145 1132
f 1143 1145 1130
f 1124 1137 1146
f 1124 1146 1131
f 1132 1147 1134
f 1145 1147 1132
f 1147 1148 1134
f 1147 1149 1148
f 1145 1150 1147
f 1150 1149 1147
f 1134 1148 1139
f 1136 1151 1137
f 1136 1140 1151
f 1137 1152 1146
f 1137 1151 1152
f 1148 1153 1139
f 1149 1154 1148
f 1148 1154 1153
f 1139 1155 1138
f 1139 1153 1155
f 1138 1156 1140
f 1138 1155 1156
f 1140 1157 1151
f 1140 1156 1157
f 1129 1158 1141
f 1141 1159 1142
f 1141 1158 1159
f 1129 1144 1158
f 1142 1160 1143
f 1142 1159 1160
f 1143 1160 1145
f 1131 1161 1144
f 1144 1162 1158
f 1144 1161 1162
f 1131 1146 1161
f 1160 1150 1145
f 1160 1163 1150
f 1159 1163 1160
f 1146 1152 1164
f 1146 1164 1161
f 1150 1165 1149
f 1163 1165 1150
f 1151 1166 1152
f 1152 1167 1164
f 1152 1166 1167
f 1151 1157 1166
f 1165 1168 1149
f 1165 1169 1168
f 1163 1170 1165
f 1170 1169 1165
f 1149 1168 1154
f 1168 1171 1154
f 1169 1172 1168
f 1168 1172 1171
f 1154 1173 1153
f 1154 1171 1173
f 1153 1174 1155
f 1153 1173 1174
f 1155 1175 1156
f 1155 1174 1175
f 1156 1176 1157
f 1156 1175 1176
f 1157 1177 1166
f 1157 1176 1177
f 1173 1178 1174
f 1174 1179 1175
f 1174 1178 1179
f 1171 1180 1173
f 1173 1180 1178
f 1158 1181 1159
f 1159 1181 1163
f 1158 1162 1181
f 1181 1170 1163
f 1162 1182 1181
f 1181 1182 1170
f 1161 1183 1162
f 1162 1183 1182
f 1161 1164 1183
f 1182 1184 1170
f 1170 1184 1169
f 1183 1185 1182
f 1182 1185 1184
f 1164 1186 1183
f 1183 1186 1185
f 1164 1167 1186
f 1166 1187 1167
f 1167 1188 1186
f 1167 1187 1188
f 1166 1177 1187
f 1184 1189 1169
f 1169 1189 1172
f 1185 1190 1184
f 1184 1190 1189
f 1175 1191 1176
f 1175 1179 1191
f 1176 1192 1177
f 1176 1191 1192
f 1172 1193 1171
f 1189 1194 1172
f 1172 1194 1193
f 1171 1193 1180
f 1186 1195 1185
f 1185 1195 1190
f 1186 1188 1195
f 1177 1196 1187
f 1177 1192 1196
f 1190 1197 1189
f 1189 1197 1194
f 1195 1198 1190
f 1190 1198 1197
f 1188 1199 1195
f 1195 1199 1198
f 1187 1200 1188
f 1188 1200 1199
f 1187 1196 1200
