# 
# Wavefront OBJ file
# Created with Kaydara FBX
# 
mtllib c:\users\tjvan\onedrive\documenten\fontys\minor\nx\.mtlmodels\inferior_medial_genicular_artery.r.obj

g Inferior_medial_genicular_artery_r
v -0.088143 0.417097 0.005886
v -0.089319 0.417477 0.005342
v -0.089330 0.417514 0.005385
v -0.088123 0.417086 0.005832
v -0.089297 0.417465 0.005290
v -0.088149 0.417133 0.005931
v -0.089327 0.417568 0.005407
v -0.088139 0.417185 0.005956
v -0.089311 0.417624 0.005402
v -0.088117 0.417238 0.005954
v -0.089286 0.417666 0.005371
v -0.088095 0.417104 0.005785
v -0.089269 0.417483 0.005242
v -0.088087 0.417279 0.005925
v -0.089258 0.417684 0.005323
v -0.088066 0.417145 0.005756
v -0.089244 0.417526 0.005211
v -0.088059 0.417297 0.005877
v -0.089236 0.417673 0.005270
v -0.088044 0.417199 0.005753
v -0.089228 0.417581 0.005206
v -0.088034 0.417250 0.005778
v -0.089225 0.417635 0.005228
v -0.088040 0.417286 0.005823
v -0.087079 0.416593 0.006334
v -0.087063 0.416584 0.006279
v -0.087080 0.416626 0.006381
v -0.087064 0.416675 0.006408
v -0.087035 0.416601 0.006231
v -0.087036 0.416726 0.006408
v -0.087002 0.416641 0.006203
v -0.087004 0.416766 0.006380
v -0.086975 0.416692 0.006203
v -0.086976 0.416784 0.006332
v -0.086959 0.416741 0.006230
v -0.086960 0.416775 0.006278
v -0.086094 0.416000 0.006687
v -0.086081 0.415993 0.006631
v -0.086090 0.416031 0.006736
v -0.086054 0.416011 0.006582
v -0.086069 0.416077 0.006765
v -0.086020 0.416050 0.006555
v -0.086038 0.416126 0.006766
v -0.085989 0.416099 0.006556
v -0.086004 0.416165 0.006738
v -0.085968 0.416145 0.006585
v -0.085977 0.416183 0.006690
v -0.085964 0.416175 0.006634
v -0.085144 0.415348 0.006889
v -0.085119 0.415368 0.006841
v -0.085154 0.415353 0.006946
v -0.085146 0.415381 0.006997
v -0.085122 0.415425 0.007026
v -0.085086 0.415407 0.006813
v -0.085089 0.415473 0.007028
v -0.085053 0.415455 0.006815
v -0.085055 0.415512 0.007001
v -0.085029 0.415498 0.006845
v -0.085020 0.415526 0.006895
v -0.085030 0.415531 0.006952
v -0.084220 0.414686 0.007056
v -0.084198 0.414708 0.007007
v -0.084226 0.414689 0.007114
v -0.084215 0.414714 0.007165
v -0.084167 0.414748 0.006979
v -0.084189 0.414757 0.007195
v -0.084134 0.414796 0.006981
v -0.084156 0.414805 0.007196
v -0.084108 0.414839 0.007011
v -0.084124 0.414845 0.007169
v -0.084097 0.414864 0.007062
v -0.084102 0.414867 0.007120
v -0.083276 0.414043 0.007132
v -0.083258 0.414068 0.007082
v -0.083278 0.414042 0.007190
v -0.083264 0.414067 0.007241
v -0.083231 0.414110 0.007054
v -0.083238 0.414109 0.007271
v -0.083199 0.414159 0.007055
v -0.083207 0.414158 0.007272
v -0.083174 0.414201 0.007086
v -0.083179 0.414201 0.007244
v -0.083160 0.414226 0.007137
v -0.083162 0.414225 0.007195
v -0.082278 0.413454 0.007116
v -0.082266 0.413482 0.007067
v -0.082276 0.413452 0.007174
v -0.082244 0.413528 0.007039
v -0.082261 0.413475 0.007225
v -0.082217 0.413580 0.007040
v -0.082237 0.413518 0.007255
v -0.082193 0.413623 0.007071
v -0.082210 0.413570 0.007257
v -0.082178 0.413646 0.007122
v -0.082187 0.413616 0.007229
v -0.082176 0.413644 0.007180
v -0.081195 0.412959 0.007011
v -0.081189 0.412989 0.006962
v -0.081189 0.412954 0.007069
v -0.081174 0.413039 0.006935
v -0.081173 0.412977 0.007120
v -0.081152 0.413022 0.007150
v -0.081153 0.413093 0.006937
v -0.081132 0.413076 0.007152
v -0.081133 0.413137 0.006968
v -0.081117 0.413161 0.007019
v -0.081117 0.413126 0.007125
v -0.081111 0.413156 0.007076
v -0.079994 0.412594 0.006818
v -0.079995 0.412626 0.006770
v -0.079984 0.412588 0.006875
v -0.079988 0.412678 0.006744
v -0.079970 0.412612 0.006926
v -0.079975 0.412735 0.006747
v -0.079953 0.412658 0.006957
v -0.079959 0.412781 0.006778
v -0.079940 0.412714 0.006960
v -0.079944 0.412804 0.006829
v -0.079933 0.412766 0.006934
v -0.079935 0.412799 0.006887
v -0.078644 0.412397 0.006537
v -0.078652 0.412431 0.006490
v -0.078632 0.412391 0.006593
v -0.078618 0.412415 0.006644
v -0.078654 0.412483 0.006466
v -0.078648 0.412541 0.006471
v -0.078638 0.412588 0.006503
v -0.078608 0.412462 0.006677
v -0.078603 0.412519 0.006682
v -0.078604 0.412572 0.006658
v -0.078625 0.412612 0.006555
v -0.078612 0.412606 0.006611
v -0.077114 0.412405 0.006171
v -0.077128 0.412439 0.006126
v -0.077100 0.412399 0.006227
v -0.077089 0.412423 0.006278
v -0.077137 0.412492 0.006103
v -0.077084 0.412470 0.006312
v -0.077140 0.412549 0.006110
v -0.077086 0.412527 0.006319
v -0.077135 0.412596 0.006144
v -0.077096 0.412580 0.006297
v -0.077124 0.412620 0.006196
v -0.077110 0.412614 0.006252
v -0.078313 0.420940 -0.058844
v -0.076121 0.416327 -0.059226
v -0.078398 0.420890 -0.059343
v -0.075980 0.416404 -0.059701
v -0.078241 0.420940 -0.059824
v -0.078008 0.421077 -0.058461
v -0.076043 0.416386 -0.058734
v -0.075656 0.416595 -0.060031
v -0.077883 0.421077 -0.060158
v -0.077565 0.421263 -0.058297
v -0.075764 0.416565 -0.058358
v -0.075236 0.416851 -0.060129
v -0.077420 0.421263 -0.060255
v -0.077102 0.421450 -0.058394
v -0.075361 0.416816 -0.058197
v -0.074833 0.417102 -0.059969
v -0.076977 0.421450 -0.060091
v -0.075376 0.412654 0.005722
v -0.075393 0.412687 0.005678
v -0.075360 0.412648 0.005778
v -0.075350 0.412671 0.005830
v -0.075408 0.412739 0.005657
v -0.075349 0.412718 0.005865
v -0.075416 0.412796 0.005665
v -0.075357 0.412775 0.005873
v -0.075415 0.412843 0.005700
v -0.075372 0.412827 0.005852
v -0.075405 0.412866 0.005752
v -0.075390 0.412860 0.005808
v -0.076744 0.421586 -0.058728
v -0.074942 0.417072 -0.058295
v -0.074554 0.417281 -0.059592
v -0.076672 0.421586 -0.059707
v -0.076587 0.421636 -0.059209
v -0.074617 0.417264 -0.058626
v -0.074476 0.417340 -0.059101
v -0.073640 0.413030 -0.059164
v -0.073521 0.413133 -0.059632
v -0.073574 0.413104 -0.058680
v -0.073249 0.413384 -0.059960
v -0.073340 0.413333 -0.058309
v -0.072896 0.413716 -0.060058
v -0.074014 0.413101 0.005267
v -0.074002 0.413035 0.005256
v -0.074014 0.413155 0.005307
v -0.074003 0.413182 0.005368
v -0.073983 0.413176 0.005433
v -0.073982 0.412974 0.005280
v -0.073961 0.413137 0.005484
v -0.073960 0.412936 0.005331
v -0.073941 0.413077 0.005508
v -0.073940 0.412929 0.005396
v -0.073929 0.412957 0.005457
v -0.073929 0.413011 0.005498
v -0.073001 0.413657 -0.058153
v -0.072558 0.414040 -0.059901
v -0.072648 0.413989 -0.058251
v -0.072324 0.414269 -0.059531
v -0.072376 0.414240 -0.058579
v -0.072257 0.414342 -0.059047
v -0.072581 0.413429 0.004832
v -0.072567 0.413354 0.004821
v -0.072581 0.413491 0.004879
v -0.072567 0.413523 0.004949
v -0.072543 0.413516 0.005022
v -0.072543 0.413285 0.004847
v -0.072516 0.413472 0.005080
v -0.072515 0.413241 0.004905
v -0.072492 0.413403 0.005106
v -0.072492 0.413234 0.004979
v -0.072478 0.413328 0.005095
v -0.072478 0.413266 0.005048
v -0.070977 0.410827 -0.059107
v -0.070886 0.410950 -0.059569
v -0.070934 0.410918 -0.058630
v -0.070686 0.411253 -0.059894
v -0.070768 0.411197 -0.058267
v -0.070429 0.411654 -0.059993
v -0.070524 0.411590 -0.058115
v -0.070185 0.412048 -0.059841
v -0.070267 0.411992 -0.058214
v -0.071128 0.413849 0.004407
v -0.071128 0.413780 0.004355
v -0.071111 0.413885 0.004485
v -0.071112 0.413695 0.004342
v -0.071082 0.413878 0.004567
v -0.070019 0.412327 -0.059478
v -0.071084 0.413618 0.004371
v -0.071048 0.413829 0.004631
v -0.071051 0.413569 0.004435
v -0.071020 0.413752 0.004661
v -0.071022 0.413562 0.004517
v -0.071004 0.413668 0.004647
v -0.071004 0.413598 0.004595
v -0.070067 0.412294 -0.058539
v -0.069976 0.412417 -0.059001
v -0.069666 0.414150 0.003826
v -0.069648 0.414056 0.003811
v -0.069665 0.414228 0.003884
v -0.069643 0.414268 0.003969
v -0.069608 0.414261 0.004059
v -0.069615 0.413971 0.003843
v -0.069569 0.414207 0.004129
v -0.069575 0.413917 0.003913
v -0.069535 0.414122 0.004162
v -0.069540 0.413910 0.004003
v -0.069517 0.414028 0.004147
v -0.069519 0.413951 0.004089
v -0.068196 0.409559 -0.059004
v -0.068129 0.409691 -0.059461
v -0.068187 0.409664 -0.058536
v -0.068005 0.410024 -0.059784
v -0.068106 0.409978 -0.058182
v -0.067857 0.410469 -0.059886
v -0.067974 0.410416 -0.058036
v -0.067725 0.410907 -0.059741
v -0.067826 0.410861 -0.058139
v -0.067644 0.411220 -0.059387
v -0.067702 0.411194 -0.058462
v -0.067636 0.411326 -0.058918
v -0.068202 0.414624 0.003300
v -0.068205 0.414538 0.003237
v -0.068176 0.414669 0.003393
v -0.068185 0.414435 0.003220
v -0.068133 0.414662 0.003490
v -0.068146 0.414342 0.003255
v -0.068086 0.414604 0.003566
v -0.068099 0.414284 0.003331
v -0.068047 0.414511 0.003601
v -0.068056 0.414277 0.003428
v -0.068027 0.414408 0.003584
v -0.068030 0.414322 0.003521
v -0.065384 0.409039 -0.058807
v -0.065328 0.409171 -0.059257
v -0.065417 0.409151 -0.058348
v -0.066755 0.414942 0.002580
v -0.066732 0.414830 0.002562
v -0.066749 0.415037 0.002648
v -0.066717 0.415087 0.002748
v -0.066666 0.415080 0.002852
v -0.066687 0.414729 0.002598
v -0.065265 0.409511 -0.059580
v -0.066611 0.415018 0.002933
v -0.065419 0.409477 -0.058005
v -0.066631 0.414667 0.002679
v -0.066565 0.414918 0.002970
v -0.066580 0.414660 0.002784
v -0.066542 0.414805 0.002951
v -0.066548 0.414711 0.002883
v -0.065211 0.409968 -0.059688
v -0.065389 0.409929 -0.057870
v -0.065181 0.410420 -0.059552
v -0.065335 0.410386 -0.057977
v -0.065183 0.410746 -0.059209
v -0.065272 0.410726 -0.058300
v -0.065216 0.410858 -0.058751
v -0.065317 0.415463 0.001920
v -0.065325 0.415361 0.001847
v -0.065277 0.415519 0.002026
v -0.065300 0.415239 0.001828
v -0.065216 0.415514 0.002136
v -0.065248 0.415130 0.001865
v -0.065151 0.415448 0.002222
v -0.065183 0.415065 0.001951
v -0.065099 0.415340 0.002259
v -0.065122 0.415059 0.002061
v -0.065074 0.415218 0.002239
v -0.065083 0.415115 0.002167
v -0.062690 0.409154 -0.058023
v -0.062614 0.409043 -0.058469
v -0.062759 0.409476 -0.057694
v -0.062552 0.409172 -0.058912
v -0.062801 0.409923 -0.057569
v -0.062518 0.409508 -0.059234
v -0.062807 0.410375 -0.057683
v -0.063914 0.415902 0.001107
v -0.063926 0.415791 0.001031
v -0.063866 0.415964 0.001218
v -0.063899 0.415660 0.001009
v -0.062524 0.409959 -0.059347
v -0.062774 0.410710 -0.058004
v -0.063794 0.415960 0.001333
v -0.063839 0.415544 0.001048
v -0.062567 0.410406 -0.059223
v -0.062711 0.410840 -0.058447
v -0.063719 0.415891 0.001422
v -0.062635 0.410728 -0.058893
v -0.063764 0.415475 0.001137
v -0.063659 0.415776 0.001461
v -0.063692 0.415471 0.001253
v -0.063632 0.415644 0.001440
v -0.063644 0.415533 0.001363
v -0.062551 0.416352 0.000203
v -0.062567 0.416231 0.000123
v -0.062493 0.416420 0.000317
v -0.062538 0.416091 0.000100
v -0.062409 0.416418 0.000436
v -0.062470 0.415968 0.000139
v -0.062322 0.416346 0.000527
v -0.062383 0.415896 0.000230
v -0.062254 0.416224 0.000566
v -0.062299 0.415894 0.000349
v -0.062225 0.416083 0.000543
v -0.062241 0.415962 0.000463
v -0.060241 0.410198 -0.057089
v -0.060159 0.409762 -0.057204
v -0.060269 0.410641 -0.057206
v -0.060234 0.410972 -0.057522
v -0.060045 0.409448 -0.057519
v -0.060147 0.411101 -0.057953
v -0.059928 0.409342 -0.057950
v -0.060031 0.410996 -0.058384
v -0.059841 0.409472 -0.058381
v -0.059916 0.410682 -0.058699
v -0.061238 0.416810 -0.000803
v -0.061259 0.416680 -0.000885
v -0.059807 0.409803 -0.058698
v -0.061169 0.416885 -0.000686
v -0.061227 0.416530 -0.000909
v -0.059834 0.410246 -0.058814
v -0.061071 0.416886 -0.000565
v -0.061151 0.416401 -0.000871
v -0.060971 0.416811 -0.000473
v -0.061051 0.416326 -0.000779
v -0.060895 0.416682 -0.000435
v -0.060953 0.416327 -0.000658
v -0.060863 0.416532 -0.000460
v -0.060884 0.416402 -0.000542
v -0.059983 0.417274 -0.001916
v -0.060010 0.417135 -0.002000
v -0.059903 0.417357 -0.001799
v -0.059977 0.416975 -0.002026
v -0.059790 0.417361 -0.001678
v -0.059891 0.416840 -0.001989
v -0.059676 0.417284 -0.001587
v -0.059777 0.416763 -0.001898
v -0.059591 0.417148 -0.001550
v -0.059665 0.416767 -0.001777
v -0.059557 0.416989 -0.001577
v -0.059584 0.416849 -0.001660
v -0.057741 0.410558 -0.056386
v -0.057757 0.410996 -0.056497
v -0.057650 0.410130 -0.056496
v -0.057692 0.411325 -0.056799
v -0.057507 0.409825 -0.056797
v -0.057566 0.411458 -0.057212
v -0.057352 0.409726 -0.057209
v -0.057410 0.411359 -0.057624
v -0.058821 0.417598 -0.003240
v -0.058788 0.417747 -0.003156
v -0.058788 0.417428 -0.003266
v -0.058698 0.417837 -0.003037
v -0.057225 0.409859 -0.057622
v -0.057268 0.411054 -0.057926
v -0.058574 0.417842 -0.002914
v -0.058697 0.417285 -0.003227
v -0.057161 0.410188 -0.057924
v -0.057176 0.410626 -0.058036
v -0.058450 0.417762 -0.002820
v -0.058573 0.417205 -0.003133
v -0.058360 0.417618 -0.002781
v -0.058450 0.417210 -0.003010
v -0.058359 0.417300 -0.002891
v -0.058326 0.417449 -0.002807
v -0.058246 0.417788 -0.003839
v -0.058208 0.417942 -0.003757
v -0.058219 0.417613 -0.003858
v -0.058115 0.418034 -0.003635
v -0.058135 0.417463 -0.003810
v -0.057992 0.418039 -0.003506
v -0.058015 0.417379 -0.003708
v -0.057872 0.417955 -0.003403
v -0.057891 0.417384 -0.003578
v -0.057787 0.417805 -0.003355
v -0.057798 0.417475 -0.003456
v -0.057760 0.417630 -0.003375
v -0.057630 0.417914 -0.004404
v -0.057585 0.418073 -0.004326
v -0.057613 0.417733 -0.004414
v -0.057491 0.418167 -0.004201
v -0.057539 0.417577 -0.004354
v -0.057371 0.418171 -0.004062
v -0.057427 0.417489 -0.004240
v -0.057259 0.418083 -0.003948
v -0.057307 0.417492 -0.004101
v -0.057185 0.417927 -0.003888
v -0.057212 0.417586 -0.003976
v -0.057167 0.417745 -0.003898
v -0.055333 0.410811 -0.055415
v -0.055307 0.411245 -0.055507
v -0.055258 0.410388 -0.055530
v -0.055188 0.411574 -0.055782
v -0.055104 0.410089 -0.055821
v -0.056992 0.417974 -0.004947
v -0.056938 0.418138 -0.004874
v -0.056985 0.417787 -0.004948
v -0.056838 0.418234 -0.004748
v -0.055008 0.411710 -0.056165
v -0.056920 0.417627 -0.004877
v -0.054911 0.409995 -0.056210
v -0.056719 0.418237 -0.004603
v -0.056814 0.417536 -0.004752
v -0.054814 0.411615 -0.056554
v -0.054730 0.410131 -0.056593
v -0.056613 0.418146 -0.004479
v -0.056695 0.417540 -0.004608
v -0.054660 0.411317 -0.056845
v -0.056548 0.417986 -0.004408
v -0.054611 0.410460 -0.056867
v -0.056596 0.417636 -0.004482
v -0.054585 0.410894 -0.056960
v -0.056542 0.417799 -0.004409
v -0.056338 0.417970 -0.005488
v -0.056343 0.417779 -0.005480
v -0.056274 0.418137 -0.005421
v -0.056166 0.418235 -0.005297
v -0.056285 0.417615 -0.005400
v -0.056045 0.418239 -0.005150
v -0.056182 0.417523 -0.005268
v -0.055941 0.418146 -0.005018
v -0.056061 0.417526 -0.005121
v -0.055884 0.417982 -0.004938
v -0.055953 0.417624 -0.004997
v -0.055889 0.417791 -0.004930
v -0.055677 0.417904 -0.006050
v -0.055691 0.417710 -0.006034
v -0.055600 0.418073 -0.005990
v -0.055640 0.417543 -0.005946
v -0.055482 0.418173 -0.005870
v -0.055536 0.417448 -0.005810
v -0.055355 0.418176 -0.005723
v -0.055408 0.417451 -0.005662
v -0.055251 0.418081 -0.005587
v -0.055290 0.417551 -0.005542
v -0.055199 0.417915 -0.005499
v -0.055214 0.417720 -0.005482
v -0.055013 0.417777 -0.006654
v -0.055036 0.417580 -0.006629
v -0.054924 0.417948 -0.006602
v -0.054988 0.417411 -0.006535
v -0.054794 0.418048 -0.006489
v -0.054881 0.417314 -0.006398
v -0.054657 0.418050 -0.006344
v -0.054744 0.417316 -0.006253
v -0.054550 0.417953 -0.006206
v -0.053043 0.410768 -0.054132
v -0.053007 0.410353 -0.054266
v -0.052953 0.411192 -0.054186
v -0.054614 0.417416 -0.006139
v -0.052855 0.410059 -0.054552
v -0.054501 0.417783 -0.006112
v -0.054525 0.417587 -0.006088
v -0.052761 0.411513 -0.054413
v -0.052627 0.409965 -0.054913
v -0.054351 0.417591 -0.007321
v -0.054382 0.417392 -0.007289
v -0.052519 0.411644 -0.054753
v -0.054251 0.417763 -0.007279
v -0.054335 0.417220 -0.007192
v -0.052384 0.410096 -0.055253
v -0.054107 0.417862 -0.007174
v -0.054222 0.417120 -0.007055
v -0.052291 0.411550 -0.055114
v -0.053959 0.417861 -0.007034
v -0.054074 0.417119 -0.006915
v -0.052192 0.410416 -0.055481
v -0.052138 0.411256 -0.055400
v -0.053846 0.417762 -0.006897
v -0.052102 0.410841 -0.055534
v -0.053930 0.417218 -0.006810
v -0.053829 0.417390 -0.006767
v -0.053799 0.417589 -0.006799
v -0.053697 0.417347 -0.008075
v -0.053734 0.417146 -0.008036
v -0.053585 0.417519 -0.008042
v -0.053686 0.416970 -0.007937
v -0.053428 0.417616 -0.007947
v -0.053565 0.416866 -0.007803
v -0.053268 0.417612 -0.007815
v -0.053405 0.416862 -0.007670
v -0.053147 0.417508 -0.007681
v -0.053248 0.416959 -0.007575
v -0.053099 0.417332 -0.007581
v -0.053136 0.417131 -0.007542
v -0.053055 0.417045 -0.008937
v -0.053096 0.416842 -0.008893
v -0.052933 0.417217 -0.008914
v -0.053045 0.416662 -0.008793
v -0.052763 0.417311 -0.008830
v -0.052917 0.416553 -0.008664
v -0.052590 0.417303 -0.008707
v -0.052744 0.416545 -0.008541
v -0.052461 0.417195 -0.008578
v -0.052574 0.416639 -0.008457
v -0.052411 0.417014 -0.008478
v -0.052452 0.416811 -0.008434
v -0.052474 0.416480 -0.009881
v -0.052429 0.416685 -0.009931
v -0.050903 0.409842 -0.052653
v -0.050891 0.410238 -0.052484
v -0.052420 0.416295 -0.009782
v -0.052298 0.416857 -0.009917
v -0.050762 0.409555 -0.052941
v -0.050730 0.410637 -0.052481
v -0.052116 0.416949 -0.009844
v -0.052283 0.416181 -0.009660
v -0.050507 0.409454 -0.053272
v -0.050462 0.410932 -0.052644
v -0.051932 0.416936 -0.009732
v -0.052099 0.416168 -0.009548
v -0.050204 0.409567 -0.053557
v -0.051795 0.416821 -0.009610
v -0.051917 0.416259 -0.009475
v -0.050160 0.411044 -0.052929
v -0.051873 0.416060 -0.011025
v -0.051826 0.416268 -0.011078
v -0.051786 0.416431 -0.009462
v -0.051742 0.416637 -0.009511
v -0.051816 0.415870 -0.010928
v -0.051688 0.416440 -0.011073
v -0.049937 0.409862 -0.053720
v -0.049904 0.410943 -0.053260
v -0.051671 0.415750 -0.010814
v -0.051495 0.416529 -0.011012
v -0.049775 0.410261 -0.053717
v -0.049763 0.410657 -0.053548
v -0.051300 0.416510 -0.010911
v -0.051476 0.415732 -0.010713
v -0.051155 0.416390 -0.010796
v -0.051284 0.415820 -0.010651
v -0.051293 0.415576 -0.012362
v -0.051244 0.415789 -0.012417
v -0.051234 0.415382 -0.012265
v -0.051102 0.415962 -0.012415
v -0.051146 0.415992 -0.010647
v -0.051098 0.416201 -0.010700
v -0.050904 0.416051 -0.012357
v -0.051084 0.415258 -0.012153
v -0.050703 0.416031 -0.012259
v -0.050883 0.415238 -0.012054
v -0.050917 0.415280 -0.013184
v -0.050869 0.415497 -0.013236
v -0.050685 0.415327 -0.011997
v -0.050554 0.415907 -0.012146
v -0.050859 0.415084 -0.013081
v -0.050729 0.415678 -0.013225
v -0.050543 0.415501 -0.011995
v -0.050495 0.415713 -0.012050
v -0.050535 0.415773 -0.013152
v -0.050712 0.414962 -0.012955
v -0.050494 0.415035 -0.013852
v -0.050449 0.415259 -0.013900
v -0.048925 0.408636 -0.050592
v -0.048787 0.408354 -0.050876
v -0.050337 0.415758 -0.013037
v -0.048889 0.409012 -0.050402
v -0.050515 0.414947 -0.012840
v -0.050441 0.414838 -0.013739
v -0.050318 0.415449 -0.013870
v -0.048511 0.408242 -0.051178
v -0.048688 0.409382 -0.050355
v -0.050136 0.415555 -0.013771
v -0.050303 0.414721 -0.013591
v -0.050190 0.415636 -0.012911
v -0.050320 0.415042 -0.012767
v -0.050133 0.415440 -0.012808
v -0.050181 0.415223 -0.012755
v -0.049952 0.415549 -0.013629
v -0.048172 0.408330 -0.051416
v -0.050119 0.414715 -0.013449
v -0.050027 0.414836 -0.014391
v -0.049986 0.415065 -0.014434
v -0.048376 0.409646 -0.050466
v -0.049979 0.414638 -0.014269
v -0.049867 0.415265 -0.014388
v -0.049815 0.415432 -0.013481
v -0.049937 0.414821 -0.013350
v -0.049702 0.415381 -0.014264
v -0.049854 0.414525 -0.014102
v -0.047860 0.408594 -0.051526
v -0.049806 0.415011 -0.013320
v -0.049761 0.415235 -0.013368
v -0.048037 0.409734 -0.050704
v -0.049535 0.415383 -0.014096
v -0.049687 0.414527 -0.013934
v -0.049521 0.414670 -0.014842
v -0.049485 0.414905 -0.014881
v -0.049477 0.414470 -0.014714
v -0.049377 0.415112 -0.014822
v -0.047660 0.408964 -0.051480
v -0.049522 0.414644 -0.013810
v -0.049411 0.415271 -0.013928
v -0.047762 0.409622 -0.051005
v -0.049227 0.415237 -0.014680
v -0.049363 0.414359 -0.014532
v -0.049403 0.414843 -0.013763
v -0.049362 0.415073 -0.013807
v -0.047623 0.409340 -0.051289
v -0.049074 0.415245 -0.014494
v -0.049210 0.414367 -0.014345
v -0.048961 0.415134 -0.014312
v -0.049060 0.414492 -0.014204
v -0.048981 0.414523 -0.015252
v -0.048947 0.414763 -0.015290
v -0.048937 0.414321 -0.015121
v -0.048845 0.414977 -0.015224
v -0.048952 0.414699 -0.014144
v -0.048916 0.414934 -0.014184
v -0.048702 0.415106 -0.015072
v -0.048827 0.414210 -0.014932
v -0.048556 0.415116 -0.014875
v -0.048681 0.414220 -0.014735
v -0.048447 0.415005 -0.014686
v -0.048538 0.414349 -0.014583
v -0.048402 0.414380 -0.015675
v -0.048370 0.414624 -0.015712
v -0.046455 0.406734 -0.047387
v -0.046300 0.406445 -0.047635
v -0.048355 0.414173 -0.015543
v -0.048436 0.414562 -0.014517
v -0.048267 0.414841 -0.015644
v -0.048403 0.414803 -0.014555
v -0.046435 0.407109 -0.047220
v -0.048121 0.414973 -0.015490
v -0.048242 0.414060 -0.015352
v -0.046009 0.406321 -0.047898
v -0.047971 0.414983 -0.015291
v -0.046243 0.407471 -0.047180
v -0.048092 0.414070 -0.015153
v -0.047858 0.414870 -0.015099
v -0.047946 0.414201 -0.014998
v -0.045663 0.406394 -0.048106
v -0.047811 0.414663 -0.014968
v -0.047843 0.414418 -0.014931
v -0.047739 0.414470 -0.016202
v -0.047773 0.414222 -0.016164
v -0.045933 0.407721 -0.047277
v -0.047630 0.414690 -0.016136
v -0.047721 0.414010 -0.016033
v -0.047474 0.414822 -0.015985
v -0.047598 0.413893 -0.015845
v -0.045352 0.406645 -0.048203
v -0.047313 0.414830 -0.015790
v -0.047437 0.413902 -0.015649
v -0.045586 0.407795 -0.047485
v -0.047191 0.414713 -0.015601
v -0.047281 0.414033 -0.015498
v -0.045161 0.407007 -0.048162
v -0.047139 0.414502 -0.015470
v -0.047172 0.414253 -0.015433
v -0.047078 0.414033 -0.016773
v -0.047043 0.414285 -0.016813
v -0.045296 0.407670 -0.047748
v -0.047020 0.413816 -0.016645
v -0.046924 0.414506 -0.016753
v -0.045140 0.407382 -0.047996
v -0.046754 0.414637 -0.016609
v -0.046885 0.413695 -0.016462
v -0.046578 0.414642 -0.016421
v -0.046708 0.413700 -0.016274
v -0.046443 0.414520 -0.016238
v -0.046538 0.413830 -0.016130
v -0.046385 0.414304 -0.016110
v -0.046420 0.414052 -0.016071
v -0.046266 0.414051 -0.017599
v -0.046304 0.413795 -0.017557
v -0.046138 0.414274 -0.017547
v -0.046240 0.413574 -0.017432
v -0.045953 0.414403 -0.017413
v -0.046092 0.413447 -0.017257
v -0.045761 0.414404 -0.017235
v -0.045900 0.413449 -0.017078
v -0.045613 0.414277 -0.017059
v -0.045715 0.413578 -0.016945
v -0.044440 0.405567 -0.044305
v -0.044256 0.405268 -0.044495
v -0.044451 0.405949 -0.044193
v -0.045549 0.414056 -0.016934
v -0.045587 0.413800 -0.016892
v -0.043950 0.405133 -0.044711
v -0.045399 0.413753 -0.018615
v -0.045439 0.413494 -0.018571
v -0.045262 0.413977 -0.018570
v -0.044288 0.406312 -0.044188
v -0.045370 0.413268 -0.018448
v -0.045063 0.414104 -0.018448
v -0.045211 0.413136 -0.018281
v -0.043603 0.405197 -0.044896
v -0.044856 0.414101 -0.018280
v -0.043993 0.406559 -0.044292
v -0.045004 0.413133 -0.018113
v -0.044696 0.413969 -0.018112
v -0.044805 0.413260 -0.017990
v -0.043308 0.405444 -0.045000
v -0.044627 0.413743 -0.017990
v -0.043646 0.406624 -0.044477
v -0.044667 0.413484 -0.017945
v -0.044433 0.413375 -0.019913
v -0.044475 0.413112 -0.019866
v -0.044287 0.413599 -0.019876
v -0.044402 0.412881 -0.019746
v -0.043144 0.405808 -0.044995
v -0.043339 0.406489 -0.044693
v -0.044076 0.413725 -0.019764
v -0.044232 0.412744 -0.019586
v -0.043156 0.406190 -0.044883
v -0.043856 0.413718 -0.019606
v -0.044012 0.412737 -0.019429
v -0.043686 0.413581 -0.019446
v -0.043801 0.412863 -0.019316
v -0.043613 0.413350 -0.019326
v -0.043655 0.413087 -0.019279
v -0.043360 0.412900 -0.021546
v -0.043409 0.412636 -0.021488
v -0.042871 0.405047 -0.041378
v -0.042912 0.405427 -0.041327
v -0.042662 0.404746 -0.041501
v -0.043201 0.413123 -0.021524
v -0.043336 0.412402 -0.021364
v -0.042774 0.405786 -0.041361
v -0.042975 0.413245 -0.021427
v -0.042340 0.404607 -0.041663
v -0.043160 0.412261 -0.021208
v -0.042743 0.413234 -0.021280
v -0.042928 0.412250 -0.021061
v -0.042493 0.406027 -0.041471
v -0.041992 0.404666 -0.041820
v -0.042567 0.413093 -0.021124
v -0.042702 0.412372 -0.020964
v -0.042494 0.412859 -0.021000
v -0.042145 0.406086 -0.041628
v -0.042543 0.412595 -0.020941
v -0.041712 0.404907 -0.041930
v -0.042389 0.412242 -0.023302
v -0.042454 0.411976 -0.023217
v -0.042207 0.412463 -0.023308
v -0.041824 0.405946 -0.041790
v -0.042385 0.411736 -0.023076
v -0.041573 0.405266 -0.041964
v -0.041956 0.412581 -0.023233
v -0.041614 0.405646 -0.041913
v -0.042199 0.411587 -0.022915
v -0.041704 0.412563 -0.023097
v -0.041947 0.411569 -0.022779
v -0.041717 0.405069 -0.038603
v -0.041781 0.405437 -0.038614
v -0.041487 0.404779 -0.038657
v -0.041662 0.405784 -0.038685
v -0.041518 0.412414 -0.022936
v -0.041696 0.411687 -0.022704
v -0.041154 0.404644 -0.038760
v -0.041449 0.412175 -0.022794
v -0.041514 0.411908 -0.022709
v -0.041394 0.406018 -0.038799
v -0.041654 0.411046 -0.025056
v -0.041576 0.411313 -0.025168
v -0.041585 0.410801 -0.024899
v -0.041372 0.411529 -0.025204
v -0.040807 0.404701 -0.038885
v -0.041389 0.410643 -0.024738
v -0.041097 0.411637 -0.025155
v -0.041046 0.406075 -0.038925
v -0.040538 0.404934 -0.038999
v -0.041116 0.410614 -0.024617
v -0.040825 0.411608 -0.025034
v -0.040713 0.405940 -0.039028
v -0.040941 0.405530 -0.035976
v -0.041019 0.405876 -0.036042
v -0.040420 0.405282 -0.039071
v -0.040702 0.405260 -0.035964
v -0.040842 0.410722 -0.024568
v -0.040628 0.411450 -0.024873
v -0.040915 0.406206 -0.036146
v -0.041036 0.409947 -0.027014
v -0.040950 0.410218 -0.027143
v -0.040484 0.405650 -0.039082
v -0.040964 0.409691 -0.026851
v -0.040731 0.410430 -0.027204
v -0.040638 0.410938 -0.024604
v -0.040560 0.411205 -0.024716
v -0.040364 0.405138 -0.036011
v -0.040656 0.406431 -0.036259
v -0.040755 0.409518 -0.026698
v -0.040435 0.410528 -0.027180
v -0.040020 0.405198 -0.036103
v -0.040463 0.409475 -0.026596
v -0.040144 0.410484 -0.027078
v -0.040311 0.406491 -0.036351
v -0.040633 0.408780 -0.029090
v -0.040543 0.409059 -0.029228
v -0.040512 0.406324 -0.033492
v -0.040595 0.406645 -0.033602
v -0.040556 0.408507 -0.028933
v -0.040271 0.406080 -0.033425
v -0.040311 0.409270 -0.029309
v -0.040498 0.406956 -0.033728
v -0.040168 0.409572 -0.026572
v -0.039934 0.410311 -0.026925
v -0.039761 0.405423 -0.036216
v -0.040333 0.408314 -0.028797
v -0.039999 0.409357 -0.029311
v -0.039974 0.406370 -0.036398
v -0.039937 0.405978 -0.033422
v -0.040247 0.407174 -0.033835
v -0.040476 0.407645 -0.031286
v -0.040383 0.407939 -0.031423
v -0.039948 0.409785 -0.026633
v -0.039863 0.410055 -0.026763
v -0.040394 0.407351 -0.031145
v -0.039657 0.405753 -0.036320
v -0.040141 0.408152 -0.031519
v -0.039735 0.406100 -0.036386
v -0.040160 0.407134 -0.031038
v -0.040025 0.408253 -0.028720
v -0.039690 0.409296 -0.029234
v -0.039600 0.406045 -0.033482
v -0.039910 0.407240 -0.033895
v -0.039815 0.408228 -0.031549
v -0.039837 0.407053 -0.030993
v -0.039712 0.408340 -0.028722
v -0.039467 0.409104 -0.029098
v -0.039350 0.406263 -0.033589
v -0.039491 0.408147 -0.031504
v -0.039510 0.407129 -0.031023
v -0.039577 0.407138 -0.033891
v -0.039480 0.408552 -0.028803
v -0.039391 0.408831 -0.028940
v -0.039253 0.406574 -0.033715
v -0.039336 0.406894 -0.033825
v -0.039257 0.407930 -0.031397
v -0.039268 0.407342 -0.031119
v -0.039176 0.407635 -0.031256
v -0.040596 0.441638 -0.012917
v -0.040593 0.442138 -0.012618
v -0.040581 0.441615 -0.012874
v -0.040557 0.440802 -0.013445
v -0.040565 0.442130 -0.012592
v -0.040539 0.440770 -0.013395
v -0.040545 0.441600 -0.012843
v -0.040584 0.441663 -0.012959
v -0.040604 0.442150 -0.012654
v -0.040543 0.440835 -0.013494
v -0.040595 0.442163 -0.012690
v -0.040550 0.441683 -0.012990
v -0.040502 0.440862 -0.013530
v -0.040568 0.442173 -0.012716
v -0.040491 0.439682 -0.014193
v -0.040495 0.440750 -0.013358
v -0.040470 0.439644 -0.014135
v -0.040475 0.439723 -0.014251
v -0.040426 0.439755 -0.014293
v -0.040527 0.442128 -0.012582
v -0.040496 0.441596 -0.012832
v -0.040501 0.441693 -0.013001
v -0.040443 0.440874 -0.013543
v -0.040489 0.442133 -0.012592
v -0.040530 0.442178 -0.012726
v -0.040452 0.441689 -0.012990
v -0.040492 0.442176 -0.012717
v -0.040460 0.408893 -0.028535
v -0.040376 0.409895 -0.027684
v -0.040407 0.408772 -0.028356
v -0.040225 0.409814 -0.027549
v -0.040253 0.408684 -0.028221
v -0.040398 0.409013 -0.028712
v -0.040428 0.409998 -0.027869
v -0.040367 0.410096 -0.028055
v -0.040237 0.409101 -0.028838
v -0.040270 0.411076 -0.027117
v -0.040322 0.411164 -0.027305
v -0.040400 0.438323 -0.015120
v -0.040376 0.438279 -0.015053
v -0.040381 0.438370 -0.015186
v -0.040286 0.436767 -0.016179
v -0.040265 0.436820 -0.016254
v -0.040417 0.439620 -0.014092
v -0.040435 0.440745 -0.013344
v -0.040347 0.439614 -0.014076
v -0.040315 0.438251 -0.015003
v -0.040324 0.438408 -0.015234
v -0.040357 0.439771 -0.014308
v -0.040245 0.438426 -0.015251
v -0.040447 0.441606 -0.012843
v -0.040376 0.440758 -0.013357
v -0.040383 0.440870 -0.013530
v -0.040286 0.439765 -0.014292
v -0.040461 0.442143 -0.012619
v -0.040413 0.441626 -0.012874
v -0.040452 0.442156 -0.012655
v -0.040401 0.441651 -0.012916
v -0.040334 0.440785 -0.013393
v -0.040463 0.442168 -0.012690
v -0.040416 0.441674 -0.012959
v -0.040321 0.440818 -0.013443
v -0.040338 0.440849 -0.013493
v -0.040121 0.411001 -0.026982
v -0.040264 0.411241 -0.027496
v -0.040210 0.410161 -0.028191
v -0.040108 0.412303 -0.026638
v -0.040160 0.412378 -0.026826
v -0.040258 0.436718 -0.016103
v -0.040234 0.438245 -0.014984
v -0.040189 0.436686 -0.016046
v -0.040200 0.436863 -0.016309
v -0.040110 0.436884 -0.016328
v -0.040278 0.439630 -0.014091
v -0.040164 0.438420 -0.015232
v -0.040228 0.439662 -0.014133
v -0.040212 0.439703 -0.014191
v -0.040233 0.439741 -0.014249
v -0.040016 0.409776 -0.027500
v -0.040040 0.408652 -0.028168
v -0.040021 0.409133 -0.028880
v -0.039917 0.410959 -0.026937
v -0.039962 0.412234 -0.026504
v -0.040111 0.411287 -0.027638
v -0.040105 0.412440 -0.027019
v -0.040151 0.435058 -0.017327
v -0.040121 0.435004 -0.017242
v -0.040127 0.435116 -0.017412
v -0.040056 0.435164 -0.017473
v -0.040154 0.438263 -0.015001
v -0.040098 0.436680 -0.016025
v -0.040018 0.436877 -0.016306
v -0.040097 0.438301 -0.015050
v -0.040103 0.438391 -0.015183
v -0.040078 0.438348 -0.015116
v -0.039998 0.410177 -0.028242
v -0.039955 0.435187 -0.017494
v -0.040044 0.434969 -0.017178
v -0.039908 0.413567 -0.026228
v -0.039960 0.413632 -0.026416
v -0.039998 0.433238 -0.018520
v -0.039972 0.433302 -0.018615
v -0.040007 0.436701 -0.016044
v -0.039949 0.436845 -0.016250
v -0.039761 0.412190 -0.026460
v -0.039957 0.412471 -0.027164
v -0.039905 0.411290 -0.027694
v -0.039764 0.413504 -0.026096
v -0.039908 0.413682 -0.026608
v -0.039965 0.433180 -0.018425
v -0.039893 0.433353 -0.018683
v -0.039941 0.434963 -0.017154
v -0.039852 0.435181 -0.017470
v -0.039943 0.436744 -0.016099
v -0.039922 0.436796 -0.016174
v -0.039781 0.433379 -0.018706
v -0.039804 0.409792 -0.027551
v -0.039824 0.408684 -0.028210
v -0.039880 0.433143 -0.018354
v -0.039808 0.409101 -0.028827
v -0.039710 0.410962 -0.026993
v -0.039789 0.410140 -0.028193
v -0.039830 0.431351 -0.019715
v -0.039801 0.431419 -0.019819
v -0.039841 0.434986 -0.017175
v -0.039776 0.435146 -0.017406
v -0.039568 0.413460 -0.026053
v -0.039756 0.412464 -0.027223
v -0.039764 0.413703 -0.026754
v -0.039687 0.414859 -0.025871
v -0.039740 0.414916 -0.026057
v -0.039793 0.431290 -0.019609
v -0.039714 0.431474 -0.019894
v -0.039767 0.433136 -0.018327
v -0.039668 0.433373 -0.018679
v -0.039769 0.435033 -0.017236
v -0.039745 0.435092 -0.017321
v -0.039560 0.412183 -0.026519
v -0.039700 0.411249 -0.027649
v -0.039546 0.414801 -0.025740
v -0.039689 0.414958 -0.026247
v -0.039592 0.431503 -0.019920
v -0.039701 0.431251 -0.019531
v -0.039584 0.433335 -0.018608
v -0.039647 0.409858 -0.027687
v -0.039663 0.408772 -0.028336
v -0.039654 0.409013 -0.028692
v -0.039557 0.411009 -0.027135
v -0.039638 0.410058 -0.028058
v -0.039371 0.413446 -0.026113
v -0.039568 0.413690 -0.026813
v -0.039555 0.412421 -0.027179
v -0.039353 0.414758 -0.025699
v -0.039550 0.414973 -0.026391
v -0.039648 0.429440 -0.020867
v -0.039608 0.429376 -0.020750
v -0.039616 0.429511 -0.020982
v -0.039521 0.429569 -0.021065
v -0.039656 0.433162 -0.018351
v -0.039577 0.431245 -0.019500
v -0.039468 0.431497 -0.019890
v -0.039576 0.433214 -0.018418
v -0.039550 0.433277 -0.018513
v -0.039464 0.416170 -0.025550
v -0.039516 0.416222 -0.025733
v -0.039412 0.412215 -0.026664
v -0.039551 0.411174 -0.027514
v -0.039324 0.416117 -0.025421
v -0.039467 0.416259 -0.025920
v -0.039508 0.429337 -0.020663
v -0.039389 0.429600 -0.021093
v -0.039586 0.409955 -0.027873
v -0.039601 0.408893 -0.028513
v -0.039499 0.411086 -0.027326
v -0.039455 0.427548 -0.021932
v -0.039420 0.427619 -0.022059
v -0.039455 0.431273 -0.019526
v -0.039376 0.431458 -0.019811
v -0.039357 0.412277 -0.026857
v -0.039409 0.412352 -0.027045
v -0.039228 0.413468 -0.026259
v -0.039372 0.413646 -0.026771
v -0.039162 0.414742 -0.025758
v -0.039358 0.414957 -0.026451
v -0.039136 0.416077 -0.025380
v -0.039331 0.416272 -0.026062
v -0.039413 0.427483 -0.021804
v -0.039317 0.427680 -0.022149
v -0.039374 0.429332 -0.020629
v -0.039255 0.429595 -0.021058
v -0.039368 0.431329 -0.019601
v -0.039339 0.431396 -0.019705
v -0.039254 0.417491 -0.025248
v -0.039305 0.417540 -0.025428
v -0.039305 0.427445 -0.021708
v -0.039175 0.427713 -0.022180
v -0.039117 0.417443 -0.025121
v -0.039258 0.417576 -0.025611
v -0.039253 0.425716 -0.022867
v -0.039215 0.425787 -0.023006
v -0.039241 0.429362 -0.020657
v -0.039154 0.429555 -0.020971
v -0.039175 0.413518 -0.026451
v -0.039228 0.413583 -0.026639
v -0.039208 0.425655 -0.022726
v -0.039104 0.425849 -0.023105
v -0.039030 0.427710 -0.022142
v -0.039022 0.414757 -0.025903
v -0.039166 0.414914 -0.026409
v -0.038948 0.416061 -0.025438
v -0.039143 0.416256 -0.026120
v -0.039160 0.427441 -0.021670
v -0.039147 0.429421 -0.020740
v -0.039115 0.429492 -0.020855
v -0.038932 0.417407 -0.025080
v -0.039124 0.417589 -0.025750
v -0.038951 0.425884 -0.023138
v -0.039075 0.418814 -0.024950
v -0.039125 0.418861 -0.025125
v -0.039093 0.425619 -0.022619
v -0.038941 0.418770 -0.024825
v -0.039079 0.418898 -0.025304
v -0.039045 0.423997 -0.023624
v -0.039003 0.424063 -0.023777
v -0.038922 0.427671 -0.022046
v -0.039017 0.427474 -0.021700
v -0.038972 0.414799 -0.026093
v -0.039024 0.414856 -0.026278
v -0.038999 0.423940 -0.023469
v -0.038884 0.424121 -0.023887
v -0.038812 0.416073 -0.025580
v -0.038955 0.416216 -0.026079
v -0.038748 0.417394 -0.025137
v -0.038940 0.417576 -0.025806
v -0.038938 0.425619 -0.022577
v -0.038796 0.425883 -0.023096
v -0.038915 0.427535 -0.021791
v -0.038880 0.427607 -0.021917
v -0.038759 0.418740 -0.024783
v -0.038947 0.418915 -0.025439
v -0.038943 0.420129 -0.024638
v -0.038993 0.420176 -0.024810
v -0.038720 0.424154 -0.023923
v -0.038877 0.423908 -0.023353
v -0.038812 0.420089 -0.024515
v -0.038947 0.420216 -0.024983
v -0.038936 0.422749 -0.024076
v -0.038892 0.422805 -0.024237
v -0.038763 0.416110 -0.025767
v -0.038816 0.416163 -0.025950
v -0.038785 0.425654 -0.022610
v -0.038681 0.425848 -0.022989
v -0.038876 0.421426 -0.024298
v -0.038924 0.421475 -0.024465
v -0.038889 0.422697 -0.023915
v -0.038768 0.422850 -0.024354
v -0.038615 0.417407 -0.025275
v -0.038755 0.417540 -0.025765
v -0.038579 0.418732 -0.024837
v -0.038767 0.418907 -0.025493
v -0.038634 0.420065 -0.024473
v -0.038818 0.420240 -0.025113
v -0.038748 0.421390 -0.024177
v -0.038879 0.421522 -0.024633
v -0.038711 0.423908 -0.023307
v -0.038554 0.424154 -0.023878
v -0.038674 0.425715 -0.022709
v -0.038636 0.425786 -0.022848
v -0.038764 0.422664 -0.023795
v -0.038752 0.421555 -0.024757
v -0.038599 0.422873 -0.024396
v -0.038567 0.417443 -0.025459
v -0.038619 0.417491 -0.025638
v -0.038573 0.421375 -0.024134
v -0.038640 0.420240 -0.025164
v -0.038432 0.424122 -0.023762
v -0.038547 0.423941 -0.023344
v -0.038448 0.418749 -0.024972
v -0.038585 0.418877 -0.025451
v -0.038457 0.420066 -0.024524
v -0.038593 0.422659 -0.023751
v -0.038579 0.421566 -0.024804
v -0.038429 0.422868 -0.024351
v -0.038428 0.423999 -0.023454
v -0.038386 0.424065 -0.023606
v -0.038400 0.421385 -0.024181
v -0.038462 0.420217 -0.025122
v -0.038401 0.418786 -0.025151
v -0.038451 0.418833 -0.025326
v -0.038328 0.420089 -0.024654
v -0.038424 0.422682 -0.023793
v -0.038404 0.421551 -0.024761
v -0.038304 0.422835 -0.024232
v -0.038282 0.420130 -0.024828
v -0.038331 0.420177 -0.024999
v -0.038273 0.421419 -0.024305
v -0.038301 0.422728 -0.023910
v -0.038276 0.421514 -0.024640
v -0.038257 0.422784 -0.024070
v -0.038228 0.421466 -0.024473
v -0.058326 0.426376 0.000142
v -0.058745 0.426806 0.000522
v -0.058315 0.426374 0.000157
v -0.058330 0.426387 0.000127
v -0.058300 0.426379 0.000168
v -0.058328 0.426401 0.000116
v -0.058318 0.426417 0.000111
v -0.058304 0.426429 0.000115
v -0.058287 0.426391 0.000172
v -0.058277 0.426407 0.000167
v -0.058274 0.426422 0.000156
v -0.058290 0.426435 0.000126
v -0.058279 0.426432 0.000141
v -0.057886 0.426005 -0.000268
v -0.057894 0.426021 -0.000289
v -0.057869 0.426000 -0.000246
v -0.057892 0.426044 -0.000305
v -0.057878 0.426068 -0.000310
v -0.057858 0.426087 -0.000304
v -0.057848 0.426008 -0.000229
v -0.057828 0.426027 -0.000223
v -0.057815 0.426052 -0.000228
v -0.057837 0.426096 -0.000287
v -0.057820 0.426091 -0.000265
v -0.057812 0.426075 -0.000244
v -0.057439 0.425676 -0.000704
v -0.057451 0.425699 -0.000731
v -0.057416 0.425670 -0.000675
v -0.057449 0.425731 -0.000750
v -0.057433 0.425765 -0.000756
v -0.057408 0.425790 -0.000746
v -0.057387 0.425681 -0.000653
v -0.057379 0.425802 -0.000724
v -0.057362 0.425707 -0.000644
v -0.057346 0.425740 -0.000649
v -0.057344 0.425773 -0.000668
v -0.057356 0.425795 -0.000696
v -0.057002 0.425419 -0.001196
v -0.056984 0.425390 -0.001164
v -0.057001 0.425461 -0.001218
v -0.056983 0.425504 -0.001223
v -0.056952 0.425537 -0.001210
v -0.056954 0.425382 -0.001129
v -0.056917 0.425551 -0.001182
v -0.056919 0.425396 -0.001101
v -0.056888 0.425429 -0.001088
v -0.056870 0.425472 -0.001093
v -0.056870 0.425513 -0.001115
v -0.056887 0.425542 -0.001147
v -0.056545 0.425180 -0.001681
v -0.056523 0.425145 -0.001644
v -0.056547 0.425231 -0.001705
v -0.056527 0.425284 -0.001709
v -0.056492 0.425324 -0.001691
v -0.056486 0.425134 -0.001603
v -0.056450 0.425341 -0.001658
v -0.056444 0.425151 -0.001569
v -0.056413 0.425331 -0.001617
v -0.056408 0.425191 -0.001552
v -0.056390 0.425295 -0.001580
v -0.056389 0.425244 -0.001556
v -0.056087 0.425041 -0.002208
v -0.056082 0.424981 -0.002183
v -0.056066 0.425104 -0.002210
v -0.056054 0.424938 -0.002141
v -0.056026 0.425151 -0.002188
v -0.056010 0.424925 -0.002094
v -0.055978 0.425171 -0.002148
v -0.055961 0.424945 -0.002055
v -0.055934 0.425158 -0.002101
v -0.055921 0.424993 -0.002033
v -0.055906 0.425116 -0.002060
v -0.055901 0.425055 -0.002035
v -0.055620 0.424889 -0.002724
v -0.055612 0.424819 -0.002698
v -0.055600 0.424961 -0.002723
v -0.055578 0.424770 -0.002652
v -0.055556 0.425016 -0.002696
v -0.055501 0.425039 -0.002650
v -0.055527 0.424755 -0.002600
v -0.055450 0.425024 -0.002598
v -0.055472 0.424778 -0.002554
v -0.055416 0.424975 -0.002552
v -0.055429 0.424833 -0.002527
v -0.055408 0.424905 -0.002526
v -0.055148 0.424773 -0.003250
v -0.055136 0.424693 -0.003224
v -0.055128 0.424855 -0.003246
v -0.055081 0.424917 -0.003214
v -0.055096 0.424637 -0.003175
v -0.055020 0.424943 -0.003161
v -0.055037 0.424620 -0.003116
v -0.054961 0.424926 -0.003103
v -0.054977 0.424646 -0.003064
v -0.054921 0.424870 -0.003054
v -0.054930 0.424709 -0.003031
v -0.054909 0.424791 -0.003028
v -0.054670 0.424691 -0.003783
v -0.054650 0.424782 -0.003776
v -0.054654 0.424602 -0.003757
v -0.054601 0.424852 -0.003737
v -0.054607 0.424539 -0.003705
v -0.054534 0.424881 -0.003678
v -0.054542 0.424520 -0.003641
v -0.054468 0.424862 -0.003614
v -0.054475 0.424549 -0.003581
v -0.054421 0.424800 -0.003562
v -0.054425 0.424619 -0.003543
v -0.054406 0.424711 -0.003536
v -0.054186 0.424642 -0.004321
v -0.054166 0.424544 -0.004295
v -0.054168 0.424743 -0.004310
v -0.054115 0.424819 -0.004265
v -0.054112 0.424475 -0.004240
v -0.054043 0.424852 -0.004198
v -0.054040 0.424454 -0.004170
v -0.053971 0.424831 -0.004128
v -0.053967 0.424486 -0.004103
v -0.053917 0.424762 -0.004072
v -0.053915 0.424563 -0.004058
v -0.053897 0.424664 -0.004047
v -0.053698 0.424624 -0.004858
v -0.053678 0.424734 -0.004845
v -0.053676 0.424517 -0.004830
v -0.053621 0.424818 -0.004796
v -0.053617 0.424442 -0.004770
v -0.053542 0.424853 -0.004724
v -0.053537 0.424419 -0.004694
v -0.053463 0.424830 -0.004648
v -0.053458 0.424454 -0.004622
v -0.053404 0.424755 -0.004588
v -0.053401 0.424538 -0.004573
v -0.053381 0.424648 -0.004561
v -0.052473 0.424511 -0.006195
v -0.052445 0.424625 -0.006190
v -0.052456 0.424401 -0.006160
v -0.052379 0.424712 -0.006146
v -0.052397 0.424323 -0.006094
v -0.052292 0.424748 -0.006076
v -0.052313 0.424299 -0.006016
v -0.052209 0.424724 -0.005997
v -0.052227 0.424335 -0.005945
v -0.052150 0.424646 -0.005932
v -0.052161 0.424421 -0.005902
v -0.052132 0.424535 -0.005897
v -0.051465 0.424196 -0.007398
v -0.051424 0.424310 -0.007407
v -0.051456 0.424084 -0.007351
v -0.051344 0.424397 -0.007374
v -0.051400 0.424004 -0.007277
v -0.051248 0.424432 -0.007308
v -0.051311 0.423979 -0.007197
v -0.051159 0.424407 -0.007228
v -0.051215 0.424014 -0.007131
v -0.051103 0.424327 -0.007154
v -0.051135 0.424101 -0.007098
v -0.051095 0.424215 -0.007107
v -0.050633 0.423693 -0.008500
v -0.050633 0.423582 -0.008438
v -0.050579 0.423806 -0.008523
v -0.050486 0.423889 -0.008503
v -0.050579 0.423503 -0.008355
v -0.050379 0.423922 -0.008443
v -0.050487 0.423476 -0.008273
v -0.050287 0.423895 -0.008361
v -0.050380 0.423509 -0.008214
v -0.050233 0.423816 -0.008278
v -0.050287 0.423593 -0.008193
v -0.050233 0.423705 -0.008217
v -0.049940 0.423020 -0.009530
v -0.049948 0.422913 -0.009454
v -0.049875 0.423128 -0.009568
v -0.049896 0.422834 -0.009363
v -0.049770 0.423207 -0.009559
v -0.049800 0.422806 -0.009278
v -0.049654 0.423235 -0.009505
v -0.049683 0.422835 -0.009225
v -0.049557 0.423207 -0.009421
v -0.049579 0.422913 -0.009216
v -0.049506 0.423128 -0.009329
v -0.049514 0.423021 -0.009254
v -0.049348 0.422192 -0.010517
v -0.049362 0.422088 -0.010430
v -0.049274 0.422294 -0.010568
v -0.049312 0.422011 -0.010330
v -0.049160 0.422367 -0.010569
v -0.049212 0.421981 -0.010244
v -0.049035 0.422392 -0.010519
v -0.049087 0.422006 -0.010195
v -0.048935 0.422362 -0.010433
v -0.048973 0.422079 -0.010195
v -0.048885 0.422284 -0.010333
v -0.048899 0.422181 -0.010246
v -0.048822 0.421224 -0.011492
v -0.048840 0.421123 -0.011396
v -0.048741 0.421322 -0.011552
v -0.048790 0.421046 -0.011289
v -0.048619 0.421391 -0.011560
v -0.048686 0.421015 -0.011200
v -0.048488 0.421412 -0.011513
v -0.048555 0.421036 -0.011153
v -0.048384 0.421380 -0.011424
v -0.048433 0.421105 -0.011161
v -0.048334 0.421304 -0.011317
v -0.048352 0.421203 -0.011221
v -0.048324 0.420131 -0.012483
v -0.048345 0.420031 -0.012380
v -0.048238 0.420227 -0.012549
v -0.048294 0.419954 -0.012267
v -0.048110 0.420294 -0.012561
v -0.048186 0.419921 -0.012175
v -0.047974 0.420314 -0.012515
v -0.048050 0.419941 -0.012129
v -0.047866 0.420282 -0.012423
v -0.047922 0.420008 -0.012140
v -0.047815 0.420205 -0.012310
v -0.047818 0.418930 -0.013518
v -0.047840 0.418828 -0.013410
v -0.047836 0.420105 -0.012207
v -0.047729 0.419028 -0.013588
v -0.047788 0.418750 -0.013293
v -0.047596 0.419096 -0.013601
v -0.047677 0.418716 -0.013198
v -0.047455 0.419116 -0.013554
v -0.047536 0.418736 -0.013151
v -0.047344 0.419082 -0.013459
v -0.047404 0.418804 -0.013164
v -0.047292 0.419004 -0.013341
v -0.047267 0.417637 -0.014626
v -0.047290 0.417531 -0.014516
v -0.047314 0.418903 -0.013233
v -0.047176 0.417740 -0.014697
v -0.047236 0.417451 -0.014395
v -0.047040 0.417812 -0.014709
v -0.047122 0.417417 -0.014296
v -0.046895 0.417833 -0.014659
v -0.046977 0.417438 -0.014246
v -0.046781 0.417799 -0.014561
v -0.046841 0.417510 -0.014259
v -0.046727 0.417719 -0.014440
v -0.046749 0.417613 -0.014329
v -0.046635 0.416270 -0.015835
v -0.046657 0.416158 -0.015724
v -0.046543 0.416380 -0.015905
v -0.046602 0.416074 -0.015601
v -0.046404 0.416457 -0.015914
v -0.046484 0.416040 -0.015498
v -0.046256 0.416482 -0.015860
v -0.046336 0.416065 -0.015445
v -0.046139 0.416448 -0.015758
v -0.046198 0.416143 -0.015454
v -0.046084 0.416364 -0.015635
v -0.046105 0.416252 -0.015523
v -0.045885 0.414846 -0.017174
v -0.045905 0.414726 -0.017063
v -0.045793 0.414964 -0.017241
v -0.045847 0.414637 -0.016938
v -0.045653 0.415049 -0.017245
v -0.045727 0.414603 -0.016832
v -0.045503 0.415078 -0.017186
v -0.045577 0.414633 -0.016774
v -0.045382 0.415044 -0.017080
v -0.045436 0.414718 -0.016778
v -0.045324 0.414955 -0.016955
v -0.045344 0.414836 -0.016845
v -0.044980 0.413380 -0.018671
v -0.044997 0.413253 -0.018562
v -0.044889 0.413508 -0.018733
v -0.044936 0.413159 -0.018436
v -0.044749 0.413602 -0.018731
v -0.044813 0.413125 -0.018326
v -0.044597 0.413636 -0.018667
v -0.044661 0.413159 -0.018261
v -0.044474 0.413602 -0.018557
v -0.044521 0.413253 -0.018260
v -0.044413 0.413508 -0.018431
v -0.044430 0.413380 -0.018322
v -0.077390 0.421196 0.007470
v -0.078420 0.421835 0.007627
v -0.078416 0.421834 0.007660
v -0.077384 0.421213 0.007437
v -0.078416 0.421850 0.007598
v -0.077385 0.421194 0.007508
v -0.078405 0.421848 0.007688
v -0.077368 0.421241 0.007417
v -0.078405 0.421876 0.007581
v -0.077369 0.421209 0.007539
v -0.078390 0.421873 0.007703
v -0.077346 0.421272 0.007415
v -0.078389 0.421906 0.007580
v -0.077348 0.421235 0.007557
v -0.078375 0.421902 0.007702
v -0.077325 0.421298 0.007432
v -0.078374 0.421931 0.007595
v -0.077326 0.421266 0.007555
v -0.078364 0.421928 0.007685
v -0.077309 0.421312 0.007464
v -0.078363 0.421945 0.007623
v -0.077310 0.421293 0.007535
v -0.078359 0.421944 0.007656
v -0.077304 0.421310 0.007501
v -0.076545 0.420500 0.007300
v -0.076537 0.420518 0.007262
v -0.076538 0.420498 0.007342
v -0.076516 0.420547 0.007239
v -0.076517 0.420511 0.007377
v -0.076488 0.420579 0.007236
v -0.076489 0.420537 0.007395
v -0.076459 0.420605 0.007255
v -0.076461 0.420569 0.007392
v -0.076439 0.420618 0.007290
v -0.076440 0.420598 0.007369
v -0.076432 0.420616 0.007331
v -0.075841 0.419764 0.007110
v -0.075832 0.419784 0.007068
v -0.075832 0.419760 0.007156
v -0.075806 0.419814 0.007041
v -0.075806 0.419772 0.007194
v -0.075772 0.419846 0.007037
v -0.075772 0.419798 0.007214
v -0.075737 0.419871 0.007057
v -0.075737 0.419830 0.007210
v -0.075712 0.419883 0.007095
v -0.075712 0.419859 0.007183
v -0.075702 0.419879 0.007141
v -0.075235 0.419005 0.006895
v -0.075225 0.419027 0.006849
v -0.075224 0.418998 0.006945
v -0.075196 0.419058 0.006819
v -0.075194 0.419009 0.006986
v -0.075156 0.419090 0.006814
v -0.075153 0.419034 0.007007
v -0.075115 0.419115 0.006835
v -0.075113 0.419067 0.007002
v -0.075085 0.419126 0.006876
v -0.075084 0.419098 0.006972
v -0.075074 0.419120 0.006926
v -0.074685 0.418238 0.006649
v -0.074675 0.418263 0.006599
v -0.074671 0.418229 0.006703
v -0.074643 0.418297 0.006567
v -0.074637 0.418239 0.006747
v -0.074598 0.418331 0.006561
v -0.074591 0.418264 0.006769
v -0.074553 0.418357 0.006583
v -0.074547 0.418299 0.006763
v -0.074519 0.418366 0.006627
v -0.074515 0.418333 0.006731
v -0.074505 0.418358 0.006681
v -0.074147 0.417480 0.006366
v -0.074137 0.417509 0.006312
v -0.074130 0.417468 0.006424
v -0.074104 0.417548 0.006278
v -0.074093 0.417478 0.006471
v -0.074057 0.417586 0.006272
v -0.074043 0.417505 0.006495
v -0.074008 0.417614 0.006296
v -0.073996 0.417544 0.006489
v -0.073970 0.417623 0.006344
v -0.073963 0.417583 0.006455
v -0.073953 0.417612 0.006402
v -0.073578 0.416748 0.006040
v -0.073570 0.416783 0.005984
v -0.073559 0.416734 0.006102
v -0.073537 0.416828 0.005949
v -0.073489 0.416873 0.005944
v -0.073518 0.416745 0.006153
v -0.073438 0.416905 0.005971
v -0.073466 0.416776 0.006179
v -0.073418 0.416821 0.006174
v -0.073397 0.416915 0.006022
v -0.073386 0.416867 0.006139
v -0.073378 0.416901 0.006084
v -0.072930 0.416102 0.005608
v -0.072934 0.416062 0.005666
v -0.072900 0.416156 0.005573
v -0.072913 0.416046 0.005731
v -0.072853 0.416209 0.005571
v -0.072870 0.416058 0.005786
v -0.072801 0.416247 0.005601
v -0.072819 0.416095 0.005817
v -0.072759 0.416259 0.005657
v -0.072771 0.416148 0.005814
v -0.072737 0.416242 0.005722
v -0.072742 0.416202 0.005780
v -0.072174 0.415487 0.005179
v -0.072174 0.415440 0.005238
v -0.072149 0.415550 0.005145
v -0.072149 0.415421 0.005307
v -0.072106 0.415612 0.005147
v -0.072107 0.415436 0.005367
v -0.072056 0.415656 0.005182
v -0.072057 0.415481 0.005403
v -0.072013 0.415671 0.005243
v -0.072014 0.415543 0.005404
v -0.071989 0.415653 0.005311
v -0.071989 0.415606 0.005371
v -0.071260 0.414956 0.004691
v -0.071255 0.414903 0.004751
v -0.071242 0.415027 0.004660
v -0.071227 0.414882 0.004824
v -0.071205 0.415098 0.004666
v -0.071186 0.414900 0.004890
v -0.071160 0.415150 0.004708
v -0.071140 0.414952 0.004931
v -0.071118 0.415168 0.004774
v -0.071104 0.415023 0.004937
v -0.071091 0.415147 0.004847
v -0.071086 0.415094 0.004906
v -0.070147 0.414528 0.004141
v -0.070136 0.414470 0.004202
v -0.070136 0.414607 0.004113
v -0.070107 0.414686 0.004124
v -0.070106 0.414448 0.004279
v -0.070068 0.414744 0.004172
v -0.070066 0.414469 0.004351
v -0.070028 0.414764 0.004244
v -0.070027 0.414526 0.004399
v -0.069998 0.414605 0.004410
v -0.069999 0.414743 0.004321
v -0.069988 0.414685 0.004381
v -0.068793 0.414222 0.003524
v -0.068791 0.414308 0.003498
v -0.068776 0.414160 0.003586
v -0.068771 0.414394 0.003514
v -0.068745 0.414137 0.003667
v -0.068737 0.414456 0.003569
v -0.068708 0.414160 0.003745
v -0.068700 0.414479 0.003647
v -0.068674 0.414222 0.003799
v -0.068668 0.414456 0.003728
v -0.068654 0.414308 0.003816
v -0.068652 0.414394 0.003789
usemtl Inferior_medial_genicular_artery_rMaterial0
f 1 2 3
f 4 5 2
f 4 2 1
f 6 3 7
f 1 3 6
f 8 7 9
f 6 7 8
f 10 9 11
f 8 9 10
f 12 13 5
f 12 5 4
f 14 11 15
f 10 11 14
f 16 17 13
f 16 13 12
f 18 15 19
f 14 15 18
f 20 21 17
f 20 17 16
f 22 23 21
f 22 21 20
f 24 19 23
f 24 23 22
f 18 19 24
f 25 1 6
f 26 4 1
f 26 1 25
f 27 6 8
f 25 6 27
f 28 8 10
f 27 8 28
f 29 12 4
f 29 4 26
f 30 10 14
f 28 10 30
f 31 16 12
f 31 12 29
f 32 14 18
f 30 14 32
f 33 20 16
f 33 16 31
f 34 18 24
f 32 18 34
f 35 22 20
f 35 20 33
f 36 24 22
f 36 22 35
f 34 24 36
f 37 25 27
f 38 26 25
f 38 25 37
f 39 27 28
f 37 27 39
f 40 29 26
f 40 26 38
f 41 28 30
f 39 28 41
f 42 31 29
f 42 29 40
f 43 30 32
f 41 30 43
f 44 33 31
f 44 31 42
f 45 32 34
f 43 32 45
f 46 35 33
f 46 33 44
f 47 34 36
f 45 34 47
f 48 36 35
f 48 35 46
f 47 36 48
f 49 38 37
f 50 40 38
f 50 38 49
f 51 37 39
f 49 37 51
f 52 39 41
f 51 39 52
f 53 41 43
f 52 41 53
f 54 42 40
f 54 40 50
f 55 43 45
f 53 43 55
f 56 44 42
f 56 42 54
f 57 45 47
f 55 45 57
f 58 46 44
f 58 44 56
f 59 48 46
f 59 46 58
f 60 47 48
f 60 48 59
f 57 47 60
f 61 49 51
f 62 50 49
f 62 49 61
f 63 51 52
f 61 51 63
f 64 52 53
f 63 52 64
f 65 54 50
f 65 50 62
f 66 53 55
f 64 53 66
f 67 56 54
f 67 54 65
f 68 55 57
f 66 55 68
f 69 58 56
f 69 56 67
f 70 57 60
f 68 57 70
f 71 59 58
f 71 58 69
f 72 60 59
f 72 59 71
f 70 60 72
f 73 61 63
f 74 62 61
f 74 61 73
f 75 63 64
f 73 63 75
f 76 64 66
f 75 64 76
f 77 65 62
f 77 62 74
f 78 66 68
f 76 66 78
f 79 67 65
f 79 65 77
f 80 68 70
f 78 68 80
f 81 69 67
f 81 67 79
f 82 70 72
f 80 70 82
f 83 71 69
f 83 69 81
f 84 72 71
f 84 71 83
f 82 72 84
f 85 73 75
f 86 74 73
f 86 73 85
f 87 75 76
f 85 75 87
f 88 77 74
f 88 74 86
f 89 76 78
f 87 76 89
f 90 79 77
f 90 77 88
f 91 78 80
f 89 78 91
f 92 81 79
f 92 79 90
f 93 80 82
f 91 80 93
f 94 83 81
f 94 81 92
f 95 82 84
f 93 82 95
f 96 84 83
f 96 83 94
f 95 84 96
f 97 85 87
f 98 86 85
f 98 85 97
f 99 87 89
f 97 87 99
f 100 88 86
f 100 86 98
f 101 89 91
f 99 89 101
f 102 91 93
f 101 91 102
f 103 90 88
f 103 88 100
f 104 93 95
f 102 93 104
f 105 92 90
f 105 90 103
f 106 94 92
f 106 92 105
f 107 95 96
f 104 95 107
f 108 96 94
f 108 94 106
f 107 96 108
f 109 97 99
f 110 98 97
f 110 97 109
f 111 99 101
f 109 99 111
f 112 100 98
f 112 98 110
f 113 101 102
f 111 101 113
f 114 103 100
f 114 100 112
f 115 102 104
f 113 102 115
f 116 105 103
f 116 103 114
f 117 104 107
f 115 104 117
f 118 106 105
f 118 105 116
f 119 107 108
f 117 107 119
f 120 108 106
f 120 106 118
f 119 108 120
f 121 109 111
f 122 110 109
f 122 109 121
f 123 111 113
f 121 111 123
f 124 113 115
f 123 113 124
f 125 112 110
f 125 110 122
f 126 114 112
f 126 112 125
f 127 116 114
f 127 114 126
f 128 115 117
f 124 115 128
f 129 117 119
f 128 117 129
f 130 119 120
f 129 119 130
f 131 118 116
f 131 116 127
f 132 120 118
f 132 118 131
f 130 120 132
f 133 121 123
f 134 122 121
f 134 121 133
f 135 123 124
f 133 123 135
f 136 124 128
f 135 124 136
f 137 125 122
f 137 122 134
f 138 128 129
f 136 128 138
f 139 126 125
f 139 125 137
f 140 129 130
f 138 129 140
f 141 127 126
f 141 126 139
f 142 130 132
f 140 130 142
f 143 131 127
f 143 127 141
f 144 132 131
f 144 131 143
f 142 132 144
f 145 146 147
f 147 148 149
f 147 146 148
f 150 151 145
f 145 151 146
f 149 152 153
f 149 148 152
f 154 155 150
f 150 155 151
f 153 156 157
f 153 152 156
f 158 159 154
f 154 159 155
f 157 160 161
f 157 156 160
f 162 133 135
f 163 134 133
f 163 133 162
f 164 135 136
f 162 135 164
f 165 136 138
f 164 136 165
f 166 137 134
f 166 134 163
f 167 138 140
f 165 138 167
f 168 139 137
f 168 137 166
f 169 140 142
f 167 140 169
f 170 141 139
f 170 139 168
f 171 142 144
f 169 142 171
f 172 143 141
f 172 141 170
f 173 144 143
f 173 143 172
f 171 144 173
f 174 175 158
f 158 175 159
f 161 176 177
f 161 160 176
f 178 179 174
f 174 179 175
f 177 180 178
f 177 176 180
f 178 180 179
f 151 181 146
f 146 182 148
f 146 181 182
f 155 183 151
f 151 183 181
f 148 184 152
f 148 182 184
f 159 185 155
f 155 185 183
f 152 186 156
f 152 184 186
f 187 168 166
f 188 166 163
f 187 166 188
f 189 170 168
f 189 168 187
f 190 172 170
f 190 170 189
f 191 173 172
f 191 172 190
f 192 163 162
f 188 163 192
f 193 171 173
f 193 173 191
f 194 162 164
f 192 162 194
f 195 169 171
f 195 171 193
f 196 164 165
f 194 164 196
f 197 165 167
f 196 165 197
f 198 167 169
f 197 167 198
f 198 169 195
f 175 199 159
f 159 199 185
f 156 200 160
f 156 186 200
f 179 201 175
f 175 201 199
f 160 202 176
f 160 200 202
f 180 203 179
f 179 203 201
f 176 204 180
f 176 202 204
f 180 204 203
f 205 187 188
f 206 188 192
f 205 188 206
f 207 189 187
f 207 187 205
f 208 190 189
f 208 189 207
f 209 191 190
f 209 190 208
f 210 192 194
f 206 192 210
f 211 193 191
f 211 191 209
f 212 194 196
f 210 194 212
f 213 195 193
f 213 193 211
f 214 196 197
f 212 196 214
f 215 198 195
f 215 195 213
f 216 197 198
f 214 197 216
f 216 198 215
f 183 217 181
f 181 218 182
f 181 217 218
f 185 219 183
f 183 219 217
f 182 220 184
f 182 218 220
f 199 221 185
f 185 221 219
f 184 222 186
f 184 220 222
f 201 223 199
f 199 223 221
f 186 224 200
f 186 222 224
f 203 225 201
f 201 225 223
f 226 207 205
f 227 205 206
f 226 205 227
f 228 208 207
f 228 207 226
f 229 206 210
f 227 206 229
f 230 209 208
f 230 208 228
f 200 231 202
f 200 224 231
f 232 210 212
f 229 210 232
f 233 211 209
f 233 209 230
f 234 212 214
f 232 212 234
f 235 213 211
f 235 211 233
f 236 214 216
f 234 214 236
f 237 215 213
f 237 213 235
f 238 216 215
f 236 216 238
f 238 215 237
f 204 239 203
f 203 239 225
f 202 240 204
f 202 231 240
f 204 240 239
f 241 227 229
f 242 229 232
f 241 229 242
f 243 226 227
f 243 227 241
f 244 228 226
f 244 226 243
f 245 230 228
f 245 228 244
f 246 232 234
f 242 232 246
f 247 233 230
f 247 230 245
f 248 234 236
f 246 234 248
f 249 235 233
f 249 233 247
f 250 236 238
f 248 236 250
f 251 237 235
f 251 235 249
f 252 238 237
f 250 238 252
f 252 237 251
f 219 253 217
f 217 254 218
f 217 253 254
f 221 255 219
f 219 255 253
f 218 256 220
f 218 254 256
f 223 257 221
f 221 257 255
f 220 258 222
f 220 256 258
f 225 259 223
f 223 259 257
f 222 260 224
f 222 258 260
f 239 261 225
f 225 261 259
f 224 262 231
f 224 260 262
f 240 263 239
f 239 263 261
f 231 264 240
f 231 262 264
f 240 264 263
f 265 243 241
f 266 241 242
f 265 241 266
f 267 244 243
f 267 243 265
f 268 242 246
f 266 242 268
f 269 245 244
f 269 244 267
f 270 246 248
f 268 246 270
f 271 247 245
f 271 245 269
f 272 248 250
f 270 248 272
f 273 249 247
f 273 247 271
f 274 250 252
f 272 250 274
f 275 251 249
f 275 249 273
f 276 252 251
f 274 252 276
f 276 251 275
f 255 277 253
f 253 278 254
f 253 277 278
f 257 279 255
f 255 279 277
f 280 266 268
f 281 268 270
f 280 268 281
f 282 265 266
f 282 266 280
f 283 267 265
f 283 265 282
f 284 269 267
f 284 267 283
f 285 270 272
f 281 270 285
f 254 286 256
f 254 278 286
f 287 271 269
f 287 269 284
f 259 288 257
f 257 288 279
f 289 272 274
f 285 272 289
f 290 273 271
f 290 271 287
f 291 274 276
f 289 274 291
f 292 275 273
f 292 273 290
f 293 276 275
f 291 276 293
f 293 275 292
f 256 294 258
f 256 286 294
f 261 295 259
f 259 295 288
f 258 296 260
f 258 294 296
f 263 297 261
f 261 297 295
f 260 298 262
f 260 296 298
f 264 299 263
f 263 299 297
f 262 300 264
f 262 298 300
f 264 300 299
f 301 282 280
f 302 280 281
f 301 280 302
f 303 283 282
f 303 282 301
f 304 281 285
f 302 281 304
f 305 284 283
f 305 283 303
f 306 285 289
f 304 285 306
f 307 287 284
f 307 284 305
f 308 289 291
f 306 289 308
f 309 290 287
f 309 287 307
f 310 291 293
f 308 291 310
f 311 292 290
f 311 290 309
f 312 293 292
f 310 293 312
f 312 292 311
f 288 313 279
f 279 314 277
f 279 313 314
f 295 315 288
f 288 315 313
f 277 316 278
f 277 314 316
f 297 317 295
f 295 317 315
f 278 318 286
f 278 316 318
f 299 319 297
f 297 319 317
f 320 301 302
f 321 302 304
f 320 302 321
f 322 303 301
f 322 301 320
f 323 304 306
f 321 304 323
f 286 324 294
f 286 318 324
f 300 325 299
f 299 325 319
f 326 305 303
f 326 303 322
f 327 306 308
f 323 306 327
f 294 328 296
f 294 324 328
f 298 329 300
f 300 329 325
f 330 307 305
f 330 305 326
f 296 331 298
f 296 328 331
f 298 331 329
f 332 308 310
f 327 308 332
f 333 309 307
f 333 307 330
f 334 310 312
f 332 310 334
f 335 311 309
f 335 309 333
f 336 312 311
f 334 312 336
f 336 311 335
f 337 320 321
f 338 321 323
f 337 321 338
f 339 322 320
f 339 320 337
f 340 323 327
f 338 323 340
f 341 326 322
f 341 322 339
f 342 327 332
f 340 327 342
f 343 330 326
f 343 326 341
f 344 332 334
f 342 332 344
f 345 333 330
f 345 330 343
f 346 334 336
f 344 334 346
f 347 335 333
f 347 333 345
f 348 336 335
f 346 336 348
f 348 335 347
f 319 349 317
f 317 350 315
f 317 349 350
f 325 351 319
f 319 351 349
f 329 352 325
f 325 352 351
f 315 353 313
f 315 350 353
f 331 354 329
f 329 354 352
f 313 355 314
f 313 353 355
f 328 356 331
f 331 356 354
f 314 357 316
f 314 355 357
f 324 358 328
f 328 358 356
f 359 337 338
f 360 338 340
f 359 338 360
f 316 361 318
f 316 357 361
f 362 339 337
f 362 337 359
f 363 340 342
f 360 340 363
f 318 364 324
f 318 361 364
f 324 364 358
f 365 341 339
f 365 339 362
f 366 342 344
f 363 342 366
f 367 343 341
f 367 341 365
f 368 344 346
f 366 344 368
f 369 345 343
f 369 343 367
f 370 346 348
f 368 346 370
f 371 347 345
f 371 345 369
f 372 348 347
f 370 348 372
f 372 347 371
f 373 359 360
f 374 360 363
f 373 360 374
f 375 362 359
f 375 359 373
f 376 363 366
f 374 363 376
f 377 365 362
f 377 362 375
f 378 366 368
f 376 366 378
f 379 367 365
f 379 365 377
f 380 368 370
f 378 368 380
f 381 369 367
f 381 367 379
f 382 370 372
f 380 370 382
f 383 371 369
f 383 369 381
f 384 372 371
f 382 372 384
f 384 371 383
f 351 385 349
f 352 386 351
f 351 386 385
f 349 387 350
f 349 385 387
f 354 388 352
f 352 388 386
f 350 389 353
f 350 387 389
f 356 390 354
f 354 390 388
f 353 391 355
f 353 389 391
f 358 392 356
f 356 392 390
f 393 374 376
f 394 373 374
f 394 374 393
f 395 376 378
f 393 376 395
f 396 375 373
f 396 373 394
f 355 397 357
f 355 391 397
f 364 398 358
f 358 398 392
f 399 377 375
f 399 375 396
f 400 378 380
f 395 378 400
f 357 401 361
f 357 397 401
f 361 402 364
f 364 402 398
f 361 401 402
f 403 379 377
f 403 377 399
f 404 380 382
f 400 380 404
f 405 381 379
f 405 379 403
f 406 382 384
f 404 382 406
f 407 384 383
f 406 384 407
f 408 383 381
f 408 381 405
f 407 383 408
f 409 393 395
f 410 394 393
f 410 393 409
f 411 395 400
f 409 395 411
f 412 396 394
f 412 394 410
f 413 400 404
f 411 400 413
f 414 399 396
f 414 396 412
f 415 404 406
f 413 404 415
f 416 403 399
f 416 399 414
f 417 406 407
f 415 406 417
f 418 405 403
f 418 403 416
f 419 407 408
f 417 407 419
f 420 408 405
f 420 405 418
f 419 408 420
f 421 409 411
f 422 410 409
f 422 409 421
f 423 411 413
f 421 411 423
f 424 412 410
f 424 410 422
f 425 413 415
f 423 413 425
f 426 414 412
f 426 412 424
f 427 415 417
f 425 415 427
f 428 416 414
f 428 414 426
f 429 417 419
f 427 417 429
f 430 418 416
f 430 416 428
f 431 419 420
f 429 419 431
f 432 420 418
f 432 418 430
f 386 433 385
f 388 434 386
f 386 434 433
f 431 420 432
f 385 435 387
f 385 433 435
f 390 436 388
f 388 436 434
f 387 437 389
f 387 435 437
f 438 421 423
f 439 422 421
f 439 421 438
f 440 423 425
f 438 423 440
f 441 424 422
f 441 422 439
f 392 442 390
f 390 442 436
f 443 425 427
f 440 425 443
f 389 444 391
f 389 437 444
f 445 426 424
f 445 424 441
f 446 427 429
f 443 427 446
f 398 447 392
f 392 447 442
f 391 448 397
f 391 444 448
f 449 428 426
f 449 426 445
f 450 429 431
f 446 429 450
f 402 451 398
f 398 451 447
f 452 430 428
f 452 428 449
f 397 453 401
f 397 448 453
f 454 431 432
f 450 431 454
f 401 455 402
f 401 453 455
f 402 455 451
f 456 432 430
f 454 432 456
f 456 430 452
f 457 438 440
f 458 440 443
f 457 440 458
f 459 439 438
f 459 438 457
f 460 441 439
f 460 439 459
f 461 443 446
f 458 443 461
f 462 445 441
f 462 441 460
f 463 446 450
f 461 446 463
f 464 449 445
f 464 445 462
f 465 450 454
f 463 450 465
f 466 452 449
f 466 449 464
f 467 454 456
f 465 454 467
f 468 456 452
f 467 456 468
f 468 452 466
f 469 457 458
f 470 458 461
f 469 458 470
f 471 459 457
f 471 457 469
f 472 461 463
f 470 461 472
f 473 460 459
f 473 459 471
f 474 463 465
f 472 463 474
f 475 462 460
f 475 460 473
f 476 465 467
f 474 465 476
f 477 464 462
f 477 462 475
f 478 467 468
f 476 467 478
f 479 466 464
f 479 464 477
f 480 468 466
f 478 468 480
f 480 466 479
f 481 469 470
f 482 470 472
f 481 470 482
f 483 471 469
f 483 469 481
f 484 472 474
f 482 472 484
f 485 473 471
f 485 471 483
f 486 474 476
f 484 474 486
f 487 475 473
f 487 473 485
f 488 476 478
f 486 476 488
f 489 477 475
f 489 475 487
f 434 490 433
f 433 491 435
f 433 490 491
f 436 492 434
f 434 492 490
f 493 478 480
f 488 478 493
f 435 494 437
f 435 491 494
f 495 479 477
f 495 477 489
f 496 480 479
f 493 480 496
f 496 479 495
f 442 497 436
f 436 497 492
f 437 498 444
f 437 494 498
f 499 481 482
f 500 482 484
f 499 482 500
f 447 501 442
f 442 501 497
f 502 483 481
f 502 481 499
f 503 484 486
f 500 484 503
f 444 504 448
f 444 498 504
f 505 485 483
f 505 483 502
f 506 486 488
f 503 486 506
f 451 507 447
f 447 507 501
f 508 487 485
f 508 485 505
f 509 488 493
f 506 488 509
f 448 510 453
f 448 504 510
f 455 511 451
f 451 511 507
f 512 489 487
f 512 487 508
f 453 513 455
f 453 510 513
f 514 493 496
f 509 493 514
f 455 513 511
f 515 496 495
f 514 496 515
f 516 495 489
f 516 489 512
f 515 495 516
f 517 499 500
f 518 500 503
f 517 500 518
f 519 502 499
f 519 499 517
f 520 503 506
f 518 503 520
f 521 505 502
f 521 502 519
f 522 506 509
f 520 506 522
f 523 508 505
f 523 505 521
f 524 509 514
f 522 509 524
f 525 512 508
f 525 508 523
f 526 514 515
f 524 514 526
f 527 516 512
f 527 512 525
f 528 515 516
f 526 515 528
f 528 516 527
f 529 517 518
f 530 518 520
f 529 518 530
f 531 519 517
f 531 517 529
f 532 520 522
f 530 520 532
f 533 521 519
f 533 519 531
f 534 522 524
f 532 522 534
f 535 523 521
f 535 521 533
f 536 524 526
f 534 524 536
f 537 525 523
f 537 523 535
f 538 526 528
f 536 526 538
f 539 527 525
f 539 525 537
f 540 528 527
f 538 528 540
f 541 530 532
f 542 529 530
f 542 530 541
f 540 527 539
f 490 543 491
f 492 544 490
f 490 544 543
f 545 532 534
f 541 532 545
f 546 531 529
f 546 529 542
f 491 547 494
f 491 543 547
f 497 548 492
f 492 548 544
f 549 533 531
f 549 531 546
f 550 534 536
f 545 534 550
f 494 551 498
f 494 547 551
f 501 552 497
f 497 552 548
f 553 535 533
f 553 533 549
f 554 536 538
f 550 536 554
f 498 555 504
f 498 551 555
f 556 537 535
f 556 535 553
f 557 538 540
f 554 538 557
f 507 558 501
f 501 558 552
f 559 541 545
f 560 542 541
f 560 541 559
f 561 540 539
f 557 540 561
f 562 539 537
f 562 537 556
f 563 545 550
f 559 545 563
f 564 546 542
f 564 542 560
f 561 539 562
f 504 565 510
f 504 555 565
f 511 566 507
f 507 566 558
f 567 550 554
f 563 550 567
f 568 549 546
f 568 546 564
f 510 569 513
f 510 565 569
f 513 570 511
f 511 570 566
f 571 553 549
f 571 549 568
f 513 569 570
f 572 554 557
f 567 554 572
f 573 556 553
f 573 553 571
f 574 557 561
f 572 557 574
f 575 559 563
f 576 560 559
f 576 559 575
f 577 563 567
f 575 563 577
f 578 564 560
f 578 560 576
f 579 561 562
f 574 561 579
f 580 562 556
f 580 556 573
f 579 562 580
f 581 568 564
f 581 564 578
f 582 567 572
f 577 567 582
f 583 571 568
f 583 568 581
f 584 572 574
f 582 572 584
f 585 575 577
f 586 576 575
f 586 575 585
f 587 574 579
f 584 574 587
f 588 573 571
f 588 571 583
f 589 577 582
f 585 577 589
f 590 578 576
f 590 576 586
f 591 579 580
f 587 579 591
f 592 580 573
f 592 573 588
f 593 581 578
f 593 578 590
f 591 580 592
f 594 582 584
f 589 582 594
f 595 585 589
f 596 586 585
f 596 585 595
f 544 597 543
f 543 598 547
f 543 597 598
f 599 583 581
f 599 581 593
f 548 600 544
f 544 600 597
f 594 584 601
f 601 584 587
f 602 589 594
f 595 589 602
f 603 590 586
f 603 586 596
f 547 604 551
f 547 598 604
f 552 605 548
f 548 605 600
f 606 593 590
f 606 590 603
f 607 594 601
f 602 594 607
f 608 588 583
f 608 583 599
f 609 587 591
f 601 587 609
f 610 592 588
f 610 588 608
f 611 591 592
f 609 591 611
f 612 599 593
f 612 593 606
f 551 613 555
f 551 604 613
f 614 601 609
f 607 601 614
f 615 595 602
f 616 596 595
f 616 595 615
f 611 592 610
f 558 617 552
f 552 617 605
f 618 602 607
f 615 602 618
f 619 603 596
f 619 596 616
f 620 608 599
f 620 599 612
f 621 609 611
f 614 609 621
f 622 606 603
f 622 603 619
f 623 607 614
f 618 607 623
f 555 624 565
f 555 613 624
f 625 611 610
f 621 611 625
f 626 610 608
f 626 608 620
f 566 627 558
f 558 627 617
f 625 610 626
f 628 612 606
f 628 606 622
f 629 614 621
f 623 614 629
f 630 615 618
f 631 616 615
f 631 615 630
f 632 618 623
f 630 618 632
f 633 619 616
f 633 616 631
f 565 634 569
f 565 624 634
f 635 621 625
f 629 621 635
f 636 620 612
f 636 612 628
f 570 637 566
f 566 637 627
f 638 622 619
f 638 619 633
f 639 623 629
f 632 623 639
f 640 625 626
f 635 625 640
f 641 626 620
f 641 620 636
f 569 642 570
f 569 634 642
f 570 642 637
f 640 626 641
f 643 628 622
f 643 622 638
f 644 629 635
f 639 629 644
f 645 636 628
f 645 628 643
f 646 635 640
f 644 635 646
f 647 630 632
f 648 631 630
f 648 630 647
f 649 632 639
f 647 632 649
f 650 633 631
f 650 631 648
f 651 640 641
f 646 640 651
f 652 641 636
f 652 636 645
f 653 638 633
f 653 633 650
f 654 639 644
f 649 639 654
f 651 641 652
f 655 643 638
f 655 638 653
f 656 644 646
f 654 644 656
f 657 645 643
f 657 643 655
f 658 646 651
f 656 646 658
f 659 647 649
f 660 648 647
f 660 647 659
f 600 661 597
f 597 662 598
f 597 661 662
f 663 649 654
f 659 649 663
f 664 651 652
f 658 651 664
f 665 650 648
f 665 648 660
f 666 652 645
f 664 652 666
f 666 645 657
f 605 667 600
f 600 667 661
f 668 653 650
f 668 650 665
f 669 654 656
f 663 654 669
f 598 670 604
f 598 662 670
f 671 655 653
f 671 653 668
f 617 672 605
f 605 672 667
f 673 656 658
f 669 656 673
f 674 657 655
f 674 655 671
f 675 658 664
f 673 658 675
f 604 676 613
f 604 670 676
f 677 666 657
f 677 657 674
f 678 664 666
f 675 664 678
f 679 660 659
f 680 659 663
f 679 659 680
f 678 666 677
f 627 681 617
f 617 681 672
f 682 665 660
f 682 660 679
f 683 663 669
f 680 663 683
f 684 668 665
f 684 665 682
f 685 669 673
f 683 669 685
f 613 686 624
f 613 676 686
f 687 671 668
f 687 668 684
f 688 673 675
f 685 673 688
f 637 689 627
f 627 689 681
f 690 674 671
f 690 671 687
f 691 675 678
f 688 675 691
f 624 692 634
f 624 686 692
f 693 677 674
f 693 674 690
f 694 678 677
f 691 678 694
f 694 677 693
f 695 680 683
f 696 679 680
f 696 680 695
f 642 697 637
f 637 697 689
f 698 683 685
f 695 683 698
f 699 682 679
f 699 679 696
f 634 700 642
f 634 692 700
f 642 700 697
f 701 684 682
f 701 682 699
f 702 685 688
f 698 685 702
f 703 687 684
f 703 684 701
f 704 688 691
f 702 688 704
f 705 690 687
f 705 687 703
f 706 691 694
f 704 691 706
f 707 693 690
f 707 690 705
f 708 694 693
f 706 694 708
f 708 693 707
f 709 696 695
f 710 695 698
f 709 695 710
f 711 699 696
f 711 696 709
f 712 698 702
f 710 698 712
f 713 701 699
f 713 699 711
f 714 702 704
f 712 702 714
f 715 703 701
f 715 701 713
f 716 704 706
f 714 704 716
f 717 705 703
f 717 703 715
f 718 706 708
f 716 706 718
f 667 719 661
f 661 720 662
f 661 719 720
f 672 721 667
f 667 721 719
f 722 707 705
f 722 705 717
f 723 708 707
f 718 708 723
f 723 707 722
f 662 724 670
f 662 720 724
f 725 709 710
f 726 710 712
f 725 710 726
f 727 711 709
f 727 709 725
f 681 728 672
f 672 728 721
f 729 712 714
f 726 712 729
f 730 713 711
f 730 711 727
f 731 714 716
f 729 714 731
f 670 732 676
f 670 724 732
f 733 715 713
f 733 713 730
f 689 734 681
f 681 734 728
f 735 716 718
f 731 716 735
f 736 717 715
f 736 715 733
f 737 718 723
f 735 718 737
f 676 738 686
f 676 732 738
f 739 722 717
f 739 717 736
f 697 740 689
f 689 740 734
f 741 723 722
f 737 723 741
f 741 722 739
f 742 725 726
f 743 726 729
f 742 726 743
f 744 727 725
f 744 725 742
f 745 729 731
f 743 729 745
f 686 746 692
f 686 738 746
f 700 747 697
f 697 747 740
f 748 730 727
f 748 727 744
f 749 731 735
f 745 731 749
f 692 750 700
f 692 746 750
f 700 750 747
f 751 733 730
f 751 730 748
f 752 735 737
f 749 735 752
f 753 736 733
f 753 733 751
f 754 737 741
f 752 737 754
f 755 739 736
f 755 736 753
f 756 741 739
f 754 741 756
f 756 739 755
f 757 742 743
f 758 743 745
f 757 743 758
f 721 759 719
f 728 760 721
f 721 760 759
f 719 761 720
f 719 759 761
f 762 744 742
f 762 742 757
f 763 745 749
f 758 745 763
f 734 764 728
f 728 764 760
f 765 748 744
f 765 744 762
f 720 766 724
f 720 761 766
f 767 749 752
f 763 749 767
f 768 751 748
f 768 748 765
f 769 752 754
f 767 752 769
f 740 770 734
f 734 770 764
f 724 771 732
f 724 766 771
f 772 753 751
f 772 751 768
f 773 754 756
f 769 754 773
f 774 755 753
f 774 753 772
f 747 775 740
f 740 775 770
f 776 756 755
f 773 756 776
f 732 777 738
f 732 771 777
f 776 755 774
f 778 757 758
f 779 758 763
f 778 758 779
f 780 762 757
f 780 757 778
f 750 781 747
f 747 781 775
f 782 763 767
f 779 763 782
f 738 783 746
f 738 777 783
f 784 765 762
f 784 762 780
f 746 785 750
f 750 785 781
f 786 767 769
f 782 767 786
f 746 783 785
f 787 768 765
f 787 765 784
f 788 769 773
f 786 769 788
f 760 789 759
f 764 790 760
f 760 790 789
f 759 791 761
f 759 789 791
f 770 792 764
f 764 792 790
f 793 772 768
f 793 768 787
f 794 773 776
f 788 773 794
f 761 795 766
f 761 791 795
f 796 774 772
f 796 772 793
f 797 776 774
f 794 776 797
f 775 798 770
f 770 798 792
f 797 774 796
f 799 779 782
f 800 778 779
f 800 779 799
f 801 782 786
f 799 782 801
f 802 780 778
f 802 778 800
f 766 803 771
f 766 795 803
f 804 786 788
f 801 786 804
f 805 784 780
f 805 780 802
f 781 806 775
f 775 806 798
f 771 807 777
f 771 803 807
f 808 788 794
f 804 788 808
f 809 787 784
f 809 784 805
f 785 810 781
f 781 810 806
f 790 811 789
f 792 812 790
f 790 812 811
f 777 813 783
f 777 807 813
f 789 814 791
f 789 811 814
f 815 794 797
f 808 794 815
f 816 793 787
f 816 787 809
f 798 817 792
f 792 817 812
f 818 799 801
f 819 800 799
f 819 799 818
f 783 820 785
f 785 820 810
f 783 813 820
f 821 801 804
f 818 801 821
f 822 802 800
f 822 800 819
f 823 797 796
f 815 797 823
f 824 796 793
f 824 793 816
f 791 825 795
f 791 814 825
f 823 796 824
f 806 826 798
f 798 826 817
f 827 804 808
f 821 804 827
f 828 805 802
f 828 802 822
f 795 829 803
f 795 825 829
f 830 808 815
f 827 808 830
f 831 809 805
f 831 805 828
f 810 832 806
f 806 832 826
f 833 818 821
f 834 819 818
f 834 818 833
f 812 835 811
f 817 836 812
f 812 836 835
f 837 821 827
f 833 821 837
f 811 838 814
f 811 835 838
f 839 822 819
f 839 819 834
f 826 840 817
f 817 840 836
f 841 815 823
f 830 815 841
f 842 816 809
f 842 809 831
f 803 843 807
f 803 829 843
f 837 827 844
f 844 827 830
f 845 828 822
f 845 822 839
f 820 846 810
f 810 846 832
f 814 847 825
f 814 838 847
f 826 848 840
f 832 848 826
f 849 833 837
f 850 834 833
f 850 833 849
f 851 823 824
f 841 823 851
f 852 824 816
f 852 816 842
f 836 853 835
f 840 849 836
f 836 849 853
f 807 854 813
f 807 843 854
f 849 837 853
f 853 837 844
f 855 834 850
f 855 839 834
f 851 824 852
f 813 856 820
f 813 854 856
f 820 856 846
f 835 853 857
f 835 857 838
f 840 850 849
f 848 850 840
f 853 844 857
f 844 830 858
f 858 830 841
f 859 831 828
f 859 828 845
f 825 860 829
f 825 847 860
f 832 861 848
f 846 861 832
f 848 855 850
f 857 844 858
f 862 839 855
f 862 845 839
f 838 857 863
f 838 863 847
f 861 855 848
f 857 858 863
f 861 862 855
f 858 841 864
f 864 841 851
f 865 842 831
f 865 831 859
f 829 866 843
f 829 860 866
f 863 858 864
f 867 845 862
f 867 859 845
f 847 863 868
f 847 868 860
f 846 869 861
f 856 869 846
f 870 851 852
f 864 851 870
f 871 852 842
f 871 842 865
f 869 862 861
f 870 852 871
f 843 872 854
f 843 866 872
f 863 864 868
f 869 867 862
f 854 873 856
f 856 873 869
f 868 864 870
f 874 859 867
f 874 865 859
f 854 872 873
f 860 868 875
f 860 875 866
f 873 867 869
f 868 870 875
f 873 874 867
f 875 870 871
f 876 871 865
f 876 865 874
f 875 871 876
f 866 876 872
f 866 875 876
f 872 874 873
f 872 876 874
f 877 878 879
f 880 877 879
f 879 878 881
f 880 879 882
f 882 879 883
f 879 881 883
f 884 885 877
f 886 884 877
f 877 885 878
f 886 877 880
f 884 887 885
f 888 887 884
f 889 884 886
f 889 888 884
f 888 890 887
f 891 880 882
f 882 883 892
f 891 882 893
f 893 882 892
f 894 886 880
f 894 880 891
f 895 886 894
f 895 889 886
f 883 881 896
f 883 896 897
f 892 883 897
f 898 890 888
f 899 888 889
f 899 898 888
f 897 896 900
f 898 901 890
f 902 901 898
f 902 903 901
f 904 905 906
f 906 905 907
f 906 907 908
f 909 910 904
f 904 910 905
f 909 911 910
f 912 911 909
f 910 913 905
f 911 914 910
f 910 914 913
f 915 891 893
f 915 893 916
f 917 891 915
f 918 915 916
f 919 917 915
f 919 915 918
f 893 892 920
f 916 893 920
f 920 892 921
f 920 921 922
f 916 920 923
f 923 920 922
f 917 894 891
f 924 895 894
f 924 894 917
f 925 889 895
f 926 895 924
f 926 925 895
f 892 897 921
f 921 897 927
f 921 927 928
f 922 921 928
f 925 899 889
f 929 898 899
f 930 899 925
f 930 929 899
f 897 900 927
f 927 931 932
f 928 927 932
f 927 900 931
f 932 933 934
f 935 932 934
f 932 931 933
f 928 932 935
f 934 936 937
f 938 934 937
f 934 933 936
f 935 934 938
f 937 903 902
f 939 937 902
f 937 936 903
f 938 937 939
f 929 902 898
f 939 902 929
f 905 940 907
f 905 913 940
f 911 941 914
f 912 942 911
f 942 941 911
f 914 943 913
f 941 944 914
f 914 944 943
f 945 916 923
f 923 922 946
f 945 923 947
f 947 923 946
f 918 916 945
f 948 924 917
f 948 917 919
f 949 926 924
f 949 924 948
f 922 928 950
f 946 922 950
f 951 925 926
f 951 930 925
f 950 928 935
f 952 935 938
f 950 935 952
f 953 938 939
f 952 938 953
f 954 939 929
f 953 939 954
f 954 929 930
f 908 907 955
f 908 955 956
f 957 942 912
f 907 940 958
f 907 958 955
f 913 959 940
f 913 943 959
f 942 960 941
f 941 961 944
f 960 961 941
f 962 918 945
f 963 945 947
f 962 945 963
f 964 919 918
f 964 918 962
f 965 948 919
f 965 919 964
f 946 950 966
f 947 946 967
f 967 946 966
f 968 951 926
f 968 926 949
f 966 950 952
f 969 952 953
f 966 952 969
f 970 954 930
f 971 953 954
f 971 954 970
f 970 930 951
f 972 960 942
f 957 972 942
f 973 949 948
f 973 948 965
f 969 953 971
f 963 947 974
f 974 947 967
f 944 975 943
f 961 976 944
f 944 976 975
f 977 962 963
f 978 964 962
f 978 962 977
f 967 966 979
f 979 966 969
f 980 970 951
f 980 951 968
f 940 959 981
f 940 981 958
f 960 982 961
f 972 983 960
f 983 982 960
f 943 984 959
f 943 975 984
f 982 985 961
f 961 985 976
f 986 963 974
f 977 963 986
f 987 965 964
f 987 964 978
f 974 967 988
f 988 967 979
f 989 968 949
f 989 949 973
f 990 969 971
f 979 969 990
f 991 971 970
f 991 970 980
f 990 971 991
f 992 973 965
f 992 965 987
f 956 955 993
f 956 993 994
f 986 974 995
f 995 974 988
f 996 972 957
f 955 958 997
f 955 997 993
f 998 983 972
f 996 998 972
f 999 977 986
f 1000 978 977
f 1000 977 999
f 988 979 1001
f 1001 979 990
f 1002 980 968
f 1002 968 989
f 959 1003 981
f 959 984 1003
f 983 1004 982
f 982 1005 985
f 1004 1005 982
f 976 1006 975
f 985 1007 976
f 976 1007 1006
f 1008 986 995
f 999 986 1008
f 1009 987 978
f 1009 978 1000
f 995 988 1010
f 1010 988 1001
f 1011 989 973
f 1011 973 992
f 1012 990 991
f 1001 990 1012
f 1013 991 980
f 1013 980 1002
f 958 981 1014
f 958 1014 997
f 998 1015 983
f 1015 1004 983
f 975 1016 984
f 975 1006 1016
f 1005 1017 985
f 985 1017 1007
f 1012 991 1013
f 1018 992 987
f 1018 987 1009
f 1008 995 1019
f 1019 995 1010
f 1020 1002 989
f 1020 989 1011
f 994 993 1021
f 994 1021 1022
f 1023 998 996
f 993 997 1024
f 993 1024 1021
f 1025 1015 998
f 1023 1025 998
f 981 1026 1014
f 981 1003 1026
f 1004 1027 1005
f 1015 1028 1004
f 1028 1027 1004
f 984 1029 1003
f 984 1016 1029
f 1005 1030 1017
f 1027 1030 1005
f 1031 999 1008
f 1032 1008 1019
f 1031 1008 1032
f 1033 1000 999
f 1033 999 1031
f 1034 1009 1000
f 1034 1000 1033
f 1010 1001 1035
f 1019 1010 1036
f 1036 1010 1035
f 1037 1011 992
f 1037 992 1018
f 1035 1001 1012
f 1038 1012 1013
f 1035 1012 1038
f 1039 1013 1002
f 1039 1002 1020
f 1007 1040 1006
f 1017 1041 1007
f 1007 1041 1040
f 1038 1013 1039
f 997 1042 1024
f 997 1014 1042
f 1025 1043 1015
f 1043 1028 1015
f 1006 1044 1016
f 1006 1040 1044
f 1030 1045 1017
f 1017 1045 1041
f 1032 1019 1046
f 1046 1019 1036
f 1047 1018 1009
f 1047 1009 1034
f 1022 1021 1048
f 1022 1048 1049
f 1049 1025 1023
f 1021 1050 1048
f 1021 1024 1050
f 1049 1048 1025
f 1048 1043 1025
f 1051 1031 1032
f 1052 1033 1031
f 1052 1031 1051
f 1036 1035 1053
f 1053 1035 1038
f 1054 1020 1011
f 1054 1011 1037
f 1048 1050 1043
f 1024 1055 1050
f 1024 1042 1055
f 1043 1056 1028
f 1050 1056 1043
f 1014 1057 1042
f 1014 1026 1057
f 1028 1058 1027
f 1056 1058 1028
f 1003 1059 1026
f 1003 1029 1059
f 1027 1060 1030
f 1058 1060 1027
f 1016 1061 1029
f 1016 1044 1061
f 1030 1062 1045
f 1060 1062 1030
f 1063 1032 1046
f 1051 1032 1063
f 1064 1034 1033
f 1064 1033 1052
f 1046 1036 1065
f 1065 1036 1053
f 1066 1037 1018
f 1066 1018 1047
f 1067 1038 1039
f 1053 1038 1067
f 1068 1039 1020
f 1067 1039 1068
f 1068 1020 1054
f 1050 1055 1056
f 1041 1069 1040
f 1045 1070 1041
f 1041 1070 1069
f 1063 1046 1071
f 1071 1046 1065
f 1072 1047 1034
f 1072 1034 1064
f 1040 1073 1044
f 1040 1069 1073
f 1062 1074 1045
f 1045 1074 1070
f 1075 1051 1063
f 1076 1052 1051
f 1076 1051 1075
f 1065 1053 1077
f 1077 1053 1067
f 1078 1054 1037
f 1078 1037 1066
f 1042 1079 1055
f 1042 1057 1079
f 1055 1080 1056
f 1056 1080 1058
f 1081 1063 1071
f 1075 1063 1081
f 1082 1064 1052
f 1082 1052 1076
f 1083 1066 1047
f 1083 1047 1072
f 1055 1079 1080
f 1026 1084 1057
f 1026 1059 1084
f 1058 1085 1060
f 1080 1085 1058
f 1029 1086 1059
f 1029 1061 1086
f 1060 1087 1062
f 1085 1087 1060
f 1071 1065 1088
f 1088 1065 1077
f 1089 1067 1068
f 1077 1067 1089
f 1090 1068 1054
f 1090 1054 1078
f 1044 1091 1061
f 1044 1073 1091
f 1062 1092 1074
f 1087 1092 1062
f 1093 1072 1064
f 1093 1064 1082
f 1089 1068 1090
f 1070 1094 1069
f 1074 1095 1070
f 1070 1095 1094
f 1081 1071 1096
f 1096 1071 1088
f 1069 1097 1073
f 1069 1094 1097
f 1092 1098 1074
f 1074 1098 1095
f 1099 1075 1081
f 1100 1076 1075
f 1100 1075 1099
f 1101 1078 1066
f 1101 1066 1083
f 1088 1077 1102
f 1102 1077 1089
f 1057 1103 1079
f 1057 1084 1103
f 1079 1104 1080
f 1080 1104 1085
f 1105 1081 1096
f 1099 1081 1105
f 1106 1082 1076
f 1106 1076 1100
f 1079 1103 1104
f 1059 1107 1084
f 1059 1086 1107
f 1085 1108 1087
f 1104 1108 1085
f 1061 1109 1086
f 1061 1091 1109
f 1087 1110 1092
f 1108 1110 1087
f 1096 1088 1111
f 1111 1088 1102
f 1112 1083 1072
f 1112 1072 1093
f 1113 1089 1090
f 1102 1089 1113
f 1114 1090 1078
f 1114 1078 1101
f 1073 1115 1091
f 1073 1097 1115
f 1092 1116 1098
f 1110 1116 1092
f 1095 1117 1094
f 1098 1118 1095
f 1095 1118 1117
f 1113 1090 1114
f 1119 1093 1082
f 1119 1082 1106
f 1105 1096 1120
f 1120 1096 1111
f 1094 1121 1097
f 1094 1117 1121
f 1098 1122 1118
f 1116 1122 1098
f 1123 1099 1105
f 1124 1100 1099
f 1124 1099 1123
f 1084 1125 1103
f 1084 1107 1125
f 1103 1126 1104
f 1104 1126 1108
f 1111 1102 1127
f 1127 1102 1113
f 1128 1101 1083
f 1128 1083 1112
f 1118 1129 1117
f 1122 1130 1118
f 1118 1130 1129
f 1123 1105 1131
f 1131 1105 1120
f 1132 1100 1124
f 1132 1106 1100
f 1103 1125 1126
f 1086 1133 1107
f 1086 1109 1133
f 1108 1134 1110
f 1126 1134 1108
f 1091 1135 1109
f 1091 1115 1135
f 1110 1136 1116
f 1134 1136 1110
f 1097 1121 1137
f 1097 1137 1115
f 1116 1138 1122
f 1136 1138 1116
f 1117 1129 1139
f 1117 1139 1121
f 1122 1140 1130
f 1138 1140 1122
f 1140 1123 1130
f 1130 1123 1131
f 1130 1131 1129
f 1140 1124 1123
f 1120 1111 1141
f 1141 1111 1127
f 1142 1112 1093
f 1142 1093 1119
f 1143 1113 1114
f 1127 1113 1143
f 1144 1114 1101
f 1144 1101 1128
f 1129 1131 1145
f 1129 1145 1139
f 1146 1124 1140
f 1138 1146 1140
f 1131 1120 1145
f 1146 1132 1124
f 1145 1120 1141
f 1147 1106 1132
f 1147 1119 1106
f 1143 1114 1144
f 1107 1148 1125
f 1107 1133 1148
f 1125 1149 1126
f 1126 1149 1134
f 1121 1139 1150
f 1121 1150 1137
f 1136 1151 1138
f 1151 1146 1138
f 1152 1128 1112
f 1152 1112 1142
f 1141 1127 1153
f 1153 1127 1143
f 1125 1148 1149
f 1109 1154 1133
f 1109 1135 1154
f 1134 1155 1136
f 1149 1155 1134
f 1115 1137 1156
f 1115 1156 1135
f 1155 1151 1136
f 1139 1145 1157
f 1139 1157 1150
f 1158 1132 1146
f 1151 1158 1146
f 1145 1141 1157
f 1158 1147 1132
f 1157 1141 1153
f 1159 1119 1147
f 1159 1142 1119
f 1160 1143 1144
f 1153 1143 1160
f 1161 1144 1128
f 1161 1128 1152
f 1137 1150 1162
f 1137 1162 1156
f 1155 1163 1151
f 1163 1158 1151
f 1160 1144 1161
f 1133 1164 1148
f 1133 1154 1164
f 1148 1165 1149
f 1149 1165 1155
f 1148 1164 1165
f 1135 1166 1154
f 1135 1156 1166
f 1165 1163 1155
f 1150 1157 1167
f 1150 1167 1162
f 1168 1147 1158
f 1163 1168 1158
f 1157 1153 1167
f 1168 1159 1147
f 1167 1153 1160
f 1169 1142 1159
f 1169 1152 1142
f 1154 1170 1164
f 1154 1166 1170
f 1165 1171 1163
f 1164 1171 1165
f 1156 1162 1172
f 1156 1172 1166
f 1171 1168 1163
f 1167 1160 1173
f 1162 1167 1173
f 1174 1159 1168
f 1174 1169 1159
f 1173 1160 1161
f 1175 1161 1152
f 1175 1152 1169
f 1164 1170 1171
f 1162 1173 1172
f 1171 1174 1168
f 1173 1161 1175
f 1166 1176 1170
f 1166 1172 1176
f 1170 1174 1171
f 1172 1173 1175
f 1176 1169 1174
f 1176 1175 1169
f 1170 1176 1174
f 1172 1175 1176
f 1177 1178 1179
f 1180 1178 1177
f 1179 1178 1181
f 1182 1178 1180
f 1183 1178 1182
f 1184 1178 1183
f 1181 1178 1185
f 1185 1178 1186
f 1186 1178 1187
f 1188 1178 1184
f 1189 1178 1188
f 1187 1178 1189
f 1190 1177 1179
f 1191 1180 1177
f 1191 1177 1190
f 1192 1179 1181
f 1190 1179 1192
f 1193 1182 1180
f 1193 1180 1191
f 1194 1183 1182
f 1194 1182 1193
f 1195 1184 1183
f 1195 1183 1194
f 1196 1181 1185
f 1192 1181 1196
f 1197 1185 1186
f 1196 1185 1197
f 1198 1186 1187
f 1197 1186 1198
f 1199 1188 1184
f 1199 1184 1195
f 1200 1189 1188
f 1200 1188 1199
f 1201 1187 1189
f 1201 1189 1200
f 1198 1187 1201
f 1202 1190 1192
f 1203 1191 1190
f 1203 1190 1202
f 1204 1192 1196
f 1202 1192 1204
f 1205 1193 1191
f 1205 1191 1203
f 1206 1194 1193
f 1206 1193 1205
f 1207 1195 1194
f 1207 1194 1206
f 1208 1196 1197
f 1204 1196 1208
f 1209 1199 1195
f 1209 1195 1207
f 1210 1197 1198
f 1208 1197 1210
f 1211 1198 1201
f 1210 1198 1211
f 1212 1201 1200
f 1211 1201 1212
f 1213 1200 1199
f 1213 1199 1209
f 1212 1200 1213
f 1214 1203 1202
f 1215 1202 1204
f 1214 1202 1215
f 1216 1205 1203
f 1216 1203 1214
f 1217 1206 1205
f 1217 1205 1216
f 1218 1207 1206
f 1218 1206 1217
f 1219 1204 1208
f 1215 1204 1219
f 1220 1209 1207
f 1220 1207 1218
f 1221 1208 1210
f 1219 1208 1221
f 1222 1210 1211
f 1221 1210 1222
f 1223 1211 1212
f 1222 1211 1223
f 1224 1212 1213
f 1223 1212 1224
f 1225 1213 1209
f 1225 1209 1220
f 1224 1213 1225
f 1226 1214 1215
f 1227 1215 1219
f 1226 1215 1227
f 1228 1216 1214
f 1228 1214 1226
f 1229 1217 1216
f 1229 1216 1228
f 1230 1218 1217
f 1230 1217 1229
f 1231 1219 1221
f 1227 1219 1231
f 1232 1220 1218
f 1232 1218 1230
f 1233 1221 1222
f 1231 1221 1233
f 1234 1225 1220
f 1234 1220 1232
f 1235 1222 1223
f 1233 1222 1235
f 1236 1224 1225
f 1236 1225 1234
f 1237 1223 1224
f 1235 1223 1237
f 1237 1224 1236
f 1238 1228 1226
f 1239 1226 1227
f 1238 1226 1239
f 1240 1229 1228
f 1240 1228 1238
f 1241 1227 1231
f 1239 1227 1241
f 1242 1230 1229
f 1242 1229 1240
f 1243 1231 1233
f 1241 1231 1243
f 1244 1232 1230
f 1244 1230 1242
f 1245 1233 1235
f 1243 1233 1245
f 1246 1234 1232
f 1246 1232 1244
f 1247 1235 1237
f 1245 1235 1247
f 1248 1236 1234
f 1248 1234 1246
f 1249 1237 1236
f 1247 1237 1249
f 1249 1236 1248
f 1250 1238 1239
f 1251 1239 1241
f 1250 1239 1251
f 1252 1240 1238
f 1252 1238 1250
f 1253 1241 1243
f 1251 1241 1253
f 1254 1242 1240
f 1254 1240 1252
f 1255 1244 1242
f 1255 1242 1254
f 1256 1243 1245
f 1253 1243 1256
f 1257 1246 1244
f 1257 1244 1255
f 1258 1245 1247
f 1256 1245 1258
f 1259 1248 1246
f 1259 1246 1257
f 1260 1247 1249
f 1258 1247 1260
f 1261 1249 1248
f 1260 1249 1261
f 1261 1248 1259
f 1262 1250 1251
f 1263 1251 1253
f 1262 1251 1263
f 1264 1252 1250
f 1264 1250 1262
f 1265 1254 1252
f 1265 1252 1264
f 1266 1253 1256
f 1263 1253 1266
f 1267 1255 1254
f 1267 1254 1265
f 1268 1256 1258
f 1266 1256 1268
f 1269 1257 1255
f 1269 1255 1267
f 1270 1258 1260
f 1268 1258 1270
f 1271 1259 1257
f 1271 1257 1269
f 1272 1260 1261
f 1270 1260 1272
f 1273 1261 1259
f 1272 1261 1273
f 1273 1259 1271
f 1274 1262 1263
f 1275 1264 1262
f 1275 1262 1274
f 1276 1263 1266
f 1274 1263 1276
f 1277 1265 1264
f 1277 1264 1275
f 1278 1266 1268
f 1276 1266 1278
f 1279 1267 1265
f 1279 1265 1277
f 1280 1268 1270
f 1278 1268 1280
f 1281 1269 1267
f 1281 1267 1279
f 1282 1270 1272
f 1280 1270 1282
f 1283 1271 1269
f 1283 1269 1281
f 1284 1272 1273
f 1282 1272 1284
f 1285 1273 1271
f 1284 1273 1285
f 1285 1271 1283
f 1286 1274 1276
f 1287 1276 1278
f 1286 1276 1287
f 1288 1275 1274
f 1288 1274 1286
f 1289 1277 1275
f 1289 1275 1288
f 1290 1278 1280
f 1287 1278 1290
f 1291 1279 1277
f 1291 1277 1289
f 1292 1280 1282
f 1290 1280 1292
f 1293 1281 1279
f 1293 1279 1291
f 1294 1282 1284
f 1292 1282 1294
f 1295 1283 1281
f 1295 1281 1293
f 1296 1284 1285
f 1294 1284 1296
f 1297 1285 1283
f 1297 1283 1295
f 1296 1285 1297
f 1298 1286 1287
f 1299 1288 1286
f 1299 1286 1298
f 1300 1287 1290
f 1298 1287 1300
f 1301 1289 1288
f 1301 1288 1299
f 1302 1290 1292
f 1300 1290 1302
f 1303 1291 1289
f 1303 1289 1301
f 1304 1292 1294
f 1302 1292 1304
f 1305 1293 1291
f 1305 1291 1303
f 1306 1294 1296
f 1304 1294 1306
f 1307 1295 1293
f 1307 1293 1305
f 1308 1296 1297
f 1306 1296 1308
f 1309 1297 1295
f 1309 1295 1307
f 1308 1297 1309
f 1310 1298 1300
f 1311 1299 1298
f 1311 1298 1310
f 1312 1300 1302
f 1310 1300 1312
f 1313 1301 1299
f 1313 1299 1311
f 1314 1302 1304
f 1312 1302 1314
f 1315 1303 1301
f 1315 1301 1313
f 1316 1304 1306
f 1314 1304 1316
f 1317 1305 1303
f 1317 1303 1315
f 1318 1306 1308
f 1316 1306 1318
f 1319 1307 1305
f 1319 1305 1317
f 1320 1308 1309
f 1318 1308 1320
f 1321 1309 1307
f 1321 1307 1319
f 1320 1309 1321
f 1322 1310 1312
f 1323 1311 1310
f 1323 1310 1322
f 1324 1312 1314
f 1322 1312 1324
f 1325 1313 1311
f 1325 1311 1323
f 1326 1314 1316
f 1324 1314 1326
f 1327 1315 1313
f 1327 1313 1325
f 1328 1316 1318
f 1326 1316 1328
f 1329 1317 1315
f 1329 1315 1327
f 1330 1318 1320
f 1328 1318 1330
f 1331 1319 1317
f 1331 1317 1329
f 1332 1320 1321
f 1330 1320 1332
f 1333 1321 1319
f 1333 1319 1331
f 1332 1321 1333
f 1334 1322 1324
f 1335 1324 1326
f 1334 1324 1335
f 1336 1323 1322
f 1336 1322 1334
f 1337 1325 1323
f 1337 1323 1336
f 1338 1326 1328
f 1335 1326 1338
f 1339 1327 1325
f 1339 1325 1337
f 1340 1328 1330
f 1338 1328 1340
f 1341 1329 1327
f 1341 1327 1339
f 1342 1330 1332
f 1340 1330 1342
f 1343 1331 1329
f 1343 1329 1341
f 1344 1332 1333
f 1342 1332 1344
f 1345 1333 1331
f 1344 1333 1345
f 1345 1331 1343
f 1346 1334 1335
f 1347 1335 1338
f 1346 1335 1347
f 1348 1336 1334
f 1348 1334 1346
f 1349 1338 1340
f 1347 1338 1349
f 1350 1337 1336
f 1350 1336 1348
f 1351 1340 1342
f 1349 1340 1351
f 1352 1339 1337
f 1352 1337 1350
f 1353 1342 1344
f 1351 1342 1353
f 1354 1341 1339
f 1354 1339 1352
f 1355 1344 1345
f 1353 1344 1355
f 1356 1343 1341
f 1356 1341 1354
f 1357 1345 1343
f 1355 1345 1357
f 1357 1343 1356
f 1358 1346 1347
f 1359 1347 1349
f 1358 1347 1359
f 1360 1348 1346
f 1360 1346 1358
f 1361 1349 1351
f 1359 1349 1361
f 1362 1350 1348
f 1362 1348 1360
f 1363 1351 1353
f 1361 1351 1363
f 1364 1352 1350
f 1364 1350 1362
f 1365 1353 1355
f 1363 1353 1365
f 1366 1354 1352
f 1366 1352 1364
f 1367 1355 1357
f 1365 1355 1367
f 1368 1356 1354
f 1368 1354 1366
f 1369 1357 1356
f 1367 1357 1369
f 1369 1356 1368
f 1370 1358 1359
f 1371 1359 1361
f 1370 1359 1371
f 1372 1360 1358
f 1372 1358 1370
f 1373 1361 1363
f 1371 1361 1373
f 1374 1362 1360
f 1374 1360 1372
f 1375 1363 1365
f 1373 1363 1375
f 1376 1364 1362
f 1376 1362 1374
f 1377 1365 1367
f 1375 1365 1377
f 1378 1366 1364
f 1378 1364 1376
f 1379 1367 1369
f 1377 1367 1379
f 1380 1368 1366
f 1380 1366 1378
f 1381 1369 1368
f 1379 1369 1381
f 1381 1368 1380
f 1382 1370 1371
f 1383 1371 1373
f 1382 1371 1383
f 1384 1372 1370
f 1384 1370 1382
f 1385 1373 1375
f 1383 1373 1385
f 1386 1374 1372
f 1386 1372 1384
f 1387 1375 1377
f 1385 1375 1387
f 1388 1376 1374
f 1388 1374 1386
f 1389 1377 1379
f 1387 1377 1389
f 1390 1378 1376
f 1390 1376 1388
f 1391 1379 1381
f 1389 1379 1391
f 1392 1380 1378
f 1392 1378 1390
f 1393 1382 1383
f 1394 1383 1385
f 1393 1383 1394
f 1395 1381 1380
f 1391 1381 1395
f 1396 1384 1382
f 1396 1382 1393
f 1395 1380 1392
f 1397 1385 1387
f 1394 1385 1397
f 1398 1386 1384
f 1398 1384 1396
f 1399 1387 1389
f 1397 1387 1399
f 1400 1388 1386
f 1400 1386 1398
f 1401 1389 1391
f 1399 1389 1401
f 1402 1390 1388
f 1402 1388 1400
f 1403 1391 1395
f 1401 1391 1403
f 1404 1392 1390
f 1404 1390 1402
f 1405 1393 1394
f 1406 1394 1397
f 1405 1394 1406
f 1407 1395 1392
f 1403 1395 1407
f 1408 1396 1393
f 1408 1393 1405
f 1407 1392 1404
f 1409 1397 1399
f 1406 1397 1409
f 1410 1398 1396
f 1410 1396 1408
f 1411 1399 1401
f 1409 1399 1411
f 1412 1400 1398
f 1412 1398 1410
f 1413 1401 1403
f 1411 1401 1413
f 1414 1402 1400
f 1414 1400 1412
f 1415 1403 1407
f 1413 1403 1415
f 1416 1404 1402
f 1416 1402 1414
f 1417 1407 1404
f 1415 1407 1417
f 1418 1405 1406
f 1419 1406 1409
f 1418 1406 1419
f 1417 1404 1416
f 1420 1408 1405
f 1420 1405 1418
f 1421 1409 1411
f 1419 1409 1421
f 1422 1410 1408
f 1422 1408 1420
f 1423 1411 1413
f 1421 1411 1423
f 1424 1412 1410
f 1424 1410 1422
f 1425 1413 1415
f 1423 1413 1425
f 1426 1414 1412
f 1426 1412 1424
f 1427 1415 1417
f 1425 1415 1427
f 1428 1416 1414
f 1428 1414 1426
f 1429 1417 1416
f 1427 1417 1429
f 1429 1416 1428
f 1430 1418 1419
f 1431 1419 1421
f 1430 1419 1431
f 1432 1420 1418
f 1432 1418 1430
f 1433 1421 1423
f 1431 1421 1433
f 1434 1422 1420
f 1434 1420 1432
f 1435 1423 1425
f 1433 1423 1435
f 1436 1424 1422
f 1436 1422 1434
f 1437 1425 1427
f 1435 1425 1437
f 1438 1426 1424
f 1438 1424 1436
f 1439 1427 1429
f 1437 1427 1439
f 1440 1428 1426
f 1440 1426 1438
f 1441 1429 1428
f 1439 1429 1441
f 1441 1428 1440
f 1442 1430 1431
f 1443 1431 1433
f 1442 1431 1443
f 1444 1432 1430
f 1444 1430 1442
f 1445 1433 1435
f 1443 1433 1445
f 1446 1434 1432
f 1446 1432 1444
f 1447 1435 1437
f 1445 1435 1447
f 1448 1436 1434
f 1448 1434 1446
f 1449 1437 1439
f 1447 1437 1449
f 1450 1438 1436
f 1450 1436 1448
f 1451 1439 1441
f 1449 1439 1451
f 1452 1440 1438
f 1452 1438 1450
f 1453 1441 1440
f 1451 1441 1453
f 1453 1440 1452
f 1454 1455 1456
f 1457 1458 1455
f 1457 1455 1454
f 1459 1456 1460
f 1454 1456 1459
f 1461 1462 1458
f 1461 1458 1457
f 1463 1460 1464
f 1459 1460 1463
f 1465 1466 1462
f 1465 1462 1461
f 1467 1464 1468
f 1463 1464 1467
f 1469 1470 1466
f 1469 1466 1465
f 1471 1468 1472
f 1467 1468 1471
f 1473 1474 1470
f 1473 1470 1469
f 1475 1472 1476
f 1471 1472 1475
f 1477 1476 1474
f 1477 1474 1473
f 1475 1476 1477
f 1478 1454 1459
f 1479 1457 1454
f 1479 1454 1478
f 1480 1459 1463
f 1478 1459 1480
f 1481 1461 1457
f 1481 1457 1479
f 1482 1463 1467
f 1480 1463 1482
f 1483 1465 1461
f 1483 1461 1481
f 1484 1467 1471
f 1482 1467 1484
f 1485 1469 1465
f 1485 1465 1483
f 1486 1471 1475
f 1484 1471 1486
f 1487 1473 1469
f 1487 1469 1485
f 1488 1475 1477
f 1486 1475 1488
f 1489 1477 1473
f 1489 1473 1487
f 1488 1477 1489
f 1490 1478 1480
f 1491 1479 1478
f 1491 1478 1490
f 1492 1480 1482
f 1490 1480 1492
f 1493 1481 1479
f 1493 1479 1491
f 1494 1482 1484
f 1492 1482 1494
f 1495 1483 1481
f 1495 1481 1493
f 1496 1484 1486
f 1494 1484 1496
f 1497 1485 1483
f 1497 1483 1495
f 1498 1486 1488
f 1496 1486 1498
f 1499 1487 1485
f 1499 1485 1497
f 1500 1488 1489
f 1498 1488 1500
f 1501 1489 1487
f 1501 1487 1499
f 1500 1489 1501
f 1502 1490 1492
f 1503 1491 1490
f 1503 1490 1502
f 1504 1492 1494
f 1502 1492 1504
f 1505 1493 1491
f 1505 1491 1503
f 1506 1494 1496
f 1504 1494 1506
f 1507 1495 1493
f 1507 1493 1505
f 1508 1496 1498
f 1506 1496 1508
f 1509 1497 1495
f 1509 1495 1507
f 1510 1498 1500
f 1508 1498 1510
f 1511 1499 1497
f 1511 1497 1509
f 1512 1500 1501
f 1510 1500 1512
f 1513 1501 1499
f 1513 1499 1511
f 1512 1501 1513
f 1514 1502 1504
f 1515 1503 1502
f 1515 1502 1514
f 1516 1504 1506
f 1514 1504 1516
f 1517 1505 1503
f 1517 1503 1515
f 1518 1506 1508
f 1516 1506 1518
f 1519 1507 1505
f 1519 1505 1517
f 1520 1508 1510
f 1518 1508 1520
f 1521 1509 1507
f 1521 1507 1519
f 1522 1510 1512
f 1520 1510 1522
f 1523 1511 1509
f 1523 1509 1521
f 1524 1512 1513
f 1522 1512 1524
f 1525 1513 1511
f 1525 1511 1523
f 1524 1513 1525
f 1526 1514 1516
f 1527 1515 1514
f 1527 1514 1526
f 1528 1516 1518
f 1526 1516 1528
f 1529 1517 1515
f 1529 1515 1527
f 1530 1518 1520
f 1528 1518 1530
f 1531 1519 1517
f 1531 1517 1529
f 1532 1520 1522
f 1530 1520 1532
f 1533 1521 1519
f 1533 1519 1531
f 1534 1522 1524
f 1532 1522 1534
f 1535 1523 1521
f 1535 1521 1533
f 1536 1524 1525
f 1534 1524 1536
f 1537 1525 1523
f 1537 1523 1535
f 1536 1525 1537
f 1538 1526 1528
f 1539 1527 1526
f 1539 1526 1538
f 1540 1528 1530
f 1538 1528 1540
f 1541 1529 1527
f 1541 1527 1539
f 1542 1531 1529
f 1542 1529 1541
f 1543 1530 1532
f 1540 1530 1543
f 1544 1533 1531
f 1544 1531 1542
f 1545 1532 1534
f 1543 1532 1545
f 1546 1534 1536
f 1545 1534 1546
f 1547 1535 1533
f 1547 1533 1544
f 1548 1536 1537
f 1546 1536 1548
f 1549 1537 1535
f 1548 1537 1549
f 1549 1535 1547
f 1550 1539 1538
f 1551 1538 1540
f 1550 1538 1551
f 1552 1541 1539
f 1552 1539 1550
f 1553 1540 1543
f 1551 1540 1553
f 1554 1542 1541
f 1554 1541 1552
f 1555 1543 1545
f 1553 1543 1555
f 1556 1544 1542
f 1556 1542 1554
f 1557 1545 1546
f 1555 1545 1557
f 1558 1547 1544
f 1558 1544 1556
f 1559 1546 1548
f 1557 1546 1559
f 1560 1549 1547
f 1560 1547 1558
f 1561 1548 1549
f 1559 1548 1561
f 1561 1549 1560
f 1562 1550 1551
f 1563 1551 1553
f 1562 1551 1563
f 1564 1552 1550
f 1564 1550 1562
f 1565 1553 1555
f 1563 1553 1565
f 1566 1554 1552
f 1566 1552 1564
f 1567 1555 1557
f 1565 1555 1567
f 1568 1556 1554
f 1568 1554 1566
f 1569 1557 1559
f 1567 1557 1569
f 1570 1558 1556
f 1570 1556 1568
f 1571 1559 1561
f 1569 1559 1571
f 1572 1560 1558
f 1572 1558 1570
f 1573 1561 1560
f 1571 1561 1573
f 1573 1560 1572
f 1574 1562 1563
f 1575 1563 1565
f 1574 1563 1575
f 1576 1564 1562
f 1576 1562 1574
f 1577 1565 1567
f 1575 1565 1577
f 1578 1566 1564
f 1578 1564 1576
f 1579 1567 1569
f 1577 1567 1579
f 1580 1568 1566
f 1580 1566 1578
f 1581 1569 1571
f 1579 1569 1581
f 1582 1570 1568
f 1582 1568 1580
f 1583 1571 1573
f 1581 1571 1583
f 1584 1572 1570
f 1584 1570 1582
f 1585 1573 1572
f 1583 1573 1585
f 1585 1572 1584
f 1586 1574 1575
f 1587 1575 1577
f 1586 1575 1587
f 1588 1576 1574
f 1588 1574 1586
f 1589 1578 1576
f 1589 1576 1588
f 1590 1577 1579
f 1587 1577 1590
f 1591 1580 1578
f 1591 1578 1589
f 1592 1579 1581
f 1590 1579 1592
f 1593 1582 1580
f 1593 1580 1591
f 1594 1581 1583
f 1592 1581 1594
f 1595 1583 1585
f 1594 1583 1595
f 1596 1584 1582
f 1596 1582 1593
f 1597 1585 1584
f 1595 1585 1597
f 1597 1584 1596
f 1598 1586 1587
f 1599 1588 1586
f 1599 1586 1598
f 1600 1587 1590
f 1598 1587 1600
f 1601 1589 1588
f 1601 1588 1599
f 1602 1590 1592
f 1600 1590 1602
f 1603 1591 1589
f 1603 1589 1601
f 1604 1592 1594
f 1602 1592 1604
f 1605 1593 1591
f 1605 1591 1603
f 1606 1594 1595
f 1604 1594 1606
f 1607 1596 1593
f 1607 1593 1605
f 1608 1595 1597
f 1606 1595 1608
f 1609 1597 1596
f 1609 1596 1607
f 1608 1597 1609
