# 
# Wavefront OBJ file
# Created with Kaydara FBX
# 
mtllib c:\users\tjvan\onedrive\documenten\fontys\minor\nx\.mtlmodels\inferior_subtendinous_bursa_of_biceps_femoris.r.obj

g Inferior_subtendinous_bursa_of_biceps_femoris_r
v -0.123857 0.399371 -0.035751
v -0.123944 0.400150 -0.035604
v -0.123502 0.400189 -0.035834
v -0.123272 0.399816 -0.034526
v -0.123441 0.400796 -0.034601
v -0.123790 0.400917 -0.035506
v -0.123324 0.400856 -0.035676
v -0.123615 0.398703 -0.035874
v -0.123459 0.399529 -0.036010
v -0.122891 0.398967 -0.034694
v -0.123444 0.401751 -0.034769
v -0.123606 0.401689 -0.035394
v -0.123128 0.401587 -0.035502
v -0.123255 0.398906 -0.036155
v -0.123354 0.397973 -0.035916
v -0.122482 0.398130 -0.034922
v -0.123299 0.402689 -0.034985
v -0.122829 0.402595 -0.035129
v -0.122886 0.399946 -0.034816
v -0.123009 0.400800 -0.034853
v -0.122549 0.399177 -0.034992
v -0.122783 0.401531 -0.033699
v -0.122569 0.400437 -0.033520
v -0.122982 0.402653 -0.034012
v -0.123019 0.398177 -0.036226
v -0.122698 0.397075 -0.035807
v -0.121866 0.397218 -0.034966
v -0.122984 0.401686 -0.034954
v -0.122937 0.403846 -0.034480
v -0.122471 0.403754 -0.034638
v -0.122110 0.399304 -0.033640
v -0.122160 0.398350 -0.035235
v -0.122388 0.397288 -0.036136
v -0.121559 0.397441 -0.035293
v -0.122374 0.401534 -0.033987
v -0.122201 0.400541 -0.033842
v -0.122539 0.402604 -0.034240
v -0.122621 0.403774 -0.033537
v -0.122225 0.402541 -0.032947
v -0.122694 0.404674 -0.034312
v -0.122237 0.404538 -0.034461
v -0.121720 0.398272 -0.034046
v -0.121788 0.399508 -0.033963
v -0.121964 0.401210 -0.032569
v -0.121217 0.395708 -0.035375
v -0.120015 0.395745 -0.034274
v -0.122273 0.404829 -0.033197
v -0.122296 0.405425 -0.034273
v -0.121885 0.405187 -0.034429
v -0.121687 0.403673 -0.032233
v -0.121505 0.400138 -0.032620
v -0.121408 0.398508 -0.034357
v -0.122181 0.403710 -0.033766
v -0.121820 0.402535 -0.033239
v -0.121111 0.397325 -0.034187
v -0.119730 0.395987 -0.034606
v -0.120923 0.395936 -0.035709
v -0.121588 0.401285 -0.032891
v -0.121619 0.405471 -0.032867
v -0.121191 0.405802 -0.034002
v -0.121557 0.406101 -0.033840
v -0.121073 0.404317 -0.031880
v -0.121869 0.404662 -0.033440
v -0.121337 0.402325 -0.031712
v -0.121174 0.400307 -0.032955
v -0.121312 0.403609 -0.032557
v -0.120806 0.397560 -0.034506
v -0.121184 0.398856 -0.033018
v -0.120983 0.401094 -0.031624
v -0.121263 0.405244 -0.033134
v -0.119104 0.396260 -0.033046
v -0.120742 0.404188 -0.032233
v -0.120952 0.402340 -0.032031
v -0.120866 0.399072 -0.033338
v -0.120492 0.397696 -0.033245
v -0.120800 0.403131 -0.031156
v -0.120940 0.406104 -0.032513
v -0.120398 0.404987 -0.031549
v -0.120646 0.401230 -0.031968
v -0.118837 0.396503 -0.033392
v -0.120514 0.406399 -0.033577
v -0.120878 0.406679 -0.033382
v -0.120439 0.399710 -0.031795
v -0.120197 0.397938 -0.033569
v -0.120466 0.401995 -0.030677
v -0.120450 0.403055 -0.031504
v -0.120588 0.405880 -0.032790
v -0.120081 0.404841 -0.031907
v -0.119258 0.394109 -0.034878
v -0.117565 0.394172 -0.033477
v -0.119801 0.398409 -0.031975
v -0.120138 0.399901 -0.032146
v -0.118674 0.396987 -0.032309
v -0.120059 0.403958 -0.030822
v -0.119882 0.400704 -0.030893
v -0.120150 0.402060 -0.031058
v -0.119874 0.406481 -0.031693
v -0.119424 0.405708 -0.030981
v -0.117305 0.394429 -0.033819
v -0.118980 0.394359 -0.035210
v -0.119834 0.406759 -0.032577
v -0.120187 0.406981 -0.032301
v -0.119535 0.398646 -0.032327
v -0.118430 0.397236 -0.032667
v -0.119743 0.402926 -0.030174
v -0.119744 0.403822 -0.031186
v -0.119621 0.400879 -0.031282
v -0.119544 0.406314 -0.032029
v -0.119117 0.405563 -0.031347
v -0.118262 0.398142 -0.031292
v -0.119342 0.401786 -0.030124
v -0.119447 0.402883 -0.030575
v -0.119312 0.399500 -0.031106
v -0.119011 0.404969 -0.030352
v -0.118037 0.398381 -0.031669
v -0.118926 0.406827 -0.031006
v -0.119025 0.407168 -0.031913
v -0.119355 0.407322 -0.031570
v -0.119095 0.401899 -0.030544
v -0.119074 0.399697 -0.031499
v -0.118718 0.404822 -0.030729
v -0.118676 0.404223 -0.029785
v -0.116311 0.394631 -0.032373
v -0.118803 0.400669 -0.030295
v -0.118567 0.406257 -0.030487
v -0.118610 0.406678 -0.031363
v -0.118190 0.399452 -0.030491
v -0.118609 0.403339 -0.029407
v -0.118395 0.404088 -0.030176
v -0.116071 0.394879 -0.032734
v -0.118572 0.400839 -0.030704
v -0.117967 0.399653 -0.030890
v -0.118271 0.406115 -0.030864
v -0.118347 0.403304 -0.029831
v -0.118051 0.405742 -0.029966
v -0.118333 0.402464 -0.029311
v -0.118071 0.400792 -0.029842
v -0.117774 0.405593 -0.030354
v -0.116362 0.396161 -0.031422
v -0.118076 0.402539 -0.029734
v -0.117846 0.400965 -0.030253
v -0.117578 0.405265 -0.029487
v -0.116135 0.396401 -0.031797
v -0.117924 0.402269 -0.029168
v -0.117312 0.405106 -0.029880
v -0.116820 0.398001 -0.030562
v -0.117457 0.404656 -0.029151
v -0.117332 0.404096 -0.028847
v -0.117652 0.402363 -0.029577
v -0.116598 0.398235 -0.030944
v -0.117206 0.404530 -0.029564
v -0.117086 0.404040 -0.029279
v -0.117514 0.403637 -0.028766
v -0.117113 0.399459 -0.029875
v -0.117374 0.401003 -0.029380
v -0.117487 0.402079 -0.029011
v -0.117208 0.403621 -0.029161
v -0.116889 0.399659 -0.030275
v -0.117150 0.401174 -0.029793
v -0.117573 0.403106 -0.028715
v -0.117219 0.402205 -0.029413
v -0.117249 0.403170 -0.029090
usemtl Inferior_subtendinous_bursa_of_biceps_femoris_rMaterial0
f 1 2 3
f 4 2 1
f 5 6 2
f 2 6 7
f 2 7 3
f 4 5 2
f 8 1 9
f 10 1 8
f 1 3 9
f 10 4 1
f 11 12 6
f 6 12 13
f 5 11 6
f 6 13 7
f 8 9 14
f 15 8 14
f 16 8 15
f 16 10 8
f 11 17 12
f 12 17 18
f 12 18 13
f 19 9 3
f 20 3 7
f 19 3 20
f 21 14 9
f 21 9 19
f 22 11 5
f 23 5 4
f 23 22 5
f 24 17 11
f 22 24 11
f 15 14 25
f 26 15 25
f 27 15 26
f 27 16 15
f 28 7 13
f 20 7 28
f 24 29 17
f 17 29 30
f 17 30 18
f 31 4 10
f 31 23 4
f 32 25 14
f 32 14 21
f 28 13 18
f 26 25 33
f 34 33 25
f 34 25 32
f 35 20 28
f 36 19 20
f 36 20 35
f 37 28 18
f 35 28 37
f 38 29 24
f 39 24 22
f 39 38 24
f 38 40 29
f 29 40 41
f 29 41 30
f 42 10 16
f 42 31 10
f 43 21 19
f 43 19 36
f 37 18 30
f 44 22 23
f 44 39 22
f 45 26 33
f 46 27 26
f 46 26 45
f 47 40 38
f 47 48 40
f 40 48 49
f 40 49 41
f 50 47 38
f 50 38 39
f 51 23 31
f 51 44 23
f 52 32 21
f 52 21 43
f 53 37 30
f 54 35 37
f 54 37 53
f 55 16 27
f 55 42 16
f 53 30 41
f 56 33 34
f 45 33 57
f 56 57 33
f 58 36 35
f 58 35 54
f 59 48 47
f 48 60 49
f 59 61 48
f 48 61 60
f 62 47 50
f 62 59 47
f 63 53 41
f 63 41 49
f 64 39 44
f 64 50 39
f 65 43 36
f 65 36 58
f 66 53 63
f 66 54 53
f 67 34 32
f 67 32 52
f 68 31 42
f 68 51 31
f 69 44 51
f 69 64 44
f 70 63 49
f 70 49 60
f 71 55 27
f 71 27 46
f 72 66 63
f 72 63 70
f 73 58 54
f 73 54 66
f 74 52 43
f 74 43 65
f 75 68 42
f 75 42 55
f 76 50 64
f 76 62 50
f 77 61 59
f 78 59 62
f 78 77 59
f 79 65 58
f 79 58 73
f 80 34 67
f 80 56 34
f 61 81 60
f 77 82 61
f 61 82 81
f 83 51 68
f 83 69 51
f 84 52 74
f 84 67 52
f 85 64 69
f 85 76 64
f 86 73 66
f 86 66 72
f 87 70 60
f 88 72 70
f 88 70 87
f 89 45 57
f 90 46 45
f 90 45 89
f 91 68 75
f 91 83 68
f 92 74 65
f 92 65 79
f 87 60 81
f 93 75 55
f 93 55 71
f 94 62 76
f 94 78 62
f 95 85 69
f 95 69 83
f 96 79 73
f 96 73 86
f 97 82 77
f 98 77 78
f 98 97 77
f 99 57 56
f 89 57 100
f 99 100 57
f 82 101 81
f 97 102 82
f 82 102 101
f 103 84 74
f 103 74 92
f 104 67 84
f 104 80 67
f 105 76 85
f 105 94 76
f 106 86 72
f 106 72 88
f 107 79 96
f 107 92 79
f 108 87 81
f 109 88 87
f 109 87 108
f 108 81 101
f 110 91 75
f 110 75 93
f 111 85 95
f 111 105 85
f 112 96 86
f 112 86 106
f 113 95 83
f 113 83 91
f 114 78 94
f 114 98 78
f 115 84 103
f 115 104 84
f 116 102 97
f 102 117 101
f 102 118 117
f 116 118 102
f 119 107 96
f 119 96 112
f 120 92 107
f 120 103 92
f 121 106 88
f 121 88 109
f 122 94 105
f 122 114 94
f 123 71 46
f 123 46 90
f 124 111 95
f 124 95 113
f 125 97 98
f 125 116 97
f 126 108 101
f 126 101 117
f 127 113 91
f 127 91 110
f 128 105 111
f 128 122 105
f 129 112 106
f 129 106 121
f 130 56 80
f 130 99 56
f 131 107 119
f 131 120 107
f 132 103 120
f 132 115 103
f 133 109 108
f 133 108 126
f 134 119 112
f 134 112 129
f 135 98 114
f 135 125 98
f 118 126 117
f 118 116 126
f 136 111 124
f 136 128 111
f 137 124 113
f 137 113 127
f 90 89 100
f 138 121 109
f 138 109 133
f 139 93 71
f 139 71 123
f 140 131 119
f 140 119 134
f 141 120 131
f 141 132 120
f 142 114 122
f 142 135 114
f 90 100 99
f 116 133 126
f 116 125 133
f 143 80 104
f 143 130 80
f 144 136 124
f 144 124 137
f 145 129 121
f 145 121 138
f 146 110 93
f 146 93 139
f 147 122 128
f 147 142 122
f 148 128 136
f 148 147 128
f 149 131 140
f 149 141 131
f 125 138 133
f 125 135 138
f 150 104 115
f 150 143 104
f 151 134 129
f 151 129 145
f 152 140 134
f 152 134 151
f 153 136 144
f 153 148 136
f 154 127 110
f 154 110 146
f 155 137 127
f 155 127 154
f 156 144 137
f 156 137 155
f 157 149 140
f 157 140 152
f 135 145 138
f 135 142 145
f 158 115 132
f 158 150 115
f 159 132 141
f 159 158 132
f 160 153 144
f 160 144 156
f 161 141 149
f 161 159 141
f 162 161 149
f 162 149 157
f 123 90 99
f 153 160 162
f 160 156 161
f 160 161 162
f 142 147 151
f 142 151 145
f 148 153 157
f 153 162 157
f 156 155 159
f 156 159 161
f 147 148 152
f 147 152 151
f 155 158 159
f 155 154 158
f 148 157 152
f 123 99 130
f 154 150 158
f 154 146 150
f 146 143 150
f 146 139 143
f 139 123 130
f 139 130 143
