# 
# Wavefront OBJ file
# Created with Kaydara FBX
# 
mtllib c:\users\tjvan\onedrive\documenten\fontys\minor\nx\.mtlmodels\infrapatellar_fat_pad.r.obj

g Infrapatellar_fat_pad_r
v -0.075737 0.441308 -0.026051
v -0.075722 0.441260 -0.026010
v -0.075747 0.441358 -0.026066
v -0.101413 0.432831 -0.004037
v -0.101351 0.433581 -0.006457
v -0.101417 0.432412 -0.006144
v -0.101338 0.430908 -0.005794
v -0.101092 0.432964 -0.008436
v -0.101172 0.431810 -0.008048
v -0.101364 0.433995 -0.004280
v -0.101114 0.434234 -0.002333
v -0.101331 0.431300 -0.003760
v -0.101011 0.431513 -0.001821
v -0.101120 0.433073 -0.002106
v -0.101254 0.434451 -0.006702
v -0.101292 0.434863 -0.004453
v -0.101085 0.429386 -0.003540
v -0.101080 0.430343 -0.007602
v -0.101116 0.429035 -0.005449
v -0.100871 0.428531 -0.007073
v -0.101144 0.435577 -0.004588
v -0.101057 0.435085 -0.002465
v -0.101051 0.435154 -0.006897
v -0.100948 0.433793 -0.008750
v -0.100727 0.434445 -0.009006
v -0.100765 0.431160 -0.009486
v -0.100942 0.435762 -0.002558
v -0.100806 0.435722 -0.007055
v -0.100764 0.436316 -0.002628
v -0.100950 0.436150 -0.004689
v -0.100773 0.427012 -0.005098
v -0.100658 0.433247 -0.000672
v -0.100642 0.435221 -0.000943
v -0.100681 0.434392 -0.000848
v -0.100673 0.429550 -0.001634
v -0.100730 0.427292 -0.003444
v -0.100274 0.427397 -0.001605
v -0.100698 0.429758 -0.008917
v -0.100533 0.433063 -0.010261
v -0.100690 0.432265 -0.009928
v -0.100449 0.434968 -0.009188
v -0.100028 0.429744 -0.000129
v -0.100495 0.431699 -0.000398
v -0.100280 0.433650 -0.010493
v -0.100536 0.435860 -0.001003
v -0.100449 0.436098 -0.007152
v -0.100556 0.436491 -0.004743
v -0.100571 0.426600 -0.006431
v -0.100522 0.428031 -0.008148
v -0.100280 0.426203 -0.007224
v -0.100293 0.425064 -0.003292
v -0.100178 0.424443 -0.005652
v -0.100331 0.424805 -0.004627
v -0.100288 0.429277 -0.009758
v -0.100189 0.431622 -0.010941
v -0.100300 0.430621 -0.010451
v -0.100292 0.436539 -0.002680
v -0.100361 0.436348 -0.001058
v -0.099901 0.436469 -0.001147
v -0.099842 0.425225 -0.001608
v -0.099439 0.427521 0.000073
v -0.100026 0.432395 -0.011296
v -0.100182 0.433399 0.000296
v -0.100199 0.434500 0.000179
v -0.099985 0.435911 0.000099
v -0.100114 0.435301 0.000122
v -0.100018 0.436304 -0.004726
v -0.099802 0.436314 0.000053
v -0.099992 0.425843 -0.007824
v -0.100196 0.427616 -0.008841
v -0.099985 0.431929 0.000536
v -0.099435 0.430072 0.000840
v -0.100077 0.435321 -0.009299
v -0.099980 0.434122 -0.010682
v -0.099677 0.434510 -0.010826
v -0.099571 0.435364 -0.009253
v -0.099936 0.436008 -0.007106
v -0.099756 0.422652 -0.002959
v -0.099809 0.422388 -0.004081
v -0.099951 0.424133 -0.006276
v -0.099841 0.430156 -0.011144
v -0.099820 0.427263 -0.009400
v -0.099900 0.428897 -0.010356
v -0.099774 0.432973 -0.011492
v -0.099480 0.433445 -0.011609
v -0.099775 0.436308 -0.002710
v -0.099676 0.422112 -0.004879
v -0.099667 0.431080 -0.011618
v -0.099703 0.434567 0.000829
v -0.099498 0.432178 0.001156
v -0.099703 0.433544 0.000933
v -0.099403 0.435898 0.000798
v -0.099563 0.435327 0.000796
v -0.099162 0.434617 -0.010710
v -0.099224 0.432422 -0.012102
v -0.099458 0.431813 -0.011923
v -0.099373 0.435736 -0.006957
v -0.099149 0.436005 -0.002759
v -0.099418 0.436010 -0.004691
v -0.099699 0.423847 -0.006817
v -0.099653 0.425513 -0.008362
v -0.099404 0.423577 -0.007296
v -0.098920 0.430438 0.001458
v -0.099165 0.433839 -0.011701
v -0.099336 0.436245 0.000751
v -0.099465 0.421887 -0.005453
v -0.099361 0.429727 -0.011650
v -0.099464 0.428558 -0.010889
v -0.099419 0.436299 -0.000065
v -0.099373 0.436222 -0.001261
v -0.098928 0.436079 -0.000264
v -0.099325 0.422897 -0.001552
v -0.098880 0.425319 0.000076
v -0.098347 0.423095 -0.000005
v -0.099146 0.430573 -0.012113
v -0.099300 0.425188 -0.008817
v -0.099401 0.426941 -0.009939
v -0.099023 0.419981 -0.003434
v -0.098892 0.419770 -0.004145
v -0.098962 0.432925 -0.012189
v -0.098532 0.420523 -0.001309
v -0.098971 0.420239 -0.002469
v -0.099222 0.421679 -0.005950
v -0.099221 0.433685 0.001303
v -0.099017 0.432428 0.001522
v -0.099056 0.435317 0.001123
v -0.099205 0.434608 0.001190
v -0.098693 0.419619 -0.004680
v -0.098760 0.434044 -0.011613
v -0.099122 0.423366 -0.007663
v -0.098856 0.435859 0.001016
v -0.099044 0.435134 -0.009059
v -0.098585 0.434488 -0.010446
v -0.098458 0.430796 0.001831
v -0.098670 0.433326 -0.012224
v -0.098450 0.419491 -0.005144
v -0.098933 0.426715 -0.010335
v -0.098925 0.428294 -0.011247
v -0.098895 0.431288 -0.012376
v -0.098605 0.427878 0.001198
v -0.097669 0.425611 0.001369
v -0.098731 0.435452 -0.006801
v -0.098706 0.435697 -0.004642
v -0.099008 0.436125 0.000657
v -0.098937 0.421480 -0.006418
v -0.098535 0.421390 -0.006741
v -0.098793 0.425025 -0.009027
v -0.098755 0.435919 -0.001394
v -0.098788 0.429296 -0.012024
v -0.097635 0.420792 0.000017
v -0.098639 0.431928 -0.012513
v -0.098715 0.433827 0.001465
v -0.098525 0.432689 0.001670
v -0.098607 0.435282 0.001278
v -0.098713 0.434633 0.001341
v -0.098209 0.430771 -0.012672
v -0.098484 0.430045 -0.012438
v -0.097959 0.435566 -0.001556
v -0.098386 0.435671 -0.002799
v -0.098617 0.423426 -0.007619
v -0.098417 0.434893 -0.008777
v -0.097972 0.434301 -0.010123
v -0.097891 0.417907 -0.001818
v -0.097998 0.417664 -0.002690
v -0.098580 0.435933 0.000376
v -0.097465 0.418204 -0.000838
v -0.098382 0.432466 -0.012558
v -0.098147 0.419392 -0.005577
v -0.098121 0.428343 -0.011081
v -0.098189 0.426837 -0.010185
v -0.097819 0.429102 -0.011870
v -0.097984 0.428333 0.001846
v -0.098366 0.435812 -0.000496
v -0.098072 0.435707 0.000062
v -0.097879 0.417509 -0.003384
v -0.097927 0.431443 -0.012768
v -0.096937 0.423337 0.001305
v -0.098499 0.435717 0.001222
v -0.098365 0.435784 0.000746
v -0.098163 0.435636 0.001023
v -0.097916 0.423621 -0.007420
v -0.098158 0.425193 -0.008873
v -0.098334 0.433636 -0.012233
v -0.098219 0.434027 -0.011263
v -0.097889 0.433707 -0.011869
v -0.097699 0.435312 -0.004586
v -0.097841 0.435111 -0.006612
v -0.098198 0.433969 0.001426
v -0.098180 0.435232 0.001201
v -0.098224 0.434663 0.001300
v -0.097276 0.435248 -0.002857
v -0.097676 0.417416 -0.003918
v -0.098119 0.432906 -0.012520
v -0.097684 0.432034 -0.012747
v -0.098084 0.421552 -0.006600
v -0.097374 0.421791 -0.006401
v -0.096786 0.426139 0.002141
v -0.097858 0.435595 0.000434
v -0.097777 0.419418 -0.005795
v -0.097990 0.431161 0.002000
v -0.098021 0.432962 0.001607
v -0.097499 0.431516 0.001922
v -0.097493 0.429592 -0.012500
v -0.097148 0.417361 -0.004763
v -0.097439 0.417371 -0.004359
v -0.097488 0.428826 0.002259
v -0.097037 0.429331 0.002488
v -0.097208 0.434103 -0.009810
v -0.097613 0.434618 -0.008459
v -0.097468 0.432545 -0.012680
v -0.097719 0.435404 0.000760
v -0.097614 0.435481 -0.000777
v -0.097835 0.433254 -0.012445
v -0.097603 0.433479 -0.012271
v -0.097203 0.430271 -0.012666
v -0.097626 0.433896 -0.010936
v -0.097326 0.433593 -0.011589
v -0.097719 0.434619 0.001140
v -0.097012 0.425482 -0.008651
v -0.097071 0.427011 -0.009864
v -0.097552 0.433218 0.001404
v -0.097712 0.434073 0.001266
v -0.097700 0.435074 0.000992
v -0.096675 0.423932 -0.007277
v -0.096805 0.417465 -0.004952
v -0.096807 0.428347 -0.010716
v -0.097271 0.432985 -0.012550
v -0.097296 0.419647 -0.005667
v -0.096618 0.419930 -0.005538
v -0.097345 0.435406 -0.000260
v -0.096776 0.415493 -0.001978
v -0.096696 0.415381 -0.002654
v -0.096168 0.426751 0.002613
v -0.096513 0.435072 -0.001117
v -0.096855 0.435149 -0.001781
v -0.096959 0.430958 -0.012707
v -0.096615 0.415727 -0.001162
v -0.096494 0.415357 -0.003203
v -0.096969 0.435079 0.000518
v -0.097121 0.435303 0.000159
v -0.096199 0.434844 -0.004577
v -0.096312 0.434272 -0.008248
v -0.096409 0.434674 -0.006463
v -0.096068 0.429306 -0.011943
v -0.096444 0.428918 -0.011392
v -0.096356 0.417750 -0.004819
v -0.097004 0.434307 0.000907
v -0.097138 0.433271 0.001209
v -0.097107 0.433869 0.001058
v -0.096944 0.434719 0.000749
v -0.096766 0.431602 -0.012698
v -0.096642 0.418540 0.000254
v -0.096205 0.421092 0.001249
v -0.095213 0.418957 0.001348
v -0.096687 0.433437 -0.011409
v -0.096924 0.433726 -0.010679
v -0.096071 0.433835 -0.009581
v -0.096229 0.435002 -0.000599
v -0.097142 0.433338 -0.012206
v -0.097007 0.431846 0.001631
v -0.095688 0.427400 0.002925
v -0.095831 0.429909 -0.012110
v -0.096562 0.429803 0.002421
v -0.096072 0.430205 0.002061
v -0.095353 0.416451 0.000563
v -0.096163 0.416047 -0.000290
v -0.096621 0.432191 -0.012632
v -0.096228 0.415400 -0.003629
v -0.096025 0.422167 -0.006229
v -0.095705 0.418125 -0.004667
v -0.096528 0.432731 -0.012486
v -0.095790 0.434799 -0.003017
v -0.095663 0.430564 -0.012174
v -0.095936 0.415469 -0.004015
v -0.096153 0.432756 0.000873
v -0.096543 0.432191 0.001261
v -0.096527 0.433177 -0.012081
v -0.095840 0.434548 0.000183
v -0.095989 0.434867 -0.000151
v -0.095884 0.433405 0.000567
v -0.095478 0.427243 -0.009464
v -0.095250 0.428257 -0.010148
v -0.095239 0.428056 0.002958
v -0.095411 0.425929 -0.008461
v -0.095537 0.431220 -0.012221
v -0.095633 0.423866 0.002267
v -0.094615 0.421675 0.002315
v -0.095808 0.434029 0.000377
v -0.095706 0.433256 -0.011196
v -0.095872 0.433512 -0.010476
v -0.095409 0.434739 -0.002125
v -0.095595 0.415635 -0.004230
v -0.095347 0.413549 -0.001336
v -0.095152 0.413759 -0.000597
v -0.095458 0.431857 -0.012230
v -0.095339 0.413455 -0.001997
v -0.095514 0.432981 -0.011829
v -0.094148 0.422738 -0.006280
v -0.094932 0.424415 -0.007379
v -0.094063 0.416933 0.001521
v -0.094685 0.414087 0.000170
v -0.095297 0.420395 -0.005400
v -0.095438 0.432460 -0.012149
v -0.094765 0.428654 0.002599
v -0.094937 0.431262 0.000908
v -0.095524 0.430613 0.001526
v -0.095082 0.434699 -0.001515
v -0.094935 0.413558 -0.002980
v -0.095183 0.413473 -0.002540
v -0.094877 0.428802 -0.010688
v -0.094726 0.433996 -0.008223
v -0.094703 0.434356 -0.006474
v -0.095214 0.415942 -0.004114
v -0.094660 0.413668 -0.003376
v -0.094553 0.434396 -0.000557
v -0.094791 0.434627 -0.000998
v -0.093450 0.419620 0.002399
v -0.094063 0.434491 -0.003382
v -0.094461 0.434485 -0.004678
v -0.093924 0.414526 0.000914
v -0.094735 0.424658 0.002845
v -0.094534 0.429114 -0.011097
v -0.094441 0.433352 -0.010213
v -0.094582 0.433629 -0.009429
v -0.093324 0.421068 -0.005334
v -0.094450 0.433951 -0.000287
v -0.094311 0.413887 -0.003599
v -0.094435 0.433258 -0.000092
v -0.094534 0.432256 0.000287
v -0.094276 0.433100 -0.010880
v -0.094312 0.429635 -0.011283
v -0.093723 0.434495 -0.002614
v -0.094534 0.418702 -0.004546
v -0.094658 0.416355 -0.003978
v -0.093658 0.417005 -0.003834
v -0.094099 0.425523 0.003175
v -0.094174 0.430258 -0.011405
v -0.093276 0.422626 0.002980
v -0.093956 0.414218 -0.003505
v -0.094084 0.430925 -0.011520
v -0.094246 0.429162 0.001898
v -0.094031 0.432228 -0.011613
v -0.094098 0.432786 -0.011424
v -0.094199 0.426245 -0.008247
v -0.093864 0.427041 -0.008806
v -0.094034 0.431595 -0.011607
v -0.093438 0.434498 -0.002030
v -0.093944 0.411665 -0.001371
v -0.093892 0.411753 -0.000750
v -0.092617 0.419476 -0.004460
v -0.093215 0.428396 -0.009689
v -0.093541 0.427845 -0.009239
v -0.093631 0.426403 0.003334
v -0.093475 0.414647 -0.003393
v -0.093807 0.411723 -0.001890
v -0.093654 0.411950 -0.000090
v -0.093177 0.434397 -0.001534
v -0.093631 0.411825 -0.002333
v -0.093402 0.425199 -0.007447
v -0.092420 0.423610 -0.006402
v -0.092970 0.431381 0.000005
v -0.093549 0.430033 0.000968
v -0.092919 0.428750 -0.010089
v -0.092964 0.434045 -0.001153
v -0.092795 0.427960 0.002283
v -0.093216 0.427293 0.003058
v -0.092394 0.423685 0.003356
v -0.092934 0.434221 -0.006612
v -0.092881 0.433540 -0.009216
v -0.092987 0.433852 -0.008215
v -0.092634 0.434401 -0.004940
v -0.093197 0.412276 0.000591
v -0.093353 0.411989 -0.002718
v -0.092649 0.415309 -0.003253
v -0.092768 0.433284 -0.009922
v -0.091953 0.417923 -0.003702
v -0.092691 0.429292 -0.010374
v -0.092268 0.434454 -0.003908
v -0.092899 0.432655 -0.000665
v -0.092887 0.433464 -0.000933
v -0.093047 0.412217 -0.002961
v -0.092565 0.429965 -0.010591
v -0.092516 0.432657 -0.010965
v -0.092642 0.433039 -0.010521
v -0.092396 0.426055 -0.007853
v -0.092494 0.430688 -0.010802
v -0.091847 0.424840 0.003563
v -0.092466 0.432077 -0.011064
v -0.092463 0.431414 -0.010972
v -0.092784 0.415094 0.001746
v -0.092182 0.417630 0.002558
v -0.091039 0.415850 0.002678
v -0.092690 0.412590 -0.002913
v -0.092469 0.410201 -0.000326
v -0.092506 0.410174 -0.001354
v -0.092544 0.410148 -0.000872
v -0.092477 0.412732 0.001262
v -0.091472 0.413294 0.001977
v -0.092221 0.410372 0.000263
v -0.092359 0.410286 -0.001771
v -0.091974 0.434494 -0.003232
v -0.091775 0.410669 0.000863
v -0.092149 0.410441 -0.002155
v -0.091514 0.427555 -0.008477
v -0.091884 0.426841 -0.008139
v -0.092023 0.428971 0.001071
v -0.092228 0.413054 -0.002839
v -0.091785 0.420560 0.003138
v -0.090177 0.418492 0.003339
v -0.091703 0.434534 -0.002677
v -0.091873 0.410678 -0.002376
v -0.091275 0.421917 -0.005211
v -0.091468 0.426050 0.003472
v -0.091112 0.411072 0.001490
v -0.091464 0.434313 -0.002214
v -0.091500 0.411073 -0.002364
v -0.091160 0.433736 -0.008193
v -0.091092 0.433498 -0.009104
v -0.091267 0.432184 -0.001250
v -0.091279 0.430711 -0.000335
v -0.091325 0.433820 -0.001927
v -0.091113 0.434002 -0.006821
v -0.091203 0.428175 -0.008964
v -0.091278 0.433119 -0.001675
v -0.090545 0.428125 0.001204
v -0.091140 0.427005 0.002702
v -0.089839 0.414017 0.002810
v -0.090973 0.433063 -0.010300
v -0.091037 0.433301 -0.009753
v -0.091008 0.411592 -0.002288
v -0.090988 0.428900 -0.009469
v -0.091518 0.413703 -0.002724
v -0.091176 0.416283 -0.003078
v -0.090276 0.414671 -0.002554
v -0.090902 0.432606 -0.010590
v -0.090810 0.434162 -0.005420
v -0.090525 0.420366 -0.004171
v -0.090880 0.429721 -0.009865
v -0.091320 0.408869 -0.001038
v -0.091266 0.408907 -0.000102
v -0.091334 0.408861 -0.000580
v -0.090841 0.430546 -0.010197
v -0.090158 0.411580 0.002159
v -0.090842 0.431319 -0.010442
v -0.090861 0.432005 -0.010588
v -0.091072 0.424578 -0.006698
v -0.089489 0.422898 -0.005085
v -0.090491 0.421696 0.003615
v -0.091180 0.408971 -0.001453
v -0.090197 0.434383 -0.003941
v -0.090465 0.434274 -0.004555
v -0.091096 0.409025 0.000430
v -0.090362 0.412235 -0.002189
v -0.088885 0.416639 0.003470
v -0.090994 0.409081 -0.001848
v -0.089956 0.434397 -0.003422
v -0.089852 0.418952 -0.003427
v -0.090316 0.425530 -0.007040
v -0.090731 0.409317 -0.001978
v -0.089427 0.424892 0.003808
v -0.089743 0.423367 0.003827
v -0.087893 0.419539 0.003857
v -0.090701 0.409306 0.000976
v -0.089768 0.434144 -0.003044
v -0.089279 0.413165 -0.002073
v -0.089341 0.427478 -0.008033
v -0.089774 0.426499 -0.007381
v -0.090394 0.409702 -0.001780
v -0.089675 0.433571 -0.002786
v -0.090388 0.407776 -0.000273
v -0.090293 0.407778 -0.001233
v -0.090392 0.407748 -0.000774
v -0.089614 0.432790 -0.002429
v -0.090099 0.408077 0.000604
v -0.090287 0.407885 0.000199
v -0.089135 0.421162 -0.003951
v -0.089559 0.431679 -0.001781
v -0.089652 0.430010 -0.000575
v -0.089165 0.428478 -0.008818
v -0.090003 0.407963 -0.001597
v -0.088517 0.415726 -0.002346
v -0.089226 0.417328 -0.002857
v -0.089249 0.433543 -0.007069
v -0.089341 0.433414 -0.008226
v -0.088954 0.427351 0.001461
v -0.089255 0.426243 0.003084
v -0.090048 0.409713 0.001598
v -0.088959 0.433759 -0.006002
v -0.090039 0.408434 0.000979
v -0.089354 0.433233 -0.009756
v -0.089345 0.433335 -0.009112
v -0.088554 0.424366 -0.005857
v -0.089349 0.432989 -0.010229
v -0.089905 0.410266 -0.001586
v -0.089714 0.408310 -0.001649
v -0.089164 0.429491 -0.009401
v -0.089295 0.431904 -0.010291
v -0.089328 0.432504 -0.010349
v -0.089206 0.430409 -0.009833
v -0.089254 0.431206 -0.010126
v -0.088669 0.434004 -0.005246
v -0.089383 0.408769 -0.001590
v -0.087444 0.420170 -0.003257
v -0.088428 0.434242 -0.004679
v -0.089306 0.406973 -0.000085
v -0.089397 0.406822 -0.000707
v -0.089297 0.407548 0.000755
v -0.089270 0.407214 0.000373
v -0.088947 0.409421 -0.001368
v -0.089250 0.410942 -0.001557
v -0.087836 0.425679 -0.006516
v -0.089106 0.410138 0.002211
v -0.088671 0.412139 0.002896
v -0.087717 0.410437 0.002799
v -0.089322 0.407945 0.001091
v -0.089450 0.408628 0.001432
v -0.088535 0.408976 0.002031
v -0.089093 0.407286 -0.000919
v -0.088211 0.434284 -0.004192
v -0.088338 0.410124 -0.001250
v -0.087706 0.414574 0.003537
v -0.086598 0.412436 0.003494
v -0.087320 0.426983 -0.007448
v -0.088091 0.433918 -0.003885
v -0.087106 0.424069 0.003885
v -0.087325 0.422118 0.003977
v -0.088695 0.408248 -0.001203
v -0.088902 0.407753 -0.001054
v -0.088001 0.433330 -0.003579
v -0.087747 0.431087 -0.002072
v -0.088135 0.429210 -0.000422
v -0.087887 0.432465 -0.003082
v -0.086918 0.422184 -0.004273
v -0.088354 0.408194 0.001735
v -0.088060 0.406903 0.000695
v -0.087904 0.407095 0.000010
v -0.087962 0.406806 0.000302
v -0.087776 0.432871 -0.009886
v -0.087813 0.432334 -0.010331
v -0.087818 0.432728 -0.010250
v -0.087687 0.432792 -0.009271
v -0.087563 0.432688 -0.008459
v -0.088263 0.407659 0.001422
v -0.087774 0.431758 -0.010264
v -0.088176 0.407248 0.001083
v -0.088287 0.411868 -0.001599
v -0.087732 0.414260 -0.001904
v -0.086981 0.413018 -0.001485
v -0.087465 0.411009 -0.001297
v -0.087108 0.426895 0.001904
v -0.087150 0.425723 0.003438
v -0.087601 0.430253 -0.009757
v -0.087707 0.431063 -0.010081
v -0.087390 0.432766 -0.007528
v -0.086371 0.416636 -0.002137
v -0.086869 0.418249 -0.002618
v -0.087438 0.429290 -0.009261
v -0.087250 0.428164 -0.008522
v -0.088106 0.408932 -0.001324
v -0.086784 0.409401 -0.001355
v -0.086932 0.433497 -0.005941
v -0.087161 0.433088 -0.006654
v -0.087829 0.407495 -0.000372
v -0.086453 0.416960 0.003919
v -0.085190 0.414681 0.003898
v -0.087489 0.408591 -0.001131
v -0.087724 0.408054 -0.000804
v -0.085765 0.410508 0.003283
v -0.085554 0.425291 -0.005976
v -0.086200 0.423715 -0.005202
v -0.087231 0.409194 0.002550
v -0.086553 0.433894 -0.004904
v -0.086726 0.433812 -0.005366
v -0.087032 0.408365 0.002267
v -0.086574 0.412039 -0.001234
v -0.086909 0.407787 0.001975
v -0.086429 0.433629 -0.004536
v -0.086696 0.406935 0.001318
v -0.086807 0.407301 0.001670
v -0.086636 0.428539 -0.000064
v -0.086335 0.433084 -0.004152
v -0.086592 0.406661 0.000980
v -0.086220 0.432223 -0.003518
v -0.086432 0.406972 0.000604
v -0.086309 0.407359 0.000146
v -0.084590 0.421594 0.004089
v -0.083453 0.416824 0.004099
v -0.084321 0.419179 0.004129
v -0.086088 0.430548 -0.002096
v -0.086326 0.432197 -0.010585
v -0.086342 0.432562 -0.010538
v -0.086144 0.430922 -0.010299
v -0.086261 0.431612 -0.010500
v -0.086135 0.432559 -0.009715
v -0.086283 0.432664 -0.010262
v -0.086191 0.407809 -0.000449
v -0.085503 0.413603 -0.001292
v -0.085870 0.415163 -0.001613
v -0.084085 0.412402 0.003669
v -0.085956 0.430122 -0.009955
v -0.085931 0.432406 -0.008985
v -0.085697 0.432425 -0.008165
v -0.086308 0.408536 -0.001034
v -0.086058 0.410359 -0.001229
v -0.083939 0.422136 -0.004067
v -0.084224 0.420390 -0.003349
v -0.085655 0.429187 -0.009422
v -0.084681 0.423793 0.003896
v -0.085239 0.428110 -0.008515
v -0.085101 0.426812 -0.007133
v -0.085123 0.408398 0.002709
v -0.085341 0.409218 0.002995
v -0.085454 0.432676 -0.007360
v -0.085109 0.426931 0.002182
v -0.084884 0.425616 0.003501
v -0.085047 0.433439 -0.006037
v -0.085231 0.433066 -0.006643
v -0.084962 0.407780 0.002415
v -0.083996 0.417194 -0.001841
v -0.084179 0.418803 -0.002510
v -0.084838 0.407258 0.002082
v -0.084147 0.409184 -0.001140
v -0.083963 0.410186 -0.001138
v -0.084909 0.433626 -0.005522
v -0.084737 0.406826 0.001694
v -0.084660 0.430352 -0.002015
v -0.085014 0.428326 0.000184
v -0.084652 0.406475 0.001295
v -0.083268 0.410441 0.003301
v -0.085523 0.411953 -0.001033
v -0.082362 0.414455 0.003907
v -0.084523 0.406675 0.000857
v -0.084817 0.433518 -0.005057
v -0.084878 0.432582 -0.011029
v -0.084687 0.431508 -0.010908
v -0.084805 0.432087 -0.011011
v -0.084754 0.433034 -0.004538
v -0.084252 0.407649 -0.000101
v -0.084392 0.407148 0.000437
v -0.084139 0.408316 -0.000741
v -0.084862 0.432871 -0.010860
v -0.084510 0.430850 -0.010707
v -0.084699 0.432127 -0.003779
v -0.083006 0.425318 -0.005637
v -0.083475 0.423706 -0.004847
v -0.084690 0.432902 -0.010388
v -0.083904 0.411784 -0.000976
v -0.083784 0.429268 -0.009810
v -0.084230 0.430110 -0.010367
v -0.084424 0.432817 -0.009725
v -0.083832 0.413669 -0.001180
v -0.083845 0.415494 -0.001429
v -0.083832 0.433008 -0.008142
v -0.084121 0.432808 -0.008944
v -0.083121 0.428276 -0.008756
v -0.083588 0.433358 -0.007394
v -0.082870 0.409209 0.002956
v -0.083398 0.433712 -0.006729
v -0.082517 0.407855 0.002355
v -0.082661 0.408466 0.002653
v -0.082492 0.426930 -0.007025
v -0.083213 0.428613 0.000176
v -0.083109 0.427263 0.002174
v -0.083195 0.433802 -0.005558
v -0.083268 0.433910 -0.006135
v -0.082789 0.425777 0.003381
v -0.083398 0.432992 -0.011529
v -0.083127 0.432059 -0.011474
v -0.083318 0.432561 -0.011590
v -0.083256 0.433247 -0.011134
v -0.082317 0.406905 0.001697
v -0.082406 0.407342 0.002033
v -0.083163 0.433298 -0.004899
v -0.082934 0.431496 -0.011366
v -0.083142 0.432270 -0.003923
v -0.082246 0.406563 0.001311
v -0.082090 0.421570 0.004109
v -0.082461 0.423835 0.003874
v -0.083141 0.430486 -0.002051
v -0.082975 0.433347 -0.010568
v -0.082189 0.406663 0.000955
v -0.081580 0.419199 0.004143
v -0.082408 0.430225 -0.010796
v -0.082719 0.430881 -0.011188
v -0.082154 0.407116 0.000561
v -0.082144 0.407596 0.000071
v -0.081445 0.420661 -0.003359
v -0.081131 0.422353 -0.004005
v -0.081708 0.417244 -0.002051
v -0.081625 0.418974 -0.002670
v -0.082114 0.408247 -0.000371
v -0.082099 0.409124 -0.000678
v -0.082614 0.433436 -0.009839
v -0.081321 0.412239 0.003475
v -0.082106 0.410163 -0.000896
v -0.082107 0.411693 -0.000971
v -0.081824 0.415434 -0.001521
v -0.082007 0.413576 -0.001213
v -0.081955 0.433865 -0.008144
v -0.082255 0.433598 -0.008982
v -0.081965 0.429482 -0.010129
v -0.080596 0.425426 -0.005468
v -0.080818 0.423929 -0.004729
v -0.080867 0.416854 0.003988
v -0.081653 0.432575 -0.012218
v -0.081863 0.433004 -0.012234
v -0.081578 0.434416 -0.006705
v -0.081722 0.434184 -0.007390
v -0.081304 0.432138 -0.011979
v -0.080120 0.409294 0.002524
v -0.080552 0.410440 0.002931
v -0.081510 0.434352 -0.006016
v -0.081806 0.433337 -0.011905
v -0.081556 0.430882 -0.002159
v -0.081216 0.427715 0.002010
v -0.081476 0.429114 0.000018
v -0.081501 0.433850 -0.005229
v -0.081533 0.432678 -0.004016
v -0.080917 0.427674 -0.007744
v -0.081407 0.428633 -0.009011
v -0.081195 0.433585 -0.010638
v -0.081554 0.433474 -0.011365
v -0.080724 0.431044 -0.011611
v -0.080966 0.431627 -0.011795
v -0.080803 0.426075 0.003229
v -0.080443 0.430420 -0.011154
v -0.079895 0.408565 0.002190
v -0.079627 0.407525 0.001539
v -0.079750 0.408016 0.001876
v -0.080412 0.426574 -0.006356
v -0.080411 0.424069 0.003779
v -0.078620 0.412594 0.002952
v -0.079768 0.414625 0.003599
v -0.079552 0.407098 0.001179
v -0.079524 0.406734 0.000804
v -0.080352 0.433904 -0.008779
v -0.080774 0.433710 -0.009740
v -0.079645 0.407049 -0.000006
v -0.079558 0.406720 0.000374
v -0.079710 0.407582 -0.000364
v -0.079860 0.408247 -0.000643
v -0.080013 0.409116 -0.000876
v -0.080295 0.411614 -0.001173
v -0.080136 0.410141 -0.000857
v -0.080168 0.413367 -0.001463
v -0.079935 0.421840 0.004005
v -0.079851 0.415204 -0.001805
v -0.080050 0.429731 -0.010392
v -0.080477 0.433462 -0.012759
v -0.080344 0.432989 -0.013009
v -0.079746 0.434565 -0.007098
v -0.079983 0.434207 -0.007875
v -0.079319 0.418875 -0.003039
v -0.079586 0.417052 -0.002429
v -0.079909 0.432499 -0.012918
v -0.078966 0.420712 -0.003679
v -0.078503 0.417408 0.003757
v -0.079308 0.419567 0.003995
v -0.079971 0.431426 -0.002309
v -0.080324 0.433704 -0.012234
v -0.079873 0.433279 -0.004131
v -0.079669 0.434477 -0.005466
v -0.079650 0.434744 -0.006370
v -0.079808 0.429696 -0.000203
v -0.078591 0.422502 -0.004315
v -0.079554 0.428988 -0.009258
v -0.078900 0.431827 -0.012250
v -0.079470 0.432217 -0.012566
v -0.078891 0.426553 0.002992
v -0.079415 0.428218 0.001770
v -0.079599 0.433912 -0.010605
v -0.080012 0.433822 -0.011506
v -0.080088 0.427185 -0.007046
v -0.078702 0.427456 -0.007224
v -0.079123 0.428200 -0.008106
v -0.078390 0.424109 -0.005003
v -0.078403 0.430559 -0.011345
v -0.078628 0.431232 -0.011891
v -0.078554 0.426696 -0.006413
v -0.078437 0.425616 -0.005691
v -0.077873 0.411025 0.002344
v -0.078850 0.433001 -0.013802
v -0.079233 0.434022 -0.013237
v -0.079183 0.433576 -0.013678
v -0.077847 0.422411 0.003737
v -0.078408 0.424536 0.003560
v -0.078119 0.432381 -0.013617
v -0.079115 0.433993 -0.009622
v -0.078994 0.411684 -0.001336
v -0.078517 0.412998 -0.001676
v -0.077753 0.409881 -0.001095
v -0.078331 0.410764 -0.001129
v -0.077117 0.409356 0.001435
v -0.077431 0.410052 0.001835
v -0.077644 0.429177 -0.009456
v -0.078078 0.429861 -0.010521
v -0.079056 0.434250 -0.012550
v -0.078220 0.434653 -0.007901
v -0.078616 0.434200 -0.008680
v -0.078207 0.434310 -0.004184
v -0.078193 0.430328 -0.000415
v -0.078428 0.432184 -0.002367
v -0.078102 0.432199 -0.013082
v -0.077560 0.435237 -0.006048
v -0.077069 0.408470 -0.001008
v -0.077381 0.409136 -0.001060
v -0.077681 0.416808 -0.002711
v -0.078070 0.414858 -0.002095
v -0.077465 0.415461 0.003251
v -0.076911 0.408831 0.001077
v -0.076804 0.407899 -0.000810
v -0.076557 0.407547 -0.000396
v -0.077935 0.435107 -0.007158
v -0.076644 0.408018 0.000320
v -0.076753 0.408385 0.000714
v -0.078210 0.434405 -0.010955
v -0.078696 0.434355 -0.011777
v -0.077318 0.418721 -0.003309
v -0.076578 0.407707 -0.000100
v -0.076989 0.431889 -0.012775
v -0.077668 0.428862 0.001489
v -0.076835 0.420636 -0.003932
v -0.077121 0.420292 0.003680
v -0.078168 0.433787 -0.014556
v -0.078216 0.434695 -0.013793
v -0.078288 0.434286 -0.014259
v -0.077790 0.433278 -0.014597
v -0.077213 0.428523 -0.008426
v -0.077065 0.412448 -0.001548
v -0.076426 0.425208 0.003243
v -0.077017 0.427177 0.002691
v -0.076861 0.427773 -0.007565
v -0.077985 0.434990 -0.013266
v -0.075486 0.412265 0.001738
v -0.076304 0.413626 0.002480
v -0.076477 0.430450 -0.011254
v -0.076717 0.431133 -0.012008
v -0.077671 0.434587 -0.010110
v -0.077144 0.434932 -0.009405
v -0.076253 0.424184 -0.005442
v -0.076383 0.422560 -0.004685
v -0.076381 0.425776 -0.006079
v -0.076603 0.426933 -0.006759
v -0.075148 0.416528 0.002765
v -0.076218 0.418328 0.003353
v -0.076956 0.433225 -0.002193
v -0.075928 0.411700 -0.001389
v -0.077726 0.434670 -0.015650
v -0.077583 0.434160 -0.015825
v -0.076708 0.435164 -0.003860
v -0.077616 0.435209 -0.012694
v -0.077145 0.435424 -0.012111
v -0.077412 0.435528 -0.014948
v -0.077650 0.435134 -0.015347
v -0.076032 0.429559 0.001163
v -0.076679 0.431035 -0.000533
v -0.077178 0.432847 -0.014448
v -0.076126 0.432583 -0.014257
v -0.076634 0.432089 -0.013530
v -0.075949 0.416560 -0.002608
v -0.076421 0.414511 -0.001986
v -0.076136 0.429794 -0.010406
v -0.076618 0.435317 -0.008815
v -0.074970 0.421251 0.003278
v -0.075765 0.423205 0.003416
v -0.077135 0.433744 -0.015808
v -0.076539 0.433450 -0.015670
v -0.076404 0.435116 -0.017333
v -0.075412 0.418508 -0.003272
v -0.075163 0.428621 -0.008654
v -0.075676 0.429208 -0.009496
v -0.076353 0.435293 -0.017208
v -0.077094 0.435845 -0.014553
v -0.076168 0.434850 -0.017341
v -0.076375 0.435019 -0.017355
v -0.076004 0.435665 -0.005381
v -0.075795 0.435458 -0.008201
v -0.074906 0.435475 -0.006739
v -0.075001 0.411475 0.001265
v -0.075964 0.435815 -0.016793
v -0.076200 0.435541 -0.017010
v -0.074773 0.410442 -0.001132
v -0.075266 0.411022 -0.001269
v -0.074824 0.427885 -0.007873
v -0.076609 0.435626 -0.011604
v -0.076039 0.435778 -0.011235
v -0.076707 0.436085 -0.014182
v -0.076266 0.436225 -0.013863
v -0.074364 0.410451 0.000407
v -0.074639 0.410905 0.000835
v -0.075180 0.427954 0.002307
v -0.074814 0.430757 -0.011723
v -0.074774 0.431801 -0.013240
v -0.074905 0.431328 -0.012483
v -0.075338 0.433973 -0.001932
v -0.074563 0.426986 -0.007110
v -0.074337 0.422480 -0.004709
v -0.074833 0.420491 -0.003906
v -0.074027 0.409604 -0.000923
v -0.074369 0.409974 -0.001006
v -0.074157 0.410074 0.000038
v -0.075060 0.435446 -0.003403
v -0.075843 0.435908 -0.016585
v -0.075152 0.431843 -0.000551
v -0.073882 0.409509 -0.000700
v -0.073998 0.409763 -0.000332
v -0.074377 0.432432 -0.014162
v -0.075782 0.436260 -0.013644
v -0.075784 0.434626 -0.017320
v -0.075762 0.433235 -0.015580
v -0.075281 0.434448 -0.017337
v -0.074304 0.429628 -0.010208
v -0.074617 0.430184 -0.010963
v -0.074872 0.413939 -0.001847
v -0.074150 0.416110 -0.002401
v -0.073709 0.424167 0.002997
v -0.074465 0.426074 0.002867
v -0.076042 0.435513 -0.019188
v -0.076043 0.435896 -0.019060
v -0.076071 0.435682 -0.019161
v -0.074200 0.424163 -0.005640
v -0.074333 0.425776 -0.006403
v -0.075887 0.435329 -0.019190
v -0.074051 0.414932 0.001958
v -0.075876 0.435933 -0.016345
v -0.075765 0.435962 -0.016173
v -0.073989 0.419421 0.002862
v -0.075923 0.436126 -0.018933
v -0.075583 0.435091 -0.019212
v -0.073835 0.429127 -0.009513
v -0.076152 0.437977 -0.022123
v -0.076084 0.436990 -0.020553
v -0.076144 0.438050 -0.022091
v -0.076093 0.438947 -0.023290
v -0.076083 0.437927 -0.022152
v -0.076118 0.438888 -0.023312
v -0.076094 0.436811 -0.020599
v -0.076011 0.437193 -0.020482
v -0.076090 0.438167 -0.022016
v -0.076053 0.439013 -0.023236
v -0.076105 0.438812 -0.023337
v -0.076021 0.439942 -0.024457
v -0.076017 0.439958 -0.024420
v -0.075944 0.437862 -0.022210
v -0.076006 0.438780 -0.023366
v -0.075974 0.439915 -0.024438
v -0.076064 0.436678 -0.020645
v -0.075945 0.436564 -0.020690
v -0.076006 0.439058 -0.023156
v -0.076009 0.438257 -0.021898
v -0.075993 0.439977 -0.024355
v -0.073431 0.428857 0.001853
v -0.074421 0.430399 0.000814
v -0.075383 0.435741 -0.011055
v -0.075963 0.439986 -0.024283
v -0.074427 0.435699 -0.004736
v -0.075891 0.437387 -0.020391
v -0.075743 0.436388 -0.018798
v -0.075973 0.439057 -0.023071
v -0.075815 0.437445 -0.020293
v -0.075955 0.438265 -0.021767
v -0.075747 0.437824 -0.022272
v -0.075908 0.439904 -0.024465
v -0.075863 0.438774 -0.023396
v -0.075942 0.439969 -0.024216
v -0.075976 0.440857 -0.025394
v -0.075978 0.440977 -0.025578
v -0.075961 0.440806 -0.025275
v -0.075942 0.440779 -0.025186
v -0.073759 0.413253 -0.001606
v -0.075663 0.436497 -0.018671
v -0.075717 0.436434 -0.018504
v -0.075711 0.436459 -0.020747
v -0.075956 0.438212 -0.021640
v -0.075942 0.438173 -0.021544
v -0.075956 0.438970 -0.022938
v -0.075846 0.437353 -0.020183
v -0.075930 0.438935 -0.022928
v -0.075862 0.438149 -0.021519
v -0.075836 0.437296 -0.020085
v -0.075726 0.437267 -0.019996
v -0.075959 0.439015 -0.022990
v -0.075879 0.438903 -0.022947
v -0.075901 0.439823 -0.024123
v -0.075861 0.439829 -0.024166
v -0.075760 0.438120 -0.021533
v -0.075829 0.438867 -0.022995
v -0.075937 0.439832 -0.024104
v -0.075955 0.439847 -0.024085
v -0.075948 0.439890 -0.024110
v -0.075878 0.440695 -0.025118
v -0.075843 0.440737 -0.025204
v -0.075910 0.440681 -0.025074
v -0.075941 0.440661 -0.025048
v -0.075936 0.440681 -0.025042
v -0.075956 0.441084 -0.025728
v -0.075907 0.441068 -0.025756
v -0.075819 0.439897 -0.024498
v -0.075920 0.440759 -0.025109
v -0.075883 0.441220 -0.025699
v -0.075909 0.441205 -0.025673
v -0.075853 0.441218 -0.025718
v -0.075914 0.441154 -0.025596
v -0.075819 0.441219 -0.025750
v -0.075896 0.441248 -0.025689
v -0.075907 0.441288 -0.025759
v -0.075924 0.441293 -0.025799
v -0.075930 0.441335 -0.025881
v -0.075932 0.441361 -0.025946
v -0.075920 0.441394 -0.026011
v -0.075881 0.441395 -0.026049
v -0.075839 0.441063 -0.025783
v -0.075896 0.441338 -0.025830
v -0.075882 0.441346 -0.025866
v -0.075899 0.441380 -0.025885
v -0.075894 0.441390 -0.025932
v -0.075854 0.441341 -0.025886
v -0.075878 0.441388 -0.025967
v -0.075845 0.441381 -0.025995
v -0.075824 0.441393 -0.026070
v -0.075804 0.441379 -0.026020
v -0.075821 0.441335 -0.025909
v -0.074437 0.434964 -0.009055
v -0.073701 0.434505 -0.007792
v -0.075227 0.436128 -0.013587
v -0.075689 0.436440 -0.018348
v -0.075536 0.436429 -0.018283
v -0.075582 0.437221 -0.020015
v -0.075699 0.438783 -0.023431
v -0.075514 0.437809 -0.022343
v -0.075781 0.438834 -0.023058
v -0.075820 0.439846 -0.024232
v -0.075655 0.438083 -0.021581
v -0.075784 0.439863 -0.024310
v -0.075742 0.438804 -0.023131
v -0.075562 0.438035 -0.021659
v -0.075809 0.440816 -0.025338
v -0.075782 0.440903 -0.025485
v -0.075763 0.440966 -0.025608
v -0.075758 0.439870 -0.024393
v -0.075716 0.439893 -0.024532
v -0.075788 0.441225 -0.025793
v -0.075762 0.441232 -0.025843
v -0.075746 0.441241 -0.025895
v -0.075759 0.441065 -0.025810
v -0.075788 0.441332 -0.025937
v -0.075761 0.441332 -0.025972
v -0.075770 0.441376 -0.026048
v -0.075767 0.441397 -0.026094
v -0.074744 0.433121 -0.015710
v -0.075503 0.435904 -0.016150
v -0.075715 0.438774 -0.023212
v -0.075490 0.437979 -0.021764
v -0.075740 0.439864 -0.024477
v -0.075753 0.441004 -0.025705
v -0.075751 0.441006 -0.025765
v -0.075726 0.439840 -0.024550
v -0.075693 0.438745 -0.023303
v -0.075740 0.440933 -0.025722
v -0.075737 0.441308 -0.026051
v -0.075722 0.441260 -0.026010
v -0.075715 0.439790 -0.024595
v -0.075702 0.440800 -0.025564
v -0.075739 0.441245 -0.025933
v -0.075739 0.441289 -0.026006
v -0.075695 0.440988 -0.025746
v -0.075632 0.439876 -0.024559
v -0.075746 0.441329 -0.026008
v -0.075747 0.441358 -0.026066
v -0.075458 0.436439 -0.020797
v -0.075300 0.436357 -0.018370
v -0.075442 0.437917 -0.021893
v -0.075667 0.438718 -0.023401
v -0.075416 0.437854 -0.022040
v -0.075562 0.438791 -0.023469
v -0.075298 0.437808 -0.022412
v -0.075649 0.439799 -0.024571
v -0.075628 0.438694 -0.023493
v -0.073083 0.428571 -0.008896
v -0.075435 0.437159 -0.020109
v -0.075308 0.437078 -0.020236
v -0.075405 0.437798 -0.022196
v -0.075553 0.438717 -0.023530
v -0.075393 0.437761 -0.022337
v -0.075227 0.434984 -0.019281
v -0.075049 0.436267 -0.018585
v -0.075214 0.436977 -0.020373
v -0.075358 0.437752 -0.022438
v -0.075143 0.436443 -0.020848
v -0.075105 0.435759 -0.016337
v -0.074546 0.435769 -0.013768
v -0.072781 0.413180 0.000737
v -0.073259 0.413828 0.001243
v -0.075120 0.436732 -0.020624
v -0.075154 0.436859 -0.020505
v -0.072829 0.420193 -0.003781
v -0.073477 0.418162 -0.003078
v -0.075105 0.436612 -0.020721
v -0.074573 0.435412 -0.011353
v -0.075096 0.436512 -0.020791
v -0.075046 0.436440 -0.020861
v -0.073343 0.432585 -0.000711
v -0.073267 0.435158 -0.003059
v -0.073509 0.434130 -0.001824
v -0.074837 0.436147 -0.018819
v -0.074795 0.434941 -0.019367
v -0.074676 0.434326 -0.017467
v -0.074577 0.435806 -0.019192
v -0.074680 0.435992 -0.019027
v -0.071806 0.416329 0.001314
v -0.072866 0.417718 0.002172
v -0.074421 0.434947 -0.019413
v -0.074497 0.435384 -0.019357
v -0.074522 0.435597 -0.019306
v -0.074690 0.435617 -0.016820
v -0.074467 0.435209 -0.019351
v -0.072780 0.435427 -0.004283
v -0.074342 0.435413 -0.017255
v -0.071831 0.420600 0.002307
v -0.072842 0.422342 0.002796
v -0.073094 0.430964 -0.012169
v -0.073615 0.435362 -0.005886
v -0.072320 0.422165 -0.004779
v -0.072482 0.426813 -0.007394
v -0.072722 0.427787 -0.008150
v -0.072893 0.429942 -0.010741
v -0.073043 0.430461 -0.011454
v -0.074083 0.435165 -0.017599
v -0.072527 0.412169 -0.001399
v -0.073058 0.412658 -0.001473
v -0.072976 0.431436 -0.012862
v -0.074109 0.434300 -0.017612
v -0.073949 0.433132 -0.016024
v -0.074058 0.435520 -0.014867
v -0.073661 0.435138 -0.015571
v -0.072414 0.412695 0.000294
v -0.074072 0.435282 -0.013014
v -0.073412 0.434384 -0.010175
v -0.073893 0.434974 -0.011708
v -0.073837 0.434577 -0.017981
v -0.073914 0.434885 -0.017845
v -0.073884 0.434206 -0.017742
v -0.073856 0.434274 -0.017975
v -0.072596 0.427038 0.002365
v -0.072388 0.433818 -0.009230
v -0.072748 0.431289 0.000399
v -0.072198 0.435263 -0.005402
v -0.072064 0.411764 -0.001346
v -0.071970 0.411984 -0.000516
v -0.072154 0.412300 -0.000131
v -0.073434 0.432732 -0.014716
v -0.072289 0.432287 -0.014044
v -0.072677 0.431906 -0.013513
v -0.072272 0.425559 -0.006658
v -0.072526 0.429047 -0.009572
v -0.072696 0.429440 -0.010072
v -0.072150 0.423938 -0.005870
v -0.072660 0.415476 -0.002067
v -0.071773 0.417635 -0.002721
v -0.073246 0.433200 -0.016355
v -0.073107 0.434386 -0.016423
v -0.073343 0.434754 -0.016075
v -0.073690 0.435024 -0.013593
v -0.073252 0.434579 -0.012419
v -0.071807 0.411698 -0.000891
v -0.071739 0.411528 -0.001150
v -0.072894 0.433581 -0.016600
v -0.071162 0.428573 -0.009243
v -0.072957 0.434008 -0.016612
v -0.071680 0.414854 -0.001916
v -0.070798 0.423504 0.002272
v -0.071750 0.425231 0.002482
v -0.072580 0.434320 -0.007008
v -0.071112 0.433865 -0.008613
v -0.073260 0.434693 -0.014198
v -0.072702 0.434239 -0.013132
v -0.072883 0.434354 -0.014720
v -0.071378 0.434577 -0.006500
v -0.071585 0.434353 -0.001822
v -0.070992 0.419685 -0.003659
v -0.071768 0.429819 0.001340
v -0.070820 0.428098 0.001817
v -0.072814 0.432900 -0.015197
v -0.072522 0.434096 -0.011363
v -0.070985 0.432211 0.000047
v -0.071461 0.433336 -0.000883
v -0.071122 0.415468 0.000613
v -0.072451 0.433254 -0.015463
v -0.071098 0.435517 -0.004056
v -0.071403 0.435093 -0.002934
v -0.072599 0.434015 -0.015135
v -0.071283 0.430271 -0.011273
v -0.071218 0.431214 -0.012598
v -0.071305 0.430755 -0.011939
v -0.070704 0.427631 -0.008405
v -0.071027 0.414361 -0.001853
v -0.071035 0.431651 -0.013221
v -0.072438 0.433657 -0.015407
v -0.071107 0.429198 -0.009946
v -0.071203 0.429755 -0.010609
v -0.072277 0.433948 -0.013732
v -0.071956 0.433686 -0.014231
v -0.070648 0.418983 0.001525
v -0.071677 0.433076 -0.014839
v -0.071918 0.432649 -0.014555
v -0.070360 0.414466 -0.000387
v -0.070673 0.414901 0.000091
v -0.070744 0.435436 -0.005110
v -0.070458 0.426577 -0.007603
v -0.071841 0.433890 -0.012306
v -0.070820 0.432063 -0.013780
v -0.070464 0.417002 -0.002530
v -0.071322 0.433833 -0.010665
v -0.070537 0.433857 -0.011718
v -0.071741 0.433407 -0.014620
v -0.070147 0.423670 -0.005808
v -0.070369 0.421735 -0.004715
v -0.070262 0.425287 -0.006775
v -0.071361 0.433714 -0.013011
v -0.070148 0.414119 -0.000809
v -0.070096 0.413667 -0.001802
v -0.070518 0.413979 -0.001815
v -0.069910 0.413604 -0.001600
v -0.070015 0.413845 -0.001233
v -0.070707 0.433343 -0.014116
v -0.070993 0.433552 -0.013606
v -0.070560 0.433035 -0.014485
v -0.070635 0.432512 -0.014272
v -0.069724 0.421850 0.001738
v -0.068533 0.420368 0.000872
v -0.070008 0.433832 -0.012491
v -0.068977 0.417062 -0.000178
v -0.069612 0.417779 0.000581
v -0.070151 0.430803 0.000821
v -0.069868 0.426382 0.001940
v -0.069470 0.434028 -0.001075
v -0.069471 0.435453 -0.002847
v -0.069538 0.434852 -0.001900
v -0.069299 0.435727 -0.003915
v -0.069969 0.434156 -0.007954
v -0.070249 0.434867 -0.006067
v -0.069176 0.434405 -0.007176
v -0.069752 0.434045 -0.010066
v -0.069500 0.430682 -0.011764
v -0.069498 0.429698 -0.010610
v -0.069525 0.430209 -0.011178
v -0.069365 0.431137 -0.012368
v -0.069379 0.429127 -0.010062
v -0.068841 0.428432 -0.009502
v -0.068216 0.434186 -0.009280
v -0.069068 0.416089 -0.002513
v -0.069682 0.416496 -0.002521
v -0.069194 0.431582 -0.012987
v -0.069457 0.419083 -0.003541
v -0.068717 0.421159 -0.004735
v -0.068523 0.431768 0.000336
v -0.069197 0.433082 -0.000264
v -0.069593 0.433739 -0.013180
v -0.069192 0.429180 0.001274
v -0.068138 0.427561 0.001397
v -0.068972 0.432519 -0.014036
v -0.069052 0.432013 -0.013584
v -0.068833 0.424732 0.001735
v -0.067684 0.423208 0.001165
v -0.068865 0.435042 -0.005716
v -0.069118 0.435675 -0.004861
v -0.068488 0.426358 -0.007778
v -0.068677 0.427472 -0.008629
v -0.069015 0.433110 -0.014147
v -0.069243 0.433511 -0.013749
v -0.068584 0.416559 -0.000742
v -0.068763 0.434084 -0.011166
v -0.068573 0.415761 -0.002532
v -0.068477 0.418633 -0.003431
v -0.068164 0.415856 -0.001692
v -0.068357 0.416183 -0.001253
v -0.068349 0.423222 -0.005925
v -0.068352 0.424997 -0.006905
v -0.068451 0.434616 -0.006641
v -0.068106 0.415610 -0.002184
v -0.067671 0.433712 -0.012604
v -0.068142 0.433942 -0.011960
v -0.068252 0.415544 -0.002569
v -0.067733 0.418253 -0.003376
v -0.067504 0.419347 -0.000113
v -0.067452 0.435326 -0.001920
v -0.067405 0.435680 -0.002805
v -0.067822 0.429731 -0.010677
v -0.067780 0.430661 -0.011599
v -0.067809 0.430226 -0.011124
v -0.067405 0.434626 -0.001229
v -0.067538 0.420797 -0.004533
v -0.067810 0.429173 -0.010296
v -0.067471 0.431080 -0.012091
v -0.067070 0.435766 -0.004882
v -0.067241 0.435846 -0.003857
v -0.067272 0.433419 -0.013142
v -0.067652 0.430298 0.000728
v -0.066936 0.431979 -0.013186
v -0.067144 0.431529 -0.012645
v -0.066769 0.432717 -0.000073
v -0.067217 0.433823 -0.000614
v -0.067261 0.434192 -0.008232
v -0.066863 0.432482 -0.013531
v -0.066971 0.433033 -0.013547
v -0.066530 0.418343 -0.001642
v -0.066840 0.418740 -0.000980
v -0.066898 0.435136 -0.005824
v -0.066985 0.426053 0.001175
v -0.066666 0.427271 -0.008774
v -0.067825 0.428711 -0.010008
v -0.066536 0.428456 -0.010075
v -0.066753 0.428079 -0.009558
v -0.066802 0.434109 -0.010391
v -0.066579 0.426154 -0.007907
v -0.066731 0.417695 -0.003525
v -0.067151 0.417936 -0.003409
v -0.066459 0.421924 0.000283
v -0.065470 0.421082 -0.000785
v -0.066860 0.434440 -0.007050
v -0.066411 0.418050 -0.002210
v -0.066592 0.424714 -0.006971
v -0.066900 0.422841 -0.005843
v -0.066445 0.417676 -0.003201
v -0.065523 0.433844 -0.009193
v -0.066414 0.417856 -0.002731
v -0.066555 0.428810 0.000846
v -0.065327 0.427479 0.000607
v -0.065983 0.433793 -0.011164
v -0.067251 0.428966 -0.010332
v -0.067326 0.428783 -0.010231
v -0.066092 0.429809 -0.010769
v -0.066072 0.429295 -0.010551
v -0.066505 0.430626 -0.011450
v -0.066223 0.430289 -0.011109
v -0.065825 0.430896 -0.011708
v -0.066613 0.420410 -0.004556
v -0.065934 0.420112 -0.004624
v -0.065728 0.424705 0.000605
v -0.064495 0.423665 -0.000350
v -0.064791 0.433217 -0.012337
v -0.065311 0.433527 -0.011826
v -0.066107 0.431438 0.000261
v -0.065168 0.430167 0.000369
v -0.065801 0.422371 -0.005986
v -0.065173 0.431295 -0.012132
v -0.065274 0.435007 -0.001531
v -0.065384 0.435483 -0.002180
v -0.065325 0.435800 -0.003953
v -0.065365 0.435901 -0.002859
v -0.066030 0.428931 -0.010502
v -0.066207 0.428666 -0.010369
v -0.064563 0.432747 -0.012675
v -0.064786 0.433358 -0.000571
v -0.065117 0.434303 -0.001038
v -0.065418 0.419903 -0.004627
v -0.065007 0.434848 -0.006229
v -0.065166 0.435568 -0.005116
v -0.064501 0.432223 -0.012863
v -0.064749 0.431717 -0.012587
v -0.064978 0.434179 -0.007672
v -0.064868 0.420602 -0.001865
v -0.064867 0.427160 -0.008923
v -0.065281 0.428304 -0.010182
v -0.065002 0.427944 -0.009737
v -0.065108 0.422093 -0.006034
v -0.065142 0.424351 -0.007061
v -0.064905 0.425967 -0.008016
v -0.064789 0.420163 -0.003377
v -0.064712 0.420330 -0.002747
v -0.064856 0.430470 -0.011209
v -0.064916 0.420054 -0.003863
v -0.065094 0.419937 -0.004303
v -0.064792 0.428457 -0.010432
v -0.064129 0.431292 -0.000094
v -0.064359 0.432280 -0.000300
v -0.064329 0.429247 -0.010607
v -0.064456 0.429903 -0.010817
v -0.064457 0.428773 -0.010582
v -0.064401 0.433626 -0.009873
v -0.064027 0.426432 -0.000040
v -0.063691 0.434022 -0.008148
v -0.063251 0.422649 -0.002881
v -0.063594 0.422991 -0.001573
v -0.064617 0.422020 -0.005881
v -0.064232 0.422104 -0.005514
v -0.064078 0.435607 -0.003085
v -0.063682 0.435277 -0.002710
v -0.063962 0.429153 0.000039
v -0.062702 0.428389 -0.000712
v -0.063843 0.435515 -0.003901
v -0.062686 0.433157 -0.010851
v -0.063446 0.433419 -0.010463
v -0.063861 0.428031 -0.010027
v -0.063313 0.434388 -0.001720
v -0.063511 0.434928 -0.002237
v -0.063793 0.430801 -0.011446
v -0.063158 0.431165 -0.011701
v -0.063688 0.434694 -0.006485
v -0.063812 0.435280 -0.005095
v -0.064377 0.424065 -0.007145
v -0.063845 0.425814 -0.008063
v -0.063880 0.424018 -0.006959
v -0.063599 0.427147 -0.009061
v -0.063881 0.422200 -0.005094
v -0.063356 0.422467 -0.003932
v -0.063611 0.422323 -0.004617
v -0.062317 0.432256 -0.011059
v -0.063048 0.433535 -0.001223
v -0.062832 0.425654 -0.001128
v -0.062234 0.425196 -0.002583
v -0.062753 0.431617 -0.011642
v -0.062830 0.429005 -0.010316
v -0.063235 0.428356 -0.010232
v -0.063147 0.430109 -0.010865
v -0.063226 0.425748 -0.007963
v -0.062851 0.432413 -0.000786
v -0.063128 0.424260 -0.006149
v -0.063476 0.424128 -0.006560
v -0.063062 0.430953 -0.000403
v -0.063053 0.435163 -0.003629
v -0.062791 0.424438 -0.005649
v -0.062854 0.425911 -0.007611
v -0.062636 0.434491 -0.006434
v -0.062819 0.434968 -0.004890
v -0.062417 0.430462 -0.010896
v -0.062738 0.433750 -0.008408
v -0.062439 0.424675 -0.004912
v -0.062904 0.427236 -0.009084
v -0.062583 0.434771 -0.003287
v -0.062495 0.426147 -0.007178
v -0.062066 0.433337 -0.008590
v -0.061782 0.433332 -0.002309
v -0.062173 0.434207 -0.002837
v -0.062151 0.424888 -0.003929
v -0.062110 0.430870 -0.010585
v -0.061572 0.432085 -0.001771
v -0.061842 0.430391 -0.001227
v -0.062136 0.434471 -0.004604
v -0.062542 0.427545 -0.008894
v -0.061644 0.427830 -0.001962
v -0.062210 0.427891 -0.008509
v -0.062197 0.429426 -0.009965
v -0.062160 0.426417 -0.006676
v -0.061096 0.429999 -0.002819
v -0.061901 0.433999 -0.006318
v -0.061924 0.428231 -0.008065
v -0.061501 0.427113 -0.005167
v -0.061826 0.426745 -0.006045
v -0.061907 0.429771 -0.009537
v -0.061832 0.431275 -0.009967
v -0.061602 0.432664 -0.008616
v -0.061366 0.431808 -0.008340
v -0.061234 0.427465 -0.003697
v -0.061594 0.433823 -0.004288
v -0.061151 0.432909 -0.003926
v -0.061386 0.433272 -0.006198
v -0.061628 0.430148 -0.008939
v -0.061644 0.428593 -0.007529
v -0.061262 0.430638 -0.007737
v -0.061283 0.429060 -0.006610
v -0.060925 0.431629 -0.003442
v -0.060909 0.429574 -0.004890
v -0.061061 0.432334 -0.006007
v -0.060918 0.431147 -0.005667
usemtl Infrapatellar_fat_pad_rMaterial0
f 1 2 3
usemtl Infrapatellar_fat_pad_rMaterial1
f 4 5 6
f 7 4 6
f 8 6 5
f 7 6 9
f 8 9 6
f 4 10 5
f 4 11 10
f 7 12 4
f 4 12 13
f 4 14 11
f 4 13 14
f 15 5 10
f 15 10 16
f 11 16 10
f 15 8 5
f 7 17 12
f 7 9 18
f 7 19 17
f 20 19 7
f 20 7 18
f 13 12 17
f 21 15 16
f 21 16 22
f 11 22 16
f 21 23 15
f 15 24 8
f 15 23 25
f 15 25 24
f 26 18 9
f 8 26 9
f 21 22 27
f 21 28 23
f 29 21 27
f 21 30 28
f 29 30 21
f 17 19 31
f 20 31 19
f 11 14 32
f 32 14 13
f 11 33 22
f 11 32 34
f 11 34 33
f 13 17 35
f 17 31 36
f 17 36 37
f 17 37 35
f 20 18 38
f 26 38 18
f 8 24 39
f 8 40 26
f 8 39 40
f 33 27 22
f 41 23 28
f 41 25 23
f 13 35 42
f 32 13 43
f 13 42 43
f 44 24 25
f 44 39 24
f 29 27 45
f 33 45 27
f 46 28 30
f 29 47 30
f 46 30 47
f 20 48 31
f 20 38 49
f 50 48 20
f 50 20 49
f 46 41 28
f 31 51 36
f 31 48 52
f 31 53 51
f 31 52 53
f 26 54 38
f 26 40 55
f 26 56 54
f 26 55 56
f 29 57 47
f 29 45 58
f 59 29 58
f 59 57 29
f 60 36 51
f 60 37 36
f 41 44 25
f 61 35 37
f 61 42 35
f 54 49 38
f 62 40 39
f 62 55 40
f 63 34 32
f 33 34 64
f 63 64 34
f 63 32 43
f 33 65 45
f 33 64 66
f 33 66 65
f 50 52 48
f 67 46 47
f 67 47 57
f 44 62 39
f 45 68 58
f 45 65 68
f 69 50 49
f 54 70 49
f 69 49 70
f 63 43 71
f 72 43 42
f 72 71 43
f 46 73 41
f 41 74 44
f 41 73 75
f 41 75 74
f 46 76 73
f 67 77 46
f 46 77 76
f 59 58 68
f 78 51 53
f 79 53 52
f 78 53 79
f 60 51 78
f 50 80 52
f 69 80 50
f 61 37 60
f 54 56 81
f 54 82 70
f 54 81 83
f 54 83 82
f 81 56 55
f 44 84 62
f 44 74 85
f 44 85 84
f 67 57 86
f 59 86 57
f 87 52 80
f 79 52 87
f 82 69 70
f 62 88 55
f 81 55 88
f 89 64 63
f 63 71 90
f 89 63 91
f 63 90 91
f 66 64 89
f 66 92 65
f 66 89 93
f 66 93 92
f 73 94 75
f 73 76 94
f 72 42 61
f 62 84 95
f 62 96 88
f 62 95 96
f 67 97 77
f 98 67 86
f 67 99 97
f 98 99 67
f 69 100 80
f 82 101 69
f 69 102 100
f 69 101 102
f 103 90 71
f 103 71 72
f 74 75 104
f 74 104 85
f 105 68 65
f 105 65 92
f 106 80 100
f 87 80 106
f 76 77 97
f 83 81 107
f 82 83 108
f 83 107 108
f 59 68 109
f 59 110 86
f 111 59 109
f 111 110 59
f 60 78 112
f 61 60 113
f 60 112 114
f 60 114 113
f 81 88 115
f 81 115 107
f 82 116 101
f 82 108 117
f 82 117 116
f 78 79 118
f 79 87 119
f 79 119 118
f 105 109 68
f 84 85 120
f 84 120 95
f 98 86 110
f 78 121 112
f 78 118 122
f 78 122 121
f 106 100 123
f 102 123 100
f 89 91 124
f 91 90 125
f 91 125 124
f 89 126 93
f 89 124 127
f 89 127 126
f 87 106 128
f 87 128 119
f 115 88 96
f 129 104 75
f 129 75 94
f 130 102 101
f 130 101 116
f 131 92 93
f 131 93 126
f 76 97 132
f 76 133 94
f 76 132 133
f 134 125 90
f 134 90 103
f 135 85 104
f 135 120 85
f 106 123 136
f 106 136 128
f 137 117 108
f 138 108 107
f 137 108 138
f 139 96 95
f 115 96 139
f 72 61 140
f 61 113 141
f 61 141 140
f 103 72 140
f 142 97 99
f 98 143 99
f 142 99 143
f 105 144 109
f 111 109 144
f 102 145 123
f 146 102 130
f 146 145 102
f 147 116 117
f 147 117 137
f 105 92 131
f 132 97 142
f 98 110 148
f 111 148 110
f 115 149 107
f 138 107 149
f 105 131 144
f 150 112 121
f 150 114 112
f 130 116 147
f 136 123 145
f 151 95 120
f 139 95 151
f 127 124 152
f 153 124 125
f 153 152 124
f 127 154 126
f 127 152 155
f 127 155 154
f 135 104 129
f 129 94 133
f 115 139 156
f 115 157 149
f 115 156 157
f 158 98 148
f 98 159 143
f 158 159 98
f 130 147 160
f 146 130 160
f 131 126 154
f 132 142 161
f 132 162 133
f 132 161 162
f 163 122 118
f 164 118 119
f 163 118 164
f 153 125 134
f 111 144 165
f 131 165 144
f 166 121 122
f 166 122 163
f 167 120 135
f 151 120 167
f 168 145 146
f 136 145 168
f 137 138 169
f 147 137 170
f 137 169 170
f 138 149 171
f 138 171 169
f 103 140 172
f 134 103 172
f 111 173 148
f 174 111 165
f 174 173 111
f 175 119 128
f 164 119 175
f 139 151 176
f 139 176 156
f 177 113 114
f 177 141 113
f 131 154 178
f 131 179 165
f 131 178 180
f 131 180 179
f 147 181 160
f 147 170 182
f 147 182 181
f 171 149 157
f 135 129 183
f 129 133 184
f 129 185 183
f 129 184 185
f 158 148 173
f 142 143 186
f 161 142 187
f 142 186 187
f 188 155 152
f 188 152 153
f 155 189 154
f 188 190 155
f 155 190 189
f 143 159 191
f 143 191 186
f 136 192 128
f 175 128 192
f 167 135 193
f 193 135 183
f 151 167 194
f 151 194 176
f 146 160 195
f 196 195 160
f 196 160 181
f 197 172 140
f 197 140 141
f 178 154 189
f 184 133 162
f 198 165 179
f 198 174 165
f 150 121 166
f 168 146 199
f 199 146 195
f 153 134 200
f 188 153 201
f 153 202 201
f 153 200 202
f 178 189 180
f 203 157 156
f 171 157 203
f 136 168 204
f 136 205 192
f 136 204 205
f 134 172 206
f 134 207 200
f 134 206 207
f 161 208 162
f 161 187 209
f 161 209 208
f 167 193 210
f 167 210 194
f 158 191 159
f 211 179 180
f 211 198 179
f 174 212 173
f 158 173 212
f 177 114 150
f 193 183 213
f 214 183 185
f 214 213 183
f 215 156 176
f 203 156 215
f 184 162 216
f 184 217 185
f 184 216 217
f 218 190 188
f 218 189 190
f 219 182 170
f 220 170 169
f 219 170 220
f 188 201 221
f 218 188 222
f 188 221 222
f 211 180 189
f 218 223 189
f 211 189 223
f 224 181 182
f 224 182 219
f 168 199 225
f 168 225 204
f 171 226 169
f 220 169 226
f 193 213 227
f 193 227 210
f 199 195 228
f 229 195 196
f 229 228 195
f 198 230 174
f 174 230 212
f 202 221 201
f 163 164 231
f 164 175 232
f 164 232 231
f 233 206 172
f 233 172 197
f 202 200 207
f 216 162 208
f 234 158 212
f 158 235 191
f 234 235 158
f 236 176 194
f 215 176 236
f 196 181 224
f 166 163 237
f 163 231 237
f 214 185 217
f 175 192 238
f 175 238 232
f 239 198 211
f 198 240 230
f 239 240 198
f 214 227 213
f 241 187 186
f 187 242 209
f 187 243 242
f 241 243 187
f 171 203 244
f 171 245 226
f 171 244 245
f 199 228 246
f 199 246 225
f 247 218 222
f 248 222 221
f 248 249 222
f 247 222 249
f 247 223 218
f 239 211 223
f 247 250 223
f 239 223 250
f 241 186 191
f 238 192 205
f 197 141 177
f 251 194 210
f 236 194 251
f 150 166 252
f 177 150 253
f 150 252 254
f 150 254 253
f 216 255 217
f 216 208 256
f 216 256 255
f 257 208 209
f 257 209 242
f 258 212 230
f 258 234 212
f 214 217 259
f 214 259 227
f 202 260 221
f 248 221 260
f 261 207 206
f 261 206 233
f 203 215 262
f 203 262 244
f 202 207 263
f 202 264 260
f 202 263 264
f 166 265 252
f 166 237 266
f 166 266 265
f 267 210 227
f 251 210 267
f 268 205 204
f 238 205 268
f 196 224 269
f 229 196 269
f 258 230 240
f 255 259 217
f 270 228 229
f 270 246 228
f 271 227 259
f 267 227 271
f 272 191 235
f 241 191 272
f 215 236 273
f 215 273 262
f 256 208 257
f 274 204 225
f 268 204 274
f 248 275 249
f 248 260 276
f 248 276 275
f 255 277 259
f 271 259 277
f 278 240 239
f 258 240 279
f 278 279 240
f 280 247 249
f 280 249 275
f 219 220 281
f 220 226 282
f 220 282 281
f 283 263 207
f 283 207 261
f 224 219 284
f 219 281 284
f 264 276 260
f 280 250 247
f 236 251 285
f 236 285 273
f 278 239 250
f 197 177 286
f 177 253 287
f 177 287 286
f 280 288 250
f 278 250 288
f 256 289 255
f 256 257 290
f 256 290 289
f 291 235 234
f 272 235 291
f 292 225 246
f 274 225 292
f 282 226 245
f 233 197 286
f 293 231 232
f 294 237 231
f 294 231 293
f 251 267 295
f 251 295 285
f 238 296 232
f 293 232 296
f 297 277 255
f 297 255 289
f 224 298 269
f 224 284 299
f 224 299 298
f 300 252 265
f 300 254 252
f 301 266 237
f 301 237 294
f 229 269 302
f 270 229 302
f 267 271 303
f 267 303 295
f 304 264 263
f 304 263 283
f 305 275 276
f 264 306 276
f 305 276 306
f 271 277 297
f 271 297 303
f 307 234 258
f 291 234 307
f 238 268 308
f 238 309 296
f 238 308 309
f 310 245 244
f 282 245 310
f 311 242 243
f 312 243 241
f 311 243 312
f 313 246 270
f 292 246 313
f 257 242 311
f 268 274 314
f 268 314 308
f 258 279 315
f 307 258 316
f 258 315 316
f 317 253 254
f 317 287 253
f 241 272 318
f 312 241 319
f 241 318 319
f 320 265 266
f 320 266 301
f 261 233 321
f 233 286 321
f 305 280 275
f 322 244 262
f 310 244 322
f 304 306 264
f 257 323 290
f 257 311 324
f 257 324 323
f 325 302 269
f 325 269 298
f 326 279 278
f 326 315 279
f 274 292 327
f 274 327 314
f 280 328 288
f 305 329 280
f 280 329 328
f 330 289 290
f 330 290 323
f 331 262 273
f 322 262 331
f 326 278 288
f 326 288 328
f 272 291 332
f 272 332 318
f 270 302 333
f 313 270 334
f 270 335 334
f 270 333 335
f 297 289 330
f 283 261 336
f 261 321 336
f 337 273 285
f 331 273 337
f 338 321 286
f 338 286 287
f 292 313 339
f 292 339 327
f 340 285 295
f 337 285 340
f 305 306 341
f 304 341 306
f 297 342 303
f 297 330 343
f 297 343 342
f 344 284 281
f 282 345 281
f 344 281 345
f 346 295 303
f 340 295 346
f 346 303 342
f 344 299 284
f 291 307 347
f 291 347 332
f 293 296 348
f 348 296 309
f 294 293 349
f 293 348 349
f 300 265 320
f 350 333 302
f 350 302 325
f 282 310 351
f 282 352 345
f 282 351 352
f 304 283 353
f 283 336 353
f 313 334 354
f 313 354 339
f 317 254 300
f 355 309 308
f 348 309 355
f 301 294 356
f 294 349 356
f 307 316 357
f 307 357 347
f 358 308 314
f 355 308 358
f 344 359 299
f 360 298 299
f 360 299 359
f 361 329 305
f 305 341 362
f 361 305 362
f 310 322 363
f 310 363 351
f 364 316 315
f 364 357 316
f 365 341 304
f 304 353 366
f 365 304 366
f 367 336 321
f 367 321 338
f 311 312 368
f 311 369 324
f 311 368 370
f 311 370 369
f 312 319 371
f 312 371 368
f 320 301 372
f 301 356 372
f 373 314 327
f 358 314 373
f 374 334 335
f 374 354 334
f 338 287 317
f 375 323 324
f 375 324 369
f 364 315 326
f 376 335 333
f 376 333 350
f 322 331 377
f 322 377 363
f 361 328 329
f 378 319 318
f 378 371 319
f 326 328 379
f 361 379 328
f 330 323 375
f 364 326 380
f 326 379 380
f 381 327 339
f 373 327 381
f 331 337 382
f 331 382 377
f 330 383 343
f 330 375 384
f 330 384 383
f 365 362 341
f 344 345 385
f 344 385 359
f 337 340 386
f 337 386 382
f 325 298 360
f 387 353 336
f 387 336 367
f 388 342 343
f 388 343 383
f 340 346 389
f 340 389 386
f 300 320 390
f 317 300 391
f 300 390 392
f 300 392 391
f 378 318 332
f 346 342 388
f 346 388 389
f 393 339 354
f 381 339 393
f 348 394 349
f 348 355 395
f 348 395 396
f 348 396 394
f 320 372 397
f 320 398 390
f 320 397 398
f 399 356 349
f 399 349 394
f 352 385 345
f 355 358 400
f 355 400 395
f 401 332 347
f 378 332 401
f 402 372 356
f 402 356 399
f 374 335 376
f 358 373 403
f 358 403 400
f 387 366 353
f 404 352 351
f 352 405 385
f 404 405 352
f 361 362 406
f 365 406 362
f 393 354 407
f 407 354 374
f 338 317 408
f 317 391 409
f 317 409 408
f 410 347 357
f 401 347 410
f 360 359 385
f 373 381 411
f 373 411 403
f 350 325 412
f 325 360 412
f 367 338 408
f 365 366 413
f 387 413 366
f 404 351 363
f 414 397 372
f 414 372 402
f 415 357 364
f 410 357 415
f 381 393 416
f 381 416 411
f 417 370 368
f 418 369 370
f 418 370 417
f 419 379 361
f 361 406 420
f 419 361 420
f 421 364 380
f 415 364 421
f 422 368 371
f 417 368 422
f 423 363 377
f 404 363 423
f 419 380 379
f 421 380 424
f 419 424 380
f 375 369 418
f 425 406 365
f 365 413 426
f 425 365 426
f 427 390 398
f 427 392 390
f 375 428 384
f 375 418 429
f 375 429 428
f 393 407 430
f 393 430 416
f 431 377 382
f 423 377 431
f 407 374 432
f 374 376 433
f 374 434 432
f 374 433 434
f 435 383 384
f 435 384 428
f 436 371 378
f 422 371 436
f 376 350 437
f 350 412 437
f 438 382 386
f 431 382 438
f 439 396 395
f 440 394 396
f 439 441 396
f 440 396 441
f 439 395 400
f 388 383 435
f 442 386 389
f 438 386 442
f 399 394 440
f 443 398 397
f 443 397 414
f 388 444 389
f 442 389 444
f 388 435 445
f 388 445 444
f 360 385 446
f 360 447 412
f 360 446 447
f 387 367 448
f 367 408 448
f 446 385 405
f 449 400 403
f 439 400 449
f 378 401 450
f 436 378 451
f 378 450 451
f 402 399 452
f 399 440 452
f 407 432 453
f 407 453 430
f 454 391 392
f 454 409 391
f 455 403 411
f 449 403 455
f 425 420 406
f 401 410 456
f 401 456 450
f 433 376 457
f 376 437 457
f 458 405 404
f 446 405 458
f 459 411 416
f 455 411 459
f 460 413 387
f 387 448 461
f 460 387 461
f 462 448 408
f 462 408 409
f 414 402 463
f 402 452 463
f 410 415 464
f 410 464 456
f 465 453 432
f 465 432 434
f 404 423 466
f 458 404 467
f 404 466 467
f 468 416 430
f 459 416 468
f 427 398 443
f 460 426 413
f 415 421 469
f 415 469 464
f 470 441 439
f 439 449 471
f 470 439 472
f 439 471 472
f 440 441 470
f 421 424 473
f 421 473 469
f 440 474 452
f 440 470 475
f 440 475 474
f 476 437 412
f 476 412 447
f 477 419 420
f 425 478 420
f 477 420 478
f 477 424 419
f 477 473 424
f 423 431 479
f 423 479 466
f 449 455 480
f 449 480 471
f 433 481 434
f 433 457 482
f 433 482 481
f 417 422 483
f 418 417 484
f 417 483 484
f 485 425 426
f 460 486 426
f 485 426 486
f 414 463 487
f 443 414 487
f 422 436 488
f 422 488 483
f 489 463 452
f 489 452 474
f 418 490 429
f 418 491 490
f 418 484 491
f 446 458 492
f 446 492 447
f 454 392 427
f 493 428 429
f 493 429 490
f 468 430 494
f 494 430 453
f 455 459 495
f 455 495 480
f 431 438 496
f 431 496 479
f 435 428 493
f 435 497 445
f 435 493 498
f 435 498 497
f 438 442 499
f 438 499 496
f 500 444 445
f 500 445 497
f 442 444 500
f 442 500 499
f 436 451 501
f 436 501 488
f 459 468 502
f 459 502 495
f 489 487 463
f 485 478 425
f 503 457 437
f 503 437 476
f 462 461 448
f 504 451 450
f 504 501 451
f 470 472 505
f 506 472 471
f 506 505 472
f 470 507 475
f 470 505 508
f 470 508 507
f 468 494 509
f 468 509 502
f 494 453 510
f 510 453 465
f 458 467 511
f 458 511 492
f 506 471 480
f 507 474 475
f 465 434 481
f 504 450 456
f 462 409 454
f 443 487 512
f 427 443 513
f 443 512 514
f 443 514 513
f 489 474 515
f 507 515 474
f 489 516 487
f 489 515 516
f 517 487 516
f 517 512 487
f 495 518 480
f 506 480 518
f 519 456 464
f 504 456 519
f 494 510 520
f 494 520 509
f 482 457 503
f 454 427 521
f 427 513 522
f 427 522 521
f 523 467 466
f 523 511 467
f 524 464 469
f 519 464 524
f 525 460 461
f 462 526 461
f 525 461 526
f 527 495 502
f 495 528 518
f 527 528 495
f 529 469 473
f 524 469 529
f 530 477 478
f 485 531 478
f 530 478 531
f 532 473 477
f 529 473 532
f 532 477 530
f 476 447 533
f 492 533 447
f 534 516 515
f 534 517 516
f 525 486 460
f 506 535 505
f 506 518 536
f 506 537 535
f 506 536 537
f 527 502 509
f 523 466 479
f 493 490 538
f 493 539 498
f 493 540 539
f 493 538 540
f 538 490 491
f 541 491 484
f 538 491 541
f 542 484 483
f 541 484 542
f 543 515 507
f 543 534 515
f 544 497 498
f 544 498 539
f 545 508 505
f 545 505 535
f 545 507 508
f 545 543 507
f 500 497 544
f 510 465 546
f 465 481 547
f 465 548 546
f 465 547 548
f 510 549 520
f 510 546 549
f 550 485 486
f 525 551 486
f 550 486 551
f 500 552 499
f 500 544 553
f 500 553 552
f 488 554 483
f 542 483 554
f 482 555 481
f 482 503 556
f 482 556 555
f 557 496 499
f 557 499 552
f 558 479 496
f 523 479 558
f 558 496 557
f 476 533 503
f 517 514 512
f 528 536 518
f 527 509 559
f 560 509 520
f 560 559 509
f 550 531 485
f 561 488 501
f 488 562 554
f 561 562 488
f 527 563 528
f 528 563 536
f 462 454 564
f 454 521 565
f 454 565 564
f 527 559 566
f 527 567 563
f 527 566 567
f 568 513 514
f 568 522 513
f 561 501 504
f 569 492 511
f 492 570 533
f 569 570 492
f 534 571 517
f 517 571 514
f 547 481 555
f 504 519 572
f 561 504 573
f 504 572 573
f 543 574 534
f 534 574 571
f 560 520 549
f 575 549 546
f 575 546 548
f 545 576 543
f 543 576 574
f 519 524 577
f 519 577 572
f 578 545 535
f 545 579 576
f 578 579 545
f 530 531 580
f 550 580 531
f 566 559 560
f 524 529 581
f 524 581 577
f 582 535 537
f 582 578 535
f 529 532 583
f 529 583 581
f 584 537 536
f 584 582 537
f 585 536 563
f 585 584 536
f 462 586 526
f 462 564 587
f 462 588 586
f 462 587 588
f 532 530 589
f 532 589 583
f 585 563 567
f 569 511 523
f 590 539 540
f 544 539 590
f 538 591 540
f 590 540 591
f 544 592 553
f 544 590 593
f 544 593 592
f 538 541 594
f 538 595 591
f 538 594 595
f 530 580 589
f 566 596 567
f 585 567 596
f 571 568 514
f 547 597 548
f 547 555 598
f 547 598 597
f 599 521 522
f 599 565 521
f 600 552 553
f 600 553 592
f 541 542 601
f 541 601 594
f 557 552 600
f 542 554 602
f 542 602 601
f 566 560 603
f 566 603 596
f 560 549 604
f 575 604 549
f 605 503 533
f 556 503 606
f 605 606 503
f 558 557 607
f 557 600 607
f 602 554 562
f 608 525 526
f 608 526 586
f 523 558 609
f 569 523 610
f 523 609 610
f 558 607 609
f 571 574 611
f 571 612 568
f 571 611 612
f 613 562 561
f 602 562 613
f 608 551 525
f 614 550 551
f 614 551 615
f 608 615 551
f 614 580 550
f 611 574 576
f 575 548 597
f 561 573 616
f 613 561 617
f 561 616 617
f 618 576 579
f 611 576 618
f 605 533 570
f 556 619 555
f 556 606 620
f 556 620 619
f 578 621 579
f 618 579 621
f 622 603 560
f 623 560 604
f 623 622 560
f 624 573 572
f 624 616 573
f 582 625 578
f 578 625 621
f 626 589 580
f 614 627 580
f 626 580 627
f 584 628 582
f 582 628 625
f 629 522 568
f 629 599 522
f 575 630 604
f 575 597 630
f 624 572 577
f 631 564 565
f 631 587 564
f 585 632 584
f 584 632 628
f 633 577 581
f 624 577 633
f 598 555 619
f 590 591 634
f 590 635 593
f 590 634 636
f 590 636 635
f 634 591 595
f 637 581 583
f 633 581 637
f 638 585 596
f 585 639 632
f 638 639 585
f 640 596 603
f 622 640 603
f 641 595 594
f 634 595 641
f 642 592 593
f 642 593 635
f 643 583 589
f 637 583 643
f 640 638 596
f 644 570 569
f 605 570 645
f 644 645 570
f 600 592 642
f 646 594 601
f 641 594 646
f 643 589 626
f 647 604 630
f 647 623 604
f 600 648 607
f 600 642 649
f 600 649 648
f 602 650 601
f 646 601 650
f 598 651 597
f 598 619 652
f 598 652 651
f 629 568 612
f 602 613 653
f 602 654 650
f 602 653 654
f 655 609 607
f 655 607 648
f 644 569 610
f 651 630 597
f 651 647 630
f 613 617 656
f 613 656 653
f 611 657 612
f 629 612 657
f 655 610 609
f 658 617 616
f 658 656 617
f 599 631 565
f 611 618 659
f 611 660 657
f 611 659 660
f 655 661 610
f 644 610 661
f 662 627 614
f 663 614 615
f 662 614 663
f 658 616 624
f 626 627 662
f 659 618 621
f 624 633 664
f 658 624 665
f 624 664 665
f 608 666 615
f 663 615 666
f 634 641 667
f 634 668 636
f 634 667 669
f 634 669 668
f 641 646 670
f 641 670 667
f 671 621 625
f 659 621 672
f 671 672 621
f 633 637 673
f 633 673 664
f 674 635 636
f 674 636 668
f 637 643 675
f 637 675 673
f 676 625 628
f 676 671 625
f 677 608 586
f 608 678 666
f 677 678 608
f 642 635 674
f 643 626 679
f 643 679 675
f 646 650 680
f 646 680 670
f 681 628 632
f 681 676 628
f 626 662 679
f 682 586 588
f 682 677 586
f 681 632 639
f 642 683 649
f 642 674 684
f 642 684 683
f 680 650 654
f 638 685 639
f 681 639 685
f 682 588 587
f 640 686 638
f 638 686 685
f 620 606 687
f 688 606 605
f 688 687 606
f 683 648 649
f 620 689 619
f 620 690 689
f 620 687 690
f 622 691 640
f 640 691 686
f 623 692 622
f 622 692 691
f 653 693 654
f 680 654 693
f 629 694 599
f 599 694 631
f 689 652 619
f 647 695 623
f 623 695 692
f 688 605 645
f 651 696 647
f 647 696 695
f 651 652 697
f 689 697 652
f 651 698 696
f 651 697 698
f 699 653 656
f 653 700 693
f 699 700 653
f 655 648 701
f 683 701 648
f 699 656 658
f 702 645 644
f 688 645 703
f 702 703 645
f 631 704 587
f 682 587 704
f 705 669 667
f 706 667 670
f 705 667 706
f 658 665 707
f 699 658 708
f 658 707 708
f 709 668 669
f 709 669 705
f 710 629 657
f 629 711 694
f 710 711 629
f 712 665 664
f 712 707 665
f 680 713 670
f 706 670 713
f 662 714 679
f 662 663 715
f 662 716 714
f 662 715 716
f 712 664 673
f 717 673 675
f 712 673 717
f 718 675 679
f 718 679 714
f 717 675 718
f 655 719 661
f 655 701 720
f 655 720 719
f 674 668 709
f 715 663 666
f 702 644 661
f 680 693 721
f 680 722 713
f 680 721 722
f 674 723 684
f 674 709 724
f 674 724 723
f 710 657 660
f 725 666 678
f 715 666 725
f 726 683 684
f 726 684 723
f 659 727 660
f 710 660 727
f 721 693 700
f 659 672 728
f 659 729 727
f 659 728 729
f 719 730 661
f 702 661 730
f 677 731 678
f 725 678 731
f 728 672 671
f 726 701 683
f 631 694 732
f 631 733 704
f 631 732 733
f 676 734 671
f 728 671 734
f 681 735 676
f 676 735 734
f 736 700 699
f 721 700 737
f 736 737 700
f 738 681 685
f 738 739 681
f 681 739 735
f 740 685 686
f 740 738 685
f 741 686 691
f 741 740 686
f 742 691 692
f 742 741 691
f 742 692 695
f 695 696 743
f 695 743 744
f 742 695 744
f 696 698 745
f 696 745 743
f 682 746 677
f 677 746 731
f 747 698 697
f 747 745 698
f 748 720 701
f 726 748 701
f 736 699 708
f 706 713 749
f 705 706 750
f 706 749 750
f 689 747 697
f 749 713 722
f 751 708 707
f 736 708 752
f 751 752 708
f 689 690 753
f 689 754 747
f 689 753 754
f 709 705 755
f 705 750 755
f 756 690 687
f 756 753 690
f 757 682 704
f 682 758 746
f 757 758 682
f 751 707 712
f 718 714 759
f 759 714 716
f 721 760 722
f 749 722 760
f 717 718 761
f 718 759 761
f 712 717 762
f 717 761 762
f 751 712 763
f 712 762 763
f 715 764 716
f 759 716 764
f 765 687 688
f 765 756 687
f 719 720 766
f 748 766 720
f 732 694 711
f 709 767 724
f 709 755 768
f 709 768 767
f 715 725 769
f 715 770 764
f 715 769 770
f 721 737 771
f 721 772 760
f 721 771 772
f 765 688 703
f 723 724 767
f 719 773 730
f 719 774 773
f 719 766 775
f 719 775 774
f 757 704 733
f 702 776 703
f 765 703 776
f 769 725 731
f 771 737 736
f 777 726 723
f 723 767 778
f 777 723 778
f 779 702 730
f 779 780 702
f 702 780 776
f 710 781 711
f 732 711 781
f 749 782 750
f 749 760 783
f 749 783 784
f 749 784 782
f 777 748 726
f 785 731 746
f 769 731 786
f 785 786 731
f 779 730 773
f 787 755 750
f 787 750 782
f 788 736 752
f 771 736 788
f 783 760 772
f 789 743 745
f 789 744 743
f 747 790 745
f 789 745 790
f 791 742 744
f 789 792 744
f 791 744 792
f 793 710 727
f 710 794 781
f 793 794 710
f 779 773 774
f 748 795 766
f 777 796 748
f 748 796 795
f 791 741 742
f 771 797 772
f 783 772 797
f 798 752 751
f 788 752 799
f 798 799 752
f 759 800 761
f 759 764 801
f 759 802 800
f 759 801 802
f 785 746 758
f 803 768 755
f 803 755 787
f 793 727 729
f 804 762 761
f 804 761 800
f 741 805 740
f 791 806 741
f 741 806 805
f 747 754 807
f 747 808 790
f 747 807 808
f 801 764 770
f 732 809 733
f 757 733 809
f 728 810 729
f 793 729 810
f 798 751 763
f 740 811 738
f 740 805 811
f 804 763 762
f 738 812 739
f 738 811 812
f 798 763 813
f 804 813 763
f 728 734 814
f 728 815 810
f 728 814 815
f 771 788 816
f 771 817 797
f 771 816 817
f 818 754 753
f 818 807 754
f 739 819 735
f 739 812 819
f 814 734 735
f 795 775 766
f 814 735 819
f 820 767 768
f 820 768 803
f 769 821 770
f 801 770 821
f 822 753 756
f 822 818 753
f 757 823 758
f 785 758 823
f 783 824 784
f 783 797 825
f 783 825 826
f 783 826 824
f 827 782 784
f 827 784 824
f 828 774 775
f 795 828 775
f 816 788 799
f 825 797 817
f 789 790 829
f 789 829 792
f 822 756 765
f 769 786 830
f 769 831 821
f 769 830 831
f 820 778 767
f 827 787 782
f 779 774 832
f 828 832 774
f 816 833 817
f 825 817 833
f 732 781 834
f 732 835 809
f 732 834 835
f 836 777 778
f 820 837 778
f 836 778 837
f 816 799 838
f 839 799 798
f 839 838 799
f 765 776 840
f 822 765 841
f 765 840 841
f 842 780 779
f 779 832 843
f 842 779 843
f 808 829 790
f 844 757 809
f 757 845 823
f 844 845 757
f 842 776 780
f 846 800 802
f 801 846 802
f 830 786 785
f 836 796 777
f 842 840 776
f 847 791 792
f 847 792 829
f 825 848 826
f 849 824 826
f 849 826 848
f 804 800 850
f 846 850 800
f 816 851 833
f 816 838 852
f 816 852 851
f 839 798 813
f 825 833 853
f 825 854 848
f 825 853 854
f 801 821 855
f 801 856 846
f 801 855 856
f 849 827 824
f 820 803 787
f 827 857 787
f 787 857 858
f 820 787 859
f 787 858 859
f 808 807 860
f 808 861 829
f 808 860 861
f 795 796 862
f 836 862 796
f 853 833 851
f 804 863 813
f 839 813 863
f 834 781 794
f 864 785 823
f 830 785 865
f 864 865 785
f 849 866 827
f 827 867 857
f 827 866 867
f 847 806 791
f 868 848 854
f 868 849 848
f 869 807 818
f 869 860 807
f 855 821 831
f 839 852 838
f 795 870 828
f 795 862 871
f 795 871 870
f 853 872 854
f 868 854 872
f 853 851 873
f 852 873 851
f 849 874 866
f 868 875 849
f 849 875 874
f 804 850 876
f 804 877 863
f 804 876 878
f 804 878 877
f 844 809 835
f 793 879 794
f 834 794 879
f 853 873 880
f 853 881 872
f 853 880 881
f 882 805 806
f 847 883 806
f 882 806 883
f 869 818 822
f 828 884 832
f 828 870 884
f 867 858 857
f 867 866 874
f 839 885 852
f 886 839 863
f 886 885 839
f 852 887 873
f 852 888 887
f 852 885 888
f 889 793 810
f 793 890 879
f 889 890 793
f 864 823 845
f 880 873 887
f 811 805 882
f 861 847 829
f 830 891 831
f 855 831 891
f 892 837 820
f 820 859 893
f 892 820 894
f 820 893 894
f 895 850 846
f 895 846 856
f 889 810 815
f 832 896 843
f 832 884 896
f 822 841 897
f 869 822 898
f 822 897 898
f 811 899 812
f 811 882 900
f 811 900 899
f 814 901 815
f 889 815 901
f 892 836 837
f 902 876 850
f 895 902 850
f 888 903 887
f 880 887 903
f 855 904 856
f 895 856 904
f 814 819 905
f 814 906 901
f 814 905 906
f 907 859 858
f 907 893 859
f 842 843 896
f 886 863 877
f 908 888 885
f 908 885 886
f 905 819 812
f 905 812 899
f 867 874 909
f 867 910 858
f 867 909 911
f 867 911 910
f 836 912 862
f 892 913 836
f 836 913 912
f 861 914 847
f 861 860 915
f 861 915 914
f 830 865 916
f 830 917 891
f 830 916 917
f 868 918 875
f 919 868 872
f 868 920 918
f 919 920 868
f 921 841 840
f 921 897 841
f 921 840 842
f 842 896 922
f 921 842 922
f 923 874 875
f 923 875 918
f 919 872 881
f 834 924 835
f 844 835 924
f 888 925 903
f 926 925 888
f 926 888 908
f 844 927 845
f 864 845 927
f 919 881 928
f 880 928 881
f 929 874 923
f 929 909 874
f 862 930 871
f 862 912 930
f 907 858 910
f 931 932 933
f 931 933 934
f 935 931 936
f 931 934 936
f 931 937 932
f 935 937 931
f 938 933 932
f 933 939 940
f 938 939 933
f 933 940 934
f 935 936 941
f 941 936 942
f 936 934 943
f 936 943 942
f 944 935 941
f 944 941 945
f 945 941 946
f 941 942 946
f 919 932 937
f 935 947 937
f 947 920 937
f 919 937 920
f 938 932 919
f 948 947 935
f 948 935 944
f 939 949 940
f 950 939 938
f 939 950 949
f 934 940 951
f 934 951 943
f 947 918 920
f 948 918 947
f 855 891 952
f 855 953 904
f 855 952 953
f 948 923 918
f 886 877 954
f 908 886 954
f 938 919 928
f 940 949 955
f 940 955 951
f 902 956 876
f 956 878 876
f 950 938 957
f 938 928 958
f 938 958 957
f 950 959 949
f 950 957 960
f 950 961 959
f 950 960 961
f 962 944 945
f 945 946 963
f 964 945 963
f 962 945 964
f 949 959 965
f 949 965 955
f 942 943 966
f 946 942 967
f 942 966 967
f 943 951 968
f 943 968 966
f 951 955 969
f 951 969 968
f 847 970 883
f 847 914 970
f 915 860 869
f 929 923 948
f 880 958 928
f 880 903 971
f 880 971 958
f 971 903 925
f 926 972 925
f 971 925 972
f 948 944 962
f 948 962 973
f 929 948 973
f 971 960 957
f 971 957 958
f 974 975 976
f 977 975 974
f 975 978 976
f 975 979 978
f 977 980 975
f 975 980 981
f 975 981 979
f 961 974 982
f 977 974 961
f 974 976 982
f 961 982 959
f 977 961 960
f 978 983 984
f 979 983 978
f 983 985 984
f 979 986 983
f 983 987 985
f 986 987 983
f 976 978 988
f 978 984 988
f 982 976 989
f 976 988 989
f 959 982 990
f 982 989 990
f 959 990 965
f 988 984 991
f 984 992 991
f 984 985 992
f 989 988 993
f 988 991 993
f 990 989 994
f 989 993 994
f 965 990 995
f 990 994 995
f 963 946 996
f 963 996 997
f 998 963 997
f 964 963 998
f 946 967 996
f 955 965 999
f 965 995 999
f 955 999 969
f 994 993 1000
f 995 994 1001
f 994 1000 1001
f 993 991 1002
f 993 1002 1000
f 999 995 1003
f 995 1001 1003
f 991 992 1004
f 991 1004 1002
f 969 999 1005
f 999 1003 1005
f 968 969 1006
f 969 1005 1006
f 966 968 1007
f 968 1006 1007
f 967 966 1008
f 966 1007 1008
f 996 967 1009
f 967 1008 1009
f 997 996 1010
f 997 1010 1011
f 1012 997 1011
f 998 997 1012
f 996 1009 1010
f 1005 1003 1001
f 1013 1001 1000
f 1005 1001 1013
f 1013 1000 1014
f 1014 1000 1002
f 1006 1005 1013
f 1007 1006 1015
f 1007 1015 1008
f 1006 1013 1015
f 1008 1016 1009
f 1008 1015 1016
f 1015 1013 1014
f 1015 1014 1016
f 1016 1014 1017
f 1014 1002 1017
f 1009 1018 1010
f 1009 1016 1018
f 1010 1019 1011
f 1012 1011 1020
f 1011 1019 1021
f 1011 1021 1020
f 1010 1018 1019
f 1016 1017 1018
f 1018 1017 1022
f 1018 1022 1019
f 911 909 929
f 1023 954 877
f 877 878 1024
f 877 1024 1023
f 926 908 1025
f 908 954 1025
f 980 977 1026
f 1027 980 1026
f 1027 981 980
f 971 977 960
f 977 972 1026
f 971 972 977
f 1028 986 979
f 1028 979 981
f 1029 964 998
f 1030 962 964
f 1030 964 1029
f 987 1031 1032
f 1033 1031 987
f 1031 1034 1032
f 1031 1035 1034
f 1036 1035 1031
f 1033 1036 1031
f 987 1032 985
f 986 1033 987
f 985 1032 1037
f 985 1037 992
f 1032 1034 1038
f 1032 1038 1037
f 1034 1039 1038
f 1035 1040 1034
f 1034 1040 1039
f 1041 998 1012
f 1029 998 1041
f 992 1037 1042
f 992 1042 1004
f 1037 1038 1043
f 1037 1043 1042
f 1038 1039 1044
f 1038 1044 1043
f 1045 1012 1020
f 1041 1012 1045
f 1022 1004 1042
f 1022 1042 1046
f 1046 1042 1043
f 1017 1002 1004
f 1017 1004 1022
f 1019 1022 1046
f 1019 1046 1021
f 1021 1046 1047
f 1046 1043 1047
f 1020 1021 1048
f 1021 1047 1048
f 1045 1020 1049
f 1020 1048 1049
f 916 865 864
f 911 1050 910
f 907 910 1050
f 926 1026 972
f 1027 1026 926
f 1027 926 1051
f 926 1025 1051
f 1030 973 962
f 1028 1033 986
f 1035 1052 1040
f 1053 1052 1035
f 1036 1053 1035
f 1040 1054 1055
f 1052 1054 1040
f 1054 1056 1055
f 1054 1057 1056
f 1052 1058 1054
f 1058 1057 1054
f 1040 1055 1039
f 1056 1059 1060
f 1057 1059 1056
f 1059 1061 1060
f 1057 1062 1059
f 1062 1063 1059
f 1059 1063 1061
f 1039 1055 1064
f 1039 1064 1044
f 1055 1056 1065
f 1056 1060 1065
f 1055 1065 1064
f 1066 1045 1049
f 1067 1041 1045
f 1067 1045 1066
f 1068 1044 1064
f 1068 1064 1065
f 1047 1043 1044
f 1047 1044 1068
f 1069 1065 1060
f 1069 1068 1065
f 1060 1048 1069
f 1060 1049 1048
f 1066 1049 1060
f 1061 1066 1060
f 1048 1047 1068
f 1048 1068 1069
f 929 973 1070
f 1030 1070 973
f 1071 1028 981
f 1071 981 1027
f 1072 1058 1052
f 1058 1073 1057
f 1074 1073 1058
f 1072 1074 1058
f 1075 1029 1041
f 1076 1029 1075
f 1076 1030 1029
f 1053 1072 1052
f 1073 1062 1057
f 1062 1077 1063
f 1073 1078 1062
f 1078 1077 1062
f 1075 1041 1067
f 1061 1063 1066
f 1077 1066 1063
f 1077 1067 1066
f 1079 870 871
f 1079 871 930
f 1028 1080 1033
f 1081 1036 1033
f 1081 1033 1080
f 1082 1078 1073
f 1074 1082 1073
f 1078 1083 1077
f 1083 1067 1077
f 1084 1083 1078
f 1082 1084 1078
f 1083 1075 1067
f 929 1070 1085
f 911 929 1085
f 1086 1080 1028
f 1086 1028 1071
f 1087 1053 1036
f 1087 1036 1081
f 1088 1075 1083
f 1084 1088 1083
f 1088 1076 1075
f 1071 1027 1051
f 1030 1089 1070
f 1030 1076 1089
f 1071 1051 1090
f 1091 1051 1025
f 1091 1090 1051
f 834 879 1092
f 834 1093 924
f 834 1092 1093
f 1087 1072 1053
f 1089 1085 1070
f 1081 1080 1086
f 1094 1074 1072
f 1087 1095 1072
f 1094 1072 1095
f 869 898 1096
f 915 869 1097
f 869 1096 1097
f 1094 1082 1074
f 1098 1084 1082
f 1094 1098 1082
f 1091 1025 954
f 1091 954 1099
f 1023 1099 954
f 1100 1088 1084
f 1098 1100 1084
f 1089 1076 1088
f 1089 1088 1101
f 1100 1101 1088
f 1102 895 904
f 895 1103 902
f 1102 1104 895
f 895 1104 1103
f 1086 1071 1090
f 1087 1081 1105
f 1081 1086 1105
f 911 1085 1106
f 911 1106 1107
f 911 1107 1050
f 882 883 970
f 1089 1106 1085
f 1108 1095 1087
f 1087 1105 1109
f 1108 1087 1109
f 952 891 917
f 1110 844 924
f 844 1111 927
f 1110 1111 844
f 1079 884 870
f 1102 904 953
f 1089 1101 1112
f 1089 1112 1106
f 1108 1094 1095
f 1094 1113 1098
f 1108 1114 1094
f 1094 1114 1113
f 1086 1090 1115
f 1091 1115 1090
f 1098 1116 1100
f 1112 1101 1100
f 1112 1100 1116
f 1098 1113 1116
f 902 1117 956
f 902 1103 1117
f 1086 1118 1105
f 1086 1115 1118
f 1092 879 890
f 1119 864 927
f 916 864 1120
f 1119 1120 864
f 1121 892 894
f 1121 894 893
f 956 1122 878
f 1122 1024 878
f 970 914 915
f 1123 898 897
f 1123 1096 898
f 1124 896 884
f 1079 1125 884
f 1124 884 1125
f 892 1126 913
f 1121 1127 892
f 892 1127 1126
f 1128 1109 1105
f 1128 1105 1118
f 1112 1107 1106
f 882 1129 900
f 882 970 1130
f 882 1130 1129
f 907 1131 893
f 1121 893 1131
f 1132 1050 1107
f 907 1050 1133
f 1132 1133 1050
f 1091 1134 1115
f 1135 1118 1115
f 1135 1115 1134
f 1112 1132 1107
f 1128 1108 1109
f 889 1136 890
f 1092 890 1136
f 912 913 1126
f 1124 922 896
f 1137 1091 1099
f 1138 1099 1023
f 1137 1099 1139
f 1138 1139 1099
f 1108 1140 1114
f 1128 1141 1108
f 1108 1141 1140
f 1137 1134 1091
f 1113 1114 1140
f 1113 1142 1116
f 1113 1143 1142
f 1113 1140 1143
f 916 1144 917
f 952 917 1144
f 1112 1116 1142
f 1145 1023 1024
f 1145 1138 1023
f 952 1146 953
f 1102 953 1146
f 1112 1142 1132
f 956 1147 1122
f 956 1117 1147
f 1148 899 900
f 1148 900 1129
f 1149 889 901
f 889 1150 1136
f 1149 1150 889
f 907 1133 1151
f 907 1151 1152
f 907 1153 1131
f 907 1152 1153
f 1123 897 921
f 921 922 1154
f 1124 1154 922
f 1135 1128 1118
f 912 1155 930
f 912 1126 1156
f 912 1156 1155
f 1123 921 1157
f 921 1154 1157
f 1149 901 906
f 970 915 1158
f 915 1097 1159
f 915 1159 1158
f 1132 1160 1133
f 1132 1142 1160
f 1128 1161 1141
f 1135 1162 1128
f 1128 1162 1161
f 1137 1163 1134
f 1137 1139 1164
f 1137 1164 1163
f 1110 924 1093
f 1135 1134 1163
f 905 899 1148
f 905 1165 906
f 1149 906 1165
f 1119 927 1111
f 1160 1151 1133
f 1140 1141 1161
f 905 1148 1166
f 905 1166 1165
f 1160 1142 1143
f 1138 1164 1139
f 1140 1167 1143
f 1160 1143 1167
f 930 1168 1079
f 930 1155 1168
f 1140 1161 1169
f 1140 1169 1167
f 970 1170 1130
f 970 1158 1170
f 916 1120 1171
f 916 1172 1144
f 916 1171 1172
f 1122 1173 1024
f 1174 1024 1173
f 1174 1145 1024
f 1135 1163 1175
f 1176 1163 1164
f 1176 1175 1163
f 1177 1162 1135
f 1177 1135 1175
f 1178 1173 1122
f 1178 1122 1147
f 1102 1179 1104
f 1103 1104 1179
f 1180 1097 1096
f 1180 1159 1097
f 952 1181 1146
f 952 1144 1182
f 952 1182 1181
f 1160 1183 1151
f 1183 1152 1151
f 1138 1184 1164
f 1145 1184 1138
f 1185 1102 1146
f 1102 1186 1179
f 1185 1186 1102
f 1177 1161 1162
f 1092 1187 1093
f 1110 1093 1187
f 1160 1167 1188
f 1160 1188 1183
f 1184 1176 1164
f 1177 1175 1176
f 1103 1189 1117
f 1103 1179 1190
f 1103 1190 1189
f 1169 1161 1191
f 1177 1191 1161
f 1121 1192 1127
f 1193 1121 1131
f 1121 1194 1192
f 1193 1194 1121
f 1195 1125 1079
f 1195 1079 1168
f 1196 1129 1130
f 1196 1130 1170
f 1126 1127 1192
f 1197 1131 1153
f 1197 1193 1131
f 1169 1188 1167
f 1169 1191 1198
f 1169 1198 1188
f 1126 1199 1156
f 1126 1192 1200
f 1126 1200 1199
f 1177 1176 1201
f 1202 1191 1177
f 1202 1177 1201
f 1119 1111 1203
f 1110 1203 1111
f 1171 1120 1119
f 1180 1096 1123
f 1183 1188 1204
f 1183 1205 1152
f 1183 1204 1205
f 1092 1136 1206
f 1092 1207 1187
f 1092 1206 1207
f 1208 1147 1117
f 1208 1117 1189
f 1185 1146 1181
f 1209 1124 1125
f 1209 1125 1195
f 1155 1156 1199
f 1184 1210 1176
f 1210 1201 1176
f 1211 1153 1152
f 1211 1197 1153
f 1212 1158 1159
f 1212 1170 1158
f 1182 1144 1172
f 1202 1198 1191
f 1174 1173 1178
f 1148 1129 1196
f 1155 1199 1168
f 1145 1213 1184
f 1184 1214 1210
f 1184 1213 1214
f 1209 1154 1124
f 1198 1204 1188
f 1202 1215 1198
f 1198 1215 1204
f 1206 1136 1150
f 1174 1213 1145
f 1123 1157 1216
f 1180 1123 1217
f 1123 1216 1217
f 1205 1211 1152
f 1218 1157 1154
f 1209 1218 1154
f 1202 1201 1219
f 1210 1219 1201
f 1178 1147 1208
f 1149 1220 1150
f 1206 1150 1220
f 1218 1216 1157
f 1148 1221 1166
f 1148 1196 1222
f 1148 1222 1221
f 1223 1149 1165
f 1149 1224 1220
f 1223 1224 1149
f 1225 1215 1202
f 1202 1219 1226
f 1225 1202 1226
f 1205 1204 1227
f 1205 1228 1211
f 1205 1227 1228
f 1171 1119 1229
f 1230 1119 1203
f 1230 1229 1119
f 1210 1231 1219
f 1210 1214 1231
f 1223 1165 1166
f 1232 1110 1187
f 1110 1233 1203
f 1232 1233 1110
f 1212 1159 1180
f 1185 1181 1234
f 1182 1234 1181
f 1223 1166 1221
f 1182 1172 1235
f 1171 1235 1172
f 1225 1204 1215
f 1196 1170 1212
f 1225 1227 1204
f 1179 1186 1236
f 1179 1237 1190
f 1179 1236 1238
f 1179 1238 1237
f 1185 1236 1186
f 1239 1189 1190
f 1239 1190 1237
f 1174 1178 1240
f 1178 1208 1241
f 1178 1241 1242
f 1178 1242 1240
f 1231 1226 1219
f 1174 1243 1213
f 1214 1213 1243
f 1192 1194 1244
f 1193 1244 1194
f 1192 1245 1200
f 1192 1246 1245
f 1192 1244 1246
f 1197 1247 1193
f 1193 1247 1244
f 1248 1199 1200
f 1248 1200 1245
f 1199 1249 1168
f 1249 1195 1168
f 1232 1187 1207
f 1199 1248 1249
f 1250 1174 1240
f 1250 1243 1174
f 1208 1189 1239
f 1196 1251 1222
f 1196 1212 1252
f 1196 1252 1251
f 1211 1253 1197
f 1197 1253 1247
f 1212 1180 1254
f 1180 1217 1255
f 1180 1255 1254
f 1256 1185 1234
f 1185 1257 1236
f 1256 1257 1185
f 1225 1226 1258
f 1231 1258 1226
f 1182 1259 1234
f 1182 1235 1260
f 1182 1260 1259
f 1211 1228 1261
f 1211 1262 1253
f 1211 1261 1262
f 1171 1263 1235
f 1171 1229 1264
f 1171 1264 1263
f 1208 1265 1241
f 1208 1239 1266
f 1208 1266 1265
f 1267 1209 1195
f 1249 1268 1195
f 1267 1195 1268
f 1269 1227 1225
f 1225 1258 1270
f 1269 1225 1270
f 1206 1271 1207
f 1232 1207 1271
f 1230 1203 1233
f 1269 1228 1227
f 1269 1261 1228
f 1231 1214 1272
f 1214 1243 1272
f 1273 1221 1222
f 1273 1222 1251
f 1212 1274 1252
f 1212 1254 1274
f 1267 1218 1209
f 1206 1220 1275
f 1206 1276 1271
f 1206 1275 1276
f 1277 1217 1216
f 1277 1255 1217
f 1218 1277 1216
f 1267 1278 1218
f 1218 1278 1277
f 1279 1242 1241
f 1279 1241 1265
f 1275 1220 1224
f 1256 1234 1259
f 1273 1223 1221
f 1223 1280 1224
f 1275 1224 1280
f 1231 1281 1258
f 1231 1272 1282
f 1231 1282 1281
f 1250 1240 1242
f 1273 1283 1223
f 1223 1283 1280
f 1260 1235 1263
f 1250 1272 1243
f 1264 1229 1230
f 1284 1251 1252
f 1284 1252 1274
f 1232 1285 1233
f 1230 1233 1285
f 1281 1270 1258
f 1286 1238 1236
f 1287 1237 1238
f 1287 1238 1286
f 1246 1288 1245
f 1246 1244 1289
f 1246 1290 1288
f 1246 1289 1290
f 1248 1245 1288
f 1289 1244 1247
f 1257 1291 1236
f 1286 1236 1291
f 1239 1237 1287
f 1292 1254 1255
f 1292 1274 1254
f 1293 1249 1248
f 1248 1288 1293
f 1294 1247 1253
f 1289 1247 1294
f 1239 1295 1266
f 1239 1287 1296
f 1239 1296 1295
f 1269 1270 1297
f 1281 1297 1270
f 1256 1259 1298
f 1260 1298 1259
f 1299 1253 1262
f 1294 1253 1300
f 1299 1300 1253
f 1301 1257 1256
f 1257 1302 1291
f 1301 1302 1257
f 1279 1303 1242
f 1250 1242 1303
f 1295 1265 1266
f 1284 1273 1251
f 1299 1262 1261
f 1304 1261 1269
f 1269 1297 1305
f 1304 1269 1305
f 1306 1232 1271
f 1232 1307 1285
f 1306 1307 1232
f 1299 1261 1304
f 1279 1265 1308
f 1295 1308 1265
f 1260 1263 1309
f 1264 1309 1263
f 1249 1310 1268
f 1293 1311 1249
f 1312 1249 1311
f 1249 1313 1310
f 1312 1313 1249
f 1250 1314 1272
f 1282 1272 1314
f 1277 1292 1255
f 1315 1267 1268
f 1315 1268 1310
f 1306 1271 1276
f 1273 1316 1283
f 1284 1317 1273
f 1273 1317 1316
f 1264 1230 1318
f 1319 1230 1285
f 1319 1318 1230
f 1301 1256 1298
f 1315 1278 1267
f 1292 1284 1274
f 1279 1320 1303
f 1279 1308 1320
f 1275 1321 1276
f 1306 1276 1321
f 1277 1278 1322
f 1277 1323 1292
f 1277 1322 1323
f 1315 1322 1278
f 1324 1280 1283
f 1324 1283 1316
f 1325 1250 1303
f 1325 1314 1250
f 1275 1280 1324
f 1275 1324 1326
f 1275 1326 1321
f 1260 1327 1298
f 1260 1309 1328
f 1260 1328 1327
f 1281 1282 1329
f 1282 1314 1329
f 1330 1311 1293
f 1330 1331 1311
f 1331 1312 1311
f 1332 1293 1288
f 1290 1332 1288
f 1333 1330 1293
f 1332 1333 1293
f 1290 1289 1334
f 1290 1334 1335
f 1290 1335 1332
f 1289 1294 1336
f 1289 1336 1334
f 1292 1337 1284
f 1284 1338 1317
f 1284 1337 1338
f 1264 1339 1309
f 1264 1318 1340
f 1264 1340 1339
f 1281 1341 1297
f 1281 1329 1342
f 1281 1342 1341
f 1301 1298 1343
f 1298 1327 1344
f 1298 1344 1343
f 1292 1323 1345
f 1292 1345 1337
f 1319 1285 1307
f 1294 1300 1346
f 1294 1346 1336
f 1286 1291 1347
f 1287 1286 1348
f 1286 1347 1348
f 1347 1291 1302
f 1287 1349 1296
f 1287 1348 1350
f 1287 1350 1349
f 1351 1331 1330
f 1331 1352 1312
f 1351 1352 1331
f 1297 1353 1305
f 1297 1341 1353
f 1333 1351 1330
f 1325 1303 1320
f 1295 1296 1349
f 1354 1302 1301
f 1347 1302 1355
f 1354 1355 1302
f 1356 1316 1317
f 1356 1317 1338
f 1346 1300 1299
f 1295 1357 1308
f 1295 1349 1358
f 1295 1358 1357
f 1328 1309 1339
f 1304 1305 1353
f 1299 1304 1359
f 1346 1299 1360
f 1299 1359 1360
f 1345 1323 1322
f 1357 1320 1308
f 1304 1353 1359
f 1325 1320 1361
f 1357 1361 1320
f 1306 1362 1307
f 1319 1307 1362
f 1325 1329 1314
f 1354 1301 1343
f 1363 1310 1313
f 1364 1313 1312
f 1364 1365 1313
f 1363 1313 1365
f 1324 1316 1356
f 1363 1315 1310
f 1366 1338 1337
f 1366 1337 1345
f 1315 1367 1322
f 1345 1322 1367
f 1315 1368 1367
f 1363 1368 1315
f 1328 1344 1327
f 1369 1306 1321
f 1306 1370 1362
f 1369 1370 1306
f 1364 1312 1352
f 1334 1371 1335
f 1334 1336 1371
f 1340 1318 1319
f 1324 1372 1326
f 1324 1356 1373
f 1324 1373 1372
f 1369 1321 1326
f 1369 1326 1372
f 1332 1335 1371
f 1351 1374 1352
f 1364 1352 1374
f 1375 1343 1344
f 1354 1343 1376
f 1375 1376 1343
f 1332 1377 1333
f 1332 1371 1378
f 1332 1378 1377
f 1333 1379 1351
f 1333 1377 1379
f 1351 1379 1374
f 1325 1380 1329
f 1342 1329 1380
f 1356 1338 1366
f 1346 1371 1336
f 1366 1345 1367
f 1328 1339 1381
f 1340 1381 1339
f 1382 1325 1361
f 1382 1380 1325
f 1383 1319 1362
f 1340 1319 1384
f 1383 1384 1319
f 1356 1366 1385
f 1356 1386 1373
f 1356 1385 1386
f 1387 1350 1348
f 1347 1388 1348
f 1387 1348 1388
f 1387 1349 1350
f 1328 1389 1344
f 1328 1381 1390
f 1328 1390 1389
f 1358 1349 1391
f 1387 1391 1349
f 1342 1392 1341
f 1342 1380 1393
f 1342 1393 1392
f 1364 1394 1365
f 1364 1374 1394
f 1347 1355 1395
f 1347 1396 1388
f 1347 1395 1396
f 1375 1344 1389
f 1346 1397 1371
f 1346 1360 1398
f 1346 1398 1397
f 1358 1399 1357
f 1358 1391 1400
f 1358 1400 1399
f 1366 1367 1401
f 1367 1368 1402
f 1367 1402 1401
f 1366 1403 1385
f 1366 1401 1403
f 1395 1355 1354
f 1386 1372 1373
f 1404 1363 1365
f 1404 1365 1394
f 1382 1361 1357
f 1382 1357 1399
f 1405 1369 1372
f 1386 1405 1372
f 1404 1368 1363
f 1404 1402 1368
f 1383 1362 1370
f 1397 1378 1371
f 1369 1406 1370
f 1405 1407 1369
f 1369 1407 1406
f 1394 1374 1379
f 1408 1353 1341
f 1408 1341 1392
f 1409 1354 1376
f 1395 1354 1409
f 1398 1360 1359
f 1383 1370 1406
f 1386 1385 1403
f 1408 1359 1353
f 1340 1410 1381
f 1340 1384 1411
f 1340 1411 1410
f 1398 1359 1412
f 1408 1412 1359
f 1413 1379 1377
f 1394 1379 1414
f 1413 1414 1379
f 1413 1377 1378
f 1397 1415 1378
f 1413 1378 1415
f 1382 1393 1380
f 1416 1403 1401
f 1416 1401 1402
f 1375 1417 1376
f 1409 1376 1417
f 1386 1418 1405
f 1386 1403 1419
f 1386 1419 1418
f 1375 1389 1420
f 1375 1420 1417
f 1387 1421 1391
f 1387 1388 1421
f 1390 1381 1410
f 1390 1420 1389
f 1405 1422 1407
f 1405 1418 1422
f 1423 1419 1403
f 1423 1403 1416
f 1404 1394 1414
f 1416 1402 1404
f 1400 1391 1421
f 1424 1399 1400
f 1400 1421 1425
f 1424 1400 1425
f 1397 1398 1426
f 1397 1426 1415
f 1424 1382 1399
f 1382 1427 1393
f 1424 1427 1382
f 1396 1421 1388
f 1428 1406 1407
f 1428 1407 1422
f 1411 1384 1383
f 1416 1404 1429
f 1404 1414 1429
f 1395 1430 1396
f 1396 1430 1421
f 1431 1418 1419
f 1431 1419 1423
f 1393 1427 1432
f 1393 1432 1392
f 1428 1383 1406
f 1395 1409 1433
f 1395 1434 1430
f 1395 1433 1434
f 1428 1435 1383
f 1411 1383 1435
f 1423 1416 1429
f 1413 1429 1414
f 1398 1412 1436
f 1398 1436 1426
f 1413 1415 1426
f 1431 1422 1418
f 1437 1417 1420
f 1390 1438 1420
f 1437 1420 1438
f 1409 1417 1437
f 1409 1437 1433
f 1439 1425 1421
f 1439 1421 1430
f 1423 1429 1440
f 1413 1440 1429
f 1431 1423 1440
f 1390 1410 1441
f 1411 1441 1410
f 1413 1442 1440
f 1413 1426 1443
f 1413 1443 1442
f 1439 1424 1425
f 1431 1444 1422
f 1428 1422 1444
f 1408 1436 1412
f 1424 1432 1427
f 1390 1445 1438
f 1390 1441 1445
f 1408 1392 1432
f 1439 1446 1424
f 1424 1446 1432
f 1439 1430 1434
f 1431 1440 1442
f 1447 1431 1442
f 1447 1444 1431
f 1448 1435 1428
f 1428 1444 1449
f 1448 1428 1449
f 1450 1443 1426
f 1450 1426 1436
f 1408 1451 1436
f 1408 1432 1452
f 1408 1453 1451
f 1408 1452 1453
f 1411 1435 1448
f 1411 1454 1441
f 1411 1448 1454
f 1450 1442 1443
f 1450 1447 1442
f 1439 1434 1455
f 1456 1434 1433
f 1456 1455 1434
f 1447 1449 1444
f 1457 1446 1439
f 1457 1439 1455
f 1458 1450 1436
f 1458 1436 1451
f 1457 1432 1446
f 1457 1452 1432
f 1458 1447 1450
f 1447 1459 1449
f 1458 1459 1447
f 1445 1437 1438
f 1448 1449 1459
f 1460 1458 1451
f 1460 1451 1453
f 1456 1433 1437
f 1445 1441 1454
f 1460 1459 1458
f 1448 1459 1461
f 1460 1461 1459
f 1457 1453 1452
f 1456 1457 1455
f 1456 1437 1462
f 1445 1462 1437
f 1448 1461 1463
f 1448 1463 1454
f 1457 1464 1453
f 1456 1464 1457
f 1465 1460 1453
f 1465 1453 1464
f 1465 1461 1460
f 1465 1463 1461
f 1445 1454 1463
f 1465 1464 1456
f 1465 1456 1462
f 1445 1463 1465
f 1445 1465 1462
