# 
# Wavefront OBJ file
# Created with Kaydara FBX
# 
mtllib c:\users\tjvan\onedrive\documenten\fontys\minor\nx\.mtlmodels\interosseous_membrane_of_leg.r.obj

g Interosseous_membrane_of_leg_r
v -0.106185 0.366144 -0.038822
v -0.105904 0.363670 -0.039068
v -0.106092 0.363197 -0.038869
v -0.104087 0.364660 -0.037144
v -0.106009 0.366163 -0.038779
v -0.103934 0.367726 -0.036982
v -0.105691 0.361105 -0.039163
v -0.105826 0.360272 -0.038980
v -0.103642 0.361379 -0.037073
v -0.105878 0.364103 -0.039008
v -0.105858 0.366169 -0.038681
v -0.103808 0.367666 -0.036911
v -0.105712 0.361922 -0.039098
v -0.103967 0.365354 -0.037469
v -0.103912 0.362882 -0.037687
v -0.103682 0.367606 -0.036838
v -0.105522 0.353654 -0.039196
v -0.105279 0.355000 -0.039375
v -0.105557 0.354318 -0.039181
v -0.105246 0.347806 -0.039526
v -0.105074 0.348341 -0.039399
v -0.105522 0.347270 -0.039302
v -0.103239 0.354930 -0.037215
v -0.104959 0.340612 -0.039296
v -0.105339 0.340206 -0.039094
v -0.102879 0.348590 -0.037157
v -0.104665 0.333421 -0.039048
v -0.105122 0.333143 -0.038921
v -0.102697 0.341545 -0.037084
v -0.103255 0.356169 -0.037714
v -0.104701 0.341021 -0.039127
v -0.104445 0.326248 -0.038818
v -0.104893 0.326080 -0.038732
v -0.102543 0.334500 -0.036973
v -0.102785 0.349634 -0.037620
v -0.104339 0.333701 -0.038829
v -0.104929 0.312803 -0.038761
v -0.104474 0.306413 -0.039159
v -0.104906 0.306591 -0.038951
v -0.102194 0.314179 -0.036867
v -0.104851 0.319017 -0.038674
v -0.104458 0.312743 -0.038929
v -0.102187 0.320413 -0.036771
v -0.104389 0.296977 -0.039694
v -0.104764 0.297286 -0.039398
v -0.102154 0.307946 -0.037038
v -0.104386 0.319076 -0.038796
v -0.102338 0.327457 -0.036839
v -0.104190 0.287554 -0.040427
v -0.104496 0.287995 -0.040021
v -0.101880 0.298776 -0.037376
v -0.102467 0.342371 -0.037471
v -0.104107 0.326417 -0.038619
v -0.103979 0.277744 -0.040717
v -0.104007 0.278364 -0.040661
v -0.101510 0.289619 -0.037894
v -0.104192 0.306221 -0.039002
v -0.104170 0.296640 -0.039593
v -0.104151 0.312676 -0.038752
v -0.104051 0.319133 -0.038596
v -0.104032 0.287074 -0.040379
v -0.102182 0.335109 -0.037284
v -0.103597 0.277167 -0.041096
v -0.101879 0.307659 -0.037442
v -0.101874 0.314122 -0.037221
v -0.101693 0.298184 -0.037905
v -0.101817 0.320587 -0.037081
v -0.101983 0.327848 -0.037154
v -0.101806 0.365975 -0.035276
v -0.101447 0.362523 -0.035299
v -0.101332 0.288742 -0.038669
v -0.103547 0.267974 -0.041366
v -0.103511 0.268731 -0.041258
v -0.100949 0.280106 -0.038473
v -0.103228 0.267252 -0.041744
v -0.101942 0.363753 -0.036122
v -0.101886 0.366493 -0.035789
v -0.102118 0.369428 -0.035310
v -0.101970 0.369335 -0.035398
v -0.101890 0.369220 -0.035371
v -0.100836 0.278941 -0.039268
v -0.102980 0.258190 -0.041911
v -0.102590 0.257313 -0.042153
v -0.103115 0.258563 -0.041669
v -0.100388 0.270593 -0.039055
v -0.101344 0.357338 -0.036171
v -0.100908 0.356220 -0.035314
v -0.100327 0.269151 -0.039916
v -0.102353 0.248423 -0.042579
v -0.102536 0.249458 -0.042387
v -0.099864 0.261078 -0.039629
v -0.101956 0.247372 -0.042541
v -0.100452 0.349909 -0.035222
v -0.100883 0.350927 -0.036111
v -0.100237 0.342884 -0.035216
v -0.099727 0.259357 -0.040393
v -0.101761 0.238573 -0.043048
v -0.102058 0.239818 -0.042883
v -0.099356 0.251560 -0.040176
v -0.100047 0.335857 -0.035177
v -0.100602 0.343722 -0.036064
v -0.101227 0.237527 -0.042907
v -0.099855 0.328834 -0.035126
v -0.099654 0.321810 -0.035089
v -0.099664 0.315556 -0.035214
v -0.100355 0.336516 -0.035971
v -0.099634 0.309303 -0.035405
v -0.100166 0.370488 -0.033982
v -0.099815 0.367079 -0.033817
v -0.101159 0.228934 -0.043548
v -0.101604 0.230179 -0.043424
v -0.098872 0.242039 -0.040687
v -0.100105 0.329279 -0.035864
v -0.099953 0.370446 -0.034015
v -0.099155 0.249560 -0.040822
v -0.099777 0.364963 -0.034476
v -0.099367 0.300269 -0.035750
v -0.099836 0.315569 -0.035881
v -0.099783 0.309097 -0.036063
v -0.099845 0.322042 -0.035772
v -0.099765 0.367681 -0.034246
v -0.099805 0.370390 -0.033938
v -0.099412 0.363674 -0.033727
v -0.100464 0.227680 -0.043252
v -0.099465 0.299729 -0.036426
v -0.100509 0.220022 -0.043559
v -0.101061 0.221374 -0.043525
v -0.098409 0.232515 -0.041186
v -0.099002 0.291247 -0.036263
v -0.099164 0.358582 -0.034453
v -0.098969 0.290393 -0.037102
v -0.098536 0.239794 -0.041217
v -0.099917 0.218679 -0.043366
v -0.100174 0.211200 -0.043952
v -0.100652 0.212662 -0.043948
v -0.097946 0.223899 -0.041596
v -0.098441 0.281853 -0.036859
v -0.098819 0.357419 -0.033650
v -0.098609 0.352196 -0.034353
v -0.098376 0.280713 -0.037674
v -0.099427 0.203138 -0.043997
v -0.099634 0.203920 -0.044048
v -0.097545 0.215268 -0.041991
v -0.098270 0.345008 -0.034351
v -0.099606 0.209760 -0.043768
v -0.097922 0.230030 -0.041649
v -0.098261 0.351162 -0.033525
v -0.097870 0.272461 -0.037473
v -0.097954 0.337819 -0.034316
v -0.097745 0.271047 -0.038311
v -0.097974 0.344157 -0.033565
v -0.099049 0.202403 -0.043996
v -0.098186 0.371546 -0.032693
v -0.097785 0.368186 -0.032392
v -0.097637 0.330603 -0.034253
v -0.097711 0.337150 -0.033571
v -0.097895 0.371564 -0.032675
v -0.097466 0.221153 -0.041988
v -0.097316 0.263066 -0.038059
v -0.097314 0.323388 -0.034199
v -0.097320 0.316905 -0.034352
v -0.097453 0.330145 -0.033561
v -0.097335 0.364827 -0.032191
v -0.097609 0.368880 -0.032747
v -0.097662 0.371568 -0.032537
v -0.097291 0.310423 -0.034564
v -0.097618 0.366188 -0.032898
v -0.097188 0.261399 -0.038852
v -0.097196 0.323140 -0.033549
v -0.097224 0.316868 -0.033730
v -0.098530 0.195112 -0.044239
v -0.098742 0.195144 -0.044276
v -0.096942 0.206412 -0.042272
v -0.097227 0.310597 -0.033953
v -0.097111 0.212293 -0.042416
v -0.096889 0.301198 -0.034864
v -0.098322 0.195079 -0.044159
v -0.096878 0.301703 -0.034244
v -0.096780 0.253667 -0.038611
v -0.096668 0.251746 -0.039319
v -0.096973 0.359827 -0.032753
v -0.096666 0.204901 -0.042695
v -0.096168 0.292861 -0.035191
v -0.096311 0.292004 -0.035478
v -0.096269 0.244265 -0.039118
v -0.096701 0.358621 -0.032017
v -0.097746 0.184544 -0.044434
v -0.097962 0.185249 -0.044390
v -0.096147 0.197606 -0.042466
v -0.096329 0.353465 -0.032604
v -0.097497 0.183847 -0.044469
v -0.096174 0.242060 -0.039773
v -0.095822 0.283539 -0.035267
v -0.095774 0.234860 -0.039591
v -0.095666 0.282443 -0.036036
v -0.096016 0.197555 -0.042869
v -0.095937 0.346293 -0.032638
v -0.096056 0.352415 -0.031848
v -0.096391 0.372441 -0.031492
v -0.095801 0.369037 -0.030977
v -0.095709 0.345430 -0.031916
v -0.096988 0.173957 -0.044796
v -0.097277 0.175325 -0.044487
v -0.095457 0.187595 -0.042795
v -0.095235 0.226347 -0.039975
v -0.095562 0.339121 -0.032649
v -0.095671 0.232375 -0.040247
v -0.096227 0.372419 -0.031584
v -0.095193 0.274269 -0.035867
v -0.095348 0.365635 -0.030718
v -0.096741 0.172593 -0.044743
v -0.094970 0.272898 -0.036684
v -0.095377 0.338443 -0.031962
v -0.095628 0.369565 -0.031335
v -0.096144 0.372386 -0.031536
v -0.095175 0.331927 -0.032633
v -0.095379 0.366744 -0.031262
v -0.094810 0.217805 -0.040375
v -0.095502 0.186265 -0.043372
v -0.095149 0.223603 -0.040648
v -0.095052 0.331456 -0.031996
v -0.097329 0.091048 -0.036779
v -0.097067 0.088554 -0.037751
v -0.097342 0.089545 -0.036687
v -0.097013 0.092165 -0.036459
v -0.097113 0.090487 -0.036288
v -0.097043 0.088073 -0.036667
v -0.096720 0.087329 -0.037415
v -0.097150 0.092497 -0.036921
v -0.097218 0.089879 -0.038033
v -0.096781 0.093623 -0.036667
v -0.096905 0.093918 -0.037119
v -0.097305 0.093033 -0.038414
v -0.097177 0.091236 -0.038665
v -0.095882 0.090371 -0.039458
v -0.096489 0.096467 -0.037592
v -0.097008 0.095082 -0.039082
v -0.095928 0.091876 -0.039800
v -0.094578 0.264996 -0.036448
v -0.094791 0.324734 -0.032613
v -0.094804 0.318242 -0.032824
v -0.094793 0.311751 -0.033075
v -0.096887 0.165061 -0.044791
v -0.094907 0.177542 -0.043109
v -0.095837 0.088925 -0.039093
v -0.096120 0.087842 -0.038642
v -0.094782 0.318180 -0.032251
v -0.094809 0.311891 -0.032520
v -0.094733 0.324470 -0.032019
v -0.094343 0.263380 -0.037234
v -0.096541 0.095068 -0.036893
v -0.096859 0.088880 -0.036334
v -0.096619 0.093248 -0.036227
v -0.096835 0.091377 -0.036046
v -0.094727 0.214808 -0.041056
v -0.096234 0.086784 -0.038250
v -0.096859 0.086713 -0.036875
v -0.096790 0.088064 -0.036509
v -0.096570 0.086220 -0.037284
v -0.096370 0.094726 -0.036465
v -0.096042 0.099008 -0.038076
v -0.096710 0.097357 -0.039195
v -0.095984 0.093655 -0.040125
v -0.096814 0.163854 -0.044793
v -0.096476 0.162675 -0.045048
v -0.094766 0.360600 -0.031052
v -0.094338 0.208893 -0.040756
v -0.096131 0.097638 -0.037399
v -0.096575 0.153760 -0.044994
v -0.096671 0.154787 -0.044861
v -0.094567 0.167302 -0.043411
v -0.094301 0.302668 -0.033323
v -0.094169 0.303041 -0.032993
v -0.096717 0.086884 -0.036716
v -0.096596 0.085803 -0.036914
v -0.096253 0.085428 -0.037094
v -0.096535 0.089506 -0.036226
v -0.096562 0.088583 -0.036433
v -0.096209 0.094095 -0.036109
v -0.096249 0.092310 -0.035947
v -0.096339 0.152747 -0.045068
v -0.096509 0.087809 -0.036615
v -0.096119 0.096202 -0.036706
v -0.093986 0.255720 -0.036985
v -0.095071 0.174944 -0.043807
v -0.096497 0.085938 -0.036859
v -0.096467 0.086862 -0.036769
v -0.096221 0.085893 -0.037915
v -0.096385 0.099223 -0.039530
v -0.096016 0.095444 -0.040375
v -0.095767 0.100719 -0.038573
v -0.094686 0.359461 -0.030468
v -0.096476 0.146448 -0.044743
v -0.096462 0.146924 -0.044480
v -0.094372 0.157057 -0.043467
v -0.094419 0.207376 -0.041418
v -0.093764 0.253855 -0.037691
v -0.095917 0.095581 -0.036318
v -0.095994 0.085208 -0.037478
v -0.095811 0.088513 -0.037382
v -0.095878 0.087805 -0.037320
v -0.096128 0.146169 -0.044828
v -0.096309 0.090537 -0.036064
v -0.095647 0.089435 -0.037524
v -0.095581 0.098761 -0.037285
v -0.095920 0.087114 -0.037265
v -0.096408 0.086103 -0.036844
v -0.096131 0.085507 -0.037083
v -0.095549 0.100166 -0.037968
v -0.095984 0.086393 -0.037178
v -0.096241 0.139261 -0.044483
v -0.095940 0.139447 -0.044522
v -0.096255 0.139314 -0.044036
v -0.094650 0.148666 -0.043374
v -0.094691 0.164985 -0.044093
v -0.096059 0.085746 -0.037106
v -0.096084 0.101065 -0.039884
v -0.095922 0.097482 -0.040639
v -0.095513 0.102435 -0.039066
v -0.094656 0.373332 -0.030436
v -0.093842 0.369889 -0.029656
v -0.095749 0.097083 -0.036665
v -0.094429 0.155016 -0.044103
v -0.094105 0.354459 -0.030872
v -0.095970 0.093245 -0.036041
v -0.096117 0.091568 -0.035932
v -0.095442 0.090422 -0.037681
v -0.093643 0.293617 -0.033871
v -0.093420 0.246438 -0.037470
v -0.095768 0.086331 -0.038223
v -0.095752 0.085690 -0.037820
v -0.095728 0.087077 -0.038531
v -0.095836 0.094912 -0.036247
v -0.095920 0.132718 -0.044099
v -0.095589 0.132949 -0.044173
v -0.095940 0.132804 -0.043614
v -0.094909 0.140616 -0.043134
v -0.094687 0.373273 -0.030550
v -0.095511 0.096393 -0.036539
v -0.093222 0.244298 -0.038111
v -0.093593 0.294428 -0.033642
v -0.093729 0.200023 -0.041067
v -0.093742 0.370249 -0.029954
v -0.094751 0.373199 -0.030600
v -0.095870 0.085298 -0.037509
v -0.095553 0.088048 -0.038898
v -0.095191 0.099616 -0.037326
v -0.095038 0.101318 -0.037870
v -0.094727 0.147633 -0.044149
v -0.095818 0.099523 -0.040872
v -0.095807 0.102949 -0.040258
v -0.095288 0.104157 -0.039551
v -0.095627 0.085782 -0.037756
v -0.095810 0.085417 -0.037522
v -0.093989 0.353290 -0.030269
v -0.095310 0.101831 -0.038433
v -0.094560 0.093542 -0.041019
v -0.094611 0.095450 -0.041079
v -0.094001 0.199976 -0.041718
v -0.095515 0.086324 -0.038038
v -0.094468 0.091642 -0.040881
v -0.095874 0.122910 -0.043523
v -0.095867 0.126499 -0.044226
v -0.095984 0.122893 -0.044257
v -0.095736 0.119339 -0.043716
v -0.095181 0.126396 -0.044662
v -0.095737 0.119315 -0.044218
v -0.095101 0.122918 -0.045087
v -0.095112 0.092331 -0.037724
v -0.095448 0.086920 -0.038296
v -0.094357 0.090371 -0.040871
v -0.095180 0.097879 -0.036802
v -0.094662 0.097488 -0.041268
v -0.095738 0.126424 -0.043270
v -0.094963 0.134071 -0.042791
v -0.094619 0.134250 -0.043828
v -0.094914 0.140476 -0.044083
v -0.093651 0.347295 -0.030909
v -0.095344 0.087527 -0.038583
v -0.094307 0.089427 -0.041102
v -0.095645 0.118868 -0.043008
v -0.095404 0.120733 -0.042620
v -0.095322 0.089059 -0.039267
v -0.094757 0.094270 -0.037734
v -0.095195 0.088394 -0.039009
v -0.095547 0.101587 -0.041153
v -0.094690 0.099568 -0.041417
v -0.095569 0.104836 -0.040655
v -0.095062 0.105879 -0.040033
v -0.093183 0.285227 -0.033703
v -0.093385 0.366444 -0.029342
v -0.095101 0.103504 -0.038911
v -0.092877 0.237153 -0.037912
v -0.094613 0.100423 -0.037375
v -0.095212 0.114597 -0.043570
v -0.095687 0.119293 -0.044787
v -0.095541 0.117006 -0.043407
v -0.094811 0.127922 -0.042402
v -0.093610 0.346318 -0.030354
v -0.095402 0.117083 -0.044886
v -0.094826 0.119048 -0.045150
v -0.092674 0.234741 -0.038541
v -0.092950 0.284174 -0.034410
v -0.094891 0.089246 -0.039491
v -0.095474 0.114834 -0.042603
v -0.095079 0.115025 -0.041971
v -0.093176 0.367298 -0.029597
v -0.094630 0.102168 -0.037937
v -0.094095 0.128274 -0.043984
v -0.094806 0.102927 -0.038333
v -0.095376 0.103642 -0.041562
v -0.094657 0.101632 -0.041725
v -0.095212 0.107576 -0.040952
v -0.094660 0.108585 -0.040497
v -0.095422 0.109349 -0.041872
v -0.095096 0.106509 -0.042176
v -0.095541 0.106519 -0.041677
v -0.094930 0.110347 -0.041280
v -0.094860 0.103725 -0.041922
v -0.095437 0.114674 -0.043089
v -0.093198 0.340130 -0.030934
v -0.094405 0.095901 -0.037952
v -0.094854 0.105165 -0.039369
v -0.093543 0.188677 -0.042254
v -0.095226 0.111968 -0.042958
v -0.095403 0.112072 -0.042576
v -0.093205 0.189888 -0.041492
v -0.095182 0.112186 -0.041973
v -0.095294 0.109300 -0.042424
v -0.094636 0.113127 -0.041470
v -0.094945 0.109253 -0.042772
v -0.095092 0.114871 -0.045015
v -0.094593 0.115202 -0.045307
v -0.094651 0.121922 -0.042023
v -0.093238 0.339346 -0.030428
v -0.094141 0.089363 -0.041103
v -0.094542 0.104524 -0.038826
v -0.094609 0.106836 -0.039828
v -0.094638 0.106518 -0.042648
v -0.094826 0.111888 -0.043597
v -0.092308 0.228732 -0.038280
v -0.094345 0.111312 -0.040914
v -0.095021 0.114689 -0.044480
v -0.095055 0.114507 -0.044052
v -0.094073 0.097541 -0.038177
v -0.094205 0.102937 -0.038211
v -0.094505 0.115929 -0.041624
v -0.094573 0.120951 -0.044838
v -0.093787 0.122129 -0.044415
v -0.092501 0.276080 -0.034292
v -0.092752 0.332955 -0.030950
v -0.092104 0.226067 -0.038926
v -0.094481 0.091464 -0.039467
v -0.094299 0.106127 -0.039320
v -0.094296 0.103753 -0.042692
v -0.094665 0.112254 -0.045364
v -0.094175 0.109518 -0.040332
v -0.094710 0.112010 -0.044755
v -0.094718 0.111775 -0.044192
v -0.093217 0.177331 -0.042766
v -0.092865 0.332374 -0.030504
v -0.094369 0.103702 -0.038473
v -0.093312 0.141938 -0.042238
v -0.093555 0.135533 -0.041997
v -0.092194 0.274750 -0.035059
v -0.094525 0.109149 -0.043541
v -0.094105 0.114064 -0.041194
v -0.093127 0.149284 -0.043280
v -0.093498 0.135711 -0.043271
v -0.093709 0.141649 -0.043461
v -0.092759 0.150472 -0.042298
v -0.092765 0.179715 -0.041894
v -0.094011 0.089313 -0.041184
v -0.094165 0.101656 -0.042786
v -0.094090 0.107755 -0.039726
v -0.094033 0.115508 -0.045103
v -0.094196 0.105292 -0.038937
v -0.093715 0.129364 -0.041749
v -0.091825 0.220290 -0.038665
v -0.092568 0.319133 -0.030887
v -0.092625 0.312830 -0.031195
v -0.092251 0.319262 -0.031229
v -0.092307 0.325816 -0.031005
v -0.092186 0.312709 -0.031486
v -0.092507 0.325435 -0.030609
v -0.094076 0.093683 -0.039446
v -0.092534 0.361373 -0.029283
v -0.093733 0.370038 -0.029804
v -0.094413 0.109324 -0.045014
v -0.094494 0.109026 -0.044316
v -0.094219 0.109627 -0.045684
v -0.092390 0.157316 -0.043003
v -0.091637 0.217367 -0.039323
v -0.093900 0.097437 -0.042684
v -0.093975 0.099528 -0.042775
v -0.092731 0.167329 -0.043010
v -0.092691 0.360303 -0.028973
v -0.093849 0.095345 -0.042598
v -0.093809 0.112231 -0.040739
v -0.094226 0.112528 -0.045489
v -0.093820 0.123106 -0.041556
v -0.092254 0.159280 -0.042301
v -0.093983 0.104459 -0.038725
v -0.094315 0.106490 -0.043641
v -0.093941 0.116831 -0.041336
v -0.093848 0.093351 -0.042578
v -0.093704 0.100021 -0.038627
v -0.093639 0.110422 -0.040278
v -0.093141 0.129950 -0.043349
v -0.093758 0.091358 -0.042536
v -0.093434 0.115960 -0.044847
v -0.092434 0.169502 -0.042217
v -0.091827 0.266930 -0.034863
v -0.093899 0.106850 -0.039378
v -0.094044 0.106771 -0.045320
v -0.094218 0.106474 -0.044509
v -0.093650 0.091206 -0.041297
v -0.093565 0.090281 -0.042763
v -0.093676 0.095454 -0.039606
v -0.093789 0.107072 -0.046109
v -0.091401 0.209913 -0.039764
v -0.093745 0.105992 -0.039183
v -0.093303 0.089214 -0.042966
v -0.093508 0.114958 -0.040969
v -0.091417 0.211369 -0.039120
v -0.091499 0.265362 -0.035617
v -0.094181 0.103828 -0.043736
v -0.093634 0.108428 -0.039795
v -0.091808 0.303738 -0.031811
v -0.093980 0.103915 -0.044715
v -0.093673 0.104216 -0.045644
v -0.093783 0.109903 -0.045978
v -0.093655 0.112777 -0.045389
v -0.093548 0.102476 -0.039249
v -0.093461 0.107537 -0.039566
v -0.094005 0.101712 -0.043866
v -0.093238 0.113135 -0.040637
v -0.091863 0.304088 -0.031581
v -0.093215 0.089087 -0.042971
v -0.093167 0.111103 -0.040312
v -0.093283 0.117708 -0.041039
v -0.093019 0.123299 -0.043895
v -0.091837 0.355450 -0.029033
v -0.093346 0.093255 -0.041372
v -0.093409 0.097250 -0.039812
v -0.093398 0.104513 -0.046572
v -0.093186 0.113508 -0.045125
v -0.093024 0.089064 -0.042950
v -0.093773 0.099579 -0.044007
v -0.093694 0.101783 -0.044949
v -0.091093 0.202484 -0.040164
v -0.093305 0.102118 -0.046081
v -0.093415 0.104110 -0.039555
v -0.091177 0.257775 -0.035388
v -0.091906 0.354166 -0.028732
v -0.092841 0.124240 -0.041062
v -0.093550 0.097488 -0.044081
v -0.093163 0.109087 -0.039921
v -0.093334 0.093235 -0.044367
v -0.093090 0.091084 -0.044487
v -0.093386 0.095388 -0.044173
v -0.092410 0.130754 -0.041109
v -0.092904 0.115857 -0.040758
v -0.093489 0.107557 -0.046555
v -0.093194 0.110086 -0.045871
v -0.092866 0.116408 -0.044558
v -0.092802 0.089767 -0.044732
v -0.093402 0.099654 -0.045188
v -0.090859 0.255964 -0.036066
v -0.093187 0.105743 -0.039815
v -0.090917 0.202483 -0.039555
v -0.093296 0.366918 -0.029472
v -0.093253 0.099629 -0.040089
v -0.093003 0.100021 -0.046550
v -0.092086 0.137094 -0.041267
v -0.092114 0.137130 -0.042516
v -0.091215 0.151319 -0.042208
v -0.092040 0.143342 -0.042549
v -0.093131 0.095239 -0.041491
v -0.093054 0.102441 -0.047246
v -0.092759 0.090941 -0.043096
v -0.092730 0.111777 -0.040370
v -0.092774 0.113822 -0.040565
v -0.092873 0.111074 -0.045507
v -0.091285 0.294795 -0.032429
v -0.091320 0.348294 -0.029097
v -0.091489 0.347208 -0.028820
v -0.091190 0.295582 -0.032160
v -0.092625 0.088648 -0.044978
v -0.093145 0.097544 -0.045463
v -0.093240 0.102013 -0.040390
v -0.091749 0.143552 -0.041424
v -0.090826 0.191153 -0.040776
v -0.093248 0.105208 -0.047261
v -0.092822 0.107932 -0.046671
v -0.092613 0.118583 -0.040762
v -0.092093 0.130967 -0.042705
v -0.092924 0.107282 -0.040099
v -0.092729 0.114227 -0.044803
v -0.092919 0.097223 -0.041618
v -0.092727 0.097932 -0.047053
v -0.093103 0.103760 -0.040491
v -0.090557 0.248614 -0.035852
v -0.092719 0.093118 -0.046108
v -0.092911 0.095432 -0.045744
v -0.092537 0.092822 -0.043266
v -0.092420 0.090810 -0.046438
v -0.091136 0.087365 -0.049413
v -0.092739 0.100372 -0.047947
v -0.091007 0.152380 -0.041343
v -0.092551 0.360761 -0.029041
v -0.091832 0.125372 -0.040621
v -0.092812 0.099637 -0.041664
v -0.092645 0.102055 -0.041677
v -0.092905 0.103023 -0.048302
v -0.092430 0.105928 -0.047758
v -0.092357 0.116538 -0.040598
v -0.091077 0.340249 -0.028902
v -0.091517 0.087976 -0.047252
v -0.090106 0.086908 -0.051703
v -0.090263 0.086843 -0.051754
v -0.090615 0.179788 -0.041358
v -0.090265 0.246536 -0.036457
v -0.092863 0.105510 -0.040551
v -0.092666 0.108826 -0.040388
v -0.092642 0.108656 -0.046290
v -0.092301 0.114507 -0.040526
v -0.092539 0.112060 -0.045124
v -0.090641 0.192241 -0.040082
v -0.090596 0.286437 -0.032839
v -0.090802 0.341139 -0.029162
v -0.092357 0.094997 -0.043296
v -0.092512 0.095842 -0.047563
v -0.092188 0.124104 -0.043344
v -0.090316 0.159431 -0.041892
v -0.092497 0.103717 -0.041579
v -0.092073 0.089247 -0.046712
v -0.092198 0.117158 -0.044098
v -0.092456 0.098310 -0.048665
v -0.090704 0.285367 -0.033043
v -0.092243 0.093351 -0.048168
v -0.092236 0.097178 -0.043350
v -0.092588 0.100853 -0.049421
v -0.092360 0.103661 -0.049331
v -0.092607 0.107043 -0.040743
v -0.091986 0.119259 -0.040512
v -0.092163 0.106979 -0.041511
v -0.092337 0.105379 -0.041475
v -0.092473 0.109434 -0.045898
v -0.092093 0.114904 -0.044328
v -0.089964 0.239448 -0.036263
v -0.090639 0.333294 -0.029053
v -0.091087 0.132107 -0.040549
v -0.092248 0.099639 -0.043201
v -0.092274 0.106456 -0.047431
v -0.091860 0.087959 -0.047253
v -0.091323 0.090367 -0.046900
v -0.091824 0.117229 -0.040566
v -0.090245 0.161348 -0.041247
v -0.090392 0.181972 -0.040596
v -0.090333 0.333981 -0.029208
v -0.091827 0.090886 -0.048745
v -0.092237 0.096245 -0.049381
v -0.092408 0.111669 -0.040616
v -0.091966 0.112650 -0.044552
v -0.090397 0.169614 -0.041737
v -0.092400 0.108581 -0.040958
v -0.089673 0.237108 -0.036844
v -0.092102 0.102102 -0.042996
v -0.092131 0.106984 -0.047112
v -0.090211 0.320103 -0.029453
v -0.090296 0.313787 -0.029790
v -0.092046 0.108591 -0.041608
v -0.091044 0.126145 -0.040342
v -0.092353 0.098942 -0.050345
v -0.092304 0.101346 -0.050876
v -0.090139 0.326417 -0.029114
v -0.091842 0.354829 -0.028873
v -0.091385 0.092780 -0.046502
v -0.092124 0.109814 -0.045523
v -0.091952 0.093576 -0.050253
v -0.091904 0.103667 -0.042677
v -0.090256 0.277432 -0.033046
v -0.091901 0.107156 -0.046914
v -0.091471 0.089083 -0.049080
v -0.091536 0.104268 -0.049090
v -0.091454 0.107528 -0.046248
v -0.091655 0.106084 -0.047672
v -0.092153 0.111545 -0.041044
v -0.091984 0.111560 -0.041549
v -0.092010 0.114499 -0.040742
v -0.090639 0.138641 -0.040604
v -0.090247 0.171664 -0.041026
v -0.091426 0.095108 -0.046062
v -0.092068 0.099611 -0.052063
v -0.092148 0.097039 -0.051282
v -0.091440 0.102431 -0.050511
v -0.091293 0.119929 -0.040419
v -0.091762 0.106916 -0.042318
v -0.091802 0.105248 -0.042393
v -0.090981 0.100489 -0.051860
v -0.091637 0.116668 -0.040734
v -0.089389 0.231114 -0.036616
v -0.089750 0.326909 -0.029255
v -0.091580 0.090911 -0.051119
v -0.091808 0.094370 -0.052272
v -0.091536 0.097437 -0.045629
v -0.091634 0.099855 -0.045123
v -0.089642 0.320292 -0.029505
v -0.091574 0.117902 -0.043588
v -0.091515 0.115566 -0.043775
v -0.091369 0.124908 -0.042780
v -0.090020 0.276097 -0.033811
v -0.089511 0.313676 -0.029785
v -0.091778 0.097854 -0.053194
v -0.091474 0.095185 -0.054280
v -0.091824 0.108597 -0.042291
v -0.091808 0.114503 -0.041094
v -0.091667 0.114513 -0.041404
v -0.091596 0.102272 -0.044581
v -0.091845 0.110181 -0.045129
v -0.091686 0.107299 -0.046682
v -0.091490 0.113227 -0.043936
v -0.091045 0.131882 -0.042056
v -0.090229 0.145173 -0.040654
v -0.090763 0.138516 -0.041770
v -0.089086 0.228524 -0.037210
v -0.090707 0.098417 -0.053035
v -0.091807 0.111575 -0.042061
v -0.089342 0.153347 -0.041178
v -0.090402 0.145161 -0.041636
v -0.091529 0.116125 -0.041051
v -0.091529 0.114518 -0.041723
v -0.090237 0.126914 -0.040212
v -0.091421 0.091707 -0.053241
v -0.091588 0.103815 -0.044061
v -0.089537 0.305138 -0.030122
v -0.091178 0.088836 -0.051478
v -0.091621 0.108585 -0.043092
v -0.091660 0.110618 -0.044663
v -0.091267 0.118834 -0.040674
v -0.090129 0.133015 -0.040193
v -0.088838 0.222773 -0.036982
v -0.089651 0.268315 -0.033648
v -0.091419 0.347793 -0.028925
v -0.091082 0.092519 -0.055335
v -0.091572 0.106974 -0.043312
v -0.091556 0.105360 -0.043534
v -0.091612 0.111575 -0.042617
v -0.090991 0.117780 -0.041357
v -0.089312 0.304857 -0.030424
v -0.090346 0.095717 -0.054267
v -0.089228 0.154286 -0.040433
v -0.090739 0.104418 -0.048264
v -0.090988 0.105918 -0.047142
v -0.091483 0.111128 -0.044258
v -0.091306 0.107725 -0.045788
v -0.091229 0.113902 -0.043502
v -0.091032 0.100069 -0.047053
v -0.090978 0.097695 -0.047945
v -0.091263 0.117744 -0.040951
v -0.088559 0.219925 -0.037585
v -0.091410 0.108573 -0.043893
v -0.091364 0.114520 -0.042012
v -0.091384 0.111567 -0.043153
v -0.091000 0.088967 -0.053718
v -0.091148 0.102444 -0.046179
v -0.091294 0.103961 -0.045438
v -0.091372 0.107022 -0.044280
v -0.091062 0.116410 -0.043248
v -0.090939 0.118916 -0.042993
v -0.091398 0.105474 -0.044684
v -0.090949 0.095218 -0.048923
v -0.090493 0.102918 -0.049386
v -0.090448 0.086867 -0.051832
v -0.090092 0.092930 -0.055304
v -0.091327 0.111361 -0.043791
v -0.091080 0.114548 -0.042715
v -0.091041 0.114579 -0.043040
v -0.089297 0.266776 -0.034374
v -0.091165 0.106810 -0.046456
v -0.090110 0.100717 -0.050731
v -0.090672 0.089132 -0.055884
v -0.090776 0.092736 -0.049890
v -0.091146 0.106925 -0.045350
v -0.090861 0.104188 -0.046834
v -0.091019 0.105698 -0.045878
v -0.091296 0.108164 -0.044850
v -0.088382 0.212452 -0.038077
v -0.088488 0.213849 -0.037486
v -0.090936 0.340778 -0.029023
v -0.090509 0.089821 -0.050813
v -0.091198 0.114528 -0.042333
v -0.090473 0.125818 -0.042129
v -0.090760 0.102683 -0.047776
v -0.090814 0.118830 -0.041280
v -0.090645 0.119897 -0.041224
v -0.089760 0.126794 -0.040679
v -0.088843 0.295983 -0.030854
v -0.088238 0.161545 -0.040790
v -0.090953 0.116164 -0.042012
v -0.088926 0.296702 -0.030568
v -0.090242 0.086345 -0.054073
v -0.088952 0.259252 -0.034159
v -0.090624 0.100392 -0.048900
v -0.089972 0.089166 -0.056097
v -0.090643 0.116667 -0.042358
v -0.089599 0.139604 -0.040165
v -0.088147 0.205000 -0.038607
v -0.090654 0.117254 -0.042726
v -0.090520 0.098112 -0.050046
v -0.089221 0.133866 -0.039940
v -0.089923 0.132717 -0.041354
v -0.090336 0.085571 -0.056118
v -0.090350 0.095529 -0.051202
v -0.089924 0.098515 -0.052096
v -0.090721 0.117811 -0.041718
v -0.088220 0.163416 -0.040222
v -0.090106 0.092941 -0.052332
v -0.090366 0.119926 -0.042338
v -0.090479 0.333673 -0.029077
v -0.088063 0.204952 -0.038058
v -0.088565 0.257478 -0.034799
v -0.088074 0.193633 -0.039322
v -0.090356 0.118830 -0.041937
v -0.089869 0.089560 -0.053060
v -0.089582 0.139509 -0.041110
v -0.089652 0.095824 -0.053415
v -0.088606 0.286876 -0.031662
v -0.090064 0.085516 -0.056170
v -0.089682 0.126726 -0.041443
v -0.089115 0.146177 -0.040099
v -0.088027 0.194600 -0.038725
v -0.088027 0.182241 -0.039959
v -0.088357 0.287596 -0.031316
v -0.088290 0.250182 -0.034607
v -0.090014 0.086187 -0.053934
v -0.089941 0.326730 -0.029141
v -0.089224 0.146293 -0.040966
v -0.088159 0.154610 -0.040545
v -0.088073 0.171897 -0.040462
v -0.088002 0.184230 -0.039320
v -0.090108 0.086260 -0.054030
v -0.089320 0.093136 -0.054721
v -0.089902 0.320192 -0.029433
v -0.089879 0.313812 -0.029754
v -0.088908 0.133691 -0.040019
v -0.087952 0.155453 -0.039825
v -0.088051 0.173826 -0.039850
v -0.087929 0.248149 -0.035172
v -0.087916 0.278807 -0.031967
v -0.088543 0.140549 -0.039818
v -0.089061 0.089306 -0.055234
v -0.089913 0.085446 -0.056161
v -0.087730 0.277502 -0.032526
v -0.087657 0.241107 -0.034996
v -0.088819 0.133514 -0.040647
v -0.089376 0.305041 -0.030260
v -0.087302 0.238819 -0.035526
v -0.087426 0.269711 -0.032562
v -0.087947 0.147197 -0.039657
v -0.088407 0.140482 -0.040459
v -0.087078 0.232839 -0.035337
v -0.088874 0.296346 -0.030706
v -0.087068 0.162927 -0.040170
v -0.087094 0.268190 -0.033133
v -0.088406 0.140517 -0.040101
v -0.088048 0.147438 -0.040285
v -0.086973 0.155873 -0.039917
v -0.086796 0.164726 -0.039531
v -0.086659 0.156621 -0.039413
v -0.086714 0.230302 -0.035876
v -0.086699 0.260734 -0.032990
v -0.088394 0.287074 -0.031434
v -0.086495 0.224571 -0.035692
v -0.087747 0.278146 -0.032220
v -0.086143 0.221781 -0.036228
v -0.086272 0.258992 -0.033533
v -0.087891 0.147314 -0.040031
v -0.086219 0.215616 -0.036244
v -0.086121 0.214251 -0.036795
v -0.085994 0.251755 -0.033429
v -0.086570 0.173407 -0.039624
v -0.086451 0.175232 -0.039019
v -0.085910 0.164309 -0.039528
v -0.086035 0.206741 -0.037462
v -0.086171 0.183882 -0.038950
v -0.086081 0.195321 -0.038288
v -0.085872 0.206680 -0.036918
v -0.086203 0.185732 -0.038387
v -0.086019 0.196215 -0.037737
v -0.086793 0.156231 -0.039687
v -0.085354 0.166036 -0.038875
v -0.085593 0.249762 -0.033886
v -0.087125 0.268986 -0.032773
v -0.085324 0.242770 -0.033780
v -0.084932 0.240530 -0.034206
v -0.086386 0.259917 -0.033166
v -0.085080 0.174917 -0.038765
v -0.084728 0.234570 -0.034131
v -0.085575 0.165175 -0.039169
v -0.084839 0.176638 -0.038212
v -0.084341 0.232080 -0.034543
v -0.084315 0.185521 -0.038112
v -0.084124 0.226371 -0.034512
v -0.084379 0.187238 -0.037498
v -0.085785 0.250789 -0.033646
v -0.083927 0.217244 -0.035038
v -0.084021 0.197771 -0.036703
v -0.084091 0.197009 -0.037221
v -0.083753 0.223630 -0.034876
v -0.083824 0.216047 -0.035645
v -0.083958 0.208476 -0.036251
v -0.083744 0.208461 -0.035778
v -0.085078 0.241592 -0.033944
v -0.084959 0.175755 -0.038429
v -0.084485 0.233359 -0.034327
v -0.084272 0.186385 -0.037806
v -0.083919 0.225033 -0.034693
v -0.083991 0.197414 -0.036996
v -0.083778 0.208415 -0.036050
v -0.083904 0.216727 -0.035319
usemtl Interosseous_membrane_of_leg_rMaterial0
f 1 2 3
f 4 1 3
f 1 5 2
f 6 5 1
f 4 6 1
f 3 2 7
f 3 7 8
f 9 3 8
f 9 4 3
f 5 10 2
f 5 11 10
f 12 11 5
f 6 12 5
f 2 10 13
f 2 13 7
f 14 10 11
f 15 13 10
f 15 10 14
f 14 11 16
f 12 16 11
f 17 8 7
f 9 8 17
f 7 13 18
f 15 18 13
f 17 7 19
f 19 7 18
f 17 19 20
f 19 18 21
f 19 21 20
f 22 17 20
f 23 17 22
f 22 24 25
f 26 22 25
f 22 20 24
f 23 22 26
f 9 17 23
f 25 27 28
f 29 25 28
f 25 24 27
f 26 25 29
f 30 21 18
f 15 30 18
f 20 21 31
f 20 31 24
f 28 32 33
f 34 28 33
f 28 27 32
f 29 28 34
f 35 31 21
f 30 35 21
f 24 31 36
f 24 36 27
f 37 38 39
f 40 37 39
f 41 42 37
f 43 41 37
f 37 42 38
f 43 37 40
f 39 44 45
f 46 39 45
f 39 38 44
f 40 39 46
f 33 47 41
f 48 33 41
f 33 32 47
f 34 33 48
f 41 47 42
f 48 41 43
f 45 49 50
f 51 45 50
f 45 44 49
f 46 45 51
f 52 36 31
f 35 52 31
f 27 53 32
f 27 36 53
f 50 49 54
f 50 54 55
f 56 50 55
f 51 50 56
f 42 57 38
f 38 58 44
f 38 57 58
f 47 59 42
f 42 59 57
f 32 60 47
f 32 53 60
f 44 61 49
f 44 58 61
f 47 60 59
f 62 53 36
f 52 62 36
f 49 61 63
f 49 63 54
f 64 58 57
f 65 57 59
f 65 64 57
f 66 61 58
f 64 66 58
f 67 59 60
f 67 65 59
f 68 60 53
f 62 68 53
f 69 6 4
f 70 4 9
f 70 69 4
f 68 67 60
f 71 63 61
f 66 71 61
f 55 54 72
f 55 72 73
f 74 55 73
f 56 55 74
f 54 63 75
f 54 75 72
f 76 15 14
f 77 14 16
f 76 14 77
f 78 12 6
f 69 78 6
f 76 30 15
f 79 16 12
f 78 79 12
f 79 80 16
f 77 16 80
f 70 9 23
f 81 75 63
f 71 81 63
f 73 72 82
f 72 75 83
f 72 83 82
f 73 82 84
f 85 73 84
f 74 73 85
f 86 35 30
f 76 86 30
f 87 23 26
f 70 23 87
f 88 83 75
f 81 88 75
f 84 82 89
f 84 89 90
f 91 84 90
f 85 84 91
f 82 83 92
f 82 92 89
f 93 26 29
f 87 26 93
f 94 52 35
f 86 94 35
f 95 29 34
f 93 29 95
f 96 92 83
f 88 96 83
f 90 89 97
f 90 97 98
f 99 90 98
f 91 90 99
f 100 34 48
f 95 34 100
f 101 62 52
f 94 101 52
f 89 92 102
f 89 102 97
f 103 48 43
f 100 48 103
f 104 43 40
f 105 40 46
f 104 40 105
f 103 43 104
f 106 68 62
f 101 106 62
f 107 46 51
f 105 46 107
f 108 79 78
f 78 69 109
f 78 109 108
f 98 97 110
f 98 110 111
f 112 98 111
f 99 98 112
f 113 67 68
f 106 113 68
f 114 80 79
f 108 114 79
f 115 102 92
f 96 115 92
f 77 116 76
f 116 86 76
f 117 51 56
f 107 51 117
f 118 64 65
f 119 66 64
f 118 119 64
f 120 65 67
f 120 118 65
f 80 121 77
f 77 121 116
f 114 122 80
f 80 122 121
f 113 120 67
f 69 70 123
f 69 123 109
f 97 102 124
f 97 124 110
f 125 71 66
f 119 125 66
f 111 110 126
f 111 126 127
f 128 111 127
f 112 111 128
f 129 56 74
f 117 56 129
f 123 70 87
f 130 94 86
f 116 130 86
f 131 81 71
f 125 131 71
f 132 124 102
f 115 132 102
f 110 133 126
f 110 124 133
f 127 134 135
f 136 127 135
f 127 126 134
f 128 127 136
f 137 74 85
f 129 74 137
f 138 87 93
f 123 87 138
f 139 101 94
f 130 139 94
f 140 88 81
f 131 140 81
f 135 134 141
f 135 141 142
f 143 135 142
f 136 135 143
f 144 106 101
f 139 144 101
f 126 145 134
f 126 133 145
f 146 133 124
f 132 146 124
f 147 93 95
f 138 93 147
f 148 85 91
f 137 85 148
f 149 113 106
f 144 149 106
f 150 96 88
f 140 150 88
f 151 95 100
f 147 95 151
f 134 145 152
f 134 152 141
f 153 114 108
f 108 109 154
f 108 154 153
f 155 120 113
f 149 155 113
f 156 100 103
f 151 100 156
f 157 122 114
f 153 157 114
f 158 145 133
f 146 158 133
f 159 91 99
f 148 91 159
f 160 118 120
f 161 119 118
f 160 161 118
f 155 160 120
f 162 103 104
f 156 103 162
f 109 123 163
f 109 163 154
f 122 164 121
f 157 165 122
f 122 165 164
f 166 125 119
f 161 166 119
f 121 167 116
f 167 130 116
f 121 164 167
f 168 115 96
f 150 168 96
f 169 104 105
f 170 105 107
f 169 105 170
f 162 104 169
f 142 141 171
f 142 171 172
f 173 142 172
f 143 142 173
f 174 107 117
f 170 107 174
f 175 152 145
f 158 175 145
f 176 131 125
f 166 176 125
f 141 152 177
f 141 177 171
f 163 123 138
f 178 117 129
f 174 117 178
f 179 99 112
f 159 99 179
f 180 132 115
f 168 180 115
f 181 139 130
f 167 181 130
f 182 177 152
f 175 182 152
f 183 129 137
f 178 129 183
f 184 140 131
f 176 184 131
f 185 112 128
f 179 112 185
f 186 138 147
f 163 138 186
f 172 171 187
f 172 187 188
f 189 172 188
f 173 172 189
f 190 144 139
f 181 190 139
f 171 177 191
f 171 191 187
f 192 146 132
f 180 192 132
f 193 137 148
f 183 137 193
f 194 128 136
f 185 128 194
f 195 150 140
f 184 195 140
f 196 191 177
f 182 196 177
f 197 149 144
f 190 197 144
f 198 147 151
f 186 147 198
f 199 157 153
f 153 154 200
f 153 200 199
f 201 151 156
f 198 151 201
f 188 187 202
f 188 202 203
f 204 188 203
f 189 188 204
f 205 136 143
f 194 136 205
f 206 155 149
f 197 206 149
f 207 158 146
f 192 207 146
f 208 165 157
f 199 208 157
f 209 148 159
f 193 148 209
f 154 163 210
f 154 210 200
f 187 191 211
f 187 211 202
f 212 168 150
f 195 212 150
f 213 156 162
f 201 156 213
f 165 214 164
f 208 215 165
f 165 215 214
f 216 160 155
f 206 216 155
f 164 217 167
f 217 181 167
f 164 214 217
f 218 143 173
f 205 143 218
f 219 211 191
f 196 219 191
f 220 175 158
f 207 220 158
f 221 162 169
f 213 162 221
f 222 223 224
f 225 222 224
f 226 224 227
f 225 224 226
f 224 223 228
f 224 228 227
f 229 230 222
f 222 230 223
f 231 229 222
f 231 222 225
f 232 233 234
f 233 235 234
f 236 237 233
f 237 238 233
f 236 233 232
f 233 238 235
f 239 159 179
f 209 159 239
f 240 161 160
f 241 166 161
f 240 241 161
f 216 240 160
f 210 163 186
f 242 176 166
f 241 242 166
f 243 203 202
f 244 203 243
f 204 203 244
f 229 234 230
f 234 245 230
f 230 246 223
f 230 245 246
f 247 170 174
f 248 174 178
f 247 174 248
f 249 169 170
f 249 170 247
f 250 180 168
f 212 250 168
f 221 169 249
f 232 234 229
f 234 235 245
f 251 232 229
f 251 229 231
f 226 227 252
f 253 225 226
f 254 226 252
f 253 226 254
f 255 182 175
f 220 255 175
f 223 256 228
f 223 246 256
f 257 258 227
f 227 259 257
f 252 227 258
f 227 228 259
f 260 231 225
f 260 225 253
f 261 262 237
f 262 263 237
f 261 237 236
f 237 263 238
f 243 202 264
f 202 265 264
f 202 211 265
f 266 190 181
f 217 266 181
f 267 173 189
f 218 173 267
f 268 232 251
f 268 236 232
f 243 264 269
f 243 269 270
f 271 243 270
f 244 243 271
f 272 184 176
f 242 272 176
f 273 178 183
f 248 178 273
f 257 274 258
f 275 274 257
f 257 276 275
f 257 259 276
f 254 252 277
f 278 252 258
f 277 252 278
f 279 253 254
f 280 254 277
f 279 254 280
f 264 281 269
f 264 265 281
f 274 282 258
f 278 258 282
f 283 251 231
f 283 231 260
f 284 179 185
f 239 179 284
f 285 265 211
f 219 285 211
f 275 286 274
f 274 287 282
f 286 287 274
f 228 288 259
f 228 256 288
f 289 290 262
f 291 289 262
f 291 262 261
f 262 290 263
f 292 186 198
f 210 186 292
f 270 269 293
f 270 293 294
f 295 270 294
f 271 270 295
f 296 196 182
f 255 296 182
f 297 192 180
f 250 297 180
f 298 260 253
f 298 253 279
f 276 286 275
f 259 299 276
f 259 288 299
f 300 277 278
f 301 278 282
f 300 278 301
f 269 302 293
f 269 281 302
f 280 277 303
f 304 303 277
f 304 277 300
f 305 251 283
f 305 268 251
f 306 282 287
f 301 282 306
f 286 307 287
f 308 307 286
f 276 308 286
f 309 236 268
f 309 261 236
f 310 287 307
f 306 287 310
f 294 293 311
f 293 312 311
f 293 302 312
f 294 311 313
f 314 294 313
f 295 294 314
f 315 281 265
f 285 315 265
f 308 316 307
f 310 307 316
f 317 318 289
f 319 317 289
f 289 318 290
f 319 289 291
f 320 208 199
f 199 200 321
f 199 321 320
f 322 283 260
f 322 260 298
f 323 302 281
f 315 323 281
f 324 197 190
f 266 324 190
f 325 280 303
f 325 303 326
f 327 326 303
f 327 303 304
f 328 195 184
f 272 328 184
f 329 185 194
f 284 185 329
f 299 308 276
f 330 288 256
f 331 299 288
f 331 288 330
f 246 332 256
f 330 256 332
f 333 279 280
f 333 280 325
f 313 311 334
f 311 335 334
f 311 312 335
f 313 334 336
f 337 313 336
f 314 313 337
f 338 215 208
f 320 338 208
f 339 298 279
f 339 279 333
f 340 207 192
f 297 340 192
f 341 183 193
f 273 183 341
f 342 189 204
f 267 189 342
f 215 343 214
f 338 344 215
f 215 344 343
f 345 316 308
f 299 345 308
f 245 346 246
f 246 346 332
f 325 326 327
f 347 283 322
f 347 305 283
f 348 268 305
f 348 309 268
f 349 312 302
f 323 349 302
f 317 350 318
f 351 350 317
f 352 351 317
f 352 317 319
f 353 310 316
f 345 354 316
f 353 316 354
f 355 198 201
f 292 198 355
f 356 291 261
f 356 261 309
f 290 357 263
f 318 358 290
f 290 358 357
f 359 219 196
f 296 359 196
f 331 345 299
f 360 306 310
f 360 310 353
f 263 361 238
f 263 357 361
f 362 363 364
f 365 362 364
f 364 363 366
f 365 364 367
f 367 364 368
f 364 366 368
f 333 325 369
f 325 327 369
f 370 301 306
f 370 306 360
f 238 371 235
f 238 361 371
f 372 322 298
f 372 298 339
f 350 373 318
f 318 373 358
f 336 334 363
f 334 366 363
f 334 335 366
f 336 363 374
f 375 336 374
f 337 336 375
f 312 376 335
f 349 377 312
f 312 377 376
f 378 206 197
f 324 378 197
f 353 354 345
f 331 353 345
f 379 300 301
f 379 301 370
f 235 380 245
f 235 371 380
f 362 374 363
f 381 362 365
f 382 374 362
f 382 362 381
f 245 383 346
f 380 383 245
f 339 333 384
f 333 369 384
f 385 304 300
f 385 300 379
f 351 386 350
f 386 387 350
f 350 387 373
f 388 386 351
f 389 388 351
f 389 351 352
f 390 193 209
f 341 193 390
f 200 210 391
f 200 391 321
f 360 331 330
f 370 330 332
f 360 330 370
f 392 319 291
f 392 291 356
f 393 194 205
f 329 194 393
f 360 353 331
f 394 322 372
f 394 347 322
f 346 379 332
f 370 332 379
f 395 365 367
f 395 367 396
f 367 368 396
f 381 365 397
f 395 397 365
f 398 374 382
f 375 374 398
f 399 201 213
f 355 201 399
f 395 396 400
f 396 401 400
f 396 368 401
f 402 220 207
f 340 402 207
f 403 212 195
f 328 403 195
f 404 327 304
f 404 304 385
f 405 381 397
f 406 381 405
f 406 382 381
f 214 407 217
f 214 343 407
f 408 305 347
f 408 348 305
f 335 409 366
f 335 376 409
f 346 385 379
f 383 385 346
f 410 356 309
f 410 309 348
f 388 411 386
f 411 412 386
f 386 412 387
f 413 411 388
f 414 413 388
f 414 388 389
f 415 416 417
f 418 415 417
f 413 417 411
f 417 419 411
f 418 417 413
f 417 416 419
f 405 397 420
f 395 420 397
f 421 216 206
f 378 421 206
f 372 339 422
f 339 384 422
f 423 352 319
f 423 319 392
f 424 285 219
f 359 424 219
f 405 420 425
f 405 425 426
f 406 405 426
f 369 327 404
f 425 420 395
f 427 204 244
f 342 204 427
f 428 429 415
f 415 429 416
f 430 428 415
f 430 415 418
f 428 426 429
f 426 431 429
f 426 425 431
f 406 426 428
f 395 400 432
f 400 433 432
f 400 401 433
f 434 382 406
f 398 382 434
f 411 419 412
f 435 213 221
f 399 213 435
f 407 266 217
f 391 210 292
f 383 404 385
f 436 404 383
f 380 436 383
f 437 392 356
f 437 356 410
f 438 389 352
f 438 352 423
f 429 439 416
f 429 431 439
f 425 395 440
f 431 425 440
f 441 205 218
f 393 205 441
f 442 418 413
f 442 413 414
f 395 432 443
f 395 443 444
f 440 395 444
f 394 372 445
f 372 422 445
f 446 408 347
f 446 347 394
f 447 406 428
f 447 428 430
f 368 366 448
f 366 449 448
f 366 409 449
f 450 209 239
f 390 209 450
f 451 240 216
f 421 451 216
f 452 255 220
f 402 452 220
f 369 404 453
f 384 369 453
f 454 423 392
f 454 392 437
f 416 455 419
f 416 439 455
f 443 432 456
f 456 432 433
f 368 448 401
f 457 414 389
f 457 389 438
f 444 443 458
f 440 444 459
f 444 458 459
f 434 406 447
f 460 315 285
f 424 460 285
f 461 221 249
f 435 221 461
f 462 410 348
f 462 348 408
f 443 456 458
f 463 337 375
f 464 375 398
f 463 375 464
f 465 250 212
f 403 465 212
f 431 440 466
f 439 431 466
f 467 430 418
f 467 418 442
f 468 377 349
f 377 469 376
f 377 470 469
f 468 470 377
f 471 314 337
f 471 337 463
f 472 244 271
f 427 244 472
f 453 404 473
f 436 473 404
f 419 474 412
f 419 455 474
f 475 438 423
f 475 423 454
f 466 440 459
f 401 476 433
f 401 448 476
f 477 437 410
f 477 410 462
f 478 398 434
f 464 398 478
f 479 218 267
f 441 218 479
f 480 247 248
f 481 248 273
f 480 248 481
f 482 242 241
f 483 241 240
f 483 482 241
f 484 272 242
f 482 484 242
f 485 249 247
f 485 247 480
f 451 483 240
f 384 453 486
f 422 384 486
f 487 324 266
f 407 487 266
f 488 344 338
f 488 343 344
f 459 458 489
f 466 459 490
f 459 489 490
f 458 456 491
f 458 491 489
f 492 349 323
f 492 468 349
f 493 296 255
f 452 493 255
f 461 249 485
f 387 494 373
f 412 495 387
f 387 495 494
f 496 323 315
f 460 496 315
f 497 292 355
f 391 292 497
f 321 338 320
f 321 488 338
f 373 498 358
f 373 494 498
f 412 474 495
f 499 442 414
f 499 414 457
f 456 433 500
f 491 456 500
f 501 434 447
f 478 434 501
f 502 295 314
f 502 314 471
f 503 462 408
f 503 408 446
f 439 466 504
f 455 439 504
f 505 447 430
f 505 430 467
f 358 506 357
f 358 498 506
f 446 394 507
f 394 445 507
f 508 457 438
f 508 438 475
f 376 509 409
f 376 469 509
f 500 433 476
f 357 510 361
f 357 506 510
f 448 511 476
f 448 449 511
f 512 271 295
f 472 271 512
f 513 239 284
f 450 239 513
f 514 454 437
f 514 437 477
f 504 466 490
f 501 447 505
f 490 489 515
f 504 490 516
f 490 515 516
f 486 453 517
f 453 473 517
f 361 518 371
f 361 510 518
f 422 486 519
f 445 422 519
f 489 491 520
f 489 520 515
f 496 492 323
f 521 359 296
f 493 521 296
f 522 477 462
f 522 462 503
f 512 295 502
f 371 523 380
f 371 518 523
f 524 467 442
f 524 442 499
f 525 267 342
f 479 267 525
f 526 297 250
f 465 526 250
f 523 436 380
f 455 504 527
f 474 455 527
f 528 475 454
f 528 454 514
f 527 504 516
f 529 328 272
f 484 529 272
f 527 516 530
f 516 515 531
f 516 531 530
f 491 500 532
f 520 491 532
f 500 476 533
f 532 500 533
f 503 446 534
f 446 507 534
f 535 514 477
f 535 477 522
f 474 527 536
f 495 474 536
f 536 527 530
f 537 499 457
f 537 457 508
f 538 273 341
f 481 273 538
f 539 473 436
f 523 539 436
f 540 475 528
f 540 508 475
f 541 505 467
f 541 467 524
f 409 542 449
f 409 509 542
f 543 378 324
f 487 543 324
f 519 486 544
f 486 517 544
f 507 445 545
f 445 519 545
f 515 520 546
f 515 546 531
f 476 547 533
f 476 511 547
f 517 473 548
f 539 548 473
f 495 536 549
f 536 530 550
f 549 536 550
f 551 424 359
f 521 551 359
f 494 495 549
f 530 552 550
f 530 531 552
f 522 503 553
f 503 534 553
f 554 284 329
f 513 284 554
f 555 355 399
f 497 355 555
f 556 501 505
f 556 505 541
f 498 494 557
f 494 549 557
f 558 528 514
f 558 514 535
f 498 559 506
f 506 560 510
f 506 559 560
f 498 557 561
f 498 561 559
f 391 488 321
f 562 478 501
f 562 501 556
f 563 524 499
f 563 499 537
f 520 532 564
f 546 520 564
f 532 533 565
f 564 532 565
f 449 566 511
f 449 542 566
f 510 567 518
f 510 560 567
f 549 550 568
f 557 549 568
f 569 340 297
f 526 569 297
f 535 522 570
f 522 553 570
f 571 342 427
f 525 342 571
f 572 343 488
f 391 572 488
f 572 407 343
f 534 507 573
f 507 545 573
f 550 574 568
f 550 552 574
f 575 464 478
f 575 478 562
f 470 576 469
f 577 470 468
f 470 578 576
f 577 578 470
f 545 519 579
f 519 544 579
f 531 546 580
f 531 580 552
f 544 517 581
f 517 548 581
f 582 528 558
f 582 540 528
f 583 537 508
f 583 508 540
f 533 584 565
f 533 547 584
f 585 403 328
f 529 585 328
f 586 421 378
f 543 586 378
f 587 399 435
f 555 399 587
f 588 341 390
f 538 341 588
f 518 589 523
f 518 567 589
f 557 568 590
f 561 557 590
f 553 534 591
f 534 573 591
f 592 463 464
f 592 464 575
f 593 460 424
f 551 593 424
f 546 564 594
f 594 564 595
f 564 565 595
f 596 541 524
f 596 524 563
f 469 597 509
f 469 576 597
f 535 570 598
f 558 535 598
f 511 599 547
f 511 566 599
f 573 545 600
f 545 579 600
f 568 601 590
f 568 574 601
f 553 591 602
f 570 553 602
f 580 546 594
f 603 329 393
f 554 329 603
f 561 604 559
f 561 590 605
f 561 605 604
f 497 572 391
f 579 544 606
f 544 581 606
f 559 607 560
f 559 604 607
f 608 539 523
f 608 523 589
f 552 580 609
f 552 609 574
f 610 471 463
f 610 463 592
f 611 407 572
f 497 611 572
f 612 556 541
f 612 541 596
f 591 573 613
f 573 600 613
f 602 591 614
f 591 613 614
f 580 594 615
f 615 594 616
f 594 595 616
f 617 563 537
f 617 537 583
f 618 435 461
f 587 435 618
f 539 619 548
f 539 620 619
f 608 621 539
f 539 621 620
f 622 496 460
f 593 622 460
f 623 402 340
f 569 623 340
f 570 602 624
f 598 570 624
f 558 598 625
f 582 558 625
f 565 584 626
f 565 626 595
f 627 583 540
f 627 540 582
f 547 628 584
f 547 599 628
f 629 427 472
f 571 427 629
f 630 390 450
f 588 390 630
f 631 451 421
f 586 631 421
f 611 487 407
f 600 579 632
f 579 606 632
f 590 633 605
f 590 601 633
f 509 634 542
f 509 597 634
f 635 468 492
f 635 577 468
f 624 602 636
f 602 614 636
f 560 637 567
f 560 607 637
f 609 580 615
f 581 548 619
f 542 638 566
f 542 634 638
f 574 639 601
f 574 609 639
f 640 465 403
f 585 640 403
f 605 641 604
f 605 633 641
f 613 600 642
f 600 632 642
f 609 615 643
f 643 615 644
f 615 616 644
f 598 624 645
f 625 598 645
f 646 596 563
f 646 563 617
f 647 645 624
f 624 636 648
f 647 624 648
f 584 649 626
f 584 628 649
f 566 650 599
f 566 638 650
f 651 393 441
f 603 393 651
f 652 461 485
f 618 461 652
f 653 562 556
f 653 556 612
f 614 613 654
f 613 642 654
f 595 626 655
f 595 655 616
f 567 656 589
f 567 637 656
f 606 581 657
f 581 619 657
f 658 617 583
f 658 583 627
f 659 502 471
f 659 471 610
f 660 472 512
f 629 472 660
f 661 483 451
f 631 661 451
f 604 662 607
f 604 641 662
f 601 663 633
f 601 639 663
f 639 609 643
f 582 625 664
f 627 582 664
f 599 665 628
f 599 650 665
f 666 492 496
f 622 666 496
f 555 611 497
f 625 645 667
f 664 625 667
f 668 452 402
f 623 668 402
f 636 614 669
f 614 654 669
f 626 649 670
f 626 670 655
f 589 656 608
f 671 480 481
f 672 481 538
f 671 481 672
f 673 667 645
f 673 645 647
f 674 596 646
f 674 612 596
f 639 643 675
f 675 643 676
f 643 644 676
f 677 485 480
f 677 480 671
f 678 487 611
f 555 678 611
f 632 606 679
f 606 657 679
f 628 680 649
f 628 665 680
f 678 543 487
f 633 681 641
f 633 663 681
f 648 636 682
f 636 669 682
f 683 450 513
f 630 450 683
f 652 485 677
f 649 684 670
f 649 680 684
f 663 639 675
f 607 685 637
f 607 662 685
f 616 686 644
f 687 616 655
f 616 688 686
f 687 688 616
f 664 667 689
f 667 690 689
f 667 673 690
f 627 664 691
f 691 664 689
f 692 575 562
f 692 562 653
f 666 635 492
f 693 512 502
f 660 512 693
f 642 632 694
f 632 679 694
f 675 676 695
f 663 675 696
f 696 675 695
f 644 697 676
f 644 686 697
f 698 646 617
f 698 617 658
f 699 647 648
f 648 682 700
f 699 648 700
f 676 701 695
f 676 697 701
f 702 627 691
f 702 658 627
f 703 441 479
f 651 441 703
f 704 482 483
f 661 704 483
f 687 655 670
f 641 681 705
f 641 705 662
f 663 696 706
f 663 706 681
f 654 642 707
f 642 694 707
f 669 654 708
f 654 707 708
f 693 502 659
f 709 484 482
f 704 709 482
f 634 710 638
f 638 711 650
f 638 710 711
f 597 712 634
f 634 712 710
f 713 526 465
f 640 713 465
f 714 529 484
f 709 714 484
f 696 695 715
f 696 716 706
f 696 715 716
f 717 673 647
f 717 647 699
f 691 689 718
f 689 690 719
f 689 719 718
f 682 669 720
f 669 708 720
f 687 670 684
f 665 721 680
f 680 722 684
f 680 721 722
f 650 723 665
f 650 711 723
f 576 724 597
f 597 724 712
f 725 592 575
f 725 575 692
f 578 726 576
f 576 726 724
f 727 493 452
f 668 727 452
f 637 608 656
f 637 685 608
f 695 728 715
f 695 701 728
f 673 729 690
f 673 717 729
f 730 578 577
f 578 731 726
f 730 731 578
f 732 691 718
f 732 702 691
f 690 729 733
f 690 733 719
f 734 646 698
f 734 674 646
f 665 723 721
f 681 706 735
f 681 735 705
f 700 682 736
f 682 720 736
f 687 684 722
f 587 678 555
f 737 538 588
f 672 538 737
f 662 705 738
f 662 738 685
f 729 717 739
f 739 717 699
f 721 687 722
f 723 740 721
f 721 740 687
f 741 658 702
f 741 698 658
f 742 653 612
f 742 612 674
f 743 479 525
f 703 479 743
f 744 513 554
f 683 513 744
f 745 543 678
f 587 745 678
f 745 586 543
f 706 716 746
f 706 746 735
f 747 699 700
f 700 736 748
f 747 700 748
f 729 739 749
f 733 729 749
f 750 718 719
f 750 732 718
f 751 585 529
f 714 751 529
f 715 752 716
f 715 728 752
f 739 699 747
f 753 610 592
f 753 592 725
f 688 754 686
f 687 755 688
f 688 755 754
f 740 756 757
f 758 756 740
f 723 758 740
f 740 757 687
f 750 719 733
f 720 708 759
f 708 707 760
f 708 760 759
f 761 702 732
f 761 741 702
f 762 521 493
f 727 762 493
f 749 739 763
f 763 739 747
f 733 749 764
f 749 763 765
f 764 749 765
f 705 735 766
f 705 766 738
f 736 720 767
f 720 759 767
f 748 736 768
f 736 767 768
f 769 747 748
f 763 747 769
f 710 770 711
f 712 771 710
f 710 771 770
f 769 748 772
f 748 768 772
f 707 694 773
f 707 773 760
f 686 774 697
f 686 754 774
f 750 733 764
f 750 761 732
f 657 619 620
f 711 758 723
f 711 770 758
f 685 738 775
f 685 775 608
f 716 776 746
f 716 752 776
f 757 756 777
f 756 778 777
f 758 779 756
f 756 779 778
f 780 569 526
f 713 780 526
f 618 745 587
f 687 757 781
f 687 781 755
f 697 782 701
f 697 774 782
f 735 746 783
f 735 783 766
f 694 679 784
f 694 784 773
f 785 769 772
f 772 768 786
f 785 772 787
f 772 786 787
f 788 765 763
f 788 763 769
f 789 551 521
f 762 789 521
f 790 525 571
f 743 525 790
f 791 586 745
f 618 791 745
f 679 657 792
f 679 792 784
f 764 765 793
f 788 777 765
f 777 793 765
f 788 769 785
f 750 764 793
f 724 794 712
f 712 794 771
f 657 620 792
f 757 777 788
f 777 778 793
f 791 631 586
f 768 767 795
f 768 795 786
f 757 788 785
f 757 785 781
f 698 741 796
f 698 796 797
f 698 797 798
f 698 798 734
f 799 640 585
f 751 799 585
f 741 761 750
f 741 750 796
f 770 779 758
f 800 577 635
f 800 730 577
f 801 793 778
f 750 793 801
f 802 588 630
f 737 588 802
f 738 766 803
f 738 803 775
f 804 554 603
f 744 554 804
f 781 785 787
f 781 787 755
f 767 759 805
f 767 805 795
f 608 775 621
f 746 806 783
f 746 776 806
f 807 778 779
f 801 778 807
f 808 692 653
f 808 653 742
f 809 593 551
f 789 809 551
f 652 791 618
f 770 810 779
f 771 810 770
f 759 760 811
f 759 811 805
f 807 779 810
f 812 674 734
f 812 742 674
f 726 813 724
f 724 813 794
f 787 754 755
f 787 786 754
f 766 783 814
f 766 814 803
f 760 773 815
f 760 815 811
f 701 816 728
f 701 782 816
f 750 801 817
f 796 750 817
f 818 659 610
f 818 610 753
f 773 784 819
f 773 819 815
f 817 801 807
f 771 820 810
f 794 820 771
f 821 631 791
f 652 821 791
f 822 571 629
f 790 571 822
f 786 795 774
f 786 774 754
f 823 623 569
f 780 823 569
f 824 622 593
f 809 824 593
f 796 817 825
f 797 796 825
f 821 661 631
f 784 792 826
f 784 826 819
f 795 805 782
f 795 782 774
f 731 827 726
f 726 827 813
f 817 807 825
f 728 828 752
f 728 816 828
f 829 713 640
f 799 829 640
f 783 830 814
f 783 806 830
f 825 807 810
f 825 810 820
f 797 825 820
f 797 820 831
f 797 831 798
f 832 725 692
f 832 692 808
f 833 629 660
f 822 629 833
f 677 821 652
f 805 811 816
f 805 816 782
f 834 666 622
f 824 834 622
f 835 630 683
f 802 630 835
f 836 603 651
f 804 603 836
f 811 815 828
f 811 828 816
f 792 620 837
f 792 837 826
f 794 831 820
f 813 831 794
f 838 661 821
f 677 838 821
f 803 621 775
f 731 839 827
f 840 731 730
f 840 839 731
f 841 635 666
f 834 841 666
f 842 660 693
f 833 660 842
f 814 843 803
f 814 830 843
f 815 819 844
f 815 844 828
f 752 844 776
f 752 828 844
f 838 704 661
f 841 800 635
f 672 845 671
f 672 846 845
f 737 846 672
f 803 843 621
f 843 620 621
f 734 798 847
f 734 847 812
f 848 753 725
f 848 725 832
f 849 693 659
f 849 659 818
f 842 693 849
f 850 668 623
f 823 850 623
f 851 683 744
f 835 683 851
f 671 838 677
f 671 845 838
f 852 808 742
f 852 742 812
f 843 837 620
f 830 837 843
f 819 826 853
f 819 853 844
f 776 853 806
f 776 844 853
f 830 854 837
f 806 854 830
f 826 837 854
f 855 780 713
f 829 855 713
f 806 853 854
f 856 651 703
f 836 651 856
f 845 704 838
f 826 854 853
f 813 857 831
f 827 857 813
f 846 709 845
f 845 709 704
f 846 714 709
f 737 858 846
f 858 714 846
f 798 831 857
f 798 857 847
f 859 727 668
f 850 859 668
f 860 744 804
f 851 744 860
f 861 832 808
f 861 808 852
f 839 862 827
f 827 862 857
f 802 858 737
f 858 751 714
f 863 703 743
f 856 703 863
f 864 751 858
f 802 864 858
f 865 730 800
f 865 840 730
f 864 799 751
f 866 823 780
f 855 866 780
f 812 847 867
f 812 867 852
f 839 868 862
f 869 839 840
f 869 868 839
f 870 818 753
f 870 753 848
f 871 832 861
f 871 848 832
f 872 762 727
f 859 872 727
f 873 804 836
f 860 804 873
f 835 864 802
f 847 857 862
f 847 862 867
f 874 799 864
f 835 874 864
f 875 743 790
f 863 743 875
f 874 829 799
f 876 829 874
f 876 855 829
f 877 789 762
f 872 877 762
f 878 850 823
f 866 878 823
f 852 867 879
f 852 879 861
f 880 790 822
f 875 790 880
f 867 862 868
f 867 868 879
f 851 874 835
f 851 876 874
f 881 809 789
f 877 881 789
f 882 836 856
f 873 836 882
f 883 800 841
f 883 865 800
f 884 849 818
f 884 818 870
f 885 840 865
f 885 869 840
f 886 824 809
f 881 886 809
f 887 841 834
f 887 883 841
f 888 834 824
f 886 888 824
f 889 822 833
f 880 822 889
f 879 868 869
f 890 842 849
f 890 849 884
f 888 887 834
f 891 833 842
f 889 833 891
f 891 842 890
f 861 879 892
f 861 892 871
f 893 870 848
f 893 848 871
f 894 859 850
f 878 894 850
f 860 876 851
f 879 869 892
f 895 855 876
f 860 895 876
f 895 866 855
f 896 856 863
f 882 856 896
f 873 895 860
f 897 872 859
f 894 897 859
f 898 866 895
f 873 898 895
f 898 878 866
f 899 865 883
f 899 885 865
f 900 863 875
f 896 863 900
f 892 869 885
f 871 892 901
f 892 885 901
f 902 884 870
f 902 870 893
f 903 877 872
f 897 903 872
f 882 898 873
f 871 901 893
f 904 883 887
f 904 899 883
f 905 875 880
f 900 875 905
f 906 890 884
f 906 884 902
f 907 878 898
f 882 907 898
f 907 894 878
f 908 880 889
f 905 880 908
f 909 891 890
f 909 890 906
f 910 887 888
f 910 904 887
f 911 881 877
f 903 911 877
f 912 886 881
f 911 912 881
f 913 888 886
f 913 910 888
f 912 913 886
f 914 889 891
f 914 891 909
f 896 907 882
f 901 885 899
f 908 889 914
f 915 894 907
f 896 915 907
f 915 897 894
f 893 901 916
f 901 899 916
f 893 916 902
f 900 915 896
f 916 899 904
f 917 897 915
f 900 917 915
f 902 916 918
f 916 904 918
f 917 903 897
f 902 918 906
f 905 917 900
f 919 903 917
f 905 919 917
f 906 918 920
f 906 920 909
f 919 911 903
f 918 904 910
f 918 910 920
f 908 919 905
f 920 910 913
f 909 920 921
f 909 921 914
f 920 913 921
f 921 913 912
f 908 922 919
f 914 922 908
f 922 911 919
f 921 912 922
f 922 912 911
f 914 921 922
