# 
# Wavefront OBJ file
# Created with Kaydara FBX
# 
mtllib c:\users\tjvan\onedrive\documenten\fontys\minor\nx\.mtlmodels\lateral_patellar_retinaculum__vertical_part_.r.obj

g Lateral_patellar_retinaculum__vertical_part__r
v -0.111360 0.443348 -0.014280
v -0.111617 0.447639 -0.014212
v -0.111462 0.447634 -0.014247
v -0.110796 0.450361 -0.014243
v -0.110430 0.443087 -0.010750
v -0.110948 0.450398 -0.014222
v -0.110840 0.447650 -0.010488
v -0.111209 0.443359 -0.014318
v -0.110230 0.443102 -0.010805
v -0.110483 0.447647 -0.010559
v -0.110991 0.439155 -0.014529
v -0.110298 0.439023 -0.011275
v -0.110840 0.439167 -0.014562
v -0.110151 0.439037 -0.011320
v -0.110636 0.435122 -0.014757
v -0.110132 0.435251 -0.011777
v -0.110700 0.450299 -0.009872
v -0.109617 0.451407 -0.012157
v -0.109351 0.453505 -0.009543
v -0.109768 0.451498 -0.012163
v -0.110484 0.435135 -0.014788
v -0.109985 0.435266 -0.011823
v -0.109730 0.447451 -0.006021
v -0.109223 0.443052 -0.007057
v -0.110294 0.450194 -0.009877
v -0.109051 0.453298 -0.009418
v -0.110067 0.455458 -0.005314
v -0.109901 0.451075 -0.004461
v -0.108448 0.457381 -0.006456
v -0.110453 0.431350 -0.014541
v -0.109657 0.431303 -0.011801
v -0.110303 0.431354 -0.014581
v -0.109511 0.431309 -0.011853
v -0.109286 0.447457 -0.006101
v -0.109006 0.443075 -0.007116
v -0.110446 0.424742 -0.012536
v -0.110386 0.427625 -0.013706
v -0.110240 0.427615 -0.013756
v -0.109473 0.424550 -0.010159
v -0.110294 0.424733 -0.012602
v -0.109986 0.420837 -0.011537
v -0.109273 0.420480 -0.009230
v -0.109531 0.427453 -0.011149
v -0.108853 0.439116 -0.007637
v -0.109252 0.424554 -0.010276
v -0.109755 0.420854 -0.011655
v -0.108699 0.420546 -0.009569
v -0.109388 0.427445 -0.011211
v -0.108577 0.435071 -0.008311
v -0.109399 0.450971 -0.004467
v -0.109084 0.454940 -0.004966
v -0.107881 0.457045 -0.006182
v -0.108709 0.439135 -0.007690
v -0.108435 0.435090 -0.008371
v -0.107964 0.431277 -0.007879
v -0.109185 0.455762 -0.001786
v -0.108592 0.460032 -0.001380
v -0.109147 0.459448 -0.004043
v -0.109337 0.416633 -0.010759
v -0.108380 0.416451 -0.008516
v -0.107823 0.431287 -0.007944
v -0.108958 0.447639 -0.001894
v -0.108801 0.451632 -0.001118
v -0.109097 0.416675 -0.010896
v -0.107895 0.416538 -0.008821
v -0.108183 0.443401 -0.003005
v -0.107696 0.427298 -0.007459
v -0.107459 0.423588 -0.006708
v -0.107554 0.427299 -0.007533
v -0.106965 0.419407 -0.006021
v -0.108693 0.447662 -0.001952
v -0.108449 0.455529 -0.001760
v -0.108507 0.451602 -0.001168
v -0.107123 0.423617 -0.006917
v -0.108154 0.413724 -0.010506
v -0.106655 0.413527 -0.008315
v -0.107992 0.443431 -0.003051
v -0.105609 0.415313 -0.005951
v -0.106368 0.419491 -0.006416
v -0.107580 0.439409 -0.003708
v -0.107743 0.456734 0.001504
v -0.106659 0.461053 0.001847
v -0.105419 0.464808 0.001015
v -0.106711 0.464148 -0.001116
v -0.108001 0.413786 -0.010595
v -0.106491 0.413594 -0.008428
v -0.107893 0.459823 -0.001424
v -0.108279 0.459085 -0.003842
v -0.107434 0.439436 -0.003751
v -0.107965 0.448014 0.001780
v -0.107432 0.443561 0.000396
v -0.106983 0.435243 -0.004371
v -0.107457 0.452702 0.003057
v -0.105352 0.415371 -0.006141
v -0.106840 0.435271 -0.004425
v -0.107792 0.448027 0.001730
v -0.107269 0.443592 0.000355
v -0.103551 0.465255 0.003233
v -0.106324 0.431171 -0.004487
v -0.107330 0.456647 0.001387
v -0.107297 0.452687 0.003000
v -0.106338 0.460970 0.001721
v -0.106894 0.462614 -0.003497
v -0.107062 0.462695 -0.003550
v -0.106185 0.431190 -0.004554
v -0.104996 0.412811 -0.006505
v -0.105269 0.464744 0.000937
v -0.106526 0.464064 -0.001129
v -0.106780 0.439645 -0.000197
v -0.107307 0.412295 -0.010756
v -0.105728 0.411607 -0.008660
v -0.107195 0.412394 -0.010813
v -0.105622 0.411710 -0.008717
v -0.106634 0.439679 -0.000237
v -0.106109 0.427074 -0.004446
v -0.106795 0.448024 0.004789
v -0.106771 0.443896 0.003602
v -0.104872 0.412872 -0.006607
v -0.103402 0.465154 0.003086
v -0.105972 0.427084 -0.004527
v -0.106650 0.448031 0.004734
v -0.106626 0.443926 0.003555
v -0.106065 0.457363 0.004579
v -0.104476 0.461543 0.004870
v -0.105714 0.423290 -0.004090
v -0.106056 0.435480 -0.001202
v -0.105490 0.423316 -0.004243
v -0.104997 0.419008 -0.003911
v -0.106186 0.453113 0.005807
v -0.105916 0.435520 -0.001255
v -0.106021 0.439887 0.002689
v -0.105852 0.457309 0.004486
v -0.104287 0.461451 0.004733
v -0.106554 0.411315 -0.011514
v -0.104690 0.410671 -0.009933
v -0.106048 0.453095 0.005739
v -0.105882 0.439930 0.002635
v -0.106466 0.411437 -0.011552
v -0.104605 0.410798 -0.009963
v -0.104721 0.419057 -0.004113
v -0.104577 0.465742 -0.002220
v -0.104761 0.467241 -0.000243
v -0.104688 0.465836 -0.002274
v -0.104927 0.431168 -0.001733
v -0.103739 0.414804 -0.004254
v -0.104633 0.467162 -0.000281
v -0.104795 0.431201 -0.001808
v -0.105861 0.443927 0.005993
v -0.106086 0.448140 0.007111
v -0.105069 0.435666 0.001523
v -0.104856 0.439978 0.005342
v -0.102895 0.467890 0.001985
v -0.104232 0.410858 -0.007339
v -0.105719 0.443956 0.005939
v -0.105942 0.448139 0.007052
v -0.101438 0.465398 0.006266
v -0.104939 0.435719 0.001456
v -0.104723 0.440027 0.005279
v -0.102780 0.467818 0.001891
v -0.104133 0.410963 -0.007394
v -0.103614 0.414848 -0.004361
v -0.101154 0.465084 0.005755
v -0.104390 0.426893 -0.001961
v -0.104268 0.426911 -0.002055
v -0.104733 0.453340 0.008163
v -0.104946 0.456943 0.006919
v -0.103968 0.422996 -0.001996
v -0.103343 0.431168 0.000556
v -0.104604 0.453319 0.008078
v -0.104819 0.456906 0.006825
v -0.103233 0.461707 0.006910
v -0.103510 0.435541 0.003697
v -0.103838 0.423017 -0.002110
v -0.103224 0.431215 0.000469
v -0.103389 0.435601 0.003620
v -0.103033 0.461555 0.006662
v -0.102652 0.409630 -0.008720
v -0.103264 0.418691 -0.002247
v -0.102566 0.409758 -0.008736
v -0.103263 0.411851 -0.005236
v -0.103138 0.418722 -0.002362
v -0.100467 0.468305 0.004470
v -0.103156 0.411914 -0.005328
v -0.100318 0.468145 0.004247
v -0.101812 0.431123 0.002612
v -0.102623 0.409842 -0.006255
v -0.102252 0.414463 -0.002738
v -0.101698 0.431176 0.002521
v -0.103038 0.456612 0.008764
v -0.102253 0.461147 0.008245
v -0.102525 0.426750 -0.000058
v -0.102521 0.409948 -0.006305
v -0.102941 0.456579 0.008647
v -0.102079 0.461001 0.007946
v -0.102417 0.426779 -0.000165
v -0.102142 0.414507 -0.002838
v -0.099923 0.464982 0.008070
v -0.102218 0.422653 -0.000513
v -0.099618 0.464592 0.007388
v -0.102119 0.422676 -0.000630
v -0.101105 0.408625 -0.007822
v -0.101012 0.408749 -0.007829
v -0.101739 0.418297 -0.000963
v -0.101642 0.418325 -0.001081
v -0.101852 0.410845 -0.004262
v -0.101743 0.410912 -0.004350
v -0.097467 0.467883 0.007024
v -0.097313 0.467642 0.006687
v -0.100766 0.426661 0.001520
v -0.101171 0.408754 -0.005616
v -0.101127 0.413961 -0.001593
v -0.100662 0.426695 0.001409
v -0.098803 0.464230 0.008884
v -0.101063 0.408858 -0.005655
v -0.101027 0.414005 -0.001704
v -0.100066 0.459898 0.009163
v -0.098590 0.463932 0.008303
v -0.100005 0.459854 0.009008
v -0.099838 0.407629 -0.007212
v -0.099738 0.407748 -0.007212
v -0.100095 0.422190 0.000886
v -0.100005 0.422214 0.000763
v -0.100392 0.409701 -0.003377
v -0.096859 0.462736 0.008793
v -0.099803 0.417770 0.000250
v -0.100285 0.409769 -0.003467
v -0.099717 0.417798 0.000123
v -0.096812 0.462816 0.008722
v -0.099432 0.407246 -0.004591
v -0.099316 0.407343 -0.004625
v -0.099383 0.413314 -0.000626
v -0.099291 0.413360 -0.000743
v -0.095681 0.467011 0.008036
v -0.097693 0.405718 -0.006482
v -0.095597 0.466835 0.007749
v -0.098608 0.407803 -0.002557
v -0.097582 0.405825 -0.006465
v -0.098496 0.407874 -0.002637
v -0.097808 0.405258 -0.003875
v -0.097688 0.405356 -0.003876
v -0.093432 0.465748 0.008128
v -0.093404 0.465655 0.007948
v -0.095793 0.403423 -0.005800
v -0.095678 0.403525 -0.005777
v -0.091979 0.463980 0.009168
v -0.091961 0.463920 0.009026
usemtl Lateral_patellar_retinaculum__vertical_part__rMaterial0
f 1 2 3
f 2 4 3
f 2 1 5
f 6 2 7
f 2 6 4
f 2 5 7
f 1 3 8
f 3 9 8
f 4 10 3
f 3 10 9
f 11 1 8
f 1 11 12
f 1 12 5
f 11 8 13
f 8 14 13
f 8 9 14
f 15 11 13
f 11 15 16
f 11 16 12
f 6 7 17
f 6 18 4
f 19 6 17
f 6 20 18
f 19 20 6
f 15 13 21
f 13 22 21
f 13 14 22
f 17 7 23
f 7 5 24
f 7 24 23
f 4 25 10
f 26 25 4
f 26 4 18
f 27 17 28
f 29 17 27
f 17 23 28
f 29 19 17
f 30 15 21
f 15 30 31
f 15 31 16
f 30 21 32
f 21 33 32
f 21 22 33
f 25 34 10
f 10 35 9
f 10 34 35
f 36 37 38
f 37 36 39
f 36 38 40
f 41 36 40
f 36 41 42
f 36 42 39
f 37 30 32
f 30 37 43
f 30 43 31
f 5 12 44
f 5 44 24
f 37 32 38
f 37 39 43
f 38 45 40
f 41 40 46
f 40 47 46
f 40 45 47
f 32 48 38
f 32 33 48
f 12 16 49
f 12 49 44
f 25 50 34
f 51 50 25
f 52 51 25
f 52 25 26
f 38 48 45
f 9 53 14
f 9 35 53
f 14 54 22
f 14 53 54
f 16 31 55
f 16 55 49
f 27 28 56
f 56 57 27
f 27 57 58
f 27 58 29
f 59 41 46
f 41 59 60
f 41 60 42
f 22 61 33
f 22 54 61
f 28 23 62
f 56 28 63
f 28 62 63
f 20 26 18
f 20 19 26
f 59 46 64
f 46 65 64
f 46 47 65
f 23 24 66
f 23 66 62
f 31 43 67
f 31 67 55
f 43 39 68
f 43 68 67
f 33 69 48
f 33 61 69
f 39 42 70
f 39 70 68
f 50 71 34
f 51 72 50
f 50 73 71
f 72 73 50
f 48 74 45
f 48 69 74
f 19 52 26
f 19 29 52
f 75 59 64
f 59 76 60
f 59 75 76
f 34 77 35
f 34 71 77
f 42 60 78
f 42 78 70
f 45 79 47
f 45 74 79
f 24 44 80
f 24 80 66
f 56 63 81
f 56 82 57
f 81 82 56
f 58 57 83
f 29 58 84
f 58 83 84
f 75 64 85
f 64 86 85
f 64 65 86
f 72 51 87
f 51 88 87
f 51 52 88
f 35 89 53
f 35 77 89
f 63 62 90
f 62 66 91
f 62 91 90
f 44 49 92
f 44 92 80
f 63 90 93
f 81 63 93
f 47 94 65
f 47 79 94
f 53 95 54
f 53 89 95
f 73 96 71
f 71 97 77
f 71 96 97
f 57 82 98
f 57 98 83
f 49 55 99
f 49 99 92
f 72 100 73
f 73 101 96
f 100 101 73
f 72 87 102
f 100 72 102
f 29 103 52
f 29 104 103
f 29 84 104
f 54 105 61
f 54 95 105
f 60 76 106
f 60 106 78
f 88 107 87
f 52 108 88
f 88 108 107
f 66 80 109
f 66 109 91
f 110 75 85
f 75 110 111
f 75 111 76
f 110 85 112
f 85 113 112
f 85 86 113
f 77 114 89
f 77 97 114
f 55 67 115
f 55 115 99
f 93 90 116
f 90 91 117
f 90 117 116
f 65 118 86
f 65 94 118
f 87 119 102
f 87 107 119
f 52 103 108
f 61 120 69
f 61 105 120
f 101 121 96
f 96 122 97
f 96 121 122
f 81 93 123
f 81 124 82
f 123 124 81
f 67 68 125
f 67 125 115
f 80 92 126
f 80 126 109
f 69 127 74
f 69 120 127
f 68 70 128
f 68 128 125
f 93 116 129
f 123 93 129
f 89 130 95
f 89 114 130
f 91 109 131
f 91 131 117
f 100 132 101
f 100 102 133
f 132 100 133
f 134 110 112
f 110 134 135
f 110 135 111
f 101 136 121
f 132 136 101
f 97 137 114
f 97 122 137
f 134 112 138
f 112 139 138
f 112 113 139
f 74 140 79
f 74 127 140
f 104 141 103
f 104 84 142
f 104 142 143
f 104 143 141
f 92 99 144
f 92 144 126
f 70 78 145
f 70 145 128
f 103 146 108
f 103 141 146
f 95 147 105
f 95 130 147
f 116 117 148
f 129 116 149
f 116 148 149
f 109 126 150
f 109 150 131
f 117 131 151
f 117 151 148
f 84 83 152
f 84 152 142
f 76 111 153
f 76 153 106
f 121 154 122
f 136 155 121
f 121 155 154
f 82 124 156
f 82 156 98
f 114 157 130
f 114 137 157
f 122 158 137
f 122 154 158
f 135 134 138
f 108 159 107
f 108 146 159
f 86 160 113
f 86 118 160
f 135 138 139
f 79 161 94
f 79 140 161
f 102 162 133
f 102 119 162
f 99 115 163
f 99 163 144
f 105 164 120
f 105 147 164
f 129 149 165
f 123 129 166
f 166 129 165
f 115 125 167
f 115 167 163
f 149 154 155
f 165 149 155
f 149 148 154
f 126 168 150
f 126 144 168
f 136 169 155
f 132 170 136
f 170 169 136
f 166 171 123
f 123 171 124
f 131 150 172
f 131 172 151
f 120 173 127
f 120 164 173
f 165 155 169
f 130 157 174
f 130 174 147
f 137 175 157
f 137 158 175
f 148 158 154
f 148 151 158
f 170 132 176
f 132 133 176
f 111 135 177
f 111 177 153
f 125 128 178
f 125 178 167
f 113 179 139
f 113 160 179
f 78 106 180
f 78 180 145
f 127 181 140
f 127 173 181
f 83 98 182
f 83 182 152
f 94 183 118
f 94 161 183
f 107 184 119
f 107 159 184
f 150 185 172
f 150 168 185
f 106 153 186
f 106 186 180
f 128 145 187
f 128 187 178
f 157 175 188
f 157 188 174
f 166 165 189
f 166 190 171
f 189 190 166
f 144 163 191
f 144 191 168
f 118 192 160
f 118 183 192
f 151 175 158
f 151 172 175
f 170 193 169
f 170 176 194
f 193 170 194
f 147 195 164
f 147 174 195
f 143 142 146
f 142 159 146
f 142 152 159
f 189 165 169
f 140 196 161
f 140 181 196
f 177 135 139
f 143 146 141
f 177 139 179
f 189 169 193
f 124 171 197
f 124 197 156
f 163 167 198
f 163 198 191
f 133 199 176
f 133 162 199
f 164 200 173
f 164 195 200
f 153 177 201
f 153 201 186
f 160 202 179
f 160 192 202
f 167 178 203
f 167 203 198
f 173 204 181
f 173 200 204
f 145 180 205
f 145 205 187
f 161 206 183
f 161 196 206
f 98 156 207
f 98 207 182
f 172 188 175
f 172 185 188
f 119 208 162
f 119 184 208
f 168 191 209
f 168 209 185
f 180 186 210
f 180 210 205
f 178 187 211
f 178 211 203
f 174 212 195
f 174 188 212
f 171 190 213
f 171 213 197
f 183 214 192
f 183 206 214
f 181 215 196
f 181 204 215
f 216 189 193
f 189 216 190
f 176 217 194
f 176 199 217
f 193 194 218
f 216 193 218
f 152 184 159
f 152 182 184
f 201 177 179
f 186 219 210
f 186 201 219
f 201 179 202
f 192 214 220
f 192 220 202
f 191 198 221
f 191 221 209
f 195 222 200
f 195 212 222
f 187 205 223
f 187 223 211
f 190 216 224
f 190 224 213
f 198 203 225
f 198 225 221
f 196 226 206
f 196 215 226
f 200 227 204
f 200 222 227
f 194 228 218
f 194 217 228
f 205 210 229
f 205 229 223
f 185 212 188
f 185 209 212
f 206 230 214
f 206 226 230
f 203 211 231
f 203 231 225
f 204 232 215
f 204 227 232
f 156 197 233
f 156 233 207
f 210 219 234
f 210 234 229
f 162 235 199
f 162 208 235
f 211 223 236
f 211 236 231
f 219 201 202
f 214 237 220
f 214 230 237
f 215 238 226
f 215 232 238
f 219 202 220
f 209 222 212
f 209 221 222
f 182 208 184
f 182 207 208
f 223 229 239
f 223 239 236
f 226 240 230
f 226 238 240
f 221 227 222
f 221 225 227
f 224 216 218
f 224 218 228
f 197 213 241
f 197 241 233
f 234 219 220
f 225 232 227
f 225 231 232
f 234 220 237
f 199 242 217
f 199 235 242
f 229 243 239
f 229 234 243
f 231 238 232
f 231 236 238
f 230 240 244
f 230 244 237
f 213 224 245
f 213 245 241
f 236 240 238
f 236 239 240
f 217 246 228
f 217 242 246
f 239 244 240
f 239 243 244
f 243 234 237
f 243 237 244
f 207 235 208
f 207 233 235
f 245 224 228
f 245 228 246
f 233 242 235
f 233 241 242
f 241 246 242
f 241 245 246
