# 
# Wavefront OBJ file
# Created with Kaydara FBX
# 
mtllib c:\users\tjvan\onedrive\documenten\fontys\minor\nx\.mtlmodels\lateral_dorsal_cutaneous_nerve.r.obj

g Lateral_dorsal_cutaneous_nerve_r
v -0.116794 0.044335 0.028978
v -0.116816 0.043588 0.031923
v -0.116858 0.044500 0.029031
v -0.116747 0.043796 0.031989
v -0.116684 0.045230 0.026132
v -0.116759 0.045393 0.026181
v -0.116801 0.044711 0.029100
v -0.116763 0.043422 0.031866
v -0.116616 0.042642 0.034840
v -0.116534 0.042844 0.034902
v -0.116626 0.044260 0.028955
v -0.116511 0.045162 0.026119
v -0.116716 0.045608 0.026253
v -0.116573 0.043988 0.032045
v -0.116639 0.044912 0.029167
v -0.116574 0.042474 0.034779
v -0.116602 0.043340 0.031832
v -0.116539 0.046285 0.023389
v -0.116453 0.046125 0.023343
v -0.116350 0.043027 0.034946
v -0.116567 0.045817 0.026330
v -0.116509 0.046503 0.023465
v -0.116275 0.046065 0.023339
v -0.116342 0.044113 0.032076
v -0.116415 0.045048 0.029213
v -0.116238 0.041643 0.037765
v -0.116144 0.041840 0.037821
v -0.116400 0.044295 0.028968
v -0.116287 0.045208 0.026145
v -0.116420 0.042387 0.034733
v -0.116375 0.043365 0.031830
v -0.116208 0.041476 0.037699
v -0.116113 0.043142 0.034962
v -0.116373 0.046719 0.023550
v -0.116350 0.045964 0.026389
v -0.115951 0.042014 0.037853
v -0.116214 0.047192 0.020671
v -0.116118 0.047036 0.020628
v -0.116054 0.046121 0.023379
v -0.116199 0.047411 0.020751
v -0.115937 0.046984 0.020633
v -0.116195 0.042403 0.034716
v -0.116063 0.041383 0.037642
v -0.116175 0.044431 0.029014
v -0.116070 0.045355 0.026205
v -0.116115 0.044138 0.032074
v -0.116188 0.045084 0.029226
v -0.116144 0.043491 0.031862
v -0.116167 0.046876 0.023623
v -0.116078 0.047634 0.020846
v -0.115711 0.042118 0.037852
v -0.115888 0.043157 0.034944
v -0.116126 0.046010 0.026416
v -0.115847 0.046278 0.023452
v -0.115719 0.047050 0.020686
v -0.115665 0.040575 0.040681
v -0.115559 0.040766 0.040731
v -0.115647 0.040409 0.040611
v -0.115958 0.042518 0.034731
v -0.115840 0.041391 0.037608
v -0.116013 0.044632 0.029080
v -0.115921 0.045564 0.026281
v -0.115954 0.044057 0.032040
v -0.116021 0.045009 0.029203
v -0.115945 0.046932 0.023663
v -0.115882 0.047801 0.020932
v -0.115804 0.048132 0.018044
v -0.115698 0.047980 0.018003
v -0.115805 0.048351 0.018129
v -0.115359 0.040932 0.040749
v -0.115970 0.043683 0.031918
v -0.115489 0.042125 0.037818
v -0.115734 0.043070 0.034899
v -0.115953 0.045942 0.026403
v -0.115514 0.047937 0.018018
v -0.115511 0.040313 0.040541
v -0.115711 0.046494 0.023538
v -0.115524 0.047217 0.020772
v -0.115699 0.048579 0.018234
v -0.115957 0.044843 0.029149
v -0.115878 0.045778 0.026354
v -0.115901 0.043890 0.031983
v -0.115774 0.042701 0.034776
v -0.115118 0.041026 0.040729
v -0.115600 0.041495 0.037606
v -0.115692 0.042903 0.034837
v -0.115768 0.046872 0.023660
v -0.115665 0.047867 0.020984
v -0.115301 0.048013 0.018083
v -0.115682 0.046712 0.023614
v -0.115343 0.042033 0.037760
v -0.115515 0.048755 0.018333
v -0.115293 0.040312 0.040490
v -0.115402 0.047440 0.020867
v -0.115327 0.049120 0.015525
v -0.115210 0.048975 0.015486
v -0.115343 0.049338 0.015615
v -0.115407 0.041669 0.037638
v -0.115484 0.047816 0.020990
v -0.115313 0.041866 0.037695
v -0.114900 0.041026 0.040678
v -0.115387 0.047659 0.020947
v -0.115118 0.048189 0.018181
v -0.115024 0.048940 0.015508
v -0.115254 0.049570 0.015732
v -0.114881 0.039428 0.043557
v -0.114765 0.039613 0.043601
v -0.115303 0.048831 0.018398
v -0.114874 0.039263 0.043486
v -0.115051 0.040407 0.040470
v -0.114558 0.039767 0.043608
v -0.114748 0.039161 0.043409
v -0.115012 0.048417 0.018287
v -0.114818 0.049026 0.015586
v -0.115083 0.049753 0.015844
v -0.114764 0.040929 0.040608
v -0.115119 0.048788 0.018412
v -0.114851 0.040572 0.040488
v -0.115012 0.048637 0.018371
v -0.114315 0.039851 0.043575
v -0.114746 0.040763 0.040538
v -0.114800 0.050175 0.013129
v -0.114832 0.050390 0.013226
v -0.114673 0.050037 0.013091
v -0.114535 0.039150 0.043346
v -0.114648 0.049210 0.015698
v -0.114878 0.049839 0.015921
v -0.114761 0.050623 0.013355
v -0.114485 0.050012 0.013121
v -0.114102 0.039840 0.043512
v -0.114558 0.049442 0.015815
v -0.114691 0.049805 0.015944
v -0.114605 0.050813 0.013482
v -0.114292 0.039234 0.043313
v -0.114575 0.049660 0.015904
v -0.114287 0.050106 0.013212
v -0.113975 0.039738 0.043435
v -0.114707 0.039175 0.044158
v -0.114701 0.039012 0.044089
v -0.114592 0.039358 0.044204
v -0.114407 0.050908 0.013572
v -0.114085 0.039388 0.043320
v -0.114241 0.051314 0.010874
v -0.114290 0.051524 0.010978
v -0.114131 0.050296 0.013339
v -0.114104 0.051184 0.010836
v -0.114386 0.039509 0.044214
v -0.113969 0.039573 0.043364
v -0.114238 0.051756 0.011121
v -0.114575 0.038910 0.044015
v -0.114538 0.038885 0.044872
v -0.114531 0.038722 0.044805
v -0.114423 0.039064 0.044920
v -0.114220 0.050882 0.013603
v -0.113916 0.051168 0.010875
v -0.114060 0.050529 0.013468
v -0.114099 0.051949 0.011263
v -0.114218 0.039212 0.044936
v -0.114405 0.038619 0.044737
v -0.114363 0.038898 0.043956
v -0.114144 0.039590 0.044186
v -0.114093 0.050744 0.013564
v -0.114372 0.038557 0.045694
v -0.114366 0.038395 0.045629
v -0.114258 0.038733 0.045743
v -0.113727 0.051270 0.010979
v -0.114054 0.038878 0.045764
v -0.114240 0.038292 0.045565
v -0.114194 0.038604 0.044686
v -0.113910 0.052051 0.011368
v -0.113977 0.039289 0.044916
v -0.114213 0.038197 0.046607
v -0.114207 0.038037 0.046543
v -0.114100 0.038371 0.046657
v -0.114122 0.038979 0.043927
v -0.113932 0.039578 0.044127
v -0.113588 0.051463 0.011122
v -0.113536 0.051695 0.011264
v -0.113897 0.038513 0.046681
v -0.114082 0.037933 0.046483
v -0.114030 0.038275 0.045520
v -0.113585 0.051905 0.011368
v -0.114063 0.037811 0.047594
v -0.114057 0.037652 0.047531
v -0.113951 0.037983 0.047646
v -0.113815 0.038952 0.045749
v -0.113722 0.052035 0.011406
v -0.113953 0.038681 0.044665
v -0.113765 0.039274 0.044865
v -0.113916 0.039130 0.043938
v -0.113933 0.037549 0.047474
v -0.113873 0.037915 0.046442
v -0.113750 0.038122 0.047673
v -0.113806 0.039476 0.044053
v -0.113925 0.037404 0.048641
v -0.113918 0.037247 0.048579
v -0.113814 0.037573 0.048693
v -0.113790 0.038349 0.045505
v -0.113660 0.038584 0.046671
v -0.113614 0.037710 0.048723
v -0.113748 0.038829 0.044681
v -0.113604 0.038935 0.045704
v -0.113800 0.039313 0.043984
v -0.113800 0.036982 0.049730
v -0.113796 0.037144 0.048524
v -0.113794 0.036826 0.049669
v -0.113690 0.037149 0.049784
v -0.113725 0.037529 0.047438
v -0.113639 0.039171 0.044796
v -0.113514 0.038190 0.047667
v -0.113635 0.037986 0.046433
v -0.113692 0.036549 0.050847
v -0.113672 0.036723 0.049617
v -0.113685 0.036395 0.050787
v -0.113582 0.036714 0.050902
v -0.113590 0.037123 0.048492
v -0.113492 0.037283 0.049816
v -0.113586 0.038493 0.045525
v -0.113450 0.038565 0.046631
v -0.113633 0.039008 0.044729
v -0.113479 0.038832 0.045640
v -0.113380 0.037777 0.048721
v -0.113489 0.037598 0.047432
v -0.113601 0.036111 0.051976
v -0.113565 0.036293 0.050737
v -0.113595 0.035959 0.051916
v -0.113493 0.036273 0.052032
v -0.113387 0.036845 0.050936
v -0.113468 0.036702 0.049588
v -0.113307 0.038171 0.047631
v -0.113432 0.038128 0.046456
v -0.113472 0.038670 0.045575
v -0.113531 0.035673 0.053101
v -0.113475 0.035857 0.051869
v -0.113525 0.035522 0.053042
v -0.113424 0.035833 0.053159
v -0.113299 0.036402 0.052069
v -0.113356 0.037190 0.048490
v -0.113261 0.037347 0.049817
v -0.113326 0.038462 0.046571
v -0.113362 0.036270 0.050711
v -0.113484 0.035241 0.054207
v -0.113478 0.035092 0.054149
v -0.113407 0.035421 0.052997
v -0.113378 0.035398 0.054266
v -0.113174 0.037756 0.048688
v -0.113456 0.034671 0.055220
v -0.113462 0.034819 0.055279
v -0.112632 0.034873 0.055296
v -0.113361 0.034991 0.054106
v -0.113340 0.034571 0.055180
v -0.112737 0.034718 0.055236
v -0.113357 0.034973 0.055339
v -0.112638 0.035020 0.055355
v -0.113275 0.035833 0.051846
v -0.113232 0.035959 0.053199
v -0.113236 0.036766 0.049589
v -0.113157 0.036908 0.050941
v -0.113288 0.037737 0.047459
v -0.113183 0.038068 0.047574
v -0.113319 0.038302 0.046507
v -0.113208 0.035396 0.052978
v -0.113188 0.035521 0.054309
v -0.113169 0.035093 0.055386
v -0.113072 0.036463 0.052077
v -0.113056 0.037326 0.049788
v -0.112754 0.035120 0.055395
v -0.113165 0.034965 0.054090
v -0.113133 0.036333 0.050716
v -0.113156 0.037326 0.048519
v -0.113146 0.034544 0.055168
v -0.112925 0.034598 0.055189
v -0.113176 0.037909 0.047511
v -0.113007 0.036018 0.053211
v -0.113052 0.037653 0.048634
v -0.113048 0.035894 0.051855
v -0.112955 0.036885 0.050915
v -0.112965 0.035578 0.054325
v -0.113039 0.036900 0.049621
v -0.112983 0.035455 0.052990
v -0.112942 0.035021 0.054106
v -0.112948 0.035147 0.055407
v -0.112871 0.036439 0.052055
v -0.113045 0.037496 0.048572
v -0.112935 0.037223 0.049736
v -0.112937 0.036464 0.050751
v -0.112809 0.035993 0.053191
v -0.112854 0.036023 0.051892
v -0.112928 0.037067 0.049675
v -0.112834 0.036783 0.050866
v -0.112769 0.035552 0.054310
v -0.112791 0.035581 0.053030
v -0.112752 0.035145 0.054149
v -0.112828 0.036629 0.050805
v -0.112752 0.036337 0.052007
v -0.112690 0.035892 0.053146
v -0.112745 0.036185 0.051948
v -0.112652 0.035451 0.054267
v -0.112684 0.035741 0.053087
v -0.112645 0.035302 0.054208
v -0.125069 0.030784 0.045016
v -0.125393 0.030297 0.045943
v -0.125363 0.030435 0.046021
v -0.125046 0.030469 0.046154
v -0.124990 0.030609 0.044949
v -0.125318 0.030121 0.045884
v -0.124844 0.030356 0.046174
v -0.125236 0.030498 0.046099
v -0.125041 0.030923 0.045101
v -0.124824 0.030442 0.044918
v -0.125158 0.029954 0.045862
v -0.124684 0.030189 0.046151
v -0.124911 0.030986 0.045181
v -0.124609 0.030012 0.046092
v -0.124956 0.029840 0.045881
v -0.124615 0.030330 0.044931
v -0.124619 0.031520 0.043702
v -0.124537 0.031343 0.043630
v -0.124716 0.030958 0.045235
v -0.124590 0.031660 0.043791
v -0.124366 0.031175 0.043595
v -0.124639 0.029874 0.046014
v -0.124766 0.029812 0.045936
v -0.124420 0.030302 0.044985
v -0.124459 0.031725 0.043874
v -0.124508 0.030846 0.045249
v -0.124152 0.031062 0.043605
v -0.124291 0.030365 0.045065
v -0.124259 0.031697 0.043927
v -0.124341 0.030680 0.045217
v -0.124262 0.030504 0.045150
v -0.123952 0.031034 0.043658
v -0.124067 0.032457 0.042076
v -0.123982 0.032276 0.042000
v -0.124038 0.032598 0.042168
v -0.123807 0.032107 0.041962
v -0.124045 0.031584 0.043938
v -0.123904 0.032664 0.042252
v -0.123820 0.031099 0.043741
v -0.123589 0.031992 0.041971
v -0.123874 0.031416 0.043902
v -0.123792 0.031239 0.043830
v -0.123700 0.032636 0.042306
v -0.123385 0.031964 0.042025
v -0.123438 0.033546 0.040210
v -0.123352 0.033363 0.040133
v -0.123481 0.032522 0.042315
v -0.123409 0.033691 0.040305
v -0.123173 0.033191 0.040093
v -0.123250 0.032030 0.042109
v -0.123272 0.033758 0.040391
v -0.123306 0.032352 0.042277
v -0.123222 0.032172 0.042201
v -0.122949 0.033075 0.040101
v -0.123064 0.033730 0.040445
v -0.122741 0.033047 0.040155
v -0.122841 0.033614 0.040453
v -0.122757 0.034743 0.038179
v -0.122669 0.034557 0.038099
v -0.122727 0.034890 0.038276
v -0.122605 0.033114 0.040241
v -0.122486 0.034382 0.038058
v -0.122662 0.033441 0.040413
v -0.122588 0.034959 0.038363
v -0.122575 0.033258 0.040336
v -0.122258 0.034264 0.038065
v -0.122376 0.034930 0.038418
v -0.122046 0.034235 0.038120
v -0.122148 0.034812 0.038426
v -0.122048 0.036001 0.036054
v -0.121958 0.035811 0.035973
v -0.121907 0.034304 0.038208
v -0.122018 0.036150 0.036153
v -0.121965 0.034637 0.038385
v -0.121771 0.035633 0.035930
v -0.121877 0.034451 0.038305
v -0.121875 0.036220 0.036242
v -0.121539 0.035513 0.035937
v -0.121659 0.036192 0.036298
v -0.121323 0.035484 0.035993
v -0.121427 0.036072 0.036305
v -0.121181 0.035554 0.036082
v -0.121335 0.037273 0.033909
v -0.121243 0.037080 0.033825
v -0.121304 0.037425 0.034009
v -0.121241 0.035893 0.036263
v -0.121053 0.036898 0.033782
v -0.121151 0.035704 0.036181
v -0.121159 0.037496 0.034100
v -0.120816 0.036776 0.033789
v -0.120939 0.037467 0.034156
v -0.120596 0.036747 0.033846
v -0.120702 0.037345 0.034164
v -0.120642 0.038512 0.031815
v -0.120549 0.038316 0.031730
v -0.120451 0.036818 0.033936
v -0.120611 0.038668 0.031917
v -0.120513 0.037164 0.034120
v -0.120355 0.038131 0.031685
v -0.120421 0.036971 0.034037
v -0.120463 0.038740 0.032009
v -0.120114 0.038007 0.031693
v -0.120239 0.038711 0.032066
v -0.119890 0.037977 0.031750
v -0.119998 0.038587 0.032074
v -0.119994 0.039674 0.029845
v -0.119899 0.039474 0.029759
v -0.119962 0.039832 0.029948
v -0.119742 0.038050 0.031842
v -0.119703 0.039285 0.029714
v -0.119805 0.038402 0.032029
v -0.119812 0.039906 0.030041
v -0.119711 0.038205 0.031944
v -0.119457 0.039159 0.029721
v -0.119583 0.039876 0.030100
v -0.119229 0.039129 0.029780
v -0.119338 0.039750 0.030107
v -0.119415 0.040711 0.028071
v -0.119319 0.040506 0.027985
v -0.119382 0.040872 0.028175
v -0.119079 0.039203 0.029873
v -0.119119 0.040314 0.027939
v -0.119142 0.039562 0.030062
v -0.119229 0.040948 0.028270
v -0.119047 0.039361 0.029976
v -0.118870 0.040185 0.027947
v -0.118997 0.040918 0.028329
v -0.118637 0.040155 0.028006
v -0.118929 0.041576 0.026566
v -0.118832 0.041367 0.026480
v -0.118895 0.041741 0.026671
v -0.118747 0.040789 0.028337
v -0.118629 0.041171 0.026435
v -0.118484 0.040231 0.028101
v -0.118739 0.041819 0.026765
v -0.118547 0.040597 0.028291
v -0.118376 0.041040 0.026444
v -0.118451 0.040393 0.028205
v -0.118503 0.041788 0.026825
v -0.118561 0.042223 0.025404
v -0.118463 0.042011 0.025317
v -0.118527 0.042392 0.025509
v -0.118139 0.041009 0.026504
v -0.118257 0.041811 0.025272
v -0.118249 0.041657 0.026834
v -0.118367 0.042472 0.025604
v -0.117983 0.041087 0.026599
v -0.117999 0.041678 0.025281
v -0.118001 0.043210 0.023562
v -0.117885 0.042999 0.023478
v -0.118046 0.041461 0.026789
v -0.117979 0.043385 0.023669
v -0.118126 0.042441 0.025664
v -0.117949 0.041252 0.026703
v -0.117661 0.042807 0.023438
v -0.117758 0.041647 0.025341
v -0.117824 0.043477 0.023770
v -0.117869 0.042308 0.025673
v -0.117390 0.042688 0.023455
v -0.117599 0.041726 0.025436
v -0.117578 0.043461 0.023838
v -0.117663 0.042108 0.025628
v -0.117144 0.042672 0.023523
v -0.117486 0.044191 0.021833
v -0.117351 0.043983 0.021749
v -0.117564 0.041895 0.025541
v -0.117478 0.044370 0.021944
v -0.117109 0.043804 0.021714
v -0.117307 0.043341 0.023855
v -0.117329 0.044473 0.022053
v -0.116989 0.042763 0.023624
v -0.117083 0.043150 0.023816
v -0.116825 0.043700 0.021738
v -0.116967 0.042939 0.023731
v -0.117079 0.044472 0.022129
v -0.117013 0.045161 0.020209
v -0.116860 0.044959 0.020126
v -0.117020 0.045343 0.020324
v -0.116575 0.043699 0.021814
v -0.116601 0.044792 0.020097
v -0.116878 0.045457 0.020439
v -0.116795 0.044368 0.022153
v -0.116427 0.043802 0.021922
v -0.116305 0.044704 0.020129
v -0.116553 0.044188 0.022118
v -0.116625 0.045472 0.020524
v -0.116580 0.046115 0.018685
v -0.116408 0.045920 0.018604
v -0.116601 0.046299 0.018802
v -0.116418 0.043981 0.022033
v -0.116468 0.046424 0.018925
v -0.116132 0.045766 0.018581
v -0.116053 0.044719 0.020214
v -0.116330 0.045384 0.020556
v -0.116214 0.046455 0.019019
v -0.115827 0.045695 0.018623
v -0.116183 0.047047 0.017254
v -0.116220 0.047234 0.017373
v -0.115911 0.044832 0.020329
v -0.115993 0.046860 0.017176
v -0.116071 0.045216 0.020527
v -0.116096 0.047368 0.017503
v -0.115918 0.045015 0.020444
v -0.115703 0.046720 0.017161
v -0.115909 0.046384 0.019061
v -0.115574 0.045726 0.018717
v -0.115843 0.047415 0.017607
v -0.115820 0.047953 0.015911
v -0.115613 0.047774 0.015838
v -0.115874 0.048141 0.016032
v -0.115389 0.046667 0.017213
v -0.115759 0.048285 0.016167
v -0.115440 0.045850 0.018839
v -0.115633 0.046230 0.019038
v -0.115309 0.047650 0.015832
v -0.115462 0.046035 0.018957
v -0.115529 0.047362 0.017659
v -0.115490 0.048827 0.014651
v -0.115559 0.049014 0.014771
v -0.115508 0.048348 0.016282
v -0.115135 0.046714 0.017317
v -0.115266 0.048657 0.014583
v -0.115456 0.049168 0.014913
v -0.114987 0.047615 0.015895
v -0.115238 0.047223 0.017644
v -0.114948 0.048549 0.014588
v -0.115011 0.046849 0.017447
v -0.115188 0.049662 0.013467
v -0.115274 0.049849 0.013587
v -0.115187 0.048313 0.016344
v -0.115208 0.049248 0.015037
v -0.114948 0.049502 0.013407
v -0.115048 0.047035 0.017566
v -0.115183 0.050013 0.013733
v -0.114736 0.047678 0.016009
v -0.114621 0.048533 0.014662
v -0.114619 0.049411 0.013422
v -0.114913 0.050454 0.012355
v -0.115015 0.050640 0.012472
v -0.114882 0.048189 0.016338
v -0.114881 0.049232 0.015112
v -0.114939 0.050109 0.013868
v -0.114658 0.050304 0.012304
v -0.114937 0.050813 0.012623
v -0.114622 0.047823 0.016145
v -0.114675 0.048010 0.016265
v -0.114780 0.051381 0.011423
v -0.114662 0.051196 0.011310
v -0.114373 0.048612 0.014787
v -0.114288 0.049415 0.013509
v -0.114318 0.050231 0.012331
v -0.114699 0.050926 0.012767
v -0.114608 0.050112 0.013954
v -0.114715 0.051563 0.011576
v -0.114393 0.051057 0.011268
v -0.114563 0.049124 0.015116
v -0.114567 0.052066 0.010433
v -0.114433 0.051882 0.010326
v -0.114270 0.048766 0.014928
v -0.114485 0.051694 0.011728
v -0.114366 0.050949 0.012866
v -0.114517 0.052258 0.010587
v -0.114339 0.048954 0.015049
v -0.114045 0.051003 0.011308
v -0.114151 0.051755 0.010296
v -0.114044 0.049511 0.013644
v -0.113985 0.050254 0.012430
v -0.114279 0.050022 0.013970
v -0.114373 0.052691 0.009496
v -0.114223 0.052509 0.009396
v -0.114295 0.052406 0.010747
v -0.114337 0.052892 0.009649
v -0.114151 0.051738 0.011840
v -0.113928 0.052395 0.009378
v -0.113795 0.051720 0.010349
v -0.113953 0.049674 0.013790
v -0.114026 0.050876 0.012893
v -0.113492 0.055547 0.005438
v -0.113330 0.055369 0.005346
v -0.114039 0.049861 0.013909
v -0.114125 0.053059 0.009816
v -0.113471 0.055753 0.005591
v -0.113710 0.051047 0.011419
v -0.113747 0.050368 0.012574
v -0.113961 0.052472 0.010869
v -0.113028 0.055267 0.005340
v -0.113802 0.051683 0.011879
v -0.113567 0.052379 0.009445
v -0.113794 0.053146 0.009951
v -0.113271 0.055932 0.005764
v -0.113669 0.050540 0.012725
v -0.113771 0.050727 0.012841
v -0.113462 0.051786 0.010471
v -0.113480 0.051178 0.011572
v -0.113605 0.052437 0.010922
v -0.112666 0.055268 0.005421
v -0.113533 0.051545 0.011838
v -0.113236 0.052466 0.009580
v -0.113433 0.053130 0.010018
v -0.112947 0.056036 0.005911
v -0.113415 0.051360 0.011725
v -0.113240 0.051935 0.010631
v -0.113323 0.052311 0.010891
v -0.112342 0.055372 0.005568
v -0.113189 0.052127 0.010785
v -0.113024 0.052633 0.009746
v -0.112624 0.058229 0.001643
v -0.112450 0.058056 0.001559
v -0.112617 0.058438 0.001797
v -0.113138 0.053016 0.009999
v -0.112585 0.056037 0.005992
v -0.112141 0.057965 0.001566
v -0.112431 0.058628 0.001978
v -0.112988 0.052834 0.009900
v -0.112142 0.055551 0.005741
v -0.112283 0.055935 0.005986
v -0.112121 0.055757 0.005894
v -0.111780 0.057982 0.001662
v -0.112115 0.058748 0.002138
v -0.111464 0.058102 0.001822
v -0.111774 0.060749 -0.001893
v -0.111587 0.060582 -0.001970
v -0.111782 0.060961 -0.001740
v -0.111754 0.058764 0.002234
v -0.111273 0.060505 -0.001950
v -0.111610 0.061161 -0.001551
v -0.111278 0.058292 0.002003
v -0.111445 0.058674 0.002241
v -0.111271 0.058501 0.002156
v -0.110915 0.060538 -0.001839
v -0.111304 0.061296 -0.001378
v -0.110609 0.060672 -0.001666
v -0.110947 0.063125 -0.005180
v -0.110749 0.062965 -0.005250
v -0.110971 0.063338 -0.005027
v -0.110946 0.061329 -0.001267
v -0.110814 0.063548 -0.004831
v -0.110431 0.062900 -0.005217
v -0.110437 0.060872 -0.001477
v -0.110631 0.061251 -0.001247
v -0.110519 0.063697 -0.004645
v -0.110445 0.061084 -0.001324
v -0.110076 0.062950 -0.005090
v -0.110150 0.065371 -0.008225
v -0.110190 0.065585 -0.008072
v -0.110165 0.063746 -0.004518
v -0.109941 0.065219 -0.008287
v -0.109781 0.063099 -0.004904
v -0.110049 0.065802 -0.007869
v -0.109619 0.065169 -0.008241
v -0.109846 0.063682 -0.004485
v -0.109625 0.063308 -0.004708
v -0.109767 0.065966 -0.007670
v -0.109649 0.063522 -0.004555
v -0.109270 0.065234 -0.008100
v -0.109388 0.067505 -0.011037
v -0.109443 0.067717 -0.010884
v -0.109417 0.066031 -0.007528
v -0.109168 0.067361 -0.011091
v -0.108987 0.065397 -0.007901
v -0.109320 0.067942 -0.010673
v -0.108844 0.067325 -0.011032
v -0.109095 0.065981 -0.007482
v -0.108847 0.065614 -0.007697
v -0.109051 0.068118 -0.010460
v -0.108887 0.065828 -0.007544
v -0.108501 0.067406 -0.010876
v -0.108666 0.069541 -0.013623
v -0.108738 0.069751 -0.013469
v -0.108709 0.068199 -0.010304
v -0.108436 0.069408 -0.013670
v -0.108633 0.069981 -0.013250
v -0.108232 0.067582 -0.010664
v -0.108111 0.069386 -0.013598
v -0.108384 0.068163 -0.010245
v -0.108379 0.070169 -0.013025
v -0.108109 0.067807 -0.010453
v -0.108165 0.068019 -0.010299
v -0.107776 0.069482 -0.013427
v -0.107990 0.071497 -0.015992
v -0.108078 0.071702 -0.015837
v -0.108045 0.070265 -0.012853
v -0.107751 0.071374 -0.016032
v -0.107993 0.071935 -0.015610
v -0.107522 0.069670 -0.013201
v -0.107425 0.071367 -0.015947
v -0.107719 0.070244 -0.012781
v -0.107756 0.072134 -0.015371
v -0.107417 0.069900 -0.012982
v -0.107489 0.070110 -0.012829
v -0.107100 0.071478 -0.015760
v -0.107365 0.073388 -0.018152
v -0.107471 0.073587 -0.017996
v -0.107431 0.072245 -0.015184
v -0.107117 0.073278 -0.018185
v -0.107405 0.073821 -0.017760
v -0.106863 0.071677 -0.015521
v -0.106792 0.073286 -0.018087
v -0.107186 0.074028 -0.017506
v -0.107105 0.072238 -0.015099
v -0.106777 0.071910 -0.015294
v -0.106865 0.072115 -0.015139
v -0.106920 0.075421 -0.019954
v -0.106797 0.075231 -0.020112
v -0.106478 0.073410 -0.017884
v -0.106872 0.074152 -0.017303
v -0.106876 0.075654 -0.019707
v -0.106540 0.075135 -0.020139
v -0.106676 0.075866 -0.019438
v -0.106218 0.075157 -0.020027
v -0.106259 0.073617 -0.017631
v -0.106547 0.074160 -0.017205
v -0.106432 0.077222 -0.021719
v -0.106292 0.077043 -0.021879
v -0.106193 0.073851 -0.017394
v -0.106299 0.074050 -0.017239
v -0.106375 0.076002 -0.019219
v -0.106410 0.077449 -0.021461
v -0.105917 0.075293 -0.019808
v -0.106027 0.076962 -0.021900
v -0.106231 0.077664 -0.021175
v -0.106052 0.076025 -0.019107
v -0.105709 0.076998 -0.021775
v -0.105717 0.075505 -0.019539
v -0.106012 0.079004 -0.023298
v -0.105856 0.078838 -0.023460
v -0.106012 0.079225 -0.023031
v -0.105944 0.077810 -0.020938
v -0.105795 0.075928 -0.019134
v -0.105584 0.078771 -0.023473
v -0.105673 0.075738 -0.019292
v -0.105855 0.079441 -0.022729
v -0.105422 0.077144 -0.021538
v -0.105625 0.077846 -0.020813
v -0.105271 0.078820 -0.023333
v -0.105661 0.080827 -0.024744
v -0.105503 0.080666 -0.024913
v -0.105660 0.081041 -0.024468
v -0.105584 0.079594 -0.022475
v -0.105243 0.077359 -0.021252
v -0.105229 0.080600 -0.024930
v -0.105501 0.081250 -0.024159
v -0.105360 0.077764 -0.020834
v -0.105220 0.077586 -0.020995
v -0.104999 0.078974 -0.023079
v -0.105353 0.082521 -0.026026
v -0.105194 0.082363 -0.026202
v -0.105351 0.082729 -0.025743
v -0.105270 0.079644 -0.022335
v -0.104913 0.080648 -0.024790
v -0.105227 0.081399 -0.023900
v -0.104918 0.082299 -0.026222
v -0.105190 0.082933 -0.025428
v -0.104842 0.079190 -0.022777
v -0.104999 0.079577 -0.022348
v -0.105087 0.084099 -0.027158
v -0.104927 0.083946 -0.027340
v -0.105085 0.084301 -0.026867
v -0.104639 0.080797 -0.024531
v -0.104911 0.081447 -0.023760
v -0.104842 0.079411 -0.022510
v -0.104599 0.082345 -0.026081
v -0.104913 0.083077 -0.025165
v -0.104649 0.083884 -0.027364
v -0.104922 0.084498 -0.026545
v -0.105074 0.108050 -0.033530
v -0.104986 0.107180 -0.033382
v -0.105112 0.107926 -0.033193
v -0.104202 0.108115 -0.033192
v -0.104888 0.107112 -0.033034
v -0.105028 0.107827 -0.032856
v -0.104241 0.107991 -0.032855
v -0.104862 0.085573 -0.028152
v -0.104702 0.085426 -0.028341
v -0.104859 0.085767 -0.027853
v -0.104959 0.107268 -0.033738
v -0.104924 0.108166 -0.033777
v -0.104286 0.108214 -0.033529
v -0.104692 0.107083 -0.032788
v -0.104845 0.107780 -0.032609
v -0.104391 0.107874 -0.032609
v -0.104480 0.081006 -0.024222
v -0.104637 0.081381 -0.023777
v -0.104881 0.106346 -0.033516
v -0.104767 0.106305 -0.033163
v -0.104815 0.107355 -0.034006
v -0.104868 0.106404 -0.033885
v -0.104322 0.082489 -0.025818
v -0.104594 0.083123 -0.025024
v -0.104327 0.083928 -0.027223
v -0.104642 0.084638 -0.026278
v -0.104421 0.085366 -0.028369
v -0.104694 0.085958 -0.027524
v -0.104703 0.108244 -0.033867
v -0.104469 0.108261 -0.033776
v -0.104793 0.105433 -0.033596
v -0.104661 0.105414 -0.033240
v -0.104557 0.106292 -0.032919
v -0.104677 0.086955 -0.029022
v -0.104516 0.086816 -0.029218
v -0.104674 0.087141 -0.028714
v -0.104732 0.106463 -0.034171
v -0.104797 0.105464 -0.033975
v -0.104479 0.081220 -0.023946
v -0.104450 0.107102 -0.032708
v -0.104612 0.107797 -0.032519
v -0.104592 0.107416 -0.034115
v -0.104719 0.104451 -0.033622
v -0.104568 0.104452 -0.033267
v -0.104741 0.104459 -0.034008
v -0.104671 0.105501 -0.034275
v -0.104436 0.105414 -0.033002
v -0.104656 0.103409 -0.033595
v -0.104697 0.103397 -0.033986
v -0.104627 0.104475 -0.034321
v -0.104509 0.106509 -0.034297
v -0.104485 0.103428 -0.033241
v -0.104234 0.086760 -0.029251
v -0.104411 0.086092 -0.027254
v -0.104507 0.087323 -0.028378
v -0.104661 0.102288 -0.033908
v -0.104600 0.102319 -0.033515
v -0.104596 0.103395 -0.034309
v -0.104306 0.106311 -0.032851
v -0.104161 0.082693 -0.025503
v -0.104318 0.083059 -0.025045
v -0.104096 0.085410 -0.028229
v -0.104320 0.084682 -0.026138
v -0.104532 0.088257 -0.029779
v -0.104370 0.088126 -0.029984
v -0.104528 0.088433 -0.029463
v -0.104629 0.101141 -0.033776
v -0.104548 0.101189 -0.033382
v -0.104575 0.102269 -0.034240
v -0.104558 0.101105 -0.034117
v -0.104598 0.099965 -0.033592
v -0.104496 0.100031 -0.033198
v -0.104409 0.102353 -0.033165
v -0.104450 0.105533 -0.034416
v -0.104409 0.104495 -0.034476
v -0.104328 0.104463 -0.033036
v -0.104227 0.107163 -0.032817
v -0.104047 0.084068 -0.026956
v -0.104543 0.099914 -0.033939
v -0.104564 0.098771 -0.033355
v -0.104441 0.098853 -0.032963
v -0.104337 0.101238 -0.033039
v -0.104382 0.103403 -0.034478
v -0.104350 0.107434 -0.034035
v -0.104526 0.098704 -0.033706
v -0.104524 0.097567 -0.033066
v -0.104379 0.097665 -0.032679
v -0.104355 0.101092 -0.034312
v -0.104347 0.099890 -0.034145
v -0.104365 0.102266 -0.034423
v -0.104265 0.100092 -0.032863
v -0.104230 0.103448 -0.033020
v -0.104178 0.105433 -0.032947
v -0.104085 0.088075 -0.030022
v -0.104359 0.088607 -0.029120
v -0.104221 0.087453 -0.028104
v -0.104425 0.089492 -0.030438
v -0.104263 0.089370 -0.030650
v -0.104420 0.089657 -0.030113
v -0.104504 0.097484 -0.033421
v -0.104474 0.096363 -0.032726
v -0.104337 0.098670 -0.033925
v -0.104471 0.096264 -0.033083
v -0.104323 0.097439 -0.033650
v -0.104307 0.096479 -0.032345
v -0.104189 0.098927 -0.032638
v -0.104259 0.106528 -0.034229
v -0.104160 0.082902 -0.025220
v -0.104410 0.095177 -0.032338
v -0.104426 0.095062 -0.032696
v -0.104300 0.096208 -0.033323
v -0.104221 0.095306 -0.031965
v -0.104139 0.102381 -0.032954
v -0.103905 0.086802 -0.029112
v -0.104086 0.086136 -0.027113
v -0.104356 0.090669 -0.031010
v -0.104192 0.090559 -0.031230
v -0.104248 0.089821 -0.029763
v -0.104349 0.090823 -0.030677
v -0.104345 0.094106 -0.031984
v -0.104358 0.093982 -0.032337
v -0.104264 0.094994 -0.032945
v -0.104160 0.094242 -0.031615
v -0.104107 0.097753 -0.032364
v -0.104052 0.101273 -0.032839
v -0.104192 0.105551 -0.034361
v -0.104144 0.104512 -0.034433
v -0.104063 0.104480 -0.032993
v -0.104083 0.106356 -0.032977
v -0.103884 0.084265 -0.026634
v -0.104042 0.084620 -0.026162
v -0.103813 0.085544 -0.027958
v -0.103975 0.089326 -0.030694
v -0.104070 0.088732 -0.028842
v -0.104322 0.091802 -0.031508
v -0.104158 0.091703 -0.031737
v -0.104314 0.091945 -0.031168
v -0.104174 0.090979 -0.030321
v -0.104323 0.092903 -0.031946
v -0.104160 0.092815 -0.032182
v -0.104313 0.093035 -0.031599
v -0.104136 0.092093 -0.030807
v -0.104195 0.093905 -0.032579
v -0.104131 0.093176 -0.031233
v -0.104031 0.097444 -0.033692
v -0.104005 0.096210 -0.033379
v -0.104015 0.096580 -0.032044
v -0.103910 0.095416 -0.031678
v -0.104048 0.098678 -0.033951
v -0.104061 0.099901 -0.034157
v -0.104073 0.101105 -0.034309
v -0.104089 0.102280 -0.034406
v -0.103966 0.100134 -0.032676
v -0.104111 0.103419 -0.034448
v -0.103959 0.103464 -0.032990
v -0.103957 0.105464 -0.033088
v -0.104154 0.107406 -0.033788
v -0.104083 0.107249 -0.033085
v -0.103903 0.090521 -0.031280
v -0.103969 0.094989 -0.033016
v -0.103877 0.098975 -0.032465
v -0.104049 0.106515 -0.033985
v -0.103754 0.088118 -0.029884
v -0.103893 0.087495 -0.027964
v -0.103956 0.089942 -0.029483
v -0.103853 0.094354 -0.031329
v -0.103863 0.102395 -0.032938
v -0.103947 0.106416 -0.033262
v -0.104056 0.107338 -0.033440
v -0.103867 0.091674 -0.031792
v -0.103901 0.093894 -0.032646
v -0.103782 0.097807 -0.032207
v -0.103967 0.105551 -0.034123
v -0.103878 0.091095 -0.030038
v -0.103845 0.104499 -0.033148
v -0.103882 0.084467 -0.026343
v -0.103867 0.092794 -0.032243
v -0.103836 0.092206 -0.030522
v -0.103828 0.093288 -0.030948
v -0.103771 0.101285 -0.032837
v -0.103904 0.104523 -0.034202
v -0.103677 0.096639 -0.031903
v -0.103856 0.103439 -0.034226
v -0.103648 0.085734 -0.027629
v -0.103806 0.086076 -0.027142
v -0.103619 0.086932 -0.028837
v -0.103641 0.089369 -0.030557
v -0.103738 0.088774 -0.028704
v -0.103762 0.099942 -0.033970
v -0.103735 0.098725 -0.033778
v -0.103789 0.101140 -0.034109
v -0.103819 0.102308 -0.034195
v -0.103680 0.100144 -0.032687
v -0.103745 0.103472 -0.033159
v -0.103831 0.105501 -0.033388
v -0.103935 0.106474 -0.033632
v -0.103705 0.097498 -0.033534
v -0.103667 0.096269 -0.033238
v -0.103560 0.095477 -0.031553
v -0.103565 0.090567 -0.031145
v -0.103621 0.089985 -0.029346
v -0.103618 0.095050 -0.032891
v -0.103587 0.098983 -0.032491
v -0.103653 0.102392 -0.033120
v -0.103731 0.104515 -0.033461
v -0.103835 0.105533 -0.033767
v -0.103646 0.085929 -0.027330
v -0.103452 0.087114 -0.028501
v -0.103610 0.087439 -0.027997
v -0.103465 0.088243 -0.029606
v -0.103526 0.091722 -0.031660
v -0.103540 0.091141 -0.029903
v -0.103522 0.092847 -0.032114
v -0.103495 0.092255 -0.030389
v -0.103554 0.093952 -0.032520
v -0.103484 0.093341 -0.030818
v -0.103506 0.094412 -0.031202
v -0.103489 0.097812 -0.032248
v -0.103685 0.103457 -0.033873
v -0.103628 0.102342 -0.033846
v -0.103567 0.101272 -0.033031
v -0.103753 0.104524 -0.033847
v -0.103645 0.103469 -0.033482
v -0.103383 0.096641 -0.031960
v -0.103578 0.101188 -0.033766
v -0.103348 0.089489 -0.030276
v -0.103453 0.088723 -0.028742
v -0.103531 0.100004 -0.033635
v -0.103484 0.098800 -0.033453
v -0.103483 0.100121 -0.032894
v -0.103567 0.102373 -0.033452
v -0.103433 0.097585 -0.033220
v -0.103264 0.095472 -0.031625
v -0.103398 0.098949 -0.032709
v -0.103376 0.096370 -0.032937
v -0.103449 0.087300 -0.028194
v -0.103269 0.090683 -0.030862
v -0.103497 0.101236 -0.033372
v -0.103295 0.088416 -0.029263
v -0.103334 0.089940 -0.029389
v -0.103307 0.095159 -0.032604
v -0.103309 0.097767 -0.032477
v -0.103226 0.091836 -0.031375
v -0.103247 0.094064 -0.032234
v -0.103211 0.094401 -0.031269
v -0.103429 0.100069 -0.033241
v -0.103251 0.091103 -0.029953
v -0.103219 0.092959 -0.031828
v -0.103204 0.092226 -0.030445
v -0.103191 0.093320 -0.030879
v -0.103212 0.096584 -0.032199
v -0.103360 0.098882 -0.033061
v -0.103176 0.089654 -0.029927
v -0.103291 0.088592 -0.028947
v -0.103288 0.097684 -0.032833
v -0.103209 0.096485 -0.032557
v -0.103103 0.095403 -0.031873
v -0.103094 0.090839 -0.030506
v -0.103171 0.089819 -0.029602
v -0.103118 0.095289 -0.032231
v -0.103048 0.091984 -0.031014
v -0.103049 0.094324 -0.031512
v -0.103088 0.090993 -0.030173
v -0.103062 0.094200 -0.031865
v -0.103038 0.093100 -0.031463
v -0.103040 0.092126 -0.030673
v -0.103028 0.093232 -0.031115
usemtl Lateral_dorsal_cutaneous_nerve_rMaterial0
f 1 2 3
f 3 2 4
f 5 1 3
f 6 3 7
f 3 4 7
f 5 3 6
f 1 8 2
f 8 9 2
f 2 10 4
f 2 9 10
f 11 8 1
f 12 1 5
f 12 11 1
f 6 7 13
f 7 4 14
f 13 7 15
f 7 14 15
f 8 16 9
f 11 17 8
f 17 16 8
f 18 6 13
f 19 5 6
f 19 6 18
f 4 20 14
f 4 10 20
f 13 15 21
f 22 13 21
f 18 13 22
f 23 12 5
f 23 5 19
f 15 14 24
f 21 15 25
f 15 24 25
f 16 26 9
f 9 27 10
f 9 26 27
f 28 17 11
f 29 11 12
f 29 28 11
f 17 30 16
f 31 30 17
f 28 31 17
f 30 32 16
f 16 32 26
f 14 20 33
f 14 33 24
f 22 21 34
f 21 25 35
f 34 21 35
f 10 36 20
f 10 27 36
f 37 18 22
f 38 19 18
f 38 18 37
f 39 29 12
f 39 12 23
f 40 22 34
f 37 22 40
f 41 23 19
f 41 19 38
f 31 42 30
f 30 43 32
f 42 43 30
f 44 31 28
f 45 28 29
f 45 44 28
f 25 24 46
f 35 25 47
f 25 46 47
f 48 42 31
f 44 48 31
f 34 35 49
f 50 34 49
f 40 34 50
f 20 51 33
f 20 36 51
f 24 33 52
f 24 52 46
f 35 47 53
f 49 35 53
f 54 45 29
f 54 29 39
f 55 39 23
f 55 23 41
f 32 56 26
f 26 57 27
f 26 56 57
f 43 58 32
f 32 58 56
f 48 59 42
f 42 60 43
f 59 60 42
f 61 48 44
f 62 44 45
f 62 61 44
f 47 46 63
f 53 47 64
f 47 63 64
f 49 53 65
f 50 49 66
f 66 49 65
f 67 37 40
f 68 38 37
f 68 37 67
f 69 40 50
f 67 40 69
f 27 70 36
f 27 57 70
f 61 71 48
f 71 59 48
f 33 72 52
f 33 51 72
f 46 73 63
f 46 52 73
f 53 64 74
f 65 53 74
f 75 41 38
f 75 38 68
f 60 76 43
f 43 76 58
f 77 62 45
f 77 45 54
f 78 54 39
f 78 39 55
f 79 50 66
f 69 50 79
f 80 71 61
f 81 80 61
f 81 61 62
f 64 63 82
f 74 64 80
f 64 82 80
f 71 83 59
f 80 82 71
f 82 83 71
f 36 84 51
f 36 70 84
f 59 85 60
f 83 85 59
f 63 86 82
f 63 73 86
f 74 80 81
f 65 74 87
f 87 74 81
f 66 65 88
f 88 65 87
f 89 55 41
f 89 41 75
f 82 86 83
f 90 81 62
f 90 62 77
f 52 91 73
f 52 72 91
f 87 81 90
f 79 66 92
f 92 66 88
f 85 93 60
f 60 93 76
f 94 77 54
f 94 54 78
f 95 67 69
f 96 68 67
f 96 67 95
f 97 69 79
f 95 69 97
f 86 98 83
f 83 98 85
f 99 87 90
f 88 87 99
f 73 100 86
f 73 91 100
f 51 101 72
f 51 84 101
f 86 100 98
f 102 90 77
f 102 77 94
f 103 78 55
f 103 55 89
f 104 75 68
f 104 68 96
f 105 79 92
f 97 79 105
f 99 90 102
f 58 106 56
f 56 107 57
f 56 106 107
f 92 88 108
f 108 88 99
f 76 109 58
f 58 109 106
f 98 110 85
f 85 110 93
f 57 111 70
f 57 107 111
f 93 112 76
f 76 112 109
f 113 94 78
f 113 78 103
f 114 89 75
f 114 75 104
f 115 92 108
f 105 92 115
f 72 116 91
f 72 101 116
f 117 99 102
f 108 99 117
f 100 118 98
f 98 118 110
f 119 102 94
f 119 94 113
f 117 102 119
f 70 120 84
f 70 111 120
f 91 121 100
f 91 116 121
f 122 95 97
f 123 97 105
f 122 97 123
f 124 96 95
f 124 95 122
f 110 125 93
f 93 125 112
f 100 121 118
f 126 103 89
f 126 89 114
f 127 108 117
f 115 108 127
f 128 105 115
f 123 105 128
f 129 104 96
f 129 96 124
f 84 130 101
f 84 120 130
f 131 113 103
f 131 103 126
f 132 117 119
f 127 117 132
f 133 115 127
f 128 115 133
f 118 134 110
f 110 134 125
f 135 119 113
f 135 113 131
f 132 119 135
f 136 114 104
f 136 104 129
f 101 137 116
f 101 130 137
f 109 138 106
f 112 139 109
f 109 139 138
f 106 140 107
f 106 138 140
f 141 127 132
f 133 127 141
f 121 142 118
f 118 142 134
f 143 122 123
f 144 123 128
f 143 123 144
f 145 126 114
f 145 114 136
f 146 124 122
f 146 122 143
f 107 140 147
f 107 147 111
f 116 148 121
f 116 137 148
f 149 128 133
f 144 128 149
f 112 150 139
f 125 150 112
f 121 148 142
f 139 151 138
f 150 152 139
f 139 152 151
f 138 153 140
f 138 151 153
f 154 132 135
f 141 132 154
f 155 129 124
f 155 124 146
f 156 131 126
f 156 126 145
f 157 133 141
f 149 133 157
f 140 153 158
f 140 158 147
f 150 159 152
f 125 160 150
f 160 159 150
f 111 147 161
f 111 161 120
f 162 135 131
f 162 131 156
f 154 135 162
f 152 163 151
f 159 164 152
f 152 164 163
f 151 165 153
f 151 163 165
f 134 160 125
f 166 136 129
f 166 129 155
f 153 165 167
f 153 167 158
f 159 168 164
f 160 169 159
f 169 168 159
f 170 141 154
f 157 141 170
f 147 158 171
f 147 171 161
f 164 172 163
f 168 173 164
f 164 173 172
f 163 174 165
f 163 172 174
f 134 175 160
f 175 169 160
f 120 161 176
f 120 176 130
f 142 175 134
f 177 145 136
f 177 136 166
f 144 177 143
f 149 178 144
f 144 178 177
f 165 174 179
f 165 179 167
f 168 180 173
f 169 181 168
f 181 180 168
f 143 166 146
f 143 177 166
f 157 182 149
f 149 182 178
f 173 183 172
f 180 184 173
f 173 184 183
f 172 185 174
f 172 183 185
f 158 167 186
f 158 186 171
f 187 154 162
f 170 154 187
f 175 188 169
f 188 181 169
f 161 171 189
f 161 189 176
f 142 190 175
f 190 188 175
f 178 156 145
f 178 145 177
f 180 191 184
f 181 192 180
f 192 191 180
f 174 185 193
f 174 193 179
f 148 190 142
f 130 194 137
f 130 176 194
f 182 162 156
f 187 162 182
f 146 166 155
f 170 187 157
f 157 187 182
f 184 195 183
f 184 196 195
f 191 196 184
f 183 197 185
f 183 195 197
f 188 198 181
f 198 192 181
f 167 179 199
f 167 199 186
f 182 156 178
f 185 197 200
f 185 200 193
f 190 201 188
f 201 198 188
f 171 186 202
f 171 202 189
f 137 203 148
f 148 203 190
f 137 194 203
f 196 204 195
f 191 205 196
f 196 206 204
f 205 206 196
f 195 204 207
f 195 207 197
f 192 208 191
f 208 205 191
f 203 201 190
f 176 209 194
f 176 189 209
f 179 193 210
f 179 210 199
f 198 211 192
f 211 208 192
f 206 212 204
f 205 213 206
f 206 214 212
f 213 214 206
f 204 212 215
f 204 215 207
f 208 216 205
f 216 213 205
f 197 207 217
f 197 217 200
f 201 218 198
f 218 211 198
f 186 199 219
f 186 219 202
f 194 220 203
f 203 220 201
f 194 209 220
f 189 221 209
f 189 202 221
f 193 200 222
f 193 222 210
f 220 218 201
f 211 223 208
f 223 216 208
f 214 224 212
f 213 225 214
f 214 226 224
f 225 226 214
f 212 224 227
f 212 227 215
f 207 215 228
f 207 228 217
f 216 229 213
f 229 225 213
f 199 210 230
f 199 230 219
f 218 231 211
f 231 223 211
f 209 232 220
f 220 232 218
f 209 221 232
f 226 233 224
f 225 234 226
f 226 235 233
f 234 235 226
f 224 233 236
f 224 236 227
f 215 227 237
f 215 237 228
f 238 229 216
f 223 238 216
f 200 217 239
f 200 239 222
f 232 231 218
f 202 219 240
f 202 240 221
f 241 234 225
f 229 241 225
f 235 242 233
f 235 243 242
f 244 243 235
f 234 244 235
f 233 242 245
f 233 245 236
f 210 222 246
f 210 246 230
f 243 247 248
f 249 248 247
f 250 247 243
f 250 251 247
f 252 247 251
f 249 247 252
f 243 248 242
f 242 248 253
f 254 253 248
f 254 248 249
f 244 250 243
f 242 253 245
f 255 244 234
f 241 255 234
f 227 236 256
f 227 256 237
f 257 241 229
f 238 257 229
f 217 228 258
f 217 258 239
f 231 259 223
f 259 238 223
f 219 260 240
f 219 230 260
f 221 261 232
f 232 261 231
f 221 240 261
f 262 250 244
f 255 262 244
f 236 245 263
f 236 263 256
f 261 259 231
f 245 253 264
f 245 264 263
f 228 237 265
f 228 265 258
f 222 239 266
f 222 266 246
f 267 264 253
f 267 253 254
f 268 251 250
f 262 268 250
f 269 255 241
f 257 269 241
f 259 270 238
f 270 257 238
f 268 271 251
f 272 251 271
f 252 251 272
f 240 273 261
f 261 273 259
f 240 260 273
f 237 256 274
f 237 274 265
f 230 246 275
f 230 275 260
f 273 270 259
f 276 262 255
f 269 276 255
f 239 258 277
f 239 277 266
f 256 263 278
f 256 278 274
f 270 279 257
f 279 269 257
f 280 268 262
f 276 280 262
f 281 271 268
f 280 281 268
f 263 264 282
f 282 264 267
f 263 282 278
f 258 265 283
f 258 283 277
f 273 284 270
f 284 279 270
f 246 266 285
f 246 285 275
f 260 284 273
f 260 275 284
f 281 272 271
f 286 276 269
f 279 286 269
f 265 274 287
f 265 287 283
f 288 280 276
f 286 288 276
f 284 289 279
f 289 286 279
f 266 277 290
f 266 290 285
f 275 289 284
f 275 285 289
f 274 278 291
f 274 291 287
f 292 281 280
f 288 292 280
f 293 272 281
f 293 252 272
f 292 293 281
f 278 282 267
f 278 267 291
f 289 294 286
f 294 288 286
f 277 283 295
f 277 295 290
f 285 294 289
f 285 290 294
f 283 287 296
f 283 296 295
f 294 297 288
f 297 292 288
f 290 297 294
f 290 295 297
f 287 291 298
f 287 298 296
f 299 293 292
f 297 299 292
f 291 267 254
f 291 254 298
f 300 252 293
f 300 249 252
f 299 300 293
f 295 299 297
f 295 296 299
f 296 300 299
f 296 298 300
f 298 254 249
f 298 249 300
f 301 302 303
f 304 303 302
f 305 306 302
f 307 302 306
f 305 302 301
f 304 302 307
f 308 303 304
f 309 303 308
f 301 303 309
f 310 311 306
f 312 306 311
f 310 306 305
f 307 306 312
f 313 308 304
f 309 308 313
f 314 311 315
f 316 315 311
f 316 311 310
f 312 311 314
f 317 301 309
f 318 305 301
f 318 301 317
f 313 304 319
f 319 304 307
f 320 309 313
f 317 309 320
f 321 310 305
f 321 305 318
f 322 315 323
f 324 323 315
f 314 315 322
f 324 315 316
f 325 313 319
f 320 313 325
f 319 307 326
f 326 307 312
f 327 316 310
f 327 310 321
f 328 322 323
f 328 323 324
f 329 319 326
f 325 319 329
f 330 312 314
f 326 312 330
f 331 314 322
f 331 322 328
f 330 314 331
f 332 324 316
f 332 316 327
f 333 317 320
f 334 318 317
f 334 317 333
f 335 320 325
f 333 320 335
f 336 321 318
f 336 318 334
f 337 326 330
f 329 326 337
f 338 325 329
f 335 325 338
f 339 328 324
f 339 324 332
f 340 327 321
f 340 321 336
f 341 330 331
f 337 330 341
f 342 331 328
f 342 328 339
f 341 331 342
f 343 329 337
f 338 329 343
f 344 332 327
f 344 327 340
f 345 333 335
f 346 334 333
f 346 333 345
f 347 337 341
f 343 337 347
f 348 335 338
f 345 335 348
f 349 336 334
f 349 334 346
f 350 339 332
f 350 332 344
f 351 338 343
f 348 338 351
f 352 341 342
f 347 341 352
f 353 342 339
f 353 339 350
f 354 340 336
f 354 336 349
f 352 342 353
f 355 343 347
f 351 343 355
f 356 344 340
f 356 340 354
f 357 347 352
f 355 347 357
f 358 345 348
f 359 346 345
f 359 345 358
f 360 348 351
f 358 348 360
f 361 350 344
f 361 344 356
f 362 349 346
f 362 346 359
f 363 352 353
f 357 352 363
f 364 351 355
f 360 351 364
f 365 353 350
f 365 350 361
f 363 353 365
f 366 354 349
f 366 349 362
f 367 355 357
f 364 355 367
f 368 356 354
f 368 354 366
f 369 357 363
f 367 357 369
f 370 358 360
f 371 359 358
f 371 358 370
f 372 361 356
f 372 356 368
f 373 360 364
f 370 360 373
f 374 363 365
f 369 363 374
f 375 362 359
f 375 359 371
f 376 365 361
f 376 361 372
f 377 364 367
f 373 364 377
f 374 365 376
f 378 366 362
f 378 362 375
f 379 367 369
f 377 367 379
f 380 368 366
f 380 366 378
f 381 369 374
f 379 369 381
f 382 372 368
f 382 368 380
f 383 370 373
f 384 371 370
f 384 370 383
f 385 373 377
f 383 373 385
f 386 374 376
f 381 374 386
f 387 375 371
f 387 371 384
f 388 376 372
f 388 372 382
f 386 376 388
f 389 377 379
f 385 377 389
f 390 378 375
f 390 375 387
f 391 379 381
f 389 379 391
f 392 380 378
f 392 378 390
f 393 381 386
f 391 381 393
f 394 383 385
f 395 384 383
f 395 383 394
f 396 382 380
f 396 380 392
f 397 385 389
f 394 385 397
f 398 386 388
f 393 386 398
f 399 387 384
f 399 384 395
f 400 388 382
f 400 382 396
f 398 388 400
f 401 389 391
f 397 389 401
f 402 390 387
f 402 387 399
f 403 391 393
f 401 391 403
f 404 392 390
f 404 390 402
f 405 393 398
f 403 393 405
f 406 394 397
f 407 395 394
f 407 394 406
f 408 397 401
f 406 397 408
f 409 396 392
f 409 392 404
f 410 399 395
f 410 395 407
f 411 398 400
f 405 398 411
f 412 401 403
f 408 401 412
f 413 400 396
f 413 396 409
f 411 400 413
f 414 402 399
f 414 399 410
f 415 403 405
f 412 403 415
f 416 404 402
f 416 402 414
f 417 405 411
f 415 405 417
f 418 406 408
f 419 407 406
f 419 406 418
f 420 408 412
f 418 408 420
f 421 409 404
f 421 404 416
f 422 410 407
f 422 407 419
f 423 411 413
f 417 411 423
f 424 412 415
f 420 412 424
f 425 413 409
f 425 409 421
f 423 413 425
f 426 414 410
f 426 410 422
f 427 415 417
f 424 415 427
f 428 416 414
f 428 414 426
f 429 418 420
f 430 419 418
f 430 418 429
f 431 420 424
f 429 420 431
f 432 417 423
f 427 417 432
f 433 422 419
f 433 419 430
f 434 421 416
f 434 416 428
f 435 424 427
f 431 424 435
f 436 423 425
f 432 423 436
f 437 426 422
f 437 422 433
f 438 425 421
f 438 421 434
f 436 425 438
f 439 427 432
f 435 427 439
f 440 429 431
f 441 430 429
f 441 429 440
f 442 431 435
f 440 431 442
f 443 428 426
f 443 426 437
f 444 433 430
f 444 430 441
f 445 432 436
f 439 432 445
f 442 435 446
f 446 435 439
f 447 434 428
f 447 428 443
f 448 437 433
f 448 433 444
f 449 440 442
f 450 441 440
f 450 440 449
f 451 436 438
f 445 436 451
f 452 442 446
f 449 442 452
f 446 439 453
f 453 439 445
f 454 438 434
f 454 434 447
f 455 444 441
f 455 441 450
f 451 438 454
f 456 443 437
f 456 437 448
f 457 446 453
f 452 446 457
f 453 445 458
f 458 445 451
f 459 448 444
f 459 444 455
f 460 447 443
f 460 443 456
f 461 453 458
f 457 453 461
f 462 451 454
f 458 451 462
f 463 456 448
f 463 448 459
f 464 449 452
f 465 450 449
f 465 449 464
f 466 454 447
f 466 447 460
f 467 452 457
f 464 452 467
f 462 454 466
f 468 455 450
f 468 450 465
f 469 458 462
f 461 458 469
f 470 457 461
f 467 457 470
f 471 460 456
f 471 456 463
f 472 462 466
f 469 462 472
f 473 459 455
f 473 455 468
f 474 466 460
f 474 460 471
f 470 461 475
f 475 461 469
f 472 466 474
f 476 464 467
f 477 465 464
f 477 464 476
f 478 467 470
f 476 467 478
f 479 463 459
f 479 459 473
f 480 468 465
f 480 465 477
f 481 470 475
f 478 470 481
f 482 469 472
f 475 469 482
f 483 471 463
f 483 463 479
f 484 473 468
f 484 468 480
f 485 472 474
f 482 472 485
f 481 475 486
f 486 475 482
f 487 476 478
f 488 477 476
f 488 476 487
f 489 478 481
f 487 478 489
f 490 474 471
f 490 471 483
f 485 474 490
f 491 481 486
f 489 481 491
f 492 480 477
f 492 477 488
f 493 479 473
f 493 473 484
f 486 482 494
f 494 482 485
f 491 486 495
f 495 486 494
f 496 484 480
f 496 480 492
f 497 487 489
f 498 489 491
f 497 489 498
f 499 483 479
f 499 479 493
f 500 488 487
f 500 487 497
f 501 485 490
f 494 485 501
f 502 491 495
f 498 491 502
f 503 490 483
f 503 483 499
f 501 490 503
f 504 492 488
f 504 488 500
f 495 494 505
f 505 494 501
f 506 493 484
f 506 484 496
f 502 495 507
f 507 495 505
f 508 497 498
f 509 500 497
f 509 497 508
f 510 498 502
f 508 498 510
f 511 496 492
f 511 492 504
f 510 502 512
f 512 502 507
f 513 499 493
f 513 493 506
f 514 501 503
f 505 501 514
f 515 504 500
f 515 500 509
f 516 503 499
f 516 499 513
f 514 503 516
f 507 505 517
f 517 505 514
f 518 508 510
f 519 510 512
f 518 510 519
f 512 507 520
f 520 507 517
f 521 506 496
f 521 496 511
f 522 509 508
f 522 508 518
f 519 512 523
f 523 512 520
f 524 511 504
f 524 504 515
f 517 514 525
f 525 514 516
f 526 515 509
f 526 509 522
f 527 513 506
f 527 506 521
f 528 518 519
f 529 519 523
f 528 519 529
f 520 517 530
f 530 517 525
f 523 520 531
f 531 520 530
f 532 522 518
f 532 518 528
f 533 516 513
f 525 516 533
f 529 523 534
f 534 523 531
f 533 513 527
f 535 521 511
f 535 511 524
f 536 524 515
f 536 515 526
f 537 526 522
f 537 522 532
f 538 528 529
f 539 529 534
f 538 529 539
f 530 525 540
f 540 525 533
f 531 530 541
f 534 531 542
f 542 531 541
f 541 530 540
f 543 532 528
f 543 528 538
f 539 534 544
f 544 534 542
f 545 527 521
f 545 521 535
f 546 533 527
f 540 533 546
f 546 527 545
f 547 539 544
f 548 538 539
f 548 539 547
f 549 535 524
f 549 524 536
f 550 536 526
f 550 526 537
f 551 532 543
f 551 537 532
f 544 542 552
f 542 541 553
f 552 542 553
f 547 544 554
f 554 544 552
f 555 543 538
f 555 538 548
f 541 540 556
f 556 540 546
f 553 541 556
f 557 547 554
f 558 548 547
f 558 547 557
f 559 545 535
f 559 535 549
f 554 552 560
f 552 553 561
f 560 552 561
f 557 554 562
f 562 554 560
f 563 546 545
f 556 546 563
f 564 543 555
f 564 551 543
f 565 548 558
f 565 555 548
f 563 545 559
f 566 549 536
f 566 536 550
f 567 537 551
f 567 550 537
f 553 556 568
f 561 553 568
f 568 556 563
f 569 557 562
f 570 558 557
f 570 557 569
f 562 560 571
f 569 562 572
f 572 562 571
f 560 561 573
f 571 560 573
f 574 558 570
f 574 565 558
f 575 555 565
f 575 564 555
f 576 559 549
f 576 549 566
f 561 568 577
f 573 561 577
f 578 569 572
f 579 570 569
f 579 569 578
f 580 563 559
f 568 563 580
f 572 571 581
f 582 572 581
f 578 572 582
f 583 551 564
f 583 567 551
f 580 559 576
f 584 566 550
f 584 550 567
f 577 568 580
f 571 573 585
f 581 571 585
f 586 574 570
f 586 570 579
f 573 577 587
f 585 573 587
f 588 565 574
f 588 575 565
f 581 585 589
f 590 581 589
f 582 581 590
f 591 576 566
f 591 566 584
f 577 580 592
f 592 580 576
f 587 577 592
f 593 564 575
f 593 583 564
f 592 576 591
f 594 584 567
f 594 567 583
f 585 587 595
f 589 585 595
f 596 588 574
f 596 574 586
f 587 592 597
f 595 587 597
f 598 575 588
f 598 593 575
f 589 595 599
f 600 589 599
f 590 589 600
f 597 592 591
f 601 591 584
f 601 584 594
f 602 594 583
f 602 583 593
f 597 591 601
f 595 597 603
f 599 595 603
f 604 598 588
f 604 588 596
f 603 597 601
f 605 601 594
f 605 594 602
f 606 602 593
f 606 593 598
f 607 578 582
f 608 579 578
f 608 578 607
f 609 582 590
f 607 582 609
f 603 601 605
f 599 603 610
f 611 599 610
f 600 599 611
f 610 603 605
f 612 586 579
f 612 579 608
f 613 590 600
f 609 590 613
f 614 605 602
f 614 602 606
f 615 606 598
f 615 598 604
f 610 605 614
f 616 610 614
f 611 610 616
f 617 614 606
f 617 606 615
f 618 596 586
f 618 586 612
f 616 614 617
f 619 600 611
f 613 600 619
f 620 604 596
f 620 596 618
f 621 607 609
f 622 608 607
f 622 607 621
f 623 609 613
f 621 609 623
f 624 611 616
f 619 611 624
f 625 612 608
f 625 608 622
f 626 613 619
f 623 613 626
f 627 615 604
f 627 604 620
f 628 616 617
f 624 616 628
f 629 617 615
f 629 615 627
f 630 618 612
f 630 612 625
f 628 617 629
f 631 619 624
f 626 619 631
f 632 620 618
f 632 618 630
f 633 621 623
f 634 622 621
f 634 621 633
f 635 623 626
f 633 623 635
f 636 624 628
f 631 624 636
f 637 626 631
f 635 626 637
f 638 625 622
f 638 622 634
f 639 627 620
f 639 620 632
f 640 628 629
f 636 628 640
f 641 631 636
f 637 631 641
f 642 629 627
f 642 627 639
f 640 629 642
f 643 630 625
f 643 625 638
f 644 633 635
f 645 635 637
f 644 635 645
f 646 636 640
f 641 636 646
f 647 634 633
f 647 633 644
f 648 632 630
f 648 630 643
f 649 637 641
f 645 637 649
f 650 638 634
f 650 634 647
f 651 640 642
f 646 640 651
f 652 639 632
f 652 632 648
f 653 641 646
f 649 641 653
f 654 642 639
f 654 639 652
f 651 642 654
f 655 643 638
f 655 638 650
f 656 644 645
f 657 645 649
f 656 645 657
f 658 646 651
f 653 646 658
f 659 647 644
f 659 644 656
f 660 648 643
f 660 643 655
f 661 649 653
f 657 649 661
f 662 650 647
f 662 647 659
f 663 651 654
f 658 651 663
f 664 652 648
f 664 648 660
f 665 653 658
f 661 653 665
f 666 654 652
f 663 654 666
f 666 652 664
f 667 655 650
f 667 650 662
f 668 656 657
f 669 657 661
f 668 657 669
f 670 658 663
f 665 658 670
f 671 659 656
f 671 656 668
f 672 661 665
f 669 661 672
f 673 660 655
f 673 655 667
f 674 662 659
f 674 659 671
f 675 663 666
f 670 663 675
f 676 665 670
f 672 665 676
f 677 664 660
f 677 660 673
f 678 666 664
f 675 666 678
f 678 664 677
f 679 667 662
f 679 662 674
f 680 668 669
f 681 669 672
f 680 669 681
f 682 670 675
f 676 670 682
f 683 671 668
f 683 668 680
f 684 672 676
f 681 672 684
f 685 673 667
f 685 667 679
f 686 674 671
f 686 671 683
f 687 675 678
f 682 675 687
f 688 676 682
f 684 676 688
f 689 677 673
f 689 673 685
f 690 678 677
f 687 678 690
f 690 677 689
f 691 679 674
f 691 674 686
f 692 680 681
f 693 681 684
f 692 681 693
f 688 682 694
f 694 682 687
f 695 683 680
f 695 680 692
f 696 684 688
f 693 684 696
f 697 685 679
f 697 679 691
f 698 686 683
f 698 683 695
f 699 688 694
f 696 688 699
f 700 687 690
f 694 687 700
f 701 689 685
f 701 685 697
f 702 690 689
f 700 690 702
f 703 693 696
f 704 692 693
f 704 693 703
f 702 689 701
f 705 691 686
f 705 686 698
f 699 694 706
f 706 694 700
f 707 696 699
f 703 696 707
f 708 695 692
f 708 692 704
f 709 699 706
f 707 699 709
f 710 698 695
f 710 695 708
f 711 697 691
f 711 691 705
f 712 700 702
f 706 700 712
f 713 703 707
f 714 704 703
f 714 703 713
f 715 701 697
f 715 697 711
f 716 702 701
f 712 702 716
f 709 706 717
f 717 706 712
f 718 707 709
f 713 707 718
f 719 705 698
f 719 698 710
f 720 708 704
f 720 704 714
f 716 701 715
f 718 709 721
f 721 709 717
f 717 712 722
f 722 712 716
f 723 710 708
f 723 708 720
f 724 711 705
f 724 705 719
f 725 713 718
f 726 714 713
f 726 713 725
f 727 718 721
f 725 718 727
f 721 717 728
f 728 717 722
f 729 716 715
f 722 716 729
f 730 720 714
f 730 714 726
f 731 715 711
f 731 711 724
f 727 721 732
f 732 721 728
f 733 719 710
f 733 710 723
f 729 715 731
f 728 722 734
f 734 722 729
f 735 723 720
f 735 720 730
f 736 725 727
f 737 726 725
f 737 725 736
f 738 727 732
f 736 727 738
f 732 728 739
f 739 728 734
f 740 724 719
f 740 719 733
f 741 730 726
f 741 726 737
f 738 732 742
f 742 732 739
f 743 729 731
f 734 729 743
f 744 731 724
f 744 724 740
f 745 733 723
f 745 723 735
f 743 731 744
f 746 736 738
f 747 737 736
f 747 736 746
f 748 738 742
f 746 738 748
f 739 734 749
f 749 734 743
f 750 735 730
f 750 730 741
f 742 739 751
f 751 739 749
f 752 741 737
f 752 737 747
f 748 742 753
f 753 742 751
f 754 740 733
f 754 733 745
f 749 743 755
f 755 743 744
f 756 746 748
f 757 747 746
f 757 746 756
f 758 748 753
f 756 748 758
f 759 745 735
f 759 735 750
f 751 749 760
f 760 749 755
f 761 744 740
f 761 740 754
f 755 744 761
f 762 750 741
f 762 741 752
f 753 751 763
f 763 751 760
f 764 752 747
f 764 747 757
f 758 753 765
f 765 753 763
f 766 767 768
f 769 766 768
f 768 770 771
f 772 768 771
f 768 767 770
f 769 768 772
f 773 756 758
f 774 757 756
f 774 756 773
f 775 758 765
f 773 758 775
f 766 776 767
f 777 776 766
f 778 777 766
f 778 766 769
f 771 770 779
f 771 779 780
f 781 771 780
f 772 771 781
f 782 754 745
f 782 745 759
f 760 755 783
f 783 755 761
f 776 784 767
f 767 784 785
f 767 785 770
f 777 786 776
f 776 787 784
f 786 787 776
f 788 759 750
f 788 750 762
f 763 760 789
f 789 760 783
f 790 752 764
f 790 762 752
f 765 763 791
f 791 763 789
f 792 757 774
f 792 764 757
f 775 765 793
f 793 765 791
f 794 786 777
f 795 794 777
f 795 777 778
f 787 796 784
f 784 796 797
f 784 797 785
f 770 785 798
f 770 798 779
f 799 773 775
f 800 774 773
f 800 773 799
f 801 775 793
f 799 775 801
f 786 802 787
f 787 803 796
f 802 803 787
f 804 761 754
f 804 754 782
f 783 761 804
f 780 779 805
f 780 805 806
f 781 780 806
f 807 802 786
f 794 807 786
f 803 808 796
f 796 808 809
f 796 809 797
f 803 810 808
f 811 810 803
f 802 811 803
f 785 797 812
f 785 812 798
f 810 813 808
f 810 814 813
f 815 814 810
f 811 815 810
f 816 811 802
f 807 816 802
f 808 813 817
f 808 817 809
f 818 774 800
f 818 792 774
f 793 791 819
f 801 793 820
f 820 793 819
f 814 821 822
f 823 821 814
f 814 822 813
f 815 823 814
f 779 798 824
f 779 824 805
f 795 807 794
f 825 782 759
f 825 759 788
f 789 783 826
f 826 783 804
f 827 764 792
f 827 790 764
f 791 789 828
f 819 791 828
f 829 799 801
f 830 800 799
f 830 799 829
f 831 801 820
f 829 801 831
f 821 832 833
f 834 832 821
f 835 836 832
f 832 836 837
f 834 835 832
f 832 837 833
f 821 833 822
f 823 834 821
f 813 822 838
f 813 838 817
f 839 815 811
f 840 823 815
f 839 840 815
f 797 809 841
f 797 841 812
f 816 839 811
f 806 805 842
f 806 842 781
f 843 788 762
f 843 762 790
f 828 789 826
f 844 845 836
f 836 845 846
f 835 844 836
f 836 846 837
f 822 833 847
f 822 847 838
f 848 834 823
f 840 848 823
f 849 816 807
f 795 849 807
f 844 850 845
f 850 851 845
f 845 851 852
f 845 852 846
f 853 844 835
f 854 850 844
f 853 854 844
f 855 835 834
f 855 853 835
f 833 837 856
f 833 856 847
f 848 855 834
f 809 817 857
f 809 857 841
f 798 812 858
f 798 858 824
f 859 800 830
f 859 818 800
f 831 820 860
f 820 819 861
f 860 820 861
f 862 829 831
f 863 829 862
f 863 830 829
f 862 831 864
f 864 831 860
f 850 865 851
f 865 866 851
f 867 865 850
f 865 868 866
f 869 868 865
f 867 869 865
f 851 866 870
f 851 870 852
f 854 867 850
f 837 846 871
f 837 871 856
f 872 839 816
f 849 872 816
f 873 804 782
f 873 782 825
f 826 804 873
f 868 874 866
f 868 875 874
f 876 875 868
f 869 876 868
f 866 874 877
f 866 877 870
f 817 838 878
f 817 878 857
f 778 849 795
f 879 792 818
f 879 827 792
f 819 828 880
f 861 819 880
f 881 862 864
f 882 862 881
f 882 863 862
f 864 860 883
f 881 864 884
f 884 864 883
f 875 885 874
f 875 886 885
f 887 886 875
f 876 887 875
f 874 885 888
f 874 888 877
f 846 852 889
f 846 889 871
f 838 847 890
f 838 890 878
f 891 840 839
f 892 848 840
f 891 892 840
f 812 841 893
f 812 893 858
f 872 891 839
f 805 824 894
f 805 894 842
f 895 825 788
f 895 788 843
f 828 826 896
f 896 826 873
f 897 843 790
f 897 790 827
f 880 828 896
f 898 830 863
f 898 859 830
f 860 861 899
f 883 860 899
f 900 881 884
f 901 881 900
f 901 882 881
f 900 884 902
f 902 884 903
f 884 883 903
f 904 900 902
f 905 900 904
f 905 901 900
f 904 902 906
f 906 902 907
f 902 903 907
f 886 904 906
f 908 904 886
f 908 905 904
f 886 906 885
f 885 906 909
f 906 907 909
f 887 908 886
f 885 909 888
f 910 876 869
f 911 887 876
f 910 911 876
f 852 870 912
f 870 877 913
f 870 913 912
f 914 869 867
f 914 910 869
f 852 912 889
f 915 867 854
f 915 914 867
f 916 854 853
f 916 915 854
f 917 853 855
f 917 916 853
f 847 856 918
f 847 918 890
f 919 855 848
f 919 917 855
f 892 919 848
f 841 857 920
f 841 920 893
f 824 858 921
f 824 921 894
f 778 922 849
f 922 872 849
f 781 842 923
f 781 923 772
f 769 922 778
f 924 863 882
f 924 898 863
f 925 908 887
f 911 925 887
f 856 871 926
f 856 926 918
f 927 891 872
f 922 927 872
f 928 818 859
f 928 879 818
f 861 880 929
f 899 861 929
f 903 883 930
f 883 899 930
f 877 888 931
f 877 931 913
f 857 878 932
f 857 932 920
f 842 894 933
f 842 933 923
f 772 934 769
f 772 923 934
f 935 882 901
f 935 924 882
f 936 905 908
f 925 936 908
f 871 889 937
f 871 937 926
f 938 892 891
f 927 938 891
f 769 934 922
f 907 903 939
f 903 930 939
f 858 893 940
f 858 940 921
f 941 873 825
f 941 825 895
f 896 873 941
f 942 901 905
f 942 935 901
f 909 907 943
f 907 939 943
f 936 942 905
f 888 909 944
f 909 943 944
f 888 944 931
f 878 890 945
f 878 945 932
f 946 919 892
f 938 946 892
f 934 927 922
f 889 912 947
f 889 947 937
f 948 917 919
f 946 948 919
f 949 895 843
f 949 843 897
f 880 896 950
f 950 896 941
f 951 897 827
f 951 827 879
f 929 880 950
f 952 859 898
f 952 928 859
f 930 899 953
f 899 929 953
f 954 914 915
f 955 910 914
f 954 955 914
f 956 915 916
f 956 954 915
f 957 916 917
f 957 956 916
f 890 918 958
f 890 958 945
f 948 957 917
f 893 920 959
f 893 959 940
f 894 921 960
f 894 960 933
f 934 961 927
f 961 938 927
f 923 961 934
f 923 933 961
f 962 911 910
f 955 962 910
f 963 925 911
f 962 963 911
f 912 913 964
f 912 964 947
f 965 898 924
f 965 952 898
f 939 930 966
f 930 953 966
f 967 936 925
f 963 967 925
f 918 926 968
f 918 968 958
f 920 932 969
f 920 969 959
f 921 940 970
f 921 970 960
f 961 971 938
f 971 946 938
f 933 971 961
f 933 960 971
f 972 941 895
f 972 895 949
f 950 941 972
f 973 949 897
f 973 897 951
f 929 950 974
f 974 950 972
f 975 879 928
f 975 951 879
f 953 929 974
f 976 924 935
f 976 965 924
f 943 939 977
f 939 966 977
f 978 935 942
f 978 976 935
f 944 943 979
f 943 977 979
f 980 942 936
f 980 978 942
f 931 944 981
f 944 979 981
f 967 980 936
f 913 931 982
f 931 981 982
f 913 982 964
f 926 937 983
f 926 983 968
f 984 957 948
f 985 956 957
f 984 985 957
f 932 945 986
f 932 986 969
f 987 948 946
f 987 984 948
f 940 959 988
f 940 988 970
f 971 987 946
f 960 987 971
f 960 970 987
f 937 947 989
f 937 989 983
f 990 954 956
f 985 990 956
f 991 928 952
f 991 975 928
f 953 974 992
f 966 953 992
f 993 955 954
f 994 962 955
f 993 994 955
f 990 993 954
f 945 958 995
f 945 995 986
f 959 969 996
f 959 996 988
f 970 984 987
f 970 988 984
f 997 963 962
f 994 997 962
f 947 964 998
f 947 998 989
f 958 968 999
f 958 999 995
f 988 985 984
f 1000 967 963
f 997 1000 963
f 1001 972 949
f 1001 949 973
f 974 972 1001
f 1002 952 965
f 1002 991 952
f 969 986 1003
f 969 1003 996
f 988 996 985
f 1004 951 975
f 1004 973 951
f 992 974 1001
f 977 966 1005
f 966 992 1005
f 1006 980 967
f 1000 1006 967
f 996 990 985
f 968 983 1007
f 968 1007 999
f 996 1003 990
f 1003 993 990
f 1008 965 976
f 1008 1002 965
f 1009 978 980
f 1006 1009 980
f 964 982 1010
f 964 1010 998
f 986 995 1011
f 986 1011 1003
f 979 977 1012
f 977 1005 1012
f 1013 976 978
f 1013 1008 976
f 1009 1013 978
f 1011 994 993
f 1003 1011 993
f 981 979 1014
f 979 1012 1014
f 982 981 1015
f 981 1014 1015
f 982 1015 1010
f 983 989 1016
f 983 1016 1007
f 1017 997 994
f 1011 1017 994
f 995 1017 1011
f 995 999 1017
f 1018 975 991
f 1018 1004 975
f 1019 1001 973
f 1019 973 1004
f 992 1001 1019
f 1005 992 1019
f 1020 1000 997
f 1017 1020 997
f 999 1020 1017
f 999 1007 1020
f 1021 1006 1000
f 1020 1021 1000
f 989 998 1022
f 989 1022 1016
f 1023 991 1002
f 1023 1018 991
f 1005 1019 1024
f 1012 1005 1024
f 1025 1009 1006
f 1021 1025 1006
f 1007 1021 1020
f 1007 1016 1021
f 1024 1019 1004
f 1024 1004 1018
f 1026 1002 1008
f 1026 1023 1002
f 998 1010 1027
f 998 1027 1022
f 1014 1012 1028
f 1012 1024 1028
f 1029 1013 1009
f 1025 1029 1009
f 1030 1008 1013
f 1030 1026 1008
f 1015 1014 1031
f 1014 1028 1031
f 1029 1030 1013
f 1010 1015 1032
f 1010 1032 1027
f 1016 1025 1021
f 1016 1022 1025
f 1015 1031 1032
f 1028 1024 1018
f 1028 1018 1023
f 1022 1029 1025
f 1031 1028 1023
f 1031 1023 1026
f 1022 1027 1029
f 1027 1030 1029
f 1032 1031 1026
f 1032 1026 1030
f 1027 1032 1030
