# 
# Wavefront OBJ file
# Created with Kaydara FBX
# 
mtllib c:\users\tjvan\onedrive\documenten\fontys\minor\nx\.mtlmodels\lateral_subtendinous_bursa_of_gastrocnemius_muscle.r.obj

g Lateral_subtendinous_bursa_of_gastrocnemius_muscle_r
v -0.106461 0.467004 -0.055881
v -0.106454 0.466327 -0.056434
v -0.106140 0.465973 -0.055965
v -0.105868 0.467100 -0.056357
v -0.106397 0.465575 -0.056998
v -0.106092 0.465252 -0.056502
v -0.105842 0.466271 -0.057009
v -0.106355 0.467679 -0.055348
v -0.106138 0.466624 -0.055440
v -0.105837 0.467867 -0.055705
v -0.106334 0.464698 -0.057567
v -0.106037 0.464406 -0.057047
v -0.105773 0.465351 -0.057647
v -0.106024 0.467282 -0.054929
v -0.106083 0.468423 -0.054841
v -0.105731 0.468612 -0.055063
v -0.106237 0.463724 -0.058134
v -0.105952 0.463460 -0.057589
v -0.105636 0.464366 -0.058264
v -0.106063 0.462699 -0.058692
v -0.105799 0.462463 -0.058121
v -0.105396 0.463351 -0.058857
v -0.105560 0.466679 -0.055809
v -0.105548 0.465878 -0.056421
v -0.105516 0.467425 -0.055193
v -0.105492 0.464992 -0.057026
v -0.105746 0.468017 -0.054435
v -0.105566 0.469311 -0.054369
v -0.105537 0.461460 -0.058633
v -0.105775 0.461671 -0.059229
v -0.105019 0.462342 -0.059420
v -0.105370 0.464041 -0.057615
v -0.105401 0.468159 -0.054578
v -0.105151 0.463060 -0.058180
v -0.105185 0.466999 -0.056942
v -0.105196 0.467887 -0.056216
v -0.105098 0.466052 -0.057645
v -0.105138 0.468728 -0.055482
v -0.104802 0.462082 -0.058715
v -0.105136 0.460491 -0.059116
v -0.105343 0.460680 -0.059735
v -0.104486 0.461369 -0.059942
v -0.104912 0.465066 -0.058316
v -0.105234 0.468898 -0.053966
v -0.105018 0.469542 -0.054749
v -0.104602 0.464067 -0.058949
v -0.104922 0.466559 -0.056305
v -0.104911 0.467424 -0.055627
v -0.104862 0.470280 -0.053939
v -0.104856 0.465641 -0.056963
v -0.104301 0.461138 -0.059209
v -0.104835 0.468251 -0.054935
v -0.104691 0.464687 -0.057595
v -0.104142 0.463080 -0.059539
v -0.104705 0.469058 -0.054236
v -0.104405 0.463720 -0.058193
v -0.104597 0.459574 -0.059559
v -0.104772 0.459742 -0.060198
v -0.103812 0.460443 -0.060412
v -0.104546 0.469858 -0.053532
v -0.104350 0.467850 -0.056835
v -0.104370 0.468766 -0.056053
v -0.104226 0.466897 -0.057592
v -0.103972 0.462764 -0.058748
v -0.103660 0.460236 -0.059653
v -0.104304 0.469648 -0.055261
v -0.103982 0.465920 -0.058311
v -0.103519 0.462126 -0.060078
v -0.104174 0.470505 -0.054467
v -0.104134 0.467347 -0.056118
v -0.104037 0.466414 -0.056818
v -0.103601 0.464938 -0.058985
v -0.104126 0.468248 -0.055395
v -0.103819 0.465461 -0.057486
v -0.104011 0.471260 -0.053567
v -0.104038 0.469123 -0.054655
v -0.103380 0.461839 -0.059253
v -0.103931 0.458719 -0.059953
v -0.104071 0.458868 -0.060611
v -0.103018 0.459567 -0.060815
v -0.103893 0.469980 -0.053905
v -0.103463 0.464506 -0.058112
v -0.102904 0.459383 -0.060034
v -0.103065 0.463970 -0.059604
v -0.103722 0.470830 -0.053149
v -0.102755 0.461209 -0.060550
v -0.102955 0.463565 -0.058686
v -0.103262 0.468888 -0.056656
v -0.103329 0.469782 -0.055843
v -0.103074 0.467957 -0.057455
v -0.102650 0.460950 -0.059696
v -0.103297 0.470646 -0.055030
v -0.102756 0.467002 -0.058222
v -0.103195 0.471482 -0.054216
v -0.102367 0.463030 -0.060158
v -0.103103 0.468297 -0.055825
v -0.102945 0.467373 -0.056547
v -0.103139 0.469189 -0.055087
v -0.103147 0.457935 -0.060287
v -0.103251 0.458068 -0.060961
v -0.102128 0.458745 -0.061139
v -0.102656 0.466429 -0.057242
v -0.103081 0.470055 -0.054340
v -0.103062 0.472179 -0.053267
v -0.102300 0.466039 -0.058939
v -0.102288 0.462652 -0.059198
v -0.102053 0.458584 -0.060339
v -0.102961 0.470902 -0.053587
v -0.101886 0.460326 -0.060940
v -0.102228 0.465481 -0.057891
v -0.102809 0.471740 -0.052830
v -0.101817 0.460096 -0.060062
v -0.101697 0.465084 -0.059590
v -0.101538 0.462116 -0.060631
v -0.101656 0.464544 -0.058480
v -0.101493 0.461766 -0.059635
v -0.102029 0.470957 -0.055561
v -0.101866 0.470145 -0.056377
v -0.102092 0.471722 -0.054767
v -0.101579 0.469275 -0.057206
v -0.102258 0.457239 -0.060553
v -0.102325 0.457359 -0.061240
v -0.101165 0.457990 -0.061373
v -0.102083 0.472444 -0.053984
v -0.101130 0.457845 -0.060562
v -0.101777 0.469430 -0.055398
v -0.101908 0.470260 -0.054683
v -0.101524 0.468544 -0.056120
v -0.100948 0.464146 -0.060157
v -0.101169 0.468359 -0.058017
v -0.101942 0.471043 -0.053976
v -0.102054 0.472989 -0.053040
v -0.100942 0.459477 -0.061232
v -0.100940 0.463631 -0.058994
v -0.101912 0.471795 -0.053275
v -0.101145 0.467618 -0.056828
v -0.100913 0.459278 -0.060340
v -0.101851 0.472532 -0.052576
v -0.100618 0.461219 -0.061003
v -0.100634 0.467413 -0.058780
v -0.100610 0.460905 -0.059987
v -0.100643 0.466671 -0.057494
v -0.100087 0.463221 -0.060619
v -0.101285 0.456666 -0.060746
v -0.101317 0.456783 -0.061443
v -0.100149 0.457319 -0.061522
v -0.099978 0.466455 -0.059461
v -0.100115 0.462738 -0.059421
v -0.100151 0.457183 -0.060708
v -0.100022 0.465726 -0.058092
v -0.099957 0.458668 -0.061414
v -0.100730 0.472808 -0.054431
v -0.100527 0.472192 -0.055174
v -0.100868 0.473359 -0.053713
v -0.099967 0.458496 -0.060523
v -0.101004 0.473692 -0.052813
v -0.100230 0.471502 -0.055967
v -0.100492 0.471368 -0.054176
v -0.100664 0.472024 -0.053543
v -0.100232 0.470634 -0.054842
v -0.100778 0.472629 -0.052930
v -0.099648 0.460335 -0.061256
v -0.099822 0.470718 -0.056808
v -0.100862 0.473207 -0.052329
v -0.099680 0.460062 -0.060239
v -0.099861 0.469806 -0.055543
v -0.099208 0.465501 -0.060030
v -0.099289 0.464799 -0.058601
v -0.099309 0.469852 -0.057653
v -0.099157 0.462295 -0.060962
v -0.099384 0.468904 -0.056249
v -0.099223 0.461857 -0.059754
v -0.100252 0.456259 -0.060860
v -0.100253 0.456379 -0.061567
v -0.099100 0.456747 -0.061602
v -0.099133 0.456607 -0.060791
v -0.098947 0.457905 -0.061504
v -0.098700 0.468923 -0.058453
v -0.098813 0.467958 -0.056920
v -0.098992 0.457752 -0.060625
v -0.099931 0.474302 -0.052493
v -0.099594 0.474183 -0.053325
v -0.098666 0.459465 -0.061384
v -0.098477 0.463884 -0.059012
v -0.098359 0.464544 -0.060468
v -0.098735 0.459236 -0.060386
v -0.099593 0.473371 -0.052509
v -0.099854 0.473785 -0.052015
v -0.099280 0.473809 -0.053964
v -0.099308 0.472921 -0.053020
v -0.098912 0.473344 -0.054636
v -0.098976 0.472398 -0.053568
v -0.098158 0.466999 -0.057521
v -0.098008 0.467956 -0.059154
v -0.098306 0.460982 -0.059983
v -0.098202 0.461362 -0.061169
v -0.098468 0.472777 -0.055382
v -0.098572 0.471765 -0.054170
v -0.099183 0.456046 -0.060895
v -0.098095 0.456092 -0.060836
v -0.099160 0.456177 -0.061606
v -0.098046 0.456219 -0.061568
v -0.098080 0.470999 -0.054832
v -0.097933 0.472079 -0.056206
v -0.097997 0.457043 -0.060671
v -0.097924 0.457192 -0.061526
v -0.097624 0.462973 -0.059325
v -0.097470 0.463570 -0.060766
v -0.097435 0.466050 -0.058018
v -0.097246 0.466972 -0.059711
v -0.097784 0.458422 -0.060450
v -0.097685 0.458617 -0.061409
v -0.098849 0.474835 -0.052000
v -0.098310 0.474871 -0.052748
v -0.097511 0.470126 -0.055518
v -0.098392 0.473991 -0.051963
v -0.098834 0.474284 -0.051561
v -0.097321 0.471263 -0.057055
v -0.097398 0.460106 -0.060106
v -0.097261 0.460421 -0.061238
v -0.097934 0.473655 -0.052388
v -0.097813 0.474623 -0.053307
v -0.096882 0.469185 -0.056181
v -0.096651 0.470352 -0.057863
v -0.097443 0.473232 -0.052856
v -0.096669 0.465107 -0.058411
v -0.097280 0.474266 -0.053906
v -0.096768 0.462055 -0.059535
v -0.096446 0.465964 -0.060110
v -0.096580 0.462570 -0.060917
v -0.096992 0.456353 -0.060687
v -0.096909 0.456482 -0.061435
v -0.096830 0.457618 -0.060458
v -0.096904 0.472679 -0.053391
v -0.096707 0.457793 -0.061366
v -0.096693 0.473785 -0.054590
v -0.097773 0.475298 -0.051308
v -0.097059 0.475377 -0.051972
v -0.097208 0.474464 -0.051269
v -0.097812 0.474716 -0.050923
v -0.096211 0.468215 -0.056772
v -0.096503 0.459229 -0.060144
v -0.095940 0.469374 -0.058561
v -0.096342 0.459486 -0.061200
v -0.096306 0.471966 -0.054003
v -0.095892 0.464157 -0.058705
v -0.096047 0.473148 -0.055363
v -0.096596 0.474167 -0.051637
v -0.095638 0.464923 -0.060353
v -0.095940 0.461123 -0.059646
v -0.096400 0.475167 -0.052460
v -0.095727 0.461546 -0.060930
v -0.095517 0.467246 -0.057255
v -0.095663 0.471124 -0.054652
v -0.095209 0.468356 -0.059093
v -0.095873 0.456820 -0.060437
v -0.095748 0.456960 -0.061204
v -0.095358 0.472366 -0.056169
v -0.095968 0.473783 -0.052048
v -0.095723 0.474843 -0.052991
v -0.096709 0.475671 -0.050506
v -0.096060 0.474792 -0.050479
v -0.096797 0.475068 -0.050162
v -0.095617 0.458351 -0.060126
v -0.095860 0.475707 -0.051096
v -0.095440 0.458564 -0.061095
v -0.095133 0.463191 -0.058904
v -0.094997 0.470195 -0.055286
v -0.094856 0.463843 -0.060450
v -0.094818 0.466274 -0.057630
v -0.095319 0.473266 -0.052525
v -0.095139 0.460180 -0.059678
v -0.094648 0.471467 -0.056939
v -0.095020 0.474391 -0.053605
v -0.094910 0.460516 -0.060841
v -0.094481 0.467295 -0.059452
v -0.095324 0.474476 -0.050813
v -0.095074 0.475461 -0.051517
v -0.094644 0.472588 -0.053077
v -0.094327 0.469225 -0.055855
v -0.094734 0.457472 -0.060080
v -0.095662 0.475931 -0.049688
v -0.094965 0.474985 -0.049665
v -0.095797 0.475320 -0.049370
v -0.094415 0.462199 -0.059017
v -0.094566 0.457629 -0.060867
v -0.094721 0.475877 -0.050209
v -0.094292 0.473774 -0.054300
v -0.094136 0.465287 -0.057912
v -0.093940 0.470481 -0.057602
v -0.094590 0.474081 -0.051182
v -0.094123 0.462728 -0.060422
v -0.094355 0.459228 -0.059658
v -0.093779 0.466186 -0.059652
v -0.094288 0.475110 -0.051980
v -0.094121 0.459493 -0.060694
v -0.093958 0.471776 -0.053669
v -0.093674 0.468248 -0.056319
v -0.094142 0.474617 -0.049972
v -0.093560 0.473007 -0.055022
v -0.093859 0.473566 -0.051606
v -0.093734 0.461185 -0.059064
v -0.093255 0.469440 -0.058099
v -0.093491 0.464271 -0.058112
v -0.093851 0.475558 -0.050568
v -0.094642 0.476059 -0.048939
v -0.093941 0.475053 -0.048901
v -0.094821 0.475452 -0.048636
v -0.093437 0.461601 -0.060310
v -0.093502 0.474637 -0.052513
v -0.093280 0.470872 -0.054254
v -0.093659 0.475906 -0.049386
v -0.093122 0.465027 -0.059719
v -0.093580 0.458272 -0.059612
v -0.093049 0.467257 -0.056683
v -0.093367 0.458453 -0.060418
v -0.092842 0.472115 -0.055710
v -0.093136 0.472904 -0.052092
v -0.093335 0.474183 -0.050305
v -0.092609 0.468342 -0.058431
v -0.093076 0.460158 -0.059066
v -0.092896 0.463217 -0.058245
v -0.092995 0.475148 -0.050960
v -0.092726 0.474011 -0.053109
v -0.092629 0.469919 -0.054787
v -0.093073 0.474627 -0.049174
v -0.092784 0.460477 -0.060151
v -0.092525 0.463825 -0.059685
v -0.092464 0.466239 -0.056965
v -0.093658 0.476044 -0.048327
v -0.092998 0.475007 -0.048244
v -0.093877 0.475451 -0.048033
v -0.092751 0.475511 -0.049679
v -0.092157 0.471132 -0.056307
v -0.092432 0.472120 -0.052613
v -0.092683 0.475815 -0.048683
v -0.092553 0.473650 -0.050675
v -0.092013 0.467185 -0.058622
v -0.092345 0.462132 -0.058326
v -0.092430 0.459123 -0.059047
v -0.092021 0.468950 -0.055231
v -0.091979 0.473244 -0.053724
v -0.092161 0.474630 -0.051405
v -0.091931 0.465178 -0.057183
v -0.092231 0.474149 -0.049462
v -0.092172 0.459330 -0.059863
v -0.091981 0.462605 -0.059587
v -0.091762 0.471248 -0.053136
v -0.091525 0.470089 -0.056768
v -0.092133 0.474540 -0.048461
v -0.092714 0.475902 -0.047850
v -0.092127 0.474864 -0.047690
v -0.092970 0.475328 -0.047563
v -0.091805 0.472995 -0.051091
v -0.091866 0.475037 -0.049996
v -0.091479 0.465966 -0.058703
v -0.091821 0.461026 -0.058373
v -0.091465 0.467956 -0.055593
v -0.091783 0.475364 -0.048894
v -0.091782 0.475624 -0.048093
v -0.091275 0.472362 -0.054314
v -0.091366 0.473980 -0.051893
v -0.091456 0.464063 -0.057352
v -0.091471 0.461386 -0.059458
v -0.091428 0.473592 -0.049775
v -0.091141 0.470325 -0.053625
v -0.090954 0.468984 -0.057097
v -0.091101 0.472234 -0.051536
v -0.091012 0.464694 -0.058709
v -0.091312 0.459909 -0.058402
v -0.091296 0.474030 -0.048689
v -0.090966 0.466919 -0.055891
v -0.091298 0.474380 -0.047826
v -0.091016 0.474472 -0.050350
v -0.091819 0.475649 -0.047497
v -0.091312 0.474648 -0.047218
v -0.092106 0.475099 -0.047210
v -0.091028 0.462905 -0.057486
v -0.090628 0.471396 -0.054839
v -0.091004 0.460137 -0.059206
v -0.090908 0.474842 -0.049125
v -0.090624 0.473210 -0.052395
v -0.090944 0.475348 -0.047597
v -0.090922 0.475143 -0.048204
v -0.090582 0.469377 -0.054052
v -0.090450 0.467810 -0.057318
v -0.090676 0.472937 -0.050117
v -0.090600 0.463393 -0.058672
v -0.090529 0.465822 -0.056145
v -0.090452 0.471396 -0.051992
v -0.090632 0.461718 -0.057597
v -0.090500 0.473456 -0.048934
v -0.090049 0.470374 -0.055273
v -0.090221 0.473798 -0.050733
v -0.090496 0.473853 -0.047977
v -0.090536 0.474167 -0.047246
v -0.090981 0.475297 -0.047247
v -0.090530 0.474389 -0.046791
v -0.091290 0.474784 -0.046955
v -0.090018 0.466561 -0.057458
v -0.090089 0.468392 -0.054425
v -0.090224 0.462089 -0.058615
v -0.089946 0.472344 -0.052890
v -0.090155 0.464653 -0.056369
v -0.090072 0.474242 -0.049386
v -0.090252 0.460517 -0.057696
v -0.090193 0.474913 -0.047057
v -0.089984 0.472196 -0.050486
v -0.090087 0.474593 -0.048340
v -0.090139 0.474861 -0.047593
v -0.089868 0.470507 -0.052438
v -0.089545 0.469287 -0.055621
v -0.089889 0.460754 -0.058454
v -0.089833 0.463424 -0.056572
v -0.089658 0.465242 -0.057547
v -0.089662 0.467350 -0.054756
v -0.089759 0.472801 -0.049202
v -0.089496 0.473027 -0.051133
v -0.089810 0.473927 -0.046695
v -0.089730 0.473268 -0.048147
v -0.089786 0.473636 -0.047306
v -0.089340 0.471407 -0.053356
v -0.089357 0.469586 -0.052858
v -0.089359 0.471388 -0.050880
v -0.089544 0.462157 -0.056762
v -0.089355 0.463879 -0.057607
v -0.089293 0.473553 -0.049671
v -0.089304 0.466231 -0.055060
v -0.089116 0.468123 -0.055900
v -0.089444 0.474442 -0.046931
v -0.089359 0.474303 -0.047624
v -0.089286 0.473973 -0.048504
v -0.089082 0.472074 -0.049503
v -0.089272 0.460869 -0.056946
v -0.088814 0.470417 -0.053781
v -0.088847 0.472179 -0.051544
v -0.089088 0.462502 -0.057656
v -0.088921 0.468619 -0.053255
v -0.089013 0.465020 -0.055349
v -0.089121 0.473399 -0.046656
v -0.089011 0.472614 -0.048340
v -0.089065 0.473047 -0.047395
v -0.088764 0.466871 -0.056126
v -0.088811 0.470531 -0.051293
v -0.088858 0.461099 -0.057628
v -0.088588 0.472785 -0.049983
v -0.088775 0.463736 -0.055629
v -0.088726 0.473896 -0.046867
v -0.088557 0.467585 -0.053632
v -0.088609 0.473677 -0.047690
v -0.088535 0.473277 -0.048696
v -0.088368 0.469364 -0.054167
v -0.088487 0.465529 -0.056317
v -0.088481 0.471287 -0.049846
v -0.088281 0.471273 -0.051968
v -0.088346 0.469636 -0.051722
v -0.088571 0.462402 -0.055903
v -0.088452 0.472808 -0.046660
v -0.088353 0.471896 -0.048577
v -0.088375 0.472393 -0.047513
v -0.088268 0.464128 -0.056490
v -0.088264 0.466460 -0.053997
v -0.088385 0.461043 -0.056173
v -0.088002 0.468227 -0.054518
v -0.087965 0.471952 -0.050334
v -0.088086 0.462702 -0.056657
v -0.087961 0.468691 -0.052158
v -0.087965 0.470453 -0.050243
v -0.088027 0.473283 -0.046854
v -0.087804 0.470319 -0.052404
v -0.088038 0.465231 -0.054354
v -0.087852 0.472513 -0.048934
v -0.087894 0.472982 -0.047794
v -0.087714 0.466991 -0.054838
v -0.087935 0.461255 -0.056774
v -0.087772 0.471123 -0.048881
v -0.087796 0.472155 -0.046704
v -0.087864 0.463919 -0.054705
v -0.087738 0.471681 -0.047691
v -0.087651 0.467674 -0.052596
v -0.087433 0.471071 -0.050738
v -0.087410 0.469303 -0.052845
v -0.087541 0.469579 -0.050698
v -0.087725 0.462550 -0.055053
v -0.087500 0.465653 -0.055133
v -0.087346 0.472608 -0.046891
v -0.087251 0.471694 -0.049241
v -0.087603 0.461153 -0.055399
v -0.087412 0.466565 -0.053026
v -0.087234 0.472227 -0.047966
v -0.087344 0.464246 -0.055412
v -0.087282 0.470304 -0.049276
v -0.087098 0.468205 -0.053280
v -0.087180 0.471447 -0.046824
v -0.087203 0.468656 -0.051193
v -0.087175 0.470916 -0.047963
v -0.086997 0.470148 -0.051203
v -0.087223 0.462805 -0.055687
v -0.087235 0.465351 -0.053444
v -0.087130 0.461344 -0.055931
v -0.087108 0.464052 -0.053850
v -0.086862 0.467005 -0.053694
v -0.086941 0.467666 -0.051701
v -0.086896 0.469446 -0.049774
v -0.086747 0.470831 -0.049643
v -0.086706 0.471874 -0.047013
v -0.087014 0.462697 -0.054250
v -0.086653 0.471419 -0.048239
v -0.086652 0.469168 -0.051713
v -0.086710 0.470108 -0.048365
v -0.086635 0.470689 -0.047067
v -0.086936 0.461313 -0.054646
v -0.086697 0.465702 -0.054080
v -0.086745 0.466596 -0.052197
v -0.086601 0.468543 -0.050339
v -0.086585 0.464328 -0.054444
v -0.086348 0.469930 -0.050153
v -0.086606 0.465435 -0.052663
v -0.086388 0.468114 -0.052235
v -0.086505 0.462918 -0.054799
v -0.086358 0.469261 -0.048915
v -0.086172 0.470569 -0.048648
v -0.086510 0.464201 -0.053101
v -0.086140 0.471089 -0.047264
v -0.086449 0.461488 -0.055128
v -0.086383 0.467589 -0.050927
v -0.086192 0.469888 -0.047481
v -0.086443 0.462920 -0.053521
v -0.086197 0.466972 -0.052740
v -0.086391 0.461614 -0.053933
v -0.086046 0.468982 -0.050739
v -0.086225 0.466575 -0.051489
v -0.086104 0.468379 -0.049561
v -0.086068 0.465739 -0.053200
v -0.086113 0.465499 -0.051991
v -0.085808 0.469685 -0.049212
v -0.085984 0.464445 -0.053619
v -0.085873 0.469051 -0.048089
v -0.085827 0.467979 -0.051351
v -0.085680 0.470261 -0.047690
v -0.086039 0.464375 -0.052443
v -0.085926 0.467465 -0.050233
v -0.085930 0.463122 -0.054016
v -0.085896 0.461782 -0.054384
v -0.085995 0.463223 -0.052865
v -0.085966 0.462056 -0.053273
v -0.085801 0.466521 -0.050861
v -0.085674 0.466910 -0.051938
v -0.085660 0.468190 -0.048820
v -0.085547 0.468767 -0.049880
v -0.085711 0.465550 -0.051392
v -0.085573 0.465775 -0.052455
v -0.085346 0.469398 -0.048315
v -0.085658 0.464569 -0.051850
v -0.085521 0.467318 -0.049579
v -0.085511 0.464602 -0.052908
v -0.085643 0.463589 -0.052270
v -0.085369 0.467817 -0.050581
v -0.085654 0.462615 -0.052678
v -0.085477 0.463416 -0.053323
v -0.085463 0.462221 -0.053703
v -0.085427 0.466449 -0.050273
v -0.085123 0.468511 -0.049067
v -0.085250 0.466832 -0.051243
v -0.085356 0.465596 -0.050831
v -0.085322 0.464772 -0.051290
v -0.085172 0.465816 -0.051804
v -0.085446 0.463265 -0.052154
v -0.085146 0.462781 -0.053093
v -0.085346 0.463992 -0.051712
v -0.084981 0.467615 -0.049855
v -0.085130 0.464791 -0.052278
v -0.085123 0.463781 -0.052702
v -0.084891 0.466720 -0.050586
v -0.084937 0.463434 -0.052557
v -0.084829 0.465836 -0.051182
v -0.084833 0.464178 -0.052110
v -0.084804 0.464983 -0.051671
usemtl Lateral_subtendinous_bursa_of_gastrocnemius_muscle_rMaterial0
f 1 2 3
f 1 4 2
f 2 5 6
f 2 7 5
f 2 6 3
f 2 4 7
f 8 1 9
f 8 10 1
f 1 3 9
f 1 10 4
f 5 11 12
f 5 13 11
f 5 12 6
f 5 7 13
f 8 9 14
f 15 8 14
f 15 16 8
f 8 16 10
f 11 17 18
f 11 19 17
f 11 18 12
f 11 13 19
f 17 20 21
f 17 22 20
f 17 21 18
f 17 19 22
f 9 3 23
f 3 6 24
f 3 24 23
f 14 9 25
f 9 23 25
f 6 12 26
f 6 26 24
f 15 14 27
f 28 15 27
f 15 28 16
f 20 29 21
f 20 30 29
f 20 31 30
f 20 22 31
f 12 18 32
f 12 32 26
f 27 14 33
f 14 25 33
f 18 21 34
f 18 34 32
f 4 35 7
f 10 36 4
f 4 36 35
f 7 37 13
f 7 35 37
f 16 38 10
f 10 38 36
f 21 29 39
f 21 39 34
f 30 40 29
f 30 41 40
f 30 42 41
f 30 31 42
f 13 43 19
f 13 37 43
f 28 27 44
f 27 33 44
f 28 45 16
f 16 45 38
f 19 46 22
f 19 43 46
f 23 24 47
f 25 23 48
f 23 47 48
f 49 28 44
f 28 49 45
f 24 26 50
f 24 50 47
f 29 40 51
f 29 51 39
f 33 25 52
f 25 48 52
f 26 32 53
f 26 53 50
f 22 54 31
f 22 46 54
f 44 33 55
f 33 52 55
f 32 34 56
f 32 56 53
f 41 57 40
f 41 58 57
f 41 59 58
f 41 42 59
f 49 44 60
f 44 55 60
f 36 61 35
f 38 62 36
f 36 62 61
f 35 63 37
f 35 61 63
f 34 39 64
f 34 64 56
f 40 57 65
f 40 65 51
f 45 66 38
f 38 66 62
f 37 67 43
f 37 63 67
f 31 68 42
f 31 54 68
f 49 69 45
f 45 69 66
f 48 47 70
f 47 50 71
f 47 71 70
f 43 72 46
f 43 67 72
f 52 48 73
f 48 70 73
f 50 53 74
f 50 74 71
f 75 49 60
f 49 75 69
f 55 52 76
f 52 73 76
f 39 51 77
f 39 77 64
f 58 78 57
f 58 79 78
f 58 80 79
f 58 59 80
f 60 55 81
f 55 76 81
f 53 56 82
f 53 82 74
f 57 78 83
f 57 83 65
f 46 84 54
f 46 72 84
f 75 60 85
f 60 81 85
f 42 86 59
f 42 68 86
f 56 64 87
f 56 87 82
f 62 88 61
f 66 89 62
f 62 89 88
f 61 90 63
f 61 88 90
f 51 65 91
f 51 91 77
f 69 92 66
f 66 92 89
f 63 93 67
f 63 90 93
f 75 94 69
f 69 94 92
f 54 95 68
f 54 84 95
f 73 70 96
f 70 71 97
f 70 97 96
f 76 73 98
f 73 96 98
f 79 99 78
f 79 100 99
f 79 101 100
f 79 80 101
f 71 74 102
f 71 102 97
f 81 76 103
f 76 98 103
f 104 75 85
f 75 104 94
f 67 105 72
f 67 93 105
f 64 77 106
f 64 106 87
f 78 99 107
f 78 107 83
f 85 81 108
f 81 103 108
f 59 109 80
f 59 86 109
f 74 82 110
f 74 110 102
f 104 85 111
f 85 108 111
f 65 83 112
f 65 112 91
f 72 113 84
f 72 105 113
f 68 114 86
f 68 95 114
f 82 87 115
f 82 115 110
f 77 91 116
f 77 116 106
f 92 117 89
f 89 118 88
f 89 117 118
f 94 119 92
f 92 119 117
f 88 120 90
f 88 118 120
f 100 121 99
f 100 122 121
f 100 123 122
f 100 101 123
f 104 124 94
f 94 124 119
f 99 121 125
f 99 125 107
f 98 96 126
f 103 98 127
f 98 126 127
f 96 97 128
f 96 128 126
f 84 129 95
f 84 113 129
f 90 130 93
f 90 120 130
f 108 103 131
f 103 127 131
f 132 104 111
f 104 132 124
f 80 133 101
f 80 109 133
f 87 106 134
f 87 134 115
f 111 108 135
f 108 131 135
f 97 102 136
f 97 136 128
f 83 107 137
f 83 137 112
f 132 111 138
f 111 135 138
f 86 139 109
f 86 114 139
f 93 140 105
f 93 130 140
f 91 112 141
f 91 141 116
f 102 110 142
f 102 142 136
f 95 143 114
f 95 129 143
f 122 144 121
f 122 145 144
f 122 146 145
f 122 123 146
f 105 147 113
f 105 140 147
f 106 116 148
f 106 148 134
f 121 144 149
f 121 149 125
f 110 115 150
f 110 150 142
f 101 151 123
f 101 133 151
f 124 152 119
f 119 153 117
f 119 152 153
f 132 154 124
f 124 154 152
f 107 125 155
f 107 155 137
f 156 132 138
f 132 156 154
f 117 157 118
f 117 153 157
f 131 127 158
f 135 131 159
f 131 158 159
f 127 126 160
f 127 160 158
f 138 135 161
f 135 159 161
f 109 162 133
f 109 139 162
f 118 163 120
f 118 157 163
f 156 138 164
f 138 161 164
f 112 137 165
f 112 165 141
f 126 128 166
f 126 166 160
f 113 167 129
f 113 147 167
f 115 134 168
f 115 168 150
f 120 169 130
f 120 163 169
f 114 170 139
f 114 143 170
f 128 136 171
f 128 171 166
f 116 141 172
f 116 172 148
f 145 173 144
f 145 174 173
f 145 175 174
f 145 146 175
f 144 173 176
f 144 176 149
f 123 177 146
f 123 151 177
f 130 178 140
f 130 169 178
f 136 142 179
f 136 179 171
f 125 149 180
f 125 180 155
f 181 156 164
f 156 182 154
f 156 181 182
f 133 183 151
f 133 162 183
f 134 148 184
f 134 184 168
f 129 185 143
f 129 167 185
f 137 155 186
f 137 186 165
f 164 161 187
f 181 164 188
f 164 187 188
f 154 189 152
f 154 182 189
f 161 159 190
f 161 190 187
f 152 191 153
f 152 189 191
f 159 158 192
f 159 192 190
f 142 150 193
f 142 193 179
f 140 194 147
f 140 178 194
f 141 165 195
f 141 195 172
f 139 196 162
f 139 170 196
f 153 197 157
f 153 191 197
f 158 160 198
f 158 198 192
f 174 199 173
f 173 199 200
f 173 200 176
f 174 201 199
f 174 202 201
f 174 175 202
f 160 166 203
f 160 203 198
f 157 204 163
f 157 197 204
f 149 176 205
f 149 205 180
f 146 206 175
f 146 177 206
f 148 172 207
f 148 207 184
f 143 208 170
f 143 185 208
f 150 168 209
f 150 209 193
f 147 210 167
f 147 194 210
f 155 180 211
f 155 211 186
f 151 212 177
f 151 183 212
f 213 181 188
f 181 214 182
f 181 213 214
f 166 171 215
f 166 215 203
f 188 187 216
f 213 188 217
f 188 216 217
f 163 218 169
f 163 204 218
f 165 186 219
f 165 219 195
f 162 220 183
f 162 196 220
f 187 190 221
f 187 221 216
f 182 222 189
f 182 214 222
f 171 179 223
f 171 223 215
f 169 224 178
f 169 218 224
f 190 192 225
f 190 225 221
f 168 184 226
f 168 226 209
f 189 227 191
f 189 222 227
f 172 195 228
f 172 228 207
f 167 229 185
f 167 210 229
f 201 200 199
f 201 202 200
f 170 230 196
f 170 208 230
f 176 200 231
f 176 231 205
f 175 232 202
f 175 206 232
f 180 205 233
f 180 233 211
f 192 198 234
f 192 234 225
f 177 235 206
f 177 212 235
f 191 236 197
f 191 227 236
f 237 213 217
f 213 238 214
f 213 237 238
f 217 216 239
f 237 217 240
f 217 239 240
f 179 193 241
f 179 241 223
f 186 211 242
f 186 242 219
f 178 243 194
f 178 224 243
f 183 244 212
f 183 220 244
f 198 203 245
f 198 245 234
f 184 207 246
f 184 246 226
f 197 247 204
f 197 236 247
f 216 221 248
f 216 248 239
f 185 249 208
f 185 229 249
f 195 219 250
f 195 250 228
f 214 251 222
f 214 238 251
f 196 252 220
f 196 230 252
f 193 209 253
f 193 253 241
f 202 231 200
f 203 215 254
f 203 254 245
f 202 232 231
f 194 255 210
f 194 243 255
f 205 231 256
f 205 256 233
f 206 257 232
f 206 235 257
f 204 258 218
f 204 247 258
f 221 225 259
f 221 259 248
f 222 260 227
f 222 251 260
f 261 237 240
f 240 239 262
f 261 240 263
f 240 262 263
f 211 233 264
f 211 264 242
f 237 265 238
f 237 261 265
f 212 266 235
f 212 244 266
f 207 228 267
f 207 267 246
f 215 223 268
f 215 268 254
f 208 269 230
f 208 249 269
f 209 226 270
f 209 270 253
f 225 234 271
f 225 271 259
f 219 242 272
f 219 272 250
f 218 273 224
f 218 258 273
f 227 274 236
f 227 260 274
f 220 275 244
f 220 252 275
f 210 276 229
f 210 255 276
f 239 248 277
f 239 277 262
f 238 278 251
f 238 265 278
f 232 256 231
f 232 257 256
f 234 245 279
f 234 279 271
f 223 241 280
f 223 280 268
f 233 256 281
f 233 281 264
f 282 261 263
f 263 262 283
f 282 263 284
f 263 283 284
f 228 250 285
f 228 285 267
f 235 286 257
f 235 266 286
f 261 287 265
f 261 282 287
f 236 288 247
f 236 274 288
f 226 246 289
f 226 289 270
f 224 290 243
f 224 273 290
f 248 259 291
f 248 291 277
f 230 292 252
f 230 269 292
f 242 264 293
f 242 293 272
f 229 294 249
f 229 276 294
f 251 295 260
f 251 278 295
f 244 296 266
f 244 275 296
f 245 254 297
f 245 297 279
f 241 253 298
f 241 298 280
f 262 277 299
f 262 299 283
f 247 300 258
f 247 288 300
f 259 271 301
f 259 301 291
f 250 272 302
f 250 302 285
f 243 303 255
f 243 290 303
f 246 267 304
f 246 304 289
f 257 281 256
f 265 305 278
f 265 287 305
f 306 282 284
f 284 283 307
f 306 284 308
f 284 307 308
f 257 286 281
f 252 309 275
f 252 292 309
f 260 310 274
f 260 295 310
f 254 268 311
f 254 311 297
f 282 312 287
f 282 306 312
f 249 313 269
f 249 294 313
f 264 281 314
f 264 314 293
f 253 270 315
f 253 315 298
f 266 316 286
f 266 296 316
f 258 317 273
f 258 300 317
f 271 279 318
f 271 318 301
f 277 291 319
f 277 319 299
f 255 320 276
f 255 303 320
f 272 293 321
f 272 321 302
f 267 285 322
f 267 322 304
f 278 323 295
f 278 305 323
f 274 324 288
f 274 310 324
f 268 280 325
f 268 325 311
f 283 299 326
f 283 326 307
f 275 327 296
f 275 309 327
f 269 328 292
f 269 313 328
f 270 289 329
f 270 329 315
f 330 306 308
f 308 307 331
f 330 308 332
f 308 331 332
f 286 314 281
f 287 333 305
f 287 312 333
f 273 334 290
f 273 317 334
f 279 297 335
f 279 335 318
f 306 336 312
f 306 330 336
f 291 301 337
f 291 337 319
f 286 316 314
f 276 338 294
f 276 320 338
f 285 302 339
f 285 339 322
f 293 314 340
f 293 340 321
f 280 298 341
f 280 341 325
f 288 342 300
f 288 324 342
f 295 343 310
f 295 323 343
f 289 304 344
f 289 344 329
f 299 319 345
f 299 345 326
f 296 346 316
f 296 327 346
f 292 347 309
f 292 328 347
f 297 311 348
f 297 348 335
f 290 349 303
f 290 334 349
f 307 326 350
f 307 350 331
f 351 330 332
f 332 331 352
f 351 332 353
f 332 352 353
f 301 318 354
f 301 354 337
f 305 355 323
f 305 333 355
f 294 356 313
f 294 338 356
f 302 321 357
f 302 357 339
f 298 315 358
f 298 358 341
f 312 359 333
f 312 336 359
f 330 351 360
f 330 360 336
f 316 340 314
f 300 361 317
f 300 342 361
f 310 362 324
f 310 343 362
f 304 322 363
f 304 363 344
f 309 364 327
f 309 347 364
f 316 346 340
f 319 337 365
f 319 365 345
f 311 325 366
f 311 366 348
f 303 367 320
f 303 349 367
f 318 335 368
f 318 368 354
f 313 369 328
f 313 356 369
f 321 340 370
f 321 370 357
f 326 345 371
f 326 371 350
f 315 329 372
f 315 372 358
f 331 350 373
f 331 373 352
f 323 374 343
f 323 355 374
f 375 351 353
f 353 352 376
f 375 353 377
f 353 376 377
f 322 339 378
f 322 378 363
f 317 379 334
f 317 361 379
f 327 380 346
f 327 364 380
f 333 381 355
f 333 359 381
f 324 382 342
f 324 362 382
f 351 375 383
f 351 383 360
f 336 384 359
f 336 360 384
f 325 341 385
f 325 385 366
f 320 386 338
f 320 367 386
f 337 354 387
f 337 387 365
f 328 388 347
f 328 369 388
f 329 344 389
f 329 389 372
f 346 370 340
f 335 348 390
f 335 390 368
f 339 357 391
f 339 391 378
f 345 365 392
f 345 392 371
f 346 380 370
f 334 393 349
f 334 379 393
f 343 394 362
f 343 374 394
f 350 371 395
f 350 395 373
f 352 396 376
f 352 373 396
f 397 375 377
f 377 376 398
f 397 377 399
f 377 398 399
f 338 400 356
f 338 386 400
f 341 358 401
f 341 401 385
f 347 402 364
f 347 388 402
f 342 403 361
f 342 382 403
f 344 363 404
f 344 404 389
f 355 405 374
f 355 381 405
f 357 370 406
f 357 406 391
f 375 397 407
f 375 407 383
f 354 368 408
f 354 408 387
f 359 384 409
f 359 409 381
f 360 383 410
f 360 410 384
f 348 366 411
f 348 411 390
f 349 412 367
f 349 393 412
f 364 413 380
f 364 402 413
f 363 378 414
f 363 414 404
f 356 415 369
f 356 400 415
f 358 372 416
f 358 416 401
f 365 387 417
f 365 417 392
f 362 418 382
f 362 394 418
f 380 406 370
f 376 396 419
f 376 419 398
f 371 392 420
f 371 420 395
f 373 421 396
f 373 395 421
f 407 397 399
f 407 399 398
f 361 422 379
f 361 403 422
f 366 385 423
f 366 423 411
f 368 390 424
f 368 424 408
f 378 391 425
f 378 425 414
f 380 413 406
f 369 426 388
f 369 415 426
f 374 427 394
f 374 405 427
f 372 389 428
f 372 428 416
f 367 429 386
f 367 412 429
f 383 407 430
f 383 430 410
f 384 410 431
f 384 431 409
f 381 409 432
f 381 432 405
f 387 408 433
f 387 433 417
f 391 406 434
f 391 434 425
f 379 435 393
f 379 422 435
f 382 436 403
f 382 418 436
f 388 437 402
f 388 426 437
f 385 401 438
f 385 438 423
f 389 404 439
f 389 439 428
f 396 440 419
f 396 421 440
f 430 407 398
f 430 398 419
f 392 417 441
f 392 441 420
f 395 442 421
f 395 420 442
f 386 443 400
f 386 429 443
f 390 411 444
f 390 444 424
f 413 434 406
f 402 445 413
f 402 437 445
f 394 446 418
f 394 427 446
f 404 414 447
f 404 447 439
f 410 430 448
f 410 448 431
f 401 416 449
f 401 449 438
f 409 431 450
f 409 450 432
f 405 451 427
f 405 432 451
f 393 452 412
f 393 435 452
f 400 453 415
f 400 443 453
f 408 424 454
f 408 454 433
f 403 455 422
f 403 436 455
f 413 445 434
f 411 423 456
f 411 456 444
f 414 425 457
f 414 457 447
f 448 430 419
f 448 419 440
f 421 458 440
f 421 442 458
f 417 433 459
f 417 459 441
f 420 460 442
f 420 441 460
f 415 461 426
f 415 453 461
f 416 428 462
f 416 462 449
f 425 434 463
f 425 463 457
f 412 464 429
f 412 452 464
f 418 465 436
f 418 446 465
f 426 466 437
f 426 461 466
f 423 438 467
f 423 467 456
f 424 444 468
f 424 468 454
f 431 448 469
f 431 469 450
f 422 470 435
f 422 455 470
f 428 439 471
f 428 471 462
f 427 472 446
f 427 451 472
f 432 450 473
f 432 473 451
f 445 463 434
f 429 474 443
f 429 464 474
f 469 448 440
f 469 440 458
f 437 475 445
f 437 466 475
f 433 454 476
f 433 476 459
f 442 477 458
f 442 460 477
f 439 447 478
f 439 478 471
f 441 479 460
f 441 459 479
f 438 449 480
f 438 480 467
f 445 475 463
f 436 481 455
f 436 465 481
f 435 482 452
f 435 470 482
f 444 456 483
f 444 483 468
f 447 457 484
f 447 484 478
f 443 485 453
f 443 474 485
f 450 469 486
f 450 486 473
f 446 487 465
f 446 472 487
f 457 463 488
f 457 488 484
f 449 462 489
f 449 489 480
f 451 473 490
f 451 490 472
f 453 491 461
f 453 485 491
f 454 468 492
f 454 492 476
f 486 469 458
f 486 458 477
f 475 488 463
f 452 493 464
f 452 482 493
f 460 494 477
f 460 479 494
f 456 467 495
f 456 495 483
f 459 476 496
f 459 496 479
f 455 497 470
f 455 481 497
f 461 498 466
f 461 491 498
f 462 471 499
f 462 499 489
f 466 500 475
f 466 498 500
f 471 478 501
f 471 501 499
f 464 502 474
f 464 493 502
f 467 480 503
f 467 503 495
f 468 483 504
f 468 504 492
f 465 505 481
f 465 487 505
f 475 500 488
f 473 486 506
f 473 506 490
f 478 484 507
f 478 507 501
f 472 508 487
f 472 490 508
f 470 509 482
f 470 497 509
f 506 486 477
f 506 477 494
f 476 492 510
f 476 510 496
f 479 496 511
f 479 511 494
f 484 488 512
f 484 512 507
f 474 513 485
f 474 502 513
f 480 489 514
f 480 514 503
f 500 512 488
f 483 495 515
f 483 515 504
f 485 516 491
f 485 513 516
f 481 517 497
f 481 505 517
f 489 499 518
f 489 518 514
f 482 519 493
f 482 509 519
f 491 520 498
f 491 516 520
f 492 504 521
f 492 521 510
f 487 522 505
f 487 508 522
f 499 501 523
f 499 523 518
f 490 506 524
f 490 524 508
f 498 525 500
f 498 520 525
f 495 503 526
f 495 526 515
f 496 510 527
f 496 527 511
f 524 506 494
f 524 494 511
f 500 525 512
f 501 507 528
f 501 528 523
f 493 529 502
f 493 519 529
f 507 512 530
f 507 530 528
f 497 531 509
f 497 517 531
f 525 530 512
f 503 514 532
f 503 532 526
f 504 515 533
f 504 533 521
f 502 534 513
f 502 529 534
f 514 518 535
f 514 535 532
f 505 536 517
f 505 522 536
f 513 537 516
f 513 534 537
f 510 521 538
f 510 538 527
f 509 539 519
f 509 531 539
f 508 540 522
f 508 524 540
f 540 511 527
f 540 524 511
f 518 523 541
f 518 541 535
f 515 526 542
f 515 542 533
f 516 543 520
f 516 537 543
f 520 544 525
f 520 543 544
f 523 528 545
f 523 545 541
f 525 544 530
f 528 530 546
f 528 546 545
f 544 546 530
f 526 532 547
f 526 547 542
f 519 548 529
f 519 539 548
f 521 533 549
f 521 549 538
f 517 550 531
f 517 536 550
f 532 535 551
f 532 551 547
f 529 552 534
f 529 548 552
f 553 527 538
f 553 540 527
f 522 553 536
f 522 540 553
f 535 541 554
f 535 554 551
f 533 542 555
f 533 555 549
f 534 556 537
f 534 552 556
f 541 545 557
f 541 557 554
f 531 558 539
f 531 550 558
f 545 546 559
f 545 559 557
f 537 560 543
f 537 556 560
f 544 561 546
f 561 559 546
f 543 561 544
f 543 560 561
f 542 547 562
f 542 562 555
f 563 538 549
f 563 553 538
f 539 564 548
f 539 558 564
f 547 551 565
f 547 565 562
f 536 563 550
f 536 553 563
f 551 554 566
f 551 566 565
f 548 567 552
f 548 564 567
f 557 559 568
f 561 569 559
f 569 568 559
f 554 557 570
f 554 570 566
f 571 549 555
f 571 563 549
f 557 568 570
f 552 572 556
f 552 567 572
f 550 571 558
f 550 563 571
f 556 573 560
f 556 572 573
f 574 555 562
f 574 571 555
f 560 569 561
f 560 573 569
f 575 570 568
f 569 575 568
f 576 562 565
f 576 574 562
f 558 574 564
f 558 571 574
f 577 566 570
f 575 577 570
f 578 565 566
f 578 576 565
f 577 578 566
f 564 576 567
f 564 574 576
f 567 578 572
f 567 576 578
f 573 575 569
f 572 577 573
f 573 577 575
f 572 578 577
