# 
# Wavefront OBJ file
# Created with Kaydara FBX
# 
mtllib c:\users\tjvan\onedrive\documenten\fontys\minor\nx\.mtlmodels\lateral_head_of_gastrocnemius.r.obj

g Lateral_head_of_gastrocnemius_r
v -0.133713 0.317556 -0.074897
v -0.133797 0.326748 -0.070407
v -0.133916 0.327228 -0.073813
v -0.133370 0.336897 -0.072718
v -0.133238 0.327709 -0.077829
v -0.132886 0.337343 -0.076877
v -0.133740 0.317037 -0.071635
v -0.132790 0.316624 -0.068824
v -0.133128 0.336410 -0.069170
v -0.131993 0.335909 -0.066237
v -0.132599 0.326309 -0.067609
v -0.133002 0.307322 -0.072884
v -0.133096 0.318042 -0.078651
v -0.132350 0.308177 -0.079447
v -0.133016 0.307740 -0.075950
v -0.132471 0.346500 -0.071590
v -0.131794 0.328023 -0.082514
v -0.132117 0.345964 -0.067909
v -0.131519 0.318313 -0.083014
v -0.132002 0.297969 -0.076970
v -0.131970 0.306990 -0.070209
v -0.132081 0.297630 -0.073955
v -0.131008 0.297446 -0.071317
v -0.132138 0.346951 -0.075971
v -0.130978 0.347052 -0.081332
v -0.131728 0.337537 -0.081945
v -0.130542 0.325937 -0.065602
v -0.129738 0.306890 -0.068519
v -0.130526 0.316369 -0.067004
v -0.130970 0.356421 -0.074984
v -0.130909 0.355424 -0.066781
v -0.131193 0.355937 -0.070471
v -0.131124 0.298419 -0.080344
v -0.130783 0.308612 -0.083491
v -0.129403 0.298923 -0.084069
v -0.130065 0.356550 -0.080787
v -0.131096 0.345403 -0.064907
v -0.130331 0.287972 -0.074983
v -0.129340 0.287932 -0.072518
v -0.129084 0.288654 -0.081009
v -0.130193 0.288218 -0.077844
v -0.129137 0.344858 -0.062792
v -0.129915 0.335453 -0.064230
v -0.128657 0.297540 -0.069679
v -0.129203 0.337103 -0.088554
v -0.129011 0.318183 -0.088420
v -0.129311 0.327675 -0.088547
v -0.128759 0.346621 -0.088357
v -0.129421 0.365683 -0.074158
v -0.129423 0.365260 -0.069570
v -0.129905 0.354849 -0.063814
v -0.128493 0.364293 -0.062663
v -0.129184 0.364807 -0.065880
v -0.128048 0.308744 -0.088349
v -0.127588 0.316434 -0.067145
v -0.127097 0.335248 -0.064321
v -0.127570 0.325824 -0.065460
v -0.126832 0.307120 -0.068487
v -0.128073 0.278371 -0.075834
v -0.127588 0.278642 -0.078563
v -0.128813 0.365799 -0.080350
v -0.126677 0.365542 -0.088201
v -0.127916 0.356134 -0.088209
v -0.128088 0.354233 -0.061669
v -0.127721 0.374279 -0.068848
v -0.127244 0.374823 -0.079917
v -0.127761 0.374624 -0.073448
v -0.127276 0.289203 -0.084490
v -0.126602 0.299216 -0.088269
v -0.124641 0.289691 -0.088225
v -0.127225 0.288143 -0.070949
v -0.127360 0.278386 -0.073373
v -0.125341 0.278745 -0.071907
v -0.124031 0.336564 -0.095870
v -0.123933 0.327027 -0.095585
v -0.127450 0.373910 -0.064984
v -0.125400 0.353893 -0.061772
v -0.126316 0.344583 -0.063094
v -0.126339 0.279094 -0.081536
v -0.124495 0.279654 -0.084702
v -0.122838 0.308554 -0.093938
v -0.123539 0.317710 -0.094861
v -0.125396 0.375062 -0.087806
v -0.123109 0.355759 -0.095414
v -0.123691 0.346162 -0.095696
v -0.124444 0.288617 -0.070864
v -0.125703 0.297887 -0.069531
v -0.126884 0.363696 -0.060180
v -0.126626 0.373481 -0.061717
v -0.124951 0.372914 -0.059179
v -0.124316 0.269144 -0.079125
v -0.124663 0.268787 -0.074124
v -0.124951 0.268829 -0.076572
v -0.122287 0.365398 -0.095032
v -0.126262 0.383257 -0.072661
v -0.125734 0.383802 -0.079064
v -0.125497 0.382479 -0.063993
v -0.126043 0.382836 -0.067867
v -0.124837 0.316739 -0.068931
v -0.124992 0.326056 -0.067487
v -0.122695 0.269267 -0.072664
v -0.122605 0.279367 -0.072083
v -0.123938 0.344598 -0.065006
v -0.124609 0.335318 -0.066188
v -0.124031 0.363181 -0.060256
v -0.122840 0.298378 -0.070720
v -0.124029 0.307521 -0.069873
v -0.124486 0.382070 -0.060722
v -0.121860 0.299287 -0.093165
v -0.123015 0.269648 -0.081756
v -0.124762 0.391766 -0.071438
v -0.124512 0.391296 -0.066646
v -0.123944 0.384567 -0.086502
v -0.124274 0.392557 -0.077389
v -0.122463 0.393778 -0.084217
v -0.121489 0.289243 -0.071995
v -0.123891 0.390889 -0.062797
v -0.122811 0.390482 -0.059580
v -0.121716 0.363024 -0.062474
v -0.123085 0.353856 -0.063774
v -0.120211 0.385174 -0.092734
v -0.121369 0.375347 -0.094316
v -0.122313 0.326300 -0.070006
v -0.121364 0.259599 -0.074532
v -0.121514 0.259686 -0.076889
v -0.122757 0.381552 -0.058178
v -0.122122 0.372309 -0.059290
v -0.119844 0.381046 -0.058232
v -0.121007 0.307928 -0.071828
v -0.121883 0.317049 -0.071131
v -0.123141 0.399795 -0.065251
v -0.122702 0.401253 -0.075094
v -0.123294 0.400342 -0.069705
v -0.121977 0.280257 -0.087968
v -0.118336 0.280728 -0.091747
v -0.120412 0.290008 -0.092505
v -0.121968 0.335437 -0.068580
v -0.121284 0.270242 -0.084486
v -0.118963 0.270936 -0.087425
v -0.119571 0.260566 -0.081634
v -0.120814 0.260052 -0.079270
v -0.121007 0.402635 -0.081340
v -0.119738 0.298948 -0.072607
v -0.115660 0.327241 -0.101279
v -0.115861 0.346324 -0.100871
v -0.115887 0.336817 -0.101314
v -0.120578 0.353765 -0.066187
v -0.121280 0.344625 -0.067350
v -0.118949 0.394747 -0.090260
v -0.122572 0.399352 -0.061611
v -0.115716 0.355814 -0.100264
v -0.115241 0.317786 -0.100725
v -0.121718 0.408981 -0.067912
v -0.121098 0.409847 -0.072763
v -0.121265 0.407955 -0.060253
v -0.121706 0.408401 -0.063737
v -0.114620 0.299420 -0.098699
v -0.114884 0.308535 -0.099757
v -0.121010 0.390047 -0.057104
v -0.121492 0.398947 -0.058533
v -0.119316 0.398544 -0.056445
v -0.119958 0.270058 -0.073169
v -0.119311 0.260218 -0.073555
v -0.116820 0.261058 -0.074394
v -0.119458 0.411150 -0.078484
v -0.119597 0.280103 -0.073271
v -0.117027 0.270920 -0.074377
v -0.117427 0.403624 -0.087180
v -0.118392 0.335451 -0.070942
v -0.118202 0.317346 -0.073284
v -0.118559 0.326424 -0.072241
v -0.115003 0.375352 -0.098242
v -0.115503 0.365478 -0.099445
v -0.119735 0.372056 -0.061227
v -0.117294 0.308401 -0.073976
v -0.119259 0.362854 -0.064828
v -0.117121 0.371833 -0.063248
v -0.120348 0.417731 -0.066222
v -0.119618 0.418448 -0.070790
v -0.120538 0.417238 -0.062289
v -0.117893 0.251099 -0.076888
v -0.118244 0.289929 -0.073627
v -0.116287 0.280918 -0.074697
v -0.120404 0.407544 -0.057264
v -0.115573 0.251841 -0.074673
v -0.117623 0.251056 -0.074688
v -0.114105 0.385172 -0.096507
v -0.117987 0.261152 -0.084036
v -0.118012 0.344557 -0.069753
v -0.120313 0.416837 -0.058955
v -0.119494 0.416494 -0.055996
v -0.117942 0.389661 -0.057508
v -0.117246 0.251469 -0.079134
v -0.116188 0.362549 -0.066934
v -0.117354 0.353572 -0.068495
v -0.118987 0.426469 -0.064834
v -0.119190 0.426065 -0.061288
v -0.113893 0.290276 -0.097368
v -0.118112 0.407183 -0.055399
v -0.119038 0.425715 -0.058145
v -0.112940 0.394672 -0.094100
v -0.114173 0.261952 -0.075512
v -0.117335 0.380839 -0.060054
v -0.115303 0.389521 -0.059392
v -0.114588 0.290669 -0.075563
v -0.116082 0.299559 -0.074661
v -0.118062 0.419589 -0.075934
v -0.118250 0.427120 -0.069012
v -0.116759 0.428227 -0.073590
v -0.113909 0.271840 -0.075735
v -0.114641 0.252435 -0.083510
v -0.116168 0.251914 -0.081286
v -0.118277 0.425428 -0.055312
v -0.115720 0.425141 -0.054200
v -0.117013 0.416203 -0.054548
v -0.115032 0.420798 -0.081229
v -0.116206 0.412295 -0.084247
v -0.113404 0.252674 -0.075674
v -0.115208 0.407178 -0.056383
v -0.116341 0.398353 -0.057035
v -0.117631 0.434718 -0.060422
v -0.117556 0.434292 -0.057555
v -0.116719 0.435818 -0.067072
v -0.117417 0.435172 -0.063586
v -0.115919 0.271508 -0.090812
v -0.115867 0.261867 -0.086656
v -0.113185 0.262504 -0.089665
v -0.112153 0.326468 -0.074829
v -0.112006 0.317758 -0.076009
v -0.111850 0.344236 -0.072373
v -0.112060 0.335279 -0.073639
v -0.110842 0.272025 -0.094512
v -0.112650 0.281115 -0.096048
v -0.116967 0.433891 -0.054935
v -0.112749 0.281798 -0.076412
v -0.115094 0.436948 -0.071188
v -0.114017 0.429404 -0.078349
v -0.113644 0.243119 -0.075058
v -0.113584 0.243142 -0.078722
v -0.114068 0.242972 -0.076727
v -0.111894 0.243738 -0.075358
v -0.116021 0.442218 -0.056658
v -0.115387 0.443394 -0.061904
v -0.115839 0.442749 -0.059200
v -0.110713 0.412539 -0.087942
v -0.111658 0.403679 -0.091094
v -0.114574 0.444160 -0.064816
v -0.111226 0.353181 -0.071078
v -0.114667 0.380664 -0.062115
v -0.110401 0.300516 -0.077691
v -0.111253 0.309135 -0.077027
v -0.114210 0.371568 -0.065224
v -0.111763 0.380509 -0.064023
v -0.111346 0.262926 -0.076759
v -0.114284 0.416202 -0.055917
v -0.115746 0.441768 -0.054384
v -0.114690 0.433589 -0.054286
v -0.111118 0.253503 -0.076714
v -0.113708 0.398459 -0.058955
v -0.110631 0.272812 -0.077293
v -0.110036 0.421279 -0.084851
v -0.108688 0.370954 -0.068030
v -0.110266 0.362032 -0.069530
v -0.112665 0.243450 -0.080705
v -0.109418 0.291589 -0.078383
v -0.114275 0.450052 -0.057246
v -0.114902 0.448869 -0.053195
v -0.114746 0.449376 -0.055082
v -0.106560 0.346953 -0.103627
v -0.106567 0.337548 -0.104454
v -0.112671 0.253055 -0.085897
v -0.113575 0.450862 -0.059488
v -0.114136 0.441609 -0.054380
v -0.106695 0.365832 -0.101701
v -0.106584 0.356300 -0.102680
v -0.112983 0.433653 -0.056480
v -0.113332 0.425115 -0.055950
v -0.106182 0.318356 -0.104275
v -0.106479 0.327980 -0.104885
v -0.109982 0.244408 -0.076346
v -0.106601 0.375305 -0.100233
v -0.112481 0.389519 -0.061401
v -0.110646 0.398730 -0.061035
v -0.111917 0.416412 -0.058414
v -0.112721 0.407424 -0.058651
v -0.113098 0.445335 -0.068392
v -0.112580 0.438104 -0.075452
v -0.110655 0.446622 -0.072182
v -0.106121 0.384823 -0.098280
v -0.114035 0.455641 -0.052435
v -0.114305 0.454936 -0.050998
v -0.113266 0.455265 -0.052024
v -0.113745 0.448892 -0.053677
v -0.105966 0.308892 -0.103299
v -0.113374 0.456571 -0.054305
v -0.111224 0.243919 -0.082753
v -0.109462 0.244481 -0.084919
v -0.105723 0.290518 -0.100669
v -0.105927 0.299636 -0.102045
v -0.108030 0.282876 -0.079067
v -0.112590 0.451860 -0.062026
v -0.111198 0.453169 -0.064935
v -0.113711 0.461274 -0.048334
v -0.113261 0.460401 -0.047419
v -0.112325 0.460933 -0.048705
v -0.112376 0.449337 -0.055633
v -0.112793 0.441823 -0.056586
v -0.110356 0.234775 -0.074822
v -0.110907 0.234551 -0.076471
v -0.108335 0.438597 -0.078477
v -0.109340 0.429930 -0.081683
v -0.111815 0.455798 -0.053590
v -0.113037 0.462480 -0.050119
v -0.111647 0.466377 -0.042119
v -0.112250 0.468314 -0.044235
v -0.112703 0.467273 -0.042758
v -0.108574 0.235358 -0.075501
v -0.109320 0.234984 -0.080116
v -0.110320 0.234697 -0.078338
v -0.112530 0.457582 -0.056236
v -0.111445 0.458788 -0.058401
v -0.112150 0.463638 -0.051861
v -0.111228 0.425210 -0.058429
v -0.110148 0.253728 -0.088568
v -0.108758 0.263080 -0.092845
v -0.106357 0.254327 -0.091011
v -0.108889 0.454775 -0.068329
v -0.111458 0.469260 -0.045742
v -0.111226 0.442026 -0.058693
v -0.111229 0.433714 -0.058923
v -0.104524 0.403483 -0.093217
v -0.105327 0.394222 -0.095980
v -0.109653 0.407870 -0.061271
v -0.109296 0.474506 -0.037449
v -0.109217 0.473989 -0.036392
v -0.105077 0.281502 -0.099078
v -0.109979 0.460297 -0.060921
v -0.106914 0.447224 -0.075096
v -0.111030 0.464897 -0.053749
v -0.109273 0.389564 -0.063315
v -0.110767 0.449771 -0.057272
v -0.110989 0.461440 -0.050222
v -0.110240 0.466603 -0.043175
v -0.109170 0.467157 -0.044332
v -0.109071 0.474985 -0.038774
v -0.103360 0.326583 -0.078396
v -0.110499 0.470347 -0.047433
v -0.103631 0.335209 -0.076754
v -0.102720 0.309582 -0.080846
v -0.103123 0.318093 -0.079765
v -0.108674 0.425276 -0.061161
v -0.109168 0.416700 -0.061254
v -0.102972 0.352827 -0.073642
v -0.103537 0.343995 -0.075140
v -0.109361 0.461773 -0.051758
v -0.110105 0.456233 -0.054971
v -0.104550 0.389394 -0.066129
v -0.106495 0.380074 -0.066806
v -0.103929 0.412588 -0.090436
v -0.106774 0.473727 -0.037242
v -0.107909 0.473577 -0.036561
v -0.109616 0.466397 -0.055822
v -0.108616 0.254374 -0.077783
v -0.108363 0.263969 -0.078190
v -0.105892 0.255344 -0.079041
v -0.102548 0.300974 -0.081521
v -0.107978 0.235371 -0.081828
v -0.108908 0.433629 -0.061286
v -0.108872 0.450204 -0.058758
v -0.109298 0.442207 -0.060637
v -0.107748 0.462056 -0.063767
v -0.107955 0.245095 -0.077381
v -0.105727 0.245844 -0.078402
v -0.107785 0.467700 -0.045745
v -0.107101 0.226500 -0.075008
v -0.107901 0.226208 -0.076276
v -0.102964 0.263441 -0.095497
v -0.104102 0.272453 -0.097327
v -0.108273 0.456661 -0.056339
v -0.106130 0.407967 -0.064213
v -0.107046 0.398897 -0.063245
v -0.105363 0.455734 -0.071186
v -0.104591 0.265174 -0.080191
v -0.106345 0.273998 -0.079679
v -0.109391 0.471549 -0.049123
v -0.108044 0.476160 -0.041610
v -0.108624 0.475554 -0.040298
v -0.102306 0.292275 -0.082196
v -0.107398 0.226313 -0.078051
v -0.101991 0.361656 -0.072175
v -0.105703 0.473717 -0.037868
v -0.107150 0.245031 -0.087041
v -0.107561 0.462024 -0.053405
v -0.103419 0.430000 -0.083363
v -0.103604 0.421345 -0.086977
v -0.106784 0.235909 -0.076588
v -0.104944 0.236478 -0.077577
v -0.108050 0.473006 -0.050543
v -0.107760 0.468187 -0.057959
v -0.106386 0.235836 -0.083473
v -0.104427 0.236432 -0.084955
v -0.107212 0.476866 -0.042706
v -0.102960 0.438528 -0.080129
v -0.104875 0.226903 -0.080828
v -0.106210 0.226620 -0.079452
v -0.106250 0.433825 -0.063753
v -0.106869 0.450712 -0.060190
v -0.107240 0.442435 -0.062346
v -0.105353 0.478637 -0.033892
v -0.104832 0.478210 -0.034146
v -0.105748 0.416876 -0.064503
v -0.105697 0.479450 -0.035452
v -0.105696 0.479135 -0.034598
v -0.099572 0.379541 -0.069486
v -0.100832 0.370377 -0.070690
v -0.105644 0.425418 -0.064300
v -0.103306 0.246666 -0.079552
v -0.105596 0.479718 -0.036165
v -0.105626 0.226980 -0.075858
v -0.104073 0.227424 -0.076881
v -0.102758 0.256332 -0.080629
v -0.102187 0.447116 -0.076900
v -0.106318 0.457147 -0.057814
v -0.106609 0.474403 -0.051634
v -0.101209 0.274705 -0.082755
v -0.101920 0.283498 -0.082687
v -0.102998 0.237072 -0.078552
v -0.105473 0.218702 -0.076274
v -0.103527 0.477865 -0.035100
v -0.104257 0.477968 -0.034654
v -0.106275 0.468188 -0.047185
v -0.104000 0.472029 -0.041216
v -0.104698 0.473517 -0.038530
v -0.105549 0.469862 -0.059584
v -0.104617 0.463317 -0.066312
v -0.105592 0.462579 -0.055086
v -0.104944 0.218798 -0.077906
v -0.104528 0.443111 -0.064366
v -0.106118 0.477757 -0.043641
v -0.104799 0.480455 -0.037519
v -0.105314 0.480086 -0.036777
v -0.103909 0.245464 -0.088914
v -0.102871 0.219514 -0.075597
v -0.104479 0.219048 -0.075244
v -0.103538 0.398482 -0.066748
v -0.104468 0.457550 -0.059414
v -0.104749 0.451413 -0.061714
v -0.102435 0.227871 -0.077859
v -0.102617 0.477575 -0.035662
v -0.098498 0.375541 -0.101024
v -0.098769 0.366157 -0.102418
v -0.104864 0.478704 -0.044312
v -0.103512 0.471172 -0.060398
v -0.105015 0.475737 -0.052395
v -0.098884 0.356760 -0.103745
v -0.098943 0.337851 -0.105700
v -0.098898 0.347337 -0.104803
v -0.098928 0.328258 -0.106053
v -0.103221 0.227269 -0.082042
v -0.100117 0.245648 -0.090858
v -0.101545 0.254563 -0.093361
v -0.100282 0.265861 -0.082566
v -0.102928 0.463581 -0.057578
v -0.104485 0.468896 -0.048581
v -0.102116 0.473488 -0.040604
v -0.103013 0.425819 -0.067743
v -0.103562 0.434562 -0.066553
v -0.103860 0.219033 -0.079281
v -0.098778 0.308906 -0.104971
v -0.098811 0.318504 -0.105757
v -0.097774 0.394240 -0.096859
v -0.098234 0.384917 -0.099212
v -0.103016 0.416828 -0.068047
v -0.103210 0.407599 -0.067640
v -0.098988 0.299533 -0.103561
v -0.099072 0.281509 -0.100388
v -0.099150 0.290428 -0.102155
v -0.104199 0.480897 -0.033953
v -0.104124 0.480473 -0.033523
v -0.101345 0.219870 -0.076489
v -0.103918 0.481402 -0.035098
v -0.104113 0.481189 -0.034504
v -0.103053 0.213050 -0.077621
v -0.102568 0.213347 -0.075098
v -0.103580 0.212971 -0.076020
v -0.101104 0.464234 -0.067692
v -0.100923 0.455715 -0.072991
v -0.103277 0.479807 -0.033805
v -0.103743 0.480055 -0.033527
v -0.097284 0.403463 -0.093876
v -0.103566 0.481624 -0.035955
v -0.103600 0.479527 -0.044568
v -0.103250 0.477005 -0.052729
v -0.102402 0.219340 -0.080471
v -0.100709 0.219716 -0.081562
v -0.104255 0.480381 -0.039456
v -0.101611 0.443969 -0.066426
v -0.103135 0.457359 -0.060811
v -0.102310 0.452301 -0.063517
v -0.101717 0.476805 -0.036567
v -0.099096 0.398267 -0.069175
v -0.098899 0.388983 -0.068903
v -0.100530 0.435245 -0.068601
v -0.100961 0.213865 -0.075413
v -0.102743 0.470005 -0.049691
v -0.101012 0.474217 -0.041401
v -0.101913 0.236876 -0.086394
v -0.101319 0.227685 -0.083161
v -0.099314 0.228090 -0.084120
v -0.102742 0.479595 -0.034136
v -0.103256 0.481262 -0.038349
v -0.103108 0.481376 -0.033124
v -0.103124 0.482005 -0.033958
v -0.103233 0.481744 -0.033415
v -0.102773 0.481061 -0.033186
v -0.098729 0.272640 -0.098408
v -0.097023 0.421165 -0.086997
v -0.096949 0.412360 -0.090401
v -0.102532 0.482127 -0.035797
v -0.102868 0.482136 -0.034647
v -0.102045 0.213312 -0.079058
v -0.095622 0.335266 -0.079109
v -0.097098 0.429802 -0.083746
v -0.101592 0.477911 -0.052788
v -0.102308 0.481565 -0.038485
v -0.102349 0.480204 -0.044569
v -0.102251 0.208839 -0.075680
v -0.101293 0.209228 -0.074734
v -0.099801 0.426153 -0.069823
v -0.095581 0.343928 -0.077111
v -0.102127 0.479219 -0.034593
v -0.101368 0.472253 -0.060748
v -0.098851 0.465007 -0.067942
v -0.097090 0.438142 -0.080590
v -0.094923 0.317979 -0.082520
v -0.095224 0.326653 -0.080946
v -0.100921 0.237703 -0.079567
v -0.100782 0.247420 -0.080829
v -0.098841 0.238248 -0.080540
v -0.102369 0.480809 -0.033421
v -0.101852 0.480507 -0.033768
v -0.102379 0.482381 -0.033727
v -0.102539 0.481960 -0.032883
v -0.102491 0.482208 -0.033187
v -0.099481 0.407508 -0.069701
v -0.102111 0.460720 -0.060018
v -0.095039 0.309314 -0.083763
v -0.101766 0.208866 -0.077275
v -0.100804 0.209054 -0.078746
v -0.099696 0.416828 -0.070223
v -0.100639 0.228355 -0.078798
v -0.098667 0.228880 -0.079659
v -0.097269 0.254893 -0.094223
v -0.098112 0.263735 -0.096337
v -0.094665 0.361334 -0.073632
v -0.095263 0.352598 -0.075346
v -0.100824 0.472453 -0.050563
v -0.098706 0.459561 -0.061880
v -0.099040 0.468297 -0.057193
v -0.094525 0.462998 -0.060772
v -0.097461 0.461214 -0.061139
v -0.102071 0.482495 -0.034511
v -0.102201 0.481790 -0.032903
v -0.101873 0.481488 -0.033111
v -0.098060 0.247924 -0.082089
v -0.099217 0.256966 -0.082354
v -0.100054 0.475265 -0.042311
v -0.095457 0.300626 -0.084694
v -0.101319 0.478580 -0.035311
v -0.100550 0.477440 -0.036592
v -0.099744 0.209697 -0.075170
v -0.101968 0.482316 -0.032968
v -0.101347 0.481769 -0.038654
v -0.101671 0.482336 -0.035869
v -0.099841 0.220168 -0.077577
v -0.098134 0.220539 -0.078585
v -0.100697 0.213693 -0.080337
v -0.101357 0.482608 -0.034416
v -0.101820 0.482543 -0.033521
v -0.100985 0.480769 -0.044454
v -0.096510 0.283309 -0.085458
v -0.095995 0.291966 -0.085281
v -0.099664 0.453030 -0.064425
v -0.097930 0.444206 -0.067006
v -0.099447 0.201893 -0.076816
v -0.099934 0.201729 -0.075174
v -0.097388 0.455846 -0.073245
v -0.097112 0.446737 -0.077140
v -0.101182 0.480009 -0.034325
v -0.101663 0.482045 -0.032994
v -0.098913 0.236917 -0.087826
v -0.096611 0.274632 -0.085193
v -0.101295 0.481148 -0.033503
v -0.101105 0.481682 -0.033324
v -0.100492 0.480625 -0.034140
v -0.101419 0.482508 -0.033321
v -0.101025 0.482140 -0.033302
v -0.100821 0.482422 -0.035927
v -0.096669 0.435427 -0.068972
v -0.099309 0.473105 -0.060873
v -0.099888 0.478656 -0.052671
v -0.097386 0.473819 -0.060758
v -0.100708 0.482517 -0.034275
v -0.099294 0.214395 -0.075906
v -0.097546 0.214875 -0.076581
v -0.099570 0.481105 -0.044232
v -0.100296 0.481895 -0.038650
v -0.099962 0.482250 -0.035891
v -0.098683 0.220165 -0.082447
v -0.100332 0.479215 -0.035283
v -0.099500 0.202061 -0.074598
v -0.100146 0.481345 -0.034094
v -0.100214 0.482044 -0.034165
v -0.096689 0.229345 -0.080424
v -0.094132 0.370088 -0.071652
v -0.099373 0.476551 -0.042937
v -0.099278 0.474391 -0.051150
v -0.096592 0.470386 -0.057234
v -0.099470 0.209346 -0.080012
v -0.097349 0.202875 -0.079243
v -0.098766 0.202250 -0.078007
v -0.096686 0.238656 -0.081442
v -0.098990 0.214202 -0.081405
v -0.097026 0.214729 -0.082271
v -0.099316 0.481637 -0.035671
v -0.096219 0.221072 -0.079339
v -0.099643 0.477958 -0.037133
v -0.099665 0.479889 -0.035400
v -0.099174 0.480700 -0.035471
v -0.099275 0.481629 -0.038500
v -0.098348 0.480642 -0.043878
v -0.095826 0.257111 -0.083753
v -0.096345 0.265856 -0.084497
v -0.095780 0.237074 -0.088833
v -0.096563 0.245916 -0.091825
v -0.099892 0.201600 -0.075165
v -0.099405 0.201767 -0.076807
v -0.099468 0.201932 -0.074596
v -0.098826 0.202023 -0.076331
v -0.098729 0.202127 -0.077994
v -0.098147 0.479178 -0.052406
v -0.095778 0.215328 -0.077371
v -0.095629 0.416937 -0.070242
v -0.095944 0.426216 -0.070073
v -0.098408 0.202524 -0.074936
v -0.098152 0.210157 -0.075606
v -0.096800 0.202926 -0.075488
v -0.095123 0.407766 -0.069809
v -0.096310 0.453339 -0.064353
v -0.094398 0.444513 -0.066999
v -0.099123 0.478601 -0.037690
v -0.093911 0.388757 -0.069379
v -0.093791 0.379253 -0.069959
v -0.098111 0.202257 -0.075499
v -0.098384 0.202394 -0.074932
v -0.097727 0.209774 -0.081083
v -0.098023 0.475938 -0.051381
v -0.098826 0.479495 -0.038094
v -0.098808 0.477908 -0.043333
v -0.096944 0.228479 -0.085061
v -0.096506 0.220634 -0.083025
v -0.094198 0.221163 -0.083423
v -0.096442 0.465823 -0.067980
v -0.098790 0.480633 -0.038338
v -0.096221 0.210659 -0.076137
v -0.098391 0.479276 -0.043585
v -0.095340 0.248143 -0.083105
v -0.094090 0.290322 -0.102379
v -0.093703 0.299405 -0.103808
v -0.094481 0.398458 -0.069463
v -0.094424 0.272634 -0.099146
v -0.094371 0.281463 -0.100911
v -0.093027 0.328109 -0.106007
v -0.092844 0.347420 -0.104942
v -0.092866 0.337757 -0.105740
v -0.092838 0.356956 -0.103846
v -0.092628 0.366334 -0.102535
v -0.094721 0.229760 -0.081112
v -0.094372 0.456588 -0.073046
v -0.097310 0.202758 -0.079229
v -0.097048 0.202710 -0.077632
v -0.093135 0.318451 -0.105639
v -0.093281 0.308810 -0.104971
v -0.093761 0.453968 -0.064291
v -0.094193 0.221685 -0.079704
v -0.091788 0.385032 -0.099031
v -0.092213 0.375690 -0.100985
v -0.096775 0.202795 -0.075486
v -0.096631 0.478941 -0.051929
v -0.096902 0.477448 -0.051542
v -0.091589 0.394281 -0.096353
v -0.095509 0.474340 -0.060426
v -0.093849 0.474415 -0.059674
v -0.093930 0.215788 -0.078174
v -0.096142 0.202783 -0.076576
v -0.094223 0.263834 -0.096955
v -0.094413 0.238959 -0.082268
v -0.093868 0.473269 -0.058523
v -0.095071 0.471811 -0.057732
v -0.095849 0.203310 -0.080119
v -0.095757 0.210297 -0.081943
v -0.094216 0.211104 -0.076818
v -0.094226 0.466441 -0.067675
v -0.092161 0.466835 -0.067024
v -0.095815 0.203193 -0.080102
v -0.091427 0.412177 -0.089632
v -0.091463 0.403315 -0.093106
v -0.093408 0.246277 -0.092125
v -0.093800 0.255114 -0.094675
v -0.093373 0.446920 -0.076413
v -0.091816 0.429234 -0.082994
v -0.092472 0.437872 -0.079571
v -0.095177 0.203286 -0.078658
v -0.094814 0.215218 -0.082848
v -0.093565 0.210853 -0.082545
v -0.091551 0.420917 -0.086466
v -0.094272 0.228920 -0.085669
v -0.094721 0.203445 -0.076192
v -0.094694 0.203315 -0.076193
v -0.092007 0.426107 -0.069645
v -0.092943 0.435518 -0.068816
v -0.092715 0.283050 -0.086563
v -0.093071 0.265778 -0.085612
v -0.093042 0.274434 -0.086283
v -0.090705 0.465213 -0.062515
v -0.092464 0.464090 -0.061353
v -0.092904 0.257123 -0.084857
v -0.094070 0.203308 -0.077509
v -0.092149 0.291690 -0.086438
v -0.091388 0.416932 -0.069629
v -0.093992 0.203840 -0.081012
v -0.092708 0.248282 -0.083968
v -0.093960 0.203723 -0.080995
v -0.091791 0.229474 -0.085612
v -0.092862 0.237445 -0.089152
v -0.090826 0.344036 -0.078741
v -0.090668 0.326689 -0.082361
v -0.090857 0.335398 -0.080654
v -0.090853 0.309091 -0.085142
v -0.091497 0.300369 -0.085906
v -0.090476 0.352645 -0.076861
v -0.090500 0.317864 -0.083948
v -0.093088 0.203905 -0.079664
v -0.090462 0.398200 -0.069139
v -0.090887 0.407704 -0.069445
v -0.089444 0.466294 -0.063954
v -0.092383 0.215709 -0.083241
v -0.092565 0.203989 -0.076876
v -0.092690 0.230159 -0.081712
v -0.092173 0.222298 -0.079888
v -0.090166 0.222894 -0.079994
v -0.092535 0.203860 -0.076877
v -0.089922 0.370032 -0.072480
v -0.090188 0.361279 -0.074861
v -0.091103 0.454722 -0.064664
v -0.088934 0.455535 -0.065388
v -0.090381 0.281617 -0.099807
v -0.090976 0.264110 -0.096246
v -0.090793 0.272860 -0.098172
v -0.092082 0.239221 -0.082994
v -0.090590 0.230588 -0.082006
v -0.091334 0.445075 -0.067079
v -0.089598 0.435885 -0.068847
v -0.089962 0.290391 -0.101208
v -0.091783 0.457190 -0.072629
v -0.090269 0.447298 -0.075752
v -0.091840 0.221716 -0.083736
v -0.092316 0.211626 -0.077612
v -0.090508 0.204510 -0.077479
v -0.089859 0.216402 -0.083478
v -0.091931 0.216308 -0.078762
v -0.089896 0.216931 -0.079162
v -0.091940 0.203840 -0.078375
v -0.091814 0.204440 -0.081631
v -0.091783 0.204324 -0.081614
v -0.090360 0.212239 -0.078318
v -0.089761 0.379122 -0.070546
v -0.090092 0.388554 -0.069620
v -0.090196 0.466971 -0.065912
v -0.090933 0.255439 -0.094125
v -0.088571 0.445726 -0.067401
v -0.088929 0.308757 -0.104007
v -0.089450 0.299361 -0.102785
v -0.091121 0.211524 -0.082967
v -0.089330 0.205131 -0.082101
v -0.090343 0.238003 -0.088753
v -0.090812 0.246730 -0.091683
v -0.088687 0.318375 -0.104639
v -0.090728 0.204582 -0.080436
v -0.090182 0.265703 -0.086465
v -0.090270 0.257118 -0.085732
v -0.089987 0.274284 -0.087055
v -0.088239 0.337607 -0.104735
v -0.088452 0.327915 -0.104895
v -0.088433 0.426305 -0.069484
v -0.088178 0.347345 -0.104057
v -0.088151 0.356919 -0.102916
v -0.089825 0.239487 -0.083564
v -0.090278 0.248435 -0.084674
v -0.089024 0.291454 -0.087219
v -0.089599 0.282834 -0.087313
v -0.088268 0.223466 -0.080080
v -0.087645 0.375554 -0.099853
v -0.087958 0.366301 -0.101628
v -0.090476 0.204381 -0.077477
v -0.089114 0.437877 -0.078367
v -0.087102 0.456432 -0.066569
v -0.088348 0.205061 -0.077973
v -0.087165 0.384833 -0.097848
v -0.087870 0.217599 -0.079410
v -0.089458 0.457512 -0.071696
v -0.087454 0.457603 -0.070327
v -0.088534 0.231143 -0.081686
v -0.089606 0.204438 -0.079077
v -0.088285 0.212918 -0.078747
v -0.089539 0.222416 -0.083906
v -0.089298 0.205016 -0.082086
v -0.087168 0.420276 -0.084782
v -0.088128 0.428622 -0.081067
v -0.089460 0.230133 -0.085119
v -0.087354 0.223053 -0.083925
v -0.086948 0.402973 -0.091691
v -0.087017 0.394010 -0.094945
v -0.088333 0.300184 -0.086782
v -0.087015 0.411651 -0.088150
v -0.087195 0.407383 -0.069172
v -0.087724 0.416906 -0.069448
v -0.086669 0.436329 -0.069184
v -0.088494 0.212339 -0.083198
v -0.086219 0.446378 -0.068227
v -0.088467 0.255790 -0.093222
v -0.087912 0.273086 -0.096554
v -0.088251 0.264388 -0.094972
v -0.087054 0.317826 -0.085254
v -0.087592 0.308954 -0.086195
v -0.086982 0.335741 -0.082243
v -0.086885 0.326860 -0.083710
v -0.086598 0.352938 -0.078848
v -0.086832 0.344333 -0.080576
v -0.088496 0.247220 -0.090937
v -0.087394 0.281777 -0.097999
v -0.088114 0.205331 -0.081078
v -0.088311 0.204931 -0.077967
v -0.086452 0.388347 -0.070467
v -0.086710 0.397803 -0.069291
v -0.087300 0.230707 -0.084671
v -0.088072 0.238634 -0.088085
v -0.088069 0.248570 -0.085280
v -0.087760 0.239793 -0.083833
v -0.087730 0.265621 -0.087140
v -0.087918 0.257115 -0.086332
v -0.087572 0.447648 -0.074962
v -0.086091 0.437942 -0.077386
v -0.086406 0.361449 -0.076612
v -0.086170 0.379090 -0.071904
v -0.087391 0.274143 -0.087728
v -0.086092 0.299480 -0.100686
v -0.086660 0.290542 -0.099325
v -0.086228 0.370086 -0.073958
v -0.087453 0.217184 -0.083547
v -0.085870 0.213096 -0.083184
v -0.087088 0.205102 -0.079678
v -0.086852 0.282643 -0.087999
v -0.085469 0.308774 -0.101919
v -0.086248 0.457298 -0.068438
v -0.086515 0.205883 -0.082400
v -0.086479 0.205767 -0.082385
v -0.085458 0.300083 -0.087701
v -0.086250 0.291272 -0.087988
v -0.084914 0.327797 -0.102753
v -0.085180 0.318288 -0.102398
v -0.086433 0.224024 -0.080093
v -0.086569 0.231724 -0.081352
v -0.084642 0.224564 -0.080065
v -0.086374 0.247658 -0.090192
v -0.086112 0.264649 -0.093522
v -0.086306 0.256113 -0.092191
v -0.084628 0.337462 -0.102870
v -0.084411 0.416885 -0.069692
v -0.085286 0.426622 -0.069787
v -0.086094 0.205647 -0.078388
v -0.086054 0.205516 -0.078381
v -0.086150 0.213588 -0.078971
v -0.083610 0.206366 -0.078417
v -0.085999 0.218266 -0.079489
v -0.084296 0.218844 -0.079462
v -0.085804 0.273298 -0.094828
v -0.084572 0.347207 -0.102199
v -0.084421 0.366011 -0.099347
v -0.084545 0.356740 -0.100939
v -0.085063 0.428352 -0.079279
v -0.085200 0.206096 -0.081428
v -0.086143 0.239192 -0.087323
v -0.085940 0.248679 -0.085888
v -0.084081 0.375185 -0.097585
v -0.085687 0.257084 -0.086858
v -0.084055 0.214218 -0.078983
v -0.084860 0.232255 -0.081060
v -0.085757 0.240205 -0.083736
v -0.085154 0.273972 -0.088634
v -0.085486 0.265532 -0.087820
v -0.084626 0.308942 -0.087359
v -0.085494 0.447733 -0.073503
v -0.085264 0.217834 -0.083463
v -0.084067 0.447617 -0.071710
v -0.084634 0.290737 -0.096898
v -0.085251 0.281943 -0.096003
v -0.085376 0.223654 -0.083844
v -0.083264 0.218437 -0.083270
v -0.085377 0.231275 -0.084456
v -0.083591 0.224231 -0.083681
v -0.083431 0.397660 -0.070819
v -0.083931 0.407197 -0.069831
v -0.083625 0.393275 -0.092418
v -0.083795 0.384282 -0.095357
v -0.083715 0.410578 -0.085654
v -0.084147 0.419205 -0.082175
v -0.084429 0.447027 -0.069512
v -0.084288 0.205842 -0.079908
v -0.083877 0.327233 -0.085752
v -0.084138 0.317970 -0.086830
v -0.083676 0.402063 -0.089040
v -0.084034 0.336273 -0.084831
v -0.084477 0.282469 -0.089051
v -0.083842 0.344939 -0.083470
v -0.083593 0.388439 -0.072688
v -0.083918 0.299739 -0.097834
v -0.084037 0.436780 -0.069853
v -0.082522 0.426882 -0.070352
v -0.083708 0.362125 -0.079546
v -0.083783 0.353600 -0.081781
v -0.082922 0.225094 -0.080013
v -0.083734 0.206584 -0.082315
v -0.083695 0.206467 -0.082300
v -0.082643 0.219458 -0.079409
v -0.084851 0.256501 -0.090477
v -0.085092 0.239795 -0.086113
v -0.084642 0.248123 -0.088919
v -0.084920 0.264972 -0.091585
v -0.083896 0.291169 -0.089227
v -0.083665 0.370717 -0.076906
v -0.082040 0.437336 -0.071401
v -0.083390 0.379420 -0.074527
v -0.081299 0.207035 -0.078349
v -0.083564 0.206235 -0.078407
v -0.083670 0.437830 -0.075799
v -0.082695 0.427965 -0.077564
v -0.082329 0.214988 -0.078954
v -0.084579 0.240255 -0.084473
v -0.084445 0.256863 -0.088396
v -0.084463 0.248585 -0.086893
v -0.083541 0.213876 -0.083021
v -0.080982 0.207269 -0.082145
v -0.083951 0.282141 -0.093685
v -0.084511 0.273541 -0.092761
v -0.083703 0.232290 -0.082289
v -0.084303 0.265290 -0.089561
v -0.082786 0.318289 -0.099263
v -0.083252 0.308876 -0.098697
v -0.082409 0.309003 -0.089402
v -0.083163 0.300040 -0.089303
v -0.083947 0.231857 -0.083893
v -0.083566 0.290933 -0.094254
v -0.082369 0.206815 -0.081456
v -0.082496 0.327846 -0.099731
v -0.083408 0.282306 -0.091171
v -0.084000 0.273758 -0.090536
v -0.082405 0.337386 -0.099797
v -0.082421 0.356368 -0.097647
v -0.082460 0.346983 -0.099074
v -0.082416 0.365547 -0.095848
v -0.081805 0.407240 -0.072163
v -0.081659 0.416866 -0.070881
v -0.081609 0.206566 -0.079937
v -0.082196 0.318223 -0.089348
v -0.082451 0.418257 -0.079462
v -0.082226 0.383310 -0.091484
v -0.082281 0.374512 -0.093858
v -0.082184 0.437679 -0.073747
v -0.082463 0.336804 -0.088367
v -0.082314 0.224823 -0.082582
v -0.081722 0.397897 -0.073901
v -0.082943 0.299902 -0.094835
v -0.082339 0.308970 -0.095390
v -0.083033 0.291087 -0.091595
v -0.082075 0.327626 -0.088849
v -0.082566 0.345707 -0.087322
v -0.082124 0.392003 -0.088583
v -0.082664 0.354480 -0.085655
v -0.080936 0.207149 -0.082129
v -0.081833 0.225274 -0.080986
v -0.082686 0.371686 -0.080745
v -0.082639 0.363157 -0.083367
v -0.082153 0.400541 -0.085233
v -0.082062 0.409177 -0.082089
v -0.081249 0.206905 -0.078337
v -0.081697 0.219082 -0.082746
v -0.080692 0.219728 -0.081531
v -0.082421 0.380148 -0.078377
v -0.082185 0.388913 -0.076118
v -0.082425 0.299983 -0.091989
v -0.081464 0.214548 -0.082705
v -0.080067 0.215213 -0.081704
v -0.081846 0.318348 -0.095793
v -0.081869 0.309008 -0.092308
v -0.081010 0.220103 -0.079366
v -0.080032 0.220306 -0.080198
v -0.081669 0.327930 -0.096025
v -0.082368 0.364126 -0.087566
v -0.082541 0.372676 -0.085103
v -0.082509 0.381076 -0.082568
v -0.081524 0.417562 -0.076507
v -0.081072 0.427507 -0.075142
v -0.082169 0.355249 -0.089734
v -0.081972 0.346296 -0.091342
v -0.080816 0.215697 -0.078846
v -0.079259 0.216486 -0.078747
v -0.082193 0.373648 -0.089501
v -0.082089 0.364926 -0.091811
v -0.080850 0.427179 -0.072473
v -0.081053 0.417067 -0.073661
v -0.082279 0.382146 -0.087004
v -0.082206 0.390650 -0.084195
v -0.082255 0.389666 -0.080004
v -0.081585 0.327840 -0.092405
v -0.081801 0.337170 -0.092149
v -0.081713 0.346695 -0.095314
v -0.081813 0.355883 -0.093821
v -0.081588 0.318333 -0.092485
v -0.081636 0.337370 -0.095987
v -0.079669 0.207420 -0.081203
v -0.079224 0.207684 -0.077817
v -0.077554 0.208220 -0.077305
v -0.081832 0.398460 -0.077451
v -0.082111 0.399277 -0.081298
v -0.081784 0.408221 -0.078634
v -0.081503 0.407562 -0.075273
v -0.079120 0.207203 -0.079536
v -0.078818 0.207758 -0.081562
v -0.077090 0.208137 -0.081039
v -0.079168 0.207552 -0.077797
v -0.078408 0.216702 -0.079402
v -0.078770 0.207635 -0.081542
v -0.076129 0.208627 -0.076844
v -0.079092 0.215962 -0.080539
v -0.077531 0.207876 -0.080639
v -0.077495 0.208085 -0.077277
v -0.077118 0.207747 -0.079005
v -0.075848 0.208351 -0.080153
v -0.077037 0.208009 -0.081027
v -0.075504 0.208304 -0.078553
v -0.076072 0.208485 -0.076810
v -0.075789 0.208213 -0.080146
v -0.075452 0.208152 -0.078538
usemtl Lateral_head_of_gastrocnemius_rMaterial0
f 1 2 3
f 2 4 3
f 1 3 5
f 6 3 4
f 6 5 3
f 1 7 2
f 8 2 7
f 2 9 4
f 2 10 9
f 8 11 2
f 2 11 10
f 12 7 1
f 8 7 12
f 1 5 13
f 14 1 13
f 12 1 15
f 14 15 1
f 16 4 9
f 6 4 16
f 17 13 5
f 17 5 6
f 16 9 18
f 10 18 9
f 14 13 19
f 17 19 13
f 12 15 20
f 20 15 14
f 8 12 21
f 12 20 22
f 12 22 23
f 12 23 21
f 6 16 24
f 6 24 25
f 17 6 26
f 6 25 26
f 27 11 8
f 8 21 28
f 27 8 29
f 8 28 29
f 27 10 11
f 16 30 24
f 16 18 31
f 16 32 30
f 16 31 32
f 20 14 33
f 14 19 34
f 35 33 14
f 35 14 34
f 36 25 24
f 36 24 30
f 10 37 18
f 31 18 37
f 20 38 22
f 39 23 22
f 39 22 38
f 20 33 40
f 20 41 38
f 20 40 41
f 10 42 37
f 27 43 10
f 10 43 42
f 44 21 23
f 44 28 21
f 17 26 45
f 46 19 17
f 17 45 47
f 46 17 47
f 48 26 25
f 48 45 26
f 46 34 19
f 49 30 32
f 31 50 32
f 49 32 50
f 40 33 35
f 31 37 51
f 42 51 37
f 44 23 39
f 36 48 25
f 49 36 30
f 31 51 52
f 31 53 50
f 31 52 53
f 35 34 54
f 46 54 34
f 27 29 55
f 56 43 27
f 27 55 57
f 56 27 57
f 58 29 28
f 58 55 29
f 59 38 41
f 39 38 59
f 40 60 41
f 59 41 60
f 49 61 36
f 36 61 62
f 36 63 48
f 36 62 63
f 56 42 43
f 42 64 51
f 52 51 64
f 58 28 44
f 65 49 50
f 65 50 53
f 49 66 61
f 65 67 49
f 49 67 66
f 40 35 68
f 35 54 69
f 70 68 35
f 70 35 69
f 44 39 71
f 39 59 72
f 39 72 73
f 39 73 71
f 74 47 45
f 46 47 75
f 74 75 47
f 48 74 45
f 52 76 53
f 65 53 76
f 42 77 64
f 56 78 42
f 42 78 77
f 40 79 60
f 40 68 80
f 40 80 79
f 81 54 46
f 46 75 82
f 81 46 82
f 83 61 66
f 83 62 61
f 48 63 84
f 48 85 74
f 48 84 85
f 44 71 86
f 58 44 87
f 44 86 87
f 52 64 88
f 52 89 76
f 52 88 90
f 52 90 89
f 77 88 64
f 59 60 91
f 59 92 72
f 59 93 92
f 59 91 93
f 81 69 54
f 94 63 62
f 94 84 63
f 65 95 67
f 96 66 67
f 96 67 95
f 97 65 76
f 65 98 95
f 97 98 65
f 91 60 79
f 99 57 55
f 99 55 58
f 56 57 100
f 99 100 57
f 97 76 89
f 101 73 72
f 101 72 92
f 80 68 70
f 96 83 66
f 102 71 73
f 102 86 71
f 103 78 56
f 56 100 104
f 103 56 104
f 77 105 88
f 90 88 105
f 58 87 106
f 99 58 107
f 58 106 107
f 83 94 62
f 97 89 108
f 90 108 89
f 70 69 109
f 81 109 69
f 80 110 79
f 91 79 110
f 103 77 78
f 111 95 98
f 111 96 95
f 97 112 98
f 111 98 112
f 96 113 83
f 111 114 96
f 96 114 115
f 96 115 113
f 116 87 86
f 116 106 87
f 97 117 112
f 118 97 108
f 118 117 97
f 77 119 105
f 103 120 77
f 77 120 119
f 83 113 121
f 83 122 94
f 83 121 122
f 101 102 73
f 123 100 99
f 123 104 100
f 124 92 93
f 91 125 93
f 124 93 125
f 90 126 108
f 90 105 127
f 90 128 126
f 90 127 128
f 99 107 129
f 123 99 130
f 99 129 130
f 131 111 112
f 111 132 114
f 131 133 111
f 111 133 132
f 124 101 92
f 80 70 134
f 135 134 70
f 70 109 136
f 135 70 136
f 103 104 137
f 123 137 104
f 131 112 117
f 80 138 110
f 80 134 139
f 80 139 138
f 118 108 126
f 102 116 86
f 91 110 140
f 91 141 125
f 91 140 141
f 142 114 132
f 142 115 114
f 143 107 106
f 143 129 107
f 74 144 75
f 74 85 145
f 74 145 146
f 74 146 144
f 119 127 105
f 144 82 75
f 147 120 103
f 103 137 148
f 147 103 148
f 149 113 115
f 149 121 113
f 131 117 150
f 118 150 117
f 151 85 84
f 151 145 85
f 81 82 152
f 144 152 82
f 131 153 133
f 154 132 133
f 154 133 153
f 155 131 150
f 131 156 153
f 155 156 131
f 94 151 84
f 147 119 120
f 140 110 138
f 116 143 106
f 157 109 81
f 81 152 158
f 157 81 158
f 118 126 159
f 118 160 150
f 161 160 118
f 161 118 159
f 128 159 126
f 101 162 102
f 124 163 101
f 101 164 162
f 101 163 164
f 165 132 154
f 165 142 132
f 102 166 116
f 102 162 167
f 102 167 166
f 155 150 160
f 168 115 142
f 168 149 115
f 169 137 123
f 123 130 170
f 169 123 171
f 123 170 171
f 94 122 172
f 94 173 151
f 94 172 173
f 119 174 127
f 128 127 174
f 139 134 135
f 169 148 137
f 175 130 129
f 175 170 130
f 157 136 109
f 147 176 119
f 119 177 174
f 119 176 177
f 178 153 156
f 179 154 153
f 179 153 178
f 155 180 156
f 178 156 180
f 181 124 125
f 181 125 141
f 116 182 143
f 116 166 183
f 116 183 182
f 155 160 184
f 161 184 160
f 124 185 163
f 181 186 124
f 124 186 185
f 187 122 121
f 187 172 122
f 140 138 188
f 139 188 138
f 147 148 189
f 169 189 148
f 155 190 180
f 191 155 184
f 191 190 155
f 165 154 179
f 143 175 129
f 128 192 159
f 161 159 192
f 168 142 165
f 140 193 141
f 181 141 193
f 194 176 147
f 147 189 195
f 194 147 195
f 196 178 180
f 197 180 190
f 196 180 197
f 135 136 198
f 157 198 136
f 191 184 199
f 161 199 184
f 179 178 196
f 191 200 190
f 197 190 200
f 201 121 149
f 201 187 121
f 202 167 162
f 202 162 164
f 128 174 203
f 128 204 192
f 128 203 204
f 143 182 205
f 143 206 175
f 143 205 206
f 177 203 174
f 165 179 207
f 179 196 208
f 179 208 209
f 179 209 207
f 210 166 167
f 210 183 166
f 140 188 211
f 140 212 193
f 140 211 212
f 191 213 200
f 214 213 191
f 191 199 215
f 214 191 215
f 165 207 216
f 168 165 217
f 165 216 217
f 218 164 163
f 218 163 185
f 219 199 161
f 161 192 220
f 219 161 220
f 194 177 176
f 221 197 200
f 196 197 221
f 222 200 213
f 221 200 222
f 196 223 208
f 196 221 224
f 196 224 223
f 139 135 225
f 139 226 188
f 139 225 227
f 139 227 226
f 201 149 168
f 169 171 228
f 229 171 170
f 229 228 171
f 230 189 169
f 169 228 231
f 230 169 231
f 232 225 135
f 135 198 233
f 232 135 233
f 222 213 234
f 214 234 213
f 235 182 183
f 235 205 182
f 236 209 208
f 236 208 223
f 175 229 170
f 219 215 199
f 237 207 209
f 237 216 207
f 230 195 189
f 211 188 226
f 204 220 192
f 181 238 186
f 239 181 193
f 181 240 238
f 239 240 181
f 241 185 186
f 241 186 238
f 221 222 242
f 221 243 224
f 221 242 244
f 221 244 243
f 242 222 234
f 168 217 245
f 201 168 246
f 168 245 246
f 247 223 224
f 247 224 243
f 194 195 248
f 230 248 195
f 177 249 203
f 204 203 249
f 175 206 250
f 175 251 229
f 175 250 251
f 239 193 212
f 194 252 177
f 177 253 249
f 177 252 253
f 254 167 202
f 254 210 167
f 214 215 255
f 219 255 215
f 242 234 256
f 256 234 257
f 214 257 234
f 258 202 164
f 258 164 218
f 237 209 236
f 236 223 247
f 204 259 220
f 219 220 259
f 260 183 210
f 260 235 183
f 261 217 216
f 261 245 217
f 262 252 194
f 194 248 263
f 262 194 263
f 211 264 212
f 239 212 264
f 265 206 205
f 265 250 206
f 242 266 244
f 242 256 267
f 242 267 268
f 242 268 266
f 227 225 232
f 269 146 145
f 144 146 270
f 269 270 146
f 211 226 271
f 227 271 226
f 151 269 145
f 272 243 244
f 272 244 266
f 267 256 273
f 256 257 273
f 151 173 274
f 151 274 275
f 151 275 269
f 276 257 214
f 214 255 277
f 276 214 277
f 144 278 152
f 144 270 279
f 144 279 278
f 280 218 185
f 280 185 241
f 281 173 172
f 281 274 173
f 247 243 272
f 204 249 282
f 204 283 259
f 204 282 283
f 278 158 152
f 284 255 219
f 219 259 285
f 284 219 285
f 236 247 286
f 237 236 287
f 236 286 288
f 236 288 287
f 261 216 237
f 289 172 187
f 289 281 172
f 267 290 268
f 267 291 290
f 267 292 291
f 267 273 293
f 267 293 292
f 157 158 294
f 278 294 158
f 295 266 268
f 295 268 290
f 276 273 257
f 253 282 249
f 211 296 264
f 211 271 297
f 211 297 296
f 298 198 157
f 157 294 299
f 298 157 299
f 300 205 235
f 300 265 205
f 247 272 301
f 247 302 286
f 247 301 302
f 303 290 291
f 303 291 304
f 305 291 292
f 305 304 291
f 284 277 255
f 272 266 295
f 262 253 252
f 258 254 202
f 306 293 273
f 276 307 273
f 306 273 307
f 289 187 201
f 308 238 240
f 239 309 240
f 308 240 309
f 295 290 303
f 237 287 310
f 261 237 311
f 237 310 311
f 254 260 210
f 298 233 198
f 312 292 293
f 312 293 306
f 283 285 259
f 295 303 313
f 303 304 314
f 303 315 313
f 303 316 315
f 303 314 316
f 317 241 238
f 317 238 308
f 318 239 264
f 239 319 309
f 318 319 239
f 272 295 320
f 272 321 301
f 272 320 321
f 280 258 218
f 295 313 322
f 295 322 320
f 276 277 323
f 284 323 277
f 305 292 312
f 314 304 305
f 227 324 271
f 227 232 325
f 227 326 324
f 227 325 326
f 286 302 327
f 286 327 288
f 313 315 328
f 313 328 322
f 329 307 276
f 276 323 330
f 329 276 330
f 201 246 331
f 289 201 332
f 201 331 332
f 306 307 329
f 260 300 235
f 284 285 333
f 283 333 285
f 316 334 315
f 314 335 316
f 316 335 334
f 318 264 296
f 297 271 324
f 232 233 336
f 298 336 233
f 301 321 337
f 301 337 302
f 287 288 338
f 287 338 310
f 320 322 339
f 320 339 321
f 253 340 282
f 283 282 340
f 312 306 341
f 306 329 341
f 305 312 342
f 314 305 343
f 305 342 344
f 305 344 343
f 345 328 315
f 345 315 334
f 346 231 228
f 229 346 228
f 347 322 328
f 347 339 322
f 230 231 348
f 346 348 231
f 229 251 349
f 229 350 346
f 229 349 350
f 351 323 284
f 284 333 352
f 351 284 352
f 317 280 241
f 353 248 230
f 230 348 354
f 353 230 354
f 312 355 342
f 312 341 356
f 312 356 355
f 253 357 340
f 262 358 253
f 253 358 357
f 359 246 245
f 359 331 246
f 314 343 360
f 314 361 335
f 314 360 361
f 347 328 345
f 362 321 339
f 362 337 321
f 258 363 254
f 254 364 260
f 254 363 365
f 254 365 364
f 366 251 250
f 366 349 251
f 297 367 296
f 318 296 367
f 353 263 248
f 351 330 323
f 329 330 368
f 351 368 330
f 329 369 341
f 329 368 370
f 329 370 369
f 371 302 337
f 371 327 302
f 280 372 258
f 258 373 363
f 258 372 373
f 362 339 347
f 374 342 355
f 374 344 342
f 375 308 309
f 376 309 319
f 375 309 376
f 377 325 232
f 232 336 378
f 377 232 378
f 379 356 341
f 379 341 369
f 359 245 261
f 283 380 333
f 283 340 381
f 283 381 380
f 382 288 327
f 382 338 288
f 260 364 383
f 260 384 300
f 260 383 384
f 362 347 385
f 347 386 385
f 347 345 387
f 347 387 386
f 388 250 265
f 388 366 250
f 375 317 308
f 318 389 319
f 376 319 389
f 262 263 390
f 353 390 263
f 391 343 344
f 391 360 343
f 297 324 392
f 326 392 324
f 393 355 356
f 393 356 379
f 261 311 394
f 359 261 395
f 261 394 395
f 317 396 280
f 280 397 372
f 280 396 397
f 371 337 362
f 380 352 333
f 362 385 398
f 362 398 399
f 371 362 399
f 297 400 367
f 297 392 401
f 297 401 400
f 300 388 265
f 402 398 385
f 402 385 386
f 374 355 393
f 311 310 403
f 311 403 394
f 404 318 367
f 318 405 389
f 404 405 318
f 406 370 368
f 407 369 370
f 407 370 408
f 406 408 370
f 409 334 335
f 345 334 409
f 357 381 340
f 361 410 335
f 409 335 410
f 351 352 411
f 380 411 352
f 391 344 374
f 345 412 387
f 345 413 412
f 345 409 413
f 406 368 351
f 382 327 371
f 379 369 407
f 326 325 377
f 414 358 262
f 262 390 415
f 414 262 415
f 406 351 416
f 351 411 416
f 417 365 363
f 417 363 373
f 418 386 387
f 418 387 412
f 375 419 317
f 317 420 396
f 317 419 420
f 421 364 365
f 421 383 364
f 422 310 338
f 422 403 310
f 393 379 423
f 379 407 423
f 424 399 398
f 402 424 398
f 418 402 386
f 300 384 425
f 300 426 388
f 300 425 426
f 404 367 400
f 427 373 372
f 427 372 397
f 428 376 389
f 428 375 376
f 361 360 429
f 361 430 410
f 361 429 430
f 374 393 431
f 374 431 432
f 391 374 433
f 374 432 433
f 371 399 434
f 424 434 399
f 371 434 435
f 382 371 435
f 393 423 436
f 431 393 436
f 437 389 405
f 428 389 437
f 407 408 438
f 438 408 406
f 402 439 424
f 402 440 439
f 418 441 402
f 402 441 440
f 326 442 392
f 401 392 442
f 375 443 419
f 428 444 375
f 375 444 443
f 380 381 445
f 357 445 381
f 422 338 382
f 407 446 423
f 407 438 447
f 407 447 446
f 448 397 396
f 448 396 420
f 449 360 391
f 449 429 360
f 450 274 281
f 451 275 274
f 450 451 274
f 450 281 289
f 424 439 452
f 424 453 434
f 424 452 454
f 424 454 453
f 269 275 455
f 451 455 275
f 269 456 270
f 456 279 270
f 269 457 456
f 269 455 457
f 414 357 358
f 278 279 458
f 456 458 279
f 404 400 459
f 401 459 400
f 326 460 442
f 326 377 461
f 326 461 460
f 462 384 383
f 462 425 384
f 463 436 423
f 463 423 446
f 431 436 464
f 431 464 465
f 431 465 432
f 406 416 466
f 438 406 467
f 406 466 467
f 437 405 468
f 404 468 405
f 278 469 294
f 278 458 470
f 278 470 469
f 289 332 471
f 450 289 472
f 289 471 472
f 380 473 411
f 380 445 474
f 380 474 473
f 452 439 440
f 469 299 294
f 298 299 475
f 469 475 299
f 417 421 365
f 473 416 411
f 427 417 373
f 476 336 298
f 476 298 477
f 298 475 477
f 449 391 433
f 478 412 413
f 409 479 413
f 478 413 479
f 478 418 412
f 473 466 416
f 480 420 419
f 480 419 443
f 463 464 436
f 418 481 441
f 478 482 418
f 418 482 481
f 453 435 434
f 483 428 437
f 428 484 444
f 483 485 428
f 428 485 484
f 382 435 486
f 422 382 487
f 382 486 487
f 409 410 488
f 409 489 479
f 409 488 489
f 490 332 331
f 490 471 332
f 441 491 440
f 441 481 491
f 476 378 336
f 492 454 452
f 492 493 454
f 453 454 493
f 483 437 468
f 448 427 397
f 404 494 468
f 495 404 459
f 495 494 404
f 452 440 496
f 492 452 496
f 488 410 430
f 496 440 491
f 447 438 497
f 447 498 446
f 447 499 498
f 447 497 499
f 432 500 433
f 449 433 500
f 453 486 435
f 421 462 383
f 357 501 445
f 414 502 357
f 357 502 501
f 490 331 359
f 438 467 503
f 438 503 497
f 504 443 444
f 504 444 484
f 463 505 464
f 506 464 505
f 506 465 464
f 498 463 446
f 401 442 507
f 401 508 459
f 401 507 509
f 401 509 508
f 429 510 430
f 488 430 510
f 492 496 511
f 496 491 511
f 478 479 512
f 513 482 478
f 513 478 514
f 478 512 514
f 479 489 515
f 479 515 512
f 513 481 482
f 377 378 516
f 476 516 378
f 480 448 420
f 432 465 500
f 359 395 517
f 490 359 518
f 359 517 518
f 460 507 442
f 519 491 481
f 513 520 481
f 519 481 520
f 483 468 521
f 521 468 494
f 488 515 489
f 522 354 348
f 346 522 348
f 395 394 523
f 395 523 517
f 492 524 493
f 525 492 511
f 525 526 492
f 492 526 524
f 483 527 485
f 528 484 485
f 528 485 527
f 529 467 466
f 529 503 467
f 519 511 491
f 353 354 530
f 522 530 354
f 501 474 445
f 429 531 510
f 449 531 429
f 453 493 532
f 453 532 533
f 453 533 486
f 534 394 403
f 534 523 394
f 346 350 535
f 346 536 522
f 346 535 536
f 427 537 417
f 417 538 421
f 417 537 539
f 417 539 538
f 488 540 515
f 488 510 541
f 488 541 540
f 524 532 493
f 519 525 511
f 542 513 514
f 543 514 512
f 543 544 514
f 542 514 544
f 495 459 508
f 473 474 545
f 501 545 474
f 498 546 463
f 499 546 498
f 547 350 349
f 547 535 350
f 542 520 513
f 543 512 515
f 483 548 527
f 549 483 521
f 549 548 483
f 473 529 466
f 473 550 529
f 473 545 550
f 448 551 427
f 427 552 537
f 427 551 552
f 553 461 377
f 377 516 554
f 553 377 554
f 555 390 353
f 353 530 556
f 555 353 556
f 534 403 422
f 557 505 463
f 558 463 546
f 557 463 559
f 560 559 463
f 558 561 463
f 560 463 561
f 504 480 443
f 519 520 562
f 542 562 520
f 543 515 563
f 564 515 540
f 564 563 515
f 421 538 565
f 421 566 462
f 421 565 566
f 567 506 505
f 567 505 557
f 541 510 531
f 568 349 366
f 568 547 349
f 449 569 531
f 570 449 500
f 570 569 449
f 571 484 528
f 571 504 484
f 388 568 366
f 543 572 544
f 543 563 572
f 573 525 519
f 519 562 574
f 573 519 574
f 542 544 572
f 480 575 448
f 448 576 551
f 448 575 576
f 521 494 577
f 495 577 494
f 541 564 540
f 578 562 542
f 542 572 579
f 578 542 579
f 573 526 525
f 524 526 580
f 573 580 526
f 388 426 581
f 388 581 582
f 388 582 568
f 499 583 546
f 499 497 584
f 499 584 583
f 527 548 585
f 528 527 586
f 527 585 586
f 564 572 563
f 422 487 587
f 422 587 588
f 534 422 588
f 541 531 589
f 569 589 531
f 583 558 546
f 506 500 465
f 578 574 562
f 549 521 577
f 555 415 390
f 564 590 572
f 579 572 590
f 460 591 507
f 509 507 591
f 592 426 425
f 592 581 426
f 541 593 564
f 564 594 590
f 564 593 594
f 541 595 593
f 541 589 595
f 579 590 596
f 578 579 596
f 549 585 548
f 506 570 500
f 597 596 590
f 597 590 594
f 573 574 598
f 578 598 574
f 599 497 503
f 599 584 497
f 524 600 532
f 524 580 601
f 524 601 602
f 524 602 600
f 460 461 553
f 578 596 603
f 597 603 596
f 533 532 600
f 504 604 480
f 480 605 575
f 480 604 605
f 606 580 573
f 573 598 607
f 606 573 607
f 608 598 578
f 608 578 603
f 495 508 609
f 509 609 508
f 569 610 589
f 570 610 569
f 528 586 611
f 571 528 611
f 595 594 593
f 462 592 425
f 595 589 610
f 533 487 486
f 612 597 594
f 595 612 594
f 597 613 603
f 612 613 597
f 567 570 506
f 606 601 580
f 571 604 504
f 537 614 539
f 537 552 614
f 533 587 487
f 414 415 615
f 555 615 415
f 616 567 557
f 616 557 617
f 618 617 557
f 618 557 559
f 608 607 598
f 549 577 619
f 620 549 619
f 549 621 585
f 620 621 549
f 538 539 622
f 538 622 565
f 495 623 577
f 624 623 495
f 624 495 609
f 625 603 613
f 625 608 603
f 619 577 623
f 551 626 552
f 551 576 626
f 570 627 610
f 567 627 570
f 529 599 503
f 595 610 628
f 595 629 612
f 595 628 629
f 627 628 610
f 608 630 607
f 631 606 607
f 631 607 630
f 462 566 632
f 462 633 592
f 462 632 633
f 612 625 613
f 612 629 625
f 460 634 591
f 460 553 635
f 460 635 634
f 616 627 567
f 625 630 608
f 611 586 636
f 586 637 636
f 586 585 637
f 611 636 638
f 639 638 636
f 640 636 637
f 640 639 636
f 606 641 601
f 602 601 641
f 575 642 576
f 575 605 642
f 529 550 643
f 529 644 599
f 529 643 644
f 571 611 645
f 571 646 604
f 647 571 645
f 647 646 571
f 648 550 545
f 648 643 550
f 583 649 558
f 650 583 584
f 650 649 583
f 627 651 628
f 651 629 628
f 616 651 627
f 652 502 414
f 414 615 653
f 652 414 653
f 631 641 606
f 645 611 638
f 501 648 545
f 639 654 638
f 645 638 655
f 654 655 638
f 619 623 656
f 620 619 656
f 621 637 585
f 621 640 637
f 657 616 617
f 616 658 651
f 616 659 658
f 657 659 616
f 509 591 660
f 509 661 609
f 509 660 662
f 509 662 661
f 533 600 663
f 602 663 600
f 625 664 630
f 625 629 658
f 625 658 664
f 665 604 646
f 665 605 604
f 618 657 617
f 666 630 664
f 666 631 630
f 566 565 667
f 566 667 632
f 651 658 629
f 476 477 668
f 669 477 475
f 669 668 477
f 652 501 502
f 501 670 648
f 652 670 501
f 671 516 476
f 671 476 672
f 476 668 672
f 560 618 559
f 624 656 623
f 469 669 475
f 456 673 458
f 456 457 674
f 456 675 673
f 456 674 675
f 673 470 458
f 634 660 591
f 676 457 455
f 676 674 457
f 677 455 451
f 677 676 455
f 678 539 614
f 678 622 539
f 533 679 587
f 533 663 679
f 680 639 640
f 681 654 639
f 680 681 639
f 666 658 659
f 666 664 658
f 469 470 682
f 673 682 470
f 657 666 659
f 680 640 621
f 680 621 620
f 469 683 669
f 469 682 683
f 677 451 450
f 671 554 516
f 684 561 558
f 684 558 649
f 624 609 661
f 685 614 552
f 685 552 626
f 450 472 686
f 677 450 687
f 450 686 687
f 688 645 655
f 688 647 645
f 654 688 655
f 666 689 631
f 657 690 666
f 666 690 689
f 631 689 641
f 691 472 471
f 691 686 472
f 665 646 647
f 602 641 692
f 693 641 689
f 693 692 641
f 694 626 576
f 694 576 642
f 681 695 654
f 695 688 654
f 553 554 696
f 671 696 554
f 697 565 622
f 697 667 565
f 657 698 690
f 618 699 657
f 657 699 698
f 599 650 584
f 691 471 490
f 620 656 700
f 624 701 656
f 700 656 701
f 702 605 665
f 702 642 605
f 684 560 561
f 679 588 587
f 602 703 663
f 602 692 704
f 602 704 703
f 680 620 700
f 705 681 680
f 680 700 705
f 490 518 706
f 691 490 707
f 490 706 707
f 708 635 553
f 553 696 709
f 708 553 709
f 534 588 710
f 679 710 588
f 711 523 534
f 711 517 523
f 534 710 712
f 711 534 712
f 713 695 681
f 705 713 681
f 624 661 714
f 715 701 624
f 715 624 714
f 518 517 716
f 711 716 517
f 634 717 660
f 662 660 717
f 518 716 706
f 693 689 690
f 693 690 698
f 718 647 688
f 665 647 718
f 695 719 688
f 718 688 719
f 678 614 685
f 697 622 678
f 599 644 720
f 599 721 650
f 599 720 721
f 592 722 581
f 592 633 723
f 592 723 724
f 592 724 722
f 618 725 699
f 560 726 618
f 618 726 725
f 634 635 708
f 662 714 661
f 722 582 581
f 679 663 703
f 633 632 727
f 633 727 723
f 650 684 649
f 702 665 718
f 685 626 694
f 713 728 695
f 728 719 695
f 568 582 729
f 722 729 582
f 730 644 643
f 730 720 644
f 705 700 731
f 700 701 731
f 732 632 667
f 732 727 632
f 733 713 705
f 705 731 733
f 694 642 702
f 634 734 717
f 634 708 735
f 634 735 734
f 715 731 701
f 522 736 530
f 522 536 737
f 522 738 736
f 522 737 738
f 648 730 643
f 736 556 530
f 704 692 693
f 568 739 547
f 568 729 740
f 568 740 739
f 732 667 697
f 555 556 741
f 736 741 556
f 742 536 535
f 742 737 536
f 743 728 713
f 733 743 713
f 744 648 670
f 648 745 730
f 744 745 648
f 746 698 699
f 746 699 725
f 739 535 547
f 739 742 535
f 662 747 714
f 715 714 747
f 748 718 719
f 702 718 748
f 697 678 749
f 678 685 750
f 678 751 749
f 678 750 751
f 728 752 719
f 748 719 752
f 753 615 555
f 555 741 754
f 753 555 754
f 684 755 560
f 560 756 726
f 560 755 756
f 744 670 652
f 671 672 757
f 758 696 671
f 758 671 759
f 671 757 759
f 732 697 760
f 697 749 761
f 697 761 760
f 650 762 684
f 650 721 763
f 650 763 762
f 764 672 668
f 764 757 672
f 679 703 765
f 679 766 710
f 679 765 766
f 662 717 767
f 734 767 717
f 694 702 768
f 702 748 769
f 702 769 768
f 758 709 696
f 704 765 703
f 662 770 747
f 662 767 770
f 685 694 771
f 685 772 750
f 685 771 772
f 753 653 615
f 669 764 668
f 743 773 728
f 773 752 728
f 774 733 731
f 715 774 731
f 775 743 733
f 774 775 733
f 694 768 776
f 694 776 771
f 652 653 777
f 744 652 778
f 652 777 778
f 746 693 698
f 704 693 779
f 746 779 693
f 708 709 780
f 758 780 709
f 753 777 653
f 684 762 781
f 684 781 755
f 669 683 782
f 669 783 764
f 669 782 783
f 715 747 784
f 785 774 715
f 785 715 784
f 786 735 708
f 708 780 787
f 786 708 787
f 766 712 710
f 788 683 682
f 788 782 683
f 673 788 682
f 789 773 743
f 775 789 743
f 724 723 790
f 791 723 727
f 791 790 723
f 722 724 792
f 724 790 792
f 673 675 793
f 673 794 788
f 673 793 794
f 795 721 720
f 795 763 721
f 791 727 732
f 734 735 786
f 796 675 674
f 796 793 675
f 797 674 676
f 797 796 674
f 797 676 677
f 732 760 798
f 791 732 799
f 732 798 799
f 722 800 729
f 722 792 801
f 722 801 800
f 802 761 749
f 802 749 751
f 677 687 803
f 797 677 804
f 677 803 804
f 748 752 805
f 748 805 769
f 773 805 752
f 711 712 806
f 766 806 712
f 807 725 726
f 807 726 756
f 770 784 747
f 808 768 769
f 808 776 768
f 809 687 686
f 809 803 687
f 810 751 750
f 810 750 772
f 704 811 765
f 704 779 812
f 704 812 811
f 800 740 729
f 813 760 761
f 813 798 760
f 730 795 720
f 789 814 773
f 814 805 773
f 815 771 776
f 815 772 771
f 734 816 767
f 770 767 816
f 817 775 774
f 817 774 785
f 818 716 711
f 711 806 819
f 818 711 819
f 817 789 775
f 734 786 820
f 734 821 816
f 734 820 821
f 809 686 691
f 766 765 811
f 691 707 822
f 809 691 823
f 691 822 823
f 818 706 716
f 739 740 824
f 800 824 740
f 707 706 825
f 707 825 822
f 818 825 706
f 826 730 745
f 730 827 795
f 826 827 730
f 828 762 763
f 828 781 762
f 770 829 784
f 785 784 829
f 830 756 755
f 830 755 781
f 831 780 758
f 758 759 832
f 831 758 833
f 758 832 833
f 831 787 780
f 826 745 744
f 739 834 742
f 739 824 835
f 739 835 834
f 736 738 836
f 837 738 737
f 837 836 738
f 736 838 741
f 736 836 839
f 736 839 838
f 786 787 840
f 831 840 787
f 841 759 757
f 841 832 759
f 842 814 789
f 817 842 789
f 807 746 725
f 834 737 742
f 834 837 737
f 813 761 802
f 843 769 805
f 843 808 769
f 814 843 805
f 838 754 741
f 744 778 844
f 826 744 845
f 744 844 845
f 764 841 757
f 815 776 808
f 846 820 786
f 786 840 847
f 846 786 847
f 791 799 848
f 849 799 798
f 849 848 799
f 850 790 791
f 791 848 851
f 850 791 851
f 766 811 852
f 766 853 806
f 766 852 853
f 850 792 790
f 753 754 854
f 838 854 754
f 812 779 746
f 802 751 810
f 855 778 777
f 855 844 778
f 801 792 856
f 850 856 792
f 764 783 857
f 764 858 841
f 764 857 858
f 855 777 753
f 753 854 859
f 855 753 859
f 810 772 815
f 770 816 860
f 770 861 829
f 770 860 861
f 849 798 813
f 862 843 814
f 842 862 814
f 800 801 863
f 801 856 863
f 795 828 763
f 821 860 816
f 821 820 846
f 864 783 782
f 864 857 783
f 812 852 811
f 812 746 865
f 807 865 746
f 817 785 866
f 785 829 866
f 867 842 817
f 817 866 867
f 853 819 806
f 800 868 824
f 800 863 869
f 800 869 868
f 788 864 782
f 830 807 756
f 788 794 870
f 788 871 864
f 788 870 871
f 828 830 781
f 813 802 872
f 849 813 873
f 813 874 873
f 813 872 874
f 861 866 829
f 875 840 831
f 875 847 840
f 831 833 876
f 875 831 877
f 831 876 877
f 878 794 793
f 878 870 794
f 879 795 827
f 795 880 828
f 879 880 795
f 881 808 843
f 815 808 881
f 868 835 824
f 862 882 843
f 881 843 882
f 810 815 883
f 815 884 883
f 815 881 884
f 802 810 885
f 802 886 872
f 802 885 886
f 887 833 832
f 887 876 833
f 888 793 796
f 888 878 793
f 888 796 797
f 797 804 889
f 888 797 890
f 797 889 890
f 818 819 891
f 853 891 819
f 892 862 842
f 867 892 842
f 846 847 893
f 875 893 847
f 894 851 848
f 894 848 849
f 895 804 803
f 895 889 804
f 850 851 896
f 894 896 851
f 841 887 832
f 810 883 897
f 810 897 885
f 849 873 898
f 894 849 899
f 849 898 899
f 900 856 850
f 850 896 901
f 900 850 901
f 879 827 826
f 895 803 809
f 834 835 902
f 868 902 835
f 812 903 852
f 853 852 903
f 821 904 860
f 861 860 904
f 812 865 905
f 812 905 903
f 900 863 856
f 841 858 906
f 841 907 887
f 841 906 907
f 821 846 908
f 821 908 909
f 821 909 904
f 846 893 910
f 911 908 846
f 911 846 910
f 826 845 912
f 879 826 913
f 826 912 913
f 809 823 914
f 895 809 915
f 809 914 915
f 916 825 818
f 818 891 917
f 916 818 917
f 905 865 807
f 830 918 807
f 905 807 918
f 919 882 862
f 892 919 862
f 834 920 837
f 834 902 921
f 834 921 920
f 823 822 922
f 823 922 914
f 916 822 825
f 920 836 837
f 923 839 836
f 920 923 836
f 916 922 822
f 869 863 924
f 900 924 863
f 838 839 925
f 923 925 839
f 926 845 844
f 926 912 845
f 927 858 857
f 927 906 858
f 828 928 830
f 929 828 880
f 929 928 828
f 838 930 854
f 838 925 931
f 838 931 930
f 932 898 873
f 932 873 874
f 933 867 866
f 861 933 866
f 934 892 867
f 933 934 867
f 926 844 855
f 935 874 872
f 935 872 886
f 930 859 854
f 875 877 936
f 937 893 875
f 937 875 938
f 875 936 938
f 939 877 876
f 939 936 877
f 868 869 940
f 869 924 940
f 855 859 941
f 930 941 859
f 942 918 830
f 942 830 928
f 855 941 943
f 926 855 943
f 944 897 883
f 944 883 884
f 937 910 893
f 887 939 876
f 881 882 945
f 881 945 884
f 864 927 857
f 853 903 946
f 853 947 891
f 853 946 947
f 919 945 882
f 948 886 885
f 948 885 897
f 894 899 949
f 950 896 894
f 894 949 951
f 950 894 951
f 861 904 952
f 861 953 933
f 861 952 953
f 887 907 954
f 887 955 939
f 887 954 955
f 956 899 898
f 956 949 899
f 950 901 896
f 900 901 957
f 950 957 901
f 905 946 903
f 864 871 958
f 864 959 927
f 864 958 959
f 868 960 902
f 868 940 961
f 868 961 960
f 909 908 911
f 937 962 910
f 911 910 962
f 929 880 879
f 909 952 904
f 963 907 906
f 963 954 907
f 964 919 892
f 934 964 892
f 965 871 870
f 965 958 871
f 966 924 900
f 900 957 967
f 966 900 967
f 937 938 951
f 937 951 949
f 956 937 949
f 956 962 937
f 947 917 891
f 939 950 936
f 939 955 967
f 939 957 950
f 939 967 957
f 968 870 878
f 968 965 870
f 932 956 898
f 950 938 936
f 935 932 874
f 950 951 938
f 927 963 906
f 960 921 902
f 968 878 888
f 888 890 969
f 968 888 970
f 888 969 970
f 971 890 889
f 971 969 890
f 966 967 955
f 966 955 954
f 966 940 924
f 971 889 895
f 879 913 972
f 929 879 973
f 879 972 973
f 905 918 942
f 974 945 919
f 964 974 919
f 948 935 886
f 920 921 975
f 960 975 921
f 916 917 976
f 947 976 917
f 895 915 977
f 971 895 978
f 895 977 978
f 905 979 946
f 905 942 979
f 944 948 897
f 920 980 923
f 980 925 923
f 942 928 929
f 956 981 962
f 911 962 981
f 963 966 954
f 982 913 912
f 982 972 913
f 927 983 963
f 927 959 984
f 927 984 983
f 966 985 940
f 961 940 985
f 920 986 980
f 920 975 986
f 987 931 925
f 980 987 925
f 915 914 988
f 915 988 977
f 930 931 989
f 987 989 931
f 933 990 934
f 933 953 990
f 990 964 934
f 932 991 956
f 956 991 981
f 930 992 941
f 930 993 992
f 930 989 993
f 994 922 916
f 916 976 995
f 994 916 995
f 992 943 941
f 994 914 922
f 947 946 979
f 994 988 914
f 996 884 945
f 996 944 884
f 909 911 997
f 998 911 981
f 998 997 911
f 982 912 926
f 926 943 999
f 926 999 1000
f 982 926 1000
f 974 996 945
f 963 985 966
f 963 1001 985
f 963 983 1001
f 909 1002 952
f 1002 953 952
f 992 999 943
f 909 997 1003
f 909 1003 1002
f 1004 959 958
f 1004 984 959
f 961 985 1001
f 960 961 1001
f 1005 1001 983
f 1005 983 984
f 935 1006 932
f 932 1007 991
f 932 1006 1007
f 1008 958 965
f 1008 1004 958
f 992 993 1009
f 992 1010 1011
f 992 1009 1010
f 992 1011 999
f 947 1012 976
f 947 979 1013
f 947 1013 1012
f 1014 993 989
f 1015 989 987
f 1015 1014 989
f 948 1016 935
f 935 1017 1006
f 935 1016 1017
f 1014 1009 993
f 980 1015 987
f 1011 1010 1018
f 1019 1010 1009
f 1019 1018 1010
f 942 929 1020
f 929 973 1021
f 929 1021 1020
f 1011 1000 999
f 1011 1018 1022
f 1011 1022 1023
f 1011 1024 1000
f 1011 1023 1024
f 1008 965 968
f 980 986 1025
f 980 1026 1015
f 980 1025 1026
f 968 970 1027
f 1028 970 969
f 1028 1027 970
f 1012 995 976
f 960 1001 1005
f 960 1029 975
f 960 1005 1029
f 968 1027 1030
f 1008 968 1030
f 1028 969 971
f 971 978 1018
f 971 1018 1019
f 1028 971 1019
f 1031 974 964
f 990 1031 964
f 1028 1009 1014
f 1028 1019 1009
f 944 1032 948
f 948 1033 1016
f 948 1032 1033
f 1029 1005 984
f 1029 984 1004
f 998 981 991
f 978 977 1022
f 978 1022 1018
f 1023 1022 977
f 982 1000 1024
f 1023 1034 1024
f 982 1024 1034
f 1023 977 988
f 1029 986 975
f 1023 988 994
f 1023 994 1035
f 1023 1035 1034
f 942 1013 979
f 1015 1028 1014
f 994 1036 1035
f 994 995 1036
f 1037 1034 1035
f 1037 1035 1036
f 1029 1025 986
f 1012 1036 995
f 942 1020 1013
f 1015 1026 1030
f 1015 1027 1028
f 1015 1030 1027
f 1029 1004 1008
f 998 991 1007
f 1037 982 1034
f 1008 1030 1026
f 1008 1026 1025
f 1037 972 982
f 1037 973 972
f 1012 1037 1036
f 998 1003 997
f 1029 1008 1025
f 1037 1021 973
f 1038 996 974
f 1031 1038 974
f 1012 1021 1037
f 1012 1013 1020
f 1012 1020 1021
f 1002 1039 953
f 1002 1003 1040
f 1002 1040 1039
f 996 1032 944
f 996 1041 1032
f 1038 1041 996
f 1042 1007 1006
f 1042 1006 1017
f 1039 990 953
f 1043 1031 990
f 1039 1043 990
f 1044 1017 1016
f 1044 1016 1033
f 998 1045 1003
f 1042 998 1007
f 1042 1045 998
f 1045 1040 1003
f 1046 1038 1031
f 1043 1046 1031
f 1044 1042 1017
f 1032 1041 1047
f 1032 1047 1033
f 1048 1041 1038
f 1048 1047 1041
f 1046 1048 1038
f 1042 1049 1045
f 1045 1049 1040
f 1039 1050 1043
f 1039 1040 1050
f 1050 1046 1043
f 1044 1051 1042
f 1042 1051 1049
f 1052 1033 1047
f 1052 1044 1033
f 1053 1048 1046
f 1050 1053 1046
f 1054 1047 1048
f 1054 1052 1047
f 1053 1054 1048
f 1049 1050 1040
f 1049 1053 1050
f 1052 1051 1044
f 1052 1054 1051
f 1051 1053 1049
f 1051 1054 1053
