# 
# Wavefront OBJ file
# Created with Kaydara FBX
# 
mtllib c:\users\tjvan\onedrive\documenten\fontys\minor\nx\.mtlmodels\lateral_femoral_intermuscular_septum.r.obj

g Lateral_femoral_intermuscular_septum_r
v -0.125725 0.603437 -0.031461
v -0.120893 0.593522 -0.028927
v -0.125412 0.593427 -0.030182
v -0.125153 0.612342 -0.032360
v -0.121076 0.603442 -0.030068
v -0.120709 0.583602 -0.027786
v -0.125099 0.583417 -0.028904
v -0.124581 0.621246 -0.033259
v -0.120730 0.612517 -0.030751
v -0.120526 0.573681 -0.026645
v -0.124786 0.573407 -0.027626
v -0.124777 0.782050 -0.030607
v -0.124932 0.782818 -0.031469
v -0.125017 0.785237 -0.031234
v -0.124840 0.784312 -0.030408
v -0.124843 0.787797 -0.030736
v -0.124714 0.779787 -0.030805
v -0.124848 0.780398 -0.031705
v -0.124651 0.777524 -0.031004
v -0.124763 0.777978 -0.031940
v -0.124694 0.786676 -0.029978
v -0.124622 0.781282 -0.029744
v -0.124663 0.783387 -0.029582
v -0.124670 0.790357 -0.030239
v -0.120342 0.563761 -0.025504
v -0.124472 0.563397 -0.026347
v -0.124581 0.779177 -0.029906
v -0.124589 0.775262 -0.031203
v -0.124678 0.775558 -0.032175
v -0.124540 0.777071 -0.030068
v -0.124544 0.785555 -0.029219
v -0.124548 0.789039 -0.029547
v -0.124370 0.772985 -0.031265
v -0.124513 0.773243 -0.032265
v -0.124467 0.780514 -0.028881
v -0.124486 0.782462 -0.028756
v -0.124496 0.792916 -0.029741
v -0.124499 0.774966 -0.030230
v -0.124448 0.778566 -0.029007
v -0.124009 0.630151 -0.034158
v -0.120384 0.621592 -0.031434
v -0.124227 0.772726 -0.030265
v -0.124428 0.776618 -0.029133
v -0.124409 0.774670 -0.029258
v -0.124425 0.787722 -0.028856
v -0.124395 0.784434 -0.028461
v -0.124401 0.791403 -0.029117
v -0.124151 0.770708 -0.031328
v -0.124347 0.770929 -0.032356
v -0.124084 0.772467 -0.029265
v -0.124312 0.779746 -0.028019
v -0.124310 0.781537 -0.027930
v -0.124323 0.795476 -0.029243
v -0.119354 0.556911 -0.025065
v -0.123324 0.556614 -0.025895
v -0.124314 0.777955 -0.028108
v -0.124317 0.776164 -0.028197
v -0.124319 0.774373 -0.028286
v -0.124303 0.786405 -0.028165
v -0.124306 0.789890 -0.028493
v -0.123941 0.772209 -0.028265
v -0.124245 0.783312 -0.027702
v -0.124255 0.793766 -0.028687
v -0.123955 0.770487 -0.030300
v -0.123932 0.768430 -0.031391
v -0.124181 0.768614 -0.032447
v -0.123999 0.774395 -0.027590
v -0.123632 0.772255 -0.027505
v -0.124027 0.776110 -0.027555
v -0.124054 0.777825 -0.027519
v -0.124081 0.779541 -0.027484
v -0.124109 0.781256 -0.027448
v -0.124211 0.788376 -0.027870
v -0.124181 0.785088 -0.027474
v -0.124187 0.792057 -0.028131
v -0.124081 0.782939 -0.027287
v -0.123759 0.770266 -0.029272
v -0.124116 0.786863 -0.027246
v -0.124119 0.790348 -0.027575
v -0.123713 0.766153 -0.031454
v -0.124015 0.766299 -0.032538
v -0.124054 0.784623 -0.027126
v -0.123683 0.768247 -0.030335
v -0.123851 0.779335 -0.026949
v -0.123908 0.780974 -0.026967
v -0.124052 0.788638 -0.027018
v -0.124027 0.786306 -0.026965
v -0.123563 0.770045 -0.028244
v -0.123794 0.777696 -0.026931
v -0.123918 0.782566 -0.026872
v -0.123737 0.776056 -0.026913
v -0.123928 0.784158 -0.026778
v -0.124000 0.787990 -0.026804
v -0.123679 0.774417 -0.026895
v -0.123938 0.785749 -0.026684
v -0.123436 0.639055 -0.035058
v -0.120038 0.630667 -0.032117
v -0.123307 0.763495 -0.031523
v -0.123630 0.763575 -0.032646
v -0.123324 0.772302 -0.026745
v -0.123948 0.787341 -0.026589
v -0.123411 0.766008 -0.030370
v -0.123434 0.768064 -0.029280
v -0.123265 0.770116 -0.027420
v -0.123754 0.782193 -0.026457
v -0.123707 0.780693 -0.026485
v -0.123801 0.783693 -0.026430
v -0.123849 0.785192 -0.026402
v -0.123896 0.786692 -0.026375
v -0.123620 0.779129 -0.026414
v -0.123760 0.784636 -0.026121
v -0.123844 0.786044 -0.026160
v -0.123533 0.777566 -0.026342
v -0.123675 0.783227 -0.026082
v -0.123670 0.784133 -0.025861
v -0.123793 0.785459 -0.025966
v -0.123447 0.776002 -0.026271
v -0.123591 0.781819 -0.026043
v -0.123580 0.783630 -0.025601
v -0.123742 0.784874 -0.025773
v -0.123185 0.767880 -0.028224
v -0.123506 0.780411 -0.026003
v -0.123547 0.782806 -0.025756
v -0.123360 0.774439 -0.026199
v -0.123491 0.783127 -0.025342
v -0.123691 0.784290 -0.025579
v -0.122985 0.763415 -0.030399
v -0.123390 0.778923 -0.025879
v -0.123109 0.765862 -0.029287
v -0.123015 0.772348 -0.025985
v -0.123424 0.781480 -0.025651
v -0.123419 0.782385 -0.025430
v -0.123401 0.782624 -0.025082
v -0.123639 0.783705 -0.025385
v -0.122902 0.760837 -0.031592
v -0.123246 0.760850 -0.032755
v -0.122968 0.770187 -0.026595
v -0.123273 0.777436 -0.025754
v -0.123301 0.780154 -0.025545
v -0.123291 0.781964 -0.025104
v -0.122899 0.767976 -0.027334
v -0.123257 0.781141 -0.025259
v -0.123157 0.775948 -0.025629
v -0.123148 0.778724 -0.025369
v -0.123163 0.781543 -0.024778
v -0.123040 0.774460 -0.025504
v -0.123170 0.647249 -0.035095
v -0.119692 0.639742 -0.032800
v -0.122662 0.763335 -0.029275
v -0.122807 0.765716 -0.028203
v -0.123096 0.779896 -0.025087
v -0.123091 0.780802 -0.024867
v -0.122995 0.777293 -0.025192
v -0.122706 0.772395 -0.025224
v -0.118366 0.550062 -0.024626
v -0.122176 0.549831 -0.025443
v -0.122670 0.770258 -0.025770
v -0.122558 0.760823 -0.030428
v -0.122906 0.778524 -0.024859
v -0.122924 0.780463 -0.024475
v -0.122612 0.768072 -0.026444
v -0.122842 0.775863 -0.025015
v -0.122891 0.779639 -0.024629
v -0.122497 0.758178 -0.031660
v -0.122862 0.758126 -0.032864
v -0.122532 0.765836 -0.027249
v -0.122905 0.655444 -0.035132
v -0.119567 0.647934 -0.032809
v -0.122689 0.774433 -0.024838
v -0.122717 0.777151 -0.024630
v -0.122339 0.763255 -0.028152
v -0.122665 0.778324 -0.024349
v -0.122686 0.779382 -0.024171
v -0.122353 0.772392 -0.024522
v -0.122373 0.770329 -0.024945
v -0.122214 0.760809 -0.029264
v -0.122527 0.775779 -0.024401
v -0.122325 0.768168 -0.025555
v -0.122639 0.663638 -0.035169
v -0.119441 0.656127 -0.032818
v -0.122132 0.758230 -0.030456
v -0.122256 0.765957 -0.026294
v -0.122439 0.777009 -0.024068
v -0.122423 0.778124 -0.023839
v -0.122091 0.755520 -0.031729
v -0.122477 0.755402 -0.032973
v -0.122338 0.774406 -0.024173
v -0.122084 0.763373 -0.027154
v -0.122213 0.775694 -0.023788
v -0.122018 0.770351 -0.024205
v -0.122000 0.772390 -0.023819
v -0.121870 0.760795 -0.028100
v -0.122039 0.768264 -0.024665
v -0.122161 0.776867 -0.023507
v -0.122373 0.671832 -0.035206
v -0.119316 0.664319 -0.032828
v -0.121981 0.766078 -0.025340
v -0.121767 0.758282 -0.029252
v -0.121830 0.763490 -0.026157
v -0.121987 0.774379 -0.023507
v -0.121705 0.755638 -0.030485
v -0.121785 0.752913 -0.031814
v -0.122219 0.752763 -0.033106
v -0.121898 0.775609 -0.023174
v -0.122082 0.678632 -0.035119
v -0.119190 0.672512 -0.032837
v -0.121682 0.768310 -0.023888
v -0.121663 0.770373 -0.023465
v -0.121637 0.760909 -0.027060
v -0.121647 0.772387 -0.023117
v -0.121705 0.766198 -0.024386
v -0.121575 0.763608 -0.025160
v -0.121479 0.750306 -0.031898
v -0.121961 0.750123 -0.033239
v -0.121402 0.758334 -0.028048
v -0.121635 0.774352 -0.022842
v -0.117378 0.543212 -0.024188
v -0.121028 0.543047 -0.024991
v -0.121319 0.755756 -0.029241
v -0.121791 0.685431 -0.035031
v -0.119144 0.679289 -0.032780
v -0.121351 0.753063 -0.030521
v -0.121404 0.761023 -0.026019
v -0.121347 0.766270 -0.023572
v -0.121326 0.768357 -0.023112
v -0.121308 0.770395 -0.022726
v -0.121321 0.763725 -0.024162
v -0.121294 0.772384 -0.022414
v -0.121173 0.747699 -0.031982
v -0.121702 0.747484 -0.033372
v -0.121189 0.758446 -0.026965
v -0.121170 0.761138 -0.024979
v -0.121500 0.692231 -0.034943
v -0.119097 0.686067 -0.032724
v -0.120998 0.750489 -0.030557
v -0.120933 0.755874 -0.027997
v -0.120867 0.745092 -0.032067
v -0.121444 0.744845 -0.033505
v -0.120917 0.753214 -0.029228
v -0.120974 0.763801 -0.023310
v -0.120988 0.766341 -0.022758
v -0.120969 0.768403 -0.022335
v -0.120953 0.770417 -0.021986
v -0.120977 0.758556 -0.025882
v -0.120937 0.761252 -0.023939
v -0.121209 0.699030 -0.034856
v -0.119051 0.692845 -0.032667
v -0.120644 0.747914 -0.030592
v -0.120508 0.740201 -0.032081
v -0.121239 0.739987 -0.033611
v -0.120742 0.755982 -0.026871
v -0.120765 0.758668 -0.024799
v -0.120516 0.750672 -0.029215
v -0.120627 0.763876 -0.022457
v -0.120484 0.753364 -0.027935
v -0.120601 0.761332 -0.023048
v -0.120630 0.766412 -0.021944
v -0.120612 0.768450 -0.021558
v -0.120149 0.735311 -0.032095
v -0.121033 0.735130 -0.033716
v -0.121063 0.705626 -0.034623
v -0.119004 0.699623 -0.032610
v -0.120551 0.756090 -0.025745
v -0.120290 0.745340 -0.030628
v -0.120553 0.758779 -0.023716
v -0.116373 0.593616 -0.027672
v -0.116427 0.603447 -0.028676
v -0.120916 0.712222 -0.034391
v -0.119111 0.706099 -0.032489
v -0.116390 0.536362 -0.023749
v -0.119879 0.536264 -0.024538
v -0.119790 0.730420 -0.032110
v -0.120828 0.730272 -0.033821
v -0.120114 0.748130 -0.029202
v -0.120280 0.763952 -0.021604
v -0.120360 0.756197 -0.024618
v -0.120265 0.761412 -0.022156
v -0.120271 0.766483 -0.021131
v -0.120298 0.753457 -0.026788
v -0.120228 0.758863 -0.022785
v -0.120769 0.718818 -0.034159
v -0.119218 0.712576 -0.032367
v -0.120034 0.750854 -0.027874
v -0.116320 0.583786 -0.026668
v -0.119777 0.740416 -0.030551
v -0.119431 0.725529 -0.032124
v -0.120622 0.725414 -0.033927
v -0.119324 0.719052 -0.032246
v -0.120169 0.756305 -0.023492
v -0.120113 0.753549 -0.025641
v -0.116307 0.612692 -0.029143
v -0.116266 0.573956 -0.025664
v -0.119713 0.745587 -0.029190
v -0.119929 0.761492 -0.021265
v -0.119932 0.764027 -0.020752
v -0.119904 0.758947 -0.021855
v -0.119928 0.753642 -0.024493
v -0.119855 0.756394 -0.022523
v -0.116213 0.564125 -0.024660
v -0.119265 0.735492 -0.030475
v -0.119585 0.748345 -0.027813
v -0.119855 0.750932 -0.026705
v -0.116188 0.621937 -0.029609
v -0.119743 0.753734 -0.023346
v -0.115384 0.557209 -0.024235
v -0.119047 0.740630 -0.029022
v -0.119675 0.751009 -0.025537
v -0.119579 0.759032 -0.020925
v -0.119593 0.761572 -0.020373
v -0.119542 0.756483 -0.021554
v -0.119433 0.753775 -0.022316
v -0.118752 0.730568 -0.030398
v -0.119136 0.745835 -0.027751
v -0.119496 0.751086 -0.024368
v -0.116068 0.631183 -0.030075
v -0.119411 0.748406 -0.026623
v -0.119316 0.751163 -0.023200
v -0.119254 0.759116 -0.019994
v -0.119228 0.756572 -0.020585
v -0.115193 0.530773 -0.023346
v -0.118501 0.530800 -0.024125
v -0.119238 0.748469 -0.025433
v -0.119124 0.753816 -0.021286
v -0.118240 0.725644 -0.030322
v -0.118381 0.735673 -0.028854
v -0.119011 0.751156 -0.022109
v -0.118316 0.740844 -0.027492
v -0.115948 0.640428 -0.030541
v -0.119064 0.748530 -0.024243
v -0.118968 0.745881 -0.026540
v -0.118915 0.756661 -0.019616
v -0.115963 0.648619 -0.030523
v -0.118815 0.753856 -0.020255
v -0.118890 0.748592 -0.023054
v -0.115978 0.656809 -0.030505
v -0.117880 0.719286 -0.030332
v -0.118706 0.751148 -0.021017
v -0.118800 0.745928 -0.025329
v -0.114556 0.550293 -0.023810
v -0.115993 0.665000 -0.030487
v -0.117520 0.712929 -0.030343
v -0.118589 0.748537 -0.021901
v -0.117714 0.730716 -0.028687
v -0.117160 0.706572 -0.030354
v -0.118632 0.745975 -0.024118
v -0.118506 0.753897 -0.019225
v -0.116008 0.673191 -0.030468
v -0.116206 0.679947 -0.030442
v -0.118143 0.740896 -0.026269
v -0.118401 0.751141 -0.019926
v -0.116800 0.700215 -0.030365
v -0.116404 0.686703 -0.030416
v -0.118464 0.746021 -0.022907
v -0.116602 0.693459 -0.030390
v -0.117496 0.735854 -0.027234
v -0.118288 0.748481 -0.020749
v -0.117969 0.740948 -0.025046
v -0.118167 0.745917 -0.021694
v -0.118096 0.751133 -0.018835
v -0.117796 0.741000 -0.023823
v -0.117048 0.725758 -0.028519
v -0.117988 0.748425 -0.019597
v -0.117622 0.741052 -0.022600
v -0.117871 0.745814 -0.020481
v -0.113997 0.525183 -0.022942
v -0.117122 0.525335 -0.023712
v -0.117315 0.740995 -0.021318
v -0.117687 0.748370 -0.018444
v -0.116677 0.730864 -0.026975
v -0.113728 0.543377 -0.023385
v -0.117317 0.735911 -0.025999
v -0.117574 0.745710 -0.019267
v -0.116435 0.719521 -0.028419
v -0.117007 0.740938 -0.020036
v -0.117138 0.735968 -0.024764
v -0.117277 0.745606 -0.018054
v -0.116959 0.736026 -0.023529
v -0.115821 0.713283 -0.028319
v -0.116700 0.740881 -0.018753
v -0.116781 0.736083 -0.022294
v -0.115857 0.725873 -0.026716
v -0.116462 0.736073 -0.020942
v -0.116393 0.740824 -0.017471
v -0.115208 0.707045 -0.028219
v -0.116492 0.730926 -0.025728
v -0.112900 0.536460 -0.022960
v -0.116308 0.730989 -0.024481
v -0.116144 0.736062 -0.019591
v -0.114595 0.700807 -0.028119
v -0.116123 0.731051 -0.023234
v -0.112801 0.519593 -0.022538
v -0.115744 0.519870 -0.023300
v -0.114990 0.719755 -0.026506
v -0.115826 0.736052 -0.018239
v -0.115939 0.731114 -0.021987
v -0.114152 0.694073 -0.028114
v -0.115610 0.731150 -0.020566
v -0.115508 0.736042 -0.016888
v -0.115667 0.725941 -0.025457
v -0.113710 0.687339 -0.028109
v -0.115477 0.726009 -0.024198
v -0.115281 0.731187 -0.019146
v -0.111854 0.593711 -0.026417
v -0.111778 0.603452 -0.027284
v -0.114123 0.713636 -0.026295
v -0.113268 0.680604 -0.028104
v -0.111886 0.530745 -0.022566
v -0.111930 0.583971 -0.025550
v -0.112006 0.574230 -0.024683
v -0.111884 0.612867 -0.027534
v -0.115287 0.726077 -0.022939
v -0.112083 0.564489 -0.023816
v -0.111415 0.557507 -0.023405
v -0.112826 0.673870 -0.028099
v -0.111991 0.622283 -0.027784
v -0.114952 0.731223 -0.017726
v -0.115097 0.726145 -0.021680
v -0.112098 0.631699 -0.028034
v -0.112670 0.665681 -0.028145
v -0.112515 0.657492 -0.028191
v -0.112360 0.649303 -0.028237
v -0.112204 0.641114 -0.028283
v -0.114757 0.726228 -0.020190
v -0.114684 0.719836 -0.025179
v -0.113257 0.707518 -0.026084
v -0.114623 0.731260 -0.016305
v -0.111605 0.514003 -0.022135
v -0.114365 0.514405 -0.022887
v -0.114378 0.719918 -0.023853
v -0.114418 0.726311 -0.018701
v -0.114072 0.720000 -0.022526
v -0.110747 0.550524 -0.022994
v -0.113766 0.720082 -0.021200
v -0.114078 0.726395 -0.017212
v -0.112390 0.701399 -0.025874
v -0.110872 0.525031 -0.022171
v -0.113329 0.720199 -0.019703
v -0.113701 0.713732 -0.024901
v -0.113738 0.726478 -0.015722
v -0.112892 0.720315 -0.018206
v -0.113279 0.713828 -0.023507
v -0.111703 0.694687 -0.025838
v -0.110078 0.543541 -0.022582
v -0.112455 0.720431 -0.016709
v -0.112856 0.713924 -0.022114
v -0.110661 0.509926 -0.021991
v -0.113109 0.510188 -0.022536
v -0.111017 0.687974 -0.025802
v -0.112718 0.707628 -0.024623
v -0.112434 0.714020 -0.020720
v -0.112018 0.720548 -0.015212
v -0.109858 0.519316 -0.021777
v -0.111900 0.714169 -0.019215
v -0.109410 0.536558 -0.022171
v -0.110330 0.681262 -0.025766
v -0.112180 0.707737 -0.023162
v -0.111366 0.714319 -0.017711
v -0.111641 0.707847 -0.021701
v -0.109644 0.674550 -0.025730
v -0.111735 0.701523 -0.024345
v -0.109717 0.505848 -0.021847
v -0.111854 0.505970 -0.022185
v -0.108579 0.530718 -0.021786
v -0.110832 0.714468 -0.016206
v -0.111102 0.707957 -0.020240
v -0.109348 0.666362 -0.025804
v -0.108844 0.513601 -0.021383
v -0.111080 0.701647 -0.022817
v -0.109052 0.658175 -0.025878
v -0.108756 0.649988 -0.025952
v -0.110298 0.714618 -0.014701
v -0.110471 0.708140 -0.018728
v -0.110995 0.694748 -0.024370
v -0.108460 0.641801 -0.026025
v -0.108127 0.632215 -0.025992
v -0.110426 0.701771 -0.021289
v -0.107794 0.622629 -0.025958
v -0.107953 0.564854 -0.022973
v -0.107445 0.557804 -0.022575
v -0.107747 0.574504 -0.023702
v -0.107462 0.613042 -0.025925
v -0.107541 0.584155 -0.024432
v -0.109840 0.708322 -0.017216
v -0.107747 0.524878 -0.021401
v -0.107129 0.603456 -0.025892
v -0.108773 0.501771 -0.021704
v -0.110598 0.501752 -0.021835
v -0.107335 0.593806 -0.025162
v -0.110288 0.694810 -0.022901
v -0.110256 0.687974 -0.024394
v -0.109771 0.701894 -0.019760
v -0.108212 0.509664 -0.021446
v -0.106937 0.550755 -0.022177
v -0.109209 0.708505 -0.015703
v -0.109043 0.702110 -0.018240
v -0.109580 0.694871 -0.021433
v -0.109516 0.681199 -0.024418
v -0.109495 0.687973 -0.022986
v -0.106915 0.519038 -0.021016
v -0.108578 0.708688 -0.014191
v -0.106429 0.543706 -0.021780
v -0.107580 0.505727 -0.021510
v -0.107829 0.497694 -0.021560
v -0.109342 0.497535 -0.021484
v -0.108315 0.702326 -0.016720
v -0.108872 0.694933 -0.019965
v -0.108777 0.674424 -0.024442
v -0.108734 0.687972 -0.021578
v -0.108702 0.681136 -0.023070
v -0.105921 0.536656 -0.021382
v -0.106084 0.513198 -0.020631
v -0.107587 0.702542 -0.015200
v -0.108109 0.695063 -0.018503
v -0.106947 0.501790 -0.021573
v -0.108414 0.666253 -0.024508
v -0.107974 0.687971 -0.020169
v -0.107910 0.674299 -0.023154
v -0.107889 0.681073 -0.021722
v -0.105271 0.530691 -0.021006
v -0.107285 0.493852 -0.022136
v -0.108567 0.493496 -0.021926
v -0.108050 0.658083 -0.024574
v -0.106859 0.702757 -0.013681
v -0.107687 0.649912 -0.024640
v -0.107347 0.695194 -0.017041
v -0.107176 0.688016 -0.018765
v -0.105763 0.509402 -0.020901
v -0.106315 0.497853 -0.021636
v -0.107479 0.666144 -0.023213
v -0.107324 0.641741 -0.024706
v -0.107075 0.681010 -0.020374
v -0.107043 0.674173 -0.021866
v -0.104622 0.524726 -0.020630
v -0.106742 0.490011 -0.022712
v -0.107791 0.489458 -0.022368
v -0.106873 0.632186 -0.024650
v -0.107049 0.657990 -0.023271
v -0.106584 0.695324 -0.015579
v -0.105442 0.505605 -0.021172
v -0.106422 0.622631 -0.024593
v -0.106379 0.688062 -0.017361
v -0.106618 0.649835 -0.023329
v -0.106243 0.680969 -0.019028
v -0.106083 0.565004 -0.022227
v -0.105665 0.557967 -0.021934
v -0.106545 0.666035 -0.021917
v -0.106176 0.674048 -0.020578
v -0.106004 0.494208 -0.022346
v -0.106199 0.486169 -0.023287
v -0.107015 0.485420 -0.022810
v -0.105971 0.613076 -0.024537
v -0.103973 0.518761 -0.020255
v -0.105942 0.574634 -0.022790
v -0.106187 0.641681 -0.023387
v -0.105122 0.501808 -0.021442
v -0.105821 0.695455 -0.014117
v -0.105801 0.584263 -0.023354
v -0.106047 0.657897 -0.021967
v -0.105519 0.603521 -0.024480
v -0.105248 0.550929 -0.021641
v -0.105581 0.688107 -0.015958
v -0.105660 0.593892 -0.023917
v -0.105618 0.632157 -0.023308
v -0.105693 0.490563 -0.023055
v -0.105411 0.680930 -0.017682
v -0.105309 0.673923 -0.019291
v -0.105549 0.649759 -0.022018
v -0.105611 0.665926 -0.020621
v -0.105656 0.482328 -0.023863
v -0.106240 0.481382 -0.023253
v -0.104801 0.498011 -0.021713
v -0.104830 0.543891 -0.021348
v -0.103323 0.512796 -0.019879
v -0.105049 0.622633 -0.023228
v -0.105382 0.486918 -0.023764
v -0.105051 0.641621 -0.022068
v -0.104784 0.688152 -0.014554
v -0.105045 0.657805 -0.020664
v -0.104412 0.536853 -0.021056
v -0.104479 0.613109 -0.023149
v -0.104578 0.680889 -0.016336
v -0.104723 0.494563 -0.022555
v -0.104442 0.673797 -0.018003
v -0.105071 0.483274 -0.024473
v -0.104364 0.632128 -0.021966
v -0.104677 0.665817 -0.019325
v -0.103314 0.509140 -0.020356
v -0.104214 0.565155 -0.021481
v -0.103886 0.558129 -0.021293
v -0.104480 0.649683 -0.020706
v -0.104644 0.491115 -0.023398
v -0.103910 0.603585 -0.023069
v -0.104138 0.574763 -0.021878
v -0.103912 0.530937 -0.020789
v -0.104062 0.584370 -0.022275
v -0.103305 0.505483 -0.020834
v -0.104566 0.487667 -0.024241
v -0.103558 0.551103 -0.021105
v -0.103986 0.593978 -0.022672
v -0.103676 0.622636 -0.021863
v -0.104044 0.657712 -0.019360
v -0.103746 0.680849 -0.014990
v -0.103915 0.641561 -0.020749
v -0.103297 0.501827 -0.021311
v -0.103576 0.673672 -0.016715
v -0.104487 0.484220 -0.025084
v -0.103742 0.665708 -0.018030
v -0.103413 0.525021 -0.020522
v -0.103231 0.544076 -0.020917
v -0.103288 0.498170 -0.021789
v -0.102988 0.613143 -0.021761
v -0.103109 0.632100 -0.020624
v -0.103411 0.649607 -0.019395
v -0.102903 0.537050 -0.020729
v -0.103441 0.494919 -0.022765
v -0.103595 0.491668 -0.023741
v -0.103042 0.657619 -0.018057
v -0.103749 0.488417 -0.024718
v -0.102913 0.519105 -0.020256
v -0.102709 0.673547 -0.015427
v -0.103903 0.485166 -0.025694
v -0.102301 0.603650 -0.021658
v -0.102778 0.641501 -0.019430
v -0.102808 0.665599 -0.016734
v -0.102553 0.531183 -0.020572
v -0.102303 0.622638 -0.020498
v -0.102344 0.565306 -0.020736
v -0.102107 0.558291 -0.020652
v -0.102333 0.574892 -0.020966
v -0.102322 0.584478 -0.021197
v -0.102342 0.649531 -0.018084
v -0.102312 0.594064 -0.021427
v -0.102413 0.513188 -0.019989
v -0.103607 0.485649 -0.025970
v -0.102203 0.525316 -0.020414
v -0.101854 0.632071 -0.019281
v -0.101869 0.551277 -0.020569
v -0.103359 0.488849 -0.024974
v -0.102040 0.657527 -0.016753
v -0.101497 0.613176 -0.020373
v -0.103311 0.486132 -0.026245
v -0.103112 0.492049 -0.023979
v -0.101874 0.665490 -0.015438
v -0.101632 0.544262 -0.020486
v -0.102864 0.495250 -0.022983
v -0.101853 0.519448 -0.020256
v -0.101642 0.641442 -0.018111
v -0.102970 0.489282 -0.025230
v -0.103015 0.486616 -0.026521
v -0.102617 0.498450 -0.021988
v -0.102566 0.502135 -0.021488
v -0.102515 0.505819 -0.020988
v -0.102464 0.509504 -0.020489
v -0.101394 0.537247 -0.020403
v -0.102628 0.492431 -0.024216
v -0.100930 0.622640 -0.019133
v -0.101273 0.649454 -0.016772
v -0.102580 0.489714 -0.025487
v -0.102719 0.487099 -0.026796
v -0.100692 0.603714 -0.020247
v -0.101503 0.513581 -0.020099
v -0.101194 0.531429 -0.020355
v -0.102287 0.495580 -0.023201
v -0.101039 0.657434 -0.015450
v -0.100600 0.632042 -0.017939
v -0.102190 0.490146 -0.025743
v -0.102424 0.487582 -0.027071
v -0.102145 0.492812 -0.024453
v -0.101946 0.498729 -0.022187
v -0.101835 0.502442 -0.021665
v -0.100994 0.525610 -0.020306
v -0.101725 0.506155 -0.021143
v -0.101614 0.509868 -0.020621
v -0.101801 0.490579 -0.025999
v -0.102128 0.488066 -0.027347
v -0.100474 0.565457 -0.019990
v -0.100327 0.558454 -0.020012
v -0.100529 0.575021 -0.020054
v -0.100505 0.641382 -0.016792
v -0.100583 0.584586 -0.020118
v -0.100637 0.594150 -0.020183
v -0.100006 0.613209 -0.018984
v -0.101710 0.495911 -0.023419
v -0.100794 0.519792 -0.020257
v -0.101662 0.493194 -0.024690
v -0.101411 0.491011 -0.026256
v -0.101832 0.488549 -0.027622
v -0.100180 0.551451 -0.020033
v -0.100204 0.649378 -0.015461
v -0.101275 0.499009 -0.022385
v -0.100033 0.544447 -0.020055
v -0.100594 0.513973 -0.020209
v -0.099557 0.622642 -0.017768
v -0.101021 0.491443 -0.026512
v -0.101536 0.489032 -0.027898
v -0.101104 0.502750 -0.021841
v -0.101178 0.493575 -0.024927
v -0.100934 0.506491 -0.021297
v -0.101133 0.496241 -0.023637
v -0.099886 0.537444 -0.020077
v -0.099345 0.632013 -0.016597
v -0.100764 0.510232 -0.020753
v -0.100632 0.491876 -0.026768
v -0.099082 0.603779 -0.018836
v -0.100695 0.493957 -0.025164
v -0.099835 0.531674 -0.020137
v -0.100604 0.499289 -0.022584
v -0.099369 0.641322 -0.015473
v -0.099785 0.525905 -0.020198
v -0.100555 0.496572 -0.023855
v -0.100374 0.503058 -0.022018
v -0.100211 0.494338 -0.025402
v -0.099734 0.520135 -0.020258
v -0.100144 0.506827 -0.021451
v -0.098515 0.613243 -0.017596
v -0.099684 0.514366 -0.020319
v -0.099914 0.510596 -0.020885
v -0.099978 0.496902 -0.024073
v -0.098963 0.594236 -0.018938
v -0.099728 0.494720 -0.025639
v -0.098844 0.584693 -0.019040
v -0.099932 0.499568 -0.022783
v -0.098185 0.622645 -0.016403
v -0.098724 0.575151 -0.019142
v -0.098605 0.565608 -0.019244
v -0.098090 0.631984 -0.015255
v -0.098548 0.558616 -0.019371
v -0.099643 0.503366 -0.022195
v -0.098491 0.551624 -0.019497
v -0.099401 0.497233 -0.024291
v -0.098434 0.544633 -0.019624
v -0.099353 0.507163 -0.021606
v -0.098377 0.537641 -0.019751
v -0.097473 0.603843 -0.017425
v -0.099261 0.499848 -0.022982
v -0.099064 0.510961 -0.021017
v -0.098476 0.531920 -0.019920
v -0.098575 0.526200 -0.020090
v -0.098675 0.520479 -0.020259
v -0.098824 0.497563 -0.024509
v -0.098774 0.514758 -0.020428
v -0.098912 0.503673 -0.022371
v -0.097024 0.613276 -0.016208
v -0.098590 0.500127 -0.023181
v -0.098563 0.507499 -0.021760
v -0.096812 0.622647 -0.015038
v -0.097289 0.594322 -0.017693
v -0.098213 0.511325 -0.021149
v -0.097104 0.584801 -0.017961
v -0.098181 0.503981 -0.022548
v -0.096920 0.575280 -0.018230
v -0.097919 0.500407 -0.023380
v -0.097864 0.515150 -0.020538
v -0.096735 0.565759 -0.018498
v -0.097615 0.520822 -0.020260
v -0.096768 0.558779 -0.018730
v -0.097366 0.526494 -0.019981
v -0.097772 0.507835 -0.021915
v -0.096802 0.551798 -0.018961
v -0.095864 0.603908 -0.016014
v -0.096835 0.544818 -0.019193
v -0.097117 0.532166 -0.019703
v -0.096868 0.537838 -0.019425
v -0.097363 0.511689 -0.021281
v -0.097451 0.504289 -0.022725
v -0.095533 0.613310 -0.014820
v -0.096954 0.515543 -0.020648
v -0.096982 0.508171 -0.022069
v -0.096556 0.521166 -0.020261
v -0.095614 0.594408 -0.016448
v -0.096513 0.512053 -0.021414
v -0.096157 0.526789 -0.019873
v -0.095365 0.584909 -0.016883
v -0.095758 0.532412 -0.019486
v -0.095115 0.575409 -0.017318
v -0.094254 0.603972 -0.014602
v -0.096045 0.515935 -0.020758
v -0.094866 0.565910 -0.017752
v -0.095359 0.538035 -0.019098
v -0.095236 0.545004 -0.018762
v -0.095112 0.551972 -0.018425
v -0.094989 0.558941 -0.018089
v -0.095496 0.521509 -0.020262
v -0.094947 0.527084 -0.019765
v -0.093940 0.594494 -0.015204
v -0.094399 0.532658 -0.019269
v -0.093625 0.585016 -0.015805
v -0.093850 0.538232 -0.018772
v -0.093311 0.575539 -0.016406
v -0.093637 0.545189 -0.018331
v -0.093423 0.552146 -0.017889
v -0.092996 0.566061 -0.017007
v -0.093210 0.559103 -0.017448
usemtl Lateral_femoral_intermuscular_septum_rMaterial0
f 1 2 3
f 4 5 1
f 1 5 2
f 3 6 7
f 3 2 6
f 8 9 4
f 4 9 5
f 7 10 11
f 7 6 10
f 12 13 14
f 15 14 16
f 12 14 15
f 17 18 13
f 17 13 12
f 19 20 18
f 19 18 17
f 15 16 21
f 22 12 15
f 23 15 21
f 22 15 23
f 21 16 24
f 11 25 26
f 11 10 25
f 27 17 12
f 27 12 22
f 28 29 20
f 28 20 19
f 30 19 17
f 30 17 27
f 23 21 31
f 21 24 32
f 31 21 32
f 33 29 28
f 33 34 29
f 35 22 23
f 36 23 31
f 35 23 36
f 32 24 37
f 38 28 19
f 38 19 30
f 39 27 22
f 39 22 35
f 40 41 8
f 8 41 9
f 42 28 38
f 42 33 28
f 43 30 27
f 43 27 39
f 44 38 30
f 44 30 43
f 31 32 45
f 36 31 46
f 46 31 45
f 32 37 47
f 45 32 47
f 48 34 33
f 48 49 34
f 50 38 44
f 50 42 38
f 51 35 36
f 52 36 46
f 51 36 52
f 47 37 53
f 26 54 55
f 26 25 54
f 56 39 35
f 56 35 51
f 57 43 39
f 57 39 56
f 58 44 43
f 58 43 57
f 46 45 59
f 45 47 60
f 59 45 60
f 61 44 58
f 61 50 44
f 52 46 62
f 62 46 59
f 60 47 63
f 47 53 63
f 64 33 42
f 64 48 33
f 65 66 49
f 65 49 48
f 67 58 57
f 68 58 67
f 68 61 58
f 69 57 56
f 67 57 69
f 70 56 51
f 69 56 70
f 71 51 52
f 70 51 71
f 72 52 62
f 71 52 72
f 59 60 73
f 62 59 74
f 74 59 73
f 60 63 75
f 73 60 75
f 76 62 74
f 72 62 76
f 77 42 50
f 77 64 42
f 74 73 78
f 73 75 79
f 78 73 79
f 80 81 66
f 80 66 65
f 82 74 78
f 76 74 82
f 83 65 48
f 83 48 64
f 84 71 72
f 85 72 76
f 84 72 85
f 78 79 86
f 82 78 87
f 87 78 86
f 88 50 61
f 88 77 50
f 89 70 71
f 89 71 84
f 90 76 82
f 85 76 90
f 91 69 70
f 91 70 89
f 92 82 87
f 90 82 92
f 87 86 93
f 94 67 69
f 94 69 91
f 95 87 93
f 92 87 95
f 96 97 40
f 40 97 41
f 98 81 80
f 98 99 81
f 100 67 94
f 100 68 67
f 95 93 101
f 102 80 65
f 102 65 83
f 103 64 77
f 103 83 64
f 104 61 68
f 104 88 61
f 105 90 92
f 106 85 90
f 106 90 105
f 107 92 95
f 105 92 107
f 108 95 101
f 107 95 108
f 108 101 109
f 110 84 85
f 110 85 106
f 111 108 109
f 111 109 112
f 113 89 84
f 113 84 110
f 114 107 108
f 114 108 111
f 115 112 116
f 115 111 112
f 117 91 89
f 117 89 113
f 118 105 107
f 118 107 114
f 119 116 120
f 119 115 116
f 121 77 88
f 121 103 77
f 122 106 105
f 122 105 118
f 123 114 111
f 123 111 115
f 124 94 91
f 124 91 117
f 125 120 126
f 125 119 120
f 127 80 102
f 127 98 80
f 128 110 106
f 128 106 122
f 129 102 83
f 129 83 103
f 130 94 124
f 130 100 94
f 131 118 114
f 131 114 123
f 132 115 119
f 132 123 115
f 133 126 134
f 133 125 126
f 135 99 98
f 135 136 99
f 137 68 100
f 137 104 68
f 138 113 110
f 138 110 128
f 139 122 118
f 139 118 131
f 140 119 125
f 140 132 119
f 141 88 104
f 141 121 88
f 142 131 123
f 142 123 132
f 143 117 113
f 143 113 138
f 144 128 122
f 144 122 139
f 145 125 133
f 145 140 125
f 146 124 117
f 146 117 143
f 147 148 96
f 96 148 97
f 149 102 129
f 149 127 102
f 150 103 121
f 150 129 103
f 151 139 131
f 151 131 142
f 152 132 140
f 152 142 132
f 153 138 128
f 153 128 144
f 154 124 146
f 154 130 124
f 55 155 156
f 55 54 155
f 157 100 130
f 157 137 100
f 158 98 127
f 158 135 98
f 159 144 139
f 159 139 151
f 160 140 145
f 160 152 140
f 161 104 137
f 161 141 104
f 162 143 138
f 162 138 153
f 163 151 142
f 163 142 152
f 164 136 135
f 164 165 136
f 166 121 141
f 166 150 121
f 167 168 147
f 147 168 148
f 169 146 143
f 169 143 162
f 170 153 144
f 170 144 159
f 171 129 150
f 171 149 129
f 172 159 151
f 172 151 163
f 173 152 160
f 173 163 152
f 174 154 146
f 174 146 169
f 175 130 154
f 175 157 130
f 176 127 149
f 176 158 127
f 177 162 153
f 177 153 170
f 178 137 157
f 178 161 137
f 179 180 167
f 167 180 168
f 181 135 158
f 181 164 135
f 182 141 161
f 182 166 141
f 183 170 159
f 183 159 172
f 184 163 173
f 184 172 163
f 185 165 164
f 185 186 165
f 187 169 162
f 187 162 177
f 188 150 166
f 188 171 150
f 189 177 170
f 189 170 183
f 190 175 154
f 190 154 174
f 191 174 169
f 191 169 187
f 192 149 171
f 192 176 149
f 193 157 175
f 193 178 157
f 194 183 172
f 194 172 184
f 195 196 179
f 179 196 180
f 197 161 178
f 197 182 161
f 198 158 176
f 198 181 158
f 199 166 182
f 199 188 166
f 200 187 177
f 200 177 189
f 201 164 181
f 201 185 164
f 202 203 186
f 202 186 185
f 204 189 183
f 204 183 194
f 205 206 195
f 195 206 196
f 207 193 175
f 207 175 190
f 208 190 174
f 208 174 191
f 209 171 188
f 209 192 171
f 210 191 187
f 210 187 200
f 211 178 193
f 211 197 178
f 212 182 197
f 212 199 182
f 213 214 203
f 213 203 202
f 215 176 192
f 215 198 176
f 216 200 189
f 216 189 204
f 156 217 218
f 156 155 217
f 219 181 198
f 219 201 181
f 220 221 205
f 205 221 206
f 222 202 185
f 222 185 201
f 223 188 199
f 223 209 188
f 224 211 193
f 224 193 207
f 225 207 190
f 225 190 208
f 226 208 191
f 226 191 210
f 227 197 211
f 227 212 197
f 228 210 200
f 228 200 216
f 229 230 214
f 229 214 213
f 231 192 209
f 231 215 192
f 232 199 212
f 232 223 199
f 233 234 220
f 220 234 221
f 235 213 202
f 235 202 222
f 236 198 215
f 236 219 198
f 237 238 230
f 237 230 229
f 239 222 201
f 239 201 219
f 240 211 224
f 240 227 211
f 241 224 207
f 241 207 225
f 242 225 208
f 242 208 226
f 243 226 210
f 243 210 228
f 244 209 223
f 244 231 209
f 245 212 227
f 245 232 212
f 246 247 233
f 233 247 234
f 248 229 213
f 248 213 235
f 238 249 250
f 238 237 249
f 251 215 231
f 251 236 215
f 252 223 232
f 252 244 223
f 253 235 222
f 253 222 239
f 254 224 241
f 254 240 224
f 255 219 236
f 255 239 219
f 256 227 240
f 256 245 227
f 257 241 225
f 257 225 242
f 258 242 226
f 258 226 243
f 250 259 260
f 250 249 259
f 261 262 246
f 246 262 247
f 263 231 244
f 263 251 231
f 264 237 229
f 264 229 248
f 265 232 245
f 265 252 232
f 5 266 2
f 9 267 5
f 5 267 266
f 268 269 261
f 261 269 262
f 218 270 271
f 218 217 270
f 260 272 273
f 260 259 272
f 274 248 235
f 274 235 253
f 275 254 241
f 275 241 257
f 276 244 252
f 276 263 244
f 277 240 254
f 277 256 240
f 278 257 242
f 278 242 258
f 279 236 251
f 279 255 236
f 280 245 256
f 280 265 245
f 281 282 268
f 268 282 269
f 283 253 239
f 283 239 255
f 2 284 6
f 2 266 284
f 237 285 249
f 237 264 285
f 273 286 287
f 273 272 286
f 287 288 281
f 281 288 282
f 289 252 265
f 289 276 252
f 290 251 263
f 290 279 251
f 41 291 9
f 9 291 267
f 6 292 10
f 6 284 292
f 293 264 248
f 293 248 274
f 287 286 288
f 294 277 254
f 294 254 275
f 295 275 257
f 295 257 278
f 296 256 277
f 296 280 256
f 297 263 276
f 297 290 263
f 298 265 280
f 298 289 265
f 10 299 25
f 10 292 299
f 249 300 259
f 249 285 300
f 301 274 253
f 301 253 283
f 302 255 279
f 302 283 255
f 97 303 41
f 41 303 291
f 304 276 289
f 304 297 276
f 25 305 54
f 25 299 305
f 264 306 285
f 264 293 306
f 307 279 290
f 307 302 279
f 308 277 294
f 308 296 277
f 309 294 275
f 309 275 295
f 310 280 296
f 310 298 280
f 311 289 298
f 311 304 289
f 259 312 272
f 259 300 312
f 313 293 274
f 313 274 301
f 314 290 297
f 314 307 290
f 148 315 97
f 97 315 303
f 316 283 302
f 316 301 283
f 317 297 304
f 317 314 297
f 318 308 294
f 318 294 309
f 319 296 308
f 319 310 296
f 271 320 321
f 271 270 320
f 322 302 307
f 322 316 302
f 323 298 310
f 323 311 298
f 272 324 286
f 272 312 324
f 285 325 300
f 285 306 325
f 326 304 311
f 326 317 304
f 293 313 327
f 293 327 306
f 168 328 148
f 148 328 315
f 329 307 314
f 329 322 307
f 330 301 316
f 330 313 301
f 331 308 318
f 331 319 308
f 180 332 168
f 168 332 328
f 333 310 319
f 333 323 310
f 334 314 317
f 334 329 314
f 196 335 180
f 180 335 332
f 286 336 288
f 286 324 336
f 337 311 323
f 337 326 311
f 338 316 322
f 338 330 316
f 54 339 155
f 54 305 339
f 206 340 196
f 196 340 335
f 288 341 282
f 288 336 341
f 342 317 326
f 342 334 317
f 300 343 312
f 300 325 343
f 282 344 269
f 282 341 344
f 345 322 329
f 345 338 322
f 346 319 331
f 346 333 319
f 221 347 206
f 206 347 340
f 234 348 221
f 221 348 347
f 313 330 349
f 313 349 327
f 350 323 333
f 350 337 323
f 269 351 262
f 269 344 351
f 247 352 234
f 234 352 348
f 353 329 334
f 353 345 329
f 262 354 247
f 247 354 352
f 306 355 325
f 306 327 355
f 262 351 354
f 356 326 337
f 356 342 326
f 330 338 357
f 330 357 349
f 358 334 342
f 358 353 334
f 359 333 346
f 359 350 333
f 338 345 360
f 338 360 357
f 312 361 324
f 312 343 361
f 362 337 350
f 362 356 337
f 345 353 363
f 345 363 360
f 364 342 356
f 364 358 342
f 321 365 366
f 321 320 365
f 353 358 367
f 353 367 363
f 368 350 359
f 368 362 350
f 325 369 343
f 325 355 369
f 155 370 217
f 155 339 370
f 327 349 371
f 327 371 355
f 372 356 362
f 372 364 356
f 324 373 336
f 324 361 373
f 358 364 374
f 358 374 367
f 349 357 375
f 349 375 371
f 376 362 368
f 376 372 362
f 357 360 377
f 357 377 375
f 336 378 341
f 336 373 378
f 364 372 379
f 364 379 374
f 360 363 380
f 360 380 377
f 343 381 361
f 343 369 381
f 363 367 382
f 363 382 380
f 372 376 383
f 372 383 379
f 341 384 344
f 341 378 384
f 355 371 385
f 355 385 369
f 217 386 270
f 217 370 386
f 371 375 387
f 371 387 385
f 367 374 388
f 367 388 382
f 344 389 351
f 344 384 389
f 375 377 390
f 375 390 387
f 366 391 392
f 366 365 391
f 361 393 373
f 361 381 393
f 374 379 394
f 374 394 388
f 377 380 395
f 377 395 390
f 351 396 354
f 351 389 396
f 380 382 397
f 380 397 395
f 379 383 398
f 379 398 394
f 369 385 399
f 369 399 381
f 354 400 352
f 354 396 400
f 385 387 401
f 385 401 399
f 382 388 402
f 382 402 397
f 267 403 266
f 291 404 267
f 267 404 403
f 373 405 378
f 373 393 405
f 352 406 348
f 352 400 406
f 270 407 320
f 270 386 407
f 266 408 284
f 266 403 408
f 284 409 292
f 284 408 409
f 303 410 291
f 291 410 404
f 387 390 411
f 387 411 401
f 292 412 299
f 292 409 412
f 299 413 305
f 299 412 413
f 348 414 347
f 348 406 414
f 315 415 303
f 303 415 410
f 388 394 416
f 388 416 402
f 390 395 417
f 390 417 411
f 328 418 315
f 315 418 415
f 347 419 340
f 347 414 419
f 340 420 335
f 340 419 420
f 335 421 332
f 335 420 421
f 332 422 328
f 332 421 422
f 328 422 418
f 395 397 423
f 395 423 417
f 381 399 424
f 381 424 393
f 378 425 384
f 378 405 425
f 394 398 426
f 394 426 416
f 392 427 428
f 392 391 427
f 399 401 429
f 399 429 424
f 397 402 430
f 397 430 423
f 401 411 431
f 401 431 429
f 305 432 339
f 305 413 432
f 411 417 433
f 411 433 431
f 402 416 434
f 402 434 430
f 384 435 389
f 384 425 435
f 320 436 365
f 320 407 436
f 417 423 437
f 417 437 433
f 393 424 438
f 393 438 405
f 416 426 439
f 416 439 434
f 423 430 440
f 423 440 437
f 424 429 441
f 424 441 438
f 389 442 396
f 389 435 442
f 339 443 370
f 339 432 443
f 430 434 444
f 430 444 440
f 429 431 445
f 429 445 441
f 428 446 447
f 428 427 446
f 396 448 400
f 396 442 448
f 405 438 449
f 405 449 425
f 431 433 450
f 431 450 445
f 434 439 451
f 434 451 444
f 365 452 391
f 365 436 452
f 433 437 453
f 433 453 450
f 370 454 386
f 370 443 454
f 400 455 406
f 400 448 455
f 438 441 456
f 438 456 449
f 437 440 457
f 437 457 453
f 441 445 458
f 441 458 456
f 406 459 414
f 406 455 459
f 425 449 460
f 425 460 435
f 447 461 462
f 447 446 461
f 386 463 407
f 386 454 463
f 440 444 464
f 440 464 457
f 445 450 465
f 445 465 458
f 414 466 419
f 414 459 466
f 391 467 427
f 391 452 467
f 449 456 468
f 449 468 460
f 419 469 420
f 419 466 469
f 420 470 421
f 420 469 470
f 444 451 471
f 444 471 464
f 450 453 472
f 450 472 465
f 435 460 473
f 435 473 442
f 421 474 422
f 421 470 474
f 422 475 418
f 422 474 475
f 456 458 476
f 456 476 468
f 418 477 415
f 418 475 477
f 409 478 412
f 412 479 413
f 412 478 479
f 408 480 409
f 409 480 478
f 415 481 410
f 415 477 481
f 403 482 408
f 408 482 480
f 453 457 483
f 453 483 472
f 407 484 436
f 407 463 484
f 410 485 404
f 410 481 485
f 462 486 487
f 462 461 486
f 404 488 403
f 403 488 482
f 404 485 488
f 460 468 489
f 460 489 473
f 442 490 448
f 442 473 490
f 458 465 491
f 458 491 476
f 427 492 446
f 427 467 492
f 413 493 432
f 413 479 493
f 457 464 494
f 457 494 483
f 465 472 495
f 465 495 491
f 468 476 496
f 468 496 489
f 448 497 455
f 448 490 497
f 473 489 498
f 473 498 490
f 436 499 452
f 436 484 499
f 464 471 500
f 464 500 494
f 432 501 443
f 432 493 501
f 446 502 461
f 446 492 502
f 487 503 504
f 487 486 503
f 472 483 505
f 472 505 495
f 476 491 506
f 476 506 496
f 455 507 459
f 455 497 507
f 489 496 508
f 489 508 498
f 490 509 497
f 490 498 509
f 443 510 454
f 443 501 510
f 452 511 467
f 452 499 511
f 483 494 512
f 483 512 505
f 491 495 513
f 491 513 506
f 461 514 486
f 461 502 514
f 459 515 466
f 459 507 515
f 496 506 516
f 496 516 508
f 497 517 507
f 497 509 517
f 498 508 518
f 498 518 509
f 454 519 463
f 454 510 519
f 504 520 521
f 504 503 520
f 466 522 469
f 466 515 522
f 494 500 523
f 494 523 512
f 469 524 470
f 469 522 524
f 495 505 525
f 495 525 513
f 506 513 526
f 506 526 516
f 467 527 492
f 467 511 527
f 486 528 503
f 486 514 528
f 507 529 515
f 507 517 529
f 470 530 474
f 470 524 530
f 508 516 531
f 508 531 518
f 509 532 517
f 509 518 532
f 463 533 484
f 463 519 533
f 521 534 535
f 521 520 534
f 474 536 475
f 474 530 536
f 515 537 522
f 515 529 537
f 505 512 538
f 505 538 525
f 492 539 502
f 492 527 539
f 475 540 477
f 475 536 540
f 513 525 541
f 513 541 526
f 522 542 524
f 522 537 542
f 516 526 543
f 516 543 531
f 480 544 478
f 478 545 479
f 478 544 545
f 517 546 529
f 517 532 546
f 518 531 547
f 518 547 532
f 503 548 520
f 503 528 548
f 535 549 550
f 535 534 549
f 477 551 481
f 477 540 551
f 484 552 499
f 484 533 552
f 482 553 480
f 480 553 544
f 524 554 530
f 524 542 554
f 502 555 514
f 502 539 555
f 512 523 556
f 512 556 538
f 488 557 482
f 482 557 553
f 529 558 537
f 529 546 558
f 481 559 485
f 481 551 559
f 479 560 493
f 479 545 560
f 525 538 561
f 525 561 541
f 485 562 488
f 488 562 557
f 530 563 536
f 530 554 563
f 520 564 534
f 520 548 564
f 526 541 565
f 526 565 543
f 485 559 562
f 531 543 566
f 531 566 547
f 537 567 542
f 537 558 567
f 532 568 546
f 532 547 568
f 550 569 570
f 550 549 569
f 514 571 528
f 514 555 571
f 493 572 501
f 493 560 572
f 499 573 511
f 499 552 573
f 536 574 540
f 536 563 574
f 534 575 549
f 534 564 575
f 542 576 554
f 542 567 576
f 538 556 577
f 538 577 561
f 546 578 558
f 546 568 578
f 501 579 510
f 501 572 579
f 540 580 551
f 540 574 580
f 541 561 581
f 541 581 565
f 528 582 548
f 528 571 582
f 543 565 583
f 543 583 566
f 549 584 569
f 549 575 584
f 554 585 563
f 554 576 585
f 547 586 568
f 547 566 586
f 511 587 527
f 511 573 587
f 553 588 544
f 544 589 545
f 544 588 589
f 558 590 567
f 558 578 590
f 548 591 564
f 548 582 591
f 551 592 559
f 551 580 592
f 557 593 553
f 553 593 588
f 510 594 519
f 510 579 594
f 562 595 557
f 557 595 593
f 527 596 539
f 527 587 596
f 564 597 575
f 564 591 597
f 545 598 560
f 545 589 598
f 559 599 562
f 562 599 595
f 563 600 574
f 563 585 600
f 568 601 578
f 568 586 601
f 561 577 602
f 561 602 581
f 567 603 576
f 567 590 603
f 559 592 599
f 539 604 555
f 539 596 604
f 565 581 605
f 565 605 583
f 575 606 584
f 575 597 606
f 566 607 586
f 566 583 607
f 519 608 533
f 519 594 608
f 560 609 572
f 560 598 609
f 555 610 571
f 555 604 610
f 574 611 580
f 574 600 611
f 576 612 585
f 576 603 612
f 578 613 590
f 578 601 613
f 572 614 579
f 572 609 614
f 571 615 582
f 571 610 615
f 582 616 591
f 582 615 616
f 586 617 601
f 586 607 617
f 591 618 597
f 591 616 618
f 533 619 552
f 533 608 619
f 581 602 620
f 581 620 605
f 597 621 606
f 597 618 621
f 580 622 592
f 580 611 622
f 590 623 603
f 590 613 623
f 583 624 607
f 583 605 624
f 579 625 594
f 579 614 625
f 585 626 600
f 585 612 626
f 593 627 588
f 588 628 589
f 588 627 628
f 595 629 593
f 593 629 627
f 599 630 595
f 595 630 629
f 601 631 613
f 601 617 631
f 592 632 599
f 599 632 630
f 552 633 573
f 552 619 633
f 618 634 621
f 594 635 608
f 594 625 635
f 592 622 632
f 603 636 612
f 603 623 636
f 589 637 598
f 589 628 637
f 618 638 634
f 616 638 618
f 607 639 617
f 607 624 639
f 600 640 611
f 600 626 640
f 638 641 634
f 615 642 616
f 616 642 638
f 605 643 624
f 605 620 643
f 598 644 609
f 598 637 644
f 610 645 615
f 615 645 642
f 608 646 619
f 608 635 646
f 613 647 623
f 613 631 647
f 638 648 641
f 642 648 638
f 648 649 641
f 604 650 610
f 610 650 645
f 596 651 604
f 604 651 650
f 587 652 596
f 596 652 651
f 573 653 587
f 587 653 652
f 573 633 653
f 609 654 614
f 609 644 654
f 642 655 648
f 645 655 642
f 612 656 626
f 612 636 656
f 617 657 631
f 617 639 657
f 648 658 649
f 658 659 649
f 611 660 622
f 611 640 660
f 655 658 648
f 619 661 633
f 619 646 661
f 614 662 625
f 614 654 662
f 645 663 655
f 650 663 645
f 624 664 639
f 624 643 664
f 623 665 636
f 623 647 665
f 658 666 659
f 666 667 659
f 655 668 658
f 663 668 655
f 651 669 650
f 650 669 663
f 668 666 658
f 652 670 651
f 651 670 669
f 625 671 635
f 625 662 671
f 653 672 652
f 652 672 670
f 633 673 653
f 653 673 672
f 666 674 667
f 674 675 667
f 633 661 673
f 629 676 627
f 627 677 628
f 627 676 677
f 630 678 629
f 629 678 676
f 631 679 647
f 631 657 679
f 632 680 630
f 630 680 678
f 622 681 632
f 632 681 680
f 622 660 681
f 626 682 640
f 626 656 682
f 663 683 668
f 669 683 663
f 635 684 646
f 635 671 684
f 668 685 666
f 685 674 666
f 683 685 668
f 686 687 675
f 674 686 675
f 628 688 637
f 628 677 688
f 639 689 657
f 639 664 689
f 670 690 669
f 669 690 683
f 637 691 644
f 637 688 691
f 646 692 661
f 646 684 692
f 636 693 656
f 636 665 693
f 694 695 687
f 686 694 687
f 672 696 670
f 670 696 690
f 685 697 674
f 697 686 674
f 673 698 672
f 672 698 696
f 683 699 685
f 690 699 683
f 699 697 685
f 644 700 654
f 644 691 700
f 647 701 665
f 647 679 701
f 661 702 673
f 673 702 698
f 694 703 695
f 661 692 702
f 640 704 660
f 640 682 704
f 697 705 686
f 705 694 686
f 654 706 662
f 654 700 706
f 690 707 699
f 696 707 690
f 657 708 679
f 657 689 708
f 662 709 671
f 662 706 709
f 699 710 697
f 710 705 697
f 707 710 699
f 698 711 696
f 696 711 707
f 705 712 694
f 712 703 694
f 671 713 684
f 671 709 713
f 702 714 698
f 698 714 711
f 656 715 682
f 656 693 715
f 684 716 692
f 684 713 716
f 692 717 702
f 702 717 714
f 710 718 705
f 718 712 705
f 660 719 681
f 660 704 719
f 712 720 703
f 681 721 680
f 681 719 721
f 707 722 710
f 711 722 707
f 692 716 717
f 665 723 693
f 665 701 723
f 680 724 678
f 680 721 724
f 722 718 710
f 678 725 676
f 678 724 725
f 679 708 726
f 679 726 701
f 676 727 677
f 676 725 727
f 714 728 711
f 711 728 722
f 677 729 688
f 677 727 729
f 718 730 712
f 730 720 712
f 688 731 691
f 688 729 731
f 717 732 714
f 714 732 728
f 691 733 700
f 691 731 733
f 682 734 704
f 682 715 734
f 722 735 718
f 735 730 718
f 728 735 722
f 716 736 717
f 717 736 732
f 700 737 706
f 700 733 737
f 706 738 709
f 706 737 738
f 709 739 713
f 709 738 739
f 730 740 720
f 713 741 716
f 713 739 741
f 716 741 736
f 732 742 728
f 728 742 735
f 693 743 715
f 693 723 743
f 735 744 730
f 744 740 730
f 736 745 732
f 732 745 742
f 701 746 723
f 701 726 746
f 742 744 735
f 704 747 719
f 704 734 747
f 741 748 736
f 736 748 745
f 719 749 721
f 719 747 749
f 742 750 744
f 745 750 742
f 721 751 724
f 721 749 751
f 744 752 740
f 739 753 741
f 741 753 748
f 724 754 725
f 724 751 754
f 738 755 739
f 739 755 753
f 725 756 727
f 725 754 756
f 750 752 744
f 737 757 738
f 738 757 755
f 748 758 745
f 745 758 750
f 727 759 729
f 727 756 759
f 715 760 734
f 715 743 760
f 729 761 731
f 729 759 761
f 733 762 737
f 737 762 757
f 731 763 733
f 731 761 763
f 733 763 762
f 753 764 748
f 748 764 758
f 750 765 752
f 758 765 750
f 723 766 743
f 723 746 766
f 755 767 753
f 753 767 764
f 758 768 765
f 764 768 758
f 757 769 755
f 755 769 767
f 734 770 747
f 734 760 770
f 764 771 768
f 767 771 764
f 762 772 757
f 757 772 769
f 747 773 749
f 747 770 773
f 763 774 762
f 762 774 772
f 749 775 751
f 749 773 775
f 743 776 760
f 743 766 776
f 769 777 767
f 767 777 771
f 751 778 754
f 751 775 778
f 761 779 763
f 763 779 774
f 759 780 761
f 761 780 779
f 756 781 759
f 759 781 780
f 754 782 756
f 756 782 781
f 754 778 782
f 772 783 769
f 769 783 777
f 774 784 772
f 772 784 783
f 760 785 770
f 760 776 785
f 779 786 774
f 774 786 784
f 770 787 773
f 770 785 787
f 780 788 779
f 779 788 786
f 773 789 775
f 773 787 789
f 781 790 780
f 780 790 788
f 782 791 781
f 781 791 790
f 775 792 778
f 775 789 792
f 778 793 782
f 782 793 791
f 778 792 793
