# 
# Wavefront OBJ file
# Created with Kaydara FBX
# 
mtllib c:\users\tjvan\onedrive\documenten\fontys\minor\nx\.mtlmodels\lateral_patellar_retinaculum__horizontal_part_.r.obj

g Lateral_patellar_retinaculum__horizontal_part__r
v -0.116473 0.447042 -0.033999
v -0.116685 0.450329 -0.033419
v -0.116493 0.450302 -0.033468
v -0.115568 0.452202 -0.033092
v -0.115953 0.448604 -0.030262
v -0.115356 0.451097 -0.030037
v -0.115751 0.452258 -0.033032
v -0.116276 0.447063 -0.034029
v -0.115759 0.448590 -0.030307
v -0.115171 0.451047 -0.030092
v -0.116039 0.443614 -0.034519
v -0.115905 0.446178 -0.030635
v -0.115842 0.443642 -0.034545
v -0.115708 0.446198 -0.030668
v -0.115514 0.443170 -0.030974
v -0.115726 0.441168 -0.034842
v -0.115174 0.448049 -0.026666
v -0.114757 0.449903 -0.026765
v -0.115165 0.445372 -0.027410
v -0.115529 0.441191 -0.034864
v -0.115318 0.443198 -0.031003
v -0.114982 0.448030 -0.026722
v -0.114572 0.449856 -0.026824
v -0.115361 0.438136 -0.035178
v -0.115200 0.440770 -0.031285
v -0.114972 0.445389 -0.027456
v -0.115163 0.438152 -0.035197
v -0.115003 0.440789 -0.031312
v -0.114920 0.442607 -0.027725
v -0.115102 0.437773 -0.031225
v -0.114727 0.442634 -0.027766
v -0.114568 0.440071 -0.027832
v -0.114904 0.437782 -0.031251
v -0.113848 0.447644 -0.022546
v -0.114047 0.444949 -0.023402
v -0.113212 0.449467 -0.022631
v -0.114592 0.437287 -0.027882
v -0.114373 0.440085 -0.027873
v -0.113598 0.447598 -0.022628
v -0.113848 0.444961 -0.023463
v -0.113003 0.449399 -0.022706
v -0.113793 0.442071 -0.023824
v -0.114397 0.437289 -0.027926
v -0.113603 0.442096 -0.023879
v -0.113505 0.439696 -0.023882
v -0.113582 0.436882 -0.024412
v -0.113314 0.439711 -0.023938
v -0.113391 0.436888 -0.024469
v -0.112438 0.447822 -0.018305
v -0.112809 0.444927 -0.019176
v -0.112541 0.444907 -0.019251
v -0.112040 0.447662 -0.018405
v -0.111666 0.449489 -0.018179
v -0.112453 0.441538 -0.019811
v -0.112262 0.441560 -0.019865
v -0.111382 0.449360 -0.018244
v -0.112230 0.439243 -0.019962
v -0.112298 0.436404 -0.020679
v -0.112038 0.439261 -0.020017
v -0.112107 0.436417 -0.020738
v -0.111362 0.445002 -0.014350
v -0.111394 0.447870 -0.013906
v -0.111168 0.445011 -0.014401
v -0.111188 0.447837 -0.013951
v -0.111193 0.441303 -0.014913
v -0.110850 0.450065 -0.013509
v -0.111031 0.438826 -0.015263
v -0.110764 0.435793 -0.015921
v -0.111000 0.441321 -0.014962
v -0.110837 0.438844 -0.015309
v -0.110571 0.435813 -0.015967
v -0.110652 0.450027 -0.013546
v -0.110452 0.447793 -0.009354
v -0.110214 0.450678 -0.009167
v -0.110230 0.444814 -0.009948
v -0.110058 0.441209 -0.010575
v -0.109993 0.447815 -0.009461
v -0.109911 0.450680 -0.009228
v -0.109947 0.444836 -0.010026
v -0.110090 0.438232 -0.011154
v -0.109868 0.441226 -0.010635
v -0.109900 0.438251 -0.011215
v -0.109982 0.435260 -0.011798
v -0.109790 0.435286 -0.011857
v -0.109509 0.448221 -0.005207
v -0.109689 0.451433 -0.004709
v -0.109021 0.444578 -0.006055
v -0.109364 0.451420 -0.004767
v -0.108632 0.440734 -0.006963
v -0.108429 0.437623 -0.007424
v -0.108947 0.448237 -0.005320
v -0.108336 0.434598 -0.008201
v -0.108700 0.444613 -0.006136
v -0.108444 0.440760 -0.007027
v -0.108211 0.437701 -0.007501
v -0.108116 0.434679 -0.008283
v -0.108364 0.452254 -0.000305
v -0.108170 0.452250 -0.000353
v -0.108621 0.448509 -0.000571
v -0.107953 0.444891 -0.001777
v -0.108425 0.448526 -0.000615
v -0.107760 0.444925 -0.001817
v -0.107357 0.440643 -0.002513
v -0.106896 0.452849 0.004241
v -0.107398 0.448915 0.003943
v -0.107166 0.440680 -0.002560
v -0.106766 0.437023 -0.003188
v -0.106713 0.452833 0.004162
v -0.107210 0.448918 0.003875
v -0.106344 0.433374 -0.003856
v -0.106532 0.437151 -0.003251
v -0.106051 0.433614 -0.003928
v -0.107081 0.445259 0.002838
v -0.106892 0.445293 0.002783
v -0.105536 0.449843 0.007299
v -0.104784 0.453462 0.007970
v -0.106597 0.440962 0.001947
v -0.105357 0.449835 0.007211
v -0.104609 0.453445 0.007875
v -0.106412 0.441011 0.001889
v -0.106179 0.446342 0.006674
v -0.105992 0.446362 0.006604
v -0.105388 0.436401 0.001403
v -0.105401 0.441345 0.005319
v -0.105216 0.436477 0.001326
v -0.105224 0.441400 0.005244
v -0.103985 0.432601 0.000326
v -0.103771 0.432819 0.000229
v -0.102865 0.436385 0.005073
v -0.102716 0.436473 0.004973
v -0.099723 0.432333 0.005059
v -0.099585 0.432431 0.004953
usemtl Lateral_patellar_retinaculum__horizontal_part__rMaterial0
f 1 2 3
f 2 4 3
f 1 5 2
f 2 5 6
f 2 7 4
f 2 6 7
f 1 3 8
f 8 3 9
f 3 10 9
f 3 4 10
f 11 1 8
f 11 12 1
f 1 12 5
f 11 8 13
f 13 8 14
f 8 9 14
f 11 15 12
f 16 11 13
f 16 15 11
f 12 17 5
f 5 18 6
f 5 17 18
f 15 19 12
f 12 19 17
f 16 13 20
f 13 14 21
f 20 13 21
f 14 9 22
f 9 10 23
f 9 23 22
f 7 10 4
f 7 6 10
f 24 16 20
f 16 25 15
f 24 25 16
f 21 14 26
f 14 22 26
f 24 20 27
f 20 21 28
f 27 20 28
f 25 29 15
f 15 29 19
f 24 30 25
f 30 24 27
f 6 23 10
f 6 18 23
f 28 21 31
f 21 26 31
f 30 32 25
f 25 32 29
f 30 27 33
f 27 28 33
f 19 34 17
f 29 35 19
f 19 35 34
f 17 36 18
f 17 34 36
f 37 30 33
f 30 37 32
f 33 28 38
f 28 31 38
f 26 22 39
f 31 26 40
f 26 39 40
f 22 23 41
f 22 41 39
f 32 42 29
f 29 42 35
f 37 33 43
f 33 38 43
f 18 41 23
f 18 36 41
f 38 31 44
f 31 40 44
f 37 45 32
f 46 37 43
f 37 46 45
f 32 45 42
f 43 38 47
f 46 43 48
f 43 47 48
f 38 44 47
f 35 49 34
f 42 50 35
f 35 50 49
f 44 40 51
f 40 39 52
f 40 52 51
f 34 53 36
f 34 49 53
f 45 54 42
f 42 54 50
f 47 44 55
f 44 51 55
f 39 41 56
f 39 56 52
f 46 57 45
f 58 46 48
f 46 58 57
f 45 57 54
f 48 47 59
f 58 48 60
f 48 59 60
f 47 55 59
f 36 56 41
f 36 53 56
f 54 61 50
f 50 62 49
f 50 61 62
f 55 51 63
f 51 52 64
f 51 64 63
f 57 65 54
f 54 65 61
f 49 66 53
f 49 62 66
f 58 67 57
f 68 58 60
f 58 68 67
f 59 55 69
f 55 63 69
f 57 67 65
f 60 59 70
f 60 70 71
f 68 60 71
f 59 69 70
f 52 56 72
f 52 72 64
f 53 72 56
f 53 66 72
f 61 73 62
f 62 74 66
f 62 73 74
f 65 75 61
f 61 75 73
f 67 76 65
f 65 76 75
f 63 64 77
f 64 72 78
f 64 78 77
f 69 63 79
f 63 77 79
f 68 80 67
f 67 80 76
f 70 69 81
f 69 79 81
f 66 78 72
f 66 74 78
f 71 70 82
f 70 81 82
f 83 68 71
f 68 83 80
f 83 71 84
f 71 82 84
f 75 85 73
f 73 86 74
f 73 85 86
f 76 87 75
f 75 87 85
f 74 88 78
f 74 86 88
f 80 89 76
f 83 90 80
f 80 90 89
f 76 89 87
f 79 77 91
f 77 78 88
f 77 88 91
f 92 83 84
f 83 92 90
f 81 79 93
f 79 91 93
f 82 81 94
f 84 82 95
f 82 94 95
f 81 93 94
f 92 84 96
f 84 95 96
f 85 97 86
f 86 98 88
f 86 97 98
f 87 99 85
f 85 99 97
f 91 88 98
f 89 100 87
f 87 100 99
f 93 91 101
f 91 98 101
f 94 93 102
f 93 101 102
f 90 103 89
f 89 103 100
f 99 104 97
f 100 105 99
f 99 105 104
f 95 94 106
f 94 102 106
f 92 107 90
f 90 107 103
f 101 98 108
f 102 101 109
f 101 108 109
f 97 108 98
f 97 104 108
f 110 92 96
f 92 110 107
f 96 95 111
f 95 106 111
f 96 111 112
f 110 96 112
f 100 113 105
f 103 113 100
f 102 109 114
f 106 102 114
f 113 115 105
f 105 116 104
f 105 115 116
f 103 117 113
f 107 117 103
f 114 109 118
f 109 108 119
f 109 119 118
f 106 114 120
f 111 106 120
f 117 121 113
f 113 121 115
f 120 114 122
f 114 118 122
f 104 119 108
f 104 116 119
f 107 123 117
f 110 123 107
f 117 124 121
f 123 124 117
f 111 120 125
f 112 111 125
f 120 122 126
f 125 120 126
f 127 110 112
f 110 127 123
f 115 121 122
f 121 126 122
f 121 124 126
f 112 125 128
f 127 112 128
f 115 122 118
f 116 115 118
f 123 129 124
f 124 130 126
f 124 129 130
f 127 129 123
f 116 118 119
f 125 126 130
f 128 125 130
f 131 127 128
f 127 131 129
f 128 130 132
f 131 128 132
f 129 132 130
f 129 131 132
