# 
# Wavefront OBJ file
# Created with Kaydara FBX
# 
mtllib c:\users\tjvan\onedrive\documenten\fontys\minor\nx\.mtlmodels\medial_subtendinous_bursa_of_gastrocnemius_muscle.r.obj

g Medial_subtendinous_bursa_of_gastrocnemius_muscle_r
v -0.062850 0.459669 -0.053375
v -0.063257 0.457639 -0.054134
v -0.062827 0.457482 -0.053935
v -0.062652 0.456711 -0.056090
v -0.062286 0.456563 -0.055784
v -0.062426 0.459508 -0.053163
v -0.062200 0.458791 -0.055488
v -0.062436 0.462469 -0.052245
v -0.060535 0.454952 -0.057923
v -0.060800 0.455053 -0.058334
v -0.062068 0.462250 -0.051987
v -0.061817 0.458625 -0.055212
v -0.061411 0.461640 -0.054653
v -0.060935 0.466081 -0.051304
v -0.060129 0.457260 -0.058258
v -0.061068 0.461421 -0.054361
v -0.060672 0.465773 -0.051010
v -0.059862 0.457127 -0.057857
v -0.059277 0.465260 -0.053615
v -0.058943 0.460237 -0.057848
v -0.059040 0.464952 -0.053300
v -0.058715 0.460029 -0.057455
v -0.057691 0.469076 -0.050151
v -0.055898 0.452423 -0.060497
v -0.056052 0.452486 -0.060969
v -0.057536 0.468704 -0.049855
v -0.055346 0.454495 -0.061025
v -0.055199 0.454416 -0.060554
v -0.056526 0.463767 -0.056461
v -0.055949 0.468270 -0.051928
v -0.056376 0.463470 -0.056088
v -0.055828 0.467891 -0.051625
v -0.054197 0.457294 -0.060722
v -0.054086 0.457142 -0.060259
v -0.055633 0.469534 -0.050258
v -0.055559 0.469130 -0.049972
v -0.053731 0.466924 -0.054301
v -0.051784 0.460807 -0.059741
v -0.053658 0.466559 -0.053967
v -0.051733 0.460564 -0.059307
v -0.052158 0.451363 -0.061473
v -0.052218 0.451401 -0.061967
v -0.054192 0.468992 -0.051323
v -0.054144 0.468582 -0.051040
v -0.053679 0.469763 -0.050264
v -0.053642 0.469352 -0.049982
v -0.051182 0.452736 -0.061889
v -0.051138 0.452702 -0.061392
v -0.049745 0.454665 -0.061979
v -0.052309 0.468196 -0.052754
v -0.052670 0.469498 -0.050696
v -0.052292 0.467790 -0.052463
v -0.052652 0.469079 -0.050423
v -0.049736 0.454582 -0.061486
v -0.049394 0.464938 -0.056758
v -0.049391 0.464604 -0.056386
v -0.051010 0.469102 -0.051281
v -0.051011 0.468687 -0.051003
v -0.048274 0.466203 -0.055325
v -0.048301 0.465823 -0.055000
v -0.049435 0.450892 -0.061433
v -0.049434 0.450904 -0.061933
v -0.046590 0.459021 -0.060466
v -0.046634 0.458827 -0.060007
v -0.048581 0.451965 -0.061946
v -0.048585 0.451957 -0.061446
v -0.047139 0.467343 -0.053779
v -0.047172 0.466954 -0.053467
v -0.047404 0.453429 -0.061356
v -0.047361 0.453489 -0.061850
v -0.047119 0.450492 -0.061476
v -0.047120 0.450502 -0.061976
v -0.044668 0.462718 -0.057585
v -0.044587 0.463012 -0.057981
v -0.046401 0.451341 -0.061928
v -0.046408 0.451323 -0.061428
v -0.044269 0.464338 -0.055863
v -0.044183 0.464684 -0.056214
v -0.044312 0.457634 -0.060038
v -0.045422 0.452462 -0.061351
v -0.044208 0.457789 -0.060502
v -0.045366 0.452531 -0.061843
v -0.043850 0.466276 -0.054546
v -0.043920 0.465918 -0.054204
v -0.042461 0.456487 -0.059791
v -0.042338 0.456629 -0.060255
v -0.042720 0.461288 -0.057911
v -0.042587 0.461528 -0.058329
v -0.042812 0.463094 -0.056561
v -0.042677 0.463409 -0.056926
v -0.042805 0.465154 -0.055347
v -0.042918 0.464819 -0.054993
v -0.041614 0.461960 -0.057095
v -0.041897 0.464120 -0.055975
v -0.042035 0.463796 -0.055620
v -0.041279 0.459865 -0.058036
v -0.041470 0.462229 -0.057492
v -0.041125 0.460066 -0.058468
usemtl Medial_subtendinous_bursa_of_gastrocnemius_muscle_rMaterial0
f 1 2 3
f 1 4 2
f 2 5 3
f 2 4 5
f 1 3 6
f 1 7 4
f 8 1 6
f 8 7 1
f 6 3 5
f 4 9 5
f 7 10 4
f 4 10 9
f 8 6 11
f 6 5 12
f 11 6 12
f 8 13 7
f 14 8 11
f 14 13 8
f 12 5 9
f 13 15 7
f 7 15 10
f 11 12 16
f 17 11 16
f 14 11 17
f 16 12 18
f 12 9 18
f 14 19 13
f 13 20 15
f 19 20 13
f 17 16 21
f 16 18 22
f 21 16 22
f 23 14 17
f 23 19 14
f 10 24 9
f 15 25 10
f 10 25 24
f 26 17 21
f 23 17 26
f 18 9 24
f 20 27 15
f 15 27 25
f 22 18 28
f 18 24 28
f 19 29 20
f 23 30 19
f 30 29 19
f 21 22 31
f 26 21 32
f 32 21 31
f 29 33 20
f 20 33 27
f 31 22 34
f 22 28 34
f 35 23 26
f 35 30 23
f 36 26 32
f 35 26 36
f 30 37 29
f 29 38 33
f 37 38 29
f 32 31 39
f 31 34 40
f 39 31 40
f 25 41 24
f 27 42 25
f 25 42 41
f 35 43 30
f 43 37 30
f 28 24 41
f 36 32 44
f 44 32 39
f 45 35 36
f 45 43 35
f 46 36 44
f 45 36 46
f 33 47 27
f 27 47 42
f 34 28 48
f 28 41 48
f 38 49 33
f 33 49 47
f 43 50 37
f 45 51 43
f 51 50 43
f 44 39 52
f 46 44 53
f 53 44 52
f 40 34 54
f 34 48 54
f 50 55 37
f 37 55 38
f 51 45 46
f 52 39 56
f 39 40 56
f 51 46 53
f 57 51 53
f 51 57 50
f 53 52 58
f 57 53 58
f 57 59 50
f 50 59 55
f 58 52 60
f 52 56 60
f 42 61 41
f 47 62 42
f 42 62 61
f 48 41 61
f 38 63 49
f 55 63 38
f 40 54 64
f 56 40 64
f 49 65 47
f 47 65 62
f 54 48 66
f 48 61 66
f 67 57 58
f 58 60 68
f 67 58 68
f 57 67 59
f 54 66 69
f 64 54 69
f 49 70 65
f 63 70 49
f 62 71 61
f 66 61 71
f 65 72 62
f 62 72 71
f 60 56 73
f 56 64 73
f 59 74 55
f 55 74 63
f 70 75 65
f 65 75 72
f 69 66 76
f 66 71 76
f 68 60 77
f 60 73 77
f 67 78 59
f 59 78 74
f 64 69 79
f 69 76 80
f 79 69 80
f 63 81 70
f 70 82 75
f 81 82 70
f 83 67 68
f 68 77 84
f 83 68 84
f 67 83 78
f 72 76 71
f 72 75 76
f 73 64 79
f 74 81 63
f 75 80 76
f 75 82 80
f 82 85 80
f 79 80 85
f 81 86 82
f 82 86 85
f 73 79 87
f 77 73 87
f 74 88 81
f 78 88 74
f 87 79 85
f 84 77 89
f 77 87 89
f 88 86 81
f 83 90 78
f 78 90 88
f 91 83 84
f 84 89 92
f 91 84 92
f 83 91 90
f 92 89 93
f 94 91 92
f 94 92 95
f 92 93 95
f 89 87 96
f 89 96 93
f 91 97 90
f 91 94 97
f 87 85 96
f 90 98 88
f 90 97 98
f 88 98 86
f 86 96 85
f 86 98 96
f 97 94 95
f 97 95 93
f 98 97 93
f 98 93 96
