# 
# Wavefront OBJ file
# Created with Kaydara FBX
# 
mtllib c:\users\tjvan\onedrive\documenten\fontys\minor\nx\.mtlmodels\medial_collatertal_ligament.r.obj

g Medial_collatertal_ligament_r
v -0.060553 0.387313 -0.014455
v -0.060749 0.388221 -0.014078
v -0.060805 0.388240 -0.014179
v -0.060359 0.389536 -0.014259
v -0.060615 0.387343 -0.014548
v -0.057651 0.390397 -0.015518
v -0.057906 0.391484 -0.015222
v -0.057590 0.390371 -0.015423
v -0.060310 0.389527 -0.014154
v -0.057853 0.391469 -0.015119
v -0.060182 0.386663 -0.015045
v -0.060250 0.386703 -0.015131
v -0.057202 0.389623 -0.016115
v -0.057133 0.389585 -0.016029
v -0.057872 0.392568 -0.015145
v -0.057825 0.392559 -0.015039
v -0.059691 0.386175 -0.015672
v -0.059764 0.386223 -0.015749
v -0.056586 0.388917 -0.017047
v -0.056509 0.388868 -0.016976
v -0.059050 0.386091 -0.016412
v -0.059129 0.386154 -0.016469
v -0.055868 0.388831 -0.018161
v -0.055784 0.388761 -0.018121
v -0.058155 0.386642 -0.017362
v -0.058234 0.386727 -0.017374
v -0.054975 0.389540 -0.019472
v -0.054897 0.389454 -0.019475
v -0.057378 0.387456 -0.018491
v -0.057440 0.387550 -0.018460
v -0.055726 0.394313 -0.015931
v -0.055294 0.393339 -0.016396
v -0.055798 0.395478 -0.015796
v -0.055671 0.394298 -0.015829
v -0.055229 0.393316 -0.016302
v -0.055745 0.395464 -0.015694
v -0.054769 0.392565 -0.016961
v -0.054694 0.392533 -0.016877
v -0.056668 0.388424 -0.019519
v -0.056712 0.388515 -0.019461
v -0.054876 0.389904 -0.020267
v -0.054819 0.389812 -0.020310
v -0.054126 0.391765 -0.018053
v -0.054043 0.391723 -0.017982
v -0.054799 0.390305 -0.021043
v -0.054850 0.390396 -0.020991
v -0.053295 0.391617 -0.019249
v -0.053206 0.391559 -0.019201
v -0.052644 0.391795 -0.020800
v -0.053672 0.398643 -0.016373
v -0.053522 0.397709 -0.016700
v -0.052560 0.391715 -0.020792
v -0.053460 0.397688 -0.016604
v -0.053609 0.398620 -0.016278
v -0.052910 0.396683 -0.017291
v -0.052839 0.396658 -0.017202
v -0.052451 0.395976 -0.018034
v -0.052372 0.395945 -0.017954
v -0.052721 0.391904 -0.021502
v -0.052808 0.392020 -0.022209
v -0.052866 0.392110 -0.022162
v -0.052656 0.391815 -0.021536
v -0.051661 0.395091 -0.019166
v -0.051576 0.395054 -0.019096
v -0.050904 0.394680 -0.020407
v -0.050814 0.394632 -0.020351
v -0.051407 0.401914 -0.017017
v -0.051055 0.401121 -0.017523
v -0.050985 0.401096 -0.017433
v -0.051337 0.401890 -0.016926
v -0.050481 0.400229 -0.018312
v -0.050405 0.400201 -0.018229
v -0.050258 0.394204 -0.022040
v -0.050168 0.394135 -0.022016
v -0.049904 0.399466 -0.019178
v -0.050697 0.394331 -0.023959
v -0.050755 0.394420 -0.023911
v -0.049822 0.399434 -0.019101
v -0.050460 0.394143 -0.023008
v -0.050386 0.394056 -0.023032
v -0.049111 0.398515 -0.020532
v -0.049024 0.398478 -0.020465
v -0.048546 0.397888 -0.021839
v -0.048454 0.397846 -0.021781
v -0.049355 0.405166 -0.017892
v -0.048790 0.404455 -0.018521
v -0.048715 0.404430 -0.018436
v -0.049283 0.405142 -0.017804
v -0.048153 0.403670 -0.019364
v -0.048072 0.403640 -0.019286
v -0.047968 0.397055 -0.023309
v -0.047873 0.396999 -0.023269
v -0.048610 0.396681 -0.025686
v -0.048675 0.396766 -0.025642
v -0.047553 0.402931 -0.020380
v -0.048018 0.396515 -0.024510
v -0.047469 0.402899 -0.020306
v -0.047935 0.396434 -0.024523
v -0.046771 0.402052 -0.021619
v -0.046681 0.402015 -0.021555
v -0.047353 0.408376 -0.018605
v -0.046663 0.407730 -0.019386
v -0.046586 0.407704 -0.019302
v -0.047279 0.408352 -0.018519
v -0.046266 0.401297 -0.023134
v -0.046172 0.401257 -0.023078
v -0.046001 0.407119 -0.020215
v -0.045919 0.407089 -0.020139
v -0.046520 0.399045 -0.027390
v -0.046597 0.399126 -0.027359
v -0.045671 0.400297 -0.024803
v -0.045575 0.400251 -0.024757
v -0.045427 0.406510 -0.021231
v -0.045340 0.406476 -0.021162
v -0.045683 0.399463 -0.025921
v -0.045591 0.399393 -0.025917
v -0.044799 0.405774 -0.022418
v -0.044707 0.405738 -0.022357
v -0.045438 0.411657 -0.019365
v -0.044578 0.411043 -0.020362
v -0.044498 0.411018 -0.020282
v -0.045360 0.411633 -0.019281
v -0.044245 0.404934 -0.023949
v -0.044148 0.404895 -0.023897
v -0.043844 0.410508 -0.021298
v -0.044431 0.401418 -0.029080
v -0.043441 0.402537 -0.027651
v -0.044516 0.401495 -0.029062
v -0.043757 0.410479 -0.021227
v -0.043343 0.402475 -0.027636
v -0.043714 0.403755 -0.025822
v -0.043615 0.403714 -0.025775
v -0.043274 0.410011 -0.022307
v -0.043183 0.409979 -0.022242
v -0.043558 0.415017 -0.020227
v -0.042501 0.414424 -0.021410
v -0.042710 0.409338 -0.023461
v -0.042415 0.414399 -0.021335
v -0.043477 0.414995 -0.020146
v -0.042615 0.409303 -0.023405
v -0.042222 0.408642 -0.025034
v -0.042123 0.408603 -0.024986
v -0.041803 0.413996 -0.022550
v -0.043243 0.403085 -0.030278
v -0.043331 0.403160 -0.030260
v -0.041711 0.413968 -0.022484
v -0.041835 0.407618 -0.026805
v -0.041735 0.407580 -0.026759
v -0.041229 0.413564 -0.023590
v -0.041134 0.413535 -0.023530
v -0.041761 0.418899 -0.021043
v -0.040659 0.418332 -0.022415
v -0.040570 0.418313 -0.022342
v -0.041676 0.418884 -0.020964
v -0.041718 0.405083 -0.030534
v -0.041454 0.406280 -0.028651
v -0.040326 0.407208 -0.030739
v -0.041625 0.405014 -0.030544
v -0.041352 0.406235 -0.028616
v -0.040223 0.407154 -0.030724
v -0.040762 0.407372 -0.033499
v -0.040846 0.407454 -0.033450
v -0.040736 0.412899 -0.024763
v -0.040637 0.412866 -0.024710
v -0.040238 0.412255 -0.026336
v -0.040136 0.412219 -0.026293
v -0.039936 0.417928 -0.023648
v -0.039841 0.417904 -0.023585
v -0.039940 0.411421 -0.027763
v -0.039837 0.411385 -0.027723
v -0.039413 0.417500 -0.024775
v -0.040262 0.423419 -0.022242
v -0.039174 0.422976 -0.023442
v -0.039771 0.408279 -0.032947
v -0.039316 0.417474 -0.024718
v -0.039085 0.422967 -0.023367
v -0.040176 0.423412 -0.022163
v -0.039656 0.408177 -0.033006
v -0.039035 0.409352 -0.032355
v -0.039487 0.410236 -0.029905
v -0.038894 0.409259 -0.032387
v -0.039378 0.410196 -0.029874
v -0.038903 0.416790 -0.026001
v -0.038802 0.416761 -0.025951
v -0.041018 0.423587 -0.051833
v -0.040822 0.422633 -0.050895
v -0.041076 0.423647 -0.051752
v -0.040831 0.424487 -0.052413
v -0.040901 0.424527 -0.052329
v -0.037614 0.423377 -0.049059
v -0.038502 0.421109 -0.048014
v -0.037987 0.422079 -0.048408
v -0.040762 0.422574 -0.050976
v -0.037535 0.423334 -0.049135
v -0.038440 0.421037 -0.048081
v -0.037922 0.422015 -0.048481
v -0.040671 0.425889 -0.052797
v -0.040750 0.425900 -0.052712
v -0.037527 0.425520 -0.049630
v -0.038984 0.411185 -0.036400
v -0.039091 0.411309 -0.036296
v -0.037438 0.425509 -0.049707
v -0.040711 0.427378 -0.052802
v -0.040792 0.427370 -0.052719
v -0.037730 0.427425 -0.049706
v -0.040523 0.428241 -0.052518
v -0.040604 0.428225 -0.052436
v -0.038204 0.429255 -0.049832
v -0.038441 0.415958 -0.027545
v -0.037640 0.427436 -0.049781
v -0.038118 0.429283 -0.049905
v -0.038306 0.422606 -0.024553
v -0.038335 0.415926 -0.027508
v -0.039933 0.429180 -0.051821
v -0.040014 0.429153 -0.051742
v -0.038211 0.422590 -0.024487
v -0.038981 0.428241 -0.023439
v -0.037843 0.427912 -0.024599
v -0.038299 0.415098 -0.029328
v -0.037757 0.427906 -0.024521
v -0.038897 0.428236 -0.023358
v -0.038191 0.415065 -0.029296
v -0.038669 0.430437 -0.049849
v -0.038752 0.430397 -0.049778
v -0.037714 0.422154 -0.025692
v -0.037615 0.422133 -0.025635
v -0.037914 0.412109 -0.035878
v -0.037658 0.411801 -0.036151
v -0.037897 0.413877 -0.031617
v -0.037239 0.421470 -0.026861
v -0.037745 0.413788 -0.031643
v -0.037135 0.421446 -0.026814
v -0.036955 0.427585 -0.025656
v -0.037971 0.413837 -0.038143
v -0.038046 0.413922 -0.038068
v -0.037615 0.415180 -0.039100
v -0.036863 0.427575 -0.025586
v -0.037171 0.413329 -0.035187
v -0.037459 0.415020 -0.039240
v -0.037587 0.433034 -0.024374
v -0.036435 0.432929 -0.025667
v -0.036888 0.413018 -0.035445
v -0.036847 0.420613 -0.028565
v -0.036350 0.432919 -0.025588
v -0.037504 0.433026 -0.024292
v -0.036733 0.420584 -0.028531
v -0.037263 0.431385 -0.047170
v -0.036436 0.430011 -0.047053
v -0.037353 0.431338 -0.047112
v -0.036323 0.430045 -0.047111
v -0.037423 0.419496 -0.044256
v -0.036614 0.419474 -0.030736
v -0.037353 0.419416 -0.044313
v -0.036462 0.419438 -0.030704
v -0.036286 0.427105 -0.026700
v -0.036187 0.427089 -0.026641
v -0.035807 0.422051 -0.046016
v -0.036335 0.420944 -0.045447
v -0.035670 0.422010 -0.046076
v -0.036240 0.420877 -0.045504
v -0.035849 0.418062 -0.035797
v -0.036342 0.418486 -0.033198
v -0.035627 0.432715 -0.026684
v -0.035537 0.432702 -0.026611
v -0.035509 0.417844 -0.035920
v -0.036104 0.418394 -0.033204
v -0.035870 0.427822 -0.047034
v -0.035820 0.426306 -0.027877
v -0.035717 0.427835 -0.047096
v -0.037026 0.416257 -0.040278
v -0.037191 0.416446 -0.040125
v -0.035714 0.426285 -0.027834
v -0.035599 0.424687 -0.046796
v -0.036318 0.437724 -0.025322
v -0.034803 0.437962 -0.026616
v -0.035424 0.424676 -0.046860
v -0.034719 0.437950 -0.026536
v -0.036239 0.437716 -0.025238
v -0.035651 0.433266 -0.043115
v -0.034960 0.431695 -0.042455
v -0.035767 0.433237 -0.043049
v -0.034789 0.431717 -0.042528
v -0.035440 0.425353 -0.029712
v -0.035100 0.418997 -0.040539
v -0.035322 0.425327 -0.029682
v -0.034845 0.418828 -0.040650
v -0.034844 0.432161 -0.027761
v -0.034746 0.432144 -0.027701
v -0.035236 0.424107 -0.031769
v -0.035029 0.424067 -0.031738
v -0.034030 0.437841 -0.027492
v -0.035117 0.423205 -0.034215
v -0.034424 0.421472 -0.041494
v -0.033938 0.437827 -0.027421
v -0.034628 0.442747 -0.026232
v -0.033419 0.443043 -0.027317
v -0.034407 0.431169 -0.028997
v -0.034016 0.421400 -0.041531
v -0.033331 0.443031 -0.027241
v -0.034547 0.442737 -0.026149
v -0.034300 0.431147 -0.028956
v -0.034709 0.423140 -0.034162
v -0.034523 0.428759 -0.042818
v -0.034580 0.422394 -0.037059
v -0.034067 0.430041 -0.031027
v -0.034254 0.424945 -0.042334
v -0.035333 0.435002 -0.041729
v -0.035432 0.434991 -0.041657
v -0.034273 0.435269 -0.040014
v -0.034122 0.433362 -0.039441
v -0.033954 0.430016 -0.031008
v -0.034227 0.428763 -0.042871
v -0.033754 0.424919 -0.042386
v -0.034085 0.435275 -0.040135
v -0.033933 0.433366 -0.039537
v -0.033209 0.437205 -0.028781
v -0.033109 0.437187 -0.028724
v -0.033979 0.422300 -0.037017
v -0.034179 0.428652 -0.032980
v -0.034634 0.437230 -0.041064
v -0.034736 0.437237 -0.040986
v -0.034063 0.428629 -0.032974
v -0.034444 0.427297 -0.035267
v -0.032916 0.436191 -0.029939
v -0.032636 0.442914 -0.028332
v -0.032809 0.436167 -0.029901
v -0.033915 0.441903 -0.041143
v -0.034002 0.441921 -0.041068
v -0.034197 0.427265 -0.035254
v -0.032539 0.442902 -0.028269
v -0.033263 0.447453 -0.026863
v -0.032063 0.448006 -0.028302
v -0.034308 0.425899 -0.037678
v -0.031965 0.448000 -0.028239
v -0.033174 0.447445 -0.026789
v -0.034278 0.430260 -0.038591
v -0.033915 0.431278 -0.036284
v -0.033331 0.433068 -0.033925
v -0.032843 0.434801 -0.031784
v -0.032730 0.434773 -0.031773
v -0.033311 0.434968 -0.036670
v -0.033516 0.440918 -0.040207
v -0.033142 0.440029 -0.039233
v -0.032857 0.438194 -0.037698
v -0.034082 0.430256 -0.038629
v -0.033209 0.433044 -0.033939
v -0.033796 0.425853 -0.037667
v -0.033778 0.431263 -0.036314
v -0.033143 0.434952 -0.036740
v -0.033407 0.440901 -0.040283
v -0.033012 0.440011 -0.039303
v -0.032704 0.438177 -0.037771
v -0.031779 0.442168 -0.029904
v -0.032377 0.447770 -0.040719
v -0.032471 0.447776 -0.040651
v -0.031676 0.442154 -0.029852
v -0.032374 0.437337 -0.034600
v -0.032250 0.437310 -0.034629
v -0.032193 0.445325 -0.039855
v -0.031428 0.447895 -0.029609
v -0.032096 0.445309 -0.039918
v -0.031324 0.447889 -0.029557
v -0.031624 0.441001 -0.035782
v -0.032515 0.452471 -0.027546
v -0.031355 0.453209 -0.029466
v -0.031369 0.441118 -0.031263
v -0.032418 0.452473 -0.027482
v -0.031252 0.453213 -0.029413
v -0.031515 0.440973 -0.035813
v -0.032574 0.441032 -0.038498
v -0.032347 0.443322 -0.039221
v -0.031259 0.441098 -0.031232
v -0.032457 0.441009 -0.038549
v -0.032244 0.443299 -0.039270
v -0.031575 0.439145 -0.032745
v -0.031113 0.445164 -0.036980
v -0.031462 0.439115 -0.032742
v -0.031007 0.445140 -0.037022
v -0.030719 0.447190 -0.031145
v -0.030905 0.447905 -0.037875
v -0.030610 0.447184 -0.031103
v -0.032279 0.456164 -0.028297
v -0.031370 0.457113 -0.030131
v -0.031508 0.452349 -0.039437
v -0.031598 0.452335 -0.039364
v -0.030802 0.447889 -0.037926
v -0.032178 0.456174 -0.028241
v -0.031263 0.457126 -0.030087
v -0.032270 0.461330 -0.030164
v -0.032426 0.461278 -0.032247
v -0.032369 0.461274 -0.030189
v -0.031490 0.460214 -0.031287
v -0.032336 0.461350 -0.032229
v -0.032052 0.461276 -0.033849
v -0.031258 0.460127 -0.032778
v -0.032076 0.459485 -0.029107
v -0.032181 0.459458 -0.029150
v -0.030996 0.450624 -0.038662
v -0.031387 0.460258 -0.031259
v -0.031959 0.461345 -0.033856
v -0.031155 0.460179 -0.032767
v -0.030898 0.450623 -0.038726
v -0.031959 0.460722 -0.035190
v -0.032056 0.459546 -0.036448
v -0.032144 0.459492 -0.036392
v -0.031578 0.456917 -0.037654
v -0.032053 0.460661 -0.035155
v -0.030888 0.458342 -0.035761
v -0.030511 0.455027 -0.037368
v -0.030653 0.453106 -0.031147
v -0.030787 0.458383 -0.035800
v -0.031492 0.456957 -0.037721
v -0.030410 0.455050 -0.037421
v -0.030986 0.459452 -0.034423
v -0.030544 0.453111 -0.031106
v -0.030880 0.459497 -0.034440
v -0.030326 0.445698 -0.032570
v -0.030213 0.445686 -0.032545
v -0.030490 0.443484 -0.034298
v -0.030377 0.443459 -0.034309
v -0.029982 0.452299 -0.032940
v -0.030818 0.457028 -0.031670
v -0.029869 0.452304 -0.032912
v -0.030706 0.457045 -0.031642
v -0.029738 0.448313 -0.035810
v -0.029624 0.448299 -0.035832
v -0.029720 0.451931 -0.036614
v -0.030319 0.456261 -0.033499
v -0.029607 0.451934 -0.036646
v -0.030024 0.455025 -0.034921
v -0.030205 0.456280 -0.033486
v -0.029909 0.455043 -0.034926
v -0.029767 0.451036 -0.034283
v -0.029652 0.451037 -0.034269
usemtl Medial_collatertal_ligament_rMaterial0
f 1 2 3
f 2 4 3
f 1 3 5
f 6 5 3
f 7 3 4
f 6 3 7
f 8 2 1
f 2 9 4
f 10 9 2
f 8 10 2
f 11 1 5
f 11 5 12
f 13 12 5
f 13 5 6
f 14 1 11
f 14 8 1
f 9 15 4
f 7 4 15
f 9 16 15
f 10 16 9
f 17 11 12
f 17 12 18
f 19 18 12
f 19 12 13
f 20 11 17
f 20 14 11
f 21 17 18
f 21 18 22
f 23 22 18
f 23 18 19
f 24 17 21
f 24 20 17
f 25 21 22
f 25 22 26
f 27 26 22
f 27 22 23
f 28 21 25
f 28 24 21
f 29 25 26
f 29 26 30
f 27 30 26
f 28 25 29
f 31 7 15
f 32 6 7
f 32 7 31
f 16 33 15
f 31 15 33
f 34 16 10
f 35 10 8
f 35 34 10
f 16 36 33
f 34 36 16
f 37 13 6
f 37 6 32
f 38 8 14
f 38 35 8
f 39 29 30
f 39 30 40
f 41 40 30
f 27 41 30
f 42 29 39
f 28 29 42
f 43 19 13
f 43 13 37
f 44 14 20
f 44 38 14
f 45 39 40
f 41 46 40
f 45 40 46
f 42 39 45
f 47 23 19
f 47 19 43
f 48 20 24
f 48 44 20
f 49 27 23
f 49 23 47
f 36 50 33
f 51 31 33
f 51 33 50
f 52 24 28
f 52 48 24
f 53 36 34
f 36 54 50
f 53 54 36
f 55 32 31
f 55 31 51
f 56 34 35
f 56 53 34
f 57 37 32
f 57 32 55
f 58 35 38
f 58 56 35
f 49 41 27
f 52 28 42
f 59 46 41
f 49 59 41
f 60 45 46
f 60 46 61
f 59 61 46
f 62 42 45
f 52 42 62
f 62 45 60
f 63 43 37
f 63 37 57
f 64 38 44
f 64 58 38
f 65 47 43
f 65 43 63
f 66 44 48
f 66 64 44
f 54 67 50
f 68 51 50
f 68 50 67
f 69 54 53
f 54 70 67
f 69 70 54
f 71 55 51
f 71 51 68
f 72 53 56
f 72 69 53
f 73 49 47
f 73 47 65
f 74 48 52
f 74 66 48
f 75 57 55
f 75 55 71
f 76 60 61
f 77 61 59
f 76 61 77
f 78 56 58
f 78 72 56
f 76 62 60
f 79 59 49
f 77 59 79
f 80 52 62
f 76 80 62
f 79 49 73
f 80 74 52
f 81 63 57
f 81 57 75
f 82 58 64
f 82 78 58
f 83 65 63
f 83 63 81
f 84 64 66
f 84 82 64
f 70 85 67
f 86 68 67
f 86 67 85
f 87 70 69
f 70 88 85
f 87 88 70
f 89 71 68
f 89 68 86
f 90 69 72
f 90 87 69
f 91 73 65
f 91 65 83
f 92 66 74
f 92 84 66
f 93 76 77
f 94 77 79
f 93 77 94
f 93 80 76
f 95 75 71
f 95 71 89
f 73 96 79
f 94 79 96
f 97 72 78
f 97 90 72
f 74 80 98
f 93 98 80
f 73 91 96
f 74 98 92
f 99 81 75
f 99 75 95
f 100 78 82
f 100 97 78
f 88 101 85
f 102 86 85
f 102 85 101
f 103 88 87
f 88 104 101
f 103 104 88
f 105 83 81
f 105 81 99
f 106 82 84
f 106 100 82
f 107 89 86
f 107 86 102
f 108 87 90
f 108 103 87
f 109 93 94
f 110 94 96
f 109 94 110
f 109 98 93
f 111 91 83
f 111 83 105
f 112 84 92
f 112 106 84
f 113 95 89
f 113 89 107
f 114 90 97
f 114 108 90
f 91 115 96
f 110 96 115
f 91 111 115
f 92 98 116
f 109 116 98
f 92 116 112
f 117 99 95
f 117 95 113
f 118 97 100
f 118 114 97
f 104 119 101
f 120 102 101
f 120 101 119
f 121 104 103
f 104 122 119
f 121 122 104
f 123 105 99
f 123 99 117
f 124 100 106
f 124 118 100
f 125 107 102
f 125 102 120
f 126 109 110
f 127 110 115
f 126 110 128
f 127 128 110
f 129 103 108
f 129 121 103
f 130 116 109
f 130 109 126
f 131 111 105
f 131 105 123
f 132 106 112
f 132 124 106
f 133 113 107
f 133 107 125
f 134 108 114
f 134 129 108
f 111 127 115
f 111 131 127
f 112 116 130
f 112 130 132
f 122 135 119
f 136 120 119
f 136 119 135
f 137 117 113
f 137 113 133
f 138 122 121
f 122 139 135
f 138 139 122
f 140 114 118
f 140 134 114
f 141 123 117
f 141 117 137
f 142 118 124
f 142 140 118
f 143 125 120
f 143 120 136
f 144 126 128
f 145 128 127
f 144 128 145
f 146 121 129
f 146 138 121
f 144 130 126
f 147 131 123
f 147 123 141
f 148 124 132
f 148 142 124
f 149 133 125
f 149 125 143
f 150 129 134
f 150 146 129
f 147 127 131
f 148 132 130
f 139 151 135
f 152 136 135
f 152 135 151
f 153 139 138
f 139 154 151
f 153 154 139
f 145 127 155
f 147 156 127
f 127 157 155
f 127 156 157
f 144 158 130
f 148 130 159
f 130 158 160
f 130 160 159
f 161 144 145
f 162 145 155
f 161 145 162
f 163 137 133
f 163 133 149
f 161 158 144
f 164 134 140
f 164 150 134
f 165 141 137
f 165 137 163
f 166 140 142
f 166 164 140
f 167 143 136
f 167 136 152
f 168 138 146
f 168 153 138
f 169 147 141
f 169 141 165
f 170 142 148
f 170 166 142
f 169 156 147
f 171 149 143
f 171 143 167
f 154 172 151
f 173 152 151
f 173 151 172
f 170 148 159
f 162 155 174
f 174 155 157
f 175 146 150
f 175 168 146
f 176 154 153
f 154 177 172
f 176 177 154
f 161 178 158
f 178 160 158
f 179 157 156
f 169 180 156
f 179 156 180
f 181 159 160
f 170 159 182
f 181 182 159
f 183 163 149
f 183 149 171
f 184 150 164
f 184 175 150
f 185 186 187
f 188 185 187
f 188 187 189
f 190 189 187
f 187 186 191
f 187 191 192
f 190 187 192
f 185 193 186
f 194 185 188
f 185 195 193
f 185 196 195
f 194 196 185
f 197 188 189
f 197 189 198
f 199 198 189
f 199 189 190
f 200 161 162
f 201 162 174
f 200 162 201
f 193 191 186
f 202 188 197
f 202 194 188
f 203 198 204
f 205 204 198
f 206 203 204
f 206 204 207
f 208 207 204
f 208 204 205
f 200 178 161
f 193 195 191
f 203 197 198
f 205 198 199
f 209 165 163
f 209 163 183
f 210 197 203
f 211 203 206
f 211 210 203
f 210 202 197
f 212 167 152
f 212 152 173
f 213 164 166
f 213 184 164
f 214 206 207
f 214 207 215
f 208 215 207
f 216 153 168
f 216 176 153
f 211 206 214
f 174 157 179
f 177 217 172
f 218 173 172
f 218 172 217
f 219 169 165
f 219 165 209
f 178 181 160
f 220 177 176
f 177 221 217
f 220 221 177
f 222 166 170
f 222 213 166
f 223 214 215
f 223 215 224
f 208 224 215
f 219 180 169
f 225 171 167
f 225 167 212
f 211 214 223
f 222 170 182
f 226 168 175
f 226 216 168
f 201 174 227
f 227 174 179
f 200 228 178
f 228 181 178
f 229 179 180
f 219 229 180
f 230 183 171
f 230 171 225
f 231 182 181
f 222 182 231
f 232 175 184
f 232 226 175
f 233 212 173
f 233 173 218
f 234 200 201
f 234 201 235
f 201 236 235
f 201 227 236
f 237 176 216
f 237 220 176
f 227 179 238
f 229 238 179
f 239 200 234
f 239 228 200
f 221 240 217
f 241 218 217
f 241 217 240
f 231 181 242
f 228 242 181
f 243 209 183
f 243 183 230
f 244 221 220
f 221 245 240
f 244 245 221
f 246 184 213
f 246 232 184
f 247 223 224
f 248 224 208
f 247 224 249
f 248 249 224
f 250 211 223
f 250 223 247
f 195 251 191
f 192 191 251
f 252 219 209
f 252 209 243
f 196 253 195
f 195 253 251
f 254 213 222
f 254 246 213
f 252 229 219
f 255 225 212
f 255 212 233
f 256 216 226
f 256 237 216
f 248 208 205
f 254 222 231
f 250 210 211
f 239 234 235
f 239 235 236
f 257 190 192
f 192 251 258
f 257 192 258
f 238 236 227
f 259 196 194
f 196 260 253
f 259 260 196
f 261 238 229
f 252 262 229
f 261 229 262
f 263 233 218
f 263 218 241
f 264 220 237
f 264 244 220
f 265 231 242
f 254 231 266
f 265 266 231
f 267 205 199
f 248 205 267
f 268 230 225
f 268 225 255
f 242 228 239
f 269 202 210
f 250 269 210
f 270 239 236
f 238 271 236
f 270 236 271
f 272 226 232
f 272 256 226
f 273 199 190
f 273 190 257
f 245 274 240
f 275 241 240
f 275 240 274
f 276 194 202
f 276 259 194
f 267 199 273
f 277 245 244
f 245 278 274
f 277 278 245
f 242 239 270
f 269 276 202
f 253 271 251
f 258 251 271
f 253 270 271
f 260 270 253
f 279 247 249
f 280 249 248
f 279 249 281
f 280 281 249
f 282 250 247
f 282 247 279
f 283 243 230
f 283 230 268
f 284 271 238
f 258 271 284
f 284 238 261
f 285 232 246
f 285 272 232
f 286 242 270
f 260 286 270
f 287 255 233
f 287 233 263
f 286 265 242
f 288 237 256
f 288 264 237
f 289 252 243
f 289 243 283
f 290 246 254
f 290 285 246
f 289 262 252
f 290 254 266
f 280 248 267
f 291 263 241
f 291 241 275
f 292 261 262
f 289 292 262
f 293 257 258
f 293 258 284
f 294 244 264
f 294 277 244
f 282 269 250
f 278 295 274
f 296 275 274
f 296 274 295
f 297 268 255
f 297 255 287
f 298 260 259
f 298 286 260
f 299 278 277
f 278 300 295
f 299 300 278
f 301 256 272
f 301 288 256
f 302 266 265
f 290 266 302
f 303 267 273
f 280 267 303
f 292 304 261
f 304 284 261
f 305 283 268
f 305 268 297
f 306 273 257
f 306 257 293
f 307 279 281
f 307 281 308
f 309 308 281
f 310 281 280
f 310 309 281
f 311 272 285
f 311 301 272
f 312 276 269
f 282 312 269
f 313 259 276
f 313 298 259
f 307 314 279
f 315 282 279
f 315 279 314
f 316 287 263
f 316 263 291
f 303 273 306
f 317 264 288
f 317 294 264
f 318 265 286
f 302 265 318
f 312 313 276
f 319 289 283
f 319 283 305
f 320 307 308
f 320 308 321
f 309 321 308
f 307 320 314
f 322 285 290
f 322 311 285
f 319 292 289
f 323 304 292
f 319 323 292
f 304 293 284
f 322 290 302
f 310 280 303
f 318 286 298
f 324 297 287
f 324 287 316
f 325 291 275
f 325 275 296
f 315 312 282
f 326 288 301
f 326 317 288
f 327 320 321
f 328 321 309
f 327 321 328
f 322 302 329
f 329 302 318
f 330 277 294
f 330 299 277
f 327 314 320
f 300 331 295
f 332 296 295
f 332 295 331
f 323 333 304
f 333 293 304
f 334 300 299
f 300 335 331
f 334 335 300
f 336 303 306
f 310 303 336
f 337 333 323
f 338 323 319
f 338 337 323
f 333 306 293
f 339 305 297
f 339 297 324
f 336 306 333
f 337 336 333
f 340 301 311
f 340 326 301
f 341 310 336
f 341 336 337
f 341 309 310
f 328 309 342
f 309 343 342
f 341 344 309
f 309 344 343
f 315 345 312
f 345 313 312
f 346 322 329
f 329 318 347
f 348 329 347
f 346 329 348
f 338 319 305
f 349 345 315
f 348 347 345
f 345 347 313
f 349 348 345
f 349 315 314
f 327 350 314
f 314 350 351
f 349 314 352
f 314 351 352
f 346 311 322
f 338 305 339
f 353 316 291
f 353 291 325
f 347 318 298
f 347 298 313
f 354 327 328
f 342 355 328
f 354 328 355
f 346 340 311
f 356 294 317
f 356 330 294
f 357 337 338
f 357 341 337
f 350 327 354
f 358 346 348
f 358 348 349
f 359 342 343
f 342 359 355
f 360 325 296
f 360 296 332
f 361 351 350
f 350 354 361
f 357 338 339
f 362 299 330
f 362 334 299
f 363 344 341
f 363 341 357
f 335 364 331
f 365 331 364
f 365 332 331
f 358 340 346
f 366 324 316
f 366 316 353
f 335 367 364
f 368 367 335
f 368 335 334
f 369 349 352
f 369 358 349
f 370 343 344
f 370 371 343
f 359 343 371
f 372 317 326
f 372 356 317
f 373 352 351
f 373 351 374
f 361 374 351
f 375 339 324
f 375 324 366
f 376 370 344
f 376 344 363
f 357 339 375
f 377 326 340
f 377 372 326
f 358 377 340
f 378 352 373
f 378 369 352
f 379 353 325
f 379 325 360
f 380 371 370
f 380 370 376
f 381 330 356
f 381 362 330
f 367 382 364
f 383 364 382
f 383 365 364
f 384 354 355
f 385 355 359
f 384 355 385
f 386 373 374
f 386 378 373
f 367 387 382
f 388 387 367
f 388 367 368
f 389 390 391
f 391 390 392
f 389 393 390
f 393 394 390
f 390 394 395
f 390 395 392
f 363 357 375
f 384 361 354
f 396 389 391
f 396 391 397
f 391 392 397
f 398 359 371
f 398 371 380
f 389 399 393
f 393 400 394
f 393 401 400
f 393 399 401
f 387 397 382
f 392 382 397
f 392 383 382
f 389 396 399
f 369 377 358
f 402 374 361
f 402 386 374
f 385 359 398
f 387 396 397
f 399 396 387
f 399 387 388
f 403 404 405
f 404 406 405
f 403 405 407
f 407 405 408
f 405 406 409
f 405 409 408
f 384 402 361
f 410 360 332
f 410 332 365
f 403 411 404
f 404 412 406
f 404 413 412
f 404 411 413
f 400 407 394
f 394 407 414
f 400 403 407
f 407 408 414
f 394 414 395
f 415 334 362
f 415 368 334
f 400 416 403
f 403 416 411
f 400 401 416
f 417 366 353
f 417 353 379
f 418 356 372
f 418 381 356
f 363 375 419
f 376 363 419
f 412 385 406
f 406 385 398
f 412 384 385
f 419 375 366
f 406 398 409
f 369 420 377
f 378 420 369
f 412 402 384
f 412 413 402
f 395 383 392
f 420 372 377
f 421 379 360
f 421 360 410
f 401 399 388
f 419 366 417
f 422 365 383
f 395 422 383
f 422 410 365
f 423 362 381
f 423 415 362
f 420 418 372
f 424 388 368
f 424 368 415
f 401 388 424
f 414 422 395
f 416 401 424
f 380 376 425
f 376 419 425
f 386 426 378
f 378 426 420
f 398 380 427
f 398 427 409
f 408 428 414
f 414 428 422
f 380 425 427
f 402 429 386
f 402 413 429
f 409 430 408
f 408 430 428
f 411 416 431
f 416 424 431
f 428 410 422
f 386 429 426
f 413 411 432
f 411 431 432
f 433 417 379
f 433 379 421
f 431 424 415
f 428 421 410
f 434 381 418
f 434 423 381
f 431 415 423
f 409 427 430
f 419 417 433
f 419 433 425
f 413 432 429
f 420 434 418
f 420 426 434
f 430 421 428
f 432 431 423
f 430 433 421
f 425 433 430
f 425 430 427
f 432 423 434
f 426 432 434
f 426 429 432
