# 
# Wavefront OBJ file
# Created with Kaydara FBX
# 
mtllib c:\users\tjvan\onedrive\documenten\fontys\minor\nx\.mtlmodels\medial_dorsal_cutaneous_nerve.r.obj

g Medial_dorsal_cutaneous_nerve_r
v -0.094089 0.066311 0.028948
v -0.093779 0.065275 0.030892
v -0.094116 0.066463 0.029057
v -0.093251 0.066487 0.028955
v -0.093660 0.065454 0.030982
v -0.094013 0.066641 0.029167
v -0.093148 0.066665 0.029064
v -0.093940 0.066227 0.028870
v -0.093770 0.065120 0.030786
v -0.093456 0.066329 0.028873
v -0.093443 0.065608 0.031033
v -0.093809 0.066800 0.029248
v -0.093175 0.066817 0.029173
v -0.093633 0.065029 0.030694
v -0.093708 0.066234 0.028842
v -0.093270 0.064156 0.032694
v -0.093277 0.063997 0.032595
v -0.093136 0.064333 0.032764
v -0.093557 0.066894 0.029279
v -0.093325 0.066901 0.029252
v -0.093187 0.065696 0.031031
v -0.093407 0.065028 0.030639
v -0.092910 0.064481 0.032784
v -0.093154 0.063898 0.032491
v -0.092960 0.065694 0.030976
v -0.092654 0.064559 0.032750
v -0.093151 0.065116 0.030636
v -0.092936 0.063887 0.032411
v -0.092824 0.065604 0.030883
v -0.092606 0.063085 0.034469
v -0.092629 0.062923 0.034376
v -0.092459 0.063259 0.034517
v -0.092934 0.065270 0.030687
v -0.092435 0.064548 0.032670
v -0.092814 0.065448 0.030777
v -0.092522 0.062817 0.034265
v -0.092680 0.063966 0.032377
v -0.092228 0.063398 0.034508
v -0.092314 0.062794 0.034164
v -0.092454 0.064114 0.032397
v -0.092313 0.064450 0.032566
v -0.091975 0.063466 0.034445
v -0.092320 0.064291 0.032466
v -0.092060 0.062862 0.034100
v -0.091766 0.063443 0.034344
v -0.091808 0.062044 0.036220
v -0.091846 0.061881 0.036137
v -0.091650 0.062212 0.036248
v -0.091755 0.061766 0.036020
v -0.091416 0.062340 0.036212
v -0.091829 0.063001 0.034092
v -0.091660 0.063336 0.034232
v -0.091559 0.061730 0.035902
v -0.091683 0.063175 0.034140
v -0.091167 0.062394 0.036123
v -0.091310 0.061784 0.035813
v -0.090970 0.062358 0.036005
v -0.090894 0.061013 0.037956
v -0.090947 0.060849 0.037882
v -0.091075 0.061911 0.035777
v -0.090726 0.061173 0.037964
v -0.090879 0.062243 0.035888
v -0.090872 0.060726 0.037763
v -0.090918 0.062080 0.035805
v -0.090490 0.061287 0.037904
v -0.090688 0.060676 0.037630
v -0.090247 0.061324 0.037793
v -0.090446 0.060713 0.037519
v -0.090064 0.061274 0.037660
v -0.090210 0.060827 0.037459
v -0.089989 0.061151 0.037541
v -0.089881 0.059970 0.039682
v -0.089949 0.059808 0.039619
v -0.090042 0.060987 0.037468
v -0.089705 0.060120 0.039672
v -0.089890 0.059677 0.039499
v -0.089468 0.060218 0.039591
v -0.089721 0.059612 0.039355
v -0.089234 0.060237 0.039461
v -0.089486 0.059631 0.039225
v -0.089064 0.060172 0.039317
v -0.089249 0.059729 0.039145
v -0.089006 0.060042 0.039198
v -0.089073 0.059879 0.039134
v -0.088871 0.058737 0.041353
v -0.088789 0.058896 0.041407
v -0.088829 0.058599 0.041235
v -0.088606 0.059034 0.041380
v -0.088675 0.058520 0.041082
v -0.088369 0.059114 0.041281
v -0.088449 0.058519 0.040937
v -0.088143 0.059113 0.041135
v -0.088213 0.058599 0.040838
v -0.087989 0.059034 0.040983
v -0.088029 0.058737 0.040811
v -0.087947 0.058896 0.040864
v -0.087731 0.057617 0.043093
v -0.087635 0.057771 0.043136
v -0.087706 0.057473 0.042977
v -0.087444 0.057894 0.043095
v -0.087567 0.057379 0.042818
v -0.087210 0.057954 0.042979
v -0.087351 0.057359 0.042660
v -0.086994 0.057934 0.042821
v -0.087117 0.057418 0.042545
v -0.086855 0.057839 0.042663
v -0.086926 0.057542 0.042503
v -0.086830 0.057696 0.042546
v -0.086545 0.056426 0.044845
v -0.086436 0.056573 0.044878
v -0.086537 0.056279 0.044731
v -0.086239 0.056680 0.044823
v -0.086415 0.056170 0.044569
v -0.086008 0.056719 0.044694
v -0.086211 0.056130 0.044400
v -0.085804 0.056678 0.044526
v -0.085980 0.056169 0.044271
v -0.085682 0.056570 0.044363
v -0.085783 0.056276 0.044216
v -0.085674 0.056423 0.044250
v -0.085331 0.055145 0.046616
v -0.085342 0.054996 0.046506
v -0.085209 0.055283 0.046640
v -0.085008 0.055372 0.046573
v -0.085237 0.054874 0.046341
v -0.084781 0.055389 0.046432
v -0.085046 0.054814 0.046164
v -0.084590 0.055329 0.046255
v -0.084820 0.054831 0.046023
v -0.084486 0.055207 0.046090
v -0.084618 0.054920 0.045956
v -0.084496 0.055058 0.045980
v -0.084107 0.053754 0.048414
v -0.084136 0.053604 0.048308
v -0.083973 0.053881 0.048430
v -0.084050 0.053471 0.048140
v -0.083768 0.053950 0.048352
v -0.083874 0.053392 0.047957
v -0.083548 0.053945 0.048200
v -0.083654 0.053386 0.047805
v -0.083372 0.053865 0.048017
v -0.083449 0.053456 0.047727
v -0.083286 0.053733 0.047849
v -0.083315 0.053583 0.047743
v -0.082890 0.052231 0.050245
v -0.082935 0.052081 0.050146
v -0.082745 0.052347 0.050251
v -0.082868 0.051937 0.049979
v -0.082540 0.052398 0.050161
v -0.082708 0.051839 0.049790
v -0.082330 0.052371 0.050000
v -0.082497 0.051812 0.049629
v -0.082170 0.052273 0.049811
v -0.082292 0.051864 0.049539
v -0.082103 0.052130 0.049644
v -0.082148 0.051980 0.049545
v -0.081736 0.050702 0.052034
v -0.081780 0.050548 0.051935
v -0.081590 0.050822 0.052038
v -0.081711 0.050401 0.051768
v -0.081383 0.050875 0.051946
v -0.081547 0.050300 0.051577
v -0.081168 0.050847 0.051782
v -0.081333 0.050272 0.051414
v -0.081005 0.050746 0.051591
v -0.081125 0.050325 0.051322
v -0.080936 0.050599 0.051424
v -0.080980 0.050444 0.051325
v -0.080523 0.049228 0.053886
v -0.080565 0.049068 0.053790
v -0.080378 0.049353 0.053886
v -0.080492 0.048915 0.053624
v -0.080168 0.049409 0.053791
v -0.080325 0.048811 0.053432
v -0.079950 0.049381 0.053625
v -0.080107 0.048782 0.053266
v -0.079782 0.049276 0.053433
v -0.079897 0.048838 0.053171
v -0.079709 0.049123 0.053267
v -0.079751 0.048963 0.053171
v -0.079261 0.047803 0.055806
v -0.079301 0.047637 0.055713
v -0.079115 0.047932 0.055803
v -0.079225 0.047478 0.055548
v -0.078903 0.047989 0.055705
v -0.079052 0.047370 0.055356
v -0.078681 0.047960 0.055537
v -0.078830 0.047341 0.055188
v -0.078509 0.047852 0.055345
v -0.078618 0.047398 0.055089
v -0.078432 0.047693 0.055180
v -0.078472 0.047527 0.055086
v -0.077960 0.046418 0.057799
v -0.077998 0.046247 0.057708
v -0.077814 0.046551 0.057793
v -0.077918 0.046083 0.057545
v -0.077598 0.046610 0.057693
v -0.077740 0.045970 0.057353
v -0.077372 0.046579 0.057524
v -0.077514 0.045939 0.057184
v -0.077195 0.046466 0.057332
v -0.077298 0.045998 0.057083
v -0.077114 0.046302 0.057169
v -0.077152 0.046131 0.057078
v -0.076630 0.045067 0.059870
v -0.076666 0.044891 0.059781
v -0.076482 0.045203 0.059862
v -0.076582 0.044722 0.059619
v -0.076263 0.045263 0.059760
v -0.076399 0.044605 0.059428
v -0.076032 0.045230 0.059591
v -0.076167 0.044572 0.059259
v -0.075849 0.045113 0.059400
v -0.075948 0.044631 0.059157
v -0.075765 0.044944 0.059238
v -0.075801 0.044768 0.059149
v -0.075279 0.043743 0.062024
v -0.075314 0.043562 0.061937
v -0.075131 0.043882 0.062015
v -0.075226 0.043388 0.061777
v -0.074908 0.043942 0.061912
v -0.075038 0.043267 0.061587
v -0.074670 0.043907 0.061743
v -0.074800 0.043231 0.061419
v -0.074482 0.043785 0.061554
v -0.074578 0.043291 0.061316
v -0.074394 0.043611 0.061394
v -0.074429 0.043430 0.061307
v -0.073919 0.042440 0.064266
v -0.073953 0.042254 0.064180
v -0.073768 0.042581 0.064256
v -0.073860 0.042074 0.064023
v -0.073541 0.042641 0.064154
v -0.073666 0.041948 0.063835
v -0.073298 0.042602 0.063987
v -0.073423 0.041910 0.063668
v -0.073104 0.042477 0.063799
v -0.073196 0.041970 0.063565
v -0.073011 0.042297 0.063641
v -0.073045 0.042111 0.063556
v -0.072558 0.041149 0.066601
v -0.072591 0.040959 0.066517
v -0.072405 0.041292 0.066592
v -0.072495 0.040774 0.066362
v -0.072173 0.041351 0.066491
v -0.072295 0.040644 0.066176
v -0.071924 0.041310 0.066325
v -0.072045 0.040602 0.066011
v -0.071724 0.041179 0.066140
v -0.071813 0.040661 0.065910
v -0.071627 0.040995 0.065984
v -0.071660 0.040805 0.065900
v -0.071207 0.039864 0.069036
v -0.071239 0.039671 0.068952
v -0.071051 0.040009 0.069026
v -0.071139 0.039481 0.068799
v -0.070814 0.040068 0.068927
v -0.070933 0.039345 0.068617
v -0.070558 0.040023 0.068765
v -0.070677 0.039300 0.068454
v -0.070352 0.039887 0.068583
v -0.070439 0.039358 0.068355
v -0.070251 0.039697 0.068429
v -0.070283 0.039504 0.068346
v -0.069875 0.038579 0.071574
v -0.069906 0.038381 0.071491
v -0.069716 0.038725 0.071566
v -0.069802 0.038186 0.071340
v -0.069473 0.038782 0.071469
v -0.069590 0.038046 0.071161
v -0.069210 0.038734 0.071310
v -0.069327 0.037997 0.071002
v -0.068998 0.038593 0.071132
v -0.069083 0.038054 0.070906
v -0.068893 0.038398 0.070981
v -0.068925 0.038201 0.070898
v -0.068571 0.037286 0.074221
v -0.068602 0.037085 0.074138
v -0.068409 0.037433 0.074214
v -0.068494 0.036884 0.073990
v -0.068160 0.037489 0.074122
v -0.068276 0.036739 0.073815
v -0.067890 0.037436 0.073967
v -0.068006 0.036686 0.073660
v -0.067671 0.037290 0.073792
v -0.067756 0.036741 0.073568
v -0.067563 0.037090 0.073644
v -0.067594 0.036889 0.073562
v -0.067306 0.035978 0.076982
v -0.067336 0.035773 0.076900
v -0.067140 0.036126 0.076978
v -0.067225 0.035568 0.076754
v -0.066885 0.036180 0.076890
v -0.067000 0.035417 0.076583
v -0.066608 0.036123 0.076740
v -0.066723 0.035360 0.076434
v -0.066383 0.035972 0.076569
v -0.066468 0.035414 0.076345
v -0.066271 0.035767 0.076424
v -0.066302 0.035562 0.076341
v -0.106085 0.116791 -0.036501
v -0.105703 0.112060 -0.034640
v -0.106020 0.116895 -0.036027
v -0.104754 0.116936 -0.035928
v -0.105971 0.116708 -0.036899
v -0.105808 0.111896 -0.035076
v -0.104819 0.116832 -0.036402
v -0.105448 0.112216 -0.034269
v -0.105794 0.116990 -0.035603
v -0.104867 0.117020 -0.035531
v -0.105733 0.111770 -0.035459
v -0.105710 0.116665 -0.037113
v -0.105045 0.116738 -0.036826
v -0.105166 0.107737 -0.033218
v -0.105032 0.107964 -0.032836
v -0.105468 0.117051 -0.035343
v -0.105129 0.117062 -0.035317
v -0.105110 0.112324 -0.034062
v -0.105500 0.111714 -0.035687
v -0.105123 0.107560 -0.033573
v -0.104758 0.108180 -0.032531
v -0.105371 0.116676 -0.037086
v -0.105170 0.111744 -0.035700
v -0.104916 0.107480 -0.033807
v -0.104781 0.112354 -0.034075
v -0.104418 0.108327 -0.032383
v -0.104232 0.104191 -0.030911
v -0.104078 0.104474 -0.030595
v -0.104832 0.111852 -0.035493
v -0.104600 0.107518 -0.033856
v -0.104215 0.103963 -0.031224
v -0.104547 0.112298 -0.034303
v -0.104102 0.108365 -0.032433
v -0.103794 0.104735 -0.030362
v -0.104031 0.103851 -0.031452
v -0.104473 0.112172 -0.034687
v -0.104577 0.112008 -0.035122
v -0.104260 0.107665 -0.033709
v -0.103895 0.108285 -0.032666
v -0.103456 0.104905 -0.030275
v -0.103730 0.103884 -0.031533
v -0.103986 0.107881 -0.033403
v -0.103852 0.108108 -0.033021
v -0.103156 0.104939 -0.030355
v -0.103393 0.104055 -0.031445
v -0.103080 0.101128 -0.028139
v -0.102910 0.101447 -0.027893
v -0.103084 0.100860 -0.028404
v -0.102972 0.104826 -0.030583
v -0.102620 0.101731 -0.027730
v -0.102921 0.100714 -0.028615
v -0.103109 0.104316 -0.031212
v -0.102955 0.104598 -0.030896
v -0.102287 0.101904 -0.027694
v -0.102635 0.100729 -0.028717
v -0.102000 0.101919 -0.027796
v -0.102302 0.100902 -0.028682
v -0.101837 0.101774 -0.028007
v -0.102012 0.101186 -0.028519
v -0.101782 0.098405 -0.024883
v -0.101807 0.098111 -0.025100
v -0.101595 0.098738 -0.024697
v -0.101842 0.101505 -0.028272
v -0.101664 0.097936 -0.025290
v -0.101297 0.099021 -0.024592
v -0.101391 0.097927 -0.025402
v -0.100967 0.099179 -0.024596
v -0.101061 0.098085 -0.025406
v -0.100694 0.099169 -0.024707
v -0.100763 0.098368 -0.025300
v -0.100551 0.098994 -0.024897
v -0.100576 0.098701 -0.025114
v -0.100404 0.095876 -0.021115
v -0.100452 0.095573 -0.021292
v -0.100198 0.096204 -0.020976
v -0.100330 0.095376 -0.021460
v -0.099890 0.096469 -0.020912
v -0.100070 0.095338 -0.021573
v -0.099561 0.096600 -0.020940
v -0.099741 0.095469 -0.021601
v -0.099301 0.096562 -0.021053
v -0.099433 0.095734 -0.021537
v -0.099179 0.096365 -0.021221
v -0.100370 0.038374 0.065418
v -0.100610 0.037591 0.066429
v -0.100610 0.037714 0.066523
v -0.099816 0.037763 0.066759
v -0.100260 0.038273 0.065366
v -0.100503 0.037491 0.066380
v -0.099815 0.037640 0.066665
v -0.100371 0.038498 0.065516
v -0.100505 0.037827 0.066636
v -0.099923 0.037862 0.066808
v -0.099227 0.096062 -0.021398
v -0.100071 0.038222 0.065372
v -0.100318 0.037441 0.066387
v -0.099921 0.037527 0.066552
v -0.100263 0.038612 0.065633
v -0.100321 0.037900 0.066738
v -0.100108 0.037912 0.066801
v -0.099010 0.093399 -0.016800
v -0.099084 0.093098 -0.016948
v -0.098783 0.093708 -0.016693
v -0.100148 0.039132 0.064467
v -0.100035 0.039030 0.064411
v -0.100149 0.039258 0.064569
v -0.100105 0.037454 0.066450
v -0.099853 0.038236 0.065437
v -0.100075 0.038686 0.065738
v -0.098984 0.092886 -0.017097
v -0.099841 0.038979 0.064417
v -0.100039 0.039374 0.064690
v -0.098464 0.093944 -0.016655
v -0.099943 0.039860 0.063576
v -0.099827 0.039757 0.063518
v -0.099945 0.039988 0.063682
v -0.099665 0.038310 0.065541
v -0.099857 0.038700 0.065802
v -0.099618 0.038993 0.064483
v -0.099847 0.039448 0.064797
v -0.098738 0.092820 -0.017206
v -0.099629 0.039706 0.063523
v -0.099833 0.040105 0.063807
v -0.099756 0.040554 0.062748
v -0.099637 0.040450 0.062688
v -0.099758 0.040683 0.062858
v -0.099557 0.038424 0.065658
v -0.099668 0.038649 0.065809
v -0.098138 0.094042 -0.016696
v -0.099426 0.039068 0.064590
v -0.099624 0.039463 0.064863
v -0.099401 0.039721 0.063590
v -0.099636 0.040181 0.063917
v -0.099434 0.040398 0.062692
v -0.099643 0.040802 0.062987
v -0.099558 0.038548 0.065756
v -0.099585 0.041208 0.061985
v -0.099463 0.041102 0.061922
v -0.099587 0.041338 0.062098
v -0.098412 0.092918 -0.017247
v -0.099316 0.039184 0.064711
v -0.099430 0.039412 0.064868
v -0.099205 0.039797 0.063700
v -0.099408 0.040196 0.063984
v -0.099201 0.040413 0.062760
v -0.099443 0.040879 0.063100
v -0.099256 0.041050 0.061926
v -0.099471 0.041459 0.062231
v -0.099430 0.041815 0.061289
v -0.099306 0.041708 0.061223
v -0.099433 0.041947 0.061405
v -0.099317 0.039310 0.064813
v -0.097892 0.093976 -0.016805
v -0.099094 0.041655 0.061227
v -0.099266 0.041537 0.062348
v -0.099314 0.042070 0.061542
v -0.099092 0.039914 0.063825
v -0.099210 0.040145 0.063989
v -0.099018 0.041065 0.061995
v -0.099210 0.040894 0.063169
v -0.099291 0.042371 0.060661
v -0.099165 0.042263 0.060593
v -0.099295 0.042505 0.060780
v -0.098093 0.093153 -0.017209
v -0.099000 0.040491 0.062874
v -0.099094 0.040042 0.063931
v -0.098948 0.042209 0.060596
v -0.099174 0.042629 0.060921
v -0.099105 0.042149 0.061662
v -0.099169 0.042871 0.060103
v -0.099039 0.042760 0.060033
v -0.099172 0.043007 0.060226
v -0.097792 0.093764 -0.016954
v -0.098851 0.041671 0.061298
v -0.099028 0.041552 0.062417
v -0.097866 0.093463 -0.017102
v -0.098886 0.040610 0.063003
v -0.099007 0.040843 0.063173
v -0.098813 0.041144 0.062112
v -0.098818 0.042706 0.060037
v -0.099049 0.043133 0.060369
v -0.098961 0.042710 0.061044
v -0.099061 0.043308 0.059616
v -0.098929 0.043196 0.059546
v -0.099065 0.043447 0.059742
v -0.098862 0.042164 0.061733
v -0.098888 0.040738 0.063112
v -0.098700 0.042225 0.060669
v -0.097667 0.090832 -0.011906
v -0.097766 0.090543 -0.012034
v -0.098969 0.043679 0.059204
v -0.098834 0.043563 0.059133
v -0.098939 0.043575 0.059889
v -0.098972 0.043821 0.059331
v -0.098832 0.043214 0.060496
v -0.098704 0.043139 0.059550
v -0.098820 0.041500 0.062421
v -0.098696 0.041264 0.062245
v -0.098642 0.041750 0.061418
v -0.097419 0.091114 -0.011818
v -0.097691 0.090323 -0.012168
v -0.098713 0.042725 0.061117
v -0.098890 0.043977 0.058866
v -0.098754 0.043856 0.058797
v -0.098844 0.043951 0.059482
v -0.098894 0.044123 0.058994
v -0.098566 0.042721 0.060112
v -0.098605 0.043504 0.059139
v -0.098718 0.043657 0.060019
v -0.098699 0.041395 0.062358
v -0.098827 0.044195 0.058607
v -0.098690 0.044069 0.058541
v -0.098763 0.044256 0.059146
v -0.098829 0.044347 0.058734
v -0.098650 0.042112 0.061736
v -0.098523 0.041873 0.061554
v -0.098487 0.042305 0.060792
v -0.098447 0.043154 0.059627
v -0.098579 0.043230 0.060570
v -0.098522 0.043794 0.058805
v -0.098619 0.044034 0.059614
v -0.097706 0.047383 0.054717
v -0.097568 0.047255 0.054651
v -0.098696 0.044484 0.058888
v -0.097708 0.047538 0.054842
v -0.097089 0.091313 -0.011794
v -0.098454 0.044002 0.058552
v -0.098534 0.044340 0.059283
v -0.097461 0.090232 -0.012272
v -0.098526 0.042005 0.061671
v -0.098348 0.042803 0.060238
v -0.098496 0.042672 0.061120
v -0.098343 0.043518 0.059218
v -0.098460 0.043672 0.060096
v -0.097330 0.047189 0.054663
v -0.098462 0.044569 0.059027
v -0.097572 0.047679 0.054994
v -0.098366 0.042429 0.060933
v -0.098357 0.044048 0.059694
v -0.098255 0.043806 0.058889
v -0.098358 0.043175 0.060574
v -0.098225 0.043237 0.059757
v -0.098369 0.042563 0.061052
v -0.098183 0.044013 0.058639
v -0.098267 0.044352 0.059367
v -0.098225 0.042928 0.060382
v -0.098118 0.043602 0.059351
v -0.098235 0.043616 0.060100
v -0.097056 0.047202 0.054748
v -0.098191 0.044580 0.059114
v -0.097336 0.047768 0.055130
v -0.096766 0.091375 -0.011840
v -0.097138 0.090294 -0.012318
v -0.098229 0.043065 0.060505
v -0.098100 0.043365 0.059904
v -0.098026 0.043890 0.059025
v -0.098128 0.043989 0.059700
v -0.098035 0.044290 0.059375
v -0.097949 0.044099 0.058778
v -0.098103 0.043503 0.060030
v -0.097990 0.043732 0.059502
v -0.096820 0.047291 0.054884
v -0.097955 0.044514 0.059126
v -0.097062 0.047781 0.055215
v -0.097993 0.043874 0.059629
v -0.096536 0.091285 -0.011944
v -0.097895 0.044023 0.059178
v -0.096809 0.090493 -0.012294
v -0.097815 0.044236 0.058932
v -0.097898 0.044169 0.059306
v -0.096685 0.047432 0.055036
v -0.097818 0.044388 0.059059
v -0.096824 0.047715 0.055227
v -0.096461 0.091065 -0.012078
v -0.096561 0.090775 -0.012206
v -0.096686 0.047587 0.055161
v -0.096564 0.087767 -0.006516
v -0.096438 0.088039 -0.006399
v -0.096787 0.050245 0.051134
v -0.096648 0.050117 0.051067
v -0.096789 0.050403 0.051259
v -0.096514 0.087546 -0.006640
v -0.096172 0.088287 -0.006321
v -0.096408 0.050053 0.051075
v -0.096651 0.050548 0.051407
v -0.096302 0.087433 -0.006739
v -0.095835 0.088446 -0.006303
v -0.096131 0.050070 0.051155
v -0.096412 0.050642 0.051539
v -0.095986 0.087460 -0.006786
v -0.095519 0.088473 -0.006349
v -0.095891 0.050164 0.051287
v -0.096135 0.050660 0.051619
v -0.095754 0.050310 0.051435
v -0.095894 0.050596 0.051627
v -0.095650 0.087619 -0.006768
v -0.096049 0.052814 0.047832
v -0.095908 0.052686 0.047763
v -0.096050 0.052975 0.047956
v -0.095308 0.088360 -0.006448
v -0.095755 0.050468 0.051559
v -0.095665 0.052625 0.047767
v -0.095910 0.053125 0.048100
v -0.095542 0.084633 -0.000358
v -0.095393 0.084881 -0.000247
v -0.095383 0.087867 -0.006690
v -0.095258 0.088139 -0.006573
v -0.095517 0.084415 -0.000478
v -0.095112 0.085093 -0.000174
v -0.095385 0.052647 0.047842
v -0.095668 0.053224 0.048227
v -0.095326 0.084285 -0.000573
v -0.094772 0.085210 -0.000158
v -0.095142 0.052747 0.047969
v -0.095387 0.053246 0.048302
v -0.095469 0.055122 0.044789
v -0.095327 0.054995 0.044718
v -0.095470 0.055285 0.044911
v -0.095020 0.084278 -0.000619
v -0.095082 0.054936 0.044717
v -0.095328 0.055440 0.045052
v -0.095003 0.052897 0.048113
v -0.095144 0.053185 0.048306
v -0.094466 0.085203 -0.000204
v -0.095004 0.053057 0.048237
v -0.094798 0.054963 0.044787
v -0.095083 0.055545 0.045173
v -0.094681 0.084396 -0.000604
v -0.094768 0.081003 0.006469
v -0.094599 0.081224 0.006578
v -0.094767 0.080793 0.006351
v -0.094275 0.085073 -0.000299
v -0.095027 0.057199 0.041981
v -0.094884 0.057071 0.041908
v -0.095027 0.057365 0.042102
v -0.094553 0.055068 0.044908
v -0.094799 0.055572 0.045243
v -0.094307 0.081396 0.006650
v -0.094399 0.084607 -0.000530
v -0.094636 0.057016 0.041903
v -0.094884 0.057524 0.042239
v -0.094598 0.080650 0.006257
v -0.094251 0.084855 -0.000419
v -0.094412 0.055223 0.045049
v -0.094554 0.055513 0.045242
v -0.093970 0.081474 0.006664
v -0.094350 0.057048 0.041967
v -0.094636 0.057634 0.042355
v -0.094703 0.059075 0.039387
v -0.094558 0.058948 0.039312
v -0.094702 0.059243 0.039507
v -0.094306 0.080611 0.006211
v -0.094412 0.055385 0.045171
v -0.094308 0.058896 0.039302
v -0.094558 0.059407 0.039641
v -0.094102 0.057158 0.042083
v -0.094350 0.057665 0.042419
v -0.094310 0.076735 0.014005
v -0.094332 0.076535 0.013890
v -0.094125 0.076930 0.014109
v -0.093677 0.081436 0.006618
v -0.094473 0.060782 0.036983
v -0.094328 0.060655 0.036905
v -0.094473 0.060952 0.037103
v -0.093968 0.080689 0.006226
v -0.094019 0.058932 0.039360
v -0.094307 0.059522 0.039751
v -0.094185 0.076383 0.013794
v -0.093827 0.077066 0.014173
v -0.093959 0.057317 0.042220
v -0.094102 0.057610 0.042414
v -0.094075 0.060606 0.036891
v -0.094327 0.061119 0.037233
v -0.094319 0.062351 0.034746
v -0.094173 0.062224 0.034666
v -0.094319 0.062522 0.034866
v -0.093508 0.081292 0.006524
v -0.093959 0.057483 0.042341
v -0.093676 0.080861 0.006297
v -0.093768 0.059047 0.039471
v -0.094018 0.059558 0.039810
v -0.093784 0.060646 0.036944
v -0.094074 0.061239 0.037339
v -0.093918 0.062177 0.034648
v -0.094171 0.062693 0.034994
v -0.094219 0.063811 0.032653
v -0.094071 0.063685 0.032571
v -0.094219 0.063984 0.032774
v -0.094303 0.076219 0.014422
v -0.094283 0.076418 0.014537
v -0.094242 0.076046 0.015170
v -0.094260 0.075848 0.015057
v -0.094156 0.076069 0.014328
v -0.094101 0.076612 0.014641
v -0.093910 0.076319 0.013743
v -0.093497 0.077109 0.014180
v -0.094063 0.076241 0.015273
v -0.093508 0.081082 0.006406
v -0.094192 0.075617 0.015898
v -0.094208 0.075420 0.015785
v -0.094113 0.075700 0.014962
v -0.094016 0.075812 0.016002
v -0.094152 0.065195 0.030681
v -0.094003 0.065069 0.030597
v -0.094070 0.064157 0.032902
v -0.094151 0.065368 0.030804
v -0.094138 0.075124 0.016725
v -0.094152 0.074930 0.016610
v -0.094061 0.075275 0.015690
v -0.093965 0.075318 0.016830
v -0.093815 0.063639 0.032550
v -0.093917 0.062817 0.035096
v -0.094097 0.066534 0.028808
v -0.093947 0.066408 0.028722
v -0.094002 0.065542 0.030933
v -0.094096 0.066707 0.028933
v -0.094083 0.074560 0.017652
v -0.094095 0.074368 0.017535
v -0.094004 0.074787 0.016516
v -0.093881 0.076008 0.014278
v -0.093912 0.074752 0.017760
v -0.093839 0.075642 0.014912
v -0.093806 0.076750 0.014706
v -0.093624 0.059211 0.039604
v -0.093768 0.059506 0.039800
v -0.093624 0.062221 0.034697
v -0.093783 0.061280 0.037392
v -0.093745 0.065025 0.030574
v -0.093814 0.064283 0.033002
v -0.094033 0.067854 0.027015
v -0.093882 0.067728 0.026927
v -0.094033 0.068027 0.027142
v -0.093946 0.066880 0.029065
v -0.094031 0.073917 0.018682
v -0.094042 0.073728 0.018563
v -0.093947 0.074227 0.017442
v -0.093863 0.074107 0.018794
v -0.093789 0.075220 0.015641
v -0.093772 0.076381 0.015336
v -0.093728 0.075953 0.016066
v -0.093976 0.069112 0.025322
v -0.093826 0.068984 0.025233
v -0.093882 0.068200 0.027276
v -0.093974 0.069286 0.025449
v -0.093987 0.073189 0.019817
v -0.093996 0.073003 0.019697
v -0.093893 0.073590 0.018471
v -0.093822 0.073376 0.019933
v -0.093531 0.060766 0.037050
v -0.093687 0.066363 0.028698
v -0.093744 0.065671 0.031032
v -0.093955 0.072369 0.021059
v -0.093963 0.072185 0.020937
v -0.093847 0.072867 0.019604
v -0.093793 0.072553 0.021179
v -0.093733 0.074733 0.016468
v -0.093679 0.075459 0.016897
v -0.093623 0.059379 0.039725
v -0.093621 0.067683 0.026904
v -0.093686 0.067008 0.029167
v -0.093948 0.070247 0.023748
v -0.093798 0.070117 0.023658
v -0.093945 0.070424 0.023873
v -0.093820 0.069462 0.025581
v -0.093945 0.071269 0.022287
v -0.093795 0.071137 0.022196
v -0.093940 0.071450 0.022411
v -0.093788 0.070603 0.024002
v -0.093813 0.072052 0.020846
v -0.093780 0.071631 0.022535
v -0.093677 0.074176 0.017397
v -0.093629 0.074892 0.017831
v -0.093579 0.076362 0.013751
v -0.093221 0.077045 0.014129
v -0.093519 0.063686 0.032596
v -0.093623 0.062861 0.035145
v -0.093583 0.074246 0.018870
v -0.093624 0.073539 0.018428
v -0.093563 0.068938 0.025207
v -0.093620 0.068328 0.027381
v -0.093553 0.076052 0.014287
v -0.093545 0.073514 0.020014
v -0.093579 0.072818 0.019565
v -0.093513 0.075690 0.014919
v -0.093385 0.060934 0.037181
v -0.093530 0.061230 0.037378
v -0.093369 0.062345 0.034799
v -0.093447 0.065073 0.030619
v -0.093517 0.064330 0.033047
v -0.093534 0.070070 0.023628
v -0.093555 0.069590 0.025683
v -0.093530 0.071090 0.022163
v -0.093520 0.070734 0.024098
v -0.093546 0.072003 0.020809
v -0.093509 0.071764 0.022626
v -0.093519 0.072689 0.021265
v -0.093465 0.075269 0.015650
v -0.093446 0.076429 0.015344
v -0.093404 0.076003 0.016075
v -0.093478 0.076794 0.014715
v -0.093387 0.066411 0.028744
v -0.093446 0.065719 0.031077
v -0.093412 0.074784 0.016480
v -0.093358 0.075510 0.016909
v -0.093319 0.067731 0.026950
v -0.093386 0.067056 0.029212
v -0.093358 0.074227 0.017411
v -0.093310 0.074943 0.017846
v -0.093281 0.076498 0.013815
v -0.093075 0.076893 0.014034
v -0.093385 0.061103 0.037301
v -0.093262 0.063813 0.032696
v -0.093368 0.062813 0.035127
v -0.093258 0.068985 0.025250
v -0.093318 0.068376 0.027427
v -0.093307 0.073591 0.018447
v -0.093267 0.074297 0.018889
v -0.093265 0.072868 0.019589
v -0.093231 0.073564 0.020037
v -0.093227 0.070119 0.023667
v -0.093251 0.069638 0.025726
v -0.093234 0.072054 0.020838
v -0.093207 0.072739 0.021294
v -0.093258 0.076189 0.014352
v -0.093222 0.062515 0.034927
v -0.093188 0.065201 0.030718
v -0.093261 0.064285 0.033026
v -0.093220 0.071139 0.022197
v -0.093213 0.070782 0.024137
v -0.093199 0.071814 0.022660
v -0.093222 0.075830 0.014983
v -0.093097 0.076692 0.013918
v -0.093203 0.076733 0.014665
v -0.093172 0.076371 0.015294
v -0.093127 0.066539 0.028846
v -0.093188 0.065674 0.031054
v -0.093176 0.075411 0.015714
v -0.093132 0.075947 0.016026
v -0.093126 0.074925 0.016547
v -0.093087 0.075456 0.016861
v -0.093222 0.062687 0.035047
v -0.093057 0.067858 0.027054
v -0.093126 0.067012 0.029188
v -0.093114 0.063986 0.032823
v -0.093075 0.074367 0.017483
v -0.093040 0.074891 0.017801
v -0.092994 0.069114 0.025352
v -0.093057 0.068331 0.027403
v -0.093028 0.073730 0.018523
v -0.092998 0.074247 0.018846
v -0.093039 0.065375 0.030847
v -0.093114 0.064159 0.032944
v -0.092959 0.070250 0.023763
v -0.092988 0.069591 0.025700
v -0.092988 0.073006 0.019669
v -0.092963 0.073515 0.019998
v -0.093077 0.076384 0.014455
v -0.092949 0.071273 0.022288
v -0.092949 0.070735 0.024107
v -0.092960 0.072189 0.020924
v -0.092934 0.071766 0.022627
v -0.092940 0.072690 0.021257
v -0.093043 0.076025 0.015085
v -0.093057 0.076583 0.014570
v -0.093025 0.076223 0.015199
v -0.092977 0.066713 0.028977
v -0.093039 0.065549 0.030970
v -0.093001 0.075606 0.015817
v -0.092984 0.075802 0.015931
v -0.092906 0.068032 0.027188
v -0.092977 0.066886 0.029102
v -0.092953 0.075119 0.016652
v -0.092938 0.075313 0.016767
v -0.092892 0.074751 0.017708
v -0.092905 0.074559 0.017591
v -0.092839 0.069289 0.025484
v -0.092906 0.068205 0.027316
v -0.092849 0.074108 0.018753
v -0.092860 0.073919 0.018635
v -0.092802 0.070428 0.023891
v -0.092838 0.069464 0.025611
v -0.092823 0.073193 0.019785
v -0.092814 0.073379 0.019906
v -0.092790 0.071454 0.022412
v -0.092798 0.070606 0.024017
v -0.092798 0.072373 0.021044
v -0.092784 0.071634 0.022536
v -0.092791 0.072557 0.021166
usemtl Medial_dorsal_cutaneous_nerve_rMaterial0
f 1 2 3
f 3 4 1
f 3 5 6
f 6 7 3
f 3 2 5
f 3 7 4
f 8 9 1
f 1 10 8
f 1 9 2
f 1 4 10
f 6 11 12
f 12 13 6
f 6 5 11
f 6 13 7
f 8 14 9
f 15 14 8
f 8 10 15
f 9 16 2
f 14 17 9
f 9 17 16
f 2 18 5
f 2 16 18
f 19 20 12
f 12 21 19
f 12 11 21
f 12 20 13
f 15 22 14
f 10 22 15
f 5 23 11
f 5 18 23
f 22 24 14
f 14 24 17
f 19 25 20
f 19 21 25
f 11 26 21
f 11 23 26
f 10 27 22
f 4 27 10
f 22 28 24
f 27 28 22
f 20 29 13
f 20 25 29
f 17 30 16
f 24 31 17
f 17 31 30
f 16 32 18
f 16 30 32
f 4 33 27
f 7 33 4
f 21 34 25
f 21 26 34
f 13 35 7
f 13 29 35
f 28 36 24
f 24 36 31
f 27 37 28
f 33 37 27
f 7 35 33
f 18 38 23
f 18 32 38
f 37 39 28
f 28 39 36
f 35 40 33
f 33 40 37
f 25 41 29
f 25 34 41
f 23 42 26
f 23 38 42
f 29 43 35
f 35 43 40
f 29 41 43
f 40 44 37
f 37 44 39
f 26 45 34
f 26 42 45
f 31 46 30
f 36 47 31
f 31 47 46
f 30 48 32
f 30 46 48
f 39 49 36
f 36 49 47
f 32 50 38
f 32 48 50
f 43 51 40
f 40 51 44
f 34 52 41
f 34 45 52
f 44 53 39
f 39 53 49
f 41 54 43
f 43 54 51
f 41 52 54
f 38 55 42
f 38 50 55
f 51 56 44
f 44 56 53
f 42 57 45
f 42 55 57
f 47 58 46
f 49 59 47
f 47 59 58
f 54 60 51
f 51 60 56
f 46 61 48
f 46 58 61
f 45 62 52
f 45 57 62
f 53 63 49
f 49 63 59
f 52 64 54
f 54 64 60
f 52 62 64
f 48 65 50
f 48 61 65
f 56 66 53
f 53 66 63
f 50 67 55
f 50 65 67
f 60 68 56
f 56 68 66
f 55 69 57
f 55 67 69
f 64 70 60
f 60 70 68
f 57 71 62
f 57 69 71
f 59 72 58
f 63 73 59
f 59 73 72
f 62 74 64
f 64 74 70
f 58 75 61
f 58 72 75
f 66 76 63
f 63 76 73
f 62 71 74
f 61 77 65
f 61 75 77
f 68 78 66
f 66 78 76
f 65 79 67
f 65 77 79
f 70 80 68
f 68 80 78
f 67 81 69
f 67 79 81
f 74 82 70
f 70 82 80
f 69 83 71
f 69 81 83
f 71 84 74
f 74 84 82
f 71 83 84
f 76 85 73
f 73 86 72
f 73 85 86
f 78 87 76
f 76 87 85
f 72 88 75
f 72 86 88
f 80 89 78
f 78 89 87
f 75 90 77
f 75 88 90
f 82 91 80
f 80 91 89
f 77 92 79
f 77 90 92
f 84 93 82
f 82 93 91
f 79 94 81
f 79 92 94
f 83 95 84
f 84 95 93
f 81 96 83
f 81 94 96
f 83 96 95
f 87 97 85
f 85 98 86
f 85 97 98
f 89 99 87
f 87 99 97
f 86 100 88
f 86 98 100
f 91 101 89
f 89 101 99
f 88 102 90
f 88 100 102
f 93 103 91
f 91 103 101
f 90 104 92
f 90 102 104
f 95 105 93
f 93 105 103
f 92 106 94
f 92 104 106
f 96 107 95
f 95 107 105
f 94 108 96
f 94 106 108
f 96 108 107
f 99 109 97
f 97 110 98
f 97 109 110
f 101 111 99
f 99 111 109
f 98 112 100
f 98 110 112
f 103 113 101
f 101 113 111
f 100 114 102
f 100 112 114
f 105 115 103
f 103 115 113
f 102 116 104
f 102 114 116
f 107 117 105
f 105 117 115
f 104 118 106
f 104 116 118
f 108 119 107
f 107 119 117
f 106 120 108
f 106 118 120
f 108 120 119
f 111 121 109
f 113 122 111
f 111 122 121
f 109 123 110
f 109 121 123
f 110 124 112
f 110 123 124
f 115 125 113
f 113 125 122
f 112 126 114
f 112 124 126
f 117 127 115
f 115 127 125
f 114 128 116
f 114 126 128
f 119 129 117
f 117 129 127
f 116 130 118
f 116 128 130
f 120 131 119
f 119 131 129
f 118 132 120
f 120 132 131
f 118 130 132
f 122 133 121
f 125 134 122
f 122 134 133
f 121 135 123
f 121 133 135
f 127 136 125
f 125 136 134
f 123 137 124
f 123 135 137
f 129 138 127
f 127 138 136
f 124 139 126
f 124 137 139
f 131 140 129
f 129 140 138
f 126 141 128
f 126 139 141
f 132 142 131
f 131 142 140
f 128 143 130
f 128 141 143
f 130 144 132
f 132 144 142
f 130 143 144
f 134 145 133
f 136 146 134
f 134 146 145
f 133 147 135
f 133 145 147
f 138 148 136
f 136 148 146
f 135 149 137
f 135 147 149
f 140 150 138
f 138 150 148
f 137 151 139
f 137 149 151
f 142 152 140
f 140 152 150
f 139 153 141
f 139 151 153
f 144 154 142
f 142 154 152
f 141 155 143
f 141 153 155
f 143 156 144
f 144 156 154
f 143 155 156
f 146 157 145
f 148 158 146
f 146 158 157
f 145 159 147
f 145 157 159
f 150 160 148
f 148 160 158
f 147 161 149
f 147 159 161
f 152 162 150
f 150 162 160
f 149 163 151
f 149 161 163
f 154 164 152
f 152 164 162
f 151 165 153
f 151 163 165
f 156 166 154
f 154 166 164
f 153 167 155
f 153 165 167
f 155 168 156
f 156 168 166
f 155 167 168
f 158 169 157
f 160 170 158
f 158 170 169
f 157 171 159
f 157 169 171
f 162 172 160
f 160 172 170
f 159 173 161
f 159 171 173
f 164 174 162
f 162 174 172
f 161 175 163
f 161 173 175
f 166 176 164
f 164 176 174
f 163 177 165
f 163 175 177
f 168 178 166
f 166 178 176
f 165 179 167
f 165 177 179
f 167 180 168
f 168 180 178
f 167 179 180
f 170 181 169
f 172 182 170
f 170 182 181
f 169 183 171
f 169 181 183
f 174 184 172
f 172 184 182
f 171 185 173
f 171 183 185
f 176 186 174
f 174 186 184
f 173 187 175
f 173 185 187
f 178 188 176
f 176 188 186
f 175 189 177
f 175 187 189
f 180 190 178
f 178 190 188
f 177 191 179
f 177 189 191
f 179 192 180
f 180 192 190
f 179 191 192
f 182 193 181
f 184 194 182
f 182 194 193
f 181 195 183
f 181 193 195
f 186 196 184
f 184 196 194
f 183 197 185
f 183 195 197
f 188 198 186
f 186 198 196
f 185 199 187
f 185 197 199
f 190 200 188
f 188 200 198
f 187 201 189
f 187 199 201
f 192 202 190
f 190 202 200
f 189 203 191
f 189 201 203
f 191 204 192
f 192 204 202
f 191 203 204
f 194 205 193
f 196 206 194
f 194 206 205
f 193 207 195
f 193 205 207
f 198 208 196
f 196 208 206
f 195 209 197
f 195 207 209
f 200 210 198
f 198 210 208
f 197 211 199
f 197 209 211
f 202 212 200
f 200 212 210
f 199 213 201
f 199 211 213
f 204 214 202
f 202 214 212
f 201 215 203
f 201 213 215
f 203 216 204
f 204 216 214
f 203 215 216
f 206 217 205
f 208 218 206
f 206 218 217
f 205 219 207
f 205 217 219
f 210 220 208
f 208 220 218
f 207 221 209
f 207 219 221
f 212 222 210
f 210 222 220
f 209 223 211
f 209 221 223
f 214 224 212
f 212 224 222
f 211 225 213
f 211 223 225
f 216 226 214
f 214 226 224
f 213 227 215
f 213 225 227
f 215 228 216
f 216 228 226
f 215 227 228
f 218 229 217
f 220 230 218
f 218 230 229
f 217 231 219
f 217 229 231
f 222 232 220
f 220 232 230
f 219 233 221
f 219 231 233
f 224 234 222
f 222 234 232
f 221 235 223
f 221 233 235
f 226 236 224
f 224 236 234
f 223 237 225
f 223 235 237
f 228 238 226
f 226 238 236
f 225 239 227
f 225 237 239
f 227 240 228
f 228 240 238
f 227 239 240
f 230 241 229
f 232 242 230
f 230 242 241
f 229 243 231
f 229 241 243
f 234 244 232
f 232 244 242
f 231 245 233
f 231 243 245
f 236 246 234
f 234 246 244
f 233 247 235
f 233 245 247
f 238 248 236
f 236 248 246
f 235 249 237
f 235 247 249
f 240 250 238
f 238 250 248
f 237 251 239
f 237 249 251
f 239 252 240
f 240 252 250
f 239 251 252
f 242 253 241
f 244 254 242
f 242 254 253
f 241 255 243
f 241 253 255
f 246 256 244
f 244 256 254
f 243 257 245
f 243 255 257
f 248 258 246
f 246 258 256
f 245 259 247
f 245 257 259
f 250 260 248
f 248 260 258
f 247 261 249
f 247 259 261
f 252 262 250
f 250 262 260
f 249 263 251
f 249 261 263
f 251 264 252
f 252 264 262
f 251 263 264
f 254 265 253
f 256 266 254
f 254 266 265
f 253 267 255
f 253 265 267
f 258 268 256
f 256 268 266
f 255 269 257
f 255 267 269
f 260 270 258
f 258 270 268
f 257 271 259
f 257 269 271
f 262 272 260
f 260 272 270
f 259 273 261
f 259 271 273
f 264 274 262
f 262 274 272
f 261 275 263
f 261 273 275
f 263 276 264
f 264 276 274
f 263 275 276
f 266 277 265
f 268 278 266
f 266 278 277
f 265 279 267
f 265 277 279
f 270 280 268
f 268 280 278
f 267 281 269
f 267 279 281
f 272 282 270
f 270 282 280
f 269 283 271
f 269 281 283
f 274 284 272
f 272 284 282
f 271 285 273
f 271 283 285
f 276 286 274
f 274 286 284
f 273 287 275
f 273 285 287
f 275 288 276
f 276 288 286
f 275 287 288
f 278 289 277
f 280 290 278
f 278 290 289
f 277 291 279
f 277 289 291
f 282 292 280
f 280 292 290
f 279 293 281
f 279 291 293
f 284 294 282
f 282 294 292
f 281 295 283
f 281 293 295
f 286 296 284
f 284 296 294
f 283 297 285
f 283 295 297
f 288 298 286
f 286 298 296
f 285 299 287
f 285 297 299
f 287 300 288
f 288 300 298
f 287 299 300
f 297 289 290
f 299 290 292
f 297 290 299
f 295 291 289
f 295 289 297
f 300 292 294
f 299 292 300
f 293 291 295
f 298 294 296
f 300 294 298
f 301 302 303
f 303 304 301
f 305 306 301
f 301 307 305
f 301 306 302
f 301 304 307
f 303 308 309
f 309 310 303
f 303 302 308
f 303 310 304
f 305 311 306
f 312 311 305
f 305 313 312
f 305 307 313
f 311 314 306
f 306 315 302
f 306 314 315
f 316 317 309
f 309 318 316
f 309 308 318
f 309 317 310
f 312 319 311
f 319 320 311
f 311 320 314
f 302 321 308
f 302 315 321
f 322 319 312
f 312 313 322
f 322 323 319
f 323 324 319
f 319 324 320
f 316 325 317
f 316 318 325
f 308 326 318
f 308 321 326
f 313 323 322
f 320 327 314
f 314 328 315
f 314 327 328
f 313 329 323
f 323 330 324
f 329 330 323
f 324 331 320
f 320 331 327
f 317 332 310
f 317 325 332
f 318 333 325
f 318 326 333
f 307 329 313
f 315 334 321
f 315 328 334
f 330 335 324
f 324 335 331
f 310 336 304
f 310 332 336
f 307 337 329
f 329 338 330
f 337 338 329
f 304 337 307
f 325 339 332
f 325 333 339
f 321 340 326
f 321 334 340
f 304 336 337
f 338 341 330
f 330 341 335
f 336 342 337
f 337 342 338
f 332 343 336
f 332 339 343
f 336 343 342
f 326 344 333
f 326 340 344
f 342 345 338
f 338 345 341
f 331 346 327
f 327 347 328
f 327 346 347
f 335 348 331
f 331 348 346
f 333 349 339
f 333 344 349
f 328 350 334
f 328 347 350
f 341 351 335
f 335 351 348
f 343 352 342
f 342 352 345
f 339 353 343
f 339 349 353
f 343 353 352
f 334 354 340
f 334 350 354
f 345 355 341
f 341 355 351
f 340 356 344
f 340 354 356
f 352 357 345
f 345 357 355
f 344 358 349
f 344 356 358
f 353 359 352
f 352 359 357
f 348 360 346
f 351 361 348
f 348 361 360
f 346 362 347
f 346 360 362
f 349 363 353
f 349 358 363
f 353 363 359
f 355 364 351
f 351 364 361
f 347 365 350
f 347 362 365
f 357 366 355
f 355 366 364
f 350 367 354
f 350 365 367
f 359 368 357
f 357 368 366
f 354 369 356
f 354 367 369
f 363 370 359
f 359 370 368
f 356 371 358
f 356 369 371
f 358 372 363
f 363 372 370
f 358 371 372
f 361 373 360
f 364 374 361
f 361 374 373
f 360 375 362
f 360 373 375
f 366 376 364
f 364 376 374
f 362 377 365
f 362 375 377
f 368 378 366
f 366 378 376
f 365 379 367
f 365 377 379
f 370 380 368
f 368 380 378
f 367 381 369
f 367 379 381
f 372 382 370
f 370 382 380
f 369 383 371
f 369 381 383
f 384 385 386
f 387 386 385
f 388 389 385
f 390 385 389
f 388 385 384
f 387 385 390
f 391 386 392
f 393 392 386
f 384 386 391
f 393 386 387
f 371 394 372
f 372 394 382
f 371 383 394
f 395 396 389
f 397 389 396
f 395 389 388
f 390 389 397
f 391 392 398
f 398 392 399
f 400 399 392
f 400 392 393
f 374 401 373
f 376 402 374
f 374 402 401
f 373 403 375
f 373 401 403
f 404 384 391
f 405 388 384
f 405 384 404
f 406 391 398
f 404 391 406
f 397 396 407
f 408 407 396
f 408 396 395
f 398 399 409
f 409 399 400
f 378 410 376
f 376 410 402
f 411 395 388
f 411 388 405
f 406 398 412
f 412 398 409
f 375 413 377
f 375 403 413
f 414 404 406
f 415 405 404
f 415 404 414
f 416 406 412
f 414 406 416
f 417 397 407
f 417 407 408
f 409 400 418
f 418 400 393
f 419 408 395
f 419 395 411
f 412 409 420
f 420 409 418
f 380 421 378
f 378 421 410
f 422 411 405
f 422 405 415
f 416 412 423
f 423 412 420
f 424 414 416
f 425 415 414
f 425 414 424
f 426 416 423
f 424 416 426
f 427 390 397
f 427 397 417
f 418 393 428
f 428 393 387
f 377 429 379
f 377 413 429
f 430 417 408
f 430 408 419
f 420 418 431
f 431 418 428
f 432 419 411
f 432 411 422
f 423 420 433
f 433 420 431
f 434 422 415
f 434 415 425
f 426 423 435
f 435 423 433
f 436 387 390
f 436 390 427
f 428 387 436
f 437 424 426
f 438 425 424
f 438 424 437
f 439 426 435
f 437 426 439
f 382 440 380
f 380 440 421
f 441 427 417
f 441 417 430
f 431 428 442
f 442 428 436
f 443 430 419
f 443 419 432
f 433 431 444
f 444 431 442
f 445 422 434
f 445 432 422
f 435 433 446
f 446 433 444
f 447 425 438
f 447 434 425
f 439 435 448
f 448 435 446
f 449 437 439
f 450 438 437
f 450 437 449
f 451 439 448
f 449 439 451
f 452 436 427
f 452 427 441
f 442 436 452
f 379 453 381
f 379 429 453
f 454 438 450
f 454 447 438
f 448 446 455
f 451 448 456
f 456 448 455
f 457 441 430
f 457 430 443
f 444 442 458
f 458 442 452
f 459 434 447
f 459 445 434
f 446 444 460
f 455 446 460
f 461 449 451
f 462 450 449
f 462 449 461
f 463 451 456
f 461 451 463
f 394 464 382
f 382 464 440
f 465 443 432
f 465 432 445
f 460 444 458
f 466 452 441
f 466 441 457
f 458 452 466
f 467 450 462
f 467 454 450
f 463 456 468
f 456 455 469
f 468 456 469
f 470 461 463
f 471 462 461
f 471 461 470
f 472 463 468
f 470 463 472
f 381 473 383
f 381 453 473
f 474 447 454
f 474 459 447
f 455 460 475
f 469 455 475
f 383 476 394
f 394 476 464
f 477 457 443
f 477 443 465
f 460 458 478
f 478 458 466
f 479 465 445
f 479 445 459
f 475 460 478
f 480 462 471
f 480 467 462
f 472 468 481
f 468 469 482
f 481 468 482
f 483 470 472
f 484 470 483
f 484 471 470
f 483 472 485
f 485 472 481
f 383 473 476
f 469 475 486
f 482 469 486
f 487 466 457
f 487 457 477
f 478 466 487
f 488 454 467
f 488 474 454
f 402 489 401
f 410 490 402
f 402 490 489
f 491 483 485
f 492 483 491
f 492 484 483
f 485 481 493
f 491 485 494
f 494 485 493
f 481 482 495
f 493 481 495
f 496 471 484
f 496 480 471
f 475 478 497
f 486 475 497
f 498 477 465
f 498 465 479
f 497 478 487
f 499 479 459
f 499 459 474
f 401 500 403
f 401 489 500
f 421 501 410
f 410 501 490
f 482 486 502
f 495 482 502
f 503 491 494
f 504 491 503
f 504 492 491
f 494 493 505
f 503 494 506
f 506 494 505
f 507 467 480
f 507 488 467
f 508 484 492
f 508 496 484
f 493 495 509
f 505 493 509
f 510 487 477
f 510 477 498
f 497 487 510
f 511 503 506
f 512 503 511
f 512 504 503
f 506 505 513
f 511 506 514
f 514 506 513
f 486 497 515
f 502 486 515
f 516 498 479
f 516 479 499
f 515 497 510
f 517 474 488
f 517 499 474
f 518 480 496
f 518 507 480
f 495 502 519
f 509 495 519
f 520 492 504
f 520 508 492
f 513 505 521
f 505 509 521
f 522 511 514
f 523 512 511
f 523 511 522
f 514 513 524
f 525 514 524
f 522 514 525
f 403 526 413
f 403 500 526
f 527 504 512
f 527 520 504
f 524 513 528
f 513 521 528
f 440 529 421
f 421 529 501
f 530 510 498
f 530 498 516
f 515 510 530
f 531 488 507
f 531 517 488
f 502 515 532
f 519 502 532
f 533 496 508
f 533 518 496
f 521 509 534
f 509 519 534
f 535 527 512
f 535 512 523
f 524 528 536
f 537 524 536
f 525 524 537
f 538 516 499
f 538 499 517
f 532 515 530
f 528 521 539
f 521 534 539
f 540 508 520
f 540 533 508
f 519 532 541
f 534 519 541
f 542 507 518
f 542 531 507
f 543 530 516
f 543 516 538
f 532 530 543
f 544 520 527
f 544 540 520
f 536 528 545
f 528 539 545
f 546 538 517
f 546 517 531
f 541 532 543
f 547 518 533
f 547 542 518
f 534 541 548
f 539 534 548
f 549 544 527
f 549 527 535
f 536 545 550
f 551 536 550
f 537 536 551
f 413 552 429
f 413 526 552
f 464 553 440
f 440 553 529
f 554 543 538
f 554 538 546
f 541 543 554
f 555 546 531
f 555 531 542
f 548 541 554
f 556 533 540
f 556 547 533
f 545 539 557
f 539 548 557
f 550 545 558
f 545 557 558
f 559 540 544
f 559 556 540
f 560 554 546
f 560 546 555
f 548 554 560
f 561 542 547
f 561 555 542
f 557 548 560
f 562 559 544
f 562 544 549
f 550 558 563
f 564 550 563
f 551 550 564
f 557 560 565
f 558 557 565
f 429 566 453
f 429 552 566
f 567 547 556
f 567 561 547
f 565 560 555
f 565 555 561
f 476 568 464
f 464 568 553
f 569 556 559
f 569 567 556
f 558 565 570
f 563 558 570
f 570 565 561
f 570 561 567
f 571 569 559
f 571 559 562
f 563 570 572
f 573 563 572
f 564 563 573
f 572 570 567
f 572 567 569
f 453 574 473
f 453 566 574
f 473 575 476
f 476 575 568
f 576 572 569
f 576 569 571
f 573 572 576
f 473 574 575
f 501 577 490
f 490 578 489
f 490 577 578
f 579 522 525
f 580 523 522
f 580 522 579
f 581 525 537
f 579 525 581
f 529 582 501
f 501 582 577
f 489 583 500
f 489 578 583
f 584 535 523
f 584 523 580
f 585 537 551
f 581 537 585
f 553 586 529
f 529 586 582
f 500 587 526
f 500 583 587
f 588 549 535
f 588 535 584
f 589 551 564
f 585 551 589
f 568 590 553
f 553 590 586
f 526 591 552
f 526 587 591
f 592 562 549
f 592 549 588
f 593 564 573
f 589 564 593
f 594 571 562
f 594 562 592
f 595 573 576
f 593 573 595
f 575 596 568
f 568 596 590
f 597 579 581
f 598 580 579
f 598 579 597
f 599 581 585
f 597 581 599
f 552 600 566
f 552 591 600
f 601 576 571
f 601 571 594
f 595 576 601
f 602 584 580
f 602 580 598
f 603 585 589
f 599 585 603
f 582 604 577
f 577 605 578
f 577 604 605
f 574 606 575
f 575 606 596
f 566 607 574
f 566 600 607
f 586 608 582
f 582 608 604
f 574 607 606
f 578 609 583
f 578 605 609
f 610 588 584
f 610 584 602
f 611 589 593
f 603 589 611
f 590 612 586
f 586 612 608
f 583 613 587
f 583 609 613
f 614 592 588
f 614 588 610
f 615 593 595
f 611 593 615
f 616 597 599
f 617 598 597
f 617 597 616
f 618 599 603
f 616 599 618
f 596 619 590
f 590 619 612
f 620 602 598
f 620 598 617
f 621 603 611
f 618 603 621
f 622 594 592
f 622 592 614
f 623 595 601
f 615 595 623
f 587 624 591
f 587 613 624
f 625 601 594
f 625 594 622
f 623 601 625
f 626 610 602
f 626 602 620
f 627 611 615
f 621 611 627
f 606 628 596
f 596 628 619
f 608 629 604
f 604 630 605
f 604 629 630
f 612 631 608
f 608 631 629
f 591 632 600
f 591 624 632
f 633 616 618
f 634 617 616
f 634 616 633
f 635 618 621
f 633 618 635
f 636 614 610
f 636 610 626
f 637 615 623
f 627 615 637
f 605 638 609
f 605 630 638
f 607 639 606
f 606 639 628
f 640 620 617
f 640 617 634
f 641 621 627
f 635 621 641
f 619 642 612
f 612 642 631
f 600 643 607
f 600 632 643
f 607 643 639
f 644 622 614
f 644 614 636
f 645 623 625
f 637 623 645
f 609 646 613
f 609 638 646
f 647 626 620
f 647 620 640
f 641 627 648
f 648 627 637
f 649 633 635
f 650 634 633
f 650 633 649
f 651 635 641
f 649 635 651
f 628 652 619
f 619 652 642
f 653 625 622
f 653 622 644
f 645 625 653
f 654 640 634
f 654 634 650
f 651 641 655
f 655 641 648
f 656 636 626
f 656 626 647
f 648 637 657
f 657 637 645
f 631 658 629
f 642 659 631
f 631 659 658
f 629 660 630
f 629 658 660
f 613 661 624
f 613 646 661
f 662 649 651
f 663 650 649
f 663 649 662
f 664 651 655
f 662 651 664
f 639 665 628
f 628 665 652
f 666 647 640
f 666 640 654
f 655 648 667
f 667 648 657
f 642 668 659
f 652 668 642
f 630 669 638
f 630 660 669
f 670 644 636
f 670 636 656
f 671 645 653
f 657 645 671
f 672 654 650
f 672 650 663
f 664 655 673
f 673 655 667
f 674 662 664
f 675 663 662
f 675 662 674
f 676 664 673
f 674 664 676
f 624 677 632
f 624 661 677
f 678 653 644
f 678 644 670
f 671 653 678
f 643 679 639
f 639 679 665
f 680 656 647
f 680 647 666
f 667 657 681
f 681 657 671
f 682 654 672
f 682 666 654
f 673 667 683
f 683 667 681
f 684 663 675
f 684 672 663
f 676 673 685
f 685 673 683
f 686 674 676
f 687 674 686
f 687 675 674
f 686 676 688
f 688 676 685
f 659 689 690
f 668 689 659
f 689 691 690
f 689 692 691
f 693 692 689
f 668 693 689
f 659 690 658
f 658 690 694
f 658 694 660
f 652 695 668
f 665 695 652
f 638 696 646
f 638 669 696
f 690 691 697
f 690 697 694
f 632 698 643
f 632 677 698
f 692 699 691
f 692 700 699
f 701 700 692
f 693 701 692
f 691 699 702
f 691 702 697
f 643 698 679
f 703 686 688
f 704 686 703
f 704 687 686
f 688 685 705
f 703 688 706
f 706 688 705
f 700 707 699
f 700 708 707
f 709 708 700
f 701 709 700
f 699 707 710
f 699 710 702
f 695 693 668
f 711 675 687
f 711 684 675
f 685 683 712
f 705 685 712
f 713 703 706
f 714 703 713
f 714 704 703
f 706 705 715
f 713 706 716
f 716 706 715
f 708 717 707
f 708 718 717
f 719 718 708
f 709 719 708
f 720 701 693
f 695 720 693
f 707 717 721
f 707 721 710
f 722 709 701
f 720 722 701
f 660 694 723
f 660 723 669
f 724 670 656
f 724 656 680
f 681 671 725
f 725 671 678
f 726 672 684
f 726 682 672
f 683 681 727
f 712 683 727
f 728 687 704
f 728 711 687
f 715 705 729
f 705 712 729
f 730 713 716
f 731 713 730
f 731 714 713
f 730 716 732
f 732 716 733
f 716 715 733
f 718 734 717
f 718 735 734
f 736 735 718
f 719 736 718
f 717 734 737
f 717 737 721
f 738 719 709
f 722 738 709
f 694 697 739
f 697 702 740
f 697 740 739
f 694 739 723
f 741 730 732
f 742 730 741
f 742 731 730
f 732 733 743
f 741 732 744
f 744 732 743
f 735 745 734
f 735 746 745
f 747 746 735
f 736 747 735
f 734 745 748
f 734 748 737
f 749 680 666
f 749 666 682
f 727 681 725
f 750 704 714
f 750 728 704
f 733 715 751
f 715 729 751
f 746 752 745
f 746 753 752
f 754 753 746
f 747 754 746
f 745 752 755
f 745 755 748
f 756 736 719
f 738 756 719
f 702 710 757
f 702 757 740
f 758 678 670
f 758 670 724
f 725 678 758
f 759 714 731
f 759 750 714
f 743 733 760
f 733 751 760
f 761 741 744
f 762 741 761
f 762 742 741
f 761 744 763
f 763 744 764
f 744 743 764
f 765 761 763
f 766 761 765
f 766 762 761
f 765 763 767
f 767 763 768
f 763 764 768
f 753 765 767
f 769 765 753
f 769 766 765
f 753 767 752
f 752 767 770
f 767 768 770
f 754 769 753
f 752 770 755
f 771 747 736
f 756 771 736
f 710 721 772
f 710 772 757
f 665 773 695
f 679 773 665
f 646 774 661
f 646 696 774
f 775 684 711
f 775 726 684
f 712 727 776
f 729 712 776
f 721 737 777
f 721 777 772
f 773 720 695
f 778 754 747
f 771 778 747
f 779 731 742
f 779 759 731
f 764 743 780
f 743 760 780
f 781 722 720
f 773 781 720
f 737 748 782
f 737 782 777
f 783 769 754
f 778 783 754
f 784 738 722
f 781 784 722
f 785 724 680
f 785 680 749
f 727 725 786
f 786 725 758
f 787 682 726
f 787 749 682
f 776 727 786
f 788 711 728
f 788 775 711
f 751 729 789
f 729 776 789
f 790 742 762
f 790 779 742
f 768 764 791
f 764 780 791
f 792 762 766
f 792 790 762
f 770 768 793
f 768 791 793
f 794 766 769
f 794 792 766
f 755 770 795
f 770 793 795
f 783 794 769
f 748 755 796
f 755 795 796
f 748 796 782
f 797 756 738
f 784 797 738
f 723 739 798
f 739 740 799
f 739 799 798
f 669 723 800
f 723 798 800
f 669 800 696
f 801 728 750
f 801 788 728
f 760 751 802
f 751 789 802
f 803 771 756
f 797 803 756
f 740 757 804
f 740 804 799
f 805 750 759
f 805 801 750
f 780 760 806
f 760 802 806
f 807 778 771
f 803 807 771
f 757 772 808
f 757 808 804
f 679 809 773
f 698 809 679
f 661 810 677
f 661 774 810
f 811 758 724
f 811 724 785
f 786 758 811
f 812 726 775
f 812 787 726
f 776 786 813
f 789 776 813
f 814 759 779
f 814 805 759
f 791 780 815
f 780 806 815
f 816 783 778
f 807 816 778
f 772 777 817
f 772 817 808
f 818 794 783
f 816 818 783
f 777 782 819
f 777 819 817
f 809 781 773
f 820 779 790
f 820 814 779
f 793 791 821
f 791 815 821
f 822 792 794
f 818 822 794
f 782 796 823
f 782 823 819
f 824 784 781
f 809 824 781
f 825 785 749
f 825 749 787
f 813 786 811
f 826 775 788
f 826 812 775
f 802 789 827
f 789 813 827
f 828 790 792
f 828 820 790
f 795 793 829
f 793 821 829
f 822 828 792
f 796 795 830
f 795 829 830
f 796 830 823
f 831 797 784
f 824 831 784
f 677 832 698
f 698 832 809
f 677 810 832
f 696 800 833
f 696 833 774
f 800 798 834
f 800 834 833
f 835 788 801
f 835 826 788
f 806 802 836
f 802 827 836
f 837 803 797
f 831 837 797
f 798 799 838
f 798 838 834
f 839 807 803
f 837 839 803
f 799 804 840
f 799 840 838
f 841 811 785
f 841 785 825
f 813 811 841
f 842 801 805
f 842 835 801
f 815 806 843
f 806 836 843
f 844 787 812
f 844 825 787
f 827 813 841
f 845 816 807
f 839 845 807
f 804 808 846
f 804 846 840
f 847 805 814
f 847 842 805
f 821 815 848
f 815 843 848
f 849 818 816
f 845 849 816
f 808 817 850
f 808 850 846
f 851 812 826
f 851 844 812
f 827 841 852
f 836 827 852
f 853 814 820
f 853 847 814
f 829 821 854
f 821 848 854
f 855 822 818
f 849 855 818
f 817 819 856
f 817 856 850
f 832 824 809
f 857 831 824
f 832 857 824
f 852 841 825
f 852 825 844
f 858 820 828
f 858 853 820
f 830 829 859
f 829 854 859
f 860 828 822
f 860 858 828
f 823 830 861
f 830 859 861
f 855 860 822
f 819 823 862
f 823 861 862
f 819 862 856
f 863 837 831
f 857 863 831
f 774 833 864
f 833 834 865
f 833 865 864
f 774 864 810
f 866 826 835
f 866 851 826
f 843 836 867
f 836 852 867
f 868 839 837
f 863 868 837
f 834 838 869
f 834 869 865
f 870 835 842
f 870 866 835
f 848 843 871
f 843 867 871
f 872 845 839
f 868 872 839
f 838 840 873
f 838 873 869
f 867 852 844
f 867 844 851
f 810 857 832
f 840 846 874
f 840 874 873
f 875 849 845
f 872 875 845
f 810 864 857
f 864 863 857
f 876 842 847
f 876 870 842
f 848 871 877
f 854 848 877
f 864 865 863
f 871 867 851
f 871 851 866
f 846 850 878
f 846 878 874
f 865 868 863
f 879 855 849
f 875 879 849
f 865 869 868
f 877 871 866
f 877 866 870
f 880 847 853
f 880 876 847
f 859 854 881
f 854 877 881
f 882 860 855
f 879 882 855
f 850 856 883
f 850 883 878
f 869 872 868
f 869 873 872
f 884 853 858
f 884 880 853
f 861 859 885
f 859 881 885
f 886 858 860
f 886 884 858
f 862 861 887
f 861 885 887
f 882 886 860
f 856 862 888
f 862 887 888
f 856 888 883
f 873 875 872
f 873 874 875
f 881 877 870
f 881 870 876
f 874 879 875
f 874 878 879
f 878 882 879
f 885 881 876
f 885 876 880
f 878 883 882
f 883 886 882
f 883 888 886
f 887 885 880
f 887 880 884
f 888 887 884
f 888 884 886
