# 
# Wavefront OBJ file
# Created with Kaydara FBX
# 
mtllib c:\users\tjvan\onedrive\documenten\fontys\minor\nx\.mtlmodels\medial_head_of_gastrocnemius.r.obj

g Medial_head_of_gastrocnemius_r
v -0.083991 0.265761 -0.086705
v -0.084916 0.274970 -0.093009
v -0.084780 0.265055 -0.090815
v -0.082911 0.274442 -0.096650
v -0.084249 0.284943 -0.094327
v -0.083934 0.275409 -0.088570
v -0.083930 0.255330 -0.084605
v -0.084686 0.254692 -0.088084
v -0.084811 0.243183 -0.084831
v -0.083160 0.243973 -0.088202
v -0.084555 0.236682 -0.083545
v -0.083818 0.237409 -0.081839
v -0.082891 0.236109 -0.085252
v -0.083202 0.245005 -0.083358
v -0.083070 0.264292 -0.094482
v -0.082977 0.254333 -0.091623
v -0.083247 0.227960 -0.082732
v -0.082157 0.227629 -0.083657
v -0.083610 0.285086 -0.089724
v -0.083051 0.294543 -0.090404
v -0.083300 0.294639 -0.095164
v -0.081124 0.294489 -0.099152
v -0.082078 0.284622 -0.098123
v -0.081379 0.266070 -0.082916
v -0.080630 0.246002 -0.081679
v -0.081124 0.255921 -0.081816
v -0.081280 0.275636 -0.084425
v -0.083106 0.228122 -0.081090
v -0.080797 0.237457 -0.081095
v -0.081110 0.284985 -0.085275
v -0.082430 0.304182 -0.095921
v -0.079922 0.304161 -0.099798
v -0.080410 0.220713 -0.080589
v -0.081560 0.220214 -0.082440
v -0.079966 0.244222 -0.090331
v -0.079774 0.235599 -0.086679
v -0.080937 0.228286 -0.080285
v -0.079619 0.221002 -0.079382
v -0.079317 0.264079 -0.096431
v -0.082394 0.303925 -0.091041
v -0.080524 0.303415 -0.085905
v -0.080712 0.294192 -0.085681
v -0.079556 0.253940 -0.093682
v -0.077985 0.284316 -0.099995
v -0.078927 0.274141 -0.098448
v -0.082036 0.380426 -0.079551
v -0.082472 0.382042 -0.085103
v -0.082505 0.372558 -0.086510
v -0.081710 0.383366 -0.089549
v -0.082101 0.371402 -0.080502
v -0.082365 0.363588 -0.087862
v -0.081786 0.373626 -0.091258
v -0.081811 0.391419 -0.078705
v -0.082247 0.392717 -0.083529
v -0.081413 0.393960 -0.087549
v -0.081976 0.313742 -0.096885
v -0.082207 0.313448 -0.091857
v -0.082197 0.354177 -0.088831
v -0.081828 0.353520 -0.083382
v -0.081514 0.354527 -0.093576
v -0.081983 0.362750 -0.081828
v -0.081661 0.364233 -0.092645
v -0.082000 0.404007 -0.081518
v -0.081184 0.405168 -0.085199
v -0.082079 0.323420 -0.092937
v -0.080771 0.312695 -0.086412
v -0.081536 0.343259 -0.083876
v -0.082137 0.343857 -0.089136
v -0.080761 0.220379 -0.082870
v -0.078340 0.220931 -0.082349
v -0.079137 0.227673 -0.083793
v -0.081884 0.333165 -0.088344
v -0.081568 0.344244 -0.093953
v -0.080327 0.369978 -0.073148
v -0.080253 0.361646 -0.075096
v -0.076766 0.294285 -0.100943
v -0.081373 0.323716 -0.097772
v -0.081900 0.333736 -0.093721
v -0.080952 0.333999 -0.098311
v -0.081407 0.322825 -0.087401
v -0.080147 0.378593 -0.072428
v -0.081545 0.402898 -0.077539
v -0.081451 0.415378 -0.078878
v -0.078629 0.323791 -0.101347
v -0.079120 0.313780 -0.100567
v -0.080339 0.352357 -0.077396
v -0.080254 0.344476 -0.098158
v -0.080695 0.332110 -0.082575
v -0.079545 0.321622 -0.081662
v -0.080088 0.402232 -0.073106
v -0.080156 0.390600 -0.072878
v -0.080240 0.374521 -0.095047
v -0.080199 0.384501 -0.093252
v -0.080264 0.364795 -0.096634
v -0.079400 0.215096 -0.082220
v -0.080281 0.214975 -0.082059
v -0.077460 0.330702 -0.077802
v -0.079833 0.342194 -0.078627
v -0.081028 0.414400 -0.075455
v -0.080156 0.354824 -0.097694
v -0.080687 0.416470 -0.082012
v -0.080466 0.425294 -0.072538
v -0.080941 0.426339 -0.075579
v -0.079900 0.427310 -0.078326
v -0.077997 0.311617 -0.080957
v -0.079753 0.395067 -0.090826
v -0.077039 0.275506 -0.080986
v -0.076721 0.256136 -0.080167
v -0.077055 0.265891 -0.080427
v -0.078073 0.334087 -0.101649
v -0.078612 0.417437 -0.084579
v -0.079383 0.406183 -0.088087
v -0.076837 0.246726 -0.080361
v -0.076930 0.284608 -0.081326
v -0.078754 0.424393 -0.069644
v -0.079701 0.413552 -0.072020
v -0.077686 0.228611 -0.079850
v -0.077257 0.221619 -0.079064
v -0.079923 0.436730 -0.072003
v -0.078796 0.437728 -0.074478
v -0.077418 0.237601 -0.080347
v -0.077467 0.215473 -0.081661
v -0.077050 0.293601 -0.081222
v -0.074725 0.320516 -0.077926
v -0.077625 0.428142 -0.080586
v -0.077187 0.302734 -0.080890
v -0.079691 0.435567 -0.069261
v -0.079302 0.215358 -0.080736
v -0.077507 0.359815 -0.067757
v -0.075602 0.340842 -0.075298
v -0.076854 0.350867 -0.071795
v -0.075160 0.377501 -0.062605
v -0.076916 0.367864 -0.065105
v -0.078508 0.207873 -0.081465
v -0.077777 0.207852 -0.079895
v -0.077279 0.355054 -0.100740
v -0.077493 0.344566 -0.101360
v -0.077273 0.365258 -0.099459
v -0.077221 0.385304 -0.095529
v -0.077239 0.375197 -0.097552
v -0.076857 0.395888 -0.092966
v -0.076713 0.402626 -0.067932
v -0.076421 0.390867 -0.066259
v -0.075827 0.243871 -0.091919
v -0.075221 0.253787 -0.094961
v -0.074788 0.313786 -0.102460
v -0.075568 0.304034 -0.101732
v -0.079058 0.446368 -0.068111
v -0.072535 0.330141 -0.076999
v -0.076194 0.227594 -0.084731
v -0.076285 0.235104 -0.088178
v -0.076386 0.406921 -0.090072
v -0.076116 0.423699 -0.066978
v -0.076632 0.413244 -0.068124
v -0.078845 0.445138 -0.065653
v -0.077978 0.443947 -0.063186
v -0.078458 0.434444 -0.066587
v -0.078332 0.215880 -0.079110
v -0.077804 0.208023 -0.081266
v -0.075565 0.418079 -0.086481
v -0.074120 0.274021 -0.099186
v -0.074780 0.263983 -0.097326
v -0.076831 0.208135 -0.078052
v -0.074239 0.323777 -0.103028
v -0.078012 0.454329 -0.061252
v -0.077846 0.447438 -0.070328
v -0.078061 0.455642 -0.063443
v -0.076574 0.456590 -0.065289
v -0.072955 0.284111 -0.100629
v -0.075591 0.448150 -0.071938
v -0.076635 0.438452 -0.076371
v -0.078465 0.207701 -0.081451
v -0.077740 0.207671 -0.079875
v -0.077766 0.207852 -0.081243
v -0.076345 0.208037 -0.080292
v -0.077396 0.207887 -0.080121
v -0.075890 0.433668 -0.064601
v -0.076432 0.216614 -0.078108
v -0.075694 0.208839 -0.076567
v -0.075817 0.221335 -0.082250
v -0.073320 0.344517 -0.103080
v -0.073705 0.334042 -0.103221
v -0.076988 0.464251 -0.057872
v -0.075287 0.465239 -0.059576
v -0.077136 0.453054 -0.059169
v -0.076138 0.461385 -0.054049
v -0.076997 0.462772 -0.055833
v -0.071526 0.302072 -0.078554
v -0.072409 0.311365 -0.077989
v -0.075225 0.452067 -0.057647
v -0.075806 0.443063 -0.061459
v -0.074271 0.457235 -0.066731
v -0.076289 0.208302 -0.080813
v -0.076795 0.207948 -0.078027
v -0.074601 0.208431 -0.080188
v -0.076261 0.208128 -0.080793
v -0.074330 0.228785 -0.079102
v -0.073718 0.438973 -0.077852
v -0.074590 0.428815 -0.082265
v -0.070634 0.365011 -0.056997
v -0.072995 0.349134 -0.066023
v -0.072395 0.357608 -0.060976
v -0.073110 0.355099 -0.102370
v -0.074620 0.208600 -0.080209
v -0.075391 0.215627 -0.081070
v -0.073588 0.237798 -0.079421
v -0.075999 0.208382 -0.078830
v -0.074529 0.208374 -0.079113
v -0.073225 0.375651 -0.098993
v -0.073200 0.365549 -0.101087
v -0.074154 0.216852 -0.077293
v -0.074386 0.222093 -0.078236
v -0.073128 0.385761 -0.096388
v -0.071158 0.293023 -0.078980
v -0.071065 0.265939 -0.078671
v -0.071280 0.256531 -0.078622
v -0.070821 0.284006 -0.079062
v -0.070898 0.275054 -0.078894
v -0.075396 0.470459 -0.049366
v -0.075233 0.472047 -0.051203
v -0.071770 0.339888 -0.070563
v -0.072594 0.407310 -0.091044
v -0.072961 0.396321 -0.093774
v -0.075676 0.208651 -0.076530
v -0.072241 0.247202 -0.079128
v -0.070174 0.303947 -0.102253
v -0.071484 0.294083 -0.101518
v -0.071066 0.403868 -0.062702
v -0.071595 0.413665 -0.064140
v -0.072678 0.448528 -0.073113
v -0.073473 0.209448 -0.075655
v -0.070660 0.393754 -0.059734
v -0.072476 0.208719 -0.079203
v -0.071901 0.234694 -0.088757
v -0.070923 0.243742 -0.092129
v -0.072959 0.221266 -0.082433
v -0.072581 0.227556 -0.085341
v -0.074592 0.468810 -0.047665
v -0.074391 0.460230 -0.052685
v -0.072831 0.467485 -0.046629
v -0.072435 0.433272 -0.062872
v -0.071962 0.423387 -0.064192
v -0.073448 0.208917 -0.077568
v -0.071882 0.208845 -0.077692
v -0.072873 0.442543 -0.060271
v -0.073457 0.209269 -0.075615
v -0.069328 0.313808 -0.102860
v -0.070813 0.429282 -0.083582
v -0.071888 0.418491 -0.087786
v -0.072955 0.215799 -0.080609
v -0.073339 0.478413 -0.043996
v -0.072300 0.475103 -0.040971
v -0.073288 0.476736 -0.042379
v -0.073937 0.473300 -0.052901
v -0.072971 0.465879 -0.060885
v -0.071767 0.474064 -0.054254
v -0.069115 0.263946 -0.097436
v -0.069966 0.253853 -0.095160
v -0.072091 0.459439 -0.051884
v -0.072729 0.451369 -0.056621
v -0.072508 0.479997 -0.045667
v -0.069884 0.383588 -0.055284
v -0.069282 0.370558 -0.052858
v -0.067092 0.375891 -0.048357
v -0.068092 0.273942 -0.099166
v -0.068975 0.321108 -0.077233
v -0.066690 0.311829 -0.077371
v -0.072487 0.208886 -0.079237
v -0.069850 0.439287 -0.079005
v -0.069917 0.209097 -0.077972
v -0.071487 0.222317 -0.077153
v -0.071638 0.217040 -0.076262
v -0.069249 0.237725 -0.077957
v -0.070766 0.229026 -0.077855
v -0.070248 0.466369 -0.062008
v -0.071453 0.457671 -0.067929
v -0.068390 0.333966 -0.103378
v -0.068752 0.323768 -0.103237
v -0.071341 0.209994 -0.074705
v -0.068130 0.344440 -0.103383
v -0.071334 0.209824 -0.074668
v -0.070855 0.209465 -0.076178
v -0.069029 0.209380 -0.076045
v -0.071089 0.482913 -0.037178
v -0.070387 0.484258 -0.038623
v -0.071089 0.481500 -0.035769
v -0.068192 0.375950 -0.099526
v -0.068127 0.365669 -0.101599
v -0.068398 0.396640 -0.094032
v -0.068316 0.386188 -0.096934
v -0.068037 0.355052 -0.102944
v -0.067587 0.348161 -0.059354
v -0.070069 0.215810 -0.079857
v -0.068435 0.227014 -0.084926
v -0.069676 0.220792 -0.082053
v -0.064864 0.293882 -0.101307
v -0.066529 0.283908 -0.100481
v -0.069215 0.474440 -0.055265
v -0.069211 0.442534 -0.058891
v -0.070617 0.473755 -0.039921
v -0.070721 0.466491 -0.046173
v -0.068475 0.472682 -0.039260
v -0.069925 0.451005 -0.055789
v -0.068020 0.458056 -0.068859
v -0.068906 0.448780 -0.074190
v -0.067377 0.418559 -0.088118
v -0.068117 0.407456 -0.091166
v -0.066961 0.234257 -0.088191
v -0.069072 0.330682 -0.072220
v -0.065932 0.321671 -0.072805
v -0.070510 0.480955 -0.046951
v -0.068872 0.484949 -0.039662
v -0.069920 0.209255 -0.078016
v -0.067044 0.423764 -0.061296
v -0.068162 0.433324 -0.061000
v -0.065644 0.302203 -0.077373
v -0.065911 0.360083 -0.049649
v -0.066807 0.354783 -0.054645
v -0.070331 0.479975 -0.034438
v -0.066567 0.247587 -0.076939
v -0.068522 0.465657 -0.046078
v -0.069631 0.458891 -0.051381
v -0.066067 0.414586 -0.059859
v -0.067002 0.209594 -0.076391
v -0.066251 0.429240 -0.084155
v -0.064267 0.332172 -0.065378
v -0.066452 0.340493 -0.063133
v -0.068416 0.222241 -0.075840
v -0.068844 0.217123 -0.075027
v -0.067135 0.228863 -0.076262
v -0.063403 0.303847 -0.101873
v -0.067219 0.466772 -0.062917
v -0.068705 0.210571 -0.073343
v -0.067868 0.210102 -0.074374
v -0.068702 0.210413 -0.073303
v -0.063471 0.266908 -0.075732
v -0.064373 0.257059 -0.075862
v -0.063889 0.284160 -0.076662
v -0.064546 0.292990 -0.077325
v -0.068698 0.485470 -0.031262
v -0.067875 0.484413 -0.030522
v -0.068745 0.486563 -0.032373
v -0.064883 0.396274 -0.054622
v -0.065331 0.405470 -0.057664
v -0.063730 0.253754 -0.094612
v -0.065384 0.243626 -0.091896
v -0.063402 0.275648 -0.076125
v -0.065940 0.210014 -0.074093
v -0.064324 0.387358 -0.050608
v -0.068705 0.478665 -0.033515
v -0.068085 0.481206 -0.047599
v -0.066897 0.485037 -0.040222
v -0.068095 0.487374 -0.033438
v -0.066999 0.209742 -0.076439
v -0.065889 0.220294 -0.080719
v -0.066857 0.215845 -0.078420
v -0.062187 0.263872 -0.096538
v -0.066572 0.451471 -0.055577
v -0.064779 0.448997 -0.075017
v -0.065296 0.439297 -0.079642
v -0.064100 0.226216 -0.083371
v -0.066822 0.459033 -0.051738
v -0.061792 0.323881 -0.102450
v -0.062304 0.313851 -0.102253
v -0.065402 0.363743 -0.044956
v -0.064883 0.237222 -0.075970
v -0.061004 0.247014 -0.074222
v -0.064005 0.433836 -0.059183
v -0.065406 0.442997 -0.058051
v -0.065714 0.481123 -0.047947
v -0.066573 0.474618 -0.055945
v -0.064015 0.210221 -0.074540
v -0.063007 0.312545 -0.073293
v -0.064265 0.458473 -0.069688
v -0.066937 0.487687 -0.034157
v -0.066071 0.211133 -0.071772
v -0.066005 0.217117 -0.073346
v -0.061650 0.334024 -0.102440
v -0.066543 0.489065 -0.029545
v -0.066209 0.489661 -0.030186
v -0.066073 0.210989 -0.071734
v -0.065045 0.210715 -0.072448
v -0.066747 0.477889 -0.032951
v -0.066574 0.483726 -0.030297
v -0.066169 0.488379 -0.028972
v -0.066028 0.471669 -0.039038
v -0.066264 0.465299 -0.046437
v -0.063951 0.470834 -0.039240
v -0.064534 0.477787 -0.032535
v -0.065322 0.221791 -0.074280
v -0.062705 0.386513 -0.096415
v -0.062941 0.407498 -0.090861
v -0.063028 0.396917 -0.093717
v -0.062131 0.365654 -0.100668
v -0.062328 0.376159 -0.098694
v -0.062571 0.424684 -0.058350
v -0.061876 0.355034 -0.101721
v -0.061666 0.344466 -0.102174
v -0.062201 0.418272 -0.087765
v -0.058364 0.283647 -0.099137
v -0.060351 0.273745 -0.098106
v -0.064826 0.484783 -0.040420
v -0.065382 0.489906 -0.030690
v -0.063143 0.210589 -0.072142
v -0.064590 0.487141 -0.028686
v -0.065459 0.487737 -0.028718
v -0.064414 0.346605 -0.053341
v -0.063828 0.474680 -0.056362
v -0.063848 0.467148 -0.063574
v -0.063740 0.228349 -0.074517
v -0.061120 0.236408 -0.073770
v -0.064043 0.366921 -0.040987
v -0.062961 0.378739 -0.045019
v -0.061639 0.368840 -0.038139
v -0.064013 0.210359 -0.074578
v -0.063950 0.216091 -0.076119
v -0.058694 0.243294 -0.089694
v -0.061608 0.233807 -0.086448
v -0.065537 0.487649 -0.034549
v -0.062504 0.220273 -0.078149
v -0.064350 0.460122 -0.053170
v -0.063767 0.349580 -0.048507
v -0.065031 0.483405 -0.030365
v -0.057253 0.257811 -0.072662
v -0.062039 0.443676 -0.058120
v -0.063632 0.452453 -0.056620
v -0.063252 0.480836 -0.048055
v -0.065112 0.490803 -0.027516
v -0.064779 0.490171 -0.027335
v -0.056402 0.293690 -0.099727
v -0.062536 0.340325 -0.053797
v -0.063729 0.466251 -0.047614
v -0.060141 0.438918 -0.079612
v -0.061015 0.428824 -0.084100
v -0.065058 0.491352 -0.027948
v -0.063637 0.211594 -0.070163
v -0.062687 0.211118 -0.070638
v -0.063638 0.211461 -0.070135
v -0.063595 0.217100 -0.071324
v -0.060705 0.406782 -0.053917
v -0.061426 0.415782 -0.056411
v -0.062764 0.221593 -0.072261
v -0.061414 0.210774 -0.072699
v -0.061442 0.322967 -0.066550
v -0.063079 0.354278 -0.039839
v -0.063386 0.352275 -0.043924
v -0.058683 0.293777 -0.073928
v -0.060618 0.303122 -0.073835
v -0.064421 0.489784 -0.030843
v -0.064052 0.487395 -0.034701
v -0.063480 0.489581 -0.030726
v -0.064233 0.489542 -0.027192
v -0.062188 0.355880 -0.036097
v -0.060358 0.434659 -0.057689
v -0.056073 0.253372 -0.092099
v -0.064406 0.491588 -0.028261
v -0.063662 0.491445 -0.028336
v -0.060261 0.397711 -0.051054
v -0.060053 0.448653 -0.075001
v -0.064488 0.492174 -0.026794
v -0.064297 0.491830 -0.026400
v -0.061035 0.210862 -0.070493
v -0.063464 0.486530 -0.028696
v -0.063329 0.483173 -0.030434
v -0.056460 0.246468 -0.071434
v -0.062536 0.487081 -0.034489
v -0.062673 0.484364 -0.040287
v -0.063923 0.491339 -0.026196
v -0.063444 0.490816 -0.026063
v -0.063440 0.488911 -0.027051
v -0.062396 0.488156 -0.026907
v -0.062283 0.477674 -0.032532
v -0.061314 0.482924 -0.030259
v -0.063928 0.492377 -0.026836
v -0.063940 0.492433 -0.025947
v -0.061364 0.340413 -0.045662
v -0.062994 0.491114 -0.028236
v -0.061626 0.467570 -0.048987
v -0.060962 0.453412 -0.058358
v -0.062088 0.461404 -0.054921
v -0.058513 0.379748 -0.042349
v -0.059569 0.388835 -0.047303
v -0.059853 0.332461 -0.055850
v -0.056871 0.323724 -0.057600
v -0.060123 0.467467 -0.063805
v -0.060049 0.458439 -0.070072
v -0.059986 0.225886 -0.080636
v -0.056275 0.233508 -0.083027
v -0.060364 0.356873 -0.033518
v -0.062636 0.489349 -0.030431
v -0.061412 0.210903 -0.072726
v -0.061315 0.216238 -0.073857
v -0.061467 0.470348 -0.039698
v -0.063396 0.492187 -0.025774
v -0.063294 0.492211 -0.026748
v -0.057327 0.285240 -0.073872
v -0.060947 0.474887 -0.056226
v -0.061545 0.341685 -0.040828
v -0.061148 0.227808 -0.072564
v -0.061778 0.211661 -0.068830
v -0.060896 0.211265 -0.069078
v -0.061773 0.211786 -0.068846
v -0.058824 0.444351 -0.058673
v -0.061555 0.216983 -0.069474
v -0.056451 0.277264 -0.073885
v -0.056352 0.268849 -0.073552
v -0.061946 0.485840 -0.028577
v -0.062751 0.490166 -0.025867
v -0.062873 0.491777 -0.025580
v -0.062185 0.491229 -0.025291
v -0.053384 0.314030 -0.100394
v -0.054736 0.303765 -0.099996
v -0.062707 0.491820 -0.026607
v -0.060740 0.483907 -0.039921
v -0.061203 0.480532 -0.047951
v -0.059668 0.210928 -0.071240
v -0.061777 0.342830 -0.036913
v -0.057275 0.407230 -0.088644
v -0.057173 0.396906 -0.091355
v -0.058685 0.313550 -0.067490
v -0.056185 0.303863 -0.067983
v -0.062060 0.491257 -0.026396
v -0.062324 0.490721 -0.027964
v -0.057959 0.369639 -0.036123
v -0.060850 0.221507 -0.070199
v -0.059288 0.227498 -0.070516
v -0.061747 0.489334 -0.025621
v -0.055964 0.376395 -0.096283
v -0.056632 0.386680 -0.093968
v -0.059426 0.210897 -0.069051
v -0.061069 0.486767 -0.033913
v -0.061611 0.490169 -0.027576
v -0.061747 0.489046 -0.029896
v -0.057153 0.416825 -0.054008
v -0.058569 0.425919 -0.055992
v -0.060106 0.220541 -0.075271
v -0.057146 0.226195 -0.077432
v -0.060948 0.487143 -0.026768
v -0.060244 0.488133 -0.025367
v -0.061270 0.490486 -0.026113
v -0.052726 0.324377 -0.100604
v -0.060336 0.477595 -0.032698
v -0.055716 0.427802 -0.082302
v -0.056764 0.417478 -0.085706
v -0.051366 0.273291 -0.094802
v -0.053744 0.263376 -0.093642
v -0.061714 0.343648 -0.033410
v -0.061202 0.490409 -0.025019
v -0.054325 0.355515 -0.099171
v -0.055150 0.365975 -0.098137
v -0.059556 0.462527 -0.056380
v -0.058204 0.454223 -0.059793
v -0.059905 0.484943 -0.028304
v -0.060470 0.211785 -0.067894
v -0.059686 0.211312 -0.067843
v -0.060481 0.211664 -0.067888
v -0.060021 0.216798 -0.068140
v -0.060029 0.331651 -0.032787
v -0.059067 0.331751 -0.036287
v -0.060948 0.488626 -0.029223
v -0.060186 0.344293 -0.030676
v -0.059692 0.331686 -0.029632
v -0.053607 0.345083 -0.099881
v -0.052976 0.334726 -0.100344
v -0.059264 0.470512 -0.040198
v -0.059052 0.468421 -0.049972
v -0.056872 0.470947 -0.040372
v -0.052401 0.243128 -0.085286
v -0.060712 0.489335 -0.027236
v -0.057943 0.331508 -0.046561
v -0.058213 0.331600 -0.040377
v -0.058479 0.475783 -0.034136
v -0.056519 0.407565 -0.051564
v -0.059659 0.211055 -0.071257
v -0.058501 0.220716 -0.072849
v -0.059282 0.216296 -0.071925
v -0.058884 0.482091 -0.030152
v -0.057173 0.483227 -0.028585
v -0.059777 0.489065 -0.024869
v -0.060118 0.489325 -0.026043
v -0.058105 0.474915 -0.055531
v -0.058983 0.483373 -0.039397
v -0.058801 0.480003 -0.047454
v -0.058519 0.235774 -0.071651
v -0.059750 0.486317 -0.033209
v -0.058324 0.210835 -0.069872
v -0.054911 0.437951 -0.078327
v -0.058747 0.485762 -0.026695
v -0.059872 0.487690 -0.029327
v -0.058397 0.210894 -0.067880
v -0.059390 0.221329 -0.068382
v -0.059243 0.487734 -0.027904
v -0.059538 0.211421 -0.067255
v -0.058806 0.211232 -0.066764
v -0.059521 0.211540 -0.067254
v -0.049097 0.283370 -0.095545
v -0.057271 0.344624 -0.029814
v -0.057501 0.357320 -0.032081
v -0.056661 0.435731 -0.056707
v -0.054663 0.426885 -0.054683
v -0.055438 0.389546 -0.044728
v -0.056061 0.398494 -0.048535
v -0.057631 0.487161 -0.025660
v -0.057940 0.486272 -0.025524
v -0.056582 0.332119 -0.029288
v -0.056863 0.467356 -0.063297
v -0.058395 0.487495 -0.026885
v -0.055712 0.226649 -0.074772
v -0.056127 0.457921 -0.069376
v -0.055344 0.447829 -0.073942
v -0.058817 0.216489 -0.067207
v -0.058121 0.221117 -0.067145
v -0.056594 0.320137 -0.034061
v -0.053212 0.233968 -0.078936
v -0.055705 0.483411 -0.027808
v -0.058474 0.485829 -0.032397
v -0.057164 0.485229 -0.031272
v -0.054744 0.323168 -0.048744
v -0.057188 0.482623 -0.038601
v -0.057683 0.210836 -0.066764
v -0.057040 0.319324 -0.031020
v -0.054009 0.320038 -0.030579
v -0.058312 0.210964 -0.069883
v -0.057841 0.216284 -0.070336
v -0.054476 0.380183 -0.040330
v -0.056686 0.463334 -0.057293
v -0.058777 0.211350 -0.066756
v -0.057514 0.210764 -0.068635
v -0.057718 0.227264 -0.068752
v -0.057479 0.220756 -0.070993
v -0.056515 0.235235 -0.069692
v -0.054795 0.234719 -0.068076
v -0.055461 0.321012 -0.037624
v -0.056425 0.468859 -0.050523
v -0.056446 0.477870 -0.032836
v -0.054655 0.477779 -0.032832
v -0.057596 0.216258 -0.066446
v -0.056665 0.220880 -0.066213
v -0.055424 0.444978 -0.059283
v -0.052972 0.436289 -0.057157
v -0.057652 0.210955 -0.066752
v -0.056580 0.479213 -0.046544
v -0.056366 0.215883 -0.066234
v -0.053275 0.285950 -0.068217
v -0.054373 0.294093 -0.068097
v -0.054008 0.314259 -0.059101
v -0.051845 0.304262 -0.060004
v -0.053300 0.417441 -0.052711
v -0.053829 0.245733 -0.069752
v -0.056984 0.210687 -0.067273
v -0.055122 0.484368 -0.028794
v -0.055977 0.484759 -0.029971
v -0.057499 0.210892 -0.068644
v -0.056865 0.216181 -0.069036
v -0.054702 0.321984 -0.042018
v -0.055178 0.454832 -0.060485
v -0.052469 0.445460 -0.059811
v -0.056371 0.227049 -0.067169
v -0.054303 0.466893 -0.062331
v -0.055622 0.474390 -0.054686
v -0.054023 0.357152 -0.032173
v -0.054022 0.369579 -0.035256
v -0.054684 0.483935 -0.027776
v -0.053281 0.234145 -0.066492
v -0.056962 0.210813 -0.067280
v -0.055301 0.220636 -0.066396
v -0.053958 0.344721 -0.030417
v -0.056542 0.220733 -0.069467
v -0.054532 0.226650 -0.070415
v -0.054989 0.226756 -0.072471
v -0.052138 0.278944 -0.067536
v -0.053259 0.332557 -0.030180
v -0.051741 0.396547 -0.086537
v -0.052281 0.416073 -0.081139
v -0.052250 0.406395 -0.083902
v -0.051424 0.259697 -0.069405
v -0.051010 0.272551 -0.066051
v -0.055460 0.481721 -0.037572
v -0.054565 0.478219 -0.045543
v -0.052795 0.308485 -0.034899
v -0.056058 0.216017 -0.067603
v -0.055701 0.220684 -0.067946
v -0.054742 0.471231 -0.040959
v -0.051423 0.426073 -0.078462
v -0.053733 0.468981 -0.050757
v -0.052228 0.455169 -0.060502
v -0.053731 0.463791 -0.057684
v -0.054957 0.226743 -0.065948
v -0.051097 0.427255 -0.055153
v -0.050693 0.386694 -0.089013
v -0.051908 0.311244 -0.040735
v -0.052593 0.309747 -0.037631
v -0.054080 0.226557 -0.068575
v -0.051547 0.244574 -0.068044
v -0.052003 0.398736 -0.047485
v -0.052558 0.407937 -0.050292
v -0.049740 0.257044 -0.066155
v -0.045676 0.303847 -0.095980
v -0.047172 0.293599 -0.095794
v -0.051840 0.233456 -0.065283
v -0.053227 0.457319 -0.067846
v -0.046412 0.263098 -0.088276
v -0.049032 0.253144 -0.087047
v -0.051107 0.389636 -0.043687
v -0.053782 0.480808 -0.036402
v -0.052335 0.480014 -0.035247
v -0.048071 0.366642 -0.093182
v -0.049454 0.376709 -0.091276
v -0.051269 0.234073 -0.073112
v -0.051932 0.234179 -0.076069
v -0.051472 0.478937 -0.033899
v -0.052769 0.477891 -0.032879
v -0.053535 0.473498 -0.053706
v -0.051544 0.312786 -0.044616
v -0.049911 0.436384 -0.058431
v -0.051678 0.447023 -0.071702
v -0.053844 0.226475 -0.066758
v -0.049656 0.445861 -0.060415
v -0.050903 0.233903 -0.070790
v -0.050768 0.436326 -0.075201
v -0.050276 0.243442 -0.066055
v -0.044523 0.314290 -0.096337
v -0.051782 0.314032 -0.050746
v -0.052646 0.471915 -0.041694
v -0.052736 0.477035 -0.044588
v -0.051839 0.472387 -0.052668
v -0.050260 0.368746 -0.035997
v -0.050308 0.379792 -0.039973
v -0.050584 0.287736 -0.062342
v -0.050632 0.294535 -0.060647
v -0.045548 0.346193 -0.095182
v -0.046798 0.356457 -0.094369
v -0.052229 0.466169 -0.061049
v -0.051030 0.456713 -0.065934
v -0.050515 0.233186 -0.066520
v -0.050594 0.233636 -0.068708
v -0.050745 0.356516 -0.033639
v -0.050492 0.344547 -0.032235
v -0.049575 0.304279 -0.052397
v -0.050894 0.320936 -0.031654
v -0.050045 0.308997 -0.034089
v -0.047147 0.309992 -0.034851
v -0.048805 0.254796 -0.063527
v -0.044214 0.273179 -0.089135
v -0.050953 0.463859 -0.057547
v -0.049610 0.455348 -0.060496
v -0.051321 0.473475 -0.042496
v -0.051403 0.469221 -0.050728
v -0.048741 0.407872 -0.050631
v -0.049586 0.417627 -0.052881
v -0.049509 0.242272 -0.063880
v -0.047862 0.321969 -0.033569
v -0.049743 0.332999 -0.031995
v -0.048808 0.243821 -0.079788
v -0.047205 0.243979 -0.075698
v -0.044531 0.335756 -0.095891
v -0.049277 0.299858 -0.041654
v -0.046536 0.298625 -0.038124
v -0.049043 0.298484 -0.038961
v -0.044075 0.325059 -0.096331
v -0.051400 0.475450 -0.043566
v -0.048243 0.398302 -0.048230
v -0.045192 0.254050 -0.080197
v -0.048816 0.414521 -0.074648
v -0.048517 0.404893 -0.076582
v -0.050586 0.465266 -0.059519
v -0.049312 0.284026 -0.059622
v -0.046907 0.243428 -0.072475
v -0.048860 0.301499 -0.044407
v -0.046917 0.241494 -0.064729
v -0.048062 0.241229 -0.062714
v -0.050532 0.470857 -0.051489
v -0.049622 0.464409 -0.058138
v -0.046714 0.385891 -0.081352
v -0.047834 0.395355 -0.078942
v -0.049548 0.446527 -0.069295
v -0.048828 0.303276 -0.047720
v -0.049660 0.265244 -0.064191
v -0.048336 0.435433 -0.071799
v -0.048430 0.424620 -0.073334
v -0.046895 0.378652 -0.041808
v -0.047251 0.388939 -0.045015
v -0.048190 0.427110 -0.056893
v -0.046636 0.417352 -0.054667
v -0.049438 0.456127 -0.064061
v -0.048085 0.446141 -0.066938
v -0.048824 0.271567 -0.060880
v -0.048422 0.282440 -0.057592
v -0.047068 0.281075 -0.054320
v -0.046631 0.242162 -0.067139
v -0.046774 0.242871 -0.069717
v -0.044620 0.311046 -0.036640
v -0.047580 0.355950 -0.036339
v -0.048599 0.293598 -0.054522
v -0.046059 0.333450 -0.035086
v -0.046993 0.344356 -0.035096
v -0.047128 0.367586 -0.038510
v -0.046722 0.251377 -0.059296
v -0.047840 0.253010 -0.061211
v -0.043915 0.299351 -0.038874
v -0.047474 0.436249 -0.060136
v -0.046027 0.426681 -0.058986
v -0.048489 0.263840 -0.061666
v -0.044723 0.323072 -0.036431
v -0.047187 0.270452 -0.057531
v -0.047421 0.445931 -0.061838
v -0.045963 0.435930 -0.062366
v -0.048455 0.455728 -0.062245
v -0.047272 0.445901 -0.064295
v -0.045867 0.407321 -0.052725
v -0.047756 0.292447 -0.051852
v -0.045232 0.376329 -0.083627
v -0.046414 0.288540 -0.043641
v -0.046985 0.291143 -0.048937
v -0.046779 0.289797 -0.046199
v -0.040307 0.293859 -0.089612
v -0.041994 0.283428 -0.089691
v -0.044453 0.288092 -0.042360
v -0.042377 0.263935 -0.080622
v -0.043415 0.254105 -0.074039
v -0.047220 0.262108 -0.059309
v -0.045943 0.260671 -0.057094
v -0.046374 0.404118 -0.069234
v -0.046767 0.424630 -0.068870
v -0.046753 0.414418 -0.068849
v -0.047159 0.435368 -0.068419
v -0.044923 0.387618 -0.048202
v -0.045457 0.397394 -0.050741
v -0.044906 0.416771 -0.057399
v -0.046374 0.435570 -0.065261
v -0.044678 0.250554 -0.059513
v -0.042101 0.356808 -0.086712
v -0.043693 0.366666 -0.085423
v -0.045676 0.394069 -0.070319
v -0.044776 0.366408 -0.042410
v -0.043740 0.344497 -0.039563
v -0.044684 0.355409 -0.040464
v -0.045151 0.425990 -0.061842
v -0.044708 0.377312 -0.045272
v -0.045861 0.269449 -0.054862
v -0.046003 0.279944 -0.051715
v -0.045269 0.278836 -0.049220
v -0.039149 0.304295 -0.089563
v -0.042591 0.334124 -0.039909
v -0.043686 0.251730 -0.064550
v -0.044022 0.251042 -0.061927
v -0.043390 0.252547 -0.067461
v -0.043241 0.253390 -0.070573
v -0.045672 0.425213 -0.065125
v -0.045461 0.415129 -0.064495
v -0.044550 0.259594 -0.055437
v -0.042599 0.259637 -0.056592
v -0.044681 0.384453 -0.072005
v -0.043326 0.375040 -0.073926
v -0.044353 0.394277 -0.063681
v -0.045076 0.404643 -0.064027
v -0.044831 0.268488 -0.052382
v -0.042692 0.268116 -0.051555
v -0.044151 0.396352 -0.054325
v -0.044500 0.406506 -0.055968
v -0.039311 0.336215 -0.088642
v -0.040600 0.346659 -0.087729
v -0.043716 0.386243 -0.052277
v -0.044690 0.415951 -0.060811
v -0.044344 0.277958 -0.047221
v -0.044386 0.405580 -0.059745
v -0.043345 0.375971 -0.049781
v -0.042150 0.354976 -0.046878
v -0.042974 0.365355 -0.047710
v -0.042313 0.312378 -0.039244
v -0.041438 0.324088 -0.040953
v -0.039972 0.313842 -0.043053
v -0.040729 0.344907 -0.046759
v -0.043547 0.384108 -0.063522
v -0.041826 0.300357 -0.040819
v -0.040243 0.301533 -0.043657
v -0.038434 0.325525 -0.089365
v -0.038496 0.314811 -0.089644
v -0.043863 0.395245 -0.058603
v -0.042046 0.278221 -0.047708
v -0.042328 0.288701 -0.043470
v -0.043277 0.384941 -0.057241
v -0.040416 0.273912 -0.081109
v -0.038694 0.284222 -0.081217
v -0.041858 0.260418 -0.059175
v -0.040770 0.289630 -0.045678
v -0.041387 0.262446 -0.064838
v -0.041786 0.261358 -0.061882
v -0.041729 0.365844 -0.075622
v -0.042757 0.374278 -0.063922
v -0.040934 0.263677 -0.068057
v -0.040743 0.264529 -0.072454
v -0.042623 0.374799 -0.055713
v -0.041769 0.364862 -0.055045
v -0.041423 0.364947 -0.064866
v -0.040491 0.355106 -0.055496
v -0.041334 0.268974 -0.053597
v -0.040522 0.279213 -0.049880
v -0.040629 0.270052 -0.056187
v -0.038287 0.324947 -0.047877
v -0.039334 0.334941 -0.047196
v -0.039001 0.274651 -0.071930
v -0.038911 0.302906 -0.047114
v -0.040054 0.356406 -0.077072
v -0.038400 0.346504 -0.078232
v -0.037136 0.294753 -0.080899
v -0.039556 0.290719 -0.048441
v -0.040242 0.271224 -0.058977
v -0.037640 0.314962 -0.049275
v -0.039683 0.355652 -0.066114
v -0.039289 0.273924 -0.065887
v -0.039818 0.272589 -0.062178
v -0.038942 0.345457 -0.056383
v -0.037486 0.335634 -0.057188
v -0.039808 0.280368 -0.052551
v -0.039173 0.281645 -0.055629
v -0.038100 0.346038 -0.067299
v -0.037330 0.284966 -0.071477
v -0.038526 0.283039 -0.059278
v -0.038543 0.292051 -0.051814
v -0.036255 0.325703 -0.057742
v -0.036275 0.325901 -0.079786
v -0.036931 0.336323 -0.079154
v -0.037815 0.284349 -0.063911
v -0.037556 0.293488 -0.055776
v -0.035974 0.315549 -0.080166
v -0.036264 0.305205 -0.080487
v -0.036770 0.336104 -0.068204
v -0.037405 0.304427 -0.052004
v -0.036684 0.294846 -0.061538
v -0.035968 0.305469 -0.059372
v -0.035739 0.315679 -0.058265
v -0.036055 0.295449 -0.070640
v -0.035333 0.305838 -0.069775
v -0.035853 0.326034 -0.068815
v -0.035236 0.315938 -0.069238
usemtl Medial_head_of_gastrocnemius_rMaterial0
f 1 2 3
f 4 3 2
f 5 2 6
f 4 2 5
f 1 6 2
f 7 8 9
f 8 10 9
f 9 11 12
f 9 13 11
f 7 9 14
f 9 12 14
f 9 10 13
f 7 3 8
f 8 3 15
f 7 1 3
f 4 15 3
f 8 16 10
f 8 15 16
f 17 12 11
f 18 17 11
f 18 11 13
f 5 6 19
f 5 19 20
f 5 20 21
f 5 21 22
f 4 5 23
f 5 22 23
f 24 1 7
f 24 6 1
f 7 14 25
f 24 7 26
f 7 25 26
f 27 19 6
f 24 27 6
f 17 28 12
f 29 14 12
f 28 29 12
f 20 19 30
f 27 30 19
f 20 31 21
f 32 21 31
f 32 22 21
f 17 33 28
f 18 34 17
f 17 34 33
f 29 25 14
f 16 35 10
f 36 13 10
f 36 10 35
f 28 37 29
f 28 38 37
f 28 33 38
f 39 16 15
f 39 15 4
f 20 40 31
f 20 41 40
f 20 30 42
f 20 42 41
f 16 43 35
f 39 43 16
f 4 23 44
f 39 4 45
f 4 44 45
f 36 18 13
f 46 47 48
f 49 48 47
f 50 48 51
f 51 48 52
f 46 48 50
f 49 52 48
f 53 54 47
f 55 47 54
f 53 47 46
f 55 49 47
f 56 31 40
f 32 31 56
f 56 40 57
f 41 57 40
f 51 58 59
f 51 60 58
f 50 51 61
f 51 59 61
f 51 52 62
f 51 62 60
f 53 63 54
f 64 54 63
f 64 55 54
f 56 57 65
f 65 57 66
f 41 66 57
f 67 58 68
f 60 68 58
f 67 59 58
f 18 69 34
f 18 70 69
f 36 71 18
f 18 71 70
f 72 68 73
f 72 67 68
f 60 73 68
f 46 50 74
f 50 61 75
f 50 75 74
f 76 23 22
f 76 44 23
f 56 65 77
f 65 72 78
f 65 78 79
f 65 80 72
f 65 66 80
f 65 79 77
f 53 46 81
f 46 74 81
f 53 82 63
f 83 63 82
f 83 64 63
f 56 77 84
f 32 56 85
f 56 84 85
f 86 61 59
f 86 75 61
f 72 73 78
f 87 78 73
f 87 79 78
f 72 88 67
f 72 80 89
f 72 89 88
f 67 86 59
f 90 82 53
f 53 81 91
f 90 53 91
f 49 92 52
f 92 62 52
f 55 93 49
f 49 93 92
f 60 62 94
f 92 94 62
f 95 34 69
f 96 33 34
f 95 96 34
f 60 87 73
f 67 88 97
f 67 98 86
f 67 97 98
f 83 82 99
f 90 99 82
f 60 100 87
f 60 94 100
f 83 101 64
f 102 83 99
f 102 103 83
f 83 103 104
f 83 104 101
f 105 80 66
f 105 89 80
f 64 106 55
f 55 106 93
f 107 27 24
f 24 26 108
f 107 24 109
f 24 108 109
f 110 77 79
f 110 84 77
f 107 30 27
f 64 101 111
f 64 112 106
f 64 111 112
f 113 26 25
f 113 108 26
f 76 22 32
f 114 42 30
f 107 114 30
f 115 102 99
f 90 116 99
f 115 99 116
f 87 110 79
f 29 37 117
f 118 37 38
f 118 117 37
f 102 119 103
f 120 103 119
f 120 104 103
f 29 113 25
f 29 117 121
f 29 121 113
f 41 105 66
f 122 95 69
f 122 69 70
f 41 42 123
f 114 123 42
f 124 88 89
f 124 97 88
f 125 101 104
f 125 111 101
f 41 126 105
f 41 123 126
f 102 127 119
f 115 127 102
f 96 128 33
f 128 38 33
f 86 129 75
f 86 98 130
f 86 131 129
f 86 130 131
f 129 74 75
f 132 81 74
f 129 133 74
f 132 74 133
f 95 134 96
f 96 135 128
f 96 134 135
f 87 100 136
f 87 137 110
f 87 136 137
f 92 138 94
f 138 100 94
f 92 93 139
f 92 140 138
f 92 139 140
f 141 93 106
f 141 139 93
f 138 136 100
f 132 91 81
f 142 90 91
f 142 91 143
f 132 143 91
f 142 116 90
f 36 35 144
f 145 35 43
f 145 144 35
f 32 85 146
f 76 32 147
f 32 146 147
f 148 119 127
f 120 119 148
f 125 104 120
f 149 98 97
f 149 130 98
f 150 71 36
f 150 36 151
f 36 144 151
f 152 106 112
f 152 141 106
f 153 115 116
f 142 154 116
f 153 116 154
f 148 127 155
f 156 155 127
f 115 157 127
f 156 127 157
f 128 158 38
f 158 118 38
f 145 43 39
f 105 124 89
f 95 159 134
f 122 159 95
f 160 112 111
f 160 152 112
f 39 45 161
f 145 39 162
f 39 161 162
f 128 163 158
f 128 135 163
f 150 70 71
f 164 85 84
f 164 146 85
f 148 155 165
f 120 148 166
f 148 165 167
f 148 167 168
f 148 168 166
f 169 45 44
f 169 161 45
f 165 155 156
f 120 166 170
f 125 120 171
f 120 170 171
f 153 157 115
f 110 164 84
f 160 111 125
f 159 172 134
f 134 172 173
f 134 173 135
f 159 174 172
f 175 172 174
f 176 173 172
f 175 176 172
f 156 157 177
f 153 177 157
f 158 178 118
f 158 163 179
f 158 179 178
f 122 70 180
f 150 180 70
f 110 137 181
f 110 182 164
f 110 181 182
f 165 183 167
f 184 167 183
f 184 168 167
f 165 156 185
f 165 185 186
f 165 187 183
f 165 186 187
f 105 126 188
f 105 189 124
f 105 188 189
f 169 44 76
f 190 185 156
f 156 177 191
f 190 156 191
f 192 166 168
f 192 170 166
f 193 174 159
f 122 193 159
f 135 173 194
f 135 194 163
f 195 175 174
f 193 196 174
f 195 174 196
f 176 194 173
f 197 121 117
f 118 197 117
f 125 171 198
f 160 125 199
f 125 198 199
f 129 200 133
f 129 131 201
f 129 201 202
f 129 202 200
f 203 137 136
f 203 181 137
f 204 193 122
f 122 180 205
f 204 122 205
f 124 149 97
f 113 121 206
f 197 206 121
f 207 194 176
f 208 176 175
f 208 207 176
f 138 203 136
f 138 140 209
f 138 209 210
f 138 210 203
f 118 178 211
f 118 212 197
f 118 211 212
f 213 140 139
f 213 209 140
f 141 213 139
f 214 126 123
f 214 188 126
f 186 185 190
f 107 109 215
f 216 109 108
f 216 215 109
f 217 123 114
f 217 214 123
f 217 114 107
f 107 215 218
f 217 107 218
f 219 183 187
f 186 219 187
f 219 220 183
f 220 184 183
f 132 133 200
f 221 131 130
f 221 201 131
f 222 141 152
f 141 223 213
f 222 223 141
f 163 194 224
f 163 224 179
f 113 216 108
f 113 206 225
f 113 225 216
f 207 224 194
f 76 147 226
f 169 76 227
f 76 226 227
f 228 154 142
f 228 142 143
f 153 154 229
f 228 229 154
f 230 171 170
f 230 198 171
f 184 192 168
f 178 179 231
f 178 231 211
f 232 143 132
f 228 143 232
f 222 152 160
f 233 175 195
f 233 208 175
f 195 196 193
f 195 193 204
f 150 151 234
f 235 151 144
f 235 234 151
f 236 180 150
f 236 150 237
f 150 234 237
f 186 238 219
f 186 190 239
f 186 240 238
f 186 239 240
f 241 177 153
f 241 153 242
f 153 229 242
f 243 224 207
f 244 207 208
f 244 243 207
f 241 191 177
f 235 144 145
f 236 205 180
f 190 191 245
f 241 245 191
f 179 224 246
f 179 246 231
f 243 246 224
f 149 221 130
f 192 230 170
f 247 147 146
f 247 226 147
f 160 199 248
f 222 160 249
f 160 248 249
f 204 205 250
f 236 250 205
f 219 251 220
f 219 238 252
f 219 253 251
f 219 252 253
f 220 254 184
f 184 255 192
f 184 254 256
f 184 256 255
f 145 162 257
f 235 145 258
f 145 257 258
f 259 239 190
f 190 245 260
f 259 190 260
f 220 261 254
f 220 251 261
f 232 132 262
f 132 200 263
f 264 262 132
f 264 132 263
f 265 162 161
f 265 257 162
f 164 247 146
f 124 266 149
f 124 189 267
f 124 267 266
f 195 204 268
f 204 250 268
f 195 268 233
f 269 199 198
f 269 248 199
f 240 252 238
f 270 208 233
f 270 244 208
f 197 212 271
f 212 211 272
f 212 272 271
f 240 239 259
f 197 273 206
f 197 271 274
f 197 274 273
f 192 255 275
f 192 276 230
f 192 275 276
f 164 182 277
f 164 278 247
f 164 277 278
f 279 211 231
f 279 272 211
f 265 161 169
f 256 254 261
f 230 269 198
f 280 182 181
f 280 277 182
f 273 225 206
f 281 231 246
f 281 279 231
f 282 246 243
f 283 243 244
f 283 282 243
f 282 281 246
f 284 251 253
f 285 261 251
f 285 251 284
f 203 280 181
f 286 253 252
f 284 253 286
f 287 210 209
f 213 287 209
f 203 210 288
f 287 288 210
f 289 213 223
f 289 290 213
f 213 290 287
f 203 291 280
f 203 288 291
f 202 201 292
f 221 292 201
f 293 250 236
f 293 268 250
f 236 237 294
f 293 236 295
f 236 294 295
f 169 227 296
f 265 169 297
f 169 296 297
f 289 223 222
f 298 255 256
f 298 275 255
f 299 260 245
f 299 245 241
f 240 300 252
f 240 259 301
f 240 301 302
f 240 302 300
f 259 260 303
f 299 303 260
f 230 276 304
f 230 305 269
f 230 304 305
f 222 249 306
f 289 222 307
f 222 306 307
f 308 237 234
f 308 294 237
f 149 309 221
f 149 310 309
f 149 266 310
f 256 261 311
f 312 311 261
f 312 261 285
f 313 233 268
f 293 313 268
f 313 270 233
f 241 242 314
f 299 241 315
f 241 314 315
f 316 189 188
f 316 267 189
f 202 317 200
f 202 292 318
f 202 318 317
f 286 252 319
f 300 319 252
f 216 225 320
f 273 320 225
f 321 301 259
f 259 303 322
f 321 259 322
f 323 242 229
f 323 314 242
f 308 234 235
f 324 244 270
f 324 283 244
f 325 249 248
f 325 306 249
f 221 309 326
f 221 327 292
f 221 326 327
f 298 256 311
f 328 271 272
f 329 272 279
f 328 272 329
f 323 229 228
f 214 316 188
f 330 274 271
f 330 271 328
f 331 227 226
f 331 296 227
f 332 276 275
f 332 304 276
f 333 279 281
f 334 281 282
f 333 281 335
f 334 335 281
f 329 279 333
f 216 336 215
f 216 320 337
f 216 337 336
f 338 214 217
f 214 339 316
f 338 339 214
f 284 286 340
f 286 319 341
f 286 341 340
f 285 284 342
f 284 340 342
f 336 218 215
f 228 232 343
f 323 228 344
f 228 343 344
f 235 258 345
f 308 235 346
f 235 345 346
f 338 217 218
f 338 218 347
f 336 347 218
f 348 282 283
f 348 334 282
f 269 325 248
f 330 273 274
f 302 301 321
f 349 232 262
f 349 343 232
f 317 263 200
f 300 350 319
f 302 350 300
f 298 311 351
f 352 311 312
f 352 351 311
f 312 285 353
f 285 342 353
f 341 319 350
f 332 275 298
f 247 331 226
f 354 313 293
f 293 295 355
f 354 293 356
f 293 355 356
f 357 258 257
f 357 345 258
f 324 270 313
f 324 313 354
f 358 322 303
f 358 303 299
f 264 349 262
f 269 305 359
f 269 360 325
f 269 359 360
f 361 295 294
f 361 355 295
f 321 322 362
f 358 362 322
f 247 278 363
f 247 364 331
f 247 363 364
f 365 264 263
f 317 365 263
f 330 366 273
f 273 367 320
f 273 366 367
f 299 315 368
f 358 299 369
f 299 368 369
f 298 351 370
f 332 298 371
f 298 370 371
f 357 257 265
f 326 309 310
f 372 283 324
f 372 348 283
f 373 266 267
f 373 310 266
f 374 305 304
f 374 359 305
f 312 353 375
f 352 312 375
f 329 333 376
f 328 329 377
f 329 376 377
f 378 278 277
f 378 363 278
f 379 342 340
f 380 353 342
f 380 342 379
f 333 335 381
f 382 335 334
f 382 381 335
f 333 381 376
f 302 383 350
f 341 350 384
f 383 384 350
f 341 385 340
f 379 340 385
f 302 321 386
f 321 362 387
f 388 321 387
f 388 386 321
f 302 389 383
f 302 386 389
f 361 294 308
f 330 328 390
f 328 377 390
f 280 378 277
f 391 290 289
f 289 307 392
f 289 392 393
f 391 289 393
f 391 287 290
f 287 394 288
f 391 395 287
f 287 395 394
f 396 315 314
f 396 368 315
f 280 291 397
f 280 397 398
f 280 398 378
f 394 291 288
f 399 307 306
f 399 392 307
f 265 297 400
f 357 265 401
f 265 400 401
f 402 351 352
f 402 370 351
f 403 375 353
f 403 353 380
f 394 397 291
f 374 304 332
f 404 334 348
f 404 382 334
f 341 384 405
f 341 406 385
f 341 405 406
f 407 318 292
f 407 292 327
f 325 399 306
f 332 371 408
f 374 332 409
f 332 408 409
f 330 390 410
f 411 366 330
f 411 330 410
f 365 412 264
f 264 413 349
f 264 412 414
f 264 414 413
f 396 314 323
f 324 354 415
f 324 415 372
f 354 356 416
f 354 416 415
f 308 346 417
f 361 308 418
f 308 417 418
f 352 375 419
f 403 419 375
f 402 352 419
f 420 356 355
f 420 416 356
f 421 362 358
f 421 387 362
f 317 318 422
f 407 422 318
f 383 423 384
f 389 423 383
f 316 373 267
f 424 337 320
f 424 320 367
f 358 369 425
f 421 358 426
f 358 425 426
f 427 371 370
f 427 408 371
f 405 384 423
f 380 379 428
f 379 385 429
f 379 429 428
f 430 297 296
f 430 400 297
f 407 327 431
f 326 431 327
f 421 432 387
f 388 387 432
f 325 360 433
f 325 434 399
f 325 433 434
f 403 380 435
f 380 428 435
f 429 385 406
f 436 376 381
f 437 381 382
f 436 381 438
f 437 438 381
f 439 377 376
f 439 376 436
f 323 344 440
f 396 323 441
f 323 440 441
f 389 386 388
f 442 390 377
f 442 377 439
f 443 348 372
f 443 404 348
f 326 310 444
f 373 444 310
f 317 445 365
f 317 422 446
f 317 446 445
f 420 355 361
f 427 370 402
f 447 316 339
f 316 448 373
f 447 448 316
f 403 449 419
f 402 419 450
f 419 449 451
f 419 451 450
f 429 406 452
f 405 452 406
f 365 453 412
f 365 445 453
f 454 369 368
f 454 425 369
f 455 346 345
f 455 417 346
f 403 435 456
f 457 449 403
f 457 403 456
f 442 410 390
f 458 344 343
f 458 440 344
f 459 360 359
f 459 433 360
f 460 435 428
f 429 461 428
f 460 428 461
f 460 456 435
f 462 382 404
f 462 437 382
f 405 423 463
f 389 464 423
f 464 463 423
f 465 366 411
f 465 367 366
f 349 458 343
f 331 430 296
f 402 450 466
f 427 402 467
f 402 466 467
f 459 359 374
f 429 468 461
f 429 452 469
f 429 469 468
f 405 470 452
f 405 463 471
f 405 471 470
f 447 339 338
f 389 388 472
f 389 473 464
f 389 472 473
f 460 474 456
f 460 461 475
f 460 475 474
f 407 476 422
f 407 431 476
f 477 449 457
f 477 451 449
f 457 456 474
f 336 337 424
f 478 432 421
f 421 426 479
f 478 421 480
f 421 479 480
f 349 413 481
f 349 482 458
f 349 481 482
f 475 461 468
f 326 483 431
f 326 444 484
f 326 484 483
f 374 409 485
f 374 485 486
f 459 374 486
f 469 452 470
f 420 361 487
f 361 418 488
f 361 488 487
f 489 412 453
f 489 414 412
f 490 450 451
f 490 466 450
f 491 372 415
f 491 443 372
f 492 415 416
f 492 491 415
f 454 368 396
f 492 416 420
f 388 432 493
f 472 388 493
f 475 468 494
f 475 495 474
f 475 494 495
f 469 494 468
f 457 474 495
f 496 338 347
f 447 338 496
f 497 409 408
f 497 485 409
f 497 408 427
f 498 446 422
f 498 422 476
f 442 499 410
f 411 410 499
f 455 345 357
f 478 493 432
f 477 457 495
f 436 438 500
f 501 438 437
f 501 500 438
f 439 436 502
f 436 500 502
f 503 426 425
f 503 479 426
f 442 439 504
f 439 502 504
f 336 505 347
f 336 424 506
f 336 506 505
f 464 507 463
f 471 463 507
f 490 451 477
f 469 470 508
f 471 508 470
f 469 509 494
f 469 510 509
f 469 508 510
f 496 347 505
f 331 364 511
f 331 512 430
f 331 511 512
f 509 495 494
f 498 445 446
f 473 507 464
f 477 495 513
f 509 513 495
f 427 467 514
f 497 427 515
f 427 514 515
f 516 404 443
f 516 462 404
f 517 453 445
f 498 517 445
f 518 393 392
f 391 393 519
f 518 519 393
f 373 520 444
f 521 373 448
f 521 520 373
f 477 513 522
f 490 477 523
f 477 522 523
f 524 413 414
f 524 481 413
f 399 518 392
f 510 513 509
f 442 504 525
f 526 499 442
f 526 442 525
f 471 527 508
f 510 508 527
f 528 395 391
f 391 519 529
f 528 391 529
f 510 522 513
f 530 437 462
f 530 501 437
f 531 467 466
f 531 514 467
f 531 466 490
f 490 523 532
f 490 532 533
f 531 490 533
f 396 441 534
f 454 396 535
f 396 534 535
f 483 476 431
f 492 420 536
f 420 537 536
f 420 487 537
f 471 507 538
f 471 539 527
f 471 538 539
f 528 394 395
f 540 523 522
f 540 532 523
f 541 364 363
f 541 511 364
f 472 493 542
f 473 472 542
f 399 434 543
f 399 544 518
f 399 543 544
f 357 401 545
f 455 357 546
f 357 545 546
f 517 547 453
f 547 489 453
f 510 540 522
f 510 527 548
f 510 548 540
f 394 549 397
f 528 550 394
f 394 550 549
f 478 480 551
f 552 480 479
f 552 551 480
f 503 425 454
f 473 553 507
f 553 538 507
f 549 398 397
f 378 541 363
f 554 502 500
f 555 500 501
f 554 500 556
f 555 556 500
f 557 504 502
f 557 502 554
f 517 558 547
f 498 559 517
f 517 559 558
f 532 560 533
f 531 533 560
f 539 548 527
f 547 561 489
f 547 562 561
f 547 558 562
f 378 398 563
f 549 563 398
f 378 563 564
f 378 564 541
f 489 524 414
f 478 565 493
f 478 551 566
f 567 565 478
f 567 478 566
f 568 418 417
f 568 488 418
f 540 569 532
f 532 569 560
f 557 525 504
f 570 498 476
f 498 571 559
f 570 571 498
f 493 572 542
f 493 565 572
f 520 484 444
f 573 441 440
f 573 534 441
f 516 443 491
f 574 491 492
f 516 491 574
f 483 570 476
f 492 536 575
f 574 492 576
f 492 575 576
f 473 542 577
f 473 578 553
f 473 577 578
f 540 548 579
f 540 580 569
f 540 579 580
f 581 497 515
f 582 515 514
f 582 583 515
f 581 515 583
f 539 579 548
f 411 499 584
f 526 584 499
f 465 411 584
f 531 560 585
f 582 514 531
f 582 531 585
f 586 462 516
f 586 530 462
f 587 434 433
f 587 543 434
f 424 367 465
f 552 479 503
f 581 485 497
f 539 538 588
f 553 588 538
f 589 560 569
f 589 585 560
f 590 555 501
f 590 501 530
f 557 591 525
f 526 525 591
f 458 573 440
f 580 592 569
f 589 569 592
f 521 448 447
f 554 556 593
f 594 556 555
f 594 593 556
f 557 554 595
f 554 593 595
f 596 401 400
f 596 545 401
f 489 561 597
f 489 598 524
f 489 597 598
f 503 454 599
f 454 535 600
f 454 600 599
f 572 577 542
f 458 482 601
f 458 602 573
f 458 601 602
f 539 603 579
f 539 588 604
f 539 604 603
f 605 561 562
f 605 597 561
f 587 433 459
f 486 485 606
f 581 606 485
f 580 579 603
f 580 607 592
f 580 603 607
f 608 575 536
f 608 536 537
f 459 486 609
f 459 609 610
f 587 459 610
f 486 606 609
f 557 595 611
f 612 591 557
f 612 557 611
f 613 562 558
f 613 558 559
f 614 537 487
f 614 487 488
f 615 588 553
f 615 553 578
f 589 616 585
f 589 592 617
f 589 617 616
f 483 618 570
f 483 484 618
f 619 582 585
f 619 585 616
f 620 594 555
f 620 555 590
f 613 621 562
f 622 562 621
f 622 605 562
f 516 574 623
f 516 623 586
f 574 576 624
f 574 624 623
f 625 482 481
f 625 601 482
f 626 566 551
f 626 551 552
f 594 595 593
f 627 611 595
f 594 627 595
f 628 590 530
f 628 530 586
f 526 591 629
f 612 629 591
f 630 576 575
f 630 624 576
f 526 631 584
f 632 526 629
f 632 631 526
f 567 572 565
f 607 617 592
f 633 559 571
f 613 559 633
f 567 566 634
f 626 634 566
f 619 583 582
f 572 635 577
f 636 578 577
f 636 577 635
f 627 637 611
f 638 612 611
f 638 611 637
f 552 503 639
f 503 599 640
f 503 640 639
f 594 641 627
f 594 620 641
f 581 583 642
f 619 642 583
f 627 641 643
f 627 643 637
f 604 588 615
f 568 417 455
f 447 496 644
f 521 447 645
f 447 644 645
f 520 646 484
f 647 520 521
f 647 646 520
f 648 535 534
f 648 600 535
f 649 584 631
f 465 584 649
f 524 625 481
f 630 575 608
f 567 635 572
f 619 616 617
f 650 620 590
f 650 590 628
f 607 603 651
f 607 652 617
f 607 651 652
f 430 596 400
f 653 586 623
f 653 628 586
f 654 623 624
f 654 653 623
f 570 655 571
f 633 571 655
f 626 552 656
f 552 639 657
f 552 657 656
f 612 658 629
f 638 658 612
f 659 606 581
f 581 642 660
f 659 581 660
f 524 598 661
f 524 662 625
f 524 661 662
f 570 618 655
f 604 651 603
f 604 615 663
f 604 663 651
f 654 624 630
f 664 629 658
f 664 632 629
f 650 641 620
f 650 665 641
f 665 643 641
f 666 638 637
f 666 637 643
f 650 628 653
f 650 653 665
f 665 653 654
f 667 598 597
f 667 661 598
f 654 630 668
f 630 669 668
f 630 608 670
f 630 670 669
f 496 505 671
f 496 671 644
f 672 597 605
f 672 667 597
f 518 673 519
f 518 544 674
f 518 674 675
f 518 675 673
f 424 465 676
f 424 677 506
f 424 676 677
f 619 617 678
f 679 642 619
f 679 619 678
f 673 529 519
f 615 578 636
f 652 678 617
f 608 537 614
f 573 648 534
f 680 621 613
f 680 622 621
f 665 654 681
f 665 681 643
f 654 668 682
f 654 682 681
f 646 618 484
f 659 609 606
f 636 635 567
f 567 634 683
f 636 567 683
f 684 544 543
f 684 674 544
f 685 634 626
f 626 656 686
f 685 626 687
f 626 686 687
f 638 688 658
f 666 688 638
f 689 599 600
f 689 640 599
f 528 529 690
f 673 690 529
f 613 633 691
f 680 613 692
f 613 691 692
f 622 672 605
f 679 660 642
f 693 682 668
f 693 668 669
f 632 694 631
f 649 631 694
f 573 602 695
f 573 696 648
f 573 695 696
f 465 649 697
f 465 697 676
f 677 505 506
f 677 671 505
f 685 683 634
f 430 512 698
f 430 699 596
f 430 698 699
f 666 643 681
f 700 658 688
f 700 664 658
f 614 488 568
f 647 521 645
f 610 609 701
f 659 701 609
f 455 546 702
f 568 455 703
f 455 702 703
f 666 681 682
f 704 602 601
f 704 695 602
f 652 705 678
f 652 651 706
f 652 706 705
f 707 550 528
f 528 690 708
f 707 528 708
f 693 666 682
f 608 709 670
f 608 614 710
f 608 710 709
f 684 543 587
f 615 711 663
f 615 636 712
f 615 712 711
f 679 713 660
f 659 660 713
f 633 655 714
f 633 714 691
f 679 678 705
f 625 704 601
f 715 639 640
f 715 657 639
f 587 610 716
f 610 701 716
f 666 717 688
f 693 717 666
f 718 656 657
f 718 686 656
f 707 549 550
f 706 651 663
f 719 669 670
f 719 670 709
f 700 688 717
f 587 716 720
f 684 587 720
f 664 721 632
f 632 721 694
f 722 512 511
f 722 698 512
f 714 655 618
f 646 723 618
f 714 618 723
f 636 683 724
f 685 724 683
f 706 663 711
f 648 689 600
f 636 724 712
f 679 705 725
f 726 713 679
f 726 679 725
f 719 693 669
f 625 662 727
f 625 728 704
f 625 727 728
f 729 645 644
f 647 645 730
f 729 730 645
f 549 731 563
f 707 732 549
f 549 732 731
f 659 713 733
f 734 701 659
f 734 659 733
f 693 735 717
f 719 736 693
f 693 736 735
f 737 662 661
f 738 661 667
f 738 737 661
f 737 727 662
f 739 646 647
f 739 723 646
f 622 740 672
f 680 741 622
f 622 742 740
f 622 741 742
f 672 738 667
f 700 717 735
f 649 694 743
f 649 743 697
f 706 725 705
f 744 546 545
f 744 702 546
f 685 687 745
f 746 687 686
f 746 745 687
f 747 724 685
f 747 685 748
f 685 745 748
f 731 564 563
f 726 733 713
f 541 722 511
f 648 696 749
f 648 750 689
f 648 749 750
f 700 751 664
f 664 751 721
f 729 644 671
f 672 740 752
f 672 753 738
f 672 752 753
f 734 716 701
f 614 568 754
f 614 755 710
f 614 754 755
f 541 564 756
f 731 756 564
f 689 715 640
f 757 680 692
f 680 758 741
f 757 759 680
f 680 759 758
f 747 712 724
f 747 711 712
f 541 760 722
f 541 756 760
f 706 761 725
f 726 725 761
f 757 692 691
f 762 696 695
f 762 749 696
f 715 718 657
f 568 703 763
f 568 763 754
f 706 711 747
f 706 747 761
f 764 675 674
f 764 674 684
f 673 675 765
f 764 765 675
f 718 746 686
f 726 766 733
f 734 733 766
f 677 767 671
f 729 671 767
f 704 762 695
f 768 709 710
f 768 710 755
f 714 769 691
f 757 691 769
f 770 700 735
f 700 771 751
f 770 771 700
f 739 647 730
f 726 761 772
f 773 766 726
f 773 726 772
f 714 723 739
f 673 774 690
f 673 765 775
f 673 775 774
f 734 776 716
f 720 716 776
f 743 694 721
f 714 739 777
f 714 777 769
f 778 677 676
f 778 676 697
f 684 720 779
f 764 684 780
f 684 779 780
f 747 748 772
f 773 748 745
f 773 772 748
f 747 772 761
f 596 744 545
f 768 719 709
f 704 728 781
f 704 782 762
f 704 781 782
f 689 783 715
f 689 750 784
f 689 784 783
f 734 766 785
f 786 776 734
f 786 734 785
f 778 787 677
f 677 788 767
f 677 787 789
f 677 789 788
f 746 773 745
f 719 790 736
f 768 791 719
f 719 791 790
f 792 752 740
f 792 740 742
f 720 776 779
f 738 793 737
f 793 727 737
f 774 708 690
f 729 794 730
f 739 730 794
f 770 735 736
f 770 736 790
f 729 767 794
f 773 785 766
f 738 753 795
f 738 796 793
f 738 795 796
f 797 728 727
f 797 781 728
f 798 721 751
f 743 721 799
f 798 799 721
f 793 797 727
f 800 742 741
f 800 741 758
f 715 801 718
f 715 783 802
f 715 802 801
f 778 697 803
f 743 803 697
f 804 753 752
f 804 795 753
f 805 787 778
f 805 778 803
f 718 806 746
f 718 801 807
f 718 807 806
f 746 808 773
f 773 808 785
f 746 809 808
f 746 806 809
f 810 750 749
f 810 784 750
f 739 811 777
f 739 794 811
f 786 779 776
f 798 751 771
f 707 708 812
f 774 812 708
f 786 785 808
f 811 794 767
f 811 767 788
f 757 813 759
f 814 757 769
f 814 815 757
f 757 815 813
f 596 699 816
f 596 817 744
f 596 816 817
f 818 758 759
f 818 759 813
f 819 703 702
f 819 763 703
f 814 769 777
f 820 755 754
f 820 754 763
f 743 821 803
f 743 799 822
f 743 822 821
f 805 789 787
f 814 777 811
f 823 765 764
f 764 780 824
f 764 824 825
f 823 764 825
f 762 810 749
f 823 775 765
f 805 803 821
f 786 808 809
f 814 811 788
f 814 788 789
f 780 779 826
f 780 826 824
f 786 826 779
f 762 782 827
f 762 828 810
f 762 827 828
f 829 783 784
f 829 802 783
f 830 786 809
f 830 826 786
f 770 831 771
f 798 771 831
f 832 732 707
f 707 812 833
f 832 707 833
f 804 752 792
f 822 799 798
f 774 775 834
f 823 834 775
f 793 835 797
f 793 796 836
f 793 837 835
f 793 836 837
f 838 801 802
f 838 807 801
f 830 809 806
f 830 806 807
f 839 782 781
f 839 827 782
f 805 821 840
f 822 840 821
f 820 768 755
f 805 841 789
f 842 841 805
f 842 805 840
f 843 699 698
f 843 816 699
f 830 824 826
f 792 742 800
f 835 781 797
f 841 814 789
f 841 815 814
f 844 796 795
f 844 836 796
f 845 770 790
f 770 846 831
f 845 846 770
f 768 847 791
f 820 848 768
f 768 848 847
f 835 839 781
f 832 731 732
f 845 790 791
f 845 791 847
f 842 813 815
f 842 815 841
f 825 824 849
f 830 849 824
f 823 825 850
f 825 849 850
f 822 798 851
f 852 798 831
f 852 851 798
f 774 834 853
f 774 854 812
f 774 853 854
f 810 829 784
f 800 758 818
f 744 819 702
f 818 813 842
f 855 834 823
f 823 850 856
f 855 823 856
f 838 830 807
f 838 849 830
f 844 795 804
f 829 838 802
f 822 857 840
f 822 858 857
f 822 851 858
f 842 840 857
f 810 828 859
f 810 860 829
f 810 859 860
f 722 843 698
f 855 853 834
f 838 850 849
f 731 861 756
f 832 862 731
f 731 862 861
f 863 828 827
f 863 859 828
f 838 864 850
f 856 850 864
f 842 857 865
f 818 842 865
f 854 833 812
f 819 820 763
f 829 864 838
f 856 864 866
f 855 856 866
f 867 827 839
f 867 863 827
f 829 866 864
f 829 860 866
f 858 865 857
f 835 867 839
f 835 837 868
f 835 869 867
f 835 868 869
f 804 792 870
f 844 804 871
f 804 870 872
f 804 872 871
f 852 831 846
f 873 837 836
f 873 868 837
f 855 874 853
f 854 853 874
f 792 800 875
f 792 876 870
f 792 875 876
f 858 851 852
f 722 760 877
f 722 878 843
f 722 877 878
f 861 760 756
f 879 866 860
f 879 860 859
f 818 865 880
f 800 818 881
f 818 880 881
f 855 866 879
f 858 880 865
f 882 855 879
f 882 874 855
f 744 883 819
f 744 817 884
f 744 884 883
f 882 879 859
f 882 859 863
f 861 877 760
f 845 885 846
f 852 846 885
f 800 881 886
f 800 886 875
f 873 836 844
f 867 882 863
f 887 845 847
f 845 888 885
f 887 888 845
f 854 889 833
f 832 833 889
f 854 874 890
f 882 890 874
f 820 891 848
f 819 892 820
f 820 892 891
f 887 847 848
f 867 893 882
f 867 869 894
f 867 894 893
f 854 890 895
f 854 895 889
f 882 893 890
f 887 848 891
f 896 869 868
f 896 894 869
f 895 890 893
f 858 852 897
f 858 898 880
f 858 897 898
f 895 893 894
f 899 852 885
f 899 897 852
f 844 871 900
f 873 844 901
f 844 900 901
f 819 902 892
f 819 883 902
f 898 881 880
f 898 886 881
f 903 870 876
f 903 872 870
f 896 868 873
f 832 889 904
f 905 862 832
f 905 832 904
f 906 817 816
f 906 884 817
f 899 885 888
f 907 875 886
f 907 876 875
f 887 908 888
f 899 888 908
f 895 894 896
f 895 904 889
f 909 871 872
f 909 900 871
f 895 896 910
f 895 910 904
f 911 887 891
f 887 912 908
f 911 912 887
f 898 897 899
f 911 891 892
f 898 907 886
f 911 892 902
f 896 873 913
f 873 901 914
f 873 914 913
f 898 899 915
f 916 899 908
f 916 915 899
f 905 861 862
f 898 915 907
f 896 917 910
f 896 913 917
f 918 902 883
f 918 883 884
f 843 906 816
f 916 908 912
f 907 903 876
f 905 904 910
f 903 909 872
f 911 919 912
f 916 912 919
f 907 915 916
f 905 910 917
f 907 916 920
f 907 920 903
f 921 901 900
f 921 914 901
f 861 922 877
f 905 923 861
f 861 923 922
f 918 911 902
f 911 924 919
f 918 924 911
f 925 920 916
f 925 916 919
f 843 878 926
f 843 927 906
f 843 926 927
f 928 917 913
f 928 913 914
f 903 920 925
f 903 929 909
f 903 925 929
f 906 918 884
f 925 919 924
f 922 878 877
f 922 926 878
f 928 905 917
f 928 923 905
f 909 921 900
f 925 924 930
f 918 930 924
f 909 929 931
f 909 932 921
f 909 931 932
f 931 929 925
f 931 925 930
f 921 928 914
f 906 933 918
f 918 933 930
f 906 927 934
f 906 934 933
f 928 922 923
f 928 935 922
f 921 935 928
f 931 930 933
f 922 936 926
f 922 935 936
f 936 927 926
f 936 934 927
f 921 936 935
f 921 932 936
f 931 933 934
f 936 932 931
f 936 931 934
