# 
# Wavefront OBJ file
# Created with Kaydara FBX
# 
mtllib c:\users\tjvan\onedrive\documenten\fontys\minor\nx\.mtlmodels\medial_patellar_retinaculum__vertical_part_.r.obj

g Medial_patellar_retinaculum__vertical_part__r
v -0.076431 0.460600 0.007497
v -0.074114 0.463381 0.006673
v -0.076465 0.460577 0.007301
v -0.072941 0.458151 0.007364
v -0.072966 0.458109 0.007105
v -0.074077 0.463407 0.006872
v -0.072052 0.464989 0.005987
v -0.070599 0.459820 0.006339
v -0.070571 0.459858 0.006698
v -0.072017 0.465091 0.006229
v -0.068269 0.455477 0.008527
v -0.068308 0.455412 0.008318
v -0.067910 0.466773 0.004084
v -0.067869 0.461090 0.005571
v -0.067743 0.461216 0.005980
v -0.067832 0.466989 0.004348
v -0.066452 0.456190 0.007008
v -0.066350 0.456334 0.007295
v -0.064849 0.452667 0.008675
v -0.064944 0.452573 0.008414
v -0.068147 0.405999 0.000404
v -0.067676 0.407104 0.000564
v -0.068273 0.406123 0.000311
v -0.066844 0.406731 -0.000628
v -0.066245 0.407823 -0.000159
v -0.066973 0.406861 -0.000708
v -0.067554 0.406979 0.000662
v -0.066121 0.407689 -0.000078
v -0.063903 0.461765 0.003978
v -0.064980 0.467179 0.001963
v -0.063830 0.456894 0.005859
v -0.063603 0.462016 0.004584
v -0.064881 0.467258 0.002118
v -0.063722 0.457022 0.006174
v -0.067140 0.408015 0.000975
v -0.065657 0.408616 0.000294
v -0.067032 0.407908 0.001106
v -0.065535 0.408513 0.000415
v -0.066574 0.411124 0.001784
v -0.065042 0.411711 0.001137
v -0.066480 0.411071 0.001952
v -0.064927 0.411660 0.001293
v -0.065603 0.407561 -0.001668
v -0.064886 0.408666 -0.001182
v -0.065734 0.407703 -0.001721
v -0.064757 0.408523 -0.001126
v -0.065769 0.416655 0.002544
v -0.064337 0.417186 0.001921
v -0.065681 0.416623 0.002721
v -0.064229 0.417154 0.002086
v -0.062986 0.452933 0.007494
v -0.062870 0.453036 0.007854
v -0.064246 0.409372 -0.000774
v -0.064108 0.409266 -0.000676
v -0.065360 0.422186 0.003087
v -0.063801 0.422653 0.002392
v -0.063050 0.409110 -0.003724
v -0.062396 0.410028 -0.003400
v -0.063178 0.409254 -0.003777
v -0.065275 0.422162 0.003266
v -0.063706 0.422625 0.002566
v -0.063708 0.412397 0.000087
v -0.062264 0.409889 -0.003343
v -0.063573 0.412344 0.000224
v -0.064822 0.427832 0.003558
v -0.063118 0.428150 0.002912
v -0.064749 0.427804 0.003742
v -0.063043 0.428116 0.003094
v -0.063106 0.417794 0.000969
v -0.062122 0.467319 -0.000067
v -0.060245 0.461842 0.001623
v -0.062652 0.448440 0.008544
v -0.062740 0.448431 0.008365
v -0.062983 0.417757 0.001122
v -0.061736 0.410851 -0.002940
v -0.060147 0.461922 0.001778
v -0.062023 0.467405 0.000084
v -0.064249 0.433082 0.004152
v -0.062332 0.433394 0.003728
v -0.061590 0.410748 -0.002848
v -0.064203 0.433043 0.004342
v -0.062281 0.433349 0.003917
v -0.062356 0.423142 0.001560
v -0.061112 0.413727 -0.001970
v -0.063525 0.439095 0.005255
v -0.061613 0.439116 0.005244
v -0.062248 0.423107 0.001725
v -0.063494 0.439038 0.005444
v -0.061567 0.439059 0.005430
v -0.060971 0.413666 -0.001842
v -0.060055 0.456876 0.004075
v -0.060987 0.453256 0.006515
v -0.061420 0.428471 0.002253
v -0.059954 0.456966 0.004261
v -0.060891 0.453322 0.006723
v -0.060233 0.418883 -0.000995
v -0.061327 0.428428 0.002425
v -0.060104 0.418837 -0.000849
v -0.062463 0.443841 0.007233
v -0.060950 0.443927 0.006614
v -0.062401 0.443788 0.007416
v -0.060880 0.443880 0.006796
v -0.060711 0.410249 -0.006000
v -0.060143 0.411279 -0.005663
v -0.060836 0.410392 -0.006063
v -0.060422 0.433713 0.003265
v -0.059412 0.424127 -0.000211
v -0.060007 0.411151 -0.005591
v -0.060337 0.433661 0.003438
v -0.059293 0.424085 -0.000055
v -0.061102 0.448453 0.007454
v -0.061014 0.448455 0.007634
v -0.059655 0.412264 -0.005229
v -0.058508 0.429350 0.000551
v -0.059613 0.439230 0.004703
v -0.059525 0.439176 0.004875
v -0.059506 0.412167 -0.005137
v -0.058392 0.429303 0.000707
v -0.059309 0.466622 -0.001902
v -0.056834 0.462236 -0.000558
v -0.056733 0.462323 -0.000409
v -0.059204 0.466724 -0.001766
v -0.058932 0.414823 -0.004163
v -0.059440 0.444020 0.005973
v -0.058786 0.414751 -0.004047
v -0.059343 0.443984 0.006144
v -0.057542 0.434486 0.001549
v -0.057424 0.434432 0.001701
v -0.057777 0.419785 -0.002985
v -0.059459 0.448475 0.006553
v -0.059356 0.448479 0.006725
v -0.057351 0.453354 0.004197
v -0.057643 0.419730 -0.002847
v -0.057239 0.453408 0.004354
v -0.059763 0.410190 -0.008027
v -0.058957 0.411277 -0.007468
v -0.059874 0.410340 -0.008099
v -0.058829 0.411148 -0.007385
v -0.056362 0.439821 0.002586
v -0.056240 0.439773 0.002737
v -0.056493 0.456850 0.001887
v -0.056815 0.424816 -0.002119
v -0.058458 0.412470 -0.006943
v -0.056388 0.456921 0.002042
v -0.056690 0.424769 -0.001970
v -0.058317 0.412369 -0.006844
v -0.058539 0.409996 -0.010186
v -0.057740 0.411038 -0.009648
v -0.058643 0.410146 -0.010268
v -0.057615 0.410908 -0.009562
v -0.057644 0.414798 -0.005927
v -0.056002 0.444719 0.003609
v -0.055877 0.444692 0.003762
v -0.057505 0.414713 -0.005811
v -0.056173 0.448908 0.004097
v -0.056001 0.429906 -0.001284
v -0.056048 0.448917 0.004253
v -0.055050 0.463897 -0.003246
v -0.053850 0.461770 -0.002269
v -0.050196 0.460771 -0.005292
v -0.055878 0.429859 -0.001134
v -0.053735 0.461867 -0.002137
v -0.054933 0.464014 -0.003134
v -0.050067 0.460863 -0.005170
v -0.057189 0.412138 -0.009091
v -0.056022 0.419738 -0.004709
v -0.057049 0.412030 -0.008998
v -0.055890 0.419673 -0.004574
v -0.057458 0.409683 -0.011803
v -0.056755 0.410671 -0.011617
v -0.057561 0.409830 -0.011891
v -0.056630 0.410541 -0.011529
v -0.054982 0.434726 -0.000560
v -0.056235 0.414194 -0.008078
v -0.054857 0.434675 -0.000412
v -0.056096 0.414096 -0.007973
v -0.054894 0.424674 -0.003767
v -0.056235 0.411671 -0.011365
v -0.054268 0.418936 -0.006686
v -0.054767 0.424623 -0.003621
v -0.056091 0.411562 -0.011278
v -0.053841 0.439855 0.000363
v -0.054127 0.418861 -0.006566
v -0.053712 0.439809 0.000508
v -0.054706 0.453205 0.001993
v -0.054584 0.453247 0.002145
v -0.054878 0.414294 -0.010158
v -0.054733 0.414192 -0.010067
v -0.053571 0.457534 -0.000304
v -0.053806 0.430138 -0.002930
v -0.053461 0.457598 -0.000150
v -0.053680 0.430091 -0.002781
v -0.053464 0.444841 0.001311
v -0.052902 0.418902 -0.008644
v -0.053330 0.444817 0.001457
v -0.053644 0.449068 0.001753
v -0.052751 0.418824 -0.008539
v -0.053511 0.449075 0.001902
v -0.052725 0.424504 -0.005760
v -0.052875 0.434954 -0.002292
v -0.052583 0.424449 -0.005630
v -0.052748 0.434905 -0.002146
v -0.051700 0.440171 -0.001419
v -0.051638 0.430094 -0.004891
v -0.051567 0.440130 -0.001276
v -0.051497 0.430046 -0.004758
v -0.051853 0.453152 -0.000328
v -0.051726 0.453182 -0.000177
v -0.051083 0.424852 -0.007749
v -0.050930 0.424797 -0.007632
v -0.051358 0.444711 -0.000747
v -0.050565 0.457249 -0.002468
v -0.050532 0.434973 -0.004259
v -0.050436 0.457311 -0.002328
v -0.051219 0.444688 -0.000605
v -0.050390 0.434925 -0.004126
v -0.051400 0.448778 -0.000318
v -0.051263 0.448778 -0.000173
v -0.049709 0.440367 -0.003370
v -0.049565 0.440328 -0.003237
v -0.049900 0.430200 -0.007021
v -0.049748 0.430151 -0.006902
v -0.049334 0.453053 -0.002581
v -0.049195 0.453076 -0.002439
v -0.049229 0.444943 -0.002888
v -0.048840 0.435597 -0.006216
v -0.049083 0.444922 -0.002753
v -0.048688 0.435550 -0.006094
v -0.049140 0.448947 -0.002645
v -0.048996 0.448944 -0.002507
v -0.048222 0.456580 -0.004660
v -0.047676 0.440654 -0.005680
v -0.048083 0.456635 -0.004527
v -0.047525 0.440617 -0.005554
v -0.047077 0.445628 -0.005271
v -0.046928 0.445608 -0.005140
v -0.047345 0.453103 -0.004718
v -0.047014 0.449193 -0.004923
v -0.047201 0.453122 -0.004582
v -0.046867 0.449189 -0.004788
usemtl Medial_patellar_retinaculum__vertical_part__rMaterial0
f 1 2 3
f 4 1 3
f 5 3 2
f 4 3 5
f 1 6 2
f 4 6 1
f 6 7 2
f 5 2 8
f 8 2 7
f 4 9 6
f 6 10 7
f 9 10 6
f 11 4 5
f 8 12 5
f 11 5 12
f 9 4 11
f 10 13 7
f 8 7 14
f 14 7 13
f 9 15 10
f 10 16 13
f 15 16 10
f 8 17 12
f 14 17 8
f 9 11 18
f 15 9 18
f 19 11 12
f 17 20 12
f 19 12 20
f 21 22 23
f 24 21 23
f 25 23 22
f 24 23 26
f 25 26 23
f 18 11 19
f 21 27 22
f 28 27 21
f 28 21 24
f 14 13 29
f 16 30 13
f 29 13 30
f 14 31 17
f 29 31 14
f 15 32 16
f 16 33 30
f 32 33 16
f 15 18 34
f 32 15 34
f 27 35 22
f 36 22 35
f 36 25 22
f 27 37 35
f 38 37 27
f 38 27 28
f 37 39 35
f 40 35 39
f 40 36 35
f 37 41 39
f 42 41 37
f 42 37 38
f 43 24 26
f 44 26 25
f 43 26 45
f 44 45 26
f 46 28 24
f 46 24 43
f 41 47 39
f 48 39 47
f 48 40 39
f 41 49 47
f 50 49 41
f 50 41 42
f 17 51 20
f 31 51 17
f 18 19 52
f 34 18 52
f 53 25 36
f 53 44 25
f 54 38 28
f 54 28 46
f 49 55 47
f 56 47 55
f 56 48 47
f 57 43 45
f 58 45 44
f 57 45 59
f 58 59 45
f 49 60 55
f 61 60 49
f 61 49 50
f 62 36 40
f 62 53 36
f 63 46 43
f 63 43 57
f 64 42 38
f 64 38 54
f 60 65 55
f 66 55 65
f 66 56 55
f 60 67 65
f 68 67 60
f 68 60 61
f 69 40 48
f 69 62 40
f 33 70 30
f 29 30 71
f 71 30 70
f 72 19 20
f 51 73 20
f 72 20 73
f 74 50 42
f 74 42 64
f 75 44 53
f 75 58 44
f 32 76 33
f 33 77 70
f 76 77 33
f 52 19 72
f 67 78 65
f 79 65 78
f 79 66 65
f 80 54 46
f 80 46 63
f 67 81 78
f 82 81 67
f 82 67 68
f 83 48 56
f 83 69 48
f 84 53 62
f 84 75 53
f 81 85 78
f 86 78 85
f 86 79 78
f 87 61 50
f 87 50 74
f 81 88 85
f 89 88 81
f 89 81 82
f 90 64 54
f 90 54 80
f 29 91 31
f 71 91 29
f 31 92 51
f 91 92 31
f 93 56 66
f 93 83 56
f 32 34 94
f 34 52 95
f 94 34 95
f 96 62 69
f 96 84 62
f 97 68 61
f 97 61 87
f 76 32 94
f 98 74 64
f 98 64 90
f 88 99 85
f 100 85 99
f 100 86 85
f 88 101 99
f 102 101 88
f 102 88 89
f 103 57 59
f 104 59 58
f 103 59 105
f 104 105 59
f 106 66 79
f 106 93 66
f 107 69 83
f 107 96 69
f 108 63 57
f 108 57 103
f 109 82 68
f 109 68 97
f 110 87 74
f 110 74 98
f 51 111 73
f 92 111 51
f 52 72 112
f 95 52 112
f 101 72 73
f 101 73 99
f 111 99 73
f 112 72 101
f 111 100 99
f 113 58 75
f 113 104 58
f 112 101 102
f 114 83 93
f 114 107 83
f 115 79 86
f 115 106 79
f 116 89 82
f 116 82 109
f 117 80 63
f 117 63 108
f 118 97 87
f 118 87 110
f 77 119 70
f 71 70 120
f 120 70 119
f 76 121 77
f 77 122 119
f 121 122 77
f 123 75 84
f 123 113 75
f 124 86 100
f 124 115 86
f 125 90 80
f 125 80 117
f 126 102 89
f 126 89 116
f 127 93 106
f 127 114 93
f 128 109 97
f 128 97 118
f 129 84 96
f 129 123 84
f 92 130 111
f 130 100 111
f 95 112 131
f 131 112 102
f 91 132 92
f 132 130 92
f 133 98 90
f 133 90 125
f 130 124 100
f 94 95 134
f 134 95 131
f 131 102 126
f 135 103 105
f 136 105 104
f 135 105 137
f 136 137 105
f 138 108 103
f 138 103 135
f 139 106 115
f 139 127 106
f 140 116 109
f 140 109 128
f 71 141 91
f 120 141 71
f 142 96 107
f 142 129 96
f 143 104 113
f 143 136 104
f 76 94 144
f 121 76 144
f 145 110 98
f 145 98 133
f 141 132 91
f 146 117 108
f 146 108 138
f 144 94 134
f 147 135 137
f 148 137 136
f 147 137 149
f 148 149 137
f 150 138 135
f 150 135 147
f 151 113 123
f 151 143 113
f 152 115 124
f 152 139 115
f 153 126 116
f 153 116 140
f 154 125 117
f 154 117 146
f 155 124 130
f 132 155 130
f 155 152 124
f 156 107 114
f 156 142 107
f 157 131 126
f 134 131 157
f 157 126 153
f 122 158 119
f 120 119 159
f 160 119 158
f 160 159 119
f 161 118 110
f 161 110 145
f 121 162 122
f 122 163 158
f 122 164 163
f 122 162 164
f 165 136 143
f 165 148 136
f 166 123 129
f 166 151 123
f 167 146 138
f 167 138 150
f 168 133 125
f 168 125 154
f 169 147 149
f 170 149 148
f 169 149 171
f 170 171 149
f 172 150 147
f 172 147 169
f 173 114 127
f 173 156 114
f 174 143 151
f 174 165 143
f 175 128 118
f 175 118 161
f 176 154 146
f 176 146 167
f 177 129 142
f 177 166 129
f 178 148 165
f 178 170 148
f 179 174 151
f 179 151 166
f 180 145 133
f 180 133 168
f 181 167 150
f 181 150 172
f 172 169 171
f 172 171 170
f 182 127 139
f 182 173 127
f 183 154 176
f 183 168 154
f 184 140 128
f 184 128 175
f 141 185 132
f 185 155 132
f 144 134 186
f 186 134 157
f 187 178 165
f 187 165 174
f 188 167 181
f 188 176 167
f 120 189 141
f 159 189 120
f 190 142 156
f 190 177 142
f 181 172 170
f 181 170 178
f 121 144 191
f 162 121 191
f 192 161 145
f 192 145 180
f 189 185 141
f 191 144 186
f 193 139 152
f 193 182 139
f 188 181 178
f 188 178 187
f 194 187 174
f 194 174 179
f 195 153 140
f 195 140 184
f 196 152 155
f 185 196 155
f 197 176 188
f 197 183 176
f 198 157 153
f 186 157 198
f 199 166 177
f 199 179 166
f 200 156 173
f 200 190 156
f 196 193 152
f 201 180 168
f 201 168 183
f 202 175 161
f 202 161 192
f 198 153 195
f 163 160 158
f 203 173 182
f 203 200 173
f 163 164 160
f 204 177 190
f 204 199 177
f 197 188 187
f 197 187 194
f 205 184 175
f 205 175 202
f 206 192 180
f 206 180 201
f 207 196 185
f 189 207 185
f 208 186 198
f 191 186 208
f 209 194 179
f 209 179 199
f 210 183 197
f 210 201 183
f 211 182 193
f 211 203 182
f 159 212 189
f 160 212 159
f 213 190 200
f 213 204 190
f 162 191 214
f 164 162 214
f 215 195 184
f 215 184 205
f 216 202 192
f 216 192 206
f 217 193 196
f 207 217 196
f 212 207 189
f 218 198 195
f 208 198 218
f 217 211 193
f 214 191 208
f 218 195 215
f 210 197 194
f 210 194 209
f 219 200 203
f 219 213 200
f 220 205 202
f 220 202 216
f 221 199 204
f 221 209 199
f 222 206 201
f 222 201 210
f 223 217 207
f 212 223 207
f 224 208 218
f 214 208 224
f 225 203 211
f 225 219 203
f 226 204 213
f 226 221 204
f 227 215 205
f 227 205 220
f 228 216 206
f 228 206 222
f 229 211 217
f 223 229 217
f 229 225 211
f 230 218 215
f 224 218 230
f 230 215 227
f 222 210 209
f 222 209 221
f 160 231 212
f 231 223 212
f 232 213 219
f 232 226 213
f 164 214 233
f 233 214 224
f 234 220 216
f 234 216 228
f 164 231 160
f 164 233 231
f 228 222 221
f 228 221 226
f 235 219 225
f 235 232 219
f 236 227 220
f 236 220 234
f 237 229 223
f 231 237 223
f 238 225 229
f 238 235 225
f 239 224 230
f 233 224 239
f 237 238 229
f 240 230 227
f 240 227 236
f 239 230 240
f 234 228 226
f 234 226 232
f 233 237 231
f 233 239 237
f 236 234 232
f 236 232 235
f 239 238 237
f 239 240 238
f 240 235 238
f 240 236 235
