# 
# Wavefront OBJ file
# Created with Kaydara FBX
# 
mtllib c:\users\tjvan\onedrive\documenten\fontys\minor\nx\.mtlmodels\medial_meniscus.r.obj

g Medial_meniscus_r
v -0.066872 0.433082 -0.045475
v -0.066885 0.433783 -0.046807
v -0.067060 0.433167 -0.046881
v -0.066595 0.434068 -0.048694
v -0.066749 0.432585 -0.046872
v -0.066794 0.433330 -0.048814
v -0.066575 0.432630 -0.048767
v -0.066668 0.433653 -0.045484
v -0.066292 0.433999 -0.045733
v -0.066282 0.434247 -0.046660
v -0.066505 0.432634 -0.045652
v -0.066097 0.433124 -0.044762
v -0.065912 0.433323 -0.052234
v -0.066050 0.432437 -0.046827
v -0.066042 0.432494 -0.045979
v -0.066068 0.433695 -0.044851
v -0.066059 0.434587 -0.048443
v -0.065185 0.434747 -0.051670
v -0.065621 0.434162 -0.052024
v -0.065891 0.432314 -0.048584
v -0.065864 0.432449 -0.052141
v -0.065319 0.431947 -0.051724
v -0.065851 0.432633 -0.045032
v -0.065496 0.434482 -0.046458
v -0.065778 0.434097 -0.045395
v -0.065257 0.434843 -0.048120
v -0.065184 0.433846 -0.044394
v -0.064973 0.432614 -0.044603
v -0.065205 0.433179 -0.044229
v -0.065247 0.432424 -0.046689
v -0.065507 0.432491 -0.045679
v -0.064858 0.434247 -0.045104
v -0.063855 0.431654 -0.056293
v -0.062962 0.433774 -0.055817
v -0.063460 0.432773 -0.056198
v -0.064572 0.431926 -0.051275
v -0.065043 0.432304 -0.048394
v -0.063337 0.430936 -0.055476
v -0.064347 0.432429 -0.046447
v -0.064643 0.432493 -0.045378
v -0.064523 0.434567 -0.046142
v -0.064094 0.432354 -0.048160
v -0.064588 0.435178 -0.051098
v -0.064256 0.434899 -0.047721
v -0.063626 0.434011 -0.043744
v -0.063464 0.432651 -0.044022
v -0.063650 0.433275 -0.043509
v -0.062185 0.435561 -0.054472
v -0.062528 0.434769 -0.055268
v -0.063125 0.434516 -0.045753
v -0.063343 0.434306 -0.044670
v -0.063115 0.432408 -0.046194
v -0.063252 0.432520 -0.045013
v -0.063723 0.435331 -0.050328
v -0.063699 0.432069 -0.050740
v -0.062102 0.431272 -0.053728
v -0.062717 0.431000 -0.054654
v -0.063019 0.434793 -0.047233
v -0.062713 0.435193 -0.049406
v -0.062526 0.432132 -0.050114
v -0.062955 0.432310 -0.047848
v -0.058870 0.430925 -0.057582
v -0.061767 0.435781 -0.053421
v -0.061282 0.431592 -0.052465
v -0.061113 0.434106 -0.043579
v -0.061165 0.432661 -0.043911
v -0.061009 0.433342 -0.043181
v -0.063394 0.431650 -0.020149
v -0.063557 0.432247 -0.020543
v -0.063506 0.432169 -0.021413
v -0.063327 0.432667 -0.020523
v -0.062711 0.431066 -0.018566
v -0.062880 0.431740 -0.018454
v -0.063461 0.431432 -0.020837
v -0.063304 0.431924 -0.021629
v -0.063281 0.432563 -0.021373
v -0.063171 0.432368 -0.021753
v -0.062421 0.430372 -0.018865
v -0.063296 0.431179 -0.021146
v -0.062155 0.429862 -0.019383
v -0.058628 0.431977 -0.057320
v -0.058760 0.430149 -0.056596
v -0.058916 0.430048 -0.057549
v -0.061276 0.434306 -0.044615
v -0.062997 0.432816 -0.021363
v -0.062970 0.432906 -0.020504
v -0.062662 0.432877 -0.018572
v -0.062908 0.432383 -0.018422
v -0.063134 0.431789 -0.021851
v -0.063011 0.431061 -0.021432
v -0.061526 0.432333 -0.046295
v -0.061385 0.432530 -0.045002
v -0.063068 0.432229 -0.021993
v -0.062935 0.432511 -0.022043
v -0.062984 0.432667 -0.021795
v -0.062917 0.432150 -0.022257
v -0.062748 0.431014 -0.021726
v -0.062959 0.431733 -0.022116
v -0.061624 0.434745 -0.047243
v -0.061431 0.434503 -0.045862
v -0.061918 0.429606 -0.019968
v -0.061607 0.435030 -0.048757
v -0.062612 0.433008 -0.021365
v -0.062700 0.432765 -0.022125
v -0.062658 0.432906 -0.021844
v -0.062562 0.432079 -0.022570
v -0.062706 0.431671 -0.022443
v -0.061367 0.431973 -0.049549
v -0.061534 0.432141 -0.047831
v -0.062203 0.433080 -0.018825
v -0.062525 0.433075 -0.020536
v -0.058110 0.434685 -0.056292
v -0.058309 0.433201 -0.056830
v -0.062809 0.432381 -0.022281
v -0.062679 0.432602 -0.022298
v -0.061182 0.431999 -0.015067
v -0.061036 0.432822 -0.015164
v -0.061042 0.431091 -0.015263
v -0.062404 0.432380 -0.022584
v -0.062415 0.431027 -0.022020
v -0.061153 0.429838 -0.020993
v -0.061605 0.429609 -0.020490
v -0.058580 0.430414 -0.055557
v -0.060793 0.430155 -0.015689
v -0.061876 0.431430 -0.022482
v -0.061804 0.430952 -0.022117
v -0.062179 0.432948 -0.022271
v -0.061065 0.435637 -0.052039
v -0.062262 0.432697 -0.022528
v -0.062106 0.433164 -0.021385
v -0.062129 0.433086 -0.021895
v -0.061430 0.432230 -0.022747
v -0.061643 0.431805 -0.022691
v -0.061744 0.433152 -0.019077
v -0.062061 0.433191 -0.020592
v -0.060449 0.429267 -0.016394
v -0.060697 0.430240 -0.021538
v -0.061278 0.432690 -0.022675
v -0.061230 0.433058 -0.022290
v -0.060536 0.433101 -0.015659
v -0.058000 0.436130 -0.054685
v -0.058084 0.435827 -0.055767
v -0.059908 0.428197 -0.018111
v -0.060133 0.428590 -0.017256
v -0.061363 0.433270 -0.021278
v -0.061275 0.433199 -0.021814
v -0.061195 0.433217 -0.019314
v -0.061436 0.433289 -0.020552
v -0.060376 0.430697 -0.022018
v -0.059566 0.432968 -0.016816
v -0.060062 0.433033 -0.016198
v -0.060110 0.431258 -0.022400
v -0.059650 0.434911 -0.048396
v -0.059598 0.428143 -0.019044
v -0.060255 0.435285 -0.050264
v -0.059557 0.432068 -0.047096
v -0.059744 0.431758 -0.048779
v -0.059902 0.431862 -0.022488
v -0.060140 0.433212 -0.020728
v -0.060318 0.433192 -0.019165
v -0.060391 0.433259 -0.020091
v -0.059009 0.434377 -0.045618
v -0.059360 0.434610 -0.046807
v -0.058759 0.432573 -0.044985
v -0.059209 0.432336 -0.045871
v -0.060363 0.431638 -0.050844
v -0.058182 0.431035 -0.052125
v -0.058402 0.430793 -0.054045
v -0.059755 0.432463 -0.022343
v -0.059920 0.433095 -0.021298
v -0.058579 0.434107 -0.044761
v -0.059766 0.432894 -0.021866
v -0.057241 0.430395 -0.012713
v -0.057212 0.431608 -0.012446
v -0.059280 0.428480 -0.019879
v -0.057772 0.435528 -0.051631
v -0.057922 0.435909 -0.053436
v -0.057152 0.429303 -0.013339
v -0.056787 0.432940 -0.013250
v -0.057022 0.432569 -0.012660
v -0.058466 0.433360 -0.044516
v -0.058588 0.429751 -0.021374
v -0.058891 0.429117 -0.020719
v -0.057046 0.428424 -0.014345
v -0.058416 0.432867 -0.018552
v -0.058138 0.432788 -0.019412
v -0.057787 0.431251 -0.049758
v -0.058836 0.432907 -0.017660
v -0.057456 0.435097 -0.049572
v -0.056855 0.427789 -0.015475
v -0.058297 0.430448 -0.021843
v -0.056370 0.432662 -0.015022
v -0.056582 0.432875 -0.014010
v -0.057973 0.432655 -0.020243
v -0.056749 0.427307 -0.018169
v -0.056764 0.427377 -0.016809
v -0.057869 0.431941 -0.021676
v -0.058039 0.431210 -0.021910
v -0.057864 0.432408 -0.021042
v -0.056710 0.427661 -0.019392
v -0.057082 0.431970 -0.046838
v -0.057401 0.431623 -0.048028
v -0.056799 0.434439 -0.046713
v -0.057077 0.434735 -0.047880
v -0.056735 0.432379 -0.045942
v -0.056532 0.434104 -0.045818
v -0.054051 0.429455 -0.056983
v -0.054169 0.429357 -0.056361
v -0.056662 0.428280 -0.020364
v -0.053775 0.431593 -0.056785
v -0.053918 0.430423 -0.057054
v -0.056159 0.432445 -0.016158
v -0.056366 0.429783 -0.021565
v -0.056524 0.428972 -0.021102
v -0.054590 0.430045 -0.054067
v -0.054326 0.429703 -0.055368
v -0.056501 0.433264 -0.045534
v -0.055994 0.432301 -0.017264
v -0.054973 0.430311 -0.052295
v -0.053703 0.432949 -0.056257
v -0.055829 0.432072 -0.019503
v -0.055866 0.432191 -0.018413
v -0.053721 0.435488 -0.055172
v -0.053696 0.434404 -0.055675
v -0.056157 0.430644 -0.021636
v -0.054048 0.435860 -0.053243
v -0.053829 0.436017 -0.054321
v -0.055861 0.431863 -0.020510
v -0.055956 0.431442 -0.021322
v -0.055040 0.431092 -0.048320
v -0.055166 0.430599 -0.050136
v -0.054367 0.435527 -0.051778
v -0.054601 0.434751 -0.048335
v -0.054588 0.435144 -0.050021
v -0.054928 0.431546 -0.047095
v -0.052030 0.430863 -0.012820
v -0.052208 0.429772 -0.013110
v -0.051853 0.431809 -0.012752
v -0.052794 0.428009 -0.014507
v -0.052462 0.428705 -0.013641
v -0.051942 0.432522 -0.013279
v -0.053104 0.427640 -0.015666
v -0.054547 0.433935 -0.046117
v -0.054560 0.434363 -0.047007
v -0.053488 0.427423 -0.017054
v -0.053790 0.427399 -0.018315
v -0.054635 0.433089 -0.045885
v -0.054787 0.432186 -0.046227
v -0.054239 0.427884 -0.020666
v -0.054036 0.427545 -0.019657
v -0.052186 0.432445 -0.014075
v -0.054388 0.428494 -0.021405
v -0.054234 0.430239 -0.021864
v -0.054367 0.429325 -0.021812
v -0.052748 0.432076 -0.016073
v -0.052430 0.432272 -0.014998
v -0.053021 0.431906 -0.017214
v -0.053299 0.431776 -0.018351
v -0.054024 0.431062 -0.021480
v -0.053553 0.431653 -0.019521
v -0.053784 0.431459 -0.020588
v -0.052640 0.430456 -0.047885
v -0.052347 0.429825 -0.049631
v -0.050959 0.429005 -0.052954
v -0.051715 0.429391 -0.051402
v -0.052895 0.431772 -0.045832
v -0.052844 0.430981 -0.046638
v -0.052782 0.432752 -0.045465
v -0.051481 0.435032 -0.049394
v -0.052276 0.434181 -0.046575
v -0.051929 0.434655 -0.047915
v -0.050938 0.435327 -0.050859
v -0.052550 0.433702 -0.045689
v -0.052240 0.428236 -0.022261
v -0.052339 0.429045 -0.022591
v -0.050434 0.428657 -0.054062
v -0.051460 0.427479 -0.020558
v -0.051947 0.427750 -0.021587
v -0.051994 0.430720 -0.022167
v -0.052245 0.429953 -0.022586
v -0.049727 0.428890 -0.055399
v -0.050076 0.428326 -0.054871
v -0.050004 0.435537 -0.053027
v -0.050408 0.435528 -0.052094
v -0.050907 0.427372 -0.019478
v -0.049534 0.429921 -0.055504
v -0.051605 0.431208 -0.021370
v -0.049546 0.432522 -0.054804
v -0.049470 0.431151 -0.055298
v -0.049635 0.433894 -0.054275
v -0.049743 0.434934 -0.053777
v -0.050645 0.431670 -0.019522
v -0.051163 0.431512 -0.020469
v -0.049711 0.427475 -0.017438
v -0.050332 0.427378 -0.018439
v -0.050122 0.431775 -0.018622
v -0.051091 0.431243 -0.044905
v -0.050923 0.430348 -0.045611
v -0.048736 0.428241 -0.016016
v -0.049154 0.427714 -0.016577
v -0.050641 0.433292 -0.044726
v -0.051005 0.432290 -0.044527
v -0.049075 0.431985 -0.016932
v -0.049580 0.431876 -0.017716
v -0.049677 0.429085 -0.048288
v -0.050389 0.429776 -0.046785
v -0.048435 0.429207 -0.015664
v -0.050433 0.428893 -0.023887
v -0.049384 0.434364 -0.046718
v -0.050100 0.433866 -0.045544
v -0.049761 0.427724 -0.023041
v -0.050287 0.428084 -0.023681
v -0.050351 0.429775 -0.023851
v -0.048529 0.432054 -0.016197
v -0.048113 0.431087 -0.015463
v -0.048262 0.430192 -0.015512
v -0.049465 0.431086 -0.022823
v -0.049998 0.430512 -0.023453
v -0.049103 0.427529 -0.022248
v -0.048055 0.431869 -0.015556
v -0.048607 0.434738 -0.047980
v -0.048774 0.428527 -0.049655
v -0.048907 0.431482 -0.022128
v -0.049372 0.431782 -0.043245
v -0.049178 0.429776 -0.044143
v -0.049419 0.430740 -0.043562
v -0.047052 0.427782 -0.051850
v -0.047760 0.428078 -0.050941
v -0.047139 0.435192 -0.050262
v -0.047812 0.435028 -0.049238
v -0.047677 0.427347 -0.020630
v -0.048387 0.427409 -0.021419
v -0.047642 0.431853 -0.020718
v -0.048292 0.431710 -0.021408
v -0.048114 0.433267 -0.044102
v -0.048865 0.432669 -0.043477
v -0.048768 0.429737 -0.025650
v -0.048608 0.428069 -0.025532
v -0.048844 0.428859 -0.025701
v -0.048398 0.429179 -0.045108
v -0.047942 0.427761 -0.025035
v -0.047142 0.433800 -0.045025
v -0.046458 0.427690 -0.052588
v -0.048294 0.430438 -0.025288
v -0.046258 0.434495 -0.051709
v -0.046603 0.435127 -0.051094
v -0.046126 0.433445 -0.052085
v -0.045839 0.429421 -0.053072
v -0.046036 0.428388 -0.052980
v -0.046338 0.427484 -0.019263
v -0.046978 0.427350 -0.019907
v -0.046298 0.427982 -0.047310
v -0.047381 0.428522 -0.046267
v -0.046980 0.431975 -0.020037
v -0.045833 0.430713 -0.052919
v -0.045993 0.432098 -0.052516
v -0.046968 0.431482 -0.024266
v -0.047656 0.431033 -0.024795
v -0.048003 0.430322 -0.041909
v -0.047408 0.432018 -0.041856
v -0.047999 0.431281 -0.041670
v -0.046779 0.428771 -0.043019
v -0.047679 0.429342 -0.042326
v -0.045841 0.427988 -0.018803
v -0.046387 0.427485 -0.023837
v -0.047193 0.427602 -0.024455
v -0.045718 0.432070 -0.018825
v -0.046367 0.432066 -0.019448
v -0.046498 0.432557 -0.042331
v -0.047587 0.428912 -0.027865
v -0.047285 0.428122 -0.027741
v -0.046936 0.430440 -0.027527
v -0.047510 0.429793 -0.027809
v -0.045116 0.434493 -0.047065
v -0.046140 0.434181 -0.046024
v -0.045374 0.429863 -0.018451
v -0.045536 0.428881 -0.018570
v -0.046287 0.431746 -0.023755
v -0.045229 0.431614 -0.018374
v -0.045288 0.430779 -0.018382
v -0.046991 0.430825 -0.039722
v -0.046554 0.429017 -0.040172
v -0.046945 0.429906 -0.039886
v -0.046320 0.431479 -0.039874
v -0.046552 0.427840 -0.027383
v -0.045718 0.427694 -0.026970
v -0.045101 0.427573 -0.048291
v -0.044817 0.427344 -0.022673
v -0.045595 0.427401 -0.023241
v -0.046219 0.431011 -0.027171
v -0.044841 0.432053 -0.022685
v -0.045567 0.431921 -0.023217
v -0.046683 0.429052 -0.030221
v -0.046634 0.429930 -0.030158
v -0.045597 0.428250 -0.043833
v -0.046326 0.428252 -0.030172
v -0.045538 0.427962 -0.029943
v -0.045358 0.433054 -0.042989
v -0.044232 0.433430 -0.043680
v -0.043654 0.434657 -0.048617
v -0.044295 0.434700 -0.047920
v -0.043491 0.427251 -0.049642
v -0.044224 0.427323 -0.049041
v -0.046359 0.430535 -0.037515
v -0.044103 0.427391 -0.022167
v -0.044703 0.431759 -0.026397
v -0.045476 0.431459 -0.026791
v -0.046295 0.429620 -0.037625
v -0.045970 0.430501 -0.029974
v -0.045174 0.430974 -0.029733
v -0.045613 0.428548 -0.040606
v -0.044426 0.428194 -0.041081
v -0.046224 0.430149 -0.032627
v -0.045742 0.428462 -0.032698
v -0.046182 0.429251 -0.032687
v -0.043264 0.434016 -0.049141
v -0.045833 0.428797 -0.037793
v -0.044915 0.428433 -0.037997
v -0.045273 0.431947 -0.040209
v -0.044094 0.432347 -0.040605
v -0.044833 0.427586 -0.026526
v -0.043984 0.427504 -0.026092
v -0.045589 0.431044 -0.037597
v -0.046039 0.429442 -0.035189
v -0.046133 0.430345 -0.035115
v -0.045370 0.430850 -0.035095
v -0.044125 0.432154 -0.022176
v -0.044517 0.431385 -0.037761
v -0.044415 0.427841 -0.044548
v -0.043141 0.427505 -0.045213
v -0.045484 0.430680 -0.032537
v -0.042956 0.431732 -0.049785
v -0.043111 0.433035 -0.049443
v -0.042991 0.427961 -0.050001
v -0.045558 0.428671 -0.035259
v -0.042804 0.430333 -0.050054
v -0.043311 0.428823 -0.021607
v -0.043603 0.427944 -0.021807
v -0.042796 0.428986 -0.050111
v -0.044667 0.428335 -0.035301
v -0.044892 0.428149 -0.032595
v -0.044627 0.427811 -0.029663
v -0.043678 0.427702 -0.029365
v -0.042966 0.431592 -0.021353
v -0.043421 0.432123 -0.021686
v -0.043147 0.427446 -0.025649
v -0.043900 0.431932 -0.025988
v -0.043915 0.427982 -0.032453
v -0.044531 0.430983 -0.032407
v -0.044350 0.431374 -0.029469
v -0.043022 0.430738 -0.021391
v -0.043131 0.429789 -0.021481
v -0.044305 0.431097 -0.035107
v -0.043589 0.431239 -0.032248
v -0.042092 0.433994 -0.045064
v -0.043067 0.433757 -0.044427
v -0.043623 0.428131 -0.035323
v -0.043800 0.428177 -0.038212
v -0.042755 0.427617 -0.029064
v -0.042303 0.432121 -0.025169
v -0.043105 0.432035 -0.025580
v -0.043508 0.431648 -0.029195
v -0.042646 0.431808 -0.028918
v -0.042911 0.427858 -0.032303
v -0.043254 0.431304 -0.035101
v -0.043388 0.431672 -0.037935
v -0.043220 0.427910 -0.041516
v -0.042637 0.427969 -0.038409
v -0.041335 0.434042 -0.045592
v -0.042093 0.427280 -0.045770
v -0.042957 0.432640 -0.041001
v -0.041798 0.432890 -0.041407
v -0.041822 0.427944 -0.024932
v -0.042374 0.427453 -0.025238
v -0.042331 0.431898 -0.038091
v -0.042549 0.427972 -0.035326
v -0.042674 0.431438 -0.032093
v -0.042267 0.431490 -0.035086
v -0.040697 0.427809 -0.046517
v -0.041247 0.427156 -0.046211
v -0.041547 0.432099 -0.024776
v -0.041298 0.429709 -0.024638
v -0.041522 0.428752 -0.024758
v -0.040672 0.432584 -0.046298
v -0.040818 0.433506 -0.046049
v -0.041987 0.427670 -0.041889
v -0.041896 0.427551 -0.028739
v -0.041085 0.427530 -0.028409
v -0.040891 0.427488 -0.042187
v -0.041150 0.430677 -0.024561
v -0.041779 0.431930 -0.028633
v -0.040582 0.431392 -0.046513
v -0.040728 0.433129 -0.041798
v -0.041087 0.431570 -0.024531
v -0.041280 0.432136 -0.038237
v -0.041938 0.427753 -0.032140
v -0.041520 0.427838 -0.035295
v -0.040510 0.428784 -0.046639
v -0.040511 0.430040 -0.046653
v -0.040979 0.427654 -0.031923
v -0.041772 0.431615 -0.031939
v -0.041519 0.427798 -0.038551
v -0.040861 0.431809 -0.031774
v -0.040925 0.432048 -0.028338
v -0.040119 0.432060 -0.028054
v -0.041300 0.431704 -0.035066
v -0.040125 0.428695 -0.028030
v -0.040458 0.427932 -0.028156
v -0.040442 0.427645 -0.038653
v -0.040489 0.427712 -0.035223
v -0.039902 0.429623 -0.027954
v -0.039211 0.432933 -0.042466
v -0.039882 0.433279 -0.042139
v -0.040341 0.431964 -0.035029
v -0.040223 0.432424 -0.038374
v -0.040004 0.427402 -0.042479
v -0.039678 0.431503 -0.027883
v -0.039731 0.430614 -0.027895
v -0.040106 0.427593 -0.031700
v -0.039388 0.427903 -0.031517
v -0.039577 0.427632 -0.035163
v -0.039971 0.431999 -0.031597
v -0.039522 0.427557 -0.038767
v -0.039432 0.432175 -0.034980
v -0.039041 0.432115 -0.042670
v -0.039318 0.432641 -0.038502
v -0.039156 0.428776 -0.042816
v -0.039367 0.427872 -0.042692
v -0.039078 0.429847 -0.042845
v -0.039035 0.431100 -0.042775
v -0.039038 0.428646 -0.031426
v -0.039129 0.431978 -0.031428
v -0.038649 0.431381 -0.031331
v -0.038836 0.427916 -0.035140
v -0.038673 0.430521 -0.031333
v -0.038820 0.429544 -0.031365
v -0.038525 0.432426 -0.038667
v -0.038808 0.427910 -0.038873
v -0.038625 0.432020 -0.034976
v -0.038347 0.429688 -0.038930
v -0.038531 0.428746 -0.038943
v -0.038480 0.428658 -0.035122
v -0.038259 0.429558 -0.035071
v -0.038204 0.430825 -0.038897
v -0.038163 0.431687 -0.038825
v -0.038119 0.430598 -0.035048
v -0.038118 0.431406 -0.035010
usemtl Medial_meniscus_rMaterial0
f 1 2 3
f 3 2 4
f 1 3 5
f 3 4 6
f 3 6 7
f 3 7 5
f 1 8 2
f 9 2 8
f 4 2 10
f 9 10 2
f 1 5 11
f 12 8 1
f 12 1 11
f 4 13 6
f 13 7 6
f 7 14 5
f 15 11 5
f 15 5 14
f 9 8 16
f 12 16 8
f 4 10 17
f 4 17 18
f 4 19 13
f 4 18 19
f 7 20 14
f 13 21 7
f 7 22 20
f 7 21 22
f 12 11 23
f 15 23 11
f 9 24 10
f 9 16 25
f 9 25 24
f 26 17 10
f 26 10 24
f 12 27 16
f 28 12 23
f 12 29 27
f 28 29 12
f 15 14 30
f 20 30 14
f 15 31 23
f 15 30 31
f 32 25 16
f 32 16 27
f 18 17 26
f 13 33 21
f 34 13 19
f 13 35 33
f 34 35 13
f 36 20 22
f 20 37 30
f 36 37 20
f 38 22 21
f 38 21 33
f 28 23 31
f 32 24 25
f 18 34 19
f 39 31 30
f 28 31 40
f 39 40 31
f 41 26 24
f 32 41 24
f 36 22 38
f 42 30 37
f 42 39 30
f 18 26 43
f 44 43 26
f 41 44 26
f 45 27 29
f 46 29 28
f 45 29 47
f 46 47 29
f 45 32 27
f 18 43 48
f 18 49 34
f 18 48 49
f 42 37 36
f 46 28 40
f 32 50 41
f 45 51 32
f 32 51 50
f 52 40 39
f 46 40 53
f 52 53 40
f 44 54 43
f 48 43 54
f 42 36 55
f 36 56 55
f 36 38 57
f 36 57 56
f 41 58 44
f 41 50 58
f 52 39 42
f 44 59 54
f 44 58 59
f 42 55 60
f 52 42 61
f 42 60 61
f 62 33 35
f 38 33 62
f 63 54 59
f 48 54 63
f 64 60 55
f 64 55 56
f 65 45 47
f 66 47 46
f 66 67 47
f 65 47 67
f 65 51 45
f 68 69 70
f 71 70 69
f 72 69 68
f 73 71 69
f 72 73 69
f 68 70 74
f 75 74 70
f 71 76 70
f 77 75 70
f 77 70 76
f 78 68 74
f 75 79 74
f 80 74 79
f 80 78 74
f 66 46 53
f 34 81 35
f 62 35 81
f 78 72 68
f 38 82 57
f 38 62 83
f 38 83 82
f 50 51 84
f 65 84 51
f 71 85 76
f 71 86 85
f 71 87 86
f 73 88 71
f 71 88 87
f 89 79 75
f 89 90 79
f 80 79 90
f 89 75 77
f 77 76 85
f 91 53 52
f 91 92 53
f 66 53 92
f 89 77 93
f 77 94 93
f 77 85 95
f 77 95 94
f 89 93 96
f 97 90 89
f 89 96 98
f 97 89 98
f 91 52 61
f 50 99 58
f 50 100 99
f 50 84 100
f 96 93 94
f 97 101 90
f 80 90 101
f 102 59 58
f 102 58 99
f 95 85 103
f 86 103 85
f 95 104 94
f 95 105 104
f 95 103 105
f 106 98 96
f 97 98 107
f 106 107 98
f 108 61 60
f 91 61 109
f 108 109 61
f 86 87 110
f 86 111 103
f 86 110 111
f 112 34 49
f 34 113 81
f 112 113 34
f 96 94 114
f 115 114 94
f 115 94 104
f 106 96 114
f 73 116 88
f 117 87 88
f 117 88 116
f 72 118 73
f 73 118 116
f 115 119 114
f 106 114 119
f 97 107 120
f 121 97 120
f 97 122 101
f 121 122 97
f 123 56 57
f 123 57 82
f 78 124 72
f 72 124 118
f 106 125 107
f 126 120 107
f 126 107 125
f 115 104 127
f 105 127 104
f 63 59 128
f 102 128 59
f 115 129 119
f 115 127 129
f 117 110 87
f 105 103 130
f 105 131 127
f 105 130 131
f 111 130 103
f 132 106 119
f 106 133 125
f 132 133 106
f 108 60 64
f 111 110 134
f 111 135 130
f 111 134 135
f 48 112 49
f 80 136 78
f 78 136 124
f 137 120 126
f 137 121 120
f 138 119 129
f 138 132 119
f 139 129 127
f 139 138 129
f 134 110 140
f 117 140 110
f 131 139 127
f 48 63 141
f 48 142 112
f 48 141 142
f 143 80 101
f 80 144 136
f 143 144 80
f 131 130 145
f 131 145 146
f 131 146 139
f 64 56 123
f 135 145 130
f 135 134 147
f 135 148 145
f 135 147 148
f 143 101 122
f 137 126 125
f 133 149 125
f 137 125 149
f 141 63 128
f 134 150 147
f 134 140 151
f 134 151 150
f 132 152 133
f 133 152 149
f 102 99 153
f 100 153 99
f 121 154 122
f 143 122 154
f 102 155 128
f 102 153 155
f 156 91 109
f 108 157 109
f 156 109 157
f 156 92 91
f 138 158 132
f 132 158 152
f 159 145 148
f 160 148 147
f 160 161 148
f 159 148 161
f 100 84 162
f 100 163 153
f 100 162 163
f 164 66 92
f 156 165 92
f 164 92 165
f 108 64 166
f 108 166 157
f 159 146 145
f 64 167 166
f 64 123 168
f 64 168 167
f 139 169 138
f 138 169 158
f 139 146 170
f 159 170 146
f 171 84 65
f 171 162 84
f 139 170 172
f 139 172 169
f 160 147 150
f 173 116 118
f 174 117 116
f 173 174 116
f 164 67 66
f 137 175 121
f 121 175 154
f 171 65 67
f 176 128 155
f 141 128 177
f 176 177 128
f 178 118 124
f 178 173 118
f 117 179 140
f 174 180 117
f 117 180 179
f 164 181 67
f 171 67 181
f 178 124 136
f 182 137 149
f 137 183 175
f 182 183 137
f 151 140 179
f 184 136 144
f 178 136 184
f 160 185 161
f 186 159 161
f 186 161 185
f 182 149 152
f 187 157 166
f 187 166 167
f 160 150 188
f 160 188 185
f 189 155 153
f 189 176 155
f 143 190 144
f 184 144 190
f 186 170 159
f 158 191 152
f 182 152 191
f 151 192 150
f 151 179 193
f 151 193 192
f 194 172 170
f 186 194 170
f 195 143 154
f 143 196 190
f 195 196 143
f 158 169 197
f 158 198 191
f 158 197 198
f 197 169 172
f 194 199 172
f 197 172 199
f 187 156 157
f 163 189 153
f 200 154 175
f 200 195 154
f 156 201 165
f 187 202 156
f 156 202 201
f 192 188 150
f 163 162 203
f 163 204 189
f 163 203 204
f 200 175 183
f 205 164 165
f 205 165 201
f 206 162 171
f 206 203 162
f 62 207 83
f 208 82 83
f 208 83 207
f 182 209 183
f 200 183 209
f 62 81 210
f 62 211 207
f 62 210 211
f 212 185 188
f 192 212 188
f 123 82 208
f 205 181 164
f 210 81 113
f 213 182 191
f 182 214 209
f 213 214 182
f 123 215 168
f 123 216 215
f 123 208 216
f 206 171 181
f 205 217 181
f 206 181 217
f 218 186 185
f 212 218 185
f 219 167 168
f 219 168 215
f 112 220 113
f 210 113 220
f 213 191 198
f 219 187 167
f 186 221 194
f 218 222 186
f 186 222 221
f 223 112 142
f 223 224 112
f 112 224 220
f 141 223 142
f 197 225 198
f 213 198 225
f 141 177 226
f 141 226 227
f 141 227 223
f 228 199 194
f 228 194 221
f 226 177 176
f 197 199 228
f 197 229 225
f 197 228 229
f 187 230 202
f 187 231 230
f 219 231 187
f 189 232 176
f 226 176 232
f 189 204 233
f 189 233 234
f 189 234 232
f 235 201 202
f 235 202 230
f 173 236 174
f 178 237 173
f 173 237 236
f 174 238 180
f 174 236 238
f 239 178 184
f 239 240 178
f 178 240 237
f 235 205 201
f 233 204 203
f 239 184 190
f 180 241 179
f 180 238 241
f 242 190 196
f 239 190 242
f 243 203 206
f 233 203 244
f 243 244 203
f 241 193 179
f 195 245 196
f 242 196 245
f 200 246 195
f 195 246 245
f 205 247 217
f 235 248 205
f 205 248 247
f 249 200 209
f 249 250 200
f 200 250 246
f 249 209 214
f 192 193 251
f 241 251 193
f 213 252 214
f 249 214 252
f 243 206 217
f 243 217 247
f 253 213 225
f 213 254 252
f 253 254 213
f 192 255 212
f 192 256 255
f 192 251 256
f 253 225 229
f 212 257 218
f 212 255 257
f 218 258 222
f 218 257 258
f 228 259 229
f 253 229 259
f 228 221 260
f 228 261 259
f 228 260 261
f 260 221 222
f 260 222 258
f 262 230 231
f 219 263 231
f 262 231 263
f 262 235 230
f 264 219 215
f 219 265 263
f 264 265 219
f 235 266 248
f 235 267 266
f 262 267 235
f 268 247 248
f 268 248 266
f 268 243 247
f 233 269 234
f 233 244 270
f 233 270 271
f 233 271 269
f 264 215 216
f 272 232 234
f 272 234 269
f 243 270 244
f 268 273 243
f 243 273 270
f 274 252 254
f 274 249 252
f 253 275 254
f 274 254 275
f 226 232 272
f 208 276 216
f 264 216 276
f 249 277 250
f 274 278 249
f 249 278 277
f 279 253 259
f 253 280 275
f 279 280 253
f 208 207 281
f 208 282 276
f 208 281 282
f 281 207 211
f 226 283 227
f 226 272 284
f 226 284 283
f 285 246 250
f 285 250 277
f 279 259 261
f 210 286 211
f 281 211 286
f 283 223 227
f 285 245 246
f 260 287 261
f 279 261 287
f 210 220 288
f 210 288 289
f 210 289 286
f 223 290 224
f 283 291 223
f 223 291 290
f 288 220 224
f 288 224 290
f 260 258 292
f 260 293 287
f 260 292 293
f 294 242 245
f 285 295 245
f 294 245 295
f 292 258 257
f 294 239 242
f 255 296 257
f 292 257 296
f 297 266 267
f 297 268 266
f 262 298 267
f 297 267 298
f 239 299 240
f 294 300 239
f 239 300 299
f 268 301 273
f 297 302 268
f 268 302 301
f 255 256 303
f 255 304 296
f 255 303 304
f 305 262 263
f 262 306 298
f 305 306 262
f 270 273 301
f 307 237 240
f 307 240 299
f 303 256 251
f 308 274 275
f 308 275 280
f 305 263 265
f 270 309 271
f 270 301 310
f 270 310 309
f 274 311 278
f 308 312 274
f 274 312 311
f 279 313 280
f 308 280 313
f 307 236 237
f 241 314 251
f 303 251 314
f 315 238 236
f 307 316 236
f 315 236 316
f 317 279 287
f 279 318 313
f 317 318 279
f 319 277 278
f 319 278 311
f 241 238 315
f 241 320 314
f 241 315 320
f 321 269 271
f 321 271 309
f 264 322 265
f 305 265 322
f 317 287 293
f 272 269 321
f 285 277 319
f 292 323 293
f 317 293 323
f 297 324 302
f 325 297 298
f 297 326 324
f 325 326 297
f 301 302 324
f 327 264 276
f 264 328 322
f 327 328 264
f 272 329 284
f 272 321 330
f 272 330 329
f 325 298 306
f 331 295 285
f 285 319 332
f 331 285 332
f 292 296 333
f 292 334 323
f 292 333 334
f 301 335 310
f 301 324 336
f 301 336 335
f 327 276 282
f 337 308 313
f 308 338 312
f 337 339 308
f 308 339 338
f 329 283 284
f 305 340 306
f 325 306 340
f 337 313 318
f 331 294 295
f 341 311 312
f 341 312 338
f 333 296 304
f 342 309 310
f 342 310 335
f 281 343 282
f 327 282 343
f 317 344 318
f 337 318 344
f 283 345 291
f 329 346 283
f 283 346 345
f 319 311 341
f 347 290 291
f 347 291 345
f 281 286 348
f 281 349 343
f 281 348 349
f 294 350 300
f 331 351 294
f 294 351 350
f 352 305 322
f 305 353 340
f 352 353 305
f 288 290 347
f 303 354 304
f 333 304 354
f 288 355 289
f 288 347 356
f 288 356 355
f 348 286 289
f 357 317 323
f 317 358 344
f 357 358 317
f 348 289 355
f 324 326 359
f 325 359 326
f 321 309 342
f 324 360 336
f 324 359 361
f 324 361 360
f 362 325 340
f 325 363 359
f 362 363 325
f 364 299 300
f 364 300 350
f 365 332 319
f 319 341 366
f 365 319 366
f 303 314 367
f 303 368 354
f 303 367 368
f 357 323 334
f 369 335 336
f 369 336 360
f 337 370 339
f 371 338 339
f 371 339 370
f 352 322 328
f 372 337 344
f 337 373 370
f 372 373 337
f 364 307 299
f 341 338 371
f 321 374 330
f 321 342 375
f 321 375 374
f 367 314 320
f 376 316 307
f 364 377 307
f 376 307 377
f 362 340 353
f 365 331 332
f 372 344 358
f 333 378 334
f 357 334 378
f 315 316 376
f 315 379 320
f 315 376 380
f 315 380 379
f 342 335 369
f 367 320 379
f 359 381 361
f 359 363 382
f 359 383 381
f 359 382 383
f 384 360 361
f 384 361 381
f 341 371 385
f 386 366 341
f 386 341 385
f 374 329 330
f 327 387 328
f 352 328 387
f 331 388 351
f 365 389 331
f 331 389 388
f 362 382 363
f 357 390 358
f 372 358 390
f 333 354 391
f 333 392 378
f 333 391 392
f 393 370 373
f 371 370 393
f 372 394 373
f 393 373 394
f 369 360 384
f 362 353 395
f 352 395 353
f 371 393 396
f 397 385 371
f 397 371 396
f 386 365 366
f 342 369 398
f 342 399 375
f 342 398 399
f 329 400 346
f 374 401 329
f 329 401 400
f 402 327 343
f 327 403 387
f 402 403 327
f 404 381 383
f 384 381 404
f 405 350 351
f 405 351 388
f 406 357 378
f 357 407 390
f 406 407 357
f 391 354 368
f 382 408 383
f 404 383 408
f 372 409 394
f 410 372 390
f 410 409 372
f 362 411 382
f 412 411 362
f 412 362 395
f 393 394 413
f 414 396 393
f 393 413 415
f 414 393 415
f 413 394 409
f 416 345 346
f 416 346 400
f 397 386 385
f 382 417 408
f 382 418 417
f 382 411 418
f 369 384 419
f 369 420 398
f 369 419 420
f 402 343 349
f 386 421 365
f 365 422 389
f 365 421 422
f 384 404 423
f 404 408 424
f 404 424 425
f 404 425 426
f 404 426 423
f 367 427 368
f 391 368 427
f 405 364 350
f 414 397 396
f 384 423 428
f 384 428 419
f 352 429 395
f 430 352 387
f 430 429 352
f 424 408 417
f 406 378 392
f 347 345 416
f 424 415 413
f 424 413 425
f 413 426 425
f 413 409 431
f 413 431 426
f 410 390 407
f 424 414 415
f 347 432 356
f 347 416 433
f 347 433 432
f 399 374 375
f 348 434 349
f 402 349 434
f 424 417 435
f 424 435 414
f 436 355 356
f 436 356 432
f 410 431 409
f 437 377 364
f 405 438 364
f 437 364 438
f 418 435 417
f 348 355 436
f 348 439 434
f 348 436 439
f 414 435 440
f 414 441 397
f 414 440 441
f 397 442 386
f 386 443 421
f 386 442 443
f 367 379 444
f 367 445 427
f 367 444 445
f 412 418 411
f 446 388 389
f 446 389 422
f 412 395 429
f 426 428 423
f 418 440 435
f 391 447 392
f 406 392 447
f 397 441 448
f 397 448 442
f 376 377 437
f 426 431 449
f 410 449 431
f 410 407 450
f 406 450 407
f 376 451 380
f 376 437 452
f 376 452 451
f 426 449 453
f 426 453 428
f 420 399 398
f 444 379 380
f 444 380 451
f 428 420 419
f 454 449 410
f 454 410 450
f 374 455 401
f 399 456 374
f 374 456 455
f 430 387 403
f 418 457 440
f 412 458 418
f 418 458 457
f 457 441 440
f 457 448 441
f 459 422 421
f 459 421 443
f 391 427 460
f 391 461 447
f 391 460 461
f 446 405 388
f 406 462 450
f 463 406 447
f 463 462 406
f 464 442 448
f 464 443 442
f 454 453 449
f 428 453 465
f 428 466 420
f 428 465 466
f 412 429 467
f 468 458 412
f 468 412 467
f 430 467 429
f 454 450 462
f 454 465 453
f 469 400 401
f 469 401 455
f 402 470 403
f 430 403 470
f 420 471 399
f 399 472 456
f 399 471 472
f 460 427 445
f 473 438 405
f 446 474 405
f 473 405 474
f 420 466 475
f 420 475 471
f 459 446 422
f 457 464 448
f 463 447 461
f 468 457 458
f 464 459 443
f 416 400 469
f 457 476 464
f 468 476 457
f 437 438 473
f 454 462 477
f 478 465 454
f 478 454 477
f 463 477 462
f 479 402 434
f 402 480 470
f 479 480 402
f 444 481 445
f 460 445 481
f 478 466 465
f 478 475 466
f 437 482 452
f 437 473 483
f 437 483 482
f 416 484 433
f 416 469 485
f 416 485 484
f 430 486 467
f 468 467 486
f 459 487 446
f 488 474 446
f 488 446 487
f 489 430 470
f 489 486 430
f 490 451 452
f 490 452 482
f 463 461 491
f 460 491 461
f 492 432 433
f 492 433 484
f 493 455 456
f 493 456 472
f 444 451 490
f 479 434 439
f 444 494 481
f 444 490 494
f 436 432 492
f 495 471 475
f 495 472 471
f 464 496 459
f 497 464 476
f 497 496 464
f 436 498 439
f 479 439 498
f 436 492 499
f 436 499 498
f 500 459 496
f 500 487 459
f 463 501 477
f 478 477 501
f 497 476 468
f 468 486 502
f 497 468 502
f 503 501 463
f 503 463 491
f 473 474 488
f 495 475 478
f 460 504 491
f 460 481 505
f 460 505 504
f 478 501 506
f 495 478 506
f 489 470 480
f 469 455 493
f 489 502 486
f 500 496 497
f 488 487 500
f 473 507 483
f 473 488 508
f 473 508 507
f 493 472 495
f 503 506 501
f 503 491 504
f 505 481 494
f 497 502 509
f 489 509 502
f 500 497 510
f 497 509 510
f 511 482 483
f 511 483 507
f 469 512 485
f 469 493 513
f 469 513 512
f 490 482 511
f 495 506 514
f 503 514 506
f 493 495 515
f 495 514 515
f 489 480 516
f 479 516 480
f 490 517 494
f 490 511 518
f 490 518 517
f 488 500 519
f 488 520 508
f 488 519 520
f 505 494 517
f 500 510 521
f 500 521 519
f 503 504 522
f 505 522 504
f 523 509 489
f 523 489 516
f 524 514 503
f 524 503 522
f 525 484 485
f 525 485 512
f 493 515 526
f 493 526 513
f 527 479 498
f 479 528 516
f 527 528 479
f 492 484 525
f 492 529 499
f 492 530 529
f 492 525 530
f 527 498 499
f 527 499 529
f 523 510 509
f 523 521 510
f 531 507 508
f 531 508 520
f 524 515 514
f 524 526 515
f 511 507 531
f 505 532 522
f 505 517 533
f 505 533 532
f 534 519 521
f 534 520 519
f 523 516 528
f 524 522 532
f 511 535 518
f 511 531 536
f 511 536 535
f 537 513 526
f 537 512 513
f 533 517 518
f 533 518 535
f 534 521 523
f 523 528 538
f 534 523 538
f 537 526 524
f 524 532 539
f 537 524 539
f 531 520 534
f 527 538 528
f 525 512 537
f 540 527 529
f 527 541 538
f 540 541 527
f 533 539 532
f 540 529 530
f 531 534 542
f 531 543 536
f 531 542 543
f 525 544 530
f 540 530 544
f 525 537 545
f 525 545 544
f 534 538 541
f 534 541 542
f 546 535 536
f 546 536 543
f 533 535 546
f 533 547 539
f 533 546 547
f 537 539 547
f 540 542 541
f 537 547 545
f 540 543 542
f 546 543 540
f 546 540 544
f 546 544 545
f 546 545 547
