# 
# Wavefront OBJ file
# Created with Kaydara FBX
# 
mtllib c:\users\tjvan\onedrive\documenten\fontys\minor\nx\.mtlmodels\medial_sural_cutaneous_nerve.r.obj

g Medial_sural_cutaneous_nerve_r
v -0.101968 0.460992 -0.073155
v -0.102040 0.457390 -0.074790
v -0.102004 0.457323 -0.074638
v -0.101814 0.453743 -0.076170
v -0.101890 0.461069 -0.073329
v -0.101960 0.457470 -0.074967
v -0.101850 0.453806 -0.076327
v -0.101933 0.460921 -0.073009
v -0.101862 0.457288 -0.074552
v -0.101669 0.453716 -0.076079
v -0.101720 0.461131 -0.073484
v -0.101769 0.453888 -0.076508
v -0.101786 0.457541 -0.075121
v -0.101570 0.464585 -0.071413
v -0.101493 0.464659 -0.071583
v -0.101795 0.460876 -0.072930
v -0.101536 0.464509 -0.071273
v -0.101328 0.464710 -0.071739
v -0.101652 0.457294 -0.074555
v -0.101456 0.453733 -0.076077
v -0.101429 0.450206 -0.077616
v -0.101466 0.450266 -0.077778
v -0.101282 0.450186 -0.077519
v -0.101591 0.453968 -0.076663
v -0.101504 0.461162 -0.073579
v -0.101565 0.457586 -0.075213
v -0.101590 0.460867 -0.072940
v -0.101402 0.464452 -0.071202
v -0.101383 0.450351 -0.077962
v -0.101118 0.464726 -0.071839
v -0.101065 0.450212 -0.077514
v -0.101431 0.457338 -0.074647
v -0.101230 0.453789 -0.076165
v -0.101366 0.454024 -0.076752
v -0.101202 0.450438 -0.078118
v -0.101374 0.460898 -0.073034
v -0.101203 0.464428 -0.071219
v -0.101299 0.461154 -0.073588
v -0.101355 0.457591 -0.075216
v -0.100777 0.468143 -0.069553
v -0.100703 0.468213 -0.069721
v -0.100746 0.468061 -0.069421
v -0.100919 0.464702 -0.071856
v -0.100543 0.468253 -0.069879
v -0.100916 0.446739 -0.078985
v -0.100953 0.446798 -0.079151
v -0.100835 0.450277 -0.077601
v -0.100767 0.446723 -0.078884
v -0.101257 0.457410 -0.074801
v -0.101053 0.453869 -0.076321
v -0.100618 0.467991 -0.069359
v -0.100868 0.446885 -0.079338
v -0.101152 0.454041 -0.076750
v -0.100972 0.450503 -0.078205
v -0.101204 0.460961 -0.073190
v -0.100993 0.464444 -0.071319
v -0.101160 0.461108 -0.073509
v -0.101213 0.457556 -0.075130
v -0.100341 0.468253 -0.069985
v -0.100785 0.464645 -0.071785
v -0.100546 0.446756 -0.078876
v -0.101177 0.457490 -0.074978
v -0.100971 0.453952 -0.076501
v -0.100655 0.450364 -0.077757
v -0.100684 0.446977 -0.079497
v -0.101126 0.461037 -0.073363
v -0.101008 0.454015 -0.076658
v -0.100828 0.464496 -0.071475
v -0.100427 0.467950 -0.069384
v -0.100755 0.450530 -0.078200
v -0.100752 0.464569 -0.071646
v -0.100151 0.468212 -0.070010
v -0.100312 0.446828 -0.078963
v -0.100572 0.450449 -0.077941
v -0.100609 0.450510 -0.078103
v -0.100226 0.467950 -0.069490
v -0.100451 0.447049 -0.079584
v -0.100340 0.443368 -0.080287
v -0.100377 0.443427 -0.080457
v -0.100188 0.443355 -0.080184
v -0.100023 0.468142 -0.069948
v -0.100291 0.443516 -0.080648
v -0.100129 0.446920 -0.079122
v -0.100066 0.467991 -0.069648
v -0.099992 0.468061 -0.069816
v -0.099524 0.471635 -0.067567
v -0.099452 0.471702 -0.067732
v -0.099963 0.443391 -0.080175
v -0.100230 0.447082 -0.079576
v -0.099496 0.471549 -0.067442
v -0.099300 0.471732 -0.067892
v -0.100104 0.443612 -0.080809
v -0.100044 0.447007 -0.079309
v -0.100081 0.447066 -0.079475
v -0.099376 0.471466 -0.067390
v -0.099726 0.443466 -0.080262
v -0.099109 0.471716 -0.068005
v -0.099866 0.443687 -0.080897
v -0.099197 0.471409 -0.067425
v -0.099767 0.440120 -0.081533
v -0.099805 0.440181 -0.081706
v -0.099612 0.440106 -0.081428
v -0.098929 0.471659 -0.068040
v -0.099538 0.443562 -0.080423
v -0.099717 0.440271 -0.081901
v -0.099641 0.443723 -0.080888
v -0.099005 0.471393 -0.067537
v -0.099383 0.440142 -0.081419
v -0.098809 0.471576 -0.067987
v -0.099452 0.443651 -0.080614
v -0.099526 0.440368 -0.082066
v -0.099490 0.443710 -0.080784
v -0.098853 0.471422 -0.067697
v -0.098781 0.471489 -0.067862
v -0.099140 0.440219 -0.081508
v -0.099283 0.440445 -0.082155
v -0.099263 0.437023 -0.082731
v -0.099302 0.437086 -0.082907
v -0.099104 0.437004 -0.082625
v -0.099212 0.437178 -0.083106
v -0.098949 0.440315 -0.081673
v -0.099636 0.412313 -0.092152
v -0.099654 0.411222 -0.092517
v -0.099603 0.411150 -0.092295
v -0.099523 0.412396 -0.092414
v -0.099530 0.409645 -0.092785
v -0.099580 0.409714 -0.093008
v -0.099541 0.411310 -0.092777
v -0.099585 0.412236 -0.091931
v -0.099494 0.413934 -0.091600
v -0.099383 0.414013 -0.091859
v -0.099054 0.440481 -0.082146
v -0.099403 0.411111 -0.092169
v -0.099330 0.409617 -0.092656
v -0.098870 0.437036 -0.082618
v -0.099381 0.407814 -0.093372
v -0.099468 0.409805 -0.093267
v -0.099431 0.407881 -0.093596
v -0.099444 0.413856 -0.091383
v -0.099385 0.412185 -0.091809
v -0.099182 0.407790 -0.093242
v -0.099277 0.412463 -0.092647
v -0.099295 0.411389 -0.093006
v -0.099141 0.414073 -0.092091
v -0.099017 0.437273 -0.083275
v -0.098861 0.440406 -0.081868
v -0.099362 0.415540 -0.091056
v -0.099252 0.415619 -0.091312
v -0.098899 0.440467 -0.082041
v -0.099319 0.407973 -0.093854
v -0.099222 0.409893 -0.093491
v -0.099247 0.413800 -0.091265
v -0.099313 0.415464 -0.090842
v -0.099173 0.405738 -0.094032
v -0.099223 0.405804 -0.094256
v -0.099106 0.411118 -0.092175
v -0.099034 0.409636 -0.092657
v -0.098975 0.405718 -0.093902
v -0.099088 0.412174 -0.091821
v -0.099014 0.415679 -0.091539
v -0.098622 0.437110 -0.082711
v -0.099239 0.417150 -0.090512
v -0.099131 0.417228 -0.090763
v -0.099111 0.405897 -0.094513
v -0.099075 0.408066 -0.094076
v -0.098887 0.407817 -0.093241
v -0.099118 0.415410 -0.090726
v -0.099191 0.417075 -0.090301
v -0.098964 0.412495 -0.092788
v -0.098982 0.411438 -0.093140
v -0.098892 0.434103 -0.083892
v -0.098933 0.434172 -0.084070
v -0.098833 0.414097 -0.092232
v -0.098769 0.437347 -0.083368
v -0.098730 0.434076 -0.083787
v -0.098955 0.413781 -0.091279
v -0.098896 0.417288 -0.090987
v -0.099127 0.418760 -0.089965
v -0.099021 0.418839 -0.090212
v -0.098923 0.403504 -0.094738
v -0.098973 0.403569 -0.094962
v -0.098910 0.409955 -0.093622
v -0.098841 0.434264 -0.084273
v -0.098725 0.403486 -0.094607
v -0.098681 0.405748 -0.093899
v -0.098999 0.417023 -0.090186
v -0.099079 0.418686 -0.089757
v -0.098868 0.405993 -0.094734
v -0.098861 0.403663 -0.095218
v -0.098793 0.411167 -0.092310
v -0.098722 0.409698 -0.092788
v -0.098710 0.415703 -0.091678
v -0.098830 0.415393 -0.090739
v -0.098789 0.418900 -0.090432
v -0.099027 0.420370 -0.089413
v -0.098922 0.420449 -0.089656
v -0.098489 0.434098 -0.083784
v -0.098426 0.437205 -0.082880
v -0.098763 0.408135 -0.094204
v -0.098774 0.412206 -0.091962
v -0.098890 0.418636 -0.089643
v -0.098980 0.420296 -0.089208
v -0.098534 0.437379 -0.083361
v -0.098576 0.407885 -0.093370
v -0.098596 0.417314 -0.091124
v -0.098715 0.417008 -0.090198
v -0.098694 0.420512 -0.089871
v -0.098940 0.421977 -0.088853
v -0.098837 0.422057 -0.089091
v -0.098641 0.434355 -0.084447
v -0.098645 0.401200 -0.095462
v -0.098447 0.401183 -0.095331
v -0.098695 0.401264 -0.095686
v -0.098432 0.403519 -0.094604
v -0.098667 0.412484 -0.092799
v -0.098686 0.411445 -0.093146
v -0.098540 0.414078 -0.092246
v -0.098646 0.413805 -0.091420
v -0.098894 0.421904 -0.088652
v -0.098794 0.420248 -0.089096
v -0.098612 0.422121 -0.089303
v -0.098867 0.423580 -0.088284
v -0.098766 0.423661 -0.088517
v -0.098719 0.431383 -0.085026
v -0.098761 0.431457 -0.085205
v -0.098336 0.437297 -0.083079
v -0.098614 0.409975 -0.093623
v -0.098371 0.405821 -0.094026
v -0.098493 0.418928 -0.090566
v -0.098611 0.418623 -0.089655
v -0.098822 0.423507 -0.088086
v -0.098710 0.421857 -0.088541
v -0.098553 0.431347 -0.084923
v -0.098376 0.437360 -0.083255
v -0.098618 0.403760 -0.095439
v -0.098583 0.401358 -0.095942
v -0.098557 0.406066 -0.094861
v -0.098422 0.415687 -0.091691
v -0.098526 0.415418 -0.090878
v -0.098544 0.423728 -0.088724
v -0.098810 0.425176 -0.087701
v -0.098766 0.425103 -0.087507
v -0.098641 0.423461 -0.087976
v -0.098710 0.425259 -0.087930
v -0.098667 0.431549 -0.085413
v -0.098235 0.434164 -0.083883
v -0.098770 0.426765 -0.087105
v -0.098671 0.426849 -0.087329
v -0.098469 0.408161 -0.094203
v -0.098547 0.411246 -0.092538
v -0.098477 0.409787 -0.093012
v -0.098528 0.412272 -0.092194
v -0.098403 0.420542 -0.090002
v -0.098518 0.420237 -0.089107
v -0.098492 0.425328 -0.088132
v -0.098726 0.426691 -0.086914
v -0.098588 0.425059 -0.087400
v -0.098747 0.428343 -0.086491
v -0.098650 0.428430 -0.086710
v -0.098744 0.429910 -0.085858
v -0.098702 0.429835 -0.085675
v -0.098387 0.434421 -0.084546
v -0.098704 0.428269 -0.086304
v -0.098649 0.429999 -0.086071
v -0.098356 0.398914 -0.096178
v -0.098405 0.398977 -0.096401
v -0.098155 0.401218 -0.095327
v -0.098122 0.403594 -0.094729
v -0.098331 0.407979 -0.093592
v -0.098466 0.412433 -0.092678
v -0.098485 0.411407 -0.093020
v -0.098312 0.417300 -0.091136
v -0.098415 0.417034 -0.090334
v -0.098325 0.422154 -0.089430
v -0.098439 0.421848 -0.088551
v -0.098456 0.426922 -0.087526
v -0.098551 0.426648 -0.086808
v -0.098532 0.428227 -0.086200
v -0.098533 0.429794 -0.085572
v -0.098307 0.431358 -0.084924
v -0.098343 0.414022 -0.092128
v -0.098439 0.428506 -0.086902
v -0.098463 0.431633 -0.085594
v -0.098159 0.398898 -0.096047
v -0.098404 0.413864 -0.091652
v -0.098374 0.423455 -0.087985
v -0.098441 0.430079 -0.086258
v -0.098341 0.401457 -0.096162
v -0.098308 0.403836 -0.095564
v -0.098415 0.409946 -0.093495
v -0.098315 0.418651 -0.089789
v -0.098262 0.423763 -0.088848
v -0.098035 0.434255 -0.084057
v -0.098294 0.399071 -0.096657
v -0.098127 0.405917 -0.094247
v -0.098214 0.418915 -0.090577
v -0.098325 0.425055 -0.087407
v -0.098264 0.406096 -0.094859
v -0.098434 0.411334 -0.092798
v -0.098364 0.409878 -0.093271
v -0.098416 0.412355 -0.092456
v -0.098227 0.415633 -0.091575
v -0.098287 0.415478 -0.091105
v -0.098227 0.420267 -0.089237
v -0.098214 0.425367 -0.088254
v -0.098293 0.426647 -0.086815
v -0.098278 0.428228 -0.086205
v -0.098283 0.429798 -0.085576
v -0.098147 0.434443 -0.084543
v -0.098071 0.396733 -0.096858
v -0.098120 0.396796 -0.097081
v -0.097867 0.398934 -0.096043
v -0.097846 0.401295 -0.095452
v -0.098269 0.408138 -0.094074
v -0.098219 0.408071 -0.093850
v -0.098293 0.413944 -0.091911
v -0.098121 0.417248 -0.091021
v -0.098180 0.417094 -0.090558
v -0.098127 0.420531 -0.090013
v -0.098054 0.422145 -0.089440
v -0.098153 0.421880 -0.088679
v -0.098183 0.426963 -0.087644
v -0.098170 0.428551 -0.087016
v -0.098177 0.430128 -0.086368
v -0.098203 0.431689 -0.085700
v -0.098048 0.431413 -0.085030
v -0.097944 0.434347 -0.084261
v -0.097874 0.396718 -0.096727
v -0.097879 0.403692 -0.094950
v -0.098092 0.423490 -0.088110
v -0.097984 0.434416 -0.084438
v -0.098032 0.401534 -0.096286
v -0.098052 0.399171 -0.096876
v -0.098015 0.403869 -0.095561
v -0.098015 0.406010 -0.094504
v -0.098178 0.415556 -0.091361
v -0.098025 0.418865 -0.090464
v -0.098084 0.418712 -0.090008
v -0.097995 0.423757 -0.088857
v -0.098047 0.425093 -0.087529
v -0.098018 0.429847 -0.085687
v -0.098009 0.396890 -0.097336
v -0.098065 0.406076 -0.094728
v -0.097951 0.425363 -0.088261
v -0.098019 0.426688 -0.086933
v -0.098009 0.428273 -0.086320
v -0.098072 0.417172 -0.090809
v -0.097941 0.420482 -0.089900
v -0.097999 0.420330 -0.089453
v -0.097924 0.426962 -0.087650
v -0.097958 0.431699 -0.085701
v -0.097844 0.431497 -0.085211
v -0.097916 0.428552 -0.087022
v -0.097926 0.430132 -0.086373
v -0.097583 0.396755 -0.096722
v -0.097559 0.399013 -0.096167
v -0.097928 0.421945 -0.088890
v -0.097806 0.394748 -0.097475
v -0.097855 0.394810 -0.097697
v -0.097604 0.401394 -0.095672
v -0.097767 0.403786 -0.095206
v -0.097977 0.418790 -0.090255
v -0.097870 0.422098 -0.089329
v -0.097870 0.423557 -0.088316
v -0.097610 0.394733 -0.097343
v -0.097817 0.403850 -0.095430
v -0.097768 0.396990 -0.097555
v -0.097744 0.399249 -0.097000
v -0.097814 0.423711 -0.088748
v -0.097829 0.425163 -0.087731
v -0.097810 0.429926 -0.085874
v -0.097744 0.394904 -0.097952
v -0.097739 0.401569 -0.096282
v -0.097894 0.420408 -0.089696
v -0.097773 0.425318 -0.088154
v -0.097804 0.426761 -0.087130
v -0.097798 0.428349 -0.086512
v -0.097750 0.431589 -0.085419
v -0.097792 0.431663 -0.085599
v -0.097824 0.422025 -0.089128
v -0.097750 0.426919 -0.087544
v -0.097744 0.428510 -0.086917
v -0.097757 0.430091 -0.086270
v -0.097319 0.394771 -0.097339
v -0.097275 0.396834 -0.096846
v -0.097492 0.401488 -0.095928
v -0.097769 0.423638 -0.088550
v -0.097577 0.393045 -0.098000
v -0.097626 0.393107 -0.098223
v -0.097316 0.399112 -0.096386
v -0.097715 0.430016 -0.086087
v -0.097381 0.393031 -0.097869
v -0.097542 0.401552 -0.096151
v -0.097729 0.425245 -0.087959
v -0.097706 0.426845 -0.087354
v -0.097701 0.428436 -0.086730
v -0.097503 0.395003 -0.098170
v -0.097460 0.397069 -0.097679
v -0.097516 0.393200 -0.098477
v -0.097452 0.399285 -0.096996
v -0.097400 0.391717 -0.098407
v -0.097449 0.391778 -0.098630
v -0.097091 0.393069 -0.097865
v -0.097205 0.399206 -0.096641
v -0.097205 0.391702 -0.098277
v -0.097012 0.394850 -0.097462
v -0.097034 0.396934 -0.097065
v -0.097255 0.399269 -0.096865
v -0.097275 0.393299 -0.098695
v -0.097339 0.391869 -0.098884
v -0.097196 0.395082 -0.098294
v -0.097293 0.390867 -0.098663
v -0.097342 0.390924 -0.098887
v -0.097169 0.397106 -0.097674
v -0.097098 0.390851 -0.098533
v -0.096915 0.391738 -0.098272
v -0.097230 0.391006 -0.099144
v -0.097212 0.389957 -0.098900
v -0.097259 0.390006 -0.099120
v -0.097098 0.391966 -0.099103
v -0.096784 0.393147 -0.097988
v -0.096923 0.397028 -0.097320
v -0.097021 0.389939 -0.098774
v -0.096968 0.393378 -0.098819
v -0.096771 0.394949 -0.097680
v -0.097149 0.390072 -0.099374
v -0.097135 0.388515 -0.099219
v -0.097181 0.388558 -0.099435
v -0.096972 0.397091 -0.097543
v -0.096988 0.391091 -0.099365
v -0.096949 0.388497 -0.099096
v -0.096807 0.390879 -0.098531
v -0.096905 0.395120 -0.098289
v -0.097073 0.388614 -0.099685
v -0.097059 0.386646 -0.099601
v -0.097103 0.386685 -0.099812
v -0.096912 0.390137 -0.099595
v -0.096877 0.386628 -0.099481
v -0.096979 0.384458 -0.100027
v -0.096998 0.386737 -0.100056
v -0.097022 0.384495 -0.100233
v -0.096737 0.389956 -0.098775
v -0.096791 0.392043 -0.099226
v -0.096608 0.391815 -0.098396
v -0.096802 0.384441 -0.099910
v -0.096841 0.388668 -0.099902
v -0.096660 0.395043 -0.097935
v -0.096919 0.384543 -0.100472
v -0.096892 0.382054 -0.100480
v -0.096934 0.382090 -0.100681
v -0.096671 0.388508 -0.099098
v -0.096543 0.393246 -0.098206
v -0.096771 0.386785 -0.100269
v -0.096719 0.382039 -0.100366
v -0.096681 0.391156 -0.099492
v -0.096678 0.393415 -0.098814
v -0.096709 0.395105 -0.098158
v -0.096606 0.386637 -0.099483
v -0.096792 0.379537 -0.100943
v -0.096833 0.382135 -0.100914
v -0.096833 0.379570 -0.101139
v -0.096624 0.379524 -0.100832
v -0.096698 0.384589 -0.100679
v -0.096610 0.390184 -0.099723
v -0.096500 0.390945 -0.098658
v -0.096538 0.384450 -0.099912
v -0.096736 0.379615 -0.101365
v -0.096677 0.377008 -0.101399
v -0.096717 0.377039 -0.101589
v -0.096618 0.382179 -0.101116
v -0.096546 0.388706 -0.100029
v -0.096514 0.376996 -0.101290
v -0.096462 0.382048 -0.100368
v -0.096436 0.390004 -0.098902
v -0.096501 0.392079 -0.099222
v -0.096367 0.391912 -0.098614
v -0.096484 0.386819 -0.100393
v -0.096433 0.393339 -0.098461
v -0.096622 0.377082 -0.101809
v -0.096526 0.379658 -0.101562
v -0.096377 0.388546 -0.099224
v -0.096541 0.374566 -0.101831
v -0.096579 0.374596 -0.102015
v -0.096374 0.379533 -0.100834
v -0.096482 0.393401 -0.098683
v -0.096418 0.384620 -0.100801
v -0.096382 0.374557 -0.101724
v -0.096319 0.386671 -0.099607
v -0.096391 0.391185 -0.099490
v -0.096487 0.374637 -0.102230
v -0.096418 0.377125 -0.102001
v -0.096270 0.377007 -0.101292
v -0.096345 0.382210 -0.101234
v -0.096258 0.384481 -0.100034
v -0.096326 0.390202 -0.099724
v -0.096258 0.391030 -0.098880
v -0.096380 0.372313 -0.102221
v -0.096417 0.372340 -0.102401
v -0.096226 0.372308 -0.102117
v -0.096189 0.382078 -0.100486
v -0.096268 0.388717 -0.100031
v -0.096257 0.392004 -0.098869
v -0.096261 0.379688 -0.101677
v -0.096146 0.374571 -0.101725
v -0.096198 0.390069 -0.099123
v -0.096306 0.392065 -0.099091
v -0.096327 0.372382 -0.102609
v -0.096289 0.374681 -0.102415
v -0.096213 0.386828 -0.100396
v -0.096109 0.379564 -0.100948
v -0.096189 0.370347 -0.102554
v -0.096224 0.370372 -0.102729
v -0.096160 0.377156 -0.102112
v -0.096154 0.384629 -0.100803
v -0.096144 0.388600 -0.099442
v -0.096040 0.370348 -0.102452
v -0.095997 0.372326 -0.102117
v -0.096012 0.377038 -0.101403
v -0.096092 0.386719 -0.099820
v -0.096195 0.391168 -0.099360
v -0.096147 0.391112 -0.099136
v -0.096088 0.382219 -0.101236
v -0.096135 0.372427 -0.102789
v -0.096138 0.370414 -0.102930
v -0.096037 0.384527 -0.100241
v -0.096135 0.390184 -0.099597
v -0.096038 0.374714 -0.102523
v -0.095895 0.374604 -0.101833
v -0.096010 0.379698 -0.101679
v -0.095974 0.382122 -0.100689
v -0.096082 0.388699 -0.099907
v -0.096088 0.390135 -0.099377
v -0.095961 0.368763 -0.102813
v -0.095996 0.368782 -0.102983
v -0.095818 0.370373 -0.102451
v -0.096031 0.386810 -0.100275
v -0.095819 0.368774 -0.102713
v -0.095899 0.379607 -0.101146
v -0.096036 0.388656 -0.099692
v -0.095952 0.370463 -0.103104
v -0.095912 0.368827 -0.103177
v -0.095892 0.372463 -0.102892
v -0.095753 0.372362 -0.102221
v -0.095916 0.377167 -0.102114
v -0.095977 0.384612 -0.100686
v -0.095987 0.386771 -0.100065
v -0.095808 0.377081 -0.101595
v -0.095915 0.382203 -0.101122
v -0.095934 0.384575 -0.100480
v -0.095606 0.368812 -0.102710
v -0.095802 0.374728 -0.102524
v -0.095874 0.382168 -0.100921
v -0.095699 0.367691 -0.102977
v -0.095731 0.367706 -0.103142
v -0.095583 0.370415 -0.102551
v -0.095697 0.374647 -0.102019
v -0.095842 0.379684 -0.101567
v -0.095802 0.379651 -0.101372
v -0.095562 0.367708 -0.102879
v -0.095734 0.368885 -0.103344
v -0.095717 0.370505 -0.103203
v -0.095650 0.367748 -0.103330
v -0.095753 0.377156 -0.102005
v -0.095663 0.372481 -0.102893
v -0.095561 0.372407 -0.102401
v -0.095713 0.377124 -0.101815
v -0.095357 0.367751 -0.102875
v -0.095380 0.368868 -0.102804
v -0.095643 0.374719 -0.102418
v -0.095605 0.374689 -0.102233
v -0.095397 0.370464 -0.102725
v -0.095451 0.366568 -0.103127
v -0.095481 0.366581 -0.103282
v -0.095508 0.368941 -0.103439
v -0.095478 0.367807 -0.103492
v -0.095495 0.370530 -0.103202
v -0.095321 0.366578 -0.103037
v -0.095472 0.372449 -0.102609
v -0.095509 0.372476 -0.102789
v -0.095404 0.366614 -0.103459
v -0.095140 0.367810 -0.102966
v -0.095202 0.368926 -0.102971
v -0.095128 0.366608 -0.103034
v -0.095311 0.370506 -0.102926
v -0.095295 0.368979 -0.103435
v -0.095260 0.367865 -0.103582
v -0.095346 0.370530 -0.103101
v -0.095201 0.364581 -0.103366
v -0.095229 0.364593 -0.103509
v -0.095240 0.366656 -0.103611
v -0.095080 0.364583 -0.103282
v -0.095157 0.364619 -0.103675
v -0.095118 0.368971 -0.103165
v -0.094967 0.367868 -0.103127
v -0.094922 0.366649 -0.103121
v -0.095153 0.368990 -0.103335
v -0.094899 0.364601 -0.103281
v -0.095056 0.367909 -0.103578
v -0.095034 0.366698 -0.103698
v -0.095004 0.364649 -0.103817
v -0.094950 0.361883 -0.103673
v -0.094976 0.361895 -0.103806
v -0.094838 0.361884 -0.103596
v -0.094886 0.367910 -0.103315
v -0.094909 0.361917 -0.103959
v -0.094919 0.367925 -0.103480
v -0.094759 0.366692 -0.103273
v -0.094706 0.364629 -0.103363
v -0.094670 0.361896 -0.103595
v -0.094841 0.366728 -0.103695
v -0.094811 0.364677 -0.103899
v -0.094767 0.361942 -0.104092
v -0.094696 0.358650 -0.104029
v -0.094720 0.358661 -0.104151
v -0.094682 0.366724 -0.103450
v -0.094593 0.358650 -0.103958
v -0.094553 0.364659 -0.103505
v -0.094712 0.366737 -0.103605
v -0.094658 0.358680 -0.104292
v -0.094491 0.361918 -0.103671
v -0.094438 0.358660 -0.103957
v -0.094630 0.364695 -0.103898
v -0.094588 0.361964 -0.104167
v -0.094527 0.358701 -0.104414
v -0.094481 0.364684 -0.103670
v -0.094438 0.355048 -0.104413
v -0.094344 0.355047 -0.104349
v -0.094459 0.355058 -0.104525
v -0.094348 0.361943 -0.103803
v -0.094509 0.364697 -0.103814
v -0.094273 0.358678 -0.104027
v -0.094403 0.355074 -0.104654
v -0.094420 0.361977 -0.104167
v -0.094202 0.355056 -0.104348
v -0.094362 0.358720 -0.104484
v -0.094281 0.361965 -0.103957
v -0.094284 0.355093 -0.104765
v -0.094308 0.361977 -0.104090
v -0.094142 0.358700 -0.104149
v -0.094174 0.351241 -0.104807
v -0.094193 0.351249 -0.104908
v -0.094089 0.351240 -0.104749
v -0.094052 0.355072 -0.104412
v -0.094208 0.358730 -0.104483
v -0.094143 0.351263 -0.105025
v -0.094133 0.355109 -0.104829
v -0.093961 0.351248 -0.104749
v -0.094081 0.358719 -0.104290
v -0.094105 0.358730 -0.104412
v -0.094035 0.351280 -0.105125
v -0.093933 0.355091 -0.104523
v -0.093902 0.347392 -0.105191
v -0.093920 0.347400 -0.105282
v -0.093825 0.351262 -0.104806
v -0.093992 0.355118 -0.104828
v -0.093826 0.347393 -0.105139
v -0.093874 0.347412 -0.105386
v -0.093899 0.351294 -0.105183
v -0.093876 0.355107 -0.104652
v -0.093898 0.355117 -0.104764
v -0.093712 0.347400 -0.105139
v -0.093717 0.351279 -0.104907
v -0.093778 0.347427 -0.105476
v -0.093771 0.351302 -0.105183
v -0.093591 0.347413 -0.105190
v -0.093666 0.351293 -0.105023
v -0.093621 0.343668 -0.105546
v -0.093637 0.343673 -0.105626
v -0.093555 0.343668 -0.105500
v -0.093656 0.347440 -0.105527
v -0.093686 0.351302 -0.105124
v -0.093597 0.343684 -0.105717
v -0.093454 0.343676 -0.105500
v -0.093494 0.347428 -0.105280
v -0.093512 0.343697 -0.105796
v -0.093542 0.347447 -0.105527
v -0.093347 0.343688 -0.105545
v -0.093449 0.347440 -0.105384
v -0.093467 0.347448 -0.105475
v -0.093405 0.343709 -0.105842
v -0.093329 0.340230 -0.105852
v -0.093343 0.340234 -0.105921
v -0.093272 0.340231 -0.105812
v -0.093308 0.340243 -0.106000
v -0.093262 0.343701 -0.105624
v -0.093185 0.340239 -0.105812
v -0.093304 0.343717 -0.105842
v -0.093234 0.340255 -0.106069
v -0.093222 0.343712 -0.105716
v -0.093238 0.343717 -0.105796
v -0.093092 0.340250 -0.105851
v -0.093142 0.340266 -0.106108
v -0.093024 0.337242 -0.106090
v -0.093035 0.337245 -0.106148
v -0.093019 0.340261 -0.105919
v -0.092975 0.337245 -0.106056
v -0.093006 0.337252 -0.106215
v -0.093055 0.340273 -0.106108
v -0.092902 0.337253 -0.106056
v -0.092984 0.340271 -0.105999
v -0.092944 0.337263 -0.106273
v -0.092997 0.340275 -0.106068
v -0.092824 0.337264 -0.106089
v -0.092866 0.337273 -0.106306
v -0.092763 0.337274 -0.106146
v -0.092793 0.337281 -0.106306
v -0.092704 0.334868 -0.106240
v -0.092713 0.334869 -0.106288
v -0.092664 0.334874 -0.106213
v -0.092733 0.337282 -0.106213
v -0.092689 0.334875 -0.106342
v -0.092744 0.337284 -0.106272
v -0.092605 0.334883 -0.106212
v -0.092638 0.334884 -0.106390
v -0.092542 0.334894 -0.106239
v -0.092575 0.334895 -0.106416
v -0.092492 0.334904 -0.106286
v -0.092516 0.334905 -0.106416
v -0.092468 0.334910 -0.106341
v -0.092477 0.334910 -0.106388
v -0.092366 0.333271 -0.106284
v -0.092372 0.333269 -0.106321
v -0.092337 0.333280 -0.106262
v -0.092353 0.333273 -0.106363
v -0.092292 0.333293 -0.106262
v -0.092315 0.333282 -0.106399
v -0.092244 0.333305 -0.106283
v -0.092267 0.333295 -0.106420
v -0.092206 0.333315 -0.106319
v -0.092222 0.333307 -0.106419
v -0.092187 0.333319 -0.106361
v -0.092193 0.333316 -0.106398
v -0.121249 0.388667 -0.092998
v -0.121219 0.387024 -0.093745
v -0.121180 0.386963 -0.093600
v -0.121185 0.388747 -0.093179
v -0.121218 0.390241 -0.092275
v -0.121201 0.388602 -0.092850
v -0.121162 0.390322 -0.092466
v -0.121097 0.385240 -0.094358
v -0.121147 0.387100 -0.093917
v -0.121127 0.385297 -0.094501
v -0.121161 0.390174 -0.092126
v -0.121125 0.391761 -0.091594
v -0.121078 0.391841 -0.091795
v -0.121042 0.386933 -0.093520
v -0.121054 0.388569 -0.092777
v -0.120968 0.385214 -0.094273
v -0.121007 0.390395 -0.092648
v -0.121026 0.388820 -0.093346
v -0.121058 0.391693 -0.091443
v -0.121005 0.390138 -0.092059
v -0.120929 0.391910 -0.091993
v -0.121049 0.385369 -0.094664
v -0.120985 0.387171 -0.094070
v -0.120953 0.383420 -0.095107
v -0.120974 0.383471 -0.095248
v -0.120933 0.393318 -0.091184
v -0.120970 0.393242 -0.090972
v -0.120833 0.383397 -0.095017
v -0.120791 0.393381 -0.091400
v -0.120884 0.385436 -0.094804
v -0.120890 0.383537 -0.095402
v -0.120841 0.386942 -0.093528
v -0.120773 0.385224 -0.094269
v -0.120847 0.388577 -0.092796
v -0.120894 0.391654 -0.091383
v -0.120892 0.393175 -0.090819
v -0.120795 0.390439 -0.092771
v -0.120815 0.388866 -0.093453
v -0.120793 0.390143 -0.092091
v -0.120718 0.391951 -0.092135
v -0.120775 0.387218 -0.094162
v -0.120747 0.381487 -0.095830
v -0.120760 0.381533 -0.095968
v -0.120646 0.383409 -0.095003
v -0.120726 0.394767 -0.090650
v -0.120751 0.394699 -0.090427
v -0.120636 0.381469 -0.095736
v -0.120583 0.393414 -0.091560
v -0.120594 0.394819 -0.090884
v -0.120724 0.383600 -0.095529
v -0.120671 0.381592 -0.096114
v -0.120677 0.385481 -0.094882
v -0.120720 0.393133 -0.090767
v -0.120677 0.391655 -0.091430
v -0.120662 0.394634 -0.090272
v -0.120457 0.381481 -0.095713
v -0.120631 0.386988 -0.093620
v -0.120566 0.385269 -0.094347
v -0.120636 0.388623 -0.092904
v -0.120583 0.390444 -0.092804
v -0.120608 0.388873 -0.093473
v -0.120581 0.390188 -0.092215
v -0.120502 0.391952 -0.092182
v -0.120390 0.394842 -0.091064
v -0.120442 0.383452 -0.095068
v -0.120574 0.387227 -0.094170
v -0.120480 0.379428 -0.096510
v -0.120379 0.379413 -0.096414
v -0.120485 0.379467 -0.096645
v -0.120459 0.396196 -0.090213
v -0.120471 0.396134 -0.089979
v -0.120505 0.381650 -0.096229
v -0.120521 0.383644 -0.095594
v -0.120363 0.393409 -0.091622
v -0.120500 0.393128 -0.090829
v -0.120483 0.394589 -0.090229
v -0.120337 0.396241 -0.090462
v -0.120392 0.379520 -0.096783
v -0.120483 0.385492 -0.094878
v -0.120466 0.391696 -0.091571
v -0.120370 0.396072 -0.089824
v -0.120258 0.381522 -0.095765
v -0.120208 0.379427 -0.096382
v -0.120469 0.387059 -0.093773
v -0.120402 0.385337 -0.094486
v -0.120477 0.388696 -0.093070
v -0.120460 0.388840 -0.093399
v -0.120427 0.390408 -0.092737
v -0.120139 0.396256 -0.090661
v -0.120276 0.383515 -0.095195
v -0.120436 0.387197 -0.094090
v -0.120426 0.390260 -0.092397
v -0.120338 0.391913 -0.092122
v -0.120169 0.394830 -0.091142
v -0.120306 0.381691 -0.096281
v -0.120334 0.383655 -0.095580
v -0.120226 0.379573 -0.096886
v -0.120191 0.393368 -0.091570
v -0.120292 0.393162 -0.090990
v -0.120262 0.394576 -0.090307
v -0.120153 0.377226 -0.097131
v -0.120061 0.377216 -0.097033
v -0.120150 0.377259 -0.097263
v -0.120014 0.379465 -0.096423
v -0.120354 0.385465 -0.094793
v -0.120397 0.387135 -0.093945
v -0.120324 0.385408 -0.094650
v -0.120412 0.388775 -0.093252
v -0.120370 0.390341 -0.092588
v -0.120317 0.391765 -0.091769
v -0.120184 0.396025 -0.089789
v -0.119343 0.401655 -0.088821
v -0.119372 0.401598 -0.088586
v -0.119204 0.401692 -0.089064
v -0.120092 0.381580 -0.095880
v -0.120270 0.391845 -0.091971
v -0.120053 0.377306 -0.097391
v -0.120193 0.383581 -0.095349
v -0.119917 0.396238 -0.090755
v -0.119899 0.377231 -0.096993
v -0.120214 0.383632 -0.095490
v -0.119990 0.394785 -0.091099
v -0.119282 0.401536 -0.088422
v -0.120127 0.381704 -0.096258
v -0.120150 0.393225 -0.091205
v -0.120113 0.393300 -0.091417
v -0.118992 0.401700 -0.089250
v -0.120032 0.379611 -0.096927
v -0.120058 0.394599 -0.090487
v -0.119848 0.379518 -0.096526
v -0.120003 0.381640 -0.096026
v -0.119962 0.396006 -0.089883
v -0.119888 0.377353 -0.097483
v -0.119710 0.377268 -0.097023
v -0.120016 0.381685 -0.096165
v -0.119901 0.394719 -0.090944
v -0.119098 0.401487 -0.088373
v -0.119731 0.396191 -0.090720
v -0.119764 0.374869 -0.097676
v -0.119681 0.374862 -0.097576
v -0.119754 0.374897 -0.097802
v -0.119925 0.394652 -0.090720
v -0.118763 0.401676 -0.089330
v -0.119861 0.379625 -0.096895
v -0.119755 0.379571 -0.096663
v -0.119528 0.374878 -0.097530
v -0.119655 0.374939 -0.097921
v -0.119764 0.396021 -0.090082
v -0.119700 0.377390 -0.097513
v -0.119545 0.377315 -0.097115
v -0.119760 0.379610 -0.096798
v -0.119630 0.396128 -0.090564
v -0.118869 0.401463 -0.088453
v -0.119642 0.396066 -0.090331
v -0.118579 0.401626 -0.089281
v -0.119345 0.374912 -0.097550
v -0.119492 0.374982 -0.098002
v -0.119538 0.377405 -0.097473
v -0.119449 0.377362 -0.097243
v -0.119369 0.372667 -0.098129
v -0.119295 0.372661 -0.098033
v -0.119355 0.372692 -0.098246
v -0.119446 0.377395 -0.097375
v -0.118657 0.401471 -0.088639
v -0.118490 0.401565 -0.089117
v -0.119183 0.374956 -0.097630
v -0.119310 0.375016 -0.098021
v -0.119154 0.372675 -0.097985
v -0.119258 0.372730 -0.098354
v -0.118518 0.401508 -0.088883
v -0.119083 0.374997 -0.097749
v -0.119157 0.375032 -0.097975
v -0.118984 0.372707 -0.097997
v -0.119103 0.372770 -0.098422
v -0.119074 0.375025 -0.097876
v -0.118960 0.370405 -0.098590
v -0.118896 0.370398 -0.098499
v -0.118266 0.407331 -0.087305
v -0.118312 0.407275 -0.087071
v -0.118943 0.370428 -0.098698
v -0.118830 0.372746 -0.098066
v -0.118109 0.407367 -0.087539
v -0.118933 0.372801 -0.098434
v -0.118767 0.370410 -0.098449
v -0.118235 0.407213 -0.086900
v -0.118850 0.370463 -0.098794
v -0.117883 0.407372 -0.087711
v -0.118733 0.372784 -0.098173
v -0.118609 0.370438 -0.098454
v -0.118792 0.372815 -0.098386
v -0.118704 0.370499 -0.098852
v -0.118054 0.407162 -0.086838
v -0.118719 0.372809 -0.098290
v -0.118463 0.370474 -0.098513
v -0.117648 0.407346 -0.087774
v -0.118549 0.368081 -0.099053
v -0.118493 0.368074 -0.098967
v -0.118529 0.368103 -0.099151
v -0.118546 0.370526 -0.098857
v -0.118376 0.368084 -0.098917
v -0.117819 0.407136 -0.086902
v -0.118440 0.368134 -0.099236
v -0.118370 0.370508 -0.098608
v -0.118417 0.370538 -0.098807
v -0.118230 0.368108 -0.098916
v -0.117467 0.407296 -0.087712
v -0.118353 0.370532 -0.098716
v -0.118304 0.368165 -0.099285
v -0.117592 0.407142 -0.087073
v -0.118094 0.368139 -0.098965
v -0.117389 0.407234 -0.087541
v -0.118144 0.365696 -0.099512
v -0.118096 0.365689 -0.099432
v -0.118158 0.368189 -0.099284
v -0.118123 0.365716 -0.099601
v -0.117435 0.407178 -0.087307
v -0.117991 0.365696 -0.099383
v -0.118004 0.368170 -0.099050
v -0.118038 0.365742 -0.099676
v -0.118041 0.368199 -0.099234
v -0.117858 0.365716 -0.099377
v -0.117985 0.368191 -0.099148
v -0.117912 0.365769 -0.099716
v -0.117220 0.413140 -0.085698
v -0.117283 0.413085 -0.085466
v -0.117045 0.413173 -0.085922
v -0.117732 0.365742 -0.099417
v -0.117218 0.413023 -0.085289
v -0.117779 0.365789 -0.099710
v -0.117757 0.363247 -0.099962
v -0.117716 0.363240 -0.099888
v -0.117734 0.363264 -0.100042
v -0.116806 0.413175 -0.086078
v -0.117623 0.363245 -0.099840
v -0.117647 0.365769 -0.099492
v -0.117041 0.412970 -0.085214
v -0.117655 0.363287 -0.100107
v -0.117674 0.365795 -0.099661
v -0.117625 0.365788 -0.099581
v -0.117502 0.363261 -0.099831
v -0.117539 0.363309 -0.100139
v -0.116566 0.413146 -0.086125
v -0.117386 0.363282 -0.099863
v -0.116801 0.412941 -0.085261
v -0.117418 0.363324 -0.100129
v -0.117396 0.360734 -0.100397
v -0.117362 0.360727 -0.100330
v -0.117374 0.360749 -0.100468
v -0.117307 0.363305 -0.099927
v -0.117280 0.360730 -0.100284
v -0.117325 0.363329 -0.100081
v -0.117300 0.360767 -0.100523
v -0.117284 0.363322 -0.100007
v -0.116390 0.413093 -0.086050
v -0.117173 0.360742 -0.100272
v -0.116562 0.412943 -0.085417
v -0.117195 0.360784 -0.100548
v -0.117068 0.360759 -0.100296
v -0.116324 0.413031 -0.085873
v -0.116387 0.412976 -0.085641
v -0.117087 0.360795 -0.100536
v -0.117073 0.358155 -0.100811
v -0.117045 0.358149 -0.100750
v -0.116994 0.360777 -0.100352
v -0.117050 0.358167 -0.100873
v -0.116975 0.358150 -0.100707
v -0.117005 0.360798 -0.100490
v -0.116983 0.358181 -0.100919
v -0.116971 0.360791 -0.100423
v -0.116880 0.358158 -0.100693
v -0.116277 0.418936 -0.083804
v -0.116196 0.418989 -0.084033
v -0.116224 0.418873 -0.083622
v -0.116005 0.419018 -0.084245
v -0.116890 0.358194 -0.100938
v -0.116786 0.358171 -0.100712
v -0.116795 0.358202 -0.100924
v -0.116775 0.355505 -0.101145
v -0.116797 0.355510 -0.101198
v -0.116719 0.358185 -0.100759
v -0.116715 0.355504 -0.101105
v -0.116775 0.355519 -0.101251
v -0.116054 0.418818 -0.083534
v -0.115754 0.419016 -0.084386
v -0.116724 0.358203 -0.100881
v -0.116697 0.358196 -0.100820
v -0.116633 0.355509 -0.101090
v -0.116715 0.355529 -0.101289
v -0.116551 0.355517 -0.101104
v -0.116633 0.355538 -0.101303
v -0.116560 0.352792 -0.101507
v -0.116577 0.352797 -0.101553
v -0.116492 0.355528 -0.101142
v -0.116552 0.355542 -0.101288
v -0.115810 0.418784 -0.083564
v -0.115511 0.418982 -0.084416
v -0.116511 0.352791 -0.101472
v -0.116557 0.352803 -0.101597
v -0.116443 0.352793 -0.101457
v -0.116505 0.352810 -0.101628
v -0.116470 0.355537 -0.101195
v -0.116492 0.355542 -0.101248
v -0.116373 0.352798 -0.101466
v -0.116436 0.352815 -0.101637
v -0.116413 0.350011 -0.101832
v -0.116425 0.350015 -0.101870
v -0.116374 0.350009 -0.101802
v -0.116407 0.350019 -0.101905
v -0.116321 0.352805 -0.101497
v -0.116367 0.352817 -0.101622
v -0.115559 0.418782 -0.083705
v -0.115340 0.418927 -0.084328
v -0.116318 0.350009 -0.101788
v -0.116364 0.350023 -0.101929
v -0.116301 0.352811 -0.101541
v -0.116318 0.352816 -0.101586
v -0.116261 0.350012 -0.101793
v -0.116307 0.350025 -0.101934
v -0.116351 0.347163 -0.102142
v -0.116342 0.347160 -0.102113
v -0.116336 0.347165 -0.102169
v -0.116313 0.347158 -0.102088
v -0.115368 0.418811 -0.083918
v -0.115288 0.418864 -0.084146
v -0.116358 0.344239 -0.102344
v -0.116327 0.344241 -0.102395
v -0.116296 0.344240 -0.102396
v -0.116257 0.347167 -0.102189
v -0.116338 0.344237 -0.102326
v -0.116266 0.344239 -0.102386
v -0.116214 0.347166 -0.102177
v -0.116363 0.344240 -0.102365
v -0.116352 0.344241 -0.102384
v -0.116301 0.347167 -0.102186
v -0.116308 0.344235 -0.102316
v -0.116270 0.347157 -0.102076
v -0.116246 0.344237 -0.102368
v -0.116276 0.344234 -0.102317
v -0.116226 0.347157 -0.102078
v -0.116251 0.350025 -0.101920
v -0.116212 0.350023 -0.101890
v -0.116200 0.350020 -0.101852
v -0.116218 0.350016 -0.101816
v -0.116185 0.347164 -0.102152
v -0.116240 0.344235 -0.102347
v -0.116177 0.347161 -0.102123
v -0.116252 0.344234 -0.102328
v -0.116191 0.347159 -0.102096
v -0.115286 0.424734 -0.082118
v -0.115189 0.424785 -0.082342
v -0.115247 0.424672 -0.081931
v -0.114982 0.424809 -0.082543
v -0.115083 0.424613 -0.081831
v -0.114721 0.424800 -0.082667
v -0.114837 0.424574 -0.081845
v -0.114475 0.424762 -0.082681
v -0.114576 0.424566 -0.081969
v -0.114311 0.424703 -0.082581
v -0.114369 0.424590 -0.082170
v -0.114272 0.424640 -0.082394
v -0.114304 0.430388 -0.080442
v -0.114191 0.430435 -0.080661
v -0.114279 0.430326 -0.080251
v -0.113970 0.430453 -0.080849
v -0.114122 0.430263 -0.080140
v -0.113699 0.430437 -0.080956
v -0.113876 0.430218 -0.080137
v -0.113453 0.430392 -0.080953
v -0.113606 0.430203 -0.080244
v -0.113296 0.430330 -0.080841
v -0.113384 0.430221 -0.080432
v -0.113271 0.430267 -0.080651
v -0.113324 0.435805 -0.078808
v -0.113195 0.435847 -0.079021
v -0.113313 0.435743 -0.078615
v -0.112960 0.435857 -0.079195
v -0.113165 0.435677 -0.078493
v -0.112682 0.435833 -0.079285
v -0.112919 0.435625 -0.078474
v -0.112437 0.435780 -0.079266
v -0.112641 0.435600 -0.078563
v -0.112288 0.435714 -0.079144
v -0.112407 0.435610 -0.078738
v -0.112337 0.440894 -0.077251
v -0.112193 0.440929 -0.077456
v -0.112340 0.440832 -0.077055
v -0.112277 0.435652 -0.078950
v -0.111946 0.440929 -0.077616
v -0.112202 0.440762 -0.076923
v -0.111663 0.440894 -0.077689
v -0.111958 0.440701 -0.076888
v -0.111420 0.440833 -0.077654
v -0.111675 0.440666 -0.076960
v -0.111281 0.440762 -0.077521
v -0.111428 0.440666 -0.077121
v -0.111337 0.445561 -0.075802
v -0.111355 0.445502 -0.075605
v -0.111179 0.445588 -0.075999
v -0.111284 0.440701 -0.077326
v -0.111226 0.445427 -0.075463
v -0.110922 0.445576 -0.076146
v -0.110987 0.445356 -0.075413
v -0.110635 0.445528 -0.076201
v -0.110700 0.445307 -0.075469
v -0.110395 0.445456 -0.076151
v -0.110443 0.445295 -0.075615
v -0.110267 0.445381 -0.076009
v -0.110315 0.449718 -0.074494
v -0.110347 0.449662 -0.074297
v -0.110144 0.449734 -0.074684
v -0.110285 0.445322 -0.075813
v -0.110231 0.449581 -0.074146
v -0.109879 0.449705 -0.074816
v -0.109997 0.449497 -0.074082
v -0.109591 0.449640 -0.074856
v -0.109709 0.449432 -0.074122
v -0.109358 0.449556 -0.074791
v -0.109444 0.449404 -0.074254
v -0.109242 0.449475 -0.074641
v -0.109263 0.453275 -0.073359
v -0.109308 0.453225 -0.073163
v -0.109081 0.453275 -0.073542
v -0.109273 0.449419 -0.074444
v -0.109205 0.453137 -0.073005
v -0.108812 0.453224 -0.073662
v -0.108981 0.453036 -0.072928
v -0.108527 0.453136 -0.073687
v -0.108696 0.452948 -0.072953
v -0.108302 0.453035 -0.073610
v -0.108426 0.452897 -0.073073
v -0.108199 0.452947 -0.073452
v -0.108173 0.456133 -0.072434
v -0.108231 0.456091 -0.072238
v -0.108244 0.452897 -0.073256
v -0.107984 0.456112 -0.072610
v -0.108141 0.455999 -0.072073
v -0.107714 0.456035 -0.072718
v -0.107929 0.455880 -0.071984
v -0.107435 0.455923 -0.072729
v -0.107650 0.455767 -0.071994
v -0.107222 0.455804 -0.072640
v -0.107379 0.455691 -0.072102
v -0.107132 0.455712 -0.072475
v -0.107190 0.455670 -0.072278
v -0.106706 0.459400 -0.071357
v -0.106760 0.459361 -0.071154
v -0.106518 0.459372 -0.071543
v -0.106666 0.459265 -0.070986
v -0.106247 0.459284 -0.071661
v -0.106449 0.459138 -0.070901
v -0.105966 0.459159 -0.071680
v -0.106167 0.459014 -0.070920
v -0.105749 0.459032 -0.071595
v -0.105897 0.458925 -0.071038
v -0.105655 0.458936 -0.071428
v -0.105709 0.458897 -0.071224
v -0.105343 0.462324 -0.070474
v -0.105393 0.462287 -0.070263
v -0.105156 0.462290 -0.070669
v -0.105293 0.462190 -0.070093
v -0.104884 0.462194 -0.070796
v -0.105071 0.462058 -0.070010
v -0.104598 0.462063 -0.070821
v -0.104785 0.461926 -0.070036
v -0.104375 0.461931 -0.070738
v -0.104512 0.461831 -0.070163
v -0.104276 0.461833 -0.070568
v -0.104326 0.461797 -0.070358
v -0.104053 0.464938 -0.069740
v -0.104099 0.464903 -0.069523
v -0.103869 0.464897 -0.069944
v -0.103995 0.464802 -0.069352
v -0.103595 0.464793 -0.070081
v -0.103768 0.464662 -0.069272
v -0.103307 0.464651 -0.070114
v -0.103480 0.464521 -0.069304
v -0.103080 0.464512 -0.070034
v -0.103206 0.464417 -0.069441
v -0.102976 0.464411 -0.069863
v -0.103022 0.464376 -0.069646
v -0.102812 0.467264 -0.069118
v -0.102855 0.467230 -0.068895
v -0.102630 0.467217 -0.069331
v -0.102747 0.467123 -0.068722
v -0.102358 0.467101 -0.069478
v -0.102518 0.466972 -0.068646
v -0.102069 0.466947 -0.069520
v -0.102229 0.466818 -0.068687
v -0.101839 0.466797 -0.069444
v -0.101957 0.466702 -0.068835
v -0.101732 0.466690 -0.069271
v -0.101775 0.466655 -0.069048
v -0.101594 0.469325 -0.068566
v -0.101634 0.469288 -0.068338
v -0.101415 0.469272 -0.068790
v -0.101525 0.469172 -0.068166
v -0.101146 0.469143 -0.068948
v -0.101297 0.469007 -0.068095
v -0.100858 0.468973 -0.068998
v -0.101009 0.468837 -0.068146
v -0.100630 0.468807 -0.068928
v -0.100740 0.468708 -0.068304
v -0.100521 0.468691 -0.068756
v -0.100561 0.468654 -0.068527
v -0.100372 0.471141 -0.068047
v -0.100412 0.471100 -0.067814
v -0.100196 0.471082 -0.068280
v -0.100305 0.470969 -0.067643
v -0.099932 0.470939 -0.068450
v -0.100081 0.470785 -0.067580
v -0.099650 0.470750 -0.068511
v -0.099799 0.470596 -0.067642
v -0.099426 0.470565 -0.068448
v -0.099535 0.470452 -0.067812
v -0.099320 0.470435 -0.068277
v -0.099360 0.470394 -0.068044
v -0.099121 0.472732 -0.067520
v -0.099164 0.472682 -0.067284
v -0.098949 0.472669 -0.067762
v -0.099064 0.472533 -0.067117
v -0.098691 0.472512 -0.067944
v -0.098849 0.472326 -0.067063
v -0.098419 0.472301 -0.068018
v -0.098576 0.472116 -0.067137
v -0.098204 0.472094 -0.067964
v -0.098319 0.471958 -0.067319
v -0.098104 0.471946 -0.067797
v -0.098146 0.471896 -0.067561
v -0.097818 0.474115 -0.066945
v -0.097867 0.474053 -0.066708
v -0.097646 0.474052 -0.067195
v -0.097779 0.473883 -0.066546
v -0.097397 0.473881 -0.067391
v -0.097578 0.473651 -0.066505
v -0.097137 0.473649 -0.067480
v -0.097318 0.473418 -0.066593
v -0.096936 0.473417 -0.067438
v -0.097069 0.473248 -0.066789
v -0.096848 0.473247 -0.067277
v -0.096897 0.473185 -0.067039
v -0.096441 0.475306 -0.066283
v -0.096500 0.475229 -0.066047
v -0.096267 0.475245 -0.066541
v -0.096428 0.475037 -0.065895
v -0.096025 0.475065 -0.066750
v -0.096246 0.474781 -0.065868
v -0.095780 0.474813 -0.066855
v -0.096001 0.474528 -0.065973
v -0.095597 0.474556 -0.066828
v -0.095759 0.474348 -0.066183
v -0.095526 0.474364 -0.066676
v -0.095585 0.474288 -0.066440
v -0.095043 0.476230 -0.065265
v -0.094969 0.476321 -0.065497
v -0.094991 0.476016 -0.065125
v -0.094790 0.476266 -0.065760
v -0.094554 0.476080 -0.065982
v -0.094828 0.475738 -0.065115
v -0.094323 0.475811 -0.066105
v -0.094597 0.475470 -0.065238
v -0.094160 0.475533 -0.066095
v -0.094361 0.475284 -0.065460
v -0.094108 0.475320 -0.065955
v -0.094182 0.475229 -0.065722
v -0.093475 0.477074 -0.064324
v -0.093385 0.477180 -0.064550
v -0.093444 0.476843 -0.064198
v -0.093197 0.477132 -0.064816
v -0.093299 0.476548 -0.064206
v -0.092962 0.476943 -0.065050
v -0.093080 0.476268 -0.064346
v -0.092743 0.476663 -0.065190
v -0.092845 0.476079 -0.064580
v -0.092598 0.476368 -0.065197
v -0.092657 0.476031 -0.064845
v -0.092567 0.476137 -0.065071
v -0.091806 0.477772 -0.063208
v -0.091702 0.477889 -0.063429
v -0.091781 0.477530 -0.063089
v -0.091498 0.477851 -0.063692
v -0.091634 0.477229 -0.063103
v -0.091247 0.477668 -0.063926
v -0.091404 0.476950 -0.063247
v -0.091017 0.477389 -0.064070
v -0.091153 0.476767 -0.063482
v -0.090870 0.477088 -0.064084
v -0.090949 0.476729 -0.063745
v -0.090845 0.476846 -0.063965
v -0.090124 0.478621 -0.061838
v -0.090017 0.478758 -0.062063
v -0.090076 0.478370 -0.061712
v -0.089785 0.478745 -0.062328
v -0.089886 0.478073 -0.061720
v -0.089489 0.478584 -0.062562
v -0.089606 0.477808 -0.061859
v -0.089209 0.478320 -0.062701
v -0.089310 0.477648 -0.062092
v -0.089019 0.478023 -0.062709
v -0.089078 0.477635 -0.062358
v -0.088971 0.477772 -0.062583
v -0.088452 0.479886 -0.060213
v -0.088351 0.480040 -0.060449
v -0.088374 0.479633 -0.060074
v -0.088096 0.480053 -0.060717
v -0.088137 0.479349 -0.060069
v -0.087757 0.479923 -0.060947
v -0.087804 0.479110 -0.060199
v -0.087424 0.479683 -0.061077
v -0.087465 0.478979 -0.060429
v -0.087187 0.479399 -0.061071
v -0.087211 0.478992 -0.060697
v -0.087109 0.479146 -0.060933
v -0.086799 0.481514 -0.058379
v -0.086705 0.481683 -0.058625
v -0.086693 0.481260 -0.058229
v -0.086436 0.481721 -0.058902
v -0.086416 0.480989 -0.058217
v -0.086065 0.481619 -0.059136
v -0.086042 0.480773 -0.058344
v -0.085691 0.481404 -0.059263
v -0.085671 0.480671 -0.058578
v -0.085414 0.481133 -0.059251
v -0.085402 0.480710 -0.058855
v -0.085308 0.480879 -0.059101
v -0.085117 0.483615 -0.056662
v -0.085201 0.483432 -0.056404
v -0.084840 0.483677 -0.056951
v -0.085069 0.483178 -0.056246
v -0.084443 0.483603 -0.057194
v -0.084756 0.482920 -0.056230
v -0.084034 0.483411 -0.057325
v -0.084347 0.482728 -0.056362
v -0.083721 0.483153 -0.057309
v -0.083950 0.482653 -0.056604
v -0.083589 0.482899 -0.057151
v -0.083673 0.482716 -0.056893
v -0.083619 0.485763 -0.054628
v -0.083691 0.485567 -0.054358
v -0.083337 0.485848 -0.054932
v -0.083532 0.485314 -0.054192
v -0.082921 0.485800 -0.055187
v -0.083187 0.485071 -0.054177
v -0.082480 0.485632 -0.055325
v -0.082746 0.484902 -0.054315
v -0.082135 0.485389 -0.055310
v -0.082330 0.484854 -0.054570
v -0.081976 0.485135 -0.055145
v -0.082243 0.488053 -0.052592
v -0.082299 0.487847 -0.052307
v -0.082048 0.484940 -0.054874
v -0.081960 0.488160 -0.052912
v -0.082114 0.487597 -0.052136
v -0.081526 0.488139 -0.053182
v -0.081737 0.487369 -0.052122
v -0.081058 0.487995 -0.053331
v -0.081269 0.487225 -0.052271
v -0.080681 0.487768 -0.053317
v -0.080836 0.487204 -0.052541
v -0.081017 0.490413 -0.050619
v -0.081056 0.490198 -0.050321
v -0.080736 0.490541 -0.050958
v -0.080496 0.487517 -0.053146
v -0.080844 0.489954 -0.050142
v -0.080553 0.487311 -0.052862
v -0.080289 0.490546 -0.051246
v -0.080437 0.489745 -0.050132
v -0.079795 0.490429 -0.051407
v -0.079943 0.489627 -0.050293
v -0.079388 0.490219 -0.051396
v -0.079971 0.492769 -0.048778
v -0.079991 0.492549 -0.048464
v -0.079695 0.492914 -0.049137
v -0.079496 0.489632 -0.050581
v -0.079750 0.492314 -0.048279
v -0.079238 0.492947 -0.049445
v -0.079176 0.489974 -0.051218
v -0.079215 0.489760 -0.050920
v -0.079313 0.492127 -0.048272
v -0.078721 0.492858 -0.049619
v -0.079134 0.495044 -0.047136
v -0.079132 0.494825 -0.046804
v -0.078867 0.495205 -0.047518
v -0.078797 0.492038 -0.048446
v -0.078284 0.492670 -0.049613
v -0.078862 0.494607 -0.046610
v -0.078402 0.495265 -0.047847
v -0.078339 0.492070 -0.048754
v -0.078043 0.492436 -0.049428
v -0.078395 0.494447 -0.046606
v -0.077864 0.495208 -0.048035
v -0.078063 0.492216 -0.049113
v -0.078536 0.497162 -0.045761
v -0.078509 0.496954 -0.045406
v -0.078281 0.497332 -0.046169
v -0.078207 0.496763 -0.045200
v -0.077811 0.497419 -0.046522
v -0.077857 0.494390 -0.046795
v -0.077398 0.495048 -0.048032
v -0.078202 0.499036 -0.044722
v -0.077962 0.499204 -0.045162
v -0.078147 0.498859 -0.044338
v -0.077710 0.496642 -0.045198
v -0.077254 0.497400 -0.046724
v -0.077392 0.494450 -0.047124
v -0.077127 0.494830 -0.047838
v -0.077493 0.499317 -0.045541
v -0.077813 0.498719 -0.044113
v -0.078151 0.500578 -0.044080
v -0.077928 0.500718 -0.044558
v -0.078072 0.500468 -0.043661
v -0.075972 0.500919 -0.044936
v -0.076333 0.500968 -0.045184
v -0.077125 0.494611 -0.047506
v -0.077712 0.500419 -0.043412
v -0.075893 0.500809 -0.044516
v -0.077462 0.500852 -0.044966
v -0.076878 0.500944 -0.045195
v -0.077153 0.496622 -0.045400
v -0.076758 0.497278 -0.046722
v -0.076919 0.499345 -0.045756
v -0.077288 0.498655 -0.044107
v -0.077166 0.500443 -0.043401
v -0.076116 0.500669 -0.044038
v -0.076684 0.496709 -0.045752
v -0.076456 0.497088 -0.046515
v -0.076714 0.498684 -0.044322
v -0.076394 0.499281 -0.045750
v -0.076582 0.500535 -0.043630
v -0.076429 0.496880 -0.046161
v -0.076060 0.499141 -0.045525
v -0.076245 0.498797 -0.044700
v -0.076005 0.498964 -0.045140
usemtl Medial_sural_cutaneous_nerve_rMaterial0
f 1 2 3
f 2 4 3
f 5 6 2
f 6 7 2
f 5 2 1
f 2 7 4
f 1 3 8
f 8 3 9
f 3 10 9
f 3 4 10
f 11 6 5
f 6 12 7
f 13 12 6
f 11 13 6
f 14 1 8
f 15 5 1
f 15 1 14
f 8 9 16
f 17 8 16
f 14 8 17
f 18 11 5
f 18 5 15
f 16 9 19
f 9 10 20
f 9 20 19
f 7 21 4
f 12 22 7
f 7 22 21
f 4 23 10
f 4 21 23
f 13 24 12
f 25 13 11
f 26 24 13
f 25 26 13
f 16 19 27
f 28 16 27
f 17 16 28
f 24 29 12
f 12 29 22
f 30 25 11
f 30 11 18
f 10 31 20
f 10 23 31
f 27 19 32
f 19 20 33
f 19 33 32
f 26 34 24
f 24 35 29
f 34 35 24
f 27 32 36
f 28 27 37
f 37 27 36
f 38 26 25
f 39 34 26
f 38 39 26
f 40 14 17
f 41 15 14
f 41 14 40
f 42 17 28
f 40 17 42
f 43 38 25
f 43 25 30
f 44 18 15
f 44 15 41
f 22 45 21
f 29 46 22
f 22 46 45
f 20 47 33
f 20 31 47
f 21 48 23
f 21 45 48
f 36 32 49
f 32 50 49
f 32 33 50
f 51 28 37
f 42 28 51
f 35 52 29
f 29 52 46
f 39 53 34
f 34 54 35
f 53 54 34
f 36 49 55
f 56 36 55
f 37 36 56
f 57 39 38
f 58 53 39
f 57 58 39
f 59 30 18
f 59 18 44
f 60 57 38
f 60 38 43
f 23 61 31
f 23 48 61
f 55 49 62
f 49 63 62
f 49 50 63
f 33 64 50
f 33 47 64
f 54 65 35
f 35 65 52
f 66 62 58
f 62 67 58
f 58 67 53
f 66 58 57
f 55 62 66
f 68 55 66
f 56 55 68
f 69 37 56
f 51 37 69
f 62 63 67
f 67 70 53
f 53 70 54
f 71 66 57
f 71 57 60
f 68 66 71
f 72 43 30
f 72 30 59
f 31 73 47
f 31 61 73
f 50 74 63
f 50 64 74
f 63 75 67
f 67 75 70
f 76 56 68
f 69 56 76
f 70 77 54
f 54 77 65
f 63 74 75
f 46 78 45
f 52 79 46
f 46 79 78
f 45 80 48
f 45 78 80
f 81 60 43
f 81 43 72
f 65 82 52
f 52 82 79
f 47 83 64
f 47 73 83
f 84 68 71
f 76 68 84
f 85 71 60
f 85 60 81
f 86 40 42
f 87 41 40
f 87 40 86
f 48 88 61
f 48 80 88
f 75 89 70
f 70 89 77
f 84 71 85
f 90 42 51
f 86 42 90
f 91 44 41
f 91 41 87
f 77 92 65
f 65 92 82
f 64 93 74
f 64 83 93
f 74 94 75
f 75 94 89
f 95 51 69
f 90 51 95
f 74 93 94
f 61 96 73
f 61 88 96
f 97 59 44
f 97 44 91
f 89 98 77
f 77 98 92
f 99 69 76
f 95 69 99
f 79 100 78
f 82 101 79
f 79 101 100
f 78 102 80
f 78 100 102
f 103 72 59
f 103 59 97
f 73 104 83
f 73 96 104
f 92 105 82
f 82 105 101
f 94 106 89
f 89 106 98
f 107 76 84
f 99 76 107
f 80 108 88
f 80 102 108
f 109 81 72
f 109 72 103
f 83 110 93
f 83 104 110
f 98 111 92
f 92 111 105
f 93 112 94
f 94 112 106
f 113 84 85
f 107 84 113
f 93 110 112
f 114 85 81
f 114 81 109
f 113 85 114
f 88 115 96
f 88 108 115
f 106 116 98
f 98 116 111
f 101 117 100
f 105 118 101
f 101 118 117
f 100 119 102
f 100 117 119
f 111 120 105
f 105 120 118
f 96 121 104
f 96 115 121
f 122 123 124
f 125 123 122
f 123 126 124
f 123 127 126
f 128 127 123
f 125 128 123
f 122 124 129
f 130 122 129
f 131 125 122
f 131 122 130
f 112 132 106
f 106 132 116
f 129 124 133
f 124 126 134
f 124 134 133
f 102 135 108
f 102 119 135
f 127 136 126
f 128 137 127
f 137 138 127
f 127 138 136
f 130 129 139
f 139 129 140
f 129 133 140
f 126 136 141
f 126 141 134
f 142 128 125
f 143 137 128
f 142 143 128
f 144 125 131
f 144 142 125
f 116 145 111
f 111 145 120
f 104 146 110
f 104 121 146
f 109 86 90
f 103 87 86
f 103 86 109
f 147 130 139
f 148 131 130
f 148 130 147
f 110 149 112
f 112 149 132
f 114 90 95
f 109 90 114
f 137 150 138
f 151 150 137
f 143 151 137
f 139 140 152
f 147 139 153
f 153 139 152
f 110 146 149
f 97 91 87
f 97 87 103
f 138 154 136
f 150 155 138
f 138 155 154
f 140 133 156
f 133 134 157
f 133 157 156
f 136 154 158
f 136 158 141
f 152 140 159
f 140 156 159
f 160 131 148
f 160 144 131
f 108 161 115
f 108 135 161
f 113 95 99
f 114 95 113
f 162 147 153
f 163 148 147
f 163 147 162
f 150 164 155
f 151 165 150
f 165 164 150
f 134 141 166
f 134 166 157
f 153 152 167
f 162 153 168
f 168 153 167
f 169 143 142
f 170 151 143
f 169 170 143
f 118 171 117
f 120 172 118
f 118 172 171
f 173 142 144
f 173 169 142
f 132 174 116
f 116 174 145
f 117 175 119
f 117 171 175
f 167 152 176
f 152 159 176
f 177 148 163
f 177 160 148
f 178 162 168
f 179 163 162
f 179 162 178
f 155 180 154
f 164 181 155
f 155 181 180
f 182 165 151
f 170 182 151
f 145 183 120
f 120 183 172
f 154 180 184
f 154 184 158
f 141 158 185
f 141 185 166
f 168 167 186
f 178 168 187
f 187 168 186
f 113 99 107
f 165 188 164
f 164 189 181
f 188 189 164
f 159 156 190
f 156 157 191
f 156 191 190
f 192 144 160
f 192 173 144
f 186 167 193
f 167 176 193
f 194 163 179
f 194 177 163
f 195 178 187
f 196 179 178
f 196 178 195
f 119 197 135
f 119 175 197
f 115 198 121
f 115 161 198
f 182 199 165
f 199 188 165
f 176 159 200
f 159 190 200
f 187 186 201
f 195 187 202
f 202 187 201
f 149 203 132
f 132 203 174
f 157 166 204
f 157 204 191
f 205 160 177
f 205 192 160
f 201 186 206
f 186 193 206
f 207 179 196
f 207 194 179
f 208 195 202
f 209 196 195
f 209 195 208
f 145 210 183
f 174 210 145
f 181 211 180
f 180 212 184
f 180 211 212
f 189 213 181
f 181 213 211
f 158 184 214
f 158 214 185
f 215 170 169
f 216 182 170
f 215 216 170
f 217 169 173
f 217 215 169
f 193 176 218
f 176 200 218
f 208 202 219
f 202 201 220
f 219 202 220
f 221 196 209
f 221 207 196
f 222 208 219
f 223 209 208
f 223 208 222
f 172 224 171
f 183 225 172
f 172 225 224
f 121 226 146
f 121 198 226
f 227 199 182
f 216 227 182
f 166 185 228
f 166 228 204
f 229 177 194
f 229 205 177
f 220 201 230
f 201 206 230
f 222 219 231
f 231 219 232
f 219 220 232
f 171 224 233
f 171 233 175
f 146 234 149
f 149 234 203
f 188 235 189
f 189 236 213
f 235 236 189
f 199 237 188
f 237 235 188
f 238 173 192
f 238 217 173
f 206 193 239
f 193 218 239
f 240 209 223
f 240 221 209
f 241 222 231
f 241 231 242
f 242 231 243
f 231 232 243
f 244 222 241
f 244 223 222
f 183 245 225
f 210 245 183
f 135 246 161
f 135 197 246
f 146 226 234
f 247 241 242
f 248 241 247
f 248 244 241
f 227 249 199
f 249 237 199
f 200 190 250
f 190 191 251
f 190 251 250
f 218 200 252
f 200 250 252
f 253 194 207
f 253 229 194
f 232 220 254
f 220 230 254
f 255 223 244
f 255 240 223
f 247 242 256
f 256 242 257
f 242 243 257
f 258 247 256
f 259 247 258
f 259 248 247
f 225 260 261
f 245 260 225
f 225 261 224
f 174 262 210
f 203 262 174
f 260 258 263
f 264 258 260
f 258 256 263
f 264 259 258
f 260 263 261
f 245 264 260
f 213 265 211
f 236 266 213
f 213 266 265
f 184 212 267
f 184 267 214
f 185 214 268
f 185 268 228
f 191 204 269
f 191 269 251
f 270 216 215
f 271 227 216
f 270 271 216
f 272 192 205
f 272 238 192
f 230 206 273
f 206 239 273
f 274 207 221
f 274 253 207
f 243 232 275
f 232 254 275
f 276 244 248
f 276 255 244
f 263 256 277
f 256 257 277
f 261 263 278
f 263 277 278
f 224 261 279
f 261 278 279
f 224 279 233
f 175 233 280
f 175 280 197
f 281 215 217
f 281 270 215
f 282 248 259
f 282 276 248
f 283 264 245
f 210 283 245
f 211 284 212
f 211 265 284
f 218 252 285
f 239 218 285
f 257 243 286
f 243 275 286
f 287 259 264
f 287 282 259
f 283 287 264
f 262 283 210
f 235 288 236
f 237 289 235
f 289 288 235
f 290 249 227
f 271 290 227
f 254 230 291
f 230 273 291
f 292 221 240
f 292 274 221
f 161 293 198
f 161 246 293
f 236 294 266
f 288 294 236
f 204 228 295
f 204 295 269
f 296 205 229
f 296 272 205
f 277 257 297
f 257 286 297
f 249 298 237
f 298 289 237
f 252 250 299
f 250 251 300
f 250 300 299
f 252 299 301
f 285 252 301
f 302 217 238
f 302 281 217
f 239 285 303
f 273 239 303
f 275 254 304
f 254 291 304
f 305 240 255
f 305 292 240
f 278 277 306
f 277 297 306
f 279 278 307
f 278 306 307
f 233 279 308
f 279 307 308
f 233 308 280
f 203 309 262
f 234 309 203
f 266 310 265
f 294 311 266
f 266 311 310
f 212 284 312
f 212 312 267
f 214 267 313
f 214 313 268
f 290 314 249
f 314 298 249
f 251 315 300
f 251 269 315
f 299 290 271
f 299 300 290
f 300 314 290
f 301 299 271
f 301 271 270
f 316 301 270
f 285 301 316
f 316 270 281
f 303 285 316
f 317 238 272
f 317 302 238
f 291 273 318
f 273 303 318
f 319 229 253
f 319 296 229
f 320 253 274
f 320 319 253
f 286 275 321
f 275 304 321
f 322 255 276
f 322 305 255
f 323 276 282
f 323 322 276
f 324 282 287
f 324 323 282
f 325 287 283
f 325 324 287
f 262 325 283
f 197 280 326
f 197 326 246
f 198 327 226
f 198 293 327
f 309 325 262
f 265 328 284
f 265 310 328
f 228 268 329
f 228 329 295
f 300 315 314
f 297 286 330
f 286 321 330
f 226 331 234
f 234 331 309
f 289 332 288
f 288 333 294
f 332 333 288
f 298 334 289
f 334 332 289
f 269 335 315
f 269 295 335
f 336 316 281
f 336 281 302
f 337 272 296
f 337 317 272
f 304 291 338
f 291 318 338
f 339 274 292
f 339 320 274
f 306 297 340
f 297 330 340
f 280 308 341
f 280 341 326
f 226 327 331
f 294 342 311
f 333 342 294
f 314 343 298
f 343 334 298
f 315 343 314
f 303 316 336
f 318 303 336
f 344 292 305
f 344 339 292
f 307 306 345
f 306 340 345
f 308 307 346
f 307 345 346
f 308 346 341
f 315 335 343
f 347 336 302
f 347 302 317
f 348 296 319
f 348 337 296
f 321 304 349
f 304 338 349
f 350 305 322
f 350 344 305
f 351 324 325
f 309 351 325
f 246 326 352
f 246 352 293
f 318 336 347
f 338 318 347
f 353 322 323
f 353 350 322
f 354 323 324
f 354 353 323
f 351 354 324
f 284 328 355
f 284 355 312
f 267 312 356
f 267 356 313
f 330 321 357
f 321 349 357
f 331 351 309
f 311 358 310
f 342 359 311
f 311 359 358
f 268 360 329
f 268 313 360
f 295 361 335
f 295 329 361
f 362 347 317
f 362 317 337
f 363 319 320
f 363 348 319
f 338 347 362
f 349 338 362
f 340 330 364
f 330 357 364
f 310 365 328
f 310 358 365
f 343 366 334
f 335 366 343
f 333 367 342
f 332 368 333
f 368 367 333
f 369 320 339
f 369 363 320
f 345 340 370
f 340 364 370
f 326 341 371
f 326 371 352
f 342 372 359
f 367 372 342
f 334 373 332
f 373 368 332
f 366 373 334
f 335 361 366
f 374 362 337
f 374 337 348
f 349 362 374
f 357 349 374
f 375 339 344
f 375 369 339
f 346 345 376
f 345 370 376
f 341 346 377
f 346 376 377
f 341 377 371
f 293 378 327
f 293 352 378
f 331 379 351
f 327 379 331
f 380 374 348
f 380 348 363
f 381 344 350
f 381 375 344
f 379 354 351
f 327 378 379
f 357 374 380
f 364 357 380
f 382 350 353
f 382 381 350
f 383 353 354
f 383 382 353
f 379 383 354
f 328 365 384
f 328 384 355
f 312 355 385
f 312 385 356
f 329 386 361
f 329 360 386
f 387 380 363
f 387 363 369
f 364 380 387
f 370 364 387
f 359 388 358
f 372 389 359
f 359 389 388
f 313 390 360
f 313 356 390
f 352 371 391
f 352 391 378
f 358 392 365
f 358 388 392
f 361 393 366
f 366 393 373
f 394 387 369
f 394 369 375
f 376 370 394
f 370 387 394
f 377 376 395
f 376 394 395
f 371 377 396
f 377 395 396
f 371 396 391
f 378 383 379
f 367 397 372
f 368 398 367
f 398 397 367
f 361 386 393
f 395 375 381
f 395 394 375
f 372 399 389
f 397 399 372
f 373 400 368
f 400 398 368
f 393 400 373
f 396 381 382
f 396 395 381
f 391 382 383
f 391 396 382
f 378 391 383
f 389 401 388
f 399 402 389
f 389 402 401
f 365 392 403
f 365 403 384
f 360 404 386
f 360 390 404
f 388 401 405
f 388 405 392
f 355 384 406
f 355 406 385
f 356 407 390
f 356 385 407
f 386 408 393
f 393 408 400
f 397 409 399
f 399 410 402
f 409 410 399
f 398 411 397
f 411 409 397
f 386 404 408
f 402 412 401
f 410 413 402
f 402 413 412
f 400 414 398
f 414 411 398
f 408 414 400
f 401 412 415
f 401 415 405
f 392 405 416
f 392 416 403
f 410 417 413
f 413 418 412
f 417 419 413
f 413 419 418
f 409 420 410
f 420 417 410
f 384 403 421
f 384 421 406
f 390 422 404
f 390 407 422
f 412 418 423
f 412 423 415
f 411 424 409
f 424 420 409
f 385 425 407
f 385 406 425
f 417 426 419
f 419 427 418
f 426 428 419
f 419 428 427
f 404 429 408
f 408 429 414
f 430 426 417
f 420 430 417
f 418 427 431
f 418 431 423
f 405 415 432
f 405 432 416
f 414 433 411
f 433 424 411
f 404 422 429
f 426 434 428
f 428 435 427
f 428 436 435
f 434 436 428
f 429 433 414
f 437 434 426
f 430 437 426
f 427 435 438
f 427 438 431
f 436 439 435
f 434 440 436
f 440 441 436
f 436 441 439
f 415 423 442
f 415 442 432
f 443 430 420
f 424 443 420
f 403 416 444
f 403 444 421
f 435 439 445
f 435 445 438
f 446 440 434
f 437 446 434
f 407 447 422
f 407 425 447
f 440 448 441
f 441 449 439
f 441 450 449
f 448 450 441
f 423 431 451
f 423 451 442
f 406 421 452
f 406 452 425
f 453 448 440
f 446 453 440
f 439 449 454
f 439 454 445
f 455 437 430
f 443 455 430
f 433 456 424
f 456 443 424
f 429 457 433
f 422 457 429
f 431 438 458
f 431 458 451
f 450 459 449
f 448 460 450
f 460 461 450
f 450 461 459
f 449 459 462
f 449 462 454
f 463 460 448
f 453 463 448
f 464 446 437
f 455 464 437
f 416 432 465
f 416 465 444
f 457 456 433
f 422 447 457
f 438 445 466
f 438 466 458
f 460 467 461
f 461 468 459
f 467 469 461
f 461 469 468
f 470 467 460
f 463 470 460
f 471 453 446
f 464 471 446
f 459 468 472
f 459 472 462
f 445 454 473
f 445 473 466
f 432 442 474
f 432 474 465
f 475 455 443
f 456 475 443
f 421 444 476
f 421 476 452
f 477 463 453
f 471 477 453
f 425 478 447
f 425 452 478
f 467 479 469
f 480 479 467
f 470 480 467
f 442 451 481
f 442 481 474
f 469 482 468
f 479 483 469
f 469 483 482
f 454 462 484
f 454 484 473
f 457 485 456
f 447 485 457
f 486 470 463
f 477 486 463
f 468 482 487
f 468 487 472
f 451 458 488
f 451 488 481
f 489 464 455
f 475 489 455
f 485 475 456
f 447 478 485
f 479 490 483
f 480 491 479
f 491 490 479
f 462 472 492
f 462 492 484
f 493 480 470
f 486 493 470
f 458 466 494
f 458 494 488
f 495 471 464
f 489 495 464
f 444 465 496
f 444 496 476
f 483 497 482
f 490 498 483
f 483 498 497
f 482 497 499
f 482 499 487
f 466 473 500
f 466 500 494
f 501 477 471
f 495 501 471
f 452 502 478
f 452 476 502
f 503 491 480
f 493 503 480
f 472 487 504
f 472 504 492
f 465 474 505
f 465 505 496
f 485 506 475
f 506 489 475
f 490 507 498
f 491 508 490
f 508 507 490
f 509 486 477
f 501 509 477
f 478 506 485
f 473 484 510
f 473 510 500
f 498 511 497
f 507 512 498
f 498 512 511
f 513 508 491
f 503 513 491
f 514 493 486
f 509 514 486
f 474 481 515
f 474 515 505
f 478 502 506
f 497 516 499
f 497 511 516
f 487 499 517
f 487 517 504
f 484 492 518
f 484 518 510
f 481 488 519
f 481 519 515
f 520 495 489
f 506 520 489
f 476 496 521
f 476 521 502
f 522 503 493
f 514 522 493
f 508 523 507
f 507 524 512
f 523 524 507
f 488 494 525
f 488 525 519
f 526 501 495
f 520 526 495
f 502 520 506
f 527 523 508
f 513 527 508
f 492 504 528
f 492 528 518
f 529 513 503
f 522 529 503
f 494 500 530
f 494 530 525
f 531 509 501
f 526 531 501
f 496 505 532
f 496 532 521
f 502 521 520
f 512 533 511
f 524 534 512
f 512 534 533
f 499 516 535
f 499 535 517
f 536 514 509
f 531 536 509
f 511 537 516
f 511 533 537
f 500 510 538
f 500 538 530
f 505 515 539
f 505 539 532
f 521 526 520
f 523 540 524
f 524 541 534
f 540 541 524
f 527 542 523
f 542 540 523
f 504 517 543
f 504 543 528
f 544 527 513
f 529 544 513
f 545 522 514
f 536 545 514
f 515 519 546
f 515 546 539
f 521 532 526
f 532 531 526
f 510 518 547
f 510 547 538
f 548 529 522
f 545 548 522
f 519 525 549
f 519 549 546
f 532 539 531
f 539 536 531
f 516 537 550
f 516 550 535
f 544 551 527
f 551 542 527
f 525 530 552
f 525 552 549
f 539 546 536
f 546 545 536
f 534 553 533
f 541 554 534
f 534 554 553
f 517 535 555
f 517 555 543
f 518 528 556
f 518 556 547
f 557 544 529
f 548 557 529
f 530 538 558
f 530 558 552
f 546 549 545
f 549 548 545
f 533 559 537
f 533 553 559
f 540 560 541
f 542 561 540
f 561 560 540
f 549 552 548
f 541 562 554
f 560 562 541
f 557 563 544
f 563 551 544
f 552 557 548
f 551 564 542
f 564 561 542
f 528 543 565
f 528 565 556
f 538 547 566
f 538 566 558
f 552 558 557
f 558 563 557
f 537 567 550
f 537 559 567
f 535 550 568
f 535 568 555
f 563 569 551
f 569 564 551
f 547 570 566
f 547 556 570
f 558 566 563
f 543 555 571
f 543 571 565
f 566 569 563
f 554 572 553
f 562 573 554
f 554 573 572
f 561 574 560
f 560 575 562
f 574 575 560
f 564 576 561
f 576 574 561
f 566 570 569
f 553 577 559
f 553 572 577
f 556 578 570
f 556 565 578
f 569 579 564
f 579 576 564
f 562 580 573
f 575 580 562
f 570 579 569
f 550 581 568
f 550 567 581
f 570 578 579
f 555 582 571
f 555 568 582
f 559 583 567
f 559 577 583
f 565 584 578
f 565 571 584
f 576 585 574
f 574 586 575
f 585 586 574
f 579 587 576
f 578 587 579
f 587 585 576
f 573 588 572
f 580 589 573
f 573 589 588
f 575 590 580
f 586 590 575
f 578 584 587
f 572 591 577
f 572 588 591
f 590 592 580
f 580 592 589
f 571 593 584
f 571 582 593
f 568 594 582
f 568 581 594
f 567 595 581
f 567 583 595
f 584 596 587
f 587 596 585
f 577 597 583
f 577 591 597
f 584 593 596
f 585 598 586
f 596 598 585
f 586 599 590
f 598 599 586
f 590 600 592
f 599 600 590
f 589 601 588
f 592 602 589
f 589 602 601
f 588 603 591
f 588 601 603
f 582 604 593
f 582 594 604
f 600 605 592
f 592 605 602
f 593 606 596
f 596 606 598
f 581 607 594
f 581 595 607
f 583 608 595
f 583 597 608
f 593 604 606
f 591 609 597
f 591 603 609
f 598 610 599
f 606 610 598
f 599 611 600
f 610 611 599
f 600 612 605
f 611 612 600
f 602 613 601
f 605 614 602
f 602 614 613
f 594 615 604
f 594 607 615
f 601 616 603
f 601 613 616
f 595 617 607
f 595 608 617
f 604 618 606
f 606 618 610
f 612 619 605
f 605 619 614
f 597 620 608
f 597 609 620
f 604 615 618
f 603 621 609
f 603 616 621
f 610 622 611
f 618 622 610
f 611 623 612
f 622 623 611
f 612 624 619
f 623 624 612
f 607 625 615
f 607 617 625
f 614 626 613
f 613 627 616
f 613 626 627
f 619 628 614
f 614 628 626
f 608 629 617
f 608 620 629
f 615 630 618
f 618 630 622
f 615 625 630
f 609 631 620
f 609 621 631
f 624 632 619
f 619 632 628
f 622 633 623
f 630 633 622
f 616 634 621
f 616 627 634
f 623 635 624
f 633 635 623
f 617 636 625
f 617 629 636
f 624 637 632
f 635 637 624
f 625 638 630
f 630 638 633
f 620 639 629
f 620 631 639
f 625 636 638
f 628 640 626
f 632 641 628
f 628 641 640
f 626 642 627
f 626 640 642
f 621 643 631
f 621 634 643
f 633 644 635
f 638 644 633
f 637 645 632
f 632 645 641
f 635 646 637
f 644 646 635
f 627 647 634
f 627 642 647
f 629 648 636
f 629 639 648
f 636 649 638
f 638 649 644
f 637 650 645
f 646 650 637
f 631 651 639
f 631 643 651
f 636 648 649
f 641 652 640
f 645 653 641
f 641 653 652
f 634 654 643
f 634 647 654
f 644 655 646
f 649 655 644
f 640 656 642
f 640 652 656
f 650 657 645
f 645 657 653
f 646 658 650
f 655 658 646
f 639 659 648
f 639 651 659
f 648 660 649
f 649 660 655
f 642 661 647
f 642 656 661
f 648 659 660
f 643 662 651
f 643 654 662
f 658 663 650
f 650 663 657
f 655 664 658
f 660 664 655
f 647 665 654
f 647 661 665
f 651 666 659
f 651 662 666
f 653 667 652
f 657 668 653
f 653 668 667
f 652 669 656
f 652 667 669
f 658 670 663
f 664 670 658
f 659 671 660
f 660 671 664
f 663 672 657
f 657 672 668
f 659 666 671
f 656 673 661
f 656 669 673
f 654 674 662
f 654 665 674
f 670 675 663
f 663 675 672
f 671 676 664
f 664 676 670
f 661 677 665
f 661 673 677
f 662 678 666
f 662 674 678
f 666 679 671
f 671 679 676
f 666 678 679
f 676 680 670
f 670 680 675
f 668 681 667
f 672 682 668
f 668 682 681
f 667 683 669
f 667 681 683
f 675 684 672
f 672 684 682
f 665 685 674
f 665 677 685
f 669 686 673
f 669 683 686
f 679 687 676
f 676 687 680
f 680 688 675
f 675 688 684
f 674 689 678
f 674 685 689
f 678 690 679
f 679 690 687
f 673 691 677
f 673 686 691
f 678 689 690
f 687 692 680
f 680 692 688
f 682 693 681
f 684 694 682
f 682 694 693
f 677 695 685
f 677 691 695
f 681 696 683
f 681 693 696
f 688 697 684
f 684 697 694
f 690 698 687
f 687 698 692
f 683 699 686
f 683 696 699
f 685 700 689
f 685 695 700
f 692 701 688
f 688 701 697
f 689 702 690
f 690 702 698
f 689 700 702
f 686 703 691
f 686 699 703
f 698 704 692
f 692 704 701
f 691 705 695
f 691 703 705
f 702 706 698
f 698 706 704
f 694 707 693
f 697 708 694
f 694 708 707
f 693 709 696
f 693 707 709
f 695 710 700
f 695 705 710
f 701 711 697
f 697 711 708
f 700 712 702
f 702 712 706
f 696 713 699
f 696 709 713
f 700 710 712
f 704 714 701
f 701 714 711
f 699 715 703
f 699 713 715
f 706 716 704
f 704 716 714
f 703 717 705
f 703 715 717
f 712 718 706
f 706 718 716
f 705 719 710
f 705 717 719
f 710 720 712
f 712 720 718
f 710 719 720
f 708 721 707
f 711 722 708
f 708 722 721
f 707 723 709
f 707 721 723
f 714 724 711
f 711 724 722
f 709 725 713
f 709 723 725
f 716 726 714
f 714 726 724
f 713 727 715
f 713 725 727
f 718 728 716
f 716 728 726
f 715 729 717
f 715 727 729
f 720 730 718
f 718 730 728
f 717 731 719
f 717 729 731
f 719 732 720
f 720 732 730
f 719 731 732
f 722 723 721
f 724 725 722
f 722 725 723
f 726 727 724
f 724 727 725
f 728 729 726
f 726 729 727
f 730 731 728
f 728 731 729
f 730 732 731
f 733 734 735
f 736 734 733
f 737 733 738
f 739 733 737
f 733 735 738
f 739 736 733
f 734 740 735
f 736 741 734
f 741 742 734
f 734 742 740
f 737 738 743
f 744 737 743
f 745 739 737
f 745 737 744
f 738 735 746
f 743 738 747
f 738 746 747
f 735 740 748
f 735 748 746
f 749 736 739
f 750 741 736
f 749 750 736
f 744 743 751
f 743 747 752
f 751 743 752
f 753 739 745
f 753 749 739
f 741 754 742
f 755 754 741
f 750 755 741
f 742 756 740
f 754 757 742
f 742 757 756
f 758 745 744
f 759 744 751
f 758 744 759
f 740 760 748
f 740 756 760
f 761 753 745
f 761 745 758
f 755 762 754
f 754 763 757
f 762 763 754
f 747 746 764
f 746 748 765
f 746 765 764
f 752 747 766
f 747 764 766
f 751 752 767
f 759 751 768
f 768 751 767
f 769 750 749
f 770 755 750
f 769 770 750
f 767 752 771
f 752 766 771
f 772 749 753
f 772 769 749
f 773 762 755
f 770 773 755
f 757 774 756
f 763 775 757
f 757 775 774
f 748 760 776
f 748 776 765
f 777 758 759
f 778 759 768
f 777 759 778
f 756 779 760
f 756 774 779
f 780 753 761
f 780 772 753
f 781 761 758
f 781 758 777
f 762 782 763
f 763 783 775
f 782 783 763
f 773 784 762
f 784 782 762
f 768 767 785
f 767 771 786
f 785 767 786
f 778 768 787
f 787 768 785
f 760 788 776
f 760 779 788
f 766 764 789
f 764 765 790
f 764 790 789
f 771 766 791
f 766 789 791
f 792 770 769
f 793 773 770
f 792 793 770
f 786 771 794
f 771 791 794
f 795 769 772
f 795 792 769
f 796 761 781
f 796 780 761
f 765 776 797
f 765 797 790
f 798 784 773
f 793 798 773
f 775 799 774
f 774 800 779
f 774 799 800
f 783 801 775
f 775 801 799
f 802 777 778
f 803 778 787
f 802 778 803
f 782 804 783
f 784 805 782
f 805 804 782
f 806 772 780
f 806 795 772
f 785 786 807
f 787 785 808
f 808 785 807
f 809 781 777
f 809 777 802
f 804 810 783
f 783 810 801
f 798 811 784
f 811 805 784
f 786 794 812
f 807 786 812
f 813 787 808
f 803 787 813
f 776 788 814
f 776 814 797
f 779 815 788
f 779 800 815
f 791 789 816
f 789 790 817
f 789 817 816
f 794 791 818
f 791 816 818
f 819 798 793
f 820 793 792
f 820 819 793
f 821 796 781
f 821 781 809
f 790 797 822
f 790 822 817
f 823 811 798
f 819 823 798
f 794 818 824
f 812 794 824
f 825 792 795
f 825 820 792
f 826 780 796
f 826 806 780
f 805 827 804
f 811 828 805
f 828 827 805
f 804 829 810
f 827 829 804
f 830 795 806
f 830 825 795
f 807 812 831
f 808 807 832
f 832 807 831
f 801 833 799
f 799 834 800
f 799 833 834
f 810 835 801
f 801 835 833
f 788 836 814
f 788 815 836
f 823 837 811
f 837 828 811
f 818 816 838
f 816 817 839
f 816 839 838
f 824 818 840
f 818 838 840
f 840 823 819
f 841 819 820
f 841 840 819
f 812 824 842
f 831 812 842
f 813 808 843
f 843 808 832
f 844 802 803
f 845 803 813
f 844 803 845
f 846 809 802
f 846 802 844
f 797 814 847
f 797 847 822
f 840 838 823
f 838 837 823
f 824 840 841
f 842 824 841
f 848 841 820
f 848 820 825
f 829 849 810
f 810 849 835
f 817 850 839
f 817 822 850
f 838 839 837
f 851 826 796
f 851 796 821
f 800 852 815
f 800 834 852
f 837 853 828
f 839 853 837
f 842 841 848
f 854 830 806
f 854 806 826
f 855 813 843
f 845 813 855
f 828 856 827
f 853 856 828
f 839 850 853
f 831 842 857
f 857 842 848
f 858 848 825
f 858 825 830
f 859 821 809
f 859 809 846
f 827 860 829
f 856 860 827
f 832 831 861
f 861 831 857
f 814 862 847
f 814 836 862
f 822 863 850
f 822 847 863
f 857 848 858
f 843 832 864
f 864 832 861
f 829 865 849
f 860 865 829
f 815 866 836
f 815 852 866
f 850 867 853
f 853 867 856
f 850 863 867
f 868 858 830
f 868 830 854
f 869 843 864
f 855 843 869
f 870 854 826
f 870 826 851
f 835 871 833
f 833 872 834
f 833 871 872
f 849 873 835
f 835 873 871
f 874 857 858
f 861 857 874
f 875 851 821
f 875 821 859
f 856 876 860
f 867 876 856
f 874 858 868
f 847 877 863
f 847 862 877
f 834 878 852
f 834 872 878
f 865 879 849
f 849 879 873
f 864 861 880
f 880 861 874
f 860 881 865
f 876 881 860
f 836 882 862
f 836 866 882
f 863 883 867
f 867 883 876
f 863 877 883
f 884 868 854
f 884 854 870
f 885 864 880
f 869 864 885
f 886 874 868
f 880 874 886
f 887 870 851
f 887 851 875
f 852 888 866
f 852 878 888
f 886 868 884
f 881 889 865
f 865 889 879
f 883 890 876
f 876 890 881
f 862 891 877
f 862 882 891
f 873 892 871
f 871 893 872
f 871 892 893
f 879 894 873
f 873 894 892
f 877 895 883
f 877 891 895
f 883 895 890
f 896 880 886
f 885 880 896
f 897 884 870
f 897 870 887
f 866 898 882
f 866 888 898
f 890 899 881
f 881 899 889
f 872 900 878
f 872 893 900
f 889 901 879
f 879 901 894
f 902 886 884
f 896 886 902
f 902 884 897
f 882 903 891
f 882 898 903
f 895 904 890
f 890 904 899
f 878 905 888
f 878 900 905
f 899 906 889
f 889 906 901
f 891 907 895
f 891 903 907
f 895 907 904
f 894 908 892
f 892 909 893
f 892 908 909
f 910 844 845
f 911 845 855
f 910 845 911
f 901 912 894
f 894 912 908
f 888 913 898
f 888 905 913
f 914 846 844
f 914 844 910
f 904 915 899
f 899 915 906
f 893 916 900
f 893 909 916
f 917 855 869
f 911 855 917
f 906 918 901
f 901 918 912
f 919 859 846
f 919 846 914
f 898 920 903
f 898 913 920
f 900 921 905
f 900 916 921
f 907 922 904
f 904 922 915
f 915 923 906
f 906 923 918
f 924 869 885
f 917 869 924
f 903 925 907
f 903 920 925
f 907 925 922
f 905 926 913
f 905 921 926
f 927 875 859
f 927 859 919
f 912 928 908
f 908 929 909
f 908 928 929
f 918 930 912
f 912 930 928
f 922 931 915
f 915 931 923
f 909 932 916
f 909 929 932
f 933 885 896
f 924 885 933
f 923 934 918
f 918 934 930
f 913 935 920
f 913 926 935
f 925 936 922
f 922 936 931
f 916 937 921
f 916 932 937
f 938 887 875
f 938 875 927
f 920 939 925
f 920 935 939
f 925 939 936
f 931 940 923
f 923 940 934
f 941 896 902
f 933 896 941
f 921 942 926
f 921 937 942
f 943 897 887
f 943 887 938
f 930 944 928
f 928 945 929
f 928 944 945
f 936 946 931
f 931 946 940
f 934 947 930
f 930 947 944
f 948 902 897
f 941 902 948
f 929 949 932
f 929 945 949
f 948 897 943
f 926 950 935
f 926 942 950
f 940 951 934
f 934 951 947
f 939 952 936
f 936 952 946
f 932 953 937
f 932 949 953
f 935 954 939
f 935 950 954
f 939 954 952
f 946 955 940
f 940 955 951
f 956 910 911
f 957 911 917
f 956 911 957
f 958 914 910
f 958 910 956
f 937 959 942
f 937 953 959
f 960 917 924
f 957 917 960
f 952 961 946
f 946 961 955
f 947 962 944
f 944 963 945
f 944 962 963
f 951 964 947
f 947 964 962
f 965 919 914
f 965 914 958
f 945 966 949
f 945 963 966
f 942 967 950
f 942 959 967
f 968 924 933
f 960 924 968
f 955 969 951
f 951 969 964
f 954 970 952
f 952 970 961
f 950 971 954
f 950 967 971
f 949 972 953
f 949 966 972
f 954 971 970
f 961 973 955
f 955 973 969
f 974 927 919
f 974 919 965
f 953 975 959
f 953 972 975
f 976 933 941
f 968 933 976
f 970 977 961
f 961 977 973
f 964 978 962
f 962 979 963
f 962 978 979
f 969 980 964
f 964 980 978
f 959 981 967
f 959 975 981
f 963 982 966
f 963 979 982
f 971 983 970
f 970 983 977
f 973 984 969
f 969 984 980
f 967 985 971
f 967 981 985
f 986 938 927
f 986 927 974
f 966 987 972
f 966 982 987
f 971 985 983
f 988 941 948
f 976 941 988
f 977 989 973
f 973 989 984
f 972 990 975
f 972 987 990
f 991 943 938
f 991 938 986
f 992 948 943
f 988 948 992
f 983 993 977
f 977 993 989
f 980 994 978
f 978 995 979
f 978 994 995
f 975 996 981
f 975 990 996
f 992 943 991
f 984 997 980
f 980 997 994
f 979 998 982
f 979 995 998
f 985 999 983
f 983 999 993
f 989 1000 984
f 984 1000 997
f 981 1001 985
f 981 996 1001
f 982 1002 987
f 982 998 1002
f 985 1001 999
f 1003 957 960
f 1004 956 957
f 1004 957 1003
f 1005 960 968
f 1003 960 1005
f 1006 958 956
f 1006 956 1004
f 993 1007 989
f 989 1007 1000
f 987 1008 990
f 987 1002 1008
f 999 1009 993
f 993 1009 1007
f 994 1010 995
f 997 1011 994
f 994 1011 1010
f 990 1012 996
f 990 1008 1012
f 995 1013 998
f 995 1010 1013
f 1000 1014 997
f 997 1014 1011
f 1015 968 976
f 1005 968 1015
f 1016 965 958
f 1016 958 1006
f 1001 1017 999
f 999 1017 1009
f 996 1018 1001
f 996 1012 1018
f 998 1019 1002
f 998 1013 1019
f 1007 1020 1000
f 1000 1020 1014
f 1001 1018 1017
f 1002 1021 1008
f 1002 1019 1021
f 1009 1022 1007
f 1007 1022 1020
f 1011 1023 1010
f 1014 1024 1011
f 1011 1024 1023
f 1008 1025 1012
f 1008 1021 1025
f 1017 1026 1009
f 1009 1026 1022
f 1027 976 988
f 1015 976 1027
f 1028 974 965
f 1028 965 1016
f 1010 1029 1013
f 1010 1023 1029
f 1020 1030 1014
f 1014 1030 1024
f 1013 1031 1019
f 1013 1029 1031
f 1022 1032 1020
f 1020 1032 1030
f 1012 1033 1018
f 1012 1025 1033
f 1018 1034 1017
f 1017 1034 1026
f 1018 1033 1034
f 1019 1035 1021
f 1019 1031 1035
f 1026 1036 1022
f 1022 1036 1032
f 1024 1037 1023
f 1030 1038 1024
f 1024 1038 1037
f 1023 1039 1029
f 1023 1037 1039
f 1032 1040 1030
f 1030 1040 1038
f 1021 1041 1025
f 1021 1035 1041
f 1034 1042 1026
f 1026 1042 1036
f 1043 988 992
f 1027 988 1043
f 1044 986 974
f 1044 974 1028
f 1029 1045 1031
f 1029 1039 1045
f 1036 1046 1032
f 1032 1046 1040
f 1025 1047 1033
f 1025 1041 1047
f 1033 1048 1034
f 1034 1048 1042
f 1033 1047 1048
f 1031 1045 1049
f 1031 1049 1035
f 1036 1050 1046
f 1042 1050 1036
f 1040 1051 1038
f 1038 1052 1037
f 1038 1051 1052
f 1040 1053 1051
f 1046 1053 1040
f 1037 1052 1054
f 1037 1054 1039
f 1055 992 991
f 1043 992 1055
f 1056 991 986
f 1056 986 1044
f 1057 1058 1059
f 1060 1059 1058
f 1057 1059 1061
f 1061 1059 1062
f 1063 1062 1059
f 1063 1059 1060
f 1064 1065 1058
f 1066 1058 1065
f 1064 1058 1057
f 1060 1058 1066
f 1053 1065 1064
f 1066 1065 1053
f 1051 1064 1057
f 1053 1064 1051
f 1052 1057 1061
f 1051 1057 1052
f 1054 1061 1067
f 1061 1062 1067
f 1052 1061 1054
f 1054 1067 1068
f 1067 1062 1069
f 1067 1069 1070
f 1068 1067 1070
f 1046 1066 1053
f 1050 1066 1046
f 1050 1060 1066
f 1039 1054 1068
f 1039 1068 1045
f 1045 1068 1071
f 1045 1071 1049
f 1042 1072 1050
f 1072 1060 1050
f 1048 1072 1042
f 1047 1073 1048
f 1048 1073 1072
f 1041 1074 1047
f 1047 1074 1073
f 1035 1075 1041
f 1041 1075 1074
f 1035 1049 1075
f 1055 991 1056
f 1076 1069 1062
f 1076 1062 1063
f 1070 1069 1077
f 1078 1077 1069
f 1078 1069 1076
f 1070 1077 1079
f 1080 1079 1077
f 1080 1077 1078
f 1071 1070 1079
f 1071 1079 1080
f 1068 1070 1071
f 1072 1063 1060
f 1049 1071 1080
f 1049 1080 1075
f 1073 1063 1072
f 1081 1003 1005
f 1082 1004 1003
f 1082 1003 1081
f 1073 1076 1063
f 1074 1076 1073
f 1075 1080 1078
f 1075 1078 1074
f 1083 1005 1015
f 1081 1005 1083
f 1074 1078 1076
f 1084 1006 1004
f 1084 1004 1082
f 1085 1015 1027
f 1083 1015 1085
f 1086 1016 1006
f 1086 1006 1084
f 1087 1027 1043
f 1085 1027 1087
f 1088 1028 1016
f 1088 1016 1086
f 1089 1043 1055
f 1087 1043 1089
f 1090 1044 1028
f 1090 1028 1088
f 1091 1055 1056
f 1089 1055 1091
f 1092 1056 1044
f 1092 1044 1090
f 1091 1056 1092
f 1093 1081 1083
f 1094 1082 1081
f 1094 1081 1093
f 1095 1083 1085
f 1093 1083 1095
f 1096 1084 1082
f 1096 1082 1094
f 1097 1085 1087
f 1095 1085 1097
f 1098 1086 1084
f 1098 1084 1096
f 1099 1087 1089
f 1097 1087 1099
f 1100 1088 1086
f 1100 1086 1098
f 1101 1089 1091
f 1099 1089 1101
f 1102 1090 1088
f 1102 1088 1100
f 1103 1091 1092
f 1101 1091 1103
f 1104 1092 1090
f 1104 1090 1102
f 1105 1093 1095
f 1106 1094 1093
f 1106 1093 1105
f 1103 1092 1104
f 1107 1095 1097
f 1105 1095 1107
f 1108 1096 1094
f 1108 1094 1106
f 1109 1097 1099
f 1107 1097 1109
f 1110 1098 1096
f 1110 1096 1108
f 1111 1099 1101
f 1109 1099 1111
f 1112 1100 1098
f 1112 1098 1110
f 1113 1101 1103
f 1111 1101 1113
f 1114 1102 1100
f 1114 1100 1112
f 1115 1103 1104
f 1113 1103 1115
f 1116 1105 1107
f 1117 1106 1105
f 1117 1105 1116
f 1118 1107 1109
f 1116 1107 1118
f 1119 1104 1102
f 1119 1102 1114
f 1115 1104 1119
f 1120 1108 1106
f 1120 1106 1117
f 1121 1109 1111
f 1118 1109 1121
f 1122 1110 1108
f 1122 1108 1120
f 1123 1111 1113
f 1121 1111 1123
f 1124 1112 1110
f 1124 1110 1122
f 1125 1113 1115
f 1123 1113 1125
f 1126 1114 1112
f 1126 1112 1124
f 1127 1115 1119
f 1125 1115 1127
f 1128 1116 1118
f 1129 1118 1121
f 1128 1118 1129
f 1130 1117 1116
f 1130 1116 1128
f 1131 1119 1114
f 1131 1114 1126
f 1127 1119 1131
f 1132 1121 1123
f 1129 1121 1132
f 1133 1120 1117
f 1133 1117 1130
f 1134 1123 1125
f 1132 1123 1134
f 1135 1122 1120
f 1135 1120 1133
f 1136 1125 1127
f 1134 1125 1136
f 1137 1124 1122
f 1137 1122 1135
f 1138 1127 1131
f 1136 1127 1138
f 1139 1126 1124
f 1139 1124 1137
f 1140 1128 1129
f 1141 1129 1132
f 1140 1129 1141
f 1142 1130 1128
f 1142 1128 1140
f 1143 1131 1126
f 1138 1131 1143
f 1143 1126 1139
f 1144 1132 1134
f 1141 1132 1144
f 1145 1133 1130
f 1145 1130 1142
f 1146 1134 1136
f 1144 1134 1146
f 1147 1135 1133
f 1147 1133 1145
f 1148 1136 1138
f 1146 1136 1148
f 1149 1137 1135
f 1149 1135 1147
f 1150 1138 1143
f 1148 1138 1150
f 1151 1139 1137
f 1151 1137 1149
f 1152 1140 1141
f 1153 1141 1144
f 1152 1141 1153
f 1154 1142 1140
f 1154 1140 1152
f 1155 1143 1139
f 1150 1143 1155
f 1155 1139 1151
f 1156 1144 1146
f 1153 1144 1156
f 1157 1145 1142
f 1157 1142 1154
f 1158 1146 1148
f 1156 1146 1158
f 1159 1147 1145
f 1159 1145 1157
f 1160 1148 1150
f 1158 1148 1160
f 1161 1149 1147
f 1161 1147 1159
f 1162 1150 1155
f 1160 1150 1162
f 1163 1151 1149
f 1163 1149 1161
f 1164 1152 1153
f 1165 1153 1156
f 1164 1153 1165
f 1166 1155 1151
f 1162 1155 1166
f 1167 1154 1152
f 1167 1152 1164
f 1166 1151 1163
f 1168 1156 1158
f 1165 1156 1168
f 1169 1157 1154
f 1169 1154 1167
f 1170 1158 1160
f 1168 1158 1170
f 1171 1159 1157
f 1171 1157 1169
f 1172 1160 1162
f 1170 1160 1172
f 1173 1161 1159
f 1173 1159 1171
f 1174 1162 1166
f 1172 1162 1174
f 1175 1163 1161
f 1175 1161 1173
f 1176 1166 1163
f 1174 1166 1176
f 1177 1164 1165
f 1178 1165 1168
f 1177 1165 1178
f 1176 1163 1175
f 1179 1167 1164
f 1179 1164 1177
f 1180 1168 1170
f 1178 1168 1180
f 1181 1169 1167
f 1181 1167 1179
f 1182 1170 1172
f 1180 1170 1182
f 1183 1171 1169
f 1183 1169 1181
f 1184 1172 1174
f 1182 1172 1184
f 1185 1173 1171
f 1185 1171 1183
f 1186 1174 1176
f 1184 1174 1186
f 1187 1175 1173
f 1187 1173 1185
f 1188 1176 1175
f 1186 1176 1188
f 1188 1175 1187
f 1189 1177 1178
f 1190 1178 1180
f 1189 1178 1190
f 1191 1179 1177
f 1191 1177 1189
f 1192 1180 1182
f 1190 1180 1192
f 1193 1181 1179
f 1193 1179 1191
f 1194 1182 1184
f 1192 1182 1194
f 1195 1183 1181
f 1195 1181 1193
f 1196 1184 1186
f 1194 1184 1196
f 1197 1185 1183
f 1197 1183 1195
f 1198 1186 1188
f 1196 1186 1198
f 1199 1187 1185
f 1199 1185 1197
f 1200 1188 1187
f 1198 1188 1200
f 1200 1187 1199
f 1201 1189 1190
f 1202 1190 1192
f 1201 1190 1202
f 1203 1191 1189
f 1203 1189 1201
f 1204 1192 1194
f 1202 1192 1204
f 1205 1193 1191
f 1205 1191 1203
f 1206 1194 1196
f 1204 1194 1206
f 1207 1195 1193
f 1207 1193 1205
f 1208 1196 1198
f 1206 1196 1208
f 1209 1197 1195
f 1209 1195 1207
f 1210 1198 1200
f 1208 1198 1210
f 1211 1199 1197
f 1211 1197 1209
f 1212 1200 1199
f 1210 1200 1212
f 1212 1199 1211
f 1213 1201 1202
f 1214 1202 1204
f 1213 1202 1214
f 1215 1203 1201
f 1215 1201 1213
f 1216 1204 1206
f 1214 1204 1216
f 1217 1205 1203
f 1217 1203 1215
f 1218 1206 1208
f 1216 1206 1218
f 1219 1207 1205
f 1219 1205 1217
f 1220 1208 1210
f 1218 1208 1220
f 1221 1209 1207
f 1221 1207 1219
f 1222 1210 1212
f 1220 1210 1222
f 1223 1211 1209
f 1223 1209 1221
f 1224 1212 1211
f 1222 1212 1224
f 1224 1211 1223
f 1225 1213 1214
f 1226 1214 1216
f 1225 1214 1226
f 1227 1215 1213
f 1227 1213 1225
f 1228 1216 1218
f 1226 1216 1228
f 1229 1217 1215
f 1229 1215 1227
f 1230 1218 1220
f 1228 1218 1230
f 1231 1219 1217
f 1231 1217 1229
f 1232 1220 1222
f 1230 1220 1232
f 1233 1221 1219
f 1233 1219 1231
f 1234 1222 1224
f 1232 1222 1234
f 1235 1223 1221
f 1235 1221 1233
f 1236 1224 1223
f 1234 1224 1236
f 1236 1223 1235
f 1237 1225 1226
f 1238 1226 1228
f 1237 1226 1238
f 1239 1227 1225
f 1239 1225 1237
f 1240 1228 1230
f 1238 1228 1240
f 1241 1229 1227
f 1241 1227 1239
f 1242 1230 1232
f 1240 1230 1242
f 1243 1231 1229
f 1243 1229 1241
f 1244 1232 1234
f 1242 1232 1244
f 1245 1233 1231
f 1245 1231 1243
f 1246 1234 1236
f 1244 1234 1246
f 1247 1235 1233
f 1247 1233 1245
f 1248 1236 1235
f 1246 1236 1248
f 1248 1235 1247
f 1249 1237 1238
f 1250 1238 1240
f 1249 1238 1250
f 1251 1239 1237
f 1251 1237 1249
f 1252 1240 1242
f 1250 1240 1252
f 1253 1241 1239
f 1253 1239 1251
f 1254 1242 1244
f 1252 1242 1254
f 1255 1243 1241
f 1255 1241 1253
f 1256 1244 1246
f 1254 1244 1256
f 1257 1245 1243
f 1257 1243 1255
f 1258 1246 1248
f 1256 1246 1258
f 1259 1247 1245
f 1259 1245 1257
f 1260 1248 1247
f 1258 1248 1260
f 1260 1247 1259
f 1261 1249 1250
f 1262 1250 1252
f 1261 1250 1262
f 1263 1251 1249
f 1263 1249 1261
f 1264 1252 1254
f 1262 1252 1264
f 1265 1253 1251
f 1265 1251 1263
f 1266 1254 1256
f 1264 1254 1266
f 1267 1255 1253
f 1267 1253 1265
f 1268 1256 1258
f 1266 1256 1268
f 1269 1257 1255
f 1269 1255 1267
f 1270 1258 1260
f 1268 1258 1270
f 1271 1259 1257
f 1271 1257 1269
f 1272 1260 1259
f 1270 1260 1272
f 1272 1259 1271
f 1273 1261 1262
f 1274 1262 1264
f 1273 1262 1274
f 1275 1263 1261
f 1275 1261 1273
f 1276 1264 1266
f 1274 1264 1276
f 1277 1265 1263
f 1277 1263 1275
f 1278 1266 1268
f 1276 1266 1278
f 1279 1267 1265
f 1279 1265 1277
f 1280 1268 1270
f 1278 1268 1280
f 1281 1269 1267
f 1281 1267 1279
f 1282 1270 1272
f 1280 1270 1282
f 1283 1271 1269
f 1283 1269 1281
f 1284 1272 1271
f 1282 1272 1284
f 1284 1271 1283
f 1285 1274 1276
f 1286 1273 1274
f 1286 1274 1285
f 1287 1276 1278
f 1285 1276 1287
f 1288 1275 1273
f 1288 1273 1286
f 1289 1277 1275
f 1289 1275 1288
f 1290 1278 1280
f 1287 1278 1290
f 1291 1279 1277
f 1291 1277 1289
f 1292 1280 1282
f 1290 1280 1292
f 1293 1281 1279
f 1293 1279 1291
f 1294 1282 1284
f 1292 1282 1294
f 1295 1283 1281
f 1295 1281 1293
f 1296 1284 1283
f 1294 1284 1296
f 1296 1283 1295
f 1297 1285 1287
f 1298 1286 1285
f 1298 1285 1297
f 1299 1287 1290
f 1297 1287 1299
f 1300 1288 1286
f 1300 1286 1298
f 1301 1290 1292
f 1299 1290 1301
f 1302 1289 1288
f 1302 1288 1300
f 1303 1292 1294
f 1301 1292 1303
f 1304 1291 1289
f 1304 1289 1302
f 1305 1294 1296
f 1303 1294 1305
f 1306 1293 1291
f 1306 1291 1304
f 1307 1296 1295
f 1305 1296 1307
f 1308 1295 1293
f 1308 1293 1306
f 1307 1295 1308
f 1309 1297 1299
f 1310 1298 1297
f 1310 1297 1309
f 1311 1299 1301
f 1309 1299 1311
f 1312 1300 1298
f 1312 1298 1310
f 1313 1301 1303
f 1311 1301 1313
f 1314 1302 1300
f 1314 1300 1312
f 1315 1303 1305
f 1313 1303 1315
f 1316 1304 1302
f 1316 1302 1314
f 1317 1305 1307
f 1315 1305 1317
f 1318 1306 1304
f 1318 1304 1316
f 1319 1307 1308
f 1317 1307 1319
f 1320 1308 1306
f 1320 1306 1318
f 1319 1308 1320
f 1321 1309 1311
f 1322 1310 1309
f 1322 1309 1321
f 1323 1311 1313
f 1321 1311 1323
f 1324 1312 1310
f 1324 1310 1322
f 1325 1313 1315
f 1323 1313 1325
f 1326 1314 1312
f 1326 1312 1324
f 1327 1315 1317
f 1325 1315 1327
f 1328 1316 1314
f 1328 1314 1326
f 1329 1317 1319
f 1327 1317 1329
f 1330 1318 1316
f 1330 1316 1328
f 1331 1319 1320
f 1329 1319 1331
f 1332 1320 1318
f 1332 1318 1330
f 1331 1320 1332
f 1333 1321 1323
f 1334 1322 1321
f 1334 1321 1333
f 1335 1323 1325
f 1333 1323 1335
f 1336 1324 1322
f 1336 1322 1334
f 1337 1325 1327
f 1335 1325 1337
f 1338 1326 1324
f 1338 1324 1336
f 1339 1327 1329
f 1337 1327 1339
f 1340 1328 1326
f 1340 1326 1338
f 1341 1329 1331
f 1339 1329 1341
f 1342 1330 1328
f 1342 1328 1340
f 1343 1331 1332
f 1341 1331 1343
f 1344 1332 1330
f 1344 1330 1342
f 1343 1332 1344
f 1345 1333 1335
f 1346 1334 1333
f 1346 1333 1345
f 1347 1335 1337
f 1345 1335 1347
f 1348 1336 1334
f 1348 1334 1346
f 1349 1337 1339
f 1347 1337 1349
f 1350 1338 1336
f 1350 1336 1348
f 1351 1339 1341
f 1349 1339 1351
f 1352 1340 1338
f 1352 1338 1350
f 1353 1341 1343
f 1351 1341 1353
f 1354 1342 1340
f 1354 1340 1352
f 1355 1343 1344
f 1353 1343 1355
f 1356 1344 1342
f 1356 1342 1354
f 1355 1344 1356
f 1357 1346 1345
f 1358 1345 1347
f 1357 1345 1358
f 1359 1348 1346
f 1359 1346 1357
f 1360 1347 1349
f 1358 1347 1360
f 1361 1350 1348
f 1361 1348 1359
f 1362 1349 1351
f 1360 1349 1362
f 1363 1352 1350
f 1363 1350 1361
f 1364 1351 1353
f 1362 1351 1364
f 1365 1354 1352
f 1365 1352 1363
f 1366 1353 1355
f 1364 1353 1366
f 1367 1356 1354
f 1367 1354 1365
f 1368 1355 1356
f 1366 1355 1368
f 1368 1356 1367
f 1369 1357 1358
f 1370 1358 1360
f 1369 1358 1370
f 1371 1359 1357
f 1371 1357 1369
f 1372 1360 1362
f 1370 1360 1372
f 1373 1361 1359
f 1373 1359 1371
f 1374 1362 1364
f 1372 1362 1374
f 1375 1363 1361
f 1375 1361 1373
f 1376 1364 1366
f 1374 1364 1376
f 1377 1365 1363
f 1377 1363 1375
f 1378 1366 1368
f 1376 1366 1378
f 1379 1367 1365
f 1379 1365 1377
f 1380 1369 1370
f 1381 1370 1372
f 1380 1370 1381
f 1382 1368 1367
f 1378 1368 1382
f 1383 1371 1369
f 1383 1369 1380
f 1382 1367 1379
f 1384 1372 1374
f 1381 1372 1384
f 1385 1373 1371
f 1385 1371 1383
f 1386 1374 1376
f 1384 1374 1386
f 1387 1375 1373
f 1387 1373 1385
f 1388 1376 1378
f 1386 1376 1388
f 1389 1377 1375
f 1389 1375 1387
f 1390 1378 1382
f 1388 1378 1390
f 1391 1380 1381
f 1392 1381 1384
f 1391 1381 1392
f 1393 1383 1380
f 1393 1380 1391
f 1394 1379 1377
f 1394 1377 1389
f 1395 1384 1386
f 1392 1384 1395
f 1396 1382 1379
f 1390 1382 1396
f 1396 1379 1394
f 1397 1385 1383
f 1397 1383 1393
f 1398 1386 1388
f 1395 1386 1398
f 1399 1387 1385
f 1399 1385 1397
f 1400 1388 1390
f 1398 1388 1400
f 1401 1389 1387
f 1401 1387 1399
f 1402 1391 1392
f 1403 1392 1395
f 1402 1392 1403
f 1404 1393 1391
f 1404 1391 1402
f 1405 1390 1396
f 1400 1390 1405
f 1406 1395 1398
f 1403 1395 1406
f 1407 1397 1393
f 1407 1393 1404
f 1408 1394 1389
f 1408 1389 1401
f 1409 1396 1394
f 1405 1396 1409
f 1409 1394 1408
f 1410 1398 1400
f 1406 1398 1410
f 1411 1399 1397
f 1411 1397 1407
f 1412 1402 1403
f 1413 1403 1406
f 1412 1403 1413
f 1414 1404 1402
f 1414 1402 1412
f 1415 1400 1405
f 1410 1400 1415
f 1416 1401 1399
f 1416 1399 1411
f 1417 1406 1410
f 1413 1406 1417
f 1418 1407 1404
f 1418 1404 1414
f 1419 1405 1409
f 1415 1405 1419
f 1420 1408 1401
f 1420 1401 1416
f 1417 1410 1421
f 1421 1410 1415
f 1422 1411 1407
f 1422 1407 1418
f 1423 1409 1408
f 1419 1409 1423
f 1423 1408 1420
f 1424 1412 1413
f 1425 1413 1417
f 1424 1413 1425
f 1426 1414 1412
f 1426 1412 1424
f 1425 1417 1427
f 1427 1417 1421
f 1428 1418 1414
f 1428 1414 1426
f 1421 1415 1429
f 1429 1415 1419
f 1430 1416 1411
f 1430 1411 1422
f 1431 1424 1425
f 1432 1426 1424
f 1432 1424 1431
f 1433 1425 1427
f 1431 1425 1433
f 1427 1421 1434
f 1434 1421 1429
f 1435 1422 1418
f 1435 1418 1428
f 1436 1419 1423
f 1429 1419 1436
f 1437 1420 1416
f 1437 1416 1430
f 1438 1426 1432
f 1438 1428 1426
f 1433 1427 1439
f 1439 1427 1434
f 1440 1431 1433
f 1441 1431 1440
f 1441 1432 1431
f 1440 1433 1442
f 1442 1433 1439
f 1443 1440 1442
f 1444 1441 1440
f 1444 1440 1443
f 1445 1423 1420
f 1436 1423 1445
f 1442 1439 1446
f 1447 1442 1446
f 1443 1442 1447
f 1445 1420 1437
f 1448 1432 1441
f 1448 1438 1432
f 1449 1448 1441
f 1449 1441 1444
f 1434 1429 1450
f 1450 1429 1436
f 1451 1430 1422
f 1451 1422 1435
f 1452 1428 1438
f 1452 1435 1428
f 1439 1434 1453
f 1446 1439 1453
f 1453 1434 1450
f 1446 1453 1454
f 1455 1446 1454
f 1447 1446 1455
f 1449 1438 1448
f 1449 1452 1438
f 1450 1436 1456
f 1456 1436 1445
f 1457 1437 1430
f 1457 1430 1451
f 1454 1453 1458
f 1453 1450 1458
f 1459 1435 1452
f 1459 1451 1435
f 1454 1458 1460
f 1455 1454 1460
f 1458 1450 1456
f 1461 1445 1437
f 1456 1445 1461
f 1461 1437 1457
f 1444 1452 1449
f 1444 1459 1452
f 1462 1457 1451
f 1462 1451 1459
f 1458 1456 1463
f 1460 1458 1463
f 1463 1456 1461
f 1460 1463 1455
f 1464 1461 1457
f 1464 1457 1462
f 1463 1461 1464
f 1443 1459 1444
f 1443 1462 1459
f 1455 1463 1464
f 1455 1464 1447
f 1447 1464 1462
f 1447 1462 1443
