# 
# Wavefront OBJ file
# Created with Kaydara FBX
# 
mtllib c:\users\tjvan\onedrive\documenten\fontys\minor\nx\.mtlmodels\medial_femoral_intermuscular_septum.r.obj

g Medial_femoral_intermuscular_septum_r
v -0.096229 0.750342 -0.012948
v -0.096174 0.760032 -0.012568
v -0.096022 0.760032 -0.012697
v -0.089395 0.755327 -0.004451
v -0.096073 0.750346 -0.013073
v -0.095862 0.740514 -0.012656
v -0.089601 0.745922 -0.004631
v -0.095438 0.769145 -0.011823
v -0.095592 0.769133 -0.011695
v -0.088287 0.764487 -0.003571
v -0.089232 0.755331 -0.004567
v -0.095708 0.740520 -0.012783
v -0.089441 0.745931 -0.004751
v -0.088121 0.764497 -0.003681
v -0.095376 0.730497 -0.012214
v -0.088976 0.736341 -0.004599
v -0.095837 0.778956 -0.010478
v -0.095678 0.778993 -0.010593
v -0.095021 0.785207 -0.007380
v -0.087422 0.773379 -0.000782
v -0.095185 0.785166 -0.007273
v -0.087310 0.781944 0.003732
v -0.095225 0.730505 -0.012344
v -0.088820 0.736352 -0.004723
v -0.087251 0.773408 -0.000881
v -0.087135 0.781977 0.003640
v -0.094459 0.720648 -0.012198
v -0.085959 0.725864 -0.001845
v -0.094307 0.720658 -0.012327
v -0.085805 0.725877 -0.001972
v -0.091554 0.789905 -0.001497
v -0.091725 0.789883 -0.001397
v -0.085873 0.788614 0.008841
v -0.085694 0.788630 0.008755
v -0.093543 0.710527 -0.011967
v -0.085162 0.715932 -0.001599
v -0.093390 0.710536 -0.012096
v -0.085010 0.715943 -0.001727
v -0.092727 0.699977 -0.011659
v -0.084726 0.705702 -0.001655
v -0.092574 0.699988 -0.011787
v -0.084575 0.705713 -0.001785
v -0.091681 0.689633 -0.011373
v -0.084229 0.695099 -0.001941
v -0.091529 0.689645 -0.011501
v -0.084079 0.695111 -0.002073
v -0.088383 0.795356 0.003884
v -0.088563 0.795354 0.003971
v -0.084146 0.794325 0.013879
v -0.090631 0.678846 -0.011023
v -0.083457 0.684554 -0.002132
v -0.083962 0.794328 0.013801
v -0.090479 0.678855 -0.011153
v -0.083308 0.684566 -0.002265
v -0.089339 0.667953 -0.010086
v -0.082724 0.673834 -0.002069
v -0.089188 0.667964 -0.010217
v -0.082578 0.673845 -0.002205
v -0.079927 0.742619 0.008666
v -0.079058 0.733132 0.008189
v -0.079748 0.742640 0.008580
v -0.078883 0.733156 0.008095
v -0.080657 0.752080 0.009879
v -0.088258 0.656620 -0.009897
v -0.081975 0.662464 -0.001986
v -0.080473 0.752095 0.009803
v -0.088109 0.656636 -0.010029
v -0.081832 0.662478 -0.002125
v -0.077417 0.723530 0.008705
v -0.077245 0.723555 0.008605
v -0.085191 0.802033 0.009790
v -0.085376 0.802046 0.009864
v -0.082134 0.800451 0.018635
v -0.081947 0.800442 0.018566
v -0.080918 0.761390 0.011505
v -0.087368 0.644521 -0.010028
v -0.081020 0.650310 -0.002420
v -0.080730 0.761402 0.011437
v -0.087226 0.644542 -0.010167
v -0.080883 0.650331 -0.002564
v -0.081103 0.770227 0.013748
v -0.086369 0.632317 -0.010491
v -0.079784 0.637793 -0.003559
v -0.081204 0.778295 0.016728
v -0.080914 0.770246 0.013685
v -0.086240 0.632341 -0.010642
v -0.079655 0.637821 -0.003709
v -0.081017 0.778317 0.016662
v -0.085277 0.620818 -0.010839
v -0.078137 0.625840 -0.004864
v -0.085161 0.620839 -0.011000
v -0.078016 0.625865 -0.005021
v -0.076163 0.713826 0.008875
v -0.080908 0.785443 0.019866
v -0.075997 0.713847 0.008766
v -0.080721 0.785459 0.019797
v -0.082241 0.808558 0.015378
v -0.082429 0.808578 0.015441
v -0.080182 0.806782 0.023003
v -0.083867 0.610143 -0.010967
v -0.077096 0.614911 -0.005794
v -0.079992 0.806766 0.022943
v -0.083757 0.610166 -0.011132
v -0.076980 0.614935 -0.005955
v -0.075681 0.703592 0.008282
v -0.075522 0.703611 0.008162
v -0.075581 0.692644 0.007028
v -0.075428 0.692662 0.006899
v -0.075166 0.681749 0.006356
v -0.080264 0.792031 0.023121
v -0.075018 0.681764 0.006222
v -0.080076 0.792041 0.023054
v -0.082211 0.600474 -0.011337
v -0.076086 0.604839 -0.006726
v -0.082108 0.600502 -0.011506
v -0.075975 0.604868 -0.006889
v -0.074556 0.670671 0.005815
v -0.074413 0.670689 0.005677
v -0.073711 0.659221 0.005037
v -0.073575 0.659245 0.004891
v -0.079902 0.814996 0.020227
v -0.078589 0.813310 0.026699
v -0.080094 0.815018 0.020279
v -0.078397 0.813292 0.026646
v -0.080441 0.591441 -0.011466
v -0.074619 0.595577 -0.007529
v -0.079461 0.798628 0.026478
v -0.080349 0.591468 -0.011641
v -0.074513 0.595609 -0.007696
v -0.072916 0.646951 0.003636
v -0.079271 0.798629 0.026415
v -0.072788 0.646981 0.003485
v -0.078067 0.774734 0.026496
v -0.077891 0.782153 0.028365
v -0.078112 0.766866 0.024873
v -0.071455 0.634456 0.001960
v -0.077873 0.774743 0.026448
v -0.077699 0.782162 0.028311
v -0.078066 0.758531 0.023440
v -0.077916 0.766875 0.024831
v -0.077617 0.789292 0.030560
v -0.071330 0.634489 0.001806
v -0.077870 0.758542 0.023403
v -0.077426 0.789302 0.030502
v -0.077458 0.749698 0.022114
v -0.077262 0.749719 0.022081
v -0.078720 0.582646 -0.011482
v -0.072486 0.586952 -0.008191
v -0.078640 0.582668 -0.011664
v -0.072387 0.586982 -0.008363
v -0.077385 0.796374 0.033047
v -0.078397 0.805231 0.029623
v -0.078027 0.821678 0.024116
v -0.077261 0.820052 0.030088
v -0.078220 0.821706 0.024158
v -0.077194 0.796380 0.032986
v -0.078206 0.805221 0.029563
v -0.076208 0.740427 0.021005
v -0.077068 0.820028 0.030038
v -0.069987 0.623141 0.000835
v -0.076013 0.740455 0.020972
v -0.069864 0.623171 0.000680
v -0.076619 0.803324 0.035506
v -0.076430 0.803317 0.035441
v -0.074515 0.730844 0.020239
v -0.074322 0.730880 0.020203
v -0.077056 0.573838 -0.011820
v -0.070938 0.578458 -0.008746
v -0.076980 0.573862 -0.012003
v -0.070845 0.578485 -0.008921
v -0.077088 0.811913 0.032324
v -0.075281 0.810293 0.037589
v -0.076898 0.811901 0.032262
v -0.076044 0.828121 0.027521
v -0.075489 0.826777 0.032937
v -0.076236 0.828163 0.027561
v -0.075094 0.810280 0.037519
v -0.068789 0.612776 -0.000007
v -0.076677 0.764633 0.032072
v -0.076635 0.772349 0.033314
v -0.076886 0.756577 0.031041
v -0.076432 0.779821 0.034537
v -0.075299 0.826739 0.032887
v -0.068669 0.612806 -0.000164
v -0.076480 0.764634 0.032038
v -0.076439 0.772351 0.033275
v -0.076004 0.787184 0.035851
v -0.076687 0.756581 0.031016
v -0.076238 0.779820 0.034489
v -0.075812 0.787188 0.035793
v -0.076589 0.748008 0.030048
v -0.072406 0.721170 0.019676
v -0.075422 0.801986 0.038935
v -0.075867 0.794624 0.037351
v -0.076390 0.748022 0.030036
v -0.075902 0.818796 0.034949
v -0.072215 0.721209 0.019634
v -0.075235 0.801981 0.038863
v -0.075678 0.794630 0.037285
v -0.067728 0.603005 -0.001080
v -0.074223 0.817534 0.039205
v -0.075714 0.818780 0.034884
v -0.075338 0.564920 -0.012522
v -0.069841 0.569745 -0.009424
v -0.075259 0.564950 -0.012703
v -0.069751 0.569773 -0.009600
v -0.067612 0.603039 -0.001239
v -0.074037 0.817520 0.039131
v -0.075653 0.762642 0.038804
v -0.076096 0.754750 0.038069
v -0.075455 0.762640 0.038774
v -0.075897 0.754749 0.038048
v -0.075418 0.770296 0.039459
v -0.075135 0.777825 0.039895
v -0.074273 0.809256 0.040422
v -0.076240 0.746339 0.037510
v -0.075668 0.738904 0.028923
v -0.075221 0.770296 0.039421
v -0.074941 0.777822 0.039847
v -0.074537 0.785338 0.040538
v -0.074088 0.809243 0.040346
v -0.076040 0.746349 0.037503
v -0.075469 0.738931 0.028921
v -0.075635 0.737334 0.037083
v -0.075834 0.737311 0.037076
v -0.074346 0.785337 0.040479
v -0.073769 0.834314 0.030753
v -0.073197 0.833297 0.035365
v -0.073957 0.834366 0.030796
v -0.070386 0.711310 0.019362
v -0.066087 0.593835 -0.002058
v -0.073010 0.833248 0.035313
v -0.070196 0.711344 0.019311
v -0.065972 0.593874 -0.002217
v -0.074303 0.825734 0.037054
v -0.073037 0.824818 0.040463
v -0.074033 0.800672 0.042224
v -0.074268 0.792993 0.041278
v -0.074055 0.729310 0.027594
v -0.074227 0.727734 0.036929
v -0.074423 0.727697 0.036916
v -0.074118 0.825704 0.036986
v -0.072854 0.824793 0.040386
v -0.068430 0.700925 0.018860
v -0.073849 0.800669 0.042147
v -0.074081 0.792998 0.041209
v -0.073859 0.729348 0.027598
v -0.067461 0.690271 0.016913
v -0.068243 0.700957 0.018796
v -0.067282 0.690297 0.016827
v -0.073162 0.808221 0.043251
v -0.073588 0.556214 -0.013381
v -0.068634 0.560943 -0.010208
v -0.073228 0.816657 0.041821
v -0.073508 0.556249 -0.013560
v -0.068544 0.560978 -0.010384
v -0.072979 0.808209 0.043172
v -0.067168 0.679345 0.015384
v -0.073045 0.816643 0.041743
v -0.066998 0.679365 0.015282
v -0.064097 0.585131 -0.002870
v -0.066495 0.667902 0.014387
v -0.063983 0.585168 -0.003030
v -0.066330 0.667930 0.014278
v -0.071957 0.717573 0.036628
v -0.071850 0.719436 0.026641
v -0.072152 0.717531 0.036615
v -0.072232 0.832515 0.038888
v -0.071251 0.831876 0.041750
v -0.072240 0.815816 0.044244
v -0.071655 0.719478 0.026645
v -0.072073 0.824089 0.042937
v -0.072048 0.832472 0.038821
v -0.071070 0.831838 0.041674
v -0.072057 0.815802 0.044163
v -0.071892 0.824066 0.042854
v -0.071244 0.840358 0.033826
v -0.070658 0.839623 0.037717
v -0.071430 0.840415 0.033875
v -0.070473 0.839568 0.037663
v -0.063996 0.656144 0.013670
v -0.072228 0.548431 -0.014120
v -0.066654 0.552463 -0.011000
v -0.063834 0.656180 0.013559
v -0.072153 0.548463 -0.014303
v -0.066567 0.552500 -0.011176
v -0.071077 0.823396 0.045060
v -0.070899 0.823374 0.044972
v -0.070418 0.831350 0.043895
v -0.061898 0.643628 0.012284
v -0.070241 0.831315 0.043810
v -0.061737 0.643663 0.012171
v -0.062640 0.576451 -0.003756
v -0.062528 0.576485 -0.003919
v -0.070606 0.540634 -0.014568
v -0.064575 0.544485 -0.011673
v -0.069057 0.838793 0.043041
v -0.069873 0.839155 0.040650
v -0.070537 0.540663 -0.014753
v -0.064495 0.544521 -0.011853
v -0.069585 0.706983 0.035877
v -0.069682 0.709275 0.025934
v -0.069780 0.706942 0.035865
v -0.069549 0.830852 0.045703
v -0.068878 0.838746 0.042966
v -0.069691 0.839104 0.040586
v -0.069487 0.709315 0.025936
v -0.069374 0.830819 0.045611
v -0.060446 0.631614 0.010820
v -0.068656 0.846417 0.036618
v -0.068042 0.845951 0.039743
v -0.068841 0.846470 0.036673
v -0.060287 0.631649 0.010704
v -0.068376 0.838497 0.044718
v -0.067857 0.845898 0.039687
v -0.068200 0.838453 0.044633
v -0.061675 0.567668 -0.004783
v -0.061568 0.567702 -0.004949
v -0.068698 0.533014 -0.015028
v -0.062524 0.536547 -0.012288
v -0.068634 0.533046 -0.015215
v -0.062450 0.536582 -0.012471
v -0.067692 0.838223 0.046165
v -0.067518 0.838180 0.046075
v -0.059051 0.620768 0.009681
v -0.058896 0.620804 0.009559
v -0.066720 0.845724 0.043967
v -0.067424 0.845828 0.041938
v -0.060472 0.558880 -0.005895
v -0.067558 0.698650 0.025090
v -0.067335 0.696093 0.034544
v -0.067531 0.696053 0.034533
v -0.060371 0.558921 -0.006063
v -0.066540 0.845675 0.043894
v -0.067241 0.845776 0.041876
v -0.067362 0.698688 0.025083
v -0.066194 0.845629 0.045160
v -0.066016 0.845583 0.045080
v -0.066307 0.853003 0.038842
v -0.065723 0.853024 0.041234
v -0.066492 0.853055 0.038898
v -0.057517 0.610671 0.008463
v -0.066600 0.525683 -0.015605
v -0.060569 0.528646 -0.013076
v -0.057369 0.610710 0.008335
v -0.065538 0.852971 0.041179
v -0.066539 0.525720 -0.015792
v -0.060500 0.528684 -0.013260
v -0.058406 0.550289 -0.007012
v -0.058310 0.550335 -0.007182
v -0.065677 0.845540 0.046336
v -0.065500 0.845496 0.046256
v -0.056230 0.600964 0.007002
v -0.056089 0.601005 0.006866
v -0.065162 0.687855 0.024366
v -0.065052 0.685167 0.033263
v -0.065248 0.685130 0.033257
v -0.064539 0.853072 0.044788
v -0.065148 0.853071 0.043018
v -0.064966 0.687888 0.024345
v -0.064354 0.853026 0.044727
v -0.064962 0.853020 0.042963
v -0.063746 0.676897 0.023306
v -0.063552 0.676926 0.023265
v -0.064161 0.853048 0.045810
v -0.056109 0.541915 -0.008074
v -0.064358 0.518514 -0.016370
v -0.058719 0.521126 -0.014019
v -0.056018 0.541961 -0.008247
v -0.064299 0.518557 -0.016557
v -0.058652 0.521168 -0.014203
v -0.063976 0.853006 0.045745
v -0.062555 0.665593 0.021889
v -0.063848 0.860025 0.039269
v -0.063150 0.860270 0.042379
v -0.064035 0.860086 0.039307
v -0.062368 0.665630 0.021832
v -0.062962 0.860213 0.042340
v -0.063782 0.853024 0.046833
v -0.055342 0.591833 0.005383
v -0.063597 0.852984 0.046769
v -0.055207 0.591874 0.005241
v -0.062663 0.674380 0.031934
v -0.062860 0.674345 0.031948
v -0.062390 0.860515 0.045980
v -0.062813 0.860405 0.043899
v -0.062201 0.860467 0.045935
v -0.062625 0.860354 0.043856
v -0.054007 0.533522 -0.009175
v -0.062222 0.860537 0.046878
v -0.053921 0.533566 -0.009350
v -0.061880 0.511069 -0.017381
v -0.057034 0.514028 -0.015151
v -0.062033 0.860491 0.046832
v -0.061824 0.511115 -0.017567
v -0.056967 0.514074 -0.015334
v -0.062054 0.860558 0.047775
v -0.054604 0.583071 0.003752
v -0.060805 0.867839 0.038865
v -0.060277 0.870469 0.043236
v -0.060995 0.867901 0.038883
v -0.060827 0.654155 0.020222
v -0.054474 0.583110 0.003606
v -0.061864 0.860512 0.047731
v -0.060087 0.870415 0.043206
v -0.060642 0.654195 0.020156
v -0.060166 0.663382 0.030342
v -0.060358 0.663342 0.030380
v -0.059478 0.870400 0.047224
v -0.059938 0.870468 0.045084
v -0.053962 0.574406 0.002154
v -0.059288 0.870349 0.047186
v -0.059748 0.870418 0.045046
v -0.052278 0.525131 -0.010476
v -0.053838 0.574446 0.002003
v -0.052196 0.525175 -0.010653
v -0.059304 0.870280 0.048237
v -0.059129 0.870159 0.049249
v -0.059114 0.870228 0.048200
v -0.058940 0.870107 0.049212
v -0.059246 0.642253 0.018482
v -0.058750 0.502402 -0.018518
v -0.055443 0.506483 -0.016646
v -0.058700 0.502445 -0.018707
v -0.055375 0.506529 -0.016829
v -0.059063 0.642290 0.018410
v -0.052998 0.565755 0.000586
v -0.052882 0.565799 0.000429
v -0.057769 0.652200 0.028475
v -0.057582 0.652241 0.028418
v -0.050907 0.517215 -0.011852
v -0.050826 0.517260 -0.012029
v -0.051555 0.557096 -0.000875
v -0.057772 0.630631 0.016785
v -0.051445 0.557144 -0.001036
v -0.057593 0.630669 0.016704
v -0.055905 0.640931 0.026492
v -0.055723 0.640971 0.026420
v -0.056038 0.619804 0.015339
v -0.055865 0.619846 0.015248
v -0.054534 0.490831 -0.019566
v -0.054186 0.497858 -0.018370
v -0.050021 0.509972 -0.013281
v -0.054119 0.497892 -0.018555
v -0.054446 0.490848 -0.019744
v -0.049936 0.510016 -0.013456
v -0.049472 0.548497 -0.002250
v -0.049365 0.548549 -0.002411
v -0.053879 0.629743 0.024203
v -0.053703 0.629786 0.024118
v -0.054219 0.609547 0.013726
v -0.054054 0.609594 0.013625
v -0.052313 0.599762 0.012032
v -0.047327 0.539908 -0.003670
v -0.052155 0.599810 0.011919
v -0.051928 0.618754 0.022162
v -0.047220 0.539959 -0.003831
v -0.051758 0.618801 0.022067
v -0.049894 0.493372 -0.016805
v -0.049478 0.502237 -0.014996
v -0.049799 0.493392 -0.016980
v -0.049387 0.502275 -0.015170
v -0.050792 0.590476 0.010324
v -0.050642 0.590522 0.010200
v -0.049590 0.581554 0.008622
v -0.051555 0.485685 -0.017936
v -0.049448 0.581599 0.008490
v -0.051462 0.485694 -0.018113
v -0.049883 0.608449 0.020067
v -0.049720 0.608501 0.019963
v -0.045636 0.531136 -0.005343
v -0.048454 0.572870 0.006840
v -0.045531 0.531185 -0.005505
v -0.048320 0.572919 0.006700
v -0.047053 0.564309 0.004916
v -0.046927 0.564361 0.004770
v -0.047821 0.598628 0.017599
v -0.044364 0.522328 -0.007149
v -0.044260 0.522374 -0.007314
v -0.047665 0.598680 0.017485
v -0.045909 0.479753 -0.015194
v -0.045584 0.555745 0.003045
v -0.045808 0.479760 -0.015367
v -0.045463 0.555797 0.002894
v -0.042886 0.505893 -0.010503
v -0.043408 0.513862 -0.008872
v -0.042781 0.505931 -0.010668
v -0.043304 0.513905 -0.009038
v -0.046213 0.589266 0.015409
v -0.046064 0.589315 0.015285
v -0.042820 0.497209 -0.012219
v -0.042713 0.497236 -0.012385
v -0.043889 0.487768 -0.013900
v -0.043786 0.487780 -0.014071
v -0.044845 0.580276 0.013391
v -0.044041 0.547155 0.001287
v -0.044702 0.580326 0.013260
v -0.043919 0.547206 0.001138
v -0.043411 0.571575 0.011265
v -0.043276 0.571629 0.011128
v -0.042593 0.538492 -0.000548
v -0.042467 0.538543 -0.000695
v -0.041928 0.563017 0.008991
v -0.041800 0.563072 0.008848
v -0.044613 0.476339 -0.014805
v -0.040715 0.485562 -0.011753
v -0.044504 0.476350 -0.014972
v -0.040602 0.485573 -0.011918
v -0.041335 0.529589 -0.002554
v -0.040609 0.554456 0.006765
v -0.041206 0.529638 -0.002699
v -0.040483 0.554508 0.006619
v -0.043316 0.472925 -0.014415
v -0.037571 0.483399 -0.009610
v -0.043206 0.472937 -0.014582
v -0.037457 0.483412 -0.009774
v -0.040206 0.520622 -0.004508
v -0.040077 0.520668 -0.004653
v -0.039600 0.545743 0.004811
v -0.039470 0.545792 0.004668
v -0.039254 0.495071 -0.009884
v -0.039134 0.495092 -0.010043
v -0.039310 0.511991 -0.006305
v -0.039183 0.512033 -0.006454
v -0.038864 0.503858 -0.008075
v -0.038740 0.503893 -0.008229
v -0.038722 0.536925 0.002749
v -0.038585 0.536974 0.002611
v -0.037787 0.527931 0.000547
v -0.037647 0.527978 0.000412
v -0.035994 0.493134 -0.007585
v -0.035872 0.493153 -0.007743
v -0.036788 0.518933 -0.001513
v -0.036649 0.518978 -0.001649
v -0.035930 0.510299 -0.003504
v -0.035460 0.502046 -0.005628
v -0.035795 0.510341 -0.003645
v -0.035332 0.502079 -0.005778
usemtl Medial_femoral_intermuscular_septum_rMaterial0
f 1 2 3
f 1 4 2
f 1 3 5
f 6 1 5
f 6 7 1
f 1 7 4
f 2 8 3
f 2 9 8
f 2 10 9
f 2 4 10
f 5 3 11
f 6 5 12
f 12 5 13
f 5 11 13
f 3 8 14
f 3 14 11
f 15 6 12
f 15 16 6
f 6 16 7
f 9 17 18
f 17 19 18
f 9 20 17
f 17 21 19
f 17 22 21
f 17 20 22
f 15 12 23
f 23 12 24
f 12 13 24
f 9 18 8
f 8 18 25
f 18 19 26
f 18 26 25
f 9 10 20
f 8 25 14
f 27 15 23
f 27 28 15
f 15 28 16
f 27 23 29
f 29 23 30
f 23 24 30
f 21 31 19
f 21 32 31
f 21 33 32
f 21 22 33
f 19 31 34
f 19 34 26
f 35 27 29
f 35 36 27
f 27 36 28
f 35 29 37
f 37 29 38
f 29 30 38
f 39 35 37
f 39 40 35
f 35 40 36
f 39 37 41
f 41 37 42
f 37 38 42
f 43 39 41
f 43 44 39
f 39 44 40
f 43 41 45
f 45 41 46
f 41 42 46
f 32 47 31
f 32 48 47
f 32 49 48
f 32 33 49
f 50 43 45
f 50 51 43
f 43 51 44
f 31 47 52
f 31 52 34
f 50 45 53
f 53 45 54
f 45 46 54
f 55 50 53
f 55 56 50
f 50 56 51
f 55 53 57
f 57 53 58
f 53 54 58
f 59 4 7
f 60 7 16
f 60 59 7
f 61 13 11
f 62 24 13
f 62 13 61
f 63 10 4
f 59 63 4
f 64 55 57
f 64 65 55
f 55 65 56
f 66 11 14
f 61 11 66
f 64 57 67
f 67 57 68
f 57 58 68
f 69 16 28
f 69 60 16
f 70 30 24
f 70 24 62
f 48 71 47
f 48 72 71
f 48 73 72
f 48 49 73
f 47 71 74
f 47 74 52
f 75 20 10
f 63 75 10
f 76 64 67
f 76 77 64
f 64 77 65
f 78 14 25
f 66 14 78
f 76 67 79
f 79 67 80
f 67 68 80
f 81 22 20
f 75 81 20
f 82 76 79
f 82 83 76
f 76 83 77
f 84 33 22
f 81 84 22
f 85 25 26
f 78 25 85
f 82 79 86
f 86 79 87
f 79 80 87
f 88 26 34
f 85 26 88
f 89 82 86
f 89 90 82
f 82 90 83
f 89 86 91
f 91 86 92
f 86 87 92
f 93 28 36
f 93 69 28
f 94 49 33
f 84 94 33
f 95 38 30
f 95 30 70
f 96 34 52
f 88 34 96
f 72 97 71
f 72 98 97
f 72 99 98
f 72 73 99
f 100 89 91
f 100 101 89
f 89 101 90
f 71 97 102
f 71 102 74
f 100 91 103
f 103 91 104
f 91 92 104
f 105 36 40
f 105 93 36
f 106 42 38
f 106 38 95
f 107 40 44
f 107 105 40
f 108 46 42
f 108 42 106
f 109 44 51
f 109 107 44
f 110 73 49
f 94 110 49
f 111 54 46
f 111 46 108
f 112 52 74
f 96 52 112
f 113 100 103
f 113 114 100
f 100 114 101
f 113 103 115
f 115 103 116
f 103 104 116
f 117 51 56
f 117 109 51
f 118 58 54
f 118 54 111
f 119 56 65
f 119 117 56
f 120 68 58
f 120 58 118
f 98 121 97
f 98 99 122
f 98 123 121
f 98 122 123
f 97 124 102
f 97 121 124
f 125 113 115
f 125 126 113
f 113 126 114
f 110 127 73
f 127 99 73
f 125 115 128
f 128 115 129
f 115 116 129
f 130 65 77
f 130 119 65
f 112 74 131
f 131 74 102
f 132 80 68
f 132 68 120
f 81 133 84
f 84 134 94
f 84 133 134
f 75 135 81
f 81 135 133
f 136 77 83
f 136 130 77
f 85 88 137
f 88 96 138
f 88 138 137
f 63 139 75
f 75 139 135
f 78 85 140
f 85 137 140
f 94 141 110
f 94 134 141
f 142 87 80
f 142 80 132
f 66 78 143
f 78 140 143
f 96 112 144
f 96 144 138
f 59 145 63
f 63 145 139
f 61 66 146
f 66 143 146
f 147 125 128
f 147 148 125
f 125 148 126
f 147 128 149
f 149 128 150
f 128 129 150
f 110 151 127
f 110 141 151
f 127 152 99
f 152 122 99
f 123 153 121
f 123 122 154
f 123 155 153
f 123 154 155
f 112 131 156
f 112 156 144
f 131 102 157
f 157 102 124
f 60 158 59
f 59 158 145
f 121 159 124
f 121 153 159
f 160 83 90
f 160 136 83
f 62 61 161
f 61 146 161
f 162 92 87
f 162 87 142
f 127 163 152
f 127 151 163
f 131 157 164
f 131 164 156
f 69 165 60
f 60 165 158
f 70 62 166
f 62 161 166
f 167 147 149
f 167 168 147
f 147 168 148
f 167 149 169
f 169 149 170
f 149 150 170
f 152 171 122
f 171 154 122
f 152 172 171
f 152 163 172
f 157 124 173
f 173 124 159
f 155 174 153
f 155 154 175
f 155 176 174
f 155 175 176
f 157 173 177
f 157 177 164
f 178 90 101
f 178 160 90
f 179 135 139
f 180 133 135
f 180 135 179
f 181 139 145
f 179 139 181
f 182 134 133
f 182 133 180
f 153 183 159
f 153 174 183
f 184 104 92
f 184 92 162
f 185 143 140
f 186 140 137
f 186 185 140
f 187 141 134
f 187 134 182
f 188 146 143
f 185 188 143
f 189 137 138
f 189 186 137
f 190 138 144
f 190 189 138
f 187 151 141
f 181 145 191
f 191 145 158
f 93 192 69
f 69 192 165
f 190 144 156
f 193 163 151
f 187 194 151
f 193 151 194
f 188 195 146
f 195 161 146
f 171 196 154
f 196 175 154
f 95 70 197
f 70 166 197
f 198 156 164
f 190 156 199
f 198 199 156
f 200 101 114
f 200 178 101
f 171 201 196
f 171 172 201
f 173 159 202
f 202 159 183
f 203 167 169
f 203 204 167
f 167 204 168
f 203 169 205
f 205 169 206
f 169 170 206
f 207 116 104
f 207 104 184
f 173 202 208
f 173 208 177
f 209 179 181
f 210 181 191
f 209 181 210
f 211 188 185
f 212 195 188
f 211 212 188
f 213 180 179
f 213 179 209
f 214 182 180
f 214 180 213
f 215 163 193
f 215 172 163
f 210 191 216
f 216 191 217
f 191 158 217
f 218 185 186
f 218 211 185
f 219 186 189
f 219 218 186
f 220 187 182
f 220 182 214
f 221 198 164
f 221 164 177
f 212 222 195
f 222 223 195
f 195 223 161
f 210 216 222
f 216 224 222
f 216 217 225
f 216 225 224
f 226 189 190
f 226 219 189
f 176 227 174
f 176 175 228
f 176 229 227
f 176 228 229
f 217 158 165
f 105 230 93
f 93 230 192
f 231 114 126
f 231 200 114
f 210 222 212
f 209 210 212
f 222 224 223
f 174 232 183
f 174 227 232
f 106 95 233
f 95 197 233
f 223 166 161
f 220 194 187
f 234 129 116
f 234 116 207
f 209 212 211
f 196 235 175
f 196 236 235
f 196 201 236
f 237 193 194
f 220 238 194
f 237 194 238
f 225 217 239
f 225 240 224
f 225 241 240
f 225 239 241
f 226 190 199
f 202 183 242
f 202 242 243
f 202 243 208
f 107 244 105
f 105 244 230
f 245 199 198
f 226 199 246
f 245 246 199
f 217 165 239
f 213 209 211
f 224 247 223
f 224 240 247
f 109 248 107
f 107 248 244
f 108 106 249
f 106 233 249
f 235 228 175
f 223 247 166
f 213 211 218
f 111 108 250
f 108 249 250
f 214 213 218
f 251 215 193
f 251 193 237
f 252 203 205
f 252 253 203
f 203 253 204
f 242 183 232
f 254 172 215
f 254 201 172
f 252 205 255
f 255 205 256
f 205 206 256
f 257 198 221
f 257 245 198
f 214 218 219
f 117 258 109
f 109 258 248
f 220 214 219
f 259 221 177
f 259 177 208
f 118 111 260
f 111 250 260
f 220 219 226
f 261 126 148
f 261 231 126
f 119 262 117
f 117 262 258
f 238 220 226
f 263 150 129
f 263 129 234
f 239 165 192
f 120 118 264
f 118 260 264
f 241 265 240
f 241 239 266
f 241 267 265
f 241 266 267
f 238 226 246
f 247 197 166
f 235 268 228
f 235 236 269
f 235 269 268
f 237 238 246
f 270 254 215
f 270 215 251
f 240 271 247
f 240 265 271
f 272 201 254
f 272 236 201
f 242 232 273
f 242 274 243
f 242 273 274
f 237 246 245
f 275 221 259
f 275 257 221
f 239 192 266
f 251 237 245
f 276 259 208
f 276 208 243
f 229 277 227
f 229 228 278
f 229 279 277
f 229 278 279
f 247 271 197
f 251 245 257
f 227 280 232
f 227 277 280
f 130 281 119
f 119 281 262
f 282 252 255
f 282 283 252
f 252 283 253
f 132 120 284
f 120 264 284
f 282 255 285
f 285 255 286
f 255 256 286
f 287 254 270
f 287 272 254
f 268 278 228
f 270 251 257
f 288 275 259
f 288 259 276
f 289 236 272
f 289 269 236
f 273 232 280
f 270 257 275
f 136 290 130
f 130 290 281
f 291 276 243
f 291 243 274
f 142 132 292
f 132 284 292
f 293 148 168
f 293 261 148
f 266 192 230
f 294 170 150
f 294 150 263
f 295 282 285
f 295 296 282
f 282 296 283
f 287 270 275
f 268 269 297
f 268 298 278
f 268 297 298
f 271 233 197
f 295 285 299
f 299 285 300
f 285 286 300
f 267 301 265
f 267 266 302
f 267 302 303
f 267 303 301
f 304 272 287
f 304 289 272
f 287 275 288
f 273 305 274
f 273 280 306
f 273 306 305
f 265 307 271
f 265 301 307
f 308 288 276
f 308 276 291
f 266 230 302
f 271 307 233
f 160 309 136
f 136 309 290
f 279 310 277
f 279 278 311
f 279 312 310
f 279 311 312
f 162 142 313
f 142 292 313
f 314 269 289
f 314 297 269
f 277 315 280
f 277 310 315
f 304 287 288
f 316 291 274
f 316 274 305
f 317 168 204
f 317 293 168
f 304 288 308
f 318 206 170
f 318 170 294
f 298 311 278
f 319 295 299
f 319 320 295
f 295 320 296
f 319 299 321
f 321 299 322
f 299 300 322
f 306 280 315
f 323 289 304
f 323 314 289
f 302 230 244
f 324 308 291
f 324 291 316
f 307 249 233
f 178 325 160
f 160 325 309
f 184 162 326
f 162 313 326
f 298 297 327
f 298 328 311
f 298 327 328
f 329 204 253
f 329 317 204
f 303 302 330
f 303 331 301
f 303 330 332
f 303 332 331
f 333 256 206
f 333 206 318
f 302 244 330
f 306 334 305
f 306 315 335
f 306 335 334
f 301 336 307
f 301 331 336
f 323 304 308
f 307 336 249
f 323 308 324
f 337 297 314
f 337 327 297
f 338 316 305
f 338 305 334
f 312 339 310
f 312 311 340
f 312 341 339
f 312 340 341
f 200 342 178
f 178 342 325
f 343 319 321
f 343 344 319
f 319 344 320
f 207 184 345
f 184 326 345
f 310 346 315
f 310 339 346
f 343 321 347
f 347 321 348
f 321 322 348
f 349 253 283
f 349 329 253
f 350 286 256
f 350 256 333
f 330 244 248
f 351 314 323
f 351 337 314
f 336 250 249
f 352 324 316
f 352 316 338
f 328 340 311
f 335 315 346
f 231 353 200
f 200 353 342
f 351 323 324
f 234 207 354
f 207 345 354
f 332 330 355
f 330 248 355
f 332 356 331
f 332 355 357
f 332 357 356
f 351 324 352
f 355 248 258
f 328 327 358
f 328 359 340
f 328 358 359
f 331 360 336
f 336 360 250
f 331 356 360
f 360 260 250
f 335 361 334
f 335 346 362
f 335 362 361
f 363 258 262
f 355 258 363
f 364 264 260
f 360 364 260
f 365 327 337
f 365 358 327
f 366 283 296
f 366 349 283
f 367 343 347
f 368 343 367
f 343 368 344
f 369 300 286
f 369 286 350
f 367 347 370
f 371 370 347
f 347 348 371
f 372 338 334
f 372 334 361
f 373 262 281
f 363 262 373
f 341 374 339
f 341 340 375
f 341 376 374
f 341 375 376
f 377 284 264
f 364 377 264
f 339 378 346
f 339 374 378
f 379 337 351
f 379 365 337
f 261 380 231
f 231 380 353
f 381 352 338
f 381 338 372
f 263 234 382
f 234 354 382
f 359 375 340
f 379 351 352
f 362 346 378
f 379 352 381
f 357 355 363
f 357 383 356
f 357 363 384
f 357 384 383
f 359 358 385
f 359 386 375
f 359 385 386
f 356 364 360
f 356 383 364
f 362 387 361
f 362 378 388
f 362 388 387
f 389 296 320
f 389 366 296
f 390 358 365
f 390 385 358
f 391 322 300
f 391 300 369
f 392 367 370
f 392 393 367
f 368 367 393
f 394 372 361
f 394 361 387
f 392 370 395
f 395 370 396
f 371 396 370
f 397 365 379
f 397 390 365
f 293 398 261
f 261 398 380
f 376 399 374
f 376 375 400
f 376 401 399
f 376 400 401
f 373 281 402
f 402 281 290
f 294 263 403
f 263 382 403
f 404 381 372
f 404 372 394
f 374 405 378
f 374 399 405
f 377 406 284
f 406 292 284
f 397 379 381
f 384 363 373
f 397 381 404
f 383 377 364
f 386 400 375
f 388 378 405
f 384 407 383
f 384 373 408
f 384 408 407
f 386 385 409
f 386 410 400
f 386 409 410
f 383 407 377
f 317 411 293
f 293 411 398
f 388 412 387
f 388 405 413
f 388 413 412
f 408 373 402
f 414 320 344
f 414 389 320
f 318 294 415
f 294 403 415
f 416 348 322
f 416 322 391
f 417 385 390
f 417 409 385
f 407 406 377
f 418 390 397
f 418 417 390
f 419 394 387
f 419 387 412
f 418 397 404
f 420 404 394
f 420 394 419
f 402 290 421
f 421 290 309
f 422 392 395
f 423 392 422
f 392 423 393
f 418 404 420
f 422 395 424
f 425 424 395
f 395 396 425
f 406 426 292
f 426 313 292
f 329 427 317
f 317 427 411
f 333 318 428
f 318 415 428
f 401 405 399
f 401 400 405
f 408 402 429
f 429 402 421
f 407 430 406
f 430 426 406
f 431 344 368
f 431 414 344
f 432 371 348
f 432 348 416
f 349 433 329
f 329 433 427
f 421 309 434
f 434 309 325
f 350 333 435
f 333 428 435
f 408 430 407
f 408 429 430
f 426 436 313
f 436 326 313
f 400 413 405
f 400 410 413
f 410 412 413
f 410 409 412
f 409 417 419
f 409 419 412
f 417 418 420
f 417 420 419
f 437 421 434
f 429 421 437
f 438 436 426
f 430 438 426
f 434 325 439
f 439 325 342
f 436 440 326
f 440 345 326
f 441 422 424
f 423 422 442
f 441 442 422
f 443 368 393
f 443 431 368
f 425 444 424
f 441 424 445
f 445 424 444
f 446 396 371
f 446 371 432
f 366 447 349
f 349 447 433
f 369 350 448
f 350 435 448
f 449 434 439
f 437 434 449
f 429 438 430
f 429 437 438
f 450 440 436
f 438 450 436
f 451 342 353
f 439 342 451
f 452 354 345
f 440 452 345
f 443 393 423
f 446 425 396
f 453 353 380
f 451 353 453
f 389 454 366
f 366 454 447
f 455 382 354
f 452 455 354
f 456 439 451
f 449 439 456
f 391 369 457
f 369 448 457
f 437 450 438
f 437 449 450
f 458 452 440
f 450 458 440
f 423 442 459
f 443 423 460
f 423 459 460
f 425 461 444
f 446 462 425
f 425 462 461
f 463 380 398
f 453 380 463
f 464 403 382
f 455 464 382
f 465 398 411
f 463 398 465
f 466 441 445
f 466 442 441
f 467 415 403
f 464 467 403
f 468 445 444
f 466 445 468
f 469 451 453
f 456 451 469
f 466 459 442
f 468 444 461
f 470 455 452
f 458 470 452
f 414 471 389
f 389 471 454
f 472 411 427
f 465 411 472
f 416 391 473
f 391 457 473
f 449 458 450
f 449 456 458
f 474 428 415
f 467 474 415
f 475 427 433
f 472 427 475
f 476 435 428
f 474 476 428
f 477 453 463
f 469 453 477
f 431 478 414
f 414 478 471
f 432 416 479
f 416 473 479
f 480 464 455
f 470 480 455
f 456 470 458
f 456 469 470
f 481 466 468
f 481 459 466
f 482 433 447
f 475 433 482
f 483 468 461
f 481 468 483
f 484 448 435
f 476 484 435
f 485 431 443
f 431 486 478
f 485 486 431
f 487 446 432
f 432 479 488
f 487 432 488
f 489 463 465
f 477 463 489
f 490 467 464
f 480 490 464
f 491 443 460
f 491 485 443
f 492 462 446
f 492 446 487
f 493 460 459
f 481 493 459
f 469 480 470
f 469 477 480
f 494 461 462
f 483 461 494
f 495 465 472
f 489 465 495
f 493 491 460
f 496 447 454
f 482 447 496
f 497 474 467
f 490 497 467
f 494 462 492
f 498 457 448
f 484 498 448
f 499 472 475
f 495 472 499
f 500 476 474
f 497 500 474
f 477 490 480
f 477 489 490
f 501 454 471
f 496 454 501
f 502 473 457
f 498 502 457
f 503 475 482
f 499 475 503
f 504 484 476
f 500 504 476
f 489 497 490
f 489 495 497
f 505 481 483
f 506 481 505
f 506 493 481
f 505 483 507
f 508 507 483
f 508 483 494
f 509 471 478
f 501 471 509
f 510 482 496
f 503 482 510
f 511 479 473
f 502 511 473
f 512 498 484
f 504 512 484
f 495 500 497
f 495 499 500
f 513 505 507
f 514 505 513
f 514 506 505
f 513 507 515
f 516 515 507
f 516 507 508
f 517 478 486
f 509 478 517
f 518 488 479
f 511 518 479
f 519 496 501
f 510 496 519
f 520 502 498
f 512 520 498
f 521 491 493
f 521 493 506
f 522 494 492
f 522 508 494
f 485 523 486
f 517 486 523
f 499 504 500
f 499 503 504
f 514 513 515
f 487 488 524
f 518 524 488
f 514 515 516
f 525 485 491
f 485 525 523
f 525 491 521
f 526 492 487
f 487 524 526
f 526 522 492
f 527 501 509
f 519 501 527
f 528 511 502
f 520 528 502
f 503 512 504
f 503 510 512
f 529 509 517
f 527 509 529
f 530 518 511
f 528 530 511
f 531 521 506
f 531 506 514
f 532 508 522
f 532 516 508
f 510 520 512
f 510 519 520
f 533 517 523
f 529 517 533
f 534 524 518
f 530 534 518
f 519 528 520
f 519 527 528
f 525 535 523
f 533 523 535
f 536 525 521
f 536 521 531
f 526 524 537
f 534 537 524
f 538 522 526
f 538 532 522
f 525 536 535
f 526 537 538
f 527 530 528
f 527 529 530
f 529 534 530
f 529 533 534
f 531 514 516
f 531 516 532
f 533 537 534
f 533 535 537
f 536 531 532
f 535 538 537
f 535 536 538
f 536 532 538
