# 
# Wavefront OBJ file
# Created with Kaydara FBX
# 
mtllib c:\users\tjvan\onedrive\documenten\fontys\minor\nx\.mtlmodels\middle_genicular_artery.r.obj

g Middle_genicular_artery_r
v -0.076178 0.436931 -0.055519
v -0.075544 0.435885 -0.054963
v -0.076238 0.436620 -0.055771
v -0.075425 0.435668 -0.055241
v -0.076116 0.436392 -0.056083
v -0.075951 0.437243 -0.055395
v -0.075497 0.436181 -0.054743
v -0.075173 0.435589 -0.055503
v -0.075844 0.436309 -0.056371
v -0.075618 0.437471 -0.055431
v -0.075297 0.436478 -0.054640
v -0.074855 0.435669 -0.055679
v -0.075495 0.436392 -0.056558
v -0.074998 0.436696 -0.054683
v -0.075269 0.437554 -0.055618
v -0.074892 0.435282 -0.054202
v -0.074773 0.435072 -0.054441
v -0.074863 0.435566 -0.054019
v -0.074556 0.435887 -0.055722
v -0.075162 0.436620 -0.056594
v -0.074537 0.434993 -0.054672
v -0.074693 0.435849 -0.053941
v -0.074680 0.436776 -0.054859
v -0.074997 0.437471 -0.055906
v -0.074247 0.435067 -0.054832
v -0.074356 0.436184 -0.055619
v -0.074935 0.436931 -0.056469
v -0.074427 0.436055 -0.053988
v -0.074874 0.437243 -0.056218
v -0.074428 0.436697 -0.055121
v -0.074310 0.436480 -0.055399
v -0.074293 0.434817 -0.053453
v -0.074168 0.434613 -0.053645
v -0.074284 0.435090 -0.053313
v -0.073981 0.435273 -0.054880
v -0.073943 0.434531 -0.053837
v -0.074144 0.435359 -0.053262
v -0.074137 0.436129 -0.054149
v -0.073810 0.435556 -0.054802
v -0.073678 0.434595 -0.053979
v -0.073910 0.435550 -0.053315
v -0.073900 0.436050 -0.054380
v -0.073781 0.435840 -0.054619
v -0.073752 0.434496 -0.052682
v -0.073620 0.434299 -0.052820
v -0.073763 0.434754 -0.052589
v -0.073444 0.434787 -0.054031
v -0.073404 0.434216 -0.052968
v -0.073652 0.435004 -0.052567
v -0.073645 0.435614 -0.053456
v -0.073304 0.435055 -0.053980
v -0.073162 0.434269 -0.053085
v -0.073448 0.435178 -0.052622
v -0.073420 0.435533 -0.053648
v -0.073295 0.435328 -0.053840
v -0.073274 0.434320 -0.051851
v -0.073302 0.434556 -0.051805
v -0.073140 0.434138 -0.051935
v -0.072958 0.434444 -0.053139
v -0.072935 0.434058 -0.052036
v -0.073216 0.434782 -0.051810
v -0.073205 0.435231 -0.052739
v -0.072847 0.434693 -0.053118
v -0.073039 0.434937 -0.051864
v -0.072990 0.435148 -0.052886
v -0.072715 0.434101 -0.052125
v -0.072865 0.434294 -0.050921
v -0.072902 0.434500 -0.050914
v -0.072858 0.434951 -0.053025
v -0.072736 0.434135 -0.050959
v -0.072835 0.434697 -0.050939
v -0.072819 0.434981 -0.051953
v -0.072538 0.434257 -0.052179
v -0.072548 0.434064 -0.051016
v -0.072683 0.434831 -0.050989
v -0.072614 0.434900 -0.052054
v -0.072452 0.434483 -0.052184
v -0.072352 0.434100 -0.051079
v -0.072530 0.434423 -0.049852
v -0.072567 0.434594 -0.049870
v -0.072414 0.434290 -0.049856
v -0.072480 0.434718 -0.052138
v -0.072515 0.434759 -0.049906
v -0.072487 0.434868 -0.051052
v -0.072250 0.434233 -0.049882
v -0.072201 0.434235 -0.051129
v -0.072387 0.434872 -0.049950
v -0.072300 0.434797 -0.051109
v -0.072276 0.434713 -0.048605
v -0.072308 0.434850 -0.048635
v -0.072081 0.434265 -0.049922
v -0.072134 0.434431 -0.051154
v -0.072178 0.434609 -0.048590
v -0.072267 0.434982 -0.048673
v -0.072170 0.434637 -0.051147
v -0.072219 0.434904 -0.049990
v -0.072042 0.434565 -0.048595
v -0.072163 0.435074 -0.048709
v -0.071953 0.434378 -0.049965
v -0.072054 0.434846 -0.050015
v -0.072110 0.435171 -0.047143
v -0.072136 0.435274 -0.047175
v -0.072033 0.435094 -0.047121
v -0.072104 0.435375 -0.047209
v -0.071903 0.434593 -0.048619
v -0.071901 0.434543 -0.050001
v -0.072024 0.435102 -0.048732
v -0.072074 0.436619 -0.043431
v -0.072219 0.437619 -0.041111
v -0.072210 0.437611 -0.041106
v -0.072085 0.436660 -0.043448
v -0.072222 0.437631 -0.041116
v -0.072043 0.436589 -0.043417
v -0.072198 0.437608 -0.041104
v -0.071999 0.436578 -0.043409
v -0.072185 0.437611 -0.041104
v -0.072072 0.436701 -0.043464
v -0.072219 0.437642 -0.041120
v -0.071994 0.436741 -0.043475
v -0.072197 0.437654 -0.041123
v -0.072209 0.437651 -0.041123
v -0.072039 0.436730 -0.043474
v -0.071950 0.436730 -0.043468
v -0.072184 0.437651 -0.041121
v -0.071927 0.435062 -0.047116
v -0.071938 0.434714 -0.050019
v -0.072024 0.435447 -0.047235
v -0.071955 0.436589 -0.043411
v -0.072176 0.437620 -0.041106
v -0.071922 0.436618 -0.043421
v -0.072172 0.437631 -0.041111
v -0.071909 0.436659 -0.043436
v -0.072175 0.437643 -0.041116
v -0.071919 0.436700 -0.043454
v -0.072040 0.435805 -0.045430
v -0.072058 0.435876 -0.045457
v -0.071986 0.435752 -0.045409
v -0.072036 0.435947 -0.045482
v -0.071799 0.434685 -0.048654
v -0.071979 0.435997 -0.045500
v -0.071888 0.435058 -0.048737
v -0.071819 0.435086 -0.047128
v -0.071916 0.435470 -0.047247
v -0.071911 0.435731 -0.045400
v -0.071903 0.436015 -0.045505
v -0.071828 0.435995 -0.045497
v -0.071757 0.434817 -0.048692
v -0.071835 0.435749 -0.045406
v -0.071774 0.435942 -0.045476
v -0.071790 0.434954 -0.048722
v -0.071739 0.435158 -0.047154
v -0.071810 0.435439 -0.047241
v -0.071778 0.435800 -0.045423
v -0.071756 0.435870 -0.045449
v -0.071733 0.435362 -0.047220
v -0.071707 0.435258 -0.047188
v -0.074342 0.436990 -0.046196
v -0.074375 0.437736 -0.044697
v -0.074369 0.437700 -0.044679
v -0.074289 0.438588 -0.042861
v -0.074335 0.436947 -0.046174
v -0.074343 0.437670 -0.044665
v -0.074268 0.438564 -0.042850
v -0.074324 0.437031 -0.046216
v -0.074359 0.437771 -0.044714
v -0.074294 0.438619 -0.042875
v -0.074286 0.437059 -0.046227
v -0.074327 0.437794 -0.044725
v -0.074282 0.438647 -0.042889
v -0.074219 0.436369 -0.047420
v -0.074305 0.436914 -0.046155
v -0.074211 0.436320 -0.047394
v -0.074198 0.436417 -0.047441
v -0.074155 0.436450 -0.047452
v -0.074305 0.437657 -0.044658
v -0.074237 0.438551 -0.042847
v -0.074238 0.437067 -0.046227
v -0.074286 0.437799 -0.044728
v -0.074255 0.438665 -0.042900
v -0.074260 0.436899 -0.046145
v -0.074177 0.436283 -0.047370
v -0.074264 0.437662 -0.044661
v -0.074203 0.438555 -0.042850
v -0.074100 0.436461 -0.047448
v -0.074192 0.437052 -0.046217
v -0.074248 0.437785 -0.044721
v -0.074221 0.438669 -0.042904
v -0.074073 0.439626 -0.040672
v -0.074057 0.439606 -0.040665
v -0.074077 0.439650 -0.040683
v -0.074067 0.439672 -0.040694
v -0.074212 0.436907 -0.046145
v -0.074125 0.436268 -0.047354
v -0.074048 0.436445 -0.047432
v -0.074232 0.437685 -0.044672
v -0.074177 0.438573 -0.042861
v -0.074174 0.436935 -0.046156
v -0.074216 0.437719 -0.044689
v -0.074164 0.438601 -0.042875
v -0.074162 0.437018 -0.046198
v -0.074222 0.437756 -0.044707
v -0.074190 0.438656 -0.042900
v -0.074032 0.439596 -0.040663
v -0.074006 0.439598 -0.040667
v -0.074046 0.439686 -0.040703
v -0.074030 0.435861 -0.048416
v -0.074021 0.435806 -0.048386
v -0.074007 0.435916 -0.048438
v -0.073959 0.435956 -0.048446
v -0.074071 0.436278 -0.047351
v -0.074014 0.436408 -0.047408
v -0.074156 0.436976 -0.046176
v -0.074169 0.438632 -0.042889
v -0.073985 0.439612 -0.040676
v -0.074020 0.439688 -0.040707
v -0.073995 0.439678 -0.040706
v -0.073983 0.435765 -0.048356
v -0.073897 0.435970 -0.048438
v -0.074027 0.436312 -0.047361
v -0.074006 0.436360 -0.047382
v -0.073975 0.439634 -0.040688
v -0.073979 0.439658 -0.040698
v -0.073926 0.435750 -0.048334
v -0.073840 0.435955 -0.048416
v -0.073865 0.435764 -0.048325
v -0.073802 0.435914 -0.048385
v -0.073684 0.440809 -0.038061
v -0.073666 0.440801 -0.038061
v -0.073695 0.440824 -0.038066
v -0.073698 0.440841 -0.038074
v -0.073691 0.440857 -0.038082
v -0.073676 0.440867 -0.038089
v -0.073799 0.435455 -0.049230
v -0.073789 0.435393 -0.049196
v -0.073774 0.435517 -0.049251
v -0.073721 0.435564 -0.049256
v -0.073816 0.435804 -0.048333
v -0.073793 0.435859 -0.048355
v -0.073647 0.440803 -0.038064
v -0.073632 0.440813 -0.038071
v -0.073657 0.440868 -0.038092
v -0.073639 0.440861 -0.038092
v -0.073747 0.435349 -0.049160
v -0.073625 0.440829 -0.038080
v -0.073627 0.440846 -0.038087
v -0.073655 0.435582 -0.049242
v -0.073684 0.435334 -0.049132
v -0.073592 0.435568 -0.049213
v -0.073618 0.435353 -0.049117
v -0.073550 0.435524 -0.049177
v -0.073550 0.435140 -0.049906
v -0.073539 0.435072 -0.049871
v -0.073524 0.435211 -0.049926
v -0.073468 0.435265 -0.049926
v -0.073565 0.435399 -0.049122
v -0.073540 0.435462 -0.049143
v -0.073492 0.435023 -0.049831
v -0.073396 0.435287 -0.049906
v -0.073424 0.435008 -0.049796
v -0.073352 0.435031 -0.049776
v -0.073328 0.435272 -0.049871
v -0.073282 0.435224 -0.049831
v -0.073296 0.435084 -0.049776
v -0.073310 0.434908 -0.050488
v -0.073284 0.434987 -0.050505
v -0.073270 0.435155 -0.049796
v -0.073295 0.434831 -0.050454
v -0.073224 0.435048 -0.050501
v -0.073244 0.434777 -0.050413
v -0.073146 0.435073 -0.050476
v -0.073169 0.434760 -0.050375
v -0.073071 0.435057 -0.050438
v -0.073091 0.434785 -0.050351
v -0.073020 0.435002 -0.050397
v -0.073105 0.434746 -0.051018
v -0.073086 0.434660 -0.050989
v -0.073078 0.434834 -0.051030
v -0.073031 0.434846 -0.050347
v -0.073014 0.434900 -0.051024
v -0.073005 0.434925 -0.050364
v -0.073026 0.434599 -0.050952
v -0.072929 0.434927 -0.051000
v -0.072943 0.434579 -0.050917
v -0.072845 0.434907 -0.050964
v -0.072957 0.434642 -0.051538
v -0.072931 0.434738 -0.051547
v -0.072934 0.434547 -0.051518
v -0.072858 0.434606 -0.050893
v -0.072861 0.434809 -0.051541
v -0.072786 0.434846 -0.050928
v -0.072866 0.434478 -0.051492
v -0.072793 0.434672 -0.050886
v -0.072766 0.434836 -0.051524
v -0.072767 0.434760 -0.050899
v -0.072888 0.434582 -0.052098
v -0.072860 0.434685 -0.052104
v -0.072861 0.434479 -0.052089
v -0.072772 0.434454 -0.051467
v -0.072783 0.434761 -0.052104
v -0.072672 0.434812 -0.051499
v -0.072785 0.434403 -0.052078
v -0.072677 0.434482 -0.051450
v -0.072680 0.434789 -0.052099
v -0.072604 0.434744 -0.051473
v -0.072682 0.434375 -0.052070
v -0.072607 0.434553 -0.051444
v -0.072580 0.434649 -0.051453
v -0.072576 0.434761 -0.052091
v -0.072578 0.434403 -0.052065
v -0.072501 0.434685 -0.052080
v -0.072502 0.434479 -0.052066
v -0.072474 0.434582 -0.052071
usemtl Middle_genicular_artery_rMaterial0
f 1 2 3
f 3 4 5
f 3 2 4
f 6 7 1
f 1 7 2
f 5 8 9
f 5 4 8
f 10 11 6
f 6 11 7
f 9 12 13
f 9 8 12
f 10 14 11
f 15 14 10
f 7 16 2
f 2 17 4
f 2 16 17
f 11 18 7
f 7 18 16
f 13 19 20
f 13 12 19
f 4 21 8
f 4 17 21
f 14 22 11
f 11 22 18
f 15 23 14
f 24 23 15
f 8 25 12
f 8 21 25
f 20 26 27
f 20 19 26
f 14 28 22
f 23 28 14
f 29 30 24
f 24 30 23
f 27 31 29
f 27 26 31
f 18 32 16
f 16 33 17
f 16 32 33
f 29 31 30
f 22 34 18
f 18 34 32
f 12 35 19
f 12 25 35
f 17 36 21
f 17 33 36
f 28 37 22
f 22 37 34
f 23 38 28
f 30 38 23
f 19 39 26
f 19 35 39
f 21 40 25
f 21 36 40
f 28 41 37
f 38 41 28
f 31 42 30
f 30 42 38
f 26 43 31
f 26 39 43
f 31 43 42
f 34 44 32
f 32 45 33
f 32 44 45
f 37 46 34
f 34 46 44
f 25 47 35
f 25 40 47
f 33 48 36
f 33 45 48
f 41 49 37
f 37 49 46
f 38 50 41
f 42 50 38
f 35 51 39
f 35 47 51
f 36 52 40
f 36 48 52
f 41 53 49
f 50 53 41
f 43 54 42
f 42 54 50
f 39 55 43
f 39 51 55
f 43 55 54
f 46 56 44
f 49 57 46
f 46 57 56
f 44 58 45
f 44 56 58
f 40 59 47
f 40 52 59
f 45 60 48
f 45 58 60
f 53 61 49
f 49 61 57
f 50 62 53
f 54 62 50
f 47 63 51
f 47 59 63
f 53 64 61
f 62 64 53
f 55 65 54
f 54 65 62
f 48 66 52
f 48 60 66
f 57 67 56
f 61 68 57
f 57 68 67
f 51 69 55
f 51 63 69
f 55 69 65
f 56 70 58
f 56 67 70
f 64 71 61
f 61 71 68
f 62 72 64
f 65 72 62
f 52 73 59
f 52 66 73
f 58 74 60
f 58 70 74
f 64 75 71
f 72 75 64
f 69 76 65
f 65 76 72
f 59 77 63
f 59 73 77
f 60 78 66
f 60 74 78
f 68 79 67
f 71 80 68
f 68 80 79
f 67 81 70
f 67 79 81
f 63 82 69
f 69 82 76
f 63 77 82
f 75 83 71
f 71 83 80
f 72 84 75
f 76 84 72
f 70 85 74
f 70 81 85
f 66 86 73
f 66 78 86
f 75 87 83
f 84 87 75
f 82 88 76
f 76 88 84
f 80 89 79
f 83 90 80
f 80 90 89
f 74 91 78
f 74 85 91
f 73 92 77
f 73 86 92
f 79 93 81
f 79 89 93
f 87 94 83
f 83 94 90
f 77 95 82
f 82 95 88
f 84 96 87
f 88 96 84
f 77 92 95
f 81 97 85
f 81 93 97
f 87 98 94
f 96 98 87
f 78 99 86
f 78 91 99
f 88 100 96
f 95 100 88
f 90 101 89
f 94 102 90
f 90 102 101
f 89 103 93
f 89 101 103
f 98 104 94
f 94 104 102
f 85 105 91
f 85 97 105
f 86 106 92
f 86 99 106
f 96 107 98
f 100 107 96
f 108 109 110
f 111 112 109
f 111 109 108
f 113 110 114
f 108 110 113
f 115 114 116
f 113 114 115
f 117 118 112
f 117 112 111
f 119 120 121
f 122 121 118
f 119 121 122
f 123 124 120
f 123 120 119
f 122 118 117
f 93 125 97
f 93 103 125
f 92 126 95
f 95 126 100
f 98 127 104
f 107 127 98
f 128 116 129
f 130 129 131
f 128 129 130
f 115 116 128
f 132 131 133
f 130 131 132
f 134 133 124
f 134 124 123
f 132 133 134
f 92 106 126
f 102 135 101
f 104 136 102
f 102 136 135
f 101 137 103
f 101 135 137
f 104 138 136
f 127 138 104
f 91 139 99
f 91 105 139
f 136 111 108
f 136 108 135
f 135 108 113
f 138 117 111
f 138 111 136
f 140 117 138
f 140 122 117
f 100 141 107
f 126 141 100
f 97 142 105
f 97 125 142
f 107 143 127
f 141 143 107
f 103 137 144
f 103 144 125
f 127 140 138
f 143 140 127
f 135 113 137
f 137 113 115
f 145 122 140
f 145 119 122
f 137 115 144
f 143 145 140
f 144 115 128
f 146 123 119
f 146 119 145
f 99 147 106
f 99 139 147
f 144 128 148
f 148 128 130
f 149 134 123
f 149 123 146
f 106 150 126
f 126 150 141
f 106 147 150
f 105 142 151
f 105 151 139
f 125 144 148
f 125 148 142
f 152 145 143
f 141 152 143
f 152 146 145
f 153 130 132
f 148 130 153
f 154 132 134
f 153 132 154
f 154 134 149
f 150 152 141
f 142 148 153
f 142 153 151
f 155 146 152
f 150 155 152
f 155 149 146
f 139 156 147
f 139 151 156
f 147 155 150
f 151 153 154
f 156 154 149
f 156 149 155
f 147 156 155
f 151 154 156
f 157 158 159
f 158 160 159
f 157 159 161
f 161 159 162
f 159 163 162
f 159 160 163
f 164 165 158
f 165 166 158
f 164 158 157
f 158 166 160
f 167 165 164
f 167 168 165
f 168 169 165
f 165 169 166
f 170 157 161
f 161 162 171
f 172 161 171
f 170 161 172
f 173 164 157
f 173 157 170
f 174 167 164
f 174 164 173
f 171 162 175
f 162 176 175
f 162 163 176
f 177 168 167
f 177 178 168
f 178 179 168
f 168 179 169
f 171 175 180
f 181 171 180
f 172 171 181
f 180 175 182
f 175 183 182
f 175 176 183
f 184 177 167
f 184 167 174
f 185 178 177
f 185 186 178
f 186 187 178
f 178 187 179
f 166 188 160
f 160 189 163
f 160 188 189
f 169 190 166
f 166 190 188
f 179 191 169
f 169 191 190
f 180 182 192
f 193 180 192
f 181 180 193
f 194 185 177
f 194 177 184
f 192 182 195
f 182 196 195
f 182 183 196
f 192 195 197
f 197 195 198
f 195 199 198
f 195 196 199
f 200 186 185
f 201 202 186
f 200 201 186
f 186 202 187
f 163 203 176
f 176 204 183
f 176 203 204
f 163 189 203
f 187 205 179
f 179 205 191
f 206 170 172
f 207 172 181
f 206 172 207
f 208 173 170
f 208 170 206
f 209 174 173
f 209 173 208
f 210 192 197
f 193 192 210
f 211 200 185
f 211 185 194
f 212 198 201
f 198 213 201
f 197 198 212
f 198 199 213
f 201 213 202
f 212 201 200
f 183 214 196
f 183 204 214
f 202 215 187
f 213 216 202
f 202 216 215
f 187 215 205
f 217 181 193
f 207 181 217
f 218 184 174
f 218 174 209
f 219 197 212
f 210 197 219
f 220 212 200
f 219 212 220
f 220 200 211
f 196 221 199
f 196 214 221
f 199 222 213
f 199 221 222
f 213 222 216
f 223 193 210
f 217 193 223
f 224 194 184
f 224 184 218
f 225 210 219
f 223 210 225
f 226 211 194
f 226 194 224
f 188 227 189
f 189 228 203
f 189 227 228
f 190 229 188
f 188 229 227
f 191 230 190
f 190 230 229
f 205 231 191
f 191 231 230
f 215 232 205
f 205 232 231
f 233 206 207
f 234 207 217
f 233 207 234
f 235 208 206
f 235 206 233
f 236 209 208
f 236 208 235
f 237 219 220
f 225 219 237
f 238 220 211
f 237 220 238
f 238 211 226
f 203 239 204
f 204 240 214
f 204 239 240
f 203 228 239
f 216 241 215
f 215 241 232
f 222 242 216
f 216 242 241
f 243 217 223
f 234 217 243
f 214 244 221
f 214 240 244
f 221 245 222
f 221 244 245
f 222 245 242
f 246 218 209
f 246 209 236
f 247 223 225
f 243 223 247
f 248 224 218
f 248 218 246
f 249 225 237
f 247 225 249
f 250 226 224
f 250 224 248
f 251 233 234
f 252 234 243
f 251 234 252
f 253 235 233
f 253 233 251
f 254 236 235
f 254 235 253
f 255 237 238
f 249 237 255
f 256 238 226
f 255 238 256
f 256 226 250
f 257 243 247
f 252 243 257
f 258 246 236
f 258 236 254
f 259 247 249
f 257 247 259
f 260 249 255
f 259 249 260
f 261 248 246
f 261 246 258
f 262 250 248
f 262 248 261
f 263 255 256
f 260 255 263
f 264 251 252
f 265 253 251
f 265 251 264
f 266 256 250
f 266 250 262
f 267 252 257
f 264 252 267
f 263 256 266
f 268 254 253
f 268 253 265
f 269 257 259
f 267 257 269
f 270 258 254
f 270 254 268
f 271 259 260
f 269 259 271
f 272 261 258
f 272 258 270
f 273 260 263
f 271 260 273
f 274 262 261
f 274 261 272
f 275 264 267
f 276 267 269
f 275 267 276
f 277 265 264
f 277 264 275
f 278 263 266
f 273 263 278
f 279 268 265
f 279 265 277
f 280 266 262
f 278 266 280
f 280 262 274
f 281 269 271
f 276 269 281
f 282 270 268
f 282 268 279
f 283 271 273
f 281 271 283
f 284 272 270
f 284 270 282
f 285 275 276
f 286 277 275
f 286 275 285
f 287 276 281
f 285 276 287
f 288 273 278
f 283 273 288
f 289 279 277
f 289 277 286
f 290 274 272
f 290 272 284
f 287 281 291
f 291 281 283
f 292 278 280
f 288 278 292
f 293 282 279
f 293 279 289
f 294 280 274
f 292 280 294
f 294 274 290
f 295 285 287
f 296 286 285
f 296 285 295
f 295 287 297
f 297 287 291
f 291 283 298
f 298 283 288
f 299 286 296
f 299 289 286
f 300 284 282
f 300 282 293
f 297 291 301
f 301 291 298
f 302 288 292
f 298 288 302
f 303 289 299
f 303 293 289
f 304 290 284
f 304 284 300
f 301 298 305
f 306 292 294
f 302 292 306
f 307 294 290
f 307 290 304
f 305 298 302
f 306 294 307
f 308 293 303
f 308 300 293
f 305 302 309
f 309 302 306
f 310 304 300
f 310 300 308
f 309 306 311
f 311 306 307
f 312 307 304
f 312 304 310
f 311 307 312
