# 
# Wavefront OBJ file
# Created with Kaydara FBX
# 
mtllib c:\users\tjvan\onedrive\documenten\fontys\minor\nx\.mtlmodels\middle_genicular_vein.r.obj

g Middle_genicular_vein_r
v -0.079679 0.436657 -0.056350
v -0.079101 0.435731 -0.055422
v -0.079659 0.436348 -0.056545
v -0.079525 0.436966 -0.056230
v -0.079126 0.436025 -0.055256
v -0.078924 0.435519 -0.055617
v -0.079470 0.436122 -0.056761
v -0.079238 0.437192 -0.056216
v -0.078992 0.436322 -0.055164
v -0.078642 0.435446 -0.055789
v -0.079163 0.436039 -0.056941
v -0.078736 0.436542 -0.055171
v -0.078895 0.437275 -0.056312
v -0.078332 0.435530 -0.055893
v -0.078820 0.436122 -0.057037
v -0.078538 0.435256 -0.054394
v -0.078570 0.435535 -0.054259
v -0.078371 0.435057 -0.054565
v -0.078457 0.435817 -0.054195
v -0.078114 0.434991 -0.054725
v -0.078425 0.436627 -0.055274
v -0.078589 0.437192 -0.056493
v -0.078075 0.435751 -0.055899
v -0.078534 0.436348 -0.057024
v -0.078231 0.436029 -0.054220
v -0.077834 0.435075 -0.054833
v -0.078143 0.436553 -0.055446
v -0.078400 0.436966 -0.056709
v -0.077982 0.434916 -0.053433
v -0.078021 0.435178 -0.053330
v -0.077823 0.434730 -0.053576
v -0.077942 0.436047 -0.055807
v -0.078380 0.436657 -0.056903
v -0.077930 0.435444 -0.053294
v -0.077951 0.436113 -0.054328
v -0.077966 0.436341 -0.055642
v -0.077587 0.434668 -0.053720
v -0.077608 0.435286 -0.054858
v -0.077733 0.435643 -0.053335
v -0.077693 0.436046 -0.054488
v -0.077337 0.434748 -0.053827
v -0.077495 0.435569 -0.054795
v -0.077445 0.434702 -0.052511
v -0.077491 0.434944 -0.052440
v -0.077292 0.434530 -0.052624
v -0.077527 0.435847 -0.054659
v -0.077483 0.435723 -0.053442
v -0.077420 0.435190 -0.052429
v -0.077139 0.434948 -0.053868
v -0.077075 0.434472 -0.052747
v -0.077249 0.435374 -0.052480
v -0.077246 0.435662 -0.053586
v -0.077048 0.435214 -0.053832
v -0.076851 0.434545 -0.052848
v -0.077087 0.435475 -0.053729
v -0.076935 0.434604 -0.051598
v -0.076987 0.434823 -0.051556
v -0.077025 0.435447 -0.052582
v -0.076789 0.434447 -0.051680
v -0.076933 0.435045 -0.051564
v -0.076680 0.434730 -0.052900
v -0.076590 0.434394 -0.051779
v -0.076786 0.435211 -0.051622
v -0.076808 0.435390 -0.052705
v -0.076609 0.434975 -0.052889
v -0.076656 0.435217 -0.052817
v -0.076390 0.434460 -0.051869
v -0.076586 0.435277 -0.051712
v -0.076462 0.434610 -0.050662
v -0.076517 0.434804 -0.050644
v -0.076326 0.434472 -0.050715
v -0.076476 0.435000 -0.050666
v -0.076243 0.434626 -0.051927
v -0.076144 0.434425 -0.050790
v -0.076188 0.434848 -0.051935
v -0.076386 0.435224 -0.051811
v -0.076241 0.435067 -0.051893
v -0.076349 0.435146 -0.050723
v -0.075966 0.434482 -0.050865
v -0.076033 0.434712 -0.049669
v -0.076086 0.434878 -0.049669
v -0.076171 0.435204 -0.050799
v -0.075909 0.434593 -0.049699
v -0.076054 0.435047 -0.049698
v -0.075839 0.434629 -0.050922
v -0.075946 0.435173 -0.049749
v -0.075989 0.435157 -0.050873
v -0.075747 0.434553 -0.049750
v -0.075798 0.434825 -0.050945
v -0.075853 0.435018 -0.050927
v -0.075789 0.435224 -0.049809
v -0.075591 0.434603 -0.049809
v -0.075703 0.435038 -0.048596
v -0.075655 0.434899 -0.048585
v -0.075678 0.435180 -0.048626
v -0.075546 0.434801 -0.048597
v -0.075627 0.435184 -0.049860
v -0.075482 0.434730 -0.049861
v -0.075586 0.435286 -0.048669
v -0.075406 0.434769 -0.048629
v -0.075503 0.435065 -0.049890
v -0.075450 0.434899 -0.049890
v -0.075452 0.435330 -0.048712
v -0.075272 0.434812 -0.048672
v -0.075377 0.435276 -0.047391
v -0.075336 0.435165 -0.047376
v -0.075357 0.435391 -0.047419
v -0.075245 0.435086 -0.047376
v -0.075312 0.435298 -0.048744
v -0.075180 0.434919 -0.048714
v -0.075282 0.435479 -0.047451
v -0.075129 0.435062 -0.047393
v -0.075203 0.435200 -0.048756
v -0.075155 0.435061 -0.048745
v -0.075171 0.435515 -0.047480
v -0.075019 0.435099 -0.047422
v -0.075117 0.435587 -0.046024
v -0.075085 0.435501 -0.046008
v -0.075102 0.435675 -0.046046
v -0.075014 0.435442 -0.046002
v -0.075055 0.435491 -0.047497
v -0.074943 0.435186 -0.047454
v -0.075043 0.435743 -0.046068
v -0.074923 0.435424 -0.046009
v -0.074964 0.435413 -0.047497
v -0.074923 0.435301 -0.047482
v -0.074957 0.435773 -0.046085
v -0.074837 0.435454 -0.046026
v -0.074934 0.435960 -0.044462
v -0.074912 0.435900 -0.044449
v -0.074924 0.436023 -0.044478
v -0.074861 0.435859 -0.044442
v -0.074866 0.435755 -0.046092
v -0.074882 0.436071 -0.044491
v -0.074779 0.435522 -0.046048
v -0.074797 0.435848 -0.044443
v -0.074795 0.435696 -0.046086
v -0.074821 0.436093 -0.044500
v -0.074763 0.435611 -0.046071
v -0.074736 0.435869 -0.044451
v -0.074839 0.436389 -0.042676
v -0.074825 0.436354 -0.042668
v -0.074832 0.436426 -0.042684
v -0.074796 0.436330 -0.042664
v -0.074808 0.436454 -0.042691
v -0.074757 0.436081 -0.044501
v -0.074758 0.436324 -0.042663
v -0.074694 0.435918 -0.044465
v -0.074683 0.435980 -0.044481
v -0.074706 0.436040 -0.044493
v -0.074723 0.436337 -0.042666
v -0.074698 0.436366 -0.042673
v -0.074692 0.436402 -0.042681
v -0.074705 0.436437 -0.042689
v -0.074735 0.436461 -0.042694
v -0.074772 0.436467 -0.042694
v -0.074718 0.436518 -0.041817
v -0.074695 0.436545 -0.041823
v -0.074751 0.436505 -0.041814
v -0.074787 0.436512 -0.041815
v -0.074814 0.436534 -0.041818
v -0.074689 0.436580 -0.041829
v -0.074827 0.436568 -0.041824
v -0.074701 0.436613 -0.041835
v -0.074821 0.436602 -0.041830
v -0.074729 0.436636 -0.041838
v -0.074764 0.436642 -0.041838
v -0.074798 0.436630 -0.041835
v -0.074693 0.436631 -0.041076
v -0.074671 0.436657 -0.041080
v -0.074725 0.436620 -0.041073
v -0.074758 0.436626 -0.041072
v -0.074784 0.436647 -0.041073
v -0.074666 0.436690 -0.041084
v -0.074796 0.436679 -0.041076
v -0.074677 0.436722 -0.041087
v -0.074790 0.436712 -0.041080
v -0.074737 0.436749 -0.041087
v -0.074703 0.436743 -0.041088
v -0.074769 0.436738 -0.041084
v -0.074628 0.436709 -0.040431
v -0.074622 0.436740 -0.040433
v -0.074648 0.436685 -0.040429
v -0.074678 0.436674 -0.040425
v -0.074709 0.436680 -0.040423
v -0.074733 0.436700 -0.040421
v -0.074688 0.436796 -0.040429
v -0.074657 0.436791 -0.040432
v -0.074718 0.436786 -0.040426
v -0.074633 0.436770 -0.040433
v -0.074739 0.436761 -0.040423
v -0.074744 0.436730 -0.040421
v -0.074567 0.436765 -0.039859
v -0.074589 0.436784 -0.039855
v -0.074557 0.436737 -0.039862
v -0.074618 0.436790 -0.039850
v -0.074563 0.436708 -0.039862
v -0.074646 0.436780 -0.039846
v -0.074582 0.436686 -0.039861
v -0.074665 0.436757 -0.039844
v -0.074609 0.436676 -0.039857
v -0.074670 0.436728 -0.039845
v -0.074638 0.436681 -0.039852
v -0.074660 0.436700 -0.039848
v -0.074518 0.436631 -0.039354
v -0.074492 0.436641 -0.039359
v -0.074544 0.436636 -0.039348
v -0.074550 0.436727 -0.039334
v -0.074524 0.436736 -0.039338
v -0.074564 0.436653 -0.039341
v -0.074567 0.436706 -0.039333
v -0.074573 0.436679 -0.039335
v -0.074426 0.436552 -0.038896
v -0.074402 0.436548 -0.038904
v -0.074444 0.436568 -0.038887
v -0.074474 0.436662 -0.039360
v -0.074451 0.436591 -0.038879
v -0.074469 0.436689 -0.039357
v -0.074445 0.436615 -0.038875
v -0.074477 0.436714 -0.039351
v -0.074429 0.436635 -0.038875
v -0.074498 0.436732 -0.039344
v -0.074379 0.436557 -0.038909
v -0.074405 0.436643 -0.038880
v -0.074362 0.436576 -0.038909
v -0.074382 0.436639 -0.038888
v -0.074357 0.436601 -0.038905
v -0.074364 0.436624 -0.038897
v -0.074297 0.436449 -0.038472
v -0.074282 0.436436 -0.038482
v -0.074303 0.436470 -0.038463
v -0.074298 0.436492 -0.038457
v -0.074260 0.436432 -0.038492
v -0.074282 0.436510 -0.038458
v -0.074239 0.436441 -0.038497
v -0.074261 0.436518 -0.038463
v -0.074224 0.436458 -0.038497
v -0.074240 0.436515 -0.038472
v -0.074219 0.436481 -0.038492
v -0.074224 0.436501 -0.038483
v -0.074124 0.436305 -0.038083
v -0.074110 0.436293 -0.038095
v -0.074128 0.436324 -0.038074
v -0.074123 0.436343 -0.038068
v -0.074092 0.436291 -0.038105
v -0.074109 0.436360 -0.038068
v -0.074073 0.436299 -0.038110
v -0.074090 0.436367 -0.038074
v -0.074059 0.436315 -0.038111
v -0.074072 0.436365 -0.038084
v -0.074053 0.436335 -0.038105
v -0.074058 0.436353 -0.038095
v -0.073922 0.436143 -0.037708
v -0.073910 0.436133 -0.037719
v -0.073926 0.436159 -0.037699
v -0.073921 0.436177 -0.037693
v -0.073894 0.436131 -0.037729
v -0.073908 0.436191 -0.037694
v -0.073877 0.436139 -0.037735
v -0.073892 0.436199 -0.037700
v -0.073865 0.436153 -0.037736
v -0.073875 0.436197 -0.037710
v -0.073860 0.436171 -0.037731
v -0.073864 0.436187 -0.037721
v -0.073690 0.435969 -0.037333
v -0.073680 0.435960 -0.037344
v -0.073694 0.435984 -0.037324
v -0.073689 0.435999 -0.037320
v -0.073666 0.435959 -0.037353
v -0.073678 0.436012 -0.037321
v -0.073652 0.435966 -0.037359
v -0.073664 0.436019 -0.037327
v -0.073641 0.435979 -0.037360
v -0.073637 0.435995 -0.037355
v -0.073640 0.436009 -0.037347
v -0.073650 0.436018 -0.037336
v -0.073419 0.435783 -0.036955
v -0.073407 0.435783 -0.036963
v -0.073428 0.435791 -0.036945
v -0.073431 0.435804 -0.036938
v -0.073427 0.435818 -0.036934
v -0.073418 0.435829 -0.036935
v -0.073395 0.435789 -0.036969
v -0.073406 0.435836 -0.036940
v -0.073386 0.435801 -0.036970
v -0.073382 0.435814 -0.036966
v -0.073385 0.435827 -0.036959
v -0.073394 0.435835 -0.036949
v -0.073127 0.435609 -0.036539
v -0.073116 0.435608 -0.036546
v -0.073134 0.435616 -0.036531
v -0.073137 0.435626 -0.036524
v -0.073134 0.435639 -0.036522
v -0.073126 0.435649 -0.036523
v -0.073106 0.435614 -0.036551
v -0.073116 0.435654 -0.036528
v -0.073098 0.435624 -0.036553
v -0.073095 0.435636 -0.036550
v -0.073098 0.435647 -0.036544
v -0.073105 0.435654 -0.036536
v -0.076851 0.435916 -0.046123
v -0.076862 0.436257 -0.045494
v -0.076843 0.435876 -0.046098
v -0.076798 0.435604 -0.046640
v -0.076836 0.436232 -0.045478
v -0.076812 0.435846 -0.046077
v -0.076787 0.435556 -0.046611
v -0.076835 0.435955 -0.046146
v -0.076869 0.436290 -0.045514
v -0.076779 0.435651 -0.046664
v -0.076856 0.436322 -0.045533
v -0.076799 0.435983 -0.046159
v -0.076737 0.435687 -0.046677
v -0.076814 0.436687 -0.044738
v -0.076799 0.436221 -0.045471
v -0.076785 0.436677 -0.044734
v -0.076834 0.436708 -0.044749
v -0.076839 0.436734 -0.044764
v -0.076826 0.436344 -0.045546
v -0.076829 0.436759 -0.044779
v -0.076805 0.436776 -0.044790
v -0.076752 0.435992 -0.046161
v -0.076787 0.436351 -0.045549
v -0.076748 0.437234 -0.043813
v -0.076734 0.437218 -0.043806
v -0.076752 0.437253 -0.043823
v -0.076744 0.437271 -0.043833
v -0.076707 0.435293 -0.047083
v -0.076751 0.435522 -0.046585
v -0.076664 0.435253 -0.047055
v -0.076612 0.435081 -0.047563
v -0.076698 0.435509 -0.046569
v -0.076604 0.435239 -0.047035
v -0.076563 0.435034 -0.047535
v -0.076719 0.435350 -0.047113
v -0.076628 0.435148 -0.047590
v -0.076699 0.435407 -0.047137
v -0.076606 0.435216 -0.047610
v -0.076651 0.435450 -0.047147
v -0.076553 0.435267 -0.047616
v -0.076588 0.435467 -0.047141
v -0.076482 0.435287 -0.047608
v -0.076767 0.435834 -0.046065
v -0.076720 0.435844 -0.046066
v -0.076643 0.435522 -0.046567
v -0.076683 0.435872 -0.046080
v -0.076601 0.435557 -0.046580
v -0.076541 0.435256 -0.047030
v -0.076682 0.435700 -0.046675
v -0.076629 0.435687 -0.046659
v -0.076527 0.435453 -0.047122
v -0.076760 0.436227 -0.045474
v -0.076730 0.436249 -0.045487
v -0.076717 0.436281 -0.045506
v -0.076667 0.435911 -0.046103
v -0.076724 0.436314 -0.045526
v -0.076676 0.435951 -0.046128
v -0.076582 0.435605 -0.046604
v -0.076750 0.436340 -0.045542
v -0.076707 0.435981 -0.046149
v -0.076592 0.435653 -0.046633
v -0.076755 0.436682 -0.044738
v -0.076731 0.436698 -0.044749
v -0.076721 0.436723 -0.044764
v -0.076727 0.436750 -0.044778
v -0.076746 0.436770 -0.044789
v -0.076775 0.436780 -0.044793
v -0.076691 0.437213 -0.043808
v -0.076675 0.437225 -0.043816
v -0.076713 0.437211 -0.043804
v -0.076667 0.437243 -0.043826
v -0.076671 0.437263 -0.043836
v -0.076685 0.437278 -0.043842
v -0.076728 0.437283 -0.043841
v -0.076706 0.437285 -0.043844
v -0.076568 0.437874 -0.042653
v -0.076581 0.437872 -0.042650
v -0.076556 0.437869 -0.042652
v -0.076592 0.437865 -0.042645
v -0.076547 0.437859 -0.042649
v -0.076596 0.437854 -0.042639
v -0.076545 0.437847 -0.042643
v -0.076594 0.437842 -0.042634
v -0.076549 0.437836 -0.042637
v -0.076585 0.437832 -0.042630
v -0.076559 0.437829 -0.042632
v -0.076573 0.437828 -0.042630
v -0.076512 0.435071 -0.048133
v -0.076534 0.434993 -0.048118
v -0.076485 0.435412 -0.047093
v -0.076515 0.434916 -0.048096
v -0.076450 0.434876 -0.048749
v -0.076459 0.434860 -0.048072
v -0.076427 0.434789 -0.048733
v -0.076426 0.434963 -0.048758
v -0.076494 0.435017 -0.047514
v -0.076453 0.435129 -0.048136
v -0.076361 0.435027 -0.048759
v -0.076493 0.435298 -0.047040
v -0.076423 0.435037 -0.047506
v -0.076374 0.435151 -0.048127
v -0.076413 0.435271 -0.047587
v -0.076364 0.435223 -0.047559
v -0.076472 0.435356 -0.047063
v -0.076352 0.438543 -0.041165
v -0.076381 0.434841 -0.048053
v -0.076364 0.434725 -0.048715
v -0.076384 0.434790 -0.049533
v -0.076358 0.434886 -0.049539
v -0.076274 0.435052 -0.048751
v -0.076296 0.435132 -0.048107
v -0.076370 0.435088 -0.047512
v -0.076348 0.435156 -0.047532
v -0.076359 0.434694 -0.049523
v -0.076288 0.434956 -0.049540
v -0.076302 0.434863 -0.048044
v -0.076240 0.435076 -0.048084
v -0.076349 0.434728 -0.050523
v -0.076321 0.434623 -0.050518
v -0.076289 0.434623 -0.049511
v -0.076321 0.434833 -0.050527
v -0.076277 0.434703 -0.048700
v -0.076244 0.434909 -0.050529
v -0.076192 0.434982 -0.049534
v -0.076243 0.434921 -0.048047
v -0.076186 0.435029 -0.048736
v -0.076221 0.434999 -0.048062
v -0.076244 0.434547 -0.050512
v -0.076193 0.434598 -0.049502
v -0.076189 0.434727 -0.048692
v -0.076139 0.434937 -0.050527
v -0.076123 0.434966 -0.048719
v -0.076095 0.434957 -0.049525
v -0.076140 0.434519 -0.050507
v -0.076125 0.434791 -0.048693
v -0.076101 0.434879 -0.048703
v -0.076097 0.434624 -0.049496
v -0.076034 0.434909 -0.050522
v -0.076025 0.434887 -0.049513
v -0.076035 0.434547 -0.050505
v -0.076026 0.434695 -0.049497
v -0.076000 0.434791 -0.049503
v -0.075958 0.434833 -0.050516
v -0.075958 0.434623 -0.050507
v -0.075930 0.434728 -0.050511
usemtl Middle_genicular_vein_rMaterial0
f 1 2 3
f 4 5 1
f 1 5 2
f 3 6 7
f 3 2 6
f 8 9 4
f 4 9 5
f 7 10 11
f 7 6 10
f 8 12 9
f 13 12 8
f 11 14 15
f 11 10 14
f 5 16 2
f 9 17 5
f 5 17 16
f 2 18 6
f 2 16 18
f 12 19 9
f 9 19 17
f 6 20 10
f 6 18 20
f 13 21 12
f 22 21 13
f 15 23 24
f 15 14 23
f 12 25 19
f 21 25 12
f 10 26 14
f 10 20 26
f 22 27 21
f 28 27 22
f 17 29 16
f 19 30 17
f 17 30 29
f 16 31 18
f 16 29 31
f 24 32 33
f 24 23 32
f 25 34 19
f 19 34 30
f 21 35 25
f 27 35 21
f 33 36 28
f 28 36 27
f 18 37 20
f 18 31 37
f 33 32 36
f 14 38 23
f 14 26 38
f 35 39 25
f 25 39 34
f 36 40 27
f 27 40 35
f 20 41 26
f 20 37 41
f 23 42 32
f 23 38 42
f 30 43 29
f 34 44 30
f 30 44 43
f 29 45 31
f 29 43 45
f 32 46 36
f 36 46 40
f 32 42 46
f 35 47 39
f 40 47 35
f 39 48 34
f 34 48 44
f 26 49 38
f 26 41 49
f 31 50 37
f 31 45 50
f 47 51 39
f 39 51 48
f 46 52 40
f 40 52 47
f 38 53 42
f 38 49 53
f 37 54 41
f 37 50 54
f 42 55 46
f 46 55 52
f 44 56 43
f 48 57 44
f 44 57 56
f 42 53 55
f 47 58 51
f 52 58 47
f 43 59 45
f 43 56 59
f 51 60 48
f 48 60 57
f 41 61 49
f 41 54 61
f 45 62 50
f 45 59 62
f 58 63 51
f 51 63 60
f 55 64 52
f 52 64 58
f 49 65 53
f 49 61 65
f 53 66 55
f 55 66 64
f 50 67 54
f 50 62 67
f 53 65 66
f 58 68 63
f 64 68 58
f 57 69 56
f 60 70 57
f 57 70 69
f 56 71 59
f 56 69 71
f 63 72 60
f 60 72 70
f 54 73 61
f 54 67 73
f 59 74 62
f 59 71 74
f 61 75 65
f 61 73 75
f 66 76 64
f 65 77 66
f 66 77 76
f 68 78 63
f 63 78 72
f 64 76 68
f 62 79 67
f 62 74 79
f 70 80 69
f 72 81 70
f 70 81 80
f 65 75 77
f 68 82 78
f 76 82 68
f 69 83 71
f 69 80 83
f 78 84 72
f 72 84 81
f 67 85 73
f 67 79 85
f 82 86 78
f 78 86 84
f 77 87 76
f 76 87 82
f 71 88 74
f 71 83 88
f 73 89 75
f 73 85 89
f 75 90 77
f 77 90 87
f 75 89 90
f 87 91 82
f 82 91 86
f 74 92 79
f 74 88 92
f 84 93 81
f 81 94 80
f 81 93 94
f 86 95 84
f 84 95 93
f 80 96 83
f 80 94 96
f 90 97 87
f 87 97 91
f 79 98 85
f 79 92 98
f 91 99 86
f 86 99 95
f 83 100 88
f 83 96 100
f 89 101 90
f 90 101 97
f 85 102 89
f 85 98 102
f 89 102 101
f 97 103 91
f 91 103 99
f 88 104 92
f 88 100 104
f 95 105 93
f 93 106 94
f 93 105 106
f 99 107 95
f 95 107 105
f 94 108 96
f 94 106 108
f 101 109 97
f 97 109 103
f 92 110 98
f 92 104 110
f 103 111 99
f 99 111 107
f 96 112 100
f 96 108 112
f 102 113 101
f 101 113 109
f 98 114 102
f 98 110 114
f 102 114 113
f 109 115 103
f 103 115 111
f 100 116 104
f 100 112 116
f 107 117 105
f 105 118 106
f 105 117 118
f 111 119 107
f 107 119 117
f 106 120 108
f 106 118 120
f 113 121 109
f 109 121 115
f 104 122 110
f 104 116 122
f 115 123 111
f 111 123 119
f 108 124 112
f 108 120 124
f 114 125 113
f 113 125 121
f 110 126 114
f 110 122 126
f 121 127 115
f 115 127 123
f 114 126 125
f 112 128 116
f 112 124 128
f 119 129 117
f 117 130 118
f 117 129 130
f 123 131 119
f 119 131 129
f 118 132 120
f 118 130 132
f 125 133 121
f 121 133 127
f 127 134 123
f 123 134 131
f 116 135 122
f 116 128 135
f 120 136 124
f 120 132 136
f 126 137 125
f 125 137 133
f 127 138 134
f 133 138 127
f 122 139 126
f 122 135 139
f 126 139 137
f 124 140 128
f 124 136 140
f 131 141 129
f 129 142 130
f 129 141 142
f 134 143 131
f 131 143 141
f 130 144 132
f 130 142 144
f 138 145 134
f 134 145 143
f 137 146 133
f 133 146 138
f 132 147 136
f 132 144 147
f 128 148 135
f 128 140 148
f 135 149 139
f 135 148 149
f 139 150 137
f 139 149 150
f 137 150 146
f 136 151 140
f 136 147 151
f 140 152 148
f 140 151 152
f 148 153 149
f 148 152 153
f 149 154 150
f 149 153 154
f 150 155 146
f 150 154 155
f 146 156 138
f 146 155 156
f 138 156 145
f 147 157 151
f 151 158 152
f 151 157 158
f 144 159 147
f 142 160 144
f 144 160 159
f 147 159 157
f 141 161 142
f 142 161 160
f 152 162 153
f 152 158 162
f 143 163 141
f 141 163 161
f 153 164 154
f 153 162 164
f 145 165 143
f 143 165 163
f 154 166 155
f 154 164 166
f 155 167 156
f 155 166 167
f 156 168 145
f 156 167 168
f 145 168 165
f 159 169 157
f 157 170 158
f 157 169 170
f 160 171 159
f 161 172 160
f 160 172 171
f 159 171 169
f 163 173 161
f 161 173 172
f 158 174 162
f 158 170 174
f 165 175 163
f 163 175 173
f 162 176 164
f 162 174 176
f 168 177 165
f 165 177 175
f 166 178 167
f 164 179 166
f 166 179 178
f 167 180 168
f 167 178 180
f 164 176 179
f 168 180 177
f 169 181 170
f 170 182 174
f 170 181 182
f 171 183 169
f 169 183 181
f 172 184 171
f 171 184 183
f 173 185 172
f 175 186 173
f 173 186 185
f 172 185 184
f 179 187 178
f 176 188 179
f 179 188 187
f 178 189 180
f 178 187 189
f 174 190 176
f 176 190 188
f 180 191 177
f 180 189 191
f 174 182 190
f 177 192 175
f 177 191 192
f 175 192 186
f 182 193 190
f 190 194 188
f 190 193 194
f 181 195 182
f 182 195 193
f 188 196 187
f 188 194 196
f 183 197 181
f 181 197 195
f 187 198 189
f 187 196 198
f 184 199 183
f 183 199 197
f 189 200 191
f 189 198 200
f 185 201 184
f 184 201 199
f 191 202 192
f 191 200 202
f 186 203 185
f 185 203 201
f 192 204 186
f 192 202 204
f 186 204 203
f 203 205 201
f 201 206 199
f 201 205 206
f 204 207 203
f 203 207 205
f 196 208 198
f 196 209 208
f 194 209 196
f 202 210 204
f 204 210 207
f 198 211 200
f 198 208 211
f 200 212 202
f 202 212 210
f 200 211 212
f 210 213 207
f 207 214 205
f 207 213 214
f 212 215 210
f 210 215 213
f 199 216 197
f 199 206 216
f 211 217 212
f 212 217 215
f 197 218 195
f 197 216 218
f 208 219 211
f 211 219 217
f 195 220 193
f 195 218 220
f 209 221 208
f 208 221 219
f 193 222 194
f 193 220 222
f 194 222 209
f 205 223 206
f 205 214 223
f 222 224 209
f 209 224 221
f 206 225 216
f 206 223 225
f 220 226 222
f 222 226 224
f 216 227 218
f 216 225 227
f 218 228 220
f 218 227 228
f 220 228 226
f 217 229 215
f 215 230 213
f 215 229 230
f 219 231 217
f 217 231 229
f 221 232 219
f 219 232 231
f 213 233 214
f 213 230 233
f 224 234 221
f 221 234 232
f 214 235 223
f 214 233 235
f 226 236 224
f 224 236 234
f 223 237 225
f 223 235 237
f 228 238 226
f 226 238 236
f 225 239 227
f 225 237 239
f 227 240 228
f 227 239 240
f 228 240 238
f 231 241 229
f 229 242 230
f 229 241 242
f 232 243 231
f 231 243 241
f 234 244 232
f 232 244 243
f 230 245 233
f 230 242 245
f 236 246 234
f 234 246 244
f 233 247 235
f 233 245 247
f 238 248 236
f 236 248 246
f 235 249 237
f 235 247 249
f 240 250 238
f 238 250 248
f 237 251 239
f 237 249 251
f 239 252 240
f 239 251 252
f 240 252 250
f 243 253 241
f 241 254 242
f 241 253 254
f 244 255 243
f 243 255 253
f 246 256 244
f 244 256 255
f 242 257 245
f 242 254 257
f 248 258 246
f 246 258 256
f 245 259 247
f 245 257 259
f 250 260 248
f 248 260 258
f 247 261 249
f 247 259 261
f 252 262 250
f 250 262 260
f 249 263 251
f 249 261 263
f 251 264 252
f 251 263 264
f 252 264 262
f 255 265 253
f 253 266 254
f 253 265 266
f 256 267 255
f 255 267 265
f 258 268 256
f 256 268 267
f 254 269 257
f 254 266 269
f 260 270 258
f 258 270 268
f 257 271 259
f 257 269 271
f 262 272 260
f 260 272 270
f 259 273 261
f 259 271 273
f 261 274 263
f 261 273 274
f 263 275 264
f 263 274 275
f 264 276 262
f 264 275 276
f 262 276 272
f 265 277 266
f 266 278 269
f 266 277 278
f 267 279 265
f 265 279 277
f 268 280 267
f 267 280 279
f 270 281 268
f 268 281 280
f 272 282 270
f 270 282 281
f 269 283 271
f 269 278 283
f 276 284 272
f 272 284 282
f 271 285 273
f 271 283 285
f 273 286 274
f 273 285 286
f 274 287 275
f 274 286 287
f 275 288 276
f 275 287 288
f 276 288 284
f 279 289 277
f 277 290 278
f 277 289 290
f 280 291 279
f 279 291 289
f 281 292 280
f 280 292 291
f 282 293 281
f 281 293 292
f 284 294 282
f 282 294 293
f 278 295 283
f 278 290 295
f 288 296 284
f 284 296 294
f 283 297 285
f 283 295 297
f 285 298 286
f 285 297 298
f 286 299 287
f 286 298 299
f 287 300 288
f 287 299 300
f 288 300 296
f 301 302 303
f 304 301 303
f 303 302 305
f 303 305 306
f 304 303 307
f 307 303 306
f 308 309 301
f 310 308 301
f 301 309 302
f 310 301 304
f 308 311 309
f 312 311 308
f 313 308 310
f 313 312 308
f 302 314 305
f 306 305 315
f 305 316 315
f 305 314 316
f 309 317 302
f 302 317 314
f 311 318 309
f 309 318 317
f 319 320 311
f 312 319 311
f 311 320 318
f 319 321 320
f 322 319 312
f 322 323 319
f 323 321 319
f 318 324 317
f 317 325 314
f 317 324 325
f 320 326 318
f 318 326 324
f 321 327 320
f 320 327 326
f 328 329 330
f 331 328 330
f 330 329 332
f 330 332 333
f 331 330 334
f 334 330 333
f 335 307 328
f 336 335 328
f 328 307 329
f 336 328 331
f 337 304 335
f 338 337 335
f 335 304 307
f 338 335 336
f 339 310 337
f 340 339 337
f 337 310 304
f 340 337 338
f 339 313 310
f 341 313 339
f 342 339 340
f 342 341 339
f 329 343 332
f 332 344 345
f 333 332 345
f 332 343 344
f 307 306 329
f 329 306 343
f 345 344 346
f 345 346 347
f 333 345 348
f 348 345 347
f 349 312 313
f 341 349 313
f 349 322 312
f 350 322 349
f 351 350 349
f 351 349 341
f 306 315 343
f 343 352 344
f 344 353 346
f 344 352 353
f 343 315 352
f 346 354 355
f 347 346 355
f 346 353 354
f 355 356 357
f 358 355 357
f 355 354 356
f 347 355 358
f 357 359 360
f 361 357 360
f 357 356 359
f 358 357 361
f 360 323 322
f 350 360 322
f 360 359 323
f 361 360 350
f 315 362 352
f 352 363 353
f 352 362 363
f 315 316 362
f 353 364 354
f 353 363 364
f 354 365 356
f 354 364 365
f 356 366 359
f 356 365 366
f 359 367 323
f 359 366 367
f 323 367 321
f 316 368 362
f 362 369 363
f 362 368 369
f 314 370 316
f 314 325 370
f 316 370 368
f 363 371 364
f 363 369 371
f 364 372 365
f 364 371 372
f 365 373 366
f 365 372 373
f 367 374 321
f 366 375 367
f 367 375 374
f 321 374 327
f 366 373 375
f 373 376 375
f 375 377 374
f 375 376 377
f 372 378 373
f 373 378 376
f 374 379 327
f 374 377 379
f 371 380 372
f 372 380 378
f 327 381 326
f 327 379 381
f 369 382 371
f 371 382 380
f 326 383 324
f 326 381 383
f 368 384 369
f 369 384 382
f 324 385 325
f 324 383 385
f 370 386 368
f 368 386 384
f 325 387 370
f 325 385 387
f 370 387 386
f 388 336 389
f 389 336 331
f 388 338 336
f 390 350 351
f 390 361 350
f 389 331 391
f 392 389 391
f 391 331 334
f 391 334 393
f 394 391 393
f 392 391 394
f 395 388 389
f 395 389 392
f 334 333 396
f 393 334 396
f 397 338 388
f 398 397 388
f 398 388 395
f 397 340 338
f 396 333 348
f 348 347 399
f 396 348 400
f 400 348 399
f 401 340 397
f 401 342 340
f 402 351 341
f 403 390 351
f 403 351 402
f 402 341 342
f 399 347 358
f 404 358 361
f 399 358 404
f 404 361 390
f 378 405 376
f 376 405 377
f 380 405 378
f 377 405 379
f 382 405 380
f 379 405 381
f 384 405 382
f 381 405 383
f 386 405 384
f 383 405 385
f 387 405 386
f 385 405 387
f 393 396 406
f 394 393 407
f 407 393 406
f 408 392 394
f 409 395 392
f 409 392 408
f 406 396 400
f 410 397 398
f 410 401 397
f 411 402 342
f 411 342 401
f 412 399 404
f 400 399 412
f 413 404 390
f 412 404 413
f 413 390 403
f 414 394 407
f 408 394 414
f 415 395 409
f 415 398 395
f 406 400 416
f 416 400 412
f 417 403 402
f 417 402 411
f 418 408 414
f 418 414 419
f 414 407 420
f 419 414 420
f 421 408 418
f 407 406 422
f 420 407 422
f 421 409 408
f 422 406 416
f 423 409 421
f 423 415 409
f 424 398 415
f 424 410 398
f 425 412 413
f 416 412 425
f 426 411 401
f 426 401 410
f 427 413 403
f 425 413 427
f 427 403 417
f 419 420 428
f 420 422 429
f 428 420 429
f 422 416 430
f 430 416 425
f 431 415 423
f 431 424 415
f 432 417 411
f 432 411 426
f 429 422 430
f 433 410 424
f 433 426 410
f 428 429 434
f 435 425 427
f 430 425 435
f 436 427 417
f 436 417 432
f 435 427 436
f 429 430 437
f 434 429 437
f 437 430 435
f 438 424 431
f 438 433 424
f 439 432 426
f 439 426 433
f 434 437 440
f 437 435 441
f 441 435 436
f 442 436 432
f 442 432 439
f 440 437 441
f 441 436 442
f 443 439 433
f 443 433 438
f 440 441 444
f 444 441 442
f 445 442 439
f 445 439 443
f 444 442 445
