# 
# Wavefront OBJ file
# Created with Kaydara FBX
# 
mtllib c:\users\tjvan\onedrive\documenten\fontys\minor\nx\.mtlmodels\oblique_popliteal_ligament.r.obj

g Oblique_popliteal_ligament_r
v -0.078292 0.434633 -0.053966
v -0.078424 0.433831 -0.053629
v -0.078383 0.433938 -0.053465
v -0.074979 0.434530 -0.054499
v -0.075009 0.434929 -0.055200
v -0.075027 0.434407 -0.054649
v -0.078237 0.434703 -0.053787
v -0.074939 0.434992 -0.055024
v -0.077294 0.436901 -0.054220
v -0.074127 0.436640 -0.055498
v -0.077226 0.436864 -0.054036
v -0.074055 0.436590 -0.055319
v -0.075957 0.438985 -0.053802
v -0.072953 0.438280 -0.055070
v -0.075901 0.438904 -0.053628
v -0.072892 0.438192 -0.054901
v -0.074403 0.441051 -0.053285
v -0.071638 0.440001 -0.054586
v -0.074355 0.440957 -0.053116
v -0.071583 0.439902 -0.054421
v -0.071817 0.434902 -0.056712
v -0.071638 0.434560 -0.056069
v -0.071724 0.434424 -0.056187
v -0.070979 0.436413 -0.056942
v -0.071716 0.434958 -0.056549
v -0.070897 0.436348 -0.056772
v -0.072616 0.443025 -0.052354
v -0.070235 0.441688 -0.054010
v -0.072575 0.442911 -0.052195
v -0.070192 0.441572 -0.053853
v -0.069954 0.437802 -0.056575
v -0.069885 0.437707 -0.056413
v -0.068920 0.439170 -0.056186
v -0.068859 0.439065 -0.056026
v -0.070698 0.444800 -0.051420
v -0.068806 0.443079 -0.053198
v -0.070673 0.444669 -0.051270
v -0.068781 0.442948 -0.053049
v -0.069289 0.434058 -0.058447
v -0.068483 0.435188 -0.058708
v -0.069259 0.433711 -0.057894
v -0.069391 0.433607 -0.058002
v -0.069160 0.434086 -0.058297
v -0.068393 0.435123 -0.058542
v -0.067730 0.440498 -0.055663
v -0.067685 0.440378 -0.055509
v -0.067594 0.436385 -0.058491
v -0.067524 0.436291 -0.058329
v -0.068397 0.446336 -0.050149
v -0.067111 0.444411 -0.052144
v -0.067142 0.444257 -0.052020
v -0.068445 0.446180 -0.050033
v -0.066635 0.441568 -0.054893
v -0.066609 0.441433 -0.054748
v -0.066670 0.437502 -0.058184
v -0.066610 0.437397 -0.058025
v -0.068001 0.433125 -0.059538
v -0.067965 0.432777 -0.058953
v -0.068108 0.432703 -0.059072
v -0.067166 0.434214 -0.059806
v -0.067877 0.433143 -0.059382
v -0.067088 0.434159 -0.059630
v -0.065688 0.438553 -0.057756
v -0.065639 0.438435 -0.057602
v -0.065721 0.442563 -0.054034
v -0.065737 0.442410 -0.053906
v -0.066234 0.435294 -0.059693
v -0.067507 0.446226 -0.049219
v -0.067599 0.446069 -0.049135
v -0.066375 0.444229 -0.051398
v -0.066176 0.435215 -0.059519
v -0.066297 0.444388 -0.051490
v -0.066514 0.432235 -0.060441
v -0.066663 0.431850 -0.060013
v -0.066797 0.431806 -0.060155
v -0.065674 0.433117 -0.060550
v -0.066407 0.432234 -0.060272
v -0.065605 0.433065 -0.060370
v -0.064685 0.439527 -0.057264
v -0.064655 0.439393 -0.057119
v -0.065290 0.436347 -0.059419
v -0.065236 0.436254 -0.059250
v -0.064732 0.434011 -0.060520
v -0.065067 0.442568 -0.053446
v -0.065015 0.442729 -0.053553
v -0.064675 0.433939 -0.060342
v -0.065714 0.430478 -0.060584
v -0.065844 0.430444 -0.060732
v -0.064366 0.437378 -0.059035
v -0.063891 0.440353 -0.056491
v -0.064317 0.437271 -0.058873
v -0.063899 0.440199 -0.056364
v -0.065590 0.430894 -0.061070
v -0.065482 0.430898 -0.060901
v -0.063826 0.435019 -0.060388
v -0.063766 0.434940 -0.060214
v -0.064695 0.429134 -0.061099
v -0.064819 0.429092 -0.061251
v -0.063361 0.440376 -0.055938
v -0.063324 0.440538 -0.056050
v -0.063439 0.438360 -0.058607
v -0.064774 0.431967 -0.061315
v -0.063408 0.438234 -0.058455
v -0.064704 0.431926 -0.061133
v -0.064565 0.429563 -0.061581
v -0.064470 0.429578 -0.061405
v -0.063004 0.436129 -0.060212
v -0.062947 0.436033 -0.060046
v -0.062701 0.425886 -0.061767
v -0.062450 0.426347 -0.062340
v -0.062820 0.425833 -0.061919
v -0.063868 0.433095 -0.061277
v -0.063765 0.430757 -0.061852
v -0.062372 0.426373 -0.062152
v -0.063813 0.433030 -0.061095
v -0.063713 0.430736 -0.061660
v -0.062669 0.439174 -0.057887
v -0.062679 0.439021 -0.057757
v -0.061664 0.428095 -0.062412
v -0.061631 0.428088 -0.062196
v -0.062144 0.437091 -0.059807
v -0.062107 0.436968 -0.059653
v -0.062337 0.439188 -0.057390
v -0.062301 0.439350 -0.057501
v -0.062953 0.434209 -0.061067
v -0.062869 0.432014 -0.061820
v -0.062894 0.434143 -0.060887
v -0.062833 0.431974 -0.061628
v -0.060738 0.429786 -0.062409
v -0.060711 0.429769 -0.062185
v -0.061433 0.437919 -0.059196
v -0.061435 0.437767 -0.059066
v -0.062137 0.435401 -0.061014
v -0.061835 0.433219 -0.061659
v -0.062081 0.435321 -0.060840
v -0.061795 0.433176 -0.061468
v -0.059693 0.431419 -0.062378
v -0.059661 0.431395 -0.062161
v -0.061516 0.423206 -0.061552
v -0.061282 0.423661 -0.062248
v -0.061626 0.423147 -0.061708
v -0.061209 0.423704 -0.062064
v -0.061042 0.437964 -0.058693
v -0.061010 0.438130 -0.058799
v -0.060036 0.425639 -0.062715
v -0.060022 0.425651 -0.062472
v -0.061154 0.436574 -0.060551
v -0.060955 0.434482 -0.061601
v -0.061124 0.436457 -0.060391
v -0.060918 0.434425 -0.061413
v -0.058607 0.433014 -0.062309
v -0.058573 0.432972 -0.062111
v -0.058930 0.427712 -0.062776
v -0.060499 0.420433 -0.061335
v -0.060113 0.421037 -0.061929
v -0.060573 0.420373 -0.061510
v -0.058917 0.427719 -0.062494
v -0.060061 0.421090 -0.061743
v -0.060389 0.437302 -0.059697
v -0.060378 0.437458 -0.059822
v -0.058809 0.423345 -0.062567
v -0.058814 0.423375 -0.062345
v -0.060069 0.435875 -0.061138
v -0.060055 0.435777 -0.060965
v -0.060005 0.437692 -0.059203
v -0.060042 0.437520 -0.059108
v -0.057518 0.434585 -0.061971
v -0.057500 0.434496 -0.061793
v -0.057752 0.429758 -0.062893
v -0.057728 0.429761 -0.062618
v -0.059556 0.416904 -0.060519
v -0.059017 0.417545 -0.061081
v -0.059601 0.416828 -0.060698
v -0.058992 0.417609 -0.060893
v -0.059318 0.436686 -0.060240
v -0.059300 0.436834 -0.060373
v -0.057159 0.420101 -0.061765
v -0.057180 0.420144 -0.061571
v -0.056604 0.435613 -0.061050
v -0.056592 0.435763 -0.061182
v -0.057354 0.425776 -0.062671
v -0.059005 0.437192 -0.059627
v -0.059046 0.437022 -0.059529
v -0.057372 0.425804 -0.062387
v -0.056515 0.431742 -0.062970
v -0.056486 0.431723 -0.062738
v -0.058692 0.413566 -0.059093
v -0.058146 0.414219 -0.059822
v -0.058732 0.413484 -0.059271
v -0.058118 0.414297 -0.059640
v -0.056151 0.436011 -0.060301
v -0.056121 0.436186 -0.060393
v -0.056121 0.417084 -0.060835
v -0.056138 0.417140 -0.060644
v -0.056009 0.428263 -0.062993
v -0.056017 0.428296 -0.062695
v -0.055275 0.423417 -0.061893
v -0.055318 0.423452 -0.061674
v -0.055293 0.433895 -0.062749
v -0.055279 0.433813 -0.062564
v -0.054695 0.430594 -0.063207
v -0.054701 0.430609 -0.062960
v -0.054577 0.435454 -0.061478
v -0.054593 0.435288 -0.061346
v -0.053696 0.426473 -0.061925
v -0.053650 0.426427 -0.062166
v -0.053433 0.421102 -0.060932
v -0.053386 0.421067 -0.061124
v -0.054420 0.435530 -0.060531
v -0.054397 0.435714 -0.060607
v -0.053420 0.433297 -0.063093
v -0.053451 0.433220 -0.062866
v -0.052053 0.429526 -0.062623
v -0.052107 0.429562 -0.062411
v -0.051572 0.424966 -0.060841
v -0.052838 0.435183 -0.061754
v -0.051513 0.424924 -0.061028
v -0.052882 0.434996 -0.061562
v -0.050619 0.432751 -0.062774
v -0.050735 0.432645 -0.062451
v -0.052800 0.435352 -0.060634
v -0.052793 0.435537 -0.060709
v -0.049674 0.428910 -0.061223
v -0.049601 0.428867 -0.061411
v -0.049984 0.435252 -0.060998
v -0.049887 0.435490 -0.061311
v -0.049831 0.435778 -0.059918
v -0.049858 0.435950 -0.060017
v -0.047961 0.432602 -0.061398
v -0.047839 0.432700 -0.061705
v -0.047131 0.436347 -0.060053
v -0.047087 0.436567 -0.060306
v -0.046893 0.437354 -0.058938
v -0.046933 0.437518 -0.059046
usemtl Oblique_popliteal_ligament_rMaterial0
f 1 2 3
f 2 4 3
f 5 2 1
f 5 6 2
f 2 6 4
f 1 3 7
f 8 7 3
f 8 3 4
f 9 1 7
f 10 1 9
f 10 5 1
f 9 7 11
f 12 11 7
f 12 7 8
f 13 9 11
f 14 9 13
f 14 10 9
f 13 11 15
f 16 15 11
f 16 11 12
f 17 13 15
f 18 13 17
f 18 14 13
f 17 15 19
f 20 19 15
f 20 15 16
f 21 6 5
f 6 22 4
f 21 23 6
f 6 23 22
f 24 5 10
f 24 21 5
f 25 8 4
f 25 4 22
f 26 12 8
f 26 8 25
f 27 17 19
f 28 17 27
f 28 18 17
f 27 19 29
f 30 29 19
f 30 19 20
f 31 10 14
f 31 24 10
f 32 16 12
f 32 12 26
f 33 14 18
f 33 31 14
f 34 20 16
f 34 16 32
f 35 27 29
f 36 27 35
f 36 28 27
f 35 29 37
f 38 37 29
f 38 29 30
f 39 23 21
f 40 21 24
f 40 39 21
f 23 41 22
f 39 42 23
f 23 42 41
f 43 25 22
f 44 26 25
f 44 25 43
f 43 22 41
f 45 18 28
f 45 33 18
f 46 30 20
f 46 20 34
f 47 24 31
f 47 40 24
f 48 32 26
f 48 26 44
f 49 35 37
f 50 36 35
f 50 35 49
f 51 37 38
f 49 37 52
f 51 52 37
f 53 28 36
f 53 45 28
f 54 38 30
f 54 30 46
f 55 31 33
f 55 47 31
f 56 34 32
f 56 32 48
f 57 42 39
f 42 58 41
f 57 59 42
f 42 59 58
f 60 39 40
f 60 57 39
f 61 43 41
f 61 41 58
f 62 44 43
f 62 43 61
f 63 33 45
f 63 55 33
f 64 46 34
f 64 34 56
f 65 36 50
f 65 53 36
f 66 51 38
f 66 38 54
f 67 40 47
f 67 60 40
f 68 49 52
f 68 52 69
f 70 69 52
f 70 52 51
f 71 48 44
f 71 44 62
f 72 49 68
f 72 50 49
f 73 59 57
f 59 74 58
f 59 75 74
f 73 75 59
f 76 57 60
f 76 73 57
f 77 61 58
f 77 58 74
f 78 62 61
f 78 61 77
f 79 45 53
f 79 63 45
f 80 54 46
f 80 46 64
f 81 47 55
f 81 67 47
f 72 68 69
f 72 69 70
f 82 56 48
f 82 48 71
f 83 60 67
f 83 76 60
f 84 70 51
f 84 51 66
f 85 50 72
f 85 65 50
f 86 71 62
f 86 62 78
f 75 87 74
f 88 75 73
f 75 88 87
f 87 77 74
f 89 55 63
f 89 81 55
f 90 53 65
f 90 79 53
f 91 64 56
f 91 56 82
f 92 66 54
f 92 54 80
f 88 73 93
f 93 73 76
f 87 94 77
f 94 78 77
f 85 72 70
f 85 70 84
f 95 67 81
f 95 83 67
f 96 82 71
f 96 71 86
f 88 97 87
f 98 88 93
f 88 98 97
f 99 84 66
f 99 66 92
f 97 94 87
f 100 65 85
f 100 90 65
f 101 63 79
f 101 89 63
f 93 76 102
f 102 76 83
f 103 80 64
f 103 64 91
f 94 104 78
f 104 86 78
f 98 93 105
f 105 93 102
f 97 106 94
f 106 104 94
f 107 81 89
f 107 95 81
f 108 91 82
f 108 82 96
f 100 85 84
f 100 84 99
f 98 109 97
f 98 105 110
f 98 111 109
f 98 110 111
f 102 83 112
f 105 102 113
f 113 102 112
f 112 83 95
f 97 114 106
f 97 109 114
f 104 115 86
f 106 116 104
f 116 115 104
f 117 79 90
f 117 101 79
f 115 96 86
f 118 92 80
f 118 80 103
f 105 113 119
f 105 119 110
f 106 120 116
f 106 114 120
f 121 89 101
f 121 107 89
f 122 103 91
f 122 91 108
f 123 99 92
f 123 92 118
f 124 90 100
f 124 117 90
f 112 95 125
f 113 112 126
f 126 112 125
f 125 95 107
f 115 127 96
f 116 128 115
f 128 127 115
f 113 126 129
f 113 129 119
f 127 108 96
f 116 130 128
f 116 120 130
f 131 101 117
f 131 121 101
f 132 118 103
f 132 103 122
f 124 100 99
f 124 99 123
f 125 107 133
f 133 107 121
f 126 125 134
f 134 125 133
f 127 135 108
f 135 122 108
f 128 136 127
f 136 135 127
f 126 134 137
f 126 137 129
f 128 138 136
f 128 130 138
f 111 139 109
f 111 110 140
f 111 141 139
f 111 140 141
f 109 142 114
f 109 139 142
f 143 123 118
f 143 118 132
f 144 117 124
f 144 131 117
f 110 119 145
f 110 145 140
f 114 146 120
f 114 142 146
f 144 124 123
f 144 123 143
f 133 121 147
f 134 133 148
f 148 133 147
f 147 121 131
f 135 149 122
f 149 132 122
f 136 150 135
f 150 149 135
f 134 148 151
f 134 151 137
f 136 152 150
f 136 138 152
f 119 129 153
f 119 153 145
f 141 154 139
f 141 140 155
f 141 156 154
f 141 155 156
f 120 157 130
f 120 146 157
f 139 158 142
f 139 154 158
f 149 159 132
f 159 143 132
f 147 131 160
f 160 131 144
f 140 161 155
f 140 145 161
f 142 158 162
f 142 162 146
f 148 147 163
f 163 147 160
f 150 164 149
f 164 159 149
f 165 144 143
f 159 166 143
f 165 143 166
f 160 144 165
f 148 163 167
f 148 167 151
f 150 168 164
f 150 152 168
f 129 137 169
f 129 169 153
f 130 170 138
f 130 157 170
f 156 171 154
f 156 155 172
f 156 173 171
f 156 172 173
f 154 174 158
f 154 171 174
f 164 175 159
f 175 166 159
f 163 160 176
f 176 160 165
f 155 177 172
f 155 161 177
f 158 174 178
f 158 178 162
f 164 179 175
f 164 168 179
f 163 176 180
f 163 180 167
f 145 153 181
f 145 181 161
f 182 165 166
f 175 183 166
f 182 166 183
f 146 184 157
f 146 162 184
f 176 165 182
f 137 151 185
f 137 185 169
f 138 186 152
f 138 170 186
f 173 187 171
f 173 172 188
f 173 189 187
f 173 188 189
f 171 190 174
f 171 187 190
f 175 191 183
f 175 179 191
f 176 182 192
f 176 192 180
f 192 182 183
f 192 183 191
f 172 193 188
f 172 177 193
f 174 190 194
f 174 194 178
f 153 169 195
f 153 195 181
f 157 196 170
f 157 184 196
f 161 181 197
f 161 197 177
f 162 198 184
f 162 178 198
f 189 190 187
f 189 188 190
f 151 167 199
f 151 199 185
f 152 200 168
f 152 186 200
f 188 194 190
f 188 193 194
f 169 185 201
f 169 201 195
f 170 202 186
f 170 196 202
f 167 180 203
f 167 203 199
f 168 204 179
f 168 200 204
f 184 205 196
f 184 198 205
f 181 195 206
f 181 206 197
f 178 194 207
f 178 207 198
f 177 208 193
f 177 197 208
f 179 209 191
f 179 204 209
f 180 192 210
f 180 210 203
f 185 199 211
f 185 211 201
f 186 212 200
f 186 202 212
f 210 192 191
f 210 191 209
f 193 207 194
f 193 208 207
f 195 201 213
f 195 213 206
f 196 214 202
f 196 205 214
f 198 215 205
f 198 207 215
f 199 203 216
f 199 216 211
f 197 206 217
f 197 217 208
f 200 218 204
f 200 212 218
f 201 211 219
f 201 219 213
f 202 220 212
f 202 214 220
f 204 221 209
f 204 218 221
f 203 210 222
f 203 222 216
f 222 210 209
f 222 209 221
f 205 223 214
f 205 215 223
f 206 213 224
f 206 224 217
f 212 225 218
f 212 220 225
f 208 215 207
f 211 216 226
f 211 226 219
f 208 217 215
f 218 227 221
f 218 225 227
f 216 222 228
f 216 228 226
f 228 222 221
f 228 221 227
f 214 229 220
f 214 223 229
f 213 219 230
f 213 230 224
f 217 223 215
f 217 224 223
f 220 231 225
f 220 229 231
f 219 226 232
f 219 232 230
f 225 233 227
f 225 231 233
f 226 228 234
f 226 234 232
f 234 228 227
f 234 227 233
f 224 229 223
f 224 230 229
f 230 231 229
f 230 232 231
f 232 233 231
f 232 234 233
