# 
# Wavefront OBJ file
# Created with Kaydara FBX
# 
mtllib c:\users\tjvan\onedrive\documenten\fontys\minor\nx\.mtlmodels\patella.r.obj

g Patella_r
v -0.105589 0.443335 0.006739
v -0.105796 0.447295 0.007837
v -0.105762 0.447500 0.006673
v -0.104808 0.451163 0.008626
v -0.105281 0.443230 0.007496
v -0.105444 0.447153 0.008641
v -0.105702 0.443453 0.006087
v -0.105024 0.443708 0.005412
v -0.105231 0.447463 0.006347
v -0.104646 0.451241 0.007070
v -0.104893 0.451252 0.007822
v -0.104443 0.439622 0.005751
v -0.104401 0.439864 0.004881
v -0.104759 0.446917 0.009553
v -0.104472 0.450989 0.009537
v -0.104638 0.443135 0.008339
v -0.103542 0.439583 0.007325
v -0.104131 0.439562 0.006479
v -0.104548 0.447421 0.005969
v -0.104010 0.451063 0.006563
v -0.104328 0.443855 0.005149
v -0.103907 0.440195 0.004529
v -0.103250 0.440584 0.004232
v -0.103781 0.455188 0.008497
v -0.103403 0.455004 0.007517
v -0.103114 0.454754 0.010481
v -0.103626 0.455067 0.009406
v -0.103434 0.443146 0.009070
v -0.103723 0.450650 0.010386
v -0.102798 0.450130 0.011413
v -0.103550 0.446585 0.010375
v -0.102399 0.439846 0.008105
v -0.103616 0.447350 0.005628
v -0.102465 0.436659 0.004122
v -0.102328 0.436293 0.005633
v -0.102583 0.436359 0.004826
v -0.103363 0.444039 0.004921
v -0.101779 0.436414 0.006487
v -0.103051 0.450740 0.006256
v -0.102759 0.454641 0.007033
v -0.101821 0.454056 0.006721
v -0.102097 0.437097 0.003636
v -0.101227 0.458354 0.008836
v -0.102055 0.454092 0.011174
v -0.101929 0.444223 0.004826
v -0.101653 0.450209 0.006100
v -0.102141 0.447153 0.005459
v -0.100949 0.458084 0.009721
v -0.101724 0.443162 0.009800
v -0.101842 0.446294 0.010714
v -0.100591 0.457795 0.007333
v -0.101106 0.458294 0.007898
v -0.102312 0.441073 0.004109
v -0.101001 0.441714 0.004109
v -0.100704 0.438532 0.003100
v -0.101548 0.437694 0.003236
v -0.099522 0.456686 0.011516
v -0.100365 0.457550 0.010549
v -0.100544 0.453231 0.006371
v -0.100899 0.453217 0.011991
v -0.101238 0.449360 0.012115
v -0.099753 0.451985 0.013329
v -0.099837 0.457043 0.006702
v -0.100371 0.433466 0.004043
v -0.100189 0.433385 0.004971
v -0.099779 0.434438 0.002774
v -0.100158 0.433887 0.003297
v -0.100744 0.436845 0.007391
v -0.100883 0.440166 0.008993
v -0.099359 0.437394 0.008376
v -0.099840 0.444365 0.004632
v -0.099582 0.449394 0.005748
v -0.099997 0.446780 0.005252
v -0.099272 0.435229 0.002196
v -0.099580 0.442576 0.004125
v -0.099898 0.445737 0.011794
v -0.098728 0.455895 0.006211
v -0.098773 0.434168 0.006883
v -0.099664 0.433626 0.005896
v -0.098768 0.440553 0.009897
v -0.099624 0.443093 0.010775
v -0.098678 0.451946 0.005819
v -0.099356 0.448501 0.012740
v -0.097993 0.450472 0.013471
v -0.098258 0.460953 0.008116
v -0.098169 0.460829 0.010157
v -0.098426 0.461166 0.009117
v -0.097851 0.460335 0.007533
v -0.099456 0.439862 0.003289
v -0.097651 0.453777 0.013894
v -0.098697 0.455569 0.012830
v -0.097383 0.438064 0.009403
v -0.097441 0.434864 0.008008
v -0.097475 0.438574 0.002309
v -0.098515 0.436569 0.001981
v -0.097275 0.459437 0.006752
v -0.097898 0.431146 0.003344
v -0.097648 0.460101 0.011245
v -0.097422 0.431188 0.005409
v -0.097830 0.431002 0.004295
v -0.097228 0.432263 0.001923
v -0.097675 0.431577 0.002553
v -0.097535 0.444053 0.004180
v -0.097249 0.448517 0.005078
v -0.097459 0.446283 0.004711
v -0.097662 0.445463 0.012349
v -0.096616 0.431743 0.006508
v -0.096466 0.440970 0.010749
v -0.097375 0.443230 0.011508
v -0.098140 0.441761 0.003631
v -0.096006 0.457216 0.013423
v -0.096800 0.458874 0.012286
v -0.096345 0.440931 0.002800
v -0.097223 0.447463 0.013200
v -0.096700 0.433322 0.001137
v -0.097191 0.454247 0.005685
v -0.096390 0.458047 0.006027
v -0.095139 0.456031 0.005451
v -0.096716 0.450600 0.005155
v -0.095612 0.452403 0.005060
v -0.096017 0.435303 0.000735
v -0.095029 0.463000 0.007916
v -0.094913 0.463118 0.009028
v -0.094774 0.462251 0.007317
v -0.094041 0.461972 0.011437
v -0.094572 0.462734 0.010115
v -0.096474 0.451883 0.014101
v -0.096282 0.448895 0.013142
v -0.095073 0.450343 0.014191
v -0.095449 0.428902 0.003751
v -0.095268 0.429504 0.001810
v -0.095491 0.429052 0.002708
v -0.095150 0.429018 0.004934
v -0.095320 0.443611 0.012026
v -0.094905 0.446609 0.013042
v -0.095433 0.445269 0.012572
v -0.095415 0.455277 0.014406
v -0.095462 0.443480 0.003473
v -0.095307 0.437857 0.001006
v -0.094889 0.447823 0.004348
v -0.095108 0.445776 0.004067
v -0.095502 0.435776 0.008986
v -0.095344 0.432549 0.007730
v -0.093394 0.433766 0.008400
v -0.095068 0.438837 0.010113
v -0.093271 0.436832 0.009564
v -0.093760 0.459560 0.005756
v -0.094374 0.461150 0.006505
v -0.094046 0.431869 0.000023
v -0.094703 0.430363 0.001035
v -0.093308 0.460354 0.012533
v -0.094348 0.450997 0.004550
v -0.094566 0.449623 0.004458
v -0.093544 0.434580 -0.000524
v -0.093063 0.430639 0.007104
v -0.094348 0.429604 0.006122
v -0.094343 0.441554 0.011332
v -0.092885 0.439730 0.010665
v -0.094769 0.453039 0.014784
v -0.094296 0.451439 0.014619
v -0.093486 0.442991 0.002598
v -0.094380 0.440458 0.001715
v -0.093400 0.449444 0.014314
v -0.094067 0.447907 0.013744
v -0.093061 0.437544 -0.000229
v -0.092780 0.456029 0.014821
v -0.092837 0.458260 0.013889
v -0.093904 0.453682 0.004795
v -0.091245 0.435053 0.009096
v -0.093113 0.426842 0.003331
v -0.093111 0.426976 0.002172
v -0.092887 0.445332 0.003355
v -0.093762 0.443816 0.012149
v -0.092766 0.445810 0.013037
v -0.093342 0.444825 0.012512
v -0.091203 0.432100 0.007772
v -0.092291 0.440398 0.000530
v -0.092175 0.428655 0.000254
v -0.092843 0.427528 0.001116
v -0.092138 0.427678 0.005801
v -0.092822 0.427060 0.004577
v -0.091976 0.454613 0.004435
v -0.092898 0.457222 0.005136
v -0.091455 0.464156 0.007351
v -0.091224 0.464014 0.008313
v -0.092606 0.449418 0.003904
v -0.092661 0.447447 0.003675
v -0.092803 0.453464 0.015050
v -0.091266 0.462222 0.005959
v -0.091411 0.463378 0.006642
v -0.090951 0.431007 -0.001314
v -0.090864 0.463465 0.009464
v -0.091376 0.442904 0.001623
v -0.090864 0.429010 0.006626
v -0.092525 0.442421 0.011860
v -0.092887 0.451410 0.004217
v -0.092953 0.451207 0.014711
v -0.091492 0.448879 0.014267
v -0.092070 0.447206 0.013631
v -0.089900 0.460695 0.012141
v -0.090394 0.462280 0.010641
v -0.091355 0.443495 0.012365
v -0.090523 0.458047 0.004645
v -0.090982 0.460506 0.005312
v -0.091235 0.434459 -0.001829
v -0.090614 0.444862 0.012853
v -0.091119 0.437954 0.010278
v -0.090331 0.425037 0.001686
v -0.090178 0.425549 0.004309
v -0.090425 0.424885 0.003110
v -0.089077 0.430621 0.007433
v -0.090084 0.440666 -0.000555
v -0.090777 0.437660 -0.001404
v -0.090596 0.453107 0.014961
v -0.091027 0.450829 0.014708
v -0.089926 0.455312 0.003859
v -0.090906 0.440779 0.011340
v -0.089117 0.439265 0.011038
v -0.090494 0.447531 0.003047
v -0.090712 0.445245 0.002543
v -0.090620 0.449720 0.003402
v -0.091145 0.452093 0.003820
v -0.089345 0.426997 -0.000334
v -0.090005 0.425746 0.000470
v -0.089776 0.458091 0.013544
v -0.090155 0.455595 0.014761
v -0.089837 0.426427 0.005378
v -0.089569 0.448438 0.013747
v -0.089968 0.446459 0.013458
v -0.088886 0.450188 0.014606
v -0.087966 0.463967 0.005622
v -0.087543 0.464387 0.007404
v -0.087740 0.464713 0.006479
v -0.088105 0.462876 0.005026
v -0.088473 0.445603 0.001502
v -0.089161 0.443254 0.000564
v -0.089445 0.442095 0.012073
v -0.088195 0.461176 0.004503
v -0.089119 0.433529 0.008689
v -0.089169 0.436417 0.009908
v -0.087080 0.435032 0.009409
v -0.088473 0.435269 -0.003259
v -0.088368 0.438314 -0.002589
v -0.089206 0.452736 0.003187
v -0.088163 0.458609 0.003888
v -0.088244 0.428723 -0.001514
v -0.087963 0.432604 -0.003254
v -0.086187 0.430623 -0.002673
v -0.087490 0.440892 0.011784
v -0.088962 0.427835 0.006182
v -0.087285 0.463628 0.008626
v -0.087800 0.445503 0.013226
v -0.088560 0.443827 0.012554
v -0.088520 0.450306 0.002800
v -0.087887 0.454909 0.014648
v -0.088399 0.452426 0.014853
v -0.088244 0.447920 0.002291
v -0.086784 0.424299 0.002950
v -0.087086 0.425029 0.004090
v -0.087080 0.462264 0.009942
v -0.086324 0.425058 0.000288
v -0.086605 0.424328 0.001497
v -0.087356 0.457519 0.013205
v -0.086820 0.443811 -0.000786
v -0.087735 0.441312 -0.001701
v -0.087230 0.447321 0.014030
v -0.087107 0.453425 0.002340
v -0.087771 0.455874 0.003105
v -0.086954 0.460267 0.011705
v -0.087461 0.427252 0.005809
v -0.087412 0.426078 0.005044
v -0.086303 0.442702 0.012270
v -0.085874 0.427835 -0.001212
v -0.086014 0.426432 -0.000529
v -0.087217 0.437915 0.010670
v -0.085162 0.436582 0.010234
v -0.086198 0.446202 0.000120
v -0.086970 0.432234 0.008029
v -0.084968 0.433637 0.008972
v -0.087125 0.429383 0.006923
v -0.084926 0.430741 0.007569
v -0.086153 0.451641 0.014790
v -0.086663 0.449379 0.014519
v -0.085633 0.444473 0.013113
v -0.086366 0.450994 0.001770
v -0.085520 0.436364 -0.004525
v -0.085693 0.454182 0.014590
v -0.085026 0.441759 -0.003062
v -0.085651 0.439068 -0.003761
v -0.085972 0.448548 0.001077
v -0.085483 0.461310 0.003402
v -0.084873 0.462923 0.003759
v -0.085693 0.456441 0.002327
v -0.086058 0.458832 0.003063
v -0.083694 0.432323 -0.003495
v -0.084897 0.434115 -0.004546
v -0.084416 0.463980 0.004445
v -0.084248 0.444292 -0.002310
v -0.084030 0.464334 0.005486
v -0.083738 0.463268 0.008084
v -0.083828 0.464056 0.006613
v -0.085407 0.439625 0.011479
v -0.084067 0.441456 0.012304
v -0.084534 0.426674 0.005110
v -0.085562 0.428051 0.006095
v -0.084548 0.459558 0.011466
v -0.085194 0.456920 0.013282
v -0.084358 0.448438 0.014446
v -0.084939 0.446354 0.013910
v -0.083368 0.438369 0.011067
v -0.083228 0.429246 0.006671
v -0.084195 0.451801 0.000538
v -0.084884 0.454234 0.001397
v -0.083423 0.425111 0.002877
v -0.083864 0.425668 0.003985
v -0.083058 0.435198 0.009910
v -0.083938 0.461801 0.009682
v -0.082842 0.432276 0.008200
v -0.083846 0.450740 0.014735
v -0.082984 0.425933 0.000393
v -0.083110 0.425134 0.001552
v -0.083746 0.449276 -0.000295
v -0.083791 0.446775 -0.001335
v -0.083993 0.428999 -0.001448
v -0.084201 0.458916 0.002262
v -0.083052 0.427297 -0.000376
v -0.083089 0.456126 0.013563
v -0.083462 0.453383 0.014632
v -0.083168 0.457327 0.001466
v -0.082309 0.439365 -0.004599
v -0.081933 0.441782 -0.004002
v -0.082516 0.445290 0.013741
v -0.083215 0.443325 0.013024
v -0.081586 0.435119 -0.005282
v -0.082104 0.437132 -0.005124
v -0.082732 0.460527 0.002217
v -0.082375 0.458672 0.011781
v -0.082009 0.455135 0.000535
v -0.080795 0.462889 0.003652
v -0.081576 0.461901 0.002669
v -0.081276 0.460787 0.009966
v -0.081098 0.427026 0.004295
v -0.081949 0.427938 0.005607
v -0.081915 0.447421 0.014390
v -0.081153 0.447185 -0.002226
v -0.081402 0.444423 -0.003240
v -0.081250 0.449920 -0.001162
v -0.081599 0.452634 -0.000290
v -0.080117 0.458483 0.001452
v -0.081768 0.440379 0.011652
v -0.080745 0.442297 0.012520
v -0.080417 0.463205 0.004968
v -0.081904 0.430455 -0.001811
v -0.081111 0.452487 0.014650
v -0.081431 0.449809 0.014690
v -0.080359 0.462874 0.006250
v -0.080462 0.462251 0.008000
v -0.079652 0.431664 -0.001969
v -0.080830 0.433348 -0.004105
v -0.080827 0.455206 0.013883
v -0.080154 0.426309 0.001752
v -0.080506 0.426416 0.003063
v -0.081276 0.437100 0.010686
v -0.079605 0.439165 0.011306
v -0.081027 0.430818 0.007446
v -0.079631 0.429525 0.006311
v -0.080209 0.427134 0.000567
v -0.080217 0.457490 0.012154
v -0.080680 0.428568 -0.000371
v -0.080948 0.434065 0.008988
v -0.079172 0.435899 0.009900
v -0.079011 0.432709 0.008155
v -0.079340 0.446402 0.014015
v -0.079981 0.444271 0.013213
v -0.078580 0.439770 -0.004777
v -0.078244 0.437665 -0.005277
v -0.077929 0.455824 0.001166
v -0.078544 0.444709 -0.003324
v -0.078628 0.442035 -0.004157
v -0.078854 0.448887 0.014524
v -0.078362 0.452981 0.000073
v -0.077579 0.434084 -0.004131
v -0.077821 0.435715 -0.005400
v -0.078507 0.459876 0.002314
v -0.078575 0.451615 0.014464
v -0.078496 0.447537 -0.002245
v -0.077968 0.460525 0.008126
v -0.079051 0.459361 0.010291
v -0.078507 0.450317 -0.001094
v -0.078357 0.454310 0.014099
v -0.078060 0.427856 0.003462
v -0.078701 0.428558 0.004805
v -0.077493 0.461321 0.004732
v -0.077784 0.460903 0.003497
v -0.077387 0.443251 0.012543
v -0.078241 0.441280 0.011876
v -0.078449 0.429769 -0.000185
v -0.077653 0.427638 0.002172
v -0.077569 0.461110 0.006187
v -0.077771 0.428361 0.000885
v -0.077012 0.457950 0.010580
v -0.077945 0.456389 0.012580
v -0.076770 0.445458 0.013240
v -0.076223 0.430741 0.000210
v -0.077177 0.432536 -0.001900
v -0.077458 0.431404 0.006826
v -0.076381 0.430119 0.005462
v -0.077514 0.437993 0.010520
v -0.075990 0.440114 0.011051
v -0.076242 0.448023 0.013962
v -0.077162 0.434704 0.008781
v -0.075493 0.436766 0.009327
v -0.075864 0.459035 0.008373
v -0.075362 0.433324 0.007420
v -0.075921 0.450866 0.014109
v -0.075730 0.429283 0.004035
v -0.075501 0.442489 -0.003348
v -0.075803 0.445030 -0.002473
v -0.074510 0.438143 -0.004373
v -0.075075 0.440216 -0.003960
v -0.075937 0.450248 -0.000069
v -0.075940 0.457876 0.002404
v -0.075151 0.459050 0.003568
v -0.075974 0.447652 -0.001351
v -0.075556 0.452773 0.001137
v -0.075475 0.455482 0.012730
v -0.075711 0.453522 0.013870
v -0.074841 0.442121 0.011673
v -0.075222 0.459434 0.006405
v -0.074852 0.456972 0.011048
v -0.073155 0.456510 0.002992
v -0.074442 0.454844 0.002096
v -0.074051 0.436115 -0.004320
v -0.075540 0.429538 0.001484
v -0.075354 0.428905 0.002761
v -0.074216 0.434423 -0.003130
v -0.073856 0.438829 0.009897
v -0.074970 0.459481 0.004873
v -0.074040 0.431892 0.005988
v -0.074400 0.432896 -0.001217
v -0.073596 0.435416 0.007908
v -0.073730 0.457897 0.008901
v -0.074221 0.444441 0.012449
v -0.073796 0.447211 0.013163
v -0.073010 0.430492 0.001857
v -0.073764 0.431417 0.000640
v -0.073562 0.449781 0.001024
v -0.073698 0.447468 -0.000135
v -0.072771 0.451925 0.002057
v -0.072532 0.457637 0.004038
v -0.072989 0.452823 0.013447
v -0.073373 0.450177 0.013599
v -0.072931 0.442715 -0.001924
v -0.073480 0.445069 -0.001178
v -0.072821 0.430266 0.003273
v -0.073257 0.430886 0.004519
v -0.072532 0.454846 0.012977
v -0.071536 0.453630 0.002921
v -0.072025 0.456126 0.011524
v -0.072658 0.457850 0.005315
v -0.072984 0.457978 0.006844
v -0.072201 0.440534 -0.002352
v -0.071851 0.443464 0.011592
v -0.072527 0.440991 0.010628
v -0.071016 0.436427 -0.002300
v -0.071441 0.438498 -0.002549
v -0.070551 0.455036 0.003928
v -0.071194 0.433361 0.000005
v -0.071265 0.434641 -0.001280
v -0.071573 0.446333 0.012375
v -0.071988 0.434055 0.006324
v -0.070842 0.432878 0.004879
v -0.071925 0.437541 0.008515
v -0.070356 0.439917 0.009248
v -0.071024 0.449258 0.012953
v -0.070606 0.432544 0.001113
v -0.070761 0.456683 0.007519
v -0.071420 0.456759 0.009537
v -0.071491 0.447106 0.000872
v -0.070104 0.436225 0.007109
v -0.071129 0.448984 0.001773
v -0.071431 0.445075 0.000049
v -0.070246 0.451741 0.012927
v -0.070212 0.432187 0.003536
v -0.070020 0.431924 0.002272
v -0.069489 0.453438 0.012640
v -0.070312 0.456381 0.006061
v -0.069715 0.441018 -0.000542
v -0.070756 0.443083 -0.000395
v -0.070254 0.450613 0.002669
v -0.069515 0.442631 0.010481
v -0.070091 0.455992 0.004905
v -0.068517 0.455272 0.009979
v -0.068874 0.454702 0.011629
v -0.068677 0.435245 0.005609
v -0.068375 0.438797 0.008105
v -0.069486 0.445445 0.011547
v -0.069184 0.452066 0.003757
v -0.069161 0.445014 0.001334
v -0.068727 0.448178 0.002601
v -0.069003 0.446578 0.001931
v -0.068078 0.437111 -0.000229
v -0.068777 0.439047 -0.000568
v -0.069245 0.443559 0.000748
v -0.068207 0.455177 0.008379
v -0.067784 0.435679 0.000472
v -0.067216 0.434517 0.001994
v -0.067511 0.434974 0.001142
v -0.068656 0.449647 0.003163
v -0.068985 0.448036 0.012212
v -0.067934 0.454155 0.006069
v -0.068396 0.453238 0.004979
v -0.067852 0.454931 0.007167
v -0.067905 0.450098 0.011860
v -0.067474 0.434654 0.003084
v -0.067878 0.434814 0.004203
v -0.067941 0.442268 0.001121
v -0.066607 0.440716 0.001489
v -0.067369 0.444891 0.010557
v -0.067316 0.441851 0.009398
v -0.067608 0.446825 0.011466
v -0.066013 0.452166 0.011166
v -0.066804 0.451252 0.011913
v -0.067064 0.444202 0.002362
v -0.067537 0.450232 0.004217
v -0.066630 0.451139 0.005551
v -0.066785 0.448199 0.003928
v -0.066722 0.446170 0.003229
v -0.065558 0.452663 0.010086
v -0.065613 0.439488 0.001904
v -0.066841 0.438012 0.006989
v -0.065818 0.437678 0.005827
v -0.065937 0.451906 0.006776
v -0.065658 0.441351 0.008486
v -0.065458 0.452524 0.007735
v -0.065306 0.452842 0.008852
v -0.065435 0.443246 0.003197
v -0.066063 0.447615 0.011248
v -0.064828 0.448178 0.010943
v -0.065225 0.437702 0.004755
v -0.064957 0.438677 0.002304
v -0.065377 0.444691 0.009929
v -0.064678 0.438035 0.003181
v -0.064886 0.437849 0.003838
v -0.064402 0.440915 0.007998
v -0.065443 0.448559 0.005362
v -0.065083 0.445892 0.004479
v -0.064105 0.444683 0.009532
v -0.063895 0.448640 0.010467
v -0.063816 0.449092 0.007467
v -0.064497 0.448890 0.006566
v -0.064339 0.442584 0.003838
v -0.063598 0.442195 0.004316
v -0.063267 0.449192 0.008331
v -0.063207 0.449055 0.009393
v -0.064032 0.445671 0.005491
v -0.063251 0.441344 0.005985
v -0.063462 0.440923 0.007010
v -0.063212 0.441690 0.005199
v -0.063112 0.444820 0.009038
v -0.063330 0.445532 0.006269
v -0.062749 0.445117 0.007992
v -0.062802 0.445316 0.007115
usemtl Patella_rMaterial0
f 1 2 3
f 2 4 3
f 1 5 2
f 5 6 2
f 2 6 4
f 7 1 3
f 7 3 8
f 8 3 9
f 9 3 10
f 3 4 11
f 3 11 10
f 12 1 7
f 13 7 8
f 13 12 7
f 12 5 1
f 5 14 6
f 6 15 4
f 6 14 15
f 16 14 5
f 17 16 5
f 18 5 12
f 18 17 5
f 8 9 19
f 9 10 20
f 19 9 20
f 21 8 19
f 22 13 8
f 23 8 21
f 22 8 23
f 11 4 24
f 10 11 25
f 11 24 25
f 15 26 4
f 4 27 24
f 4 26 27
f 16 28 14
f 14 29 15
f 14 30 29
f 28 31 14
f 31 30 14
f 17 32 16
f 32 28 16
f 10 25 20
f 21 19 33
f 19 20 33
f 15 29 26
f 34 12 13
f 35 18 12
f 36 12 34
f 36 35 12
f 34 13 22
f 37 21 33
f 21 37 23
f 38 17 18
f 35 38 18
f 33 20 39
f 20 25 40
f 39 20 41
f 20 40 41
f 42 22 23
f 42 34 22
f 24 27 43
f 24 43 25
f 29 44 26
f 29 30 44
f 45 37 33
f 33 39 46
f 47 45 33
f 47 33 46
f 27 26 48
f 27 48 43
f 38 32 17
f 28 49 31
f 31 50 30
f 49 50 31
f 32 49 28
f 40 25 51
f 25 43 52
f 25 52 51
f 37 53 23
f 54 53 37
f 45 54 37
f 53 55 23
f 56 42 23
f 23 55 56
f 44 57 26
f 26 58 48
f 26 57 58
f 39 41 59
f 46 39 59
f 30 60 44
f 50 61 30
f 61 62 30
f 30 62 60
f 41 40 63
f 40 51 63
f 64 36 34
f 65 35 36
f 64 65 36
f 66 34 42
f 67 64 34
f 67 34 66
f 68 32 38
f 69 49 32
f 70 69 32
f 68 70 32
f 65 38 35
f 55 53 54
f 71 45 47
f 72 47 46
f 71 47 73
f 73 47 72
f 74 42 56
f 66 42 74
f 44 60 57
f 54 45 75
f 75 45 71
f 49 76 50
f 50 76 61
f 59 41 77
f 41 63 77
f 78 68 38
f 79 38 65
f 79 78 38
f 69 80 49
f 81 76 49
f 80 81 49
f 46 59 82
f 72 46 82
f 56 55 74
f 76 83 61
f 61 84 62
f 83 84 61
f 52 43 85
f 48 86 43
f 43 87 85
f 43 86 87
f 51 52 88
f 52 85 88
f 89 55 54
f 89 54 75
f 48 58 86
f 62 90 60
f 60 91 57
f 60 90 91
f 70 92 69
f 92 80 69
f 93 70 68
f 78 93 68
f 94 55 89
f 55 95 74
f 95 55 94
f 63 51 96
f 51 88 96
f 59 77 82
f 97 65 64
f 97 64 67
f 58 57 98
f 58 98 86
f 99 79 65
f 100 65 97
f 100 99 65
f 101 67 66
f 102 97 67
f 102 67 101
f 103 71 73
f 73 72 104
f 103 73 105
f 105 73 104
f 81 106 76
f 76 106 83
f 75 71 103
f 63 96 77
f 101 66 74
f 62 84 90
f 107 78 79
f 99 107 79
f 80 108 81
f 109 106 81
f 108 109 81
f 110 89 75
f 110 75 103
f 104 72 82
f 91 111 57
f 57 112 98
f 57 111 112
f 113 89 110
f 94 89 113
f 92 70 93
f 83 114 84
f 106 114 83
f 74 95 115
f 115 101 74
f 93 78 107
f 108 80 92
f 82 77 116
f 77 96 117
f 116 77 118
f 77 117 118
f 91 90 111
f 104 82 119
f 82 116 120
f 119 82 120
f 121 95 94
f 95 121 115
f 85 87 122
f 87 86 123
f 87 123 122
f 88 85 124
f 85 122 124
f 98 125 86
f 86 126 123
f 86 125 126
f 113 110 103
f 84 127 90
f 114 128 84
f 84 129 127
f 128 129 84
f 130 100 97
f 131 97 102
f 132 130 97
f 132 97 131
f 88 124 96
f 133 99 100
f 130 133 100
f 131 102 101
f 109 134 106
f 106 135 114
f 134 136 106
f 136 135 106
f 90 127 137
f 90 137 111
f 98 112 125
f 138 103 105
f 138 113 103
f 139 94 113
f 139 121 94
f 105 104 140
f 141 138 105
f 141 105 140
f 142 92 93
f 143 93 107
f 144 142 93
f 143 144 93
f 107 99 133
f 145 108 92
f 142 146 92
f 146 145 92
f 134 109 108
f 117 96 147
f 96 124 148
f 96 148 147
f 140 104 119
f 149 101 115
f 150 131 101
f 150 101 149
f 114 135 128
f 116 118 120
f 112 111 151
f 112 151 125
f 119 120 152
f 153 140 119
f 153 119 152
f 121 154 115
f 115 154 149
f 155 143 107
f 156 107 133
f 156 155 107
f 157 134 108
f 145 158 108
f 158 157 108
f 127 159 137
f 129 160 127
f 127 160 159
f 117 147 118
f 161 113 138
f 162 139 113
f 162 113 161
f 128 163 129
f 135 164 128
f 164 163 128
f 165 121 139
f 154 121 165
f 137 166 111
f 111 167 151
f 111 166 167
f 120 118 168
f 120 168 152
f 144 169 142
f 169 146 142
f 170 130 132
f 171 132 131
f 170 132 171
f 172 138 141
f 161 138 172
f 133 130 170
f 173 136 134
f 136 174 135
f 173 175 136
f 175 174 136
f 137 159 166
f 176 144 143
f 155 176 143
f 157 173 134
f 177 139 162
f 165 139 177
f 178 131 150
f 171 131 179
f 179 131 178
f 180 156 133
f 181 133 170
f 181 180 133
f 118 182 168
f 147 183 118
f 118 183 182
f 172 141 140
f 146 158 145
f 129 163 160
f 122 123 184
f 122 184 124
f 135 174 164
f 123 126 185
f 123 185 184
f 140 153 186
f 187 172 140
f 187 140 186
f 159 160 188
f 159 188 166
f 148 124 189
f 124 184 190
f 124 190 189
f 191 150 149
f 178 150 191
f 186 153 152
f 126 125 192
f 126 192 185
f 193 162 161
f 177 162 193
f 148 189 147
f 194 155 156
f 180 194 156
f 195 173 157
f 158 195 157
f 168 196 152
f 186 152 196
f 160 163 197
f 160 197 188
f 163 164 198
f 174 199 164
f 164 199 198
f 149 154 191
f 151 200 125
f 125 201 192
f 125 200 201
f 168 182 196
f 202 175 173
f 195 202 173
f 147 203 183
f 189 204 147
f 204 203 147
f 205 154 165
f 154 205 191
f 193 161 172
f 176 169 144
f 163 198 197
f 175 206 174
f 202 206 175
f 151 167 200
f 207 158 146
f 169 207 146
f 208 170 171
f 209 181 170
f 210 170 208
f 210 209 170
f 208 171 179
f 211 176 155
f 211 155 194
f 212 165 177
f 213 205 165
f 213 165 212
f 188 197 214
f 197 198 215
f 197 215 214
f 183 216 182
f 183 203 216
f 217 195 158
f 207 218 158
f 218 217 158
f 219 172 187
f 220 193 172
f 220 172 219
f 196 221 186
f 182 222 196
f 222 221 196
f 179 178 223
f 224 208 179
f 224 179 223
f 167 166 225
f 167 225 200
f 209 180 181
f 188 214 166
f 166 214 226
f 166 226 225
f 174 206 199
f 219 187 186
f 221 219 186
f 217 202 195
f 212 177 193
f 223 178 191
f 194 180 227
f 227 180 209
f 198 199 228
f 199 206 229
f 199 229 228
f 182 216 222
f 215 198 230
f 198 228 230
f 190 184 231
f 185 232 184
f 184 233 231
f 184 232 233
f 190 234 189
f 190 231 234
f 235 193 220
f 236 212 193
f 236 193 235
f 237 202 217
f 237 206 202
f 189 238 204
f 234 238 189
f 239 169 176
f 240 207 169
f 241 240 169
f 241 169 239
f 205 242 191
f 243 205 213
f 242 205 243
f 185 192 232
f 239 176 211
f 222 244 221
f 216 244 222
f 240 218 207
f 215 230 214
f 203 204 245
f 204 238 245
f 246 223 191
f 191 242 247
f 246 191 248
f 191 247 248
f 249 237 217
f 218 249 217
f 250 194 227
f 250 211 194
f 192 201 251
f 192 251 232
f 243 213 212
f 235 220 219
f 229 206 252
f 253 206 237
f 206 253 252
f 221 254 219
f 244 254 221
f 226 214 255
f 214 230 256
f 214 256 255
f 203 245 216
f 254 257 219
f 257 235 219
f 258 210 208
f 259 209 210
f 259 210 258
f 201 200 260
f 201 260 251
f 261 208 224
f 258 208 262
f 262 208 261
f 227 209 259
f 225 226 263
f 226 255 263
f 264 212 236
f 265 243 212
f 264 265 212
f 261 224 223
f 228 229 266
f 229 252 266
f 216 267 244
f 245 268 216
f 268 267 216
f 225 263 200
f 200 263 269
f 200 269 260
f 270 250 227
f 271 270 227
f 271 227 259
f 228 266 230
f 253 237 272
f 272 237 249
f 223 246 273
f 274 261 223
f 274 223 273
f 244 267 254
f 275 218 240
f 275 240 276
f 276 240 241
f 277 236 235
f 277 264 236
f 278 239 211
f 279 241 239
f 278 279 239
f 249 218 275
f 280 211 250
f 280 281 211
f 281 278 211
f 270 280 250
f 256 230 282
f 230 266 283
f 230 283 282
f 252 253 284
f 284 253 272
f 254 285 257
f 267 285 254
f 286 242 243
f 242 286 247
f 257 277 235
f 255 256 287
f 256 282 287
f 265 288 243
f 289 286 243
f 288 289 243
f 273 246 248
f 285 290 257
f 290 277 257
f 238 291 245
f 234 292 238
f 238 292 291
f 245 293 268
f 294 293 245
f 291 294 245
f 231 292 234
f 248 247 295
f 247 286 296
f 247 296 295
f 231 233 297
f 297 292 231
f 255 287 263
f 252 284 266
f 268 293 267
f 298 265 264
f 288 265 298
f 233 232 299
f 233 299 297
f 251 300 232
f 232 301 299
f 232 300 301
f 302 249 275
f 272 249 303
f 303 249 302
f 304 270 271
f 305 280 270
f 305 270 304
f 304 271 259
f 269 263 306
f 263 287 307
f 263 307 306
f 251 260 300
f 283 266 308
f 266 284 309
f 266 309 308
f 302 275 310
f 310 275 276
f 311 280 305
f 281 280 311
f 267 312 285
f 293 313 267
f 313 312 267
f 314 259 258
f 315 304 259
f 315 259 314
f 276 241 316
f 316 241 279
f 260 269 317
f 260 317 300
f 279 278 318
f 318 278 281
f 269 306 317
f 298 264 277
f 314 258 262
f 282 283 319
f 283 308 319
f 262 261 320
f 321 314 262
f 321 262 320
f 285 312 290
f 320 261 274
f 284 272 303
f 290 322 277
f 323 298 277
f 322 323 277
f 273 248 324
f 295 324 248
f 282 319 287
f 294 325 293
f 291 325 294
f 326 274 273
f 320 274 326
f 312 322 290
f 326 273 324
f 307 287 327
f 287 319 328
f 287 328 327
f 293 329 313
f 325 329 293
f 289 330 286
f 331 289 288
f 330 289 331
f 309 284 332
f 333 284 303
f 332 284 333
f 311 305 304
f 296 286 334
f 286 330 335
f 286 335 334
f 292 336 291
f 336 325 291
f 303 302 310
f 306 307 337
f 307 327 337
f 310 276 316
f 331 288 298
f 316 279 318
f 309 332 308
f 318 281 311
f 296 334 295
f 313 338 312
f 329 338 313
f 339 292 297
f 292 340 336
f 340 292 339
f 317 306 341
f 306 337 341
f 342 304 315
f 343 311 304
f 343 304 342
f 297 299 339
f 308 344 319
f 308 332 344
f 323 345 298
f 346 331 298
f 345 346 298
f 312 347 322
f 338 348 312
f 348 347 312
f 325 349 329
f 336 349 325
f 350 303 310
f 333 303 351
f 351 303 350
f 299 301 352
f 299 352 339
f 295 353 324
f 353 326 324
f 317 341 300
f 342 315 314
f 328 319 354
f 319 344 355
f 319 355 354
f 301 300 356
f 301 356 352
f 322 347 323
f 347 345 323
f 300 341 357
f 300 357 356
f 358 353 295
f 334 359 295
f 359 358 295
f 327 328 360
f 328 354 360
f 361 314 321
f 362 342 314
f 362 314 361
f 363 310 316
f 350 310 364
f 364 310 363
f 365 318 311
f 366 311 343
f 365 311 366
f 332 333 351
f 329 349 338
f 367 321 320
f 361 321 367
f 337 327 368
f 327 360 368
f 367 320 326
f 353 369 326
f 369 367 326
f 370 316 318
f 363 316 371
f 371 316 370
f 372 318 365
f 370 318 372
f 340 349 336
f 344 332 373
f 374 332 351
f 373 332 374
f 337 368 341
f 330 375 335
f 375 330 331
f 335 376 334
f 335 375 376
f 338 377 348
f 349 377 338
f 366 343 342
f 346 378 331
f 379 375 331
f 378 379 331
f 355 344 380
f 344 373 380
f 358 369 353
f 351 350 364
f 348 381 347
f 377 381 348
f 334 382 359
f 334 376 383
f 383 382 334
f 384 340 339
f 384 349 340
f 354 355 385
f 355 380 385
f 345 386 346
f 386 378 346
f 364 363 371
f 357 341 387
f 341 368 388
f 341 388 387
f 347 386 345
f 389 386 347
f 381 389 347
f 360 354 390
f 354 385 390
f 391 342 362
f 392 366 342
f 392 342 391
f 372 365 366
f 371 370 372
f 359 382 358
f 360 390 368
f 352 393 339
f 394 384 339
f 339 393 394
f 374 351 395
f 396 351 364
f 395 351 396
f 369 397 367
f 397 369 358
f 398 362 361
f 391 362 398
f 356 357 399
f 357 387 399
f 352 356 393
f 356 399 393
f 398 361 367
f 397 400 367
f 400 398 367
f 388 368 401
f 368 390 402
f 368 402 401
f 377 349 384
f 373 374 403
f 403 374 395
f 404 397 358
f 382 405 358
f 405 404 358
f 406 372 366
f 407 366 392
f 406 366 407
f 408 364 371
f 396 364 409
f 409 364 408
f 380 373 410
f 410 373 403
f 411 371 372
f 408 371 412
f 412 371 411
f 387 388 413
f 388 401 413
f 414 372 406
f 411 372 414
f 385 380 415
f 380 410 415
f 416 392 391
f 407 392 416
f 379 417 375
f 378 418 379
f 418 417 379
f 376 375 419
f 417 420 375
f 375 420 419
f 385 415 390
f 386 418 378
f 389 421 386
f 381 421 389
f 422 377 384
f 423 384 394
f 422 384 423
f 421 424 386
f 424 418 386
f 404 400 397
f 377 425 381
f 425 421 381
f 402 390 426
f 390 415 427
f 390 427 426
f 376 419 383
f 395 396 428
f 428 396 409
f 416 391 398
f 399 387 429
f 387 413 429
f 401 402 430
f 402 426 430
f 431 377 422
f 432 425 377
f 432 377 431
f 433 382 383
f 383 419 433
f 394 393 423
f 400 434 398
f 434 400 404
f 435 416 398
f 434 435 398
f 382 436 405
f 436 382 433
f 399 429 393
f 409 408 437
f 437 408 412
f 393 429 438
f 393 438 423
f 439 406 407
f 414 406 439
f 403 395 428
f 405 440 404
f 436 440 405
f 412 411 441
f 441 411 414
f 413 401 442
f 401 430 442
f 443 410 403
f 443 403 428
f 439 407 416
f 410 444 415
f 444 410 443
f 445 434 404
f 440 446 404
f 446 445 404
f 428 409 437
f 421 447 424
f 424 448 418
f 447 448 424
f 425 449 421
f 449 447 421
f 450 422 423
f 431 422 450
f 427 415 451
f 415 444 452
f 415 452 451
f 413 442 429
f 418 453 417
f 448 454 418
f 454 453 418
f 435 455 416
f 456 439 416
f 455 456 416
f 426 427 457
f 427 451 457
f 458 425 432
f 449 425 458
f 445 435 434
f 437 412 441
f 417 453 420
f 430 426 459
f 426 457 459
f 455 435 445
f 441 414 439
f 438 429 460
f 429 442 461
f 429 461 460
f 423 438 450
f 420 462 419
f 420 453 462
f 438 460 450
f 430 459 442
f 463 443 428
f 464 428 437
f 464 463 428
f 433 419 465
f 419 462 466
f 419 466 465
f 467 432 431
f 458 432 467
f 468 440 436
f 440 468 446
f 469 436 433
f 469 468 436
f 444 443 470
f 470 443 463
f 465 469 433
f 471 441 439
f 456 472 439
f 472 471 439
f 473 437 441
f 474 464 437
f 473 474 437
f 452 444 475
f 475 444 470
f 446 476 445
f 468 476 446
f 461 442 477
f 442 459 478
f 442 478 477
f 447 479 448
f 448 479 454
f 471 480 441
f 480 473 441
f 481 447 449
f 481 479 447
f 454 482 453
f 479 482 454
f 451 452 483
f 452 475 483
f 484 456 455
f 472 456 484
f 467 431 450
f 484 455 445
f 476 485 445
f 485 484 445
f 457 451 486
f 451 483 486
f 460 461 487
f 461 477 487
f 462 453 488
f 453 482 489
f 453 489 488
f 490 449 458
f 490 481 449
f 460 487 450
f 463 464 491
f 491 464 474
f 457 486 459
f 492 467 450
f 450 487 492
f 462 488 466
f 478 459 493
f 459 486 494
f 459 494 493
f 495 471 472
f 480 471 495
f 474 473 496
f 496 473 480
f 470 463 491
f 497 475 470
f 497 470 491
f 498 458 467
f 498 490 458
f 482 479 499
f 479 481 500
f 499 479 501
f 501 479 500
f 465 466 502
f 466 488 503
f 466 503 502
f 489 482 504
f 504 482 499
f 477 478 505
f 478 493 505
f 506 468 469
f 502 469 465
f 506 469 502
f 507 476 468
f 508 468 506
f 508 507 468
f 509 481 490
f 500 481 509
f 475 510 483
f 510 475 497
f 495 472 484
f 489 504 488
f 477 505 487
f 476 507 485
f 511 467 492
f 512 498 467
f 512 467 511
f 491 474 496
f 492 487 511
f 487 505 513
f 487 513 511
f 509 490 498
f 483 514 486
f 483 510 514
f 485 515 484
f 516 495 484
f 515 516 484
f 496 480 495
f 507 515 485
f 488 504 517
f 503 488 518
f 488 517 518
f 519 497 491
f 520 491 496
f 520 519 491
f 521 510 497
f 519 521 497
f 494 486 522
f 486 514 523
f 486 523 522
f 504 499 524
f 517 504 524
f 525 509 498
f 526 498 512
f 525 498 526
f 499 501 524
f 501 500 527
f 524 501 528
f 528 501 527
f 510 521 514
f 493 494 529
f 494 522 529
f 502 503 530
f 503 518 530
f 500 509 527
f 531 496 495
f 516 532 495
f 532 531 495
f 527 509 525
f 493 529 505
f 533 512 511
f 526 512 533
f 534 520 496
f 531 534 496
f 513 505 535
f 505 529 536
f 505 536 535
f 530 506 502
f 517 524 537
f 518 517 537
f 511 513 533
f 514 521 538
f 523 514 539
f 514 538 539
f 515 540 516
f 540 532 516
f 513 535 533
f 541 508 506
f 541 506 530
f 521 519 542
f 538 521 542
f 527 525 526
f 543 507 508
f 543 508 541
f 540 515 507
f 534 519 520
f 542 519 534
f 544 540 507
f 544 507 543
f 524 528 537
f 532 545 531
f 545 534 531
f 523 539 522
f 528 527 546
f 546 527 526
f 537 528 547
f 547 528 546
f 546 526 533
f 518 537 530
f 538 542 548
f 539 538 548
f 522 549 529
f 522 539 549
f 535 550 533
f 551 546 533
f 533 550 551
f 545 532 540
f 542 534 545
f 530 537 552
f 553 541 530
f 552 553 530
f 536 529 554
f 529 549 555
f 529 555 554
f 535 536 550
f 537 547 556
f 552 537 556
f 547 546 551
f 548 542 545
f 536 554 550
f 557 540 544
f 558 545 540
f 558 540 557
f 556 547 551
f 559 543 541
f 553 559 541
f 559 544 543
f 557 544 559
f 539 548 549
f 551 550 556
f 548 545 560
f 560 545 558
f 556 561 552
f 561 553 552
f 549 548 560
f 550 561 556
f 555 549 562
f 549 560 562
f 550 563 561
f 554 563 550
f 561 559 553
f 562 558 557
f 560 558 562
f 563 559 561
f 554 555 563
f 562 557 559
f 563 562 559
f 555 562 563
