# 
# Wavefront OBJ file
# Created with Kaydara FBX
# 
mtllib c:\users\tjvan\onedrive\documenten\fontys\minor\nx\.mtlmodels\perforating_branches__boyd's_veins_.r.obj

g Perforating_branches__Boyd_s_veins__r
v -0.082399 0.354378 -0.046671
v -0.084484 0.353399 -0.045770
v -0.084514 0.353200 -0.045973
v -0.082385 0.354201 -0.046897
v -0.084433 0.352954 -0.046093
v -0.082362 0.354426 -0.046391
v -0.084349 0.353496 -0.045538
v -0.082324 0.353943 -0.047008
v -0.084261 0.352726 -0.046097
v -0.082284 0.354333 -0.046131
v -0.084146 0.353466 -0.045339
v -0.082232 0.353673 -0.046973
v -0.084045 0.352577 -0.045985
v -0.082185 0.354124 -0.045961
v -0.083930 0.353317 -0.045226
v -0.082133 0.353464 -0.046803
v -0.083843 0.352547 -0.045785
v -0.082093 0.353854 -0.045926
v -0.083759 0.353089 -0.045230
v -0.082055 0.353371 -0.046543
v -0.083708 0.352644 -0.045553
v -0.082032 0.353596 -0.046037
v -0.083677 0.352842 -0.045350
v -0.082018 0.353419 -0.046263
v -0.079566 0.354928 -0.046628
v -0.079605 0.354960 -0.046343
v -0.079515 0.354759 -0.046856
v -0.079620 0.354845 -0.046079
v -0.079466 0.354497 -0.046967
v -0.079610 0.354615 -0.045905
v -0.079431 0.354212 -0.046930
v -0.079575 0.354330 -0.045869
v -0.079421 0.353982 -0.046757
v -0.079526 0.354068 -0.045980
v -0.079437 0.353867 -0.046492
v -0.079475 0.353899 -0.046208
v -0.076357 0.354884 -0.045178
v -0.076348 0.354595 -0.045146
v -0.076325 0.355119 -0.045344
v -0.076262 0.355240 -0.045600
v -0.076300 0.354331 -0.045258
v -0.076183 0.355212 -0.045879
v -0.076227 0.354163 -0.045483
v -0.076110 0.355044 -0.046104
v -0.076149 0.354135 -0.045761
v -0.076063 0.354780 -0.046215
v -0.076085 0.354255 -0.046018
v -0.076053 0.354491 -0.046184
v -0.072623 0.354746 -0.043900
v -0.072572 0.354481 -0.044011
v -0.072624 0.355036 -0.043929
v -0.072575 0.355274 -0.044090
v -0.072484 0.354312 -0.044233
v -0.072488 0.355397 -0.044341
v -0.072384 0.354285 -0.044506
v -0.072387 0.355370 -0.044614
v -0.072297 0.354407 -0.044756
v -0.072299 0.355201 -0.044835
v -0.072247 0.354646 -0.044918
v -0.072248 0.354936 -0.044947
v -0.068596 0.354899 -0.042294
v -0.068537 0.354632 -0.042403
v -0.068599 0.355191 -0.042324
v -0.068437 0.354464 -0.042621
v -0.068544 0.355430 -0.042484
v -0.068324 0.354437 -0.042891
v -0.068448 0.355553 -0.042733
v -0.068227 0.354560 -0.043139
v -0.068334 0.355527 -0.043002
v -0.068173 0.354800 -0.043300
v -0.068235 0.355358 -0.043221
v -0.068176 0.355092 -0.043330
v -0.064446 0.355173 -0.040496
v -0.064375 0.354907 -0.040600
v -0.064459 0.355466 -0.040530
v -0.064264 0.354738 -0.040815
v -0.064411 0.355707 -0.040694
v -0.064144 0.354712 -0.041084
v -0.064313 0.355831 -0.040944
v -0.064193 0.355805 -0.041212
v -0.064046 0.354836 -0.041333
v -0.063998 0.355076 -0.041497
v -0.064082 0.355636 -0.041427
v -0.064011 0.355369 -0.041532
v -0.060350 0.355692 -0.038672
v -0.060383 0.355984 -0.038715
v -0.060260 0.355427 -0.038769
v -0.060350 0.356224 -0.038887
v -0.060138 0.355258 -0.038981
v -0.060260 0.356347 -0.039142
v -0.060015 0.355232 -0.039249
v -0.060138 0.356321 -0.039411
v -0.059925 0.355356 -0.039504
v -0.060015 0.356153 -0.039622
v -0.059892 0.355595 -0.039676
v -0.059925 0.355887 -0.039719
v -0.056479 0.356579 -0.036989
v -0.056545 0.356865 -0.037047
v -0.056362 0.356319 -0.037076
v -0.056541 0.357099 -0.037232
v -0.056225 0.356153 -0.037282
v -0.056469 0.357218 -0.037496
v -0.056104 0.356126 -0.037554
v -0.056348 0.357191 -0.037767
v -0.056032 0.356246 -0.037817
v -0.056211 0.357026 -0.037974
v -0.056028 0.356480 -0.038003
v -0.056094 0.356765 -0.038060
v -0.053118 0.358228 -0.035691
v -0.053002 0.357963 -0.035614
v -0.053162 0.358444 -0.035896
v -0.052845 0.357717 -0.035686
v -0.053121 0.358550 -0.036173
v -0.052689 0.357558 -0.035887
v -0.053008 0.358520 -0.036449
v -0.052575 0.357528 -0.036162
v -0.052851 0.358361 -0.036650
v -0.052535 0.357635 -0.036440
v -0.052694 0.358116 -0.036721
v -0.052578 0.357850 -0.036644
v -0.050277 0.360196 -0.034816
v -0.050387 0.360364 -0.035040
v -0.050092 0.359978 -0.034718
v -0.050392 0.360437 -0.035333
v -0.049881 0.359770 -0.034775
v -0.050292 0.360397 -0.035614
v -0.049701 0.359627 -0.034970
v -0.050112 0.360253 -0.035809
v -0.049601 0.359586 -0.035251
v -0.049902 0.360045 -0.035866
v -0.049606 0.359660 -0.035544
v -0.049716 0.359828 -0.035769
v -0.048369 0.362970 -0.034818
v -0.048192 0.362888 -0.034586
v -0.048421 0.362983 -0.035117
v -0.048335 0.362922 -0.035401
v -0.047939 0.362759 -0.034482
v -0.048134 0.362805 -0.035595
v -0.047676 0.362617 -0.034533
v -0.047871 0.362663 -0.035647
v -0.047475 0.362500 -0.034728
v -0.047617 0.362534 -0.035543
v -0.047389 0.362439 -0.035012
v -0.047441 0.362452 -0.035310
v -0.047250 0.366407 -0.035386
v -0.047328 0.366344 -0.035674
v -0.047037 0.366430 -0.035169
v -0.047250 0.366258 -0.035956
v -0.046746 0.366407 -0.035082
v -0.047037 0.366172 -0.036156
v -0.046455 0.366344 -0.035147
v -0.046746 0.366109 -0.036221
v -0.046242 0.366258 -0.035347
v -0.046455 0.366086 -0.036133
v -0.046164 0.366172 -0.035629
v -0.046242 0.366109 -0.035917
v -0.082321 0.267554 -0.045276
v -0.084013 0.267350 -0.045756
v -0.084016 0.267493 -0.046030
v -0.082367 0.267285 -0.045130
v -0.083975 0.267093 -0.045588
v -0.082225 0.267710 -0.045524
v -0.083983 0.267484 -0.046338
v -0.082350 0.266977 -0.045126
v -0.083913 0.266790 -0.045572
v -0.082103 0.267713 -0.045808
v -0.083924 0.267324 -0.046596
v -0.081990 0.267561 -0.046052
v -0.083855 0.267057 -0.046736
v -0.082275 0.266711 -0.045264
v -0.083843 0.266523 -0.045712
v -0.081914 0.267295 -0.046191
v -0.083793 0.266754 -0.046720
v -0.082162 0.266559 -0.045508
v -0.083784 0.266364 -0.045970
v -0.082040 0.266561 -0.045792
v -0.083752 0.266354 -0.046278
v -0.081898 0.266986 -0.046186
v -0.083755 0.266497 -0.046552
v -0.081944 0.266718 -0.046040
v -0.080594 0.266964 -0.044091
v -0.080510 0.266699 -0.044225
v -0.080587 0.267272 -0.044082
v -0.080493 0.267541 -0.044201
v -0.080360 0.266547 -0.044448
v -0.080336 0.267698 -0.044415
v -0.080182 0.266551 -0.044700
v -0.080158 0.267702 -0.044668
v -0.080025 0.266708 -0.044914
v -0.080008 0.267550 -0.044891
v -0.079931 0.266977 -0.045033
v -0.079924 0.267285 -0.045024
v -0.078719 0.266815 -0.042528
v -0.078626 0.266549 -0.042653
v -0.078704 0.267123 -0.042512
v -0.078451 0.266397 -0.042856
v -0.078586 0.267390 -0.042612
v -0.078240 0.266398 -0.043081
v -0.078397 0.267544 -0.042799
v -0.078051 0.266553 -0.043268
v -0.078186 0.267546 -0.043024
v -0.077933 0.266820 -0.043368
v -0.078011 0.267393 -0.043227
v -0.077918 0.267127 -0.043352
v -0.076807 0.266605 -0.040523
v -0.076703 0.266339 -0.040637
v -0.076792 0.266912 -0.040507
v -0.076510 0.266185 -0.040820
v -0.076663 0.267178 -0.040595
v -0.076278 0.266184 -0.041023
v -0.076455 0.267331 -0.040763
v -0.076070 0.266336 -0.041190
v -0.076223 0.267330 -0.040965
v -0.075941 0.266602 -0.041278
v -0.076030 0.267175 -0.041148
v -0.075927 0.266909 -0.041263
v -0.074924 0.266414 -0.038167
v -0.074810 0.266147 -0.038267
v -0.074914 0.266722 -0.038157
v -0.074601 0.265992 -0.038430
v -0.074782 0.266986 -0.038239
v -0.074354 0.265989 -0.038613
v -0.074562 0.267138 -0.038393
v -0.074135 0.266141 -0.038767
v -0.074315 0.267136 -0.038576
v -0.074002 0.266406 -0.038849
v -0.074107 0.266980 -0.038739
v -0.073992 0.266713 -0.038839
v -0.073133 0.266324 -0.035550
v -0.073006 0.266056 -0.035632
v -0.073131 0.266631 -0.035552
v -0.072783 0.265900 -0.035773
v -0.072999 0.266895 -0.035636
v -0.072523 0.265898 -0.035938
v -0.072773 0.267046 -0.035779
v -0.072298 0.266049 -0.036082
v -0.072514 0.267044 -0.035944
v -0.072166 0.266313 -0.036165
v -0.072291 0.266888 -0.036086
v -0.072164 0.266620 -0.036167
v -0.071491 0.266414 -0.032764
v -0.071349 0.266148 -0.032820
v -0.071499 0.266720 -0.032783
v -0.071112 0.265994 -0.032937
v -0.071372 0.266984 -0.032873
v -0.070842 0.265991 -0.033083
v -0.071143 0.267135 -0.033010
v -0.070613 0.266143 -0.033220
v -0.070873 0.267133 -0.033156
v -0.070486 0.266406 -0.033310
v -0.070636 0.266978 -0.033273
v -0.070494 0.266712 -0.033330
v -0.070055 0.266767 -0.029895
v -0.069897 0.266506 -0.029919
v -0.070077 0.267069 -0.029941
v -0.069956 0.267331 -0.030044
v -0.069645 0.266355 -0.030006
v -0.069725 0.267483 -0.030177
v -0.069367 0.266356 -0.030133
v -0.069446 0.267483 -0.030304
v -0.069136 0.266507 -0.030266
v -0.069194 0.267332 -0.030391
v -0.069015 0.266769 -0.030369
v -0.069036 0.267071 -0.030415
v -0.068881 0.267463 -0.027033
v -0.068917 0.267756 -0.027115
v -0.068706 0.267213 -0.027015
v -0.068805 0.268012 -0.027238
v -0.068440 0.267072 -0.027066
v -0.068574 0.268164 -0.027370
v -0.068153 0.267078 -0.027171
v -0.068287 0.268170 -0.027476
v -0.067922 0.267229 -0.027303
v -0.068020 0.268028 -0.027526
v -0.067809 0.267485 -0.027426
v -0.067845 0.267778 -0.027508
v -0.068024 0.268583 -0.024265
v -0.068074 0.268857 -0.024393
v -0.067833 0.268355 -0.024196
v -0.067970 0.269101 -0.024544
v -0.067554 0.268232 -0.024203
v -0.067740 0.269251 -0.024679
v -0.067260 0.268247 -0.024284
v -0.067446 0.269267 -0.024760
v -0.067030 0.268397 -0.024419
v -0.067538 0.270208 -0.021677
v -0.067598 0.270448 -0.021857
v -0.067167 0.269144 -0.024767
v -0.067337 0.270017 -0.021551
v -0.067500 0.270670 -0.022041
v -0.066926 0.268642 -0.024570
v -0.066976 0.268915 -0.024697
v -0.067050 0.269924 -0.021511
v -0.067272 0.270817 -0.022181
v -0.067479 0.272421 -0.019355
v -0.067540 0.272612 -0.019585
v -0.066751 0.269955 -0.021568
v -0.067277 0.272281 -0.019175
v -0.067443 0.272803 -0.019801
v -0.066974 0.270848 -0.022239
v -0.067215 0.272943 -0.019947
v -0.066989 0.272229 -0.019092
v -0.066523 0.270101 -0.021708
v -0.066917 0.272995 -0.019984
v -0.066686 0.270755 -0.022199
v -0.066690 0.272281 -0.019128
v -0.066426 0.270324 -0.021892
v -0.066485 0.270563 -0.022072
v -0.066628 0.272943 -0.019900
v -0.066463 0.272421 -0.019274
v -0.066427 0.272803 -0.019720
v -0.066366 0.272612 -0.019490
v -0.082775 0.273392 -0.044849
v -0.084489 0.272951 -0.045583
v -0.084494 0.273169 -0.045804
v -0.082749 0.273094 -0.044775
v -0.084423 0.272663 -0.045493
v -0.082722 0.273625 -0.045045
v -0.084437 0.273257 -0.046095
v -0.082650 0.272809 -0.044843
v -0.084314 0.272381 -0.045557
v -0.082605 0.273730 -0.045311
v -0.084333 0.273192 -0.046379
v -0.082453 0.273678 -0.045576
v -0.084210 0.272991 -0.046580
v -0.082505 0.272615 -0.045035
v -0.084191 0.272180 -0.045758
v -0.082309 0.273483 -0.045767
v -0.084101 0.272709 -0.046644
v -0.082354 0.272563 -0.045300
v -0.084087 0.272115 -0.046042
v -0.082210 0.273199 -0.045836
v -0.084035 0.272420 -0.046554
v -0.082236 0.272667 -0.045565
v -0.084030 0.272203 -0.046334
v -0.082183 0.272900 -0.045762
v -0.080828 0.273438 -0.043547
v -0.080833 0.273740 -0.043607
v -0.080731 0.273153 -0.043616
v -0.080747 0.273979 -0.043782
v -0.080570 0.272962 -0.043797
v -0.080591 0.274091 -0.044024
v -0.080387 0.272916 -0.044041
v -0.080408 0.274045 -0.044269
v -0.080231 0.273028 -0.044283
v -0.080247 0.273854 -0.044450
v -0.080145 0.273267 -0.044458
v -0.080150 0.273569 -0.044519
v -0.078746 0.273740 -0.041874
v -0.078646 0.273456 -0.041941
v -0.078743 0.274043 -0.041928
v -0.078638 0.274285 -0.042088
v -0.078471 0.273267 -0.042110
v -0.078459 0.274400 -0.042311
v -0.078267 0.273225 -0.042337
v -0.078255 0.274357 -0.042538
v -0.078089 0.273340 -0.042561
v -0.078080 0.274169 -0.042708
v -0.077984 0.273582 -0.042721
v -0.077981 0.273885 -0.042775
v -0.076587 0.274049 -0.039833
v -0.076482 0.273767 -0.039894
v -0.076582 0.274353 -0.039886
v -0.076293 0.273581 -0.040051
v -0.076468 0.274596 -0.040036
v -0.076073 0.273541 -0.040263
v -0.076275 0.274713 -0.040245
v -0.075880 0.273658 -0.040472
v -0.076055 0.274673 -0.040457
v -0.075766 0.273901 -0.040623
v -0.075866 0.274487 -0.040614
v -0.075761 0.274204 -0.040675
v -0.074430 0.274419 -0.037501
v -0.074316 0.274139 -0.037552
v -0.074428 0.274722 -0.037556
v -0.074114 0.273955 -0.037695
v -0.074309 0.274965 -0.037702
v -0.073881 0.273918 -0.037891
v -0.074106 0.275084 -0.037900
v -0.073677 0.274036 -0.038089
v -0.073872 0.275047 -0.038096
v -0.073559 0.274280 -0.038235
v -0.073671 0.274863 -0.038239
v -0.073556 0.274582 -0.038289
v -0.072350 0.274903 -0.034954
v -0.072224 0.274625 -0.034990
v -0.072354 0.275203 -0.035016
v -0.072009 0.274445 -0.035116
v -0.072234 0.275447 -0.035160
v -0.071763 0.274411 -0.035297
v -0.072023 0.275567 -0.035348
v -0.071552 0.274531 -0.035484
v -0.071777 0.275533 -0.035529
v -0.071433 0.274775 -0.035629
v -0.071562 0.275353 -0.035654
v -0.071436 0.275075 -0.035691
v -0.070420 0.275553 -0.032266
v -0.070280 0.275280 -0.032283
v -0.070432 0.275850 -0.032340
v -0.070315 0.276092 -0.032487
v -0.070050 0.275106 -0.032387
v -0.070098 0.276215 -0.032666
v -0.069793 0.275076 -0.032551
v -0.069840 0.276185 -0.032829
v -0.069576 0.275198 -0.032730
v -0.069458 0.275441 -0.032877
v -0.069611 0.276010 -0.032934
v -0.069471 0.275738 -0.032951
v -0.068713 0.276423 -0.029512
v -0.068737 0.276714 -0.029605
v -0.068557 0.276159 -0.029504
v -0.068623 0.276954 -0.029758
v -0.068312 0.275993 -0.029582
v -0.068402 0.277079 -0.029929
v -0.068042 0.275969 -0.029726
v -0.068132 0.277055 -0.030073
v -0.067821 0.276094 -0.029897
v -0.067887 0.276889 -0.030151
v -0.067707 0.276334 -0.030050
v -0.067731 0.276625 -0.030143
v -0.067301 0.277565 -0.026769
v -0.067338 0.277845 -0.026887
v -0.067128 0.277316 -0.026727
v -0.067229 0.278080 -0.027050
v -0.066866 0.277165 -0.026772
v -0.067005 0.278208 -0.027214
v -0.066586 0.277151 -0.026893
v -0.066724 0.278194 -0.027335
v -0.066361 0.277278 -0.027056
v -0.066462 0.278042 -0.027380
v -0.066253 0.277514 -0.027219
v -0.066290 0.277793 -0.027338
v -0.066254 0.279033 -0.024109
v -0.066304 0.279294 -0.024260
v -0.066066 0.278808 -0.024025
v -0.066202 0.279520 -0.024438
v -0.065789 0.278678 -0.024030
v -0.065975 0.279651 -0.024595
v -0.065498 0.278680 -0.024124
v -0.065684 0.279652 -0.024689
v -0.065271 0.278811 -0.024281
v -0.065408 0.279523 -0.024695
v -0.065169 0.279037 -0.024459
v -0.065644 0.280878 -0.021605
v -0.065703 0.281109 -0.021795
v -0.065219 0.279298 -0.024610
v -0.065444 0.280689 -0.021472
v -0.065606 0.281321 -0.021992
v -0.065157 0.280594 -0.021433
v -0.065378 0.281457 -0.022143
v -0.064860 0.280617 -0.021497
v -0.065539 0.283156 -0.019327
v -0.065600 0.283347 -0.019556
v -0.065080 0.281480 -0.022207
v -0.065338 0.283015 -0.019146
v -0.065503 0.283538 -0.019773
v -0.064632 0.280752 -0.021648
v -0.065275 0.283678 -0.019918
v -0.065049 0.282964 -0.019063
v -0.064793 0.281384 -0.022168
v -0.064534 0.280964 -0.021845
v -0.064977 0.283730 -0.019955
v -0.064593 0.281195 -0.022035
v -0.064751 0.283015 -0.019099
v -0.064689 0.283678 -0.019871
v -0.064523 0.283156 -0.019245
v -0.064487 0.283538 -0.019691
v -0.064426 0.283347 -0.019462
usemtl Perforating_branches__Boyd_s_veins__rMaterial0
f 1 2 3
f 4 3 5
f 1 3 4
f 6 7 2
f 6 2 1
f 8 5 9
f 4 5 8
f 10 11 7
f 10 7 6
f 12 9 13
f 8 9 12
f 14 15 11
f 14 11 10
f 16 13 17
f 12 13 16
f 18 19 15
f 18 15 14
f 20 17 21
f 16 17 20
f 22 23 19
f 22 19 18
f 24 21 23
f 20 21 24
f 24 23 22
f 25 1 4
f 26 6 1
f 26 1 25
f 27 4 8
f 25 4 27
f 28 10 6
f 28 6 26
f 29 8 12
f 27 8 29
f 30 14 10
f 30 10 28
f 31 12 16
f 29 12 31
f 32 18 14
f 32 14 30
f 33 16 20
f 31 16 33
f 34 22 18
f 34 18 32
f 35 20 24
f 33 20 35
f 36 24 22
f 36 22 34
f 35 24 36
f 37 30 28
f 38 32 30
f 38 30 37
f 39 28 26
f 37 28 39
f 40 26 25
f 39 26 40
f 41 34 32
f 41 32 38
f 42 25 27
f 40 25 42
f 43 36 34
f 43 34 41
f 44 27 29
f 42 27 44
f 45 35 36
f 45 36 43
f 46 29 31
f 44 29 46
f 47 33 35
f 47 35 45
f 48 31 33
f 48 33 47
f 46 31 48
f 49 38 37
f 50 41 38
f 50 38 49
f 51 37 39
f 49 37 51
f 52 39 40
f 51 39 52
f 53 43 41
f 53 41 50
f 54 40 42
f 52 40 54
f 55 45 43
f 55 43 53
f 56 42 44
f 54 42 56
f 57 47 45
f 57 45 55
f 58 44 46
f 56 44 58
f 59 48 47
f 59 47 57
f 60 46 48
f 60 48 59
f 58 46 60
f 61 49 51
f 62 50 49
f 62 49 61
f 63 51 52
f 61 51 63
f 64 53 50
f 64 50 62
f 65 52 54
f 63 52 65
f 66 55 53
f 66 53 64
f 67 54 56
f 65 54 67
f 68 57 55
f 68 55 66
f 69 56 58
f 67 56 69
f 70 59 57
f 70 57 68
f 71 58 60
f 69 58 71
f 72 60 59
f 72 59 70
f 71 60 72
f 73 61 63
f 74 62 61
f 74 61 73
f 75 63 65
f 73 63 75
f 76 64 62
f 76 62 74
f 77 65 67
f 75 65 77
f 78 66 64
f 78 64 76
f 79 67 69
f 77 67 79
f 80 69 71
f 79 69 80
f 81 68 66
f 81 66 78
f 82 70 68
f 82 68 81
f 83 71 72
f 80 71 83
f 84 72 70
f 84 70 82
f 83 72 84
f 85 73 75
f 86 75 77
f 85 75 86
f 87 74 73
f 87 73 85
f 88 77 79
f 86 77 88
f 89 76 74
f 89 74 87
f 90 79 80
f 88 79 90
f 91 78 76
f 91 76 89
f 92 80 83
f 90 80 92
f 93 81 78
f 93 78 91
f 94 83 84
f 92 83 94
f 95 82 81
f 95 81 93
f 96 84 82
f 94 84 96
f 96 82 95
f 97 85 86
f 98 86 88
f 97 86 98
f 99 87 85
f 99 85 97
f 100 88 90
f 98 88 100
f 101 89 87
f 101 87 99
f 102 90 92
f 100 90 102
f 103 91 89
f 103 89 101
f 104 92 94
f 102 92 104
f 105 93 91
f 105 91 103
f 106 94 96
f 104 94 106
f 107 95 93
f 107 93 105
f 108 96 95
f 106 96 108
f 108 95 107
f 109 98 100
f 110 97 98
f 110 98 109
f 111 100 102
f 109 100 111
f 112 99 97
f 112 97 110
f 113 102 104
f 111 102 113
f 114 101 99
f 114 99 112
f 115 104 106
f 113 104 115
f 116 103 101
f 116 101 114
f 117 106 108
f 115 106 117
f 118 105 103
f 118 103 116
f 119 108 107
f 117 108 119
f 120 107 105
f 120 105 118
f 119 107 120
f 121 109 111
f 122 111 113
f 121 111 122
f 123 110 109
f 123 109 121
f 124 113 115
f 122 113 124
f 125 112 110
f 125 110 123
f 126 115 117
f 124 115 126
f 127 114 112
f 127 112 125
f 128 117 119
f 126 117 128
f 129 116 114
f 129 114 127
f 130 119 120
f 128 119 130
f 131 118 116
f 131 116 129
f 132 120 118
f 130 120 132
f 132 118 131
f 133 122 124
f 134 121 122
f 134 122 133
f 135 124 126
f 133 124 135
f 136 126 128
f 135 126 136
f 137 123 121
f 137 121 134
f 138 128 130
f 136 128 138
f 139 125 123
f 139 123 137
f 140 130 132
f 138 130 140
f 141 127 125
f 141 125 139
f 142 132 131
f 140 132 142
f 143 129 127
f 143 127 141
f 144 131 129
f 144 129 143
f 142 131 144
f 145 133 135
f 146 135 136
f 145 135 146
f 147 134 133
f 147 133 145
f 148 136 138
f 146 136 148
f 149 137 134
f 149 134 147
f 150 138 140
f 148 138 150
f 151 139 137
f 151 137 149
f 152 140 142
f 150 140 152
f 153 141 139
f 153 139 151
f 154 142 144
f 152 142 154
f 155 143 141
f 155 141 153
f 156 144 143
f 154 144 156
f 156 143 155
f 157 158 159
f 160 161 158
f 160 158 157
f 162 159 163
f 157 159 162
f 164 165 161
f 164 161 160
f 166 163 167
f 162 163 166
f 168 167 169
f 166 167 168
f 170 171 165
f 170 165 164
f 172 169 173
f 168 169 172
f 174 175 171
f 174 171 170
f 176 177 175
f 176 175 174
f 178 173 179
f 172 173 178
f 180 179 177
f 180 177 176
f 178 179 180
f 181 164 160
f 182 170 164
f 182 164 181
f 183 160 157
f 181 160 183
f 184 157 162
f 183 157 184
f 185 174 170
f 185 170 182
f 186 162 166
f 184 162 186
f 187 176 174
f 187 174 185
f 188 166 168
f 186 166 188
f 189 180 176
f 189 176 187
f 190 168 172
f 188 168 190
f 191 178 180
f 191 180 189
f 192 172 178
f 190 172 192
f 192 178 191
f 193 181 183
f 194 182 181
f 194 181 193
f 195 183 184
f 193 183 195
f 196 185 182
f 196 182 194
f 197 184 186
f 195 184 197
f 198 187 185
f 198 185 196
f 199 186 188
f 197 186 199
f 200 189 187
f 200 187 198
f 201 188 190
f 199 188 201
f 202 191 189
f 202 189 200
f 203 190 192
f 201 190 203
f 204 192 191
f 204 191 202
f 203 192 204
f 205 193 195
f 206 194 193
f 206 193 205
f 207 195 197
f 205 195 207
f 208 196 194
f 208 194 206
f 209 197 199
f 207 197 209
f 210 198 196
f 210 196 208
f 211 199 201
f 209 199 211
f 212 200 198
f 212 198 210
f 213 201 203
f 211 201 213
f 214 202 200
f 214 200 212
f 215 203 204
f 213 203 215
f 216 204 202
f 216 202 214
f 215 204 216
f 217 205 207
f 218 206 205
f 218 205 217
f 219 207 209
f 217 207 219
f 220 208 206
f 220 206 218
f 221 209 211
f 219 209 221
f 222 210 208
f 222 208 220
f 223 211 213
f 221 211 223
f 224 212 210
f 224 210 222
f 225 213 215
f 223 213 225
f 226 214 212
f 226 212 224
f 227 215 216
f 225 215 227
f 228 216 214
f 228 214 226
f 227 216 228
f 229 217 219
f 230 218 217
f 230 217 229
f 231 219 221
f 229 219 231
f 232 220 218
f 232 218 230
f 233 221 223
f 231 221 233
f 234 222 220
f 234 220 232
f 235 223 225
f 233 223 235
f 236 224 222
f 236 222 234
f 237 225 227
f 235 225 237
f 238 226 224
f 238 224 236
f 239 227 228
f 237 227 239
f 240 228 226
f 240 226 238
f 239 228 240
f 241 229 231
f 242 230 229
f 242 229 241
f 243 231 233
f 241 231 243
f 244 232 230
f 244 230 242
f 245 233 235
f 243 233 245
f 246 234 232
f 246 232 244
f 247 235 237
f 245 235 247
f 248 236 234
f 248 234 246
f 249 237 239
f 247 237 249
f 250 238 236
f 250 236 248
f 251 239 240
f 249 239 251
f 252 240 238
f 252 238 250
f 251 240 252
f 253 241 243
f 254 242 241
f 254 241 253
f 255 243 245
f 253 243 255
f 256 245 247
f 255 245 256
f 257 244 242
f 257 242 254
f 258 247 249
f 256 247 258
f 259 246 244
f 259 244 257
f 260 249 251
f 258 249 260
f 261 248 246
f 261 246 259
f 262 251 252
f 260 251 262
f 263 250 248
f 263 248 261
f 264 252 250
f 264 250 263
f 262 252 264
f 265 253 255
f 266 255 256
f 265 255 266
f 267 254 253
f 267 253 265
f 268 256 258
f 266 256 268
f 269 257 254
f 269 254 267
f 270 258 260
f 268 258 270
f 271 259 257
f 271 257 269
f 272 260 262
f 270 260 272
f 273 261 259
f 273 259 271
f 274 262 264
f 272 262 274
f 275 263 261
f 275 261 273
f 276 264 263
f 274 264 276
f 276 263 275
f 277 265 266
f 278 266 268
f 277 266 278
f 279 267 265
f 279 265 277
f 280 268 270
f 278 268 280
f 281 269 267
f 281 267 279
f 282 270 272
f 280 270 282
f 283 271 269
f 283 269 281
f 284 272 274
f 282 272 284
f 285 273 271
f 285 271 283
f 286 277 278
f 287 278 280
f 286 278 287
f 288 274 276
f 284 274 288
f 289 279 277
f 289 277 286
f 290 280 282
f 287 280 290
f 291 275 273
f 291 273 285
f 292 276 275
f 288 276 292
f 293 281 279
f 293 279 289
f 292 275 291
f 290 282 294
f 294 282 284
f 295 286 287
f 296 287 290
f 295 287 296
f 297 283 281
f 297 281 293
f 298 286 295
f 298 289 286
f 296 290 299
f 299 290 294
f 294 284 300
f 300 284 288
f 299 294 301
f 302 289 298
f 302 293 289
f 301 294 300
f 303 285 283
f 303 283 297
f 301 300 304
f 305 288 292
f 300 288 305
f 306 293 302
f 306 297 293
f 307 291 285
f 307 285 303
f 308 292 291
f 305 292 308
f 304 300 305
f 308 291 307
f 304 305 309
f 310 297 306
f 310 303 297
f 309 305 308
f 309 308 311
f 312 303 310
f 312 307 303
f 311 308 307
f 311 307 312
f 313 314 315
f 316 317 314
f 316 314 313
f 318 315 319
f 313 315 318
f 320 321 317
f 320 317 316
f 322 319 323
f 318 319 322
f 324 323 325
f 322 323 324
f 326 327 321
f 326 321 320
f 328 325 329
f 324 325 328
f 330 331 327
f 330 327 326
f 332 329 333
f 328 329 332
f 334 335 331
f 334 331 330
f 336 333 335
f 336 335 334
f 332 333 336
f 337 316 313
f 338 313 318
f 337 313 338
f 339 320 316
f 339 316 337
f 340 318 322
f 338 318 340
f 341 326 320
f 341 320 339
f 342 322 324
f 340 322 342
f 343 330 326
f 343 326 341
f 344 324 328
f 342 324 344
f 345 334 330
f 345 330 343
f 346 328 332
f 344 328 346
f 347 336 334
f 347 334 345
f 348 332 336
f 346 332 348
f 348 336 347
f 349 337 338
f 350 339 337
f 350 337 349
f 351 338 340
f 349 338 351
f 352 340 342
f 351 340 352
f 353 341 339
f 353 339 350
f 354 342 344
f 352 342 354
f 355 343 341
f 355 341 353
f 356 344 346
f 354 344 356
f 357 345 343
f 357 343 355
f 358 346 348
f 356 346 358
f 359 347 345
f 359 345 357
f 360 348 347
f 360 347 359
f 358 348 360
f 361 349 351
f 362 350 349
f 362 349 361
f 363 351 352
f 361 351 363
f 364 353 350
f 364 350 362
f 365 352 354
f 363 352 365
f 366 355 353
f 366 353 364
f 367 354 356
f 365 354 367
f 368 357 355
f 368 355 366
f 369 356 358
f 367 356 369
f 370 359 357
f 370 357 368
f 371 358 360
f 369 358 371
f 372 360 359
f 372 359 370
f 371 360 372
f 373 361 363
f 374 362 361
f 374 361 373
f 375 363 365
f 373 363 375
f 376 364 362
f 376 362 374
f 377 365 367
f 375 365 377
f 378 366 364
f 378 364 376
f 379 367 369
f 377 367 379
f 380 368 366
f 380 366 378
f 381 369 371
f 379 369 381
f 382 370 368
f 382 368 380
f 383 371 372
f 381 371 383
f 384 372 370
f 384 370 382
f 383 372 384
f 385 373 375
f 386 374 373
f 386 373 385
f 387 375 377
f 385 375 387
f 388 376 374
f 388 374 386
f 389 377 379
f 387 377 389
f 390 378 376
f 390 376 388
f 391 379 381
f 389 379 391
f 392 380 378
f 392 378 390
f 393 381 383
f 391 381 393
f 394 382 380
f 394 380 392
f 395 383 384
f 393 383 395
f 396 384 382
f 396 382 394
f 395 384 396
f 397 385 387
f 398 386 385
f 398 385 397
f 399 387 389
f 397 387 399
f 400 389 391
f 399 389 400
f 401 388 386
f 401 386 398
f 402 391 393
f 400 391 402
f 403 390 388
f 403 388 401
f 404 393 395
f 402 393 404
f 405 392 390
f 405 390 403
f 406 394 392
f 406 392 405
f 407 395 396
f 404 395 407
f 408 396 394
f 408 394 406
f 407 396 408
f 409 397 399
f 410 399 400
f 409 399 410
f 411 398 397
f 411 397 409
f 412 400 402
f 410 400 412
f 413 401 398
f 413 398 411
f 414 402 404
f 412 402 414
f 415 403 401
f 415 401 413
f 416 404 407
f 414 404 416
f 417 405 403
f 417 403 415
f 418 407 408
f 416 407 418
f 419 406 405
f 419 405 417
f 420 408 406
f 418 408 420
f 420 406 419
f 421 409 410
f 422 410 412
f 421 410 422
f 423 411 409
f 423 409 421
f 424 412 414
f 422 412 424
f 425 413 411
f 425 411 423
f 426 414 416
f 424 414 426
f 427 415 413
f 427 413 425
f 428 416 418
f 426 416 428
f 429 417 415
f 429 415 427
f 430 418 420
f 428 418 430
f 431 419 417
f 431 417 429
f 432 420 419
f 430 420 432
f 432 419 431
f 433 421 422
f 434 422 424
f 433 422 434
f 435 423 421
f 435 421 433
f 436 424 426
f 434 424 436
f 437 425 423
f 437 423 435
f 438 426 428
f 436 426 438
f 439 427 425
f 439 425 437
f 440 428 430
f 438 428 440
f 441 429 427
f 441 427 439
f 442 430 432
f 440 430 442
f 443 431 429
f 443 429 441
f 444 433 434
f 445 434 436
f 444 434 445
f 446 432 431
f 442 432 446
f 446 431 443
f 447 435 433
f 447 433 444
f 448 436 438
f 445 436 448
f 449 437 435
f 449 435 447
f 450 438 440
f 448 438 450
f 451 439 437
f 451 437 449
f 452 444 445
f 453 445 448
f 452 445 453
f 454 440 442
f 450 440 454
f 455 444 452
f 455 447 444
f 453 448 456
f 456 448 450
f 457 441 439
f 457 439 451
f 456 450 458
f 459 447 455
f 459 449 447
f 460 442 446
f 454 442 460
f 458 450 454
f 461 443 441
f 461 441 457
f 458 454 462
f 463 446 443
f 460 446 463
f 463 443 461
f 464 449 459
f 464 451 449
f 462 454 460
f 462 460 465
f 466 451 464
f 466 457 451
f 465 460 463
f 465 463 467
f 468 461 457
f 468 457 466
f 467 463 461
f 467 461 468
