# 
# Wavefront OBJ file
# Created with Kaydara FBX
# 
mtllib c:\users\tjvan\onedrive\documenten\fontys\minor\nx\.mtlmodels\perforating_branches_of_fibular_artery.r.obj

g Perforating_branches_of_fibular_artery_r
v -0.107319 0.086190 -0.047638
v -0.107337 0.086221 -0.048039
v -0.107339 0.086328 -0.048032
v -0.107259 0.086091 -0.047654
v -0.107322 0.086306 -0.047628
v -0.107286 0.086167 -0.047420
v -0.107225 0.086065 -0.047443
v -0.107340 0.086253 -0.048455
v -0.107342 0.086351 -0.048449
v -0.107281 0.086129 -0.048048
v -0.107329 0.086281 -0.048885
v -0.107331 0.086371 -0.048881
v -0.107288 0.086169 -0.048461
v -0.107308 0.086384 -0.049324
v -0.107306 0.086304 -0.049327
v -0.107282 0.086205 -0.048889
v -0.107288 0.086423 -0.048029
v -0.107288 0.086287 -0.047406
v -0.107266 0.086409 -0.047628
v -0.107295 0.086437 -0.048445
v -0.107288 0.086449 -0.048877
v -0.107269 0.086454 -0.049321
v -0.107272 0.086387 -0.049773
v -0.107264 0.086235 -0.049327
v -0.107270 0.086316 -0.049773
v -0.107238 0.086450 -0.049771
v -0.107158 0.086036 -0.047673
v -0.107121 0.086009 -0.047471
v -0.107186 0.086078 -0.048058
v -0.107202 0.086122 -0.048467
v -0.107208 0.086122 -0.047058
v -0.107146 0.086018 -0.047085
v -0.107204 0.086162 -0.048891
v -0.107233 0.086255 -0.049771
v -0.107193 0.086197 -0.049326
v -0.107231 0.086393 -0.047407
v -0.107210 0.086246 -0.047042
v -0.107224 0.086377 -0.050221
v -0.107223 0.086315 -0.050219
v -0.107194 0.086431 -0.050221
v -0.107196 0.086479 -0.048031
v -0.107167 0.086471 -0.047636
v -0.107211 0.086489 -0.048444
v -0.107212 0.086496 -0.048875
v -0.107201 0.086496 -0.049318
v -0.107177 0.086487 -0.049768
v -0.107040 0.085961 -0.047117
v -0.107191 0.086262 -0.050215
v -0.107171 0.086221 -0.049768
v -0.107165 0.086349 -0.050664
v -0.107164 0.086296 -0.050660
v -0.107140 0.086395 -0.050665
v -0.107151 0.086356 -0.047044
v -0.107129 0.086457 -0.047422
v -0.107141 0.086463 -0.050217
v -0.107003 0.086014 -0.047496
v -0.106919 0.085966 -0.047146
v -0.107032 0.085954 -0.046605
v -0.106923 0.085895 -0.046640
v -0.107042 0.086040 -0.047688
v -0.107096 0.086062 -0.046576
v -0.107097 0.086189 -0.046560
v -0.106958 0.085989 -0.046001
v -0.106892 0.085878 -0.046031
v -0.107079 0.086081 -0.048065
v -0.107103 0.086124 -0.048470
v -0.106987 0.086138 -0.048067
v -0.106943 0.086101 -0.047697
v -0.107114 0.086165 -0.048891
v -0.107019 0.086176 -0.048469
v -0.107113 0.086199 -0.049324
v -0.107038 0.086211 -0.048889
v -0.107100 0.086223 -0.049764
v -0.107045 0.086240 -0.049321
v -0.107037 0.086302 -0.046561
v -0.106959 0.086121 -0.045985
v -0.107091 0.086226 -0.050646
v -0.107073 0.086220 -0.051082
v -0.107137 0.086251 -0.050653
v -0.107036 0.086199 -0.051074
v -0.107095 0.086256 -0.051090
v -0.107016 0.086192 -0.051504
v -0.106999 0.086163 -0.051495
v -0.107075 0.086234 -0.050204
v -0.107137 0.086232 -0.050209
v -0.107039 0.086227 -0.050641
v -0.107039 0.086260 -0.049760
v -0.107022 0.086266 -0.050201
v -0.107096 0.086300 -0.051096
v -0.107016 0.086226 -0.051511
v -0.107074 0.086338 -0.051098
v -0.106999 0.086256 -0.051514
v -0.107037 0.086361 -0.051096
v -0.106969 0.086274 -0.051513
v -0.107047 0.086422 -0.047061
v -0.107095 0.086423 -0.050662
v -0.107042 0.086424 -0.050657
v -0.106994 0.086362 -0.051090
v -0.107080 0.086465 -0.050212
v -0.107106 0.086488 -0.049764
v -0.107026 0.086435 -0.050207
v -0.106996 0.086399 -0.050650
v -0.107120 0.086498 -0.049316
v -0.107044 0.086454 -0.049760
v -0.107123 0.086498 -0.048875
v -0.107050 0.086460 -0.049315
v -0.107112 0.086491 -0.048447
v -0.107044 0.086455 -0.048877
v -0.107089 0.086482 -0.048038
v -0.107026 0.086444 -0.048453
v -0.107052 0.086474 -0.047652
v -0.106994 0.086431 -0.048048
v -0.107011 0.086462 -0.047446
v -0.106798 0.085901 -0.046670
v -0.106780 0.085818 -0.046067
v -0.106902 0.086078 -0.047510
v -0.106815 0.086033 -0.047163
v -0.106936 0.086232 -0.048065
v -0.106887 0.086204 -0.047696
v -0.106927 0.086100 -0.051896
v -0.106969 0.086147 -0.051487
v -0.106915 0.086079 -0.051888
v -0.106972 0.086262 -0.048465
v -0.106926 0.086124 -0.051903
v -0.106992 0.086200 -0.051068
v -0.106994 0.086255 -0.050638
v -0.106955 0.086223 -0.051066
v -0.106935 0.086149 -0.051481
v -0.106995 0.086290 -0.048885
v -0.106914 0.086146 -0.051907
v -0.107006 0.086311 -0.049318
v -0.106892 0.086159 -0.051907
v -0.106992 0.086320 -0.050201
v -0.106968 0.086301 -0.050639
v -0.107005 0.086322 -0.049758
v -0.106998 0.086379 -0.048881
v -0.106974 0.086360 -0.048459
v -0.107007 0.086393 -0.049758
v -0.106994 0.086382 -0.050203
v -0.107008 0.086391 -0.049316
v -0.106930 0.086371 -0.046580
v -0.106897 0.086237 -0.045986
v -0.106935 0.086275 -0.051507
v -0.106956 0.086341 -0.051082
v -0.106906 0.086259 -0.051499
v -0.106969 0.086354 -0.050643
v -0.106934 0.086304 -0.051074
v -0.106950 0.086420 -0.047670
v -0.106938 0.086340 -0.048058
v -0.106926 0.086428 -0.047089
v -0.106908 0.086406 -0.047474
v -0.106735 0.085795 -0.045393
v -0.106620 0.085733 -0.045429
v -0.106651 0.085824 -0.046099
v -0.106691 0.085970 -0.046689
v -0.106803 0.085909 -0.045362
v -0.106893 0.086068 -0.051880
v -0.106821 0.085962 -0.052255
v -0.106829 0.085975 -0.052262
v -0.106868 0.086069 -0.051875
v -0.106808 0.085956 -0.052249
v -0.106845 0.086184 -0.047511
v -0.106756 0.086142 -0.047164
v -0.106828 0.085990 -0.052268
v -0.106820 0.086003 -0.052272
v -0.106805 0.086045 -0.045345
v -0.106806 0.086012 -0.052272
v -0.106867 0.086160 -0.051902
v -0.106790 0.086013 -0.052268
v -0.106906 0.086166 -0.051480
v -0.106934 0.086261 -0.051069
v -0.106889 0.086196 -0.051483
v -0.106847 0.086082 -0.051875
v -0.106889 0.086230 -0.051490
v -0.106834 0.086103 -0.051879
v -0.106890 0.086321 -0.047686
v -0.106847 0.086304 -0.047498
v -0.106833 0.086128 -0.051886
v -0.106787 0.086308 -0.046005
v -0.106741 0.086165 -0.045347
v -0.106846 0.086148 -0.051894
v -0.106805 0.086377 -0.046610
v -0.106820 0.086370 -0.047122
v -0.106792 0.085956 -0.052245
v -0.106776 0.086006 -0.052262
v -0.106778 0.085965 -0.052245
v -0.106769 0.085993 -0.052255
v -0.106758 0.086266 -0.047149
v -0.106488 0.085739 -0.045462
v -0.106541 0.085894 -0.046118
v -0.106642 0.085827 -0.044687
v -0.106572 0.085709 -0.044717
v -0.106708 0.085819 -0.052594
v -0.106769 0.085978 -0.052249
v -0.106630 0.086083 -0.046690
v -0.106644 0.085966 -0.044670
v -0.106658 0.086314 -0.046037
v -0.106627 0.086237 -0.045366
v -0.106696 0.086318 -0.046645
v -0.106632 0.086210 -0.046674
v -0.106453 0.085645 -0.044754
v -0.106578 0.086089 -0.044672
v -0.106479 0.086011 -0.046120
v -0.106546 0.086253 -0.046073
v -0.106317 0.085651 -0.044787
v -0.106374 0.085812 -0.045481
v -0.106483 0.085747 -0.044004
v -0.106411 0.085626 -0.044035
v -0.106486 0.085889 -0.043988
v -0.106480 0.086142 -0.046103
v -0.106495 0.086243 -0.045399
v -0.106461 0.086164 -0.044692
v -0.106289 0.085560 -0.044071
v -0.106418 0.086016 -0.043990
v -0.106310 0.085932 -0.045483
v -0.106380 0.086181 -0.045436
v -0.106200 0.085726 -0.044807
v -0.106337 0.085673 -0.043344
v -0.106263 0.085549 -0.043374
v -0.106340 0.085820 -0.043329
v -0.106312 0.086067 -0.045466
v -0.106325 0.086170 -0.044724
v -0.106006 0.085413 -0.042796
v -0.106137 0.085481 -0.043409
v -0.105857 0.085419 -0.042826
v -0.106136 0.085483 -0.042763
v -0.105906 0.085362 -0.042260
v -0.105752 0.085367 -0.042285
v -0.105981 0.085404 -0.041516
v -0.105986 0.085406 -0.041813
v -0.106070 0.085541 -0.041803
v -0.105836 0.085327 -0.041511
v -0.106041 0.085434 -0.042233
v -0.106121 0.085566 -0.042211
v -0.105846 0.085331 -0.041827
v -0.105989 0.085513 -0.040835
v -0.106068 0.085541 -0.041527
v -0.105843 0.085437 -0.040825
v -0.106213 0.085611 -0.042736
v -0.105992 0.085487 -0.043441
v -0.106149 0.085566 -0.044104
v -0.105869 0.085565 -0.043461
v -0.105730 0.085500 -0.042844
v -0.106077 0.085650 -0.040864
v -0.105905 0.085738 -0.040149
v -0.105758 0.085659 -0.040143
v -0.106075 0.085701 -0.041799
v -0.106125 0.085721 -0.042199
v -0.106074 0.085704 -0.041541
v -0.106029 0.085642 -0.044124
v -0.106216 0.085762 -0.042722
v -0.105961 0.085769 -0.044126
v -0.105799 0.085696 -0.043463
v -0.106084 0.085810 -0.040903
v -0.105995 0.085872 -0.040187
v -0.106000 0.085841 -0.041802
v -0.106051 0.085858 -0.042202
v -0.105997 0.085848 -0.041554
v -0.106134 0.085850 -0.044809
v -0.106145 0.085896 -0.042724
v -0.105963 0.085912 -0.044110
v -0.105802 0.085843 -0.043447
v -0.106270 0.085950 -0.043331
v -0.106007 0.085951 -0.040942
v -0.106004 0.086027 -0.040249
v -0.106136 0.085989 -0.044792
v -0.105920 0.085940 -0.042218
v -0.106018 0.085977 -0.042743
v -0.105865 0.085926 -0.041812
v -0.105859 0.085934 -0.041563
v -0.105836 0.086197 -0.039536
v -0.105743 0.086066 -0.039488
v -0.106147 0.086029 -0.043350
v -0.106035 0.086033 -0.044079
v -0.105876 0.085967 -0.043417
v -0.106298 0.086093 -0.044010
v -0.105931 0.086159 -0.040317
v -0.105868 0.086035 -0.040970
v -0.106003 0.086035 -0.043382
v -0.105869 0.085982 -0.042772
v -0.106206 0.086106 -0.044761
v -0.106158 0.086099 -0.044042
v -0.105851 0.086343 -0.039617
v -0.105794 0.086235 -0.040374
v -0.105782 0.086465 -0.039710
v -0.105688 0.085336 -0.041841
v -0.105673 0.085333 -0.041514
v -0.105553 0.085421 -0.041851
v -0.105535 0.085419 -0.041523
v -0.105678 0.085442 -0.040835
v -0.105622 0.085450 -0.042301
v -0.105594 0.085658 -0.040173
v -0.105658 0.085633 -0.042847
v -0.105548 0.085587 -0.042304
v -0.105596 0.085985 -0.039485
v -0.105434 0.085976 -0.039529
v -0.105662 0.085784 -0.042832
v -0.105739 0.085912 -0.042805
v -0.105767 0.085946 -0.042243
v -0.105632 0.085874 -0.042271
v -0.105706 0.085931 -0.041826
v -0.105696 0.085940 -0.041566
v -0.105566 0.085856 -0.041840
v -0.105704 0.086039 -0.040980
v -0.105551 0.085864 -0.041561
v -0.105630 0.086233 -0.040404
v -0.105558 0.085963 -0.040970
v -0.105519 0.086489 -0.038859
v -0.105371 0.086408 -0.038856
v -0.105617 0.086616 -0.038916
v -0.105649 0.086531 -0.039788
v -0.105637 0.086753 -0.039014
v -0.105574 0.086864 -0.039125
v -0.105539 0.085526 -0.040863
v -0.105457 0.085733 -0.040229
v -0.105552 0.085742 -0.042293
v -0.105487 0.086522 -0.039832
v -0.105445 0.086919 -0.039221
v -0.105477 0.085561 -0.041855
v -0.105484 0.086155 -0.040398
v -0.105350 0.087124 -0.038333
v -0.105248 0.087004 -0.038267
v -0.105376 0.087251 -0.038445
v -0.105301 0.086042 -0.039607
v -0.105211 0.086393 -0.038910
v -0.105459 0.085563 -0.041536
v -0.105463 0.085667 -0.040902
v -0.105384 0.085866 -0.040298
v -0.105482 0.085720 -0.041851
v -0.105465 0.085726 -0.041550
v -0.105470 0.085827 -0.040941
v -0.105319 0.087351 -0.038571
v -0.105098 0.086922 -0.038264
v -0.105393 0.086020 -0.040360
v -0.105232 0.086165 -0.039700
v -0.105340 0.086442 -0.039829
v -0.105285 0.086904 -0.039275
v -0.105195 0.087397 -0.038679
v -0.105082 0.086448 -0.039006
v -0.105246 0.086311 -0.039781
v -0.104939 0.086902 -0.038324
v -0.105050 0.087718 -0.037792
v -0.105082 0.087834 -0.037915
v -0.105136 0.086823 -0.039272
v -0.104943 0.087604 -0.037718
v -0.105031 0.087922 -0.038055
v -0.105019 0.086559 -0.039117
v -0.105036 0.087376 -0.038740
v -0.105039 0.086696 -0.039215
v -0.104790 0.087524 -0.037712
v -0.104815 0.086947 -0.038432
v -0.104910 0.087959 -0.038172
v -0.104886 0.087295 -0.038737
v -0.104632 0.087499 -0.037777
v -0.104758 0.087047 -0.038559
v -0.104730 0.088392 -0.037299
v -0.104768 0.088496 -0.037433
v -0.104617 0.088287 -0.037217
v -0.104784 0.087174 -0.038670
v -0.104752 0.087934 -0.038237
v -0.104722 0.088573 -0.037582
v -0.104512 0.087536 -0.037895
v -0.104461 0.088210 -0.037209
v -0.104605 0.088601 -0.037708
v -0.104600 0.087854 -0.038232
v -0.104461 0.087624 -0.038034
v -0.104493 0.087740 -0.038158
v -0.104303 0.088181 -0.037277
v -0.104447 0.088573 -0.037775
v -0.104402 0.089142 -0.036861
v -0.104447 0.089234 -0.037003
v -0.104284 0.089047 -0.036772
v -0.104406 0.089299 -0.037161
v -0.104186 0.088209 -0.037402
v -0.104124 0.088974 -0.036761
v -0.104291 0.088496 -0.037767
v -0.104291 0.089319 -0.037293
v -0.104140 0.088286 -0.037552
v -0.104179 0.088391 -0.037685
v -0.103966 0.088944 -0.036830
v -0.104132 0.089289 -0.037362
v -0.104080 0.089965 -0.036484
v -0.104130 0.090043 -0.036634
v -0.103956 0.089881 -0.036389
v -0.104094 0.090096 -0.036800
v -0.103851 0.088964 -0.036961
v -0.103973 0.089216 -0.037351
v -0.103792 0.089815 -0.036374
v -0.103981 0.090109 -0.036936
v -0.103810 0.089029 -0.037119
v -0.103855 0.089121 -0.037262
v -0.103632 0.089784 -0.036444
v -0.103822 0.090078 -0.037006
v -0.103832 0.090919 -0.036332
v -0.103776 0.090855 -0.036175
v -0.103801 0.090959 -0.036504
v -0.103646 0.090785 -0.036074
v -0.103519 0.089796 -0.036580
v -0.103658 0.090011 -0.036991
v -0.103478 0.090727 -0.036057
v -0.103689 0.090965 -0.036643
v -0.103483 0.089849 -0.036745
v -0.103534 0.089928 -0.036896
v -0.103316 0.090696 -0.036127
v -0.103527 0.090934 -0.036714
v -0.103565 0.091858 -0.036105
v -0.103503 0.091810 -0.035942
v -0.103537 0.091884 -0.036281
v -0.103368 0.091755 -0.035837
v -0.103426 0.091884 -0.036423
v -0.103359 0.090876 -0.036696
v -0.103205 0.090702 -0.036267
v -0.103195 0.091707 -0.035816
v -0.103275 0.092824 -0.035792
v -0.103340 0.092860 -0.035958
v -0.103173 0.090742 -0.036438
v -0.103230 0.090806 -0.036595
v -0.103263 0.091855 -0.036494
v -0.103135 0.092779 -0.035683
v -0.103313 0.092878 -0.036137
v -0.103032 0.091678 -0.035887
v -0.103203 0.092873 -0.036281
v -0.103090 0.091807 -0.036474
v -0.102960 0.092738 -0.035662
v -0.103136 0.093887 -0.035834
v -0.103069 0.093850 -0.035665
v -0.102921 0.091677 -0.036029
v -0.103109 0.093906 -0.036018
v -0.103037 0.092847 -0.036352
v -0.102927 0.093804 -0.035554
v -0.102955 0.091751 -0.036368
v -0.102893 0.091704 -0.036205
v -0.102794 0.092712 -0.035733
v -0.102996 0.093901 -0.036165
v -0.102747 0.093762 -0.035532
v -0.102915 0.094891 -0.035685
v -0.102848 0.094848 -0.035512
v -0.102887 0.094913 -0.035872
v -0.102861 0.092806 -0.036330
v -0.102704 0.094795 -0.035400
v -0.102683 0.092707 -0.035877
v -0.102827 0.093874 -0.036238
v -0.102771 0.094909 -0.036023
v -0.102722 0.092761 -0.036222
v -0.102578 0.093735 -0.035604
v -0.102657 0.092725 -0.036056
v -0.102521 0.094748 -0.035377
v -0.102676 0.095867 -0.035524
v -0.102608 0.095820 -0.035348
v -0.102646 0.095891 -0.035715
v -0.102647 0.093832 -0.036215
v -0.102462 0.095762 -0.035233
v -0.102598 0.094879 -0.036097
v -0.102465 0.093730 -0.035752
v -0.102528 0.095884 -0.035869
v -0.102504 0.093786 -0.036105
v -0.102348 0.094718 -0.035452
v -0.102276 0.095708 -0.035212
v -0.102438 0.093749 -0.035935
v -0.102415 0.096816 -0.035366
v -0.102346 0.096767 -0.035186
v -0.102415 0.094831 -0.036075
v -0.102386 0.096839 -0.035561
v -0.102198 0.096704 -0.035070
v -0.102232 0.094713 -0.035603
v -0.102353 0.095850 -0.035946
v -0.102100 0.095674 -0.035288
v -0.102266 0.096828 -0.035720
v -0.102271 0.094779 -0.035962
v -0.102204 0.094736 -0.035790
v -0.102009 0.096644 -0.035048
v -0.102167 0.095796 -0.035924
v -0.102131 0.097740 -0.035224
v -0.102061 0.097691 -0.035040
v -0.102103 0.097758 -0.035424
v -0.101982 0.095667 -0.035443
v -0.102089 0.096787 -0.035799
v -0.101910 0.097624 -0.034922
v -0.102021 0.095738 -0.035810
v -0.101832 0.096603 -0.035127
v -0.101983 0.097740 -0.035587
v -0.101953 0.095691 -0.035634
v -0.101719 0.097557 -0.034901
v -0.101900 0.096727 -0.035777
v -0.101822 0.098638 -0.035114
v -0.101748 0.098592 -0.034926
v -0.101712 0.096593 -0.035286
v -0.101804 0.097691 -0.035669
v -0.101796 0.098648 -0.035319
v -0.101595 0.098523 -0.034805
v -0.101752 0.096664 -0.035661
v -0.101540 0.097508 -0.034983
v -0.101683 0.096615 -0.035481
v -0.101677 0.098620 -0.035487
v -0.101613 0.097624 -0.035648
v -0.101402 0.098449 -0.034784
v -0.101420 0.097491 -0.035146
v -0.101484 0.099513 -0.035050
v -0.101406 0.099473 -0.034857
v -0.101497 0.098561 -0.035572
v -0.101462 0.099511 -0.035260
v -0.101463 0.097557 -0.035530
v -0.101249 0.099402 -0.034734
v -0.101392 0.097508 -0.035346
v -0.101223 0.098390 -0.034869
v -0.101346 0.099469 -0.035432
v -0.101305 0.098487 -0.035551
v -0.101056 0.099320 -0.034713
v -0.101104 0.098361 -0.035037
v -0.101167 0.099398 -0.035519
v -0.101116 0.100364 -0.035046
v -0.101032 0.100333 -0.034850
v -0.101151 0.098417 -0.035430
v -0.101100 0.100347 -0.035261
v -0.101078 0.098372 -0.035242
v -0.100877 0.099248 -0.034801
v -0.100871 0.100263 -0.034724
v -0.100989 0.100288 -0.035436
v -0.100974 0.099315 -0.035498
v -0.100676 0.100172 -0.034703
v -0.100761 0.099206 -0.034972
v -0.100813 0.100201 -0.035525
v -0.100817 0.099245 -0.035375
v -0.100714 0.101191 -0.035118
v -0.100623 0.101172 -0.034919
v -0.100739 0.099205 -0.035183
v -0.100708 0.101156 -0.035335
v -0.100500 0.100085 -0.034792
v -0.100457 0.101104 -0.034791
v -0.100604 0.101076 -0.035512
v -0.100618 0.100111 -0.035504
v -0.100389 0.100026 -0.034967
v -0.100262 0.101005 -0.034769
v -0.100457 0.100041 -0.035378
v -0.100432 0.100973 -0.035601
v -0.100373 0.100010 -0.035182
v -0.100278 0.101996 -0.035280
v -0.100283 0.101939 -0.035497
v -0.100176 0.101991 -0.035080
v -0.100090 0.100902 -0.034858
v -0.100236 0.100874 -0.035579
v -0.100005 0.101926 -0.034951
v -0.100189 0.101836 -0.035673
v -0.099986 0.100822 -0.035035
v -0.100071 0.100805 -0.035451
v -0.099810 0.101818 -0.034927
v -0.100022 0.101715 -0.035761
v -0.099979 0.100786 -0.035252
v -0.099805 0.102776 -0.035547
v -0.099823 0.102696 -0.035761
v -0.099692 0.102787 -0.035349
v -0.099643 0.101697 -0.035015
v -0.099827 0.101607 -0.035737
v -0.099741 0.102569 -0.035932
v -0.099514 0.102726 -0.035219
v -0.099550 0.101594 -0.035191
v -0.099656 0.101542 -0.035607
v -0.099581 0.102429 -0.036016
v -0.099319 0.102610 -0.035193
v -0.099554 0.101537 -0.035408
v -0.099386 0.102313 -0.035989
v -0.099297 0.103527 -0.035931
v -0.099328 0.103429 -0.036140
v -0.099159 0.102470 -0.035277
v -0.099173 0.103551 -0.035736
v -0.099256 0.103282 -0.036306
v -0.098989 0.103494 -0.035606
v -0.099208 0.102253 -0.035860
v -0.099077 0.102343 -0.035448
v -0.099101 0.103127 -0.036385
v -0.099095 0.102264 -0.035661
v -0.098793 0.103372 -0.035577
v -0.098906 0.103005 -0.036356
v -0.098638 0.103217 -0.035656
v -0.097382 0.106183 -0.037605
v -0.097420 0.106070 -0.037818
v -0.097246 0.106215 -0.037404
v -0.097351 0.105908 -0.037988
v -0.098721 0.102948 -0.036226
v -0.097050 0.106159 -0.037270
v -0.098567 0.103070 -0.035822
v -0.098597 0.102972 -0.036031
v -0.097193 0.105739 -0.038067
v -0.096845 0.106029 -0.037239
v -0.096988 0.105610 -0.038036
v -0.096687 0.105861 -0.037318
v -0.096792 0.105554 -0.037902
v -0.096618 0.105699 -0.037487
v -0.096656 0.105586 -0.037701
v -0.095691 0.108515 -0.039185
v -0.095735 0.108392 -0.039405
v -0.095545 0.108554 -0.038978
v -0.095665 0.108218 -0.039580
v -0.095337 0.108498 -0.038839
v -0.095501 0.108040 -0.039662
v -0.095122 0.108363 -0.038807
v -0.095286 0.107904 -0.039629
v -0.094957 0.108184 -0.038889
v -0.095077 0.107849 -0.039491
v -0.094888 0.108010 -0.039063
v -0.094932 0.107887 -0.039284
v -0.094197 0.110588 -0.040678
v -0.094246 0.110455 -0.040905
v -0.094041 0.110634 -0.040465
v -0.094176 0.110270 -0.041086
v -0.093821 0.110579 -0.040323
v -0.094005 0.110082 -0.041171
v -0.093595 0.110439 -0.040290
v -0.093779 0.109942 -0.041138
v -0.093423 0.110252 -0.040375
v -0.093558 0.109888 -0.040996
v -0.093353 0.110066 -0.040555
v -0.093402 0.109933 -0.040783
v -0.092877 0.112461 -0.042090
v -0.092931 0.112319 -0.042325
v -0.092711 0.112513 -0.041871
v -0.092859 0.112124 -0.042512
v -0.092478 0.112460 -0.041726
v -0.092680 0.111929 -0.042601
v -0.092240 0.112317 -0.041694
v -0.092442 0.111785 -0.042569
v -0.092061 0.112122 -0.041783
v -0.092208 0.111733 -0.042424
v -0.091989 0.111927 -0.041970
v -0.092043 0.111784 -0.042205
v -0.091707 0.114193 -0.043425
v -0.091765 0.114043 -0.043668
v -0.091532 0.114251 -0.043200
v -0.091689 0.113840 -0.043864
v -0.091286 0.114200 -0.043052
v -0.091500 0.113640 -0.043959
v -0.091035 0.114056 -0.043022
v -0.091249 0.113495 -0.043929
v -0.090846 0.113855 -0.043117
v -0.091003 0.113445 -0.043781
v -0.090770 0.113653 -0.043313
v -0.090828 0.113502 -0.043556
v -0.090664 0.115843 -0.044689
v -0.090723 0.115688 -0.044942
v -0.090480 0.115906 -0.044456
v -0.090642 0.115481 -0.045149
v -0.090220 0.115858 -0.044306
v -0.090442 0.115278 -0.045252
v -0.089955 0.115714 -0.044280
v -0.090176 0.115133 -0.045226
v -0.089755 0.115511 -0.044383
v -0.089917 0.115086 -0.045076
v -0.089674 0.115304 -0.044590
v -0.089733 0.115148 -0.044843
v -0.089721 0.117471 -0.045887
v -0.089780 0.117314 -0.046153
v -0.089530 0.117537 -0.045646
v -0.089691 0.117106 -0.046373
v -0.089258 0.117492 -0.045494
v -0.089478 0.116904 -0.046487
v -0.088978 0.117350 -0.045472
v -0.089198 0.116762 -0.046465
v -0.088765 0.117148 -0.045586
v -0.088926 0.116718 -0.046313
v -0.088855 0.119138 -0.047026
v -0.088912 0.118982 -0.047308
v -0.088676 0.116940 -0.045805
v -0.088735 0.116783 -0.046072
v -0.088657 0.119204 -0.046774
v -0.088814 0.118778 -0.047543
v -0.088373 0.119162 -0.046620
v -0.088587 0.118581 -0.047670
v -0.088077 0.119023 -0.046603
v -0.088291 0.118442 -0.047653
v -0.087850 0.118826 -0.046730
v -0.088007 0.118400 -0.047498
v -0.088039 0.120904 -0.048114
v -0.088093 0.120754 -0.048412
v -0.087837 0.120967 -0.047850
v -0.087984 0.120558 -0.048665
v -0.087752 0.118622 -0.046965
v -0.087809 0.118466 -0.047247
v -0.087541 0.120927 -0.047691
v -0.087742 0.120367 -0.048805
v -0.087230 0.120794 -0.047681
v -0.087431 0.120234 -0.048795
v -0.087249 0.122832 -0.049157
v -0.087299 0.122691 -0.049473
v -0.086988 0.120604 -0.047821
v -0.087043 0.122890 -0.048880
v -0.087135 0.120194 -0.048636
v -0.087179 0.122505 -0.049745
v -0.086879 0.120407 -0.048074
v -0.086736 0.122850 -0.048717
v -0.086933 0.120257 -0.048372
v -0.086922 0.122324 -0.049898
v -0.086410 0.122723 -0.048711
v -0.086596 0.122196 -0.049893
v -0.086460 0.124983 -0.050162
v -0.086505 0.124853 -0.050497
v -0.086250 0.125035 -0.049872
v -0.086152 0.122542 -0.048865
v -0.086374 0.124680 -0.050786
v -0.086289 0.122156 -0.049730
v -0.085932 0.124994 -0.049703
v -0.086032 0.122356 -0.049136
v -0.086082 0.122215 -0.049453
v -0.086102 0.124509 -0.050952
v -0.085592 0.124871 -0.049702
v -0.085762 0.124386 -0.050951
v -0.085646 0.127420 -0.051136
v -0.085688 0.127302 -0.051489
v -0.085433 0.127463 -0.050833
v -0.085320 0.124701 -0.049869
v -0.085546 0.127141 -0.051795
v -0.085444 0.124346 -0.050783
v -0.085105 0.127420 -0.050658
v -0.085189 0.124527 -0.050158
v -0.085260 0.126981 -0.051973
v -0.085234 0.124397 -0.050493
v -0.084751 0.127302 -0.050661
v -0.084905 0.126863 -0.051975
v -0.084464 0.127141 -0.050839
v -0.084577 0.126820 -0.051801
v -0.084323 0.126981 -0.051145
v -0.084364 0.126863 -0.051497
v -0.103710 0.086057 -0.035216
v -0.103811 0.085056 -0.035364
v -0.103791 0.085058 -0.035386
v -0.103681 0.086057 -0.035248
v -0.103762 0.085056 -0.035396
v -0.103719 0.086053 -0.035175
v -0.103817 0.085051 -0.035335
v -0.103706 0.086046 -0.035135
v -0.103809 0.085044 -0.035308
v -0.103674 0.086039 -0.035107
v -0.103787 0.085038 -0.035288
v -0.103633 0.086033 -0.035098
v -0.103758 0.085033 -0.035282
v -0.103593 0.086030 -0.035112
v -0.103729 0.085031 -0.035292
v -0.103641 0.086054 -0.035262
v -0.103733 0.085051 -0.035390
v -0.103599 0.086048 -0.035253
v -0.103711 0.085045 -0.035370
v -0.103568 0.086040 -0.035225
v -0.103702 0.085038 -0.035343
v -0.103555 0.086034 -0.035185
v -0.103709 0.085033 -0.035314
v -0.103564 0.086030 -0.035144
v -0.103625 0.087012 -0.035093
v -0.103613 0.087014 -0.035147
v -0.103607 0.087008 -0.035041
v -0.103566 0.087001 -0.035004
v -0.103513 0.086993 -0.034993
v -0.103577 0.087011 -0.035189
v -0.103461 0.086988 -0.035011
v -0.103525 0.087006 -0.035207
v -0.103533 0.087939 -0.035077
v -0.103512 0.087937 -0.035012
v -0.103424 0.086985 -0.035053
v -0.103471 0.086998 -0.035196
v -0.103520 0.087936 -0.035143
v -0.103461 0.087931 -0.034967
v -0.103430 0.086991 -0.035159
v -0.103413 0.086987 -0.035107
v -0.103395 0.087922 -0.034954
v -0.103476 0.087930 -0.035194
v -0.103331 0.087914 -0.034976
v -0.103412 0.087922 -0.035216
v -0.103442 0.088840 -0.035111
v -0.103427 0.088834 -0.035190
v -0.103416 0.088842 -0.035035
v -0.103356 0.088837 -0.034981
v -0.103287 0.087908 -0.035027
v -0.103346 0.087913 -0.035203
v -0.103375 0.088823 -0.035250
v -0.103278 0.088828 -0.034965
v -0.103350 0.089726 -0.035182
v -0.103319 0.089731 -0.035094
v -0.103295 0.087907 -0.035158
v -0.103273 0.087905 -0.035093
v -0.103299 0.088812 -0.035276
v -0.103332 0.089715 -0.035273
v -0.103249 0.089727 -0.035032
v -0.103202 0.088816 -0.034991
v -0.103221 0.088802 -0.035260
v -0.103150 0.088806 -0.035051
v -0.103272 0.089701 -0.035342
v -0.103158 0.089716 -0.035014
v -0.103253 0.090606 -0.035275
v -0.103233 0.090591 -0.035378
v -0.103218 0.090612 -0.035175
v -0.103138 0.090608 -0.035105
v -0.103160 0.088798 -0.035207
v -0.103134 0.088799 -0.035130
v -0.103185 0.089686 -0.035372
v -0.103071 0.089702 -0.035043
v -0.103165 0.090573 -0.035457
v -0.103035 0.090596 -0.035084
v -0.103149 0.091487 -0.035376
v -0.103110 0.091493 -0.035265
v -0.103094 0.089675 -0.035353
v -0.103127 0.091470 -0.035492
v -0.103021 0.091489 -0.035187
v -0.103011 0.089687 -0.035113
v -0.103066 0.090555 -0.035490
v -0.103024 0.089672 -0.035292
v -0.102993 0.089676 -0.035204
v -0.102936 0.090578 -0.035118
v -0.103051 0.091449 -0.035580
v -0.103036 0.092378 -0.035472
v -0.102993 0.092383 -0.035348
v -0.102905 0.091474 -0.035163
v -0.103012 0.092362 -0.035600
v -0.102895 0.092376 -0.035261
v -0.102963 0.090542 -0.035470
v -0.102868 0.090560 -0.035197
v -0.102940 0.091428 -0.035618
v -0.102928 0.092339 -0.035698
v -0.102883 0.090539 -0.035400
v -0.102848 0.090545 -0.035300
v -0.102795 0.091453 -0.035200
v -0.102768 0.092359 -0.035235
v -0.102913 0.093289 -0.035547
v -0.102886 0.093276 -0.035688
v -0.102866 0.093290 -0.035411
v -0.102759 0.093279 -0.035316
v -0.102825 0.091413 -0.035594
v -0.102719 0.091432 -0.035289
v -0.102805 0.092316 -0.035739
v -0.102645 0.092335 -0.035276
v -0.102792 0.093253 -0.035796
v -0.102775 0.094228 -0.035589
v -0.102726 0.094223 -0.035440
v -0.102736 0.091409 -0.035516
v -0.102620 0.093257 -0.035287
v -0.102745 0.094220 -0.035742
v -0.102697 0.091416 -0.035404
v -0.102611 0.094204 -0.035336
v -0.102678 0.092298 -0.035713
v -0.102658 0.093228 -0.035841
v -0.102561 0.092312 -0.035374
v -0.102643 0.094200 -0.035859
v -0.102486 0.093232 -0.035332
v -0.102460 0.094178 -0.035304
v -0.102622 0.095204 -0.035581
v -0.102571 0.095189 -0.035420
v -0.102580 0.092291 -0.035626
v -0.102537 0.092296 -0.035502
v -0.102588 0.095204 -0.035747
v -0.102448 0.095162 -0.035308
v -0.102519 0.093206 -0.035812
v -0.102393 0.093209 -0.035440
v -0.102497 0.094173 -0.035908
v -0.102476 0.095188 -0.035873
v -0.102314 0.094151 -0.035354
v -0.102285 0.095130 -0.035274
v -0.102398 0.096198 -0.035339
v -0.102451 0.096226 -0.035511
v -0.102412 0.093194 -0.035717
v -0.102267 0.096161 -0.035219
v -0.102412 0.096236 -0.035688
v -0.102366 0.093195 -0.035580
v -0.102346 0.094147 -0.035877
v -0.102318 0.095160 -0.035926
v -0.102211 0.094131 -0.035471
v -0.102291 0.096226 -0.035823
v -0.102127 0.095102 -0.035327
v -0.102093 0.096123 -0.035182
v -0.102230 0.094128 -0.035773
v -0.102181 0.094122 -0.035624
v -0.102156 0.095129 -0.035892
v -0.102015 0.095086 -0.035454
v -0.102121 0.096198 -0.035880
v -0.101923 0.096095 -0.035239
v -0.102032 0.095101 -0.035780
v -0.101981 0.095086 -0.035619
v -0.101947 0.096161 -0.035844
v -0.101802 0.096085 -0.035375
v -0.101815 0.096123 -0.035724
v -0.101762 0.096095 -0.035552
v -0.106003 0.085538 -0.043760
v -0.106200 0.085743 -0.043957
v -0.106144 0.085509 -0.043736
v -0.106324 0.085777 -0.043895
v -0.106270 0.085538 -0.043667
v -0.106059 0.085758 -0.043966
v -0.105883 0.085618 -0.043732
v -0.106397 0.085851 -0.043798
v -0.106346 0.085618 -0.043571
v -0.106400 0.085945 -0.043690
v -0.106352 0.085727 -0.043474
v -0.106332 0.086034 -0.043602
v -0.106287 0.085837 -0.043402
v -0.106224 0.086039 -0.044182
v -0.106345 0.086075 -0.044124
v -0.106085 0.086044 -0.044183
v -0.105938 0.085818 -0.043921
v -0.106416 0.086144 -0.044027
v -0.106418 0.086226 -0.043915
v -0.106210 0.086094 -0.043557
v -0.106168 0.085917 -0.043374
v -0.106069 0.086108 -0.043566
v -0.106026 0.085946 -0.043398
v -0.106350 0.086300 -0.043819
v -0.105945 0.086074 -0.043628
v -0.105901 0.085917 -0.043467
v -0.106224 0.086384 -0.044411
v -0.105966 0.086089 -0.044129
v -0.106089 0.086383 -0.044408
v -0.106342 0.086422 -0.044356
v -0.106231 0.086346 -0.043764
v -0.106411 0.086486 -0.044260
v -0.105973 0.086419 -0.044350
v -0.105898 0.086163 -0.044033
v -0.105869 0.085907 -0.043833
v -0.106092 0.086351 -0.043766
v -0.105971 0.086314 -0.043823
v -0.106413 0.086560 -0.044146
v -0.106347 0.086624 -0.044047
v -0.106230 0.086660 -0.043988
v -0.105977 0.086621 -0.044040
v -0.105908 0.086557 -0.044137
v -0.105900 0.086245 -0.043921
v -0.106095 0.086659 -0.043986
v -0.106207 0.086770 -0.044642
v -0.106321 0.086807 -0.044590
v -0.106075 0.086765 -0.044638
v -0.106388 0.086868 -0.044495
v -0.105962 0.086795 -0.044577
v -0.105907 0.086483 -0.044250
v -0.106390 0.086936 -0.044382
v -0.106326 0.086992 -0.044282
v -0.106213 0.087021 -0.044221
v -0.105967 0.086979 -0.044269
v -0.105900 0.086918 -0.044364
v -0.106082 0.087017 -0.044216
v -0.106176 0.087185 -0.044873
v -0.106287 0.087222 -0.044822
v -0.106048 0.087178 -0.044867
v -0.105939 0.087203 -0.044806
v -0.105898 0.086851 -0.044477
v -0.106352 0.087279 -0.044728
v -0.106354 0.087341 -0.044616
v -0.106292 0.087392 -0.044517
v -0.105944 0.087373 -0.044500
v -0.105878 0.087316 -0.044594
v -0.106183 0.087417 -0.044455
v -0.106055 0.087410 -0.044450
v -0.106136 0.087619 -0.045097
v -0.106244 0.087654 -0.045047
v -0.106012 0.087611 -0.045090
v -0.106308 0.087708 -0.044955
v -0.106310 0.087765 -0.044845
v -0.106250 0.087811 -0.044746
v -0.106144 0.087832 -0.044685
v -0.106020 0.087824 -0.044679
v -0.105912 0.087789 -0.044728
v -0.106092 0.088059 -0.045309
v -0.106197 0.088092 -0.045261
v -0.105972 0.088050 -0.045302
v -0.105906 0.087632 -0.045029
v -0.106259 0.088142 -0.045170
v -0.106262 0.088195 -0.045062
v -0.106204 0.088236 -0.044965
v -0.106101 0.088255 -0.044905
v -0.105981 0.088247 -0.044898
v -0.105876 0.088213 -0.044947
v -0.106049 0.088492 -0.045505
v -0.106151 0.088523 -0.045457
v -0.105932 0.088484 -0.045498
v -0.105870 0.088069 -0.045243
v -0.106211 0.088569 -0.045368
v -0.106213 0.088618 -0.045262
v -0.106157 0.088655 -0.045167
v -0.106058 0.088672 -0.045108
v -0.105942 0.088664 -0.045102
v -0.105840 0.088633 -0.045149
v -0.106108 0.088936 -0.045631
v -0.106009 0.088908 -0.045678
v -0.106167 0.088977 -0.045543
v -0.106170 0.089021 -0.045439
v -0.106116 0.089055 -0.045346
v -0.106019 0.089071 -0.045289
v -0.105907 0.089064 -0.045283
v -0.106075 0.089317 -0.045776
v -0.105979 0.089294 -0.045823
v -0.105896 0.088901 -0.045672
v -0.106132 0.089352 -0.045690
v -0.106135 0.089391 -0.045587
v -0.106083 0.089421 -0.045496
v -0.105989 0.089436 -0.045441
v -0.105880 0.089431 -0.045436
v -0.106054 0.089654 -0.045887
v -0.105961 0.089638 -0.045935
v -0.105869 0.089289 -0.045818
v -0.106110 0.089682 -0.045802
v -0.106113 0.089713 -0.045701
v -0.106062 0.089740 -0.045612
v -0.105973 0.089755 -0.045558
v -0.105867 0.089754 -0.045555
v -0.106051 0.089932 -0.045958
v -0.105961 0.089922 -0.046006
v -0.105856 0.089637 -0.045931
v -0.106105 0.089952 -0.045874
v -0.106108 0.089978 -0.045775
v -0.106059 0.090003 -0.045689
v -0.105972 0.090020 -0.045638
v -0.105870 0.090024 -0.045636
v -0.106079 0.090560 -0.046108
v -0.105997 0.090553 -0.046152
v -0.105860 0.089926 -0.046004
v -0.106128 0.090579 -0.046031
v -0.106131 0.090605 -0.045941
v -0.106086 0.090630 -0.045863
v -0.106007 0.090649 -0.045817
v -0.105914 0.090656 -0.045816
v -0.106122 0.091227 -0.046309
v -0.106047 0.091220 -0.046349
v -0.105904 0.090560 -0.046151
v -0.106167 0.091247 -0.046239
v -0.106170 0.091275 -0.046159
v -0.106130 0.091302 -0.046089
v -0.106058 0.091322 -0.046048
v -0.105973 0.091330 -0.046048
v -0.105963 0.091228 -0.046348
v -0.106108 0.091913 -0.046586
v -0.106176 0.091920 -0.046550
v -0.106032 0.091921 -0.046586
v -0.105891 0.091248 -0.046308
v -0.105824 0.090579 -0.046106
v -0.106216 0.091940 -0.046489
v -0.106219 0.091968 -0.046417
v -0.106183 0.091995 -0.046355
v -0.106119 0.092015 -0.046320
v -0.106043 0.092023 -0.046319
v -0.105975 0.092016 -0.046355
v -0.105898 0.091323 -0.046088
v -0.106175 0.092616 -0.046855
v -0.106235 0.092623 -0.046823
v -0.105968 0.091941 -0.046550
v -0.106107 0.092623 -0.046855
v -0.106271 0.092642 -0.046769
v -0.106050 0.092642 -0.046823
v -0.105932 0.091968 -0.046488
v -0.105851 0.091275 -0.046238
v -0.106274 0.092669 -0.046706
v -0.106242 0.092695 -0.046652
v -0.106185 0.092714 -0.046621
v -0.106058 0.092714 -0.046652
v -0.106021 0.092694 -0.046706
v -0.105935 0.091996 -0.046417
v -0.106117 0.092721 -0.046621
v -0.106242 0.093312 -0.047144
v -0.106295 0.093319 -0.047117
v -0.106183 0.093318 -0.047144
v -0.106327 0.093337 -0.047070
v -0.106019 0.092668 -0.046769
v -0.106133 0.093335 -0.047117
v -0.106329 0.093362 -0.047016
v -0.106106 0.093360 -0.047070
v -0.106302 0.093386 -0.046969
v -0.106108 0.093384 -0.047016
v -0.106252 0.093403 -0.046942
v -0.106140 0.093402 -0.046969
v -0.106193 0.093409 -0.046942
v -0.106305 0.093986 -0.047444
v -0.106350 0.093993 -0.047421
v -0.106255 0.093991 -0.047444
v -0.106378 0.094009 -0.047381
v -0.106212 0.094006 -0.047421
v -0.106380 0.094031 -0.047335
v -0.106188 0.094028 -0.047381
v -0.106357 0.094053 -0.047296
v -0.106191 0.094050 -0.047335
v -0.106314 0.094068 -0.047273
v -0.106218 0.094066 -0.047295
v -0.106263 0.094073 -0.047272
v -0.106359 0.094621 -0.047744
v -0.106396 0.094628 -0.047726
v -0.106316 0.094625 -0.047744
v -0.106419 0.094643 -0.047693
v -0.106281 0.094638 -0.047725
v -0.106421 0.094662 -0.047655
v -0.106261 0.094656 -0.047692
v -0.106402 0.094681 -0.047622
v -0.106263 0.094676 -0.047654
v -0.106366 0.094694 -0.047603
v -0.106286 0.094691 -0.047622
v -0.106324 0.094697 -0.047603
v -0.106398 0.095203 -0.048035
v -0.106428 0.095209 -0.048021
v -0.106364 0.095206 -0.048034
v -0.106446 0.095222 -0.047995
v -0.106335 0.095216 -0.048019
v -0.106448 0.095238 -0.047965
v -0.106320 0.095231 -0.047993
v -0.106432 0.095254 -0.047939
v -0.106321 0.095247 -0.047963
v -0.106404 0.095264 -0.047924
v -0.106340 0.095260 -0.047938
v -0.106370 0.095266 -0.047923
v -0.106417 0.095716 -0.048306
v -0.106440 0.095721 -0.048296
v -0.106392 0.095717 -0.048305
v -0.106454 0.095732 -0.048277
v -0.106370 0.095724 -0.048293
v -0.106455 0.095745 -0.048255
v -0.106359 0.095736 -0.048274
v -0.106443 0.095756 -0.048235
v -0.106360 0.095749 -0.048252
v -0.106422 0.095764 -0.048224
v -0.106374 0.095759 -0.048233
v -0.106396 0.095765 -0.048223
v -0.106412 0.096143 -0.048547
v -0.106427 0.096148 -0.048540
v -0.106395 0.096143 -0.048546
v -0.106436 0.096156 -0.048529
v -0.106381 0.096148 -0.048538
v -0.106437 0.096165 -0.048514
v -0.106373 0.096156 -0.048525
v -0.106429 0.096173 -0.048501
v -0.106374 0.096165 -0.048510
v -0.106415 0.096178 -0.048493
v -0.106383 0.096173 -0.048498
v -0.106398 0.096178 -0.048492
v -0.106374 0.096480 -0.048734
v -0.105818 0.085727 -0.043660
v -0.105872 0.086001 -0.043725
v -0.105877 0.087254 -0.044706
v -0.105848 0.087735 -0.044820
v -0.105833 0.088501 -0.045440
v -0.105808 0.089036 -0.045330
v -0.105854 0.091303 -0.046157
v -0.105825 0.085837 -0.043563
v -0.105846 0.087678 -0.044931
v -0.105812 0.088111 -0.045145
v -0.105814 0.088163 -0.045037
v -0.105777 0.088539 -0.045344
v -0.105779 0.088587 -0.045238
v -0.105800 0.088917 -0.045615
v -0.105746 0.088951 -0.045522
v -0.105749 0.088995 -0.045417
v -0.105776 0.089304 -0.045763
v -0.105724 0.089334 -0.045672
v -0.105727 0.089373 -0.045569
v -0.105784 0.089408 -0.045483
v -0.105766 0.089652 -0.045878
v -0.105715 0.089678 -0.045789
v -0.105718 0.089710 -0.045688
v -0.105774 0.089737 -0.045602
v -0.105773 0.089943 -0.045953
v -0.105724 0.089967 -0.045866
v -0.105727 0.089994 -0.045768
v -0.105781 0.090014 -0.045684
v -0.105780 0.090605 -0.046028
v -0.105783 0.090631 -0.045938
v -0.105832 0.090650 -0.045860
usemtl Perforating_branches_of_fibular_artery_rMaterial0
f 1 2 3
f 4 2 1
f 1 3 5
f 6 1 5
f 7 4 1
f 7 1 6
f 2 8 9
f 10 8 2
f 2 9 3
f 4 10 2
f 8 11 12
f 13 11 8
f 8 12 9
f 10 13 8
f 11 14 12
f 11 15 14
f 16 15 11
f 13 16 11
f 5 3 17
f 6 5 18
f 18 5 19
f 5 17 19
f 3 9 20
f 3 20 17
f 9 12 21
f 9 21 20
f 12 14 22
f 12 22 21
f 15 23 14
f 16 24 15
f 24 25 15
f 15 25 23
f 14 23 26
f 14 26 22
f 27 10 4
f 28 4 7
f 28 27 4
f 29 13 10
f 27 29 10
f 30 16 13
f 29 30 13
f 31 6 18
f 32 7 6
f 32 6 31
f 33 24 16
f 30 33 16
f 24 34 25
f 35 34 24
f 33 35 24
f 18 19 36
f 37 18 36
f 31 18 37
f 25 38 23
f 34 39 25
f 25 39 38
f 23 38 40
f 23 40 26
f 19 17 41
f 36 19 42
f 19 41 42
f 17 20 43
f 17 43 41
f 20 21 44
f 20 44 43
f 21 22 45
f 22 26 46
f 22 46 45
f 21 45 44
f 47 28 7
f 47 7 32
f 34 48 39
f 35 49 34
f 49 48 34
f 39 50 38
f 48 51 39
f 39 51 50
f 38 50 52
f 38 52 40
f 37 36 53
f 53 36 54
f 36 42 54
f 26 40 55
f 26 55 46
f 56 27 28
f 57 28 47
f 57 56 28
f 58 32 31
f 59 47 32
f 59 32 58
f 60 29 27
f 56 60 27
f 61 31 37
f 58 31 61
f 61 37 62
f 63 61 62
f 64 58 61
f 64 61 63
f 65 30 29
f 60 65 29
f 65 66 30
f 67 66 65
f 68 65 60
f 68 67 65
f 66 33 30
f 66 69 33
f 70 69 66
f 67 70 66
f 69 35 33
f 69 71 35
f 72 71 69
f 70 72 69
f 71 49 35
f 71 73 49
f 74 73 71
f 72 74 71
f 62 37 53
f 62 53 75
f 76 62 75
f 63 62 76
f 77 78 79
f 77 80 78
f 79 78 81
f 78 82 81
f 78 83 82
f 80 83 78
f 84 77 85
f 85 77 79
f 84 86 77
f 86 80 77
f 73 84 85
f 73 85 49
f 49 85 48
f 85 79 48
f 87 84 73
f 88 86 84
f 87 88 84
f 74 87 73
f 79 81 51
f 51 81 89
f 81 90 89
f 81 82 90
f 48 79 51
f 51 89 50
f 50 89 91
f 89 92 91
f 89 90 92
f 50 91 52
f 52 91 93
f 91 92 94
f 91 94 93
f 53 54 95
f 75 53 95
f 40 52 96
f 52 93 96
f 40 96 55
f 55 96 97
f 96 93 98
f 96 98 97
f 46 55 99
f 55 97 99
f 46 99 100
f 100 99 101
f 99 97 102
f 99 102 101
f 45 46 100
f 45 100 103
f 103 100 104
f 100 101 104
f 44 45 103
f 44 103 105
f 105 103 106
f 103 104 106
f 43 44 105
f 43 105 107
f 107 105 108
f 105 106 108
f 41 43 107
f 41 107 109
f 109 107 110
f 107 108 110
f 42 41 109
f 42 109 111
f 109 110 112
f 111 109 112
f 54 42 111
f 95 54 113
f 54 111 113
f 114 47 59
f 114 57 47
f 115 58 64
f 115 59 58
f 116 60 56
f 117 56 57
f 117 116 56
f 116 68 60
f 118 70 67
f 119 67 68
f 119 118 67
f 83 120 82
f 80 121 83
f 83 122 120
f 121 122 83
f 123 72 70
f 118 123 70
f 82 124 90
f 82 120 124
f 86 125 80
f 125 121 80
f 126 125 86
f 126 127 125
f 125 128 121
f 127 128 125
f 129 74 72
f 123 129 72
f 90 130 92
f 90 124 130
f 88 126 86
f 131 87 74
f 129 131 74
f 92 130 132
f 92 132 94
f 133 126 88
f 133 134 126
f 134 127 126
f 135 88 87
f 135 133 88
f 131 135 87
f 136 131 129
f 137 136 129
f 137 129 123
f 138 133 135
f 138 139 133
f 139 134 133
f 140 135 131
f 140 138 135
f 136 140 131
f 75 95 141
f 76 75 142
f 142 75 141
f 93 143 98
f 93 94 143
f 97 98 144
f 98 143 145
f 98 145 144
f 97 144 102
f 101 102 146
f 102 144 147
f 102 147 146
f 104 139 138
f 104 101 139
f 101 146 139
f 139 146 134
f 106 138 140
f 106 104 138
f 108 140 136
f 108 106 140
f 110 108 136
f 110 136 137
f 112 110 137
f 111 112 148
f 112 137 149
f 148 112 149
f 95 113 150
f 141 95 150
f 113 111 148
f 113 148 151
f 150 113 151
f 152 64 63
f 153 115 64
f 153 64 152
f 154 59 115
f 154 114 59
f 155 57 114
f 155 117 57
f 156 63 76
f 152 63 156
f 121 157 122
f 157 158 122
f 122 159 120
f 122 158 159
f 128 157 121
f 128 160 157
f 160 161 157
f 157 161 158
f 162 68 116
f 163 162 116
f 163 116 117
f 120 164 124
f 120 159 164
f 162 119 68
f 124 165 130
f 124 164 165
f 166 76 142
f 156 76 166
f 130 167 132
f 130 165 167
f 94 132 168
f 132 169 168
f 132 167 169
f 127 170 128
f 170 160 128
f 171 172 170
f 172 173 170
f 171 170 127
f 170 173 160
f 147 174 172
f 174 175 172
f 147 172 171
f 172 175 173
f 176 118 119
f 177 176 119
f 177 119 162
f 144 145 174
f 145 178 174
f 144 174 147
f 174 178 175
f 134 171 127
f 149 123 118
f 176 149 118
f 142 141 179
f 166 142 180
f 180 142 179
f 143 181 145
f 145 181 178
f 146 147 171
f 146 171 134
f 149 137 123
f 94 168 143
f 143 168 181
f 148 149 176
f 151 148 176
f 151 176 177
f 141 150 182
f 179 141 182
f 150 151 183
f 183 151 177
f 182 150 183
f 173 184 160
f 160 184 161
f 168 185 181
f 168 169 185
f 173 186 184
f 175 186 173
f 181 185 187
f 181 187 178
f 188 177 162
f 188 162 163
f 183 177 188
f 189 115 153
f 189 154 115
f 190 155 114
f 190 114 154
f 191 156 166
f 192 152 156
f 192 156 191
f 158 193 159
f 159 193 164
f 161 193 158
f 184 193 161
f 175 194 186
f 194 193 186
f 178 187 194
f 187 193 194
f 178 194 175
f 186 193 184
f 165 193 167
f 164 193 165
f 167 193 169
f 169 193 185
f 185 193 187
f 195 163 117
f 195 117 155
f 196 166 180
f 191 166 196
f 179 182 197
f 180 179 198
f 198 179 197
f 182 183 199
f 199 183 188
f 197 182 199
f 200 188 163
f 200 163 195
f 199 188 200
f 201 153 152
f 201 152 192
f 196 180 202
f 202 180 198
f 203 195 155
f 203 155 190
f 204 199 200
f 197 199 204
f 205 189 153
f 205 153 201
f 206 190 154
f 206 154 189
f 207 191 196
f 208 192 191
f 208 191 207
f 209 196 202
f 207 196 209
f 210 200 195
f 210 195 203
f 204 200 210
f 198 197 211
f 202 198 212
f 212 198 211
f 211 197 204
f 213 192 208
f 213 201 192
f 209 202 214
f 214 202 212
f 215 203 190
f 215 190 206
f 216 204 210
f 211 204 216
f 217 189 205
f 217 206 189
f 218 207 209
f 219 208 207
f 219 207 218
f 218 209 220
f 220 209 214
f 221 210 203
f 221 203 215
f 216 210 221
f 212 211 222
f 222 211 216
f 223 224 219
f 225 224 223
f 223 219 226
f 227 223 226
f 228 223 227
f 228 225 223
f 229 230 231
f 232 230 229
f 230 233 234
f 235 233 230
f 230 234 231
f 232 235 230
f 236 229 237
f 238 229 236
f 229 231 237
f 238 232 229
f 233 226 239
f 227 226 233
f 233 239 234
f 235 227 233
f 240 213 224
f 225 240 224
f 240 241 213
f 242 241 240
f 243 240 225
f 243 242 240
f 224 208 219
f 224 213 208
f 226 219 218
f 226 218 239
f 236 237 244
f 245 236 244
f 246 238 236
f 246 236 245
f 237 231 247
f 231 234 248
f 231 248 247
f 244 237 249
f 237 247 249
f 241 201 213
f 241 205 201
f 250 205 241
f 242 250 241
f 234 239 251
f 234 251 248
f 239 218 220
f 239 220 251
f 250 217 205
f 252 217 250
f 253 252 250
f 253 250 242
f 244 249 254
f 255 244 254
f 245 244 255
f 249 247 256
f 247 248 257
f 247 257 256
f 254 249 258
f 249 256 258
f 252 259 217
f 259 206 217
f 248 251 260
f 248 260 257
f 261 259 252
f 262 261 252
f 262 252 253
f 251 220 263
f 251 263 260
f 259 215 206
f 220 214 263
f 254 258 264
f 255 254 265
f 265 254 264
f 261 266 259
f 266 215 259
f 256 257 267
f 257 260 268
f 257 268 267
f 258 256 269
f 256 267 269
f 264 258 270
f 258 269 270
f 271 255 265
f 272 245 255
f 272 255 271
f 260 263 273
f 260 273 268
f 274 266 261
f 275 274 261
f 275 261 262
f 266 221 215
f 263 214 276
f 263 276 273
f 265 264 277
f 277 264 278
f 264 270 278
f 268 273 279
f 268 279 280
f 267 268 280
f 274 281 266
f 281 221 266
f 214 212 276
f 279 282 274
f 279 274 275
f 282 281 274
f 273 282 279
f 280 279 275
f 273 276 282
f 283 265 277
f 271 265 283
f 281 216 221
f 282 222 281
f 222 216 281
f 276 222 282
f 276 212 222
f 277 278 284
f 285 277 284
f 283 277 285
f 286 227 235
f 287 286 235
f 286 228 227
f 288 228 286
f 289 286 287
f 289 288 286
f 287 235 232
f 290 232 238
f 290 287 232
f 291 225 228
f 288 291 228
f 291 243 225
f 292 238 246
f 292 290 238
f 293 242 243
f 294 293 243
f 294 243 291
f 293 253 242
f 295 246 245
f 296 292 246
f 296 246 295
f 297 262 253
f 297 253 293
f 295 245 272
f 298 275 262
f 298 262 297
f 299 280 298
f 299 298 300
f 280 275 298
f 300 298 297
f 269 267 299
f 267 280 299
f 269 299 301
f 301 299 300
f 270 269 301
f 270 301 302
f 302 301 303
f 301 300 303
f 278 270 302
f 278 302 304
f 304 302 305
f 302 303 305
f 284 278 304
f 284 304 306
f 306 304 307
f 304 305 307
f 308 272 271
f 309 295 272
f 309 272 308
f 310 271 283
f 308 271 310
f 285 284 311
f 311 284 306
f 312 283 285
f 310 283 312
f 313 285 311
f 312 285 313
f 314 287 290
f 314 289 287
f 315 290 292
f 315 314 290
f 316 297 293
f 316 293 294
f 300 297 316
f 311 306 317
f 313 311 318
f 318 311 317
f 319 291 288
f 319 294 291
f 303 300 316
f 306 307 320
f 317 306 320
f 321 310 312
f 322 308 310
f 322 310 321
f 323 312 313
f 321 312 323
f 324 315 292
f 324 292 296
f 325 296 295
f 325 295 309
f 326 288 289
f 326 319 288
f 327 289 314
f 327 326 289
f 328 327 314
f 328 314 315
f 329 316 294
f 329 294 319
f 303 316 329
f 305 303 329
f 307 305 330
f 305 329 330
f 307 330 331
f 320 307 331
f 332 313 318
f 323 313 332
f 333 309 308
f 333 308 322
f 330 319 326
f 330 329 319
f 331 326 327
f 331 330 326
f 334 331 327
f 334 327 328
f 335 328 315
f 335 315 324
f 320 331 334
f 317 320 336
f 336 320 334
f 318 317 337
f 337 317 336
f 332 318 338
f 338 318 337
f 339 324 296
f 339 296 325
f 340 334 328
f 340 328 335
f 336 334 340
f 341 325 309
f 341 309 333
f 342 321 323
f 343 323 332
f 342 323 343
f 337 336 344
f 344 336 340
f 345 322 321
f 345 321 342
f 346 332 338
f 343 332 346
f 347 335 324
f 347 324 339
f 338 337 348
f 348 337 344
f 349 340 335
f 344 340 349
f 350 333 322
f 350 322 345
f 349 335 347
f 351 339 325
f 351 325 341
f 352 338 348
f 346 338 352
f 353 344 349
f 348 344 353
f 354 341 333
f 354 333 350
f 355 347 339
f 355 339 351
f 356 342 343
f 357 343 346
f 356 343 357
f 358 345 342
f 358 342 356
f 359 349 347
f 353 349 359
f 352 348 360
f 360 348 353
f 361 346 352
f 357 346 361
f 359 347 355
f 362 351 341
f 362 341 354
f 363 350 345
f 363 345 358
f 364 352 360
f 361 352 364
f 365 353 359
f 360 353 365
f 366 355 351
f 366 351 362
f 367 359 355
f 365 359 367
f 368 354 350
f 368 350 363
f 367 355 366
f 369 360 365
f 364 360 369
f 370 356 357
f 371 357 361
f 370 357 371
f 372 358 356
f 372 356 370
f 373 361 364
f 371 361 373
f 374 362 354
f 374 354 368
f 375 363 358
f 375 358 372
f 376 365 367
f 369 365 376
f 377 364 369
f 373 364 377
f 378 366 362
f 378 362 374
f 379 367 366
f 376 367 379
f 379 366 378
f 380 368 363
f 380 363 375
f 381 369 376
f 377 369 381
f 382 370 371
f 383 371 373
f 382 371 383
f 384 372 370
f 384 370 382
f 385 373 377
f 383 373 385
f 386 374 368
f 386 368 380
f 387 376 379
f 381 376 387
f 388 375 372
f 388 372 384
f 389 377 381
f 385 377 389
f 390 378 374
f 390 374 386
f 391 379 378
f 387 379 391
f 391 378 390
f 392 380 375
f 392 375 388
f 393 381 387
f 389 381 393
f 394 383 385
f 395 382 383
f 395 383 394
f 396 385 389
f 394 385 396
f 397 384 382
f 397 382 395
f 398 386 380
f 398 380 392
f 399 387 391
f 393 387 399
f 400 388 384
f 400 384 397
f 401 389 393
f 396 389 401
f 402 390 386
f 402 386 398
f 403 391 390
f 399 391 403
f 403 390 402
f 404 392 388
f 404 388 400
f 401 393 405
f 405 393 399
f 406 394 396
f 407 395 394
f 407 394 406
f 408 396 401
f 406 396 408
f 409 397 395
f 409 395 407
f 410 401 405
f 408 401 410
f 411 399 403
f 405 399 411
f 412 398 392
f 412 392 404
f 413 400 397
f 413 397 409
f 414 407 406
f 415 406 408
f 414 406 415
f 416 402 398
f 416 398 412
f 417 403 402
f 411 403 417
f 410 405 418
f 418 405 411
f 419 409 407
f 419 407 414
f 420 408 410
f 415 408 420
f 417 402 416
f 421 404 400
f 421 400 413
f 420 410 422
f 422 410 418
f 418 411 423
f 423 411 417
f 424 413 409
f 424 409 419
f 425 415 420
f 426 414 415
f 426 415 425
f 427 412 404
f 427 404 421
f 428 420 422
f 425 420 428
f 422 418 429
f 429 418 423
f 430 419 414
f 430 414 426
f 431 417 416
f 423 417 431
f 432 416 412
f 432 412 427
f 433 421 413
f 433 413 424
f 428 422 434
f 434 422 429
f 431 416 432
f 435 424 419
f 435 419 430
f 436 425 428
f 437 426 425
f 437 425 436
f 438 428 434
f 436 428 438
f 429 423 439
f 439 423 431
f 440 430 426
f 440 426 437
f 441 427 421
f 441 421 433
f 434 429 442
f 442 429 439
f 438 434 443
f 443 434 442
f 444 431 432
f 439 431 444
f 445 433 424
f 445 424 435
f 446 432 427
f 446 427 441
f 447 435 430
f 447 430 440
f 448 436 438
f 449 437 436
f 449 436 448
f 444 432 446
f 450 438 443
f 448 438 450
f 442 439 451
f 451 439 444
f 452 440 437
f 452 437 449
f 443 442 453
f 453 442 451
f 454 441 433
f 454 433 445
f 450 443 455
f 455 443 453
f 456 444 446
f 451 444 456
f 457 445 435
f 457 435 447
f 458 447 440
f 458 440 452
f 459 446 441
f 459 441 454
f 460 448 450
f 461 449 448
f 461 448 460
f 456 446 459
f 453 451 462
f 462 451 456
f 463 450 455
f 460 450 463
f 464 452 449
f 464 449 461
f 465 454 445
f 465 445 457
f 455 453 466
f 466 453 462
f 467 457 447
f 467 447 458
f 463 455 468
f 468 455 466
f 469 456 459
f 462 456 469
f 470 459 454
f 470 454 465
f 471 458 452
f 471 452 464
f 469 459 470
f 466 462 472
f 472 462 469
f 473 460 463
f 474 461 460
f 474 460 473
f 475 463 468
f 473 463 475
f 476 465 457
f 476 457 467
f 468 466 477
f 477 466 472
f 478 464 461
f 478 461 474
f 479 469 470
f 472 469 479
f 480 467 458
f 480 458 471
f 481 468 477
f 475 468 481
f 482 470 465
f 482 465 476
f 479 470 482
f 483 471 464
f 483 464 478
f 477 472 484
f 484 472 479
f 485 473 475
f 486 474 473
f 486 473 485
f 487 476 467
f 487 467 480
f 481 477 488
f 488 477 484
f 489 475 481
f 485 475 489
f 490 478 474
f 490 474 486
f 491 479 482
f 484 479 491
f 492 480 471
f 492 471 483
f 493 482 476
f 493 476 487
f 494 481 488
f 489 481 494
f 491 482 493
f 488 484 495
f 495 484 491
f 496 483 478
f 496 478 490
f 497 487 480
f 497 480 492
f 498 485 489
f 499 486 485
f 499 485 498
f 494 488 500
f 500 488 495
f 501 489 494
f 498 489 501
f 502 491 493
f 495 491 502
f 503 490 486
f 503 486 499
f 504 493 487
f 504 487 497
f 505 492 483
f 505 483 496
f 502 493 504
f 506 494 500
f 501 494 506
f 500 495 507
f 507 495 502
f 508 496 490
f 508 490 503
f 509 497 492
f 509 492 505
f 506 500 510
f 510 500 507
f 511 498 501
f 512 499 498
f 512 498 511
f 513 502 504
f 507 502 513
f 514 501 506
f 511 501 514
f 515 504 497
f 515 497 509
f 516 505 496
f 516 496 508
f 517 503 499
f 517 499 512
f 513 504 515
f 518 506 510
f 514 506 518
f 510 507 519
f 519 507 513
f 520 508 503
f 520 503 517
f 521 509 505
f 521 505 516
f 518 510 522
f 522 510 519
f 523 513 515
f 519 513 523
f 524 511 514
f 525 512 511
f 525 511 524
f 526 515 509
f 526 509 521
f 527 514 518
f 524 514 527
f 523 515 526
f 528 516 508
f 528 508 520
f 529 517 512
f 529 512 525
f 530 518 522
f 527 518 530
f 531 519 523
f 522 519 531
f 532 521 516
f 532 516 528
f 533 520 517
f 533 517 529
f 534 523 526
f 531 523 534
f 535 522 531
f 530 522 535
f 536 526 521
f 536 521 532
f 534 526 536
f 537 524 527
f 538 527 530
f 537 527 538
f 539 525 524
f 539 524 537
f 540 528 520
f 540 520 533
f 541 531 534
f 535 531 541
f 542 529 525
f 542 525 539
f 543 530 535
f 538 530 543
f 544 532 528
f 544 528 540
f 545 534 536
f 541 534 545
f 546 533 529
f 546 529 542
f 547 535 541
f 543 535 547
f 548 536 532
f 548 532 544
f 545 536 548
f 549 537 538
f 550 538 543
f 549 538 550
f 551 539 537
f 551 537 549
f 552 540 533
f 552 533 546
f 553 541 545
f 547 541 553
f 554 543 547
f 550 543 554
f 555 542 539
f 555 539 551
f 556 544 540
f 556 540 552
f 557 545 548
f 553 545 557
f 558 547 553
f 554 547 558
f 559 546 542
f 559 542 555
f 560 548 544
f 557 548 560
f 560 544 556
f 561 553 557
f 558 553 561
f 562 549 550
f 563 550 554
f 562 550 563
f 564 552 546
f 564 546 559
f 565 551 549
f 565 549 562
f 566 554 558
f 563 554 566
f 567 555 551
f 567 551 565
f 568 557 560
f 561 557 568
f 569 556 552
f 569 552 564
f 570 558 561
f 566 558 570
f 571 560 556
f 568 560 571
f 571 556 569
f 572 559 555
f 572 555 567
f 573 561 568
f 570 561 573
f 574 564 559
f 574 559 572
f 575 562 563
f 576 563 566
f 575 563 576
f 577 565 562
f 577 562 575
f 578 566 570
f 576 566 578
f 579 568 571
f 573 568 579
f 580 567 565
f 580 565 577
f 581 569 564
f 581 564 574
f 582 571 569
f 579 571 582
f 583 570 573
f 578 570 583
f 582 569 581
f 584 572 567
f 584 567 580
f 585 573 579
f 583 573 585
f 586 574 572
f 586 572 584
f 587 579 582
f 585 579 587
f 588 581 574
f 588 574 586
f 589 582 581
f 587 582 589
f 589 581 588
f 590 575 576
f 591 576 578
f 590 576 591
f 592 577 575
f 592 575 590
f 593 578 583
f 591 578 593
f 594 580 577
f 594 577 592
f 595 583 585
f 593 583 595
f 596 584 580
f 596 580 594
f 597 585 587
f 595 585 597
f 598 586 584
f 598 584 596
f 599 587 589
f 597 587 599
f 600 588 586
f 600 586 598
f 601 589 588
f 599 589 601
f 601 588 600
f 602 590 591
f 603 591 593
f 602 591 603
f 604 592 590
f 604 590 602
f 605 593 595
f 603 593 605
f 606 594 592
f 606 592 604
f 607 595 597
f 605 595 607
f 608 596 594
f 608 594 606
f 609 597 599
f 607 597 609
f 610 598 596
f 610 596 608
f 611 599 601
f 609 599 611
f 612 600 598
f 612 598 610
f 613 601 600
f 611 601 613
f 613 600 612
f 614 602 603
f 615 603 605
f 614 603 615
f 616 604 602
f 616 602 614
f 617 605 607
f 615 605 617
f 618 606 604
f 618 604 616
f 619 607 609
f 617 607 619
f 620 608 606
f 620 606 618
f 621 609 611
f 619 609 621
f 622 610 608
f 622 608 620
f 623 611 613
f 621 611 623
f 624 612 610
f 624 610 622
f 625 613 612
f 623 613 625
f 625 612 624
f 626 614 615
f 627 615 617
f 626 615 627
f 628 616 614
f 628 614 626
f 629 617 619
f 627 617 629
f 630 618 616
f 630 616 628
f 631 619 621
f 629 619 631
f 632 620 618
f 632 618 630
f 633 621 623
f 631 621 633
f 634 622 620
f 634 620 632
f 635 623 625
f 633 623 635
f 636 624 622
f 636 622 634
f 637 625 624
f 635 625 637
f 637 624 636
f 638 626 627
f 639 627 629
f 638 627 639
f 640 628 626
f 640 626 638
f 641 629 631
f 639 629 641
f 642 630 628
f 642 628 640
f 643 631 633
f 641 631 643
f 644 632 630
f 644 630 642
f 645 633 635
f 643 633 645
f 646 634 632
f 646 632 644
f 647 635 637
f 645 635 647
f 648 636 634
f 648 634 646
f 649 637 636
f 647 637 649
f 649 636 648
f 650 638 639
f 651 639 641
f 650 639 651
f 652 640 638
f 652 638 650
f 653 641 643
f 651 641 653
f 654 642 640
f 654 640 652
f 655 643 645
f 653 643 655
f 656 644 642
f 656 642 654
f 657 645 647
f 655 645 657
f 658 646 644
f 658 644 656
f 659 647 649
f 657 647 659
f 660 650 651
f 661 651 653
f 660 651 661
f 662 648 646
f 662 646 658
f 663 649 648
f 659 649 663
f 664 652 650
f 664 650 660
f 665 653 655
f 661 653 665
f 663 648 662
f 666 654 652
f 666 652 664
f 667 655 657
f 665 655 667
f 668 656 654
f 668 654 666
f 669 657 659
f 667 657 669
f 670 658 656
f 670 656 668
f 671 659 663
f 669 659 671
f 672 660 661
f 673 661 665
f 672 661 673
f 674 664 660
f 674 660 672
f 675 665 667
f 673 665 675
f 676 662 658
f 676 658 670
f 677 663 662
f 671 663 677
f 677 662 676
f 678 666 664
f 678 664 674
f 679 667 669
f 675 667 679
f 680 668 666
f 680 666 678
f 681 669 671
f 679 669 681
f 682 672 673
f 683 673 675
f 682 673 683
f 684 670 668
f 684 668 680
f 685 674 672
f 685 672 682
f 686 671 677
f 681 671 686
f 687 675 679
f 683 675 687
f 688 676 670
f 688 670 684
f 689 678 674
f 689 674 685
f 690 677 676
f 686 677 690
f 690 676 688
f 691 679 681
f 687 679 691
f 692 680 678
f 692 678 689
f 693 681 686
f 691 681 693
f 694 682 683
f 695 683 687
f 694 683 695
f 696 685 682
f 696 682 694
f 697 684 680
f 697 680 692
f 698 687 691
f 695 687 698
f 699 686 690
f 693 686 699
f 700 689 685
f 700 685 696
f 701 688 684
f 701 684 697
f 702 690 688
f 699 690 702
f 703 691 693
f 698 691 703
f 702 688 701
f 704 692 689
f 704 689 700
f 705 693 699
f 703 693 705
f 706 694 695
f 707 695 698
f 706 695 707
f 708 696 694
f 708 694 706
f 709 697 692
f 709 692 704
f 710 698 703
f 707 698 710
f 711 699 702
f 705 699 711
f 712 700 696
f 712 696 708
f 713 701 697
f 713 697 709
f 714 703 705
f 710 703 714
f 715 702 701
f 711 702 715
f 715 701 713
f 716 704 700
f 716 700 712
f 717 705 711
f 714 705 717
f 718 709 704
f 718 704 716
f 719 711 715
f 717 711 719
f 720 713 709
f 720 709 718
f 721 715 713
f 719 715 721
f 721 713 720
f 722 723 724
f 725 724 726
f 722 724 725
f 727 728 723
f 727 723 722
f 729 730 728
f 729 728 727
f 731 732 730
f 731 730 729
f 733 734 732
f 733 732 731
f 735 736 734
f 735 734 733
f 737 726 738
f 725 726 737
f 739 738 740
f 737 738 739
f 741 740 742
f 739 740 741
f 743 742 744
f 741 742 743
f 745 744 736
f 743 744 745
f 745 736 735
f 746 727 722
f 747 722 725
f 746 722 747
f 748 729 727
f 748 727 746
f 749 731 729
f 749 729 748
f 750 733 731
f 750 731 749
f 751 725 737
f 747 725 751
f 752 735 733
f 752 733 750
f 753 737 739
f 751 737 753
f 754 746 747
f 755 748 746
f 755 746 754
f 756 745 735
f 756 735 752
f 757 739 741
f 753 739 757
f 758 747 751
f 754 747 758
f 759 749 748
f 759 748 755
f 760 741 743
f 757 741 760
f 761 743 745
f 760 743 761
f 761 745 756
f 762 750 749
f 762 749 759
f 763 751 753
f 758 751 763
f 764 752 750
f 764 750 762
f 765 753 757
f 763 753 765
f 766 754 758
f 767 758 763
f 766 758 767
f 768 755 754
f 768 754 766
f 769 759 755
f 769 755 768
f 770 756 752
f 770 752 764
f 771 757 760
f 765 757 771
f 772 763 765
f 767 763 772
f 773 762 759
f 773 759 769
f 774 766 767
f 775 768 766
f 775 766 774
f 776 760 761
f 771 760 776
f 777 761 756
f 776 761 777
f 777 756 770
f 778 765 771
f 772 765 778
f 779 767 772
f 774 767 779
f 780 769 768
f 780 768 775
f 781 764 762
f 781 762 773
f 782 771 776
f 778 771 782
f 783 770 764
f 783 764 781
f 779 772 784
f 784 772 778
f 785 773 769
f 785 769 780
f 786 774 779
f 787 779 784
f 786 779 787
f 788 775 774
f 788 774 786
f 789 780 775
f 789 775 788
f 790 776 777
f 782 776 790
f 791 777 770
f 790 777 791
f 791 770 783
f 784 778 792
f 792 778 782
f 793 781 773
f 793 773 785
f 787 784 794
f 794 784 792
f 795 785 780
f 795 780 789
f 796 786 787
f 797 788 786
f 797 786 796
f 792 782 798
f 798 782 790
f 799 787 794
f 796 787 799
f 800 789 788
f 800 788 797
f 801 783 781
f 801 781 793
f 794 792 802
f 802 792 798
f 803 790 791
f 798 790 803
f 804 791 783
f 804 783 801
f 805 793 785
f 805 785 795
f 799 794 806
f 806 794 802
f 807 796 799
f 808 797 796
f 808 796 807
f 803 791 804
f 809 795 789
f 809 789 800
f 810 799 806
f 807 799 810
f 811 800 797
f 811 797 808
f 802 798 812
f 812 798 803
f 813 801 793
f 813 793 805
f 806 802 814
f 814 802 812
f 810 806 815
f 815 806 814
f 816 803 804
f 812 803 816
f 817 804 801
f 817 801 813
f 818 805 795
f 818 795 809
f 819 809 800
f 819 800 811
f 820 807 810
f 821 810 815
f 820 810 821
f 822 808 807
f 822 807 820
f 816 804 817
f 823 811 808
f 823 808 822
f 814 812 824
f 824 812 816
f 825 813 805
f 825 805 818
f 815 814 826
f 826 814 824
f 827 818 809
f 827 809 819
f 821 815 828
f 828 815 826
f 829 820 821
f 830 822 820
f 830 820 829
f 831 816 817
f 824 816 831
f 832 819 811
f 832 811 823
f 833 821 828
f 829 821 833
f 834 817 813
f 834 813 825
f 835 823 822
f 835 822 830
f 831 817 834
f 826 824 836
f 836 824 831
f 828 826 837
f 837 826 836
f 838 825 818
f 838 818 827
f 833 828 839
f 839 828 837
f 840 827 819
f 840 819 832
f 841 832 823
f 841 823 835
f 842 829 833
f 843 830 829
f 843 829 842
f 844 831 834
f 836 831 844
f 845 834 825
f 845 825 838
f 846 833 839
f 842 833 846
f 847 835 830
f 847 830 843
f 844 834 845
f 837 836 848
f 848 836 844
f 849 838 827
f 849 827 840
f 839 837 850
f 850 837 848
f 846 839 851
f 851 839 850
f 852 840 832
f 852 832 841
f 853 841 835
f 853 835 847
f 854 843 842
f 855 842 846
f 854 842 855
f 856 844 845
f 848 844 856
f 857 847 843
f 857 843 854
f 858 846 851
f 855 846 858
f 859 845 838
f 859 838 849
f 856 845 859
f 850 848 860
f 860 848 856
f 851 850 861
f 861 850 860
f 862 849 840
f 862 840 852
f 858 851 863
f 863 851 861
f 864 852 841
f 864 841 853
f 865 853 847
f 865 847 857
f 866 856 859
f 860 856 866
f 867 859 849
f 867 849 862
f 866 859 867
f 861 860 868
f 868 860 866
f 869 862 852
f 869 852 864
f 863 861 870
f 870 861 868
f 871 864 853
f 871 853 865
f 872 866 867
f 868 866 872
f 873 867 862
f 873 862 869
f 872 867 873
f 870 868 874
f 874 868 872
f 875 869 864
f 875 864 871
f 876 872 873
f 874 872 876
f 877 873 869
f 877 869 875
f 876 873 877
f 878 879 880
f 880 881 882
f 880 879 881
f 878 883 879
f 884 883 878
f 882 885 886
f 882 881 885
f 886 887 888
f 886 885 887
f 888 889 890
f 888 887 889
f 883 891 879
f 879 892 881
f 879 891 892
f 883 893 891
f 894 893 883
f 884 894 883
f 881 895 885
f 881 892 895
f 885 896 887
f 885 895 896
f 890 897 898
f 890 889 897
f 898 899 900
f 898 897 899
f 887 901 889
f 887 896 901
f 900 899 902
f 900 902 903
f 893 904 891
f 905 906 893
f 894 905 893
f 893 906 904
f 891 907 892
f 891 904 907
f 889 908 897
f 889 901 908
f 892 909 895
f 892 907 909
f 905 910 906
f 911 910 905
f 912 905 894
f 912 911 905
f 897 913 899
f 899 913 914
f 899 914 902
f 897 908 913
f 895 915 896
f 895 909 915
f 896 916 901
f 896 915 916
f 901 917 908
f 901 916 917
f 913 918 914
f 914 918 919
f 902 914 920
f 914 919 920
f 908 921 913
f 913 921 918
f 908 917 921
f 906 922 904
f 904 923 907
f 904 922 923
f 910 924 906
f 906 924 922
f 907 925 909
f 907 923 925
f 910 926 924
f 927 926 910
f 911 927 910
f 909 928 915
f 909 925 928
f 915 929 916
f 915 928 929
f 916 930 917
f 916 929 930
f 921 931 918
f 918 931 932
f 918 932 919
f 917 933 921
f 917 930 933
f 921 933 931
f 924 934 922
f 922 935 923
f 922 934 935
f 926 936 924
f 924 936 934
f 926 937 936
f 938 937 926
f 927 938 926
f 923 939 925
f 923 935 939
f 925 940 928
f 925 939 940
f 928 941 929
f 928 940 941
f 933 942 931
f 931 942 943
f 931 943 932
f 929 944 930
f 929 941 944
f 930 945 933
f 930 944 945
f 933 945 942
f 936 946 934
f 934 947 935
f 934 946 947
f 936 948 946
f 937 948 936
f 935 949 939
f 935 947 949
f 939 950 940
f 939 949 950
f 940 951 941
f 940 950 951
f 941 952 944
f 941 951 952
f 944 953 945
f 944 952 953
f 945 953 954
f 945 954 942
f 948 955 946
f 946 956 947
f 946 955 956
f 948 957 955
f 958 957 948
f 937 958 948
f 947 959 949
f 947 956 959
f 949 960 950
f 949 959 960
f 950 961 951
f 950 960 961
f 951 962 952
f 951 961 962
f 952 963 953
f 952 962 963
f 953 963 964
f 953 964 954
f 957 965 955
f 955 966 956
f 955 965 966
f 957 967 965
f 968 967 957
f 958 968 957
f 956 969 959
f 956 966 969
f 959 970 960
f 959 969 970
f 960 971 961
f 960 970 971
f 961 972 962
f 961 971 972
f 962 973 963
f 962 972 973
f 963 973 974
f 963 974 964
f 965 975 966
f 965 976 975
f 967 976 965
f 966 977 969
f 966 975 977
f 969 978 970
f 969 977 978
f 970 979 971
f 970 978 979
f 971 980 972
f 971 979 980
f 972 980 981
f 972 981 973
f 976 982 975
f 976 983 982
f 984 983 976
f 967 984 976
f 975 985 977
f 975 982 985
f 977 986 978
f 977 985 986
f 978 987 979
f 978 986 987
f 979 988 980
f 979 987 988
f 980 988 989
f 980 989 981
f 983 990 982
f 983 991 990
f 992 991 983
f 984 992 983
f 982 993 985
f 982 990 993
f 985 994 986
f 985 993 994
f 986 995 987
f 986 994 995
f 987 996 988
f 987 995 996
f 988 996 997
f 988 997 989
f 991 998 990
f 991 999 998
f 1000 999 991
f 992 1000 991
f 990 1001 993
f 990 998 1001
f 993 1002 994
f 993 1001 1002
f 994 1003 995
f 994 1002 1003
f 995 1004 996
f 995 1003 1004
f 996 1004 1005
f 996 1005 997
f 999 1006 998
f 999 1007 1006
f 1008 1007 999
f 1000 1008 999
f 998 1009 1001
f 998 1006 1009
f 1001 1010 1002
f 1001 1009 1010
f 1002 1011 1003
f 1002 1010 1011
f 1003 1012 1004
f 1003 1011 1012
f 1004 1012 1013
f 1004 1013 1005
f 1007 1014 1006
f 1007 1015 1014
f 1016 1015 1007
f 1008 1016 1007
f 1006 1017 1009
f 1006 1014 1017
f 1009 1018 1010
f 1009 1017 1018
f 1010 1019 1011
f 1010 1018 1019
f 1011 1020 1012
f 1011 1019 1020
f 1012 1020 1021
f 1012 1021 1013
f 1022 1023 1015
f 1016 1022 1015
f 1015 1024 1014
f 1015 1023 1024
f 1022 1025 1023
f 1026 1025 1022
f 1027 1022 1016
f 1027 1026 1022
f 1014 1028 1017
f 1014 1024 1028
f 1017 1029 1018
f 1017 1028 1029
f 1018 1030 1019
f 1018 1029 1030
f 1019 1031 1020
f 1019 1030 1031
f 1020 1032 1021
f 1020 1031 1032
f 1021 1032 1033
f 1021 1033 1034
f 1013 1021 1034
f 1025 1035 1023
f 1023 1036 1024
f 1023 1035 1036
f 1037 1038 1025
f 1026 1037 1025
f 1025 1038 1035
f 1024 1039 1028
f 1024 1036 1039
f 1037 1040 1038
f 1041 1040 1037
f 1042 1041 1037
f 1042 1037 1026
f 1028 1043 1029
f 1028 1039 1043
f 1029 1044 1030
f 1029 1043 1044
f 1030 1045 1031
f 1030 1044 1045
f 1032 1046 1033
f 1033 1046 1047
f 1033 1047 1048
f 1034 1033 1048
f 1031 1049 1032
f 1031 1045 1049
f 1032 1049 1046
f 1038 1050 1035
f 1035 1051 1036
f 1035 1050 1051
f 1040 1052 1038
f 1038 1052 1050
f 1036 1053 1039
f 1036 1051 1053
f 1054 1055 1040
f 1041 1054 1040
f 1040 1055 1052
f 1039 1056 1043
f 1039 1053 1056
f 1047 1057 1054
f 1048 1047 1054
f 1054 1057 1055
f 1048 1054 1041
f 1043 1058 1044
f 1043 1056 1058
f 1046 1059 1047
f 1047 1059 1057
f 1044 1060 1045
f 1044 1058 1060
f 1049 1061 1046
f 1046 1061 1059
f 1045 1062 1049
f 1045 1060 1062
f 1049 1062 1061
f 1052 1063 1050
f 1050 1064 1051
f 1050 1063 1064
f 1055 1065 1052
f 1052 1065 1063
f 1051 1066 1053
f 1051 1064 1066
f 1057 1067 1055
f 1055 1067 1065
f 1053 1068 1056
f 1053 1066 1068
f 1059 1069 1057
f 1057 1069 1067
f 1056 1070 1058
f 1056 1068 1070
f 1061 1071 1059
f 1059 1071 1069
f 1058 1072 1060
f 1058 1070 1072
f 1062 1073 1061
f 1061 1073 1071
f 1060 1074 1062
f 1060 1072 1074
f 1062 1074 1073
f 1065 1075 1063
f 1063 1076 1064
f 1063 1075 1076
f 1067 1077 1065
f 1065 1077 1075
f 1064 1078 1066
f 1064 1076 1078
f 1069 1079 1067
f 1067 1079 1077
f 1066 1080 1068
f 1066 1078 1080
f 1071 1081 1069
f 1069 1081 1079
f 1068 1082 1070
f 1068 1080 1082
f 1073 1083 1071
f 1071 1083 1081
f 1070 1084 1072
f 1070 1082 1084
f 1074 1085 1073
f 1073 1085 1083
f 1072 1086 1074
f 1072 1084 1086
f 1074 1086 1085
f 1077 1087 1075
f 1075 1088 1076
f 1075 1087 1088
f 1079 1089 1077
f 1077 1089 1087
f 1076 1090 1078
f 1076 1088 1090
f 1081 1091 1079
f 1079 1091 1089
f 1078 1092 1080
f 1078 1090 1092
f 1083 1093 1081
f 1081 1093 1091
f 1080 1094 1082
f 1080 1092 1094
f 1085 1095 1083
f 1083 1095 1093
f 1082 1096 1084
f 1082 1094 1096
f 1086 1097 1085
f 1085 1097 1095
f 1084 1098 1086
f 1084 1096 1098
f 1086 1098 1097
f 1089 1099 1087
f 1087 1100 1088
f 1087 1099 1100
f 1091 1101 1089
f 1089 1101 1099
f 1088 1102 1090
f 1088 1100 1102
f 1093 1103 1091
f 1091 1103 1101
f 1090 1104 1092
f 1090 1102 1104
f 1095 1105 1093
f 1093 1105 1103
f 1092 1106 1094
f 1092 1104 1106
f 1097 1107 1095
f 1095 1107 1105
f 1094 1108 1096
f 1094 1106 1108
f 1098 1109 1097
f 1097 1109 1107
f 1096 1110 1098
f 1096 1108 1110
f 1098 1110 1109
f 1101 1111 1099
f 1099 1112 1100
f 1099 1111 1112
f 1103 1113 1101
f 1101 1113 1111
f 1100 1114 1102
f 1100 1112 1114
f 1105 1115 1103
f 1103 1115 1113
f 1102 1116 1104
f 1102 1114 1116
f 1107 1117 1105
f 1105 1117 1115
f 1104 1118 1106
f 1104 1116 1118
f 1109 1119 1107
f 1107 1119 1117
f 1106 1120 1108
f 1106 1118 1120
f 1110 1121 1109
f 1109 1121 1119
f 1108 1122 1110
f 1108 1120 1122
f 1110 1122 1121
f 1113 1123 1111
f 1111 1123 1112
f 1115 1123 1113
f 1112 1123 1114
f 1117 1123 1115
f 1114 1123 1116
f 1119 1123 1117
f 1116 1123 1118
f 1121 1123 1119
f 1118 1123 1120
f 1122 1123 1121
f 1120 1123 1122
f 1124 894 884
f 1124 912 894
f 903 902 1125
f 902 920 1125
f 938 1126 937
f 1126 958 937
f 942 1127 943
f 942 954 1127
f 968 1128 967
f 1128 984 967
f 973 1129 974
f 973 981 1129
f 1130 1048 1041
f 1130 1041 1042
f 1034 1048 1130
f 1131 912 1124
f 1131 1125 912
f 903 1125 1131
f 1125 911 912
f 1125 920 911
f 920 927 911
f 920 919 927
f 919 938 927
f 919 932 938
f 932 1126 938
f 932 943 1126
f 943 1132 1126
f 1126 1132 958
f 943 1127 1132
f 1132 968 958
f 1127 1133 1132
f 1132 1133 968
f 954 1134 1127
f 1127 1134 1133
f 954 964 1134
f 1133 1128 968
f 1134 1135 1133
f 1133 1135 1128
f 964 1136 1134
f 1134 1136 1135
f 964 974 1136
f 1135 1137 1128
f 1128 1137 984
f 1136 1138 1135
f 1135 1138 1137
f 974 1139 1136
f 1136 1139 1138
f 974 1129 1139
f 1137 992 984
f 1138 1140 1137
f 1137 1140 992
f 1139 1141 1138
f 1138 1141 1140
f 1129 1142 1139
f 1139 1142 1141
f 981 1143 1129
f 1129 1143 1142
f 981 989 1143
f 1140 1000 992
f 1141 1144 1140
f 1140 1144 1000
f 1142 1145 1141
f 1141 1145 1144
f 1143 1146 1142
f 1142 1146 1145
f 989 1147 1143
f 1143 1147 1146
f 989 997 1147
f 1144 1008 1000
f 1145 1148 1144
f 1144 1148 1008
f 1146 1149 1145
f 1145 1149 1148
f 1147 1150 1146
f 1146 1150 1149
f 997 1151 1147
f 1147 1151 1150
f 997 1005 1151
f 1148 1016 1008
f 1149 1027 1148
f 1148 1027 1016
f 1150 1152 1149
f 1149 1152 1027
f 1151 1153 1150
f 1150 1153 1152
f 1005 1154 1151
f 1151 1154 1153
f 1005 1013 1154
f 1152 1026 1027
f 1153 1042 1152
f 1152 1042 1026
f 1154 1130 1153
f 1153 1130 1042
f 1013 1034 1154
f 1154 1034 1130
