# 
# Wavefront OBJ file
# Created with Kaydara FBX
# 
mtllib c:\users\tjvan\onedrive\documenten\fontys\minor\nx\.mtlmodels\perforating_branches__cockett's_veins_.r.obj

g Perforating_branches__Cockett_s_veins__r
v -0.079996 0.136862 -0.056174
v -0.080032 0.137199 -0.056846
v -0.080014 0.137370 -0.056752
v -0.079923 0.137757 -0.057412
v -0.079912 0.136703 -0.056260
v -0.079950 0.137041 -0.056929
v -0.079940 0.137597 -0.057518
v -0.079978 0.137044 -0.056093
v -0.079900 0.137509 -0.056673
v -0.079815 0.137879 -0.057309
v -0.079836 0.136584 -0.055515
v -0.079753 0.136423 -0.055606
v -0.079865 0.137198 -0.056040
v -0.079822 0.136773 -0.055446
v -0.079859 0.137441 -0.057599
v -0.079751 0.136609 -0.056329
v -0.079790 0.136940 -0.056979
v -0.079704 0.138207 -0.058060
v -0.079715 0.138059 -0.058178
v -0.079604 0.138312 -0.057937
v -0.079594 0.136336 -0.055695
v -0.079722 0.137579 -0.056630
v -0.079644 0.137930 -0.057237
v -0.079713 0.136942 -0.055418
v -0.079686 0.137285 -0.056028
v -0.079703 0.137333 -0.057634
v -0.079636 0.137907 -0.058258
v -0.079561 0.136358 -0.054883
v -0.079478 0.136198 -0.054981
v -0.079551 0.136555 -0.054824
v -0.079444 0.138345 -0.057841
v -0.079555 0.136605 -0.056361
v -0.079595 0.136921 -0.056983
v -0.079326 0.136116 -0.055091
v -0.079402 0.136344 -0.055758
v -0.079540 0.137044 -0.055439
v -0.079452 0.136735 -0.054820
v -0.079487 0.137791 -0.058281
v -0.079515 0.137300 -0.057613
v -0.079527 0.137560 -0.056634
v -0.079455 0.137897 -0.057216
v -0.079490 0.137281 -0.056061
v -0.079265 0.138297 -0.057799
v -0.079144 0.136135 -0.055185
v -0.079376 0.136691 -0.056349
v -0.079417 0.136991 -0.056940
v -0.079177 0.136182 -0.054291
v -0.079097 0.136021 -0.054397
v -0.079173 0.136384 -0.054240
v -0.079229 0.136446 -0.055779
v -0.079348 0.137052 -0.055502
v -0.079289 0.136849 -0.054872
v -0.079367 0.137459 -0.056684
v -0.079299 0.137788 -0.057250
v -0.079308 0.137744 -0.058238
v -0.079343 0.137351 -0.057541
v -0.078955 0.135944 -0.054528
v -0.079328 0.137186 -0.056129
v -0.079085 0.136573 -0.054257
v -0.079116 0.138182 -0.057821
v -0.079263 0.136846 -0.056296
v -0.079304 0.137130 -0.056861
v -0.078982 0.136250 -0.055236
v -0.079120 0.136615 -0.055751
v -0.079286 0.137301 -0.056767
v -0.079219 0.137633 -0.057332
v -0.079189 0.136964 -0.055591
v -0.079108 0.136868 -0.054966
v -0.079235 0.137473 -0.057438
v -0.079147 0.137777 -0.058143
v -0.078789 0.135971 -0.054651
v -0.079245 0.137027 -0.056215
v -0.078939 0.136698 -0.054337
v -0.079036 0.138030 -0.057902
v -0.079106 0.136804 -0.055682
v -0.078882 0.136429 -0.055232
v -0.079048 0.137882 -0.058019
v -0.078955 0.136786 -0.055076
v -0.078694 0.136049 -0.053752
v -0.078619 0.135887 -0.053866
v -0.078694 0.136256 -0.053706
v -0.078642 0.136096 -0.054731
v -0.078492 0.135813 -0.054017
v -0.078873 0.136626 -0.055174
v -0.078772 0.136725 -0.054459
v -0.078621 0.136451 -0.053739
v -0.078555 0.136284 -0.054748
v -0.078344 0.135847 -0.054165
v -0.078630 0.136648 -0.054591
v -0.078494 0.136584 -0.053844
v -0.078551 0.136486 -0.054696
v -0.078217 0.135980 -0.054270
v -0.078346 0.136617 -0.053992
v -0.078119 0.135954 -0.053275
v -0.078053 0.135791 -0.053398
v -0.078124 0.136164 -0.053232
v -0.078144 0.136175 -0.054304
v -0.077942 0.135719 -0.053568
v -0.078065 0.136365 -0.053279
v -0.078219 0.136543 -0.054144
v -0.078144 0.136381 -0.054258
v -0.077817 0.135757 -0.053738
v -0.077959 0.136503 -0.053404
v -0.077711 0.135895 -0.053864
v -0.077834 0.136541 -0.053575
v -0.077653 0.136096 -0.053911
v -0.077724 0.136469 -0.053744
v -0.077658 0.136307 -0.053867
v -0.077461 0.135889 -0.052872
v -0.077405 0.135725 -0.053003
v -0.077468 0.136103 -0.052829
v -0.077315 0.135655 -0.053189
v -0.077424 0.136308 -0.052886
v -0.077215 0.135696 -0.053378
v -0.077341 0.136451 -0.053028
v -0.077132 0.135838 -0.053520
v -0.077242 0.136492 -0.053217
v -0.077088 0.136044 -0.053577
v -0.077151 0.136421 -0.053402
v -0.077095 0.136257 -0.053534
v -0.076728 0.135851 -0.052551
v -0.076684 0.135685 -0.052690
v -0.076736 0.136067 -0.052508
v -0.076706 0.136276 -0.052572
v -0.076617 0.135614 -0.052889
v -0.076646 0.136422 -0.052727
v -0.076544 0.135658 -0.053092
v -0.076573 0.136466 -0.052931
v -0.076484 0.135804 -0.053247
v -0.076506 0.136395 -0.053129
v -0.076455 0.136013 -0.053312
v -0.076462 0.136229 -0.053268
v -0.075927 0.135832 -0.052323
v -0.075898 0.135664 -0.052468
v -0.075933 0.136051 -0.052278
v -0.075916 0.136263 -0.052347
v -0.075856 0.135593 -0.052676
v -0.075881 0.136412 -0.052511
v -0.075810 0.135638 -0.052891
v -0.075835 0.136457 -0.052726
v -0.075774 0.135786 -0.053055
v -0.075793 0.136386 -0.052934
v -0.075758 0.135999 -0.053124
v -0.075764 0.136218 -0.053080
v -0.075089 0.135827 -0.052198
v -0.075065 0.135657 -0.052347
v -0.075099 0.136049 -0.052154
v -0.075092 0.136265 -0.052226
v -0.075033 0.135585 -0.052560
v -0.075069 0.136415 -0.052394
v -0.075002 0.135630 -0.052780
v -0.075038 0.136460 -0.052615
v -0.074979 0.135781 -0.052949
v -0.075006 0.136388 -0.052828
v -0.074972 0.135996 -0.053021
v -0.074982 0.136218 -0.052976
v -0.074330 0.135849 -0.052080
v -0.074288 0.135678 -0.052228
v -0.074352 0.136074 -0.052038
v -0.074350 0.136292 -0.052111
v -0.074239 0.135605 -0.052441
v -0.074323 0.136445 -0.052281
v -0.074195 0.135652 -0.052662
v -0.074279 0.136492 -0.052502
v -0.074168 0.135804 -0.052832
v -0.074230 0.136419 -0.052715
v -0.074166 0.136022 -0.052906
v -0.074188 0.136248 -0.052863
v -0.073614 0.136141 -0.051828
v -0.073576 0.135914 -0.051867
v -0.073615 0.136361 -0.051903
v -0.073510 0.135742 -0.052010
v -0.073578 0.136517 -0.052073
v -0.073435 0.135671 -0.052219
v -0.073513 0.136566 -0.052292
v -0.073370 0.135719 -0.052438
v -0.073437 0.136495 -0.052501
v -0.073332 0.135875 -0.052608
v -0.073372 0.136323 -0.052644
v -0.073333 0.136096 -0.052683
v -0.072860 0.136246 -0.051540
v -0.072809 0.136018 -0.051575
v -0.072864 0.136469 -0.051618
v -0.072724 0.135846 -0.051714
v -0.072821 0.136628 -0.051788
v -0.072630 0.135777 -0.051919
v -0.072741 0.136679 -0.052005
v -0.072550 0.135828 -0.052136
v -0.072646 0.136610 -0.052210
v -0.072507 0.135986 -0.052306
v -0.072562 0.136438 -0.052348
v -0.072511 0.136210 -0.052384
v -0.072096 0.136388 -0.051196
v -0.072034 0.136159 -0.051228
v -0.072105 0.136613 -0.051277
v -0.072059 0.136774 -0.051448
v -0.071936 0.135987 -0.051363
v -0.071970 0.136828 -0.051664
v -0.071828 0.135919 -0.051565
v -0.071862 0.136760 -0.051867
v -0.071739 0.135972 -0.051781
v -0.071764 0.136588 -0.052002
v -0.071693 0.136133 -0.051952
v -0.071702 0.136359 -0.052033
v -0.071331 0.136563 -0.050818
v -0.071260 0.136333 -0.050846
v -0.071345 0.136790 -0.050902
v -0.071299 0.136953 -0.051076
v -0.071152 0.136161 -0.050978
v -0.071206 0.137008 -0.051293
v -0.071035 0.136093 -0.051180
v -0.071089 0.136940 -0.051495
v -0.070941 0.136148 -0.051397
v -0.070981 0.136768 -0.051627
v -0.070896 0.136311 -0.051571
v -0.070910 0.136538 -0.051655
v -0.070569 0.136768 -0.050427
v -0.070590 0.136996 -0.050516
v -0.070491 0.136536 -0.050452
v -0.070548 0.137160 -0.050694
v -0.070375 0.136364 -0.050584
v -0.070454 0.137215 -0.050914
v -0.070255 0.136296 -0.050787
v -0.070333 0.137148 -0.051117
v -0.070160 0.136352 -0.051007
v -0.070218 0.136975 -0.051249
v -0.070118 0.136515 -0.051185
v -0.070140 0.136744 -0.051274
v -0.069817 0.136999 -0.050048
v -0.069847 0.137227 -0.050142
v -0.069731 0.136766 -0.050070
v -0.069812 0.137391 -0.050326
v -0.069612 0.136592 -0.050202
v -0.069722 0.137446 -0.050552
v -0.069491 0.136523 -0.050408
v -0.069601 0.137377 -0.050758
v -0.069401 0.136578 -0.050634
v -0.069482 0.137202 -0.050890
v -0.069367 0.136741 -0.050818
v -0.069396 0.136970 -0.050912
v -0.069078 0.137253 -0.049703
v -0.069118 0.137481 -0.049803
v -0.068986 0.137020 -0.049723
v -0.069095 0.137643 -0.049995
v -0.068865 0.136843 -0.049856
v -0.069015 0.137694 -0.050228
v -0.068750 0.136771 -0.050068
v -0.068900 0.137622 -0.050440
v -0.068669 0.136823 -0.050302
v -0.068779 0.137446 -0.050574
v -0.068646 0.136984 -0.050494
v -0.068687 0.137212 -0.050593
v -0.068409 0.137755 -0.049522
v -0.068355 0.137529 -0.049416
v -0.068404 0.137911 -0.049723
v -0.068255 0.137295 -0.049434
v -0.068341 0.137956 -0.049966
v -0.068138 0.137115 -0.049571
v -0.068237 0.137879 -0.050185
v -0.068033 0.137037 -0.049790
v -0.068119 0.137698 -0.050322
v -0.067970 0.137082 -0.050033
v -0.068020 0.137464 -0.050340
v -0.067965 0.137238 -0.050234
v -0.067720 0.138046 -0.049324
v -0.067647 0.137825 -0.049212
v -0.067742 0.138193 -0.049535
v -0.067541 0.137591 -0.049229
v -0.067706 0.138227 -0.049788
v -0.067431 0.137404 -0.049370
v -0.067621 0.138140 -0.050016
v -0.067347 0.137317 -0.049597
v -0.067512 0.137953 -0.050157
v -0.067311 0.137351 -0.049851
v -0.067406 0.137719 -0.050174
v -0.067332 0.137498 -0.050062
v -0.067053 0.138354 -0.049237
v -0.067112 0.138486 -0.049455
v -0.066954 0.138142 -0.049121
v -0.067116 0.138502 -0.049716
v -0.066842 0.137907 -0.049137
v -0.067063 0.138399 -0.049950
v -0.066747 0.137711 -0.049282
v -0.066968 0.138203 -0.050094
v -0.066694 0.137607 -0.049516
v -0.066855 0.137968 -0.050110
v -0.066697 0.137624 -0.049777
v -0.066756 0.137756 -0.049994
v -0.066523 0.138785 -0.049508
v -0.066423 0.138671 -0.049292
v -0.066570 0.138780 -0.049768
v -0.066553 0.138657 -0.050002
v -0.066298 0.138469 -0.049176
v -0.066476 0.138450 -0.050147
v -0.066181 0.138232 -0.049193
v -0.066359 0.138213 -0.050163
v -0.066104 0.138025 -0.049338
v -0.066086 0.137902 -0.049571
v -0.066234 0.138011 -0.050048
v -0.066134 0.137897 -0.049831
v -0.065897 0.139129 -0.049969
v -0.065907 0.138993 -0.050195
v -0.065820 0.139150 -0.049717
v -0.065694 0.139049 -0.049508
v -0.065844 0.138778 -0.050335
v -0.065554 0.138855 -0.049396
v -0.065728 0.138542 -0.050352
v -0.065438 0.138618 -0.049413
v -0.065588 0.138347 -0.050241
v -0.065376 0.138403 -0.049553
v -0.065462 0.138247 -0.050031
v -0.065385 0.138267 -0.049780
v -0.065138 0.139521 -0.050277
v -0.065163 0.139377 -0.050497
v -0.065043 0.139550 -0.050033
v -0.065111 0.139157 -0.050633
v -0.064904 0.139457 -0.049829
v -0.064997 0.138919 -0.050649
v -0.064757 0.139266 -0.049720
v -0.064850 0.138729 -0.050540
v -0.064643 0.139029 -0.049736
v -0.064711 0.138635 -0.050336
v -0.064591 0.138809 -0.049872
v -0.064616 0.138665 -0.050092
v -0.064316 0.139937 -0.050683
v -0.064354 0.139787 -0.050896
v -0.064208 0.139973 -0.050445
v -0.064311 0.139562 -0.051027
v -0.064058 0.139885 -0.050246
v -0.064200 0.139324 -0.051042
v -0.063908 0.139697 -0.050140
v -0.064049 0.139136 -0.050935
v -0.063796 0.139459 -0.050155
v -0.063900 0.139048 -0.050737
v -0.063754 0.139234 -0.050286
v -0.063791 0.139084 -0.050499
v -0.063499 0.140208 -0.051382
v -0.063450 0.140364 -0.051175
v -0.063465 0.139979 -0.051508
v -0.063330 0.140405 -0.050944
v -0.063357 0.139740 -0.051521
v -0.063173 0.140322 -0.050751
v -0.063203 0.139553 -0.051417
v -0.063019 0.140135 -0.050646
v -0.063046 0.139469 -0.051223
v -0.062911 0.139895 -0.050659
v -0.062926 0.139511 -0.050992
v -0.062877 0.139667 -0.050786
v -0.062617 0.140625 -0.051945
v -0.062557 0.140786 -0.051746
v -0.062591 0.140393 -0.052066
v -0.062427 0.140833 -0.051522
v -0.062487 0.140152 -0.052077
v -0.062263 0.140752 -0.051333
v -0.062332 0.139966 -0.051974
v -0.062108 0.140567 -0.051230
v -0.062167 0.139886 -0.051785
v -0.062003 0.140325 -0.051240
v -0.062038 0.139932 -0.051560
v -0.061978 0.140093 -0.051361
v -0.061725 0.141025 -0.052577
v -0.061655 0.141190 -0.052385
v -0.061709 0.140789 -0.052691
v -0.061515 0.141241 -0.052168
v -0.061609 0.140546 -0.052698
v -0.061344 0.141164 -0.051984
v -0.061453 0.140361 -0.052596
v -0.061188 0.140979 -0.051882
v -0.061282 0.140283 -0.052412
v -0.061089 0.140736 -0.051889
v -0.061143 0.140334 -0.052195
v -0.061072 0.140500 -0.052004
v -0.060843 0.141392 -0.053266
v -0.060760 0.141562 -0.053083
v -0.060836 0.141152 -0.053373
v -0.060611 0.141617 -0.052875
v -0.060741 0.140907 -0.053376
v -0.060434 0.141542 -0.052695
v -0.060585 0.140723 -0.053274
v -0.060278 0.141358 -0.052594
v -0.060408 0.140648 -0.053095
v -0.060183 0.141113 -0.052597
v -0.060258 0.140703 -0.052886
v -0.060176 0.140873 -0.052704
v -0.059986 0.141713 -0.054002
v -0.059990 0.141469 -0.054100
v -0.059891 0.141887 -0.053831
v -0.059731 0.141946 -0.053632
v -0.059901 0.141222 -0.054098
v -0.059549 0.141874 -0.053458
v -0.059745 0.141038 -0.053996
v -0.059392 0.141689 -0.053356
v -0.059562 0.140965 -0.053822
v -0.059304 0.141442 -0.053354
v -0.059402 0.141024 -0.053623
v -0.059308 0.141199 -0.053452
v -0.059173 0.141973 -0.054777
v -0.059189 0.141726 -0.054863
v -0.059064 0.142152 -0.054619
v -0.059108 0.141477 -0.054853
v -0.058892 0.142214 -0.054431
v -0.058953 0.141292 -0.054751
v -0.058703 0.142144 -0.054264
v -0.058764 0.141222 -0.054584
v -0.058548 0.141960 -0.054162
v -0.058592 0.141285 -0.054396
v -0.058467 0.141710 -0.054152
v -0.058483 0.141463 -0.054238
v -0.058420 0.142159 -0.055580
v -0.058451 0.141908 -0.055650
v -0.058296 0.142341 -0.055439
v -0.058379 0.141657 -0.055631
v -0.058111 0.142407 -0.055266
v -0.058225 0.141473 -0.055528
v -0.057915 0.142338 -0.055106
v -0.058029 0.141404 -0.055368
v -0.057761 0.142154 -0.055003
v -0.057844 0.141470 -0.055195
v -0.057690 0.141903 -0.054984
v -0.057720 0.141652 -0.055054
v -0.057746 0.142256 -0.056401
v -0.057793 0.142003 -0.056450
v -0.057604 0.142441 -0.056283
v -0.057732 0.141751 -0.056418
v -0.057404 0.142508 -0.056128
v -0.057580 0.141567 -0.056313
v -0.057201 0.142441 -0.055978
v -0.057377 0.141499 -0.056163
v -0.057048 0.142256 -0.055873
v -0.057177 0.141567 -0.056008
v -0.057167 0.142251 -0.057230
v -0.057233 0.141999 -0.057253
v -0.056988 0.142004 -0.055840
v -0.057005 0.142435 -0.057141
v -0.057184 0.141747 -0.057204
v -0.057035 0.141752 -0.055890
v -0.056790 0.142503 -0.057009
v -0.057034 0.141563 -0.057095
v -0.056579 0.142435 -0.056871
v -0.056823 0.141495 -0.056957
v -0.056429 0.142251 -0.056763
v -0.056607 0.141563 -0.056826
v -0.056380 0.141999 -0.056713
v -0.056445 0.141747 -0.056736
v -0.071916 0.112100 -0.057477
v -0.073557 0.112328 -0.059104
v -0.073588 0.112510 -0.059046
v -0.071949 0.112287 -0.057420
v -0.073540 0.112697 -0.059052
v -0.071828 0.111971 -0.057599
v -0.073457 0.112200 -0.059209
v -0.071918 0.112481 -0.057442
v -0.073428 0.112840 -0.059119
v -0.071708 0.111934 -0.057752
v -0.073315 0.112160 -0.059333
v -0.071830 0.112631 -0.057538
v -0.073282 0.112899 -0.059229
v -0.071589 0.111999 -0.057896
v -0.073168 0.112220 -0.059444
v -0.071711 0.112696 -0.057682
v -0.073139 0.112860 -0.059354
v -0.071501 0.112149 -0.057992
v -0.073056 0.112362 -0.059511
v -0.071591 0.112659 -0.057835
v -0.073039 0.112732 -0.059459
v -0.071470 0.112343 -0.058014
v -0.073009 0.112550 -0.059516
v -0.071503 0.112530 -0.057957
v -0.070085 0.112067 -0.056290
v -0.070120 0.112258 -0.056233
v -0.070011 0.111935 -0.056426
v -0.070107 0.112458 -0.056268
v -0.069919 0.111897 -0.056603
v -0.070050 0.112612 -0.056387
v -0.069832 0.111965 -0.056774
v -0.069963 0.112679 -0.056558
v -0.069775 0.112119 -0.056893
v -0.069871 0.112642 -0.056735
v -0.069762 0.112318 -0.056928
v -0.069797 0.112510 -0.056870
v -0.068159 0.112388 -0.055431
v -0.068121 0.112192 -0.055490
v -0.068164 0.112591 -0.055475
v -0.068062 0.112056 -0.055636
v -0.068137 0.112747 -0.055610
v -0.067998 0.112016 -0.055829
v -0.068084 0.112814 -0.055800
v -0.067945 0.112083 -0.056019
v -0.068019 0.112774 -0.055993
v -0.067918 0.112238 -0.056154
v -0.067961 0.112637 -0.056139
v -0.067923 0.112442 -0.056198
v -0.066121 0.112641 -0.054956
v -0.066082 0.112441 -0.055016
v -0.066143 0.112847 -0.055005
v -0.066142 0.113004 -0.055149
v -0.066037 0.112300 -0.055168
v -0.066119 0.113068 -0.055351
v -0.065997 0.112255 -0.055373
v -0.066079 0.113024 -0.055555
v -0.065974 0.112320 -0.055574
v -0.066034 0.112883 -0.055708
v -0.065973 0.112476 -0.055719
v -0.065995 0.112682 -0.055768
v -0.064093 0.113191 -0.054797
v -0.064059 0.112982 -0.054745
v -0.064114 0.113347 -0.054947
v -0.064019 0.112777 -0.054806
v -0.064115 0.113409 -0.055155
v -0.063985 0.112631 -0.054964
v -0.064096 0.113360 -0.055367
v -0.063966 0.112582 -0.055175
v -0.064063 0.113214 -0.055524
v -0.063967 0.112644 -0.055384
v -0.064023 0.113009 -0.055585
v -0.063988 0.112800 -0.055534
v -0.062102 0.113744 -0.054944
v -0.062065 0.113587 -0.054790
v -0.062122 0.113804 -0.055157
v -0.062020 0.113376 -0.054738
v -0.062119 0.113751 -0.055373
v -0.061980 0.113166 -0.054800
v -0.062095 0.113599 -0.055534
v -0.061956 0.113014 -0.054961
v -0.062055 0.113389 -0.055597
v -0.061953 0.112961 -0.055177
v -0.062010 0.113177 -0.055544
v -0.061973 0.113021 -0.055391
v -0.060187 0.114219 -0.055300
v -0.060197 0.114162 -0.055520
v -0.060153 0.114160 -0.055083
v -0.060180 0.114005 -0.055684
v -0.060104 0.114002 -0.054927
v -0.060053 0.113787 -0.054873
v -0.060140 0.113790 -0.055748
v -0.060014 0.113572 -0.054937
v -0.060089 0.113575 -0.055695
v -0.060040 0.113417 -0.055538
v -0.059997 0.113416 -0.055101
v -0.060007 0.113359 -0.055321
v -0.058376 0.114561 -0.055751
v -0.058365 0.114399 -0.055918
v -0.058358 0.114621 -0.055528
v -0.058315 0.114563 -0.055307
v -0.058259 0.114403 -0.055148
v -0.058328 0.114179 -0.055983
v -0.058206 0.114183 -0.055094
v -0.058274 0.113960 -0.055929
v -0.058168 0.113963 -0.055159
v -0.058219 0.113800 -0.055770
v -0.058176 0.113742 -0.055549
v -0.058157 0.113802 -0.055325
v -0.056705 0.114915 -0.056011
v -0.056699 0.114749 -0.056180
v -0.056682 0.114976 -0.055783
v -0.056636 0.114918 -0.055558
v -0.056665 0.114523 -0.056246
v -0.056580 0.114754 -0.055395
v -0.056613 0.114299 -0.056190
v -0.056528 0.114529 -0.055340
v -0.056557 0.114135 -0.056028
v -0.056494 0.114304 -0.055405
v -0.056511 0.114076 -0.055803
v -0.056488 0.114138 -0.055575
v -0.055225 0.115190 -0.056242
v -0.055222 0.115020 -0.056415
v -0.055204 0.115253 -0.056009
v -0.055164 0.115192 -0.055778
v -0.055196 0.114789 -0.056480
v -0.055116 0.115023 -0.055611
v -0.055153 0.114558 -0.056422
v -0.055073 0.114792 -0.055553
v -0.055105 0.114389 -0.056255
v -0.055046 0.114561 -0.055619
v -0.055065 0.114328 -0.056024
v -0.055044 0.114391 -0.055791
v -0.053964 0.115180 -0.056564
v -0.053953 0.114942 -0.056630
v -0.053966 0.115353 -0.056388
v -0.053958 0.115416 -0.056149
v -0.053942 0.115351 -0.055911
v -0.053922 0.115176 -0.055738
v -0.053935 0.114704 -0.056568
v -0.053904 0.114937 -0.055676
v -0.053915 0.114528 -0.056395
v -0.053899 0.114464 -0.056157
v -0.053892 0.114700 -0.055742
v -0.053891 0.114526 -0.055918
v -0.052943 0.115183 -0.056558
v -0.052961 0.114941 -0.056626
v -0.052947 0.115360 -0.056379
v -0.052973 0.115425 -0.056137
v -0.053013 0.115360 -0.055897
v -0.052997 0.114699 -0.056565
v -0.053057 0.115183 -0.055723
v -0.053041 0.114522 -0.056392
v -0.053093 0.114941 -0.055662
v -0.053082 0.114458 -0.056152
v -0.053107 0.114522 -0.055910
v -0.053112 0.114699 -0.055730
v -0.078537 0.129257 -0.056733
v -0.078579 0.129644 -0.057183
v -0.078550 0.129434 -0.056661
v -0.078566 0.129472 -0.057255
v -0.078497 0.129799 -0.057119
v -0.078556 0.129858 -0.057681
v -0.078476 0.130005 -0.057611
v -0.078422 0.129049 -0.056199
v -0.078431 0.129116 -0.056805
v -0.078317 0.128910 -0.056286
v -0.078467 0.129598 -0.056609
v -0.078435 0.129230 -0.056127
v -0.078543 0.129691 -0.057755
v -0.078462 0.129331 -0.057316
v -0.078510 0.130072 -0.058150
v -0.078498 0.129912 -0.058226
v -0.078441 0.129552 -0.057812
v -0.078433 0.130214 -0.058076
v -0.078470 0.130286 -0.058583
v -0.078395 0.130423 -0.058508
v -0.078342 0.129896 -0.057082
v -0.078325 0.130095 -0.057562
v -0.078457 0.130132 -0.058662
v -0.078398 0.129776 -0.058283
v -0.078261 0.129047 -0.056858
v -0.078294 0.129256 -0.057351
v -0.078355 0.129404 -0.056089
v -0.078311 0.129705 -0.056590
v -0.078286 0.130299 -0.058024
v -0.078360 0.130003 -0.058724
v -0.078187 0.128854 -0.055667
v -0.078088 0.128718 -0.055774
v -0.078149 0.128849 -0.056366
v -0.078201 0.129039 -0.055593
v -0.078278 0.129475 -0.057837
v -0.078251 0.130506 -0.058458
v -0.078239 0.129702 -0.058307
v -0.078201 0.129524 -0.056097
v -0.078127 0.129223 -0.055573
v -0.078157 0.129909 -0.057080
v -0.078144 0.130103 -0.057549
v -0.078204 0.129933 -0.058753
v -0.077931 0.128667 -0.055887
v -0.078122 0.129727 -0.056609
v -0.078109 0.130305 -0.058007
v -0.078108 0.129270 -0.057349
v -0.078072 0.129069 -0.056877
v -0.078097 0.129483 -0.057823
v -0.078079 0.130514 -0.058445
v -0.077963 0.128884 -0.056416
v -0.078062 0.129708 -0.058290
v -0.077805 0.128678 -0.055158
v -0.077819 0.128866 -0.055082
v -0.077985 0.129358 -0.055612
v -0.078015 0.129559 -0.056147
v -0.078032 0.129941 -0.058740
v -0.077718 0.128545 -0.055286
v -0.077758 0.128715 -0.055974
v -0.077980 0.130027 -0.057574
v -0.077989 0.129835 -0.057114
v -0.077950 0.130231 -0.058031
v -0.077756 0.129061 -0.055078
v -0.077952 0.129658 -0.056662
v -0.077915 0.129176 -0.056858
v -0.077954 0.129367 -0.057311
v -0.077923 0.130444 -0.058474
v -0.077581 0.128503 -0.055431
v -0.077810 0.129004 -0.056423
v -0.077946 0.129573 -0.057775
v -0.077916 0.129793 -0.058238
v -0.077889 0.130024 -0.058690
v -0.077812 0.129406 -0.055699
v -0.077848 0.129498 -0.056226
v -0.077634 0.129208 -0.055148
v -0.077879 0.129887 -0.057631
v -0.077885 0.129693 -0.057176
v -0.077851 0.130095 -0.058089
v -0.077615 0.128849 -0.056013
v -0.077872 0.129522 -0.057248
v -0.077833 0.129340 -0.056806
v -0.077866 0.129721 -0.057705
v -0.077846 0.129517 -0.056734
v -0.077826 0.130315 -0.058536
v -0.077431 0.128564 -0.055556
v -0.077729 0.129178 -0.056386
v -0.077838 0.129935 -0.058164
v -0.077813 0.130161 -0.058615
v -0.077256 0.128527 -0.054693
v -0.077185 0.128396 -0.054838
v -0.077270 0.128719 -0.054614
v -0.077541 0.129034 -0.055992
v -0.077743 0.129358 -0.056314
v -0.077655 0.129355 -0.055811
v -0.077484 0.129269 -0.055272
v -0.077308 0.128712 -0.055626
v -0.077221 0.128922 -0.054624
v -0.077556 0.129219 -0.055919
v -0.077074 0.128361 -0.055012
v -0.077347 0.129228 -0.055418
v -0.077124 0.129080 -0.054718
v -0.077246 0.128906 -0.055622
v -0.076954 0.128433 -0.055167
v -0.077260 0.129095 -0.055546
v -0.077004 0.129152 -0.054873
v -0.076857 0.128591 -0.055262
v -0.076894 0.129117 -0.055047
v -0.076809 0.128793 -0.055271
v -0.076526 0.128405 -0.054285
v -0.076538 0.128601 -0.054204
v -0.076471 0.128274 -0.054443
v -0.076822 0.128986 -0.055192
v -0.076503 0.128811 -0.054222
v -0.076387 0.128243 -0.054637
v -0.076432 0.128977 -0.054334
v -0.076298 0.128322 -0.054814
v -0.076343 0.129055 -0.054511
v -0.076226 0.128488 -0.054926
v -0.076259 0.129025 -0.054704
v -0.076192 0.128697 -0.054944
v -0.076204 0.128894 -0.054863
v -0.075594 0.128312 -0.053940
v -0.075605 0.128513 -0.053857
v -0.075554 0.128180 -0.054108
v -0.075583 0.128728 -0.053880
v -0.075495 0.128151 -0.054315
v -0.075534 0.128899 -0.054003
v -0.075432 0.128234 -0.054506
v -0.075472 0.128982 -0.054194
v -0.075383 0.128406 -0.054630
v -0.075412 0.128954 -0.054402
v -0.075361 0.128621 -0.054653
v -0.075372 0.128822 -0.054569
v -0.074438 0.128250 -0.053663
v -0.074447 0.128454 -0.053577
v -0.074410 0.128116 -0.053837
v -0.074435 0.128674 -0.053603
v -0.074371 0.128088 -0.054054
v -0.074405 0.128851 -0.053734
v -0.074330 0.128173 -0.054254
v -0.074364 0.128936 -0.053935
v -0.074300 0.128350 -0.054385
v -0.074325 0.128908 -0.054151
v -0.074288 0.128570 -0.054411
v -0.074297 0.128774 -0.054326
v -0.073059 0.128219 -0.053462
v -0.073035 0.128083 -0.053641
v -0.073065 0.128428 -0.053374
v -0.073051 0.128652 -0.053401
v -0.072999 0.128054 -0.053862
v -0.073022 0.128832 -0.053535
v -0.072961 0.128142 -0.054068
v -0.072984 0.128919 -0.053740
v -0.072932 0.128322 -0.054201
v -0.072948 0.128891 -0.053961
v -0.072918 0.128546 -0.054228
v -0.072924 0.128754 -0.054140
v -0.072112 0.128155 -0.053276
v -0.072078 0.128016 -0.053455
v -0.072112 0.128365 -0.053186
v -0.072078 0.128591 -0.053208
v -0.072021 0.127985 -0.053675
v -0.072021 0.128771 -0.053338
v -0.071955 0.128072 -0.053876
v -0.071955 0.128857 -0.053539
v -0.071897 0.128252 -0.054005
v -0.071897 0.128827 -0.053759
v -0.071864 0.128477 -0.054028
v -0.071864 0.128688 -0.053938
v -0.071306 0.128008 -0.052975
v -0.071261 0.127866 -0.053152
v -0.071301 0.128221 -0.052882
v -0.071178 0.127831 -0.053366
v -0.071247 0.128446 -0.052897
v -0.071079 0.127913 -0.053559
v -0.071158 0.128623 -0.053018
v -0.070991 0.128091 -0.053679
v -0.071060 0.128705 -0.053211
v -0.070937 0.128316 -0.053695
v -0.070977 0.128671 -0.053425
v -0.070932 0.128528 -0.053602
v -0.070532 0.127813 -0.052597
v -0.070482 0.127668 -0.052775
v -0.070525 0.128028 -0.052502
v -0.070388 0.127630 -0.052987
v -0.070463 0.128254 -0.052515
v -0.070276 0.127711 -0.053176
v -0.070362 0.128431 -0.052632
v -0.070175 0.127888 -0.053293
v -0.070250 0.128511 -0.052822
v -0.070113 0.128114 -0.053306
v -0.070157 0.128474 -0.053034
v -0.070106 0.128328 -0.053211
v -0.069721 0.127609 -0.052194
v -0.069672 0.127462 -0.052374
v -0.069717 0.127827 -0.052099
v -0.069584 0.127426 -0.052592
v -0.069661 0.128057 -0.052115
v -0.069479 0.127509 -0.052788
v -0.069568 0.128238 -0.052237
v -0.069386 0.127690 -0.052910
v -0.069463 0.128322 -0.052433
v -0.069330 0.127921 -0.052926
v -0.069375 0.128285 -0.052651
v -0.069326 0.128138 -0.052831
v -0.068808 0.127443 -0.051828
v -0.068768 0.127296 -0.052013
v -0.068811 0.127664 -0.051734
v -0.068700 0.127262 -0.052242
v -0.068775 0.127901 -0.051758
v -0.068624 0.127352 -0.052451
v -0.068710 0.128089 -0.051893
v -0.068558 0.127540 -0.052586
v -0.068633 0.128178 -0.052102
v -0.068522 0.127777 -0.052610
v -0.068565 0.128145 -0.052331
v -0.068525 0.127998 -0.052516
v -0.067737 0.127369 -0.051572
v -0.067711 0.127221 -0.051764
v -0.067750 0.127594 -0.051480
v -0.067677 0.127189 -0.052002
v -0.067744 0.127835 -0.051511
v -0.067644 0.127282 -0.052225
v -0.067722 0.128028 -0.051657
v -0.067623 0.127476 -0.052371
v -0.067690 0.128121 -0.051880
v -0.067617 0.127717 -0.052402
v -0.067656 0.128089 -0.052119
v -0.067629 0.127941 -0.052310
v -0.066465 0.127437 -0.051499
v -0.066454 0.127287 -0.051694
v -0.066488 0.127664 -0.051407
v -0.066516 0.127906 -0.051440
v -0.066458 0.127253 -0.051938
v -0.066543 0.128099 -0.051591
v -0.066560 0.128191 -0.051819
v -0.066475 0.127344 -0.052165
v -0.066501 0.127537 -0.052316
v -0.066563 0.128157 -0.052062
v -0.066529 0.127779 -0.052350
v -0.066552 0.128006 -0.052257
v -0.065202 0.128393 -0.052220
v -0.065205 0.128238 -0.052416
v -0.065106 0.128347 -0.051751
v -0.065039 0.128158 -0.051603
v -0.065166 0.128432 -0.051977
v -0.065173 0.128010 -0.052510
v -0.064981 0.127918 -0.051572
v -0.065116 0.127770 -0.052480
v -0.064949 0.127690 -0.051667
v -0.065048 0.127582 -0.052331
v -0.064988 0.127496 -0.052106
v -0.064952 0.127536 -0.051862
v -0.063502 0.128846 -0.052658
v -0.063515 0.128687 -0.052853
v -0.063441 0.128893 -0.052418
v -0.063476 0.128459 -0.052950
v -0.063349 0.128814 -0.052197
v -0.063397 0.128221 -0.052924
v -0.063250 0.128632 -0.052055
v -0.063298 0.128039 -0.052782
v -0.063170 0.128394 -0.052029
v -0.063206 0.127960 -0.052561
v -0.063132 0.128165 -0.052127
v -0.063145 0.128006 -0.052321
v -0.061400 0.129565 -0.053438
v -0.061420 0.129402 -0.053633
v -0.061321 0.129618 -0.053202
v -0.061377 0.129172 -0.053733
v -0.061206 0.129546 -0.052987
v -0.061281 0.128937 -0.053712
v -0.061084 0.129368 -0.052850
v -0.061160 0.128759 -0.053576
v -0.060989 0.129133 -0.052830
v -0.061044 0.128687 -0.053361
v -0.060945 0.128903 -0.052930
v -0.060966 0.128740 -0.053124
v -0.058834 0.130594 -0.054622
v -0.058860 0.130426 -0.054816
v -0.058743 0.130652 -0.054388
v -0.058813 0.130195 -0.054919
v -0.058610 0.130585 -0.054178
v -0.058706 0.129961 -0.054902
v -0.058472 0.130411 -0.054047
v -0.058568 0.129788 -0.054771
v -0.058366 0.130178 -0.054030
v -0.058436 0.129721 -0.054561
v -0.058319 0.129946 -0.054133
v -0.058345 0.129779 -0.054327
v -0.055744 0.131975 -0.056267
v -0.055774 0.131805 -0.056461
v -0.055643 0.132038 -0.056035
v -0.055724 0.131572 -0.056566
v -0.055498 0.131975 -0.055829
v -0.055609 0.131339 -0.056554
v -0.055348 0.131805 -0.055702
v -0.055459 0.131168 -0.056427
v -0.055232 0.131572 -0.055689
v -0.055314 0.131106 -0.056220
v -0.055183 0.131339 -0.055794
v -0.055213 0.131168 -0.055989
usemtl Perforating_branches__Cockett_s_veins__rMaterial0
f 1 2 3
f 2 4 3
f 5 2 1
f 6 7 2
f 5 6 2
f 2 7 4
f 1 3 8
f 8 3 9
f 3 4 10
f 3 10 9
f 11 1 8
f 12 5 1
f 12 1 11
f 8 9 13
f 14 8 13
f 11 8 14
f 6 15 7
f 16 6 5
f 17 15 6
f 16 17 6
f 7 18 4
f 15 19 7
f 7 19 18
f 4 20 10
f 4 18 20
f 21 5 12
f 21 16 5
f 13 9 22
f 9 10 23
f 9 23 22
f 14 13 24
f 24 13 25
f 13 22 25
f 17 26 15
f 26 27 15
f 15 27 19
f 28 11 14
f 29 12 11
f 29 11 28
f 30 14 24
f 28 14 30
f 10 31 23
f 10 20 31
f 32 17 16
f 33 26 17
f 32 33 17
f 34 21 12
f 34 12 29
f 35 16 21
f 35 32 16
f 24 25 36
f 30 24 37
f 37 24 36
f 26 38 27
f 33 39 26
f 39 38 26
f 25 22 40
f 22 23 41
f 22 41 40
f 36 25 42
f 25 40 42
f 23 43 41
f 23 31 43
f 44 35 21
f 44 21 34
f 45 33 32
f 46 39 33
f 45 46 33
f 47 28 30
f 48 29 28
f 48 28 47
f 49 30 37
f 47 30 49
f 50 32 35
f 50 45 32
f 36 42 51
f 37 36 52
f 52 36 51
f 42 40 53
f 40 41 54
f 40 54 53
f 39 55 38
f 46 56 39
f 56 55 39
f 57 34 29
f 57 29 48
f 42 53 58
f 51 42 58
f 59 37 52
f 49 37 59
f 41 60 54
f 41 43 60
f 61 46 45
f 62 56 46
f 61 62 46
f 63 50 35
f 63 35 44
f 64 61 45
f 64 45 50
f 58 53 65
f 53 66 65
f 53 54 66
f 51 58 67
f 52 51 68
f 68 51 67
f 62 69 56
f 56 70 55
f 69 70 56
f 71 44 34
f 71 34 57
f 58 65 72
f 67 58 72
f 73 52 68
f 59 52 73
f 72 65 62
f 65 69 62
f 72 62 61
f 65 66 69
f 54 74 66
f 54 60 74
f 75 72 61
f 75 61 64
f 76 64 50
f 76 50 63
f 67 72 75
f 66 77 69
f 69 77 70
f 66 74 77
f 78 67 75
f 68 67 78
f 79 47 49
f 80 48 47
f 80 47 79
f 81 49 59
f 79 49 81
f 82 63 44
f 82 44 71
f 83 57 48
f 83 48 80
f 84 75 64
f 84 64 76
f 78 75 84
f 85 68 78
f 73 68 85
f 86 59 73
f 81 59 86
f 87 76 63
f 87 63 82
f 88 71 57
f 88 57 83
f 89 78 84
f 85 78 89
f 90 73 85
f 86 73 90
f 91 84 76
f 91 76 87
f 89 84 91
f 92 82 71
f 92 71 88
f 93 85 89
f 90 85 93
f 94 79 81
f 95 80 79
f 95 79 94
f 96 81 86
f 94 81 96
f 97 87 82
f 97 82 92
f 98 83 80
f 98 80 95
f 99 86 90
f 96 86 99
f 100 89 91
f 93 89 100
f 101 91 87
f 101 87 97
f 100 91 101
f 102 88 83
f 102 83 98
f 103 90 93
f 99 90 103
f 104 92 88
f 104 88 102
f 105 93 100
f 103 93 105
f 106 97 92
f 106 92 104
f 107 100 101
f 105 100 107
f 108 101 97
f 108 97 106
f 107 101 108
f 109 94 96
f 110 95 94
f 110 94 109
f 111 96 99
f 109 96 111
f 112 98 95
f 112 95 110
f 113 99 103
f 111 99 113
f 114 102 98
f 114 98 112
f 115 103 105
f 113 103 115
f 116 104 102
f 116 102 114
f 117 105 107
f 115 105 117
f 118 106 104
f 118 104 116
f 119 107 108
f 117 107 119
f 120 108 106
f 120 106 118
f 119 108 120
f 121 109 111
f 122 110 109
f 122 109 121
f 123 111 113
f 121 111 123
f 124 113 115
f 123 113 124
f 125 112 110
f 125 110 122
f 126 115 117
f 124 115 126
f 127 114 112
f 127 112 125
f 128 117 119
f 126 117 128
f 129 116 114
f 129 114 127
f 130 119 120
f 128 119 130
f 131 118 116
f 131 116 129
f 132 120 118
f 132 118 131
f 130 120 132
f 133 121 123
f 134 122 121
f 134 121 133
f 135 123 124
f 133 123 135
f 136 124 126
f 135 124 136
f 137 125 122
f 137 122 134
f 138 126 128
f 136 126 138
f 139 127 125
f 139 125 137
f 140 128 130
f 138 128 140
f 141 129 127
f 141 127 139
f 142 130 132
f 140 130 142
f 143 131 129
f 143 129 141
f 144 132 131
f 144 131 143
f 142 132 144
f 145 133 135
f 146 134 133
f 146 133 145
f 147 135 136
f 145 135 147
f 148 136 138
f 147 136 148
f 149 137 134
f 149 134 146
f 150 138 140
f 148 138 150
f 151 139 137
f 151 137 149
f 152 140 142
f 150 140 152
f 153 141 139
f 153 139 151
f 154 142 144
f 152 142 154
f 155 143 141
f 155 141 153
f 156 144 143
f 156 143 155
f 154 144 156
f 157 145 147
f 158 146 145
f 158 145 157
f 159 147 148
f 157 147 159
f 160 148 150
f 159 148 160
f 161 149 146
f 161 146 158
f 162 150 152
f 160 150 162
f 163 151 149
f 163 149 161
f 164 152 154
f 162 152 164
f 165 153 151
f 165 151 163
f 166 154 156
f 164 154 166
f 167 155 153
f 167 153 165
f 168 156 155
f 168 155 167
f 166 156 168
f 169 159 160
f 170 157 159
f 170 159 169
f 171 160 162
f 169 160 171
f 172 158 157
f 172 157 170
f 173 162 164
f 171 162 173
f 174 161 158
f 174 158 172
f 175 164 166
f 173 164 175
f 176 163 161
f 176 161 174
f 177 166 168
f 175 166 177
f 178 165 163
f 178 163 176
f 179 168 167
f 177 168 179
f 180 167 165
f 180 165 178
f 179 167 180
f 181 169 171
f 182 170 169
f 182 169 181
f 183 171 173
f 181 171 183
f 184 172 170
f 184 170 182
f 185 173 175
f 183 173 185
f 186 174 172
f 186 172 184
f 187 175 177
f 185 175 187
f 188 176 174
f 188 174 186
f 189 177 179
f 187 177 189
f 190 178 176
f 190 176 188
f 191 179 180
f 189 179 191
f 192 180 178
f 192 178 190
f 191 180 192
f 193 181 183
f 194 182 181
f 194 181 193
f 195 183 185
f 193 183 195
f 196 185 187
f 195 185 196
f 197 184 182
f 197 182 194
f 198 187 189
f 196 187 198
f 199 186 184
f 199 184 197
f 200 189 191
f 198 189 200
f 201 188 186
f 201 186 199
f 202 191 192
f 200 191 202
f 203 190 188
f 203 188 201
f 204 192 190
f 204 190 203
f 202 192 204
f 205 193 195
f 206 194 193
f 206 193 205
f 207 195 196
f 205 195 207
f 208 196 198
f 207 196 208
f 209 197 194
f 209 194 206
f 210 198 200
f 208 198 210
f 211 199 197
f 211 197 209
f 212 200 202
f 210 200 212
f 213 201 199
f 213 199 211
f 214 202 204
f 212 202 214
f 215 203 201
f 215 201 213
f 216 204 203
f 216 203 215
f 214 204 216
f 217 205 207
f 218 207 208
f 217 207 218
f 219 206 205
f 219 205 217
f 220 208 210
f 218 208 220
f 221 209 206
f 221 206 219
f 222 210 212
f 220 210 222
f 223 211 209
f 223 209 221
f 224 212 214
f 222 212 224
f 225 213 211
f 225 211 223
f 226 214 216
f 224 214 226
f 227 215 213
f 227 213 225
f 228 216 215
f 226 216 228
f 228 215 227
f 229 217 218
f 230 218 220
f 229 218 230
f 231 219 217
f 231 217 229
f 232 220 222
f 230 220 232
f 233 221 219
f 233 219 231
f 234 222 224
f 232 222 234
f 235 223 221
f 235 221 233
f 236 224 226
f 234 224 236
f 237 225 223
f 237 223 235
f 238 226 228
f 236 226 238
f 239 227 225
f 239 225 237
f 240 228 227
f 238 228 240
f 240 227 239
f 241 229 230
f 242 230 232
f 241 230 242
f 243 231 229
f 243 229 241
f 244 232 234
f 242 232 244
f 245 233 231
f 245 231 243
f 246 234 236
f 244 234 246
f 247 235 233
f 247 233 245
f 248 236 238
f 246 236 248
f 249 237 235
f 249 235 247
f 250 238 240
f 248 238 250
f 251 239 237
f 251 237 249
f 252 240 239
f 250 240 252
f 252 239 251
f 253 242 244
f 254 241 242
f 254 242 253
f 255 244 246
f 253 244 255
f 256 243 241
f 256 241 254
f 257 246 248
f 255 246 257
f 258 245 243
f 258 243 256
f 259 248 250
f 257 248 259
f 260 247 245
f 260 245 258
f 261 250 252
f 259 250 261
f 262 249 247
f 262 247 260
f 263 252 251
f 261 252 263
f 264 251 249
f 264 249 262
f 263 251 264
f 265 253 255
f 266 254 253
f 266 253 265
f 267 255 257
f 265 255 267
f 268 256 254
f 268 254 266
f 269 257 259
f 267 257 269
f 270 258 256
f 270 256 268
f 271 259 261
f 269 259 271
f 272 260 258
f 272 258 270
f 273 261 263
f 271 261 273
f 274 262 260
f 274 260 272
f 275 263 264
f 273 263 275
f 276 264 262
f 276 262 274
f 275 264 276
f 277 265 267
f 278 267 269
f 277 267 278
f 279 266 265
f 279 265 277
f 280 269 271
f 278 269 280
f 281 268 266
f 281 266 279
f 282 271 273
f 280 271 282
f 283 270 268
f 283 268 281
f 284 273 275
f 282 273 284
f 285 272 270
f 285 270 283
f 286 275 276
f 284 275 286
f 287 274 272
f 287 272 285
f 288 276 274
f 286 276 288
f 288 274 287
f 289 278 280
f 290 277 278
f 290 278 289
f 291 280 282
f 289 280 291
f 292 282 284
f 291 282 292
f 293 279 277
f 293 277 290
f 294 284 286
f 292 284 294
f 295 281 279
f 295 279 293
f 296 286 288
f 294 286 296
f 297 283 281
f 297 281 295
f 298 285 283
f 298 283 297
f 299 288 287
f 296 288 299
f 300 287 285
f 300 285 298
f 299 287 300
f 301 291 292
f 302 292 294
f 301 292 302
f 303 289 291
f 303 291 301
f 304 290 289
f 304 289 303
f 305 294 296
f 302 294 305
f 306 293 290
f 306 290 304
f 307 296 299
f 305 296 307
f 308 295 293
f 308 293 306
f 309 299 300
f 307 299 309
f 310 297 295
f 310 295 308
f 311 300 298
f 309 300 311
f 312 298 297
f 312 297 310
f 311 298 312
f 313 301 302
f 314 302 305
f 313 302 314
f 315 303 301
f 315 301 313
f 316 305 307
f 314 305 316
f 317 304 303
f 317 303 315
f 318 307 309
f 316 307 318
f 319 306 304
f 319 304 317
f 320 309 311
f 318 309 320
f 321 308 306
f 321 306 319
f 322 311 312
f 320 311 322
f 323 310 308
f 323 308 321
f 324 312 310
f 322 312 324
f 324 310 323
f 325 313 314
f 326 314 316
f 325 314 326
f 327 315 313
f 327 313 325
f 328 316 318
f 326 316 328
f 329 317 315
f 329 315 327
f 330 318 320
f 328 318 330
f 331 319 317
f 331 317 329
f 332 320 322
f 330 320 332
f 333 321 319
f 333 319 331
f 334 322 324
f 332 322 334
f 335 323 321
f 335 321 333
f 336 324 323
f 334 324 336
f 336 323 335
f 337 326 328
f 338 325 326
f 338 326 337
f 339 328 330
f 337 328 339
f 340 327 325
f 340 325 338
f 341 330 332
f 339 330 341
f 342 329 327
f 342 327 340
f 343 332 334
f 341 332 343
f 344 331 329
f 344 329 342
f 345 334 336
f 343 334 345
f 346 333 331
f 346 331 344
f 347 336 335
f 345 336 347
f 348 335 333
f 348 333 346
f 347 335 348
f 349 337 339
f 350 338 337
f 350 337 349
f 351 339 341
f 349 339 351
f 352 340 338
f 352 338 350
f 353 341 343
f 351 341 353
f 354 342 340
f 354 340 352
f 355 343 345
f 353 343 355
f 356 344 342
f 356 342 354
f 357 345 347
f 355 345 357
f 358 346 344
f 358 344 356
f 359 347 348
f 357 347 359
f 360 348 346
f 360 346 358
f 359 348 360
f 361 349 351
f 362 350 349
f 362 349 361
f 363 351 353
f 361 351 363
f 364 352 350
f 364 350 362
f 365 353 355
f 363 353 365
f 366 354 352
f 366 352 364
f 367 355 357
f 365 355 367
f 368 356 354
f 368 354 366
f 369 357 359
f 367 357 369
f 370 358 356
f 370 356 368
f 371 359 360
f 369 359 371
f 372 360 358
f 372 358 370
f 371 360 372
f 373 361 363
f 374 362 361
f 374 361 373
f 375 363 365
f 373 363 375
f 376 364 362
f 376 362 374
f 377 365 367
f 375 365 377
f 378 366 364
f 378 364 376
f 379 367 369
f 377 367 379
f 380 368 366
f 380 366 378
f 381 369 371
f 379 369 381
f 382 370 368
f 382 368 380
f 383 371 372
f 381 371 383
f 384 372 370
f 384 370 382
f 383 372 384
f 385 373 375
f 386 375 377
f 385 375 386
f 387 374 373
f 387 373 385
f 388 376 374
f 388 374 387
f 389 377 379
f 386 377 389
f 390 378 376
f 390 376 388
f 391 379 381
f 389 379 391
f 392 380 378
f 392 378 390
f 393 381 383
f 391 381 393
f 394 382 380
f 394 380 392
f 395 383 384
f 393 383 395
f 396 384 382
f 395 384 396
f 396 382 394
f 397 385 386
f 398 386 389
f 397 386 398
f 399 387 385
f 399 385 397
f 400 389 391
f 398 389 400
f 401 388 387
f 401 387 399
f 402 391 393
f 400 391 402
f 403 390 388
f 403 388 401
f 404 393 395
f 402 393 404
f 405 392 390
f 405 390 403
f 406 395 396
f 404 395 406
f 407 394 392
f 407 392 405
f 408 396 394
f 406 396 408
f 408 394 407
f 409 397 398
f 410 398 400
f 409 398 410
f 411 399 397
f 411 397 409
f 412 400 402
f 410 400 412
f 413 401 399
f 413 399 411
f 414 402 404
f 412 402 414
f 415 403 401
f 415 401 413
f 416 404 406
f 414 404 416
f 417 405 403
f 417 403 415
f 418 406 408
f 416 406 418
f 419 407 405
f 419 405 417
f 420 408 407
f 418 408 420
f 420 407 419
f 421 409 410
f 422 410 412
f 421 410 422
f 423 411 409
f 423 409 421
f 424 412 414
f 422 412 424
f 425 413 411
f 425 411 423
f 426 414 416
f 424 414 426
f 427 415 413
f 427 413 425
f 428 416 418
f 426 416 428
f 429 417 415
f 429 415 427
f 430 418 420
f 428 418 430
f 431 421 422
f 432 422 424
f 431 422 432
f 433 419 417
f 433 417 429
f 434 423 421
f 434 421 431
f 435 424 426
f 432 424 435
f 436 420 419
f 430 420 436
f 436 419 433
f 437 425 423
f 437 423 434
f 438 426 428
f 435 426 438
f 439 427 425
f 439 425 437
f 440 428 430
f 438 428 440
f 441 429 427
f 441 427 439
f 442 430 436
f 440 430 442
f 443 433 429
f 443 429 441
f 444 436 433
f 442 436 444
f 444 433 443
f 445 446 447
f 448 447 449
f 445 447 448
f 450 451 446
f 450 446 445
f 452 449 453
f 448 449 452
f 454 455 451
f 454 451 450
f 456 453 457
f 452 453 456
f 458 459 455
f 458 455 454
f 460 457 461
f 456 457 460
f 462 463 459
f 462 459 458
f 464 461 465
f 460 461 464
f 466 467 463
f 466 463 462
f 468 465 467
f 464 465 468
f 468 467 466
f 469 445 448
f 470 448 452
f 469 448 470
f 471 450 445
f 471 445 469
f 472 452 456
f 470 452 472
f 473 454 450
f 473 450 471
f 474 456 460
f 472 456 474
f 475 458 454
f 475 454 473
f 476 460 464
f 474 460 476
f 477 462 458
f 477 458 475
f 478 464 468
f 476 464 478
f 479 466 462
f 479 462 477
f 480 468 466
f 478 468 480
f 480 466 479
f 481 470 472
f 482 469 470
f 482 470 481
f 483 472 474
f 481 472 483
f 484 471 469
f 484 469 482
f 485 474 476
f 483 474 485
f 486 473 471
f 486 471 484
f 487 476 478
f 485 476 487
f 488 475 473
f 488 473 486
f 489 478 480
f 487 478 489
f 490 477 475
f 490 475 488
f 491 480 479
f 489 480 491
f 492 479 477
f 492 477 490
f 491 479 492
f 493 481 483
f 494 482 481
f 494 481 493
f 495 483 485
f 493 483 495
f 496 485 487
f 495 485 496
f 497 484 482
f 497 482 494
f 498 487 489
f 496 487 498
f 499 486 484
f 499 484 497
f 500 489 491
f 498 489 500
f 501 488 486
f 501 486 499
f 502 491 492
f 500 491 502
f 503 490 488
f 503 488 501
f 504 492 490
f 504 490 503
f 502 492 504
f 505 495 496
f 506 493 495
f 506 495 505
f 507 496 498
f 505 496 507
f 508 494 493
f 508 493 506
f 509 498 500
f 507 498 509
f 510 497 494
f 510 494 508
f 511 500 502
f 509 500 511
f 512 499 497
f 512 497 510
f 513 502 504
f 511 502 513
f 514 501 499
f 514 499 512
f 515 504 503
f 513 504 515
f 516 503 501
f 516 501 514
f 515 503 516
f 517 507 509
f 518 505 507
f 518 507 517
f 519 509 511
f 517 509 519
f 520 506 505
f 520 505 518
f 521 511 513
f 519 511 521
f 522 508 506
f 522 506 520
f 523 513 515
f 521 513 523
f 524 510 508
f 524 508 522
f 525 515 516
f 523 515 525
f 526 512 510
f 526 510 524
f 527 516 514
f 525 516 527
f 528 514 512
f 528 512 526
f 527 514 528
f 529 519 521
f 530 521 523
f 529 521 530
f 531 517 519
f 531 519 529
f 532 523 525
f 530 523 532
f 533 518 517
f 533 517 531
f 534 520 518
f 534 518 533
f 535 525 527
f 532 525 535
f 536 522 520
f 536 520 534
f 537 527 528
f 535 527 537
f 538 528 526
f 537 528 538
f 539 524 522
f 539 522 536
f 540 526 524
f 538 526 540
f 540 524 539
f 541 530 532
f 542 532 535
f 541 532 542
f 543 529 530
f 543 530 541
f 544 531 529
f 544 529 543
f 545 533 531
f 545 531 544
f 546 535 537
f 542 535 546
f 547 534 533
f 547 533 545
f 548 537 538
f 546 537 548
f 549 536 534
f 549 534 547
f 550 538 540
f 548 538 550
f 551 540 539
f 550 540 551
f 552 539 536
f 551 539 552
f 552 536 549
f 553 541 542
f 554 542 546
f 553 542 554
f 555 543 541
f 555 541 553
f 556 544 543
f 556 543 555
f 557 546 548
f 554 546 557
f 558 545 544
f 558 544 556
f 559 548 550
f 557 548 559
f 560 547 545
f 560 545 558
f 561 550 551
f 559 550 561
f 562 549 547
f 562 547 560
f 563 551 552
f 561 551 563
f 564 552 549
f 564 549 562
f 563 552 564
f 565 553 554
f 566 554 557
f 565 554 566
f 567 555 553
f 567 553 565
f 568 556 555
f 568 555 567
f 569 557 559
f 566 557 569
f 570 558 556
f 570 556 568
f 571 559 561
f 569 559 571
f 572 560 558
f 572 558 570
f 573 561 563
f 571 561 573
f 574 562 560
f 574 560 572
f 575 563 564
f 573 563 575
f 576 564 562
f 575 564 576
f 576 562 574
f 577 566 569
f 578 569 571
f 577 569 578
f 579 565 566
f 579 566 577
f 580 567 565
f 580 565 579
f 581 568 567
f 581 567 580
f 582 570 568
f 582 568 581
f 583 571 573
f 578 571 583
f 584 572 570
f 584 570 582
f 585 573 575
f 583 573 585
f 586 575 576
f 585 575 586
f 587 574 572
f 587 572 584
f 588 576 574
f 586 576 588
f 588 574 587
f 589 577 578
f 590 578 583
f 589 578 590
f 591 579 577
f 591 577 589
f 592 580 579
f 592 579 591
f 593 581 580
f 593 580 592
f 594 583 585
f 590 583 594
f 595 582 581
f 595 581 593
f 596 585 586
f 594 585 596
f 597 584 582
f 597 582 595
f 598 586 588
f 596 586 598
f 599 588 587
f 598 588 599
f 600 587 584
f 599 587 600
f 600 584 597
f 601 602 603
f 601 604 602
f 603 602 605
f 604 606 602
f 602 606 607
f 602 607 605
f 608 601 603
f 609 604 601
f 610 601 608
f 610 609 601
f 603 605 611
f 612 603 611
f 608 603 612
f 604 613 606
f 614 613 604
f 609 614 604
f 613 615 606
f 613 616 615
f 617 616 613
f 614 617 613
f 606 615 618
f 606 618 607
f 616 619 615
f 615 619 620
f 615 620 618
f 611 605 621
f 605 607 622
f 605 622 621
f 616 623 619
f 624 623 616
f 617 624 616
f 625 614 609
f 626 617 614
f 625 626 614
f 612 611 627
f 627 611 628
f 611 621 628
f 607 618 629
f 607 629 622
f 624 630 623
f 631 608 612
f 632 610 608
f 632 608 631
f 633 609 610
f 633 625 609
f 634 612 627
f 631 612 634
f 635 624 617
f 626 635 617
f 618 620 636
f 618 636 629
f 637 630 624
f 635 637 624
f 627 628 638
f 634 627 639
f 639 627 638
f 628 621 640
f 621 622 641
f 621 641 640
f 637 642 630
f 643 633 610
f 643 610 632
f 638 628 644
f 628 640 644
f 622 629 645
f 622 645 641
f 646 635 626
f 647 626 625
f 647 646 626
f 648 637 635
f 646 648 635
f 629 636 649
f 629 649 645
f 650 625 633
f 650 647 625
f 651 642 637
f 648 651 637
f 652 631 634
f 653 634 639
f 652 634 653
f 639 638 654
f 638 644 655
f 654 638 655
f 651 656 642
f 657 632 631
f 657 631 652
f 658 650 633
f 658 633 643
f 640 641 659
f 644 640 660
f 640 659 660
f 641 645 661
f 641 661 659
f 662 639 654
f 653 639 662
f 655 644 663
f 644 660 663
f 664 646 647
f 665 648 646
f 664 665 646
f 645 649 666
f 645 666 661
f 667 643 632
f 667 632 657
f 668 647 650
f 668 664 647
f 669 651 648
f 665 669 648
f 670 656 651
f 669 670 651
f 670 671 656
f 654 655 672
f 655 663 673
f 672 655 673
f 674 654 672
f 662 654 674
f 660 659 675
f 663 660 676
f 660 675 676
f 659 661 677
f 659 677 675
f 678 668 650
f 678 650 658
f 679 669 665
f 680 665 664
f 680 679 665
f 681 670 669
f 679 681 669
f 663 676 682
f 673 663 682
f 661 666 683
f 661 683 677
f 684 658 643
f 684 643 667
f 685 664 668
f 685 680 664
f 681 686 670
f 686 671 670
f 676 681 679
f 682 676 679
f 682 679 680
f 676 675 681
f 675 686 681
f 675 677 686
f 686 687 671
f 688 652 653
f 689 657 652
f 689 652 688
f 690 653 662
f 688 653 690
f 691 685 668
f 691 668 678
f 692 682 680
f 692 680 685
f 672 673 693
f 694 672 693
f 674 672 694
f 673 682 692
f 693 673 692
f 677 687 686
f 677 683 687
f 695 678 658
f 695 658 684
f 696 662 674
f 690 662 696
f 697 692 685
f 693 692 697
f 698 667 657
f 698 657 689
f 697 685 691
f 699 693 697
f 694 693 699
f 700 674 694
f 696 674 700
f 701 691 678
f 701 678 695
f 702 684 667
f 702 667 698
f 703 697 691
f 699 697 703
f 703 691 701
f 704 694 699
f 700 694 704
f 705 695 684
f 705 684 702
f 706 699 703
f 704 699 706
f 707 701 695
f 707 695 705
f 708 688 690
f 709 690 696
f 708 690 709
f 710 689 688
f 710 688 708
f 711 703 701
f 706 703 711
f 711 701 707
f 712 696 700
f 709 696 712
f 713 698 689
f 713 689 710
f 714 700 704
f 712 700 714
f 715 702 698
f 715 698 713
f 716 704 706
f 714 704 716
f 717 705 702
f 717 702 715
f 718 706 711
f 716 706 718
f 719 707 705
f 719 705 717
f 720 711 707
f 718 711 720
f 720 707 719
f 721 708 709
f 722 709 712
f 721 709 722
f 723 710 708
f 723 708 721
f 724 712 714
f 722 712 724
f 725 713 710
f 725 710 723
f 726 714 716
f 724 714 726
f 727 715 713
f 727 713 725
f 728 716 718
f 726 716 728
f 729 717 715
f 729 715 727
f 730 718 720
f 728 718 730
f 731 719 717
f 731 717 729
f 732 720 719
f 730 720 732
f 732 719 731
f 733 721 722
f 734 722 724
f 733 722 734
f 735 723 721
f 735 721 733
f 736 724 726
f 734 724 736
f 737 725 723
f 737 723 735
f 738 726 728
f 736 726 738
f 739 727 725
f 739 725 737
f 740 728 730
f 738 728 740
f 741 729 727
f 741 727 739
f 742 730 732
f 740 730 742
f 743 731 729
f 743 729 741
f 744 732 731
f 742 732 744
f 744 731 743
f 745 733 734
f 746 735 733
f 746 733 745
f 747 734 736
f 745 734 747
f 748 736 738
f 747 736 748
f 749 737 735
f 749 735 746
f 750 738 740
f 748 738 750
f 751 739 737
f 751 737 749
f 752 740 742
f 750 740 752
f 753 741 739
f 753 739 751
f 754 742 744
f 752 742 754
f 755 743 741
f 755 741 753
f 756 744 743
f 756 743 755
f 754 744 756
f 757 745 747
f 758 746 745
f 758 745 757
f 759 747 748
f 757 747 759
f 760 748 750
f 759 748 760
f 761 749 746
f 761 746 758
f 762 750 752
f 760 750 762
f 763 751 749
f 763 749 761
f 764 752 754
f 762 752 764
f 765 753 751
f 765 751 763
f 766 754 756
f 764 754 766
f 767 755 753
f 767 753 765
f 768 756 755
f 768 755 767
f 766 756 768
f 769 757 759
f 770 758 757
f 770 757 769
f 771 759 760
f 769 759 771
f 772 761 758
f 772 758 770
f 773 760 762
f 771 760 773
f 774 763 761
f 774 761 772
f 775 762 764
f 773 762 775
f 776 765 763
f 776 763 774
f 777 764 766
f 775 764 777
f 778 767 765
f 778 765 776
f 779 766 768
f 777 766 779
f 780 768 767
f 780 767 778
f 779 768 780
f 781 769 771
f 782 770 769
f 782 769 781
f 783 771 773
f 781 771 783
f 784 772 770
f 784 770 782
f 785 773 775
f 783 773 785
f 786 774 772
f 786 772 784
f 787 775 777
f 785 775 787
f 788 776 774
f 788 774 786
f 789 777 779
f 787 777 789
f 790 778 776
f 790 776 788
f 791 779 780
f 789 779 791
f 792 780 778
f 792 778 790
f 791 780 792
f 793 781 783
f 794 782 781
f 794 781 793
f 795 783 785
f 793 783 795
f 796 784 782
f 796 782 794
f 797 785 787
f 795 785 797
f 798 786 784
f 798 784 796
f 799 787 789
f 797 787 799
f 800 788 786
f 800 786 798
f 801 789 791
f 799 789 801
f 802 790 788
f 802 788 800
f 803 791 792
f 801 791 803
f 804 792 790
f 804 790 802
f 803 792 804
f 805 793 795
f 806 794 793
f 806 793 805
f 807 795 797
f 805 795 807
f 808 796 794
f 808 794 806
f 809 797 799
f 807 797 809
f 810 798 796
f 810 796 808
f 811 799 801
f 809 799 811
f 812 800 798
f 812 798 810
f 813 801 803
f 811 801 813
f 814 802 800
f 814 800 812
f 815 803 804
f 813 803 815
f 816 804 802
f 816 802 814
f 815 804 816
f 817 805 807
f 818 806 805
f 818 805 817
f 819 807 809
f 817 807 819
f 820 808 806
f 820 806 818
f 821 809 811
f 819 809 821
f 822 810 808
f 822 808 820
f 823 811 813
f 821 811 823
f 824 812 810
f 824 810 822
f 825 813 815
f 823 813 825
f 826 814 812
f 826 812 824
f 827 815 816
f 825 815 827
f 828 816 814
f 828 814 826
f 827 816 828
f 829 817 819
f 830 818 817
f 830 817 829
f 831 819 821
f 829 819 831
f 832 821 823
f 831 821 832
f 833 820 818
f 833 818 830
f 834 823 825
f 832 823 834
f 835 825 827
f 834 825 835
f 836 822 820
f 836 820 833
f 837 824 822
f 837 822 836
f 838 827 828
f 835 827 838
f 839 826 824
f 839 824 837
f 840 828 826
f 840 826 839
f 838 828 840
f 841 838 840
f 842 840 839
f 841 840 842
f 843 834 835
f 844 832 834
f 844 834 843
f 845 835 838
f 845 838 841
f 843 835 845
f 846 839 837
f 842 839 846
f 847 831 832
f 847 832 844
f 848 837 836
f 846 837 848
f 849 829 831
f 849 831 847
f 850 836 833
f 848 836 850
f 851 833 830
f 850 833 851
f 852 830 829
f 851 830 852
f 852 829 849
f 853 841 842
f 854 842 846
f 853 842 854
f 855 845 841
f 855 841 853
f 856 846 848
f 854 846 856
f 857 843 845
f 857 845 855
f 858 848 850
f 856 848 858
f 859 844 843
f 859 843 857
f 860 850 851
f 858 850 860
f 861 847 844
f 861 844 859
f 862 851 852
f 860 851 862
f 863 849 847
f 863 847 861
f 864 852 849
f 862 852 864
f 864 849 863
f 865 853 854
f 866 854 856
f 865 854 866
f 867 855 853
f 867 853 865
f 868 856 858
f 866 856 868
f 869 857 855
f 869 855 867
f 870 858 860
f 868 858 870
f 871 859 857
f 871 857 869
f 872 860 862
f 870 860 872
f 873 861 859
f 873 859 871
f 874 862 864
f 872 862 874
f 875 863 861
f 875 861 873
f 876 864 863
f 874 864 876
f 876 863 875
f 877 865 866
f 878 866 868
f 877 866 878
f 879 867 865
f 879 865 877
f 880 868 870
f 878 868 880
f 881 869 867
f 881 867 879
f 882 870 872
f 880 870 882
f 883 871 869
f 883 869 881
f 884 872 874
f 882 872 884
f 885 873 871
f 885 871 883
f 886 874 876
f 884 874 886
f 887 875 873
f 887 873 885
f 888 876 875
f 886 876 888
f 888 875 887
f 889 877 878
f 890 878 880
f 889 878 890
f 891 879 877
f 891 877 889
f 892 880 882
f 890 880 892
f 893 881 879
f 893 879 891
f 894 882 884
f 892 882 894
f 895 883 881
f 895 881 893
f 896 884 886
f 894 884 896
f 897 885 883
f 897 883 895
f 898 886 888
f 896 886 898
f 899 887 885
f 899 885 897
f 900 888 887
f 898 888 900
f 900 887 899
