# 
# Wavefront OBJ file
# Created with Kaydara FBX
# 
mtllib c:\users\tjvan\onedrive\documenten\fontys\minor\nx\.mtlmodels\perforating_branches__dodd's_veins_.r.obj

g Perforating_branches__Dodd_s_veins__r
v -0.085137 0.500369 -0.036974
v -0.086269 0.501248 -0.037808
v -0.086201 0.501503 -0.037570
v -0.085052 0.500196 -0.037273
v -0.086182 0.501073 -0.038106
v -0.085105 0.500654 -0.036763
v -0.085996 0.501771 -0.037454
v -0.084874 0.500181 -0.037581
v -0.085964 0.501025 -0.038383
v -0.084966 0.500976 -0.036697
v -0.085708 0.501978 -0.037492
v -0.084650 0.500329 -0.037816
v -0.085672 0.501117 -0.038566
v -0.084756 0.501247 -0.036795
v -0.085416 0.502070 -0.037674
v -0.084441 0.500600 -0.037913
v -0.085384 0.501324 -0.038604
v -0.084532 0.501395 -0.037029
v -0.085198 0.502022 -0.037952
v -0.084301 0.500921 -0.037848
v -0.085179 0.501591 -0.038488
v -0.084354 0.501380 -0.037337
v -0.085111 0.501847 -0.038249
v -0.084269 0.501207 -0.037637
v -0.083543 0.499751 -0.036175
v -0.083460 0.499579 -0.036475
v -0.083542 0.500050 -0.035980
v -0.083315 0.499578 -0.036801
v -0.083457 0.500394 -0.035943
v -0.083147 0.499749 -0.037064
v -0.083310 0.500691 -0.036074
v -0.083000 0.500046 -0.037194
v -0.083142 0.500862 -0.036337
v -0.082915 0.500390 -0.037157
v -0.082997 0.500861 -0.036662
v -0.082913 0.500688 -0.036962
v -0.081571 0.499328 -0.035387
v -0.081487 0.499155 -0.035688
v -0.081590 0.499631 -0.035201
v -0.081362 0.499159 -0.036021
v -0.081539 0.499983 -0.035178
v -0.081229 0.499338 -0.036299
v -0.081433 0.500290 -0.035325
v -0.081123 0.499645 -0.036446
v -0.081300 0.500469 -0.035603
v -0.081073 0.499997 -0.036423
v -0.081175 0.500473 -0.035936
v -0.081092 0.500300 -0.036236
v -0.079270 0.499049 -0.034587
v -0.079302 0.499354 -0.034405
v -0.079186 0.498876 -0.034887
v -0.079274 0.499709 -0.034390
v -0.079072 0.498881 -0.035224
v -0.079193 0.500019 -0.034546
v -0.078960 0.499063 -0.035509
v -0.079080 0.500201 -0.034830
v -0.078879 0.499373 -0.035665
v -0.078967 0.500206 -0.035168
v -0.078850 0.499728 -0.035650
v -0.078883 0.500033 -0.035468
v -0.076696 0.498877 -0.033759
v -0.076737 0.499182 -0.033580
v -0.076610 0.498704 -0.034058
v -0.076722 0.499538 -0.033569
v -0.076503 0.498709 -0.034398
v -0.076656 0.499849 -0.033730
v -0.076402 0.498892 -0.034686
v -0.076555 0.500032 -0.034018
v -0.076335 0.499203 -0.034847
v -0.076447 0.500037 -0.034358
v -0.076321 0.499559 -0.034836
v -0.076362 0.499864 -0.034657
v -0.073955 0.499085 -0.032716
v -0.073908 0.498779 -0.032893
v -0.073948 0.499441 -0.032708
v -0.073820 0.498606 -0.033192
v -0.073889 0.499752 -0.032871
v -0.073714 0.498612 -0.033532
v -0.073794 0.499935 -0.033161
v -0.073619 0.498795 -0.033822
v -0.073688 0.499941 -0.033501
v -0.073560 0.499106 -0.033985
v -0.073600 0.499768 -0.033800
v -0.073553 0.499462 -0.033977
v -0.071018 0.499031 -0.031805
v -0.070967 0.498726 -0.031981
v -0.071015 0.499388 -0.031798
v -0.070876 0.498553 -0.032279
v -0.070958 0.499699 -0.031962
v -0.070770 0.498558 -0.032618
v -0.070864 0.499882 -0.032252
v -0.070675 0.498741 -0.032909
v -0.070757 0.499888 -0.032592
v -0.070619 0.499053 -0.033073
v -0.070666 0.499715 -0.032890
v -0.070615 0.499409 -0.033066
v -0.067991 0.498992 -0.030839
v -0.067938 0.498686 -0.031015
v -0.067988 0.499348 -0.030832
v -0.067844 0.498513 -0.031311
v -0.067930 0.499660 -0.030996
v -0.067733 0.498519 -0.031650
v -0.067832 0.499843 -0.031285
v -0.067635 0.498702 -0.031940
v -0.067721 0.499848 -0.031624
v -0.067577 0.499013 -0.032103
v -0.067626 0.499675 -0.031921
v -0.067574 0.499369 -0.032096
v -0.064939 0.498937 -0.029812
v -0.064885 0.498632 -0.029988
v -0.064932 0.499294 -0.029804
v -0.064786 0.498458 -0.030283
v -0.064868 0.499605 -0.029966
v -0.064668 0.498464 -0.030619
v -0.064763 0.499788 -0.030253
v -0.064563 0.498647 -0.030906
v -0.064645 0.499793 -0.030589
v -0.064499 0.498958 -0.031067
v -0.064546 0.499620 -0.030884
v -0.064493 0.499314 -0.031059
v -0.061926 0.498838 -0.028717
v -0.061873 0.498532 -0.028892
v -0.061914 0.499194 -0.028707
v -0.061769 0.498359 -0.029186
v -0.061839 0.499505 -0.028864
v -0.061642 0.498364 -0.029518
v -0.061722 0.499687 -0.029147
v -0.061525 0.498546 -0.029801
v -0.061595 0.499692 -0.029480
v -0.061450 0.498857 -0.029959
v -0.061491 0.499519 -0.029773
v -0.061438 0.499213 -0.029948
v -0.059020 0.498665 -0.027547
v -0.058969 0.498359 -0.027723
v -0.058998 0.499020 -0.027533
v -0.058858 0.498185 -0.028014
v -0.058908 0.499330 -0.027684
v -0.058717 0.498189 -0.028341
v -0.058775 0.499511 -0.027961
v -0.058584 0.498371 -0.028617
v -0.058634 0.499515 -0.028288
v -0.058494 0.498681 -0.028769
v -0.058523 0.499342 -0.028578
v -0.058472 0.499036 -0.028754
v -0.056244 0.498385 -0.026278
v -0.056179 0.498078 -0.026448
v -0.056238 0.498741 -0.026271
v -0.056058 0.497904 -0.026734
v -0.056160 0.499051 -0.026427
v -0.055914 0.497908 -0.027060
v -0.056033 0.499233 -0.026706
v -0.055787 0.498090 -0.027339
v -0.055889 0.499237 -0.027032
v -0.055709 0.498400 -0.027496
v -0.055769 0.499063 -0.027318
v -0.055703 0.498756 -0.027488
v -0.053623 0.498500 -0.025175
v -0.053517 0.498196 -0.025328
v -0.053675 0.498852 -0.025191
v -0.053384 0.498022 -0.025609
v -0.053659 0.499158 -0.025372
v -0.053260 0.498025 -0.025943
v -0.053577 0.499337 -0.025670
v -0.053179 0.498204 -0.026241
v -0.053454 0.499339 -0.026004
v -0.053162 0.498510 -0.026422
v -0.053321 0.499166 -0.026285
v -0.053214 0.498862 -0.026438
v -0.050706 0.499702 -0.024238
v -0.050593 0.499366 -0.024201
v -0.050754 0.499991 -0.024440
v -0.050445 0.499073 -0.024341
v -0.050724 0.500156 -0.024755
v -0.050303 0.498902 -0.024619
v -0.050624 0.500153 -0.025097
v -0.050203 0.498899 -0.024961
v -0.050481 0.499982 -0.025375
v -0.050173 0.499064 -0.025275
v -0.050334 0.499689 -0.025514
v -0.050221 0.499353 -0.025478
v -0.047530 0.501442 -0.023623
v -0.047441 0.501171 -0.023410
v -0.047533 0.501593 -0.023946
v -0.047290 0.500852 -0.023364
v -0.047448 0.501583 -0.024292
v -0.047116 0.500570 -0.023497
v -0.047299 0.501414 -0.024568
v -0.046967 0.500402 -0.023773
v -0.047126 0.501133 -0.024701
v -0.046883 0.500392 -0.024119
v -0.046974 0.500814 -0.024655
v -0.046885 0.500543 -0.024442
v -0.044096 0.503395 -0.022921
v -0.043980 0.503139 -0.022703
v -0.044120 0.503534 -0.023249
v -0.043802 0.502835 -0.022651
v -0.044046 0.503518 -0.023597
v -0.043612 0.502563 -0.022780
v -0.043893 0.503352 -0.023872
v -0.043458 0.502397 -0.023056
v -0.043702 0.503080 -0.024002
v -0.043384 0.502381 -0.023404
v -0.043525 0.502776 -0.023950
v -0.043408 0.502520 -0.023731
v -0.040556 0.505733 -0.022333
v -0.040596 0.505861 -0.022663
v -0.040420 0.505490 -0.022111
v -0.040529 0.505841 -0.023012
v -0.040225 0.505197 -0.022056
v -0.040373 0.505677 -0.023287
v -0.040022 0.504933 -0.022183
v -0.040170 0.505413 -0.023414
v -0.039866 0.504769 -0.022458
v -0.039974 0.505120 -0.023360
v -0.039799 0.504749 -0.022808
v -0.039838 0.504877 -0.023138
v -0.037014 0.508337 -0.021854
v -0.037065 0.508457 -0.022186
v -0.036863 0.508104 -0.021630
v -0.037004 0.508432 -0.022536
v -0.036653 0.507822 -0.021573
v -0.036845 0.508270 -0.022811
v -0.036441 0.507565 -0.021699
v -0.036633 0.508013 -0.022936
v -0.036283 0.507402 -0.021974
v -0.036424 0.507730 -0.022880
v -0.036221 0.507378 -0.022324
v -0.036273 0.507498 -0.022656
v -0.033570 0.511088 -0.021481
v -0.033631 0.511201 -0.021814
v -0.033407 0.510865 -0.021256
v -0.033574 0.511172 -0.022164
v -0.033186 0.510592 -0.021198
v -0.033414 0.511011 -0.022439
v -0.032966 0.510341 -0.021323
v -0.033194 0.510760 -0.022564
v -0.032807 0.510180 -0.021598
v -0.032973 0.510487 -0.022506
v -0.032750 0.510152 -0.021948
v -0.032811 0.510264 -0.022281
v -0.030326 0.513869 -0.021211
v -0.030396 0.513974 -0.021544
v -0.030153 0.513655 -0.020984
v -0.030343 0.513942 -0.021895
v -0.029922 0.513390 -0.020925
v -0.030181 0.513782 -0.022169
v -0.029696 0.513144 -0.021050
v -0.029955 0.513537 -0.022294
v -0.029535 0.512984 -0.021325
v -0.029724 0.513272 -0.022235
v -0.029482 0.512953 -0.021675
v -0.029551 0.513058 -0.022009
v -0.027461 0.516658 -0.021371
v -0.027384 0.516560 -0.021038
v -0.027412 0.516623 -0.021722
v -0.027201 0.516356 -0.020811
v -0.027250 0.516464 -0.021997
v -0.026961 0.516099 -0.020751
v -0.027017 0.516224 -0.022121
v -0.026728 0.515859 -0.020876
v -0.026777 0.515968 -0.022062
v -0.026566 0.515700 -0.021150
v -0.026594 0.515763 -0.021835
v -0.026517 0.515665 -0.021501
v -0.024931 0.519132 -0.021292
v -0.024844 0.519043 -0.020958
v -0.024886 0.519093 -0.021644
v -0.024650 0.518849 -0.020731
v -0.024722 0.518936 -0.021918
v -0.024400 0.518603 -0.020671
v -0.024483 0.518702 -0.022042
v -0.024161 0.518369 -0.020795
v -0.024233 0.518456 -0.021982
v -0.023997 0.518212 -0.021070
v -0.024039 0.518262 -0.021755
v -0.023952 0.518173 -0.021421
v -0.022908 0.521275 -0.021302
v -0.022810 0.521198 -0.020968
v -0.022868 0.521229 -0.021653
v -0.022601 0.521020 -0.020741
v -0.022703 0.521074 -0.021928
v -0.022338 0.520787 -0.020682
v -0.022455 0.520850 -0.022052
v -0.022090 0.520563 -0.020806
v -0.022192 0.520617 -0.021992
v -0.021924 0.520407 -0.021080
v -0.021983 0.520439 -0.021765
v -0.021885 0.520362 -0.021431
v -0.021497 0.522959 -0.021395
v -0.021382 0.522903 -0.021063
v -0.021467 0.522903 -0.021746
v -0.021153 0.522750 -0.020837
v -0.021299 0.522750 -0.022020
v -0.020870 0.522541 -0.020779
v -0.021039 0.522541 -0.022145
v -0.020610 0.522332 -0.020904
v -0.020756 0.522332 -0.022087
v -0.020442 0.522179 -0.021179
v -0.020526 0.522179 -0.021862
v -0.020411 0.522123 -0.021529
v -0.057645 0.665583 0.042377
v -0.057248 0.666152 0.041007
v -0.057531 0.666041 0.042456
v -0.057514 0.665125 0.042330
v -0.057370 0.665690 0.040967
v -0.056918 0.666487 0.041095
v -0.057201 0.666377 0.042545
v -0.057252 0.665226 0.040986
v -0.057172 0.664789 0.042327
v -0.056937 0.665640 0.039518
v -0.056805 0.666101 0.039526
v -0.056924 0.664885 0.041060
v -0.056833 0.665178 0.039589
v -0.056474 0.666436 0.039610
v -0.056468 0.666607 0.041209
v -0.056744 0.666500 0.042622
v -0.056711 0.664666 0.042369
v -0.056388 0.665457 0.038024
v -0.056248 0.665915 0.038006
v -0.056522 0.664837 0.039719
v -0.056475 0.664757 0.041168
v -0.056031 0.666557 0.039748
v -0.056297 0.664999 0.038130
v -0.055914 0.666249 0.038083
v -0.056019 0.666479 0.041317
v -0.056283 0.666377 0.042664
v -0.056254 0.664789 0.042446
v -0.056087 0.664711 0.039874
v -0.055999 0.664663 0.038297
v -0.056026 0.664876 0.041282
v -0.055475 0.666371 0.038233
v -0.055596 0.666430 0.039903
v -0.055763 0.665162 0.036471
v -0.055615 0.665616 0.036434
v -0.055682 0.664708 0.036602
v -0.055692 0.666137 0.041391
v -0.055941 0.666041 0.042661
v -0.055924 0.665125 0.042535
v -0.055276 0.665948 0.036500
v -0.055644 0.664831 0.040012
v -0.055574 0.664539 0.038480
v -0.055695 0.665212 0.041371
v -0.055285 0.666090 0.040033
v -0.055050 0.666247 0.038415
v -0.055392 0.664376 0.036791
v -0.055573 0.665674 0.041410
v -0.055809 0.665583 0.042614
v -0.054839 0.666071 0.036652
v -0.055096 0.664773 0.034849
v -0.054942 0.665223 0.034796
v -0.055021 0.664323 0.034995
v -0.055312 0.665167 0.040096
v -0.055181 0.665627 0.040104
v -0.055136 0.664661 0.038630
v -0.054598 0.665553 0.034850
v -0.054752 0.665912 0.038583
v -0.054972 0.664255 0.036988
v -0.054419 0.665950 0.036849
v -0.054736 0.663993 0.035194
v -0.054801 0.664996 0.038707
v -0.054158 0.665674 0.034996
v -0.054661 0.665453 0.038689
v -0.054535 0.664377 0.037139
v -0.054423 0.664308 0.033149
v -0.054263 0.664755 0.033082
v -0.054130 0.665618 0.037038
v -0.054351 0.663860 0.033303
v -0.054317 0.663873 0.035394
v -0.053915 0.665081 0.033122
v -0.053740 0.665554 0.035196
v -0.054196 0.664710 0.037206
v -0.054048 0.665164 0.037169
v -0.054067 0.663531 0.033504
v -0.053470 0.665199 0.033257
v -0.053878 0.663994 0.035541
v -0.053778 0.663784 0.031362
v -0.053614 0.664228 0.031285
v -0.053455 0.665224 0.035396
v -0.053707 0.663337 0.031519
v -0.053646 0.663409 0.033697
v -0.053260 0.664549 0.031308
v -0.053534 0.664324 0.035594
v -0.053049 0.665077 0.033451
v -0.053380 0.664774 0.035541
v -0.053420 0.663006 0.031713
v -0.052809 0.664662 0.031426
v -0.053201 0.663527 0.033832
v -0.053196 0.663217 0.029482
v -0.053029 0.663658 0.029396
v -0.052765 0.664748 0.033651
v -0.053124 0.662769 0.029637
v -0.052995 0.662880 0.031893
v -0.052669 0.663974 0.029401
v -0.052852 0.663853 0.033872
v -0.052383 0.664536 0.031606
v -0.052693 0.664300 0.033806
v -0.052833 0.662435 0.029818
v -0.052211 0.664080 0.029496
v -0.052709 0.662623 0.027503
v -0.052541 0.663062 0.027409
v -0.052544 0.662993 0.032011
v -0.052636 0.662174 0.027651
v -0.052097 0.664205 0.031800
v -0.052176 0.663372 0.027394
v -0.052401 0.662302 0.029978
v -0.052189 0.663314 0.032034
v -0.052341 0.661833 0.027813
v -0.051779 0.663948 0.029655
v -0.052026 0.663758 0.031957
v -0.052354 0.662019 0.025419
v -0.052184 0.662455 0.025318
v -0.051712 0.663469 0.027461
v -0.052279 0.661566 0.025556
v -0.051943 0.662409 0.030073
v -0.051815 0.662759 0.025280
v -0.051902 0.661693 0.027946
v -0.051488 0.663613 0.029837
v -0.052163 0.661419 0.023222
v -0.051993 0.661854 0.023115
v -0.051979 0.661218 0.025692
v -0.052086 0.660962 0.023344
v -0.051273 0.663329 0.027594
v -0.052170 0.660839 0.020903
v -0.052000 0.661273 0.020792
v -0.052094 0.660378 0.021008
v -0.051622 0.662151 0.023053
v -0.051583 0.662724 0.030078
v -0.051346 0.662847 0.025315
v -0.051784 0.660606 0.023450
v -0.051792 0.660013 0.021080
v -0.051417 0.663165 0.029991
v -0.051629 0.661563 0.020704
v -0.051535 0.661068 0.025792
v -0.051438 0.661791 0.028013
v -0.051149 0.662230 0.023052
v -0.051336 0.660446 0.023511
v -0.051344 0.659843 0.021098
v -0.050977 0.662989 0.027755
v -0.050901 0.662697 0.025414
v -0.051157 0.661633 0.020665
v -0.051073 0.662100 0.027998
v -0.051065 0.661157 0.025827
v -0.050904 0.662539 0.027903
v -0.050864 0.660525 0.023510
v -0.050872 0.659912 0.021058
v -0.050701 0.662069 0.023113
v -0.050602 0.662350 0.025551
v -0.050709 0.661462 0.020683
v -0.050696 0.661460 0.025789
v -0.050526 0.661897 0.025688
v -0.050399 0.661713 0.023218
v -0.050493 0.660821 0.023448
v -0.050501 0.660202 0.020971
v -0.050407 0.661097 0.020754
v -0.050323 0.661256 0.023341
v -0.050331 0.660636 0.020860
v -0.060020 0.679371 0.042857
v -0.058839 0.679149 0.041447
v -0.059993 0.679804 0.042654
v -0.059865 0.679054 0.043180
v -0.058871 0.678718 0.041655
v -0.058624 0.679575 0.041407
v -0.059790 0.680238 0.042626
v -0.059568 0.678938 0.043538
v -0.058712 0.678399 0.041975
v -0.058285 0.679884 0.041547
v -0.059467 0.680555 0.042782
v -0.059210 0.679054 0.043834
v -0.058405 0.678277 0.042322
v -0.057912 0.679992 0.041827
v -0.059108 0.680671 0.043078
v -0.058886 0.679371 0.043989
v -0.058032 0.678385 0.042603
v -0.057606 0.679870 0.042174
v -0.058812 0.680555 0.043436
v -0.058683 0.679804 0.043962
v -0.057693 0.678694 0.042742
v -0.057733 0.678438 0.040174
v -0.057768 0.678010 0.040385
v -0.057509 0.678859 0.040123
v -0.057447 0.679551 0.042495
v -0.058656 0.680238 0.043759
v -0.057604 0.677687 0.040700
v -0.057479 0.679120 0.042703
v -0.057156 0.679158 0.040246
v -0.057286 0.677558 0.041034
v -0.056768 0.679257 0.040510
v -0.056898 0.677657 0.041298
v -0.056450 0.679128 0.040844
v -0.056688 0.677686 0.038830
v -0.056723 0.677257 0.039042
v -0.056456 0.678101 0.038769
v -0.056545 0.677956 0.041421
v -0.056553 0.676930 0.039347
v -0.056286 0.678805 0.041159
v -0.056090 0.678391 0.038875
v -0.056321 0.678377 0.041370
v -0.056222 0.676792 0.039665
v -0.055687 0.678478 0.039120
v -0.055819 0.676880 0.039910
v -0.055356 0.678340 0.039437
v -0.055716 0.676903 0.037407
v -0.055750 0.676474 0.037617
v -0.055477 0.677313 0.037337
v -0.055571 0.676140 0.037911
v -0.055453 0.677170 0.040016
v -0.055099 0.677593 0.037425
v -0.055186 0.678013 0.039743
v -0.055221 0.677585 0.039955
v -0.055227 0.675991 0.038209
v -0.054682 0.677669 0.037649
v -0.054810 0.676068 0.038433
v -0.054828 0.676102 0.035898
v -0.054860 0.675671 0.036104
v -0.054585 0.676508 0.035820
v -0.054339 0.677521 0.037947
v -0.054672 0.675329 0.036382
v -0.054196 0.676778 0.035890
v -0.054432 0.676348 0.038521
v -0.054160 0.677187 0.038241
v -0.054315 0.675168 0.036659
v -0.054194 0.676758 0.038451
v -0.053765 0.676842 0.036090
v -0.054036 0.675295 0.034297
v -0.054065 0.674860 0.034497
v -0.053790 0.675697 0.034212
v -0.053884 0.675232 0.036858
v -0.053868 0.674509 0.034756
v -0.053408 0.676682 0.036366
v -0.053391 0.675958 0.034263
v -0.053495 0.675503 0.036929
v -0.053220 0.676340 0.036644
v -0.053498 0.674335 0.035006
v -0.053252 0.675908 0.036850
v -0.052948 0.676009 0.034437
v -0.053352 0.674493 0.032597
v -0.053377 0.674054 0.032787
v -0.053103 0.674892 0.032505
v -0.053171 0.673692 0.033024
v -0.053054 0.674386 0.035180
v -0.052697 0.675144 0.032536
v -0.052578 0.675835 0.034687
v -0.052789 0.673505 0.033245
v -0.052656 0.674647 0.035231
v -0.052381 0.675484 0.034946
v -0.052788 0.673708 0.030789
v -0.052809 0.673264 0.030967
v -0.052242 0.675181 0.032681
v -0.052537 0.674105 0.030692
v -0.052409 0.675049 0.035145
v -0.052595 0.672891 0.031178
v -0.052124 0.674348 0.030702
v -0.052334 0.673542 0.033390
v -0.051860 0.674994 0.032902
v -0.052354 0.672952 0.028866
v -0.052371 0.672502 0.029030
v -0.052203 0.672690 0.031367
v -0.052102 0.673347 0.028765
v -0.051660 0.674372 0.030817
v -0.051928 0.673794 0.033421
v -0.052151 0.672118 0.029213
v -0.051654 0.674632 0.033139
v -0.051685 0.673582 0.028754
v -0.051679 0.674193 0.033329
v -0.052062 0.672235 0.026819
v -0.052078 0.671780 0.026967
v -0.051810 0.672629 0.026715
v -0.051738 0.672714 0.031482
v -0.051268 0.674171 0.031006
v -0.051751 0.671903 0.029366
v -0.051853 0.671385 0.027119
v -0.051213 0.673593 0.028837
v -0.051926 0.671569 0.024640
v -0.051940 0.671108 0.024770
v -0.051390 0.672857 0.026684
v -0.051674 0.671963 0.024535
v -0.051971 0.670501 0.022431
v -0.051957 0.670966 0.022319
v -0.051713 0.670704 0.024889
v -0.051745 0.670087 0.022517
v -0.051705 0.671360 0.022214
v -0.051325 0.672957 0.031492
v -0.051448 0.671157 0.027235
v -0.051054 0.673798 0.031217
v -0.051252 0.672184 0.024483
v -0.051306 0.670464 0.024967
v -0.051338 0.669837 0.022556
v -0.051279 0.671914 0.029448
v -0.051283 0.671576 0.022142
v -0.050913 0.672856 0.026733
v -0.051075 0.673354 0.031395
v -0.050813 0.673378 0.028990
v -0.050971 0.671156 0.027284
v -0.050773 0.672173 0.024497
v -0.050827 0.670453 0.024982
v -0.050860 0.669818 0.022537
v -0.050862 0.672149 0.029438
v -0.050805 0.671556 0.022122
v -0.050593 0.672994 0.029173
v -0.050508 0.672628 0.026849
v -0.050610 0.672544 0.029337
v -0.050551 0.671384 0.027252
v -0.050366 0.671933 0.024575
v -0.050405 0.670674 0.024930
v -0.050438 0.670034 0.022465
v -0.050398 0.671306 0.022161
v -0.050283 0.672233 0.027001
v -0.050299 0.671778 0.027149
v -0.050139 0.671529 0.024695
v -0.050153 0.671068 0.024825
v -0.050186 0.670427 0.022359
v -0.050172 0.670893 0.022248
v -0.065937 0.715995 0.044522
v -0.064154 0.714971 0.042694
v -0.065862 0.716397 0.044272
v -0.065816 0.715701 0.044880
v -0.064253 0.714589 0.042966
v -0.063890 0.715361 0.042607
v -0.065612 0.716799 0.044198
v -0.065533 0.715593 0.045252
v -0.064160 0.714318 0.043351
v -0.063532 0.715655 0.042728
v -0.065254 0.717093 0.044319
v -0.065163 0.715701 0.045536
v -0.063901 0.714230 0.043744
v -0.063175 0.715774 0.043025
v -0.064883 0.717201 0.044603
v -0.064804 0.715995 0.045657
v -0.063544 0.714349 0.044040
v -0.062916 0.715687 0.043418
v -0.064600 0.717093 0.044975
v -0.064554 0.716397 0.045583
v -0.063186 0.714643 0.044162
v -0.062823 0.715415 0.043802
v -0.064480 0.716799 0.045333
v -0.062922 0.715034 0.044074
v -0.062747 0.713236 0.041785
v -0.062624 0.713596 0.041493
v -0.062682 0.712990 0.042191
v -0.062344 0.713972 0.041394
v -0.062446 0.712923 0.042602
v -0.061984 0.714264 0.041513
v -0.062101 0.713053 0.042908
v -0.061639 0.714395 0.041820
v -0.061741 0.713346 0.043028
v -0.061403 0.714327 0.042231
v -0.061462 0.713722 0.042929
v -0.061338 0.714081 0.042637
v -0.061413 0.711942 0.040891
v -0.061267 0.712279 0.040584
v -0.061372 0.711719 0.041313
v -0.060972 0.712640 0.040473
v -0.061154 0.711670 0.041737
v -0.060607 0.712928 0.040590
v -0.060818 0.711808 0.042049
v -0.060270 0.713066 0.040902
v -0.060453 0.712096 0.042165
v -0.060052 0.713017 0.041326
v -0.060158 0.712457 0.042055
v -0.060245 0.710712 0.040198
v -0.060080 0.711030 0.039880
v -0.060011 0.712794 0.041748
v -0.060219 0.710506 0.040629
v -0.059770 0.711376 0.039761
v -0.060011 0.710467 0.041059
v -0.059398 0.711655 0.039872
v -0.059676 0.710606 0.041372
v -0.059062 0.711795 0.040185
v -0.059303 0.710886 0.041484
v -0.058854 0.711756 0.040615
v -0.059233 0.709552 0.039619
v -0.059060 0.709860 0.039295
v -0.059212 0.709351 0.040053
v -0.058993 0.711231 0.041365
v -0.058738 0.710191 0.039169
v -0.058829 0.711550 0.041047
v -0.059002 0.709310 0.040482
v -0.058354 0.710458 0.039274
v -0.058659 0.709440 0.040790
v -0.058011 0.710589 0.039582
v -0.058276 0.709707 0.040895
v -0.058370 0.708467 0.039069
v -0.058197 0.708776 0.038746
v -0.058339 0.708253 0.039497
v -0.057868 0.709098 0.038615
v -0.057801 0.710548 0.040011
v -0.058113 0.708193 0.039915
v -0.057954 0.710039 0.040769
v -0.057780 0.710347 0.040445
v -0.057470 0.709347 0.038711
v -0.057753 0.708302 0.040212
v -0.057641 0.707457 0.038466
v -0.057481 0.707783 0.038153
v -0.057110 0.709456 0.039008
v -0.057587 0.707211 0.038874
v -0.057355 0.708551 0.040308
v -0.057149 0.708102 0.038021
v -0.057334 0.707113 0.039268
v -0.056884 0.709396 0.039426
v -0.057026 0.708873 0.040177
v -0.056735 0.708329 0.038103
v -0.056854 0.709183 0.039854
v -0.056949 0.707187 0.039543
v -0.057030 0.706516 0.037725
v -0.056889 0.706872 0.037437
v -0.056945 0.706223 0.038095
v -0.056560 0.707196 0.037308
v -0.056350 0.708404 0.038378
v -0.056535 0.707414 0.039625
v -0.056657 0.706072 0.038447
v -0.056132 0.707400 0.037371
v -0.056097 0.708305 0.038772
v -0.056517 0.705631 0.036756
v -0.056396 0.706022 0.036506
v -0.056203 0.707733 0.039493
v -0.056402 0.705287 0.037068
v -0.056244 0.706102 0.038687
v -0.056073 0.706355 0.036387
v -0.056043 0.708059 0.039180
v -0.055718 0.707431 0.037611
v -0.056083 0.705082 0.037361
v -0.056087 0.704793 0.035457
v -0.055982 0.705214 0.035254
v -0.055634 0.706541 0.036430
v -0.055815 0.706307 0.038751
v -0.055950 0.704406 0.035705
v -0.055664 0.705557 0.035150
v -0.055431 0.707280 0.037963
v -0.055645 0.705070 0.037554
v -0.055487 0.706631 0.038621
v -0.055196 0.706529 0.036623
v -0.055637 0.704443 0.033571
v -0.055732 0.704000 0.033729
v -0.055608 0.704158 0.035931
v -0.055346 0.706987 0.038333
v -0.055218 0.705730 0.035174
v -0.055323 0.704794 0.033485
v -0.055582 0.703586 0.033916
v -0.055205 0.705256 0.037597
v -0.055356 0.703717 0.031363
v -0.055446 0.703261 0.031482
v -0.054876 0.706324 0.036916
v -0.054873 0.704960 0.033494
v -0.055044 0.704074 0.031294
v -0.055154 0.704115 0.036076
v -0.054764 0.705687 0.035318
v -0.055227 0.703310 0.034083
v -0.055289 0.702830 0.031618
v -0.054882 0.705589 0.037478
v -0.054761 0.705980 0.037229
v -0.054594 0.704237 0.031294
v -0.054928 0.702537 0.031736
v -0.054764 0.703246 0.034185
v -0.054409 0.704897 0.033596
v -0.054708 0.704288 0.036099
v -0.054422 0.705439 0.035545
v -0.054460 0.702463 0.031804
v -0.054125 0.704162 0.031361
v -0.054390 0.704631 0.035996
v -0.054285 0.705052 0.035793
v -0.054314 0.703413 0.034194
v -0.054055 0.704621 0.033763
v -0.054009 0.702626 0.031803
v -0.053764 0.703870 0.031479
v -0.053905 0.704207 0.033950
v -0.054000 0.703764 0.034108
v -0.053608 0.703438 0.031616
v -0.053698 0.702983 0.031734
v -0.074703 0.536542 -0.027202
v -0.076966 0.538033 -0.029168
v -0.077018 0.538231 -0.028877
v -0.074805 0.536777 -0.026954
v -0.076916 0.538496 -0.028661
v -0.074506 0.536459 -0.027487
v -0.076773 0.537954 -0.029457
v -0.074784 0.537103 -0.026812
v -0.076686 0.538756 -0.028579
v -0.074267 0.536553 -0.027734
v -0.076491 0.538015 -0.029666
v -0.074647 0.537432 -0.026812
v -0.076391 0.538941 -0.028652
v -0.074049 0.536796 -0.027877
v -0.076196 0.538200 -0.029739
v -0.074429 0.537675 -0.026954
v -0.076109 0.539002 -0.028861
v -0.073912 0.537125 -0.027877
v -0.075966 0.538460 -0.029657
v -0.074190 0.537768 -0.027201
v -0.075916 0.538923 -0.029150
v -0.073891 0.537451 -0.027734
v -0.075864 0.538724 -0.029441
v -0.073993 0.537686 -0.027487
v -0.071484 0.536055 -0.024424
v -0.071350 0.535811 -0.024647
v -0.071517 0.536395 -0.024323
v -0.071151 0.535729 -0.024931
v -0.071440 0.536740 -0.024370
v -0.070940 0.535829 -0.025199
v -0.071273 0.536997 -0.024552
v -0.070774 0.536086 -0.025382
v -0.071063 0.537098 -0.024821
v -0.070697 0.536431 -0.025428
v -0.070863 0.537015 -0.025104
v -0.070730 0.536771 -0.025327
v -0.067279 0.535911 -0.021418
v -0.067341 0.536252 -0.021337
v -0.067128 0.535666 -0.021628
v -0.067297 0.536599 -0.021408
v -0.066928 0.535583 -0.021911
v -0.067159 0.536857 -0.021610
v -0.066733 0.535684 -0.022192
v -0.066964 0.536959 -0.021891
v -0.066595 0.535943 -0.022394
v -0.066764 0.536876 -0.022174
v -0.066551 0.536290 -0.022464
v -0.066613 0.536631 -0.022384
v -0.062479 0.536563 -0.017997
v -0.062401 0.536223 -0.018066
v -0.062455 0.536909 -0.018081
v -0.062240 0.535978 -0.018269
v -0.062334 0.537167 -0.018295
v -0.062040 0.535896 -0.018553
v -0.062149 0.537268 -0.018582
v -0.061855 0.535997 -0.018840
v -0.061950 0.537185 -0.018866
v -0.061734 0.536254 -0.019054
v -0.061789 0.536940 -0.019069
v -0.061710 0.536600 -0.019138
v -0.057159 0.537223 -0.014447
v -0.057069 0.536884 -0.014509
v -0.057147 0.537567 -0.014539
v -0.056903 0.536640 -0.014708
v -0.057038 0.537823 -0.014761
v -0.056704 0.536557 -0.014992
v -0.056860 0.537923 -0.015053
v -0.056526 0.536657 -0.015284
v -0.056661 0.537841 -0.015337
v -0.056416 0.536914 -0.015506
v -0.056494 0.537597 -0.015537
v -0.056405 0.537257 -0.015598
v -0.051606 0.538125 -0.010834
v -0.051510 0.537787 -0.010891
v -0.051603 0.538468 -0.010932
v -0.051340 0.537544 -0.011089
v -0.051501 0.538723 -0.011159
v -0.051143 0.537461 -0.011374
v -0.051329 0.538822 -0.011454
v -0.050970 0.537560 -0.011669
v -0.051131 0.538739 -0.011739
v -0.050869 0.537815 -0.011896
v -0.050962 0.538496 -0.011937
v -0.050866 0.538158 -0.011994
v -0.046049 0.539166 -0.007304
v -0.045949 0.538828 -0.007359
v -0.046052 0.539507 -0.007406
v -0.045778 0.538585 -0.007556
v -0.045956 0.539761 -0.007637
v -0.045583 0.538502 -0.007842
v -0.045788 0.539860 -0.007935
v -0.045415 0.538600 -0.008141
v -0.045593 0.539776 -0.008221
v -0.045319 0.538854 -0.008372
v -0.045422 0.539533 -0.008418
v -0.045322 0.539196 -0.008473
v -0.040716 0.540239 -0.004005
v -0.040614 0.539902 -0.004059
v -0.040722 0.540580 -0.004109
v -0.040445 0.539658 -0.004257
v -0.040631 0.540833 -0.004343
v -0.040252 0.539574 -0.004545
v -0.040467 0.540930 -0.004644
v -0.040089 0.539672 -0.004846
v -0.040275 0.540846 -0.004932
v -0.039998 0.539925 -0.005080
v -0.040106 0.540603 -0.005129
v -0.040004 0.540266 -0.005184
v -0.035833 0.541240 -0.001083
v -0.035733 0.540902 -0.001138
v -0.035840 0.541581 -0.001187
v -0.035753 0.541833 -0.001423
v -0.035568 0.540658 -0.001338
v -0.035595 0.541929 -0.001728
v -0.035380 0.540573 -0.001629
v -0.035408 0.541844 -0.002019
v -0.035222 0.540670 -0.001933
v -0.035242 0.541600 -0.002218
v -0.035135 0.540922 -0.002169
v -0.035142 0.541263 -0.002273
v -0.031627 0.542064 0.001317
v -0.031534 0.541725 0.001258
v -0.031632 0.542405 0.001214
v -0.031547 0.542657 0.000976
v -0.031377 0.541480 0.001053
v -0.031396 0.542752 0.000668
v -0.031200 0.541393 0.000756
v -0.031218 0.542665 0.000372
v -0.031048 0.541488 0.000448
v -0.031062 0.542420 0.000167
v -0.030964 0.541740 0.000211
v -0.030969 0.542081 0.000108
v -0.028311 0.542608 0.003052
v -0.028239 0.542266 0.002983
v -0.028305 0.542951 0.002955
v -0.028222 0.543202 0.002717
v -0.028108 0.542017 0.002765
v -0.028085 0.543295 0.002401
v -0.027953 0.541926 0.002457
v -0.027930 0.543205 0.002094
v -0.027815 0.542019 0.002142
v -0.027798 0.542956 0.001876
v -0.027732 0.542271 0.001904
v -0.027726 0.542614 0.001806
v -0.026073 0.542761 0.003987
v -0.026064 0.542417 0.003893
v -0.026031 0.543105 0.003903
v -0.026005 0.542166 0.003648
v -0.025947 0.543356 0.003665
v -0.025913 0.542073 0.003316
v -0.025846 0.543448 0.003336
v -0.025812 0.542166 0.002987
v -0.025754 0.543356 0.003004
v -0.025729 0.542417 0.002749
v -0.025695 0.543105 0.002759
v -0.025686 0.542761 0.002666
usemtl Perforating_branches__Dodd_s_veins__rMaterial0
f 1 2 3
f 4 5 2
f 4 2 1
f 6 3 7
f 1 3 6
f 8 9 5
f 8 5 4
f 10 7 11
f 6 7 10
f 12 13 9
f 12 9 8
f 14 11 15
f 10 11 14
f 16 17 13
f 16 13 12
f 18 15 19
f 14 15 18
f 20 21 17
f 20 17 16
f 22 19 23
f 18 19 22
f 24 23 21
f 24 21 20
f 25 1 6
f 26 4 1
f 26 1 25
f 27 6 10
f 25 6 27
f 22 23 24
f 28 8 4
f 28 4 26
f 29 10 14
f 27 10 29
f 30 12 8
f 30 8 28
f 31 14 18
f 29 14 31
f 32 16 12
f 32 12 30
f 33 18 22
f 31 18 33
f 34 20 16
f 34 16 32
f 35 22 24
f 33 22 35
f 36 24 20
f 36 20 34
f 35 24 36
f 37 25 27
f 38 26 25
f 38 25 37
f 39 27 29
f 37 27 39
f 40 28 26
f 40 26 38
f 41 29 31
f 39 29 41
f 42 30 28
f 42 28 40
f 43 31 33
f 41 31 43
f 44 32 30
f 44 30 42
f 45 33 35
f 43 33 45
f 46 34 32
f 46 32 44
f 47 35 36
f 45 35 47
f 48 36 34
f 48 34 46
f 47 36 48
f 49 37 39
f 50 39 41
f 49 39 50
f 51 38 37
f 51 37 49
f 52 41 43
f 50 41 52
f 53 40 38
f 53 38 51
f 54 43 45
f 52 43 54
f 55 42 40
f 55 40 53
f 56 45 47
f 54 45 56
f 57 44 42
f 57 42 55
f 58 47 48
f 56 47 58
f 59 46 44
f 59 44 57
f 60 48 46
f 58 48 60
f 60 46 59
f 61 49 50
f 62 50 52
f 61 50 62
f 63 51 49
f 63 49 61
f 64 52 54
f 62 52 64
f 65 53 51
f 65 51 63
f 66 54 56
f 64 54 66
f 67 55 53
f 67 53 65
f 68 56 58
f 66 56 68
f 69 57 55
f 69 55 67
f 70 58 60
f 68 58 70
f 71 59 57
f 71 57 69
f 72 60 59
f 70 60 72
f 72 59 71
f 73 62 64
f 74 61 62
f 74 62 73
f 75 64 66
f 73 64 75
f 76 63 61
f 76 61 74
f 77 66 68
f 75 66 77
f 78 65 63
f 78 63 76
f 79 68 70
f 77 68 79
f 80 67 65
f 80 65 78
f 81 70 72
f 79 70 81
f 82 69 67
f 82 67 80
f 83 72 71
f 81 72 83
f 84 71 69
f 84 69 82
f 83 71 84
f 85 73 75
f 86 74 73
f 86 73 85
f 87 75 77
f 85 75 87
f 88 76 74
f 88 74 86
f 89 77 79
f 87 77 89
f 90 78 76
f 90 76 88
f 91 79 81
f 89 79 91
f 92 80 78
f 92 78 90
f 93 81 83
f 91 81 93
f 94 82 80
f 94 80 92
f 95 83 84
f 93 83 95
f 96 84 82
f 96 82 94
f 95 84 96
f 97 85 87
f 98 86 85
f 98 85 97
f 99 87 89
f 97 87 99
f 100 88 86
f 100 86 98
f 101 89 91
f 99 89 101
f 102 90 88
f 102 88 100
f 103 91 93
f 101 91 103
f 104 92 90
f 104 90 102
f 105 93 95
f 103 93 105
f 106 94 92
f 106 92 104
f 107 95 96
f 105 95 107
f 108 96 94
f 108 94 106
f 107 96 108
f 109 97 99
f 110 98 97
f 110 97 109
f 111 99 101
f 109 99 111
f 112 100 98
f 112 98 110
f 113 101 103
f 111 101 113
f 114 102 100
f 114 100 112
f 115 103 105
f 113 103 115
f 116 104 102
f 116 102 114
f 117 105 107
f 115 105 117
f 118 106 104
f 118 104 116
f 119 107 108
f 117 107 119
f 120 108 106
f 120 106 118
f 119 108 120
f 121 109 111
f 122 110 109
f 122 109 121
f 123 111 113
f 121 111 123
f 124 112 110
f 124 110 122
f 125 113 115
f 123 113 125
f 126 114 112
f 126 112 124
f 127 115 117
f 125 115 127
f 128 116 114
f 128 114 126
f 129 117 119
f 127 117 129
f 130 118 116
f 130 116 128
f 131 119 120
f 129 119 131
f 132 120 118
f 132 118 130
f 131 120 132
f 133 121 123
f 134 122 121
f 134 121 133
f 135 123 125
f 133 123 135
f 136 124 122
f 136 122 134
f 137 125 127
f 135 125 137
f 138 126 124
f 138 124 136
f 139 127 129
f 137 127 139
f 140 128 126
f 140 126 138
f 141 129 131
f 139 129 141
f 142 130 128
f 142 128 140
f 143 131 132
f 141 131 143
f 144 132 130
f 144 130 142
f 143 132 144
f 145 133 135
f 146 134 133
f 146 133 145
f 147 135 137
f 145 135 147
f 148 136 134
f 148 134 146
f 149 137 139
f 147 137 149
f 150 138 136
f 150 136 148
f 151 139 141
f 149 139 151
f 152 140 138
f 152 138 150
f 153 141 143
f 151 141 153
f 154 142 140
f 154 140 152
f 155 143 144
f 153 143 155
f 156 144 142
f 156 142 154
f 155 144 156
f 157 145 147
f 158 146 145
f 158 145 157
f 159 147 149
f 157 147 159
f 160 148 146
f 160 146 158
f 161 149 151
f 159 149 161
f 162 150 148
f 162 148 160
f 163 151 153
f 161 151 163
f 164 152 150
f 164 150 162
f 165 153 155
f 163 153 165
f 166 154 152
f 166 152 164
f 167 155 156
f 165 155 167
f 168 156 154
f 168 154 166
f 167 156 168
f 169 159 161
f 170 157 159
f 170 159 169
f 171 161 163
f 169 161 171
f 172 158 157
f 172 157 170
f 173 163 165
f 171 163 173
f 174 160 158
f 174 158 172
f 175 165 167
f 173 165 175
f 176 162 160
f 176 160 174
f 177 167 168
f 175 167 177
f 178 164 162
f 178 162 176
f 179 168 166
f 177 168 179
f 180 166 164
f 180 164 178
f 179 166 180
f 181 171 173
f 182 169 171
f 182 171 181
f 183 173 175
f 181 173 183
f 184 170 169
f 184 169 182
f 185 175 177
f 183 175 185
f 186 172 170
f 186 170 184
f 187 177 179
f 185 177 187
f 188 174 172
f 188 172 186
f 189 179 180
f 187 179 189
f 190 176 174
f 190 174 188
f 191 180 178
f 189 180 191
f 192 178 176
f 192 176 190
f 191 178 192
f 193 181 183
f 194 182 181
f 194 181 193
f 195 183 185
f 193 183 195
f 196 184 182
f 196 182 194
f 197 185 187
f 195 185 197
f 198 186 184
f 198 184 196
f 199 187 189
f 197 187 199
f 200 188 186
f 200 186 198
f 201 189 191
f 199 189 201
f 202 190 188
f 202 188 200
f 203 191 192
f 201 191 203
f 204 192 190
f 204 190 202
f 203 192 204
f 205 193 195
f 206 195 197
f 205 195 206
f 207 194 193
f 207 193 205
f 208 197 199
f 206 197 208
f 209 196 194
f 209 194 207
f 210 199 201
f 208 199 210
f 211 198 196
f 211 196 209
f 212 201 203
f 210 201 212
f 213 200 198
f 213 198 211
f 214 203 204
f 212 203 214
f 215 202 200
f 215 200 213
f 216 204 202
f 214 204 216
f 216 202 215
f 217 205 206
f 218 206 208
f 217 206 218
f 219 207 205
f 219 205 217
f 220 208 210
f 218 208 220
f 221 209 207
f 221 207 219
f 222 210 212
f 220 210 222
f 223 211 209
f 223 209 221
f 224 212 214
f 222 212 224
f 225 213 211
f 225 211 223
f 226 214 216
f 224 214 226
f 227 215 213
f 227 213 225
f 228 216 215
f 226 216 228
f 228 215 227
f 229 217 218
f 230 218 220
f 229 218 230
f 231 219 217
f 231 217 229
f 232 220 222
f 230 220 232
f 233 221 219
f 233 219 231
f 234 222 224
f 232 222 234
f 235 223 221
f 235 221 233
f 236 224 226
f 234 224 236
f 237 225 223
f 237 223 235
f 238 226 228
f 236 226 238
f 239 227 225
f 239 225 237
f 240 228 227
f 238 228 240
f 240 227 239
f 241 229 230
f 242 230 232
f 241 230 242
f 243 231 229
f 243 229 241
f 244 232 234
f 242 232 244
f 245 233 231
f 245 231 243
f 246 234 236
f 244 234 246
f 247 235 233
f 247 233 245
f 248 236 238
f 246 236 248
f 249 237 235
f 249 235 247
f 250 238 240
f 248 238 250
f 251 239 237
f 251 237 249
f 252 240 239
f 250 240 252
f 252 239 251
f 253 242 244
f 254 241 242
f 254 242 253
f 255 244 246
f 253 244 255
f 256 243 241
f 256 241 254
f 257 246 248
f 255 246 257
f 258 245 243
f 258 243 256
f 259 248 250
f 257 248 259
f 260 247 245
f 260 245 258
f 261 250 252
f 259 250 261
f 262 249 247
f 262 247 260
f 263 252 251
f 261 252 263
f 264 251 249
f 264 249 262
f 263 251 264
f 265 253 255
f 266 254 253
f 266 253 265
f 267 255 257
f 265 255 267
f 268 256 254
f 268 254 266
f 269 257 259
f 267 257 269
f 270 258 256
f 270 256 268
f 271 259 261
f 269 259 271
f 272 260 258
f 272 258 270
f 273 261 263
f 271 261 273
f 274 262 260
f 274 260 272
f 275 263 264
f 273 263 275
f 276 264 262
f 276 262 274
f 275 264 276
f 277 265 267
f 278 266 265
f 278 265 277
f 279 267 269
f 277 267 279
f 280 268 266
f 280 266 278
f 281 269 271
f 279 269 281
f 282 270 268
f 282 268 280
f 283 271 273
f 281 271 283
f 284 272 270
f 284 270 282
f 285 273 275
f 283 273 285
f 286 274 272
f 286 272 284
f 287 275 276
f 285 275 287
f 288 276 274
f 288 274 286
f 287 276 288
f 289 277 279
f 290 278 277
f 290 277 289
f 291 279 281
f 289 279 291
f 292 280 278
f 292 278 290
f 293 281 283
f 291 281 293
f 294 282 280
f 294 280 292
f 295 283 285
f 293 283 295
f 296 284 282
f 296 282 294
f 297 285 287
f 295 285 297
f 298 286 284
f 298 284 296
f 299 287 288
f 297 287 299
f 300 288 286
f 300 286 298
f 299 288 300
f 301 302 303
f 304 305 301
f 301 305 302
f 303 302 306
f 303 306 307
f 304 308 305
f 309 308 304
f 308 310 305
f 305 311 302
f 305 310 311
f 309 312 308
f 308 313 310
f 312 313 308
f 302 314 306
f 302 311 314
f 307 306 315
f 307 315 316
f 317 312 309
f 313 318 310
f 310 319 311
f 310 318 319
f 312 320 313
f 317 321 312
f 321 320 312
f 306 314 322
f 306 322 315
f 320 323 313
f 313 323 318
f 311 324 314
f 311 319 324
f 316 315 325
f 316 325 326
f 327 321 317
f 321 328 320
f 320 329 323
f 328 329 320
f 327 330 321
f 330 328 321
f 314 331 322
f 314 324 331
f 315 332 325
f 315 322 332
f 323 333 318
f 318 334 319
f 318 333 334
f 329 335 323
f 323 335 333
f 326 325 336
f 326 336 337
f 338 330 327
f 319 339 324
f 319 334 339
f 330 340 328
f 328 341 329
f 340 341 328
f 338 342 330
f 342 340 330
f 325 343 336
f 325 332 343
f 322 344 332
f 322 331 344
f 329 345 335
f 341 345 329
f 337 346 347
f 337 336 346
f 347 342 338
f 324 348 331
f 324 339 348
f 347 346 342
f 335 349 333
f 333 350 334
f 333 349 350
f 345 351 335
f 335 351 349
f 342 352 340
f 346 352 342
f 336 353 346
f 336 343 353
f 340 354 341
f 352 354 340
f 334 355 339
f 334 350 355
f 332 356 343
f 332 344 356
f 341 357 345
f 354 357 341
f 346 353 352
f 331 358 344
f 331 348 358
f 345 359 351
f 357 359 345
f 353 360 352
f 352 360 354
f 339 361 348
f 339 355 361
f 343 362 353
f 343 356 362
f 353 362 360
f 354 363 357
f 360 363 354
f 351 364 349
f 349 365 350
f 349 364 365
f 344 366 356
f 344 358 366
f 359 367 351
f 351 367 364
f 357 368 359
f 363 368 357
f 350 369 355
f 350 365 369
f 348 370 358
f 348 361 370
f 362 371 360
f 360 371 363
f 356 372 362
f 356 366 372
f 359 373 367
f 368 373 359
f 362 372 371
f 355 374 361
f 355 369 374
f 363 375 368
f 371 375 363
f 367 376 364
f 364 377 365
f 364 376 377
f 358 378 366
f 358 370 378
f 373 379 367
f 367 379 376
f 368 380 373
f 375 380 368
f 365 381 369
f 365 377 381
f 372 382 371
f 371 382 375
f 361 383 370
f 361 374 383
f 366 384 372
f 366 378 384
f 373 385 379
f 380 385 373
f 372 384 382
f 369 386 374
f 369 381 386
f 375 387 380
f 382 387 375
f 379 388 376
f 376 389 377
f 376 388 389
f 370 390 378
f 370 383 390
f 385 391 379
f 379 391 388
f 380 392 385
f 387 392 380
f 377 393 381
f 377 389 393
f 384 394 382
f 382 394 387
f 374 395 383
f 374 386 395
f 378 396 384
f 378 390 396
f 385 397 391
f 392 397 385
f 384 396 394
f 381 398 386
f 381 393 398
f 391 399 388
f 388 400 389
f 388 399 400
f 387 401 392
f 394 401 387
f 397 402 391
f 391 402 399
f 383 403 390
f 383 395 403
f 389 404 393
f 389 400 404
f 392 405 397
f 401 405 392
f 396 406 394
f 394 406 401
f 397 407 402
f 405 407 397
f 386 408 395
f 386 398 408
f 390 409 396
f 390 403 409
f 402 410 399
f 399 411 400
f 399 410 411
f 396 409 406
f 393 412 398
f 393 404 412
f 402 413 410
f 407 413 402
f 401 414 405
f 406 414 401
f 400 411 415
f 400 415 404
f 405 416 407
f 414 416 405
f 395 417 403
f 395 408 417
f 413 418 410
f 410 418 419
f 410 419 411
f 407 420 413
f 416 420 407
f 413 421 418
f 420 421 413
f 398 422 408
f 398 412 422
f 421 423 418
f 418 423 424
f 421 425 423
f 418 424 419
f 411 419 426
f 411 426 415
f 409 427 406
f 406 427 414
f 404 415 428
f 404 428 412
f 429 425 421
f 429 430 425
f 420 429 421
f 403 431 409
f 403 417 431
f 409 431 427
f 419 424 432
f 419 432 426
f 416 433 420
f 433 429 420
f 414 434 416
f 427 434 414
f 434 433 416
f 415 426 435
f 415 435 428
f 436 430 429
f 436 437 430
f 433 436 429
f 408 438 417
f 408 422 438
f 412 428 439
f 412 439 422
f 426 432 440
f 426 440 435
f 427 441 434
f 431 441 427
f 434 442 433
f 442 436 433
f 417 443 431
f 417 438 443
f 441 442 434
f 431 443 441
f 444 437 436
f 444 445 437
f 442 444 436
f 428 435 446
f 428 446 439
f 422 447 438
f 422 439 447
f 435 440 448
f 435 448 446
f 441 449 442
f 449 444 442
f 443 449 441
f 438 450 443
f 438 447 450
f 443 450 449
f 439 446 451
f 439 451 447
f 452 445 444
f 452 453 445
f 449 452 444
f 446 448 454
f 450 452 449
f 446 454 451
f 447 455 450
f 447 451 455
f 450 455 452
f 455 453 452
f 455 456 453
f 451 454 456
f 451 456 455
f 457 458 459
f 460 461 457
f 457 461 458
f 459 462 463
f 459 458 462
f 464 465 460
f 460 465 461
f 463 466 467
f 463 462 466
f 468 469 464
f 464 469 465
f 467 470 471
f 467 466 470
f 472 473 468
f 468 473 469
f 471 474 475
f 471 470 474
f 476 477 472
f 472 477 473
f 461 478 458
f 465 479 461
f 461 479 478
f 458 480 462
f 458 478 480
f 475 481 482
f 475 474 481
f 469 483 465
f 465 483 479
f 482 484 476
f 476 484 477
f 482 481 484
f 462 485 466
f 462 480 485
f 473 486 469
f 469 486 483
f 466 487 470
f 466 485 487
f 477 488 473
f 473 488 486
f 470 489 474
f 470 487 489
f 479 490 478
f 483 491 479
f 479 491 490
f 478 492 480
f 478 490 492
f 484 493 477
f 477 493 488
f 486 494 483
f 483 494 491
f 474 495 481
f 474 489 495
f 480 496 485
f 480 492 496
f 481 497 484
f 484 497 493
f 481 495 497
f 488 498 486
f 486 498 494
f 485 499 487
f 485 496 499
f 493 500 488
f 488 500 498
f 487 501 489
f 487 499 501
f 491 502 490
f 494 503 491
f 491 503 502
f 490 504 492
f 490 502 504
f 498 505 494
f 494 505 503
f 497 506 493
f 493 506 500
f 492 507 496
f 492 504 507
f 489 508 495
f 489 501 508
f 495 509 497
f 497 509 506
f 495 508 509
f 500 510 498
f 498 510 505
f 496 511 499
f 496 507 511
f 506 512 500
f 500 512 510
f 503 513 502
f 505 514 503
f 503 514 513
f 502 515 504
f 502 513 515
f 499 516 501
f 499 511 516
f 510 517 505
f 505 517 514
f 504 518 507
f 504 515 518
f 509 519 506
f 506 519 512
f 501 520 508
f 501 516 520
f 512 521 510
f 510 521 517
f 508 522 509
f 509 522 519
f 508 520 522
f 507 523 511
f 507 518 523
f 514 524 513
f 517 525 514
f 514 525 524
f 513 526 515
f 513 524 526
f 519 527 512
f 512 527 521
f 521 528 517
f 517 528 525
f 511 529 516
f 511 523 529
f 515 530 518
f 515 526 530
f 522 531 519
f 519 531 527
f 516 532 520
f 516 529 532
f 521 533 528
f 527 533 521
f 520 534 522
f 522 534 531
f 518 535 523
f 518 530 535
f 520 532 534
f 525 536 524
f 528 537 525
f 525 537 536
f 524 538 526
f 524 536 538
f 533 539 528
f 528 539 537
f 527 540 533
f 531 540 527
f 526 541 530
f 526 538 541
f 523 542 529
f 523 535 542
f 533 543 539
f 540 543 533
f 534 544 531
f 531 544 540
f 529 545 532
f 529 542 545
f 537 546 536
f 539 547 537
f 537 547 546
f 530 548 535
f 530 541 548
f 536 549 538
f 536 546 549
f 532 550 534
f 534 550 544
f 532 545 550
f 539 551 547
f 543 551 539
f 538 552 541
f 538 549 552
f 540 553 543
f 544 553 540
f 535 554 542
f 535 548 554
f 547 555 546
f 551 556 547
f 547 556 555
f 543 557 551
f 553 557 543
f 546 558 549
f 546 555 558
f 541 559 548
f 541 552 559
f 550 560 544
f 544 560 553
f 551 561 556
f 557 561 551
f 542 562 545
f 542 554 562
f 549 563 552
f 549 558 563
f 545 564 550
f 550 564 560
f 556 565 555
f 561 566 556
f 556 566 565
f 545 562 564
f 555 567 558
f 555 565 567
f 553 568 557
f 560 568 553
f 548 569 554
f 548 559 569
f 557 570 561
f 568 570 557
f 561 571 566
f 570 571 561
f 552 563 572
f 552 572 559
f 566 573 565
f 566 574 573
f 571 574 566
f 558 567 575
f 558 575 563
f 565 573 576
f 565 576 567
f 574 577 578
f 579 577 574
f 579 580 577
f 574 578 573
f 573 578 581
f 571 579 574
f 573 581 576
f 560 582 568
f 564 582 560
f 570 583 571
f 583 579 571
f 554 584 562
f 554 569 584
f 567 576 585
f 567 585 575
f 586 580 579
f 586 587 580
f 568 588 570
f 588 583 570
f 582 588 568
f 583 586 579
f 576 581 589
f 576 589 585
f 563 575 590
f 563 590 572
f 562 591 564
f 564 591 582
f 559 592 569
f 559 572 592
f 562 584 591
f 593 586 583
f 588 593 583
f 575 585 594
f 575 594 590
f 595 587 586
f 595 596 587
f 582 597 588
f 591 597 582
f 593 595 586
f 585 589 598
f 597 593 588
f 569 599 584
f 569 592 599
f 585 598 594
f 572 590 600
f 572 600 592
f 584 601 591
f 591 601 597
f 584 599 601
f 597 602 593
f 602 595 593
f 590 594 603
f 590 603 600
f 604 596 595
f 604 605 596
f 601 602 597
f 602 604 595
f 594 598 606
f 592 607 599
f 592 600 607
f 594 606 603
f 599 608 601
f 601 608 602
f 599 607 608
f 608 604 602
f 600 603 609
f 600 609 607
f 610 605 604
f 610 611 605
f 608 610 604
f 603 606 612
f 603 612 609
f 607 610 608
f 607 609 610
f 609 612 611
f 609 611 610
f 613 614 615
f 616 617 613
f 613 617 614
f 615 618 619
f 615 614 618
f 620 621 616
f 616 621 617
f 619 622 623
f 619 618 622
f 624 625 620
f 620 625 621
f 623 626 627
f 623 622 626
f 628 629 624
f 624 629 625
f 627 630 631
f 627 626 630
f 632 633 628
f 628 633 629
f 631 634 635
f 631 630 634
f 635 636 632
f 632 636 633
f 635 634 636
f 621 637 617
f 617 638 614
f 617 637 638
f 625 639 621
f 621 639 637
f 614 640 618
f 614 638 640
f 629 641 625
f 625 641 639
f 618 642 622
f 618 640 642
f 633 643 629
f 629 643 641
f 622 644 626
f 622 642 644
f 636 645 633
f 633 645 643
f 626 646 630
f 626 644 646
f 634 647 636
f 636 647 645
f 630 648 634
f 630 646 648
f 634 648 647
f 639 649 637
f 637 650 638
f 637 649 650
f 641 651 639
f 639 651 649
f 638 652 640
f 638 650 652
f 643 653 641
f 641 653 651
f 640 654 642
f 640 652 654
f 645 655 643
f 643 655 653
f 642 656 644
f 642 654 656
f 647 657 645
f 645 657 655
f 644 658 646
f 644 656 658
f 648 659 647
f 647 659 657
f 651 660 649
f 649 661 650
f 649 660 661
f 646 662 648
f 646 658 662
f 653 663 651
f 651 663 660
f 648 662 659
f 650 664 652
f 650 661 664
f 655 665 653
f 653 665 663
f 652 666 654
f 652 664 666
f 657 667 655
f 655 667 665
f 654 668 656
f 654 666 668
f 659 669 657
f 657 669 667
f 656 670 658
f 656 668 670
f 663 671 660
f 660 672 661
f 660 671 672
f 665 673 663
f 663 673 671
f 662 674 659
f 659 674 669
f 661 675 664
f 661 672 675
f 658 676 662
f 658 670 676
f 667 677 665
f 665 677 673
f 662 676 674
f 664 678 666
f 664 675 678
f 669 679 667
f 667 679 677
f 666 680 668
f 666 678 680
f 674 681 669
f 669 681 679
f 673 682 671
f 671 683 672
f 671 682 683
f 677 684 673
f 673 684 682
f 672 685 675
f 672 683 685
f 668 686 670
f 668 680 686
f 679 687 677
f 677 687 684
f 676 688 674
f 674 688 681
f 670 689 676
f 670 686 689
f 676 689 688
f 675 690 678
f 675 685 690
f 681 691 679
f 679 691 687
f 684 692 682
f 682 693 683
f 682 692 693
f 678 694 680
f 678 690 694
f 687 695 684
f 684 695 692
f 688 696 681
f 681 696 691
f 683 697 685
f 683 693 697
f 691 698 687
f 687 698 695
f 680 699 686
f 680 694 699
f 689 700 688
f 688 700 696
f 685 701 690
f 685 697 701
f 686 702 689
f 686 699 702
f 689 702 700
f 696 703 691
f 691 703 698
f 695 704 692
f 692 705 693
f 692 704 705
f 698 706 695
f 695 706 704
f 693 707 697
f 693 705 707
f 690 708 694
f 690 701 708
f 700 709 696
f 696 709 703
f 698 710 706
f 703 710 698
f 697 711 701
f 697 707 711
f 694 712 699
f 694 708 712
f 706 713 704
f 704 714 705
f 704 713 714
f 702 715 700
f 700 715 709
f 710 716 706
f 706 716 713
f 703 717 710
f 709 717 703
f 705 718 707
f 705 714 718
f 699 719 702
f 699 712 719
f 702 719 715
f 701 720 708
f 701 711 720
f 710 721 716
f 717 721 710
f 716 722 713
f 713 723 714
f 713 722 723
f 707 724 711
f 707 718 724
f 709 725 717
f 715 725 709
f 716 726 722
f 721 726 716
f 714 727 718
f 714 723 727
f 708 728 712
f 708 720 728
f 717 729 721
f 725 729 717
f 719 730 715
f 715 730 725
f 711 731 720
f 711 724 731
f 722 732 723
f 726 733 722
f 722 733 732
f 721 734 726
f 729 734 721
f 712 735 719
f 712 728 735
f 718 727 736
f 718 736 724
f 719 735 730
f 723 737 727
f 723 732 737
f 726 738 733
f 734 738 726
f 725 739 729
f 730 739 725
f 733 740 732
f 738 741 733
f 733 741 740
f 720 742 728
f 720 731 742
f 727 737 743
f 727 743 736
f 732 740 744
f 732 744 737
f 729 745 734
f 739 745 729
f 724 736 746
f 724 746 731
f 734 747 738
f 745 747 734
f 738 748 741
f 747 748 738
f 735 749 730
f 730 749 739
f 728 750 735
f 728 742 750
f 735 750 749
f 737 744 751
f 737 751 743
f 747 752 748
f 745 753 747
f 753 752 747
f 736 743 754
f 736 754 746
f 739 755 745
f 749 755 739
f 731 756 742
f 731 746 756
f 755 753 745
f 753 757 752
f 743 751 758
f 743 758 754
f 750 759 749
f 749 759 755
f 742 760 750
f 742 756 760
f 755 761 753
f 761 757 753
f 746 754 762
f 746 762 756
f 750 760 759
f 759 761 755
f 761 763 757
f 754 758 764
f 754 764 762
f 756 765 760
f 756 762 765
f 759 766 761
f 760 766 759
f 766 763 761
f 760 765 766
f 762 767 765
f 762 764 767
f 766 768 763
f 765 768 766
f 765 767 768
f 769 770 771
f 772 771 773
f 769 771 772
f 774 775 770
f 774 770 769
f 776 773 777
f 772 773 776
f 778 779 775
f 778 775 774
f 780 777 781
f 776 777 780
f 782 783 779
f 782 779 778
f 784 781 785
f 780 781 784
f 786 787 783
f 786 783 782
f 788 785 789
f 784 785 788
f 790 791 787
f 790 787 786
f 792 789 791
f 788 789 792
f 792 791 790
f 793 772 776
f 794 769 772
f 794 772 793
f 795 776 780
f 793 776 795
f 796 774 769
f 796 769 794
f 797 780 784
f 795 780 797
f 798 778 774
f 798 774 796
f 799 784 788
f 797 784 799
f 800 782 778
f 800 778 798
f 801 788 792
f 799 788 801
f 802 786 782
f 802 782 800
f 803 792 790
f 801 792 803
f 804 790 786
f 804 786 802
f 803 790 804
f 805 793 795
f 806 795 797
f 805 795 806
f 807 794 793
f 807 793 805
f 808 797 799
f 806 797 808
f 809 796 794
f 809 794 807
f 810 799 801
f 808 799 810
f 811 798 796
f 811 796 809
f 812 801 803
f 810 801 812
f 813 800 798
f 813 798 811
f 814 803 804
f 812 803 814
f 815 802 800
f 815 800 813
f 816 804 802
f 814 804 816
f 816 802 815
f 817 806 808
f 818 805 806
f 818 806 817
f 819 808 810
f 817 808 819
f 820 807 805
f 820 805 818
f 821 810 812
f 819 810 821
f 822 809 807
f 822 807 820
f 823 812 814
f 821 812 823
f 824 811 809
f 824 809 822
f 825 814 816
f 823 814 825
f 826 813 811
f 826 811 824
f 827 816 815
f 825 816 827
f 828 815 813
f 828 813 826
f 827 815 828
f 829 817 819
f 830 818 817
f 830 817 829
f 831 819 821
f 829 819 831
f 832 820 818
f 832 818 830
f 833 821 823
f 831 821 833
f 834 822 820
f 834 820 832
f 835 823 825
f 833 823 835
f 836 824 822
f 836 822 834
f 837 825 827
f 835 825 837
f 838 826 824
f 838 824 836
f 839 827 828
f 837 827 839
f 840 828 826
f 840 826 838
f 839 828 840
f 841 829 831
f 842 830 829
f 842 829 841
f 843 831 833
f 841 831 843
f 844 832 830
f 844 830 842
f 845 833 835
f 843 833 845
f 846 834 832
f 846 832 844
f 847 835 837
f 845 835 847
f 848 836 834
f 848 834 846
f 849 837 839
f 847 837 849
f 850 838 836
f 850 836 848
f 851 839 840
f 849 839 851
f 852 840 838
f 852 838 850
f 851 840 852
f 853 841 843
f 854 842 841
f 854 841 853
f 855 843 845
f 853 843 855
f 856 844 842
f 856 842 854
f 857 845 847
f 855 845 857
f 858 846 844
f 858 844 856
f 859 847 849
f 857 847 859
f 860 848 846
f 860 846 858
f 861 849 851
f 859 849 861
f 862 850 848
f 862 848 860
f 863 851 852
f 861 851 863
f 864 852 850
f 864 850 862
f 863 852 864
f 865 853 855
f 866 854 853
f 866 853 865
f 867 855 857
f 865 855 867
f 868 856 854
f 868 854 866
f 869 857 859
f 867 857 869
f 870 858 856
f 870 856 868
f 871 859 861
f 869 859 871
f 872 860 858
f 872 858 870
f 873 861 863
f 871 861 873
f 874 862 860
f 874 860 872
f 875 863 864
f 873 863 875
f 876 864 862
f 876 862 874
f 875 864 876
f 877 865 867
f 878 866 865
f 878 865 877
f 879 867 869
f 877 867 879
f 880 869 871
f 879 869 880
f 881 868 866
f 881 866 878
f 882 871 873
f 880 871 882
f 883 870 868
f 883 868 881
f 884 873 875
f 882 873 884
f 885 872 870
f 885 870 883
f 886 875 876
f 884 875 886
f 887 874 872
f 887 872 885
f 888 876 874
f 888 874 887
f 886 876 888
f 889 877 879
f 890 878 877
f 890 877 889
f 891 879 880
f 889 879 891
f 892 880 882
f 891 880 892
f 893 881 878
f 893 878 890
f 894 882 884
f 892 882 894
f 895 883 881
f 895 881 893
f 896 884 886
f 894 884 896
f 897 885 883
f 897 883 895
f 898 886 888
f 896 886 898
f 899 887 885
f 899 885 897
f 900 888 887
f 900 887 899
f 898 888 900
f 901 889 891
f 902 890 889
f 902 889 901
f 903 891 892
f 901 891 903
f 904 892 894
f 903 892 904
f 905 893 890
f 905 890 902
f 906 894 896
f 904 894 906
f 907 895 893
f 907 893 905
f 908 896 898
f 906 896 908
f 909 897 895
f 909 895 907
f 910 898 900
f 908 898 910
f 911 899 897
f 911 897 909
f 912 900 899
f 912 899 911
f 910 900 912
f 913 901 903
f 914 902 901
f 914 901 913
f 915 903 904
f 913 903 915
f 916 905 902
f 916 902 914
f 917 904 906
f 915 904 917
f 918 907 905
f 918 905 916
f 919 906 908
f 917 906 919
f 920 909 907
f 920 907 918
f 921 908 910
f 919 908 921
f 922 911 909
f 922 909 920
f 923 910 912
f 921 910 923
f 924 912 911
f 924 911 922
f 923 912 924
