# 
# Wavefront OBJ file
# Created with Kaydara FBX
# 
mtllib c:\users\tjvan\onedrive\documenten\fontys\minor\nx\.mtlmodels\pes_anserinus_common_tendon.r.obj

g Pes_anserinus_common_tendon_r
v -0.070557 0.383953 -0.009310
v -0.070663 0.378370 -0.009254
v -0.070510 0.378362 -0.007937
v -0.069386 0.383616 -0.010694
v -0.070322 0.373344 -0.009254
v -0.069518 0.373381 -0.010352
v -0.069680 0.378345 -0.010447
v -0.070339 0.383997 -0.007819
v -0.068368 0.389636 -0.008340
v -0.068725 0.389554 -0.009971
v -0.069060 0.378347 -0.008051
v -0.070200 0.373336 -0.008107
v -0.068753 0.383666 -0.008026
v -0.069996 0.368587 -0.008105
v -0.070085 0.368608 -0.009155
v -0.068803 0.368610 -0.008167
v -0.068899 0.373392 -0.008184
v -0.069996 0.364005 -0.009231
v -0.069352 0.364070 -0.010233
v -0.069362 0.368656 -0.010184
v -0.069864 0.363938 -0.008259
v -0.069959 0.359568 -0.009533
v -0.069698 0.359471 -0.008686
v -0.069914 0.355336 -0.010039
v -0.069502 0.355472 -0.010909
v -0.069418 0.359680 -0.010524
v -0.069749 0.343115 -0.011788
v -0.069903 0.343117 -0.011401
v -0.069937 0.347232 -0.011068
v -0.069683 0.343088 -0.011065
v -0.069616 0.351177 -0.010035
v -0.069906 0.351266 -0.010584
v -0.069599 0.351378 -0.011298
v -0.069714 0.347287 -0.011625
v -0.069675 0.347178 -0.010614
v -0.069614 0.339720 -0.011776
v -0.069636 0.355225 -0.009334
v -0.068754 0.359509 -0.008952
v -0.068753 0.363946 -0.008402
v -0.069561 0.343097 -0.012147
v -0.069656 0.339653 -0.011894
v -0.069221 0.351472 -0.011964
v -0.069442 0.347328 -0.012134
v -0.069258 0.343047 -0.011271
v -0.069529 0.340489 -0.011537
v -0.068948 0.351207 -0.010244
v -0.069154 0.347183 -0.010771
v -0.068515 0.373382 -0.011500
v -0.067933 0.383194 -0.012117
v -0.068430 0.378214 -0.011744
v -0.069618 0.339654 -0.012130
v -0.069547 0.338494 -0.012168
v -0.069511 0.338479 -0.012027
v -0.068827 0.355274 -0.009606
v -0.069397 0.343073 -0.012421
v -0.069503 0.338510 -0.012338
v -0.069527 0.339644 -0.012342
v -0.069377 0.338583 -0.011871
v -0.069323 0.338175 -0.011992
v -0.069408 0.338082 -0.012132
v -0.069226 0.338487 -0.011927
v -0.069430 0.338520 -0.012494
v -0.069390 0.338060 -0.012288
v -0.069414 0.339617 -0.012539
v -0.069200 0.343030 -0.012719
v -0.069298 0.339613 -0.011678
v -0.068788 0.359771 -0.011457
v -0.068994 0.355587 -0.011721
v -0.069152 0.347297 -0.012619
v -0.068772 0.351542 -0.012660
v -0.069325 0.338515 -0.012643
v -0.069358 0.338049 -0.012436
v -0.069287 0.337817 -0.012258
v -0.069190 0.338135 -0.012009
v -0.069256 0.337899 -0.012062
v -0.069281 0.339581 -0.012737
v -0.068986 0.342981 -0.013016
v -0.068606 0.364123 -0.011246
v -0.069257 0.337762 -0.012393
v -0.067736 0.388816 -0.011447
v -0.069276 0.338027 -0.012560
v -0.069213 0.337739 -0.012490
v -0.068494 0.368697 -0.011250
v -0.069207 0.338503 -0.012767
v -0.069128 0.339523 -0.011782
v -0.069178 0.337614 -0.012247
v -0.069180 0.337999 -0.012667
v -0.069127 0.339552 -0.012907
v -0.068757 0.342928 -0.013295
v -0.069139 0.337630 -0.012330
v -0.069065 0.337637 -0.012391
v -0.069114 0.337862 -0.012149
v -0.069023 0.338157 -0.012106
v -0.068949 0.343043 -0.011526
v -0.068990 0.337844 -0.012253
v -0.069138 0.337719 -0.012575
v -0.069077 0.338483 -0.012878
v -0.069053 0.337720 -0.012681
v -0.069074 0.337980 -0.012756
v -0.069068 0.338540 -0.011974
v -0.069004 0.339488 -0.011895
v -0.068908 0.347235 -0.013004
v -0.068701 0.347207 -0.011120
v -0.068347 0.351269 -0.010707
v -0.068397 0.351497 -0.013205
v -0.069008 0.337651 -0.012477
v -0.068971 0.339530 -0.013067
v -0.068520 0.342871 -0.013554
v -0.068908 0.338165 -0.012231
v -0.068873 0.337841 -0.012486
v -0.068931 0.337840 -0.012366
v -0.068947 0.337940 -0.012795
v -0.068943 0.337713 -0.012622
v -0.068950 0.338436 -0.012968
v -0.068951 0.338566 -0.012098
v -0.067628 0.373409 -0.008839
v -0.067076 0.383223 -0.008740
v -0.067545 0.378248 -0.008750
v -0.068819 0.337838 -0.012617
v -0.068853 0.339495 -0.012048
v -0.068718 0.343026 -0.011750
v -0.068481 0.342952 -0.012001
v -0.068601 0.347162 -0.013453
v -0.068067 0.359851 -0.012441
v -0.068434 0.355690 -0.012538
v -0.068809 0.339468 -0.013198
v -0.068297 0.342817 -0.013773
v -0.068815 0.338330 -0.012995
v -0.068813 0.337938 -0.012776
v -0.068831 0.338591 -0.012225
v -0.068826 0.338145 -0.012353
v -0.068749 0.338104 -0.012476
v -0.068730 0.338577 -0.012355
v -0.067969 0.351388 -0.013786
v -0.067655 0.368630 -0.008813
v -0.068704 0.339513 -0.012217
v -0.068247 0.342887 -0.012273
v -0.068652 0.338059 -0.012778
v -0.068694 0.338091 -0.012620
v -0.068625 0.338226 -0.012949
v -0.068640 0.339428 -0.013331
v -0.068040 0.342752 -0.013997
v -0.067874 0.359583 -0.009614
v -0.068081 0.355357 -0.010180
v -0.068642 0.338555 -0.012496
v -0.068562 0.338519 -0.012643
v -0.068281 0.347085 -0.013872
v -0.067732 0.363975 -0.009092
v -0.066840 0.388796 -0.008476
v -0.068571 0.339489 -0.012388
v -0.068459 0.339393 -0.012563
v -0.068241 0.347187 -0.011576
v -0.065673 0.393961 -0.010904
v -0.064940 0.393201 -0.012422
v -0.068518 0.338435 -0.012795
v -0.068025 0.342813 -0.012549
v -0.067750 0.351343 -0.011288
v -0.068337 0.339363 -0.012749
v -0.068473 0.339369 -0.013391
v -0.067734 0.342662 -0.014213
v -0.068464 0.338402 -0.012926
v -0.068262 0.339371 -0.013373
v -0.067540 0.351284 -0.014341
v -0.067423 0.368728 -0.012508
v -0.067723 0.364170 -0.012378
v -0.067801 0.342779 -0.012841
v -0.068151 0.339441 -0.013134
v -0.068238 0.339362 -0.012938
v -0.067985 0.347019 -0.014240
v -0.067255 0.373371 -0.012877
v -0.067901 0.340157 -0.013488
v -0.067368 0.342542 -0.014396
v -0.067927 0.347135 -0.011935
v -0.067808 0.355689 -0.013380
v -0.067219 0.359870 -0.013527
v -0.065975 0.382552 -0.013971
v -0.066843 0.378033 -0.013354
v -0.063764 0.392939 -0.009216
v -0.065203 0.393958 -0.009249
v -0.067443 0.342663 -0.013384
v -0.067600 0.342727 -0.013131
v -0.067608 0.346908 -0.014640
v -0.067130 0.351148 -0.014839
v -0.067141 0.342555 -0.014148
v -0.067275 0.342602 -0.013711
v -0.067257 0.346987 -0.012755
v -0.067592 0.347065 -0.012334
v -0.067229 0.351353 -0.011847
v -0.067016 0.359657 -0.010388
v -0.067378 0.355443 -0.010848
v -0.067212 0.346723 -0.014992
v -0.066627 0.350876 -0.015406
v -0.067247 0.355567 -0.014107
v -0.066287 0.387963 -0.012965
v -0.066667 0.346841 -0.013557
v -0.066939 0.346910 -0.013172
v -0.066445 0.359728 -0.014480
v -0.066780 0.346505 -0.015301
v -0.066707 0.364004 -0.009958
v -0.066208 0.368677 -0.013911
v -0.066702 0.364184 -0.013612
v -0.063691 0.392092 -0.013939
v -0.066269 0.373413 -0.009745
v -0.066428 0.368641 -0.009721
v -0.066376 0.346707 -0.014019
v -0.066123 0.350579 -0.015909
v -0.066804 0.351269 -0.012356
v -0.066680 0.355398 -0.014815
v -0.065256 0.382757 -0.009766
v -0.065938 0.378132 -0.009726
v -0.066287 0.346301 -0.015478
v -0.066645 0.355519 -0.011612
v -0.065970 0.346311 -0.015081
v -0.066136 0.346516 -0.014493
v -0.065980 0.351054 -0.013418
v -0.066372 0.351159 -0.012902
v -0.065698 0.359419 -0.015390
v -0.064637 0.377221 -0.015622
v -0.065546 0.372998 -0.014716
v -0.065582 0.350267 -0.016324
v -0.065996 0.355493 -0.012352
v -0.066075 0.355095 -0.015546
v -0.065233 0.387938 -0.009185
v -0.063438 0.386977 -0.010261
v -0.065613 0.364022 -0.011003
v -0.066126 0.359721 -0.011283
v -0.065568 0.350890 -0.013989
v -0.063380 0.381317 -0.016518
v -0.065436 0.355366 -0.013046
v -0.064981 0.349984 -0.016562
v -0.065556 0.363994 -0.014966
v -0.064584 0.368197 -0.015769
v -0.064933 0.358956 -0.016321
v -0.065520 0.354725 -0.016191
v -0.064702 0.373358 -0.010979
v -0.065117 0.368621 -0.010874
v -0.064869 0.350311 -0.015298
v -0.065166 0.350592 -0.014656
v -0.064878 0.355156 -0.013802
v -0.064686 0.350041 -0.016008
v -0.064351 0.386782 -0.014820
v -0.061933 0.390678 -0.015692
v -0.064913 0.354320 -0.016815
v -0.065177 0.359726 -0.012338
v -0.064459 0.364007 -0.012224
v -0.064255 0.358462 -0.017121
v -0.062879 0.381932 -0.011471
v -0.064023 0.377814 -0.011154
v -0.064462 0.363465 -0.016284
v -0.062781 0.397884 -0.011611
v -0.064285 0.353919 -0.017330
v -0.063942 0.354436 -0.015373
v -0.064353 0.354801 -0.014615
v -0.063216 0.367434 -0.017459
v -0.062718 0.376253 -0.017805
v -0.063693 0.372232 -0.016804
v -0.063601 0.357975 -0.017883
v -0.064387 0.359553 -0.013334
v -0.062287 0.391879 -0.009918
v -0.062196 0.397719 -0.009973
v -0.063254 0.363731 -0.013770
v -0.063583 0.354055 -0.016162
v -0.062879 0.372805 -0.012780
v -0.063817 0.368484 -0.012199
v -0.063652 0.353589 -0.017614
v -0.063648 0.362863 -0.017304
v -0.062057 0.397040 -0.013190
v -0.062960 0.357494 -0.018569
v -0.063605 0.359118 -0.014494
v -0.063074 0.358678 -0.015433
v -0.063405 0.353705 -0.017003
v -0.062480 0.366749 -0.018714
v -0.062283 0.363207 -0.015402
v -0.062655 0.358212 -0.016405
v -0.061608 0.385252 -0.017443
v -0.059335 0.388993 -0.018238
v -0.062441 0.357135 -0.019008
v -0.062950 0.362248 -0.018313
v -0.061737 0.376734 -0.013508
v -0.060300 0.380508 -0.014159
v -0.062185 0.367835 -0.014363
v -0.061118 0.371784 -0.015231
v -0.059280 0.395378 -0.010619
v -0.060741 0.396615 -0.009887
v -0.062349 0.371396 -0.018655
v -0.061384 0.375339 -0.019806
v -0.060805 0.395796 -0.014648
v -0.062137 0.366054 -0.019940
v -0.062473 0.361703 -0.019310
v -0.061750 0.362657 -0.016636
v -0.062251 0.357357 -0.018332
v -0.062362 0.357769 -0.017351
v -0.061108 0.385685 -0.011996
v -0.060702 0.390639 -0.011038
v -0.058596 0.389130 -0.012771
v -0.061376 0.380208 -0.018841
v -0.059590 0.384056 -0.019846
v -0.062204 0.361156 -0.020425
v -0.062000 0.365471 -0.021019
v -0.059319 0.401267 -0.010510
v -0.059158 0.400597 -0.013687
v -0.059950 0.401515 -0.012141
v -0.061312 0.361567 -0.018904
v -0.061449 0.362046 -0.017852
v -0.061722 0.364913 -0.022040
v -0.061638 0.370599 -0.020220
v -0.061322 0.361105 -0.019978
v -0.061573 0.360788 -0.020859
v -0.060656 0.374476 -0.021604
v -0.061130 0.367141 -0.016357
v -0.057732 0.394025 -0.011799
v -0.060015 0.370855 -0.017493
v -0.061385 0.369829 -0.021571
v -0.057927 0.399322 -0.015081
v -0.061252 0.369117 -0.022712
v -0.059077 0.394271 -0.016352
v -0.060443 0.365774 -0.019389
v -0.060599 0.366428 -0.018067
v -0.059943 0.375561 -0.016071
v -0.058430 0.379216 -0.016896
v -0.060968 0.364561 -0.022405
v -0.060897 0.368429 -0.023650
v -0.060160 0.367848 -0.024188
v -0.060376 0.373602 -0.023178
v -0.057457 0.387772 -0.020685
v -0.060421 0.365245 -0.020502
v -0.060213 0.372717 -0.024498
v -0.060068 0.379264 -0.021014
v -0.058398 0.383170 -0.022202
v -0.060529 0.364798 -0.021551
v -0.059489 0.370010 -0.019422
v -0.058428 0.384082 -0.014820
v -0.056046 0.387482 -0.015519
v -0.059802 0.371877 -0.025497
v -0.056247 0.397725 -0.016832
v -0.057846 0.400089 -0.010473
v -0.055598 0.392359 -0.013664
v -0.059427 0.378400 -0.023061
v -0.059355 0.369261 -0.020965
v -0.059558 0.368102 -0.023319
v -0.059389 0.368630 -0.022213
v -0.059257 0.377421 -0.024878
v -0.058606 0.375429 -0.027483
v -0.059124 0.376398 -0.026379
v -0.059100 0.371185 -0.026076
v -0.058364 0.371336 -0.025324
v -0.057874 0.382382 -0.024624
v -0.058776 0.374508 -0.018515
v -0.057224 0.378091 -0.019561
v -0.056996 0.404913 -0.012795
v -0.056234 0.403965 -0.014271
v -0.058163 0.373558 -0.020714
v -0.057934 0.381175 -0.026725
v -0.058066 0.371931 -0.024099
v -0.057973 0.372691 -0.022595
v -0.056792 0.392557 -0.018837
v -0.054872 0.403462 -0.011170
v -0.056353 0.404713 -0.011168
v -0.056339 0.398736 -0.011265
v -0.054770 0.397289 -0.012497
v -0.057909 0.380008 -0.028387
v -0.057848 0.374624 -0.028149
v -0.054227 0.396095 -0.019356
v -0.056583 0.377072 -0.022068
v -0.057322 0.378931 -0.029571
v -0.056496 0.378012 -0.030362
v -0.056553 0.382751 -0.017671
v -0.054310 0.386204 -0.018411
v -0.056343 0.386998 -0.023240
v -0.056575 0.375277 -0.026080
v -0.056994 0.374640 -0.027483
v -0.056407 0.376124 -0.024280
v -0.056246 0.383191 -0.030572
v -0.055614 0.386621 -0.026504
v -0.056199 0.384586 -0.028860
v -0.055082 0.402715 -0.015614
v -0.055114 0.391313 -0.021266
v -0.054104 0.390554 -0.023623
v -0.054899 0.381195 -0.032467
v -0.055703 0.382065 -0.031764
v -0.055380 0.381619 -0.020547
v -0.054940 0.378631 -0.028065
v -0.055483 0.377918 -0.029725
v -0.054160 0.408221 -0.013529
v -0.052728 0.394845 -0.021841
v -0.054674 0.379564 -0.025936
v -0.054785 0.380574 -0.023370
v -0.053283 0.385125 -0.021464
v -0.053337 0.402037 -0.011977
v -0.053443 0.407969 -0.011979
v -0.054527 0.385923 -0.033047
v -0.053549 0.401196 -0.017319
v -0.052275 0.406098 -0.016325
v -0.053397 0.407295 -0.014993
v -0.054571 0.387233 -0.031529
v -0.053375 0.390842 -0.016322
v -0.053088 0.384093 -0.034630
v -0.053890 0.384825 -0.034123
v -0.053961 0.388879 -0.029777
v -0.053451 0.390333 -0.026128
v -0.052675 0.391082 -0.028628
v -0.052536 0.395561 -0.014573
v -0.050588 0.394226 -0.017203
v -0.053892 0.381207 -0.031686
v -0.052819 0.384068 -0.024557
v -0.051832 0.393959 -0.024081
v -0.050898 0.404734 -0.017909
v -0.053202 0.381985 -0.029825
v -0.052103 0.384408 -0.033500
v -0.051936 0.406724 -0.012010
v -0.050390 0.405309 -0.012794
v -0.052822 0.382998 -0.027411
v -0.051753 0.400499 -0.013282
v -0.049555 0.398842 -0.015508
v -0.053046 0.389603 -0.034303
v -0.052596 0.390901 -0.032587
v -0.052059 0.387458 -0.036652
v -0.052800 0.388448 -0.035707
v -0.051890 0.389680 -0.019205
v -0.051649 0.399665 -0.019915
v -0.050749 0.411203 -0.012750
v -0.050721 0.410737 -0.015754
v -0.051597 0.411564 -0.014208
v -0.051322 0.385313 -0.031444
v -0.049039 0.403318 -0.020601
v -0.051380 0.393456 -0.026138
v -0.049400 0.409701 -0.017216
v -0.049340 0.393190 -0.020059
v -0.048780 0.403763 -0.014157
v -0.051028 0.388649 -0.022357
v -0.050821 0.386421 -0.028800
v -0.051120 0.387002 -0.036721
v -0.050985 0.391098 -0.038422
v -0.051468 0.392186 -0.037130
v -0.050691 0.387564 -0.025675
v -0.050269 0.390246 -0.039215
v -0.050248 0.398392 -0.022590
v -0.051813 0.392307 -0.030974
v -0.051062 0.393548 -0.029780
v -0.051181 0.393406 -0.028103
v -0.051139 0.393311 -0.035274
v -0.047789 0.397671 -0.018152
v -0.050139 0.387563 -0.035300
v -0.049159 0.390125 -0.038672
v -0.049165 0.410029 -0.012753
v -0.048640 0.392209 -0.023233
v -0.049241 0.396713 -0.026859
v -0.049446 0.397390 -0.024899
v -0.050479 0.394536 -0.033165
v -0.046656 0.402238 -0.016448
v -0.047689 0.401960 -0.023625
v -0.049500 0.414750 -0.014899
v -0.048510 0.413992 -0.016465
v -0.049538 0.396215 -0.037774
v -0.049758 0.395073 -0.039697
v -0.049296 0.388607 -0.033092
v -0.049429 0.396244 -0.028780
v -0.048921 0.397465 -0.035395
v -0.048125 0.390816 -0.037007
v -0.049841 0.395653 -0.030939
v -0.048388 0.391088 -0.026756
v -0.049238 0.393942 -0.041075
v -0.047873 0.408590 -0.018910
v -0.048658 0.389843 -0.030228
v -0.048535 0.414401 -0.013439
v -0.046810 0.413351 -0.013495
v -0.048204 0.398752 -0.032649
v -0.047549 0.408689 -0.013591
v -0.045862 0.407247 -0.015045
v -0.048300 0.393135 -0.041658
v -0.047224 0.391920 -0.034691
v -0.047464 0.399502 -0.030128
v -0.048058 0.398104 -0.042110
v -0.047635 0.397014 -0.043574
v -0.047974 0.399326 -0.040116
v -0.048013 0.417403 -0.015423
v -0.046984 0.400837 -0.026124
v -0.047029 0.413018 -0.018124
v -0.045266 0.411833 -0.020252
v -0.046797 0.396772 -0.021001
v -0.046553 0.396356 -0.043885
v -0.046942 0.400047 -0.028106
v -0.047138 0.393310 -0.040630
v -0.046202 0.407052 -0.021673
v -0.047468 0.400734 -0.037644
v -0.046075 0.394639 -0.027820
v -0.046465 0.393263 -0.031602
v -0.046266 0.395828 -0.024192
v -0.046930 0.417090 -0.014012
v -0.047035 0.416632 -0.016953
v -0.045624 0.415628 -0.018611
v -0.045236 0.396632 -0.042595
v -0.046614 0.402194 -0.034574
v -0.046069 0.394131 -0.038720
v -0.046744 0.402446 -0.042548
v -0.046675 0.401138 -0.044590
v -0.046045 0.418782 -0.017277
v -0.047020 0.419483 -0.015792
v -0.045903 0.419196 -0.014405
v -0.046346 0.404032 -0.039922
v -0.043317 0.410268 -0.023432
v -0.044219 0.400439 -0.021920
v -0.044959 0.401170 -0.019142
v -0.044556 0.404197 -0.027738
v -0.045137 0.405483 -0.025066
v -0.046337 0.400088 -0.046052
v -0.045015 0.412152 -0.014392
v -0.043107 0.410836 -0.016031
v -0.044611 0.403256 -0.029704
v -0.045441 0.402827 -0.031707
v -0.045187 0.405667 -0.036451
v -0.044236 0.396700 -0.033001
v -0.045107 0.395260 -0.036305
v -0.044047 0.397468 -0.040531
v -0.044643 0.417839 -0.018920
v -0.046261 0.421200 -0.016074
v -0.045321 0.420552 -0.017505
v -0.045142 0.416132 -0.014073
v -0.043253 0.415011 -0.015016
v -0.043881 0.399593 -0.025077
v -0.045491 0.404044 -0.046868
v -0.045479 0.405287 -0.044702
v -0.045222 0.403040 -0.048287
v -0.043849 0.405798 -0.017402
v -0.042263 0.404742 -0.020220
v -0.043489 0.405846 -0.033401
v -0.045033 0.399566 -0.046086
v -0.043672 0.402629 -0.047997
v -0.044863 0.406567 -0.041660
v -0.043703 0.398267 -0.028900
v -0.045222 0.420986 -0.014755
v -0.045024 0.423176 -0.016615
v -0.044602 0.423065 -0.015286
v -0.043415 0.420256 -0.014677
v -0.044073 0.418340 -0.014411
v -0.043996 0.414367 -0.020563
v -0.044311 0.407329 -0.046124
v -0.044480 0.406348 -0.048523
v -0.043652 0.408391 -0.043002
v -0.042500 0.406008 -0.031495
v -0.044323 0.422550 -0.017722
v -0.043917 0.419605 -0.019161
v -0.042978 0.421557 -0.019412
v -0.043539 0.399892 -0.044639
v -0.044207 0.405465 -0.049939
v -0.043740 0.407970 -0.038345
v -0.041930 0.408509 -0.035171
v -0.042391 0.407178 -0.029570
v -0.042788 0.408740 -0.026990
v -0.043006 0.398605 -0.038029
v -0.042088 0.402933 -0.046487
v -0.044563 0.423197 -0.015320
v -0.044946 0.423302 -0.016650
v -0.041890 0.404205 -0.022905
v -0.042049 0.421770 -0.016922
v -0.044260 0.422677 -0.017735
v -0.042945 0.422104 -0.018337
v -0.043135 0.416611 -0.020728
v -0.042433 0.418407 -0.020939
v -0.042759 0.422305 -0.015068
v -0.042718 0.422435 -0.015093
v -0.040357 0.421186 -0.016174
v -0.043861 0.408028 -0.049661
v -0.043551 0.407313 -0.051040
v -0.042919 0.421681 -0.019428
v -0.043576 0.408920 -0.047294
v -0.041333 0.401974 -0.030062
v -0.041982 0.400178 -0.034525
v -0.042573 0.405179 -0.049456
v -0.041945 0.407100 -0.050568
v -0.042068 0.417311 -0.015401
v -0.042181 0.400747 -0.042394
v -0.041020 0.401914 -0.039651
v -0.042639 0.412967 -0.022556
v -0.041733 0.403484 -0.025991
v -0.043132 0.410238 -0.048268
v -0.043490 0.409335 -0.050449
v -0.041336 0.409489 -0.018416
v -0.040041 0.408277 -0.021116
v -0.042606 0.409531 -0.039882
v -0.042800 0.410017 -0.044199
v -0.041800 0.411125 -0.041179
v -0.043185 0.408772 -0.051753
v -0.042480 0.410524 -0.052561
v -0.042504 0.411016 -0.051333
v -0.040409 0.421063 -0.016144
v -0.041220 0.419126 -0.015667
v -0.041259 0.410395 -0.029185
v -0.041552 0.412059 -0.023962
v -0.041892 0.411374 -0.026254
v -0.041248 0.413773 -0.016815
v -0.040008 0.416078 -0.017338
v -0.041080 0.410579 -0.051942
v -0.041516 0.408584 -0.051380
v -0.042124 0.411565 -0.045197
v -0.042469 0.411814 -0.049333
v -0.041875 0.415398 -0.022425
v -0.041125 0.417348 -0.022614
v -0.039895 0.403569 -0.035905
v -0.041493 0.420456 -0.021178
v -0.041001 0.420835 -0.020426
v -0.039840 0.420497 -0.019277
v -0.041433 0.420586 -0.021193
v -0.041196 0.410425 -0.036910
v -0.040615 0.412040 -0.038376
v -0.040938 0.405432 -0.047887
v -0.040684 0.409004 -0.031582
v -0.040745 0.408050 -0.033383
v -0.042426 0.410659 -0.052624
v -0.042428 0.411146 -0.051401
v -0.041046 0.410734 -0.051986
v -0.042418 0.411936 -0.049415
v -0.041319 0.413055 -0.045575
v -0.040346 0.411466 -0.049563
v -0.039788 0.412733 -0.046457
v -0.041257 0.413170 -0.045604
v -0.039491 0.414377 -0.043198
v -0.040595 0.403699 -0.044078
v -0.041140 0.412772 -0.042249
v -0.039400 0.406050 -0.045362
v -0.038446 0.420186 -0.018199
v -0.039135 0.405427 -0.031412
v -0.039713 0.408697 -0.049705
v -0.040214 0.407316 -0.049005
v -0.039895 0.407118 -0.027028
v -0.040156 0.407869 -0.023761
v -0.040944 0.412611 -0.027819
v -0.040941 0.414354 -0.023726
v -0.041131 0.411709 -0.024155
v -0.041310 0.413016 -0.025683
v -0.040199 0.413646 -0.024478
v -0.039058 0.410740 -0.050617
v -0.040058 0.419424 -0.022840
v -0.039232 0.419636 -0.022495
v -0.039990 0.419556 -0.022854
v -0.039690 0.412449 -0.019151
v -0.038680 0.411238 -0.021341
v -0.041078 0.413027 -0.024471
v -0.040470 0.414409 -0.024993
v -0.040682 0.414252 -0.026458
v -0.040579 0.414197 -0.042922
v -0.040223 0.411728 -0.030530
v -0.039164 0.410517 -0.033295
v -0.040535 0.414308 -0.042974
v -0.039372 0.415923 -0.040407
v -0.039217 0.417803 -0.017651
v -0.039806 0.409994 -0.035358
v -0.039122 0.411910 -0.036718
v -0.040209 0.412148 -0.024989
v -0.040947 0.411145 -0.024351
v -0.039177 0.413063 -0.024968
v -0.040090 0.413728 -0.039467
v -0.040002 0.416441 -0.024018
v -0.038970 0.418647 -0.024360
v -0.039007 0.410898 -0.050688
v -0.039288 0.413722 -0.025610
v -0.037736 0.411739 -0.047657
v -0.039310 0.404837 -0.040892
v -0.037961 0.419360 -0.021711
v -0.039954 0.410757 -0.024632
v -0.040322 0.413764 -0.028515
v -0.039618 0.412903 -0.031063
v -0.040227 0.415249 -0.026855
v -0.039865 0.414784 -0.028888
v -0.039423 0.415765 -0.040339
v -0.040500 0.409017 -0.024774
v -0.038752 0.410096 -0.023624
v -0.039295 0.409952 -0.026610
v -0.040141 0.415421 -0.025331
v -0.038492 0.420043 -0.018166
v -0.036936 0.413058 -0.044148
v -0.039183 0.414049 -0.031290
v -0.038558 0.407864 -0.046315
v -0.039239 0.411757 -0.026121
v -0.038232 0.413060 -0.027010
v -0.038984 0.415674 -0.025014
v -0.040097 0.415556 -0.025376
v -0.040173 0.415368 -0.026903
v -0.039071 0.414842 -0.027558
v -0.039810 0.414905 -0.028933
v -0.038658 0.414880 -0.026012
v -0.038720 0.414765 -0.025972
v -0.038558 0.413755 -0.037898
v -0.037541 0.414236 -0.027528
v -0.038904 0.418788 -0.024381
v -0.038615 0.414870 -0.019554
v -0.037858 0.416746 -0.019818
v -0.037939 0.418710 -0.024310
v -0.037989 0.411158 -0.028147
v -0.037842 0.412709 -0.024800
v -0.037202 0.413074 -0.023175
v -0.038251 0.406382 -0.037078
v -0.038066 0.409003 -0.029335
v -0.036918 0.419323 -0.020392
v -0.039145 0.414152 -0.031310
v -0.037768 0.413924 -0.030416
v -0.036888 0.414745 -0.040899
v -0.037097 0.411073 -0.048084
v -0.038020 0.409179 -0.047024
v -0.038774 0.411846 -0.033260
v -0.037436 0.415974 -0.038975
v -0.037516 0.415815 -0.038898
v -0.038093 0.407029 -0.041944
v -0.037220 0.408724 -0.042935
v -0.037184 0.408266 -0.038228
v -0.037048 0.412400 -0.029072
v -0.036652 0.418437 -0.023771
v -0.037719 0.415032 -0.025519
v -0.039039 0.414016 -0.031593
v -0.038360 0.413142 -0.033407
v -0.037906 0.411047 -0.036090
v -0.037736 0.411036 -0.034698
v -0.037689 0.407752 -0.033199
v -0.037187 0.413473 -0.034694
v -0.035683 0.412953 -0.034272
v -0.036355 0.413612 -0.029660
v -0.037026 0.411219 -0.048166
v -0.037487 0.412447 -0.034695
v -0.037229 0.413327 -0.034694
v -0.035551 0.412187 -0.044995
v -0.037742 0.418029 -0.025512
v -0.036676 0.417693 -0.025874
v -0.036610 0.417862 -0.025897
v -0.037664 0.418179 -0.025544
v -0.037594 0.414145 -0.027488
v -0.037688 0.413874 -0.021434
v -0.036976 0.413158 -0.037704
v -0.036974 0.419169 -0.020358
v -0.037175 0.410021 -0.034864
v -0.036777 0.410363 -0.031027
v -0.036623 0.410082 -0.043827
v -0.035628 0.412036 -0.044911
v -0.035911 0.418537 -0.022206
v -0.035496 0.417598 -0.025800
v -0.036581 0.410740 -0.037428
v -0.036941 0.415858 -0.021647
v -0.035973 0.418377 -0.022173
v -0.036466 0.414714 -0.024746
v -0.035426 0.412986 -0.032268
v -0.034529 0.413256 -0.042020
v -0.035554 0.417425 -0.025737
v -0.036409 0.413517 -0.029614
v -0.035910 0.415223 -0.038782
v -0.036112 0.411838 -0.034324
v -0.035828 0.415383 -0.038866
v -0.036352 0.409699 -0.039600
v -0.035646 0.411137 -0.040789
v -0.035730 0.412833 -0.034277
v -0.036430 0.415111 -0.023231
v -0.035976 0.411788 -0.031772
v -0.035465 0.412901 -0.032233
v -0.035827 0.412195 -0.038769
v -0.034629 0.414444 -0.039853
v -0.035191 0.417849 -0.024188
v -0.034609 0.413104 -0.041931
v -0.035265 0.417686 -0.024131
v -0.034715 0.414283 -0.039775
usemtl Pes_anserinus_common_tendon_rMaterial0
f 1 2 3
f 4 2 1
f 5 3 2
f 6 5 2
f 6 2 7
f 4 7 2
f 1 3 8
f 1 8 9
f 4 1 10
f 1 9 10
f 11 8 3
f 5 12 3
f 12 11 3
f 11 13 8
f 9 8 13
f 5 14 12
f 5 15 14
f 6 15 5
f 12 14 16
f 12 17 11
f 12 16 17
f 18 14 15
f 19 18 15
f 6 20 15
f 19 15 20
f 18 21 14
f 18 22 23
f 19 22 18
f 18 23 21
f 21 16 14
f 24 23 22
f 25 24 22
f 25 22 26
f 19 26 22
f 27 28 29
f 29 28 30
f 29 31 32
f 29 32 33
f 27 29 34
f 29 33 34
f 29 30 35
f 29 35 31
f 27 36 28
f 30 28 36
f 24 32 31
f 25 32 24
f 25 33 32
f 24 37 23
f 24 31 37
f 21 23 38
f 21 39 16
f 21 38 39
f 40 27 34
f 27 41 36
f 40 41 27
f 42 34 33
f 40 34 43
f 42 43 34
f 37 38 23
f 35 30 44
f 30 36 45
f 44 30 45
f 35 46 31
f 35 44 47
f 35 47 46
f 48 6 7
f 49 7 4
f 48 7 50
f 49 50 7
f 40 51 41
f 52 41 51
f 53 36 41
f 52 53 41
f 37 31 46
f 37 46 54
f 37 54 38
f 55 51 40
f 56 52 51
f 56 51 57
f 55 57 51
f 53 58 36
f 45 36 58
f 42 33 25
f 55 40 43
f 52 59 53
f 56 60 52
f 52 60 59
f 53 61 58
f 53 59 61
f 62 56 57
f 62 63 56
f 56 63 60
f 62 57 64
f 65 64 57
f 65 57 55
f 45 58 66
f 44 45 66
f 25 26 67
f 42 25 68
f 25 67 68
f 48 20 6
f 55 43 69
f 70 43 42
f 70 69 43
f 71 62 64
f 62 72 63
f 71 72 62
f 60 63 73
f 74 59 60
f 60 73 75
f 74 60 75
f 71 64 76
f 77 76 64
f 77 64 65
f 78 26 19
f 78 67 26
f 63 72 79
f 63 79 73
f 61 66 58
f 65 55 69
f 4 10 80
f 49 4 80
f 71 81 72
f 82 72 81
f 82 79 72
f 78 19 20
f 78 20 83
f 48 83 20
f 61 59 74
f 84 81 71
f 84 71 76
f 85 44 66
f 61 85 66
f 86 73 79
f 86 75 73
f 82 81 87
f 84 87 81
f 84 76 88
f 89 88 76
f 89 76 77
f 86 79 90
f 91 79 82
f 91 90 79
f 86 92 75
f 93 74 75
f 93 75 92
f 47 44 94
f 85 94 44
f 86 90 95
f 86 95 92
f 82 87 96
f 91 82 96
f 97 87 84
f 98 96 87
f 98 87 99
f 97 99 87
f 61 74 100
f 93 100 74
f 61 101 85
f 61 100 101
f 97 84 88
f 65 69 102
f 77 65 102
f 70 42 68
f 47 94 103
f 47 104 46
f 47 103 104
f 105 102 69
f 105 69 70
f 91 95 90
f 91 96 106
f 98 106 96
f 101 94 85
f 97 88 107
f 108 107 88
f 108 88 89
f 109 93 92
f 109 92 95
f 110 91 106
f 91 111 95
f 110 111 91
f 98 99 112
f 98 113 106
f 98 112 113
f 114 99 97
f 114 112 99
f 114 97 107
f 93 115 100
f 101 100 115
f 11 17 116
f 11 117 13
f 11 116 118
f 11 118 117
f 109 115 93
f 119 106 113
f 119 110 106
f 111 109 95
f 101 115 120
f 101 121 94
f 101 120 122
f 101 122 121
f 77 102 123
f 89 77 123
f 124 68 67
f 70 68 125
f 124 125 68
f 114 107 126
f 127 126 107
f 127 107 108
f 119 113 112
f 128 112 114
f 119 112 129
f 128 129 112
f 128 114 126
f 109 130 115
f 120 115 130
f 103 94 121
f 54 46 104
f 111 131 109
f 132 111 110
f 132 131 111
f 133 109 131
f 133 130 109
f 134 123 102
f 134 102 105
f 135 17 16
f 135 116 17
f 132 110 119
f 120 130 136
f 120 136 137
f 120 137 122
f 119 129 138
f 132 119 139
f 119 138 139
f 140 129 128
f 140 138 129
f 133 131 132
f 128 126 141
f 140 128 141
f 136 130 133
f 142 141 126
f 142 126 127
f 54 143 38
f 54 104 144
f 54 144 143
f 39 135 16
f 124 67 78
f 105 70 125
f 133 132 145
f 132 139 146
f 132 146 145
f 89 123 147
f 108 89 147
f 39 38 143
f 39 143 148
f 39 148 135
f 9 13 149
f 117 149 13
f 136 133 150
f 133 145 151
f 133 151 150
f 103 121 152
f 152 121 122
f 9 153 10
f 154 80 10
f 154 10 153
f 155 139 138
f 155 146 139
f 136 150 156
f 136 156 137
f 103 157 104
f 103 152 157
f 155 138 140
f 158 145 146
f 158 151 145
f 140 141 159
f 160 159 141
f 160 141 142
f 155 140 161
f 140 162 161
f 140 159 162
f 163 147 123
f 163 123 134
f 78 83 164
f 124 78 165
f 78 164 165
f 158 146 155
f 166 150 151
f 166 156 150
f 155 161 167
f 158 155 168
f 155 167 168
f 127 108 169
f 108 147 169
f 170 83 48
f 170 48 50
f 170 164 83
f 171 161 162
f 171 167 161
f 172 162 159
f 172 159 160
f 166 151 158
f 137 173 122
f 152 122 173
f 105 125 174
f 175 125 124
f 175 174 125
f 176 50 49
f 170 50 177
f 176 177 50
f 134 105 174
f 9 149 178
f 9 179 153
f 9 178 179
f 144 104 157
f 158 168 180
f 166 158 181
f 158 180 181
f 142 127 182
f 127 169 182
f 183 169 147
f 183 147 163
f 184 171 162
f 184 162 172
f 185 168 167
f 185 180 168
f 186 137 156
f 137 187 173
f 186 187 137
f 152 173 188
f 152 188 157
f 185 167 171
f 144 189 143
f 144 157 190
f 144 190 189
f 175 124 165
f 160 142 191
f 142 182 191
f 186 156 166
f 192 182 169
f 192 169 183
f 134 174 193
f 163 134 193
f 188 173 187
f 49 80 194
f 176 49 194
f 185 171 184
f 189 148 143
f 166 181 195
f 186 166 196
f 166 195 196
f 197 193 174
f 197 174 175
f 188 190 157
f 172 160 198
f 160 191 198
f 135 148 199
f 189 199 148
f 200 165 164
f 175 165 201
f 200 201 165
f 202 194 80
f 202 80 154
f 135 203 116
f 135 199 204
f 135 204 203
f 118 116 203
f 205 181 180
f 205 195 181
f 206 191 182
f 206 182 192
f 207 187 186
f 188 187 207
f 163 193 208
f 183 163 208
f 118 209 117
f 118 203 210
f 118 210 209
f 205 180 185
f 200 164 170
f 184 172 211
f 172 198 211
f 188 212 190
f 189 190 212
f 185 184 213
f 205 185 214
f 185 213 214
f 186 196 215
f 207 186 216
f 186 215 216
f 217 208 193
f 217 193 197
f 170 177 218
f 200 170 219
f 170 218 219
f 220 198 191
f 220 191 206
f 188 207 221
f 188 221 212
f 197 175 201
f 184 211 213
f 183 208 222
f 192 183 222
f 117 223 149
f 224 117 209
f 224 223 117
f 189 225 199
f 189 212 226
f 189 226 225
f 227 196 195
f 227 215 196
f 228 177 176
f 228 218 177
f 178 149 223
f 207 216 229
f 207 229 221
f 230 211 198
f 230 198 220
f 204 199 225
f 197 201 231
f 232 201 200
f 232 231 201
f 233 222 208
f 233 208 217
f 227 195 205
f 226 212 221
f 206 192 234
f 192 222 234
f 217 197 231
f 204 235 203
f 204 225 236
f 204 236 235
f 205 214 237
f 227 205 238
f 205 237 238
f 239 216 215
f 239 229 216
f 240 213 211
f 240 211 230
f 176 194 241
f 242 241 194
f 242 194 202
f 210 203 235
f 232 200 219
f 240 214 213
f 240 237 214
f 220 206 243
f 206 234 243
f 226 221 244
f 226 245 225
f 226 244 245
f 246 234 222
f 246 222 233
f 244 221 229
f 239 215 227
f 228 176 241
f 210 247 209
f 210 235 248
f 210 248 247
f 217 231 249
f 233 217 249
f 250 153 179
f 154 153 250
f 236 225 245
f 230 220 251
f 220 243 251
f 227 238 252
f 239 227 253
f 227 252 253
f 254 231 232
f 254 249 231
f 255 219 218
f 232 219 256
f 255 256 219
f 257 243 234
f 257 234 246
f 244 229 258
f 258 229 239
f 224 209 247
f 178 223 259
f 259 223 224
f 178 260 179
f 250 179 260
f 244 261 245
f 244 258 261
f 262 238 237
f 262 252 238
f 236 263 235
f 236 245 264
f 236 264 263
f 240 230 265
f 230 251 265
f 233 249 266
f 246 233 266
f 202 154 267
f 154 250 267
f 268 251 243
f 268 243 257
f 262 237 240
f 258 239 269
f 239 253 270
f 239 270 269
f 248 235 263
f 240 265 271
f 262 240 271
f 255 218 228
f 254 232 256
f 272 266 249
f 272 249 254
f 264 245 261
f 258 269 273
f 258 273 261
f 274 253 252
f 274 270 253
f 228 241 275
f 276 241 242
f 276 275 241
f 277 265 251
f 277 251 268
f 246 266 278
f 257 246 278
f 248 263 279
f 248 280 247
f 248 279 280
f 274 252 262
f 264 261 281
f 264 282 263
f 264 281 282
f 178 259 283
f 178 284 260
f 178 283 284
f 254 256 285
f 286 256 255
f 286 285 256
f 202 267 287
f 242 202 287
f 277 271 265
f 288 278 266
f 288 266 272
f 268 257 289
f 257 278 289
f 290 269 270
f 290 273 269
f 262 271 291
f 274 262 292
f 262 291 292
f 224 247 293
f 259 224 294
f 224 293 295
f 224 295 294
f 277 291 271
f 255 228 296
f 228 275 297
f 228 297 296
f 281 261 273
f 272 254 285
f 290 270 274
f 268 289 298
f 277 268 298
f 299 289 278
f 299 278 288
f 279 263 282
f 293 247 280
f 250 260 300
f 250 301 267
f 250 300 302
f 250 302 301
f 286 255 296
f 274 292 303
f 290 274 304
f 274 303 304
f 305 298 289
f 305 289 299
f 272 285 306
f 288 272 306
f 307 291 277
f 277 298 308
f 307 277 308
f 307 292 291
f 307 303 292
f 309 306 285
f 309 285 286
f 281 273 310
f 310 273 290
f 259 294 311
f 259 311 283
f 305 308 298
f 300 260 284
f 281 310 312
f 281 312 282
f 299 288 313
f 288 306 313
f 314 287 267
f 314 267 301
f 305 299 315
f 299 313 315
f 242 287 316
f 276 242 316
f 290 304 317
f 310 290 318
f 290 317 318
f 279 282 319
f 279 320 280
f 279 319 320
f 305 321 308
f 305 315 322
f 323 321 305
f 323 305 322
f 324 313 306
f 324 306 309
f 325 297 275
f 325 275 276
f 307 308 321
f 326 304 303
f 326 317 304
f 327 315 313
f 327 313 324
f 286 296 328
f 309 286 328
f 329 328 296
f 329 296 297
f 326 303 307
f 307 321 330
f 326 307 330
f 327 322 315
f 310 318 331
f 310 331 312
f 319 282 312
f 293 280 332
f 293 333 295
f 293 332 333
f 323 330 321
f 327 334 322
f 323 322 334
f 335 316 287
f 335 287 314
f 300 284 336
f 283 336 284
f 337 294 295
f 337 311 294
f 324 309 338
f 309 328 338
f 339 318 317
f 339 331 318
f 326 330 340
f 323 340 330
f 339 317 326
f 326 340 341
f 339 326 341
f 327 324 342
f 324 338 342
f 332 280 320
f 343 334 327
f 327 342 344
f 343 327 344
f 323 334 345
f 346 340 323
f 346 323 345
f 347 338 328
f 347 328 329
f 319 312 348
f 348 312 331
f 319 348 349
f 319 349 320
f 300 350 302
f 351 301 302
f 351 302 350
f 343 345 334
f 329 297 325
f 346 341 340
f 352 331 339
f 348 331 352
f 353 342 338
f 353 338 347
f 339 341 354
f 346 354 341
f 352 339 355
f 339 354 355
f 276 316 356
f 325 276 356
f 300 336 357
f 300 358 350
f 300 357 358
f 283 359 336
f 360 283 311
f 360 359 283
f 353 344 342
f 314 301 351
f 343 344 361
f 353 361 344
f 343 362 345
f 346 345 362
f 363 356 316
f 363 316 335
f 348 352 364
f 348 364 349
f 343 361 365
f 366 362 343
f 366 343 365
f 337 295 333
f 332 320 367
f 367 320 349
f 332 367 368
f 332 368 333
f 347 329 369
f 329 325 369
f 370 354 346
f 346 362 371
f 370 346 371
f 352 355 372
f 352 372 364
f 370 355 354
f 370 372 355
f 373 361 353
f 353 347 374
f 373 353 375
f 353 374 375
f 335 314 376
f 314 351 376
f 373 365 361
f 347 369 374
f 366 371 362
f 357 336 359
f 360 311 337
f 325 356 377
f 325 378 369
f 325 377 378
f 379 366 365
f 373 380 365
f 379 365 380
f 381 349 364
f 367 349 381
f 382 370 371
f 366 383 371
f 382 371 383
f 384 350 358
f 351 350 384
f 385 377 356
f 385 356 363
f 386 372 370
f 386 370 382
f 387 364 372
f 381 364 387
f 367 381 388
f 367 388 368
f 379 383 366
f 387 372 386
f 374 369 378
f 357 359 389
f 389 359 360
f 357 390 358
f 384 358 390
f 391 373 375
f 391 380 373
f 335 376 392
f 363 335 392
f 351 393 376
f 351 384 394
f 351 394 393
f 374 395 375
f 391 375 395
f 337 333 396
f 396 333 368
f 397 379 380
f 391 398 380
f 397 380 398
f 374 399 395
f 374 378 400
f 374 401 399
f 374 400 401
f 360 337 402
f 337 396 403
f 337 403 402
f 382 383 404
f 379 404 383
f 381 387 405
f 381 405 388
f 406 378 377
f 406 377 385
f 407 392 376
f 407 376 393
f 386 382 408
f 382 404 408
f 409 404 379
f 409 379 397
f 357 410 390
f 357 389 411
f 357 411 410
f 387 386 412
f 387 412 405
f 389 360 413
f 360 402 414
f 360 414 413
f 386 408 412
f 415 391 395
f 416 395 399
f 416 415 395
f 391 417 398
f 415 418 391
f 391 418 417
f 396 368 419
f 419 368 388
f 363 392 420
f 385 363 420
f 384 390 421
f 384 422 394
f 384 421 423
f 384 423 422
f 406 400 378
f 416 399 401
f 424 408 404
f 424 404 409
f 397 398 417
f 425 420 392
f 425 392 407
f 426 401 400
f 406 426 400
f 421 390 410
f 427 393 394
f 427 394 422
f 396 419 428
f 396 428 403
f 389 413 429
f 389 429 411
f 430 388 405
f 419 388 430
f 431 412 408
f 431 408 424
f 409 397 432
f 397 417 432
f 433 418 415
f 434 415 416
f 433 415 434
f 435 405 412
f 435 412 431
f 430 405 435
f 436 417 418
f 436 418 433
f 406 385 437
f 385 420 437
f 416 401 438
f 439 438 401
f 426 440 401
f 439 401 440
f 441 416 438
f 434 416 441
f 442 402 403
f 442 414 402
f 407 393 427
f 424 409 443
f 409 432 443
f 444 432 417
f 444 417 436
f 421 410 445
f 411 445 410
f 419 430 446
f 419 446 428
f 447 426 406
f 406 437 448
f 447 406 448
f 441 438 449
f 449 438 439
f 450 413 414
f 450 429 413
f 451 437 420
f 451 420 425
f 421 452 423
f 453 422 423
f 453 423 452
f 434 441 454
f 433 434 455
f 434 454 455
f 447 440 426
f 431 424 456
f 424 443 456
f 457 439 440
f 447 457 440
f 441 449 458
f 441 458 454
f 459 443 432
f 459 432 444
f 449 439 460
f 457 460 439
f 430 435 461
f 430 461 446
f 436 433 462
f 433 455 462
f 407 427 463
f 425 407 463
f 435 431 464
f 431 456 464
f 421 465 452
f 421 445 466
f 421 466 465
f 427 422 453
f 435 464 461
f 442 403 428
f 449 460 467
f 449 467 458
f 411 468 445
f 469 411 429
f 469 468 411
f 436 462 470
f 444 436 470
f 451 448 437
f 471 456 443
f 471 443 459
f 472 460 457
f 472 467 460
f 473 455 454
f 474 462 455
f 474 455 473
f 450 414 442
f 475 454 458
f 473 454 475
f 476 452 465
f 453 452 476
f 447 448 477
f 451 477 448
f 472 457 447
f 427 453 478
f 427 479 463
f 427 478 479
f 480 428 446
f 442 428 480
f 471 464 456
f 481 470 462
f 481 462 474
f 472 447 482
f 447 477 482
f 444 470 483
f 459 444 483
f 466 445 468
f 425 463 484
f 451 425 484
f 485 458 467
f 475 458 485
f 469 429 450
f 486 461 464
f 471 487 464
f 486 464 487
f 488 446 461
f 480 446 488
f 476 465 489
f 466 489 465
f 453 476 490
f 453 491 478
f 453 490 491
f 488 461 486
f 492 483 470
f 492 470 481
f 493 467 472
f 485 467 493
f 471 459 494
f 459 483 494
f 473 475 495
f 474 473 496
f 473 495 496
f 476 497 490
f 476 498 497
f 476 499 498
f 476 489 499
f 475 485 500
f 475 500 495
f 501 484 463
f 501 463 479
f 442 480 502
f 450 442 503
f 442 502 503
f 504 477 451
f 451 484 505
f 504 451 505
f 474 496 506
f 481 474 506
f 466 468 507
f 508 468 469
f 508 507 468
f 472 482 509
f 493 472 510
f 472 509 510
f 485 493 511
f 485 511 500
f 512 487 471
f 471 494 513
f 512 471 513
f 514 494 483
f 514 483 492
f 491 479 478
f 515 490 497
f 515 491 490
f 499 516 498
f 517 498 516
f 517 497 498
f 504 482 477
f 504 509 482
f 466 518 489
f 499 489 518
f 466 519 518
f 466 507 519
f 480 488 520
f 480 520 502
f 521 496 495
f 522 495 500
f 521 495 522
f 523 506 496
f 523 496 521
f 469 450 524
f 450 503 525
f 450 525 524
f 493 510 526
f 493 526 511
f 481 506 527
f 492 481 527
f 486 487 512
f 528 506 523
f 528 527 506
f 522 500 529
f 511 529 500
f 488 486 530
f 488 530 520
f 499 531 516
f 517 516 532
f 516 531 533
f 516 533 532
f 501 505 484
f 514 513 494
f 486 512 530
f 517 515 497
f 499 534 531
f 499 518 535
f 499 535 534
f 508 469 524
f 491 536 479
f 515 536 491
f 521 522 537
f 523 521 538
f 521 537 538
f 522 529 539
f 522 539 537
f 540 510 509
f 540 526 510
f 517 532 541
f 517 542 515
f 543 517 541
f 543 542 517
f 501 479 536
f 492 527 544
f 514 492 544
f 523 538 545
f 528 523 545
f 534 533 531
f 511 546 529
f 547 546 511
f 547 511 526
f 548 504 505
f 501 549 505
f 548 505 549
f 519 535 518
f 512 513 550
f 514 550 513
f 551 527 528
f 551 544 527
f 519 507 508
f 532 552 553
f 541 532 553
f 532 533 552
f 554 503 502
f 554 525 503
f 555 553 552
f 541 553 556
f 557 556 553
f 555 557 553
f 539 529 546
f 515 558 536
f 559 515 542
f 559 558 515
f 540 509 504
f 560 552 533
f 534 560 533
f 540 504 548
f 560 561 552
f 562 552 561
f 562 555 552
f 563 538 537
f 564 545 538
f 564 538 563
f 565 541 556
f 565 543 541
f 563 537 566
f 539 566 537
f 557 565 556
f 512 567 530
f 512 550 568
f 512 568 567
f 554 502 520
f 528 545 569
f 570 545 564
f 570 569 545
f 534 535 571
f 519 571 535
f 514 544 572
f 573 550 514
f 573 514 572
f 501 536 574
f 558 574 536
f 559 542 543
f 575 520 530
f 554 520 575
f 563 566 576
f 564 563 577
f 563 576 577
f 508 524 578
f 579 524 525
f 579 578 524
f 539 546 580
f 580 546 547
f 575 530 567
f 551 528 569
f 539 581 566
f 539 582 581
f 539 580 582
f 576 566 581
f 564 577 583
f 570 564 583
f 551 572 544
f 547 526 540
f 577 584 583
f 576 585 577
f 577 585 584
f 534 586 560
f 534 571 587
f 534 587 586
f 501 588 549
f 589 501 574
f 589 590 501
f 501 590 588
f 519 508 591
f 519 592 571
f 519 591 592
f 583 584 593
f 570 583 594
f 583 593 594
f 576 581 595
f 576 596 585
f 595 596 576
f 558 597 574
f 598 558 559
f 598 597 558
f 591 508 578
f 599 568 550
f 599 550 573
f 600 543 565
f 559 543 600
f 601 565 557
f 602 557 555
f 602 601 557
f 600 565 603
f 601 603 565
f 595 581 582
f 548 549 588
f 560 562 561
f 560 586 562
f 589 574 597
f 580 547 604
f 580 605 582
f 580 604 605
f 551 569 606
f 570 606 569
f 540 548 607
f 547 540 608
f 540 607 608
f 585 609 584
f 596 610 585
f 585 610 609
f 584 609 611
f 584 611 593
f 596 612 610
f 613 612 596
f 595 613 596
f 609 610 614
f 609 614 611
f 610 612 615
f 610 615 614
f 613 616 612
f 612 616 617
f 612 617 615
f 598 559 600
f 548 588 607
f 579 525 554
f 551 618 572
f 573 572 618
f 595 582 619
f 619 613 595
f 620 551 606
f 620 618 551
f 592 587 571
f 621 555 562
f 621 602 555
f 622 567 568
f 622 568 599
f 623 570 594
f 570 624 606
f 623 624 570
f 604 547 608
f 554 575 625
f 579 554 626
f 554 625 626
f 627 590 589
f 627 588 590
f 589 597 628
f 598 628 597
f 619 582 605
f 575 567 622
f 575 622 625
f 629 630 589
f 627 589 630
f 589 631 629
f 589 628 631
f 594 593 632
f 594 632 623
f 633 600 603
f 598 600 633
f 634 603 601
f 633 603 635
f 634 635 603
f 591 578 636
f 637 578 579
f 637 636 578
f 629 638 630
f 639 630 638
f 640 627 630
f 639 640 630
f 641 616 613
f 619 641 613
f 627 642 588
f 643 607 588
f 643 588 642
f 641 644 616
f 616 644 645
f 616 645 617
f 592 591 636
f 586 587 646
f 592 646 587
f 604 608 647
f 604 648 605
f 604 647 648
f 629 649 638
f 629 650 649
f 651 650 629
f 651 629 631
f 619 605 652
f 652 641 619
f 598 653 628
f 654 598 633
f 654 653 598
f 593 611 655
f 593 655 632
f 656 639 638
f 656 638 649
f 611 614 657
f 611 657 655
f 573 618 658
f 599 573 658
f 659 601 602
f 659 634 601
f 620 606 624
f 660 649 650
f 660 650 651
f 640 661 627
f 627 661 662
f 627 662 642
f 653 631 628
f 643 608 607
f 643 647 608
f 639 663 640
f 640 664 661
f 640 663 664
f 652 605 648
f 620 658 618
f 665 644 641
f 652 665 641
f 665 645 644
f 666 626 625
f 666 667 626
f 666 668 660
f 666 660 667
f 625 668 666
f 639 669 663
f 656 669 639
f 562 586 670
f 586 646 670
f 562 670 621
f 614 615 671
f 614 671 657
f 661 664 672
f 661 672 662
f 623 673 624
f 620 624 673
f 643 642 662
f 660 674 649
f 675 656 649
f 675 649 674
f 653 676 631
f 676 651 631
f 663 677 678
f 664 663 678
f 663 669 677
f 678 677 679
f 664 678 680
f 678 679 680
f 637 579 626
f 637 626 667
f 669 681 677
f 656 682 669
f 669 682 681
f 683 665 652
f 652 648 683
f 677 684 679
f 677 681 684
f 685 633 635
f 685 654 633
f 592 636 686
f 592 687 646
f 592 686 687
f 654 676 653
f 688 635 634
f 688 685 635
f 689 660 668
f 689 674 660
f 660 651 690
f 691 667 660
f 691 660 690
f 599 658 692
f 622 599 692
f 625 693 668
f 622 693 625
f 672 664 680
f 694 602 621
f 694 659 602
f 643 648 647
f 672 680 695
f 680 696 695
f 680 679 696
f 615 617 697
f 615 697 671
f 623 632 698
f 623 699 673
f 623 698 699
f 637 686 636
f 672 700 662
f 643 662 700
f 617 645 701
f 617 701 697
f 702 645 665
f 683 702 665
f 620 703 658
f 704 620 673
f 704 703 620
f 702 701 645
f 658 705 692
f 658 703 705
f 689 668 693
f 675 682 656
f 706 675 674
f 706 674 689
f 707 634 659
f 707 688 634
f 687 670 646
f 676 708 651
f 708 690 651
f 695 709 672
f 672 709 710
f 672 710 700
f 643 711 648
f 643 700 712
f 643 712 711
f 622 692 713
f 622 713 693
f 714 709 695
f 695 696 715
f 695 715 714
f 683 648 711
f 679 716 696
f 679 684 716
f 632 655 717
f 632 717 698
f 709 718 710
f 709 719 718
f 714 719 709
f 655 657 720
f 655 720 717
f 654 721 676
f 676 721 722
f 676 722 708
f 685 721 654
f 723 685 688
f 685 724 721
f 723 724 685
f 710 712 700
f 691 637 667
f 682 684 681
f 675 725 682
f 682 725 684
f 637 726 686
f 691 726 637
f 687 686 726
f 704 673 699
f 683 711 727
f 727 702 683
f 728 621 670
f 687 728 670
f 728 694 621
f 710 718 712
f 729 713 692
f 729 692 705
f 706 725 675
f 704 705 703
f 689 693 730
f 729 693 713
f 729 730 693
f 704 699 731
f 699 698 732
f 699 732 731
f 706 689 730
f 733 659 694
f 733 707 659
f 734 688 707
f 734 723 688
f 729 711 712
f 729 735 711
f 727 711 735
f 687 726 736
f 687 737 728
f 687 736 737
f 708 738 690
f 738 691 690
f 696 716 739
f 696 739 715
f 729 712 718
f 657 671 740
f 657 740 720
f 721 724 723
f 721 723 722
f 708 722 741
f 708 741 738
f 691 736 726
f 725 716 684
f 706 742 725
f 725 742 716
f 743 701 702
f 727 743 702
f 719 744 718
f 729 718 744
f 697 701 745
f 743 745 701
f 704 746 705
f 747 704 731
f 747 746 704
f 714 748 719
f 719 748 744
f 691 749 736
f 738 749 691
f 729 705 746
f 729 750 730
f 729 746 735
f 729 744 750
f 714 715 748
f 698 717 720
f 698 720 732
f 706 730 750
f 751 742 706
f 751 706 750
f 727 735 752
f 752 743 727
f 728 733 694
f 728 737 733
f 671 697 753
f 671 753 740
f 737 736 749
f 697 745 753
f 722 723 734
f 722 734 741
f 754 707 733
f 754 734 707
f 731 755 747
f 731 732 755
f 752 735 746
f 738 756 749
f 738 741 756
f 737 749 756
f 739 716 742
f 739 742 751
f 752 746 747
f 748 750 744
f 748 751 750
f 733 737 756
f 752 757 743
f 757 745 743
f 733 756 754
f 747 757 752
f 757 753 745
f 739 748 715
f 739 751 748
f 747 755 757
f 732 720 740
f 732 740 755
f 741 734 754
f 741 754 756
f 755 753 757
f 755 740 753
