# 
# Wavefront OBJ file
# Created with Kaydara FBX
# 
mtllib c:\users\tjvan\onedrive\documenten\fontys\minor\nx\.mtlmodels\pes_anserine_bursa.r.obj

g Pes_anserine_bursa_r
v -0.061463 0.381595 -0.014596
v -0.060865 0.384056 -0.015265
v -0.061843 0.381684 -0.014909
v -0.060552 0.377822 -0.016612
v -0.060971 0.377917 -0.016868
v -0.059265 0.381893 -0.017977
v -0.060472 0.383966 -0.014970
v -0.058845 0.381797 -0.017724
v -0.060165 0.376104 -0.017641
v -0.060609 0.376196 -0.017853
v -0.058815 0.380091 -0.020006
v -0.059692 0.389023 -0.015089
v -0.057743 0.387420 -0.018601
v -0.058976 0.375314 -0.020489
v -0.059437 0.375409 -0.020656
v -0.057709 0.380008 -0.022870
v -0.058366 0.379995 -0.019810
v -0.059284 0.388915 -0.014821
v -0.057314 0.387310 -0.018369
v -0.057240 0.379903 -0.022732
v -0.057647 0.392743 -0.016183
v -0.055880 0.392236 -0.019752
v -0.057708 0.375829 -0.024816
v -0.058183 0.375941 -0.024927
v -0.056607 0.379812 -0.028355
v -0.057229 0.392608 -0.015945
v -0.055445 0.392097 -0.019550
v -0.057079 0.385335 -0.021237
v -0.056131 0.379698 -0.028255
v -0.056623 0.385223 -0.021067
v -0.056193 0.384194 -0.025122
v -0.055723 0.384071 -0.025003
v -0.054831 0.390862 -0.023438
v -0.055652 0.382674 -0.030024
v -0.054990 0.395557 -0.018930
v -0.054203 0.394991 -0.021743
v -0.054377 0.390727 -0.023277
v -0.055178 0.382544 -0.029931
v -0.053761 0.394843 -0.021562
v -0.054562 0.395393 -0.018731
v -0.054446 0.388644 -0.027000
v -0.053987 0.388492 -0.026873
v -0.054305 0.386286 -0.031607
v -0.053548 0.393722 -0.024661
v -0.053843 0.386127 -0.031504
v -0.053097 0.393578 -0.024501
v -0.052922 0.391586 -0.028508
v -0.053102 0.389451 -0.030525
v -0.052472 0.391419 -0.028369
v -0.052657 0.389261 -0.030399
usemtl Pes_anserine_bursa_rMaterial0
f 1 2 3
f 4 1 3
f 4 3 5
f 6 5 3
f 6 3 2
f 1 7 2
f 8 1 4
f 8 7 1
f 9 5 10
f 11 10 5
f 9 4 5
f 11 5 6
f 7 12 2
f 13 2 12
f 13 6 2
f 14 9 10
f 14 10 15
f 16 15 10
f 16 10 11
f 17 4 9
f 17 8 4
f 7 18 12
f 19 18 7
f 19 7 8
f 20 9 14
f 20 17 9
f 18 21 12
f 22 13 12
f 22 12 21
f 23 14 15
f 23 15 24
f 25 24 15
f 25 15 16
f 18 26 21
f 27 18 19
f 27 26 18
f 28 11 6
f 28 6 13
f 29 14 23
f 29 20 14
f 30 8 17
f 30 19 8
f 31 16 11
f 31 11 28
f 32 17 20
f 32 30 17
f 29 23 24
f 29 24 25
f 33 28 13
f 33 13 22
f 34 25 16
f 34 16 31
f 26 35 21
f 36 22 21
f 36 21 35
f 37 19 30
f 37 27 19
f 38 20 29
f 38 32 20
f 39 26 27
f 26 40 35
f 39 40 26
f 41 31 28
f 41 28 33
f 42 30 32
f 42 37 30
f 38 29 25
f 38 25 34
f 43 34 31
f 43 31 41
f 44 33 22
f 44 22 36
f 45 32 38
f 45 42 32
f 45 38 34
f 45 34 43
f 46 27 37
f 46 39 27
f 40 36 35
f 47 41 33
f 47 33 44
f 40 39 36
f 48 43 41
f 48 41 47
f 49 37 42
f 49 46 37
f 50 45 43
f 50 43 48
f 39 44 36
f 50 42 45
f 50 49 42
f 39 46 44
f 46 47 44
f 49 48 47
f 49 50 48
f 46 49 47
