# 
# Wavefront OBJ file
# Created with Kaydara FBX
# 
mtllib c:\users\tjvan\onedrive\documenten\fontys\minor\nx\.mtlmodels\plantaris_muscle.r.obj

g Plantaris_muscle_r
v -0.101927 0.440108 -0.063793
v -0.101717 0.433286 -0.064254
v -0.100530 0.433172 -0.061149
v -0.100350 0.440232 -0.066225
v -0.101607 0.446821 -0.062495
v -0.099309 0.446445 -0.060156
v -0.100240 0.439896 -0.061021
v -0.101477 0.426454 -0.064263
v -0.099562 0.426497 -0.066917
v -0.099849 0.433376 -0.066762
v -0.101603 0.453670 -0.063353
v -0.100976 0.447063 -0.065076
v -0.100870 0.453252 -0.060892
v -0.099913 0.459725 -0.059201
v -0.101555 0.460409 -0.061445
v -0.099195 0.460962 -0.063346
v -0.097321 0.447067 -0.066195
v -0.098233 0.453931 -0.064779
v -0.099206 0.465903 -0.056934
v -0.101348 0.467081 -0.058936
v -0.101533 0.419672 -0.064244
v -0.099903 0.419646 -0.060974
v -0.101298 0.412969 -0.064260
v -0.098952 0.412997 -0.067099
v -0.099333 0.419708 -0.067033
v -0.100300 0.426337 -0.061088
v -0.099952 0.474142 -0.056770
v -0.100805 0.472127 -0.054707
v -0.099839 0.468238 -0.061180
v -0.101016 0.406325 -0.064079
v -0.099333 0.413038 -0.060952
v -0.100474 0.399667 -0.064020
v -0.098022 0.399905 -0.061104
v -0.097803 0.399900 -0.066359
v -0.098715 0.406463 -0.060846
v -0.098451 0.406347 -0.066733
v -0.096503 0.440198 -0.067179
v -0.096971 0.458820 -0.056831
v -0.098182 0.452682 -0.058603
v -0.100749 0.474872 -0.048683
v -0.097949 0.473593 -0.047250
v -0.098359 0.470645 -0.052916
v -0.100439 0.477147 -0.042736
v -0.099208 0.480117 -0.044399
v -0.097795 0.475804 -0.041943
v -0.099585 0.477668 -0.050541
v -0.096284 0.432824 -0.058999
v -0.099395 0.393034 -0.064142
v -0.097005 0.393440 -0.066110
v -0.098342 0.481818 -0.040131
v -0.099621 0.479857 -0.038779
v -0.097649 0.478456 -0.038128
v -0.095888 0.426134 -0.059670
v -0.094624 0.445673 -0.057709
v -0.095792 0.439390 -0.058623
v -0.092937 0.474888 -0.056571
v -0.095033 0.413109 -0.059931
v -0.095409 0.419609 -0.060138
v -0.095532 0.426442 -0.067875
v -0.095933 0.433329 -0.067726
v -0.091354 0.461177 -0.063407
v -0.092392 0.468291 -0.060688
v -0.098561 0.482479 -0.036212
v -0.095078 0.482021 -0.044869
v -0.094447 0.479704 -0.051160
v -0.098053 0.386549 -0.064400
v -0.096153 0.386907 -0.062122
v -0.097195 0.393378 -0.061640
v -0.094894 0.412994 -0.067636
v -0.095198 0.419659 -0.067798
v -0.094857 0.469064 -0.050670
v -0.095963 0.464425 -0.054384
v -0.094250 0.400216 -0.060329
v -0.094635 0.406605 -0.060014
v -0.097587 0.483568 -0.037210
v -0.096866 0.481507 -0.036243
v -0.096786 0.484726 -0.035944
v -0.097214 0.483870 -0.035106
v -0.095888 0.483643 -0.035054
v -0.094206 0.400144 -0.066583
v -0.094573 0.406486 -0.067143
v -0.094235 0.472886 -0.045925
v -0.095581 0.483656 -0.037380
v -0.095408 0.482849 -0.040331
v -0.091225 0.447029 -0.067223
v -0.091481 0.454144 -0.065456
v -0.091856 0.457212 -0.053546
v -0.093175 0.451575 -0.055806
v -0.095970 0.387120 -0.066217
v -0.096346 0.380137 -0.064668
v -0.094588 0.380783 -0.066493
v -0.094719 0.475621 -0.041144
v -0.095269 0.477794 -0.038003
v -0.095303 0.484521 -0.035699
v -0.093223 0.387437 -0.060980
v -0.093811 0.393860 -0.060824
v -0.092954 0.387689 -0.066696
v -0.093680 0.393893 -0.066485
v -0.093721 0.482233 -0.034965
v -0.094826 0.480273 -0.036076
v -0.090672 0.433168 -0.068503
v -0.090734 0.440063 -0.068165
v -0.094666 0.380512 -0.062580
v -0.092676 0.374196 -0.063358
v -0.094250 0.373847 -0.065143
v -0.089385 0.425791 -0.059588
v -0.088175 0.438440 -0.058120
v -0.089005 0.432188 -0.058990
v -0.091991 0.381480 -0.067045
v -0.090549 0.467650 -0.048296
v -0.091030 0.462658 -0.051186
v -0.090608 0.426258 -0.068372
v -0.087516 0.444609 -0.056885
v -0.093601 0.483037 -0.037420
v -0.090156 0.413049 -0.060448
v -0.089798 0.419494 -0.060308
v -0.089825 0.480196 -0.042677
v -0.092240 0.482045 -0.039118
v -0.093179 0.483143 -0.035902
v -0.092992 0.476918 -0.037745
v -0.090628 0.412877 -0.067654
v -0.090570 0.419501 -0.067972
v -0.090602 0.479852 -0.034631
v -0.092087 0.478195 -0.035802
v -0.091869 0.475244 -0.039857
v -0.092298 0.380989 -0.061294
v -0.090741 0.374586 -0.062083
v -0.090568 0.400376 -0.060876
v -0.090486 0.406655 -0.060736
v -0.092727 0.374644 -0.066873
v -0.090640 0.400250 -0.066410
v -0.090680 0.406477 -0.067079
v -0.084457 0.472985 -0.052846
v -0.086794 0.477489 -0.047611
v -0.090428 0.368712 -0.067657
v -0.091432 0.368064 -0.066033
v -0.090668 0.472118 -0.044337
v -0.090144 0.387805 -0.060825
v -0.090435 0.394120 -0.060897
v -0.090675 0.481024 -0.036920
v -0.089977 0.388011 -0.066292
v -0.090406 0.394129 -0.066169
v -0.086416 0.456145 -0.051979
v -0.086882 0.450451 -0.054724
v -0.089293 0.475214 -0.038041
v -0.090484 0.375418 -0.067512
v -0.088517 0.369422 -0.068123
v -0.090280 0.368240 -0.064514
v -0.083086 0.460742 -0.061112
v -0.083672 0.466994 -0.057277
v -0.088490 0.375080 -0.061528
v -0.089599 0.381457 -0.060963
v -0.086743 0.476365 -0.037225
v -0.088186 0.375935 -0.067114
v -0.089325 0.381930 -0.066558
v -0.084306 0.447040 -0.067255
v -0.083417 0.454210 -0.064380
v -0.088887 0.362292 -0.066995
v -0.087788 0.362474 -0.065805
v -0.086794 0.466822 -0.046386
v -0.086441 0.461697 -0.049333
v -0.088655 0.368567 -0.063273
v -0.085892 0.432961 -0.069186
v -0.085137 0.439908 -0.068702
v -0.087226 0.400200 -0.066006
v -0.086698 0.412651 -0.067718
v -0.087006 0.406309 -0.066845
v -0.087518 0.471396 -0.042493
v -0.087323 0.478196 -0.039661
v -0.086438 0.419223 -0.068331
v -0.086201 0.426004 -0.069027
v -0.087066 0.400371 -0.061539
v -0.086572 0.369931 -0.067702
v -0.085817 0.412858 -0.061796
v -0.086626 0.406571 -0.061660
v -0.088030 0.362875 -0.068391
v -0.087145 0.387938 -0.061347
v -0.087186 0.394154 -0.061483
v -0.087078 0.388059 -0.065462
v -0.087217 0.394149 -0.065557
v -0.086319 0.362814 -0.064815
v -0.084218 0.474342 -0.044053
v -0.084310 0.425790 -0.062897
v -0.084925 0.419340 -0.062579
v -0.086993 0.381735 -0.061560
v -0.086123 0.376212 -0.066136
v -0.086878 0.382100 -0.065576
v -0.083008 0.438549 -0.061478
v -0.083683 0.432171 -0.062597
v -0.085651 0.357108 -0.069335
v -0.086335 0.356594 -0.068189
v -0.086794 0.368999 -0.062366
v -0.086415 0.363507 -0.068700
v -0.086351 0.375636 -0.062182
v -0.084852 0.369689 -0.062939
v -0.084223 0.357711 -0.069610
v -0.085336 0.356755 -0.067175
v -0.082958 0.450720 -0.055945
v -0.083017 0.444739 -0.059038
v -0.083650 0.466891 -0.045870
v -0.084284 0.471597 -0.041462
v -0.084933 0.400195 -0.063792
v -0.085229 0.387951 -0.063336
v -0.085070 0.394067 -0.063447
v -0.085249 0.381921 -0.063546
v -0.084559 0.406310 -0.064481
v -0.084952 0.376113 -0.064096
v -0.082746 0.456339 -0.052638
v -0.084801 0.363178 -0.063958
v -0.082350 0.469313 -0.048364
v -0.083598 0.419158 -0.066317
v -0.084067 0.412618 -0.065302
v -0.084751 0.364020 -0.068338
v -0.084814 0.370285 -0.066689
v -0.083282 0.364349 -0.067415
v -0.083120 0.461803 -0.049268
v -0.082785 0.358162 -0.069219
v -0.084024 0.370226 -0.064803
v -0.080856 0.345789 -0.072210
v -0.080571 0.345373 -0.069930
v -0.081306 0.345344 -0.071078
v -0.083948 0.357138 -0.066488
v -0.082639 0.357452 -0.065699
v -0.082897 0.432588 -0.066895
v -0.083252 0.425859 -0.066973
v -0.079595 0.346322 -0.072379
v -0.081837 0.445906 -0.063099
v -0.082360 0.439330 -0.065685
v -0.083261 0.363769 -0.064255
v -0.082723 0.364243 -0.065782
v -0.081273 0.357910 -0.065459
v -0.081556 0.358427 -0.068334
v -0.078331 0.346693 -0.071863
v -0.079387 0.345678 -0.069224
v -0.081300 0.458037 -0.055657
v -0.081395 0.463778 -0.051990
v -0.081542 0.452275 -0.059329
v -0.080847 0.358382 -0.066895
v -0.077370 0.346840 -0.070863
v -0.078172 0.346012 -0.068567
v -0.076720 0.346801 -0.069581
v -0.076988 0.333864 -0.073473
v -0.076987 0.346431 -0.068361
v -0.075251 0.334679 -0.075004
v -0.076516 0.334218 -0.074719
v -0.076415 0.333843 -0.072205
v -0.074008 0.334979 -0.074392
v -0.075298 0.334068 -0.071357
v -0.073066 0.335117 -0.073328
v -0.074106 0.334348 -0.070603
v -0.072491 0.335100 -0.071991
v -0.072735 0.322042 -0.075966
v -0.072769 0.321920 -0.073317
v -0.073274 0.321815 -0.074673
v -0.072803 0.334783 -0.070661
v -0.071417 0.322476 -0.076316
v -0.071763 0.322205 -0.072272
v -0.070470 0.322600 -0.071694
v -0.070135 0.322865 -0.075742
v -0.069217 0.323119 -0.074644
v -0.069400 0.309756 -0.074781
v -0.068723 0.323227 -0.073271
v -0.069149 0.323037 -0.071925
v -0.068914 0.309925 -0.073457
v -0.068780 0.309957 -0.076038
v -0.067786 0.310306 -0.072611
v -0.066250 0.310806 -0.075815
v -0.067492 0.310387 -0.076401
v -0.066572 0.310715 -0.071884
v -0.065355 0.311112 -0.074716
v -0.065178 0.297797 -0.074521
v -0.064580 0.297957 -0.075808
v -0.064864 0.311284 -0.073340
v -0.065266 0.311157 -0.071987
v -0.064708 0.298024 -0.073184
v -0.063263 0.298415 -0.076156
v -0.063678 0.298434 -0.072214
v -0.062027 0.298884 -0.075563
v -0.062467 0.298905 -0.071492
v -0.065756 0.088474 -0.079112
v -0.065614 0.100895 -0.076963
v -0.065394 0.101059 -0.078009
v -0.065090 0.100725 -0.075908
v -0.065573 0.076022 -0.081301
v -0.065527 0.088689 -0.080296
v -0.064899 0.075857 -0.080213
v -0.065064 0.088283 -0.078048
v -0.065500 0.113613 -0.076196
v -0.065585 0.113410 -0.075020
v -0.064951 0.113212 -0.073980
v -0.065047 0.125786 -0.072695
v -0.065351 0.076231 -0.082505
v -0.064594 0.063729 -0.084333
v -0.064870 0.063554 -0.083273
v -0.064470 0.101174 -0.078683
v -0.064231 0.076354 -0.083067
v -0.064427 0.088796 -0.080858
v -0.065018 0.125987 -0.073837
v -0.064465 0.113689 -0.076775
v -0.060708 0.299473 -0.073116
v -0.061121 0.299259 -0.074482
v -0.061178 0.299360 -0.071813
v -0.060842 0.286003 -0.073709
v -0.060165 0.286122 -0.074931
v -0.064026 0.100637 -0.075329
v -0.063897 0.113084 -0.073429
v -0.063931 0.088193 -0.077487
v -0.064608 0.138203 -0.070791
v -0.064505 0.125581 -0.071598
v -0.064188 0.138062 -0.069693
v -0.064683 0.138347 -0.071939
v -0.064037 0.126061 -0.074422
v -0.064366 0.063425 -0.082281
v -0.063784 0.075785 -0.079609
v -0.063865 0.051074 -0.085711
v -0.064240 0.050995 -0.084559
v -0.060430 0.286263 -0.072390
v -0.064396 0.150747 -0.069657
v -0.064650 0.150860 -0.070803
v -0.063824 0.138419 -0.072576
v -0.063963 0.163357 -0.068705
v -0.064641 0.163484 -0.069766
v -0.063912 0.150920 -0.071514
v -0.063468 0.175941 -0.067075
v -0.063932 0.163542 -0.070598
v -0.063853 0.176138 -0.068375
v -0.064107 0.150635 -0.068464
v -0.063670 0.063877 -0.085025
v -0.062815 0.051185 -0.086357
v -0.058857 0.286535 -0.075301
v -0.063532 0.125447 -0.070975
v -0.063277 0.101189 -0.078712
v -0.063157 0.088809 -0.080870
v -0.063230 0.113651 -0.076735
v -0.063185 0.163217 -0.067691
v -0.063654 0.050994 -0.083505
v -0.063324 0.063394 -0.081780
v -0.063278 0.044831 -0.085647
v -0.063659 0.044833 -0.084627
v -0.063142 0.044856 -0.083658
v -0.062947 0.076393 -0.083093
v -0.063228 0.150547 -0.067582
v -0.063302 0.137969 -0.069008
v -0.062672 0.163077 -0.066543
v -0.062833 0.126038 -0.074464
v -0.062822 0.100669 -0.075418
v -0.062697 0.113051 -0.073418
v -0.062706 0.175737 -0.065977
v -0.062673 0.088209 -0.077491
v -0.062700 0.150897 -0.071346
v -0.063145 0.176174 -0.069310
v -0.062643 0.163476 -0.070328
v -0.062650 0.138400 -0.072497
v -0.062315 0.044847 -0.086234
v -0.061989 0.188580 -0.066877
v -0.061346 0.188548 -0.067723
v -0.063724 0.033229 -0.084854
v -0.063190 0.030157 -0.083468
v -0.063843 0.033283 -0.083878
v -0.063060 0.038627 -0.085241
v -0.063337 0.038694 -0.084386
v -0.063372 0.033344 -0.082972
v -0.063198 0.030529 -0.082866
v -0.062517 0.075818 -0.079615
v -0.063109 0.030222 -0.084041
v -0.063000 0.030627 -0.084808
v -0.062997 0.033122 -0.085804
v -0.062483 0.063941 -0.085056
v -0.061604 0.051289 -0.086491
v -0.059291 0.286715 -0.071715
v -0.062552 0.051057 -0.083031
v -0.062090 0.044904 -0.083223
v -0.062114 0.137975 -0.069108
v -0.062353 0.125434 -0.071083
v -0.060800 0.188207 -0.064744
v -0.061524 0.188408 -0.065753
v -0.063015 0.038736 -0.083528
v -0.062699 0.033228 -0.082718
v -0.062145 0.063460 -0.081857
v -0.062219 0.101110 -0.078134
v -0.062045 0.088714 -0.080279
v -0.057610 0.287008 -0.074766
v -0.062144 0.113520 -0.076158
v -0.061676 0.162972 -0.065971
v -0.062051 0.150553 -0.067731
v -0.062424 0.029729 -0.083219
v -0.062543 0.030030 -0.082579
v -0.061742 0.175529 -0.065030
v -0.061783 0.076330 -0.082534
v -0.061865 0.176001 -0.068998
v -0.060165 0.188339 -0.067516
v -0.062415 0.029723 -0.083757
v -0.062290 0.038544 -0.085927
v -0.062186 0.038718 -0.083085
v -0.061753 0.032874 -0.086097
v -0.062285 0.030019 -0.084524
v -0.061795 0.125909 -0.073867
v -0.061194 0.044880 -0.086373
v -0.061649 0.113120 -0.073955
v -0.061824 0.100775 -0.076016
v -0.061953 0.030721 -0.082551
v -0.061896 0.033186 -0.083063
v -0.061336 0.125507 -0.071657
v -0.061627 0.138319 -0.071914
v -0.061737 0.150828 -0.070649
v -0.060088 0.188008 -0.063738
v -0.061588 0.088316 -0.078022
v -0.060741 0.175355 -0.064437
v -0.060888 0.175795 -0.068112
v -0.061645 0.163354 -0.069517
v -0.061315 0.051151 -0.083170
v -0.060992 0.044936 -0.083339
v -0.061458 0.075959 -0.080287
v -0.061428 0.063910 -0.084511
v -0.058042 0.287194 -0.071141
v -0.061770 0.029998 -0.083127
v -0.061598 0.030518 -0.084384
v -0.061726 0.030009 -0.083678
v -0.061292 0.038533 -0.086168
v -0.061641 0.100945 -0.077091
v -0.061385 0.088528 -0.079202
v -0.061189 0.038664 -0.083199
v -0.061156 0.063596 -0.082452
v -0.061496 0.113318 -0.075106
v -0.061156 0.150617 -0.068431
v -0.061114 0.138039 -0.069707
v -0.061106 0.076166 -0.081460
v -0.056812 0.287377 -0.073669
v -0.058746 0.200704 -0.065252
v -0.059339 0.200846 -0.066050
v -0.061292 0.033060 -0.083719
v -0.060988 0.138186 -0.070883
v -0.061179 0.125708 -0.072814
v -0.060869 0.063779 -0.083502
v -0.060964 0.033004 -0.084409
v -0.060904 0.032947 -0.085323
v -0.061176 0.150725 -0.069584
v -0.059144 0.187816 -0.063209
v -0.060998 0.163068 -0.067085
v -0.060129 0.175425 -0.065587
v -0.061040 0.163211 -0.068397
v -0.060248 0.175594 -0.066956
v -0.060470 0.051359 -0.085978
v -0.060100 0.044923 -0.085946
v -0.058135 0.200559 -0.064468
v -0.059046 0.200830 -0.066660
v -0.060291 0.051258 -0.083795
v -0.059982 0.044947 -0.083935
v -0.060256 0.038607 -0.083796
v -0.059832 0.038538 -0.084821
v -0.060251 0.038519 -0.085828
v -0.056870 0.287595 -0.071071
v -0.056420 0.287632 -0.072318
v -0.058667 0.187937 -0.065633
v -0.059185 0.188115 -0.066756
v -0.059925 0.051350 -0.084896
v -0.057224 0.274216 -0.072422
v -0.056540 0.274243 -0.073503
v -0.057561 0.200418 -0.063621
v -0.058626 0.187823 -0.064349
v -0.059567 0.044947 -0.084992
v -0.056634 0.274488 -0.071381
v -0.057423 0.200506 -0.065651
v -0.058176 0.200666 -0.066294
v -0.057049 0.200306 -0.063055
v -0.057306 0.213219 -0.066011
v -0.056851 0.213118 -0.064673
v -0.057603 0.213252 -0.065387
v -0.055509 0.274848 -0.070667
v -0.056711 0.200282 -0.063749
v -0.055257 0.274521 -0.073734
v -0.056108 0.212982 -0.063952
v -0.056895 0.200371 -0.064800
v -0.056388 0.213062 -0.065619
v -0.055383 0.212849 -0.063208
v -0.054361 0.275224 -0.069847
v -0.055844 0.225629 -0.065597
v -0.054059 0.274873 -0.073215
v -0.054770 0.212735 -0.062578
v -0.055620 0.212922 -0.064958
v -0.055398 0.225524 -0.066381
v -0.055090 0.262165 -0.070780
v -0.054322 0.262111 -0.071736
v -0.054528 0.212710 -0.063169
v -0.054973 0.212800 -0.064186
v -0.053201 0.275524 -0.069686
v -0.055120 0.225566 -0.064619
v -0.053193 0.275210 -0.072194
v -0.054274 0.262391 -0.069949
v -0.053053 0.262233 -0.071945
v -0.052838 0.275457 -0.070918
v -0.054238 0.225362 -0.066099
v -0.053365 0.225387 -0.062921
v -0.054251 0.225478 -0.063757
v -0.054161 0.237822 -0.066841
v -0.053303 0.237881 -0.065909
v -0.053236 0.225244 -0.065435
v -0.053197 0.262637 -0.069200
v -0.053865 0.237687 -0.067589
v -0.052552 0.225286 -0.062308
v -0.051856 0.262456 -0.071476
v -0.053334 0.249839 -0.069624
v -0.053731 0.249969 -0.068903
v -0.052458 0.225172 -0.064496
v -0.052099 0.225176 -0.063267
v -0.052216 0.262896 -0.068298
v -0.052123 0.249849 -0.069714
v -0.052949 0.250138 -0.068115
v -0.052557 0.237964 -0.064883
v -0.052618 0.237606 -0.067355
v -0.050984 0.262714 -0.070520
v -0.051738 0.238065 -0.063758
v -0.052149 0.250332 -0.067176
v -0.051532 0.237597 -0.066686
v -0.051269 0.250535 -0.066213
v -0.051171 0.263050 -0.068141
v -0.051064 0.249979 -0.069120
v -0.050675 0.262944 -0.069264
v -0.050687 0.238033 -0.063353
v -0.050702 0.237656 -0.065721
v -0.050395 0.237823 -0.064457
v -0.050280 0.250165 -0.068207
v -0.050260 0.250603 -0.066002
v -0.049983 0.250397 -0.067063
usemtl Plantaris_muscle_rMaterial0
f 1 2 3
f 4 2 1
f 4 1 5
f 1 6 5
f 1 3 7
f 1 7 6
f 8 3 2
f 9 8 2
f 4 10 2
f 9 2 10
f 11 12 5
f 11 5 13
f 4 5 12
f 13 5 6
f 11 14 15
f 16 11 15
f 11 17 12
f 11 13 14
f 16 18 11
f 11 18 17
f 19 20 15
f 16 15 20
f 19 15 14
f 8 21 22
f 9 21 8
f 22 21 23
f 24 23 21
f 9 25 21
f 24 21 25
f 8 26 3
f 8 22 26
f 27 20 28
f 28 20 19
f 27 29 20
f 16 20 29
f 30 31 23
f 24 30 23
f 22 23 31
f 30 32 33
f 30 34 32
f 30 35 31
f 24 36 30
f 30 33 35
f 30 36 34
f 37 4 12
f 37 12 17
f 13 38 14
f 13 6 39
f 13 39 38
f 27 28 40
f 28 41 40
f 28 19 42
f 28 42 41
f 40 43 44
f 45 43 40
f 27 40 46
f 40 44 46
f 45 40 41
f 47 3 26
f 7 3 47
f 48 33 32
f 49 48 32
f 49 32 34
f 50 43 51
f 52 51 43
f 50 44 43
f 52 43 45
f 37 10 4
f 22 53 26
f 47 26 53
f 7 54 6
f 7 47 55
f 7 55 54
f 56 29 27
f 56 27 46
f 22 31 57
f 22 58 53
f 22 57 58
f 19 14 38
f 59 9 10
f 37 60 10
f 59 10 60
f 61 16 29
f 56 62 29
f 61 29 62
f 50 51 63
f 63 51 52
f 64 46 44
f 64 65 46
f 56 46 65
f 59 25 9
f 49 66 48
f 48 66 67
f 48 68 33
f 48 67 68
f 35 57 31
f 69 24 25
f 59 70 25
f 69 25 70
f 39 6 54
f 19 71 42
f 19 38 72
f 19 72 71
f 64 44 50
f 61 18 16
f 69 36 24
f 35 33 73
f 35 74 57
f 35 73 74
f 50 63 75
f 63 52 76
f 63 77 75
f 63 78 77
f 63 79 78
f 63 76 79
f 80 34 36
f 69 81 36
f 80 36 81
f 82 41 42
f 82 42 71
f 50 75 83
f 50 83 84
f 64 50 84
f 85 17 18
f 61 86 18
f 85 18 86
f 39 87 38
f 39 54 88
f 39 88 87
f 49 89 66
f 90 67 66
f 91 90 66
f 91 66 89
f 68 73 33
f 45 41 82
f 80 49 34
f 52 45 92
f 45 82 92
f 76 52 93
f 52 92 93
f 75 77 94
f 75 94 83
f 85 37 17
f 78 94 77
f 78 79 94
f 68 67 95
f 68 96 73
f 68 95 96
f 49 97 89
f 80 98 49
f 49 98 97
f 72 38 87
f 76 99 79
f 76 93 100
f 76 100 99
f 37 101 60
f 85 102 37
f 37 102 101
f 90 103 67
f 90 104 103
f 91 105 90
f 90 105 104
f 47 53 106
f 47 107 55
f 47 106 108
f 47 108 107
f 103 95 67
f 109 91 89
f 109 89 97
f 72 110 71
f 72 87 111
f 72 111 110
f 112 59 60
f 112 60 101
f 58 106 53
f 99 94 79
f 113 54 55
f 113 55 107
f 114 84 83
f 114 83 94
f 112 70 59
f 58 57 115
f 58 115 116
f 58 116 106
f 117 64 84
f 114 118 84
f 117 84 118
f 99 119 94
f 114 94 119
f 120 100 93
f 120 93 92
f 121 69 70
f 121 70 122
f 112 122 70
f 117 65 64
f 74 115 57
f 121 81 69
f 82 71 110
f 123 99 100
f 120 124 100
f 123 100 124
f 82 125 92
f 120 92 125
f 103 126 95
f 103 104 127
f 103 127 126
f 74 73 128
f 74 128 129
f 74 129 115
f 88 54 113
f 91 130 105
f 109 130 91
f 131 80 81
f 131 81 132
f 121 132 81
f 133 56 65
f 117 134 65
f 133 65 134
f 135 105 130
f 136 104 105
f 135 136 105
f 96 128 73
f 82 137 125
f 82 110 137
f 131 98 80
f 96 95 138
f 96 139 128
f 96 138 139
f 140 119 99
f 140 99 123
f 141 97 98
f 131 142 98
f 141 98 142
f 114 119 140
f 114 140 118
f 126 138 95
f 88 143 87
f 88 113 144
f 88 144 143
f 120 145 124
f 120 125 145
f 141 109 97
f 133 62 56
f 109 146 130
f 147 130 146
f 147 135 130
f 136 148 104
f 148 127 104
f 149 61 62
f 133 150 62
f 149 62 150
f 126 127 151
f 126 152 138
f 126 151 152
f 140 117 118
f 153 123 124
f 153 124 145
f 109 154 146
f 141 155 109
f 109 155 154
f 137 145 125
f 111 87 143
f 149 86 61
f 156 85 86
f 156 86 157
f 149 157 86
f 135 158 136
f 136 159 148
f 136 158 159
f 156 102 85
f 111 160 110
f 111 161 160
f 111 143 161
f 148 162 127
f 151 127 162
f 163 101 102
f 163 102 164
f 156 164 102
f 165 131 132
f 166 132 121
f 165 132 167
f 166 167 132
f 163 112 101
f 137 110 160
f 137 168 145
f 137 160 168
f 140 123 153
f 140 169 117
f 140 153 169
f 165 142 131
f 166 121 122
f 112 170 122
f 112 171 170
f 163 171 112
f 129 128 172
f 139 172 128
f 166 122 170
f 173 147 146
f 173 146 154
f 129 174 115
f 129 172 175
f 129 175 174
f 135 176 158
f 147 176 135
f 139 138 177
f 139 177 178
f 139 178 172
f 179 141 142
f 165 180 142
f 179 142 180
f 148 181 162
f 148 159 181
f 116 115 174
f 177 138 152
f 179 155 141
f 117 169 182
f 117 182 134
f 116 183 106
f 116 174 184
f 116 184 183
f 151 185 152
f 177 152 185
f 108 106 183
f 186 154 155
f 179 187 155
f 186 155 187
f 168 153 145
f 108 188 107
f 108 183 189
f 108 189 188
f 190 158 176
f 191 159 158
f 190 191 158
f 151 162 192
f 181 192 162
f 147 193 176
f 173 193 147
f 151 194 185
f 151 192 195
f 151 195 194
f 186 173 154
f 113 107 188
f 196 176 193
f 196 190 176
f 191 197 159
f 181 159 197
f 113 198 144
f 113 188 199
f 113 199 198
f 168 160 200
f 168 201 153
f 168 200 201
f 201 169 153
f 201 182 169
f 202 180 165
f 203 179 180
f 203 180 204
f 202 204 180
f 202 165 167
f 177 204 178
f 202 172 178
f 202 178 204
f 177 185 205
f 177 205 203
f 177 203 204
f 203 187 179
f 175 172 202
f 166 206 167
f 202 167 206
f 194 205 185
f 207 186 187
f 203 205 187
f 207 187 205
f 208 143 144
f 208 144 198
f 181 209 192
f 209 195 192
f 161 200 160
f 210 133 134
f 210 134 182
f 211 166 170
f 166 212 206
f 211 212 166
f 175 212 174
f 175 202 206
f 175 206 212
f 173 213 193
f 186 214 173
f 173 214 215
f 173 215 213
f 211 170 171
f 161 143 208
f 161 216 200
f 161 208 216
f 217 193 213
f 217 196 193
f 194 207 205
f 194 218 207
f 194 195 218
f 219 191 190
f 191 220 197
f 219 221 191
f 191 221 220
f 181 197 222
f 181 223 209
f 181 222 223
f 224 171 163
f 211 171 225
f 224 225 171
f 207 214 186
f 224 163 164
f 184 174 212
f 226 190 196
f 226 219 190
f 222 197 220
f 227 164 156
f 224 164 228
f 227 228 164
f 207 218 214
f 184 225 183
f 184 212 211
f 184 211 225
f 209 229 195
f 229 218 195
f 230 214 218
f 230 215 214
f 209 231 229
f 209 223 231
f 232 213 215
f 232 217 213
f 210 150 133
f 189 183 225
f 227 156 157
f 201 210 182
f 201 200 210
f 233 196 217
f 233 226 196
f 229 230 218
f 223 222 234
f 222 220 234
f 189 225 224
f 189 228 188
f 189 224 228
f 235 149 150
f 210 236 150
f 235 150 236
f 210 200 216
f 235 157 149
f 227 157 237
f 235 237 157
f 230 232 215
f 229 238 230
f 229 231 238
f 208 236 216
f 210 216 236
f 199 188 228
f 199 237 198
f 199 228 227
f 199 227 237
f 208 198 237
f 239 217 232
f 239 233 217
f 208 237 235
f 208 235 236
f 230 238 232
f 231 223 240
f 223 234 240
f 241 232 238
f 241 239 232
f 219 242 221
f 220 221 242
f 238 231 243
f 231 240 243
f 244 219 226
f 219 245 242
f 244 245 219
f 238 243 241
f 234 220 246
f 220 242 246
f 247 226 233
f 247 244 226
f 240 234 248
f 234 246 248
f 249 233 239
f 249 247 233
f 243 240 250
f 240 248 250
f 251 239 241
f 251 249 239
f 242 245 252
f 253 246 242
f 253 242 254
f 242 252 254
f 255 241 243
f 243 250 255
f 255 251 241
f 256 245 244
f 256 252 245
f 257 248 246
f 257 246 253
f 258 250 248
f 258 248 257
f 259 244 247
f 259 256 244
f 258 255 250
f 260 247 249
f 260 259 247
f 253 254 261
f 261 254 252
f 262 249 251
f 262 260 249
f 263 251 255
f 258 263 255
f 257 253 264
f 253 261 264
f 265 252 256
f 261 252 265
f 263 262 251
f 266 258 257
f 257 264 266
f 267 256 259
f 265 256 268
f 267 268 256
f 269 263 258
f 266 269 258
f 270 259 260
f 270 267 259
f 264 261 271
f 261 265 272
f 261 272 271
f 273 260 262
f 273 270 260
f 274 262 263
f 269 274 263
f 275 266 264
f 264 271 275
f 265 268 276
f 265 276 272
f 274 273 262
f 277 269 266
f 275 277 266
f 268 267 278
f 268 278 276
f 279 274 269
f 277 279 269
f 270 278 267
f 280 281 282
f 283 281 280
f 284 280 285
f 286 280 284
f 280 282 285
f 283 280 287
f 286 287 280
f 288 281 289
f 290 289 281
f 288 282 281
f 290 281 283
f 288 289 291
f 291 289 290
f 284 285 292
f 284 292 293
f 286 284 294
f 284 293 294
f 295 285 282
f 285 296 292
f 295 297 285
f 285 297 296
f 295 282 288
f 288 291 298
f 299 288 298
f 295 288 299
f 293 292 296
f 300 270 273
f 270 301 278
f 300 301 270
f 302 273 274
f 279 302 274
f 303 275 271
f 271 272 304
f 271 304 303
f 305 283 287
f 306 290 283
f 306 283 305
f 307 287 286
f 305 287 307
f 298 291 308
f 291 290 309
f 291 310 308
f 291 309 310
f 298 308 311
f 312 298 311
f 299 298 312
f 306 309 290
f 286 294 313
f 313 314 286
f 307 286 314
f 294 293 315
f 316 313 294
f 294 315 316
f 302 300 273
f 317 277 275
f 303 317 275
f 311 318 319
f 320 311 319
f 311 308 318
f 312 311 320
f 319 321 322
f 323 319 322
f 319 318 321
f 320 319 323
f 322 321 324
f 323 322 325
f 326 325 322
f 322 324 326
f 308 327 318
f 308 310 327
f 293 296 328
f 293 329 315
f 293 328 329
f 272 276 330
f 272 330 304
f 310 309 331
f 306 331 309
f 332 295 299
f 333 297 295
f 333 295 332
f 334 299 312
f 332 299 334
f 333 296 297
f 318 327 335
f 318 335 321
f 316 336 313
f 313 337 314
f 336 337 313
f 316 315 338
f 316 338 339
f 316 339 340
f 316 340 336
f 328 296 341
f 333 341 296
f 310 342 327
f 310 331 343
f 310 343 342
f 327 342 344
f 327 344 335
f 345 312 320
f 334 312 345
f 346 305 307
f 347 306 305
f 347 305 346
f 321 348 324
f 321 335 348
f 314 349 307
f 346 307 349
f 325 350 323
f 326 351 325
f 351 352 325
f 325 352 350
f 353 320 323
f 353 323 350
f 347 331 306
f 354 338 315
f 354 315 329
f 324 355 326
f 326 356 351
f 326 355 356
f 357 358 359
f 360 357 359
f 361 359 362
f 363 362 359
f 360 359 361
f 363 359 358
f 345 320 353
f 337 364 314
f 314 364 349
f 357 365 358
f 366 365 357
f 360 367 357
f 366 357 367
f 328 341 368
f 328 369 329
f 328 368 369
f 370 279 277
f 317 370 277
f 361 340 339
f 360 361 339
f 360 339 338
f 336 371 337
f 336 340 372
f 336 372 371
f 373 343 331
f 347 374 331
f 373 331 374
f 324 348 375
f 324 376 355
f 324 375 376
f 361 362 377
f 363 378 362
f 377 362 378
f 361 377 340
f 371 379 337
f 337 379 364
f 342 343 373
f 354 360 338
f 380 332 334
f 381 333 332
f 381 332 380
f 276 278 382
f 276 382 330
f 383 334 345
f 380 334 383
f 342 384 344
f 342 373 385
f 342 385 384
f 363 358 386
f 365 386 358
f 363 387 378
f 363 386 387
f 335 388 348
f 335 344 388
f 389 341 333
f 389 333 381
f 377 372 340
f 351 390 352
f 351 391 390
f 351 356 391
f 366 392 365
f 365 392 386
f 360 393 367
f 354 393 360
f 377 378 394
f 377 394 372
f 366 367 395
f 366 396 392
f 366 395 396
f 393 395 367
f 389 368 341
f 397 345 353
f 383 345 397
f 398 354 329
f 398 329 369
f 399 347 346
f 349 400 346
f 399 346 400
f 401 378 387
f 394 378 402
f 401 402 378
f 403 374 347
f 403 347 399
f 350 404 353
f 352 405 350
f 350 405 404
f 348 388 406
f 348 406 375
f 364 407 349
f 349 407 400
f 344 408 388
f 344 384 408
f 397 353 404
f 352 390 409
f 352 410 405
f 352 409 410
f 401 387 386
f 371 411 379
f 371 372 412
f 371 412 411
f 379 413 364
f 364 413 407
f 389 414 368
f 369 368 414
f 415 302 279
f 370 415 279
f 392 416 386
f 417 392 396
f 392 418 416
f 417 418 392
f 401 386 416
f 403 373 374
f 398 393 354
f 417 396 395
f 393 419 395
f 398 419 393
f 420 380 383
f 421 381 380
f 421 380 420
f 394 412 372
f 394 402 422
f 394 422 412
f 379 423 413
f 411 423 379
f 424 383 397
f 420 383 424
f 425 385 373
f 403 426 373
f 425 373 426
f 427 389 381
f 427 381 421
f 384 385 425
f 278 301 428
f 278 428 382
f 429 355 376
f 430 356 355
f 429 430 355
f 401 431 402
f 401 416 431
f 422 402 431
f 391 409 390
f 407 420 400
f 400 420 424
f 400 424 399
f 397 404 432
f 424 397 433
f 397 432 433
f 434 414 389
f 434 389 427
f 435 416 418
f 435 431 416
f 417 395 436
f 419 436 395
f 410 437 405
f 405 432 404
f 405 437 432
f 388 408 438
f 388 438 406
f 417 435 418
f 384 425 439
f 384 439 440
f 384 440 408
f 407 421 420
f 433 399 424
f 433 403 399
f 410 441 437
f 410 442 441
f 410 409 442
f 417 436 435
f 369 414 443
f 444 398 369
f 444 369 443
f 413 421 407
f 445 376 375
f 445 429 376
f 413 427 421
f 423 427 413
f 434 443 414
f 446 391 356
f 430 446 356
f 433 426 403
f 411 447 423
f 411 412 448
f 411 448 447
f 422 431 449
f 450 431 435
f 450 449 431
f 444 419 398
f 419 451 436
f 444 451 419
f 422 448 412
f 422 449 448
f 433 432 426
f 437 425 426
f 441 425 437
f 437 426 432
f 452 300 302
f 415 452 302
f 423 434 427
f 447 434 423
f 441 439 425
f 453 301 300
f 453 428 301
f 440 439 441
f 440 441 442
f 451 435 436
f 451 450 435
f 454 442 409
f 391 455 409
f 454 409 455
f 434 456 443
f 447 456 434
f 457 317 303
f 458 303 304
f 458 457 303
f 375 406 459
f 375 459 445
f 408 440 460
f 408 460 438
f 452 453 300
f 461 444 443
f 461 443 456
f 462 370 317
f 457 462 317
f 447 448 461
f 447 461 456
f 461 451 444
f 461 450 451
f 461 448 449
f 461 449 450
f 440 442 454
f 463 455 391
f 446 464 391
f 463 391 464
f 458 304 330
f 440 454 460
f 406 438 465
f 406 465 459
f 430 466 446
f 467 430 429
f 430 468 466
f 467 468 430
f 469 415 370
f 462 469 370
f 454 455 463
f 438 460 470
f 438 470 465
f 464 446 466
f 471 330 382
f 458 330 471
f 472 429 445
f 472 467 429
f 460 454 473
f 454 463 473
f 460 473 470
f 463 464 474
f 464 466 474
f 475 445 459
f 475 472 445
f 476 452 415
f 469 476 415
f 466 468 477
f 467 477 468
f 478 382 428
f 471 382 478
f 459 465 479
f 459 479 475
f 473 463 480
f 463 474 480
f 474 466 481
f 466 477 481
f 482 462 457
f 483 457 458
f 483 482 457
f 465 470 484
f 465 484 479
f 470 473 485
f 473 480 485
f 486 453 452
f 476 486 452
f 472 487 467
f 467 487 477
f 488 428 453
f 478 428 488
f 470 485 484
f 489 469 462
f 482 489 462
f 490 458 471
f 490 483 458
f 488 453 491
f 486 491 453
f 480 474 492
f 474 481 492
f 493 472 475
f 472 494 487
f 493 494 472
f 481 477 495
f 477 487 496
f 477 496 495
f 485 480 497
f 480 492 497
f 498 476 469
f 489 498 469
f 492 481 499
f 481 495 499
f 500 475 479
f 500 493 475
f 471 478 501
f 471 501 490
f 494 496 487
f 502 482 483
f 503 489 482
f 502 503 482
f 484 485 504
f 485 497 504
f 479 484 505
f 479 505 500
f 484 504 505
f 498 506 476
f 506 486 476
f 507 502 483
f 507 483 490
f 503 508 489
f 508 498 489
f 493 509 494
f 494 509 496
f 492 499 510
f 497 492 510
f 499 495 503
f 495 508 503
f 495 496 508
f 478 488 511
f 478 511 501
f 499 503 502
f 510 499 502
f 500 512 493
f 493 512 509
f 510 502 507
f 496 513 508
f 496 509 513
f 497 510 514
f 504 497 514
f 508 513 498
f 498 515 506
f 498 513 515
f 511 488 491
f 491 486 516
f 506 516 486
f 517 507 490
f 517 490 501
f 491 516 518
f 511 491 518
f 514 510 507
f 505 519 500
f 500 519 512
f 512 513 509
f 505 504 520
f 504 514 520
f 516 506 515
f 512 515 513
f 514 507 517
f 505 520 521
f 505 521 519
f 501 522 517
f 501 511 522
f 523 515 512
f 523 512 519
f 520 514 517
f 516 515 523
f 518 516 523
f 520 517 522
f 511 518 524
f 511 524 522
f 522 521 520
f 524 519 521
f 524 523 519
f 518 523 524
f 522 524 521
