# 
# Wavefront OBJ file
# Created with Kaydara FBX
# 
mtllib c:\users\tjvan\onedrive\documenten\fontys\minor\nx\.mtlmodels\popliteus_muscle.r.obj

g Popliteus_muscle_r
v -0.116233 0.461606 -0.030057
v -0.116313 0.459769 -0.034025
v -0.116208 0.458942 -0.033279
v -0.115672 0.460242 -0.034388
v -0.115601 0.455301 -0.036774
v -0.114919 0.456480 -0.038002
v -0.115515 0.455970 -0.037546
v -0.116167 0.460776 -0.029863
v -0.115991 0.461472 -0.028347
v -0.115689 0.462079 -0.030173
v -0.116099 0.459646 -0.030237
v -0.116114 0.457992 -0.032501
v -0.116004 0.460640 -0.028444
v -0.116053 0.457269 -0.031878
v -0.115685 0.454584 -0.036027
v -0.115993 0.459439 -0.029232
v -0.115972 0.456503 -0.031294
v -0.115777 0.453891 -0.035303
v -0.115880 0.460178 -0.027656
v -0.115900 0.458792 -0.028739
v -0.115799 0.461054 -0.027276
v -0.115270 0.461550 -0.027212
v -0.115427 0.461895 -0.028277
v -0.115802 0.458090 -0.028231
v -0.115846 0.453206 -0.034571
v -0.115872 0.455752 -0.030667
v -0.115848 0.452528 -0.033836
v -0.115734 0.454973 -0.029923
v -0.115767 0.459711 -0.026979
v -0.115583 0.460683 -0.026526
v -0.115395 0.448823 -0.037018
v -0.115754 0.451839 -0.033068
v -0.115308 0.449467 -0.037787
v -0.115666 0.459336 -0.026393
v -0.115699 0.457547 -0.027623
v -0.115063 0.461213 -0.026423
v -0.115182 0.450114 -0.038551
v -0.115291 0.460363 -0.025961
v -0.115568 0.451190 -0.032342
v -0.115404 0.448185 -0.036231
v -0.115484 0.457077 -0.026862
v -0.115539 0.454302 -0.029240
v -0.115255 0.459024 -0.025905
v -0.115030 0.450758 -0.039307
v -0.115007 0.459803 -0.033933
v -0.115139 0.461466 -0.030127
v -0.114550 0.452000 -0.040741
v -0.114827 0.451396 -0.040050
v -0.114770 0.454033 -0.028958
v -0.115272 0.447570 -0.035439
v -0.114505 0.447349 -0.035041
v -0.114812 0.450947 -0.032032
v -0.114717 0.456916 -0.026678
v -0.114024 0.452471 -0.041200
v -0.115002 0.461331 -0.028486
v -0.114938 0.444320 -0.039239
v -0.114832 0.445548 -0.040883
v -0.114913 0.444931 -0.040068
v -0.114704 0.446172 -0.041686
v -0.115024 0.460068 -0.025559
v -0.114847 0.460915 -0.025772
v -0.114749 0.460754 -0.025331
v -0.114766 0.443734 -0.038407
v -0.114666 0.460682 -0.026669
v -0.114832 0.461004 -0.027468
v -0.114736 0.459665 -0.025436
v -0.114722 0.458858 -0.025902
v -0.114849 0.460707 -0.029939
v -0.114737 0.460606 -0.028573
v -0.114530 0.446803 -0.042481
v -0.114377 0.460060 -0.025318
v -0.114217 0.456225 -0.037505
v -0.114685 0.459093 -0.033301
v -0.113999 0.455601 -0.036739
v -0.114583 0.460266 -0.027792
v -0.114222 0.440864 -0.043012
v -0.114016 0.439747 -0.041288
v -0.114268 0.440258 -0.042137
v -0.114101 0.441484 -0.043866
v -0.113371 0.452258 -0.040773
v -0.114591 0.459668 -0.030279
v -0.114508 0.460369 -0.026019
v -0.113963 0.448102 -0.044037
v -0.114300 0.447440 -0.043263
v -0.114182 0.451442 -0.032494
v -0.113985 0.443542 -0.037959
v -0.114183 0.454519 -0.029438
v -0.114494 0.459522 -0.029352
v -0.114316 0.459048 -0.026124
v -0.114214 0.457255 -0.027247
v -0.113626 0.442764 -0.045493
v -0.113893 0.442119 -0.044692
v -0.114415 0.458092 -0.032524
v -0.114430 0.459865 -0.027184
v -0.114309 0.459455 -0.026635
v -0.114278 0.457422 -0.031980
v -0.114339 0.458890 -0.028948
v -0.114210 0.458256 -0.028493
v -0.113277 0.448623 -0.044508
v -0.113286 0.443415 -0.046261
v -0.113914 0.447871 -0.035586
v -0.113401 0.444062 -0.038498
v -0.114156 0.456715 -0.031398
v -0.114135 0.457713 -0.027909
v -0.113786 0.454186 -0.035268
v -0.113862 0.454880 -0.035975
v -0.114055 0.455950 -0.030750
v -0.112859 0.444038 -0.046987
v -0.113002 0.436707 -0.045812
v -0.113144 0.436094 -0.044906
v -0.114011 0.455231 -0.030118
v -0.113851 0.452122 -0.033160
v -0.113474 0.448475 -0.036235
v -0.113746 0.453505 -0.034561
v -0.112317 0.438016 -0.047472
v -0.112703 0.437351 -0.046663
v -0.113745 0.452813 -0.033854
v -0.113187 0.439644 -0.040789
v -0.111863 0.435765 -0.043495
v -0.112775 0.435663 -0.043976
v -0.112955 0.451091 -0.039246
v -0.113064 0.451701 -0.040005
v -0.111865 0.438688 -0.048236
v -0.113042 0.449775 -0.037693
v -0.112949 0.450438 -0.038463
v -0.113210 0.449127 -0.036958
v -0.111373 0.439364 -0.048970
v -0.112921 0.444656 -0.039154
v -0.112638 0.445284 -0.039901
v -0.112365 0.440142 -0.041126
v -0.112524 0.448385 -0.043955
v -0.112319 0.447792 -0.043096
v -0.112141 0.444553 -0.047394
v -0.111583 0.444379 -0.046789
v -0.110991 0.436365 -0.043745
v -0.111345 0.431942 -0.047415
v -0.112278 0.447183 -0.042274
v -0.112450 0.445919 -0.040674
v -0.110652 0.433288 -0.049189
v -0.111095 0.432599 -0.048389
v -0.112332 0.446556 -0.041464
v -0.111840 0.440807 -0.041808
v -0.110013 0.440720 -0.049873
v -0.110837 0.440034 -0.049615
v -0.109894 0.431881 -0.045846
v -0.110886 0.431643 -0.046417
v -0.110103 0.434025 -0.049929
v -0.111528 0.442076 -0.043418
v -0.111701 0.441432 -0.042610
v -0.111456 0.443855 -0.045916
v -0.110315 0.437025 -0.044219
v -0.111413 0.442701 -0.044233
v -0.109498 0.434775 -0.050622
v -0.111397 0.443289 -0.045062
v -0.109276 0.440848 -0.049238
v -0.109933 0.437672 -0.044876
v -0.109298 0.439098 -0.046501
v -0.109548 0.438412 -0.045672
v -0.109123 0.439759 -0.047356
v -0.109111 0.440356 -0.048277
v -0.108105 0.436325 -0.051823
v -0.108852 0.435532 -0.051283
v -0.108988 0.428610 -0.050723
v -0.108699 0.427676 -0.048623
v -0.109377 0.427892 -0.049685
v -0.108265 0.429398 -0.051519
v -0.108924 0.432524 -0.045958
v -0.107174 0.437054 -0.051856
v -0.107541 0.430193 -0.052132
v -0.107344 0.434075 -0.046716
v -0.108030 0.433244 -0.046219
v -0.106463 0.428666 -0.047857
v -0.107587 0.428008 -0.047999
v -0.106929 0.434909 -0.047493
v -0.105967 0.431834 -0.053205
v -0.106766 0.431008 -0.052681
v -0.106650 0.424686 -0.052848
v -0.107205 0.423935 -0.051890
v -0.106181 0.436444 -0.049157
v -0.106507 0.435689 -0.048300
v -0.105954 0.437204 -0.050131
v -0.106271 0.437511 -0.051257
v -0.105779 0.425533 -0.053689
v -0.105075 0.432657 -0.053583
v -0.105196 0.424360 -0.050437
v -0.106434 0.423852 -0.050843
v -0.105458 0.429500 -0.048039
v -0.103963 0.427209 -0.054741
v -0.104855 0.426376 -0.054329
v -0.103957 0.431355 -0.049201
v -0.104607 0.430487 -0.048576
v -0.104261 0.420712 -0.054642
v -0.104909 0.419970 -0.053578
v -0.103136 0.434075 -0.052875
v -0.104096 0.433453 -0.053505
v -0.102974 0.428085 -0.055037
v -0.103429 0.432216 -0.049980
v -0.102767 0.425825 -0.049847
v -0.103942 0.425006 -0.050069
v -0.102888 0.420671 -0.052455
v -0.104250 0.419950 -0.052520
v -0.102635 0.434017 -0.051787
v -0.102927 0.433136 -0.050788
v -0.102377 0.422422 -0.056394
v -0.103438 0.421523 -0.055654
v -0.100959 0.429928 -0.055145
v -0.101988 0.429015 -0.055247
v -0.102913 0.415851 -0.054706
v -0.101192 0.423338 -0.056852
v -0.101750 0.426877 -0.050260
v -0.101191 0.417201 -0.057052
v -0.102136 0.416468 -0.055898
v -0.102248 0.416003 -0.053337
v -0.099903 0.430722 -0.054635
v -0.100179 0.428885 -0.051533
v -0.100908 0.427796 -0.050741
v -0.101425 0.421464 -0.052278
v -0.099942 0.418101 -0.057987
v -0.098826 0.425215 -0.056851
v -0.100040 0.424253 -0.056940
v -0.099598 0.429965 -0.052443
v -0.099872 0.412087 -0.053501
v -0.099808 0.411872 -0.056257
v -0.100586 0.411477 -0.054896
v -0.100749 0.416817 -0.053018
v -0.099189 0.417757 -0.053260
v -0.098538 0.423192 -0.051976
v -0.099969 0.422189 -0.051875
v -0.099280 0.430827 -0.053521
v -0.098625 0.412539 -0.057384
v -0.097676 0.426209 -0.056596
v -0.096940 0.420192 -0.058267
v -0.098449 0.419154 -0.058506
v -0.097458 0.424463 -0.052176
v -0.098722 0.413119 -0.052593
v -0.097595 0.407161 -0.054001
v -0.096943 0.407280 -0.055477
v -0.096112 0.426841 -0.053955
v -0.096731 0.425742 -0.053006
v -0.095564 0.421310 -0.057851
v -0.097261 0.418611 -0.053385
v -0.097050 0.413491 -0.058373
v -0.095254 0.414724 -0.058814
v -0.095829 0.427641 -0.055182
v -0.096609 0.427177 -0.056172
v -0.096147 0.409001 -0.051526
v -0.097116 0.407919 -0.052548
v -0.097268 0.414329 -0.052284
v -0.095737 0.415376 -0.052618
v -0.093938 0.408973 -0.057699
v -0.095675 0.407945 -0.056641
v -0.093792 0.421446 -0.053196
v -0.095261 0.419844 -0.053268
v -0.093541 0.416131 -0.058578
v -0.093133 0.423695 -0.057488
v -0.094256 0.422520 -0.057694
v -0.094578 0.402873 -0.052784
v -0.094708 0.410290 -0.050823
v -0.093040 0.411724 -0.050585
v -0.095474 0.417738 -0.053238
v -0.094139 0.403747 -0.051187
v -0.091816 0.410596 -0.058120
v -0.092651 0.403475 -0.055702
v -0.094037 0.402788 -0.054480
v -0.092905 0.422798 -0.054018
v -0.092197 0.424581 -0.056667
v -0.091914 0.406617 -0.048892
v -0.093187 0.405016 -0.050018
v -0.092375 0.423880 -0.055229
v -0.094310 0.416151 -0.052957
v -0.091048 0.412970 -0.051252
v -0.090842 0.404602 -0.056866
v -0.090679 0.419021 -0.058270
v -0.092028 0.417583 -0.058161
v -0.094683 0.418085 -0.053267
v -0.091885 0.417837 -0.053184
v -0.093005 0.416945 -0.053186
v -0.091036 0.399787 -0.049468
v -0.091136 0.398458 -0.053405
v -0.091654 0.398637 -0.051378
v -0.089527 0.420415 -0.058367
v -0.089734 0.399126 -0.054958
v -0.089436 0.420279 -0.054693
v -0.090479 0.419174 -0.053679
v -0.088106 0.414107 -0.058007
v -0.089841 0.412370 -0.058003
v -0.090155 0.401446 -0.047763
v -0.090104 0.408195 -0.048685
v -0.089438 0.414029 -0.051951
v -0.088823 0.421051 -0.056092
v -0.088613 0.421453 -0.057611
v -0.086719 0.415625 -0.058450
v -0.088692 0.403277 -0.046807
v -0.087131 0.404930 -0.046297
v -0.086652 0.416334 -0.053815
v -0.088074 0.415073 -0.052756
v -0.088316 0.406593 -0.057542
v -0.085760 0.408802 -0.057664
v -0.088235 0.394309 -0.052409
v -0.088614 0.394791 -0.049924
v -0.088106 0.409396 -0.049404
v -0.085877 0.410667 -0.050221
v -0.086833 0.397931 -0.045163
v -0.088179 0.396062 -0.047305
v -0.087750 0.400313 -0.056406
v -0.084914 0.402504 -0.057367
v -0.083829 0.410752 -0.057891
v -0.086792 0.394906 -0.054280
v -0.084636 0.396138 -0.056024
v -0.084697 0.418228 -0.057986
v -0.085576 0.417051 -0.058600
v -0.084869 0.418118 -0.056384
v -0.085553 0.417394 -0.054993
v -0.085687 0.399628 -0.043301
v -0.085690 0.391025 -0.048454
v -0.081739 0.405100 -0.057686
v -0.083900 0.390752 -0.053338
v -0.085410 0.390318 -0.051173
v -0.085225 0.392387 -0.045504
v -0.085401 0.406237 -0.046568
v -0.084131 0.411597 -0.051873
v -0.081487 0.398262 -0.057134
v -0.084134 0.401271 -0.042050
v -0.082168 0.402676 -0.042774
v -0.082518 0.395217 -0.041271
v -0.083958 0.393995 -0.043019
v -0.081560 0.391931 -0.055034
v -0.081121 0.413865 -0.058389
v -0.082358 0.412386 -0.058363
v -0.081251 0.414158 -0.054519
v -0.082565 0.412924 -0.053302
v -0.083129 0.407394 -0.047579
v -0.080669 0.407962 -0.049835
v -0.082392 0.386462 -0.049745
v -0.082108 0.388464 -0.044075
v -0.082701 0.387201 -0.046890
v -0.080220 0.415077 -0.057524
v -0.080960 0.386740 -0.051996
v -0.080442 0.414965 -0.055914
v -0.080544 0.396407 -0.041125
v -0.081108 0.389641 -0.041618
v -0.077816 0.408962 -0.058135
v -0.079512 0.407220 -0.057889
v -0.080070 0.404112 -0.044322
v -0.079104 0.382778 -0.048220
v -0.079500 0.383365 -0.045585
v -0.077041 0.410587 -0.053592
v -0.078686 0.409114 -0.052120
v -0.079416 0.390873 -0.040179
v -0.077084 0.392195 -0.040680
v -0.076518 0.410397 -0.057877
v -0.078072 0.398100 -0.041820
v -0.075942 0.400087 -0.043237
v -0.078044 0.385637 -0.040784
v -0.079020 0.384488 -0.042951
v -0.077891 0.401061 -0.057360
v -0.075331 0.403329 -0.057580
v -0.078179 0.393956 -0.056110
v -0.078614 0.388048 -0.053119
v -0.075313 0.389798 -0.054068
v -0.074301 0.396697 -0.056308
v -0.078028 0.382839 -0.050281
v -0.075956 0.384073 -0.051115
v -0.077945 0.404564 -0.047387
v -0.075445 0.405528 -0.050607
v -0.075948 0.411528 -0.055067
v -0.075627 0.411560 -0.056844
v -0.073452 0.405146 -0.057587
v -0.076224 0.379657 -0.044372
v -0.076289 0.387035 -0.039890
v -0.075038 0.379038 -0.048529
v -0.075785 0.379138 -0.046661
v -0.075907 0.380744 -0.041992
v -0.073036 0.385928 -0.051426
v -0.071135 0.392146 -0.054167
v -0.074012 0.394453 -0.041585
v -0.073170 0.383818 -0.038981
v -0.074988 0.382116 -0.039961
v -0.073300 0.380122 -0.049229
v -0.074497 0.401335 -0.046187
v -0.071485 0.398976 -0.056370
v -0.073739 0.388841 -0.040426
v -0.070357 0.391702 -0.041223
v -0.071789 0.408028 -0.053867
v -0.073297 0.407023 -0.052388
v -0.071334 0.407842 -0.055827
v -0.072110 0.406629 -0.057140
v -0.073102 0.377298 -0.040499
v -0.072523 0.375624 -0.044764
v -0.073212 0.376129 -0.042679
v -0.070094 0.398963 -0.045434
v -0.071539 0.397233 -0.043255
v -0.071939 0.375200 -0.046605
v -0.072247 0.402405 -0.049329
v -0.069762 0.403699 -0.050946
v -0.072323 0.378734 -0.038561
v -0.070400 0.385995 -0.039257
v -0.068046 0.402414 -0.055592
v -0.069411 0.400868 -0.056248
v -0.070972 0.381811 -0.049186
v -0.070446 0.376060 -0.047333
v -0.068713 0.377502 -0.046841
v -0.070469 0.372984 -0.040501
v -0.069655 0.372326 -0.042310
v -0.070479 0.380532 -0.037800
v -0.067690 0.382987 -0.037866
v -0.069960 0.375467 -0.036964
v -0.070690 0.374091 -0.038541
v -0.068930 0.387746 -0.051352
v -0.067882 0.383688 -0.048710
v -0.068060 0.399514 -0.047550
v -0.067333 0.403751 -0.054359
v -0.067432 0.372096 -0.044829
v -0.068887 0.371579 -0.043987
v -0.067904 0.404338 -0.052464
v -0.067136 0.394254 -0.042584
v -0.067906 0.394293 -0.054116
v -0.065683 0.396184 -0.053914
v -0.064840 0.389666 -0.050655
v -0.066505 0.379217 -0.046226
v -0.068350 0.370088 -0.037994
v -0.068603 0.370915 -0.036424
v -0.068252 0.377048 -0.036407
v -0.066075 0.373380 -0.044425
v -0.066799 0.388591 -0.039797
v -0.063680 0.390413 -0.040070
v -0.063328 0.396317 -0.044331
v -0.064986 0.395469 -0.043650
v -0.067691 0.371928 -0.035406
v -0.066319 0.372951 -0.034916
v -0.065935 0.400114 -0.049046
v -0.064348 0.400078 -0.050537
v -0.066852 0.368642 -0.040586
v -0.067586 0.369416 -0.039393
v -0.064220 0.397789 -0.053368
v -0.063506 0.385166 -0.047247
v -0.065400 0.368734 -0.041175
v -0.066515 0.367545 -0.034601
v -0.066399 0.366321 -0.036459
v -0.066806 0.366943 -0.035492
v -0.066037 0.378650 -0.035939
v -0.062378 0.391508 -0.050280
v -0.065856 0.367983 -0.033942
v -0.064381 0.384648 -0.037604
v -0.063982 0.379273 -0.035404
v -0.065649 0.365917 -0.037185
v -0.063621 0.399218 -0.052215
v -0.065538 0.363591 -0.033353
v -0.064673 0.363879 -0.032513
v -0.065157 0.363789 -0.032858
v -0.064652 0.374862 -0.043363
v -0.063200 0.376358 -0.042017
v -0.063701 0.381013 -0.044777
v -0.065290 0.363376 -0.034003
v -0.065020 0.373577 -0.034420
v -0.064954 0.368324 -0.033481
v -0.064101 0.368468 -0.033086
v -0.064303 0.369648 -0.040904
v -0.063330 0.370744 -0.040171
v -0.061636 0.396856 -0.045481
v -0.064505 0.365927 -0.037475
v -0.064689 0.363274 -0.034434
v -0.064104 0.363334 -0.034511
v -0.064775 0.361535 -0.032905
v -0.064225 0.361176 -0.032034
v -0.064504 0.361124 -0.032270
v -0.063567 0.366525 -0.037159
v -0.063766 0.373908 -0.033938
v -0.061296 0.391579 -0.039958
v -0.064195 0.363735 -0.032175
v -0.064219 0.361134 -0.032785
v -0.064135 0.360625 -0.032122
v -0.063964 0.361180 -0.031840
v -0.063727 0.361152 -0.031675
v -0.061719 0.385289 -0.037003
v -0.060096 0.394824 -0.048527
v -0.060572 0.396161 -0.046960
v -0.063931 0.361325 -0.032791
v -0.063978 0.360580 -0.031878
v -0.060760 0.393228 -0.049626
v -0.063010 0.362948 -0.031491
v -0.063910 0.360419 -0.031867
v -0.063903 0.360641 -0.032126
v -0.063648 0.361544 -0.032715
v -0.063556 0.363563 -0.034254
v -0.063309 0.368759 -0.032770
v -0.062878 0.364187 -0.031329
v -0.063798 0.360540 -0.031720
v -0.062297 0.374035 -0.033291
v -0.061931 0.379514 -0.034684
v -0.063643 0.360576 -0.031646
v -0.063712 0.360689 -0.032069
v -0.063746 0.360349 -0.031769
v -0.063636 0.360427 -0.031657
v -0.063400 0.361372 -0.031657
v -0.063545 0.360771 -0.031976
v -0.060257 0.382054 -0.042850
v -0.059596 0.385820 -0.036521
v -0.063432 0.360844 -0.031794
v -0.063150 0.363821 -0.033891
v -0.063367 0.361820 -0.032590
v -0.062980 0.367116 -0.036661
v -0.063119 0.362171 -0.032391
v -0.060435 0.386943 -0.045642
v -0.062354 0.371753 -0.038986
v -0.062406 0.367524 -0.035963
v -0.057657 0.393186 -0.040540
v -0.059566 0.392707 -0.039855
v -0.062667 0.364636 -0.031130
v -0.062420 0.368942 -0.032379
v -0.061590 0.372445 -0.037831
v -0.061383 0.377482 -0.040381
v -0.062809 0.364052 -0.033533
v -0.062391 0.364350 -0.033000
v -0.062863 0.362329 -0.030742
v -0.062723 0.362261 -0.031066
v -0.062317 0.362674 -0.031139
v -0.062519 0.363291 -0.031750
v -0.062125 0.364542 -0.032503
v -0.062741 0.362428 -0.030442
v -0.062757 0.361459 -0.030326
v -0.062660 0.361455 -0.030611
v -0.061873 0.367869 -0.035169
v -0.062694 0.361586 -0.030143
v -0.062701 0.361162 -0.030172
v -0.062455 0.361790 -0.029969
v -0.062506 0.362621 -0.030157
v -0.062632 0.361201 -0.030008
v -0.062487 0.361405 -0.030382
v -0.062441 0.361536 -0.030205
v -0.062370 0.364926 -0.030658
v -0.061602 0.369050 -0.031702
v -0.061876 0.364737 -0.031892
v -0.062285 0.363238 -0.030214
v -0.061939 0.365171 -0.030294
v -0.062283 0.362505 -0.030598
v -0.062266 0.362624 -0.030249
v -0.058428 0.388758 -0.044596
v -0.061754 0.364886 -0.031331
v -0.060309 0.379687 -0.033991
v -0.061024 0.374037 -0.032632
v -0.061694 0.365066 -0.030737
v -0.061026 0.368575 -0.033452
v -0.061411 0.368207 -0.034358
v -0.061204 0.369237 -0.030588
v -0.060747 0.368884 -0.032437
v -0.060745 0.373059 -0.036484
v -0.060519 0.369005 -0.031249
v -0.060164 0.374158 -0.031774
v -0.059627 0.377911 -0.038636
v -0.059440 0.373920 -0.032220
v -0.060086 0.373329 -0.035125
v -0.058853 0.379829 -0.033350
v -0.059436 0.373566 -0.033654
v -0.058939 0.378454 -0.036771
v -0.057256 0.391913 -0.041926
v -0.058166 0.383187 -0.040809
v -0.057473 0.390472 -0.043261
v -0.057839 0.386262 -0.036075
v -0.058025 0.378992 -0.035310
v -0.057753 0.379512 -0.033840
v -0.056825 0.384378 -0.039231
v -0.056384 0.385343 -0.037783
v -0.056330 0.386212 -0.036279
usemtl Popliteus_muscle_rMaterial0
f 1 2 3
f 1 4 2
f 2 5 3
f 2 4 6
f 2 7 5
f 2 6 7
f 1 3 8
f 9 1 8
f 9 10 1
f 1 10 4
f 11 8 3
f 11 3 12
f 5 12 3
f 11 13 8
f 9 8 13
f 11 12 14
f 15 14 12
f 5 15 12
f 11 14 16
f 11 16 13
f 17 16 14
f 18 17 14
f 15 18 14
f 19 13 16
f 19 9 13
f 17 20 16
f 19 16 20
f 19 21 9
f 9 21 22
f 9 23 10
f 9 22 23
f 24 20 17
f 25 26 17
f 24 17 26
f 18 25 17
f 24 19 20
f 25 27 26
f 28 26 27
f 28 24 26
f 24 29 19
f 19 30 21
f 19 29 30
f 25 31 27
f 28 27 32
f 31 32 27
f 18 33 25
f 25 33 31
f 24 34 29
f 28 35 24
f 24 35 34
f 36 21 30
f 36 22 21
f 15 37 18
f 18 37 33
f 38 29 34
f 38 30 29
f 39 28 32
f 39 32 40
f 31 40 32
f 28 41 35
f 39 42 28
f 28 42 41
f 43 34 35
f 43 35 41
f 5 44 15
f 15 44 37
f 45 4 10
f 46 10 23
f 45 10 46
f 38 34 43
f 45 6 4
f 5 7 47
f 5 48 44
f 5 47 48
f 36 30 38
f 39 49 42
f 39 40 50
f 51 39 50
f 39 52 49
f 51 52 39
f 53 41 42
f 53 42 49
f 7 6 54
f 7 54 47
f 43 41 53
f 55 23 22
f 46 23 55
f 31 56 40
f 56 50 40
f 31 33 57
f 31 58 56
f 31 57 58
f 59 33 37
f 59 57 33
f 38 43 60
f 36 38 61
f 38 60 62
f 38 62 61
f 56 63 50
f 51 50 63
f 64 22 36
f 55 22 65
f 64 65 22
f 43 66 60
f 43 67 66
f 43 53 67
f 59 37 44
f 45 46 68
f 46 55 69
f 46 69 68
f 64 36 61
f 70 44 48
f 59 44 70
f 71 62 60
f 71 60 66
f 45 72 6
f 45 68 73
f 74 45 73
f 74 72 45
f 55 65 75
f 55 75 69
f 56 58 76
f 56 77 63
f 56 76 78
f 56 78 77
f 79 58 57
f 79 76 58
f 80 6 72
f 80 54 6
f 81 68 69
f 81 73 68
f 71 61 62
f 64 61 82
f 71 82 61
f 79 57 59
f 48 47 83
f 70 48 84
f 48 83 84
f 75 65 64
f 85 49 52
f 85 52 51
f 51 63 86
f 77 86 63
f 53 49 87
f 85 87 49
f 71 66 67
f 81 69 88
f 75 88 69
f 53 89 67
f 53 90 89
f 53 87 90
f 71 67 89
f 59 70 91
f 79 59 92
f 59 91 92
f 81 93 73
f 74 73 93
f 75 64 94
f 64 82 95
f 64 95 94
f 81 88 96
f 81 96 93
f 75 97 88
f 75 94 98
f 75 98 97
f 99 47 54
f 99 83 47
f 70 84 100
f 70 100 91
f 85 51 101
f 51 86 102
f 51 102 101
f 71 95 82
f 103 88 97
f 103 96 88
f 104 94 95
f 104 98 94
f 105 93 96
f 74 93 106
f 105 106 93
f 71 89 95
f 107 97 98
f 107 103 97
f 108 84 83
f 108 100 84
f 90 95 89
f 90 104 95
f 103 105 96
f 109 78 76
f 77 78 110
f 109 110 78
f 109 76 79
f 80 72 74
f 90 87 111
f 90 111 104
f 104 107 98
f 85 111 87
f 85 112 111
f 113 85 101
f 113 112 85
f 107 114 103
f 103 114 105
f 104 111 107
f 79 92 115
f 109 79 116
f 79 115 116
f 107 111 112
f 107 112 117
f 107 117 114
f 77 118 86
f 77 119 118
f 77 110 120
f 77 120 119
f 99 54 80
f 74 106 121
f 80 74 122
f 74 121 122
f 118 102 86
f 108 83 99
f 113 101 102
f 92 91 123
f 92 123 115
f 105 121 106
f 113 117 112
f 105 114 124
f 105 124 125
f 105 125 121
f 126 114 117
f 113 126 117
f 126 124 114
f 127 91 100
f 127 123 91
f 113 102 128
f 129 126 113
f 129 113 128
f 118 130 102
f 130 128 102
f 99 80 131
f 80 122 132
f 80 132 131
f 127 100 108
f 108 99 133
f 99 131 134
f 99 134 133
f 129 124 126
f 118 135 130
f 118 119 135
f 136 110 109
f 136 120 110
f 137 122 121
f 137 132 122
f 125 124 138
f 129 138 124
f 109 116 139
f 136 109 140
f 109 139 140
f 125 137 121
f 125 138 141
f 125 141 137
f 129 128 142
f 130 142 128
f 108 133 143
f 127 108 144
f 108 143 144
f 145 119 120
f 136 146 120
f 145 120 146
f 116 115 147
f 116 147 139
f 148 138 129
f 129 142 149
f 148 129 149
f 150 131 132
f 150 134 131
f 148 141 138
f 130 151 142
f 130 135 151
f 137 141 152
f 148 152 141
f 153 115 123
f 153 147 115
f 137 150 132
f 137 154 150
f 137 152 154
f 155 133 134
f 155 143 133
f 145 135 119
f 153 123 127
f 151 149 142
f 148 149 156
f 151 156 149
f 150 155 134
f 157 152 148
f 148 156 158
f 157 148 158
f 150 154 159
f 150 160 155
f 150 159 160
f 157 154 152
f 157 159 154
f 127 144 161
f 153 127 162
f 127 161 162
f 136 140 163
f 164 146 136
f 136 163 165
f 164 136 165
f 140 139 166
f 140 166 163
f 151 135 167
f 145 167 135
f 145 146 164
f 168 144 143
f 168 161 144
f 169 139 147
f 169 166 139
f 151 170 156
f 151 167 171
f 151 171 170
f 169 147 153
f 155 168 143
f 170 158 156
f 172 167 145
f 145 164 173
f 172 145 173
f 157 158 174
f 170 174 158
f 153 162 175
f 169 153 176
f 153 175 176
f 165 163 177
f 164 165 178
f 165 177 178
f 179 159 157
f 157 174 180
f 179 157 180
f 155 160 181
f 155 182 168
f 155 181 182
f 179 160 159
f 179 181 160
f 183 163 166
f 183 177 163
f 172 171 167
f 184 162 161
f 184 175 162
f 164 185 173
f 164 178 186
f 164 186 185
f 183 166 169
f 168 184 161
f 170 171 187
f 172 187 171
f 172 173 185
f 169 176 188
f 183 169 189
f 169 188 189
f 170 190 174
f 170 187 191
f 170 191 190
f 192 178 177
f 186 178 193
f 192 193 178
f 168 182 194
f 168 195 184
f 168 194 195
f 190 180 174
f 196 176 175
f 196 188 176
f 192 177 183
f 179 180 197
f 190 197 180
f 198 187 172
f 172 185 199
f 198 172 199
f 186 200 185
f 186 193 201
f 186 201 200
f 202 182 181
f 202 194 182
f 202 181 179
f 179 197 203
f 202 179 203
f 184 196 175
f 183 189 204
f 192 183 205
f 183 204 205
f 198 191 187
f 200 199 185
f 184 195 206
f 184 207 196
f 184 206 207
f 208 193 192
f 208 201 193
f 209 189 188
f 209 204 189
f 190 191 210
f 198 210 191
f 192 205 211
f 208 192 212
f 192 211 212
f 208 213 201
f 200 201 213
f 214 195 194
f 214 206 195
f 196 209 188
f 190 215 197
f 190 210 216
f 190 216 215
f 200 217 199
f 198 199 217
f 218 205 204
f 218 211 205
f 215 203 197
f 214 194 202
f 196 207 219
f 196 220 209
f 196 219 220
f 202 203 221
f 215 221 203
f 222 213 208
f 208 212 223
f 222 208 224
f 208 223 224
f 200 213 225
f 200 226 217
f 200 225 226
f 227 210 198
f 198 217 228
f 227 198 228
f 214 202 229
f 202 221 229
f 209 218 204
f 222 225 213
f 230 212 211
f 230 223 212
f 231 207 206
f 231 219 207
f 227 216 210
f 226 228 217
f 218 230 211
f 209 220 232
f 209 233 218
f 209 232 233
f 231 206 214
f 215 216 234
f 227 234 216
f 222 235 225
f 226 225 235
f 222 224 236
f 237 224 223
f 237 236 224
f 215 238 221
f 215 234 239
f 215 239 238
f 240 220 219
f 240 232 220
f 226 241 228
f 227 228 241
f 218 242 230
f 218 233 243
f 218 243 242
f 214 229 244
f 231 214 245
f 214 244 245
f 246 235 222
f 222 236 247
f 246 222 247
f 230 237 223
f 238 229 221
f 238 244 229
f 226 235 248
f 226 248 249
f 226 249 241
f 240 219 231
f 246 248 235
f 230 242 250
f 230 251 237
f 230 250 251
f 252 234 227
f 227 241 253
f 252 227 253
f 254 233 232
f 254 243 233
f 231 245 255
f 240 231 256
f 231 255 256
f 257 247 236
f 237 257 236
f 252 239 234
f 246 258 248
f 248 259 249
f 248 258 259
f 249 260 241
f 260 253 241
f 246 247 261
f 257 261 247
f 262 242 243
f 262 250 242
f 237 251 263
f 237 264 257
f 237 263 264
f 254 232 240
f 238 239 265
f 252 265 239
f 266 245 244
f 266 255 245
f 267 258 246
f 246 261 268
f 267 246 268
f 238 266 244
f 238 265 269
f 238 269 266
f 249 270 260
f 271 270 249
f 271 249 259
f 272 251 250
f 272 263 251
f 240 256 273
f 254 240 274
f 240 273 274
f 260 275 253
f 270 275 260
f 262 243 254
f 276 253 275
f 252 253 276
f 267 259 258
f 270 277 275
f 276 275 277
f 257 278 261
f 257 264 279
f 257 279 280
f 257 280 278
f 271 277 270
f 281 256 255
f 281 273 256
f 278 268 261
f 282 264 263
f 282 279 264
f 272 250 262
f 283 265 252
f 252 276 284
f 283 252 284
f 254 274 285
f 262 254 286
f 254 285 286
f 267 268 287
f 278 287 268
f 266 281 255
f 267 288 259
f 271 259 288
f 289 276 277
f 271 289 277
f 283 269 265
f 282 263 272
f 266 269 290
f 283 290 269
f 266 291 281
f 266 290 291
f 292 274 273
f 292 285 274
f 267 287 293
f 294 288 267
f 294 267 293
f 295 284 276
f 289 296 276
f 295 276 296
f 272 262 297
f 262 286 298
f 262 298 297
f 299 280 279
f 278 280 300
f 299 300 280
f 299 279 282
f 271 288 301
f 302 289 271
f 302 271 301
f 278 303 287
f 278 300 304
f 278 304 303
f 282 272 305
f 272 297 306
f 272 306 305
f 281 292 273
f 283 284 295
f 303 293 287
f 294 301 288
f 307 286 285
f 307 298 286
f 299 282 308
f 282 305 309
f 282 309 308
f 281 291 310
f 281 311 292
f 281 310 311
f 302 296 289
f 312 290 283
f 283 295 313
f 312 283 313
f 312 291 290
f 294 293 314
f 303 314 293
f 315 300 299
f 315 304 300
f 312 310 291
f 316 297 298
f 316 306 297
f 299 308 317
f 315 299 318
f 299 317 318
f 303 304 319
f 315 319 304
f 294 320 301
f 302 301 320
f 292 307 285
f 295 296 321
f 302 321 296
f 322 305 306
f 322 309 305
f 294 314 323
f 324 320 294
f 324 294 323
f 303 325 314
f 303 319 326
f 303 326 325
f 327 308 309
f 327 317 308
f 292 311 328
f 292 329 307
f 292 328 329
f 295 330 313
f 295 321 331
f 295 331 330
f 302 320 332
f 333 321 302
f 333 302 332
f 307 316 298
f 315 318 334
f 335 319 315
f 315 334 336
f 335 315 336
f 325 323 314
f 337 311 310
f 337 328 311
f 312 313 330
f 338 318 317
f 338 334 318
f 324 332 320
f 335 326 319
f 316 322 306
f 337 310 312
f 312 330 339
f 337 312 339
f 322 327 309
f 325 340 323
f 324 323 340
f 331 321 333
f 325 326 341
f 335 341 326
f 327 338 317
f 307 329 342
f 307 343 316
f 307 342 343
f 324 344 332
f 333 332 344
f 345 336 334
f 335 336 346
f 345 346 336
f 331 347 330
f 331 333 348
f 331 348 347
f 325 341 349
f 325 350 340
f 325 349 350
f 338 345 334
f 351 329 328
f 351 342 329
f 324 340 352
f 353 344 324
f 353 324 352
f 354 341 335
f 335 346 355
f 354 335 355
f 316 356 322
f 316 343 357
f 316 357 356
f 322 358 327
f 327 359 338
f 327 360 359
f 327 358 360
f 322 361 358
f 322 356 361
f 347 339 330
f 351 328 337
f 354 349 341
f 338 362 345
f 338 359 363
f 338 363 362
f 333 344 364
f 365 348 333
f 365 333 364
f 350 352 340
f 337 339 366
f 347 366 339
f 351 337 367
f 337 366 367
f 353 364 344
f 368 343 342
f 368 357 343
f 345 369 346
f 369 355 346
f 354 370 349
f 350 349 370
f 345 362 371
f 345 372 369
f 345 371 372
f 354 355 373
f 369 373 355
f 347 348 365
f 374 363 359
f 374 359 360
f 375 360 358
f 375 358 361
f 350 376 352
f 353 352 376
f 377 370 354
f 354 373 378
f 377 354 378
f 379 362 363
f 379 371 362
f 353 380 364
f 365 364 380
f 381 356 357
f 381 361 356
f 368 342 351
f 350 370 382
f 350 383 376
f 350 382 383
f 347 384 366
f 347 365 385
f 347 385 384
f 351 367 386
f 368 351 387
f 351 386 387
f 377 382 370
f 369 388 373
f 369 372 389
f 369 390 388
f 369 389 390
f 379 363 374
f 391 380 353
f 353 376 392
f 391 353 392
f 384 367 366
f 388 378 373
f 393 372 371
f 393 389 372
f 384 386 367
f 365 380 394
f 395 385 365
f 395 365 394
f 381 357 368
f 374 360 375
f 393 371 379
f 377 378 396
f 388 396 378
f 391 394 380
f 375 361 381
f 383 392 376
f 377 397 382
f 383 382 397
f 368 387 398
f 381 368 399
f 368 398 399
f 379 374 400
f 393 379 401
f 379 400 402
f 379 402 401
f 384 385 395
f 388 390 403
f 404 390 389
f 404 403 390
f 377 396 405
f 406 377 405
f 406 397 377
f 388 407 396
f 388 403 408
f 388 408 407
f 374 375 409
f 374 410 400
f 374 409 410
f 404 389 393
f 407 405 396
f 391 411 394
f 395 394 411
f 412 387 386
f 412 398 387
f 393 401 413
f 404 393 414
f 393 413 414
f 384 412 386
f 384 395 415
f 384 415 412
f 383 416 392
f 391 392 416
f 375 381 417
f 381 399 418
f 381 418 417
f 375 419 409
f 375 417 419
f 420 402 400
f 420 400 410
f 421 408 403
f 407 408 422
f 421 422 408
f 421 403 404
f 407 423 405
f 406 405 423
f 424 401 402
f 424 413 401
f 383 397 425
f 406 425 397
f 383 426 416
f 383 425 426
f 427 411 391
f 391 416 428
f 427 391 428
f 407 422 429
f 407 430 423
f 407 429 430
f 395 411 431
f 432 415 395
f 432 395 431
f 404 414 433
f 421 404 434
f 404 433 434
f 435 399 398
f 435 418 399
f 436 410 409
f 436 409 419
f 437 414 413
f 437 433 414
f 420 424 402
f 438 422 421
f 438 429 422
f 421 434 439
f 438 421 440
f 421 439 440
f 406 423 441
f 430 441 423
f 427 431 411
f 412 435 398
f 442 417 418
f 442 419 417
f 412 415 432
f 436 420 410
f 438 443 429
f 430 429 443
f 406 444 425
f 445 406 441
f 445 444 406
f 446 434 433
f 446 439 434
f 424 437 413
f 412 432 447
f 412 447 435
f 426 428 416
f 437 446 433
f 438 440 448
f 439 448 440
f 426 425 444
f 449 443 438
f 438 448 450
f 449 438 450
f 420 451 424
f 420 452 451
f 436 453 420
f 420 453 452
f 446 454 439
f 439 454 448
f 430 455 441
f 430 443 456
f 430 457 455
f 430 456 457
f 424 458 437
f 424 451 459
f 424 459 458
f 445 441 455
f 432 431 460
f 427 460 431
f 456 443 449
f 435 442 418
f 437 461 446
f 446 462 454
f 446 463 462
f 446 461 463
f 464 448 454
f 465 450 448
f 464 466 448
f 465 448 466
f 437 467 461
f 437 458 467
f 464 454 462
f 449 450 465
f 457 468 455
f 445 455 468
f 426 469 428
f 427 428 469
f 456 449 470
f 457 456 470
f 442 436 419
f 464 462 471
f 464 472 466
f 464 471 472
f 463 471 462
f 449 465 473
f 449 474 470
f 449 473 474
f 459 451 452
f 465 466 472
f 463 461 467
f 445 475 444
f 426 444 475
f 476 447 432
f 432 460 477
f 476 432 477
f 467 458 459
f 478 472 471
f 463 478 471
f 465 472 479
f 473 465 479
f 435 447 476
f 435 480 442
f 435 476 480
f 457 470 481
f 481 470 474
f 482 479 472
f 478 483 472
f 482 472 483
f 463 484 478
f 463 485 484
f 463 467 485
f 457 486 468
f 457 487 486
f 457 481 487
f 473 479 488
f 482 488 479
f 489 445 468
f 489 490 445
f 445 490 475
f 473 488 491
f 473 491 474
f 478 492 483
f 478 484 492
f 482 483 492
f 482 493 488
f 482 492 493
f 494 488 493
f 494 491 488
f 489 468 486
f 494 493 492
f 495 474 491
f 481 474 495
f 494 492 496
f 484 496 492
f 436 497 453
f 452 453 497
f 426 475 498
f 426 498 469
f 494 499 491
f 494 496 499
f 495 491 499
f 484 485 500
f 484 501 496
f 484 500 501
f 485 467 502
f 467 459 502
f 485 502 500
f 503 499 496
f 503 496 501
f 442 504 436
f 436 504 497
f 495 499 503
f 495 503 481
f 503 501 500
f 459 452 505
f 459 506 502
f 459 505 506
f 507 460 427
f 427 469 508
f 507 427 508
f 486 487 509
f 486 509 510
f 489 486 510
f 452 511 505
f 452 512 511
f 452 497 512
f 503 500 513
f 513 500 502
f 503 514 481
f 503 513 514
f 481 515 487
f 481 516 515
f 481 517 516
f 481 518 517
f 481 519 518
f 481 514 519
f 513 502 506
f 509 487 515
f 520 515 521
f 522 521 515
f 509 515 520
f 522 515 516
f 513 506 523
f 513 523 514
f 520 521 524
f 525 524 521
f 525 521 522
f 526 520 524
f 509 520 527
f 526 527 520
f 522 516 517
f 525 528 524
f 525 522 529
f 525 530 528
f 525 529 530
f 528 526 524
f 522 517 529
f 509 527 531
f 532 510 509
f 532 509 531
f 528 530 526
f 518 533 517
f 518 519 533
f 534 527 526
f 535 531 527
f 535 527 534
f 536 530 529
f 536 529 517
f 526 530 536
f 526 536 537
f 534 526 537
f 532 489 510
f 523 506 505
f 523 519 514
f 535 532 531
f 442 480 538
f 442 538 504
f 523 505 511
f 539 536 517
f 539 517 533
f 489 540 490
f 532 541 489
f 489 541 540
f 539 537 536
f 542 534 537
f 542 535 534
f 539 542 537
f 543 533 519
f 523 544 519
f 543 519 544
f 542 545 535
f 535 545 532
f 498 475 490
f 498 490 540
f 546 539 533
f 546 533 543
f 523 511 547
f 523 547 544
f 546 542 539
f 542 548 545
f 546 548 542
f 507 477 460
f 532 545 549
f 532 549 541
f 547 511 512
f 547 543 544
f 547 512 550
f 497 550 512
f 498 508 469
f 551 545 548
f 551 549 545
f 546 543 552
f 547 552 543
f 553 540 541
f 553 541 549
f 538 480 476
f 551 548 546
f 546 552 554
f 551 546 554
f 547 555 552
f 547 550 555
f 476 477 556
f 507 556 477
f 497 504 538
f 498 540 553
f 497 557 550
f 497 538 557
f 553 549 551
f 555 554 552
f 538 476 558
f 476 556 558
f 555 550 557
f 498 559 508
f 498 553 559
f 507 508 559
f 551 554 560
f 555 560 554
f 553 551 561
f 551 560 561
f 555 557 562
f 555 563 560
f 555 562 563
f 553 564 559
f 553 561 564
f 538 562 557
f 538 558 562
f 563 561 560
f 507 559 564
f 563 564 561
f 563 556 507
f 563 507 564
f 563 558 556
f 563 562 558
