# 
# Wavefront OBJ file
# Created with Kaydara FBX
# 
mtllib c:\users\tjvan\onedrive\documenten\fontys\minor\nx\.mtlmodels\popliteal_vein.r.obj

g Popliteal_vein_r
v -0.088507 0.509798 -0.036691
v -0.088586 0.505115 -0.038640
v -0.088625 0.510004 -0.037980
v -0.088041 0.505280 -0.039807
v -0.088112 0.514914 -0.035779
v -0.088226 0.515190 -0.037069
v -0.088076 0.510166 -0.039159
v -0.088469 0.504962 -0.037356
v -0.088209 0.500525 -0.039141
v -0.087671 0.500705 -0.040295
v -0.087752 0.509604 -0.035636
v -0.087359 0.514606 -0.034735
v -0.088095 0.500402 -0.037866
v -0.087721 0.504862 -0.036299
v -0.087186 0.520312 -0.034532
v -0.087670 0.515360 -0.038258
v -0.087287 0.520669 -0.035816
v -0.087600 0.496233 -0.039573
v -0.087071 0.496440 -0.040713
v -0.086448 0.519878 -0.033506
v -0.087360 0.500369 -0.036812
v -0.087487 0.496115 -0.038311
v -0.086981 0.505413 -0.040545
v -0.087005 0.510242 -0.039912
v -0.086625 0.500893 -0.041018
v -0.086563 0.509474 -0.035100
v -0.086169 0.514348 -0.034216
v -0.086544 0.504842 -0.035752
v -0.086042 0.496679 -0.041424
v -0.086724 0.520853 -0.037014
v -0.086594 0.515378 -0.039028
v -0.086861 0.492236 -0.040028
v -0.086344 0.492484 -0.041151
v -0.086763 0.496115 -0.037263
v -0.086745 0.492092 -0.038781
v -0.086200 0.500435 -0.036261
v -0.085270 0.519484 -0.033013
v -0.085636 0.525993 -0.032863
v -0.085716 0.526435 -0.034135
v -0.084925 0.525432 -0.031863
v -0.085334 0.492769 -0.041849
v -0.085689 0.505478 -0.040655
v -0.085700 0.510210 -0.040036
v -0.085351 0.501039 -0.041118
v -0.086094 0.488529 -0.040590
v -0.085594 0.488834 -0.041692
v -0.086028 0.492089 -0.037744
v -0.085622 0.496236 -0.036712
v -0.085967 0.488326 -0.039365
v -0.085647 0.520816 -0.037804
v -0.085142 0.526640 -0.035338
v -0.084789 0.496886 -0.041516
v -0.085285 0.515239 -0.039173
v -0.085259 0.509443 -0.035224
v -0.084861 0.514210 -0.034361
v -0.085252 0.504908 -0.035862
v -0.083773 0.524903 -0.031404
v -0.084602 0.489158 -0.042377
v -0.084926 0.500581 -0.036360
v -0.083969 0.519235 -0.033185
v -0.085396 0.485107 -0.041340
v -0.084916 0.485485 -0.042414
v -0.084101 0.493014 -0.041935
v -0.085249 0.488279 -0.038346
v -0.084901 0.492229 -0.037196
v -0.085253 0.484810 -0.040149
v -0.083370 0.531962 -0.030685
v -0.083420 0.532488 -0.031940
v -0.084511 0.505458 -0.040108
v -0.084511 0.510080 -0.039500
v -0.084192 0.501104 -0.040567
v -0.084346 0.520568 -0.037976
v -0.084069 0.526553 -0.036151
v -0.082697 0.531280 -0.029718
v -0.084370 0.496443 -0.036804
v -0.083941 0.485842 -0.043083
v -0.084850 0.481904 -0.042371
v -0.084385 0.482340 -0.043414
v -0.084568 0.397240 -0.057397
v -0.085212 0.392425 -0.056128
v -0.085371 0.392191 -0.056938
v -0.084721 0.397071 -0.058242
v -0.085093 0.391907 -0.057697
v -0.083648 0.497007 -0.040964
v -0.083384 0.489415 -0.042460
v -0.084095 0.514982 -0.038654
v -0.082488 0.524547 -0.031608
v -0.084524 0.484674 -0.039161
v -0.084693 0.481524 -0.041220
v -0.084130 0.488400 -0.037806
v -0.084188 0.509518 -0.035977
v -0.084191 0.505041 -0.036600
v -0.083785 0.514228 -0.035131
v -0.084008 0.397316 -0.056728
v -0.084658 0.392544 -0.055485
v -0.082833 0.532716 -0.033147
v -0.084425 0.396856 -0.059038
v -0.084450 0.391647 -0.058203
v -0.083423 0.482715 -0.044070
v -0.083880 0.500769 -0.037084
v -0.081580 0.530623 -0.029299
v -0.083668 0.492474 -0.037282
v -0.082892 0.519199 -0.033975
v -0.084407 0.478877 -0.043517
v -0.083949 0.479324 -0.044544
v -0.082975 0.493154 -0.041386
v -0.083988 0.402413 -0.058309
v -0.084136 0.402304 -0.059183
v -0.083958 0.481301 -0.040269
v -0.084250 0.478479 -0.042385
v -0.083192 0.397280 -0.056415
v -0.083856 0.392518 -0.055180
v -0.082732 0.486082 -0.043168
v -0.083422 0.402450 -0.057619
v -0.083406 0.484734 -0.038640
v -0.083764 0.505359 -0.039051
v -0.083456 0.501071 -0.039513
v -0.083756 0.509887 -0.038445
v -0.083761 0.396652 -0.059570
v -0.083617 0.391482 -0.058319
v -0.083827 0.402152 -0.060008
v -0.083964 0.475973 -0.044572
v -0.083510 0.476405 -0.045592
v -0.082998 0.479699 -0.045191
v -0.083341 0.496682 -0.037515
v -0.083168 0.520174 -0.037483
v -0.082784 0.526197 -0.036355
v -0.083810 0.475592 -0.043448
v -0.083518 0.478235 -0.041452
v -0.082924 0.497007 -0.039917
v -0.083638 0.509681 -0.037156
v -0.083646 0.505206 -0.037767
v -0.083229 0.514398 -0.036320
v -0.083470 0.407859 -0.058880
v -0.083616 0.407804 -0.059778
v -0.082912 0.488657 -0.037889
v -0.082266 0.489537 -0.041919
v -0.083343 0.514674 -0.037610
v -0.081767 0.532584 -0.033983
v -0.082590 0.402405 -0.057298
v -0.082897 0.407860 -0.058172
v -0.083533 0.473231 -0.045535
v -0.083082 0.473650 -0.046547
v -0.082568 0.476773 -0.046234
v -0.082840 0.481295 -0.039773
v -0.082223 0.482929 -0.044162
v -0.081414 0.524460 -0.032421
v -0.083342 0.500949 -0.038238
v -0.082336 0.397142 -0.056541
v -0.083023 0.392353 -0.055297
v -0.083143 0.401998 -0.060561
v -0.083294 0.407709 -0.060625
v -0.083382 0.472865 -0.044418
v -0.083088 0.475365 -0.042519
v -0.082328 0.519383 -0.035173
v -0.082906 0.396513 -0.059697
v -0.080320 0.530169 -0.029539
v -0.082658 0.492759 -0.037980
v -0.082257 0.493152 -0.040350
v -0.082815 0.391455 -0.058015
v -0.083012 0.413489 -0.059124
v -0.083156 0.413484 -0.060042
v -0.083121 0.470646 -0.046417
v -0.082674 0.471054 -0.047421
v -0.082150 0.474010 -0.047184
v -0.082410 0.478211 -0.040968
v -0.082430 0.413455 -0.058401
v -0.082812 0.496889 -0.038654
v -0.082048 0.407805 -0.057844
v -0.081809 0.479902 -0.045286
v -0.080323 0.538180 -0.027933
v -0.080341 0.538777 -0.029171
v -0.082197 0.484974 -0.038725
v -0.082973 0.470292 -0.045310
v -0.082670 0.472651 -0.043496
v -0.081614 0.486143 -0.042647
v -0.079684 0.537405 -0.026995
v -0.082429 0.519740 -0.036457
v -0.082823 0.413442 -0.060908
v -0.082591 0.407600 -0.061195
v -0.081714 0.402290 -0.057432
v -0.081631 0.525668 -0.035896
v -0.082611 0.419215 -0.059056
v -0.082754 0.419258 -0.059991
v -0.082267 0.401883 -0.060695
v -0.082736 0.468214 -0.047234
v -0.082293 0.468614 -0.048229
v -0.081751 0.471407 -0.048052
v -0.081993 0.475352 -0.042036
v -0.081672 0.396937 -0.057074
v -0.082380 0.392093 -0.055802
v -0.082021 0.419147 -0.058319
v -0.081392 0.476978 -0.046326
v -0.082590 0.467866 -0.046138
v -0.082269 0.470086 -0.044396
v -0.081547 0.489489 -0.040900
v -0.082141 0.493007 -0.039103
v -0.082089 0.396477 -0.059384
v -0.081566 0.413391 -0.058066
v -0.081920 0.488982 -0.038573
v -0.080841 0.524664 -0.033624
v -0.081640 0.481509 -0.039865
v -0.079735 0.539036 -0.030376
v -0.082261 0.391575 -0.057371
v -0.082411 0.419265 -0.060873
v -0.082103 0.413373 -0.061491
v -0.080506 0.532130 -0.034223
v -0.082265 0.424948 -0.058693
v -0.082407 0.425038 -0.059642
v -0.082383 0.465929 -0.047998
v -0.081945 0.466323 -0.048982
v -0.081105 0.482923 -0.043667
v -0.078596 0.536660 -0.026608
v -0.081379 0.468958 -0.048854
v -0.081587 0.472646 -0.043015
v -0.081665 0.424846 -0.057944
v -0.081153 0.407710 -0.057983
v -0.081696 0.407505 -0.061334
v -0.082238 0.465583 -0.046914
v -0.081893 0.467664 -0.045233
v -0.080986 0.474215 -0.047274
v -0.079253 0.530037 -0.030375
v -0.081141 0.419073 -0.057978
v -0.080920 0.525107 -0.034896
v -0.082055 0.425094 -0.060538
v -0.081674 0.419234 -0.061467
v -0.081970 0.430600 -0.058050
v -0.082113 0.430739 -0.059012
v -0.081220 0.478414 -0.041063
v -0.081377 0.396722 -0.057870
v -0.082101 0.391808 -0.056562
v -0.082070 0.463787 -0.048723
v -0.081637 0.464178 -0.049696
v -0.081030 0.402135 -0.057986
v -0.081041 0.466659 -0.049603
v -0.081529 0.396554 -0.058715
v -0.081435 0.401838 -0.060374
v -0.081362 0.430463 -0.057292
v -0.081198 0.470084 -0.043919
v -0.080885 0.486006 -0.041659
v -0.081421 0.489286 -0.039675
v -0.081926 0.463436 -0.047654
v -0.081549 0.465377 -0.046021
v -0.080701 0.479879 -0.044802
v -0.081222 0.485331 -0.039394
v -0.080600 0.471609 -0.048142
v -0.081751 0.430843 -0.059919
v -0.081725 0.436082 -0.057146
v -0.081867 0.436273 -0.058117
v -0.081189 0.413296 -0.061633
v -0.081804 0.461782 -0.049422
v -0.081376 0.462174 -0.050382
v -0.080652 0.413314 -0.058209
v -0.081302 0.425099 -0.061141
v -0.080770 0.424761 -0.057597
v -0.080817 0.475557 -0.042128
v -0.081107 0.435907 -0.056379
v -0.080742 0.464505 -0.050311
v -0.081659 0.461420 -0.048370
v -0.081242 0.463220 -0.046775
v -0.080834 0.467660 -0.044762
v -0.081496 0.436429 -0.059032
v -0.081525 0.441307 -0.055996
v -0.081668 0.441555 -0.056973
v -0.081589 0.459909 -0.050108
v -0.081167 0.460307 -0.051053
v -0.080296 0.476965 -0.045843
v -0.078665 0.538889 -0.031226
v -0.080982 0.430885 -0.060529
v -0.080240 0.469154 -0.048944
v -0.080898 0.441090 -0.055225
v -0.080450 0.407601 -0.058553
v -0.080848 0.407450 -0.061006
v -0.080720 0.401983 -0.058810
v -0.080741 0.419173 -0.061612
v -0.080450 0.430365 -0.056939
v -0.081369 0.446185 -0.054621
v -0.081512 0.446499 -0.055597
v -0.081288 0.441768 -0.057893
v -0.081444 0.459529 -0.049076
v -0.080981 0.461186 -0.047508
v -0.080490 0.462492 -0.050993
v -0.080678 0.481883 -0.040521
v -0.079389 0.531473 -0.033804
v -0.080370 0.482700 -0.042716
v -0.081434 0.458164 -0.050792
v -0.081017 0.458572 -0.051721
v -0.080423 0.472850 -0.043105
v -0.077350 0.536145 -0.026875
v -0.080207 0.419012 -0.058124
v -0.080500 0.465367 -0.045558
v -0.080742 0.485709 -0.040468
v -0.080869 0.401875 -0.059684
v -0.080733 0.445918 -0.053848
v -0.081254 0.450627 -0.053037
v -0.081396 0.451018 -0.054005
v -0.081123 0.446775 -0.056516
v -0.080711 0.436509 -0.059647
v -0.081288 0.457757 -0.049785
v -0.081341 0.456539 -0.051489
v -0.080931 0.456962 -0.052399
v -0.080771 0.459268 -0.048234
v -0.078666 0.530265 -0.031582
v -0.081175 0.454553 -0.051262
v -0.081319 0.455001 -0.052224
v -0.080998 0.451370 -0.054915
v -0.079903 0.474210 -0.046793
v -0.080179 0.435796 -0.056022
v -0.080608 0.450301 -0.052271
v -0.080291 0.460616 -0.051659
v -0.079913 0.466846 -0.049694
v -0.081196 0.456097 -0.050510
v -0.080913 0.455413 -0.053126
v -0.080349 0.425053 -0.061288
v -0.080487 0.441887 -0.058510
v -0.080619 0.457459 -0.048969
v -0.080519 0.454188 -0.050497
v -0.080203 0.463197 -0.046321
v -0.080269 0.478790 -0.041710
v -0.080325 0.413232 -0.061298
v -0.080533 0.455754 -0.049725
v -0.080047 0.470286 -0.044009
v -0.080150 0.458870 -0.052323
v -0.079932 0.413245 -0.058791
v -0.079818 0.424715 -0.057744
v -0.080307 0.446940 -0.057132
v -0.079955 0.440961 -0.054865
v -0.079969 0.479635 -0.043869
v -0.079625 0.464680 -0.050405
v -0.080129 0.407506 -0.059400
v -0.080074 0.457251 -0.052996
v -0.080166 0.451588 -0.055523
v -0.080011 0.430853 -0.060677
v -0.079950 0.461142 -0.047067
v -0.079529 0.471607 -0.047665
v -0.080066 0.455679 -0.053725
v -0.078716 0.530791 -0.032837
v -0.079774 0.445770 -0.053487
v -0.080213 0.482320 -0.041564
v -0.080274 0.407451 -0.060298
v -0.079694 0.467857 -0.044852
v -0.079875 0.475925 -0.042770
v -0.079480 0.430333 -0.057087
v -0.079749 0.459196 -0.047809
v -0.079861 0.419098 -0.061271
v -0.079633 0.450127 -0.051912
v -0.079384 0.462650 -0.051090
v -0.079722 0.436490 -0.059796
v -0.079575 0.476738 -0.044915
v -0.079470 0.418981 -0.058717
v -0.079606 0.457351 -0.048562
v -0.079528 0.454006 -0.050134
v -0.079180 0.469151 -0.048473
v -0.079530 0.455601 -0.049343
v -0.079480 0.441883 -0.058658
v -0.079195 0.460752 -0.051763
v -0.079372 0.465555 -0.045649
v -0.077419 0.538374 -0.031494
v -0.079599 0.413202 -0.059658
v -0.079191 0.435777 -0.056171
v -0.079491 0.473211 -0.043742
v -0.079812 0.479236 -0.042737
v -0.079454 0.424968 -0.060941
v -0.079678 0.539378 -0.027322
v -0.079671 0.540024 -0.028535
v -0.079743 0.413197 -0.060575
v -0.076281 0.535998 -0.027726
v -0.079061 0.538561 -0.026405
v -0.079282 0.446950 -0.057279
v -0.079065 0.458981 -0.052435
v -0.079191 0.473995 -0.045871
v -0.078863 0.466836 -0.049231
v -0.079064 0.424720 -0.058347
v -0.079086 0.463372 -0.046415
v -0.078948 0.440956 -0.055013
v -0.079123 0.451613 -0.055667
v -0.079000 0.457330 -0.053120
v -0.079004 0.455727 -0.053862
v -0.079124 0.470638 -0.044640
v -0.079099 0.430755 -0.060325
v -0.079420 0.476357 -0.043790
v -0.078749 0.445779 -0.053634
v -0.078844 0.461300 -0.047164
v -0.079128 0.418988 -0.059599
v -0.078586 0.464656 -0.049951
v -0.078825 0.471401 -0.046751
v -0.079270 0.419031 -0.060534
v -0.078710 0.430375 -0.057697
v -0.078590 0.450152 -0.052056
v -0.078653 0.459333 -0.047913
v -0.079042 0.540327 -0.029719
v -0.078795 0.436378 -0.059439
v -0.078781 0.468201 -0.045477
v -0.077985 0.537793 -0.026030
v -0.079095 0.540509 -0.026686
v -0.078489 0.539670 -0.025782
v -0.079068 0.541192 -0.027878
v -0.078466 0.454054 -0.050271
v -0.078353 0.462606 -0.050649
v -0.078521 0.457461 -0.048675
v -0.079040 0.473630 -0.044754
v -0.078456 0.455680 -0.049467
v -0.078484 0.468948 -0.047568
v -0.078712 0.424775 -0.059243
v -0.078406 0.435856 -0.056785
v -0.078537 0.441754 -0.058298
v -0.078854 0.424866 -0.060192
v -0.078174 0.460680 -0.051337
v -0.076331 0.537629 -0.031106
v -0.078468 0.465890 -0.046269
v -0.078322 0.446801 -0.056917
v -0.075674 0.536257 -0.028931
v -0.078147 0.441076 -0.055630
v -0.078053 0.458872 -0.052029
v -0.078677 0.471047 -0.045643
v -0.078174 0.466630 -0.048337
v -0.078148 0.451440 -0.055307
v -0.078491 0.430619 -0.059566
v -0.078191 0.463699 -0.047030
v -0.078521 0.541644 -0.025996
v -0.077926 0.540785 -0.025103
v -0.078348 0.430479 -0.058604
v -0.077997 0.457177 -0.052738
v -0.077414 0.538901 -0.025407
v -0.078417 0.541538 -0.029038
v -0.078480 0.542358 -0.027169
v -0.077959 0.540205 -0.030556
v -0.078013 0.455544 -0.053499
v -0.077932 0.445945 -0.054249
v -0.077902 0.464440 -0.049072
v -0.077958 0.461618 -0.047775
v -0.078338 0.468600 -0.046472
v -0.078177 0.436204 -0.058672
v -0.077758 0.450370 -0.052664
v -0.078035 0.436013 -0.057701
v -0.075693 0.536855 -0.030168
v -0.077777 0.459641 -0.048518
v -0.077619 0.454320 -0.050870
v -0.077675 0.462372 -0.049787
v -0.076739 0.537280 -0.026297
v -0.077910 0.441537 -0.057527
v -0.077654 0.457760 -0.049276
v -0.077935 0.542805 -0.025248
v -0.077349 0.541928 -0.024367
v -0.078029 0.466284 -0.047253
v -0.076853 0.540010 -0.024732
v -0.077812 0.542735 -0.028310
v -0.077883 0.543539 -0.026409
v -0.077599 0.455969 -0.050064
v -0.077315 0.541453 -0.029854
v -0.077767 0.441289 -0.056550
v -0.077500 0.460419 -0.050495
v -0.077686 0.446535 -0.056145
v -0.077758 0.464090 -0.048003
v -0.077384 0.458575 -0.051213
v -0.077543 0.446221 -0.055168
v -0.077503 0.451113 -0.054541
v -0.077334 0.456833 -0.051953
v -0.077357 0.455180 -0.052734
v -0.076157 0.538408 -0.025662
v -0.077531 0.462010 -0.048735
v -0.076713 0.539692 -0.030823
v -0.077360 0.450722 -0.053574
v -0.076281 0.541144 -0.024002
v -0.077314 0.544010 -0.024443
v -0.076735 0.543119 -0.023572
v -0.077206 0.543935 -0.027538
v -0.077256 0.544756 -0.025596
v -0.076698 0.542674 -0.029112
v -0.077213 0.454732 -0.051772
v -0.077355 0.460039 -0.049464
v -0.077238 0.458168 -0.050205
v -0.077188 0.456391 -0.050974
v -0.075591 0.539528 -0.024980
v -0.075656 0.537158 -0.027134
v -0.075674 0.542321 -0.023215
v -0.076058 0.540960 -0.030109
v -0.076637 0.545276 -0.023583
v -0.076063 0.544373 -0.022719
v -0.076576 0.545157 -0.026721
v -0.076577 0.546025 -0.024734
v -0.076086 0.543885 -0.028333
v -0.075018 0.540662 -0.024250
v -0.075055 0.538323 -0.026478
v -0.075011 0.543560 -0.022373
v -0.075637 0.538924 -0.030447
v -0.075435 0.542191 -0.029361
v -0.075881 0.546618 -0.022670
v -0.075312 0.545708 -0.021811
v -0.075900 0.546421 -0.025863
v -0.075457 0.545106 -0.027517
v -0.075823 0.547363 -0.023824
v -0.075027 0.537461 -0.028317
v -0.074416 0.541831 -0.023469
v -0.074476 0.539467 -0.025782
v -0.074823 0.543403 -0.028581
v -0.074982 0.540191 -0.029734
v -0.074269 0.544878 -0.021477
v -0.075154 0.547744 -0.024963
v -0.074787 0.546357 -0.026667
v -0.075025 0.548052 -0.021709
v -0.074459 0.547138 -0.020853
v -0.074973 0.548788 -0.022869
v -0.075020 0.538107 -0.029530
v -0.073761 0.543053 -0.022638
v -0.074403 0.538668 -0.027638
v -0.073898 0.540612 -0.025045
v -0.074198 0.544615 -0.027771
v -0.074363 0.541417 -0.028989
v -0.073426 0.546290 -0.020530
v -0.074318 0.549148 -0.024022
v -0.074054 0.547659 -0.025781
v -0.073809 0.539844 -0.026923
v -0.074377 0.539352 -0.028830
v -0.073296 0.541779 -0.024265
v -0.073031 0.544349 -0.021757
v -0.074049 0.549595 -0.020702
v -0.073484 0.548679 -0.019847
v -0.074006 0.550317 -0.021871
v -0.073756 0.542619 -0.028215
v -0.073537 0.545850 -0.026932
v -0.073221 0.541007 -0.026174
v -0.072462 0.547813 -0.019536
v -0.072648 0.542989 -0.023442
v -0.073767 0.540557 -0.028097
v -0.073233 0.549035 -0.024859
v -0.073367 0.550650 -0.023042
v -0.072204 0.545735 -0.020827
v -0.073137 0.543818 -0.027415
v -0.072816 0.547131 -0.026061
v -0.072931 0.551262 -0.019653
v -0.072366 0.550346 -0.018798
v -0.072899 0.551967 -0.020833
v -0.072617 0.542180 -0.025390
v -0.073169 0.541742 -0.027334
v -0.071931 0.544264 -0.022575
v -0.072485 0.545037 -0.026586
v -0.071355 0.549464 -0.018497
v -0.071258 0.547231 -0.019851
v -0.072302 0.550506 -0.023900
v -0.072280 0.552271 -0.022022
v -0.071971 0.543385 -0.024571
v -0.072011 0.548481 -0.025157
v -0.072558 0.542926 -0.026543
v -0.071120 0.545623 -0.021664
v -0.071650 0.553072 -0.018564
v -0.071083 0.552157 -0.017708
v -0.071632 0.553758 -0.019755
v -0.071773 0.546300 -0.025727
v -0.071262 0.544645 -0.023714
v -0.071911 0.544135 -0.025722
v -0.070170 0.548853 -0.018830
v -0.070084 0.551260 -0.017416
v -0.071238 0.552094 -0.022901
v -0.071098 0.549923 -0.024215
v -0.071033 0.554032 -0.020962
v -0.070193 0.547087 -0.020709
v -0.070979 0.547633 -0.024834
v -0.071204 0.545391 -0.024868
v -0.070464 0.545983 -0.022818
v -0.070185 0.555041 -0.017437
v -0.069616 0.554129 -0.016579
v -0.070180 0.555708 -0.018639
v -0.068919 0.550620 -0.017767
v -0.070412 0.546718 -0.023978
v -0.069128 0.548675 -0.019709
v -0.070052 0.551482 -0.023234
v -0.070015 0.553821 -0.021861
v -0.069554 0.547420 -0.021879
v -0.070076 0.549058 -0.023904
v -0.068627 0.553218 -0.016295
v -0.069604 0.555952 -0.019863
v -0.069511 0.548142 -0.023049
v -0.068508 0.548980 -0.020898
v -0.067900 0.550409 -0.018666
v -0.069042 0.550601 -0.022933
v -0.067482 0.552550 -0.016661
v -0.068850 0.553181 -0.022212
v -0.068611 0.555708 -0.020781
v -0.068477 0.549685 -0.022078
v -0.067302 0.550683 -0.019873
v -0.067850 0.552283 -0.021920
v -0.066488 0.552306 -0.017579
v -0.067466 0.555041 -0.021147
v -0.067284 0.551369 -0.021064
v -0.065912 0.552550 -0.018803
v -0.066476 0.554129 -0.020863
v -0.065908 0.553218 -0.020005
usemtl Popliteal_vein_rMaterial0
f 1 2 3
f 3 2 4
f 5 1 3
f 5 3 6
f 6 3 7
f 3 4 7
f 1 8 2
f 8 9 2
f 2 9 10
f 2 10 4
f 11 8 1
f 12 1 5
f 12 11 1
f 8 13 9
f 14 13 8
f 11 14 8
f 15 5 6
f 6 7 16
f 17 6 16
f 15 6 17
f 13 18 9
f 9 19 10
f 9 18 19
f 20 12 5
f 20 5 15
f 14 21 13
f 13 22 18
f 21 22 13
f 7 4 23
f 16 7 24
f 7 23 24
f 4 10 25
f 4 25 23
f 26 14 11
f 27 11 12
f 27 26 11
f 28 21 14
f 26 28 14
f 10 19 29
f 10 29 25
f 17 16 30
f 16 24 31
f 30 16 31
f 22 32 18
f 18 33 19
f 18 32 33
f 21 34 22
f 22 35 32
f 34 35 22
f 36 34 21
f 28 36 21
f 37 12 20
f 37 27 12
f 38 15 17
f 39 17 30
f 38 17 39
f 40 20 15
f 40 15 38
f 19 33 41
f 19 41 29
f 24 23 42
f 31 24 43
f 24 42 43
f 23 25 44
f 23 44 42
f 35 45 32
f 32 46 33
f 32 45 46
f 34 47 35
f 36 48 34
f 48 47 34
f 35 49 45
f 47 49 35
f 30 31 50
f 39 30 51
f 51 30 50
f 25 29 52
f 25 52 44
f 31 43 53
f 50 31 53
f 54 28 26
f 55 26 27
f 55 54 26
f 56 36 28
f 54 56 28
f 57 37 20
f 57 20 40
f 33 46 58
f 33 58 41
f 59 48 36
f 56 59 36
f 60 27 37
f 60 55 27
f 49 61 45
f 45 62 46
f 45 61 62
f 29 41 63
f 29 63 52
f 47 64 49
f 48 65 47
f 65 64 47
f 49 66 61
f 64 66 49
f 67 38 39
f 68 39 51
f 67 39 68
f 43 42 69
f 53 43 70
f 43 69 70
f 42 44 71
f 42 71 69
f 50 53 72
f 51 50 73
f 73 50 72
f 74 40 38
f 74 38 67
f 59 75 48
f 75 65 48
f 46 62 76
f 46 76 58
f 66 77 61
f 61 78 62
f 61 77 78
f 79 80 81
f 82 81 83
f 79 81 82
f 44 52 84
f 44 84 71
f 41 58 85
f 41 85 63
f 53 70 86
f 72 53 86
f 87 60 37
f 87 37 57
f 64 88 66
f 66 89 77
f 88 89 66
f 65 90 64
f 90 88 64
f 91 56 54
f 92 59 56
f 91 92 56
f 93 54 55
f 93 91 54
f 94 95 80
f 94 80 79
f 96 51 73
f 68 51 96
f 82 83 97
f 97 83 98
f 62 78 99
f 62 99 76
f 100 75 59
f 92 100 59
f 101 57 40
f 101 40 74
f 75 102 65
f 102 90 65
f 103 55 60
f 103 93 55
f 89 104 77
f 77 104 105
f 77 105 78
f 52 63 106
f 52 106 84
f 107 79 82
f 108 82 97
f 107 82 108
f 88 109 89
f 89 110 104
f 109 110 89
f 111 95 94
f 111 112 95
f 58 76 113
f 58 113 85
f 114 94 79
f 114 79 107
f 90 115 88
f 115 109 88
f 70 69 116
f 69 71 117
f 69 117 116
f 86 70 118
f 70 116 118
f 97 98 119
f 119 98 120
f 108 97 121
f 121 97 119
f 110 122 104
f 104 122 123
f 104 123 105
f 78 105 124
f 78 124 99
f 100 125 75
f 125 102 75
f 72 86 126
f 73 72 127
f 127 72 126
f 110 128 122
f 109 129 110
f 129 128 110
f 71 84 130
f 71 130 117
f 131 92 91
f 132 100 92
f 131 132 92
f 133 91 93
f 133 131 91
f 134 107 108
f 135 108 121
f 134 108 135
f 102 136 90
f 136 115 90
f 63 85 137
f 63 137 106
f 86 118 138
f 126 86 138
f 96 73 139
f 139 73 127
f 140 94 114
f 140 111 94
f 141 107 134
f 141 114 107
f 128 142 122
f 122 142 143
f 122 143 123
f 105 123 144
f 105 144 124
f 145 129 109
f 115 145 109
f 76 99 146
f 76 146 113
f 147 103 60
f 147 60 87
f 132 148 100
f 148 125 100
f 149 112 111
f 149 150 112
f 121 119 151
f 135 121 152
f 152 121 151
f 128 153 142
f 129 154 128
f 154 153 128
f 155 133 93
f 155 93 103
f 119 120 156
f 151 119 156
f 118 116 132
f 116 148 132
f 116 117 148
f 118 132 131
f 138 118 131
f 157 87 57
f 157 57 101
f 125 158 102
f 158 136 102
f 84 106 159
f 84 159 130
f 138 131 133
f 156 120 160
f 161 134 135
f 162 135 152
f 161 135 162
f 153 163 142
f 142 163 164
f 142 164 143
f 123 143 165
f 123 165 144
f 166 154 129
f 145 166 129
f 167 134 161
f 167 141 134
f 117 168 148
f 117 130 168
f 169 114 141
f 169 140 114
f 99 124 170
f 99 170 146
f 171 67 68
f 172 68 96
f 171 68 172
f 136 173 115
f 173 145 115
f 153 174 163
f 154 175 153
f 175 174 153
f 85 113 176
f 85 176 137
f 177 74 67
f 177 67 171
f 148 168 125
f 168 158 125
f 178 138 133
f 126 138 178
f 162 152 179
f 152 151 180
f 179 152 180
f 178 133 155
f 181 111 140
f 181 149 111
f 127 126 182
f 182 126 178
f 183 161 162
f 184 162 179
f 183 162 184
f 151 156 185
f 180 151 185
f 174 186 163
f 163 186 187
f 163 187 164
f 143 164 188
f 143 188 165
f 189 175 154
f 166 189 154
f 190 191 150
f 190 150 149
f 192 161 183
f 192 167 161
f 124 144 193
f 124 193 170
f 174 194 186
f 175 195 174
f 195 194 174
f 106 137 196
f 106 196 159
f 130 197 168
f 130 159 197
f 156 160 198
f 185 156 198
f 199 141 167
f 199 169 141
f 158 200 136
f 200 173 136
f 201 155 103
f 201 103 147
f 202 166 145
f 173 202 145
f 203 96 139
f 172 96 203
f 198 160 204
f 184 179 205
f 179 180 206
f 205 179 206
f 168 197 158
f 139 127 207
f 207 127 182
f 208 183 184
f 209 184 205
f 208 184 209
f 194 210 186
f 186 210 211
f 186 211 187
f 113 146 212
f 113 212 176
f 213 101 74
f 213 74 177
f 164 187 214
f 164 214 188
f 215 195 175
f 189 215 175
f 197 200 158
f 216 183 208
f 216 192 183
f 217 140 169
f 217 181 140
f 180 185 218
f 206 180 218
f 194 219 210
f 195 220 194
f 220 219 194
f 144 165 221
f 144 221 193
f 222 147 87
f 222 87 157
f 223 167 192
f 223 199 167
f 224 178 155
f 182 178 224
f 209 205 225
f 205 206 226
f 225 205 226
f 227 208 209
f 228 209 225
f 227 209 228
f 229 189 166
f 202 229 166
f 230 231 191
f 230 191 190
f 219 232 210
f 210 232 233
f 210 233 211
f 234 149 181
f 234 190 149
f 224 155 201
f 187 211 235
f 187 235 214
f 236 204 231
f 198 204 236
f 185 198 237
f 218 185 237
f 238 208 227
f 238 216 208
f 239 220 195
f 215 239 195
f 137 176 240
f 137 240 196
f 159 241 197
f 159 196 241
f 219 242 232
f 243 242 219
f 220 243 219
f 146 170 244
f 146 244 212
f 200 245 173
f 245 202 173
f 165 188 246
f 165 246 221
f 197 241 200
f 228 225 247
f 248 227 228
f 249 228 247
f 248 228 249
f 236 231 230
f 206 218 250
f 226 206 250
f 237 198 236
f 242 251 232
f 232 251 252
f 232 252 233
f 253 169 199
f 253 217 169
f 247 225 254
f 225 226 254
f 255 192 216
f 255 223 192
f 256 215 189
f 229 256 189
f 257 227 248
f 257 238 227
f 211 233 258
f 211 258 235
f 242 259 251
f 260 259 242
f 243 260 242
f 241 245 200
f 261 243 220
f 239 261 220
f 249 247 262
f 263 248 249
f 263 249 264
f 264 249 262
f 259 265 251
f 251 265 266
f 251 266 252
f 170 193 267
f 170 267 244
f 268 139 207
f 203 139 268
f 262 247 269
f 247 254 269
f 188 214 270
f 188 270 246
f 271 248 263
f 271 257 248
f 272 181 217
f 272 234 181
f 218 237 273
f 250 218 273
f 274 230 190
f 274 190 234
f 254 226 275
f 226 250 275
f 276 216 238
f 276 255 216
f 277 263 264
f 277 264 278
f 278 264 279
f 264 262 279
f 259 280 265
f 281 280 259
f 260 281 259
f 233 252 282
f 233 282 258
f 283 229 202
f 245 283 202
f 284 182 224
f 207 182 284
f 176 212 285
f 176 285 240
f 280 286 265
f 265 286 287
f 265 287 266
f 288 239 215
f 256 288 215
f 289 157 101
f 289 101 213
f 290 199 223
f 290 253 199
f 291 260 243
f 261 291 243
f 196 292 241
f 196 240 292
f 237 236 293
f 293 236 230
f 294 263 277
f 294 271 263
f 295 278 296
f 296 278 297
f 295 277 278
f 278 279 297
f 279 262 298
f 262 269 298
f 273 237 293
f 280 299 286
f 299 300 286
f 286 300 301
f 286 301 287
f 302 299 280
f 281 302 280
f 241 292 245
f 303 201 147
f 303 147 222
f 304 296 305
f 305 296 306
f 304 295 296
f 296 297 306
f 193 221 307
f 193 307 267
f 293 230 274
f 308 238 257
f 308 276 238
f 309 277 295
f 309 294 277
f 252 266 310
f 252 310 282
f 214 235 311
f 214 311 270
f 312 305 300
f 300 305 313
f 299 312 300
f 300 313 301
f 312 304 305
f 305 306 313
f 269 254 314
f 254 275 314
f 297 279 315
f 279 298 315
f 316 312 299
f 302 316 299
f 317 295 304
f 317 309 295
f 318 281 260
f 291 318 260
f 319 256 229
f 283 319 229
f 292 283 245
f 250 273 320
f 275 250 320
f 321 304 312
f 316 321 312
f 322 261 239
f 288 322 239
f 321 317 304
f 266 287 323
f 266 323 310
f 324 217 253
f 324 272 217
f 325 223 255
f 325 290 223
f 306 297 326
f 297 315 326
f 327 257 271
f 327 308 257
f 212 244 328
f 212 328 285
f 235 258 329
f 235 329 311
f 330 274 234
f 330 234 272
f 287 301 331
f 287 331 323
f 313 306 332
f 306 326 332
f 298 269 333
f 269 314 333
f 334 302 281
f 318 334 281
f 221 246 335
f 221 335 307
f 301 313 336
f 301 336 331
f 313 332 336
f 337 224 201
f 284 224 337
f 338 271 294
f 338 327 271
f 240 339 292
f 240 285 339
f 273 293 340
f 340 293 274
f 320 273 340
f 341 291 261
f 322 341 261
f 337 201 303
f 342 288 256
f 319 342 256
f 343 255 276
f 343 325 255
f 344 316 302
f 334 344 302
f 314 275 345
f 275 320 345
f 346 294 309
f 346 338 294
f 258 282 347
f 258 347 329
f 292 339 283
f 340 274 330
f 315 298 348
f 298 333 348
f 244 267 349
f 244 349 328
f 339 319 283
f 350 253 290
f 350 324 253
f 351 321 316
f 344 351 316
f 352 309 317
f 352 346 309
f 246 270 353
f 246 353 335
f 354 317 321
f 351 354 321
f 354 352 317
f 326 315 355
f 315 348 355
f 282 310 356
f 282 356 347
f 357 318 291
f 341 357 291
f 358 207 284
f 268 207 358
f 359 330 272
f 359 272 324
f 360 276 308
f 360 343 276
f 361 322 288
f 342 361 288
f 285 362 339
f 285 328 362
f 333 314 363
f 314 345 363
f 364 171 172
f 365 172 203
f 364 172 365
f 320 340 366
f 345 320 366
f 367 222 157
f 367 157 289
f 368 177 171
f 368 171 364
f 332 326 369
f 326 355 369
f 310 323 370
f 310 370 356
f 267 307 371
f 267 371 349
f 366 340 330
f 339 362 319
f 362 342 319
f 270 311 372
f 270 372 353
f 373 290 325
f 373 350 290
f 374 334 318
f 357 374 318
f 375 308 327
f 375 360 308
f 336 332 376
f 332 369 376
f 323 331 377
f 323 377 370
f 366 330 359
f 331 336 378
f 336 376 378
f 331 378 377
f 379 341 322
f 361 379 322
f 348 333 380
f 333 363 380
f 328 381 362
f 328 349 381
f 382 327 338
f 382 375 327
f 383 344 334
f 374 383 334
f 384 359 324
f 384 324 350
f 311 329 385
f 311 385 372
f 307 335 386
f 307 386 371
f 362 381 342
f 381 361 342
f 345 366 387
f 363 345 387
f 388 325 343
f 388 373 325
f 389 338 346
f 389 382 338
f 387 366 359
f 390 351 344
f 383 390 344
f 365 203 391
f 391 203 268
f 355 348 392
f 348 380 392
f 393 357 341
f 379 393 341
f 394 177 368
f 394 213 177
f 395 364 365
f 396 364 395
f 396 368 364
f 395 365 397
f 397 365 391
f 398 346 352
f 398 389 346
f 329 347 399
f 329 399 385
f 387 359 384
f 400 354 351
f 390 400 351
f 349 401 381
f 349 371 401
f 402 352 354
f 402 398 352
f 400 402 354
f 335 353 403
f 335 403 386
f 381 401 361
f 401 379 361
f 404 384 350
f 404 350 373
f 405 343 360
f 405 388 343
f 369 355 406
f 355 392 406
f 363 387 407
f 380 363 407
f 347 356 408
f 347 408 399
f 409 284 337
f 358 284 409
f 410 374 357
f 393 410 357
f 376 369 411
f 369 406 411
f 407 387 384
f 412 303 222
f 412 222 367
f 413 360 375
f 413 405 360
f 356 370 414
f 356 414 408
f 371 415 401
f 371 386 415
f 353 372 416
f 353 416 403
f 407 384 404
f 378 376 417
f 376 411 417
f 401 415 379
f 415 393 379
f 380 407 418
f 392 380 418
f 419 383 374
f 410 419 374
f 420 395 397
f 421 395 420
f 421 396 395
f 422 404 373
f 422 373 388
f 370 377 423
f 370 423 414
f 424 368 396
f 424 394 368
f 397 391 425
f 420 397 426
f 426 397 425
f 391 268 427
f 425 391 427
f 377 378 428
f 378 417 428
f 377 428 423
f 429 375 382
f 429 413 375
f 418 407 404
f 372 385 430
f 372 430 416
f 431 390 383
f 419 431 383
f 386 432 415
f 386 403 432
f 406 392 433
f 392 418 433
f 415 432 393
f 432 410 393
f 434 382 389
f 434 429 382
f 418 404 422
f 435 388 405
f 435 422 388
f 436 337 303
f 409 337 436
f 436 303 412
f 427 268 358
f 437 400 390
f 431 437 390
f 438 389 398
f 438 434 389
f 385 399 439
f 385 439 430
f 440 213 394
f 440 289 213
f 411 406 441
f 406 433 441
f 442 402 400
f 437 442 400
f 443 420 426
f 444 421 420
f 444 420 443
f 433 418 422
f 403 445 432
f 403 416 445
f 446 396 421
f 446 424 396
f 426 425 447
f 443 426 448
f 448 426 447
f 449 398 402
f 449 438 398
f 442 449 402
f 432 445 410
f 445 419 410
f 425 427 450
f 447 425 450
f 451 405 413
f 451 435 405
f 433 422 435
f 399 408 452
f 399 452 439
f 417 411 453
f 411 441 453
f 445 454 419
f 454 431 419
f 441 433 435
f 408 414 455
f 408 455 452
f 416 454 445
f 416 430 454
f 456 413 429
f 456 451 413
f 428 417 457
f 417 453 457
f 414 423 458
f 414 458 455
f 441 435 451
f 423 428 459
f 428 457 459
f 423 459 458
f 460 394 424
f 460 440 394
f 461 437 431
f 454 461 431
f 427 358 462
f 450 427 462
f 463 429 434
f 463 456 429
f 464 421 444
f 464 446 421
f 465 443 448
f 466 444 443
f 466 443 465
f 453 441 451
f 430 461 454
f 430 439 461
f 448 447 467
f 465 448 468
f 468 448 467
f 447 450 469
f 467 447 469
f 453 451 456
f 470 434 438
f 470 463 434
f 471 442 437
f 461 471 437
f 457 453 456
f 439 471 461
f 439 452 471
f 472 449 442
f 471 472 442
f 473 438 449
f 473 470 438
f 472 473 449
f 457 456 463
f 459 457 463
f 452 455 472
f 452 472 471
f 462 358 409
f 474 424 446
f 474 460 424
f 455 458 473
f 455 473 472
f 459 463 470
f 458 459 470
f 475 289 440
f 475 367 289
f 476 444 466
f 476 464 444
f 458 470 473
f 450 462 477
f 469 450 477
f 478 465 468
f 479 466 465
f 479 465 478
f 468 467 480
f 478 468 481
f 481 468 480
f 467 469 482
f 480 467 482
f 483 446 464
f 483 474 446
f 484 440 460
f 484 475 440
f 485 466 479
f 485 476 466
f 462 409 486
f 477 462 486
f 482 469 487
f 469 477 487
f 488 478 481
f 489 479 478
f 489 478 488
f 481 480 490
f 480 482 491
f 490 480 491
f 492 481 490
f 488 481 492
f 486 409 436
f 493 412 367
f 493 367 475
f 494 464 476
f 494 483 464
f 495 460 474
f 495 484 460
f 491 482 496
f 482 487 496
f 477 486 497
f 487 477 497
f 498 479 489
f 498 485 479
f 492 490 499
f 490 491 500
f 499 490 500
f 501 488 492
f 502 489 488
f 502 488 501
f 503 492 499
f 501 492 503
f 504 436 412
f 486 436 504
f 504 412 493
f 505 476 485
f 505 494 476
f 506 475 484
f 506 493 475
f 497 486 504
f 507 474 483
f 507 495 474
f 491 496 508
f 500 491 508
f 487 497 509
f 496 487 509
f 510 489 502
f 510 498 489
f 503 499 511
f 499 500 512
f 511 499 512
f 513 484 495
f 513 506 484
f 514 504 493
f 514 493 506
f 497 504 514
f 515 483 494
f 515 507 483
f 516 485 498
f 516 505 485
f 517 501 503
f 518 502 501
f 518 501 517
f 509 497 514
f 519 503 511
f 517 503 519
f 496 509 520
f 508 496 520
f 500 508 521
f 512 500 521
f 522 495 507
f 522 513 495
f 523 502 518
f 523 510 502
f 524 494 505
f 524 515 494
f 525 514 506
f 525 506 513
f 509 514 525
f 520 509 525
f 511 512 526
f 519 511 527
f 527 511 526
f 528 498 510
f 528 516 498
f 508 520 529
f 521 508 529
f 512 521 530
f 526 512 530
f 531 517 519
f 532 518 517
f 532 517 531
f 533 519 527
f 531 519 533
f 534 507 515
f 534 522 507
f 535 525 513
f 535 513 522
f 520 525 535
f 529 520 535
f 536 505 516
f 536 524 505
f 521 529 537
f 530 521 537
f 538 523 518
f 538 518 532
f 539 510 523
f 539 528 510
f 527 526 540
f 533 527 541
f 541 527 540
f 542 515 524
f 542 534 515
f 526 530 543
f 540 526 543
f 544 535 522
f 544 522 534
f 529 535 544
f 537 529 544
f 545 516 528
f 545 536 516
f 546 531 533
f 547 532 531
f 547 531 546
f 548 533 541
f 546 533 548
f 530 537 549
f 543 530 549
f 550 542 524
f 550 524 536
f 551 544 534
f 551 534 542
f 537 544 551
f 549 537 551
f 552 523 538
f 552 539 523
f 553 538 532
f 553 532 547
f 541 540 554
f 540 543 555
f 554 540 555
f 548 541 556
f 556 541 554
f 557 528 539
f 557 545 528
f 543 549 558
f 555 543 558
f 559 551 542
f 559 542 550
f 560 550 536
f 560 536 545
f 549 551 559
f 558 549 559
f 561 546 548
f 562 547 546
f 562 546 561
f 563 548 556
f 561 548 563
f 564 552 538
f 564 538 553
f 565 559 550
f 565 550 560
f 566 557 539
f 566 539 552
f 554 555 567
f 556 554 568
f 568 554 567
f 558 559 565
f 569 560 545
f 569 545 557
f 555 558 570
f 567 555 570
f 571 553 547
f 571 547 562
f 563 556 572
f 572 556 568
f 570 558 565
f 573 565 560
f 573 560 569
f 570 565 573
f 574 569 557
f 574 557 566
f 575 566 552
f 575 552 564
f 567 570 576
f 576 570 573
f 577 564 553
f 577 553 571
f 568 567 578
f 578 567 576
f 572 568 579
f 579 568 578
f 580 573 569
f 580 569 574
f 576 573 580
f 581 574 566
f 581 566 575
f 578 576 582
f 582 576 580
f 583 575 564
f 583 564 577
f 579 578 584
f 584 578 582
f 585 580 574
f 585 574 581
f 582 580 585
f 586 581 575
f 586 575 583
f 584 582 587
f 587 582 585
f 588 585 581
f 588 581 586
f 587 585 588
