# 
# Wavefront OBJ file
# Created with Kaydara FBX
# 
mtllib c:\users\tjvan\onedrive\documenten\fontys\minor\nx\.mtlmodels\posterior_horn_of_medial_meniscus.r.obj

g Posterior_horn_of_Medial_meniscus_r
v -0.069192 0.434022 -0.041733
v -0.069174 0.434034 -0.041535
v -0.069208 0.434119 -0.041674
v -0.069098 0.434184 -0.041918
v -0.069179 0.434138 -0.041505
v -0.069146 0.434231 -0.041625
v -0.069015 0.434337 -0.041849
v -0.069099 0.433962 -0.041626
v -0.068956 0.433919 -0.041848
v -0.069084 0.434012 -0.041942
v -0.069020 0.434020 -0.041386
v -0.068920 0.433935 -0.041516
v -0.068985 0.434330 -0.041506
v -0.069043 0.434183 -0.041375
v -0.068816 0.434460 -0.041737
v -0.068912 0.434249 -0.042355
v -0.068916 0.433996 -0.042351
v -0.068706 0.434026 -0.041143
v -0.068720 0.434244 -0.041143
v -0.068743 0.434455 -0.042275
v -0.068605 0.434440 -0.041309
v -0.068750 0.433877 -0.041741
v -0.068720 0.433863 -0.042258
v -0.068373 0.433852 -0.041573
v -0.068562 0.433912 -0.041325
v -0.068701 0.433954 -0.043020
v -0.068451 0.433777 -0.042908
v -0.068411 0.434487 -0.042925
v -0.068664 0.434280 -0.043024
v -0.068484 0.434559 -0.042151
v -0.068405 0.434555 -0.041558
v -0.068064 0.434633 -0.041958
v -0.068467 0.433814 -0.042137
v -0.068084 0.433791 -0.041970
v -0.068078 0.434581 -0.042765
v -0.068138 0.433729 -0.042762
v -0.068213 0.434037 -0.040720
v -0.068037 0.434552 -0.040910
v -0.068230 0.434343 -0.040702
v -0.068392 0.433928 -0.043869
v -0.068129 0.433717 -0.043742
v -0.068032 0.434469 -0.043734
v -0.068324 0.434272 -0.043855
v -0.067785 0.434661 -0.041202
v -0.067809 0.433835 -0.041275
v -0.068021 0.433901 -0.040966
v -0.067468 0.434723 -0.041585
v -0.067895 0.434272 -0.044744
v -0.068000 0.433931 -0.044773
v -0.067609 0.434065 -0.040135
v -0.067614 0.434417 -0.040099
v -0.067789 0.433665 -0.043586
v -0.067746 0.433697 -0.044650
v -0.067401 0.433646 -0.044498
v -0.067749 0.433724 -0.042574
v -0.067398 0.433662 -0.043405
v -0.067551 0.433787 -0.041669
v -0.067235 0.433737 -0.042280
v -0.067646 0.434656 -0.042541
v -0.067650 0.434559 -0.043566
v -0.067198 0.434636 -0.043354
v -0.067594 0.434457 -0.044621
v -0.067212 0.434537 -0.044471
v -0.067075 0.434751 -0.040597
v -0.067380 0.434635 -0.040307
v -0.067145 0.433844 -0.040742
v -0.067390 0.433909 -0.040412
v -0.067516 0.434251 -0.045618
v -0.067635 0.433922 -0.045635
v -0.067013 0.433646 -0.044339
v -0.067407 0.433681 -0.045545
v -0.067070 0.433644 -0.045437
v -0.066869 0.433690 -0.043137
v -0.066747 0.434610 -0.044287
v -0.067075 0.434755 -0.042128
v -0.066530 0.434761 -0.042966
v -0.067431 0.433890 -0.046397
v -0.066950 0.434053 -0.039457
v -0.066936 0.434430 -0.039406
v -0.067208 0.434429 -0.045538
v -0.066843 0.434498 -0.045426
v -0.066526 0.433772 -0.041712
v -0.066881 0.433806 -0.041132
v -0.067312 0.434198 -0.046385
v -0.066305 0.434874 -0.041432
v -0.066733 0.434821 -0.040944
v -0.067238 0.433648 -0.046339
v -0.067185 0.434176 -0.046989
v -0.067288 0.433875 -0.047026
v -0.066909 0.433598 -0.046255
v -0.066414 0.433858 -0.040035
v -0.066701 0.433914 -0.039732
v -0.066310 0.434770 -0.039831
v -0.066661 0.434657 -0.039594
v -0.067014 0.434360 -0.046320
v -0.066877 0.434332 -0.046851
v -0.067127 0.433616 -0.046981
v -0.067036 0.434178 -0.047357
v -0.066970 0.433655 -0.047373
v -0.067063 0.433904 -0.047411
v -0.066798 0.433588 -0.046852
v -0.066628 0.434441 -0.046134
v -0.066702 0.433644 -0.045324
v -0.066620 0.433952 -0.047289
v -0.065664 0.434910 -0.042292
v -0.066707 0.434260 -0.047175
v -0.066495 0.433688 -0.044119
v -0.066183 0.433691 -0.045075
v -0.066639 0.433659 -0.047209
v -0.066347 0.433959 -0.038756
v -0.066320 0.434345 -0.038686
v -0.066505 0.433611 -0.046081
v -0.066094 0.433750 -0.042601
v -0.065686 0.433754 -0.043622
v -0.065723 0.433806 -0.040912
v -0.066100 0.433828 -0.040360
v -0.066218 0.434315 -0.046805
v -0.066442 0.434410 -0.046541
v -0.066357 0.434573 -0.045205
v -0.066321 0.433620 -0.046517
v -0.066015 0.434745 -0.043905
v -0.065592 0.434713 -0.044719
v -0.065930 0.434834 -0.040103
v -0.065468 0.434897 -0.040644
v -0.065935 0.433688 -0.045644
v -0.065758 0.433786 -0.039252
v -0.066077 0.433833 -0.039004
v -0.066013 0.434566 -0.038859
v -0.065656 0.434652 -0.039064
v -0.066089 0.433998 -0.046915
v -0.066126 0.433691 -0.046809
v -0.065841 0.434512 -0.046072
v -0.066088 0.434537 -0.045751
v -0.065701 0.433713 -0.045993
v -0.065355 0.433778 -0.044519
v -0.065767 0.434148 -0.038020
v -0.065788 0.433784 -0.038102
v -0.065286 0.434691 -0.045205
v -0.065504 0.433785 -0.046305
v -0.065475 0.434374 -0.038194
v -0.065461 0.434091 -0.046465
v -0.065611 0.434407 -0.046348
v -0.065197 0.433786 -0.041862
v -0.064707 0.433768 -0.042933
v -0.065428 0.433769 -0.039629
v -0.065039 0.433766 -0.040288
v -0.065529 0.433691 -0.038351
v -0.065232 0.433672 -0.038695
v -0.065031 0.434904 -0.043253
v -0.064579 0.434865 -0.044124
v -0.065110 0.433807 -0.045066
v -0.065287 0.434719 -0.039437
v -0.064829 0.434797 -0.040150
v -0.064849 0.434550 -0.045909
v -0.065046 0.434663 -0.045595
v -0.065249 0.433650 -0.037666
v -0.065050 0.433600 -0.037952
v -0.065263 0.433973 -0.037544
v -0.064920 0.433847 -0.045473
v -0.065144 0.434467 -0.038515
v -0.064828 0.434946 -0.041576
v -0.064177 0.434936 -0.042557
v -0.064713 0.434224 -0.046045
v -0.064755 0.433920 -0.045836
v -0.065015 0.434187 -0.037791
v -0.064755 0.434295 -0.038270
v -0.064943 0.433701 -0.039249
v -0.064186 0.433833 -0.044602
v -0.064374 0.433776 -0.043920
v -0.064135 0.434789 -0.045198
v -0.064329 0.434829 -0.044735
v -0.064822 0.434568 -0.039090
v -0.064369 0.434665 -0.039924
v -0.064889 0.433779 -0.037384
v -0.064875 0.433654 -0.037517
v -0.064818 0.433631 -0.038423
v -0.064537 0.433678 -0.039061
v -0.064517 0.433754 -0.041287
v -0.064046 0.433907 -0.045089
v -0.064708 0.433651 -0.037761
v -0.064550 0.433719 -0.040022
v -0.064032 0.433705 -0.040940
v -0.063980 0.434663 -0.045554
v -0.063473 0.434903 -0.043535
v -0.064688 0.433942 -0.037682
v -0.064455 0.434057 -0.038205
v -0.064477 0.433701 -0.038261
v -0.064450 0.434413 -0.038954
v -0.063995 0.434467 -0.039731
v -0.064214 0.434847 -0.041115
v -0.063551 0.434839 -0.041989
v -0.063923 0.434006 -0.045487
v -0.063958 0.433715 -0.042283
v -0.063385 0.433681 -0.043345
v -0.063881 0.434321 -0.045708
v -0.064138 0.433702 -0.039823
v -0.064182 0.433754 -0.038897
v -0.063778 0.433781 -0.039633
v -0.064146 0.434136 -0.038846
v -0.063718 0.434172 -0.039588
v -0.063767 0.434696 -0.040791
v -0.063167 0.434831 -0.044930
v -0.063320 0.434876 -0.044405
v -0.063122 0.434681 -0.041601
v -0.063285 0.433754 -0.044259
v -0.063619 0.433686 -0.040656
v -0.063049 0.433996 -0.045253
v -0.063161 0.433858 -0.044822
v -0.063449 0.433658 -0.041812
v -0.063038 0.433639 -0.041464
v -0.063427 0.434478 -0.040546
v -0.063181 0.434164 -0.040368
v -0.062995 0.434330 -0.045458
v -0.063046 0.434690 -0.045308
v -0.063266 0.433768 -0.040418
v -0.062877 0.434805 -0.042772
v -0.062236 0.434808 -0.044334
v -0.062090 0.434723 -0.043319
v -0.062262 0.434795 -0.043800
v -0.062824 0.433595 -0.042615
v -0.062424 0.433575 -0.042201
v -0.062589 0.434120 -0.041123
v -0.062803 0.434448 -0.041319
v -0.062345 0.433645 -0.044197
v -0.062057 0.433516 -0.043196
v -0.062302 0.433571 -0.043678
v -0.062248 0.433751 -0.044689
v -0.062694 0.433724 -0.041187
v -0.062073 0.434596 -0.045133
v -0.062146 0.434772 -0.044788
v -0.062451 0.434630 -0.042317
v -0.062156 0.434389 -0.042018
v -0.062070 0.434234 -0.045259
v -0.062145 0.433905 -0.045073
v -0.062101 0.433662 -0.041904
v -0.061974 0.434052 -0.041820
v -0.061492 0.434305 -0.042628
v -0.061744 0.434553 -0.042916
v -0.061463 0.433609 -0.042533
v -0.061744 0.433508 -0.042824
v -0.061353 0.433536 -0.044250
v -0.061297 0.433637 -0.044616
v -0.061319 0.433478 -0.043931
v -0.061200 0.434643 -0.044012
v -0.061152 0.434586 -0.043730
v -0.061188 0.434665 -0.044374
v -0.061211 0.433794 -0.044915
v -0.061108 0.434397 -0.044972
v -0.061135 0.434606 -0.044717
v -0.061138 0.434081 -0.045050
v -0.061196 0.433441 -0.043625
v -0.061348 0.433971 -0.042447
v -0.060781 0.433571 -0.043062
v -0.060985 0.433454 -0.043315
v -0.060793 0.434188 -0.043144
v -0.060970 0.434437 -0.043402
v -0.060701 0.433885 -0.042998
v -0.060349 0.433422 -0.044121
v -0.060369 0.433547 -0.044547
v -0.060381 0.433467 -0.044330
v -0.060303 0.433401 -0.043916
v -0.060304 0.433686 -0.044745
v -0.060216 0.433424 -0.043698
v -0.060207 0.434438 -0.044152
v -0.060196 0.434360 -0.044618
v -0.060211 0.434454 -0.044380
v -0.060179 0.434365 -0.043942
v -0.060244 0.433914 -0.044822
v -0.060206 0.434163 -0.044773
v -0.060143 0.434238 -0.043737
v -0.060087 0.434050 -0.043569
v -0.060042 0.433809 -0.043473
v -0.060086 0.433555 -0.043503
v -0.059534 0.433472 -0.044363
v -0.059530 0.433610 -0.044568
v -0.059535 0.433518 -0.044467
v -0.059523 0.433443 -0.044237
v -0.059501 0.433441 -0.044111
v -0.059510 0.433769 -0.044596
v -0.059482 0.433920 -0.044575
v -0.059441 0.433560 -0.043897
v -0.059475 0.433471 -0.044000
v -0.059430 0.434142 -0.044382
v -0.059404 0.434072 -0.044094
v -0.059417 0.434146 -0.044244
v -0.059448 0.434063 -0.044503
v -0.059402 0.433955 -0.043985
v -0.059404 0.433841 -0.043911
v -0.059413 0.433699 -0.043864
v -0.059158 0.433504 -0.044276
v -0.059169 0.433515 -0.044341
v -0.059102 0.433565 -0.044422
v -0.059152 0.433542 -0.044392
v -0.059124 0.433528 -0.044153
v -0.059137 0.433506 -0.044211
v -0.059111 0.433740 -0.044432
v -0.059124 0.433659 -0.044438
v -0.059175 0.433570 -0.044073
v -0.059081 0.433802 -0.044403
v -0.059057 0.433865 -0.044282
v -0.059060 0.433847 -0.044350
v -0.059094 0.433633 -0.044096
v -0.059066 0.433779 -0.044154
v -0.059072 0.433703 -0.044119
v -0.059119 0.433893 -0.044175
v -0.059046 0.433541 -0.044337
v -0.059043 0.433576 -0.044386
v -0.059027 0.433590 -0.044194
v -0.059021 0.433548 -0.044242
v -0.059032 0.433534 -0.044287
v -0.059004 0.433639 -0.044368
v -0.058977 0.433728 -0.044245
v -0.058970 0.433642 -0.044202
v -0.058958 0.433710 -0.044305
v -0.058968 0.433680 -0.044343
v -0.058980 0.433567 -0.044345
v -0.058969 0.433620 -0.044266
v -0.058967 0.433591 -0.044309
usemtl Posterior_horn_of_Medial_meniscus_rMaterial0
f 1 2 3
f 1 3 4
f 5 3 2
f 5 6 3
f 7 3 6
f 7 4 3
f 1 8 2
f 1 9 8
f 1 4 10
f 1 10 9
f 5 2 11
f 12 2 8
f 12 11 2
f 5 13 6
f 5 11 14
f 5 14 13
f 15 7 6
f 15 6 13
f 12 8 9
f 16 10 4
f 7 16 4
f 17 9 10
f 16 17 10
f 18 14 11
f 19 13 14
f 18 19 14
f 18 11 12
f 7 20 16
f 15 20 7
f 21 15 13
f 19 21 13
f 12 9 22
f 17 23 9
f 23 22 9
f 12 22 24
f 18 12 25
f 12 24 25
f 16 26 17
f 17 27 23
f 17 26 27
f 16 20 28
f 16 29 26
f 16 28 29
f 15 30 20
f 21 31 15
f 15 32 30
f 15 31 32
f 23 33 22
f 34 22 33
f 34 24 22
f 35 20 30
f 35 28 20
f 36 33 23
f 36 23 27
f 37 19 18
f 19 38 21
f 37 39 19
f 19 39 38
f 29 40 26
f 41 27 26
f 41 26 40
f 37 18 25
f 42 29 28
f 29 43 40
f 42 43 29
f 21 44 31
f 21 38 44
f 45 25 24
f 37 25 46
f 45 46 25
f 35 30 32
f 34 33 36
f 36 27 41
f 42 28 35
f 47 32 31
f 47 31 44
f 48 40 43
f 41 40 49
f 48 49 40
f 45 24 34
f 48 43 42
f 50 39 37
f 38 39 51
f 50 51 39
f 50 37 46
f 36 41 52
f 41 49 53
f 41 54 52
f 41 53 54
f 34 36 55
f 36 52 56
f 36 56 55
f 45 34 57
f 34 55 58
f 34 58 57
f 35 32 59
f 42 35 60
f 35 61 60
f 35 59 61
f 59 32 47
f 48 42 62
f 42 60 63
f 42 63 62
f 38 64 44
f 38 51 65
f 38 65 64
f 66 46 45
f 50 46 67
f 66 67 46
f 68 49 48
f 53 49 69
f 68 69 49
f 68 48 62
f 66 45 57
f 70 52 54
f 70 56 52
f 47 44 64
f 53 69 71
f 53 72 54
f 53 71 72
f 73 55 56
f 73 58 55
f 74 63 60
f 74 60 61
f 59 47 75
f 59 76 61
f 59 75 76
f 77 69 68
f 71 69 77
f 78 51 50
f 78 50 67
f 65 51 79
f 78 79 51
f 68 62 80
f 81 80 62
f 81 62 63
f 82 57 58
f 66 57 83
f 82 83 57
f 77 68 84
f 84 68 80
f 47 85 75
f 47 64 86
f 47 86 85
f 71 77 87
f 77 84 88
f 87 77 89
f 77 88 89
f 70 54 72
f 73 56 70
f 71 87 90
f 71 90 72
f 91 67 66
f 78 67 92
f 91 92 67
f 65 93 64
f 65 79 94
f 65 94 93
f 84 80 95
f 84 96 88
f 84 95 96
f 87 89 97
f 98 89 88
f 99 97 89
f 98 100 89
f 99 89 100
f 87 97 101
f 87 101 90
f 82 58 73
f 102 95 80
f 102 80 81
f 81 63 74
f 74 61 76
f 98 88 96
f 91 66 83
f 99 101 97
f 70 72 103
f 103 72 90
f 98 104 100
f 99 100 104
f 105 76 75
f 105 75 85
f 86 64 93
f 98 96 106
f 98 106 104
f 73 70 107
f 70 103 108
f 70 108 107
f 102 96 95
f 99 109 101
f 99 104 109
f 110 79 78
f 110 78 92
f 94 79 111
f 110 111 79
f 112 90 101
f 103 90 112
f 82 73 113
f 73 107 114
f 73 114 113
f 115 83 82
f 91 83 116
f 115 116 83
f 117 106 96
f 102 118 96
f 117 96 118
f 81 74 119
f 102 81 119
f 120 101 109
f 112 101 120
f 74 76 121
f 74 122 119
f 74 121 122
f 86 93 123
f 86 124 85
f 86 123 124
f 103 112 125
f 103 125 108
f 126 92 91
f 110 92 127
f 126 127 92
f 117 104 106
f 94 111 128
f 94 129 93
f 94 128 129
f 130 109 104
f 120 109 131
f 130 131 109
f 117 130 104
f 132 118 102
f 102 119 133
f 132 102 133
f 115 82 113
f 121 76 105
f 112 120 134
f 112 134 125
f 135 107 108
f 135 114 107
f 132 117 118
f 126 91 116
f 136 111 110
f 137 110 127
f 136 110 137
f 138 133 119
f 138 119 122
f 120 131 139
f 120 139 134
f 140 128 111
f 140 111 136
f 123 93 129
f 105 85 124
f 117 141 130
f 132 142 117
f 117 142 141
f 135 108 125
f 139 131 130
f 115 113 143
f 144 113 114
f 144 143 113
f 126 116 145
f 146 116 115
f 146 145 116
f 139 130 141
f 138 132 133
f 137 127 147
f 148 127 126
f 148 147 127
f 140 129 128
f 121 105 149
f 121 150 122
f 121 149 150
f 151 125 134
f 135 125 151
f 123 129 152
f 123 153 124
f 123 152 153
f 132 154 142
f 138 155 132
f 132 155 154
f 136 137 156
f 137 147 157
f 137 157 156
f 148 126 145
f 140 136 158
f 136 156 158
f 146 115 143
f 139 159 134
f 151 134 159
f 144 114 135
f 140 160 129
f 152 129 160
f 105 124 161
f 105 162 149
f 105 161 162
f 163 141 142
f 163 142 154
f 138 122 150
f 148 157 147
f 139 141 163
f 139 164 159
f 139 163 164
f 140 158 165
f 166 160 140
f 166 140 165
f 161 124 153
f 148 145 167
f 146 167 145
f 135 151 168
f 144 135 169
f 135 168 169
f 170 155 138
f 138 150 171
f 170 138 171
f 152 160 172
f 152 172 173
f 152 173 153
f 174 158 156
f 174 165 158
f 175 156 157
f 174 156 175
f 148 176 157
f 177 148 167
f 177 176 148
f 146 143 178
f 144 178 143
f 172 160 166
f 151 159 179
f 151 179 168
f 175 157 180
f 176 180 157
f 146 181 167
f 182 181 146
f 182 146 178
f 183 154 155
f 183 155 170
f 184 150 149
f 184 149 162
f 174 185 165
f 186 166 165
f 186 165 185
f 177 167 181
f 179 159 164
f 174 175 180
f 174 180 185
f 163 154 183
f 176 187 180
f 177 187 176
f 172 166 188
f 172 188 189
f 172 189 173
f 161 153 190
f 190 153 173
f 161 190 191
f 161 191 162
f 163 192 164
f 179 164 192
f 188 166 186
f 186 185 180
f 186 180 187
f 144 193 178
f 194 144 169
f 194 193 144
f 163 183 195
f 163 195 192
f 184 171 150
f 177 181 196
f 182 196 181
f 177 197 187
f 198 197 177
f 198 177 196
f 182 178 193
f 186 187 197
f 188 186 199
f 186 197 199
f 188 199 200
f 188 200 189
f 194 169 168
f 190 173 201
f 189 201 173
f 202 170 171
f 184 203 171
f 202 171 203
f 190 201 204
f 190 204 191
f 198 199 197
f 179 205 168
f 194 168 205
f 184 162 191
f 182 206 196
f 198 196 206
f 198 200 199
f 183 170 202
f 179 192 207
f 179 208 205
f 179 207 208
f 182 193 209
f 210 206 182
f 210 182 209
f 189 211 201
f 212 189 200
f 212 211 189
f 183 213 195
f 183 202 214
f 183 214 213
f 194 209 193
f 207 192 195
f 207 195 213
f 212 200 198
f 198 206 215
f 212 198 215
f 204 201 211
f 210 215 206
f 184 191 216
f 204 216 191
f 184 217 203
f 184 216 218
f 184 219 217
f 184 218 219
f 194 220 209
f 221 210 209
f 221 209 220
f 222 211 212
f 204 211 223
f 222 223 211
f 194 205 224
f 194 225 220
f 194 224 226
f 194 226 225
f 202 203 217
f 227 205 208
f 227 224 205
f 222 212 215
f 210 228 215
f 222 215 228
f 207 227 208
f 202 229 214
f 202 217 230
f 202 230 229
f 204 231 216
f 204 223 232
f 204 232 231
f 221 228 210
f 207 213 233
f 207 234 227
f 207 233 234
f 233 213 214
f 233 214 229
f 231 218 216
f 221 220 225
f 232 223 222
f 222 228 235
f 221 235 228
f 232 222 236
f 222 235 236
f 231 232 237
f 231 238 218
f 231 237 238
f 239 235 221
f 221 225 240
f 239 221 240
f 241 226 224
f 242 224 227
f 242 241 224
f 243 225 226
f 241 243 226
f 244 217 219
f 245 219 218
f 245 244 219
f 242 227 234
f 246 230 217
f 244 246 217
f 237 232 236
f 233 247 234
f 242 234 247
f 248 229 230
f 246 249 230
f 248 230 249
f 239 236 235
f 238 245 218
f 233 229 248
f 233 250 247
f 233 248 250
f 251 240 225
f 243 251 225
f 237 236 252
f 239 252 236
f 253 239 240
f 251 254 240
f 253 240 254
f 238 237 255
f 238 256 245
f 238 255 256
f 237 252 257
f 237 257 255
f 253 252 239
f 241 258 243
f 259 241 242
f 259 260 241
f 241 260 258
f 253 257 252
f 243 261 251
f 243 258 261
f 259 242 247
f 262 247 250
f 259 247 262
f 251 263 254
f 251 261 263
f 264 246 244
f 264 244 245
f 265 249 246
f 264 266 246
f 265 246 266
f 267 245 256
f 264 245 267
f 248 268 250
f 262 250 268
f 248 249 265
f 248 269 268
f 248 265 269
f 263 253 254
f 270 256 255
f 267 256 270
f 257 271 255
f 270 255 271
f 253 272 257
f 263 273 253
f 253 273 272
f 257 272 271
f 274 260 259
f 274 258 260
f 259 262 275
f 274 259 276
f 259 275 276
f 261 258 277
f 274 277 258
f 263 261 278
f 261 277 278
f 262 268 279
f 262 279 275
f 280 268 269
f 280 279 268
f 263 281 273
f 263 278 282
f 263 282 281
f 265 280 269
f 283 266 264
f 264 267 284
f 283 264 285
f 264 284 285
f 265 266 283
f 265 286 280
f 265 283 286
f 267 270 287
f 267 287 284
f 270 271 288
f 270 288 287
f 273 289 272
f 273 281 289
f 288 271 272
f 288 272 289
f 290 277 274
f 290 278 277
f 291 274 276
f 290 274 291
f 292 276 275
f 291 276 293
f 292 293 276
f 292 275 279
f 278 294 282
f 290 295 278
f 278 295 294
f 296 279 280
f 292 279 297
f 296 297 279
f 298 281 282
f 298 282 294
f 299 280 286
f 299 296 280
f 298 289 281
f 283 299 286
f 283 285 300
f 283 301 299
f 283 300 301
f 288 289 302
f 298 302 289
f 288 303 287
f 288 302 304
f 288 304 303
f 305 284 287
f 305 287 303
f 305 285 284
f 305 300 285
f 290 291 306
f 291 293 307
f 291 307 306
f 298 294 308
f 298 308 302
f 309 295 290
f 290 306 310
f 309 290 310
f 293 292 307
f 309 294 295
f 309 308 294
f 292 297 307
f 304 302 308
f 296 307 297
f 299 311 296
f 296 311 307
f 305 303 312
f 305 312 300
f 304 312 303
f 304 308 313
f 304 313 312
f 314 299 301
f 299 315 311
f 314 315 299
f 314 301 300
f 314 300 312
f 316 306 307
f 316 310 306
f 316 307 311
f 317 309 310
f 316 318 310
f 317 310 318
f 313 308 309
f 313 309 317
f 316 311 315
f 316 315 318
f 314 317 318
f 314 318 315
f 313 317 314
f 313 314 312
