# 
# Wavefront OBJ file
# Created with Kaydara FBX
# 
mtllib c:\users\tjvan\onedrive\documenten\fontys\minor\nx\.mtlmodels\posterior_horn_of_lateral_meniscus.r.obj

g Posterior_horn_of_Lateral_meniscus_r
v -0.080830 0.434524 -0.033153
v -0.080820 0.434710 -0.033067
v -0.080719 0.434780 -0.033425
v -0.080586 0.434507 -0.032847
v -0.080735 0.434506 -0.033445
v -0.080627 0.434166 -0.033320
v -0.080649 0.434294 -0.033002
v -0.080747 0.434877 -0.033020
v -0.080500 0.434725 -0.032770
v -0.080644 0.434997 -0.033351
v -0.080614 0.435022 -0.032983
v -0.080342 0.434790 -0.033890
v -0.080378 0.434427 -0.033877
v -0.080228 0.435101 -0.033776
v -0.080163 0.433942 -0.032895
v -0.080483 0.435152 -0.033190
v -0.080037 0.435297 -0.033550
v -0.080327 0.434080 -0.033724
v -0.080018 0.433780 -0.033557
v -0.080194 0.433846 -0.033213
v -0.080376 0.434956 -0.032788
v -0.080201 0.435177 -0.032956
v -0.080079 0.434186 -0.032664
v -0.079958 0.434489 -0.032548
v -0.079803 0.434351 -0.034462
v -0.079645 0.433889 -0.034300
v -0.079628 0.435020 -0.032703
v -0.079804 0.434790 -0.032554
v -0.079797 0.434799 -0.034441
v -0.079669 0.435164 -0.034282
v -0.079427 0.433490 -0.032764
v -0.079362 0.433378 -0.033211
v -0.079788 0.435321 -0.033271
v -0.079273 0.434085 -0.032254
v -0.079404 0.433753 -0.032426
v -0.079151 0.435393 -0.033734
v -0.079441 0.435371 -0.034021
v -0.079223 0.433416 -0.033882
v -0.079058 0.434406 -0.032255
v -0.079205 0.434397 -0.035146
v -0.079021 0.433894 -0.035047
v -0.079066 0.435253 -0.034923
v -0.079212 0.434873 -0.035093
v -0.079358 0.435173 -0.032975
v -0.078591 0.434806 -0.032732
v -0.078818 0.434640 -0.032428
v -0.078800 0.435465 -0.034681
v -0.078624 0.433202 -0.032128
v -0.078469 0.432874 -0.033009
v -0.078594 0.432981 -0.032514
v -0.078796 0.435252 -0.033446
v -0.078509 0.433512 -0.031891
v -0.078630 0.433423 -0.034764
v -0.077973 0.432931 -0.034360
v -0.078299 0.432871 -0.033597
v -0.078734 0.434553 -0.035912
v -0.078734 0.435031 -0.035835
v -0.078076 0.435321 -0.034168
v -0.078468 0.435480 -0.034418
v -0.077980 0.434033 -0.032120
v -0.078263 0.433821 -0.031887
v -0.078248 0.435619 -0.035492
v -0.078562 0.435408 -0.035685
v -0.078537 0.434030 -0.035880
v -0.078105 0.433536 -0.035713
v -0.078227 0.434915 -0.033189
v -0.077592 0.434988 -0.033938
v -0.078389 0.435227 -0.036639
v -0.078207 0.434229 -0.036755
v -0.078407 0.434757 -0.036729
v -0.077675 0.432434 -0.032187
v -0.077702 0.432866 -0.031508
v -0.077767 0.432593 -0.031790
v -0.077433 0.433060 -0.035427
v -0.077485 0.432340 -0.032673
v -0.077363 0.434263 -0.033000
v -0.077692 0.434167 -0.032511
v -0.078191 0.435593 -0.036513
v -0.077773 0.433728 -0.036685
v -0.078531 0.435846 -0.042571
v -0.078527 0.435981 -0.042537
v -0.078465 0.435950 -0.042846
v -0.078465 0.435959 -0.041998
v -0.078472 0.435707 -0.042880
v -0.078513 0.435716 -0.042604
v -0.078439 0.435603 -0.042103
v -0.078474 0.435827 -0.042869
v -0.078472 0.435773 -0.042041
v -0.078500 0.436116 -0.042511
v -0.078454 0.436078 -0.042813
v -0.078413 0.436154 -0.041977
v -0.077449 0.433158 -0.031536
v -0.078444 0.435583 -0.042850
v -0.078465 0.435583 -0.042630
v -0.078445 0.436249 -0.042497
v -0.078292 0.436328 -0.041991
v -0.077219 0.432311 -0.033228
v -0.077869 0.435622 -0.035305
v -0.078356 0.435437 -0.042638
v -0.078376 0.435459 -0.042186
v -0.078205 0.435694 -0.042970
v -0.078248 0.435558 -0.042961
v -0.078264 0.435827 -0.041065
v -0.078243 0.435550 -0.041123
v -0.078179 0.435834 -0.042951
v -0.078305 0.435454 -0.042841
v -0.077910 0.435041 -0.041314
v -0.078125 0.435284 -0.041203
v -0.078429 0.436199 -0.042761
v -0.078172 0.436112 -0.042847
v -0.078171 0.435977 -0.042908
v -0.078362 0.436293 -0.042698
v -0.078327 0.436352 -0.042528
v -0.078187 0.434975 -0.037565
v -0.077999 0.434463 -0.037623
v -0.078176 0.436091 -0.041033
v -0.078161 0.435425 -0.037480
v -0.077935 0.435766 -0.037382
v -0.078290 0.435340 -0.042275
v -0.078052 0.435148 -0.042211
v -0.077919 0.435185 -0.042638
v -0.078049 0.435186 -0.042487
v -0.078147 0.436327 -0.042616
v -0.078162 0.436228 -0.042745
v -0.078096 0.436410 -0.042053
v -0.076874 0.432342 -0.033925
v -0.077667 0.434888 -0.041447
v -0.077792 0.435258 -0.042780
v -0.077950 0.436280 -0.041041
v -0.077626 0.436329 -0.041097
v -0.077148 0.433295 -0.031845
v -0.078017 0.435252 -0.040200
v -0.078016 0.435974 -0.040081
v -0.078104 0.435625 -0.040129
v -0.077840 0.435779 -0.036378
v -0.077429 0.435759 -0.036257
v -0.077642 0.435602 -0.042823
v -0.077699 0.435416 -0.042838
v -0.078066 0.435191 -0.038404
v -0.078025 0.435616 -0.038328
v -0.077612 0.435950 -0.042674
v -0.077614 0.435788 -0.042764
v -0.077718 0.436205 -0.040072
v -0.077637 0.436106 -0.042546
v -0.077886 0.436391 -0.042136
v -0.077550 0.436294 -0.042041
v -0.077667 0.436225 -0.042397
v -0.077749 0.434883 -0.040296
v -0.078042 0.435406 -0.039259
v -0.077973 0.435808 -0.039194
v -0.077258 0.436271 -0.041193
v -0.077428 0.435443 -0.035128
v -0.077891 0.434957 -0.039335
v -0.077892 0.434705 -0.038476
v -0.077239 0.434749 -0.041856
v -0.077433 0.434778 -0.041636
v -0.077531 0.434506 -0.039407
v -0.077779 0.435928 -0.038260
v -0.077495 0.434217 -0.038527
v -0.077575 0.433957 -0.037627
v -0.077687 0.436089 -0.039153
v -0.077296 0.436238 -0.040088
v -0.077554 0.435920 -0.037295
v -0.077349 0.436044 -0.038210
v -0.077339 0.434541 -0.040423
v -0.076930 0.434321 -0.040631
v -0.077068 0.434764 -0.042083
v -0.076948 0.435549 -0.036141
v -0.076774 0.435019 -0.042394
v -0.076907 0.434849 -0.042277
v -0.076909 0.432055 -0.031463
v -0.076761 0.431923 -0.031834
v -0.076879 0.433474 -0.037580
v -0.077072 0.433254 -0.036521
v -0.076915 0.432296 -0.031177
v -0.076828 0.433347 -0.032264
v -0.077245 0.436147 -0.039145
v -0.076626 0.434223 -0.040883
v -0.076724 0.436028 -0.041614
v -0.076903 0.436147 -0.041309
v -0.076622 0.435479 -0.042319
v -0.076678 0.435246 -0.042401
v -0.076603 0.435690 -0.042159
v -0.076629 0.435867 -0.041932
v -0.076898 0.435069 -0.034947
v -0.076891 0.434350 -0.033701
v -0.076233 0.434441 -0.034769
v -0.076833 0.433726 -0.038532
v -0.077093 0.435865 -0.037226
v -0.076953 0.434059 -0.039480
v -0.076526 0.431854 -0.032264
v -0.076674 0.432551 -0.031267
v -0.075968 0.432715 -0.036299
v -0.076363 0.432486 -0.035045
v -0.076402 0.435169 -0.036030
v -0.076566 0.435625 -0.037169
v -0.075962 0.433433 -0.033446
v -0.076463 0.433384 -0.032751
v -0.076700 0.436016 -0.039152
v -0.076836 0.435947 -0.038194
v -0.076743 0.436098 -0.040073
v -0.075953 0.435728 -0.040118
v -0.076088 0.434215 -0.041498
v -0.076337 0.434185 -0.041204
v -0.076207 0.431831 -0.032807
v -0.076079 0.432686 -0.031971
v -0.076398 0.432637 -0.031583
v -0.075731 0.432957 -0.037546
v -0.075861 0.434303 -0.041736
v -0.076215 0.433679 -0.039684
v -0.075770 0.433229 -0.038634
v -0.076280 0.431684 -0.031171
v -0.076096 0.432106 -0.030999
v -0.076333 0.431875 -0.030871
v -0.075653 0.434467 -0.041903
v -0.075622 0.435525 -0.040745
v -0.075347 0.432081 -0.034863
v -0.075805 0.431889 -0.033623
v -0.076043 0.435713 -0.039196
v -0.076261 0.435681 -0.038201
v -0.075852 0.431575 -0.031972
v -0.076103 0.431603 -0.031534
v -0.075462 0.435374 -0.041233
v -0.075496 0.434734 -0.041927
v -0.075316 0.433498 -0.040424
v -0.075708 0.433531 -0.040043
v -0.075394 0.435215 -0.041562
v -0.075400 0.435006 -0.041799
v -0.076023 0.435258 -0.037132
v -0.075554 0.431609 -0.032601
v -0.075691 0.432742 -0.032470
v -0.075828 0.432204 -0.031327
v -0.075702 0.434552 -0.035942
v -0.075311 0.434684 -0.037134
v -0.074971 0.432330 -0.036222
v -0.075898 0.431614 -0.030650
v -0.074957 0.433536 -0.040738
v -0.075642 0.431429 -0.031271
v -0.075831 0.431481 -0.030919
v -0.075335 0.435202 -0.039110
v -0.075709 0.435307 -0.038201
v -0.075306 0.433562 -0.034577
v -0.075197 0.431715 -0.033506
v -0.074918 0.433008 -0.038981
v -0.075395 0.431434 -0.031776
v -0.075710 0.431828 -0.030782
v -0.075453 0.431921 -0.031123
v -0.075526 0.432291 -0.031738
v -0.075144 0.432400 -0.032305
v -0.075153 0.434834 -0.038043
v -0.075186 0.432853 -0.033251
v -0.074612 0.433074 -0.034472
v -0.074696 0.434822 -0.040132
v -0.075010 0.435024 -0.039677
v -0.075442 0.431371 -0.030740
v -0.075363 0.431627 -0.030664
v -0.075499 0.431442 -0.030527
v -0.074665 0.433629 -0.040959
v -0.075303 0.431353 -0.031101
v -0.074747 0.431906 -0.034779
v -0.074708 0.432629 -0.037646
v -0.074374 0.432948 -0.039261
v -0.074764 0.433729 -0.035902
v -0.074419 0.433986 -0.037289
v -0.074228 0.434040 -0.041153
v -0.074421 0.433790 -0.041110
v -0.074433 0.434641 -0.040502
v -0.075100 0.431497 -0.032462
v -0.075145 0.432032 -0.031590
v -0.075247 0.431381 -0.030473
v -0.075182 0.431718 -0.031000
v -0.074892 0.431846 -0.031488
v -0.075188 0.431334 -0.030646
v -0.075085 0.431378 -0.031646
v -0.074781 0.431445 -0.032331
v -0.074178 0.434305 -0.041026
v -0.074262 0.434491 -0.040797
v -0.075151 0.431493 -0.030600
v -0.074586 0.434502 -0.038553
v -0.074135 0.434229 -0.038853
v -0.075060 0.431337 -0.030990
v -0.074830 0.431367 -0.031519
v -0.075033 0.431350 -0.030591
v -0.074712 0.431616 -0.033392
v -0.074995 0.431558 -0.030932
v -0.074679 0.432574 -0.033184
v -0.074139 0.432806 -0.034437
v -0.074774 0.432177 -0.032203
v -0.074277 0.432346 -0.033112
v -0.074912 0.431389 -0.030917
v -0.073742 0.434029 -0.039106
v -0.074631 0.431433 -0.031390
v -0.074697 0.431657 -0.031403
v -0.074370 0.432160 -0.036207
v -0.074095 0.432486 -0.037744
v -0.073562 0.433003 -0.039618
v -0.073923 0.432952 -0.039469
v -0.074506 0.431984 -0.032105
v -0.074276 0.431765 -0.032027
v -0.074476 0.431436 -0.032190
v -0.074222 0.431511 -0.032045
v -0.074337 0.431571 -0.033288
v -0.074010 0.431578 -0.033183
v -0.074142 0.433317 -0.035911
v -0.073839 0.433631 -0.037431
v -0.074256 0.431817 -0.034686
v -0.073876 0.432091 -0.036182
v -0.073856 0.431786 -0.034611
v -0.073242 0.433105 -0.039742
v -0.073970 0.432148 -0.033052
v -0.073728 0.431658 -0.033065
v -0.073103 0.433784 -0.039528
v -0.073405 0.433895 -0.039321
v -0.073616 0.432434 -0.037814
v -0.073534 0.431811 -0.034530
v -0.073728 0.431921 -0.033016
v -0.073734 0.432576 -0.034400
v -0.073421 0.432373 -0.034382
v -0.073481 0.432084 -0.036131
v -0.072855 0.433649 -0.039733
v -0.072951 0.433265 -0.039833
v -0.073682 0.433067 -0.035927
v -0.073317 0.432873 -0.035933
v -0.073399 0.433423 -0.037551
v -0.073211 0.432157 -0.034371
v -0.073259 0.431905 -0.034436
v -0.073060 0.433275 -0.037635
v -0.073246 0.432465 -0.037849
v -0.073153 0.432128 -0.036070
v -0.072880 0.432240 -0.035999
v -0.072911 0.432525 -0.037851
v -0.073037 0.432700 -0.035925
v -0.072819 0.432493 -0.035932
v -0.072773 0.433131 -0.037687
v -0.072613 0.432654 -0.037824
v -0.072530 0.432942 -0.037743
usemtl Posterior_horn_of_Lateral_meniscus_rMaterial0
f 1 2 3
f 1 4 2
f 1 3 5
f 1 5 6
f 1 6 7
f 1 7 4
f 3 2 8
f 2 9 8
f 2 4 9
f 3 8 10
f 11 10 8
f 11 8 9
f 12 5 3
f 13 6 5
f 12 13 5
f 14 3 10
f 14 12 3
f 15 7 6
f 15 4 7
f 11 16 10
f 17 10 16
f 17 14 10
f 13 18 6
f 19 6 18
f 15 6 20
f 19 20 6
f 11 9 21
f 11 22 16
f 11 21 22
f 23 9 4
f 15 23 4
f 24 21 9
f 23 24 9
f 17 16 22
f 12 25 13
f 13 26 18
f 13 25 26
f 27 22 21
f 24 28 21
f 27 21 28
f 14 29 12
f 12 29 25
f 19 18 26
f 17 30 14
f 14 30 29
f 31 15 20
f 19 32 20
f 31 20 32
f 17 22 33
f 27 33 22
f 31 23 15
f 23 34 24
f 31 35 23
f 23 35 34
f 36 17 33
f 17 37 30
f 36 37 17
f 19 26 38
f 19 38 32
f 24 39 28
f 24 34 39
f 29 40 25
f 41 26 25
f 41 25 40
f 29 30 42
f 29 43 40
f 29 42 43
f 39 27 28
f 27 44 33
f 36 33 44
f 42 30 37
f 38 26 41
f 27 45 44
f 39 46 27
f 27 46 45
f 36 47 37
f 42 37 47
f 48 35 31
f 31 32 49
f 48 31 50
f 31 49 50
f 48 34 35
f 38 49 32
f 36 44 51
f 45 51 44
f 39 34 52
f 48 52 34
f 38 41 53
f 38 53 54
f 38 55 49
f 38 54 55
f 56 40 43
f 41 40 56
f 42 57 43
f 56 43 57
f 58 36 51
f 36 59 47
f 58 59 36
f 39 60 46
f 39 52 61
f 39 61 60
f 42 47 62
f 42 63 57
f 42 62 63
f 41 56 64
f 41 65 53
f 41 64 65
f 45 46 60
f 45 66 51
f 67 51 66
f 67 58 51
f 62 47 59
f 56 57 68
f 56 69 64
f 56 68 70
f 56 70 69
f 68 57 63
f 48 50 71
f 72 52 48
f 72 48 73
f 48 71 73
f 74 53 65
f 74 54 53
f 75 50 49
f 75 71 50
f 45 76 66
f 45 60 77
f 45 77 76
f 68 63 78
f 62 78 63
f 79 64 69
f 79 65 64
f 80 81 82
f 80 83 81
f 80 84 85
f 86 80 85
f 80 87 84
f 80 88 83
f 86 88 80
f 80 82 87
f 81 89 90
f 81 91 89
f 81 90 82
f 81 83 91
f 92 61 52
f 92 52 72
f 93 94 85
f 86 85 94
f 93 85 84
f 90 89 95
f 89 96 95
f 89 91 96
f 97 49 55
f 97 75 49
f 62 59 98
f 58 98 59
f 93 99 94
f 86 94 100
f 100 94 99
f 101 84 87
f 93 84 102
f 101 102 84
f 103 83 88
f 86 104 88
f 103 88 104
f 101 87 82
f 90 105 82
f 101 82 105
f 103 91 83
f 93 106 99
f 93 102 106
f 107 86 100
f 86 108 104
f 107 108 86
f 90 95 109
f 90 109 110
f 90 111 105
f 90 110 111
f 112 109 95
f 112 110 109
f 112 95 113
f 96 113 95
f 68 114 70
f 115 69 70
f 115 70 114
f 96 91 116
f 103 116 91
f 68 117 114
f 68 118 117
f 68 78 118
f 100 99 119
f 107 100 119
f 120 119 99
f 121 99 106
f 120 99 122
f 121 122 99
f 112 113 123
f 112 124 110
f 112 123 124
f 96 125 113
f 125 123 113
f 126 55 54
f 126 97 55
f 120 127 119
f 107 119 127
f 128 106 102
f 128 121 106
f 96 116 129
f 96 130 125
f 96 129 130
f 131 60 61
f 131 61 92
f 132 103 104
f 103 133 116
f 132 134 103
f 103 134 133
f 101 128 102
f 132 104 108
f 62 135 78
f 62 98 136
f 62 136 135
f 76 67 66
f 115 79 69
f 137 101 105
f 101 138 128
f 137 138 101
f 139 114 117
f 139 115 114
f 139 117 140
f 118 140 117
f 118 78 135
f 137 105 111
f 111 110 141
f 137 111 142
f 111 141 142
f 143 116 133
f 143 129 116
f 144 110 124
f 144 141 110
f 144 124 123
f 125 145 123
f 146 123 145
f 144 123 147
f 146 147 123
f 132 108 148
f 107 148 108
f 79 74 65
f 132 149 134
f 150 134 149
f 150 133 134
f 125 151 145
f 125 130 151
f 58 152 98
f 67 152 58
f 150 149 139
f 139 149 153
f 150 139 140
f 139 154 115
f 139 153 154
f 155 120 122
f 120 156 127
f 155 156 120
f 121 155 122
f 132 153 149
f 157 153 132
f 157 132 148
f 150 140 158
f 118 158 140
f 143 133 150
f 115 154 159
f 115 160 79
f 115 159 160
f 74 126 54
f 131 77 60
f 150 158 161
f 143 150 161
f 162 129 143
f 162 130 129
f 118 135 163
f 118 164 158
f 118 163 164
f 107 165 148
f 166 107 127
f 166 165 107
f 128 167 121
f 121 167 155
f 157 154 153
f 157 159 154
f 151 146 145
f 98 152 168
f 98 168 136
f 136 163 135
f 128 138 169
f 128 170 167
f 128 169 170
f 72 73 171
f 172 73 71
f 172 171 73
f 79 160 173
f 79 174 74
f 79 173 174
f 164 161 158
f 157 148 165
f 162 143 161
f 92 72 175
f 72 171 175
f 76 77 176
f 131 176 77
f 137 169 138
f 164 177 161
f 162 161 177
f 75 172 71
f 178 127 156
f 178 166 127
f 179 144 147
f 180 147 146
f 180 179 147
f 181 137 142
f 137 182 169
f 181 182 137
f 144 183 141
f 179 184 144
f 144 184 183
f 151 130 162
f 181 142 141
f 181 141 183
f 67 185 152
f 76 186 67
f 67 186 187
f 67 187 185
f 188 160 159
f 188 173 160
f 136 189 163
f 164 163 189
f 151 180 146
f 188 159 157
f 157 165 190
f 188 157 190
f 97 191 75
f 75 191 172
f 131 92 192
f 92 175 192
f 74 174 193
f 74 194 126
f 74 193 194
f 155 178 156
f 195 168 152
f 195 152 185
f 196 189 136
f 196 136 168
f 76 197 186
f 76 176 198
f 76 198 197
f 166 190 165
f 164 199 177
f 164 189 200
f 164 200 199
f 151 162 201
f 162 177 199
f 162 199 201
f 151 202 180
f 151 201 202
f 155 167 203
f 155 204 178
f 155 203 204
f 126 205 97
f 97 205 191
f 206 176 131
f 131 192 207
f 206 131 207
f 200 189 196
f 208 174 173
f 208 193 174
f 209 167 170
f 209 203 167
f 166 210 190
f 211 188 190
f 211 190 210
f 196 168 195
f 178 210 166
f 212 175 171
f 172 212 171
f 213 192 175
f 212 214 175
f 213 175 214
f 197 187 186
f 215 170 169
f 215 209 170
f 195 185 187
f 180 216 179
f 180 202 216
f 126 194 217
f 126 218 205
f 126 217 218
f 211 173 188
f 211 208 173
f 206 198 176
f 200 219 199
f 200 196 220
f 200 220 219
f 215 169 182
f 172 191 221
f 172 222 212
f 172 221 222
f 202 201 199
f 179 223 184
f 179 216 223
f 202 199 219
f 213 207 192
f 181 224 182
f 215 182 224
f 178 204 225
f 178 226 210
f 178 225 226
f 227 181 183
f 181 228 224
f 227 228 181
f 227 183 184
f 227 184 223
f 196 195 229
f 220 196 229
f 230 191 205
f 230 221 191
f 206 231 198
f 197 198 231
f 213 232 207
f 206 207 232
f 195 187 233
f 195 234 229
f 195 233 234
f 235 194 193
f 235 217 194
f 212 236 214
f 236 213 214
f 237 204 203
f 237 225 204
f 212 222 238
f 212 239 236
f 212 238 239
f 220 240 219
f 220 229 241
f 220 241 240
f 197 242 187
f 233 187 242
f 243 205 218
f 243 230 205
f 244 211 210
f 244 210 226
f 245 222 221
f 245 238 222
f 236 246 213
f 213 247 232
f 213 246 247
f 206 232 248
f 249 231 206
f 249 206 248
f 237 203 209
f 202 219 240
f 250 241 229
f 250 229 234
f 208 235 193
f 197 231 251
f 197 252 242
f 197 251 252
f 202 253 216
f 202 240 254
f 202 254 253
f 236 239 255
f 236 256 246
f 236 255 257
f 236 257 256
f 230 245 221
f 258 209 215
f 237 209 258
f 259 239 238
f 259 255 239
f 247 248 232
f 260 218 217
f 260 243 218
f 244 208 211
f 208 261 235
f 244 261 208
f 247 246 256
f 262 226 225
f 262 244 226
f 233 242 263
f 233 264 234
f 233 263 264
f 250 240 241
f 249 251 231
f 265 215 224
f 258 215 266
f 265 266 215
f 245 259 238
f 267 223 216
f 267 216 253
f 230 268 245
f 243 268 230
f 247 269 248
f 249 248 269
f 270 257 255
f 270 256 257
f 265 224 228
f 247 256 271
f 247 271 272
f 247 272 269
f 267 227 223
f 259 273 255
f 270 255 273
f 245 274 259
f 245 268 275
f 245 275 274
f 227 276 228
f 265 228 276
f 267 277 227
f 227 277 276
f 270 278 256
f 271 256 278
f 235 260 217
f 250 279 240
f 280 254 240
f 280 240 279
f 259 281 273
f 259 274 282
f 259 282 281
f 262 225 237
f 263 242 252
f 250 234 264
f 283 270 273
f 283 278 270
f 283 273 281
f 243 284 268
f 260 284 243
f 271 278 285
f 272 271 285
f 249 286 251
f 251 286 287
f 251 287 252
f 283 285 278
f 249 269 288
f 272 288 269
f 289 249 288
f 289 286 249
f 250 264 279
f 275 268 284
f 282 274 275
f 283 281 290
f 282 290 281
f 283 290 285
f 291 253 254
f 291 254 280
f 292 285 290
f 272 285 293
f 292 293 285
f 235 294 260
f 235 261 295
f 235 295 294
f 237 258 296
f 262 237 297
f 237 296 297
f 282 292 290
f 262 261 244
f 272 298 288
f 272 293 299
f 272 299 298
f 282 275 300
f 282 301 292
f 282 300 301
f 275 284 302
f 275 303 300
f 275 302 303
f 289 288 298
f 263 252 304
f 263 305 264
f 263 304 305
f 260 306 284
f 260 294 307
f 260 307 306
f 284 308 302
f 284 306 308
f 262 295 261
f 299 293 292
f 291 267 253
f 289 287 286
f 258 266 309
f 258 309 296
f 299 292 301
f 287 304 252
f 305 279 264
f 305 280 279
f 299 310 298
f 289 298 310
f 311 301 300
f 311 300 303
f 267 312 277
f 291 313 267
f 267 313 312
f 309 266 265
f 314 294 295
f 314 307 294
f 314 295 262
f 314 262 297
f 315 303 302
f 315 302 308
f 299 301 311
f 299 316 310
f 299 311 316
f 289 317 287
f 318 289 310
f 318 317 289
f 319 306 307
f 319 308 306
f 320 276 277
f 320 277 312
f 320 265 276
f 309 265 321
f 320 321 265
f 287 322 304
f 287 317 323
f 287 323 322
f 305 304 322
f 305 291 280
f 311 303 315
f 318 310 316
f 314 297 296
f 319 307 314
f 315 308 319
f 305 324 291
f 305 322 324
f 311 325 316
f 311 315 326
f 311 326 325
f 318 316 325
f 318 323 317
f 291 324 327
f 291 327 313
f 323 324 322
f 314 296 328
f 319 314 328
f 309 328 296
f 315 319 329
f 315 330 326
f 315 329 330
f 319 328 331
f 319 331 329
f 318 332 323
f 333 318 325
f 333 332 318
f 323 327 324
f 334 312 313
f 334 313 327
f 323 334 327
f 323 332 334
f 333 325 326
f 333 326 330
f 309 331 328
f 309 321 335
f 309 335 331
f 335 329 331
f 335 330 329
f 334 320 312
f 333 334 332
f 335 321 320
f 335 333 330
f 334 336 320
f 335 320 336
f 333 336 334
f 335 336 333
