# 
# Wavefront OBJ file
# Created with Kaydara FBX
# 
mtllib c:\users\tjvan\onedrive\documenten\fontys\minor\nx\.mtlmodels\posterior_meniscofemoral_ligament.r.obj

g Posterior_meniscofemoral_ligament_r
v -0.084335 0.434448 -0.046397
v -0.084241 0.434654 -0.047795
v -0.084022 0.434081 -0.047924
v -0.082222 0.435892 -0.047428
v -0.083804 0.434026 -0.046345
v -0.083114 0.434177 -0.044716
v -0.082084 0.435973 -0.046443
v -0.082129 0.435418 -0.047705
v -0.083784 0.433460 -0.048063
v -0.082028 0.434904 -0.048005
v -0.083229 0.433569 -0.046288
v -0.082361 0.433835 -0.044703
v -0.081545 0.433464 -0.044688
v -0.081478 0.434600 -0.046850
v -0.081499 0.434037 -0.043646
v -0.081350 0.436127 -0.045188
v -0.080717 0.433901 -0.043552
v -0.078823 0.437135 -0.046591
v -0.079198 0.437683 -0.046311
v -0.078416 0.436542 -0.046894
v -0.079246 0.438074 -0.045461
v -0.079933 0.434688 -0.045290
v -0.079870 0.433755 -0.043450
v -0.080308 0.436205 -0.044222
v -0.080808 0.434348 -0.041752
v -0.078062 0.436614 -0.045724
v -0.079105 0.438419 -0.044376
v -0.080063 0.434124 -0.041524
v -0.079767 0.436317 -0.043146
v -0.078788 0.438594 -0.043307
v -0.079255 0.433881 -0.041278
v -0.079093 0.436025 -0.042854
v -0.078766 0.435201 -0.043915
v -0.077481 0.436869 -0.044307
v -0.078829 0.438712 -0.042438
v -0.078364 0.435708 -0.042539
v -0.075952 0.440018 -0.044684
v -0.076383 0.440440 -0.044026
v -0.075315 0.439487 -0.044539
v -0.076727 0.440878 -0.043184
v -0.078223 0.438394 -0.042133
v -0.074625 0.438911 -0.044383
v -0.076922 0.441175 -0.042213
v -0.077258 0.441509 -0.041359
v -0.077233 0.437365 -0.042995
v -0.077566 0.438050 -0.041802
v -0.076825 0.441222 -0.040914
v -0.074914 0.439173 -0.043370
v -0.075708 0.440094 -0.041344
v -0.076355 0.440911 -0.040432
v -0.075223 0.439502 -0.042326
v -0.075124 0.444133 -0.041019
v -0.075617 0.444653 -0.040296
v -0.074658 0.443686 -0.041841
v -0.075327 0.444398 -0.039772
v -0.074092 0.443160 -0.042521
v -0.073525 0.442675 -0.043136
v -0.074338 0.443357 -0.040025
v -0.075012 0.444122 -0.039204
v -0.073125 0.442167 -0.042869
v -0.073745 0.442681 -0.040858
v -0.073911 0.447721 -0.039215
v -0.073371 0.447157 -0.039807
v -0.073731 0.447491 -0.038651
v -0.072692 0.441616 -0.042581
v -0.073219 0.442141 -0.041757
v -0.072821 0.446637 -0.040510
v -0.072810 0.446421 -0.038698
v -0.073537 0.447242 -0.038040
v -0.072192 0.446014 -0.041058
v -0.072150 0.445693 -0.039413
v -0.071588 0.445452 -0.041603
v -0.072305 0.450740 -0.037999
v -0.071814 0.450167 -0.038615
v -0.071539 0.445038 -0.040187
v -0.072179 0.450607 -0.037365
v -0.071284 0.449750 -0.037354
v -0.072042 0.450464 -0.036678
v -0.071281 0.444963 -0.041277
v -0.071283 0.449614 -0.039306
v -0.070947 0.444434 -0.040924
v -0.070685 0.448953 -0.039820
v -0.070602 0.448970 -0.038081
v -0.070960 0.453258 -0.036980
v -0.070396 0.452612 -0.037386
v -0.070101 0.448330 -0.040291
v -0.070787 0.453430 -0.036319
v -0.069994 0.448159 -0.038819
v -0.069669 0.453068 -0.036057
v -0.070601 0.453616 -0.035602
v -0.069862 0.452047 -0.037973
v -0.069757 0.447887 -0.039913
v -0.069385 0.447406 -0.039504
v -0.069270 0.451439 -0.038417
v -0.068906 0.452353 -0.036628
v -0.070427 0.455092 -0.036822
v -0.069725 0.454552 -0.037077
v -0.070230 0.455503 -0.036232
v -0.068707 0.450972 -0.038878
v -0.068282 0.451511 -0.037279
v -0.070016 0.455949 -0.035594
v -0.069097 0.455567 -0.036082
v -0.069089 0.454073 -0.037531
v -0.069423 0.455039 -0.036599
v -0.068229 0.450847 -0.038449
v -0.067711 0.450710 -0.037984
v -0.068502 0.453508 -0.037985
v -0.068244 0.455067 -0.036591
v -0.068683 0.454550 -0.037080
v -0.068063 0.453139 -0.038529
v -0.067528 0.454441 -0.037165
v -0.067562 0.453343 -0.038135
v -0.068035 0.453955 -0.037591
v -0.067020 0.453563 -0.037708
usemtl Posterior_meniscofemoral_ligament_rMaterial0
f 1 2 3
f 4 2 1
f 1 3 5
f 6 1 5
f 7 1 6
f 4 1 7
f 2 8 3
f 2 4 8
f 5 3 9
f 3 10 9
f 3 8 10
f 5 9 11
f 12 5 11
f 6 5 12
f 10 11 9
f 12 11 13
f 10 14 11
f 14 13 11
f 15 6 12
f 7 6 16
f 16 6 15
f 17 12 13
f 15 12 17
f 4 18 8
f 19 4 7
f 4 19 18
f 8 20 10
f 8 18 20
f 21 7 16
f 19 7 21
f 20 14 10
f 14 22 13
f 17 13 23
f 22 23 13
f 16 15 24
f 25 15 17
f 24 15 25
f 26 22 14
f 20 26 14
f 27 16 24
f 21 16 27
f 25 17 28
f 24 25 29
f 29 25 28
f 28 17 23
f 30 24 29
f 27 24 30
f 28 23 31
f 29 28 32
f 32 28 31
f 22 33 23
f 34 33 22
f 26 34 22
f 33 31 23
f 35 29 32
f 30 29 35
f 32 31 36
f 33 36 31
f 37 19 21
f 38 21 27
f 37 21 38
f 19 39 18
f 19 37 39
f 40 27 30
f 38 27 40
f 35 32 41
f 41 32 36
f 18 42 20
f 18 39 42
f 43 30 35
f 44 35 41
f 43 35 44
f 40 30 43
f 45 36 33
f 34 45 33
f 42 26 20
f 41 36 46
f 45 46 36
f 47 41 46
f 44 41 47
f 48 34 26
f 42 48 26
f 49 46 45
f 47 46 50
f 49 50 46
f 51 45 34
f 48 51 34
f 52 43 44
f 53 44 47
f 52 44 53
f 51 49 45
f 54 40 43
f 54 43 52
f 55 47 50
f 53 47 55
f 56 38 40
f 56 40 54
f 57 37 38
f 57 38 56
f 58 50 49
f 55 50 59
f 58 59 50
f 37 60 39
f 37 57 60
f 61 49 51
f 61 58 49
f 62 53 55
f 63 52 53
f 63 53 62
f 64 55 59
f 62 55 64
f 39 65 42
f 39 60 65
f 66 51 48
f 66 61 51
f 67 54 52
f 67 52 63
f 68 59 58
f 64 59 69
f 68 69 59
f 65 48 42
f 65 66 48
f 70 56 54
f 70 54 67
f 71 58 61
f 71 68 58
f 72 57 56
f 72 56 70
f 73 62 64
f 74 63 62
f 74 62 73
f 75 61 66
f 75 71 61
f 76 64 69
f 73 64 76
f 77 69 68
f 76 69 78
f 77 78 69
f 57 79 60
f 57 72 79
f 80 67 63
f 80 63 74
f 81 66 65
f 81 75 66
f 60 81 65
f 60 79 81
f 82 70 67
f 82 67 80
f 83 68 71
f 83 77 68
f 84 73 76
f 85 74 73
f 85 73 84
f 86 72 70
f 86 70 82
f 87 76 78
f 84 76 87
f 88 71 75
f 88 83 71
f 89 78 77
f 87 78 90
f 89 90 78
f 91 80 74
f 91 74 85
f 72 92 79
f 72 86 92
f 93 75 81
f 93 88 75
f 79 93 81
f 79 92 93
f 94 82 80
f 94 80 91
f 95 77 83
f 95 89 77
f 96 84 87
f 97 84 96
f 97 85 84
f 98 87 90
f 96 87 98
f 99 86 82
f 99 82 94
f 100 83 88
f 100 95 83
f 98 90 101
f 102 101 90
f 102 90 89
f 97 96 98
f 103 91 85
f 103 85 97
f 104 98 101
f 97 98 104
f 86 105 92
f 86 99 105
f 104 101 102
f 106 88 93
f 106 100 88
f 107 94 91
f 107 91 103
f 92 106 93
f 92 105 106
f 103 97 104
f 108 102 89
f 108 89 95
f 103 104 109
f 109 104 102
f 110 99 94
f 110 94 107
f 107 103 109
f 109 102 108
f 111 95 100
f 111 108 95
f 99 112 105
f 99 110 112
f 107 109 113
f 113 109 108
f 110 107 113
f 114 100 106
f 114 111 100
f 113 108 111
f 105 114 106
f 105 112 114
f 110 113 112
f 112 113 111
f 112 111 114
