# 
# Wavefront OBJ file
# Created with Kaydara FBX
# 
mtllib c:\users\tjvan\onedrive\documenten\fontys\minor\nx\.mtlmodels\posterior_tibial_recurrent_artery.r.obj

g Posterior_tibial_recurrent_artery_r
v -0.126587 0.400731 -0.039493
v -0.126474 0.400190 -0.037709
v -0.126610 0.400437 -0.039541
v -0.126458 0.401087 -0.041351
v -0.126480 0.400796 -0.041416
v -0.126481 0.400170 -0.039585
v -0.126345 0.399924 -0.037755
v -0.126453 0.400488 -0.037684
v -0.126418 0.400975 -0.039454
v -0.126291 0.401325 -0.041278
v -0.126351 0.400528 -0.041455
v -0.126100 0.399760 -0.037808
v -0.126234 0.400003 -0.039613
v -0.126064 0.400093 -0.035963
v -0.125934 0.399826 -0.036006
v -0.126072 0.401522 -0.043220
v -0.126092 0.401233 -0.043296
v -0.126287 0.400737 -0.037686
v -0.126050 0.400392 -0.035967
v -0.125911 0.401753 -0.043118
v -0.126148 0.401103 -0.039433
v -0.126024 0.401445 -0.041216
v -0.125695 0.399664 -0.036085
v -0.126106 0.400357 -0.041458
v -0.125964 0.400964 -0.043327
v -0.126021 0.400871 -0.037714
v -0.125895 0.400644 -0.036017
v -0.125651 0.401864 -0.043019
v -0.125805 0.399743 -0.037855
v -0.125935 0.399981 -0.039617
v -0.125849 0.401081 -0.039438
v -0.125728 0.401415 -0.041182
v -0.125411 0.399649 -0.036179
v -0.125724 0.400786 -0.043305
v -0.125810 0.400327 -0.041424
v -0.125433 0.402001 -0.045057
v -0.125450 0.401714 -0.045142
v -0.125377 0.400181 -0.034361
v -0.125243 0.399915 -0.034394
v -0.125280 0.402226 -0.044932
v -0.125378 0.400478 -0.034400
v -0.125642 0.400780 -0.036100
v -0.125725 0.400854 -0.037761
v -0.125363 0.401826 -0.042949
v -0.125326 0.401443 -0.045163
v -0.125012 0.399752 -0.034491
v -0.125538 0.399877 -0.037883
v -0.125665 0.400108 -0.039597
v -0.125032 0.402329 -0.044799
v -0.125245 0.400726 -0.034501
v -0.125602 0.400914 -0.039466
v -0.125483 0.401243 -0.041185
v -0.125158 0.399786 -0.036262
v -0.125435 0.400748 -0.043235
v -0.125542 0.400447 -0.041362
v -0.125095 0.401258 -0.045114
v -0.125358 0.400766 -0.036194
v -0.125480 0.400691 -0.037814
v -0.125122 0.401649 -0.042926
v -0.124745 0.399734 -0.034625
v -0.125372 0.400126 -0.037885
v -0.125496 0.400352 -0.039558
v -0.125013 0.400860 -0.034637
v -0.124755 0.402282 -0.044695
v -0.125473 0.400647 -0.039510
v -0.125354 0.400976 -0.041223
v -0.125004 0.400038 -0.036312
v -0.125375 0.400684 -0.041288
v -0.125176 0.400860 -0.043136
v -0.125351 0.400424 -0.037860
v -0.125119 0.400603 -0.036273
v -0.124995 0.401380 -0.042957
v -0.124544 0.402493 -0.046825
v -0.124558 0.402207 -0.046914
v -0.124818 0.401212 -0.045010
v -0.124401 0.402712 -0.046679
v -0.124514 0.399868 -0.034761
v -0.124989 0.400337 -0.036316
v -0.124577 0.400469 -0.033073
v -0.124436 0.400219 -0.033083
v -0.124601 0.400746 -0.033150
v -0.125014 0.401091 -0.043034
v -0.124746 0.400843 -0.034772
v -0.124524 0.402098 -0.044647
v -0.124441 0.401932 -0.046922
v -0.124169 0.402806 -0.046515
v -0.124214 0.400061 -0.033179
v -0.124501 0.400974 -0.033295
v -0.124570 0.401314 -0.044877
v -0.124381 0.400116 -0.034862
v -0.124515 0.400679 -0.034868
v -0.124400 0.401826 -0.044667
v -0.124223 0.401740 -0.046847
v -0.123909 0.402750 -0.046377
v -0.123973 0.400038 -0.033334
v -0.124381 0.400413 -0.034902
v -0.124303 0.401093 -0.033468
v -0.124417 0.401539 -0.044752
v -0.123963 0.401684 -0.046709
v -0.123775 0.400157 -0.033507
v -0.124061 0.401070 -0.033623
v -0.123691 0.402559 -0.046302
v -0.123810 0.400944 -0.032090
v -0.123863 0.401190 -0.032204
v -0.123655 0.400716 -0.032074
v -0.123731 0.401778 -0.046545
v -0.123407 0.402963 -0.048480
v -0.123420 0.402678 -0.048571
v -0.123277 0.403177 -0.048316
v -0.123675 0.400385 -0.033651
v -0.123840 0.400912 -0.033718
v -0.123574 0.402283 -0.046310
v -0.123800 0.401389 -0.032387
v -0.123439 0.400567 -0.032161
v -0.123313 0.402398 -0.048564
v -0.123588 0.401998 -0.046399
v -0.123065 0.403263 -0.048123
v -0.123699 0.400661 -0.033729
v -0.123637 0.401486 -0.032588
v -0.123220 0.400536 -0.032328
v -0.123114 0.402199 -0.048461
v -0.122827 0.403198 -0.047952
v -0.123418 0.401455 -0.032755
v -0.123057 0.400633 -0.032529
v -0.122877 0.402134 -0.048290
v -0.122629 0.402999 -0.047849
v -0.123063 0.401596 -0.031352
v -0.123145 0.401805 -0.031493
v -0.123202 0.401306 -0.032842
v -0.122894 0.401395 -0.031315
v -0.123117 0.401966 -0.031702
v -0.122994 0.400832 -0.032712
v -0.122665 0.402220 -0.048097
v -0.123047 0.401078 -0.032826
v -0.122522 0.402719 -0.047842
v -0.122682 0.401256 -0.031394
v -0.122987 0.402036 -0.031922
v -0.122535 0.402434 -0.047933
v -0.122485 0.401215 -0.031567
v -0.122789 0.401996 -0.032095
v -0.122024 0.403378 -0.049981
v -0.122037 0.403092 -0.050071
v -0.121908 0.403588 -0.049802
v -0.121946 0.402808 -0.050048
v -0.121721 0.403666 -0.049581
v -0.122355 0.401285 -0.031787
v -0.122578 0.401856 -0.032174
v -0.122432 0.402577 -0.030958
v -0.122330 0.402404 -0.030803
v -0.122431 0.402703 -0.031178
v -0.121773 0.402601 -0.049917
v -0.122327 0.401446 -0.031996
v -0.122409 0.401655 -0.032138
v -0.122151 0.402230 -0.030755
v -0.121514 0.403592 -0.049378
v -0.122326 0.402747 -0.031405
v -0.121944 0.402101 -0.030827
v -0.121565 0.402527 -0.049714
v -0.121341 0.403385 -0.049247
v -0.122146 0.402699 -0.031578
v -0.121765 0.402053 -0.031000
v -0.121379 0.402606 -0.049493
v -0.121249 0.403101 -0.049224
v -0.121940 0.402571 -0.031650
v -0.121263 0.402816 -0.049314
v -0.121660 0.402098 -0.031226
v -0.121710 0.403497 -0.030539
v -0.121597 0.403351 -0.030381
v -0.121724 0.403596 -0.030759
v -0.121761 0.402397 -0.031602
v -0.121659 0.402223 -0.031447
v -0.121416 0.403199 -0.030328
v -0.121636 0.403624 -0.030983
v -0.121215 0.403081 -0.030395
v -0.121469 0.403572 -0.031151
v -0.120397 0.403703 -0.051284
v -0.120413 0.403417 -0.051372
v -0.120298 0.403909 -0.051091
v -0.121048 0.403029 -0.030563
v -0.121268 0.403454 -0.031217
v -0.120343 0.403128 -0.051331
v -0.120142 0.403982 -0.050845
v -0.120960 0.403057 -0.030787
v -0.121087 0.403302 -0.031165
v -0.120204 0.402915 -0.051174
v -0.120963 0.404555 -0.030175
v -0.120984 0.404640 -0.030389
v -0.119972 0.403900 -0.050613
v -0.120848 0.404428 -0.030021
v -0.120974 0.403156 -0.031007
v -0.120905 0.404659 -0.030605
v -0.120669 0.404291 -0.029968
v -0.120034 0.402834 -0.050941
v -0.119833 0.403687 -0.050455
v -0.120747 0.404608 -0.030766
v -0.120475 0.404183 -0.030030
v -0.119878 0.402906 -0.050695
v -0.119763 0.403399 -0.050415
v -0.119779 0.403113 -0.050503
v -0.120553 0.404500 -0.030828
v -0.120317 0.404132 -0.030190
v -0.120374 0.404364 -0.030774
v -0.120238 0.404151 -0.030406
v -0.120259 0.404236 -0.030620
v -0.120175 0.405746 -0.029809
v -0.120196 0.405825 -0.030013
v -0.120064 0.405628 -0.029662
v -0.120121 0.405843 -0.030218
v -0.119892 0.405502 -0.029610
v -0.119969 0.405796 -0.030370
v -0.119705 0.405402 -0.029668
v -0.119783 0.405697 -0.030428
v -0.119554 0.405355 -0.029820
v -0.118530 0.403902 -0.052341
v -0.118552 0.403616 -0.052426
v -0.118449 0.404107 -0.052139
v -0.119610 0.405571 -0.030376
v -0.118509 0.403325 -0.052371
v -0.119478 0.405373 -0.030025
v -0.118330 0.404176 -0.051872
v -0.119499 0.405452 -0.030229
v -0.118412 0.403107 -0.052190
v -0.119330 0.407061 -0.029382
v -0.119347 0.407140 -0.029573
v -0.119227 0.406946 -0.029243
v -0.118206 0.404089 -0.051614
v -0.119273 0.407163 -0.029766
v -0.119064 0.406826 -0.029194
v -0.118287 0.403021 -0.051931
v -0.118109 0.403872 -0.051433
v -0.119126 0.407123 -0.029909
v -0.118885 0.406734 -0.029248
v -0.118168 0.403089 -0.051665
v -0.118065 0.403581 -0.051377
v -0.118087 0.403294 -0.051462
v -0.118948 0.407030 -0.029963
v -0.118739 0.406694 -0.029390
v -0.118785 0.406911 -0.029914
v -0.118664 0.406717 -0.029583
v -0.118681 0.406796 -0.029775
v -0.118413 0.408492 -0.028835
v -0.118424 0.408576 -0.029012
v -0.118319 0.408377 -0.028706
v -0.118348 0.408605 -0.029191
v -0.118167 0.408262 -0.028661
v -0.118207 0.408573 -0.029324
v -0.117997 0.408176 -0.028711
v -0.118037 0.408487 -0.029374
v -0.117855 0.408144 -0.028843
v -0.117885 0.408372 -0.029329
v -0.117780 0.408173 -0.029022
v -0.117790 0.408257 -0.029200
v -0.116456 0.403942 -0.053101
v -0.116483 0.403655 -0.053184
v -0.116389 0.404146 -0.052892
v -0.116463 0.403363 -0.053119
v -0.116302 0.404214 -0.052614
v -0.117408 0.410033 -0.028109
v -0.117412 0.410122 -0.028272
v -0.116403 0.403145 -0.052924
v -0.117325 0.409917 -0.027992
v -0.117335 0.410159 -0.028436
v -0.116217 0.404127 -0.052340
v -0.117184 0.409804 -0.027951
v -0.116318 0.403057 -0.052650
v -0.116156 0.403908 -0.052145
v -0.117198 0.410135 -0.028558
v -0.116230 0.403125 -0.052372
v -0.117024 0.409724 -0.027998
v -0.116137 0.403616 -0.052080
v -0.116164 0.403329 -0.052163
v -0.117037 0.410055 -0.028605
v -0.116886 0.409700 -0.028120
v -0.116896 0.409942 -0.028564
v -0.116809 0.409737 -0.028284
v -0.116813 0.409826 -0.028447
v -0.116301 0.411675 -0.027148
v -0.116228 0.411557 -0.027043
v -0.116297 0.411768 -0.027294
v -0.116099 0.411446 -0.027007
v -0.116219 0.411813 -0.027442
v -0.116086 0.411796 -0.027553
v -0.115948 0.411372 -0.027051
v -0.115935 0.411722 -0.027597
v -0.115815 0.411355 -0.027161
v -0.115737 0.411399 -0.027310
v -0.115806 0.411611 -0.027561
v -0.115733 0.411493 -0.027456
v -0.111758 0.403535 -0.054440
v -0.111730 0.403829 -0.054356
v -0.111748 0.403236 -0.054371
v -0.111670 0.404039 -0.054139
v -0.111703 0.403012 -0.054166
v -0.111596 0.404108 -0.053849
v -0.111634 0.402923 -0.053880
v -0.111527 0.404019 -0.053564
v -0.115076 0.413407 -0.025892
v -0.115014 0.413289 -0.025800
v -0.115066 0.413505 -0.026021
v -0.111560 0.402992 -0.053591
v -0.111482 0.403795 -0.053359
v -0.114897 0.413181 -0.025770
v -0.114986 0.413556 -0.026153
v -0.111500 0.403202 -0.053374
v -0.111472 0.403496 -0.053290
v -0.114755 0.413113 -0.025810
v -0.114858 0.413546 -0.026252
v -0.114626 0.413103 -0.025909
v -0.114716 0.413478 -0.026291
v -0.114546 0.413154 -0.026041
v -0.114598 0.413371 -0.026261
v -0.114536 0.413252 -0.026170
v -0.114503 0.414200 -0.025172
v -0.114448 0.414074 -0.025089
v -0.114485 0.414308 -0.025290
v -0.114334 0.413963 -0.025062
v -0.114398 0.414369 -0.025411
v -0.114191 0.413898 -0.025100
v -0.114265 0.414367 -0.025503
v -0.114058 0.413895 -0.025191
v -0.114123 0.414302 -0.025540
v -0.113971 0.413956 -0.025313
v -0.114008 0.414191 -0.025514
v -0.113953 0.414065 -0.025431
v -0.114019 0.414851 -0.024414
v -0.113970 0.414717 -0.024341
v -0.113993 0.414969 -0.024519
v -0.113859 0.414604 -0.024319
v -0.113898 0.415040 -0.024627
v -0.113716 0.414541 -0.024353
v -0.113761 0.415046 -0.024709
v -0.113578 0.414546 -0.024435
v -0.113618 0.414983 -0.024744
v -0.113484 0.414618 -0.024543
v -0.113611 0.415377 -0.023624
v -0.113568 0.415237 -0.023562
v -0.113507 0.414870 -0.024721
v -0.113578 0.415504 -0.023714
v -0.113458 0.414736 -0.024648
v -0.113460 0.415122 -0.023544
v -0.113477 0.415584 -0.023808
v -0.113316 0.415062 -0.023576
v -0.113336 0.415596 -0.023880
v -0.113175 0.415073 -0.023648
v -0.113192 0.415536 -0.023911
v -0.113231 0.415651 -0.022758
v -0.113269 0.415796 -0.022809
v -0.113074 0.415153 -0.023742
v -0.113125 0.415534 -0.022745
v -0.113230 0.415929 -0.022884
v -0.113084 0.415420 -0.023894
v -0.113041 0.415280 -0.023831
v -0.113124 0.416016 -0.022963
v -0.112981 0.415476 -0.022774
v -0.112979 0.416032 -0.023025
v -0.112837 0.415492 -0.022836
v -0.112946 0.415973 -0.021935
v -0.112980 0.416121 -0.021974
v -0.112843 0.415855 -0.021927
v -0.112937 0.416259 -0.022035
v -0.112835 0.415974 -0.023053
v -0.112731 0.415578 -0.022915
v -0.112699 0.415798 -0.021953
v -0.112827 0.416350 -0.022101
v -0.112730 0.415857 -0.023040
v -0.112692 0.415712 -0.022990
v -0.112553 0.415818 -0.022006
v -0.112681 0.416370 -0.022154
v -0.112704 0.416219 -0.021099
v -0.112735 0.416369 -0.021128
v -0.112603 0.416101 -0.021095
v -0.112688 0.416510 -0.021177
v -0.112443 0.415909 -0.022071
v -0.112459 0.416045 -0.021119
v -0.112537 0.416313 -0.022180
v -0.112576 0.416604 -0.021231
v -0.112399 0.416047 -0.022132
v -0.112434 0.416195 -0.022172
v -0.112493 0.416404 -0.020256
v -0.112522 0.416555 -0.020278
v -0.112312 0.416066 -0.021164
v -0.112393 0.416285 -0.020257
v -0.112428 0.416625 -0.021276
v -0.112473 0.416697 -0.020316
v -0.112251 0.416230 -0.020280
v -0.112359 0.416792 -0.020361
v -0.112199 0.416160 -0.021218
v -0.112285 0.416569 -0.021300
v -0.112302 0.416542 -0.019414
v -0.112330 0.416693 -0.019430
v -0.112205 0.416424 -0.019419
v -0.112280 0.416835 -0.019462
v -0.112103 0.416253 -0.020319
v -0.112153 0.416301 -0.021267
v -0.112184 0.416451 -0.021297
v -0.112211 0.416815 -0.020401
v -0.112063 0.416369 -0.019442
v -0.112165 0.416930 -0.019500
v -0.112122 0.416649 -0.018581
v -0.112148 0.416799 -0.018593
v -0.111989 0.416348 -0.020364
v -0.112025 0.416531 -0.018588
v -0.112068 0.416759 -0.020424
v -0.112098 0.416940 -0.018620
v -0.111915 0.416392 -0.019477
v -0.111940 0.416490 -0.020403
v -0.111885 0.416476 -0.018612
v -0.112018 0.416954 -0.019536
v -0.111969 0.416640 -0.020425
v -0.111984 0.417035 -0.018656
v -0.111940 0.416739 -0.017763
v -0.111966 0.416888 -0.017773
v -0.111845 0.416621 -0.017772
v -0.111801 0.416487 -0.019516
v -0.111916 0.417029 -0.017800
v -0.111738 0.416499 -0.018646
v -0.111876 0.416898 -0.019559
v -0.111706 0.416566 -0.017798
v -0.111837 0.417059 -0.018691
v -0.111751 0.416629 -0.019548
v -0.111803 0.417123 -0.017837
v -0.111778 0.416780 -0.019563
v -0.111746 0.416828 -0.016968
v -0.111772 0.416976 -0.016979
v -0.111652 0.416711 -0.016978
v -0.111624 0.416594 -0.018682
v -0.111723 0.417115 -0.017009
v -0.111560 0.416589 -0.017834
v -0.111696 0.417004 -0.018715
v -0.111515 0.416656 -0.017008
v -0.111657 0.417146 -0.017873
v -0.111573 0.416736 -0.018710
v -0.111612 0.417208 -0.017050
v -0.111600 0.416886 -0.018722
v -0.111530 0.416931 -0.016209
v -0.111556 0.417078 -0.016222
v -0.107743 0.403435 -0.055407
v -0.107733 0.403128 -0.055335
v -0.107717 0.403736 -0.055319
v -0.107663 0.403951 -0.055096
v -0.111447 0.416684 -0.017871
v -0.111436 0.416815 -0.016220
v -0.111508 0.417215 -0.016256
v -0.107691 0.402899 -0.055124
v -0.111371 0.416678 -0.017048
v -0.111518 0.417091 -0.017899
v -0.107595 0.404022 -0.054797
v -0.111301 0.416760 -0.016253
v -0.111469 0.417230 -0.017090
v -0.107628 0.402807 -0.054830
v -0.111397 0.416824 -0.017898
v -0.111400 0.417307 -0.016302
v -0.107532 0.403931 -0.054502
v -0.111423 0.416973 -0.017908
v -0.107560 0.402879 -0.054531
v -0.111260 0.416772 -0.017089
v -0.111092 0.417141 -0.014840
v -0.111118 0.417285 -0.014852
v -0.107506 0.403094 -0.054308
v -0.107490 0.403702 -0.054291
v -0.111160 0.416781 -0.016298
v -0.111001 0.417027 -0.014852
v -0.111331 0.417176 -0.017119
v -0.111072 0.417420 -0.014887
v -0.107480 0.403395 -0.054220
v -0.111259 0.417329 -0.016347
v -0.111211 0.416911 -0.017118
v -0.110869 0.416973 -0.014887
v -0.111237 0.417059 -0.017130
v -0.110965 0.417510 -0.014935
v -0.111051 0.416873 -0.016344
v -0.111123 0.417274 -0.016379
v -0.110731 0.416993 -0.014934
v -0.111004 0.417011 -0.016378
v -0.110828 0.417530 -0.014982
v -0.111030 0.417157 -0.016391
v -0.110625 0.417083 -0.014982
v -0.110696 0.417476 -0.015017
v -0.110715 0.417305 -0.013712
v -0.110740 0.417446 -0.013723
v -0.110626 0.417192 -0.013727
v -0.110694 0.417578 -0.013757
v -0.110579 0.417218 -0.015016
v -0.110605 0.417362 -0.015029
v -0.110498 0.417139 -0.013763
v -0.110591 0.417666 -0.013804
v -0.110364 0.417158 -0.013811
v -0.110456 0.417686 -0.013852
v -0.110260 0.417246 -0.013859
v -0.110387 0.417428 -0.012788
v -0.110410 0.417567 -0.012796
v -0.110301 0.417317 -0.012805
v -0.110328 0.417633 -0.013888
v -0.110365 0.417697 -0.012829
v -0.110214 0.417379 -0.013892
v -0.110176 0.417264 -0.012844
v -0.110239 0.417520 -0.013903
v -0.110264 0.417783 -0.012876
v -0.110045 0.417284 -0.012894
v -0.110133 0.417802 -0.012926
v -0.110095 0.417518 -0.012033
v -0.110118 0.417655 -0.012038
v -0.110013 0.417409 -0.012054
v -0.109944 0.417370 -0.012942
v -0.110073 0.417782 -0.012069
v -0.110008 0.417749 -0.012965
v -0.109892 0.417356 -0.012097
v -0.109899 0.417500 -0.012974
v -0.109975 0.417866 -0.012118
v -0.109923 0.417639 -0.012983
v -0.109765 0.417375 -0.012149
v -0.109848 0.417884 -0.012170
v -0.109830 0.417580 -0.011412
v -0.109850 0.417714 -0.011415
v -0.109751 0.417473 -0.011438
v -0.109806 0.417839 -0.011445
v -0.109667 0.417459 -0.012198
v -0.109635 0.417421 -0.011486
v -0.109727 0.417832 -0.012213
v -0.109711 0.417921 -0.011495
v -0.109622 0.417586 -0.012229
v -0.109644 0.417723 -0.012234
v -0.109513 0.417438 -0.011542
v -0.109578 0.417620 -0.010893
v -0.109596 0.417752 -0.010892
v -0.109588 0.417939 -0.011551
v -0.109504 0.417515 -0.010925
v -0.109554 0.417874 -0.010922
v -0.109417 0.417521 -0.011592
v -0.109393 0.417463 -0.010977
v -0.109472 0.417887 -0.011598
v -0.109461 0.417955 -0.010973
v -0.109373 0.417645 -0.011622
v -0.109276 0.417480 -0.011038
v -0.109394 0.417780 -0.011624
v -0.109330 0.417645 -0.010443
v -0.109347 0.417774 -0.010439
v -0.109344 0.417971 -0.011033
v -0.109260 0.417541 -0.010479
v -0.109305 0.417894 -0.010468
v -0.109184 0.417561 -0.011089
v -0.109155 0.417491 -0.010536
v -0.109233 0.417920 -0.011086
v -0.109216 0.417972 -0.010521
v -0.109141 0.417683 -0.011118
v -0.109043 0.417507 -0.010601
v -0.109159 0.417815 -0.011117
v -0.109076 0.417660 -0.010029
v -0.109090 0.417786 -0.010023
v -0.109104 0.417988 -0.010586
v -0.109009 0.417558 -0.010067
v -0.109050 0.417903 -0.010051
v -0.108954 0.417585 -0.010654
v -0.108909 0.417509 -0.010128
v -0.108999 0.417938 -0.010643
v -0.108964 0.417980 -0.010107
v -0.108913 0.417705 -0.010683
v -0.108802 0.417525 -0.010196
v -0.108929 0.417834 -0.010679
v -0.108857 0.417996 -0.010174
v -0.108804 0.417672 -0.009618
v -0.108818 0.417795 -0.009612
v -0.108740 0.417572 -0.009657
v -0.108717 0.417601 -0.010251
v -0.108779 0.417910 -0.009640
v -0.108644 0.417524 -0.009719
v -0.108757 0.417946 -0.010235
v -0.108697 0.417985 -0.009696
v -0.108676 0.417718 -0.010279
v -0.108691 0.417845 -0.010274
v -0.108540 0.417539 -0.009787
v -0.108593 0.418000 -0.009764
v -0.108504 0.417686 -0.009176
v -0.108519 0.417807 -0.009171
v -0.108458 0.417614 -0.009843
v -0.108442 0.417589 -0.009214
v -0.108481 0.417919 -0.009200
v -0.108497 0.417951 -0.009826
v -0.108347 0.417541 -0.009275
v -0.108419 0.417729 -0.009872
v -0.108433 0.417852 -0.009866
v -0.108401 0.417992 -0.009255
v -0.108247 0.417556 -0.009342
v -0.108301 0.418007 -0.009322
v -0.108167 0.417630 -0.009397
v -0.108166 0.417709 -0.008670
v -0.108181 0.417827 -0.008666
v -0.108103 0.417614 -0.008705
v -0.108206 0.417959 -0.009383
v -0.108144 0.417937 -0.008695
v -0.108129 0.417742 -0.009426
v -0.108010 0.417568 -0.008763
v -0.108144 0.417862 -0.009421
v -0.108066 0.418008 -0.008749
v -0.107911 0.417583 -0.008827
v -0.107967 0.418023 -0.008813
v -0.107833 0.417654 -0.008881
v -0.107874 0.417976 -0.008871
v -0.107774 0.417748 -0.008061
v -0.107787 0.417863 -0.008055
v -0.107797 0.417764 -0.008910
v -0.107715 0.417655 -0.008098
v -0.107812 0.417882 -0.008907
v -0.107750 0.417970 -0.008081
v -0.107625 0.417610 -0.008156
v -0.107673 0.418040 -0.008133
v -0.107529 0.417624 -0.008219
v -0.107577 0.418054 -0.008196
v -0.107452 0.417694 -0.008271
v -0.107487 0.418009 -0.008254
v -0.107415 0.417801 -0.008297
v -0.107428 0.417916 -0.008291
v -0.107065 0.417729 -0.007031
v -0.107071 0.417838 -0.007015
v -0.107016 0.417642 -0.007075
v -0.104296 0.403380 -0.056137
v -0.104277 0.403689 -0.056045
v -0.107032 0.417938 -0.007033
v -0.104284 0.403066 -0.056064
v -0.104232 0.403909 -0.055815
v -0.106937 0.417600 -0.007137
v -0.104243 0.402831 -0.055847
v -0.106958 0.418004 -0.007080
v -0.104172 0.403982 -0.055506
v -0.104186 0.402738 -0.055544
v -0.106848 0.417614 -0.007200
v -0.104115 0.403889 -0.055203
v -0.106869 0.418017 -0.007143
v -0.104126 0.402811 -0.055236
v -0.104074 0.403654 -0.054987
v -0.106774 0.417680 -0.007247
v -0.104081 0.403032 -0.055006
v -0.104062 0.403340 -0.054914
v -0.106790 0.417975 -0.007205
v -0.106735 0.417780 -0.007265
v -0.106741 0.417888 -0.007250
v -0.106275 0.417544 -0.006036
v -0.106237 0.417464 -0.006088
v -0.106273 0.417643 -0.006011
v -0.106231 0.417737 -0.006022
v -0.106168 0.417426 -0.006154
v -0.106160 0.417798 -0.006064
v -0.106088 0.417439 -0.006217
v -0.106080 0.417811 -0.006127
v -0.106018 0.417501 -0.006259
v -0.106012 0.417773 -0.006193
v -0.105976 0.417594 -0.006270
v -0.105973 0.417694 -0.006246
v -0.105421 0.417224 -0.005081
v -0.105391 0.417152 -0.005137
v -0.105413 0.417316 -0.005052
v -0.105332 0.417118 -0.005205
v -0.105370 0.417401 -0.005058
v -0.105260 0.417132 -0.005266
v -0.105304 0.417458 -0.005096
v -0.105193 0.417189 -0.005305
v -0.105231 0.417472 -0.005158
v -0.105151 0.417275 -0.005311
v -0.105172 0.417438 -0.005226
v -0.105143 0.417366 -0.005281
v -0.104521 0.416806 -0.004171
v -0.104498 0.416741 -0.004227
v -0.104510 0.416888 -0.004140
v -0.104447 0.416711 -0.004294
v -0.104468 0.416967 -0.004142
v -0.104382 0.416724 -0.004353
v -0.104405 0.417020 -0.004178
v -0.104320 0.416777 -0.004389
v -0.104340 0.417033 -0.004237
v -0.104277 0.416856 -0.004392
v -0.104289 0.417004 -0.004304
v -0.104266 0.416939 -0.004361
v -0.103593 0.416321 -0.003308
v -0.103575 0.416262 -0.003363
v -0.103580 0.416396 -0.003277
v -0.103530 0.416236 -0.003428
v -0.103540 0.416468 -0.003278
v -0.103471 0.416249 -0.003484
v -0.103482 0.416517 -0.003312
v -0.103414 0.416299 -0.003517
v -0.103424 0.416530 -0.003368
v -0.103374 0.416370 -0.003518
v -0.101299 0.403398 -0.056678
v -0.101279 0.403077 -0.056605
v -0.101291 0.403714 -0.056583
v -0.101259 0.403939 -0.056344
v -0.103361 0.416446 -0.003487
v -0.103379 0.416504 -0.003432
v -0.101237 0.402837 -0.056383
v -0.101209 0.404014 -0.056027
v -0.101185 0.402741 -0.056072
v -0.101157 0.403919 -0.055715
v -0.101136 0.402816 -0.055755
v -0.101116 0.403678 -0.055493
v -0.101103 0.403042 -0.055516
v -0.101096 0.403357 -0.055421
v -0.102639 0.415751 -0.002549
v -0.102654 0.415804 -0.002497
v -0.102600 0.415728 -0.002610
v -0.102641 0.415872 -0.002467
v -0.102603 0.415938 -0.002468
v -0.102547 0.415741 -0.002663
v -0.102551 0.415983 -0.002499
v -0.102495 0.415787 -0.002694
v -0.102458 0.415853 -0.002695
v -0.102499 0.415996 -0.002552
v -0.102445 0.415921 -0.002665
v -0.102460 0.415974 -0.002613
v -0.101709 0.415242 -0.001789
v -0.101721 0.415289 -0.001741
v -0.101674 0.415221 -0.001846
v -0.101709 0.415351 -0.001714
v -0.101628 0.415234 -0.001895
v -0.101675 0.415411 -0.001715
v -0.101582 0.415276 -0.001924
v -0.101629 0.415453 -0.001744
v -0.101548 0.415336 -0.001925
v -0.101582 0.415466 -0.001793
v -0.101535 0.415398 -0.001898
v -0.101548 0.415445 -0.001849
v -0.100802 0.414767 -0.001087
v -0.100813 0.414810 -0.001044
v -0.100771 0.414749 -0.001138
v -0.100803 0.414866 -0.001019
v -0.100731 0.414761 -0.001184
v -0.100773 0.414921 -0.001021
v -0.100690 0.414799 -0.001211
v -0.100733 0.414959 -0.001048
v -0.100661 0.414854 -0.001213
v -0.100692 0.414971 -0.001094
v -0.100650 0.414911 -0.001189
v -0.100662 0.414953 -0.001145
v -0.098643 0.403838 -0.056979
v -0.098633 0.403516 -0.057079
v -0.098627 0.404068 -0.056732
v -0.098600 0.403188 -0.057007
v -0.098589 0.404144 -0.056406
v -0.098553 0.402942 -0.056780
v -0.098540 0.404046 -0.056087
v -0.098504 0.402844 -0.056461
v -0.098492 0.403800 -0.055860
v -0.098466 0.402921 -0.056135
v -0.098459 0.403472 -0.055788
v -0.098450 0.403150 -0.055888
v -0.099935 0.414361 -0.000446
v -0.099908 0.414345 -0.000492
v -0.099946 0.414400 -0.000408
v -0.099939 0.414451 -0.000388
v -0.099873 0.414356 -0.000534
v -0.099915 0.414501 -0.000391
v -0.099839 0.414392 -0.000559
v -0.099880 0.414536 -0.000417
v -0.099815 0.414441 -0.000562
v -0.099845 0.414547 -0.000458
v -0.099807 0.414493 -0.000542
v -0.099818 0.414531 -0.000504
v -0.099126 0.414058 0.000129
v -0.099102 0.414044 0.000089
v -0.099138 0.414093 0.000161
v -0.099134 0.414139 0.000177
v -0.099072 0.414055 0.000052
v -0.099117 0.414184 0.000171
v -0.099045 0.414087 0.000028
v -0.099089 0.414216 0.000147
v -0.099027 0.414132 0.000022
v -0.099059 0.414226 0.000110
v -0.099024 0.414178 0.000038
v -0.099035 0.414212 0.000070
v -0.098392 0.413893 0.000636
v -0.098370 0.413881 0.000603
v -0.098405 0.413924 0.000661
v -0.098407 0.413965 0.000671
v -0.098397 0.414005 0.000663
v -0.098346 0.413890 0.000570
v -0.098377 0.414033 0.000640
v -0.098326 0.413919 0.000546
v -0.098353 0.414042 0.000607
v -0.098315 0.413958 0.000538
v -0.098317 0.413999 0.000548
v -0.098331 0.414030 0.000573
v -0.096216 0.404087 -0.057282
v -0.096184 0.403760 -0.057388
v -0.096218 0.404320 -0.057028
v -0.096190 0.404397 -0.056693
v -0.096131 0.403426 -0.057316
v -0.096140 0.404296 -0.056366
v -0.096072 0.403176 -0.057086
v -0.096081 0.404046 -0.056136
v -0.096022 0.403076 -0.056759
v -0.096028 0.403713 -0.056064
v -0.095994 0.403153 -0.056424
v -0.095996 0.403386 -0.056170
v -0.097751 0.413902 0.001070
v -0.097731 0.413891 0.001044
v -0.097767 0.413927 0.001088
v -0.097775 0.413961 0.001092
v -0.097773 0.413995 0.001081
v -0.097712 0.413899 0.001015
v -0.097761 0.414018 0.001058
v -0.097700 0.413923 0.000992
v -0.097742 0.414026 0.001029
v -0.097698 0.413956 0.000980
v -0.097706 0.413990 0.000984
v -0.097722 0.414016 0.001002
v -0.093909 0.404720 -0.057280
v -0.093889 0.404485 -0.057542
v -0.093888 0.404797 -0.056936
v -0.093833 0.404155 -0.057652
v -0.093832 0.404696 -0.056603
v -0.093757 0.403818 -0.057581
v -0.093755 0.404443 -0.056370
v -0.093680 0.403565 -0.057347
v -0.093679 0.404106 -0.056299
v -0.093624 0.403463 -0.057014
v -0.093623 0.403776 -0.056409
v -0.093603 0.403540 -0.056671
v -0.091573 0.405296 -0.057536
v -0.091555 0.405374 -0.057185
v -0.091539 0.405059 -0.057805
v -0.091488 0.405272 -0.056846
v -0.091461 0.404726 -0.057920
v -0.091392 0.405018 -0.056609
v -0.091361 0.404388 -0.057850
v -0.091291 0.404679 -0.056539
v -0.091264 0.404133 -0.057614
v -0.091213 0.404347 -0.056654
v -0.091198 0.404032 -0.057274
v -0.091179 0.404110 -0.056923
v -0.089065 0.406155 -0.057487
v -0.089086 0.406074 -0.057845
v -0.088985 0.406055 -0.057142
v -0.089043 0.405835 -0.058121
v -0.088869 0.405801 -0.056903
v -0.088947 0.405500 -0.058240
v -0.088746 0.405461 -0.056834
v -0.088824 0.405160 -0.058171
v -0.088650 0.405126 -0.056953
v -0.088708 0.404906 -0.057932
v -0.088607 0.404887 -0.057229
v -0.088628 0.404806 -0.057587
v -0.086295 0.407169 -0.057891
v -0.086322 0.407085 -0.058256
v -0.086202 0.407071 -0.057541
v -0.086275 0.406841 -0.058538
v -0.086067 0.406817 -0.057299
v -0.086167 0.406504 -0.058661
v -0.085927 0.406476 -0.057231
v -0.086026 0.406162 -0.058593
v -0.085818 0.406138 -0.057354
v -0.085892 0.405909 -0.058351
v -0.085772 0.405895 -0.057636
v -0.085798 0.405811 -0.058001
v -0.083126 0.408444 -0.058446
v -0.083160 0.408355 -0.058817
v -0.083019 0.408348 -0.058091
v -0.083113 0.408107 -0.059104
v -0.082869 0.408094 -0.057846
v -0.082997 0.407764 -0.059231
v -0.082716 0.407750 -0.057778
v -0.082844 0.407420 -0.059163
v -0.082600 0.407408 -0.057905
v -0.082694 0.407166 -0.058919
v -0.082553 0.407159 -0.058192
v -0.082587 0.407071 -0.058564
v -0.079439 0.410006 -0.059200
v -0.079482 0.409913 -0.059576
v -0.079321 0.409913 -0.058839
v -0.079437 0.409658 -0.059869
v -0.079158 0.409658 -0.058592
v -0.079317 0.409309 -0.059999
v -0.078995 0.409309 -0.058524
v -0.079153 0.408961 -0.059931
v -0.078875 0.408961 -0.058654
v -0.078991 0.408706 -0.059683
v -0.078830 0.408706 -0.058946
v -0.078872 0.408613 -0.059323
usemtl Posterior_tibial_recurrent_artery_rMaterial0
f 1 2 3
f 4 1 3
f 5 3 6
f 3 7 6
f 3 2 7
f 4 3 5
f 1 8 2
f 9 8 1
f 10 1 4
f 10 9 1
f 5 6 11
f 6 7 12
f 11 6 13
f 6 12 13
f 8 14 2
f 2 15 7
f 2 14 15
f 16 4 5
f 17 5 11
f 16 5 17
f 9 18 8
f 18 19 8
f 8 19 14
f 20 10 4
f 20 4 16
f 21 18 9
f 22 9 10
f 22 21 9
f 7 23 12
f 7 15 23
f 11 13 24
f 25 11 24
f 17 11 25
f 21 26 18
f 18 27 19
f 26 27 18
f 28 22 10
f 28 10 20
f 13 12 29
f 24 13 30
f 13 29 30
f 31 26 21
f 32 21 22
f 32 31 21
f 12 33 29
f 12 23 33
f 25 24 34
f 24 30 35
f 34 24 35
f 36 16 17
f 37 17 25
f 36 17 37
f 19 38 14
f 14 39 15
f 14 38 39
f 40 20 16
f 40 16 36
f 27 41 19
f 19 41 38
f 26 42 27
f 31 43 26
f 43 42 26
f 44 32 22
f 44 22 28
f 45 25 34
f 37 25 45
f 15 46 23
f 15 39 46
f 30 29 47
f 35 30 48
f 30 47 48
f 49 28 20
f 49 20 40
f 42 50 27
f 27 50 41
f 51 43 31
f 52 31 32
f 52 51 31
f 29 53 47
f 29 33 53
f 34 35 54
f 35 48 55
f 54 35 55
f 56 34 54
f 45 34 56
f 43 57 42
f 51 58 43
f 58 57 43
f 59 52 32
f 59 32 44
f 23 60 33
f 23 46 60
f 48 47 61
f 55 48 62
f 48 61 62
f 57 63 42
f 42 63 50
f 64 44 28
f 64 28 49
f 65 58 51
f 66 65 51
f 66 51 52
f 47 67 61
f 47 53 67
f 55 62 68
f 54 55 69
f 69 55 68
f 62 70 65
f 68 62 65
f 62 61 70
f 65 70 58
f 68 65 66
f 70 71 58
f 58 71 57
f 72 66 52
f 72 52 59
f 73 36 37
f 74 37 45
f 73 37 74
f 75 54 69
f 56 54 75
f 76 40 36
f 76 36 73
f 33 77 53
f 33 60 77
f 61 78 70
f 61 67 78
f 41 79 38
f 38 80 39
f 38 79 80
f 70 78 71
f 50 81 41
f 41 81 79
f 82 68 66
f 69 68 82
f 71 83 57
f 57 83 63
f 82 66 72
f 84 59 44
f 84 44 64
f 85 45 56
f 74 45 85
f 86 49 40
f 86 40 76
f 39 87 46
f 39 80 87
f 63 88 50
f 50 88 81
f 89 69 82
f 75 69 89
f 53 90 67
f 53 77 90
f 78 91 71
f 71 91 83
f 92 72 59
f 92 59 84
f 93 56 75
f 85 56 93
f 94 64 49
f 94 49 86
f 46 95 60
f 46 87 95
f 67 96 78
f 67 90 96
f 78 96 91
f 83 97 63
f 63 97 88
f 98 82 72
f 89 82 98
f 98 72 92
f 99 75 89
f 93 75 99
f 60 100 77
f 60 95 100
f 91 101 83
f 83 101 97
f 102 84 64
f 102 64 94
f 81 103 79
f 88 104 81
f 81 104 103
f 79 105 80
f 79 103 105
f 106 89 98
f 99 89 106
f 107 73 74
f 108 74 85
f 107 74 108
f 109 76 73
f 109 73 107
f 77 110 90
f 77 100 110
f 96 111 91
f 91 111 101
f 112 92 84
f 112 84 102
f 97 113 88
f 88 113 104
f 80 114 87
f 80 105 114
f 115 85 93
f 108 85 115
f 116 98 92
f 106 98 116
f 116 92 112
f 117 86 76
f 117 76 109
f 90 118 96
f 90 110 118
f 96 118 111
f 101 119 97
f 97 119 113
f 87 120 95
f 87 114 120
f 121 93 99
f 115 93 121
f 122 94 86
f 122 86 117
f 111 123 101
f 101 123 119
f 95 124 100
f 95 120 124
f 125 99 106
f 121 99 125
f 126 102 94
f 126 94 122
f 104 127 103
f 113 128 104
f 104 128 127
f 118 129 111
f 111 129 123
f 103 130 105
f 103 127 130
f 119 131 113
f 113 131 128
f 100 132 110
f 100 124 132
f 133 106 116
f 125 106 133
f 110 134 118
f 118 134 129
f 135 112 102
f 135 102 126
f 110 132 134
f 105 136 114
f 105 130 136
f 123 137 119
f 119 137 131
f 138 116 112
f 133 116 138
f 138 112 135
f 114 139 120
f 114 136 139
f 129 140 123
f 123 140 137
f 141 107 108
f 142 108 115
f 141 108 142
f 143 109 107
f 143 107 141
f 144 115 121
f 142 115 144
f 145 117 109
f 145 109 143
f 120 146 124
f 120 139 146
f 134 147 129
f 129 147 140
f 131 148 128
f 128 149 127
f 128 148 149
f 137 150 131
f 131 150 148
f 151 121 125
f 144 121 151
f 124 152 132
f 124 146 152
f 132 153 134
f 134 153 147
f 127 154 130
f 127 149 154
f 155 122 117
f 155 117 145
f 132 152 153
f 140 156 137
f 137 156 150
f 130 157 136
f 130 154 157
f 158 125 133
f 151 125 158
f 159 126 122
f 159 122 155
f 147 160 140
f 140 160 156
f 136 161 139
f 136 157 161
f 162 133 138
f 158 133 162
f 163 135 126
f 163 126 159
f 153 164 147
f 147 164 160
f 165 138 135
f 162 138 165
f 165 135 163
f 139 166 146
f 139 161 166
f 150 167 148
f 148 168 149
f 148 167 168
f 156 169 150
f 150 169 167
f 152 170 153
f 153 170 164
f 146 171 152
f 146 166 171
f 152 171 170
f 149 172 154
f 149 168 172
f 160 173 156
f 156 173 169
f 154 174 157
f 154 172 174
f 164 175 160
f 160 175 173
f 176 141 142
f 177 142 144
f 176 142 177
f 178 143 141
f 178 141 176
f 157 179 161
f 157 174 179
f 170 180 164
f 164 180 175
f 181 144 151
f 177 144 181
f 182 145 143
f 182 143 178
f 161 183 166
f 161 179 183
f 171 184 170
f 170 184 180
f 185 151 158
f 181 151 185
f 169 186 167
f 173 187 169
f 169 187 186
f 188 155 145
f 188 145 182
f 167 189 168
f 167 186 189
f 166 190 171
f 166 183 190
f 171 190 184
f 175 191 173
f 173 191 187
f 168 192 172
f 168 189 192
f 193 158 162
f 185 158 193
f 194 159 155
f 194 155 188
f 180 195 175
f 175 195 191
f 172 196 174
f 172 192 196
f 197 162 165
f 193 162 197
f 198 163 159
f 198 159 194
f 199 165 163
f 197 165 199
f 184 200 180
f 180 200 195
f 199 163 198
f 174 201 179
f 174 196 201
f 190 202 184
f 184 202 200
f 179 203 183
f 179 201 203
f 183 204 190
f 190 204 202
f 187 205 186
f 191 206 187
f 187 206 205
f 183 203 204
f 186 207 189
f 186 205 207
f 195 208 191
f 191 208 206
f 189 209 192
f 189 207 209
f 200 210 195
f 195 210 208
f 192 211 196
f 192 209 211
f 202 212 200
f 200 212 210
f 196 213 201
f 196 211 213
f 214 176 177
f 215 177 181
f 214 177 215
f 216 178 176
f 216 176 214
f 204 217 202
f 202 217 212
f 218 181 185
f 215 181 218
f 201 219 203
f 201 213 219
f 220 182 178
f 220 178 216
f 203 221 204
f 204 221 217
f 203 219 221
f 222 185 193
f 218 185 222
f 206 223 205
f 208 224 206
f 206 224 223
f 205 225 207
f 205 223 225
f 226 188 182
f 226 182 220
f 210 227 208
f 208 227 224
f 207 228 209
f 207 225 228
f 229 193 197
f 222 193 229
f 230 194 188
f 230 188 226
f 212 231 210
f 210 231 227
f 209 232 211
f 209 228 232
f 233 197 199
f 229 197 233
f 234 198 194
f 234 194 230
f 235 199 198
f 233 199 235
f 217 236 212
f 212 236 231
f 235 198 234
f 211 237 213
f 211 232 237
f 221 238 217
f 217 238 236
f 213 239 219
f 213 237 239
f 219 240 221
f 221 240 238
f 219 239 240
f 224 241 223
f 227 242 224
f 224 242 241
f 223 243 225
f 223 241 243
f 231 244 227
f 227 244 242
f 225 245 228
f 225 243 245
f 236 246 231
f 231 246 244
f 228 247 232
f 228 245 247
f 238 248 236
f 236 248 246
f 232 249 237
f 232 247 249
f 240 250 238
f 238 250 248
f 237 251 239
f 237 249 251
f 239 252 240
f 240 252 250
f 239 251 252
f 253 214 215
f 254 215 218
f 253 215 254
f 255 216 214
f 255 214 253
f 256 218 222
f 254 218 256
f 257 220 216
f 257 216 255
f 242 258 241
f 244 259 242
f 242 259 258
f 260 222 229
f 256 222 260
f 241 261 243
f 241 258 261
f 246 262 244
f 244 262 259
f 263 226 220
f 263 220 257
f 243 264 245
f 243 261 264
f 265 229 233
f 260 229 265
f 266 230 226
f 266 226 263
f 248 267 246
f 246 267 262
f 268 233 235
f 265 233 268
f 245 269 247
f 245 264 269
f 270 234 230
f 270 230 266
f 271 235 234
f 268 235 271
f 271 234 270
f 250 272 248
f 248 272 267
f 247 273 249
f 247 269 273
f 252 274 250
f 250 274 272
f 249 275 251
f 249 273 275
f 251 276 252
f 252 276 274
f 251 275 276
f 259 277 258
f 258 278 261
f 258 277 278
f 262 279 259
f 259 279 277
f 261 280 264
f 261 278 280
f 267 281 262
f 262 281 279
f 272 282 267
f 267 282 281
f 264 283 269
f 264 280 283
f 274 284 272
f 272 284 282
f 269 285 273
f 269 283 285
f 273 286 275
f 273 285 286
f 276 287 274
f 274 287 284
f 275 288 276
f 275 286 288
f 276 288 287
f 289 254 256
f 290 253 254
f 290 254 289
f 291 256 260
f 289 256 291
f 292 255 253
f 292 253 290
f 293 260 265
f 291 260 293
f 294 257 255
f 294 255 292
f 295 265 268
f 293 265 295
f 296 263 257
f 296 257 294
f 279 297 277
f 277 298 278
f 277 297 298
f 281 299 279
f 279 299 297
f 300 268 271
f 295 268 300
f 301 266 263
f 301 263 296
f 278 302 280
f 278 298 302
f 282 303 281
f 281 303 299
f 304 271 270
f 300 271 304
f 305 270 266
f 305 266 301
f 304 270 305
f 280 306 283
f 280 302 306
f 284 307 282
f 282 307 303
f 283 308 285
f 283 306 308
f 287 309 284
f 284 309 307
f 285 310 286
f 285 308 310
f 288 311 287
f 287 311 309
f 286 312 288
f 286 310 312
f 288 312 311
f 299 313 297
f 297 314 298
f 297 313 314
f 303 315 299
f 299 315 313
f 298 316 302
f 298 314 316
f 307 317 303
f 303 317 315
f 302 318 306
f 302 316 318
f 309 319 307
f 307 319 317
f 306 320 308
f 306 318 320
f 311 321 309
f 309 321 319
f 308 322 310
f 308 320 322
f 312 323 311
f 311 323 321
f 310 324 312
f 310 322 324
f 312 324 323
f 315 325 313
f 313 326 314
f 313 325 326
f 317 327 315
f 315 327 325
f 314 328 316
f 314 326 328
f 319 329 317
f 317 329 327
f 316 330 318
f 316 328 330
f 321 331 319
f 319 331 329
f 318 332 320
f 318 330 332
f 323 333 321
f 321 333 331
f 320 334 322
f 320 332 334
f 327 335 325
f 325 336 326
f 325 335 336
f 324 337 323
f 323 337 333
f 329 338 327
f 327 338 335
f 322 339 324
f 322 334 339
f 326 340 328
f 326 336 340
f 324 339 337
f 331 341 329
f 329 341 338
f 328 342 330
f 328 340 342
f 333 343 331
f 331 343 341
f 330 344 332
f 330 342 344
f 337 345 333
f 333 345 343
f 335 346 336
f 338 347 335
f 335 347 346
f 332 348 334
f 332 344 348
f 336 349 340
f 336 346 349
f 341 350 338
f 338 350 347
f 339 351 337
f 337 351 345
f 334 352 339
f 334 348 352
f 343 353 341
f 341 353 350
f 339 352 351
f 340 354 342
f 340 349 354
f 345 355 343
f 343 355 353
f 342 356 344
f 342 354 356
f 347 357 346
f 350 358 347
f 347 358 357
f 346 359 349
f 346 357 359
f 353 360 350
f 350 360 358
f 351 361 345
f 345 361 355
f 344 362 348
f 344 356 362
f 349 363 354
f 349 359 363
f 355 364 353
f 353 364 360
f 352 365 351
f 351 365 361
f 348 366 352
f 348 362 366
f 352 366 365
f 354 367 356
f 354 363 367
f 361 368 355
f 355 368 364
f 358 369 357
f 360 370 358
f 358 370 369
f 357 371 359
f 357 369 371
f 364 372 360
f 360 372 370
f 356 373 362
f 356 367 373
f 359 374 363
f 359 371 374
f 365 375 361
f 361 375 368
f 368 376 364
f 364 376 372
f 362 377 366
f 362 373 377
f 366 378 365
f 365 378 375
f 370 379 369
f 372 380 370
f 370 380 379
f 366 377 378
f 363 381 367
f 363 374 381
f 369 382 371
f 369 379 382
f 368 383 376
f 375 383 368
f 376 384 372
f 372 384 380
f 371 385 374
f 371 382 385
f 376 386 384
f 383 386 376
f 367 387 373
f 367 381 387
f 378 388 375
f 375 388 383
f 380 389 379
f 384 390 380
f 380 390 389
f 379 391 382
f 379 389 391
f 386 392 384
f 384 392 390
f 374 393 381
f 374 385 393
f 373 394 377
f 373 387 394
f 377 395 378
f 378 395 388
f 383 396 386
f 388 396 383
f 377 394 395
f 382 397 385
f 382 391 397
f 386 398 392
f 396 398 386
f 390 399 389
f 392 400 390
f 390 400 399
f 381 401 387
f 381 393 401
f 389 402 391
f 389 399 402
f 388 403 396
f 395 403 388
f 398 404 392
f 392 404 400
f 385 405 393
f 385 397 405
f 387 406 394
f 387 401 406
f 391 407 397
f 391 402 407
f 396 408 398
f 403 408 396
f 394 409 395
f 395 409 403
f 398 410 404
f 408 410 398
f 394 406 409
f 400 411 399
f 404 412 400
f 400 412 411
f 399 413 402
f 399 411 413
f 393 414 401
f 393 405 414
f 410 415 404
f 404 415 412
f 397 416 405
f 397 407 416
f 403 417 408
f 409 417 403
f 402 418 407
f 402 413 418
f 408 419 410
f 417 419 408
f 401 420 406
f 401 414 420
f 410 421 415
f 419 421 410
f 406 422 409
f 409 422 417
f 412 423 411
f 415 424 412
f 412 424 423
f 406 420 422
f 411 425 413
f 411 423 425
f 405 426 414
f 405 416 426
f 421 427 415
f 415 427 424
f 407 428 416
f 407 418 428
f 417 429 419
f 422 429 417
f 413 430 418
f 413 425 430
f 419 431 421
f 429 431 419
f 414 432 420
f 414 426 432
f 421 433 427
f 431 433 421
f 420 434 422
f 422 434 429
f 424 435 423
f 427 436 424
f 424 436 435
f 437 289 291
f 438 291 293
f 437 291 438
f 439 290 289
f 439 289 437
f 440 292 290
f 440 290 439
f 416 441 426
f 416 428 441
f 420 432 434
f 423 442 425
f 423 435 442
f 433 443 427
f 427 443 436
f 444 293 295
f 438 293 444
f 418 445 428
f 418 430 445
f 429 446 431
f 434 446 429
f 447 294 292
f 447 292 440
f 425 448 430
f 425 442 448
f 431 449 433
f 446 449 431
f 450 295 300
f 444 295 450
f 426 451 432
f 426 441 451
f 433 452 443
f 449 452 433
f 453 296 294
f 453 294 447
f 432 454 434
f 434 454 446
f 432 451 454
f 455 300 304
f 450 300 455
f 428 456 441
f 428 445 456
f 436 457 435
f 443 458 436
f 436 458 457
f 459 304 305
f 455 304 459
f 460 301 296
f 460 296 453
f 430 461 445
f 430 448 461
f 435 462 442
f 435 457 462
f 446 463 449
f 454 463 446
f 452 464 443
f 443 464 458
f 465 305 301
f 459 305 465
f 465 301 460
f 449 466 452
f 463 466 449
f 441 467 451
f 441 456 467
f 442 468 448
f 442 462 468
f 451 469 454
f 454 469 463
f 451 467 469
f 466 470 452
f 452 470 464
f 445 471 456
f 445 461 471
f 463 472 466
f 469 472 463
f 448 473 461
f 448 468 473
f 456 474 467
f 456 471 474
f 472 475 466
f 466 475 470
f 467 476 469
f 469 476 472
f 467 474 476
f 461 477 471
f 461 473 477
f 476 478 472
f 472 478 475
f 458 479 457
f 464 480 458
f 458 480 479
f 457 481 462
f 457 479 481
f 470 482 464
f 464 482 480
f 471 483 474
f 471 477 483
f 474 484 476
f 476 484 478
f 474 483 484
f 462 485 468
f 462 481 485
f 475 486 470
f 470 486 482
f 468 487 473
f 468 485 487
f 478 488 475
f 475 488 486
f 473 489 477
f 473 487 489
f 480 490 479
f 482 491 480
f 480 491 490
f 479 492 481
f 479 490 492
f 484 493 478
f 478 493 488
f 486 494 482
f 482 494 491
f 477 495 483
f 477 489 495
f 481 496 485
f 481 492 496
f 483 497 484
f 484 497 493
f 488 498 486
f 486 498 494
f 483 495 497
f 485 499 487
f 485 496 499
f 493 500 488
f 488 500 498
f 491 501 490
f 494 502 491
f 491 502 501
f 490 503 492
f 490 501 503
f 487 504 489
f 487 499 504
f 498 505 494
f 494 505 502
f 497 506 493
f 493 506 500
f 492 507 496
f 492 503 507
f 489 508 495
f 489 504 508
f 500 509 498
f 498 509 505
f 495 510 497
f 497 510 506
f 495 508 510
f 496 511 499
f 496 507 511
f 506 512 500
f 500 512 509
f 502 513 501
f 505 514 502
f 502 514 513
f 501 515 503
f 501 513 515
f 509 516 505
f 505 516 514
f 499 517 504
f 499 511 517
f 503 518 507
f 503 515 518
f 510 519 506
f 506 519 512
f 512 520 509
f 509 520 516
f 504 521 508
f 504 517 521
f 508 522 510
f 510 522 519
f 507 523 511
f 507 518 523
f 508 521 522
f 514 524 513
f 516 525 514
f 514 525 524
f 519 526 512
f 512 526 520
f 513 527 515
f 513 524 527
f 520 528 516
f 516 528 525
f 511 529 517
f 511 523 529
f 515 530 518
f 515 527 530
f 522 531 519
f 519 531 526
f 526 532 520
f 520 532 528
f 517 533 521
f 517 529 533
f 518 534 523
f 518 530 534
f 521 535 522
f 522 535 531
f 521 533 535
f 525 536 524
f 528 537 525
f 525 537 536
f 531 538 526
f 526 538 532
f 524 539 527
f 524 536 539
f 532 540 528
f 528 540 537
f 523 541 529
f 523 534 541
f 527 542 530
f 527 539 542
f 535 543 531
f 531 543 538
f 538 544 532
f 532 544 540
f 529 545 533
f 529 541 545
f 530 546 534
f 530 542 546
f 533 547 535
f 535 547 543
f 533 545 547
f 537 548 536
f 540 549 537
f 537 549 548
f 543 550 538
f 538 550 544
f 536 551 539
f 536 548 551
f 544 552 540
f 540 552 549
f 534 553 541
f 534 546 553
f 539 554 542
f 539 551 554
f 547 555 543
f 543 555 550
f 550 556 544
f 544 556 552
f 541 557 545
f 541 553 557
f 542 558 546
f 542 554 558
f 545 559 547
f 547 559 555
f 545 557 559
f 555 560 550
f 550 560 556
f 549 561 548
f 552 562 549
f 549 562 561
f 548 563 551
f 548 561 563
f 546 564 553
f 546 558 564
f 556 565 552
f 552 565 562
f 551 566 554
f 551 563 566
f 559 567 555
f 555 567 560
f 560 568 556
f 556 568 565
f 553 569 557
f 553 564 569
f 557 570 559
f 559 570 567
f 554 571 558
f 554 566 571
f 557 569 570
f 567 572 560
f 560 572 568
f 562 573 561
f 565 574 562
f 562 574 573
f 558 575 564
f 558 571 575
f 561 576 563
f 561 573 576
f 568 577 565
f 565 577 574
f 570 578 567
f 567 578 572
f 563 579 566
f 563 576 579
f 564 580 569
f 564 575 580
f 569 581 570
f 570 581 578
f 572 582 568
f 568 582 577
f 569 580 581
f 566 583 571
f 566 579 583
f 578 584 572
f 572 584 582
f 571 585 575
f 571 583 585
f 574 586 573
f 577 587 574
f 574 587 586
f 573 588 576
f 573 586 588
f 581 589 578
f 578 589 584
f 582 590 577
f 577 590 587
f 575 591 580
f 575 585 591
f 576 592 579
f 576 588 592
f 580 593 581
f 581 593 589
f 580 591 593
f 584 594 582
f 582 594 590
f 579 595 583
f 579 592 595
f 589 596 584
f 584 596 594
f 583 597 585
f 583 595 597
f 593 598 589
f 589 598 596
f 587 599 586
f 590 600 587
f 587 600 599
f 585 601 591
f 585 597 601
f 586 602 588
f 586 599 602
f 591 603 593
f 593 603 598
f 594 604 590
f 590 604 600
f 591 601 603
f 588 605 592
f 588 602 605
f 596 606 594
f 594 606 604
f 592 607 595
f 592 605 607
f 598 608 596
f 596 608 606
f 595 609 597
f 595 607 609
f 603 610 598
f 598 610 608
f 597 611 601
f 597 609 611
f 601 612 603
f 603 612 610
f 601 611 612
f 600 613 599
f 604 614 600
f 600 614 613
f 599 615 602
f 599 613 615
f 616 437 438
f 617 439 437
f 617 437 616
f 606 618 604
f 604 618 614
f 619 438 444
f 616 438 619
f 620 440 439
f 620 439 617
f 602 621 605
f 602 615 621
f 622 444 450
f 619 444 622
f 608 623 606
f 606 623 618
f 624 447 440
f 624 440 620
f 625 450 455
f 622 450 625
f 605 626 607
f 605 621 626
f 627 453 447
f 627 447 624
f 610 628 608
f 608 628 623
f 629 455 459
f 625 455 629
f 630 460 453
f 630 453 627
f 607 631 609
f 607 626 631
f 632 459 465
f 629 459 632
f 633 465 460
f 632 465 633
f 633 460 630
f 612 634 610
f 610 634 628
f 609 635 611
f 609 631 635
f 611 636 612
f 612 636 634
f 611 635 636
f 614 637 613
f 613 638 615
f 613 637 638
f 618 639 614
f 614 639 637
f 623 640 618
f 618 640 639
f 615 641 621
f 615 638 641
f 628 642 623
f 623 642 640
f 621 643 626
f 621 641 643
f 634 644 628
f 628 644 642
f 626 645 631
f 626 643 645
f 636 646 634
f 634 646 644
f 631 647 635
f 631 645 647
f 635 648 636
f 635 647 648
f 636 648 646
f 639 649 637
f 637 650 638
f 637 649 650
f 640 651 639
f 639 651 649
f 638 652 641
f 638 650 652
f 642 653 640
f 640 653 651
f 641 654 643
f 641 652 654
f 644 655 642
f 642 655 653
f 643 656 645
f 643 654 656
f 646 657 644
f 644 657 655
f 645 658 647
f 645 656 658
f 648 659 646
f 646 659 657
f 647 660 648
f 647 658 660
f 648 660 659
f 651 661 649
f 649 662 650
f 649 661 662
f 653 663 651
f 651 663 661
f 650 664 652
f 650 662 664
f 655 665 653
f 653 665 663
f 652 666 654
f 652 664 666
f 657 667 655
f 655 667 665
f 654 668 656
f 654 666 668
f 659 669 657
f 657 669 667
f 656 670 658
f 656 668 670
f 660 671 659
f 659 671 669
f 658 672 660
f 658 670 672
f 660 672 671
f 663 673 661
f 661 674 662
f 661 673 674
f 665 675 663
f 663 675 673
f 662 676 664
f 662 674 676
f 667 677 665
f 665 677 675
f 664 678 666
f 664 676 678
f 669 679 667
f 667 679 677
f 666 680 668
f 666 678 680
f 671 681 669
f 669 681 679
f 668 682 670
f 668 680 682
f 683 616 619
f 684 619 622
f 683 619 684
f 685 617 616
f 685 616 683
f 686 620 617
f 686 617 685
f 670 687 672
f 670 682 687
f 672 688 671
f 671 688 681
f 672 687 688
f 689 622 625
f 684 622 689
f 690 624 620
f 690 620 686
f 691 625 629
f 689 625 691
f 692 627 624
f 692 624 690
f 693 629 632
f 691 629 693
f 694 630 627
f 694 627 692
f 695 632 633
f 693 632 695
f 696 633 630
f 696 630 694
f 695 633 696
f 673 697 674
f 675 698 673
f 673 698 697
f 674 699 676
f 674 697 699
f 677 700 675
f 675 700 698
f 679 701 677
f 677 701 700
f 676 702 678
f 676 699 702
f 681 703 679
f 679 703 701
f 678 704 680
f 678 702 704
f 680 705 682
f 680 704 705
f 688 706 681
f 681 706 703
f 682 707 687
f 682 705 707
f 687 708 688
f 688 708 706
f 687 707 708
f 698 709 697
f 700 710 698
f 698 710 709
f 697 711 699
f 697 709 711
f 701 712 700
f 700 712 710
f 699 713 702
f 699 711 713
f 703 714 701
f 701 714 712
f 702 715 704
f 702 713 715
f 706 716 703
f 703 716 714
f 704 717 705
f 704 715 717
f 708 718 706
f 706 718 716
f 705 719 707
f 705 717 719
f 707 720 708
f 708 720 718
f 707 719 720
f 710 721 709
f 712 722 710
f 710 722 721
f 709 723 711
f 709 721 723
f 714 724 712
f 712 724 722
f 711 725 713
f 711 723 725
f 716 726 714
f 714 726 724
f 713 727 715
f 713 725 727
f 718 728 716
f 716 728 726
f 715 729 717
f 715 727 729
f 720 730 718
f 718 730 728
f 717 731 719
f 717 729 731
f 719 732 720
f 720 732 730
f 719 731 732
f 733 685 683
f 734 683 684
f 733 683 734
f 735 686 685
f 735 685 733
f 736 684 689
f 734 684 736
f 737 690 686
f 737 686 735
f 738 689 691
f 736 689 738
f 739 692 690
f 739 690 737
f 740 691 693
f 738 691 740
f 741 694 692
f 741 692 739
f 742 693 695
f 740 693 742
f 743 696 694
f 743 694 741
f 744 695 696
f 742 695 744
f 744 696 743
f 722 745 721
f 721 746 723
f 721 745 746
f 724 747 722
f 722 747 745
f 726 748 724
f 724 748 747
f 723 749 725
f 723 746 749
f 728 750 726
f 726 750 748
f 725 751 727
f 725 749 751
f 730 752 728
f 728 752 750
f 727 753 729
f 727 751 753
f 732 754 730
f 730 754 752
f 729 755 731
f 729 753 755
f 731 756 732
f 732 756 754
f 731 755 756
f 747 757 745
f 745 758 746
f 745 757 758
f 748 759 747
f 747 759 757
f 750 760 748
f 748 760 759
f 746 761 749
f 746 758 761
f 752 762 750
f 750 762 760
f 749 763 751
f 749 761 763
f 754 764 752
f 752 764 762
f 751 765 753
f 751 763 765
f 756 766 754
f 754 766 764
f 753 767 755
f 753 765 767
f 755 768 756
f 755 767 768
f 756 768 766
f 759 769 757
f 757 770 758
f 757 769 770
f 760 771 759
f 759 771 769
f 762 772 760
f 760 772 771
f 764 773 762
f 762 773 772
f 758 774 761
f 758 770 774
f 766 775 764
f 764 775 773
f 761 776 763
f 761 774 776
f 768 777 766
f 766 777 775
f 763 778 765
f 763 776 778
f 765 779 767
f 765 778 779
f 767 780 768
f 767 779 780
f 768 780 777
f 781 733 734
f 782 734 736
f 781 734 782
f 783 735 733
f 783 733 781
f 784 737 735
f 784 735 783
f 785 736 738
f 782 736 785
f 786 739 737
f 786 737 784
f 787 738 740
f 785 738 787
f 788 741 739
f 788 739 786
f 789 740 742
f 787 740 789
f 790 743 741
f 790 741 788
f 791 742 744
f 789 742 791
f 792 744 743
f 791 744 792
f 792 743 790
f 771 793 769
f 769 794 770
f 769 793 794
f 772 795 771
f 771 795 793
f 773 796 772
f 772 796 795
f 775 797 773
f 773 797 796
f 770 798 774
f 770 794 798
f 777 799 775
f 775 799 797
f 774 800 776
f 774 798 800
f 780 801 777
f 777 801 799
f 776 802 778
f 776 800 802
f 778 803 779
f 778 802 803
f 779 804 780
f 779 803 804
f 780 804 801
f 805 783 781
f 806 781 782
f 805 781 806
f 807 784 783
f 807 783 805
f 808 782 785
f 806 782 808
f 809 786 784
f 809 784 807
f 810 785 787
f 808 785 810
f 811 788 786
f 811 786 809
f 812 787 789
f 810 787 812
f 813 790 788
f 813 788 811
f 814 789 791
f 812 789 814
f 815 792 790
f 815 790 813
f 816 791 792
f 814 791 816
f 816 792 815
f 817 805 806
f 818 807 805
f 818 805 817
f 819 806 808
f 817 806 819
f 820 809 807
f 820 807 818
f 821 808 810
f 819 808 821
f 822 811 809
f 822 809 820
f 823 810 812
f 821 810 823
f 824 813 811
f 824 811 822
f 825 812 814
f 823 812 825
f 826 815 813
f 826 813 824
f 827 814 816
f 825 814 827
f 828 816 815
f 828 815 826
f 827 816 828
f 829 818 817
f 830 817 819
f 829 817 830
f 831 820 818
f 831 818 829
f 832 819 821
f 830 819 832
f 833 822 820
f 833 820 831
f 834 821 823
f 832 821 834
f 835 824 822
f 835 822 833
f 836 823 825
f 834 823 836
f 837 826 824
f 837 824 835
f 838 825 827
f 836 825 838
f 839 828 826
f 839 826 837
f 840 827 828
f 838 827 840
f 840 828 839
f 841 829 830
f 842 830 832
f 841 830 842
f 843 831 829
f 843 829 841
f 844 832 834
f 842 832 844
f 845 833 831
f 845 831 843
f 846 834 836
f 844 834 846
f 847 835 833
f 847 833 845
f 848 836 838
f 846 836 848
f 849 837 835
f 849 835 847
f 850 838 840
f 848 838 850
f 851 839 837
f 851 837 849
f 852 840 839
f 850 840 852
f 852 839 851
f 853 841 842
f 854 842 844
f 853 842 854
f 855 843 841
f 855 841 853
f 856 844 846
f 854 844 856
f 857 845 843
f 857 843 855
f 858 846 848
f 856 846 858
f 859 847 845
f 859 845 857
f 860 848 850
f 858 848 860
f 861 849 847
f 861 847 859
f 862 850 852
f 860 850 862
f 863 851 849
f 863 849 861
f 864 852 851
f 862 852 864
f 864 851 863
f 865 853 854
f 866 854 856
f 865 854 866
f 867 855 853
f 867 853 865
f 868 856 858
f 866 856 868
f 869 857 855
f 869 855 867
f 870 858 860
f 868 858 870
f 871 859 857
f 871 857 869
f 872 860 862
f 870 860 872
f 873 861 859
f 873 859 871
f 874 862 864
f 872 862 874
f 875 863 861
f 875 861 873
f 876 864 863
f 874 864 876
f 876 863 875
