# 
# Wavefront OBJ file
# Created with Kaydara FBX
# 
mtllib c:\users\tjvan\onedrive\documenten\fontys\minor\nx\.mtlmodels\posterior_cruciate_ligament.r.obj

g Posterior_cruciate_ligament_r
v -0.080724 0.431715 -0.046797
v -0.081727 0.428646 -0.050949
v -0.081637 0.428017 -0.049977
v -0.079261 0.424799 -0.053224
v -0.080760 0.428886 -0.051080
v -0.080658 0.432360 -0.047546
v -0.080618 0.427916 -0.049732
v -0.079094 0.424489 -0.052573
v -0.079892 0.432511 -0.048140
v -0.079005 0.432399 -0.048483
v -0.079613 0.429064 -0.051119
v -0.077662 0.426017 -0.053116
v -0.078599 0.425399 -0.053236
v -0.078624 0.435005 -0.045061
v -0.079935 0.431190 -0.046663
v -0.078180 0.433914 -0.044158
v -0.078730 0.434495 -0.044394
v -0.078938 0.430876 -0.046703
v -0.079548 0.427932 -0.049542
v -0.077622 0.425078 -0.051774
v -0.078469 0.424677 -0.052116
v -0.077402 0.433471 -0.044206
v -0.078073 0.435201 -0.045691
v -0.078279 0.429259 -0.051106
v -0.077756 0.430623 -0.046746
v -0.078293 0.427993 -0.049392
v -0.075999 0.422499 -0.054171
v -0.075797 0.423749 -0.054705
v -0.076095 0.422919 -0.054729
v -0.075598 0.423041 -0.053608
v -0.077820 0.432251 -0.048727
v -0.077308 0.435176 -0.046205
v -0.076384 0.434998 -0.046645
v -0.078676 0.448064 -0.031833
v -0.078599 0.449712 -0.032536
v -0.078986 0.449232 -0.033236
v -0.078357 0.448359 -0.033831
v -0.077870 0.450324 -0.033843
v -0.077262 0.449129 -0.034439
v -0.077527 0.437043 -0.042431
v -0.077146 0.436395 -0.042013
v -0.078254 0.448614 -0.031453
v -0.078419 0.447418 -0.032588
v -0.077426 0.446157 -0.031195
v -0.077069 0.447314 -0.030191
v -0.077515 0.446663 -0.030447
v -0.076750 0.437870 -0.043664
v -0.077307 0.437570 -0.043063
v -0.077671 0.449875 -0.032158
v -0.078177 0.450982 -0.033355
v -0.077574 0.446295 -0.034905
v -0.077693 0.445620 -0.033767
v -0.076644 0.428117 -0.049274
v -0.076629 0.425595 -0.051454
v -0.076393 0.431989 -0.049074
v -0.076596 0.426725 -0.053009
v -0.076592 0.429544 -0.051158
v -0.077366 0.448999 -0.031374
v -0.076355 0.447852 -0.030383
v -0.076510 0.452218 -0.034285
v -0.077450 0.450901 -0.032886
v -0.076287 0.452451 -0.033774
v -0.076120 0.451313 -0.034654
v -0.075314 0.434828 -0.046939
v -0.076445 0.433028 -0.044381
v -0.076312 0.430277 -0.047019
v -0.075344 0.432684 -0.044570
v -0.076930 0.443126 -0.035409
v -0.077082 0.444922 -0.032586
v -0.074807 0.425612 -0.054188
v -0.075413 0.424608 -0.054496
v -0.076801 0.449979 -0.031951
v -0.074636 0.424593 -0.052670
v -0.075208 0.423732 -0.053170
v -0.076658 0.446978 -0.035567
v -0.076874 0.443776 -0.036320
v -0.076133 0.444440 -0.036985
v -0.076717 0.439282 -0.040169
v -0.075547 0.445267 -0.029523
v -0.076460 0.450719 -0.032461
v -0.075642 0.444136 -0.031622
v -0.075630 0.444857 -0.030343
v -0.076437 0.435876 -0.041869
v -0.075583 0.435437 -0.041843
v -0.076337 0.449454 -0.031457
v -0.075946 0.437964 -0.044195
v -0.076321 0.439862 -0.040761
v -0.075305 0.447706 -0.036188
v -0.075717 0.449998 -0.035166
v -0.076608 0.438569 -0.039606
v -0.076002 0.437987 -0.039267
v -0.076374 0.442628 -0.034586
v -0.075124 0.445901 -0.029465
v -0.076467 0.441437 -0.038034
v -0.076460 0.440745 -0.037330
v -0.075912 0.440188 -0.036765
v -0.075914 0.442067 -0.038651
v -0.075509 0.450295 -0.032015
v -0.075626 0.440287 -0.041351
v -0.074698 0.440544 -0.041929
v -0.075004 0.445085 -0.037591
v -0.075309 0.426474 -0.050993
v -0.074501 0.430073 -0.047310
v -0.074002 0.427388 -0.050504
v -0.074398 0.428384 -0.049316
v -0.073570 0.425787 -0.052040
v -0.075233 0.427698 -0.052765
v -0.073670 0.426842 -0.053840
v -0.074386 0.429954 -0.051239
v -0.073981 0.428731 -0.052409
v -0.074450 0.453105 -0.035060
v -0.074299 0.452166 -0.035367
v -0.075578 0.452056 -0.033368
v -0.074731 0.451572 -0.032964
v -0.074650 0.435075 -0.041861
v -0.075173 0.437565 -0.039084
v -0.074318 0.434750 -0.047094
v -0.074683 0.431943 -0.049346
v -0.075063 0.437916 -0.044577
v -0.075294 0.442116 -0.033815
v -0.075356 0.448592 -0.030792
v -0.073741 0.447557 -0.030481
v -0.074518 0.446591 -0.029842
v -0.074201 0.432485 -0.044717
v -0.074027 0.453452 -0.034354
v -0.074505 0.453692 -0.034864
v -0.074032 0.450744 -0.035881
v -0.073094 0.422704 -0.055209
v -0.073412 0.423748 -0.055630
v -0.073236 0.422988 -0.055841
v -0.075031 0.439783 -0.036375
v -0.074998 0.442617 -0.039244
v -0.073658 0.448406 -0.036949
v -0.073076 0.443507 -0.030042
v -0.073670 0.441603 -0.033335
v -0.073398 0.443101 -0.031153
v -0.073418 0.423730 -0.053782
v -0.073211 0.423136 -0.054474
v -0.072545 0.444484 -0.029600
v -0.072871 0.443753 -0.029384
v -0.074414 0.449658 -0.031566
v -0.073612 0.425293 -0.054777
v -0.073533 0.424512 -0.055232
v -0.072956 0.449089 -0.031459
v -0.074225 0.437813 -0.044822
v -0.073512 0.424407 -0.053165
v -0.073750 0.439390 -0.036128
v -0.074160 0.437181 -0.038982
v -0.072176 0.445291 -0.030073
v -0.073777 0.440610 -0.042364
v -0.072885 0.440568 -0.042698
v -0.073730 0.443120 -0.039871
v -0.073451 0.445814 -0.038293
v -0.073755 0.451056 -0.032651
v -0.073400 0.452861 -0.033997
v -0.072462 0.443374 -0.040439
v -0.072308 0.430399 -0.051426
v -0.073273 0.434708 -0.047166
v -0.072994 0.432280 -0.049335
v -0.073576 0.434792 -0.041954
v -0.072855 0.436828 -0.039017
v -0.071677 0.446604 -0.030835
v -0.072709 0.430338 -0.047305
v -0.072214 0.453582 -0.035617
v -0.072068 0.454331 -0.035452
v -0.072601 0.450658 -0.032582
v -0.072273 0.428705 -0.049475
v -0.073367 0.437677 -0.044998
v -0.072380 0.452582 -0.035869
v -0.071986 0.440464 -0.042998
v -0.072479 0.434667 -0.042155
v -0.073048 0.432457 -0.044845
v -0.072105 0.438982 -0.036188
v -0.072420 0.451299 -0.036317
v -0.071440 0.453584 -0.034813
v -0.071694 0.454271 -0.035132
v -0.072504 0.427194 -0.051114
v -0.072433 0.428579 -0.053024
v -0.071250 0.443352 -0.041006
v -0.071232 0.448529 -0.031934
v -0.072770 0.452309 -0.033715
v -0.072191 0.451731 -0.033456
v -0.072587 0.426295 -0.054531
v -0.071080 0.428414 -0.053565
v -0.070677 0.441645 -0.031543
v -0.071503 0.440851 -0.033317
v -0.071574 0.446353 -0.039035
v -0.071800 0.449016 -0.037570
v -0.071783 0.425795 -0.055103
v -0.072391 0.425342 -0.052795
v -0.071085 0.427028 -0.051641
v -0.071348 0.436694 -0.039375
v -0.071113 0.425291 -0.055477
v -0.071566 0.424881 -0.053470
v -0.072591 0.437540 -0.045090
v -0.071189 0.440250 -0.043295
v -0.072217 0.434743 -0.047140
v -0.070503 0.424355 -0.054777
v -0.070509 0.424739 -0.055477
v -0.070984 0.424549 -0.054087
v -0.069767 0.442377 -0.030312
v -0.070090 0.441895 -0.030676
v -0.071854 0.432662 -0.044939
v -0.071425 0.434773 -0.042459
v -0.070694 0.430722 -0.051596
v -0.071657 0.432665 -0.049215
v -0.069686 0.443112 -0.030628
v -0.071249 0.452825 -0.034465
v -0.070668 0.428949 -0.049648
v -0.071319 0.430764 -0.047282
v -0.071797 0.437378 -0.045133
v -0.070471 0.439937 -0.043564
v -0.071080 0.450345 -0.033038
v -0.071247 0.451219 -0.036710
v -0.069863 0.426800 -0.052061
v -0.070784 0.452139 -0.036435
v -0.071265 0.434808 -0.046965
v -0.069470 0.453367 -0.036390
v -0.070142 0.452776 -0.036370
v -0.071088 0.451850 -0.033961
v -0.069551 0.444117 -0.031056
v -0.068890 0.440210 -0.034298
v -0.070146 0.438723 -0.036781
v -0.070155 0.443203 -0.041533
v -0.070947 0.433003 -0.045045
v -0.070974 0.437165 -0.045089
v -0.069896 0.446595 -0.039559
v -0.070317 0.449618 -0.037799
v -0.069977 0.428206 -0.053906
v -0.069039 0.453433 -0.036198
v -0.069414 0.445926 -0.031915
v -0.070588 0.432958 -0.049008
v -0.069478 0.430952 -0.051619
v -0.067722 0.440796 -0.033089
v -0.069178 0.452087 -0.035389
v -0.069053 0.452778 -0.035795
v -0.070089 0.436830 -0.040001
v -0.070557 0.435123 -0.042909
v -0.069184 0.437293 -0.040839
v -0.068399 0.438983 -0.037816
v -0.070263 0.431163 -0.047293
v -0.070298 0.436895 -0.044887
v -0.069661 0.432993 -0.048671
v -0.070443 0.434789 -0.046664
v -0.068573 0.446749 -0.039926
v -0.069083 0.450198 -0.037915
v -0.069415 0.449759 -0.033932
v -0.069349 0.447951 -0.032897
v -0.069367 0.443091 -0.041887
v -0.068912 0.427955 -0.053983
v -0.069345 0.451134 -0.034798
v -0.068128 0.426685 -0.052878
v -0.068838 0.426456 -0.052335
v -0.069831 0.439584 -0.043667
v -0.070021 0.435547 -0.043434
v -0.069437 0.431603 -0.047321
v -0.070210 0.433448 -0.045261
v -0.069332 0.429105 -0.049800
v -0.067070 0.441046 -0.032586
v -0.068340 0.430909 -0.051489
v -0.068163 0.427392 -0.053628
v -0.068125 0.442288 -0.042529
v -0.068676 0.442676 -0.042319
v -0.069818 0.436485 -0.044483
v -0.069823 0.434542 -0.046219
v -0.068956 0.432717 -0.048206
v -0.069196 0.439167 -0.043526
v -0.069704 0.434017 -0.045650
v -0.066704 0.440614 -0.036109
v -0.067616 0.446912 -0.040158
v -0.067547 0.451003 -0.038137
v -0.068469 0.450378 -0.038058
v -0.066909 0.441724 -0.032451
v -0.069726 0.436000 -0.043957
v -0.068631 0.438312 -0.042422
v -0.068761 0.437866 -0.041690
v -0.068122 0.429241 -0.049803
v -0.068808 0.432170 -0.047624
v -0.068766 0.438713 -0.043035
v -0.067550 0.441879 -0.042429
v -0.067183 0.443937 -0.032725
v -0.067037 0.442690 -0.032563
v -0.067756 0.445685 -0.033005
v -0.067003 0.451204 -0.037949
v -0.067261 0.429678 -0.050126
v -0.067489 0.446881 -0.034136
v -0.067395 0.448123 -0.035257
v -0.067229 0.449160 -0.036219
v -0.067189 0.441477 -0.041935
v -0.067192 0.440541 -0.040303
v -0.067460 0.439756 -0.039076
v -0.067014 0.450655 -0.037516
v -0.067098 0.449949 -0.036961
v -0.067407 0.430473 -0.050936
v -0.067118 0.441071 -0.041219
v -0.066768 0.445901 -0.040966
v -0.066238 0.445262 -0.041328
v -0.065961 0.444872 -0.034613
v -0.065665 0.441365 -0.035416
v -0.066008 0.448413 -0.039947
v -0.065389 0.447497 -0.040596
v -0.065710 0.444627 -0.041346
v -0.065671 0.446008 -0.036039
v -0.065465 0.442887 -0.039479
v -0.065766 0.441787 -0.037954
v -0.065427 0.447155 -0.037297
v -0.065261 0.448117 -0.038384
v -0.065453 0.444124 -0.041071
v -0.065365 0.443599 -0.040512
v -0.065099 0.448827 -0.039192
v -0.065068 0.441848 -0.035052
v -0.065113 0.442647 -0.034842
v -0.065336 0.443529 -0.034725
v -0.065277 0.449118 -0.039832
v -0.065367 0.446591 -0.040941
v -0.064844 0.442564 -0.037493
v -0.064885 0.444679 -0.036471
v -0.064478 0.443851 -0.039217
v -0.064738 0.445143 -0.040875
v -0.064812 0.446192 -0.041085
v -0.064340 0.443075 -0.037172
v -0.064601 0.445836 -0.037949
v -0.064638 0.447863 -0.040677
v -0.064440 0.444851 -0.040408
v -0.064305 0.447569 -0.040002
v -0.064417 0.446949 -0.039241
v -0.064502 0.443800 -0.036837
v -0.064238 0.445049 -0.038448
v -0.064040 0.445837 -0.040174
v -0.064166 0.446007 -0.039486
v -0.064086 0.444421 -0.038878
usemtl Posterior_cruciate_ligament_rMaterial0
f 1 2 3
f 4 3 2
f 5 2 6
f 5 4 2
f 1 6 2
f 1 3 7
f 7 3 8
f 4 8 3
f 5 6 9
f 10 5 9
f 10 11 5
f 5 11 12
f 5 13 4
f 5 12 13
f 14 6 1
f 1 7 15
f 1 15 16
f 14 1 17
f 1 16 17
f 14 9 6
f 7 18 15
f 7 19 18
f 7 20 19
f 7 8 21
f 7 21 20
f 22 15 18
f 22 16 15
f 10 9 23
f 14 23 9
f 10 24 11
f 12 11 24
f 25 18 19
f 25 19 26
f 20 26 19
f 4 27 8
f 4 13 28
f 4 29 27
f 4 28 29
f 30 21 8
f 30 8 27
f 10 31 24
f 10 23 32
f 33 31 10
f 33 10 32
f 34 35 36
f 34 36 37
f 38 36 35
f 39 37 36
f 39 36 38
f 25 22 18
f 14 17 40
f 41 17 16
f 41 40 17
f 34 42 35
f 34 37 43
f 44 34 43
f 34 45 42
f 44 46 34
f 34 46 45
f 47 23 14
f 14 40 48
f 47 14 48
f 28 13 12
f 42 49 35
f 38 35 50
f 50 35 49
f 20 21 30
f 51 43 37
f 51 52 43
f 44 43 52
f 51 37 39
f 53 25 26
f 20 54 26
f 53 26 54
f 24 31 55
f 12 24 56
f 56 24 57
f 24 55 57
f 42 58 49
f 42 59 58
f 42 45 59
f 22 41 16
f 38 50 60
f 50 49 61
f 50 61 62
f 50 62 60
f 47 32 23
f 39 38 63
f 38 60 63
f 64 55 31
f 64 31 33
f 25 65 22
f 53 66 25
f 25 67 65
f 25 66 67
f 68 52 51
f 44 52 69
f 68 69 52
f 12 56 70
f 28 12 71
f 12 70 71
f 72 61 49
f 72 49 58
f 20 73 54
f 20 30 74
f 20 74 73
f 51 39 75
f 68 51 76
f 51 77 76
f 51 75 77
f 78 48 40
f 41 78 40
f 44 79 46
f 45 46 79
f 72 80 61
f 62 61 80
f 81 44 69
f 81 82 44
f 44 82 79
f 22 83 41
f 22 65 84
f 22 84 83
f 72 58 85
f 59 85 58
f 47 86 32
f 33 32 86
f 47 48 87
f 78 87 48
f 39 88 75
f 39 63 89
f 39 89 88
f 41 90 78
f 41 91 90
f 41 83 91
f 68 92 69
f 81 69 92
f 59 45 93
f 45 79 93
f 68 76 94
f 68 94 95
f 96 68 95
f 96 92 68
f 97 94 76
f 97 76 77
f 72 98 80
f 72 85 98
f 47 87 99
f 100 86 47
f 100 47 99
f 78 90 95
f 78 95 94
f 78 94 97
f 78 97 87
f 101 77 75
f 101 75 88
f 53 54 102
f 53 103 66
f 104 53 102
f 53 105 103
f 104 105 53
f 54 106 102
f 54 73 106
f 96 95 90
f 96 90 91
f 56 57 107
f 56 107 108
f 56 108 70
f 55 109 57
f 110 107 57
f 110 57 109
f 62 111 60
f 112 63 60
f 112 60 111
f 62 80 113
f 114 113 80
f 114 80 98
f 115 84 65
f 115 65 67
f 116 91 83
f 116 83 84
f 117 55 64
f 55 118 109
f 117 118 55
f 33 86 119
f 64 33 119
f 96 120 92
f 81 92 120
f 59 121 85
f 59 122 121
f 59 93 123
f 59 123 122
f 121 98 85
f 124 67 66
f 124 66 103
f 97 99 87
f 62 113 125
f 62 126 111
f 62 125 126
f 97 77 101
f 127 89 63
f 127 63 112
f 29 128 27
f 29 28 129
f 29 129 130
f 29 130 128
f 30 27 128
f 116 96 91
f 100 119 86
f 96 131 120
f 116 131 96
f 97 132 99
f 97 101 132
f 129 28 71
f 133 88 89
f 133 89 127
f 81 134 82
f 135 81 120
f 135 136 81
f 81 136 134
f 100 99 132
f 79 82 134
f 30 137 74
f 30 138 137
f 30 128 138
f 115 116 84
f 125 113 114
f 79 139 93
f 79 134 140
f 79 140 139
f 121 141 98
f 141 114 98
f 142 71 70
f 142 143 71
f 129 71 143
f 121 144 141
f 121 122 144
f 124 115 67
f 104 102 106
f 64 119 145
f 117 64 145
f 101 88 133
f 135 120 131
f 110 108 107
f 146 73 74
f 146 74 137
f 116 147 131
f 115 148 116
f 116 148 147
f 149 123 93
f 149 93 139
f 100 150 119
f 119 151 145
f 119 150 151
f 135 131 147
f 101 152 132
f 100 132 152
f 101 153 152
f 101 133 153
f 142 70 108
f 141 154 114
f 125 114 155
f 155 114 154
f 156 150 100
f 156 100 152
f 118 157 109
f 158 118 117
f 158 159 118
f 118 159 157
f 124 160 115
f 115 161 148
f 115 160 161
f 146 106 73
f 162 122 123
f 162 123 149
f 163 103 105
f 163 124 103
f 164 111 126
f 125 165 126
f 164 126 165
f 112 111 164
f 141 166 154
f 141 144 166
f 104 167 105
f 163 105 167
f 110 109 157
f 117 145 168
f 158 117 168
f 127 112 169
f 112 164 169
f 170 168 145
f 170 145 151
f 124 171 160
f 163 172 124
f 124 172 171
f 173 147 148
f 173 148 161
f 133 127 174
f 127 169 174
f 125 155 175
f 125 176 165
f 125 175 176
f 104 106 177
f 104 177 167
f 110 178 108
f 110 157 178
f 179 151 150
f 179 150 156
f 173 135 147
f 180 144 122
f 180 122 162
f 155 154 181
f 182 181 154
f 182 154 166
f 156 152 153
f 142 108 183
f 184 183 108
f 184 108 178
f 135 185 136
f 173 186 135
f 135 186 185
f 133 187 153
f 133 174 188
f 133 188 187
f 142 189 143
f 142 183 189
f 146 190 106
f 191 177 106
f 191 106 190
f 192 161 160
f 192 160 171
f 193 129 143
f 193 143 189
f 146 137 194
f 146 194 190
f 156 153 187
f 138 194 137
f 130 129 193
f 134 136 185
f 175 155 181
f 158 168 195
f 196 195 168
f 196 168 170
f 197 159 158
f 197 158 195
f 130 198 128
f 130 193 199
f 130 199 198
f 138 128 198
f 138 200 194
f 138 198 200
f 134 201 140
f 134 185 202
f 134 202 201
f 163 203 172
f 204 171 172
f 204 172 203
f 205 157 159
f 197 206 159
f 205 159 206
f 180 166 144
f 170 151 179
f 207 139 140
f 207 140 201
f 192 173 161
f 182 208 181
f 175 181 208
f 209 163 167
f 163 210 203
f 209 210 163
f 184 189 183
f 197 195 211
f 212 211 195
f 212 195 196
f 182 166 213
f 180 213 166
f 149 139 207
f 209 167 177
f 209 177 191
f 204 192 171
f 179 156 187
f 205 178 157
f 205 184 178
f 214 174 169
f 214 188 174
f 215 190 194
f 215 191 190
f 164 216 169
f 214 169 216
f 217 197 211
f 217 206 197
f 164 165 218
f 164 219 216
f 164 218 219
f 182 220 208
f 182 213 220
f 162 149 221
f 149 207 221
f 173 222 186
f 192 223 173
f 173 223 222
f 218 165 176
f 170 179 224
f 196 170 224
f 225 204 203
f 225 203 210
f 217 211 226
f 212 226 211
f 227 187 188
f 214 228 188
f 227 188 228
f 229 193 189
f 184 229 189
f 175 230 176
f 218 176 230
f 180 162 231
f 162 221 231
f 217 232 206
f 233 205 206
f 233 206 232
f 200 215 194
f 179 187 227
f 234 185 186
f 234 186 222
f 175 208 235
f 175 235 236
f 175 236 230
f 204 237 192
f 225 238 204
f 239 204 238
f 239 237 204
f 240 223 192
f 240 192 237
f 225 210 241
f 209 241 210
f 242 217 226
f 217 243 232
f 242 244 217
f 217 244 243
f 179 245 224
f 179 227 245
f 214 216 246
f 214 246 228
f 235 208 220
f 247 213 180
f 180 231 248
f 247 180 248
f 212 196 249
f 196 224 249
f 199 193 250
f 229 250 193
f 215 209 191
f 233 184 205
f 233 229 184
f 251 220 213
f 251 213 247
f 235 220 251
f 200 198 252
f 200 253 215
f 200 252 253
f 212 254 226
f 242 226 254
f 255 238 225
f 256 225 241
f 255 225 257
f 256 257 225
f 219 246 216
f 209 258 241
f 215 258 209
f 259 202 185
f 259 185 234
f 260 232 243
f 260 233 232
f 239 238 255
f 199 252 198
f 199 250 261
f 199 261 252
f 262 254 212
f 212 249 263
f 262 212 263
f 264 244 242
f 264 265 244
f 266 244 265
f 266 243 244
f 227 228 246
f 264 242 267
f 242 254 267
f 256 241 258
f 255 257 268
f 256 268 257
f 269 222 223
f 269 223 240
f 270 249 224
f 270 224 245
f 219 218 271
f 219 272 246
f 219 271 272
f 240 237 239
f 273 201 202
f 273 202 259
f 255 268 274
f 255 274 275
f 239 255 276
f 255 275 276
f 260 229 233
f 260 250 229
f 227 246 245
f 215 277 258
f 215 253 277
f 274 265 264
f 274 268 265
f 278 265 268
f 278 266 265
f 274 264 279
f 264 267 279
f 280 267 254
f 280 254 262
f 207 201 273
f 274 279 275
f 256 278 268
f 207 281 221
f 207 282 281
f 207 273 282
f 266 260 243
f 283 231 221
f 283 221 281
f 218 230 284
f 218 284 271
f 256 258 277
f 285 278 256
f 285 256 277
f 283 248 231
f 247 248 286
f 251 247 287
f 247 286 287
f 270 263 249
f 283 286 248
f 235 251 288
f 251 287 288
f 289 279 267
f 289 267 280
f 239 276 290
f 240 239 291
f 239 290 291
f 235 292 236
f 235 288 293
f 235 293 292
f 270 245 246
f 270 246 272
f 284 230 236
f 284 236 292
f 285 266 278
f 266 294 260
f 285 294 266
f 261 250 260
f 234 222 269
f 285 253 252
f 285 277 253
f 295 276 275
f 295 290 276
f 295 275 279
f 295 279 289
f 262 263 296
f 270 296 263
f 270 272 271
f 269 240 291
f 261 260 294
f 261 285 252
f 261 294 285
f 280 262 297
f 262 296 297
f 283 298 286
f 283 281 298
f 259 234 299
f 234 269 299
f 270 271 300
f 270 301 296
f 270 300 301
f 289 280 302
f 280 297 302
f 284 300 271
f 303 287 286
f 303 286 298
f 304 291 290
f 269 291 305
f 304 305 291
f 306 288 287
f 306 287 303
f 307 293 288
f 307 288 306
f 304 290 295
f 295 289 308
f 289 302 308
f 282 298 281
f 304 295 309
f 295 308 309
f 310 292 293
f 310 293 307
f 273 259 311
f 259 299 311
f 282 273 312
f 282 313 298
f 282 312 313
f 284 292 310
f 284 314 300
f 284 310 314
f 273 311 312
f 315 297 296
f 315 296 301
f 269 305 316
f 269 316 299
f 315 302 297
f 314 301 300
f 317 303 298
f 317 298 313
f 318 305 304
f 318 316 305
f 319 308 302
f 315 320 302
f 319 302 320
f 321 311 299
f 321 299 316
f 306 303 317
f 318 304 309
f 319 309 308
f 307 306 322
f 306 317 322
f 315 301 323
f 314 323 301
f 319 324 309
f 318 309 324
f 315 323 320
f 317 313 312
f 314 310 325
f 314 325 323
f 310 307 326
f 307 322 326
f 327 312 311
f 317 312 327
f 310 326 325
f 327 311 321
f 317 328 322
f 317 327 328
f 321 316 318
f 319 320 329
f 329 320 323
f 319 329 324
f 329 323 325
f 330 326 322
f 330 322 328
f 327 321 331
f 327 331 328
f 318 324 329
f 321 318 331
f 318 329 331
f 330 325 326
f 330 329 325
f 330 328 331
f 330 331 329
