# 
# Wavefront OBJ file
# Created with Kaydara FBX
# 
mtllib c:\users\tjvan\onedrive\documenten\fontys\minor\nx\.mtlmodels\posterior_tibial_artery.r.obj

g Posterior_tibial_artery_r
v -0.088097 0.364877 -0.043022
v -0.088134 0.362972 -0.042971
v -0.088060 0.362981 -0.043829
v -0.087725 0.364918 -0.042234
v -0.087977 0.360886 -0.043923
v -0.088049 0.360825 -0.043078
v -0.087769 0.362964 -0.042191
v -0.088025 0.364798 -0.043888
v -0.087920 0.366654 -0.043272
v -0.087538 0.366758 -0.042483
v -0.087567 0.362988 -0.044535
v -0.087492 0.360958 -0.044618
v -0.087789 0.358377 -0.044140
v -0.087858 0.358292 -0.043308
v -0.087688 0.360789 -0.042309
v -0.087860 0.366467 -0.044132
v -0.087529 0.364703 -0.044599
v -0.087312 0.358479 -0.044823
v -0.087599 0.368398 -0.043743
v -0.087199 0.368564 -0.042961
v -0.087508 0.355311 -0.044448
v -0.087502 0.358247 -0.042549
v -0.087576 0.355222 -0.043627
v -0.087556 0.368109 -0.044588
v -0.087371 0.366247 -0.044834
v -0.087038 0.355421 -0.045121
v -0.087011 0.364910 -0.041735
v -0.087063 0.362959 -0.041698
v -0.086814 0.366752 -0.041977
v -0.086991 0.360789 -0.041822
v -0.087133 0.370220 -0.044449
v -0.086717 0.370434 -0.043675
v -0.087143 0.351545 -0.044819
v -0.087223 0.355177 -0.042879
v -0.087211 0.351462 -0.044008
v -0.086787 0.362992 -0.044900
v -0.086723 0.361020 -0.044976
v -0.087083 0.367774 -0.045269
v -0.087108 0.369856 -0.045277
v -0.086742 0.364617 -0.044965
v -0.086465 0.368563 -0.042451
v -0.086679 0.351650 -0.045483
v -0.086814 0.358253 -0.042068
v -0.086555 0.358570 -0.045173
v -0.086587 0.366053 -0.045190
v -0.086291 0.355522 -0.045466
v -0.086864 0.351423 -0.043269
v -0.086545 0.355188 -0.042403
v -0.086707 0.346937 -0.045225
v -0.086774 0.346865 -0.044424
v -0.085972 0.370439 -0.043161
v -0.086248 0.347031 -0.045881
v -0.086520 0.372259 -0.045406
v -0.086091 0.372502 -0.044635
v -0.086650 0.369439 -0.045937
v -0.086508 0.371850 -0.046226
v -0.086307 0.367484 -0.045603
v -0.086144 0.364855 -0.041658
v -0.086205 0.362958 -0.041624
v -0.085943 0.351750 -0.045824
v -0.085943 0.366636 -0.041891
v -0.086145 0.360825 -0.041748
v -0.086432 0.346835 -0.043694
v -0.086195 0.351439 -0.042800
v -0.085980 0.358309 -0.041993
v -0.085593 0.368395 -0.042349
v -0.085929 0.362991 -0.044826
v -0.085877 0.361056 -0.044901
v -0.086209 0.341361 -0.045635
v -0.086277 0.341305 -0.044845
v -0.085875 0.364563 -0.044888
v -0.085755 0.341435 -0.046284
v -0.085721 0.358627 -0.045098
v -0.085335 0.372515 -0.044118
v -0.085521 0.347123 -0.046218
v -0.086057 0.371386 -0.046873
v -0.085881 0.369081 -0.046251
v -0.085716 0.365938 -0.045103
v -0.085469 0.355587 -0.045391
v -0.085723 0.355253 -0.042328
v -0.085752 0.374661 -0.046639
v -0.085313 0.374922 -0.045866
v -0.086479 0.259829 -0.047297
v -0.086507 0.246242 -0.047866
v -0.086444 0.246278 -0.048593
v -0.086166 0.259801 -0.046627
v -0.086234 0.232724 -0.049339
v -0.086297 0.232676 -0.048620
v -0.086198 0.246212 -0.047203
v -0.085745 0.374230 -0.047460
v -0.086415 0.259855 -0.048033
v -0.086292 0.273267 -0.046871
v -0.085976 0.273242 -0.046194
v -0.085098 0.370236 -0.043046
v -0.086024 0.246310 -0.049192
v -0.085820 0.232773 -0.049930
v -0.085940 0.341283 -0.044124
v -0.085773 0.346855 -0.043230
v -0.086227 0.273286 -0.047615
v -0.085991 0.259873 -0.048639
v -0.085707 0.219359 -0.050314
v -0.085991 0.232642 -0.047965
v -0.085769 0.219295 -0.049604
v -0.086026 0.286388 -0.046542
v -0.085706 0.286365 -0.045858
v -0.085132 0.351817 -0.045750
v -0.085435 0.367315 -0.045502
v -0.085685 0.332347 -0.046120
v -0.085753 0.332309 -0.045336
v -0.085036 0.341508 -0.046618
v -0.085298 0.219430 -0.050897
v -0.085960 0.286404 -0.047295
v -0.085798 0.273296 -0.048228
v -0.085561 0.259780 -0.046204
v -0.085599 0.246195 -0.046784
v -0.085234 0.332393 -0.046764
v -0.085384 0.351506 -0.042725
v -0.085425 0.362962 -0.041989
v -0.085357 0.364769 -0.042024
v -0.085364 0.273219 -0.045766
v -0.085376 0.360887 -0.042106
v -0.085158 0.366442 -0.042246
v -0.084545 0.374943 -0.045347
v -0.085288 0.370990 -0.047176
v -0.085293 0.373745 -0.048108
v -0.085361 0.246328 -0.049501
v -0.085164 0.232809 -0.050234
v -0.085760 0.299023 -0.046268
v -0.085437 0.299002 -0.045577
v -0.085466 0.219257 -0.048957
v -0.085399 0.232630 -0.047550
v -0.085320 0.259879 -0.048952
v -0.085087 0.286341 -0.045425
v -0.085223 0.358400 -0.042344
v -0.084455 0.372294 -0.043995
v -0.085527 0.286409 -0.047914
v -0.085693 0.299039 -0.047029
v -0.085420 0.332289 -0.044623
v -0.085289 0.341299 -0.043667
v -0.084720 0.347188 -0.046144
v -0.084817 0.368104 -0.042684
v -0.085180 0.361056 -0.044414
v -0.085223 0.362986 -0.044333
v -0.085033 0.358633 -0.044617
v -0.085161 0.364555 -0.044389
v -0.085007 0.368878 -0.046136
v -0.084651 0.219491 -0.051196
v -0.085121 0.273292 -0.048544
v -0.084782 0.206351 -0.051563
v -0.084842 0.206268 -0.050863
v -0.085573 0.311004 -0.046005
v -0.085247 0.310983 -0.045306
v -0.085477 0.322182 -0.046485
v -0.085545 0.322157 -0.045709
v -0.084521 0.332435 -0.047096
v -0.084972 0.346920 -0.043157
v -0.085395 0.375797 -0.047237
v -0.085389 0.375361 -0.048059
v -0.084952 0.376068 -0.046466
v -0.084380 0.206451 -0.052137
v -0.084811 0.298981 -0.045139
v -0.084977 0.355355 -0.042673
v -0.084791 0.355599 -0.044915
v -0.084992 0.365931 -0.044598
v -0.085506 0.311021 -0.046773
v -0.085256 0.299044 -0.047655
v -0.085030 0.322205 -0.047123
v -0.084824 0.259771 -0.046140
v -0.084870 0.246196 -0.046720
v -0.084329 0.369878 -0.043360
v -0.085215 0.322137 -0.045002
v -0.084619 0.273203 -0.045701
v -0.084843 0.286401 -0.048234
v -0.084245 0.341560 -0.046546
v -0.085064 0.311032 -0.047406
v -0.084880 0.219253 -0.048546
v -0.084542 0.206224 -0.050224
v -0.084463 0.351833 -0.045280
v -0.084615 0.310966 -0.044864
v -0.084775 0.332293 -0.044171
v -0.084932 0.362969 -0.042695
v -0.084861 0.364674 -0.042735
v -0.084701 0.367314 -0.044991
v -0.084678 0.232645 -0.047486
v -0.084647 0.351606 -0.043066
v -0.084891 0.360959 -0.042800
v -0.085064 0.376934 -0.047838
v -0.084936 0.374876 -0.048710
v -0.085058 0.376496 -0.048662
v -0.084617 0.377214 -0.047068
v -0.084632 0.246329 -0.049437
v -0.084444 0.232824 -0.050170
v -0.084335 0.286324 -0.045360
v -0.084670 0.366223 -0.042948
v -0.083655 0.374720 -0.045222
v -0.084584 0.259870 -0.048888
v -0.084178 0.376101 -0.045952
v -0.083742 0.206541 -0.052429
v -0.084499 0.341351 -0.043595
v -0.084518 0.373337 -0.048410
v -0.084408 0.370769 -0.047053
v -0.084564 0.299037 -0.047978
v -0.084576 0.322128 -0.044556
v -0.084324 0.322221 -0.047453
v -0.084746 0.358502 -0.043027
v -0.084819 0.361021 -0.043645
v -0.084858 0.362978 -0.043553
v -0.084677 0.358587 -0.043859
v -0.083939 0.219524 -0.051131
v -0.084789 0.364596 -0.043601
v -0.084344 0.367769 -0.043364
v -0.084061 0.347208 -0.045681
v -0.084376 0.273277 -0.048479
v -0.083687 0.371899 -0.044297
v -0.084051 0.298964 -0.045073
v -0.084365 0.311033 -0.047732
v -0.084754 0.378081 -0.048443
v -0.084601 0.376017 -0.049319
v -0.084748 0.377642 -0.049270
v -0.084304 0.378367 -0.047674
v -0.083737 0.332461 -0.047026
v -0.084439 0.355554 -0.044167
v -0.084262 0.368884 -0.045622
v -0.084609 0.366035 -0.043809
v -0.084245 0.347011 -0.043494
v -0.084507 0.355464 -0.043346
v -0.083836 0.377260 -0.046559
v -0.084156 0.374474 -0.049017
v -0.084168 0.219287 -0.048482
v -0.083963 0.206231 -0.049817
v -0.084154 0.259777 -0.046452
v -0.084207 0.246215 -0.047029
v -0.083383 0.193902 -0.053126
v -0.083441 0.193805 -0.052436
v -0.084090 0.286383 -0.048169
v -0.083942 0.273200 -0.046017
v -0.083846 0.310957 -0.044797
v -0.083871 0.369461 -0.044019
v -0.082987 0.194018 -0.053691
v -0.083991 0.332319 -0.044102
v -0.084116 0.351794 -0.044541
v -0.084465 0.379235 -0.049051
v -0.084287 0.377168 -0.049934
v -0.084458 0.378796 -0.049882
v -0.084011 0.379528 -0.048282
v -0.083594 0.341576 -0.046089
v -0.084302 0.367480 -0.044209
v -0.084023 0.232682 -0.047790
v -0.083040 0.206598 -0.052363
v -0.084183 0.351711 -0.043730
v -0.084033 0.246312 -0.049017
v -0.083851 0.232813 -0.049755
v -0.083650 0.286316 -0.045680
v -0.083800 0.322132 -0.044488
v -0.083815 0.375625 -0.049634
v -0.083517 0.378425 -0.047169
v -0.083978 0.259849 -0.048464
v -0.083803 0.299021 -0.047912
v -0.083143 0.193753 -0.051805
v -0.083281 0.375888 -0.045832
v -0.083547 0.322224 -0.047385
v -0.083628 0.373113 -0.048284
v -0.083780 0.341423 -0.043929
v -0.083719 0.347178 -0.044951
v -0.082880 0.374311 -0.045524
v -0.084194 0.380397 -0.049659
v -0.083994 0.378329 -0.050552
v -0.084187 0.379959 -0.050494
v -0.083738 0.380694 -0.048889
v -0.083353 0.219521 -0.050720
v -0.083652 0.370782 -0.046536
v -0.082358 0.194121 -0.053979
v -0.083764 0.273254 -0.048051
v -0.083596 0.311023 -0.047665
v -0.083359 0.298958 -0.045397
v -0.083846 0.369098 -0.044847
v -0.083236 0.371435 -0.044945
v -0.083219 0.379596 -0.047780
v -0.083495 0.376787 -0.050256
v -0.083092 0.332465 -0.046574
v -0.083786 0.347106 -0.044150
v -0.083730 0.259795 -0.047058
v -0.083788 0.246246 -0.047627
v -0.083521 0.219347 -0.048781
v -0.083261 0.206287 -0.049750
v -0.082932 0.377060 -0.046446
v -0.083941 0.381564 -0.050265
v -0.083719 0.379497 -0.051171
v -0.083934 0.381128 -0.051105
v -0.083483 0.381865 -0.049493
v -0.083513 0.273209 -0.046630
v -0.083259 0.374261 -0.048897
v -0.083471 0.286360 -0.047736
v -0.083147 0.310957 -0.045124
v -0.083258 0.341554 -0.045369
v -0.083608 0.232731 -0.048381
v -0.083724 0.246282 -0.048355
v -0.083545 0.232779 -0.049100
v -0.082941 0.380771 -0.048391
v -0.083278 0.332361 -0.044433
v -0.083195 0.377958 -0.050881
v -0.083665 0.259821 -0.047794
v -0.082571 0.193759 -0.051402
v -0.082462 0.206605 -0.051956
v -0.083217 0.286321 -0.046299
v -0.083706 0.382737 -0.050866
v -0.083462 0.380674 -0.051788
v -0.083697 0.382304 -0.051711
v -0.083246 0.383040 -0.050092
v -0.083223 0.371026 -0.045765
v -0.083051 0.219482 -0.050073
v -0.083093 0.322147 -0.044817
v -0.082606 0.378238 -0.047063
v -0.082910 0.375426 -0.049521
v -0.083178 0.298999 -0.047474
v -0.083326 0.341498 -0.044578
v -0.083448 0.273229 -0.047374
v -0.081665 0.194185 -0.053912
v -0.082908 0.322215 -0.046938
v -0.082915 0.379137 -0.051507
v -0.082682 0.381950 -0.048997
v -0.082428 0.373826 -0.046172
v -0.083486 0.383913 -0.051459
v -0.083222 0.381857 -0.052401
v -0.083476 0.383484 -0.052310
v -0.083025 0.384216 -0.050683
v -0.082921 0.298963 -0.046022
v -0.082860 0.373135 -0.047766
v -0.082501 0.375485 -0.046139
v -0.083112 0.219419 -0.049363
v -0.082964 0.311006 -0.047223
v -0.082759 0.332446 -0.045861
v -0.082624 0.206377 -0.050043
v -0.083152 0.286337 -0.047052
v -0.082301 0.379421 -0.047681
v -0.082583 0.376600 -0.050150
v -0.082653 0.380323 -0.052131
v -0.082441 0.383131 -0.049597
v -0.083281 0.385092 -0.052044
v -0.083270 0.384668 -0.052901
v -0.082997 0.383045 -0.053008
v -0.082818 0.385395 -0.051264
v -0.083165 0.191700 -0.053428
v -0.083222 0.191603 -0.052740
v -0.082769 0.191805 -0.053992
v -0.082162 0.206561 -0.051316
v -0.082704 0.310968 -0.045756
v -0.082827 0.332407 -0.045077
v -0.081878 0.193823 -0.051336
v -0.082485 0.374294 -0.048383
v -0.082145 0.376669 -0.046761
v -0.083089 0.386272 -0.052616
v -0.083077 0.385856 -0.053480
v -0.082788 0.384238 -0.053606
v -0.082626 0.386573 -0.051832
v -0.082216 0.384314 -0.050189
v -0.082421 0.373396 -0.046993
v -0.083012 0.188843 -0.053801
v -0.082925 0.191541 -0.052113
v -0.083069 0.188752 -0.053114
v -0.082855 0.298978 -0.046783
v -0.082017 0.380608 -0.048297
v -0.082408 0.381516 -0.052751
v -0.082278 0.377783 -0.050782
v -0.082617 0.188932 -0.054365
v -0.082646 0.322171 -0.045455
v -0.082221 0.206478 -0.050616
v -0.082579 0.322196 -0.046232
v -0.082911 0.387453 -0.053173
v -0.082446 0.387751 -0.052384
v -0.082900 0.185361 -0.054241
v -0.082957 0.185273 -0.053556
v -0.082773 0.188684 -0.052490
v -0.082896 0.387045 -0.054045
v -0.082591 0.385435 -0.054192
v -0.081093 0.194191 -0.053510
v -0.082006 0.385496 -0.050770
v -0.082506 0.185442 -0.054804
v -0.082141 0.191891 -0.054281
v -0.082178 0.382714 -0.053365
v -0.082809 0.181312 -0.054743
v -0.082866 0.181227 -0.054061
v -0.082662 0.185203 -0.052934
v -0.082637 0.310986 -0.046524
v -0.082416 0.181390 -0.055304
v -0.082354 0.191530 -0.051714
v -0.082130 0.375472 -0.049012
v -0.081813 0.377857 -0.047385
v -0.081991 0.378973 -0.051413
v -0.081753 0.381797 -0.048909
v -0.082743 0.388634 -0.053714
v -0.082727 0.388235 -0.054593
v -0.082407 0.386634 -0.054765
v -0.082278 0.388927 -0.052920
v -0.082047 0.375001 -0.046791
v -0.082716 0.176753 -0.055301
v -0.082773 0.176669 -0.054622
v -0.082572 0.181156 -0.053441
v -0.082324 0.176830 -0.055861
v -0.081810 0.386678 -0.051338
v -0.081964 0.383917 -0.053969
v -0.082598 0.171735 -0.055911
v -0.082655 0.171651 -0.055234
v -0.082479 0.176599 -0.054004
v -0.082202 0.188657 -0.052094
v -0.081989 0.188996 -0.054656
v -0.082235 0.387835 -0.055322
v -0.082208 0.171813 -0.056469
v -0.081506 0.382988 -0.049514
v -0.082433 0.166310 -0.056568
v -0.082489 0.166227 -0.055893
v -0.082362 0.171584 -0.054618
v -0.082093 0.185168 -0.052541
v -0.081723 0.380170 -0.052043
v -0.081880 0.185495 -0.055095
v -0.081249 0.193926 -0.051624
v -0.081627 0.387857 -0.051889
v -0.082044 0.166391 -0.057123
v -0.082005 0.181120 -0.053050
v -0.081797 0.376658 -0.049645
v -0.081503 0.379050 -0.048010
v -0.081763 0.385123 -0.054562
v -0.081793 0.181439 -0.055595
v -0.081688 0.376189 -0.047418
v -0.082198 0.160530 -0.057265
v -0.082198 0.166162 -0.055279
v -0.082254 0.160446 -0.056593
v -0.081914 0.176563 -0.053614
v -0.082041 0.374565 -0.047612
v -0.080795 0.194139 -0.052879
v -0.081811 0.160615 -0.057818
v -0.081703 0.176878 -0.056151
v -0.081473 0.381372 -0.052668
v -0.081276 0.384179 -0.050110
v -0.081574 0.386332 -0.055142
v -0.081456 0.389034 -0.052423
v -0.081800 0.171552 -0.054229
v -0.081661 0.191573 -0.051651
v -0.081448 0.191934 -0.054218
v -0.081589 0.171864 -0.056757
v -0.081214 0.380247 -0.048633
v -0.081486 0.377851 -0.050280
v -0.081870 0.154444 -0.058000
v -0.081964 0.160385 -0.055981
v -0.081926 0.154359 -0.057330
v -0.081397 0.387542 -0.055705
v -0.081485 0.154534 -0.058550
v -0.081638 0.166135 -0.054890
v -0.081428 0.166447 -0.057409
v -0.081510 0.188678 -0.052034
v -0.080853 0.194042 -0.052188
v -0.081061 0.385370 -0.050695
v -0.081239 0.382579 -0.053286
v -0.081297 0.189017 -0.054595
v -0.081352 0.377384 -0.048049
v -0.081682 0.375751 -0.048242
v -0.081404 0.185179 -0.052483
v -0.081196 0.160678 -0.058103
v -0.080944 0.381446 -0.049252
v -0.081318 0.181126 -0.052991
v -0.080861 0.386558 -0.051266
v -0.081191 0.185505 -0.055036
v -0.081195 0.379050 -0.050915
v -0.081637 0.154303 -0.056719
v -0.081406 0.160364 -0.055593
v -0.081019 0.383790 -0.053894
v -0.081426 0.148104 -0.058766
v -0.081482 0.148018 -0.058099
v -0.081230 0.176571 -0.053556
v -0.081043 0.148200 -0.059313
v -0.081105 0.181446 -0.055537
v -0.080873 0.154606 -0.058832
v -0.081117 0.171562 -0.054171
v -0.081018 0.176886 -0.056093
v -0.081346 0.376945 -0.048876
v -0.081039 0.378583 -0.048680
v -0.080674 0.387744 -0.051821
v -0.080814 0.385003 -0.054491
v -0.080692 0.382647 -0.049864
v -0.080922 0.380255 -0.051547
v -0.080907 0.171875 -0.056699
v -0.081032 0.191659 -0.051940
v -0.080877 0.191923 -0.053819
v -0.081195 0.147967 -0.057490
v -0.081081 0.154290 -0.056332
v -0.080958 0.166151 -0.054832
v -0.080498 0.388927 -0.052357
v -0.080748 0.166464 -0.057351
v -0.080621 0.386219 -0.055073
v -0.080883 0.188741 -0.052325
v -0.080746 0.379786 -0.049310
v -0.080457 0.383848 -0.050467
v -0.080845 0.141560 -0.059559
v -0.080900 0.141473 -0.058895
v -0.080434 0.148282 -0.059594
v -0.081032 0.378144 -0.049511
v -0.080668 0.381464 -0.052173
v -0.080727 0.188989 -0.054200
v -0.080463 0.141664 -0.060104
v -0.080520 0.160702 -0.058043
v -0.080729 0.160389 -0.055534
v -0.080778 0.185232 -0.052774
v -0.080440 0.387435 -0.055639
v -0.080694 0.181175 -0.053282
v -0.080622 0.185471 -0.054643
v -0.080237 0.385048 -0.051059
v -0.080608 0.176619 -0.053845
v -0.080430 0.382676 -0.052792
v -0.080472 0.380992 -0.049935
v -0.080642 0.147964 -0.057103
v -0.080614 0.141428 -0.058287
v -0.080199 0.154640 -0.058772
v -0.080539 0.181409 -0.055146
v -0.080739 0.379348 -0.050145
v -0.080498 0.171613 -0.054459
v -0.080453 0.176850 -0.055703
v -0.080580 0.191861 -0.053192
v -0.080407 0.154324 -0.056272
v -0.080032 0.386246 -0.051636
v -0.079858 0.141758 -0.060382
v -0.080637 0.191764 -0.052504
v -0.080344 0.171842 -0.056310
v -0.080207 0.383891 -0.053401
v -0.080341 0.166208 -0.055118
v -0.080217 0.382200 -0.050554
v -0.080464 0.380556 -0.050775
v -0.080101 0.134854 -0.060376
v -0.080156 0.134773 -0.059713
v -0.080187 0.166436 -0.056962
v -0.079764 0.148328 -0.059532
v -0.080488 0.188830 -0.052889
v -0.080431 0.188921 -0.053575
v -0.079721 0.134963 -0.060917
v -0.079841 0.387442 -0.052197
v -0.079998 0.385108 -0.053997
v -0.080384 0.185313 -0.053337
v -0.079961 0.160681 -0.057656
v -0.080114 0.160452 -0.055818
v -0.080327 0.185400 -0.054021
v -0.080301 0.181253 -0.053844
v -0.079978 0.383409 -0.051165
v -0.080208 0.381767 -0.051399
v -0.079661 0.388634 -0.052740
v -0.080064 0.141435 -0.057900
v -0.079971 0.148009 -0.057041
v -0.079873 0.134741 -0.059106
v -0.080217 0.176696 -0.054405
v -0.080244 0.181338 -0.054526
v -0.079802 0.386325 -0.054578
v -0.080160 0.176780 -0.055085
v -0.079643 0.154627 -0.058385
v -0.080108 0.171691 -0.055017
v -0.079120 0.135069 -0.061193
v -0.080052 0.171775 -0.055694
v -0.079755 0.384618 -0.051763
v -0.079191 0.141816 -0.060319
v -0.079968 0.382980 -0.052015
v -0.079618 0.387542 -0.055142
v -0.079796 0.154396 -0.056554
v -0.079952 0.166288 -0.055673
v -0.079896 0.166372 -0.056348
v -0.079547 0.385826 -0.052349
v -0.079210 0.148324 -0.059145
v -0.079744 0.384195 -0.052621
v -0.079671 0.160620 -0.057043
v -0.079618 0.131493 -0.060714
v -0.079675 0.131430 -0.060055
v -0.079241 0.131597 -0.061251
v -0.079727 0.160536 -0.056371
v -0.079397 0.141494 -0.057837
v -0.079327 0.134766 -0.058718
v -0.079352 0.387032 -0.052918
v -0.079534 0.385409 -0.053213
v -0.079362 0.148091 -0.057322
v -0.079354 0.154571 -0.057774
v -0.079398 0.131424 -0.059451
v -0.078457 0.135145 -0.061128
v -0.079169 0.388235 -0.053469
v -0.079410 0.154486 -0.057104
v -0.079338 0.386623 -0.053789
v -0.078641 0.141824 -0.059932
v -0.078646 0.131714 -0.061523
v -0.079033 0.128233 -0.060916
v -0.079094 0.128191 -0.060261
v -0.078923 0.148273 -0.058536
v -0.078659 0.128330 -0.061449
v -0.079153 0.387835 -0.054348
v -0.078979 0.148188 -0.057869
v -0.078861 0.131477 -0.059064
v -0.078825 0.128215 -0.059661
v -0.078791 0.141588 -0.058115
v -0.078664 0.134842 -0.058654
v -0.078071 0.128455 -0.061718
v -0.078355 0.141778 -0.059324
v -0.077911 0.135170 -0.060740
v -0.077992 0.131812 -0.061456
v -0.078362 0.125074 -0.061005
v -0.078426 0.125050 -0.060356
v -0.077990 0.125166 -0.061534
v -0.078410 0.141692 -0.058660
v -0.078297 0.128298 -0.059275
v -0.078207 0.131575 -0.058997
v -0.078164 0.125099 -0.059760
v -0.078062 0.134948 -0.058929
v -0.077409 0.125300 -0.061800
v -0.077427 0.128576 -0.061650
v -0.077627 0.135137 -0.060134
v -0.077455 0.131865 -0.061069
v -0.077617 0.122009 -0.061007
v -0.077683 0.121998 -0.060363
v -0.077683 0.135056 -0.059471
v -0.077247 0.122097 -0.061530
v -0.077653 0.128419 -0.059208
v -0.077647 0.125209 -0.059377
v -0.077612 0.131691 -0.059269
v -0.077428 0.122067 -0.059772
v -0.076775 0.125442 -0.061733
v -0.076674 0.122240 -0.061794
v -0.076900 0.128660 -0.061265
v -0.077178 0.131859 -0.060465
v -0.076810 0.119028 -0.060944
v -0.076878 0.119026 -0.060306
v -0.077235 0.131795 -0.059807
v -0.077013 0.125350 -0.059309
v -0.076921 0.122199 -0.059392
v -0.077065 0.128545 -0.059477
v -0.076444 0.119116 -0.061463
v -0.076630 0.128684 -0.060664
v -0.076630 0.119111 -0.059721
v -0.076258 0.125552 -0.061349
v -0.076050 0.122399 -0.061727
v -0.075879 0.119266 -0.061724
v -0.076691 0.128642 -0.060010
v -0.076432 0.125485 -0.059576
v -0.076298 0.122358 -0.059326
v -0.076133 0.119259 -0.059345
v -0.075997 0.125601 -0.060753
v -0.075956 0.116122 -0.060841
v -0.076024 0.116125 -0.060209
v -0.075594 0.116212 -0.061355
v -0.075543 0.122531 -0.061347
v -0.076060 0.125576 -0.060104
v -0.075265 0.119439 -0.061658
v -0.075782 0.116219 -0.059630
v -0.075035 0.116369 -0.061615
v -0.075724 0.122501 -0.059589
v -0.075519 0.119432 -0.059279
v -0.075289 0.122600 -0.060757
v -0.075292 0.116380 -0.059258
v -0.074767 0.119588 -0.061282
v -0.075355 0.122589 -0.060113
v -0.075066 0.113283 -0.060722
v -0.075134 0.113286 -0.060096
v -0.074708 0.113376 -0.061232
v -0.074431 0.116553 -0.061550
v -0.074895 0.113385 -0.059522
v -0.074953 0.119583 -0.059540
v -0.074158 0.113541 -0.061490
v -0.074519 0.119673 -0.060697
v -0.074688 0.116564 -0.059192
v -0.074587 0.119671 -0.060060
v -0.074413 0.113552 -0.059154
v -0.073941 0.116714 -0.061178
v -0.074153 0.110502 -0.060612
v -0.074219 0.110500 -0.059991
v -0.073801 0.110601 -0.061117
v -0.073562 0.113732 -0.061426
v -0.074129 0.116722 -0.059452
v -0.073982 0.110597 -0.059422
v -0.073699 0.116808 -0.060598
v -0.073258 0.110771 -0.061372
v -0.073816 0.113743 -0.059090
v -0.073767 0.116811 -0.059966
v -0.073079 0.113899 -0.061057
v -0.073505 0.110766 -0.059058
v -0.073231 0.107768 -0.060532
v -0.073293 0.107758 -0.059918
v -0.072885 0.107876 -0.061033
v -0.072669 0.110967 -0.061309
v -0.073266 0.113908 -0.059347
v -0.073056 0.107848 -0.059354
v -0.072840 0.113998 -0.060483
v -0.072917 0.110962 -0.058994
v -0.072349 0.108051 -0.061287
v -0.072908 0.114001 -0.059857
v -0.072192 0.111135 -0.060944
v -0.072583 0.108013 -0.058992
v -0.072311 0.105074 -0.060508
v -0.072368 0.105050 -0.059899
v -0.071767 0.108247 -0.061224
v -0.072373 0.111132 -0.059250
v -0.071972 0.105191 -0.061004
v -0.071955 0.111232 -0.060375
v -0.072129 0.105127 -0.059341
v -0.072001 0.108209 -0.058930
v -0.072022 0.111231 -0.059755
v -0.071443 0.105371 -0.061255
v -0.071294 0.108412 -0.060862
v -0.071658 0.105283 -0.058982
v -0.071405 0.102409 -0.060562
v -0.071456 0.102368 -0.059959
v -0.071465 0.108384 -0.059183
v -0.070866 0.105565 -0.061193
v -0.071074 0.102539 -0.061053
v -0.071057 0.108502 -0.060299
v -0.071214 0.102426 -0.059406
v -0.071119 0.108492 -0.059684
v -0.071081 0.105477 -0.058920
v -0.070552 0.102723 -0.061301
v -0.070395 0.105721 -0.060835
v -0.070743 0.102568 -0.059051
v -0.070524 0.099758 -0.060716
v -0.070566 0.099692 -0.060121
v -0.070552 0.105657 -0.059171
v -0.069979 0.102910 -0.061240
v -0.070203 0.099907 -0.061202
v -0.070156 0.105798 -0.060276
v -0.070318 0.099726 -0.059575
v -0.070213 0.105774 -0.059667
v -0.069690 0.100099 -0.061447
v -0.070169 0.102756 -0.058990
v -0.069508 0.103052 -0.060885
v -0.069847 0.099851 -0.059225
v -0.069657 0.097186 -0.061013
v -0.069688 0.097089 -0.060427
v -0.069121 0.100281 -0.061386
v -0.069647 0.102939 -0.059238
v -0.069349 0.097362 -0.061490
v -0.069266 0.103110 -0.060333
v -0.069434 0.097097 -0.059889
v -0.068846 0.097570 -0.061731
v -0.069316 0.103069 -0.059730
v -0.069278 0.100034 -0.059164
v -0.068649 0.100406 -0.061036
v -0.068962 0.097208 -0.059544
v -0.068788 0.094750 -0.061442
v -0.068809 0.094628 -0.060866
v -0.068284 0.097753 -0.061671
v -0.068491 0.094950 -0.061910
v -0.068764 0.100225 -0.059410
v -0.068401 0.100440 -0.060490
v -0.068551 0.094616 -0.060337
v -0.068000 0.095174 -0.062146
v -0.068443 0.100374 -0.059895
v -0.068400 0.097392 -0.059484
v -0.067812 0.097864 -0.061326
v -0.068081 0.094718 -0.059997
v -0.067445 0.095362 -0.062085
v -0.067918 0.092418 -0.061953
v -0.067933 0.092281 -0.061386
v -0.067630 0.092631 -0.062413
v -0.067897 0.097600 -0.059725
v -0.067558 0.097872 -0.060788
v -0.067673 0.092258 -0.060864
v -0.067148 0.092864 -0.062643
v -0.067589 0.097775 -0.060202
v -0.067526 0.094906 -0.059936
v -0.066975 0.095463 -0.061744
v -0.067207 0.092355 -0.060528
v -0.066600 0.093055 -0.062582
v -0.067047 0.090150 -0.062494
v -0.067061 0.090011 -0.061933
v -0.066764 0.090365 -0.062948
v -0.067034 0.095129 -0.060171
v -0.066717 0.095451 -0.061215
v -0.066803 0.089987 -0.061417
v -0.066288 0.090601 -0.063175
v -0.066738 0.095329 -0.060640
v -0.066659 0.092546 -0.060467
v -0.066133 0.093152 -0.062246
v -0.066342 0.090085 -0.061084
v -0.065747 0.090792 -0.063114
v -0.066175 0.087908 -0.063014
v -0.066193 0.087781 -0.062458
v -0.065892 0.088115 -0.063466
v -0.066177 0.092779 -0.060697
v -0.065873 0.093129 -0.061724
v -0.065940 0.087766 -0.061945
v -0.065420 0.088345 -0.063692
v -0.065889 0.092992 -0.061158
v -0.065801 0.090276 -0.061023
v -0.065285 0.090890 -0.062781
v -0.065486 0.087868 -0.061614
v -0.064885 0.088537 -0.063630
v -0.065302 0.085656 -0.063463
v -0.065328 0.085551 -0.062908
v -0.065015 0.085843 -0.063914
v -0.065325 0.090512 -0.061250
v -0.065027 0.090866 -0.062265
v -0.065085 0.085555 -0.062397
v -0.064544 0.086060 -0.064139
v -0.065042 0.090727 -0.061705
v -0.064951 0.088060 -0.061553
v -0.064431 0.088639 -0.063299
v -0.064640 0.085667 -0.062067
v -0.064014 0.086250 -0.064079
v -0.064429 0.083356 -0.063789
v -0.064466 0.083285 -0.063235
v -0.064479 0.088290 -0.061778
v -0.064134 0.083511 -0.064239
v -0.064178 0.088624 -0.062786
v -0.064237 0.083316 -0.062725
v -0.064196 0.088496 -0.062230
v -0.063661 0.083709 -0.064465
v -0.064110 0.085857 -0.062006
v -0.063569 0.086362 -0.063749
v -0.063801 0.083442 -0.062397
v -0.063137 0.083896 -0.064405
v -0.063639 0.086074 -0.062232
v -0.063555 0.080970 -0.063940
v -0.063608 0.080941 -0.063389
v -0.063250 0.081086 -0.064388
v -0.063326 0.086366 -0.063238
v -0.063393 0.081008 -0.062883
v -0.063352 0.086261 -0.062682
v -0.062773 0.081258 -0.064612
v -0.063277 0.083629 -0.062337
v -0.062701 0.084022 -0.064076
v -0.062969 0.081151 -0.062556
v -0.062253 0.081440 -0.064553
v -0.062804 0.083827 -0.062562
v -0.062682 0.078461 -0.063865
v -0.062750 0.078481 -0.063321
v -0.062472 0.084053 -0.063566
v -0.062364 0.078532 -0.064306
v -0.062552 0.078587 -0.062821
v -0.062509 0.083982 -0.063012
v -0.062449 0.081334 -0.062497
v -0.061883 0.078675 -0.064528
v -0.061829 0.081584 -0.064227
v -0.062139 0.078750 -0.062499
v -0.061972 0.081506 -0.062722
v -0.061368 0.078851 -0.064469
v -0.061809 0.075793 -0.063512
v -0.061893 0.075864 -0.062981
v -0.062290 0.051581 -0.048703
v -0.062696 0.051130 -0.048148
v -0.062633 0.050712 -0.048436
v -0.062128 0.051890 -0.048331
v -0.062530 0.051443 -0.047778
v -0.061615 0.081650 -0.063720
v -0.061480 0.075817 -0.063943
v -0.062223 0.051169 -0.048996
v -0.062357 0.050301 -0.048566
v -0.061710 0.076010 -0.062491
v -0.061780 0.052012 -0.047979
v -0.062180 0.051567 -0.047426
v -0.061667 0.081622 -0.063169
v -0.061623 0.078927 -0.062440
v -0.061945 0.050764 -0.049130
v -0.061943 0.050007 -0.048503
v -0.060994 0.075929 -0.064158
v -0.061903 0.052026 -0.049232
v -0.061744 0.052330 -0.048858
v -0.060955 0.079014 -0.064147
v -0.061832 0.051620 -0.049529
v -0.061340 0.051914 -0.047741
v -0.061738 0.051469 -0.047187
v -0.061309 0.076193 -0.062175
v -0.061399 0.052450 -0.048506
v -0.061142 0.079070 -0.062662
v -0.061530 0.050473 -0.049071
v -0.061501 0.049908 -0.048263
v -0.061551 0.051221 -0.049668
v -0.061536 0.052465 -0.049736
v -0.061380 0.052764 -0.049360
v -0.060936 0.072928 -0.062831
v -0.061034 0.073048 -0.062317
v -0.060483 0.076099 -0.064100
v -0.061461 0.052066 -0.050037
v -0.060757 0.079120 -0.063647
v -0.060597 0.072907 -0.063247
v -0.060959 0.052354 -0.048270
v -0.060925 0.051624 -0.047681
v -0.061324 0.051175 -0.047123
v -0.061037 0.052883 -0.049009
v -0.060866 0.073233 -0.061842
v -0.060825 0.079141 -0.063103
v -0.060797 0.076364 -0.062117
v -0.061135 0.050935 -0.049613
v -0.061177 0.051674 -0.050182
v -0.061090 0.050376 -0.048833
v -0.061189 0.052898 -0.050217
v -0.061037 0.053193 -0.049839
v -0.061150 0.050032 -0.047912
v -0.060109 0.072989 -0.063453
v -0.061111 0.052506 -0.050523
v -0.060597 0.052790 -0.048777
v -0.060695 0.053312 -0.049490
v -0.060082 0.076282 -0.063783
v -0.060543 0.052069 -0.048215
v -0.060647 0.051219 -0.047816
v -0.061048 0.050764 -0.047253
v -0.060475 0.073435 -0.061534
v -0.060866 0.053327 -0.050676
v -0.060716 0.053618 -0.050297
v -0.060759 0.051393 -0.050132
v -0.060824 0.052122 -0.050674
v -0.060742 0.050498 -0.048480
v -0.060984 0.050345 -0.047542
v -0.060696 0.050840 -0.049378
v -0.060312 0.076476 -0.062332
v -0.060784 0.052942 -0.050986
v -0.060580 0.050806 -0.048108
v -0.060255 0.053223 -0.049262
v -0.060375 0.053737 -0.049950
v -0.060067 0.069836 -0.061773
v -0.060174 0.069991 -0.061277
v -0.059601 0.073153 -0.063394
v -0.060180 0.052510 -0.048727
v -0.059899 0.076429 -0.063294
v -0.059722 0.069780 -0.062173
v -0.060263 0.051670 -0.048354
v -0.060566 0.053752 -0.051116
v -0.060418 0.054039 -0.050736
v -0.060015 0.070204 -0.060817
v -0.060492 0.052566 -0.051144
v -0.060404 0.051848 -0.050629
v -0.059983 0.076499 -0.062763
v -0.059967 0.073599 -0.061476
v -0.060480 0.053374 -0.051431
v -0.060320 0.051301 -0.049900
v -0.060350 0.050960 -0.049025
v -0.060077 0.054160 -0.050392
v -0.059933 0.053653 -0.049729
v -0.060192 0.051264 -0.048651
v -0.059835 0.052949 -0.049218
v -0.059232 0.069838 -0.062369
v -0.060290 0.054173 -0.051537
v -0.060144 0.054457 -0.051157
v -0.059896 0.052118 -0.048871
v -0.060184 0.053008 -0.051596
v -0.060069 0.052301 -0.051107
v -0.060201 0.053804 -0.051857
v -0.059632 0.070417 -0.060517
v -0.059210 0.073354 -0.063086
v -0.059803 0.054581 -0.050818
v -0.059963 0.051759 -0.050402
v -0.059634 0.054082 -0.050178
v -0.059977 0.051420 -0.049549
v -0.059478 0.073681 -0.061682
v -0.060040 0.054591 -0.051942
v -0.059896 0.054873 -0.051562
v -0.059821 0.051719 -0.049172
v -0.059510 0.053387 -0.049692
v -0.059547 0.052565 -0.049369
v -0.059900 0.053448 -0.052031
v -0.059757 0.052752 -0.051568
v -0.059947 0.054230 -0.052267
v -0.059662 0.068279 -0.061146
v -0.059773 0.068452 -0.060660
v -0.059553 0.055000 -0.051229
v -0.058728 0.069995 -0.062309
v -0.059628 0.052216 -0.050886
v -0.059357 0.054510 -0.050612
v -0.059314 0.068203 -0.061535
v -0.059042 0.073540 -0.062611
v -0.059816 0.055008 -0.052333
v -0.059673 0.055287 -0.051954
v -0.059619 0.068676 -0.060209
v -0.059621 0.051878 -0.050053
v -0.059129 0.070574 -0.060457
v -0.059140 0.073659 -0.062097
v -0.059642 0.053887 -0.052450
v -0.059720 0.054655 -0.052663
v -0.059207 0.053825 -0.050149
v -0.059469 0.052173 -0.049675
v -0.059469 0.053202 -0.052012
v -0.059329 0.055419 -0.051627
v -0.059218 0.053012 -0.049850
v -0.059620 0.055423 -0.052711
v -0.059477 0.055701 -0.052334
v -0.059104 0.054938 -0.051032
v -0.059322 0.066831 -0.060528
v -0.059436 0.067015 -0.060052
v -0.059314 0.052673 -0.051353
v -0.059411 0.054325 -0.052855
v -0.059521 0.055079 -0.053046
v -0.058824 0.068244 -0.061723
v -0.059132 0.055839 -0.052015
v -0.058974 0.066740 -0.060908
v -0.059286 0.052336 -0.050539
v -0.059207 0.053653 -0.052442
v -0.058926 0.054264 -0.050593
v -0.059451 0.055837 -0.053079
v -0.059309 0.056115 -0.052704
v -0.059240 0.068890 -0.059912
v -0.059283 0.067243 -0.059606
v -0.058345 0.070208 -0.062009
v -0.059137 0.052627 -0.050160
v -0.058877 0.055368 -0.051441
v -0.059349 0.055503 -0.053419
v -0.059207 0.054762 -0.053249
v -0.058911 0.053459 -0.050315
v -0.059023 0.053131 -0.051805
v -0.058962 0.056261 -0.052394
v -0.058639 0.070632 -0.060653
v -0.059310 0.056255 -0.053440
v -0.059169 0.056531 -0.053066
v -0.059045 0.065478 -0.059915
v -0.059160 0.065675 -0.059448
v -0.058971 0.054104 -0.052859
v -0.058669 0.054704 -0.051024
v -0.059206 0.055930 -0.053786
v -0.059032 0.055201 -0.053633
v -0.058973 0.052794 -0.051010
v -0.058676 0.055800 -0.051840
v -0.058820 0.056684 -0.052764
v -0.059070 0.057192 -0.054220
v -0.058929 0.057466 -0.053840
v -0.058695 0.065370 -0.060284
v -0.058483 0.066767 -0.061089
v -0.058906 0.067453 -0.059310
v -0.059011 0.065907 -0.059008
v -0.058737 0.069038 -0.059849
v -0.058322 0.068392 -0.061660
v -0.058825 0.053082 -0.050630
v -0.058758 0.053591 -0.052244
v -0.058625 0.053908 -0.050766
v -0.058762 0.054557 -0.053266
v -0.058962 0.056876 -0.054579
v -0.058885 0.055644 -0.054012
v -0.058187 0.070420 -0.061549
v -0.058576 0.057626 -0.053541
v -0.058829 0.064210 -0.059300
v -0.058946 0.064421 -0.058844
v -0.058502 0.056236 -0.052232
v -0.058294 0.070576 -0.061053
v -0.058437 0.055147 -0.051444
v -0.058885 0.058133 -0.054960
v -0.058744 0.058404 -0.054573
v -0.058682 0.053255 -0.051466
v -0.058583 0.055012 -0.053663
v -0.058479 0.064083 -0.059657
v -0.058799 0.064658 -0.058411
v -0.058636 0.066113 -0.058713
v -0.058518 0.054053 -0.052672
v -0.058358 0.056673 -0.052616
v -0.058634 0.056605 -0.054820
v -0.058773 0.057830 -0.055333
v -0.058205 0.065379 -0.060455
v -0.058674 0.063018 -0.058681
v -0.058793 0.063243 -0.058236
v -0.058364 0.054360 -0.051206
v -0.058387 0.058570 -0.054275
v -0.058536 0.053539 -0.051086
v -0.058406 0.067590 -0.059244
v -0.058231 0.055595 -0.051857
v -0.058432 0.055473 -0.054056
v -0.058754 0.059088 -0.055665
v -0.058613 0.059354 -0.055270
v -0.058107 0.057629 -0.053402
v -0.058324 0.062870 -0.059023
v -0.057982 0.066903 -0.061022
v -0.058647 0.063487 -0.057810
v -0.058698 0.062132 -0.057620
v -0.058579 0.061890 -0.058051
v -0.058426 0.064859 -0.058116
v -0.058640 0.058798 -0.056052
v -0.058439 0.057575 -0.055591
v -0.058415 0.053718 -0.051911
v -0.058306 0.054518 -0.053091
v -0.058254 0.059525 -0.054973
v -0.058679 0.060065 -0.056339
v -0.058538 0.060326 -0.055936
v -0.058247 0.069079 -0.060038
v -0.057942 0.068606 -0.061364
v -0.058554 0.062381 -0.057201
v -0.058660 0.061076 -0.056989
v -0.058542 0.060818 -0.057406
v -0.057989 0.064073 -0.059818
v -0.058127 0.054817 -0.051637
v -0.058053 0.056047 -0.052262
v -0.058562 0.059791 -0.056742
v -0.058518 0.061331 -0.056578
v -0.058229 0.061720 -0.058378
v -0.058271 0.053999 -0.051531
v -0.058174 0.056449 -0.054879
v -0.058300 0.058563 -0.056328
v -0.058276 0.063682 -0.057516
v -0.058136 0.066237 -0.058642
v -0.058175 0.060503 -0.055640
v -0.058123 0.054987 -0.053502
v -0.057912 0.058585 -0.054145
v -0.058194 0.060626 -0.057717
v -0.058218 0.059576 -0.057035
v -0.058186 0.062571 -0.056906
v -0.058152 0.061515 -0.056283
v -0.058174 0.054185 -0.052346
v -0.057906 0.056502 -0.052660
v -0.057835 0.062839 -0.059173
v -0.057706 0.065504 -0.060384
v -0.057917 0.055278 -0.052059
v -0.057970 0.055463 -0.053908
v -0.057971 0.057437 -0.055665
v -0.057928 0.064970 -0.058039
v -0.057915 0.067616 -0.059424
v -0.057772 0.059556 -0.054853
v -0.058031 0.054464 -0.051967
v -0.057647 0.057473 -0.053461
v -0.057788 0.068830 -0.060912
v -0.057742 0.061668 -0.058514
v -0.057605 0.067114 -0.060727
v -0.057960 0.054656 -0.052772
v -0.057825 0.058444 -0.056418
v -0.057899 0.069003 -0.060427
v -0.057780 0.063777 -0.057432
v -0.057689 0.060550 -0.055530
v -0.057735 0.055745 -0.052476
v -0.057710 0.060551 -0.057838
v -0.057738 0.059479 -0.057141
v -0.057491 0.064184 -0.059742
v -0.057692 0.062650 -0.056814
v -0.057705 0.056452 -0.054740
v -0.057662 0.061578 -0.056182
v -0.057818 0.054934 -0.052395
v -0.057776 0.055133 -0.053192
v -0.057646 0.066247 -0.058814
v -0.057444 0.058447 -0.054219
v -0.057585 0.056216 -0.052886
v -0.057339 0.062935 -0.059089
v -0.057331 0.065709 -0.060089
v -0.057622 0.055616 -0.053606
v -0.057495 0.057453 -0.055536
v -0.057453 0.067341 -0.060281
v -0.057438 0.064960 -0.058201
v -0.057634 0.055411 -0.052816
v -0.057319 0.057201 -0.053702
v -0.057298 0.059437 -0.054943
v -0.057566 0.067525 -0.059804
v -0.057344 0.058475 -0.056298
v -0.057249 0.061747 -0.058423
v -0.057209 0.060453 -0.055636
v -0.057292 0.063747 -0.057581
v -0.057481 0.055892 -0.053232
v -0.057252 0.059526 -0.057031
v -0.057220 0.060614 -0.057738
v -0.057352 0.056612 -0.054440
v -0.057118 0.064385 -0.059447
v -0.057178 0.061503 -0.056304
v -0.057205 0.062598 -0.056951
v -0.057110 0.058193 -0.054477
v -0.057296 0.066138 -0.059182
v -0.057181 0.065942 -0.059649
v -0.057211 0.056886 -0.054060
v -0.057139 0.057619 -0.055237
v -0.056968 0.063130 -0.058795
v -0.056958 0.059202 -0.055218
v -0.057088 0.064833 -0.058557
v -0.056985 0.058646 -0.056001
v -0.056880 0.061937 -0.058128
v -0.056971 0.064622 -0.059014
v -0.056998 0.057889 -0.054850
v -0.056864 0.060238 -0.055929
v -0.056941 0.063599 -0.057924
v -0.056889 0.059703 -0.056735
v -0.056854 0.060797 -0.057443
v -0.056830 0.061311 -0.056615
v -0.056855 0.062428 -0.057278
v -0.056843 0.058912 -0.055606
v -0.056823 0.063373 -0.058368
v -0.056747 0.059964 -0.056332
v -0.056736 0.062186 -0.057709
v -0.056711 0.061053 -0.057032
usemtl Posterior_tibial_artery_rMaterial0
f 1 2 3
f 4 2 1
f 2 5 3
f 2 6 5
f 7 6 2
f 4 7 2
f 1 3 8
f 9 1 8
f 10 1 9
f 10 4 1
f 8 3 11
f 3 5 12
f 3 12 11
f 6 13 5
f 6 14 13
f 15 14 6
f 7 15 6
f 9 8 16
f 16 8 17
f 8 11 17
f 5 13 18
f 5 18 12
f 19 9 16
f 20 9 19
f 20 10 9
f 14 21 13
f 15 22 14
f 14 23 21
f 22 23 14
f 19 16 24
f 24 16 25
f 16 17 25
f 13 21 26
f 13 26 18
f 27 7 4
f 28 15 7
f 27 28 7
f 29 4 10
f 29 27 4
f 30 22 15
f 28 30 15
f 31 19 24
f 32 20 19
f 32 19 31
f 23 33 21
f 22 34 23
f 34 35 23
f 23 35 33
f 17 11 36
f 11 12 37
f 11 37 36
f 24 25 38
f 31 24 39
f 39 24 38
f 25 17 40
f 17 36 40
f 41 10 20
f 41 29 10
f 21 33 42
f 21 42 26
f 43 34 22
f 30 43 22
f 12 18 44
f 12 44 37
f 38 25 45
f 25 40 45
f 18 26 46
f 18 46 44
f 34 47 35
f 48 47 34
f 43 48 34
f 35 49 33
f 47 50 35
f 35 50 49
f 51 20 32
f 51 41 20
f 33 49 52
f 33 52 42
f 53 31 39
f 54 32 31
f 54 31 53
f 39 38 55
f 56 39 55
f 53 39 56
f 55 38 57
f 38 45 57
f 58 28 27
f 59 30 28
f 58 59 28
f 26 42 60
f 26 60 46
f 61 27 29
f 61 58 27
f 62 43 30
f 59 62 30
f 47 63 50
f 48 64 47
f 64 63 47
f 65 48 43
f 62 65 43
f 66 29 41
f 66 61 29
f 40 36 67
f 36 37 68
f 36 68 67
f 50 69 49
f 63 70 50
f 50 70 69
f 45 40 71
f 40 67 71
f 49 72 52
f 49 69 72
f 37 44 73
f 37 73 68
f 74 32 54
f 74 51 32
f 42 52 75
f 42 75 60
f 56 55 76
f 55 57 77
f 76 55 77
f 57 45 78
f 45 71 78
f 44 46 79
f 44 79 73
f 80 64 48
f 65 80 48
f 81 53 56
f 82 54 53
f 82 53 81
f 83 84 85
f 86 84 83
f 84 87 85
f 84 88 87
f 89 88 84
f 86 89 84
f 90 56 76
f 81 56 90
f 83 85 91
f 92 83 91
f 93 83 92
f 93 86 83
f 94 41 51
f 94 66 41
f 91 85 95
f 85 87 96
f 85 96 95
f 63 97 70
f 64 98 63
f 98 97 63
f 92 91 99
f 99 91 100
f 91 95 100
f 88 101 87
f 89 102 88
f 102 103 88
f 88 103 101
f 104 92 99
f 105 92 104
f 105 93 92
f 46 60 106
f 46 106 79
f 77 57 107
f 57 78 107
f 70 108 69
f 97 109 70
f 70 109 108
f 52 72 110
f 52 110 75
f 87 111 96
f 87 101 111
f 104 99 112
f 99 100 113
f 112 99 113
f 114 89 86
f 115 102 89
f 114 115 89
f 69 116 72
f 69 108 116
f 117 98 64
f 80 117 64
f 118 62 59
f 119 59 58
f 119 118 59
f 120 86 93
f 120 114 86
f 121 65 62
f 118 121 62
f 122 58 61
f 122 119 58
f 123 74 54
f 123 54 82
f 76 77 124
f 90 76 125
f 125 76 124
f 100 95 126
f 95 96 127
f 95 127 126
f 128 104 112
f 129 104 128
f 129 105 104
f 102 130 103
f 115 131 102
f 131 130 102
f 113 100 132
f 100 126 132
f 133 93 105
f 133 120 93
f 134 80 65
f 121 134 65
f 135 51 74
f 135 94 51
f 112 113 136
f 128 112 137
f 137 112 136
f 97 138 109
f 98 139 97
f 139 138 97
f 60 75 140
f 60 140 106
f 141 61 66
f 141 122 61
f 67 68 142
f 71 67 143
f 67 142 143
f 68 73 144
f 68 144 142
f 78 71 145
f 71 143 145
f 77 107 146
f 124 77 146
f 96 111 147
f 96 147 127
f 136 113 148
f 113 132 148
f 103 149 101
f 130 150 103
f 103 150 149
f 151 128 137
f 152 128 151
f 152 129 128
f 109 153 108
f 109 154 153
f 138 154 109
f 72 116 155
f 72 155 110
f 117 156 98
f 156 139 98
f 157 81 90
f 157 90 158
f 158 90 125
f 159 81 157
f 159 82 81
f 101 160 111
f 101 149 160
f 161 105 129
f 161 133 105
f 162 117 80
f 134 162 80
f 73 79 163
f 73 163 144
f 107 78 164
f 78 145 164
f 151 137 165
f 137 136 166
f 165 137 166
f 108 153 167
f 108 167 116
f 168 115 114
f 169 131 115
f 168 169 115
f 170 66 94
f 170 141 66
f 154 151 165
f 171 151 154
f 171 152 151
f 172 114 120
f 172 168 114
f 154 165 153
f 138 171 154
f 166 136 173
f 136 148 173
f 75 110 174
f 75 174 140
f 153 165 175
f 165 166 175
f 131 176 130
f 176 177 130
f 130 177 150
f 153 175 167
f 79 106 178
f 79 178 163
f 179 129 152
f 179 161 129
f 139 180 138
f 180 171 138
f 181 121 118
f 182 118 119
f 182 181 118
f 146 107 183
f 107 164 183
f 184 176 131
f 169 184 131
f 185 156 117
f 162 185 117
f 186 134 121
f 181 186 121
f 187 157 158
f 158 125 188
f 187 158 189
f 189 158 188
f 190 157 187
f 190 159 157
f 132 126 191
f 126 127 192
f 126 192 191
f 193 120 133
f 193 172 120
f 194 119 122
f 194 182 119
f 195 74 123
f 195 135 74
f 148 132 196
f 132 191 196
f 197 82 159
f 197 123 82
f 111 198 147
f 111 160 198
f 156 199 139
f 199 180 139
f 125 124 200
f 124 146 201
f 200 124 201
f 188 125 200
f 175 166 202
f 166 173 202
f 203 152 171
f 203 179 152
f 116 167 204
f 116 204 155
f 180 203 171
f 205 162 134
f 186 205 134
f 143 142 206
f 145 143 207
f 143 206 207
f 142 144 208
f 142 208 206
f 127 147 209
f 127 209 192
f 164 145 210
f 145 207 210
f 211 122 141
f 211 194 122
f 106 140 212
f 106 212 178
f 173 148 213
f 148 196 213
f 214 94 135
f 214 170 94
f 215 133 161
f 215 193 133
f 167 175 216
f 175 202 216
f 217 187 189
f 189 188 218
f 217 189 219
f 219 189 218
f 220 187 217
f 220 190 187
f 167 216 204
f 110 155 221
f 110 221 174
f 144 163 222
f 144 222 208
f 146 183 223
f 201 146 223
f 164 210 224
f 183 164 224
f 185 225 156
f 225 199 156
f 205 226 162
f 226 185 162
f 227 159 190
f 227 197 159
f 207 186 181
f 210 207 181
f 210 181 182
f 218 188 228
f 188 200 228
f 207 206 186
f 206 205 186
f 184 229 176
f 176 230 177
f 229 230 176
f 231 169 168
f 232 184 169
f 231 232 169
f 224 210 182
f 224 182 194
f 150 233 149
f 177 234 150
f 150 234 233
f 202 173 235
f 173 213 235
f 236 168 172
f 236 231 168
f 237 161 179
f 237 215 161
f 206 208 205
f 238 211 141
f 238 141 170
f 149 239 160
f 149 233 239
f 240 203 180
f 199 240 180
f 163 178 241
f 163 241 222
f 208 226 205
f 242 217 219
f 219 218 243
f 242 219 244
f 244 219 243
f 245 217 242
f 245 220 217
f 140 174 246
f 140 246 212
f 183 224 247
f 223 183 247
f 232 248 184
f 248 229 184
f 208 222 226
f 247 224 194
f 247 194 211
f 147 249 209
f 147 198 249
f 226 250 185
f 250 225 185
f 196 191 251
f 191 192 252
f 191 252 251
f 253 172 193
f 253 236 172
f 254 179 203
f 254 237 179
f 243 218 255
f 218 228 255
f 256 190 220
f 256 227 190
f 213 196 257
f 196 251 257
f 240 254 203
f 216 202 258
f 202 235 258
f 230 259 177
f 177 259 234
f 260 123 197
f 260 195 123
f 155 204 261
f 155 261 221
f 200 201 262
f 228 200 262
f 225 263 199
f 263 240 199
f 222 250 226
f 178 264 241
f 178 212 264
f 265 214 135
f 265 135 195
f 266 242 244
f 244 243 267
f 266 244 268
f 268 244 267
f 269 242 266
f 269 245 242
f 192 209 270
f 192 270 252
f 222 241 250
f 201 223 271
f 262 201 271
f 160 272 198
f 160 239 272
f 235 213 273
f 213 257 273
f 204 216 274
f 216 258 274
f 275 193 215
f 275 253 193
f 204 274 261
f 276 247 211
f 276 211 238
f 277 238 170
f 277 170 214
f 223 247 276
f 278 220 245
f 278 256 220
f 267 243 279
f 243 255 279
f 271 223 276
f 174 221 280
f 174 280 246
f 250 281 225
f 281 263 225
f 282 232 231
f 283 248 232
f 282 283 232
f 248 284 229
f 229 285 230
f 284 285 229
f 241 281 250
f 286 197 227
f 286 260 197
f 287 266 268
f 268 267 288
f 287 268 289
f 289 268 288
f 290 266 287
f 290 269 266
f 291 231 236
f 291 282 231
f 255 228 292
f 228 262 292
f 241 264 281
f 258 235 293
f 235 273 293
f 294 215 237
f 294 275 215
f 212 295 264
f 212 246 295
f 283 296 248
f 296 284 248
f 257 251 297
f 251 252 298
f 251 298 297
f 299 245 269
f 299 278 245
f 300 254 240
f 263 300 240
f 288 267 301
f 267 279 301
f 273 257 302
f 257 297 302
f 285 303 230
f 230 303 259
f 209 304 270
f 209 249 304
f 305 236 253
f 305 291 236
f 306 287 289
f 289 288 307
f 306 289 308
f 308 289 307
f 309 287 306
f 309 290 287
f 310 276 238
f 310 238 277
f 252 311 298
f 252 270 311
f 312 237 254
f 312 294 237
f 271 276 310
f 313 227 256
f 313 286 227
f 279 255 314
f 255 292 314
f 274 258 315
f 258 293 315
f 300 312 254
f 302 297 283
f 297 296 283
f 302 283 282
f 281 316 263
f 316 300 263
f 264 316 281
f 273 302 317
f 293 273 317
f 198 318 249
f 198 272 318
f 297 298 296
f 317 302 282
f 317 282 291
f 221 261 319
f 221 319 280
f 264 295 316
f 307 288 320
f 288 301 320
f 321 269 290
f 321 299 269
f 322 277 214
f 322 214 265
f 323 306 308
f 308 307 324
f 323 308 325
f 325 308 324
f 326 306 323
f 326 309 306
f 327 253 275
f 327 305 253
f 262 271 328
f 328 271 310
f 329 195 260
f 329 265 195
f 292 262 328
f 298 330 296
f 296 330 284
f 261 274 331
f 274 315 331
f 246 332 295
f 246 280 332
f 298 311 330
f 261 331 319
f 284 333 285
f 330 333 284
f 334 317 291
f 334 291 305
f 335 256 278
f 335 313 256
f 293 317 334
f 315 293 334
f 301 279 336
f 279 314 336
f 324 307 337
f 307 320 337
f 338 290 309
f 338 321 290
f 339 323 325
f 339 325 340
f 340 325 341
f 325 324 341
f 342 323 339
f 342 326 323
f 234 343 233
f 234 344 343
f 259 344 234
f 233 343 345
f 233 345 239
f 270 346 311
f 270 304 346
f 347 275 294
f 347 327 275
f 316 348 300
f 295 348 316
f 333 349 285
f 285 349 303
f 348 312 300
f 295 332 348
f 314 292 350
f 292 328 350
f 351 260 286
f 351 329 260
f 352 339 340
f 352 340 353
f 353 340 354
f 340 341 354
f 355 339 352
f 355 342 339
f 356 309 326
f 356 338 309
f 357 310 277
f 357 277 322
f 344 358 343
f 259 359 344
f 344 360 358
f 359 360 344
f 361 334 305
f 361 305 327
f 328 310 357
f 362 278 299
f 362 335 278
f 341 324 363
f 324 337 363
f 320 301 364
f 301 336 364
f 315 334 361
f 331 315 361
f 343 358 365
f 343 365 345
f 303 359 259
f 366 294 312
f 366 347 294
f 311 367 330
f 330 367 333
f 348 366 312
f 280 319 368
f 280 368 332
f 369 352 353
f 370 352 369
f 370 355 352
f 360 371 358
f 360 372 371
f 373 372 360
f 359 373 360
f 369 353 374
f 374 353 375
f 353 354 375
f 311 346 367
f 249 376 304
f 249 318 376
f 377 326 342
f 377 356 326
f 358 371 378
f 358 378 365
f 239 345 379
f 239 379 272
f 354 341 380
f 341 363 380
f 372 381 371
f 372 382 381
f 383 382 372
f 373 383 372
f 319 331 384
f 331 361 384
f 371 381 385
f 371 385 378
f 386 373 359
f 303 386 359
f 384 361 327
f 384 327 347
f 319 384 368
f 336 314 387
f 314 350 387
f 388 286 313
f 388 351 286
f 337 320 389
f 320 364 389
f 390 299 321
f 390 362 299
f 391 369 374
f 391 374 392
f 392 374 393
f 374 375 393
f 394 369 391
f 394 370 369
f 395 265 329
f 395 322 265
f 382 396 381
f 382 397 396
f 398 397 382
f 383 398 382
f 350 328 357
f 381 396 399
f 381 399 385
f 332 366 348
f 400 342 355
f 400 377 342
f 375 354 401
f 354 380 401
f 397 402 396
f 397 403 402
f 404 403 397
f 398 404 397
f 405 383 373
f 386 405 373
f 345 365 406
f 345 406 379
f 332 368 366
f 392 393 407
f 396 402 408
f 396 408 399
f 368 384 347
f 368 347 366
f 409 321 338
f 409 390 321
f 403 410 402
f 403 411 410
f 412 411 403
f 404 412 403
f 413 398 383
f 405 413 383
f 363 337 414
f 337 389 414
f 365 378 415
f 365 415 406
f 367 416 333
f 333 416 349
f 417 355 370
f 417 400 355
f 402 410 418
f 402 418 408
f 419 404 398
f 413 419 398
f 349 386 303
f 364 336 420
f 336 387 420
f 421 313 335
f 421 388 313
f 393 375 422
f 375 401 422
f 378 385 423
f 378 423 415
f 424 329 351
f 424 395 329
f 411 425 410
f 412 426 411
f 411 427 425
f 426 427 411
f 428 412 404
f 419 428 404
f 350 357 429
f 387 350 429
f 304 430 346
f 304 376 430
f 410 425 431
f 410 431 418
f 385 399 432
f 385 432 423
f 429 357 322
f 429 322 395
f 380 363 433
f 363 414 433
f 434 338 356
f 434 409 338
f 407 393 435
f 393 422 435
f 436 370 394
f 436 417 370
f 437 426 412
f 428 437 412
f 438 405 386
f 349 438 386
f 272 379 439
f 272 439 318
f 399 408 440
f 399 440 432
f 441 335 362
f 441 421 335
f 389 364 442
f 364 420 442
f 427 443 425
f 426 444 427
f 444 445 427
f 427 445 443
f 407 435 446
f 425 443 447
f 425 447 431
f 448 444 426
f 437 448 426
f 408 418 449
f 408 449 440
f 450 413 405
f 438 450 405
f 346 451 367
f 367 451 416
f 452 356 377
f 452 434 356
f 401 380 453
f 380 433 453
f 346 430 451
f 379 406 454
f 379 454 439
f 455 351 388
f 455 424 351
f 387 429 456
f 420 387 456
f 457 419 413
f 450 457 413
f 418 431 458
f 418 458 449
f 456 429 395
f 456 395 424
f 459 362 390
f 459 441 362
f 460 428 419
f 457 460 419
f 461 377 400
f 461 452 377
f 406 415 462
f 406 462 454
f 414 389 463
f 389 442 463
f 444 464 445
f 465 464 444
f 448 465 444
f 422 401 466
f 401 453 466
f 445 467 443
f 464 468 445
f 445 468 467
f 469 437 428
f 460 469 428
f 443 470 447
f 443 467 470
f 415 423 471
f 415 471 462
f 416 438 349
f 431 447 472
f 431 472 458
f 473 448 437
f 469 473 437
f 423 432 474
f 423 474 471
f 420 456 475
f 442 420 475
f 476 388 421
f 476 455 388
f 477 400 417
f 477 461 400
f 435 422 478
f 422 466 478
f 479 390 409
f 479 459 390
f 433 414 480
f 414 463 480
f 432 440 481
f 432 481 474
f 475 456 424
f 475 424 455
f 482 450 438
f 416 482 438
f 318 439 483
f 318 483 376
f 464 484 468
f 465 485 464
f 485 484 464
f 486 465 448
f 473 486 448
f 487 417 436
f 487 477 417
f 440 449 488
f 440 488 481
f 446 435 489
f 435 478 489
f 490 457 450
f 482 490 450
f 491 421 441
f 491 476 421
f 492 409 434
f 492 479 409
f 468 493 467
f 484 494 468
f 468 494 493
f 447 470 495
f 447 495 472
f 442 475 496
f 463 442 496
f 453 433 497
f 433 480 497
f 439 454 498
f 439 498 483
f 467 499 470
f 467 493 499
f 449 458 500
f 449 500 488
f 501 485 465
f 486 501 465
f 502 460 457
f 490 502 457
f 446 489 503
f 496 475 455
f 496 455 476
f 504 469 460
f 502 504 460
f 454 462 505
f 454 505 498
f 506 434 452
f 506 492 434
f 507 473 469
f 504 507 469
f 451 482 416
f 466 453 508
f 453 497 508
f 509 441 459
f 509 491 441
f 485 510 484
f 484 511 494
f 510 511 484
f 458 472 512
f 458 512 500
f 462 471 513
f 462 513 505
f 463 496 514
f 480 463 514
f 515 486 473
f 507 515 473
f 471 474 516
f 471 516 513
f 376 483 517
f 376 517 430
f 501 518 485
f 518 510 485
f 519 452 461
f 519 506 452
f 470 499 520
f 470 520 495
f 521 490 482
f 451 521 482
f 514 496 476
f 514 476 491
f 474 481 522
f 474 522 516
f 478 466 523
f 466 508 523
f 524 501 486
f 515 524 486
f 525 459 479
f 525 509 459
f 480 514 526
f 497 480 526
f 494 527 493
f 511 528 494
f 494 528 527
f 481 488 529
f 481 529 522
f 472 495 530
f 472 530 512
f 531 502 490
f 521 531 490
f 483 498 532
f 483 532 517
f 493 533 499
f 493 527 533
f 430 521 451
f 534 461 477
f 534 519 461
f 489 478 535
f 478 523 535
f 430 517 521
f 536 504 502
f 531 536 502
f 488 500 537
f 488 537 529
f 526 514 491
f 526 491 509
f 538 518 501
f 524 538 501
f 498 505 539
f 498 539 532
f 540 507 504
f 536 540 504
f 541 479 492
f 541 525 479
f 497 526 542
f 508 497 542
f 543 477 487
f 543 534 477
f 510 544 511
f 518 545 510
f 545 544 510
f 517 531 521
f 511 546 528
f 544 546 511
f 547 515 507
f 540 547 507
f 505 513 548
f 505 548 539
f 503 489 549
f 489 535 549
f 517 532 531
f 513 516 550
f 513 550 548
f 500 512 551
f 500 551 537
f 552 524 515
f 547 552 515
f 532 536 531
f 499 553 520
f 499 533 553
f 516 522 554
f 516 554 550
f 542 526 509
f 542 509 525
f 555 492 506
f 555 541 492
f 495 520 556
f 495 556 530
f 532 539 536
f 508 542 557
f 523 508 557
f 503 549 558
f 538 559 518
f 559 545 518
f 539 540 536
f 560 538 524
f 552 560 524
f 522 529 561
f 522 561 554
f 539 548 540
f 548 547 540
f 548 550 547
f 562 506 519
f 562 555 506
f 512 530 563
f 512 563 551
f 550 552 547
f 557 542 525
f 557 525 541
f 535 523 564
f 523 557 564
f 529 537 565
f 529 565 561
f 528 566 527
f 546 567 528
f 528 567 566
f 550 554 552
f 527 568 533
f 527 566 568
f 560 569 538
f 569 559 538
f 554 560 552
f 545 570 544
f 544 571 546
f 570 571 544
f 554 561 560
f 572 519 534
f 572 562 519
f 549 535 573
f 535 564 573
f 559 574 545
f 574 570 545
f 537 575 565
f 537 551 575
f 561 569 560
f 564 557 541
f 564 541 555
f 561 565 569
f 546 576 567
f 571 576 546
f 520 577 556
f 520 553 577
f 578 534 543
f 578 572 534
f 569 579 559
f 579 574 559
f 558 549 580
f 549 573 580
f 530 581 563
f 530 556 581
f 573 564 555
f 573 555 562
f 533 568 582
f 533 582 553
f 565 579 569
f 567 583 566
f 576 584 567
f 567 584 583
f 565 575 579
f 551 585 575
f 551 563 585
f 566 586 568
f 566 583 586
f 558 580 587
f 580 573 562
f 580 562 572
f 579 588 574
f 575 588 579
f 571 589 576
f 576 590 584
f 589 590 576
f 574 591 570
f 570 592 571
f 591 592 570
f 588 591 574
f 575 585 588
f 587 580 572
f 587 572 578
f 592 589 571
f 568 586 593
f 568 593 582
f 563 594 585
f 563 581 594
f 556 595 581
f 556 577 595
f 553 582 596
f 553 596 577
f 584 597 583
f 590 598 584
f 584 598 597
f 583 599 586
f 583 597 599
f 585 600 588
f 588 600 591
f 585 594 600
f 589 601 590
f 592 602 589
f 602 601 589
f 590 603 598
f 601 603 590
f 591 604 592
f 600 604 591
f 586 605 593
f 586 599 605
f 604 602 592
f 582 593 606
f 582 606 596
f 581 607 594
f 581 595 607
f 577 596 608
f 577 608 595
f 598 609 597
f 603 610 598
f 598 610 609
f 594 611 600
f 600 611 604
f 597 612 599
f 597 609 612
f 594 607 611
f 602 613 601
f 601 614 603
f 613 614 601
f 604 615 602
f 615 613 602
f 603 616 610
f 614 616 603
f 593 617 606
f 593 605 617
f 611 615 604
f 599 618 605
f 599 612 618
f 596 619 608
f 596 606 619
f 595 620 607
f 595 608 620
f 610 621 609
f 616 622 610
f 610 622 621
f 611 623 615
f 607 623 611
f 613 624 614
f 614 625 616
f 624 625 614
f 615 626 613
f 626 624 613
f 609 627 612
f 609 621 627
f 623 626 615
f 607 620 623
f 608 628 620
f 608 619 628
f 625 629 616
f 616 629 622
f 606 630 619
f 606 617 630
f 605 631 617
f 605 618 631
f 612 632 618
f 612 627 632
f 620 633 623
f 623 633 626
f 620 628 633
f 626 634 624
f 633 634 626
f 624 635 625
f 634 635 624
f 625 636 629
f 635 636 625
f 619 637 628
f 619 630 637
f 622 638 621
f 629 639 622
f 622 639 638
f 621 640 627
f 621 638 640
f 617 641 630
f 617 631 641
f 628 642 633
f 633 642 634
f 618 643 631
f 618 632 643
f 636 644 629
f 629 644 639
f 628 637 642
f 627 645 632
f 627 640 645
f 634 646 635
f 642 646 634
f 635 647 636
f 646 647 635
f 630 648 637
f 630 641 648
f 636 649 644
f 647 649 636
f 631 650 641
f 631 643 650
f 637 651 642
f 642 651 646
f 639 652 638
f 644 653 639
f 639 653 652
f 637 648 651
f 638 654 640
f 638 652 654
f 632 655 643
f 632 645 655
f 649 656 644
f 644 656 653
f 646 657 647
f 651 657 646
f 640 658 645
f 640 654 658
f 641 659 648
f 641 650 659
f 647 660 649
f 657 660 647
f 648 661 651
f 651 661 657
f 649 662 656
f 660 662 649
f 648 659 661
f 643 663 650
f 643 655 663
f 653 664 652
f 656 665 653
f 653 665 664
f 652 666 654
f 652 664 666
f 645 667 655
f 645 658 667
f 657 668 660
f 661 668 657
f 662 669 656
f 656 669 665
f 650 670 659
f 650 663 670
f 654 671 658
f 654 666 671
f 660 672 662
f 668 672 660
f 659 673 661
f 661 673 668
f 659 670 673
f 655 674 663
f 655 667 674
f 662 675 669
f 672 675 662
f 665 676 664
f 669 677 665
f 665 677 676
f 664 678 666
f 664 676 678
f 658 679 667
f 658 671 679
f 668 680 672
f 673 680 668
f 675 681 669
f 669 681 677
f 663 682 670
f 663 674 682
f 672 683 675
f 680 683 672
f 666 684 671
f 666 678 684
f 670 685 673
f 673 685 680
f 670 682 685
f 667 686 674
f 667 679 686
f 675 687 681
f 683 687 675
f 677 688 676
f 681 689 677
f 677 689 688
f 671 690 679
f 671 684 690
f 680 691 683
f 685 691 680
f 676 692 678
f 676 688 692
f 674 693 682
f 674 686 693
f 687 694 681
f 681 694 689
f 683 695 687
f 691 695 683
f 682 696 685
f 685 696 691
f 678 697 684
f 678 692 697
f 682 693 696
f 679 698 686
f 679 690 698
f 687 699 694
f 695 699 687
f 689 700 688
f 694 701 689
f 689 701 700
f 696 702 691
f 691 702 695
f 684 703 690
f 684 697 703
f 688 704 692
f 688 700 704
f 686 705 693
f 686 698 705
f 699 706 694
f 694 706 701
f 693 707 696
f 696 707 702
f 695 708 699
f 702 708 695
f 692 709 697
f 692 704 709
f 693 705 707
f 690 710 698
f 690 703 710
f 699 711 706
f 708 711 699
f 701 712 700
f 706 713 701
f 701 713 712
f 707 714 702
f 702 714 708
f 697 715 703
f 697 709 715
f 700 716 704
f 700 712 716
f 698 717 705
f 698 710 717
f 711 718 706
f 706 718 713
f 705 719 707
f 707 719 714
f 704 720 709
f 704 716 720
f 708 721 711
f 714 721 708
f 705 717 719
f 703 722 710
f 703 715 722
f 711 723 718
f 721 723 711
f 713 724 712
f 718 725 713
f 713 725 724
f 709 726 715
f 709 720 726
f 719 727 714
f 714 727 721
f 712 728 716
f 712 724 728
f 710 729 717
f 710 722 729
f 723 730 718
f 718 730 725
f 716 731 720
f 716 728 731
f 717 732 719
f 719 732 727
f 721 733 723
f 727 733 721
f 717 729 732
f 715 734 722
f 715 726 734
f 723 735 730
f 733 735 723
f 725 736 724
f 730 737 725
f 725 737 736
f 720 738 726
f 720 731 738
f 724 739 728
f 724 736 739
f 732 740 727
f 727 740 733
f 722 741 729
f 722 734 741
f 735 742 730
f 730 742 737
f 728 743 731
f 728 739 743
f 729 744 732
f 732 744 740
f 733 745 735
f 740 745 733
f 729 741 744
f 726 746 734
f 726 738 746
f 735 747 742
f 745 747 735
f 731 748 738
f 731 743 748
f 737 749 736
f 742 750 737
f 737 750 749
f 736 751 739
f 736 749 751
f 744 752 740
f 740 752 745
f 734 753 741
f 734 746 753
f 747 754 742
f 742 754 750
f 739 755 743
f 739 751 755
f 741 756 744
f 744 756 752
f 745 757 747
f 752 757 745
f 741 753 756
f 738 758 746
f 738 748 758
f 747 759 754
f 757 759 747
f 743 760 748
f 743 755 760
f 750 761 749
f 754 762 750
f 750 762 761
f 749 763 751
f 749 761 763
f 756 764 752
f 752 764 757
f 746 765 753
f 746 758 765
f 759 766 754
f 754 766 762
f 751 767 755
f 751 763 767
f 753 768 756
f 756 768 764
f 753 765 768
f 757 769 759
f 764 769 757
f 748 770 758
f 748 760 770
f 759 771 766
f 769 771 759
f 755 772 760
f 755 767 772
f 762 773 761
f 766 774 762
f 762 774 773
f 761 775 763
f 761 773 775
f 768 776 764
f 764 776 769
f 758 777 765
f 758 770 777
f 771 778 766
f 766 778 774
f 763 779 767
f 763 775 779
f 765 780 768
f 768 780 776
f 765 777 780
f 769 781 771
f 776 781 769
f 760 782 770
f 760 772 782
f 771 783 778
f 781 783 771
f 767 784 772
f 767 779 784
f 774 785 773
f 778 786 774
f 774 786 785
f 773 787 775
f 773 785 787
f 780 788 776
f 776 788 781
f 770 789 777
f 770 782 789
f 783 790 778
f 778 790 786
f 775 791 779
f 775 787 791
f 777 792 780
f 780 792 788
f 777 789 792
f 781 793 783
f 788 793 781
f 772 794 782
f 772 784 794
f 783 795 790
f 793 795 783
f 779 796 784
f 779 791 796
f 786 797 785
f 790 798 786
f 786 798 797
f 792 799 788
f 788 799 793
f 785 800 787
f 785 797 800
f 782 801 789
f 782 794 801
f 795 802 790
f 790 802 798
f 789 803 792
f 792 803 799
f 789 801 803
f 787 804 791
f 787 800 804
f 793 805 795
f 799 805 793
f 784 806 794
f 784 796 806
f 795 807 802
f 805 807 795
f 791 808 796
f 791 804 808
f 803 809 799
f 799 809 805
f 798 810 797
f 802 811 798
f 798 811 810
f 797 812 800
f 797 810 812
f 794 813 801
f 794 806 813
f 807 814 802
f 802 814 811
f 801 815 803
f 803 815 809
f 801 813 815
f 800 816 804
f 800 812 816
f 805 817 807
f 809 817 805
f 796 818 806
f 796 808 818
f 807 819 814
f 817 819 807
f 804 820 808
f 804 816 820
f 815 821 809
f 809 821 817
f 811 822 810
f 814 823 811
f 811 823 822
f 806 824 813
f 806 818 824
f 810 825 812
f 810 822 825
f 819 826 814
f 814 826 823
f 813 827 815
f 815 827 821
f 813 824 827
f 817 828 819
f 821 828 817
f 812 829 816
f 812 825 829
f 808 830 818
f 808 820 830
f 819 831 826
f 828 831 819
f 827 832 821
f 821 832 828
f 816 833 820
f 816 829 833
f 823 834 822
f 826 835 823
f 823 835 834
f 836 837 838
f 839 840 837
f 839 837 836
f 818 841 824
f 818 830 841
f 822 842 825
f 822 834 842
f 843 838 844
f 836 838 843
f 831 845 826
f 826 845 835
f 846 847 840
f 846 840 839
f 824 848 827
f 827 848 832
f 824 841 848
f 828 849 831
f 832 849 828
f 843 844 850
f 850 844 851
f 825 852 829
f 825 842 852
f 853 836 843
f 854 839 836
f 854 836 853
f 820 855 830
f 820 833 855
f 856 843 850
f 853 843 856
f 857 847 846
f 857 858 847
f 831 859 845
f 849 859 831
f 860 846 839
f 860 839 854
f 848 861 832
f 832 861 849
f 850 851 862
f 862 851 863
f 856 850 864
f 864 850 862
f 865 853 856
f 866 854 853
f 866 853 865
f 835 867 834
f 845 868 835
f 835 868 867
f 829 869 833
f 829 852 869
f 870 856 864
f 865 856 870
f 830 871 841
f 830 855 871
f 834 872 842
f 834 867 872
f 873 846 860
f 873 857 846
f 874 858 857
f 874 875 858
f 876 860 854
f 876 854 866
f 859 877 845
f 845 877 868
f 841 878 848
f 848 878 861
f 849 879 859
f 861 879 849
f 841 871 878
f 864 862 880
f 870 864 881
f 881 864 880
f 862 863 882
f 880 862 882
f 883 865 870
f 884 866 865
f 884 865 883
f 882 863 885
f 842 886 852
f 842 872 886
f 883 870 887
f 887 870 881
f 888 860 876
f 888 873 860
f 889 876 866
f 889 866 884
f 833 890 855
f 833 869 890
f 891 857 873
f 891 874 857
f 892 893 875
f 892 875 874
f 859 894 877
f 879 894 859
f 895 883 887
f 896 884 883
f 896 883 895
f 881 880 897
f 887 881 898
f 898 881 897
f 882 885 899
f 899 885 900
f 880 882 901
f 897 880 901
f 878 902 861
f 861 902 879
f 895 887 903
f 903 887 898
f 901 882 899
f 904 900 893
f 904 893 892
f 905 876 889
f 905 888 876
f 906 884 896
f 906 889 884
f 868 907 867
f 877 908 868
f 868 908 907
f 899 900 904
f 852 909 869
f 852 886 909
f 910 873 888
f 910 891 873
f 855 911 871
f 855 890 911
f 867 912 872
f 867 907 912
f 913 892 874
f 913 874 891
f 914 895 903
f 915 896 895
f 915 895 914
f 894 916 877
f 877 916 908
f 903 898 917
f 898 897 918
f 917 898 918
f 871 919 878
f 878 919 902
f 879 920 894
f 902 920 879
f 914 903 921
f 921 903 917
f 897 901 922
f 918 897 922
f 871 911 919
f 901 899 923
f 923 899 904
f 924 896 915
f 924 906 896
f 922 901 923
f 925 889 906
f 925 905 889
f 926 904 892
f 926 892 913
f 927 888 905
f 927 910 888
f 872 928 886
f 872 912 928
f 923 904 926
f 929 914 921
f 930 915 914
f 930 914 929
f 931 913 891
f 931 891 910
f 921 917 932
f 917 918 933
f 932 917 933
f 929 921 934
f 934 921 932
f 894 935 916
f 920 935 894
f 869 936 890
f 869 909 936
f 937 915 930
f 937 924 915
f 918 922 938
f 933 918 938
f 939 906 924
f 939 925 906
f 922 923 940
f 940 923 926
f 938 922 940
f 902 941 920
f 919 941 902
f 942 929 934
f 943 930 929
f 943 929 942
f 944 926 913
f 944 913 931
f 945 905 925
f 945 927 905
f 940 926 944
f 946 931 910
f 946 910 927
f 934 932 947
f 932 933 948
f 947 932 948
f 942 934 949
f 949 934 947
f 908 950 907
f 916 951 908
f 908 951 950
f 952 930 943
f 952 937 930
f 886 953 909
f 886 928 953
f 933 938 954
f 948 933 954
f 955 924 937
f 955 939 924
f 907 956 912
f 907 950 956
f 890 957 911
f 890 936 957
f 958 942 949
f 959 943 942
f 959 942 958
f 916 960 951
f 935 960 916
f 938 940 961
f 961 940 944
f 954 938 961
f 920 962 935
f 941 962 920
f 911 963 919
f 919 963 941
f 949 947 964
f 958 949 965
f 965 949 964
f 966 925 939
f 966 945 925
f 967 944 931
f 967 931 946
f 947 948 968
f 964 947 968
f 969 943 959
f 969 952 943
f 911 957 963
f 970 946 927
f 970 927 945
f 961 944 967
f 971 958 965
f 972 959 958
f 972 958 971
f 973 937 952
f 973 955 937
f 951 974 950
f 960 975 951
f 951 975 974
f 948 954 976
f 968 948 976
f 965 964 977
f 971 965 978
f 978 965 977
f 912 956 979
f 912 979 928
f 980 959 972
f 980 969 959
f 950 974 981
f 950 981 956
f 954 961 982
f 982 961 967
f 976 954 982
f 964 968 983
f 977 964 983
f 984 939 955
f 984 966 939
f 985 971 978
f 986 972 971
f 986 971 985
f 935 987 960
f 960 988 975
f 987 988 960
f 962 987 935
f 909 989 936
f 909 953 989
f 990 967 946
f 990 946 970
f 991 952 969
f 991 973 952
f 985 978 992
f 978 977 993
f 992 978 993
f 994 970 945
f 994 945 966
f 982 967 990
f 968 976 995
f 983 968 995
f 996 972 986
f 996 980 972
f 941 997 962
f 963 997 941
f 998 985 992
f 999 986 985
f 999 985 998
f 975 1000 974
f 988 1001 975
f 975 1001 1000
f 977 983 1002
f 993 977 1002
f 1003 955 973
f 1003 984 955
f 998 992 1004
f 992 993 1005
f 1004 992 1005
f 976 982 1006
f 995 976 1006
f 1007 969 980
f 1007 991 969
f 1008 986 999
f 1008 996 986
f 1009 998 1004
f 1010 999 998
f 1010 998 1009
f 974 1000 1011
f 974 1011 981
f 956 981 1012
f 956 1012 979
f 1006 982 990
f 987 1013 988
f 988 1014 1001
f 1013 1014 988
f 962 1015 987
f 1015 1013 987
f 928 979 1016
f 928 1016 953
f 1017 990 970
f 1017 970 994
f 983 995 1018
f 1002 983 1018
f 1019 966 984
f 1019 994 966
f 1005 993 1020
f 993 1002 1020
f 1009 1004 1021
f 1004 1005 1022
f 1021 1004 1022
f 936 1023 957
f 936 989 1023
f 1024 999 1010
f 1024 1008 999
f 1001 1025 1000
f 1014 1026 1001
f 1001 1026 1025
f 1006 990 1017
f 1027 980 996
f 1027 1007 980
f 997 1015 962
f 957 1028 963
f 963 1028 997
f 1029 973 991
f 1029 1003 973
f 1030 1009 1021
f 1031 1010 1009
f 1031 1009 1030
f 995 1006 1032
f 1018 995 1032
f 1022 1005 1033
f 1005 1020 1033
f 1000 1025 1034
f 1000 1034 1011
f 957 1023 1028
f 1014 1035 1026
f 1013 1036 1014
f 1036 1035 1014
f 1032 1006 1017
f 1002 1018 1037
f 1020 1002 1037
f 1038 996 1008
f 1038 1027 996
f 1021 1022 1039
f 1030 1021 1040
f 1040 1021 1039
f 981 1011 1041
f 981 1041 1012
f 1026 1042 1025
f 1035 1043 1026
f 1026 1043 1042
f 1044 984 1003
f 1044 1019 984
f 1045 1010 1031
f 1045 1024 1010
f 1046 1017 994
f 1046 994 1019
f 1015 1047 1013
f 1047 1036 1013
f 1048 991 1007
f 1048 1029 991
f 1039 1022 1049
f 1022 1033 1049
f 1050 1030 1040
f 1051 1031 1030
f 1051 1030 1050
f 1032 1017 1046
f 1052 1008 1024
f 1052 1038 1008
f 1025 1042 1053
f 1025 1053 1034
f 979 1012 1054
f 979 1054 1016
f 1035 1055 1043
f 1055 1056 1043
f 1043 1056 1057
f 1043 1057 1042
f 1058 1055 1035
f 1036 1058 1035
f 1050 1040 1059
f 1040 1039 1060
f 1059 1040 1060
f 1018 1032 1061
f 1037 1018 1061
f 1033 1020 1062
f 1020 1037 1062
f 1063 1031 1051
f 1063 1045 1031
f 1064 1050 1059
f 1065 1050 1064
f 1065 1051 1050
f 997 1066 1015
f 1066 1047 1015
f 953 1067 989
f 953 1016 1067
f 1068 1069 1056
f 1056 1069 1070
f 1055 1068 1056
f 1056 1070 1057
f 1011 1034 1071
f 1011 1071 1041
f 1061 1032 1046
f 1072 1003 1029
f 1072 1044 1003
f 1073 1007 1027
f 1073 1048 1007
f 1069 1064 1074
f 1075 1064 1069
f 1064 1059 1074
f 1075 1065 1064
f 1069 1074 1070
f 1068 1075 1069
f 1042 1057 1076
f 1042 1076 1053
f 1077 1046 1019
f 1077 1019 1044
f 1039 1049 1078
f 1060 1039 1078
f 1074 1059 1079
f 1059 1060 1079
f 1080 1068 1055
f 1058 1080 1055
f 1081 1058 1036
f 1047 1081 1036
f 1028 1066 997
f 1082 1051 1065
f 1082 1063 1051
f 1049 1033 1083
f 1033 1062 1083
f 1084 1024 1045
f 1084 1052 1024
f 1057 1070 1085
f 1057 1085 1076
f 1070 1074 1086
f 1074 1079 1086
f 1087 1075 1068
f 1080 1087 1068
f 1061 1046 1077
f 1088 1065 1075
f 1088 1082 1065
f 1070 1086 1085
f 1037 1061 1089
f 1062 1037 1089
f 1087 1088 1075
f 1090 1027 1038
f 1090 1073 1027
f 1034 1053 1091
f 1034 1091 1071
f 1012 1041 1092
f 1012 1092 1054
f 1093 1029 1048
f 1093 1072 1029
f 1078 1049 1094
f 1049 1083 1094
f 1079 1060 1095
f 1060 1078 1095
f 1096 1080 1058
f 1081 1096 1058
f 1089 1061 1077
f 1066 1097 1047
f 1097 1081 1047
f 1098 1045 1063
f 1098 1084 1045
f 1099 1077 1044
f 1099 1044 1072
f 1100 1038 1052
f 1100 1090 1038
f 989 1101 1023
f 989 1067 1101
f 1053 1076 1102
f 1053 1102 1091
f 1016 1054 1103
f 1016 1103 1067
f 1062 1089 1104
f 1083 1062 1104
f 1086 1079 1105
f 1079 1095 1105
f 1028 1106 1066
f 1023 1106 1028
f 1089 1077 1099
f 1107 1087 1080
f 1096 1107 1080
f 1108 1063 1082
f 1108 1098 1063
f 1106 1097 1066
f 1109 1048 1073
f 1109 1093 1048
f 1076 1085 1110
f 1076 1110 1102
f 1085 1086 1111
f 1086 1105 1111
f 1041 1071 1112
f 1041 1112 1092
f 1085 1111 1110
f 1113 1088 1087
f 1107 1113 1087
f 1023 1101 1106
f 1104 1089 1099
f 1078 1094 1114
f 1095 1078 1114
f 1115 1082 1088
f 1115 1108 1082
f 1113 1115 1088
f 1116 1099 1072
f 1116 1072 1093
f 1083 1104 1117
f 1094 1083 1117
f 1118 1096 1081
f 1097 1118 1081
f 1119 1052 1084
f 1119 1100 1052
f 1120 1073 1090
f 1120 1109 1073
f 1104 1099 1116
f 1071 1091 1121
f 1071 1121 1112
f 1054 1092 1122
f 1054 1122 1103
f 1117 1104 1116
f 1094 1117 1123
f 1114 1094 1123
f 1105 1095 1124
f 1095 1114 1124
f 1067 1125 1101
f 1067 1103 1125
f 1126 1107 1096
f 1118 1126 1096
f 1127 1116 1093
f 1127 1093 1109
f 1128 1090 1100
f 1128 1120 1090
f 1129 1084 1098
f 1129 1119 1084
f 1106 1130 1097
f 1130 1118 1097
f 1101 1130 1106
f 1117 1116 1127
f 1111 1105 1131
f 1105 1124 1131
f 1091 1102 1132
f 1091 1132 1121
f 1123 1117 1127
f 1133 1098 1108
f 1133 1129 1098
f 1134 1113 1107
f 1126 1134 1107
f 1101 1125 1130
f 1135 1127 1109
f 1135 1109 1120
f 1110 1111 1136
f 1111 1131 1136
f 1102 1110 1137
f 1102 1137 1132
f 1114 1123 1138
f 1124 1114 1138
f 1110 1136 1137
f 1092 1112 1139
f 1092 1139 1122
f 1140 1108 1115
f 1140 1133 1108
f 1141 1115 1113
f 1134 1141 1113
f 1141 1140 1115
f 1142 1100 1119
f 1142 1128 1100
f 1130 1143 1118
f 1143 1126 1118
f 1123 1127 1135
f 1138 1123 1135
f 1103 1144 1125
f 1103 1122 1144
f 1145 1135 1120
f 1145 1120 1128
f 1125 1143 1130
f 1138 1135 1145
f 1124 1138 1146
f 1131 1124 1146
f 1112 1121 1147
f 1112 1147 1139
f 1148 1119 1129
f 1148 1142 1119
f 1149 1134 1126
f 1143 1149 1126
f 1125 1144 1143
f 1146 1138 1145
f 1136 1131 1150
f 1131 1146 1150
f 1121 1132 1151
f 1121 1151 1147
f 1122 1152 1144
f 1122 1139 1152
f 1153 1145 1128
f 1153 1128 1142
f 1154 1129 1133
f 1154 1148 1129
f 1155 1141 1134
f 1149 1155 1134
f 1144 1149 1143
f 1137 1136 1156
f 1136 1150 1156
f 1132 1137 1157
f 1132 1157 1151
f 1146 1145 1153
f 1158 1133 1140
f 1158 1154 1133
f 1137 1156 1157
f 1159 1140 1141
f 1155 1159 1141
f 1159 1158 1140
f 1144 1152 1149
f 1150 1146 1153
f 1160 1153 1142
f 1160 1142 1148
f 1139 1147 1161
f 1139 1161 1152
f 1152 1155 1149
f 1150 1153 1160
f 1156 1150 1160
f 1162 1148 1154
f 1162 1160 1148
f 1147 1151 1163
f 1147 1163 1161
f 1152 1161 1155
f 1161 1159 1155
f 1157 1156 1162
f 1156 1160 1162
f 1151 1157 1164
f 1151 1164 1163
f 1164 1154 1158
f 1164 1162 1154
f 1157 1162 1164
f 1163 1158 1159
f 1161 1163 1159
f 1163 1164 1158
