# 
# Wavefront OBJ file
# Created with Kaydara FBX
# 
mtllib c:\users\tjvan\onedrive\documenten\fontys\minor\nx\.mtlmodels\posterior_ligament_of_fibular_head.r.obj

g Posterior_ligament_of_fibular_head_r
v -0.109344 0.416268 -0.049636
v -0.109557 0.415785 -0.049452
v -0.109512 0.415852 -0.049269
v -0.107025 0.414466 -0.049348
v -0.106796 0.414803 -0.049778
v -0.107077 0.414387 -0.049523
v -0.109324 0.416281 -0.049437
v -0.106779 0.414830 -0.049580
v -0.109009 0.416942 -0.049459
v -0.109021 0.416891 -0.049266
v -0.108715 0.417513 -0.049207
v -0.108737 0.417438 -0.049023
v -0.106404 0.415385 -0.049513
v -0.106381 0.415422 -0.049708
v -0.108421 0.418051 -0.048902
v -0.108449 0.417965 -0.048724
v -0.105704 0.416428 -0.049051
v -0.106042 0.415915 -0.049327
v -0.105659 0.416502 -0.049232
v -0.106005 0.415976 -0.049514
v -0.108124 0.418577 -0.048586
v -0.108154 0.418485 -0.048411
v -0.107817 0.419101 -0.048242
v -0.107856 0.418995 -0.048078
v -0.105377 0.416935 -0.048752
v -0.105326 0.417016 -0.048927
v -0.107491 0.419623 -0.047751
v -0.107566 0.419470 -0.047646
v -0.104742 0.417852 -0.047991
v -0.105060 0.417430 -0.048421
v -0.104642 0.417995 -0.048090
v -0.104996 0.417528 -0.048584
v -0.107344 0.419722 -0.047182
v -0.107438 0.419551 -0.047137
v -0.104544 0.418093 -0.047474
v -0.104659 0.417933 -0.047441
v -0.104867 0.412648 -0.049042
v -0.104929 0.412547 -0.049203
v -0.104490 0.412899 -0.049580
v -0.104481 0.412952 -0.049388
v -0.104009 0.413459 -0.049313
v -0.103954 0.413471 -0.049505
v -0.103590 0.413964 -0.049113
v -0.103515 0.413998 -0.049295
v -0.102829 0.414969 -0.048517
v -0.103195 0.414472 -0.048844
v -0.102733 0.415023 -0.048684
v -0.103108 0.414517 -0.049018
v -0.102516 0.415422 -0.048155
v -0.102404 0.415496 -0.048303
v -0.103063 0.410543 -0.048285
v -0.102542 0.410670 -0.048871
v -0.103127 0.410430 -0.048437
v -0.102551 0.410744 -0.048686
v -0.102430 0.415869 -0.047110
v -0.102325 0.415779 -0.047687
v -0.102292 0.416013 -0.047122
v -0.102187 0.415900 -0.047768
v -0.101883 0.411219 -0.048713
v -0.101977 0.411231 -0.048536
v -0.101540 0.411720 -0.048227
v -0.101424 0.411727 -0.048389
v -0.101136 0.412220 -0.047855
v -0.101744 0.408331 -0.047171
v -0.101810 0.408217 -0.047321
v -0.101009 0.412235 -0.048009
v -0.100418 0.413189 -0.047030
v -0.100742 0.412712 -0.047456
v -0.100268 0.413233 -0.047155
v -0.100607 0.412735 -0.047601
v -0.101135 0.408370 -0.047656
v -0.101156 0.408455 -0.047476
v -0.100259 0.413689 -0.046509
v -0.100315 0.414084 -0.045920
v -0.100467 0.413955 -0.045915
v -0.100097 0.413788 -0.046571
v -0.100549 0.408885 -0.047200
v -0.100433 0.408859 -0.047361
v -0.100701 0.406042 -0.045873
v -0.100087 0.405988 -0.046424
v -0.100780 0.405930 -0.046019
v -0.100107 0.406077 -0.046247
v -0.100051 0.409382 -0.046798
v -0.099913 0.409374 -0.046943
v -0.099415 0.406521 -0.045917
v -0.099290 0.406486 -0.046069
v -0.099619 0.409891 -0.046364
v -0.099471 0.409893 -0.046498
v -0.099829 0.403742 -0.044601
v -0.099918 0.403636 -0.044746
v -0.099219 0.410398 -0.045889
v -0.099064 0.410405 -0.046015
v -0.100585 0.394887 -0.037895
v -0.100205 0.394715 -0.037746
v -0.100487 0.395000 -0.037763
v -0.099516 0.396470 -0.040052
v -0.100214 0.394560 -0.037872
v -0.099110 0.396274 -0.040119
v -0.098849 0.407006 -0.045438
v -0.099117 0.396417 -0.039979
v -0.099423 0.396580 -0.039913
v -0.098669 0.411924 -0.044225
v -0.098644 0.411489 -0.044819
v -0.098839 0.411818 -0.044222
v -0.098701 0.406990 -0.045571
v -0.098860 0.410934 -0.045392
v -0.098466 0.411562 -0.044872
v -0.098694 0.410956 -0.045503
v -0.099617 0.394706 -0.037428
v -0.099538 0.394548 -0.037521
v -0.098494 0.396403 -0.039779
v -0.098596 0.396538 -0.039672
v -0.099305 0.403711 -0.044914
v -0.099284 0.403616 -0.045089
v -0.098400 0.407487 -0.044906
v -0.099333 0.401331 -0.043278
v -0.099423 0.401232 -0.043426
v -0.098874 0.401163 -0.043665
v -0.098240 0.407481 -0.045026
v -0.098896 0.401265 -0.043494
v -0.099093 0.394754 -0.037137
v -0.099003 0.394602 -0.037231
v -0.099271 0.398745 -0.041874
v -0.099182 0.398848 -0.041727
v -0.098627 0.404098 -0.044529
v -0.098237 0.401567 -0.043075
v -0.098494 0.404049 -0.044670
v -0.098101 0.401502 -0.043207
v -0.098754 0.398628 -0.042059
v -0.098014 0.407970 -0.044322
v -0.098776 0.398744 -0.041898
v -0.098564 0.394802 -0.036844
v -0.098101 0.396693 -0.039339
v -0.097608 0.396864 -0.038990
v -0.097849 0.407968 -0.044435
v -0.098466 0.394657 -0.036941
v -0.097989 0.396565 -0.039444
v -0.097489 0.396743 -0.039096
v -0.097621 0.408497 -0.043715
v -0.098081 0.404509 -0.044034
v -0.097294 0.409450 -0.042442
v -0.097478 0.409373 -0.042439
v -0.098195 0.398991 -0.041529
v -0.098066 0.398900 -0.041652
v -0.097926 0.404475 -0.044156
v -0.097449 0.408504 -0.043817
v -0.097332 0.409020 -0.043098
v -0.097737 0.401893 -0.042590
v -0.097708 0.399226 -0.041103
v -0.098049 0.394850 -0.036547
v -0.097141 0.397069 -0.038614
v -0.097567 0.399145 -0.041219
v -0.097584 0.401840 -0.042707
v -0.097943 0.394713 -0.036647
v -0.097015 0.396956 -0.038720
v -0.097144 0.409069 -0.043146
v -0.097633 0.404928 -0.043462
v -0.097228 0.405349 -0.042870
v -0.097468 0.404905 -0.043572
v -0.097059 0.405332 -0.042977
v -0.097230 0.399467 -0.040666
v -0.097510 0.394914 -0.036236
v -0.097084 0.399392 -0.040781
v -0.097392 0.394788 -0.036336
v -0.097266 0.402225 -0.042076
v -0.096799 0.405788 -0.042223
v -0.097107 0.402180 -0.042188
v -0.097022 0.395041 -0.035947
v -0.096708 0.397261 -0.038248
v -0.096322 0.397465 -0.037781
v -0.096457 0.406193 -0.041556
v -0.096293 0.406526 -0.040907
v -0.096488 0.406481 -0.040902
v -0.096625 0.405779 -0.042321
v -0.096843 0.394959 -0.035981
v -0.096568 0.397159 -0.038348
v -0.096134 0.397404 -0.037809
v -0.096265 0.406216 -0.041603
v -0.096813 0.402561 -0.041544
v -0.096749 0.399718 -0.040215
v -0.096377 0.402872 -0.040992
v -0.096322 0.399970 -0.039750
v -0.096651 0.402523 -0.041654
v -0.096598 0.399650 -0.040326
v -0.096206 0.402843 -0.041091
v -0.097038 0.395281 -0.035730
v -0.096405 0.397696 -0.037401
v -0.096845 0.395262 -0.035683
v -0.096158 0.399912 -0.039849
v -0.096211 0.397684 -0.037354
v -0.095935 0.400255 -0.039112
v -0.095738 0.400229 -0.039142
v -0.095994 0.403176 -0.040341
v -0.095800 0.403422 -0.039737
v -0.095999 0.403404 -0.039745
v -0.096068 0.400482 -0.038588
v -0.095799 0.403173 -0.040384
v -0.095871 0.400485 -0.038553
usemtl Posterior_ligament_of_fibular_head_rMaterial0
f 1 2 3
f 2 4 3
f 5 2 1
f 2 6 4
f 5 6 2
f 1 3 7
f 8 7 3
f 8 3 4
f 9 1 7
f 5 1 9
f 9 7 10
f 8 10 7
f 11 9 10
f 11 10 12
f 12 10 13
f 8 13 10
f 11 14 9
f 5 9 14
f 15 11 12
f 15 12 16
f 12 17 16
f 12 13 18
f 12 18 17
f 11 15 19
f 11 20 14
f 11 19 20
f 21 15 16
f 21 16 22
f 17 22 16
f 19 15 21
f 23 21 22
f 23 22 24
f 24 22 25
f 17 25 22
f 23 26 21
f 19 21 26
f 27 23 24
f 27 24 28
f 24 29 28
f 24 25 30
f 24 30 29
f 23 27 31
f 23 32 26
f 23 31 32
f 33 27 28
f 33 28 34
f 29 34 28
f 31 27 33
f 35 33 34
f 29 36 34
f 35 34 36
f 31 33 35
f 6 37 4
f 38 6 5
f 6 38 37
f 37 8 4
f 39 5 14
f 38 5 39
f 40 13 8
f 37 40 8
f 41 18 13
f 40 41 13
f 42 14 20
f 39 14 42
f 17 18 43
f 41 43 18
f 19 44 20
f 42 20 44
f 17 45 25
f 17 43 46
f 17 46 45
f 19 26 47
f 19 48 44
f 19 47 48
f 45 30 25
f 47 26 32
f 29 30 49
f 45 49 30
f 31 50 32
f 47 32 50
f 38 51 37
f 38 39 52
f 38 53 51
f 38 52 53
f 37 54 40
f 37 51 54
f 29 55 36
f 29 49 56
f 29 56 55
f 57 35 36
f 57 36 55
f 31 35 57
f 31 58 50
f 31 57 58
f 39 42 59
f 39 59 52
f 40 60 41
f 40 54 60
f 41 61 43
f 41 60 61
f 42 44 62
f 42 62 59
f 61 46 43
f 62 44 48
f 45 46 63
f 61 63 46
f 53 64 51
f 65 53 52
f 53 65 64
f 47 66 48
f 62 48 66
f 64 54 51
f 45 67 49
f 45 63 68
f 45 68 67
f 47 50 69
f 47 70 66
f 47 69 70
f 71 52 59
f 65 52 71
f 72 60 54
f 64 72 54
f 67 56 49
f 55 56 73
f 74 57 55
f 74 55 75
f 55 73 75
f 69 50 58
f 67 73 56
f 57 76 58
f 57 74 76
f 69 58 76
f 77 61 60
f 72 77 60
f 78 59 62
f 71 59 78
f 65 79 64
f 65 71 80
f 65 81 79
f 65 80 81
f 64 82 72
f 64 79 82
f 83 63 61
f 77 83 61
f 84 62 66
f 78 62 84
f 72 85 77
f 72 82 85
f 71 78 86
f 71 86 80
f 87 68 63
f 83 87 63
f 88 66 70
f 84 66 88
f 81 89 79
f 90 81 80
f 81 90 89
f 67 68 91
f 87 91 68
f 89 82 79
f 69 92 70
f 88 70 92
f 93 94 95
f 96 93 95
f 93 97 94
f 93 98 97
f 93 96 98
f 77 99 83
f 77 85 99
f 95 94 100
f 96 95 101
f 95 100 101
f 102 74 75
f 103 75 73
f 102 75 104
f 103 104 75
f 78 84 105
f 78 105 86
f 67 103 73
f 67 91 106
f 67 106 103
f 107 76 74
f 107 74 102
f 69 76 107
f 69 108 92
f 69 107 108
f 97 109 94
f 97 110 109
f 111 110 97
f 111 97 98
f 112 94 109
f 112 100 94
f 89 113 82
f 113 85 82
f 90 80 114
f 114 80 86
f 83 115 87
f 83 99 115
f 90 116 89
f 90 117 116
f 90 118 117
f 90 114 118
f 84 88 119
f 84 119 105
f 89 116 120
f 89 120 113
f 110 121 109
f 112 109 121
f 115 91 87
f 110 122 121
f 111 122 110
f 123 96 101
f 123 98 96
f 119 88 92
f 123 101 124
f 124 101 100
f 117 124 116
f 117 123 124
f 123 117 118
f 113 125 85
f 125 99 85
f 124 120 116
f 113 120 126
f 113 126 125
f 114 86 127
f 114 128 118
f 114 127 128
f 127 86 105
f 123 129 98
f 123 118 129
f 130 106 91
f 115 130 91
f 124 100 131
f 124 131 120
f 129 111 98
f 131 100 112
f 122 132 121
f 112 121 133
f 121 132 134
f 121 134 133
f 135 92 108
f 119 92 135
f 122 136 132
f 111 137 122
f 122 138 136
f 122 137 138
f 131 126 120
f 129 118 128
f 103 106 139
f 130 139 106
f 125 140 99
f 115 99 140
f 141 102 104
f 103 142 104
f 141 104 142
f 131 112 143
f 131 143 126
f 129 144 111
f 129 128 144
f 127 105 145
f 119 145 105
f 107 146 108
f 135 108 146
f 107 102 141
f 103 139 147
f 103 147 142
f 125 126 148
f 125 148 140
f 112 149 143
f 112 133 149
f 136 150 132
f 151 132 150
f 151 134 132
f 111 144 152
f 111 152 137
f 127 153 128
f 127 145 153
f 136 154 150
f 155 154 136
f 155 136 138
f 107 156 146
f 107 141 156
f 115 140 157
f 115 158 130
f 115 157 158
f 148 126 143
f 119 159 145
f 119 135 160
f 119 160 159
f 148 143 149
f 161 149 133
f 161 133 134
f 153 144 128
f 148 157 140
f 153 152 144
f 154 162 150
f 151 150 162
f 158 139 130
f 163 137 152
f 163 138 137
f 154 164 162
f 155 164 154
f 153 145 159
f 160 135 146
f 148 149 161
f 148 165 157
f 148 161 165
f 158 157 165
f 166 147 139
f 158 166 139
f 161 134 151
f 153 163 152
f 153 159 167
f 153 167 163
f 164 168 162
f 151 162 169
f 162 168 170
f 162 170 169
f 163 155 138
f 160 167 159
f 142 147 171
f 172 141 142
f 142 171 173
f 172 142 173
f 174 146 156
f 160 146 174
f 164 175 168
f 155 176 164
f 164 177 175
f 164 176 177
f 166 171 147
f 141 178 156
f 141 172 178
f 161 179 165
f 158 165 179
f 161 151 180
f 161 180 179
f 158 179 181
f 158 181 166
f 151 182 180
f 151 169 182
f 174 156 178
f 163 167 183
f 160 183 167
f 163 184 155
f 163 183 184
f 160 185 183
f 160 174 185
f 175 186 168
f 187 168 186
f 175 188 186
f 188 187 186
f 187 170 168
f 155 184 189
f 155 189 176
f 190 188 175
f 190 175 177
f 188 190 187
f 181 179 180
f 181 171 166
f 181 180 182
f 191 169 170
f 191 182 169
f 185 184 183
f 185 174 178
f 185 189 184
f 192 176 189
f 192 177 176
f 193 173 171
f 194 172 173
f 193 195 173
f 194 173 195
f 181 193 171
f 191 170 187
f 190 196 187
f 191 187 196
f 181 182 191
f 181 191 193
f 197 178 172
f 197 172 194
f 185 178 197
f 192 190 177
f 190 198 196
f 192 198 190
f 185 192 189
f 185 197 192
f 191 196 195
f 198 195 196
f 191 195 193
f 198 194 195
f 192 194 198
f 192 197 194
