# 
# Wavefront OBJ file
# Created with Kaydara FBX
# 
mtllib c:\users\tjvan\onedrive\documenten\fontys\minor\nx\.mtlmodels\posterior_intermuscular_septum_of_leg.r.obj

g Posterior_intermuscular_septum_of_leg_r
v -0.135590 0.315078 -0.062344
v -0.135637 0.319801 -0.062183
v -0.135616 0.319814 -0.062382
v -0.135480 0.324459 -0.062001
v -0.129985 0.319566 -0.061545
v -0.135501 0.324440 -0.061803
v -0.129899 0.324073 -0.061183
v -0.135573 0.315087 -0.062543
v -0.129960 0.319580 -0.061743
v -0.129873 0.324090 -0.061381
v -0.135529 0.310425 -0.062427
v -0.129907 0.315051 -0.061854
v -0.135518 0.310435 -0.062627
v -0.129884 0.315063 -0.062053
v -0.135311 0.305904 -0.062608
v -0.129716 0.310573 -0.062136
v -0.135306 0.305916 -0.062808
v -0.129698 0.310586 -0.062335
v -0.135243 0.329041 -0.061374
v -0.135261 0.329014 -0.061177
v -0.129707 0.328537 -0.060749
v -0.129685 0.328560 -0.060946
v -0.135096 0.301405 -0.062813
v -0.129444 0.306129 -0.062465
v -0.135095 0.301415 -0.063013
v -0.129431 0.306143 -0.062664
v -0.134987 0.333494 -0.060570
v -0.134998 0.333461 -0.060373
v -0.129451 0.332944 -0.060161
v -0.129434 0.332973 -0.060359
v -0.134807 0.296895 -0.062979
v -0.134809 0.296904 -0.063179
v -0.129142 0.301714 -0.062969
v -0.129152 0.301701 -0.062770
v -0.134686 0.337873 -0.059718
v -0.134692 0.337840 -0.059521
v -0.129171 0.337280 -0.059474
v -0.129159 0.337312 -0.059671
v -0.134414 0.292433 -0.063087
v -0.134419 0.292439 -0.063286
v -0.128822 0.297300 -0.063214
v -0.128830 0.297290 -0.063015
v -0.134268 0.342230 -0.058934
v -0.134271 0.342198 -0.058736
v -0.128884 0.341576 -0.058768
v -0.128873 0.341607 -0.058965
v -0.133929 0.287918 -0.063188
v -0.133939 0.287924 -0.063387
v -0.128467 0.292909 -0.063441
v -0.128474 0.292901 -0.063241
v -0.133834 0.346606 -0.058269
v -0.133838 0.346576 -0.058072
v -0.128567 0.345883 -0.058092
v -0.128555 0.345914 -0.058289
v -0.133347 0.283408 -0.063310
v -0.133359 0.283413 -0.063509
v -0.128070 0.288513 -0.063633
v -0.128076 0.288504 -0.063433
v -0.133336 0.350971 -0.057615
v -0.133341 0.350939 -0.057418
v -0.128196 0.350201 -0.057396
v -0.128182 0.350234 -0.057593
v -0.132583 0.278894 -0.063462
v -0.132594 0.278897 -0.063662
v -0.127569 0.284094 -0.063869
v -0.127573 0.284086 -0.063669
v -0.132800 0.355341 -0.056874
v -0.132808 0.355306 -0.056677
v -0.127762 0.354496 -0.056615
v -0.127746 0.354531 -0.056811
v -0.132238 0.359699 -0.056088
v -0.132248 0.359665 -0.055891
v -0.127252 0.358791 -0.055793
v -0.127234 0.358825 -0.055989
v -0.131751 0.274441 -0.063570
v -0.131758 0.274443 -0.063770
v -0.126943 0.279659 -0.064010
v -0.126948 0.279655 -0.063810
v -0.131619 0.364063 -0.055369
v -0.131630 0.364033 -0.055171
v -0.126678 0.363107 -0.055029
v -0.126659 0.363136 -0.055226
v -0.130916 0.270010 -0.063746
v -0.130916 0.270012 -0.063946
v -0.126241 0.275234 -0.064004
v -0.126248 0.275233 -0.063804
v -0.130982 0.368446 -0.054730
v -0.130992 0.368419 -0.054532
v -0.126041 0.367435 -0.054383
v -0.126021 0.367460 -0.054580
v -0.130329 0.372800 -0.054102
v -0.130339 0.372772 -0.053904
v -0.125333 0.371770 -0.053794
v -0.125315 0.371796 -0.053992
v -0.130057 0.265636 -0.063907
v -0.130050 0.265638 -0.064107
v -0.125498 0.270852 -0.063936
v -0.125510 0.270851 -0.063736
v -0.129661 0.377146 -0.053403
v -0.129671 0.377114 -0.053206
v -0.124605 0.376055 -0.053116
v -0.124588 0.376085 -0.053313
v -0.128971 0.261277 -0.063912
v -0.128959 0.261280 -0.064112
v -0.124679 0.266482 -0.063853
v -0.124695 0.266480 -0.063654
v -0.124652 0.315110 -0.061107
v -0.124830 0.323771 -0.060445
v -0.124799 0.319436 -0.060762
v -0.124600 0.315126 -0.061299
v -0.124780 0.323785 -0.060638
v -0.124748 0.319451 -0.060955
v -0.124106 0.306420 -0.061856
v -0.124411 0.310780 -0.061471
v -0.124053 0.306439 -0.062048
v -0.124359 0.310797 -0.061663
v -0.124596 0.332503 -0.059667
v -0.124745 0.328122 -0.060125
v -0.124552 0.332525 -0.059861
v -0.124699 0.328138 -0.060319
v -0.129006 0.381494 -0.052639
v -0.129019 0.381462 -0.052442
v -0.123800 0.380354 -0.052307
v -0.123784 0.380386 -0.052504
v -0.124339 0.341282 -0.058394
v -0.124443 0.336896 -0.059085
v -0.123428 0.297644 -0.062541
v -0.123778 0.302027 -0.062217
v -0.123373 0.297658 -0.062733
v -0.123725 0.302044 -0.062409
v -0.124298 0.341313 -0.058587
v -0.124401 0.336923 -0.059278
v -0.127553 0.385868 -0.051921
v -0.127569 0.385844 -0.051723
v -0.122671 0.384698 -0.051488
v -0.122654 0.384723 -0.051686
v -0.128009 0.256995 -0.063965
v -0.123828 0.262144 -0.063599
v -0.127996 0.256999 -0.064164
v -0.123809 0.262147 -0.063798
v -0.124092 0.349904 -0.056947
v -0.124245 0.345626 -0.057675
v -0.124048 0.349936 -0.057139
v -0.124203 0.345656 -0.057868
v -0.122690 0.288939 -0.063052
v -0.123025 0.293285 -0.062902
v -0.122748 0.288927 -0.062861
v -0.123081 0.293274 -0.062710
v -0.126984 0.252677 -0.063972
v -0.122900 0.257860 -0.063604
v -0.126970 0.252684 -0.064172
v -0.122880 0.257864 -0.063803
v -0.123627 0.358388 -0.055371
v -0.123885 0.354133 -0.056160
v -0.123583 0.358419 -0.055563
v -0.123841 0.354166 -0.056352
v -0.121815 0.280188 -0.063427
v -0.122300 0.284599 -0.063277
v -0.121876 0.280178 -0.063237
v -0.122359 0.284586 -0.063086
v -0.124064 0.391531 -0.051264
v -0.124084 0.391524 -0.051065
v -0.120971 0.388827 -0.050877
v -0.120952 0.388840 -0.051076
v -0.126080 0.248517 -0.064208
v -0.121935 0.253613 -0.063629
v -0.126061 0.248528 -0.064407
v -0.121913 0.253620 -0.063827
v -0.122940 0.366902 -0.053996
v -0.123307 0.362660 -0.054621
v -0.122894 0.366924 -0.054190
v -0.123262 0.362688 -0.054813
v -0.120602 0.271372 -0.063306
v -0.121225 0.275757 -0.063423
v -0.120665 0.271366 -0.063116
v -0.121288 0.275751 -0.063233
v -0.125061 0.244291 -0.064423
v -0.121019 0.249383 -0.063674
v -0.125034 0.244303 -0.064621
v -0.120993 0.249391 -0.063872
v -0.121927 0.375386 -0.052899
v -0.122458 0.371125 -0.053466
v -0.121886 0.375409 -0.053093
v -0.122413 0.371145 -0.053660
v -0.124016 0.240048 -0.064681
v -0.120212 0.245102 -0.063718
v -0.123981 0.240060 -0.064877
v -0.120179 0.245110 -0.063915
v -0.119799 0.319170 -0.058866
v -0.120003 0.327702 -0.058453
v -0.119906 0.323412 -0.058661
v -0.119695 0.319181 -0.059037
v -0.119905 0.327713 -0.058627
v -0.119805 0.323422 -0.058834
v -0.119251 0.262710 -0.063030
v -0.119980 0.267015 -0.063059
v -0.119186 0.262719 -0.063219
v -0.119917 0.267023 -0.063248
v -0.119452 0.310621 -0.059331
v -0.119650 0.314907 -0.059078
v -0.119341 0.310637 -0.059496
v -0.119542 0.314921 -0.059246
v -0.120145 0.336486 -0.057727
v -0.120051 0.332068 -0.058198
v -0.120052 0.336508 -0.057903
v -0.119955 0.332084 -0.058373
v -0.120251 0.345241 -0.056391
v -0.120244 0.340889 -0.057073
v -0.120164 0.345267 -0.056570
v -0.120154 0.340914 -0.057250
v -0.118910 0.302005 -0.059904
v -0.119202 0.306328 -0.059622
v -0.120185 0.353713 -0.055009
v -0.120211 0.349491 -0.055711
v -0.120397 0.395605 -0.051089
v -0.118626 0.391905 -0.050489
v -0.120425 0.395618 -0.050892
v -0.118602 0.391904 -0.050687
v -0.118792 0.302022 -0.060065
v -0.119087 0.306345 -0.059785
v -0.120103 0.353742 -0.055189
v -0.120127 0.349518 -0.055890
v -0.123075 0.235719 -0.064711
v -0.119454 0.240766 -0.063758
v -0.123036 0.235728 -0.064907
v -0.119412 0.240775 -0.063954
v -0.121432 0.379673 -0.052219
v -0.121399 0.379700 -0.052415
v -0.119992 0.362243 -0.053578
v -0.120136 0.357995 -0.054293
v -0.119913 0.362267 -0.053760
v -0.120056 0.358023 -0.054474
v -0.118288 0.293329 -0.060250
v -0.118614 0.297664 -0.060101
v -0.118165 0.293342 -0.060407
v -0.118493 0.297679 -0.060260
v -0.122191 0.231266 -0.064747
v -0.118661 0.236403 -0.063787
v -0.122153 0.231277 -0.064943
v -0.118615 0.236413 -0.063981
v -0.119456 0.370731 -0.052465
v -0.119723 0.366483 -0.052948
v -0.117738 0.254095 -0.062970
v -0.118513 0.258408 -0.062986
v -0.119379 0.370745 -0.052648
v -0.119644 0.366501 -0.053130
v -0.117668 0.254108 -0.063157
v -0.118446 0.258418 -0.063175
v -0.117756 0.284711 -0.060533
v -0.118009 0.289009 -0.060374
v -0.117630 0.284725 -0.060687
v -0.117885 0.289022 -0.060530
v -0.120735 0.383947 -0.051436
v -0.120710 0.383973 -0.051633
v -0.121157 0.226938 -0.064791
v -0.117769 0.232061 -0.063855
v -0.121121 0.226950 -0.064988
v -0.117723 0.232074 -0.064049
v -0.118939 0.379320 -0.051655
v -0.119214 0.375029 -0.052073
v -0.117077 0.276116 -0.060761
v -0.117455 0.280425 -0.060685
v -0.118877 0.379336 -0.051845
v -0.119142 0.375043 -0.052259
v -0.116947 0.276130 -0.060912
v -0.117326 0.280439 -0.060837
v -0.120189 0.222641 -0.064902
v -0.116789 0.227745 -0.063975
v -0.120152 0.222651 -0.065098
v -0.116742 0.227759 -0.064169
v -0.116360 0.245390 -0.062951
v -0.116986 0.249754 -0.063009
v -0.116281 0.245399 -0.063134
v -0.116911 0.249765 -0.063194
v -0.119488 0.388160 -0.050774
v -0.119467 0.388177 -0.050972
v -0.118433 0.386963 -0.050827
v -0.118682 0.383553 -0.051194
v -0.118396 0.386979 -0.051023
v -0.118634 0.383571 -0.051388
v -0.116071 0.267435 -0.060817
v -0.116604 0.271772 -0.060785
v -0.115939 0.267451 -0.060966
v -0.116473 0.271787 -0.060935
v -0.116313 0.400277 -0.051154
v -0.115792 0.395258 -0.050113
v -0.116344 0.400297 -0.050958
v -0.115762 0.395245 -0.050310
v -0.116596 0.340140 -0.054573
v -0.116670 0.348800 -0.053624
v -0.116634 0.344473 -0.054118
v -0.119197 0.218452 -0.064888
v -0.115807 0.223450 -0.064029
v -0.116990 0.357552 -0.052575
v -0.116840 0.353203 -0.053125
v -0.116464 0.340157 -0.054722
v -0.116553 0.348819 -0.053784
v -0.116510 0.344490 -0.054274
v -0.119158 0.218460 -0.065084
v -0.115758 0.223462 -0.064222
v -0.116249 0.331600 -0.055165
v -0.116445 0.335877 -0.054940
v -0.116883 0.357576 -0.052742
v -0.116728 0.353227 -0.053289
v -0.116109 0.331612 -0.055308
v -0.116308 0.335893 -0.055085
v -0.115905 0.323047 -0.055260
v -0.116067 0.327326 -0.055234
v -0.116954 0.366250 -0.051492
v -0.117017 0.361879 -0.051986
v -0.115762 0.323054 -0.055401
v -0.115926 0.327335 -0.055376
v -0.116856 0.366264 -0.051666
v -0.116913 0.361899 -0.052156
v -0.115685 0.314490 -0.055404
v -0.115799 0.318763 -0.055318
v -0.115539 0.314499 -0.055540
v -0.115655 0.318770 -0.055457
v -0.117697 0.389890 -0.050526
v -0.117665 0.389895 -0.050723
v -0.115179 0.236829 -0.062763
v -0.115790 0.241080 -0.062841
v -0.115334 0.305934 -0.055677
v -0.115512 0.310205 -0.055528
v -0.116711 0.375037 -0.050876
v -0.116836 0.370663 -0.051127
v -0.115089 0.236844 -0.062941
v -0.115704 0.241089 -0.063022
v -0.116626 0.375044 -0.051056
v -0.116743 0.370672 -0.051304
v -0.115184 0.305947 -0.055808
v -0.115364 0.310216 -0.055662
v -0.114992 0.258764 -0.060814
v -0.115544 0.263097 -0.060825
v -0.118281 0.214274 -0.064900
v -0.114926 0.219187 -0.064004
v -0.114856 0.258782 -0.060960
v -0.115410 0.263114 -0.060973
v -0.118243 0.214286 -0.065096
v -0.114875 0.219197 -0.064197
v -0.116636 0.383656 -0.050506
v -0.116620 0.379375 -0.050680
v -0.114900 0.297416 -0.056019
v -0.115136 0.301682 -0.055853
v -0.116572 0.383665 -0.050695
v -0.116545 0.379382 -0.050865
v -0.114746 0.297429 -0.056146
v -0.114984 0.301695 -0.055981
v -0.116958 0.387868 -0.050417
v -0.116908 0.387875 -0.050610
v -0.117313 0.209998 -0.065031
v -0.114107 0.214948 -0.064020
v -0.114450 0.288808 -0.056293
v -0.114676 0.293121 -0.056146
v -0.117279 0.210018 -0.065227
v -0.114055 0.214963 -0.064212
v -0.114292 0.288818 -0.056415
v -0.114520 0.293132 -0.056271
v -0.113552 0.228310 -0.062975
v -0.114429 0.232589 -0.062839
v -0.114107 0.280284 -0.056566
v -0.114290 0.284517 -0.056425
v -0.113820 0.250036 -0.060842
v -0.114411 0.254420 -0.060828
v -0.113460 0.228332 -0.063152
v -0.114339 0.232611 -0.063016
v -0.115191 0.391569 -0.050065
v -0.113679 0.250053 -0.060983
v -0.114272 0.254440 -0.060971
v -0.115156 0.391571 -0.050262
v -0.113944 0.280295 -0.056681
v -0.114129 0.284527 -0.056544
v -0.116299 0.205692 -0.065326
v -0.113244 0.210705 -0.064254
v -0.116269 0.205718 -0.065522
v -0.113193 0.210729 -0.064446
v -0.113599 0.271837 -0.056894
v -0.113879 0.276078 -0.056726
v -0.114316 0.361721 -0.050174
v -0.114297 0.366140 -0.049893
v -0.114214 0.357355 -0.050562
v -0.113431 0.271852 -0.057001
v -0.113714 0.276090 -0.056837
v -0.114249 0.370608 -0.049717
v -0.114925 0.388345 -0.049695
v -0.114205 0.361738 -0.050340
v -0.114194 0.366151 -0.050064
v -0.114867 0.388346 -0.049887
v -0.114097 0.357376 -0.050722
v -0.114153 0.370614 -0.049892
v -0.114012 0.353056 -0.050976
v -0.114246 0.375062 -0.049676
v -0.114160 0.375065 -0.049857
v -0.113890 0.353077 -0.051133
v -0.114306 0.379441 -0.049758
v -0.113702 0.348589 -0.051177
v -0.113647 0.344055 -0.051283
v -0.114231 0.379444 -0.049943
v -0.114489 0.383818 -0.049811
v -0.113575 0.339892 -0.051305
v -0.114424 0.383825 -0.050000
v -0.113573 0.348604 -0.051329
v -0.113509 0.344066 -0.051427
v -0.113429 0.339903 -0.051441
v -0.113263 0.335656 -0.051198
v -0.112828 0.241326 -0.060603
v -0.113320 0.245643 -0.060733
v -0.115134 0.201388 -0.065797
v -0.112228 0.206479 -0.064644
v -0.113111 0.335668 -0.051328
v -0.112683 0.241340 -0.060739
v -0.113176 0.245657 -0.060871
v -0.115105 0.201418 -0.065993
v -0.112180 0.206509 -0.064836
v -0.112981 0.331464 -0.051200
v -0.112828 0.331475 -0.051327
v -0.112881 0.263235 -0.057111
v -0.113282 0.267543 -0.057015
v -0.112688 0.327277 -0.051222
v -0.112710 0.263254 -0.057213
v -0.113112 0.267560 -0.057120
v -0.112534 0.327285 -0.051350
v -0.112486 0.322974 -0.051212
v -0.111779 0.219659 -0.062924
v -0.112637 0.223959 -0.062992
v -0.112373 0.318671 -0.051176
v -0.111681 0.219675 -0.063098
v -0.112543 0.223977 -0.063168
v -0.112333 0.322979 -0.051341
v -0.112201 0.314398 -0.051178
v -0.112219 0.318677 -0.051304
v -0.112046 0.314405 -0.051305
v -0.112066 0.310124 -0.051203
v -0.111910 0.310133 -0.051328
v -0.111892 0.305818 -0.051280
v -0.111736 0.232885 -0.060666
v -0.112340 0.237098 -0.060536
v -0.111735 0.305829 -0.051403
v -0.113786 0.197067 -0.066348
v -0.111069 0.202260 -0.065081
v -0.111708 0.301540 -0.051408
v -0.113751 0.197100 -0.066542
v -0.111019 0.202294 -0.065271
v -0.111589 0.232913 -0.060798
v -0.112193 0.237118 -0.060670
v -0.111964 0.254548 -0.057268
v -0.112442 0.258904 -0.057188
v -0.111549 0.301551 -0.051529
v -0.111572 0.297273 -0.051553
v -0.111792 0.254569 -0.057368
v -0.112271 0.258924 -0.057289
v -0.111412 0.297284 -0.051672
v -0.111454 0.292982 -0.051695
v -0.111292 0.292992 -0.051812
v -0.111365 0.288664 -0.051807
v -0.111326 0.284373 -0.051892
v -0.111201 0.288673 -0.051920
v -0.111158 0.284379 -0.052001
v -0.110173 0.211175 -0.063074
v -0.110996 0.215396 -0.062895
v -0.111311 0.280116 -0.051961
v -0.110071 0.211207 -0.063243
v -0.110896 0.215418 -0.063067
v -0.111140 0.280124 -0.052064
v -0.111291 0.275855 -0.052125
v -0.111079 0.245837 -0.057274
v -0.111503 0.250184 -0.057314
v -0.112275 0.192828 -0.066910
v -0.109763 0.198024 -0.065520
v -0.112230 0.192862 -0.067102
v -0.109708 0.198059 -0.065709
v -0.111116 0.275864 -0.052222
v -0.110904 0.245854 -0.057370
v -0.111329 0.250201 -0.057412
v -0.111266 0.271657 -0.052346
v -0.110198 0.224325 -0.060962
v -0.111011 0.228648 -0.060888
v -0.110047 0.224353 -0.061089
v -0.110861 0.228678 -0.061018
v -0.111088 0.271669 -0.052437
v -0.111087 0.267486 -0.052553
v -0.110909 0.267502 -0.052642
v -0.110747 0.263233 -0.052754
v -0.110178 0.237150 -0.057212
v -0.110629 0.241497 -0.057188
v -0.110568 0.263252 -0.052842
v -0.110003 0.237171 -0.057307
v -0.110454 0.241515 -0.057284
v -0.110397 0.258919 -0.052939
v -0.110826 0.188686 -0.067461
v -0.108321 0.193801 -0.065807
v -0.110217 0.258939 -0.053025
v -0.110770 0.188721 -0.067650
v -0.108256 0.193836 -0.065993
v -0.108108 0.202766 -0.063866
v -0.109200 0.206989 -0.063431
v -0.108000 0.202810 -0.064028
v -0.109095 0.207030 -0.063596
v -0.110012 0.254583 -0.053102
v -0.109832 0.254602 -0.053187
v -0.108681 0.215624 -0.060865
v -0.109397 0.219974 -0.060910
v -0.109212 0.228550 -0.057755
v -0.109716 0.232828 -0.057430
v -0.108523 0.215651 -0.060985
v -0.109243 0.219999 -0.061034
v -0.109031 0.228577 -0.057836
v -0.109538 0.232852 -0.057520
v -0.109619 0.250263 -0.053215
v -0.109438 0.250281 -0.053298
v -0.109289 0.245966 -0.053240
v -0.109107 0.245983 -0.053322
v -0.109490 0.184549 -0.067785
v -0.106844 0.189644 -0.066019
v -0.109427 0.184582 -0.067972
v -0.106771 0.189681 -0.066202
v -0.108871 0.241598 -0.053301
v -0.108690 0.241617 -0.053384
v -0.107899 0.219944 -0.058097
v -0.108562 0.224294 -0.058012
v -0.107063 0.207108 -0.061278
v -0.107930 0.211335 -0.060982
v -0.108416 0.237111 -0.053447
v -0.106897 0.207151 -0.061380
v -0.107769 0.211370 -0.061094
v -0.107710 0.219969 -0.058159
v -0.108378 0.224322 -0.058083
v -0.108234 0.237130 -0.053529
v -0.105507 0.194336 -0.064373
v -0.106863 0.198546 -0.064210
v -0.105385 0.194381 -0.064525
v -0.106749 0.198591 -0.064368
v -0.108168 0.232614 -0.053711
v -0.107983 0.232634 -0.053785
v -0.108069 0.180407 -0.068047
v -0.105437 0.185493 -0.066280
v -0.108003 0.180438 -0.068233
v -0.105358 0.185528 -0.066460
v -0.107959 0.228291 -0.053958
v -0.107769 0.228313 -0.054018
v -0.106710 0.211146 -0.058104
v -0.107310 0.215545 -0.058058
v -0.107645 0.224040 -0.054137
v -0.106517 0.211176 -0.058145
v -0.107119 0.215570 -0.058111
v -0.107452 0.224064 -0.054181
v -0.106067 0.202898 -0.061674
v -0.105000 0.198701 -0.061961
v -0.106701 0.176429 -0.068241
v -0.104107 0.181305 -0.066501
v -0.106627 0.176457 -0.068424
v -0.104022 0.181337 -0.066678
v -0.105897 0.202946 -0.061766
v -0.104824 0.198751 -0.062042
v -0.107317 0.219720 -0.054268
v -0.107120 0.219743 -0.054297
v -0.106958 0.215215 -0.054377
v -0.106760 0.215237 -0.054394
v -0.106017 0.206795 -0.058297
v -0.105257 0.202485 -0.058573
v -0.106323 0.210730 -0.054518
v -0.106521 0.210705 -0.054511
v -0.105822 0.206829 -0.058325
v -0.105061 0.202522 -0.058586
v -0.104102 0.190180 -0.064505
v -0.102711 0.185995 -0.064722
v -0.103972 0.190227 -0.064650
v -0.102571 0.186041 -0.064859
v -0.105247 0.172076 -0.068406
v -0.102876 0.177001 -0.066632
v -0.105161 0.172099 -0.068585
v -0.102780 0.177029 -0.066805
v -0.105810 0.206262 -0.054660
v -0.106008 0.206234 -0.054665
v -0.105319 0.202009 -0.054740
v -0.105516 0.201980 -0.054758
v -0.103790 0.194520 -0.062060
v -0.102563 0.190302 -0.062117
v -0.104797 0.197740 -0.054716
v -0.104430 0.198269 -0.058804
v -0.104991 0.197708 -0.054749
v -0.103609 0.194572 -0.062126
v -0.102376 0.190354 -0.062166
v -0.104234 0.198310 -0.058802
v -0.104042 0.167787 -0.068375
v -0.101750 0.172709 -0.066632
v -0.103945 0.167805 -0.068549
v -0.101640 0.172732 -0.066798
v -0.104234 0.193429 -0.054653
v -0.104425 0.193397 -0.054702
v -0.103489 0.194058 -0.058877
v -0.103295 0.194100 -0.058858
v -0.103728 0.189060 -0.054634
v -0.103916 0.189032 -0.054697
v -0.102590 0.189758 -0.058929
v -0.102397 0.189795 -0.058892
v -0.100435 0.177278 -0.064829
v -0.101465 0.181671 -0.064792
v -0.102997 0.163454 -0.068294
v -0.100745 0.168354 -0.066450
v -0.100272 0.177311 -0.064940
v -0.101314 0.181711 -0.064916
v -0.102892 0.163471 -0.068463
v -0.100624 0.168374 -0.066608
v -0.103313 0.184766 -0.054637
v -0.103497 0.184743 -0.054711
v -0.101833 0.185428 -0.058976
v -0.101642 0.185459 -0.058923
v -0.102914 0.180501 -0.054638
v -0.103096 0.180480 -0.054720
v -0.101212 0.181113 -0.059015
v -0.101025 0.181138 -0.058950
v -0.102454 0.176310 -0.054729
v -0.102634 0.176290 -0.054814
v -0.100676 0.176813 -0.059030
v -0.102056 0.159127 -0.068185
v -0.099893 0.163991 -0.066324
v -0.100490 0.176836 -0.058959
v -0.101945 0.159139 -0.068351
v -0.099762 0.164009 -0.066474
v -0.101404 0.186009 -0.062180
v -0.100462 0.181613 -0.062158
v -0.101976 0.172118 -0.054841
v -0.102155 0.172099 -0.054930
v -0.100186 0.172530 -0.058984
v -0.101212 0.186055 -0.062211
v -0.100266 0.181651 -0.062168
v -0.100002 0.172552 -0.058909
v -0.101519 0.167894 -0.054939
v -0.101695 0.167877 -0.055031
v -0.099732 0.168225 -0.058910
v -0.101363 0.154799 -0.067957
v -0.099098 0.159597 -0.066141
v -0.099550 0.168245 -0.058831
v -0.101249 0.154807 -0.068121
v -0.098960 0.159613 -0.066284
v -0.098902 0.168517 -0.064519
v -0.099607 0.172881 -0.064702
v -0.101207 0.163633 -0.055034
v -0.101380 0.163617 -0.055132
v -0.099287 0.163929 -0.058879
v -0.098722 0.168542 -0.064601
v -0.099434 0.172909 -0.064798
v -0.099106 0.163947 -0.058796
v -0.100876 0.159378 -0.055079
v -0.101045 0.159360 -0.055183
v -0.098787 0.159638 -0.058870
v -0.100811 0.150430 -0.067755
v -0.098485 0.155200 -0.065908
v -0.100698 0.150438 -0.067920
v -0.098345 0.155213 -0.066050
v -0.098608 0.159658 -0.058782
v -0.100425 0.155065 -0.055097
v -0.100593 0.155044 -0.055204
v -0.098290 0.155355 -0.058816
v -0.098112 0.155377 -0.058727
v -0.100280 0.146067 -0.067619
v -0.097929 0.150815 -0.065776
v -0.100171 0.146074 -0.067786
v -0.097790 0.150828 -0.065919
v -0.099756 0.177200 -0.062167
v -0.099211 0.172826 -0.062076
v -0.099754 0.150786 -0.055158
v -0.099922 0.150764 -0.055265
v -0.097750 0.151070 -0.058806
v -0.099559 0.177231 -0.062163
v -0.099013 0.172853 -0.062060
v -0.097573 0.151093 -0.058716
v -0.099958 0.141669 -0.067430
v -0.097387 0.146391 -0.065681
v -0.099854 0.141667 -0.067601
v -0.097249 0.146402 -0.065825
v -0.099917 0.137297 -0.067077
v -0.097063 0.141943 -0.065638
v -0.099822 0.137292 -0.067253
v -0.099636 0.132961 -0.066841
v -0.096828 0.137546 -0.065497
v -0.099179 0.146600 -0.055300
v -0.099345 0.146574 -0.055409
v -0.097178 0.146791 -0.058772
v -0.097787 0.159775 -0.064229
v -0.098291 0.164154 -0.064360
v -0.096931 0.141947 -0.065788
v -0.099545 0.132957 -0.067019
v -0.096703 0.137547 -0.065654
v -0.097001 0.146819 -0.058683
v -0.097599 0.159797 -0.064294
v -0.098106 0.164177 -0.064432
v -0.098196 0.164140 -0.061854
v -0.098693 0.168475 -0.061952
v -0.099369 0.128638 -0.066580
v -0.096503 0.133202 -0.065252
v -0.099277 0.128631 -0.066758
v -0.096383 0.133202 -0.065412
v -0.098000 0.164163 -0.061823
v -0.098496 0.168499 -0.061927
v -0.099105 0.124311 -0.066233
v -0.096196 0.128835 -0.064940
v -0.098616 0.142528 -0.055075
v -0.098780 0.142494 -0.055186
v -0.096465 0.142519 -0.058524
v -0.099014 0.124303 -0.066411
v -0.096078 0.128832 -0.065101
v -0.096288 0.142551 -0.058436
v -0.098763 0.120040 -0.065847
v -0.095882 0.124492 -0.064597
v -0.098673 0.120033 -0.066026
v -0.095764 0.124488 -0.064759
v -0.097904 0.138265 -0.054707
v -0.098068 0.138231 -0.054816
v -0.095825 0.138256 -0.058183
v -0.097184 0.155464 -0.061732
v -0.097707 0.159799 -0.061793
v -0.098312 0.115670 -0.065527
v -0.095498 0.120227 -0.064252
v -0.098220 0.115666 -0.065704
v -0.095379 0.120223 -0.064413
v -0.095646 0.138287 -0.058099
v -0.096988 0.155489 -0.061698
v -0.097511 0.159823 -0.061761
v -0.096661 0.151044 -0.064007
v -0.097232 0.155407 -0.064115
v -0.096472 0.151066 -0.064069
v -0.097043 0.155429 -0.064178
v -0.098030 0.111063 -0.065339
v -0.095223 0.115904 -0.063872
v -0.097933 0.111060 -0.065514
v -0.095102 0.115903 -0.064030
v -0.097226 0.133989 -0.054353
v -0.097394 0.133959 -0.054457
v -0.095283 0.133921 -0.057846
v -0.097686 0.105829 -0.065134
v -0.094707 0.111406 -0.063601
v -0.097592 0.105833 -0.065311
v -0.094579 0.111404 -0.063755
v -0.095101 0.133949 -0.057767
v -0.096109 0.146780 -0.061535
v -0.096656 0.151126 -0.061657
v -0.097316 0.098888 -0.065108
v -0.094470 0.106674 -0.063184
v -0.097231 0.098897 -0.065289
v -0.094337 0.106677 -0.063333
v -0.095914 0.146807 -0.061501
v -0.096460 0.151151 -0.061622
v -0.096556 0.129615 -0.054139
v -0.096727 0.129589 -0.054239
v -0.094790 0.129577 -0.057564
v -0.095628 0.142256 -0.063763
v -0.096080 0.146663 -0.063851
v -0.096851 0.092642 -0.065212
v -0.094294 0.099261 -0.063841
v -0.095442 0.142273 -0.063834
v -0.095891 0.146684 -0.063915
v -0.096762 0.092644 -0.065391
v -0.094162 0.099269 -0.063992
v -0.094606 0.129601 -0.057490
v -0.096674 0.083558 -0.065182
v -0.094320 0.092832 -0.063984
v -0.094770 0.133484 -0.063457
v -0.095197 0.137857 -0.063637
v -0.096555 0.083549 -0.065342
v -0.094187 0.092832 -0.064134
v -0.095949 0.125210 -0.054116
v -0.096122 0.125189 -0.054214
v -0.094332 0.125205 -0.057392
v -0.094590 0.133495 -0.063544
v -0.095015 0.137871 -0.063717
v -0.096564 0.077253 -0.064957
v -0.094694 0.084263 -0.063965
v -0.096430 0.077238 -0.065105
v -0.096085 0.073474 -0.063634
v -0.094554 0.084251 -0.064107
v -0.094147 0.125226 -0.057319
v -0.095482 0.142440 -0.061361
v -0.094920 0.138077 -0.061121
v -0.095929 0.073454 -0.063756
v -0.095285 0.142467 -0.061335
v -0.094723 0.138101 -0.061103
v -0.094127 0.124794 -0.062809
v -0.094402 0.129133 -0.063185
v -0.095437 0.120803 -0.054148
v -0.095612 0.120787 -0.054244
v -0.093917 0.120809 -0.057310
v -0.095760 0.072343 -0.063222
v -0.093677 0.084519 -0.062425
v -0.093950 0.124800 -0.062902
v -0.094224 0.129141 -0.063276
v -0.093731 0.120825 -0.057239
v -0.095570 0.072313 -0.063277
v -0.093494 0.084500 -0.062503
v -0.095757 0.071577 -0.062608
v -0.093379 0.084736 -0.060985
v -0.095584 0.071049 -0.061552
v -0.095568 0.071549 -0.062668
v -0.092654 0.084905 -0.059551
v -0.095002 0.116449 -0.054314
v -0.095177 0.116437 -0.054409
v -0.093593 0.116424 -0.057354
v -0.095387 0.071016 -0.061559
v -0.095424 0.069882 -0.059686
v -0.093700 0.084992 -0.057601
v -0.093186 0.084716 -0.061034
v -0.092456 0.084884 -0.059545
v -0.093591 0.116099 -0.062188
v -0.093811 0.120484 -0.062493
v -0.093406 0.116437 -0.057283
v -0.095231 0.069846 -0.059652
v -0.093513 0.084968 -0.057535
v -0.093416 0.116104 -0.062283
v -0.093635 0.120489 -0.062588
v -0.094482 0.133724 -0.060861
v -0.094033 0.129386 -0.060571
v -0.094567 0.112146 -0.054584
v -0.094742 0.112134 -0.054679
v -0.093273 0.112096 -0.057420
v -0.094284 0.133745 -0.060848
v -0.093835 0.129405 -0.060562
v -0.093086 0.112110 -0.057348
v -0.094153 0.107518 -0.054813
v -0.094329 0.107512 -0.054908
v -0.092882 0.107672 -0.057425
v -0.092959 0.107031 -0.061209
v -0.093243 0.111667 -0.061748
v -0.093016 0.092889 -0.062033
v -0.092779 0.107034 -0.061296
v -0.093066 0.111672 -0.061840
v -0.092696 0.107679 -0.057353
v -0.092832 0.092885 -0.062111
v -0.093009 0.099751 -0.061655
v -0.093827 0.100636 -0.055229
v -0.094006 0.100638 -0.055318
v -0.092888 0.101436 -0.057666
v -0.093632 0.125051 -0.060282
v -0.093270 0.120688 -0.060067
v -0.092827 0.099755 -0.061737
v -0.092699 0.101434 -0.057602
v -0.093432 0.125068 -0.060278
v -0.093071 0.120702 -0.060067
v -0.093614 0.094031 -0.055896
v -0.093794 0.094038 -0.055983
v -0.092626 0.093875 -0.058421
v -0.092432 0.093870 -0.058374
v -0.092540 0.093155 -0.060219
v -0.093014 0.116290 -0.059915
v -0.092730 0.111918 -0.059654
v -0.092343 0.093151 -0.060250
v -0.092531 0.111932 -0.059657
v -0.092814 0.116302 -0.059917
v -0.092517 0.101065 -0.059632
v -0.092337 0.107442 -0.059377
v -0.092317 0.101065 -0.059642
v -0.092137 0.107448 -0.059380
usemtl Posterior_intermuscular_septum_of_leg_rMaterial0
f 1 2 3
f 2 4 3
f 1 5 2
f 2 6 4
f 2 7 6
f 2 5 7
f 1 3 8
f 8 3 9
f 3 4 10
f 3 10 9
f 11 1 8
f 11 12 1
f 1 12 5
f 11 8 13
f 13 8 14
f 8 9 14
f 15 11 13
f 15 16 11
f 11 16 12
f 15 13 17
f 17 13 18
f 13 14 18
f 6 19 4
f 6 20 19
f 6 21 20
f 6 7 21
f 4 19 22
f 4 22 10
f 23 15 17
f 23 24 15
f 15 24 16
f 23 17 25
f 25 17 26
f 17 18 26
f 20 27 19
f 20 28 27
f 20 29 28
f 20 21 29
f 19 27 30
f 19 30 22
f 31 23 25
f 31 25 32
f 32 25 33
f 25 26 33
f 31 34 23
f 23 34 24
f 28 35 27
f 28 36 35
f 28 37 36
f 28 29 37
f 27 35 38
f 27 38 30
f 39 31 32
f 39 32 40
f 40 32 41
f 32 33 41
f 39 42 31
f 31 42 34
f 36 43 35
f 36 44 43
f 36 45 44
f 36 37 45
f 35 43 46
f 35 46 38
f 47 39 40
f 47 40 48
f 48 40 49
f 40 41 49
f 47 50 39
f 39 50 42
f 44 51 43
f 44 52 51
f 44 53 52
f 44 45 53
f 43 51 54
f 43 54 46
f 55 47 48
f 55 48 56
f 56 48 57
f 48 49 57
f 55 58 47
f 47 58 50
f 52 59 51
f 52 60 59
f 52 61 60
f 52 53 61
f 51 59 62
f 51 62 54
f 63 55 56
f 63 56 64
f 64 56 65
f 56 57 65
f 63 66 55
f 55 66 58
f 60 67 59
f 60 68 67
f 60 69 68
f 60 61 69
f 59 67 70
f 59 70 62
f 68 71 67
f 68 72 71
f 68 73 72
f 68 69 73
f 67 71 74
f 67 74 70
f 75 63 64
f 75 64 76
f 76 64 77
f 64 65 77
f 75 78 63
f 63 78 66
f 72 79 71
f 72 80 79
f 72 81 80
f 72 73 81
f 71 79 82
f 71 82 74
f 83 75 76
f 83 76 84
f 84 76 85
f 76 77 85
f 83 86 75
f 75 86 78
f 80 87 79
f 80 88 87
f 80 89 88
f 80 81 89
f 79 87 90
f 79 90 82
f 88 91 87
f 88 92 91
f 88 93 92
f 88 89 93
f 87 91 94
f 87 94 90
f 95 83 84
f 95 84 96
f 96 84 97
f 84 85 97
f 95 98 83
f 83 98 86
f 92 99 91
f 92 100 99
f 92 101 100
f 92 93 101
f 91 99 102
f 91 102 94
f 103 95 96
f 103 96 104
f 104 96 105
f 96 97 105
f 103 106 95
f 95 106 98
f 107 5 12
f 108 7 5
f 108 5 109
f 107 109 5
f 110 14 9
f 111 9 10
f 111 112 9
f 110 9 112
f 107 12 16
f 108 21 7
f 110 18 14
f 111 10 22
f 113 16 24
f 107 16 114
f 113 114 16
f 115 26 18
f 110 116 18
f 115 18 116
f 117 29 21
f 108 118 21
f 117 21 118
f 119 22 30
f 111 22 120
f 119 120 22
f 100 121 99
f 100 122 121
f 100 123 122
f 100 101 123
f 99 121 124
f 99 124 102
f 113 24 34
f 117 37 29
f 115 33 26
f 119 30 38
f 125 45 37
f 117 126 37
f 125 37 126
f 127 34 42
f 113 34 128
f 127 128 34
f 129 41 33
f 115 130 33
f 129 33 130
f 131 38 46
f 119 38 132
f 131 132 38
f 122 133 121
f 122 134 133
f 122 135 134
f 122 123 135
f 121 133 136
f 121 136 124
f 137 103 104
f 137 138 103
f 103 138 106
f 137 104 139
f 139 104 140
f 104 105 140
f 125 53 45
f 131 46 54
f 129 49 41
f 127 42 50
f 141 61 53
f 125 142 53
f 141 53 142
f 143 54 62
f 131 54 144
f 143 144 54
f 145 57 49
f 129 146 49
f 145 49 146
f 147 50 58
f 127 50 148
f 147 148 50
f 141 69 61
f 143 62 70
f 145 65 57
f 147 58 66
f 149 137 139
f 149 150 137
f 137 150 138
f 149 139 151
f 151 139 152
f 139 140 152
f 153 73 69
f 141 154 69
f 153 69 154
f 155 70 74
f 143 70 156
f 155 156 70
f 157 77 65
f 145 158 65
f 157 65 158
f 159 66 78
f 147 66 160
f 159 160 66
f 134 161 133
f 134 162 161
f 134 163 162
f 134 135 163
f 133 161 164
f 133 164 136
f 153 81 73
f 155 74 82
f 165 149 151
f 165 166 149
f 149 166 150
f 165 151 167
f 167 151 168
f 151 152 168
f 157 85 77
f 159 78 86
f 169 89 81
f 153 170 81
f 169 81 170
f 171 82 90
f 155 82 172
f 171 172 82
f 173 97 85
f 157 174 85
f 173 85 174
f 175 86 98
f 159 86 176
f 175 176 86
f 177 165 167
f 177 178 165
f 165 178 166
f 177 167 179
f 179 167 180
f 167 168 180
f 169 93 89
f 171 90 94
f 175 98 106
f 173 105 97
f 181 101 93
f 169 182 93
f 181 93 182
f 183 94 102
f 171 94 184
f 183 184 94
f 185 177 179
f 185 186 177
f 177 186 178
f 185 179 187
f 187 179 188
f 179 180 188
f 189 108 109
f 108 190 118
f 108 191 190
f 189 191 108
f 107 189 109
f 192 112 111
f 111 120 193
f 111 193 194
f 192 111 194
f 110 112 192
f 190 117 118
f 195 106 138
f 175 106 196
f 195 196 106
f 193 120 119
f 197 140 105
f 173 198 105
f 197 105 198
f 199 107 114
f 107 200 189
f 199 200 107
f 201 116 110
f 110 192 202
f 201 110 202
f 117 203 126
f 117 204 203
f 190 204 117
f 181 123 101
f 183 102 124
f 119 132 205
f 119 205 206
f 193 119 206
f 203 125 126
f 113 199 114
f 205 132 131
f 115 116 201
f 125 207 142
f 125 208 207
f 203 208 125
f 131 144 209
f 131 209 210
f 205 131 210
f 207 141 142
f 209 144 143
f 211 113 128
f 113 212 199
f 211 212 113
f 141 213 154
f 207 214 141
f 141 214 213
f 162 215 161
f 162 163 216
f 162 217 215
f 162 216 217
f 161 218 164
f 161 215 218
f 219 130 115
f 115 201 220
f 219 115 220
f 143 156 221
f 209 143 222
f 143 221 222
f 223 185 187
f 223 224 185
f 185 224 186
f 223 187 225
f 225 187 226
f 187 188 226
f 213 153 154
f 221 156 155
f 195 138 150
f 197 152 140
f 227 135 123
f 181 227 123
f 127 211 128
f 228 124 136
f 183 124 228
f 129 130 219
f 153 229 170
f 213 230 153
f 153 230 229
f 155 172 231
f 221 155 232
f 155 231 232
f 233 127 148
f 127 234 211
f 233 234 127
f 235 146 129
f 129 219 236
f 235 129 236
f 229 169 170
f 231 172 171
f 237 223 225
f 237 238 223
f 223 238 224
f 147 233 148
f 237 225 239
f 239 225 240
f 225 226 240
f 145 146 235
f 169 241 182
f 229 242 169
f 169 242 241
f 243 150 166
f 195 150 244
f 243 244 150
f 171 184 245
f 231 171 246
f 171 245 246
f 247 168 152
f 197 248 152
f 247 152 248
f 249 147 160
f 147 250 233
f 249 250 147
f 251 158 145
f 145 235 252
f 251 145 252
f 227 253 135
f 163 135 253
f 228 136 254
f 164 254 136
f 241 181 182
f 245 184 183
f 159 249 160
f 157 158 251
f 255 237 239
f 255 256 237
f 237 256 238
f 255 239 257
f 257 239 258
f 239 240 258
f 243 166 178
f 181 259 227
f 241 260 181
f 181 260 259
f 247 180 168
f 261 159 176
f 159 262 249
f 261 262 159
f 183 228 263
f 245 183 264
f 183 263 264
f 265 174 157
f 157 251 266
f 265 157 266
f 259 253 227
f 263 228 254
f 175 261 176
f 173 174 265
f 267 255 257
f 267 268 255
f 255 268 256
f 267 257 269
f 269 257 270
f 257 258 270
f 271 178 186
f 243 178 272
f 271 272 178
f 273 188 180
f 247 274 180
f 273 180 274
f 163 253 275
f 216 163 275
f 164 276 254
f 218 276 164
f 277 275 253
f 259 278 253
f 277 253 278
f 279 254 276
f 263 254 280
f 279 280 254
f 281 175 196
f 175 282 261
f 281 282 175
f 283 198 173
f 173 265 284
f 283 173 284
f 217 285 215
f 217 216 286
f 217 287 285
f 217 286 287
f 215 288 218
f 215 285 288
f 207 208 289
f 203 289 208
f 207 290 214
f 207 291 290
f 207 289 291
f 271 186 224
f 213 214 290
f 292 267 269
f 292 293 267
f 267 293 268
f 273 226 188
f 213 294 230
f 213 295 294
f 213 290 295
f 209 296 210
f 209 222 297
f 209 297 298
f 209 298 296
f 292 269 299
f 299 269 300
f 269 270 300
f 203 204 301
f 203 302 289
f 203 301 302
f 205 210 296
f 221 297 222
f 229 230 294
f 221 232 303
f 221 303 304
f 221 304 297
f 190 301 204
f 205 305 206
f 205 296 306
f 205 306 305
f 231 303 232
f 190 191 307
f 190 308 301
f 190 307 308
f 229 309 242
f 229 294 310
f 229 310 309
f 195 281 196
f 193 206 305
f 197 198 283
f 189 307 191
f 193 311 194
f 193 305 312
f 193 312 311
f 231 246 313
f 231 314 303
f 231 313 314
f 189 200 315
f 189 316 307
f 189 315 316
f 192 194 311
f 241 242 309
f 192 317 202
f 192 311 318
f 192 318 317
f 199 315 200
f 245 313 246
f 201 202 317
f 216 275 319
f 277 319 275
f 218 320 276
f 279 276 320
f 321 224 238
f 271 224 322
f 321 322 224
f 199 212 323
f 199 324 315
f 199 323 324
f 241 325 260
f 241 309 326
f 241 326 325
f 327 240 226
f 273 328 226
f 327 226 328
f 245 264 329
f 245 330 313
f 245 329 330
f 201 331 220
f 201 317 332
f 201 332 331
f 333 195 244
f 195 334 281
f 333 334 195
f 259 260 325
f 335 292 299
f 335 336 292
f 292 336 293
f 211 323 212
f 337 248 197
f 197 283 338
f 337 197 338
f 335 299 339
f 339 299 340
f 299 300 340
f 263 329 264
f 219 220 331
f 259 341 278
f 259 325 342
f 259 342 341
f 211 234 343
f 211 344 323
f 211 343 344
f 263 280 345
f 263 346 329
f 263 345 346
f 219 347 236
f 219 331 348
f 219 348 347
f 277 278 341
f 321 238 256
f 279 345 280
f 286 216 319
f 327 258 240
f 233 343 234
f 288 320 218
f 243 333 244
f 235 236 347
f 247 248 337
f 277 349 319
f 277 341 349
f 279 320 350
f 279 350 345
f 351 335 339
f 351 352 335
f 335 352 336
f 233 250 353
f 233 354 343
f 233 353 354
f 351 339 355
f 355 339 356
f 339 340 356
f 235 357 252
f 235 347 358
f 235 358 357
f 249 353 250
f 251 252 357
f 359 256 268
f 321 256 360
f 359 360 256
f 249 262 361
f 249 362 353
f 249 361 362
f 363 243 272
f 243 364 333
f 363 364 243
f 365 270 258
f 327 366 258
f 365 258 366
f 367 319 349
f 286 319 367
f 368 274 247
f 247 337 369
f 368 247 369
f 370 350 320
f 288 370 320
f 251 371 266
f 251 357 372
f 251 372 371
f 261 361 262
f 265 266 371
f 373 351 355
f 373 374 351
f 351 374 352
f 373 355 375
f 375 355 376
f 355 356 376
f 261 282 377
f 261 378 361
f 261 377 378
f 379 310 294
f 380 309 310
f 380 310 379
f 271 363 272
f 381 294 295
f 379 294 381
f 265 382 284
f 265 371 383
f 265 383 382
f 384 326 309
f 384 309 380
f 385 349 341
f 367 349 385
f 273 274 368
f 386 303 314
f 387 314 313
f 387 386 314
f 388 345 350
f 370 388 350
f 389 304 303
f 386 389 303
f 390 313 330
f 390 387 313
f 391 295 290
f 381 295 391
f 392 325 326
f 392 326 384
f 359 268 293
f 365 300 270
f 393 330 329
f 393 390 330
f 394 297 304
f 389 394 304
f 395 342 325
f 395 325 392
f 396 290 291
f 391 290 396
f 397 291 289
f 396 291 397
f 398 329 346
f 398 393 329
f 399 341 342
f 399 342 395
f 385 341 399
f 281 377 282
f 400 289 302
f 397 289 400
f 401 346 345
f 388 401 345
f 402 298 297
f 394 402 297
f 401 398 346
f 403 296 298
f 402 403 298
f 283 284 382
f 404 306 296
f 403 404 296
f 405 302 301
f 400 302 405
f 406 271 322
f 271 407 363
f 406 407 271
f 287 288 285
f 287 286 288
f 408 373 375
f 408 409 373
f 373 409 374
f 410 305 306
f 404 410 306
f 411 328 273
f 273 368 412
f 411 273 412
f 408 375 413
f 413 375 414
f 375 376 414
f 415 301 308
f 405 301 415
f 416 312 305
f 410 416 305
f 281 334 417
f 281 418 377
f 281 417 418
f 419 308 307
f 415 308 419
f 283 420 338
f 283 382 421
f 283 421 420
f 422 311 312
f 416 422 312
f 423 307 316
f 419 307 423
f 424 293 336
f 359 293 425
f 424 425 293
f 321 406 322
f 426 316 315
f 423 316 426
f 286 370 288
f 286 367 370
f 427 340 300
f 365 428 300
f 427 300 428
f 429 318 311
f 422 429 311
f 327 328 411
f 430 315 324
f 426 315 430
f 431 317 318
f 429 431 318
f 333 417 334
f 432 332 317
f 431 432 317
f 433 324 323
f 430 324 433
f 337 338 420
f 434 331 332
f 432 434 332
f 435 323 344
f 433 323 435
f 436 321 360
f 321 437 406
f 436 437 321
f 438 348 331
f 434 438 331
f 367 388 370
f 367 385 388
f 439 408 413
f 439 440 408
f 408 440 409
f 441 344 343
f 435 344 441
f 439 413 442
f 442 413 443
f 413 414 443
f 444 366 327
f 327 411 445
f 444 327 445
f 333 364 446
f 333 447 417
f 333 446 447
f 448 347 348
f 438 448 348
f 424 336 352
f 385 401 388
f 385 399 401
f 449 343 354
f 441 343 449
f 427 356 340
f 337 450 369
f 337 420 451
f 337 451 450
f 452 358 347
f 448 452 347
f 453 354 353
f 449 354 453
f 454 357 358
f 452 454 358
f 399 398 401
f 399 395 398
f 455 353 362
f 453 353 455
f 359 436 360
f 363 446 364
f 365 366 444
f 456 362 361
f 455 362 456
f 457 372 357
f 454 457 357
f 380 379 386
f 379 381 389
f 379 389 386
f 384 380 387
f 380 386 387
f 395 392 393
f 395 393 398
f 368 369 450
f 392 384 390
f 384 387 390
f 392 390 393
f 381 394 389
f 381 391 394
f 458 371 372
f 457 458 372
f 459 352 374
f 424 352 460
f 459 460 352
f 461 361 378
f 456 361 461
f 462 376 356
f 427 463 356
f 462 356 463
f 391 402 394
f 391 396 402
f 464 383 371
f 458 464 371
f 465 378 377
f 461 378 465
f 363 407 466
f 363 467 446
f 363 466 467
f 468 439 442
f 468 469 439
f 439 469 440
f 468 442 470
f 470 442 471
f 442 443 471
f 472 382 383
f 464 472 383
f 396 397 403
f 396 403 402
f 368 473 412
f 368 450 474
f 368 474 473
f 397 400 404
f 397 404 403
f 475 377 418
f 465 377 475
f 400 410 404
f 400 405 410
f 476 359 425
f 359 477 436
f 476 477 359
f 478 428 365
f 365 444 479
f 478 365 479
f 480 421 382
f 472 480 382
f 406 466 407
f 481 418 417
f 475 418 481
f 405 416 410
f 405 415 416
f 459 374 409
f 462 414 376
f 411 412 473
f 482 420 421
f 480 482 421
f 415 422 416
f 415 419 422
f 483 417 447
f 481 417 483
f 406 437 484
f 406 485 466
f 406 484 485
f 486 451 420
f 482 486 420
f 411 487 445
f 411 473 488
f 411 488 487
f 419 429 422
f 419 423 429
f 424 476 425
f 427 428 478
f 423 426 431
f 423 431 429
f 489 447 446
f 483 447 489
f 426 432 431
f 426 430 432
f 436 484 437
f 490 468 470
f 490 491 468
f 468 491 469
f 492 450 451
f 486 492 451
f 490 470 493
f 493 470 494
f 470 471 494
f 495 409 440
f 459 409 496
f 495 496 409
f 444 445 487
f 430 433 434
f 430 434 432
f 497 443 414
f 462 498 414
f 497 414 498
f 433 438 434
f 433 435 438
f 499 446 467
f 489 446 499
f 435 448 438
f 435 441 448
f 500 474 450
f 492 500 450
f 501 424 460
f 424 502 476
f 501 502 424
f 436 477 503
f 436 504 484
f 436 503 504
f 441 449 452
f 441 452 448
f 505 463 427
f 427 478 506
f 505 427 506
f 444 507 479
f 444 487 508
f 444 508 507
f 449 453 454
f 449 454 452
f 509 467 466
f 499 467 509
f 453 455 457
f 453 457 454
f 455 456 458
f 455 458 457
f 510 473 474
f 500 510 474
f 456 461 464
f 456 464 458
f 461 465 472
f 461 472 464
f 465 475 480
f 465 480 472
f 475 481 482
f 475 482 480
f 495 440 469
f 511 466 485
f 509 466 511
f 481 486 482
f 481 483 486
f 497 471 443
f 476 503 477
f 459 501 460
f 462 463 505
f 512 488 473
f 510 512 473
f 478 479 507
f 513 490 493
f 513 514 490
f 490 514 491
f 513 493 515
f 515 493 516
f 493 494 516
f 483 492 486
f 483 489 492
f 517 485 484
f 511 485 517
f 518 487 488
f 512 518 488
f 489 500 492
f 489 499 500
f 476 502 519
f 476 520 503
f 476 519 520
f 521 459 496
f 459 522 501
f 521 522 459
f 523 484 504
f 517 484 523
f 524 498 462
f 462 505 525
f 524 462 525
f 478 526 506
f 478 507 527
f 478 527 526
f 528 508 487
f 518 528 487
f 499 510 500
f 499 509 510
f 529 469 491
f 495 469 530
f 529 530 469
f 531 494 471
f 497 532 471
f 531 471 532
f 533 504 503
f 523 504 533
f 509 512 510
f 509 511 512
f 534 507 508
f 528 534 508
f 535 513 515
f 535 536 513
f 513 536 514
f 535 515 537
f 537 515 538
f 515 516 538
f 501 519 502
f 511 518 512
f 511 517 518
f 505 506 526
f 539 503 520
f 533 503 539
f 495 521 496
f 497 498 524
f 540 527 507
f 534 540 507
f 517 528 518
f 517 523 528
f 501 522 541
f 501 542 519
f 501 541 542
f 539 520 543
f 543 520 519
f 505 544 525
f 505 526 545
f 505 545 544
f 523 534 528
f 523 533 534
f 540 546 527
f 546 526 527
f 529 491 514
f 531 516 494
f 533 540 534
f 533 539 540
f 495 547 521
f 548 495 530
f 548 547 495
f 549 535 537
f 549 550 535
f 535 550 536
f 549 537 551
f 551 537 552
f 537 538 552
f 497 524 553
f 554 532 497
f 554 497 553
f 539 546 540
f 539 543 546
f 521 541 522
f 543 519 555
f 555 519 542
f 524 525 544
f 546 556 526
f 556 545 526
f 543 556 546
f 543 555 556
f 555 542 557
f 557 542 541
f 555 558 556
f 555 557 558
f 556 558 545
f 558 544 545
f 521 559 541
f 521 547 560
f 521 560 559
f 557 561 558
f 557 541 562
f 557 562 561
f 524 544 563
f 524 564 553
f 524 563 564
f 529 548 530
f 529 514 565
f 566 514 536
f 566 565 514
f 531 567 516
f 568 538 516
f 568 516 567
f 558 561 544
f 531 532 554
f 569 549 551
f 569 570 549
f 549 570 550
f 562 541 559
f 569 551 571
f 571 551 572
f 551 552 572
f 562 573 561
f 562 559 574
f 562 574 573
f 561 563 544
f 561 573 563
f 548 560 547
f 574 559 560
f 574 575 573
f 574 576 575
f 574 560 576
f 554 553 564
f 573 564 563
f 573 575 564
f 529 577 548
f 578 529 565
f 578 577 529
f 576 579 575
f 576 560 580
f 576 581 579
f 576 580 581
f 566 536 550
f 531 554 582
f 583 567 531
f 583 531 582
f 568 552 538
f 575 584 564
f 575 579 584
f 548 580 560
f 585 569 571
f 585 586 569
f 569 586 570
f 585 571 587
f 587 571 588
f 571 572 588
f 554 564 584
f 581 589 579
f 581 590 589
f 581 591 590
f 581 580 591
f 548 591 580
f 548 577 591
f 554 584 592
f 554 592 582
f 579 589 592
f 579 592 584
f 590 593 589
f 590 594 593
f 590 595 594
f 590 591 595
f 589 593 596
f 589 596 592
f 597 550 570
f 566 550 598
f 597 598 550
f 566 578 565
f 599 585 587
f 599 600 585
f 585 600 586
f 601 572 552
f 568 602 552
f 601 552 602
f 568 567 583
f 599 587 603
f 603 587 604
f 587 588 604
f 594 605 593
f 594 606 605
f 594 607 606
f 594 595 607
f 578 591 577
f 593 605 608
f 593 608 596
f 583 582 592
f 606 609 605
f 606 610 609
f 606 611 610
f 606 607 611
f 578 595 591
f 605 609 612
f 605 612 608
f 583 592 596
f 610 613 609
f 610 614 613
f 610 615 614
f 610 611 615
f 616 599 603
f 616 617 599
f 599 617 600
f 609 613 618
f 609 618 612
f 616 603 619
f 619 603 620
f 603 604 620
f 597 570 586
f 601 588 572
f 566 621 578
f 622 566 598
f 622 621 566
f 614 623 613
f 614 624 623
f 614 625 624
f 614 615 625
f 578 607 595
f 568 583 626
f 627 602 568
f 627 568 626
f 578 621 607
f 613 623 628
f 613 628 618
f 583 596 608
f 583 608 626
f 624 629 623
f 624 630 629
f 624 631 630
f 624 625 631
f 632 616 619
f 632 633 616
f 616 633 617
f 623 629 634
f 623 634 628
f 632 619 635
f 635 619 636
f 619 620 636
f 622 607 621
f 622 611 607
f 637 586 600
f 597 586 638
f 637 638 586
f 630 639 629
f 630 640 639
f 630 641 640
f 630 631 641
f 642 604 588
f 601 643 588
f 642 588 643
f 627 626 608
f 627 608 612
f 629 639 644
f 629 644 634
f 597 622 598
f 640 645 639
f 640 646 645
f 640 647 646
f 640 641 647
f 648 632 635
f 648 649 632
f 632 649 633
f 601 602 627
f 648 635 650
f 650 635 651
f 635 636 651
f 639 645 652
f 639 652 644
f 622 615 611
f 646 653 645
f 646 654 653
f 646 655 654
f 646 647 655
f 627 612 618
f 645 653 656
f 645 656 652
f 657 648 650
f 657 658 648
f 648 658 649
f 637 600 617
f 657 650 659
f 659 650 660
f 650 651 660
f 622 661 615
f 662 625 615
f 662 615 661
f 642 620 604
f 654 663 653
f 654 664 663
f 654 665 664
f 654 655 665
f 627 618 666
f 667 618 628
f 667 666 618
f 597 661 622
f 653 663 668
f 653 668 656
f 662 661 597
f 662 597 638
f 669 657 659
f 669 670 657
f 657 670 658
f 601 627 666
f 667 601 666
f 667 643 601
f 662 631 625
f 669 659 671
f 671 659 672
f 659 660 672
f 667 628 634
f 673 669 671
f 673 674 669
f 669 674 670
f 673 671 675
f 676 673 675
f 676 677 673
f 673 677 674
f 664 678 663
f 664 679 678
f 664 680 679
f 664 665 680
f 681 617 633
f 637 617 682
f 681 682 617
f 675 671 683
f 671 672 683
f 676 675 684
f 684 675 685
f 675 683 685
f 663 678 686
f 663 686 668
f 687 636 620
f 642 688 620
f 687 620 688
f 689 641 631
f 662 690 631
f 689 631 690
f 691 676 684
f 691 692 676
f 676 692 677
f 637 662 638
f 691 684 693
f 693 684 694
f 684 685 694
f 695 634 644
f 667 634 696
f 695 696 634
f 642 643 667
f 697 691 693
f 697 698 691
f 691 698 692
f 679 699 678
f 679 700 699
f 679 701 700
f 679 680 701
f 697 693 702
f 702 693 703
f 693 694 703
f 689 647 641
f 637 690 662
f 678 699 704
f 678 704 686
f 705 697 702
f 705 706 697
f 697 706 698
f 681 633 649
f 695 644 652
f 705 702 707
f 707 702 708
f 702 703 708
f 642 667 696
f 687 651 636
f 689 690 637
f 689 637 682
f 700 709 699
f 700 710 709
f 700 711 710
f 700 701 711
f 712 655 647
f 689 713 647
f 712 647 713
f 714 705 707
f 714 715 705
f 705 715 706
f 695 642 696
f 695 688 642
f 714 707 716
f 716 707 717
f 707 708 717
f 699 709 718
f 699 718 704
f 719 652 656
f 695 652 720
f 719 720 652
f 721 649 658
f 681 649 722
f 721 722 649
f 723 660 651
f 687 724 651
f 723 651 724
f 725 714 716
f 725 726 714
f 714 726 715
f 712 665 655
f 681 689 682
f 725 716 727
f 727 716 728
f 716 717 728
f 681 713 689
f 719 656 668
f 687 688 695
f 710 729 709
f 710 730 729
f 710 731 730
f 710 711 731
f 732 725 727
f 732 733 725
f 725 733 726
f 687 695 720
f 732 727 734
f 734 727 735
f 727 728 735
f 721 658 670
f 709 729 736
f 709 736 718
f 723 672 660
f 712 713 681
f 712 681 722
f 737 680 665
f 712 738 665
f 737 665 738
f 739 732 734
f 740 732 739
f 732 740 733
f 739 734 741
f 742 741 734
f 734 735 742
f 719 687 720
f 719 724 687
f 743 668 686
f 719 668 744
f 743 744 668
f 730 745 729
f 730 746 745
f 730 747 746
f 730 731 747
f 748 670 674
f 721 670 749
f 748 749 670
f 750 739 741
f 751 739 750
f 740 739 751
f 752 683 672
f 723 753 672
f 752 672 753
f 750 741 754
f 755 754 741
f 742 755 741
f 729 745 756
f 729 756 736
f 721 712 722
f 737 701 680
f 721 738 712
f 748 674 677
f 723 724 719
f 743 686 704
f 723 719 744
f 752 685 683
f 757 750 754
f 758 750 757
f 751 750 758
f 759 677 692
f 748 677 760
f 759 760 677
f 757 754 761
f 762 761 754
f 755 762 754
f 746 763 745
f 746 764 763
f 746 765 764
f 746 747 765
f 766 694 685
f 752 767 685
f 766 685 767
f 768 757 761
f 769 757 768
f 758 757 769
f 737 738 721
f 737 721 749
f 768 761 770
f 771 768 770
f 769 768 771
f 772 770 761
f 762 772 761
f 745 763 773
f 745 773 756
f 759 692 698
f 737 774 701
f 775 711 701
f 775 701 774
f 743 723 744
f 743 753 723
f 771 770 776
f 772 776 770
f 766 703 694
f 743 704 777
f 778 704 718
f 778 777 704
f 779 698 706
f 759 698 780
f 779 780 698
f 764 781 763
f 764 782 781
f 764 783 782
f 764 765 783
f 748 737 749
f 748 774 737
f 784 771 776
f 785 771 784
f 785 769 771
f 786 708 703
f 766 787 703
f 786 703 787
f 763 781 788
f 763 788 773
f 784 776 789
f 790 789 776
f 790 776 772
f 752 753 743
f 752 743 777
f 779 706 715
f 775 731 711
f 791 784 789
f 792 784 791
f 793 791 794
f 795 791 793
f 791 789 794
f 795 792 791
f 792 785 784
f 786 717 708
f 778 718 736
f 775 774 748
f 775 748 760
f 782 796 781
f 782 797 796
f 782 798 797
f 782 783 798
f 793 794 799
f 800 793 799
f 801 793 800
f 801 795 793
f 802 794 789
f 803 799 794
f 803 794 802
f 802 789 790
f 804 715 726
f 779 715 805
f 804 805 715
f 781 796 806
f 781 806 788
f 778 752 777
f 778 767 752
f 800 799 807
f 801 800 807
f 808 807 799
f 808 799 803
f 809 728 717
f 786 810 717
f 809 717 810
f 775 811 731
f 812 747 731
f 812 731 811
f 801 807 808
f 804 726 733
f 759 775 760
f 797 813 796
f 797 814 813
f 797 815 814
f 797 798 815
f 809 735 728
f 778 736 816
f 817 736 756
f 817 816 736
f 766 767 778
f 796 813 818
f 796 818 806
f 759 811 775
f 812 765 747
f 812 811 759
f 812 759 780
f 814 819 813
f 814 820 819
f 814 821 820
f 814 815 821
f 766 778 816
f 822 733 740
f 804 733 823
f 822 823 733
f 824 758 769
f 824 769 785
f 817 756 773
f 817 766 816
f 817 787 766
f 825 742 735
f 809 826 735
f 825 735 826
f 813 819 827
f 813 827 818
f 828 772 762
f 828 790 772
f 822 740 751
f 779 812 780
f 829 751 758
f 829 758 824
f 825 755 742
f 820 830 819
f 820 831 830
f 820 832 831
f 820 821 832
f 812 833 765
f 834 783 765
f 834 765 833
f 822 751 829
f 786 787 817
f 835 762 755
f 835 828 762
f 825 835 755
f 819 830 836
f 819 836 827
f 817 773 837
f 838 773 788
f 838 837 773
f 779 833 812
f 834 779 805
f 834 833 779
f 831 839 830
f 831 840 839
f 831 841 840
f 831 832 841
f 786 817 837
f 838 810 786
f 838 786 837
f 834 798 783
f 830 839 842
f 830 842 836
f 804 834 805
f 840 801 808
f 840 795 801
f 840 808 839
f 840 841 795
f 838 788 806
f 843 785 792
f 843 824 785
f 809 810 838
f 839 808 803
f 839 803 842
f 804 844 834
f 845 804 823
f 845 844 804
f 845 815 798
f 834 844 798
f 845 798 844
f 846 802 790
f 846 790 828
f 847 826 809
f 809 838 848
f 847 809 848
f 847 806 818
f 838 806 848
f 847 848 806
f 841 792 795
f 841 843 792
f 845 821 815
f 822 845 823
f 842 803 802
f 842 802 846
f 847 818 827
f 825 826 847
f 849 829 824
f 849 824 843
f 850 822 829
f 850 829 849
f 822 850 845
f 821 849 832
f 832 843 841
f 832 849 843
f 845 850 821
f 821 850 849
f 851 828 835
f 851 846 828
f 852 835 825
f 852 851 835
f 825 847 852
f 827 836 851
f 836 842 846
f 836 846 851
f 847 827 852
f 827 851 852
