# 
# Wavefront OBJ file
# Created with Kaydara FBX
# 
mtllib c:\users\tjvan\onedrive\documenten\fontys\minor\nx\.mtlmodels\quadriceps_common_tendon_and_patellar_ligament.obj

g Quadriceps_common_tendon_and_patellar_ligament
v -0.103970 0.440555 0.006245
v -0.104124 0.440271 0.007049
v -0.104016 0.440325 0.007055
v -0.103837 0.440079 0.008021
v -0.101625 0.435406 0.006201
v -0.103938 0.440019 0.008055
v -0.101505 0.435066 0.006751
v -0.103862 0.440606 0.006272
v -0.101516 0.435459 0.006213
v -0.101399 0.435122 0.006731
v -0.103371 0.439975 0.009111
v -0.103453 0.439915 0.009178
v -0.101043 0.434725 0.007358
v -0.100951 0.434784 0.007304
v -0.102450 0.440021 0.009927
v -0.102508 0.439967 0.010020
v -0.100430 0.434717 0.008174
v -0.100357 0.434775 0.008096
v -0.101114 0.440164 0.010631
v -0.101160 0.440114 0.010732
v -0.099543 0.434921 0.008881
v -0.099488 0.434975 0.008786
v -0.099638 0.431096 0.006023
v -0.099532 0.431150 0.006000
v -0.098957 0.430122 0.006148
v -0.098858 0.430178 0.006105
v -0.099625 0.440301 0.011269
v -0.099667 0.440254 0.011373
v -0.098385 0.435088 0.009547
v -0.098339 0.435138 0.009446
v -0.098219 0.429279 0.006320
v -0.098134 0.429329 0.006250
v -0.097565 0.429584 0.006977
v -0.097498 0.429633 0.006888
v -0.098073 0.440376 0.011831
v -0.097114 0.435180 0.010147
v -0.098110 0.440333 0.011938
v -0.099009 0.429886 0.005477
v -0.097072 0.435228 0.010043
v -0.096789 0.429956 0.007612
v -0.098904 0.429942 0.005450
v -0.096734 0.430003 0.007514
v -0.097725 0.427180 0.005331
v -0.097628 0.427230 0.005276
v -0.095750 0.430139 0.008228
v -0.095701 0.430185 0.008126
v -0.096667 0.424698 0.005289
v -0.096569 0.424735 0.005229
v -0.096487 0.440440 0.012323
v -0.095790 0.435168 0.010674
v -0.096520 0.440400 0.012432
v -0.095751 0.435214 0.010568
v -0.096782 0.424465 0.004751
v -0.096672 0.424501 0.004713
v -0.096009 0.424693 0.005941
v -0.095933 0.424727 0.005852
v -0.094628 0.430197 0.008789
v -0.094582 0.430242 0.008685
v -0.095618 0.420090 0.004569
v -0.095170 0.424820 0.006519
v -0.095110 0.424851 0.006418
v -0.095520 0.420116 0.004503
v -0.094884 0.440489 0.012770
v -0.094446 0.435138 0.011133
v -0.094914 0.440451 0.012882
v -0.094411 0.435181 0.011025
v -0.095107 0.419717 0.005325
v -0.095018 0.419739 0.005245
v -0.093480 0.430107 0.009260
v -0.094077 0.424853 0.007090
v -0.093438 0.430149 0.009155
v -0.094024 0.424883 0.006984
v -0.094366 0.412313 0.004280
v -0.094262 0.412332 0.004220
v -0.094176 0.419444 0.006004
v -0.094036 0.412107 0.004798
v -0.094110 0.419463 0.005904
v -0.093943 0.412126 0.004722
v -0.093218 0.440500 0.013158
v -0.093113 0.435118 0.011540
v -0.093244 0.440464 0.013272
v -0.093082 0.435159 0.011429
v -0.092959 0.424848 0.007612
v -0.092910 0.424877 0.007505
v -0.092307 0.430023 0.009672
v -0.092269 0.430065 0.009564
v -0.093132 0.404601 0.003893
v -0.093025 0.404623 0.003840
v -0.093089 0.419253 0.006557
v -0.093502 0.411931 0.005282
v -0.093034 0.419270 0.006450
v -0.093431 0.411949 0.005185
v -0.092950 0.404530 0.004161
v -0.092853 0.404552 0.004091
v -0.092792 0.411802 0.005688
v -0.092714 0.404476 0.004360
v -0.091853 0.424724 0.008039
v -0.092735 0.411819 0.005582
v -0.092640 0.404496 0.004265
v -0.091808 0.424751 0.007929
v -0.091479 0.440435 0.013505
v -0.091691 0.435070 0.011893
v -0.091502 0.440399 0.013619
v -0.091664 0.435109 0.011781
v -0.091969 0.398851 0.003366
v -0.091229 0.429964 0.010032
v -0.091997 0.419067 0.007065
v -0.091195 0.430003 0.009922
v -0.091855 0.398879 0.003336
v -0.091946 0.419084 0.006956
v -0.091874 0.398762 0.003723
v -0.091769 0.398790 0.003669
v -0.092377 0.404412 0.004575
v -0.092079 0.411679 0.006020
v -0.092318 0.404431 0.004470
v -0.092026 0.411696 0.005912
v -0.091602 0.398714 0.003984
v -0.091520 0.398740 0.003898
v -0.092026 0.404352 0.004740
v -0.091254 0.398639 0.004201
v -0.091975 0.404371 0.004631
v -0.091191 0.398661 0.004099
v -0.090776 0.424606 0.008433
v -0.090735 0.424632 0.008322
v -0.090876 0.411501 0.006560
v -0.090970 0.418969 0.007518
v -0.090764 0.398555 0.004380
v -0.090640 0.404093 0.005380
v -0.090827 0.411518 0.006450
v -0.090923 0.418985 0.007407
v -0.090570 0.393412 0.002652
v -0.090714 0.398574 0.004271
v -0.090592 0.404112 0.005270
v -0.090525 0.393336 0.002956
v -0.090453 0.393443 0.002639
v -0.090412 0.393368 0.002925
v -0.090124 0.434929 0.012198
v -0.090024 0.429897 0.010341
v -0.090100 0.434967 0.012085
v -0.089995 0.429936 0.010229
v -0.090365 0.393248 0.003301
v -0.090267 0.393279 0.003237
v -0.089712 0.440317 0.013836
v -0.089733 0.440281 0.013950
v -0.090074 0.393129 0.003595
v -0.089829 0.424586 0.008742
v -0.089998 0.393158 0.003505
v -0.089794 0.424612 0.008628
v -0.089921 0.418880 0.007929
v -0.089878 0.418895 0.007816
v -0.089652 0.411329 0.007064
v -0.089608 0.411347 0.006952
v -0.089679 0.398352 0.004793
v -0.089612 0.392955 0.003852
v -0.089635 0.398371 0.004681
v -0.089553 0.392979 0.003749
v -0.089214 0.403848 0.005910
v -0.089173 0.403868 0.005798
v -0.089231 0.388132 0.001937
v -0.089197 0.388111 0.002165
v -0.089114 0.388162 0.001917
v -0.089082 0.388141 0.002140
v -0.089126 0.388077 0.002520
v -0.089019 0.388109 0.002472
v -0.088616 0.429673 0.010613
v -0.088450 0.434782 0.012455
v -0.088591 0.429711 0.010500
v -0.088431 0.434820 0.012341
v -0.088939 0.388034 0.002825
v -0.088822 0.424553 0.009023
v -0.088850 0.388066 0.002749
v -0.088792 0.424578 0.008908
v -0.089018 0.418861 0.008231
v -0.088981 0.418875 0.008116
v -0.087905 0.440263 0.014099
v -0.087920 0.440228 0.014214
v -0.088747 0.392655 0.004179
v -0.088499 0.398171 0.005160
v -0.088762 0.411283 0.007407
v -0.088703 0.392676 0.004068
v -0.088463 0.398191 0.005045
v -0.088627 0.387950 0.003110
v -0.088723 0.411300 0.007293
v -0.088554 0.387980 0.003017
v -0.088134 0.383013 0.001349
v -0.088314 0.403784 0.006215
v -0.088091 0.383128 0.001539
v -0.088277 0.403805 0.006101
v -0.088038 0.383242 0.001750
v -0.088024 0.383046 0.001310
v -0.087979 0.383160 0.001502
v -0.087933 0.383274 0.001696
v -0.088097 0.418845 0.008493
v -0.088065 0.418859 0.008376
v -0.087937 0.383319 0.001933
v -0.087847 0.383352 0.001858
v -0.087524 0.424291 0.009280
v -0.087500 0.424314 0.009163
v -0.087842 0.411245 0.007713
v -0.087997 0.387658 0.003461
v -0.087782 0.392437 0.004405
v -0.087810 0.411261 0.007597
v -0.087946 0.387685 0.003354
v -0.087753 0.392458 0.004289
v -0.087839 0.383405 0.002108
v -0.087087 0.429456 0.010838
v -0.087068 0.429491 0.010724
v -0.087761 0.383438 0.002021
v -0.087665 0.398116 0.005392
v -0.087635 0.398137 0.005276
v -0.086756 0.434707 0.012687
v -0.086742 0.434744 0.012572
v -0.087394 0.403727 0.006486
v -0.087363 0.403748 0.006370
v -0.087651 0.381509 0.001305
v -0.087603 0.381605 0.001509
v -0.086892 0.418620 0.008759
v -0.086868 0.418634 0.008641
v -0.087543 0.381706 0.001737
v -0.087543 0.381545 0.001263
v -0.087402 0.382818 0.002236
v -0.087277 0.387329 0.003594
v -0.087495 0.381641 0.001466
v -0.087447 0.381738 0.001670
v -0.087473 0.382261 0.001988
v -0.087336 0.382850 0.002139
v -0.087242 0.387355 0.003481
v -0.086128 0.440270 0.014307
v -0.086139 0.440235 0.014423
v -0.087393 0.382290 0.001901
v -0.086609 0.410993 0.007997
v -0.086584 0.411010 0.007879
v -0.087050 0.392362 0.004543
v -0.087027 0.392383 0.004425
v -0.086847 0.398073 0.005580
v -0.087148 0.380009 0.001277
v -0.086822 0.398095 0.005463
v -0.087101 0.380107 0.001517
v -0.087051 0.380080 0.001259
v -0.087038 0.380200 0.001764
v -0.086142 0.424007 0.009482
v -0.087002 0.380162 0.001474
v -0.086124 0.424029 0.009364
v -0.087007 0.381233 0.002070
v -0.086953 0.380245 0.001690
v -0.086942 0.381261 0.001971
v -0.086970 0.382265 0.002378
v -0.086148 0.403458 0.006724
v -0.086126 0.403480 0.006606
v -0.086916 0.382294 0.002273
v -0.086653 0.387118 0.003674
v -0.086626 0.387142 0.003558
v -0.087164 0.380071 0.001060
v -0.086732 0.379606 0.001106
v -0.087078 0.380155 0.001079
v -0.086690 0.379529 0.001352
v -0.086637 0.379607 0.001600
v -0.086645 0.379690 0.001124
v -0.085532 0.429370 0.011030
v -0.085519 0.429405 0.010914
v -0.086602 0.379609 0.001324
v -0.086333 0.392303 0.004647
v -0.086572 0.379702 0.001870
v -0.086316 0.392324 0.004529
v -0.086550 0.379682 0.001557
v -0.086534 0.380797 0.002187
v -0.086487 0.381888 0.002506
v -0.086498 0.379756 0.001791
v -0.086481 0.380826 0.002081
v -0.086444 0.381915 0.002396
v -0.085667 0.418398 0.008957
v -0.085649 0.418411 0.008837
v -0.085764 0.397868 0.005739
v -0.085747 0.397890 0.005620
v -0.085095 0.434719 0.012855
v -0.085086 0.434756 0.012739
v -0.086220 0.379054 0.001438
v -0.086164 0.379118 0.001688
v -0.086042 0.386916 0.003712
v -0.086022 0.386939 0.003594
v -0.086148 0.379144 0.001398
v -0.085341 0.410756 0.008188
v -0.085326 0.410774 0.008068
v -0.086098 0.379206 0.001980
v -0.086093 0.379208 0.001648
v -0.086063 0.380366 0.002308
v -0.086036 0.379274 0.001900
v -0.086016 0.380395 0.002200
v -0.086007 0.381515 0.002640
v -0.085970 0.381541 0.002526
v -0.085401 0.392124 0.004722
v -0.085390 0.392146 0.004603
v -0.085649 0.378781 0.001494
v -0.085585 0.378836 0.001759
v -0.085596 0.378885 0.001459
v -0.084873 0.403210 0.006855
v -0.084720 0.423915 0.009645
v -0.084409 0.440301 0.014460
v -0.084415 0.440266 0.014576
v -0.084861 0.403233 0.006736
v -0.084708 0.423937 0.009526
v -0.085532 0.378940 0.001724
v -0.085517 0.378920 0.002072
v -0.085468 0.379916 0.002396
v -0.085465 0.378996 0.001992
v -0.085279 0.386536 0.003693
v -0.085427 0.379949 0.002286
v -0.085398 0.380897 0.002717
v -0.085266 0.386557 0.003573
v -0.085367 0.380922 0.002602
v -0.084672 0.397669 0.005825
v -0.084664 0.397692 0.005706
v -0.084307 0.418287 0.009106
v -0.085077 0.378522 0.001561
v -0.084297 0.418300 0.008986
v -0.085038 0.378633 0.001529
v -0.084999 0.378567 0.001842
v -0.084963 0.378679 0.001810
v -0.084020 0.429370 0.011156
v -0.084916 0.378639 0.002174
v -0.084013 0.429404 0.011040
v -0.084887 0.378726 0.002094
v -0.084851 0.379475 0.002499
v -0.084828 0.379514 0.002386
v -0.084520 0.386162 0.003632
v -0.084771 0.380286 0.002811
v -0.084467 0.391965 0.004752
v -0.084463 0.391988 0.004633
v -0.084514 0.386182 0.003512
v -0.084752 0.380316 0.002694
v -0.083917 0.410656 0.008305
v -0.083912 0.410674 0.008185
v -0.084416 0.378402 0.001559
v -0.083514 0.434746 0.012969
v -0.083509 0.434783 0.012853
v -0.084398 0.378518 0.001526
v -0.084324 0.378473 0.001849
v -0.084309 0.378589 0.001815
v -0.084228 0.378573 0.002190
v -0.084218 0.378662 0.002106
v -0.083436 0.403120 0.006910
v -0.083434 0.403143 0.006791
v -0.084146 0.379465 0.002520
v -0.084141 0.379506 0.002406
v -0.083655 0.386159 0.003602
v -0.084046 0.380340 0.002842
v -0.083657 0.386178 0.003482
v -0.084045 0.380369 0.002724
v -0.083324 0.423874 0.009750
v -0.083319 0.423895 0.009631
v -0.083444 0.397578 0.005858
v -0.083443 0.397601 0.005738
v -0.083429 0.391890 0.004756
v -0.083430 0.391914 0.004636
v -0.083750 0.378297 0.001573
v -0.082652 0.440263 0.014535
v -0.082653 0.440227 0.014651
v -0.083748 0.378412 0.001535
v -0.083641 0.378393 0.001869
v -0.083644 0.378509 0.001831
v -0.082941 0.418182 0.009169
v -0.082939 0.418195 0.009048
v -0.083529 0.378519 0.002214
v -0.083537 0.378607 0.002130
v -0.083434 0.379469 0.002552
v -0.083443 0.379509 0.002437
v -0.082791 0.386176 0.003550
v -0.083315 0.380403 0.002883
v -0.082798 0.386195 0.003430
v -0.083324 0.380433 0.002766
v -0.082628 0.429403 0.011213
v -0.082627 0.429438 0.011096
v -0.082486 0.410574 0.008292
v -0.082489 0.410592 0.008172
v -0.083103 0.378366 0.001511
v -0.083122 0.378479 0.001471
v -0.082412 0.391829 0.004717
v -0.082418 0.391854 0.004598
v -0.082990 0.378492 0.001805
v -0.083012 0.378605 0.001765
v -0.082874 0.378650 0.002147
v -0.082899 0.378734 0.002062
v -0.081880 0.434712 0.012980
v -0.081882 0.434749 0.012865
v -0.082765 0.379663 0.002491
v -0.082786 0.379703 0.002378
v -0.082248 0.397494 0.005823
v -0.082254 0.397517 0.005704
v -0.082065 0.403121 0.006861
v -0.082071 0.403143 0.006741
v -0.082021 0.386289 0.003505
v -0.082631 0.380668 0.002835
v -0.082648 0.380696 0.002718
v -0.082032 0.386310 0.003386
v -0.082102 0.423885 0.009771
v -0.082102 0.423907 0.009652
v -0.082458 0.378445 0.001461
v -0.082487 0.378555 0.001416
v -0.082370 0.378711 0.001709
v -0.082335 0.378602 0.001753
v -0.081785 0.418108 0.009158
v -0.081790 0.418122 0.009037
v -0.082249 0.378869 0.002005
v -0.082214 0.378789 0.002088
v -0.082118 0.379907 0.002330
v -0.081553 0.391784 0.004653
v -0.081563 0.391808 0.004534
v -0.082090 0.379867 0.002442
v -0.081960 0.380969 0.002682
v -0.081265 0.386435 0.003328
v -0.080599 0.440012 0.014431
v -0.080592 0.439976 0.014547
v -0.081936 0.380940 0.002798
v -0.081250 0.386414 0.003447
v -0.081173 0.429408 0.011157
v -0.081179 0.429442 0.011040
v -0.081839 0.378659 0.001383
v -0.081883 0.378763 0.001336
v -0.081311 0.410512 0.008196
v -0.081322 0.410530 0.008076
v -0.081244 0.397431 0.005745
v -0.081256 0.397454 0.005626
v -0.081777 0.378941 0.001623
v -0.081731 0.378838 0.001669
v -0.081668 0.379121 0.001912
v -0.080979 0.403186 0.006774
v -0.080993 0.403208 0.006655
v -0.081623 0.379046 0.001996
v -0.081531 0.380224 0.002244
v -0.080861 0.423879 0.009751
v -0.080869 0.423900 0.009632
v -0.081494 0.380185 0.002353
v -0.080727 0.391784 0.004450
v -0.080713 0.391759 0.004568
v -0.081366 0.381353 0.002603
v -0.080622 0.386633 0.003288
v -0.081337 0.381324 0.002718
v -0.080603 0.386610 0.003407
v -0.081217 0.378880 0.001312
v -0.081272 0.378978 0.001264
v -0.080006 0.434495 0.012808
v -0.080017 0.434533 0.012693
v -0.081177 0.379178 0.001545
v -0.080640 0.418036 0.009100
v -0.080651 0.418051 0.008980
v -0.081116 0.379082 0.001589
v -0.081080 0.379379 0.001828
v -0.081024 0.379307 0.001908
v -0.080315 0.397429 0.005504
v -0.080298 0.397406 0.005622
v -0.080936 0.380548 0.002166
v -0.080896 0.380510 0.002274
v -0.080766 0.381743 0.002532
v -0.079976 0.386833 0.003232
v -0.080732 0.381713 0.002646
v -0.079953 0.386809 0.003349
v -0.080197 0.410485 0.007897
v -0.080179 0.410466 0.008016
v -0.080650 0.379317 0.001242
v -0.080724 0.379406 0.001204
v -0.080008 0.391794 0.004486
v -0.080027 0.391819 0.004368
v -0.079962 0.403291 0.006638
v -0.079983 0.403313 0.006520
v -0.080654 0.379580 0.001474
v -0.079495 0.429240 0.010937
v -0.079509 0.429274 0.010821
v -0.080580 0.379491 0.001513
v -0.080582 0.379756 0.001748
v -0.080518 0.379687 0.001826
v -0.080452 0.380878 0.002079
v -0.080408 0.380840 0.002185
v -0.079345 0.423783 0.009602
v -0.079360 0.423804 0.009483
v -0.080301 0.382022 0.002435
v -0.079488 0.386972 0.003169
v -0.080081 0.379762 0.001181
v -0.080170 0.379841 0.001152
v -0.080263 0.381992 0.002546
v -0.079460 0.386947 0.003285
v -0.079503 0.397466 0.005370
v -0.079481 0.397444 0.005488
v -0.080125 0.379988 0.001412
v -0.079277 0.418097 0.008967
v -0.079295 0.418113 0.008848
v -0.079356 0.391861 0.004275
v -0.080030 0.379915 0.001436
v -0.080079 0.380137 0.001674
v -0.079333 0.391836 0.004392
v -0.078426 0.439702 0.014143
v -0.078408 0.439666 0.014258
v -0.079994 0.380077 0.001739
v -0.079966 0.381211 0.001997
v -0.079909 0.381174 0.002098
v -0.079093 0.403474 0.006363
v -0.079834 0.382305 0.002341
v -0.079012 0.387120 0.003086
v -0.079066 0.403453 0.006480
v -0.079785 0.382272 0.002447
v -0.078977 0.387094 0.003200
v -0.079074 0.410561 0.007670
v -0.079567 0.381149 0.001213
v -0.079457 0.381097 0.001222
v -0.079049 0.410542 0.007788
v -0.079572 0.381180 0.001463
v -0.079576 0.381212 0.001715
v -0.079462 0.381128 0.001472
v -0.078732 0.397501 0.005335
v -0.078760 0.397522 0.005218
v -0.078072 0.434289 0.012465
v -0.078091 0.434327 0.012351
v -0.079479 0.381163 0.001770
v -0.078813 0.391916 0.004176
v -0.079528 0.382020 0.002004
v -0.078785 0.391891 0.004292
v -0.079460 0.381982 0.002097
v -0.079472 0.382838 0.002304
v -0.078641 0.387400 0.003035
v -0.079417 0.382806 0.002408
v -0.078600 0.387373 0.003146
v -0.078944 0.382478 0.001304
v -0.078831 0.382438 0.001322
v -0.079002 0.382389 0.001538
v -0.079060 0.382301 0.001775
v -0.079086 0.382835 0.002021
v -0.078890 0.382347 0.001560
v -0.078962 0.382258 0.001833
v -0.079008 0.382800 0.002107
v -0.079109 0.383373 0.002271
v -0.078286 0.387665 0.002957
v -0.078274 0.391936 0.004179
v -0.078308 0.391960 0.004065
v -0.078209 0.403574 0.006281
v -0.078241 0.403594 0.006165
v -0.077812 0.429092 0.010631
v -0.077832 0.429124 0.010516
v -0.079044 0.383343 0.002370
v -0.078230 0.387635 0.003061
v -0.078126 0.397589 0.005063
v -0.077850 0.423725 0.009282
v -0.077830 0.423705 0.009400
v -0.078094 0.397568 0.005179
v -0.077951 0.418183 0.008637
v -0.077927 0.418166 0.008755
v -0.078113 0.387435 0.002762
v -0.077980 0.387212 0.002528
v -0.077973 0.410649 0.007392
v -0.077800 0.387300 0.002282
v -0.077943 0.410629 0.007508
v -0.078035 0.387404 0.002850
v -0.077685 0.387424 0.001998
v -0.077884 0.387180 0.002595
v -0.077875 0.392081 0.003949
v -0.077833 0.392056 0.004061
v -0.077691 0.387267 0.002324
v -0.077570 0.387392 0.002024
v -0.077554 0.397660 0.004900
v -0.077516 0.397639 0.005014
v -0.077514 0.403732 0.005973
v -0.077478 0.403711 0.006088
v -0.077477 0.392158 0.003814
v -0.077425 0.392132 0.003920
v -0.076272 0.439642 0.013714
v -0.076245 0.439606 0.013827
v -0.077048 0.397749 0.004732
v -0.077153 0.392171 0.003634
v -0.077004 0.397728 0.004844
v -0.077065 0.410741 0.007126
v -0.077085 0.392143 0.003730
v -0.077030 0.410720 0.007241
v -0.076839 0.403849 0.005767
v -0.076852 0.392184 0.003397
v -0.076798 0.403828 0.005880
v -0.076297 0.434316 0.011978
v -0.076269 0.434279 0.012091
v -0.076765 0.392154 0.003477
v -0.076569 0.392307 0.003065
v -0.076782 0.418275 0.008406
v -0.076753 0.418257 0.008523
v -0.076549 0.423808 0.009055
v -0.076523 0.423787 0.009172
v -0.076461 0.392278 0.003114
v -0.076586 0.397826 0.004548
v -0.076359 0.429157 0.010237
v -0.076534 0.397804 0.004656
v -0.076332 0.429124 0.010351
v -0.076431 0.392456 0.002603
v -0.076315 0.392429 0.002628
v -0.076254 0.403945 0.005561
v -0.076209 0.403924 0.005672
v -0.076182 0.410838 0.006835
v -0.076172 0.397880 0.004330
v -0.076142 0.410817 0.006948
v -0.076106 0.397857 0.004430
v -0.075796 0.397980 0.004046
v -0.075712 0.397955 0.004130
v -0.075655 0.418369 0.008116
v -0.075712 0.404028 0.005342
v -0.075620 0.418350 0.008231
v -0.075661 0.404006 0.005450
v -0.075482 0.398111 0.003670
v -0.075516 0.410871 0.006582
v -0.075473 0.410849 0.006693
v -0.075350 0.423906 0.008794
v -0.075374 0.398086 0.003721
v -0.075319 0.423885 0.008910
v -0.075210 0.404110 0.005097
v -0.075356 0.398287 0.003193
v -0.075001 0.429248 0.009882
v -0.075148 0.404088 0.005199
v -0.074969 0.429217 0.009995
v -0.075240 0.398262 0.003221
v -0.074633 0.434398 0.011522
v -0.074598 0.434361 0.011633
v -0.074202 0.439689 0.013137
v -0.074167 0.439652 0.013248
v -0.074870 0.410909 0.006315
v -0.074822 0.410887 0.006425
v -0.074740 0.404216 0.004791
v -0.074849 0.418334 0.007847
v -0.074810 0.418314 0.007960
v -0.074662 0.404192 0.004881
v -0.074346 0.404362 0.004391
v -0.074246 0.404336 0.004454
v -0.074264 0.410984 0.006046
v -0.074208 0.410961 0.006151
v -0.074406 0.423900 0.008537
v -0.074371 0.423879 0.008652
v -0.074076 0.418309 0.007555
v -0.074144 0.404492 0.003854
v -0.074032 0.418288 0.007666
v -0.074034 0.404465 0.003898
v -0.073889 0.429254 0.009565
v -0.073853 0.429223 0.009677
v -0.073682 0.411073 0.005736
v -0.073613 0.411049 0.005833
v -0.073212 0.434443 0.011033
v -0.073171 0.434406 0.011142
v -0.073329 0.418379 0.007245
v -0.073540 0.423879 0.008268
v -0.073278 0.418357 0.007353
v -0.073499 0.423858 0.008381
v -0.073140 0.411143 0.005341
v -0.073048 0.411117 0.005417
v -0.072422 0.439722 0.012535
v -0.072381 0.439685 0.012643
v -0.072877 0.429244 0.009209
v -0.072834 0.429214 0.009318
v -0.072691 0.411261 0.004730
v -0.072618 0.418476 0.006886
v -0.072588 0.411235 0.004789
v -0.072555 0.418453 0.006987
v -0.072737 0.423910 0.007965
v -0.072688 0.423888 0.008074
v -0.071923 0.434466 0.010497
v -0.071877 0.434430 0.010604
v -0.072048 0.418472 0.006457
v -0.071962 0.418448 0.006539
v -0.071953 0.429237 0.008828
v -0.071904 0.429208 0.008935
v -0.071986 0.423949 0.007613
v -0.071927 0.423926 0.007716
v -0.070757 0.439740 0.011881
v -0.070711 0.439702 0.011987
v -0.071575 0.418881 0.005775
v -0.071476 0.418858 0.005841
v -0.070764 0.434432 0.009931
v -0.070713 0.434395 0.010035
v -0.071093 0.429231 0.008409
v -0.071035 0.429201 0.008511
v -0.071342 0.423988 0.007186
v -0.071260 0.423963 0.007273
v -0.070775 0.424645 0.006730
v -0.070322 0.429264 0.007952
v -0.070684 0.424616 0.006805
v -0.069690 0.434399 0.009342
v -0.070250 0.429232 0.008045
v -0.069273 0.439608 0.011166
v -0.069633 0.434361 0.009443
v -0.069222 0.439568 0.011269
v -0.069676 0.429586 0.007510
v -0.069577 0.429549 0.007569
v -0.068764 0.434410 0.008759
v -0.068698 0.434371 0.008853
v -0.070048 0.427405 0.006627
v -0.070164 0.427439 0.006613
v -0.067899 0.439499 0.010414
v -0.067842 0.439458 0.010513
v -0.067950 0.434527 0.008192
v -0.067869 0.434483 0.008272
v -0.069217 0.430691 0.006501
v -0.069067 0.430735 0.007232
v -0.069327 0.430725 0.006542
v -0.068954 0.430692 0.007246
v -0.066771 0.439510 0.009735
v -0.067304 0.434911 0.007709
v -0.066706 0.439466 0.009829
v -0.067203 0.434860 0.007754
v -0.068502 0.431860 0.007012
v -0.068614 0.431908 0.007011
v -0.067008 0.435236 0.007163
v -0.066900 0.435183 0.007181
v -0.065762 0.439549 0.009026
v -0.065686 0.439502 0.009108
v -0.065015 0.439589 0.008267
v -0.064916 0.439536 0.008313
v -0.064800 0.439681 0.007277
v -0.064693 0.439627 0.007297
usemtl Quadriceps_common_tendon_and_patellar_ligamentMaterial0
f 1 2 3
f 2 4 3
f 2 1 5
f 2 6 4
f 6 2 7
f 2 5 7
f 1 3 8
f 3 9 8
f 4 10 3
f 3 10 9
f 5 1 8
f 6 11 4
f 6 12 11
f 12 6 13
f 6 7 13
f 5 8 9
f 11 14 4
f 4 14 10
f 12 15 11
f 12 16 15
f 16 12 17
f 12 13 17
f 15 18 11
f 11 18 14
f 16 19 15
f 16 20 19
f 20 16 21
f 16 17 21
f 19 22 15
f 15 22 18
f 23 5 9
f 7 5 23
f 10 24 9
f 23 9 24
f 13 7 25
f 7 23 25
f 14 26 10
f 10 26 24
f 20 27 19
f 20 28 27
f 28 20 29
f 20 21 29
f 27 30 19
f 19 30 22
f 17 13 31
f 13 25 31
f 18 32 14
f 14 32 26
f 21 17 33
f 17 31 33
f 22 34 18
f 18 34 32
f 28 35 27
f 28 29 36
f 28 37 35
f 37 28 36
f 38 23 24
f 25 23 38
f 27 39 30
f 35 39 27
f 29 21 40
f 21 33 40
f 38 24 41
f 26 41 24
f 30 42 22
f 22 42 34
f 25 38 43
f 43 38 41
f 31 25 43
f 26 44 41
f 43 41 44
f 32 44 26
f 36 29 45
f 29 40 45
f 39 46 30
f 30 46 42
f 31 43 47
f 33 31 47
f 32 48 44
f 34 48 32
f 37 49 35
f 37 36 50
f 37 51 49
f 51 37 50
f 35 52 39
f 49 52 35
f 53 43 44
f 47 43 53
f 53 44 54
f 48 54 44
f 40 33 55
f 33 47 55
f 42 56 34
f 34 56 48
f 50 36 57
f 36 45 57
f 52 58 39
f 39 58 46
f 59 53 54
f 47 53 59
f 40 55 60
f 45 40 60
f 42 61 56
f 46 61 42
f 48 62 54
f 59 54 62
f 55 47 59
f 56 62 48
f 51 63 49
f 51 50 64
f 51 65 63
f 65 51 64
f 49 66 52
f 63 66 49
f 55 59 67
f 60 55 67
f 56 68 62
f 61 68 56
f 50 57 69
f 64 50 69
f 45 60 70
f 57 45 70
f 52 71 58
f 66 71 52
f 46 72 61
f 58 72 46
f 73 59 62
f 67 59 73
f 68 74 62
f 73 62 74
f 60 67 75
f 70 60 75
f 67 73 76
f 75 67 76
f 61 77 68
f 72 77 61
f 68 78 74
f 77 78 68
f 65 79 63
f 65 64 80
f 65 81 79
f 81 65 80
f 63 82 66
f 79 82 63
f 57 70 83
f 69 57 83
f 58 84 72
f 71 84 58
f 64 69 85
f 80 64 85
f 66 86 71
f 82 86 66
f 87 73 74
f 76 73 87
f 78 88 74
f 87 74 88
f 70 75 89
f 75 76 90
f 89 75 90
f 72 91 77
f 77 92 78
f 91 92 77
f 83 70 89
f 90 76 93
f 76 87 93
f 84 91 72
f 92 94 78
f 78 94 88
f 89 90 95
f 90 93 96
f 95 90 96
f 69 83 97
f 85 69 97
f 91 98 92
f 92 99 94
f 98 99 92
f 71 100 84
f 86 100 71
f 81 101 79
f 81 80 102
f 103 81 102
f 81 103 101
f 79 104 82
f 101 104 79
f 105 87 88
f 93 87 105
f 80 85 106
f 102 80 106
f 83 89 107
f 107 89 95
f 82 108 86
f 104 108 82
f 94 109 88
f 105 88 109
f 84 110 91
f 110 98 91
f 96 93 111
f 93 105 111
f 97 83 107
f 100 110 84
f 99 112 94
f 94 112 109
f 95 96 113
f 114 95 113
f 107 95 114
f 98 115 99
f 116 115 98
f 110 116 98
f 113 96 117
f 96 111 117
f 115 118 99
f 99 118 112
f 114 113 119
f 119 113 120
f 113 117 120
f 116 121 115
f 121 122 115
f 115 122 118
f 85 97 123
f 106 85 123
f 86 124 100
f 108 124 86
f 125 114 119
f 126 107 114
f 126 114 125
f 119 120 127
f 125 119 128
f 128 119 127
f 129 121 116
f 130 116 110
f 130 129 116
f 97 107 126
f 111 105 131
f 131 105 109
f 121 132 122
f 129 133 121
f 133 132 121
f 100 130 110
f 117 111 134
f 111 131 134
f 112 135 109
f 131 109 135
f 123 97 126
f 124 130 100
f 118 136 112
f 112 136 135
f 103 102 137
f 102 106 138
f 137 102 138
f 101 139 104
f 104 140 108
f 139 140 104
f 120 117 141
f 117 134 141
f 122 142 118
f 118 142 136
f 103 143 101
f 144 103 137
f 103 144 143
f 143 139 101
f 127 120 145
f 120 141 145
f 106 123 146
f 138 106 146
f 132 147 122
f 122 147 142
f 108 148 124
f 140 148 108
f 149 126 125
f 123 126 149
f 150 129 130
f 124 150 130
f 151 125 128
f 149 125 151
f 152 133 129
f 150 152 129
f 146 123 149
f 128 127 153
f 127 145 154
f 153 127 154
f 148 150 124
f 133 155 132
f 132 156 147
f 155 156 132
f 157 128 153
f 151 128 157
f 158 155 133
f 152 158 133
f 134 131 159
f 159 131 135
f 141 134 160
f 134 159 160
f 136 161 135
f 159 135 161
f 142 162 136
f 136 162 161
f 145 141 163
f 141 160 163
f 147 164 142
f 142 164 162
f 137 138 165
f 144 137 166
f 166 137 165
f 139 167 140
f 143 168 139
f 168 167 139
f 154 145 169
f 145 163 169
f 138 146 170
f 165 138 170
f 156 171 147
f 147 171 164
f 140 172 148
f 167 172 140
f 146 149 173
f 173 149 151
f 148 174 150
f 174 152 150
f 170 146 173
f 172 174 148
f 144 175 143
f 176 144 166
f 144 176 175
f 175 168 143
f 153 154 177
f 157 153 178
f 178 153 177
f 179 151 157
f 173 151 179
f 155 180 156
f 158 181 155
f 181 180 155
f 154 169 182
f 177 154 182
f 183 158 152
f 174 183 152
f 156 184 171
f 180 184 156
f 160 159 185
f 185 159 161
f 179 157 186
f 186 157 178
f 163 160 187
f 160 185 187
f 183 188 158
f 188 181 158
f 169 163 189
f 163 187 189
f 162 190 161
f 185 161 190
f 164 191 162
f 162 191 190
f 171 192 164
f 164 192 191
f 170 173 193
f 193 173 179
f 172 194 174
f 194 183 174
f 182 169 195
f 169 189 195
f 184 196 171
f 171 196 192
f 165 170 197
f 197 170 193
f 167 198 172
f 198 194 172
f 199 179 186
f 193 179 199
f 177 182 200
f 178 177 201
f 201 177 200
f 202 188 183
f 194 202 183
f 180 203 184
f 181 204 180
f 204 203 180
f 200 182 205
f 182 195 205
f 166 165 206
f 206 165 197
f 168 207 167
f 207 198 167
f 203 208 184
f 184 208 196
f 186 178 209
f 209 178 201
f 188 210 181
f 210 204 181
f 176 166 211
f 211 166 206
f 175 212 168
f 212 207 168
f 199 186 213
f 213 186 209
f 202 214 188
f 214 210 188
f 187 185 215
f 215 185 190
f 189 187 216
f 187 215 216
f 217 193 199
f 197 193 217
f 218 202 194
f 198 218 194
f 195 189 219
f 189 216 219
f 191 220 190
f 215 190 220
f 200 205 221
f 201 200 222
f 222 200 221
f 192 223 191
f 191 223 220
f 196 224 192
f 192 224 223
f 205 195 225
f 195 219 225
f 203 226 208
f 204 227 203
f 227 226 203
f 176 228 175
f 229 176 211
f 176 229 228
f 228 212 175
f 208 230 196
f 196 230 224
f 205 225 221
f 231 199 213
f 217 199 231
f 232 214 202
f 218 232 202
f 209 201 233
f 233 201 222
f 208 226 230
f 210 234 204
f 234 227 204
f 213 209 235
f 235 209 233
f 216 215 236
f 236 215 220
f 214 237 210
f 237 234 210
f 219 216 238
f 216 236 238
f 223 239 220
f 236 220 239
f 225 219 240
f 219 238 240
f 206 197 241
f 241 197 217
f 224 242 223
f 223 242 239
f 207 243 198
f 243 218 198
f 221 225 244
f 225 240 244
f 230 245 224
f 224 245 242
f 226 246 230
f 230 246 245
f 222 221 247
f 221 244 247
f 248 213 235
f 231 213 248
f 249 237 214
f 232 249 214
f 227 250 226
f 226 250 246
f 233 222 251
f 251 222 247
f 234 252 227
f 252 250 227
f 253 236 239
f 236 253 254
f 253 239 255
f 254 253 255
f 238 236 256
f 236 254 256
f 240 238 257
f 238 256 257
f 239 258 255
f 254 255 258
f 211 206 259
f 259 206 241
f 212 260 207
f 260 243 207
f 242 261 239
f 239 261 258
f 235 233 262
f 262 233 251
f 244 240 263
f 240 257 263
f 237 264 234
f 264 252 234
f 245 265 242
f 242 265 261
f 247 244 266
f 244 263 266
f 251 247 267
f 247 266 267
f 246 268 245
f 245 268 265
f 250 269 246
f 246 269 268
f 252 270 250
f 250 270 269
f 271 217 231
f 241 217 271
f 272 232 218
f 243 272 218
f 273 235 262
f 248 235 273
f 274 264 237
f 249 274 237
f 229 211 275
f 275 211 259
f 256 254 258
f 228 276 212
f 276 260 212
f 257 256 277
f 256 258 261
f 277 256 261
f 263 257 278
f 257 277 278
f 279 251 267
f 262 251 279
f 280 270 252
f 264 280 252
f 265 281 261
f 277 261 281
f 282 231 248
f 271 231 282
f 283 249 232
f 272 283 232
f 266 263 284
f 263 278 284
f 268 285 265
f 265 285 281
f 267 266 286
f 266 284 286
f 269 287 268
f 268 287 285
f 270 288 269
f 269 288 287
f 267 286 289
f 279 267 289
f 270 290 288
f 280 290 270
f 291 262 279
f 273 262 291
f 292 280 264
f 274 292 264
f 278 277 293
f 293 277 281
f 284 278 294
f 278 293 294
f 285 295 281
f 293 281 295
f 296 248 273
f 282 248 296
f 297 241 271
f 259 241 297
f 229 298 228
f 299 229 275
f 229 299 298
f 300 274 249
f 283 300 249
f 301 272 243
f 260 301 243
f 298 276 228
f 287 302 285
f 285 302 295
f 286 284 303
f 284 294 303
f 289 286 304
f 286 303 304
f 288 305 287
f 287 305 302
f 306 279 289
f 291 279 306
f 290 307 288
f 288 307 305
f 289 304 308
f 306 289 308
f 309 290 280
f 292 309 280
f 290 310 307
f 309 310 290
f 311 273 291
f 296 273 311
f 312 292 274
f 300 312 274
f 313 271 282
f 297 271 313
f 314 293 295
f 294 293 314
f 315 283 272
f 301 315 272
f 302 316 295
f 314 295 316
f 303 294 317
f 294 314 317
f 305 318 302
f 302 318 316
f 275 259 319
f 319 259 297
f 304 303 320
f 303 317 320
f 276 321 260
f 321 301 260
f 307 322 305
f 305 322 318
f 308 304 323
f 304 320 323
f 310 324 307
f 307 324 322
f 325 306 308
f 308 323 326
f 325 308 326
f 327 291 306
f 311 291 327
f 328 309 292
f 312 328 292
f 329 310 309
f 310 330 324
f 329 330 310
f 331 282 296
f 313 282 331
f 332 300 283
f 315 332 283
f 327 306 325
f 328 329 309
f 333 314 316
f 317 314 333
f 299 275 334
f 334 275 319
f 298 335 276
f 335 321 276
f 318 336 316
f 333 316 336
f 320 317 337
f 317 333 337
f 322 338 318
f 318 338 336
f 323 320 339
f 320 337 339
f 324 340 322
f 322 340 338
f 341 296 311
f 331 296 341
f 342 312 300
f 332 342 300
f 326 323 343
f 323 339 343
f 330 344 324
f 324 344 340
f 345 325 326
f 326 343 346
f 345 326 346
f 347 330 329
f 330 348 344
f 347 348 330
f 349 297 313
f 319 297 349
f 350 315 301
f 321 350 301
f 351 311 327
f 341 311 351
f 352 328 312
f 342 352 312
f 353 327 325
f 353 325 345
f 354 329 328
f 354 347 329
f 351 327 353
f 352 354 328
f 355 333 336
f 337 333 355
f 299 356 298
f 357 299 334
f 299 357 356
f 356 335 298
f 338 358 336
f 355 336 358
f 339 337 359
f 337 355 359
f 340 360 338
f 338 360 358
f 361 313 331
f 349 313 361
f 362 332 315
f 350 362 315
f 343 339 363
f 339 359 363
f 344 364 340
f 340 364 360
f 346 343 365
f 343 363 365
f 348 366 344
f 344 366 364
f 367 345 346
f 346 365 368
f 367 346 368
f 369 348 347
f 348 370 366
f 369 370 348
f 334 319 371
f 371 319 349
f 335 372 321
f 372 350 321
f 373 331 341
f 361 331 373
f 374 342 332
f 362 374 332
f 375 355 358
f 359 355 375
f 360 376 358
f 375 358 376
f 377 353 345
f 377 345 367
f 378 347 354
f 378 369 347
f 363 359 379
f 359 375 379
f 364 380 360
f 360 380 376
f 365 363 381
f 363 379 381
f 366 382 364
f 364 382 380
f 357 334 383
f 383 334 371
f 356 384 335
f 384 372 335
f 368 365 385
f 365 381 385
f 370 386 366
f 366 386 382
f 387 351 353
f 387 353 377
f 388 354 352
f 388 378 354
f 389 341 351
f 389 351 387
f 390 352 342
f 390 388 352
f 373 341 389
f 374 390 342
f 391 367 368
f 368 385 392
f 391 368 392
f 370 393 386
f 394 370 369
f 394 393 370
f 395 349 361
f 371 349 395
f 396 362 350
f 372 396 350
f 397 375 376
f 380 398 376
f 397 376 398
f 379 375 397
f 382 399 380
f 380 399 398
f 381 379 400
f 379 397 400
f 401 361 373
f 395 361 401
f 402 374 362
f 396 402 362
f 386 403 382
f 382 403 399
f 385 381 404
f 381 400 404
f 393 405 386
f 386 405 403
f 406 377 367
f 406 367 391
f 407 369 378
f 407 394 369
f 392 385 408
f 385 404 408
f 393 409 405
f 410 393 394
f 410 409 393
f 357 411 356
f 412 357 383
f 357 412 411
f 411 384 356
f 392 408 413
f 414 391 392
f 414 392 413
f 415 371 395
f 383 371 415
f 416 396 372
f 384 416 372
f 417 397 398
f 399 418 398
f 417 398 418
f 419 373 389
f 401 373 419
f 420 390 374
f 402 420 374
f 400 397 417
f 421 387 377
f 421 377 406
f 422 378 388
f 422 407 378
f 403 423 399
f 399 423 418
f 404 400 424
f 400 417 424
f 405 425 403
f 403 425 423
f 426 389 387
f 426 387 421
f 427 388 390
f 427 422 388
f 408 404 428
f 404 424 428
f 409 429 405
f 405 429 425
f 430 395 401
f 415 395 430
f 431 402 396
f 416 431 396
f 413 408 432
f 408 428 432
f 419 389 426
f 420 427 390
f 433 394 407
f 433 410 394
f 434 406 391
f 434 391 414
f 409 435 429
f 436 435 409
f 436 409 410
f 413 432 437
f 438 413 437
f 438 414 413
f 439 417 418
f 423 440 418
f 439 418 440
f 441 383 415
f 412 383 441
f 442 416 384
f 411 442 384
f 424 417 439
f 425 443 423
f 423 443 440
f 444 401 419
f 430 401 444
f 445 420 402
f 431 445 402
f 428 424 446
f 424 439 446
f 429 447 425
f 425 447 443
f 432 428 448
f 428 446 448
f 449 407 422
f 449 433 407
f 450 421 406
f 450 406 434
f 435 451 429
f 429 451 447
f 437 432 452
f 432 448 452
f 435 453 451
f 454 453 435
f 454 435 436
f 437 452 455
f 456 437 455
f 456 438 437
f 457 427 420
f 445 457 420
f 458 419 426
f 444 419 458
f 459 439 440
f 443 460 440
f 459 440 460
f 461 434 414
f 461 414 438
f 462 410 433
f 462 436 410
f 463 426 421
f 463 421 450
f 464 422 427
f 464 449 422
f 446 439 459
f 447 465 443
f 443 465 460
f 466 415 430
f 441 415 466
f 467 431 416
f 442 467 416
f 448 446 468
f 446 459 468
f 451 469 447
f 447 469 465
f 452 448 470
f 448 468 470
f 457 464 427
f 458 426 463
f 453 471 451
f 451 471 469
f 455 452 472
f 452 470 472
f 473 430 444
f 466 430 473
f 474 445 431
f 467 474 431
f 453 475 471
f 476 475 453
f 476 453 454
f 477 459 460
f 465 478 460
f 477 460 478
f 455 472 479
f 480 455 479
f 480 456 455
f 481 433 449
f 481 462 433
f 482 450 434
f 482 434 461
f 468 459 477
f 469 483 465
f 465 483 478
f 484 444 458
f 473 444 484
f 485 457 445
f 474 485 445
f 486 436 462
f 486 454 436
f 470 468 487
f 468 477 487
f 471 488 469
f 469 488 483
f 489 461 438
f 489 438 456
f 412 490 411
f 491 412 441
f 412 491 490
f 490 442 411
f 472 470 492
f 470 487 492
f 475 493 471
f 471 493 488
f 479 472 494
f 472 492 494
f 495 449 464
f 495 481 449
f 475 496 493
f 497 496 475
f 497 475 476
f 498 463 450
f 498 450 482
f 479 494 499
f 500 479 499
f 500 480 479
f 501 464 457
f 485 501 457
f 483 502 478
f 503 477 478
f 503 478 502
f 504 458 463
f 484 458 504
f 488 505 483
f 483 505 502
f 487 477 503
f 493 506 488
f 488 506 505
f 492 487 507
f 487 503 507
f 508 482 461
f 508 461 489
f 509 462 481
f 509 486 462
f 510 441 466
f 491 441 510
f 511 467 442
f 490 511 442
f 494 492 512
f 492 507 512
f 513 476 454
f 513 454 486
f 501 495 464
f 496 514 493
f 493 514 506
f 515 456 480
f 515 489 456
f 504 463 498
f 499 494 516
f 494 512 516
f 496 517 514
f 518 517 496
f 518 496 497
f 499 516 519
f 520 499 519
f 520 500 499
f 505 521 502
f 522 503 502
f 522 502 521
f 506 523 505
f 505 523 521
f 514 524 506
f 506 524 523
f 517 525 514
f 514 525 524
f 507 503 522
f 512 507 526
f 507 522 526
f 516 512 527
f 512 526 527
f 519 516 528
f 516 527 528
f 517 529 525
f 530 529 517
f 530 517 518
f 531 480 500
f 531 515 480
f 532 497 476
f 532 476 513
f 533 498 482
f 533 482 508
f 534 481 495
f 534 509 481
f 535 466 473
f 510 466 535
f 536 474 467
f 511 536 467
f 519 528 537
f 538 519 537
f 538 520 519
f 539 513 486
f 539 486 509
f 540 485 474
f 536 540 474
f 541 473 484
f 535 473 541
f 542 489 515
f 542 508 489
f 543 501 485
f 540 543 485
f 544 484 504
f 541 484 544
f 545 525 529
f 545 529 530
f 546 524 525
f 546 525 545
f 547 495 501
f 547 534 495
f 548 523 524
f 548 524 546
f 549 504 498
f 549 498 533
f 543 547 501
f 550 537 528
f 550 538 537
f 544 504 549
f 551 521 523
f 551 523 548
f 552 528 527
f 552 550 528
f 553 518 497
f 553 497 532
f 554 500 520
f 554 531 500
f 555 527 526
f 555 552 527
f 556 522 521
f 556 521 551
f 556 526 522
f 556 555 526
f 557 532 513
f 557 513 539
f 558 515 531
f 558 542 515
f 559 509 534
f 559 539 509
f 560 533 508
f 560 508 542
f 561 530 518
f 561 518 553
f 562 520 538
f 562 554 520
f 491 563 490
f 563 511 490
f 564 491 510
f 491 564 563
f 565 553 532
f 565 532 557
f 566 545 530
f 566 530 561
f 567 531 554
f 567 558 531
f 568 534 547
f 568 559 534
f 569 538 550
f 569 562 538
f 570 549 533
f 570 533 560
f 571 557 539
f 571 539 559
f 572 546 545
f 572 545 566
f 573 542 558
f 573 560 542
f 574 536 511
f 563 574 511
f 575 510 535
f 564 510 575
f 576 550 552
f 576 569 550
f 577 548 546
f 577 546 572
f 578 547 543
f 578 568 547
f 579 544 549
f 579 549 570
f 580 543 540
f 580 578 543
f 581 541 544
f 581 544 579
f 582 552 555
f 582 576 552
f 583 561 553
f 583 553 565
f 584 540 536
f 584 580 540
f 585 554 562
f 585 567 554
f 586 535 541
f 586 541 581
f 574 584 536
f 575 535 586
f 587 551 548
f 587 548 577
f 588 555 556
f 588 582 555
f 588 556 551
f 588 551 587
f 589 565 557
f 589 557 571
f 590 558 567
f 590 573 558
f 591 559 568
f 591 571 559
f 592 566 561
f 592 561 583
f 593 570 560
f 593 560 573
f 594 562 569
f 594 585 562
f 595 572 566
f 595 566 592
f 596 569 576
f 596 594 569
f 597 568 578
f 597 591 568
f 598 583 565
f 598 565 589
f 599 579 570
f 599 570 593
f 600 567 585
f 600 590 567
f 601 577 572
f 601 572 595
f 602 589 571
f 602 571 591
f 603 573 590
f 603 593 573
f 604 578 580
f 604 597 578
f 605 576 582
f 605 596 576
f 606 581 579
f 606 579 599
f 607 592 583
f 607 583 598
f 608 587 577
f 608 577 601
f 609 580 584
f 609 604 580
f 610 585 594
f 610 600 585
f 611 586 581
f 611 581 606
f 612 582 588
f 612 605 582
f 612 588 587
f 612 587 608
f 613 584 574
f 613 609 584
f 614 575 586
f 614 586 611
f 615 574 563
f 615 613 574
f 616 564 575
f 616 575 614
f 564 615 563
f 617 598 589
f 617 589 602
f 564 616 615
f 618 590 600
f 618 603 590
f 619 595 592
f 619 592 607
f 620 591 597
f 620 602 591
f 621 599 593
f 621 593 603
f 622 594 596
f 622 610 594
f 623 601 595
f 623 595 619
f 624 596 605
f 624 622 596
f 625 607 598
f 625 598 617
f 626 600 610
f 626 618 600
f 627 597 604
f 627 620 597
f 628 606 599
f 628 599 621
f 629 617 602
f 629 602 620
f 630 608 601
f 630 601 623
f 631 603 618
f 631 621 603
f 632 605 612
f 632 624 605
f 632 612 608
f 632 608 630
f 633 604 609
f 633 627 604
f 634 611 606
f 634 606 628
f 635 619 607
f 635 607 625
f 636 610 622
f 636 626 610
f 637 609 613
f 637 633 609
f 638 614 611
f 638 611 634
f 639 625 617
f 639 617 629
f 640 620 627
f 640 629 620
f 641 618 626
f 641 631 618
f 642 628 621
f 642 621 631
f 643 623 619
f 643 619 635
f 644 622 624
f 644 636 622
f 645 613 615
f 645 637 613
f 646 616 614
f 646 614 638
f 647 627 633
f 647 640 627
f 648 634 628
f 648 628 642
f 649 630 623
f 649 623 643
f 650 635 625
f 650 625 639
f 651 624 632
f 651 644 624
f 652 626 636
f 652 641 626
f 616 645 615
f 616 646 645
f 651 632 630
f 651 630 649
f 653 629 640
f 653 639 629
f 654 642 631
f 654 631 641
f 655 633 637
f 655 647 633
f 656 638 634
f 656 634 648
f 657 643 635
f 657 635 650
f 658 636 644
f 658 652 636
f 659 640 647
f 659 653 640
f 660 648 642
f 660 642 654
f 661 639 653
f 661 650 639
f 662 654 641
f 662 641 652
f 663 637 645
f 663 655 637
f 664 646 638
f 664 638 656
f 665 649 643
f 665 643 657
f 666 644 651
f 666 658 644
f 667 659 647
f 667 647 655
f 668 648 660
f 668 656 648
f 669 661 653
f 669 653 659
f 666 651 649
f 666 649 665
f 670 654 662
f 670 660 654
f 671 657 650
f 671 650 661
f 672 652 658
f 672 662 652
f 646 663 645
f 646 664 663
f 673 665 657
f 673 657 671
f 674 671 661
f 674 661 669
f 675 658 666
f 675 672 658
f 676 669 659
f 676 659 667
f 677 662 672
f 677 670 662
f 678 667 655
f 678 655 663
f 679 660 670
f 679 668 660
f 680 656 668
f 680 664 656
f 675 666 665
f 675 665 673
f 681 673 671
f 681 671 674
f 682 672 675
f 682 677 672
f 683 674 669
f 683 669 676
f 684 670 677
f 684 679 670
f 685 675 673
f 685 673 686
f 681 686 673
f 687 676 667
f 687 667 678
f 664 678 663
f 688 668 679
f 688 680 668
f 664 680 678
f 682 675 685
f 689 681 674
f 689 674 683
f 690 677 682
f 690 684 677
f 691 685 686
f 681 692 686
f 691 686 693
f 692 693 686
f 682 685 694
f 694 685 691
f 695 683 676
f 695 676 687
f 696 692 681
f 696 681 689
f 697 679 684
f 697 688 679
f 698 682 694
f 698 690 682
f 699 691 693
f 692 700 693
f 699 693 700
f 680 687 678
f 694 691 699
f 680 688 687
f 701 700 692
f 701 692 696
f 702 694 699
f 702 698 694
f 703 689 683
f 703 683 695
f 704 684 690
f 704 697 684
f 702 699 700
f 702 700 701
f 705 696 689
f 705 689 703
f 688 695 687
f 706 690 698
f 706 704 690
f 688 697 695
f 707 701 696
f 707 696 705
f 708 698 702
f 708 706 698
f 708 702 701
f 708 701 707
f 697 703 695
f 697 704 703
f 704 705 703
f 704 706 705
f 706 707 705
f 706 708 707
