# 
# Wavefront OBJ file
# Created with Kaydara FBX
# 
mtllib c:\users\tjvan\onedrive\documenten\fontys\minor\nx\.mtlmodels\rectus_femoris.r.obj

g Rectus_femoris_r
v -0.146514 0.740597 0.025244
v -0.146290 0.724603 0.028472
v -0.145653 0.725740 0.033762
v -0.143035 0.739961 0.021652
v -0.145604 0.741395 0.030674
v -0.144561 0.757361 0.028134
v -0.145022 0.756980 0.022915
v -0.145444 0.709054 0.031688
v -0.141053 0.708679 0.029087
v -0.142464 0.724014 0.025210
v -0.142936 0.726889 0.039401
v -0.145014 0.710302 0.036942
v -0.142175 0.757554 0.033814
v -0.142981 0.742114 0.036308
v -0.143527 0.694990 0.040258
v -0.144222 0.693837 0.035282
v -0.141138 0.696288 0.045735
v -0.142201 0.711688 0.042584
v -0.142421 0.772808 0.021615
v -0.142138 0.756319 0.019398
v -0.140064 0.772136 0.017820
v -0.142445 0.773005 0.026545
v -0.142046 0.678676 0.038832
v -0.137001 0.679246 0.037453
v -0.139395 0.693874 0.033434
v -0.141334 0.679565 0.043467
v -0.137604 0.740114 0.022890
v -0.137941 0.727915 0.044901
v -0.137277 0.757522 0.039481
v -0.137760 0.742657 0.041914
v -0.135149 0.709073 0.029093
v -0.136802 0.724324 0.025675
v -0.139168 0.788199 0.025852
v -0.140435 0.772888 0.032121
v -0.137598 0.787943 0.031211
v -0.139075 0.787980 0.020915
v -0.136118 0.697449 0.050413
v -0.137182 0.712895 0.047695
v -0.134913 0.771224 0.018648
v -0.136723 0.755818 0.020528
v -0.138324 0.664121 0.045559
v -0.138816 0.663739 0.040632
v -0.139025 0.680590 0.048496
v -0.135343 0.664917 0.049942
v -0.133896 0.787476 0.036675
v -0.136113 0.772497 0.037835
v -0.137129 0.787317 0.016961
v -0.130809 0.680075 0.035806
v -0.133335 0.694438 0.032936
v -0.135319 0.802699 0.020689
v -0.135568 0.802842 0.025693
v -0.133254 0.802042 0.017034
v -0.134290 0.681752 0.052766
v -0.130321 0.666007 0.053183
v -0.135503 0.648999 0.041736
v -0.133980 0.664656 0.039093
v -0.130691 0.650155 0.040006
v -0.134608 0.649217 0.046505
v -0.130544 0.728475 0.050041
v -0.130128 0.757629 0.045093
v -0.130642 0.743148 0.047501
v -0.130866 0.739687 0.022149
v -0.133995 0.802541 0.031044
v -0.129127 0.698196 0.053965
v -0.130109 0.713556 0.052045
v -0.132326 0.786164 0.016520
v -0.129287 0.800907 0.015243
v -0.128796 0.708900 0.027297
v -0.130259 0.724087 0.024334
v -0.127780 0.769695 0.018608
v -0.129642 0.754970 0.020387
v -0.127822 0.787109 0.041085
v -0.129549 0.772349 0.043179
v -0.131997 0.817531 0.026004
v -0.131042 0.817461 0.031301
v -0.131591 0.634642 0.046796
v -0.132311 0.634630 0.042225
v -0.131234 0.649934 0.050310
v -0.131208 0.817327 0.021205
v -0.127591 0.635415 0.050245
v -0.123726 0.667240 0.054726
v -0.127202 0.682592 0.055165
v -0.130893 0.802109 0.036093
v -0.128095 0.816960 0.035775
v -0.128389 0.665629 0.036852
v -0.125585 0.651309 0.037456
v -0.124870 0.680772 0.034233
v -0.127152 0.694632 0.031395
v -0.129152 0.816846 0.017314
v -0.123543 0.799417 0.013924
v -0.125938 0.784567 0.015975
v -0.128552 0.620598 0.041945
v -0.127499 0.635887 0.039944
v -0.124629 0.621730 0.038455
v -0.127472 0.832046 0.021672
v -0.128044 0.832376 0.026162
v -0.128485 0.620317 0.046351
v -0.125915 0.651064 0.052536
v -0.122344 0.636487 0.052878
v -0.125453 0.831463 0.017834
v -0.127053 0.832395 0.030937
v -0.125467 0.801619 0.039702
v -0.123802 0.738995 0.021522
v -0.119608 0.728586 0.054148
v -0.119873 0.758153 0.049267
v -0.119763 0.743574 0.051847
v -0.122263 0.709149 0.028320
v -0.123592 0.723838 0.024274
v -0.119070 0.698445 0.056506
v -0.119400 0.713436 0.055495
v -0.120434 0.767995 0.016358
v -0.122264 0.753619 0.019083
v -0.120047 0.772707 0.046628
v -0.125619 0.815860 0.014608
v -0.121978 0.830554 0.015216
v -0.125167 0.606025 0.044740
v -0.124935 0.606543 0.040512
v -0.124393 0.621021 0.049562
v -0.121352 0.606680 0.047375
v -0.119268 0.652770 0.036310
v -0.122237 0.666853 0.035718
v -0.124243 0.831950 0.034886
v -0.123086 0.816179 0.038872
v -0.119701 0.831042 0.037540
v -0.123240 0.847046 0.025410
v -0.122140 0.847074 0.029741
v -0.117701 0.800884 0.041836
v -0.119393 0.786765 0.044230
v -0.122588 0.637148 0.037109
v -0.119752 0.623080 0.035653
v -0.123041 0.846658 0.021470
v -0.117620 0.683301 0.056179
v -0.117821 0.681997 0.036248
v -0.120425 0.695486 0.033343
v -0.116344 0.797753 0.012442
v -0.118694 0.782650 0.014157
v -0.119585 0.652385 0.054571
v -0.120446 0.814431 0.013202
v -0.117137 0.829365 0.013902
v -0.116018 0.815333 0.040560
v -0.121571 0.845984 0.018167
v -0.121512 0.592667 0.038100
v -0.122094 0.591992 0.042425
v -0.122056 0.607626 0.036400
v -0.118725 0.593684 0.034383
v -0.118941 0.622185 0.050736
v -0.119666 0.846596 0.033355
v -0.115877 0.738684 0.024669
v -0.111304 0.653990 0.055242
v -0.114710 0.668530 0.055904
v -0.113932 0.710608 0.031878
v -0.116039 0.724504 0.028093
v -0.118280 0.860821 0.021055
v -0.118274 0.861062 0.024529
v -0.117580 0.860231 0.017886
v -0.113911 0.624320 0.035990
v -0.116498 0.638567 0.036233
v -0.115918 0.637916 0.053220
v -0.113025 0.623399 0.052107
v -0.111641 0.767194 0.017589
v -0.113906 0.752771 0.021252
v -0.112155 0.654161 0.036745
v -0.114870 0.668391 0.037004
v -0.115294 0.860672 0.031445
v -0.117338 0.861006 0.028329
v -0.118584 0.577723 0.039962
v -0.118331 0.592366 0.045462
v -0.117014 0.608941 0.034258
v -0.114021 0.594660 0.033452
v -0.118688 0.844981 0.015809
v -0.115626 0.859240 0.015198
v -0.118583 0.578404 0.035537
v -0.116309 0.607634 0.049009
v -0.113390 0.593078 0.047252
v -0.114151 0.813184 0.012215
v -0.107757 0.683395 0.036314
v -0.110790 0.697027 0.035273
v -0.109389 0.772614 0.045877
v -0.109008 0.758614 0.048814
v -0.107473 0.728715 0.054051
v -0.108238 0.743888 0.051657
v -0.115783 0.845700 0.035721
v -0.113784 0.829933 0.038936
v -0.111150 0.844752 0.036750
v -0.106985 0.713395 0.055013
v -0.108983 0.800160 0.041562
v -0.109236 0.786131 0.043331
v -0.105535 0.684371 0.055316
v -0.106364 0.698507 0.055353
v -0.115900 0.579517 0.031873
v -0.108750 0.797066 0.013175
v -0.109907 0.781790 0.014953
v -0.114716 0.844012 0.014384
v -0.115534 0.564346 0.033242
v -0.115542 0.577782 0.043497
v -0.115115 0.563765 0.037179
v -0.112472 0.563736 0.040440
v -0.113038 0.565332 0.030517
v -0.113668 0.874627 0.023829
v -0.113498 0.874768 0.020832
v -0.113029 0.874128 0.017896
v -0.113090 0.874284 0.027224
v -0.110521 0.843297 0.013473
v -0.112202 0.828541 0.013213
v -0.109089 0.595412 0.034144
v -0.111454 0.609958 0.035122
v -0.107992 0.625372 0.036276
v -0.109935 0.639783 0.036561
v -0.110556 0.608673 0.050022
v -0.106551 0.739018 0.026937
v -0.103858 0.711883 0.032748
v -0.106351 0.725498 0.030409
v -0.107883 0.829207 0.038691
v -0.108474 0.814616 0.040166
v -0.108432 0.639213 0.054292
v -0.111184 0.580392 0.032029
v -0.109074 0.565989 0.031264
v -0.112260 0.860043 0.033535
v -0.108629 0.859339 0.034504
v -0.112452 0.858265 0.013932
v -0.112289 0.872788 0.015346
v -0.109962 0.871704 0.013203
v -0.112792 0.550552 0.031119
v -0.110770 0.578459 0.045047
v -0.111611 0.873922 0.029769
v -0.109304 0.873417 0.031554
v -0.112082 0.550062 0.034445
v -0.103931 0.655032 0.036092
v -0.105566 0.669681 0.036036
v -0.103652 0.670265 0.055263
v -0.106850 0.828186 0.012505
v -0.107800 0.812753 0.012207
v -0.102997 0.767243 0.018552
v -0.104816 0.752864 0.022600
v -0.106858 0.844199 0.036694
v -0.104670 0.888795 0.019416
v -0.110468 0.886463 0.025832
v -0.109716 0.887605 0.023000
v -0.106079 0.579093 0.045983
v -0.108237 0.593859 0.048234
v -0.110699 0.551344 0.029177
v -0.105002 0.609441 0.050859
v -0.106497 0.624513 0.052625
v -0.104582 0.889003 0.017596
v -0.109139 0.536881 0.031849
v -0.108297 0.537922 0.027388
v -0.109927 0.537276 0.029066
v -0.109536 0.550055 0.037169
v -0.108378 0.564182 0.042225
v -0.106149 0.550355 0.039186
v -0.108794 0.857633 0.013361
v -0.108085 0.881135 0.011482
v -0.109033 0.884184 0.013898
v -0.109398 0.885866 0.028291
v -0.104552 0.595954 0.034645
v -0.106284 0.610757 0.035504
v -0.100232 0.640118 0.054297
v -0.101518 0.655377 0.055596
v -0.106955 0.580892 0.033050
v -0.104983 0.566629 0.032090
v -0.098081 0.684204 0.034151
v -0.100807 0.698220 0.034064
v -0.107312 0.551946 0.030111
v -0.105202 0.538448 0.028040
v -0.105521 0.857452 0.013044
v -0.106176 0.842999 0.012702
v -0.107452 0.897024 0.023512
v -0.108511 0.895915 0.028110
v -0.108964 0.896477 0.025590
v -0.106574 0.871164 0.013317
v -0.104787 0.880216 0.011510
v -0.107378 0.524400 0.026654
v -0.105781 0.525074 0.024774
v -0.101917 0.625969 0.035954
v -0.102658 0.640415 0.036373
v -0.101401 0.797478 0.014049
v -0.101768 0.782215 0.015558
v -0.106891 0.536816 0.034243
v -0.101713 0.785828 0.040523
v -0.101170 0.758513 0.045939
v -0.101600 0.772132 0.042674
v -0.107358 0.885395 0.030175
v -0.106526 0.872894 0.032431
v -0.104793 0.884915 0.031184
v -0.101705 0.799897 0.039515
v -0.106509 0.523967 0.029211
v -0.104303 0.523822 0.031252
v -0.106475 0.886457 0.008728
v -0.107088 0.889726 0.011263
v -0.101991 0.889769 0.013792
v -0.107423 0.905155 0.025882
v -0.106463 0.903988 0.023959
v -0.103461 0.870837 0.013469
v -0.105277 0.858874 0.034530
v -0.103680 0.872436 0.032427
v -0.107505 0.904401 0.028343
v -0.105634 0.904203 0.029882
v -0.106409 0.895430 0.029912
v -0.102473 0.828996 0.037276
v -0.102045 0.814372 0.038341
v -0.102142 0.550841 0.040445
v -0.103985 0.564734 0.043182
v -0.101422 0.579681 0.046529
v -0.103325 0.594470 0.048727
v -0.100598 0.744028 0.048943
v -0.101875 0.828229 0.012743
v -0.101717 0.813019 0.013025
v -0.105928 0.908455 0.027341
v -0.098431 0.714190 0.052369
v -0.099607 0.729223 0.051422
v -0.104249 0.898138 0.022032
v -0.105073 0.908034 0.025873
v -0.104837 0.511694 0.024033
v -0.101719 0.538939 0.028646
v -0.103364 0.552593 0.030972
v -0.104683 0.893753 0.004228
v -0.100915 0.567191 0.032626
v -0.102640 0.581330 0.033532
v -0.103777 0.537014 0.035914
v -0.101291 0.523992 0.032370
v -0.101960 0.858489 0.033887
v -0.102664 0.843940 0.035867
v -0.098108 0.739884 0.027278
v -0.101999 0.884405 0.031298
v -0.104313 0.511105 0.026474
v -0.099397 0.609843 0.051045
v -0.099584 0.625017 0.052724
v -0.104952 0.890146 0.002793
v -0.101957 0.889479 0.003184
v -0.103238 0.885570 0.008599
v -0.104284 0.906067 0.023705
v -0.103405 0.904037 0.030553
v -0.103826 0.895009 0.030775
v -0.097166 0.699436 0.052607
v -0.095482 0.713130 0.032344
v -0.097635 0.726698 0.030564
v -0.100127 0.596377 0.034836
v -0.101275 0.611260 0.035446
v -0.101840 0.857567 0.014242
v -0.101974 0.843211 0.013216
v -0.104171 0.909094 0.028278
v -0.103439 0.908434 0.026239
v -0.102896 0.525425 0.025349
v -0.103309 0.512378 0.022107
v -0.100704 0.512708 0.021971
v -0.096490 0.655167 0.035229
v -0.096780 0.669872 0.034239
v -0.095006 0.670971 0.053422
v -0.096285 0.685128 0.052643
v -0.100806 0.872083 0.031595
v -0.102533 0.906467 0.024070
v -0.102276 0.891381 -0.007078
v -0.099980 0.891097 -0.006224
v -0.102108 0.498503 0.022649
v -0.101389 0.499516 0.018972
v -0.102479 0.498930 0.020703
v -0.095691 0.767716 0.019399
v -0.097002 0.753359 0.023107
v -0.101468 0.880478 0.012829
v -0.099434 0.886190 0.010601
v -0.101473 0.894136 -0.007001
v -0.101395 0.895679 0.006014
v -0.100116 0.896511 -0.006365
v -0.101371 0.899582 0.022260
v -0.099415 0.883359 0.017492
v -0.100262 0.891261 0.021747
v -0.098104 0.883390 0.020369
v -0.102036 0.510939 0.028142
v -0.100121 0.498591 0.024037
v -0.102668 0.908815 0.028563
v -0.098008 0.551252 0.041399
v -0.099508 0.565274 0.044111
v -0.101143 0.894645 0.030928
v -0.100249 0.537334 0.037007
v -0.098140 0.524174 0.033231
v -0.100253 0.870817 0.014572
v -0.099281 0.881342 0.014569
v -0.102321 0.908362 0.026629
v -0.101233 0.908208 0.028673
v -0.101463 0.904079 0.030717
v -0.098148 0.539317 0.029059
v -0.099557 0.553052 0.031474
v -0.096777 0.580108 0.046819
v -0.098366 0.594860 0.049111
v -0.099259 0.500018 0.017930
v -0.098278 0.891612 0.004766
v -0.099763 0.525732 0.025950
v -0.098005 0.512737 0.022738
v -0.095696 0.626108 0.035276
v -0.095731 0.640531 0.035939
v -0.097641 0.829136 0.035066
v -0.098860 0.858238 0.032442
v -0.098751 0.843941 0.034192
v -0.101308 0.908086 0.027180
v -0.096882 0.567521 0.033261
v -0.098459 0.581693 0.033955
v -0.101157 0.906607 0.025016
v -0.099226 0.901099 0.023644
v -0.100633 0.488679 0.017810
v -0.100156 0.490632 0.016291
v -0.096593 0.891390 -0.014886
v -0.097908 0.890604 -0.012965
v -0.099532 0.487746 0.018523
v -0.099171 0.511098 0.028746
v -0.097707 0.498683 0.024824
v -0.096464 0.814490 0.035548
v -0.098505 0.894339 0.030458
v -0.099375 0.883944 0.030574
v -0.097697 0.894718 0.006251
v -0.098720 0.888451 0.013393
v -0.097619 0.828518 0.015177
v -0.098963 0.857618 0.016604
v -0.098628 0.843359 0.015488
v -0.097756 0.893443 -0.005662
v -0.095437 0.798230 0.015665
v -0.095006 0.782859 0.016870
v -0.095447 0.785558 0.036992
v -0.095479 0.799788 0.036318
v -0.096669 0.813578 0.015466
v -0.095256 0.771673 0.038786
v -0.093297 0.640460 0.053378
v -0.093825 0.655845 0.053916
v -0.099674 0.904018 0.030561
v -0.097994 0.491089 0.015477
v -0.099730 0.907182 0.028265
v -0.100144 0.906899 0.026409
v -0.095542 0.596716 0.034618
v -0.095957 0.611515 0.035019
v -0.094370 0.743979 0.045172
v -0.094674 0.758111 0.042111
v -0.097737 0.902499 0.025518
v -0.090722 0.684524 0.033118
v -0.092992 0.699111 0.032866
v -0.096983 0.883729 0.029058
v -0.098270 0.871838 0.030068
v -0.100140 0.490517 0.016256
v -0.100610 0.488547 0.017775
v -0.097977 0.490974 0.015445
v -0.099499 0.487609 0.018475
v -0.099064 0.488584 0.018070
v -0.094892 0.524277 0.034086
v -0.096628 0.537592 0.037908
v -0.098263 0.871048 0.017000
v -0.097130 0.892835 0.022264
v -0.097929 0.487665 0.019531
v -0.097531 0.895652 -0.005735
v -0.095980 0.892874 -0.012526
v -0.095900 0.892392 -0.014924
v -0.096101 0.890629 -0.014411
v -0.096476 0.526023 0.026288
v -0.094912 0.512901 0.023132
v -0.097284 0.901752 0.029952
v -0.097060 0.903544 0.027699
v -0.096313 0.894055 0.029300
v -0.093377 0.729687 0.047715
v -0.093644 0.609979 0.050263
v -0.093287 0.625157 0.051894
v -0.094513 0.539673 0.029302
v -0.095706 0.553372 0.032051
v -0.097901 0.487531 0.019476
v -0.093970 0.551629 0.041508
v -0.095136 0.565637 0.044509
v -0.096750 0.871638 0.019581
v -0.096764 0.500103 0.018333
v -0.095836 0.490978 0.016495
v -0.096168 0.511249 0.029185
v -0.094952 0.498517 0.025264
v -0.095823 0.490861 0.016471
v -0.096783 0.488570 0.019039
v -0.096824 0.857617 0.019688
v -0.096595 0.858019 0.030004
v -0.096083 0.844040 0.031515
v -0.094440 0.829108 0.019124
v -0.096173 0.843542 0.019040
v -0.092752 0.567710 0.033547
v -0.094155 0.582021 0.034070
v -0.090416 0.700128 0.049680
v -0.091927 0.714970 0.049111
v -0.092022 0.580361 0.046338
v -0.093155 0.595170 0.048183
v -0.095217 0.883686 0.026836
v -0.096347 0.871657 0.028044
v -0.091133 0.740977 0.028220
v -0.096188 0.883703 0.021939
v -0.096007 0.487701 0.020533
v -0.095984 0.487569 0.020479
v -0.095573 0.890640 -0.016336
v -0.095264 0.891484 -0.014216
v -0.095154 0.893777 0.024256
v -0.094836 0.893955 0.026918
v -0.088540 0.714175 0.032964
v -0.090472 0.727940 0.031207
v -0.092613 0.814588 0.032048
v -0.094117 0.829502 0.032052
v -0.094781 0.883548 0.024133
v -0.090452 0.768376 0.021319
v -0.091142 0.754191 0.024649
v -0.095475 0.871495 0.022254
v -0.094873 0.843819 0.023486
v -0.095681 0.857704 0.023156
v -0.093950 0.488646 0.019945
v -0.093206 0.490739 0.017527
v -0.089717 0.654923 0.035555
v -0.089739 0.669472 0.033867
v -0.093216 0.490859 0.017543
v -0.093982 0.500114 0.018778
v -0.091168 0.799045 0.018485
v -0.092768 0.814213 0.018979
v -0.091560 0.524517 0.034303
v -0.092973 0.537972 0.038000
v -0.095594 0.857833 0.026736
v -0.094906 0.844035 0.027820
v -0.095074 0.891243 -0.016347
v -0.091716 0.513098 0.023315
v -0.093095 0.526373 0.026243
v -0.095215 0.871538 0.025422
v -0.088565 0.670832 0.050824
v -0.089416 0.685416 0.049958
v -0.091430 0.498123 0.025543
v -0.093010 0.511172 0.029923
v -0.092695 0.829718 0.023681
v -0.093475 0.487942 0.021270
v -0.093461 0.487809 0.021233
v -0.089701 0.626075 0.035538
v -0.090550 0.596953 0.034242
v -0.090417 0.611585 0.034345
v -0.089481 0.640523 0.036206
v -0.090921 0.540111 0.028986
v -0.091849 0.553622 0.032040
v -0.091133 0.799851 0.032294
v -0.090212 0.771088 0.034363
v -0.090423 0.785324 0.032647
v -0.089969 0.552047 0.040641
v -0.090895 0.565926 0.043652
v -0.090516 0.783611 0.019397
v -0.092529 0.829805 0.028190
v -0.089740 0.757480 0.037739
v -0.088422 0.729888 0.043394
v -0.089435 0.743706 0.040769
v -0.088597 0.567840 0.033003
v -0.089828 0.582270 0.033743
v -0.089824 0.490961 0.018364
v -0.090701 0.500231 0.019230
v -0.090283 0.488999 0.020827
v -0.089813 0.490842 0.018353
v -0.087391 0.640446 0.051698
v -0.087697 0.655836 0.051923
v -0.088390 0.610057 0.048777
v -0.090197 0.488436 0.022247
v -0.090182 0.488311 0.022205
v -0.087951 0.625248 0.050088
v -0.087601 0.580776 0.044350
v -0.088206 0.595384 0.046819
v -0.088260 0.513467 0.022889
v -0.089718 0.526780 0.025883
v -0.089984 0.511393 0.030700
v -0.088083 0.498209 0.026746
v -0.084843 0.684647 0.034567
v -0.086305 0.699785 0.033935
v -0.088344 0.525014 0.033562
v -0.089375 0.538439 0.037324
v -0.090773 0.814631 0.023238
v -0.088971 0.799597 0.022762
v -0.090702 0.814692 0.027728
v -0.088979 0.799836 0.027364
v -0.084823 0.700551 0.046393
v -0.086706 0.715400 0.044980
v -0.087437 0.540534 0.028339
v -0.088030 0.553979 0.031062
v -0.086651 0.742134 0.031331
v -0.087242 0.769266 0.024906
v -0.087363 0.755324 0.028155
v -0.086399 0.552524 0.038966
v -0.086748 0.566223 0.041953
v -0.086484 0.491556 0.018310
v -0.087482 0.500803 0.018990
v -0.085371 0.596914 0.034676
v -0.087963 0.784251 0.023073
v -0.083335 0.715047 0.035290
v -0.085380 0.729100 0.033858
v -0.085039 0.625919 0.037621
v -0.085645 0.611330 0.036360
v -0.087683 0.784859 0.027712
v -0.086799 0.489447 0.021157
v -0.086471 0.491437 0.018302
v -0.086990 0.756560 0.033098
v -0.087281 0.770319 0.029856
v -0.086946 0.488503 0.022731
v -0.086935 0.488377 0.022701
v -0.086896 0.511823 0.030344
v -0.085277 0.498760 0.027077
v -0.084783 0.568158 0.031394
v -0.085405 0.582562 0.032610
v -0.084389 0.654940 0.037694
v -0.084382 0.669526 0.035828
v -0.085352 0.513868 0.022019
v -0.086499 0.527170 0.025415
v -0.084504 0.640508 0.038301
v -0.085026 0.729809 0.038709
v -0.086425 0.743137 0.036114
v -0.083321 0.670659 0.048001
v -0.083706 0.685486 0.046997
v -0.085315 0.525625 0.032290
v -0.086172 0.539012 0.035672
v -0.084076 0.610199 0.046660
v -0.083724 0.581219 0.042144
v -0.083958 0.595625 0.044845
v -0.084226 0.540960 0.027075
v -0.084511 0.554363 0.029486
v -0.082696 0.640426 0.049406
v -0.083305 0.625206 0.048448
v -0.082982 0.655705 0.049176
v -0.083393 0.492029 0.017564
v -0.084708 0.501043 0.018284
v -0.084401 0.489135 0.022632
v -0.083768 0.490137 0.020698
v -0.084391 0.489011 0.022582
v -0.084097 0.512357 0.029208
v -0.082852 0.499436 0.025929
v -0.083375 0.491913 0.017555
v -0.083171 0.553038 0.036824
v -0.083765 0.566730 0.039169
v -0.082835 0.715569 0.040479
v -0.080644 0.700744 0.041902
v -0.083001 0.514282 0.020789
v -0.083648 0.527713 0.024142
v -0.080830 0.684987 0.038160
v -0.081661 0.700373 0.036904
v -0.082953 0.526304 0.030242
v -0.083372 0.539579 0.033572
v -0.082377 0.596528 0.037790
v -0.081744 0.625623 0.041118
v -0.082491 0.610932 0.039727
v -0.081730 0.567998 0.032582
v -0.081669 0.582260 0.035052
v -0.081578 0.492472 0.016728
v -0.082238 0.501107 0.018530
v -0.081476 0.540898 0.027842
v -0.081903 0.554244 0.030466
v -0.080602 0.655183 0.041095
v -0.080785 0.640483 0.041635
v -0.082190 0.489682 0.022394
v -0.081499 0.490568 0.019734
v -0.082182 0.489556 0.022348
v -0.080556 0.669868 0.039559
v -0.081616 0.512890 0.027529
v -0.080703 0.499578 0.023898
v -0.081189 0.610491 0.043619
v -0.081172 0.581692 0.039110
v -0.081086 0.596050 0.041776
v -0.081570 0.492360 0.016704
v -0.081407 0.553652 0.033808
v -0.081455 0.567342 0.036240
v -0.079338 0.670313 0.044567
v -0.079623 0.685378 0.043080
v -0.080747 0.514037 0.022251
v -0.081147 0.527682 0.024978
v -0.081042 0.526984 0.027839
v -0.081440 0.540210 0.030936
v -0.079507 0.640442 0.046090
v -0.079942 0.625251 0.045326
v -0.079534 0.655507 0.045817
v -0.080566 0.491811 0.017921
v -0.080680 0.500827 0.020364
v -0.080361 0.490531 0.021115
v -0.079833 0.491341 0.019827
v -0.080356 0.490414 0.021079
v -0.080514 0.513454 0.025028
v -0.080243 0.500418 0.022425
v -0.080564 0.491695 0.017889
v -0.079838 0.491457 0.019860
usemtl Rectus_femoris_rMaterial0
f 1 2 3
f 4 2 1
f 1 3 5
f 1 5 6
f 1 6 7
f 4 1 7
f 8 3 2
f 9 8 2
f 4 10 2
f 9 2 10
f 5 3 11
f 8 12 3
f 12 11 3
f 5 13 6
f 5 11 14
f 5 14 13
f 8 15 12
f 8 16 15
f 9 16 8
f 12 15 17
f 12 18 11
f 12 17 18
f 19 7 6
f 4 7 20
f 21 7 19
f 21 20 7
f 19 6 22
f 22 6 13
f 23 15 16
f 24 23 16
f 9 25 16
f 24 16 25
f 23 26 15
f 26 17 15
f 27 10 4
f 27 4 20
f 14 11 28
f 14 29 13
f 14 28 30
f 14 30 29
f 18 28 11
f 31 9 10
f 27 32 10
f 31 10 32
f 19 22 33
f 22 13 34
f 22 34 35
f 22 35 33
f 21 19 36
f 19 33 36
f 18 17 37
f 18 38 28
f 18 37 38
f 34 13 29
f 39 20 21
f 27 20 40
f 39 40 20
f 23 41 26
f 23 42 41
f 24 42 23
f 26 43 17
f 26 44 43
f 26 41 44
f 43 37 17
f 31 25 9
f 34 45 35
f 34 29 46
f 34 46 45
f 21 36 47
f 39 21 47
f 48 24 25
f 31 49 25
f 48 25 49
f 50 36 33
f 51 33 35
f 50 33 51
f 52 47 36
f 52 36 50
f 43 53 37
f 43 44 54
f 43 54 53
f 55 41 42
f 24 56 42
f 57 55 42
f 57 42 56
f 55 58 41
f 58 44 41
f 30 28 59
f 38 59 28
f 30 60 29
f 30 59 61
f 30 61 60
f 62 32 27
f 62 27 40
f 51 35 63
f 63 35 45
f 46 29 60
f 38 37 64
f 38 65 59
f 38 64 65
f 39 47 66
f 67 47 52
f 67 66 47
f 48 56 24
f 68 31 32
f 62 69 32
f 68 32 69
f 70 40 39
f 62 40 71
f 70 71 40
f 53 64 37
f 46 72 45
f 46 60 73
f 46 73 72
f 50 51 74
f 51 63 75
f 51 75 74
f 55 76 58
f 55 77 76
f 57 77 55
f 58 78 44
f 78 54 44
f 52 50 79
f 50 74 79
f 68 49 31
f 70 39 66
f 58 76 80
f 58 80 78
f 53 54 81
f 53 82 64
f 53 81 82
f 63 45 83
f 63 84 75
f 63 83 84
f 48 85 56
f 86 57 56
f 86 56 85
f 72 83 45
f 87 48 49
f 68 88 49
f 87 49 88
f 52 79 89
f 67 52 89
f 90 66 67
f 70 66 91
f 90 91 66
f 92 76 77
f 57 93 77
f 94 92 77
f 94 77 93
f 95 79 74
f 96 74 75
f 95 74 96
f 92 97 76
f 97 80 76
f 78 98 54
f 78 80 99
f 78 99 98
f 100 89 79
f 100 79 95
f 84 101 75
f 96 75 101
f 84 83 102
f 72 102 83
f 103 69 62
f 103 62 71
f 87 85 48
f 86 93 57
f 61 59 104
f 61 105 60
f 61 106 105
f 61 104 106
f 65 104 59
f 81 54 98
f 107 68 69
f 103 108 69
f 107 69 108
f 105 73 60
f 65 64 109
f 65 110 104
f 65 109 110
f 111 71 70
f 103 71 112
f 111 112 71
f 72 73 113
f 105 113 73
f 67 89 114
f 90 67 114
f 115 114 89
f 115 89 100
f 109 64 82
f 107 88 68
f 92 116 97
f 92 117 116
f 94 117 92
f 97 118 80
f 97 116 119
f 97 119 118
f 120 86 85
f 87 121 85
f 120 85 121
f 84 122 101
f 84 102 123
f 84 124 122
f 84 123 124
f 95 96 125
f 96 101 126
f 96 126 125
f 72 127 102
f 72 113 128
f 72 128 127
f 111 70 91
f 99 80 118
f 86 129 93
f 130 94 93
f 130 93 129
f 100 95 131
f 95 125 131
f 81 132 82
f 109 82 132
f 133 87 88
f 107 134 88
f 133 88 134
f 126 101 122
f 135 91 90
f 111 91 136
f 135 136 91
f 81 98 137
f 99 137 98
f 90 114 138
f 139 114 115
f 139 138 114
f 120 129 86
f 140 123 102
f 140 102 127
f 100 131 141
f 115 100 141
f 142 116 117
f 142 143 116
f 119 116 143
f 94 144 117
f 145 117 144
f 145 142 117
f 133 121 87
f 130 144 94
f 99 118 146
f 119 146 118
f 126 122 147
f 124 147 122
f 148 108 103
f 148 103 112
f 81 137 149
f 81 150 132
f 81 149 150
f 151 107 108
f 148 152 108
f 151 108 152
f 135 90 138
f 153 131 125
f 126 154 125
f 153 125 154
f 124 123 140
f 155 141 131
f 155 131 153
f 156 130 129
f 120 157 129
f 156 129 157
f 99 158 137
f 99 146 159
f 99 159 158
f 151 134 107
f 160 112 111
f 148 112 161
f 160 161 112
f 162 120 121
f 133 163 121
f 162 121 163
f 126 147 164
f 126 165 154
f 126 164 165
f 142 166 143
f 119 143 167
f 166 167 143
f 130 168 144
f 169 145 144
f 169 144 168
f 115 141 170
f 139 115 170
f 171 170 141
f 171 141 155
f 145 172 142
f 142 172 166
f 119 173 146
f 119 167 174
f 119 174 173
f 139 175 138
f 135 138 175
f 176 133 134
f 151 177 134
f 176 134 177
f 160 111 136
f 178 113 105
f 128 113 178
f 106 179 105
f 178 105 179
f 106 104 180
f 106 181 179
f 106 180 181
f 156 168 130
f 124 182 147
f 124 140 183
f 124 184 182
f 124 183 184
f 164 147 182
f 180 104 110
f 149 137 158
f 109 185 110
f 180 110 185
f 128 186 127
f 128 178 187
f 128 187 186
f 162 157 120
f 109 132 188
f 109 189 185
f 109 188 189
f 159 146 173
f 145 190 172
f 169 190 145
f 191 136 135
f 160 136 192
f 191 192 136
f 139 170 193
f 171 193 170
f 166 172 194
f 166 195 167
f 166 194 196
f 166 197 195
f 166 196 197
f 198 172 190
f 198 194 172
f 174 167 195
f 153 154 199
f 155 153 200
f 153 199 200
f 199 154 165
f 176 163 133
f 140 127 186
f 188 132 150
f 171 155 201
f 155 200 201
f 164 202 165
f 199 165 202
f 203 139 193
f 139 204 175
f 203 204 139
f 205 169 168
f 156 206 168
f 205 168 206
f 207 156 157
f 162 208 157
f 207 157 208
f 191 135 175
f 174 209 173
f 159 173 209
f 210 152 148
f 211 151 152
f 210 212 152
f 211 152 212
f 140 213 183
f 140 186 214
f 140 214 213
f 159 215 158
f 149 158 215
f 169 216 190
f 217 198 190
f 217 190 216
f 210 148 161
f 164 182 218
f 219 218 182
f 219 182 184
f 171 220 193
f 171 201 221
f 222 220 171
f 222 171 221
f 223 196 194
f 198 223 194
f 174 195 224
f 197 224 195
f 164 225 202
f 164 218 226
f 164 226 225
f 223 227 196
f 197 196 227
f 228 162 163
f 176 229 163
f 228 163 229
f 149 230 150
f 188 150 230
f 203 193 220
f 231 175 204
f 191 175 232
f 231 232 175
f 205 216 169
f 211 177 151
f 207 206 156
f 233 161 160
f 210 161 234
f 233 234 161
f 235 184 183
f 235 183 213
f 199 236 200
f 199 202 237
f 199 237 238
f 199 238 236
f 236 201 200
f 174 224 239
f 174 240 209
f 174 239 240
f 237 202 225
f 198 241 223
f 217 241 198
f 159 209 242
f 159 243 215
f 159 242 243
f 244 221 201
f 236 244 201
f 223 245 227
f 223 241 246
f 223 247 245
f 223 246 247
f 197 227 248
f 197 249 224
f 197 248 250
f 197 250 249
f 203 220 251
f 222 251 220
f 252 222 221
f 252 221 253
f 244 253 221
f 226 218 219
f 231 204 203
f 228 208 162
f 245 248 227
f 233 160 192
f 237 225 254
f 226 254 225
f 255 205 206
f 207 256 206
f 255 206 256
f 149 215 257
f 149 258 230
f 149 257 258
f 205 259 216
f 260 217 216
f 260 216 259
f 219 184 235
f 261 176 177
f 211 262 177
f 261 177 262
f 249 239 224
f 217 263 241
f 264 246 241
f 264 241 263
f 240 242 209
f 203 251 265
f 231 203 266
f 203 265 266
f 237 267 238
f 237 254 268
f 237 268 269
f 237 269 267
f 222 270 251
f 271 222 252
f 271 270 222
f 245 247 272
f 273 247 246
f 273 272 247
f 274 207 208
f 228 275 208
f 274 208 275
f 276 192 191
f 233 192 277
f 276 277 192
f 236 238 267
f 245 278 248
f 278 250 248
f 178 279 187
f 178 179 280
f 178 281 279
f 178 280 281
f 226 282 254
f 268 254 282
f 226 219 283
f 226 284 282
f 226 283 284
f 285 186 187
f 285 187 279
f 245 272 286
f 245 287 278
f 245 286 287
f 255 259 205
f 260 263 217
f 288 252 253
f 288 253 289
f 290 289 253
f 290 253 244
f 280 179 181
f 214 186 285
f 268 291 269
f 269 292 267
f 269 291 292
f 293 251 270
f 293 265 251
f 276 191 232
f 219 235 294
f 219 295 283
f 219 294 295
f 268 296 291
f 268 297 296
f 268 282 298
f 268 298 297
f 214 299 213
f 214 300 299
f 214 285 300
f 243 257 215
f 249 250 301
f 249 302 239
f 249 301 302
f 264 273 246
f 240 239 303
f 240 304 242
f 240 303 304
f 180 305 181
f 280 181 305
f 271 252 288
f 274 256 207
f 235 213 299
f 306 232 231
f 306 307 232
f 276 232 307
f 261 229 176
f 308 291 296
f 308 296 297
f 180 185 309
f 180 310 305
f 180 309 310
f 292 311 267
f 236 267 311
f 292 291 312
f 308 312 291
f 313 286 272
f 273 313 272
f 298 282 284
f 314 264 263
f 260 315 263
f 314 263 315
f 288 289 316
f 316 289 290
f 309 185 189
f 317 260 259
f 255 318 259
f 317 259 318
f 278 319 250
f 278 287 320
f 278 320 319
f 306 231 266
f 235 321 294
f 235 299 322
f 235 322 321
f 293 270 271
f 323 212 210
f 323 210 234
f 324 284 283
f 324 283 295
f 313 325 286
f 325 287 286
f 243 242 326
f 243 327 257
f 243 326 327
f 288 316 328
f 288 328 329
f 271 288 330
f 288 329 330
f 292 312 331
f 292 331 311
f 298 332 297
f 298 284 333
f 298 333 332
f 188 334 189
f 309 189 334
f 335 211 212
f 323 336 212
f 335 212 336
f 337 255 256
f 274 338 256
f 337 256 338
f 339 266 265
f 306 266 340
f 339 340 266
f 319 301 250
f 302 303 239
f 308 297 341
f 308 342 312
f 308 341 342
f 264 343 273
f 273 344 313
f 273 345 344
f 273 343 345
f 332 341 297
f 346 228 229
f 261 347 229
f 346 229 347
f 188 230 348
f 188 349 334
f 188 348 349
f 339 265 293
f 350 295 294
f 350 294 321
f 314 343 264
f 351 331 312
f 351 312 342
f 304 326 242
f 317 315 260
f 316 352 328
f 353 328 352
f 353 329 328
f 313 354 325
f 313 344 355
f 313 356 354
f 313 355 356
f 357 234 233
f 323 234 358
f 357 358 234
f 293 271 359
f 271 330 360
f 271 360 359
f 333 284 324
f 316 361 352
f 316 290 362
f 316 363 361
f 316 362 363
f 236 290 244
f 236 311 364
f 236 365 290
f 236 364 366
f 236 366 367
f 236 367 365
f 337 318 255
f 325 368 287
f 325 354 369
f 325 369 368
f 368 320 287
f 351 311 331
f 351 364 311
f 370 342 341
f 332 370 341
f 302 301 371
f 302 372 303
f 302 371 372
f 346 275 228
f 335 262 211
f 332 333 373
f 333 324 373
f 319 374 301
f 319 320 375
f 319 375 374
f 324 295 350
f 258 348 230
f 339 293 376
f 293 359 377
f 293 377 376
f 370 378 342
f 351 342 378
f 332 379 370
f 332 380 379
f 332 373 380
f 381 314 315
f 317 382 315
f 381 315 382
f 304 303 383
f 304 384 326
f 304 383 384
f 385 355 344
f 385 344 345
f 386 330 329
f 386 360 330
f 357 233 277
f 314 387 343
f 388 345 343
f 388 343 387
f 389 274 275
f 346 390 275
f 389 275 390
f 322 299 391
f 322 392 321
f 322 393 392
f 322 391 393
f 394 378 370
f 394 370 379
f 395 317 318
f 337 396 318
f 395 318 396
f 351 378 397
f 398 364 351
f 398 351 397
f 354 356 399
f 356 355 400
f 356 400 399
f 391 299 300
f 394 397 378
f 352 361 401
f 353 352 402
f 352 401 402
f 374 371 301
f 354 399 403
f 369 354 403
f 368 404 320
f 368 369 405
f 368 405 404
f 285 406 300
f 391 300 406
f 324 407 373
f 324 350 408
f 324 408 407
f 409 362 290
f 365 410 290
f 409 290 410
f 411 306 340
f 412 340 339
f 412 413 340
f 411 340 413
f 350 321 392
f 414 329 353
f 414 386 329
f 389 338 274
f 411 307 306
f 412 339 376
f 415 277 276
f 357 277 416
f 415 416 277
f 381 387 314
f 285 279 417
f 417 279 281
f 285 418 406
f 285 417 418
f 415 276 307
f 411 419 307
f 415 307 419
f 280 420 281
f 417 281 420
f 258 257 421
f 258 422 348
f 258 421 422
f 360 377 359
f 363 401 361
f 423 379 380
f 423 380 373
f 372 383 303
f 355 424 400
f 355 385 424
f 363 362 409
f 398 366 364
f 394 379 425
f 394 426 397
f 394 425 426
f 404 375 320
f 427 337 338
f 389 428 338
f 427 338 428
f 423 425 379
f 280 305 429
f 280 430 420
f 280 429 430
f 431 397 426
f 431 398 397
f 423 373 407
f 395 382 317
f 432 261 262
f 335 433 262
f 432 262 433
f 350 434 408
f 350 392 435
f 350 435 434
f 388 385 345
f 399 436 437
f 403 399 437
f 399 400 436
f 437 436 438
f 403 437 439
f 439 437 440
f 437 438 440
f 429 305 310
f 374 375 441
f 374 442 371
f 374 441 442
f 365 376 377
f 365 443 376
f 412 376 443
f 398 444 366
f 444 367 366
f 327 421 257
f 400 438 436
f 400 424 438
f 431 426 425
f 369 403 445
f 405 369 445
f 427 396 337
f 363 409 446
f 363 446 447
f 363 448 401
f 363 447 448
f 353 402 449
f 414 353 449
f 381 450 387
f 451 388 387
f 451 387 450
f 452 425 423
f 431 425 453
f 452 453 425
f 423 407 454
f 423 454 452
f 309 455 310
f 429 310 455
f 327 326 456
f 327 456 457
f 327 457 421
f 458 381 382
f 395 459 382
f 458 382 459
f 445 403 439
f 439 440 460
f 445 439 460
f 372 371 461
f 372 462 383
f 372 461 462
f 360 410 377
f 386 410 360
f 365 377 410
f 365 463 443
f 365 367 463
f 384 456 326
f 454 407 408
f 454 408 434
f 388 464 385
f 385 465 424
f 385 464 465
f 431 444 398
f 404 466 375
f 404 405 467
f 404 467 466
f 440 438 468
f 460 440 469
f 440 468 469
f 470 413 412
f 470 412 443
f 471 392 393
f 435 392 471
f 391 472 393
f 471 393 472
f 386 409 410
f 473 411 413
f 470 474 413
f 473 413 474
f 475 395 396
f 427 476 396
f 475 396 476
f 309 334 477
f 309 478 455
f 309 477 478
f 384 383 479
f 384 480 456
f 384 479 480
f 470 443 463
f 435 481 434
f 435 471 482
f 435 482 481
f 446 386 414
f 446 409 386
f 466 441 375
f 458 450 381
f 483 336 323
f 483 323 358
f 444 484 367
f 484 463 367
f 432 347 261
f 451 464 388
f 442 461 371
f 424 468 438
f 424 465 468
f 485 445 460
f 405 445 485
f 460 469 486
f 485 460 486
f 402 401 487
f 402 487 449
f 446 414 488
f 414 449 488
f 431 489 444
f 490 431 453
f 490 489 431
f 467 405 485
f 491 335 336
f 483 492 336
f 491 336 492
f 391 406 493
f 391 494 472
f 391 493 494
f 473 419 411
f 446 488 447
f 454 453 452
f 349 477 334
f 444 495 484
f 444 489 495
f 454 490 453
f 496 358 357
f 483 358 497
f 496 497 358
f 454 434 481
f 475 459 395
f 498 470 463
f 470 499 474
f 498 500 470
f 470 500 499
f 486 469 501
f 469 468 502
f 469 502 501
f 462 479 383
f 503 346 347
f 432 504 347
f 503 347 504
f 464 505 465
f 451 506 464
f 464 506 505
f 484 498 463
f 507 415 419
f 473 508 419
f 507 419 508
f 442 441 509
f 442 510 461
f 442 509 510
f 482 471 511
f 471 472 512
f 471 512 511
f 513 401 448
f 513 487 401
f 503 390 346
f 514 451 450
f 458 515 450
f 514 450 515
f 493 406 418
f 482 511 516
f 482 516 495
f 482 495 481
f 454 481 490
f 349 348 517
f 349 518 477
f 349 517 518
f 484 516 498
f 484 495 516
f 466 467 519
f 466 520 441
f 466 519 520
f 521 474 499
f 521 473 474
f 513 449 487
f 513 488 449
f 512 472 494
f 522 485 486
f 467 485 522
f 486 501 523
f 522 486 523
f 447 513 448
f 447 488 513
f 524 428 389
f 525 427 428
f 525 428 526
f 524 526 428
f 465 502 468
f 465 505 502
f 524 389 390
f 503 527 390
f 524 390 527
f 528 458 459
f 475 529 459
f 528 459 529
f 496 357 416
f 498 511 500
f 512 500 511
f 512 499 500
f 498 516 511
f 525 476 427
f 491 433 335
f 417 530 418
f 493 418 530
f 417 420 531
f 417 532 530
f 417 531 532
f 507 416 415
f 531 420 430
f 490 481 495
f 490 495 489
f 462 461 533
f 462 534 479
f 462 533 534
f 422 517 348
f 507 535 416
f 496 416 535
f 519 467 522
f 514 506 451
f 512 521 499
f 512 494 536
f 512 536 521
f 520 509 441
f 429 537 430
f 531 430 537
f 528 515 458
f 521 508 473
f 429 455 538
f 429 539 537
f 429 538 539
f 540 475 476
f 525 541 476
f 540 476 541
f 493 536 494
f 506 542 505
f 514 543 506
f 506 543 542
f 510 533 461
f 523 501 544
f 501 502 545
f 501 545 544
f 422 421 546
f 422 547 517
f 422 546 547
f 457 456 548
f 480 548 456
f 549 522 523
f 519 522 549
f 523 544 550
f 549 523 550
f 478 538 455
f 457 546 421
f 457 548 551
f 457 551 546
f 505 545 502
f 505 542 545
f 480 479 552
f 480 553 548
f 480 552 553
f 554 514 515
f 528 555 515
f 554 515 555
f 520 556 509
f 520 519 557
f 520 557 556
f 558 432 433
f 491 559 433
f 558 433 559
f 510 509 560
f 510 561 533
f 510 560 561
f 521 562 508
f 563 507 508
f 563 508 562
f 540 529 475
f 521 536 564
f 521 564 562
f 493 564 536
f 493 530 565
f 493 565 564
f 534 552 479
f 478 477 566
f 478 567 538
f 478 566 567
f 568 528 529
f 540 569 529
f 568 529 569
f 554 543 514
f 556 560 509
f 557 519 549
f 563 535 507
f 570 483 497
f 570 492 483
f 571 497 496
f 571 572 497
f 570 497 572
f 565 530 532
f 568 555 528
f 534 533 573
f 534 574 552
f 534 573 574
f 565 562 564
f 565 563 562
f 558 504 432
f 543 575 542
f 554 576 543
f 543 576 575
f 577 525 526
f 577 541 525
f 571 496 535
f 563 578 535
f 571 535 578
f 579 491 492
f 570 580 492
f 579 492 580
f 581 526 524
f 577 526 582
f 581 582 526
f 518 566 477
f 531 583 532
f 565 532 583
f 550 544 584
f 544 545 585
f 544 585 584
f 531 537 586
f 531 587 583
f 531 586 587
f 588 549 550
f 557 549 588
f 588 550 589
f 550 584 589
f 556 590 560
f 556 557 591
f 556 591 590
f 561 573 533
f 542 585 545
f 542 575 585
f 592 540 541
f 577 593 541
f 592 541 593
f 594 503 504
f 558 595 504
f 594 504 595
f 539 586 537
f 596 554 555
f 568 597 555
f 596 555 597
f 594 527 503
f 581 524 527
f 581 527 598
f 594 598 527
f 539 538 599
f 539 600 586
f 539 599 600
f 518 517 601
f 518 602 566
f 518 601 602
f 561 560 603
f 561 604 573
f 561 603 604
f 565 578 563
f 565 583 578
f 592 569 540
f 547 601 517
f 579 559 491
f 567 599 538
f 553 605 548
f 551 548 605
f 590 603 560
f 596 576 554
f 553 552 606
f 553 607 605
f 553 606 607
f 591 557 588
f 608 568 569
f 592 609 569
f 608 569 609
f 587 578 583
f 587 571 578
f 551 610 546
f 551 605 611
f 551 611 610
f 547 546 610
f 547 612 601
f 547 610 612
f 574 606 552
f 576 613 575
f 596 614 576
f 576 614 613
f 608 597 568
f 587 572 571
f 587 586 572
f 600 572 586
f 600 570 572
f 615 588 589
f 591 588 615
f 589 584 616
f 615 589 617
f 589 616 617
f 590 618 603
f 590 591 619
f 590 619 618
f 584 585 620
f 584 620 616
f 574 573 621
f 574 622 606
f 574 621 622
f 567 623 599
f 567 566 624
f 567 624 623
f 600 580 570
f 625 596 597
f 608 626 597
f 625 597 626
f 575 620 585
f 575 613 620
f 600 599 580
f 604 621 573
f 627 558 559
f 579 628 559
f 627 559 628
f 604 603 629
f 604 630 621
f 604 629 630
f 631 577 582
f 632 582 581
f 631 582 633
f 632 633 582
f 631 593 577
f 634 592 593
f 631 635 593
f 634 593 635
f 623 580 599
f 623 579 580
f 625 614 596
f 618 629 603
f 619 591 615
f 632 581 598
f 627 595 558
f 602 624 566
f 634 609 592
f 614 636 613
f 625 637 614
f 614 637 636
f 638 608 609
f 634 639 609
f 638 609 639
f 640 598 594
f 632 598 641
f 640 641 598
f 642 615 617
f 619 615 642
f 617 616 643
f 642 617 644
f 617 643 644
f 640 594 595
f 627 645 595
f 640 595 645
f 638 626 608
f 618 646 629
f 618 619 647
f 618 647 646
f 607 648 605
f 611 605 648
f 607 606 649
f 607 650 648
f 607 649 650
f 616 620 651
f 616 651 643
f 622 649 606
f 622 621 652
f 622 652 653
f 622 653 649
f 602 601 654
f 602 655 624
f 602 654 655
f 656 625 626
f 638 657 626
f 656 626 657
f 613 651 620
f 613 636 651
f 630 652 621
f 630 629 658
f 630 659 652
f 630 658 659
f 623 628 579
f 612 654 601
f 611 660 610
f 611 648 661
f 611 661 660
f 656 637 625
f 612 610 660
f 612 660 662
f 612 662 654
f 646 658 629
f 647 619 642
f 623 624 628
f 650 631 633
f 661 633 632
f 650 633 648
f 661 648 633
f 650 635 631
f 637 663 636
f 656 664 637
f 637 664 663
f 665 642 644
f 644 643 666
f 665 644 667
f 644 666 667
f 647 642 665
f 653 639 634
f 659 638 639
f 653 652 639
f 659 639 652
f 661 632 641
f 653 634 635
f 653 635 649
f 650 649 635
f 655 627 628
f 655 628 624
f 646 668 658
f 646 647 669
f 646 669 668
f 636 670 651
f 643 651 670
f 636 663 670
f 643 670 666
f 659 657 638
f 659 658 657
f 668 657 658
f 668 656 657
f 655 645 627
f 662 641 640
f 661 641 660
f 662 660 641
f 668 664 656
f 669 647 665
f 664 671 663
f 668 669 664
f 664 669 671
f 662 640 645
f 663 666 670
f 663 671 666
f 655 654 645
f 662 645 654
f 671 665 667
f 671 667 666
f 669 665 671
