# 
# Wavefront OBJ file
# Created with Kaydara FBX
# 
mtllib c:\users\tjvan\onedrive\documenten\fontys\minor\nx\.mtlmodels\saphenous_branch_of_femoralis_nerve.r.obj

g Saphenous_branch_of_Femoralis_nerve_r
v -0.044980 0.581907 -0.002520
v -0.044472 0.579959 -0.002520
v -0.044852 0.581838 -0.002235
v -0.044060 0.581776 -0.001965
v -0.044866 0.581978 -0.002810
v -0.044583 0.579956 -0.002798
v -0.043610 0.581799 -0.002052
v -0.044170 0.580019 -0.002312
v -0.044515 0.581790 -0.002032
v -0.044474 0.580010 -0.003072
v -0.044540 0.582032 -0.003027
v -0.043283 0.581853 -0.002270
v -0.043546 0.577480 -0.002656
v -0.043642 0.577453 -0.002917
v -0.044175 0.580108 -0.003268
v -0.044089 0.582055 -0.003114
v -0.043169 0.581924 -0.002560
v -0.043759 0.580120 -0.002230
v -0.043277 0.577575 -0.002459
v -0.043540 0.577502 -0.003172
v -0.042908 0.577714 -0.002380
v -0.043764 0.580222 -0.003334
v -0.043267 0.577614 -0.003354
v -0.043349 0.580235 -0.002296
v -0.043634 0.582040 -0.003047
v -0.043297 0.581992 -0.002844
v -0.042537 0.577858 -0.002439
v -0.043354 0.580323 -0.003252
v -0.042896 0.577758 -0.003413
v -0.042187 0.574326 -0.002770
v -0.042275 0.574299 -0.003012
v -0.043050 0.580333 -0.002492
v -0.041941 0.574422 -0.002587
v -0.042182 0.574347 -0.003249
v -0.042265 0.577969 -0.002620
v -0.043052 0.580384 -0.003044
v -0.042527 0.577896 -0.003333
v -0.041602 0.574561 -0.002513
v -0.042941 0.580387 -0.002766
v -0.041932 0.574458 -0.003417
v -0.042163 0.578018 -0.002876
v -0.042259 0.577992 -0.003137
v -0.041263 0.574705 -0.002567
v -0.041592 0.574602 -0.003472
v -0.041012 0.574816 -0.002735
v -0.041253 0.574741 -0.003398
v -0.040491 0.570442 -0.002974
v -0.040575 0.570422 -0.003197
v -0.040919 0.574864 -0.002972
v -0.041007 0.574837 -0.003215
v -0.040262 0.570526 -0.002806
v -0.040491 0.570471 -0.003416
v -0.039949 0.570651 -0.002737
v -0.040261 0.570576 -0.003571
v -0.039635 0.570784 -0.002787
v -0.039947 0.570709 -0.003621
v -0.039406 0.570889 -0.002942
v -0.039634 0.570834 -0.003553
v -0.039321 0.570938 -0.003161
v -0.039405 0.570918 -0.003384
v -0.038556 0.565790 -0.003378
v -0.038636 0.565781 -0.003582
v -0.038342 0.565857 -0.003224
v -0.038561 0.565831 -0.003781
v -0.038052 0.565963 -0.003162
v -0.038350 0.565927 -0.003923
v -0.037763 0.566080 -0.003209
v -0.038061 0.566044 -0.003970
v -0.037552 0.566176 -0.003351
v -0.037771 0.566150 -0.003908
v -0.037477 0.566226 -0.003551
v -0.037557 0.566217 -0.003754
v -0.036481 0.560338 -0.004090
v -0.036557 0.560340 -0.004274
v -0.036282 0.560387 -0.003952
v -0.036491 0.560390 -0.004455
v -0.036014 0.560472 -0.003898
v -0.036299 0.560477 -0.004584
v -0.035749 0.560571 -0.003941
v -0.036034 0.560576 -0.004627
v -0.035557 0.560658 -0.004070
v -0.035766 0.560661 -0.004572
v -0.035491 0.560709 -0.004251
v -0.035567 0.560710 -0.004434
v -0.034366 0.554056 -0.005221
v -0.034438 0.554068 -0.005384
v -0.034183 0.554087 -0.005099
v -0.034380 0.554118 -0.005546
v -0.034207 0.554194 -0.005662
v -0.033939 0.554152 -0.005052
v -0.033966 0.554276 -0.005702
v -0.033698 0.554234 -0.005092
v -0.033722 0.554341 -0.005655
v -0.033525 0.554310 -0.005209
v -0.033467 0.554360 -0.005370
v -0.033539 0.554372 -0.005534
v -0.032380 0.546934 -0.007022
v -0.032313 0.546915 -0.006879
v -0.032329 0.546983 -0.007165
v -0.032147 0.546930 -0.006774
v -0.032175 0.547049 -0.007268
v -0.031927 0.546976 -0.006735
v -0.031959 0.547114 -0.007306
v -0.031711 0.547041 -0.006772
v -0.031739 0.547160 -0.007266
v -0.031557 0.547106 -0.006876
v -0.031573 0.547175 -0.007161
v -0.031506 0.547156 -0.007018
v -0.030483 0.538910 -0.009297
v -0.030423 0.538884 -0.009175
v -0.030440 0.538957 -0.009420
v -0.030275 0.538887 -0.009086
v -0.030305 0.539013 -0.009512
v -0.030080 0.538916 -0.009055
v -0.030114 0.539062 -0.009546
v -0.029890 0.538966 -0.009089
v -0.029919 0.539092 -0.009515
v -0.029755 0.539021 -0.009180
v -0.029772 0.539094 -0.009426
v -0.029712 0.539068 -0.009304
v -0.028849 0.529966 -0.012319
v -0.028796 0.529937 -0.012217
v -0.028813 0.530010 -0.012423
v -0.028669 0.529929 -0.012144
v -0.028697 0.530056 -0.012502
v -0.028500 0.529946 -0.012120
v -0.028533 0.530092 -0.012534
v -0.028336 0.529982 -0.012152
v -0.028365 0.530108 -0.012510
v -0.028221 0.530028 -0.012231
v -0.028237 0.530101 -0.012437
v -0.028184 0.530071 -0.012335
v -0.027581 0.520074 -0.016198
v -0.027536 0.520044 -0.016115
v -0.027551 0.520113 -0.016284
v -0.027429 0.520030 -0.016058
v -0.027455 0.520150 -0.016350
v -0.027288 0.520037 -0.016041
v -0.027318 0.520175 -0.016378
v -0.027151 0.520062 -0.016069
v -0.027177 0.520181 -0.016361
v -0.027055 0.520098 -0.016135
v -0.027070 0.520167 -0.016304
v -0.027025 0.520137 -0.016221
v -0.026780 0.509207 -0.021044
v -0.026744 0.509178 -0.020980
v -0.026756 0.509239 -0.021111
v -0.026658 0.509161 -0.020937
v -0.026679 0.509268 -0.021164
v -0.026546 0.509161 -0.020926
v -0.026570 0.509284 -0.021188
v -0.026436 0.509177 -0.020950
v -0.026457 0.509283 -0.021177
v -0.026359 0.509205 -0.021003
v -0.026372 0.509266 -0.021134
v -0.026336 0.509238 -0.021070
v -0.068095 0.843674 0.038833
v -0.067882 0.836312 0.039048
v -0.068126 0.843623 0.039539
v -0.067567 0.848454 0.039218
v -0.067426 0.836291 0.039783
v -0.067598 0.848390 0.039934
v -0.067660 0.843550 0.040280
v -0.067850 0.836358 0.038353
v -0.067576 0.843689 0.038350
v -0.067064 0.848344 0.038715
v -0.067064 0.826798 0.038470
v -0.066619 0.826799 0.039196
v -0.067338 0.836417 0.037882
v -0.067030 0.826842 0.037785
v -0.067149 0.848169 0.040672
v -0.066604 0.836301 0.040359
v -0.066823 0.843474 0.040856
v -0.066223 0.848091 0.038561
v -0.065270 0.847762 0.038796
v -0.066708 0.843665 0.038220
v -0.065814 0.826843 0.039767
v -0.066526 0.826917 0.037325
v -0.066483 0.836473 0.037762
v -0.066339 0.847852 0.041234
v -0.064460 0.847445 0.039358
v -0.065788 0.815569 0.037830
v -0.065354 0.815581 0.038546
v -0.065753 0.815610 0.037156
v -0.065636 0.836339 0.040622
v -0.065838 0.843416 0.041114
v -0.065724 0.843606 0.038478
v -0.064565 0.815644 0.039112
v -0.064865 0.826920 0.040032
v -0.065687 0.827005 0.037212
v -0.065257 0.815695 0.036705
v -0.065515 0.836511 0.038026
v -0.065386 0.847523 0.041469
v -0.064011 0.847225 0.040096
v -0.064781 0.836395 0.040503
v -0.064970 0.843391 0.040985
v -0.063635 0.815741 0.039376
v -0.064168 0.803164 0.037159
v -0.063743 0.803183 0.037865
v -0.064131 0.803204 0.036496
v -0.064886 0.843530 0.039055
v -0.064738 0.827082 0.037476
v -0.064433 0.815799 0.036597
v -0.064026 0.827008 0.039918
v -0.064693 0.836520 0.038602
v -0.064545 0.847270 0.041315
v -0.064042 0.847161 0.040812
v -0.062971 0.803258 0.038424
v -0.063642 0.803292 0.036054
v -0.064269 0.836453 0.040032
v -0.064451 0.843406 0.040502
v -0.064420 0.843457 0.039796
v -0.062811 0.815845 0.039268
v -0.063522 0.827084 0.039458
v -0.063933 0.827127 0.038048
v -0.063502 0.815896 0.036862
v -0.064237 0.836499 0.039336
v -0.062058 0.803366 0.038688
v -0.062833 0.803406 0.035950
v -0.063488 0.827127 0.038773
v -0.062313 0.790135 0.036487
v -0.061899 0.790160 0.037182
v -0.062275 0.790173 0.035835
v -0.062315 0.815930 0.038817
v -0.062714 0.815959 0.037427
v -0.061142 0.790241 0.037736
v -0.061793 0.790264 0.035401
v -0.061248 0.803480 0.038585
v -0.062279 0.815971 0.038143
v -0.061919 0.803515 0.036214
v -0.060246 0.790358 0.037998
v -0.060998 0.790384 0.035303
v -0.060759 0.803569 0.038142
v -0.061147 0.803589 0.036774
v -0.060337 0.777037 0.035845
v -0.059932 0.777067 0.036531
v -0.060722 0.803609 0.037480
v -0.060297 0.777074 0.035204
v -0.059450 0.790477 0.037899
v -0.060102 0.790500 0.035565
v -0.059190 0.777153 0.037078
v -0.059823 0.777166 0.034780
v -0.058969 0.790568 0.037466
v -0.058311 0.777275 0.037339
v -0.059345 0.790582 0.036118
v -0.059041 0.777289 0.034685
v -0.058930 0.790607 0.036814
v -0.058350 0.764429 0.035267
v -0.057954 0.764462 0.035942
v -0.058308 0.764463 0.034637
v -0.057529 0.777398 0.037244
v -0.058162 0.777410 0.034947
v -0.057228 0.764553 0.036482
v -0.057841 0.764555 0.034221
v -0.057055 0.777490 0.036820
v -0.057420 0.777497 0.035493
v -0.056365 0.764677 0.036741
v -0.057073 0.764680 0.034130
v -0.057015 0.777526 0.036179
v -0.056464 0.752866 0.034781
v -0.056078 0.752903 0.035446
v -0.056421 0.752897 0.034162
v -0.055597 0.764803 0.036651
v -0.056210 0.764805 0.034390
v -0.055367 0.752998 0.035979
v -0.055961 0.752988 0.033755
v -0.055130 0.764895 0.036235
v -0.055484 0.764896 0.034930
v -0.054521 0.753126 0.036237
v -0.055206 0.753114 0.033669
v -0.055088 0.764929 0.035605
v -0.054791 0.742908 0.034422
v -0.054415 0.742950 0.035076
v -0.054747 0.742934 0.033813
v -0.053766 0.753252 0.036151
v -0.054360 0.753242 0.033926
v -0.053719 0.743050 0.035602
v -0.054293 0.743022 0.033415
v -0.053306 0.753343 0.035743
v -0.053649 0.753337 0.034459
v -0.052889 0.743181 0.035858
v -0.053552 0.743148 0.033332
v -0.053263 0.753374 0.035124
v -0.053443 0.735110 0.034219
v -0.053078 0.735163 0.034863
v -0.053396 0.735126 0.033621
v -0.052148 0.743307 0.035775
v -0.052397 0.735273 0.035382
v -0.052722 0.743279 0.033588
v -0.052948 0.735209 0.033231
v -0.051695 0.743395 0.035377
v -0.051585 0.735408 0.035636
v -0.052026 0.743379 0.034114
v -0.052221 0.735335 0.033152
v -0.052535 0.730052 0.034204
v -0.052177 0.730101 0.034838
v -0.052486 0.730068 0.033618
v -0.051650 0.743422 0.034768
v -0.051510 0.730204 0.035349
v -0.052046 0.730147 0.033236
v -0.050857 0.735534 0.035557
v -0.051408 0.735470 0.033406
v -0.051499 0.723454 0.034167
v -0.051081 0.723470 0.034759
v -0.051509 0.723493 0.033584
v -0.050712 0.730332 0.035601
v -0.051330 0.730266 0.033161
v -0.050368 0.723539 0.035201
v -0.050409 0.735617 0.035166
v -0.051110 0.723579 0.033165
v -0.050727 0.735580 0.033925
v -0.050362 0.735633 0.034569
v -0.049997 0.730451 0.035525
v -0.050618 0.716427 0.033505
v -0.050145 0.716399 0.034046
v -0.050688 0.716503 0.032933
v -0.049551 0.723641 0.035374
v -0.050532 0.730395 0.033412
v -0.050408 0.723688 0.033023
v -0.050334 0.716608 0.032484
v -0.049394 0.716428 0.034412
v -0.049556 0.730530 0.035143
v -0.049865 0.730497 0.033923
v -0.048849 0.723749 0.035232
v -0.049874 0.709067 0.032318
v -0.049999 0.709170 0.031764
v -0.049352 0.709013 0.032804
v -0.049591 0.723790 0.033196
v -0.049653 0.716714 0.032278
v -0.049508 0.730547 0.034557
v -0.048566 0.716506 0.034504
v -0.049693 0.709294 0.031290
v -0.048573 0.709022 0.033092
v -0.049248 0.701494 0.030710
v -0.049425 0.701615 0.030178
v -0.048450 0.723835 0.034814
v -0.048684 0.701427 0.031138
v -0.048878 0.723858 0.033638
v -0.049039 0.709406 0.031023
v -0.049169 0.701756 0.029684
v -0.048825 0.716792 0.032370
v -0.047885 0.716612 0.034298
v -0.048460 0.723875 0.034230
v -0.048722 0.693828 0.028785
v -0.048949 0.693958 0.028279
v -0.047745 0.709091 0.033104
v -0.047886 0.701430 0.031348
v -0.048124 0.693757 0.029154
v -0.048547 0.701879 0.029361
v -0.048743 0.694113 0.027770
v -0.048211 0.709475 0.031035
v -0.048552 0.686317 0.026171
v -0.048279 0.686184 0.026649
v -0.048074 0.716821 0.032736
v -0.047531 0.716717 0.033849
v -0.048398 0.686483 0.025651
v -0.048161 0.694251 0.027395
v -0.047652 0.686118 0.026957
v -0.047315 0.693765 0.029286
v -0.047067 0.701503 0.031282
v -0.047091 0.709203 0.032838
v -0.048216 0.678809 0.023959
v -0.047900 0.678678 0.024406
v -0.047728 0.701953 0.029296
v -0.047601 0.716793 0.033277
v -0.048115 0.678981 0.023433
v -0.047859 0.686636 0.025230
v -0.047251 0.678623 0.024653
v -0.047923 0.671549 0.021748
v -0.047567 0.671427 0.022162
v -0.047432 0.709485 0.031323
v -0.047357 0.694335 0.027256
v -0.047873 0.671723 0.021219
v -0.047622 0.679148 0.022968
v -0.046840 0.686137 0.027013
v -0.047653 0.664654 0.019645
v -0.047262 0.664545 0.020023
v -0.046902 0.671387 0.022349
v -0.046511 0.693849 0.029146
v -0.046785 0.709327 0.032364
v -0.047655 0.664824 0.019116
v -0.047431 0.671901 0.020716
v -0.047078 0.686736 0.025019
v -0.046445 0.701627 0.030960
v -0.046930 0.701956 0.029505
v -0.047389 0.658240 0.017754
v -0.046965 0.658149 0.018096
v -0.047441 0.658398 0.017228
v -0.047267 0.665008 0.018578
v -0.046443 0.678659 0.024636
v -0.046871 0.679265 0.022690
v -0.046910 0.709430 0.031809
v -0.046586 0.664525 0.020150
v -0.047111 0.652425 0.016181
v -0.047110 0.658581 0.016659
v -0.047213 0.652562 0.015661
v -0.046716 0.672035 0.020375
v -0.046660 0.652360 0.016486
v -0.046548 0.694343 0.027388
v -0.046059 0.686237 0.026802
v -0.046285 0.658151 0.018162
v -0.046593 0.665157 0.018176
v -0.046104 0.671442 0.022260
v -0.046802 0.647321 0.015031
v -0.046940 0.652733 0.015064
v -0.046952 0.647435 0.014521
v -0.046328 0.647278 0.015295
v -0.046483 0.658741 0.016200
v -0.046189 0.701768 0.030466
v -0.046265 0.686755 0.025075
v -0.045928 0.693987 0.028772
v -0.045982 0.652384 0.016493
v -0.046738 0.647592 0.013901
v -0.046623 0.643352 0.014142
v -0.046779 0.643465 0.013633
v -0.046364 0.652894 0.014550
v -0.046366 0.701888 0.029934
v -0.045807 0.664599 0.019991
v -0.046063 0.679301 0.022673
v -0.045692 0.678776 0.024358
v -0.046147 0.643309 0.014401
v -0.046571 0.643619 0.013010
v -0.046441 0.638234 0.012919
v -0.046602 0.638354 0.012413
v -0.046217 0.647748 0.013337
v -0.045919 0.672090 0.020285
v -0.045657 0.647319 0.015242
v -0.045962 0.638187 0.013172
v -0.046401 0.638513 0.011789
v -0.046259 0.632172 0.011421
v -0.046425 0.632294 0.010917
v -0.045531 0.658244 0.017936
v -0.045814 0.665232 0.018017
v -0.046056 0.643772 0.012441
v -0.045949 0.694272 0.027756
v -0.045520 0.686390 0.026381
v -0.046419 0.544770 -0.010047
v -0.046476 0.539004 -0.009980
v -0.046497 0.544691 -0.009382
v -0.046216 0.538964 -0.009504
v -0.046274 0.550071 -0.009361
v -0.046362 0.549980 -0.008699
v -0.046243 0.544631 -0.008905
v -0.046407 0.539068 -0.010647
v -0.046243 0.533013 -0.010445
v -0.045977 0.532998 -0.009970
v -0.045728 0.658834 0.015973
v -0.045777 0.632122 0.011669
v -0.045389 0.671576 0.021918
v -0.045723 0.694142 0.028263
v -0.046028 0.544847 -0.010721
v -0.045874 0.550151 -0.010029
v -0.046230 0.632456 0.010292
v -0.046251 0.625480 0.009202
v -0.046080 0.625356 0.009704
v -0.046181 0.533059 -0.011114
v -0.046025 0.539140 -0.011327
v -0.045891 0.638669 0.011216
v -0.046115 0.549901 -0.008220
v -0.046030 0.554876 -0.008635
v -0.046128 0.554773 -0.007976
v -0.045639 0.653000 0.014258
v -0.045476 0.643349 0.014341
v -0.045258 0.652491 0.016201
v -0.045740 0.526812 -0.010730
v -0.045470 0.526826 -0.010258
v -0.045695 0.538960 -0.009346
v -0.045725 0.544605 -0.008743
v -0.045621 0.554960 -0.009297
v -0.046063 0.625644 0.008576
v -0.046083 0.618105 0.007325
v -0.045907 0.617980 0.007824
v -0.045596 0.625305 0.009947
v -0.045639 0.686689 0.025384
v -0.045727 0.632615 0.009714
v -0.045455 0.533018 -0.009818
v -0.045529 0.647861 0.012982
v -0.045809 0.533126 -0.011800
v -0.045686 0.526838 -0.011402
v -0.045292 0.638225 0.013105
v -0.045888 0.554680 -0.007496
v -0.045743 0.559088 -0.007917
v -0.045851 0.558976 -0.007262
v -0.045599 0.549857 -0.008053
v -0.045133 0.664749 0.019589
v -0.045901 0.618270 0.006697
v -0.045924 0.610362 0.005341
v -0.045743 0.610237 0.005838
v -0.045420 0.617929 0.008062
v -0.045565 0.625804 0.007993
v -0.045371 0.643883 0.012077
v -0.045413 0.679246 0.022920
v -0.045199 0.678943 0.023893
v -0.045430 0.544899 -0.011224
v -0.045435 0.539200 -0.011837
v -0.045270 0.550199 -0.010524
v -0.045325 0.559178 -0.008573
v -0.044948 0.526876 -0.010111
v -0.044969 0.647433 0.014886
v -0.045108 0.632159 0.011594
v -0.045749 0.610528 0.004711
v -0.045777 0.602444 0.003306
v -0.045591 0.602319 0.003802
v -0.045253 0.672051 0.020472
v -0.045366 0.686555 0.025862
v -0.045619 0.558871 -0.006781
v -0.045375 0.554622 -0.007325
v -0.045254 0.610186 0.006071
v -0.045410 0.618432 0.006109
v -0.045211 0.638781 0.010845
v -0.045010 0.555004 -0.009785
v -0.045471 0.562610 -0.007255
v -0.045588 0.562488 -0.006603
v -0.045322 0.526897 -0.012093
v -0.045226 0.533193 -0.012318
v -0.044903 0.658403 0.017477
v -0.045138 0.665212 0.018144
v -0.045608 0.602610 0.002675
v -0.045645 0.594544 0.001277
v -0.045454 0.594420 0.001771
v -0.044928 0.625342 0.009865
v -0.044910 0.520496 -0.010789
v -0.044638 0.520544 -0.010320
v -0.045042 0.562709 -0.007903
v -0.045099 0.602268 0.004029
v -0.045263 0.610690 0.004119
v -0.045053 0.538992 -0.009550
v -0.045080 0.544620 -0.008939
v -0.045050 0.632728 0.009337
v -0.045048 0.658835 0.016040
v -0.044862 0.520497 -0.011462
v -0.044816 0.533069 -0.010029
v -0.044948 0.671754 0.021415
v -0.044792 0.643460 0.013978
v -0.045483 0.594710 0.000644
v -0.045532 0.586856 -0.000690
v -0.045336 0.586732 -0.000198
v -0.044961 0.653024 0.014265
v -0.044707 0.559221 -0.009052
v -0.045363 0.562374 -0.006120
v -0.045109 0.558801 -0.006604
v -0.044952 0.549859 -0.008243
v -0.045269 0.565336 -0.006697
v -0.045396 0.565200 -0.006049
v -0.044960 0.594370 0.001994
v -0.045129 0.602773 0.002077
v -0.044753 0.617966 0.007974
v -0.044892 0.625918 0.007610
v -0.045376 0.587021 -0.001325
v -0.045439 0.579571 -0.002539
v -0.045238 0.579449 -0.002048
v -0.044858 0.647903 0.012929
v -0.044682 0.652651 0.015688
v -0.045097 0.679115 0.023367
v -0.044119 0.520628 -0.010181
v -0.044830 0.565452 -0.007335
v -0.045010 0.594873 0.000042
v -0.044612 0.638336 0.012735
v -0.044314 0.526949 -0.010330
v -0.044839 0.586682 0.000020
v -0.044786 0.544915 -0.011421
v -0.044793 0.539232 -0.012041
v -0.044623 0.550201 -0.010714
v -0.045289 0.579735 -0.003175
v -0.045371 0.572885 -0.004213
v -0.045165 0.572765 -0.003724
v -0.044587 0.610223 0.005976
v -0.044741 0.618546 0.005719
v -0.045178 0.565081 -0.005565
v -0.045193 0.567170 -0.006291
v -0.045330 0.567019 -0.005649
v -0.044745 0.664933 0.019051
v -0.044726 0.554613 -0.007507
v -0.044856 0.562298 -0.005938
v -0.045228 0.573046 -0.004851
v -0.045119 0.566899 -0.005162
v -0.044909 0.587182 -0.001932
v -0.044701 0.643923 0.012017
v -0.044747 0.526973 -0.012618
v -0.044507 0.520548 -0.012158
v -0.044418 0.562756 -0.008373
v -0.044740 0.579400 -0.001835
v -0.044829 0.579895 -0.003787
v -0.044432 0.632271 0.011217
v -0.044361 0.554995 -0.009967
v -0.044745 0.567312 -0.006917
v -0.044434 0.602306 0.003928
v -0.044598 0.610805 0.003722
v -0.044448 0.647589 0.014323
v -0.044898 0.671928 0.020886
v -0.044587 0.533244 -0.012529
v -0.044773 0.573204 -0.005469
v -0.044664 0.572717 -0.003515
v -0.044541 0.638818 0.010778
v -0.044673 0.565010 -0.005374
v -0.044616 0.566843 -0.004961
v -0.044458 0.558786 -0.006779
v -0.044296 0.594407 0.001886
v -0.044468 0.602888 0.001674
v -0.044255 0.625455 0.009482
v -0.044572 0.658587 0.016908
v -0.044747 0.665102 0.018522
v -0.044462 0.539051 -0.010060
v -0.044482 0.544673 -0.009442
v -0.044233 0.533137 -0.010546
v -0.044198 0.565516 -0.007793
v -0.044381 0.632764 0.009263
v -0.044625 0.658745 0.016382
v -0.044056 0.559205 -0.009227
v -0.044353 0.594988 -0.000368
v -0.043492 0.520726 -0.010408
v -0.044348 0.549907 -0.008738
v -0.044176 0.586720 -0.000095
v -0.044277 0.643613 0.013408
v -0.044510 0.652959 0.014570
v -0.044084 0.618080 0.007584
v -0.043697 0.514160 -0.010575
v -0.043426 0.514248 -0.010111
v -0.044256 0.587298 -0.002349
v -0.044224 0.625954 0.007529
v -0.044408 0.652823 0.015090
v -0.043653 0.514132 -0.011247
v -0.044202 0.562282 -0.006103
v -0.044384 0.647860 0.013193
v -0.044106 0.567406 -0.007359
v -0.044180 0.580010 -0.004211
v -0.044078 0.579438 -0.001957
v -0.043739 0.527025 -0.010855
v -0.044267 0.544889 -0.011259
v -0.044272 0.539227 -0.011884
v -0.044107 0.550157 -0.010547
v -0.044102 0.638493 0.012161
v -0.044129 0.573316 -0.005900
v -0.044113 0.527046 -0.012836
v -0.043940 0.520633 -0.012690
v -0.044003 0.572754 -0.003644
v -0.043922 0.610338 0.005579
v -0.044073 0.618583 0.005631
v -0.044115 0.554657 -0.007995
v -0.043765 0.562740 -0.008538
v -0.044224 0.643880 0.012276
v -0.044017 0.565007 -0.005528
v -0.043957 0.566864 -0.005100
v -0.044234 0.647745 0.013703
v -0.042913 0.514371 -0.009980
v -0.043848 0.554937 -0.009796
v -0.043928 0.632430 0.010639
v -0.043932 0.610842 0.003627
v -0.044065 0.533265 -0.012376
v -0.043773 0.602421 0.003525
v -0.044062 0.638771 0.011031
v -0.043305 0.514171 -0.011947
v -0.044081 0.539123 -0.010740
v -0.043861 0.533203 -0.011232
v -0.044092 0.544749 -0.010116
v -0.043840 0.558829 -0.007258
v -0.043803 0.602926 0.001573
v -0.044069 0.643767 0.012786
v -0.043639 0.594523 0.001476
v -0.043757 0.625616 0.008899
v -0.043542 0.565512 -0.007947
v -0.043899 0.632715 0.009511
v -0.043948 0.549987 -0.009407
v -0.043546 0.559136 -0.009050
v -0.043688 0.595026 -0.000476
v -0.042924 0.520812 -0.010940
v -0.043523 0.586836 -0.000511
v -0.044013 0.544828 -0.010781
v -0.044011 0.539187 -0.011408
v -0.043860 0.550078 -0.010069
v -0.043901 0.638652 0.011537
v -0.043593 0.587336 -0.002463
v -0.043593 0.618242 0.006996
v -0.043375 0.527084 -0.011546
v -0.043740 0.625904 0.007771
v -0.043578 0.562330 -0.006573
v -0.043446 0.567427 -0.007498
v -0.043518 0.580048 -0.004333
v -0.043429 0.579553 -0.002380
v -0.042294 0.514498 -0.010216
v -0.043591 0.527096 -0.012690
v -0.043312 0.520731 -0.012917
v -0.043608 0.554844 -0.009316
v -0.043706 0.554741 -0.008657
v -0.043468 0.573353 -0.006028
v -0.043733 0.632592 0.010015
v -0.043799 0.533250 -0.011902
v -0.043257 0.562665 -0.008356
v -0.043360 0.572866 -0.004075
v -0.043437 0.610500 0.004987
v -0.043587 0.618532 0.005869
v -0.043385 0.565071 -0.005986
v -0.043317 0.566958 -0.005542
v -0.042747 0.514266 -0.012488
v -0.043294 0.602584 0.002927
v -0.043443 0.610791 0.003860
v -0.043569 0.625780 0.008273
v -0.043321 0.527110 -0.012217
v -0.043314 0.559031 -0.008569
v -0.043421 0.558918 -0.007913
v -0.043311 0.602875 0.001800
v -0.043037 0.565441 -0.007756
v -0.043166 0.594686 0.000873
v -0.043410 0.618407 0.006368
v -0.042569 0.520862 -0.011636
v -0.042044 0.507900 -0.010040
v -0.041775 0.508021 -0.009583
v -0.043194 0.594976 -0.000253
v -0.042004 0.507850 -0.010711
v -0.043057 0.586998 -0.001119
v -0.042793 0.520815 -0.012777
v -0.043150 0.562428 -0.007221
v -0.043097 0.587286 -0.002246
v -0.043261 0.610666 0.004358
v -0.043032 0.562551 -0.007874
v -0.042944 0.567371 -0.007297
v -0.043020 0.579999 -0.004120
v -0.042969 0.579713 -0.002992
v -0.041736 0.514593 -0.010757
v -0.042968 0.573305 -0.005820
v -0.041269 0.508179 -0.009461
v -0.042905 0.573024 -0.004692
v -0.043125 0.602750 0.002296
v -0.042521 0.520863 -0.012309
v -0.042947 0.565187 -0.006624
v -0.042869 0.567100 -0.006168
v -0.041664 0.507884 -0.011416
v -0.042129 0.514392 -0.012725
v -0.043003 0.594851 0.000241
v -0.042819 0.565322 -0.007272
v -0.042900 0.587163 -0.001753
v -0.042819 0.579876 -0.003629
v -0.042732 0.567251 -0.006810
v -0.042762 0.573185 -0.005331
v -0.041389 0.514632 -0.011457
v -0.040661 0.508333 -0.009708
v -0.041615 0.514516 -0.012593
v -0.041117 0.507992 -0.011966
v -0.041344 0.514603 -0.012129
v -0.040114 0.508441 -0.010258
v -0.040509 0.508146 -0.012213
v -0.041348 0.505717 -0.009819
v -0.041082 0.505847 -0.009362
v -0.041307 0.505668 -0.010490
v -0.040581 0.506025 -0.009242
v -0.039775 0.508475 -0.010962
v -0.040972 0.505715 -0.011196
v -0.040003 0.508304 -0.012091
v -0.039734 0.508425 -0.011634
v -0.040627 0.503636 -0.009647
v -0.040360 0.503765 -0.009191
v -0.040590 0.503599 -0.010320
v -0.039981 0.506202 -0.009492
v -0.040432 0.505844 -0.011747
v -0.039863 0.503952 -0.009072
v -0.040262 0.503664 -0.011027
v -0.039440 0.506331 -0.010043
v -0.039897 0.501653 -0.009515
v -0.039630 0.501781 -0.009059
v -0.039864 0.501624 -0.010188
v -0.039268 0.504146 -0.009322
v -0.039831 0.506021 -0.011997
v -0.039728 0.503813 -0.011580
v -0.039135 0.501973 -0.008940
v -0.039540 0.501702 -0.010897
v -0.039105 0.506377 -0.010749
v -0.039331 0.506199 -0.011877
v -0.038735 0.504295 -0.009876
v -0.039172 0.499758 -0.009411
v -0.038905 0.499884 -0.008954
v -0.039141 0.499735 -0.010084
v -0.038545 0.502180 -0.009192
v -0.039133 0.504007 -0.011831
v -0.039065 0.506329 -0.011420
v -0.039012 0.501867 -0.011451
v -0.038411 0.500081 -0.008836
v -0.038820 0.499822 -0.010793
v -0.038406 0.504360 -0.010583
v -0.038636 0.504194 -0.011712
v -0.038017 0.502344 -0.009746
v -0.038467 0.497944 -0.009323
v -0.038199 0.498069 -0.008866
v -0.038437 0.497923 -0.009996
v -0.037824 0.500294 -0.009088
v -0.038421 0.502073 -0.011702
v -0.038370 0.504323 -0.011255
v -0.038296 0.499995 -0.011348
v -0.037706 0.498266 -0.008747
v -0.038117 0.498012 -0.010705
v -0.037693 0.502422 -0.010454
v -0.037926 0.502266 -0.011584
v -0.037299 0.500468 -0.009642
v -0.037795 0.496203 -0.009239
v -0.037527 0.496328 -0.008782
v -0.037764 0.496181 -0.009912
v -0.037119 0.498481 -0.008999
v -0.037708 0.500208 -0.011600
v -0.037660 0.502394 -0.011127
v -0.037594 0.498188 -0.011260
v -0.037033 0.496521 -0.008664
v -0.037443 0.496266 -0.010621
v -0.036978 0.500555 -0.010351
v -0.037215 0.500405 -0.011481
v -0.036595 0.498657 -0.009554
v -0.037171 0.494528 -0.009149
v -0.036903 0.494652 -0.008692
v -0.037138 0.494500 -0.009822
v -0.036444 0.496732 -0.008915
v -0.037006 0.498404 -0.011512
v -0.036947 0.500532 -0.011024
v -0.036918 0.496437 -0.011176
v -0.036405 0.494839 -0.008573
v -0.036813 0.494575 -0.010530
v -0.036276 0.498747 -0.010263
v -0.036513 0.498600 -0.011393
v -0.036607 0.492911 -0.009042
v -0.036338 0.493035 -0.008585
v -0.036570 0.492872 -0.009714
v -0.035919 0.496903 -0.009470
v -0.035812 0.495038 -0.008824
v -0.036329 0.496648 -0.011427
v -0.036246 0.498726 -0.010936
v -0.036283 0.494732 -0.011084
v -0.035837 0.493210 -0.008466
v -0.036238 0.492928 -0.010421
v -0.036115 0.491344 -0.008908
v -0.035847 0.491468 -0.008451
v -0.035597 0.496989 -0.010179
v -0.036074 0.491290 -0.009579
v -0.035834 0.496842 -0.011309
v -0.035282 0.495196 -0.009378
v -0.035237 0.493389 -0.008715
v -0.035340 0.491627 -0.008330
v -0.035689 0.494931 -0.011335
v -0.035701 0.493064 -0.010974
v -0.035567 0.496966 -0.010852
v -0.035733 0.491318 -0.010283
v -0.035708 0.489820 -0.008736
v -0.035439 0.489943 -0.008279
v -0.035661 0.489744 -0.009405
v -0.034957 0.495271 -0.010087
v -0.034927 0.490081 -0.008156
v -0.034732 0.491778 -0.008577
v -0.035192 0.495118 -0.011216
v -0.034699 0.493526 -0.009268
v -0.035186 0.491423 -0.010833
v -0.035311 0.489736 -0.010105
v -0.035395 0.488328 -0.008518
v -0.035126 0.488451 -0.008060
v -0.035101 0.493244 -0.011224
v -0.035342 0.488226 -0.009182
v -0.034924 0.495242 -0.010759
v -0.034609 0.488563 -0.007933
v -0.035186 0.486855 -0.008242
v -0.034918 0.486979 -0.007785
v -0.034983 0.488173 -0.009876
v -0.035129 0.486723 -0.008900
v -0.034309 0.490196 -0.008399
v -0.034752 0.489799 -0.010650
v -0.034368 0.493582 -0.009975
v -0.034184 0.491883 -0.009127
v -0.033762 0.487080 -0.007879
v -0.034396 0.487062 -0.007652
v -0.034577 0.491575 -0.011080
v -0.034599 0.493419 -0.011104
v -0.034763 0.486618 -0.009584
v -0.033184 0.487030 -0.008404
v -0.034414 0.488183 -0.010413
v -0.034331 0.493543 -0.010647
v -0.033982 0.488634 -0.008170
v -0.034185 0.486568 -0.010110
v -0.032818 0.486925 -0.009088
v -0.034134 0.489914 -0.010893
v -0.033751 0.490259 -0.008944
v -0.033844 0.491912 -0.009831
v -0.034071 0.491734 -0.010959
v -0.033786 0.488254 -0.010649
v -0.033803 0.491857 -0.010502
v -0.033412 0.488644 -0.008707
v -0.033550 0.486587 -0.010337
v -0.032761 0.486793 -0.009747
v -0.033401 0.490251 -0.009644
v -0.033622 0.490052 -0.010769
v -0.033354 0.490175 -0.010312
v -0.033269 0.488366 -0.010522
v -0.033053 0.488591 -0.009400
v -0.033029 0.486669 -0.010204
v -0.033001 0.488489 -0.010065
usemtl Saphenous_branch_of_Femoralis_nerve_rMaterial0
f 1 2 3
f 4 1 3
f 5 6 1
f 7 5 1
f 1 6 2
f 7 1 4
f 3 8 9
f 4 3 9
f 3 2 8
f 5 10 6
f 11 10 5
f 12 11 5
f 12 5 7
f 6 13 2
f 10 14 6
f 6 14 13
f 11 15 10
f 16 15 11
f 17 16 11
f 17 11 12
f 9 8 18
f 9 18 4
f 2 19 8
f 2 13 19
f 15 20 10
f 10 20 14
f 8 21 18
f 8 19 21
f 16 22 15
f 22 23 15
f 15 23 20
f 4 18 24
f 4 24 7
f 25 22 16
f 26 25 16
f 26 16 17
f 18 27 24
f 18 21 27
f 25 28 22
f 28 29 22
f 22 29 23
f 14 30 13
f 20 31 14
f 14 31 30
f 26 28 25
f 7 24 32
f 7 32 12
f 13 33 19
f 13 30 33
f 23 34 20
f 20 34 31
f 24 35 32
f 24 27 35
f 26 36 28
f 36 37 28
f 28 37 29
f 17 36 26
f 19 38 21
f 19 33 38
f 12 39 17
f 12 32 39
f 29 40 23
f 23 40 34
f 17 39 36
f 32 41 39
f 32 35 41
f 39 42 36
f 36 42 37
f 39 41 42
f 21 43 27
f 21 38 43
f 37 44 29
f 29 44 40
f 27 45 35
f 27 43 45
f 42 46 37
f 37 46 44
f 31 47 30
f 34 48 31
f 31 48 47
f 35 49 41
f 35 45 49
f 41 50 42
f 42 50 46
f 30 51 33
f 30 47 51
f 40 52 34
f 34 52 48
f 41 49 50
f 33 53 38
f 33 51 53
f 44 54 40
f 40 54 52
f 38 55 43
f 38 53 55
f 46 56 44
f 44 56 54
f 43 57 45
f 43 55 57
f 50 58 46
f 46 58 56
f 45 59 49
f 45 57 59
f 49 60 50
f 50 60 58
f 49 59 60
f 48 61 47
f 52 62 48
f 48 62 61
f 47 63 51
f 47 61 63
f 54 64 52
f 52 64 62
f 51 65 53
f 51 63 65
f 56 66 54
f 54 66 64
f 53 67 55
f 53 65 67
f 58 68 56
f 56 68 66
f 55 69 57
f 55 67 69
f 60 70 58
f 58 70 68
f 57 71 59
f 57 69 71
f 59 72 60
f 60 72 70
f 59 71 72
f 62 73 61
f 64 74 62
f 62 74 73
f 61 75 63
f 61 73 75
f 66 76 64
f 64 76 74
f 63 77 65
f 63 75 77
f 68 78 66
f 66 78 76
f 65 79 67
f 65 77 79
f 70 80 68
f 68 80 78
f 67 81 69
f 67 79 81
f 72 82 70
f 70 82 80
f 69 83 71
f 69 81 83
f 71 84 72
f 72 84 82
f 71 83 84
f 74 85 73
f 76 86 74
f 74 86 85
f 73 87 75
f 73 85 87
f 78 88 76
f 76 88 86
f 80 89 78
f 78 89 88
f 75 90 77
f 75 87 90
f 82 91 80
f 80 91 89
f 77 92 79
f 77 90 92
f 84 93 82
f 82 93 91
f 79 94 81
f 79 92 94
f 81 95 83
f 81 94 95
f 83 96 84
f 84 96 93
f 83 95 96
f 88 97 86
f 86 98 85
f 86 97 98
f 89 99 88
f 88 99 97
f 85 100 87
f 85 98 100
f 91 101 89
f 89 101 99
f 87 102 90
f 87 100 102
f 93 103 91
f 91 103 101
f 90 104 92
f 90 102 104
f 96 105 93
f 93 105 103
f 92 106 94
f 92 104 106
f 95 107 96
f 96 107 105
f 94 108 95
f 94 106 108
f 95 108 107
f 99 109 97
f 97 110 98
f 97 109 110
f 101 111 99
f 99 111 109
f 98 112 100
f 98 110 112
f 103 113 101
f 101 113 111
f 100 114 102
f 100 112 114
f 105 115 103
f 103 115 113
f 102 116 104
f 102 114 116
f 107 117 105
f 105 117 115
f 104 118 106
f 104 116 118
f 108 119 107
f 107 119 117
f 106 120 108
f 106 118 120
f 108 120 119
f 111 121 109
f 109 122 110
f 109 121 122
f 113 123 111
f 111 123 121
f 110 124 112
f 110 122 124
f 115 125 113
f 113 125 123
f 112 126 114
f 112 124 126
f 117 127 115
f 115 127 125
f 114 128 116
f 114 126 128
f 119 129 117
f 117 129 127
f 116 130 118
f 116 128 130
f 120 131 119
f 119 131 129
f 118 132 120
f 118 130 132
f 120 132 131
f 123 133 121
f 121 134 122
f 121 133 134
f 125 135 123
f 123 135 133
f 122 136 124
f 122 134 136
f 127 137 125
f 125 137 135
f 124 138 126
f 124 136 138
f 129 139 127
f 127 139 137
f 126 140 128
f 126 138 140
f 131 141 129
f 129 141 139
f 128 142 130
f 128 140 142
f 132 143 131
f 131 143 141
f 130 144 132
f 130 142 144
f 132 144 143
f 135 145 133
f 133 146 134
f 133 145 146
f 137 147 135
f 135 147 145
f 134 148 136
f 134 146 148
f 139 149 137
f 137 149 147
f 136 150 138
f 136 148 150
f 141 151 139
f 139 151 149
f 138 152 140
f 138 150 152
f 143 153 141
f 141 153 151
f 140 154 142
f 140 152 154
f 144 155 143
f 143 155 153
f 142 156 144
f 142 154 156
f 144 156 155
f 147 155 145
f 145 156 146
f 145 155 156
f 149 153 147
f 147 153 155
f 146 154 148
f 146 156 154
f 149 151 153
f 148 152 150
f 148 154 152
f 157 158 159
f 160 157 159
f 159 158 161
f 162 159 163
f 159 161 163
f 160 159 162
f 157 164 158
f 165 164 157
f 166 165 157
f 166 157 160
f 164 167 158
f 158 168 161
f 158 167 168
f 165 169 164
f 169 170 164
f 164 170 167
f 162 163 171
f 163 161 172
f 171 163 173
f 163 172 173
f 174 160 162
f 175 162 171
f 174 162 175
f 176 169 165
f 174 165 166
f 174 176 165
f 166 160 174
f 161 168 177
f 161 177 172
f 169 178 170
f 176 179 169
f 179 178 169
f 171 173 180
f 181 171 180
f 175 171 181
f 170 182 167
f 167 183 168
f 167 182 183
f 178 184 170
f 170 184 182
f 173 172 185
f 180 173 186
f 173 185 186
f 187 179 176
f 175 176 174
f 175 187 176
f 168 188 177
f 168 183 188
f 172 177 189
f 172 189 185
f 179 190 178
f 178 191 184
f 190 191 178
f 187 192 179
f 192 190 179
f 180 186 193
f 194 180 193
f 181 180 194
f 186 185 195
f 193 186 196
f 186 195 196
f 177 197 189
f 177 188 197
f 184 198 182
f 182 199 183
f 182 198 199
f 191 200 184
f 184 200 198
f 201 192 187
f 181 187 175
f 181 201 187
f 192 202 190
f 190 203 191
f 202 203 190
f 185 189 204
f 185 204 195
f 201 205 192
f 205 202 192
f 193 196 206
f 207 193 206
f 194 193 207
f 183 208 188
f 183 199 208
f 203 209 191
f 191 209 200
f 196 195 210
f 206 196 211
f 196 210 211
f 212 205 201
f 194 201 181
f 194 212 201
f 189 213 204
f 189 197 213
f 195 214 210
f 195 204 214
f 205 215 202
f 202 216 203
f 215 216 202
f 212 217 205
f 217 215 205
f 188 218 197
f 188 208 218
f 206 211 207
f 211 217 212
f 207 211 212
f 211 210 217
f 203 219 209
f 216 219 203
f 207 212 194
f 210 220 217
f 210 214 220
f 217 220 215
f 200 221 198
f 198 222 199
f 198 221 222
f 209 223 200
f 200 223 221
f 204 224 214
f 204 213 224
f 215 225 216
f 220 225 215
f 199 226 208
f 199 222 226
f 219 227 209
f 209 227 223
f 197 228 213
f 197 218 228
f 214 229 220
f 214 224 229
f 216 230 219
f 225 230 216
f 220 229 225
f 208 231 218
f 208 226 231
f 230 232 219
f 219 232 227
f 213 233 224
f 213 228 233
f 229 234 225
f 225 234 230
f 223 235 221
f 221 236 222
f 221 235 236
f 224 237 229
f 224 233 237
f 227 238 223
f 223 238 235
f 229 237 234
f 218 239 228
f 218 231 239
f 234 240 230
f 230 240 232
f 222 241 226
f 222 236 241
f 232 242 227
f 227 242 238
f 228 243 233
f 228 239 243
f 226 244 231
f 226 241 244
f 237 245 234
f 234 245 240
f 240 246 232
f 232 246 242
f 233 247 237
f 233 243 247
f 237 247 245
f 238 248 235
f 235 249 236
f 235 248 249
f 242 250 238
f 238 250 248
f 231 251 239
f 231 244 251
f 245 252 240
f 240 252 246
f 236 253 241
f 236 249 253
f 246 254 242
f 242 254 250
f 239 255 243
f 239 251 255
f 247 256 245
f 245 256 252
f 241 257 244
f 241 253 257
f 252 258 246
f 246 258 254
f 243 259 247
f 243 255 259
f 247 259 256
f 250 260 248
f 248 261 249
f 248 260 261
f 254 262 250
f 250 262 260
f 244 263 251
f 244 257 263
f 256 264 252
f 252 264 258
f 249 265 253
f 249 261 265
f 258 266 254
f 254 266 262
f 251 267 255
f 251 263 267
f 259 268 256
f 256 268 264
f 253 269 257
f 253 265 269
f 264 270 258
f 258 270 266
f 255 271 259
f 255 267 271
f 259 271 268
f 262 272 260
f 260 273 261
f 260 272 273
f 266 274 262
f 262 274 272
f 257 275 263
f 257 269 275
f 268 276 264
f 264 276 270
f 261 277 265
f 261 273 277
f 270 278 266
f 266 278 274
f 263 279 267
f 263 275 279
f 271 280 268
f 268 280 276
f 265 281 269
f 265 277 281
f 276 282 270
f 270 282 278
f 267 283 271
f 267 279 283
f 271 283 280
f 274 284 272
f 272 285 273
f 272 284 285
f 278 286 274
f 274 286 284
f 269 287 275
f 269 281 287
f 273 288 277
f 273 285 288
f 280 289 276
f 276 289 282
f 282 290 278
f 278 290 286
f 275 291 279
f 275 287 291
f 277 292 281
f 277 288 292
f 283 293 280
f 280 293 289
f 282 294 290
f 289 294 282
f 286 295 284
f 284 296 285
f 284 295 296
f 290 297 286
f 286 297 295
f 279 298 283
f 279 291 298
f 283 298 293
f 285 299 288
f 285 296 299
f 290 300 297
f 294 300 290
f 281 301 287
f 281 292 301
f 289 302 294
f 293 302 289
f 297 303 295
f 295 304 296
f 295 303 304
f 300 305 297
f 297 305 303
f 288 306 292
f 288 299 306
f 294 307 300
f 302 307 294
f 296 308 299
f 296 304 308
f 287 309 291
f 287 301 309
f 300 310 305
f 307 310 300
f 298 311 293
f 293 311 302
f 291 312 298
f 291 309 312
f 298 312 311
f 292 313 301
f 292 306 313
f 305 314 303
f 303 315 304
f 303 314 315
f 310 316 305
f 305 316 314
f 299 317 306
f 299 308 317
f 302 318 307
f 311 318 302
f 307 319 310
f 318 319 307
f 310 320 316
f 319 320 310
f 304 321 308
f 304 315 321
f 301 322 309
f 301 313 322
f 311 323 318
f 312 323 311
f 306 324 313
f 306 317 324
f 316 325 314
f 320 326 316
f 316 326 325
f 314 327 315
f 314 325 327
f 318 328 319
f 323 328 318
f 319 329 320
f 328 329 319
f 309 330 312
f 309 322 330
f 308 331 317
f 308 321 331
f 312 330 323
f 320 332 326
f 329 332 320
f 315 333 321
f 315 327 333
f 326 334 325
f 332 335 326
f 326 335 334
f 313 336 322
f 313 324 336
f 325 337 327
f 325 334 337
f 323 338 328
f 330 338 323
f 329 339 332
f 332 340 335
f 339 340 332
f 328 341 329
f 341 339 329
f 338 341 328
f 317 342 324
f 317 331 342
f 322 343 330
f 322 336 343
f 330 343 338
f 335 344 334
f 340 345 335
f 335 345 344
f 321 333 346
f 321 346 331
f 327 337 347
f 327 347 333
f 334 344 348
f 334 348 337
f 339 349 340
f 340 350 345
f 349 350 340
f 341 351 339
f 351 349 339
f 350 352 345
f 345 353 344
f 345 352 353
f 338 354 341
f 343 354 338
f 324 355 336
f 324 342 355
f 354 351 341
f 350 356 352
f 349 357 350
f 357 356 350
f 344 353 358
f 344 358 348
f 337 348 359
f 337 359 347
f 333 347 360
f 333 360 346
f 331 361 342
f 331 346 361
f 356 362 352
f 352 363 353
f 352 362 363
f 351 364 349
f 364 357 349
f 336 365 343
f 343 365 354
f 336 355 365
f 356 366 362
f 357 367 356
f 367 366 356
f 353 363 368
f 353 368 358
f 366 369 362
f 362 369 370
f 362 370 363
f 354 371 351
f 371 364 351
f 372 367 357
f 364 372 357
f 366 373 369
f 374 373 366
f 367 374 366
f 348 358 375
f 348 375 359
f 365 371 354
f 373 376 369
f 369 376 377
f 369 377 370
f 363 370 378
f 363 378 368
f 347 359 379
f 347 379 360
f 342 380 355
f 342 361 380
f 373 381 376
f 382 381 373
f 374 382 373
f 383 374 367
f 372 383 367
f 346 384 361
f 346 360 384
f 371 385 364
f 385 372 364
f 381 386 376
f 376 386 387
f 376 387 377
f 381 388 386
f 389 388 381
f 382 389 381
f 358 368 390
f 358 390 375
f 391 382 374
f 383 391 374
f 355 392 365
f 365 392 371
f 370 377 393
f 370 393 378
f 355 380 392
f 388 394 386
f 389 395 388
f 388 396 394
f 395 396 388
f 397 389 382
f 391 397 382
f 392 385 371
f 386 394 398
f 386 398 387
f 399 383 372
f 385 399 372
f 359 375 400
f 359 400 379
f 377 387 401
f 377 401 393
f 402 395 389
f 397 402 389
f 368 378 403
f 368 403 390
f 396 404 394
f 395 405 396
f 405 406 396
f 396 406 404
f 394 404 407
f 394 407 398
f 408 405 395
f 402 408 395
f 361 409 380
f 361 384 409
f 410 391 383
f 399 410 383
f 360 379 411
f 360 411 384
f 387 398 412
f 387 412 401
f 405 413 406
f 406 414 404
f 413 415 406
f 406 415 414
f 416 413 405
f 408 416 405
f 392 417 385
f 417 399 385
f 378 393 418
f 378 418 403
f 380 417 392
f 419 397 391
f 410 419 391
f 375 390 420
f 375 420 400
f 404 414 421
f 404 421 407
f 413 422 415
f 415 423 414
f 422 424 415
f 415 424 423
f 380 409 417
f 425 422 413
f 416 425 413
f 426 402 397
f 419 426 397
f 398 407 427
f 398 427 412
f 414 423 428
f 414 428 421
f 422 429 424
f 424 430 423
f 429 431 424
f 424 431 430
f 393 401 432
f 393 432 418
f 433 408 402
f 426 433 402
f 434 429 422
f 425 434 422
f 417 435 399
f 435 410 399
f 379 400 436
f 379 436 411
f 437 438 439
f 439 438 440
f 441 437 439
f 442 439 443
f 441 439 442
f 439 440 443
f 437 444 438
f 444 445 438
f 438 445 446
f 438 446 440
f 447 416 408
f 433 447 408
f 423 430 448
f 423 448 428
f 390 403 449
f 390 449 420
f 384 450 409
f 384 411 450
f 451 444 437
f 452 437 441
f 452 451 437
f 429 453 431
f 453 454 431
f 431 454 455
f 431 455 430
f 444 456 445
f 457 456 444
f 451 457 444
f 458 453 429
f 434 458 429
f 442 443 459
f 460 441 442
f 461 442 459
f 460 442 461
f 462 425 416
f 447 462 416
f 409 435 417
f 407 421 463
f 407 463 427
f 401 412 464
f 401 464 432
f 456 465 445
f 445 466 446
f 445 465 466
f 443 440 467
f 459 443 468
f 443 467 468
f 469 441 460
f 469 452 441
f 453 470 454
f 470 471 454
f 454 471 472
f 454 472 455
f 430 455 473
f 430 473 448
f 474 419 410
f 435 474 410
f 475 470 453
f 458 475 453
f 440 446 476
f 440 476 467
f 477 434 425
f 462 477 425
f 457 478 456
f 478 479 456
f 456 479 465
f 409 450 435
f 421 428 480
f 421 480 463
f 461 459 481
f 482 460 461
f 483 461 481
f 482 461 483
f 481 459 484
f 459 468 484
f 403 418 485
f 403 485 449
f 470 486 471
f 486 487 471
f 471 487 488
f 471 488 472
f 455 472 489
f 455 489 473
f 490 486 470
f 475 490 470
f 491 458 434
f 477 491 434
f 492 426 419
f 474 492 419
f 400 420 493
f 400 493 436
f 494 457 451
f 495 478 457
f 494 495 457
f 496 451 452
f 496 494 451
f 497 460 482
f 497 469 460
f 446 466 498
f 446 498 476
f 412 427 499
f 412 499 464
f 428 448 500
f 428 500 480
f 450 474 435
f 486 501 487
f 501 502 487
f 487 502 503
f 487 503 488
f 504 433 426
f 492 504 426
f 411 505 450
f 411 436 505
f 483 481 506
f 506 481 507
f 481 484 507
f 472 488 508
f 472 508 489
f 509 501 486
f 490 509 486
f 510 475 458
f 491 510 458
f 511 452 469
f 511 496 452
f 512 482 483
f 513 483 506
f 512 483 513
f 478 514 479
f 495 515 478
f 515 514 478
f 418 432 516
f 418 516 485
f 517 447 433
f 504 517 433
f 501 518 502
f 518 519 502
f 502 519 520
f 502 520 503
f 448 473 521
f 448 521 500
f 479 522 465
f 465 523 466
f 465 522 523
f 524 482 512
f 524 497 482
f 488 503 525
f 488 525 508
f 526 518 501
f 509 526 501
f 468 467 527
f 484 468 528
f 468 527 528
f 529 490 475
f 510 529 475
f 530 462 447
f 517 530 447
f 450 505 474
f 514 531 479
f 479 531 522
f 467 476 532
f 467 532 527
f 420 449 533
f 420 533 493
f 427 463 534
f 427 534 499
f 518 535 519
f 535 536 519
f 519 536 537
f 519 537 520
f 538 477 462
f 530 538 462
f 505 492 474
f 539 469 497
f 539 511 469
f 513 506 540
f 506 507 541
f 540 506 541
f 507 484 542
f 484 528 542
f 543 512 513
f 544 513 540
f 543 513 544
f 503 520 545
f 503 545 525
f 546 535 518
f 526 546 518
f 473 489 547
f 473 547 521
f 548 509 490
f 529 548 490
f 535 549 536
f 549 550 536
f 536 550 551
f 536 551 537
f 552 491 477
f 538 552 477
f 432 464 553
f 432 553 516
f 436 554 505
f 436 493 554
f 466 555 498
f 466 523 555
f 556 512 543
f 556 524 512
f 557 549 535
f 546 557 535
f 463 480 558
f 463 558 534
f 476 498 559
f 476 559 532
f 520 537 560
f 520 560 545
f 561 495 494
f 562 515 495
f 561 562 495
f 563 494 496
f 563 561 494
f 564 565 550
f 550 565 566
f 549 564 550
f 550 566 551
f 489 508 567
f 489 567 547
f 568 526 509
f 548 568 509
f 505 554 492
f 554 504 492
f 544 540 569
f 570 544 571
f 571 544 569
f 570 543 544
f 449 485 572
f 449 572 533
f 541 507 573
f 507 542 573
f 569 540 574
f 540 541 574
f 575 571 565
f 565 571 576
f 564 575 565
f 565 576 566
f 577 564 549
f 557 577 549
f 578 510 491
f 552 578 491
f 515 579 514
f 514 580 531
f 579 580 514
f 581 497 524
f 581 539 497
f 575 570 571
f 571 569 576
f 537 551 582
f 537 582 560
f 583 575 564
f 577 583 564
f 480 500 584
f 480 584 558
f 585 496 511
f 585 563 496
f 586 543 570
f 586 556 543
f 508 525 587
f 508 587 567
f 588 546 526
f 568 588 526
f 464 499 589
f 464 589 553
f 590 517 504
f 554 590 504
f 562 591 515
f 591 579 515
f 592 570 575
f 583 592 575
f 551 566 593
f 551 593 582
f 594 529 510
f 578 594 510
f 592 586 570
f 493 590 554
f 493 533 590
f 576 569 595
f 569 574 595
f 566 576 596
f 566 596 593
f 574 541 597
f 541 573 597
f 576 595 596
f 525 545 598
f 525 598 587
f 599 557 546
f 588 599 546
f 500 521 600
f 500 600 584
f 485 516 601
f 485 601 572
f 602 530 517
f 590 602 517
f 528 527 603
f 542 528 604
f 528 603 604
f 527 532 605
f 527 605 603
f 606 524 556
f 606 581 524
f 607 548 529
f 594 607 529
f 608 538 530
f 602 608 530
f 609 511 539
f 609 585 511
f 610 577 557
f 599 610 557
f 498 611 559
f 498 555 611
f 573 542 612
f 542 604 612
f 545 560 613
f 545 613 598
f 499 534 614
f 499 614 589
f 615 552 538
f 608 615 538
f 533 602 590
f 533 572 602
f 521 547 616
f 521 616 600
f 531 617 522
f 522 618 523
f 522 617 618
f 619 583 577
f 610 619 577
f 620 568 548
f 607 620 548
f 516 553 621
f 516 621 601
f 580 622 531
f 531 622 617
f 595 574 623
f 574 597 623
f 624 578 552
f 615 624 552
f 625 556 586
f 625 606 556
f 626 592 583
f 619 626 583
f 560 582 627
f 560 627 613
f 532 559 628
f 532 628 605
f 629 562 561
f 630 591 562
f 629 630 562
f 631 561 563
f 631 629 561
f 534 558 632
f 534 632 614
f 633 586 592
f 626 633 592
f 591 634 579
f 579 635 580
f 634 635 579
f 633 625 586
f 582 593 636
f 582 636 627
f 547 567 637
f 547 637 616
f 638 588 568
f 620 638 568
f 572 608 602
f 572 601 608
f 597 573 639
f 573 612 639
f 640 539 581
f 640 609 539
f 641 594 578
f 624 641 578
f 596 595 642
f 595 623 642
f 593 596 643
f 593 643 636
f 553 589 644
f 553 644 621
f 523 645 555
f 523 618 645
f 646 563 585
f 646 631 563
f 596 642 643
f 558 584 647
f 558 647 632
f 601 615 608
f 648 599 588
f 638 648 588
f 630 649 591
f 649 634 591
f 567 587 650
f 567 650 637
f 601 621 615
f 651 607 594
f 641 651 594
f 635 652 580
f 580 652 622
f 621 624 615
f 604 603 653
f 603 605 654
f 603 654 653
f 612 604 655
f 604 653 655
f 623 597 656
f 597 639 656
f 657 610 599
f 648 657 599
f 589 614 658
f 589 658 644
f 587 598 659
f 587 659 650
f 584 600 660
f 584 660 647
f 661 581 606
f 661 640 581
f 621 644 624
f 662 620 607
f 651 662 607
f 644 641 624
f 639 612 663
f 612 655 663
f 664 585 609
f 664 646 585
f 665 619 610
f 657 665 610
f 559 666 628
f 559 611 666
f 598 613 667
f 598 667 659
f 668 630 629
f 669 649 630
f 668 669 630
f 670 629 631
f 670 668 629
f 614 632 671
f 614 671 658
f 672 626 619
f 665 672 619
f 600 616 673
f 600 673 660
f 605 674 654
f 605 628 674
f 675 638 620
f 662 675 620
f 644 658 641
f 658 651 641
f 642 623 676
f 623 656 676
f 677 606 625
f 677 661 606
f 678 633 626
f 672 678 626
f 613 627 679
f 613 679 667
f 555 680 611
f 555 645 680
f 649 681 634
f 634 682 635
f 681 682 634
f 683 670 631
f 683 631 646
f 639 663 684
f 656 639 684
f 685 625 633
f 685 677 625
f 678 685 633
f 632 647 686
f 632 686 671
f 669 687 649
f 687 681 649
f 655 653 669
f 653 687 669
f 653 654 687
f 655 669 668
f 663 655 668
f 688 609 640
f 688 664 609
f 627 636 689
f 627 689 679
f 616 637 690
f 616 690 673
f 691 648 638
f 675 691 638
f 658 671 651
f 671 662 651
f 663 668 670
f 643 642 692
f 642 676 692
f 636 643 693
f 636 693 689
f 635 694 652
f 682 694 635
f 684 663 670
f 643 692 693
f 637 650 695
f 637 695 690
f 696 657 648
f 691 696 648
f 647 660 697
f 647 697 686
f 671 686 662
f 686 675 662
f 654 698 687
f 654 674 698
f 684 670 683
f 699 683 646
f 699 646 664
f 656 684 700
f 676 656 700
f 687 698 681
f 701 665 657
f 696 701 657
f 702 640 661
f 702 688 640
f 650 659 703
f 650 703 695
f 660 673 704
f 660 704 697
f 628 705 674
f 628 666 705
f 686 697 675
f 697 691 675
f 622 706 617
f 617 707 618
f 617 706 707
f 700 684 683
f 708 672 665
f 701 708 665
f 652 709 622
f 622 709 706
f 659 667 710
f 659 710 703
f 700 683 699
f 681 711 682
f 698 711 681
f 676 700 712
f 692 676 712
f 713 678 672
f 708 713 672
f 673 690 714
f 673 714 704
f 697 704 691
f 704 696 691
f 715 699 664
f 715 664 688
f 716 661 677
f 716 702 661
f 717 685 678
f 713 717 678
f 667 679 718
f 667 718 710
f 611 719 666
f 611 680 719
f 720 677 685
f 717 720 685
f 618 721 645
f 618 707 721
f 712 700 699
f 720 716 677
f 679 689 722
f 679 722 718
f 690 695 723
f 690 723 714
f 704 714 696
f 714 701 696
f 674 724 698
f 674 705 724
f 693 692 725
f 692 712 725
f 689 693 726
f 689 726 722
f 694 727 652
f 652 727 709
f 711 728 682
f 682 728 694
f 698 724 711
f 712 699 715
f 693 725 726
f 695 703 729
f 695 729 723
f 714 723 701
f 723 708 701
f 730 715 688
f 730 688 702
f 723 729 708
f 729 713 708
f 703 710 731
f 703 731 729
f 725 712 715
f 731 717 713
f 729 731 713
f 710 718 732
f 710 732 731
f 725 715 730
f 733 702 716
f 733 730 702
f 732 720 717
f 731 732 717
f 734 716 720
f 732 734 720
f 718 722 734
f 718 734 732
f 726 725 730
f 734 733 716
f 666 735 705
f 666 719 735
f 645 736 680
f 645 721 736
f 722 726 733
f 722 733 734
f 726 730 733
f 724 737 711
f 711 737 728
f 728 738 694
f 694 738 727
f 705 739 724
f 705 735 739
f 724 739 737
f 680 740 719
f 680 736 740
f 737 741 728
f 728 741 738
f 709 742 706
f 706 743 707
f 706 742 743
f 727 744 709
f 709 744 742
f 707 745 721
f 707 743 745
f 719 746 735
f 719 740 746
f 727 747 744
f 738 747 727
f 739 748 737
f 737 748 741
f 735 749 739
f 735 746 749
f 744 750 742
f 742 751 743
f 742 750 751
f 739 749 748
f 747 752 744
f 744 752 750
f 721 753 736
f 721 745 753
f 738 754 747
f 741 754 738
f 743 755 745
f 743 751 755
f 747 756 752
f 754 756 747
f 736 757 740
f 736 753 757
f 752 758 750
f 750 759 751
f 750 758 759
f 756 760 752
f 752 760 758
f 745 761 753
f 745 755 761
f 741 762 754
f 748 762 741
f 754 763 756
f 762 763 754
f 751 764 755
f 751 759 764
f 756 765 760
f 763 765 756
f 740 766 746
f 740 757 766
f 748 767 762
f 749 767 748
f 753 768 757
f 753 761 768
f 760 769 758
f 758 770 759
f 758 769 770
f 765 771 760
f 760 771 769
f 755 772 761
f 755 764 772
f 762 773 763
f 767 773 762
f 746 774 749
f 746 766 774
f 763 775 765
f 773 775 763
f 749 774 767
f 759 776 764
f 759 770 776
f 765 777 771
f 775 777 765
f 757 778 766
f 757 768 778
f 767 779 773
f 774 779 767
f 761 780 768
f 761 772 780
f 771 781 769
f 769 782 770
f 769 781 782
f 777 783 771
f 771 783 781
f 764 784 772
f 764 776 784
f 773 785 775
f 779 785 773
f 766 786 774
f 766 778 786
f 774 786 779
f 775 787 777
f 785 787 775
f 770 788 776
f 770 782 788
f 777 789 783
f 787 789 777
f 768 790 778
f 768 780 790
f 779 791 785
f 786 791 779
f 772 792 780
f 772 784 792
f 783 793 781
f 781 794 782
f 781 793 794
f 789 795 783
f 783 795 793
f 776 796 784
f 776 788 796
f 785 797 787
f 791 797 785
f 778 798 786
f 778 790 798
f 786 798 791
f 787 799 789
f 797 799 787
f 782 800 788
f 782 794 800
f 789 801 795
f 799 801 789
f 780 802 790
f 780 792 802
f 791 803 797
f 798 803 791
f 784 804 792
f 784 796 804
f 795 805 793
f 793 806 794
f 793 805 806
f 801 807 795
f 795 807 805
f 788 808 796
f 788 800 808
f 797 809 799
f 803 809 797
f 790 810 798
f 790 802 810
f 798 810 803
f 799 811 801
f 809 811 799
f 794 812 800
f 794 806 812
f 801 813 807
f 811 813 801
f 792 814 802
f 792 804 814
f 803 815 809
f 810 815 803
f 807 816 805
f 805 817 806
f 805 816 817
f 813 818 807
f 807 818 816
f 796 819 804
f 796 808 819
f 800 820 808
f 800 812 820
f 809 821 811
f 815 821 809
f 802 822 810
f 802 814 822
f 810 822 815
f 811 823 813
f 821 823 811
f 806 824 812
f 806 817 824
f 813 825 818
f 823 825 813
f 818 826 816
f 816 827 817
f 816 826 827
f 804 828 814
f 804 819 828
f 825 829 818
f 818 829 826
f 815 830 821
f 822 830 815
f 808 831 819
f 808 820 831
f 812 824 832
f 812 832 820
f 817 827 833
f 817 833 824
f 821 834 823
f 830 834 821
f 823 835 825
f 834 835 823
f 814 836 822
f 814 828 836
f 825 837 829
f 835 837 825
f 822 836 830
f 829 838 826
f 826 839 827
f 826 838 839
f 837 840 829
f 829 840 838
f 819 841 828
f 819 831 841
f 827 839 842
f 827 842 833
f 824 833 843
f 824 843 832
f 830 844 834
f 836 844 830
f 820 845 831
f 820 832 845
f 835 846 837
f 837 847 840
f 846 847 837
f 840 848 838
f 838 849 839
f 838 848 849
f 834 850 835
f 850 846 835
f 844 850 834
f 840 851 848
f 847 851 840
f 828 852 836
f 828 841 852
f 836 852 844
f 839 849 853
f 839 853 842
f 851 854 848
f 848 854 855
f 848 855 849
f 847 856 851
f 851 857 854
f 856 857 851
f 833 842 858
f 833 858 843
f 846 859 847
f 859 856 847
f 831 860 841
f 831 845 860
f 832 843 861
f 832 861 845
f 862 854 857
f 863 855 854
f 863 854 862
f 850 864 846
f 864 859 846
f 844 865 850
f 852 865 844
f 856 866 857
f 867 857 866
f 862 857 867
f 849 855 863
f 849 863 853
f 865 864 850
f 868 866 856
f 859 868 856
f 841 869 852
f 841 860 869
f 842 853 870
f 842 870 858
f 852 869 865
f 868 871 866
f 872 866 871
f 867 866 872
f 864 873 859
f 873 868 859
f 843 858 874
f 843 874 861
f 845 875 860
f 845 861 875
f 853 863 862
f 853 862 870
f 865 876 864
f 869 876 865
f 876 873 864
f 877 871 868
f 873 877 868
f 860 878 869
f 860 875 878
f 869 878 876
f 858 870 879
f 858 879 874
f 877 880 871
f 881 871 880
f 872 871 881
f 861 882 875
f 861 874 882
f 876 883 873
f 883 877 873
f 878 883 876
f 870 862 867
f 870 867 879
f 875 884 878
f 875 882 884
f 878 884 883
f 883 885 877
f 885 880 877
f 874 879 886
f 874 886 882
f 884 885 883
f 885 887 880
f 881 880 887
f 879 867 872
f 879 872 886
f 882 888 884
f 882 886 888
f 884 888 885
f 888 887 885
f 886 881 888
f 886 872 881
f 888 881 887
