# 
# Wavefront OBJ file
# Created with Kaydara FBX
# 
mtllib c:\users\tjvan\onedrive\documenten\fontys\minor\nx\.mtlmodels\sartorius_muscle.r.obj

g Sartorius_muscle_r
v -0.123085 0.935265 0.047537
v -0.123235 0.934751 0.046076
v -0.122863 0.932741 0.045884
v -0.122657 0.935056 0.044977
v -0.123036 0.932637 0.047465
v -0.122068 0.932775 0.048669
v -0.122187 0.935050 0.045998
v -0.121338 0.933381 0.045254
v -0.121411 0.933651 0.046640
v -0.120920 0.926865 0.045516
v -0.121474 0.926620 0.047292
v -0.122096 0.933085 0.044637
v -0.119970 0.927208 0.043927
v -0.121338 0.926562 0.049262
v -0.118441 0.931635 0.047626
v -0.119213 0.915154 0.049096
v -0.119063 0.915317 0.047068
v -0.118298 0.927792 0.043025
v -0.117573 0.928996 0.044387
v -0.120666 0.926419 0.050682
v -0.118228 0.915554 0.045244
v -0.119871 0.933319 0.050793
v -0.119504 0.926638 0.052414
v -0.118544 0.915121 0.051113
v -0.115144 0.916118 0.042592
v -0.117027 0.915778 0.043691
v -0.117811 0.926887 0.053722
v -0.118833 0.933203 0.053617
v -0.118758 0.937061 0.054051
v -0.117823 0.936962 0.051839
v -0.115015 0.929154 0.047776
v -0.116103 0.933498 0.049923
v -0.117176 0.932471 0.048928
v -0.117122 0.915265 0.052737
v -0.117289 0.902407 0.046774
v -0.116007 0.902374 0.050740
v -0.117029 0.902296 0.048799
v -0.116678 0.902675 0.044783
v -0.117144 0.933259 0.054452
v -0.115790 0.927222 0.054294
v -0.118198 0.939876 0.054791
v -0.117468 0.937038 0.055097
v -0.114172 0.902624 0.052191
v -0.113820 0.916936 0.046505
v -0.113104 0.916544 0.047986
v -0.117382 0.940521 0.054119
v -0.117187 0.940017 0.055646
v -0.117174 0.941440 0.055178
v -0.115782 0.937704 0.052433
v -0.114398 0.933963 0.051279
v -0.115168 0.915614 0.053810
v -0.113700 0.916468 0.043795
v -0.116162 0.939858 0.055449
v -0.115320 0.933549 0.054322
v -0.115865 0.937164 0.055050
v -0.116357 0.940399 0.053913
v -0.116518 0.889529 0.045721
v -0.113568 0.928228 0.048926
v -0.116547 0.941513 0.054976
v -0.112028 0.902991 0.052970
v -0.115660 0.889347 0.048024
v -0.115294 0.903047 0.043224
v -0.116075 0.889975 0.043208
v -0.114308 0.890338 0.041481
v -0.115417 0.939595 0.054520
v -0.115080 0.877255 0.041016
v -0.113581 0.876481 0.046332
v -0.115100 0.876705 0.043798
v -0.113743 0.889496 0.049772
v -0.114923 0.937573 0.053891
v -0.113929 0.927603 0.054048
v -0.112986 0.916017 0.054198
v -0.110922 0.916539 0.053843
v -0.114050 0.933899 0.053128
v -0.111537 0.876618 0.048124
v -0.112572 0.927970 0.052758
v -0.113391 0.903347 0.042563
v -0.109773 0.903393 0.053189
v -0.112021 0.903458 0.044140
v -0.113693 0.863960 0.041637
v -0.111873 0.863721 0.044461
v -0.113224 0.877643 0.039461
v -0.114237 0.864375 0.038600
v -0.112102 0.864758 0.037253
v -0.111415 0.916713 0.049611
v -0.112538 0.928171 0.050762
v -0.112455 0.890383 0.042248
v -0.111098 0.877551 0.041114
v -0.112233 0.850793 0.040244
v -0.112840 0.850987 0.036910
v -0.111471 0.889789 0.050823
v -0.109113 0.917150 0.052469
v -0.111158 0.903550 0.046080
v -0.109036 0.876921 0.049402
v -0.109508 0.903805 0.047546
v -0.107521 0.903901 0.053049
v -0.110646 0.837465 0.036217
v -0.110448 0.851443 0.035752
v -0.109551 0.917110 0.050655
v -0.110847 0.890469 0.044093
v -0.110309 0.850819 0.043163
v -0.110148 0.837505 0.039720
v -0.108185 0.837838 0.042733
v -0.109316 0.864723 0.039242
v -0.107756 0.851667 0.037966
v -0.109088 0.890163 0.051437
v -0.108802 0.890744 0.045614
v -0.109539 0.863776 0.046656
v -0.107639 0.850998 0.045580
v -0.106792 0.864100 0.048173
v -0.106353 0.877307 0.050268
v -0.105652 0.904498 0.049890
v -0.107608 0.904135 0.048757
v -0.108960 0.877659 0.043062
v -0.106823 0.864865 0.041323
v -0.108153 0.837989 0.034996
v -0.107714 0.824330 0.040061
v -0.105246 0.824759 0.034651
v -0.107615 0.824208 0.036454
v -0.106669 0.890602 0.051724
v -0.105522 0.904447 0.051814
v -0.106657 0.891063 0.046888
v -0.103566 0.877771 0.050842
v -0.106543 0.877901 0.044619
v -0.104002 0.878180 0.045941
v -0.105764 0.824902 0.043197
v -0.105336 0.838262 0.045020
v -0.102920 0.825524 0.045529
v -0.105423 0.838533 0.037202
v -0.104869 0.851984 0.040214
v -0.102350 0.839138 0.039343
v -0.104620 0.811260 0.036989
v -0.103093 0.811935 0.043931
v -0.104979 0.811352 0.040743
v -0.104591 0.851390 0.047135
v -0.102037 0.838778 0.046519
v -0.104626 0.891378 0.047928
v -0.102377 0.891795 0.049126
v -0.104337 0.891137 0.051984
v -0.102257 0.891720 0.051188
v -0.104215 0.865165 0.043204
v -0.101852 0.852439 0.041953
v -0.103800 0.864550 0.049188
v -0.101318 0.851922 0.048088
v -0.100740 0.878503 0.051246
v -0.100749 0.865088 0.049858
v -0.100061 0.812615 0.046153
v -0.102279 0.825611 0.036641
v -0.099519 0.826119 0.046880
v -0.101986 0.811933 0.034715
v -0.098736 0.812871 0.035852
v -0.102036 0.798451 0.041366
v -0.100086 0.799055 0.044421
v -0.101640 0.798397 0.037556
v -0.098867 0.799047 0.034771
v -0.101489 0.878609 0.047106
v -0.098717 0.839434 0.047354
v -0.098182 0.879394 0.050774
v -0.101390 0.865531 0.044729
v -0.098283 0.866090 0.045944
v -0.097959 0.852576 0.048586
v -0.097399 0.865896 0.049986
v -0.098785 0.879354 0.048532
v -0.099257 0.826392 0.038698
v -0.099124 0.839763 0.041010
v -0.095907 0.827161 0.040200
v -0.099385 0.785525 0.042068
v -0.098674 0.852960 0.043332
v -0.095724 0.840459 0.042139
v -0.098356 0.785606 0.038251
v -0.097004 0.799866 0.046448
v -0.096840 0.786240 0.045035
v -0.093535 0.787127 0.046710
v -0.096643 0.813399 0.047331
v -0.093406 0.800792 0.047483
v -0.095919 0.826842 0.047458
v -0.092870 0.814328 0.047742
v -0.095062 0.773076 0.039299
v -0.093349 0.773541 0.045591
v -0.096275 0.772901 0.043182
v -0.095599 0.813708 0.037620
v -0.095160 0.800052 0.034844
v -0.095377 0.786273 0.035581
v -0.091545 0.787354 0.035215
v -0.095211 0.866786 0.047176
v -0.091721 0.801073 0.036458
v -0.095173 0.840180 0.047670
v -0.092302 0.827703 0.047414
v -0.095342 0.853596 0.044512
v -0.092058 0.854310 0.045697
v -0.094520 0.866734 0.049353
v -0.094519 0.853398 0.048553
v -0.091666 0.840987 0.047434
v -0.091429 0.854232 0.047855
v -0.089907 0.788119 0.047673
v -0.089683 0.774399 0.046821
v -0.089694 0.801785 0.047763
v -0.093205 0.760093 0.043757
v -0.089895 0.760842 0.045546
v -0.089181 0.815235 0.047544
v -0.092380 0.828001 0.041104
v -0.092171 0.814630 0.038851
v -0.088633 0.815583 0.039750
v -0.092200 0.841212 0.043092
v -0.088812 0.828838 0.041919
v -0.091896 0.773732 0.036572
v -0.088723 0.828559 0.046865
v -0.091959 0.760368 0.039810
v -0.088512 0.761156 0.037244
v -0.088470 0.841834 0.046404
v -0.089667 0.747352 0.043838
v -0.088801 0.841948 0.044229
v -0.088256 0.802088 0.037756
v -0.088403 0.747773 0.039981
v -0.088010 0.774705 0.036098
v -0.087929 0.788461 0.036284
v -0.084308 0.789532 0.037454
v -0.084174 0.775838 0.037004
v -0.086156 0.789150 0.047987
v -0.085945 0.775455 0.047551
v -0.082093 0.776573 0.047782
v -0.085854 0.761775 0.046318
v -0.086265 0.748203 0.045400
v -0.082131 0.749241 0.045705
v -0.086037 0.802767 0.047475
v -0.082443 0.790265 0.047733
v -0.081884 0.762874 0.046783
v -0.084859 0.735162 0.039489
v -0.082305 0.735623 0.044896
v -0.085819 0.734734 0.043431
v -0.085575 0.816132 0.046706
v -0.082384 0.803777 0.046442
v -0.085403 0.829583 0.043075
v -0.085010 0.816557 0.040591
v -0.081565 0.817416 0.041855
v -0.085383 0.829415 0.045581
v -0.082241 0.817017 0.044969
v -0.084730 0.803120 0.038740
v -0.080965 0.804230 0.039622
v -0.084804 0.748791 0.037588
v -0.084440 0.762304 0.036814
v -0.080582 0.750003 0.037203
v -0.078184 0.736722 0.045123
v -0.078255 0.777799 0.047599
v -0.078731 0.791525 0.046707
v -0.077885 0.764059 0.046848
v -0.077963 0.750371 0.045739
v -0.082035 0.722049 0.043115
v -0.078385 0.723037 0.044107
v -0.079096 0.804715 0.044371
v -0.081120 0.736334 0.037034
v -0.081275 0.722521 0.038919
v -0.077257 0.723848 0.036973
v -0.080719 0.790670 0.038503
v -0.080437 0.763552 0.037720
v -0.080396 0.777046 0.038101
v -0.076601 0.778340 0.039153
v -0.076486 0.764783 0.038774
v -0.077972 0.709499 0.042363
v -0.077565 0.805229 0.041329
v -0.077052 0.710101 0.038483
v -0.076853 0.737588 0.037025
v -0.076981 0.791973 0.039529
v -0.073781 0.793114 0.041602
v -0.076510 0.751235 0.037769
v -0.072653 0.738839 0.037614
v -0.075379 0.792645 0.044585
v -0.074491 0.779260 0.046757
v -0.071062 0.780619 0.044770
v -0.074254 0.724221 0.043975
v -0.074401 0.710497 0.043113
v -0.070323 0.711746 0.042595
v -0.073835 0.765395 0.046605
v -0.069989 0.766949 0.045945
v -0.073995 0.737943 0.044898
v -0.070126 0.725487 0.043322
v -0.073416 0.697727 0.036966
v -0.070503 0.698024 0.041887
v -0.074267 0.697027 0.041027
v -0.073859 0.751629 0.045502
v -0.069870 0.739243 0.044349
v -0.069705 0.752984 0.045033
v -0.073219 0.711391 0.036665
v -0.072999 0.725146 0.036973
v -0.069018 0.712726 0.036656
v -0.072925 0.779795 0.040016
v -0.072462 0.766108 0.039732
v -0.068546 0.767694 0.040334
v -0.072429 0.752534 0.038465
v -0.068298 0.753915 0.039030
v -0.070641 0.684675 0.039521
v -0.069637 0.781132 0.041668
v -0.069497 0.699104 0.035036
v -0.069719 0.685426 0.035507
v -0.065875 0.686809 0.033526
v -0.068757 0.726451 0.037304
v -0.068485 0.740169 0.038144
v -0.064538 0.727780 0.037495
v -0.066353 0.768518 0.044402
v -0.065041 0.769160 0.041526
v -0.066743 0.685626 0.040635
v -0.066040 0.673091 0.034188
v -0.067131 0.672246 0.038187
v -0.063099 0.673221 0.039294
v -0.066379 0.699302 0.041058
v -0.062536 0.686896 0.039668
v -0.066291 0.713069 0.041460
v -0.062350 0.700630 0.039740
v -0.066060 0.726812 0.042403
v -0.062322 0.714435 0.040150
v -0.065688 0.754486 0.044327
v -0.061849 0.756071 0.043123
v -0.065808 0.740605 0.043596
v -0.062025 0.728192 0.041405
v -0.061740 0.742067 0.042725
v -0.065191 0.700424 0.035071
v -0.064783 0.714083 0.036607
v -0.060936 0.701791 0.034746
v -0.064114 0.755518 0.039452
v -0.060255 0.756979 0.040329
v -0.064339 0.741556 0.038525
v -0.060134 0.743063 0.038717
v -0.063558 0.659952 0.036629
v -0.059509 0.660825 0.037744
v -0.058850 0.674516 0.038093
v -0.058447 0.688210 0.038200
v -0.058375 0.702011 0.038289
v -0.058318 0.715842 0.038860
v -0.062279 0.674476 0.032167
v -0.062508 0.660877 0.032642
v -0.059062 0.662265 0.030025
v -0.061508 0.688107 0.033533
v -0.057916 0.675790 0.032013
v -0.058042 0.729675 0.040436
v -0.057743 0.743607 0.041500
v -0.060581 0.715475 0.036233
v -0.060353 0.729174 0.037509
v -0.056384 0.716924 0.035652
v -0.060358 0.647395 0.034377
v -0.059579 0.648376 0.030389
v -0.057172 0.689489 0.033012
v -0.056774 0.703233 0.033913
v -0.052981 0.690919 0.031937
v -0.056991 0.636019 0.027884
v -0.056380 0.648117 0.035523
v -0.057752 0.634926 0.031862
v -0.053605 0.635597 0.032973
v -0.056295 0.730688 0.037298
v -0.056260 0.744432 0.038871
v -0.052655 0.732015 0.037340
v -0.056232 0.649836 0.027446
v -0.055275 0.662141 0.036271
v -0.052014 0.649427 0.033947
v -0.054653 0.663533 0.029669
v -0.051833 0.651147 0.026516
v -0.054770 0.675848 0.036309
v -0.051342 0.663469 0.034144
v -0.054413 0.689579 0.036623
v -0.050807 0.677214 0.034396
v -0.054419 0.703425 0.036856
v -0.050407 0.690975 0.035018
v -0.054294 0.717347 0.037654
v -0.050401 0.704908 0.035462
v -0.053969 0.731306 0.039157
v -0.050114 0.718990 0.036413
v -0.053541 0.677164 0.031149
v -0.050396 0.664881 0.028400
v -0.055273 0.622567 0.028981
v -0.053658 0.637480 0.024922
v -0.054227 0.623758 0.025262
v -0.051354 0.625194 0.022126
v -0.052617 0.704720 0.033044
v -0.052256 0.718426 0.035220
v -0.048460 0.706172 0.032535
v -0.051760 0.611368 0.022435
v -0.051041 0.623187 0.029938
v -0.052143 0.610270 0.026321
v -0.048320 0.610947 0.026616
v -0.049403 0.638757 0.023561
v -0.049209 0.636910 0.031301
v -0.046860 0.624492 0.028042
v -0.049394 0.678566 0.029738
v -0.048826 0.692360 0.030810
v -0.045300 0.679996 0.028221
v -0.048577 0.719741 0.035053
v -0.049579 0.597865 0.023254
v -0.045825 0.598525 0.023496
v -0.048135 0.650777 0.031662
v -0.045409 0.638235 0.028823
v -0.047718 0.652453 0.025019
v -0.045389 0.640046 0.021631
v -0.049034 0.612818 0.019180
v -0.048853 0.599035 0.019531
v -0.046487 0.600383 0.016362
v -0.047572 0.626498 0.019992
v -0.045713 0.614194 0.016646
v -0.047528 0.664791 0.031835
v -0.044480 0.652125 0.029082
v -0.044583 0.612154 0.024753
v -0.046878 0.678606 0.032415
v -0.043813 0.666142 0.029428
v -0.046481 0.666279 0.026384
v -0.043945 0.653839 0.022739
v -0.046421 0.692455 0.033416
v -0.042976 0.680053 0.030390
v -0.046240 0.706470 0.033999
v -0.042320 0.694107 0.031586
v -0.044836 0.707371 0.032295
v -0.047205 0.585539 0.019766
v -0.043267 0.625826 0.025458
v -0.046529 0.586599 0.016297
v -0.044764 0.693792 0.029744
v -0.041218 0.695044 0.029188
v -0.041902 0.639548 0.026006
v -0.043762 0.627747 0.017763
v -0.040929 0.653475 0.026379
v -0.044393 0.574142 0.013027
v -0.043726 0.586037 0.020196
v -0.045078 0.573107 0.016350
v -0.041755 0.573532 0.016836
v -0.040166 0.667504 0.026964
v -0.044524 0.587865 0.013043
v -0.043525 0.601641 0.013761
v -0.041840 0.589073 0.010367
v -0.042561 0.667670 0.024413
v -0.038989 0.681652 0.028048
v -0.042325 0.599680 0.021498
v -0.040354 0.587149 0.018091
v -0.042283 0.615402 0.014230
v -0.040528 0.602782 0.011204
v -0.041674 0.641370 0.019182
v -0.040139 0.628992 0.015265
v -0.041371 0.681446 0.026577
v -0.038662 0.669071 0.022378
v -0.042549 0.560805 0.012994
v -0.039600 0.561106 0.013559
v -0.044746 0.423394 -0.015379
v -0.044951 0.423324 -0.016799
v -0.045027 0.423174 -0.016747
v -0.043353 0.421921 -0.018942
v -0.044841 0.423239 -0.015352
v -0.042749 0.421848 -0.018326
v -0.042227 0.421101 -0.020237
v -0.042510 0.427059 -0.016024
v -0.043299 0.422081 -0.018971
v -0.043306 0.427008 -0.017609
v -0.042799 0.422620 -0.015044
v -0.042898 0.422457 -0.015016
v -0.042004 0.421679 -0.016764
v -0.040461 0.426464 -0.015715
v -0.041312 0.613415 0.022128
v -0.039457 0.600874 0.018808
v -0.042517 0.575395 0.009768
v -0.041946 0.561838 0.009739
v -0.040518 0.563039 0.006424
v -0.040163 0.655215 0.020438
v -0.037972 0.642689 0.016596
v -0.038615 0.574677 0.014523
v -0.042062 0.426141 -0.019464
v -0.042166 0.421279 -0.020273
v -0.038867 0.438333 -0.016455
v -0.039251 0.438514 -0.018088
v -0.039979 0.627096 0.022549
v -0.038337 0.614591 0.019139
v -0.040188 0.421233 -0.016239
v -0.040256 0.421060 -0.016227
v -0.038581 0.425318 -0.016518
v -0.041132 0.420285 -0.021574
v -0.041004 0.420751 -0.020067
v -0.040261 0.548607 0.009790
v -0.037022 0.437881 -0.016224
v -0.040232 0.576598 0.006788
v -0.037735 0.588304 0.015281
v -0.038880 0.616528 0.011690
v -0.040728 0.425494 -0.021118
v -0.041065 0.420484 -0.021613
v -0.038448 0.438385 -0.019895
v -0.040210 0.420682 -0.018437
v -0.040100 0.549551 0.006375
v -0.038541 0.640856 0.023056
v -0.036849 0.628325 0.019472
v -0.039064 0.590195 0.007754
v -0.037677 0.577691 0.004080
v -0.037890 0.682624 0.025520
v -0.036906 0.602037 0.015731
v -0.039992 0.419511 -0.022858
v -0.039486 0.425189 -0.022530
v -0.039924 0.419727 -0.022902
v -0.039289 0.419701 -0.021839
v -0.037513 0.654832 0.023579
v -0.035304 0.642167 0.019961
v -0.036239 0.437909 -0.023282
v -0.037426 0.438171 -0.021526
v -0.038517 0.564167 0.003393
v -0.038811 0.550640 0.003067
v -0.036973 0.551675 0.000090
v -0.036304 0.591245 0.005144
v -0.037511 0.603856 0.008591
v -0.035288 0.437570 -0.017099
v -0.038929 0.420372 -0.017575
v -0.038859 0.420556 -0.017591
v -0.038771 0.537152 0.003236
v -0.037532 0.548858 0.010215
v -0.038856 0.536307 0.006656
v -0.036027 0.536445 0.007236
v -0.038525 0.419749 -0.020257
v -0.037207 0.424917 -0.017976
v -0.036271 0.656672 0.017905
v -0.036585 0.668903 0.024270
v -0.034383 0.656204 0.020591
v -0.035550 0.617511 0.009085
v -0.036528 0.630163 0.012592
v -0.039003 0.418766 -0.024296
v -0.035492 0.615737 0.016034
v -0.038315 0.424837 -0.023953
v -0.038930 0.418994 -0.024338
v -0.036513 0.562267 0.011187
v -0.034530 0.549846 0.007942
v -0.037709 0.418666 -0.023813
v -0.036897 0.450627 -0.016762
v -0.035857 0.450822 -0.018846
v -0.037295 0.417927 -0.025896
v -0.035138 0.670118 0.021184
v -0.037217 0.424400 -0.025337
v -0.037222 0.418190 -0.025940
v -0.037718 0.419958 -0.019125
v -0.037789 0.419761 -0.019103
v -0.036052 0.424614 -0.019647
v -0.036831 0.450218 -0.014616
v -0.037543 0.523714 0.003736
v -0.034529 0.523820 0.004439
v -0.037710 0.538119 -0.000176
v -0.036666 0.525607 -0.003314
v -0.037586 0.524601 0.000208
v -0.032619 0.657430 0.017427
v -0.036102 0.575834 0.011692
v -0.034255 0.563390 0.008315
v -0.033772 0.629534 0.016252
v -0.036944 0.418817 -0.022239
v -0.036204 0.565224 0.000559
v -0.034713 0.450785 -0.021021
v -0.033941 0.437265 -0.027055
v -0.035101 0.437648 -0.025175
v -0.032805 0.631249 0.009767
v -0.034235 0.644041 0.013755
v -0.036651 0.419331 -0.020744
v -0.036721 0.419122 -0.020717
v -0.035500 0.589438 0.012193
v -0.033977 0.576927 0.008645
v -0.035533 0.417515 -0.025859
v -0.034991 0.424284 -0.021385
v -0.035900 0.539102 -0.003252
v -0.035069 0.578745 0.001414
v -0.033784 0.566267 -0.002193
v -0.035476 0.511330 0.000373
v -0.035932 0.512223 -0.002997
v -0.033275 0.537307 0.004742
v -0.034583 0.604801 0.005892
v -0.032323 0.643463 0.016726
v -0.035502 0.424409 -0.026970
v -0.035452 0.417785 -0.025902
v -0.032904 0.437197 -0.020186
v -0.034069 0.437398 -0.018452
v -0.034762 0.450010 -0.014592
v -0.032772 0.450035 -0.015794
v -0.034804 0.552670 -0.002782
v -0.033709 0.540059 -0.006092
v -0.035171 0.417806 -0.024257
v -0.035910 0.462961 -0.014585
v -0.034994 0.463306 -0.017246
v -0.033337 0.590532 0.009031
v -0.034484 0.603136 0.012554
v -0.035740 0.462366 -0.011872
v -0.033277 0.462086 -0.011596
v -0.035773 0.418709 -0.022363
v -0.035844 0.418489 -0.022330
v -0.035285 0.513211 -0.006377
v -0.034908 0.526586 -0.006478
v -0.033859 0.514121 -0.009567
v -0.034079 0.423910 -0.023148
v -0.032575 0.550847 0.005014
v -0.032490 0.579801 -0.001401
v -0.033670 0.592256 0.002354
v -0.032696 0.450646 -0.025501
v -0.033682 0.450701 -0.023258
v -0.032311 0.564438 0.005215
v -0.034937 0.499865 -0.006129
v -0.034793 0.475265 -0.012148
v -0.035092 0.418058 -0.024299
v -0.033220 0.424000 -0.025283
v -0.034619 0.474596 -0.009314
v -0.031601 0.605748 0.002893
v -0.032076 0.618397 0.006371
v -0.033533 0.424179 -0.026917
v -0.032392 0.436733 -0.028690
v -0.032029 0.577999 0.005445
v -0.032131 0.604135 0.009332
v -0.032712 0.616800 0.012799
v -0.034851 0.498980 -0.002835
v -0.032325 0.498923 -0.002190
v -0.033152 0.511343 0.001067
v -0.034047 0.500785 -0.009367
v -0.031837 0.436985 -0.022137
v -0.033976 0.475790 -0.015024
v -0.033858 0.463513 -0.019923
v -0.033058 0.476226 -0.017845
v -0.034177 0.486693 -0.006265
v -0.034385 0.487552 -0.009269
v -0.033594 0.488335 -0.012347
v -0.032841 0.527488 -0.009401
v -0.032505 0.553638 -0.005562
v -0.032737 0.463696 -0.022434
v -0.032240 0.474339 -0.008740
v -0.032395 0.524762 0.001495
v -0.031365 0.512260 -0.001827
v -0.031234 0.591565 0.005872
v -0.030602 0.644618 0.013437
v -0.031859 0.486548 -0.005584
v -0.030288 0.436510 -0.026392
v -0.030859 0.436770 -0.024235
v -0.031432 0.450025 -0.017708
v -0.032949 0.501587 -0.012502
v -0.031624 0.450506 -0.027763
v -0.030140 0.450246 -0.029683
v -0.031694 0.502323 -0.015570
v -0.032116 0.514945 -0.012572
v -0.030314 0.554568 -0.008376
v -0.031341 0.567239 -0.004996
v -0.030169 0.617728 0.009446
v -0.030961 0.630621 0.012905
v -0.030803 0.528376 -0.012318
v -0.031479 0.540980 -0.008892
v -0.030770 0.593270 -0.000524
v -0.032673 0.488942 -0.015307
v -0.030608 0.436378 -0.028483
v -0.031088 0.462295 -0.013360
v -0.030113 0.474763 -0.010944
v -0.031406 0.538234 0.001680
v -0.030618 0.525708 -0.001673
v -0.032111 0.476648 -0.020685
v -0.031679 0.489531 -0.018312
v -0.029440 0.449991 -0.022216
v -0.030399 0.449993 -0.019966
v -0.028750 0.618615 0.005946
v -0.029247 0.631597 0.009544
v -0.029654 0.462597 -0.015915
v -0.031630 0.463885 -0.024963
v -0.031131 0.477047 -0.023508
v -0.029924 0.605069 0.005981
v -0.030472 0.463980 -0.027475
v -0.030856 0.551846 0.001845
v -0.029864 0.539194 -0.001546
v -0.028821 0.568223 -0.008037
v -0.029764 0.580891 -0.004355
v -0.028217 0.449965 -0.029354
v -0.030212 0.487326 -0.008207
v -0.030746 0.499765 -0.005065
v -0.030595 0.565497 0.001979
v -0.029272 0.552830 -0.001400
v -0.030589 0.490091 -0.021278
v -0.030416 0.515759 -0.015649
v -0.030090 0.579055 0.002208
v -0.028881 0.566518 -0.001289
v -0.030302 0.503033 -0.018610
v -0.028737 0.463899 -0.029666
v -0.030086 0.477348 -0.026437
v -0.028108 0.593506 -0.000620
v -0.028681 0.605974 0.002603
v -0.029533 0.541917 -0.011886
v -0.029318 0.500620 -0.008190
v -0.029893 0.513189 -0.005003
v -0.028159 0.580098 -0.001037
v -0.029139 0.592567 0.002629
v -0.028573 0.450004 -0.024557
v -0.028763 0.516547 -0.018826
v -0.029003 0.529279 -0.015425
v -0.028852 0.488014 -0.011056
v -0.028862 0.503609 -0.021695
v -0.029388 0.490574 -0.024253
v -0.028574 0.514028 -0.008213
v -0.029127 0.526614 -0.004920
v -0.028649 0.462845 -0.018502
v -0.027520 0.542886 -0.015000
v -0.028047 0.555511 -0.011360
v -0.028036 0.449968 -0.026973
v -0.028805 0.475247 -0.013625
v -0.027868 0.490923 -0.026911
v -0.028493 0.477554 -0.029060
v -0.028044 0.501355 -0.011271
v -0.028353 0.540136 -0.004794
v -0.027752 0.527511 -0.008206
v -0.027072 0.581076 -0.004243
v -0.027719 0.475697 -0.016405
v -0.027712 0.463100 -0.021100
v -0.026962 0.463372 -0.023745
v -0.027248 0.504055 -0.024672
v -0.027716 0.553785 -0.004604
v -0.026808 0.541061 -0.008015
v -0.027345 0.514847 -0.011471
v -0.027164 0.530176 -0.018546
v -0.027212 0.567473 -0.004596
v -0.026220 0.554739 -0.007926
v -0.027607 0.488572 -0.013992
v -0.025503 0.555649 -0.011301
v -0.026262 0.568375 -0.007851
v -0.026987 0.517273 -0.021934
v -0.026083 0.477379 -0.028266
v -0.026633 0.463717 -0.029220
v -0.025496 0.490697 -0.026318
v -0.026403 0.528399 -0.011498
v -0.026413 0.463592 -0.026520
v -0.026604 0.489142 -0.017004
v -0.026938 0.502085 -0.014413
v -0.026812 0.476154 -0.019262
v -0.025383 0.542017 -0.011334
v -0.024505 0.530175 -0.018204
v -0.024850 0.542967 -0.014748
v -0.025892 0.502795 -0.017578
v -0.026144 0.515651 -0.014762
v -0.024318 0.517158 -0.021470
v -0.024623 0.503897 -0.024147
v -0.026144 0.476615 -0.022197
v -0.025713 0.477014 -0.025233
v -0.025756 0.489708 -0.020062
v -0.024942 0.516430 -0.018140
v -0.025058 0.529291 -0.014830
v -0.025105 0.490211 -0.023187
v -0.024867 0.503380 -0.020835
usemtl Sartorius_muscle_rMaterial0
f 1 2 3
f 1 4 2
f 4 3 2
f 1 3 5
f 1 5 6
f 1 7 4
f 1 8 7
f 1 6 9
f 1 9 8
f 10 5 3
f 11 6 5
f 10 11 5
f 4 12 3
f 13 3 12
f 13 10 3
f 4 7 8
f 4 8 12
f 13 12 8
f 11 14 6
f 15 9 6
f 15 6 14
f 11 16 14
f 10 17 11
f 11 17 16
f 18 8 9
f 15 19 9
f 18 9 19
f 16 20 14
f 15 14 20
f 13 8 18
f 13 21 10
f 10 21 17
f 22 20 23
f 22 15 20
f 24 23 20
f 16 24 20
f 25 13 18
f 13 26 21
f 25 26 13
f 22 23 27
f 22 28 29
f 22 27 28
f 22 29 30
f 22 31 15
f 22 30 32
f 22 32 33
f 22 33 31
f 24 34 23
f 34 27 23
f 16 17 35
f 16 36 24
f 16 35 37
f 16 37 36
f 38 17 21
f 38 35 17
f 39 29 28
f 40 28 27
f 40 39 28
f 41 30 29
f 41 29 42
f 39 42 29
f 24 43 34
f 24 36 43
f 44 19 15
f 45 15 31
f 45 44 15
f 25 18 19
f 38 21 26
f 41 46 30
f 41 42 47
f 41 48 46
f 41 47 48
f 46 49 30
f 50 32 30
f 50 30 49
f 34 51 27
f 51 40 27
f 25 19 52
f 44 52 19
f 42 53 47
f 54 42 39
f 42 55 53
f 54 55 42
f 48 56 46
f 46 56 49
f 57 37 35
f 57 35 38
f 48 47 53
f 33 32 58
f 33 58 31
f 48 59 56
f 48 53 59
f 40 54 39
f 34 60 51
f 34 43 60
f 57 61 37
f 61 36 37
f 38 26 62
f 25 62 26
f 57 38 63
f 38 64 63
f 38 62 64
f 65 56 59
f 65 59 53
f 66 57 63
f 57 67 61
f 66 68 57
f 57 68 67
f 65 49 56
f 65 53 55
f 50 58 32
f 66 63 64
f 61 69 36
f 69 43 36
f 65 55 70
f 54 70 55
f 40 71 54
f 51 72 40
f 40 73 71
f 40 72 73
f 65 70 49
f 74 49 70
f 74 50 49
f 61 75 69
f 61 67 75
f 54 74 70
f 54 76 74
f 54 71 76
f 25 77 62
f 64 62 77
f 51 78 72
f 51 60 78
f 79 25 52
f 79 77 25
f 66 80 68
f 81 68 80
f 81 67 68
f 66 64 82
f 66 83 80
f 84 83 66
f 84 66 82
f 85 31 58
f 85 45 31
f 74 86 50
f 50 86 58
f 64 77 87
f 64 88 82
f 64 87 88
f 89 80 83
f 89 83 90
f 84 90 83
f 69 91 43
f 91 60 43
f 74 76 86
f 92 76 71
f 92 71 73
f 79 52 44
f 45 93 44
f 79 44 93
f 69 75 94
f 69 94 91
f 89 81 80
f 81 75 67
f 86 85 58
f 79 87 77
f 84 82 88
f 85 95 45
f 45 95 93
f 96 73 72
f 96 72 78
f 97 89 90
f 84 98 90
f 97 90 98
f 86 76 92
f 86 99 85
f 86 92 99
f 79 100 87
f 88 87 100
f 89 101 81
f 97 102 89
f 103 101 89
f 103 89 102
f 84 88 104
f 105 98 84
f 105 84 104
f 91 106 60
f 106 78 60
f 107 79 93
f 107 100 79
f 81 108 75
f 109 81 101
f 109 108 81
f 110 75 108
f 110 94 75
f 91 111 106
f 91 94 111
f 85 99 112
f 85 113 95
f 85 112 113
f 107 93 95
f 88 100 114
f 88 115 104
f 88 114 115
f 96 92 73
f 107 114 100
f 97 98 116
f 117 102 97
f 118 97 116
f 117 97 119
f 118 119 97
f 105 116 98
f 109 101 103
f 103 102 117
f 106 120 78
f 120 96 78
f 121 99 92
f 121 112 99
f 110 108 109
f 107 95 122
f 113 122 95
f 105 104 115
f 96 121 92
f 106 123 120
f 106 111 123
f 111 94 110
f 107 124 114
f 115 114 124
f 125 107 122
f 125 124 107
f 103 117 126
f 109 103 127
f 103 126 128
f 103 128 127
f 105 129 116
f 118 116 129
f 105 115 130
f 131 129 105
f 131 105 130
f 117 119 132
f 117 133 126
f 117 132 134
f 117 134 133
f 110 109 135
f 109 127 136
f 109 136 135
f 132 119 118
f 113 137 122
f 113 112 138
f 113 138 137
f 120 139 96
f 96 140 121
f 96 139 140
f 115 124 141
f 115 142 130
f 115 141 142
f 111 110 143
f 110 135 144
f 110 144 143
f 120 145 139
f 120 123 145
f 125 122 137
f 125 141 124
f 111 143 146
f 111 146 123
f 147 126 133
f 147 128 126
f 138 112 121
f 138 121 140
f 118 129 148
f 131 148 129
f 149 127 128
f 149 136 127
f 132 118 150
f 151 118 148
f 151 150 118
f 132 152 134
f 153 133 134
f 153 134 152
f 131 130 142
f 132 154 152
f 132 150 155
f 132 155 154
f 125 137 156
f 138 156 137
f 157 135 136
f 157 144 135
f 158 140 139
f 158 139 145
f 125 159 141
f 142 141 159
f 160 125 156
f 160 159 125
f 161 143 144
f 161 146 143
f 162 123 146
f 162 145 123
f 147 133 153
f 149 128 147
f 138 140 158
f 138 163 156
f 138 158 163
f 131 164 148
f 131 142 165
f 166 164 131
f 166 131 165
f 151 148 164
f 167 152 154
f 153 152 167
f 157 136 149
f 155 150 151
f 142 159 168
f 142 169 165
f 142 168 169
f 167 154 170
f 155 170 154
f 160 156 163
f 160 168 159
f 161 144 157
f 162 146 161
f 158 145 162
f 147 153 171
f 153 167 172
f 153 173 171
f 153 172 173
f 149 147 174
f 147 171 175
f 147 175 174
f 157 149 176
f 149 174 177
f 149 177 176
f 167 170 178
f 167 179 172
f 167 178 180
f 167 180 179
f 151 164 181
f 166 181 164
f 166 165 169
f 155 151 182
f 155 183 170
f 155 184 183
f 155 182 184
f 160 163 185
f 158 185 163
f 186 151 181
f 186 182 151
f 161 157 187
f 157 176 188
f 157 188 187
f 160 189 168
f 169 168 189
f 178 170 183
f 190 189 160
f 190 160 185
f 158 162 191
f 158 191 185
f 162 161 192
f 161 187 193
f 161 193 192
f 162 192 194
f 162 194 191
f 195 171 173
f 195 175 171
f 196 173 172
f 196 172 179
f 197 174 175
f 197 177 174
f 178 198 180
f 199 179 180
f 199 180 198
f 200 176 177
f 200 188 176
f 166 169 201
f 166 202 181
f 203 166 201
f 203 202 166
f 169 189 204
f 169 205 201
f 169 204 205
f 186 181 202
f 178 183 206
f 184 206 183
f 190 204 189
f 190 185 191
f 207 187 188
f 207 193 187
f 184 182 186
f 178 208 198
f 178 209 208
f 178 206 209
f 210 192 193
f 210 194 192
f 190 191 194
f 196 195 173
f 195 197 175
f 199 196 179
f 211 198 208
f 211 199 198
f 197 200 177
f 203 201 205
f 200 207 188
f 190 212 204
f 205 204 212
f 186 202 213
f 203 213 202
f 210 190 194
f 210 212 190
f 211 208 214
f 209 214 208
f 184 215 206
f 209 206 215
f 184 186 216
f 217 186 213
f 217 216 186
f 207 210 193
f 184 218 215
f 184 216 218
f 195 219 197
f 196 220 195
f 195 221 219
f 195 220 221
f 199 222 196
f 211 223 199
f 199 223 224
f 199 224 222
f 197 225 200
f 197 219 226
f 197 226 225
f 196 227 220
f 196 222 227
f 228 211 214
f 211 229 223
f 228 230 211
f 211 230 229
f 200 231 207
f 200 225 232
f 200 232 231
f 205 212 233
f 203 205 234
f 205 233 235
f 205 235 234
f 210 233 212
f 207 236 210
f 207 231 237
f 207 237 236
f 203 238 213
f 239 203 234
f 239 238 203
f 209 240 214
f 209 215 241
f 209 242 240
f 209 241 242
f 210 236 233
f 228 214 240
f 217 213 238
f 218 241 215
f 218 216 217
f 243 223 229
f 243 224 223
f 244 226 219
f 244 219 221
f 245 225 226
f 245 232 225
f 246 221 220
f 246 220 227
f 247 222 224
f 247 227 222
f 228 248 230
f 249 229 230
f 249 230 248
f 250 231 232
f 250 237 231
f 235 233 236
f 235 236 237
f 239 234 235
f 228 240 251
f 228 252 248
f 253 252 228
f 253 228 251
f 242 251 240
f 217 238 254
f 239 254 238
f 218 255 241
f 242 241 255
f 218 217 256
f 257 217 254
f 257 256 217
f 218 258 255
f 218 256 258
f 245 226 244
f 250 232 245
f 243 229 249
f 235 237 250
f 247 224 243
f 244 221 246
f 259 248 252
f 249 248 259
f 246 227 247
f 239 235 260
f 235 250 260
f 259 252 261
f 253 261 252
f 242 262 251
f 253 251 262
f 239 263 254
f 264 239 260
f 264 263 239
f 257 254 263
f 242 255 265
f 242 266 262
f 242 265 266
f 258 265 255
f 258 256 257
f 250 245 267
f 264 260 250
f 264 250 267
f 245 244 268
f 269 267 245
f 269 245 268
f 243 249 270
f 249 259 271
f 272 249 271
f 272 270 249
f 244 246 273
f 274 268 244
f 274 244 273
f 247 243 275
f 276 243 270
f 276 275 243
f 259 261 277
f 278 271 259
f 259 277 279
f 278 259 279
f 246 247 280
f 281 247 275
f 281 280 247
f 282 246 280
f 282 273 246
f 253 283 261
f 253 262 284
f 285 283 253
f 285 253 284
f 277 261 283
f 257 263 286
f 264 286 263
f 266 284 262
f 258 257 287
f 288 257 286
f 288 287 257
f 258 289 265
f 266 265 289
f 258 287 290
f 258 290 289
f 269 264 267
f 274 269 268
f 278 272 271
f 291 279 277
f 291 278 279
f 272 276 270
f 276 281 275
f 281 282 280
f 282 274 273
f 264 292 286
f 269 292 264
f 277 283 293
f 291 277 294
f 277 295 294
f 277 293 295
f 285 293 283
f 266 296 284
f 285 284 296
f 288 286 292
f 266 289 297
f 266 298 296
f 266 297 298
f 290 287 288
f 290 297 289
f 274 299 269
f 269 300 292
f 269 299 300
f 291 301 278
f 302 291 294
f 302 303 291
f 291 303 304
f 291 304 301
f 278 305 272
f 278 301 306
f 278 306 305
f 272 307 276
f 272 305 308
f 272 308 307
f 276 309 281
f 276 307 310
f 276 310 309
f 282 311 274
f 274 312 299
f 274 311 312
f 281 313 282
f 281 309 314
f 281 314 313
f 302 294 295
f 282 313 315
f 282 315 311
f 288 292 300
f 285 316 293
f 295 293 316
f 285 296 317
f 318 316 285
f 318 285 317
f 298 317 296
f 290 288 319
f 320 288 300
f 320 319 288
f 290 321 297
f 298 297 321
f 290 322 321
f 290 319 322
f 302 323 303
f 324 303 323
f 324 304 303
f 325 301 304
f 325 306 301
f 326 305 306
f 326 308 305
f 320 300 299
f 320 299 312
f 327 307 308
f 327 310 307
f 328 309 310
f 328 314 309
f 302 295 329
f 302 330 323
f 331 330 302
f 331 302 329
f 295 316 332
f 295 333 329
f 295 332 333
f 334 313 314
f 334 315 313
f 335 312 311
f 335 311 315
f 318 332 316
f 298 336 317
f 318 317 336
f 298 321 337
f 298 338 336
f 298 337 338
f 322 337 321
f 322 319 320
f 339 323 330
f 339 324 323
f 324 325 304
f 325 326 306
f 339 330 340
f 331 340 330
f 326 327 308
f 327 328 310
f 331 329 333
f 328 334 314
f 335 320 312
f 334 335 315
f 318 341 332
f 333 332 341
f 318 336 342
f 343 341 318
f 343 318 342
f 338 342 336
f 344 339 340
f 339 345 324
f 344 346 339
f 347 339 346
f 347 345 339
f 322 348 337
f 338 337 348
f 322 320 349
f 335 349 320
f 322 350 348
f 322 349 350
f 331 351 340
f 344 340 351
f 324 352 325
f 353 324 345
f 353 352 324
f 331 333 354
f 355 351 331
f 355 331 354
f 325 356 326
f 357 325 352
f 357 356 325
f 326 358 327
f 359 326 356
f 359 358 326
f 327 360 328
f 361 327 358
f 361 360 327
f 328 362 334
f 363 328 360
f 363 362 328
f 334 364 335
f 365 334 362
f 365 364 334
f 333 341 366
f 333 367 354
f 333 366 367
f 368 346 344
f 347 346 368
f 350 349 335
f 350 335 364
f 343 366 341
f 344 351 369
f 368 344 370
f 371 370 344
f 371 344 369
f 338 372 342
f 343 342 372
f 353 345 347
f 338 348 373
f 338 374 372
f 338 373 374
f 350 373 348
f 355 369 351
f 368 370 375
f 347 368 376
f 368 375 377
f 368 377 378
f 368 378 376
f 357 352 353
f 359 356 357
f 355 354 367
f 361 358 359
f 363 360 361
f 365 362 363
f 375 370 371
f 350 364 365
f 355 379 369
f 371 369 379
f 353 347 380
f 347 376 381
f 347 381 380
f 343 382 366
f 367 366 382
f 343 372 383
f 384 382 343
f 384 343 383
f 350 385 373
f 350 365 385
f 374 383 372
f 374 373 385
f 375 386 377
f 387 377 386
f 387 378 377
f 357 353 388
f 353 380 389
f 353 389 388
f 355 367 390
f 391 379 355
f 391 355 390
f 375 371 392
f 375 393 386
f 375 392 394
f 375 394 393
f 371 379 395
f 396 392 371
f 396 371 395
f 359 357 397
f 357 388 398
f 357 398 397
f 399 376 378
f 399 381 376
f 361 359 400
f 359 397 401
f 359 401 400
f 367 382 402
f 367 403 390
f 367 402 403
f 363 361 404
f 361 400 405
f 361 405 404
f 365 363 406
f 363 404 407
f 363 407 406
f 365 408 385
f 365 406 408
f 409 386 393
f 387 386 409
f 391 395 379
f 384 402 382
f 410 380 381
f 410 389 380
f 394 392 396
f 409 393 411
f 394 411 393
f 374 412 383
f 384 383 412
f 374 385 408
f 374 408 413
f 374 413 412
f 399 378 387
f 414 388 389
f 414 398 388
f 391 390 403
f 396 395 415
f 391 415 395
f 416 397 398
f 416 401 397
f 409 411 417
f 387 409 418
f 409 417 419
f 409 419 420
f 409 420 418
f 421 400 401
f 421 405 400
f 410 381 399
f 394 422 411
f 417 411 422
f 394 396 423
f 394 424 422
f 394 423 424
f 384 425 402
f 403 402 425
f 426 404 405
f 426 407 404
f 413 408 406
f 413 406 407
f 399 387 427
f 387 418 428
f 387 428 427
f 396 415 429
f 430 423 396
f 430 396 429
f 414 389 410
f 391 403 431
f 432 415 391
f 432 391 431
f 384 412 433
f 434 425 384
f 434 384 433
f 417 435 419
f 436 419 435
f 436 420 419
f 437 438 439
f 438 440 439
f 437 439 441
f 441 439 442
f 439 440 443
f 439 443 442
f 444 438 437
f 438 445 440
f 446 445 438
f 444 446 438
f 447 437 441
f 447 441 448
f 448 441 449
f 441 442 449
f 413 433 412
f 450 437 447
f 450 444 437
f 410 399 451
f 399 427 452
f 399 452 451
f 417 422 453
f 424 453 422
f 416 398 414
f 417 454 435
f 417 453 455
f 417 455 454
f 403 425 456
f 403 457 431
f 403 456 457
f 421 401 416
f 432 429 415
f 458 418 420
f 458 428 418
f 424 423 430
f 445 443 440
f 446 459 445
f 445 460 443
f 459 460 445
f 461 446 444
f 462 459 446
f 461 462 446
f 414 410 463
f 410 451 464
f 410 464 463
f 426 405 421
f 465 447 448
f 448 449 466
f 465 448 466
f 467 450 447
f 467 447 465
f 442 443 468
f 449 442 469
f 442 468 469
f 434 456 425
f 470 435 454
f 470 436 435
f 471 444 450
f 471 461 444
f 424 472 453
f 455 453 472
f 473 427 428
f 473 452 427
f 413 407 426
f 430 429 474
f 432 474 429
f 460 468 443
f 459 475 460
f 460 476 468
f 475 476 460
f 477 475 459
f 462 477 459
f 449 469 478
f 466 449 478
f 455 479 454
f 470 454 479
f 416 414 480
f 414 463 481
f 414 481 480
f 424 430 482
f 424 483 472
f 424 482 483
f 436 458 420
f 432 431 457
f 413 484 433
f 434 433 484
f 485 451 452
f 485 464 451
f 413 426 484
f 476 486 468
f 469 468 486
f 475 487 476
f 476 488 486
f 487 488 476
f 478 469 489
f 469 486 489
f 421 416 490
f 416 480 491
f 416 491 490
f 492 487 475
f 477 493 475
f 492 475 493
f 455 472 494
f 455 495 479
f 455 496 495
f 455 494 496
f 497 482 430
f 430 474 498
f 497 430 498
f 499 450 467
f 499 471 450
f 458 473 428
f 466 478 500
f 501 465 466
f 501 466 500
f 502 470 479
f 470 503 436
f 502 504 470
f 470 504 505
f 470 505 503
f 483 494 472
f 478 489 506
f 500 478 506
f 507 465 501
f 507 467 465
f 434 508 456
f 457 456 508
f 426 421 509
f 421 490 510
f 421 510 509
f 511 474 432
f 432 457 512
f 511 432 512
f 502 479 495
f 488 513 486
f 489 486 513
f 514 463 464
f 514 481 463
f 487 515 488
f 488 516 513
f 515 516 488
f 436 517 458
f 436 503 518
f 436 518 517
f 515 487 492
f 473 485 452
f 489 513 519
f 506 489 519
f 461 520 462
f 462 521 477
f 462 520 521
f 483 482 497
f 516 522 513
f 519 513 522
f 426 523 484
f 426 509 523
f 515 524 516
f 516 525 522
f 524 525 516
f 526 501 500
f 500 506 527
f 526 500 527
f 511 498 474
f 528 501 526
f 528 507 501
f 471 529 461
f 461 529 520
f 502 530 504
f 531 504 530
f 531 505 504
f 502 495 532
f 496 532 495
f 533 502 532
f 502 534 530
f 533 534 502
f 434 484 523
f 535 508 434
f 535 434 523
f 458 536 473
f 458 517 537
f 458 537 536
f 499 467 507
f 538 480 481
f 538 491 480
f 527 506 539
f 506 519 539
f 483 540 494
f 496 494 540
f 541 493 477
f 541 477 521
f 485 514 464
f 515 542 524
f 515 492 543
f 515 543 542
f 457 544 512
f 457 508 545
f 457 545 544
f 546 526 527
f 527 539 547
f 546 527 547
f 473 548 485
f 473 536 549
f 473 549 548
f 519 522 550
f 539 519 550
f 551 526 546
f 551 528 526
f 496 552 532
f 533 532 552
f 483 497 553
f 483 554 540
f 483 553 554
f 555 530 534
f 533 556 534
f 555 534 556
f 531 530 555
f 557 503 505
f 557 518 503
f 497 498 558
f 511 558 498
f 559 490 491
f 559 510 490
f 492 493 541
f 525 550 522
f 524 560 525
f 525 561 550
f 560 561 525
f 542 560 524
f 562 507 528
f 499 507 563
f 562 563 507
f 471 564 529
f 565 471 499
f 565 564 471
f 496 540 566
f 496 567 552
f 496 566 567
f 547 539 568
f 539 550 568
f 529 569 520
f 570 520 569
f 570 521 520
f 485 548 571
f 485 572 514
f 485 571 572
f 514 538 481
f 529 573 569
f 529 574 573
f 529 564 574
f 575 546 547
f 575 547 576
f 547 568 576
f 533 577 556
f 533 552 578
f 579 577 533
f 579 533 578
f 580 546 575
f 580 551 546
f 535 523 509
f 535 509 510
f 511 512 544
f 581 517 518
f 581 537 517
f 582 553 497
f 497 558 583
f 582 497 583
f 535 545 508
f 492 584 543
f 492 541 585
f 492 585 584
f 554 566 540
f 586 536 537
f 586 549 536
f 562 528 551
f 557 505 531
f 555 556 587
f 587 556 577
f 588 569 573
f 570 569 588
f 567 578 552
f 541 521 570
f 589 575 576
f 589 576 568
f 590 575 589
f 590 580 575
f 588 573 591
f 574 591 573
f 592 558 511
f 511 544 593
f 592 511 593
f 561 568 550
f 560 594 561
f 542 595 560
f 595 594 560
f 596 548 549
f 596 571 548
f 514 572 597
f 514 598 538
f 514 597 598
f 555 587 599
f 600 555 599
f 531 555 601
f 600 601 555
f 561 589 568
f 594 589 561
f 538 559 491
f 565 499 563
f 587 577 602
f 579 602 577
f 594 590 589
f 584 542 543
f 554 553 582
f 580 603 551
f 562 551 603
f 570 588 604
f 541 570 605
f 570 604 606
f 570 606 605
f 607 599 587
f 607 587 608
f 587 609 608
f 587 602 609
f 579 578 610
f 567 610 578
f 607 600 599
f 554 611 566
f 567 566 611
f 588 591 607
f 588 607 608
f 588 608 609
f 588 609 604
f 565 574 564
f 541 605 612
f 541 612 585
f 607 591 613
f 574 613 591
f 592 583 558
f 557 531 614
f 615 531 601
f 615 614 531
f 581 518 557
f 616 572 571
f 616 597 572
f 559 535 510
f 586 537 581
f 544 545 617
f 535 617 545
f 607 618 600
f 607 613 618
f 580 590 619
f 580 620 603
f 580 619 620
f 562 621 563
f 565 563 621
f 579 622 602
f 609 602 622
f 609 606 604
f 596 549 586
f 584 623 542
f 542 624 595
f 542 623 624
f 606 612 605
f 625 622 579
f 579 610 626
f 625 579 626
f 554 627 611
f 554 582 628
f 554 628 627
f 538 598 629
f 538 630 559
f 538 629 630
f 567 631 610
f 567 611 632
f 567 632 631
f 612 584 585
f 582 583 633
f 592 633 583
f 609 634 606
f 609 622 634
f 619 590 594
f 595 635 594
f 619 594 635
f 616 571 596
f 565 636 574
f 574 637 613
f 574 636 637
f 581 557 638
f 639 557 614
f 639 638 557
f 600 615 601
f 606 640 612
f 606 634 641
f 606 641 640
f 625 634 622
f 642 562 603
f 562 643 621
f 642 643 562
f 631 626 610
f 544 644 593
f 544 617 645
f 544 645 644
f 646 565 621
f 646 636 565
f 612 647 584
f 612 640 648
f 612 648 647
f 649 598 597
f 649 629 598
f 584 650 623
f 584 647 650
f 625 641 634
f 559 617 535
f 586 581 651
f 652 581 638
f 652 651 581
f 627 632 611
f 653 628 582
f 582 633 654
f 653 582 654
f 655 635 595
f 655 595 624
f 615 639 614
f 600 618 656
f 600 657 615
f 600 656 657
f 559 630 645
f 559 645 617
f 596 586 658
f 659 586 651
f 659 658 586
f 637 618 613
f 649 597 616
f 660 640 641
f 660 648 640
f 625 626 661
f 631 661 626
f 592 593 644
f 616 596 662
f 663 596 658
f 663 662 596
f 637 656 618
f 642 603 620
f 660 641 625
f 660 625 664
f 625 661 664
f 665 623 650
f 665 624 623
f 666 647 648
f 666 650 647
f 667 633 592
f 592 644 668
f 667 592 668
f 631 632 669
f 627 669 632
f 646 621 643
f 639 652 638
f 615 657 670
f 615 671 639
f 615 670 671
f 627 628 653
f 672 616 662
f 649 616 673
f 672 673 616
f 666 648 660
f 646 637 636
f 644 630 629
f 644 645 630
f 619 674 620
f 642 620 674
f 652 659 651
f 631 675 661
f 631 669 676
f 631 676 675
f 667 654 633
f 677 657 656
f 677 670 657
f 619 635 655
f 660 664 678
f 666 660 679
f 660 678 679
f 639 671 680
f 639 681 652
f 639 680 681
f 659 663 658
f 665 650 666
f 675 664 661
f 646 643 682
f 642 682 643
f 627 683 669
f 627 653 684
f 627 684 683
f 675 678 664
f 619 685 674
f 619 655 685
f 637 677 656
f 644 629 649
f 655 624 665
f 646 686 637
f 637 686 677
f 666 679 687
f 665 666 688
f 666 687 688
f 663 672 662
f 667 649 673
f 644 649 668
f 667 668 649
f 689 671 670
f 689 680 671
f 652 690 659
f 652 681 691
f 652 691 690
f 653 654 692
f 667 692 654
f 693 686 646
f 693 646 682
f 683 676 669
f 642 694 682
f 695 642 674
f 695 694 642
f 696 679 678
f 696 687 679
f 677 689 670
f 659 697 663
f 659 690 698
f 659 698 697
f 672 667 673
f 699 681 680
f 699 691 681
f 675 676 700
f 683 700 676
f 663 701 672
f 663 697 702
f 663 702 701
f 693 677 686
f 677 703 689
f 693 703 677
f 675 696 678
f 704 684 653
f 653 692 705
f 704 653 705
f 675 706 696
f 675 700 706
f 665 688 707
f 655 665 708
f 665 707 708
f 693 682 694
f 695 674 685
f 689 699 680
f 709 688 687
f 709 707 688
f 710 690 691
f 710 698 690
f 655 711 685
f 655 708 711
f 672 692 667
f 672 701 705
f 672 705 692
f 695 685 711
f 712 689 703
f 689 713 699
f 712 713 689
f 683 684 704
f 696 709 687
f 699 710 691
f 693 694 714
f 695 714 694
f 712 703 693
f 712 693 714
f 715 697 698
f 715 702 697
f 683 716 700
f 683 704 717
f 683 717 716
f 718 699 713
f 699 719 710
f 718 719 699
f 696 706 720
f 696 721 709
f 696 720 721
f 704 705 701
f 704 701 702
f 716 706 700
f 716 720 706
f 695 722 714
f 723 695 711
f 723 722 695
f 718 713 712
f 712 714 722
f 710 715 698
f 723 711 708
f 723 708 707
f 712 722 724
f 718 712 724
f 725 710 719
f 710 726 715
f 725 726 710
f 715 704 702
f 723 724 722
f 725 719 718
f 709 723 707
f 718 724 727
f 718 727 728
f 725 718 728
f 723 727 724
f 709 727 723
f 709 728 727
f 709 721 728
f 715 717 704
f 716 715 726
f 716 717 715
f 716 726 725
f 725 728 721
f 725 721 720
f 716 725 720
