# 
# Wavefront OBJ file
# Created with Kaydara FBX
# 
mtllib c:\users\tjvan\onedrive\documenten\fontys\minor\nx\.mtlmodels\semimembranosus_bursa_deep_to_tendon.r.obj

g Semimembranosus_bursa_deep_to_tendon_r
v -0.057369 0.436086 -0.059897
v -0.057150 0.433128 -0.060024
v -0.057344 0.436022 -0.059402
v -0.056584 0.439967 -0.059825
v -0.057173 0.433235 -0.060512
v -0.055820 0.431445 -0.060981
v -0.053785 0.434168 -0.060457
v -0.055875 0.431406 -0.060486
v -0.056546 0.439986 -0.059327
v -0.053820 0.434133 -0.059959
v -0.055151 0.442797 -0.060459
v -0.053398 0.437327 -0.060004
v -0.055109 0.442866 -0.059966
v -0.053378 0.437321 -0.059505
v -0.052496 0.428965 -0.059436
v -0.052356 0.428943 -0.059915
v -0.053219 0.443036 -0.060665
v -0.052009 0.441091 -0.060354
v -0.051973 0.441159 -0.059860
v -0.053180 0.443138 -0.060177
v -0.052283 0.434094 -0.059717
v -0.052177 0.434084 -0.060206
v -0.051021 0.436419 -0.060170
v -0.051104 0.436457 -0.059679
v -0.051656 0.442686 -0.060716
v -0.051618 0.442784 -0.060227
v -0.050323 0.429218 -0.058840
v -0.050158 0.429195 -0.059311
v -0.049290 0.432596 -0.058574
v -0.049106 0.432559 -0.059038
v -0.049074 0.439694 -0.060328
v -0.049149 0.439794 -0.059844
v -0.049015 0.441458 -0.060636
v -0.049043 0.441569 -0.060149
v -0.047993 0.436168 -0.058412
v -0.047799 0.436082 -0.058864
v -0.048415 0.430964 -0.058106
v -0.047193 0.431969 -0.057550
v -0.046984 0.431927 -0.058002
v -0.048209 0.430944 -0.058561
v -0.047496 0.439165 -0.059010
v -0.047318 0.439026 -0.059456
v -0.047194 0.440763 -0.060131
v -0.047340 0.440908 -0.059675
v -0.045298 0.435019 -0.056985
v -0.045087 0.434946 -0.057432
v -0.045720 0.437249 -0.057576
v -0.046108 0.439638 -0.059163
v -0.046297 0.439803 -0.058730
v -0.045512 0.437136 -0.058017
usemtl Semimembranosus_bursa_deep_to_tendon_rMaterial0
f 1 2 3
f 4 1 3
f 1 5 2
f 1 6 5
f 4 7 1
f 1 7 6
f 3 2 8
f 4 3 9
f 9 3 10
f 3 8 10
f 5 8 2
f 5 6 8
f 11 4 9
f 11 12 4
f 4 12 7
f 11 9 13
f 13 9 14
f 9 10 14
f 6 15 8
f 10 8 15
f 7 16 6
f 6 16 15
f 17 11 13
f 11 18 12
f 17 18 11
f 13 14 19
f 17 13 20
f 20 13 19
f 14 10 21
f 10 15 21
f 12 22 7
f 7 22 16
f 12 23 22
f 18 23 12
f 14 21 24
f 19 14 24
f 25 17 20
f 17 25 18
f 20 19 26
f 25 20 26
f 16 27 15
f 21 15 27
f 22 28 16
f 16 28 27
f 24 21 29
f 21 27 29
f 23 30 22
f 22 30 28
f 25 31 18
f 18 31 23
f 26 19 32
f 19 24 32
f 33 25 26
f 25 33 31
f 26 32 34
f 33 26 34
f 24 29 35
f 32 24 35
f 23 36 30
f 31 36 23
f 28 37 27
f 38 29 27
f 38 27 37
f 28 30 39
f 28 40 37
f 28 39 40
f 35 29 38
f 34 32 41
f 32 35 41
f 36 39 30
f 33 42 31
f 31 42 36
f 43 33 34
f 34 41 44
f 43 34 44
f 33 43 42
f 40 38 37
f 40 39 38
f 41 35 45
f 35 38 45
f 42 46 36
f 36 46 39
f 44 41 47
f 41 45 47
f 48 43 44
f 48 44 49
f 44 47 49
f 43 50 42
f 42 50 46
f 39 45 38
f 43 48 50
f 39 46 45
f 50 48 49
f 50 49 47
f 46 50 47
f 46 47 45
