# 
# Wavefront OBJ file
# Created with Kaydara FBX
# 
mtllib c:\users\tjvan\onedrive\documenten\fontys\minor\nx\.mtlmodels\semimembranosus_muscle_tendon.r.obj

g Semimembranosus_muscle_tendon_r
v -0.072334 0.377261 -0.050165
v -0.072476 0.376170 -0.049614
v -0.072431 0.377381 -0.049795
v -0.072144 0.376471 -0.048909
v -0.071910 0.376783 -0.050022
v -0.071748 0.376274 -0.048458
v -0.071892 0.375503 -0.048995
v -0.069630 0.378683 -0.048947
v -0.072091 0.377188 -0.049046
v -0.069921 0.378903 -0.048612
v -0.069780 0.378484 -0.047919
v -0.069429 0.378256 -0.047533
v -0.071400 0.376332 -0.049654
v -0.069163 0.378317 -0.048661
v -0.071327 0.375865 -0.048034
v -0.071278 0.374833 -0.048385
v -0.069066 0.378035 -0.047172
v -0.070843 0.375696 -0.049117
v -0.068757 0.378022 -0.048314
v -0.070907 0.375456 -0.047611
v -0.068752 0.377756 -0.046843
v -0.070752 0.374257 -0.047882
v -0.070138 0.374555 -0.046826
v -0.068454 0.377496 -0.046507
v -0.070285 0.375060 -0.048582
v -0.068303 0.377608 -0.047862
v -0.069886 0.373270 -0.047048
v -0.069444 0.374150 -0.047792
v -0.067851 0.377192 -0.047404
v -0.069369 0.373653 -0.046042
v -0.067686 0.376917 -0.045726
v -0.067476 0.379995 -0.047585
v -0.066885 0.379921 -0.047657
v -0.069060 0.372293 -0.046235
v -0.067050 0.379964 -0.046940
v -0.068604 0.373240 -0.047003
v -0.067020 0.376555 -0.046617
v -0.066648 0.379833 -0.046513
v -0.068462 0.372562 -0.045077
v -0.066921 0.376354 -0.044952
v -0.066398 0.379753 -0.047472
v -0.068134 0.371093 -0.045246
v -0.066231 0.379688 -0.046107
v -0.066033 0.379557 -0.045869
v -0.065989 0.379633 -0.047159
v -0.067646 0.372115 -0.045996
v -0.066192 0.375930 -0.045825
v -0.067652 0.371434 -0.044089
v -0.066134 0.375522 -0.044018
v -0.065835 0.379426 -0.045631
v -0.065620 0.379440 -0.046814
v -0.067257 0.369911 -0.044159
v -0.065260 0.379254 -0.046456
v -0.065067 0.379196 -0.044865
v -0.066723 0.370041 -0.042751
v -0.065422 0.374679 -0.043060
v -0.066759 0.371000 -0.044943
v -0.065328 0.375089 -0.044883
v -0.064701 0.381512 -0.046459
v -0.064402 0.381358 -0.046585
v -0.066195 0.368392 -0.042790
v -0.064091 0.381493 -0.045896
v -0.064434 0.378896 -0.045672
v -0.064309 0.378972 -0.044086
v -0.066827 0.432164 -0.059820
v -0.066768 0.432098 -0.059865
v -0.066483 0.431962 -0.059554
v -0.066362 0.433011 -0.060189
v -0.066518 0.432015 -0.059518
v -0.065851 0.369591 -0.043467
v -0.064553 0.374245 -0.043888
v -0.065786 0.430869 -0.060276
v -0.066295 0.432943 -0.060231
v -0.065548 0.430755 -0.060776
v -0.065919 0.368672 -0.041312
v -0.064609 0.373707 -0.041906
v -0.063749 0.381524 -0.045521
v -0.065749 0.432041 -0.058567
v -0.065623 0.433067 -0.059181
v -0.065781 0.432097 -0.058517
v -0.065096 0.430889 -0.059576
v -0.063886 0.381285 -0.046447
v -0.065956 0.433796 -0.060165
v -0.065875 0.433727 -0.060212
v -0.064936 0.431557 -0.061090
v -0.063462 0.381472 -0.045063
v -0.065658 0.366807 -0.041013
v -0.063631 0.378553 -0.044857
v -0.063637 0.378390 -0.043196
v -0.063320 0.381413 -0.044836
v -0.063399 0.381203 -0.046221
v -0.065469 0.434491 -0.060051
v -0.065155 0.433680 -0.059076
v -0.065358 0.367691 -0.040086
v -0.063953 0.372776 -0.040646
v -0.065375 0.434424 -0.060101
v -0.064223 0.432318 -0.061159
v -0.065051 0.368167 -0.041971
v -0.063748 0.373236 -0.042671
v -0.063174 0.381331 -0.044593
v -0.064883 0.429804 -0.060706
v -0.064379 0.429855 -0.060210
v -0.065391 0.432260 -0.058270
v -0.065345 0.432216 -0.058322
v -0.065043 0.365913 -0.039562
v -0.063011 0.381088 -0.045908
v -0.064750 0.429706 -0.061162
v -0.064941 0.435198 -0.059882
v -0.064682 0.434359 -0.058956
v -0.062991 0.377822 -0.042274
v -0.064928 0.432836 -0.058167
v -0.064838 0.435129 -0.059936
v -0.063466 0.433058 -0.061115
v -0.064816 0.366803 -0.038722
v -0.063457 0.371817 -0.039504
v -0.064388 0.431307 -0.059370
v -0.064875 0.432795 -0.058220
v -0.062920 0.377977 -0.043938
v -0.062637 0.380980 -0.045570
v -0.065057 0.364968 -0.038098
v -0.064627 0.367069 -0.040646
v -0.064503 0.365266 -0.036883
v -0.064245 0.366083 -0.039232
v -0.064614 0.363422 -0.035830
v -0.063073 0.372238 -0.041366
v -0.062691 0.381192 -0.043950
v -0.064026 0.430565 -0.061552
v -0.064463 0.433480 -0.058024
v -0.063996 0.436173 -0.059637
v -0.064156 0.434991 -0.058745
v -0.063813 0.428154 -0.061100
v -0.063346 0.428263 -0.060759
v -0.064399 0.433441 -0.058083
v -0.063792 0.431960 -0.059313
v -0.063897 0.436106 -0.059703
v -0.062728 0.433738 -0.061048
v -0.063049 0.370965 -0.038223
v -0.062870 0.429019 -0.062049
v -0.063697 0.428045 -0.061562
v -0.061860 0.382830 -0.045716
v -0.062058 0.383138 -0.045562
v -0.062602 0.371312 -0.040083
v -0.064178 0.363938 -0.034907
v -0.064256 0.361732 -0.034050
v -0.063822 0.364863 -0.037241
v -0.062343 0.377276 -0.041262
v -0.062235 0.377416 -0.042991
v -0.062767 0.369907 -0.036815
v -0.063975 0.434120 -0.057851
v -0.062036 0.380720 -0.044908
v -0.063903 0.434084 -0.057917
v -0.063101 0.432646 -0.059288
v -0.063762 0.430572 -0.060136
v -0.062593 0.429100 -0.060612
v -0.062228 0.381065 -0.043314
v -0.064177 0.362458 -0.033481
v -0.064111 0.360276 -0.032454
v -0.063367 0.363466 -0.035456
v -0.062197 0.370408 -0.038756
v -0.063228 0.431382 -0.061617
v -0.062504 0.368918 -0.035345
v -0.064068 0.361034 -0.032032
v -0.062466 0.367872 -0.034181
v -0.063485 0.435848 -0.058723
v -0.063886 0.358612 -0.030945
v -0.063398 0.361955 -0.034016
v -0.061486 0.383590 -0.044706
v -0.063950 0.359351 -0.030765
v -0.062353 0.366908 -0.032954
v -0.061943 0.429990 -0.062102
v -0.063045 0.437005 -0.059429
v -0.063295 0.434878 -0.057686
v -0.063740 0.356834 -0.029547
v -0.063546 0.357355 -0.029450
v -0.063775 0.357566 -0.029564
v -0.062294 0.365928 -0.031908
v -0.061739 0.376747 -0.040217
v -0.063219 0.434841 -0.057756
v -0.062425 0.433333 -0.059268
v -0.062948 0.436943 -0.059496
v -0.061875 0.434735 -0.061039
v -0.063417 0.360486 -0.032552
v -0.061289 0.382772 -0.045582
v -0.061911 0.369415 -0.037303
v -0.062915 0.426638 -0.061434
v -0.062237 0.426536 -0.060926
v -0.063079 0.431237 -0.060067
v -0.061586 0.364729 -0.031063
v -0.061841 0.429962 -0.060537
v -0.063684 0.356853 -0.029666
v -0.063494 0.358750 -0.031080
v -0.061586 0.376830 -0.041954
v -0.061325 0.383614 -0.044186
v -0.062613 0.426392 -0.061914
v -0.061665 0.427491 -0.062359
v -0.062164 0.362424 -0.029981
v -0.061539 0.365475 -0.032129
v -0.061632 0.364495 -0.030940
v -0.061781 0.380734 -0.042604
v -0.061457 0.380479 -0.044225
v -0.061563 0.366480 -0.033342
v -0.062616 0.436643 -0.058673
v -0.061297 0.375933 -0.039039
v -0.061129 0.383617 -0.043687
v -0.062416 0.432190 -0.061613
v -0.061650 0.367459 -0.034585
v -0.061690 0.368461 -0.035813
v -0.060796 0.382764 -0.045304
v -0.061408 0.427577 -0.060775
v -0.061042 0.383589 -0.043432
v -0.062555 0.435554 -0.057621
v -0.061044 0.430939 -0.062154
v -0.062477 0.435522 -0.057691
v -0.061660 0.434095 -0.059189
v -0.060951 0.383558 -0.043179
v -0.062263 0.431971 -0.059996
v -0.061023 0.376270 -0.040842
v -0.060943 0.430835 -0.060481
v -0.060901 0.375136 -0.037833
v -0.062086 0.437584 -0.059226
v -0.062172 0.437631 -0.059172
v -0.060414 0.382743 -0.044983
v -0.061334 0.380400 -0.041886
v -0.060322 0.436626 -0.060340
v -0.060981 0.435684 -0.060873
v -0.060941 0.380121 -0.043467
v -0.061690 0.424000 -0.061414
v -0.061004 0.423992 -0.060816
v -0.060644 0.428591 -0.062532
v -0.060603 0.374563 -0.036826
v -0.061596 0.432985 -0.061563
v -0.060734 0.383485 -0.042696
v -0.060044 0.382733 -0.044647
v -0.061456 0.423790 -0.061849
v -0.060305 0.425226 -0.062539
v -0.061679 0.437423 -0.058434
v -0.060488 0.375483 -0.039599
v -0.060578 0.428627 -0.060705
v -0.061798 0.436189 -0.057667
v -0.061868 0.436214 -0.057605
v -0.060322 0.374010 -0.035801
v -0.060379 0.435667 -0.058928
v -0.060891 0.434868 -0.059116
v -0.060077 0.373481 -0.034843
v -0.060133 0.431859 -0.062126
v -0.061448 0.432706 -0.059926
v -0.059813 0.372962 -0.033883
v -0.060846 0.379978 -0.041035
v -0.059642 0.372545 -0.033177
v -0.060050 0.431715 -0.060457
v -0.060447 0.379777 -0.042691
v -0.060530 0.383417 -0.042206
v -0.060096 0.425394 -0.060596
v -0.060062 0.374746 -0.038295
v -0.058551 0.371945 -0.032288
v -0.059451 0.372130 -0.032476
v -0.059354 0.370019 -0.031859
v -0.061406 0.437952 -0.058798
v -0.061489 0.437987 -0.058763
v -0.059722 0.437227 -0.059510
v -0.060098 0.384896 -0.045213
v -0.060398 0.384788 -0.045019
v -0.059655 0.382562 -0.044128
v -0.059634 0.429648 -0.062503
v -0.059769 0.374192 -0.037215
v -0.060597 0.433971 -0.061597
v -0.061246 0.436799 -0.057655
v -0.061172 0.437979 -0.058286
v -0.061311 0.436816 -0.057600
v -0.059596 0.429649 -0.060707
v -0.059926 0.436446 -0.058785
v -0.060289 0.383305 -0.041691
v -0.060421 0.379584 -0.040162
v -0.059483 0.373654 -0.036123
v -0.060531 0.421201 -0.061100
v -0.059874 0.421440 -0.060389
v -0.059213 0.373167 -0.035110
v -0.059077 0.426683 -0.062648
v -0.060530 0.433460 -0.059798
v -0.058738 0.372317 -0.033190
v -0.059978 0.379340 -0.041788
v -0.059020 0.432979 -0.062229
v -0.058951 0.372701 -0.034081
v -0.059993 0.385619 -0.044548
v -0.059279 0.382402 -0.043596
v -0.060215 0.421237 -0.061643
v -0.058906 0.422946 -0.062344
v -0.059000 0.432650 -0.060470
v -0.059133 0.426796 -0.060559
v -0.061123 0.437949 -0.058317
v -0.060068 0.383200 -0.041166
v -0.059865 0.385823 -0.044102
v -0.060000 0.379038 -0.039120
v -0.059622 0.384982 -0.045318
v -0.060117 0.437337 -0.058947
v -0.059681 0.385994 -0.043661
v -0.059581 0.386068 -0.043451
v -0.058632 0.430711 -0.062541
v -0.059539 0.378924 -0.040858
v -0.058819 0.423220 -0.060183
v -0.059570 0.434907 -0.061500
v -0.059049 0.435956 -0.060941
v -0.058928 0.382242 -0.043029
v -0.059480 0.386142 -0.043241
v -0.058616 0.430672 -0.060712
v -0.059642 0.378533 -0.038100
v -0.059601 0.434214 -0.059646
v -0.059222 0.435124 -0.059459
v -0.059798 0.382923 -0.040484
v -0.059157 0.385050 -0.045208
v -0.059280 0.386191 -0.042783
v -0.057917 0.428107 -0.062698
v -0.059341 0.377967 -0.037117
v -0.057877 0.434087 -0.062088
v -0.058025 0.428201 -0.060652
v -0.059079 0.386243 -0.042312
v -0.059262 0.416722 -0.059991
v -0.058599 0.417064 -0.059377
v -0.057929 0.433575 -0.060401
v -0.059141 0.378412 -0.039741
v -0.058584 0.382087 -0.042457
v -0.059525 0.382646 -0.039803
v -0.058741 0.385104 -0.045014
v -0.058464 0.387120 -0.045246
v -0.058993 0.387102 -0.044973
v -0.058853 0.436017 -0.059310
v -0.059034 0.377398 -0.036157
v -0.058522 0.436678 -0.059985
v -0.057509 0.424768 -0.062456
v -0.058861 0.386202 -0.041745
v -0.059135 0.416689 -0.060387
v -0.057405 0.431978 -0.062587
v -0.058916 0.436709 -0.059300
v -0.057714 0.424981 -0.060174
v -0.058809 0.376862 -0.035357
v -0.058764 0.377913 -0.038612
v -0.058627 0.386154 -0.041185
v -0.058358 0.385181 -0.044747
v -0.057431 0.431757 -0.060775
v -0.059173 0.382344 -0.038964
v -0.058743 0.387829 -0.044459
v -0.058257 0.381789 -0.041714
v -0.058697 0.388214 -0.044036
v -0.058593 0.376320 -0.034549
v -0.058373 0.386025 -0.040495
v -0.058482 0.377362 -0.037534
v -0.058485 0.388533 -0.043571
v -0.057923 0.385104 -0.044273
v -0.058420 0.375857 -0.033873
v -0.058815 0.382041 -0.038128
v -0.056733 0.429531 -0.062736
v -0.057917 0.387170 -0.045373
v -0.056904 0.429612 -0.060802
v -0.057483 0.434587 -0.060111
v -0.058375 0.388710 -0.043405
v -0.057376 0.435322 -0.061441
v -0.057960 0.381512 -0.040952
v -0.058102 0.385887 -0.039809
v -0.058201 0.376813 -0.036455
v -0.058247 0.388880 -0.043243
v -0.058223 0.375383 -0.033209
v -0.058283 0.373586 -0.032594
v -0.058483 0.381446 -0.037245
v -0.057519 0.385049 -0.043769
v -0.058003 0.389006 -0.042803
v -0.058224 0.412317 -0.058342
v -0.057598 0.412826 -0.057750
v -0.057964 0.376323 -0.035498
v -0.057041 0.435558 -0.059782
v -0.057772 0.385689 -0.039008
v -0.057460 0.387298 -0.045247
v -0.057598 0.381207 -0.040022
v -0.057778 0.418532 -0.061281
v -0.057890 0.412323 -0.058750
v -0.056469 0.426798 -0.060332
v -0.057746 0.389126 -0.042368
v -0.056176 0.426565 -0.062558
v -0.056880 0.436177 -0.060412
v -0.058122 0.380846 -0.036377
v -0.056174 0.433244 -0.062613
v -0.057702 0.389585 -0.045572
v -0.057231 0.389513 -0.045917
v -0.056233 0.432835 -0.060749
v -0.057714 0.375831 -0.034549
v -0.057140 0.384936 -0.043191
v -0.057307 0.436161 -0.059891
v -0.057453 0.389111 -0.041791
v -0.057868 0.380283 -0.035757
v -0.057431 0.385486 -0.038209
v -0.057587 0.419054 -0.059418
v -0.057249 0.380910 -0.039085
v -0.057582 0.375271 -0.033745
v -0.057069 0.387465 -0.045044
v -0.057814 0.390374 -0.044949
v -0.057746 0.390721 -0.044568
v -0.057154 0.389091 -0.041218
v -0.055314 0.431075 -0.062820
v -0.055472 0.431040 -0.060794
v -0.057652 0.379729 -0.035116
v -0.056774 0.384832 -0.042602
v -0.057494 0.374733 -0.032920
v -0.057020 0.380361 -0.038000
v -0.057161 0.385041 -0.037405
v -0.057542 0.391020 -0.044174
v -0.057434 0.379209 -0.034487
v -0.056803 0.389050 -0.040573
v -0.057384 0.391275 -0.043969
v -0.056678 0.387632 -0.044841
v -0.057220 0.378690 -0.033854
v -0.057241 0.376676 -0.033086
v -0.056409 0.384648 -0.041900
v -0.057181 0.391509 -0.043780
v -0.057109 0.407600 -0.056324
v -0.056640 0.407991 -0.055778
v -0.056805 0.379820 -0.036907
v -0.056843 0.384630 -0.036607
v -0.056430 0.388995 -0.039942
v -0.055228 0.428619 -0.060464
v -0.056889 0.391736 -0.043372
v -0.056641 0.379354 -0.035988
v -0.056052 0.384469 -0.041193
v -0.056200 0.387650 -0.044407
v -0.056834 0.389601 -0.046065
v -0.054842 0.428362 -0.062668
v -0.055726 0.433965 -0.060448
v -0.056538 0.414288 -0.059700
v -0.056918 0.407574 -0.056588
v -0.055656 0.409464 -0.057605
v -0.056617 0.384226 -0.035979
v -0.055703 0.434652 -0.062001
v -0.057048 0.392968 -0.045486
v -0.056943 0.391867 -0.046535
v -0.056070 0.388864 -0.039222
v -0.056305 0.420547 -0.061555
v -0.056564 0.391946 -0.042978
v -0.056884 0.393255 -0.045117
v -0.056471 0.378883 -0.035072
v -0.056545 0.421024 -0.059376
v -0.056226 0.391830 -0.047156
v -0.056350 0.383793 -0.035366
v -0.055665 0.384238 -0.040353
v -0.056468 0.414914 -0.058261
v -0.055721 0.410003 -0.056396
v -0.056471 0.378190 -0.034319
v -0.056624 0.393517 -0.044772
v -0.055768 0.387702 -0.043935
v -0.056532 0.377527 -0.033537
v -0.055214 0.435048 -0.060030
v -0.056310 0.389718 -0.045983
v -0.056248 0.392050 -0.042489
v -0.056086 0.383389 -0.034809
v -0.055690 0.388720 -0.038517
v -0.054114 0.432461 -0.060684
v -0.053905 0.432673 -0.062746
v -0.056386 0.393834 -0.044537
v -0.055255 0.435618 -0.060824
v -0.055531 0.435586 -0.060255
v -0.055604 0.382885 -0.034183
v -0.055221 0.382062 -0.033926
v -0.055290 0.384016 -0.039505
v -0.056114 0.394137 -0.044318
v -0.055402 0.388456 -0.037833
v -0.055915 0.392146 -0.042007
v -0.055365 0.387640 -0.043342
v -0.056128 0.402930 -0.053791
v -0.055824 0.403372 -0.053237
v -0.055815 0.389886 -0.045777
v -0.056561 0.394144 -0.047993
v -0.056715 0.395469 -0.047058
v -0.055024 0.383622 -0.038547
v -0.055979 0.394396 -0.048617
v -0.055787 0.402993 -0.054139
v -0.054699 0.404707 -0.055228
v -0.053630 0.430317 -0.060492
v -0.055758 0.394456 -0.043948
v -0.056428 0.396324 -0.046861
v -0.055095 0.388179 -0.037162
v -0.055637 0.391863 -0.047123
v -0.054786 0.383249 -0.037574
v -0.055486 0.392234 -0.041380
v -0.054963 0.387577 -0.042749
v -0.053226 0.430203 -0.062756
v -0.056347 0.396769 -0.049624
v -0.056473 0.397991 -0.048622
v -0.055313 0.390069 -0.045536
v -0.054571 0.382917 -0.036587
v -0.055043 0.405345 -0.053976
v -0.054856 0.387897 -0.036605
v -0.055964 0.397149 -0.046686
v -0.055374 0.394761 -0.043593
v -0.055734 0.396906 -0.050163
v -0.054585 0.382160 -0.034868
v -0.054899 0.381771 -0.034146
v -0.055174 0.416386 -0.060343
v -0.054437 0.411442 -0.058350
v -0.055372 0.417065 -0.058592
v -0.055483 0.422676 -0.059254
v -0.054421 0.382628 -0.035580
v -0.055678 0.399305 -0.048721
v -0.056184 0.399989 -0.051606
v -0.055938 0.400630 -0.050959
v -0.054745 0.412013 -0.057067
v -0.055071 0.392329 -0.040746
v -0.054535 0.387488 -0.042104
v -0.055440 0.397903 -0.046659
v -0.054589 0.387596 -0.036069
v -0.055674 0.400043 -0.051987
v -0.055098 0.392020 -0.046908
v -0.055038 0.422216 -0.061551
v -0.055009 0.394972 -0.043204
v -0.053820 0.433686 -0.060342
v -0.054829 0.390178 -0.045172
v -0.053714 0.434268 -0.062253
v -0.054860 0.398644 -0.046672
v -0.054248 0.387286 -0.035526
v -0.054700 0.392257 -0.040066
v -0.054120 0.387407 -0.041451
v -0.055103 0.394831 -0.048940
v -0.054720 0.400466 -0.048950
v -0.055167 0.402118 -0.051577
v -0.054662 0.395193 -0.042804
v -0.054495 0.392236 -0.046603
v -0.054674 0.401286 -0.052933
v -0.054408 0.390337 -0.044758
v -0.054295 0.399031 -0.046416
v -0.054605 0.397844 -0.050694
v -0.054201 0.407192 -0.054875
v -0.053543 0.434769 -0.060004
v -0.053557 0.435343 -0.061085
v -0.054315 0.392178 -0.039399
v -0.053710 0.387254 -0.040697
v -0.053755 0.406674 -0.055951
v -0.053847 0.386932 -0.035050
v -0.053534 0.435322 -0.060434
v -0.054120 0.395385 -0.042222
v -0.054399 0.418517 -0.058517
v -0.054400 0.424344 -0.059220
v -0.052052 0.432064 -0.060168
v -0.053814 0.401483 -0.049265
v -0.053834 0.391996 -0.038546
v -0.053964 0.390395 -0.044225
v -0.053693 0.399428 -0.046191
v -0.053636 0.413414 -0.057320
v -0.053929 0.392487 -0.046255
v -0.051611 0.432058 -0.062559
v -0.053307 0.387105 -0.039939
v -0.053464 0.386309 -0.034728
v -0.054267 0.403569 -0.052154
v -0.053946 0.417901 -0.060345
v -0.053145 0.412873 -0.058600
v -0.053350 0.391813 -0.037704
v -0.054303 0.395434 -0.049009
v -0.053639 0.395625 -0.041592
v -0.053804 0.423899 -0.061427
v -0.052990 0.386858 -0.039115
v -0.053043 0.399688 -0.045729
v -0.053513 0.390449 -0.043696
v -0.052619 0.386108 -0.035354
v -0.053181 0.385976 -0.034739
v -0.052995 0.391659 -0.037138
v -0.052906 0.402498 -0.049583
v -0.053458 0.392704 -0.045944
v -0.052703 0.386631 -0.038274
v -0.053032 0.408563 -0.055331
v -0.053290 0.395631 -0.040936
v -0.053618 0.402755 -0.053545
v -0.053545 0.398892 -0.051047
v -0.052377 0.399940 -0.045274
v -0.052321 0.386343 -0.036088
v -0.052619 0.391493 -0.036578
v -0.052408 0.386416 -0.037219
v -0.052995 0.390465 -0.043051
v -0.053483 0.396099 -0.048977
v -0.052538 0.408032 -0.056288
v -0.053005 0.392939 -0.045613
v -0.053450 0.419979 -0.058358
v -0.052536 0.414936 -0.057363
v -0.052848 0.426075 -0.059154
v -0.052927 0.395630 -0.040288
v -0.052193 0.403005 -0.049396
v -0.053210 0.404799 -0.052570
v -0.052206 0.391252 -0.036033
v -0.052521 0.390513 -0.042374
v -0.051782 0.400120 -0.044809
v -0.051942 0.433328 -0.059930
v -0.052519 0.393118 -0.045140
v -0.052721 0.419418 -0.060338
v -0.051928 0.414363 -0.058657
v -0.052672 0.396778 -0.048938
v -0.051615 0.433630 -0.062398
v -0.051785 0.391011 -0.035621
v -0.052384 0.395596 -0.039185
v -0.052229 0.425747 -0.061273
v -0.051854 0.434584 -0.059630
v -0.052564 0.404074 -0.053711
v -0.052077 0.390435 -0.041661
v -0.051855 0.435099 -0.061359
v -0.051486 0.403517 -0.049205
v -0.051231 0.400333 -0.044330
v -0.051911 0.410029 -0.055630
v -0.052586 0.400095 -0.051177
v -0.051725 0.435425 -0.060224
v -0.052023 0.393290 -0.044674
v -0.051495 0.390395 -0.035432
v -0.052020 0.397146 -0.048636
v -0.052053 0.421807 -0.057998
v -0.051073 0.416642 -0.057009
v -0.051824 0.395552 -0.038090
v -0.051645 0.390366 -0.040938
v -0.050526 0.400437 -0.043505
v -0.052182 0.406024 -0.052873
v -0.050791 0.390182 -0.035688
v -0.051126 0.390175 -0.035457
v -0.051386 0.409501 -0.056442
v -0.050612 0.403898 -0.048622
v -0.051139 0.390200 -0.039910
v -0.051449 0.393438 -0.044001
v -0.051443 0.395568 -0.037423
v -0.051384 0.397498 -0.048348
v -0.049851 0.400549 -0.042678
v -0.051317 0.427824 -0.058986
v -0.051217 0.421277 -0.059969
v -0.050335 0.416035 -0.058501
v -0.050685 0.390073 -0.038845
v -0.051633 0.401304 -0.051298
v -0.050383 0.390154 -0.036486
v -0.051038 0.395571 -0.036771
v -0.051457 0.405339 -0.053960
v -0.050465 0.411534 -0.055425
v -0.050900 0.393604 -0.043312
v -0.050709 0.397786 -0.047783
v -0.050352 0.390014 -0.037661
v -0.048932 0.400590 -0.041148
v -0.049742 0.404282 -0.048035
v -0.050612 0.427541 -0.061210
v -0.050685 0.395461 -0.036021
v -0.050993 0.406935 -0.052732
v -0.050459 0.393627 -0.042614
v -0.050659 0.423636 -0.057633
v -0.049828 0.418356 -0.056469
v -0.050068 0.433726 -0.059159
v -0.049808 0.432759 -0.059169
v -0.050010 0.398051 -0.047234
v -0.050842 0.401803 -0.051082
v -0.050345 0.434675 -0.059108
v -0.049915 0.410991 -0.056320
v -0.049841 0.435812 -0.059952
v -0.050191 0.435255 -0.060964
v -0.048096 0.400732 -0.039569
v -0.050320 0.395346 -0.035280
v -0.049158 0.404534 -0.047633
v -0.050036 0.393662 -0.041904
v -0.049498 0.434140 -0.061784
v -0.049033 0.432779 -0.061821
v -0.049477 0.394645 -0.034476
v -0.049900 0.407861 -0.052537
v -0.048877 0.408339 -0.051768
v -0.049413 0.398244 -0.046672
v -0.047606 0.400763 -0.038199
v -0.050285 0.406303 -0.053830
v -0.050055 0.402305 -0.050862
v -0.049284 0.428309 -0.058144
v -0.048575 0.404786 -0.047230
v -0.049715 0.423138 -0.059594
v -0.048982 0.417787 -0.058054
v -0.049363 0.393595 -0.040654
v -0.048487 0.393988 -0.035591
v -0.049077 0.394385 -0.034529
v -0.049158 0.413109 -0.055042
v -0.047104 0.400797 -0.036828
v -0.048795 0.398421 -0.046123
v -0.048243 0.393856 -0.036818
v -0.049044 0.402579 -0.050326
v -0.048795 0.393595 -0.039359
v -0.046931 0.400566 -0.035536
v -0.048938 0.423981 -0.056820
v -0.047962 0.408773 -0.051034
v -0.048421 0.428064 -0.060386
v -0.047578 0.405018 -0.046211
v -0.048055 0.398564 -0.045171
v -0.048392 0.393654 -0.038099
v -0.048524 0.412539 -0.056081
v -0.048900 0.434794 -0.058468
v -0.048369 0.436322 -0.059407
v -0.046750 0.400323 -0.034244
v -0.049147 0.407303 -0.053649
v -0.048520 0.435566 -0.060696
v -0.048268 0.434112 -0.058246
v -0.048089 0.407647 -0.053025
v -0.047336 0.398722 -0.044218
v -0.048113 0.402917 -0.049707
v -0.048074 0.413533 -0.054229
v -0.046584 0.405254 -0.045190
v -0.048426 0.418745 -0.055662
v -0.047646 0.433429 -0.058003
v -0.047199 0.409201 -0.050446
v -0.047942 0.423458 -0.058744
v -0.047463 0.434618 -0.061008
v -0.045995 0.399865 -0.032818
v -0.047445 0.403122 -0.049293
v -0.046387 0.398829 -0.042427
v -0.047340 0.428836 -0.057162
v -0.046480 0.409545 -0.049840
v -0.047406 0.412937 -0.055384
v -0.044661 0.399064 -0.035034
v -0.045428 0.399365 -0.032979
v -0.047044 0.407990 -0.052411
v -0.046541 0.433488 -0.060868
v -0.047562 0.418157 -0.057238
v -0.045252 0.405361 -0.043221
v -0.047255 0.424343 -0.055941
v -0.047261 0.437073 -0.058984
v -0.047875 0.435504 -0.057952
v -0.047025 0.413971 -0.053378
v -0.045483 0.398970 -0.040623
v -0.046825 0.403369 -0.048825
v -0.047578 0.436147 -0.060186
v -0.044458 0.399138 -0.036789
v -0.047058 0.419134 -0.054774
v -0.046318 0.428606 -0.059455
v -0.044844 0.398952 -0.038738
v -0.046838 0.435242 -0.057544
v -0.046126 0.408268 -0.051912
v -0.044073 0.405609 -0.041163
v -0.046300 0.413342 -0.054672
v -0.045718 0.403570 -0.047697
v -0.046046 0.414381 -0.052661
v -0.046212 0.423796 -0.057812
v -0.046269 0.437942 -0.058558
v -0.046810 0.436200 -0.057508
v -0.045814 0.434996 -0.057129
v -0.043399 0.405627 -0.039082
v -0.045257 0.409765 -0.048483
v -0.046145 0.435623 -0.060379
v -0.046660 0.436826 -0.059805
v -0.046140 0.418520 -0.056405
v -0.045207 0.408545 -0.051408
v -0.044687 0.403829 -0.046503
v -0.045645 0.429950 -0.056449
v -0.045788 0.424992 -0.055223
v -0.045100 0.414804 -0.051906
v -0.042930 0.405800 -0.036967
v -0.045841 0.419664 -0.054062
v -0.045148 0.413705 -0.054056
v -0.042988 0.405502 -0.035122
v -0.045382 0.436384 -0.056900
v -0.043660 0.441428 -0.058289
v -0.043680 0.439967 -0.056726
v -0.044644 0.439773 -0.057425
v -0.043004 0.405174 -0.033282
v -0.044266 0.439940 -0.058690
v -0.044780 0.436680 -0.059911
v -0.043088 0.440104 -0.059212
v -0.044019 0.410004 -0.047095
v -0.044729 0.434939 -0.060180
v -0.043267 0.403963 -0.044269
v -0.044585 0.429603 -0.058888
v -0.044842 0.419016 -0.055719
v -0.044706 0.424420 -0.057053
v -0.043971 0.414052 -0.053480
v -0.044613 0.420186 -0.053337
v -0.042345 0.405103 -0.032309
v -0.044325 0.425644 -0.054496
v -0.043918 0.436564 -0.056392
v -0.043977 0.431050 -0.055701
v -0.043726 0.408709 -0.049901
v -0.041995 0.404201 -0.041959
v -0.040938 0.404293 -0.034374
v -0.042082 0.404664 -0.032305
v -0.042687 0.440133 -0.056029
v -0.042601 0.410037 -0.045034
v -0.043445 0.414921 -0.050353
v -0.043466 0.419482 -0.055126
v -0.041138 0.404177 -0.039392
v -0.043120 0.425000 -0.056470
v -0.042899 0.436396 -0.059557
v -0.041669 0.440007 -0.059241
v -0.042863 0.430613 -0.058275
v -0.042393 0.408939 -0.048355
v -0.040623 0.404382 -0.036757
v -0.042226 0.443477 -0.056346
v -0.042755 0.443706 -0.058153
v -0.042583 0.443422 -0.057264
v -0.042742 0.420260 -0.051898
v -0.042263 0.425704 -0.053129
v -0.042446 0.443540 -0.058684
v -0.041495 0.443278 -0.059035
v -0.041354 0.410203 -0.042847
v -0.041928 0.415110 -0.048654
v -0.042029 0.414056 -0.051888
v -0.041596 0.431060 -0.054176
v -0.041378 0.436617 -0.054868
v -0.041618 0.443627 -0.055544
v -0.041233 0.419451 -0.053708
v -0.040602 0.410283 -0.040515
v -0.040837 0.408970 -0.046071
v -0.040710 0.424966 -0.055117
v -0.040396 0.443246 -0.059212
v -0.039962 0.410300 -0.036267
v -0.039957 0.410062 -0.034567
v -0.040113 0.410311 -0.038006
v -0.040086 0.430650 -0.056647
v -0.039456 0.436311 -0.058423
v -0.042694 0.443858 -0.058144
v -0.042324 0.443780 -0.058684
v -0.040908 0.420396 -0.050280
v -0.041011 0.440236 -0.054502
v -0.042445 0.443665 -0.057253
v -0.041263 0.443441 -0.058133
v -0.041389 0.443489 -0.059023
v -0.040483 0.415111 -0.046564
v -0.042129 0.443712 -0.056320
v -0.040291 0.414178 -0.050075
v -0.039769 0.409809 -0.033320
v -0.040365 0.425837 -0.051513
v -0.041546 0.443860 -0.055511
v -0.040307 0.443245 -0.057408
v -0.037924 0.409082 -0.035376
v -0.039313 0.409507 -0.033139
v -0.039336 0.409064 -0.043707
v -0.038713 0.439883 -0.058818
v -0.040710 0.443609 -0.054509
v -0.039746 0.431244 -0.052037
v -0.040690 0.443834 -0.054509
v -0.038611 0.443472 -0.056278
v -0.040311 0.443462 -0.059210
v -0.039839 0.436675 -0.052246
v -0.039425 0.415303 -0.044291
v -0.039141 0.419489 -0.052004
v -0.038238 0.409033 -0.040848
v -0.040152 0.440258 -0.052658
v -0.037513 0.409235 -0.037826
v -0.039255 0.420432 -0.048020
v -0.038601 0.414126 -0.047742
v -0.038486 0.425028 -0.053506
v -0.039826 0.443912 -0.053353
v -0.039804 0.444155 -0.053399
v -0.036949 0.443866 -0.054896
v -0.038708 0.415392 -0.041660
v -0.037941 0.443152 -0.058008
v -0.038815 0.425957 -0.049171
v -0.037890 0.443370 -0.057954
v -0.038848 0.436829 -0.049728
v -0.039022 0.440550 -0.049968
v -0.038182 0.415551 -0.038975
v -0.037493 0.430757 -0.054809
v -0.038052 0.415146 -0.037329
v -0.037899 0.414733 -0.035687
v -0.038660 0.431408 -0.049494
v -0.038916 0.444623 -0.050419
v -0.038908 0.444894 -0.050449
v -0.035131 0.444472 -0.051848
v -0.037399 0.414734 -0.034493
v -0.036289 0.436397 -0.056355
v -0.038264 0.420644 -0.045519
v -0.037116 0.414194 -0.045279
v -0.035547 0.414304 -0.036538
v -0.036732 0.414664 -0.034376
v -0.037077 0.419517 -0.049476
v -0.037898 0.440844 -0.047272
v -0.037856 0.436983 -0.047211
v -0.037514 0.445024 -0.047586
v -0.037488 0.445303 -0.047607
v -0.033554 0.444870 -0.048804
v -0.037765 0.431559 -0.046915
v -0.037866 0.426133 -0.046558
v -0.037569 0.420821 -0.042653
v -0.035544 0.440032 -0.056816
v -0.035594 0.443746 -0.056496
v -0.035984 0.425125 -0.050931
v -0.035890 0.414214 -0.042144
v -0.036998 0.421010 -0.039782
v -0.036707 0.421031 -0.038198
v -0.035591 0.443514 -0.056516
v -0.035151 0.414470 -0.038857
v -0.036373 0.421016 -0.036741
v -0.036749 0.440947 -0.044564
v -0.036238 0.445177 -0.044670
v -0.037042 0.426344 -0.043543
v -0.036867 0.431766 -0.044115
v -0.036876 0.437186 -0.044634
v -0.036204 0.445459 -0.044677
v -0.034817 0.430820 -0.052217
v -0.032446 0.444976 -0.045399
v -0.035853 0.421104 -0.035685
v -0.035341 0.419701 -0.046759
v -0.036363 0.426566 -0.040494
v -0.033431 0.444354 -0.053534
v -0.036074 0.431973 -0.041286
v -0.035628 0.441050 -0.041845
v -0.035947 0.437393 -0.042039
v -0.034996 0.445274 -0.041823
v -0.034900 0.420449 -0.035488
v -0.033902 0.420085 -0.037155
v -0.036078 0.426409 -0.039014
v -0.035721 0.426641 -0.037570
v -0.033743 0.436579 -0.053415
v -0.034954 0.445556 -0.041822
v -0.031762 0.445124 -0.041932
v -0.035655 0.432011 -0.039563
v -0.033923 0.425371 -0.048062
v -0.035309 0.437619 -0.040094
v -0.034981 0.441232 -0.040090
v -0.033971 0.419754 -0.043372
v -0.035032 0.426517 -0.036149
v -0.035196 0.432045 -0.037851
v -0.034249 0.445283 -0.040215
v -0.033409 0.444101 -0.053548
v -0.033075 0.440318 -0.053754
v -0.033463 0.420142 -0.039726
v -0.034649 0.437844 -0.038155
v -0.034315 0.441411 -0.038343
v -0.034205 0.432311 -0.036515
v -0.031571 0.444769 -0.050300
v -0.033822 0.426094 -0.036293
v -0.034200 0.445553 -0.040223
v -0.033582 0.445176 -0.038607
v -0.031782 0.445110 -0.039675
v -0.032710 0.425911 -0.037935
v -0.032706 0.431100 -0.049188
v -0.033701 0.437915 -0.036953
v -0.033299 0.441741 -0.037126
v -0.033534 0.445427 -0.038626
v -0.032981 0.431983 -0.036875
v -0.032380 0.445167 -0.037242
v -0.032370 0.425453 -0.044512
v -0.032075 0.425888 -0.040622
v -0.031715 0.431764 -0.038696
v -0.031700 0.436900 -0.050172
v -0.032459 0.437709 -0.037153
v -0.032434 0.444952 -0.037232
v -0.030606 0.444903 -0.046626
v -0.031550 0.444517 -0.050308
v -0.031230 0.440738 -0.050429
v -0.032137 0.441399 -0.037279
v -0.030897 0.437608 -0.039685
v -0.031078 0.431716 -0.041552
v -0.031301 0.431313 -0.045421
v -0.030453 0.445042 -0.042490
v -0.031965 0.444806 -0.037144
v -0.031965 0.445033 -0.037148
v -0.030610 0.441345 -0.039808
v -0.030590 0.444796 -0.039957
v -0.030592 0.445026 -0.039972
v -0.030338 0.437573 -0.042515
v -0.030558 0.437189 -0.046387
v -0.030241 0.441026 -0.046531
v -0.030583 0.444661 -0.046620
v -0.030067 0.441350 -0.042638
v -0.030429 0.444812 -0.042499
usemtl Semimembranosus_muscle_tendon_rMaterial0
f 1 2 3
f 3 2 4
f 1 5 2
f 2 6 4
f 5 7 2
f 2 7 6
f 8 1 3
f 3 4 9
f 10 3 9
f 8 3 10
f 8 5 1
f 11 9 4
f 12 4 6
f 11 4 12
f 10 9 11
f 5 13 7
f 14 13 5
f 8 14 5
f 7 15 6
f 13 16 7
f 7 16 15
f 17 6 15
f 12 6 17
f 13 18 16
f 19 18 13
f 14 19 13
f 16 20 15
f 21 15 20
f 17 15 21
f 16 22 20
f 18 22 16
f 22 23 20
f 24 20 23
f 21 20 24
f 18 25 22
f 26 25 18
f 19 26 18
f 25 27 22
f 22 27 23
f 25 28 27
f 29 28 25
f 26 29 25
f 27 30 23
f 31 23 30
f 24 23 31
f 32 10 11
f 33 8 10
f 33 10 32
f 28 34 27
f 27 34 30
f 35 11 12
f 32 11 35
f 33 14 8
f 28 36 34
f 37 36 28
f 29 37 28
f 38 12 17
f 35 12 38
f 34 39 30
f 40 30 39
f 31 30 40
f 41 19 14
f 33 41 14
f 36 42 34
f 34 42 39
f 43 17 21
f 38 17 43
f 44 21 24
f 43 21 44
f 45 26 19
f 41 45 19
f 36 46 42
f 47 46 36
f 37 47 36
f 42 48 39
f 49 39 48
f 40 39 49
f 50 24 31
f 44 24 50
f 51 29 26
f 45 51 26
f 42 52 48
f 46 52 42
f 53 37 29
f 51 53 29
f 54 31 40
f 50 31 54
f 52 55 48
f 56 48 55
f 49 48 56
f 46 57 52
f 58 57 46
f 47 58 46
f 59 32 35
f 60 33 32
f 60 32 59
f 57 61 52
f 52 61 55
f 62 35 38
f 59 35 62
f 63 47 37
f 53 63 37
f 64 40 49
f 54 40 64
f 60 41 33
f 65 66 67
f 68 66 65
f 65 67 69
f 68 65 69
f 57 70 61
f 71 70 57
f 58 71 57
f 66 72 67
f 68 73 66
f 73 74 66
f 66 74 72
f 61 75 55
f 76 55 75
f 56 55 76
f 77 38 43
f 62 38 77
f 69 67 78
f 68 69 79
f 69 78 80
f 79 69 80
f 67 72 81
f 67 81 78
f 82 45 41
f 60 82 41
f 83 73 68
f 83 68 79
f 83 84 73
f 84 85 73
f 73 85 74
f 86 43 44
f 77 43 86
f 61 87 75
f 70 87 61
f 88 58 47
f 63 88 47
f 89 49 56
f 64 49 89
f 90 44 50
f 86 44 90
f 91 51 45
f 82 91 45
f 92 84 83
f 83 79 93
f 92 83 93
f 87 94 75
f 95 75 94
f 76 75 95
f 92 96 84
f 96 97 84
f 84 97 85
f 70 98 87
f 99 98 70
f 71 99 70
f 100 50 54
f 90 50 100
f 74 101 72
f 72 102 81
f 72 101 102
f 103 80 78
f 79 80 103
f 103 78 104
f 104 78 81
f 87 105 94
f 98 105 87
f 106 53 51
f 91 106 51
f 93 79 103
f 85 107 74
f 74 107 101
f 108 96 92
f 92 93 109
f 108 92 109
f 110 56 76
f 89 56 110
f 111 103 104
f 93 103 111
f 108 112 96
f 112 113 96
f 96 113 97
f 105 114 94
f 115 94 114
f 95 94 115
f 104 81 116
f 111 104 117
f 117 104 116
f 118 71 58
f 88 118 58
f 119 63 53
f 106 119 53
f 109 93 111
f 116 81 102
f 105 120 114
f 121 120 105
f 120 122 114
f 121 123 120
f 120 124 122
f 123 124 120
f 98 121 105
f 125 121 98
f 99 125 98
f 126 54 64
f 100 54 126
f 85 127 107
f 97 127 85
f 128 111 117
f 109 111 128
f 129 112 108
f 108 109 130
f 129 108 130
f 107 131 101
f 101 132 102
f 101 131 132
f 128 117 133
f 133 117 134
f 117 116 134
f 129 135 112
f 135 136 112
f 112 136 113
f 137 114 122
f 115 114 137
f 107 127 138
f 107 139 131
f 107 138 139
f 140 60 59
f 141 59 62
f 140 59 141
f 130 109 128
f 142 123 121
f 125 142 121
f 124 143 122
f 124 144 143
f 145 144 124
f 123 145 124
f 146 76 95
f 110 76 146
f 147 99 71
f 118 147 71
f 148 122 143
f 137 122 148
f 149 128 133
f 130 128 149
f 150 88 63
f 119 150 63
f 140 82 60
f 149 133 151
f 151 133 152
f 133 134 152
f 116 102 153
f 102 154 153
f 102 132 154
f 134 116 153
f 155 64 89
f 126 64 155
f 144 156 143
f 144 157 156
f 158 157 144
f 145 158 144
f 159 145 123
f 142 159 123
f 97 160 127
f 113 160 97
f 161 143 156
f 157 162 156
f 163 156 162
f 161 156 163
f 148 143 161
f 129 130 164
f 164 130 149
f 157 165 162
f 166 165 157
f 158 166 157
f 167 62 77
f 141 62 167
f 165 168 162
f 169 162 168
f 163 162 169
f 127 160 170
f 127 170 138
f 171 135 129
f 171 129 164
f 172 149 151
f 164 149 172
f 165 173 168
f 168 174 175
f 176 168 175
f 168 173 174
f 169 168 176
f 177 95 115
f 146 95 177
f 172 151 178
f 178 151 179
f 151 152 179
f 171 180 135
f 180 181 135
f 135 181 136
f 182 173 165
f 166 182 165
f 183 91 82
f 140 183 82
f 184 158 145
f 159 184 145
f 139 185 131
f 131 186 132
f 131 185 186
f 134 153 187
f 152 134 187
f 174 188 175
f 176 175 188
f 153 189 187
f 153 154 189
f 173 190 174
f 173 191 190
f 182 191 173
f 192 125 99
f 147 192 99
f 193 77 86
f 167 77 193
f 139 194 185
f 139 138 195
f 139 195 194
f 190 196 174
f 197 190 191
f 190 198 196
f 197 198 190
f 199 89 110
f 155 89 199
f 200 118 88
f 150 200 88
f 174 196 188
f 201 191 182
f 201 197 191
f 202 164 172
f 171 164 202
f 203 115 137
f 177 115 203
f 204 86 90
f 193 86 204
f 113 205 160
f 136 205 113
f 206 182 166
f 206 201 182
f 207 166 158
f 207 206 166
f 208 106 91
f 183 208 91
f 184 207 158
f 132 209 154
f 132 186 209
f 210 90 100
f 204 90 210
f 211 172 178
f 202 172 211
f 160 205 212
f 160 212 170
f 211 178 213
f 213 178 214
f 178 179 214
f 215 100 126
f 210 100 215
f 152 187 216
f 179 152 216
f 217 142 125
f 192 217 125
f 187 218 216
f 187 189 218
f 219 137 148
f 203 137 219
f 220 180 171
f 221 171 202
f 220 171 221
f 222 119 106
f 208 222 106
f 223 110 146
f 199 110 223
f 224 180 220
f 180 225 181
f 224 225 180
f 226 147 118
f 200 226 118
f 194 227 185
f 185 228 186
f 185 227 228
f 138 170 229
f 138 229 195
f 230 148 161
f 219 148 230
f 136 231 205
f 181 231 136
f 232 126 155
f 215 126 232
f 233 150 119
f 222 233 119
f 194 234 227
f 194 195 235
f 194 235 234
f 236 202 211
f 221 202 236
f 237 159 142
f 217 237 142
f 154 238 189
f 154 209 238
f 239 211 213
f 239 240 211
f 236 211 240
f 241 161 163
f 230 161 241
f 242 239 213
f 213 214 243
f 242 213 243
f 244 163 169
f 241 163 244
f 205 231 245
f 205 245 212
f 179 216 246
f 214 179 246
f 247 169 176
f 244 169 247
f 248 146 177
f 223 146 248
f 249 176 188
f 247 176 249
f 216 250 246
f 216 218 250
f 251 192 147
f 226 251 147
f 252 155 199
f 232 155 252
f 186 253 209
f 186 228 253
f 254 184 159
f 237 254 159
f 196 198 255
f 196 256 188
f 196 257 256
f 196 255 257
f 258 220 221
f 259 221 236
f 258 221 259
f 260 220 258
f 260 224 220
f 261 140 141
f 262 141 167
f 261 141 262
f 263 200 150
f 233 263 150
f 170 212 264
f 170 264 229
f 265 207 184
f 254 265 184
f 261 183 140
f 181 266 231
f 225 266 181
f 267 240 239
f 268 236 240
f 267 269 240
f 268 240 269
f 189 270 218
f 189 238 270
f 271 267 239
f 271 239 242
f 272 199 223
f 252 199 272
f 273 177 203
f 248 177 273
f 274 206 207
f 265 274 207
f 234 275 227
f 227 276 228
f 227 275 276
f 259 236 268
f 277 201 206
f 274 277 206
f 195 229 278
f 195 278 235
f 214 246 279
f 243 214 279
f 280 198 197
f 280 255 198
f 249 188 256
f 281 217 192
f 251 281 192
f 231 266 282
f 231 282 245
f 283 197 201
f 277 283 201
f 283 280 197
f 284 167 193
f 262 167 284
f 258 259 268
f 285 226 200
f 263 285 200
f 234 286 275
f 234 235 287
f 234 287 286
f 246 288 279
f 246 250 288
f 209 289 238
f 209 253 289
f 258 268 290
f 260 258 290
f 291 223 248
f 272 223 291
f 292 193 204
f 284 193 292
f 290 269 267
f 290 268 269
f 293 203 219
f 273 203 293
f 294 208 183
f 261 294 183
f 295 290 267
f 295 267 271
f 296 204 210
f 292 204 296
f 260 290 295
f 297 210 215
f 296 210 297
f 212 245 298
f 212 298 264
f 299 237 217
f 281 299 217
f 228 300 253
f 228 276 300
f 225 301 266
f 302 225 224
f 302 301 225
f 303 251 226
f 285 303 226
f 304 215 232
f 297 215 304
f 218 305 250
f 218 270 305
f 306 219 230
f 293 219 306
f 243 279 307
f 308 242 243
f 308 243 307
f 309 248 273
f 291 248 309
f 310 222 208
f 294 310 208
f 311 232 252
f 304 232 311
f 229 264 312
f 229 312 278
f 313 230 241
f 306 230 313
f 266 301 314
f 266 314 282
f 238 315 270
f 238 289 315
f 316 252 272
f 311 252 316
f 286 317 275
f 275 318 276
f 275 317 318
f 279 319 307
f 279 288 319
f 320 254 237
f 299 320 237
f 321 281 251
f 303 321 251
f 322 273 293
f 309 273 322
f 323 233 222
f 310 323 222
f 324 261 262
f 325 262 284
f 324 262 325
f 326 271 242
f 326 242 308
f 327 241 244
f 313 241 327
f 328 224 260
f 328 302 224
f 235 278 329
f 235 329 287
f 330 272 291
f 316 272 330
f 286 331 317
f 287 331 286
f 245 282 332
f 245 332 298
f 333 295 271
f 328 260 295
f 328 295 333
f 324 294 261
f 253 334 289
f 253 300 334
f 335 244 247
f 327 244 335
f 336 265 254
f 320 336 254
f 337 291 309
f 330 291 337
f 338 263 233
f 323 338 233
f 250 339 288
f 250 305 339
f 340 293 306
f 322 293 340
f 341 284 292
f 325 284 341
f 342 299 281
f 321 342 281
f 333 271 326
f 343 292 296
f 341 292 343
f 300 276 318
f 344 247 249
f 335 247 344
f 345 309 322
f 337 309 345
f 346 274 265
f 336 346 265
f 347 296 297
f 343 296 347
f 348 285 263
f 338 348 263
f 349 249 256
f 344 249 349
f 350 306 313
f 340 306 350
f 264 298 351
f 264 351 312
f 352 310 294
f 324 352 294
f 270 353 305
f 270 315 353
f 354 308 307
f 354 307 319
f 355 297 304
f 347 297 355
f 356 301 302
f 356 314 301
f 357 320 299
f 342 357 299
f 358 322 340
f 345 322 358
f 359 277 274
f 346 359 274
f 360 304 311
f 355 304 360
f 257 361 256
f 349 256 361
f 255 362 257
f 257 362 361
f 363 313 327
f 350 313 363
f 364 303 285
f 348 364 285
f 365 311 316
f 360 311 365
f 331 366 317
f 317 367 318
f 317 366 367
f 368 283 277
f 359 368 277
f 369 326 308
f 369 308 354
f 370 340 350
f 358 340 370
f 371 323 310
f 352 371 310
f 372 336 320
f 357 372 320
f 287 373 331
f 331 374 366
f 373 374 331
f 289 375 315
f 289 334 375
f 376 316 330
f 365 316 376
f 278 312 377
f 278 377 329
f 378 302 328
f 378 356 302
f 379 327 335
f 363 327 379
f 282 314 380
f 282 380 332
f 381 325 341
f 382 324 325
f 382 325 381
f 288 383 319
f 288 339 383
f 384 280 283
f 368 384 283
f 385 321 303
f 364 385 303
f 329 373 287
f 386 333 326
f 378 328 333
f 378 333 386
f 387 330 337
f 376 330 387
f 386 326 369
f 388 335 344
f 379 335 388
f 389 350 363
f 370 350 389
f 300 318 390
f 334 300 390
f 391 346 336
f 372 391 336
f 392 255 280
f 384 392 280
f 393 338 323
f 371 393 323
f 394 341 343
f 381 341 394
f 395 343 347
f 394 343 395
f 396 337 345
f 387 337 396
f 298 332 397
f 298 397 351
f 305 398 339
f 305 353 398
f 399 344 349
f 388 344 399
f 400 342 321
f 385 400 321
f 390 318 367
f 255 401 362
f 392 401 255
f 402 359 346
f 391 402 346
f 403 363 379
f 389 363 403
f 404 347 355
f 395 347 404
f 382 352 324
f 405 349 361
f 399 349 405
f 406 345 358
f 396 345 406
f 407 355 360
f 404 355 407
f 408 348 338
f 393 408 338
f 362 409 361
f 401 410 362
f 362 410 409
f 411 357 342
f 400 411 342
f 412 360 365
f 407 360 412
f 405 361 409
f 374 413 366
f 366 414 367
f 366 413 414
f 415 368 359
f 402 415 359
f 416 379 388
f 403 379 416
f 417 358 370
f 406 358 417
f 315 418 353
f 315 375 418
f 419 365 376
f 412 365 419
f 420 384 368
f 415 420 368
f 421 372 357
f 411 421 357
f 422 364 348
f 408 422 348
f 423 371 352
f 382 423 352
f 312 351 424
f 312 424 377
f 425 354 319
f 425 319 383
f 373 426 374
f 374 427 413
f 374 428 427
f 374 426 428
f 429 388 399
f 416 388 429
f 430 314 356
f 430 380 314
f 431 394 395
f 432 381 394
f 432 394 431
f 433 370 389
f 417 370 433
f 329 434 373
f 434 426 373
f 435 376 387
f 419 376 435
f 436 395 404
f 431 395 436
f 437 392 384
f 420 437 384
f 334 390 438
f 375 334 438
f 439 382 381
f 439 381 432
f 440 399 405
f 429 399 440
f 441 391 372
f 421 441 372
f 390 367 442
f 367 414 443
f 367 443 442
f 444 401 392
f 437 444 392
f 438 390 442
f 445 404 407
f 436 404 445
f 446 385 364
f 422 446 364
f 377 434 329
f 401 447 410
f 444 447 401
f 448 369 354
f 448 354 425
f 449 393 371
f 423 449 371
f 450 387 396
f 435 387 450
f 451 405 409
f 440 405 451
f 452 389 403
f 433 389 452
f 339 453 383
f 339 398 453
f 332 380 454
f 332 454 397
f 455 407 412
f 445 407 455
f 456 356 378
f 456 430 356
f 457 386 369
f 456 378 386
f 456 386 457
f 410 458 409
f 447 459 410
f 410 459 458
f 460 402 391
f 441 460 391
f 439 423 382
f 451 409 458
f 461 412 419
f 455 412 461
f 462 403 416
f 452 403 462
f 463 396 406
f 450 396 463
f 464 400 385
f 446 464 385
f 427 465 413
f 413 466 414
f 413 465 466
f 467 408 393
f 449 467 393
f 468 432 431
f 469 431 436
f 468 431 469
f 457 369 448
f 470 415 402
f 460 470 402
f 471 432 468
f 471 439 432
f 427 472 465
f 427 473 472
f 427 428 473
f 353 474 398
f 353 418 474
f 475 419 435
f 461 419 475
f 469 436 476
f 476 436 445
f 477 416 429
f 462 416 477
f 478 449 423
f 439 478 423
f 479 420 415
f 470 479 415
f 480 406 417
f 463 406 480
f 481 411 400
f 464 481 400
f 351 397 482
f 351 482 424
f 483 468 469
f 484 469 476
f 483 469 484
f 485 422 408
f 467 485 408
f 486 437 420
f 479 486 420
f 414 466 487
f 414 487 443
f 488 429 440
f 477 429 488
f 476 445 489
f 489 445 455
f 490 435 450
f 475 435 490
f 491 468 483
f 491 471 468
f 492 447 444
f 447 493 459
f 492 493 447
f 434 494 426
f 426 495 428
f 426 494 495
f 438 442 496
f 375 438 497
f 497 438 496
f 498 444 437
f 498 492 444
f 486 498 437
f 484 476 499
f 500 483 484
f 500 484 501
f 501 484 499
f 442 443 502
f 442 502 496
f 418 375 497
f 503 417 433
f 480 417 503
f 499 476 489
f 504 421 411
f 481 504 411
f 505 455 461
f 489 455 505
f 506 440 451
f 488 440 506
f 507 483 500
f 507 491 483
f 508 467 449
f 478 508 449
f 377 509 434
f 509 494 434
f 510 450 463
f 490 450 510
f 471 478 439
f 511 425 383
f 511 383 453
f 512 446 422
f 485 512 422
f 465 500 501
f 472 500 465
f 472 507 500
f 424 509 377
f 513 380 430
f 513 454 380
f 465 501 466
f 514 461 475
f 505 461 514
f 515 451 458
f 506 451 515
f 516 433 452
f 503 433 516
f 517 441 421
f 504 517 421
f 491 518 471
f 471 518 478
f 499 489 519
f 519 489 505
f 466 501 520
f 501 499 520
f 521 463 480
f 510 463 521
f 522 485 467
f 508 522 467
f 466 520 487
f 472 523 507
f 472 473 523
f 524 464 446
f 512 524 446
f 525 475 490
f 514 475 525
f 507 526 491
f 491 526 518
f 443 487 527
f 443 527 502
f 528 448 425
f 528 425 511
f 529 430 456
f 529 513 430
f 530 452 462
f 516 452 530
f 531 460 441
f 517 531 441
f 520 499 519
f 507 523 526
f 428 532 473
f 428 495 532
f 518 508 478
f 459 533 458
f 515 458 533
f 529 456 457
f 534 457 448
f 529 457 534
f 535 480 503
f 521 480 535
f 497 496 536
f 418 497 537
f 537 497 536
f 398 538 453
f 398 474 538
f 539 505 514
f 519 505 539
f 540 462 477
f 530 462 540
f 541 481 464
f 524 541 464
f 542 490 510
f 525 490 542
f 496 502 543
f 496 543 536
f 544 512 485
f 522 544 485
f 397 454 545
f 397 545 482
f 546 470 460
f 531 546 460
f 493 547 459
f 459 547 533
f 474 418 537
f 534 448 528
f 487 520 548
f 520 519 548
f 509 549 494
f 494 550 495
f 494 549 550
f 551 477 488
f 540 477 551
f 518 552 508
f 552 522 508
f 526 552 518
f 553 503 516
f 535 503 553
f 487 548 527
f 424 554 509
f 554 549 509
f 555 479 470
f 546 555 470
f 556 510 521
f 542 510 556
f 557 504 481
f 541 557 481
f 558 493 492
f 493 559 547
f 558 559 493
f 560 488 506
f 551 488 560
f 561 514 525
f 539 514 561
f 482 554 424
f 562 524 512
f 544 562 512
f 563 486 479
f 555 563 479
f 502 527 564
f 502 564 543
f 548 519 539
f 565 516 530
f 553 516 565
f 473 566 523
f 473 532 566
f 523 567 526
f 523 566 567
f 568 521 535
f 556 521 568
f 526 567 552
f 569 492 498
f 569 558 492
f 570 506 515
f 560 506 570
f 571 498 486
f 563 571 486
f 572 517 504
f 557 572 504
f 552 573 522
f 573 544 522
f 495 574 532
f 495 550 574
f 571 569 498
f 575 541 524
f 562 575 524
f 537 536 576
f 536 543 577
f 536 577 576
f 474 537 578
f 578 537 576
f 579 530 540
f 565 530 579
f 567 573 552
f 580 525 542
f 561 525 580
f 527 548 581
f 548 539 581
f 582 515 533
f 570 515 582
f 527 581 564
f 583 531 517
f 572 583 517
f 584 535 553
f 568 535 584
f 585 511 453
f 585 453 538
f 586 557 541
f 575 586 541
f 554 587 549
f 549 588 550
f 549 587 588
f 573 589 544
f 589 562 544
f 590 454 513
f 590 545 454
f 547 591 533
f 582 533 591
f 592 540 551
f 579 540 592
f 581 539 561
f 482 593 554
f 593 587 554
f 594 528 511
f 594 511 585
f 532 595 566
f 532 574 595
f 596 546 531
f 583 596 531
f 597 513 529
f 597 590 513
f 598 542 556
f 580 542 598
f 599 553 565
f 584 553 599
f 543 564 600
f 543 600 577
f 538 474 578
f 566 601 567
f 566 595 601
f 597 529 534
f 567 601 573
f 602 534 528
f 602 528 594
f 597 534 602
f 603 572 557
f 586 603 557
f 601 589 573
f 559 604 547
f 547 604 591
f 605 575 562
f 589 605 562
f 578 576 606
f 576 577 607
f 576 607 606
f 608 551 560
f 592 551 608
f 609 555 546
f 596 609 546
f 610 565 579
f 599 565 610
f 545 593 482
f 564 581 611
f 581 561 611
f 612 559 558
f 559 613 604
f 612 613 559
f 550 614 574
f 550 588 614
f 615 556 568
f 598 556 615
f 564 611 600
f 616 563 555
f 609 616 555
f 617 583 572
f 603 617 572
f 618 560 570
f 608 560 618
f 619 586 575
f 605 619 575
f 620 579 592
f 610 579 620
f 611 561 580
f 621 578 606
f 538 578 621
f 593 622 587
f 587 623 588
f 587 622 623
f 624 571 563
f 616 624 563
f 601 625 589
f 625 605 589
f 626 558 569
f 626 612 558
f 627 570 582
f 618 570 627
f 595 625 601
f 574 628 595
f 595 628 625
f 574 614 628
f 577 600 629
f 577 629 607
f 630 596 583
f 617 630 583
f 631 603 586
f 619 631 586
f 632 569 571
f 624 632 571
f 633 592 608
f 620 592 633
f 634 568 584
f 615 568 634
f 632 626 569
f 545 635 593
f 635 622 593
f 636 582 591
f 627 582 636
f 611 580 637
f 637 580 598
f 600 611 637
f 638 609 596
f 630 638 596
f 621 606 639
f 606 607 640
f 606 640 639
f 641 585 538
f 642 538 621
f 641 538 642
f 643 617 603
f 631 643 603
f 625 644 605
f 644 619 605
f 645 594 585
f 645 585 641
f 588 646 614
f 588 623 646
f 600 637 629
f 647 602 594
f 647 594 645
f 648 597 602
f 648 590 597
f 649 608 618
f 633 608 649
f 604 650 591
f 636 591 650
f 651 584 599
f 634 584 651
f 648 602 647
f 652 616 609
f 638 652 609
f 628 644 625
f 653 545 590
f 654 635 545
f 653 654 545
f 648 653 590
f 613 655 604
f 604 655 650
f 637 598 656
f 598 615 657
f 598 657 656
f 658 630 617
f 643 658 617
f 659 618 627
f 649 618 659
f 614 660 628
f 628 660 644
f 644 661 619
f 661 631 619
f 614 646 660
f 662 621 639
f 642 621 662
f 663 599 610
f 651 599 663
f 635 664 622
f 622 665 623
f 622 664 665
f 666 624 616
f 652 666 616
f 667 613 612
f 613 668 655
f 667 668 613
f 607 629 669
f 607 669 640
f 670 627 636
f 659 627 670
f 629 637 656
f 671 638 630
f 658 671 630
f 660 661 644
f 672 612 626
f 672 667 612
f 661 673 631
f 673 643 631
f 674 632 624
f 666 674 624
f 675 636 650
f 670 636 675
f 676 639 640
f 662 639 676
f 615 634 677
f 615 677 657
f 678 664 635
f 654 678 635
f 679 610 620
f 663 610 679
f 680 652 638
f 671 680 638
f 629 656 669
f 681 626 632
f 681 672 626
f 674 681 632
f 623 682 646
f 623 665 682
f 683 645 641
f 684 647 645
f 684 645 683
f 655 685 650
f 675 650 685
f 660 686 661
f 646 686 660
f 687 648 647
f 687 653 648
f 688 641 642
f 683 641 688
f 661 686 689
f 661 689 673
f 690 666 652
f 680 690 652
f 691 658 643
f 673 691 643
f 646 682 686
f 656 692 669
f 656 657 692
f 693 620 633
f 679 620 693
f 687 647 684
f 694 640 669
f 676 640 694
f 695 642 662
f 688 642 695
f 634 651 696
f 634 696 677
f 697 665 664
f 678 697 664
f 698 654 653
f 687 698 653
f 668 699 655
f 655 699 685
f 700 671 658
f 691 700 658
f 701 674 666
f 690 701 666
f 702 662 676
f 695 662 702
f 651 663 703
f 651 703 696
f 694 669 692
f 686 682 704
f 686 704 689
f 705 668 667
f 668 706 699
f 705 706 668
f 673 707 691
f 673 689 707
f 708 678 654
f 698 708 654
f 709 682 665
f 697 709 665
f 710 633 649
f 693 633 710
f 711 676 694
f 702 676 711
f 712 684 683
f 713 683 688
f 712 683 713
f 657 714 692
f 657 677 714
f 715 681 674
f 701 715 674
f 716 680 671
f 700 716 671
f 703 663 679
f 709 704 682
f 717 687 684
f 717 698 687
f 718 667 672
f 718 705 667
f 719 694 692
f 711 694 719
f 720 697 678
f 708 720 678
f 721 672 681
f 715 721 681
f 717 684 712
f 713 688 722
f 722 688 695
f 721 718 672
f 691 723 700
f 691 707 723
f 724 649 659
f 710 649 724
f 689 704 725
f 689 725 707
f 719 692 714
f 726 690 680
f 716 726 680
f 677 696 727
f 677 727 714
f 728 709 697
f 720 728 697
f 729 712 713
f 730 713 722
f 729 713 730
f 731 695 702
f 722 695 731
f 732 659 670
f 724 659 732
f 733 679 693
f 703 679 733
f 717 734 698
f 735 717 712
f 735 734 717
f 736 704 709
f 728 736 709
f 734 708 698
f 700 737 716
f 700 723 737
f 736 725 704
f 738 701 690
f 726 738 690
f 739 702 711
f 731 702 739
f 740 711 719
f 739 711 740
f 735 712 729
f 696 703 741
f 696 741 727
f 742 670 675
f 732 670 742
f 743 719 714
f 740 719 743
f 707 725 744
f 707 744 723
f 743 714 727
f 745 675 685
f 742 675 745
f 730 722 746
f 746 722 731
f 737 726 716
f 747 729 730
f 748 730 746
f 748 749 730
f 747 730 749
f 699 750 685
f 745 685 750
f 751 735 729
f 735 752 734
f 753 752 735
f 753 735 751
f 754 693 710
f 733 693 754
f 755 720 708
f 734 755 708
f 741 703 733
f 756 715 701
f 738 756 701
f 757 728 720
f 755 757 720
f 758 725 736
f 758 744 725
f 751 729 747
f 759 736 728
f 757 759 728
f 759 758 736
f 752 755 734
f 723 760 737
f 723 744 760
f 761 743 727
f 761 727 741
f 706 762 699
f 699 762 750
f 763 740 743
f 763 743 761
f 764 731 739
f 746 731 764
f 765 739 740
f 765 740 763
f 737 766 726
f 766 738 726
f 764 739 765
f 767 721 715
f 756 767 715
f 768 706 705
f 706 769 762
f 768 769 706
f 770 746 764
f 770 748 746
f 771 710 724
f 754 710 771
f 741 733 772
f 772 733 754
f 760 766 737
f 773 744 758
f 773 760 744
f 761 741 772
f 774 718 721
f 767 774 721
f 775 758 759
f 775 773 758
f 752 776 755
f 777 752 753
f 777 776 752
f 776 757 755
f 778 759 757
f 778 775 759
f 766 779 738
f 779 756 738
f 780 705 718
f 780 768 705
f 781 749 748
f 782 747 749
f 782 749 783
f 781 783 749
f 763 761 784
f 761 772 784
f 776 778 757
f 774 780 718
f 765 763 785
f 763 784 785
f 786 751 747
f 787 753 751
f 787 751 786
f 788 724 732
f 771 724 788
f 772 754 789
f 789 754 771
f 760 790 766
f 773 790 760
f 764 765 791
f 765 785 791
f 770 764 792
f 764 791 792
f 790 779 766
f 793 748 770
f 793 781 748
f 786 747 782
f 775 794 773
f 773 794 790
f 784 772 789
f 795 732 742
f 788 732 795
f 779 796 756
f 796 767 756
f 778 797 775
f 775 797 794
f 798 777 753
f 798 753 787
f 799 745 750
f 762 800 750
f 799 750 800
f 801 742 745
f 801 745 799
f 795 742 801
f 776 802 778
f 777 803 776
f 776 803 802
f 778 802 797
f 804 782 783
f 805 782 804
f 805 786 782
f 785 784 806
f 784 789 806
f 793 770 807
f 770 792 807
f 804 783 808
f 809 804 808
f 810 805 804
f 810 804 809
f 789 771 811
f 811 771 788
f 812 808 783
f 812 783 781
f 810 786 805
f 810 787 786
f 809 808 812
f 790 813 779
f 813 796 779
f 769 814 762
f 762 814 800
f 791 785 815
f 785 806 815
f 816 812 781
f 816 781 793
f 817 812 816
f 817 809 812
f 818 769 768
f 769 819 814
f 818 819 769
f 794 813 790
f 820 774 767
f 796 820 767
f 806 789 811
f 798 821 777
f 777 821 803
f 816 793 822
f 793 807 822
f 792 791 823
f 791 815 823
f 816 822 824
f 825 816 824
f 825 817 816
f 826 787 810
f 826 798 787
f 826 810 809
f 807 792 827
f 792 823 827
f 828 788 795
f 811 788 828
f 826 809 817
f 797 829 794
f 794 829 813
f 830 780 774
f 820 830 774
f 822 807 831
f 807 827 831
f 832 768 780
f 832 818 768
f 806 811 833
f 815 806 833
f 813 834 796
f 834 820 796
f 802 835 797
f 797 835 829
f 824 822 836
f 822 831 836
f 824 836 837
f 838 824 837
f 838 825 824
f 830 832 780
f 839 795 801
f 828 795 839
f 833 811 828
f 826 840 798
f 798 840 821
f 823 815 841
f 815 833 841
f 842 826 817
f 842 817 825
f 826 842 840
f 829 834 813
f 831 827 843
f 836 831 844
f 831 843 844
f 845 801 799
f 839 801 845
f 803 846 802
f 802 846 835
f 847 799 800
f 814 848 800
f 847 800 848
f 845 799 847
f 827 823 849
f 827 849 843
f 837 836 850
f 836 844 850
f 837 850 851
f 852 837 851
f 852 838 837
f 819 853 814
f 814 853 848
f 823 841 849
f 821 854 803
f 803 854 846
f 833 828 855
f 855 828 839
f 834 856 820
f 856 830 820
f 857 819 818
f 819 858 853
f 857 858 819
f 841 833 855
f 829 859 834
f 835 859 829
f 850 844 860
f 844 843 861
f 844 861 860
f 851 850 862
f 850 860 862
f 851 862 863
f 864 851 863
f 864 852 851
f 843 849 865
f 843 865 861
f 849 841 866
f 841 855 866
f 855 839 867
f 867 839 845
f 840 868 821
f 821 868 854
f 849 866 865
f 859 856 834
f 869 842 825
f 869 825 838
f 846 870 835
f 835 870 859
f 866 855 867
f 871 832 830
f 856 871 830
f 872 845 847
f 867 845 872
f 873 847 848
f 872 847 873
f 842 874 840
f 840 874 868
f 875 818 832
f 875 857 818
f 853 876 848
f 873 848 876
f 877 860 861
f 878 862 860
f 878 860 877
f 842 869 874
f 865 866 879
f 866 867 879
f 861 865 880
f 861 880 881
f 877 861 881
f 865 879 880
f 879 867 872
f 871 875 832
f 882 863 862
f 882 862 878
f 854 883 846
f 846 883 870
f 884 863 882
f 884 864 863
f 858 885 853
f 853 885 876
f 859 886 856
f 886 871 856
f 870 886 859
f 879 872 887
f 880 879 887
f 887 872 873
f 888 869 838
f 888 838 852
f 881 880 889
f 880 887 889
f 890 877 881
f 881 889 891
f 890 881 891
f 892 878 877
f 892 877 890
f 858 893 885
f 894 858 857
f 894 893 858
f 895 873 876
f 887 873 895
f 895 876 896
f 885 896 876
f 889 887 895
f 868 897 854
f 854 897 883
f 898 882 878
f 898 878 892
f 899 882 898
f 899 884 882
f 889 895 900
f 900 895 896
f 891 889 900
f 870 901 886
f 883 901 870
f 891 900 902
f 903 890 891
f 903 891 902
f 886 904 871
f 904 875 871
f 885 905 896
f 893 905 885
f 900 896 906
f 905 906 896
f 902 900 906
f 907 892 890
f 907 890 903
f 869 908 874
f 874 909 868
f 874 908 909
f 869 888 908
f 910 857 875
f 910 894 857
f 868 909 897
f 901 904 886
f 902 906 911
f 912 903 902
f 912 902 911
f 905 913 906
f 913 911 906
f 904 910 875
f 914 852 864
f 914 888 852
f 893 915 905
f 915 913 905
f 916 898 892
f 916 892 907
f 917 903 912
f 917 907 903
f 918 898 916
f 918 899 898
f 919 893 894
f 919 915 893
f 883 920 901
f 897 920 883
f 921 912 911
f 913 921 911
f 921 922 912
f 922 917 912
f 923 916 907
f 923 907 917
f 915 924 913
f 924 921 913
f 925 916 923
f 925 918 916
f 901 926 904
f 926 910 904
f 920 926 901
f 927 894 910
f 927 919 894
f 928 924 915
f 928 915 919
f 909 929 897
f 897 929 920
f 930 922 921
f 924 930 921
f 931 923 917
f 922 931 917
f 932 864 884
f 932 914 864
f 931 925 923
f 926 927 910
f 888 933 908
f 888 914 933
f 908 934 909
f 908 933 934
f 930 935 922
f 935 931 922
f 909 934 929
f 936 930 924
f 936 924 928
f 937 919 927
f 937 928 919
f 920 938 926
f 929 938 920
f 935 930 936
f 939 884 899
f 939 932 884
f 940 925 931
f 935 940 931
f 938 927 926
f 940 941 925
f 941 918 925
f 940 935 942
f 935 936 942
f 938 937 927
f 941 940 943
f 940 942 943
f 941 944 918
f 941 943 944
f 944 899 918
f 944 939 899
f 945 928 937
f 945 936 928
f 929 946 938
f 947 929 934
f 947 946 929
f 932 933 914
f 948 934 933
f 932 948 933
f 946 937 938
f 948 947 934
f 946 945 937
f 942 936 945
f 943 942 949
f 942 945 949
f 939 948 932
f 939 950 948
f 950 947 948
f 944 943 950
f 943 949 950
f 944 950 939
f 949 945 946
f 949 946 947
f 950 949 947
