# 
# Wavefront OBJ file
# Created with Kaydara FBX
# 
mtllib c:\users\tjvan\onedrive\documenten\fontys\minor\nx\.mtlmodels\semitendinosus_muscle.r.obj

g Semitendinosus_muscle_r
v -0.067635 0.635051 -0.063223
v -0.067160 0.622488 -0.069062
v -0.067730 0.622144 -0.064512
v -0.065790 0.621788 -0.060221
v -0.066751 0.609929 -0.069854
v -0.067343 0.609637 -0.065544
v -0.067113 0.635400 -0.068015
v -0.066580 0.648008 -0.067121
v -0.067137 0.647667 -0.062065
v -0.065149 0.647119 -0.057241
v -0.065704 0.634547 -0.058684
v -0.067048 0.597470 -0.066372
v -0.064884 0.597346 -0.062385
v -0.065363 0.609387 -0.061449
v -0.064168 0.622693 -0.072639
v -0.066459 0.660047 -0.061288
v -0.064497 0.659560 -0.056229
v -0.064084 0.635538 -0.071760
v -0.066466 0.597676 -0.070711
v -0.065280 0.585400 -0.070842
v -0.065740 0.585386 -0.066773
v -0.063010 0.597873 -0.073496
v -0.063652 0.610158 -0.072928
v -0.065829 0.660300 -0.066504
v -0.062781 0.660317 -0.070689
v -0.063438 0.648039 -0.070997
v -0.061828 0.585632 -0.073355
v -0.065650 0.672285 -0.060597
v -0.065051 0.672610 -0.065896
v -0.061654 0.621537 -0.057268
v -0.064243 0.573586 -0.066613
v -0.063364 0.585567 -0.063309
v -0.062124 0.573913 -0.063276
v -0.061033 0.646445 -0.053681
v -0.061597 0.633978 -0.055471
v -0.064323 0.684818 -0.065036
v -0.064988 0.684377 -0.059687
v -0.063114 0.683820 -0.054445
v -0.063719 0.671779 -0.055456
v -0.064932 0.757769 -0.054606
v -0.065428 0.744932 -0.051675
v -0.065591 0.757256 -0.050267
v -0.063380 0.744424 -0.047387
v -0.064578 0.768967 -0.049038
v -0.062855 0.768452 -0.045508
v -0.063618 0.756757 -0.046289
v -0.064907 0.745548 -0.056230
v -0.064406 0.733288 -0.058317
v -0.064893 0.732523 -0.053500
v -0.061017 0.597435 -0.059856
v -0.061443 0.609263 -0.058618
v -0.063500 0.573541 -0.070365
v -0.061361 0.685031 -0.069362
v -0.062060 0.672683 -0.070130
v -0.064515 0.696382 -0.058437
v -0.062775 0.695803 -0.053207
v -0.062023 0.758162 -0.058050
v -0.063964 0.769403 -0.052968
v -0.061529 0.734121 -0.062219
v -0.061984 0.746134 -0.059812
v -0.064529 0.720494 -0.055372
v -0.062743 0.719921 -0.050455
v -0.063036 0.731968 -0.048779
v -0.062962 0.780601 -0.051010
v -0.063468 0.780188 -0.047518
v -0.064038 0.721259 -0.060469
v -0.063916 0.709112 -0.062276
v -0.064378 0.708436 -0.056979
v -0.063928 0.696946 -0.063814
v -0.059488 0.671197 -0.051584
v -0.060292 0.658916 -0.052446
v -0.062628 0.707865 -0.051892
v -0.062283 0.561834 -0.070040
v -0.062695 0.561927 -0.066344
v -0.059415 0.635477 -0.073630
v -0.059170 0.610335 -0.074515
v -0.059485 0.622783 -0.074232
v -0.060894 0.709704 -0.066531
v -0.061017 0.721976 -0.064541
v -0.060949 0.780988 -0.053950
v -0.061504 0.769719 -0.056238
v -0.060899 0.697357 -0.068129
v -0.058960 0.683275 -0.050480
v -0.058543 0.598084 -0.074573
v -0.059589 0.744236 -0.044058
v -0.059671 0.768057 -0.043017
v -0.059958 0.756468 -0.043497
v -0.059050 0.562166 -0.072084
v -0.060344 0.573768 -0.072643
v -0.062605 0.787899 -0.046585
v -0.062003 0.779765 -0.044252
v -0.061200 0.787382 -0.043461
v -0.057903 0.660162 -0.072650
v -0.058755 0.647871 -0.073072
v -0.058598 0.574323 -0.061221
v -0.059857 0.585849 -0.060886
v -0.058642 0.719598 -0.046936
v -0.059048 0.731731 -0.045203
v -0.062117 0.788262 -0.049695
v -0.058683 0.707503 -0.048263
v -0.058751 0.695388 -0.049414
v -0.060531 0.550483 -0.066060
v -0.060681 0.562340 -0.063111
v -0.058636 0.550946 -0.063088
v -0.061875 0.794497 -0.046283
v -0.060505 0.794282 -0.043423
v -0.060296 0.550360 -0.069452
v -0.061528 0.794228 -0.049213
v -0.060274 0.788705 -0.052507
v -0.056475 0.684930 -0.071418
v -0.057209 0.672516 -0.072138
v -0.057637 0.758418 -0.059879
v -0.058840 0.786666 -0.041483
v -0.059296 0.779428 -0.041925
v -0.056904 0.734681 -0.064173
v -0.057411 0.746552 -0.061618
v -0.061856 0.794671 -0.046282
v -0.060487 0.794469 -0.043430
v -0.061514 0.794377 -0.049209
v -0.056159 0.793780 -0.046419
v -0.057686 0.794090 -0.044071
v -0.056329 0.574097 -0.073340
v -0.057489 0.585877 -0.074158
v -0.056652 0.621406 -0.055967
v -0.055660 0.645981 -0.052194
v -0.056357 0.633663 -0.054071
v -0.059729 0.794003 -0.052011
v -0.057787 0.781163 -0.055744
v -0.057680 0.769886 -0.058061
v -0.059715 0.794126 -0.052007
v -0.053740 0.793411 -0.048759
v -0.056515 0.597617 -0.058648
v -0.056720 0.609305 -0.057470
v -0.058167 0.794033 -0.041872
v -0.056004 0.710036 -0.068514
v -0.056269 0.722440 -0.066543
v -0.056039 0.697523 -0.070321
v -0.055652 0.551537 -0.061131
v -0.057397 0.562883 -0.061083
v -0.058099 0.539058 -0.068656
v -0.058417 0.539195 -0.065543
v -0.058145 0.794242 -0.041892
v -0.055179 0.562615 -0.072363
v -0.057264 0.550785 -0.071107
v -0.055176 0.539533 -0.070170
v -0.054020 0.670654 -0.049682
v -0.054848 0.658388 -0.050740
v -0.057727 0.788672 -0.054527
v -0.055695 0.767974 -0.041811
v -0.054730 0.744301 -0.042642
v -0.055350 0.756469 -0.042162
v -0.054790 0.574678 -0.059869
v -0.055820 0.586147 -0.059442
v -0.057758 0.793745 -0.053995
v -0.057760 0.793861 -0.053987
v -0.052260 0.793228 -0.051061
v -0.053765 0.635292 -0.073946
v -0.054006 0.610446 -0.074931
v -0.054035 0.622808 -0.074594
v -0.055878 0.786216 -0.040662
v -0.055909 0.779297 -0.040928
v -0.054117 0.731818 -0.043740
v -0.053346 0.695173 -0.047809
v -0.053481 0.682876 -0.048602
v -0.055758 0.793796 -0.041020
v -0.052133 0.659887 -0.072784
v -0.053050 0.647612 -0.073300
v -0.053376 0.707414 -0.046715
v -0.056295 0.539734 -0.063144
v -0.053577 0.719575 -0.045352
v -0.053133 0.586083 -0.074179
v -0.053821 0.598214 -0.074778
v -0.056044 0.528026 -0.064800
v -0.053957 0.528541 -0.062980
v -0.055753 0.794017 -0.041036
v -0.053389 0.793534 -0.042268
v -0.055478 0.527945 -0.067448
v -0.053922 0.780961 -0.055626
v -0.054199 0.793571 -0.053798
v -0.054226 0.788501 -0.054465
v -0.054194 0.793687 -0.053784
v -0.050222 0.793127 -0.052269
v -0.052711 0.758564 -0.059882
v -0.053349 0.769956 -0.057932
v -0.050798 0.793259 -0.043773
v -0.052222 0.574402 -0.073245
v -0.051424 0.734911 -0.064326
v -0.052038 0.746805 -0.061877
v -0.052403 0.552001 -0.059645
v -0.053704 0.563319 -0.059792
v -0.051803 0.540110 -0.070343
v -0.053640 0.551356 -0.071308
v -0.050850 0.684705 -0.071578
v -0.051413 0.672213 -0.072216
v -0.051761 0.621353 -0.055692
v -0.052025 0.597768 -0.058047
v -0.052047 0.609376 -0.057150
v -0.050172 0.645761 -0.052190
v -0.051158 0.633576 -0.053831
v -0.053483 0.540260 -0.061453
v -0.051364 0.529006 -0.061625
v -0.050494 0.710150 -0.068654
v -0.050812 0.722649 -0.066672
v -0.048035 0.792829 -0.045411
v -0.052796 0.516865 -0.066260
v -0.053473 0.516860 -0.063960
v -0.050464 0.697470 -0.070551
v -0.052378 0.785900 -0.041002
v -0.051596 0.768157 -0.042200
v -0.052242 0.779440 -0.041358
v -0.052459 0.793244 -0.041222
v -0.050801 0.575000 -0.058887
v -0.051573 0.586367 -0.058652
v -0.052461 0.793460 -0.041235
v -0.049020 0.792800 -0.041617
v -0.052816 0.528392 -0.068817
v -0.050468 0.517283 -0.067472
v -0.050882 0.756667 -0.042509
v -0.050057 0.551823 -0.071162
v -0.051251 0.563010 -0.072204
v -0.048194 0.670392 -0.049485
v -0.049114 0.658103 -0.050818
v -0.049049 0.732024 -0.043769
v -0.049971 0.744570 -0.042998
v -0.050165 0.788121 -0.053167
v -0.050221 0.793016 -0.052291
v -0.048863 0.610469 -0.073894
v -0.047649 0.635000 -0.072569
v -0.048390 0.622680 -0.073358
v -0.051515 0.517411 -0.062588
v -0.049088 0.769993 -0.056718
v -0.050032 0.780795 -0.054321
v -0.048643 0.586266 -0.073510
v -0.049002 0.598330 -0.074078
v -0.047248 0.792778 -0.047724
v -0.048919 0.552399 -0.058701
v -0.049934 0.563679 -0.058839
v -0.048612 0.540559 -0.070280
v -0.048358 0.719754 -0.045196
v -0.050693 0.505780 -0.063586
v -0.048932 0.506250 -0.062261
v -0.050672 0.540671 -0.059981
v -0.048724 0.529397 -0.060468
v -0.047800 0.695089 -0.047371
v -0.047768 0.682697 -0.048264
v -0.046099 0.792605 -0.042279
v -0.047968 0.707468 -0.046376
v -0.048028 0.758722 -0.058742
v -0.046040 0.659522 -0.071323
v -0.046730 0.647235 -0.071831
v -0.049932 0.528894 -0.069115
v -0.047894 0.517692 -0.067863
v -0.049875 0.505873 -0.065543
v -0.049014 0.792600 -0.041617
v -0.048801 0.785794 -0.041730
v -0.046978 0.792757 -0.050105
v -0.048616 0.779720 -0.042220
v -0.047419 0.563357 -0.071518
v -0.048133 0.574660 -0.072515
v -0.047514 0.597900 -0.057701
v -0.046901 0.621222 -0.055694
v -0.047353 0.609399 -0.057016
v -0.045926 0.734849 -0.062798
v -0.046812 0.746873 -0.060467
v -0.046545 0.756999 -0.043385
v -0.047664 0.768516 -0.043246
v -0.046715 0.575242 -0.058322
v -0.047250 0.586561 -0.058192
v -0.049146 0.517855 -0.061625
v -0.046890 0.506659 -0.061425
v -0.045008 0.684449 -0.070163
v -0.045414 0.671898 -0.070716
v -0.046501 0.552212 -0.070572
v -0.044818 0.645573 -0.052899
v -0.046064 0.633468 -0.054152
v -0.044997 0.710070 -0.067447
v -0.045359 0.722612 -0.065299
v -0.043632 0.792239 -0.043147
v -0.047315 0.494864 -0.064853
v -0.047871 0.494904 -0.062973
v -0.047600 0.541089 -0.058942
v -0.045968 0.529783 -0.059660
v -0.047982 0.506239 -0.066462
v -0.044816 0.697272 -0.069226
v -0.046975 0.792639 -0.050126
v -0.046836 0.787672 -0.051009
v -0.045348 0.770017 -0.054455
v -0.046648 0.780744 -0.052217
v -0.045401 0.744947 -0.043875
v -0.047035 0.529327 -0.069086
v -0.045341 0.518088 -0.067911
v -0.045278 0.552718 -0.058311
v -0.046086 0.563978 -0.058291
v -0.045693 0.495050 -0.065975
v -0.046740 0.518228 -0.060765
v -0.044796 0.507029 -0.060608
v -0.042752 0.670380 -0.050545
v -0.043737 0.657975 -0.051946
v -0.043197 0.719977 -0.045923
v -0.044133 0.732308 -0.044654
v -0.046084 0.792424 -0.042278
v -0.044188 0.610358 -0.071380
v -0.044514 0.586521 -0.071543
v -0.044580 0.598493 -0.071800
v -0.046548 0.495216 -0.061647
v -0.045081 0.780163 -0.042780
v -0.045578 0.786135 -0.042378
v -0.044181 0.529748 -0.068691
v -0.045413 0.540995 -0.069724
v -0.042603 0.634575 -0.069621
v -0.043495 0.622341 -0.070658
v -0.043870 0.563676 -0.069766
v -0.044254 0.574913 -0.070723
v -0.042466 0.746829 -0.058044
v -0.043861 0.758809 -0.056423
v -0.043579 0.792370 -0.045011
v -0.045793 0.506602 -0.066811
v -0.043754 0.495340 -0.066248
v -0.042358 0.695174 -0.048113
v -0.042640 0.707613 -0.047025
v -0.045246 0.483888 -0.062131
v -0.044296 0.484177 -0.060766
v -0.042288 0.682721 -0.049231
v -0.043696 0.769064 -0.043887
v -0.043205 0.530133 -0.059020
v -0.044419 0.541428 -0.058533
v -0.043086 0.598024 -0.058205
v -0.042070 0.621083 -0.056236
v -0.042725 0.609346 -0.057332
v -0.044855 0.483790 -0.063886
v -0.042617 0.575369 -0.058718
v -0.042941 0.586702 -0.058567
v -0.044744 0.792526 -0.047668
v -0.042801 0.518480 -0.067657
v -0.044737 0.792402 -0.047691
v -0.044405 0.787397 -0.048569
v -0.044637 0.495551 -0.061168
v -0.041186 0.734627 -0.060211
v -0.044301 0.518606 -0.060033
v -0.042660 0.507400 -0.059922
v -0.040809 0.659109 -0.068301
v -0.041556 0.646735 -0.068741
v -0.043868 0.780777 -0.049629
v -0.042567 0.484489 -0.060343
v -0.040948 0.745359 -0.044851
v -0.042282 0.757445 -0.044145
v -0.042453 0.541376 -0.068450
v -0.043212 0.552566 -0.069008
v -0.041664 0.552893 -0.058441
v -0.042240 0.564150 -0.058709
v -0.043620 0.792091 -0.043148
v -0.039984 0.645474 -0.054390
v -0.041229 0.633395 -0.055275
v -0.043554 0.506925 -0.066867
v -0.041728 0.495660 -0.066200
v -0.043487 0.483923 -0.065083
v -0.043027 0.786645 -0.043258
v -0.041516 0.530154 -0.067675
v -0.039855 0.684167 -0.067159
v -0.040118 0.671609 -0.067720
v -0.040084 0.709757 -0.064732
v -0.040473 0.722356 -0.062577
v -0.040668 0.758657 -0.052945
v -0.042424 0.769994 -0.051269
v -0.042552 0.472765 -0.062833
v -0.042757 0.472911 -0.061265
v -0.040236 0.769605 -0.044363
v -0.042050 0.780727 -0.043565
v -0.041391 0.472811 -0.063927
v -0.039840 0.696962 -0.066276
v -0.042717 0.495886 -0.060636
v -0.043564 0.792240 -0.045033
v -0.042898 0.787161 -0.045803
v -0.040854 0.484794 -0.059901
v -0.041198 0.586741 -0.068375
v -0.040675 0.610071 -0.067821
v -0.041177 0.598469 -0.068379
v -0.040188 0.530406 -0.058813
v -0.041088 0.541617 -0.058610
v -0.041905 0.780874 -0.046524
v -0.041870 0.473162 -0.060159
v -0.041816 0.518985 -0.059448
v -0.040496 0.507769 -0.059268
v -0.040891 0.563935 -0.067208
v -0.041061 0.575159 -0.067907
v -0.038415 0.720267 -0.047391
v -0.039506 0.732639 -0.045878
v -0.041751 0.484179 -0.065419
v -0.038071 0.670433 -0.052159
v -0.038907 0.657921 -0.053492
v -0.041336 0.507261 -0.066633
v -0.039757 0.495982 -0.065890
v -0.039837 0.473000 -0.064273
v -0.039023 0.634143 -0.065992
v -0.039899 0.621888 -0.066965
v -0.040045 0.541627 -0.066192
v -0.040413 0.552785 -0.066654
v -0.039353 0.598143 -0.060224
v -0.039151 0.575410 -0.060467
v -0.039191 0.586798 -0.060347
v -0.040368 0.518862 -0.066936
v -0.039234 0.507594 -0.065945
v -0.040440 0.461868 -0.060258
v -0.039695 0.462127 -0.059074
v -0.040825 0.496218 -0.060033
v -0.039207 0.485108 -0.059255
v -0.038042 0.621090 -0.058409
v -0.038753 0.609327 -0.059311
v -0.037672 0.695401 -0.050181
v -0.037842 0.707864 -0.048778
v -0.040428 0.473450 -0.059484
v -0.040457 0.461704 -0.061651
v -0.037618 0.734152 -0.056529
v -0.039031 0.746622 -0.054568
v -0.042416 0.411922 -0.049773
v -0.042426 0.410739 -0.052424
v -0.042437 0.411772 -0.049694
v -0.041989 0.412373 -0.047916
v -0.041961 0.412520 -0.047991
v -0.042406 0.410907 -0.052488
v -0.041507 0.410709 -0.052199
v -0.041533 0.411216 -0.050589
v -0.041582 0.417823 -0.052862
v -0.041602 0.417517 -0.054974
v -0.041469 0.410867 -0.052276
v -0.040877 0.418329 -0.050969
v -0.040210 0.769941 -0.047714
v -0.038509 0.758366 -0.049003
v -0.037690 0.682881 -0.051118
v -0.037058 0.745806 -0.046267
v -0.038560 0.757933 -0.045137
v -0.038561 0.552954 -0.059991
v -0.038988 0.564208 -0.060303
v -0.041303 0.413208 -0.046052
v -0.041339 0.413063 -0.045972
v -0.039893 0.418905 -0.049174
v -0.038593 0.462428 -0.058038
v -0.038361 0.508063 -0.058961
v -0.039271 0.519262 -0.059321
v -0.039963 0.484452 -0.065327
v -0.038281 0.473249 -0.064031
v -0.039767 0.428248 -0.058113
v -0.039982 0.417094 -0.055327
v -0.037805 0.427871 -0.058455
v -0.040013 0.428715 -0.056331
v -0.036966 0.658677 -0.064424
v -0.037950 0.646214 -0.065110
v -0.040214 0.411072 -0.050438
v -0.040294 0.411921 -0.047974
v -0.039339 0.410741 -0.050817
v -0.038269 0.519197 -0.065530
v -0.039172 0.530475 -0.065924
v -0.039307 0.410898 -0.050897
v -0.039485 0.461721 -0.062736
v -0.040655 0.414170 -0.043779
v -0.040700 0.414033 -0.043687
v -0.037913 0.496312 -0.065109
v -0.038876 0.419556 -0.047402
v -0.036092 0.645395 -0.056689
v -0.037270 0.633389 -0.057571
v -0.038995 0.586819 -0.064526
v -0.038479 0.609681 -0.063719
v -0.039034 0.598332 -0.064411
v -0.037911 0.530583 -0.060386
v -0.038720 0.541711 -0.060217
v -0.038845 0.564119 -0.063875
v -0.038965 0.575318 -0.064309
v -0.039493 0.429110 -0.054561
v -0.039067 0.473740 -0.058669
v -0.038975 0.496551 -0.059269
v -0.037593 0.485423 -0.058580
v -0.039976 0.415133 -0.042011
v -0.039181 0.413085 -0.044750
v -0.040027 0.415004 -0.041919
v -0.037942 0.420200 -0.045632
v -0.036600 0.709255 -0.060676
v -0.036954 0.721839 -0.058733
v -0.039207 0.450649 -0.060439
v -0.038320 0.450519 -0.061684
v -0.039157 0.450890 -0.058914
v -0.037407 0.462733 -0.057057
v -0.038540 0.541722 -0.063264
v -0.038477 0.552889 -0.063521
v -0.037463 0.507895 -0.064659
v -0.038667 0.411638 -0.047930
v -0.037865 0.411025 -0.049181
v -0.036235 0.683852 -0.063078
v -0.036399 0.671300 -0.063687
v -0.039198 0.415999 -0.040375
v -0.039256 0.415876 -0.040285
v -0.038221 0.414489 -0.041744
v -0.039244 0.439631 -0.058694
v -0.039178 0.440029 -0.056970
v -0.036941 0.420821 -0.043901
v -0.038038 0.417100 -0.054050
v -0.035921 0.427917 -0.057211
v -0.038241 0.484741 -0.064846
v -0.036893 0.473530 -0.063287
v -0.038458 0.429488 -0.052894
v -0.036651 0.633713 -0.061945
v -0.037587 0.621434 -0.062835
v -0.038061 0.461874 -0.063015
v -0.036337 0.696563 -0.062158
v -0.038444 0.439228 -0.060286
v -0.038418 0.451191 -0.057545
v -0.034856 0.720679 -0.050136
v -0.035648 0.733013 -0.047707
v -0.038303 0.440383 -0.055406
v -0.036855 0.450529 -0.062095
v -0.037832 0.411179 -0.049261
v -0.036859 0.508147 -0.060480
v -0.037349 0.519365 -0.060690
v -0.037533 0.416066 -0.039139
v -0.037585 0.415932 -0.039052
v -0.037255 0.412617 -0.044882
v -0.035504 0.421366 -0.042531
v -0.037717 0.474029 -0.057833
v -0.037674 0.530627 -0.063332
v -0.037041 0.519361 -0.063239
v -0.036248 0.463023 -0.056140
v -0.036909 0.746269 -0.050381
v -0.035742 0.733568 -0.052157
v -0.037305 0.496849 -0.058518
v -0.036034 0.485680 -0.058161
v -0.034351 0.670648 -0.054656
v -0.034910 0.657945 -0.055697
v -0.037250 0.429899 -0.051283
v -0.036568 0.411495 -0.047126
v -0.037302 0.451481 -0.056355
v -0.037080 0.440701 -0.053978
v -0.036694 0.439101 -0.060633
v -0.036658 0.462079 -0.062677
v -0.036714 0.485043 -0.063919
v -0.035721 0.473810 -0.062258
v -0.036079 0.413798 -0.041881
v -0.035288 0.450713 -0.061527
v -0.036554 0.417235 -0.052390
v -0.034426 0.428122 -0.055574
v -0.036065 0.430324 -0.049659
v -0.034501 0.658257 -0.060143
v -0.035459 0.645681 -0.061080
v -0.036444 0.496620 -0.063775
v -0.035512 0.485326 -0.062633
v -0.036535 0.411644 -0.047205
v -0.034317 0.695728 -0.053316
v -0.034556 0.708258 -0.051898
v -0.036303 0.474310 -0.057115
v -0.034984 0.463317 -0.055240
v -0.034269 0.683200 -0.053862
v -0.035512 0.415315 -0.039165
v -0.035557 0.415171 -0.039089
v -0.033779 0.421012 -0.042180
v -0.036582 0.508079 -0.062692
v -0.035637 0.496857 -0.061977
v -0.036110 0.451766 -0.055213
v -0.035873 0.441013 -0.052528
v -0.035876 0.496970 -0.059902
v -0.034920 0.485706 -0.059271
v -0.035484 0.412258 -0.044800
v -0.034890 0.708732 -0.056159
v -0.035195 0.721218 -0.054334
v -0.034863 0.430757 -0.047977
v -0.035446 0.462330 -0.061789
v -0.034739 0.474087 -0.061035
v -0.034887 0.439276 -0.059702
v -0.034039 0.450985 -0.060380
v -0.035225 0.417497 -0.050333
v -0.033143 0.428433 -0.053764
v -0.035448 0.412402 -0.044882
v -0.034761 0.485567 -0.061047
v -0.034329 0.683581 -0.058545
v -0.034303 0.671020 -0.059245
v -0.034624 0.696142 -0.057688
v -0.034849 0.474527 -0.057011
v -0.033568 0.463488 -0.055291
v -0.034979 0.452060 -0.054109
v -0.034663 0.441374 -0.051040
v -0.034691 0.413087 -0.042490
v -0.034480 0.462601 -0.060622
v -0.034571 0.414359 -0.040293
v -0.034620 0.414227 -0.040214
v -0.032635 0.419581 -0.043406
v -0.033504 0.431081 -0.046551
v -0.031878 0.430991 -0.046207
v -0.034017 0.418074 -0.048106
v -0.034651 0.413230 -0.042576
v -0.033041 0.451288 -0.059010
v -0.032019 0.428910 -0.051877
v -0.033697 0.452408 -0.053033
v -0.033258 0.441644 -0.049968
v -0.033889 0.474539 -0.058087
v -0.033506 0.439563 -0.058356
v -0.032990 0.463380 -0.056534
v -0.034030 0.474338 -0.059675
v -0.033687 0.462872 -0.059330
v -0.033160 0.463136 -0.057984
v -0.033080 0.418855 -0.045930
v -0.032244 0.451604 -0.057532
v -0.031111 0.429510 -0.049914
v -0.030710 0.430226 -0.047818
v -0.032245 0.452543 -0.052997
v -0.031576 0.441589 -0.050010
v -0.031665 0.451950 -0.055948
v -0.032383 0.439902 -0.056843
v -0.031558 0.452308 -0.054328
v -0.031440 0.440284 -0.055196
v -0.030664 0.441199 -0.051465
v -0.030767 0.440740 -0.053308
usemtl Semitendinosus_muscle_rMaterial0
f 1 2 3
f 1 3 4
f 5 6 3
f 6 4 3
f 5 3 2
f 1 7 2
f 8 1 9
f 1 10 9
f 8 7 1
f 1 4 11
f 1 11 10
f 5 12 6
f 6 12 13
f 6 14 4
f 6 13 14
f 15 2 7
f 15 5 2
f 8 9 16
f 17 16 9
f 17 9 10
f 8 18 7
f 15 7 18
f 5 19 12
f 20 12 19
f 20 21 12
f 21 13 12
f 5 22 19
f 15 23 5
f 5 23 22
f 8 16 24
f 25 8 24
f 8 26 18
f 25 26 8
f 27 20 19
f 27 19 22
f 28 24 16
f 28 16 17
f 28 29 24
f 25 24 29
f 11 4 30
f 14 30 4
f 20 31 21
f 21 32 13
f 21 31 33
f 21 33 32
f 11 34 10
f 11 30 35
f 11 35 34
f 36 29 28
f 36 28 37
f 28 38 37
f 28 17 39
f 28 39 38
f 40 41 42
f 42 41 43
f 40 42 44
f 42 45 44
f 42 43 46
f 42 46 45
f 40 47 41
f 48 41 47
f 48 49 41
f 49 43 41
f 14 13 50
f 14 51 30
f 14 50 51
f 20 52 31
f 27 52 20
f 17 10 34
f 53 29 36
f 25 29 54
f 53 54 29
f 36 37 55
f 56 55 37
f 56 37 38
f 57 47 40
f 40 44 58
f 57 40 58
f 59 48 47
f 57 60 47
f 59 47 60
f 32 50 13
f 48 61 49
f 49 61 62
f 49 63 43
f 49 62 63
f 64 58 44
f 64 44 65
f 65 44 45
f 48 66 61
f 67 68 61
f 68 62 61
f 67 61 66
f 67 55 68
f 68 55 56
f 36 55 69
f 67 69 55
f 17 70 39
f 17 34 71
f 17 71 70
f 59 66 48
f 68 56 72
f 68 72 62
f 53 36 69
f 73 31 52
f 73 74 31
f 74 33 31
f 75 15 18
f 15 76 23
f 75 77 15
f 15 77 76
f 75 18 26
f 78 67 66
f 59 79 66
f 78 66 79
f 80 58 64
f 57 58 81
f 80 81 58
f 78 69 67
f 53 69 82
f 78 82 69
f 83 38 39
f 83 39 70
f 84 22 23
f 84 23 76
f 46 43 85
f 46 86 45
f 46 87 86
f 46 85 87
f 88 73 52
f 27 89 52
f 88 52 89
f 64 65 90
f 65 45 91
f 65 92 90
f 65 91 92
f 93 26 25
f 75 26 94
f 93 94 26
f 63 85 43
f 32 33 95
f 32 96 50
f 32 95 96
f 56 38 83
f 63 62 97
f 63 98 85
f 63 97 98
f 84 27 22
f 64 90 99
f 80 64 99
f 91 45 86
f 93 25 54
f 56 100 72
f 56 83 101
f 56 101 100
f 97 62 72
f 73 102 74
f 74 103 33
f 74 104 103
f 74 102 104
f 97 72 100
f 99 90 105
f 90 106 105
f 90 92 106
f 73 107 102
f 88 107 73
f 103 95 33
f 99 105 108
f 109 99 108
f 80 99 109
f 110 54 53
f 93 54 111
f 110 111 54
f 112 60 57
f 112 57 81
f 91 113 92
f 91 86 114
f 91 114 113
f 115 59 60
f 112 116 60
f 115 60 116
f 108 105 117
f 105 118 117
f 105 106 118
f 108 117 119
f 117 120 119
f 118 121 117
f 117 121 120
f 27 122 89
f 84 123 27
f 27 123 122
f 35 30 124
f 51 124 30
f 35 125 34
f 35 124 126
f 35 126 125
f 115 79 59
f 127 108 119
f 109 108 127
f 128 81 80
f 128 129 81
f 112 81 129
f 127 119 130
f 119 131 130
f 119 120 131
f 51 50 132
f 51 133 124
f 51 132 133
f 110 53 82
f 92 134 106
f 92 113 134
f 71 34 125
f 96 132 50
f 135 78 79
f 115 136 79
f 135 79 136
f 128 80 109
f 135 82 78
f 110 82 137
f 135 137 82
f 103 104 138
f 103 139 95
f 103 138 139
f 140 102 107
f 141 104 102
f 140 141 102
f 106 142 118
f 106 134 142
f 118 142 121
f 143 88 89
f 143 89 122
f 88 144 107
f 145 140 107
f 145 107 144
f 71 146 70
f 71 125 147
f 71 147 146
f 148 109 127
f 128 109 148
f 87 149 86
f 87 85 150
f 87 151 149
f 87 150 151
f 96 95 152
f 96 153 132
f 96 152 153
f 154 127 130
f 148 127 154
f 154 130 155
f 130 156 155
f 130 131 156
f 114 86 149
f 150 85 98
f 157 77 75
f 158 76 77
f 158 77 159
f 157 159 77
f 83 70 146
f 157 75 94
f 114 160 113
f 114 161 160
f 114 149 161
f 158 84 76
f 143 144 88
f 97 162 98
f 150 98 162
f 83 163 101
f 83 146 164
f 83 164 163
f 113 165 134
f 113 160 165
f 166 94 93
f 157 94 167
f 166 167 94
f 168 100 101
f 168 101 163
f 97 100 168
f 141 169 104
f 169 138 104
f 97 170 162
f 97 168 170
f 139 152 95
f 84 171 123
f 158 172 84
f 84 172 171
f 140 173 141
f 141 174 169
f 141 173 174
f 134 175 142
f 134 165 175
f 142 176 121
f 142 175 176
f 140 177 173
f 145 177 140
f 166 93 111
f 178 128 148
f 178 129 128
f 179 154 155
f 180 148 154
f 180 154 179
f 179 155 181
f 155 182 181
f 155 156 182
f 178 148 180
f 183 112 129
f 178 184 129
f 183 129 184
f 121 185 120
f 121 176 185
f 183 116 112
f 186 122 123
f 186 123 171
f 187 115 116
f 183 188 116
f 187 116 188
f 139 138 189
f 139 190 152
f 139 189 190
f 191 145 144
f 143 192 144
f 191 144 192
f 193 111 110
f 166 111 194
f 193 194 111
f 187 136 115
f 133 195 124
f 133 132 196
f 133 196 197
f 133 197 195
f 126 124 195
f 153 196 132
f 193 110 137
f 126 198 125
f 126 195 199
f 126 199 198
f 186 143 122
f 169 200 138
f 169 174 201
f 169 201 200
f 202 135 136
f 187 203 136
f 202 136 203
f 120 204 131
f 120 185 204
f 205 173 177
f 206 174 173
f 205 206 173
f 202 137 135
f 193 137 207
f 202 207 137
f 161 208 160
f 161 149 209
f 161 210 208
f 161 209 210
f 160 211 165
f 160 208 211
f 153 152 212
f 153 213 196
f 153 212 213
f 165 214 175
f 165 211 214
f 175 215 176
f 175 214 215
f 209 149 151
f 200 189 138
f 147 125 198
f 145 216 177
f 217 177 216
f 217 205 177
f 150 218 151
f 209 151 218
f 191 216 145
f 143 219 192
f 186 220 143
f 143 220 219
f 147 221 146
f 147 198 222
f 147 222 221
f 190 212 152
f 150 162 223
f 150 224 218
f 150 223 224
f 225 180 179
f 225 178 180
f 226 179 181
f 225 179 226
f 226 181 182
f 223 162 170
f 227 158 159
f 228 159 157
f 227 159 229
f 228 229 159
f 164 146 221
f 227 172 158
f 206 230 174
f 230 201 174
f 178 231 184
f 225 232 178
f 178 232 231
f 233 171 172
f 227 234 172
f 233 172 234
f 228 157 167
f 131 235 156
f 131 204 235
f 190 189 236
f 190 237 212
f 190 236 237
f 238 191 192
f 238 192 219
f 168 239 170
f 223 170 239
f 205 240 206
f 206 241 230
f 206 240 241
f 200 242 189
f 200 201 243
f 200 243 242
f 164 244 163
f 164 221 245
f 164 245 244
f 176 246 185
f 176 215 246
f 168 163 244
f 168 247 239
f 168 244 247
f 248 183 184
f 248 184 231
f 233 186 171
f 249 167 166
f 228 167 250
f 249 250 167
f 191 251 216
f 252 217 216
f 252 216 251
f 205 253 240
f 217 253 205
f 248 188 183
f 211 215 214
f 208 254 211
f 211 254 215
f 242 236 189
f 255 208 210
f 208 255 254
f 156 256 182
f 156 235 256
f 209 257 210
f 255 210 257
f 186 258 220
f 233 259 186
f 186 259 258
f 249 166 194
f 197 196 260
f 197 261 195
f 197 260 262
f 197 262 261
f 263 187 188
f 248 264 188
f 263 188 264
f 213 260 196
f 238 251 191
f 199 195 261
f 209 218 265
f 209 266 257
f 209 265 266
f 213 212 267
f 213 268 260
f 213 267 268
f 230 269 201
f 230 270 269
f 230 241 270
f 263 203 187
f 271 194 193
f 249 194 272
f 271 272 194
f 269 243 201
f 273 219 220
f 273 220 258
f 199 274 198
f 199 261 275
f 199 275 274
f 265 218 224
f 271 193 207
f 276 202 203
f 263 277 203
f 276 203 277
f 237 267 212
f 185 278 204
f 185 246 278
f 279 240 253
f 280 241 240
f 279 280 240
f 242 281 236
f 242 243 282
f 242 282 281
f 276 207 202
f 217 283 253
f 252 283 217
f 271 207 284
f 276 284 207
f 285 226 182
f 286 225 226
f 286 226 285
f 285 182 256
f 222 198 274
f 286 232 225
f 273 238 219
f 287 231 232
f 286 288 232
f 287 232 288
f 223 289 224
f 265 224 289
f 238 290 251
f 291 252 251
f 291 251 290
f 237 236 292
f 237 293 267
f 237 292 293
f 294 253 283
f 294 279 253
f 269 295 243
f 269 270 296
f 269 296 295
f 222 297 221
f 222 274 298
f 222 298 297
f 287 248 231
f 223 239 299
f 223 300 289
f 223 299 300
f 254 246 215
f 255 301 254
f 254 301 246
f 302 234 227
f 303 233 234
f 303 234 304
f 302 304 234
f 280 305 241
f 305 270 241
f 281 292 236
f 302 227 229
f 255 257 306
f 255 307 301
f 255 306 307
f 295 282 243
f 303 259 233
f 238 308 290
f 273 309 238
f 238 309 308
f 306 257 266
f 310 229 228
f 302 229 311
f 310 311 229
f 247 299 239
f 245 221 297
f 312 258 259
f 303 313 259
f 312 259 313
f 248 314 264
f 287 315 248
f 248 315 314
f 204 316 235
f 204 278 316
f 252 317 283
f 318 283 317
f 318 294 283
f 247 244 319
f 247 320 299
f 247 319 320
f 291 317 252
f 279 321 280
f 280 322 305
f 280 321 322
f 245 319 244
f 245 297 323
f 245 323 319
f 265 324 266
f 306 266 324
f 310 228 250
f 281 282 325
f 281 326 292
f 281 325 326
f 262 260 327
f 268 327 260
f 312 273 258
f 262 328 261
f 262 327 329
f 262 329 328
f 294 330 279
f 279 330 321
f 268 267 331
f 268 332 327
f 268 331 332
f 235 333 256
f 235 316 333
f 334 291 290
f 334 290 308
f 335 285 256
f 336 286 285
f 336 285 335
f 335 256 333
f 275 261 328
f 305 337 270
f 337 296 270
f 336 288 286
f 338 263 264
f 338 264 314
f 295 339 282
f 295 296 340
f 295 340 339
f 341 250 249
f 310 250 342
f 341 342 250
f 293 331 267
f 287 288 343
f 336 343 288
f 305 344 337
f 305 322 344
f 265 289 345
f 265 346 324
f 265 345 346
f 273 347 309
f 312 348 273
f 273 348 347
f 301 278 246
f 293 292 349
f 293 350 331
f 293 349 350
f 307 351 301
f 301 351 278
f 275 352 274
f 275 328 353
f 275 353 352
f 341 249 272
f 339 325 282
f 338 277 263
f 291 354 317
f 355 318 317
f 355 317 354
f 294 356 330
f 318 356 294
f 306 357 307
f 307 357 351
f 358 308 309
f 358 309 347
f 359 272 271
f 341 272 360
f 359 360 272
f 300 345 289
f 361 276 277
f 338 362 277
f 361 277 362
f 334 354 291
f 363 315 287
f 287 343 364
f 363 287 364
f 326 349 292
f 365 321 330
f 366 322 321
f 365 366 321
f 306 324 367
f 306 368 357
f 306 367 368
f 359 271 284
f 361 284 276
f 369 330 356
f 369 365 330
f 298 274 352
f 361 370 284
f 359 284 370
f 337 371 296
f 371 340 296
f 372 335 333
f 373 336 335
f 373 335 372
f 372 333 316
f 337 374 371
f 337 344 374
f 375 303 304
f 376 304 302
f 375 304 377
f 376 377 304
f 375 313 303
f 326 325 378
f 326 379 349
f 326 378 379
f 380 343 336
f 380 336 373
f 366 381 322
f 381 344 322
f 339 382 325
f 339 340 383
f 339 383 382
f 384 312 313
f 375 385 313
f 384 313 385
f 358 334 308
f 376 302 311
f 300 299 386
f 300 387 345
f 300 386 387
f 384 348 312
f 363 314 315
f 380 364 343
f 318 388 356
f 355 388 318
f 298 389 297
f 298 352 390
f 298 390 389
f 346 367 324
f 351 316 278
f 351 372 316
f 357 372 351
f 334 391 354
f 392 355 354
f 392 354 391
f 357 373 372
f 393 356 388
f 393 369 356
f 394 311 310
f 376 311 395
f 394 395 311
f 382 378 325
f 396 347 348
f 384 397 348
f 396 348 397
f 320 386 299
f 332 398 327
f 329 327 398
f 368 373 357
f 332 331 399
f 332 400 398
f 332 399 400
f 368 380 373
f 358 401 334
f 334 402 391
f 334 401 402
f 365 403 366
f 366 404 381
f 366 403 404
f 323 297 389
f 371 405 340
f 371 374 406
f 371 406 405
f 329 407 328
f 329 398 408
f 329 408 407
f 405 383 340
f 320 319 409
f 320 410 386
f 320 409 410
f 350 399 331
f 394 310 342
f 381 411 344
f 411 374 344
f 369 412 365
f 365 412 403
f 413 338 314
f 363 414 314
f 413 314 414
f 396 358 347
f 415 416 417
f 416 418 417
f 419 415 417
f 419 417 418
f 415 420 416
f 420 421 416
f 416 422 418
f 421 422 416
f 423 420 415
f 423 424 420
f 424 425 420
f 420 425 421
f 426 415 419
f 426 423 415
f 380 427 364
f 428 363 364
f 428 364 427
f 323 409 319
f 323 389 429
f 323 429 409
f 346 345 430
f 346 431 367
f 346 430 431
f 350 349 432
f 350 433 399
f 350 432 433
f 353 328 407
f 368 427 380
f 368 367 427
f 434 419 418
f 422 435 418
f 434 418 435
f 436 419 434
f 436 426 419
f 381 437 411
f 381 404 437
f 382 383 438
f 382 439 378
f 382 438 439
f 355 440 388
f 441 388 440
f 441 393 388
f 392 440 355
f 379 432 349
f 442 424 423
f 424 443 425
f 444 443 424
f 444 424 442
f 445 423 426
f 442 423 445
f 446 342 341
f 394 342 447
f 446 447 342
f 421 448 422
f 422 449 435
f 448 449 422
f 425 450 421
f 450 448 421
f 358 451 401
f 396 452 358
f 358 452 451
f 443 453 425
f 425 453 450
f 369 454 412
f 393 454 369
f 455 434 435
f 455 435 456
f 449 456 435
f 457 392 391
f 457 391 402
f 458 434 455
f 458 436 434
f 353 459 352
f 353 407 460
f 353 460 459
f 461 375 377
f 461 385 375
f 462 377 376
f 461 377 463
f 462 463 377
f 413 362 338
f 379 378 464
f 379 465 432
f 379 464 465
f 466 384 385
f 461 467 385
f 466 385 467
f 387 430 345
f 466 397 384
f 445 426 468
f 468 426 436
f 411 469 374
f 469 406 374
f 405 470 383
f 405 406 471
f 405 471 470
f 446 341 360
f 472 455 456
f 449 473 456
f 472 456 474
f 473 474 456
f 462 376 395
f 428 414 363
f 475 455 472
f 475 458 455
f 470 438 383
f 476 361 362
f 413 477 362
f 476 362 477
f 478 403 412
f 479 412 454
f 479 478 412
f 480 404 403
f 478 480 403
f 411 481 469
f 411 437 481
f 482 396 397
f 466 483 397
f 482 397 483
f 484 402 401
f 484 401 451
f 448 485 449
f 485 473 449
f 431 427 367
f 450 486 448
f 486 485 448
f 431 428 427
f 439 464 378
f 487 360 359
f 446 360 488
f 487 488 360
f 476 370 361
f 482 452 396
f 489 472 474
f 489 474 490
f 491 490 474
f 473 491 474
f 442 445 492
f 445 468 493
f 445 493 492
f 494 472 489
f 494 475 472
f 443 495 453
f 496 495 443
f 496 443 444
f 390 352 459
f 392 497 440
f 498 441 440
f 498 440 497
f 468 436 499
f 499 436 458
f 500 395 394
f 462 395 501
f 500 501 395
f 487 359 370
f 393 502 454
f 441 502 393
f 476 503 370
f 487 370 503
f 442 492 504
f 444 442 504
f 457 497 392
f 480 505 404
f 505 437 404
f 387 386 506
f 387 507 430
f 387 506 507
f 468 508 493
f 468 499 508
f 509 479 454
f 509 454 502
f 400 463 398
f 408 398 463
f 453 486 450
f 495 510 453
f 453 510 486
f 439 438 511
f 439 512 464
f 439 511 512
f 513 489 490
f 491 514 490
f 513 490 514
f 478 492 493
f 479 492 478
f 479 504 492
f 484 457 402
f 485 515 473
f 515 491 473
f 516 489 513
f 516 494 489
f 478 493 480
f 480 493 508
f 469 517 406
f 517 471 406
f 482 518 452
f 519 451 452
f 519 452 518
f 400 399 467
f 400 461 463
f 400 467 461
f 480 508 505
f 433 467 399
f 469 520 517
f 469 481 520
f 408 463 462
f 500 394 447
f 428 521 414
f 522 413 414
f 522 414 521
f 433 466 467
f 433 483 466
f 433 432 483
f 470 523 438
f 470 471 524
f 470 524 523
f 390 525 389
f 390 459 526
f 390 526 525
f 499 458 527
f 527 458 475
f 408 462 501
f 408 501 407
f 465 483 432
f 465 482 483
f 465 518 482
f 465 464 518
f 486 528 485
f 528 515 485
f 505 529 437
f 529 481 437
f 431 521 428
f 431 430 521
f 499 530 508
f 499 527 530
f 509 504 479
f 444 504 531
f 509 531 504
f 505 508 530
f 505 530 529
f 410 506 386
f 523 511 438
f 441 532 502
f 498 532 441
f 519 484 451
f 457 533 497
f 534 498 497
f 534 497 533
f 535 514 491
f 515 535 491
f 536 509 502
f 536 502 532
f 429 389 525
f 495 537 510
f 538 537 495
f 538 495 496
f 460 407 501
f 527 475 539
f 539 475 494
f 540 447 446
f 500 447 541
f 540 541 447
f 484 542 457
f 457 543 533
f 457 542 543
f 512 518 464
f 510 528 486
f 510 544 528
f 537 544 510
f 410 409 545
f 410 546 506
f 410 545 546
f 496 444 531
f 517 547 471
f 517 548 547
f 517 520 548
f 429 545 409
f 429 525 549
f 429 549 545
f 512 519 518
f 522 477 413
f 550 513 514
f 535 551 514
f 550 514 551
f 547 524 471
f 460 501 500
f 552 513 550
f 552 516 513
f 519 553 484
f 484 553 554
f 484 554 542
f 529 555 481
f 555 520 481
f 512 553 519
f 512 511 553
f 529 530 556
f 529 556 555
f 523 557 511
f 523 524 558
f 523 558 557
f 460 500 541
f 460 541 459
f 528 559 515
f 559 535 515
f 527 556 530
f 527 539 556
f 507 521 430
f 540 446 488
f 560 476 477
f 522 561 477
f 560 477 561
f 539 494 562
f 562 494 516
f 507 522 521
f 498 563 532
f 534 563 498
f 536 531 509
f 557 553 511
f 564 534 533
f 564 533 543
f 496 531 565
f 536 565 531
f 566 532 563
f 566 536 532
f 560 503 476
f 557 554 553
f 544 559 528
f 537 567 544
f 568 567 537
f 568 537 538
f 544 569 559
f 567 569 544
f 570 542 554
f 570 543 542
f 571 488 487
f 540 488 572
f 571 572 488
f 571 487 503
f 560 573 503
f 571 503 573
f 547 574 524
f 547 548 575
f 547 575 574
f 555 576 520
f 576 548 520
f 555 556 577
f 555 577 576
f 526 459 541
f 578 551 535
f 559 578 535
f 539 577 556
f 539 562 577
f 574 558 524
f 538 496 565
f 557 570 554
f 557 558 570
f 507 561 522
f 534 579 563
f 564 579 534
f 507 506 561
f 580 550 551
f 578 581 551
f 580 551 581
f 582 550 580
f 582 552 550
f 562 516 583
f 584 516 552
f 584 583 516
f 570 564 543
f 569 578 559
f 526 541 540
f 567 585 569
f 569 586 578
f 585 586 569
f 587 563 579
f 587 566 563
f 566 565 536
f 588 585 567
f 588 567 568
f 546 560 561
f 546 561 506
f 576 589 548
f 576 577 590
f 576 590 589
f 589 575 548
f 574 591 558
f 570 558 591
f 526 540 572
f 526 572 525
f 538 565 592
f 566 592 565
f 546 573 560
f 562 590 577
f 562 583 590
f 574 593 591
f 574 575 593
f 570 594 564
f 570 591 594
f 564 595 579
f 564 594 596
f 564 596 595
f 586 581 578
f 586 580 581
f 597 580 586
f 585 597 586
f 546 545 573
f 549 571 573
f 549 573 545
f 597 582 580
f 598 579 595
f 598 587 579
f 568 538 592
f 549 525 572
f 549 572 571
f 587 592 566
f 593 594 591
f 593 596 594
f 599 597 585
f 599 585 588
f 600 552 582
f 600 584 552
f 589 601 575
f 589 590 602
f 589 602 601
f 603 595 596
f 603 598 595
f 593 575 601
f 602 590 583
f 602 583 584
f 568 592 604
f 587 604 592
f 593 603 596
f 588 568 604
f 600 582 597
f 600 597 599
f 598 604 587
f 593 601 605
f 593 605 603
f 598 606 604
f 588 604 606
f 603 606 598
f 602 605 601
f 599 588 606
f 602 584 600
f 603 605 607
f 603 608 606
f 603 607 608
f 602 607 605
f 602 600 607
f 599 606 608
f 600 599 608
f 600 608 607
