# 
# Wavefront OBJ file
# Created with Kaydara FBX
# 
mtllib c:\users\tjvan\onedrive\documenten\fontys\minor\nx\.mtlmodels\short_head_of_biceps_femoris.r.obj

g Short_head_of_biceps_femoris_r
v -0.124441 0.436823 -0.045050
v -0.124251 0.436653 -0.047613
v -0.124452 0.436665 -0.045084
v -0.123575 0.436800 -0.042916
v -0.121843 0.436642 -0.047954
v -0.123594 0.436656 -0.042953
v -0.120921 0.436638 -0.045105
v -0.124255 0.436822 -0.047587
v -0.124169 0.440800 -0.044198
v -0.123082 0.440420 -0.041973
v -0.124349 0.441082 -0.046933
v -0.123946 0.436839 -0.050420
v -0.123959 0.445812 -0.043589
v -0.124035 0.446280 -0.046421
v -0.123257 0.446587 -0.049353
v -0.123699 0.441256 -0.049945
v -0.123956 0.436663 -0.050438
v -0.122282 0.436620 -0.050610
v -0.123318 0.453158 -0.045382
v -0.122590 0.453504 -0.048359
v -0.122766 0.436632 -0.052924
v -0.122750 0.436816 -0.052915
v -0.123198 0.452564 -0.042401
v -0.122177 0.451736 -0.039704
v -0.122903 0.445169 -0.041152
v -0.121955 0.446724 -0.052135
v -0.122349 0.441431 -0.052698
v -0.122165 0.436807 -0.042038
v -0.122210 0.436674 -0.042074
v -0.120063 0.436663 -0.043150
v -0.121048 0.440159 -0.041135
v -0.122199 0.460423 -0.044018
v -0.121584 0.460799 -0.047247
v -0.121436 0.453661 -0.051370
v -0.121914 0.459711 -0.040894
v -0.120634 0.444577 -0.040099
v -0.120823 0.436582 -0.054544
v -0.119702 0.436584 -0.053228
v -0.120803 0.436760 -0.054550
v -0.119876 0.446646 -0.054343
v -0.120301 0.441229 -0.054719
v -0.118801 0.436630 -0.050958
v -0.120021 0.436795 -0.043123
v -0.120811 0.467972 -0.042614
v -0.120775 0.458783 -0.038051
v -0.118407 0.457762 -0.036344
v -0.119791 0.450899 -0.038306
v -0.118961 0.440109 -0.042437
v -0.120257 0.467127 -0.039257
v -0.118264 0.436643 -0.047891
v -0.120511 0.460999 -0.050562
v -0.120280 0.468418 -0.046282
v -0.119067 0.468664 -0.049748
v -0.117981 0.460866 -0.052953
v -0.119166 0.453563 -0.053652
v -0.118426 0.436674 -0.045172
v -0.119051 0.436609 -0.055119
v -0.117403 0.436623 -0.054666
v -0.119006 0.436768 -0.055125
v -0.119116 0.476127 -0.045282
v -0.118658 0.474392 -0.037314
v -0.119446 0.475431 -0.041160
v -0.119034 0.466040 -0.036204
v -0.118371 0.444514 -0.041344
v -0.116427 0.468536 -0.052181
v -0.117856 0.440760 -0.055271
v -0.117599 0.476487 -0.048983
v -0.118389 0.436806 -0.045145
v -0.117460 0.440134 -0.044464
v -0.116368 0.453235 -0.054735
v -0.117314 0.446317 -0.055288
v -0.117214 0.450704 -0.039556
v -0.116100 0.436674 -0.052924
v -0.117792 0.483738 -0.043851
v -0.118265 0.482853 -0.039362
v -0.114950 0.460431 -0.053985
v -0.117128 0.473072 -0.034149
v -0.116582 0.464858 -0.034476
v -0.117348 0.436768 -0.054643
v -0.116804 0.444763 -0.043591
v -0.115880 0.436674 -0.050116
v -0.117303 0.481515 -0.034951
v -0.115071 0.479949 -0.031777
v -0.116860 0.436809 -0.047248
v -0.116887 0.436674 -0.047261
v -0.115607 0.457366 -0.037526
v -0.113701 0.464204 -0.035547
v -0.116180 0.440216 -0.046929
v -0.116993 0.490049 -0.037336
v -0.115964 0.440417 -0.054066
v -0.115110 0.445884 -0.054192
v -0.115991 0.484189 -0.047757
v -0.116159 0.491076 -0.042030
v -0.114189 0.491611 -0.045978
v -0.114803 0.476393 -0.051407
v -0.113046 0.484067 -0.050386
v -0.116066 0.436814 -0.052886
v -0.113946 0.452705 -0.053589
v -0.115926 0.488640 -0.032606
v -0.115626 0.451078 -0.042079
v -0.114607 0.471694 -0.032363
v -0.114695 0.498194 -0.040135
v -0.114284 0.496023 -0.030572
v -0.115503 0.497285 -0.035359
v -0.115861 0.436812 -0.050093
v -0.115369 0.440300 -0.049514
v -0.115625 0.445069 -0.046181
v -0.114505 0.451504 -0.044924
v -0.113206 0.467978 -0.052999
v -0.111274 0.475782 -0.051740
v -0.112610 0.498727 -0.044164
v -0.115214 0.440337 -0.051948
v -0.111009 0.491547 -0.048639
v -0.114473 0.445619 -0.051728
v -0.113042 0.487091 -0.029302
v -0.114801 0.445411 -0.048974
v -0.113894 0.457636 -0.040292
v -0.113518 0.505287 -0.038567
v -0.114181 0.504525 -0.033789
v -0.112176 0.478411 -0.029950
v -0.109677 0.485578 -0.027468
v -0.112464 0.459707 -0.052562
v -0.110566 0.467058 -0.051435
v -0.113734 0.451885 -0.047919
v -0.109279 0.483280 -0.050661
v -0.111503 0.470730 -0.033054
v -0.112728 0.458089 -0.043446
v -0.111972 0.458578 -0.046608
v -0.113345 0.452262 -0.050881
v -0.112799 0.503517 -0.028892
v -0.111231 0.494612 -0.027036
v -0.109534 0.502455 -0.025218
v -0.113526 0.511880 -0.032666
v -0.111692 0.459077 -0.049701
v -0.111766 0.464292 -0.038381
v -0.109191 0.470652 -0.035793
v -0.112883 0.512509 -0.037588
v -0.110311 0.512816 -0.041537
v -0.111207 0.505710 -0.042539
v -0.113247 0.519435 -0.031944
v -0.112402 0.519847 -0.036985
v -0.111724 0.518990 -0.026908
v -0.112021 0.511128 -0.027616
v -0.112740 0.527211 -0.031607
v -0.111860 0.527429 -0.036698
v -0.108395 0.474740 -0.049920
v -0.110039 0.520023 -0.041195
v -0.111271 0.526866 -0.026801
v -0.111902 0.535030 -0.031442
v -0.111088 0.535140 -0.036590
v -0.110348 0.464720 -0.041715
v -0.107763 0.505681 -0.045432
v -0.109216 0.498653 -0.046772
v -0.109322 0.466135 -0.048430
v -0.109293 0.527378 -0.041037
v -0.108830 0.477160 -0.030241
v -0.108488 0.510435 -0.023886
v -0.109442 0.465369 -0.045077
v -0.110454 0.534627 -0.026652
v -0.110849 0.542703 -0.031140
v -0.107321 0.526392 -0.023345
v -0.107911 0.518478 -0.023309
v -0.107598 0.493326 -0.025086
v -0.106537 0.512732 -0.044457
v -0.110090 0.542853 -0.036323
v -0.107419 0.542777 -0.040648
v -0.108347 0.535022 -0.040999
v -0.107107 0.490677 -0.048861
v -0.105114 0.497763 -0.046802
v -0.109431 0.542247 -0.026212
v -0.109156 0.550410 -0.035917
v -0.109798 0.550140 -0.030784
v -0.108438 0.549739 -0.025798
v -0.106560 0.534034 -0.023181
v -0.107420 0.471157 -0.039201
v -0.105489 0.519691 -0.043147
v -0.106622 0.550521 -0.040231
v -0.108485 0.557932 -0.035387
v -0.109042 0.557570 -0.030400
v -0.106134 0.484433 -0.027451
v -0.103841 0.492336 -0.025054
v -0.104299 0.509771 -0.021827
v -0.105679 0.501487 -0.023204
v -0.106341 0.472206 -0.043007
v -0.105600 0.541610 -0.022750
v -0.106641 0.473446 -0.046767
v -0.103842 0.534676 -0.043158
v -0.104606 0.527027 -0.043022
v -0.106289 0.482135 -0.048264
v -0.104011 0.489276 -0.046350
v -0.103396 0.504833 -0.045070
v -0.106085 0.476920 -0.032725
v -0.104236 0.477546 -0.036257
v -0.105962 0.558260 -0.039409
v -0.108006 0.565462 -0.034471
v -0.108457 0.565044 -0.029881
v -0.107670 0.557223 -0.025555
v -0.107967 0.572726 -0.029267
v -0.106936 0.564755 -0.025436
v -0.104145 0.556833 -0.022168
v -0.104744 0.549222 -0.022328
v -0.104294 0.480710 -0.044737
v -0.103091 0.542481 -0.042761
v -0.107661 0.573105 -0.033419
v -0.105232 0.573480 -0.036736
v -0.105428 0.565885 -0.038024
v -0.107069 0.580832 -0.032437
v -0.107380 0.580462 -0.028640
v -0.105861 0.580123 -0.024937
v -0.106342 0.572400 -0.025280
v -0.103355 0.517942 -0.021223
v -0.101820 0.511901 -0.043931
v -0.104817 0.581108 -0.035491
v -0.102373 0.550389 -0.042235
v -0.106524 0.588457 -0.031527
v -0.106836 0.588159 -0.027961
v -0.101642 0.533495 -0.021231
v -0.102507 0.525888 -0.021314
v -0.101878 0.496355 -0.044261
v -0.103639 0.564486 -0.022149
v -0.106225 0.595849 -0.027481
v -0.105315 0.587891 -0.024553
v -0.103499 0.478935 -0.040535
v -0.105947 0.596063 -0.030850
v -0.103960 0.596241 -0.033527
v -0.104371 0.588690 -0.034389
v -0.103249 0.572148 -0.022206
v -0.101951 0.487673 -0.042520
v -0.105380 0.603522 -0.030172
v -0.105570 0.603275 -0.027064
v -0.104228 0.602996 -0.024026
v -0.104747 0.595551 -0.024285
v -0.103285 0.484192 -0.029731
v -0.101541 0.566087 -0.039821
v -0.101865 0.558336 -0.041304
v -0.103677 0.603719 -0.032573
v -0.102608 0.587649 -0.021810
v -0.102956 0.579899 -0.022070
v -0.105728 0.687933 -0.020706
v -0.105702 0.680777 -0.020826
v -0.105856 0.687783 -0.019787
v -0.105358 0.694660 -0.019155
v -0.105204 0.680700 -0.019805
v -0.105558 0.694515 -0.018440
v -0.105414 0.687682 -0.018972
v -0.105627 0.680913 -0.021935
v -0.104907 0.681064 -0.022779
v -0.104799 0.694737 -0.019528
v -0.105042 0.688061 -0.021331
v -0.105562 0.673763 -0.021559
v -0.101692 0.500627 -0.023273
v -0.105529 0.673886 -0.022914
v -0.100747 0.541075 -0.020838
v -0.105149 0.610658 -0.029442
v -0.105242 0.610404 -0.026590
v -0.105432 0.666870 -0.023613
v -0.105487 0.666752 -0.022094
v -0.104808 0.666687 -0.020758
v -0.104950 0.673696 -0.020370
v -0.105170 0.694406 -0.017909
v -0.104977 0.698220 -0.017663
v -0.104892 0.697535 -0.017438
v -0.104706 0.674026 -0.023945
v -0.099456 0.526540 -0.042982
v -0.100439 0.519097 -0.043357
v -0.105380 0.659709 -0.022594
v -0.104762 0.659629 -0.021086
v -0.101416 0.573641 -0.038304
v -0.105306 0.659836 -0.024216
v -0.104419 0.659979 -0.025529
v -0.104584 0.667004 -0.024856
v -0.104670 0.687641 -0.018435
v -0.105199 0.652608 -0.023087
v -0.104642 0.652520 -0.021441
v -0.104858 0.698474 -0.018108
v -0.105195 0.652754 -0.024838
v -0.104965 0.617549 -0.026097
v -0.104019 0.610185 -0.023802
v -0.104976 0.645545 -0.023617
v -0.104986 0.645719 -0.025477
v -0.104293 0.652938 -0.026304
v -0.103982 0.673677 -0.019444
v -0.104358 0.680676 -0.019049
v -0.104483 0.697770 -0.017246
v -0.104599 0.694372 -0.017648
v -0.104975 0.617780 -0.028663
v -0.103597 0.617980 -0.030822
v -0.103637 0.610874 -0.031697
v -0.099854 0.503548 -0.042334
v -0.104130 0.688122 -0.021464
v -0.104189 0.694749 -0.019544
v -0.104702 0.624761 -0.027854
v -0.104701 0.624528 -0.025473
v -0.103762 0.624315 -0.023206
v -0.103887 0.617325 -0.023582
v -0.103469 0.624988 -0.029862
v -0.104909 0.638723 -0.026286
v -0.104925 0.638490 -0.024215
v -0.104205 0.638355 -0.022284
v -0.104394 0.645428 -0.021838
v -0.104039 0.645934 -0.027059
v -0.104455 0.699603 -0.017254
v -0.104358 0.700018 -0.017663
v -0.103762 0.666662 -0.019691
v -0.104816 0.631496 -0.024852
v -0.103968 0.631334 -0.022737
v -0.104816 0.631730 -0.027102
v -0.103699 0.631978 -0.028983
v -0.103891 0.638984 -0.028047
v -0.103417 0.674128 -0.024262
v -0.103795 0.681158 -0.023047
v -0.104624 0.697873 -0.018543
v -0.104214 0.698610 -0.018342
v -0.101076 0.588795 -0.035675
v -0.101266 0.581248 -0.037024
v -0.103665 0.659598 -0.019892
v -0.100107 0.548802 -0.020542
v -0.102235 0.595274 -0.021726
v -0.104008 0.694360 -0.017451
v -0.103341 0.680682 -0.018502
v -0.103828 0.687636 -0.018069
v -0.103194 0.645383 -0.020363
v -0.103539 0.652489 -0.020081
v -0.098844 0.534217 -0.042651
v -0.103962 0.697828 -0.017061
v -0.103146 0.667102 -0.025348
v -0.103894 0.699895 -0.017013
v -0.103800 0.700218 -0.017443
v -0.102669 0.653081 -0.026880
v -0.102917 0.660087 -0.026049
v -0.102877 0.638297 -0.020666
v -0.100927 0.596363 -0.034735
v -0.102848 0.673692 -0.018735
v -0.103711 0.698456 -0.018202
v -0.101087 0.485991 -0.037925
v -0.098593 0.517362 -0.021744
v -0.099938 0.509063 -0.022213
v -0.101576 0.484765 -0.033488
v -0.101951 0.610020 -0.021583
v -0.101948 0.602797 -0.021638
v -0.102593 0.631259 -0.020970
v -0.103592 0.694731 -0.019361
v -0.099572 0.564225 -0.020474
v -0.099771 0.556494 -0.020516
v -0.102734 0.681171 -0.022637
v -0.103286 0.688114 -0.021145
v -0.102312 0.646099 -0.027723
v -0.099577 0.494779 -0.040397
v -0.103447 0.697637 -0.016928
v -0.102971 0.687650 -0.017833
v -0.103413 0.694349 -0.017276
v -0.102494 0.666666 -0.018882
v -0.103353 0.699494 -0.016883
v -0.102042 0.617140 -0.021459
v -0.101973 0.639178 -0.028834
v -0.103279 0.699779 -0.017284
v -0.100871 0.491972 -0.027453
v -0.098377 0.500090 -0.025690
v -0.098263 0.542086 -0.042246
v -0.102270 0.680700 -0.018092
v -0.103246 0.698284 -0.017977
v -0.102244 0.624198 -0.021319
v -0.103068 0.694686 -0.019020
v -0.101262 0.625110 -0.030655
v -0.101607 0.632181 -0.029767
v -0.101116 0.610987 -0.032654
v -0.100959 0.603877 -0.033650
v -0.102007 0.652518 -0.019238
v -0.102284 0.659609 -0.019039
v -0.101161 0.618058 -0.031700
v -0.101537 0.645412 -0.019444
v -0.103041 0.697111 -0.016912
v -0.102865 0.697862 -0.016993
v -0.101698 0.667114 -0.024740
v -0.102168 0.674159 -0.023801
v -0.102798 0.694343 -0.017153
v -0.102088 0.687680 -0.017735
v -0.102825 0.697847 -0.017450
v -0.101603 0.673720 -0.018192
v -0.102579 0.688071 -0.020592
v -0.101885 0.681141 -0.021855
v -0.102905 0.697470 -0.017886
v -0.099429 0.571965 -0.020569
v -0.102639 0.694614 -0.018563
v -0.101027 0.638326 -0.019696
v -0.102013 0.687996 -0.019865
v -0.101173 0.680749 -0.017900
v -0.099322 0.579780 -0.020514
v -0.101381 0.660097 -0.025506
v -0.102287 0.694520 -0.018009
v -0.102287 0.694397 -0.017328
v -0.101440 0.687777 -0.018172
v -0.100553 0.646159 -0.027249
v -0.101055 0.653113 -0.026369
v -0.099103 0.595130 -0.020373
v -0.099170 0.587475 -0.020345
v -0.100278 0.624211 -0.020068
v -0.100688 0.631256 -0.019891
v -0.101235 0.681081 -0.020892
v -0.097533 0.525404 -0.021836
v -0.100732 0.659645 -0.018420
v -0.101079 0.666710 -0.018240
v -0.097303 0.558091 -0.040740
v -0.097647 0.550054 -0.041699
v -0.100330 0.652590 -0.018703
v -0.101561 0.687905 -0.019075
v -0.099702 0.617122 -0.020212
v -0.101245 0.674125 -0.022807
v -0.099582 0.645518 -0.018914
v -0.100753 0.680999 -0.019844
v -0.099945 0.639240 -0.028269
v -0.099077 0.602694 -0.020363
v -0.099297 0.609976 -0.020314
v -0.097242 0.565924 -0.039243
v -0.096076 0.518254 -0.040676
v -0.097855 0.510770 -0.041144
v -0.100366 0.660036 -0.024287
v -0.100743 0.667069 -0.023585
v -0.095919 0.540779 -0.021589
v -0.096636 0.533111 -0.021885
v -0.099437 0.632234 -0.029252
v -0.100327 0.673774 -0.017811
v -0.099659 0.666783 -0.017785
v -0.099124 0.492256 -0.031149
v -0.100468 0.680884 -0.018673
v -0.097452 0.581218 -0.036499
v -0.097294 0.573541 -0.037824
v -0.097624 0.588799 -0.035166
v -0.098650 0.617996 -0.031127
v -0.098960 0.625121 -0.030191
v -0.100626 0.674060 -0.021603
v -0.099815 0.673897 -0.018976
v -0.098441 0.610954 -0.031986
v -0.098599 0.493241 -0.035667
v -0.099280 0.659690 -0.017999
v -0.099986 0.653037 -0.024981
v -0.098484 0.631323 -0.019290
v -0.098888 0.638434 -0.019065
v -0.098101 0.603900 -0.033044
v -0.097792 0.596406 -0.034322
v -0.100124 0.666985 -0.022200
v -0.100155 0.673985 -0.020331
v -0.098881 0.652666 -0.018284
v -0.097978 0.624360 -0.019492
v -0.099690 0.666892 -0.020740
v -0.099332 0.646101 -0.025782
v -0.098687 0.639146 -0.026647
v -0.095067 0.525980 -0.040420
v -0.099784 0.659944 -0.022766
v -0.099381 0.652943 -0.023341
v -0.099361 0.666835 -0.019205
v -0.095501 0.548631 -0.021242
v -0.096258 0.508480 -0.024545
v -0.097243 0.501957 -0.038450
v -0.095046 0.509556 -0.036935
v -0.099375 0.659845 -0.021179
v -0.095457 0.556311 -0.021168
v -0.096455 0.610069 -0.019595
v -0.097137 0.617280 -0.019585
v -0.099037 0.659765 -0.019475
v -0.095851 0.500597 -0.033811
v -0.095524 0.571877 -0.020889
v -0.095460 0.564083 -0.021119
v -0.096943 0.638491 -0.018562
v -0.097948 0.645654 -0.018608
v -0.094568 0.533816 -0.040103
v -0.097996 0.632124 -0.027613
v -0.098961 0.652846 -0.021634
v -0.098719 0.645970 -0.023971
v -0.098299 0.645828 -0.022096
v -0.095583 0.579792 -0.020636
v -0.096026 0.602689 -0.019740
v -0.095672 0.587454 -0.020291
v -0.096315 0.500000 -0.029295
v -0.095772 0.595114 -0.019981
v -0.098619 0.652761 -0.019836
v -0.097316 0.625002 -0.028528
v -0.096444 0.631443 -0.019233
v -0.097947 0.645721 -0.020152
v -0.098059 0.638984 -0.024689
v -0.097308 0.631963 -0.025541
v -0.096474 0.610752 -0.029924
v -0.096833 0.617838 -0.029251
v -0.093488 0.525058 -0.023375
v -0.094621 0.516847 -0.023767
v -0.093859 0.508226 -0.028010
v -0.097634 0.638813 -0.022634
v -0.097191 0.638608 -0.020277
v -0.093513 0.549621 -0.039145
v -0.093956 0.541701 -0.039717
v -0.096061 0.603642 -0.030898
v -0.094798 0.617487 -0.019438
v -0.096013 0.624542 -0.019621
v -0.093324 0.517504 -0.036206
v -0.095570 0.596299 -0.032025
v -0.093320 0.557655 -0.038208
v -0.094485 0.581045 -0.034129
v -0.095046 0.588696 -0.032925
v -0.096898 0.631803 -0.023378
v -0.093857 0.573354 -0.035446
v -0.096494 0.624844 -0.026325
v -0.096045 0.624691 -0.024014
v -0.093551 0.508613 -0.032335
v -0.093488 0.565572 -0.036765
v -0.096558 0.631615 -0.021205
v -0.094021 0.610223 -0.019408
v -0.095939 0.617693 -0.026836
v -0.092698 0.532835 -0.023040
v -0.095781 0.624618 -0.021728
v -0.095074 0.603292 -0.027998
v -0.095511 0.610507 -0.027307
v -0.092411 0.525573 -0.035911
v -0.095404 0.617556 -0.024289
v -0.094996 0.617457 -0.021697
v -0.092726 0.595208 -0.019760
v -0.093445 0.602772 -0.019610
v -0.091782 0.548556 -0.022007
v -0.092104 0.540594 -0.022378
v -0.092483 0.587514 -0.020219
v -0.092294 0.579866 -0.020683
v -0.094530 0.596017 -0.028866
v -0.091944 0.564042 -0.021560
v -0.092250 0.571854 -0.020924
v -0.094920 0.610354 -0.024539
v -0.091861 0.556280 -0.021882
v -0.094467 0.603063 -0.025023
v -0.093897 0.595701 -0.025692
v -0.091868 0.516910 -0.031392
v -0.093855 0.588446 -0.029723
v -0.094392 0.610272 -0.021764
v -0.092074 0.516646 -0.027008
v -0.091635 0.541345 -0.034951
v -0.092040 0.533553 -0.035505
v -0.092024 0.572965 -0.031785
v -0.093004 0.580754 -0.030714
v -0.093888 0.602870 -0.022086
v -0.091338 0.549185 -0.034483
v -0.093270 0.595416 -0.022560
v -0.093218 0.588129 -0.026383
v -0.092651 0.587832 -0.023135
v -0.090916 0.532947 -0.025974
v -0.091202 0.524980 -0.026368
v -0.091386 0.565026 -0.032843
v -0.091138 0.557065 -0.033920
v -0.092344 0.580417 -0.027152
v -0.091909 0.580112 -0.023693
v -0.091011 0.533233 -0.030270
v -0.091176 0.525192 -0.030827
v -0.091330 0.572495 -0.027867
v -0.091135 0.572110 -0.024075
v -0.090677 0.564233 -0.024651
v -0.090553 0.540767 -0.025504
v -0.090783 0.541031 -0.029755
v -0.090722 0.564529 -0.028512
v -0.090508 0.556370 -0.024987
v -0.090358 0.548634 -0.025182
v -0.090471 0.556606 -0.029099
v -0.090516 0.548844 -0.029409
usemtl Short_head_of_biceps_femoris_rMaterial0
f 1 2 3
f 4 1 3
f 2 5 3
f 4 3 6
f 3 7 6
f 3 5 7
f 1 8 2
f 9 8 1
f 10 9 1
f 10 1 4
f 9 11 8
f 11 12 8
f 11 9 13
f 11 13 14
f 11 14 15
f 11 16 12
f 11 15 16
f 8 17 2
f 17 18 2
f 2 18 5
f 8 12 17
f 13 9 10
f 13 19 14
f 14 19 20
f 14 20 15
f 12 21 17
f 17 21 18
f 16 22 12
f 12 22 21
f 13 23 19
f 13 24 23
f 13 10 25
f 13 25 24
f 16 15 26
f 16 27 22
f 16 26 27
f 28 4 6
f 28 6 29
f 6 30 29
f 6 7 30
f 31 10 4
f 31 4 28
f 23 32 19
f 33 20 19
f 33 19 32
f 34 15 20
f 34 26 15
f 23 35 32
f 24 35 23
f 31 25 10
f 24 25 36
f 31 36 25
f 22 37 21
f 21 38 18
f 21 37 38
f 27 39 22
f 22 39 37
f 34 20 33
f 40 27 26
f 27 41 39
f 40 41 27
f 18 42 5
f 18 38 42
f 43 28 29
f 43 29 30
f 44 32 35
f 33 32 44
f 24 45 35
f 24 46 45
f 24 36 47
f 24 47 46
f 48 31 28
f 48 28 43
f 40 26 34
f 44 35 49
f 45 49 35
f 5 50 7
f 5 42 50
f 34 33 51
f 33 44 52
f 33 53 51
f 33 52 53
f 34 51 54
f 40 34 55
f 34 54 55
f 48 36 31
f 7 56 30
f 7 50 56
f 39 57 37
f 37 58 38
f 37 57 58
f 41 59 39
f 39 59 57
f 44 60 52
f 44 49 61
f 44 62 60
f 44 61 62
f 45 63 49
f 46 63 45
f 64 47 36
f 48 64 36
f 65 51 53
f 65 54 51
f 66 41 40
f 41 66 59
f 67 52 60
f 67 53 52
f 61 49 63
f 68 43 30
f 68 30 56
f 69 48 43
f 69 43 68
f 40 55 70
f 66 40 71
f 40 70 71
f 46 47 72
f 64 72 47
f 38 73 42
f 38 58 73
f 74 60 62
f 61 75 62
f 74 62 75
f 76 55 54
f 76 70 55
f 74 67 60
f 67 65 53
f 59 58 57
f 61 63 77
f 46 78 63
f 78 77 63
f 66 79 59
f 59 79 58
f 80 64 48
f 80 48 69
f 42 81 50
f 42 73 81
f 61 82 75
f 61 83 82
f 61 77 83
f 84 68 56
f 50 85 56
f 84 56 85
f 46 72 86
f 46 87 78
f 46 86 87
f 88 69 68
f 88 68 84
f 80 72 64
f 50 81 85
f 89 74 75
f 89 75 82
f 65 76 54
f 66 90 79
f 66 71 91
f 66 91 90
f 74 92 67
f 89 93 74
f 74 93 94
f 74 94 92
f 67 95 65
f 67 92 96
f 67 96 95
f 80 69 88
f 79 73 58
f 79 97 73
f 90 97 79
f 98 71 70
f 98 91 71
f 89 82 99
f 83 99 82
f 80 100 72
f 100 86 72
f 78 101 77
f 83 77 101
f 89 102 93
f 103 89 99
f 89 104 102
f 103 104 89
f 105 84 85
f 105 85 81
f 106 88 84
f 106 84 105
f 80 88 107
f 108 80 107
f 108 100 80
f 87 101 78
f 65 109 76
f 65 95 110
f 65 110 109
f 76 98 70
f 106 107 88
f 111 93 102
f 111 94 93
f 97 81 73
f 90 112 97
f 97 105 81
f 112 105 97
f 113 92 94
f 113 96 92
f 114 112 90
f 114 90 91
f 83 115 99
f 103 99 115
f 112 106 105
f 106 116 107
f 108 107 116
f 100 117 86
f 108 117 100
f 87 86 117
f 118 102 104
f 103 119 104
f 118 104 119
f 114 106 112
f 114 116 106
f 98 114 91
f 83 101 120
f 83 121 115
f 83 120 121
f 76 122 98
f 76 109 123
f 76 123 122
f 108 116 124
f 114 124 116
f 125 95 96
f 125 110 95
f 118 111 102
f 87 126 101
f 126 120 101
f 108 127 117
f 128 108 124
f 128 127 108
f 98 129 114
f 114 129 124
f 103 130 119
f 103 115 131
f 132 130 103
f 132 103 131
f 111 113 94
f 133 118 119
f 133 119 130
f 98 134 129
f 98 122 134
f 87 117 135
f 127 135 117
f 128 124 129
f 87 135 136
f 87 136 126
f 133 137 118
f 118 137 138
f 118 139 111
f 118 138 139
f 133 140 141
f 142 140 133
f 133 141 137
f 133 130 143
f 142 133 143
f 128 129 134
f 140 144 145
f 142 144 140
f 140 145 141
f 146 109 110
f 146 123 109
f 113 125 96
f 121 131 115
f 137 141 147
f 137 147 138
f 132 143 130
f 148 149 144
f 150 144 149
f 150 145 144
f 142 148 144
f 128 151 127
f 127 151 135
f 111 139 152
f 111 153 113
f 111 152 153
f 154 134 122
f 154 122 123
f 155 141 145
f 155 147 141
f 126 156 120
f 121 120 156
f 142 143 157
f 132 157 143
f 154 128 134
f 128 158 151
f 154 158 128
f 148 159 149
f 150 149 160
f 160 149 159
f 155 145 150
f 136 135 151
f 161 148 142
f 142 157 162
f 161 142 162
f 136 156 126
f 125 146 110
f 161 159 148
f 121 163 131
f 132 131 163
f 139 138 164
f 139 164 152
f 150 160 165
f 150 165 166
f 155 150 167
f 150 166 167
f 113 168 125
f 113 153 169
f 113 169 168
f 160 159 170
f 160 171 165
f 160 172 171
f 160 173 172
f 160 170 173
f 146 154 123
f 174 170 159
f 161 174 159
f 158 175 151
f 136 151 175
f 176 138 147
f 176 164 138
f 165 171 177
f 165 177 166
f 176 147 155
f 172 178 171
f 172 179 178
f 173 179 172
f 121 156 180
f 121 181 163
f 121 180 181
f 182 157 132
f 132 163 183
f 182 132 183
f 154 184 158
f 158 184 175
f 173 170 185
f 174 185 170
f 146 186 154
f 154 186 184
f 155 167 187
f 176 155 188
f 155 187 188
f 125 189 146
f 125 168 190
f 125 190 189
f 153 152 191
f 153 191 169
f 136 192 156
f 136 175 193
f 136 193 192
f 194 171 178
f 194 177 171
f 195 178 179
f 195 179 196
f 197 196 179
f 173 197 179
f 192 180 156
f 182 162 157
f 194 178 195
f 195 196 198
f 198 196 199
f 197 199 196
f 173 200 197
f 173 185 201
f 173 201 200
f 146 202 186
f 146 189 202
f 167 166 203
f 167 203 187
f 195 198 204
f 195 204 205
f 194 195 206
f 195 205 206
f 198 207 204
f 198 208 207
f 198 209 208
f 198 199 210
f 198 210 209
f 161 162 211
f 182 211 162
f 212 152 164
f 212 191 152
f 200 199 197
f 213 204 207
f 213 205 204
f 181 183 163
f 193 175 184
f 214 166 177
f 214 203 166
f 215 207 208
f 215 208 216
f 209 216 208
f 217 174 161
f 161 211 218
f 217 161 218
f 168 169 219
f 168 219 190
f 215 213 207
f 220 210 199
f 200 220 199
f 221 215 216
f 221 216 222
f 209 222 216
f 186 223 184
f 186 202 223
f 214 177 194
f 217 185 174
f 212 164 176
f 221 224 215
f 215 224 225
f 215 226 213
f 215 225 226
f 193 184 223
f 209 210 227
f 220 227 210
f 189 228 202
f 189 190 228
f 221 229 224
f 221 230 229
f 231 230 221
f 221 222 232
f 231 221 232
f 192 233 180
f 181 180 233
f 193 233 192
f 194 206 234
f 214 194 235
f 194 234 235
f 236 224 229
f 236 225 224
f 209 237 222
f 209 227 238
f 209 238 237
f 239 240 241
f 242 239 241
f 243 241 240
f 244 241 245
f 242 241 244
f 243 245 241
f 239 246 240
f 239 247 246
f 248 239 242
f 239 249 247
f 248 249 239
f 250 240 246
f 250 243 240
f 182 183 251
f 181 251 183
f 250 246 252
f 247 252 246
f 253 201 185
f 217 253 185
f 254 229 230
f 254 230 255
f 231 255 230
f 256 250 252
f 256 257 250
f 250 257 258
f 250 259 243
f 250 258 259
f 244 245 260
f 242 244 261
f 244 260 262
f 244 262 261
f 256 252 263
f 247 263 252
f 176 188 264
f 212 176 265
f 176 264 265
f 256 266 257
f 267 257 266
f 267 258 257
f 268 206 205
f 268 234 206
f 256 269 266
f 270 269 256
f 256 263 271
f 270 256 271
f 243 272 245
f 272 260 245
f 254 236 229
f 273 266 269
f 274 266 273
f 274 267 266
f 242 261 275
f 248 242 275
f 237 232 222
f 273 269 276
f 270 276 269
f 213 268 205
f 277 254 255
f 277 255 278
f 231 278 255
f 279 273 276
f 279 274 273
f 279 276 280
f 280 276 281
f 270 281 276
f 243 259 282
f 243 283 272
f 243 282 283
f 260 284 262
f 272 285 260
f 260 285 284
f 277 286 254
f 254 286 287
f 254 288 236
f 254 287 288
f 289 169 191
f 289 219 169
f 247 249 290
f 291 249 248
f 291 290 249
f 277 292 286
f 277 293 292
f 294 293 277
f 277 278 295
f 294 277 295
f 286 292 296
f 286 296 287
f 297 279 280
f 297 298 279
f 279 298 299
f 279 300 274
f 279 299 300
f 297 280 301
f 280 281 301
f 302 261 262
f 303 275 261
f 303 261 302
f 304 259 258
f 304 282 259
f 297 305 298
f 306 298 305
f 306 299 298
f 297 307 305
f 308 307 297
f 297 301 309
f 308 297 309
f 247 310 263
f 247 290 311
f 247 311 310
f 302 262 284
f 248 275 312
f 313 312 275
f 313 275 303
f 213 226 314
f 213 315 268
f 213 314 315
f 293 305 307
f 294 305 293
f 294 306 305
f 293 307 292
f 308 292 307
f 316 258 267
f 316 304 258
f 291 248 312
f 274 316 267
f 200 201 317
f 253 317 201
f 231 232 318
f 237 318 232
f 308 296 292
f 310 271 263
f 272 319 285
f 272 283 320
f 272 321 319
f 272 320 321
f 274 300 322
f 274 323 316
f 274 322 323
f 291 312 313
f 188 187 324
f 188 324 264
f 285 325 284
f 285 319 325
f 270 271 326
f 310 326 271
f 327 302 284
f 327 284 325
f 328 303 302
f 328 302 327
f 329 281 270
f 270 326 330
f 329 270 330
f 331 300 299
f 331 322 300
f 332 226 225
f 332 314 226
f 333 283 282
f 333 320 283
f 334 313 303
f 334 303 328
f 335 223 202
f 335 202 228
f 336 211 182
f 182 251 337
f 336 182 337
f 329 301 281
f 193 223 335
f 193 338 233
f 193 335 338
f 339 278 231
f 231 318 340
f 339 231 340
f 341 299 306
f 341 331 299
f 342 291 313
f 342 313 334
f 342 290 291
f 200 343 220
f 200 317 344
f 200 344 343
f 345 311 290
f 342 346 290
f 345 290 346
f 309 301 347
f 329 347 301
f 348 228 190
f 348 190 219
f 339 295 278
f 319 349 325
f 319 321 350
f 319 351 349
f 319 350 351
f 352 282 304
f 352 333 282
f 236 332 225
f 341 306 294
f 353 327 325
f 353 325 349
f 294 295 354
f 339 354 295
f 308 309 355
f 309 347 355
f 356 328 327
f 356 327 353
f 181 233 357
f 181 358 251
f 181 357 358
f 359 187 203
f 359 324 187
f 360 321 320
f 360 350 321
f 310 311 345
f 361 334 328
f 361 328 356
f 341 294 362
f 294 354 362
f 316 352 304
f 363 342 334
f 363 334 361
f 364 296 308
f 308 355 365
f 364 308 365
f 236 288 366
f 236 366 367
f 236 367 332
f 316 323 368
f 316 369 352
f 316 368 369
f 343 227 220
f 288 287 370
f 288 370 366
f 364 287 296
f 364 370 287
f 363 346 342
f 371 323 322
f 371 368 323
f 351 372 349
f 373 353 349
f 373 349 372
f 310 374 326
f 310 345 375
f 310 375 374
f 351 376 372
f 351 350 377
f 351 377 376
f 289 191 212
f 336 218 211
f 378 356 353
f 378 353 373
f 379 320 333
f 379 360 320
f 338 357 233
f 363 380 346
f 381 345 346
f 381 346 380
f 382 361 356
f 382 356 378
f 383 238 227
f 343 383 227
f 384 363 361
f 384 361 382
f 385 322 331
f 385 371 322
f 374 330 326
f 359 203 214
f 363 384 386
f 363 386 380
f 376 373 372
f 387 350 360
f 387 377 350
f 237 238 388
f 383 388 238
f 329 330 389
f 374 389 330
f 390 382 378
f 390 384 382
f 385 331 341
f 391 378 373
f 376 391 373
f 352 379 333
f 391 390 378
f 376 392 391
f 376 377 392
f 381 375 345
f 393 347 329
f 329 389 394
f 393 329 394
f 390 386 384
f 237 395 318
f 237 388 396
f 237 396 395
f 341 362 397
f 385 341 398
f 341 397 398
f 399 380 386
f 399 381 380
f 217 218 400
f 336 400 218
f 352 369 401
f 352 402 379
f 352 401 402
f 214 235 403
f 359 214 404
f 214 403 404
f 393 355 347
f 405 369 368
f 405 401 369
f 391 406 390
f 391 392 406
f 390 406 386
f 379 387 360
f 395 340 318
f 407 362 354
f 407 397 362
f 381 408 375
f 374 375 408
f 387 392 377
f 407 354 339
f 409 368 371
f 409 405 368
f 410 386 406
f 410 399 386
f 365 355 411
f 393 411 355
f 335 228 348
f 339 340 412
f 395 412 340
f 407 339 413
f 339 412 413
f 348 219 289
f 399 408 381
f 414 235 234
f 414 403 235
f 212 265 415
f 289 212 416
f 212 415 416
f 358 337 251
f 374 417 389
f 374 408 418
f 374 418 417
f 419 253 217
f 217 400 420
f 419 217 420
f 364 365 421
f 365 411 421
f 379 422 387
f 379 402 423
f 379 423 422
f 335 424 338
f 338 424 357
f 425 406 392
f 425 410 406
f 268 414 234
f 409 371 385
f 387 425 392
f 268 315 426
f 268 426 427
f 268 427 414
f 417 394 389
f 428 315 314
f 428 426 315
f 429 370 364
f 364 421 430
f 429 364 430
f 399 431 408
f 431 418 408
f 410 431 399
f 387 432 425
f 387 422 432
f 429 366 370
f 367 366 433
f 429 433 366
f 335 348 434
f 335 434 424
f 332 428 314
f 435 402 401
f 435 423 402
f 393 394 436
f 417 436 394
f 385 398 437
f 409 385 438
f 385 437 438
f 332 367 439
f 367 433 439
f 332 439 440
f 332 440 428
f 358 357 424
f 419 317 253
f 431 441 418
f 417 418 441
f 410 442 431
f 425 442 410
f 443 401 405
f 443 435 401
f 444 398 397
f 444 437 398
f 431 442 445
f 431 445 441
f 393 436 446
f 447 411 393
f 447 393 446
f 425 432 442
f 265 264 448
f 265 448 415
f 417 441 449
f 417 450 436
f 417 449 450
f 443 405 409
f 451 432 422
f 451 422 423
f 444 397 407
f 445 442 432
f 445 449 441
f 452 344 317
f 419 452 317
f 450 446 436
f 336 337 453
f 358 453 337
f 447 421 411
f 348 289 454
f 289 416 455
f 289 455 454
f 445 432 451
f 445 456 449
f 450 449 456
f 343 344 457
f 452 457 344
f 407 413 458
f 444 407 459
f 407 458 459
f 445 460 456
f 445 451 460
f 460 451 423
f 460 423 435
f 348 461 434
f 348 454 461
f 343 462 383
f 343 463 462
f 343 457 463
f 409 438 464
f 443 409 465
f 409 464 465
f 466 264 324
f 466 448 264
f 462 388 383
f 430 421 467
f 447 467 421
f 450 456 468
f 450 469 446
f 450 468 470
f 450 470 469
f 460 468 456
f 447 446 469
f 471 396 388
f 462 471 388
f 472 413 412
f 472 458 413
f 460 435 443
f 395 396 473
f 471 473 396
f 434 474 424
f 358 424 474
f 395 472 412
f 395 475 472
f 395 473 475
f 460 476 468
f 460 443 476
f 429 430 477
f 430 467 477
f 470 468 476
f 478 438 437
f 478 464 438
f 443 479 476
f 443 465 479
f 466 324 359
f 447 469 480
f 470 480 469
f 481 447 480
f 481 467 447
f 482 433 429
f 429 477 483
f 482 429 483
f 470 476 479
f 434 461 474
f 484 400 336
f 336 453 485
f 484 336 485
f 478 437 444
f 482 439 433
f 358 474 486
f 358 486 453
f 470 487 480
f 470 479 488
f 470 488 487
f 359 404 489
f 466 359 490
f 359 489 490
f 440 439 491
f 482 491 439
f 481 480 487
f 481 477 467
f 444 459 492
f 478 444 493
f 444 492 493
f 488 479 465
f 488 465 464
f 416 415 494
f 416 494 455
f 428 440 495
f 440 491 495
f 496 404 403
f 496 489 404
f 428 497 426
f 428 495 498
f 428 498 497
f 481 487 499
f 488 499 487
f 484 420 400
f 497 427 426
f 414 496 403
f 414 427 500
f 497 500 427
f 481 501 477
f 483 477 501
f 502 481 499
f 502 501 481
f 454 503 461
f 454 455 503
f 414 500 504
f 414 504 496
f 488 464 478
f 488 505 499
f 488 478 505
f 506 459 458
f 506 492 459
f 502 499 505
f 483 501 507
f 482 483 507
f 419 420 508
f 484 508 420
f 478 509 505
f 502 505 509
f 502 507 501
f 510 491 482
f 482 507 511
f 510 482 511
f 472 506 458
f 478 493 509
f 486 474 461
f 486 485 453
f 512 415 448
f 512 494 415
f 510 495 491
f 502 513 507
f 514 502 509
f 514 513 502
f 472 475 515
f 472 516 506
f 472 515 516
f 514 509 493
f 514 493 492
f 511 507 513
f 517 452 419
f 419 508 518
f 517 419 518
f 486 461 503
f 519 475 473
f 519 515 475
f 520 473 471
f 520 519 473
f 462 520 471
f 510 521 495
f 498 495 521
f 462 463 522
f 462 523 520
f 462 522 523
f 517 457 452
f 511 513 524
f 510 511 524
f 525 463 457
f 517 525 457
f 525 522 463
f 514 524 513
f 512 448 466
f 510 524 526
f 527 521 510
f 527 510 526
f 528 503 455
f 528 455 494
f 498 521 529
f 497 498 529
f 514 530 524
f 506 514 492
f 506 530 514
f 526 524 530
f 486 531 485
f 484 485 531
f 466 490 532
f 512 466 533
f 466 532 533
f 527 529 521
f 497 534 500
f 497 529 535
f 497 535 534
f 526 530 536
f 527 526 536
f 506 536 530
f 506 516 536
f 537 490 489
f 537 532 490
f 527 536 538
f 527 539 529
f 540 527 538
f 540 539 527
f 538 536 516
f 486 503 528
f 486 528 531
f 534 504 500
f 535 529 539
f 496 537 489
f 541 508 484
f 484 531 542
f 541 484 542
f 496 504 543
f 534 543 504
f 538 516 515
f 528 494 512
f 496 543 544
f 496 544 537
f 540 538 515
f 535 539 545
f 540 545 539
f 534 535 545
f 540 515 519
f 541 518 508
f 520 540 519
f 540 546 545
f 520 546 540
f 512 533 547
f 528 512 548
f 512 547 548
f 534 545 549
f 549 545 546
f 520 523 550
f 520 550 546
f 551 523 522
f 551 550 523
f 517 518 552
f 541 552 518
f 528 542 531
f 553 533 532
f 553 547 533
f 534 554 543
f 534 549 554
f 555 522 525
f 555 551 522
f 549 546 550
f 528 548 542
f 555 525 517
f 517 552 556
f 555 517 556
f 537 553 532
f 554 544 543
f 537 544 557
f 537 558 553
f 537 557 558
f 554 549 550
f 541 542 548
f 541 548 547
f 554 557 544
f 554 550 551
f 553 541 547
f 553 552 541
f 553 556 552
f 553 558 556
f 554 551 555
f 554 555 557
f 555 558 557
f 555 556 558
