# 
# Wavefront OBJ file
# Created with Kaydara FBX
# 
mtllib c:\users\tjvan\onedrive\documenten\fontys\minor\nx\.mtlmodels\small_saphenous_vein.r.obj

g Small_saphenous_vein_r
v -0.095697 0.071336 -0.072204
v -0.097554 0.067863 -0.070385
v -0.097527 0.067638 -0.070759
v -0.095529 0.071442 -0.071804
v -0.097381 0.067982 -0.070001
v -0.095659 0.071125 -0.072596
v -0.097306 0.067368 -0.071024
v -0.095200 0.071415 -0.071503
v -0.097054 0.067965 -0.069711
v -0.095425 0.070866 -0.072875
v -0.096952 0.067126 -0.071108
v -0.094798 0.071262 -0.071382
v -0.096661 0.067815 -0.069592
v -0.095058 0.070628 -0.072966
v -0.096558 0.066976 -0.070989
v -0.094431 0.071025 -0.071473
v -0.096306 0.067572 -0.069676
v -0.094656 0.070476 -0.072845
v -0.096231 0.066958 -0.070699
v -0.094197 0.070766 -0.071752
v -0.096086 0.067303 -0.069941
v -0.094327 0.070449 -0.072544
v -0.096058 0.067078 -0.070315
v -0.094159 0.070555 -0.072144
v -0.094023 0.074642 -0.073686
v -0.093861 0.074732 -0.073270
v -0.093972 0.074450 -0.074096
v -0.093529 0.074696 -0.072959
v -0.093723 0.074207 -0.074391
v -0.093118 0.074543 -0.072836
v -0.093341 0.073978 -0.074490
v -0.092736 0.074315 -0.072935
v -0.092929 0.073826 -0.074367
v -0.092486 0.074072 -0.073230
v -0.092598 0.073789 -0.074056
v -0.092436 0.073879 -0.073640
v -0.092522 0.077855 -0.074867
v -0.092366 0.077926 -0.074435
v -0.092457 0.077685 -0.075296
v -0.092031 0.077881 -0.074115
v -0.092190 0.077464 -0.075606
v -0.091608 0.077732 -0.073992
v -0.091792 0.077250 -0.075714
v -0.091210 0.077517 -0.074101
v -0.091369 0.077100 -0.075591
v -0.090943 0.077296 -0.074410
v -0.091035 0.077055 -0.075271
v -0.091184 0.081046 -0.075786
v -0.091033 0.081098 -0.075340
v -0.090879 0.077127 -0.074839
v -0.091106 0.080903 -0.076232
v -0.090695 0.081046 -0.075011
v -0.090820 0.080708 -0.076557
v -0.090260 0.080904 -0.074889
v -0.090404 0.080513 -0.076674
v -0.089843 0.080709 -0.075006
v -0.089968 0.080371 -0.076552
v -0.089558 0.080514 -0.075331
v -0.089998 0.084292 -0.076481
v -0.089853 0.084326 -0.076022
v -0.089908 0.084177 -0.076942
v -0.089630 0.080319 -0.076224
v -0.089509 0.084269 -0.075686
v -0.089480 0.080371 -0.075777
v -0.089604 0.084012 -0.077280
v -0.089060 0.084138 -0.075565
v -0.089170 0.083840 -0.077406
v -0.088626 0.083966 -0.075690
v -0.088955 0.087669 -0.076990
v -0.088811 0.087687 -0.076519
v -0.088721 0.083708 -0.077284
v -0.088853 0.087581 -0.077464
v -0.088322 0.083801 -0.076028
v -0.088461 0.087630 -0.076177
v -0.088377 0.083652 -0.076949
v -0.088534 0.087445 -0.077814
v -0.088232 0.083686 -0.076489
v -0.087998 0.087512 -0.076056
v -0.088082 0.087299 -0.077946
v -0.087547 0.087366 -0.076188
v -0.088042 0.091255 -0.077350
v -0.087899 0.091261 -0.076869
v -0.087932 0.091189 -0.077835
v -0.087542 0.091206 -0.076521
v -0.087619 0.087181 -0.077825
v -0.087227 0.087231 -0.076538
v -0.087599 0.091082 -0.078194
v -0.087065 0.091104 -0.076399
v -0.087269 0.087124 -0.077483
v -0.087126 0.087142 -0.077012
v -0.087132 0.090961 -0.078332
v -0.087251 0.095126 -0.077597
v -0.087107 0.095125 -0.077107
v -0.086598 0.090983 -0.076537
v -0.087135 0.095079 -0.078092
v -0.086741 0.095075 -0.076753
v -0.086656 0.090859 -0.078210
v -0.086790 0.094995 -0.078460
v -0.086265 0.090876 -0.076896
v -0.086253 0.094990 -0.076630
v -0.086298 0.090804 -0.077862
v -0.086571 0.099360 -0.077768
v -0.086425 0.099355 -0.077269
v -0.086155 0.090810 -0.077381
v -0.086309 0.094898 -0.078602
v -0.086451 0.099325 -0.078273
v -0.086052 0.099313 -0.076909
v -0.085771 0.094893 -0.076772
v -0.086097 0.099260 -0.078648
v -0.085551 0.099244 -0.076785
v -0.085820 0.094813 -0.078479
v -0.085426 0.094809 -0.077140
v -0.085995 0.104030 -0.077899
v -0.085846 0.104027 -0.077391
v -0.085872 0.104003 -0.078414
v -0.085465 0.103994 -0.077026
v -0.085603 0.099183 -0.078793
v -0.085455 0.094763 -0.078125
v -0.085311 0.094762 -0.077635
v -0.085058 0.099167 -0.076930
v -0.085509 0.103952 -0.078796
v -0.084953 0.103940 -0.076900
v -0.085513 0.109212 -0.078028
v -0.085361 0.109213 -0.077511
v -0.085387 0.109188 -0.078551
v -0.084972 0.109190 -0.077139
v -0.085102 0.099114 -0.078669
v -0.084703 0.099103 -0.077305
v -0.085620 0.256764 -0.095495
v -0.085578 0.245362 -0.093320
v -0.085431 0.245246 -0.093915
v -0.085444 0.256871 -0.094907
v -0.085586 0.267418 -0.097353
v -0.085474 0.256655 -0.096090
v -0.085410 0.267515 -0.096763
v -0.085004 0.103892 -0.078944
v -0.085402 0.245482 -0.092734
v -0.085437 0.240399 -0.092292
v -0.085292 0.240281 -0.092880
v -0.085488 0.277364 -0.098916
v -0.085439 0.267318 -0.097950
v -0.085312 0.277450 -0.098325
v -0.084449 0.103880 -0.077048
v -0.085017 0.109147 -0.078940
v -0.085117 0.114981 -0.078189
v -0.084962 0.114989 -0.077664
v -0.085341 0.277274 -0.099515
v -0.085340 0.286631 -0.100204
v -0.085164 0.286705 -0.099611
v -0.084729 0.099072 -0.078310
v -0.084451 0.109150 -0.077011
v -0.085001 0.245164 -0.094358
v -0.085044 0.256574 -0.096534
v -0.084583 0.099068 -0.077810
v -0.085263 0.240528 -0.091714
v -0.084998 0.234646 -0.091669
v -0.085141 0.234761 -0.091086
v -0.084867 0.240205 -0.093320
v -0.084993 0.256949 -0.094484
v -0.084959 0.267582 -0.096339
v -0.085010 0.267242 -0.098395
v -0.084951 0.245572 -0.092314
v -0.084861 0.277507 -0.097898
v -0.084989 0.114955 -0.078721
v -0.084565 0.114977 -0.077286
v -0.085193 0.286551 -0.100804
v -0.084912 0.277202 -0.099961
v -0.085155 0.295249 -0.101235
v -0.084979 0.295310 -0.100640
v -0.084713 0.286751 -0.099183
v -0.084577 0.234577 -0.092106
v -0.084970 0.234891 -0.090515
v -0.084817 0.240632 -0.091301
v -0.085008 0.295180 -0.101837
v -0.084763 0.286485 -0.101250
v -0.084529 0.295346 -0.100212
v -0.084945 0.303248 -0.102030
v -0.084770 0.303295 -0.101434
v -0.084602 0.228226 -0.090323
v -0.084744 0.228335 -0.089746
v -0.084102 0.133950 -0.078942
v -0.083945 0.133969 -0.078411
v -0.084493 0.103838 -0.078819
v -0.084086 0.103829 -0.077431
v -0.084404 0.245139 -0.094532
v -0.084446 0.256543 -0.096707
v -0.084502 0.109099 -0.079091
v -0.083936 0.109103 -0.077163
v -0.084612 0.114918 -0.079117
v -0.084034 0.114948 -0.077157
v -0.083973 0.133918 -0.079480
v -0.083543 0.133969 -0.078030
v -0.084186 0.228163 -0.090757
v -0.084528 0.235001 -0.090108
v -0.084574 0.228459 -0.089179
v -0.084275 0.240190 -0.093495
v -0.084387 0.256975 -0.094340
v -0.084345 0.245609 -0.092172
v -0.084353 0.267603 -0.096193
v -0.084412 0.267209 -0.098568
v -0.084256 0.277521 -0.097752
v -0.084798 0.303190 -0.102633
v -0.084578 0.295120 -0.102284
v -0.084320 0.303321 -0.101004
v -0.084725 0.310656 -0.102608
v -0.084550 0.310691 -0.102010
v -0.084314 0.277169 -0.100133
v -0.083992 0.234572 -0.092281
v -0.084108 0.286759 -0.099036
v -0.084218 0.240683 -0.091164
v -0.084577 0.310611 -0.103211
v -0.084368 0.303138 -0.103081
v -0.084784 0.395923 -0.094125
v -0.084796 0.390077 -0.095727
v -0.084640 0.390237 -0.096345
v -0.084599 0.395745 -0.093515
v -0.084611 0.389920 -0.095116
v -0.084703 0.384089 -0.097185
v -0.084548 0.384232 -0.097802
v -0.084627 0.396099 -0.094744
v -0.084633 0.401722 -0.092377
v -0.084447 0.401523 -0.091768
v -0.084165 0.286452 -0.101423
v -0.084100 0.310705 -0.101580
v -0.084156 0.220898 -0.088882
v -0.084296 0.220997 -0.088309
v -0.084112 0.103805 -0.078453
v -0.084507 0.317504 -0.102987
v -0.084333 0.317525 -0.102389
v -0.083963 0.103802 -0.077945
v -0.083923 0.295348 -0.100064
v -0.084520 0.383953 -0.096573
v -0.084541 0.377865 -0.098498
v -0.084387 0.377989 -0.099114
v -0.084185 0.390359 -0.096805
v -0.084097 0.384345 -0.098260
v -0.084475 0.401909 -0.092998
v -0.084169 0.396225 -0.095206
v -0.084307 0.407565 -0.090485
v -0.084121 0.407349 -0.089876
v -0.084088 0.114880 -0.079271
v -0.083592 0.133881 -0.079881
v -0.083745 0.220840 -0.089312
v -0.084120 0.395611 -0.093076
v -0.084136 0.389808 -0.094675
v -0.083965 0.401367 -0.091333
v -0.083005 0.133950 -0.077899
v -0.084137 0.228567 -0.088776
v -0.084127 0.221112 -0.087747
v -0.083607 0.228163 -0.090931
v -0.083980 0.295087 -0.102457
v -0.084359 0.317473 -0.103592
v -0.084147 0.310568 -0.103660
v -0.083883 0.317529 -0.101958
v -0.084360 0.377751 -0.097886
v -0.084192 0.371416 -0.100282
v -0.084345 0.371311 -0.099667
v -0.083939 0.378090 -0.099571
v -0.083936 0.235062 -0.089974
v -0.083715 0.303317 -0.100856
v -0.084049 0.383862 -0.096131
v -0.083981 0.109059 -0.078964
v -0.084304 0.323822 -0.103188
v -0.084131 0.323828 -0.102590
v -0.084147 0.407760 -0.091108
v -0.084013 0.402035 -0.093464
v -0.083566 0.109061 -0.077552
v -0.083510 0.114910 -0.077311
v -0.083798 0.245176 -0.094390
v -0.083840 0.256569 -0.096563
v -0.083637 0.407170 -0.089446
v -0.083676 0.240242 -0.093357
v -0.083806 0.267229 -0.098423
v -0.083790 0.256944 -0.094513
v -0.083755 0.267570 -0.096366
v -0.083747 0.371502 -0.100738
v -0.083748 0.245583 -0.092346
v -0.083658 0.277487 -0.097925
v -0.083770 0.303106 -0.103253
v -0.084156 0.323805 -0.103793
v -0.083928 0.317440 -0.104041
v -0.084166 0.371217 -0.099057
v -0.083998 0.364416 -0.101306
v -0.084151 0.364331 -0.100693
v -0.083893 0.377677 -0.097444
v -0.083681 0.323823 -0.102159
v -0.083712 0.212537 -0.087385
v -0.083850 0.212626 -0.086816
v -0.083708 0.277183 -0.099987
v -0.083495 0.310697 -0.101431
v -0.084130 0.329637 -0.103231
v -0.083957 0.329629 -0.102633
v -0.083584 0.413314 -0.087840
v -0.083771 0.413545 -0.088448
v -0.083400 0.234633 -0.092147
v -0.083510 0.286726 -0.099209
v -0.083627 0.240669 -0.091338
v -0.083172 0.220840 -0.089484
v -0.083556 0.364487 -0.101761
v -0.083470 0.384397 -0.098436
v -0.083554 0.390408 -0.096983
v -0.083592 0.109036 -0.078592
v -0.083440 0.109037 -0.078075
v -0.083556 0.114851 -0.079142
v -0.083062 0.133849 -0.080037
v -0.083452 0.151049 -0.079923
v -0.083292 0.151080 -0.079387
v -0.083305 0.212484 -0.087811
v -0.083694 0.221211 -0.087346
v -0.083682 0.212728 -0.086258
v -0.083550 0.228629 -0.088643
v -0.083560 0.286459 -0.101276
v -0.083325 0.295315 -0.100237
v -0.083549 0.310538 -0.103833
v -0.083278 0.317517 -0.101809
v -0.083981 0.329636 -0.103836
v -0.083725 0.323783 -0.104243
v -0.083508 0.329615 -0.102201
v -0.083998 0.334980 -0.103135
v -0.083825 0.334958 -0.102536
v -0.083973 0.364255 -0.100085
v -0.083992 0.356830 -0.101577
v -0.083840 0.356896 -0.102188
v -0.083703 0.371158 -0.098615
v -0.083317 0.378140 -0.099746
v -0.083476 0.395559 -0.092928
v -0.083497 0.389772 -0.094524
v -0.083318 0.401295 -0.091190
v -0.083533 0.396267 -0.095387
v -0.083099 0.413113 -0.087413
v -0.083683 0.407882 -0.091579
v -0.083610 0.413744 -0.089075
v -0.083415 0.383839 -0.095977
v -0.082474 0.133918 -0.078056
v -0.083373 0.402066 -0.093649
v -0.083021 0.228224 -0.090798
v -0.083848 0.334996 -0.103739
v -0.083920 0.339880 -0.102919
v -0.083747 0.339845 -0.102321
v -0.083816 0.356770 -0.100972
v -0.083903 0.348712 -0.102318
v -0.083752 0.348761 -0.102926
v -0.083401 0.356950 -0.102641
v -0.083322 0.151009 -0.080467
v -0.083374 0.295089 -0.102309
v -0.083550 0.329627 -0.104286
v -0.083376 0.334936 -0.102105
v -0.083514 0.364208 -0.099645
v -0.082985 0.407076 -0.089308
v -0.083133 0.114873 -0.077707
v -0.082886 0.151093 -0.079002
v -0.083351 0.235058 -0.090149
v -0.083117 0.303285 -0.101029
v -0.083330 0.317413 -0.104214
v -0.083770 0.339913 -0.103523
v -0.083729 0.348665 -0.101717
v -0.083130 0.371547 -0.100912
v -0.083076 0.323807 -0.102009
v -0.083264 0.377664 -0.097289
v -0.083321 0.203022 -0.085872
v -0.083457 0.203101 -0.085308
v -0.083347 0.245266 -0.093970
v -0.083389 0.256647 -0.096141
v -0.083417 0.335001 -0.104188
v -0.083317 0.348798 -0.103377
v -0.083230 0.240346 -0.092944
v -0.083360 0.256863 -0.094957
v -0.083326 0.267493 -0.096811
v -0.083355 0.267297 -0.097998
v -0.083298 0.339817 -0.101890
v -0.083360 0.356731 -0.100534
v -0.083165 0.303102 -0.103105
v -0.083338 0.339934 -0.103971
v -0.082993 0.419732 -0.086276
v -0.082806 0.419493 -0.085665
v -0.082738 0.212481 -0.087981
v -0.083318 0.245501 -0.092790
v -0.083228 0.277416 -0.098370
v -0.083277 0.348632 -0.101283
v -0.082943 0.364524 -0.101935
v -0.083126 0.323761 -0.104416
v -0.082918 0.202973 -0.086294
v -0.083253 0.212815 -0.085860
v -0.083114 0.221268 -0.087214
v -0.083257 0.277240 -0.099561
v -0.082897 0.310667 -0.101604
v -0.083079 0.371150 -0.098461
v -0.083290 0.203188 -0.084753
v -0.082958 0.234743 -0.091739
v -0.082903 0.329597 -0.102052
v -0.083143 0.413858 -0.089552
v -0.083039 0.407898 -0.091771
v -0.083080 0.286660 -0.099655
v -0.083201 0.240593 -0.091779
v -0.082445 0.412996 -0.087281
v -0.082592 0.220897 -0.089352
v -0.082831 0.419934 -0.086906
v -0.083160 0.114838 -0.078764
v -0.082937 0.150970 -0.080872
v -0.082318 0.419281 -0.085238
v -0.083005 0.114846 -0.078239
v -0.082523 0.133830 -0.079907
v -0.082341 0.151085 -0.078871
v -0.082972 0.228628 -0.088817
v -0.083109 0.286506 -0.100849
v -0.082944 0.310530 -0.103684
v -0.082951 0.329612 -0.104459
v -0.082793 0.356977 -0.102814
v -0.082915 0.390372 -0.096831
v -0.082836 0.384374 -0.098282
v -0.082890 0.396214 -0.095239
v -0.082094 0.133881 -0.078456
v -0.082895 0.295256 -0.100684
v -0.082771 0.334919 -0.101956
v -0.082895 0.364202 -0.099492
v -0.082680 0.317490 -0.101982
v -0.082841 0.395601 -0.093109
v -0.082866 0.389821 -0.094701
v -0.082688 0.378127 -0.099591
v -0.082677 0.401326 -0.091376
v -0.083114 0.166394 -0.081091
v -0.082953 0.166438 -0.080550
v -0.083034 0.192232 -0.084383
v -0.083169 0.192300 -0.083824
v -0.082818 0.334994 -0.104362
v -0.082788 0.383891 -0.096153
v -0.082584 0.228332 -0.090395
v -0.082713 0.348814 -0.103550
v -0.083171 0.245385 -0.093384
v -0.083213 0.256754 -0.095552
v -0.082924 0.295125 -0.101880
v -0.082694 0.339803 -0.101740
v -0.082726 0.401993 -0.093506
v -0.082983 0.166345 -0.081640
v -0.082636 0.192186 -0.084801
v -0.082930 0.234988 -0.090586
v -0.083056 0.240474 -0.092366
v -0.083179 0.267393 -0.097408
v -0.083081 0.277325 -0.098969
v -0.082687 0.303233 -0.101476
v -0.082725 0.317400 -0.104065
v -0.082740 0.339938 -0.104144
v -0.082746 0.356724 -0.100382
v -0.082506 0.371539 -0.100758
v -0.082341 0.407092 -0.089500
v -0.082541 0.166465 -0.080161
v -0.082865 0.203261 -0.084357
v -0.083003 0.192373 -0.083273
v -0.082357 0.202966 -0.086462
v -0.082667 0.348622 -0.101132
v -0.082478 0.323785 -0.102183
v -0.082678 0.212863 -0.085728
v -0.082642 0.377714 -0.097464
v -0.082786 0.234873 -0.091168
v -0.082933 0.286579 -0.100255
v -0.082122 0.133830 -0.079525
v -0.083037 0.180105 -0.082405
v -0.082904 0.180046 -0.082959
v -0.082163 0.212530 -0.087849
v -0.082714 0.303128 -0.102675
v -0.081964 0.133849 -0.078994
v -0.082874 0.180163 -0.081859
v -0.082541 0.221267 -0.087386
v -0.082467 0.310624 -0.102052
v -0.082522 0.323745 -0.104267
v -0.082324 0.364518 -0.101781
v -0.081661 0.419152 -0.085110
v -0.082496 0.413856 -0.089752
v -0.082361 0.420045 -0.087388
v -0.082748 0.295186 -0.101285
v -0.082305 0.329582 -0.102225
v -0.082462 0.371195 -0.098635
v -0.082400 0.150943 -0.081030
v -0.082510 0.180003 -0.083373
v -0.082388 0.407804 -0.091633
v -0.082159 0.220996 -0.088951
v -0.081804 0.151058 -0.079029
v -0.082593 0.166304 -0.082049
v -0.082583 0.192431 -0.082879
v -0.081798 0.412995 -0.087481
v -0.082286 0.425406 -0.084264
v -0.082098 0.425166 -0.083652
v -0.082556 0.228565 -0.089251
v -0.082457 0.180205 -0.081467
v -0.082081 0.192175 -0.084966
v -0.082414 0.228457 -0.089828
v -0.082494 0.310544 -0.103253
v -0.082347 0.329594 -0.104310
v -0.082178 0.356971 -0.102662
v -0.082440 0.390261 -0.096390
v -0.082365 0.384283 -0.097840
v -0.081990 0.166469 -0.080029
v -0.082539 0.303176 -0.102079
v -0.082249 0.317457 -0.102431
v -0.082173 0.334912 -0.102129
v -0.082282 0.364239 -0.099666
v -0.082411 0.396081 -0.094800
v -0.082296 0.203299 -0.084225
v -0.082383 0.395727 -0.093571
v -0.082412 0.389943 -0.095161
v -0.082221 0.378053 -0.099149
v -0.082216 0.401451 -0.091841
v -0.082122 0.425615 -0.084894
v -0.082213 0.334978 -0.104213
v -0.081608 0.424959 -0.083222
v -0.082104 0.348804 -0.103400
v -0.082337 0.384004 -0.096611
v -0.082095 0.339807 -0.101913
v -0.081788 0.203004 -0.086329
v -0.082135 0.339924 -0.103995
v -0.082138 0.356751 -0.100556
v -0.082275 0.317405 -0.103634
v -0.082244 0.401837 -0.093071
v -0.082112 0.212861 -0.085898
v -0.082319 0.310579 -0.102656
v -0.082047 0.323763 -0.102632
v -0.082064 0.348637 -0.101305
v -0.082042 0.371480 -0.100316
v -0.081877 0.407213 -0.089970
v -0.081961 0.179986 -0.083535
v -0.082194 0.377815 -0.097921
v -0.082050 0.166282 -0.082210
v -0.082020 0.192457 -0.082747
v -0.081735 0.212617 -0.087451
v -0.081990 0.221110 -0.088389
v -0.082130 0.221210 -0.087816
v -0.081900 0.180220 -0.081335
v -0.081855 0.150935 -0.080899
v -0.082072 0.323740 -0.103836
v -0.081864 0.364470 -0.101342
v -0.081842 0.413739 -0.089620
v -0.081710 0.420035 -0.087592
v -0.081419 0.151019 -0.079434
v -0.082101 0.317425 -0.103036
v -0.081873 0.329573 -0.102675
v -0.082017 0.371282 -0.099091
v -0.082256 0.390103 -0.095779
v -0.082182 0.384147 -0.097228
v -0.081010 0.419142 -0.085314
v -0.082226 0.395902 -0.094190
v -0.082058 0.401639 -0.092462
v -0.081904 0.407625 -0.091202
v -0.081447 0.166447 -0.080190
v -0.081518 0.192201 -0.084834
v -0.081897 0.329580 -0.103878
v -0.082040 0.377939 -0.098538
v -0.081331 0.413109 -0.087958
v -0.081650 0.425737 -0.085373
v -0.081722 0.356932 -0.102225
v -0.080948 0.424841 -0.083089
v -0.081735 0.203293 -0.084393
v -0.081741 0.334917 -0.102578
v -0.081840 0.364309 -0.100120
v -0.081620 0.430638 -0.081652
v -0.081808 0.430883 -0.082264
v -0.081898 0.323746 -0.103237
v -0.081764 0.334955 -0.103781
v -0.081863 0.371386 -0.099706
v -0.081717 0.407409 -0.090593
v -0.081363 0.203077 -0.085933
v -0.081567 0.212718 -0.086892
v -0.081663 0.339828 -0.102362
v -0.081651 0.348771 -0.102965
v -0.081448 0.150948 -0.080514
v -0.081289 0.150979 -0.079977
v -0.081705 0.212808 -0.086324
v -0.081628 0.348675 -0.101756
v -0.081686 0.339895 -0.103563
v -0.081699 0.356805 -0.101009
v -0.081128 0.430438 -0.081218
v -0.081642 0.431108 -0.082890
v -0.081499 0.166285 -0.082078
v -0.081404 0.180001 -0.083403
v -0.081724 0.329572 -0.103280
v -0.081687 0.364394 -0.100734
v -0.081465 0.192446 -0.082912
v -0.081351 0.180203 -0.081498
v -0.081357 0.413539 -0.089193
v -0.081591 0.334933 -0.103183
v -0.081547 0.356871 -0.101620
v -0.081170 0.413308 -0.088584
v -0.081053 0.419906 -0.087464
v -0.081058 0.166406 -0.080599
v -0.081097 0.192259 -0.084440
v -0.080540 0.419253 -0.085795
v -0.081518 0.436142 -0.080200
v -0.081331 0.435882 -0.079592
v -0.081333 0.203243 -0.084815
v -0.081197 0.203164 -0.085379
v -0.081513 0.339860 -0.102966
v -0.081477 0.348724 -0.102364
v -0.080996 0.425740 -0.085573
v -0.080294 0.424843 -0.083289
v -0.081167 0.431253 -0.083362
v -0.081351 0.436392 -0.080818
v -0.081653 0.463153 -0.058179
v -0.081664 0.460659 -0.062622
v -0.081496 0.461224 -0.062996
v -0.081459 0.462543 -0.057897
v -0.081470 0.460101 -0.062251
v -0.081602 0.457633 -0.066518
v -0.081434 0.458138 -0.066966
v -0.081531 0.465066 -0.053120
v -0.081485 0.463767 -0.058468
v -0.081340 0.464418 -0.052933
v -0.080838 0.435680 -0.079158
v -0.080465 0.430338 -0.081079
v -0.081410 0.457137 -0.066070
v -0.081505 0.454123 -0.069934
v -0.081336 0.454565 -0.070442
v -0.081360 0.465716 -0.053321
v -0.081261 0.466353 -0.047381
v -0.081074 0.465682 -0.047287
v -0.081088 0.166313 -0.081689
v -0.080988 0.180043 -0.083012
v -0.081380 0.441140 -0.078004
v -0.081193 0.440853 -0.077406
v -0.081315 0.453690 -0.069426
v -0.081411 0.450174 -0.072940
v -0.081241 0.450555 -0.073492
v -0.081013 0.461644 -0.063273
v -0.080951 0.458517 -0.067294
v -0.081066 0.192400 -0.083330
v -0.080955 0.462100 -0.057698
v -0.080967 0.459700 -0.061982
v -0.080837 0.463946 -0.052810
v -0.081000 0.464221 -0.058687
v -0.080957 0.180160 -0.081912
v -0.080853 0.454897 -0.070814
v -0.080926 0.166357 -0.081148
v -0.081222 0.449800 -0.072389
v -0.081357 0.445832 -0.075607
v -0.081187 0.446160 -0.076190
v -0.080909 0.456782 -0.065742
v -0.081211 0.441424 -0.078608
v -0.081169 0.445507 -0.075027
v -0.080932 0.192331 -0.083890
v -0.080565 0.419694 -0.087037
v -0.080872 0.436564 -0.081281
v -0.081086 0.467024 -0.047497
v -0.080873 0.466193 -0.053482
v -0.080377 0.419455 -0.086426
v -0.080699 0.440640 -0.076975
v -0.080759 0.450842 -0.073898
v -0.080573 0.465191 -0.047239
v -0.080816 0.453382 -0.069054
v -0.080705 0.446403 -0.076621
v -0.080726 0.449533 -0.071987
v -0.080731 0.441629 -0.079058
v -0.080674 0.445272 -0.074606
v -0.080509 0.431278 -0.083554
v -0.080172 0.435592 -0.079013
v -0.080824 0.180102 -0.082466
v -0.080594 0.467515 -0.047603
v -0.080336 0.425622 -0.085440
v -0.079822 0.424965 -0.083768
v -0.080343 0.461807 -0.063377
v -0.080282 0.458667 -0.067415
v -0.080328 0.464393 -0.058776
v -0.079807 0.430363 -0.081271
v -0.080186 0.455031 -0.070950
v -0.080277 0.461944 -0.057635
v -0.080290 0.459562 -0.061887
v -0.080157 0.463775 -0.052783
v -0.080234 0.456664 -0.065622
v -0.080212 0.436613 -0.081464
v -0.080199 0.466370 -0.053559
v -0.080092 0.450956 -0.074048
v -0.080031 0.440558 -0.076827
v -0.079894 0.465012 -0.047251
v -0.080143 0.453281 -0.068917
v -0.080041 0.446496 -0.076784
v -0.080068 0.441700 -0.079231
v -0.080055 0.449444 -0.071841
v -0.080005 0.445190 -0.074457
v -0.079918 0.467694 -0.047671
v -0.079846 0.425415 -0.085010
v -0.079658 0.425174 -0.084398
v -0.079845 0.431178 -0.083414
v -0.079511 0.435640 -0.079196
v -0.079665 0.461669 -0.063282
v -0.079607 0.458549 -0.067295
v -0.079649 0.464237 -0.058713
v -0.079332 0.430508 -0.081743
v -0.079513 0.454930 -0.070813
v -0.079605 0.462116 -0.057725
v -0.079620 0.459725 -0.061991
v -0.079483 0.463952 -0.052861
v -0.079565 0.456814 -0.065743
v -0.079546 0.436524 -0.081319
v -0.079519 0.466200 -0.053533
v -0.079421 0.450868 -0.073903
v -0.079368 0.440629 -0.077001
v -0.079218 0.465191 -0.047319
v -0.079476 0.453415 -0.069053
v -0.079371 0.446414 -0.076635
v -0.079400 0.441618 -0.079083
v -0.079389 0.449559 -0.071992
v -0.079340 0.445283 -0.074620
v -0.079239 0.467515 -0.047683
v -0.079354 0.430978 -0.082981
v -0.079166 0.430733 -0.082369
v -0.079033 0.435813 -0.079659
v -0.079163 0.461268 -0.063013
v -0.079106 0.458194 -0.066967
v -0.079145 0.463794 -0.058514
v -0.079120 0.462570 -0.057943
v -0.079136 0.460145 -0.062268
v -0.079014 0.454622 -0.070441
v -0.078995 0.464430 -0.053022
v -0.079082 0.457192 -0.066071
v -0.079053 0.436323 -0.080884
v -0.078888 0.440834 -0.077450
v -0.078925 0.450601 -0.073501
v -0.079016 0.465727 -0.053410
v -0.078993 0.453747 -0.069425
v -0.078726 0.465682 -0.047426
v -0.078876 0.446180 -0.076215
v -0.078906 0.441405 -0.078652
v -0.078906 0.449845 -0.072397
v -0.078858 0.445526 -0.075051
v -0.078865 0.436063 -0.080277
v -0.078738 0.467024 -0.047636
v -0.078969 0.460710 -0.062641
v -0.078914 0.457697 -0.066519
v -0.078951 0.463184 -0.058232
v -0.078825 0.465079 -0.053223
v -0.078824 0.454189 -0.069933
v -0.078719 0.441118 -0.078055
v -0.078736 0.450226 -0.072950
v -0.078551 0.466353 -0.047541
v -0.078689 0.445855 -0.075635
usemtl Small_saphenous_vein_rMaterial0
f 1 2 3
f 4 5 2
f 4 2 1
f 6 3 7
f 1 3 6
f 8 9 5
f 8 5 4
f 10 7 11
f 6 7 10
f 12 13 9
f 12 9 8
f 14 11 15
f 10 11 14
f 16 17 13
f 16 13 12
f 18 15 19
f 14 15 18
f 20 21 17
f 20 17 16
f 22 19 23
f 18 19 22
f 24 23 21
f 24 21 20
f 22 23 24
f 25 1 6
f 26 4 1
f 26 1 25
f 27 6 10
f 25 6 27
f 28 8 4
f 28 4 26
f 29 10 14
f 27 10 29
f 30 12 8
f 30 8 28
f 31 14 18
f 29 14 31
f 32 16 12
f 32 12 30
f 33 18 22
f 31 18 33
f 34 20 16
f 34 16 32
f 35 22 24
f 33 22 35
f 36 24 20
f 36 20 34
f 35 24 36
f 37 25 27
f 38 26 25
f 38 25 37
f 39 27 29
f 37 27 39
f 40 28 26
f 40 26 38
f 41 29 31
f 39 29 41
f 42 30 28
f 42 28 40
f 43 31 33
f 41 31 43
f 44 32 30
f 44 30 42
f 45 33 35
f 43 33 45
f 46 34 32
f 46 32 44
f 47 35 36
f 45 35 47
f 48 37 39
f 49 38 37
f 49 37 48
f 50 36 34
f 50 34 46
f 51 39 41
f 48 39 51
f 47 36 50
f 52 40 38
f 52 38 49
f 53 41 43
f 51 41 53
f 54 42 40
f 54 40 52
f 55 43 45
f 53 43 55
f 56 44 42
f 56 42 54
f 57 45 47
f 55 45 57
f 58 46 44
f 58 44 56
f 59 48 51
f 60 49 48
f 60 48 59
f 61 51 53
f 59 51 61
f 62 47 50
f 57 47 62
f 63 52 49
f 63 49 60
f 64 50 46
f 64 46 58
f 62 50 64
f 65 53 55
f 61 53 65
f 66 54 52
f 66 52 63
f 67 55 57
f 65 55 67
f 68 56 54
f 68 54 66
f 69 59 61
f 70 60 59
f 70 59 69
f 71 57 62
f 67 57 71
f 72 61 65
f 69 61 72
f 73 58 56
f 73 56 68
f 74 63 60
f 74 60 70
f 75 62 64
f 71 62 75
f 76 65 67
f 72 65 76
f 77 64 58
f 77 58 73
f 78 66 63
f 78 63 74
f 75 64 77
f 79 67 71
f 76 67 79
f 80 68 66
f 80 66 78
f 81 69 72
f 82 70 69
f 82 69 81
f 83 72 76
f 81 72 83
f 84 74 70
f 84 70 82
f 85 71 75
f 79 71 85
f 86 73 68
f 86 68 80
f 87 76 79
f 83 76 87
f 88 78 74
f 88 74 84
f 89 75 77
f 85 75 89
f 90 77 73
f 90 73 86
f 89 77 90
f 91 79 85
f 87 79 91
f 92 81 83
f 93 82 81
f 93 81 92
f 94 80 78
f 94 78 88
f 95 83 87
f 92 83 95
f 96 84 82
f 96 82 93
f 97 85 89
f 91 85 97
f 98 87 91
f 95 87 98
f 99 86 80
f 99 80 94
f 100 88 84
f 100 84 96
f 101 89 90
f 97 89 101
f 102 92 95
f 103 93 92
f 103 92 102
f 104 90 86
f 104 86 99
f 101 90 104
f 98 91 105
f 105 91 97
f 106 95 98
f 102 95 106
f 107 96 93
f 107 93 103
f 108 94 88
f 108 88 100
f 106 98 109
f 109 98 105
f 110 100 96
f 110 96 107
f 105 97 111
f 111 97 101
f 112 99 94
f 112 94 108
f 113 102 106
f 114 103 102
f 114 102 113
f 115 106 109
f 113 106 115
f 116 107 103
f 116 103 114
f 109 105 117
f 117 105 111
f 118 101 104
f 111 101 118
f 119 104 99
f 119 99 112
f 120 108 100
f 120 100 110
f 118 104 119
f 115 109 121
f 121 109 117
f 122 110 107
f 122 107 116
f 123 113 115
f 124 114 113
f 124 113 123
f 125 115 121
f 123 115 125
f 126 116 114
f 126 114 124
f 117 111 127
f 127 111 118
f 128 112 108
f 128 108 120
f 129 130 131
f 132 130 129
f 133 129 134
f 135 129 133
f 129 131 134
f 135 132 129
f 121 117 136
f 136 117 127
f 137 138 130
f 130 138 139
f 130 139 131
f 132 137 130
f 140 133 141
f 142 133 140
f 133 134 141
f 142 135 133
f 143 120 110
f 143 110 122
f 125 121 144
f 144 121 136
f 145 123 125
f 146 124 123
f 146 123 145
f 140 141 147
f 148 140 147
f 149 140 148
f 149 142 140
f 150 118 119
f 127 118 150
f 151 122 116
f 151 116 126
f 134 131 152
f 141 134 153
f 134 152 153
f 154 119 112
f 154 112 128
f 137 155 138
f 138 156 139
f 155 157 138
f 138 157 156
f 131 139 158
f 131 158 152
f 159 137 132
f 160 132 135
f 160 159 132
f 147 141 161
f 141 153 161
f 162 155 137
f 159 162 137
f 163 135 142
f 163 160 135
f 145 125 164
f 164 125 144
f 165 126 124
f 165 124 146
f 148 147 166
f 166 147 167
f 147 161 167
f 168 148 166
f 169 149 148
f 169 148 168
f 150 119 154
f 170 142 149
f 170 163 142
f 139 156 171
f 139 171 158
f 155 172 157
f 173 172 155
f 162 173 155
f 168 166 174
f 174 166 175
f 166 167 175
f 176 149 169
f 176 170 149
f 177 168 174
f 178 169 168
f 178 168 177
f 157 179 156
f 172 180 157
f 157 180 179
f 181 145 164
f 182 146 145
f 182 145 181
f 136 127 183
f 183 127 150
f 184 128 120
f 184 120 143
f 153 152 185
f 161 153 186
f 153 185 186
f 144 136 187
f 187 136 183
f 188 143 122
f 188 122 151
f 164 144 189
f 189 144 187
f 190 126 165
f 190 151 126
f 191 164 189
f 181 164 191
f 192 165 146
f 192 146 182
f 156 179 193
f 156 193 171
f 173 194 172
f 172 195 180
f 194 195 172
f 152 158 196
f 152 196 185
f 197 162 159
f 198 173 162
f 197 198 162
f 199 159 160
f 199 197 159
f 167 161 200
f 161 186 200
f 201 160 163
f 201 199 160
f 177 174 202
f 202 174 203
f 174 175 203
f 204 169 178
f 204 176 169
f 205 177 202
f 206 178 177
f 206 177 205
f 175 167 207
f 167 200 207
f 158 171 208
f 158 208 196
f 209 163 170
f 209 201 163
f 210 194 173
f 198 210 173
f 205 202 211
f 202 203 212
f 211 202 212
f 213 214 215
f 216 214 213
f 217 218 214
f 214 218 219
f 214 219 215
f 216 217 214
f 213 215 220
f 221 213 220
f 222 213 221
f 222 216 213
f 203 175 223
f 175 207 223
f 224 178 206
f 224 204 178
f 180 225 179
f 195 226 180
f 180 226 225
f 227 150 154
f 183 150 227
f 228 205 211
f 229 206 205
f 229 205 228
f 230 154 128
f 230 128 184
f 231 170 176
f 231 209 170
f 217 232 218
f 232 233 218
f 218 233 234
f 218 234 219
f 220 215 235
f 215 219 236
f 215 236 235
f 221 220 237
f 237 220 238
f 220 235 238
f 239 221 237
f 240 222 221
f 240 221 239
f 189 187 241
f 242 189 241
f 191 189 242
f 179 243 193
f 179 225 243
f 244 217 216
f 245 232 217
f 244 245 217
f 246 216 222
f 246 244 216
f 227 154 230
f 247 190 165
f 247 165 192
f 194 248 195
f 195 249 226
f 248 249 195
f 171 193 250
f 171 250 208
f 212 203 251
f 203 223 251
f 228 211 252
f 211 212 253
f 252 211 253
f 254 206 229
f 254 224 206
f 232 255 233
f 233 256 234
f 255 257 233
f 233 257 256
f 219 234 258
f 219 258 236
f 210 259 194
f 259 248 194
f 260 176 204
f 260 231 176
f 261 255 232
f 245 261 232
f 187 183 262
f 262 183 227
f 241 187 262
f 263 228 252
f 264 229 228
f 264 228 263
f 239 237 265
f 237 238 266
f 265 237 266
f 267 184 143
f 267 143 188
f 268 151 190
f 268 188 151
f 186 185 269
f 200 186 270
f 186 269 270
f 271 222 240
f 271 246 222
f 185 196 272
f 185 272 269
f 207 200 273
f 200 270 273
f 274 198 197
f 275 197 199
f 275 274 197
f 234 256 276
f 234 276 258
f 277 210 198
f 274 277 198
f 278 199 201
f 278 275 199
f 253 212 279
f 212 251 279
f 263 252 280
f 252 253 281
f 280 252 281
f 255 282 257
f 257 283 256
f 282 284 257
f 257 284 283
f 285 282 255
f 261 285 255
f 286 229 264
f 286 254 229
f 226 287 225
f 249 288 226
f 226 288 287
f 223 207 289
f 207 273 289
f 290 204 224
f 290 260 204
f 291 263 280
f 292 264 263
f 292 263 291
f 293 240 239
f 294 239 265
f 293 239 294
f 196 208 295
f 196 295 272
f 296 201 209
f 296 278 201
f 297 259 210
f 277 297 210
f 193 243 298
f 193 298 250
f 256 283 299
f 256 299 276
f 235 236 300
f 238 235 301
f 235 300 301
f 302 227 230
f 262 227 302
f 303 230 184
f 303 184 267
f 241 262 304
f 242 241 305
f 305 241 304
f 306 181 191
f 307 182 181
f 307 181 306
f 225 308 243
f 225 287 308
f 248 309 249
f 249 310 288
f 309 310 249
f 259 311 248
f 311 309 248
f 251 223 312
f 223 289 312
f 313 209 231
f 313 296 209
f 281 253 314
f 253 279 314
f 315 224 254
f 315 290 224
f 291 280 316
f 316 280 317
f 280 281 317
f 318 264 292
f 318 286 264
f 319 291 316
f 320 291 319
f 320 292 291
f 282 321 284
f 321 322 284
f 284 322 323
f 284 323 283
f 324 321 282
f 285 324 282
f 236 258 325
f 236 325 300
f 326 245 244
f 327 261 245
f 326 327 245
f 328 244 246
f 328 326 244
f 266 238 329
f 238 301 329
f 330 271 240
f 330 240 293
f 265 266 331
f 294 265 332
f 332 265 331
f 333 285 261
f 327 333 261
f 334 268 190
f 334 190 247
f 331 266 335
f 266 329 335
f 208 250 336
f 208 336 295
f 319 316 337
f 338 319 337
f 339 319 338
f 339 320 319
f 321 340 322
f 340 341 322
f 322 341 342
f 322 342 323
f 283 323 343
f 283 343 299
f 302 230 303
f 304 262 302
f 344 191 242
f 306 191 344
f 279 251 345
f 251 312 345
f 337 316 346
f 316 317 346
f 347 292 320
f 347 318 292
f 348 340 321
f 324 348 321
f 349 246 271
f 349 328 246
f 350 267 188
f 350 188 268
f 351 192 182
f 351 182 307
f 297 352 259
f 352 311 259
f 353 231 260
f 353 313 231
f 317 281 354
f 281 314 354
f 341 338 355
f 356 338 341
f 338 337 355
f 356 339 338
f 258 276 357
f 258 357 325
f 340 356 341
f 341 355 342
f 358 254 286
f 358 315 254
f 359 324 285
f 333 359 285
f 288 360 287
f 310 361 288
f 288 361 360
f 270 269 362
f 273 270 363
f 270 362 363
f 355 337 364
f 337 346 364
f 323 342 365
f 323 365 343
f 269 272 366
f 269 366 362
f 367 277 274
f 368 274 275
f 368 367 274
f 289 273 369
f 273 363 369
f 370 320 339
f 370 347 320
f 371 356 340
f 348 371 340
f 314 279 372
f 279 345 372
f 342 355 373
f 355 364 373
f 374 294 332
f 375 293 294
f 375 294 374
f 243 308 376
f 243 376 298
f 377 297 277
f 367 377 277
f 378 275 278
f 378 368 275
f 379 339 356
f 379 370 339
f 342 373 365
f 276 299 380
f 276 380 357
f 346 317 381
f 317 354 381
f 371 379 356
f 287 360 382
f 287 382 308
f 309 383 310
f 311 384 309
f 384 383 309
f 312 289 385
f 289 369 385
f 386 260 290
f 386 353 260
f 387 348 324
f 359 387 324
f 310 388 361
f 383 388 310
f 272 295 389
f 272 389 366
f 390 286 318
f 390 358 286
f 332 331 391
f 331 335 392
f 391 331 392
f 393 278 296
f 393 378 278
f 394 352 297
f 377 394 297
f 395 271 330
f 395 349 271
f 250 298 396
f 250 396 336
f 397 332 391
f 374 332 397
f 304 302 398
f 398 302 303
f 344 242 399
f 399 242 305
f 400 330 293
f 400 293 375
f 401 303 267
f 401 267 350
f 402 304 398
f 305 304 402
f 403 247 192
f 403 192 351
f 352 404 311
f 404 384 311
f 345 312 405
f 312 385 405
f 354 314 406
f 314 372 406
f 364 346 407
f 346 381 407
f 299 343 408
f 299 408 380
f 329 301 409
f 301 300 410
f 301 410 409
f 335 329 411
f 329 409 411
f 412 350 268
f 412 268 334
f 413 296 313
f 413 393 296
f 414 318 347
f 414 390 318
f 415 371 348
f 387 415 348
f 416 290 315
f 416 386 290
f 417 327 326
f 418 333 327
f 417 418 327
f 300 325 419
f 300 419 410
f 420 326 328
f 420 417 326
f 421 306 344
f 422 307 306
f 422 306 421
f 361 423 360
f 388 424 361
f 361 424 423
f 398 303 401
f 373 364 425
f 364 407 425
f 426 359 333
f 418 426 333
f 295 336 427
f 295 427 389
f 343 365 428
f 343 428 408
f 363 362 429
f 369 363 430
f 363 429 430
f 372 345 431
f 345 405 431
f 432 347 370
f 432 414 347
f 392 335 433
f 335 411 433
f 421 344 434
f 434 344 399
f 360 423 435
f 360 435 382
f 394 436 352
f 436 404 352
f 362 366 437
f 362 437 429
f 430 377 367
f 430 429 377
f 429 394 377
f 438 367 368
f 438 430 367
f 385 369 438
f 369 430 438
f 439 368 378
f 439 438 368
f 440 313 353
f 440 413 313
f 381 354 441
f 354 406 441
f 365 373 442
f 373 425 442
f 365 442 428
f 443 379 371
f 415 443 371
f 325 357 444
f 325 444 419
f 445 328 349
f 445 420 328
f 446 307 422
f 446 351 307
f 383 447 388
f 388 448 424
f 447 448 388
f 308 382 449
f 308 449 376
f 450 370 379
f 450 432 370
f 451 315 358
f 451 416 315
f 443 450 379
f 384 452 383
f 452 447 383
f 385 438 439
f 405 385 439
f 453 387 359
f 426 453 359
f 366 454 437
f 366 389 454
f 455 439 378
f 455 378 393
f 429 437 394
f 437 436 394
f 456 398 401
f 402 398 456
f 448 457 424
f 424 457 458
f 424 458 423
f 298 376 459
f 298 459 396
f 372 431 460
f 406 372 460
f 461 401 350
f 461 350 412
f 457 421 434
f 462 421 457
f 462 422 421
f 404 463 384
f 463 452 384
f 405 439 455
f 431 405 455
f 464 353 386
f 464 440 353
f 407 381 465
f 381 441 465
f 357 380 466
f 357 466 444
f 467 395 330
f 467 330 400
f 391 392 468
f 397 391 469
f 469 391 468
f 470 455 393
f 470 393 413
f 471 358 390
f 471 451 358
f 472 415 387
f 453 472 387
f 399 305 473
f 473 305 402
f 437 454 436
f 457 434 458
f 448 462 457
f 423 458 474
f 423 474 435
f 392 433 475
f 468 392 475
f 336 396 476
f 336 476 427
f 456 401 461
f 477 334 247
f 477 247 403
f 434 399 478
f 458 434 478
f 479 462 448
f 447 479 448
f 480 349 395
f 480 445 349
f 481 374 397
f 482 375 374
f 482 374 481
f 436 483 404
f 483 463 404
f 478 399 473
f 484 422 462
f 484 446 422
f 382 435 485
f 382 485 449
f 389 486 454
f 389 427 486
f 454 483 436
f 431 455 470
f 460 431 470
f 441 406 487
f 406 460 487
f 425 407 488
f 407 465 488
f 380 408 489
f 380 489 466
f 411 409 490
f 409 410 491
f 409 491 490
f 492 351 446
f 492 403 351
f 458 478 474
f 493 470 413
f 493 413 440
f 494 386 416
f 494 464 386
f 495 390 414
f 495 471 390
f 496 443 415
f 472 496 415
f 433 411 497
f 411 490 497
f 479 484 462
f 452 498 447
f 498 479 447
f 499 418 417
f 500 426 418
f 499 500 418
f 410 419 501
f 410 501 491
f 502 417 420
f 502 499 417
f 503 397 469
f 481 397 503
f 442 425 504
f 425 488 504
f 505 400 375
f 505 375 482
f 454 486 483
f 408 428 506
f 408 506 489
f 507 453 426
f 500 507 426
f 508 414 432
f 508 495 414
f 376 449 509
f 376 509 459
f 460 470 493
f 428 442 510
f 442 504 510
f 511 450 443
f 496 511 443
f 465 441 512
f 441 487 512
f 433 497 513
f 475 433 513
f 487 460 493
f 428 510 506
f 463 514 452
f 514 498 452
f 515 493 440
f 515 440 464
f 516 416 451
f 516 494 416
f 517 432 450
f 517 508 432
f 419 444 518
f 419 518 501
f 519 420 445
f 519 502 420
f 511 517 450
f 435 474 520
f 435 520 485
f 521 472 453
f 507 521 453
f 474 478 522
f 478 473 522
f 523 484 479
f 498 523 479
f 396 459 524
f 396 524 476
f 427 525 486
f 427 476 525
f 483 526 463
f 486 526 483
f 527 446 484
f 527 492 446
f 526 514 463
f 487 493 515
f 473 402 528
f 528 402 456
f 488 465 529
f 465 512 529
f 474 522 520
f 512 487 515
f 444 466 530
f 444 530 518
f 468 475 531
f 469 468 532
f 532 468 531
f 533 412 334
f 533 334 477
f 523 527 484
f 534 515 464
f 534 464 494
f 535 451 471
f 535 516 451
f 536 496 472
f 521 536 472
f 497 490 537
f 490 491 538
f 490 538 537
f 539 480 395
f 539 395 467
f 486 525 526
f 540 500 499
f 537 507 500
f 540 537 500
f 497 537 540
f 513 497 540
f 522 473 528
f 541 540 499
f 541 499 502
f 475 513 542
f 531 475 542
f 543 403 492
f 543 477 403
f 449 485 544
f 449 544 509
f 504 488 545
f 488 529 545
f 537 538 507
f 538 521 507
f 491 501 546
f 491 546 538
f 547 519 445
f 547 445 480
f 503 469 548
f 548 469 532
f 512 515 534
f 466 489 549
f 466 549 530
f 550 467 400
f 550 400 505
f 514 551 498
f 551 523 498
f 529 512 534
f 552 471 495
f 552 535 471
f 553 511 496
f 536 553 496
f 554 482 481
f 555 481 503
f 554 481 555
f 556 534 494
f 556 494 516
f 513 540 541
f 542 513 541
f 510 504 557
f 504 545 557
f 501 518 558
f 501 558 546
f 559 541 502
f 559 502 519
f 538 546 521
f 546 536 521
f 459 509 560
f 459 560 524
f 476 561 525
f 476 524 561
f 562 495 508
f 562 552 495
f 489 506 563
f 489 563 549
f 564 456 461
f 528 456 564
f 565 461 412
f 565 412 533
f 526 566 514
f 566 551 514
f 525 566 526
f 529 534 556
f 567 508 517
f 567 562 508
f 506 510 568
f 510 557 568
f 506 568 563
f 569 517 511
f 553 569 511
f 570 482 554
f 570 505 482
f 555 503 571
f 571 503 548
f 520 522 572
f 522 528 572
f 485 520 573
f 485 573 544
f 545 529 556
f 574 556 516
f 574 516 535
f 569 567 517
f 518 530 575
f 518 575 558
f 546 558 536
f 542 541 559
f 576 527 523
f 551 576 523
f 558 553 536
f 577 492 527
f 577 543 492
f 525 561 566
f 564 461 565
f 520 572 573
f 576 577 527
f 545 556 574
f 557 545 574
f 531 542 578
f 578 542 559
f 572 528 564
f 579 535 552
f 579 574 535
f 530 549 580
f 530 580 575
f 558 575 553
f 581 559 519
f 581 519 547
f 575 569 553
f 532 531 582
f 582 531 578
f 583 477 543
f 583 533 477
f 509 544 584
f 509 584 560
f 585 547 480
f 585 480 539
f 586 555 571
f 587 554 555
f 587 555 586
f 557 574 579
f 568 557 579
f 566 588 551
f 588 576 551
f 524 589 561
f 524 560 589
f 590 552 562
f 590 579 552
f 561 588 566
f 575 580 569
f 580 567 569
f 549 563 591
f 549 591 580
f 578 559 581
f 548 532 592
f 592 532 582
f 563 568 590
f 568 579 590
f 591 562 567
f 591 590 562
f 563 590 591
f 593 539 467
f 593 467 550
f 571 548 594
f 594 548 592
f 586 571 595
f 595 571 594
f 596 597 598
f 599 597 596
f 600 601 597
f 597 601 602
f 597 602 598
f 599 600 597
f 603 596 604
f 605 596 603
f 596 598 604
f 605 599 596
f 580 591 567
f 606 554 587
f 606 570 554
f 607 505 570
f 607 550 505
f 608 609 601
f 601 609 610
f 600 608 601
f 601 610 602
f 561 589 588
f 603 604 611
f 612 603 611
f 613 605 603
f 613 603 612
f 572 564 614
f 573 572 614
f 544 573 615
f 544 615 584
f 616 586 595
f 617 586 616
f 617 587 586
f 618 619 609
f 609 619 620
f 608 618 609
f 609 620 610
f 604 598 621
f 598 602 622
f 598 622 621
f 623 577 576
f 588 623 576
f 624 600 599
f 625 608 600
f 624 625 600
f 626 599 605
f 626 624 599
f 611 604 627
f 604 621 627
f 614 564 565
f 628 543 577
f 628 583 543
f 602 610 629
f 602 629 622
f 630 565 533
f 630 533 583
f 573 614 615
f 631 632 619
f 619 632 633
f 618 631 619
f 619 633 620
f 634 618 608
f 625 634 608
f 616 595 635
f 632 616 635
f 636 616 632
f 636 617 616
f 623 628 577
f 560 637 589
f 560 584 637
f 638 578 581
f 582 578 638
f 635 595 639
f 595 594 639
f 631 636 632
f 632 635 633
f 612 611 640
f 640 611 641
f 611 627 641
f 589 623 588
f 642 581 547
f 642 547 585
f 643 587 617
f 643 606 587
f 610 620 644
f 610 644 629
f 645 605 613
f 645 626 605
f 646 631 618
f 634 646 618
f 614 565 630
f 620 633 647
f 620 647 644
f 648 636 631
f 646 648 631
f 633 635 649
f 635 639 649
f 589 637 623
f 650 617 636
f 650 643 617
f 633 649 647
f 638 581 642
f 594 592 651
f 639 594 651
f 648 650 636
f 652 570 606
f 652 607 570
f 615 614 630
f 584 615 653
f 584 653 637
f 640 641 654
f 653 583 628
f 653 630 583
f 637 628 623
f 592 582 655
f 655 582 638
f 615 630 653
f 656 585 539
f 656 539 593
f 651 592 655
f 627 621 657
f 621 622 658
f 621 658 657
f 641 627 659
f 627 657 659
f 637 653 628
f 660 550 607
f 660 593 550
f 622 629 661
f 622 661 658
f 662 625 624
f 663 634 625
f 662 663 625
f 664 624 626
f 664 662 624
f 665 646 634
f 663 665 634
f 649 639 666
f 639 651 666
f 654 641 667
f 641 659 667
f 629 644 668
f 629 668 661
f 669 606 643
f 669 652 606
f 670 626 645
f 670 664 626
f 671 648 646
f 665 671 646
f 644 647 672
f 644 672 668
f 647 649 673
f 649 666 673
f 674 650 648
f 671 674 648
f 675 643 650
f 675 669 643
f 647 673 672
f 674 675 650
f 654 667 676
f 677 638 642
f 655 638 677
f 678 642 585
f 678 585 656
f 651 655 679
f 666 651 679
f 680 607 652
f 680 660 607
f 677 642 678
f 679 655 677
f 659 657 681
f 657 658 682
f 657 682 681
f 667 659 683
f 659 681 683
f 684 656 593
f 684 593 660
f 658 661 685
f 658 685 682
f 686 663 662
f 687 665 663
f 686 687 663
f 688 662 664
f 688 686 662
f 689 671 665
f 687 689 665
f 673 666 690
f 666 679 690
f 676 667 691
f 667 683 691
f 661 668 692
f 661 692 685
f 693 652 669
f 693 680 652
f 694 664 670
f 694 688 664
f 695 674 671
f 689 695 671
f 668 672 696
f 668 696 692
f 672 673 697
f 673 690 697
f 698 675 674
f 695 698 674
f 699 669 675
f 699 693 669
f 672 697 696
f 698 699 675
f 676 691 700
f 679 677 701
f 701 677 678
f 690 679 701
f 702 678 656
f 702 656 684
f 703 660 680
f 703 684 660
f 701 678 702
f 683 681 704
f 681 682 705
f 681 705 704
f 691 683 706
f 683 704 706
f 707 687 686
f 708 689 687
f 707 708 687
f 682 685 709
f 682 709 705
f 710 686 688
f 710 707 686
f 711 695 689
f 708 711 689
f 697 690 712
f 690 701 712
f 713 680 693
f 713 703 680
f 685 692 714
f 685 714 709
f 700 691 715
f 691 706 715
f 716 698 695
f 711 716 695
f 717 688 694
f 717 710 688
f 692 696 718
f 692 718 714
f 696 697 719
f 697 712 719
f 720 699 698
f 716 720 698
f 721 693 699
f 721 713 693
f 696 719 718
f 712 701 702
f 722 702 684
f 722 684 703
f 720 721 699
f 700 715 723
f 712 702 722
f 706 704 724
f 704 705 725
f 704 725 724
f 726 708 707
f 724 711 708
f 726 724 708
f 715 706 726
f 706 724 726
f 727 707 710
f 727 726 707
f 705 709 728
f 705 728 725
f 725 716 711
f 724 725 711
f 719 712 722
f 729 703 713
f 729 722 703
f 709 714 730
f 709 730 728
f 715 726 727
f 723 715 727
f 728 720 716
f 725 728 716
f 731 727 710
f 731 710 717
f 714 718 732
f 714 732 730
f 718 719 729
f 719 722 729
f 730 721 720
f 728 730 720
f 732 713 721
f 732 729 713
f 718 729 732
f 730 732 721
f 723 727 731
