# 
# Wavefront OBJ file
# Created with Kaydara FBX
# 
mtllib c:\users\tjvan\onedrive\documenten\fontys\minor\nx\.mtlmodels\subcutaneous_prepatellar_bursa.r.obj

g Subcutaneous_prepatellar_bursa_r
v -0.096459 0.441680 0.016233
v -0.096675 0.444104 0.016692
v -0.096558 0.444196 0.016215
v -0.096400 0.446577 0.016711
v -0.096508 0.446496 0.017193
v -0.093900 0.446711 0.017812
v -0.094063 0.444130 0.017349
v -0.096338 0.441783 0.015759
v -0.093799 0.446784 0.017327
v -0.093951 0.444218 0.016870
v -0.095649 0.448896 0.017264
v -0.095743 0.448825 0.017750
v -0.093219 0.449223 0.018277
v -0.095995 0.439384 0.015828
v -0.093844 0.441560 0.016885
v -0.093134 0.449286 0.017789
v -0.095877 0.439498 0.015356
v -0.093729 0.441663 0.016410
v -0.095313 0.437401 0.015517
v -0.093373 0.439118 0.016426
v -0.095200 0.437523 0.015045
v -0.093261 0.439235 0.015953
v -0.094180 0.451096 0.017867
v -0.094255 0.451027 0.018356
v -0.091957 0.451606 0.018749
v -0.091895 0.451669 0.018257
v -0.094075 0.435855 0.015404
v -0.092754 0.436896 0.015983
v -0.093969 0.435982 0.014933
v -0.092649 0.437024 0.015511
v -0.092286 0.452878 0.018394
v -0.092341 0.452805 0.018886
v -0.090374 0.453882 0.019212
v -0.090329 0.453942 0.018718
v -0.092020 0.434836 0.015566
v -0.091443 0.446855 0.018318
v -0.091591 0.444145 0.017901
v -0.091922 0.434970 0.015094
v -0.091361 0.446917 0.017828
v -0.091499 0.444226 0.017416
v -0.090857 0.449492 0.018695
v -0.091377 0.441476 0.017441
v -0.090791 0.449543 0.018202
v -0.091281 0.441577 0.016961
v -0.090932 0.438923 0.016935
v -0.090838 0.439043 0.016459
v -0.089821 0.451970 0.019039
v -0.089776 0.452020 0.018544
v -0.090383 0.436529 0.016386
v -0.090295 0.436662 0.015913
v -0.089792 0.434232 0.015816
v -0.088542 0.454355 0.019366
v -0.089712 0.434371 0.015342
v -0.088514 0.454405 0.018870
v -0.089233 0.446876 0.018625
v -0.089350 0.444139 0.018266
v -0.089181 0.446931 0.018131
v -0.089287 0.444213 0.017775
v -0.088759 0.449540 0.018920
v -0.089154 0.441452 0.017824
v -0.088722 0.449584 0.018424
v -0.089086 0.441549 0.017338
v -0.088788 0.438854 0.017286
v -0.087941 0.452030 0.019171
v -0.088722 0.438974 0.016805
v -0.087922 0.452073 0.018674
v -0.088393 0.436354 0.016654
v -0.088333 0.436490 0.016177
v -0.086940 0.454416 0.019400
v -0.087999 0.433915 0.015971
v -0.086934 0.454461 0.018902
v -0.087945 0.434058 0.015495
v -0.087107 0.446849 0.018780
v -0.087173 0.444136 0.018479
v -0.087083 0.446897 0.018283
v -0.087139 0.444203 0.017985
v -0.086757 0.449494 0.019004
v -0.086745 0.449533 0.018506
v -0.086998 0.441474 0.018064
v -0.086959 0.441567 0.017574
v -0.086738 0.438872 0.017512
v -0.086132 0.451969 0.019187
v -0.086700 0.438992 0.017028
v -0.086136 0.452006 0.018688
v -0.086542 0.436313 0.016821
v -0.086508 0.436452 0.016342
v -0.086399 0.433784 0.016056
v -0.086368 0.433929 0.015578
v -0.085363 0.454341 0.019350
v -0.085377 0.454378 0.018851
v -0.084856 0.446867 0.018841
v -0.084855 0.444173 0.018587
v -0.084857 0.446907 0.018343
v -0.084849 0.444234 0.018090
v -0.084635 0.449502 0.019009
v -0.084646 0.449533 0.018510
v -0.084694 0.441537 0.018199
v -0.084686 0.441626 0.017707
v -0.084182 0.451973 0.019134
v -0.084535 0.438943 0.017649
v -0.084205 0.452003 0.018636
v -0.084527 0.439061 0.017163
v -0.084516 0.436351 0.016931
v -0.084510 0.436491 0.016451
v -0.084594 0.433765 0.016123
v -0.084588 0.433913 0.015646
v -0.083604 0.454345 0.019242
v -0.083635 0.454375 0.018744
v -0.082409 0.446972 0.018775
v -0.082339 0.444298 0.018554
v -0.082440 0.447006 0.018278
v -0.082368 0.444353 0.018058
v -0.082333 0.449589 0.018905
v -0.082370 0.449614 0.018407
v -0.082189 0.441694 0.018185
v -0.082218 0.441780 0.017694
v -0.082136 0.452054 0.018503
v -0.082092 0.452029 0.019000
v -0.082501 0.433874 0.016116
v -0.082243 0.436505 0.016925
v -0.082275 0.436646 0.016446
v -0.082530 0.434023 0.015640
v -0.082113 0.439118 0.017642
v -0.082146 0.439236 0.017157
v -0.081809 0.454386 0.018584
v -0.081761 0.454360 0.019081
v -0.080161 0.434133 0.015961
v -0.079823 0.436957 0.016258
v -0.080229 0.434279 0.015487
v -0.079749 0.436818 0.016732
v -0.079831 0.447212 0.018040
v -0.079924 0.449769 0.018157
v -0.079766 0.447183 0.018535
v -0.079857 0.449747 0.018652
v -0.079705 0.444596 0.017839
v -0.079990 0.452108 0.018263
v -0.079639 0.444544 0.018331
v -0.079922 0.452085 0.018758
v -0.079570 0.439567 0.016944
v -0.079495 0.439449 0.017424
v -0.079570 0.442076 0.017477
v -0.079499 0.441991 0.017965
v -0.080042 0.454309 0.018373
v -0.079975 0.454284 0.018868
v -0.077718 0.434508 0.015633
v -0.077276 0.437385 0.015870
v -0.077823 0.434651 0.015165
v -0.077164 0.437249 0.016338
v -0.078327 0.454174 0.018106
v -0.077817 0.452160 0.017911
v -0.078241 0.454147 0.018598
v -0.077398 0.449966 0.017743
v -0.077725 0.452136 0.018402
v -0.077301 0.449947 0.018233
v -0.076909 0.440012 0.016513
v -0.077131 0.447488 0.017606
v -0.077032 0.447462 0.018095
v -0.076794 0.439895 0.016985
v -0.076960 0.444925 0.017402
v -0.076856 0.444874 0.017889
v -0.076842 0.442474 0.017036
v -0.076732 0.442388 0.017516
v -0.076636 0.453972 0.017778
v -0.076533 0.453942 0.018266
v -0.075372 0.435054 0.015186
v -0.074764 0.437893 0.015307
v -0.075505 0.435193 0.014725
v -0.075656 0.452204 0.017450
v -0.074624 0.437760 0.015768
v -0.075545 0.452178 0.017937
v -0.074882 0.450176 0.017175
v -0.074762 0.450155 0.017660
v -0.074270 0.440511 0.015881
v -0.074127 0.440395 0.016345
v -0.074444 0.447788 0.016978
v -0.074318 0.447762 0.017461
v -0.074232 0.445291 0.016750
v -0.074134 0.442919 0.016379
v -0.074099 0.445240 0.017230
v -0.073995 0.442832 0.016852
v -0.075002 0.453420 0.017381
v -0.074889 0.453387 0.017866
v -0.073513 0.452210 0.016927
v -0.073392 0.452183 0.017411
v -0.073430 0.436215 0.014927
v -0.072321 0.438495 0.014675
v -0.073577 0.436350 0.014469
v -0.072170 0.438366 0.015134
v -0.072382 0.450389 0.016522
v -0.071656 0.441034 0.015139
v -0.072253 0.450367 0.017004
v -0.071504 0.440920 0.015601
v -0.071775 0.448097 0.016243
v -0.071639 0.448070 0.016723
v -0.071448 0.443384 0.015604
v -0.071524 0.445673 0.015979
v -0.071299 0.443298 0.016074
v -0.071381 0.445621 0.016455
usemtl Subcutaneous_prepatellar_bursa_rMaterial0
f 1 2 3
f 2 4 3
f 2 5 4
f 6 5 2
f 7 2 1
f 6 2 7
f 1 3 8
f 9 3 4
f 10 8 3
f 9 10 3
f 5 11 4
f 5 12 11
f 13 12 5
f 13 5 6
f 14 1 8
f 15 1 14
f 7 1 15
f 16 4 11
f 16 9 4
f 14 8 17
f 18 17 8
f 10 18 8
f 19 14 17
f 20 14 19
f 15 14 20
f 19 17 21
f 22 21 17
f 18 22 17
f 12 23 11
f 12 24 23
f 25 24 12
f 25 12 13
f 26 11 23
f 26 16 11
f 27 19 21
f 28 19 27
f 20 19 28
f 27 21 29
f 30 29 21
f 22 30 21
f 24 31 23
f 24 32 31
f 33 32 24
f 33 24 25
f 34 23 31
f 34 26 23
f 35 27 29
f 28 27 35
f 36 6 7
f 37 7 15
f 36 7 37
f 30 38 29
f 35 29 38
f 39 10 9
f 40 18 10
f 39 40 10
f 41 13 6
f 41 6 36
f 42 15 20
f 37 15 42
f 43 9 16
f 43 39 9
f 44 22 18
f 40 44 18
f 45 20 28
f 42 20 45
f 46 30 22
f 44 46 22
f 47 25 13
f 47 13 41
f 48 16 26
f 48 43 16
f 49 28 35
f 45 28 49
f 50 38 30
f 46 50 30
f 32 34 31
f 32 33 34
f 51 35 38
f 49 35 51
f 52 33 25
f 52 25 47
f 50 53 38
f 51 38 53
f 54 26 34
f 54 48 26
f 55 36 37
f 56 37 42
f 55 37 56
f 57 40 39
f 58 44 40
f 57 58 40
f 59 41 36
f 59 36 55
f 60 42 45
f 56 42 60
f 61 39 43
f 61 57 39
f 62 46 44
f 58 62 44
f 63 45 49
f 60 45 63
f 64 47 41
f 64 41 59
f 65 50 46
f 62 65 46
f 66 43 48
f 66 61 43
f 67 49 51
f 63 49 67
f 33 54 34
f 33 52 54
f 68 53 50
f 65 68 50
f 69 52 47
f 69 47 64
f 70 51 53
f 67 51 70
f 71 48 54
f 71 66 48
f 68 72 53
f 70 53 72
f 73 55 56
f 74 56 60
f 73 56 74
f 75 58 57
f 76 62 58
f 75 76 58
f 77 59 55
f 77 55 73
f 78 57 61
f 78 75 57
f 79 60 63
f 74 60 79
f 80 65 62
f 76 80 62
f 81 63 67
f 79 63 81
f 82 64 59
f 82 59 77
f 83 68 65
f 80 83 65
f 84 61 66
f 84 78 61
f 52 71 54
f 52 69 71
f 85 67 70
f 81 67 85
f 86 72 68
f 83 86 68
f 87 70 72
f 85 70 87
f 86 88 72
f 87 72 88
f 89 69 64
f 89 64 82
f 90 66 71
f 90 84 66
f 91 73 74
f 92 74 79
f 91 74 92
f 93 76 75
f 94 80 76
f 93 94 76
f 95 77 73
f 95 73 91
f 96 75 78
f 96 93 75
f 97 79 81
f 92 79 97
f 98 83 80
f 94 98 80
f 69 90 71
f 69 89 90
f 99 82 77
f 99 77 95
f 100 81 85
f 97 81 100
f 101 78 84
f 101 96 78
f 102 86 83
f 98 102 83
f 103 85 87
f 100 85 103
f 104 88 86
f 102 104 86
f 105 87 88
f 103 87 105
f 105 88 106
f 104 106 88
f 107 89 82
f 107 82 99
f 108 84 90
f 108 101 84
f 89 108 90
f 89 107 108
f 109 91 92
f 110 92 97
f 109 92 110
f 111 94 93
f 112 98 94
f 111 112 94
f 113 95 91
f 113 91 109
f 114 93 96
f 114 111 93
f 115 97 100
f 110 97 115
f 116 102 98
f 112 116 98
f 117 96 101
f 117 114 96
f 118 99 95
f 118 95 113
f 119 105 106
f 120 103 105
f 120 105 119
f 121 106 104
f 119 106 122
f 121 122 106
f 123 100 103
f 115 100 123
f 124 104 102
f 116 124 102
f 123 103 120
f 124 121 104
f 125 101 108
f 125 117 101
f 126 107 99
f 126 99 118
f 107 125 108
f 107 126 125
f 127 119 122
f 128 122 121
f 127 122 129
f 128 129 122
f 130 120 119
f 130 119 127
f 131 112 111
f 132 111 114
f 132 131 111
f 133 109 110
f 134 113 109
f 134 109 133
f 135 116 112
f 131 135 112
f 136 114 117
f 136 132 114
f 137 110 115
f 133 110 137
f 138 118 113
f 138 113 134
f 139 121 124
f 139 128 121
f 140 123 120
f 140 120 130
f 141 124 116
f 135 141 116
f 142 115 123
f 137 115 142
f 141 139 124
f 143 117 125
f 143 136 117
f 142 123 140
f 144 126 118
f 144 118 138
f 126 143 125
f 126 144 143
f 145 127 129
f 146 129 128
f 145 129 147
f 146 147 129
f 148 130 127
f 148 127 145
f 149 136 143
f 144 149 143
f 150 132 136
f 149 150 136
f 151 144 138
f 144 151 149
f 152 131 132
f 150 152 132
f 153 138 134
f 151 138 153
f 154 134 133
f 153 134 154
f 155 128 139
f 155 146 128
f 156 135 131
f 152 156 131
f 157 133 137
f 154 133 157
f 158 140 130
f 158 130 148
f 159 141 135
f 156 159 135
f 160 137 142
f 157 137 160
f 161 139 141
f 161 155 139
f 159 161 141
f 162 142 140
f 162 140 158
f 160 142 162
f 151 163 149
f 163 150 149
f 164 151 153
f 151 164 163
f 165 145 147
f 166 147 146
f 165 147 167
f 166 167 147
f 168 152 150
f 163 168 150
f 169 148 145
f 169 145 165
f 170 153 154
f 164 153 170
f 171 156 152
f 168 171 152
f 172 154 157
f 170 154 172
f 173 146 155
f 173 166 146
f 174 158 148
f 174 148 169
f 175 159 156
f 171 175 156
f 176 157 160
f 172 157 176
f 177 161 159
f 175 177 159
f 178 155 161
f 178 173 155
f 179 160 162
f 176 160 179
f 177 178 161
f 180 162 158
f 180 158 174
f 179 162 180
f 164 181 163
f 181 168 163
f 182 164 170
f 164 182 181
f 181 183 168
f 183 171 168
f 182 170 184
f 184 170 172
f 185 165 167
f 186 167 166
f 185 167 187
f 186 187 167
f 188 169 165
f 188 165 185
f 182 183 181
f 189 175 171
f 183 189 171
f 182 184 183
f 190 166 173
f 190 186 166
f 191 172 176
f 184 172 191
f 192 174 169
f 192 169 188
f 193 177 175
f 189 193 175
f 194 176 179
f 191 176 194
f 195 173 178
f 195 190 173
f 196 178 177
f 193 196 177
f 197 180 174
f 197 174 192
f 196 195 178
f 198 179 180
f 194 179 198
f 198 180 197
f 188 185 187
f 188 187 186
f 184 189 183
f 184 191 189
f 191 193 189
f 192 188 186
f 192 186 190
f 191 194 193
f 194 196 193
f 197 192 190
f 197 190 195
f 194 198 196
f 198 195 196
f 198 197 195
