# 
# Wavefront OBJ file
# Created with Kaydara FBX
# 
mtllib c:\users\tjvan\onedrive\documenten\fontys\minor\nx\.mtlmodels\subcutaneous_infrapatellar_bursa.r.obj

g Subcutaneous_Infrapatellar_bursa_r
v -0.091911 0.402195 0.008391
v -0.091285 0.407070 0.008576
v -0.091773 0.402240 0.007913
v -0.091023 0.399458 0.008393
v -0.091405 0.407007 0.009057
v -0.088134 0.407553 0.010058
v -0.088573 0.402157 0.009306
v -0.088052 0.407617 0.009568
v -0.090879 0.399496 0.007915
v -0.088473 0.402203 0.008818
v -0.089288 0.411984 0.010063
v -0.089380 0.411904 0.010548
v -0.086162 0.411820 0.010854
v -0.086109 0.411890 0.010361
v -0.090136 0.396689 0.008421
v -0.088121 0.399140 0.009276
v -0.089993 0.396749 0.007946
v -0.088030 0.399181 0.008786
v -0.089663 0.395023 0.008374
v -0.087632 0.396218 0.009163
v -0.089546 0.395110 0.007896
v -0.087556 0.396281 0.008673
v -0.089177 0.393395 0.008320
v -0.086744 0.393876 0.008811
v -0.089094 0.393473 0.007833
v -0.086693 0.393952 0.008320
v -0.085918 0.391521 0.008451
v -0.085883 0.391609 0.007960
v -0.083649 0.407900 0.010505
v -0.084805 0.401422 0.009814
v -0.083659 0.407958 0.010008
v -0.084793 0.401472 0.009317
v -0.082703 0.411658 0.010898
v -0.084441 0.398419 0.009412
v -0.082737 0.411722 0.010403
v -0.084441 0.398471 0.008914
v -0.084077 0.395542 0.009025
v -0.084090 0.395600 0.008528
v -0.084192 0.392816 0.008767
v -0.084211 0.392902 0.008275
v -0.084290 0.390152 0.008225
v -0.084323 0.390260 0.007738
v -0.081416 0.402067 0.009628
v -0.080418 0.407982 0.010044
v -0.081510 0.402119 0.009140
v -0.080530 0.408043 0.009560
v -0.081354 0.399227 0.009383
v -0.081447 0.399285 0.008895
v -0.081467 0.390506 0.007825
v -0.081348 0.393535 0.008114
v -0.081580 0.390625 0.007353
v -0.081238 0.393445 0.008593
v -0.081174 0.396444 0.008487
v -0.081068 0.396381 0.008972
v -0.079410 0.412135 0.010371
v -0.079541 0.412203 0.009893
v -0.078797 0.390999 0.007037
v -0.078733 0.394248 0.007261
v -0.078979 0.391108 0.006584
v -0.078274 0.402696 0.008219
v -0.077479 0.408203 0.008576
v -0.078542 0.394167 0.007716
v -0.078424 0.400055 0.007949
v -0.078090 0.402639 0.008681
v -0.077295 0.408134 0.009036
v -0.078610 0.397429 0.007592
v -0.078234 0.399996 0.008408
v -0.078417 0.397368 0.008049
v -0.076437 0.412747 0.008861
v -0.076250 0.412665 0.009318
v -0.075144 0.393945 0.006105
v -0.074649 0.396915 0.005692
v -0.075350 0.394030 0.005658
v -0.074440 0.396853 0.006142
v -0.073953 0.399802 0.005716
v -0.073407 0.402108 0.005754
v -0.073738 0.399738 0.006162
v -0.073189 0.402046 0.006199
v -0.072859 0.404413 0.005796
v -0.072084 0.409754 0.006256
v -0.072642 0.404351 0.006242
v -0.071874 0.409677 0.006703
v -0.073759 0.412343 0.007696
v -0.073553 0.412253 0.008143
usemtl Subcutaneous_Infrapatellar_bursa_rMaterial0
f 1 2 3
f 4 1 3
f 1 5 2
f 6 5 1
f 7 1 4
f 6 1 7
f 8 3 2
f 4 3 9
f 10 9 3
f 8 10 3
f 5 11 2
f 5 12 11
f 13 12 5
f 13 5 6
f 14 2 11
f 14 8 2
f 15 4 9
f 16 4 15
f 7 4 16
f 15 9 17
f 18 17 9
f 10 18 9
f 19 15 17
f 20 15 19
f 16 15 20
f 19 17 21
f 22 21 17
f 18 22 17
f 23 19 21
f 24 19 23
f 20 19 24
f 23 21 25
f 26 25 21
f 22 26 21
f 12 14 11
f 12 13 14
f 27 23 25
f 24 23 27
f 26 28 25
f 27 25 28
f 29 6 7
f 30 7 16
f 29 7 30
f 31 10 8
f 32 18 10
f 31 32 10
f 33 13 6
f 33 6 29
f 34 16 20
f 30 16 34
f 35 8 14
f 35 31 8
f 36 22 18
f 32 36 18
f 37 20 24
f 34 20 37
f 38 26 22
f 36 38 22
f 39 24 27
f 37 24 39
f 40 28 26
f 38 40 26
f 13 35 14
f 13 33 35
f 41 27 28
f 39 27 41
f 41 28 42
f 40 42 28
f 43 30 34
f 44 29 30
f 44 30 43
f 45 36 32
f 46 32 31
f 46 45 32
f 47 34 37
f 43 34 47
f 48 38 36
f 45 48 36
f 49 41 42
f 50 42 40
f 49 42 51
f 50 51 42
f 52 39 41
f 52 41 49
f 53 40 38
f 53 50 40
f 54 37 39
f 54 39 52
f 48 53 38
f 47 37 54
f 55 33 29
f 55 29 44
f 56 31 35
f 56 46 31
f 33 56 35
f 33 55 56
f 57 49 51
f 58 51 50
f 57 51 59
f 58 59 51
f 60 48 45
f 61 45 46
f 61 60 45
f 62 52 49
f 62 49 57
f 63 53 48
f 60 63 48
f 64 43 47
f 65 44 43
f 65 43 64
f 66 50 53
f 66 58 50
f 67 47 54
f 64 47 67
f 68 54 52
f 68 52 62
f 63 66 53
f 67 54 68
f 69 46 56
f 69 61 46
f 70 55 44
f 70 44 65
f 55 69 56
f 55 70 69
f 71 57 59
f 72 59 58
f 71 59 73
f 72 73 59
f 74 62 57
f 74 57 71
f 75 58 66
f 75 72 58
f 76 66 63
f 76 75 66
f 77 68 62
f 77 62 74
f 78 67 68
f 78 68 77
f 79 63 60
f 79 76 63
f 80 60 61
f 80 79 60
f 81 64 67
f 81 67 78
f 82 65 64
f 82 64 81
f 83 61 69
f 83 80 61
f 84 70 65
f 84 65 82
f 70 83 69
f 70 84 83
f 74 71 73
f 74 73 72
f 77 74 72
f 77 72 75
f 78 77 75
f 78 75 76
f 84 80 83
f 84 82 80
f 81 78 76
f 81 76 79
f 82 81 79
f 82 79 80
