# 
# Wavefront OBJ file
# Created with Kaydara FBX
# 
mtllib c:\users\tjvan\onedrive\documenten\fontys\minor\nx\.mtlmodels\subcutaneous_bursa_of_tuberosity_of_tibia.r.obj

g Subcutaneous_bursa_of_tuberosity_of_tibia_r
v -0.088158 0.372118 0.000993
v -0.088180 0.374326 0.001005
v -0.088126 0.374338 0.000508
v -0.086465 0.374441 0.001198
v -0.086925 0.376607 0.000687
v -0.086996 0.376593 0.001182
v -0.085587 0.377436 0.001455
v -0.088121 0.372133 0.000495
v -0.087321 0.369613 0.000960
v -0.086652 0.371770 0.001079
v -0.086431 0.374463 0.000699
v -0.087301 0.369637 0.000461
v -0.086639 0.371791 0.000580
v -0.085560 0.377468 0.000957
v -0.086818 0.368172 0.000892
v -0.086335 0.368910 0.000953
v -0.086815 0.368212 0.000393
v -0.086339 0.368942 0.000454
v -0.085620 0.367163 0.000773
v -0.085631 0.367203 0.000275
v -0.084608 0.374369 0.001231
v -0.085138 0.371284 0.001010
v -0.084597 0.374402 0.000732
v -0.085132 0.371311 0.000511
v -0.084492 0.377278 0.001454
v -0.084482 0.377317 0.000956
v -0.084900 0.368580 0.000869
v -0.084891 0.368612 0.000370
v -0.084830 0.366826 0.000742
v -0.084818 0.366863 0.000243
v -0.083150 0.371931 0.001153
v -0.082998 0.374675 0.001293
v -0.083126 0.371958 0.000655
v -0.082974 0.374707 0.000795
v -0.083252 0.369487 0.001028
v -0.083231 0.369518 0.000529
v -0.083512 0.367298 0.000882
v -0.083485 0.367332 0.000384
v -0.082777 0.376887 0.001476
v -0.082755 0.376925 0.000978
v -0.082188 0.368581 0.000976
v -0.081647 0.371007 0.001169
v -0.081628 0.371036 0.000670
v -0.082182 0.368617 0.000478
v -0.081282 0.373169 0.001313
v -0.081254 0.373196 0.000815
v -0.081090 0.375391 0.001467
v -0.081060 0.375424 0.000969
v -0.081851 0.376620 0.001513
v -0.081820 0.376658 0.001015
usemtl Subcutaneous_bursa_of_tuberosity_of_tibia_rMaterial0
f 1 2 3
f 4 2 1
f 2 5 3
f 2 6 5
f 7 6 2
f 7 2 4
f 1 3 8
f 9 1 8
f 10 1 9
f 4 1 10
f 11 8 3
f 9 8 12
f 13 12 8
f 11 13 8
f 14 3 5
f 14 11 3
f 15 9 12
f 16 9 15
f 10 9 16
f 15 12 17
f 18 17 12
f 13 18 12
f 6 14 5
f 6 7 14
f 19 15 17
f 16 15 19
f 18 20 17
f 19 17 20
f 21 4 10
f 22 10 16
f 21 10 22
f 23 13 11
f 24 18 13
f 23 24 13
f 25 7 4
f 25 4 21
f 26 11 14
f 26 23 11
f 27 16 19
f 22 16 27
f 28 20 18
f 24 28 18
f 29 19 20
f 28 30 20
f 29 20 30
f 27 19 29
f 7 26 14
f 7 25 26
f 31 22 27
f 32 21 22
f 32 22 31
f 33 28 24
f 34 24 23
f 34 33 24
f 35 27 29
f 31 27 35
f 36 30 28
f 33 36 28
f 37 29 30
f 35 29 37
f 37 30 38
f 36 38 30
f 39 25 21
f 39 21 32
f 40 23 26
f 40 34 23
f 25 40 26
f 25 39 40
f 41 37 38
f 42 35 37
f 42 37 41
f 43 38 36
f 41 38 44
f 43 44 38
f 45 31 35
f 45 35 42
f 46 36 33
f 46 43 36
f 47 32 31
f 47 31 45
f 48 33 34
f 48 46 33
f 49 39 32
f 49 32 47
f 50 34 40
f 50 48 34
f 39 50 40
f 39 49 50
f 42 41 44
f 42 44 43
f 49 48 50
f 49 47 48
f 45 42 43
f 45 43 46
f 47 45 46
f 47 46 48
