# 
# Wavefront OBJ file
# Created with Kaydara FBX
# 
mtllib c:\users\tjvan\onedrive\documenten\fontys\minor\nx\.mtlmodels\subfascial_prepatellar_bursa.r.obj

g Subfascial_prepatellar_bursa_r
v -0.097192 0.445074 0.013671
v -0.096979 0.447661 0.013659
v -0.097086 0.445168 0.013192
v -0.096834 0.442377 0.013152
v -0.097083 0.447585 0.014142
v -0.094433 0.447804 0.014746
v -0.094556 0.445136 0.014267
v -0.094335 0.447876 0.014261
v -0.096726 0.442489 0.012677
v -0.094455 0.445228 0.013787
v -0.096224 0.449978 0.014142
v -0.096324 0.449917 0.014628
v -0.093770 0.450314 0.015198
v -0.093678 0.450370 0.014710
v -0.096264 0.439935 0.012655
v -0.094251 0.442362 0.013738
v -0.096155 0.440063 0.012184
v -0.094147 0.442473 0.013262
v -0.094752 0.452161 0.014700
v -0.094844 0.452107 0.015188
v -0.092543 0.452679 0.015659
v -0.095616 0.438166 0.012287
v -0.093720 0.439812 0.013213
v -0.092463 0.452729 0.015168
v -0.095506 0.438307 0.011820
v -0.093616 0.439940 0.012741
v -0.094490 0.436943 0.012162
v -0.093139 0.437770 0.012753
v -0.094379 0.437093 0.011698
v -0.093033 0.437912 0.012286
v -0.092878 0.453931 0.015234
v -0.092957 0.453876 0.015725
v -0.091003 0.454931 0.016121
v -0.090936 0.454979 0.015628
v -0.091717 0.447875 0.015272
v -0.091855 0.445091 0.014799
v -0.092498 0.436063 0.012356
v -0.091636 0.447944 0.014783
v -0.091769 0.445180 0.014314
v -0.091152 0.450535 0.015686
v -0.092393 0.436210 0.011889
v -0.091079 0.450588 0.015194
v -0.091606 0.442303 0.014274
v -0.091516 0.442411 0.013794
v -0.090186 0.453004 0.016046
v -0.091143 0.439712 0.013731
v -0.090126 0.453049 0.015552
v -0.091053 0.439836 0.013255
v -0.090642 0.437467 0.013200
v -0.090551 0.437605 0.012728
v -0.089005 0.455360 0.016376
v -0.090135 0.435439 0.012681
v -0.088957 0.455402 0.015880
v -0.090046 0.435581 0.012210
v -0.088880 0.447729 0.015651
v -0.089029 0.444900 0.015206
v -0.088827 0.447794 0.015158
v -0.088969 0.444984 0.014717
v -0.088417 0.450484 0.016018
v -0.088373 0.450534 0.015522
v -0.088842 0.442193 0.014710
v -0.088777 0.442296 0.014225
v -0.088494 0.439661 0.014165
v -0.087717 0.452996 0.016289
v -0.087685 0.453036 0.015791
v -0.088428 0.439782 0.013684
v -0.088171 0.437302 0.013570
v -0.088106 0.437437 0.013093
v -0.086898 0.455352 0.016503
v -0.087881 0.435046 0.012950
v -0.086878 0.455389 0.016004
v -0.087818 0.435186 0.012474
v -0.085867 0.447602 0.015863
v -0.086010 0.444796 0.015470
v -0.085848 0.447662 0.015367
v -0.085982 0.444873 0.014977
v -0.085515 0.450381 0.016168
v -0.085892 0.442193 0.015017
v -0.085505 0.450427 0.015670
v -0.085860 0.442291 0.014528
v -0.085684 0.439730 0.014480
v -0.085652 0.439849 0.013995
v -0.085048 0.452906 0.016362
v -0.085050 0.452941 0.015863
v -0.085565 0.437297 0.013838
v -0.085534 0.437431 0.013357
v -0.085516 0.434875 0.013137
v -0.085485 0.435014 0.012658
v -0.084532 0.455260 0.016490
v -0.084542 0.455290 0.015991
v -0.082746 0.445004 0.015563
v -0.082645 0.447736 0.015889
v -0.082759 0.445074 0.015068
v -0.082663 0.447789 0.015392
v -0.082701 0.442455 0.015154
v -0.082711 0.442547 0.014663
v -0.082427 0.450460 0.016122
v -0.082452 0.450499 0.015624
v -0.082629 0.439989 0.014630
v -0.082639 0.440104 0.014143
v -0.082655 0.437475 0.013970
v -0.082664 0.437607 0.013488
v -0.082748 0.434927 0.013236
v -0.082153 0.452978 0.016257
v -0.082185 0.453006 0.015759
v -0.082754 0.435064 0.012755
v -0.081858 0.455354 0.016338
v -0.081894 0.455377 0.015840
v -0.079718 0.435213 0.013158
v -0.079483 0.437868 0.013868
v -0.079538 0.437994 0.013388
v -0.079768 0.435345 0.012678
v -0.079285 0.445452 0.015391
v -0.079266 0.448087 0.015668
v -0.079342 0.445516 0.014898
v -0.079323 0.448133 0.015173
v -0.079337 0.443031 0.014522
v -0.079279 0.442943 0.015011
v -0.079322 0.440456 0.014506
v -0.079380 0.440568 0.014022
v -0.079305 0.450731 0.015368
v -0.079246 0.450696 0.015863
v -0.079320 0.453147 0.015502
v -0.079262 0.453121 0.015998
v -0.079358 0.455446 0.015605
v -0.079302 0.455422 0.016102
v -0.076740 0.435814 0.012875
v -0.076268 0.438615 0.012995
v -0.076825 0.435941 0.012399
v -0.076175 0.438494 0.013471
v -0.075903 0.441226 0.013564
v -0.075807 0.441119 0.014042
v -0.075776 0.443662 0.014036
v -0.077337 0.455206 0.015342
v -0.075799 0.446070 0.014403
v -0.075899 0.448592 0.014680
v -0.075682 0.443576 0.014520
v -0.076164 0.451045 0.014908
v -0.076676 0.453226 0.015127
v -0.077266 0.455178 0.015836
v -0.075708 0.446008 0.014891
v -0.075812 0.448548 0.015170
v -0.076079 0.451011 0.015399
v -0.076597 0.453196 0.015620
v -0.075677 0.454505 0.015040
v -0.075594 0.454474 0.015532
v -0.074312 0.437084 0.012699
v -0.072979 0.439419 0.012458
v -0.074416 0.437207 0.012225
v -0.072872 0.439302 0.012932
v -0.074182 0.453226 0.014686
v -0.074093 0.453194 0.015177
v -0.072307 0.441992 0.012911
v -0.072199 0.441888 0.013388
v -0.073037 0.451397 0.014334
v -0.072943 0.451361 0.014824
v -0.072115 0.444365 0.013350
v -0.072435 0.449104 0.014029
v -0.072009 0.444281 0.013831
v -0.072193 0.446671 0.013721
v -0.072337 0.449059 0.014518
v -0.072092 0.446610 0.014207
usemtl Subfascial_prepatellar_bursa_rMaterial0
f 1 2 3
f 4 1 3
f 1 5 2
f 6 5 1
f 7 1 4
f 6 1 7
f 8 3 2
f 4 3 9
f 10 9 3
f 8 10 3
f 5 11 2
f 5 12 11
f 13 12 5
f 13 5 6
f 14 2 11
f 14 8 2
f 15 4 9
f 16 4 15
f 7 4 16
f 15 9 17
f 18 17 9
f 10 18 9
f 12 19 11
f 12 20 19
f 21 20 12
f 21 12 13
f 22 15 17
f 23 15 22
f 16 15 23
f 24 11 19
f 24 14 11
f 22 17 25
f 26 25 17
f 18 26 17
f 27 22 25
f 28 22 27
f 23 22 28
f 27 25 29
f 30 29 25
f 26 30 25
f 20 31 19
f 20 32 31
f 33 32 20
f 33 20 21
f 34 19 31
f 34 24 19
f 35 6 7
f 36 7 16
f 35 7 36
f 37 27 29
f 28 27 37
f 38 10 8
f 39 18 10
f 38 39 10
f 40 13 6
f 40 6 35
f 30 41 29
f 37 29 41
f 42 8 14
f 42 38 8
f 43 16 23
f 36 16 43
f 44 26 18
f 39 44 18
f 45 21 13
f 45 13 40
f 46 23 28
f 43 23 46
f 47 14 24
f 47 42 14
f 48 30 26
f 44 48 26
f 49 28 37
f 46 28 49
f 50 41 30
f 48 50 30
f 32 34 31
f 32 33 34
f 51 33 21
f 51 21 45
f 52 37 41
f 49 37 52
f 53 24 34
f 53 47 24
f 50 54 41
f 52 41 54
f 55 35 36
f 56 36 43
f 55 36 56
f 57 39 38
f 58 44 39
f 57 58 39
f 59 40 35
f 59 35 55
f 60 38 42
f 60 57 38
f 61 43 46
f 56 43 61
f 62 48 44
f 58 62 44
f 63 46 49
f 61 46 63
f 64 45 40
f 64 40 59
f 65 42 47
f 65 60 42
f 66 50 48
f 62 66 48
f 33 53 34
f 33 51 53
f 67 49 52
f 63 49 67
f 68 54 50
f 66 68 50
f 69 51 45
f 69 45 64
f 70 52 54
f 67 52 70
f 71 47 53
f 71 65 47
f 68 72 54
f 70 54 72
f 73 55 56
f 74 56 61
f 73 56 74
f 51 71 53
f 51 69 71
f 75 58 57
f 76 62 58
f 75 76 58
f 77 59 55
f 77 55 73
f 78 61 63
f 74 61 78
f 79 57 60
f 79 75 57
f 80 66 62
f 76 80 62
f 81 63 67
f 78 63 81
f 82 68 66
f 80 82 66
f 83 64 59
f 83 59 77
f 84 60 65
f 84 79 60
f 85 67 70
f 81 67 85
f 86 72 68
f 82 86 68
f 87 70 72
f 85 70 87
f 86 88 72
f 87 72 88
f 89 69 64
f 89 64 83
f 90 65 71
f 90 84 65
f 69 90 71
f 69 89 90
f 91 74 78
f 92 73 74
f 92 74 91
f 93 80 76
f 94 76 75
f 94 93 76
f 95 78 81
f 91 78 95
f 96 82 80
f 93 96 80
f 97 77 73
f 97 73 92
f 98 75 79
f 98 94 75
f 99 81 85
f 95 81 99
f 100 86 82
f 96 100 82
f 101 85 87
f 99 85 101
f 102 88 86
f 100 102 86
f 103 87 88
f 101 87 103
f 104 83 77
f 104 77 97
f 105 79 84
f 105 98 79
f 103 88 106
f 102 106 88
f 107 89 83
f 107 83 104
f 108 84 90
f 108 105 84
f 89 108 90
f 89 107 108
f 109 103 106
f 110 101 103
f 110 103 109
f 111 106 102
f 109 106 112
f 111 112 106
f 113 91 95
f 114 92 91
f 114 91 113
f 115 96 93
f 116 93 94
f 116 115 93
f 117 100 96
f 115 117 96
f 118 95 99
f 113 95 118
f 119 99 101
f 119 101 110
f 120 102 100
f 120 111 102
f 121 94 98
f 121 116 94
f 117 120 100
f 122 97 92
f 122 92 114
f 118 99 119
f 123 98 105
f 123 121 98
f 124 104 97
f 124 97 122
f 125 105 108
f 125 123 105
f 126 107 104
f 126 104 124
f 107 125 108
f 107 126 125
f 127 109 112
f 128 112 111
f 127 112 129
f 128 129 112
f 130 110 109
f 130 109 127
f 131 111 120
f 131 128 111
f 132 119 110
f 132 110 130
f 133 120 117
f 133 131 120
f 134 123 125
f 126 134 125
f 135 117 115
f 135 133 117
f 136 115 116
f 136 135 115
f 137 118 119
f 137 119 132
f 138 116 121
f 138 136 116
f 139 121 123
f 134 139 123
f 139 138 121
f 140 126 124
f 126 140 134
f 141 113 118
f 141 118 137
f 142 114 113
f 142 113 141
f 143 122 114
f 143 114 142
f 144 124 122
f 140 124 144
f 144 122 143
f 140 145 134
f 145 139 134
f 146 140 144
f 140 146 145
f 147 127 129
f 148 129 128
f 147 129 149
f 148 149 129
f 150 130 127
f 150 127 147
f 151 138 139
f 145 151 139
f 152 144 143
f 146 144 152
f 153 128 131
f 153 148 128
f 154 132 130
f 154 130 150
f 155 136 138
f 151 155 138
f 156 143 142
f 152 143 156
f 157 131 133
f 157 153 131
f 158 135 136
f 155 158 136
f 159 137 132
f 159 132 154
f 160 133 135
f 158 160 135
f 161 142 141
f 156 142 161
f 160 157 133
f 162 141 137
f 161 141 162
f 162 137 159
f 146 151 145
f 146 152 151
f 150 147 149
f 150 149 148
f 152 155 151
f 152 156 155
f 156 158 155
f 154 150 148
f 154 148 153
f 156 161 158
f 161 160 158
f 161 162 160
f 159 154 153
f 159 153 157
f 162 157 160
f 162 159 157
