# 
# Wavefront OBJ file
# Created with Kaydara FBX
# 
mtllib c:\users\tjvan\onedrive\documenten\fontys\minor\nx\.mtlmodels\subtendinous_bursa_of_sartorius.r.obj

g Subtendinous_bursa_of_sartorius_r
v -0.066693 0.384473 -0.009657
v -0.067168 0.387354 -0.009468
v -0.066969 0.384542 -0.010069
v -0.065692 0.386827 -0.010544
v -0.066866 0.387269 -0.009079
v -0.066648 0.391810 -0.008472
v -0.065375 0.392056 -0.009793
v -0.065656 0.382278 -0.010714
v -0.065929 0.382356 -0.011125
v -0.065411 0.386750 -0.010138
v -0.066321 0.391670 -0.008120
v -0.065062 0.391921 -0.009427
v -0.065531 0.395060 -0.007819
v -0.063743 0.396195 -0.008878
v -0.065187 0.394859 -0.007517
v -0.063393 0.396000 -0.008578
v -0.063993 0.387120 -0.011475
v -0.064401 0.382188 -0.011698
v -0.064703 0.382274 -0.012087
v -0.063389 0.391409 -0.011281
v -0.063690 0.387038 -0.011085
v -0.063164 0.398484 -0.007605
v -0.062025 0.399633 -0.008911
v -0.063091 0.391311 -0.010892
v -0.061911 0.396546 -0.010854
v -0.061666 0.399440 -0.008622
v -0.062791 0.398256 -0.007363
v -0.061577 0.396397 -0.010513
v -0.063329 0.382978 -0.012535
v -0.062661 0.388306 -0.012471
v -0.063671 0.383070 -0.012888
v -0.062335 0.388219 -0.012102
v -0.061215 0.392504 -0.012560
v -0.060075 0.399853 -0.010977
v -0.060888 0.392402 -0.012196
v -0.060499 0.385106 -0.014514
v -0.059157 0.389216 -0.015555
v -0.060831 0.385192 -0.014878
v -0.059756 0.396163 -0.012931
v -0.059725 0.399696 -0.010657
v -0.058816 0.389120 -0.015202
v -0.059419 0.396043 -0.012581
v -0.058234 0.392542 -0.015633
v -0.057888 0.392435 -0.015288
v -0.058049 0.399798 -0.013523
v -0.057711 0.399671 -0.013177
v -0.056797 0.396940 -0.015587
v -0.056460 0.396827 -0.015235
v -0.057050 0.399330 -0.014401
v -0.056721 0.399215 -0.014043
usemtl Subtendinous_bursa_of_sartorius_rMaterial0
f 1 2 3
f 4 3 2
f 1 5 2
f 5 6 2
f 7 2 6
f 7 4 2
f 8 1 3
f 4 9 3
f 8 3 9
f 10 5 1
f 5 11 6
f 12 11 5
f 12 5 10
f 10 1 8
f 11 13 6
f 14 6 13
f 14 7 6
f 11 15 13
f 16 15 11
f 16 11 12
f 17 9 4
f 18 8 9
f 18 9 19
f 17 19 9
f 20 4 7
f 20 17 4
f 21 10 8
f 21 8 18
f 15 22 13
f 23 14 13
f 23 13 22
f 24 12 10
f 24 10 21
f 25 7 14
f 25 20 7
f 26 15 16
f 15 27 22
f 26 27 15
f 28 16 12
f 28 12 24
f 29 18 19
f 30 19 17
f 29 19 31
f 30 31 19
f 32 21 18
f 32 18 29
f 33 17 20
f 33 30 17
f 34 14 23
f 34 25 14
f 35 24 21
f 35 21 32
f 36 29 31
f 37 31 30
f 36 31 38
f 37 38 31
f 39 20 25
f 39 33 20
f 40 26 16
f 40 16 28
f 41 32 29
f 41 29 36
f 27 23 22
f 42 28 24
f 42 24 35
f 27 26 23
f 43 30 33
f 43 37 30
f 44 35 32
f 44 32 41
f 26 34 23
f 45 25 34
f 45 39 25
f 26 40 34
f 46 40 28
f 46 28 42
f 47 33 39
f 47 43 33
f 48 42 35
f 48 35 44
f 41 36 38
f 41 38 37
f 40 45 34
f 49 39 45
f 49 47 39
f 40 46 45
f 50 46 42
f 50 42 48
f 44 41 37
f 44 37 43
f 48 44 43
f 48 43 47
f 46 49 45
f 46 50 49
f 50 47 49
f 50 48 47
