# 
# Wavefront OBJ file
# Created with Kaydara FBX
# 
mtllib c:\users\tjvan\onedrive\documenten\fontys\minor\nx\.mtlmodels\subtendinous_prepatellar_bursa.r.obj

g Subtendinous_prepatellar_bursa_r
v -0.093155 0.432457 0.008389
v -0.093357 0.434327 0.009132
v -0.093314 0.434514 0.008670
v -0.093139 0.436240 0.009360
v -0.093187 0.436058 0.009823
v -0.091249 0.436192 0.010081
v -0.091417 0.434365 0.009326
v -0.093116 0.432649 0.007929
v -0.091202 0.436376 0.009618
v -0.091376 0.434554 0.008865
v -0.092494 0.437838 0.010036
v -0.092546 0.437660 0.010501
v -0.090682 0.437883 0.010802
v -0.092726 0.430757 0.007710
v -0.091260 0.432464 0.008553
v -0.090632 0.438062 0.010338
v -0.092689 0.430954 0.007252
v -0.091223 0.432657 0.008093
v -0.092165 0.429531 0.007220
v -0.090921 0.430730 0.007845
v -0.092129 0.429733 0.006764
v -0.090888 0.430928 0.007387
v -0.091354 0.439330 0.010734
v -0.091407 0.439154 0.011199
v -0.089708 0.439426 0.011493
v -0.089660 0.439603 0.011027
v -0.091337 0.428734 0.006925
v -0.090529 0.429368 0.007274
v -0.091303 0.428940 0.006471
v -0.090499 0.429572 0.006818
v -0.089418 0.434335 0.009482
v -0.089250 0.436227 0.010285
v -0.089935 0.440472 0.011328
v -0.089985 0.440295 0.011793
v -0.088508 0.440855 0.012152
v -0.089383 0.434529 0.009023
v -0.089211 0.436415 0.009823
v -0.088463 0.441030 0.011686
v -0.090099 0.428252 0.006797
v -0.090073 0.428459 0.006343
v -0.089313 0.432436 0.008686
v -0.088765 0.438000 0.011044
v -0.089284 0.432633 0.008227
v -0.088723 0.438183 0.010580
v -0.089080 0.430697 0.007949
v -0.089057 0.430900 0.007492
v -0.087971 0.439593 0.011727
v -0.087931 0.439770 0.011261
v -0.088854 0.429247 0.007309
v -0.088840 0.429455 0.006855
v -0.088649 0.427973 0.006728
v -0.088642 0.428185 0.006275
v -0.087007 0.441074 0.012364
v -0.086970 0.441250 0.011897
v -0.087319 0.434216 0.009578
v -0.087156 0.436116 0.010401
v -0.087294 0.434415 0.009120
v -0.087126 0.436310 0.009941
v -0.087279 0.432367 0.008769
v -0.087261 0.432571 0.008313
v -0.086763 0.437950 0.011183
v -0.086732 0.438136 0.010719
v -0.087176 0.430669 0.008003
v -0.087168 0.430880 0.007550
v -0.087144 0.429183 0.007298
v -0.087149 0.429402 0.006848
v -0.086163 0.439629 0.011879
v -0.086135 0.439808 0.011413
v -0.087173 0.427827 0.006629
v -0.087185 0.428050 0.006182
v -0.085451 0.441208 0.012521
v -0.085426 0.441385 0.012054
v -0.085142 0.434153 0.009648
v -0.084990 0.436001 0.010469
v -0.085132 0.434358 0.009193
v -0.084974 0.436199 0.010010
v -0.085160 0.432372 0.008829
v -0.085158 0.432585 0.008377
v -0.085546 0.427828 0.006517
v -0.085317 0.429223 0.007263
v -0.085340 0.429457 0.006821
v -0.085574 0.428066 0.006078
v -0.085178 0.430718 0.008031
v -0.085187 0.430941 0.007583
v -0.084688 0.437830 0.011247
v -0.084671 0.438018 0.010784
v -0.084259 0.439564 0.011947
v -0.084244 0.439745 0.011481
v -0.083763 0.441235 0.012599
v -0.083751 0.441413 0.012131
v -0.083632 0.428008 0.006428
v -0.083339 0.429666 0.006798
v -0.083677 0.428259 0.005999
v -0.083296 0.429418 0.007230
v -0.083091 0.431154 0.007608
v -0.083058 0.430919 0.008048
v -0.082962 0.432558 0.008882
v -0.082986 0.432780 0.008435
v -0.082907 0.434281 0.009712
v -0.082923 0.434495 0.009260
v -0.082776 0.436025 0.010514
v -0.082785 0.436230 0.010058
v -0.082554 0.437753 0.011261
v -0.082560 0.437946 0.010800
v -0.082256 0.439439 0.011931
v -0.082261 0.439622 0.011466
v -0.081919 0.441092 0.012554
v -0.081925 0.441272 0.012087
v -0.081602 0.428379 0.006362
v -0.081227 0.430053 0.006754
v -0.081670 0.428639 0.005941
v -0.081157 0.429797 0.007178
v -0.080892 0.431533 0.007575
v -0.080827 0.431290 0.008007
v -0.080731 0.433121 0.008407
v -0.080673 0.432892 0.008847
v -0.080649 0.434759 0.009225
v -0.080598 0.434538 0.009671
v -0.080539 0.436378 0.010002
v -0.080494 0.436166 0.010453
v -0.080371 0.437759 0.011170
v -0.080411 0.437960 0.010714
v -0.080264 0.439313 0.011810
v -0.080297 0.439502 0.011348
v -0.080166 0.440839 0.012402
v -0.080194 0.441024 0.011938
v -0.079697 0.428961 0.006342
v -0.079111 0.430625 0.006671
v -0.079787 0.429226 0.005927
v -0.079016 0.430365 0.007087
v -0.078616 0.432064 0.007440
v -0.078524 0.431816 0.007864
v -0.078385 0.433542 0.008222
v -0.078300 0.433306 0.008654
v -0.078293 0.435054 0.009002
v -0.078213 0.434827 0.009440
v -0.078213 0.436585 0.009765
v -0.078138 0.436366 0.010208
v -0.078234 0.438066 0.010478
v -0.078165 0.437858 0.010928
v -0.078454 0.439434 0.011116
v -0.078392 0.439237 0.011572
v -0.078799 0.440716 0.011701
v -0.078748 0.440525 0.012160
v -0.078088 0.429834 0.006508
v -0.077023 0.431318 0.006581
v -0.078192 0.430100 0.006098
v -0.076919 0.431058 0.006996
v -0.076299 0.432678 0.007243
v -0.076199 0.432430 0.007666
v -0.077663 0.440220 0.011339
v -0.077595 0.440023 0.011794
v -0.075989 0.434000 0.007942
v -0.075894 0.433762 0.008371
v -0.076694 0.439383 0.010812
v -0.075889 0.435354 0.008665
v -0.076620 0.439181 0.011263
v -0.075799 0.435125 0.009100
v -0.075842 0.436817 0.009419
v -0.076044 0.438224 0.010155
v -0.075757 0.436596 0.009859
v -0.075963 0.438013 0.010601
usemtl Subtendinous_prepatellar_bursa_rMaterial0
f 1 2 3
f 2 4 3
f 2 5 4
f 6 5 2
f 7 2 1
f 6 2 7
f 1 3 8
f 9 3 4
f 10 8 3
f 9 10 3
f 5 11 4
f 5 12 11
f 13 12 5
f 13 5 6
f 14 1 8
f 15 1 14
f 7 1 15
f 16 4 11
f 16 9 4
f 14 8 17
f 18 17 8
f 10 18 8
f 19 14 17
f 20 14 19
f 15 14 20
f 19 17 21
f 22 21 17
f 18 22 17
f 12 23 11
f 12 24 23
f 25 24 12
f 25 12 13
f 26 11 23
f 26 16 11
f 27 19 21
f 28 19 27
f 20 19 28
f 27 21 29
f 30 29 21
f 22 30 21
f 31 7 15
f 32 6 7
f 32 7 31
f 24 33 23
f 24 34 33
f 35 34 24
f 35 24 25
f 36 18 10
f 37 10 9
f 37 36 10
f 38 23 33
f 38 26 23
f 39 27 29
f 28 27 39
f 30 40 29
f 39 29 40
f 41 15 20
f 31 15 41
f 42 13 6
f 42 6 32
f 43 22 18
f 36 43 18
f 44 9 16
f 44 37 9
f 45 20 28
f 41 20 45
f 46 30 22
f 43 46 22
f 47 25 13
f 47 13 42
f 48 16 26
f 48 44 16
f 49 28 39
f 45 28 49
f 50 40 30
f 46 50 30
f 51 39 40
f 49 39 51
f 50 52 40
f 51 40 52
f 34 38 33
f 34 35 38
f 53 35 25
f 53 25 47
f 54 26 38
f 54 48 26
f 55 31 41
f 56 32 31
f 56 31 55
f 57 43 36
f 58 36 37
f 58 57 36
f 59 41 45
f 55 41 59
f 60 46 43
f 57 60 43
f 61 42 32
f 61 32 56
f 62 37 44
f 62 58 37
f 63 45 49
f 59 45 63
f 64 50 46
f 60 64 46
f 65 49 51
f 63 49 65
f 66 52 50
f 64 66 50
f 67 47 42
f 67 42 61
f 68 44 48
f 68 62 44
f 69 51 52
f 65 51 69
f 69 52 70
f 66 70 52
f 35 54 38
f 35 53 54
f 71 53 47
f 71 47 67
f 72 48 54
f 72 68 48
f 73 55 59
f 74 56 55
f 74 55 73
f 75 60 57
f 76 57 58
f 76 75 57
f 77 59 63
f 73 59 77
f 78 64 60
f 75 78 60
f 79 69 70
f 80 65 69
f 80 69 79
f 81 70 66
f 79 70 82
f 81 82 70
f 83 63 65
f 77 63 83
f 84 66 64
f 78 84 64
f 83 65 80
f 84 81 66
f 85 61 56
f 85 56 74
f 86 58 62
f 86 76 58
f 53 72 54
f 53 71 72
f 87 67 61
f 87 61 85
f 88 62 68
f 88 86 62
f 89 71 67
f 89 67 87
f 90 68 72
f 90 88 68
f 91 79 82
f 92 82 81
f 91 82 93
f 92 93 82
f 94 80 79
f 94 79 91
f 71 90 72
f 71 89 90
f 95 81 84
f 95 92 81
f 96 83 80
f 96 80 94
f 97 77 83
f 97 83 96
f 98 84 78
f 98 95 84
f 99 73 77
f 99 77 97
f 100 78 75
f 100 98 78
f 101 74 73
f 101 73 99
f 102 75 76
f 102 100 75
f 103 85 74
f 103 74 101
f 104 76 86
f 104 102 76
f 105 87 85
f 105 85 103
f 106 86 88
f 106 104 86
f 107 89 87
f 107 87 105
f 108 88 90
f 108 106 88
f 89 108 90
f 89 107 108
f 109 91 93
f 110 93 92
f 109 93 111
f 110 111 93
f 112 94 91
f 112 91 109
f 113 92 95
f 113 110 92
f 114 96 94
f 114 94 112
f 115 95 98
f 115 113 95
f 116 97 96
f 116 96 114
f 117 98 100
f 117 115 98
f 118 99 97
f 118 97 116
f 119 100 102
f 119 117 100
f 120 101 99
f 120 99 118
f 121 103 101
f 121 101 120
f 122 102 104
f 122 119 102
f 123 105 103
f 123 103 121
f 124 104 106
f 124 122 104
f 125 107 105
f 125 105 123
f 126 106 108
f 126 124 106
f 107 126 108
f 107 125 126
f 127 109 111
f 128 111 110
f 127 111 129
f 128 129 111
f 130 112 109
f 130 109 127
f 131 110 113
f 131 128 110
f 132 114 112
f 132 112 130
f 133 113 115
f 133 131 113
f 134 116 114
f 134 114 132
f 135 115 117
f 135 133 115
f 136 118 116
f 136 116 134
f 137 117 119
f 137 135 117
f 138 120 118
f 138 118 136
f 139 119 122
f 139 137 119
f 140 121 120
f 140 120 138
f 141 122 124
f 141 139 122
f 142 123 121
f 142 121 140
f 143 124 126
f 143 141 124
f 144 125 123
f 144 123 142
f 125 143 126
f 125 144 143
f 145 127 129
f 146 129 128
f 145 129 147
f 146 147 129
f 148 130 127
f 148 127 145
f 149 128 131
f 149 146 128
f 150 132 130
f 150 130 148
f 144 151 143
f 151 141 143
f 152 144 142
f 144 152 151
f 153 131 133
f 153 149 131
f 154 134 132
f 154 132 150
f 155 139 141
f 151 155 141
f 156 133 135
f 156 153 133
f 157 142 140
f 152 142 157
f 158 136 134
f 158 134 154
f 159 135 137
f 159 156 135
f 160 137 139
f 155 160 139
f 161 138 136
f 161 136 158
f 160 159 137
f 148 145 147
f 148 147 146
f 162 140 138
f 157 140 162
f 162 138 161
f 152 155 151
f 152 157 155
f 150 148 146
f 150 146 149
f 157 160 155
f 157 162 160
f 154 150 149
f 154 149 153
f 162 159 160
f 158 154 153
f 158 153 156
f 162 161 159
f 161 156 159
f 161 158 156
