# 
# Wavefront OBJ file
# Created with Kaydara FBX
# 
mtllib c:\users\tjvan\onedrive\documenten\fontys\minor\nx\.mtlmodels\sural_nerve.r.obj

g Sural_nerve_r
v -0.105131 0.057956 -0.056528
v -0.105710 0.056626 -0.053142
v -0.105660 0.057032 -0.053005
v -0.104717 0.057067 -0.052887
v -0.104976 0.057513 -0.056702
v -0.105568 0.056165 -0.053275
v -0.104421 0.056674 -0.052981
v -0.105087 0.057287 -0.052858
v -0.105432 0.057274 -0.052901
v -0.105095 0.058341 -0.056336
v -0.104673 0.057130 -0.056813
v -0.105272 0.055771 -0.053368
v -0.104279 0.056212 -0.053114
v -0.104879 0.058565 -0.056179
v -0.104329 0.055806 -0.053250
v -0.104902 0.055551 -0.053398
v -0.104302 0.056910 -0.056831
v -0.104245 0.059604 -0.059470
v -0.104073 0.059184 -0.059683
v -0.104540 0.058567 -0.056099
v -0.104229 0.059962 -0.059229
v -0.103760 0.058815 -0.059811
v -0.104557 0.055564 -0.053354
v -0.103963 0.056912 -0.056751
v -0.104030 0.060161 -0.059024
v -0.104169 0.058347 -0.056117
v -0.103390 0.058594 -0.059818
v -0.103747 0.057136 -0.056594
v -0.103701 0.060148 -0.058910
v -0.103866 0.057964 -0.056228
v -0.103711 0.057521 -0.056403
v -0.103061 0.058581 -0.059705
v -0.103109 0.061539 -0.062009
v -0.102917 0.061146 -0.062254
v -0.103117 0.061864 -0.061726
v -0.103330 0.059927 -0.058918
v -0.102593 0.060792 -0.062396
v -0.102938 0.062036 -0.061482
v -0.102862 0.058780 -0.059500
v -0.103017 0.059558 -0.059046
v -0.102222 0.060570 -0.062396
v -0.102846 0.059138 -0.059258
v -0.102621 0.062007 -0.061340
v -0.101905 0.060542 -0.062255
v -0.102250 0.061786 -0.061341
v -0.101781 0.063729 -0.064185
v -0.101567 0.063365 -0.064455
v -0.101812 0.064022 -0.063871
v -0.101727 0.060713 -0.062010
v -0.101926 0.061432 -0.061482
v -0.101655 0.064166 -0.063595
v -0.101230 0.063027 -0.064608
v -0.101734 0.061039 -0.061727
v -0.101349 0.064123 -0.063434
v -0.100859 0.062807 -0.064603
v -0.100978 0.063902 -0.063429
v -0.100554 0.062763 -0.064441
v -0.100641 0.063565 -0.063582
v -0.100396 0.062907 -0.064166
v -0.100315 0.066144 -0.066042
v -0.100371 0.066408 -0.065704
v -0.100081 0.065808 -0.066330
v -0.100428 0.063201 -0.063851
v -0.100232 0.066526 -0.065408
v -0.099730 0.065489 -0.066492
v -0.099937 0.066470 -0.065232
v -0.099358 0.065271 -0.066483
v -0.099564 0.066253 -0.065223
v -0.099062 0.065215 -0.066307
v -0.099214 0.065933 -0.065385
v -0.098924 0.065334 -0.066010
v -0.098979 0.065597 -0.065673
v -0.098769 0.068756 -0.067624
v -0.098845 0.068992 -0.067270
v -0.098514 0.068447 -0.067925
v -0.098723 0.069090 -0.066959
v -0.098150 0.068146 -0.068092
v -0.098436 0.069024 -0.066773
v -0.097775 0.067934 -0.068082
v -0.098060 0.068813 -0.066763
v -0.097487 0.067869 -0.067896
v -0.097696 0.068512 -0.066931
v -0.097366 0.067967 -0.067585
v -0.097442 0.068202 -0.067231
v -0.097195 0.071535 -0.068974
v -0.097290 0.071747 -0.068610
v -0.096923 0.071251 -0.069284
v -0.097182 0.071829 -0.068290
v -0.096546 0.070969 -0.069456
v -0.096900 0.071758 -0.068098
v -0.096165 0.070766 -0.069445
v -0.096519 0.071555 -0.068086
v -0.095883 0.070696 -0.069253
v -0.096142 0.071274 -0.068258
v -0.095775 0.070778 -0.068932
v -0.095870 0.070989 -0.068568
v -0.095650 0.074454 -0.070138
v -0.095760 0.074645 -0.069767
v -0.095361 0.074193 -0.070453
v -0.095663 0.074714 -0.069440
v -0.094970 0.073932 -0.070628
v -0.095383 0.074644 -0.069244
v -0.094584 0.073741 -0.070617
v -0.094996 0.074453 -0.069233
v -0.094304 0.073671 -0.070421
v -0.094606 0.074192 -0.069408
v -0.094206 0.073741 -0.070094
v -0.094317 0.073931 -0.069723
v -0.094309 0.077656 -0.070781
v -0.094186 0.077483 -0.071156
v -0.094219 0.077719 -0.070450
v -0.093882 0.077245 -0.071476
v -0.093940 0.077654 -0.070253
v -0.093478 0.077006 -0.071654
v -0.093546 0.077478 -0.070242
v -0.093084 0.076831 -0.071642
v -0.093143 0.077240 -0.070419
v -0.092805 0.076766 -0.071445
v -0.092715 0.076828 -0.071114
v -0.092838 0.077002 -0.070739
v -0.092991 0.080753 -0.071695
v -0.092857 0.080594 -0.072073
v -0.092907 0.080812 -0.071362
v -0.092539 0.080379 -0.072395
v -0.092625 0.080757 -0.071164
v -0.092123 0.080165 -0.072576
v -0.092223 0.080602 -0.071154
v -0.091720 0.080010 -0.072565
v -0.091807 0.080389 -0.071334
v -0.091439 0.079955 -0.072367
v -0.091860 0.083904 -0.072550
v -0.091717 0.083758 -0.072930
v -0.091779 0.083966 -0.072217
v -0.091386 0.083567 -0.073255
v -0.091489 0.080174 -0.071657
v -0.091354 0.080015 -0.072035
v -0.091494 0.083927 -0.072020
v -0.090958 0.083381 -0.073437
v -0.091082 0.083798 -0.072012
v -0.090547 0.083252 -0.073429
v -0.090966 0.087092 -0.073390
v -0.090815 0.086957 -0.073771
v -0.090654 0.083612 -0.072195
v -0.090887 0.087158 -0.073057
v -0.090262 0.083212 -0.073232
v -0.090474 0.086788 -0.074098
v -0.090324 0.083421 -0.072519
v -0.090600 0.087136 -0.072861
v -0.090180 0.083274 -0.072899
v -0.090036 0.086630 -0.074283
v -0.090181 0.087032 -0.072855
v -0.089617 0.086527 -0.074277
v -0.090265 0.090322 -0.074201
v -0.090109 0.090197 -0.074589
v -0.090185 0.090388 -0.073864
v -0.089760 0.090046 -0.074925
v -0.089742 0.086875 -0.073040
v -0.089892 0.090375 -0.073668
v -0.089330 0.086505 -0.074081
v -0.089312 0.089909 -0.075118
v -0.089402 0.086706 -0.073367
v -0.089251 0.086571 -0.073748
v -0.089728 0.093291 -0.074880
v -0.089568 0.093178 -0.075277
v -0.089464 0.090289 -0.073666
v -0.089649 0.093352 -0.074538
v -0.089212 0.093044 -0.075621
v -0.088883 0.089823 -0.075116
v -0.089351 0.093346 -0.074341
v -0.088754 0.092925 -0.075820
v -0.089016 0.090152 -0.073859
v -0.089335 0.096029 -0.075439
v -0.089171 0.095930 -0.075843
v -0.089256 0.096085 -0.075092
v -0.088590 0.089810 -0.074920
v -0.088807 0.095816 -0.076196
v -0.088915 0.093273 -0.074343
v -0.088667 0.090001 -0.074194
v -0.088954 0.096084 -0.074894
v -0.088511 0.089876 -0.074583
v -0.089061 0.098577 -0.075890
v -0.088893 0.098494 -0.076302
v -0.088318 0.092852 -0.075822
v -0.088981 0.098627 -0.075537
v -0.088341 0.095716 -0.076402
v -0.088523 0.098400 -0.076662
v -0.088883 0.100978 -0.076245
v -0.088711 0.100910 -0.076664
v -0.088458 0.093154 -0.074542
v -0.088676 0.098631 -0.075338
v -0.088803 0.101020 -0.075887
v -0.088510 0.096026 -0.074898
v -0.088021 0.092846 -0.075625
v -0.088335 0.100836 -0.077032
v -0.088776 0.103272 -0.076517
v -0.088602 0.103220 -0.076943
v -0.088049 0.098320 -0.076874
v -0.088696 0.103307 -0.076154
v -0.088493 0.101027 -0.075686
v -0.088719 0.105501 -0.076718
v -0.088543 0.105463 -0.077150
v -0.087898 0.095657 -0.076406
v -0.088221 0.103165 -0.077317
v -0.088638 0.105528 -0.076350
v -0.088688 0.107708 -0.076860
v -0.088509 0.107681 -0.077297
v -0.088383 0.103315 -0.075951
v -0.088659 0.109933 -0.076954
v -0.088606 0.107727 -0.076488
v -0.088478 0.109913 -0.077397
v -0.088101 0.093020 -0.074886
v -0.088225 0.098587 -0.075345
v -0.088577 0.109944 -0.076577
v -0.088609 0.112214 -0.077013
v -0.088427 0.112198 -0.077460
v -0.088321 0.105537 -0.076145
v -0.088156 0.105424 -0.077530
v -0.088286 0.107733 -0.076279
v -0.088526 0.112219 -0.076632
v -0.088515 0.114591 -0.077048
v -0.088330 0.114574 -0.077500
v -0.087941 0.092907 -0.075283
v -0.088253 0.109945 -0.076367
v -0.088118 0.107653 -0.077682
v -0.088044 0.095926 -0.075104
v -0.087854 0.100776 -0.077249
v -0.088083 0.109891 -0.077786
v -0.088431 0.114591 -0.076662
v -0.088199 0.112212 -0.076419
v -0.088352 0.117087 -0.077071
v -0.088166 0.117067 -0.077528
v -0.088037 0.100996 -0.075695
v -0.088027 0.112176 -0.077854
v -0.087926 0.114546 -0.077898
v -0.088268 0.117088 -0.076681
v -0.088101 0.114575 -0.076447
v -0.087921 0.103295 -0.075962
v -0.087293 0.131934 -0.077402
v -0.087101 0.131905 -0.077872
v -0.087596 0.095656 -0.076208
v -0.087599 0.098276 -0.076882
v -0.087733 0.103121 -0.077539
v -0.087854 0.105524 -0.076157
v -0.087758 0.117031 -0.077930
v -0.087813 0.107723 -0.076292
v -0.087934 0.117068 -0.076463
v -0.087205 0.131943 -0.077001
v -0.087775 0.109934 -0.076379
v -0.087752 0.098507 -0.075557
v -0.087663 0.105394 -0.077756
v -0.087716 0.112195 -0.076431
v -0.087619 0.107631 -0.077911
v -0.086682 0.131864 -0.078286
v -0.087579 0.109871 -0.078018
v -0.087681 0.095811 -0.075457
v -0.087613 0.114547 -0.076459
v -0.087517 0.112153 -0.078088
v -0.087398 0.100745 -0.077259
v -0.087556 0.100936 -0.075913
v -0.087516 0.095712 -0.075861
v -0.087411 0.114514 -0.078134
v -0.088027 0.259597 -0.094887
v -0.087977 0.246369 -0.092444
v -0.087862 0.246474 -0.091933
v -0.087782 0.259495 -0.095480
v -0.087914 0.259681 -0.094381
v -0.087719 0.271792 -0.096759
v -0.087478 0.271703 -0.097344
v -0.087378 0.232185 -0.088837
v -0.087728 0.246254 -0.093044
v -0.087493 0.232067 -0.089353
v -0.087433 0.103252 -0.076184
v -0.087238 0.116990 -0.078168
v -0.087442 0.117032 -0.076476
v -0.086861 0.131929 -0.076776
v -0.087415 0.246539 -0.091651
v -0.087609 0.271857 -0.096260
v -0.087475 0.259725 -0.094099
v -0.087293 0.098279 -0.076682
v -0.087271 0.103101 -0.077550
v -0.087361 0.105494 -0.076383
v -0.086924 0.232268 -0.088553
v -0.087314 0.107702 -0.076521
v -0.087271 0.109914 -0.076611
v -0.087245 0.259402 -0.096002
v -0.086950 0.271612 -0.097858
v -0.087381 0.098413 -0.075918
v -0.086147 0.131821 -0.078532
v -0.087195 0.105381 -0.077768
v -0.087207 0.112172 -0.076665
v -0.087240 0.231946 -0.089962
v -0.087182 0.246159 -0.093574
v -0.087128 0.282997 -0.098138
v -0.086890 0.282919 -0.098715
v -0.087147 0.107622 -0.077924
v -0.087101 0.109860 -0.078030
v -0.087098 0.114514 -0.076696
v -0.087176 0.271880 -0.095979
v -0.087020 0.283043 -0.097645
v -0.087213 0.098329 -0.076329
v -0.087088 0.100752 -0.077058
v -0.087034 0.112135 -0.078100
v -0.087179 0.100862 -0.076281
v -0.086924 0.114486 -0.078146
v -0.087224 0.230013 -0.088378
v -0.087338 0.229899 -0.088883
v -0.086756 0.246549 -0.091671
v -0.086825 0.259716 -0.094116
v -0.086371 0.282832 -0.099220
v -0.087052 0.103197 -0.076558
v -0.086922 0.116991 -0.076715
v -0.086354 0.131896 -0.076789
v -0.086746 0.116954 -0.078181
v -0.086254 0.232294 -0.088577
v -0.086958 0.103110 -0.077347
v -0.086781 0.230097 -0.088102
v -0.086974 0.105455 -0.076762
v -0.087090 0.229786 -0.089480
v -0.086974 0.226103 -0.087593
v -0.087085 0.225999 -0.088088
v -0.086923 0.107673 -0.076906
v -0.087008 0.100795 -0.076700
v -0.086552 0.146209 -0.078085
v -0.086355 0.146171 -0.078569
v -0.086879 0.105390 -0.077562
v -0.086875 0.109892 -0.077000
v -0.085639 0.131788 -0.078544
v -0.086686 0.231854 -0.090502
v -0.086561 0.259343 -0.096312
v -0.086276 0.271545 -0.098162
v -0.086540 0.226181 -0.087322
v -0.086807 0.112149 -0.077059
v -0.086461 0.146230 -0.077673
v -0.086826 0.107628 -0.077715
v -0.086486 0.246110 -0.093892
v -0.086596 0.283046 -0.097367
v -0.086538 0.271854 -0.095993
v -0.086777 0.109861 -0.077820
v -0.086328 0.293252 -0.099101
v -0.086093 0.293187 -0.099669
v -0.086878 0.103145 -0.076984
v -0.086707 0.112128 -0.077887
v -0.086694 0.114486 -0.077093
v -0.085924 0.146126 -0.078994
v -0.086844 0.225896 -0.088673
v -0.086669 0.220571 -0.086549
v -0.086778 0.220476 -0.087033
v -0.086549 0.229704 -0.090010
v -0.086594 0.114470 -0.077931
v -0.086223 0.293282 -0.098615
v -0.086798 0.105417 -0.077194
v -0.086245 0.220640 -0.086282
v -0.085709 0.282758 -0.099519
v -0.086745 0.107646 -0.077343
v -0.086413 0.116934 -0.077963
v -0.086514 0.116956 -0.077116
v -0.085819 0.131853 -0.077035
v -0.086126 0.230129 -0.088126
v -0.085583 0.293103 -0.100166
v -0.086694 0.109872 -0.077443
v -0.086107 0.146228 -0.077443
v -0.086542 0.220381 -0.087606
v -0.086315 0.225821 -0.089192
v -0.086060 0.246499 -0.091989
v -0.086140 0.259658 -0.094427
v -0.086624 0.112133 -0.077506
v -0.086349 0.213530 -0.085312
v -0.086456 0.213445 -0.085787
v -0.085900 0.226210 -0.087346
v -0.085547 0.232256 -0.088903
v -0.085295 0.131774 -0.078320
v -0.086510 0.114470 -0.077545
v -0.085373 0.146086 -0.079248
v -0.085979 0.231817 -0.090827
v -0.085935 0.213590 -0.085050
v -0.086328 0.116935 -0.077573
v -0.085969 0.283005 -0.097378
v -0.085807 0.293268 -0.098339
v -0.086087 0.159805 -0.079054
v -0.085886 0.159758 -0.079551
v -0.086226 0.213358 -0.086347
v -0.086026 0.220310 -0.088114
v -0.085619 0.220664 -0.086304
v -0.085858 0.229675 -0.090330
v -0.085911 0.259335 -0.096329
v -0.085638 0.271520 -0.098176
v -0.085865 0.271787 -0.096297
v -0.085399 0.131812 -0.077449
v -0.085827 0.246119 -0.093913
v -0.085993 0.159837 -0.078631
v -0.086057 0.205099 -0.083951
v -0.086162 0.205024 -0.084416
v -0.085208 0.131783 -0.077919
v -0.084932 0.293023 -0.100459
v -0.085584 0.146203 -0.077457
v -0.085442 0.159710 -0.079988
v -0.085653 0.205150 -0.083694
v -0.085394 0.302601 -0.099726
v -0.085163 0.302546 -0.100285
v -0.085640 0.225794 -0.089505
v -0.085082 0.282717 -0.099530
v -0.085324 0.213609 -0.085071
v -0.085435 0.230101 -0.088447
v -0.085938 0.204945 -0.084963
v -0.085722 0.213291 -0.086843
v -0.085293 0.302616 -0.099246
v -0.085834 0.195396 -0.082534
v -0.085936 0.195331 -0.082989
v -0.084850 0.146061 -0.079261
v -0.085514 0.246404 -0.092519
v -0.085604 0.259565 -0.094949
v -0.085225 0.226184 -0.087659
v -0.085629 0.159846 -0.078395
v -0.085858 0.172603 -0.080240
v -0.085650 0.172548 -0.080749
v -0.084661 0.302466 -0.100773
v -0.085439 0.195436 -0.082283
v -0.084993 0.232164 -0.089442
v -0.085366 0.220284 -0.088420
v -0.085761 0.172646 -0.079806
v -0.085310 0.231843 -0.090851
v -0.085307 0.282931 -0.097676
v -0.085192 0.293214 -0.098350
v -0.085718 0.195259 -0.083524
v -0.085821 0.184484 -0.081574
v -0.085722 0.184539 -0.081130
v -0.085445 0.204882 -0.085448
v -0.085056 0.205162 -0.083714
v -0.084875 0.159672 -0.080249
v -0.085471 0.259378 -0.096047
v -0.085206 0.271542 -0.097895
v -0.084959 0.220638 -0.086610
v -0.085195 0.172495 -0.081198
v -0.085608 0.184421 -0.082096
v -0.085203 0.229708 -0.090355
v -0.085337 0.271697 -0.096811
v -0.085033 0.146163 -0.077710
v -0.085337 0.184569 -0.080883
v -0.085379 0.246185 -0.093630
v -0.084886 0.302587 -0.098975
v -0.085386 0.172666 -0.079565
v -0.085238 0.195200 -0.083996
v -0.085078 0.213264 -0.087141
v -0.084317 0.292969 -0.100469
v -0.085140 0.184365 -0.082557
v -0.084857 0.195442 -0.082301
v -0.084496 0.146059 -0.079031
v -0.085091 0.159830 -0.078410
v -0.084679 0.213581 -0.085370
v -0.085000 0.225824 -0.089529
v -0.084658 0.282720 -0.099252
v -0.085265 0.246289 -0.093120
v -0.085359 0.259462 -0.095542
v -0.084022 0.302383 -0.101060
v -0.084894 0.230019 -0.088976
v -0.084740 0.232043 -0.090052
v -0.085095 0.271607 -0.097396
v -0.084612 0.172460 -0.081467
v -0.084769 0.184568 -0.080900
v -0.084817 0.204853 -0.085738
v -0.084696 0.226109 -0.088178
v -0.084601 0.146118 -0.078136
v -0.084338 0.159655 -0.080263
v -0.084833 0.172657 -0.079580
v -0.084740 0.220308 -0.088442
v -0.084856 0.231926 -0.090568
v -0.084403 0.311083 -0.100089
v -0.084175 0.311038 -0.100638
v -0.084788 0.282844 -0.098182
v -0.084427 0.205133 -0.084005
v -0.084542 0.293134 -0.098642
v -0.084405 0.146080 -0.078619
v -0.084304 0.311086 -0.099617
v -0.084625 0.195169 -0.084280
v -0.084443 0.220567 -0.087118
v -0.084543 0.184332 -0.082833
v -0.084760 0.229792 -0.090078
v -0.084550 0.282766 -0.098758
v -0.084282 0.302523 -0.098984
v -0.083681 0.310963 -0.101118
v -0.084524 0.159792 -0.078671
v -0.084467 0.213282 -0.087162
v -0.083901 0.292955 -0.100194
v -0.084244 0.195411 -0.082584
v -0.084566 0.225901 -0.089258
v -0.084646 0.229906 -0.089573
v -0.084175 0.213515 -0.085865
v -0.083419 0.302318 -0.101069
v -0.084455 0.226006 -0.088763
v -0.083906 0.311047 -0.099350
v -0.084060 0.172451 -0.081482
v -0.083973 0.159665 -0.080028
v -0.084171 0.184535 -0.081176
v -0.084251 0.172622 -0.079849
v -0.084220 0.204865 -0.085758
v -0.084031 0.293050 -0.099139
v -0.084316 0.220377 -0.088175
v -0.084207 0.220472 -0.087691
v -0.083935 0.205070 -0.084489
v -0.083797 0.292984 -0.099707
v -0.083054 0.310879 -0.101401
v -0.084042 0.195175 -0.084298
v -0.083975 0.184331 -0.082850
v -0.084081 0.159744 -0.079108
v -0.083643 0.302440 -0.099271
v -0.083879 0.159697 -0.079605
v -0.084052 0.213342 -0.086900
v -0.083945 0.213427 -0.086426
v -0.083764 0.195352 -0.083057
v -0.083428 0.318740 -0.100268
v -0.083203 0.318703 -0.100808
v -0.083685 0.172471 -0.081241
v -0.083011 0.302290 -0.100798
v -0.083332 0.318736 -0.099805
v -0.083313 0.310977 -0.099359
v -0.083795 0.172570 -0.080298
v -0.083703 0.184479 -0.081637
v -0.083815 0.204915 -0.085501
v -0.083711 0.204990 -0.085037
v -0.082717 0.318635 -0.101280
v -0.083590 0.184361 -0.082603
v -0.083648 0.195215 -0.084046
v -0.083141 0.302360 -0.099760
v -0.082461 0.310808 -0.101409
v -0.083588 0.172515 -0.080807
v -0.083546 0.195280 -0.083592
v -0.082910 0.302305 -0.100319
v -0.082942 0.318691 -0.099542
v -0.083491 0.184416 -0.082159
v -0.082101 0.318554 -0.101557
v -0.082686 0.310892 -0.099641
v -0.082062 0.310769 -0.101142
v -0.082546 0.325613 -0.100341
v -0.082324 0.325582 -0.100871
v -0.082452 0.325606 -0.099886
v -0.082360 0.318619 -0.099551
v -0.081846 0.325522 -0.101335
v -0.082192 0.310818 -0.100121
v -0.081520 0.318481 -0.101565
v -0.081964 0.310773 -0.100671
v -0.082068 0.325562 -0.099629
v -0.081240 0.325447 -0.101607
v -0.081744 0.318537 -0.099828
v -0.081830 0.331740 -0.100385
v -0.081612 0.331713 -0.100906
v -0.081129 0.318436 -0.101303
v -0.081738 0.331736 -0.099939
v -0.081497 0.325494 -0.099637
v -0.081142 0.331662 -0.101360
v -0.081258 0.318469 -0.100300
v -0.080669 0.325379 -0.101615
v -0.081033 0.318432 -0.100840
v -0.081360 0.331702 -0.099686
v -0.080546 0.331600 -0.101628
v -0.081355 0.337161 -0.100477
v -0.081141 0.337133 -0.100988
v -0.080891 0.325419 -0.099909
v -0.081263 0.337169 -0.100039
v -0.080679 0.337094 -0.101434
v -0.080285 0.325335 -0.101357
v -0.080798 0.331647 -0.099694
v -0.080891 0.337155 -0.099791
v -0.081193 0.341932 -0.100694
v -0.080983 0.341912 -0.101195
v -0.080413 0.325359 -0.100372
v -0.081103 0.341945 -0.100264
v -0.079984 0.331545 -0.101636
v -0.081218 0.354957 -0.100981
v -0.081008 0.354966 -0.101483
v -0.081128 0.354948 -0.100552
v -0.081074 0.367471 -0.100196
v -0.080863 0.367518 -0.100695
v -0.080093 0.337053 -0.101697
v -0.080529 0.341891 -0.101633
v -0.080192 0.325328 -0.100902
v -0.080737 0.341948 -0.100022
v -0.080984 0.367426 -0.099769
v -0.080763 0.354941 -0.100309
v -0.080793 0.379366 -0.098526
v -0.080582 0.379446 -0.099021
v -0.080554 0.354973 -0.101921
v -0.080409 0.367554 -0.101132
v -0.080705 0.379289 -0.098103
v -0.080619 0.367395 -0.099528
v -0.080202 0.331585 -0.099961
v -0.080338 0.337124 -0.099800
v -0.080127 0.379509 -0.099454
v -0.080408 0.390549 -0.096160
v -0.080195 0.390659 -0.096648
v -0.080194 0.341940 -0.100031
v -0.080219 0.354939 -0.100318
v -0.080340 0.379236 -0.097865
v -0.080320 0.390444 -0.095743
v -0.079606 0.331511 -0.101383
v -0.079954 0.341875 -0.101892
v -0.080076 0.367387 -0.099537
v -0.079740 0.390746 -0.097076
v -0.079540 0.337021 -0.101705
v -0.079978 0.354975 -0.102180
v -0.079833 0.367571 -0.101390
v -0.079732 0.331534 -0.100416
v -0.079550 0.379538 -0.099710
v -0.079950 0.400928 -0.093286
v -0.079736 0.401065 -0.093767
v -0.079752 0.337083 -0.100063
v -0.079956 0.390372 -0.095509
v -0.079796 0.379222 -0.097875
v -0.079864 0.400798 -0.092876
v -0.079514 0.331506 -0.100937
v -0.079618 0.341923 -0.100289
v -0.079643 0.354941 -0.100577
v -0.079280 0.401172 -0.094190
v -0.079163 0.390785 -0.097330
v -0.079410 0.341867 -0.101901
v -0.079500 0.367403 -0.099795
v -0.079168 0.337008 -0.101458
v -0.079434 0.354973 -0.102189
v -0.079289 0.367562 -0.101399
v -0.079500 0.400710 -0.092647
v -0.079413 0.390353 -0.095520
v -0.079452 0.410411 -0.090093
v -0.079237 0.410571 -0.090567
v -0.079367 0.410260 -0.089690
v -0.079007 0.379524 -0.099720
v -0.079220 0.379251 -0.098132
v -0.079290 0.337043 -0.100509
v -0.078703 0.401222 -0.094441
v -0.078780 0.410697 -0.090983
v -0.079165 0.341902 -0.100728
v -0.079189 0.354948 -0.101016
v -0.079076 0.337016 -0.101020
v -0.079045 0.341870 -0.101658
v -0.078620 0.390767 -0.097341
v -0.079045 0.367439 -0.100232
v -0.078957 0.400688 -0.092659
v -0.079004 0.410158 -0.089466
v -0.078945 0.418907 -0.086770
v -0.078729 0.419087 -0.087235
v -0.079069 0.354966 -0.101946
v -0.078924 0.367531 -0.101158
v -0.078836 0.390393 -0.095774
v -0.078861 0.418738 -0.086374
v -0.078642 0.379471 -0.099482
v -0.078202 0.410755 -0.091231
v -0.078271 0.419229 -0.087645
v -0.078765 0.379314 -0.098565
v -0.078955 0.341883 -0.101229
v -0.078979 0.354957 -0.101517
v -0.078160 0.401199 -0.094453
v -0.078835 0.367486 -0.100731
v -0.078256 0.390695 -0.097107
v -0.078461 0.410133 -0.089479
v -0.078499 0.418623 -0.086154
v -0.078380 0.400737 -0.092910
v -0.078463 0.426323 -0.083504
v -0.078246 0.426520 -0.083962
v -0.078554 0.379394 -0.099059
v -0.078380 0.426138 -0.083115
v -0.078381 0.390479 -0.096202
v -0.077693 0.419295 -0.087890
v -0.077786 0.426676 -0.084366
v -0.077659 0.410730 -0.091244
v -0.078168 0.390590 -0.096690
v -0.077796 0.401111 -0.094223
v -0.077956 0.418596 -0.086168
v -0.078018 0.426014 -0.082899
v -0.077883 0.410190 -0.089727
v -0.078036 0.432566 -0.080486
v -0.077818 0.432777 -0.080937
v -0.077923 0.400844 -0.093332
v -0.077954 0.432368 -0.080103
v -0.077208 0.426749 -0.084608
v -0.077710 0.400981 -0.093813
v -0.077358 0.432945 -0.081335
v -0.077150 0.419267 -0.087905
v -0.077296 0.410627 -0.091019
v -0.077698 0.437543 -0.077903
v -0.077479 0.437765 -0.078349
v -0.077476 0.425985 -0.082914
v -0.077593 0.432237 -0.079890
v -0.077378 0.418661 -0.086413
v -0.077616 0.437337 -0.077525
v -0.077426 0.410316 -0.090143
v -0.077018 0.437943 -0.078742
v -0.077211 0.410476 -0.090617
v -0.076779 0.433025 -0.081573
v -0.076665 0.426720 -0.084623
v -0.077479 0.441156 -0.075949
v -0.077260 0.441383 -0.076392
v -0.076788 0.419153 -0.087684
v -0.077255 0.437202 -0.077314
v -0.077398 0.440950 -0.075570
v -0.077050 0.432208 -0.079905
v -0.076897 0.426058 -0.083156
v -0.076799 0.441569 -0.076780
v -0.077413 0.443311 -0.074812
v -0.077194 0.443540 -0.075253
v -0.077426 0.452155 -0.069826
v -0.077447 0.447856 -0.072437
v -0.077365 0.447645 -0.072062
v -0.077206 0.452423 -0.070246
v -0.077331 0.443110 -0.074430
v -0.077228 0.448101 -0.072870
v -0.076920 0.418803 -0.086823
v -0.077344 0.451921 -0.069465
v -0.077360 0.456192 -0.067064
v -0.077140 0.456479 -0.067470
v -0.077037 0.440820 -0.075357
v -0.076439 0.438031 -0.078976
v -0.077004 0.447523 -0.071844
v -0.076970 0.442991 -0.074211
v -0.077278 0.455940 -0.066714
v -0.077262 0.459967 -0.064225
v -0.077042 0.460269 -0.064620
v -0.076983 0.451783 -0.069257
v -0.076704 0.418983 -0.087289
v -0.077181 0.459701 -0.063886
v -0.076918 0.455789 -0.066515
v -0.076712 0.437175 -0.077328
v -0.076733 0.443736 -0.075637
v -0.077142 0.463480 -0.061386
v -0.076922 0.463793 -0.061773
v -0.076744 0.452653 -0.070609
v -0.076766 0.448313 -0.073245
v -0.076236 0.432996 -0.081588
v -0.076678 0.456723 -0.067824
v -0.077061 0.463203 -0.061056
v -0.076820 0.459540 -0.063694
v -0.076304 0.426596 -0.084407
v -0.076580 0.460525 -0.064966
v -0.077012 0.466730 -0.058624
v -0.076791 0.467049 -0.059005
v -0.076931 0.466446 -0.058299
v -0.076701 0.463036 -0.060870
v -0.076471 0.432288 -0.080144
v -0.076493 0.440800 -0.075367
v -0.076459 0.464056 -0.062112
v -0.076219 0.441666 -0.077010
v -0.076460 0.447523 -0.071843
v -0.076426 0.442985 -0.074214
v -0.076883 0.469716 -0.056014
v -0.076662 0.470038 -0.056392
v -0.076439 0.451779 -0.069259
v -0.076438 0.426214 -0.083560
v -0.076374 0.455781 -0.066520
v -0.076329 0.467318 -0.059339
v -0.076802 0.469430 -0.055691
v -0.076571 0.466274 -0.058117
v -0.076766 0.472439 -0.053632
v -0.076545 0.472758 -0.054013
v -0.076276 0.459529 -0.063701
v -0.076221 0.426411 -0.084018
v -0.075896 0.438003 -0.078990
v -0.076152 0.443846 -0.075859
v -0.076199 0.470309 -0.056725
v -0.076685 0.472156 -0.053306
v -0.076442 0.469257 -0.055510
v -0.076164 0.452783 -0.070821
v -0.076186 0.448436 -0.073461
v -0.076672 0.474897 -0.051554
v -0.076452 0.475205 -0.051944
v -0.076098 0.456860 -0.068031
v -0.076133 0.437262 -0.077563
v -0.076157 0.463022 -0.060878
v -0.075875 0.432865 -0.081376
v -0.075999 0.460666 -0.065169
v -0.076083 0.473026 -0.054347
v -0.076591 0.474624 -0.051220
v -0.076325 0.471984 -0.053124
v -0.076614 0.477091 -0.049856
v -0.076394 0.477376 -0.050264
v -0.076645 0.480693 -0.047906
v -0.076601 0.479023 -0.048615
v -0.076519 0.478822 -0.048233
v -0.076423 0.480833 -0.048381
v -0.076567 0.480584 -0.047488
v -0.074397 0.480923 -0.048340
v -0.074475 0.481032 -0.048757
v -0.076532 0.476842 -0.049505
v -0.076381 0.479257 -0.049053
v -0.076231 0.474460 -0.051031
v -0.075878 0.464201 -0.062313
v -0.076028 0.466260 -0.058126
v -0.076158 0.478708 -0.048011
v -0.076208 0.480535 -0.047240
v -0.074619 0.480783 -0.047864
v -0.075990 0.475466 -0.052285
v -0.076171 0.476694 -0.049304
v -0.075914 0.440897 -0.075597
v -0.076011 0.432456 -0.080542
v -0.075880 0.447645 -0.072059
v -0.075846 0.443096 -0.074436
v -0.075748 0.467465 -0.059538
v -0.075932 0.477619 -0.050619
v -0.075676 0.441646 -0.077020
v -0.075859 0.451909 -0.069470
v -0.075899 0.469242 -0.055520
v -0.075959 0.480966 -0.048788
v -0.074834 0.481081 -0.049005
v -0.075919 0.479462 -0.049431
v -0.075793 0.455917 -0.066727
v -0.075618 0.470457 -0.056923
v -0.075782 0.471970 -0.053133
v -0.075793 0.432667 -0.080993
v -0.075696 0.459671 -0.063905
v -0.075535 0.437868 -0.078780
v -0.075609 0.443841 -0.075861
v -0.075687 0.474448 -0.051038
v -0.075502 0.473174 -0.054546
v -0.075614 0.478712 -0.048008
v -0.075665 0.480559 -0.047229
v -0.075083 0.480650 -0.047457
v -0.075642 0.448436 -0.073460
v -0.075620 0.452779 -0.070823
v -0.075554 0.456852 -0.068036
v -0.075576 0.463167 -0.061079
v -0.075628 0.476687 -0.049307
v -0.075672 0.437440 -0.077955
v -0.075455 0.460655 -0.065176
v -0.075409 0.475610 -0.052486
v -0.075447 0.466407 -0.058325
v -0.075335 0.464188 -0.062321
v -0.075351 0.477756 -0.050826
v -0.075377 0.481057 -0.049016
v -0.075339 0.479583 -0.049648
v -0.075452 0.441083 -0.075985
v -0.075315 0.441516 -0.076807
v -0.075318 0.469390 -0.055718
v -0.075453 0.437662 -0.078401
v -0.075418 0.447857 -0.072434
v -0.075385 0.443291 -0.074820
v -0.075204 0.467451 -0.059548
v -0.075397 0.452139 -0.069834
v -0.075331 0.456162 -0.067081
v -0.075201 0.472117 -0.053331
v -0.075075 0.470442 -0.056933
v -0.075233 0.459926 -0.064250
v -0.075107 0.474592 -0.051240
v -0.075247 0.443722 -0.075643
v -0.075034 0.478833 -0.048224
v -0.075281 0.448314 -0.073243
v -0.075259 0.452641 -0.070615
v -0.075193 0.456701 -0.067837
v -0.074958 0.473160 -0.054555
v -0.075047 0.476824 -0.049514
v -0.075114 0.463431 -0.061418
v -0.075095 0.460494 -0.064984
v -0.075233 0.441310 -0.076428
v -0.074866 0.475599 -0.052494
v -0.074975 0.464020 -0.062135
v -0.074984 0.466676 -0.058659
v -0.075199 0.448102 -0.072867
v -0.075165 0.443521 -0.075261
v -0.074808 0.477749 -0.050829
v -0.075177 0.452407 -0.070253
v -0.074795 0.479587 -0.049645
v -0.075112 0.456449 -0.067487
v -0.074844 0.467279 -0.059365
v -0.074855 0.469661 -0.056050
v -0.075014 0.460228 -0.064645
v -0.074715 0.470268 -0.056752
v -0.074738 0.472386 -0.053666
v -0.074894 0.463743 -0.061804
v -0.074644 0.474853 -0.051581
v -0.074598 0.472988 -0.054373
v -0.074572 0.479038 -0.048603
v -0.074585 0.477067 -0.049869
v -0.074764 0.466995 -0.059040
v -0.074505 0.475434 -0.052305
v -0.074447 0.477601 -0.050628
v -0.074634 0.469983 -0.056429
v -0.074434 0.479474 -0.049423
v -0.074517 0.472705 -0.054047
v -0.074424 0.475162 -0.051971
v -0.074352 0.479273 -0.049041
v -0.074365 0.477352 -0.050277
usemtl Sural_nerve_rMaterial0
f 1 2 3
f 4 3 2
f 5 6 2
f 7 2 6
f 5 2 1
f 4 2 7
f 8 9 3
f 10 3 9
f 1 3 10
f 8 3 4
f 11 12 6
f 13 6 12
f 11 6 5
f 7 6 13
f 14 9 8
f 10 9 14
f 15 12 16
f 17 16 12
f 17 12 11
f 13 12 15
f 18 1 10
f 19 5 1
f 19 1 18
f 14 8 20
f 20 8 4
f 21 10 14
f 18 10 21
f 22 11 5
f 22 5 19
f 15 16 23
f 24 23 16
f 24 16 17
f 25 14 20
f 21 14 25
f 20 4 26
f 26 4 7
f 27 17 11
f 27 11 22
f 28 15 23
f 28 23 24
f 29 20 26
f 25 20 29
f 30 7 13
f 26 7 30
f 31 13 15
f 31 15 28
f 32 24 17
f 32 17 27
f 30 13 31
f 33 18 21
f 34 19 18
f 34 18 33
f 35 21 25
f 33 21 35
f 36 26 30
f 29 26 36
f 37 22 19
f 37 19 34
f 38 25 29
f 35 25 38
f 39 28 24
f 39 24 32
f 40 30 31
f 36 30 40
f 41 27 22
f 41 22 37
f 42 31 28
f 42 28 39
f 40 31 42
f 43 29 36
f 38 29 43
f 44 32 27
f 44 27 41
f 45 36 40
f 43 36 45
f 46 33 35
f 47 34 33
f 47 33 46
f 48 35 38
f 46 35 48
f 49 39 32
f 49 32 44
f 50 40 42
f 45 40 50
f 51 38 43
f 48 38 51
f 52 37 34
f 52 34 47
f 53 42 39
f 53 39 49
f 50 42 53
f 54 43 45
f 51 43 54
f 55 41 37
f 55 37 52
f 56 45 50
f 54 45 56
f 57 44 41
f 57 41 55
f 58 50 53
f 56 50 58
f 59 49 44
f 59 44 57
f 60 46 48
f 61 48 51
f 60 48 61
f 62 47 46
f 62 46 60
f 63 53 49
f 63 49 59
f 58 53 63
f 64 51 54
f 61 51 64
f 65 52 47
f 65 47 62
f 66 54 56
f 64 54 66
f 67 55 52
f 67 52 65
f 68 56 58
f 66 56 68
f 69 57 55
f 69 55 67
f 70 58 63
f 68 58 70
f 71 59 57
f 71 57 69
f 72 63 59
f 70 63 72
f 72 59 71
f 73 60 61
f 74 61 64
f 73 61 74
f 75 62 60
f 75 60 73
f 76 64 66
f 74 64 76
f 77 65 62
f 77 62 75
f 78 66 68
f 76 66 78
f 79 67 65
f 79 65 77
f 80 68 70
f 78 68 80
f 81 69 67
f 81 67 79
f 82 70 72
f 80 70 82
f 83 71 69
f 83 69 81
f 84 72 71
f 82 72 84
f 84 71 83
f 85 73 74
f 86 74 76
f 85 74 86
f 87 75 73
f 87 73 85
f 88 76 78
f 86 76 88
f 89 77 75
f 89 75 87
f 90 78 80
f 88 78 90
f 91 79 77
f 91 77 89
f 92 80 82
f 90 80 92
f 93 81 79
f 93 79 91
f 94 82 84
f 92 82 94
f 95 83 81
f 95 81 93
f 96 84 83
f 94 84 96
f 96 83 95
f 97 85 86
f 98 86 88
f 97 86 98
f 99 87 85
f 99 85 97
f 100 88 90
f 98 88 100
f 101 89 87
f 101 87 99
f 102 90 92
f 100 90 102
f 103 91 89
f 103 89 101
f 104 92 94
f 102 92 104
f 105 93 91
f 105 91 103
f 106 94 96
f 104 94 106
f 107 95 93
f 107 93 105
f 108 96 95
f 106 96 108
f 108 95 107
f 109 98 100
f 110 97 98
f 110 98 109
f 111 100 102
f 109 100 111
f 112 99 97
f 112 97 110
f 113 102 104
f 111 102 113
f 114 101 99
f 114 99 112
f 115 104 106
f 113 104 115
f 116 103 101
f 116 101 114
f 117 106 108
f 115 106 117
f 118 105 103
f 118 103 116
f 119 107 105
f 119 105 118
f 120 108 107
f 117 108 120
f 121 109 111
f 122 110 109
f 122 109 121
f 123 111 113
f 121 111 123
f 120 107 119
f 124 112 110
f 124 110 122
f 125 113 115
f 123 113 125
f 126 114 112
f 126 112 124
f 127 115 117
f 125 115 127
f 128 116 114
f 128 114 126
f 129 117 120
f 127 117 129
f 130 118 116
f 130 116 128
f 131 121 123
f 132 122 121
f 132 121 131
f 133 123 125
f 131 123 133
f 134 124 122
f 134 122 132
f 135 120 119
f 129 120 135
f 136 119 118
f 136 118 130
f 135 119 136
f 137 125 127
f 133 125 137
f 138 126 124
f 138 124 134
f 139 127 129
f 137 127 139
f 140 128 126
f 140 126 138
f 141 131 133
f 142 132 131
f 142 131 141
f 143 129 135
f 139 129 143
f 144 133 137
f 141 133 144
f 145 130 128
f 145 128 140
f 146 134 132
f 146 132 142
f 147 135 136
f 143 135 147
f 148 137 139
f 144 137 148
f 149 136 130
f 149 130 145
f 150 138 134
f 150 134 146
f 147 136 149
f 151 139 143
f 148 139 151
f 152 140 138
f 152 138 150
f 153 141 144
f 154 142 141
f 154 141 153
f 155 144 148
f 153 144 155
f 156 146 142
f 156 142 154
f 157 143 147
f 151 143 157
f 158 148 151
f 155 148 158
f 159 145 140
f 159 140 152
f 160 150 146
f 160 146 156
f 161 147 149
f 157 147 161
f 162 149 145
f 162 145 159
f 163 153 155
f 164 154 153
f 164 153 163
f 161 149 162
f 158 151 165
f 165 151 157
f 166 155 158
f 163 155 166
f 167 156 154
f 167 154 164
f 168 152 150
f 168 150 160
f 166 158 169
f 169 158 165
f 170 160 156
f 170 156 167
f 165 157 171
f 171 157 161
f 172 163 166
f 173 164 163
f 173 163 172
f 174 166 169
f 172 166 174
f 175 159 152
f 175 152 168
f 176 167 164
f 176 164 173
f 169 165 177
f 177 165 171
f 178 161 162
f 171 161 178
f 174 169 179
f 179 169 177
f 180 162 159
f 180 159 175
f 181 172 174
f 182 173 172
f 182 172 181
f 183 168 160
f 183 160 170
f 178 162 180
f 181 174 184
f 184 174 179
f 185 167 176
f 185 170 167
f 186 173 182
f 186 176 173
f 187 181 184
f 188 182 181
f 188 181 187
f 177 171 189
f 189 171 178
f 184 179 190
f 187 184 191
f 191 184 190
f 179 177 192
f 190 179 192
f 192 177 189
f 193 175 168
f 193 168 183
f 194 182 188
f 194 186 182
f 195 187 191
f 196 187 195
f 196 188 187
f 197 176 186
f 197 185 176
f 195 191 198
f 198 191 199
f 191 190 199
f 200 195 198
f 201 195 200
f 201 196 195
f 202 183 170
f 202 170 185
f 203 188 196
f 203 194 188
f 200 198 204
f 205 200 204
f 206 200 205
f 206 201 200
f 204 198 207
f 198 199 207
f 208 205 209
f 210 205 208
f 205 204 209
f 210 206 205
f 211 178 180
f 189 178 211
f 190 192 212
f 199 190 212
f 208 209 213
f 214 208 213
f 215 208 214
f 215 210 208
f 209 204 216
f 204 207 216
f 217 196 201
f 217 203 196
f 213 209 218
f 209 216 218
f 214 213 219
f 220 214 219
f 221 214 220
f 221 215 214
f 222 180 175
f 222 175 193
f 219 213 223
f 213 218 223
f 224 201 206
f 224 217 201
f 211 180 222
f 192 189 225
f 212 192 225
f 226 186 194
f 226 197 186
f 227 206 210
f 227 224 206
f 220 219 228
f 228 219 229
f 219 223 229
f 230 220 228
f 231 220 230
f 231 221 220
f 207 199 232
f 199 212 232
f 233 210 215
f 233 227 210
f 225 189 211
f 234 215 221
f 234 233 215
f 230 228 235
f 235 228 236
f 228 229 236
f 216 207 237
f 207 232 237
f 238 230 235
f 239 231 230
f 239 230 238
f 240 193 183
f 240 183 202
f 241 185 197
f 241 202 185
f 242 194 203
f 242 226 194
f 218 216 243
f 216 237 243
f 244 221 231
f 244 234 221
f 223 218 245
f 218 243 245
f 235 236 246
f 247 235 246
f 238 235 247
f 229 223 248
f 223 245 248
f 212 225 249
f 232 212 249
f 250 203 217
f 250 242 203
f 236 229 251
f 229 248 251
f 252 217 224
f 252 250 217
f 253 244 231
f 253 231 239
f 254 224 227
f 254 252 224
f 225 211 255
f 255 211 222
f 246 236 256
f 236 251 256
f 257 227 233
f 257 254 227
f 249 225 255
f 258 197 226
f 258 241 197
f 237 232 259
f 232 249 259
f 260 222 193
f 260 193 240
f 261 233 234
f 261 257 233
f 262 263 264
f 265 263 262
f 262 264 266
f 267 262 266
f 268 265 262
f 268 262 267
f 263 269 264
f 265 270 263
f 270 271 263
f 263 271 269
f 255 222 260
f 243 237 272
f 237 259 272
f 273 234 244
f 273 261 234
f 246 256 274
f 275 246 274
f 247 246 275
f 266 264 276
f 267 266 277
f 277 266 278
f 266 276 278
f 279 240 202
f 279 202 241
f 280 226 242
f 280 258 226
f 245 243 281
f 243 272 281
f 264 282 276
f 264 269 282
f 248 245 283
f 245 281 283
f 251 248 284
f 248 283 284
f 285 270 265
f 286 265 268
f 286 285 265
f 249 255 287
f 259 249 287
f 288 273 244
f 288 244 253
f 289 242 250
f 289 280 242
f 256 251 290
f 251 284 290
f 270 291 271
f 292 291 270
f 285 292 270
f 293 267 277
f 294 268 267
f 294 267 293
f 287 255 260
f 295 250 252
f 295 289 250
f 296 252 254
f 296 295 252
f 274 256 297
f 256 290 297
f 277 278 298
f 299 277 298
f 293 277 299
f 300 260 240
f 300 240 279
f 301 241 258
f 301 279 241
f 302 254 257
f 302 296 254
f 272 259 303
f 259 287 303
f 287 260 300
f 304 257 261
f 304 302 257
f 271 305 269
f 291 306 271
f 271 306 305
f 278 276 307
f 298 278 308
f 278 307 308
f 309 286 268
f 309 268 294
f 281 272 310
f 272 303 310
f 274 297 311
f 312 274 311
f 275 274 312
f 313 261 273
f 313 304 261
f 276 282 314
f 276 314 307
f 315 258 280
f 315 301 258
f 303 287 300
f 269 305 316
f 269 316 282
f 283 281 317
f 281 310 317
f 291 318 306
f 306 319 305
f 318 320 306
f 306 320 319
f 284 283 321
f 283 317 321
f 322 300 279
f 322 279 301
f 323 238 247
f 324 239 238
f 324 238 323
f 325 280 289
f 325 315 280
f 290 284 326
f 284 321 326
f 327 313 273
f 327 273 288
f 292 328 291
f 328 318 291
f 329 292 285
f 330 285 286
f 330 329 285
f 305 319 331
f 305 331 316
f 303 300 322
f 297 290 332
f 290 326 332
f 333 247 275
f 323 247 333
f 334 289 295
f 334 325 289
f 310 303 322
f 335 328 292
f 329 335 292
f 299 298 336
f 298 308 337
f 336 298 337
f 338 295 296
f 338 334 295
f 339 293 299
f 340 294 293
f 340 293 339
f 341 322 301
f 341 301 315
f 342 296 302
f 342 338 296
f 311 297 343
f 297 332 343
f 344 253 239
f 344 239 324
f 318 345 320
f 320 346 319
f 345 347 320
f 320 347 346
f 348 345 318
f 328 348 318
f 310 322 341
f 317 310 341
f 349 302 304
f 349 342 302
f 350 299 336
f 339 299 350
f 321 317 351
f 317 341 351
f 319 346 352
f 319 352 331
f 351 341 315
f 351 315 325
f 353 286 309
f 353 330 286
f 326 321 354
f 321 351 354
f 355 304 313
f 355 349 304
f 311 343 356
f 357 311 356
f 312 311 357
f 282 316 358
f 282 358 314
f 359 309 294
f 359 294 340
f 354 325 334
f 354 351 325
f 332 326 360
f 326 354 360
f 333 275 361
f 361 275 312
f 345 362 347
f 363 362 345
f 348 363 345
f 360 334 338
f 360 354 334
f 308 307 364
f 337 308 365
f 308 364 365
f 332 360 366
f 343 332 366
f 366 338 342
f 366 360 338
f 347 367 346
f 362 368 347
f 347 368 367
f 316 331 369
f 316 369 358
f 307 314 370
f 307 370 364
f 371 355 313
f 371 313 327
f 372 366 342
f 372 342 349
f 343 366 372
f 356 343 372
f 373 288 253
f 373 253 344
f 374 348 328
f 335 374 328
f 346 367 375
f 346 375 352
f 376 372 349
f 376 349 355
f 336 337 377
f 350 336 378
f 378 336 377
f 379 323 333
f 380 324 323
f 380 323 379
f 362 381 368
f 363 382 362
f 382 381 362
f 331 352 383
f 331 383 369
f 384 363 348
f 374 384 348
f 385 335 329
f 386 329 330
f 386 385 329
f 337 365 387
f 377 337 387
f 356 372 376
f 388 356 376
f 357 356 388
f 389 374 335
f 385 389 335
f 390 333 361
f 379 333 390
f 368 391 367
f 381 392 368
f 368 392 391
f 393 376 355
f 393 355 371
f 394 353 309
f 394 309 359
f 361 312 395
f 395 312 357
f 396 344 324
f 396 324 380
f 367 391 397
f 367 397 375
f 388 376 393
f 398 339 350
f 399 340 339
f 399 339 398
f 400 382 363
f 384 400 363
f 401 330 353
f 401 386 330
f 352 375 402
f 352 402 383
f 314 358 403
f 314 403 370
f 381 404 392
f 382 405 381
f 405 404 381
f 406 350 378
f 398 350 406
f 392 407 391
f 404 408 392
f 392 408 407
f 409 327 288
f 409 288 373
f 365 364 410
f 387 365 411
f 365 410 411
f 358 369 412
f 358 412 403
f 390 361 413
f 413 361 395
f 414 379 390
f 415 380 379
f 415 379 414
f 416 359 340
f 416 340 399
f 391 407 417
f 391 417 397
f 364 370 418
f 364 418 410
f 419 405 382
f 400 419 382
f 414 390 420
f 420 390 413
f 421 384 374
f 389 421 374
f 377 387 422
f 378 377 423
f 423 377 422
f 404 424 408
f 408 425 426
f 424 425 408
f 408 426 407
f 427 424 404
f 405 427 404
f 375 397 428
f 375 428 402
f 429 344 396
f 429 373 344
f 430 389 385
f 431 385 386
f 431 430 385
f 369 383 432
f 369 432 412
f 433 380 415
f 433 396 380
f 425 414 420
f 434 414 425
f 434 415 414
f 435 400 384
f 421 435 384
f 387 411 436
f 422 387 436
f 395 357 437
f 437 357 388
f 425 420 426
f 424 434 425
f 407 426 438
f 407 438 417
f 430 439 389
f 439 421 389
f 406 378 440
f 440 378 423
f 426 420 441
f 420 413 441
f 426 441 438
f 442 434 424
f 427 442 424
f 443 427 405
f 419 443 405
f 444 401 353
f 444 353 394
f 445 415 434
f 445 433 415
f 397 417 446
f 397 446 428
f 447 371 327
f 447 327 409
f 413 395 448
f 441 413 448
f 383 402 449
f 383 449 432
f 450 419 400
f 435 450 400
f 451 431 386
f 451 386 401
f 442 445 434
f 411 410 452
f 436 411 453
f 411 452 453
f 448 395 437
f 454 394 359
f 454 359 416
f 370 403 455
f 370 455 418
f 410 456 452
f 410 418 456
f 453 439 430
f 457 453 430
f 457 430 431
f 458 396 433
f 458 429 396
f 417 438 459
f 417 459 446
f 460 442 427
f 443 460 427
f 403 412 461
f 403 461 455
f 462 388 393
f 437 388 462
f 463 373 429
f 463 409 373
f 438 441 464
f 441 448 464
f 465 443 419
f 450 465 419
f 453 452 439
f 439 466 421
f 452 466 439
f 436 453 457
f 467 398 406
f 468 399 398
f 468 398 467
f 438 464 459
f 422 436 469
f 469 436 457
f 402 428 470
f 402 470 449
f 466 435 421
f 423 422 471
f 471 422 469
f 472 393 371
f 472 371 447
f 473 406 440
f 467 406 473
f 452 456 466
f 474 445 442
f 460 474 442
f 412 432 475
f 412 475 461
f 462 393 472
f 476 433 445
f 476 458 433
f 477 450 435
f 466 477 435
f 478 457 431
f 478 431 451
f 440 423 479
f 479 423 471
f 480 416 399
f 480 399 468
f 474 476 445
f 448 437 481
f 464 448 481
f 482 460 443
f 465 482 443
f 469 457 478
f 483 451 401
f 483 401 444
f 428 446 484
f 428 484 470
f 481 437 462
f 477 485 450
f 485 465 450
f 418 455 486
f 418 486 456
f 432 449 487
f 432 487 475
f 488 444 394
f 488 394 454
f 455 461 489
f 455 489 486
f 473 440 490
f 490 440 479
f 491 429 458
f 491 463 429
f 492 447 409
f 492 409 463
f 446 459 493
f 446 493 484
f 456 477 466
f 459 464 494
f 464 481 494
f 495 474 460
f 482 495 460
f 496 469 478
f 471 469 496
f 459 494 493
f 456 486 477
f 486 485 477
f 485 497 465
f 497 482 465
f 461 498 489
f 461 475 498
f 449 470 499
f 449 499 487
f 500 478 451
f 500 451 483
f 501 454 416
f 501 416 480
f 486 489 485
f 502 476 474
f 495 502 474
f 503 458 476
f 503 491 458
f 481 462 504
f 504 462 472
f 489 497 485
f 502 503 476
f 496 478 500
f 479 471 505
f 505 471 496
f 494 481 504
f 506 472 447
f 506 447 492
f 497 507 482
f 507 495 482
f 489 498 497
f 475 508 498
f 475 487 508
f 470 484 509
f 470 509 499
f 504 472 506
f 510 467 473
f 511 468 467
f 511 467 510
f 512 463 491
f 512 492 463
f 498 507 497
f 513 483 444
f 513 444 488
f 514 473 490
f 510 473 514
f 490 479 515
f 515 479 505
f 493 494 516
f 494 504 516
f 484 493 517
f 484 517 509
f 518 502 495
f 507 518 495
f 498 508 507
f 493 516 517
f 487 519 508
f 487 499 519
f 520 480 468
f 520 468 511
f 516 504 506
f 521 491 503
f 521 512 491
f 522 503 502
f 518 522 502
f 508 518 507
f 523 496 500
f 505 496 523
f 524 488 454
f 524 454 501
f 525 506 492
f 525 492 512
f 522 521 503
f 508 519 518
f 499 509 526
f 499 526 519
f 527 500 483
f 527 483 513
f 514 490 528
f 528 490 515
f 516 506 525
f 519 522 518
f 517 516 525
f 523 500 527
f 509 517 529
f 509 529 526
f 517 525 529
f 519 526 522
f 529 525 512
f 529 512 521
f 530 501 480
f 530 480 520
f 526 521 522
f 515 505 531
f 531 505 523
f 526 529 521
f 532 513 488
f 532 488 524
f 533 510 514
f 534 511 510
f 534 510 533
f 535 514 528
f 533 514 535
f 528 515 536
f 536 515 531
f 537 520 511
f 537 511 534
f 538 523 527
f 531 523 538
f 539 524 501
f 539 501 530
f 540 527 513
f 540 513 532
f 535 528 541
f 541 528 536
f 538 527 540
f 542 530 520
f 542 520 537
f 536 531 543
f 543 531 538
f 544 533 535
f 545 534 533
f 545 533 544
f 546 532 524
f 546 524 539
f 547 535 541
f 544 535 547
f 541 536 548
f 548 536 543
f 549 537 534
f 549 534 545
f 550 538 540
f 543 538 550
f 551 539 530
f 551 530 542
f 552 540 532
f 552 532 546
f 547 541 553
f 553 541 548
f 550 540 552
f 554 542 537
f 554 537 549
f 555 544 547
f 556 545 544
f 556 544 555
f 548 543 557
f 557 543 550
f 558 547 553
f 555 547 558
f 559 549 545
f 559 545 556
f 560 546 539
f 560 539 551
f 553 548 561
f 561 548 557
f 558 553 562
f 562 553 561
f 563 555 558
f 564 555 563
f 564 556 555
f 565 550 552
f 557 550 565
f 563 558 566
f 566 558 562
f 567 551 542
f 567 542 554
f 568 563 566
f 569 563 568
f 568 566 570
f 571 568 570
f 572 568 571
f 572 569 568
f 569 564 563
f 573 549 559
f 573 554 549
f 574 556 564
f 574 559 556
f 575 552 546
f 575 546 560
f 570 566 576
f 571 570 577
f 577 570 578
f 570 576 578
f 566 562 576
f 579 571 577
f 580 572 571
f 580 571 579
f 565 552 575
f 581 564 569
f 582 569 572
f 582 581 569
f 581 574 564
f 579 577 583
f 577 578 584
f 583 577 584
f 561 557 585
f 585 557 565
f 562 561 586
f 576 562 586
f 587 572 580
f 587 582 572
f 586 561 585
f 588 579 583
f 589 580 579
f 589 579 588
f 578 576 590
f 584 578 591
f 578 590 591
f 576 586 590
f 583 584 592
f 588 583 593
f 593 583 592
f 594 560 551
f 594 551 567
f 595 559 574
f 595 573 559
f 592 584 596
f 584 591 596
f 597 580 589
f 597 587 580
f 598 554 573
f 598 567 554
f 599 574 581
f 600 581 582
f 600 599 581
f 599 595 574
f 601 565 575
f 585 565 601
f 602 582 587
f 602 600 582
f 603 588 593
f 604 589 588
f 604 588 603
f 586 585 605
f 590 586 605
f 593 592 606
f 592 596 607
f 606 592 607
f 608 593 606
f 603 593 608
f 609 575 560
f 609 560 594
f 591 590 610
f 596 591 611
f 591 610 611
f 601 575 609
f 605 585 601
f 590 605 610
f 612 597 589
f 612 589 604
f 613 587 597
f 613 602 587
f 614 573 595
f 614 598 573
f 607 596 615
f 596 611 615
f 616 594 567
f 616 567 598
f 617 595 599
f 618 599 600
f 618 617 599
f 617 614 595
f 608 606 619
f 606 607 620
f 619 606 620
f 621 603 608
f 622 604 603
f 622 603 621
f 623 608 619
f 621 608 623
f 624 600 602
f 624 618 600
f 607 615 625
f 620 607 625
f 605 601 626
f 610 605 626
f 626 601 609
f 627 597 612
f 627 613 597
f 628 612 604
f 628 604 622
f 611 610 629
f 615 611 630
f 611 629 630
f 610 626 629
f 631 609 594
f 631 594 616
f 632 598 614
f 632 616 598
f 633 602 613
f 633 624 602
f 626 609 631
f 625 615 634
f 615 630 634
f 619 620 635
f 623 619 636
f 636 619 635
f 637 621 623
f 638 622 621
f 638 621 637
f 639 614 617
f 640 617 618
f 640 639 617
f 639 632 614
f 620 625 641
f 635 620 641
f 642 623 636
f 637 623 642
f 629 626 631
f 643 618 624
f 643 640 618
f 644 612 628
f 644 627 612
f 645 628 622
f 645 622 638
f 625 634 646
f 641 625 646
f 630 629 647
f 634 630 648
f 630 647 648
f 647 631 616
f 647 616 632
f 629 631 647
f 649 613 627
f 649 633 613
f 648 632 639
f 650 648 639
f 650 639 640
f 648 647 632
f 634 648 650
f 646 634 650
f 651 643 624
f 651 624 633
f 636 635 652
f 642 636 653
f 653 636 652
f 635 641 654
f 652 635 654
f 655 637 642
f 656 638 637
f 656 637 655
f 657 650 640
f 657 640 643
f 658 642 653
f 655 642 658
f 646 650 657
f 641 646 659
f 654 641 659
f 660 628 645
f 660 644 628
f 659 646 657
f 661 645 638
f 661 638 656
f 662 627 644
f 662 649 627
f 663 657 643
f 663 643 651
f 664 651 633
f 664 633 649
f 659 657 663
f 653 652 665
f 658 653 666
f 666 653 665
f 652 654 667
f 665 652 667
f 668 655 658
f 669 656 655
f 669 655 668
f 654 659 670
f 670 659 663
f 667 654 670
f 668 658 671
f 671 658 666
f 672 645 661
f 672 660 645
f 673 663 651
f 673 651 664
f 674 656 669
f 674 661 656
f 675 644 660
f 675 662 644
f 670 663 673
f 676 664 649
f 676 649 662
f 677 668 671
f 678 669 668
f 678 668 677
f 666 665 679
f 671 666 680
f 680 666 679
f 665 667 681
f 679 665 681
f 677 671 682
f 682 671 680
f 667 670 683
f 683 670 673
f 681 667 683
f 684 669 678
f 684 674 669
f 685 673 664
f 685 664 676
f 686 661 674
f 686 672 661
f 683 673 685
f 687 660 672
f 687 675 660
f 688 677 682
f 689 678 677
f 689 677 688
f 690 676 662
f 690 662 675
f 682 680 691
f 688 682 692
f 692 682 691
f 680 679 693
f 691 680 693
f 679 681 694
f 693 679 694
f 695 678 689
f 695 684 678
f 696 688 692
f 697 688 696
f 697 689 688
f 698 699 700
f 701 699 698
f 699 696 702
f 703 696 699
f 699 702 700
f 701 703 699
f 681 683 704
f 704 683 685
f 698 700 705
f 706 698 705
f 707 698 706
f 707 701 698
f 696 692 702
f 703 697 696
f 702 692 708
f 692 691 708
f 694 681 704
f 709 674 684
f 709 686 674
f 705 700 710
f 700 702 711
f 700 711 710
f 706 705 712
f 713 706 712
f 714 706 713
f 714 707 706
f 712 705 715
f 705 710 715
f 702 708 711
f 716 685 676
f 716 676 690
f 713 712 717
f 717 712 718
f 712 715 718
f 691 693 719
f 708 691 719
f 720 689 697
f 720 695 689
f 721 713 717
f 722 713 721
f 722 714 713
f 723 703 701
f 724 697 703
f 723 724 703
f 704 685 716
f 725 672 686
f 725 687 672
f 726 701 707
f 726 723 701
f 724 720 697
f 721 717 727
f 727 717 728
f 717 718 728
f 729 690 675
f 729 675 687
f 730 707 714
f 730 726 707
f 731 721 727
f 732 721 731
f 732 722 721
f 731 727 733
f 733 727 734
f 727 728 734
f 693 694 735
f 719 693 735
f 711 708 736
f 708 719 736
f 737 714 722
f 737 730 714
f 738 684 695
f 738 709 684
f 715 710 739
f 710 711 740
f 710 740 739
f 741 731 733
f 742 731 741
f 742 732 731
f 718 715 743
f 715 739 743
f 711 736 740
f 694 704 744
f 744 704 716
f 728 718 745
f 718 743 745
f 746 722 732
f 746 737 722
f 741 733 747
f 747 733 748
f 733 734 748
f 735 694 744
f 749 741 747
f 750 741 749
f 750 742 741
f 734 728 751
f 728 745 751
f 752 716 690
f 752 690 729
f 753 686 709
f 753 725 686
f 754 695 720
f 754 738 695
f 755 732 742
f 755 746 732
f 749 747 756
f 756 747 757
f 747 748 757
f 758 724 723
f 759 720 724
f 758 759 724
f 760 749 756
f 761 749 760
f 761 750 749
f 762 723 726
f 762 758 723
f 759 754 720
f 744 716 752
f 736 719 763
f 719 735 763
f 748 734 764
f 734 751 764
f 765 729 687
f 765 687 725
f 766 726 730
f 766 762 726
f 767 742 750
f 767 755 742
f 760 756 768
f 768 756 769
f 756 757 769
f 770 760 768
f 771 760 770
f 771 761 760
f 772 773 774
f 775 773 772
f 772 774 776
f 777 772 776
f 778 775 772
f 778 772 777
f 770 768 779
f 773 770 779
f 780 770 773
f 780 771 770
f 779 768 781
f 768 769 781
f 773 779 774
f 775 780 773
f 782 730 737
f 782 766 730
f 757 748 783
f 748 764 783
f 776 774 784
f 776 784 785
f 786 776 785
f 777 776 786
f 787 750 761
f 787 767 750
f 774 779 788
f 779 781 788
f 774 788 784
f 740 736 789
f 736 763 789
f 735 744 790
f 763 735 790
f 743 739 791
f 739 740 792
f 739 792 791
f 793 737 746
f 793 782 737
f 794 761 771
f 794 787 761
f 790 744 752
f 795 709 738
f 795 753 709
f 745 743 796
f 743 791 796
f 769 757 797
f 757 783 797
f 740 789 792
f 798 780 775
f 799 798 775
f 799 775 778
f 800 771 780
f 800 794 771
f 751 745 801
f 745 796 801
f 798 800 780
f 802 746 755
f 802 793 746
f 781 769 803
f 769 797 803
f 804 752 729
f 804 729 765
f 764 751 805
f 751 801 805
f 790 752 804
f 806 725 753
f 806 765 725
f 807 738 754
f 807 795 738
f 788 781 808
f 781 803 808
f 809 755 767
f 809 802 755
f 785 784 810
f 785 810 811
f 812 785 811
f 786 785 812
f 813 754 759
f 814 759 758
f 814 813 759
f 813 807 754
f 815 758 762
f 815 814 758
f 783 764 816
f 764 805 816
f 784 788 817
f 788 808 817
f 784 817 810
f 763 790 818
f 789 763 818
f 819 762 766
f 819 815 762
f 820 767 787
f 820 809 767
f 797 783 821
f 783 816 821
f 818 790 804
f 822 766 782
f 822 819 766
f 823 787 794
f 823 820 787
f 824 800 798
f 824 798 799
f 825 794 800
f 825 823 794
f 792 789 826
f 789 818 826
f 824 825 800
f 827 753 795
f 827 806 753
f 803 797 828
f 797 821 828
f 829 804 765
f 829 765 806
f 796 791 830
f 791 792 831
f 791 831 830
f 832 782 793
f 832 822 782
f 801 796 833
f 796 830 833
f 792 826 831
f 818 804 829
f 805 801 834
f 801 833 834
f 808 803 835
f 803 828 835
f 836 793 802
f 836 832 793
f 816 805 837
f 805 834 837
f 817 808 838
f 808 835 838
f 826 818 829
f 839 795 807
f 839 827 795
f 811 810 840
f 811 840 812
f 841 807 813
f 842 813 814
f 842 841 813
f 841 839 807
f 843 814 815
f 843 842 814
f 844 802 809
f 844 836 802
f 810 817 845
f 817 838 845
f 810 845 840
f 821 816 846
f 816 837 846
f 847 815 819
f 847 843 815
f 848 829 806
f 848 806 827
f 849 809 820
f 849 844 809
f 826 829 848
f 831 826 848
f 850 819 822
f 850 847 819
f 828 821 851
f 821 846 851
f 833 830 852
f 830 831 853
f 830 853 852
f 854 820 823
f 854 849 820
f 834 833 855
f 833 852 855
f 831 848 853
f 799 825 824
f 856 823 825
f 856 854 823
f 837 834 857
f 834 855 857
f 858 822 832
f 858 850 822
f 799 856 825
f 853 827 839
f 853 848 827
f 835 828 859
f 828 851 859
f 855 841 842
f 852 839 841
f 855 852 841
f 857 842 843
f 857 855 842
f 852 853 839
f 837 857 860
f 846 837 860
f 860 857 843
f 860 843 847
f 861 832 836
f 861 858 832
f 838 835 862
f 835 859 862
f 846 860 863
f 851 846 863
f 845 838 864
f 838 862 864
f 863 860 847
f 863 847 850
f 865 836 844
f 865 861 836
f 812 840 866
f 812 866 786
f 840 845 867
f 845 864 867
f 840 867 866
f 868 863 850
f 868 850 858
f 851 863 868
f 859 851 868
f 869 844 849
f 869 865 844
f 870 849 854
f 870 869 849
f 859 868 871
f 862 859 871
f 871 868 858
f 871 858 861
f 778 856 799
f 872 854 856
f 872 870 854
f 778 872 856
f 862 871 873
f 864 862 873
f 873 871 861
f 873 861 865
f 867 864 874
f 864 873 874
f 786 866 875
f 786 875 777
f 874 873 865
f 874 865 869
f 866 867 876
f 867 874 876
f 866 876 875
f 876 869 870
f 876 874 869
f 777 872 778
f 875 870 872
f 875 876 870
f 777 875 872
