# 
# Wavefront OBJ file
# Created with Kaydara FBX
# 
mtllib c:\users\tjvan\onedrive\documenten\fontys\minor\nx\.mtlmodels\sural_vein.r.obj

g Sural_vein_r
v -0.101408 0.432656 -0.064143
v -0.104529 0.429454 -0.064614
v -0.104529 0.429457 -0.064645
v -0.101406 0.432663 -0.064197
v -0.104517 0.429449 -0.064673
v -0.101392 0.432629 -0.064098
v -0.104518 0.429441 -0.064588
v -0.101385 0.432650 -0.064247
v -0.104497 0.429433 -0.064690
v -0.101361 0.432590 -0.064074
v -0.104498 0.429421 -0.064575
v -0.101324 0.432549 -0.064078
v -0.104475 0.429401 -0.064576
v -0.101352 0.432618 -0.064277
v -0.104474 0.429413 -0.064692
v -0.101291 0.432518 -0.064109
v -0.104455 0.429384 -0.064594
v -0.101315 0.432578 -0.064281
v -0.104454 0.429393 -0.064678
v -0.101284 0.432539 -0.064258
v -0.104443 0.429380 -0.064652
v -0.101270 0.432504 -0.064158
v -0.104443 0.429377 -0.064621
v -0.101268 0.432512 -0.064212
v -0.098545 0.434983 -0.063573
v -0.098537 0.434996 -0.063650
v -0.098528 0.434938 -0.063509
v -0.098492 0.434876 -0.063477
v -0.098508 0.434976 -0.063721
v -0.098447 0.434812 -0.063484
v -0.098465 0.434928 -0.063766
v -0.098404 0.434763 -0.063529
v -0.098420 0.434863 -0.063773
v -0.098375 0.434743 -0.063599
v -0.098384 0.434801 -0.063740
v -0.098367 0.434757 -0.063677
v -0.095910 0.436513 -0.062839
v -0.095876 0.436424 -0.062799
v -0.095920 0.436577 -0.062919
v -0.095904 0.436599 -0.063018
v -0.095867 0.436573 -0.063111
v -0.095829 0.436333 -0.062812
v -0.095817 0.436505 -0.063171
v -0.095779 0.436266 -0.062872
v -0.095770 0.436415 -0.063183
v -0.095742 0.436239 -0.062964
v -0.095726 0.436261 -0.063064
v -0.095736 0.436325 -0.063144
v -0.093521 0.437497 -0.062103
v -0.093518 0.437582 -0.062197
v -0.093497 0.437379 -0.062060
v -0.093489 0.437612 -0.062317
v -0.093454 0.437262 -0.062079
v -0.093443 0.437580 -0.062431
v -0.093402 0.437175 -0.062156
v -0.093391 0.437493 -0.062508
v -0.093356 0.437142 -0.062270
v -0.093348 0.437375 -0.062528
v -0.093328 0.437172 -0.062390
v -0.093325 0.437258 -0.062485
v -0.091346 0.438032 -0.061319
v -0.091338 0.437888 -0.061275
v -0.091325 0.438138 -0.061425
v -0.091303 0.437744 -0.061304
v -0.091281 0.438176 -0.061565
v -0.091251 0.437638 -0.061398
v -0.091225 0.438138 -0.061700
v -0.091195 0.437600 -0.061533
v -0.091173 0.438032 -0.061794
v -0.091150 0.437638 -0.061673
v -0.091138 0.437888 -0.061823
v -0.091129 0.437744 -0.061779
v -0.089381 0.438095 -0.060461
v -0.089354 0.437926 -0.060500
v -0.089374 0.438264 -0.060506
v -0.089334 0.438388 -0.060623
v -0.089300 0.437803 -0.060612
v -0.089272 0.438434 -0.060780
v -0.089232 0.437759 -0.060767
v -0.089205 0.438390 -0.060936
v -0.089170 0.437805 -0.060924
v -0.089150 0.438267 -0.061048
v -0.089130 0.437929 -0.061041
v -0.089123 0.438098 -0.061086
v -0.087609 0.438145 -0.059635
v -0.087583 0.437953 -0.059681
v -0.087592 0.438337 -0.059683
v -0.087521 0.437813 -0.059809
v -0.087537 0.438479 -0.059811
v -0.087440 0.437762 -0.059983
v -0.087458 0.438532 -0.059986
v -0.087361 0.437815 -0.060158
v -0.087377 0.438481 -0.060161
v -0.087306 0.437957 -0.060287
v -0.087315 0.438341 -0.060288
v -0.087289 0.438150 -0.060334
v -0.085965 0.437967 -0.058860
v -0.086003 0.438181 -0.058812
v -0.085886 0.437810 -0.058998
v -0.085990 0.438397 -0.058868
v -0.085929 0.438556 -0.059013
v -0.085787 0.437754 -0.059190
v -0.085836 0.438615 -0.059207
v -0.085694 0.437814 -0.059384
v -0.085737 0.438559 -0.059399
v -0.085633 0.437972 -0.059528
v -0.085620 0.438188 -0.059585
v -0.085658 0.438403 -0.059537
v -0.084545 0.438349 -0.058009
v -0.084474 0.438115 -0.058047
v -0.084556 0.438584 -0.058085
v -0.084362 0.437945 -0.058188
v -0.084505 0.438757 -0.058253
v -0.084241 0.437885 -0.058394
v -0.084406 0.438822 -0.058470
v -0.084141 0.437950 -0.058611
v -0.084284 0.438762 -0.058676
v -0.084090 0.438124 -0.058779
v -0.084173 0.438592 -0.058817
v -0.084102 0.438359 -0.058855
v -0.083214 0.438792 -0.057240
v -0.083276 0.439033 -0.057349
v -0.083086 0.438553 -0.057255
v -0.083255 0.439211 -0.057552
v -0.082926 0.438381 -0.057389
v -0.083157 0.439278 -0.057796
v -0.082778 0.438320 -0.057608
v -0.083008 0.439217 -0.058014
v -0.082680 0.438387 -0.057851
v -0.082848 0.439045 -0.058149
v -0.082659 0.438565 -0.058055
v -0.082720 0.438806 -0.058164
v -0.082120 0.439879 -0.056671
v -0.081993 0.439659 -0.056521
v -0.082141 0.440042 -0.056917
v -0.081796 0.439441 -0.056505
v -0.082051 0.440104 -0.057191
v -0.081579 0.439282 -0.056629
v -0.081874 0.440048 -0.057421
v -0.081403 0.439226 -0.056859
v -0.081658 0.439890 -0.057545
v -0.081313 0.439288 -0.057133
v -0.081460 0.439671 -0.057529
v -0.081334 0.439451 -0.057378
v -0.081055 0.441274 -0.056059
v -0.081116 0.441403 -0.056344
v -0.080869 0.441097 -0.055870
v -0.081034 0.441451 -0.056649
v -0.080606 0.440920 -0.055827
v -0.080833 0.441403 -0.056892
v -0.080339 0.440790 -0.055943
v -0.080565 0.441274 -0.057008
v -0.080137 0.440743 -0.056186
v -0.080303 0.441097 -0.056966
v -0.080056 0.440790 -0.056491
v -0.080116 0.440920 -0.056776
v -0.073811 0.435408 -0.061917
v -0.072679 0.435778 -0.062317
v -0.073806 0.435627 -0.061856
v -0.073773 0.435189 -0.061869
v -0.072668 0.435569 -0.062383
v -0.072641 0.435931 -0.062165
v -0.073758 0.435788 -0.061702
v -0.073701 0.435029 -0.061725
v -0.072611 0.435360 -0.062345
v -0.072565 0.435988 -0.061967
v -0.073680 0.435846 -0.061497
v -0.073614 0.434970 -0.061523
v -0.072524 0.435208 -0.062213
v -0.072471 0.435933 -0.061777
v -0.073594 0.435788 -0.061294
v -0.073537 0.435029 -0.061317
v -0.072430 0.435153 -0.062023
v -0.072384 0.435781 -0.061645
v -0.073522 0.435627 -0.061150
v -0.073489 0.435189 -0.061163
v -0.072353 0.435210 -0.061825
v -0.072327 0.435572 -0.061607
v -0.073483 0.435408 -0.061102
v -0.072316 0.435363 -0.061673
v -0.071574 0.436038 -0.062810
v -0.071545 0.436184 -0.062660
v -0.071550 0.435840 -0.062880
v -0.071470 0.436239 -0.062470
v -0.071479 0.435643 -0.062851
v -0.071370 0.436188 -0.062290
v -0.071380 0.435499 -0.062730
v -0.071272 0.436045 -0.062170
v -0.071280 0.435448 -0.062551
v -0.071201 0.435848 -0.062141
v -0.071206 0.435503 -0.062360
v -0.071177 0.435650 -0.062210
v -0.070487 0.436393 -0.063329
v -0.070465 0.436532 -0.063182
v -0.070453 0.436206 -0.063402
v -0.070392 0.436585 -0.062999
v -0.070372 0.436020 -0.063380
v -0.070289 0.436538 -0.062830
v -0.070266 0.435886 -0.063269
v -0.070183 0.436404 -0.062720
v -0.070163 0.435839 -0.063100
v -0.070102 0.436219 -0.062698
v -0.070091 0.435892 -0.062917
v -0.070069 0.436031 -0.062770
v -0.069399 0.436960 -0.063726
v -0.069416 0.436828 -0.063870
v -0.069329 0.437011 -0.063550
v -0.069376 0.436652 -0.063943
v -0.069225 0.436968 -0.063390
v -0.069289 0.436477 -0.063927
v -0.069115 0.436843 -0.063288
v -0.069178 0.436352 -0.063825
v -0.069028 0.436668 -0.063272
v -0.069074 0.436309 -0.063665
v -0.068988 0.436492 -0.063346
v -0.069005 0.436360 -0.063490
v -0.068346 0.437453 -0.064285
v -0.068359 0.437328 -0.064425
v -0.068279 0.437502 -0.064117
v -0.068315 0.437161 -0.064499
v -0.068176 0.437463 -0.063965
v -0.068225 0.436997 -0.064487
v -0.068064 0.437345 -0.063871
v -0.068113 0.436880 -0.064392
v -0.067974 0.437181 -0.063859
v -0.068010 0.436840 -0.064241
v -0.067930 0.437014 -0.063933
v -0.067943 0.436889 -0.064072
v -0.067304 0.437995 -0.064855
v -0.067314 0.437877 -0.064990
v -0.067240 0.438043 -0.064694
v -0.067268 0.437720 -0.065063
v -0.067139 0.438006 -0.064549
v -0.067177 0.437565 -0.065054
v -0.067028 0.437895 -0.064461
v -0.067066 0.437454 -0.064965
v -0.066937 0.437740 -0.064452
v -0.066965 0.437418 -0.064821
v -0.066891 0.437583 -0.064525
v -0.066901 0.437465 -0.064660
v -0.066271 0.438572 -0.065428
v -0.066279 0.438460 -0.065558
v -0.066210 0.438616 -0.065274
v -0.066231 0.438310 -0.065629
v -0.066112 0.438582 -0.065137
v -0.066142 0.438164 -0.065622
v -0.066004 0.438477 -0.065053
v -0.066034 0.438059 -0.065539
v -0.065914 0.438331 -0.065046
v -0.065936 0.438025 -0.065402
v -0.065867 0.438182 -0.065117
v -0.065875 0.438070 -0.065247
v -0.065243 0.439166 -0.066000
v -0.065249 0.439059 -0.066124
v -0.065185 0.439208 -0.065852
v -0.065203 0.438918 -0.066193
v -0.065092 0.439175 -0.065721
v -0.065117 0.438779 -0.066186
v -0.064988 0.439076 -0.065642
v -0.065013 0.438679 -0.066107
v -0.064902 0.438937 -0.065636
v -0.064920 0.438646 -0.065976
v -0.064856 0.438795 -0.065704
v -0.064862 0.438689 -0.065829
v -0.064218 0.439761 -0.066563
v -0.064224 0.439661 -0.066682
v -0.064164 0.439801 -0.066422
v -0.064180 0.439526 -0.066747
v -0.064076 0.439770 -0.066297
v -0.064098 0.439393 -0.066741
v -0.063978 0.439675 -0.066222
v -0.064000 0.439298 -0.066665
v -0.063896 0.439542 -0.066215
v -0.063913 0.439266 -0.066540
v -0.063853 0.439407 -0.066280
v -0.063859 0.439306 -0.066399
v -0.063194 0.440343 -0.067113
v -0.063200 0.440247 -0.067225
v -0.063144 0.440380 -0.066979
v -0.063160 0.440118 -0.067287
v -0.063062 0.440349 -0.066859
v -0.063084 0.439991 -0.067280
v -0.062971 0.440258 -0.066786
v -0.062993 0.439900 -0.067207
v -0.062895 0.440131 -0.066779
v -0.062911 0.439869 -0.067087
v -0.062855 0.440002 -0.066840
v -0.062860 0.439906 -0.066953
v -0.062168 0.440894 -0.067643
v -0.062174 0.440803 -0.067749
v -0.062121 0.440929 -0.067515
v -0.062138 0.440680 -0.067806
v -0.062046 0.440898 -0.067401
v -0.062069 0.440558 -0.067798
v -0.061963 0.440810 -0.067330
v -0.061987 0.440470 -0.067727
v -0.061895 0.440688 -0.067322
v -0.061912 0.440439 -0.067613
v -0.061859 0.440565 -0.067379
v -0.061865 0.440474 -0.067485
v -0.061133 0.441400 -0.068149
v -0.061142 0.441312 -0.068248
v -0.061089 0.441433 -0.068029
v -0.061114 0.441194 -0.068299
v -0.061022 0.441402 -0.067919
v -0.061055 0.441076 -0.068288
v -0.060950 0.441316 -0.067850
v -0.060983 0.440990 -0.068218
v -0.060891 0.441198 -0.067839
v -0.060915 0.440959 -0.068109
v -0.060863 0.441079 -0.067890
v -0.060871 0.440992 -0.067988
v -0.060083 0.441802 -0.068644
v -0.060097 0.441718 -0.068734
v -0.060040 0.441833 -0.068531
v -0.060079 0.441603 -0.068777
v -0.059981 0.441803 -0.068426
v -0.060034 0.441488 -0.068762
v -0.059920 0.441719 -0.068357
v -0.059974 0.441404 -0.068693
v -0.059875 0.441605 -0.068343
v -0.059914 0.441374 -0.068588
v -0.059857 0.441490 -0.068386
v -0.059871 0.441405 -0.068476
v -0.059046 0.441994 -0.069208
v -0.059028 0.442075 -0.069126
v -0.059038 0.441884 -0.069245
v -0.058987 0.442104 -0.069022
v -0.059005 0.441774 -0.069227
v -0.058935 0.442075 -0.068922
v -0.058956 0.441694 -0.069159
v -0.058886 0.441994 -0.068854
v -0.058904 0.441664 -0.069059
v -0.058853 0.441884 -0.068836
v -0.058863 0.441694 -0.068954
v -0.058844 0.441774 -0.068872
v -0.058008 0.442176 -0.069651
v -0.058005 0.442072 -0.069683
v -0.057988 0.442251 -0.069576
v -0.057951 0.442279 -0.069477
v -0.057981 0.441969 -0.069663
v -0.057907 0.442250 -0.069383
v -0.057941 0.441892 -0.069597
v -0.057867 0.442174 -0.069316
v -0.057897 0.441864 -0.069502
v -0.057843 0.442071 -0.069297
v -0.057860 0.441892 -0.069404
v -0.057840 0.441967 -0.069329
v -0.056997 0.442297 -0.070041
v -0.056996 0.442201 -0.070070
v -0.056979 0.442367 -0.069971
v -0.056978 0.442104 -0.070050
v -0.056948 0.442392 -0.069879
v -0.056946 0.442033 -0.069987
v -0.056911 0.442365 -0.069789
v -0.056909 0.442006 -0.069897
v -0.056880 0.442294 -0.069726
v -0.056878 0.442031 -0.069805
v -0.056861 0.442197 -0.069706
v -0.056860 0.442101 -0.069735
v -0.056031 0.442393 -0.070358
v -0.056028 0.442305 -0.070385
v -0.056018 0.442457 -0.070292
v -0.056012 0.442216 -0.070367
v -0.055994 0.442479 -0.070206
v -0.055987 0.442150 -0.070307
v -0.055966 0.442454 -0.070122
v -0.055958 0.442124 -0.070223
v -0.055940 0.442388 -0.070062
v -0.055935 0.442147 -0.070136
v -0.055924 0.442299 -0.070043
v -0.055922 0.442211 -0.070071
v -0.055117 0.442418 -0.070609
v -0.055101 0.442336 -0.070592
v -0.055125 0.442498 -0.070583
v -0.055121 0.442555 -0.070521
v -0.055107 0.442574 -0.070439
v -0.055080 0.442276 -0.070537
v -0.055087 0.442551 -0.070361
v -0.055060 0.442252 -0.070458
v -0.055066 0.442490 -0.070306
v -0.055047 0.442271 -0.070377
v -0.055050 0.442408 -0.070289
v -0.055043 0.442328 -0.070315
v -0.054279 0.442575 -0.070719
v -0.054260 0.442502 -0.070704
v -0.054295 0.442645 -0.070693
v -0.054304 0.442695 -0.070636
v -0.054303 0.442710 -0.070561
v -0.054292 0.442687 -0.070488
v -0.054243 0.442447 -0.070654
v -0.054275 0.442632 -0.070438
v -0.054232 0.442424 -0.070582
v -0.054230 0.442439 -0.070507
v -0.054239 0.442488 -0.070449
v -0.054255 0.442559 -0.070424
v -0.053584 0.442909 -0.070619
v -0.053560 0.442870 -0.070670
v -0.053597 0.442918 -0.070552
v -0.053595 0.442895 -0.070488
v -0.053580 0.442845 -0.070443
v -0.053532 0.442812 -0.070692
v -0.053554 0.442783 -0.070429
v -0.053507 0.442749 -0.070679
v -0.053526 0.442724 -0.070452
v -0.053492 0.442700 -0.070634
v -0.053490 0.442676 -0.070570
v -0.053503 0.442685 -0.070503
v -0.052990 0.443164 -0.070301
v -0.052959 0.443113 -0.070287
v -0.053005 0.443207 -0.070341
v -0.052999 0.443232 -0.070396
v -0.052974 0.443232 -0.070452
v -0.052920 0.443070 -0.070303
v -0.052937 0.443207 -0.070493
v -0.052883 0.443044 -0.070344
v -0.052858 0.443044 -0.070399
v -0.052897 0.443163 -0.070508
v -0.052866 0.443113 -0.070494
v -0.052852 0.443069 -0.070454
v -0.052513 0.443626 -0.069991
v -0.052479 0.443589 -0.069974
v -0.052526 0.443663 -0.070026
v -0.052517 0.443689 -0.070071
v -0.052486 0.443698 -0.070113
v -0.052435 0.443561 -0.069981
v -0.052443 0.443687 -0.070141
v -0.052392 0.443550 -0.070009
v -0.052399 0.443659 -0.070148
v -0.052361 0.443558 -0.070051
v -0.052352 0.443585 -0.070096
v -0.052365 0.443621 -0.070131
v -0.052163 0.444275 -0.069483
v -0.052132 0.444248 -0.069465
v -0.052175 0.444305 -0.069514
v -0.052165 0.444330 -0.069550
v -0.052090 0.444232 -0.069465
v -0.052135 0.444344 -0.069580
v -0.052048 0.444231 -0.069482
v -0.052094 0.444343 -0.069597
v -0.052018 0.444246 -0.069512
v -0.052052 0.444328 -0.069597
v -0.052008 0.444271 -0.069548
v -0.052021 0.444301 -0.069579
v -0.051964 0.445144 -0.068756
v -0.051937 0.445126 -0.068738
v -0.051974 0.445168 -0.068782
v -0.051965 0.445191 -0.068810
v -0.051901 0.445118 -0.068733
v -0.051940 0.445207 -0.068831
v -0.051866 0.445122 -0.068743
v -0.051904 0.445211 -0.068841
v -0.051841 0.445138 -0.068764
v -0.051869 0.445203 -0.068836
v -0.051832 0.445161 -0.068792
v -0.051842 0.445185 -0.068818
v -0.079669 0.437769 -0.057967
v -0.078227 0.436825 -0.059579
v -0.079602 0.438073 -0.058225
v -0.079553 0.437546 -0.057649
v -0.078260 0.436514 -0.059370
v -0.078059 0.437155 -0.059648
v -0.079368 0.438377 -0.058356
v -0.079284 0.437465 -0.057357
v -0.078149 0.436305 -0.059077
v -0.077802 0.437415 -0.059560
v -0.079031 0.438599 -0.058323
v -0.078934 0.437546 -0.057170
v -0.077925 0.436254 -0.058780
v -0.077524 0.437535 -0.059337
v -0.078682 0.438681 -0.058136
v -0.078598 0.437769 -0.057137
v -0.077647 0.436374 -0.058557
v -0.077299 0.437484 -0.059039
v -0.078413 0.438599 -0.057845
v -0.078364 0.438073 -0.057268
v -0.077389 0.436634 -0.058468
v -0.077189 0.437275 -0.058747
v -0.078296 0.438377 -0.057527
v -0.077222 0.436964 -0.058538
v -0.076475 0.435966 -0.060812
v -0.076479 0.435665 -0.060638
v -0.076365 0.436295 -0.060841
v -0.076379 0.435473 -0.060367
v -0.076181 0.436563 -0.060719
v -0.076199 0.435440 -0.060071
v -0.075971 0.436699 -0.060478
v -0.075989 0.435576 -0.059830
v -0.075792 0.436666 -0.060182
v -0.075805 0.435845 -0.059708
v -0.075691 0.436474 -0.059911
v -0.075696 0.436173 -0.059738
v -0.074418 0.435382 -0.061917
v -0.074408 0.435102 -0.061765
v -0.074348 0.435693 -0.061927
v -0.074322 0.434927 -0.061513
v -0.074218 0.435951 -0.061792
v -0.074182 0.434905 -0.061227
v -0.074063 0.436087 -0.061550
v -0.074027 0.435041 -0.060985
v -0.073923 0.436065 -0.061264
v -0.073897 0.435299 -0.060851
v -0.073837 0.435891 -0.061012
v -0.073827 0.435610 -0.060860
v -0.072115 0.434959 -0.062895
v -0.072104 0.434703 -0.062758
v -0.072067 0.435245 -0.062897
v -0.071972 0.435484 -0.062764
v -0.072036 0.434546 -0.062524
v -0.071855 0.435613 -0.062532
v -0.071929 0.434530 -0.062255
v -0.071749 0.435597 -0.062263
v -0.071812 0.434659 -0.062023
v -0.071680 0.435441 -0.062029
v -0.071717 0.434899 -0.061890
v -0.071669 0.435185 -0.061892
v -0.069619 0.434587 -0.063746
v -0.069578 0.434846 -0.063747
v -0.069615 0.434358 -0.063621
v -0.069503 0.435063 -0.063624
v -0.069566 0.434219 -0.063405
v -0.069413 0.435182 -0.063409
v -0.069486 0.434207 -0.063157
v -0.069333 0.435170 -0.063161
v -0.069397 0.434326 -0.062942
v -0.069284 0.435031 -0.062945
v -0.069321 0.434544 -0.062819
v -0.069280 0.434802 -0.062820
v -0.066982 0.434163 -0.064468
v -0.066990 0.433961 -0.064353
v -0.066939 0.434392 -0.064471
v -0.066872 0.434586 -0.064361
v -0.066962 0.433840 -0.064157
v -0.066800 0.434693 -0.064168
v -0.066903 0.433832 -0.063932
v -0.066742 0.434685 -0.063943
v -0.066831 0.433939 -0.063738
v -0.066765 0.434133 -0.063628
v -0.066713 0.434563 -0.063746
v -0.066722 0.434361 -0.063631
v -0.064256 0.433583 -0.065057
v -0.064279 0.433410 -0.064952
v -0.064205 0.433780 -0.065063
v -0.064270 0.433307 -0.064777
v -0.064140 0.433949 -0.064968
v -0.064229 0.433302 -0.064577
v -0.064080 0.434043 -0.064798
v -0.064168 0.433397 -0.064407
v -0.064039 0.434038 -0.064598
v -0.064104 0.433565 -0.064312
v -0.064029 0.433936 -0.064422
v -0.064053 0.433762 -0.064318
v -0.061533 0.432601 -0.065414
v -0.061540 0.432518 -0.065261
v -0.061494 0.432744 -0.065508
v -0.061433 0.432908 -0.065516
v -0.061513 0.432517 -0.065088
v -0.061368 0.433050 -0.065436
v -0.061460 0.432597 -0.064942
v -0.061314 0.433131 -0.065290
v -0.061394 0.432739 -0.064862
v -0.061287 0.433129 -0.065117
v -0.061333 0.432903 -0.064870
v -0.061295 0.433046 -0.064963
v -0.058801 0.431434 -0.065734
v -0.058821 0.431371 -0.065604
v -0.058750 0.431545 -0.065815
v -0.058804 0.431372 -0.065458
v -0.058682 0.431675 -0.065823
v -0.058756 0.431438 -0.065337
v -0.058615 0.431787 -0.065759
v -0.058689 0.431551 -0.065272
v -0.058567 0.431853 -0.065637
v -0.058621 0.431680 -0.065281
v -0.058551 0.431855 -0.065492
v -0.058570 0.431792 -0.065361
v -0.056162 0.429761 -0.065800
v -0.056134 0.429805 -0.065905
v -0.056153 0.429765 -0.065683
v -0.056078 0.429884 -0.065971
v -0.056110 0.429815 -0.065585
v -0.056008 0.429978 -0.065980
v -0.056045 0.429898 -0.065534
v -0.055943 0.430062 -0.065928
v -0.055975 0.429993 -0.065542
v -0.055900 0.430112 -0.065831
v -0.055919 0.430072 -0.065608
v -0.055891 0.430116 -0.065714
v -0.053614 0.427581 -0.065842
v -0.053586 0.427607 -0.065922
v -0.053610 0.427586 -0.065753
v -0.053533 0.427658 -0.065972
v -0.053574 0.427621 -0.065680
v -0.053469 0.427719 -0.065979
v -0.053516 0.427677 -0.065641
v -0.053411 0.427775 -0.065940
v -0.053452 0.427738 -0.065648
v -0.053375 0.427810 -0.065867
v -0.053399 0.427788 -0.065698
v -0.053371 0.427815 -0.065778
v -0.051233 0.424724 -0.065722
v -0.051210 0.424737 -0.065776
v -0.051231 0.424729 -0.065662
v -0.051168 0.424763 -0.065809
v -0.051205 0.424750 -0.065612
v -0.051118 0.424797 -0.065814
v -0.051161 0.424781 -0.065586
v -0.051074 0.424829 -0.065787
v -0.051111 0.424815 -0.065590
v -0.051048 0.424850 -0.065738
v -0.051069 0.424842 -0.065624
v -0.051046 0.424855 -0.065678
v -0.099003 0.443293 -0.066373
v -0.099686 0.444579 -0.066732
v -0.099692 0.444582 -0.066710
v -0.098980 0.443299 -0.066399
v -0.099671 0.444582 -0.066749
v -0.099012 0.443298 -0.066340
v -0.099687 0.444589 -0.066689
v -0.099007 0.443313 -0.066309
v -0.099673 0.444600 -0.066675
v -0.098951 0.443313 -0.066411
v -0.099651 0.444590 -0.066756
v -0.098988 0.443333 -0.066288
v -0.099653 0.444610 -0.066671
v -0.098924 0.443333 -0.066406
v -0.099631 0.444600 -0.066752
v -0.098960 0.443353 -0.066283
v -0.099633 0.444618 -0.066678
v -0.098904 0.443353 -0.066385
v -0.099617 0.444611 -0.066738
v -0.098931 0.443367 -0.066295
v -0.099618 0.444620 -0.066695
v -0.098899 0.443368 -0.066354
v -0.099612 0.444618 -0.066717
v -0.098908 0.443373 -0.066321
v -0.098267 0.442295 -0.065970
v -0.098238 0.442304 -0.066005
v -0.098281 0.442304 -0.065926
v -0.098277 0.442328 -0.065887
v -0.098202 0.442327 -0.066023
v -0.098256 0.442360 -0.065861
v -0.098169 0.442360 -0.066019
v -0.098222 0.442393 -0.065857
v -0.098147 0.442392 -0.065993
v -0.098187 0.442416 -0.065875
v -0.098143 0.442416 -0.065953
v -0.098157 0.442425 -0.065910
v -0.097494 0.441551 -0.065471
v -0.097474 0.441538 -0.065524
v -0.097494 0.441586 -0.065424
v -0.097439 0.441550 -0.065569
v -0.097474 0.441633 -0.065396
v -0.097399 0.441584 -0.065595
v -0.097439 0.441680 -0.065394
v -0.097364 0.441631 -0.065593
v -0.097399 0.441714 -0.065419
v -0.097344 0.441679 -0.065565
v -0.097364 0.441726 -0.065464
v -0.097344 0.441713 -0.065518
v -0.096650 0.440995 -0.064975
v -0.096623 0.440978 -0.065038
v -0.096657 0.441041 -0.064922
v -0.096583 0.440993 -0.065094
v -0.096641 0.441103 -0.064893
v -0.096540 0.441038 -0.065127
v -0.096607 0.441165 -0.064896
v -0.096507 0.441100 -0.065130
v -0.096564 0.441210 -0.064929
v -0.096491 0.441162 -0.065101
v -0.096524 0.441225 -0.064985
v -0.096497 0.441208 -0.065048
v -0.095749 0.440588 -0.064443
v -0.095715 0.440567 -0.064515
v -0.095763 0.440644 -0.064385
v -0.095752 0.440721 -0.064355
v -0.095670 0.440586 -0.064582
v -0.095721 0.440796 -0.064363
v -0.095626 0.440641 -0.064624
v -0.095676 0.440851 -0.064405
v -0.095594 0.440717 -0.064632
v -0.095631 0.440871 -0.064472
v -0.095584 0.440793 -0.064602
v -0.095597 0.440850 -0.064544
v -0.094791 0.440283 -0.063878
v -0.094811 0.440349 -0.063814
v -0.094751 0.440258 -0.063960
v -0.094701 0.440281 -0.064037
v -0.094805 0.440438 -0.063784
v -0.094775 0.440527 -0.063796
v -0.094655 0.440345 -0.064088
v -0.094729 0.440591 -0.063847
v -0.094625 0.440434 -0.064100
v -0.094679 0.440614 -0.063924
v -0.094619 0.440523 -0.064070
v -0.094639 0.440589 -0.064005
v -0.093801 0.440105 -0.063212
v -0.093777 0.440030 -0.063284
v -0.093797 0.440206 -0.063180
v -0.093731 0.440002 -0.063375
v -0.093766 0.440307 -0.063195
v -0.093675 0.440028 -0.063463
v -0.093717 0.440380 -0.063254
v -0.093626 0.440101 -0.063522
v -0.093661 0.440406 -0.063341
v -0.093595 0.440202 -0.063537
v -0.093615 0.440377 -0.063433
v -0.093591 0.440303 -0.063505
v -0.092730 0.439864 -0.062582
v -0.092704 0.439781 -0.062662
v -0.092726 0.439977 -0.062546
v -0.092653 0.439750 -0.062764
v -0.092691 0.440089 -0.062562
v -0.092592 0.439779 -0.062861
v -0.092635 0.440170 -0.062628
v -0.092537 0.439860 -0.062927
v -0.092574 0.440199 -0.062725
v -0.092502 0.439972 -0.062944
v -0.092524 0.440167 -0.062827
v -0.092497 0.440084 -0.062908
v -0.091597 0.439578 -0.061925
v -0.091571 0.439488 -0.062015
v -0.091587 0.439701 -0.061882
v -0.091518 0.439454 -0.062129
v -0.091545 0.439823 -0.061899
v -0.091450 0.439486 -0.062235
v -0.091481 0.439912 -0.061970
v -0.091386 0.439574 -0.062306
v -0.091414 0.439943 -0.062076
v -0.091344 0.439697 -0.062323
v -0.091360 0.439910 -0.062190
v -0.091334 0.439819 -0.062280
v -0.090398 0.439199 -0.061243
v -0.090376 0.439102 -0.061345
v -0.090379 0.439330 -0.061192
v -0.090320 0.439066 -0.061471
v -0.090326 0.439461 -0.061206
v -0.090245 0.439100 -0.061586
v -0.090251 0.439557 -0.061281
v -0.090171 0.439196 -0.061661
v -0.090176 0.439591 -0.061397
v -0.090118 0.439327 -0.061675
v -0.090121 0.439555 -0.061522
v -0.090099 0.439458 -0.061624
v -0.089115 0.438576 -0.060652
v -0.089130 0.438678 -0.060537
v -0.089058 0.438539 -0.060791
v -0.089099 0.438816 -0.060477
v -0.088975 0.438575 -0.060915
v -0.089031 0.438954 -0.060486
v -0.088888 0.438676 -0.060993
v -0.088944 0.439054 -0.060564
v -0.088820 0.438814 -0.061002
v -0.088861 0.439091 -0.060688
v -0.088789 0.438952 -0.060942
v -0.088804 0.439053 -0.060827
v -0.087784 0.437863 -0.059939
v -0.087727 0.437824 -0.060090
v -0.087790 0.437967 -0.059810
v -0.087744 0.438109 -0.059737
v -0.087636 0.437863 -0.060223
v -0.087659 0.438252 -0.059742
v -0.087534 0.437967 -0.060302
v -0.087557 0.438356 -0.059821
v -0.087448 0.438109 -0.060307
v -0.087466 0.438394 -0.059954
v -0.087403 0.438252 -0.060234
v -0.087409 0.438356 -0.060105
usemtl Sural_vein_rMaterial0
f 1 2 3
f 4 3 5
f 1 3 4
f 6 7 2
f 6 2 1
f 8 5 9
f 4 5 8
f 10 11 7
f 10 7 6
f 12 13 11
f 12 11 10
f 14 9 15
f 8 9 14
f 16 17 13
f 16 13 12
f 18 15 19
f 14 15 18
f 20 19 21
f 18 19 20
f 22 23 17
f 22 17 16
f 24 21 23
f 20 21 24
f 24 23 22
f 25 1 4
f 26 4 8
f 25 4 26
f 27 6 1
f 27 1 25
f 28 10 6
f 28 6 27
f 29 8 14
f 26 8 29
f 30 12 10
f 30 10 28
f 31 14 18
f 29 14 31
f 32 16 12
f 32 12 30
f 33 18 20
f 31 18 33
f 34 22 16
f 34 16 32
f 35 20 24
f 33 20 35
f 36 24 22
f 35 24 36
f 36 22 34
f 37 27 25
f 38 28 27
f 38 27 37
f 39 25 26
f 37 25 39
f 40 26 29
f 39 26 40
f 41 29 31
f 40 29 41
f 42 30 28
f 42 28 38
f 43 31 33
f 41 31 43
f 44 32 30
f 44 30 42
f 45 33 35
f 43 33 45
f 46 34 32
f 46 32 44
f 47 36 34
f 47 34 46
f 48 35 36
f 48 36 47
f 45 35 48
f 49 37 39
f 50 39 40
f 49 39 50
f 51 38 37
f 51 37 49
f 52 40 41
f 50 40 52
f 53 42 38
f 53 38 51
f 54 41 43
f 52 41 54
f 55 44 42
f 55 42 53
f 56 43 45
f 54 43 56
f 57 46 44
f 57 44 55
f 58 45 48
f 56 45 58
f 59 47 46
f 59 46 57
f 60 48 47
f 60 47 59
f 58 48 60
f 61 49 50
f 62 51 49
f 62 49 61
f 63 50 52
f 61 50 63
f 64 53 51
f 64 51 62
f 65 52 54
f 63 52 65
f 66 55 53
f 66 53 64
f 67 54 56
f 65 54 67
f 68 57 55
f 68 55 66
f 69 56 58
f 67 56 69
f 70 59 57
f 70 57 68
f 71 58 60
f 69 58 71
f 72 60 59
f 72 59 70
f 71 60 72
f 73 62 61
f 74 64 62
f 74 62 73
f 75 61 63
f 73 61 75
f 76 63 65
f 75 63 76
f 77 66 64
f 77 64 74
f 78 65 67
f 76 65 78
f 79 68 66
f 79 66 77
f 80 67 69
f 78 67 80
f 81 70 68
f 81 68 79
f 82 69 71
f 80 69 82
f 83 72 70
f 83 70 81
f 84 71 72
f 84 72 83
f 82 71 84
f 85 73 75
f 86 74 73
f 86 73 85
f 87 75 76
f 85 75 87
f 88 77 74
f 88 74 86
f 89 76 78
f 87 76 89
f 90 79 77
f 90 77 88
f 91 78 80
f 89 78 91
f 92 81 79
f 92 79 90
f 93 80 82
f 91 80 93
f 94 83 81
f 94 81 92
f 95 82 84
f 93 82 95
f 96 84 83
f 96 83 94
f 95 84 96
f 97 86 85
f 98 85 87
f 97 85 98
f 99 88 86
f 99 86 97
f 100 87 89
f 98 87 100
f 101 89 91
f 100 89 101
f 102 90 88
f 102 88 99
f 103 91 93
f 101 91 103
f 104 92 90
f 104 90 102
f 105 93 95
f 103 93 105
f 106 94 92
f 106 92 104
f 107 96 94
f 107 94 106
f 108 95 96
f 105 95 108
f 108 96 107
f 109 98 100
f 110 97 98
f 110 98 109
f 111 100 101
f 109 100 111
f 112 99 97
f 112 97 110
f 113 101 103
f 111 101 113
f 114 102 99
f 114 99 112
f 115 103 105
f 113 103 115
f 116 104 102
f 116 102 114
f 117 105 108
f 115 105 117
f 118 106 104
f 118 104 116
f 119 108 107
f 117 108 119
f 120 107 106
f 120 106 118
f 119 107 120
f 121 109 111
f 122 111 113
f 121 111 122
f 123 110 109
f 123 109 121
f 124 113 115
f 122 113 124
f 125 112 110
f 125 110 123
f 126 115 117
f 124 115 126
f 127 114 112
f 127 112 125
f 128 117 119
f 126 117 128
f 129 116 114
f 129 114 127
f 130 119 120
f 128 119 130
f 131 118 116
f 131 116 129
f 132 120 118
f 130 120 132
f 132 118 131
f 133 122 124
f 134 121 122
f 134 122 133
f 135 124 126
f 133 124 135
f 136 123 121
f 136 121 134
f 137 126 128
f 135 126 137
f 138 125 123
f 138 123 136
f 139 128 130
f 137 128 139
f 140 127 125
f 140 125 138
f 141 130 132
f 139 130 141
f 142 129 127
f 142 127 140
f 143 132 131
f 141 132 143
f 144 131 129
f 144 129 142
f 143 131 144
f 145 133 135
f 146 135 137
f 145 135 146
f 147 134 133
f 147 133 145
f 148 137 139
f 146 137 148
f 149 136 134
f 149 134 147
f 150 139 141
f 148 139 150
f 151 138 136
f 151 136 149
f 152 141 143
f 150 141 152
f 153 140 138
f 153 138 151
f 154 143 144
f 152 143 154
f 155 142 140
f 155 140 153
f 156 144 142
f 154 144 156
f 156 142 155
f 157 158 159
f 160 161 157
f 157 161 158
f 159 162 163
f 159 158 162
f 164 165 160
f 160 165 161
f 163 166 167
f 163 162 166
f 168 169 164
f 164 169 165
f 167 170 171
f 167 166 170
f 172 173 168
f 168 173 169
f 171 174 175
f 171 170 174
f 176 177 172
f 172 177 173
f 175 178 179
f 175 174 178
f 179 180 176
f 176 180 177
f 179 178 180
f 161 181 158
f 158 182 162
f 158 181 182
f 165 183 161
f 161 183 181
f 162 184 166
f 162 182 184
f 169 185 165
f 165 185 183
f 166 186 170
f 166 184 186
f 173 187 169
f 169 187 185
f 170 188 174
f 170 186 188
f 177 189 173
f 173 189 187
f 174 190 178
f 174 188 190
f 180 191 177
f 177 191 189
f 178 192 180
f 178 190 192
f 180 192 191
f 183 193 181
f 181 194 182
f 181 193 194
f 185 195 183
f 183 195 193
f 182 196 184
f 182 194 196
f 187 197 185
f 185 197 195
f 184 198 186
f 184 196 198
f 189 199 187
f 187 199 197
f 186 200 188
f 186 198 200
f 191 201 189
f 189 201 199
f 188 202 190
f 188 200 202
f 192 203 191
f 191 203 201
f 190 204 192
f 190 202 204
f 192 204 203
f 193 205 194
f 195 206 193
f 193 206 205
f 194 207 196
f 194 205 207
f 197 208 195
f 195 208 206
f 196 209 198
f 196 207 209
f 199 210 197
f 197 210 208
f 198 211 200
f 198 209 211
f 201 212 199
f 199 212 210
f 200 213 202
f 200 211 213
f 203 214 201
f 201 214 212
f 202 215 204
f 202 213 215
f 204 216 203
f 203 216 214
f 204 215 216
f 206 217 205
f 208 218 206
f 206 218 217
f 205 219 207
f 205 217 219
f 210 220 208
f 208 220 218
f 207 221 209
f 207 219 221
f 212 222 210
f 210 222 220
f 209 223 211
f 209 221 223
f 214 224 212
f 212 224 222
f 211 225 213
f 211 223 225
f 216 226 214
f 214 226 224
f 213 227 215
f 213 225 227
f 215 228 216
f 216 228 226
f 215 227 228
f 218 229 217
f 220 230 218
f 218 230 229
f 217 231 219
f 217 229 231
f 222 232 220
f 220 232 230
f 219 233 221
f 219 231 233
f 224 234 222
f 222 234 232
f 221 235 223
f 221 233 235
f 226 236 224
f 224 236 234
f 223 237 225
f 223 235 237
f 228 238 226
f 226 238 236
f 225 239 227
f 225 237 239
f 227 240 228
f 228 240 238
f 227 239 240
f 230 241 229
f 232 242 230
f 230 242 241
f 229 243 231
f 229 241 243
f 234 244 232
f 232 244 242
f 231 245 233
f 231 243 245
f 236 246 234
f 234 246 244
f 233 247 235
f 233 245 247
f 238 248 236
f 236 248 246
f 235 249 237
f 235 247 249
f 240 250 238
f 238 250 248
f 237 251 239
f 237 249 251
f 239 252 240
f 240 252 250
f 239 251 252
f 242 253 241
f 244 254 242
f 242 254 253
f 241 255 243
f 241 253 255
f 246 256 244
f 244 256 254
f 243 257 245
f 243 255 257
f 248 258 246
f 246 258 256
f 245 259 247
f 245 257 259
f 250 260 248
f 248 260 258
f 247 261 249
f 247 259 261
f 252 262 250
f 250 262 260
f 249 263 251
f 249 261 263
f 251 264 252
f 252 264 262
f 251 263 264
f 254 265 253
f 256 266 254
f 254 266 265
f 253 267 255
f 253 265 267
f 258 268 256
f 256 268 266
f 255 269 257
f 255 267 269
f 260 270 258
f 258 270 268
f 257 271 259
f 257 269 271
f 262 272 260
f 260 272 270
f 259 273 261
f 259 271 273
f 264 274 262
f 262 274 272
f 261 275 263
f 261 273 275
f 263 276 264
f 264 276 274
f 263 275 276
f 266 277 265
f 268 278 266
f 266 278 277
f 265 279 267
f 265 277 279
f 270 280 268
f 268 280 278
f 267 281 269
f 267 279 281
f 272 282 270
f 270 282 280
f 269 283 271
f 269 281 283
f 274 284 272
f 272 284 282
f 271 285 273
f 271 283 285
f 276 286 274
f 274 286 284
f 273 287 275
f 273 285 287
f 275 288 276
f 276 288 286
f 275 287 288
f 278 289 277
f 280 290 278
f 278 290 289
f 277 291 279
f 277 289 291
f 282 292 280
f 280 292 290
f 279 293 281
f 279 291 293
f 284 294 282
f 282 294 292
f 281 295 283
f 281 293 295
f 286 296 284
f 284 296 294
f 283 297 285
f 283 295 297
f 288 298 286
f 286 298 296
f 285 299 287
f 285 297 299
f 287 300 288
f 288 300 298
f 287 299 300
f 290 301 289
f 292 302 290
f 290 302 301
f 289 303 291
f 289 301 303
f 294 304 292
f 292 304 302
f 291 305 293
f 291 303 305
f 296 306 294
f 294 306 304
f 293 307 295
f 293 305 307
f 298 308 296
f 296 308 306
f 295 309 297
f 295 307 309
f 300 310 298
f 298 310 308
f 297 311 299
f 297 309 311
f 299 312 300
f 300 312 310
f 299 311 312
f 302 313 301
f 304 314 302
f 302 314 313
f 301 315 303
f 301 313 315
f 306 316 304
f 304 316 314
f 303 317 305
f 303 315 317
f 308 318 306
f 306 318 316
f 305 319 307
f 305 317 319
f 310 320 308
f 308 320 318
f 307 321 309
f 307 319 321
f 312 322 310
f 310 322 320
f 309 323 311
f 309 321 323
f 311 324 312
f 312 324 322
f 311 323 324
f 316 325 314
f 314 326 313
f 314 325 326
f 318 327 316
f 316 327 325
f 313 328 315
f 313 326 328
f 320 329 318
f 318 329 327
f 315 330 317
f 315 328 330
f 322 331 320
f 320 331 329
f 317 332 319
f 317 330 332
f 324 333 322
f 322 333 331
f 319 334 321
f 319 332 334
f 323 335 324
f 324 335 333
f 321 336 323
f 321 334 336
f 323 336 335
f 327 337 325
f 329 338 327
f 327 338 337
f 325 339 326
f 325 337 339
f 326 340 328
f 326 339 340
f 331 341 329
f 329 341 338
f 328 342 330
f 328 340 342
f 333 343 331
f 331 343 341
f 330 344 332
f 330 342 344
f 335 345 333
f 333 345 343
f 332 346 334
f 332 344 346
f 336 347 335
f 335 347 345
f 334 348 336
f 336 348 347
f 334 346 348
f 338 349 337
f 341 350 338
f 338 350 349
f 337 351 339
f 337 349 351
f 343 352 341
f 341 352 350
f 339 353 340
f 339 351 353
f 345 354 343
f 343 354 352
f 340 355 342
f 340 353 355
f 347 356 345
f 345 356 354
f 342 357 344
f 342 355 357
f 348 358 347
f 347 358 356
f 344 359 346
f 344 357 359
f 346 360 348
f 348 360 358
f 346 359 360
f 350 361 349
f 352 362 350
f 350 362 361
f 349 363 351
f 349 361 363
f 354 364 352
f 352 364 362
f 351 365 353
f 351 363 365
f 356 366 354
f 354 366 364
f 353 367 355
f 353 365 367
f 358 368 356
f 356 368 366
f 355 369 357
f 355 367 369
f 360 370 358
f 358 370 368
f 357 371 359
f 357 369 371
f 359 372 360
f 360 372 370
f 359 371 372
f 364 373 362
f 366 374 364
f 364 374 373
f 362 375 361
f 362 373 375
f 361 376 363
f 361 375 376
f 363 377 365
f 363 376 377
f 368 378 366
f 366 378 374
f 365 379 367
f 365 377 379
f 370 380 368
f 368 380 378
f 367 381 369
f 367 379 381
f 372 382 370
f 370 382 380
f 369 383 371
f 369 381 383
f 371 384 372
f 372 384 382
f 371 383 384
f 374 385 373
f 378 386 374
f 374 386 385
f 373 387 375
f 373 385 387
f 375 388 376
f 375 387 388
f 376 389 377
f 376 388 389
f 377 390 379
f 377 389 390
f 380 391 378
f 378 391 386
f 379 392 381
f 379 390 392
f 382 393 380
f 380 393 391
f 384 394 382
f 382 394 393
f 383 395 384
f 384 395 394
f 381 396 383
f 383 396 395
f 381 392 396
f 387 397 388
f 385 398 387
f 387 398 397
f 388 399 389
f 388 397 399
f 389 400 390
f 390 401 392
f 390 400 401
f 389 399 400
f 386 402 385
f 385 402 398
f 392 403 396
f 392 401 403
f 391 404 386
f 386 404 402
f 396 405 395
f 396 403 405
f 393 406 391
f 394 407 393
f 393 407 406
f 391 406 404
f 395 408 394
f 394 408 407
f 395 405 408
f 400 409 401
f 401 410 403
f 401 409 410
f 399 411 400
f 400 411 409
f 397 412 399
f 398 413 397
f 397 413 412
f 399 412 411
f 403 414 405
f 403 410 414
f 402 415 398
f 398 415 413
f 405 416 408
f 408 417 407
f 408 416 417
f 405 414 416
f 404 418 402
f 406 419 404
f 404 419 418
f 402 418 415
f 407 420 406
f 407 417 420
f 406 420 419
f 411 421 409
f 409 422 410
f 409 421 422
f 412 423 411
f 411 423 421
f 413 424 412
f 412 424 423
f 415 425 413
f 413 425 424
f 410 426 414
f 410 422 426
f 418 427 415
f 415 427 425
f 414 428 416
f 414 426 428
f 419 429 418
f 418 429 427
f 416 430 417
f 416 428 430
f 417 431 420
f 417 430 431
f 420 432 419
f 420 431 432
f 419 432 429
f 423 433 421
f 421 434 422
f 421 433 434
f 424 435 423
f 423 435 433
f 425 436 424
f 424 436 435
f 422 437 426
f 422 434 437
f 427 438 425
f 425 438 436
f 426 439 428
f 426 437 439
f 429 440 427
f 427 440 438
f 428 441 430
f 428 439 441
f 432 442 429
f 429 442 440
f 430 443 431
f 430 441 443
f 431 444 432
f 431 443 444
f 432 444 442
f 435 445 433
f 433 446 434
f 433 445 446
f 436 447 435
f 435 447 445
f 438 448 436
f 436 448 447
f 434 449 437
f 434 446 449
f 440 450 438
f 438 450 448
f 437 451 439
f 437 449 451
f 442 452 440
f 440 452 450
f 439 453 441
f 439 451 453
f 444 454 442
f 442 454 452
f 441 455 443
f 441 453 455
f 443 456 444
f 443 455 456
f 444 456 454
f 457 458 459
f 460 461 457
f 457 461 458
f 459 462 463
f 459 458 462
f 464 465 460
f 460 465 461
f 463 466 467
f 463 462 466
f 468 469 464
f 464 469 465
f 467 470 471
f 467 466 470
f 472 473 468
f 468 473 469
f 471 474 475
f 471 470 474
f 476 477 472
f 472 477 473
f 475 478 479
f 475 474 478
f 479 480 476
f 476 480 477
f 479 478 480
f 461 481 458
f 465 482 461
f 461 482 481
f 458 483 462
f 458 481 483
f 469 484 465
f 465 484 482
f 462 485 466
f 462 483 485
f 473 486 469
f 469 486 484
f 466 487 470
f 466 485 487
f 477 488 473
f 473 488 486
f 470 489 474
f 470 487 489
f 480 490 477
f 477 490 488
f 474 491 478
f 474 489 491
f 478 492 480
f 480 492 490
f 478 491 492
f 482 493 481
f 484 494 482
f 482 494 493
f 481 495 483
f 481 493 495
f 486 496 484
f 484 496 494
f 483 497 485
f 483 495 497
f 488 498 486
f 486 498 496
f 485 499 487
f 485 497 499
f 490 500 488
f 488 500 498
f 487 501 489
f 487 499 501
f 492 502 490
f 490 502 500
f 489 503 491
f 489 501 503
f 491 504 492
f 492 504 502
f 491 503 504
f 494 505 493
f 496 506 494
f 494 506 505
f 493 507 495
f 493 505 507
f 495 508 497
f 495 507 508
f 498 509 496
f 496 509 506
f 497 510 499
f 497 508 510
f 500 511 498
f 498 511 509
f 499 512 501
f 499 510 512
f 502 513 500
f 500 513 511
f 501 514 503
f 501 512 514
f 504 515 502
f 502 515 513
f 503 516 504
f 504 516 515
f 503 514 516
f 506 517 505
f 505 518 507
f 505 517 518
f 509 519 506
f 506 519 517
f 507 520 508
f 507 518 520
f 511 521 509
f 509 521 519
f 508 522 510
f 508 520 522
f 513 523 511
f 511 523 521
f 510 524 512
f 510 522 524
f 515 525 513
f 513 525 523
f 512 526 514
f 512 524 526
f 516 527 515
f 515 527 525
f 514 528 516
f 514 526 528
f 516 528 527
f 519 529 517
f 521 530 519
f 519 530 529
f 517 531 518
f 517 529 531
f 518 532 520
f 518 531 532
f 523 533 521
f 521 533 530
f 520 534 522
f 520 532 534
f 525 535 523
f 523 535 533
f 522 536 524
f 522 534 536
f 527 537 525
f 525 537 535
f 528 538 527
f 527 538 537
f 524 539 526
f 524 536 539
f 526 540 528
f 528 540 538
f 526 539 540
f 530 541 529
f 533 542 530
f 530 542 541
f 529 543 531
f 529 541 543
f 535 544 533
f 533 544 542
f 531 545 532
f 531 543 545
f 537 546 535
f 535 546 544
f 532 547 534
f 532 545 547
f 538 548 537
f 537 548 546
f 534 549 536
f 534 547 549
f 540 550 538
f 538 550 548
f 536 551 539
f 536 549 551
f 539 552 540
f 540 552 550
f 539 551 552
f 544 553 542
f 546 554 544
f 544 554 553
f 542 555 541
f 542 553 555
f 541 556 543
f 541 555 556
f 548 557 546
f 546 557 554
f 543 558 545
f 543 556 558
f 550 559 548
f 548 559 557
f 545 560 547
f 545 558 560
f 552 561 550
f 550 561 559
f 547 562 549
f 547 560 562
f 551 563 552
f 552 563 561
f 549 564 551
f 551 564 563
f 549 562 564
f 554 565 553
f 557 566 554
f 554 566 565
f 553 567 555
f 553 565 567
f 559 568 557
f 557 568 566
f 555 569 556
f 555 567 569
f 561 570 559
f 559 570 568
f 556 571 558
f 556 569 571
f 563 572 561
f 561 572 570
f 558 573 560
f 558 571 573
f 564 574 563
f 563 574 572
f 560 575 562
f 560 573 575
f 562 576 564
f 564 576 574
f 562 575 576
f 568 577 566
f 566 578 565
f 566 577 578
f 570 579 568
f 568 579 577
f 565 580 567
f 565 578 580
f 572 581 570
f 570 581 579
f 567 582 569
f 567 580 582
f 574 583 572
f 572 583 581
f 569 584 571
f 569 582 584
f 576 585 574
f 574 585 583
f 571 586 573
f 571 584 586
f 575 587 576
f 576 587 585
f 573 588 575
f 573 586 588
f 575 588 587
f 579 589 577
f 577 590 578
f 577 589 590
f 581 591 579
f 579 591 589
f 578 592 580
f 578 590 592
f 583 593 581
f 581 593 591
f 580 594 582
f 580 592 594
f 585 595 583
f 583 595 593
f 582 596 584
f 582 594 596
f 587 597 585
f 585 597 595
f 584 598 586
f 584 596 598
f 588 599 587
f 587 599 597
f 586 600 588
f 586 598 600
f 588 600 599
f 591 601 589
f 589 602 590
f 589 601 602
f 593 603 591
f 591 603 601
f 590 604 592
f 590 602 604
f 595 605 593
f 593 605 603
f 592 606 594
f 592 604 606
f 597 607 595
f 595 607 605
f 594 608 596
f 594 606 608
f 599 609 597
f 597 609 607
f 596 610 598
f 596 608 610
f 600 611 599
f 599 611 609
f 598 612 600
f 598 610 612
f 600 612 611
f 613 614 615
f 616 617 614
f 616 614 613
f 618 615 619
f 613 615 618
f 620 619 621
f 618 619 620
f 622 623 617
f 622 617 616
f 624 621 625
f 620 621 624
f 626 627 623
f 626 623 622
f 628 625 629
f 624 625 628
f 630 631 627
f 630 627 626
f 632 629 633
f 628 629 632
f 634 635 631
f 634 631 630
f 636 633 635
f 636 635 634
f 632 633 636
f 637 613 618
f 638 616 613
f 638 613 637
f 639 618 620
f 637 618 639
f 640 620 624
f 639 620 640
f 641 622 616
f 641 616 638
f 642 624 628
f 640 624 642
f 643 626 622
f 643 622 641
f 644 628 632
f 642 628 644
f 645 630 626
f 645 626 643
f 646 632 636
f 644 632 646
f 647 634 630
f 647 630 645
f 648 636 634
f 648 634 647
f 646 636 648
f 649 639 640
f 650 637 639
f 650 639 649
f 651 640 642
f 649 640 651
f 652 638 637
f 652 637 650
f 653 642 644
f 651 642 653
f 654 641 638
f 654 638 652
f 655 644 646
f 653 644 655
f 656 643 641
f 656 641 654
f 657 646 648
f 655 646 657
f 658 645 643
f 658 643 656
f 659 648 647
f 657 648 659
f 660 647 645
f 660 645 658
f 659 647 660
f 661 649 651
f 662 650 649
f 662 649 661
f 663 651 653
f 661 651 663
f 664 652 650
f 664 650 662
f 665 653 655
f 663 653 665
f 666 654 652
f 666 652 664
f 667 655 657
f 665 655 667
f 668 656 654
f 668 654 666
f 669 657 659
f 667 657 669
f 670 658 656
f 670 656 668
f 671 659 660
f 669 659 671
f 672 660 658
f 672 658 670
f 671 660 672
f 673 661 663
f 674 662 661
f 674 661 673
f 675 663 665
f 673 663 675
f 676 665 667
f 675 665 676
f 677 664 662
f 677 662 674
f 678 667 669
f 676 667 678
f 679 666 664
f 679 664 677
f 680 669 671
f 678 669 680
f 681 668 666
f 681 666 679
f 682 671 672
f 680 671 682
f 683 670 668
f 683 668 681
f 684 672 670
f 684 670 683
f 682 672 684
f 685 673 675
f 686 675 676
f 685 675 686
f 687 674 673
f 688 677 674
f 688 674 687
f 687 673 685
f 689 676 678
f 686 676 689
f 690 678 680
f 689 678 690
f 691 679 677
f 691 677 688
f 692 680 682
f 690 680 692
f 693 681 679
f 693 679 691
f 694 682 684
f 692 682 694
f 695 683 681
f 695 681 693
f 696 684 683
f 694 684 696
f 696 683 695
f 697 686 689
f 698 685 686
f 698 686 697
f 699 689 690
f 697 689 699
f 700 687 685
f 700 685 698
f 701 690 692
f 699 690 701
f 702 688 687
f 702 687 700
f 703 692 694
f 701 692 703
f 704 691 688
f 704 688 702
f 705 694 696
f 703 694 705
f 706 693 691
f 706 691 704
f 707 696 695
f 705 696 707
f 708 695 693
f 708 693 706
f 707 695 708
f 709 697 699
f 710 698 697
f 710 697 709
f 711 699 701
f 709 699 711
f 712 700 698
f 712 698 710
f 713 701 703
f 711 701 713
f 714 702 700
f 714 700 712
f 715 703 705
f 713 703 715
f 716 704 702
f 716 702 714
f 717 705 707
f 715 705 717
f 718 706 704
f 718 704 716
f 719 707 708
f 717 707 719
f 720 708 706
f 720 706 718
f 719 708 720
f 721 709 711
f 722 710 709
f 722 709 721
f 723 711 713
f 721 711 723
f 724 712 710
f 724 710 722
f 725 713 715
f 723 713 725
f 726 714 712
f 726 712 724
f 727 715 717
f 725 715 727
f 728 716 714
f 728 714 726
f 729 717 719
f 727 717 729
f 730 718 716
f 730 716 728
f 731 719 720
f 729 719 731
f 732 720 718
f 732 718 730
f 731 720 732
f 733 721 723
f 734 722 721
f 734 721 733
f 735 723 725
f 733 723 735
f 736 724 722
f 736 722 734
f 737 725 727
f 735 725 737
f 738 726 724
f 738 724 736
f 739 727 729
f 737 727 739
f 740 728 726
f 740 726 738
f 741 729 731
f 739 729 741
f 742 730 728
f 742 728 740
f 743 731 732
f 741 731 743
f 744 732 730
f 744 730 742
f 743 732 744
f 745 734 733
f 746 733 735
f 745 733 746
f 747 736 734
f 747 734 745
f 748 735 737
f 746 735 748
f 749 738 736
f 749 736 747
f 750 737 739
f 748 737 750
f 751 740 738
f 751 738 749
f 752 739 741
f 750 739 752
f 753 742 740
f 753 740 751
f 754 741 743
f 752 741 754
f 755 744 742
f 755 742 753
f 756 743 744
f 754 743 756
f 756 744 755
f 757 745 746
f 758 747 745
f 758 745 757
f 759 746 748
f 757 746 759
f 760 748 750
f 759 748 760
f 761 749 747
f 761 747 758
f 762 750 752
f 760 750 762
f 763 751 749
f 763 749 761
f 764 752 754
f 762 752 764
f 765 753 751
f 765 751 763
f 766 754 756
f 764 754 766
f 767 755 753
f 767 753 765
f 768 756 755
f 766 756 768
f 768 755 767
