# 
# Wavefront OBJ file
# Created with Kaydara FBX
# 
mtllib c:\users\tjvan\onedrive\documenten\fontys\minor\nx\.mtlmodels\sural_artery.r.obj

g Sural_artery_r
v -0.096904 0.441301 -0.060277
v -0.099315 0.438274 -0.060806
v -0.099300 0.438267 -0.060832
v -0.096878 0.441288 -0.060324
v -0.099277 0.438253 -0.060847
v -0.096910 0.441295 -0.060223
v -0.099318 0.438272 -0.060775
v -0.096896 0.441270 -0.060176
v -0.099308 0.438261 -0.060748
v -0.096865 0.441234 -0.060148
v -0.099288 0.438244 -0.060732
v -0.096825 0.441196 -0.060147
v -0.099262 0.438226 -0.060731
v -0.096840 0.441258 -0.060350
v -0.099252 0.438235 -0.060846
v -0.096800 0.441220 -0.060350
v -0.099231 0.438218 -0.060830
v -0.096787 0.441167 -0.060174
v -0.099239 0.438212 -0.060745
v -0.096769 0.441184 -0.060322
v -0.099221 0.438207 -0.060802
v -0.096755 0.441159 -0.060275
v -0.099224 0.438205 -0.060772
v -0.096762 0.441153 -0.060221
v -0.094497 0.443493 -0.059482
v -0.094461 0.443433 -0.059445
v -0.094509 0.443535 -0.059548
v -0.094496 0.443547 -0.059625
v -0.094460 0.443526 -0.059692
v -0.094413 0.443370 -0.059446
v -0.094411 0.443479 -0.059732
v -0.094364 0.443323 -0.059486
v -0.094362 0.443416 -0.059733
v -0.094328 0.443302 -0.059553
v -0.094314 0.443314 -0.059630
v -0.094327 0.443356 -0.059696
v -0.092142 0.445066 -0.058682
v -0.092110 0.444979 -0.058638
v -0.092147 0.445128 -0.058765
v -0.092124 0.445148 -0.058863
v -0.092058 0.444890 -0.058644
v -0.092078 0.445120 -0.058951
v -0.092003 0.444822 -0.058698
v -0.092022 0.445053 -0.059005
v -0.091957 0.444795 -0.058787
v -0.091971 0.444964 -0.059011
v -0.091933 0.444815 -0.058885
v -0.091939 0.444876 -0.058967
v -0.089869 0.446128 -0.057792
v -0.089845 0.446013 -0.057744
v -0.089862 0.446211 -0.057889
v -0.089825 0.446239 -0.058007
v -0.089796 0.445896 -0.057756
v -0.089769 0.446205 -0.058116
v -0.089735 0.445809 -0.057826
v -0.089708 0.446118 -0.058186
v -0.089679 0.445776 -0.057935
v -0.089659 0.446001 -0.058198
v -0.089642 0.445804 -0.058053
v -0.089635 0.445886 -0.058150
v -0.087715 0.446817 -0.056829
v -0.087701 0.446675 -0.056778
v -0.087692 0.446919 -0.056937
v -0.087655 0.446532 -0.056798
v -0.087639 0.446956 -0.057074
v -0.087589 0.446427 -0.056884
v -0.087570 0.446916 -0.057202
v -0.087519 0.446388 -0.057012
v -0.087503 0.446811 -0.057288
v -0.087466 0.446424 -0.057149
v -0.087457 0.446669 -0.057308
v -0.087444 0.446527 -0.057257
v -0.085713 0.447105 -0.055756
v -0.085718 0.447271 -0.055810
v -0.085666 0.446938 -0.055782
v -0.085679 0.447393 -0.055930
v -0.085589 0.446816 -0.055882
v -0.085608 0.447438 -0.056083
v -0.085504 0.446772 -0.056028
v -0.085522 0.447393 -0.056229
v -0.085432 0.446816 -0.056182
v -0.085446 0.447271 -0.056329
v -0.085394 0.446938 -0.056302
v -0.085399 0.447105 -0.056355
v -0.083913 0.447442 -0.054695
v -0.083856 0.447253 -0.054723
v -0.083917 0.447632 -0.054755
v -0.083761 0.447116 -0.054832
v -0.083867 0.447772 -0.054888
v -0.083776 0.447824 -0.055057
v -0.083654 0.447067 -0.054993
v -0.083668 0.447776 -0.055217
v -0.083563 0.447120 -0.055162
v -0.083573 0.447639 -0.055326
v -0.083513 0.447260 -0.055294
v -0.083516 0.447450 -0.055354
v -0.082337 0.447824 -0.053612
v -0.082256 0.447617 -0.053632
v -0.082352 0.448034 -0.053687
v -0.082297 0.448190 -0.053836
v -0.082130 0.447469 -0.053741
v -0.082186 0.448252 -0.054019
v -0.081993 0.447418 -0.053910
v -0.082049 0.448201 -0.054188
v -0.081882 0.447480 -0.054094
v -0.081827 0.447636 -0.054243
v -0.081923 0.448053 -0.054297
v -0.081842 0.447846 -0.054317
v -0.081017 0.448386 -0.052524
v -0.081060 0.448606 -0.052627
v -0.080893 0.448172 -0.052519
v -0.081010 0.448774 -0.052801
v -0.080720 0.448023 -0.052614
v -0.080880 0.448845 -0.053000
v -0.080546 0.447978 -0.052783
v -0.080706 0.448800 -0.053169
v -0.080416 0.448049 -0.052981
v -0.080533 0.448651 -0.053264
v -0.080366 0.448217 -0.053155
v -0.080409 0.448437 -0.053259
v -0.079980 0.449263 -0.051444
v -0.080064 0.449473 -0.051593
v -0.079800 0.449067 -0.051395
v -0.080028 0.449641 -0.051803
v -0.079570 0.448937 -0.051461
v -0.079883 0.449722 -0.052017
v -0.079354 0.448909 -0.051622
v -0.079667 0.449694 -0.052179
v -0.079209 0.448989 -0.051836
v -0.079438 0.449564 -0.052244
v -0.079174 0.449157 -0.052046
v -0.079257 0.449368 -0.052195
v -0.079374 0.450773 -0.050584
v -0.079251 0.450598 -0.050380
v -0.079353 0.450924 -0.050836
v -0.079019 0.450447 -0.050279
v -0.079195 0.451012 -0.051069
v -0.078738 0.450359 -0.050308
v -0.078941 0.451013 -0.051221
v -0.078485 0.450360 -0.050460
v -0.078661 0.450925 -0.051250
v -0.079008 0.452663 -0.049595
v -0.078861 0.452538 -0.049341
v -0.078327 0.450448 -0.050693
v -0.078995 0.452788 -0.049889
v -0.078428 0.450774 -0.051149
v -0.078593 0.452447 -0.049194
v -0.078306 0.450599 -0.050946
v -0.078825 0.452880 -0.050143
v -0.078276 0.452413 -0.049194
v -0.078543 0.452913 -0.050289
v -0.077994 0.452447 -0.049341
v -0.078226 0.452880 -0.050289
v -0.077824 0.452538 -0.049595
v -0.077958 0.452788 -0.050142
v -0.077810 0.452663 -0.049888
v -0.072247 0.441381 -0.056239
v -0.069899 0.441856 -0.057178
v -0.072242 0.441599 -0.056178
v -0.072209 0.441162 -0.056191
v -0.069897 0.441653 -0.057238
v -0.069854 0.442006 -0.057035
v -0.072194 0.441760 -0.056024
v -0.072137 0.441001 -0.056047
v -0.069849 0.441451 -0.057199
v -0.069774 0.442061 -0.056847
v -0.072116 0.441818 -0.055818
v -0.072051 0.440943 -0.055844
v -0.069768 0.441304 -0.057070
v -0.069681 0.442008 -0.056664
v -0.072030 0.441760 -0.055616
v -0.071973 0.441001 -0.055639
v -0.069675 0.441251 -0.056888
v -0.069600 0.441860 -0.056536
v -0.071958 0.441599 -0.055472
v -0.071925 0.441162 -0.055485
v -0.069595 0.441306 -0.056700
v -0.069552 0.441658 -0.056497
v -0.071919 0.441381 -0.055424
v -0.069550 0.441455 -0.056557
v -0.067515 0.442259 -0.058331
v -0.067506 0.442072 -0.058390
v -0.067475 0.442396 -0.058198
v -0.067452 0.441887 -0.058358
v -0.067397 0.442448 -0.058026
v -0.067366 0.441752 -0.058245
v -0.067303 0.442401 -0.057861
v -0.067272 0.441705 -0.058080
v -0.067217 0.442266 -0.057748
v -0.067194 0.441757 -0.057908
v -0.067163 0.442081 -0.057716
v -0.067154 0.441894 -0.057775
v -0.065133 0.442807 -0.059562
v -0.065118 0.442638 -0.059620
v -0.065100 0.442933 -0.059438
v -0.065029 0.442981 -0.059280
v -0.065059 0.442470 -0.059596
v -0.064937 0.442938 -0.059131
v -0.064972 0.442348 -0.059496
v -0.064851 0.442816 -0.059031
v -0.064881 0.442305 -0.059347
v -0.064792 0.442648 -0.059007
v -0.064809 0.442353 -0.059189
v -0.064777 0.442479 -0.059065
v -0.062798 0.443504 -0.060798
v -0.062774 0.443616 -0.060681
v -0.062776 0.443352 -0.060855
v -0.062711 0.443659 -0.060536
v -0.062714 0.443201 -0.060837
v -0.062625 0.443621 -0.060401
v -0.062629 0.443092 -0.060749
v -0.062540 0.443512 -0.060313
v -0.062544 0.443053 -0.060614
v -0.062479 0.443361 -0.060295
v -0.062480 0.443096 -0.060469
v -0.062457 0.443209 -0.060353
v -0.060552 0.444348 -0.061962
v -0.060538 0.444447 -0.061853
v -0.060523 0.444214 -0.062019
v -0.060486 0.444484 -0.061719
v -0.060459 0.444081 -0.062007
v -0.060408 0.444450 -0.061598
v -0.060378 0.443985 -0.061930
v -0.060327 0.444353 -0.061521
v -0.060300 0.443950 -0.061808
v -0.060263 0.444220 -0.061509
v -0.060248 0.443987 -0.061675
v -0.060234 0.444086 -0.061565
v -0.058436 0.445425 -0.062879
v -0.058438 0.445342 -0.062982
v -0.058395 0.445455 -0.062757
v -0.058402 0.445227 -0.063037
v -0.058328 0.445424 -0.062648
v -0.058337 0.445113 -0.063031
v -0.058251 0.445339 -0.062581
v -0.058260 0.445028 -0.062964
v -0.058186 0.445224 -0.062574
v -0.058193 0.444997 -0.062855
v -0.058152 0.445026 -0.062732
v -0.058150 0.445110 -0.062630
v -0.056509 0.446551 -0.063686
v -0.056499 0.446485 -0.063781
v -0.056482 0.446572 -0.063575
v -0.056455 0.446392 -0.063835
v -0.056426 0.446543 -0.063477
v -0.056389 0.446296 -0.063833
v -0.056355 0.446470 -0.063420
v -0.056318 0.446224 -0.063775
v -0.056289 0.446375 -0.063418
v -0.056262 0.446194 -0.063678
v -0.056245 0.446281 -0.063472
v -0.056235 0.446215 -0.063567
v -0.054798 0.447826 -0.064200
v -0.054776 0.447780 -0.064286
v -0.054786 0.447836 -0.064101
v -0.054742 0.447807 -0.064015
v -0.054725 0.447710 -0.064337
v -0.054678 0.447746 -0.063967
v -0.054658 0.447634 -0.064338
v -0.054612 0.447671 -0.063967
v -0.054595 0.447574 -0.064289
v -0.054560 0.447601 -0.064018
v -0.054551 0.447545 -0.064203
v -0.054538 0.447555 -0.064104
v -0.053345 0.449251 -0.064348
v -0.053312 0.449226 -0.064422
v -0.053346 0.449248 -0.064263
v -0.053314 0.449218 -0.064191
v -0.053256 0.449181 -0.064465
v -0.053258 0.449169 -0.064150
v -0.053193 0.449115 -0.064152
v -0.053191 0.449127 -0.064467
v -0.053137 0.449069 -0.064195
v -0.053135 0.449078 -0.064426
v -0.053103 0.449048 -0.064354
v -0.053104 0.449045 -0.064269
v -0.052198 0.450813 -0.063990
v -0.052188 0.450828 -0.064056
v -0.052177 0.450782 -0.063932
v -0.052150 0.450824 -0.064113
v -0.052130 0.450744 -0.063899
v -0.052071 0.450710 -0.063898
v -0.052094 0.450802 -0.064146
v -0.052015 0.450687 -0.063931
v -0.052035 0.450768 -0.064145
v -0.051988 0.450730 -0.064111
v -0.051976 0.450684 -0.063988
v -0.051967 0.450699 -0.064054
v -0.051381 0.452540 -0.063202
v -0.051368 0.452510 -0.063161
v -0.051369 0.452562 -0.063248
v -0.051331 0.452482 -0.063134
v -0.051334 0.452573 -0.063286
v -0.051282 0.452464 -0.063130
v -0.051285 0.452568 -0.063306
v -0.051233 0.452459 -0.063150
v -0.051236 0.452549 -0.063302
v -0.051198 0.452469 -0.063188
v -0.051199 0.452521 -0.063275
v -0.051186 0.452492 -0.063234
v -0.050932 0.454409 -0.061793
v -0.050940 0.454433 -0.061820
v -0.050906 0.454390 -0.061775
v -0.050930 0.454455 -0.061848
v -0.050871 0.454381 -0.061769
v -0.050904 0.454471 -0.061868
v -0.050835 0.454385 -0.061777
v -0.050868 0.454474 -0.061877
v -0.050808 0.454400 -0.061798
v -0.050833 0.454465 -0.061871
v -0.050798 0.454423 -0.061825
v -0.050807 0.454446 -0.061852
v -0.076752 0.445384 -0.051778
v -0.076142 0.443596 -0.053546
v -0.076798 0.445595 -0.052120
v -0.076014 0.443860 -0.053782
v -0.076638 0.445807 -0.052426
v -0.076512 0.445228 -0.051491
v -0.076092 0.443377 -0.053244
v -0.075742 0.444097 -0.053889
v -0.076314 0.445962 -0.052613
v -0.076143 0.445172 -0.051336
v -0.075878 0.443260 -0.052958
v -0.075399 0.444244 -0.053838
v -0.075913 0.446019 -0.052631
v -0.074873 0.442207 -0.054853
v -0.074794 0.442496 -0.055028
v -0.075556 0.443278 -0.052764
v -0.075742 0.445228 -0.051355
v -0.074816 0.441991 -0.054587
v -0.074600 0.442782 -0.055065
v -0.075078 0.444261 -0.053644
v -0.075544 0.445962 -0.052476
v -0.074638 0.441906 -0.054301
v -0.074343 0.442988 -0.054953
v -0.075214 0.443425 -0.052713
v -0.075418 0.445384 -0.051542
v -0.074387 0.441976 -0.054071
v -0.074863 0.444145 -0.053358
v -0.075304 0.445807 -0.052190
v -0.075258 0.445595 -0.051848
v -0.074942 0.443662 -0.052820
v -0.074091 0.443057 -0.054724
v -0.074814 0.443925 -0.053056
v -0.074129 0.442182 -0.053960
v -0.073913 0.442973 -0.054438
v -0.073935 0.442468 -0.053997
v -0.073122 0.441313 -0.056005
v -0.073086 0.441600 -0.056139
v -0.073856 0.442757 -0.054172
v -0.073062 0.441111 -0.055766
v -0.072965 0.441894 -0.056133
v -0.072924 0.441048 -0.055486
v -0.072792 0.442118 -0.055987
v -0.072744 0.441140 -0.055240
v -0.072611 0.442211 -0.055741
v -0.072570 0.441364 -0.055094
v -0.072473 0.442148 -0.055461
v -0.072449 0.441659 -0.055087
v -0.072413 0.441946 -0.055222
v -0.070995 0.441027 -0.057108
v -0.071006 0.440760 -0.056996
v -0.070922 0.441307 -0.057083
v -0.070953 0.440576 -0.056778
v -0.070808 0.441524 -0.056928
v -0.070850 0.440526 -0.056512
v -0.070682 0.441620 -0.056685
v -0.070724 0.440622 -0.056269
v -0.070579 0.441570 -0.056419
v -0.070609 0.440839 -0.056114
v -0.070526 0.441386 -0.056201
v -0.070537 0.441118 -0.056089
v -0.068603 0.440634 -0.057938
v -0.068607 0.440392 -0.057840
v -0.068554 0.440889 -0.057910
v -0.068567 0.440228 -0.057641
v -0.068475 0.441089 -0.057761
v -0.068492 0.440186 -0.057394
v -0.068386 0.441180 -0.057533
v -0.068403 0.440277 -0.057166
v -0.068311 0.441138 -0.057286
v -0.068324 0.440477 -0.057018
v -0.068271 0.440974 -0.057087
v -0.068275 0.440732 -0.056989
v -0.065983 0.440281 -0.058634
v -0.065992 0.440067 -0.058545
v -0.065942 0.440509 -0.058608
v -0.065968 0.439923 -0.058364
v -0.065881 0.440688 -0.058473
v -0.065916 0.439887 -0.058140
v -0.065815 0.440771 -0.058266
v -0.065851 0.439971 -0.057933
v -0.065764 0.440736 -0.058042
v -0.065790 0.440150 -0.057799
v -0.065739 0.440592 -0.057861
v -0.065749 0.440377 -0.057772
v -0.063210 0.439837 -0.059195
v -0.063231 0.439651 -0.059114
v -0.063166 0.440035 -0.059173
v -0.063224 0.439527 -0.058952
v -0.063112 0.440192 -0.059056
v -0.063191 0.439499 -0.058753
v -0.063061 0.440266 -0.058873
v -0.063141 0.439573 -0.058570
v -0.063028 0.440237 -0.058673
v -0.063086 0.439730 -0.058452
v -0.063021 0.440113 -0.058512
v -0.063042 0.439928 -0.058431
v -0.060394 0.439015 -0.059545
v -0.060405 0.438913 -0.059403
v -0.060359 0.439170 -0.059617
v -0.060307 0.439337 -0.059601
v -0.060387 0.438890 -0.059230
v -0.060253 0.439470 -0.059501
v -0.060345 0.438954 -0.059073
v -0.060211 0.439534 -0.059344
v -0.060291 0.439088 -0.058973
v -0.060193 0.439512 -0.059171
v -0.060239 0.439254 -0.058957
v -0.060203 0.439409 -0.059030
v -0.057580 0.437949 -0.059715
v -0.057555 0.438028 -0.059835
v -0.057573 0.437933 -0.059570
v -0.057506 0.438151 -0.059898
v -0.057445 0.438284 -0.059887
v -0.057537 0.437986 -0.059438
v -0.057481 0.438094 -0.059356
v -0.057389 0.438391 -0.059805
v -0.057420 0.438226 -0.059345
v -0.057353 0.438444 -0.059673
v -0.057371 0.438349 -0.059408
v -0.057346 0.438428 -0.059528
v -0.054820 0.436505 -0.059884
v -0.054821 0.436496 -0.059767
v -0.054787 0.436561 -0.059982
v -0.054730 0.436650 -0.060034
v -0.054789 0.436537 -0.059662
v -0.054664 0.436747 -0.060026
v -0.054733 0.436617 -0.059596
v -0.054608 0.436827 -0.059961
v -0.054667 0.436714 -0.059588
v -0.054576 0.436868 -0.059855
v -0.054610 0.436803 -0.059640
v -0.054577 0.436859 -0.059738
v -0.052198 0.434447 -0.059906
v -0.052163 0.434481 -0.059980
v -0.052203 0.434443 -0.059817
v -0.052176 0.434472 -0.059738
v -0.052107 0.434538 -0.060019
v -0.052124 0.434525 -0.059688
v -0.052045 0.434601 -0.060014
v -0.052062 0.434588 -0.059683
v -0.051993 0.434654 -0.059964
v -0.052006 0.434645 -0.059722
v -0.051966 0.434683 -0.059885
v -0.051970 0.434679 -0.059796
v -0.049789 0.431637 -0.059774
v -0.049760 0.431654 -0.059824
v -0.049794 0.431637 -0.059714
v -0.049774 0.431654 -0.059660
v -0.049715 0.431684 -0.059850
v -0.049734 0.431684 -0.059626
v -0.049665 0.431718 -0.059846
v -0.049684 0.431718 -0.059622
v -0.049625 0.431747 -0.059812
v -0.049639 0.431747 -0.059648
v -0.049605 0.431764 -0.059758
v -0.049610 0.431764 -0.059698
v -0.096509 0.453763 -0.062387
v -0.097674 0.453673 -0.062680
v -0.097677 0.453667 -0.062659
v -0.096502 0.453788 -0.062410
v -0.097673 0.453689 -0.062697
v -0.096519 0.453754 -0.062356
v -0.097683 0.453673 -0.062638
v -0.096529 0.453762 -0.062324
v -0.097689 0.453689 -0.062622
v -0.096499 0.453822 -0.062418
v -0.097676 0.453711 -0.062703
v -0.096536 0.453786 -0.062300
v -0.097694 0.453710 -0.062617
v -0.096502 0.453855 -0.062409
v -0.097681 0.453732 -0.062698
v -0.096539 0.453819 -0.062291
v -0.097697 0.453732 -0.062624
v -0.096509 0.453879 -0.062386
v -0.097687 0.453748 -0.062683
v -0.096536 0.453853 -0.062299
v -0.097696 0.453748 -0.062640
v -0.096519 0.453887 -0.062353
v -0.097693 0.453754 -0.062661
v -0.096529 0.453878 -0.062322
v -0.095479 0.453637 -0.061930
v -0.095464 0.453626 -0.061973
v -0.095487 0.453669 -0.061898
v -0.095484 0.453714 -0.061883
v -0.095472 0.453758 -0.061891
v -0.095454 0.453791 -0.061919
v -0.095445 0.453638 -0.062014
v -0.095435 0.453803 -0.061959
v -0.095427 0.453671 -0.062042
v -0.095415 0.453715 -0.062049
v -0.095413 0.453759 -0.062035
v -0.095420 0.453791 -0.062002
v -0.094454 0.453329 -0.061567
v -0.094483 0.453315 -0.061518
v -0.094423 0.453368 -0.061598
v -0.094504 0.453330 -0.061466
v -0.094400 0.453421 -0.061604
v -0.094511 0.453370 -0.061423
v -0.094390 0.453475 -0.061583
v -0.094501 0.453423 -0.061402
v -0.094397 0.453514 -0.061540
v -0.094478 0.453477 -0.061408
v -0.094418 0.453529 -0.061488
v -0.094448 0.453516 -0.061439
v -0.093573 0.452870 -0.060935
v -0.093547 0.452851 -0.060998
v -0.093579 0.452917 -0.060883
v -0.093563 0.452979 -0.060854
v -0.093506 0.452866 -0.061053
v -0.093528 0.453040 -0.060858
v -0.093462 0.452909 -0.061087
v -0.093484 0.453084 -0.060892
v -0.093428 0.452971 -0.061091
v -0.093444 0.453098 -0.060948
v -0.093411 0.453033 -0.061062
v -0.093417 0.453080 -0.061010
v -0.092657 0.452286 -0.060345
v -0.092625 0.452263 -0.060418
v -0.092663 0.452339 -0.060283
v -0.092639 0.452410 -0.060248
v -0.092574 0.452278 -0.060481
v -0.092594 0.452479 -0.060249
v -0.092518 0.452326 -0.060518
v -0.092538 0.452527 -0.060286
v -0.092473 0.452395 -0.060519
v -0.092487 0.452542 -0.060349
v -0.092450 0.452466 -0.060483
v -0.092455 0.452519 -0.060421
v -0.091728 0.451605 -0.059703
v -0.091690 0.451579 -0.059785
v -0.091733 0.451666 -0.059631
v -0.091705 0.451746 -0.059589
v -0.091630 0.451595 -0.059856
v -0.091650 0.451823 -0.059588
v -0.091564 0.451649 -0.059897
v -0.091583 0.451876 -0.059629
v -0.091509 0.451725 -0.059896
v -0.091523 0.451892 -0.059700
v -0.091481 0.451805 -0.059854
v -0.091486 0.451866 -0.059782
v -0.090758 0.450859 -0.059014
v -0.090716 0.450830 -0.059107
v -0.090764 0.450927 -0.058933
v -0.090731 0.451017 -0.058886
v -0.090648 0.450847 -0.059187
v -0.090669 0.451103 -0.058884
v -0.090573 0.450907 -0.059232
v -0.090593 0.451163 -0.058930
v -0.090510 0.450993 -0.059231
v -0.090525 0.451180 -0.059009
v -0.090477 0.451082 -0.059183
v -0.090483 0.451151 -0.059102
v -0.089720 0.450076 -0.058287
v -0.089673 0.450043 -0.058391
v -0.089727 0.450152 -0.058197
v -0.089692 0.450252 -0.058145
v -0.089599 0.450064 -0.058480
v -0.089624 0.450349 -0.058145
v -0.089517 0.450131 -0.058532
v -0.089542 0.450417 -0.058197
v -0.089449 0.450228 -0.058532
v -0.089468 0.450437 -0.058286
v -0.089414 0.450329 -0.058480
v -0.089421 0.450405 -0.058390
v -0.088586 0.449286 -0.057529
v -0.088536 0.449251 -0.057644
v -0.088595 0.449371 -0.057431
v -0.088559 0.449483 -0.057376
v -0.088457 0.449275 -0.057745
v -0.088489 0.449593 -0.057378
v -0.088371 0.449353 -0.057804
v -0.088402 0.449670 -0.057438
v -0.088300 0.449462 -0.057806
v -0.088323 0.449694 -0.057538
v -0.088264 0.449574 -0.057751
v -0.088273 0.449659 -0.057653
v -0.087329 0.448520 -0.056748
v -0.087275 0.448483 -0.056874
v -0.087340 0.448614 -0.056642
v -0.087306 0.448740 -0.056585
v -0.087194 0.448513 -0.056987
v -0.087236 0.448863 -0.056591
v -0.087106 0.448601 -0.057056
v -0.087149 0.448952 -0.056660
v -0.087036 0.448724 -0.057063
v -0.087067 0.448981 -0.056773
v -0.087002 0.448850 -0.057006
v -0.087014 0.448944 -0.056899
v -0.085920 0.447811 -0.055952
v -0.085935 0.447914 -0.055839
v -0.085864 0.447771 -0.056090
v -0.085906 0.448053 -0.055780
v -0.085783 0.447806 -0.056216
v -0.085839 0.448192 -0.055793
v -0.085698 0.447907 -0.056296
v -0.085754 0.448292 -0.055873
v -0.085631 0.448045 -0.056309
v -0.085673 0.448328 -0.055999
v -0.085602 0.448185 -0.056251
v -0.085617 0.448288 -0.056137
v -0.084333 0.447188 -0.055149
v -0.084353 0.447301 -0.055029
v -0.084276 0.447147 -0.055300
v -0.084331 0.447455 -0.054971
v -0.084197 0.447188 -0.055440
v -0.084272 0.447609 -0.054991
v -0.084117 0.447301 -0.055532
v -0.084192 0.447721 -0.055083
v -0.084058 0.447455 -0.055552
v -0.084113 0.447763 -0.055223
v -0.084036 0.447609 -0.055494
v -0.084056 0.447721 -0.055373
usemtl Sural_artery_rMaterial0
f 1 2 3
f 4 3 5
f 1 3 4
f 6 7 2
f 6 2 1
f 8 9 7
f 8 7 6
f 10 11 9
f 10 9 8
f 12 13 11
f 12 11 10
f 14 5 15
f 4 5 14
f 16 15 17
f 14 15 16
f 18 19 13
f 18 13 12
f 20 17 21
f 16 17 20
f 22 21 23
f 20 21 22
f 24 23 19
f 22 23 24
f 24 19 18
f 25 8 6
f 26 10 8
f 26 8 25
f 27 6 1
f 28 1 4
f 27 1 28
f 25 6 27
f 29 4 14
f 28 4 29
f 30 12 10
f 30 10 26
f 31 14 16
f 29 14 31
f 32 18 12
f 32 12 30
f 33 16 20
f 31 16 33
f 34 24 18
f 34 18 32
f 35 22 24
f 36 20 22
f 36 22 35
f 35 24 34
f 33 20 36
f 37 25 27
f 38 26 25
f 38 25 37
f 39 27 28
f 37 27 39
f 40 28 29
f 39 28 40
f 41 30 26
f 41 26 38
f 42 29 31
f 40 29 42
f 43 32 30
f 43 30 41
f 44 31 33
f 42 31 44
f 45 34 32
f 45 32 43
f 46 33 36
f 44 33 46
f 47 35 34
f 47 34 45
f 48 36 35
f 46 36 48
f 48 35 47
f 49 37 39
f 50 38 37
f 50 37 49
f 51 39 40
f 49 39 51
f 52 40 42
f 51 40 52
f 53 41 38
f 53 38 50
f 54 42 44
f 52 42 54
f 55 43 41
f 55 41 53
f 56 44 46
f 54 44 56
f 57 45 43
f 57 43 55
f 58 46 48
f 56 46 58
f 59 47 45
f 59 45 57
f 60 48 47
f 60 47 59
f 58 48 60
f 61 49 51
f 62 50 49
f 62 49 61
f 63 51 52
f 61 51 63
f 64 53 50
f 64 50 62
f 65 52 54
f 63 52 65
f 66 55 53
f 66 53 64
f 67 54 56
f 65 54 67
f 68 57 55
f 68 55 66
f 69 56 58
f 67 56 69
f 70 59 57
f 70 57 68
f 71 58 60
f 69 58 71
f 72 60 59
f 72 59 70
f 71 60 72
f 73 62 61
f 74 61 63
f 73 61 74
f 75 64 62
f 75 62 73
f 76 63 65
f 74 63 76
f 77 66 64
f 77 64 75
f 78 65 67
f 76 65 78
f 79 68 66
f 79 66 77
f 80 67 69
f 78 67 80
f 81 70 68
f 81 68 79
f 82 69 71
f 80 69 82
f 83 72 70
f 83 70 81
f 84 71 72
f 82 71 84
f 84 72 83
f 85 73 74
f 86 75 73
f 86 73 85
f 87 74 76
f 85 74 87
f 88 77 75
f 88 75 86
f 89 76 78
f 87 76 89
f 90 78 80
f 89 78 90
f 91 79 77
f 91 77 88
f 92 80 82
f 90 80 92
f 93 81 79
f 93 79 91
f 94 82 84
f 92 82 94
f 95 83 81
f 95 81 93
f 96 84 83
f 96 83 95
f 94 84 96
f 97 85 87
f 98 86 85
f 98 85 97
f 99 87 89
f 97 87 99
f 100 89 90
f 99 89 100
f 101 88 86
f 101 86 98
f 102 90 92
f 100 90 102
f 103 91 88
f 103 88 101
f 104 92 94
f 102 92 104
f 105 93 91
f 105 91 103
f 106 95 93
f 106 93 105
f 107 94 96
f 104 94 107
f 108 96 95
f 108 95 106
f 107 96 108
f 109 97 99
f 110 99 100
f 109 99 110
f 111 98 97
f 111 97 109
f 112 100 102
f 110 100 112
f 113 101 98
f 113 98 111
f 114 102 104
f 112 102 114
f 115 103 101
f 115 101 113
f 116 104 107
f 114 104 116
f 117 105 103
f 117 103 115
f 118 107 108
f 116 107 118
f 119 106 105
f 119 105 117
f 120 108 106
f 118 108 120
f 120 106 119
f 121 109 110
f 122 110 112
f 121 110 122
f 123 111 109
f 123 109 121
f 124 112 114
f 122 112 124
f 125 113 111
f 125 111 123
f 126 114 116
f 124 114 126
f 127 115 113
f 127 113 125
f 128 116 118
f 126 116 128
f 129 117 115
f 129 115 127
f 130 118 120
f 128 118 130
f 131 119 117
f 131 117 129
f 132 120 119
f 130 120 132
f 132 119 131
f 133 122 124
f 134 121 122
f 134 122 133
f 135 124 126
f 133 124 135
f 136 123 121
f 136 121 134
f 137 126 128
f 135 126 137
f 138 125 123
f 138 123 136
f 139 128 130
f 137 128 139
f 140 127 125
f 140 125 138
f 141 130 132
f 139 130 141
f 142 133 135
f 143 134 133
f 143 133 142
f 144 129 127
f 144 127 140
f 145 135 137
f 142 135 145
f 146 132 131
f 141 132 146
f 147 136 134
f 147 134 143
f 148 131 129
f 148 129 144
f 145 137 149
f 149 137 139
f 146 131 148
f 150 138 136
f 150 136 147
f 149 139 151
f 151 139 141
f 152 140 138
f 152 138 150
f 151 141 153
f 153 141 146
f 154 144 140
f 154 140 152
f 155 146 148
f 153 146 155
f 156 148 144
f 156 144 154
f 155 148 156
f 157 158 159
f 160 161 157
f 157 161 158
f 159 162 163
f 159 158 162
f 164 165 160
f 160 165 161
f 163 166 167
f 163 162 166
f 168 169 164
f 164 169 165
f 167 170 171
f 167 166 170
f 172 173 168
f 168 173 169
f 171 174 175
f 171 170 174
f 176 177 172
f 172 177 173
f 175 178 179
f 175 174 178
f 179 180 176
f 176 180 177
f 179 178 180
f 161 181 158
f 165 182 161
f 161 182 181
f 158 183 162
f 158 181 183
f 169 184 165
f 165 184 182
f 162 185 166
f 162 183 185
f 173 186 169
f 169 186 184
f 166 187 170
f 166 185 187
f 177 188 173
f 173 188 186
f 170 189 174
f 170 187 189
f 180 190 177
f 177 190 188
f 174 191 178
f 174 189 191
f 178 192 180
f 180 192 190
f 178 191 192
f 182 193 181
f 184 194 182
f 182 194 193
f 181 195 183
f 181 193 195
f 183 196 185
f 183 195 196
f 186 197 184
f 184 197 194
f 185 198 187
f 185 196 198
f 188 199 186
f 186 199 197
f 187 200 189
f 187 198 200
f 190 201 188
f 188 201 199
f 189 202 191
f 189 200 202
f 192 203 190
f 190 203 201
f 191 204 192
f 192 204 203
f 191 202 204
f 194 205 193
f 193 206 195
f 193 205 206
f 197 207 194
f 194 207 205
f 195 208 196
f 195 206 208
f 199 209 197
f 197 209 207
f 196 210 198
f 196 208 210
f 201 211 199
f 199 211 209
f 198 212 200
f 198 210 212
f 203 213 201
f 201 213 211
f 200 214 202
f 200 212 214
f 204 215 203
f 203 215 213
f 202 216 204
f 202 214 216
f 204 216 215
f 207 217 205
f 205 218 206
f 205 217 218
f 209 219 207
f 207 219 217
f 206 220 208
f 206 218 220
f 211 221 209
f 209 221 219
f 208 222 210
f 208 220 222
f 213 223 211
f 211 223 221
f 210 224 212
f 210 222 224
f 215 225 213
f 213 225 223
f 212 226 214
f 212 224 226
f 216 227 215
f 215 227 225
f 214 228 216
f 214 226 228
f 216 228 227
f 217 229 218
f 219 230 217
f 217 230 229
f 218 231 220
f 218 229 231
f 221 232 219
f 219 232 230
f 220 233 222
f 220 231 233
f 223 234 221
f 221 234 232
f 222 235 224
f 222 233 235
f 225 236 223
f 223 236 234
f 224 237 226
f 224 235 237
f 227 238 225
f 225 238 236
f 228 239 227
f 227 239 238
f 226 240 228
f 228 240 239
f 226 237 240
f 230 241 229
f 232 242 230
f 230 242 241
f 229 243 231
f 229 241 243
f 234 244 232
f 232 244 242
f 231 245 233
f 231 243 245
f 236 246 234
f 234 246 244
f 233 247 235
f 233 245 247
f 238 248 236
f 236 248 246
f 235 249 237
f 235 247 249
f 239 250 238
f 238 250 248
f 237 251 240
f 237 249 251
f 240 252 239
f 239 252 250
f 240 251 252
f 242 253 241
f 244 254 242
f 242 254 253
f 241 255 243
f 241 253 255
f 243 256 245
f 243 255 256
f 246 257 244
f 244 257 254
f 245 258 247
f 245 256 258
f 248 259 246
f 246 259 257
f 247 260 249
f 247 258 260
f 250 261 248
f 248 261 259
f 249 262 251
f 249 260 262
f 252 263 250
f 250 263 261
f 251 264 252
f 251 262 264
f 252 264 263
f 254 265 253
f 257 266 254
f 254 266 265
f 253 267 255
f 253 265 267
f 255 268 256
f 255 267 268
f 259 269 257
f 257 269 266
f 256 270 258
f 256 268 270
f 258 271 260
f 258 270 271
f 261 272 259
f 259 272 269
f 260 273 262
f 260 271 273
f 263 274 261
f 261 274 272
f 264 275 263
f 263 275 274
f 262 276 264
f 262 273 276
f 264 276 275
f 265 277 267
f 266 278 265
f 265 278 277
f 267 279 268
f 267 277 279
f 269 280 266
f 266 280 278
f 268 281 270
f 268 279 281
f 270 282 271
f 270 281 282
f 272 283 269
f 269 283 280
f 271 284 273
f 271 282 284
f 274 285 272
f 272 285 283
f 275 286 274
f 274 286 285
f 273 287 276
f 273 284 287
f 276 288 275
f 275 288 286
f 276 287 288
f 278 289 277
f 277 290 279
f 277 289 290
f 280 291 278
f 278 291 289
f 279 292 281
f 279 290 292
f 283 293 280
f 280 293 291
f 281 294 282
f 281 292 294
f 285 295 283
f 283 295 293
f 282 296 284
f 282 294 296
f 286 297 285
f 285 297 295
f 284 298 287
f 284 296 298
f 288 299 286
f 286 299 297
f 287 300 288
f 287 298 300
f 288 300 299
f 289 301 290
f 291 302 289
f 289 302 301
f 290 303 292
f 290 301 303
f 293 304 291
f 291 304 302
f 292 305 294
f 292 303 305
f 295 306 293
f 293 306 304
f 294 307 296
f 294 305 307
f 297 308 295
f 295 308 306
f 296 309 298
f 296 307 309
f 299 310 297
f 297 310 308
f 298 311 300
f 298 309 311
f 300 312 299
f 299 312 310
f 300 311 312
f 313 314 315
f 315 316 317
f 315 314 316
f 318 319 313
f 313 319 314
f 317 320 321
f 317 316 320
f 322 323 318
f 318 323 319
f 321 324 325
f 321 320 324
f 319 326 314
f 314 327 316
f 314 326 327
f 322 328 323
f 329 328 322
f 323 330 319
f 319 330 326
f 316 331 320
f 316 327 331
f 325 332 333
f 325 324 332
f 328 334 323
f 323 334 330
f 320 335 324
f 320 331 335
f 329 336 328
f 337 336 329
f 336 338 328
f 328 338 334
f 333 339 340
f 333 332 339
f 341 342 337
f 337 342 336
f 324 343 332
f 324 335 343
f 340 344 341
f 340 339 344
f 341 344 342
f 342 345 336
f 336 345 338
f 332 346 339
f 332 343 346
f 344 347 342
f 342 347 345
f 330 348 326
f 326 349 327
f 326 348 349
f 339 350 344
f 339 346 350
f 334 351 330
f 330 351 348
f 344 350 347
f 327 352 331
f 327 349 352
f 338 353 334
f 334 353 351
f 331 354 335
f 331 352 354
f 345 355 338
f 338 355 353
f 335 356 343
f 335 354 356
f 347 357 345
f 345 357 355
f 343 358 346
f 343 356 358
f 350 359 347
f 347 359 357
f 346 360 350
f 346 358 360
f 350 360 359
f 348 361 349
f 351 362 348
f 348 362 361
f 349 363 352
f 349 361 363
f 353 364 351
f 351 364 362
f 352 365 354
f 352 363 365
f 355 366 353
f 353 366 364
f 354 367 356
f 354 365 367
f 357 368 355
f 355 368 366
f 356 369 358
f 356 367 369
f 359 370 357
f 357 370 368
f 358 371 360
f 358 369 371
f 360 372 359
f 359 372 370
f 360 371 372
f 362 373 361
f 364 374 362
f 362 374 373
f 361 375 363
f 361 373 375
f 366 376 364
f 364 376 374
f 363 377 365
f 363 375 377
f 368 378 366
f 366 378 376
f 365 379 367
f 365 377 379
f 370 380 368
f 368 380 378
f 367 381 369
f 367 379 381
f 372 382 370
f 370 382 380
f 369 383 371
f 369 381 383
f 371 384 372
f 372 384 382
f 371 383 384
f 374 385 373
f 376 386 374
f 374 386 385
f 373 387 375
f 373 385 387
f 378 388 376
f 376 388 386
f 375 389 377
f 375 387 389
f 380 390 378
f 378 390 388
f 377 391 379
f 377 389 391
f 382 392 380
f 380 392 390
f 379 393 381
f 379 391 393
f 384 394 382
f 382 394 392
f 381 395 383
f 381 393 395
f 383 396 384
f 384 396 394
f 383 395 396
f 386 397 385
f 388 398 386
f 386 398 397
f 385 399 387
f 385 397 399
f 390 400 388
f 388 400 398
f 387 401 389
f 387 399 401
f 392 402 390
f 390 402 400
f 389 403 391
f 389 401 403
f 394 404 392
f 392 404 402
f 391 405 393
f 391 403 405
f 396 406 394
f 394 406 404
f 393 407 395
f 393 405 407
f 395 408 396
f 396 408 406
f 395 407 408
f 400 409 398
f 402 410 400
f 400 410 409
f 398 411 397
f 398 409 411
f 397 412 399
f 397 411 412
f 404 413 402
f 402 413 410
f 399 414 401
f 399 412 414
f 406 415 404
f 404 415 413
f 401 416 403
f 401 414 416
f 408 417 406
f 406 417 415
f 403 418 405
f 403 416 418
f 407 419 408
f 408 419 417
f 405 420 407
f 407 420 419
f 405 418 420
f 413 421 410
f 410 422 409
f 410 421 422
f 415 423 413
f 413 423 421
f 409 424 411
f 409 422 424
f 411 425 412
f 411 424 425
f 417 426 415
f 415 426 423
f 419 427 417
f 417 427 426
f 412 428 414
f 412 425 428
f 420 429 419
f 419 429 427
f 414 430 416
f 414 428 430
f 418 431 420
f 420 431 429
f 416 432 418
f 418 432 431
f 416 430 432
f 423 433 421
f 426 434 423
f 423 434 433
f 421 435 422
f 421 433 435
f 422 436 424
f 422 435 436
f 427 437 426
f 426 437 434
f 424 438 425
f 424 436 438
f 429 439 427
f 427 439 437
f 425 440 428
f 425 438 440
f 431 441 429
f 429 441 439
f 428 442 430
f 428 440 442
f 432 443 431
f 431 443 441
f 430 444 432
f 432 444 443
f 430 442 444
f 434 445 433
f 433 446 435
f 433 445 446
f 437 447 434
f 434 447 445
f 439 448 437
f 437 448 447
f 435 449 436
f 435 446 449
f 441 450 439
f 439 450 448
f 436 451 438
f 436 449 451
f 443 452 441
f 441 452 450
f 438 453 440
f 438 451 453
f 444 454 443
f 443 454 452
f 440 455 442
f 440 453 455
f 442 456 444
f 442 455 456
f 444 456 454
f 447 457 445
f 445 458 446
f 445 457 458
f 448 459 447
f 447 459 457
f 450 460 448
f 448 460 459
f 446 461 449
f 446 458 461
f 452 462 450
f 450 462 460
f 449 463 451
f 449 461 463
f 454 464 452
f 452 464 462
f 451 465 453
f 451 463 465
f 456 466 454
f 454 466 464
f 453 467 455
f 453 465 467
f 455 468 456
f 455 467 468
f 456 468 466
f 469 470 471
f 472 473 470
f 472 470 469
f 474 471 475
f 469 471 474
f 476 475 477
f 474 475 476
f 478 479 473
f 478 473 472
f 480 477 481
f 476 477 480
f 482 483 479
f 482 479 478
f 484 481 485
f 480 481 484
f 486 487 483
f 486 483 482
f 488 485 489
f 484 485 488
f 490 491 487
f 490 487 486
f 492 489 491
f 492 491 490
f 488 489 492
f 493 476 480
f 494 474 476
f 494 476 493
f 495 480 484
f 493 480 495
f 496 484 488
f 495 484 496
f 497 488 492
f 496 488 497
f 498 492 490
f 497 492 498
f 499 469 474
f 499 474 494
f 500 490 486
f 498 490 500
f 501 472 469
f 501 469 499
f 502 478 472
f 502 472 501
f 503 482 478
f 503 478 502
f 504 486 482
f 504 482 503
f 500 486 504
f 505 499 494
f 506 494 493
f 505 494 506
f 507 501 499
f 507 499 505
f 508 493 495
f 506 493 508
f 509 502 501
f 509 501 507
f 510 495 496
f 508 495 510
f 511 503 502
f 511 502 509
f 512 496 497
f 510 496 512
f 513 504 503
f 513 503 511
f 514 497 498
f 512 497 514
f 515 500 504
f 515 504 513
f 516 498 500
f 514 498 516
f 516 500 515
f 517 508 510
f 518 506 508
f 518 508 517
f 519 510 512
f 517 510 519
f 520 512 514
f 519 512 520
f 521 505 506
f 521 506 518
f 522 514 516
f 520 514 522
f 523 507 505
f 523 505 521
f 524 516 515
f 522 516 524
f 525 509 507
f 525 507 523
f 526 515 513
f 524 515 526
f 527 511 509
f 527 509 525
f 528 513 511
f 528 511 527
f 526 513 528
f 529 517 519
f 530 518 517
f 530 517 529
f 531 519 520
f 529 519 531
f 532 520 522
f 531 520 532
f 533 521 518
f 533 518 530
f 534 522 524
f 532 522 534
f 535 523 521
f 535 521 533
f 536 524 526
f 534 524 536
f 537 525 523
f 537 523 535
f 538 526 528
f 536 526 538
f 539 527 525
f 539 525 537
f 540 528 527
f 540 527 539
f 538 528 540
f 541 529 531
f 542 530 529
f 542 529 541
f 543 531 532
f 541 531 543
f 544 532 534
f 543 532 544
f 545 533 530
f 545 530 542
f 546 534 536
f 544 534 546
f 547 535 533
f 547 533 545
f 548 536 538
f 546 536 548
f 549 537 535
f 549 535 547
f 550 538 540
f 548 538 550
f 551 539 537
f 551 537 549
f 552 540 539
f 552 539 551
f 550 540 552
f 553 541 543
f 554 542 541
f 554 541 553
f 555 543 544
f 553 543 555
f 556 544 546
f 555 544 556
f 557 545 542
f 557 542 554
f 558 546 548
f 556 546 558
f 559 547 545
f 559 545 557
f 560 548 550
f 558 548 560
f 561 549 547
f 561 547 559
f 562 550 552
f 560 550 562
f 563 551 549
f 563 549 561
f 564 552 551
f 564 551 563
f 562 552 564
f 565 553 555
f 566 554 553
f 566 553 565
f 567 555 556
f 565 555 567
f 568 556 558
f 567 556 568
f 569 557 554
f 569 554 566
f 570 558 560
f 568 558 570
f 571 559 557
f 571 557 569
f 572 560 562
f 570 560 572
f 573 561 559
f 573 559 571
f 574 562 564
f 572 562 574
f 575 563 561
f 575 561 573
f 576 564 563
f 576 563 575
f 574 564 576
f 577 565 567
f 578 566 565
f 578 565 577
f 579 567 568
f 577 567 579
f 580 568 570
f 579 568 580
f 581 569 566
f 581 566 578
f 582 570 572
f 580 570 582
f 583 571 569
f 583 569 581
f 584 572 574
f 582 572 584
f 585 573 571
f 585 571 583
f 586 574 576
f 584 574 586
f 587 575 573
f 587 573 585
f 588 576 575
f 588 575 587
f 586 576 588
f 589 577 579
f 590 578 577
f 590 577 589
f 591 579 580
f 589 579 591
f 592 580 582
f 591 580 592
f 593 581 578
f 593 578 590
f 594 582 584
f 592 582 594
f 595 583 581
f 595 581 593
f 596 584 586
f 594 584 596
f 597 585 583
f 597 583 595
f 598 586 588
f 596 586 598
f 599 587 585
f 599 585 597
f 600 588 587
f 600 587 599
f 598 588 600
f 601 589 591
f 602 591 592
f 601 591 602
f 603 590 589
f 603 589 601
f 604 592 594
f 602 592 604
f 605 593 590
f 605 590 603
f 606 594 596
f 604 594 606
f 607 595 593
f 607 593 605
f 608 596 598
f 606 596 608
f 609 597 595
f 609 595 607
f 610 598 600
f 608 598 610
f 611 599 597
f 611 597 609
f 612 600 599
f 610 600 612
f 612 599 611
f 613 601 602
f 614 602 604
f 613 602 614
f 615 603 601
f 615 601 613
f 616 604 606
f 614 604 616
f 617 605 603
f 617 603 615
f 618 606 608
f 616 606 618
f 619 607 605
f 619 605 617
f 620 608 610
f 618 608 620
f 621 609 607
f 621 607 619
f 622 610 612
f 620 610 622
f 623 611 609
f 623 609 621
f 624 612 611
f 624 611 623
f 622 612 624
