# 
# Wavefront OBJ file
# Created with Kaydara FBX
# 
mtllib c:\users\tjvan\onedrive\documenten\fontys\minor\nx\.mtlmodels\tendinous_arch_of_soleus.r.obj

g Tendinous_arch_of_soleus_r
v -0.102919 0.401416 -0.051328
v -0.102194 0.400874 -0.051663
v -0.102814 0.401436 -0.051552
v -0.102727 0.401193 -0.051394
v -0.102085 0.400625 -0.051506
v -0.102107 0.400831 -0.051489
v -0.102727 0.401392 -0.051378
v -0.102702 0.400946 -0.050990
v -0.102767 0.400868 -0.051162
v -0.102125 0.399098 -0.050266
v -0.102176 0.399005 -0.050435
v -0.102473 0.400941 -0.051341
v -0.102063 0.401038 -0.051552
v -0.102620 0.401553 -0.051431
v -0.102055 0.400879 -0.051301
v -0.102640 0.401455 -0.051209
v -0.102400 0.401019 -0.051172
v -0.102221 0.401083 -0.051289
v -0.102655 0.401467 -0.051207
v -0.102290 0.400997 -0.051456
v -0.101480 0.398636 -0.050405
v -0.101764 0.398763 -0.050378
v -0.101404 0.398760 -0.050268
v -0.101708 0.398873 -0.050220
v -0.102199 0.400914 -0.051472
v -0.101198 0.398607 -0.050598
v -0.101112 0.398739 -0.050475
v -0.100990 0.399819 -0.051689
v -0.100826 0.399913 -0.051609
v -0.101036 0.399819 -0.051883
v -0.102119 0.400841 -0.051487
v -0.101018 0.399844 -0.051684
v -0.101322 0.398163 -0.049773
v -0.101365 0.398052 -0.049933
v -0.100953 0.399786 -0.051695
v -0.102099 0.400824 -0.051490
v -0.100932 0.399892 -0.051510
v -0.100376 0.397950 -0.050185
v -0.100776 0.398017 -0.050104
v -0.100310 0.398093 -0.050062
v -0.100730 0.398134 -0.049949
v -0.100159 0.397831 -0.050169
v -0.100095 0.397967 -0.050037
v -0.100599 0.396946 -0.049368
v -0.100629 0.396884 -0.049556
v -0.099879 0.398813 -0.051888
v -0.099589 0.398338 -0.051108
v -0.099741 0.398943 -0.051824
v -0.099890 0.397967 -0.050630
v -0.099719 0.398200 -0.051173
v -0.099805 0.398114 -0.050525
v -0.099887 0.397179 -0.049722
v -0.099847 0.397260 -0.049544
v -0.099820 0.395550 -0.049285
v -0.099852 0.395520 -0.049480
v -0.099385 0.397048 -0.049786
v -0.099339 0.397124 -0.049606
v -0.098806 0.397245 -0.050333
v -0.099002 0.397145 -0.049994
v -0.098671 0.397381 -0.050276
v -0.098915 0.397265 -0.049860
v -0.099051 0.395870 -0.049665
v -0.098468 0.396099 -0.049795
v -0.099073 0.397598 -0.051888
v -0.098929 0.397552 -0.050804
v -0.098980 0.394074 -0.049203
v -0.099012 0.394045 -0.049399
v -0.099019 0.395900 -0.049470
v -0.098416 0.396142 -0.049607
v -0.098787 0.397689 -0.050770
v -0.098910 0.397713 -0.051888
v -0.098218 0.396239 -0.049866
v -0.098098 0.396325 -0.049731
v -0.098180 0.396188 -0.051089
v -0.098388 0.396231 -0.052284
v -0.098170 0.394537 -0.049611
v -0.097855 0.392823 -0.049202
v -0.097900 0.392790 -0.049395
v -0.098129 0.394568 -0.049418
v -0.098007 0.396287 -0.051109
v -0.098215 0.396328 -0.052312
v -0.098106 0.396237 -0.050150
v -0.097938 0.396342 -0.050118
v -0.097790 0.394695 -0.049697
v -0.097720 0.394734 -0.049514
v -0.097734 0.394857 -0.052663
v -0.097426 0.394820 -0.051364
v -0.097352 0.394855 -0.050344
v -0.097439 0.394850 -0.049959
v -0.097254 0.394918 -0.051391
v -0.097563 0.394954 -0.052701
v -0.097343 0.393147 -0.049540
v -0.097031 0.393304 -0.049777
v -0.097277 0.393185 -0.049355
v -0.096937 0.393349 -0.049607
v -0.097177 0.394950 -0.050330
v -0.097295 0.394923 -0.049841
v -0.096800 0.391544 -0.049193
v -0.096883 0.391502 -0.049370
v -0.096672 0.393467 -0.050045
v -0.097059 0.393459 -0.053030
v -0.096681 0.393468 -0.051631
v -0.096522 0.393543 -0.049938
v -0.096509 0.393566 -0.051661
v -0.096890 0.393556 -0.053076
v -0.096589 0.391736 -0.049611
v -0.096601 0.393481 -0.050484
v -0.096498 0.391780 -0.049438
v -0.096425 0.393577 -0.050475
v -0.096365 0.392091 -0.053314
v -0.095933 0.392115 -0.051877
v -0.096223 0.391912 -0.049887
v -0.096120 0.391959 -0.049722
v -0.096117 0.390119 -0.049208
v -0.096219 0.390074 -0.049373
v -0.095761 0.392213 -0.051909
v -0.096198 0.392189 -0.053365
v -0.095846 0.392101 -0.050638
v -0.095907 0.392067 -0.050127
v -0.095788 0.390322 -0.049710
v -0.095434 0.390502 -0.049980
v -0.095671 0.392196 -0.050630
v -0.095755 0.392143 -0.050021
v -0.095685 0.390367 -0.049545
v -0.095325 0.390548 -0.049819
v -0.095674 0.390730 -0.053595
v -0.095198 0.390764 -0.052116
v -0.095324 0.388737 -0.049341
v -0.095429 0.388695 -0.049506
v -0.095142 0.390661 -0.050206
v -0.095027 0.390861 -0.052150
v -0.095508 0.390827 -0.053651
v -0.094985 0.390737 -0.050108
v -0.095093 0.390718 -0.050820
v -0.095041 0.388908 -0.049808
v -0.094936 0.388950 -0.049643
v -0.094988 0.389372 -0.053849
v -0.094467 0.389408 -0.052351
v -0.094918 0.390815 -0.050817
v -0.094295 0.389504 -0.052387
v -0.094822 0.389468 -0.053909
v -0.094564 0.387318 -0.049484
v -0.094671 0.387277 -0.049647
v -0.094708 0.389084 -0.050065
v -0.094589 0.389132 -0.049911
v -0.094343 0.389335 -0.051025
v -0.094335 0.389371 -0.050578
v -0.094000 0.387650 -0.050171
v -0.094312 0.387477 -0.049928
v -0.094169 0.389432 -0.051032
v -0.094303 0.387995 -0.054101
v -0.093748 0.388041 -0.052590
v -0.094168 0.389454 -0.050505
v -0.093882 0.387699 -0.050017
v -0.094205 0.387518 -0.049764
v -0.094138 0.388090 -0.054164
v -0.093577 0.388137 -0.052628
v -0.093578 0.387978 -0.050691
v -0.093858 0.385912 -0.049571
v -0.093969 0.385866 -0.049731
v -0.093411 0.388061 -0.050620
v -0.093603 0.387961 -0.051233
v -0.093612 0.386078 -0.050037
v -0.093609 0.386609 -0.054345
v -0.093040 0.386667 -0.052823
v -0.093503 0.386121 -0.049875
v -0.093427 0.388056 -0.051245
v -0.093445 0.386704 -0.054409
v -0.092869 0.386762 -0.052865
v -0.093308 0.386250 -0.050275
v -0.093114 0.384550 -0.049680
v -0.093230 0.384500 -0.049835
v -0.093195 0.386297 -0.050117
v -0.092868 0.386598 -0.051426
v -0.092618 0.384872 -0.050383
v -0.092942 0.384668 -0.050117
v -0.092905 0.385218 -0.054585
v -0.092329 0.385289 -0.053047
v -0.092834 0.386609 -0.050798
v -0.092692 0.386693 -0.051437
v -0.092508 0.384916 -0.050222
v -0.092829 0.384715 -0.049959
v -0.092741 0.385313 -0.054651
v -0.092159 0.385385 -0.053090
v -0.092669 0.386691 -0.050721
v -0.092161 0.385206 -0.050759
v -0.092361 0.383192 -0.049798
v -0.092480 0.383139 -0.049950
v -0.092003 0.385282 -0.050664
v -0.092200 0.383330 -0.050233
v -0.092173 0.383794 -0.054822
v -0.091615 0.383912 -0.053254
v -0.092137 0.385244 -0.051625
v -0.092083 0.383380 -0.050079
v -0.092009 0.383889 -0.054887
v -0.091445 0.384007 -0.053299
v -0.091961 0.385338 -0.051633
v -0.091899 0.383526 -0.050517
v -0.091786 0.383571 -0.050358
v -0.091589 0.381896 -0.049952
v -0.091707 0.381843 -0.050105
v -0.091409 0.383896 -0.051805
v -0.091170 0.382202 -0.050646
v -0.091438 0.382030 -0.050379
v -0.091421 0.382385 -0.054989
v -0.090893 0.382524 -0.053438
v -0.091440 0.383861 -0.050895
v -0.091234 0.383993 -0.051815
v -0.091050 0.382252 -0.050494
v -0.091320 0.382082 -0.050226
v -0.090723 0.382619 -0.053483
v -0.091257 0.382480 -0.055053
v -0.091282 0.383936 -0.050799
v -0.090653 0.382588 -0.051198
v -0.090488 0.382670 -0.051121
v -0.090825 0.380613 -0.050105
v -0.090943 0.380561 -0.050258
v -0.090693 0.380738 -0.050513
v -0.090660 0.380959 -0.055157
v -0.090158 0.381122 -0.053590
v -0.090695 0.382544 -0.051986
v -0.090575 0.380791 -0.050361
v -0.089987 0.381217 -0.053634
v -0.090495 0.381053 -0.055220
v -0.090520 0.382640 -0.052003
v -0.090436 0.380900 -0.050769
v -0.090313 0.380954 -0.050620
v -0.090086 0.379358 -0.050250
v -0.090187 0.379285 -0.050407
v -0.089980 0.381184 -0.052119
v -0.089805 0.381278 -0.052141
v -0.089690 0.379619 -0.050908
v -0.089947 0.379467 -0.050656
v -0.089831 0.379488 -0.055224
v -0.089417 0.379724 -0.053683
v -0.089937 0.381265 -0.051345
v -0.089577 0.379699 -0.050764
v -0.089845 0.379541 -0.050500
v -0.089258 0.379838 -0.053726
v -0.089677 0.379601 -0.055284
v -0.089769 0.381348 -0.051276
v -0.089226 0.379953 -0.051490
v -0.089068 0.380059 -0.051430
v -0.088986 0.378085 -0.050099
v -0.089049 0.377976 -0.050254
v -0.089262 0.379833 -0.052195
v -0.088790 0.378139 -0.050462
v -0.088729 0.378252 -0.050309
v -0.088738 0.378235 -0.055340
v -0.088354 0.378542 -0.053801
v -0.089099 0.379947 -0.052219
v -0.088578 0.378374 -0.050718
v -0.088211 0.378676 -0.053844
v -0.088598 0.378364 -0.055402
v -0.088495 0.378499 -0.050586
v -0.088278 0.378682 -0.052245
v -0.088134 0.378819 -0.052267
v -0.088192 0.378687 -0.051490
v -0.088060 0.378832 -0.051448
v -0.088081 0.377313 -0.049687
v -0.088121 0.377186 -0.049836
v -0.087368 0.377665 -0.050445
v -0.087955 0.377324 -0.049998
v -0.087547 0.376874 -0.055359
v -0.087227 0.377368 -0.053810
v -0.087289 0.377812 -0.050335
v -0.087914 0.377450 -0.049848
v -0.087088 0.377502 -0.053861
v -0.087409 0.377000 -0.055429
v -0.087166 0.377792 -0.051065
v -0.087045 0.377948 -0.051034
v -0.087145 0.377646 -0.052234
v -0.087009 0.377790 -0.052258
v -0.086973 0.376282 -0.049115
v -0.087002 0.376168 -0.049276
v -0.086802 0.376280 -0.049425
v -0.086765 0.376401 -0.049270
v -0.086368 0.375563 -0.055207
v -0.086023 0.376182 -0.053671
v -0.085884 0.376313 -0.053731
v -0.086230 0.375685 -0.055286
v -0.086268 0.376655 -0.049890
v -0.086182 0.376803 -0.049786
v -0.085937 0.376555 -0.052091
v -0.085984 0.376724 -0.050925
v -0.085801 0.376698 -0.052120
v -0.085854 0.376876 -0.050911
v -0.086010 0.375010 -0.048525
v -0.086015 0.374919 -0.048703
v -0.085164 0.375697 -0.049484
v -0.085704 0.375286 -0.048881
v -0.085072 0.375847 -0.049389
v -0.085674 0.375400 -0.048719
v -0.085026 0.374252 -0.054795
v -0.084773 0.374984 -0.053410
v -0.084833 0.375707 -0.050569
v -0.084633 0.375112 -0.053476
v -0.084888 0.374370 -0.054880
v -0.084704 0.375860 -0.050556
v -0.085007 0.374126 -0.048120
v -0.084992 0.374052 -0.048305
v -0.084755 0.375513 -0.051726
v -0.084618 0.375655 -0.051756
v -0.084629 0.374441 -0.048456
v -0.084604 0.374552 -0.048291
v -0.084178 0.374764 -0.049008
v -0.084089 0.374916 -0.048913
v -0.083657 0.373058 -0.054183
v -0.083560 0.373940 -0.052849
v -0.084024 0.373123 -0.047705
v -0.083990 0.373071 -0.047895
v -0.083420 0.374068 -0.052915
v -0.083518 0.373173 -0.054270
v -0.083643 0.374555 -0.051166
v -0.083777 0.374796 -0.050033
v -0.083506 0.374699 -0.051195
v -0.083650 0.374949 -0.050016
v -0.083210 0.373778 -0.048436
v -0.083620 0.373496 -0.047928
v -0.083128 0.373924 -0.048328
v -0.083605 0.373594 -0.047754
v -0.082769 0.373939 -0.049391
v -0.082646 0.374094 -0.049361
v -0.083156 0.372186 -0.047335
v -0.083109 0.372152 -0.047526
v -0.082371 0.373050 -0.052121
v -0.082343 0.372087 -0.053363
v -0.082573 0.373636 -0.050579
v -0.082882 0.372473 -0.047517
v -0.082892 0.372549 -0.047332
v -0.082233 0.373181 -0.052184
v -0.082204 0.372203 -0.053448
v -0.082438 0.373783 -0.050601
v -0.082394 0.372898 -0.047884
v -0.082171 0.371487 -0.046980
v -0.082328 0.373035 -0.047755
v -0.082084 0.371425 -0.047149
v -0.081888 0.371736 -0.047147
v -0.081938 0.371843 -0.046986
v -0.081584 0.372814 -0.049783
v -0.081931 0.373073 -0.048562
v -0.081454 0.372966 -0.049790
v -0.081817 0.373228 -0.048507
v -0.081160 0.372166 -0.047928
v -0.081570 0.372041 -0.047372
v -0.081193 0.372316 -0.051129
v -0.081064 0.371536 -0.052069
v -0.081543 0.372202 -0.047256
v -0.081078 0.372340 -0.047873
v -0.081060 0.372456 -0.051180
v -0.080927 0.371659 -0.052148
v -0.081256 0.371066 -0.045842
v -0.081154 0.370951 -0.045970
v -0.080617 0.371740 -0.046384
v -0.081019 0.371483 -0.045974
v -0.080617 0.371556 -0.046464
v -0.080953 0.371333 -0.046089
v -0.080111 0.371638 -0.050115
v -0.080663 0.372093 -0.048924
v -0.080554 0.372261 -0.048921
v -0.079989 0.371791 -0.050154
v -0.080054 0.370637 -0.044361
v -0.079983 0.370488 -0.044474
v -0.079751 0.371634 -0.047876
v -0.080294 0.371715 -0.046998
v -0.080248 0.371904 -0.046954
v -0.079664 0.371814 -0.047873
v -0.079765 0.370979 -0.050931
v -0.079601 0.371081 -0.044689
v -0.079569 0.370907 -0.044782
v -0.079637 0.371119 -0.050995
v -0.078982 0.371057 -0.048940
v -0.079245 0.371223 -0.045851
v -0.079357 0.371050 -0.045248
v -0.079196 0.371412 -0.045810
v -0.079335 0.371240 -0.045188
v -0.078869 0.371220 -0.048971
v -0.078748 0.370068 -0.042669
v -0.078698 0.369903 -0.042770
v -0.078450 0.370457 -0.049647
v -0.078790 0.371148 -0.046559
v -0.077680 0.370400 -0.047461
v -0.078704 0.371328 -0.046552
v -0.077571 0.370567 -0.047482
v -0.078332 0.370612 -0.049692
v -0.077887 0.370535 -0.043487
v -0.078185 0.370427 -0.043058
v -0.077932 0.370346 -0.043534
v -0.078173 0.370245 -0.043140
v -0.077348 0.370266 -0.044555
v -0.077759 0.370347 -0.044002
v -0.077264 0.370447 -0.044540
v -0.077693 0.370533 -0.043968
v -0.077639 0.369430 -0.041084
v -0.077583 0.369268 -0.041187
v -0.076992 0.369791 -0.048162
v -0.076878 0.369952 -0.048195
v -0.076705 0.369787 -0.041667
v -0.077037 0.369773 -0.041382
v -0.076759 0.369599 -0.041708
v -0.077027 0.369590 -0.041462
v -0.076459 0.369528 -0.042030
v -0.076386 0.369712 -0.042002
v -0.075811 0.369459 -0.045319
v -0.076808 0.368758 -0.039724
v -0.076726 0.368613 -0.039835
v -0.075707 0.369630 -0.045333
v -0.076097 0.369466 -0.042579
v -0.075974 0.369612 -0.043868
v -0.076022 0.369649 -0.042553
v -0.075887 0.369792 -0.043861
v -0.075669 0.368859 -0.039705
v -0.076104 0.368959 -0.039808
v -0.076134 0.369135 -0.039719
v -0.075622 0.369048 -0.039659
v -0.075509 0.369031 -0.046561
v -0.075396 0.369193 -0.046589
v -0.076189 0.368105 -0.038586
v -0.076080 0.367985 -0.038704
v -0.075018 0.368588 -0.039641
v -0.074944 0.368772 -0.039613
v -0.075431 0.368507 -0.038219
v -0.075700 0.367490 -0.037607
v -0.075370 0.368348 -0.038323
v -0.074481 0.368765 -0.042228
v -0.074133 0.368258 -0.039801
v -0.073020 0.367858 -0.040107
v -0.075582 0.367387 -0.037731
v -0.074394 0.368945 -0.042217
v -0.074059 0.368441 -0.039773
v -0.072941 0.368041 -0.040088
v -0.074150 0.368614 -0.043503
v -0.074045 0.368784 -0.043518
v -0.073935 0.368207 -0.044959
v -0.075333 0.366785 -0.036669
v -0.074759 0.367949 -0.037105
v -0.073822 0.368369 -0.044988
v -0.074701 0.368202 -0.037931
v -0.073817 0.367810 -0.037685
v -0.074677 0.368390 -0.037868
v -0.073743 0.367994 -0.037657
v -0.074676 0.367808 -0.037221
v -0.075219 0.366688 -0.036802
v -0.074782 0.368634 -0.045907
v -0.074668 0.368796 -0.045935
v -0.075016 0.365984 -0.035851
v -0.074379 0.367241 -0.036145
v -0.074914 0.365910 -0.036007
v -0.074274 0.367138 -0.036281
v -0.074550 0.364786 -0.035216
v -0.074117 0.366275 -0.035455
v -0.074458 0.364732 -0.035386
v -0.074023 0.366209 -0.035618
v -0.073980 0.367910 -0.036631
v -0.073978 0.367728 -0.036713
v -0.073230 0.367414 -0.036620
v -0.073152 0.367592 -0.036574
v -0.074220 0.363429 -0.034607
v -0.073775 0.364989 -0.034860
v -0.071863 0.367340 -0.041671
v -0.074128 0.363376 -0.034776
v -0.073691 0.364931 -0.035032
v -0.071770 0.367517 -0.041671
v -0.073618 0.367463 -0.035670
v -0.073618 0.367324 -0.035814
v -0.073813 0.362122 -0.033970
v -0.073430 0.363649 -0.034248
v -0.072562 0.367545 -0.043251
v -0.073721 0.362069 -0.034140
v -0.073342 0.363592 -0.034418
v -0.072613 0.367355 -0.037864
v -0.072107 0.367299 -0.038831
v -0.072943 0.364982 -0.034541
v -0.073142 0.366295 -0.035073
v -0.072538 0.367538 -0.037835
v -0.072033 0.367483 -0.038803
v -0.072456 0.367714 -0.043266
v -0.072968 0.364900 -0.034721
v -0.073169 0.366205 -0.035250
v -0.072774 0.367026 -0.036184
v -0.072663 0.367156 -0.036080
v -0.073176 0.361989 -0.033583
v -0.072486 0.367149 -0.036840
v -0.072833 0.363652 -0.033956
v -0.072401 0.367323 -0.036791
v -0.073085 0.361936 -0.033753
v -0.072840 0.363575 -0.034140
v -0.072315 0.365620 -0.035738
v -0.072186 0.365705 -0.035611
v -0.072652 0.362016 -0.033318
v -0.072618 0.361947 -0.033503
v -0.071234 0.367129 -0.040022
v -0.072077 0.364351 -0.035119
v -0.071959 0.364432 -0.034980
v -0.071155 0.367312 -0.040003
v -0.072492 0.363167 -0.034141
v -0.072404 0.363246 -0.033980
v -0.072177 0.366899 -0.036771
v -0.072054 0.367029 -0.036683
v -0.072514 0.362073 -0.033337
v -0.072591 0.361994 -0.033503
v -0.072183 0.367099 -0.037307
v -0.072042 0.367143 -0.037970
v -0.072099 0.367276 -0.037267
v -0.071967 0.367325 -0.037940
v -0.071713 0.365598 -0.036403
v -0.071573 0.365683 -0.036288
v -0.071677 0.366948 -0.037652
v -0.071559 0.367094 -0.037582
v -0.071057 0.366808 -0.038369
v -0.070959 0.366975 -0.038320
usemtl Tendinous_arch_of_soleus_rMaterial0
f 1 2 3
f 1 4 5
f 1 5 2
f 3 6 7
f 3 2 6
f 8 7 9
f 10 8 9
f 11 9 12
f 10 9 11
f 13 4 14
f 4 15 5
f 13 15 4
f 8 16 7
f 10 17 8
f 16 18 19
f 18 14 19
f 16 17 18
f 18 13 14
f 12 20 21
f 11 12 22
f 12 21 22
f 17 23 18
f 10 24 17
f 17 24 23
f 20 25 26
f 20 26 21
f 18 27 13
f 18 23 27
f 2 28 6
f 2 5 29
f 2 30 28
f 2 29 30
f 25 31 32
f 25 32 26
f 33 10 11
f 34 11 22
f 33 11 34
f 33 24 10
f 35 31 36
f 35 32 31
f 6 35 36
f 6 28 35
f 29 5 15
f 15 13 37
f 29 15 37
f 13 27 37
f 38 22 21
f 34 22 39
f 38 39 22
f 40 23 24
f 33 41 24
f 40 24 41
f 42 21 26
f 42 38 21
f 43 27 23
f 43 23 40
f 44 33 34
f 45 34 39
f 44 34 45
f 44 41 33
f 42 26 32
f 43 37 27
f 30 46 28
f 30 29 47
f 30 48 46
f 30 47 48
f 49 32 35
f 42 32 49
f 35 28 46
f 49 35 50
f 35 46 50
f 51 29 37
f 43 51 37
f 51 47 29
f 45 39 52
f 38 52 39
f 44 53 41
f 40 41 53
f 54 44 45
f 55 45 52
f 54 45 55
f 54 53 44
f 42 56 38
f 38 56 52
f 43 40 57
f 40 53 57
f 58 42 49
f 42 59 56
f 58 59 42
f 60 51 43
f 43 57 61
f 60 43 61
f 55 52 62
f 63 52 56
f 63 62 52
f 58 49 50
f 48 64 46
f 46 65 50
f 46 64 65
f 66 54 55
f 67 55 62
f 66 55 67
f 54 68 53
f 69 57 53
f 69 53 68
f 66 68 54
f 60 47 51
f 48 47 70
f 48 71 64
f 48 70 71
f 58 50 65
f 60 70 47
f 72 56 59
f 72 63 56
f 73 61 57
f 73 57 69
f 64 74 65
f 71 75 64
f 64 75 74
f 67 62 76
f 63 76 62
f 77 66 67
f 78 67 76
f 77 67 78
f 66 79 68
f 69 68 79
f 72 59 58
f 77 79 66
f 58 65 74
f 73 60 61
f 71 70 80
f 71 81 75
f 71 80 81
f 72 58 82
f 58 74 82
f 60 80 70
f 73 83 60
f 60 83 80
f 72 84 63
f 63 84 76
f 69 79 85
f 73 69 85
f 81 86 75
f 75 87 74
f 75 86 87
f 88 72 82
f 72 89 84
f 88 89 72
f 81 80 90
f 81 91 86
f 81 90 91
f 88 82 74
f 88 74 87
f 78 76 92
f 93 76 84
f 93 92 76
f 77 94 79
f 95 85 79
f 95 79 94
f 96 83 73
f 73 85 97
f 96 73 97
f 96 80 83
f 96 90 80
f 98 77 78
f 99 78 92
f 98 78 99
f 98 94 77
f 100 84 89
f 100 93 84
f 91 101 86
f 86 102 87
f 86 101 102
f 103 97 85
f 103 85 95
f 91 90 104
f 91 105 101
f 91 104 105
f 100 89 88
f 88 87 102
f 93 106 92
f 99 92 106
f 88 102 107
f 100 88 107
f 103 96 97
f 95 94 108
f 98 108 94
f 96 104 90
f 103 109 96
f 96 109 104
f 105 110 101
f 101 111 102
f 101 110 111
f 100 112 93
f 93 112 106
f 103 95 113
f 95 108 113
f 114 98 99
f 115 99 106
f 114 99 115
f 105 104 116
f 105 117 110
f 105 116 117
f 114 108 98
f 118 107 102
f 118 102 111
f 118 100 107
f 100 119 112
f 118 119 100
f 115 106 120
f 121 106 112
f 121 120 106
f 122 109 103
f 103 113 123
f 122 103 123
f 122 104 109
f 122 116 104
f 114 124 108
f 125 113 108
f 125 108 124
f 117 126 110
f 110 127 111
f 110 126 127
f 128 114 115
f 129 115 120
f 128 115 129
f 130 112 119
f 130 121 112
f 117 116 131
f 117 132 126
f 117 131 132
f 128 124 114
f 133 123 113
f 133 113 125
f 118 111 127
f 130 119 118
f 118 127 134
f 130 118 134
f 129 120 135
f 121 135 120
f 133 122 123
f 122 131 116
f 128 136 124
f 125 124 136
f 132 137 126
f 126 138 127
f 126 137 138
f 122 139 131
f 133 139 122
f 132 131 140
f 132 141 137
f 132 140 141
f 142 128 129
f 143 129 135
f 142 129 143
f 130 144 121
f 121 144 135
f 142 136 128
f 133 125 145
f 125 136 145
f 146 134 127
f 146 127 138
f 146 130 134
f 130 147 144
f 146 147 130
f 148 135 144
f 143 135 149
f 148 149 135
f 150 131 139
f 150 140 131
f 141 151 137
f 137 152 138
f 137 151 152
f 150 139 133
f 133 145 153
f 150 133 153
f 154 145 136
f 142 155 136
f 154 136 155
f 141 156 151
f 141 140 157
f 141 157 156
f 158 144 147
f 158 148 144
f 159 142 143
f 160 143 149
f 159 143 160
f 161 153 145
f 161 145 154
f 159 155 142
f 146 138 152
f 158 147 146
f 146 152 162
f 158 146 162
f 148 163 149
f 160 149 163
f 156 164 151
f 151 165 152
f 151 164 165
f 150 157 140
f 154 155 166
f 159 166 155
f 161 150 153
f 150 167 157
f 161 167 150
f 156 168 164
f 156 157 169
f 156 169 168
f 148 170 163
f 158 170 148
f 171 159 160
f 172 160 163
f 171 160 172
f 154 166 173
f 161 154 173
f 171 166 159
f 174 162 152
f 174 152 165
f 175 163 170
f 172 163 176
f 175 176 163
f 168 177 164
f 164 178 165
f 164 177 178
f 174 158 162
f 158 179 170
f 174 179 158
f 180 157 167
f 180 169 157
f 181 173 166
f 171 182 166
f 181 166 182
f 168 183 177
f 168 169 184
f 168 184 183
f 180 167 161
f 161 173 185
f 180 161 185
f 186 170 179
f 186 175 170
f 187 171 172
f 188 172 176
f 187 172 188
f 189 185 173
f 189 173 181
f 187 182 171
f 174 165 178
f 175 190 176
f 188 176 190
f 183 191 177
f 177 192 178
f 177 191 192
f 186 179 174
f 174 178 193
f 186 174 193
f 180 184 169
f 181 182 194
f 187 194 182
f 183 195 191
f 183 184 196
f 183 196 195
f 189 180 185
f 180 197 184
f 189 197 180
f 175 198 190
f 186 198 175
f 181 194 199
f 189 181 199
f 200 187 188
f 201 188 190
f 200 188 201
f 200 194 187
f 202 193 178
f 202 178 192
f 203 190 198
f 201 190 204
f 203 204 190
f 195 205 191
f 191 206 192
f 191 205 206
f 202 186 193
f 186 207 198
f 202 207 186
f 208 184 197
f 208 196 184
f 209 199 194
f 200 210 194
f 209 194 210
f 195 196 211
f 195 212 205
f 195 211 212
f 208 197 189
f 189 199 213
f 208 189 213
f 214 198 207
f 214 203 198
f 215 213 199
f 215 199 209
f 216 200 201
f 217 201 204
f 216 201 217
f 202 192 206
f 216 210 200
f 203 218 204
f 217 204 218
f 214 207 202
f 208 211 196
f 212 219 205
f 205 220 206
f 205 219 220
f 202 206 221
f 214 202 221
f 209 210 222
f 216 222 210
f 215 208 213
f 212 211 223
f 212 224 219
f 212 223 224
f 208 225 211
f 215 225 208
f 203 226 218
f 214 226 203
f 209 222 227
f 215 209 227
f 228 216 217
f 229 217 218
f 228 217 229
f 230 221 206
f 230 206 220
f 228 222 216
f 231 211 225
f 231 223 211
f 232 218 226
f 229 218 233
f 232 233 218
f 230 214 221
f 224 234 219
f 219 235 220
f 219 234 235
f 214 236 226
f 230 236 214
f 237 227 222
f 228 238 222
f 237 222 238
f 231 225 215
f 224 223 239
f 224 240 234
f 224 239 240
f 215 227 241
f 231 215 241
f 242 226 236
f 242 232 226
f 243 241 227
f 243 227 237
f 244 228 229
f 245 229 233
f 244 229 245
f 230 220 235
f 244 238 228
f 242 236 230
f 230 235 246
f 242 230 246
f 231 239 223
f 232 247 233
f 245 233 247
f 237 238 248
f 244 248 238
f 240 249 234
f 234 250 235
f 234 249 250
f 243 231 241
f 231 251 239
f 243 251 231
f 242 252 232
f 232 252 247
f 240 239 253
f 240 254 249
f 240 253 254
f 243 237 255
f 237 248 255
f 256 246 235
f 256 235 250
f 257 239 251
f 257 253 239
f 256 242 246
f 242 258 252
f 256 258 242
f 257 251 243
f 243 255 259
f 257 243 259
f 260 244 245
f 261 245 247
f 260 245 261
f 260 248 244
f 262 247 252
f 261 247 263
f 262 263 247
f 254 264 249
f 249 265 250
f 249 264 265
f 266 255 248
f 260 267 248
f 266 248 267
f 254 253 268
f 254 269 264
f 254 268 269
f 270 252 258
f 270 262 252
f 271 259 255
f 271 255 266
f 256 250 265
f 270 258 256
f 256 265 272
f 270 256 272
f 257 268 253
f 271 257 259
f 257 273 268
f 271 273 257
f 274 260 261
f 275 261 263
f 274 261 275
f 274 267 260
f 262 276 263
f 275 263 276
f 266 267 277
f 274 277 267
f 269 278 264
f 264 279 265
f 264 278 279
f 269 268 280
f 269 281 278
f 269 280 281
f 270 282 262
f 262 282 276
f 271 266 283
f 266 277 283
f 284 272 265
f 284 265 279
f 284 270 272
f 270 285 282
f 284 285 270
f 286 268 273
f 286 280 268
f 286 273 271
f 271 283 287
f 286 271 287
f 288 274 275
f 289 275 276
f 288 275 289
f 288 277 274
f 290 276 282
f 289 276 291
f 290 291 276
f 292 283 277
f 288 293 277
f 292 277 293
f 281 294 278
f 278 295 279
f 278 294 295
f 296 282 285
f 296 290 282
f 281 280 297
f 281 298 294
f 281 297 298
f 299 287 283
f 299 283 292
f 300 288 289
f 301 289 291
f 300 289 301
f 300 293 288
f 284 279 295
f 296 285 284
f 296 284 302
f 284 295 302
f 286 297 280
f 299 286 287
f 299 303 286
f 286 303 297
f 290 304 291
f 301 291 304
f 292 293 305
f 300 305 293
f 296 306 290
f 290 306 304
f 299 292 307
f 292 305 307
f 298 308 294
f 294 309 295
f 294 308 309
f 310 300 301
f 310 305 300
f 311 301 304
f 310 301 311
f 298 297 312
f 298 313 308
f 298 312 313
f 314 296 302
f 296 315 306
f 314 315 296
f 314 302 295
f 314 295 309
f 316 303 299
f 299 307 317
f 316 299 317
f 318 304 306
f 311 304 319
f 318 319 304
f 316 297 303
f 316 312 297
f 320 307 305
f 310 321 305
f 320 305 321
f 322 306 315
f 322 318 306
f 323 317 307
f 323 307 320
f 324 310 311
f 324 321 310
f 325 311 319
f 324 311 325
f 322 315 314
f 308 326 309
f 313 327 308
f 308 327 326
f 314 309 326
f 322 314 328
f 314 326 328
f 323 316 317
f 318 329 319
f 325 319 329
f 324 330 321
f 320 321 330
f 313 312 331
f 313 332 327
f 313 331 332
f 316 331 312
f 323 333 316
f 316 333 331
f 318 334 329
f 322 334 318
f 335 324 325
f 335 330 324
f 320 330 336
f 323 320 336
f 337 325 329
f 335 325 337
f 334 338 329
f 337 329 338
f 336 330 339
f 335 339 330
f 340 322 328
f 322 341 334
f 340 341 322
f 342 333 323
f 323 336 343
f 342 323 343
f 340 328 326
f 342 331 333
f 344 334 341
f 334 345 338
f 344 345 334
f 327 346 326
f 340 326 346
f 332 347 327
f 327 347 346
f 336 339 348
f 349 343 336
f 349 336 348
f 332 331 350
f 342 350 331
f 332 351 347
f 332 350 351
f 352 335 337
f 352 339 335
f 353 337 338
f 352 337 353
f 354 348 339
f 352 355 339
f 354 339 355
f 344 341 340
f 356 338 345
f 353 338 357
f 356 357 338
f 349 342 343
f 340 346 358
f 344 340 359
f 340 358 359
f 356 345 344
f 354 349 348
f 349 360 342
f 342 361 350
f 342 360 361
f 362 352 353
f 362 355 352
f 347 358 346
f 363 353 357
f 362 353 363
f 344 359 364
f 356 344 365
f 344 364 365
f 354 366 349
f 349 367 360
f 349 366 367
f 351 368 347
f 347 368 358
f 351 350 361
f 354 355 369
f 362 369 355
f 356 370 357
f 363 357 370
f 351 361 371
f 351 371 368
f 359 358 372
f 359 372 364
f 373 356 365
f 356 374 370
f 373 374 356
f 375 366 354
f 354 369 376
f 375 354 376
f 360 377 361
f 360 367 377
f 373 365 364
f 375 367 366
f 368 372 358
f 378 362 363
f 378 369 362
f 379 363 370
f 378 363 379
f 371 361 377
f 371 380 368
f 368 380 372
f 373 364 381
f 364 372 382
f 364 382 381
f 375 383 367
f 367 384 377
f 367 383 384
f 371 377 385
f 371 385 380
f 386 376 369
f 378 387 369
f 386 369 387
f 388 370 374
f 379 370 389
f 388 389 370
f 388 374 373
f 386 375 376
f 373 381 390
f 388 373 391
f 373 390 391
f 375 392 383
f 386 393 375
f 375 393 392
f 380 382 372
f 385 377 384
f 382 390 381
f 394 378 379
f 394 387 378
f 395 379 389
f 394 379 395
f 384 383 392
f 385 396 380
f 380 396 382
f 385 384 397
f 385 397 396
f 398 386 387
f 394 399 387
f 398 387 399
f 400 389 388
f 395 389 401
f 400 401 389
f 402 388 391
f 402 400 388
f 403 393 386
f 403 386 398
f 390 402 391
f 392 393 403
f 382 404 390
f 396 404 382
f 405 394 395
f 405 399 394
f 406 395 401
f 405 395 406
f 384 392 407
f 397 384 407
f 390 408 402
f 390 409 408
f 390 404 409
f 392 403 410
f 411 392 410
f 411 407 392
f 412 401 400
f 406 401 413
f 412 413 401
f 405 414 399
f 415 398 399
f 415 399 414
f 397 416 396
f 396 416 404
f 397 407 417
f 397 417 416
f 418 405 406
f 418 414 405
f 402 412 400
f 418 406 419
f 419 406 413
f 403 398 415
f 408 420 402
f 402 420 412
f 410 403 421
f 403 415 421
f 418 422 414
f 423 418 419
f 423 422 418
f 415 414 422
f 419 413 424
f 412 424 413
f 409 425 408
f 408 426 420
f 408 425 427
f 408 427 426
f 423 419 428
f 428 419 424
f 411 410 429
f 410 421 430
f 410 431 429
f 410 430 431
f 432 409 404
f 432 425 409
f 433 407 411
f 433 411 429
f 434 404 416
f 434 432 404
f 435 423 428
f 423 436 422
f 435 436 423
f 437 417 407
f 437 407 433
f 412 438 424
f 412 420 439
f 412 439 438
f 415 422 440
f 415 441 421
f 415 440 441
f 428 424 442
f 435 428 443
f 443 428 442
f 417 444 416
f 434 416 444
f 440 422 436
f 417 445 444
f 437 445 417
f 438 442 424
f 446 435 443
f 446 447 435
f 435 447 436
f 446 443 448
f 448 443 449
f 443 442 449
f 450 446 448
f 450 451 446
f 446 451 447
f 426 439 420
f 430 421 441
f 450 448 452
f 452 448 453
f 448 449 453
f 445 434 444
f 440 436 454
f 454 436 447
f 438 455 442
f 438 456 455
f 438 439 456
f 455 449 442
f 440 454 457
f 440 457 441
f 445 437 434
f 458 450 452
f 458 459 450
f 450 459 451
f 432 460 425
f 460 427 425
f 458 452 461
f 461 452 462
f 452 453 462
f 433 429 463
f 463 429 431
f 464 447 451
f 454 447 464
f 465 453 449
f 455 465 449
f 466 458 461
f 466 467 458
f 458 467 459
f 434 468 432
f 432 468 460
f 466 461 469
f 469 461 470
f 461 462 470
f 426 471 439
f 472 426 427
f 472 471 426
f 451 459 473
f 464 451 474
f 451 473 474
f 430 441 475
f 476 431 430
f 476 430 475
f 437 433 477
f 433 463 477
f 453 478 462
f 465 479 453
f 453 479 478
f 455 480 465
f 455 456 480
f 454 464 481
f 454 481 457
f 437 468 434
f 482 466 469
f 466 482 467
f 483 456 439
f 483 439 471
f 437 477 468
f 459 467 484
f 459 484 473
f 485 441 457
f 485 475 441
f 469 470 486
f 482 469 486
f 462 487 470
f 462 478 487
f 465 488 479
f 465 480 488
f 464 474 489
f 464 489 481
f 467 482 490
f 467 490 484
f 470 491 486
f 470 487 491
f 483 480 456
f 490 482 486
f 488 478 479
f 489 474 473
f 485 457 481
f 490 486 491
f 472 427 492
f 460 492 427
f 493 487 478
f 488 493 478
f 494 473 484
f 489 473 494
f 476 495 431
f 463 431 495
f 496 491 487
f 493 496 487
f 497 484 490
f 494 484 497
f 483 498 480
f 488 480 498
f 485 481 499
f 489 499 481
f 500 490 491
f 497 490 500
f 500 491 501
f 496 501 491
f 483 471 502
f 471 503 502
f 471 472 503
f 497 500 501
f 497 501 496
f 477 460 468
f 485 504 475
f 475 504 505
f 475 505 476
f 494 497 496
f 494 496 493
f 483 502 498
f 477 463 460
f 485 499 504
f 488 498 506
f 506 493 488
f 489 507 499
f 507 489 494
f 502 508 498
f 506 498 508
f 502 503 508
f 504 499 509
f 504 509 505
f 503 472 510
f 472 492 510
f 507 494 493
f 507 493 506
f 507 509 499
f 503 510 508
f 505 511 476
f 476 511 495
f 505 509 511
f 463 492 460
f 463 495 492
f 506 508 510
f 511 507 506
f 511 506 510
f 507 511 509
f 495 510 492
f 495 511 510
