# 
# Wavefront OBJ file
# Created with Kaydara FBX
# 
mtllib c:\users\tjvan\onedrive\documenten\fontys\minor\nx\.mtlmodels\tibialis_posterior_muscle.r.obj

g Tibialis_posterior_muscle_r
v -0.105427 0.304911 -0.043260
v -0.105200 0.311275 -0.040667
v -0.105573 0.311268 -0.043364
v -0.104573 0.311221 -0.046173
v -0.105373 0.317538 -0.043793
v -0.105029 0.304894 -0.040593
v -0.104816 0.298814 -0.040858
v -0.105157 0.298777 -0.043427
v -0.104170 0.298659 -0.046119
v -0.104530 0.304939 -0.046003
v -0.105084 0.317609 -0.040878
v -0.104756 0.323822 -0.041232
v -0.105071 0.323736 -0.044455
v -0.104286 0.323649 -0.047345
v -0.104466 0.317443 -0.046695
v -0.103046 0.311232 -0.038667
v -0.102924 0.304881 -0.038649
v -0.104875 0.292580 -0.043613
v -0.102557 0.323717 -0.038780
v -0.102956 0.317536 -0.038715
v -0.104304 0.329685 -0.041603
v -0.104775 0.329677 -0.044886
v -0.104583 0.353277 -0.040479
v -0.104911 0.353194 -0.043522
v -0.104825 0.347302 -0.044009
v -0.104203 0.353292 -0.046188
v -0.104720 0.358371 -0.043285
v -0.104031 0.358266 -0.045967
v -0.104784 0.292683 -0.041127
v -0.104681 0.286512 -0.043549
v -0.103073 0.286364 -0.045349
v -0.103627 0.292394 -0.045945
v -0.102448 0.292756 -0.039324
v -0.102695 0.298791 -0.038946
v -0.104766 0.341325 -0.044502
v -0.104485 0.347057 -0.040886
v -0.103990 0.341530 -0.047186
v -0.104061 0.347551 -0.046666
v -0.104680 0.286642 -0.041107
v -0.102188 0.286729 -0.039559
v -0.104675 0.335548 -0.044947
v -0.104095 0.329689 -0.047624
v -0.104286 0.341147 -0.041256
v -0.104051 0.358743 -0.040082
v -0.104166 0.362024 -0.043494
v -0.104395 0.280289 -0.043404
v -0.102596 0.280271 -0.044990
v -0.104198 0.280362 -0.041131
v -0.104096 0.335442 -0.041617
v -0.103951 0.335654 -0.047698
v -0.102208 0.304995 -0.048116
v -0.102251 0.311208 -0.048297
v -0.102126 0.346935 -0.038205
v -0.101896 0.359377 -0.037420
v -0.102206 0.353421 -0.037691
v -0.102231 0.317392 -0.048797
v -0.103790 0.274138 -0.043590
v -0.101704 0.335331 -0.038631
v -0.102055 0.329602 -0.038746
v -0.101904 0.329711 -0.049128
v -0.102072 0.323601 -0.049115
v -0.101756 0.341062 -0.038414
v -0.103620 0.274210 -0.041392
v -0.101934 0.280557 -0.039776
v -0.101651 0.353536 -0.046903
v -0.101205 0.292239 -0.047571
v -0.101849 0.298622 -0.048066
v -0.103443 0.362497 -0.040835
v -0.103534 0.362073 -0.045908
v -0.103632 0.366048 -0.042493
v -0.103860 0.366023 -0.044039
v -0.101649 0.335740 -0.048868
v -0.101755 0.347783 -0.047835
v -0.101497 0.363859 -0.039268
v -0.101289 0.362325 -0.044840
v -0.101255 0.358688 -0.045715
v -0.101653 0.341715 -0.048441
v -0.103667 0.368515 -0.043395
v -0.103726 0.368438 -0.044141
v -0.103563 0.367998 -0.044905
v -0.103387 0.366014 -0.045297
v -0.102822 0.267897 -0.041620
v -0.103004 0.267850 -0.043513
v -0.101403 0.268014 -0.044753
v -0.102018 0.274266 -0.045001
v -0.103132 0.369314 -0.043681
v -0.103548 0.369277 -0.044258
v -0.103011 0.368218 -0.042701
v -0.101656 0.274444 -0.040056
v -0.100417 0.286206 -0.046537
v -0.102497 0.366333 -0.041769
v -0.102888 0.368528 -0.044389
v -0.102230 0.366192 -0.044595
v -0.102757 0.368584 -0.043572
v -0.100089 0.311132 -0.036563
v -0.102418 0.261364 -0.043467
v -0.100580 0.261625 -0.044407
v -0.099505 0.323521 -0.036299
v -0.099973 0.317422 -0.036467
v -0.099799 0.298726 -0.037080
v -0.100109 0.304805 -0.036698
v -0.102013 0.261473 -0.041554
v -0.100256 0.261797 -0.040295
v -0.101098 0.268124 -0.040256
v -0.101693 0.366204 -0.043075
v -0.099329 0.274410 -0.045451
v -0.099813 0.280292 -0.045741
v -0.098979 0.329411 -0.035979
v -0.099391 0.292780 -0.037543
v -0.100893 0.255039 -0.043103
v -0.099008 0.311316 -0.049145
v -0.098975 0.317452 -0.049471
v -0.099602 0.363089 -0.042273
v -0.098683 0.298751 -0.048971
v -0.098997 0.305124 -0.049145
v -0.099345 0.353201 -0.035380
v -0.099073 0.360060 -0.035205
v -0.099282 0.280738 -0.038326
v -0.099224 0.286799 -0.037940
v -0.098805 0.341044 -0.035566
v -0.099239 0.346988 -0.035497
v -0.098871 0.323633 -0.049573
v -0.100473 0.255223 -0.041335
v -0.098881 0.268293 -0.045133
v -0.098701 0.329742 -0.049495
v -0.097963 0.292268 -0.048222
v -0.098742 0.347926 -0.047485
v -0.098667 0.335199 -0.035757
v -0.099101 0.274665 -0.038629
v -0.098569 0.341860 -0.048446
v -0.098573 0.335816 -0.049023
v -0.098584 0.359417 -0.044115
v -0.098676 0.353765 -0.046117
v -0.097585 0.363399 -0.039993
v -0.099378 0.364237 -0.037520
v -0.098694 0.268451 -0.038903
v -0.099282 0.255402 -0.043958
v -0.098960 0.249182 -0.041202
v -0.099364 0.249041 -0.042805
v -0.097800 0.249337 -0.043529
v -0.097009 0.255844 -0.044296
v -0.098129 0.262025 -0.044617
v -0.098839 0.255664 -0.040234
v -0.096368 0.280450 -0.046127
v -0.097000 0.286210 -0.047211
v -0.096878 0.256109 -0.039174
v -0.097966 0.262231 -0.039071
v -0.096826 0.311101 -0.034281
v -0.096814 0.304827 -0.034461
v -0.096214 0.323340 -0.033726
v -0.096651 0.317308 -0.034064
v -0.096064 0.274605 -0.045508
v -0.095941 0.292822 -0.035507
v -0.096360 0.298720 -0.034916
v -0.095229 0.360534 -0.042584
v -0.098023 0.365906 -0.036564
v -0.098015 0.243088 -0.042694
v -0.096279 0.243491 -0.043042
v -0.096723 0.353102 -0.033344
v -0.095652 0.249840 -0.043956
v -0.095904 0.286900 -0.036085
v -0.096043 0.274900 -0.036943
v -0.096120 0.280918 -0.036579
v -0.096135 0.341119 -0.032968
v -0.096529 0.347157 -0.032956
v -0.098147 0.364829 -0.034203
v -0.096799 0.364010 -0.032746
v -0.096685 0.359069 -0.033490
v -0.095147 0.305345 -0.049019
v -0.094973 0.317591 -0.049178
v -0.095093 0.311493 -0.048962
v -0.095042 0.299093 -0.049171
v -0.095837 0.335098 -0.033156
v -0.095943 0.329209 -0.033348
v -0.097392 0.249571 -0.040171
v -0.097653 0.243239 -0.041162
v -0.096035 0.243656 -0.040106
v -0.095131 0.262494 -0.044787
v -0.095721 0.268608 -0.045179
v -0.094719 0.329801 -0.049123
v -0.094869 0.323722 -0.049259
v -0.095257 0.348043 -0.046670
v -0.095785 0.268788 -0.037348
v -0.094827 0.335882 -0.048594
v -0.095420 0.354018 -0.045062
v -0.094984 0.341996 -0.047857
v -0.097073 0.369809 -0.033826
v -0.096337 0.369572 -0.032118
v -0.094143 0.256398 -0.044520
v -0.096468 0.237319 -0.042162
v -0.096332 0.365696 -0.038811
v -0.096477 0.370073 -0.036046
v -0.094824 0.370038 -0.038016
v -0.095277 0.262692 -0.037662
v -0.093179 0.286550 -0.048306
v -0.094308 0.292698 -0.048873
v -0.096163 0.237443 -0.040869
v -0.095550 0.250062 -0.039142
v -0.095478 0.375136 -0.034403
v -0.092496 0.280614 -0.047072
v -0.093226 0.250626 -0.037868
v -0.094437 0.256636 -0.037863
v -0.093869 0.311231 -0.032268
v -0.093569 0.305063 -0.032333
v -0.095086 0.363589 -0.031364
v -0.094450 0.353216 -0.031748
v -0.094720 0.358629 -0.032003
v -0.093459 0.323289 -0.031749
v -0.093777 0.317332 -0.032106
v -0.093892 0.341155 -0.030924
v -0.094226 0.347346 -0.030973
v -0.094858 0.237741 -0.042583
v -0.094983 0.231783 -0.040627
v -0.095304 0.231730 -0.041861
v -0.093730 0.232066 -0.042435
v -0.094627 0.374733 -0.035946
v -0.092964 0.298917 -0.032773
v -0.093773 0.364956 -0.040674
v -0.092588 0.369737 -0.039413
v -0.095431 0.375413 -0.032905
v -0.094241 0.375374 -0.032183
v -0.094955 0.369481 -0.031032
v -0.094213 0.243988 -0.043347
v -0.092955 0.238197 -0.042971
v -0.093445 0.329090 -0.031388
v -0.094585 0.237857 -0.039899
v -0.092484 0.281077 -0.034511
v -0.092318 0.287102 -0.033942
v -0.092210 0.268883 -0.045473
v -0.092332 0.274812 -0.046019
v -0.094194 0.244140 -0.038984
v -0.092858 0.238306 -0.038911
v -0.092369 0.268990 -0.035488
v -0.092506 0.275041 -0.034952
v -0.092443 0.292951 -0.033353
v -0.093531 0.335034 -0.031245
v -0.091824 0.262902 -0.045139
v -0.091796 0.244506 -0.043728
v -0.092926 0.250464 -0.044199
v -0.093667 0.379376 -0.034662
v -0.093092 0.377871 -0.036545
v -0.093679 0.378655 -0.035673
v -0.091369 0.348106 -0.045717
v -0.091827 0.353963 -0.044291
v -0.094484 0.226075 -0.041793
v -0.092936 0.226308 -0.042437
v -0.092122 0.262991 -0.035974
v -0.090875 0.364317 -0.041325
v -0.091557 0.359938 -0.042504
v -0.090650 0.305612 -0.047742
v -0.090469 0.311643 -0.047778
v -0.092988 0.369390 -0.031085
v -0.092420 0.358595 -0.031474
v -0.092935 0.363793 -0.031114
v -0.090087 0.293724 -0.047916
v -0.090485 0.299648 -0.047892
v -0.093341 0.232094 -0.039816
v -0.094191 0.226098 -0.040657
v -0.092563 0.226307 -0.039887
v -0.090071 0.323779 -0.047972
v -0.090203 0.317699 -0.047954
v -0.090463 0.335949 -0.047493
v -0.090939 0.342086 -0.046850
v -0.092862 0.375094 -0.032692
v -0.091965 0.232422 -0.043017
v -0.093247 0.374491 -0.037326
v -0.090081 0.329840 -0.047861
v -0.092558 0.376850 -0.037280
v -0.093890 0.220225 -0.041942
v -0.092043 0.353279 -0.031226
v -0.091586 0.257035 -0.036295
v -0.089374 0.287501 -0.047778
v -0.092743 0.379014 -0.034355
v -0.091448 0.341190 -0.030232
v -0.091818 0.347456 -0.030353
v -0.090796 0.238606 -0.043566
v -0.093750 0.220206 -0.040637
v -0.092069 0.244606 -0.037778
v -0.090005 0.250992 -0.044529
v -0.091001 0.256977 -0.044844
v -0.093159 0.214325 -0.040864
v -0.093200 0.214365 -0.042140
v -0.091724 0.214579 -0.042979
v -0.092317 0.220434 -0.042613
v -0.091061 0.317450 -0.031206
v -0.090738 0.305390 -0.031053
v -0.091087 0.311487 -0.031126
v -0.090863 0.323348 -0.031041
v -0.092177 0.220371 -0.039830
v -0.091992 0.380532 -0.035888
v -0.091814 0.379105 -0.037125
v -0.092146 0.379951 -0.036523
v -0.091410 0.380063 -0.035544
v -0.091163 0.335065 -0.030589
v -0.090892 0.329136 -0.030774
v -0.091669 0.232423 -0.038930
v -0.091712 0.374469 -0.038544
v -0.089927 0.244905 -0.036579
v -0.090761 0.251001 -0.036492
v -0.092499 0.208495 -0.042317
v -0.091068 0.208692 -0.043293
v -0.092666 0.208421 -0.041075
v -0.091230 0.208530 -0.040326
v -0.091703 0.214479 -0.040009
v -0.092892 0.038336 0.017078
v -0.092618 0.039260 0.019796
v -0.093080 0.040025 0.018066
v -0.091060 0.040389 0.013792
v -0.092229 0.040245 0.019943
v -0.092148 0.041073 0.018688
v -0.091258 0.369350 -0.032402
v -0.090123 0.299250 -0.031331
v -0.090587 0.220651 -0.043357
v -0.091195 0.226554 -0.043158
v -0.089144 0.244957 -0.044222
v -0.090986 0.364024 -0.032492
v -0.091723 0.038872 0.018549
v -0.090058 0.039568 0.014223
v -0.091099 0.039232 0.013658
v -0.090959 0.238662 -0.037873
v -0.089999 0.232638 -0.038005
v -0.091717 0.378214 -0.034670
v -0.090640 0.377275 -0.035078
v -0.091525 0.374686 -0.033558
v -0.091782 0.202571 -0.042519
v -0.092228 0.202463 -0.041239
v -0.090053 0.374517 -0.039327
v -0.090320 0.369515 -0.040209
v -0.090576 0.220512 -0.039052
v -0.090941 0.226490 -0.039047
v -0.091472 0.377643 -0.037827
v -0.090361 0.202789 -0.043580
v -0.089417 0.281186 -0.032817
v -0.089424 0.275086 -0.033193
v -0.088436 0.275119 -0.046335
v -0.088787 0.281195 -0.047058
v -0.089594 0.293178 -0.031647
v -0.089763 0.353028 -0.032241
v -0.090298 0.358651 -0.032620
v -0.089162 0.263080 -0.034388
v -0.089339 0.269052 -0.033799
v -0.088259 0.269163 -0.045723
v -0.090053 0.214767 -0.043764
v -0.089395 0.287302 -0.032193
v -0.090314 0.041417 0.018875
v -0.090997 0.039958 0.018954
v -0.090955 0.196698 -0.042827
v -0.091559 0.196569 -0.041510
v -0.090770 0.202622 -0.040538
v -0.089928 0.041323 0.014467
v -0.091249 0.380209 -0.036872
v -0.090931 0.380580 -0.036573
v -0.089367 0.226793 -0.044158
v -0.089986 0.232739 -0.043827
v -0.087605 0.257341 -0.045160
v -0.088008 0.263228 -0.045399
v -0.089627 0.347340 -0.031728
v -0.087937 0.359115 -0.042007
v -0.087859 0.353730 -0.043165
v -0.090438 0.377993 -0.038223
v -0.090883 0.379533 -0.037421
v -0.090168 0.214583 -0.039223
v -0.089477 0.208891 -0.044229
v -0.090700 0.379230 -0.035660
v -0.088826 0.257156 -0.034770
v -0.090785 0.190607 -0.041927
v -0.090315 0.196692 -0.040645
v -0.087890 0.364034 -0.041086
v -0.090087 0.373399 -0.034242
v -0.088946 0.335220 -0.031963
v -0.089271 0.341287 -0.031591
v -0.090547 0.380469 -0.036218
v -0.089993 0.379741 -0.036196
v -0.086712 0.342075 -0.045304
v -0.087292 0.348025 -0.044282
v -0.088729 0.364114 -0.033673
v -0.089463 0.369433 -0.033702
v -0.090255 0.379945 -0.037376
v -0.089233 0.202754 -0.039810
v -0.089703 0.208632 -0.039510
v -0.088801 0.220857 -0.044329
v -0.088412 0.040824 0.008891
v -0.088712 0.039828 0.008654
v -0.088386 0.317653 -0.032298
v -0.088247 0.311761 -0.032001
v -0.088999 0.040434 0.014838
v -0.087108 0.251286 -0.045005
v -0.090084 0.190807 -0.043228
v -0.089612 0.196937 -0.043976
v -0.088756 0.191102 -0.044473
v -0.089071 0.238861 -0.036837
v -0.089384 0.226620 -0.038167
v -0.086028 0.335944 -0.045734
v -0.088613 0.329356 -0.032197
v -0.089504 0.378343 -0.038297
v -0.088356 0.323562 -0.032245
v -0.087881 0.233018 -0.044675
v -0.088444 0.238985 -0.044326
v -0.089735 0.190713 -0.040909
v -0.089022 0.185051 -0.043881
v -0.089763 0.184769 -0.042620
v -0.088741 0.184903 -0.041537
v -0.088385 0.251138 -0.035018
v -0.087325 0.299654 -0.031446
v -0.087816 0.305789 -0.031552
v -0.089662 0.377991 -0.035869
v -0.088782 0.378487 -0.036443
v -0.086095 0.299887 -0.045693
v -0.085912 0.311592 -0.045759
v -0.086137 0.305692 -0.045630
v -0.089058 0.374653 -0.035319
v -0.088294 0.214968 -0.044629
v -0.088630 0.214656 -0.038409
v -0.089000 0.220614 -0.038247
v -0.089822 0.380196 -0.037101
v -0.089315 0.379948 -0.036638
v -0.085895 0.294169 -0.045801
v -0.085541 0.329780 -0.045849
v -0.088161 0.197171 -0.045110
v -0.088862 0.202994 -0.044679
v -0.088703 0.041631 0.015096
v -0.088784 0.196812 -0.039936
v -0.088240 0.369456 -0.040182
v -0.087868 0.358763 -0.033800
v -0.085646 0.317608 -0.045924
v -0.087726 0.185397 -0.045010
v -0.085473 0.323684 -0.045928
v -0.086430 0.040480 0.009995
v -0.087570 0.039885 0.009306
v -0.088615 0.374757 -0.039327
v -0.087776 0.226720 -0.037315
v -0.088305 0.232757 -0.037084
v -0.087456 0.227004 -0.045131
v -0.087288 0.041468 0.009594
v -0.087229 0.238929 -0.035729
v -0.087874 0.245017 -0.035270
v -0.088695 0.378755 -0.037917
v -0.087734 0.179482 -0.044607
v -0.088633 0.179195 -0.043463
v -0.087037 0.347295 -0.033937
v -0.087220 0.353035 -0.033793
v -0.088227 0.190894 -0.040109
v -0.088220 0.208715 -0.038647
v -0.087973 0.375001 -0.036010
v -0.086759 0.375389 -0.036751
v -0.087365 0.191394 -0.045573
v -0.087032 0.293514 -0.031257
v -0.087421 0.375124 -0.038833
v -0.087250 0.203202 -0.045687
v -0.087784 0.209086 -0.045085
v -0.087715 0.369577 -0.034915
v -0.087062 0.275184 -0.032178
v -0.087012 0.287487 -0.031486
v -0.086970 0.281344 -0.032083
v -0.086992 0.221025 -0.045268
v -0.085523 0.281804 -0.045550
v -0.085748 0.288100 -0.045931
v -0.087035 0.269080 -0.032764
v -0.088249 0.378940 -0.037108
v -0.086737 0.341426 -0.033881
v -0.087280 0.196914 -0.039157
v -0.087743 0.202838 -0.038985
v -0.086573 0.257215 -0.033758
v -0.086837 0.263148 -0.033423
v -0.086027 0.239240 -0.044883
v -0.086548 0.245265 -0.044797
v -0.086286 0.041538 0.010185
v -0.087444 0.220699 -0.037421
v -0.085656 0.329582 -0.034437
v -0.086257 0.335465 -0.034255
v -0.086565 0.197399 -0.046084
v -0.085140 0.275544 -0.045035
v -0.087679 0.179245 -0.042225
v -0.087412 0.185049 -0.040589
v -0.086402 0.179355 -0.041229
v -0.085163 0.359033 -0.034793
v -0.086412 0.364329 -0.034680
v -0.085881 0.040659 0.003867
v -0.086494 0.375469 -0.037912
v -0.087500 0.173568 -0.043969
v -0.086708 0.208792 -0.037831
v -0.087074 0.214725 -0.037624
v -0.085641 0.233186 -0.045050
v -0.084655 0.042140 0.004842
v -0.085812 0.041806 0.004046
v -0.086313 0.251202 -0.033847
v -0.085244 0.323746 -0.034291
v -0.085173 0.311872 -0.033756
v -0.085317 0.317779 -0.034190
v -0.086637 0.232815 -0.036081
v -0.086020 0.209264 -0.045682
v -0.086539 0.215146 -0.045462
v -0.084828 0.263458 -0.044566
v -0.084959 0.269423 -0.044731
v -0.086400 0.369765 -0.039530
v -0.086711 0.191052 -0.039421
v -0.084620 0.257507 -0.044507
v -0.086088 0.369969 -0.035826
v -0.084510 0.353650 -0.041436
v -0.084886 0.359093 -0.040759
v -0.085316 0.227149 -0.045361
v -0.085882 0.245062 -0.034183
v -0.083953 0.348011 -0.042235
v -0.085438 0.364419 -0.040246
v -0.084888 0.305923 -0.033176
v -0.085480 0.203401 -0.046246
v -0.085897 0.220738 -0.036525
v -0.086192 0.226783 -0.036332
v -0.086618 0.179790 -0.045692
v -0.086582 0.173909 -0.045255
v -0.085493 0.174255 -0.046382
v -0.086430 0.185700 -0.046102
v -0.085402 0.180094 -0.046768
v -0.086248 0.202919 -0.038215
v -0.084227 0.364818 -0.035662
v -0.086650 0.173592 -0.042777
v -0.084819 0.040349 0.004511
v -0.085445 0.168068 -0.043664
v -0.085481 0.168434 -0.046099
v -0.086062 0.168141 -0.044900
v -0.085967 0.185187 -0.039848
v -0.085857 0.191664 -0.046560
v -0.084984 0.185991 -0.046947
v -0.084552 0.293702 -0.032680
v -0.084592 0.299851 -0.032843
v -0.083619 0.041711 0.005459
v -0.085181 0.191210 -0.038787
v -0.085747 0.197014 -0.038482
v -0.083264 0.342105 -0.043083
v -0.084922 0.232821 -0.035144
v -0.085380 0.238936 -0.034730
v -0.084318 0.353319 -0.035102
v -0.084047 0.245419 -0.044478
v -0.084348 0.251452 -0.044518
v -0.085495 0.214770 -0.036859
v -0.084773 0.269237 -0.032989
v -0.084645 0.281510 -0.032637
v -0.084776 0.275329 -0.032594
v -0.083515 0.341725 -0.035708
v -0.083923 0.347568 -0.035518
v -0.084573 0.287678 -0.032524
v -0.084563 0.215272 -0.045644
v -0.084960 0.221162 -0.045462
v -0.084549 0.263264 -0.033470
v -0.084977 0.370236 -0.038421
v -0.084660 0.370444 -0.036781
v -0.084695 0.202973 -0.037581
v -0.085098 0.208841 -0.037160
v -0.082512 0.335958 -0.043477
v -0.085466 0.173696 -0.041742
v -0.084395 0.174589 -0.047437
v -0.084470 0.168774 -0.047130
v -0.084105 0.191878 -0.046849
v -0.084808 0.197578 -0.046488
v -0.084111 0.251306 -0.033771
v -0.084341 0.257313 -0.033673
v -0.084172 0.209410 -0.045762
v -0.083692 0.239344 -0.044388
v -0.083760 0.040766 0.005239
v -0.084013 0.180395 -0.047598
v -0.085017 0.179485 -0.040463
v -0.084122 0.173853 -0.041039
v -0.083513 0.364918 -0.038942
v -0.082774 0.335717 -0.035948
v -0.084569 0.226818 -0.035409
v -0.082642 0.299780 -0.043256
v -0.082619 0.305618 -0.043222
v -0.084511 0.163007 -0.046940
v -0.085220 0.162696 -0.045828
v -0.083376 0.233257 -0.044472
v -0.084455 0.185352 -0.039298
v -0.085907 0.044995 0.019588
v -0.085141 0.044585 0.021669
v -0.085377 0.045799 0.020503
v -0.084297 0.046383 0.016812
v -0.085286 0.043690 0.020269
v -0.084063 0.043525 0.016529
v -0.084652 0.044882 0.016415
v -0.083850 0.214793 -0.036187
v -0.084264 0.220744 -0.035759
v -0.082685 0.288104 -0.043604
v -0.082622 0.294032 -0.043380
v -0.082096 0.317471 -0.043514
v -0.082370 0.311495 -0.043307
v -0.082415 0.042341 -0.000354
v -0.081629 0.041126 0.000010
v -0.082573 0.041545 -0.000641
v -0.083781 0.245187 -0.034117
v -0.083320 0.186221 -0.047137
v -0.081432 0.042454 0.000427
v -0.084116 0.197124 -0.037968
v -0.082735 0.281960 -0.043474
v -0.081658 0.323719 -0.035699
v -0.081970 0.329722 -0.035900
v -0.081872 0.323583 -0.043530
v -0.082009 0.329750 -0.043503
v -0.083307 0.169100 -0.047970
v -0.083494 0.163327 -0.047929
v -0.084339 0.168119 -0.042683
v -0.083028 0.197734 -0.046315
v -0.083656 0.203559 -0.046096
v -0.084317 0.162671 -0.044713
v -0.083203 0.162720 -0.043830
v -0.083020 0.174886 -0.048083
v -0.084819 0.045324 0.021910
v -0.084421 0.046386 0.020784
v -0.083310 0.046812 0.017223
v -0.083427 0.238996 -0.034538
v -0.082944 0.221256 -0.044788
v -0.083178 0.227220 -0.044670
v -0.081740 0.317646 -0.035318
v -0.084128 0.043476 0.020388
v -0.082737 0.043480 0.016979
v -0.083648 0.157547 -0.047704
v -0.084225 0.157255 -0.046548
v -0.082967 0.185522 -0.038929
v -0.083593 0.191326 -0.038305
v -0.081918 0.305849 -0.034511
v -0.081899 0.311780 -0.034791
v -0.081787 0.353602 -0.035914
v -0.082741 0.359382 -0.035616
v -0.084697 0.044125 0.022240
v -0.082560 0.269568 -0.043069
v -0.082621 0.275722 -0.043195
v -0.083419 0.208880 -0.036632
v -0.083540 0.179647 -0.039939
v -0.082430 0.180658 -0.047738
v -0.082626 0.365233 -0.037029
v -0.082646 0.215349 -0.044993
v -0.082464 0.263572 -0.042986
v -0.082745 0.226874 -0.035293
v -0.083080 0.232865 -0.034984
v -0.082611 0.359374 -0.039252
v -0.080616 0.041214 0.000814
v -0.084458 0.045141 0.022567
v -0.083270 0.046313 0.021032
v -0.082372 0.192049 -0.046551
v -0.082645 0.275453 -0.034067
v -0.082480 0.263394 -0.034513
v -0.082731 0.269404 -0.034233
v -0.082385 0.281603 -0.034107
v -0.083803 0.044320 0.022286
v -0.082422 0.197213 -0.037648
v -0.082969 0.203010 -0.037082
v -0.082238 0.045363 0.011893
v -0.081605 0.044151 0.011968
v -0.082171 0.287737 -0.034151
v -0.082215 0.251532 -0.043103
v -0.082331 0.257588 -0.043065
v -0.081794 0.299783 -0.034248
v -0.081975 0.293756 -0.034201
v -0.082111 0.353745 -0.039701
v -0.083582 0.044952 0.022483
v -0.082166 0.046619 0.017617
v -0.083073 0.168255 -0.041987
v -0.082020 0.245464 -0.043085
v -0.082281 0.257418 -0.034704
v -0.083167 0.157319 -0.045932
v -0.081564 0.047240 0.012274
v -0.082204 0.046622 0.012050
v -0.082443 0.220803 -0.035631
v -0.083209 0.151808 -0.047719
v -0.081317 0.359582 -0.037314
v -0.081890 0.203678 -0.045541
v -0.082315 0.209518 -0.045270
v -0.083175 0.044227 0.020747
v -0.082652 0.174013 -0.040676
v -0.081689 0.168484 -0.041637
v -0.081669 0.186409 -0.046840
v -0.081895 0.245313 -0.034962
v -0.082161 0.251397 -0.034792
v -0.081788 0.239381 -0.043030
v -0.080687 0.342217 -0.040793
v -0.081484 0.348092 -0.040204
v -0.081129 0.347888 -0.036276
v -0.081714 0.208964 -0.036517
v -0.082086 0.214852 -0.035989
v -0.080501 0.042080 0.001071
v -0.082537 0.157885 -0.048689
v -0.082703 0.152070 -0.048703
v -0.081632 0.152401 -0.049603
v -0.081289 0.197884 -0.045754
v -0.081885 0.191388 -0.038126
v -0.082599 0.045222 0.021032
v -0.082063 0.179835 -0.039692
v -0.079619 0.335933 -0.036676
v -0.080357 0.342069 -0.036526
v -0.082353 0.163644 -0.048749
v -0.081384 0.158192 -0.049390
v -0.081632 0.239111 -0.035264
v -0.081340 0.227232 -0.043330
v -0.081493 0.233263 -0.043168
v -0.082006 0.169385 -0.048408
v -0.080990 0.163942 -0.049176
v -0.082185 0.151856 -0.046963
v -0.081789 0.146522 -0.049987
v -0.081046 0.146371 -0.047926
v -0.082056 0.146268 -0.048802
v -0.081983 0.157410 -0.045209
v -0.081933 0.162844 -0.043116
v -0.080771 0.157535 -0.044527
v -0.081783 0.044400 0.017416
v -0.081167 0.221280 -0.043519
v -0.081448 0.232948 -0.035676
v -0.081499 0.175123 -0.048116
v -0.080569 0.169640 -0.048504
v -0.080708 0.192191 -0.045953
v -0.080549 0.180061 -0.039778
v -0.081339 0.185670 -0.038870
v -0.081241 0.203117 -0.037092
v -0.079666 0.044999 0.013070
v -0.080430 0.044037 0.012540
v -0.080901 0.220901 -0.036292
v -0.081157 0.226957 -0.035995
v -0.080936 0.275512 -0.036081
v -0.081075 0.269507 -0.036161
v -0.080569 0.287934 -0.041112
v -0.080926 0.275680 -0.041062
v -0.080803 0.281835 -0.041137
v -0.080634 0.146903 -0.050646
v -0.081128 0.174225 -0.040608
v -0.080711 0.209563 -0.044102
v -0.080966 0.215372 -0.043779
v -0.080633 0.281625 -0.036096
v -0.080409 0.293836 -0.040892
v -0.080177 0.305563 -0.040697
v -0.080268 0.299642 -0.040767
v -0.081014 0.269594 -0.040989
v -0.080563 0.353845 -0.037821
v -0.081267 0.045564 0.017769
v -0.079004 0.043644 -0.004419
v -0.078239 0.042264 -0.004303
v -0.079157 0.042878 -0.004835
v -0.080380 0.152700 -0.050074
v -0.079479 0.329757 -0.041157
v -0.080001 0.336009 -0.041162
v -0.080871 0.257467 -0.036481
v -0.080934 0.263515 -0.036338
v -0.080832 0.257567 -0.041074
v -0.080979 0.263602 -0.040983
v -0.080849 0.180859 -0.047419
v -0.080010 0.175341 -0.047838
v -0.080195 0.191517 -0.038340
v -0.080729 0.197311 -0.037729
v -0.079965 0.311444 -0.040722
v -0.080051 0.158461 -0.049762
v -0.080810 0.251523 -0.041101
v -0.080303 0.203750 -0.044442
v -0.080245 0.047559 0.007076
v -0.078894 0.044780 0.007817
v -0.079753 0.045999 0.007292
v -0.080730 0.245478 -0.041054
v -0.080899 0.151997 -0.046325
v -0.080852 0.047003 0.012755
v -0.079978 0.046212 0.013107
v -0.080842 0.251469 -0.036518
v -0.079897 0.293666 -0.035899
v -0.080260 0.287729 -0.036034
v -0.079849 0.348163 -0.038227
v -0.080591 0.214964 -0.036679
v -0.079330 0.323539 -0.041050
v -0.079592 0.317390 -0.040887
v -0.080293 0.140970 -0.050942
v -0.080443 0.140753 -0.049775
v -0.079612 0.164182 -0.049200
v -0.079637 0.299645 -0.035741
v -0.079046 0.329803 -0.036560
v -0.080554 0.163069 -0.042736
v -0.079454 0.311584 -0.035860
v -0.079694 0.305689 -0.035781
v -0.079758 0.197971 -0.044774
v -0.080492 0.239221 -0.036883
v -0.080626 0.245398 -0.036610
v -0.079133 0.317484 -0.036228
v -0.080411 0.233225 -0.041276
v -0.080583 0.239369 -0.041097
v -0.079744 0.203268 -0.037759
v -0.080247 0.209102 -0.037189
v -0.080190 0.168761 -0.041604
v -0.079175 0.163327 -0.042648
v -0.079344 0.181015 -0.046847
v -0.080103 0.186579 -0.046280
v -0.078914 0.323616 -0.036345
v -0.077745 0.044512 0.008626
v -0.078359 0.048716 0.008264
v -0.080098 0.049296 0.007616
v -0.079132 0.169862 -0.048321
v -0.080249 0.227204 -0.041473
v -0.080418 0.233047 -0.037218
v -0.077055 0.042957 -0.003018
v -0.077996 0.043529 -0.003640
v -0.079715 0.185883 -0.039251
v -0.079977 0.215308 -0.041987
v -0.080102 0.221225 -0.041707
v -0.080219 0.227058 -0.037524
v -0.079654 0.174506 -0.040817
v -0.080451 0.269563 -0.038584
v -0.080266 0.275573 -0.038572
v -0.079761 0.146583 -0.047343
v -0.079576 0.140919 -0.048825
v -0.078365 0.141221 -0.048168
v -0.080423 0.263578 -0.038640
v -0.080333 0.257506 -0.038775
v -0.079721 0.209519 -0.042378
v -0.079648 0.152164 -0.045741
v -0.079896 0.215095 -0.038233
v -0.080052 0.221021 -0.037838
v -0.080350 0.251499 -0.038749
v -0.077607 0.047273 0.008738
v -0.078564 0.175522 -0.047353
v -0.080032 0.281679 -0.038598
v -0.079475 0.157701 -0.044032
v -0.078375 0.152347 -0.045225
v -0.079239 0.197476 -0.038368
v -0.080152 0.239310 -0.038957
v -0.080267 0.245458 -0.038752
v -0.078515 0.186739 -0.045626
v -0.079126 0.192306 -0.045202
v -0.079196 0.203740 -0.042861
v -0.078480 0.336052 -0.038886
v -0.079022 0.342301 -0.038588
v -0.079291 0.147241 -0.050850
v -0.079174 0.141414 -0.051459
v -0.077927 0.141839 -0.051623
v -0.079660 0.287770 -0.038536
v -0.077194 0.042239 -0.003443
v -0.080075 0.233145 -0.039204
v -0.078984 0.180322 -0.040174
v -0.078207 0.174794 -0.041214
v -0.079354 0.293682 -0.038316
v -0.078560 0.135439 -0.050527
v -0.077190 0.045787 0.009042
v -0.079059 0.152979 -0.050241
v -0.077912 0.147550 -0.050840
v -0.077408 0.136098 -0.052231
v -0.078402 0.135640 -0.051624
v -0.079083 0.299584 -0.038167
v -0.076805 0.047789 0.003363
v -0.076899 0.045127 0.003428
v -0.077331 0.046616 0.002920
v -0.079601 0.209274 -0.038711
v -0.079709 0.221135 -0.039714
v -0.079875 0.227144 -0.039415
v -0.078759 0.169044 -0.041831
v -0.078337 0.186166 -0.040164
v -0.078722 0.191762 -0.039159
v -0.078807 0.311456 -0.038185
v -0.078986 0.305570 -0.038042
v -0.077888 0.181135 -0.046114
v -0.079632 0.215211 -0.040057
v -0.078667 0.158684 -0.049777
v -0.077668 0.153252 -0.050292
v -0.078056 0.329783 -0.038776
v -0.079396 0.209420 -0.040476
v -0.078469 0.146799 -0.046799
v -0.078708 0.197970 -0.043418
v -0.077837 0.192374 -0.044085
v -0.079120 0.203439 -0.039284
v -0.078594 0.197680 -0.039935
v -0.078218 0.164382 -0.048915
v -0.077302 0.158887 -0.049466
v -0.078446 0.317380 -0.038363
v -0.077774 0.135650 -0.049580
v -0.078127 0.157913 -0.043758
v -0.078922 0.203604 -0.041033
v -0.078038 0.323533 -0.038594
v -0.076595 0.142214 -0.051622
v -0.078425 0.197858 -0.041690
v -0.076243 0.136549 -0.052467
v -0.077788 0.163600 -0.042798
v -0.076756 0.158182 -0.043737
v -0.075532 0.045119 -0.008085
v -0.075716 0.044408 -0.008556
v -0.077726 0.170051 -0.047927
v -0.076881 0.164556 -0.048491
v -0.077111 0.186825 -0.044701
v -0.076563 0.147844 -0.050808
v -0.077510 0.180591 -0.040796
v -0.075824 0.044234 0.004467
v -0.077366 0.169340 -0.042201
v -0.077907 0.192024 -0.040645
v -0.077686 0.192226 -0.042390
v -0.076298 0.153483 -0.050102
v -0.076558 0.130492 -0.052423
v -0.076007 0.130375 -0.050307
v -0.076703 0.130259 -0.051304
v -0.077154 0.175666 -0.046683
v -0.076375 0.170192 -0.047318
v -0.077209 0.147011 -0.046297
v -0.077152 0.141471 -0.047660
v -0.075705 0.130912 -0.053089
v -0.077049 0.152565 -0.044887
v -0.075932 0.147232 -0.045873
v -0.075493 0.047731 0.004097
v -0.076788 0.135884 -0.048816
v -0.075739 0.136084 -0.048245
v -0.077400 0.186426 -0.041440
v -0.076459 0.180880 -0.042044
v -0.073987 0.043713 -0.007031
v -0.074876 0.043735 -0.007921
v -0.075979 0.159079 -0.049041
v -0.076782 0.175083 -0.041721
v -0.075991 0.169639 -0.042640
v -0.074607 0.044961 -0.007105
v -0.075863 0.175754 -0.045811
v -0.076603 0.181209 -0.045206
v -0.076452 0.163882 -0.043111
v -0.074809 0.044220 0.005482
v -0.075555 0.164713 -0.047945
v -0.077014 0.186660 -0.043058
v -0.074221 0.045637 0.005764
v -0.074630 0.047010 0.004949
v -0.073868 0.044225 0.000136
v -0.073996 0.046780 -0.000562
v -0.074934 0.045506 -0.001049
v -0.075936 0.141692 -0.047188
v -0.072804 0.044739 -0.005959
v -0.075141 0.170281 -0.046487
v -0.076266 0.181091 -0.043669
v -0.075690 0.152818 -0.044731
v -0.071931 0.043281 0.002077
v -0.072422 0.046712 0.000565
v -0.075192 0.130519 -0.049583
v -0.075739 0.175378 -0.042805
v -0.075410 0.158481 -0.043955
v -0.074303 0.153115 -0.044776
v -0.074749 0.125294 -0.053328
v -0.074748 0.125114 -0.052251
v -0.075300 0.142513 -0.051552
v -0.075077 0.136901 -0.052466
v -0.073873 0.137185 -0.052325
v -0.075532 0.175608 -0.044345
v -0.075232 0.148115 -0.050676
v -0.074022 0.142787 -0.051363
v -0.075154 0.164197 -0.043588
v -0.074944 0.153683 -0.049670
v -0.073891 0.148337 -0.050324
v -0.074599 0.131306 -0.053350
v -0.073519 0.131599 -0.053327
v -0.073564 0.125193 -0.050464
v -0.074246 0.125121 -0.051260
v -0.074917 0.169951 -0.043600
v -0.074163 0.164510 -0.044487
v -0.074667 0.159258 -0.048540
v -0.073679 0.153863 -0.049151
v -0.074716 0.141921 -0.046759
v -0.074606 0.136321 -0.047776
v -0.074602 0.147483 -0.045639
v -0.073412 0.142182 -0.046450
v -0.074262 0.130675 -0.048916
v -0.073238 0.130872 -0.048347
v -0.071007 0.046364 -0.011750
v -0.071428 0.045623 -0.012655
v -0.074031 0.125663 -0.054046
v -0.073043 0.126010 -0.054259
v -0.074414 0.164815 -0.047170
v -0.073529 0.159367 -0.047755
v -0.074731 0.170178 -0.045094
v -0.074075 0.158833 -0.044317
v -0.072679 0.137444 -0.052061
v -0.072777 0.143013 -0.051009
v -0.073932 0.164733 -0.045837
v -0.072401 0.131870 -0.053118
v -0.073024 0.045624 -0.004580
v -0.072633 0.148505 -0.049788
v -0.069668 0.044947 -0.010582
v -0.070586 0.044909 -0.011850
v -0.070052 0.044795 0.002954
v -0.071286 0.043080 0.003605
v -0.072816 0.119913 -0.053176
v -0.072187 0.120392 -0.054839
v -0.072837 0.120062 -0.054162
v -0.073452 0.136583 -0.047383
v -0.072551 0.153981 -0.048344
v -0.071187 0.046093 0.001733
v -0.069570 0.047701 -0.009164
v -0.070353 0.046981 -0.010461
v -0.071965 0.126300 -0.054170
v -0.073237 0.147766 -0.045625
v -0.072983 0.159331 -0.046469
v -0.072964 0.153452 -0.045064
v -0.071908 0.148068 -0.045823
v -0.072731 0.125322 -0.049753
v -0.072439 0.119883 -0.052257
v -0.072972 0.159178 -0.045101
v -0.071287 0.120717 -0.054972
v -0.071231 0.047216 -0.003456
v -0.071504 0.044370 -0.002443
v -0.069592 0.043459 -0.000375
v -0.071057 0.120076 -0.050820
v -0.071838 0.119942 -0.051446
v -0.072256 0.136832 -0.047114
v -0.072138 0.131118 -0.047988
v -0.072114 0.142434 -0.046388
v -0.070978 0.137045 -0.047057
v -0.071803 0.125498 -0.049184
v -0.070782 0.125710 -0.048808
v -0.068635 0.047993 -0.007971
v -0.067499 0.048255 -0.006618
v -0.071907 0.153784 -0.045784
v -0.071944 0.153949 -0.047107
v -0.070751 0.114873 -0.054885
v -0.070260 0.115138 -0.055573
v -0.070534 0.114708 -0.053183
v -0.070788 0.114736 -0.054019
v -0.070007 0.044662 -0.004160
v -0.066922 0.045271 -0.007509
v -0.068490 0.045265 -0.009028
v -0.071491 0.137683 -0.051701
v -0.071523 0.143179 -0.050490
v -0.070333 0.137852 -0.051246
v -0.071287 0.132131 -0.052865
v -0.070179 0.132355 -0.052556
v -0.071536 0.148607 -0.049002
v -0.070446 0.143266 -0.049751
v -0.070863 0.148575 -0.047854
v -0.069664 0.047122 -0.002113
v -0.068318 0.046947 -0.000845
v -0.070921 0.126559 -0.053984
v -0.069893 0.126794 -0.053707
v -0.071055 0.131376 -0.047814
v -0.070878 0.142701 -0.046624
v -0.070370 0.120981 -0.054929
v -0.069411 0.121215 -0.054732
v -0.070854 0.148387 -0.046565
v -0.068725 0.042183 0.004079
v -0.067944 0.041683 0.002642
v -0.069966 0.142992 -0.047405
v -0.070025 0.114757 -0.052442
v -0.070201 0.120253 -0.050365
v -0.069826 0.143209 -0.048639
v -0.069303 0.137910 -0.050550
v -0.067635 0.043985 -0.002625
v -0.069118 0.132493 -0.052089
v -0.066206 0.048112 -0.014532
v -0.066520 0.047278 -0.015627
v -0.068642 0.115675 -0.055676
v -0.069449 0.115425 -0.055748
v -0.068916 0.126998 -0.053348
v -0.068560 0.115035 -0.051465
v -0.069351 0.114866 -0.051866
v -0.069881 0.131634 -0.047832
v -0.069710 0.125975 -0.048678
v -0.069834 0.137295 -0.047427
v -0.068793 0.131893 -0.048270
v -0.068494 0.121422 -0.054438
v -0.068818 0.109701 -0.055594
v -0.068875 0.109569 -0.054829
v -0.069297 0.120461 -0.050035
v -0.068350 0.120710 -0.049886
v -0.065209 0.046329 -0.014027
v -0.066037 0.046326 -0.015386
v -0.068201 0.109584 -0.053468
v -0.068650 0.109534 -0.054096
v -0.068759 0.137818 -0.049447
v -0.067820 0.115900 -0.055466
v -0.065832 0.048986 -0.013376
v -0.068210 0.132538 -0.051340
v -0.067736 0.110132 -0.056449
v -0.068428 0.109899 -0.056202
v -0.067947 0.127153 -0.052888
v -0.066947 0.042996 0.003288
v -0.067168 0.046048 0.000410
v -0.065596 0.044454 0.001513
v -0.065200 0.044874 -0.006166
v -0.068999 0.137578 -0.048275
v -0.067597 0.121607 -0.054075
v -0.068720 0.126253 -0.048848
v -0.064891 0.049076 -0.003599
v -0.066229 0.048786 -0.005172
v -0.066602 0.042054 0.000811
v -0.064696 0.050418 -0.011105
v -0.065280 0.049770 -0.012218
v -0.066943 0.110356 -0.056398
v -0.067005 0.116092 -0.055183
v -0.067567 0.109711 -0.053001
v -0.067732 0.115237 -0.051201
v -0.068023 0.132183 -0.049151
v -0.067382 0.104235 -0.055554
v -0.066840 0.104526 -0.056897
v -0.067305 0.104335 -0.056322
v -0.067753 0.126558 -0.049352
v -0.067020 0.126860 -0.050158
v -0.067762 0.132430 -0.050267
v -0.064378 0.041803 0.003720
v -0.067449 0.120992 -0.050009
v -0.067055 0.104262 -0.054842
v -0.066198 0.110551 -0.056236
v -0.066112 0.110061 -0.052432
v -0.066860 0.109876 -0.052674
v -0.063130 0.046412 -0.011642
v -0.064311 0.046446 -0.012797
v -0.066128 0.104749 -0.057128
v -0.066878 0.115465 -0.051069
v -0.066040 0.115719 -0.051133
v -0.063505 0.048442 -0.001957
v -0.065894 0.104511 -0.053913
v -0.066514 0.104370 -0.054327
v -0.067091 0.127207 -0.052194
v -0.066668 0.127114 -0.051175
v -0.066765 0.121758 -0.053633
v -0.066029 0.121842 -0.052967
v -0.066590 0.121298 -0.050420
v -0.065371 0.104959 -0.057111
v -0.064947 0.042971 -0.001630
v -0.066218 0.116260 -0.054817
v -0.065501 0.116388 -0.054324
v -0.062835 0.051476 -0.008303
v -0.063956 0.051037 -0.009734
v -0.065730 0.098913 -0.056718
v -0.065420 0.098948 -0.055376
v -0.065772 0.098871 -0.055995
v -0.065259 0.099068 -0.057255
v -0.065665 0.121779 -0.052049
v -0.065929 0.121569 -0.051113
v -0.064750 0.110884 -0.055598
v -0.065446 0.110735 -0.055986
v -0.061733 0.046278 -0.010445
v -0.065353 0.110257 -0.052257
v -0.065243 0.104667 -0.053560
v -0.064578 0.099267 -0.057471
v -0.064919 0.116452 -0.053672
v -0.062262 0.042707 -0.001126
v -0.063602 0.041213 0.001731
v -0.065278 0.115991 -0.051445
v -0.062415 0.049244 -0.018201
v -0.064882 0.099083 -0.054903
v -0.064163 0.110979 -0.055043
v -0.061712 0.051273 -0.016118
v -0.062094 0.050285 -0.017161
v -0.063911 0.105330 -0.056693
v -0.064628 0.105153 -0.056962
v -0.063858 0.105009 -0.053047
v -0.064565 0.104832 -0.053259
v -0.062234 0.048088 -0.018643
v -0.064587 0.110471 -0.052205
v -0.063845 0.110707 -0.052364
v -0.064710 0.116250 -0.052033
v -0.063707 0.099385 -0.054049
v -0.064308 0.099229 -0.054459
v -0.061247 0.052340 -0.015120
v -0.064148 0.093387 -0.056849
v -0.064229 0.093374 -0.056082
v -0.063698 0.093517 -0.057418
v -0.064594 0.116419 -0.052882
v -0.062835 0.043244 0.002658
v -0.063946 0.046586 -0.000090
v -0.063286 0.105465 -0.056232
v -0.063471 0.093645 -0.054805
v -0.063985 0.093467 -0.055355
v -0.063147 0.099661 -0.057248
v -0.063855 0.099469 -0.057432
v -0.063114 0.044488 -0.005220
v -0.060429 0.047789 -0.016680
v -0.061310 0.047780 -0.017650
v -0.063365 0.111021 -0.053671
v -0.063699 0.111024 -0.054395
v -0.059377 0.051184 -0.005721
v -0.061463 0.051345 -0.006701
v -0.063331 0.110928 -0.052904
v -0.060220 0.054178 -0.012628
v -0.060759 0.053438 -0.013931
v -0.062467 0.099841 -0.056921
v -0.062291 0.093949 -0.057534
v -0.063020 0.093720 -0.057642
v -0.063122 0.105199 -0.052921
v -0.063076 0.099554 -0.053704
v -0.062858 0.093852 -0.054379
v -0.062307 0.087738 -0.056573
v -0.062315 0.087844 -0.055766
v -0.062379 0.105605 -0.054987
v -0.062784 0.105551 -0.055640
v -0.062083 0.088041 -0.054994
v -0.062043 0.046323 0.000528
v -0.059432 0.054355 -0.011009
v -0.061596 0.094176 -0.057293
v -0.061705 0.099937 -0.053381
v -0.062404 0.099742 -0.053473
v -0.061942 0.105585 -0.053551
v -0.062397 0.105406 -0.053002
v -0.061118 0.088100 -0.057443
v -0.061869 0.087824 -0.057262
v -0.061590 0.094278 -0.053650
v -0.062238 0.094061 -0.053990
v -0.062047 0.105630 -0.054292
v -0.061878 0.041490 0.002658
v -0.061044 0.048696 -0.001965
v -0.061105 0.088587 -0.053874
v -0.061679 0.088294 -0.054339
v -0.061407 0.100105 -0.055925
v -0.061889 0.099989 -0.056481
v -0.060668 0.044819 -0.004811
v -0.060176 0.046376 -0.009399
v -0.058169 0.047423 -0.008664
v -0.059383 0.047833 -0.015565
v -0.060368 0.088429 -0.057244
v -0.059929 0.046414 0.001241
v -0.061374 0.042824 0.004184
v -0.060803 0.043800 0.004061
v -0.058941 0.053578 -0.009132
v -0.061011 0.100198 -0.055299
v -0.060344 0.094577 -0.056498
v -0.060934 0.094388 -0.056953
v -0.059206 0.050637 -0.021781
v -0.059026 0.052635 -0.019960
v -0.059317 0.051644 -0.021061
v -0.060911 0.094500 -0.053407
v -0.061013 0.100135 -0.053464
v -0.060683 0.100270 -0.054637
v -0.059757 0.082668 -0.054769
v -0.059352 0.082462 -0.056117
v -0.059765 0.082440 -0.055487
v -0.060380 0.043370 -0.000462
v -0.058961 0.045802 -0.003998
v -0.060491 0.088874 -0.053531
v -0.058644 0.053531 -0.019027
v -0.059573 0.082961 -0.054109
v -0.058959 0.048352 -0.002293
v -0.060551 0.100283 -0.053935
v -0.059858 0.094745 -0.055938
v -0.058673 0.082772 -0.056250
v -0.057119 0.048623 -0.013204
v -0.058254 0.048023 -0.014267
v -0.059485 0.094950 -0.053376
v -0.060211 0.094724 -0.053271
v -0.059238 0.083284 -0.053510
v -0.059094 0.089023 -0.056616
v -0.059721 0.088723 -0.056973
v -0.059174 0.089456 -0.053044
v -0.059839 0.089168 -0.053249
v -0.059474 0.094886 -0.055304
v -0.059305 0.044795 0.000433
v -0.058278 0.049998 -0.021412
v -0.057814 0.055561 -0.017066
v -0.058250 0.054477 -0.018167
v -0.058234 0.083979 -0.052662
v -0.058768 0.083631 -0.053030
v -0.058448 0.050515 -0.004883
v -0.057410 0.049869 -0.005006
v -0.058511 0.089315 -0.056147
v -0.057272 0.056562 -0.015614
v -0.059025 0.095076 -0.053910
v -0.059163 0.095007 -0.054630
v -0.056614 0.049083 -0.007766
v -0.056349 0.050052 -0.019685
v -0.057347 0.049951 -0.020582
v -0.058430 0.046851 -0.003317
v -0.057391 0.083511 -0.055845
v -0.058018 0.083134 -0.056100
v -0.058042 0.089573 -0.055578
v -0.058478 0.089743 -0.052946
v -0.057657 0.084341 -0.052365
v -0.057081 0.077604 -0.053635
v -0.056635 0.077591 -0.054151
v -0.056936 0.078267 -0.052436
v -0.057093 0.077905 -0.053007
v -0.056818 0.083900 -0.055508
v -0.057315 0.090124 -0.053541
v -0.057796 0.089997 -0.053057
v -0.057399 0.090001 -0.054255
v -0.057676 0.089802 -0.054938
v -0.057029 0.056106 -0.012034
v -0.057176 0.054156 -0.008988
v -0.056195 0.052134 -0.005147
v -0.055270 0.054847 -0.008660
v -0.056132 0.052844 -0.005982
v -0.056598 0.054439 -0.024543
v -0.056399 0.055249 -0.023873
v -0.056701 0.078636 -0.051933
v -0.055713 0.052923 -0.025207
v -0.056440 0.053573 -0.025182
v -0.056409 0.085043 -0.052004
v -0.057042 0.084703 -0.052136
v -0.056302 0.084274 -0.055070
v -0.056341 0.079026 -0.051490
v -0.055456 0.078209 -0.054164
v -0.056012 0.077864 -0.054272
v -0.055740 0.056857 -0.022826
v -0.056070 0.055995 -0.023371
v -0.055434 0.051243 -0.005213
v -0.056823 0.049304 -0.006075
v -0.055298 0.050480 -0.018844
v -0.055491 0.057756 -0.022214
v -0.055401 0.079778 -0.050821
v -0.055893 0.079411 -0.051119
v -0.055968 0.049662 -0.012526
v -0.055532 0.084941 -0.053935
v -0.055868 0.084626 -0.054536
v -0.054850 0.078640 -0.053925
v -0.055175 0.058739 -0.021499
v -0.055753 0.085329 -0.052092
v -0.055296 0.085221 -0.053285
v -0.054345 0.079036 -0.053631
v -0.054797 0.052807 -0.024682
v -0.055266 0.085420 -0.052600
v -0.055678 0.057099 -0.012054
v -0.055796 0.058150 -0.015831
v -0.053857 0.051919 -0.017686
v -0.054582 0.051041 -0.018300
v -0.054910 0.073106 -0.050953
v -0.054919 0.073499 -0.050418
v -0.054860 0.080118 -0.050583
v -0.054532 0.074356 -0.049459
v -0.054736 0.073945 -0.049908
v -0.054664 0.051196 -0.006504
v -0.053784 0.073179 -0.051448
v -0.054436 0.072974 -0.051384
v -0.054749 0.051110 -0.012123
v -0.053298 0.053012 -0.012137
v -0.054106 0.051680 -0.008226
v -0.054672 0.057187 -0.028798
v -0.054471 0.056420 -0.029188
v -0.054352 0.058521 -0.028011
v -0.054606 0.057818 -0.028447
v -0.053630 0.080649 -0.050557
v -0.054270 0.080422 -0.050446
v -0.053265 0.053241 -0.023674
v -0.053957 0.052910 -0.024123
v -0.054281 0.074761 -0.049049
v -0.053530 0.079797 -0.052804
v -0.053892 0.079424 -0.053265
v -0.054214 0.054224 -0.005598
v -0.054425 0.053543 -0.004481
v -0.054047 0.059217 -0.027569
v -0.053195 0.073518 -0.051310
v -0.053940 0.075145 -0.048696
v -0.053250 0.080143 -0.052269
v -0.054439 0.059022 -0.015973
v -0.054579 0.059570 -0.021236
v -0.053781 0.059940 -0.027125
v -0.052978 0.055667 -0.029156
v -0.053812 0.055851 -0.029312
v -0.054421 0.057975 -0.011854
v -0.052610 0.073871 -0.051149
v -0.053052 0.053150 -0.005880
v -0.053705 0.052940 -0.004585
v -0.053037 0.075793 -0.048277
v -0.053519 0.075494 -0.048437
v -0.053156 0.080663 -0.051039
v -0.053076 0.080448 -0.051683
v -0.053729 0.055831 -0.008255
v -0.053115 0.061240 -0.026410
v -0.053514 0.060671 -0.026720
v -0.053530 0.069607 -0.046761
v -0.052924 0.068967 -0.047477
v -0.053403 0.069163 -0.047174
v -0.053238 0.052976 -0.017152
v -0.053424 0.070076 -0.046350
v -0.052462 0.053810 -0.008311
v -0.053506 0.060561 -0.033046
v -0.053206 0.059301 -0.033735
v -0.053461 0.059910 -0.033417
v -0.053389 0.061206 -0.032653
v -0.052664 0.053834 -0.023217
v -0.053570 0.060048 -0.021060
v -0.052372 0.061523 -0.026148
v -0.053083 0.070968 -0.045542
v -0.053269 0.070530 -0.045931
v -0.052851 0.058200 -0.011922
v -0.052545 0.059627 -0.021029
v -0.053039 0.058815 -0.016145
v -0.052316 0.069079 -0.047544
v -0.053299 0.054786 -0.003966
v -0.052799 0.056939 -0.007858
v -0.053171 0.061820 -0.032264
v -0.051640 0.074644 -0.050579
v -0.052079 0.074243 -0.050909
v -0.052497 0.076044 -0.048215
v -0.053211 0.055427 -0.005163
v -0.052240 0.054916 -0.012200
v -0.052180 0.055700 -0.028926
v -0.052822 0.071393 -0.045183
v -0.051302 0.075064 -0.050173
v -0.051917 0.055510 -0.022266
v -0.052210 0.054636 -0.022725
v -0.052598 0.058827 -0.033914
v -0.052649 0.062973 -0.031528
v -0.052908 0.062432 -0.031874
v -0.051730 0.069339 -0.047462
v -0.052785 0.054489 -0.004287
v -0.051370 0.076158 -0.048636
v -0.051916 0.076197 -0.048306
v -0.052730 0.066645 -0.042098
v -0.052582 0.065699 -0.042830
v -0.052730 0.066177 -0.042455
v -0.052693 0.063494 -0.037605
v -0.052668 0.064053 -0.037233
v -0.052235 0.063501 -0.031170
v -0.052451 0.071780 -0.044891
v -0.052629 0.062941 -0.037967
v -0.052133 0.065375 -0.043111
v -0.052639 0.054299 -0.016745
v -0.052454 0.054994 -0.005316
v -0.051035 0.056520 -0.028195
v -0.051526 0.055941 -0.028627
v -0.052670 0.067145 -0.041724
v -0.051044 0.075904 -0.049152
v -0.051070 0.075499 -0.049696
v -0.052418 0.062432 -0.038293
v -0.051985 0.062034 -0.038538
v -0.052411 0.065151 -0.036496
v -0.052572 0.064606 -0.036861
v -0.052398 0.068130 -0.040995
v -0.052564 0.067644 -0.041354
v -0.052209 0.057545 -0.016414
v -0.051416 0.072270 -0.044659
v -0.051972 0.072079 -0.044710
v -0.051901 0.058602 -0.033937
v -0.051132 0.058555 -0.033842
v -0.051515 0.065311 -0.043202
v -0.052172 0.065674 -0.036143
v -0.052013 0.056771 -0.012168
v -0.052008 0.055858 -0.008057
v -0.052172 0.055948 -0.016585
v -0.051711 0.057361 -0.021455
v -0.051753 0.056345 -0.021853
v -0.050692 0.069975 -0.047106
v -0.051202 0.069633 -0.047319
v -0.051655 0.061043 -0.026185
v -0.051945 0.058602 -0.021192
v -0.051157 0.060312 -0.026354
v -0.052127 0.068604 -0.040650
v -0.051516 0.063625 -0.031001
v -0.050904 0.063193 -0.031153
v -0.051753 0.066117 -0.035830
v -0.051094 0.066142 -0.035786
v -0.050764 0.057234 -0.027754
v -0.051666 0.068958 -0.040407
v -0.050257 0.070376 -0.046813
v -0.051372 0.061800 -0.038663
v -0.050839 0.059496 -0.026622
v -0.050695 0.058790 -0.026942
v -0.050661 0.058007 -0.027332
v -0.050829 0.072274 -0.044802
v -0.051067 0.068987 -0.040430
v -0.050927 0.065476 -0.043117
v -0.050462 0.065792 -0.042904
v -0.050444 0.062627 -0.031400
v -0.050468 0.058848 -0.033565
v -0.050532 0.065815 -0.035975
v -0.050679 0.061786 -0.038639
v -0.050517 0.068781 -0.040631
v -0.049946 0.071749 -0.045531
v -0.050318 0.072076 -0.045118
v -0.049784 0.071308 -0.046004
v -0.049927 0.070827 -0.046445
v -0.050072 0.066184 -0.042630
v -0.050132 0.062033 -0.031687
v -0.050111 0.062122 -0.038388
v -0.049892 0.060047 -0.032780
v -0.050076 0.059404 -0.033179
v -0.050074 0.065388 -0.036232
v -0.049851 0.060719 -0.032388
v -0.049932 0.061386 -0.032022
v -0.050062 0.068468 -0.040898
v -0.049760 0.066627 -0.042313
v -0.049573 0.067105 -0.041959
v -0.049748 0.064882 -0.036549
v -0.049546 0.064332 -0.036902
v -0.049752 0.062623 -0.038039
v -0.049729 0.068063 -0.041223
v -0.049549 0.063178 -0.037664
v -0.049561 0.067597 -0.041586
v -0.049480 0.063757 -0.037278
usemtl Tibialis_posterior_muscle_rMaterial0
f 1 2 3
f 1 3 4
f 5 3 2
f 5 4 3
f 1 6 2
f 7 1 8
f 1 9 8
f 7 6 1
f 1 4 10
f 1 10 9
f 5 2 11
f 5 11 12
f 5 12 13
f 14 5 13
f 5 15 4
f 14 15 5
f 11 2 16
f 17 2 6
f 17 16 2
f 7 8 18
f 9 18 8
f 11 19 12
f 11 16 20
f 11 20 19
f 21 22 13
f 14 13 22
f 21 13 12
f 17 6 7
f 23 24 25
f 25 24 26
f 27 24 23
f 28 24 27
f 28 26 24
f 7 18 29
f 29 18 30
f 18 31 30
f 9 32 18
f 18 32 31
f 7 29 33
f 17 7 34
f 7 33 34
f 35 36 25
f 37 35 25
f 23 25 36
f 25 26 38
f 37 25 38
f 29 30 39
f 29 39 40
f 29 40 33
f 21 41 22
f 41 42 22
f 14 22 42
f 41 43 35
f 41 35 37
f 35 43 36
f 21 12 19
f 27 23 44
f 45 27 44
f 28 27 45
f 39 30 46
f 47 46 30
f 47 30 31
f 39 46 48
f 40 39 48
f 21 49 41
f 41 49 43
f 41 50 42
f 41 37 50
f 51 10 4
f 52 4 15
f 51 4 52
f 23 36 53
f 23 54 44
f 23 53 55
f 23 55 54
f 9 10 51
f 53 36 43
f 14 56 15
f 52 15 56
f 57 48 46
f 57 46 47
f 58 49 21
f 21 19 59
f 58 21 59
f 60 14 42
f 14 61 56
f 60 61 14
f 58 43 49
f 53 43 62
f 58 62 43
f 57 63 48
f 64 48 63
f 40 48 64
f 65 38 26
f 65 26 28
f 9 66 32
f 9 51 67
f 9 67 66
f 45 44 68
f 28 45 69
f 45 70 71
f 69 45 71
f 45 68 70
f 72 42 50
f 72 60 42
f 37 38 73
f 65 73 38
f 74 68 44
f 74 44 54
f 28 69 75
f 65 28 76
f 28 75 76
f 37 72 50
f 37 73 77
f 37 77 72
f 71 78 79
f 80 71 79
f 71 70 78
f 80 81 71
f 69 71 81
f 82 63 57
f 82 57 83
f 57 84 83
f 57 47 85
f 57 85 84
f 86 79 78
f 80 79 87
f 86 87 79
f 88 78 70
f 86 78 88
f 82 89 63
f 64 63 89
f 90 31 32
f 90 32 66
f 74 70 68
f 88 70 91
f 74 91 70
f 80 87 92
f 80 93 81
f 80 92 93
f 86 92 87
f 69 81 93
f 69 93 75
f 86 88 94
f 86 94 92
f 47 31 90
f 20 16 95
f 17 95 16
f 82 83 96
f 97 96 83
f 97 83 84
f 91 94 88
f 20 98 19
f 20 95 99
f 20 99 98
f 100 17 34
f 17 101 95
f 100 101 17
f 93 92 94
f 82 96 102
f 103 82 102
f 82 104 89
f 103 104 82
f 91 105 94
f 93 94 105
f 100 34 33
f 47 106 85
f 47 90 107
f 47 107 106
f 108 59 19
f 108 19 98
f 74 105 91
f 40 109 33
f 100 33 109
f 110 102 96
f 97 110 96
f 111 52 56
f 51 52 111
f 112 56 61
f 111 56 112
f 113 93 105
f 113 75 93
f 51 114 67
f 51 111 115
f 51 115 114
f 53 116 55
f 117 54 55
f 117 55 116
f 40 64 118
f 40 119 109
f 40 118 119
f 53 62 120
f 53 121 116
f 53 120 121
f 60 122 61
f 112 61 122
f 108 58 59
f 110 123 102
f 103 102 123
f 124 84 85
f 124 85 106
f 118 64 89
f 72 125 60
f 60 125 122
f 74 54 117
f 126 66 67
f 126 67 114
f 58 120 62
f 127 77 73
f 127 73 65
f 108 128 58
f 58 128 120
f 74 113 105
f 129 89 104
f 118 89 129
f 72 77 130
f 72 131 125
f 72 130 131
f 127 130 77
f 65 76 132
f 127 65 133
f 65 132 133
f 74 134 113
f 74 117 135
f 74 135 134
f 124 97 84
f 113 76 75
f 113 132 76
f 90 66 126
f 103 136 104
f 129 104 136
f 97 137 110
f 110 138 123
f 110 139 138
f 110 140 139
f 110 137 140
f 97 141 137
f 124 142 97
f 97 142 141
f 103 123 143
f 138 143 123
f 90 144 107
f 90 126 145
f 90 145 144
f 146 103 143
f 103 147 136
f 146 147 103
f 101 148 95
f 100 149 101
f 101 149 148
f 99 95 148
f 99 150 98
f 99 148 151
f 99 151 150
f 152 106 107
f 152 107 144
f 153 100 109
f 100 154 149
f 153 154 100
f 155 132 113
f 155 113 134
f 108 98 150
f 153 109 119
f 156 135 117
f 156 134 135
f 138 139 157
f 158 157 139
f 158 139 140
f 121 159 116
f 117 116 159
f 152 124 106
f 160 140 137
f 160 137 141
f 118 161 119
f 118 129 162
f 118 162 163
f 118 163 161
f 121 120 164
f 121 165 159
f 121 164 165
f 153 119 161
f 162 129 136
f 156 117 166
f 117 167 166
f 117 168 167
f 117 159 168
f 111 169 115
f 111 112 170
f 111 171 169
f 111 170 171
f 172 114 115
f 172 115 169
f 170 112 122
f 173 128 108
f 108 150 174
f 173 108 174
f 138 175 143
f 138 157 176
f 138 176 177
f 138 177 175
f 124 178 142
f 152 179 124
f 124 179 178
f 180 122 125
f 170 122 181
f 180 181 122
f 146 143 175
f 173 120 128
f 173 164 120
f 182 127 133
f 182 130 127
f 183 136 147
f 162 136 183
f 184 125 131
f 184 180 125
f 126 114 172
f 155 133 132
f 182 133 185
f 155 185 133
f 184 131 130
f 182 186 130
f 184 130 186
f 156 166 187
f 188 187 166
f 188 166 167
f 189 141 142
f 189 142 178
f 190 176 157
f 190 157 158
f 156 191 134
f 156 187 192
f 193 156 192
f 193 191 156
f 146 194 147
f 183 147 194
f 126 195 145
f 126 172 196
f 126 196 195
f 158 140 160
f 190 197 176
f 177 176 197
f 155 134 191
f 146 175 198
f 177 198 175
f 199 192 187
f 188 199 187
f 160 141 189
f 200 144 145
f 200 145 195
f 201 146 198
f 146 202 194
f 201 202 146
f 203 148 149
f 151 148 203
f 154 204 149
f 203 149 204
f 205 167 168
f 205 188 167
f 206 168 159
f 165 206 159
f 205 168 207
f 206 207 168
f 151 208 150
f 151 203 209
f 151 209 208
f 165 164 210
f 165 211 206
f 165 210 211
f 190 158 212
f 213 197 190
f 213 190 214
f 190 215 214
f 190 212 215
f 199 216 192
f 193 192 216
f 200 152 144
f 153 217 154
f 154 217 204
f 155 191 218
f 219 191 193
f 219 218 191
f 188 220 199
f 188 221 220
f 205 222 188
f 188 222 221
f 158 160 223
f 158 224 212
f 158 223 224
f 225 174 150
f 225 150 208
f 177 197 226
f 213 226 197
f 173 210 164
f 162 227 163
f 228 161 163
f 228 163 227
f 152 229 179
f 200 230 152
f 152 230 229
f 177 231 198
f 177 226 232
f 177 232 231
f 162 183 233
f 162 234 227
f 162 233 234
f 228 153 161
f 153 235 217
f 228 235 153
f 225 173 174
f 173 236 210
f 225 236 173
f 233 183 194
f 237 178 179
f 237 179 229
f 160 238 223
f 160 189 239
f 160 239 238
f 201 198 231
f 199 220 240
f 199 241 216
f 199 240 242
f 199 242 241
f 240 220 221
f 243 182 185
f 155 244 185
f 243 185 244
f 213 214 245
f 246 245 214
f 246 214 215
f 247 194 202
f 233 194 247
f 243 186 182
f 155 218 248
f 155 249 244
f 155 248 249
f 250 169 171
f 172 169 250
f 189 178 237
f 170 251 171
f 250 171 251
f 205 252 222
f 253 205 207
f 205 254 252
f 253 254 205
f 172 255 196
f 172 250 256
f 172 256 255
f 213 257 226
f 213 245 258
f 259 213 258
f 259 257 213
f 170 181 260
f 170 261 251
f 170 260 261
f 262 184 186
f 243 263 186
f 262 186 263
f 264 221 222
f 264 222 252
f 260 181 180
f 265 215 212
f 265 212 224
f 262 180 184
f 193 216 266
f 219 193 266
f 262 267 180
f 260 180 267
f 253 207 206
f 268 266 216
f 268 216 241
f 232 226 257
f 269 258 245
f 246 269 245
f 211 270 206
f 253 206 270
f 201 271 202
f 247 202 271
f 272 195 196
f 272 196 255
f 240 221 273
f 264 273 221
f 211 210 274
f 211 275 270
f 211 274 275
f 276 224 223
f 276 223 238
f 269 277 258
f 259 258 277
f 201 231 278
f 232 278 231
f 189 279 239
f 189 237 280
f 189 280 279
f 269 281 277
f 269 282 281
f 269 283 282
f 246 284 269
f 269 284 283
f 274 210 236
f 203 285 209
f 203 204 286
f 203 287 285
f 203 286 287
f 288 208 209
f 288 209 285
f 219 248 218
f 281 289 277
f 259 277 289
f 265 246 215
f 242 240 290
f 242 291 241
f 242 290 292
f 242 292 291
f 240 273 293
f 240 293 290
f 286 204 217
f 225 294 236
f 274 236 294
f 288 225 208
f 225 295 294
f 288 295 225
f 232 257 296
f 259 296 257
f 219 266 297
f 268 297 266
f 298 201 278
f 201 299 271
f 298 299 201
f 281 282 300
f 301 300 282
f 301 282 283
f 272 200 195
f 281 300 302
f 281 302 303
f 281 304 289
f 281 303 304
f 268 241 291
f 305 306 307
f 305 307 308
f 309 307 306
f 309 310 307
f 308 307 310
f 311 252 254
f 311 264 252
f 276 265 224
f 235 312 217
f 286 217 312
f 246 313 284
f 265 314 246
f 246 314 313
f 315 238 239
f 315 239 279
f 253 316 254
f 311 254 316
f 305 317 306
f 305 318 317
f 305 308 319
f 305 319 318
f 232 320 278
f 232 296 321
f 232 321 320
f 264 322 273
f 264 323 322
f 311 324 264
f 264 324 323
f 293 273 322
f 325 302 300
f 325 326 302
f 303 302 326
f 309 306 317
f 327 219 297
f 219 328 248
f 327 328 219
f 329 259 289
f 259 330 296
f 329 330 259
f 268 291 331
f 268 331 297
f 332 325 300
f 332 300 301
f 333 227 234
f 233 334 234
f 333 234 334
f 200 335 230
f 272 336 200
f 200 336 335
f 333 228 227
f 228 337 235
f 235 337 312
f 338 253 270
f 253 339 316
f 338 339 253
f 233 247 340
f 233 341 334
f 233 340 341
f 342 229 230
f 342 230 335
f 343 283 284
f 343 284 313
f 228 344 337
f 333 344 228
f 345 310 309
f 309 317 346
f 345 309 346
f 347 326 325
f 347 348 326
f 348 349 326
f 303 326 349
f 237 229 342
f 329 289 304
f 308 310 350
f 345 350 310
f 351 292 290
f 351 291 292
f 340 247 271
f 298 278 320
f 338 270 275
f 293 352 290
f 351 290 352
f 265 353 314
f 276 354 265
f 265 354 353
f 237 355 280
f 237 342 356
f 237 356 355
f 274 357 275
f 338 275 357
f 358 244 249
f 359 243 244
f 358 359 244
f 360 331 291
f 351 361 291
f 360 291 361
f 315 276 238
f 347 325 332
f 318 346 317
f 303 362 304
f 329 304 362
f 363 301 283
f 363 283 343
f 360 297 331
f 360 327 297
f 293 322 364
f 364 322 323
f 321 296 330
f 365 271 299
f 340 271 365
f 366 348 347
f 366 367 348
f 348 367 349
f 368 249 248
f 368 358 249
f 311 369 324
f 369 323 324
f 274 294 370
f 274 371 357
f 274 370 371
f 293 372 352
f 293 364 373
f 293 373 372
f 243 374 263
f 359 375 243
f 243 375 374
f 376 311 316
f 311 377 369
f 376 377 311
f 351 352 378
f 351 378 361
f 303 349 379
f 303 380 362
f 303 379 380
f 381 313 314
f 381 314 353
f 370 294 295
f 382 319 308
f 383 318 319
f 382 383 319
f 384 285 287
f 286 385 287
f 384 287 385
f 382 308 350
f 332 301 363
f 384 288 285
f 345 346 386
f 318 386 346
f 387 279 280
f 387 280 355
f 376 316 339
f 366 347 388
f 347 332 389
f 347 390 388
f 347 389 390
f 321 391 320
f 298 320 391
f 329 392 330
f 321 330 392
f 393 262 263
f 393 263 374
f 378 352 372
f 288 394 295
f 370 295 394
f 328 368 248
f 395 360 361
f 395 361 378
f 288 396 394
f 384 396 288
f 276 397 354
f 315 398 276
f 276 398 397
f 366 399 367
f 366 388 400
f 366 400 401
f 402 366 401
f 402 399 366
f 379 349 367
f 298 403 299
f 365 299 403
f 286 312 404
f 286 405 385
f 286 404 405
f 364 323 406
f 364 407 373
f 364 406 407
f 250 408 256
f 250 251 409
f 250 410 408
f 250 409 410
f 369 411 323
f 406 323 411
f 412 343 313
f 412 313 381
f 413 329 362
f 329 414 392
f 413 414 329
f 378 372 415
f 416 372 373
f 416 415 372
f 417 255 256
f 417 256 408
f 409 251 261
f 418 267 262
f 418 262 393
f 395 327 360
f 332 419 389
f 332 363 420
f 332 420 419
f 345 421 350
f 345 386 421
f 399 422 367
f 379 367 422
f 327 423 328
f 328 423 368
f 338 424 339
f 376 339 424
f 395 378 415
f 260 425 261
f 409 261 425
f 413 362 380
f 404 312 337
f 426 400 388
f 426 388 390
f 417 272 255
f 260 267 418
f 260 427 425
f 260 418 427
f 377 411 369
f 428 386 318
f 383 429 318
f 428 318 429
f 363 343 412
f 395 430 327
f 327 430 423
f 321 392 431
f 321 432 391
f 321 431 432
f 433 353 354
f 433 354 397
f 387 315 279
f 416 373 407
f 434 350 421
f 382 350 434
f 435 298 391
f 298 436 403
f 435 436 298
f 395 415 437
f 416 437 415
f 438 401 400
f 402 401 439
f 438 439 401
f 440 338 357
f 338 441 424
f 440 441 338
f 399 442 422
f 402 442 399
f 379 443 380
f 413 380 443
f 406 411 444
f 406 445 407
f 406 444 445
f 440 357 371
f 446 390 389
f 446 389 419
f 344 447 337
f 404 337 447
f 448 395 437
f 448 430 395
f 363 449 420
f 363 412 450
f 363 450 449
f 377 451 411
f 376 451 377
f 452 333 334
f 452 334 341
f 333 453 344
f 452 454 333
f 333 454 453
f 344 453 447
f 431 392 414
f 455 381 353
f 455 353 433
f 272 456 336
f 417 457 272
f 272 457 456
f 340 458 341
f 452 341 458
f 416 407 459
f 416 459 437
f 370 460 371
f 440 371 460
f 379 422 461
f 379 462 443
f 379 461 462
f 340 365 463
f 340 464 458
f 340 463 464
f 315 465 398
f 387 466 315
f 315 466 465
f 435 391 432
f 451 444 411
f 426 438 400
f 467 421 386
f 467 386 428
f 413 468 414
f 431 414 468
f 370 394 469
f 370 470 460
f 370 469 470
f 471 419 420
f 471 420 449
f 463 365 403
f 412 381 455
f 461 422 442
f 472 335 336
f 472 336 456
f 445 459 407
f 446 426 390
f 402 439 473
f 402 474 442
f 475 402 473
f 475 474 402
f 476 376 424
f 376 477 451
f 476 477 376
f 478 383 382
f 478 429 383
f 434 421 467
f 479 437 459
f 479 448 437
f 438 480 439
f 480 473 439
f 481 413 443
f 413 482 468
f 481 482 413
f 469 394 396
f 448 423 430
f 483 397 398
f 483 398 465
f 342 335 472
f 382 434 484
f 478 382 485
f 382 484 485
f 486 403 436
f 463 403 486
f 384 487 396
f 488 384 385
f 384 489 487
f 488 489 384
f 469 396 487
f 431 490 432
f 435 432 490
f 412 491 450
f 412 455 492
f 412 492 491
f 342 493 356
f 342 472 494
f 342 494 493
f 488 385 405
f 368 423 495
f 448 495 423
f 445 479 459
f 474 496 442
f 461 442 496
f 481 443 462
f 471 446 419
f 497 355 356
f 497 356 493
f 451 498 444
f 445 444 498
f 358 499 359
f 368 500 358
f 358 500 499
f 501 433 397
f 501 397 483
f 435 502 436
f 486 436 502
f 359 503 375
f 359 499 503
f 476 424 441
f 368 495 504
f 368 504 500
f 404 505 405
f 488 405 505
f 506 449 450
f 506 450 491
f 431 468 507
f 431 508 490
f 431 507 508
f 426 509 438
f 438 510 480
f 438 509 511
f 438 511 510
f 446 512 426
f 426 513 509
f 426 512 513
f 461 514 462
f 481 462 514
f 451 477 515
f 451 515 498
f 480 516 473
f 475 473 516
f 497 387 355
f 428 429 517
f 478 517 429
f 480 518 516
f 480 510 519
f 480 519 520
f 480 520 518
f 455 433 501
f 507 468 482
f 474 521 496
f 475 521 474
f 479 495 448
f 471 522 446
f 446 523 512
f 446 522 523
f 404 447 524
f 404 525 505
f 404 524 525
f 434 467 526
f 434 526 484
f 461 496 527
f 461 528 514
f 461 527 528
f 529 374 375
f 529 375 503
f 506 471 449
f 530 435 490
f 435 531 502
f 530 531 435
f 440 532 441
f 476 441 532
f 387 533 466
f 497 534 387
f 387 534 533
f 481 535 482
f 507 482 535
f 536 452 458
f 452 537 454
f 536 538 452
f 452 538 537
f 536 458 464
f 524 447 453
f 539 440 460
f 440 540 532
f 539 540 440
f 454 541 453
f 524 453 541
f 455 542 492
f 455 501 543
f 455 543 542
f 454 537 541
f 463 544 464
f 536 464 544
f 445 545 479
f 445 498 546
f 445 546 545
f 539 460 470
f 527 496 521
f 547 481 514
f 481 548 535
f 547 548 481
f 549 393 374
f 549 374 529
f 475 516 550
f 518 550 516
f 530 490 508
f 509 551 511
f 509 513 551
f 510 511 552
f 510 552 519
f 471 553 522
f 506 554 471
f 471 554 553
f 463 486 555
f 463 556 544
f 463 555 556
f 557 491 492
f 557 492 542
f 558 465 466
f 558 466 533
f 479 545 495
f 467 428 559
f 428 517 559
f 512 560 513
f 512 523 560
f 475 561 521
f 562 475 550
f 562 561 475
f 476 515 477
f 563 504 495
f 563 495 545
f 555 486 502
f 467 559 526
f 547 514 528
f 469 564 470
f 539 470 564
f 507 565 508
f 530 508 565
f 566 408 410
f 409 567 410
f 566 410 567
f 566 417 408
f 515 546 498
f 520 519 568
f 518 520 569
f 520 568 569
f 557 506 491
f 570 483 465
f 570 465 558
f 418 393 549
f 527 521 571
f 561 571 521
f 572 573 574
f 572 574 575
f 572 576 573
f 572 577 576
f 572 575 578
f 572 578 577
f 507 535 579
f 507 580 565
f 507 579 580
f 417 581 457
f 417 582 581
f 566 582 417
f 409 425 583
f 409 584 567
f 409 583 584
f 478 485 585
f 586 517 478
f 478 585 587
f 586 478 587
f 588 502 531
f 555 502 588
f 522 589 523
f 522 553 589
f 590 485 484
f 590 585 485
f 527 591 528
f 547 528 591
f 592 456 457
f 592 457 581
f 501 483 570
f 583 425 427
f 469 487 593
f 469 594 564
f 469 593 594
f 418 595 427
f 418 549 596
f 418 596 595
f 472 456 592
f 597 552 511
f 597 511 551
f 579 535 548
f 598 568 519
f 598 519 552
f 518 599 550
f 562 550 599
f 506 600 554
f 557 601 506
f 506 601 600
f 583 427 595
f 518 569 602
f 518 603 599
f 518 602 603
f 563 500 504
f 604 551 513
f 604 513 560
f 605 574 573
f 605 606 574
f 607 574 606
f 607 575 574
f 530 608 531
f 588 531 608
f 501 609 543
f 501 570 610
f 501 610 609
f 593 487 489
f 488 611 489
f 593 489 611
f 612 573 576
f 613 612 576
f 613 576 577
f 614 569 568
f 602 569 615
f 614 615 569
f 527 571 616
f 527 617 591
f 527 616 617
f 618 488 505
f 618 619 488
f 488 619 611
f 620 476 532
f 476 621 515
f 620 621 476
f 605 573 622
f 612 622 573
f 472 623 494
f 472 592 624
f 472 624 623
f 547 625 548
f 579 548 625
f 561 626 571
f 562 626 561
f 627 560 523
f 627 523 589
f 628 545 546
f 628 563 545
f 629 542 543
f 629 543 609
f 630 493 494
f 630 494 623
f 631 530 565
f 530 632 608
f 631 632 530
f 618 505 525
f 633 499 500
f 563 633 500
f 634 559 517
f 634 517 586
f 605 622 635
f 605 635 636
f 605 636 606
f 630 497 493
f 554 637 553
f 554 600 637
f 536 638 538
f 639 536 544
f 536 640 638
f 639 640 536
f 538 641 537
f 538 638 641
f 642 635 622
f 612 642 622
f 643 547 591
f 547 644 625
f 643 644 547
f 590 484 526
f 645 578 575
f 646 577 578
f 646 578 645
f 647 541 537
f 647 537 641
f 515 628 546
f 497 648 534
f 630 649 497
f 497 649 648
f 524 650 525
f 618 525 650
f 629 557 542
f 631 565 580
f 524 541 647
f 639 544 556
f 524 647 651
f 524 651 650
f 614 568 598
f 652 503 499
f 633 652 499
f 598 552 597
f 642 653 635
f 653 636 635
f 616 571 626
f 654 607 606
f 654 606 636
f 597 551 604
f 562 599 655
f 603 655 599
f 656 533 534
f 656 534 648
f 555 657 556
f 639 556 657
f 602 615 658
f 603 602 658
f 620 532 540
f 659 575 607
f 645 575 660
f 659 660 575
f 579 661 580
f 631 580 661
f 662 615 614
f 662 658 615
f 515 621 663
f 515 663 628
f 557 664 601
f 629 665 557
f 557 665 664
f 612 666 642
f 613 666 612
f 562 667 626
f 668 562 655
f 668 667 562
f 669 589 553
f 669 553 637
f 643 591 617
f 555 588 670
f 555 671 657
f 555 670 671
f 646 613 577
f 672 558 533
f 672 533 656
f 604 560 627
f 673 529 503
f 652 674 503
f 673 503 674
f 539 675 540
f 620 540 675
f 579 625 676
f 579 677 661
f 579 676 677
f 653 642 666
f 670 588 608
f 678 526 559
f 678 559 634
f 570 558 672
f 614 598 679
f 662 614 680
f 614 681 680
f 614 679 681
f 601 682 600
f 601 664 682
f 590 526 678
f 616 683 617
f 643 617 683
f 653 684 636
f 653 666 684
f 616 626 685
f 667 685 626
f 686 539 564
f 539 687 675
f 686 687 539
f 628 633 563
f 598 597 688
f 598 689 679
f 598 688 689
f 676 625 644
f 690 608 632
f 670 608 690
f 570 691 610
f 570 672 692
f 570 692 691
f 627 589 669
f 654 659 607
f 597 604 693
f 597 694 688
f 597 693 694
f 684 654 636
f 549 529 673
f 662 695 658
f 662 680 696
f 697 695 662
f 662 696 698
f 697 662 698
f 603 658 699
f 603 700 655
f 603 699 701
f 603 701 700
f 613 702 666
f 684 666 702
f 699 658 695
f 703 609 610
f 703 610 691
f 668 655 700
f 631 704 632
f 690 632 704
f 604 627 705
f 604 706 693
f 604 705 706
f 707 637 600
f 707 600 682
f 616 685 708
f 616 709 683
f 616 708 709
f 643 710 644
f 676 644 710
f 703 629 609
f 686 564 594
f 613 711 702
f 646 712 613
f 613 712 711
f 713 631 661
f 631 714 704
f 713 714 631
f 640 715 638
f 639 716 640
f 640 716 715
f 592 581 717
f 592 718 624
f 592 719 718
f 592 717 719
f 620 663 621
f 720 696 680
f 720 680 681
f 717 581 582
f 667 721 685
f 668 721 667
f 629 722 665
f 703 723 629
f 629 723 722
f 724 641 638
f 724 638 715
f 566 725 582
f 726 566 567
f 566 727 725
f 726 727 566
f 728 623 624
f 728 624 718
f 717 582 725
f 726 567 584
f 628 663 633
f 633 729 652
f 633 663 729
f 684 730 654
f 684 702 730
f 731 587 585
f 732 586 587
f 731 733 587
f 732 587 733
f 728 630 623
f 734 681 679
f 734 679 689
f 549 735 596
f 549 673 736
f 549 736 735
f 737 639 657
f 639 738 716
f 737 738 639
f 630 739 649
f 728 740 630
f 630 740 739
f 713 661 677
f 731 585 590
f 627 669 741
f 627 742 705
f 627 741 742
f 743 643 683
f 643 744 710
f 743 744 643
f 647 641 724
f 669 637 707
f 583 745 584
f 726 584 745
f 746 689 688
f 746 688 694
f 747 648 649
f 747 649 739
f 665 748 664
f 665 722 748
f 737 657 671
f 749 645 660
f 750 646 645
f 749 751 645
f 750 645 751
f 752 656 648
f 752 648 747
f 659 749 660
f 699 695 753
f 697 753 695
f 654 754 659
f 654 730 755
f 654 755 754
f 670 756 671
f 737 671 756
f 647 757 651
f 647 724 758
f 647 758 757
f 759 674 652
f 759 652 729
f 676 760 677
f 713 677 760
f 583 595 761
f 583 762 745
f 583 761 762
f 763 698 696
f 697 698 764
f 763 764 698
f 708 685 721
f 672 656 752
f 765 694 693
f 765 693 706
f 761 595 596
f 761 596 735
f 701 699 753
f 766 650 651
f 766 651 757
f 593 767 594
f 686 594 767
f 668 700 768
f 701 768 700
f 618 769 619
f 766 618 650
f 766 770 618
f 618 770 769
f 743 683 709
f 771 682 664
f 771 664 748
f 670 690 772
f 670 773 756
f 670 772 773
f 774 611 619
f 774 619 769
f 711 730 702
f 720 763 696
f 672 775 692
f 672 752 776
f 672 776 775
f 620 729 663
f 759 620 675
f 759 729 620
f 593 611 774
f 676 710 777
f 676 778 760
f 676 777 778
f 668 779 721
f 780 668 768
f 780 779 668
f 669 781 741
f 669 707 782
f 669 782 781
f 593 774 783
f 593 783 767
f 634 586 732
f 734 720 681
f 772 690 704
f 784 712 646
f 784 646 750
f 659 754 785
f 659 786 749
f 659 785 786
f 787 706 705
f 787 705 742
f 788 691 692
f 788 692 775
f 673 674 759
f 789 704 714
f 772 704 789
f 590 678 790
f 731 590 791
f 590 790 791
f 746 734 689
f 708 792 709
f 743 709 792
f 788 703 691
f 707 682 771
f 711 755 730
f 777 710 744
f 703 793 723
f 788 794 703
f 703 794 793
f 713 795 714
f 789 714 795
f 708 721 796
f 779 796 721
f 759 675 687
f 738 797 716
f 798 715 716
f 798 716 797
f 697 799 753
f 697 764 800
f 801 799 697
f 801 697 800
f 728 802 740
f 798 728 718
f 728 797 802
f 798 797 728
f 765 746 694
f 803 739 740
f 803 740 802
f 723 804 722
f 723 793 804
f 737 802 738
f 738 802 797
f 724 715 798
f 798 718 719
f 701 753 805
f 805 753 799
f 806 713 760
f 713 807 795
f 806 807 713
f 808 737 756
f 737 803 802
f 808 803 737
f 809 754 755
f 809 785 754
f 810 742 741
f 810 741 781
f 808 756 773
f 808 747 739
f 808 739 803
f 752 747 808
f 717 811 719
f 798 719 811
f 701 812 768
f 701 805 813
f 701 813 812
f 743 814 744
f 777 744 814
f 752 815 776
f 752 808 816
f 752 816 815
f 707 817 782
f 707 771 818
f 707 818 817
f 819 748 722
f 819 722 804
f 673 820 736
f 673 759 821
f 673 821 820
f 734 822 720
f 720 823 763
f 720 822 824
f 720 824 823
f 772 816 773
f 808 773 816
f 724 798 811
f 724 825 758
f 724 811 825
f 678 634 826
f 634 732 826
f 806 760 778
f 827 775 776
f 827 776 815
f 780 768 812
f 787 765 706
f 708 828 792
f 708 796 829
f 708 829 828
f 717 725 830
f 717 825 811
f 717 830 825
f 678 826 790
f 772 789 827
f 772 815 816
f 772 827 815
f 763 831 764
f 831 800 764
f 832 711 712
f 832 712 784
f 827 789 795
f 827 788 775
f 830 725 727
f 746 833 734
f 734 834 822
f 734 833 834
f 759 687 821
f 686 821 687
f 771 748 819
f 763 823 835
f 763 836 831
f 763 835 836
f 830 757 758
f 830 758 825
f 726 837 727
f 830 727 837
f 749 786 838
f 749 839 751
f 749 840 839
f 749 838 840
f 806 778 841
f 777 841 778
f 788 842 794
f 827 843 788
f 788 843 842
f 827 795 843
f 843 795 807
f 779 844 796
f 780 844 779
f 845 743 792
f 743 846 814
f 845 846 743
f 847 726 745
f 726 848 837
f 847 848 726
f 838 786 785
f 849 781 782
f 849 782 817
f 794 850 793
f 794 842 850
f 765 851 746
f 746 852 833
f 746 851 852
f 806 842 807
f 843 807 842
f 810 787 742
f 853 735 736
f 853 736 820
f 809 755 711
f 854 804 793
f 854 793 850
f 847 745 762
f 806 850 842
f 854 850 806
f 854 806 841
f 830 766 757
f 750 751 839
f 805 799 855
f 801 855 799
f 771 819 856
f 771 857 818
f 771 856 857
f 777 858 841
f 777 814 859
f 777 859 858
f 845 792 828
f 819 804 854
f 766 848 770
f 847 769 770
f 847 770 848
f 809 711 832
f 813 805 855
f 829 796 844
f 830 837 766
f 766 837 848
f 787 860 765
f 765 861 851
f 765 860 861
f 853 686 767
f 686 820 821
f 853 820 686
f 854 841 858
f 761 862 762
f 847 762 862
f 831 863 800
f 801 800 863
f 780 812 864
f 813 864 812
f 761 735 853
f 774 769 847
f 819 854 865
f 854 858 865
f 849 810 781
f 761 866 862
f 761 853 866
f 867 824 822
f 867 822 834
f 859 814 846
f 819 865 868
f 819 868 856
f 869 823 824
f 869 835 823
f 780 870 844
f 871 780 864
f 871 870 780
f 872 733 731
f 732 733 873
f 872 873 733
f 810 874 787
f 787 875 860
f 787 874 875
f 876 817 818
f 876 818 857
f 859 865 858
f 774 866 783
f 774 847 862
f 774 862 866
f 877 834 833
f 877 833 852
f 853 767 783
f 872 731 791
f 845 828 878
f 829 878 828
f 859 868 865
f 853 783 866
f 784 750 879
f 750 839 879
f 829 844 880
f 870 880 844
f 859 846 881
f 845 881 846
f 882 856 868
f 882 857 856
f 883 852 851
f 883 851 861
f 859 882 868
f 859 881 882
f 831 836 884
f 831 885 863
f 831 884 886
f 831 886 885
f 849 887 810
f 810 888 874
f 810 887 888
f 876 849 817
f 813 855 889
f 801 890 855
f 889 855 890
f 891 836 835
f 891 884 836
f 813 892 864
f 813 889 893
f 813 893 892
f 894 785 809
f 838 785 894
f 801 863 895
f 896 890 801
f 896 801 895
f 845 897 881
f 898 845 878
f 898 897 845
f 732 899 826
f 732 873 900
f 732 900 899
f 901 861 860
f 901 860 875
f 829 902 878
f 829 880 903
f 829 903 902
f 871 864 892
f 904 791 790
f 872 791 904
f 869 824 867
f 867 834 877
f 882 881 897
f 849 905 887
f 876 906 849
f 849 906 905
f 882 876 857
f 870 907 880
f 871 907 870
f 885 895 863
f 832 784 908
f 784 879 908
f 909 875 874
f 909 874 888
f 882 897 910
f 882 910 876
f 877 852 883
f 809 832 911
f 894 809 912
f 809 911 912
f 898 878 902
f 891 835 869
f 898 910 897
f 903 880 907
f 840 913 839
f 840 838 914
f 840 914 915
f 840 915 913
f 883 861 901
f 889 890 916
f 893 889 916
f 917 790 826
f 917 826 899
f 832 908 911
f 896 916 890
f 918 888 887
f 918 887 905
f 876 910 919
f 876 919 906
f 904 790 917
f 871 892 920
f 893 920 892
f 898 919 910
f 921 879 839
f 921 839 913
f 901 875 909
f 838 894 922
f 838 922 914
f 885 923 895
f 896 895 923
f 898 902 924
f 903 924 902
f 871 925 907
f 926 871 920
f 926 925 871
f 927 886 884
f 885 886 928
f 927 928 886
f 867 877 929
f 869 867 930
f 867 929 931
f 867 931 930
f 932 906 919
f 932 905 906
f 927 884 891
f 877 883 933
f 877 934 929
f 877 933 934
f 903 907 935
f 925 935 907
f 932 919 898
f 932 898 924
f 909 888 918
f 883 901 936
f 883 937 933
f 883 936 937
f 891 869 938
f 869 930 939
f 869 939 938
f 885 940 923
f 885 928 941
f 885 941 940
f 903 942 924
f 903 935 943
f 903 943 942
f 901 909 944
f 901 945 936
f 901 944 945
f 893 916 946
f 896 947 916
f 946 916 947
f 893 948 920
f 893 946 949
f 893 949 948
f 918 905 932
f 921 908 879
f 896 923 950
f 951 947 896
f 951 896 950
f 932 924 942
f 952 873 872
f 900 873 953
f 952 953 873
f 927 891 954
f 891 938 955
f 891 955 954
f 926 920 948
f 909 918 956
f 909 957 944
f 909 956 957
f 952 872 904
f 918 932 958
f 932 942 958
f 922 894 912
f 925 959 935
f 926 959 925
f 960 929 934
f 960 931 929
f 961 934 933
f 961 933 937
f 940 950 923
f 943 935 959
f 918 958 962
f 918 962 956
f 963 930 931
f 963 939 930
f 964 915 914
f 964 913 915
f 965 937 936
f 965 936 945
f 943 958 942
f 900 966 899
f 900 953 967
f 900 967 966
f 968 911 908
f 921 969 908
f 968 908 969
f 970 928 927
f 970 941 928
f 927 954 971
f 970 927 972
f 927 971 972
f 943 962 958
f 946 947 973
f 949 946 973
f 974 945 944
f 974 944 957
f 968 912 911
f 922 912 975
f 968 975 912
f 904 917 976
f 952 904 977
f 904 976 977
f 978 938 939
f 978 955 938
f 951 973 947
f 926 948 979
f 949 979 948
f 980 956 962
f 980 957 956
f 926 981 959
f 982 926 979
f 982 981 926
f 940 983 950
f 951 950 983
f 940 941 984
f 970 984 941
f 943 959 985
f 943 980 962
f 943 985 980
f 981 985 959
f 986 954 955
f 986 971 954
f 961 960 934
f 917 899 966
f 964 914 987
f 922 987 914
f 965 961 937
f 964 988 913
f 989 921 913
f 989 913 988
f 960 963 931
f 974 965 945
f 940 990 983
f 940 984 991
f 940 991 990
f 963 978 939
f 980 974 957
f 949 973 992
f 951 993 973
f 992 973 993
f 949 994 979
f 949 992 995
f 949 995 994
f 951 983 996
f 997 993 951
f 997 951 996
f 982 979 994
f 978 986 955
f 917 988 964
f 917 964 998
f 999 964 987
f 999 998 964
f 980 985 1000
f 980 1001 974
f 980 1000 1001
f 981 1000 985
f 982 1000 981
f 970 972 1002
f 1003 972 971
f 1003 1002 972
f 1004 984 970
f 970 1002 1005
f 1004 970 1005
f 917 1006 988
f 917 1007 1006
f 917 966 1008
f 917 998 976
f 917 1008 1007
f 961 1009 960
f 965 1010 961
f 961 1010 1011
f 961 1011 1009
f 990 996 983
f 960 1012 963
f 960 1009 1013
f 960 1013 1012
f 974 1014 965
f 965 1014 1015
f 965 1015 1010
f 974 1001 1016
f 974 1016 1014
f 1004 991 984
f 922 1017 987
f 922 975 1018
f 922 1018 1017
f 963 1019 978
f 963 1012 1020
f 963 1020 1019
f 992 993 1021
f 995 992 1021
f 986 1003 971
f 997 1021 993
f 982 994 1022
f 995 1022 994
f 978 1023 986
f 978 1019 1024
f 978 1024 1023
f 1025 1001 1000
f 1025 1016 1001
f 921 1026 969
f 989 1027 921
f 921 1027 1026
f 982 1025 1000
f 1028 982 1022
f 1028 1025 982
f 990 991 1029
f 1004 1029 991
f 990 1030 996
f 997 996 1030
f 1031 1014 1016
f 1031 1015 1014
f 1032 1010 1015
f 1032 1011 1010
f 1033 988 1006
f 1033 989 988
f 1034 1009 1011
f 1034 1013 1009
f 1035 953 952
f 967 953 1036
f 1035 1036 953
f 968 969 1026
f 986 1023 1037
f 986 1038 1003
f 986 1037 1038
f 1039 1012 1013
f 1039 1020 1012
f 1017 999 987
f 968 1018 975
f 990 1040 1030
f 990 1029 1041
f 990 1041 1040
f 995 1021 1042
f 997 1043 1021
f 1042 1021 1043
f 1035 952 977
f 995 1044 1022
f 995 1042 1045
f 995 1045 1044
f 1046 1019 1020
f 1046 1024 1019
f 1028 1022 1044
f 1028 1016 1025
f 1028 1031 1016
f 1047 1005 1002
f 1004 1005 1048
f 1047 1048 1005
f 997 1030 1049
f 1050 1043 997
f 1050 997 1049
f 1003 1047 1002
f 967 1051 966
f 967 1036 1052
f 967 1052 1051
f 1053 1029 1004
f 1004 1048 1054
f 1053 1004 1054
f 1055 1015 1031
f 1055 1032 1015
f 1056 1023 1024
f 1056 1037 1023
f 1057 977 976
f 1035 977 1057
f 1058 1011 1032
f 1058 1034 1011
f 1003 1038 1059
f 1003 1060 1047
f 1003 1059 1060
f 1040 1049 1030
f 1061 1013 1034
f 1061 1039 1013
f 968 1026 1062
f 968 1063 1018
f 968 1064 1063
f 968 1062 1064
f 1053 1041 1029
f 1065 1033 1006
f 1065 1006 1007
f 1028 1044 1066
f 1055 1031 1028
f 1055 1028 1066
f 1067 1020 1039
f 1067 1046 1020
f 1042 1043 1068
f 1045 1042 1068
f 1045 1066 1044
f 1050 1068 1043
f 1051 1008 966
f 1017 1018 1069
f 1017 1070 999
f 1017 1069 1070
f 989 1071 1027
f 1033 1071 989
f 1072 976 998
f 1057 976 1073
f 1072 1073 976
f 1074 1038 1037
f 1074 1059 1038
f 1075 1024 1046
f 1075 1056 1024
f 1040 1041 1076
f 1053 1076 1041
f 1040 1077 1049
f 1050 1049 1077
f 1058 1032 1055
f 1061 1034 1058
f 1045 1078 1066
f 1055 1066 1078
f 1067 1039 1061
f 1047 1079 1048
f 1079 1054 1048
f 1047 1060 1080
f 1047 1081 1079
f 1047 1080 1081
f 1045 1068 1082
f 1045 1083 1078
f 1045 1082 1083
f 1058 1055 1084
f 1055 1078 1084
f 1085 1026 1027
f 1085 1062 1026
f 1050 1086 1068
f 1082 1068 1086
f 999 1072 998
f 1053 1054 1087
f 1079 1087 1054
f 1088 1037 1056
f 1088 1074 1037
f 1040 1089 1077
f 1040 1076 1090
f 1040 1090 1089
f 1091 1007 1008
f 1051 1092 1008
f 1091 1008 1092
f 1075 1046 1067
f 1093 1060 1059
f 1093 1080 1060
f 1050 1077 1094
f 1095 1086 1050
f 1095 1050 1094
f 1096 1018 1063
f 1096 1069 1018
f 1097 1076 1053
f 1053 1087 1098
f 1097 1053 1098
f 1061 1058 1099
f 1058 1084 1100
f 1058 1100 1099
f 1083 1084 1078
f 1071 1085 1027
f 1067 1061 1101
f 1061 1099 1102
f 1061 1102 1101
f 1088 1056 1075
f 1082 1086 1103
f 1083 1082 1103
f 1083 1100 1084
f 1104 1059 1074
f 1104 1093 1059
f 1089 1094 1077
f 1033 1105 1071
f 1065 1105 1033
f 1075 1067 1106
f 1067 1101 1107
f 1067 1107 1106
f 1097 1090 1076
f 999 1070 1108
f 999 1109 1072
f 999 1108 1109
f 1095 1103 1086
f 1079 1081 1110
f 1079 1111 1087
f 1079 1110 1112
f 1079 1112 1111
f 1113 1081 1080
f 1113 1110 1081
f 1096 1063 1064
f 1114 1099 1100
f 1114 1102 1099
f 1111 1098 1087
f 1083 1114 1100
f 1083 1103 1115
f 1083 1115 1114
f 1075 1106 1116
f 1088 1075 1117
f 1075 1116 1117
f 1085 1064 1062
f 1104 1074 1088
f 1118 1065 1007
f 1118 1007 1091
f 1089 1119 1094
f 1095 1094 1119
f 1089 1090 1120
f 1097 1120 1090
f 1121 1080 1093
f 1121 1113 1080
f 1122 1101 1102
f 1122 1107 1101
f 1071 1105 1123
f 1071 1124 1085
f 1071 1123 1124
f 1095 1125 1103
f 1115 1103 1125
f 1126 1036 1035
f 1126 1052 1036
f 1097 1098 1127
f 1111 1127 1098
f 1108 1070 1069
f 1128 1106 1107
f 1128 1116 1106
f 1035 1057 1129
f 1126 1035 1130
f 1035 1129 1130
f 1088 1117 1131
f 1104 1088 1132
f 1088 1131 1132
f 1121 1093 1104
f 1089 1133 1119
f 1089 1120 1134
f 1089 1134 1133
f 1051 1052 1135
f 1126 1135 1052
f 1095 1119 1136
f 1137 1125 1095
f 1137 1095 1136
f 1114 1122 1102
f 1114 1115 1138
f 1115 1125 1138
f 1139 1120 1097
f 1097 1127 1140
f 1139 1097 1140
f 1141 1057 1073
f 1141 1129 1057
f 1142 1112 1110
f 1111 1112 1143
f 1142 1143 1112
f 1144 1110 1113
f 1144 1142 1110
f 1114 1145 1122
f 1114 1138 1145
f 1085 1146 1064
f 1096 1064 1147
f 1147 1064 1146
f 1122 1128 1107
f 1148 1117 1116
f 1148 1131 1117
f 1111 1149 1127
f 1111 1143 1150
f 1111 1150 1149
f 1104 1132 1151
f 1121 1104 1152
f 1104 1151 1152
f 1133 1136 1119
f 1072 1141 1073
f 1137 1138 1125
f 1144 1113 1121
f 1139 1134 1120
f 1065 1153 1105
f 1118 1153 1065
f 1051 1154 1092
f 1051 1135 1155
f 1051 1155 1154
f 1123 1105 1153
f 1122 1145 1156
f 1122 1157 1128
f 1122 1156 1157
f 1158 1069 1096
f 1108 1069 1159
f 1158 1159 1069
f 1149 1140 1127
f 1128 1148 1116
f 1145 1138 1160
f 1137 1160 1138
f 1072 1109 1161
f 1072 1162 1141
f 1072 1161 1162
f 1163 1132 1131
f 1163 1151 1132
f 1121 1152 1164
f 1144 1121 1165
f 1121 1164 1165
f 1133 1166 1136
f 1137 1136 1166
f 1145 1160 1156
f 1133 1134 1167
f 1139 1167 1134
f 1146 1085 1124
f 1154 1091 1092
f 1139 1140 1168
f 1149 1168 1140
f 1169 1143 1142
f 1170 1150 1143
f 1169 1170 1143
f 1128 1157 1171
f 1128 1172 1148
f 1128 1171 1172
f 1169 1142 1144
f 1149 1150 1173
f 1170 1173 1150
f 1096 1147 1174
f 1147 1146 1174
f 1109 1108 1175
f 1109 1175 1161
f 1148 1163 1131
f 1176 1152 1151
f 1176 1164 1152
f 1133 1177 1166
f 1133 1167 1178
f 1133 1178 1177
f 1179 1160 1137
f 1137 1166 1180
f 1179 1137 1180
f 1144 1165 1181
f 1169 1144 1182
f 1144 1181 1182
f 1183 1167 1139
f 1139 1168 1184
f 1183 1139 1184
f 1157 1156 1185
f 1157 1185 1171
f 1146 1124 1186
f 1123 1186 1124
f 1096 1174 1187
f 1158 1096 1187
f 1149 1188 1168
f 1149 1173 1189
f 1149 1189 1188
f 1179 1156 1160
f 1179 1185 1156
f 1148 1172 1190
f 1148 1191 1163
f 1148 1190 1191
f 1163 1176 1151
f 1123 1153 1192
f 1118 1193 1153
f 1153 1194 1192
f 1153 1193 1194
f 1118 1091 1195
f 1154 1195 1091
f 1177 1180 1166
f 1183 1178 1167
f 1196 1165 1164
f 1196 1181 1165
f 1188 1184 1168
f 1197 1174 1146
f 1146 1186 1198
f 1146 1198 1199
f 1197 1146 1199
f 1108 1159 1200
f 1108 1200 1175
f 1172 1171 1201
f 1172 1201 1190
f 1163 1191 1202
f 1163 1203 1176
f 1163 1202 1203
f 1204 1135 1126
f 1126 1130 1205
f 1204 1126 1206
f 1126 1205 1206
f 1177 1178 1207
f 1183 1207 1178
f 1179 1180 1208
f 1177 1208 1180
f 1209 1171 1185
f 1209 1201 1171
f 1210 1170 1169
f 1169 1182 1211
f 1210 1169 1212
f 1169 1211 1212
f 1210 1173 1170
f 1176 1196 1164
f 1123 1213 1186
f 1123 1192 1214
f 1123 1214 1213
f 1204 1155 1135
f 1183 1184 1215
f 1188 1215 1184
f 1216 1130 1129
f 1216 1205 1130
f 1217 1189 1173
f 1210 1217 1173
f 1218 1187 1174
f 1218 1174 1197
f 1209 1185 1179
f 1179 1208 1219
f 1209 1179 1219
f 1191 1190 1220
f 1191 1220 1202
f 1213 1198 1186
f 1221 1182 1181
f 1221 1211 1182
f 1222 1193 1118
f 1118 1195 1223
f 1222 1118 1223
f 1141 1216 1129
f 1177 1224 1208
f 1177 1207 1225
f 1177 1225 1224
f 1188 1189 1226
f 1217 1226 1189
f 1176 1203 1227
f 1176 1228 1196
f 1176 1227 1228
f 1229 1207 1183
f 1183 1215 1230
f 1229 1183 1230
f 1158 1200 1159
f 1231 1190 1201
f 1231 1220 1190
f 1199 1198 1232
f 1213 1232 1198
f 1154 1155 1233
f 1204 1233 1155
f 1141 1162 1234
f 1141 1235 1216
f 1141 1234 1235
f 1196 1221 1181
f 1188 1236 1215
f 1188 1226 1237
f 1188 1237 1236
f 1158 1187 1238
f 1239 1187 1218
f 1239 1238 1187
f 1224 1219 1208
f 1231 1201 1209
f 1203 1202 1240
f 1203 1240 1227
f 1229 1225 1207
f 1199 1232 1197
f 1241 1162 1161
f 1241 1234 1162
f 1209 1219 1242
f 1231 1209 1243
f 1209 1242 1243
f 1244 1214 1192
f 1244 1192 1194
f 1224 1242 1219
f 1236 1230 1215
f 1154 1245 1195
f 1154 1233 1246
f 1154 1246 1245
f 1213 1247 1232
f 1213 1214 1247
f 1196 1228 1248
f 1196 1249 1221
f 1196 1248 1249
f 1250 1202 1220
f 1250 1240 1202
f 1241 1161 1175
f 1224 1225 1251
f 1229 1251 1225
f 1222 1194 1193
f 1218 1197 1232
f 1250 1220 1231
f 1229 1230 1252
f 1236 1252 1230
f 1210 1212 1253
f 1254 1212 1211
f 1254 1253 1212
f 1255 1217 1210
f 1210 1253 1256
f 1255 1210 1256
f 1228 1227 1257
f 1228 1257 1248
f 1255 1226 1217
f 1224 1258 1242
f 1224 1251 1259
f 1224 1259 1258
f 1231 1243 1260
f 1250 1231 1261
f 1231 1260 1261
f 1200 1262 1175
f 1241 1175 1262
f 1245 1223 1195
f 1158 1263 1200
f 1158 1238 1264
f 1265 1263 1158
f 1158 1264 1266
f 1265 1158 1266
f 1221 1254 1211
f 1204 1206 1267
f 1268 1206 1205
f 1268 1267 1206
f 1218 1232 1247
f 1269 1237 1226
f 1255 1269 1226
f 1270 1233 1204
f 1204 1267 1271
f 1270 1204 1271
f 1272 1251 1229
f 1229 1252 1273
f 1272 1229 1273
f 1258 1243 1242
f 1258 1260 1243
f 1274 1227 1240
f 1274 1257 1227
f 1216 1268 1205
f 1244 1247 1214
f 1239 1218 1247
f 1262 1200 1263
f 1236 1237 1275
f 1269 1275 1237
f 1221 1249 1276
f 1221 1277 1254
f 1221 1276 1277
f 1216 1235 1278
f 1216 1279 1268
f 1216 1278 1279
f 1274 1240 1250
f 1272 1259 1251
f 1280 1238 1239
f 1280 1264 1238
f 1239 1247 1281
f 1244 1281 1247
f 1270 1246 1233
f 1222 1223 1282
f 1245 1282 1223
f 1283 1235 1234
f 1283 1278 1235
f 1236 1284 1252
f 1236 1275 1285
f 1236 1285 1284
f 1222 1286 1194
f 1244 1194 1286
f 1250 1261 1287
f 1274 1250 1288
f 1250 1287 1288
f 1249 1248 1289
f 1249 1289 1276
f 1290 1234 1241
f 1290 1283 1234
f 1258 1259 1291
f 1272 1291 1259
f 1292 1261 1260
f 1292 1287 1261
f 1284 1273 1252
f 1280 1239 1281
f 1293 1248 1257
f 1293 1289 1248
f 1258 1292 1260
f 1245 1246 1294
f 1270 1294 1246
f 1258 1291 1295
f 1258 1295 1292
f 1241 1262 1296
f 1241 1296 1297
f 1290 1241 1297
f 1265 1262 1263
f 1298 1286 1222
f 1222 1282 1299
f 1298 1222 1299
f 1300 1256 1253
f 1255 1256 1301
f 1300 1301 1256
f 1254 1300 1253
f 1272 1273 1302
f 1284 1302 1273
f 1265 1296 1262
f 1303 1269 1255
f 1255 1301 1304
f 1303 1255 1304
f 1244 1305 1281
f 1280 1281 1305
f 1293 1257 1274
f 1303 1275 1269
f 1254 1277 1306
f 1254 1307 1300
f 1254 1306 1307
f 1244 1286 1308
f 1244 1308 1309
f 1244 1310 1305
f 1244 1309 1310
f 1311 1271 1267
f 1268 1311 1267
f 1270 1271 1312
f 1311 1312 1271
f 1268 1279 1313
f 1268 1314 1311
f 1268 1313 1314
f 1315 1291 1272
f 1272 1302 1316
f 1315 1272 1316
f 1245 1317 1282
f 1245 1294 1318
f 1245 1318 1317
f 1319 1285 1275
f 1303 1319 1275
f 1274 1288 1320
f 1293 1274 1321
f 1274 1320 1321
f 1322 1266 1264
f 1280 1323 1264
f 1322 1264 1323
f 1322 1265 1266
f 1324 1279 1278
f 1324 1313 1279
f 1277 1276 1325
f 1277 1325 1306
f 1298 1308 1286
f 1284 1285 1326
f 1319 1326 1285
f 1327 1288 1287
f 1327 1320 1288
f 1328 1297 1296
f 1290 1297 1329
f 1329 1297 1328
f 1315 1295 1291
f 1330 1278 1283
f 1330 1324 1278
f 1331 1294 1270
f 1270 1312 1332
f 1331 1270 1332
f 1333 1296 1265
f 1328 1296 1333
f 1292 1327 1287
f 1330 1283 1290
f 1334 1276 1289
f 1334 1325 1276
f 1335 1280 1305
f 1280 1336 1323
f 1335 1336 1280
f 1284 1337 1302
f 1284 1326 1338
f 1284 1338 1337
f 1317 1299 1282
f 1292 1295 1339
f 1292 1340 1327
f 1292 1339 1340
f 1333 1265 1341
f 1322 1341 1265
f 1315 1339 1295
f 1290 1329 1342
f 1330 1290 1343
f 1290 1342 1343
f 1300 1344 1301
f 1300 1307 1345
f 1300 1346 1344
f 1300 1345 1346
f 1344 1304 1301
f 1334 1289 1293
f 1337 1316 1302
f 1331 1318 1294
f 1298 1347 1308
f 1347 1309 1308
f 1303 1304 1348
f 1344 1348 1304
f 1349 1305 1310
f 1349 1335 1305
f 1311 1314 1350
f 1311 1351 1312
f 1311 1350 1352
f 1311 1352 1351
f 1353 1314 1313
f 1353 1350 1314
f 1298 1299 1354
f 1317 1354 1299
f 1329 1328 1355
f 1356 1329 1355
f 1356 1342 1329
f 1357 1319 1303
f 1303 1348 1358
f 1357 1303 1358
f 1351 1332 1312
f 1328 1333 1359
f 1360 1355 1328
f 1328 1359 1361
f 1360 1328 1361
f 1307 1306 1362
f 1307 1362 1345
f 1322 1323 1363
f 1363 1323 1336
f 1333 1341 1364
f 1333 1364 1359
f 1365 1313 1324
f 1365 1353 1313
f 1293 1321 1366
f 1334 1293 1367
f 1293 1366 1367
f 1357 1326 1319
f 1315 1316 1368
f 1337 1368 1316
f 1364 1341 1322
f 1322 1363 1369
f 1364 1322 1369
f 1370 1310 1309
f 1370 1349 1310
f 1365 1324 1330
f 1317 1318 1371
f 1331 1371 1318
f 1372 1338 1326
f 1357 1372 1326
f 1373 1321 1320
f 1373 1366 1321
f 1374 1347 1298
f 1298 1354 1375
f 1374 1298 1375
f 1351 1376 1332
f 1331 1332 1376
f 1330 1343 1377
f 1365 1330 1378
f 1330 1377 1378
f 1379 1306 1325
f 1379 1362 1306
f 1363 1336 1380
f 1380 1336 1335
f 1381 1339 1315
f 1315 1368 1382
f 1381 1315 1382
f 1360 1356 1355
f 1344 1383 1348
f 1344 1346 1384
f 1344 1385 1383
f 1344 1384 1385
f 1327 1373 1320
f 1386 1352 1350
f 1387 1350 1353
f 1387 1386 1350
f 1388 1343 1342
f 1388 1377 1343
f 1337 1338 1389
f 1372 1389 1338
f 1351 1352 1390
f 1386 1390 1352
f 1383 1358 1348
f 1346 1345 1391
f 1346 1391 1384
f 1387 1353 1365
f 1347 1392 1309
f 1392 1370 1309
f 1363 1393 1369
f 1363 1380 1393
f 1317 1394 1354
f 1317 1371 1395
f 1317 1395 1394
f 1357 1358 1396
f 1383 1396 1358
f 1327 1340 1397
f 1327 1398 1373
f 1327 1397 1398
f 1374 1392 1347
f 1364 1369 1393
f 1351 1390 1399
f 1351 1400 1376
f 1351 1399 1400
f 1379 1325 1334
f 1365 1378 1401
f 1387 1365 1402
f 1365 1401 1402
f 1381 1340 1339
f 1356 1388 1342
f 1403 1372 1357
f 1357 1396 1404
f 1403 1357 1404
f 1381 1397 1340
f 1380 1335 1393
f 1349 1393 1335
f 1405 1361 1359
f 1405 1360 1361
f 1337 1406 1368
f 1337 1389 1407
f 1337 1407 1406
f 1331 1376 1408
f 1409 1371 1331
f 1409 1331 1408
f 1410 1345 1362
f 1410 1391 1345
f 1411 1378 1377
f 1411 1401 1378
f 1364 1412 1359
f 1405 1359 1412
f 1403 1389 1372
f 1364 1393 1413
f 1364 1413 1412
f 1383 1385 1390
f 1385 1399 1390
f 1385 1384 1399
f 1383 1386 1387
f 1383 1390 1386
f 1383 1387 1396
f 1394 1375 1354
f 1387 1404 1396
f 1387 1402 1404
f 1392 1414 1370
f 1392 1415 1414
f 1374 1416 1392
f 1392 1416 1415
f 1388 1411 1377
f 1334 1367 1417
f 1379 1334 1418
f 1334 1417 1418
f 1400 1408 1376
f 1403 1404 1402
f 1403 1402 1401
f 1400 1399 1384
f 1400 1384 1391
f 1360 1419 1356
f 1405 1420 1360
f 1360 1420 1421
f 1360 1421 1419
f 1406 1382 1368
f 1349 1413 1393
f 1370 1413 1349
f 1403 1422 1389
f 1422 1407 1389
f 1411 1403 1401
f 1411 1422 1403
f 1356 1423 1388
f 1356 1419 1424
f 1356 1424 1423
f 1410 1362 1379
f 1370 1414 1405
f 1370 1405 1412
f 1370 1412 1413
f 1388 1425 1411
f 1388 1426 1425
f 1388 1423 1426
f 1374 1375 1427
f 1394 1427 1375
f 1405 1414 1415
f 1405 1415 1420
f 1409 1395 1371
f 1411 1428 1422
f 1411 1425 1428
f 1400 1391 1410
f 1422 1428 1407
f 1429 1367 1366
f 1429 1417 1367
f 1400 1430 1408
f 1400 1410 1430
f 1406 1407 1428
f 1420 1415 1431
f 1420 1431 1421
f 1432 1416 1374
f 1374 1427 1433
f 1432 1374 1433
f 1406 1434 1382
f 1381 1382 1434
f 1409 1408 1430
f 1432 1415 1416
f 1425 1435 1428
f 1425 1426 1435
f 1410 1379 1436
f 1379 1418 1437
f 1379 1437 1436
f 1432 1431 1415
f 1406 1428 1435
f 1419 1421 1438
f 1419 1438 1424
f 1373 1429 1366
f 1409 1439 1395
f 1394 1395 1439
f 1423 1440 1426
f 1423 1424 1440
f 1410 1441 1430
f 1410 1436 1441
f 1406 1435 1442
f 1406 1442 1434
f 1409 1430 1441
f 1443 1397 1381
f 1381 1434 1444
f 1443 1381 1444
f 1373 1398 1445
f 1373 1446 1429
f 1373 1445 1446
f 1447 1418 1417
f 1447 1437 1418
f 1448 1421 1431
f 1448 1438 1421
f 1449 1409 1441
f 1449 1439 1409
f 1442 1435 1426
f 1442 1426 1440
f 1443 1398 1397
f 1443 1445 1398
f 1394 1450 1427
f 1394 1439 1451
f 1394 1451 1450
f 1449 1441 1436
f 1449 1436 1437
f 1452 1440 1424
f 1452 1424 1438
f 1448 1431 1432
f 1442 1444 1434
f 1450 1433 1427
f 1432 1433 1453
f 1448 1432 1454
f 1432 1453 1454
f 1429 1447 1417
f 1450 1453 1433
f 1442 1440 1452
f 1442 1455 1444
f 1442 1452 1455
f 1449 1451 1439
f 1447 1449 1437
f 1452 1438 1448
f 1443 1444 1455
f 1429 1456 1447
f 1429 1446 1457
f 1429 1457 1456
f 1452 1448 1458
f 1448 1454 1459
f 1448 1459 1458
f 1449 1460 1451
f 1447 1460 1449
f 1450 1451 1460
f 1452 1461 1455
f 1452 1458 1461
f 1447 1462 1460
f 1447 1456 1462
f 1443 1455 1461
f 1463 1445 1443
f 1463 1443 1461
f 1464 1454 1453
f 1464 1459 1454
f 1463 1446 1445
f 1463 1457 1446
f 1450 1464 1453
f 1450 1460 1462
f 1450 1462 1464
f 1463 1461 1458
f 1463 1458 1459
f 1464 1456 1457
f 1464 1462 1456
f 1464 1457 1463
f 1464 1463 1459
