# 
# Wavefront OBJ file
# Created with Kaydara FBX
# 
mtllib c:\users\tjvan\onedrive\documenten\fontys\minor\nx\.mtlmodels\tibialis_anterior_muscle.r.obj

g Tibialis_anterior_muscle_r
v -0.116141 0.311566 -0.014607
v -0.116983 0.321786 -0.018878
v -0.116959 0.311770 -0.018982
v -0.115360 0.321868 -0.022130
v -0.115808 0.331673 -0.014532
v -0.116812 0.331721 -0.018995
v -0.116077 0.321690 -0.014470
v -0.116605 0.301722 -0.019641
v -0.115593 0.301991 -0.023242
v -0.115680 0.311965 -0.022488
v -0.116502 0.341638 -0.019042
v -0.114432 0.341632 -0.022127
v -0.114940 0.331764 -0.022168
v -0.115699 0.301474 -0.015238
v -0.116067 0.291601 -0.020553
v -0.115054 0.291353 -0.016110
v -0.114849 0.351246 -0.014412
v -0.115863 0.351397 -0.018728
v -0.115455 0.341556 -0.014569
v -0.113506 0.311438 -0.008825
v -0.114930 0.291918 -0.024181
v -0.115088 0.281557 -0.021559
v -0.113810 0.281893 -0.025100
v -0.112903 0.331640 -0.008814
v -0.113369 0.321625 -0.008694
v -0.115160 0.361121 -0.018425
v -0.112912 0.361017 -0.021330
v -0.113745 0.351405 -0.021872
v -0.112686 0.291041 -0.010392
v -0.113195 0.301214 -0.009423
v -0.111639 0.302147 -0.025258
v -0.111067 0.321890 -0.023871
v -0.111533 0.312058 -0.024489
v -0.111796 0.351081 -0.009280
v -0.112327 0.341473 -0.008919
v -0.114072 0.360985 -0.014321
v -0.114112 0.370933 -0.018226
v -0.112872 0.370818 -0.014318
v -0.114066 0.281306 -0.016988
v -0.113016 0.271320 -0.017826
v -0.113880 0.271573 -0.022441
v -0.110011 0.282301 -0.027074
v -0.111119 0.292239 -0.026142
v -0.110097 0.341573 -0.023729
v -0.110648 0.331744 -0.023795
v -0.111978 0.370701 -0.021008
v -0.112378 0.380510 -0.018002
v -0.110611 0.380219 -0.020970
v -0.110455 0.271074 -0.012558
v -0.111602 0.281012 -0.011414
v -0.110098 0.370601 -0.010375
v -0.111079 0.360783 -0.009758
v -0.112440 0.271937 -0.025978
v -0.112990 0.261449 -0.023248
v -0.111229 0.261985 -0.026869
v -0.108626 0.360843 -0.022731
v -0.109410 0.351338 -0.023430
v -0.108582 0.311337 -0.002528
v -0.107836 0.331661 -0.002548
v -0.108312 0.321603 -0.002338
v -0.107994 0.290709 -0.004347
v -0.108432 0.300984 -0.003268
v -0.111975 0.261203 -0.018591
v -0.110827 0.251152 -0.019548
v -0.111550 0.251408 -0.023964
v -0.111061 0.380250 -0.014410
v -0.107065 0.262666 -0.028320
v -0.108516 0.272464 -0.027705
v -0.109118 0.388927 -0.014787
v -0.110226 0.389260 -0.017698
v -0.107022 0.351154 -0.003784
v -0.107310 0.341470 -0.002910
v -0.108212 0.251116 -0.014678
v -0.109384 0.261067 -0.013516
v -0.107020 0.379750 -0.021985
v -0.107893 0.370356 -0.022259
v -0.105842 0.302229 -0.026183
v -0.106136 0.270754 -0.007214
v -0.107114 0.280673 -0.005727
v -0.109742 0.251972 -0.027406
v -0.109801 0.241591 -0.024757
v -0.108157 0.242208 -0.028207
v -0.105277 0.321753 -0.025866
v -0.105619 0.311985 -0.026196
v -0.104363 0.282720 -0.026851
v -0.105415 0.292487 -0.026330
v -0.106658 0.370678 -0.006678
v -0.106880 0.360906 -0.005094
v -0.108463 0.380053 -0.011162
v -0.106925 0.388773 -0.012338
v -0.109039 0.241401 -0.020516
v -0.104313 0.341526 -0.025043
v -0.104932 0.331580 -0.025686
v -0.108787 0.389174 -0.020343
v -0.108708 0.397460 -0.016926
v -0.107948 0.397916 -0.018927
v -0.107051 0.231854 -0.021310
v -0.107759 0.232076 -0.025399
v -0.104422 0.243073 -0.029754
v -0.105846 0.252747 -0.028950
v -0.103355 0.360754 -0.023380
v -0.103672 0.351296 -0.024154
v -0.104225 0.251050 -0.009856
v -0.105269 0.260839 -0.008424
v -0.107749 0.397027 -0.014858
v -0.106514 0.241413 -0.015992
v -0.104727 0.231830 -0.017149
v -0.105743 0.398196 -0.019820
v -0.105930 0.388859 -0.021383
v -0.107399 0.402981 -0.014988
v -0.106634 0.402261 -0.013693
v -0.102225 0.311125 0.002195
v -0.101776 0.263292 -0.028009
v -0.103103 0.273014 -0.027279
v -0.104289 0.388901 -0.010156
v -0.105566 0.380151 -0.008322
v -0.101911 0.290596 0.000255
v -0.102351 0.300839 0.001465
v -0.101497 0.331498 0.002334
v -0.101976 0.321386 0.002347
v -0.106252 0.232688 -0.028793
v -0.107428 0.403692 -0.016245
v -0.102775 0.379563 -0.022120
v -0.103168 0.370157 -0.022753
v -0.105980 0.222541 -0.026042
v -0.104829 0.223086 -0.029528
v -0.106119 0.396740 -0.013077
v -0.106103 0.406638 -0.013780
v -0.105688 0.403756 -0.016576
v -0.106162 0.405829 -0.013362
v -0.101611 0.351733 0.000571
v -0.101311 0.341546 0.001979
v -0.100486 0.270546 -0.002950
v -0.101178 0.280516 -0.001259
v -0.105250 0.222286 -0.022089
v -0.102694 0.371211 -0.003627
v -0.102301 0.361579 -0.001447
v -0.105638 0.404977 -0.012611
v -0.105491 0.401704 -0.012660
v -0.104675 0.403930 -0.011829
v -0.102910 0.241358 -0.011683
v -0.101622 0.223773 -0.031288
v -0.102882 0.233506 -0.030551
v -0.105343 0.406844 -0.012969
v -0.104339 0.400559 -0.011775
v -0.104038 0.396793 -0.011472
v -0.105321 0.406073 -0.013939
v -0.103409 0.212740 -0.022837
v -0.104225 0.212926 -0.026611
v -0.103510 0.398453 -0.019589
v -0.102430 0.388860 -0.021533
v -0.099640 0.243807 -0.029891
v -0.100755 0.253536 -0.028990
v -0.099342 0.302157 -0.024245
v -0.104339 0.403449 -0.015901
v -0.104334 0.405485 -0.013640
v -0.105041 0.406413 -0.012023
v -0.103978 0.405154 -0.011181
v -0.098912 0.321428 -0.024204
v -0.099145 0.311739 -0.024218
v -0.101440 0.389266 -0.008132
v -0.102268 0.380504 -0.005816
v -0.098427 0.283027 -0.024802
v -0.099138 0.292617 -0.024450
v -0.104746 0.407563 -0.011867
v -0.104411 0.406530 -0.012565
v -0.099832 0.260623 -0.004341
v -0.103164 0.222214 -0.018150
v -0.098440 0.341492 -0.024115
v -0.098614 0.331379 -0.024387
v -0.103267 0.213375 -0.029999
v -0.103059 0.405680 -0.011689
v -0.103411 0.406009 -0.010772
v -0.100200 0.222159 -0.014744
v -0.101481 0.231732 -0.013354
v -0.103496 0.402102 -0.011047
v -0.102515 0.403097 -0.010245
v -0.103112 0.404650 -0.012937
v -0.101928 0.397402 -0.009980
v -0.103111 0.403019 -0.014740
v -0.101930 0.398622 -0.018109
v -0.102624 0.203544 -0.027169
v -0.101705 0.203926 -0.030470
v -0.098546 0.241110 -0.008197
v -0.099281 0.250794 -0.006050
v -0.101617 0.404075 -0.009664
v -0.098439 0.360808 -0.022677
v -0.098340 0.351298 -0.023320
v -0.101532 0.212713 -0.019223
v -0.101740 0.203405 -0.023604
v -0.100006 0.203351 -0.020275
v -0.101203 0.404085 -0.010483
v -0.099026 0.204450 -0.032560
v -0.100346 0.214030 -0.031927
v -0.098786 0.379664 -0.021288
v -0.098682 0.370241 -0.021970
v -0.096324 0.263771 -0.026551
v -0.097407 0.273418 -0.025460
v -0.101484 0.403290 -0.012010
v -0.101719 0.402248 -0.013517
v -0.097742 0.224328 -0.031395
v -0.098600 0.234130 -0.030692
v -0.098562 0.371739 -0.001548
v -0.101508 0.194347 -0.027661
v -0.100201 0.398417 -0.008791
v -0.099514 0.389290 -0.020500
v -0.095739 0.311035 0.003637
v -0.095746 0.290713 0.001900
v -0.095938 0.300884 0.002892
v -0.096523 0.352317 0.002855
v -0.097775 0.362225 0.000699
v -0.098515 0.390009 -0.006471
v -0.098661 0.381040 -0.003841
v -0.095203 0.331441 0.004083
v -0.095461 0.321271 0.003976
v -0.100676 0.398495 -0.016114
v -0.097594 0.389639 -0.018044
v -0.100672 0.194234 -0.024237
v -0.098919 0.398829 -0.012377
v -0.098778 0.396598 -0.014512
v -0.100731 0.194622 -0.031006
v -0.098522 0.399720 -0.007941
v -0.098954 0.212714 -0.016152
v -0.099699 0.185092 -0.030952
v -0.099453 0.185035 -0.024653
v -0.100358 0.184997 -0.027808
v -0.097601 0.231526 -0.010325
v -0.097740 0.400139 -0.008715
v -0.098321 0.399564 -0.010590
v -0.095525 0.341779 0.003978
v -0.095321 0.280662 0.000523
v -0.094748 0.244068 -0.028828
v -0.095434 0.253929 -0.027865
v -0.097165 0.185383 -0.032874
v -0.098090 0.195007 -0.033104
v -0.099013 0.194182 -0.021117
v -0.096255 0.389734 -0.015193
v -0.094323 0.260501 -0.002603
v -0.094826 0.270546 -0.001119
v -0.098309 0.175570 -0.030396
v -0.098559 0.175623 -0.027522
v -0.095554 0.204873 -0.033162
v -0.096703 0.214568 -0.032269
v -0.095824 0.212698 -0.013759
v -0.096663 0.222052 -0.012142
v -0.095482 0.390811 -0.005442
v -0.096812 0.194174 -0.018431
v -0.097747 0.203338 -0.017432
v -0.096095 0.379735 -0.018851
v -0.097914 0.185119 -0.021724
v -0.097745 0.175831 -0.024646
v -0.096423 0.176033 -0.022002
v -0.094230 0.302249 -0.020093
v -0.094112 0.250631 -0.004302
v -0.093463 0.283147 -0.021210
v -0.093971 0.292732 -0.020572
v -0.094213 0.321450 -0.020027
v -0.094178 0.311856 -0.019957
v -0.095035 0.390108 -0.012019
v -0.095010 0.360760 -0.020209
v -0.095577 0.370263 -0.019619
v -0.094627 0.372058 -0.000755
v -0.095026 0.381396 -0.002899
v -0.094021 0.341453 -0.020788
v -0.093905 0.331375 -0.020598
v -0.093951 0.224568 -0.030494
v -0.094232 0.234405 -0.029704
v -0.096382 0.166394 -0.026691
v -0.093269 0.231391 -0.008451
v -0.093776 0.240918 -0.006261
v -0.093301 0.391079 -0.006556
v -0.094517 0.351244 -0.020553
v -0.094000 0.390590 -0.009165
v -0.096197 0.175764 -0.032371
v -0.096395 0.166133 -0.029322
v -0.094802 0.166173 -0.031125
v -0.094098 0.185681 -0.033876
v -0.094745 0.195376 -0.033960
v -0.095801 0.185210 -0.019217
v -0.094637 0.176212 -0.019631
v -0.092097 0.352645 0.003104
v -0.093631 0.362655 0.001340
v -0.095715 0.166674 -0.024171
v -0.094064 0.194210 -0.016252
v -0.094928 0.203358 -0.015115
v -0.091782 0.263797 -0.023847
v -0.092541 0.273533 -0.022301
v -0.092212 0.205113 -0.032064
v -0.093119 0.214916 -0.031563
v -0.092309 0.212713 -0.012179
v -0.092792 0.221986 -0.010508
v -0.094654 0.166906 -0.021859
v -0.094076 0.157021 -0.027675
v -0.092910 0.156942 -0.029503
v -0.093426 0.157528 -0.023482
v -0.094017 0.157276 -0.025496
v -0.094876 0.379684 -0.015275
v -0.093910 0.380044 -0.011513
v -0.092388 0.166432 -0.031895
v -0.093373 0.175981 -0.033099
v -0.094511 0.369980 -0.015359
v -0.090724 0.301058 0.001971
v -0.090597 0.311100 0.002728
v -0.092322 0.176351 -0.017794
v -0.093232 0.185265 -0.017137
v -0.090392 0.280966 0.000158
v -0.090666 0.291009 0.001205
v -0.092535 0.157783 -0.021530
v -0.094063 0.360445 -0.015369
v -0.090282 0.331561 0.003340
v -0.090828 0.341970 0.003525
v -0.090216 0.321354 0.003179
v -0.090895 0.243920 -0.026442
v -0.091284 0.253849 -0.025364
v -0.091581 0.371773 -0.002934
v -0.092231 0.381159 -0.004671
v -0.092754 0.380583 -0.007982
v -0.090954 0.194280 -0.014666
v -0.091664 0.203431 -0.013486
v -0.093698 0.370259 -0.010766
v -0.089890 0.270719 -0.001381
v -0.091179 0.185905 -0.033035
v -0.091446 0.195498 -0.033071
v -0.093080 0.167157 -0.019848
v -0.091217 0.158070 -0.019862
v -0.093558 0.350963 -0.015107
v -0.093120 0.341369 -0.014558
v -0.089556 0.250707 -0.004478
v -0.089578 0.260551 -0.002828
v -0.091032 0.224405 -0.028172
v -0.090757 0.234132 -0.027511
v -0.091882 0.302327 -0.014189
v -0.092517 0.321869 -0.013740
v -0.092209 0.312041 -0.013688
v -0.091974 0.147962 -0.025977
v -0.093371 0.360690 -0.009736
v -0.092987 0.351178 -0.008560
v -0.091862 0.148168 -0.024235
v -0.090789 0.282918 -0.016196
v -0.091405 0.292641 -0.015041
v -0.092799 0.331664 -0.014142
v -0.089200 0.231483 -0.008232
v -0.089482 0.240992 -0.006231
v -0.091655 0.361489 -0.004989
v -0.092300 0.370975 -0.006617
v -0.089475 0.352480 0.000288
v -0.090801 0.362365 -0.001187
v -0.092464 0.341528 -0.007633
v -0.091316 0.148392 -0.022510
v -0.090473 0.166864 -0.030527
v -0.090848 0.176220 -0.032137
v -0.091003 0.351846 -0.003403
v -0.089659 0.176424 -0.016586
v -0.090310 0.185285 -0.015694
v -0.089901 0.205117 -0.029591
v -0.090367 0.214906 -0.028988
v -0.091072 0.167376 -0.018302
v -0.089504 0.158376 -0.018599
v -0.090899 0.157209 -0.030131
v -0.091277 0.147816 -0.027715
v -0.089640 0.148021 -0.028010
v -0.088701 0.212835 -0.011879
v -0.089000 0.222070 -0.010223
v -0.091385 0.321872 -0.007211
v -0.091885 0.331730 -0.007329
v -0.090394 0.148671 -0.020970
v -0.089590 0.263112 -0.019316
v -0.089968 0.273028 -0.017660
v -0.089082 0.331780 -0.002819
v -0.089917 0.341888 -0.002770
v -0.090676 0.302029 -0.008126
v -0.091036 0.311909 -0.007430
v -0.089397 0.139033 -0.022894
v -0.089266 0.138716 -0.025694
v -0.089493 0.138854 -0.024254
v -0.088651 0.321695 -0.002888
v -0.088927 0.139287 -0.021507
v -0.087719 0.194448 -0.014283
v -0.088218 0.203598 -0.013117
v -0.090069 0.185965 -0.030086
v -0.089564 0.195479 -0.030218
v -0.089955 0.282344 -0.010703
v -0.090389 0.292203 -0.009173
v -0.088051 0.139600 -0.020348
v -0.088120 0.138950 -0.025907
v -0.089401 0.243479 -0.022377
v -0.089483 0.253329 -0.020951
v -0.089176 0.148977 -0.019671
v -0.088676 0.167570 -0.017264
v -0.087415 0.158620 -0.017809
v -0.089993 0.224085 -0.024397
v -0.088213 0.301696 -0.003992
v -0.088433 0.311635 -0.003191
v -0.088266 0.342105 0.000727
v -0.089895 0.157584 -0.028538
v -0.088902 0.148348 -0.026594
v -0.089720 0.167165 -0.028155
v -0.090085 0.176500 -0.029394
v -0.087641 0.331723 0.000611
v -0.089564 0.233698 -0.023532
v -0.087437 0.301329 -0.000447
v -0.087435 0.291428 -0.001227
v -0.087402 0.321513 0.000512
v -0.087402 0.311324 0.000262
v -0.087014 0.139925 -0.019349
v -0.086408 0.271133 -0.003613
v -0.087007 0.281437 -0.002126
v -0.087592 0.281905 -0.006108
v -0.088005 0.291847 -0.004914
v -0.089464 0.214565 -0.025367
v -0.088772 0.204916 -0.026280
v -0.086728 0.176592 -0.016473
v -0.087255 0.185429 -0.015459
v -0.089527 0.185966 -0.026945
v -0.088876 0.167391 -0.025773
v -0.089375 0.176660 -0.026600
v -0.089082 0.223676 -0.020439
v -0.089415 0.272273 -0.012425
v -0.089009 0.262260 -0.013946
v -0.089175 0.157875 -0.026582
v -0.087980 0.148687 -0.025069
v -0.086742 0.251142 -0.007066
v -0.086396 0.260893 -0.005326
v -0.088863 0.195380 -0.026874
v -0.088645 0.242870 -0.017525
v -0.088791 0.233221 -0.019165
v -0.088630 0.185958 -0.023856
v -0.087681 0.149304 -0.018608
v -0.086975 0.129746 -0.022731
v -0.086827 0.129641 -0.023843
v -0.086837 0.232034 -0.011045
v -0.086908 0.241525 -0.009019
v -0.088794 0.252532 -0.015677
v -0.088629 0.214170 -0.021698
v -0.087988 0.204649 -0.022846
v -0.087486 0.261514 -0.009142
v -0.087358 0.271680 -0.007684
v -0.086840 0.129936 -0.021512
v -0.087777 0.167637 -0.023489
v -0.088279 0.176813 -0.023898
v -0.085845 0.140219 -0.018534
v -0.088239 0.158183 -0.024636
v -0.086954 0.149033 -0.023583
v -0.087685 0.223189 -0.016633
v -0.086550 0.213322 -0.014616
v -0.086749 0.222622 -0.012970
v -0.086351 0.130208 -0.020397
v -0.087231 0.139273 -0.024708
v -0.088238 0.195223 -0.023552
v -0.087498 0.242185 -0.012944
v -0.087579 0.232631 -0.014916
v -0.087591 0.251788 -0.010897
v -0.085251 0.158817 -0.017949
v -0.086035 0.167782 -0.017184
v -0.087310 0.185915 -0.020853
v -0.087099 0.204358 -0.019386
v -0.087412 0.213788 -0.018148
v -0.086335 0.167882 -0.021362
v -0.086914 0.176911 -0.021325
v -0.086993 0.158524 -0.022868
v -0.085771 0.149387 -0.022214
v -0.087264 0.195034 -0.020239
v -0.086048 0.194804 -0.017023
v -0.086279 0.204024 -0.015930
v -0.085072 0.130244 -0.022882
v -0.085964 0.129903 -0.023736
v -0.085583 0.130525 -0.019473
v -0.086327 0.139597 -0.023541
v -0.086111 0.149561 -0.017949
v -0.084466 0.140519 -0.018150
v -0.085935 0.185757 -0.017970
v -0.085500 0.176851 -0.018750
v -0.084088 0.130601 -0.022152
v -0.084667 0.130866 -0.018679
v -0.085516 0.158820 -0.021249
v -0.084445 0.149718 -0.021049
v -0.084222 0.120706 -0.021123
v -0.085313 0.139928 -0.022488
v -0.084915 0.167964 -0.019202
v -0.083052 0.120953 -0.021958
v -0.083928 0.120634 -0.022095
v -0.083527 0.121253 -0.019075
v -0.083999 0.120953 -0.020046
v -0.082835 0.121592 -0.018281
v -0.083064 0.130956 -0.021509
v -0.084243 0.149801 -0.018274
v -0.083019 0.140803 -0.018526
v -0.084325 0.158933 -0.019558
v -0.082081 0.121353 -0.021531
v -0.083749 0.131193 -0.018021
v -0.084177 0.140265 -0.021562
v -0.081947 0.121964 -0.017695
v -0.083379 0.149914 -0.019749
v -0.082000 0.131310 -0.020953
v -0.080957 0.122327 -0.017386
v -0.082484 0.131542 -0.017981
v -0.082986 0.140594 -0.020726
v -0.082237 0.140850 -0.019695
v -0.080958 0.112140 -0.018220
v -0.080726 0.111789 -0.020237
v -0.081084 0.111869 -0.019277
v -0.081034 0.131641 -0.020303
v -0.081122 0.121752 -0.021060
v -0.080526 0.112486 -0.017288
v -0.079730 0.112135 -0.020299
v -0.079938 0.122634 -0.017469
v -0.080127 0.122149 -0.020678
v -0.081473 0.131745 -0.018535
v -0.080828 0.131817 -0.019333
v -0.079780 0.112894 -0.016604
v -0.079088 0.122810 -0.018062
v -0.077717 0.112989 -0.019867
v -0.078717 0.112562 -0.020073
v -0.079130 0.122539 -0.020326
v -0.078836 0.113317 -0.016233
v -0.078392 0.122949 -0.018822
v -0.076724 0.113412 -0.019663
v -0.077675 0.103380 -0.016872
v -0.077150 0.103301 -0.017787
v -0.078284 0.122894 -0.019758
v -0.077827 0.103636 -0.015808
v -0.077819 0.113707 -0.016150
v -0.076700 0.104500 -0.014286
v -0.077532 0.104034 -0.014829
v -0.075757 0.113833 -0.019421
v -0.076813 0.114031 -0.016316
v -0.075700 0.104943 -0.014053
v -0.075192 0.103803 -0.018580
v -0.076252 0.103466 -0.018370
v -0.075017 0.114234 -0.018772
v -0.075882 0.114259 -0.016845
v -0.074664 0.105288 -0.014204
v -0.074135 0.104200 -0.018565
v -0.075217 0.114335 -0.017756
v -0.074331 0.095163 -0.013745
v -0.074532 0.095869 -0.011804
v -0.074703 0.095423 -0.012760
v -0.073625 0.105604 -0.014433
v -0.073648 0.096288 -0.011553
v -0.072800 0.095175 -0.015124
v -0.073651 0.095104 -0.014513
v -0.072645 0.105801 -0.014994
v -0.073097 0.104629 -0.018427
v -0.071842 0.095351 -0.015573
v -0.071991 0.105767 -0.015927
v -0.072168 0.105110 -0.017961
v -0.072667 0.096619 -0.011608
v -0.071767 0.105538 -0.016993
v -0.071515 0.088046 -0.008112
v -0.071609 0.087559 -0.008960
v -0.071688 0.096891 -0.011819
v -0.070608 0.087028 -0.010584
v -0.071269 0.087192 -0.009857
v -0.069847 0.096014 -0.015751
v -0.070838 0.095619 -0.015829
v -0.069773 0.087014 -0.011153
v -0.069778 0.088725 -0.007971
v -0.070703 0.088463 -0.007860
v -0.070731 0.097111 -0.012134
v -0.069066 0.096518 -0.015184
v -0.068844 0.088927 -0.008202
v -0.069810 0.097258 -0.012595
v -0.068777 0.096976 -0.014257
v -0.069060 0.097252 -0.013282
v -0.067865 0.087304 -0.011866
v -0.068853 0.087089 -0.011621
v -0.067948 0.089049 -0.008556
v -0.068849 0.080058 -0.004312
v -0.068669 0.079523 -0.005178
v -0.068031 0.081213 -0.002990
v -0.068656 0.080660 -0.003514
v -0.068037 0.079228 -0.005905
v -0.066899 0.087673 -0.011806
v -0.067085 0.089082 -0.009047
v -0.067167 0.081556 -0.002884
v -0.066312 0.089026 -0.009664
v -0.066141 0.079378 -0.006594
v -0.067134 0.079244 -0.006315
v -0.066203 0.088172 -0.011327
v -0.065949 0.088696 -0.010516
v -0.066313 0.073038 0.001137
v -0.066133 0.073706 0.001905
v -0.065130 0.079501 -0.006890
v -0.066217 0.081713 -0.003099
v -0.066305 0.072366 0.000307
v -0.065827 0.074358 0.002615
v -0.064979 0.071653 -0.000999
v -0.065970 0.071772 -0.000532
v -0.065295 0.081665 -0.003606
v -0.064154 0.074702 0.002492
v -0.065050 0.074780 0.002892
v -0.063885 0.071804 -0.001177
v -0.064502 0.081479 -0.004249
v -0.063506 0.080183 -0.006631
v -0.064193 0.079667 -0.007090
v -0.065535 0.043487 0.026970
v -0.066854 0.039822 0.029056
v -0.066334 0.040939 0.029676
v -0.064173 0.039894 0.025538
v -0.065750 0.042342 0.025744
v -0.064780 0.041742 0.023904
v -0.064876 0.044642 0.028209
v -0.065273 0.042472 0.030269
v -0.061403 0.043003 0.027068
v -0.063177 0.040769 0.026292
v -0.064461 0.065638 0.006427
v -0.064093 0.064916 0.005547
v -0.064596 0.066413 0.007318
v -0.063821 0.081201 -0.004979
v -0.063270 0.074470 0.001906
v -0.063400 0.080776 -0.005799
v -0.064593 0.067144 0.008131
v -0.063219 0.064454 0.004848
v -0.063560 0.068447 0.009352
v -0.064413 0.067951 0.008970
v -0.062608 0.045651 0.022297
v -0.062862 0.046918 0.023370
v -0.062440 0.074171 0.001268
v -0.064004 0.045755 0.029469
v -0.063911 0.042958 0.031943
v -0.061881 0.071957 -0.001661
v -0.062822 0.071864 -0.001453
v -0.062643 0.068039 0.008719
v -0.063114 0.048244 0.024498
v -0.062125 0.044186 0.021081
v -0.063778 0.060978 0.014826
v -0.063517 0.060039 0.013885
v -0.063640 0.061996 0.015681
v -0.061735 0.073760 0.000531
v -0.062520 0.058397 0.012065
v -0.063078 0.059181 0.012941
v -0.062747 0.062483 0.016043
v -0.061285 0.072534 -0.001137
v -0.061227 0.043037 0.020396
v -0.063214 0.046948 0.030622
v -0.063217 0.049448 0.025582
v -0.062782 0.044358 0.033224
v -0.061560 0.043337 0.030896
v -0.062071 0.064347 0.004485
v -0.060971 0.064201 0.004088
v -0.061278 0.073211 -0.000296
v -0.063431 0.055446 0.021532
v -0.063034 0.054162 0.020404
v -0.063245 0.056528 0.022388
v -0.062665 0.051893 0.027776
v -0.063064 0.050669 0.026717
v -0.061871 0.067585 0.008038
v -0.062274 0.057003 0.022711
v -0.061717 0.052846 0.028370
v -0.062122 0.045595 0.034329
v -0.062467 0.048172 0.031669
v -0.061734 0.057688 0.011247
v -0.060432 0.043290 0.021312
v -0.062461 0.053128 0.019439
v -0.061798 0.052079 0.018441
v -0.059989 0.064357 0.004040
v -0.061126 0.045613 0.033878
v -0.061312 0.044385 0.032689
v -0.061732 0.061732 0.015348
v -0.061299 0.056117 0.022008
v -0.060974 0.060935 0.014535
v -0.060445 0.050119 0.016579
v -0.061154 0.051102 0.017528
v -0.061619 0.046685 0.035897
v -0.061562 0.049313 0.032526
v -0.061079 0.067074 0.007302
v -0.060599 0.052122 0.027639
v -0.059562 0.049332 0.015723
v -0.060847 0.057147 0.010596
v -0.059759 0.056642 0.009975
v -0.060275 0.060151 0.013666
v -0.060460 0.054908 0.021096
v -0.060373 0.066497 0.006512
v -0.061338 0.047465 0.035145
v -0.060424 0.045370 0.028840
v -0.060517 0.049085 0.032277
v -0.060101 0.044743 0.022340
v -0.059833 0.047250 0.024465
v -0.059570 0.046986 0.021995
v -0.060212 0.047591 0.031145
v -0.060284 0.046278 0.030143
v -0.059789 0.065861 0.005683
v -0.059581 0.065097 0.004785
v -0.058613 0.049384 0.016055
v -0.059637 0.059362 0.012801
v -0.060047 0.050689 0.026424
v -0.059747 0.053686 0.020149
v -0.059767 0.049122 0.025308
v -0.058628 0.050098 0.017364
v -0.059065 0.058483 0.011898
v -0.058672 0.056823 0.010049
v -0.058671 0.057713 0.011010
v -0.059300 0.052546 0.019250
v -0.058856 0.051243 0.018265
usemtl Tibialis_anterior_muscle_rMaterial0
f 1 2 3
f 3 2 4
f 5 6 2
f 6 4 2
f 1 7 2
f 5 2 7
f 1 3 8
f 3 9 8
f 3 10 9
f 3 4 10
f 5 11 6
f 6 11 12
f 6 13 4
f 6 12 13
f 1 8 14
f 15 8 9
f 16 8 15
f 16 14 8
f 17 18 11
f 18 12 11
f 5 19 11
f 17 11 19
f 20 7 1
f 20 1 14
f 15 9 21
f 16 15 22
f 15 23 22
f 15 21 23
f 24 5 7
f 20 25 7
f 24 7 25
f 17 26 18
f 18 26 27
f 18 28 12
f 18 27 28
f 24 19 5
f 29 14 16
f 20 14 30
f 29 30 14
f 10 31 9
f 10 4 32
f 10 33 31
f 10 32 33
f 21 9 31
f 34 17 19
f 24 35 19
f 34 19 35
f 13 32 4
f 17 36 26
f 37 27 26
f 38 37 26
f 38 26 36
f 16 22 39
f 40 39 22
f 41 22 23
f 40 22 41
f 29 16 39
f 21 42 23
f 21 31 43
f 21 43 42
f 13 12 44
f 13 45 32
f 13 44 45
f 34 36 17
f 28 44 12
f 37 46 27
f 38 47 37
f 37 47 48
f 37 48 46
f 49 39 40
f 29 39 50
f 49 50 39
f 51 38 36
f 34 52 36
f 51 36 52
f 41 23 53
f 40 41 54
f 41 55 54
f 41 53 55
f 53 23 42
f 28 27 56
f 28 57 44
f 28 56 57
f 58 25 20
f 58 20 30
f 59 24 25
f 58 60 25
f 59 25 60
f 61 30 29
f 58 30 62
f 61 62 30
f 40 54 63
f 49 40 63
f 64 63 54
f 65 54 55
f 64 54 65
f 59 35 24
f 46 56 27
f 38 66 47
f 51 66 38
f 61 29 50
f 53 67 55
f 53 42 68
f 53 68 67
f 69 47 66
f 70 48 47
f 69 70 47
f 71 34 35
f 59 72 35
f 71 35 72
f 73 63 64
f 49 63 74
f 73 74 63
f 46 48 75
f 46 76 56
f 46 75 76
f 71 52 34
f 33 77 31
f 43 31 77
f 78 50 49
f 61 50 79
f 78 79 50
f 65 55 80
f 64 65 81
f 65 82 81
f 65 80 82
f 33 32 83
f 33 84 77
f 33 83 84
f 80 55 67
f 43 85 42
f 43 77 86
f 43 86 85
f 87 51 52
f 71 88 52
f 87 52 88
f 45 83 32
f 51 89 66
f 90 69 66
f 90 66 89
f 64 81 91
f 73 64 91
f 45 44 92
f 45 93 83
f 45 92 93
f 70 94 48
f 94 75 48
f 78 49 74
f 69 95 70
f 70 96 94
f 70 95 96
f 57 92 44
f 87 89 51
f 68 42 85
f 97 91 81
f 98 81 82
f 97 81 98
f 80 99 82
f 80 67 100
f 80 100 99
f 57 56 101
f 57 102 92
f 57 101 102
f 103 74 73
f 78 74 104
f 103 104 74
f 69 105 95
f 90 105 69
f 73 91 106
f 107 91 97
f 107 106 91
f 94 96 108
f 94 109 75
f 94 108 109
f 96 95 110
f 95 105 111
f 95 111 110
f 76 101 56
f 112 58 62
f 112 60 58
f 68 113 67
f 68 85 114
f 68 114 113
f 115 90 89
f 87 116 89
f 115 89 116
f 117 62 61
f 112 62 118
f 117 118 62
f 119 59 60
f 112 120 60
f 119 60 120
f 103 73 106
f 98 82 121
f 121 82 99
f 117 61 79
f 96 110 122
f 108 96 122
f 76 75 123
f 76 124 101
f 76 123 124
f 119 72 59
f 97 98 125
f 98 121 126
f 98 126 125
f 90 127 105
f 111 105 127
f 128 122 110
f 128 129 122
f 108 122 129
f 111 130 110
f 128 110 130
f 131 71 72
f 131 72 132
f 119 132 72
f 133 79 78
f 117 79 134
f 133 134 79
f 100 67 113
f 97 125 135
f 107 97 135
f 131 88 71
f 109 123 75
f 115 127 90
f 136 87 88
f 136 88 137
f 131 137 88
f 136 116 87
f 111 138 130
f 111 127 139
f 111 140 138
f 111 139 140
f 107 141 106
f 103 106 141
f 121 142 126
f 121 99 143
f 121 143 142
f 128 130 144
f 138 144 130
f 133 78 104
f 145 139 127
f 145 127 146
f 115 146 127
f 128 147 129
f 128 144 147
f 148 135 125
f 149 125 126
f 148 125 149
f 109 108 150
f 109 150 151
f 109 151 123
f 100 152 99
f 100 113 153
f 100 153 152
f 84 154 77
f 86 77 154
f 155 108 129
f 155 150 108
f 156 129 147
f 156 155 129
f 138 157 144
f 138 158 157
f 138 140 158
f 84 83 159
f 84 160 154
f 84 159 160
f 161 115 116
f 136 162 116
f 161 116 162
f 145 140 139
f 86 163 85
f 86 154 164
f 86 164 163
f 156 147 144
f 165 144 157
f 165 166 144
f 156 144 166
f 103 167 104
f 133 104 167
f 93 159 83
f 107 135 168
f 148 168 135
f 165 157 158
f 93 92 169
f 93 170 159
f 93 169 170
f 149 126 171
f 171 126 142
f 165 172 166
f 165 158 173
f 165 173 172
f 174 107 168
f 107 175 141
f 174 175 107
f 145 176 140
f 177 158 140
f 177 140 176
f 143 99 152
f 178 156 166
f 178 166 172
f 114 85 163
f 145 146 179
f 145 179 176
f 180 155 156
f 181 150 155
f 181 155 180
f 180 156 178
f 102 169 92
f 161 146 115
f 148 149 182
f 149 171 183
f 149 183 182
f 184 103 141
f 103 185 167
f 184 185 103
f 161 179 146
f 186 173 158
f 186 158 177
f 102 101 187
f 102 188 169
f 102 187 188
f 151 150 181
f 177 176 179
f 148 189 168
f 148 182 190
f 191 148 190
f 191 189 148
f 192 172 173
f 192 173 186
f 124 187 101
f 171 193 183
f 171 142 194
f 171 194 193
f 174 168 189
f 124 123 195
f 124 195 196
f 124 196 187
f 114 197 113
f 114 163 198
f 114 198 197
f 180 178 199
f 181 180 200
f 180 199 200
f 199 178 172
f 199 172 192
f 184 141 175
f 143 201 142
f 143 152 202
f 143 202 201
f 151 195 123
f 203 136 137
f 203 162 136
f 204 190 182
f 204 182 183
f 177 179 205
f 186 177 205
f 151 181 206
f 151 206 195
f 207 112 118
f 208 118 117
f 208 209 118
f 207 118 209
f 210 137 131
f 203 137 211
f 210 211 137
f 212 161 162
f 203 213 162
f 212 162 213
f 207 120 112
f 214 119 120
f 207 215 120
f 214 120 215
f 212 179 161
f 212 205 179
f 181 200 216
f 181 216 217
f 181 217 206
f 208 117 134
f 153 113 197
f 204 218 190
f 191 190 218
f 199 219 200
f 220 216 200
f 220 200 219
f 204 183 221
f 221 183 193
f 194 142 201
f 210 131 132
f 192 186 222
f 186 205 222
f 174 189 223
f 191 223 189
f 204 221 224
f 225 218 204
f 204 224 226
f 225 204 226
f 214 132 119
f 174 227 175
f 184 175 227
f 199 192 228
f 199 229 219
f 199 228 229
f 210 132 230
f 214 230 132
f 192 222 228
f 133 231 134
f 208 134 231
f 153 232 152
f 153 197 233
f 153 233 232
f 221 234 224
f 221 193 235
f 221 235 234
f 191 218 236
f 225 236 218
f 237 216 220
f 237 217 216
f 238 133 167
f 133 239 231
f 238 239 133
f 240 226 224
f 225 226 241
f 240 241 226
f 194 242 193
f 194 201 243
f 194 243 242
f 244 174 223
f 174 245 227
f 244 245 174
f 246 205 212
f 246 222 205
f 247 191 236
f 191 248 223
f 247 248 191
f 238 167 185
f 240 224 234
f 202 152 232
f 249 195 206
f 249 206 217
f 225 250 236
f 225 241 251
f 252 250 225
f 252 225 251
f 164 154 253
f 160 253 154
f 184 254 185
f 238 185 254
f 164 255 163
f 164 253 256
f 164 256 255
f 160 159 257
f 160 258 253
f 160 257 258
f 235 193 242
f 247 236 250
f 244 223 248
f 170 257 159
f 237 220 219
f 259 219 229
f 237 219 259
f 196 195 249
f 196 260 187
f 196 249 261
f 196 261 260
f 262 213 203
f 246 212 213
f 246 213 263
f 262 263 213
f 170 169 264
f 170 265 257
f 170 264 265
f 202 266 201
f 202 232 267
f 202 267 266
f 268 241 240
f 268 251 241
f 262 203 211
f 269 184 227
f 184 270 254
f 269 270 184
f 271 228 222
f 271 222 246
f 188 264 169
f 188 187 260
f 198 163 255
f 188 260 272
f 188 272 264
f 273 229 228
f 259 229 273
f 240 234 274
f 268 240 275
f 240 276 275
f 240 274 276
f 235 277 234
f 235 242 278
f 235 278 277
f 247 250 279
f 280 250 252
f 280 279 250
f 281 211 210
f 262 211 282
f 281 282 211
f 252 251 283
f 268 283 251
f 284 248 247
f 244 248 285
f 284 285 248
f 243 201 266
f 273 228 271
f 269 227 245
f 249 217 237
f 198 286 197
f 198 255 287
f 198 287 286
f 274 234 277
f 284 247 279
f 243 288 242
f 243 266 289
f 243 289 288
f 290 245 244
f 269 245 291
f 290 291 245
f 281 210 230
f 252 283 292
f 280 252 292
f 268 275 293
f 294 275 276
f 294 293 275
f 295 283 268
f 268 293 296
f 295 268 296
f 233 197 286
f 249 237 297
f 237 259 298
f 237 298 297
f 274 299 276
f 274 277 300
f 274 300 299
f 249 301 261
f 249 297 301
f 208 302 209
f 303 207 209
f 303 209 302
f 290 244 285
f 304 279 280
f 284 279 305
f 304 305 279
f 306 208 231
f 208 307 302
f 306 307 208
f 303 215 207
f 308 292 283
f 308 283 295
f 309 260 261
f 309 261 301
f 278 242 288
f 310 230 214
f 281 230 311
f 310 311 230
f 271 246 263
f 310 214 215
f 303 312 215
f 310 215 312
f 233 313 232
f 233 286 314
f 233 314 313
f 306 231 239
f 315 263 262
f 271 263 316
f 315 316 263
f 259 273 317
f 259 317 298
f 272 260 309
f 318 285 284
f 290 285 319
f 318 319 285
f 320 301 297
f 320 297 298
f 238 321 239
f 306 239 321
f 294 276 299
f 278 322 277
f 278 288 323
f 278 323 322
f 267 232 313
f 280 292 324
f 325 324 292
f 325 292 308
f 304 280 324
f 315 262 282
f 272 309 326
f 272 327 264
f 272 326 327
f 309 301 320
f 328 238 254
f 238 329 321
f 328 329 238
f 267 330 266
f 267 331 330
f 267 313 331
f 258 332 253
f 256 253 332
f 258 257 333
f 265 333 257
f 258 333 334
f 258 334 332
f 328 254 270
f 300 277 322
f 335 296 293
f 335 293 294
f 318 284 305
f 309 320 336
f 309 337 326
f 309 336 337
f 295 296 338
f 335 338 296
f 265 264 327
f 273 271 316
f 273 316 317
f 256 339 255
f 256 332 340
f 256 340 339
f 289 266 330
f 265 327 341
f 265 341 333
f 320 298 317
f 342 270 269
f 328 270 343
f 342 343 270
f 320 344 336
f 320 317 345
f 320 345 344
f 346 282 281
f 315 282 347
f 346 347 282
f 348 327 326
f 348 326 337
f 287 255 339
f 308 295 349
f 295 338 349
f 300 350 299
f 300 322 351
f 300 351 350
f 352 337 336
f 352 336 344
f 342 269 291
f 353 305 304
f 318 305 354
f 353 354 305
f 289 355 288
f 289 330 356
f 289 356 355
f 341 327 348
f 304 324 357
f 358 324 325
f 358 357 324
f 348 337 352
f 294 299 359
f 335 294 360
f 294 361 360
f 294 359 361
f 362 291 290
f 342 291 363
f 362 363 291
f 341 364 333
f 341 348 365
f 341 365 364
f 345 317 316
f 308 349 366
f 325 308 366
f 287 367 286
f 287 339 368
f 287 368 367
f 334 333 364
f 348 369 365
f 348 352 370
f 348 370 369
f 359 299 350
f 353 304 357
f 362 290 319
f 345 316 315
f 345 347 344
f 345 315 347
f 323 288 355
f 334 371 332
f 334 364 372
f 334 372 371
f 346 281 311
f 373 338 335
f 335 360 374
f 373 335 375
f 335 374 375
f 340 332 371
f 376 364 365
f 376 365 369
f 377 349 338
f 377 338 373
f 314 286 367
f 378 319 318
f 362 319 379
f 378 379 319
f 352 344 347
f 323 380 322
f 323 381 380
f 323 355 381
f 340 382 339
f 340 371 383
f 340 383 382
f 372 364 376
f 384 366 349
f 384 349 377
f 385 360 361
f 385 374 360
f 314 386 313
f 314 367 387
f 314 387 386
f 325 366 388
f 358 325 388
f 351 322 380
f 353 357 389
f 390 357 358
f 390 389 357
f 331 391 330
f 356 330 391
f 372 392 371
f 372 376 393
f 372 393 392
f 352 347 346
f 352 394 370
f 352 346 394
f 378 318 354
f 359 350 395
f 359 395 396
f 359 396 361
f 331 313 386
f 351 397 350
f 351 380 398
f 351 398 397
f 399 311 310
f 346 311 394
f 399 394 311
f 368 339 382
f 331 400 391
f 331 386 400
f 401 302 307
f 401 303 302
f 383 371 392
f 306 402 307
f 401 307 402
f 303 403 312
f 401 404 303
f 303 404 403
f 395 350 397
f 405 388 366
f 405 366 384
f 406 306 321
f 306 407 402
f 406 407 306
f 383 408 382
f 383 392 409
f 383 409 408
f 356 391 410
f 356 411 355
f 356 410 411
f 412 354 353
f 378 354 413
f 412 413 354
f 399 310 312
f 399 312 403
f 398 380 414
f 398 415 397
f 398 414 416
f 398 416 415
f 381 414 380
f 400 417 391
f 410 391 417
f 368 382 418
f 368 419 367
f 368 418 419
f 418 382 408
f 399 369 370
f 399 370 394
f 395 397 420
f 395 420 421
f 395 421 396
f 381 355 411
f 406 321 329
f 420 397 415
f 412 353 389
f 385 361 396
f 387 367 419
f 422 329 328
f 422 423 329
f 406 329 423
f 381 424 414
f 381 411 424
f 400 386 425
f 400 426 417
f 400 425 426
f 422 328 343
f 416 414 427
f 424 427 414
f 358 388 428
f 390 358 428
f 373 375 429
f 430 375 374
f 430 429 375
f 431 343 342
f 431 432 343
f 422 343 432
f 387 425 386
f 387 419 433
f 387 433 425
f 410 417 434
f 410 435 411
f 410 434 435
f 418 436 419
f 418 408 437
f 418 437 436
f 377 373 438
f 373 429 438
f 416 439 415
f 416 427 440
f 416 440 439
f 430 374 385
f 431 342 363
f 441 428 388
f 441 388 405
f 420 415 442
f 420 442 443
f 420 443 421
f 426 444 417
f 434 417 444
f 376 369 399
f 445 363 362
f 431 363 446
f 445 446 363
f 433 419 436
f 384 377 447
f 377 438 447
f 385 396 448
f 448 396 421
f 442 415 439
f 424 411 435
f 424 449 427
f 424 435 449
f 426 425 450
f 426 451 444
f 426 450 451
f 433 450 425
f 433 452 450
f 433 436 452
f 445 362 379
f 453 389 390
f 412 389 454
f 453 454 389
f 376 404 393
f 376 399 403
f 376 403 404
f 440 427 455
f 449 455 427
f 434 456 435
f 434 444 457
f 434 457 456
f 401 392 393
f 401 393 404
f 440 458 439
f 440 455 459
f 440 459 458
f 442 439 460
f 442 460 461
f 442 461 443
f 449 435 456
f 449 462 455
f 449 456 462
f 463 379 378
f 445 379 464
f 463 464 379
f 409 392 401
f 385 448 465
f 430 385 466
f 385 465 466
f 405 384 467
f 384 447 467
f 409 407 408
f 409 401 402
f 409 402 407
f 448 421 468
f 468 421 443
f 460 439 458
f 463 378 413
f 390 428 469
f 470 469 428
f 470 428 441
f 451 446 444
f 457 444 446
f 452 432 450
f 452 436 423
f 452 422 432
f 452 423 422
f 437 408 407
f 451 450 432
f 451 432 431
f 451 431 446
f 437 423 436
f 453 390 469
f 457 464 456
f 457 446 445
f 457 445 464
f 437 407 406
f 437 406 423
f 462 471 455
f 459 455 471
f 472 413 412
f 463 413 471
f 472 471 413
f 462 456 464
f 462 464 463
f 462 463 471
f 448 468 473
f 448 473 465
f 441 405 474
f 405 467 474
f 460 458 475
f 460 476 461
f 460 475 476
f 477 429 430
f 477 438 429
f 468 443 478
f 478 443 461
f 459 479 458
f 459 471 472
f 459 472 479
f 430 466 480
f 477 430 481
f 430 480 481
f 438 482 447
f 477 483 438
f 438 483 482
f 472 412 454
f 484 467 447
f 484 447 482
f 468 478 485
f 468 485 473
f 475 458 479
f 453 469 486
f 487 469 470
f 487 486 469
f 472 454 479
f 488 454 453
f 488 479 454
f 489 466 465
f 489 480 466
f 441 474 490
f 470 441 490
f 478 461 491
f 491 461 476
f 492 474 467
f 492 467 484
f 475 479 488
f 475 493 476
f 475 488 493
f 478 491 494
f 478 494 485
f 488 453 486
f 489 465 473
f 495 490 474
f 495 474 492
f 470 490 496
f 487 470 496
f 491 476 497
f 497 476 493
f 488 486 493
f 498 493 486
f 498 486 487
f 499 483 477
f 477 481 500
f 499 477 501
f 477 500 501
f 491 497 502
f 491 502 494
f 503 473 485
f 489 473 503
f 504 482 483
f 504 483 499
f 505 481 480
f 505 500 481
f 506 496 490
f 506 490 495
f 484 482 504
f 497 493 498
f 507 485 494
f 503 485 507
f 505 480 489
f 487 496 508
f 498 487 508
f 497 498 509
f 497 509 502
f 492 484 510
f 484 504 510
f 511 508 496
f 511 496 506
f 498 508 509
f 489 503 512
f 505 489 513
f 489 512 513
f 514 494 502
f 507 494 514
f 495 492 515
f 492 510 515
f 516 509 508
f 516 508 511
f 503 507 517
f 503 517 512
f 499 501 518
f 519 501 500
f 519 518 501
f 520 502 509
f 514 502 520
f 504 499 521
f 499 518 521
f 506 495 522
f 495 515 522
f 520 509 516
f 519 500 505
f 504 523 510
f 504 521 524
f 504 524 523
f 507 514 525
f 507 525 517
f 511 506 526
f 506 522 526
f 527 515 510
f 527 510 523
f 505 513 528
f 519 505 529
f 505 528 529
f 514 520 530
f 514 530 525
f 516 511 531
f 511 526 531
f 532 522 515
f 532 515 527
f 533 513 512
f 533 528 513
f 520 516 534
f 516 531 534
f 520 534 530
f 535 521 518
f 521 536 524
f 521 537 536
f 535 537 521
f 538 526 522
f 538 522 532
f 533 512 517
f 535 518 519
f 539 523 524
f 539 524 536
f 519 529 540
f 535 519 541
f 519 540 541
f 542 531 526
f 542 526 538
f 543 517 525
f 533 517 543
f 527 523 539
f 544 529 528
f 544 540 529
f 545 534 531
f 545 531 542
f 546 525 530
f 543 525 546
f 532 527 547
f 527 539 547
f 548 530 534
f 548 534 545
f 544 528 533
f 546 530 548
f 549 536 537
f 550 537 535
f 549 537 550
f 538 532 551
f 532 547 551
f 539 536 549
f 535 541 552
f 550 535 553
f 535 552 553
f 533 543 554
f 544 533 555
f 533 554 555
f 556 541 540
f 556 552 541
f 539 557 547
f 539 549 558
f 539 558 557
f 542 538 559
f 538 551 559
f 543 546 560
f 543 560 554
f 556 540 544
f 561 551 547
f 561 547 557
f 545 542 562
f 542 559 562
f 546 548 563
f 546 563 560
f 548 545 564
f 545 562 564
f 544 555 565
f 556 544 566
f 544 565 566
f 548 564 563
f 567 559 551
f 567 551 561
f 549 550 568
f 550 553 569
f 550 569 568
f 549 570 558
f 549 568 571
f 549 571 570
f 572 553 552
f 572 569 553
f 573 555 554
f 573 565 555
f 574 562 559
f 574 559 567
f 575 557 558
f 575 558 570
f 572 552 556
f 573 554 560
f 576 564 562
f 576 562 574
f 556 566 577
f 572 556 578
f 556 577 578
f 561 557 575
f 579 560 563
f 573 560 579
f 580 563 564
f 580 564 576
f 581 568 569
f 582 571 568
f 582 568 581
f 583 566 565
f 583 577 566
f 567 561 584
f 561 575 584
f 579 563 580
f 585 569 572
f 581 569 585
f 586 570 571
f 586 571 582
f 572 578 587
f 585 572 588
f 572 587 588
f 575 570 586
f 574 567 589
f 567 584 589
f 583 565 573
f 575 590 584
f 575 586 591
f 575 591 590
f 592 578 577
f 592 587 578
f 576 574 593
f 574 589 593
f 573 579 594
f 583 573 595
f 573 594 595
f 596 597 598
f 598 597 599
f 596 600 597
f 601 597 600
f 601 599 597
f 602 596 598
f 602 598 603
f 604 603 598
f 598 599 605
f 604 598 605
f 581 585 606
f 585 588 607
f 585 607 606
f 582 581 608
f 581 606 608
f 580 576 609
f 576 593 609
f 610 589 584
f 610 584 590
f 579 580 611
f 579 611 594
f 586 582 612
f 582 608 612
f 592 577 583
f 613 588 587
f 613 607 588
f 580 609 611
f 586 614 591
f 586 612 615
f 586 615 614
f 596 616 600
f 616 601 600
f 602 617 596
f 596 617 616
f 618 593 589
f 618 589 610
f 619 602 603
f 619 603 620
f 604 620 603
f 583 595 621
f 592 583 622
f 583 621 622
f 623 590 591
f 623 591 614
f 613 587 592
f 619 624 602
f 602 624 617
f 625 599 601
f 616 625 601
f 626 612 608
f 606 627 608
f 626 608 627
f 628 615 612
f 628 612 626
f 629 609 593
f 629 593 618
f 630 606 607
f 606 631 627
f 630 631 606
f 632 615 628
f 632 614 615
f 633 595 594
f 633 621 595
f 634 605 599
f 625 634 599
f 610 590 623
f 630 607 613
f 635 619 620
f 635 636 619
f 619 636 624
f 635 620 637
f 637 620 638
f 604 638 620
f 613 592 639
f 592 622 640
f 592 640 639
f 641 611 609
f 641 609 629
f 628 626 642
f 626 627 643
f 626 643 642
f 628 642 644
f 632 628 644
f 623 614 632
f 643 627 631
f 633 594 611
f 645 644 642
f 643 646 642
f 645 642 646
f 633 611 641
f 610 623 647
f 618 610 647
f 632 644 648
f 649 644 645
f 649 648 644
f 635 646 636
f 645 646 635
f 635 637 650
f 645 635 651
f 635 650 651
f 643 624 636
f 643 636 646
f 630 613 652
f 652 613 639
f 604 605 653
f 634 653 605
f 643 654 624
f 654 617 624
f 643 631 654
f 654 631 630
f 616 617 655
f 654 655 617
f 656 622 621
f 656 640 622
f 637 657 650
f 637 638 658
f 637 658 657
f 623 632 659
f 632 648 660
f 632 660 659
f 649 645 651
f 623 661 647
f 623 659 661
f 616 662 625
f 616 655 663
f 616 663 662
f 654 630 655
f 630 663 655
f 630 652 663
f 664 651 650
f 649 651 665
f 664 665 651
f 618 647 666
f 629 618 666
f 667 648 649
f 667 660 648
f 625 668 634
f 625 662 668
f 664 650 657
f 652 639 669
f 670 639 640
f 670 669 639
f 671 666 647
f 671 647 661
f 656 621 633
f 652 662 663
f 652 669 662
f 672 659 660
f 672 661 659
f 641 629 673
f 629 666 673
f 667 649 665
f 665 664 674
f 664 657 674
f 604 675 638
f 675 658 638
f 665 674 676
f 667 665 676
f 604 653 677
f 604 678 675
f 604 677 679
f 604 679 678
f 674 657 680
f 674 680 676
f 658 680 657
f 675 681 658
f 658 681 680
f 672 660 667
f 633 641 682
f 656 633 683
f 633 682 683
f 641 673 682
f 634 684 653
f 634 668 684
f 685 673 666
f 685 666 671
f 671 661 672
f 670 640 656
f 668 662 669
f 668 669 670
f 667 676 680
f 672 667 686
f 667 680 686
f 671 672 687
f 672 686 688
f 672 688 687
f 689 677 653
f 689 653 684
f 675 688 681
f 675 678 688
f 690 682 673
f 690 673 685
f 686 680 681
f 686 681 688
f 685 671 687
f 679 677 689
f 670 656 691
f 656 683 692
f 656 692 691
f 678 687 688
f 678 693 687
f 678 679 694
f 678 694 693
f 690 683 682
f 668 670 691
f 685 687 693
f 690 685 693
f 690 692 683
f 679 689 694
f 668 691 684
f 690 693 694
f 689 690 694
f 689 692 690
f 689 691 692
f 689 684 691
