# 
# Wavefront OBJ file
# Created with Kaydara FBX
# 
mtllib c:\users\tjvan\onedrive\documenten\fontys\minor\nx\.mtlmodels\transverse_intermuscular_septum_of_leg.r.obj

g Transverse_intermuscular_septum_of_leg_r
v -0.106504 0.346088 -0.053702
v -0.117624 0.347001 -0.055466
v -0.117637 0.367140 -0.052973
v -0.116137 0.386278 -0.050501
v -0.106759 0.386362 -0.054921
v -0.105023 0.365810 -0.053689
v -0.117406 0.328827 -0.056651
v -0.103386 0.312299 -0.056846
v -0.117260 0.311838 -0.057748
v -0.103577 0.328551 -0.055298
v -0.102560 0.296667 -0.057379
v -0.116594 0.295895 -0.058580
v -0.101384 0.281568 -0.058182
v -0.115929 0.280366 -0.059155
v -0.106092 0.395107 -0.054233
v -0.099841 0.266661 -0.058643
v -0.114936 0.264979 -0.059666
v -0.097738 0.251975 -0.059381
v -0.113887 0.249801 -0.060351
v -0.095326 0.237540 -0.060682
v -0.112383 0.235035 -0.060982
v -0.093059 0.223208 -0.060836
v -0.110625 0.220494 -0.061697
v -0.090463 0.208976 -0.061237
v -0.108122 0.205949 -0.062710
v -0.087785 0.194583 -0.061815
v -0.104930 0.191673 -0.063723
v -0.105806 0.391062 -0.055396
v -0.097026 0.375012 -0.045944
v -0.098826 0.372707 -0.047353
v -0.089917 0.343226 -0.048818
v -0.094885 0.379104 -0.045149
v -0.090515 0.359834 -0.044840
v -0.085318 0.179932 -0.062893
v -0.101600 0.177278 -0.064490
v -0.090400 0.327807 -0.051480
v -0.088954 0.297275 -0.052367
v -0.089906 0.312299 -0.052419
v -0.083680 0.165077 -0.063634
v -0.098754 0.162818 -0.065072
v -0.087139 0.282649 -0.052711
v -0.084785 0.268294 -0.053270
v -0.086800 0.364352 -0.042021
v -0.083195 0.149979 -0.064135
v -0.096781 0.148067 -0.065065
v -0.097082 0.076685 -0.062714
v -0.096852 0.060858 -0.063091
v -0.098186 0.068042 -0.061566
v -0.082163 0.253978 -0.053871
v -0.094023 0.070292 -0.064472
v -0.095760 0.087951 -0.063609
v -0.083657 0.368454 -0.039824
v -0.088774 0.064355 -0.068169
v -0.093261 0.055077 -0.066508
v -0.082190 0.134684 -0.064784
v -0.095329 0.132724 -0.065092
v -0.084204 0.100815 -0.065803
v -0.095485 0.102657 -0.063185
v -0.089548 0.082428 -0.066320
v -0.094954 0.117000 -0.063686
v -0.082715 0.119077 -0.064877
v -0.079355 0.239597 -0.054432
v -0.082851 0.075509 -0.069633
v -0.083314 0.055757 -0.073497
v -0.086711 0.050067 -0.071931
v -0.077008 0.225095 -0.055021
v -0.078355 0.351065 -0.039628
v -0.075707 0.354761 -0.038215
v -0.074766 0.210525 -0.055873
v -0.079474 0.325794 -0.045923
v -0.079802 0.339212 -0.043707
v -0.077113 0.296959 -0.045761
v -0.078582 0.311093 -0.046538
v -0.079664 0.090736 -0.068186
v -0.073766 0.283024 -0.045908
v -0.079076 0.061412 -0.075103
v -0.070790 0.181224 -0.058526
v -0.072641 0.195886 -0.056989
v -0.071244 0.268805 -0.046349
v -0.073157 0.358066 -0.036924
v -0.074203 0.047954 -0.080430
v -0.074226 0.044025 -0.080274
v -0.068967 0.254446 -0.046654
v -0.067655 0.107563 -0.066389
v -0.069182 0.152003 -0.060951
v -0.069746 0.166545 -0.059771
v -0.074145 0.051916 -0.080528
v -0.068487 0.137745 -0.062278
v -0.067840 0.094677 -0.068522
v -0.069736 0.079887 -0.071496
v -0.067493 0.123209 -0.064097
v -0.067348 0.239943 -0.047004
v -0.072168 0.323178 -0.040687
v -0.073986 0.344945 -0.037153
v -0.073100 0.336355 -0.038974
v -0.065930 0.225335 -0.047948
v -0.069618 0.065190 -0.076313
v -0.071042 0.309662 -0.041006
v -0.068741 0.296066 -0.039701
v -0.064593 0.210675 -0.049687
v -0.071980 0.345922 -0.035452
v -0.062974 0.196030 -0.051648
v -0.066459 0.044374 -0.082569
v -0.067145 0.048059 -0.082229
v -0.067839 0.051790 -0.081860
v -0.071468 0.336234 -0.035028
v -0.066441 0.282554 -0.038635
v -0.070081 0.346905 -0.033854
v -0.070511 0.322866 -0.034866
v -0.069695 0.309604 -0.035278
v -0.070855 0.335804 -0.031450
v -0.070067 0.322770 -0.029268
v -0.065625 0.268261 -0.037858
v -0.067955 0.295483 -0.033647
v -0.061378 0.166725 -0.054530
v -0.061782 0.181369 -0.053378
v -0.069471 0.309518 -0.027444
v -0.060586 0.080125 -0.070218
v -0.057506 0.094327 -0.066806
v -0.060940 0.152541 -0.055760
v -0.068581 0.294836 -0.025199
v -0.063000 0.065465 -0.075267
v -0.064259 0.253722 -0.037924
v -0.067273 0.281691 -0.032058
v -0.068270 0.280819 -0.025519
v -0.058598 0.124466 -0.060197
v -0.060173 0.138553 -0.057442
v -0.067580 0.266922 -0.025902
v -0.063119 0.052361 -0.081216
v -0.056825 0.109426 -0.063293
v -0.067608 0.193485 -0.030220
v -0.064703 0.208808 -0.035598
v -0.067470 0.208028 -0.029606
v -0.067423 0.179151 -0.030980
v -0.064664 0.194230 -0.036575
v -0.066602 0.267592 -0.031880
v -0.067226 0.252235 -0.027045
v -0.064857 0.223468 -0.034402
v -0.067467 0.222654 -0.028986
v -0.065229 0.238230 -0.033353
v -0.067358 0.237393 -0.028112
v -0.063806 0.165424 -0.038390
v -0.066629 0.164861 -0.031540
v -0.064364 0.179796 -0.037617
v -0.065742 0.252979 -0.032485
v -0.063100 0.239068 -0.038594
v -0.062284 0.049217 -0.081604
v -0.065170 0.150128 -0.032684
v -0.061450 0.046082 -0.081986
v -0.062247 0.224282 -0.039818
v -0.062747 0.150976 -0.039643
v -0.063376 0.135449 -0.034205
v -0.061095 0.136644 -0.041503
v -0.061935 0.209589 -0.041591
v -0.061720 0.194976 -0.042930
v -0.060982 0.165987 -0.045240
v -0.061305 0.180441 -0.044254
v -0.058105 0.122517 -0.044754
v -0.060129 0.120989 -0.037356
v -0.059916 0.054489 -0.078652
v -0.058344 0.064616 -0.072097
v -0.058814 0.137839 -0.048801
v -0.060320 0.151823 -0.046604
v -0.058989 0.052006 -0.078739
v -0.058059 0.049520 -0.078803
v -0.056081 0.124045 -0.052152
v -0.055088 0.078998 -0.065500
v -0.055064 0.107715 -0.040640
v -0.056336 0.062834 -0.068814
v -0.054361 0.061092 -0.065662
v -0.053926 0.108577 -0.048331
v -0.051813 0.093293 -0.060053
v -0.052788 0.109437 -0.056032
v -0.052799 0.077324 -0.059646
v -0.050022 0.092922 -0.051276
v -0.048246 0.092486 -0.042766
v -0.050510 0.075644 -0.053768
usemtl Transverse_intermuscular_septum_of_leg_rMaterial0
f 1 2 3
f 3 4 5
f 3 5 6
f 1 3 6
f 1 7 2
f 7 8 9
f 1 10 7
f 7 10 8
f 9 11 12
f 9 8 11
f 12 13 14
f 12 11 13
f 15 5 4
f 14 16 17
f 14 13 16
f 17 18 19
f 17 16 18
f 19 20 21
f 19 18 20
f 21 22 23
f 21 20 22
f 23 24 25
f 23 22 24
f 25 26 27
f 25 24 26
f 15 28 5
f 5 28 29
f 30 6 5
f 5 29 30
f 31 1 6
f 31 10 1
f 28 15 32
f 28 32 29
f 30 33 6
f 31 6 33
f 27 34 35
f 27 26 34
f 8 10 36
f 31 36 10
f 37 11 8
f 8 36 38
f 37 8 38
f 37 13 11
f 35 39 40
f 35 34 39
f 41 16 13
f 37 41 13
f 42 18 16
f 41 42 16
f 30 29 43
f 30 43 33
f 40 44 45
f 40 39 44
f 46 47 48
f 49 20 18
f 42 49 18
f 46 50 47
f 51 50 46
f 29 32 52
f 29 52 43
f 53 47 50
f 53 54 47
f 45 55 56
f 45 44 55
f 57 51 58
f 51 59 50
f 57 59 51
f 57 58 60
f 61 60 56
f 61 56 55
f 62 22 20
f 49 62 20
f 57 60 61
f 63 50 59
f 63 53 50
f 54 53 64
f 54 64 65
f 66 24 22
f 62 66 22
f 31 33 67
f 68 33 43
f 68 67 33
f 69 26 24
f 66 69 24
f 70 36 31
f 70 38 36
f 70 31 71
f 31 67 71
f 72 37 38
f 70 73 38
f 72 38 73
f 74 59 57
f 74 63 59
f 75 41 37
f 75 37 72
f 53 76 64
f 53 63 76
f 77 34 26
f 69 78 26
f 77 26 78
f 79 42 41
f 79 41 75
f 80 43 52
f 80 68 43
f 81 65 64
f 81 82 65
f 39 34 77
f 83 49 42
f 83 42 79
f 61 84 57
f 84 74 57
f 39 85 44
f 39 77 86
f 39 86 85
f 87 64 76
f 87 81 64
f 88 55 44
f 88 44 85
f 63 74 89
f 90 76 63
f 63 89 90
f 61 55 88
f 61 88 91
f 61 91 84
f 92 62 49
f 92 49 83
f 93 70 71
f 94 71 67
f 94 95 71
f 93 71 95
f 84 89 74
f 93 73 70
f 96 66 62
f 96 62 92
f 87 76 97
f 90 97 76
f 72 73 98
f 93 98 73
f 94 67 68
f 75 72 99
f 72 98 99
f 100 69 66
f 100 66 96
f 94 68 101
f 101 68 80
f 102 78 69
f 102 69 100
f 81 103 82
f 87 104 81
f 81 104 103
f 87 97 105
f 87 105 104
f 94 106 95
f 94 101 106
f 79 75 107
f 75 99 107
f 101 80 108
f 109 93 95
f 109 95 106
f 77 78 102
f 110 98 93
f 110 93 109
f 101 111 106
f 101 108 111
f 112 106 111
f 112 109 106
f 83 79 113
f 79 107 113
f 114 98 110
f 114 99 98
f 77 115 86
f 77 102 116
f 77 116 115
f 117 109 112
f 117 110 109
f 118 97 90
f 119 90 89
f 119 118 90
f 120 85 86
f 120 86 115
f 121 110 117
f 121 114 110
f 105 97 122
f 118 122 97
f 88 85 120
f 92 83 123
f 83 113 123
f 124 99 114
f 124 107 99
f 125 114 121
f 88 126 91
f 88 120 127
f 88 127 126
f 125 124 114
f 128 124 125
f 104 105 129
f 105 122 129
f 130 89 84
f 130 119 89
f 130 84 91
f 131 132 133
f 134 135 131
f 131 135 132
f 128 136 124
f 137 136 128
f 130 91 126
f 133 138 139
f 133 132 138
f 139 140 141
f 139 138 140
f 142 134 143
f 134 144 135
f 142 144 134
f 141 145 137
f 141 140 145
f 96 92 146
f 92 123 146
f 136 107 124
f 137 145 136
f 103 104 147
f 104 129 147
f 142 143 148
f 136 113 107
f 145 113 136
f 103 147 149
f 100 96 150
f 96 146 150
f 145 123 113
f 140 123 145
f 138 146 140
f 140 146 123
f 142 148 151
f 148 152 153
f 148 153 151
f 132 150 138
f 138 150 146
f 135 154 132
f 132 154 150
f 144 155 135
f 135 155 154
f 102 100 154
f 100 150 154
f 156 144 142
f 144 157 155
f 156 157 144
f 156 142 151
f 152 158 153
f 152 159 158
f 160 129 122
f 160 147 129
f 118 161 122
f 160 122 161
f 102 154 155
f 102 157 116
f 102 155 157
f 151 153 162
f 156 151 163
f 151 162 163
f 164 149 147
f 160 164 147
f 156 115 116
f 156 116 157
f 164 165 149
f 120 115 156
f 153 166 162
f 153 158 166
f 120 156 163
f 120 163 162
f 120 162 127
f 118 167 161
f 119 167 118
f 166 127 162
f 166 126 127
f 158 159 168
f 160 169 164
f 160 161 169
f 164 170 165
f 164 169 170
f 166 130 126
f 167 169 161
f 166 158 171
f 158 168 171
f 130 172 119
f 119 172 167
f 166 173 130
f 130 173 172
f 167 174 169
f 174 170 169
f 166 171 173
f 167 175 174
f 167 172 175
f 176 171 168
f 174 177 170
f 175 173 171
f 176 175 171
f 174 176 177
f 174 175 176
f 175 172 173
