# 
# Wavefront OBJ file
# Created with Kaydara FBX
# 
mtllib c:\users\tjvan\onedrive\documenten\fontys\minor\nx\.mtlmodels\transverse_ligament_of_knee.r.obj

g Transverse_ligament_of_knee_r
v -0.090078 0.432420 -0.011579
v -0.090107 0.432737 -0.011470
v -0.090083 0.432803 -0.011920
v -0.089926 0.432765 -0.011208
v -0.090020 0.433091 -0.011950
v -0.089975 0.433161 -0.011568
v -0.090052 0.432475 -0.012049
v -0.089796 0.431874 -0.011736
v -0.089968 0.432444 -0.011259
v -0.089722 0.432963 -0.012680
v -0.089646 0.433332 -0.012546
v -0.089820 0.431954 -0.012234
v -0.089581 0.432089 -0.012728
v -0.089726 0.432543 -0.012694
v -0.089440 0.433455 -0.012212
v -0.089606 0.432381 -0.010834
v -0.089749 0.431954 -0.011355
v -0.089498 0.431954 -0.011005
v -0.089754 0.433131 -0.011379
v -0.089254 0.433120 -0.011150
v -0.089438 0.432776 -0.010800
v -0.088744 0.431096 -0.012031
v -0.088839 0.431277 -0.012652
v -0.088568 0.431215 -0.011449
v -0.089245 0.433437 -0.011847
v -0.088943 0.433334 -0.011520
v -0.088713 0.432283 -0.013427
v -0.088604 0.432846 -0.013482
v -0.088307 0.433504 -0.012791
v -0.088459 0.433316 -0.013289
v -0.088256 0.432012 -0.010661
v -0.088804 0.431722 -0.013142
v -0.088397 0.431519 -0.010954
v -0.088110 0.433004 -0.011072
v -0.088150 0.432568 -0.010676
v -0.088189 0.433478 -0.012192
v -0.088116 0.433302 -0.011591
v -0.087150 0.430800 -0.012929
v -0.087114 0.430642 -0.012324
v -0.087096 0.431259 -0.013384
v -0.087002 0.430781 -0.011687
v -0.086986 0.431843 -0.013659
v -0.086757 0.432964 -0.013450
v -0.086862 0.432446 -0.013711
v -0.086846 0.431141 -0.011143
v -0.086697 0.431684 -0.010818
v -0.086704 0.433266 -0.012930
v -0.086620 0.432303 -0.010772
v -0.086695 0.433322 -0.012305
v -0.086623 0.432816 -0.011113
v -0.086659 0.433162 -0.011651
v -0.085397 0.430623 -0.012981
v -0.085370 0.431039 -0.013357
v -0.085369 0.430464 -0.012462
v -0.085296 0.431578 -0.013585
v -0.085297 0.430577 -0.011901
v -0.085206 0.432166 -0.013615
v -0.085189 0.430911 -0.011426
v -0.085121 0.433040 -0.012858
v -0.085143 0.432698 -0.013346
v -0.085073 0.431453 -0.011120
v -0.085109 0.433125 -0.012285
v -0.085074 0.432978 -0.011737
v -0.085026 0.432611 -0.011281
v -0.085013 0.432072 -0.011062
v -0.083623 0.430415 -0.012670
v -0.083673 0.430576 -0.013144
v -0.083553 0.430527 -0.012165
v -0.083692 0.430988 -0.013470
v -0.083481 0.430853 -0.011736
v -0.083681 0.431504 -0.013637
v -0.083606 0.432571 -0.013388
v -0.083652 0.432067 -0.013639
v -0.083417 0.431363 -0.011448
v -0.083550 0.432899 -0.012945
v -0.083491 0.432988 -0.012431
v -0.083379 0.431948 -0.011374
v -0.083433 0.432836 -0.011938
v -0.083387 0.432475 -0.011559
v -0.084774 0.428985 -0.010645
v -0.084609 0.428865 -0.010731
v -0.084499 0.428789 -0.010469
v -0.084502 0.429001 -0.010938
v -0.084603 0.428968 -0.010400
v -0.084441 0.429028 -0.010561
v -0.084503 0.429017 -0.010770
v -0.084300 0.428719 -0.010642
v -0.084466 0.428791 -0.010874
v -0.084167 0.428671 -0.010090
v -0.084215 0.428931 -0.010040
v -0.084524 0.428958 -0.011097
v -0.083949 0.429141 -0.011164
v -0.084404 0.428844 -0.011304
v -0.083997 0.429051 -0.011431
v -0.083953 0.429163 -0.010904
v -0.084255 0.428749 -0.011058
v -0.084071 0.428714 -0.010833
v -0.084105 0.429030 -0.010262
v -0.083807 0.429129 -0.010398
v -0.084002 0.429144 -0.010683
v -0.083824 0.428731 -0.011363
v -0.083982 0.428850 -0.011579
v -0.083965 0.428646 -0.010290
v -0.083752 0.428656 -0.010512
v -0.083664 0.428694 -0.011082
v -0.083339 0.428440 -0.009470
v -0.083003 0.429007 -0.009764
v -0.083213 0.428760 -0.009497
v -0.082956 0.429170 -0.011656
v -0.082856 0.429381 -0.010845
v -0.082824 0.429332 -0.010443
v -0.082954 0.428683 -0.011685
v -0.082988 0.428901 -0.011892
v -0.083077 0.428442 -0.010077
v -0.083223 0.428405 -0.009766
v -0.082907 0.429334 -0.011298
v -0.082860 0.429198 -0.010080
v -0.083450 0.428645 -0.010764
v -0.082046 0.431046 -0.013655
v -0.082069 0.431548 -0.013791
v -0.082851 0.428585 -0.010979
v -0.082903 0.428629 -0.011307
v -0.081999 0.430649 -0.013362
v -0.082067 0.432072 -0.013788
v -0.082033 0.432549 -0.013585
v -0.081940 0.430487 -0.012913
v -0.081886 0.430584 -0.012429
v -0.081880 0.432910 -0.012669
v -0.081964 0.432854 -0.013175
v -0.081807 0.432739 -0.012205
v -0.081836 0.430892 -0.012019
v -0.082909 0.428487 -0.010371
v -0.082530 0.428475 -0.010593
v -0.081759 0.432372 -0.011851
v -0.081791 0.431345 -0.011761
v -0.081758 0.431868 -0.011691
v -0.082191 0.428063 -0.008757
v -0.081806 0.428058 -0.009366
v -0.082073 0.427968 -0.008989
v -0.082002 0.428385 -0.008893
v -0.081502 0.429061 -0.009538
v -0.081752 0.428726 -0.009166
v -0.081563 0.429002 -0.012087
v -0.081451 0.428583 -0.011350
v -0.081521 0.428629 -0.011854
v -0.081545 0.429411 -0.011779
v -0.081571 0.428217 -0.009736
v -0.081491 0.429573 -0.011251
v -0.081414 0.428525 -0.010821
v -0.081415 0.429559 -0.010655
v -0.081380 0.429379 -0.010059
v -0.081429 0.428406 -0.010257
v -0.080529 0.427630 -0.007546
v -0.080395 0.427539 -0.007980
v -0.080429 0.432082 -0.013981
v -0.080412 0.431118 -0.013830
v -0.080434 0.431594 -0.013961
v -0.080369 0.430731 -0.013548
v -0.080336 0.432794 -0.013393
v -0.080395 0.432536 -0.013796
v -0.080364 0.427966 -0.007894
v -0.080325 0.430552 -0.013108
v -0.080266 0.432804 -0.012906
v -0.080283 0.430619 -0.012628
v -0.080243 0.430896 -0.012238
v -0.080205 0.431318 -0.012000
v -0.080041 0.428146 -0.009150
v -0.080208 0.427842 -0.008518
v -0.080210 0.432621 -0.012460
v -0.080186 0.431803 -0.011953
v -0.080001 0.428829 -0.009018
v -0.080179 0.428394 -0.008416
v -0.080186 0.432270 -0.012116
v -0.079947 0.428311 -0.009887
v -0.080060 0.429546 -0.011841
v -0.080030 0.428652 -0.011928
v -0.080072 0.429093 -0.012175
v -0.080001 0.429683 -0.011205
v -0.079903 0.429256 -0.009710
v -0.079918 0.429577 -0.010469
v -0.079928 0.428470 -0.010596
v -0.079972 0.428552 -0.011305
v -0.078278 0.427632 -0.007365
v -0.078799 0.431597 -0.014082
v -0.078748 0.432469 -0.013938
v -0.078786 0.432055 -0.014107
v -0.078790 0.431161 -0.013956
v -0.078282 0.427897 -0.008349
v -0.078286 0.427638 -0.007765
v -0.078692 0.432673 -0.013544
v -0.078294 0.428466 -0.008265
v -0.078296 0.428049 -0.007729
v -0.078762 0.430791 -0.013681
v -0.078728 0.430601 -0.013263
v -0.078687 0.430645 -0.012810
v -0.078604 0.432485 -0.012657
v -0.078643 0.432660 -0.013087
v -0.078647 0.430884 -0.012431
v -0.078299 0.428021 -0.009080
v -0.078615 0.431269 -0.012202
v -0.078585 0.432157 -0.012316
v -0.078324 0.428841 -0.008940
v -0.078593 0.431726 -0.012162
v -0.078518 0.429226 -0.012407
v -0.078466 0.428792 -0.012040
v -0.078513 0.429656 -0.011951
v -0.078425 0.428678 -0.011362
v -0.078473 0.429711 -0.011243
v -0.078372 0.428451 -0.010629
v -0.078322 0.428168 -0.009874
v -0.078422 0.429550 -0.010486
v -0.078365 0.429214 -0.009695
v -0.077177 0.431155 -0.014074
v -0.077163 0.430817 -0.013802
v -0.077157 0.431984 -0.014233
v -0.077174 0.431553 -0.014205
v -0.077114 0.432323 -0.014054
v -0.077132 0.430631 -0.013422
v -0.077089 0.430645 -0.013002
v -0.077044 0.430847 -0.012629
v -0.077019 0.432454 -0.013244
v -0.077060 0.432484 -0.013670
v -0.077007 0.431185 -0.012405
v -0.076993 0.432290 -0.012845
v -0.076986 0.431607 -0.012372
v -0.076982 0.432002 -0.012517
v -0.076902 0.429831 -0.012049
v -0.076900 0.429401 -0.012548
v -0.076855 0.429819 -0.011339
v -0.076840 0.428872 -0.012217
v -0.076806 0.429619 -0.010637
v -0.076734 0.428459 -0.010846
v -0.076781 0.428667 -0.011558
v -0.076739 0.429333 -0.009932
v -0.076661 0.428276 -0.010130
v -0.076507 0.428729 -0.008584
v -0.076639 0.429037 -0.009235
v -0.076318 0.427895 -0.008123
v -0.076442 0.428032 -0.008738
v -0.076367 0.428353 -0.008043
v -0.076248 0.427930 -0.007681
v -0.076561 0.428126 -0.009407
v -0.075555 0.431123 -0.014187
v -0.075541 0.431892 -0.014376
v -0.075557 0.431491 -0.014341
v -0.075537 0.430825 -0.013916
v -0.075508 0.430654 -0.013569
v -0.075457 0.432277 -0.013796
v -0.075503 0.432179 -0.014184
v -0.075470 0.430638 -0.013190
v -0.075421 0.432227 -0.013404
v -0.075429 0.430788 -0.012832
v -0.075394 0.431074 -0.012596
v -0.075374 0.431468 -0.012564
v -0.075375 0.431823 -0.012733
v -0.075393 0.432070 -0.013034
v -0.075288 0.429630 -0.012582
v -0.075214 0.429089 -0.012334
v -0.075302 0.429983 -0.012101
v -0.075258 0.429976 -0.011443
v -0.075095 0.429586 -0.010142
v -0.075189 0.429816 -0.010786
v -0.075143 0.428756 -0.011752
v -0.075020 0.428638 -0.010355
v -0.075093 0.428688 -0.011049
v -0.074975 0.429341 -0.009505
v -0.074901 0.428446 -0.009728
v -0.074669 0.428687 -0.008373
v -0.074829 0.429064 -0.008897
v -0.074621 0.428213 -0.008497
v -0.074775 0.428360 -0.009094
v -0.074524 0.428253 -0.008053
v -0.073953 0.431439 -0.014484
v -0.073902 0.430840 -0.014055
v -0.073938 0.431095 -0.014312
v -0.073851 0.430685 -0.013700
v -0.073947 0.431809 -0.014513
v -0.073797 0.430673 -0.013347
v -0.073874 0.432112 -0.013927
v -0.073916 0.432067 -0.014311
v -0.073719 0.430780 -0.013021
v -0.073700 0.430967 -0.012823
v -0.073799 0.431903 -0.013191
v -0.073833 0.432054 -0.013547
v -0.073733 0.431317 -0.012758
v -0.073773 0.431649 -0.012911
v -0.073612 0.430087 -0.012274
v -0.073600 0.430102 -0.011653
v -0.073645 0.429903 -0.012695
v -0.073588 0.429119 -0.011940
v -0.073642 0.429433 -0.012487
v -0.073575 0.429992 -0.011020
v -0.073527 0.429003 -0.011288
v -0.073374 0.429630 -0.009793
v -0.073491 0.429830 -0.010398
v -0.073307 0.428749 -0.010033
v -0.073439 0.428947 -0.010631
v -0.073230 0.429370 -0.009209
v -0.073018 0.428477 -0.008855
v -0.073172 0.428628 -0.009430
v -0.072924 0.428538 -0.008424
v -0.073065 0.428993 -0.008707
v -0.072376 0.431069 -0.014412
v -0.072334 0.430830 -0.014084
v -0.072418 0.431774 -0.014655
v -0.072408 0.431405 -0.014615
v -0.072373 0.432058 -0.014032
v -0.072403 0.432028 -0.014420
v -0.072313 0.430695 -0.013696
v -0.072298 0.431779 -0.013262
v -0.072338 0.431980 -0.013641
v -0.072504 0.430699 -0.013355
v -0.072126 0.431129 -0.012861
v -0.072238 0.431467 -0.012973
v -0.072064 0.430828 -0.012949
v -0.071994 0.430143 -0.012876
v -0.072034 0.429766 -0.012765
v -0.072000 0.430168 -0.011383
v -0.071925 0.430292 -0.012148
v -0.072053 0.429203 -0.011602
v -0.072100 0.429407 -0.012250
v -0.071951 0.429999 -0.010733
v -0.071800 0.428935 -0.010339
v -0.071948 0.429072 -0.010958
v -0.071663 0.429534 -0.009586
v -0.071830 0.429796 -0.010133
v -0.071454 0.428720 -0.009202
v -0.071632 0.428857 -0.009758
v -0.071487 0.429199 -0.009116
v -0.071357 0.428792 -0.008841
v -0.071062 0.430413 -0.013552
v -0.070972 0.431414 -0.014668
v -0.070993 0.431058 -0.014425
v -0.070950 0.432054 -0.014515
v -0.070962 0.431806 -0.014761
v -0.070947 0.432089 -0.014100
v -0.071012 0.430740 -0.014066
v -0.070992 0.431751 -0.013216
v -0.070967 0.431988 -0.013663
v -0.071014 0.431330 -0.012758
v -0.071537 0.430845 -0.012739
v -0.070676 0.429359 -0.011903
v -0.070953 0.429966 -0.013115
v -0.070821 0.429575 -0.012567
v -0.070596 0.430217 -0.011008
v -0.070917 0.430797 -0.012263
v -0.070786 0.430479 -0.011645
v -0.070320 0.429127 -0.010647
v -0.070510 0.429242 -0.011245
v -0.070385 0.429938 -0.010421
v -0.069995 0.429321 -0.009534
v -0.070175 0.429654 -0.009926
v -0.069949 0.428889 -0.009583
v -0.070127 0.429017 -0.010103
v -0.069871 0.428968 -0.009288
v -0.069396 0.430235 -0.013895
v -0.069415 0.430606 -0.014289
v -0.069348 0.431619 -0.012782
v -0.069337 0.431236 -0.012297
v -0.069420 0.431330 -0.014864
v -0.069421 0.430966 -0.014608
v -0.069368 0.432120 -0.013736
v -0.069365 0.431923 -0.013278
v -0.069268 0.429551 -0.012873
v -0.069356 0.429871 -0.013438
v -0.069403 0.431761 -0.014871
v -0.069367 0.432175 -0.014198
v -0.069381 0.432045 -0.014606
v -0.069116 0.429365 -0.012196
v -0.069218 0.430847 -0.011774
v -0.068815 0.430112 -0.010670
v -0.069025 0.430465 -0.011205
v -0.068744 0.429117 -0.011010
v -0.068926 0.429236 -0.011573
v -0.068620 0.429772 -0.010197
v -0.068435 0.428891 -0.010007
v -0.068578 0.429004 -0.010482
v -0.068363 0.429005 -0.009680
v -0.068463 0.429407 -0.009849
v -0.067745 0.430505 -0.014599
v -0.067767 0.430899 -0.014909
v -0.067761 0.431722 -0.015057
v -0.067776 0.431306 -0.015095
v -0.067664 0.429742 -0.013735
v -0.067712 0.430117 -0.014204
v -0.067733 0.432044 -0.014817
v -0.067594 0.429416 -0.013176
v -0.067635 0.432078 -0.013473
v -0.067602 0.431834 -0.012968
v -0.067666 0.432189 -0.013966
v -0.067698 0.432183 -0.014415
v -0.067478 0.431057 -0.011916
v -0.067560 0.431465 -0.012445
v -0.067298 0.429063 -0.011908
v -0.067459 0.429208 -0.012524
v -0.067341 0.430652 -0.011390
v -0.067143 0.428946 -0.011328
v -0.067020 0.429884 -0.010421
v -0.067178 0.430261 -0.010876
v -0.066889 0.428816 -0.010353
v -0.067006 0.428844 -0.010819
v -0.066892 0.429493 -0.010098
v -0.066830 0.429069 -0.010020
v -0.066151 0.430853 -0.015212
v -0.066159 0.431273 -0.015352
v -0.066099 0.432019 -0.015050
v -0.066139 0.431680 -0.015294
v -0.066066 0.430061 -0.014559
v -0.066118 0.430458 -0.014935
v -0.065988 0.429674 -0.014066
v -0.066049 0.432164 -0.014668
v -0.065953 0.432172 -0.013722
v -0.066002 0.432220 -0.014224
v -0.065902 0.431989 -0.013185
v -0.065741 0.429129 -0.012833
v -0.065886 0.429354 -0.013475
v -0.065876 0.431644 -0.012599
v -0.065661 0.430811 -0.011525
v -0.065792 0.431223 -0.012039
v -0.065593 0.428960 -0.012216
v -0.065521 0.430408 -0.011038
v -0.065348 0.428806 -0.011106
v -0.065460 0.428824 -0.011634
v -0.065272 0.429600 -0.010329
v -0.065385 0.430017 -0.010615
v -0.065219 0.429183 -0.010302
v -0.065260 0.428917 -0.010637
v -0.064549 0.431290 -0.015646
v -0.064489 0.430490 -0.015309
v -0.064539 0.430870 -0.015564
v -0.064530 0.431684 -0.015578
v -0.064430 0.430111 -0.014951
v -0.064404 0.432181 -0.014962
v -0.064473 0.432008 -0.015335
v -0.064334 0.432281 -0.014506
v -0.064185 0.429436 -0.013868
v -0.064338 0.429756 -0.014483
v -0.064257 0.432284 -0.013983
v -0.064191 0.431833 -0.012728
v -0.064206 0.432150 -0.013391
v -0.064007 0.429189 -0.013186
v -0.064128 0.431421 -0.012144
v -0.063871 0.430578 -0.011158
v -0.064005 0.431000 -0.011628
v -0.063751 0.428921 -0.011926
v -0.063865 0.429017 -0.012544
v -0.063748 0.430175 -0.010795
v -0.063597 0.429114 -0.010890
v -0.063656 0.428950 -0.011356
v -0.063579 0.429370 -0.010571
v -0.063644 0.429766 -0.010579
v -0.062861 0.430971 -0.016003
v -0.062821 0.430587 -0.015766
v -0.062851 0.431777 -0.016000
v -0.062877 0.431370 -0.016095
v -0.062785 0.432048 -0.015703
v -0.062654 0.429919 -0.014970
v -0.062753 0.430253 -0.015432
v -0.062620 0.432360 -0.014839
v -0.062698 0.432242 -0.015320
v -0.062520 0.429597 -0.014338
v -0.062546 0.432401 -0.014255
v -0.062520 0.432310 -0.013569
v -0.062500 0.431628 -0.012211
v -0.062547 0.432009 -0.012809
v -0.062186 0.429134 -0.012858
v -0.062324 0.429310 -0.013556
v -0.062382 0.431203 -0.011694
v -0.062139 0.430364 -0.010934
v -0.062256 0.430771 -0.011256
v -0.062014 0.429123 -0.011608
v -0.062088 0.429064 -0.012198
v -0.061976 0.429294 -0.011142
v -0.062043 0.429955 -0.010777
v -0.061975 0.429556 -0.010824
v -0.060868 0.431020 -0.016516
v -0.060872 0.431417 -0.016575
v -0.060856 0.432063 -0.016078
v -0.060864 0.431814 -0.016416
v -0.060860 0.430314 -0.015904
v -0.060860 0.430635 -0.016264
v -0.060860 0.429998 -0.015351
v -0.060857 0.432261 -0.015651
v -0.060857 0.432476 -0.014419
v -0.060851 0.432411 -0.015092
v -0.060893 0.432416 -0.013627
v -0.060940 0.432170 -0.012831
v -0.060742 0.429426 -0.013895
v -0.060846 0.429702 -0.014689
v -0.060916 0.431813 -0.012238
v -0.060814 0.431387 -0.011739
v -0.060694 0.430962 -0.011344
v -0.060528 0.429234 -0.012406
v -0.060609 0.429263 -0.013111
v -0.060501 0.430156 -0.010988
v -0.060590 0.430568 -0.011087
v -0.060470 0.429321 -0.011835
v -0.060444 0.429769 -0.011070
v -0.060442 0.429503 -0.011397
v -0.059377 0.431948 -0.012232
v -0.059412 0.432284 -0.012804
v -0.059292 0.431544 -0.011791
v -0.059377 0.432487 -0.013541
v -0.059117 0.429670 -0.014609
v -0.058811 0.430291 -0.015762
v -0.058964 0.429944 -0.015260
v -0.058707 0.430694 -0.016092
v -0.058638 0.431550 -0.016322
v -0.058639 0.431086 -0.016255
v -0.058704 0.431934 -0.016179
v -0.058948 0.432327 -0.015444
v -0.058809 0.432143 -0.015865
v -0.059115 0.432456 -0.014888
v -0.059268 0.432521 -0.014251
v -0.059188 0.431143 -0.011456
v -0.059149 0.429398 -0.013179
v -0.059178 0.429471 -0.013913
v -0.059078 0.429427 -0.012519
v -0.059093 0.430771 -0.011249
v -0.058964 0.429999 -0.011270
v -0.059014 0.430374 -0.011177
v -0.058970 0.429732 -0.011585
v -0.059007 0.429547 -0.011990
v -0.057883 0.432329 -0.012698
v -0.057814 0.432488 -0.013226
v -0.057856 0.432040 -0.012224
v -0.057784 0.431671 -0.011861
v -0.057470 0.432503 -0.014220
v -0.057666 0.432537 -0.013743
v -0.057623 0.429609 -0.013029
v -0.057580 0.429621 -0.013556
v -0.057610 0.430980 -0.011451
v -0.057697 0.431321 -0.011611
v -0.057450 0.429729 -0.014034
v -0.057556 0.429818 -0.012072
v -0.057606 0.429674 -0.012520
v -0.057513 0.430015 -0.011723
v -0.057540 0.430626 -0.011392
v -0.057256 0.429986 -0.014476
v -0.057498 0.430274 -0.011461
v -0.057066 0.432238 -0.014868
v -0.057260 0.432414 -0.014585
v -0.056970 0.430774 -0.014946
v -0.057083 0.430357 -0.014780
v -0.056929 0.431972 -0.015063
v -0.056929 0.431178 -0.015038
v -0.056908 0.431605 -0.015092
v -0.056302 0.431992 -0.012152
v -0.056287 0.432243 -0.012486
v -0.056278 0.431714 -0.011925
v -0.056090 0.432440 -0.013156
v -0.056211 0.432390 -0.012852
v -0.056235 0.431440 -0.011766
v -0.056105 0.429984 -0.012356
v -0.055999 0.429927 -0.012963
v -0.056072 0.429923 -0.012667
v -0.056146 0.430866 -0.011634
v -0.056188 0.431153 -0.011666
v -0.055892 0.430015 -0.013284
v -0.056109 0.430119 -0.012071
v -0.056117 0.430587 -0.011691
v -0.056106 0.430332 -0.011841
v -0.055773 0.432309 -0.013681
v -0.055926 0.432409 -0.013449
v -0.055780 0.430206 -0.013573
v -0.055681 0.430493 -0.013820
v -0.055646 0.432106 -0.013880
v -0.055614 0.430817 -0.013994
v -0.055574 0.431174 -0.014085
v -0.055566 0.431508 -0.014082
v -0.055587 0.431829 -0.014009
v -0.055072 0.431856 -0.012117
v -0.055324 0.432071 -0.012296
v -0.055072 0.431452 -0.011886
v -0.055070 0.431654 -0.011980
v -0.054969 0.432093 -0.012438
v -0.055057 0.431250 -0.011821
v -0.055005 0.430859 -0.011810
v -0.055032 0.431048 -0.011790
v -0.054936 0.430516 -0.012009
v -0.054825 0.430367 -0.012353
v -0.054884 0.430409 -0.012187
v -0.054973 0.430680 -0.011884
v -0.054790 0.432074 -0.012844
v -0.054870 0.432107 -0.012648
v -0.054991 0.430303 -0.012838
v -0.054777 0.430372 -0.012527
v -0.054738 0.430514 -0.012909
v -0.054718 0.431963 -0.013025
v -0.054640 0.430919 -0.013228
v -0.054688 0.430704 -0.013089
v -0.054621 0.431600 -0.013272
v -0.054658 0.431794 -0.013172
v -0.054613 0.431150 -0.013304
v -0.054601 0.431381 -0.013322
v -0.054690 0.431849 -0.012224
v -0.054613 0.431634 -0.012103
v -0.054519 0.431300 -0.011977
v -0.054568 0.431459 -0.012019
v -0.054468 0.431149 -0.011970
v -0.054456 0.430898 -0.012056
v -0.054445 0.431023 -0.012004
v -0.054458 0.430600 -0.012572
v -0.054520 0.430737 -0.012073
v -0.054498 0.431816 -0.012378
v -0.054430 0.430714 -0.012214
v -0.054426 0.430653 -0.012370
v -0.054353 0.431723 -0.012706
v -0.054375 0.431749 -0.012524
v -0.054256 0.430960 -0.012745
v -0.054345 0.430789 -0.012683
v -0.054378 0.431607 -0.012256
v -0.054238 0.431429 -0.012715
v -0.054270 0.431547 -0.012673
v -0.054221 0.431129 -0.012765
v -0.054218 0.431291 -0.012754
v -0.054317 0.431440 -0.012197
v -0.054323 0.430910 -0.012243
v -0.054272 0.431163 -0.012200
v -0.054283 0.431297 -0.012188
v -0.054282 0.431037 -0.012221
v -0.054288 0.430856 -0.012429
v -0.054254 0.431547 -0.012428
v -0.054219 0.431402 -0.012421
v -0.054240 0.431007 -0.012447
v -0.054200 0.431279 -0.012438
v -0.054203 0.431146 -0.012449
usemtl Transverse_ligament_of_knee_rMaterial0
f 1 2 3
f 1 4 2
f 5 3 2
f 5 2 6
f 4 6 2
f 1 3 7
f 8 1 7
f 1 9 4
f 8 9 1
f 10 7 3
f 11 3 5
f 11 10 3
f 8 7 12
f 13 12 7
f 10 14 7
f 13 7 14
f 15 5 6
f 15 11 5
f 4 9 16
f 8 17 9
f 18 9 17
f 18 16 9
f 4 19 6
f 15 6 19
f 4 20 19
f 4 16 21
f 4 21 20
f 22 8 12
f 13 23 12
f 22 12 23
f 22 17 8
f 18 17 24
f 22 24 17
f 15 19 25
f 26 19 20
f 26 25 19
f 10 27 14
f 13 14 27
f 11 28 10
f 10 28 27
f 29 11 15
f 11 30 28
f 29 30 11
f 18 31 16
f 21 16 31
f 13 32 23
f 13 27 32
f 18 24 33
f 18 33 31
f 21 34 20
f 21 31 35
f 21 35 34
f 29 15 25
f 26 20 34
f 26 36 25
f 29 25 36
f 26 37 36
f 26 34 37
f 38 23 32
f 39 22 23
f 39 23 38
f 40 32 27
f 38 32 40
f 41 24 22
f 41 22 39
f 28 42 27
f 40 27 42
f 43 28 30
f 28 44 42
f 43 44 28
f 45 33 24
f 45 24 41
f 43 30 29
f 46 31 33
f 46 33 45
f 47 29 36
f 43 29 47
f 48 35 31
f 48 31 46
f 49 36 37
f 47 36 49
f 50 34 35
f 50 35 48
f 51 37 34
f 51 34 50
f 49 37 51
f 39 38 52
f 38 40 53
f 38 53 52
f 41 39 54
f 39 52 54
f 40 42 55
f 40 55 53
f 45 41 56
f 41 54 56
f 57 42 44
f 57 55 42
f 57 44 43
f 46 45 58
f 45 56 58
f 43 47 59
f 57 43 60
f 43 59 60
f 48 46 61
f 46 58 61
f 47 49 62
f 47 62 59
f 49 51 63
f 49 63 62
f 51 50 64
f 51 64 63
f 50 48 65
f 48 61 65
f 50 65 64
f 66 54 52
f 67 52 53
f 66 52 67
f 68 56 54
f 68 54 66
f 69 53 55
f 67 53 69
f 70 58 56
f 70 56 68
f 71 55 57
f 69 55 71
f 57 60 72
f 71 57 73
f 57 72 73
f 74 61 58
f 74 58 70
f 75 60 59
f 75 72 60
f 75 59 62
f 76 62 63
f 75 62 76
f 77 65 61
f 77 61 74
f 78 63 64
f 76 63 78
f 79 64 65
f 78 64 79
f 79 65 77
f 80 81 82
f 80 83 81
f 80 82 84
f 80 84 85
f 80 86 83
f 80 85 86
f 87 82 81
f 88 81 83
f 87 81 88
f 89 84 82
f 90 85 84
f 89 90 84
f 88 83 91
f 92 91 83
f 93 88 91
f 93 91 94
f 92 94 91
f 89 82 87
f 95 83 86
f 95 92 83
f 95 86 85
f 93 96 88
f 97 87 88
f 97 88 96
f 90 98 85
f 99 85 98
f 95 85 100
f 99 100 85
f 93 101 96
f 93 94 102
f 93 102 101
f 89 87 103
f 104 87 97
f 104 103 87
f 105 97 96
f 105 96 101
f 106 90 89
f 90 107 98
f 106 108 90
f 90 108 107
f 106 89 103
f 107 99 98
f 104 97 105
f 109 102 94
f 92 109 94
f 110 95 100
f 99 111 100
f 110 100 111
f 112 101 102
f 112 102 113
f 109 113 102
f 114 103 104
f 106 103 115
f 114 115 103
f 110 92 95
f 92 116 109
f 110 116 92
f 105 101 112
f 107 117 99
f 99 117 111
f 104 105 118
f 114 104 118
f 67 69 119
f 69 71 120
f 69 120 119
f 105 121 118
f 105 112 122
f 105 122 121
f 66 67 123
f 67 119 123
f 71 73 124
f 71 124 120
f 125 73 72
f 125 124 73
f 68 66 126
f 66 123 126
f 125 72 75
f 70 68 127
f 68 126 127
f 75 76 128
f 125 75 129
f 75 128 129
f 76 78 130
f 76 130 128
f 74 70 131
f 70 127 131
f 114 118 132
f 133 132 118
f 133 118 121
f 78 79 134
f 78 134 130
f 77 74 135
f 74 131 135
f 79 77 136
f 77 135 136
f 79 136 134
f 137 106 115
f 137 108 106
f 138 115 114
f 137 115 139
f 138 139 115
f 107 108 140
f 137 140 108
f 138 114 132
f 107 141 117
f 107 140 142
f 107 142 141
f 112 113 143
f 143 113 109
f 112 144 122
f 112 143 145
f 112 145 144
f 146 109 116
f 143 109 146
f 133 147 132
f 138 132 147
f 144 121 122
f 148 116 110
f 146 116 148
f 133 121 149
f 144 149 121
f 141 111 117
f 150 110 111
f 148 110 150
f 141 151 111
f 150 111 151
f 133 152 147
f 133 149 152
f 153 137 139
f 153 140 137
f 138 154 139
f 153 139 154
f 155 120 124
f 156 119 120
f 155 157 120
f 156 120 157
f 155 124 125
f 158 123 119
f 158 119 156
f 125 129 159
f 155 125 160
f 125 159 160
f 142 140 161
f 153 161 140
f 162 126 123
f 162 123 158
f 163 129 128
f 163 159 129
f 164 127 126
f 164 126 162
f 165 131 127
f 165 127 164
f 163 128 130
f 166 135 131
f 166 131 165
f 167 138 147
f 138 168 154
f 167 168 138
f 169 130 134
f 163 130 169
f 170 136 135
f 170 135 166
f 142 171 141
f 142 161 172
f 142 172 171
f 173 134 136
f 173 136 170
f 169 134 173
f 174 147 152
f 174 167 147
f 143 146 175
f 143 176 145
f 143 175 177
f 143 177 176
f 146 148 178
f 146 178 175
f 144 145 176
f 179 151 141
f 179 141 171
f 148 150 180
f 148 180 178
f 144 181 149
f 144 176 182
f 144 182 181
f 174 152 149
f 174 149 181
f 150 151 179
f 150 179 180
f 183 153 154
f 183 161 153
f 184 157 155
f 156 157 184
f 155 160 185
f 184 155 186
f 155 185 186
f 158 156 187
f 156 184 187
f 154 168 188
f 183 154 189
f 154 188 189
f 190 160 159
f 190 185 160
f 161 191 172
f 183 192 161
f 161 192 191
f 162 158 193
f 158 187 193
f 190 159 163
f 164 162 194
f 162 193 194
f 165 164 195
f 164 194 195
f 163 169 196
f 190 163 197
f 163 196 197
f 166 165 198
f 165 195 198
f 199 168 167
f 199 188 168
f 170 166 200
f 166 198 200
f 169 173 201
f 169 201 196
f 202 171 172
f 202 172 191
f 173 170 203
f 170 200 203
f 173 203 201
f 204 177 175
f 205 176 177
f 205 177 204
f 206 175 178
f 204 175 206
f 199 167 174
f 207 182 176
f 207 176 205
f 179 171 202
f 208 178 180
f 206 178 208
f 207 181 182
f 174 181 209
f 174 209 210
f 199 174 210
f 207 209 181
f 179 211 180
f 208 180 211
f 179 212 211
f 179 202 212
f 184 213 187
f 214 193 187
f 214 187 213
f 184 186 215
f 184 216 213
f 184 215 216
f 217 186 185
f 217 215 186
f 218 194 193
f 218 193 214
f 217 185 190
f 219 195 194
f 219 194 218
f 220 198 195
f 220 195 219
f 190 197 221
f 217 190 222
f 190 221 222
f 223 200 198
f 223 198 220
f 224 197 196
f 224 221 197
f 225 203 200
f 225 200 223
f 224 196 201
f 226 201 203
f 226 203 225
f 224 201 226
f 204 206 227
f 205 204 228
f 204 227 228
f 206 208 229
f 206 229 227
f 207 205 230
f 205 228 230
f 208 211 231
f 208 231 229
f 232 209 207
f 207 230 233
f 232 207 233
f 231 211 212
f 232 210 209
f 202 234 212
f 231 212 234
f 199 210 235
f 232 235 210
f 202 191 236
f 202 237 234
f 202 236 237
f 183 189 238
f 239 189 188
f 239 238 189
f 240 192 183
f 240 183 241
f 183 238 241
f 239 188 199
f 199 235 242
f 239 199 242
f 236 191 192
f 236 192 240
f 243 213 216
f 214 213 243
f 244 216 215
f 243 216 245
f 244 245 216
f 218 214 246
f 214 243 246
f 244 215 217
f 219 218 247
f 218 246 247
f 217 222 248
f 244 217 249
f 217 248 249
f 220 219 250
f 219 247 250
f 251 222 221
f 251 248 222
f 223 220 252
f 220 250 252
f 251 221 224
f 225 223 253
f 223 252 253
f 226 225 254
f 225 253 254
f 224 226 255
f 226 254 255
f 251 224 256
f 224 255 256
f 257 228 227
f 258 230 228
f 258 228 257
f 259 227 229
f 257 227 259
f 231 260 229
f 259 229 260
f 258 233 230
f 231 234 261
f 231 262 260
f 231 261 262
f 232 233 263
f 258 263 233
f 264 235 232
f 232 263 265
f 264 232 265
f 261 234 237
f 264 242 235
f 236 266 237
f 261 237 266
f 239 242 267
f 264 267 242
f 236 240 268
f 236 269 266
f 236 268 269
f 270 238 239
f 239 267 271
f 270 239 271
f 268 240 241
f 270 241 238
f 268 241 272
f 270 272 241
f 243 245 273
f 243 274 246
f 243 273 275
f 243 275 274
f 273 245 244
f 276 247 246
f 276 246 274
f 277 244 249
f 273 244 277
f 278 250 247
f 278 247 276
f 279 249 248
f 277 249 280
f 279 280 249
f 281 252 250
f 281 250 278
f 279 248 251
f 282 253 252
f 282 252 281
f 251 256 283
f 279 251 284
f 251 283 284
f 285 254 253
f 285 253 282
f 286 256 255
f 286 283 256
f 286 255 254
f 286 254 285
f 257 259 287
f 259 260 288
f 259 288 287
f 258 257 289
f 257 287 289
f 288 260 262
f 290 263 258
f 258 289 291
f 290 258 291
f 261 292 262
f 288 262 292
f 290 265 263
f 264 265 293
f 290 293 265
f 261 266 294
f 261 295 292
f 261 294 295
f 296 267 264
f 264 293 297
f 296 264 297
f 294 266 269
f 296 271 267
f 268 298 269
f 294 269 298
f 299 270 271
f 296 300 271
f 299 271 300
f 268 272 301
f 268 302 298
f 268 301 302
f 299 272 270
f 299 301 272
f 273 303 275
f 304 274 275
f 304 275 303
f 273 277 305
f 273 305 306
f 273 306 303
f 305 277 280
f 307 280 279
f 305 280 308
f 307 308 280
f 276 274 304
f 307 279 284
f 278 276 309
f 276 304 309
f 310 284 283
f 307 284 311
f 310 311 284
f 281 278 312
f 278 309 312
f 310 283 286
f 286 285 313
f 310 286 314
f 286 313 314
f 285 282 315
f 285 315 313
f 282 281 316
f 281 312 316
f 282 316 315
f 316 291 289
f 290 291 317
f 316 317 291
f 316 289 287
f 288 315 287
f 316 287 315
f 288 292 318
f 288 319 315
f 288 318 319
f 320 293 290
f 320 290 321
f 290 317 321
f 318 292 295
f 320 297 293
f 294 322 295
f 318 295 322
f 323 296 297
f 320 324 297
f 323 297 324
f 294 298 325
f 294 326 322
f 294 325 326
f 323 300 296
f 325 298 302
f 327 299 300
f 323 328 300
f 327 300 328
f 301 329 302
f 325 302 329
f 327 301 299
f 301 330 329
f 327 330 301
f 312 309 331
f 312 331 316
f 305 332 306
f 333 303 306
f 333 306 332
f 305 308 334
f 305 335 332
f 305 334 335
f 336 308 307
f 336 334 308
f 304 303 333
f 336 307 311
f 304 331 309
f 304 337 331
f 304 333 337
f 338 311 310
f 338 339 311
f 336 311 339
f 338 310 314
f 340 314 313
f 338 314 340
f 341 313 315
f 340 313 341
f 342 320 321
f 343 321 317
f 343 344 321
f 342 321 344
f 341 315 319
f 342 324 320
f 331 317 316
f 331 343 317
f 318 322 345
f 318 346 319
f 318 347 346
f 318 345 347
f 348 323 324
f 342 349 324
f 348 324 349
f 345 322 326
f 341 319 346
f 325 350 326
f 345 326 350
f 348 328 323
f 325 329 351
f 325 352 350
f 325 351 352
f 353 327 328
f 348 354 328
f 353 328 354
f 341 346 340
f 351 329 330
f 353 330 327
f 351 330 355
f 353 355 330
f 356 331 337
f 343 331 356
f 333 357 337
f 356 337 357
f 358 338 340
f 359 340 346
f 359 358 340
f 333 332 360
f 333 361 357
f 333 360 361
f 338 362 339
f 358 363 338
f 338 363 362
f 343 364 344
f 343 356 365
f 343 365 364
f 360 332 335
f 334 366 335
f 360 335 366
f 367 336 339
f 367 339 362
f 367 334 336
f 334 368 366
f 367 368 334
f 359 346 347
f 369 342 344
f 369 344 364
f 345 370 347
f 359 347 370
f 369 349 342
f 345 350 371
f 345 372 370
f 345 371 372
f 373 348 349
f 369 374 349
f 373 349 374
f 371 350 352
f 373 354 348
f 351 375 352
f 371 352 375
f 376 353 354
f 373 377 354
f 376 354 377
f 351 355 378
f 351 379 375
f 351 378 379
f 378 355 353
f 378 353 376
f 380 357 361
f 356 357 380
f 360 381 361
f 380 361 381
f 360 366 382
f 360 383 381
f 360 382 383
f 356 384 365
f 356 380 385
f 356 385 384
f 382 366 368
f 367 386 368
f 382 368 386
f 387 364 365
f 387 365 384
f 358 388 363
f 359 389 358
f 358 389 388
f 390 362 363
f 390 363 388
f 390 367 362
f 367 391 386
f 390 391 367
f 392 359 370
f 359 393 389
f 392 393 359
f 387 369 364
f 392 370 372
f 369 394 374
f 387 395 369
f 369 395 394
f 371 396 372
f 392 372 396
f 397 373 374
f 397 374 394
f 371 375 398
f 371 399 396
f 371 398 399
f 397 377 373
f 398 375 379
f 400 376 377
f 397 401 377
f 400 377 401
f 378 402 379
f 398 379 402
f 378 376 400
f 378 400 403
f 378 403 402
f 404 381 383
f 380 381 404
f 382 405 383
f 404 383 405
f 382 386 406
f 382 407 405
f 382 406 407
f 380 408 385
f 380 404 409
f 380 409 408
f 406 386 391
f 410 384 385
f 410 385 408
f 390 411 391
f 406 391 411
f 410 387 384
f 412 390 388
f 390 413 411
f 412 413 390
f 414 388 389
f 414 412 388
f 387 415 395
f 410 416 387
f 387 416 415
f 414 389 393
f 392 417 393
f 414 393 417
f 418 392 396
f 392 419 417
f 418 419 392
f 420 394 395
f 420 395 415
f 418 396 399
f 420 397 394
f 398 421 399
f 418 399 421
f 397 422 401
f 420 423 397
f 397 423 422
f 398 402 424
f 398 425 421
f 398 424 425
f 400 401 422
f 400 426 403
f 400 422 427
f 400 427 426
f 424 402 403
f 424 403 426
f 404 405 428
f 404 429 409
f 404 428 430
f 404 430 429
f 428 405 407
f 406 431 407
f 428 407 431
f 432 408 409
f 432 409 429
f 406 411 433
f 406 434 431
f 406 433 434
f 432 410 408
f 433 411 413
f 412 435 413
f 433 413 435
f 410 436 416
f 432 437 410
f 410 437 436
f 414 438 412
f 412 438 435
f 439 414 417
f 414 440 438
f 439 440 414
f 441 415 416
f 441 416 436
f 439 417 419
f 418 442 419
f 439 419 442
f 441 420 415
f 443 418 421
f 418 444 442
f 443 444 418
f 420 445 423
f 441 446 420
f 420 446 445
f 443 421 425
f 422 423 445
f 424 447 425
f 443 425 447
f 422 448 427
f 422 445 449
f 422 449 448
f 424 426 450
f 424 451 447
f 424 450 451
f 450 426 427
f 450 427 448
f 428 452 430
f 453 429 430
f 453 430 452
f 428 431 454
f 428 455 452
f 428 454 455
f 454 431 434
f 453 432 429
f 433 456 434
f 454 434 456
f 432 457 437
f 453 458 432
f 432 458 457
f 433 435 459
f 433 460 456
f 433 459 460
f 461 436 437
f 461 437 457
f 459 435 438
f 440 462 438
f 459 438 462
f 439 463 440
f 440 463 462
f 461 441 436
f 464 439 442
f 439 465 463
f 464 465 439
f 464 442 444
f 441 466 446
f 461 467 441
f 441 467 466
f 443 468 444
f 464 444 468
f 445 446 466
f 469 443 447
f 443 470 468
f 469 470 443
f 445 471 449
f 445 466 472
f 445 472 471
f 469 447 451
f 473 448 449
f 473 449 471
f 450 474 451
f 469 451 474
f 450 448 473
f 450 475 474
f 450 473 475
f 476 452 455
f 454 477 455
f 476 455 477
f 476 453 452
f 454 456 478
f 454 479 477
f 454 478 479
f 453 480 458
f 453 481 480
f 476 481 453
f 478 456 460
f 482 457 458
f 482 458 480
f 459 483 460
f 478 460 483
f 482 461 457
f 459 462 484
f 459 485 483
f 459 484 485
f 486 463 465
f 487 465 464
f 486 465 487
f 484 462 463
f 461 488 467
f 482 489 461
f 461 489 488
f 484 463 486
f 490 464 468
f 487 464 490
f 491 468 470
f 490 468 491
f 466 467 488
f 469 492 470
f 491 470 492
f 466 493 472
f 466 488 494
f 466 494 493
f 495 469 474
f 469 496 492
f 495 496 469
f 497 471 472
f 497 472 493
f 495 474 475
f 473 471 497
f 473 498 475
f 473 497 499
f 473 499 498
f 495 475 498
f 487 490 500
f 486 487 501
f 487 500 501
f 490 491 502
f 490 502 500
f 484 486 503
f 486 501 503
f 482 504 489
f 488 489 504
f 505 482 480
f 482 506 504
f 505 506 482
f 505 480 481
f 476 507 481
f 505 481 507
f 508 476 477
f 476 509 507
f 508 509 476
f 508 477 479
f 478 510 479
f 508 479 510
f 478 483 511
f 478 511 512
f 478 512 510
f 511 483 485
f 484 513 485
f 511 485 513
f 484 503 514
f 484 514 513
f 491 492 515
f 491 515 502
f 488 516 494
f 488 517 516
f 488 504 517
f 515 492 496
f 518 493 494
f 518 494 516
f 495 519 496
f 515 496 519
f 497 493 518
f 520 495 498
f 495 521 519
f 520 521 495
f 497 522 499
f 497 518 523
f 497 523 522
f 520 498 499
f 520 499 522
f 524 501 500
f 525 503 501
f 525 501 524
f 526 500 502
f 524 500 526
f 525 514 503
f 515 527 502
f 526 502 527
f 528 513 514
f 525 529 514
f 528 514 529
f 530 516 517
f 531 517 504
f 530 517 531
f 515 519 532
f 515 533 527
f 515 532 533
f 518 516 530
f 534 504 506
f 531 504 534
f 511 513 528
f 532 519 521
f 518 535 523
f 518 530 536
f 518 536 535
f 537 522 523
f 537 523 535
f 520 538 521
f 532 521 538
f 537 520 522
f 539 506 505
f 534 506 539
f 520 540 538
f 537 540 520
f 511 541 512
f 511 528 542
f 511 542 541
f 543 505 507
f 539 505 544
f 543 544 505
f 545 510 512
f 545 512 541
f 543 507 509
f 545 508 510
f 508 546 509
f 543 509 546
f 508 547 546
f 545 547 508
f 524 526 548
f 525 524 549
f 524 548 549
f 526 527 550
f 526 550 548
f 551 529 525
f 525 549 552
f 551 525 552
f 550 527 533
f 532 553 533
f 550 533 553
f 528 529 551
f 530 554 536
f 530 531 555
f 530 556 554
f 530 555 556
f 554 535 536
f 532 538 557
f 532 558 553
f 532 557 558
f 531 534 559
f 531 559 555
f 560 537 535
f 554 560 535
f 557 538 540
f 537 561 540
f 560 562 537
f 537 562 561
f 557 540 561
f 528 563 542
f 528 551 564
f 528 564 563
f 534 539 565
f 534 565 559
f 539 544 566
f 539 566 565
f 567 541 542
f 567 542 563
f 566 544 543
f 567 545 541
f 568 543 546
f 566 543 568
f 569 546 547
f 568 546 569
f 545 570 547
f 567 571 545
f 545 571 570
f 569 547 570
f 550 572 548
f 573 549 548
f 573 548 572
f 550 553 574
f 550 574 575
f 550 575 572
f 573 552 549
f 574 553 558
f 551 552 576
f 573 576 552
f 557 577 558
f 574 558 577
f 557 561 578
f 557 579 577
f 557 578 579
f 554 580 560
f 554 556 581
f 554 582 580
f 554 581 582
f 560 583 562
f 560 580 583
f 578 561 562
f 578 562 583
f 551 584 564
f 551 576 585
f 551 585 584
f 581 556 555
f 586 555 559
f 586 587 555
f 581 555 587
f 563 564 584
f 586 559 565
f 566 588 565
f 586 565 588
f 567 563 589
f 563 584 589
f 566 568 590
f 566 591 588
f 566 590 591
f 592 571 567
f 567 589 593
f 592 567 593
f 568 569 594
f 568 594 590
f 592 570 571
f 569 570 595
f 569 595 594
f 592 595 570
f 573 572 596
f 573 596 576
f 574 597 575
f 574 577 598
f 574 599 597
f 574 598 599
f 597 572 575
f 597 596 572
f 598 577 579
f 578 600 579
f 598 579 600
f 578 583 601
f 578 601 602
f 578 602 600
f 586 603 587
f 586 588 603
f 604 583 580
f 604 601 583
f 605 585 576
f 605 576 596
f 604 580 582
f 581 606 582
f 604 582 606
f 605 584 585
f 581 587 603
f 581 603 607
f 581 607 606
f 608 589 584
f 605 609 584
f 608 584 609
f 591 603 588
f 608 593 589
f 591 590 610
f 591 611 603
f 591 610 611
f 612 596 597
f 612 605 596
f 613 592 593
f 608 614 593
f 613 593 614
f 615 590 594
f 615 610 590
f 615 594 595
f 616 595 592
f 616 592 613
f 612 597 599
f 615 595 616
f 598 617 599
f 612 599 617
f 604 618 601
f 604 606 618
f 598 600 619
f 598 620 617
f 598 619 620
f 612 609 605
f 607 603 611
f 621 602 601
f 621 601 618
f 619 600 602
f 619 602 621
f 607 618 606
f 607 611 622
f 607 622 618
f 612 623 609
f 624 612 617
f 624 623 612
f 608 609 623
f 625 622 611
f 625 611 610
f 608 623 614
f 625 618 622
f 625 621 618
f 624 617 620
f 619 621 625
f 619 626 620
f 619 625 627
f 619 627 626
f 624 620 626
f 624 614 623
f 624 613 614
f 625 610 615
f 625 615 627
f 616 613 624
f 615 616 626
f 615 626 627
f 616 624 626
