# 
# Wavefront OBJ file
# Created with Kaydara FBX
# 
mtllib c:\users\tjvan\onedrive\documenten\fontys\minor\nx\.mtlmodels\vastus_medialis_muscle.r.obj

g Vastus_medialis_muscle_r
v -0.098761 0.777226 -0.005825
v -0.098410 0.772072 -0.003008
v -0.098853 0.777404 -0.005056
v -0.098175 0.779227 -0.006376
v -0.098414 0.777578 -0.004244
v -0.098358 0.779473 -0.005255
v -0.098378 0.779451 -0.006000
v -0.098447 0.725262 0.001263
v -0.097876 0.737171 -0.003132
v -0.098752 0.725241 -0.002351
v -0.097753 0.712907 -0.001690
v -0.098080 0.725285 -0.005742
v -0.097300 0.737126 -0.006033
v -0.098662 0.771668 -0.005149
v -0.098636 0.771827 -0.004082
v -0.098582 0.777138 -0.006540
v -0.097969 0.760520 -0.002383
v -0.098304 0.777241 -0.007245
v -0.098578 0.771578 -0.006273
v -0.098122 0.760137 -0.003812
v -0.097697 0.760961 -0.000832
v -0.098350 0.771563 -0.007271
v -0.097857 0.777344 -0.007873
v -0.097520 0.778814 -0.007251
v -0.097870 0.779007 -0.006777
v -0.097640 0.737256 -0.000200
v -0.097597 0.713065 0.002334
v -0.097434 0.725587 0.004877
v -0.097770 0.772392 -0.002080
v -0.096457 0.761964 0.001980
v -0.097209 0.761465 0.000702
v -0.097665 0.777795 -0.003978
v -0.097780 0.780247 -0.006054
v -0.098166 0.759760 -0.005436
v -0.097960 0.771658 -0.008141
v -0.097891 0.779953 -0.005298
v -0.097832 0.748406 -0.004039
v -0.097592 0.759580 -0.007127
v -0.097221 0.779844 -0.006601
v -0.097556 0.780032 -0.006337
v -0.097095 0.749018 0.000495
v -0.097582 0.748586 -0.001692
v -0.097095 0.712964 -0.005479
v -0.095452 0.725366 -0.007627
v -0.096612 0.749615 0.002488
v -0.097297 0.777521 -0.008431
v -0.096089 0.759592 -0.008078
v -0.096607 0.777423 -0.009045
v -0.097339 0.771479 -0.008915
v -0.097334 0.780432 -0.005792
v -0.096878 0.777926 -0.003943
v -0.097197 0.779895 -0.005116
v -0.097064 0.778597 -0.007666
v -0.096421 0.778363 -0.008114
v -0.097082 0.748308 -0.006428
v -0.096957 0.772674 -0.001538
v -0.095324 0.762575 0.003042
v -0.094890 0.700651 0.003192
v -0.094839 0.700669 -0.004934
v -0.095194 0.700562 -0.000928
v -0.096998 0.737478 0.002739
v -0.096557 0.713468 0.006768
v -0.093972 0.701043 0.007989
v -0.097025 0.780366 -0.006032
v -0.096908 0.779547 -0.006970
v -0.096465 0.779177 -0.007300
v -0.096189 0.737960 0.005469
v -0.095116 0.714205 0.011179
v -0.096043 0.726259 0.008430
v -0.095565 0.768726 -0.008723
v -0.094169 0.759667 -0.007752
v -0.096562 0.779955 -0.005314
v -0.095279 0.748329 -0.007728
v -0.095043 0.737045 -0.007484
v -0.096672 0.780227 -0.006248
v -0.096375 0.779972 -0.006537
v -0.096039 0.750240 0.004478
v -0.094765 0.713244 -0.007974
v -0.095781 0.778748 -0.007698
v -0.096140 0.779902 -0.005505
v -0.095902 0.772955 -0.001317
v -0.093918 0.763171 0.003628
v -0.096048 0.779642 -0.006834
v -0.096157 0.778092 -0.004071
v -0.094815 0.773196 -0.001341
v -0.095397 0.738703 0.007984
v -0.095662 0.777833 -0.008683
v -0.093771 0.772536 -0.008352
v -0.094704 0.772083 -0.008820
v -0.095256 0.750927 0.006308
v -0.095772 0.779874 -0.005742
v -0.094672 0.727310 0.011761
v -0.095499 0.778279 -0.004311
v -0.093703 0.773404 -0.001551
v -0.094920 0.778447 -0.004632
v -0.094422 0.739914 0.010693
v -0.095360 0.779081 -0.007164
v -0.095514 0.779765 -0.006094
v -0.095068 0.779421 -0.006538
v -0.092309 0.763677 0.003798
v -0.094873 0.777998 -0.008145
v -0.094353 0.778147 -0.007467
v -0.094479 0.778603 -0.005004
v -0.092538 0.760022 -0.006901
v -0.094229 0.778729 -0.005369
v -0.092612 0.773572 -0.001928
v -0.092401 0.737035 -0.006473
v -0.091881 0.713469 -0.006138
v -0.092370 0.725449 -0.006244
v -0.093771 0.751953 0.008100
v -0.093058 0.748425 -0.007147
v -0.092619 0.741446 0.013042
v -0.092554 0.688366 0.004171
v -0.093211 0.688293 -0.000297
v -0.093969 0.715438 0.015689
v -0.093390 0.701828 0.013330
v -0.093086 0.703364 0.019096
v -0.094002 0.778313 -0.006756
v -0.093241 0.777656 -0.005715
v -0.092917 0.772769 -0.007533
v -0.093432 0.700908 -0.008058
v -0.092043 0.688610 -0.007598
v -0.093202 0.688403 -0.004452
v -0.093556 0.728971 0.015237
v -0.092832 0.717285 0.019932
v -0.090921 0.773693 -0.003383
v -0.091610 0.773685 -0.002489
v -0.091545 0.773203 -0.005582
v -0.092186 0.773005 -0.006567
v -0.091531 0.689563 0.015545
v -0.091584 0.688701 0.009414
v -0.091729 0.705212 0.024035
v -0.091831 0.752926 0.009184
v -0.090061 0.742714 0.014638
v -0.090194 0.760971 -0.004905
v -0.091405 0.760454 -0.006048
v -0.090633 0.764041 0.003538
v -0.090827 0.719039 0.023569
v -0.091779 0.730759 0.018534
v -0.090908 0.701211 -0.005743
v -0.091356 0.691279 0.022178
v -0.091072 0.773385 -0.004682
v -0.090943 0.676093 0.000268
v -0.091433 0.676136 -0.003772
v -0.090986 0.748541 -0.005375
v -0.088848 0.732125 0.020787
v -0.088958 0.764273 0.002957
v -0.089180 0.676361 0.010777
v -0.089901 0.676180 0.004940
v -0.089511 0.748977 -0.003555
v -0.089601 0.725594 -0.004027
v -0.090118 0.737124 -0.004576
v -0.089620 0.753802 0.009634
v -0.087408 0.754377 0.009393
v -0.088018 0.762078 -0.002343
v -0.089066 0.761486 -0.003648
v -0.091272 0.676272 -0.007007
v -0.088885 0.676592 -0.005773
v -0.089728 0.688922 -0.005521
v -0.087913 0.701572 -0.003168
v -0.088866 0.713802 -0.003728
v -0.087262 0.743638 0.015460
v -0.090398 0.692814 0.027360
v -0.089800 0.706629 0.027934
v -0.088517 0.693929 0.031294
v -0.086605 0.763739 0.000389
v -0.087411 0.764285 0.001989
v -0.089752 0.677200 0.017802
v -0.087208 0.762776 -0.001194
v -0.090572 0.663663 -0.003249
v -0.089275 0.680238 0.030277
v -0.089954 0.678919 0.024894
v -0.090230 0.663757 -0.006766
v -0.089778 0.663654 0.000945
v -0.088418 0.663776 0.005664
v -0.086643 0.707619 0.030513
v -0.087639 0.720242 0.026042
v -0.085283 0.754614 0.008610
v -0.088962 0.651017 -0.006691
v -0.088551 0.651052 0.001438
v -0.089226 0.650978 -0.002959
v -0.087343 0.681284 0.034425
v -0.087820 0.664073 -0.006000
v -0.088381 0.749585 -0.001977
v -0.087134 0.750282 -0.000146
v -0.087054 0.725834 -0.001295
v -0.088022 0.737300 -0.001922
v -0.088468 0.666162 0.026815
v -0.087975 0.667252 0.032582
v -0.087373 0.664026 0.011838
v -0.085083 0.694761 0.033712
v -0.087142 0.651253 0.006438
v -0.088082 0.664825 0.019640
v -0.086697 0.689305 -0.002890
v -0.087250 0.638124 -0.002861
v -0.086757 0.638229 0.001626
v -0.086628 0.651387 -0.006161
v -0.087142 0.638146 -0.006517
v -0.085099 0.638515 -0.005879
v -0.084657 0.664512 -0.003072
v -0.085661 0.676998 -0.002962
v -0.085879 0.714235 -0.000745
v -0.083698 0.720838 0.026922
v -0.085329 0.733051 0.021762
v -0.087216 0.653345 0.028487
v -0.086471 0.737874 0.000384
v -0.086745 0.652402 0.021458
v -0.085895 0.750991 0.001697
v -0.086095 0.668169 0.037113
v -0.086872 0.654093 0.034270
v -0.085345 0.654754 0.038838
v -0.083513 0.689767 0.000220
v -0.084820 0.702056 -0.000151
v -0.082473 0.708221 0.031193
v -0.084414 0.744248 0.015476
v -0.081715 0.744433 0.014554
v -0.083632 0.754316 0.007212
v -0.085888 0.651619 0.013005
v -0.082303 0.668813 0.039646
v -0.083489 0.682034 0.036804
v -0.081930 0.733461 0.021459
v -0.085517 0.625666 -0.002854
v -0.086377 0.640955 0.035761
v -0.085878 0.639893 0.023390
v -0.086652 0.640531 0.030275
v -0.084682 0.751913 0.003541
v -0.085513 0.625724 -0.006659
v -0.085622 0.638515 0.006963
v -0.084613 0.639062 0.014394
v -0.084939 0.738726 0.002755
v -0.083442 0.739649 0.005103
v -0.084671 0.726487 0.001837
v -0.082888 0.714895 0.002791
v -0.084570 0.641366 0.040007
v -0.084364 0.626020 0.007460
v -0.085105 0.625778 0.001788
v -0.085958 0.627875 0.036778
v -0.086141 0.627680 0.031579
v -0.083213 0.651929 -0.003196
v -0.083628 0.753192 0.005308
v -0.085553 0.614398 0.031979
v -0.085313 0.627298 0.025029
v -0.081490 0.655277 0.041146
v -0.085106 0.614399 0.037084
v -0.082629 0.614546 0.041131
v -0.083822 0.628131 0.040965
v -0.083857 0.626581 0.015733
v -0.082223 0.677481 0.000171
v -0.084682 0.614322 0.025751
v -0.085200 0.601048 0.031796
v -0.084630 0.600991 0.036994
v -0.083827 0.601146 0.025884
v -0.083746 0.613347 -0.007015
v -0.083036 0.613304 0.001835
v -0.083483 0.613311 -0.003036
v -0.083243 0.626114 -0.006248
v -0.079792 0.721044 0.026242
v -0.079996 0.743797 0.012363
v -0.083846 0.587665 0.036088
v -0.084838 0.587872 0.031111
v -0.081617 0.601040 0.040881
v -0.082525 0.613424 0.007934
v -0.079743 0.626730 -0.003529
v -0.081670 0.639137 -0.003092
v -0.078859 0.682349 0.037132
v -0.080708 0.695238 0.033946
v -0.082593 0.727436 0.004869
v -0.082763 0.574473 0.034862
v -0.082887 0.588065 0.025794
v -0.083746 0.574916 0.030166
v -0.081475 0.702765 0.003560
v -0.082766 0.613919 0.017183
v -0.081869 0.741044 0.007634
v -0.079607 0.652508 0.000014
v -0.081256 0.665001 0.000285
v -0.080574 0.587608 0.039906
v -0.079811 0.628459 0.043263
v -0.080858 0.641796 0.042548
v -0.078894 0.733310 0.019826
v -0.079905 0.588112 0.019033
v -0.081353 0.601095 0.018565
v -0.078388 0.614856 0.043368
v -0.083066 0.561475 0.029077
v -0.082043 0.575456 0.025347
v -0.081367 0.600587 -0.003291
v -0.081436 0.613764 -0.006841
v -0.078883 0.601185 -0.007509
v -0.081393 0.600692 -0.007316
v -0.080534 0.742511 0.009964
v -0.078365 0.678139 0.004152
v -0.079997 0.690420 0.004060
v -0.081020 0.600589 0.001714
v -0.077633 0.668989 0.039147
v -0.080599 0.728524 0.007873
v -0.078552 0.729956 0.011139
v -0.082268 0.560924 0.033745
v -0.080943 0.547638 0.031623
v -0.081132 0.561860 0.024456
v -0.081919 0.548193 0.027271
v -0.079971 0.548748 0.022746
v -0.080141 0.715872 0.006449
v -0.077987 0.703928 0.007835
v -0.079146 0.560545 0.037703
v -0.079909 0.574168 0.038980
v -0.076977 0.601303 0.043175
v -0.080660 0.600731 0.008226
v -0.076227 0.695451 0.032779
v -0.078195 0.708475 0.029990
v -0.077866 0.547260 0.035196
v -0.079313 0.575727 0.019298
v -0.080498 0.534822 0.029238
v -0.081143 0.535567 0.024709
v -0.080466 0.504069 0.022544
v -0.081684 0.512229 0.019999
v -0.081764 0.504167 0.018522
v -0.079983 0.512204 0.015100
v -0.080697 0.498096 0.018038
v -0.080240 0.498171 0.014924
v -0.080400 0.504932 0.013536
v -0.081304 0.523282 0.022002
v -0.080731 0.512250 0.024395
v -0.077884 0.639866 -0.000062
v -0.075903 0.642190 0.042381
v -0.076796 0.655506 0.040365
v -0.077600 0.614421 -0.004272
v -0.078928 0.588391 -0.003607
v -0.079186 0.588658 -0.007709
v -0.079399 0.536218 0.020163
v -0.080559 0.522512 0.026481
v -0.079321 0.523839 0.017609
v -0.077121 0.665670 0.004345
v -0.078314 0.562028 0.018914
v -0.078490 0.588327 0.008307
v -0.078647 0.588279 0.001258
v -0.074886 0.628835 0.043194
v -0.078201 0.512001 0.027833
v -0.074340 0.682425 0.035366
v -0.080230 0.497759 0.015009
v -0.080632 0.497726 0.018008
v -0.079823 0.497812 0.021174
v -0.077950 0.497838 0.018448
v -0.079784 0.497431 0.021090
v -0.077532 0.717312 0.010164
v -0.075152 0.574077 0.041909
v -0.075851 0.587749 0.042339
v -0.078047 0.521725 0.030410
v -0.077129 0.731366 0.014176
v -0.077458 0.534262 0.033007
v -0.078370 0.497705 0.023212
v -0.078186 0.503833 0.025518
v -0.074810 0.505131 0.007155
v -0.075942 0.498611 0.007988
v -0.071492 0.497776 0.010907
v -0.076011 0.498214 0.008039
v -0.075683 0.691669 0.008963
v -0.077072 0.732584 0.017235
v -0.075008 0.524136 0.012948
v -0.075153 0.512462 0.009406
v -0.075904 0.536821 0.015020
v -0.076996 0.549114 0.017421
v -0.074153 0.560428 0.040145
v -0.077019 0.575482 0.009387
v -0.078381 0.497331 0.023071
v -0.073264 0.615309 0.043506
v -0.075064 0.497461 0.020751
v -0.076514 0.720885 0.024179
v -0.074621 0.708455 0.027632
v -0.075880 0.627510 -0.000540
v -0.073365 0.615171 -0.001342
v -0.073467 0.640759 0.003536
v -0.075391 0.653210 0.003991
v -0.077117 0.576320 -0.008475
v -0.076533 0.589204 -0.008421
v -0.076532 0.575682 0.000706
v -0.076781 0.575991 -0.004306
v -0.074054 0.720510 0.021288
v -0.075079 0.601881 -0.005100
v -0.072770 0.589753 -0.006032
v -0.075208 0.718735 0.013804
v -0.073666 0.719759 0.017475
v -0.073866 0.497271 0.024507
v -0.070111 0.497182 0.022452
v -0.073899 0.497613 0.024684
v -0.071782 0.666811 0.009691
v -0.073505 0.679308 0.009577
v -0.075269 0.563319 0.010184
v -0.074267 0.503434 0.027198
v -0.073320 0.521321 0.032498
v -0.074128 0.511270 0.029864
v -0.072175 0.695615 0.030397
v -0.074678 0.705470 0.012291
v -0.071631 0.693267 0.013967
v -0.067333 0.497090 0.013231
v -0.072619 0.534003 0.035078
v -0.073204 0.547145 0.037326
v -0.071989 0.655722 0.038473
v -0.073100 0.669034 0.037067
v -0.074199 0.563975 -0.005180
v -0.074595 0.576943 -0.009435
v -0.072397 0.564506 -0.010270
v -0.074537 0.563964 -0.009366
v -0.074102 0.564385 0.000336
v -0.072496 0.551453 0.008776
v -0.070325 0.588020 0.043534
v -0.071625 0.601687 0.043999
v -0.070878 0.642501 0.040117
v -0.071935 0.708287 0.024314
v -0.069177 0.496279 0.001985
v -0.063063 0.495514 0.003458
v -0.069047 0.496739 0.001914
v -0.069453 0.526916 0.004917
v -0.070071 0.539336 0.007145
v -0.069621 0.629252 0.041375
v -0.071243 0.628490 0.003063
v -0.069184 0.574377 0.042573
v -0.069807 0.654368 0.009562
v -0.072335 0.706738 0.016213
v -0.068508 0.514101 0.001745
v -0.070926 0.602665 -0.002151
v -0.060865 0.496507 0.015278
v -0.066910 0.504274 0.000735
v -0.070767 0.577585 -0.007080
v -0.070836 0.552146 -0.005691
v -0.071239 0.551809 -0.009816
v -0.068873 0.669104 0.034196
v -0.070026 0.682474 0.032593
v -0.066937 0.502873 0.027461
v -0.067392 0.547455 0.037522
v -0.068328 0.560880 0.039621
v -0.067058 0.510312 0.029833
v -0.070752 0.552745 -0.000442
v -0.067547 0.497179 0.024664
v -0.059606 0.496444 0.022423
v -0.067573 0.496845 0.024439
v -0.071139 0.707727 0.020247
v -0.068844 0.680764 0.015116
v -0.064789 0.629796 0.008418
v -0.067327 0.642009 0.009018
v -0.068407 0.616168 0.002568
v -0.065765 0.603703 0.001855
v -0.066652 0.534315 0.034717
v -0.067213 0.521354 0.032166
v -0.065919 0.602207 0.042475
v -0.067815 0.615831 0.042226
v -0.067785 0.655874 0.035328
v -0.068701 0.590506 -0.003029
v -0.066644 0.578376 -0.004095
v -0.069558 0.552126 -0.010708
v -0.068583 0.565292 -0.008118
v -0.065920 0.553058 -0.008678
v -0.069096 0.694473 0.018430
v -0.069195 0.695694 0.026983
v -0.066649 0.682456 0.029102
v -0.066155 0.642820 0.036827
v -0.068053 0.695316 0.022815
v -0.064258 0.655586 0.015748
v -0.066529 0.668110 0.015625
v -0.064282 0.588603 0.041974
v -0.065912 0.681764 0.019792
v -0.058184 0.494545 0.005500
v -0.068414 0.539364 -0.010415
v -0.068329 0.540410 -0.001458
v -0.068180 0.539735 -0.006541
v -0.049343 0.494796 0.016614
v -0.065422 0.669145 0.030470
v -0.062340 0.616513 0.039285
v -0.064558 0.629704 0.038126
v -0.066514 0.539787 -0.010892
v -0.064635 0.515349 -0.003979
v -0.066757 0.528238 -0.003122
v -0.065022 0.682293 0.024608
v -0.062885 0.495346 -0.003109
v -0.057113 0.494173 -0.002477
v -0.062932 0.494807 -0.003053
v -0.061962 0.561597 0.038185
v -0.063010 0.575034 0.040368
v -0.062115 0.504184 -0.004012
v -0.063941 0.656155 0.031469
v -0.063526 0.591556 0.000949
v -0.064270 0.566276 -0.005301
v -0.065954 0.527551 -0.007768
v -0.063041 0.527762 -0.011997
v -0.065596 0.527195 -0.011402
v -0.062301 0.617421 0.008229
v -0.060843 0.548219 0.035863
v -0.060381 0.603082 0.039037
v -0.059572 0.496797 0.022611
v -0.051388 0.493839 0.007777
v -0.061812 0.643101 0.015746
v -0.059228 0.509888 0.027860
v -0.059818 0.521575 0.030914
v -0.059008 0.502586 0.025693
v -0.059967 0.534871 0.033607
v -0.058465 0.567526 -0.001297
v -0.061279 0.579427 0.000013
v -0.063558 0.669159 0.025767
v -0.063805 0.668886 0.020787
v -0.062742 0.540833 -0.009135
v -0.060080 0.630283 0.033677
v -0.061992 0.643216 0.032649
v -0.063008 0.514839 -0.008709
v -0.061466 0.554238 -0.006150
v -0.058181 0.542119 -0.006928
v -0.056553 0.592801 0.006701
v -0.059314 0.605044 0.007649
v -0.062453 0.514804 -0.012432
v -0.056674 0.618383 0.014480
v -0.059279 0.630688 0.015286
v -0.059810 0.504243 -0.008589
v -0.058030 0.617314 0.033964
v -0.057314 0.576210 0.036038
v -0.058566 0.589601 0.038149
v -0.061281 0.656205 0.021328
v -0.059059 0.643541 0.021665
v -0.061123 0.656396 0.026765
v -0.059184 0.643521 0.027458
v -0.052613 0.493252 -0.000451
v -0.059162 0.528832 -0.010645
v -0.059834 0.515539 -0.013361
v -0.056035 0.516603 -0.012277
v -0.055463 0.562935 0.034536
v -0.058386 0.494367 -0.007023
v -0.058299 0.493765 -0.006927
v -0.053034 0.493270 -0.007761
v -0.058647 0.504016 -0.012350
v -0.057377 0.630769 0.027845
v -0.055046 0.555774 -0.002781
v -0.054126 0.580579 0.005596
v -0.040678 0.491893 0.009531
v -0.052516 0.536205 0.030274
v -0.053825 0.549695 0.032422
v -0.053377 0.591014 0.032418
v -0.055608 0.604165 0.033573
v -0.051708 0.522932 0.027095
v -0.056362 0.504627 -0.014075
v -0.055326 0.493595 -0.009759
v -0.049364 0.495244 0.016825
v -0.053824 0.606077 0.013676
v -0.056950 0.630976 0.021549
v -0.049721 0.502592 0.020293
v -0.050686 0.510114 0.023066
v -0.054605 0.529966 -0.008664
v -0.051161 0.577947 0.030819
v -0.048123 0.556648 0.002273
v -0.051220 0.568646 0.004068
v -0.055124 0.492960 -0.009601
v -0.051064 0.492572 -0.011406
v -0.046678 0.492811 0.002322
v -0.051981 0.543571 -0.004021
v -0.048904 0.531092 -0.005739
v -0.055183 0.618055 0.027694
v -0.052203 0.605371 0.027016
v -0.054175 0.618586 0.021013
v -0.048869 0.492451 -0.006353
v -0.051248 0.606216 0.020167
v -0.048179 0.581195 0.011257
v -0.051114 0.593502 0.012711
v -0.053142 0.505792 -0.013025
v -0.053373 0.493007 -0.011401
v -0.050508 0.492839 -0.013419
v -0.051492 0.517665 -0.010727
v -0.049323 0.506799 -0.011749
v -0.049023 0.592627 0.025925
v -0.047271 0.551798 0.026845
v -0.048834 0.564949 0.029230
v -0.053190 0.492299 -0.011238
v -0.050347 0.492049 -0.013443
v -0.045705 0.538415 0.024523
v -0.047512 0.491917 -0.010517
v -0.043523 0.492219 -0.003948
v -0.045412 0.544337 -0.000163
v -0.042852 0.512674 0.016897
v -0.044104 0.525360 0.021375
v -0.045658 0.518608 -0.008486
v -0.038665 0.491461 0.005267
v -0.048072 0.593559 0.018954
v -0.045909 0.568790 0.009886
v -0.047144 0.579722 0.024251
v -0.044650 0.566798 0.022654
v -0.047600 0.491625 -0.013091
v -0.041653 0.502401 0.014631
v -0.047699 0.492497 -0.013014
v -0.040734 0.492497 0.009824
v -0.044011 0.492686 -0.011632
v -0.044269 0.507150 -0.009985
v -0.045818 0.580858 0.017604
v -0.040420 0.518753 -0.005042
v -0.042923 0.531723 -0.002452
v -0.042905 0.491894 -0.008504
v -0.042823 0.553768 0.020463
v -0.043869 0.568057 0.016145
v -0.043466 0.556351 0.008002
v -0.041350 0.543733 0.005499
v -0.043995 0.491804 -0.011732
v -0.037265 0.491248 -0.000863
v -0.039932 0.527778 0.014842
v -0.041415 0.540678 0.018073
v -0.039252 0.506645 -0.007078
v -0.037711 0.515008 0.011395
v -0.040360 0.492456 -0.008974
v -0.040428 0.491591 -0.009090
v -0.041258 0.555366 0.014143
v -0.038024 0.491303 -0.005358
v -0.038834 0.531205 0.002516
v -0.039772 0.542532 0.011570
v -0.038554 0.492151 0.005422
v -0.036739 0.503478 0.007962
v -0.037979 0.529817 0.008556
v -0.037898 0.492129 -0.005225
v -0.035835 0.505683 -0.003049
v -0.036698 0.518065 -0.000480
v -0.037123 0.492018 -0.000689
v -0.035911 0.516748 0.005162
v -0.034780 0.504647 0.002175
usemtl Vastus_medialis_muscle_rMaterial0
f 1 2 3
f 4 1 3
f 2 5 3
f 6 3 5
f 6 7 3
f 4 3 7
f 8 9 10
f 8 10 11
f 11 10 12
f 13 12 10
f 13 10 9
f 1 14 15
f 1 16 14
f 1 15 2
f 4 16 1
f 17 15 14
f 14 18 19
f 20 14 19
f 14 16 18
f 20 17 14
f 2 15 21
f 17 21 15
f 20 19 22
f 23 22 19
f 23 19 18
f 24 18 16
f 4 25 16
f 24 16 25
f 8 26 9
f 8 11 27
f 28 26 8
f 28 8 27
f 2 29 5
f 2 30 29
f 2 21 31
f 2 31 30
f 6 5 32
f 29 32 5
f 6 33 7
f 4 7 33
f 20 22 34
f 35 34 22
f 35 22 23
f 6 36 33
f 6 32 36
f 23 18 24
f 37 20 34
f 35 38 34
f 37 34 38
f 39 25 4
f 4 33 40
f 39 4 40
f 20 41 17
f 37 42 20
f 20 42 41
f 11 12 43
f 44 12 13
f 44 43 12
f 17 45 21
f 17 41 45
f 35 23 46
f 47 38 35
f 35 48 49
f 47 35 49
f 35 46 48
f 50 33 36
f 51 36 32
f 50 36 52
f 51 52 36
f 37 9 26
f 13 9 37
f 24 25 39
f 23 24 53
f 23 54 46
f 23 53 54
f 37 26 42
f 37 38 55
f 13 37 55
f 50 40 33
f 29 56 32
f 29 57 56
f 29 30 57
f 11 58 27
f 11 43 59
f 11 60 58
f 11 59 60
f 45 31 21
f 56 51 32
f 61 42 26
f 28 61 26
f 28 27 62
f 63 62 27
f 63 27 58
f 61 41 42
f 47 55 38
f 50 64 40
f 39 40 64
f 24 39 65
f 24 66 53
f 24 65 66
f 28 67 61
f 68 28 62
f 28 69 67
f 68 69 28
f 70 49 48
f 71 47 49
f 71 49 70
f 50 52 72
f 50 72 64
f 13 55 73
f 44 13 74
f 13 73 74
f 54 48 46
f 39 64 75
f 39 76 65
f 39 75 76
f 45 77 31
f 77 30 31
f 51 72 52
f 44 78 43
f 59 43 78
f 45 41 61
f 47 73 55
f 79 53 66
f 79 54 53
f 80 75 64
f 80 64 72
f 45 61 67
f 56 81 51
f 56 82 81
f 56 57 82
f 83 66 65
f 83 65 76
f 51 84 72
f 51 85 84
f 51 81 85
f 80 76 75
f 45 67 86
f 45 86 77
f 54 87 48
f 88 48 87
f 70 48 89
f 88 89 48
f 63 68 62
f 84 80 72
f 77 90 30
f 90 57 30
f 83 79 66
f 79 87 54
f 80 91 76
f 91 83 76
f 92 67 69
f 92 86 67
f 84 93 80
f 84 94 93
f 84 85 94
f 80 95 91
f 80 93 95
f 71 73 47
f 68 92 69
f 77 86 96
f 77 96 90
f 83 97 79
f 91 98 83
f 83 98 99
f 83 99 97
f 100 85 81
f 100 81 82
f 79 101 87
f 79 97 102
f 79 102 101
f 91 103 98
f 91 95 103
f 88 87 101
f 104 70 89
f 104 71 70
f 98 105 99
f 98 103 105
f 106 95 93
f 106 93 94
f 44 74 107
f 108 78 44
f 44 107 109
f 108 44 109
f 92 96 86
f 102 97 99
f 90 110 57
f 110 82 57
f 107 74 73
f 71 111 73
f 107 73 111
f 90 96 112
f 90 112 110
f 113 58 60
f 59 114 60
f 113 60 114
f 68 115 92
f 63 116 68
f 68 117 115
f 68 116 117
f 102 99 118
f 119 99 105
f 119 118 99
f 103 95 106
f 113 63 58
f 102 120 101
f 88 101 120
f 59 78 121
f 59 121 122
f 59 123 114
f 59 122 123
f 100 94 85
f 108 121 78
f 88 104 89
f 92 124 96
f 92 115 125
f 92 125 124
f 103 126 105
f 103 106 127
f 103 127 126
f 124 112 96
f 102 118 128
f 102 129 120
f 102 128 129
f 119 105 126
f 104 111 71
f 119 128 118
f 63 130 116
f 113 131 63
f 63 131 130
f 132 115 117
f 132 125 115
f 110 133 82
f 133 100 82
f 110 112 134
f 110 134 133
f 135 88 120
f 88 136 104
f 135 136 88
f 137 106 94
f 100 137 94
f 138 124 125
f 124 139 112
f 138 139 124
f 122 121 140
f 108 140 121
f 141 117 116
f 141 116 130
f 119 142 128
f 119 126 142
f 143 114 123
f 143 113 114
f 122 144 123
f 143 123 144
f 132 117 141
f 104 145 111
f 107 111 145
f 135 120 129
f 138 125 132
f 146 112 139
f 146 134 112
f 127 106 147
f 137 147 106
f 113 148 131
f 143 149 113
f 113 149 148
f 104 136 150
f 104 150 145
f 107 151 109
f 107 145 152
f 107 152 151
f 108 109 151
f 133 153 100
f 100 154 137
f 100 153 154
f 129 128 155
f 135 129 156
f 129 155 156
f 122 157 144
f 122 158 157
f 122 140 159
f 122 159 158
f 160 140 108
f 108 151 161
f 160 108 161
f 133 134 162
f 133 162 153
f 146 139 138
f 132 141 163
f 138 132 164
f 132 163 165
f 132 165 164
f 127 166 126
f 127 147 167
f 127 167 166
f 168 130 131
f 168 131 148
f 169 128 142
f 169 155 128
f 141 130 168
f 170 144 157
f 170 143 144
f 135 150 136
f 141 171 163
f 141 168 172
f 141 172 171
f 170 157 173
f 158 173 157
f 166 142 126
f 166 169 142
f 152 145 150
f 170 174 143
f 143 175 149
f 143 174 175
f 160 159 140
f 138 164 176
f 146 138 177
f 138 176 177
f 137 178 147
f 137 154 178
f 179 170 173
f 170 180 174
f 179 181 170
f 170 181 180
f 182 163 171
f 182 165 163
f 179 173 183
f 158 183 173
f 135 184 150
f 185 135 156
f 185 184 135
f 152 186 151
f 152 150 187
f 152 187 186
f 162 134 146
f 168 188 172
f 189 171 172
f 189 172 188
f 190 148 149
f 190 149 175
f 191 164 165
f 191 176 164
f 192 174 180
f 192 175 174
f 168 148 190
f 168 193 188
f 168 190 193
f 158 159 194
f 160 194 159
f 154 153 162
f 186 161 151
f 187 150 184
f 182 171 189
f 179 195 181
f 196 180 181
f 196 181 195
f 185 156 155
f 179 183 197
f 179 198 195
f 199 198 179
f 199 179 197
f 178 167 147
f 158 200 183
f 158 194 201
f 158 201 200
f 160 161 202
f 186 202 161
f 146 177 203
f 162 146 204
f 146 203 204
f 192 180 196
f 191 165 182
f 205 188 193
f 189 188 205
f 190 175 192
f 187 184 206
f 185 206 184
f 190 207 193
f 205 193 207
f 186 187 206
f 169 208 155
f 185 155 208
f 182 189 209
f 189 205 210
f 189 210 211
f 189 211 209
f 212 194 160
f 160 202 213
f 212 160 213
f 200 197 183
f 214 177 176
f 214 203 177
f 154 162 215
f 154 216 178
f 154 215 216
f 166 167 217
f 178 217 167
f 190 192 218
f 190 218 207
f 182 209 219
f 191 182 220
f 182 219 220
f 162 204 221
f 162 221 215
f 222 195 198
f 196 195 222
f 205 223 210
f 205 207 224
f 205 225 223
f 205 224 225
f 166 226 169
f 169 226 208
f 222 198 227
f 199 227 198
f 192 196 228
f 192 229 218
f 192 228 229
f 185 230 206
f 231 185 208
f 231 230 185
f 186 206 232
f 186 233 202
f 186 232 233
f 234 210 223
f 234 211 210
f 196 235 228
f 196 222 236
f 196 236 235
f 224 207 218
f 212 201 194
f 237 223 225
f 237 225 238
f 224 238 225
f 214 176 191
f 199 197 239
f 200 239 197
f 166 240 226
f 166 217 240
f 232 206 230
f 237 234 223
f 241 237 238
f 224 242 238
f 241 238 242
f 243 209 211
f 243 219 209
f 241 244 237
f 237 244 245
f 237 246 234
f 237 245 246
f 224 218 229
f 224 247 242
f 224 229 247
f 233 213 202
f 231 208 226
f 200 201 248
f 212 248 201
f 247 229 228
f 247 228 235
f 241 242 249
f 241 250 251
f 252 250 241
f 241 251 244
f 252 241 249
f 222 227 253
f 222 254 236
f 222 253 255
f 222 255 254
f 199 256 227
f 253 227 256
f 234 243 211
f 257 204 203
f 257 221 204
f 247 249 242
f 258 217 178
f 258 178 216
f 259 250 260
f 252 260 250
f 259 251 250
f 261 244 251
f 261 245 244
f 262 235 236
f 262 236 254
f 263 256 199
f 199 239 264
f 263 199 264
f 191 220 265
f 214 191 266
f 191 265 266
f 232 230 267
f 231 267 230
f 268 259 260
f 252 269 260
f 270 260 269
f 268 260 270
f 212 213 271
f 233 271 213
f 247 272 249
f 252 249 272
f 240 273 226
f 231 226 273
f 233 232 267
f 200 274 239
f 200 248 275
f 200 275 274
f 276 251 259
f 276 261 251
f 234 246 277
f 234 278 243
f 234 277 278
f 279 215 221
f 279 216 215
f 247 235 262
f 247 262 272
f 276 259 268
f 280 269 252
f 252 272 281
f 280 252 281
f 282 246 245
f 282 277 246
f 268 270 283
f 283 270 284
f 270 269 284
f 253 285 255
f 253 256 286
f 253 286 287
f 253 288 285
f 253 287 288
f 257 203 214
f 240 217 258
f 240 289 273
f 240 258 289
f 290 248 212
f 212 271 291
f 290 212 291
f 292 254 255
f 292 255 285
f 293 220 219
f 293 265 220
f 231 294 267
f 295 231 273
f 295 294 231
f 263 286 256
f 274 264 239
f 268 283 296
f 283 297 296
f 283 284 298
f 283 299 297
f 283 300 299
f 283 298 300
f 262 254 292
f 280 284 269
f 233 267 301
f 233 302 271
f 233 301 302
f 268 296 303
f 276 268 304
f 268 303 304
f 262 281 272
f 305 245 261
f 305 282 245
f 301 267 294
f 262 306 281
f 262 292 306
f 214 266 307
f 257 214 308
f 214 307 308
f 243 293 219
f 309 296 297
f 309 303 296
f 290 275 248
f 298 284 310
f 280 310 284
f 279 221 257
f 311 299 312
f 300 312 299
f 311 297 299
f 295 273 289
f 313 314 315
f 316 315 314
f 313 315 317
f 315 318 317
f 315 319 318
f 316 319 315
f 258 216 279
f 320 314 321
f 316 314 320
f 313 321 314
f 263 264 322
f 274 322 264
f 305 261 276
f 243 278 323
f 243 324 293
f 243 323 324
f 302 291 271
f 263 325 286
f 287 286 325
f 326 285 288
f 326 288 327
f 287 327 288
f 292 285 326
f 280 281 306
f 320 311 312
f 320 312 328
f 320 321 329
f 320 329 311
f 316 320 330
f 320 328 330
f 274 275 331
f 290 331 275
f 300 328 312
f 300 298 332
f 298 310 332
f 292 333 306
f 292 326 334
f 292 334 333
f 311 309 297
f 335 278 277
f 335 323 278
f 336 329 321
f 336 321 313
f 337 266 265
f 337 307 266
f 317 338 339
f 340 317 339
f 313 317 340
f 317 318 338
f 280 306 333
f 339 338 341
f 340 339 342
f 339 341 342
f 301 294 343
f 295 343 294
f 276 304 344
f 305 276 345
f 276 344 345
f 311 329 346
f 336 346 329
f 258 347 289
f 295 289 347
f 311 346 348
f 311 348 309
f 313 340 349
f 313 349 350
f 336 313 350
f 351 318 319
f 351 319 316
f 352 338 318
f 351 352 318
f 338 353 341
f 352 354 338
f 338 354 353
f 302 301 343
f 290 291 355
f 302 355 291
f 258 279 356
f 258 356 347
f 316 330 357
f 316 357 358
f 351 316 358
f 300 359 328
f 300 332 360
f 300 360 359
f 361 304 303
f 361 344 304
f 362 310 280
f 362 280 333
f 340 342 363
f 340 363 349
f 364 277 282
f 364 335 277
f 342 365 363
f 342 341 365
f 279 257 366
f 257 308 367
f 257 367 366
f 263 322 368
f 369 325 263
f 369 263 368
f 274 370 322
f 274 331 371
f 274 371 370
f 359 330 328
f 359 357 330
f 362 332 310
f 326 327 372
f 287 373 327
f 372 327 373
f 309 361 303
f 326 374 334
f 326 372 375
f 326 375 374
f 279 376 356
f 279 366 376
f 287 325 377
f 287 378 373
f 287 377 378
f 293 337 265
f 362 333 334
f 362 334 374
f 295 379 343
f 380 295 347
f 380 379 295
f 381 349 363
f 363 365 382
f 363 382 381
f 364 282 305
f 383 350 349
f 381 383 349
f 384 331 290
f 290 355 385
f 384 290 385
f 362 386 332
f 360 332 386
f 336 350 387
f 383 387 350
f 388 346 336
f 336 387 389
f 388 336 389
f 390 308 307
f 390 367 308
f 388 348 346
f 302 343 391
f 302 392 355
f 302 391 392
f 341 393 365
f 341 353 393
f 370 368 322
f 309 348 394
f 309 395 361
f 309 394 395
f 293 324 396
f 293 397 337
f 293 396 397
f 369 377 325
f 391 343 379
f 388 394 348
f 372 398 375
f 372 373 399
f 372 399 400
f 372 401 398
f 372 400 401
f 384 371 331
f 380 347 356
f 380 356 376
f 402 362 374
f 402 386 362
f 359 360 403
f 360 386 403
f 305 345 404
f 364 305 405
f 305 404 405
f 406 324 323
f 406 396 324
f 402 374 375
f 402 375 398
f 378 399 373
f 407 366 367
f 407 376 366
f 337 390 307
f 408 354 352
f 354 409 353
f 354 408 409
f 410 352 351
f 408 352 410
f 359 411 357
f 359 403 412
f 359 412 411
f 413 323 335
f 413 406 323
f 370 414 368
f 369 368 414
f 415 345 344
f 415 404 345
f 392 385 355
f 370 371 416
f 384 416 371
f 402 403 386
f 391 379 417
f 380 417 379
f 411 358 357
f 351 358 418
f 411 418 358
f 361 415 344
f 369 419 377
f 378 377 419
f 365 420 382
f 365 393 420
f 413 335 364
f 410 351 421
f 351 418 421
f 392 391 417
f 390 407 367
f 378 422 399
f 400 399 422
f 423 398 401
f 400 424 401
f 423 401 424
f 337 397 425
f 337 426 390
f 337 425 426
f 427 389 387
f 383 427 387
f 423 402 398
f 361 395 428
f 361 429 415
f 361 428 429
f 388 389 430
f 427 430 389
f 402 431 403
f 423 431 402
f 407 380 376
f 381 432 383
f 383 432 427
f 381 382 433
f 381 434 432
f 381 433 434
f 380 435 417
f 407 435 380
f 384 385 436
f 392 436 385
f 370 437 414
f 370 416 438
f 370 438 437
f 369 414 439
f 440 419 369
f 440 369 439
f 441 394 388
f 388 430 442
f 441 388 442
f 364 405 443
f 413 364 444
f 364 443 444
f 441 395 394
f 441 428 395
f 445 397 396
f 445 425 397
f 378 419 446
f 378 447 422
f 378 446 447
f 412 403 431
f 400 448 424
f 400 422 449
f 400 450 448
f 400 449 450
f 392 417 451
f 451 417 435
f 390 452 407
f 390 426 453
f 390 453 452
f 454 396 406
f 454 445 396
f 407 455 435
f 407 452 455
f 456 416 384
f 384 436 457
f 456 384 457
f 458 405 404
f 458 443 405
f 392 451 459
f 392 459 436
f 353 460 393
f 353 409 460
f 461 423 424
f 461 424 448
f 437 439 414
f 451 435 455
f 440 446 419
f 454 406 413
f 423 462 431
f 461 463 423
f 423 463 462
f 447 449 422
f 412 431 462
f 415 458 404
f 382 420 464
f 382 464 433
f 411 412 462
f 465 426 425
f 465 453 426
f 456 438 416
f 413 444 466
f 454 413 467
f 413 466 467
f 461 448 468
f 450 468 448
f 411 469 418
f 411 462 470
f 411 470 469
f 471 455 452
f 471 452 453
f 408 410 472
f 408 473 409
f 408 472 474
f 408 474 473
f 415 429 475
f 415 476 458
f 415 475 476
f 459 451 455
f 410 421 477
f 410 477 472
f 478 425 445
f 478 465 425
f 459 457 436
f 447 446 479
f 440 479 446
f 447 480 449
f 450 449 480
f 469 421 418
f 461 481 463
f 482 461 468
f 461 483 481
f 482 483 461
f 440 439 484
f 437 484 439
f 470 462 463
f 485 429 428
f 485 475 429
f 470 463 481
f 459 455 471
f 486 444 443
f 486 466 444
f 478 445 454
f 432 434 433
f 427 432 487
f 432 433 487
f 485 428 441
f 393 488 420
f 393 460 488
f 437 438 489
f 456 489 438
f 490 442 430
f 441 442 491
f 490 491 442
f 427 490 430
f 427 487 492
f 427 492 490
f 469 477 421
f 469 470 481
f 485 441 493
f 441 491 493
f 447 494 480
f 447 479 495
f 447 495 494
f 496 453 465
f 496 471 453
f 459 497 457
f 456 457 497
f 450 498 468
f 482 468 498
f 454 467 499
f 478 454 500
f 454 499 500
f 501 481 483
f 469 481 501
f 450 480 502
f 450 503 498
f 450 502 503
f 458 486 443
f 459 471 496
f 459 496 497
f 504 479 440
f 440 484 505
f 504 440 505
f 482 506 483
f 501 483 506
f 496 465 478
f 437 507 484
f 437 489 508
f 437 508 507
f 469 501 509
f 469 509 477
f 510 467 466
f 510 499 467
f 458 476 511
f 458 512 486
f 458 511 512
f 494 502 480
f 456 497 513
f 514 489 456
f 514 456 513
f 496 478 515
f 478 500 516
f 478 516 515
f 496 513 497
f 496 515 513
f 504 495 479
f 409 517 460
f 409 473 517
f 482 498 518
f 482 519 506
f 520 519 482
f 520 482 518
f 509 501 506
f 521 476 475
f 521 511 476
f 522 474 472
f 522 523 474
f 474 523 524
f 474 524 473
f 509 472 477
f 509 522 472
f 503 518 498
f 525 506 519
f 509 506 525
f 486 510 466
f 507 505 484
f 526 500 499
f 526 516 500
f 521 475 485
f 514 508 489
f 494 527 502
f 503 502 527
f 494 495 528
f 504 528 495
f 514 513 515
f 514 515 516
f 420 488 529
f 420 529 464
f 485 493 530
f 521 485 531
f 485 530 531
f 486 512 532
f 486 533 510
f 486 532 533
f 510 526 499
f 534 493 491
f 534 530 493
f 525 519 535
f 520 535 519
f 509 525 536
f 509 536 522
f 490 534 491
f 464 487 433
f 537 492 487
f 464 537 487
f 507 538 505
f 504 505 538
f 514 539 508
f 507 508 539
f 490 492 540
f 490 541 534
f 490 540 541
f 526 514 516
f 503 542 518
f 520 518 542
f 526 539 514
f 537 540 492
f 536 525 535
f 543 512 511
f 543 532 512
f 494 544 527
f 494 528 545
f 494 545 544
f 522 546 523
f 522 536 546
f 523 546 547
f 523 547 524
f 460 517 548
f 460 548 488
f 503 527 549
f 503 550 542
f 503 549 550
f 510 551 526
f 510 533 552
f 510 552 551
f 526 553 539
f 526 551 553
f 543 511 521
f 473 524 554
f 473 554 517
f 507 539 553
f 507 553 555
f 507 555 538
f 556 528 504
f 504 538 557
f 556 504 557
f 520 558 535
f 536 535 559
f 535 560 559
f 535 558 560
f 520 542 561
f 562 558 520
f 562 520 561
f 563 533 532
f 563 552 533
f 521 531 564
f 543 521 565
f 521 564 565
f 546 536 559
f 555 553 551
f 555 551 552
f 546 559 566
f 546 566 567
f 546 567 547
f 544 549 527
f 550 561 542
f 556 545 528
f 568 531 530
f 568 564 531
f 555 557 538
f 559 567 566
f 559 560 567
f 563 532 543
f 562 560 558
f 524 547 569
f 524 569 554
f 517 554 570
f 517 570 548
f 534 568 530
f 555 552 563
f 550 549 571
f 544 571 549
f 534 541 572
f 534 573 568
f 534 572 573
f 562 561 574
f 550 574 561
f 488 548 575
f 488 575 529
f 555 576 557
f 555 563 576
f 556 577 545
f 544 545 577
f 563 543 578
f 543 565 579
f 543 579 578
f 556 557 576
f 547 567 580
f 547 580 569
f 581 541 540
f 581 572 541
f 582 567 560
f 562 582 560
f 582 580 567
f 581 540 537
f 583 537 464
f 581 537 583
f 583 464 529
f 584 582 562
f 562 574 585
f 584 562 585
f 563 586 576
f 563 578 586
f 550 587 574
f 550 571 588
f 550 588 587
f 554 569 589
f 554 589 570
f 590 565 564
f 590 579 565
f 556 576 586
f 591 577 556
f 591 556 586
f 544 577 592
f 544 593 571
f 544 592 593
f 594 580 582
f 594 582 584
f 569 580 594
f 569 594 589
f 568 590 564
f 591 586 578
f 591 578 579
f 548 570 595
f 548 595 575
f 591 592 577
f 568 573 596
f 568 597 590
f 568 596 597
f 587 585 574
f 593 588 571
f 590 591 579
f 584 585 598
f 587 598 585
f 599 573 572
f 599 596 573
f 594 584 600
f 584 598 600
f 589 594 601
f 594 600 601
f 591 602 592
f 590 602 591
f 570 589 603
f 570 603 595
f 593 592 602
f 593 604 588
f 587 588 604
f 589 601 603
f 599 572 581
f 590 597 605
f 590 605 602
f 581 583 606
f 581 606 607
f 599 581 607
f 608 597 596
f 608 605 597
f 593 602 605
f 593 605 608
f 593 608 604
f 583 529 575
f 583 575 606
f 609 601 600
f 609 603 601
f 587 610 598
f 587 604 611
f 587 611 610
f 610 600 598
f 610 609 600
f 608 596 599
f 608 611 604
f 595 606 575
f 595 612 606
f 612 607 606
f 609 595 603
f 608 599 613
f 608 613 611
f 609 612 595
f 610 612 609
f 599 607 614
f 599 614 613
f 612 614 607
f 610 614 612
f 610 611 613
f 610 613 614
