# 
# Wavefront OBJ file
# Created with Kaydara FBX
# 
mtllib c:\users\tjvan\onedrive\documenten\fontys\minor\nx\.mtlmodels\vastus_lateralis_muscle.r.obj

g Vastus_lateralis_muscle_r
v -0.156872 0.694390 -0.001391
v -0.158335 0.678945 0.012041
v -0.158631 0.695362 0.009748
v -0.155938 0.680244 0.021715
v -0.157619 0.711701 0.007525
v -0.157018 0.696565 0.018800
v -0.157528 0.662963 0.013703
v -0.156935 0.678330 -0.000475
v -0.156125 0.712708 0.015859
v -0.155435 0.710451 -0.002646
v -0.154291 0.728623 0.013230
v -0.155680 0.727566 0.005363
v -0.153760 0.726235 -0.004136
v -0.156172 0.662551 -0.000109
v -0.155064 0.646934 -0.000015
v -0.156388 0.647103 0.014614
v -0.153554 0.647973 0.025833
v -0.155025 0.664180 0.024342
v -0.151888 0.697766 0.025347
v -0.150008 0.678706 -0.013936
v -0.149832 0.709546 -0.014222
v -0.150032 0.693956 -0.013788
v -0.155026 0.631102 0.015170
v -0.151823 0.631679 0.026541
v -0.149197 0.663380 -0.014252
v -0.151580 0.713520 0.022034
v -0.150463 0.665532 0.031845
v -0.151368 0.681643 0.028946
v -0.153451 0.742929 0.003226
v -0.151881 0.741607 -0.005420
v -0.148620 0.725103 -0.014443
v -0.153549 0.631372 -0.000144
v -0.146864 0.632376 -0.014881
v -0.148641 0.647824 -0.015037
v -0.153307 0.615202 0.015188
v -0.148722 0.649089 0.033366
v -0.151906 0.744005 0.010640
v -0.148082 0.744493 0.016065
v -0.150178 0.729159 0.019190
v -0.151713 0.615894 -0.000328
v -0.150815 0.757965 0.001626
v -0.149419 0.615472 0.026568
v -0.149394 0.600543 -0.000422
v -0.150566 0.599563 0.014845
v -0.146546 0.599512 0.026079
v -0.149094 0.758808 0.008210
v -0.145672 0.714159 0.025847
v -0.145486 0.682877 0.033623
v -0.145828 0.698738 0.029363
v -0.149767 0.757003 -0.005880
v -0.145917 0.756137 -0.013594
v -0.147573 0.740654 -0.014645
v -0.144497 0.616162 0.034481
v -0.146713 0.632498 0.034286
v -0.145641 0.616687 -0.014825
v -0.144580 0.666587 0.036601
v -0.147269 0.772074 -0.005299
v -0.146020 0.772994 0.006694
v -0.147864 0.772763 0.001192
v -0.147633 0.584042 0.014227
v -0.143249 0.583599 0.025114
v -0.144820 0.729468 0.022915
v -0.141553 0.694270 -0.023427
v -0.141674 0.709534 -0.022865
v -0.140628 0.664140 -0.024470
v -0.141045 0.679250 -0.023892
v -0.144021 0.771055 -0.012065
v -0.141369 0.600001 0.033650
v -0.147143 0.584960 -0.000277
v -0.142165 0.585243 -0.012926
v -0.143782 0.601148 -0.014205
v -0.145496 0.759158 0.013063
v -0.141236 0.633521 0.039264
v -0.143363 0.650203 0.038184
v -0.140278 0.648647 -0.024927
v -0.141188 0.740433 -0.021123
v -0.141491 0.724972 -0.022154
v -0.141556 0.759261 0.016661
v -0.143501 0.744683 0.019824
v -0.144229 0.786382 -0.003562
v -0.144023 0.786960 0.001571
v -0.144197 0.568406 0.013108
v -0.139776 0.567905 0.023676
v -0.140233 0.755921 -0.019732
v -0.144215 0.569218 0.000018
v -0.138632 0.617042 -0.024491
v -0.139676 0.632883 -0.024982
v -0.138681 0.617175 0.039371
v -0.137771 0.583900 0.032298
v -0.142767 0.773046 0.010987
v -0.142226 0.786993 0.006129
v -0.139904 0.787011 0.009869
v -0.139999 0.699394 0.031395
v -0.139423 0.683680 0.035864
v -0.139332 0.729575 0.024424
v -0.139876 0.714516 0.027740
v -0.137468 0.651057 0.040432
v -0.138484 0.667242 0.038737
v -0.135668 0.600927 0.039012
v -0.142642 0.785698 -0.008834
v -0.139290 0.800649 0.003141
v -0.140054 0.801225 -0.003438
v -0.139963 0.801015 -0.000296
v -0.140931 0.553788 -0.000055
v -0.139686 0.569696 -0.011461
v -0.140376 0.553133 0.011791
v -0.139830 0.786108 -0.013125
v -0.139479 0.771149 -0.017645
v -0.137172 0.601118 -0.023374
v -0.138527 0.744615 0.021653
v -0.135266 0.634535 0.041527
v -0.139437 0.773166 0.014323
v -0.139615 0.801530 -0.006198
v -0.138195 0.800505 0.006218
v -0.132529 0.569980 -0.019712
v -0.135495 0.585231 -0.022014
v -0.133515 0.694759 -0.029200
v -0.134796 0.725470 -0.027017
v -0.134368 0.709997 -0.028451
v -0.135335 0.773076 0.016027
v -0.137148 0.759129 0.018468
v -0.135006 0.740672 -0.025398
v -0.132620 0.618237 0.041921
v -0.132828 0.679609 -0.029958
v -0.136579 0.538005 0.010529
v -0.136496 0.554574 -0.010297
v -0.137104 0.538602 -0.000263
v -0.133430 0.539768 -0.009838
v -0.131997 0.648929 -0.030393
v -0.132308 0.664428 -0.030281
v -0.135967 0.552700 0.021878
v -0.133011 0.537666 0.020057
v -0.134917 0.772184 -0.021131
v -0.134769 0.756362 -0.023404
v -0.134810 0.815318 0.001679
v -0.134957 0.815638 -0.000197
v -0.134420 0.699415 0.030777
v -0.134233 0.814921 0.003754
v -0.136961 0.786917 0.012446
v -0.136207 0.800496 0.008882
v -0.133591 0.800268 0.010436
v -0.134302 0.714378 0.027211
v -0.136645 0.787579 -0.016339
v -0.133910 0.568048 0.030673
v -0.129977 0.552789 0.028485
v -0.131611 0.633264 -0.030309
v -0.138422 0.802579 -0.008811
v -0.132526 0.667358 0.038000
v -0.133431 0.683802 0.035296
v -0.133549 0.744297 0.020976
v -0.134019 0.729472 0.023896
v -0.131976 0.813855 0.006875
v -0.133185 0.814381 0.005619
v -0.129571 0.601378 -0.028293
v -0.130810 0.617361 -0.029643
v -0.131543 0.651508 0.039456
v -0.136820 0.803924 -0.010772
v -0.134216 0.815934 -0.002336
v -0.131873 0.584662 0.037303
v -0.128024 0.568602 0.035366
v -0.129181 0.635294 0.040599
v -0.132604 0.758759 0.018364
v -0.132788 0.524323 0.009357
v -0.132968 0.524205 -0.000429
v -0.133312 0.786683 0.013527
v -0.133760 0.789363 -0.018784
v -0.134436 0.803932 -0.010657
v -0.130881 0.814894 -0.001897
v -0.132594 0.815539 -0.002542
v -0.130506 0.773059 -0.023256
v -0.129820 0.555256 -0.017877
v -0.130465 0.813322 0.007842
v -0.126950 0.537779 0.026224
v -0.129422 0.602088 0.041555
v -0.125838 0.585617 0.040077
v -0.128006 0.585571 -0.026426
v -0.129489 0.786320 0.013293
v -0.131078 0.772618 0.015750
v -0.128561 0.725658 -0.029584
v -0.129859 0.756822 -0.025817
v -0.129378 0.741016 -0.028457
v -0.127269 0.826737 0.006438
v -0.126041 0.826775 0.005084
v -0.126792 0.827154 0.005449
v -0.126511 0.826109 0.006474
v -0.131947 0.790514 -0.019993
v -0.133276 0.802641 -0.009271
v -0.130089 0.790398 -0.019794
v -0.129505 0.814216 -0.001017
v -0.129848 0.713829 0.024458
v -0.129111 0.683231 0.031855
v -0.130023 0.698812 0.027870
v -0.127438 0.710426 -0.030743
v -0.125257 0.825752 0.006969
v -0.129662 0.729083 0.021317
v -0.124327 0.553214 0.032780
v -0.130857 0.799831 0.010901
v -0.126856 0.812097 0.008405
v -0.128704 0.812735 0.008358
v -0.128904 0.758083 0.015811
v -0.129640 0.743830 0.018307
v -0.124340 0.679888 -0.031789
v -0.125631 0.695218 -0.031561
v -0.130070 0.525272 -0.009521
v -0.125999 0.526730 -0.016199
v -0.127966 0.540820 -0.016849
v -0.128096 0.667042 0.034189
v -0.131957 0.801470 -0.007274
v -0.128322 0.813686 -0.000339
v -0.129604 0.524379 0.017819
v -0.129705 0.513749 -0.000322
v -0.129533 0.513997 0.008434
v -0.126385 0.514102 0.016224
v -0.123452 0.603200 0.040476
v -0.126457 0.619139 0.040913
v -0.125104 0.826179 0.004764
v -0.122757 0.555838 -0.022478
v -0.125252 0.570505 -0.024432
v -0.127422 0.651415 0.035167
v -0.123602 0.664606 -0.031948
v -0.131062 0.711418 0.009513
v -0.132125 0.727717 0.011674
v -0.132092 0.712085 0.014898
v -0.130339 0.728329 0.016462
v -0.131569 0.743291 0.008798
v -0.131034 0.727233 0.006870
v -0.130830 0.695598 0.011358
v -0.131775 0.696224 0.017719
v -0.130267 0.712966 0.019668
v -0.122624 0.633602 -0.030975
v -0.123208 0.649082 -0.031833
v -0.123259 0.824426 0.007500
v -0.124221 0.825108 0.007294
v -0.126382 0.773840 -0.024699
v -0.130775 0.787966 -0.016179
v -0.130572 0.800774 -0.005434
v -0.126855 0.813146 0.000293
v -0.122299 0.569444 0.037858
v -0.130905 0.680384 0.020236
v -0.130202 0.697532 0.023019
v -0.130286 0.742846 0.003842
v -0.129772 0.743390 0.013601
v -0.129939 0.756969 0.001474
v -0.129344 0.757253 0.006901
v -0.127696 0.757360 0.011574
v -0.127412 0.771940 0.013682
v -0.127437 0.710606 0.003454
v -0.127291 0.726189 0.001969
v -0.130415 0.679658 0.012276
v -0.130549 0.664878 0.021714
v -0.129835 0.664419 0.013092
v -0.128355 0.666200 0.028156
v -0.129151 0.681923 0.026366
v -0.124120 0.825594 0.004483
v -0.128002 0.799296 0.010536
v -0.126119 0.679610 0.004139
v -0.126873 0.695076 0.004309
v -0.121903 0.617912 -0.030236
v -0.130701 0.786307 -0.012239
v -0.125217 0.773131 -0.020125
v -0.129033 0.800041 -0.003538
v -0.130139 0.785665 -0.008336
v -0.128186 0.771844 -0.016435
v -0.129719 0.648813 0.013151
v -0.129631 0.649305 0.022218
v -0.125108 0.757070 -0.026633
v -0.126103 0.664383 0.003863
v -0.126919 0.741113 -0.001264
v -0.129182 0.785753 -0.004524
v -0.129089 0.771285 -0.011899
v -0.123092 0.774031 -0.023687
v -0.127051 0.513719 -0.008620
v -0.126209 0.770879 0.005699
v -0.128978 0.770859 -0.003503
v -0.128176 0.770993 0.001314
v -0.127869 0.755785 -0.004078
v -0.128874 0.633476 0.022901
v -0.129472 0.633061 0.013438
v -0.125438 0.633410 0.004512
v -0.126009 0.649030 0.003966
v -0.126739 0.506104 0.007841
v -0.127042 0.505764 -0.000258
v -0.124807 0.505470 -0.007924
v -0.127434 0.650598 0.029121
v -0.124090 0.524227 0.023600
v -0.121106 0.513777 0.021846
v -0.119695 0.586463 -0.026784
v -0.120957 0.601977 -0.029099
v -0.123639 0.506128 0.015319
v -0.123162 0.825019 0.004237
v -0.125280 0.798737 0.009451
v -0.126324 0.785750 0.011591
v -0.128673 0.617759 0.013337
v -0.125179 0.618298 0.004185
v -0.120289 0.586707 0.039287
v -0.123916 0.741237 -0.028923
v -0.125545 0.771198 0.009904
v -0.124860 0.635548 0.036280
v -0.122436 0.619465 0.035959
v -0.129041 0.771047 -0.006886
v -0.127494 0.799314 -0.001914
v -0.127557 0.785605 -0.001556
v -0.125260 0.798521 0.000208
v -0.127599 0.755479 -0.013187
v -0.124327 0.755940 -0.017063
v -0.127949 0.755581 -0.008994
v -0.123508 0.811757 0.001282
v -0.125251 0.812480 0.000861
v -0.125520 0.784890 0.001640
v -0.127707 0.617639 0.022476
v -0.123985 0.618710 0.029342
v -0.125650 0.634759 0.029758
v -0.122360 0.823798 0.007618
v -0.127232 0.602324 0.012467
v -0.120609 0.710886 -0.029496
v -0.122484 0.725527 -0.029333
v -0.122244 0.824479 0.004020
v -0.123856 0.784654 0.005089
v -0.125079 0.811475 0.008193
v -0.121784 0.541423 -0.021106
v -0.125816 0.739024 -0.007115
v -0.124194 0.739185 -0.012340
v -0.126535 0.602239 0.021445
v -0.123525 0.797971 0.002142
v -0.121806 0.811042 0.002069
v -0.123954 0.724624 -0.004669
v -0.120923 0.694838 -0.003518
v -0.122425 0.709755 -0.003906
v -0.121478 0.831139 0.007023
v -0.124456 0.586707 0.020838
v -0.125533 0.587117 0.011669
v -0.123105 0.587747 0.002639
v -0.124249 0.603085 0.003473
v -0.125299 0.500182 -0.000283
v -0.123199 0.500329 -0.007414
v -0.123595 0.514674 -0.014415
v -0.121085 0.538234 0.029736
v -0.118302 0.524080 0.026890
v -0.118922 0.680072 -0.003384
v -0.120438 0.822626 0.007637
v -0.121402 0.823187 0.007667
v -0.120290 0.823271 0.003715
v -0.121238 0.823863 0.003828
v -0.120675 0.831923 0.006127
v -0.125147 0.500497 0.007414
v -0.122523 0.603158 0.028655
v -0.120722 0.830929 0.007256
v -0.120409 0.603707 0.035185
v -0.124127 0.785057 0.008585
v -0.117730 0.649381 -0.002812
v -0.118073 0.664699 -0.003101
v -0.120194 0.831193 0.005592
v -0.119979 0.515585 -0.017727
v -0.121054 0.527451 -0.019892
v -0.117249 0.634223 -0.002765
v -0.118269 0.695839 -0.029738
v -0.123654 0.571840 0.011672
v -0.121760 0.572169 0.003074
v -0.124531 0.497204 -0.000195
v -0.122417 0.496735 -0.006847
v -0.123198 0.810851 0.007586
v -0.123381 0.798205 0.007326
v -0.121616 0.810402 0.006619
v -0.117453 0.571674 -0.025149
v -0.119406 0.822758 0.003748
v -0.120688 0.756715 -0.020010
v -0.121047 0.757122 -0.024460
v -0.116673 0.603768 -0.003816
v -0.116954 0.619106 -0.003583
v -0.124409 0.497611 0.007440
v -0.121867 0.500644 0.014521
v -0.119701 0.741311 -0.025935
v -0.119658 0.830612 0.005311
v -0.121797 0.506245 -0.012994
v -0.120355 0.500877 -0.011817
v -0.124302 0.496832 -0.000263
v -0.122314 0.496298 -0.006776
v -0.122221 0.571439 0.020380
v -0.120530 0.587078 0.028044
v -0.118142 0.571455 0.027051
v -0.123949 0.497255 0.007204
v -0.120889 0.497809 0.014098
v -0.115554 0.665061 -0.029556
v -0.116474 0.680407 -0.029778
v -0.119087 0.553889 0.035378
v -0.116027 0.538811 0.032007
v -0.120038 0.740528 -0.015985
v -0.118035 0.741187 -0.021103
v -0.118872 0.497776 0.004117
v -0.119343 0.497259 -0.002730
v -0.116382 0.588243 -0.003885
v -0.120102 0.830246 0.007455
v -0.120339 0.725417 -0.010889
v -0.116047 0.726681 -0.014626
v -0.119111 0.830225 0.005140
v -0.115478 0.513503 0.024748
v -0.120459 0.497420 0.013758
v -0.115940 0.497868 0.010266
v -0.117426 0.710903 -0.009762
v -0.122655 0.797876 0.004667
v -0.121999 0.556371 0.012807
v -0.118289 0.506200 0.020423
v -0.118824 0.507081 -0.015889
v -0.120523 0.810154 0.005214
v -0.120749 0.810477 0.003356
v -0.118858 0.829234 0.007511
v -0.119472 0.829652 0.007522
v -0.119742 0.496530 -0.010942
v -0.115013 0.649535 -0.029349
v -0.119423 0.822171 0.007466
v -0.115523 0.541395 -0.022430
v -0.115491 0.556574 -0.023765
v -0.113648 0.618641 -0.028052
v -0.114276 0.634188 -0.028810
v -0.117809 0.725768 -0.025654
v -0.119683 0.495988 -0.010854
v -0.114812 0.696231 -0.009476
v -0.117991 0.496693 -0.008493
v -0.117158 0.570518 0.037438
v -0.114363 0.554908 0.035309
v -0.117997 0.829515 0.004934
v -0.118556 0.829827 0.004998
v -0.120186 0.556282 0.020441
v -0.120358 0.556566 0.004879
v -0.117922 0.541821 0.007004
v -0.117069 0.540707 0.020284
v -0.118902 0.540801 0.014142
v -0.116306 0.500855 0.019160
v -0.117671 0.501260 -0.014400
v -0.117627 0.821847 0.004842
v -0.118424 0.822264 0.004075
v -0.114172 0.557945 -0.002761
v -0.115652 0.572811 -0.003491
v -0.118354 0.821825 0.007008
v -0.119179 0.832578 0.006639
v -0.118227 0.828903 0.007435
v -0.117440 0.829275 0.004952
v -0.113159 0.524392 0.028587
v -0.116105 0.527599 -0.021249
v -0.112912 0.602839 -0.026632
v -0.115815 0.498153 0.018323
v -0.112753 0.696575 -0.025403
v -0.115386 0.711445 -0.025122
v -0.117872 0.587385 0.034321
v -0.117351 0.821556 0.006138
v -0.111858 0.497921 0.014756
v -0.115638 0.497774 0.018063
v -0.116927 0.828655 0.007077
v -0.117576 0.828690 0.007284
v -0.117281 0.496420 -0.013415
v -0.113179 0.542835 -0.001051
v -0.112633 0.712106 -0.013568
v -0.115436 0.571402 0.032738
v -0.115897 0.556153 0.026189
v -0.118389 0.832848 0.006263
v -0.118473 0.832143 0.006957
v -0.115335 0.726466 -0.020505
v -0.116133 0.516065 -0.019633
v -0.117271 0.495742 -0.013304
v -0.110027 0.572352 -0.022689
v -0.111801 0.587400 -0.024310
v -0.116222 0.496188 -0.012208
v -0.117887 0.832524 0.005853
v -0.117919 0.831856 0.006999
v -0.116296 0.829081 0.005263
v -0.116902 0.829105 0.005005
v -0.113570 0.497355 0.001183
v -0.114231 0.497013 -0.004598
v -0.117590 0.832845 0.006567
v -0.116983 0.832174 0.005647
v -0.117339 0.832337 0.005697
v -0.111440 0.539633 0.032594
v -0.110600 0.665803 -0.007772
v -0.112254 0.681325 -0.008467
v -0.114495 0.527181 0.007193
v -0.114637 0.526043 0.013341
v -0.111375 0.497456 0.006577
v -0.116964 0.831412 0.006913
v -0.117412 0.831626 0.006980
v -0.114908 0.501373 -0.016229
v -0.115684 0.507670 -0.017696
v -0.116716 0.832044 0.005618
v -0.117060 0.832830 0.006531
v -0.117236 0.833002 0.006217
v -0.115738 0.827791 0.006177
v -0.116245 0.828403 0.006644
v -0.113195 0.506425 0.022956
v -0.116542 0.831213 0.006807
v -0.113032 0.555853 0.031103
v -0.109801 0.650226 -0.007728
v -0.113645 0.496687 -0.009487
v -0.116769 0.832647 0.006544
v -0.114830 0.496253 -0.015122
v -0.115726 0.829155 0.005698
v -0.116021 0.831530 0.005619
v -0.116401 0.831857 0.005579
v -0.116744 0.832874 0.006159
v -0.116559 0.832780 0.006156
v -0.114903 0.495515 -0.014942
v -0.108718 0.619650 -0.008977
v -0.109007 0.635045 -0.008344
v -0.113100 0.540755 0.024724
v -0.112681 0.525865 0.018430
v -0.109304 0.525976 0.022174
v -0.108546 0.603942 -0.009291
v -0.116501 0.832488 0.006524
v -0.116104 0.831006 0.006655
v -0.115503 0.830836 0.006204
v -0.116385 0.832722 0.006152
v -0.116242 0.832651 0.006155
v -0.116259 0.832300 0.006481
v -0.115853 0.832051 0.006352
v -0.110775 0.681118 -0.025129
v -0.115913 0.832362 0.006081
v -0.107742 0.573005 -0.008576
v -0.108472 0.588302 -0.008870
v -0.111875 0.501107 0.021438
v -0.115527 0.831423 0.005971
v -0.112810 0.496216 -0.012999
v -0.111440 0.527072 -0.021266
v -0.112514 0.515986 -0.020193
v -0.108363 0.497492 0.011178
v -0.111199 0.498499 0.020366
v -0.112256 0.501291 -0.016954
v -0.112762 0.507609 -0.018380
v -0.107327 0.557613 -0.008001
v -0.107412 0.498142 0.018169
v -0.110968 0.498075 0.020070
v -0.108451 0.650144 -0.024680
v -0.109301 0.665807 -0.024921
v -0.109062 0.556685 -0.021491
v -0.109707 0.540733 -0.021441
v -0.108701 0.506566 0.024067
v -0.110363 0.513575 0.025998
v -0.112270 0.712098 -0.019553
v -0.112386 0.495377 -0.015825
v -0.112306 0.496081 -0.015970
v -0.109973 0.697163 -0.013798
v -0.107501 0.682089 -0.013082
v -0.110582 0.515028 0.011226
v -0.112965 0.528530 0.001109
v -0.111922 0.516965 0.000007
v -0.111389 0.516015 0.005502
v -0.107712 0.634854 -0.024537
v -0.109953 0.498141 -0.004750
v -0.109144 0.498533 -0.000608
v -0.110260 0.497593 -0.008756
v -0.106442 0.603604 -0.023017
v -0.107249 0.619410 -0.024015
v -0.107913 0.498535 0.003321
v -0.109904 0.527586 -0.005169
v -0.108271 0.541399 -0.006425
v -0.108680 0.524974 0.029108
v -0.106375 0.513729 0.025819
v -0.110081 0.540619 0.028756
v -0.111473 0.516861 -0.005792
v -0.110227 0.496968 -0.011634
v -0.109841 0.515694 -0.018918
v -0.110334 0.501440 -0.015703
v -0.110729 0.507569 -0.017222
v -0.109624 0.697138 -0.019805
v -0.107170 0.681848 -0.019520
v -0.108743 0.515039 0.016151
v -0.110402 0.495977 -0.013958
v -0.110340 0.496587 -0.014149
v -0.105418 0.666483 -0.012468
v -0.111319 0.509420 -0.000965
v -0.107939 0.501347 0.022281
v -0.104652 0.497909 0.015687
v -0.105170 0.588037 -0.021488
v -0.111559 0.509004 -0.006078
v -0.111358 0.508359 -0.010706
v -0.111161 0.503327 -0.005411
v -0.110030 0.503579 -0.001134
v -0.110360 0.516141 -0.011145
v -0.107918 0.526351 -0.010921
v -0.107486 0.525977 -0.019918
v -0.104343 0.539720 -0.019525
v -0.106733 0.525839 0.026057
v -0.109975 0.509166 0.004123
v -0.106249 0.498264 0.007213
v -0.111130 0.502673 -0.009664
v -0.110576 0.507904 -0.014322
v -0.108768 0.503096 0.003476
v -0.107681 0.498562 0.021192
v -0.110082 0.498707 -0.004821
v -0.109238 0.499083 -0.000667
v -0.110442 0.502027 -0.012964
v -0.110350 0.498148 -0.008841
v -0.107680 0.498083 0.020948
v -0.104591 0.498113 0.020177
v -0.109385 0.515742 -0.015474
v -0.108137 0.508459 0.009427
v -0.106041 0.507985 0.014384
v -0.110234 0.497520 -0.011764
v -0.105419 0.506862 0.023622
v -0.108004 0.499029 0.003335
v -0.102533 0.556140 -0.019364
v -0.103321 0.572660 -0.020361
v -0.107022 0.502219 0.008038
v -0.106444 0.525600 -0.015720
v -0.103399 0.635508 -0.012960
v -0.104667 0.650727 -0.012587
v -0.106197 0.514897 0.019877
v -0.104739 0.514339 0.023476
v -0.105174 0.666411 -0.019130
v -0.102813 0.620062 -0.014023
v -0.106331 0.498689 0.007299
v -0.104197 0.507524 0.018449
v -0.102912 0.588438 -0.014071
v -0.102813 0.604216 -0.014453
v -0.102508 0.572798 -0.013613
v -0.103165 0.635428 -0.019330
v -0.104296 0.650641 -0.018975
v -0.104080 0.498416 0.011718
v -0.105280 0.540283 -0.011665
v -0.104737 0.501455 0.012793
v -0.104588 0.501482 0.021689
v -0.102610 0.539375 -0.016011
v -0.104558 0.498844 0.020381
v -0.102357 0.498084 0.018720
v -0.102726 0.556552 -0.013079
v -0.102207 0.620020 -0.019843
v -0.104138 0.498767 0.011793
v -0.099847 0.588504 -0.019313
v -0.101170 0.604169 -0.020031
v -0.102871 0.501615 0.016855
v -0.103650 0.507176 0.021832
v -0.102291 0.498826 0.015621
v -0.102276 0.498423 0.015402
v -0.102289 0.498567 0.019108
v -0.102693 0.501492 0.020120
v -0.098606 0.572861 -0.017305
v -0.099213 0.556000 -0.016735
usemtl Vastus_lateralis_muscle_rMaterial0
f 1 2 3
f 4 3 2
f 5 3 6
f 5 1 3
f 4 6 3
f 7 2 8
f 7 4 2
f 1 8 2
f 5 6 9
f 5 10 1
f 11 5 9
f 11 12 5
f 5 12 13
f 5 13 10
f 7 8 14
f 15 16 7
f 7 16 17
f 15 7 14
f 7 18 4
f 7 17 18
f 19 9 6
f 4 19 6
f 1 20 8
f 20 14 8
f 1 10 21
f 1 22 20
f 1 21 22
f 15 23 16
f 24 16 23
f 24 17 16
f 15 14 25
f 20 25 14
f 11 9 26
f 19 26 9
f 4 18 27
f 4 28 19
f 4 27 28
f 11 29 12
f 30 13 12
f 30 12 29
f 31 10 13
f 31 21 10
f 15 32 23
f 33 32 15
f 15 25 34
f 33 15 34
f 35 23 32
f 35 24 23
f 36 18 17
f 36 27 18
f 11 37 29
f 38 37 11
f 11 26 39
f 38 11 39
f 31 13 30
f 35 32 40
f 33 40 32
f 24 36 17
f 41 29 37
f 30 29 41
f 35 42 24
f 43 35 40
f 43 44 35
f 35 44 45
f 35 45 42
f 41 37 46
f 38 46 37
f 19 47 26
f 19 28 48
f 19 49 47
f 19 48 49
f 30 41 50
f 30 50 51
f 31 30 52
f 30 51 52
f 24 42 53
f 24 54 36
f 24 53 54
f 43 40 55
f 33 55 40
f 47 39 26
f 56 28 27
f 56 48 28
f 41 57 50
f 41 46 58
f 41 59 57
f 41 58 59
f 43 60 44
f 61 44 60
f 61 45 44
f 36 56 27
f 38 39 62
f 47 62 39
f 20 22 63
f 64 22 21
f 64 63 22
f 20 65 25
f 20 63 66
f 20 66 65
f 64 21 31
f 67 50 57
f 67 51 50
f 68 42 45
f 68 53 42
f 43 69 60
f 70 69 43
f 43 55 71
f 70 43 71
f 65 34 25
f 38 72 46
f 58 46 72
f 36 54 73
f 36 74 56
f 36 73 74
f 33 34 75
f 65 75 34
f 31 52 76
f 64 31 77
f 31 76 77
f 78 72 38
f 38 62 79
f 78 38 79
f 80 57 59
f 58 81 59
f 80 59 81
f 82 60 69
f 83 60 82
f 83 61 60
f 84 52 51
f 84 76 52
f 80 67 57
f 82 69 85
f 70 85 69
f 86 55 33
f 33 75 87
f 86 33 87
f 88 54 53
f 88 73 54
f 89 45 61
f 89 68 45
f 58 72 90
f 58 91 81
f 58 90 92
f 58 92 91
f 67 84 51
f 47 49 93
f 94 49 48
f 94 93 49
f 47 95 62
f 47 93 96
f 47 96 95
f 86 71 55
f 56 94 48
f 78 90 72
f 95 79 62
f 56 74 97
f 56 98 94
f 56 97 98
f 99 53 68
f 99 88 53
f 80 100 67
f 101 80 81
f 80 102 100
f 80 103 102
f 101 103 80
f 82 85 104
f 70 105 85
f 104 85 105
f 82 104 106
f 83 82 106
f 67 100 107
f 67 108 84
f 67 107 108
f 101 81 91
f 70 71 109
f 86 109 71
f 78 79 110
f 95 110 79
f 111 74 73
f 111 97 74
f 89 61 83
f 78 112 90
f 92 90 112
f 113 100 102
f 113 107 100
f 92 114 91
f 101 91 114
f 115 105 70
f 70 109 116
f 115 70 116
f 117 63 64
f 64 77 118
f 64 118 119
f 117 64 119
f 117 66 63
f 120 112 78
f 78 110 121
f 120 78 121
f 122 77 76
f 122 118 77
f 99 68 89
f 123 73 88
f 123 111 73
f 84 122 76
f 65 66 124
f 117 124 66
f 104 125 106
f 104 105 126
f 104 127 125
f 104 128 127
f 104 126 128
f 65 129 75
f 65 124 130
f 65 130 129
f 83 106 131
f 132 106 125
f 132 131 106
f 129 87 75
f 84 108 133
f 84 134 122
f 84 133 134
f 135 102 103
f 136 113 102
f 136 102 135
f 137 96 93
f 94 137 93
f 101 138 103
f 135 103 138
f 92 112 139
f 92 140 114
f 92 139 141
f 92 141 140
f 95 96 142
f 137 142 96
f 113 143 107
f 143 108 107
f 89 83 144
f 83 131 145
f 83 145 144
f 115 126 105
f 86 87 146
f 129 146 87
f 113 147 143
f 136 147 113
f 143 133 108
f 120 139 112
f 94 98 148
f 94 149 137
f 94 148 149
f 95 150 110
f 95 142 151
f 95 151 150
f 152 101 114
f 101 153 138
f 152 153 101
f 123 88 99
f 154 109 86
f 86 146 155
f 154 86 155
f 150 121 110
f 156 98 97
f 156 148 98
f 143 147 157
f 157 147 158
f 136 158 147
f 152 114 140
f 99 89 159
f 89 144 160
f 89 160 159
f 161 97 111
f 161 156 97
f 154 116 109
f 120 121 162
f 150 162 121
f 163 125 127
f 128 164 127
f 163 127 164
f 120 165 139
f 141 139 165
f 143 157 166
f 167 166 157
f 168 167 157
f 157 158 169
f 168 157 169
f 143 170 133
f 143 166 170
f 132 125 163
f 128 126 171
f 115 171 126
f 141 172 140
f 152 140 172
f 173 131 132
f 173 145 131
f 123 99 174
f 99 159 175
f 99 175 174
f 115 116 176
f 154 176 116
f 177 165 120
f 120 162 178
f 177 120 178
f 161 111 123
f 122 179 118
f 122 134 180
f 122 180 181
f 122 181 179
f 136 135 182
f 183 158 136
f 136 182 184
f 183 136 184
f 170 134 133
f 135 138 185
f 135 185 182
f 179 119 118
f 170 180 134
f 167 186 166
f 167 187 188
f 189 187 167
f 167 188 186
f 189 167 168
f 137 190 142
f 137 149 191
f 137 192 190
f 137 191 192
f 117 119 193
f 179 193 119
f 190 151 142
f 138 153 194
f 138 194 185
f 183 169 158
f 150 151 195
f 190 195 151
f 196 144 145
f 196 160 144
f 170 166 186
f 141 165 197
f 141 197 198
f 141 199 172
f 141 198 199
f 150 200 162
f 150 195 201
f 150 201 200
f 202 124 117
f 117 193 203
f 202 117 203
f 128 204 164
f 128 205 204
f 128 171 206
f 128 206 205
f 207 149 148
f 207 191 149
f 177 197 165
f 188 187 208
f 209 208 187
f 209 187 189
f 152 194 153
f 132 163 210
f 173 132 210
f 163 164 211
f 211 164 204
f 202 130 124
f 163 211 212
f 163 213 210
f 163 212 213
f 123 174 214
f 161 123 215
f 123 214 215
f 200 178 162
f 168 169 216
f 183 216 169
f 217 171 115
f 115 176 218
f 217 115 218
f 219 148 156
f 219 207 148
f 129 130 220
f 202 220 130
f 221 222 223
f 224 223 222
f 225 222 226
f 224 222 225
f 221 226 222
f 227 223 228
f 228 223 229
f 227 221 223
f 224 229 223
f 129 230 146
f 129 220 231
f 129 231 230
f 232 152 172
f 152 233 194
f 232 233 152
f 170 186 234
f 188 234 186
f 235 208 236
f 188 208 235
f 237 236 208
f 237 208 209
f 238 159 160
f 238 175 159
f 227 228 239
f 239 228 240
f 228 229 240
f 230 155 146
f 225 226 241
f 224 225 242
f 225 241 243
f 225 243 244
f 225 245 242
f 225 244 245
f 219 156 161
f 177 178 246
f 200 246 178
f 247 226 221
f 247 221 227
f 248 241 226
f 247 248 226
f 227 239 249
f 239 250 251
f 239 252 250
f 239 251 249
f 239 240 253
f 239 253 252
f 189 168 254
f 168 216 254
f 177 255 197
f 198 197 255
f 227 249 256
f 247 227 257
f 227 256 257
f 154 155 258
f 230 258 155
f 235 236 259
f 260 235 259
f 188 235 260
f 261 259 236
f 261 262 259
f 263 259 262
f 260 259 263
f 261 236 237
f 264 251 250
f 264 250 265
f 252 265 250
f 170 266 180
f 170 234 266
f 232 172 199
f 267 249 251
f 267 256 249
f 190 229 224
f 190 224 195
f 224 242 201
f 224 201 195
f 243 241 268
f 248 268 241
f 190 240 229
f 190 192 240
f 253 240 192
f 269 270 262
f 269 262 261
f 263 262 270
f 188 271 234
f 188 260 271
f 211 204 272
f 205 272 204
f 253 192 191
f 196 145 173
f 243 273 244
f 243 274 275
f 243 276 274
f 243 275 273
f 243 268 276
f 266 181 180
f 267 251 264
f 217 206 171
f 200 201 242
f 200 242 245
f 264 265 277
f 264 277 278
f 264 278 279
f 267 264 280
f 264 279 280
f 211 281 212
f 211 282 281
f 211 283 282
f 211 272 283
f 277 265 284
f 252 284 265
f 173 210 285
f 286 210 213
f 286 285 210
f 287 176 154
f 154 258 288
f 287 154 288
f 289 212 281
f 289 213 212
f 209 189 290
f 189 254 290
f 291 255 177
f 177 246 292
f 291 177 292
f 277 293 278
f 294 278 293
f 294 279 278
f 295 174 175
f 295 214 174
f 179 181 296
f 266 296 181
f 297 245 244
f 297 244 273
f 219 161 298
f 161 215 299
f 161 299 298
f 269 300 270
f 274 300 269
f 269 261 301
f 274 269 302
f 269 303 302
f 269 301 303
f 252 253 191
f 252 191 207
f 304 270 300
f 305 263 270
f 305 270 304
f 274 306 300
f 304 300 306
f 261 307 301
f 261 237 308
f 261 308 307
f 274 309 275
f 274 276 306
f 274 302 309
f 200 245 297
f 200 297 246
f 277 310 293
f 277 311 310
f 277 284 312
f 277 312 311
f 198 313 199
f 232 199 313
f 314 293 310
f 294 293 314
f 179 315 193
f 179 296 316
f 179 316 315
f 252 207 219
f 252 219 284
f 237 209 317
f 209 290 317
f 318 273 275
f 318 275 309
f 260 263 305
f 238 160 196
f 287 218 176
f 198 255 319
f 291 319 255
f 205 206 320
f 217 320 206
f 321 306 276
f 322 304 306
f 322 306 321
f 321 276 268
f 314 310 323
f 311 323 310
f 305 304 322
f 324 309 302
f 324 302 303
f 325 303 301
f 325 301 307
f 219 312 284
f 315 203 193
f 326 248 247
f 247 257 327
f 326 247 328
f 247 327 328
f 219 298 312
f 297 292 246
f 326 268 248
f 182 329 184
f 182 185 329
f 314 323 330
f 314 330 331
f 314 331 332
f 294 314 333
f 314 332 333
f 281 282 334
f 282 335 334
f 282 283 335
f 205 336 272
f 336 283 272
f 196 173 337
f 173 285 338
f 173 338 337
f 326 321 268
f 339 257 256
f 339 327 257
f 198 319 340
f 198 341 313
f 198 340 341
f 237 342 308
f 237 317 343
f 237 343 342
f 344 183 184
f 344 184 329
f 281 334 345
f 289 281 345
f 330 323 346
f 311 346 323
f 347 185 194
f 347 329 185
f 348 215 214
f 348 299 215
f 286 213 289
f 266 234 271
f 297 349 292
f 291 292 349
f 297 273 318
f 339 256 267
f 267 280 350
f 339 267 351
f 267 350 351
f 352 216 183
f 352 183 344
f 205 353 336
f 205 320 354
f 205 354 353
f 355 280 279
f 355 350 280
f 295 175 238
f 322 321 326
f 311 312 298
f 202 203 356
f 315 356 203
f 297 318 349
f 330 357 331
f 358 331 357
f 358 332 331
f 318 309 324
f 355 279 294
f 345 334 359
f 334 360 359
f 334 335 360
f 291 361 319
f 291 349 362
f 363 291 362
f 363 361 291
f 217 218 364
f 287 364 218
f 324 303 325
f 365 307 308
f 365 308 342
f 347 194 233
f 260 305 366
f 260 367 271
f 260 366 367
f 294 333 368
f 355 294 369
f 294 368 369
f 345 359 370
f 371 345 370
f 289 345 371
f 266 372 296
f 266 271 367
f 266 367 372
f 373 254 216
f 373 216 352
f 340 319 361
f 311 298 299
f 336 374 283
f 283 375 335
f 283 374 375
f 370 359 376
f 359 377 376
f 359 360 377
f 330 378 357
f 330 346 379
f 330 380 378
f 330 379 380
f 370 376 381
f 382 370 381
f 371 370 382
f 383 220 202
f 202 356 384
f 383 202 384
f 238 196 385
f 196 337 386
f 196 386 385
f 305 322 387
f 305 388 366
f 305 387 388
f 389 381 376
f 390 376 377
f 389 376 390
f 391 333 332
f 391 368 333
f 232 392 233
f 347 233 392
f 322 326 393
f 322 393 394
f 322 394 387
f 318 362 349
f 395 290 254
f 395 254 373
f 396 285 286
f 396 338 285
f 311 348 346
f 311 299 348
f 382 381 397
f 398 397 381
f 398 381 389
f 326 328 399
f 326 399 393
f 372 316 296
f 318 324 400
f 318 400 362
f 401 357 378
f 401 358 357
f 402 289 371
f 286 289 402
f 336 403 374
f 336 353 403
f 383 231 220
f 324 404 400
f 324 325 405
f 324 405 404
f 325 307 365
f 348 214 295
f 404 362 400
f 404 363 362
f 406 232 313
f 232 407 392
f 406 407 232
f 335 408 360
f 335 375 408
f 230 231 409
f 383 409 231
f 363 410 361
f 340 361 410
f 395 317 290
f 358 391 332
f 411 320 217
f 217 364 412
f 411 217 412
f 230 413 258
f 230 409 414
f 230 414 413
f 348 379 346
f 315 316 415
f 372 415 316
f 360 416 377
f 360 408 416
f 417 328 327
f 417 399 328
f 406 313 341
f 418 377 416
f 390 377 418
f 295 238 419
f 238 385 420
f 238 420 419
f 317 421 343
f 395 422 317
f 317 422 421
f 401 378 423
f 380 423 378
f 401 424 358
f 401 425 424
f 426 401 423
f 401 427 425
f 426 427 401
f 413 288 258
f 428 371 382
f 402 371 428
f 374 429 375
f 374 403 429
f 325 430 405
f 325 365 431
f 325 431 430
f 411 354 320
f 358 424 432
f 358 433 391
f 358 432 433
f 404 434 363
f 363 434 410
f 435 329 347
f 435 344 329
f 340 436 341
f 406 341 436
f 437 342 343
f 437 343 421
f 396 286 402
f 438 337 338
f 438 386 337
f 353 354 439
f 411 439 354
f 372 367 366
f 287 288 440
f 413 440 288
f 417 327 339
f 441 382 397
f 428 382 441
f 404 405 430
f 435 347 392
f 372 366 388
f 352 344 435
f 315 442 356
f 315 415 443
f 315 443 442
f 348 444 379
f 380 379 444
f 404 445 434
f 404 430 445
f 446 397 398
f 441 397 447
f 446 447 397
f 340 410 448
f 340 449 436
f 340 448 449
f 348 295 444
f 375 450 408
f 375 429 450
f 451 424 425
f 451 432 424
f 452 393 399
f 452 394 393
f 295 453 444
f 295 419 453
f 365 342 437
f 380 454 423
f 426 423 454
f 373 352 455
f 352 435 455
f 456 392 407
f 435 392 456
f 457 388 387
f 457 387 394
f 403 353 458
f 353 439 458
f 408 459 416
f 408 450 459
f 460 364 287
f 287 440 461
f 460 287 461
f 372 388 457
f 372 457 415
f 418 416 462
f 462 416 459
f 395 373 463
f 373 455 463
f 406 464 407
f 456 407 464
f 448 410 434
f 365 465 431
f 365 437 466
f 365 466 465
f 467 389 390
f 468 390 418
f 467 390 468
f 435 456 469
f 435 469 455
f 470 422 395
f 395 463 471
f 470 395 471
f 472 385 386
f 472 420 385
f 339 351 473
f 417 339 474
f 339 473 474
f 475 425 427
f 426 476 427
f 475 427 476
f 477 398 389
f 477 389 467
f 478 406 436
f 406 479 464
f 478 479 406
f 403 480 429
f 403 458 481
f 403 481 480
f 482 421 422
f 482 422 470
f 456 464 483
f 456 483 469
f 465 430 431
f 484 463 455
f 484 455 469
f 485 434 445
f 448 434 486
f 485 486 434
f 438 338 396
f 487 402 428
f 396 402 487
f 442 384 356
f 488 436 449
f 488 478 436
f 380 444 453
f 380 489 454
f 380 453 489
f 490 351 350
f 490 473 351
f 491 418 462
f 468 418 491
f 437 421 482
f 451 425 475
f 464 479 492
f 464 492 483
f 484 471 463
f 457 443 415
f 490 350 355
f 429 493 450
f 429 480 493
f 485 445 430
f 465 494 430
f 485 430 494
f 484 469 483
f 448 488 449
f 460 412 364
f 437 495 466
f 437 482 496
f 437 496 495
f 452 399 417
f 478 492 479
f 484 497 471
f 498 470 471
f 498 471 497
f 450 499 459
f 462 459 499
f 450 493 499
f 355 369 500
f 490 355 501
f 355 500 501
f 484 483 497
f 489 453 419
f 489 419 420
f 426 454 502
f 426 503 476
f 504 426 502
f 504 503 426
f 498 483 492
f 498 497 483
f 482 470 498
f 505 369 368
f 505 500 369
f 478 506 492
f 488 506 478
f 448 507 488
f 448 486 508
f 448 508 507
f 465 466 495
f 498 492 506
f 482 498 509
f 482 510 496
f 482 509 510
f 391 505 368
f 498 506 509
f 488 511 506
f 488 512 511
f 488 507 512
f 509 506 511
f 383 384 513
f 442 513 384
f 514 496 510
f 514 495 496
f 391 433 515
f 391 516 505
f 391 515 516
f 509 511 510
f 517 428 441
f 487 428 517
f 465 495 518
f 465 508 494
f 465 518 508
f 514 510 511
f 514 511 512
f 485 508 486
f 519 462 499
f 491 462 519
f 520 458 439
f 481 458 521
f 520 521 458
f 520 439 411
f 507 518 512
f 507 508 518
f 457 394 452
f 472 386 438
f 514 518 495
f 522 446 398
f 522 398 477
f 514 512 518
f 489 502 454
f 523 441 447
f 517 441 523
f 485 494 508
f 481 524 480
f 481 521 525
f 481 525 524
f 526 433 432
f 526 515 433
f 527 447 446
f 523 447 528
f 527 528 447
f 529 409 383
f 383 513 530
f 529 383 530
f 411 412 531
f 520 411 532
f 411 531 532
f 460 531 412
f 396 487 533
f 438 396 534
f 396 533 534
f 457 535 443
f 442 443 535
f 457 452 535
f 529 414 409
f 493 536 499
f 519 499 536
f 480 537 493
f 480 524 537
f 493 537 536
f 452 417 538
f 417 474 539
f 417 539 538
f 475 476 540
f 540 476 503
f 451 475 541
f 475 542 541
f 475 543 542
f 475 540 543
f 489 420 472
f 413 414 544
f 529 544 414
f 545 468 491
f 546 467 468
f 546 468 545
f 526 432 451
f 547 491 519
f 545 491 547
f 413 548 440
f 413 544 549
f 413 549 548
f 550 477 467
f 550 467 546
f 533 487 517
f 451 541 551
f 451 551 552
f 526 451 552
f 472 438 553
f 438 534 554
f 438 554 553
f 489 555 502
f 504 502 555
f 489 472 555
f 556 541 542
f 556 551 541
f 548 461 440
f 557 519 536
f 547 519 557
f 558 525 521
f 525 559 524
f 525 560 559
f 558 560 525
f 442 535 561
f 442 562 513
f 442 561 562
f 540 503 563
f 504 563 503
f 452 561 535
f 452 538 561
f 558 521 520
f 537 564 536
f 557 536 564
f 524 565 537
f 537 565 564
f 524 559 565
f 566 474 473
f 566 539 474
f 567 556 542
f 567 542 543
f 568 517 523
f 533 517 568
f 569 446 522
f 569 527 446
f 460 461 570
f 548 570 461
f 556 571 572
f 567 571 556
f 572 571 573
f 571 567 574
f 571 574 573
f 556 572 575
f 556 575 576
f 556 576 551
f 558 520 577
f 520 532 578
f 520 578 577
f 472 579 555
f 472 553 579
f 567 543 580
f 540 580 543
f 581 522 477
f 581 477 550
f 572 573 582
f 583 572 582
f 583 575 572
f 567 584 574
f 567 580 584
f 585 523 528
f 568 523 585
f 582 573 586
f 573 587 586
f 573 574 587
f 583 582 588
f 588 582 589
f 582 586 589
f 585 528 590
f 591 590 528
f 591 528 527
f 562 530 513
f 560 583 588
f 583 560 558
f 560 588 559
f 566 473 490
f 583 592 575
f 583 558 592
f 540 593 580
f 540 563 594
f 540 594 593
f 588 589 595
f 559 588 595
f 565 557 564
f 595 589 547
f 589 545 547
f 589 586 545
f 596 534 533
f 596 554 534
f 576 575 592
f 559 595 565
f 565 595 557
f 595 547 557
f 586 546 545
f 586 587 546
f 504 555 579
f 574 597 587
f 574 584 597
f 598 531 460
f 460 570 599
f 598 460 599
f 580 600 584
f 580 593 600
f 562 561 538
f 562 538 539
f 576 552 551
f 558 601 592
f 558 577 601
f 490 501 602
f 566 490 603
f 490 602 603
f 598 532 531
f 598 578 532
f 576 592 601
f 504 604 563
f 605 504 579
f 605 604 504
f 529 530 606
f 562 606 530
f 587 550 546
f 587 597 550
f 607 501 500
f 607 602 501
f 584 608 597
f 584 600 608
f 563 604 609
f 563 609 594
f 505 607 500
f 596 533 568
f 605 579 553
f 605 553 554
f 505 516 610
f 505 610 611
f 505 611 607
f 612 516 515
f 612 610 516
f 613 544 529
f 529 606 614
f 613 529 614
f 615 522 581
f 615 569 522
f 576 616 552
f 526 552 616
f 593 617 600
f 593 594 617
f 597 581 550
f 597 608 581
f 618 568 585
f 596 568 618
f 576 601 619
f 576 619 616
f 612 515 526
f 613 549 544
f 620 585 590
f 620 590 591
f 618 585 620
f 562 539 566
f 619 601 577
f 619 577 578
f 621 527 569
f 621 591 527
f 526 616 622
f 612 526 622
f 548 549 623
f 613 623 549
f 562 566 606
f 600 624 608
f 600 617 624
f 548 625 570
f 548 623 626
f 548 626 625
f 596 605 554
f 608 615 581
f 608 624 615
f 605 609 604
f 594 627 617
f 594 609 627
f 596 628 605
f 628 596 618
f 566 614 606
f 566 603 614
f 619 622 616
f 625 599 570
f 617 629 624
f 617 627 629
f 605 628 609
f 613 614 603
f 613 603 602
f 630 569 615
f 630 621 569
f 631 620 591
f 631 591 621
f 632 618 620
f 628 618 632
f 632 620 631
f 619 578 598
f 609 628 632
f 609 632 627
f 624 630 615
f 624 629 630
f 607 613 602
f 598 599 633
f 625 633 599
f 607 623 613
f 625 611 610
f 625 610 612
f 627 632 631
f 627 631 629
f 607 611 626
f 625 626 611
f 607 626 623
f 619 634 622
f 612 622 634
f 619 598 634
f 598 633 634
f 625 612 633
f 612 634 633
f 629 631 621
f 629 621 630
